
<svg xmlns="http://www.w3.org/2000/svg" version="1.1" xmlns:xlink="http://www.w3.org/1999/xlink" preserveAspectRatio="none" x="0px" y="0px" width="200px" height="200px" viewBox="0 0 200 200">
<defs>
<g id="Symbol_45_3_Layer2_0_FILL">
<path fill="#E2DBD0" stroke="none" d="
M -35.55 3.2
Q -36.3 3 -37.05 3 -40.55 3.05 -42.3 6.25 -43.75 8.95 -43.5 11.95 -43.3 14.1 -41.5 15 -40 15.7 -38.4 15.55 -36.75 15.55 -35.45 14.75 -33.6 13.65 -32.9 11.4 -31.95 8.5 -33 5.7 -33.75 3.75 -35.55 3.2
M 10.55 29.4
Q 11.1 28.25 10.3 27.35 9.55 26.45 8.15 26.4 6.3 26.15 5.3 27.75 4.2 29.55 5.2 31.35 3.25 31.4 2.35 33.25 2 33.95 1.65 34.65 -1.05 35.95 -1.6 38.6 -2.15 41.3 0.05 42.95 2.9 45.05 6.4 43.9 7.65 43.45 8.95 43 10 43.55 11.25 43.55 12.9 43.3 13.9 42.15 17.1 38.4 15.6 33.65 15.25 32.45 14.25 31.65
L 9.2 31.15
Q 10.1 30.4 10.55 29.4
M -2.95 23.5
L -4.75 24.45 -5 25.6
Q -7.85 26.4 -8.05 29.7 -8.15 31 -7.4 32 -6.35 33.35 -4.75 33.45 -2.35 33.95 -0.9 31.95 -0.25 31.05 -0.45 29.8 -0.6 28.55 -0.95 27.3 -1.2 26.45 -1.45 25.65 -1.55 25.2 -1.65 24.8 -1.8 24.25 -2.05 23.75
L -2.95 23.5
M 19.05 -14.55
Q 19 -15.75 18.8 -17.05 18.65 -18.15 18.05 -19.1 17.2 -20.55 15.9 -21.6 14.4 -22.75 12.65 -23.35 10.7 -23.95 8.65 -24.25 6.8 -24.45 5 -24.2 4.85 -28.4 2.5 -31.95 -0.25 -36.15 -4.55 -38.5 -8.5 -40.75 -13.25 -41.2 -16.9 -41.5 -20.4 -40.8 -25.6 -39.9 -29.25 -36.1 -30.65 -34.65 -31.85 -33 -33.2 -31.25 -34.5 -29.4 -35.6 -27.9 -36.65 -26.35 -38.9 -23.15 -39.35 -19.3 -39.65 -16.95 -39.2 -14.6 -38.65 -11.6 -36.55 -9.35 -35.45 -8.2 -34.15 -7.25 -33.35 -6.8 -32.45 -6.5 -29.2 -5.3 -25.75 -5.9 -23.1 -6.15 -21 -7.4 -20.65 -6.55 -20.2 -5.7 -19.85 -5 -19.35 -4.35 -18.9 -3.85 -18.4 -3.35 -23.35 -2.7 -25.4 1.35 -26.05 2.6 -26.1 4.05 -26.1 5.05 -25.8 6.05 -26.85 6.15 -27.6 6.95 -29.55 9.05 -28.85 11.75 -28.6 12.85 -28 13.9 -27.65 14.5 -27.2 15.05 -30.4 15.05 -32.55 17.2 -35.45 20.1 -36.1 24.35 -36.6 27.75 -35.55 30.9 -34.9 32.95 -33.6 34.45 -31.9 36.5 -29.65 37.6 -26.65 39.1 -23.3 39.05 -20.85 39.05 -18.9 37.6 -18.05 37 -17.3 36.25 -15.8 34.7 -14.95 32.8 -14.45 31.55 -14.05 30.3 -12.55 29.7 -11.6 28.5 -10.9 27.55 -10.25 26.6 -9.55 25.65 -9.75 24.3 -9.2 24.55 -8.65 24.8 -7.9 24.9 -7.1 25.05 -5.9 24.75 -4.75 24.45 -4.7 24.1 -4.2 23.8 -3.65 23.5 -2.95 23.5
L 3.15 18.5
Q 2.7 20.35 3.8 21.75 5.9 24.65 9.2 25.05 10.55 24.85 11.65 24.35 11.3 26.15 12.35 27.6 13.75 29.45 16.1 30.15 22.65 31.9 28.9 29.15 32.85 27.4 35.3 23.95 36.5 22.35 37.5 20.6 38.5 18.8 39.2 16.9 41.1 11.75 40.5 6.25 40.2 3.1 38.9 0.5 37.55 -2.25 34.9 -3.5 36.25 -6.05 36.4 -8.9 36.55 -12.6 33.8 -14.7 32.25 -15.75 30.45 -15.6 27.65 -16.15 25.5 -14.3 24.85 -13.7 24.5 -12.75 24.15 -11.7 24 -10.5 22.7 -11.3 21.35 -11.55 19.3 -11.85 17.4 -12.05 19.1 -12.7 19.05 -14.55
M 27.55 -33.75
Q 26.1 -36.65 23.5 -38.4 21.35 -39.85 18.7 -40.05 14.6 -39.5 12 -36.2 11.05 -34.95 10.8 -33.45 10.65 -32.5 11.05 -31.55 11.35 -30.7 11.9 -29.9 10.1 -28.25 11.1 -25.7 11.4 -24.9 12.3 -24.5 13.25 -24.1 14.25 -24.25 15.4 -23.95 16.3 -24.6 16.45 -24.95 16.5 -24.85 17.6 -24.65 18.7 -24.1 21.65 -22.75 24.65 -24.15 26.6 -25 27.6 -26.85 28.05 -27.7 28.15 -28.65 28.35 -30.35 28.1 -31.95 27.95 -32.9 27.55 -33.75 Z"/>
</g>

<g id="Symbol_45_3_Layer1_0_FILL">
<path fill="#A29480" stroke="none" d="
M 13.35 39.65
Q 12.3 41.55 10.4 42.3 9.85 42.6 9.25 42.75 9.7 43.25 10.85 43.3 12.85 43.5 13.95 41.9 14.7 40.8 14.95 39.45 15.3 37.5 14.85 35.65
L 13.35 39.65
M 5.8 18.25
Q 6.4 17.55 6.75 16.75 7.45 15.2 7.9 13.5 6.7 15 5.15 16.05 -0.25 19.5 -6.8 19.8 -9.35 19.25 -11.7 18.35 -12.9 17.9 -13.9 17.4 -13.7 18.8 -12.9 19.95 -11.8 21.55 -10.25 22.75 -11.45 23.2 -12.7 23.55 -15.15 24.3 -17.75 23.85 -21.05 23.05 -23.65 20.85 -23.65 21.6 -23.45 22.3 -23 23.85 -22.25 25.3 -21.15 27.35 -19.2 28.55 -18.15 29.15 -17.3 29.1 -16.65 28.9 -16 28.75 -17 30.7 -19.05 31.8 -19.95 32.3 -20.9 32.6 -21.8 32.85 -22.75 33 -24.8 32.65 -26.65 31.9 -28.7 31.2 -30.45 29.95 -31.6 29.05 -32.45 27.85 -33.3 26.8 -33.95 25.6 -34.6 30.8 -31.3 34.85 -30.3 36 -28.8 36.7 -25.35 38.2 -21.7 37.65 -19.8 37.25 -18.25 35.9 -16.35 34.3 -15.55 32.05 -15.15 31 -14.75 30 -14.25 28.85 -12.85 28.15 -12.05 27.7 -11.6 27.1 -9.75 25 -9.4 22.4
L -8.9 22.4
Q -7.85 23.15 -6.55 23 -3.25 22.8 -0.6 20.9 1.3 19.55 3.3 18 3.65 17.7 4 17.4 3.65 20.25 6.1 22.05 7.35 22.9 8.75 23.5 10 24 11.35 24.25 14 24.1 16.05 22.6 16.25 22.5 16.45 22.4 10.4 22.3 5.8 18.25
M 34.55 -6.45
L 33 -3.65
Q 31.7 -2.25 30.1 -1.65 29.3 -1.35 28.5 -1 30.4 0.35 31.85 2 33.3 3.65 33.45 6 33.65 9.65 33.1 13.2 32.7 15.8 31.35 18.05 29 22 25.25 24.6 21.9 26.9 17.95 27.2 17.15 27.15 16.35 27.15 17.1 27.75 17.9 28 21.6 29.1 25.3 27.8 32.35 25.2 36.4 18.95 38.8 15.25 38.85 10.95 38.85 8.3 37.9 5.7 36.35 1.55 33.25 -1.5 34.3 -2.45 34.35 -3.75 34.45 -5.1 34.55 -6.45
M 24.9 -26.55
Q 22.9 -25 20.45 -25.25 19.1 -25.5 18.1 -26.1 17.6 -26.3 17.1 -26.5
L 15.9 -25.15
Q 17.85 -25.85 19.7 -24.85 22.05 -23.5 24.45 -24.45 25.7 -25.05 26.3 -26.15 26.9 -27.4 26.9 -28.75
L 24.9 -26.55 Z"/>
</g>

<g id="Symbol_45_3_Layer0_0_FILL">
<path fill="#A29480" stroke="none" d="
M -3.65 41
Q -3.3 40.9 -3.15 40.7 -2.9 40.45 -2.8 39.85 -2.8 39.3 -3.1 38.9 -3.4 38.5 -3.95 38.5 -4.85 38.5 -5.1 39.4 -5.35 40.25 -4.7 40.8 -4.2 41.25 -3.65 41
M -39.5 21.8
Q -39.4 21.05 -39.9 20.55 -40.15 20.15 -40.75 20 -41.25 19.85 -41.65 19.9 -42.55 20 -42.95 20.8 -43.45 21.5 -43.1 22.35 -42.7 23.25 -41.75 23.5 -40.8 23.65 -40.05 23 -39.55 22.55 -39.5 21.8
M 39.5 -7.55
Q 38.65 -7.45 38.1 -7.05 37.25 -6.5 36.95 -5.45 36.65 -4.4 37.1 -3.45 37.55 -2.55 38.55 -2.1 39.55 -1.7 40.5 -2 41.5 -2.35 42.05 -3.25 42.6 -4.2 42.45 -5.2 42.25 -6.2 41.4 -6.9 40.55 -7.6 39.5 -7.55
M 8.75 -40.2
Q 8.35 -40.95 7.5 -41.25 6.7 -41.55 5.9 -41.3 5.25 -41.1 4.8 -40.45 4.35 -39.9 4.3 -39.2 4.3 -38.45 4.7 -37.85 5.1 -37.2 5.75 -36.95 6.4 -36.65 7.15 -36.8 7.85 -36.95 8.35 -37.45 9.1 -38.25 9 -39.25 8.9 -39.9 8.75 -40.2 Z"/>
</g>
</defs>

<g transform="matrix( 1.84967041015625, 0, 0, 1.84967041015625, 100.8,100.45) ">
<g transform="matrix( 1, 0, 0, 1, 0,0) ">
<use xlink:href="#Symbol_45_3_Layer2_0_FILL"/>
</g>

<g transform="matrix( 1, 0, 0, 1, 0,0) ">
<use xlink:href="#Symbol_45_3_Layer1_0_FILL"/>
</g>

<g transform="matrix( 1, 0, 0, 1, 0,0) ">
<use xlink:href="#Symbol_45_3_Layer0_0_FILL"/>
</g>
</g>
</svg>
