
<svg xmlns="http://www.w3.org/2000/svg" version="1.1" xmlns:xlink="http://www.w3.org/1999/xlink" preserveAspectRatio="none" x="0px" y="0px" width="200px" height="200px" viewBox="0 0 200 200">
<defs>
<g id="Symbol_45_5_Layer2_0_FILL">
<path fill="#E2DBD0" stroke="none" d="
M -5.2 33.85
Q -4.35 34.1 -3.45 33.9 -3.3 33.2 -4.15 32.1
L -5.05 31.2 -6.15 31.95
Q -6.55 33.4 -5.2 33.85
M -24.3 30.15
L -25.25 30.8
Q -26.15 28.9 -28.2 27.85 -29.7 27.1 -31.35 26.9 -32.9 27 -33.8 28.05 -35.75 30.3 -35.8 33.25 -35.8 35.05 -34.6 36.1 -32.9 37.7 -30.7 37.15 -29.95 37 -29.3 36.55 -28.1 35.6 -28.05 34.1 -27.3 34.3 -26.55 34.2
L -23.9 35.6
Q -22.95 35.7 -22.4 34.95 -21.1 33.1 -21.85 31 -22.05 30.5 -22.75 30.25 -23.55 30.05 -24.3 30.15
M -34.5 21.1
L -34.2 22.5
Q -33.3 23.75 -31.8 23.15 -31.55 22.95 -31.25 22.75 -31.15 22.6 -31 22.5 -30.4 21.05 -31.5 20 -32.05 19.5 -32.8 19.25 -33.55 19.45 -34.3 19.7
L -34.5 21.1
M -36.95 6
Q -37.3 5.25 -37.5 5.05 -39.05 4.75 -41.6 6.45 -41.6 6.75 -40.95 7.65 -40.35 8.5 -40.05 8.75 -41.5 9.3 -42.35 10.8 -43.25 12.4 -41.9 13.7 -40.45 15.25 -38.2 15.1 -37.2 14.85 -36.7 14.2 -35.95 13.2 -36.25 11.7 -36.45 10.8 -36.85 10.05 -37.35 9.15 -37.4 8.3
L -36.7 7.2
Q -36.6 6.8 -36.95 6
M -22.3 0.2
Q -23.6 0.15 -24.8 0.45 -25.85 0.55 -26.75 1.15 -28.3 2.25 -27.8 4.35 -27.4 6.05 -26.3 7.35 -27 8.2 -27.6 9.1 -28.4 10.25 -28.9 11.5 -29.9 14.1 -29.1 16.7 -27.85 20.6 -24.55 22.95 -23.7 23.6 -22.85 24.3 -21.25 25.65 -20.05 27.65 -18.55 30.05 -15.55 30.35 -14.25 30.15 -12.95 29.95 -11.65 29.7 -10.9 28.75 -9.3 26.7 -7.55 25.05
L -9.4 25.45
Q -11.4 25.8 -12.1 25.65 -13.1 25.4 -14.05 25.05 -18.25 23.9 -21.4 21 -24 18.65 -24.95 15.4 -25.55 13.3 -25.45 11.1 -25.3 8.25 -22.6 6.85
L -24.25 5 -22.3 0.2
M -20.75 -15.5
Q -23.25 -14.75 -24.65 -12.75 -25.25 -11.85 -25.65 -10.85 -26.65 -8.05 -25.1 -5.35 -23.95 -3.4 -22.35 -2.3 -22.35 -4.3 -23 -6.25 -23.1 -6.65 -23.15 -7 -23.35 -9.55 -22.25 -11.65 -21.4 -13.4 -20 -14.4 -19.3 -14.9 -18.65 -15.5
L -20.75 -15.5
M -17.35 -36.2
Q -13.5 -39.05 -8.9 -40.1 -7.75 -40.3 -6.6 -40.5 -4.75 -40.75 0.15 -39.95 -0.5 -41.2 -1.25 -42.35 -2.45 -44 -4.55 -44.75 -6.9 -45.55 -9.4 -45.6 -11.8 -45.6 -14.25 -45.55 -15.75 -45.45 -16.95 -44.45 -18.2 -43.25 -20.05 -42.3 -21.55 -41.55 -23.25 -41.1 -29.55 -39.65 -33.7 -34.8 -37.25 -30.7 -38.25 -25.35 -39.05 -20.9 -38.7 -16.5 -38.4 -13.1 -36.9 -10.15 -36.5 -9.35 -35.9 -8.6
L -34.4 -9.9
Q -35.65 -16.15 -34.35 -22.45 -33.5 -26.4 -31.2 -29.8 -30.2 -31.35 -29.05 -32.75 -27.3 -34.95 -24.85 -36.1 -23.35 -36.7 -21.85 -36.6
L -21.6 -31.25
Q -18.85 -35.05 -17.35 -36.2
M 12.6 41.35
Q 12.45 41.7 12.4 42.05 12.45 44.4 14.8 44.6 15.15 44.55 15.5 44.5 16.15 44.25 16.3 43.4 16.65 41.25 15.15 39.85 13.3 39.65 12.6 41.35
M 7.2 43.3
Q 8.45 43.95 9.35 42.9 10.35 41.65 10.55 40 9.9 38.25 8.2 37.8 6.35 37.7 5.55 39.6 4 38.1 1.85 37.5 -0.4 37.9 -1.55 39.85 -1.9 40.45 -1.85 42.2 -1.85 43.95 -1.45 44.35 -0.3 45.45 1.25 45.85 2.65 45.95 4.1 45.65 4.95 45.4 7 43.2 7.05 43.15 7.2 43.3
M 16.1 22.2
L 12 24.05 6.05 24.25
Q 6.45 26.55 8.85 27 11.05 27.55 12.95 26.5 15.3 25 16.1 22.2
M 36 -5.25
L 33 -1
Q 35.7 1.15 37 4.35 38.4 7.85 38.35 11.6 38.35 14.7 37.3 17.6 36.65 19.35 35.7 21 34.7 22.7 33.35 24.2 31.9 25.7 30.2 26.95 28.55 28.2 26.7 29.1 22.8 30.95 18.65 30.8 17.45 30.75 16.3 30.75 19.7 33.25 23.9 33.25 28.2 33.55 32.25 32.2 34.25 31.55 35.9 30.2 37.15 29.3 38.2 28.15 42.55 23.4 43.75 17.15 44.4 13.95 44.4 11.05 44.45 7.25 43.2 3.75 41.6 -0.65 38.25 -3.9 39.1 -4.85 39.4 -6.2 39.85 -8.45 39.25 -10.55 36.95 -6.25 36 -5.25
M 18.7 -38.8
Q 17.8 -39.45 16.8 -39.85 14.3 -40.35 13.2 -38 12.15 -37.8 11.55 -37.1 10.1 -35.2 10 -32.8 9.95 -32.1 10.55 -31.45 11 -31 11.65 -30.85 12.6 -30.65 13.65 -30.6 16.05 -30.85 16.55 -33 16.8 -34.2 16.25 -35.35 18.2 -35.1 19.3 -36.7 19.35 -36.85 19.45 -36.95 19.65 -38.15 18.7 -38.8
M 27.45 -31.2
Q 27.1 -32.6 26.4 -33.8 25.7 -34.85 24.75 -35.75 23.2 -37.3 21.3 -36.55
L 20.35 -35.2
Q 19.05 -33.4 19.05 -31.25 19.05 -30.05 19.6 -28.95 20.2 -27.85 21.15 -26.9 22.3 -25.85 23.7 -25.55 24.5 -25.55 25.35 -25.55 26.55 -25.8 27.2 -26.85 27.7 -27.7 27.7 -28.8 27.7 -30.05 27.45 -31.2 Z"/>
</g>
</defs>

<g transform="matrix( 1.84967041015625, 0, 0, 1.84967041015625, 100.8,100.45) ">
<g transform="matrix( 1, 0, 0, 1, 0,0) ">
<use xlink:href="#Symbol_45_5_Layer2_0_FILL"/>
</g>
</g>
</svg>
