
<svg xmlns="http://www.w3.org/2000/svg" version="1.1" xmlns:xlink="http://www.w3.org/1999/xlink" preserveAspectRatio="none" x="0px" y="0px" width="200px" height="200px" viewBox="0 0 200 200">
<defs>
<g id="Symbol_45_0_Layer2_0_FILL">
<path fill="#FFFFFF" stroke="none" d="
M 7.75 -37.55
Q 7.4 -35.8 7 -34.05 4.9 -24.35 -0.25 -16
L -1.6 -17.8
Q -1.7 -16.95 -1.8 -16.1 -1.95 -15.3 -2.15 -14.45 -2.3 -13.9 -2.55 -13.3 -2.85 -12.7 -3.15 -12.1 -4.4 -11.55 -5.55 -12 -18.95 -17.95 -31.45 -25.95 -33.75 -27.45 -36.1 -28.85
L -10.15 -3.2 -10.3 -2.75
Q -11.05 -2.1 -11.75 -2 -26.528125 2.2779296875 -41.75 3.05 -35.20625 2.9375 -28.55 3.5 -21.7 4.1 -15.25 5.8 -17.35 8.4 -19.75 10.3 -31.05 19.35 -43 27.95 -44.45 28.95 -45.85 29.95 -43 28.05 -40.05 26.35 -28.55 19.7 -16.7 13.45 -16.3 13.25 -15.75 13.25 -15.95 13.85 -16.2 14.45 -16.5 15.3 -16.9 16.1 -17.6 17.6 -18.45 19.05 -18.85 19.7 -19.25 20.3 -19.15 20.25 -19.05 20.2 -13.35 15.95 -8.1 11.95 -5.75 10.15 -3.2 9.8 -2.65 10.15 -2.55 11.05 -0.55 25.15 -0.65 39.3 -0.65 42.2 -0.5 45.1 0 37.95 1 30.85 2.15 22.85 3.75 15.05
L 6.6 20.85
Q 6.65 19.95 6.55 19.1 6.1 15.25 6.15 11.2 6.2 9.25 7.8 8.5 10.7 9.45 13.65 11.15 24.85 17.65 35.25 25.25 30.7 21.5 26.05 18.15 17.85 12.1 12.6 3.6 10.95 1 13.3 -1.1 17.25 -4.55 22.15 -5.55 24.85 -6.2 27.55 -6.8
L 43.55 -10.25
Q 37.9 -10.65 32.2 -10.05 24.9 -9.25 17.55 -8.45 20.15 -10.4 25.35 -13.5 35.55 -19.7 45.15 -26.6
L 12.65 -11.25 16.1 -18.1
Q 15.4 -17.35 14.7 -16.65 13 -14.9 11.35 -13.1 10.4 -12.1 9 -11.75 8.6 -11.9 8.2 -12 7.5 -12.8 7.45 -13.55 7.05 -25.5 7.75 -37.55 Z"/>
</g>
</defs>

<g transform="matrix( 1.84967041015625, 0, 0, 1.84967041015625, 100.8,100.45) ">
<g transform="matrix( 1, 0, 0, 1, 0,0) ">
<use xlink:href="#Symbol_45_0_Layer2_0_FILL"/>
</g>
</g>
</svg>
