
<svg xmlns="http://www.w3.org/2000/svg" version="1.1" xmlns:xlink="http://www.w3.org/1999/xlink" preserveAspectRatio="none" x="0px" y="0px" width="200px" height="200px" viewBox="0 0 200 200">
<defs>
<g id="Symbol_45_1_Layer2_0_FILL">
<path fill="#E2DBD0" stroke="none" d="
M 1.1 -28.9
Q 0.55 -29.3 0 -29.7 -3.7 -32.15 -8 -33.1 -11.8 -33.7 -15.6 -32.75 -20.35 -31.6 -24.15 -28.3 -27.75 -25.15 -30.25 -20.95 -32.7 -16.85 -33.15 -12.2 -33.65 -7.45 -31.7 -3.1 -30.75 -0.9 -29.3 0.9 -30.75 1.4 -31.75 2.65 -32.9 3.95 -33.6 5.8 -34.35 8 -33.1 9.95 -32.45 11.05 -31.45 11.85 -30.4 12.7 -29.2 13.35 -28.35 13.85 -27.3 13.5 -27.5 15.45 -28.35 17 -28.85 17.95 -28.9 19.3 -28.95 22.5 -27.5 25.3 -26 28.25 -23.3 30 -21.1 31.3 -18.65 32.1 -16.45 32.95 -14.1 33.35 -11.6 33.4 -9.1 32.7 -5.65 31.65 -4.1 28.4 -2.4 30.05 -0.1 31.2 1.7 32.1 3.9 32.35 6.65 32.55 9.1 31.75 11 31.2 12.05 29.8 12.5 29.2 12.7 28.5 13.5 25.7 13.5 22.9 15.15 23.45 16.95 23.45 18.95 23.5 21.05 23 22.5 22.8 23.85 22.3 25.75 21.5 27.3 20.2 30.35 17.6 31.95 14.3 34 10.1 33.95 5.45 33.95 2.3 33 -0.5 31.25 -5.7 27.1 -9.45 24.35 -11.95 20.7 -12.95 20.8 -13.55 21.15 -14.2 21.95 -15.6 22.2 -17.2 22.55 -19.1 22.65 -20.9 22.75 -23.15 21.5 -24.75 20.45 -26.05 18.7 -26.85 14.8 -28.8 10.35 -29 8.65 -28.65 7 -28.25 5.25 -27.8 3.85 -26.7
L 3.75 -26.6
Q 2.85 -27.35 2 -28.1 1.55 -28.55 1.1 -28.9 Z"/>
</g>

<g id="Symbol_45_1_Layer1_0_FILL">
<path fill="#A29480" stroke="none" d="
M 18.45 -17.35
Q 18.1 -16.45 17.5 -15.6 15.3 -12.6 11.95 -10.95 9.9 -9.9 7.85 -9.2 6.4 -8.55 4.9 -8.6 6.75 -8.1 8.75 -7.45 11.05 -6.85 13.25 -7.85 13.9 -6.15 14.1 -4.5 14.4 -2.05 14.1 0.5 13.85 2.55 12.8 4.4 10.9 7.75 7.4 8.9 6.4 9.25 5.35 9.45 3.5 9.85 2.1 8.75
L 1.55 8.75
Q 0.4 13.1 -2.75 16.15 -3.55 16.85 -4.5 17.4 -5.75 18.1 -7.3 18 -10.5 17.4 -11.8 14.5 -15.45 15.8 -19.3 15.8 -22 15.55 -24.5 14.5 -24.05 15.2 -23.5 15.85 -21.65 18.25 -19.55 20.45 -17.95 22.05 -15.6 22.55 -12.9 23.25 -10.25 23 -9.2 23 -8.65 22.15 -8.6 24.55 -10.8 25.55 -14.7 27.4 -18.95 26.8 -22.55 26.25 -25.8 24.55 -24.35 27.35 -22.25 29.85 -20.15 32.3 -16.95 33 -12.6 33.9 -8.75 32.15 -7.9 31.75 -7.1 31.15 -6.3 30.6 -5.6 29.75 -4.4 28.15 -3.25 26.6 -1.95 28.7 0.1 30.05 1.5 30.9 3.2 31.1 5.7 31.35 8.1 30.45 9.95 29.8 11.05 28.25 9.85 28.85 8.6 28.75 6.6 28.7 4.5 28.7 3.5 28.4 2.75 27.65 1.85 26.95 1.05 26.1
L 1.25 23.7
Q 1.35 23.65 1.5 23.6 3.85 24.45 6.3 24.8 9.45 24.7 12.1 23.2 15.55 21.15 18.5 18.35 20 16.95 21.3 15.25 21.35 15.3 21.4 15.4 21.85 16.35 21.6 17.35 20.9 20.35 18.5 22.15
L 18.5 22.75
Q 19.5 23.15 20.65 22.75 24.75 21.1 27.85 17.95 29.15 16.75 29.8 15.1 31.3 11.1 31.55 6.7 31.75 3.75 31.25 0.75 30.8 -2.05 28.9 -4.15 27.05 -6.2 25.05 -8.35 24.95 -8 25 -7.65 25.2 -6.7 25.4 -5.7 25.95 -2.85 24.5 -0.15 23.4 1.9 21.9 3.75 21.25 4.55 20.55 5.25 20.75 4.9 20.85 4.6 21.25 3.05 21.2 1.5 21.15 -2.15 19.5 -5.5 19 -6.45 18.5 -7.2 17.6 -8.5 16.6 -9.75 18.45 -10.85 19 -13.2 19.35 -14.55 19.8 -15.9 20.5 -18.05 19.65 -20.35 19.3 -21.3 19.05 -22.3 18.9 -22.8 18.75 -23.25 18.7 -23.1 18.7 -22.9 18.8 -20.65 18.7 -18.45 18.65 -17.85 18.45 -17.35 Z"/>
</g>

<g id="Symbol_45_1_Layer0_0_FILL">
<path fill="#A29480" stroke="none" d="
M -6 32.55
Q -6.4 33.25 -6.2 34 -6 34.7 -5.35 35.15 -4.65 35.6 -3.95 35.5 -3.2 35.4 -2.7 34.75 -2.2 34.1 -2.25 33.35 -2.3 32.65 -2.85 32.05 -3.45 31.5 -4.2 31.5 -4.2 31.55 -4.35 31.55
L -4.9 31.6
Q -5.6 31.85 -6 32.55
M -29.3 1.15
Q -29.8 2 -29.2 2.75 -28.6 3.6 -27.7 3.35 -26.75 3.15 -26.55 2.2 -26.35 1.2 -27.15 0.7 -27.3 0.55 -27.7 0.45 -28.7 0.2 -29.3 1.15
M -21.55 -1.15
Q -21.35 -2.15 -21.9 -3 -22.45 -3.85 -23.45 -4.15 -24.45 -4.45 -25.35 -4.05 -26.9 -3.3 -27 -1.55 -27 -0.8 -26.55 -0.1 -26.1 0.6 -25.4 0.95 -23.8 1.7 -22.45 0.55 -21.7 -0.1 -21.55 -1.15
M -36.45 -5.8
Q -35.6 -4.95 -34.5 -4.9 -33.6 -4.85 -32.55 -5.45 -31.65 -6.05 -31.2 -7 -30.85 -7.8 -31.1 -8.75 -31.3 -9.65 -31.95 -10.3 -33.25 -11.6 -35 -11.1 -36.75 -10.6 -37.25 -8.9 -37.65 -7.1 -36.45 -5.8
M 26.8 -12.7
Q 26.4 -13.55 25.6 -13.9 24.95 -14.15 24.4 -14.15 23.55 -14.1 22.85 -13.65 22.1 -13.15 21.9 -12.4 21.7 -11.75 21.85 -11.3 22 -10.45 22.7 -9.8 23.4 -9.15 24.25 -9.1 25.15 -9 25.95 -9.55 26.75 -10.1 26.95 -10.95 27.2 -11.8 26.8 -12.7 Z"/>
</g>
</defs>

<g transform="matrix( 1.84967041015625, 0, 0, 1.84967041015625, 100.8,100.45) ">
<g transform="matrix( 1, 0, 0, 1, 0,0) ">
<use xlink:href="#Symbol_45_1_Layer2_0_FILL"/>
</g>

<g transform="matrix( 1, 0, 0, 1, 0,0) ">
<use xlink:href="#Symbol_45_1_Layer1_0_FILL"/>
</g>

<g transform="matrix( 1, 0, 0, 1, 0,0) ">
<use xlink:href="#Symbol_45_1_Layer0_0_FILL"/>
</g>
</g>
</svg>
