
<svg xmlns="http://www.w3.org/2000/svg" version="1.1" xmlns:xlink="http://www.w3.org/1999/xlink" preserveAspectRatio="none" x="0px" y="0px" width="250px" height="250px" viewBox="0 0 250 250">
<defs>
<g id="chain_link_0_Layer0_0_FILL">
<path fill="#000000" stroke="none" d="
M 4.9 4.55
Q -3.7 11.35 2.8 23.2 9.25 35.05 25.5 26.65 41.7 18.2 25.1 1.15 13.4 -2.25 4.9 4.55
M 26.85 20.85
Q 25 21.25 23.2 21.65 8.2 25 4.9 19.45 2.55 15.5 6.05 7.1 15.55 5 24.95 6.8 26 7 27.05 7.25 30.05 14.05 26.85 20.85
M 23.3 14.7
Q 23.3 13.4 21.5 12.5 19.8 11.6 17.4 11.55 17.25 11.55 17.05 11.55 14.45 11.55 12.65 12.5 10.8 13.4 10.8 14.7 10.8 15.15 11.05 15.6 11.45 16.35 12.65 16.95 14.45 17.85 17.05 17.85 19.65 17.85 21.5 16.95 23.3 16 23.3 14.7 Z"/>

<path fill="#FFFFFF" stroke="none" d="
M 17.05 11.55
Q 17.25 11.55 17.4 11.55
L 24.95 6.8
Q 15.55 5 6.05 7.1 2.55 15.5 4.9 19.45
L 11.05 15.6
Q 10.8 15.15 10.8 14.7 10.8 13.4 12.65 12.5 14.45 11.55 17.05 11.55 Z"/>

<path fill="#CCCCCC" stroke="none" d="
M 23.2 21.65
Q 25 21.25 26.85 20.85 30.05 14.05 27.05 7.25 26 7 24.95 6.8
L 17.4 11.55
Q 19.8 11.6 21.5 12.5 23.3 13.4 23.3 14.7 23.3 16 21.5 16.95 19.65 17.85 17.05 17.85 14.45 17.85 12.65 16.95 11.45 16.35 11.05 15.6
L 4.9 19.45
Q 8.2 25 23.2 21.65 Z"/>
</g>
</defs>

<g transform="matrix( 0.701141357421875, 0, 0, 0.701141357421875, 65.2,74.45) ">
<g transform="matrix( 1, 0, 0, 1, 71.6,70.4) ">
<g transform="matrix( 1, 0, 0, 1, 0,0) ">
<use xlink:href="#chain_link_0_Layer0_0_FILL"/>
</g>
</g>
</g>
</svg>
