
<svg xmlns="http://www.w3.org/2000/svg" version="1.1" xmlns:xlink="http://www.w3.org/1999/xlink" preserveAspectRatio="none" x="0px" y="0px" width="1000px" height="1000px" viewBox="0 0 1000 1000">
<defs>
<g id="Warrior_Arm_1_Layer0_0_FILL">
<path fill="#000000" stroke="none" d="
M 25.25 21.05
Q 24.6 15.35 23.75 14.7 21 12.55 13.5 8.05 6.75 4.2 3.5 3 3.012109375 2.8333984375 2.55 2.65 0.65 9.75 0.75 12.3 2.818359375 15.8119140625 4.2 17.6 4.85 18.4 7.45 21.25 8.35 22.2 11.75 25.65 15.3 29.15 15.55 29.35 19.9482421875 29.2126953125 25.6 27.25 25.9 26.45 25.25 21.05
M 4.4 10.25
L 3.8 6.5 15.05 12.7 12.15 15.15 10.5 19.75 4.4 10.25
M 14.5 17.35
L 19.8 16.7 21.5 22.25 19.25 24.7
Q 14.7 23.1 14.45 22.55 14.15 21.95 14.2 20 14.25 18.05 14.5 17.35 Z"/>

<path fill="#0099FF" stroke="none" d="
M 14.5 17.35
Q 14.55 18.4 17.3 20.35 20.1 22.3 21.5 22.25
L 19.8 16.7 14.5 17.35
M 3.8 6.5
L 4.4 10.25 12.15 15.15 15.05 12.7 3.8 6.5 Z"/>

<path fill="#3333CC" stroke="none" d="
M 17.3 20.35
Q 14.55 18.4 14.5 17.35 14.25 18.05 14.2 20 14.15 21.95 14.45 22.55 14.7 23.1 19.25 24.7
L 21.5 22.25
Q 20.1 22.3 17.3 20.35
M 10.5 19.75
L 12.15 15.15 4.4 10.25 10.5 19.75 Z"/>
</g>
</defs>

<g id="Layer_2">
<g transform="matrix( 0.7386474609375, 0, 0, 0.7386474609375, 429.1,371.65) ">
<g id="Layer_1">
<g transform="matrix( -0.703277587890625, -0.7108154296875, -0.7108154296875, 0.703277587890625, 115.8,171.7) ">
<g transform="matrix( 1, 0, 0, 1, 0,0) ">
<use xlink:href="#Warrior_Arm_1_Layer0_0_FILL"/>
</g>
</g>
</g>
</g>
</g>
</svg>
