
<svg xmlns="http://www.w3.org/2000/svg" version="1.1" xmlns:xlink="http://www.w3.org/1999/xlink" preserveAspectRatio="none" x="0px" y="0px" width="1000px" height="1000px" viewBox="0 0 1000 1000">
<defs>
<linearGradient id="Gradient_1" gradientUnits="userSpaceOnUse" x1="57.22500000000001" y1="69.6625" x2="23.675" y2="138.3375" spreadMethod="pad">
<stop  offset="0%" stop-color="#999999"/>

<stop  offset="100%" stop-color="#FFFFFF"/>
</linearGradient>

<linearGradient id="Gradient_2" gradientUnits="userSpaceOnUse" x1="44.375" y1="17.737499999999997" x2="43.224999999999994" y2="45.2625" spreadMethod="pad">
<stop  offset="0%" stop-color="#999999"/>

<stop  offset="100%" stop-color="#FFFFFF"/>
</linearGradient>

<linearGradient id="Gradient_3" gradientUnits="userSpaceOnUse" x1="-0.5375000000000001" y1="0.21249999999999858" x2="2.9375" y2="46.987500000000004" spreadMethod="pad">
<stop  offset="0%" stop-color="#999999"/>

<stop  offset="100%" stop-color="#FFFFFF"/>
</linearGradient>

<linearGradient id="Gradient_4" gradientUnits="userSpaceOnUse" x1="45.325" y1="14.587500000000002" x2="44.175" y2="26.6125" spreadMethod="pad">
<stop  offset="0%" stop-color="#999999"/>

<stop  offset="100%" stop-color="#FFFFFF"/>
</linearGradient>

<g id="warrior_head_top_1_Layer2_0_FILL">
<path fill="#000000" stroke="none" d="
M 87.6 96.55
Q 89.3 80 90.45 63.45 90.55 62.2 89.65 58.8 88.75 55.3 88 54.3 81.65 45.4 71.6 43.95 72.8 41.75 71.15 32.9 69.5 24.1 67.45 20.9 60.75 9.75 56.15 2.4 47.45 -11.6 45.8 -12.05 44.65 -10.05 23.3 24.95
L 21.4 31.15
Q 19.8 38.1 21 41.65 15.55 43.7 11.35 45.25 3.3 48.35 1.05 49.85 -0.4 50.8 -2.65 55.1 -4.9 59.4 -4.85 60.9 -3.8 95.75 3.15 129.85 4.6 130.5 20 133.2 36.75 136.1 45.2 136.9 53.35 137.25 70.35 133 78.9 130.8 85.75 128.65 85.95 112.45 87.6 96.55
M 54.3 48.75
L 47.95 48.4 36.6 48.75 30.65 37.7 29.25 33.55
Q 29.4 33.25 29.6 33 39.1 20.4 43.95 4.7
L 45.9 -0.8
Q 48.2 6.6 51.05 13.5 55.85 25.05 62.8 35.15
L 54.3 48.75
M 19.5 57
Q 20 56.85 20.55 56.75 37.35 52.25 54.55 53.75
L 76.55 57.25
Q 79.85 67.35 78.75 78.2 76.45 101.75 77.6 125.55
L 73.4 126.65
Q 67.2 128.7 60.85 129.8 41.6 133.4 22.4 129.2
L 9.8 125.4 3.4 62.65 19.5 57 Z"/>

<path fill="#FFFFFF" stroke="none" d="
M 76.55 57.25
L 54.55 53.75 69.05 63.7 73.4 126.65 77.6 125.55
Q 76.45 101.75 78.75 78.2 79.85 67.35 76.55 57.25
M 30.65 37.7
L 38.45 35.05 29.25 33.55 30.65 37.7
M 46.55 33.4
L 58.2 35.85 47.95 48.4 54.3 48.75 62.8 35.15
Q 55.85 25.05 51.05 13.5 48.2 6.6 45.9 -0.8
L 43.95 4.7 46.55 33.4 Z"/>

<path fill="#666666" stroke="none" d="
M 19.5 57
L 3.4 62.65 9.8 125.4 22.4 129.2 21.55 117.5 20.85 116.6 20.55 70.65 19.5 57 Z"/>

<path fill="url(#Gradient_1)" stroke="none" d="
M 20.55 56.75
Q 20 56.85 19.5 57
L 20.55 70.65 20.85 116.6 21.55 117.5 22.4 129.2
Q 41.6 133.4 60.85 129.8 67.2 128.7 73.4 126.65
L 69.05 63.7 54.55 53.75
Q 37.35 52.25 20.55 56.75 Z"/>

<path fill="url(#Gradient_2)" stroke="none" d="
M 58.2 35.85
L 46.55 33.4 43.95 4.7
Q 39.1 20.4 29.6 33 29.4 33.25 29.25 33.55
L 38.45 35.05 30.65 37.7 36.6 48.75 47.95 48.4 58.2 35.85 Z"/>
</g>

<g id="warrior_head_top_1_Layer1_0_FILL">
<path fill="#000000" stroke="none" d="
M 73.3 94.8
L 72.9 94.4 71.65 94.45 68.2 99.55 66.25 98.3 67.4 102.1 65.15 107.25 69.25 103.95 70.6 105 72.3 104.7 70.7 101.8 73.3 94.8
M 32.4 90.85
L 37.25 97.9 27.6 111.4 40.7 102.05
Q 43.75 106.5 47.6 110.35 50.05 112.75 53.05 113.95 53.25 114 53.45 114.1 53.7 114.2 53.95 114.3 54.2 114.3 54.45 114.35 54.1 111.3 52.5 108.65 50.55 105.4 47.9 102.6 47.15 101.9 46.45 101.2 45.7 100.55 44.95 99.9 44.1 99.25 43.25 98.65
L 49.2 86.45 39.35 93.8 24.75 81.75 32.4 90.85 Z"/>
</g>

<g id="Warrior_Arm_0_Layer0_0_FILL">
<path fill="#000000" stroke="none" d="
M 23.8 22.25
Q 23 20 21.35 12.25 19.95 5.65 19.6 5.65 14.9 5.35 12.85 5 9.05 4.45 6.35 3.1 4.0546875 1.937109375 1.75 -0.1
L 0.75 0.7 -1.05 8.55
Q -0.53203125 13.3798828125 1.25 16.9 3.03203125 20.4201171875 4.5 22.2 5.45 22.35 9.35 23 12.3 23.5 14.2 23.65 20.05 24.1 23.8 22.25
M 15.8 9.7
L 18.9 9.7 19.8 17.3 18.8 18.8 12.55 19.6 13.8 11.1 15.8 9.7
M 5.65 17.85
L 4.55 13.55 3.3 5.35 10.6 10.75 9.3 15.25 10.2 19.35 5.65 17.85 Z"/>

<path fill="#0099FF" stroke="none" d="
M 4.55 13.55
L 9.3 15.25 10.6 10.75 3.3 5.35 4.55 13.55
M 18.9 9.7
L 15.8 9.7 13.8 11.1 12.55 19.6 19.8 17.3 18.9 9.7 Z"/>

<path fill="#3333CC" stroke="none" d="
M 4.55 13.55
L 5.65 17.85 10.2 19.35 9.3 15.25 4.55 13.55
M 18.8 18.8
L 19.8 17.3 12.55 19.6 18.8 18.8 Z"/>
</g>

<g id="warrior_shield_0_Layer0_0_FILL">
<path fill="#000000" stroke="none" d="
M 41.3 -3
Q 34.6 -11.6 17.2 -35.5
L -14.1 11.3
Q -12.75 25.85 7.3 63.45 10.6 65 22.8 51.35 34.95 37.65 41.3 -3
M 22.4 -16.5
L 32.3 -3.1 29 15.95
Q 28.45 18.45 27.95 21.05 24.6 38.25 13.55 51.85 12.35 52.95 11.1 53.95 10.45 54.5 9.65 54.8 8.75 55.1 7.8 55.25 7.1 55.3 6.4 55.4 1.75 46.05 -6.85 27.45 -15.45 8.8 4.55 -9.05
L 18.05 -23.85 22.4 -16.5
M 24.4 -4.25
L 17.75 -9.9 -0.5 13.9 0.5 14.25 0.45 14.3
Q -1.1 15.3 13.25 49.25 13.9 48.05 14.6 46.85 24.05 30.75 27.95 12.25
L 29.9 3.7 24.4 -4.25
M 14.2 -0.5
L 18.5 -7.35 27.5 2.1
Q 27.45 2.85 27.35 3.6 24.95 22.8 14.7 39.15
L 13.45 41.75 12 43.4
Q 11.25 41.7 10.5 40 5.2 27.9 2.2 15
L 2.2 14.95 2.2 14.9 2.25 14.9 13.15 0.8 14.2 -0.5 Z"/>

<path fill="url(#Gradient_3)" stroke="none" d="
M 0.45 14.3
L 0.5 14.25 -0.5 13.9 4.55 -9.05
Q -15.45 8.8 -6.85 27.45 1.75 46.05 6.4 55.4 7.1 55.3 7.8 55.25 8.75 55.1 9.65 54.8 10.45 54.5 11.1 53.95 12.35 52.95 13.55 51.85
L 13.25 49.25
Q -1.1 15.3 0.45 14.3 Z"/>

<path fill="#FFFFFF" stroke="none" d="
M 27.95 21.05
Q 28.45 18.45 29 15.95
L 27.95 12.25
Q 24.05 30.75 14.6 46.85 13.9 48.05 13.25 49.25
L 13.55 51.85
Q 24.6 38.25 27.95 21.05
M 18.5 -7.35
L 14.2 -0.5
Q 17.2 16.3 15.35 33.2 15 36.15 14.7 39.15 24.95 22.8 27.35 3.6 27.45 2.85 27.5 2.1
L 18.5 -7.35
M 24.4 -4.25
L 22.4 -16.5 18.05 -23.85 4.55 -9.05 -0.5 13.9 17.75 -9.9 24.4 -4.25 Z"/>

<path fill="#CCCCCC" stroke="none" d="
M 2.2 14.9
L 2.2 14.95 2.25 14.9 2.2 14.9
M 22.4 -16.5
L 24.4 -4.25 29.9 3.7 27.95 12.25 29 15.95 32.3 -3.1 22.4 -16.5 Z"/>

<path fill="#3333CC" stroke="none" d="
M 5.7 15.3
Q 6.35 14.5 7.05 13.7 12 8.2 13.15 0.8
L 2.25 14.9 2.2 14.95 2.2 15
Q 5.2 27.9 10.5 40 11.25 41.7 12 43.4
L 13.45 41.75 5.7 15.3 Z"/>

<path fill="#0099FF" stroke="none" d="
M 7.05 13.7
Q 6.35 14.5 5.7 15.3
L 13.45 41.75 14.7 39.15
Q 15 36.15 15.35 33.2 17.2 16.3 14.2 -0.5
L 13.15 0.8
Q 12 8.2 7.05 13.7 Z"/>
</g>

<g id="warrior_cape_2_Layer0_0_FILL">
<path fill="#000000" stroke="none" d="
M 15.35 -1.75
Q 10.9830078125 -5.1328125 9.65 -4.85 8.7 -4.7 4.85 1.65 0.75 8.3 -0.4 12.15 -1.05 14.35 -0.15 19.85 0.8 25.4 2.1 26.45 3.45 27.5 21.25 29.35 39.1 31.2 40.7 30.45 43.25 29.25 48.15 23.7 52.55 18.8 53.5 16.9 54.3 15.35 54.9 10.95 55.25 10.35 57.1 8.25 58.8 6.2 58.85 6.05 58.95 5.55 51.2 6.45 43.5560546875 7.3044921875 40.65 9.3 37.78125 11.3359375 29.8 10.9 22.465234375 10.551171875 15.35 -1.75
M 48.95 14.45
Q 47.75 15.85 44.05 19.4 40.2 23.1 39.5 23.45 37.95 24.3 30.9 24.55 25.05 24.75 22.9 24.55 19.05 24.2 14.5 22.8 11.5 21.85 6.35 19.8 6.6447265625 18.62109375 6.95 17.45 8.8609375 10.93125 12 4.95 13.35 6.2 21.6 10.7 30.45 15.55 32.2 15.45 32.75 15.4 45.55 10.05 47.9 9.1 53 9.1 51.85 10.95 48.95 14.45 Z"/>

<path fill="#FFCC00" stroke="none" d="
M 23.6 15.65
Q 31.35 15.75 32.2 15.45 30.45 15.55 21.6 10.7 13.35 6.2 12 4.95 8.8609375 10.93125 6.95 17.45 7.5 17.6 11.6 19.35 15.8 21.1 16.7 21.5 32.9 21.55 34.3 20.15 30.7 21.15 23.2 18.95 16.1 16.8 16.15 15.75 16.2 15.5 23.6 15.65 Z"/>

<path fill="#CC6600" stroke="none" d="
M 44.05 19.4
Q 47.75 15.85 48.95 14.45 51.85 10.95 53 9.1 47.9 9.1 45.55 10.05 32.75 15.4 32.2 15.45 31.35 15.75 23.6 15.65 16.2 15.5 16.15 15.75 16.1 16.8 23.2 18.95 30.7 21.15 34.3 20.15 32.9 21.55 16.7 21.5 15.8 21.1 11.6 19.35 7.5 17.6 6.95 17.45 6.6447265625 18.62109375 6.35 19.8 11.5 21.85 14.5 22.8 19.05 24.2 22.9 24.55 25.05 24.75 30.9 24.55 37.95 24.3 39.5 23.45 40.2 23.1 44.05 19.4 Z"/>
</g>

<g id="Warrior_body_3_Layer0_0_FILL">
<path fill="#000000" stroke="none" d="
M 14.75 -0.3
Q 14.05 -0.25 13.4 -0.15 12.1 1.95 7.95 10.95 3.55 20.4 3.5 21.55
L 3.95 25.9
Q 4.25 28.45 3.35 30.05 2.95 30.85 2.3 32.8 1.35 35.5 1.5 36.75 1.8 39.5 3.85 41.75 3.95 41.8 4.1 41.9 11.15 43.3 18.1 41.5 20.4 40.95 22.7 40.95 26.6 40.8 35.1 41.3 39.35 41.6 42.9 41.85 46.6 41.1 50.75 35.55 54.7 30.2 53.75 28.9 51.95 26.45 48.2 26.05 48.8 25.3 49 14.25 49.15 2.65 47.55 1.2 45.85 -0.35 43.45 -0.7 29.15 -1.3 14.75 -0.3
M 41.75 9.25
Q 42.35 11.5 42.8 13.75 44.05 20.5 41.2 26.95
L 38.6 27.15 45.3 30.75
Q 45.8 30.9 46.25 31.15 46.35 31.2 46.3 31.35 45.9 31.95 44.2 33.95 42.55 36.05 42.35 36.15 41.8 36.15 35 35 28.5 33.95 24.1 33.1 16.3 31.6 10.35 27.55 8.6 26.35 8.45 24.65 8.15 21.5 10.2 13.35 12.05 5.95 13.2 3.8
L 40 3.95 41.75 9.25
M 7.25 38.9
L 7.1 38.05 10.05 31.05 20.9 34.85 17.75 35.9 7.25 38.9 Z"/>

<path fill="#3333CC" stroke="none" d="
M 10.35 35.75
L 17.75 35.9 20.9 34.85 10.05 31.05 7.1 38.05 10.35 35.75
M 46.25 31.15
Q 45.8 30.9 45.3 30.75
L 40.85 34.15
Q 26.75 32.9 14.55 27.2 12.75 26.4 12.3 24.95 11 20.85 13.05 17.05
L 41.75 9.25 40 3.95 13.2 3.8
Q 12.05 5.95 10.2 13.35 8.15 21.5 8.45 24.65 8.6 26.35 10.35 27.55 16.3 31.6 24.1 33.1 28.5 33.95 35 35 41.8 36.15 42.35 36.15 42.55 36.05 44.2 33.95 45.9 31.95 46.3 31.35 46.35 31.2 46.25 31.15 Z"/>

<path fill="#0099FF" stroke="none" d="
M 17.75 35.9
L 10.35 35.75 7.1 38.05 7.25 38.9 17.75 35.9
M 42.8 13.75
Q 42.35 11.5 41.75 9.25
L 13.05 17.05
Q 11 20.85 12.3 24.95 12.75 26.4 14.55 27.2 26.75 32.9 40.85 34.15
L 45.3 30.75 38.6 27.15 41.2 26.95
Q 44.05 20.5 42.8 13.75 Z"/>
</g>

<g id="warrior_chest_armor_0_Layer0_0_FILL">
<path fill="#000000" stroke="none" d="
M 45.05 13.05
Q 45.753125 10.04765625 45.45 9.3 42.35 1.9 23.4 0.65 16 0.15 10 1 3.9 1.85 3.1 3.5 -4.25 19 19.2 24.7 28.262890625 26.0408203125 36.3 21.05 44.340234375 16.1068359375 45.05 13.05
M 21.8 18.35
Q 26.2 17.95 33.75 12.95 37.5 10.5 40.25 8.35 37.85 20.4 25.55 21 21.5 21.75 17.8 20.9 13.45 19.9 10 17.15
L 21.8 18.35
M 33.3 8.5
Q 28 11.3 20.3 12.25 16.45 12.75 13.65 12.65
L 26 14.6
Q 24.15 15.45 16.35 14.9 6.45 14.2 2.65 9.95
L 2.7 8.2 5.9 3.6 34 3.5 37.05 3.85
Q 35.25 7.45 33.3 8.5 Z"/>

<path fill="#FFCC00" stroke="none" d="
M 13.65 12.65
Q 10.1 12.25 2.7 8.2
L 2.65 9.95
Q 6.45 14.2 16.35 14.9 24.15 15.45 26 14.6
L 13.65 12.65
M 37.05 3.85
L 34 3.5
Q 27.85 6.95 11.35 8.55 25.25 12.25 37.05 3.85
M 31.5 17.75
L 21.8 18.35 10 17.15
Q 13.45 19.9 17.8 20.9 21.5 21.75 25.55 21
L 31.5 17.75 Z"/>

<path fill="#CC6600" stroke="none" d="
M 20.3 12.25
Q 28 11.3 33.3 8.5 35.25 7.45 37.05 3.85 25.25 12.25 11.35 8.55 27.85 6.95 34 3.5
L 5.9 3.6 2.7 8.2
Q 10.1 12.25 13.65 12.65 16.45 12.75 20.3 12.25
M 21.8 18.35
L 31.5 17.75 25.55 21
Q 37.85 20.4 40.25 8.35 37.5 10.5 33.75 12.95 26.2 17.95 21.8 18.35 Z"/>
</g>

<g id="warrior_head_bottom_0_Layer0_0_FILL">
<path fill="#000000" stroke="none" d="
M 16.2 -4.55
Q 12.35 -4.05 8.3 -3.9 1.05 -4.7 0.35 1.75 0.25 2.6 -0.15 3.2 -5 10.1 -2.85 18.2 -2.15 20.95 0.15 22.6 5.8 26.75 12.6 29 13.95 29.45 15.35 29.45 23.3 29.4 31.3 29.65 41.1 30.5 50.9 30.35 55.3 30.25 59.65 30.7 61.25 30.9 62.85 30.4 71.55 31.35 79.75 27.6 83.5 25.85 83.4 21.8 83.25 15.9 82.75 10.1 82.1 2.55 75.15 0.3 63.3 -3.7 50.95 -4.75 33.5 -6.5 16.2 -4.55
M 41.8 13.9
L 72.85 10.65 74.7 20.45
Q 64.9 24.85 54.15 26 33.75 28.05 14.6 22.15
L 3.7 16.25 6.25 9 41.8 13.9
M 63.7 6.1
Q 69.45 7.1 70.55 8.15
L 41.85 11.15 6.45 5.65
Q 6.5 5.05 7 4.85 18.65 2.25 30.5 2.5 47.3 2.9 63.7 6.1 Z"/>

<path fill="#333333" stroke="none" d="
M 70.55 8.15
Q 69.45 7.1 63.7 6.1 47.3 2.9 30.5 2.5 18.65 2.25 7 4.85 6.5 5.05 6.45 5.65
L 41.85 11.15 70.55 8.15 Z"/>

<path fill="#666666" stroke="none" d="
M 16.75 18.25
Q 17.1 17.75 17.6 17.55 29.5 14.8 41.8 13.9
L 6.25 9 3.7 16.25 14.6 22.15
Q 15.4 20.05 16.75 18.25 Z"/>

<path fill="url(#Gradient_4)" stroke="none" d="
M 72.85 10.65
L 41.8 13.9
Q 29.5 14.8 17.6 17.55 17.1 17.75 16.75 18.25 15.4 20.05 14.6 22.15 33.75 28.05 54.15 26 64.9 24.85 74.7 20.45
L 72.85 10.65 Z"/>
</g>

<g id="Warrior_Arm_1_Layer0_0_FILL">
<path fill="#000000" stroke="none" d="
M 25.25 21.05
Q 24.6 15.35 23.75 14.7 21 12.55 13.5 8.05 6.75 4.2 3.5 3 3.012109375 2.8333984375 2.55 2.65 0.65 9.75 0.75 12.3 2.818359375 15.8119140625 4.2 17.6 4.85 18.4 7.45 21.25 8.35 22.2 11.75 25.65 15.3 29.15 15.55 29.35 19.9482421875 29.2126953125 25.6 27.25 25.9 26.45 25.25 21.05
M 4.4 10.25
L 3.8 6.5 15.05 12.7 12.15 15.15 10.5 19.75 4.4 10.25
M 14.5 17.35
L 19.8 16.7 21.5 22.25 19.25 24.7
Q 14.7 23.1 14.45 22.55 14.15 21.95 14.2 20 14.25 18.05 14.5 17.35 Z"/>

<path fill="#0099FF" stroke="none" d="
M 14.5 17.35
Q 14.55 18.4 17.3 20.35 20.1 22.3 21.5 22.25
L 19.8 16.7 14.5 17.35
M 3.8 6.5
L 4.4 10.25 12.15 15.15 15.05 12.7 3.8 6.5 Z"/>

<path fill="#3333CC" stroke="none" d="
M 17.3 20.35
Q 14.55 18.4 14.5 17.35 14.25 18.05 14.2 20 14.15 21.95 14.45 22.55 14.7 23.1 19.25 24.7
L 21.5 22.25
Q 20.1 22.3 17.3 20.35
M 10.5 19.75
L 12.15 15.15 4.4 10.25 10.5 19.75 Z"/>
</g>

<g id="warrior_sword_0_Layer0_0_FILL">
<path fill="#000000" stroke="none" d="
M 24.5 67.2
L 20.85 63
Q 23.15 22.85 13.8 -13.45 -2.7 21.75 -0.6 63.35 -2.05 68.25 -1.85 68.35 3.25 71.3 14.4 69.55 19.95 68.7 24.5 67.2
M 10.1 19.35
L 12.25 4.3 14.8 63.65 10.6 63 4.95 62.55 10.1 19.35 Z"/>

<path fill="#CCCCCC" stroke="none" d="
M 4.95 62.55
L 10.6 63 10.1 19.35 4.95 62.55 Z"/>

<path fill="#FFFFFF" stroke="none" d="
M 12.25 4.3
L 10.1 19.35 10.6 63 14.8 63.65 12.25 4.3 Z"/>
</g>
</defs>

<g id="Layer_2">
<g transform="matrix( 0.7386474609375, 0, 0, 0.7386474609375, 429.1,371.65) ">
<g id="Layer_1">
<g transform="matrix( 1, 0, 0, 1, 1.4,-5.6) ">
<g transform="matrix( -0.3224029541015625, 0.946533203125, -0.946533203125, -0.3224029541015625, 103.55,-9.35) ">
<g transform="matrix( 1, 0, 0, 1, 0,0) ">
<use xlink:href="#warrior_head_top_1_Layer2_0_FILL"/>
</g>

<g id="Layer_3">
<g transform="matrix( 1, 0, 0, 1, 0,0) ">
<use xlink:href="#warrior_head_top_1_Layer1_0_FILL"/>
</g>
</g>

<g id="Layer_4"/>
</g>

<g id="Layer_6">
<g transform="matrix( 0.38714599609375, -0.9219207763671875, 0.9219207763671875, 0.38714599609375, -12.9,101.65) ">
<g transform="matrix( 1, 0, 0, 1, 0,0) ">
<use xlink:href="#Warrior_Arm_0_Layer0_0_FILL"/>
</g>
</g>

<g transform="matrix( 0.3425750732421875, 0.9394073486328125, -0.9394073486328125, 0.3425750732421875, 88.6,42.55) ">
<g transform="matrix( 1, 0, 0, 1, 0,0) ">
<use xlink:href="#warrior_shield_0_Layer0_0_FILL"/>
</g>
</g>
</g>

<g id="Layer_7">
<g transform="matrix( -0.9828643798828125, 0.1838531494140625, 0.1838531494140625, 0.9828643798828125, 48.6,84.1) ">
<g transform="matrix( 1, 0, 0, 1, 0,0) ">
<use xlink:href="#warrior_cape_2_Layer0_0_FILL"/>
</g>
</g>
</g>

<g id="Layer_5">
<g transform="matrix( 0.1894073486328125, -0.9817962646484375, 0.9817962646484375, 0.1894073486328125, -19.35,144.65) ">
<g transform="matrix( 1, 0, 0, 1, 0,0) ">
<use xlink:href="#Warrior_body_3_Layer0_0_FILL"/>
</g>
</g>
</g>

<g transform="matrix( 0.6771240234375, -0.7357330322265625, 0.7357330322265625, 0.6771240234375, -30.2,126.4) ">
<g transform="matrix( 1, 0, 0, 1, 0,0) ">
<use xlink:href="#warrior_chest_armor_0_Layer0_0_FILL"/>
</g>
</g>

<g transform="matrix( 0.7636566162109375, -0.64544677734375, 0.64544677734375, 0.7636566162109375, -53.35,110.95) ">
<g transform="matrix( 1, 0, 0, 1, 0,0) ">
<use xlink:href="#warrior_head_bottom_0_Layer0_0_FILL"/>
</g>
</g>

<g id="Layer_9">
<g transform="matrix( 0.6623687744140625, -0.7489776611328125, -0.7489776611328125, -0.6623687744140625, -11.4,138.65) ">
<g transform="matrix( 1, 0, 0, 1, 0,0) ">
<use xlink:href="#Warrior_Arm_1_Layer0_0_FILL"/>
</g>
</g>

<g transform="matrix( -0.7294769287109375, 0.6838836669921875, -0.6838836669921875, -0.7294769287109375, -10.05,123.6) ">
<g transform="matrix( 1, 0, 0, 1, 0,0) ">
<use xlink:href="#warrior_sword_0_Layer0_0_FILL"/>
</g>
</g>
</g>
</g>
</g>
</g>
</g>
</svg>
