
<svg xmlns="http://www.w3.org/2000/svg" version="1.1" xmlns:xlink="http://www.w3.org/1999/xlink" preserveAspectRatio="none" x="0px" y="0px" width="1000px" height="1000px" viewBox="0 0 1000 1000">
<defs>
<g id="warrior_sword_0_Layer0_0_FILL">
<path fill="#000000" stroke="none" d="
M 24.5 67.2
L 20.85 63
Q 23.15 22.85 13.8 -13.45 -2.7 21.75 -0.6 63.35 -2.05 68.25 -1.85 68.35 3.25 71.3 14.4 69.55 19.95 68.7 24.5 67.2
M 10.1 19.35
L 12.25 4.3 14.8 63.65 10.6 63 4.95 62.55 10.1 19.35 Z"/>

<path fill="#CCCCCC" stroke="none" d="
M 4.95 62.55
L 10.6 63 10.1 19.35 4.95 62.55 Z"/>

<path fill="#FFFFFF" stroke="none" d="
M 12.25 4.3
L 10.1 19.35 10.6 63 14.8 63.65 12.25 4.3 Z"/>
</g>
</defs>

<g id="Layer_2">
<g transform="matrix( 0.7386474609375, 0, 0, 0.7386474609375, 429.1,371.65) ">
<g id="Layer_1">
<g transform="matrix( -0.0312652587890625, -0.99945068359375, 0.99945068359375, -0.0312652587890625, 63.25,186.8) ">
<g transform="matrix( 1, 0, 0, 1, 0,0) ">
<use xlink:href="#warrior_sword_0_Layer0_0_FILL"/>
</g>
</g>
</g>
</g>
</g>
</svg>
