
<svg xmlns="http://www.w3.org/2000/svg" version="1.1" xmlns:xlink="http://www.w3.org/1999/xlink" preserveAspectRatio="none" x="0px" y="0px" width="1000px" height="1000px" viewBox="0 0 1000 1000">
<defs>
<linearGradient id="Gradient_1" gradientUnits="userSpaceOnUse" x1="45.325" y1="14.587500000000002" x2="44.175" y2="26.6125" spreadMethod="pad">
<stop  offset="0%" stop-color="#999999"/>

<stop  offset="100%" stop-color="#FFFFFF"/>
</linearGradient>

<linearGradient id="Gradient_2" gradientUnits="userSpaceOnUse" x1="57.22500000000001" y1="69.6625" x2="23.675" y2="138.3375" spreadMethod="pad">
<stop  offset="0%" stop-color="#999999"/>

<stop  offset="100%" stop-color="#FFFFFF"/>
</linearGradient>

<linearGradient id="Gradient_3" gradientUnits="userSpaceOnUse" x1="44.375" y1="17.737499999999997" x2="43.224999999999994" y2="45.2625" spreadMethod="pad">
<stop  offset="0%" stop-color="#999999"/>

<stop  offset="100%" stop-color="#FFFFFF"/>
</linearGradient>

<linearGradient id="Gradient_4" gradientUnits="userSpaceOnUse" x1="-0.5375000000000001" y1="0.21249999999999858" x2="2.9375" y2="46.987500000000004" spreadMethod="pad">
<stop  offset="0%" stop-color="#999999"/>

<stop  offset="100%" stop-color="#FFFFFF"/>
</linearGradient>

<g id="warrior_cape_5_Layer0_0_FILL">
<path fill="#000000" stroke="none" d="
M 23.7 -1
Q 21.8 -1.85 11.3 -1.75 1 -1.7 -0.4 -1 -2.05 -0.25 -3.15 1.35 -4.2 2.95 -4.3 4.75 -4.4 6.3 0.55 17.75 5.55 29.35 6.85 30.1 9 31.3 25.8 28.1 43.05 24.8 46.55 21.9 47.65 21 53.35 13.45 59.2 5.8 59.1 5.2 58.75 3.4 56.05 3 44.3 1.75 43.1 2.05 40.05 2.8 32.3 1.3 25.7 -0.05 23.7 -1
M 55.9 5.05
Q 56.109375 5.0681640625 56.3 5.1 56.2294921875 5.2376953125 56.15 5.35 54.07578125 9.2990234375 50.5 12.15 49 13.25 44.25 15.75 38.6 18.65 36.2 19 34.95 19.15 33.15 19.2 31.1 19.2 30.05 19.2 21.9 19.45 10.05 23.75 5.35 10.9 4.2 9.25 4 8.95 3.7 7.8 3.4 6.6 3.55 6.45 5.75 4.4 9.25 3.8 10.95 3.5 15.65 3.75 20.6 3.95 22.05 4.5 22.8 4.75 24.25 5.45 25.7 6.1 26.5 6.35 27.85 6.8 34.4 7.1 41.65 7.4 44.65 6.85 45.5533203125 6.687890625 46.85 6.35 48.406640625 6.013671875 50.5 5.45 53.6298828125 4.7595703125 55.9 5.05 Z"/>

<path fill="#FFCC00" stroke="none" d="
M 46.85 6.35
Q 45.5533203125 6.687890625 44.65 6.85 41.65 7.4 34.4 7.1 27.85 6.8 26.5 6.35 25.7 6.1 24.25 5.45 22.8 4.75 22.05 4.5 20.6 3.95 15.65 3.75 10.95 3.5 9.25 3.8 5.75 4.4 3.55 6.45 3.4 6.6 3.7 7.8 4 8.95 4.2 9.25 5.3 9.65 6.8 10.3 8.2 10.95 8.3 11.05 11.7 13.3 13.55 18.45 17.3 15.95 24.5 16.15 26.4 16.2 30.15 16.35 33.45 16.35 35.75 15.8 36.55 15.6 39.1 14.35 41.9 13 42.85 12.15 42.35 12.3 36.9 12.1 31.25 11.9 30.35 11.6 29.25 11.25 27.1 9.85 24.65 8.3 24.85 7.65 28.8 9.65 35.7 8.9 41.476953125 8.20078125 46.85 6.35 Z"/>

<path fill="#CC6600" stroke="none" d="
M 56.3 5.1
Q 56.109375 5.0681640625 55.9 5.05 53.6298828125 4.7595703125 50.5 5.45 48.406640625 6.013671875 46.85 6.35 41.476953125 8.20078125 35.7 8.9 28.8 9.65 24.85 7.65 24.65 8.3 27.1 9.85 29.25 11.25 30.35 11.6 31.25 11.9 36.9 12.1 42.35 12.3 42.85 12.15 41.9 13 39.1 14.35 36.55 15.6 35.75 15.8 33.45 16.35 30.15 16.35 26.4 16.2 24.5 16.15 17.3 15.95 13.55 18.45 11.7 13.3 8.3 11.05 8.2 10.95 6.8 10.3 5.3 9.65 4.2 9.25 5.35 10.9 10.05 23.75 21.9 19.45 30.05 19.2 31.1 19.2 33.15 19.2 34.95 19.15 36.2 19 38.6 18.65 44.25 15.75 49 13.25 50.5 12.15 54.07578125 9.2990234375 56.15 5.35 56.2294921875 5.2376953125 56.3 5.1 Z"/>
</g>

<g id="Warrior_Arm_0_Layer0_0_FILL">
<path fill="#000000" stroke="none" d="
M 23.8 22.25
Q 23 20 21.35 12.25 19.95 5.65 19.6 5.65 14.9 5.35 12.85 5 9.05 4.45 6.35 3.1 4.0546875 1.937109375 1.75 -0.1
L 0.75 0.7 -1.05 8.55
Q -0.53203125 13.3798828125 1.25 16.9 3.03203125 20.4201171875 4.5 22.2 5.45 22.35 9.35 23 12.3 23.5 14.2 23.65 20.05 24.1 23.8 22.25
M 15.8 9.7
L 18.9 9.7 19.8 17.3 18.8 18.8 12.55 19.6 13.8 11.1 15.8 9.7
M 5.65 17.85
L 4.55 13.55 3.3 5.35 10.6 10.75 9.3 15.25 10.2 19.35 5.65 17.85 Z"/>

<path fill="#0099FF" stroke="none" d="
M 4.55 13.55
L 9.3 15.25 10.6 10.75 3.3 5.35 4.55 13.55
M 18.9 9.7
L 15.8 9.7 13.8 11.1 12.55 19.6 19.8 17.3 18.9 9.7 Z"/>

<path fill="#3333CC" stroke="none" d="
M 4.55 13.55
L 5.65 17.85 10.2 19.35 9.3 15.25 4.55 13.55
M 18.8 18.8
L 19.8 17.3 12.55 19.6 18.8 18.8 Z"/>
</g>

<g id="warrior_sword_0_Layer0_0_FILL">
<path fill="#000000" stroke="none" d="
M 24.5 67.2
L 20.85 63
Q 23.15 22.85 13.8 -13.45 -2.7 21.75 -0.6 63.35 -2.05 68.25 -1.85 68.35 3.25 71.3 14.4 69.55 19.95 68.7 24.5 67.2
M 10.1 19.35
L 12.25 4.3 14.8 63.65 10.6 63 4.95 62.55 10.1 19.35 Z"/>

<path fill="#CCCCCC" stroke="none" d="
M 4.95 62.55
L 10.6 63 10.1 19.35 4.95 62.55 Z"/>

<path fill="#FFFFFF" stroke="none" d="
M 12.25 4.3
L 10.1 19.35 10.6 63 14.8 63.65 12.25 4.3 Z"/>
</g>

<g id="Warrior_body_0_Layer0_0_FILL">
<path fill="#000000" stroke="none" d="
M 20.65 -2.5
Q 17 -2.2 13.35 -1.85 11.85 -1.85 10.55 -1.65 9.95 0.2 3.55 23.35 2.5 27.1 1.1 29.75 -0.35 32.65 -1.45 35.65 -3.1 40.15 -2.25 41.1 -0.4 43.3 2.75 42.45 22.05 37.8 41.85 40.9 42.85 41.4 47.7 42.55 53.15 43.75 55.45 43.7 58.2 43.3 59.2 41.35 60.8 38.25 59.7 34.75 57.25 27.15 51.4 13.85 45.4 0.25 44.2 -0.15 33.1 -3.8 20.65 -2.5
M 53.3 40
Q 52.6 40.05 50.75 39.95 48.65 39.8 48 39.65 40.95 37.55 34.35 34.1 32.9 33.75 31.45 33.4 18.4 30.05 9 37.85 8.85 38 8.7 38.2 8.25 38.85 7.3 39.15 7.05 39.3 5.2 39.4 3.4 39.5 2.85 39.45 2.85 39.4 2.85 39.35 6.65 23.55 10.6 7.85 10.85 6.9 12.1 5.1 13.55 3.05 14.45 2.95 27.2 0.7 39.7 4.1
L 42 9.6 51.9 37.5 53.3 40 Z"/>

<path fill="#3333CC" stroke="none" d="
M 14.45 2.95
Q 13.55 3.05 12.1 5.1 10.85 6.9 10.6 7.85 6.65 23.55 2.85 39.35 2.85 39.4 2.85 39.45 3.4 39.5 5.2 39.4 7.05 39.3 7.3 39.15 8.25 38.85 8.7 38.2 8.85 38 9 37.85
L 5.55 37.55 13.65 14.05
Q 33.55 12.2 42 9.6
L 39.7 4.1
Q 27.2 0.7 14.45 2.95
M 47.95 37.6
Q 43.9 37.65 43.7 37.5 39.65 34.75 34.35 34.1 40.95 37.55 48 39.65 48.65 39.8 50.75 39.95 52.6 40.05 53.3 40
L 51.9 37.5
Q 49.95 37.55 47.95 37.6 Z"/>

<path fill="#0099FF" stroke="none" d="
M 43.7 37.5
Q 43.9 37.65 47.95 37.6 49.95 37.55 51.9 37.5
L 42 9.6
Q 33.55 12.2 13.65 14.05
L 5.55 37.55 9 37.85
Q 18.4 30.05 31.45 33.4 32.9 33.75 34.35 34.1 39.65 34.75 43.7 37.5 Z"/>
</g>

<g id="warrior_chest_armor_0_Layer0_0_FILL">
<path fill="#000000" stroke="none" d="
M 45.05 13.05
Q 45.753125 10.04765625 45.45 9.3 42.35 1.9 23.4 0.65 16 0.15 10 1 3.9 1.85 3.1 3.5 -4.25 19 19.2 24.7 28.262890625 26.0408203125 36.3 21.05 44.340234375 16.1068359375 45.05 13.05
M 21.8 18.35
Q 26.2 17.95 33.75 12.95 37.5 10.5 40.25 8.35 37.85 20.4 25.55 21 21.5 21.75 17.8 20.9 13.45 19.9 10 17.15
L 21.8 18.35
M 33.3 8.5
Q 28 11.3 20.3 12.25 16.45 12.75 13.65 12.65
L 26 14.6
Q 24.15 15.45 16.35 14.9 6.45 14.2 2.65 9.95
L 2.7 8.2 5.9 3.6 34 3.5 37.05 3.85
Q 35.25 7.45 33.3 8.5 Z"/>

<path fill="#FFCC00" stroke="none" d="
M 13.65 12.65
Q 10.1 12.25 2.7 8.2
L 2.65 9.95
Q 6.45 14.2 16.35 14.9 24.15 15.45 26 14.6
L 13.65 12.65
M 37.05 3.85
L 34 3.5
Q 27.85 6.95 11.35 8.55 25.25 12.25 37.05 3.85
M 31.5 17.75
L 21.8 18.35 10 17.15
Q 13.45 19.9 17.8 20.9 21.5 21.75 25.55 21
L 31.5 17.75 Z"/>

<path fill="#CC6600" stroke="none" d="
M 20.3 12.25
Q 28 11.3 33.3 8.5 35.25 7.45 37.05 3.85 25.25 12.25 11.35 8.55 27.85 6.95 34 3.5
L 5.9 3.6 2.7 8.2
Q 10.1 12.25 13.65 12.65 16.45 12.75 20.3 12.25
M 21.8 18.35
L 31.5 17.75 25.55 21
Q 37.85 20.4 40.25 8.35 37.5 10.5 33.75 12.95 26.2 17.95 21.8 18.35 Z"/>
</g>

<g id="warrior_head_bottom_0_Layer0_0_FILL">
<path fill="#000000" stroke="none" d="
M 16.2 -4.55
Q 12.35 -4.05 8.3 -3.9 1.05 -4.7 0.35 1.75 0.25 2.6 -0.15 3.2 -5 10.1 -2.85 18.2 -2.15 20.95 0.15 22.6 5.8 26.75 12.6 29 13.95 29.45 15.35 29.45 23.3 29.4 31.3 29.65 41.1 30.5 50.9 30.35 55.3 30.25 59.65 30.7 61.25 30.9 62.85 30.4 71.55 31.35 79.75 27.6 83.5 25.85 83.4 21.8 83.25 15.9 82.75 10.1 82.1 2.55 75.15 0.3 63.3 -3.7 50.95 -4.75 33.5 -6.5 16.2 -4.55
M 41.8 13.9
L 72.85 10.65 74.7 20.45
Q 64.9 24.85 54.15 26 33.75 28.05 14.6 22.15
L 3.7 16.25 6.25 9 41.8 13.9
M 63.7 6.1
Q 69.45 7.1 70.55 8.15
L 41.85 11.15 6.45 5.65
Q 6.5 5.05 7 4.85 18.65 2.25 30.5 2.5 47.3 2.9 63.7 6.1 Z"/>

<path fill="#333333" stroke="none" d="
M 70.55 8.15
Q 69.45 7.1 63.7 6.1 47.3 2.9 30.5 2.5 18.65 2.25 7 4.85 6.5 5.05 6.45 5.65
L 41.85 11.15 70.55 8.15 Z"/>

<path fill="#666666" stroke="none" d="
M 16.75 18.25
Q 17.1 17.75 17.6 17.55 29.5 14.8 41.8 13.9
L 6.25 9 3.7 16.25 14.6 22.15
Q 15.4 20.05 16.75 18.25 Z"/>

<path fill="url(#Gradient_1)" stroke="none" d="
M 72.85 10.65
L 41.8 13.9
Q 29.5 14.8 17.6 17.55 17.1 17.75 16.75 18.25 15.4 20.05 14.6 22.15 33.75 28.05 54.15 26 64.9 24.85 74.7 20.45
L 72.85 10.65 Z"/>
</g>

<g id="warrior_head_top_0_Layer2_0_FILL">
<path fill="#000000" stroke="none" d="
M 87.6 96.55
Q 89.3 80 90.45 63.45 90.55 62.2 89.65 58.8 88.75 55.3 88 54.3 81.65 45.4 71.6 43.95 72.8 41.75 71.15 32.9 69.5 24.1 67.45 20.9 60.75 9.75 56.15 2.4 47.45 -11.6 45.8 -12.05 44.65 -10.05 23.3 24.95
L 21.4 31.15
Q 19.8 38.1 21 41.65 15.55 43.7 11.35 45.25 3.3 48.35 1.05 49.85 -0.4 50.8 -2.65 55.1 -4.9 59.4 -4.85 60.9 -3.8 95.75 3.15 129.85 4.6 130.5 20 133.2 36.75 136.1 45.2 136.9 53.35 137.25 70.35 133 78.9 130.8 85.75 128.65 85.95 112.45 87.6 96.55
M 54.3 48.75
L 47.95 48.4 36.6 48.75 30.65 37.7 29.25 33.55
Q 29.4 33.25 29.6 33 39.1 20.4 43.95 4.7
L 45.9 -0.8
Q 48.2 6.6 51.05 13.5 55.85 25.05 62.8 35.15
L 54.3 48.75
M 19.5 57
Q 20 56.85 20.55 56.75 37.35 52.25 54.55 53.75
L 76.55 57.25
Q 79.85 67.35 78.75 78.2 76.45 101.75 77.6 125.55
L 73.4 126.65
Q 67.2 128.7 60.85 129.8 41.6 133.4 22.4 129.2
L 9.8 125.4 3.4 62.65 19.5 57 Z"/>

<path fill="#FFFFFF" stroke="none" d="
M 76.55 57.25
L 54.55 53.75 69.05 63.7 73.4 126.65 77.6 125.55
Q 76.45 101.75 78.75 78.2 79.85 67.35 76.55 57.25
M 30.65 37.7
L 38.45 35.05 29.25 33.55 30.65 37.7
M 46.55 33.4
L 58.2 35.85 47.95 48.4 54.3 48.75 62.8 35.15
Q 55.85 25.05 51.05 13.5 48.2 6.6 45.9 -0.8
L 43.95 4.7 46.55 33.4 Z"/>

<path fill="#666666" stroke="none" d="
M 19.5 57
L 3.4 62.65 9.8 125.4 22.4 129.2 21.55 117.5 20.85 116.6 20.55 70.65 19.5 57 Z"/>

<path fill="url(#Gradient_2)" stroke="none" d="
M 20.55 56.75
Q 20 56.85 19.5 57
L 20.55 70.65 20.85 116.6 21.55 117.5 22.4 129.2
Q 41.6 133.4 60.85 129.8 67.2 128.7 73.4 126.65
L 69.05 63.7 54.55 53.75
Q 37.35 52.25 20.55 56.75 Z"/>

<path fill="url(#Gradient_3)" stroke="none" d="
M 58.2 35.85
L 46.55 33.4 43.95 4.7
Q 39.1 20.4 29.6 33 29.4 33.25 29.25 33.55
L 38.45 35.05 30.65 37.7 36.6 48.75 47.95 48.4 58.2 35.85 Z"/>
</g>

<g id="warrior_head_top_0_Layer1_0_FILL">
<path fill="#000000" stroke="none" d="
M 40.25 67.55
Q 29.8 67.55 22.35 75.55 14.95 83.6 14.95 94.9 14.95 106.25 22.35 114.25 29.8 122.3 40.25 122.3 50.75 122.3 58.2 114.25 60.55 111.75 62.15 108.9 64.45 110.15 67.25 110.15 72.5 110.15 76.25 105.45 80.05 100.8 80.05 94.15 80.05 87.55 76.25 82.8 72.5 78.15 67.25 78.15 64.1 78.15 61.5 79.85 60.05 77.6 58.2 75.55 50.75 67.55 40.25 67.55
M 20.8 96.1
Q 20.8 86.65 26.95 79.95 33.15 73.3 41.9 73.3 50.6 73.3 56.8 79.95 57.8 81.05 58.65 82.25 59.45 83.3 60.05 84.45
L 60.05 84.4
Q 61.25 82.8 62.65 81.95 64.7 80.55 67.15 80.55 71.3 80.55 74.25 84.4 77.2 88.25 77.2 93.65 77.2 99.05 74.25 102.85 71.3 106.75 67.15 106.75 65.25 106.75 63.6 105.95 62.5 105.35 61.55 104.55 60.95 106.1 60.2 107.55 58.8 110 56.8 112.2 50.6 118.9 41.9 118.9 33.15 118.9 26.95 112.2 20.8 105.5 20.8 96.1 Z"/>

<path fill="#333333" stroke="none" d="
M 26.95 79.95
Q 20.8 86.65 20.8 96.1 20.8 105.5 26.95 112.2 33.15 118.9 41.9 118.9 50.6 118.9 56.8 112.2 58.8 110 60.2 107.55 60.95 106.1 61.55 104.55 62.5 105.35 63.6 105.95 65.25 106.75 67.15 106.75 71.3 106.75 74.25 102.85 77.2 99.05 77.2 93.65 77.2 88.25 74.25 84.4 71.3 80.55 67.15 80.55 64.7 80.55 62.65 81.95 61.25 82.8 60.05 84.4
L 60.05 84.45
Q 59.45 83.3 58.65 82.25 57.8 81.05 56.8 79.95 50.6 73.3 41.9 73.3 33.15 73.3 26.95 79.95 Z"/>
</g>

<g id="warrior_shield_0_Layer0_0_FILL">
<path fill="#000000" stroke="none" d="
M 41.3 -3
Q 34.6 -11.6 17.2 -35.5
L -14.1 11.3
Q -12.75 25.85 7.3 63.45 10.6 65 22.8 51.35 34.95 37.65 41.3 -3
M 22.4 -16.5
L 32.3 -3.1 29 15.95
Q 28.45 18.45 27.95 21.05 24.6 38.25 13.55 51.85 12.35 52.95 11.1 53.95 10.45 54.5 9.65 54.8 8.75 55.1 7.8 55.25 7.1 55.3 6.4 55.4 1.75 46.05 -6.85 27.45 -15.45 8.8 4.55 -9.05
L 18.05 -23.85 22.4 -16.5
M 24.4 -4.25
L 17.75 -9.9 -0.5 13.9 0.5 14.25 0.45 14.3
Q -1.1 15.3 13.25 49.25 13.9 48.05 14.6 46.85 24.05 30.75 27.95 12.25
L 29.9 3.7 24.4 -4.25
M 14.2 -0.5
L 18.5 -7.35 27.5 2.1
Q 27.45 2.85 27.35 3.6 24.95 22.8 14.7 39.15
L 13.45 41.75 12 43.4
Q 11.25 41.7 10.5 40 5.2 27.9 2.2 15
L 2.2 14.95 2.2 14.9 2.25 14.9 13.15 0.8 14.2 -0.5 Z"/>

<path fill="url(#Gradient_4)" stroke="none" d="
M 0.45 14.3
L 0.5 14.25 -0.5 13.9 4.55 -9.05
Q -15.45 8.8 -6.85 27.45 1.75 46.05 6.4 55.4 7.1 55.3 7.8 55.25 8.75 55.1 9.65 54.8 10.45 54.5 11.1 53.95 12.35 52.95 13.55 51.85
L 13.25 49.25
Q -1.1 15.3 0.45 14.3 Z"/>

<path fill="#FFFFFF" stroke="none" d="
M 27.95 21.05
Q 28.45 18.45 29 15.95
L 27.95 12.25
Q 24.05 30.75 14.6 46.85 13.9 48.05 13.25 49.25
L 13.55 51.85
Q 24.6 38.25 27.95 21.05
M 18.5 -7.35
L 14.2 -0.5
Q 17.2 16.3 15.35 33.2 15 36.15 14.7 39.15 24.95 22.8 27.35 3.6 27.45 2.85 27.5 2.1
L 18.5 -7.35
M 24.4 -4.25
L 22.4 -16.5 18.05 -23.85 4.55 -9.05 -0.5 13.9 17.75 -9.9 24.4 -4.25 Z"/>

<path fill="#CCCCCC" stroke="none" d="
M 2.2 14.9
L 2.2 14.95 2.25 14.9 2.2 14.9
M 22.4 -16.5
L 24.4 -4.25 29.9 3.7 27.95 12.25 29 15.95 32.3 -3.1 22.4 -16.5 Z"/>

<path fill="#3333CC" stroke="none" d="
M 5.7 15.3
Q 6.35 14.5 7.05 13.7 12 8.2 13.15 0.8
L 2.25 14.9 2.2 14.95 2.2 15
Q 5.2 27.9 10.5 40 11.25 41.7 12 43.4
L 13.45 41.75 5.7 15.3 Z"/>

<path fill="#0099FF" stroke="none" d="
M 7.05 13.7
Q 6.35 14.5 5.7 15.3
L 13.45 41.75 14.7 39.15
Q 15 36.15 15.35 33.2 17.2 16.3 14.2 -0.5
L 13.15 0.8
Q 12 8.2 7.05 13.7 Z"/>
</g>
</defs>

<g id="Layer_2">
<g transform="matrix( 0.7386474609375, 0, 0, 0.7386474609375, 429.1,371.65) ">
<g id="Layer_1">
<g transform="matrix( 1, 0, 0, 1, 1.4,-5.6) ">
<g id="Layer_7">
<g transform="matrix( 0.386871337890625, -0.919769287109375, 0.97344970703125, 0.266143798828125, 47.25,180.2) ">
<g transform="matrix( 1, 0, 0, 1, 0,0) ">
<use xlink:href="#warrior_cape_5_Layer0_0_FILL"/>
</g>
</g>
</g>

<g id="Warrior_Arm">
<g transform="matrix( -0.9981689453125, -0.056854248046875, -0.056854248046875, 0.9981689453125, 80.35,142.75) ">
<g transform="matrix( 1, 0, 0, 1, 0,0) ">
<use xlink:href="#Warrior_Arm_0_Layer0_0_FILL"/>
</g>
</g>
</g>

<g id="warrior_sword">
<g transform="matrix( 0.8319549560546875, -0.5519561767578125, 0.5519561767578125, 0.8319549560546875, 15.1,99.7) ">
<g transform="matrix( 1, 0, 0, 1, 0,0) ">
<use xlink:href="#warrior_sword_0_Layer0_0_FILL"/>
</g>
</g>
</g>

<g id="Layer_5">
<g transform="matrix( 1.03070068359375, 0, 0.02935791015625, 0.9376373291015625, 72,143.45) ">
<g transform="matrix( 1, 0, 0, 1, 0,0) ">
<use xlink:href="#Warrior_body_0_Layer0_0_FILL"/>
</g>
</g>
</g>

<g id="Layer_6">
<g transform="matrix( 1, 0, 0, 1, 117.25,144.7) ">
<g transform="matrix( 1, 0, 0, 1, 0,0) ">
<use xlink:href="#Warrior_Arm_0_Layer0_0_FILL"/>
</g>
</g>
</g>

<g id="Layer_4">
<g transform="matrix( 1, 0, 0, 1, 78,140.1) ">
<g transform="matrix( 1, 0, 0, 1, 0,0) ">
<use xlink:href="#warrior_chest_armor_0_Layer0_0_FILL"/>
</g>
</g>
</g>

<g id="Layer_3">
<g transform="matrix( 1, 0, 0, 1, 61.2,116) ">
<g transform="matrix( 1, 0, 0, 1, 0,0) ">
<use xlink:href="#warrior_head_bottom_0_Layer0_0_FILL"/>
</g>
</g>
</g>

<g transform="matrix( 1, 0, 0, 1, 58.05,7.4) ">
<g transform="matrix( 1, 0, 0, 1, 0,0) ">
<use xlink:href="#warrior_head_top_0_Layer2_0_FILL"/>
</g>

<g transform="matrix( 1, 0, 0, 1, 0,0) ">
<use xlink:href="#warrior_head_top_0_Layer1_0_FILL"/>
</g>
</g>

<g id="Layer_8">
<g transform="matrix( 0.9994049072265625, -0.0310211181640625, 0.0310211181640625, 0.9994049072265625, 133.5,126.75) ">
<g transform="matrix( 1, 0, 0, 1, 0,0) ">
<use xlink:href="#warrior_shield_0_Layer0_0_FILL"/>
</g>
</g>
</g>
</g>
</g>
</g>
</g>
</svg>
