
<svg xmlns="http://www.w3.org/2000/svg" version="1.1" xmlns:xlink="http://www.w3.org/1999/xlink" preserveAspectRatio="none" x="0px" y="0px" width="1000px" height="1000px" viewBox="0 0 1000 1000">
<defs>
<g id="Boom_Impact_0_Layer3_0_FILL">
<path fill="#FF9900" stroke="none" d="
M 77.4 22
Q 66.2 10.85 50.4 10.85 34.6 10.85 23.4 22 12.25 33.2 12.25 49 12.25 64.8 23.4 76 34.6 87.15 50.4 87.15 66.2 87.15 77.4 76 88.55 64.8 88.55 49 88.55 33.2 77.4 22 Z"/>
</g>

<g id="Boom_Impact_0_Layer2_0_FILL">
<path fill="#FFFF00" stroke="none" d="
M 74.4 24.05
Q 64.3 13.95 49.95 13.95 35.6 13.95 25.45 24.05 15.35 34.2 15.35 48.5 15.35 62.85 25.45 72.95 35.6 83.05 49.95 83.05 64.3 83.05 74.4 72.95 84.45 62.85 84.45 48.5 84.45 34.2 74.4 24.05 Z"/>
</g>

<g id="Boom_Impact_0_Layer1_0_FILL">
<path fill="#FFFFFF" stroke="none" d="
M 72.35 26.05
Q 63.3 17 50.5 17 37.6 17 28.55 26.05 19.5 35.1 19.5 48 19.5 60.8 28.55 69.85 37.6 78.9 50.5 78.9 63.3 78.9 72.35 69.85 81.4 60.8 81.4 48 81.4 35.1 72.35 26.05 Z"/>
</g>

<g id="Boom_Impact_0_Layer0_0_FILL">
<path fill="#FFFFFF" stroke="none" d="
M 30.05 98.35
Q 48.55 76.55 48.25 61.55 38.95 60.65 23.2 88.05 18.8 95.65 9.9 112.1 1.95 126.5 -3.35 133.8 0.6 129.4 13.1 116.6 24.2 105.2 30.05 98.35
M 23.45 47.25
Q 16.85 44.05 14.2 43.05 10.05 41.5 4.7 41.5 -0.6 41.5 -12.95 44.2 -27.65 47.4 -30.85 50.95 -30.2 51.95 -28.5 52.65 -23.65 51.25 -11.2 52.95 4.2 55 6.05 55 7.95 55 13.1 52.9 19.1 50.45 23.45 47.25
M 46.2 44.55
L 46.9 43.85
Q 43.35 28.35 26.05 5.1 16.25 -8.15 -4.7 -33.2
L -4.7 -32.9 -5.35 -34.05
Q -6.05 -34.8 -6.05 -32.7 -6.05 -31.15 0.65 -16.85 4.3 -9.05 11.1 5.4 14.75 13.5 25.9 25.1 30.25 29.65 46.2 44.55
M 103.4 78.95
Q 104.75 78.3 105.1 77.25 90.5 66.3 86 63.8 74.55 57.4 68.65 61.55 70.25 70.4 84.45 74.95 92 77.35 103.4 78.95
M 101.4 39.15
L 89.75 39.15
Q 87.45 39.65 83.5 41.85 79.5 44.05 78.3 45.55 84.8 47.9 91.1 47.9 94.9 47.9 98 46.3 101.85 44.3 102.75 40.5 101.9 39.85 101.55 39.45
L 101.4 39.15
M 90.15 -9.7
Q 89.95 -10.25 89.1 -11.1 83.35 -9.2 70.9 11.35 58.35 31.95 58.35 39.65 58.35 41.75 58.8 42 59 42.15 59.2 41.85 67.5 33.7 77.7 19.4 90.45 1.4 90.45 -6.55 90.45 -8.9 90.15 -9.7 Z"/>
</g>

<g id="Blast_Shot_0_Layer0_0_FILL">
<path fill="#FFCC00" stroke="none" d="
M -32.15 -5.35
Q -32.3 -5.1 -32.3 -3.95 -32.3 -3.45 -27.15 5.55 -21.1 16.15 -19.7 18.95 -17.8 22.65 -14.15 30.75 -9.7 40.65 -9.7 42.1 -9.7 42.85 -9.8 42.85 -9.85 42.85 -10.4 42.75 -11.5 41.85 -12.5 41.85 -13.15 41.85 -13.5 42
L -13.85 42.15 -13.95 43.2
Q -13.95 43.8 -13.15 44.8 -12.35 45.85 -12.35 45.95 -12.35 46.9 -14 47.45 -15.8 48 -20.45 48.35 -20.7 48.4 -21.2 48.5 -21.6 48.65 -21.6 49.3 -21.85 49.3 -21.85 49.9 -21.85 51 -21.6 50.4 -21 51.3 -18.6 52.25 -16.15 53.1 -15.9 53.3 -17.8 54.7 -34.35 65.4 -49.9 75.8 -49.9 77.65 -49.9 78.8 -49.85 78.7 -49.55 78.9 -48.4 78.9 -48.2 78.9 -32.7 72.1 -16.45 65 -12.8 63.9 -11.9 65.2 -11.7 66.25 -11.65 66.65 -11.65 68.45 -11.65 69.85 -12.35 72.3 -13.05 74.75 -13.05 75.15 -13.05 75.8 -12.9 75.95 -12.8 76.1 -12.8 76.15 -11.45 76.55 -10.4 76 -10.3 76.3 -10.3 77.35 -10.3 81.8 -12.1 91.4 -13.95 101.05 -13.95 105.6 -13.95 106.7 -13.85 107.05 -13.65 107.95 -12.7 108.45 -11.65 107.95 -11.6 107.95 -10 100.2 -5 88.35 2.7 69.95 3 69.1 3.05 69.15 7.35 73.5 12.2 77.9 14.7 77.9 15.55 77.9 15.95 77.65 16.5 77.35 16.5 76.35 16.5 75.45 13.55 69.9 10.5 64.25 10.35 63 14.9 62.5 16.15 61.95 17 61.55 17 60.45 17 59.35 16.3 58.6 15.1 57.65 14.1 56.7 18.35 54.8 22.05 53.1 29.25 49.75 29.25 48.4 29.25 46.75 27.1 46.75 26.45 46.75 22.2 47.6 18.35 48.4 10.8 48.1 13.35 45.35 26.55 33.9 37.95 24 37.95 22.95 37.95 22.3 37.85 22.15 37.7 22 37.7 21.9 35.55 22.65 31.85 25.1 26.25 28.7 24.55 29.7 13.8 35.85 0.55 37.45 0.5 37.45 0.45 37.5 -9.6 22.75 -15.45 15.5 -17.1 13.5 -24.1 3.85 -28.9 -2.9 -32.15 -5.35
M -11.85 48.4
Q -10.3 46.9 -10.3 45.4 -8.2 45.85 -7.6 44.15 -7.4 42.35 -7.4 42.3 -7.4 39.45 -13.15 27.1 -16.05 20.9 -19.1 14.9 -17 17.3 -9.75 27.1 -4.65 33.95 -0.4 38.05 -0.45 38.2 -0.45 38.45 -0.45 39.2 -0.2 39.35 0 39.45 0.55 39.55
L 4.6 39.55
Q 10.35 39.1 15.75 36.3 23.15 32.4 24.4 32 21.7013671875 34.0662109375 17.3 37.95 16.5193359375 38.708984375 15.65 39.5 7.5 46.85 7.5 48.75 7.5 49.65 7.6 49.9 7.9 50.55 9.2 50.8 11.9904296875 50.8 14.05 50.75 19.16328125 50.72734375 20.05 50.55 17.7 51.85 14.05 53.4 11.6 54.65 11.6 56.55 11.6 57.95 12.5 59.35 12.15 59.5 12 59.65 11.95 59.75 11.95 59.8 8.45 59.85 7.65 60.7 7.35 61 7.35 62.35 7.35 64.55 9 67.95 9.9 69.85 11.6 73.1 9.45 70.75 7.7 69 4.3 65.55 3 65.55 0.9 65.55 -3.4 76.05 -4.6890625 79.21640625 -6.35 83.55 -7.6333984375 86.9400390625 -9.15 91.05 -9.1 90.65 -8.15 82.9 -7.3 76.1 -7.3 73.35 -7.3 72.5 -8.2 70.8 -9.15 69.1 -9.15 67.45 -9.15 65.5 -9.75 63.75 -10.7 61.05 -12.7 61.05 -14.25 61.05 -23.75 64.6 -28.2990234375 66.323828125 -32.8 68.1 -33.001171875 68.1716796875 -33.2 68.25
L -32.85 67.95
Q -31.665234375 67.3142578125 -25.45 62.5 -20.9173828125 59.019140625 -13.7 53.3 -13.7 52.45 -16.85 51.2 -17.45 50.95 -18.2 50.65
L -15.45 50.65
Q -13.3 49.9 -11.85 48.4 Z"/>

<path fill="#FFFFFF" stroke="none" d="
M -10.3 45.4
Q -10.3 46.9 -11.85 48.4 -13.3 49.9 -15.45 50.65
L -18.2 50.65
Q -17.45 50.95 -16.85 51.2 -13.7 52.45 -13.7 53.3 -20.9173828125 59.019140625 -25.45 62.5 -31.665234375 67.3142578125 -32.85 67.95
L -33.2 68.25
Q -33.001171875 68.1716796875 -32.8 68.1 -28.2990234375 66.323828125 -23.75 64.6 -14.25 61.05 -12.7 61.05 -10.7 61.05 -9.75 63.75 -9.15 65.5 -9.15 67.45 -9.15 69.1 -8.2 70.8 -7.3 72.5 -7.3 73.35 -7.3 76.1 -8.15 82.9 -9.1 90.65 -9.15 91.05 -7.6333984375 86.9400390625 -6.35 83.55 -4.6890625 79.21640625 -3.4 76.05 0.9 65.55 3 65.55 4.3 65.55 7.7 69 9.45 70.75 11.6 73.1 9.9 69.85 9 67.95 7.35 64.55 7.35 62.35 7.35 61 7.65 60.7 8.45 59.85 11.95 59.8 11.95 59.75 12 59.65 12.15 59.5 12.5 59.35 11.6 57.95 11.6 56.55 11.6 54.65 14.05 53.4 17.7 51.85 20.05 50.55 19.16328125 50.72734375 14.05 50.75 11.9904296875 50.8 9.2 50.8 7.9 50.55 7.6 49.9 7.5 49.65 7.5 48.75 7.5 46.85 15.65 39.5 16.5193359375 38.708984375 17.3 37.95 21.7013671875 34.0662109375 24.4 32 23.15 32.4 15.75 36.3 10.35 39.1 4.6 39.55
L 0.55 39.55
Q 0 39.45 -0.2 39.35 -0.45 39.2 -0.45 38.45 -0.45 38.2 -0.4 38.05 -4.65 33.95 -9.75 27.1 -17 17.3 -19.1 14.9 -16.05 20.9 -13.15 27.1 -7.4 39.45 -7.4 42.3 -7.4 42.35 -7.6 44.15 -8.2 45.85 -10.3 45.4 Z"/>
</g>
</defs>

<g transform="matrix( -0.6658172607421875, 0, 0, 0.6658172607421875, 520.45,355.5) ">
<g transform="matrix( 1, 0, 0, 1, -63,97.7) ">
<g transform="matrix( 1, 0, 0, 1, 40.8,72.8) ">
<g transform="matrix( 1, 0, 0, 1, 0,0) ">
<use xlink:href="#Boom_Impact_0_Layer3_0_FILL"/>
</g>

<g transform="matrix( 1, 0, 0, 1, 0,0) ">
<use xlink:href="#Boom_Impact_0_Layer2_0_FILL"/>
</g>

<g transform="matrix( 1, 0, 0, 1, 0,0) ">
<use xlink:href="#Boom_Impact_0_Layer1_0_FILL"/>
</g>

<g transform="matrix( 1, 0, 0, 1, 0,0) ">
<use xlink:href="#Boom_Impact_0_Layer0_0_FILL"/>
</g>
</g>

<g transform="matrix( 1.78753662109375, 0, 0, 1.78753662109375, 94.2,31.8) ">
<g transform="matrix( 1, 0, 0, 1, 0,0) ">
<use xlink:href="#Blast_Shot_0_Layer0_0_FILL"/>
</g>
</g>
</g>
</g>
</svg>
