
<svg xmlns="http://www.w3.org/2000/svg" version="1.1" xmlns:xlink="http://www.w3.org/1999/xlink" preserveAspectRatio="none" x="0px" y="0px" width="1000px" height="1000px" viewBox="0 0 1000 1000">
<defs>
<linearGradient id="Gradient_1" gradientUnits="userSpaceOnUse" x1="111.425" y1="337.9125" x2="134.675" y2="27.087499999999977" spreadMethod="pad">
<stop  offset="18.823529411764707%" stop-color="#FFFFFF"/>

<stop  offset="38.03921568627451%" stop-color="#FFFF99"/>

<stop  offset="90.19607843137256%" stop-color="#FF6600"/>
</linearGradient>

<g id="Symbol_151_1_Layer1_0_FILL">
<path fill="#000000" stroke="none" d="
M 172.1 28.3
Q 174.4 17.75 177.05 5.7 177.25 4.45 164.05 1.1 150.9 -2.25 149.1 -1.45 142.05 3.45 134.2 8.8 118.35 19.55 110.55 23.15 108.55 22.95 106.55 22.85 105.45 22.85 73.2 50.8 40.5 79.15 40.25 81.9 40 84.6 43.6 87.3 45.35 88.65 47.2 89.45 38.05 96.4 22.65 109.6 0.8 128.45 -6 137.4 -6.6 138.15 -3.65 141.8 -0.9 145.2 0.5 146.05 9.3 151.4 19.45 151.4 44.7 153.05 68.75 146.35 68.7 147 67.8 152.45 67 158 67.1 160 67.15 161 70.95 169.9 75.1 179.55 77.55 183.3 78.7 185.1 83.75 188.85 89.15 192.9 91.6 193.35 94.35 193.7 105.15 192.85 116.55 191.9 118.1 190.8 127.35 184.05 149 164.8 168.85 147.15 170 145.55 170.8 144.35 172.05 141.25 173.2 138.4 173.25 137.8 173.45 133 171.45 118.9 169.5 104.9 168.05 100.45 166.55 95.8 161.5 95.65 161.6 95.2 164.1 91.7 166.75 88.05 166.8 87.9 167.2 87.15 166.6 74.8 165.95 61.2 166.6 56.5 167.6 48.95 172.1 28.3
M 162.8 18.95
Q 166.45 12.5 167.3 11.3
L 159.75 46 157.55 28.4
Q 159.05 25.45 162.8 18.95
M 150.8 24.15
L 130.05 24.35 120.4 24.4
Q 123.5 22.55 136.95 13.85 149.6 5.9 153 5.05
L 164.8 7.05 153.8 25.35 150.8 24.15
M 150 30.95
L 152.85 27.9 157.65 80.95
Q 155.9 84.25 153.6 88.05 149.05 95.65 146 98.75
L 142.45 103.4
Q 150 101.65 154.7 95.35 154.55 96.05 155.25 98.75 156.15 102.15 157.75 103.15
L 160.85 108.3
Q 162.65 116.3 164.45 124.35 166.5 133.3 161.35 140.9 158 145.85 146.75 158.3 135.3 170.95 131.1 174.2
L 111.25 188.1
Q 101.05 189 99.1 188.2 97.65 161.7 94.6 149.85 97.8 150.55 106.75 151.45 118.4 152.6 123.4 151.9 125.2 151.6 131.4 147.35 139.3 141.95 141.05 137.1 145.2 125.6 142.95 113.65
L 139.65 106.25
Q 138.55 106.1 132.25 107.8 125.2 109.75 122.2 111.65 112.2 118.15 103.25 125.75
L 92.75 134.35 91.95 132.55 91.45 131.75 92.25 130.35
Q 94.1 127.15 94.7 116.7 95.3 105.9 93.4 102.65 91.5 99.35 81 92.85 69.55 85.75 64.05 86.2
L 63.3 87.2
Q 69.95 89.65 76.6 92.15 88.7 96.7 90.95 109.65 91 111.3 91.1 112.95 91.55 122 86.3 129.25 71.6 140.4 63.95 142.75 59.05 144.2 43 144.4 27.4 144.6 21.8 143.55
L 3.35 138.85 4.95 136.3
Q 7.35 133.3 50.85 86.95
L 49.8 83.8
Q 94.95 83.2 102.3 80.65
L 150 30.95
M 145.8 28.35
L 149.45 28.15
Q 107.85 68.7 104.5 72.15 97.75 79.1 88.1 78.75 84.1 79.2 76 79.85 64.8 80.7 60.3 80.6
L 52.3 80.75
Q 55.35 77.7 82.5 54.55 110.6 30.55 112.2 30.1
L 145.8 28.35
M 76.5 164.95
Q 73.75 157.35 74.45 149.1 74.8 149.3 75.2 149.5 76.85 150.55 78.5 149.35
L 93 149.65
Q 93 150 93.6 167 94 184.45 92.95 187.2
L 90.65 186.8 85.6 184.75
Q 80.2 175.15 76.5 164.95 Z"/>

<path fill="#333333" stroke="none" d="
M 93.6 167
Q 93 150 93 149.65
L 78.5 149.35 90.65 186.8 92.95 187.2
Q 94 184.45 93.6 167
M 88.1 78.75
L 145.8 28.35 112.2 30.1 60.3 80.6
Q 64.8 80.7 76 79.85 84.1 79.2 88.1 78.75
M 99.1 188.2
Q 101.05 189 111.25 188.1 113.75 183.65 118.3 169.25 121.7 158.5 123.4 151.9 118.4 152.6 106.75 151.45 97.8 150.55 94.6 149.85 97.65 161.7 99.1 188.2
M 63.3 87.2
L 64.05 86.2
Q 69.55 85.75 81 92.85 91.5 99.35 93.4 102.65 95.3 105.9 94.7 116.7 94.1 127.15 92.25 130.35
L 91.95 132.55 92.75 134.35 103.25 125.75 103.15 124.35 102.3 80.65
Q 94.95 83.2 49.8 83.8
L 50.85 86.95
Q 7.35 133.3 4.95 136.3 15.5 134.55 26.1 132.85 30.25 132.3 60.05 121.1 90.35 109.8 90.95 109.65 88.7 96.7 76.6 92.15 69.95 89.65 63.3 87.2
M 155.25 98.75
Q 154.55 96.05 154.7 95.35 150 101.65 142.45 103.4
L 146 98.75 139.65 106.25 142.95 113.65 157.75 103.15
Q 156.15 102.15 155.25 98.75
M 130.05 24.35
L 150.8 24.15 164.8 7.05 153 5.05 130.05 24.35 Z"/>

<path fill="#666666" stroke="none" d="
M 75.2 149.5
Q 74.8 149.3 74.45 149.1
L 85.6 184.75 90.65 186.8 78.5 149.35
Q 76.85 150.55 75.2 149.5
M 112.2 30.1
Q 110.6 30.55 82.5 54.55 55.35 77.7 52.3 80.75
L 60.3 80.6 112.2 30.1
M 149.45 28.15
L 145.8 28.35 88.1 78.75
Q 97.75 79.1 104.5 72.15 107.85 68.7 149.45 28.15
M 91.95 132.55
L 92.25 130.35 91.45 131.75 91.95 132.55
M 160.85 108.3
L 157.75 103.15 142.95 113.65
Q 145.2 125.6 141.05 137.1 139.3 141.95 131.4 147.35 125.2 151.6 123.4 151.9 121.7 158.5 118.3 169.25 113.75 183.65 111.25 188.1
L 131.1 174.2
Q 133.05 169.65 146.7 139.4 160.1 109.75 160.85 108.3
M 26.1 132.85
Q 15.5 134.55 4.95 136.3
L 3.35 138.85 21.8 143.55
Q 33.35 140 44.7 136.25 66.3 128.95 86.8 118.7 86.95 120.35 86.95 123.1 86.95 127.4 86.3 129.25 91.55 122 91.1 112.95 91 111.3 90.95 109.65 90.35 109.8 60.05 121.1 30.25 132.3 26.1 132.85
M 128.95 97.65
Q 150.75 74.9 150.8 74.7 151.3 67.05 150 30.95
L 102.3 80.65 103.15 124.35
Q 107.25 120.25 128.95 97.65
M 150.8 24.15
L 153.8 25.35 164.8 7.05 150.8 24.15
M 130.05 24.35
L 153 5.05
Q 149.6 5.9 136.95 13.85 123.5 22.55 120.4 24.4
L 130.05 24.35
M 167.3 11.3
Q 166.45 12.5 162.8 18.95 159.05 25.45 157.55 28.4
L 159.75 46 167.3 11.3 Z"/>

<path fill="#999999" stroke="none" d="
M 74.45 149.1
Q 73.75 157.35 76.5 164.95 80.2 175.15 85.6 184.75
L 74.45 149.1
M 160.85 108.3
Q 160.1 109.75 146.7 139.4 133.05 169.65 131.1 174.2 135.3 170.95 146.75 158.3 158 145.85 161.35 140.9 166.5 133.3 164.45 124.35 162.65 116.3 160.85 108.3
M 43 144.4
Q 59.05 144.2 63.95 142.75 71.6 140.4 86.3 129.25 86.95 127.4 86.95 123.1 86.95 120.35 86.8 118.7 66.3 128.95 44.7 136.25 33.35 140 21.8 143.55 27.4 144.6 43 144.4
M 152.85 27.9
L 150 30.95
Q 151.3 67.05 150.8 74.7 150.75 74.9 128.95 97.65 107.25 120.25 103.15 124.35
L 103.25 125.75
Q 112.2 118.15 122.2 111.65 125.2 109.75 132.25 107.8 138.55 106.1 139.65 106.25
L 146 98.75
Q 149.05 95.65 153.6 88.05 155.9 84.25 157.65 80.95
L 152.85 27.9 Z"/>
</g>

<g id="Duplicate_Items_Folder_Symbol_17_0_Layer0_0_FILL">
<path fill="url(#Gradient_1)" stroke="none" d="
M 164.45 0.25
Q 164.1 0.6 163.6 0.95 152.45 10 142.45 21.05 134.3 29.9 131.7 36.9 129.25 43.5 129.75 51.85 130.1 58.3 132.5 67 135.45 76.8 136.7 81.75 138.9 90.35 139.05 96.8 139.35 106.1 135.75 115.1 132.9 121.95 128.3 127.45 130 124.7 130.25 119.95 130.4 118.2 130.4 116.55 130.4 107.35 127.3 98.4 126.35 95.9 124.9 95.9 123.3 96.05 122.8 99.25 122 105.4 118.65 110.75 116.95 113.4 114.7 116.1
L 107.8 124.7
Q 106.25 126.75 106.8 127.95 106.9 128.1 107.05 128.25 105.45 131.45 102.7 134.55 100 137.55 94.8 142
L 83 151.75
Q 81.8 152.7 80.9 152.85 80.25 152.9 79.75 152.55 79.75 152.45 79.85 152.45 80.5 152.2 80.75 150.95 81.05 149.15 80.65 146.55 80.35 144.95 79.85 143.15 79.4 141.4 78.7 140.55 77.45 139.15 76.05 139.8 75.35 140.2 74.75 141.7 71.6 149 66.65 155.35 64.3 158.45 61.75 161.15 57.85 165.55 56.6 166.8 54.9 168.45 51.85 170.9 47.8 174.3 47 174.95 31.3 188.05 21.2 206 17.35 212.65 16.7 217.35
L 15.75 217.2
Q 15.85 218.65 13.95 220.55 12.2 222.55 10.75 223.65 9.4 224.7 8.75 225.25 7.5 226.15 6.85 226.95 5.7 228.4 4.6 231.15 3.3 234.7 2.8 235.55 1.5 237.8 1.15 239.05 0.7 240.5 0.7 243.25 0.65 243.9 0.3 245.75 0 247.3 0 248.2 0.05 249.1 0.35 250.75 0.7 252.5 0.7 253.3 0.8 254.1 0.65 256.3 0.5 258.2 0.7 259.3 1 260.5 1.6 261.8
L 2 263
Q 0.95 263.5 0.55 265.85 0.55 266.15 0.55 266.45 -0.2 275.35 3.95 285.75 6.8 292.85 13.8 304.15 19.25 313.25 23.05 318.8 28.4 326.6 33.7 332.5 46.95 347.1 61.9 351.8 69.2 354.1 78.6 354.45 85.1 354.7 95.6 353.95 124.4 351.85 143.1 345.8 168.8 337.4 183.85 320.7 191 312.8 197.8 300.15 201.7 292.85 208.95 277.8 216.75 262.45 225.7 248.5 231.25 240.05 233.3 235.4 236.6 227.7 235.55 221.1 235.45 220.6 235.3 220.1 235.05 219 234.3 218.15 233.8 217.5 233.25 217.2 233.5 216.7 233.8 216.2 234 215.8 235.9 213.35 237.15 211.7 237.7 210.45 238.65 208.6 239.6 203.6 240.1 199.2 239.95 197.95 239.75 195.5 238.35 192.75 237.55 191 235.6 187.9
L 231.4 181.75
Q 227.65 176.55 226.8 174.75 224.5 169.9 224.75 162.4 225 156.95 227.1 147.9
L 226.35 147.7
Q 225.9 149.85 225.2 151.9 224.6 153.65 222.9 157.25 221.2 160.65 220.65 162.5 219.65 165.8 219.1 166.8 218.05 169.05 216.15 169.6 216 165.65 217.05 162.45 217.55 160.5 219.05 157.05 220.65 153.35 221.15 151.55 223.75 142.15 219.05 131.05 217.25 126.8 214.05 121.9 212.25 119.2 208 113.35 203.8 107.65 202 104.4 196.55 94.25 196.05 80.1 195.85 71.85 197.35 64.3 194.8 67.35 191 73.5
L 188.1 78.05
Q 187.75 78.05 187.3 78.15 187.15 78.15 187 78.2 186.2 78.4 185.7 79 184.7 79.95 184 82.2 182.3 87.75 181.8 93.3 181.5 96.05 181.5 98.9 181.5 100.35 182.15 100.85 182.8 101.35 183.55 101.05 184.1 103.15 184.5 104.25
L 185.85 106.9
Q 186.45 108.5 186.2 110.6 186.05 111.9 185.4 114.45
L 184.5 114.65
Q 184.55 111.85 182.55 108.2 181.45 106.2 179.05 102.05 178.25 100.35 177.45 97 177.05 95.4 175.6 87.95
L 173.85 78.9
Q 172.85 73.55 172.75 70.8 172.7 68.65 173.35 62.65 174.3 56.55 175 54.4 176.3 50.85 176.45 50.15 176.6 49.55 176.75 48.55 176.9 48.45 177.05 48.45 178.2 48.1 178.7 47.8 179 47.6 179.25 47.4 179.65 46.95 179.8 46.4 180.15 45.45 179.5 44.8 178.85 44 177.1 44.4 174.8 45 172.75 46.45 171.6 47.4 171.05 47.8 170 48.6 169.15 48.9 167.7 49.4 166.1 48.75 164.5 48.1 163.8 46.75 163.45 45.85 162.95 43.9 162.7 43.35 162.05 42.1 161.4 40.95 161.2 40.3 160.7 38.95 160.7 36.1
L 160.7 29.25
Q 160.7 25.1 160.85 23.95 161.05 21.8 162.05 17.45
L 162.7 14.65
Q 163.15 13.1 163.95 10.05 164.6 7.85 166.2 3.5 166.6 2.05 166.45 1.3 166.2 0 165.05 0
L 164.45 0.25
M 125.4 130.5
Q 124.9 129.4 126.05 127.1 126.5 126.3 126.85 125.55
L 127 127.1
Q 127.05 127.4 127.2 127.65 127.3 128.05 127.5 128.3 126.5 129.4 125.4 130.5 Z"/>
</g>
</defs>

<g transform="matrix( -0.6658172607421875, 0, 0, 0.6658172607421875, 520.45,355.5) ">
<g transform="matrix( 1, 0, 0, 1, -160.55,-288.2) ">
<g transform="matrix( 1, 0, 0, 1, 5.45,-72.4) "/>

<g transform="matrix( 0.962310791015625, 0.271881103515625, -0.271881103515625, 0.962310791015625, 142.55,139.9) ">
<g transform="matrix( 1, 0, 0, 1, 0,0) ">
<use xlink:href="#Symbol_151_1_Layer1_0_FILL"/>
</g>
</g>

<g transform="matrix( 1.007965087890625, 0, 0, 1.089935302734375, 10.1,-17.65) ">
<g transform="matrix( -0.7543792724609375, 0, 0, 0.7543792724609375, 288.95,161.8) ">
<g transform="matrix( 0.328155517578125, 0, 0, 0.3170623779296875, 74.35,219.7) ">
<g transform="matrix( 1, 0, 0, 1, 0,0) ">
<use xlink:href="#Duplicate_Items_Folder_Symbol_17_0_Layer0_0_FILL"/>
</g>
</g>
</g>
</g>

<g transform="matrix( -0.638885498046875, 0, 0, 0.9207611083984375, 419.7,5.85) "/>

<g transform="matrix( 0.638885498046875, 0, 0, 0.9207611083984375, 27.95,7.15) "/>
</g>
</g>
</svg>
