
<svg xmlns="http://www.w3.org/2000/svg" version="1.1" xmlns:xlink="http://www.w3.org/1999/xlink" preserveAspectRatio="none" x="0px" y="0px" width="150px" height="150px" viewBox="0 0 150 150">
<defs>
<g id="Urn_0_Layer0_0_FILL">
<path fill="#000000" stroke="none" d="
M 87.2 45.3
Q 86.85 43.4 86.25 41.75 83.8 34.55 76.6 30.8 68.3 26.6 58.9 25.8 50.35 25.75 42.45 29 32.35 33.2 29.4 43.85 27.8 49.75 30.9 54.85 27.35 58.8 24.9 63.55 21.1 70.8 21 79.15 20.95 84 22.55 88.35 23.15 89.9 23.95 91.4 28.2 99.3 36.3 102.9 50.3 109.2 65.6 107.15 70.1 106.65 74.45 105.4 84.65 102.65 90.5 93.9 97.55 83.55 94.3 71.55 91.75 62.05 85 54.85 88.15 50.55 87.2 45.3
M 88.6 76.45
Q 89.4 84.3 85.05 91 82.85 94.4 79.65 96.85 68.65 105 54.95 103.55 46.8 102.75 39.6 98.85 37.7 97.85 36.1 96.55 34 94.85 32.3 92.7 27.1 86 27.65 77.55 28.45 66.4 36.55 58.75 37.05 58.95 37.6 59.15 38.25 59.4 38.9 59.6 43.3 61.2 47.9 60.5 46.2 59.05 44.4 57.75 42.55 56.35 40.55 55.15 35.2 51.9 35.6 45.7 35.65 44.85 36 44.2 39.75 36.25 48.3 33.65 53.55 32 59 32.05 68.65 32.1 76.05 37.95 80.95 41.85 80.2 47.9 80.05 48.95 79.55 49.85 79.1 50.5 78.65 51.15 74.45 56.9 68 60.5 69.7 60.85 71.35 60.75 75.6 60.5 79.4 58.75 87.5 65.8 88.6 76.45
M 45.6 45.05
Q 43.4 44.85 41.1 44.5 49.45 51.95 67.05 48.35 78.9 43.55 72.9 38.75 72.5 39.25 72 39.7 64.6 46.95 45.6 45.05 Z"/>

<path fill="#CC6633" stroke="none" d="
M 37.6 59.15
Q 37.05 58.95 36.55 58.75 28.45 66.4 27.65 77.55 27.1 86 32.3 92.7 34 94.85 36.1 96.55 43.65 100.1 49.65 100.1 60.4 100.1 67.65 95.75 75.7 90.95 75.7 82.5 75.7 76.05 69.9 73.2 67.3 71.95 58.2 70.15 50.45 68.6 42.9 63.4 39.8 60.85 37.6 59.15
M 59 32.05
Q 53.55 32 48.3 33.65 39.75 36.25 36 44.2 35.65 44.85 35.6 45.7 35.2 51.9 40.55 55.15 42.55 56.35 44.4 57.75 44.7 57.8 44.95 57.8 51.55 58.75 55.3 58.75 65.25 58.75 73.2 54.7 76.15 53.15 78.65 51.15 79.1 50.5 79.55 49.85 80.05 48.95 80.2 47.9 80.95 41.85 76.05 37.95 68.65 32.1 59 32.05
M 44.4 43.05
Q 44.4 39.05 51.05 37.4 55.1 36.35 60.75 36.35 65.45 36.35 69.05 37.9 70.95 38.65 72 39.7 72.5 39.25 72.9 38.75 78.9 43.55 67.05 48.35 49.45 51.95 41.1 44.5 43.4 44.85 45.6 45.05 45.55 45 45.45 44.95 44.4 44.3 44.4 43.05 Z"/>

<path fill="#933100" stroke="none" d="
M 51.05 37.4
Q 44.4 39.05 44.4 43.05 44.4 44.3 45.45 44.95 45.55 45 45.6 45.05 64.6 46.95 72 39.7 70.95 38.65 69.05 37.9 65.45 36.35 60.75 36.35 55.1 36.35 51.05 37.4
M 85.05 91
Q 89.4 84.3 88.6 76.45 87.5 65.8 79.4 58.75 75.6 60.5 71.35 60.75 69.7 60.85 68 60.5 74.45 56.9 78.65 51.15 76.15 53.15 73.2 54.7 65.25 58.75 55.3 58.75 51.55 58.75 44.95 57.8 44.7 57.8 44.4 57.75 46.2 59.05 47.9 60.5 43.3 61.2 38.9 59.6 38.25 59.4 37.6 59.15 39.8 60.85 42.9 63.4 50.45 68.6 58.2 70.15 67.3 71.95 69.9 73.2 75.7 76.05 75.7 82.5 75.7 90.95 67.65 95.75 60.4 100.1 49.65 100.1 43.65 100.1 36.1 96.55 37.7 97.85 39.6 98.85 46.8 102.75 54.95 103.55 68.65 105 79.65 96.85 82.85 94.4 85.05 91 Z"/>
</g>
</defs>

<g transform="matrix( 1.2698974609375, 0, 0, 1.2698974609375, 1.65,-9.7) ">
<g transform="matrix( 1, 0, 0, 1, 0,0) ">
<use xlink:href="#Urn_0_Layer0_0_FILL"/>
</g>
</g>
</svg>
