
<svg xmlns="http://www.w3.org/2000/svg" version="1.1" xmlns:xlink="http://www.w3.org/1999/xlink" preserveAspectRatio="none" x="0px" y="0px" width="1000px" height="1000px" viewBox="0 0 1000 1000">
<defs>
<g id="attack_impact_2_Layer0_0_FILL">
<path fill="#FFFFFF" stroke="none" d="
M 36.95 96.2
Q 63.270703125 100.55546875 80.4 83.25 97.527734375 65.94609375 95.85 45.25 94.220703125 24.557421875 80 10.1 65.83046875 -4.3607421875 42.05 -3.45 62.65 2.25 70.75 10.35 85.3 24.95 85.3 45.45 85.3 66 70.75 80.55 60.2 91.1 36.95 96.2 Z"/>

<path fill="#FFAFFF" stroke="none" d="
M 30 -3.85
Q 32.75 -4.2 35.65 -4.2 44.7 -4.2 42.05 -3.45 65.83046875 -4.3607421875 80 10.1 94.220703125 24.557421875 95.85 45.25 97.527734375 65.94609375 80.4 83.25 63.270703125 100.55546875 36.95 96.2 41.3 95.15 35.65 95.15 29.9 95.15 24.65 94 34.5 98.45 46.2 98.45 67.85 98.45 83.2 83.1 98.5 67.8 98.5 46.05 98.5 24.4 83.2 9.05 67.85 -6.3 46.2 -6.3 37.55 -6.3 30 -3.85 Z"/>
</g>
</defs>

<g transform="matrix( -0.679534912109375, 0, 0, 0.679534912109375, 606.45,232.05) ">
<g transform="matrix( 1, 0, 0, 1, 106.3,351) ">
<g transform="matrix( 1, 0, 0, 1, 0,0) ">
<use xlink:href="#attack_impact_2_Layer0_0_FILL"/>
</g>
</g>
</g>
</svg>
