
<svg xmlns="http://www.w3.org/2000/svg" version="1.1" xmlns:xlink="http://www.w3.org/1999/xlink" preserveAspectRatio="none" x="0px" y="0px" width="1000px" height="1000px" viewBox="0 0 1000 1000">
<defs>
<g id="attack_impact_1_Layer0_0_FILL">
<path fill="#CC33FF" stroke="none" d="
M 96.65 46.2
Q 96.65 25.35 81.9 10.55 67.1 -4.25 46.25 -4.25 25.35 -4.25 10.55 10.55 -4.25 25.35 -4.25 46.2 -4.25 67.1 10.55 81.85 25.35 96.65 46.25 96.65 67.1 96.65 81.9 81.85 96.65 67.1 96.65 46.2
M 45.05 0
Q 64.15 0 77.7 13.55 91.25 27.1 91.25 46.2 91.25 65.35 77.7 78.85 64.15 92.4 45.05 92.4 25.9 92.4 12.4 78.85 -1.15 65.35 -1.15 46.2 -1.15 27.1 12.4 13.55 25.9 0 45.05 0 Z"/>

<path fill="#FFAFFF" stroke="none" d="
M 77.7 13.55
Q 64.15 0 45.05 0 25.9 0 12.4 13.55 -1.15 27.1 -1.15 46.2 -1.15 65.35 12.4 78.85 25.9 92.4 45.05 92.4 64.15 92.4 77.7 78.85 91.25 65.35 91.25 46.2 91.25 27.1 77.7 13.55
M 42.5 2.05
Q 60.1 2.05 72.55 14.5 85.05 27 85.05 44.6 85.05 62.2 72.55 74.65 60.1 87.1 42.5 87.1 24.9 87.1 12.45 74.65 0 62.2 0 44.6 0 27 12.45 14.5 24.9 2.05 42.5 2.05 Z"/>

<path fill="#FFFFFF" stroke="none" d="
M 72.55 14.5
Q 60.1 2.05 42.5 2.05 24.9 2.05 12.45 14.5 0 27 0 44.6 0 62.2 12.45 74.65 24.9 87.1 42.5 87.1 60.1 87.1 72.55 74.65 85.05 62.2 85.05 44.6 85.05 27 72.55 14.5 Z"/>
</g>
</defs>

<g transform="matrix( -0.679534912109375, 0, 0, 0.679534912109375, 606.45,232.05) ">
<g transform="matrix( 1, 0, 0, 1, 106.3,351) ">
<g transform="matrix( 1, 0, 0, 1, 0,0) ">
<use xlink:href="#attack_impact_1_Layer0_0_FILL"/>
</g>
</g>
</g>
</svg>
