# Blender v2.78 (sub 0) OBJ File: ''
# www.blender.org
mtllib OreNugget.mtl
o Sphere
v -0.000000 1.126695 -0.000000
v 0.219846 1.066387 -0.262003
v 0.277133 0.766044 -0.308405
v 0.420627 0.500000 -0.479415
v 0.633022 0.173648 -1.083110
v 0.633022 -0.173648 -1.083110
v 0.556670 -0.500000 -0.663414
v 0.413176 -0.766044 -0.492404
v 0.219846 -0.939693 -0.262003
v 0.336824 0.939693 -0.059391
v 0.880317 0.766044 -0.111619
v 1.100163 0.500000 -0.150384
v 0.969846 0.173648 -0.171010
v 1.259566 -0.173648 -0.171010
v 1.142588 -0.500000 -0.150384
v 1.108974 -1.049329 -0.111619
v 0.812776 -1.222977 -0.059391
v 0.296198 0.939693 0.171010
v 0.803965 0.766044 0.321394
v 0.997295 0.500000 0.433012
v 0.852868 0.173648 0.492404
v 1.142588 -0.173648 0.492404
v 1.039720 -0.500000 0.433012
v 1.032622 -1.049329 0.321394
v 0.772150 -1.222977 0.171010
v 0.116978 0.812978 0.245475
v 0.219846 0.639330 0.528104
v 0.296198 0.500000 0.813797
v 0.336824 0.173648 1.189589
v 0.336824 -0.173648 1.189589
v 0.296198 -0.500000 0.813797
v 0.219846 -0.766044 0.604022
v 0.116978 -0.939693 0.321394
v -0.116978 0.812978 0.245475
v -0.219846 0.639330 0.528104
v -0.296198 0.500000 1.014612
v -0.336824 0.173648 1.390404
v -0.336824 -0.173648 1.189589
v -0.296198 -0.500000 0.813797
v -0.219846 -0.766044 0.604022
v -0.116978 -1.164841 0.321394
v 0.000000 -1.225148 -0.000000
v -0.296198 0.939693 0.171010
v -0.556670 0.766044 0.321394
v -0.996408 0.500000 0.433013
v -1.099277 0.173648 0.492404
v -0.852868 -0.173648 0.492404
v -0.982031 -0.500000 0.433013
v -0.788701 -0.766044 0.321394
v -0.296198 -1.164841 0.171010
v -0.484467 0.939693 -0.237050
v -0.780665 0.766044 -0.289277
v -1.099277 0.500000 -0.150384
v -1.216254 0.173648 -0.171010
v -0.969846 -0.173648 -0.171010
v -1.084899 -0.500000 -0.150384
v -0.865053 -0.766044 -0.111619
v -0.336824 -0.939693 -0.059391
v -0.367489 0.939693 -0.439661
v -0.560819 0.812272 -0.812788
v -0.556670 0.546228 -0.806140
v -0.633022 0.173648 -0.754406
v -0.633022 -0.173648 -0.754406
v -0.556670 -0.500000 -0.663414
v -0.413176 -0.766044 -0.492404
v -0.219846 -0.939693 -0.262003
v -0.000000 1.066387 -0.342020
v -0.000000 0.951788 -0.902335
v -0.000000 0.685743 -1.125573
v -0.000000 0.173648 -1.313511
v -0.000000 -0.173648 -1.313511
v -0.000000 -0.500000 -0.866025
v -0.000000 -0.766044 -0.642787
v -0.000000 -0.939693 -0.342020
vt 0.1310 0.8997
vt 0.0950 0.8866
vt 0.0004 0.7608
vt 0.1310 0.7622
vt 0.5409 0.2576
vt 0.4890 0.2109
vt 0.5587 0.2133
vt 0.6056 0.6105
vt 0.5465 0.5939
vt 0.5533 0.6834
vt 0.6093 0.6581
vt 0.1406 0.2796
vt 0.1834 0.3361
vt 0.2865 0.2581
vt 0.2437 0.2016
vt 0.3486 0.9996
vt 0.2921 0.8974
vt 0.2873 0.8818
vt 0.3486 0.8726
vt 0.6729 0.6293
vt 0.8661 0.8265
vt 0.7803 0.7952
vt 0.7803 0.9328
vt 0.8661 0.9474
vt 0.2253 0.9723
vt 0.1605 0.9435
vt 0.1634 0.8165
vt 0.2253 0.8350
vt 0.0677 0.1831
vt 0.1004 0.2264
vt 0.1911 0.1579
vt 0.1349 0.1322
vt 0.5736 0.2109
vt 0.5439 0.1679
vt 0.6260 0.0925
vt 0.9768 0.5814
vt 0.9186 0.6264
vt 0.9768 0.7473
vt 0.5457 0.7861
vt 0.4791 0.8718
vt 0.4791 0.6856
vt 0.5457 0.6813
vt 0.2804 0.8458
vt 0.2261 0.8165
vt 0.2261 0.9396
vt 0.2804 0.9845
vt 0.2865 0.0857
vt 0.2133 0.0004
vt 0.8469 0.7945
vt 0.7803 0.6712
vt 0.7803 0.6040
vt 0.8469 0.6082
vt 0.0821 0.1278
vt 0.1437 0.0086
vt 0.9178 0.7945
vt 0.9178 0.6082
vt 0.2726 0.8078
vt 0.1605 0.8157
vt 0.1605 0.6966
vt 0.2726 0.7194
vt 0.4082 0.6856
vt 0.3416 0.6813
vt 0.3416 0.5622
vt 0.4082 0.5501
vt 0.5034 0.1426
vt 0.6164 0.7858
vt 0.5898 0.8412
vt 0.6792 0.8500
vt 0.6640 0.7906
vt 0.4791 0.5501
vt 0.5498 0.0450
vt 0.5457 0.5622
vt 0.2873 0.6734
vt 0.2873 0.5850
vt 0.7795 0.7058
vt 0.7296 0.6700
vt 0.4082 0.4078
vt 0.4791 0.4078
vt 0.4676 0.1597
vt 0.4387 0.1055
vt 0.9852 0.5596
vt 0.9186 0.5806
vt 0.9186 0.4161
vt 0.9852 0.4078
vt 0.5592 0.0004
vt 0.4058 0.0549
vt 0.7935 0.2676
vt 0.7935 0.3798
vt 0.6417 0.3778
vt 0.6268 0.3233
vt 0.7515 0.9645
vt 0.6848 0.9940
vt 0.6848 0.8508
vt 0.7515 0.8591
vt 0.4163 0.8726
vt 0.4163 0.9441
vt 0.3749 0.8897
vt 0.8765 0.3969
vt 0.9532 0.4052
vt 0.9532 0.2676
vt 0.8765 0.2759
vt 0.3788 0.1723
vt 0.2945 0.1175
vt 0.1043 0.5099
vt 0.1597 0.5210
vt 0.1043 0.6285
vt 0.0631 0.5897
vt 0.9428 0.9388
vt 0.8669 0.9527
vt 0.8717 0.8251
vt 0.9428 0.7952
vt 0.3494 0.9301
vt 0.0631 0.5124
vt 0.0004 0.5338
vt 0.5465 0.9217
vt 0.5465 0.8508
vt 0.6840 0.8508
vt 0.6840 0.9217
vt 0.4357 0.1952
vt 0.7425 0.6241
vt 0.8469 0.4078
vt 0.7803 0.4845
vt 0.7803 0.6032
vt 0.8469 0.5911
vt 0.3517 0.9748
vt 0.8757 0.4048
vt 0.7943 0.3838
vt 0.7943 0.2676
vt 0.8757 0.3682
vt 0.9178 0.4488
vt 0.9178 0.5911
vt 0.4226 0.2326
vt 0.3642 0.2516
vt 0.7228 0.5805
vt 0.1597 0.6664
vt 0.1114 0.7600
vt 0.0401 0.7529
vt 0.2468 0.6958
vt 0.1605 0.6443
vt 0.1720 0.5644
vt 0.2468 0.5099
vt 0.0099 0.6930
vt 0.4589 0.3169
vt 0.4264 0.3690
vt 0.6798 0.5599
vt 0.8947 0.0125
vt 0.8281 0.0004
vt 0.8281 0.1358
vt 0.8947 0.1316
vt 0.2873 0.3032
vt 0.3618 0.3984
vt 0.9490 0.0353
vt 0.9490 0.1237
vt 0.7572 0.0004
vt 0.6905 0.0125
vt 0.6905 0.1316
vt 0.7572 0.1358
vt 0.7795 0.4920
vt 0.6986 0.4531
vt 0.7031 0.4078
vt 0.5731 0.4834
vt 0.5988 0.5210
vt 0.6811 0.2655
vt 0.7572 0.2549
vt 0.5056 0.3267
vt 0.6335 0.5717
vt 0.8281 0.2549
vt 0.5359 0.4070
vt 0.8947 0.2364
vt 0.6362 0.1600
vt 0.6268 0.2669
vt 0.0376 0.3575
vt 0.0803 0.4141
vt 0.6260 0.3340
vt 0.0098 0.2950
vt 0.1387 0.4653
vt 0.1707 0.5092
vt 0.2792 0.4628
vt 0.2465 0.4195
vt 0.0004 0.2340
vn -0.1074 0.2500 -0.9622
vn 0.0968 0.5384 -0.8371
vn 0.6003 0.5652 -0.5658
vn 0.6305 0.3952 -0.6681
vn 0.1013 0.9606 -0.2586
vn 0.0023 0.9530 0.3028
vn 0.4960 0.8365 -0.2328
vn 0.0000 -0.8288 -0.5595
vn 0.0000 -0.7476 -0.6641
vn 0.2665 -0.6198 -0.7381
vn 0.1000 -0.7477 -0.6565
vn -0.1498 -0.3669 -0.9181
vn 0.5844 -0.2782 -0.7622
vn 0.2572 0.7722 -0.5810
vn 0.5989 0.6000 -0.5304
vn -0.0970 -0.9781 -0.1843
vn -0.0672 -0.7014 -0.7095
vn 0.4420 -0.5835 -0.6813
vn 0.4542 0.8813 -0.1305
vn 0.5424 0.7697 -0.3368
vn 0.2007 -0.9136 -0.3536
vn 0.9809 0.0184 -0.1937
vn 0.8777 -0.3724 -0.3016
vn 0.8942 0.3722 -0.2487
vn 0.7392 -0.5720 -0.3554
vn 0.9094 0.3602 -0.2079
vn 0.7415 -0.3852 0.5493
vn 0.6191 -0.5813 0.5280
vn 0.8227 0.3377 0.4573
vn 0.8132 0.2835 0.5082
vn 0.1704 0.8758 0.4516
vn 0.1309 -0.9272 0.3508
vn 0.8830 0.0199 0.4689
vn 0.4100 0.8344 0.3683
vn 0.1165 -0.6061 0.7868
vn 0.1209 -0.7361 0.6659
vn 0.4411 0.3202 0.8384
vn 0.3721 -0.3484 0.8603
vn -0.0223 0.7379 0.6745
vn 0.0738 0.8423 0.5339
vn 0.2172 -0.6008 0.7693
vn 0.3112 0.7268 0.6123
vn -0.3325 -0.5103 0.7931
vn -0.2820 -0.6108 0.7398
vn -0.0446 0.8822 0.4687
vn -0.1741 0.7963 0.5793
vn -0.1432 -0.6591 0.7382
vn -0.2721 0.1647 0.9480
vn 0.0254 0.7382 0.6741
vn 0.0759 -0.8363 0.5430
vn -0.6614 0.6608 0.3547
vn -0.9077 -0.0368 0.4179
vn -0.2239 0.8407 0.4930
vn -0.5719 -0.7435 0.3466
vn -0.4361 -0.8957 0.0864
vn -0.8235 -0.3161 0.4709
vn -0.3144 0.8757 0.3665
vn -0.8342 -0.3043 0.4599
vn -0.4240 0.9056 0.0092
vn -0.6597 0.7366 -0.1491
vn -0.4564 -0.8300 -0.3207
vn -0.9415 -0.1733 -0.2889
vn -0.9390 -0.2475 -0.2388
vn -0.8480 0.4933 -0.1935
vn -0.6063 -0.7510 -0.2615
vn -0.9636 -0.0965 -0.2492
vn -0.5393 -0.4891 -0.6855
vn -0.3406 -0.7566 -0.5582
vn -0.6506 0.2588 -0.7139
vn -0.7071 0.0196 -0.7069
vn -0.3273 0.9301 -0.1664
vn -0.3163 -0.8403 -0.4403
vn -0.6829 -0.2467 -0.6875
vn -0.5432 0.6411 -0.5421
usemtl None
s 1
f 70/1/1 69/2/2 4/3/3 5/4/4
f 67/5/5 1/6/6 2/7/7
f 74/8/8 73/9/9 8/10/10 9/11/11
f 71/12/12 70/13/1 5/14/4 6/15/13
f 68/16/14 67/17/5 2/18/7 3/19/15
f 42/20/16 74/8/8 9/11/11
f 72/21/17 71/22/12 6/23/13 7/24/18
f 69/25/2 68/26/14 3/27/15 4/28/3
f 73/29/9 72/30/17 7/31/18 8/32/10
f 3/33/15 2/7/7 10/34/19 11/35/20
f 42/36/16 9/37/11 17/38/21
f 7/39/18 6/40/13 14/41/22 15/42/23
f 4/43/3 3/44/15 11/45/20 12/46/24
f 8/32/10 7/31/18 15/47/23 16/48/25
f 5/49/4 4/50/3 12/51/24 13/52/26
f 2/7/7 1/6/6 10/34/19
f 9/53/11 8/32/10 16/48/25 17/54/21
f 6/55/13 5/49/4 13/52/26 14/56/22
f 16/57/25 15/58/23 23/59/27 24/60/28
f 13/61/26 12/62/24 20/63/29 21/64/30
f 10/34/19 1/6/6 18/65/31
f 17/66/21 16/67/25 24/68/28 25/69/32
f 14/41/22 13/61/26 21/64/30 22/70/33
f 11/35/20 10/34/19 18/65/31 19/71/34
f 42/20/16 17/66/21 25/69/32
f 15/42/23 14/41/22 22/70/33 23/72/27
f 12/62/24 11/73/20 19/74/34 20/63/29
f 25/69/32 24/68/28 32/75/35 33/76/36
f 22/70/33 21/64/30 29/77/37 30/78/38
f 19/71/34 18/65/31 26/79/39 27/80/40
f 42/20/16 25/69/32 33/76/36
f 23/81/27 22/82/33 30/83/38 31/84/41
f 20/85/29 19/71/34 27/80/40 28/86/42
f 24/87/28 23/88/27 31/89/41 32/90/35
f 21/91/30 20/92/29 28/93/42 29/94/37
f 18/95/31 1/96/6 26/97/39
f 31/98/41 30/99/38 38/100/43 39/101/44
f 28/86/42 27/80/40 35/102/45 36/103/46
f 32/104/35 31/105/41 39/106/44 40/107/47
f 29/108/37 28/109/42 36/110/46 37/111/48
f 26/97/39 1/96/6 34/112/49
f 33/113/36 32/104/35 40/107/47 41/114/50
f 30/115/38 29/116/37 37/117/48 38/118/43
f 27/80/40 26/79/39 34/119/49 35/102/45
f 42/20/16 33/76/36 41/120/50
f 37/121/48 36/122/46 45/123/51 46/124/52
f 34/112/49 1/96/6 43/125/53
f 41/126/50 40/127/47 49/128/54 50/129/55
f 38/130/43 37/121/48 46/124/52 47/131/56
f 35/102/45 34/119/49 43/132/53 44/133/57
f 42/20/16 41/120/50 50/134/55
f 39/106/44 38/135/43 47/136/56 48/137/58
f 36/138/46 35/139/45 44/140/57 45/141/51
f 40/107/47 39/106/44 48/137/58 49/142/54
f 44/133/57 43/132/53 51/143/59 52/144/60
f 42/20/16 50/134/55 58/145/61
f 48/146/58 47/147/56 55/148/62 56/149/63
f 45/150/51 44/133/57 52/144/60 53/151/64
f 49/152/54 48/146/58 56/149/63 57/153/65
f 46/154/52 45/155/51 53/156/64 54/157/66
f 43/132/53 1/6/6 51/143/59
f 50/134/55 49/158/54 57/159/65 58/145/61
f 47/147/56 46/154/52 54/157/66 55/148/62
f 57/159/65 56/160/63 64/161/67 65/162/68
f 54/157/66 53/156/64 61/163/69 62/164/70
f 51/143/59 1/6/6 59/165/71
f 58/145/61 57/159/65 65/162/68 66/166/72
f 55/148/62 54/157/66 62/164/70 63/167/73
f 52/144/60 51/143/59 59/165/71 60/168/74
f 42/20/16 58/145/61 66/166/72
f 56/149/63 55/148/62 63/167/73 64/169/67
f 53/156/64 52/170/60 60/171/74 61/163/69
f 63/172/73 62/173/70 70/13/1 71/12/12
f 60/168/74 59/165/71 67/5/5 68/174/14
f 42/20/16 66/166/72 74/8/8
f 64/175/67 63/172/73 71/12/12 72/30/17
f 61/176/69 60/177/74 68/178/14 69/179/2
f 65/180/68 64/175/67 72/30/17 73/29/9
f 62/173/70 61/176/69 69/179/2 70/13/1
f 59/165/71 1/6/6 67/5/5
f 66/166/72 65/162/68 73/9/9 74/8/8
