
<svg xmlns="http://www.w3.org/2000/svg" version="1.1" xmlns:xlink="http://www.w3.org/1999/xlink" preserveAspectRatio="none" x="0px" y="0px" width="300px" height="300px" viewBox="0 0 300 300">
<defs>
<g id="Water_Death_copy_7_Layer0_0_FILL">
<path fill="#00CCFF" stroke="none" d="
M 121.35 226.85
Q 100.8 226.6 90.6 226.9 72.95 227.4 60.7 231.4 57.55 232.5 46.75 237.05 38.1 240.7 32.5 241.85 26.65 243.15 8.6 243.5 -6.45 243.7 -14.55 247.3 -17.9 248.8 -19.95 251.1 -22.4 253.8 -22 256.75 -21.2 262.6 -10.25 264.45 -16 267.3 -19.9 272.55 -22.55 276.2 -22.45 278.9 -22.25 282.3 -18.6 284.75 -15.8 286.6 -11.3 287.6 5.25 291.3 29.9 292.2 37.05 292.45 47.95 292.7 54.1 295.6 59.85 297.1 65.05 298.45 71.75 299.2 76 299.55 83.95 299.85
L 97.25 300.45
Q 103.8 300.55 105.9 300.45 108.85 300.15 114.7 299.5 117.2 299.35 122.35 299.3 126.95 299.15 129.9 298.35 134.05 297.3 137.55 294.9 139.45 293.55 141.05 291.85 142.35 291.4 143.5 290.95 146.9 289.45 149.1 287.1 151.5 284.5 151.8 280.9 152.1 277.2 149.7 274.9 154.15 273.3 160.6 273.05 164.3 272.95 171.85 273.1 189.6 273.1 206.85 266.8 214.65 263.9 215.35 259.3 215.95 255.15 210.75 250.5 199.4 240.6 181 238.1 178.75 237.75 178.2 237.55 176.65 237.1 175.8 236.4 175.15 235.8 174.4 234.65 173.45 233.05 173.15 232.75 170.85 229.8 164.85 228.45 155.85 226.35 143.25 226.35 128.65 226.75 121.35 226.85 Z"/>
</g>
</defs>

<g transform="matrix( 0.579864501953125, 0, 0, 0.579864501953125, 128.6,95.1) ">
<g transform="matrix( 1.0717010498046875, 0, 0, 0.7060546875, -59,46.6) ">
<g transform="matrix( 1, 0, 0, 1, 0,0) ">
<use xlink:href="#Water_Death_copy_7_Layer0_0_FILL"/>
</g>
</g>
</g>
</svg>
