# Blender v2.78 (sub 0) OBJ File: ''
# www.blender.org
mtllib Trapezoid.mtl
o Cube
v 0.185661 -0.962650 -0.277418
v 0.148312 -1.000000 -0.259236
v 0.148312 -0.969656 -0.318363
v 0.185661 -0.962650 1.630637
v 0.148312 -0.969656 1.681637
v 0.148312 -1.000000 1.666064
v -0.148312 -0.969656 1.681637
v -0.185662 -0.962650 1.630637
v -0.148312 -1.000000 1.666064
v -0.148312 -0.969656 -0.318363
v -0.148312 -1.000000 -0.259237
v -0.185661 -0.962650 -0.277418
v 0.148312 0.969656 -1.710125
v 0.148312 1.000000 -1.694552
v 0.185662 0.962650 -1.659125
v 0.148312 0.969656 0.289875
v 0.185661 0.962650 0.248930
v 0.148312 1.000000 0.230749
v -0.185662 0.962650 0.248929
v -0.148312 0.969656 0.289874
v -0.148312 1.000000 0.230748
v -0.185661 0.962650 -1.659126
v -0.148312 1.000000 -1.694553
v -0.148312 0.969656 -1.710125
vt 0.8870 0.4935
vt 0.8870 0.9777
vt 0.9611 0.9777
vt 0.9611 0.4935
vt 0.8679 0.5037
vt 0.8679 0.9879
vt 0.7939 0.9879
vt 0.7939 0.5037
vt 0.3873 0.8696
vt 0.3873 0.2780
vt 0.0002 0.0002
vt 0.0002 0.5919
vt 0.9611 0.4854
vt 0.8870 0.4854
vt 0.8870 0.0048
vt 0.9611 0.0048
vt 0.4064 0.6007
vt 0.4064 0.0091
vt 0.7934 0.2868
vt 0.7934 0.8785
vt 0.8866 0.4854
vt 0.8772 0.4809
vt 0.8772 0.4957
vt 0.9709 0.5919
vt 0.9802 0.6007
vt 0.9726 0.6046
vt 0.3966 0.8785
vt 0.3890 0.8824
vt 0.8032 0.4957
vt 0.8032 0.4809
vt 0.7939 0.4854
vt 0.8862 0.5090
vt 0.8782 0.5062
vt 0.8862 0.4961
vt 0.4118 0.9623
vt 0.4016 0.9716
vt 0.3970 0.9623
vt 0.4016 0.8789
vt 0.4118 0.8883
vt 0.3970 0.8883
vt 0.8862 0.5095
vt 0.8782 0.5195
vt 0.8862 0.5223
vt 0.8866 0.0091
vt 0.8772 0.0002
vt 0.3970 0.5962
vt 0.3970 0.0002
vt 0.7939 0.4961
vt 0.8679 0.4961
vt 0.9709 0.0002
vt 0.9802 0.0048
vt 0.9904 0.0091
vt 0.9904 0.4854
vt 0.9998 0.4809
vt 0.9998 0.0002
vt 0.3966 0.2825
vt 0.9807 0.0002
vt 0.9807 0.5919
vt 0.9900 0.6007
vt 0.9900 0.0048
vt 0.9704 0.0002
vt 0.9704 0.4766
vt 0.9611 0.4859
vt 0.8870 0.4859
vt 0.8684 0.5007
vt 0.8684 0.9813
vt 0.8777 0.9725
vt 0.8777 0.4961
vt 0.8032 0.0002
vn 0.0000 -0.5831 -0.8124
vn -0.0000 0.5831 0.8124
vn -1.0000 -0.0000 -0.0000
vn 0.0000 1.0000 0.0000
vn 1.0000 0.0000 0.0000
vn 0.5551 -0.7400 -0.3798
vn 0.7927 -0.2783 0.5423
vn -0.7927 -0.2783 0.5423
vn -0.5551 -0.7400 -0.3798
vn 0.7927 0.2783 -0.5423
vn 0.5551 0.7400 0.3798
vn -0.5551 0.7400 0.3798
vn -0.7927 0.2783 -0.5423
vn 0.7071 -0.7071 0.0000
vn 0.0000 -0.8897 -0.4566
vn 0.7071 -0.4123 -0.5745
vn -0.0000 -0.4566 0.8897
vn 0.7071 0.4123 0.5745
vn -0.7071 -0.7071 -0.0000
vn -0.7071 0.4123 0.5745
vn -0.7071 -0.4123 -0.5745
vn 0.7071 0.7071 0.0000
vn 0.0000 0.4566 -0.8897
vn -0.0000 0.8897 0.4566
vn -0.7071 0.7071 -0.0000
vn 0.0000 -1.0000 0.0000
usemtl Material
s off
f 13/1/1 3/2/1 10/3/1 24/4/1
f 5/5/2 16/6/2 20/7/2 7/8/2
f 8/9/3 19/10/3 22/11/3 12/12/3
f 14/13/4 23/14/4 21/15/4 18/16/4
f 1/17/5 15/18/5 17/19/5 4/20/5
f 1/21/6 2/22/6 3/23/6
f 4/24/7 5/25/7 6/26/7
f 7/27/8 8/9/8 9/28/8
f 10/29/9 11/30/9 12/31/9
f 13/32/10 14/33/10 15/34/10
f 16/35/11 17/36/11 18/37/11
f 19/38/12 20/39/12 21/40/12
f 22/41/13 23/42/13 24/43/13
f 1/21/14 4/44/14 6/45/14 2/22/14
f 2/22/15 11/30/15 10/29/15 3/23/15
f 3/46/16 13/47/16 15/18/16 1/17/16
f 5/5/17 7/8/17 9/48/17 6/49/17
f 4/24/18 17/50/18 16/51/18 5/25/18
f 8/52/19 12/53/19 11/54/19 9/55/19
f 7/27/20 20/56/20 19/10/20 8/9/20
f 12/57/21 22/58/21 24/59/21 10/60/21
f 14/13/22 18/16/22 17/61/22 15/62/22
f 13/1/23 24/4/23 23/63/23 14/64/23
f 18/37/24 21/40/24 20/39/24 16/35/24
f 21/65/25 23/66/25 22/67/25 19/68/25
f 2/22/26 6/45/26 9/69/26 11/30/26
