
<svg xmlns="http://www.w3.org/2000/svg" version="1.1" xmlns:xlink="http://www.w3.org/1999/xlink" preserveAspectRatio="none" x="0px" y="0px" width="1000px" height="1000px" viewBox="0 0 1000 1000">
<defs>
<radialGradient id="Gradient_1" gradientUnits="userSpaceOnUse" cx="0" cy="0" r="52.99999999999999" fx="0" fy="0" gradientTransform="matrix( 1.0000000000000002, 0, 0, 1.0000000000000002, 49.1,49.1) " spreadMethod="pad">
<stop  offset="31.764705882352942%" stop-color="#FFFFFF"/>

<stop  offset="78.03921568627452%" stop-color="#FFFF89"/>

<stop  offset="100%" stop-color="#FFFF00"/>
</radialGradient>

<g id="Boom_Impact_1_Layer3_0_FILL">
<path fill="#FF9900" stroke="none" d="
M 107.55 48.4
Q 107.55 24.4 90.6 7.45 73.65 -9.5 49.7 -9.5 25.7 -9.5 8.75 7.45 -8.2 24.4 -8.2 48.4 -8.2 72.35 8.75 89.3 25.7 106.25 49.7 106.25 73.65 106.25 90.6 89.3 107.55 72.35 107.55 48.4 Z"/>
</g>

<g id="Boom_Impact_1_Layer2_0_FILL">
<path fill="url(#Gradient_1)" stroke="none" d="
M 100.85 49.05
Q 100.85 27.65 85.75 12.45 70.6 -2.7 49.15 -2.7 27.65 -2.7 12.45 12.45 -2.7 27.65 -2.7 49.05 -2.7 70.55 12.45 85.7 27.65 100.85 49.15 100.85 70.6 100.85 85.75 85.7 100.85 70.55 100.85 49.05 Z"/>
</g>

<g id="Boom_Impact_1_Layer1_0_FILL">
<path fill="#FFFFFF" stroke="none" d="
M 72.35 27.15
Q 63 17.8 49.75 17.8 36.45 17.8 27.1 27.15 17.75 36.5 17.75 49.8 17.75 63.05 27.1 72.4 36.45 81.75 49.75 81.75 63 81.75 72.35 72.4 81.7 63.05 81.7 49.8 81.7 36.5 72.35 27.15 Z"/>
</g>

<g id="Boom_Impact_1_Layer0_0_FILL">
<path fill="#FFFFFF" stroke="none" d="
M -9.1 48.6
Q -15.9 44.35 -27.8 46.35 -37.9 48.05 -40.8 50.95 -36.35 52.25 -28.3 53.05 -22.2 53.65 -18.35 53.65 -15.65 53.65 -12.5 52.75 -9.15 51.8 -8.4 50.6
L -9.1 48.6
M 17.85 105.5
Q 16.9 105.2 16.85 105.1 15.3 105.6 7.05 115.15 -1.65 125.2 -1.65 127.9 -1.65 128.1 -1.3 131 -0.35 133.8 2.7 133.8 5.05 133.8 11.85 121.55 18.35 109.8 18.35 107.65 18.35 105.6 17.85 105.5
M 116.3 83.2
Q 116.6 82.75 116.75 81.65 115.6 76.9 111.6 76.15 107.55 75.4 105.45 79.65 107.6 81.8 107.95 82.05 110.55 84 113.55 84 115.7 84 116.3 83.2
M 105.45 43.5
Q 107.2 45.25 108.45 45.9 111.15 47.25 115.75 47.25 117.75 47.25 117.95 46.75 118.05 46.45 118.1 46.2 118.1 45.1 117.8 43.3 117.45 41.55 117.45 41.15 111.5 40.45 109.05 40.3 106.95 40.2 105.1 40.5 105.1 42.5 105.45 43.5
M 93.35 -6.55
Q 99.35 -13.2 99.35 -16.2 99.35 -21.85 96.85 -22.25 94.65 -22.6 91.25 -18.95 87.95 -15.35 85.35 -10 82.55 -4.2 82 0.8 82.35 2 84.35 2.7 86.4 0.6 93.35 -6.55
M 12.5 -9.2
Q 9.3 -20 6.15 -27.05 -3.05 -47.7 -15.65 -45.55 -12.85 -35.65 -2.4 -20 10.4 -1.95 16.2 7.05
L 16.85 6.4
Q 14.2 -3.3 12.5 -9.2 Z"/>
</g>

<g id="Fire_Poof_01_0_Layer0_0_FILL">
<path fill="#FFFFFF" stroke="none" d="
M 6.4 12.35
Q 5.85 8.6 1.65 6.1 -0.9 5.95 -2.4 5.95 -3.15 5.95 -4.55 6.7 -6 7.45 -6.75 7.45 -7.65 7.45 -7.9 7.15 -8 6.8 -8.25 6.55 -8.15 6.3 -7.15 4.5 -6.4 3.15 -6.4 2.55 -6.4 0.3 -9.8 0.05 -13.2 -0.25 -17.3 1.6 -28.2 6.55 -28.2 17.95 -28.2 20.3 -26.95 24.1 -25.75 27.65 -24.85 28.65 -24.1 29.4 -21.4 30.85 -19.05 32.15 -18.75 32.85 -18.4 33.75 -18.05 35.55 -17.15 37.15 -13.05 38.25 -12.85 38.5 -9.35 38.7 -6.75 38.8 -4.8 38.8 -2.05 38.8 0.55 35.5 1.9 33.8 3.15 31.6 5.55 31.45 7.2 31.6 7.2 30.25 7.5 29.8
L 11.4 29.35
Q 11.55 29.8 11.55 28.3 11.55 27.4 11.4 27.35 11.2 27.4 10.95 27.15 8.15 27.85 5.3 24.75 2.85 22.1 2.85 20.8 2.85 19.85 3 19.8 3.1 19.75 3.15 19.9 6.95 19.55 7.2 18.6 6.7 17.4 6.6 15.5 6.45 12.75 6.4 12.35
M 0.75 8.1
Q 3.75 9.6 4.45 11.65 4.7 12.3 4.7 14.8 4.7 17.15 2.9 17.7 1.05 18.2 1.05 20.8 1.05 22.45 2.1 24.5 3.4 27 5.55 28.2 5.2 28.5 4.9 28.85
L 4.7 29.2
Q 1.8 29.4 -0.25 32.7 -0.45 34.3 -1.75 35.15 -4.1 36.7 -12.15 36.7 -13.1 36.7 -13.95 36.4
L -14.65 36.1
Q -15.6 35.25 -16 34.8 -16.65 34.1 -16.65 33.45 -16.2 32.5 -16.05 32 -15.8 31.05 -17.25 29.95 -18.4 29.05 -21.25 28.1 -23.5 27.3 -23.85 26.5 -26.1 19.75 -26.1 17.95 -26.1 3.95 -10.45 1.3 -10.3 1.3 -9.65 1.75 -8.9 2.2 -8.7 2.5 -10.15 4.35 -10.15 6 -10.15 7.55 -8.4 9.55
L -5.5 9.7
Q -4.95 9.5 -2.4 8.1
L 0.75 8.1
M 1.2 15.15
Q 1.35 14.55 0.95 13.5 0.4 12.2 -0.9 11.4 -4.55 11.85 -5.95 12.35 -6.8 12.65 -8.6 13.35
L -10.95 13.2
Q -11.9 12.1 -12.3 10.45 -12.55 8.95 -12.65 8.7 -13.3 9.1 -14.9 9.7 -16.3 10.4 -17.15 11.9 -17.6 12.55 -18.25 14.6 -18.9 16.6 -18.9 17.25 -18.9 17.8 -17.55 20.05 -16.25 22.3 -15.9 22.4 -12.45 23.8 -12.5 24.9 -12.5 25.55 -13.25 27.15 -13.25 27.8 -12.1 29.05 -11 30.25 -10.2 30.6 -4.8 30.5 -3.5 29.8 -2.7 28.8 -1.5 28.2
L -1.2 28.05
Q -4.05 26.65 -5.55 24.85 -6.9 23.15 -6.9 21.5 -6.9 19.55 -3.7 17.4 -0.9 15.5 1.2 15.15 Z"/>

<path fill="#FFFF66" stroke="none" d="
M 4.45 11.65
Q 3.75 9.6 0.75 8.1
L -2.4 8.1
Q -4.95 9.5 -5.5 9.7
L -8.4 9.55
Q -10.15 7.55 -10.15 6 -10.15 4.35 -8.7 2.5 -8.9 2.2 -9.65 1.75 -10.3 1.3 -10.45 1.3 -26.1 3.95 -26.1 17.95 -26.1 19.75 -23.85 26.5 -23.5 27.3 -21.25 28.1 -18.4 29.05 -17.25 29.95 -15.8 31.05 -16.05 32 -16.2 32.5 -16.65 33.45 -16.65 34.1 -16 34.8 -15.6 35.25 -14.65 36.1
L -13.95 36.4
Q -13.1 36.7 -12.15 36.7 -4.1 36.7 -1.75 35.15 -0.45 34.3 -0.25 32.7 1.8 29.4 4.7 29.2
L 4.9 28.85
Q 5.2 28.5 5.55 28.2 3.4 27 2.1 24.5 1.05 22.45 1.05 20.8 1.05 18.2 2.9 17.7 4.7 17.15 4.7 14.8 4.7 12.3 4.45 11.65
M 0.95 13.5
Q 1.35 14.55 1.2 15.15 -0.9 15.5 -3.7 17.4 -6.9 19.55 -6.9 21.5 -6.9 23.15 -5.55 24.85 -4.05 26.65 -1.2 28.05
L -1.5 28.2
Q -2.7 28.8 -3.5 29.8 -4.8 30.5 -10.2 30.6 -11 30.25 -12.1 29.05 -13.25 27.8 -13.25 27.15 -12.5 25.55 -12.5 24.9 -12.45 23.8 -15.9 22.4 -16.25 22.3 -17.55 20.05 -18.9 17.8 -18.9 17.25 -18.9 16.6 -18.25 14.6 -17.6 12.55 -17.15 11.9 -16.3 10.4 -14.9 9.7 -13.3 9.1 -12.65 8.7 -12.55 8.95 -12.3 10.45 -11.9 12.1 -10.95 13.2
L -8.6 13.35
Q -6.8 12.65 -5.95 12.35 -4.55 11.85 -0.9 11.4 0.4 12.2 0.95 13.5 Z"/>
</g>

<g id="Blast_Shot_1_Layer0_0_FILL">
<path fill="#FFCC00" stroke="none" d="
M -8.9 91.6
Q -10.1 92.75 -11.7 95.7 -15.75 103.15 -15.75 108.65 -15.75 108.75 -15.7 109.9 -15.35 111 -13.7 111 -11.1 111 -9.1 101.85 -7.65 95 -7.65 92.05 -7.65 90.4 -8.9 91.6
M -59.65 84.1
Q -59.1 85.35 -57.65 85.35 -55.05 85.35 -44.65 79.55 -32.4 72.7 -27.75 66.25 -30.9 66.45 -45.1 73.35 -59.85 80.55 -59.85 82.85 -59.85 82.9 -59.65 84.1
M -42.65 84.3
L -42.7 84.15
Q -42.75 84.1 -42.75 84.8 -42.75 87.2 -36.6 92.25 -29.7 97.85 -23.75 97.85 -23.05 97.85 -22.15 97.55 -21.35 97.25 -21.25 97.2 -28.15 95.45 -35 90.35 -41.1 85.2 -42.65 84.3
M -36.05 -11.5
Q -38.55 -12.7 -38.55 -10 -38.55 -7.85 -29.05 5 -21.8 14.85 -16.9 20.7
L -16.65 20.45
Q -21.15 4.65 -30.05 -6.1 -33.6 -10.35 -36.05 -11.5
M -40.75 -7.45
Q -45.05 -6.65 -50.25 -0.75 -56.1 5.85 -59.75 15.45 -64.05 26.85 -64.05 39.85 -64.05 39.95 -63.15 50.45 -61.95 60.85 -60.4 60.85 -59.7 60.85 -59.6 60.7
L -59.7 60.5
Q -59.3 47.45 -58.4 40.95 -56.85 29.75 -51.45 21.35
L -48.5 21.15
Q -47.7 19.9 -47.6 14.55 -47.5 10.55 -43.9 9.35 -40.35 8.25 -40.35 6.75 -41.05 5.15 -41.05 4.3 -41.05 0.85 -39.2 -0.4 -37.4 -0.95 -37.4 -1.05 -37.4 -1.6 -36.9 -2.15 -36.45 -2.65 -36.45 -3.25 -36.45 -8.25 -40.75 -7.45
M -39.6 -6.5
Q -39 -5.45 -39 -4.3 -39 -3.55 -41.05 -0.7 -43.1 2.2 -43.1 5.9 -44.5 6.6 -46.65 7.65 -48.2 8.55 -48.7 9.9 -50.1 13.65 -50.1 15.4 -50.1 15.95 -49.8 17.15 -49.5 18.35 -49.5 18.9 -56.05 19.75 -58.75 32.1 -59.8943359375 37.174609375 -60.95 52.05 -60.9447265625 52.1251953125 -60.95 52.2
L -61.1 52.05
Q -61.55 49.3 -61.9 44.9 -62.25 41.15 -62.25 40.05 -62.25 26.95 -57.5 14.85 -51.4 -0.8 -39.6 -6.5
M 22.35 91.25
Q 23.05 91.35 23.75 91.35 36 91.35 42.55 78.2 46.9 69.55 46.9 63.05 46.45 58.55 46.35 56.5 45.8 57.4 43.4 63.6 41.25 69.3 38.75 72.65 34.15 78.9 27.35 84.9 24.05 87.8 21.7 89.85 21.7 91 21.8 91.1
L 22.35 91.25
M 29.6 86.65
Q 29.424609375 86.7599609375 29.25 86.85
L 29.5 86.5
Q 34.4 82.45 38.3 76.7 42.2 70.2 44.1 67.25 43.211328125 79.494921875 29.6 86.65
M 40.1 44.95
L 39.9 44.8
Q 38.25 44.9 32.5 46.8 26.55 48.75 26.55 49.35 26.55 50.05 26.7 50.2 26.8 50.25 26.85 50.3
L 29.25 50.65
Q 30.55 50.05 36.45 48.15 40.25 46.95 40.25 45.75 40.25 45.1 40.1 44.95
M 42.25 22.8
Q 51.6 18.3 51.6 15.3 51.6 10.65 40.8 18.4 37.25 20.95 33.35 24.25 29.95 27.1 29.95 27.3 29.95 28.45 30.65 27.9 32.15 27.1 42.25 22.8
M 2.6 -9.2
Q 3.95 -10.25 6.55 -10.25 10.45 -10.25 14.8 -8.7 21.85 -6.15 22.3 -0.9
L 22.5 -0.75
Q 22.85 -0.65 23.55 -0.65 24.1 -0.65 25 -1.1 25.9 -1.55 26.45 -1.55 28 -1.55 31.9 4.65 33.6 7.4 37.05 13.7 37.5 13.55 37.95 13.2
L 37.95 10.8
Q 36.5 8.85 33.65 2.75 31.15 -2.7 28.35 -5.7 19.45 -15.3 -5.9 -17.8 -9.55 -18.05 -13.2 -15.8 -16.3 -13.9 -16.3 -12.75 -16.3 -11.85 -15.95 -8.95 -15.6 -5.9 -15.2 -3.75 -14.55 -3.75 -14 -3.85
L -13.55 -3.95
Q -13.05 -5.95 -11.85 -7.55 -9.8 -10.25 -6.6 -10.25 -4.55 -10.25 -2.8 -9.2 -1.05 -8.2 0.9 -8.2 1.3 -8.2 2.6 -9.2
M 6.55 -12.35
Q 4.9 -12.35 3.35 -11.3 1.8 -10.25 0.8 -10.25 -0.1 -10.25 -2 -11.3 -3.85 -12.35 -6.6 -12.35 -9.5 -12.35 -11.5 -10.45 -12.55 -9.45 -14.15 -7.75
L -14.25 -7.85
Q -14.25 -8.6 -14.6 -9.85 -14.95 -11.15 -14.95 -11.7 -14.95 -14.5 -9.35 -15.35 -4.1 -16.15 3.45 -14.95 11.3 -13.7 17.3 -10.9 18.1240234375 -10.52109375 18.85 -10.15 20.04921875 -9.5169921875 21.05 -8.9 24.765234375 -6.5197265625 26.15 -3.75 25.45 -3.4 24.45 -3.4 23.549609375 -6.185546875 20.6 -8.2 19.648828125 -8.8662109375 18.45 -9.45 16.84921875 -10.2251953125 14.85 -10.85 9.95 -12.35 6.55 -12.35 Z"/>

<path fill="#FFFFFF" stroke="none" d="
M -39 -4.3
Q -39 -5.45 -39.6 -6.5 -51.4 -0.8 -57.5 14.85 -62.25 26.95 -62.25 40.05 -62.25 41.15 -61.9 44.9 -61.55 49.3 -61.1 52.05
L -60.95 52.05
Q -59.8943359375 37.174609375 -58.75 32.1 -56.05 19.75 -49.5 18.9 -49.5 18.35 -49.8 17.15 -50.1 15.95 -50.1 15.4 -50.1 13.65 -48.7 9.9 -48.2 8.55 -46.65 7.65 -44.5 6.6 -43.1 5.9 -43.1 2.2 -41.05 -0.7 -39 -3.55 -39 -4.3
M 29.5 86.5
L 29.6 86.65
Q 43.211328125 79.494921875 44.1 67.25 42.2 70.2 38.3 76.7 34.4 82.45 29.5 86.5
M 3.35 -11.3
Q 4.9 -12.35 6.55 -12.35 9.95 -12.35 14.85 -10.85 16.84921875 -10.2251953125 18.45 -9.45 19.648828125 -8.8662109375 20.6 -8.2 23.549609375 -6.185546875 24.45 -3.4 25.45 -3.4 26.15 -3.75 24.765234375 -6.5197265625 21.05 -8.9 20.04921875 -9.5169921875 18.85 -10.15 18.1240234375 -10.52109375 17.3 -10.9 11.3 -13.7 3.45 -14.95 -4.1 -16.15 -9.35 -15.35 -14.95 -14.5 -14.95 -11.7 -14.95 -11.15 -14.6 -9.85 -14.25 -8.6 -14.25 -7.85
L -14.15 -7.75
Q -12.55 -9.45 -11.5 -10.45 -9.5 -12.35 -6.6 -12.35 -3.85 -12.35 -2 -11.3 -0.1 -10.25 0.8 -10.25 1.8 -10.25 3.35 -11.3 Z"/>
</g>
</defs>

<g transform="matrix( -0.6658172607421875, 0, 0, 0.6658172607421875, 520.45,355.5) ">
<g transform="matrix( 1, 0, 0, 1, -63,97.7) ">
<g transform="matrix( 1, 0, 0, 1, 40.8,72.8) ">
<g transform="matrix( 1, 0, 0, 1, 0,0) ">
<use xlink:href="#Boom_Impact_1_Layer3_0_FILL"/>
</g>

<g transform="matrix( 1, 0, 0, 1, 0,0) ">
<use xlink:href="#Boom_Impact_1_Layer2_0_FILL"/>
</g>

<g transform="matrix( 1, 0, 0, 1, 0,0) ">
<use xlink:href="#Boom_Impact_1_Layer1_0_FILL"/>
</g>

<g transform="matrix( 1, 0, 0, 1, 0,0) ">
<use xlink:href="#Boom_Impact_1_Layer0_0_FILL"/>
</g>
</g>

<g transform="matrix( -2.934844970703125, 0.4123687744140625, 0.5322113037109375, 3.787872314453125, 105.5,41.2) ">
<g transform="matrix( 1, 0, 0, 1, 0,0) ">
<use xlink:href="#Fire_Poof_01_0_Layer0_0_FILL"/>
</g>
</g>

<g transform="matrix( 1.49737548828125, 0.21038818359375, -0.2715301513671875, 1.9326019287109375, 79.95,86.9) ">
<g transform="matrix( 1, 0, 0, 1, 0,0) ">
<use xlink:href="#Fire_Poof_01_0_Layer0_0_FILL"/>
</g>
</g>

<g transform="matrix( 1.78753662109375, 0, 0, 1.78753662109375, 94.2,31.8) ">
<g transform="matrix( 1, 0, 0, 1, 0,0) ">
<use xlink:href="#Blast_Shot_1_Layer0_0_FILL"/>
</g>
</g>
</g>
</g>
</svg>
