
<svg xmlns="http://www.w3.org/2000/svg" version="1.1" xmlns:xlink="http://www.w3.org/1999/xlink" preserveAspectRatio="none" x="0px" y="0px" width="1000px" height="1000px" viewBox="0 0 1000 1000">
<defs>
<linearGradient id="Gradient_1" gradientUnits="userSpaceOnUse" x1="-1605.825" y1="293.5" x2="-589.175" y2="306.79999999999995" spreadMethod="pad">
<stop  offset="0%" stop-color="#FF6600"/>

<stop  offset="50.19607843137255%" stop-color="#FFCC00"/>

<stop  offset="100%" stop-color="#FFFFFF"/>
</linearGradient>

<linearGradient id="Gradient_2" gradientUnits="userSpaceOnUse" x1="-1485.7375" y1="272.35" x2="-1143.2625" y2="310.15" spreadMethod="pad">
<stop  offset="0%" stop-color="#FFFF66"/>

<stop  offset="100%" stop-color="#FFFFFF"/>
</linearGradient>

<linearGradient id="Gradient_3" gradientUnits="userSpaceOnUse" x1="-1556.3375" y1="286.25" x2="-784.1624999999999" y2="337.04999999999995" spreadMethod="pad">
<stop  offset="0%" stop-color="#FF6600"/>

<stop  offset="50.19607843137255%" stop-color="#FFCC00"/>

<stop  offset="100%" stop-color="#FFFFFF"/>
</linearGradient>

<linearGradient id="Gradient_4" gradientUnits="userSpaceOnUse" x1="-870.15" y1="257.65" x2="-819.35" y2="267.75" spreadMethod="pad">
<stop  offset="0%" stop-color="#FFFF66"/>

<stop  offset="100%" stop-color="#FFFFFF"/>
</linearGradient>

<linearGradient id="Gradient_5" gradientUnits="userSpaceOnUse" x1="-786.1374999999999" y1="42.099999999999994" x2="-654.9625" y2="178.5" spreadMethod="pad">
<stop  offset="0%" stop-color="#FF6600"/>

<stop  offset="50.19607843137255%" stop-color="#FFCC00"/>

<stop  offset="100%" stop-color="#FFFFFF"/>
</linearGradient>

<linearGradient id="Gradient_6" gradientUnits="userSpaceOnUse" x1="-496.625" y1="354.9375" x2="-385.375" y2="473.76250000000005" spreadMethod="pad">
<stop  offset="0%" stop-color="#FF6600"/>

<stop  offset="50.19607843137255%" stop-color="#FFCC00"/>

<stop  offset="100%" stop-color="#FFFFFF"/>
</linearGradient>

<linearGradient id="Gradient_7" gradientUnits="userSpaceOnUse" x1="-557.7" y1="447.4375" x2="-331.09999999999997" y2="375.76250000000005" spreadMethod="pad">
<stop  offset="0%" stop-color="#FF6600"/>

<stop  offset="50.19607843137255%" stop-color="#FFCC00"/>

<stop  offset="100%" stop-color="#FFFFFF"/>
</linearGradient>

<linearGradient id="Gradient_8" gradientUnits="userSpaceOnUse" x1="-387.6375" y1="193.71249999999998" x2="-312.96250000000003" y2="273.4875" spreadMethod="pad">
<stop  offset="0%" stop-color="#FF6600"/>

<stop  offset="50.19607843137255%" stop-color="#FFCC00"/>

<stop  offset="100%" stop-color="#FFFFFF"/>
</linearGradient>

<linearGradient id="Gradient_9" gradientUnits="userSpaceOnUse" x1="-244.3" y1="302.5875" x2="-61.5" y2="325.2125" spreadMethod="pad">
<stop  offset="0%" stop-color="#FF6600"/>

<stop  offset="50.19607843137255%" stop-color="#FFCC00"/>

<stop  offset="100%" stop-color="#FFFFFF"/>
</linearGradient>

<g id="Blaze_Blaze_fire_stream_3_Layer0_0_FILL">
<path fill="#FF9900" stroke="none" d="
M -766.05 415.35
Q -765.45 414.15 -764 414.15 -765.55 412.6 -770.3 412.1 -773.1 411.8 -779.3 411.8 -816.7 411.8 -846.9 429.45 -849.35 430.85 -865.45 441.55 -873.7 447.05 -877.7 447.05 -878.5 447.05 -881.55 444.1 -886.15 439.7 -888.7 437.65 -900.45 428.25 -912.95 428.25 -914.1298828125 428.25 -915.6 428.35 -914.4619140625 430.8640625 -914.4 431.05 -913.85 432.6 -913.85 437.65 -913.85 440.6 -919 450.55 -924.85 462 -930.3 465.85 -923.6 471.3 -917.95 470.35 -912.65 468.2 -910.3 468.2 -903.15 468.2 -896.65 471.6 -891.75 474.2 -885.6 479.8 -878.65 486.5 -874.95 489.75 -868.4 495.45 -862.45 498.45 -865.8 490.05 -855.35 474.9 -845.8 461.15 -828.4 446.45 -811.15 431.95 -794.5 423.55 -776.35 414.4 -766.35 416.5 -766.35 415.9 -766.05 415.35
M -1049.55 458.8
L -1051.9 458.8
Q -1051.15 465.25 -1055.65 474.05 -1059.95 482.45 -1067.35 489.9 -1073.9181640625 496.5107421875 -1080.75 500.15 -1078.52109375 507.198046875 -1073.45 511.65 -1067.05 517.25 -1058.95 517.25 -1039.65 517.25 -1016.15 495.25 -1006.9 486.55 -1000.4 477.35 -994.93671875 469.6322265625 -993.75 464.85 -997.7923828125 467.1158203125 -1007.05 472.45 -1020.85 479.65 -1028.7 479.65 -1038 479.65 -1043.65 471.65 -1046.2 468.05 -1049.55 458.8
M 19.15 506.45
Q 15.05 504.75 12.6 505.5 10.25 517.25 10.25 524.3 15.05 523.55 19.4 520.7 24.35 517.4 24.35 513.75 24.35 508.6 19.15 506.45
M -305.5 538.4
Q -309.15 540.55 -322.45 544.35 -330.8728515625 546.776953125 -337.1 549 -330.2876953125 568.4703125 -318.2 575.7 -309.95 580.65 -298.45 585.15
L -282 585.15
Q -282 584.55 -281.7 584 -281.1 582.8 -279.65 582.8 -294.3 579.35 -301.7 560.7 -304.35 554 -305.4 546.95 -306.25 540.8 -305.5 538.4
M -52.55 578.1
Q -56.3794921875 572.9939453125 -68.15 570.4 -73.9533203125 577.6341796875 -84.7 585.45 -94.65 592.65 -106.6 599.25
L -106.6 601.6
Q -99.25 599.3 -88.55 597.65 -75.35 595.6 -72.85 595 -65.05 593.2 -60.55 589.8 -55.15 585.7 -52.55 578.1
M -1150.3 496.1
L -1147.95 496.1
Q -1149.1087890625 495.003515625 -1150.05 494
L -1151.25 495.15
Q -1150.7626953125 495.64140625 -1150.3 496.1
M -1576.65 191.25
Q -1577.1201171875 191.7044921875 -1577.65 192.2
L -1577.35 192.55
Q -1577.2263671875 192.2615234375 -1576.65 191.25
M -1316.8 62.05
Q -1315.2578125 61.1427734375 -1313.6 60.15 -1301.75 53.05 -1295.4 46.7
L -1297.75 46.7
Q -1310.25 56.45 -1317.45 60.85
L -1316.8 62.05
M -848.35 126.3
Q -847.76328125 125.781640625 -847.2 125.25
L -848.35 123.95 -848.35 126.3
M -672.1 157.95
Q -674.71328125 172.5837890625 -672.95 191.8 -671.45 190.3 -668.55 181.4 -665.9 173.25 -665.9 172.1 -665.9 170.05 -667.7 165.9 -669.4876953125 161.7140625 -672.1 157.95
M -672.9 156.85
Q -672.4970703125 157.39375 -672.1 157.95 -672.017578125 157.484765625 -671.95 157
L -672.9 156.85
M -722 159.2
Q -721.4158203125 158.792578125 -720.85 158.4
L -722 156.85 -722 159.2
M -583.95 121.6
Q -584.3150390625 121.0458984375 -584.7 120.5
L -586.3 121.6 -583.95 121.6
M -282 379.2
Q -282.5625 378.5984375 -283.15 378
L -284.35 379.2 -282 379.2
M -231.75 0
Q -237.549609375 0 -242.35 1.1 -236.75234375 9.8634765625 -235.7 14.5 -235.15 16.9 -235.3 20.65 -235.5 25.35 -235.25 28.2 -228.3 27.75 -217.55 30.3 -206.55 32.95 -197.65 37.3 -198.5 26.2 -207.45 14.25 -218.1 0 -231.75 0
M -140.7 445.2
L -141.55 444.7 -141.55 447.05
Q -141.1484375 446.148828125 -140.7 445.2
M -141.55 238.8
Q -140.26953125 238.9244140625 -139.15 239.05
L -139.2 238.8 -141.55 238.8
M -303.15 257.3
Q -302.025390625 257.5953125 -300.95 257.85
L -300.8 257.3 -303.15 257.3
M -104.5 185.6
Q -106.0947265625 187.642578125 -107.6 189.75
L -107 190.05
Q -105.8861328125 187.7875 -104.5 185.6
M 40.6 -83
Q 49.05 -68.2 52.75 -52.95 56.3 -38.45 54.6 -27.9 63.7 -26.1 69.1 -13.15 71.8 -6.65 73.4 0
L 73.4 1.75
Q 73.530078125 -3.587890625 75.75 -20.45 78.1 -38.3 78.1 -40.8 78.1 -93.35 33.45 -121.3 14.4748046875 -133.1623046875 -10.65 -139.6 -40.251953125 -147.15 -78.4 -147.15 -113.5 -147.15 -148.55 -131.85 -185.2 -115.85 -202.35 -91.05 -183.55 -101.15 -176.5 -104.8 -165.2 -110.7 -157.95 -113.35 -142.75 -118.95 -116 -118.95 -113.35 -118.95 -102.35 -115.55 -91.75 -112.2 -91.35 -112.2 -90.1 -112.2 -84.4 -116.55 -72.05 -126 -71.85 -126.15 -52.8 -140.1 -42.3 -140.1 -34.95 -140.1 -18.5 -135.6 -12.0158203125 -133.8400390625 -7.7 -132.7 -6.777734375 -130.6150390625 -6.05 -128.85 22.8517578125 -114.0810546875 40.6 -83 Z"/>

<path fill="url(#Gradient_1)" stroke="none" d="
M -1151.3 495.1
Q -1151.24921875 495.124609375 -1151.25 495.15
L -1150.05 494 -1151.3 495.1
M -1577.35 192.55
L -1577.65 192.2
Q -1577.6498046875 192.2248046875 -1577.7 192.25
L -1577.35 192.55 Z"/>

<path fill="#FFFF99" stroke="none" d="
M -1294.25 187.1
Q -1294.315234375 187.9490234375 -1294.45 188.8
L -1293.05 189.15
Q -1294.25 188.55 -1294.25 187.1 Z"/>

<path fill="url(#Gradient_2)" stroke="none" d="
M -1353.85 95.75
Q -1355.05 95.15 -1355.05 93.7 -1360.85 99.55 -1363.35 110.9 -1364.75 117.45 -1366.2 130.95 -1367.9 142.4 -1371.75 147.55 -1376.9 154.5 -1387.95 154.5 -1390.85 154.5 -1400.7 152.15 -1410.55 149.8 -1413.5 149.8 -1421.8 149.8 -1426.75 151.1 -1431 152.25 -1436.35 155.45 -1439.65 157.45 -1449.1 163.45 -1458.959375 169.317578125 -1471 175.15 -1464.2958984375 173.6978515625 -1448.6 167.45 -1428.05 159.2 -1422.9 159.2 -1399 159.2 -1385.75 173.2 -1371.5 188.25 -1371.5 217.65 -1371.5 231.1 -1384.25 252.25 -1387.45 257.55 -1393.05 266.25 -1397.05 272.75 -1397.05 274.95 -1397.05 277.2 -1402.9 284.4 -1408.8 291.6 -1408.8 292.55 -1408.8 294.4 -1405.15 297.6 -1397.6 304.25 -1397.2 304.65 -1385.6 316.3 -1385.6 332.2 -1385.6 343.4 -1394.75 348.65 -1403.1 353.35 -1419.4 353.35 -1431.95 353.35 -1450.65 347.45 -1470.25 341.25 -1483.7 332.5 -1503.95 319.25 -1510.25 307.4 -1512.15 303.85 -1513.75 298.3 -1515.4 292.55 -1516.6 290.2 -1517.35 301.85 -1509.65 323.7 -1501.85 345.75 -1489.2 367.25 -1475.3 391 -1460.55 405.05 -1443.6 421.2 -1428.8 421.2 -1412 421.2 -1392.7 412.25 -1382.25 407.1 -1376.9 404.6 -1367.45 400.2 -1359.75 398 -1359.75 398.55 -1358.55 401.7 -1357.4 404.85 -1357.4 408.3 -1357.4 417.6 -1377.9 440.55 -1388.6 452.55 -1404.1 468.2
L -1404.1 470.55
Q -1395.4 470.35 -1389.15 470.25 -1377.4 470.05 -1368.75 470.65 -1342.4 472.55 -1336.25 482 -1312.85 475.35 -1293.8 433.75 -1292.7 431.35 -1281.05 403.25 -1280.213671875 401.237890625 -1279.45 399.4 -1269.3578125 403.0041015625 -1262.05 405.6 -1237.9 414.15 -1233.45 414.15 -1227.15 414.15 -1223.6 407.95 -1222.1 405.35 -1218.5 394.35 -1215.45 384.9 -1211.8 380.7 -1206.4 374.5 -1197 374.5 -1191.55 374.5 -1188.5 371.75 -1185.75 369.35 -1184.25 364.1 -1183.25 360.6 -1182 352.2 -1180.45 341.95 -1179.4 336.9 -1178.65 333.05 -1172.05 327.1 -1165.75 321.4 -1156.05 315.5 -1133.75 301.95 -1116.25 299.6 -1079.95 294.6 -1018.2 290.8 -989.7 289 -981.8 288.35 -966.2 287.05 -962 285.5
L -959.65 283.15
Q -967.35 283.3 -993.5 281.05 -1023.35 278.55 -1052.4 274.8 -1134.3 264.35 -1149.15 252.6
L -1149.15 248.2
Q -1140.75 247.7 -1136.25 244.75 -1133.8 243.1 -1130.2 238.3 -1126.75 233.7 -1123.15 231.5 -1117.4 228.15 -1107.1 227.05 -1116.25 224.7 -1137.65 224.7 -1183.35 224.7 -1227.7 244.55 -1233.6 247.15 -1255.3 258.15 -1267.55 264.35 -1271.9 264.35 -1274.1 264.35 -1284.4 263.2 -1294.7 262 -1301.3 262 -1301.3 261.25 -1302.45 259.8 -1303.65 258.35 -1303.65 254.95 -1303.65 254.05 -1299.6 250.55 -1290.75 242.8 -1290.7 242.75 -1277.8 230.85 -1277.8 223.5 -1277.8 213.9 -1282.65 205.95 -1284.05 203.65 -1287.2 198.8 -1290.05 194.1 -1291.9 189.45
L -1293.05 189.15 -1294.45 188.8
Q -1296.103125 198.3490234375 -1307.95 207.9 -1320.1 217.65 -1329.2 217.65 -1341.5 217.65 -1348 201.3 -1352.7 189.5 -1352.7 176.8 -1352.7 164.8 -1344.4 150.3 -1343.7794921875 149.2169921875 -1343.2 148.2 -1353.85 135.4171875 -1353.85 111 -1353.85 104.2033203125 -1352.4 98.35 -1352.7 97.1998046875 -1352.7 96.05
L -1353.85 95.75 Z"/>

<path fill="url(#Gradient_3)" stroke="none" d="
M -647 273.9
Q -630.75 267.7 -614.7 265.15 -599.45 262.75 -588.65 264.35 -589.05 264.25 -597.35 259.75 -607.75 254.15 -615.9 250.2 -644.25 236.45 -657.7 236.45 -667.15 236.45 -679.55 241.55 -684.55 243.6 -702.75 252.75 -718.15 260.45 -728.65 263.95 -744 269.05 -758.45 269.05 -777 269.05 -785.6 263.6 -790.5 260.5 -795.55 251.6 -800.45 243 -806.55 239.55 -816.35 234.1 -836.85 234.1 -853.75 234.1 -868.25 238.45 -874 240.2 -893 248.05 -908.95 254.65 -922.65 257.65 -942.65 262 -968.75 262 -989.4 262 -995.85 257.7 -1000.5 254.6 -1000.5 245.85 -1000.5 241.05 -999.05 228.05 -997.45 214.2 -995.8 205.9 -1002.95 198.75 -1014.85 194.1 -1029.9 188.25 -1042.5 191.8 -1058.2 196.4 -1067.6 192.85 -1077.75 189 -1077.75 176.5 -1077.75 165.25 -1072.6 153.35 -1066.9 140.05 -1055.85 129 -1028.8 101.8 -979.35 96.05 -980.7 89.1 -991.25 81 -1002.15 72.55 -1011.05 72.55 -1052.85 72.55 -1084.85 83.65 -1122 96.5 -1136.2 121.6
L -1136.2 123.95
Q -1123.8 123.65 -1120.55 123.8 -1114.3 124 -1111.4 125.5 -1108.25 127.15 -1107.05 131.15 -1105.95 134.85 -1105.95 142.75 -1105.95 145.8 -1106.95 153.75 -1108 161.7 -1108 163.9 -1111.7 162.15 -1118.85 160.65 -1125.9 159.2 -1130.35 159.2 -1137.5 159.2 -1144.15 161.75 -1148.25 163.35 -1155.05 167.45 -1162.1 171.6 -1165.65 173.1 -1171.95 175.65 -1178.5 175.65 -1187.95 175.65 -1192.4 171.05 -1197 166.25 -1197 155.65 -1197 153.75 -1191.25 142.15 -1185.55 130.55 -1185.55 128.65 -1191.05 131.6 -1200.1 131.75 -1202.65 131.8 -1207.8 131.8 -1212.4 131.9 -1215.75 132.4 -1217.9978515625 132.7486328125 -1220.15 133.35 -1218.15 126.6826171875 -1218.15 123.95 -1223.1 123.95 -1231.55 122.8 -1240 121.6 -1241.65 121.6 -1245.05 121.6 -1261.65 127.5 -1278.2 133.35 -1278.95 133.35 -1282.5 133.35 -1286.05 126.4 -1290.7 117.25 -1290.7 101.6 -1290.85 95.6 -1290.8 92.3 -1290.75 86.45 -1289.8 81.95 -1289.6423828125 81.18359375 -1289.45 80.4 -1292.0986328125 81.9154296875 -1294.45 83.4 -1325.95 103.3 -1325.95 134.5 -1325.95 139.4 -1321.25 146.45 -1316.55 153.5 -1316.55 155.65 -1316.55 159.35 -1317.7 159.65 -1318.3 159.8 -1318.9 159.2 -1323.1 159.85 -1328.35 158.25 -1334.75 156.35 -1339.9 151.6 -1341.64140625 150.0146484375 -1343.2 148.2 -1343.7794921875 149.2169921875 -1344.4 150.3 -1352.7 164.8 -1352.7 176.8 -1352.7 189.5 -1348 201.3 -1341.5 217.65 -1329.2 217.65 -1320.1 217.65 -1307.95 207.9 -1296.103125 198.3490234375 -1294.45 188.8 -1294.315234375 187.9490234375 -1294.25 187.1 -1294.25 188.55 -1293.05 189.15
L -1291.9 189.45
Q -1290.05 194.1 -1287.2 198.8 -1284.05 203.65 -1282.65 205.95 -1277.8 213.9 -1277.8 223.5 -1277.8 230.85 -1290.7 242.75 -1290.75 242.8 -1299.6 250.55 -1303.65 254.05 -1303.65 254.95 -1303.65 258.35 -1302.45 259.8 -1301.3 261.25 -1301.3 262 -1294.7 262 -1284.4 263.2 -1274.1 264.35 -1271.9 264.35 -1267.55 264.35 -1255.3 258.15 -1233.6 247.15 -1227.7 244.55 -1183.35 224.7 -1137.65 224.7 -1116.25 224.7 -1107.1 227.05 -1117.4 228.15 -1123.15 231.5 -1126.75 233.7 -1130.2 238.3 -1133.8 243.1 -1136.25 244.75 -1140.75 247.7 -1149.15 248.2
L -1149.15 252.6
Q -1134.3 264.35 -1052.4 274.8 -1023.35 278.55 -993.5 281.05 -967.35 283.3 -959.65 283.15
L -962 285.5
Q -966.2 287.05 -981.8 288.35 -989.7 289 -1018.2 290.8 -1079.95 294.6 -1116.25 299.6 -1133.75 301.95 -1156.05 315.5 -1165.75 321.4 -1172.05 327.1 -1178.65 333.05 -1179.4 336.9 -1180.45 341.95 -1182 352.2 -1183.25 360.6 -1184.25 364.1 -1185.75 369.35 -1188.5 371.75 -1191.55 374.5 -1197 374.5 -1206.4 374.5 -1211.8 380.7 -1215.45 384.9 -1218.5 394.35 -1222.1 405.35 -1223.6 407.95 -1227.15 414.15 -1233.45 414.15 -1237.9 414.15 -1262.05 405.6 -1269.3578125 403.0041015625 -1279.45 399.4 -1280.213671875 401.237890625 -1281.05 403.25 -1292.7 431.35 -1293.8 433.75 -1312.85 475.35 -1336.25 482 -1342.4 472.55 -1368.75 470.65 -1377.4 470.05 -1389.15 470.25 -1395.4 470.35 -1404.1 470.55
L -1404.1 468.2
Q -1388.6 452.55 -1377.9 440.55 -1357.4 417.6 -1357.4 408.3 -1357.4 404.85 -1358.55 401.7 -1359.75 398.55 -1359.75 398 -1367.45 400.2 -1376.9 404.6 -1382.25 407.1 -1392.7 412.25 -1412 421.2 -1428.8 421.2 -1443.6 421.2 -1460.55 405.05 -1475.3 391 -1489.2 367.25 -1501.85 345.75 -1509.65 323.7 -1517.35 301.85 -1516.6 290.2 -1515.4 292.55 -1513.75 298.3 -1512.15 303.85 -1510.25 307.4 -1503.95 319.25 -1483.7 332.5 -1470.25 341.25 -1450.65 347.45 -1431.95 353.35 -1419.4 353.35 -1403.1 353.35 -1394.75 348.65 -1385.6 343.4 -1385.6 332.2 -1385.6 316.3 -1397.2 304.65 -1397.6 304.25 -1405.15 297.6 -1408.8 294.4 -1408.8 292.55 -1408.8 291.6 -1402.9 284.4 -1397.05 277.2 -1397.05 274.95 -1397.05 272.75 -1393.05 266.25 -1387.45 257.55 -1384.25 252.25 -1371.5 231.1 -1371.5 217.65 -1371.5 188.25 -1385.75 173.2 -1399 159.2 -1422.9 159.2 -1428.05 159.2 -1448.6 167.45 -1464.2958984375 173.6978515625 -1471 175.15 -1471.4697265625 175.417578125 -1471.95 175.65
L -1474.15 175.65
Q -1472.9623046875 175.621875 -1471 175.15 -1458.959375 169.317578125 -1449.1 163.45 -1439.65 157.45 -1436.35 155.45 -1431 152.25 -1426.75 151.1 -1421.8 149.8 -1413.5 149.8 -1410.55 149.8 -1400.7 152.15 -1390.85 154.5 -1387.95 154.5 -1376.9 154.5 -1371.75 147.55 -1367.9 142.4 -1366.2 130.95 -1364.75 117.45 -1363.35 110.9 -1360.85 99.55 -1355.05 93.7 -1355.05 95.15 -1353.85 95.75
L -1352.7 96.05
Q -1352.7 97.1998046875 -1352.4 98.35 -1350.888671875 92.1453125 -1347.75 87 -1342.8 78.9 -1332.65 71.8 -1330.75546875 70.4466796875 -1316.8 62.05
L -1317.45 60.85
Q -1332.75 70.2 -1343.3 70.2 -1360.65 70.2 -1365.8 61.45 -1367.75 58.15 -1368.7 52.45 -1369.5 45.65 -1370.1 42.15 -1372.2 29 -1380.85 22.85 -1393.25 14.1 -1422.9 14.1 -1444.9 14.1 -1468.35 27.95 -1489.95 40.75 -1507.9 62.15 -1525.5 83.15 -1534 105.65 -1542.9 129.3 -1538.95 147.45 -1535.25 170.05 -1554.6 198 -1560.95 207.1 -1568.75 215.3 -1574.85 221.75 -1576.25 222.35 -1576.25 220.15 -1577.4 212.8 -1578.6 205.45 -1578.6 202.35 -1578.6 195.6 -1577.35 192.55
L -1577.7 192.25
Q -1584.543359375 199.175 -1592.4 219.5 -1602.1 244.6 -1602.1 259.65 -1602.1 264.2 -1602.25 270.75 -1602.2 275.8 -1600.95 280.05 -1599.5595703125 284.9033203125 -1594.8 293.9 -1598.794140625 302.825390625 -1601.35 311 -1606.5 327.35 -1606.5 343.95 -1606.5 357.35 -1598.45 369.3 -1593.75 376.3 -1581 388.8 -1568.55 400.9 -1564 408.1 -1556.55 419.8 -1557.45 432.95 -1558.6 449 -1549.5 474.2 -1540.38828125 499.5052734375 -1526.5 517.5 -1527.9431640625 513.5802734375 -1529.4 509.4 -1533.95 496.1 -1533.95 485.55 -1533.95 469.45 -1525.25 456 -1520.8 449.15 -1515.45 444.7 -1510.7 447.05 -1506.5 456.45 -1504.05 462.05 -1498.25 476 -1492.1 488.65 -1483.4 496.85 -1472 507.55 -1454.65 512.55 -1425.6 520.95 -1411.7 541.7 -1402.8 555 -1398.5 578.1
L -1396.15 578.1
Q -1394.25 548.6 -1387.35 530.35 -1379.7 510.2 -1367.95 510.2 -1366.2 510.2 -1347.05 519.6 -1327.9 529 -1322.45 529 -1319.1 529 -1307.55 524.6 -1292.15 518.45 -1283.2 514.9 -1247.25 500.8 -1232.25 500.8 -1227.2 500.8 -1216.55 506.4 -1205.55 512.15 -1201.7 517.25 -1203.95 511.15 -1209.8 506.05 -1213.25 503.1 -1220.8 497.8 -1227.4 492.75 -1230.45 487.55 -1234.6 480.6 -1234.6 470.55 -1234.6 465.7724609375 -1232.05 456.95 -1224.8021484375 451.577734375 -1218.15 449 -1213 447 -1208.45 446.8 -1204.65 447.05 -1204.05 447.05 -1192.7 447.05 -1184.6 452.05 -1178.05 456.05 -1172.1 464.45 -1171.4 465.45 -1162.15 480.4 -1156.5251953125 489.5916015625 -1151.3 495.1
L -1150.05 494
Q -1152.8740234375 490.96484375 -1153.7 488.75 -1155 485.1 -1155 474.95 -1155 464.55 -1151.15 452.6 -1147.4 440.75 -1140.9 430.55 -1134.1 419.9 -1126 413.8 -1117.15 407.1 -1108.3 407.1 -1106 407.1 -1103.95 409.9 -1099.75 415.65 -1096.55 418.85
L -1091.85 418.85
Q -1091.95 400.35 -1080.85 383.2 -1070.8 367.6 -1052.85 355.1 -1036.05 343.45 -1015.9 336.75 -996.05 330.15 -978.15 330.15 -967.75 330.15 -944.05 340.6 -930.5 346.55 -927.4 347.75 -919.05 351 -915 351 -907.7 351 -902.9 344.45 -897.55 335.25 -893.2 330 -885.4 320.55 -872.25 315.55 -854.9 309 -826.3 309 -809.8 309 -802.45 310.15 -793.3 311.6 -789.2 315.75 -785.05 320.05 -784.25 329.1 -783.5 337 -785.15 353.35
L -785.15 365.1
Q -780.05 360 -765.4 356.65 -748.3 353.35 -740.8 351 -730.75 347.85 -723.3 339.7 -720.15 336.25 -705.55 316.05 -686.1 288.9 -647 273.9
M -867.7 271.85
Q -870.3162109375 272.4619140625 -873.35 273.7 -870.1388671875 269.1685546875 -866.15 263.85 -852.6 245.85 -848.35 245.85 -840.5 245.85 -833.15 250.6 -821.3 258.25 -821.3 274.95 -821.3 278.75 -821.65 279.2 -821.95 279.65 -823.95 280.8
L -835.4 280.8
Q -841.6 277 -850.9 274 -859 271.4 -862.45 271.4 -865.75 271.4 -867.7 271.85 Z"/>

<path fill="url(#Gradient_4)" stroke="none" d="
M -873.35 273.7
Q -870.3162109375 272.4619140625 -867.7 271.85 -865.75 271.4 -862.45 271.4 -859 271.4 -850.9 274 -841.6 277 -835.4 280.8
L -823.95 280.8
Q -821.95 279.65 -821.65 279.2 -821.3 278.75 -821.3 274.95 -821.3 258.25 -833.15 250.6 -840.5 245.85 -848.35 245.85 -852.6 245.85 -866.15 263.85 -870.1388671875 269.1685546875 -873.35 273.7 Z"/>

<path fill="url(#Gradient_5)" stroke="none" d="
M -611.8 79.5
Q -624.95 60.8 -629.5 60.8 -638.25 60.8 -658.35 67.25 -676.05 72.95 -684.4 77.25
L -705.55 77.25
Q -702.25 71.25 -693.7 62.75 -685.15 54.15 -682.05 53.75 -682.05 53.25 -681.8 52.4 -681.3 50.7 -680 49.05 -683.95 46.9 -692.7 42.2 -700.75 38.1 -708.4 35.4 -729.2 28.2 -757.25 28.2 -771.4 28.2 -789.5 36.45 -800.7 41.5 -802.1 42.1 -808.7 44.65 -813.35 44.65 -813.35 45.65 -814.5 46.75 -815.7 47.85 -815.7 49.05 -807.75 50.7 -797.15 55.85 -793.5830078125 57.68359375 -790.5 59.25 -799.14375 65.469921875 -809.1 74.75 -821.7 86.5 -832.3 99.7 -843 113.1 -848.35 123.95
L -847.2 125.25
Q -797.76484375 81.95 -765.2 81.95 -730.55 81.95 -717.35 105.2 -710.25 117.7 -710.25 135.7 -710.25 138.8 -713.25 144.7 -716.8 151.6 -722 156.85
L -720.85 158.4
Q -712.45625 152.5732421875 -708.1 149.95 -700 145.1 -692.65 145.1 -681.55 145.1 -672.9 156.85
L -671.95 157
Q -668.7091796875 139.923046875 -659.4 129.2 -644.65 112.2 -615.7 112.2 -603.35 112.2 -600.45 112.8 -592.7 114.45 -586.3 121.6
L -584.7 120.5
Q -610.51796875 81.2751953125 -611.8 79.5 Z"/>

<path fill="url(#Gradient_6)" stroke="none" d="
M -283.15 378
Q -283.1748046875 377.975 -283.2 377.95
L -284.35 379.2 -283.15 378 Z"/>

<path fill="url(#Gradient_7)" stroke="none" d="
M -302.15 370.05
Q -290.2 376.45 -284.35 379.2
L -283.2 377.95
Q -300.8296875 360.208984375 -343.15 347.6 -360 342.55 -377 339.6 -392.3 336.9 -401.25 336.9 -420.25 336.9 -441.8 342.65 -465.1 348.9 -494.95 362.75 -477.2 361.8 -468.25 373 -462.05 380.75 -462.05 389.8 -462.05 394.35 -465.15 404.4 -468.65 415.7 -473.8 426 -487.8 454.1 -503.15 454.1 -505.55 454.1 -507.15 451.2 -510.15 445.7 -511.05 444.65 -519.05 434.7 -544 432.95 -548 432.75 -556.7 433.8 -565.9 434.95 -569.7 434.9 -575.7662109375 434.81484375 -579.25 432.3
L -579.25 435.3
Q -583.35 443.75 -588.3 451.6 -590.5587890625 455.1810546875 -592.5 457.7 -569.7642578125 466.8669921875 -562.05 472.15 -558.95 474.3 -557.55 476.3 -557.5 476.35 -555.75 479.65 -546.05 496.95 -545.2 498.25 -539.05 507.85 -534.9 507.85 -528.55 507.85 -525.15 503.8 -521.65 498.15 -519 494.95 -508.35 482 -473.8 482 -470.1 482 -463.5 480.85
L -457.65 479.65 -455.3 479.65
Q -454.9 476.55 -455.85 474.05 -456.2 473.15 -458.2 469.6 -462.05 462.9 -462.05 452.95 -462.05 402.65 -396.6 379.3 -374.8 371.5 -348.05 367.7 -330.05 365.1 -318.4 365.1 -312.4 365.1 -302.15 370.05 Z"/>

<path fill="url(#Gradient_8)" stroke="none" d="
M -244.65 175.35
Q -258.95 162.85 -273.55 157.6 -288.65 152.15 -310.2 152.15 -333.75 152.15 -366.9 161.8 -398.2 170.9 -410.65 180.05 -410.65 181.25 -411.8 182.4 -413 183.6 -413 184.75 -378.05 185.85 -378.05 207.05 -378.05 214.85 -396.9 236.5 -404.2 244.85 -410.75 251.05 -417.3 257.3 -418.85 257.3 -420 257.3 -424.8 252.6 -429.55 247.9 -431.8 247.9 -432 247.9 -437 253.4 -443.85 260.25 -452.5 266.25 -460.83828125 272.08984375 -470.25 276.75 -457.55859375 286.337890625 -435 289.25 -426.8 290.3 -418.25 290.35 -411.15 290.2 -410.95 290.2 -402.55 290.2 -393.05 279.25 -386.85 272 -376.65 255.1 -365.45 236.55 -361.2 230.95 -352.8 220 -346.3 220 -342.4 220 -339.85 221.45 -338.5 222.25 -336.05 224.7 -336.05 212.2 -325.8 201 -316.6 191.05 -301.05 183.85 -286.5 177.1 -270.95 174.75 -255.3 172.4 -244.65 175.35 Z"/>

<path fill="url(#Gradient_9)" stroke="none" d="
M -107 190.05
L -107.6 189.75
Q -112 195.95 -117.5 206.3 -124.05 218.65 -126.55 222.7 -132.25 231.85 -139.2 238.8
L -139.15 239.05
Q -132.4634765625 239.7232421875 -130.5 240.15 -125.75 241.1 -123.35 243.4 -118.35 248.1 -118.35 266.7 -118.35 280.7 -122.85 287.85 -127.25 294.9 -135.7 294.9 -171.2 294.9 -196.25 270.4 -207.35 258.1 -211.65 253.5 -218.8 245.85 -223.5 245.85 -228.7 245.85 -259.6 251.6 -290.55 257.3 -300.8 257.3
L -300.95 257.85
Q -265.2232421875 267.2775390625 -257.85 269.8 -231.8 278.65 -221.15 290.2 -213 299.15 -210.3 309.15 -209.3 312.85 -208.5 323.9 -207.95 330.95 -204.85 333.5 -200.65 336.9 -188.55 336.9 -180.7 336.9 -170.9 334 -164.9 332.25 -153.2 327.65 -141.4 323 -135.65 321.3 -125.95 318.4 -118.35 318.4 -115.55 318.4 -110.55 319.45 -105.55 320.45 -101.9 320.45
L -99.55 320.45
Q -101.5 324.35 -102.8 328.85 -104.25 333.95 -104.25 338.1 -104.25 341.85 -103.15 344.75 -102.75 345.8 -100.7 349.65 -97.2 356.35 -97.2 366.3 -97.2 374.15 -104.35 383.05 -106.1 385.25 -119.95 399.45 -130.45 410.2 -135.25 418.85 -142.05 431.1 -141.55 444.7
L -140.7 445.2
Q -133.249609375 431.1728515625 -106.45 413.15 -92.55 404.2 -87.45 400.8 -78.95 395.2 -78.4 393.3 -72.2 371.55 -54 359.35 -42.4 351.55 -22.3 346.3 -25.15 344.15 -31.75 342.5 -35.45 341.55 -43.3 339.7 -57.25 335.65 -57.25 325.15 -57.25 318.85 -52.55 312.4 -47.85 305.95 -47.85 299.6 -47.85 285.05 -61.65 261.85 -66.05 254.45 -71.3 247.15 -75.05 241.95 -76.05 240.85 -78 243.75 -86.95 252.3 -89.4142578125 254.636328125 -91.65 256.5 -100.2599609375 250.347265625 -105.15 240.3 -111.3 227.75 -111.3 209.4 -111.3 198.8376953125 -107 190.05 Z"/>
</g>
</defs>

<g transform="matrix( -0.6658172607421875, 0, 0, 0.6658172607421875, 520.45,355.5) ">
<g transform="matrix( 1, 0, 0, 1, -160.55,-288.2) ">
<g transform="matrix( 0, 0.18829345703125, 0.4259185791015625, 0, 43.45,530.5) ">
<g transform="matrix( 1, 0, 0, 1, 0,0) ">
<use xlink:href="#Blaze_Blaze_fire_stream_3_Layer0_0_FILL"/>
</g>
</g>

<g transform="matrix( 0, 0.1670379638671875, -0.3919677734375, 0, 375.45,527.1) ">
<g transform="matrix( 1, 0, 0, 1, 0,0) ">
<use xlink:href="#Blaze_Blaze_fire_stream_3_Layer0_0_FILL"/>
</g>
</g>

<g transform="matrix( 0, 0.219879150390625, 0.2901153564453125, 0, 135.95,530.05) ">
<g transform="matrix( 1, 0, 0, 1, 0,0) ">
<use xlink:href="#Blaze_Blaze_fire_stream_3_Layer0_0_FILL"/>
</g>
</g>
</g>
</g>
</svg>
