
<svg xmlns="http://www.w3.org/2000/svg" version="1.1" xmlns:xlink="http://www.w3.org/1999/xlink" preserveAspectRatio="none" x="0px" y="0px" width="1000px" height="1000px" viewBox="0 0 1000 1000">
<defs>
<linearGradient id="Gradient_1" gradientUnits="userSpaceOnUse" x1="107.63750000000002" y1="328.63750000000005" x2="155.4625" y2="18.56249999999997" spreadMethod="pad">
<stop  offset="18.823529411764707%" stop-color="#FFFFFF"/>

<stop  offset="38.03921568627451%" stop-color="#FFFF99"/>

<stop  offset="90.19607843137256%" stop-color="#FF6600"/>
</linearGradient>

<linearGradient id="Gradient_2" gradientUnits="userSpaceOnUse" x1="109.14999999999999" y1="360.1125" x2="152.75" y2="40.38749999999999" spreadMethod="pad">
<stop  offset="18.823529411764707%" stop-color="#FFFFFF"/>

<stop  offset="38.03921568627451%" stop-color="#FFFF99"/>

<stop  offset="90.19607843137256%" stop-color="#FF6600"/>
</linearGradient>

<linearGradient id="Gradient_3" gradientUnits="userSpaceOnUse" x1="101.77499999999999" y1="336.26250000000005" x2="155.125" y2="74.3375" spreadMethod="pad">
<stop  offset="18.823529411764707%" stop-color="#FFFFFF"/>

<stop  offset="38.03921568627451%" stop-color="#FFFF99"/>

<stop  offset="90.19607843137256%" stop-color="#FF6600"/>
</linearGradient>

<g id="Duplicate_Items_Folder_Symbol_17_1_Layer0_0_FILL">
<path fill="url(#Gradient_1)" stroke="none" d="
M 166.3 -20.8
L 166.3 -21.95
Q 153.8 -12.95 148.7 -9.25 140.15 -3.05 136 1.1 125.6 11.35 125.6 26.7 125.6 35.75 132.7 38.4 135.9 39.6 148.25 40.2 159.05 40.7 163.8 44 170.9 48.85 170.9 61.65 170.9 71.2 161.5 82.6 151.85 94.3 143 94.3 145.9 85.5 138.35 70.45 135.05 63.9 131.05 59.65 126.925390625 55.1373046875 123.35 54.6 124.226953125 59.4044921875 124.85 64.3 125.6 69.85 125.6 72 125.6017578125 85.6474609375 112.2 104.9 98.7947265625 124.2076171875 91.45 123.3 84.1552734375 122.3923828125 85.25 116.6 86.3482421875 110.8025390625 83.65 107.05
L 84.8 109.35 73.15 109.35
Q 63.65 111.85 52.8 123.9 42.8 135.05 42.8 140.3 42.8 142.3 48.05 153 53.3 163.65 53.3 166.45 53.3 178.05 44.4 184.9 39.85 188.45 24.9 194.6 11.15 200.25 5.35 205.95 -3.55 214.6 -3.55 229.25 -3.55 247.3 1.25 266.15 7 288.7 18.4 306.25 47.8 351.6 105.8 351.6 121.4 351.6 144.85 340.7 157.5 334.8 177.95 322.55 196.1 311.8 201.55 302.15 207.1 292.25 207.1 270.1 207.1 248.95 213.45 236.25 217.65 227.8 227.45 219.5 238.3 210.3 241.45 205.5 247.8 195.8 247.8 179.8 247.8 173.6 247.45 172.6 246.5 169.7 242.05 169.9
L 242.05 160.7
Q 243.85 155.1 250.4 147.55 258.1 138.65 264.05 138.55 259.5 136.15 254.85 132.65 250.15 128.95 247.9 127.4 240.4 122.15 230.25 122.15 215.85 122.15 211.7 128.1 209.4 131.4 209.4 141.3 209.4 148 208.25 150.25 207.05 152.5 203.55 152.5 201.6 152.5 200.1 149 198.95 146.3 198.95 144.9 198.95 139.15 201.5 132.2 202.6 129.1 207.05 119.55 215.15 102.15 215.15 88.95 215.15 79.95 207.85 65.75 199.936328125 51.99765625 197.9 47.95 198.2896484375 49.9974609375 199.55 52.95 201.25 57.05 201.25 60.35 201.25 67.4 200.1 71 198.4 67.45 191.4 56.85 182.35 43 178.5 36.65 161.7 8.85 161.7 -5.75 161.7 -8.3 163.2 -13.6 164.8 -19.3 166.3 -20.8 Z"/>
</g>

<g id="Symbol_151_1_Layer1_0_FILL">
<path fill="#000000" stroke="none" d="
M 172.1 28.3
Q 174.4 17.75 177.05 5.7 177.25 4.45 164.05 1.1 150.9 -2.25 149.1 -1.45 142.05 3.45 134.2 8.8 118.35 19.55 110.55 23.15 108.55 22.95 106.55 22.85 105.45 22.85 73.2 50.8 40.5 79.15 40.25 81.9 40 84.6 43.6 87.3 45.35 88.65 47.2 89.45 38.05 96.4 22.65 109.6 0.8 128.45 -6 137.4 -6.6 138.15 -3.65 141.8 -0.9 145.2 0.5 146.05 9.3 151.4 19.45 151.4 44.7 153.05 68.75 146.35 68.7 147 67.8 152.45 67 158 67.1 160 67.15 161 70.95 169.9 75.1 179.55 77.55 183.3 78.7 185.1 83.75 188.85 89.15 192.9 91.6 193.35 94.35 193.7 105.15 192.85 116.55 191.9 118.1 190.8 127.35 184.05 149 164.8 168.85 147.15 170 145.55 170.8 144.35 172.05 141.25 173.2 138.4 173.25 137.8 173.45 133 171.45 118.9 169.5 104.9 168.05 100.45 166.55 95.8 161.5 95.65 161.6 95.2 164.1 91.7 166.75 88.05 166.8 87.9 167.2 87.15 166.6 74.8 165.95 61.2 166.6 56.5 167.6 48.95 172.1 28.3
M 162.8 18.95
Q 166.45 12.5 167.3 11.3
L 159.75 46 157.55 28.4
Q 159.05 25.45 162.8 18.95
M 150.8 24.15
L 130.05 24.35 120.4 24.4
Q 123.5 22.55 136.95 13.85 149.6 5.9 153 5.05
L 164.8 7.05 153.8 25.35 150.8 24.15
M 150 30.95
L 152.85 27.9 157.65 80.95
Q 155.9 84.25 153.6 88.05 149.05 95.65 146 98.75
L 142.45 103.4
Q 150 101.65 154.7 95.35 154.55 96.05 155.25 98.75 156.15 102.15 157.75 103.15
L 160.85 108.3
Q 162.65 116.3 164.45 124.35 166.5 133.3 161.35 140.9 158 145.85 146.75 158.3 135.3 170.95 131.1 174.2
L 111.25 188.1
Q 101.05 189 99.1 188.2 97.65 161.7 94.6 149.85 97.8 150.55 106.75 151.45 118.4 152.6 123.4 151.9 125.2 151.6 131.4 147.35 139.3 141.95 141.05 137.1 145.2 125.6 142.95 113.65
L 139.65 106.25
Q 138.55 106.1 132.25 107.8 125.2 109.75 122.2 111.65 112.2 118.15 103.25 125.75
L 92.75 134.35 91.95 132.55 91.45 131.75 92.25 130.35
Q 94.1 127.15 94.7 116.7 95.3 105.9 93.4 102.65 91.5 99.35 81 92.85 69.55 85.75 64.05 86.2
L 63.3 87.2
Q 69.95 89.65 76.6 92.15 88.7 96.7 90.95 109.65 91 111.3 91.1 112.95 91.55 122 86.3 129.25 71.6 140.4 63.95 142.75 59.05 144.2 43 144.4 27.4 144.6 21.8 143.55
L 3.35 138.85 4.95 136.3
Q 7.35 133.3 50.85 86.95
L 49.8 83.8
Q 94.95 83.2 102.3 80.65
L 150 30.95
M 145.8 28.35
L 149.45 28.15
Q 107.85 68.7 104.5 72.15 97.75 79.1 88.1 78.75 84.1 79.2 76 79.85 64.8 80.7 60.3 80.6
L 52.3 80.75
Q 55.35 77.7 82.5 54.55 110.6 30.55 112.2 30.1
L 145.8 28.35
M 76.5 164.95
Q 73.75 157.35 74.45 149.1 74.8 149.3 75.2 149.5 76.85 150.55 78.5 149.35
L 93 149.65
Q 93 150 93.6 167 94 184.45 92.95 187.2
L 90.65 186.8 85.6 184.75
Q 80.2 175.15 76.5 164.95 Z"/>

<path fill="#333333" stroke="none" d="
M 93.6 167
Q 93 150 93 149.65
L 78.5 149.35 90.65 186.8 92.95 187.2
Q 94 184.45 93.6 167
M 88.1 78.75
L 145.8 28.35 112.2 30.1 60.3 80.6
Q 64.8 80.7 76 79.85 84.1 79.2 88.1 78.75
M 99.1 188.2
Q 101.05 189 111.25 188.1 113.75 183.65 118.3 169.25 121.7 158.5 123.4 151.9 118.4 152.6 106.75 151.45 97.8 150.55 94.6 149.85 97.65 161.7 99.1 188.2
M 63.3 87.2
L 64.05 86.2
Q 69.55 85.75 81 92.85 91.5 99.35 93.4 102.65 95.3 105.9 94.7 116.7 94.1 127.15 92.25 130.35
L 91.95 132.55 92.75 134.35 103.25 125.75 103.15 124.35 102.3 80.65
Q 94.95 83.2 49.8 83.8
L 50.85 86.95
Q 7.35 133.3 4.95 136.3 15.5 134.55 26.1 132.85 30.25 132.3 60.05 121.1 90.35 109.8 90.95 109.65 88.7 96.7 76.6 92.15 69.95 89.65 63.3 87.2
M 155.25 98.75
Q 154.55 96.05 154.7 95.35 150 101.65 142.45 103.4
L 146 98.75 139.65 106.25 142.95 113.65 157.75 103.15
Q 156.15 102.15 155.25 98.75
M 130.05 24.35
L 150.8 24.15 164.8 7.05 153 5.05 130.05 24.35 Z"/>

<path fill="#666666" stroke="none" d="
M 75.2 149.5
Q 74.8 149.3 74.45 149.1
L 85.6 184.75 90.65 186.8 78.5 149.35
Q 76.85 150.55 75.2 149.5
M 112.2 30.1
Q 110.6 30.55 82.5 54.55 55.35 77.7 52.3 80.75
L 60.3 80.6 112.2 30.1
M 149.45 28.15
L 145.8 28.35 88.1 78.75
Q 97.75 79.1 104.5 72.15 107.85 68.7 149.45 28.15
M 91.95 132.55
L 92.25 130.35 91.45 131.75 91.95 132.55
M 160.85 108.3
L 157.75 103.15 142.95 113.65
Q 145.2 125.6 141.05 137.1 139.3 141.95 131.4 147.35 125.2 151.6 123.4 151.9 121.7 158.5 118.3 169.25 113.75 183.65 111.25 188.1
L 131.1 174.2
Q 133.05 169.65 146.7 139.4 160.1 109.75 160.85 108.3
M 26.1 132.85
Q 15.5 134.55 4.95 136.3
L 3.35 138.85 21.8 143.55
Q 33.35 140 44.7 136.25 66.3 128.95 86.8 118.7 86.95 120.35 86.95 123.1 86.95 127.4 86.3 129.25 91.55 122 91.1 112.95 91 111.3 90.95 109.65 90.35 109.8 60.05 121.1 30.25 132.3 26.1 132.85
M 128.95 97.65
Q 150.75 74.9 150.8 74.7 151.3 67.05 150 30.95
L 102.3 80.65 103.15 124.35
Q 107.25 120.25 128.95 97.65
M 150.8 24.15
L 153.8 25.35 164.8 7.05 150.8 24.15
M 130.05 24.35
L 153 5.05
Q 149.6 5.9 136.95 13.85 123.5 22.55 120.4 24.4
L 130.05 24.35
M 167.3 11.3
Q 166.45 12.5 162.8 18.95 159.05 25.45 157.55 28.4
L 159.75 46 167.3 11.3 Z"/>

<path fill="#999999" stroke="none" d="
M 74.45 149.1
Q 73.75 157.35 76.5 164.95 80.2 175.15 85.6 184.75
L 74.45 149.1
M 160.85 108.3
Q 160.1 109.75 146.7 139.4 133.05 169.65 131.1 174.2 135.3 170.95 146.75 158.3 158 145.85 161.35 140.9 166.5 133.3 164.45 124.35 162.65 116.3 160.85 108.3
M 43 144.4
Q 59.05 144.2 63.95 142.75 71.6 140.4 86.3 129.25 86.95 127.4 86.95 123.1 86.95 120.35 86.8 118.7 66.3 128.95 44.7 136.25 33.35 140 21.8 143.55 27.4 144.6 43 144.4
M 152.85 27.9
L 150 30.95
Q 151.3 67.05 150.8 74.7 150.75 74.9 128.95 97.65 107.25 120.25 103.15 124.35
L 103.25 125.75
Q 112.2 118.15 122.2 111.65 125.2 109.75 132.25 107.8 138.55 106.1 139.65 106.25
L 146 98.75
Q 149.05 95.65 153.6 88.05 155.9 84.25 157.65 80.95
L 152.85 27.9 Z"/>
</g>

<g id="Duplicate_Items_Folder_Symbol_17_4_Layer0_0_FILL">
<path fill="url(#Gradient_2)" stroke="none" d="
M 29.35 154.1
L 29.25 154.35
Q 29.633984375 154.8134765625 29.9 155.6
L 30.95 155.35
Q 30.1123046875 154.7166015625 29.35 154.1 Z"/>

<path fill="url(#Gradient_3)" stroke="none" d="
M 192.95 48.7
Q 186.8 44.2 179.55 44.2 165.05 44.2 158.05 58.25
L 157.75 59
Q 157.72578125 58.9849609375 157.7 58.95 152.2412109375 70.4798828125 153.55 85.7 150.25 81.45 148.45 76.25 145.778515625 68.6107421875 145.6 57.6 127.3890625 58.896484375 114.9 72.2 109.8 77.65 106.75 84 104.1 89.5 104.1 92.95 104.1 97.95 106.6 102.85 108.1 105.8 112.15 111.1 116.15 116.4 117.65 119.25 120.15 124.1 120.15 129.05 120.15 140.2 109.55 145.8 101.85 149.85 92.1 149.85 89.9 149.85 74.05 139.1 58.9 128.8 57.35 127.05 50.9 119.9 46.25 108.45 43.1 100.6 39.95 88.25 35.15 95.7 27 107.65 21.25 117.55 21.25 127.05 21.25 134.35 22.8 138.25 24 141.15 27 143.85 32 148.3 33 149.4 36.85 153.7 39.95 160.45
L 39.95 161.8
Q 36.3 159.35 30.95 155.35
L 29.9 155.6
Q 30.7 157.7953125 30.7 162.5 30.7 167.65 26.1 171.5 23.35 173.85 16.05 178.35 9.3 183.1 5.95 188.8 1.35 196.65 1.35 208.55 1.35 214.8 2.8 220.15 3.55 222.85 6 229 10.6 240.65 10.6 253.25 10.6 254.95 9.25 269.65 7.9 284.35 7.9 286 7.9 287.2802734375 8.35 290.25 8.46015625 291.00078125 8.6 291.85
L 7.65 291.15
Q 6.3111328125 293.030078125 5.05 294.85 7.5025390625 302.36328125 11.8 310.35 18.2 322.15 26.9 331.4 49.7 355.55 81.3 355.55 96.4 355.55 113.25 347.45 129.4 339.75 154.9 320.75 176.15 305 197.85 300.45 208 298.3 210.85 297.15 217 294.65 221.7 288.7 228.75 279.85 231.05 264.95 232.05 258.4 232.8 237.95 233.45 221.4 236.05 213.3 239.85 201.45 249.75 196.55 249 196.55 248.7 195.9
L 248.55 195.2
Q 247.3 195.2 244.75 194.55 242.2 193.85 240.45 193.85 238.85 193.85 235.35 194.55 231.9 195.2 229.8 195.2
L 229.8 191.15
Q 232.75 189.25 240.45 184.55 247.65 180.05 252.3 176.3 265.95 165.45 265.95 155.75 265.95 146.9 256.55 139.05 246.95 131.1 235.7 131.1 233.85 131.1 224.6 134.05 221.3154296875 135.09375 218.65 136.1 219.68359375 138.11796875 221.25 140.1 221.35 140.2 225.75 145.1 231.15 151.15 231.15 157.75 231.15 163.65 217.65 177.85 212.85 182.95 208.05 187.2 203.6 191.15 203 191.15 191.35 191.15 185.6 172.4 181.7 159.85 181.7 146.95 181.7 138.8 184.65 129.3 187.8 119.3 193.3 110.85 206.55 90.55 225.75 89.6 219.95 83.95 213.5 74.75 206.7 64.55 203.4 60 197.8 52.3 192.95 48.7 Z"/>
</g>
</defs>

<g transform="matrix( -0.6658172607421875, 0, 0, 0.6658172607421875, 520.45,355.5) ">
<g transform="matrix( 1, 0, 0, 1, -160.55,-288.2) ">
<g transform="matrix( 1, 0, 0, 1, 5.45,-72.4) "/>

<g transform="matrix( -0.639251708984375, 0, 0, 0.90972900390625, 355.6,33.3) ">
<g transform="matrix( 1, 0, 0, 1, 82.05,173.9) ">
<g transform="matrix( 1.313751220703125, 0, 0, 1.2186737060546875, -34.6,-70.25) ">
<g transform="matrix( 1, 0, 0, 1, 0,0) ">
<use xlink:href="#Duplicate_Items_Folder_Symbol_17_1_Layer0_0_FILL"/>
</g>
</g>
</g>
</g>

<g transform="matrix( 0.962310791015625, 0.271881103515625, -0.271881103515625, 0.962310791015625, 142.55,139.9) ">
<g transform="matrix( 1, 0, 0, 1, 0,0) ">
<use xlink:href="#Symbol_151_1_Layer1_0_FILL"/>
</g>
</g>

<g transform="matrix( 1.007965087890625, 0, 0, 1.089935302734375, 10.1,-17.65) ">
<g transform="matrix( -0.7543792724609375, 0, 0, 0.7543792724609375, 288.95,161.8) ">
<g transform="matrix( 1.08441162109375, 0, 0, 0.7657928466796875, -9.25,75.4) ">
<g transform="matrix( 1, 0, 0, 1, 0,0) ">
<use xlink:href="#Duplicate_Items_Folder_Symbol_17_4_Layer0_0_FILL"/>
</g>
</g>
</g>
</g>

<g transform="matrix( -0.638885498046875, 0, 0, 0.9207611083984375, 419.7,5.85) "/>

<g transform="matrix( 0.638885498046875, 0, 0, 0.9207611083984375, 27.95,7.15) "/>
</g>
</g>
</svg>
