
<svg xmlns="http://www.w3.org/2000/svg" version="1.1" xmlns:xlink="http://www.w3.org/1999/xlink" preserveAspectRatio="none" x="0px" y="0px" width="1000px" height="1000px" viewBox="0 0 1000 1000">
<defs>
<linearGradient id="Gradient_1" gradientUnits="userSpaceOnUse" x1="-1580.6375" y1="140.2875" x2="-1155.9624999999999" y2="467.2125" spreadMethod="pad">
<stop  offset="0%" stop-color="#FF6600"/>

<stop  offset="50.19607843137255%" stop-color="#FFCC00"/>

<stop  offset="100%" stop-color="#FFFFFF"/>
</linearGradient>

<linearGradient id="Gradient_2" gradientUnits="userSpaceOnUse" x1="-1395.1" y1="303.5" x2="-1325.6" y2="303.5" spreadMethod="pad">
<stop  offset="0%" stop-color="#FFFF66"/>

<stop  offset="100%" stop-color="#FFFFFF"/>
</linearGradient>

<g id="Blaze_Blaze_fire_stream_5_Layer0_0_FILL">
<path fill="#FF9900" stroke="none" d="
M -1340.2 84.95
Q -1344.7771484375 86.7546875 -1350.05 88.8 -1360.5 93 -1365.3 95.85 -1371.15 99.35 -1373.65 103.5 -1376.2 107.8 -1376.2 114.55 -1376.2 120.5 -1365.35 131.8 -1365.25 131.9 -1357.35 139.75 -1353.4 143.7 -1352.7 145.1 -1358.3 150.7 -1364.9 155.2 -1368.4 157.6 -1373.75 161.2 -1377.55 164.2 -1379.1 168.15 -1380.9 172.75 -1380.9 181.2 -1380.9 183.4 -1381.05 188.9 -1381.05 194.05 -1380.3 197.75 -1378.2 208.4 -1369.15 212.95 -1376.15 195.25 -1351.25 177.1 -1350.95 176.85 -1333.15 165.15 -1324.5 159.5 -1324.5 156.85 -1324.5 154.75 -1328.15 148.95 -1330.35 145.45 -1336.25 136.4 -1348 117.4 -1348 104.25 -1348 96.8205078125 -1340.2 84.95
M -795.75 409.45
Q -801.2 403.8 -806.35 401.8 -810.8 400.05 -818.05 400.05 -824.5369140625 400.05 -841.25 405.7 -852.689453125 418.1453125 -856.6 428.05 -857.1939453125 429.5349609375 -858.3 433.55 -857.0326171875 432.1013671875 -855.45 430.65 -847.8 423.6 -834.5 417.6 -822.75 412.3 -811.7 409.85 -800.8 407.45 -798.1 409.45
L -795.75 409.45
M -1274 529.95
Q -1276.182421875 532.2486328125 -1279.4 534.6 -1283.35 537.55 -1284.6 539 -1289.55 544.45 -1289.55 559.3 -1289.55 570.2 -1283.95 577.55 -1281.5 580.85 -1273.1 587.5 -1274.75 585.85 -1276.35 577.05 -1277.8 569 -1277.8 564 -1277.8 548.7 -1274.65 542.75 -1273.55 540.7 -1271.6 538.95 -1268.45 536.15 -1268.4 536.05 -1270.1859375 533.7388671875 -1274 529.95
M -1262.15 410.65
Q -1273.118359375 413.78671875 -1276.45 421.1 -1277.85 424.15 -1277.95 428 -1278 430.1 -1277.8 432.95 -1273.15 433.95 -1266.55 427.95 -1263.5173828125 425.133984375 -1262.15 410.65
M -1034.95 233.35
Q -1040 227.05 -1046 227.05 -1056.3 227.05 -1063.35 235.5 -1069.5 242.8 -1069.5 250.55 -1044.75 255.05 -1037.75 256.3 -1027.3 258.25 -1025.15 259.65
L -1025.15 245.85
Q -1029.25 241.75 -1034.95 233.35
M -1235.95 38.5
Q -1243.33671875 40.3658203125 -1243.6 40.3 -1245.45 39.65 -1249.6 39.65 -1262.05 39.65 -1287.15 58.5 -1296.25 65.35 -1303.6 72.1 -1310.4 78.4 -1310.4 79.6 -1310.4 92.4 -1309 104.05 -1307.25 118.95 -1303.65 126.3 -1303.05 126.3 -1302.45 126.6 -1301.3 127.2 -1301.3 128.65 -1297.45 123.4 -1293.95 113.15 -1288.55 97.6 -1288.05 96.35 -1284.2 87.25 -1278.8 82.8 -1272.05 77.25 -1261.35 77.25 -1258.4 77.25 -1256.8 79.6 -1255.15 81.95 -1252.25 81.95 -1243.7 75.5 -1233.6 68.45 -1213.35 54.3 -1202.9 51.4 -1208.2 46.05 -1227.25 40.8 -1231.3482421875 39.66171875 -1235.95 38.5
M -1018.7 26.75
Q -1020.9 21.15 -1034.55 21.15 -1046.4 21.15 -1053.75 29.2 -1059.15 35 -1063.2 46.85 -1065.4 53.3 -1069.1 64.5 -1072.55 72.55 -1077.75 72.55 -1081.35 72.55 -1086.05 67.85 -1090.75 63.15 -1093 63.15 -1094.3 63.15 -1112.1 80.05 -1127.3228515625 94.4994140625 -1131.4 100.7 -1124.6017578125 96.225 -1120.85 93.95 -1112.6 89 -1108 89 -1104.5 89 -1094.6 94.25 -1083.4 100.2 -1081.25 105.45 -1080.55 83.35 -1067.1 70.15 -1056.35 59.6 -1036.25 53.8 -1030.431640625 52.1466796875 -1018 49.75 -1019.8798828125 45.5380859375 -1019.3 39.8 -1018.55 34.9 -1018.3 32.7 -1017.9 28.9 -1018.7 26.75
M -959.5 183.75
Q -957 189.85 -957 192.95 -957 196.2 -968.75 210.6 -980.5 225 -980.5 228.2 -974.1 236.9 -967.7 246.15 -955.2486328125 264.2166015625 -954.95 269.95 -952.8451171875 265.412109375 -950.5 260.05 -939.45 234.9 -936.8 229.3 -928.75 212.65 -921.8 204.4 -913.2 194.15 -904.45 194.15 -903.1 194.15 -898.85 199.45 -892.95 206.8 -891.5 208.25 -878.45 191.8 -871.85 191.8 -865.45 191.8 -851.65 201.15 -838.265625 211.0787109375 -835.55 212.85 -835.852734375 209.508984375 -836.85 203.25 -838.5 193 -838.9 187.75 -840.3 168.05 -830.7 163.9 -837.3 163.9 -848.2 162.75 -859.05 161.55 -861.25 161.55 -869.75 161.55 -881.45 170.7 -887.85 175.7 -890 177.05 -894.7 179.95 -898.55 180.05 -900 178.9 -907.35 172.45 -911.8951171875 169.11015625 -917.35 166.35 -921.5435546875 167.3828125 -926.55 168.6 -955.6 175.65 -962 175.65 -962 177.65 -959.5 183.75
M -436.5 301.95
Q -439.6 301.95 -444.65 301.85 -446.8380859375 301.8759765625 -448.85 302.15 -461.566796875 310.7447265625 -467.35 316.9 -469.95 319.65 -474.85 326.15 -479.25 331.95 -482 334.55 -476.3 330.65 -450.85 323.7 -425.05 316.7 -421.2 318.4
L -407.1 318.4
Q -409 306.15 -419.9 303 -423.7 301.95 -428.95 301.85 -431.85 301.8 -436.5 301.95
M -640.7 70.1
Q -634.6 70.2 -630.65 70.2 -619.35 70.2 -601.95 80.4 -584.75 90.5 -578.1 100.75 -578.1 100 -576.9 97.35 -575.75 94.7 -575.75 91.35 -575.75 64.9 -592.25 54.2 -603.35 47 -622.45 47 -629.2 47 -636.8 54.05 -640.6 57.55 -649.55 68.65 -651.1654296875 70.6537109375 -652.65 72.35 -651.1615234375 71.8158203125 -649.9 71.45 -645.55 70.2 -640.7 70.1
M -311.05 116.95
Q -313.5724609375 116.5185546875 -316.35 116 -324.3 114.55 -327.5 114.55 -332.4 114.55 -342 119.25 -346.8 121.6 -351 123.95
L -351 126.3
Q -345.25 126.3 -328.1 130.25 -312.2 133.95 -309 133.35 -308.4 133.65 -307.8 133.2 -306.65 132.3 -306.65 128.65 -306.65 122.72734375 -311.05 116.95
M -721.3 -0.45
Q -721.072265625 -0.4451171875 -720.85 -0.45 -703.6 12.05 -699 15.45 -692.7 20.1 -687.95 25.85
L -687.95 4.7
Q -693.2 -1.4 -703.15 -6.45 -713 -11.45 -719.65 -11.45 -726.8 -11.45 -727.95 -11.1 -731.65 -10 -734.95 -4.4 -731.15 -1.2 -721.3 -0.45
M -1483.05 466.25
Q -1483.2626953125 464.672265625 -1483.4 462.75
L -1484.55 463.35
Q -1483.724609375 464.815234375 -1483.05 466.25
M -1330.4 423.95
Q -1331.0388671875 424.15390625 -1331.7 424.35 -1338.3400390625 433.176171875 -1345.45 438.85 -1346.8259765625 440.57734375 -1348 442.35
L -1350.35 442.35
Q -1347.874609375 440.7810546875 -1345.45 438.85 -1343.8384765625 436.81953125 -1341.95 434.85 -1338.2 431.2 -1336.7 429.55 -1334.8197265625 427.487109375 -1333.65 425.05 -1346.8830078125 429.7501953125 -1357.55 437.65 -1369.5 446.5 -1376.1 457.75 -1382.95 469.5 -1382.95 482 -1382.95 501.25 -1377.65 511.65 -1373.45 519.9 -1364.5 524.5 -1361.55 526 -1356.35 528 -1349.75 530.5 -1347.75 531.35 -1337.5 535.85 -1331.55 543.1 -1337.4 535.35 -1345.7 519.6 -1355.05 501.9 -1355.05 496.1 -1355.05 486.75 -1349.75 476.3 -1344.9 466.8 -1336.6 458.25 -1328.65 450.05 -1319.85 445.1 -1310.8 440 -1303.65 440 -1308.7875 430.0349609375 -1300.85 418.9 -1316.0443359375 419.3162109375 -1330.4 423.95 Z"/>

<path fill="url(#Gradient_1)" stroke="none" d="
M -1442.45 -25.25
Q -1445.25 -25.55 -1451.1 -25.55 -1465.25 -25.55 -1487.7 -14.7 -1511.3 -3.35 -1533.1 14.85 -1557.65 35.3 -1572.6 58.7 -1589.75 85.6 -1591.5 112.5
L -1591.5 126.3 -1586.8 126.3
Q -1578.25 122.15 -1563.5 131.85 -1557.4 135.8 -1553.4 140.45 -1549.2 145.25 -1549.2 148.6 -1549.2 149.8 -1550.55 151.2 -1551.45 152.1 -1554.4 154.85 -1556.7642578125 157.2642578125 -1559.05 160.35 -1559.6958984375 160.668359375 -1560.2 160.85 -1562.35 161.6 -1564.8 161.65 -1566.3 161.7 -1570.35 161.55 -1577.35 161.55 -1581.95 159.35 -1584.2 158.25 -1588.95 154.5 -1593.15 151.1 -1597.1 149.65 -1603.1 147.45 -1612.35 147.45 -1649.35 147.45 -1664.15 185.1 -1673.45 208.75 -1673.45 247 -1673.45 254.45 -1672.05 257.9 -1671.25 259.95 -1668.95 261.95 -1666.7 263.95 -1665.75 266.4 -1664.25 270.3 -1664.05 278.45 -1654.35 268.75 -1643 261.1 -1627.35 250.55 -1617.05 250.55 -1614 250.55 -1610.75 251.6 -1607.5 252.6 -1605.3 252.6 -1605.3 256.65 -1615.85 267.5 -1626.45 278.4 -1626.45 278.45 -1626.45 281.4 -1624.1 286.1 -1621.75 290.8 -1621.75 293.75 -1621.75 303.1 -1626.5 310 -1629.2 313.85 -1637 320.6 -1644.5 327.05 -1647.55 331.8 -1652.3 339.35 -1652.3 349.85 -1652.3 370.55 -1642.55 388.5 -1633.9240234375 404.3662109375 -1624.1 406.7
L -1624.1 400.05
Q -1616.6 402.7 -1611.05 398.6 -1607.65 396.05 -1602.2 387.7 -1596.4 378.75 -1592.6 375.4 -1586.05 369.6 -1577.4 369.8
L -1575.05 369.8
Q -1582.85 373.6 -1595.6 396 -1607.95 417.75 -1607.95 425.9 -1607.3 425.9 -1606.6 426.2 -1605.3 426.8 -1605.3 428.25 -1589 391.6 -1573.25 373.95 -1554.85 353.35 -1533.05 353.35 -1528.7 353.35 -1509.5 362.75 -1491.05 372.15 -1490.75 372.15
L -1490.75 374.5
Q -1508.25 378.35 -1515.6 386.1 -1521.3 392.15 -1521.3 401.25 -1521.3 401.65 -1524.8 410.65 -1528.35 419.6 -1528.35 420.05 -1528.35 422.65 -1522.35 427.45 -1513.65 433.75 -1508.35 437.8 -1491.521484375 450.655078125 -1484.55 463.35
L -1483.4 462.75
Q -1483.7 458.8 -1483.7 451.75 -1483.7 425.7 -1472 409.5 -1467.15 402.75 -1461.05 399.1 -1455.35 395.65 -1449.95 395.65 -1445.4271484375 395.65 -1439.85 398.45 -1434.6890625 390.30625 -1426.65 385.45 -1416.25 379.2 -1402.95 379.2 -1396.35 379.2 -1393.65 380.8 -1391.9 381.8 -1391.05 384.4 -1390.1 387.3 -1388.9 388.4 -1386.65 390.35 -1380.9 390.95 -1377.95 391.2 -1369.45 390.65 -1362.35 390.15 -1359.75 390.95 -1348.85 394.3 -1341.65 399.3 -1331.55 406.4 -1331.55 415.35 -1331.55 420.7783203125 -1333.65 425.05 -1332.65546875 424.6974609375 -1331.7 424.35 -1330.8322265625 423.2583984375 -1330 422.1 -1319.55 405.9 -1314.5 398.15 -1305.5 384.35 -1297.6 378.15 -1286.95 369.8 -1273.1 369.8 -1268.85 369.8 -1263.25 371.25 -1258.05 372.65 -1254.3 374.5 -1249.7 345.1 -1233.25 332.1 -1218.85 320.75 -1193.5 320.75 -1192.1 320.75 -1186.55 323.35 -1180.9 326 -1179.4 327.5 -1140.9 281.1 -1118.6 264.35 -1154.3 265.85 -1181.35 273.8 -1214.45 283.45 -1231.1 301.95 -1235.85 294.55 -1237.85 292.8 -1241.5 289.65 -1249.9 287.85 -1252.85 287.2 -1259.2 286.7 -1265.5 286.2 -1268.25 285.55 -1277.8 283.3 -1277.8 273.75 -1277.8 272.55 -1271.85 266.65 -1264.65 259.5 -1256.65 254.95 -1258.15 251.85 -1260.85 249.6 -1262.4 248.3 -1265.45 246.2 -1270.75 242.15 -1270.75 234.1 -1270.75 227.75 -1265.7 220.8 -1260.65 213.7 -1251.7 207.85 -1230.85 194.15 -1202.9 194.15 -1205.4 191.65 -1210.7 189.05 -1218.9 185.05 -1227.55 185.05 -1247.1 185.05 -1260.85 192.35 -1270.55 197.5 -1280 208.4 -1282.55 211.3 -1287.2 216.95 -1291.25 221.75 -1294.3 224.45 -1302.65 231.75 -1313.05 231.75 -1315.8 231.75 -1323.35 227.45 -1330.2 223.6 -1333.9 224.7 -1333.5 241.05 -1344.7 247.45 -1353.75 252.6 -1373.85 252.6 -1385.95 252.6 -1400.3 243 -1413.1 234.4 -1425.25 219.9 -1436.65 206.35 -1443.8 192.1 -1451.1 177.7 -1451.1 168.3 -1451.1 165.842578125 -1450.6 163.05 -1453.45 155.2919921875 -1453.45 145.1 -1453.45 133.75 -1451.1 128.75 -1449.45 125.2 -1444.2 121.45 -1437.15 116.35 -1433.15 112 -1425.5 103.6 -1418.2 89
L -1420.55 89
Q -1429.4 89.75 -1439.8 97.5 -1450.1 105.15 -1458.2 116.8 -1466.75 129.15 -1470 142.05 -1473.049609375 154.4201171875 -1470.6 165.1 -1470.0990234375 165.7509765625 -1469.6 166.25
L -1469.6 168.6
Q -1470.1568359375 166.8873046875 -1470.6 165.1 -1474.061328125 160.46171875 -1475.65 148.9 -1476.65 136.3 -1476.65 135.7 -1477.85 127.55 -1481.45 123.55 -1483.7 121 -1488.55 119 -1493.4 117.05 -1495 115.3 -1497.8 112.2 -1497.8 105.45 -1497.8 84.9 -1478.2 63.6 -1471.4 56.2 -1460 46.3 -1447.35 35.6 -1441.7 30.55 -1427.35 17.65 -1397.5 11.6 -1371.25 6.3 -1355.05 9.4
L -1355.05 7.05
Q -1355.2 7.05 -1382.65 -2.2 -1411.45 -11.45 -1418.2 -11.45 -1427.65 -11.45 -1439.35 -6.45 -1446.8 -3.25 -1460.5 4.7
L -1460.5 2.35 -1457 2.35
Q -1455.5 1.75 -1455.5 -2.05 -1456.4 -9.9 -1454.2 -15.8 -1449.95 -27.55 -1434.65 -20.55
L -1434.65 -23.2
Q -1437.8 -24.75 -1442.45 -25.25
M -1326.95 293
Q -1322.25 287.85 -1310.7 287.85 -1306.8 287.85 -1301.1 289.4 -1293.6 291.4 -1289.55 294.9 -1300.05 295.35 -1309.9 309.25 -1317.0359375 319.3154296875 -1320.4 331.15 -1329.118359375 334.815234375 -1342.95 339.7 -1375.063671875 351.05625 -1384.35 354.35 -1384.9296875 355.0357421875 -1385.6 355.7
L -1387.95 355.7
Q -1387.3796875 355.476953125 -1384.35 354.35 -1380.0208984375 349.7095703125 -1379.1 345.5 -1378.55 343 -1378.55 331.05 -1378.55 322.65 -1381.85 315.35 -1384.55 309.3 -1391.4 300.55 -1395.6 295.15 -1406.8 281.35 -1417.95 267.2 -1427.6 252.6 -1420.4 258.5 -1408.5 265.7 -1392.95 274.8 -1382.95 280.8 -1380.15 282.5 -1376.4 289.3 -1371.95 298.1 -1369.6 302.75 -1360.35 320.75 -1352.7 320.75 -1341.05 320.75 -1336.25 315.6 -1333.4 312.5 -1331.6 304.3 -1329.8 296.05 -1326.95 293 Z"/>

<path fill="url(#Gradient_2)" stroke="none" d="
M -1310.7 287.85
Q -1322.25 287.85 -1326.95 293 -1329.8 296.05 -1331.6 304.3 -1333.4 312.5 -1336.25 315.6 -1341.05 320.75 -1352.7 320.75 -1360.35 320.75 -1369.6 302.75 -1371.95 298.1 -1376.4 289.3 -1380.15 282.5 -1382.95 280.8 -1392.95 274.8 -1408.5 265.7 -1420.4 258.5 -1427.6 252.6 -1417.95 267.2 -1406.8 281.35 -1395.6 295.15 -1391.4 300.55 -1384.55 309.3 -1381.85 315.35 -1378.55 322.65 -1378.55 331.05 -1378.55 343 -1379.1 345.5 -1380.0208984375 349.7095703125 -1384.35 354.35 -1375.063671875 351.05625 -1342.95 339.7 -1329.118359375 334.815234375 -1320.4 331.15 -1317.0359375 319.3154296875 -1309.9 309.25 -1300.05 295.35 -1289.55 294.9 -1293.6 291.4 -1301.1 289.4 -1306.8 287.85 -1310.7 287.85 Z"/>
</g>
</defs>

<g transform="matrix( -0.6658172607421875, 0, 0, 0.6658172607421875, 520.45,355.5) ">
<g transform="matrix( 1, 0, 0, 1, -160.55,-288.2) ">
<g transform="matrix( 0, 0.18829345703125, 0.4259185791015625, 0, 43.45,530.5) ">
<g transform="matrix( 1, 0, 0, 1, 0,0) ">
<use xlink:href="#Blaze_Blaze_fire_stream_5_Layer0_0_FILL"/>
</g>
</g>

<g transform="matrix( 0, 0.1670379638671875, -0.3919677734375, 0, 375.45,527.1) ">
<g transform="matrix( 1, 0, 0, 1, 0,0) ">
<use xlink:href="#Blaze_Blaze_fire_stream_5_Layer0_0_FILL"/>
</g>
</g>

<g transform="matrix( 0, 0.219879150390625, 0.2901153564453125, 0, 135.95,530.05) ">
<g transform="matrix( 1, 0, 0, 1, 0,0) ">
<use xlink:href="#Blaze_Blaze_fire_stream_5_Layer0_0_FILL"/>
</g>
</g>
</g>
</g>
</svg>
