
<svg xmlns="http://www.w3.org/2000/svg" version="1.1" xmlns:xlink="http://www.w3.org/1999/xlink" preserveAspectRatio="none" x="0px" y="0px" width="1000px" height="1000px" viewBox="0 0 1000 1000">
<defs>
<g id="rag_fire_0_Layer0_0_FILL">
<path fill="#FF6600" stroke="none" d="
M 242.35 -237.05
L 224.8 -237.05
Q 224.6 -236.4 224.4 -235.7 222.7 -229.85 219.85 -224.5 217.8 -220.75 215.25 -217.25 209.1 -208.8 200.5 -202.8 191.6 -196.6 178.4 -192.15 170.9 -189.65 154.1 -185.6 138.05 -181.8 130 -178.95 117.1 -174.4 108.3 -167.85 103 -163.9 99.9 -159.4 96.3 -154.15 96.35 -148.75 96.4 -142.95 101.25 -136.1 104 -132.15 110 -124.45 117.8 -112.8 116.85 -98.2 115.85 -83.55 106.55 -73 102.5 -68.35 97.65 -65.85 92.15 -62.95 86.8 -63.45 80.6 -63.95 70.3 -71.4 60.1 -78.75 53.95 -79.25 56.7 -81.15 54.7 -84.65 52.7 -88.15 49.2 -87.75 46 -87.45 43.85 -84.4 41.85 -81.6 41.75 -78.1 41.65 -75.4 42.55 -71.6 43 -69.4 44 -65.15 46.15 -52.35 37.65 -39 30.5 -27.9 17.35 -18.05 9.6 -12.35 -6.65 -1.5 -20.25 8.5 -26.8 18.4 -33.6 28.45 -36.2 41.95 -38.15 52.35 -38 67.75 -37.9 76.6 -37.25 94.55 -36.95 110.25 -38.75 121 -40.2 129.85 -44.95 147.55 -48.35 163.25 -45.9 173.9 -44.15 181.8 -38.5 190.9 -36.3 194.55 -27.55 206.7 -20.65 216.25 -17.65 222.5 -13.3 231.5 -13.25 239.85 -16 241.85 -25.2 240.55 -32.85 239.5 -33.8 243.35 -34.15 245.05 -32.95 247.05 -32.5 247.9 -30.5 250.4 -25.6 256.55 -24.15 265.4 -23.1 271.7 -23.5 282.35 -24.15 297.1 -24.1 299.95 -23.8 309.85 -21.2 316.8 -18.15 324.75 -10.55 332.55 -5.75 337.4 4.4 345.35 36.05 369.75 53.7 380.75 82.3 398.65 108.45 405.85 134.3 412.85 180.15 413.3 212.75 413.55 216.55 413.65 237.35 414.25 252.75 416.6 257.35 417.3 273.45 420.35 286.4 422.7 294.35 423.65 318.35 426.3 334.6 419.75 344.05 415.85 354.65 407.15 366.6 396.55 372.6 391.35 400 367.2 433.8 352.25 445.85 347.05 448.7 345.55 456.95 341.25 461.65 336.05 465.1 332.4 469.85 324.1 474.9 315.55 478.1 312 482.4 307 492.8 300.55 504 293.45 508.05 289.55 518.05 280.1 519.8 265.65 521.65 251.2 514.3 239.7 513.05 237.8 511.65 236.6 509.8 235.25 508.05 235.4 505.6 235.65 503.95 238.5 503.05 240.15 501.7 243.9 499.4 249.4 493.55 252.3 487.65 255.15 481.8 253.6 482.9 238.7 493.75 219.45 495.65 216 503.4 203.4 509.5 193.45 512.65 187.15 524.2 163.8 525.05 137.35 525.95 110.8 515.9 86.95 515.25 85.5 502.95 60.35 495.1 44.45 493.2 33 493 31.65 491.75 12.95 490.9 0.85 487.45 -6.35
L 471.6 9.75
Q 470.65 -4.35 458.85 -20.1 454.9 -25.3 447.75 -33.45 438.85 -43.55 436.4 -46.5 422.25 -63.45 413.4 -83.7 404.45 -103.95 401.55 -125.65 400.15 -135.1 395.05 -135.8 387.5 -118.55 370.75 -107.3 354 -96.15 334.5 -95.35 328.6 -108.95 315.6 -121.25 305.1 -131.1 288.85 -141 279.15 -146.95 275.1 -150.7 268.2 -157 267.25 -164.1 266.55 -170.15 270.2 -177.25 271.55 -180.05 277.7 -189.3 287.1 -203.55 281.6 -211.95 280.3 -214 277.75 -215.85 276.5 -216.9 273.05 -218.9
L 242.35 -237.05
M 52.7 -14.2
Q 63.85 -25.15 69.95 -33.15 73.65 -30.2 77.5 -24.1 83.05 -15.5 84.05 -14.2 88.2 -9.15 93.85 -7 100.2 -4.55 105.05 -7.5 109 -9.85 110.95 -15.8 112.65 -23.05 113.5 -26.45 116.25 -36.95 126.7 -48.8 132.6 -55.5 145 -68.6 152.65 -77.85 157.7 -88.85 162.7 -99.8 164.65 -111.55 165.5 -116.15 166.85 -125.65 168.45 -133.7 171.9 -138.7 174.7 -142.9 179.7 -146.7 182.95 -149.2 189.15 -152.85
L 227.1 -175.6
Q 227.1 -168.55 229.35 -161.6 231.55 -154.75 235.7 -148.75 225.3 -141.05 219.85 -128.95 214.3 -116.85 215.5 -104.2 216.75 -91.4 226.55 -82.3 236.9 -72.6 248.25 -76.55 256.35 -79.35 261.15 -88.55 264.6 -95.1 266.95 -106.45 281.85 -104.05 292.55 -91.65 302.85 -79.65 304.4 -64.4 305.9 -50.45 300.2 -35.55 295 -22.1 284.7 -9.8 282.4 -7 281.5 -5.2 280.15 -2.45 281 -0.2 282.05 2.9 286.25 3.7 289.75 4.4 294.05 3.35 324.75 -3.25 349.5 -23.9 374.3 -44.55 385.5 -72.8 410.45 -42 421.15 -22.7 437.55 7.05 437.15 33.95 437.15 39.25 437.55 41.45 438.3 45.55 440.85 47.65 444.2 50.2 449.2 49 453.6 47.95 457.4 44.6 459.7 42.6 464.25 38.45 468.35 35.2 472.1 34.4 491.25 69.2 491.85 109.95 492.5 150.7 474.6 186 474.2 186.7 464.45 204.35 458.4 215.35 455.4 223.1 451.35 233.6 451 243.4 450.7 254.5 455.15 263.35 456.45 265.75 459.15 270.6 461.25 274.9 461.05 278.3 460.75 281.3 458.8 284.55 457.25 286.85 454.4 289.95 442.75 303 432.9 309.65 419.55 318.7 406.3 318.95 403.75 319 394.6 318.1 391.55 317.85 389.05 317.85 383.4 326.05 376.25 332.85 361.9 346.5 344.4 351.2 343.7 351.4 343.05 351.55 324 370.3 303.1 379.85 288 386.7 272.2 388.55 255.45 390.4 240.3 386.3 228 382.95 208.55 371.65 186.8 359.05 177.2 355.5 166.7 351.5 148.65 348.25 125.75 344.1 119.45 342.45 103.65 338.3 89.15 330.75 74.65 323.1 62.5 312.75 47.35 299.7 36.5 282.85 25.65 266 20.2 247.15 17.4 237.2 15.55 224.3 14.35 216.75 12.75 201.15 11.4 187.35 10.8 180.45 9.95 168.95 9.85 159.8 9.8 151 11.55 120.35 12.9 95.95 11.5 80.9 10.05 69.15 9.5 63.25 8.55 52.9 9.65 45.55 12.65 25.9 34.05 3.9 40.05 -2.25 52.7 -14.2 Z"/>

<path fill="#FFCC00" stroke="none" d="
M 69.95 -33.15
Q 63.85 -25.15 52.7 -14.2 40.05 -2.25 34.05 3.9 12.65 25.9 9.65 45.55 8.55 52.9 9.5 63.25 10.05 69.15 11.5 80.9 12.9 95.95 11.55 120.35 9.8 151 9.85 159.8 9.95 168.95 10.8 180.45 11.4 187.35 12.75 201.15 14.35 216.75 15.55 224.3 17.4 237.2 20.2 247.15 25.65 266 36.5 282.85 47.35 299.7 62.5 312.75 74.65 323.1 89.15 330.75 103.65 338.3 119.45 342.45 125.75 344.1 148.65 348.25 166.7 351.5 177.2 355.5 186.8 359.05 208.55 371.65 228 382.95 240.3 386.3 255.45 390.4 272.2 388.55 288 386.7 303.1 379.85 324 370.3 343.05 351.55 343.7 351.4 344.4 351.2 361.9 346.5 376.25 332.85 383.4 326.05 389.05 317.85 391.55 317.85 394.6 318.1 403.75 319 406.3 318.95 419.55 318.7 432.9 309.65 442.75 303 454.4 289.95 457.25 286.85 458.8 284.55 460.75 281.3 461.05 278.3 461.25 274.9 459.15 270.6 456.45 265.75 455.15 263.35 450.7 254.5 451 243.4 451.35 233.6 455.4 223.1 458.4 215.35 464.45 204.35 474.2 186.7 474.6 186 492.5 150.7 491.85 109.95 491.25 69.2 472.1 34.4 468.35 35.2 464.25 38.45 459.7 42.6 457.4 44.6 453.6 47.95 449.2 49 444.2 50.2 440.85 47.65 438.3 45.55 437.55 41.45 437.15 39.25 437.15 33.95 437.55 7.05 421.15 -22.7 410.45 -42 385.5 -72.8 374.3 -44.55 349.5 -23.9 324.75 -3.25 294.05 3.35 289.75 4.4 286.25 3.7 282.05 2.9 281 -0.2 280.15 -2.45 281.5 -5.2 282.4 -7 284.7 -9.8 295 -22.1 300.2 -35.55 305.9 -50.45 304.4 -64.4 302.85 -79.65 292.55 -91.65 281.85 -104.05 266.95 -106.45 264.6 -95.1 261.15 -88.55 256.35 -79.35 248.25 -76.55 236.9 -72.6 226.55 -82.3 216.75 -91.4 215.5 -104.2 214.3 -116.85 219.85 -128.95 225.3 -141.05 235.7 -148.75 231.55 -154.75 229.35 -161.6 227.1 -168.55 227.1 -175.6
L 189.15 -152.85
Q 182.95 -149.2 179.7 -146.7 174.7 -142.9 171.9 -138.7 168.45 -133.7 166.85 -125.65 165.5 -116.15 164.65 -111.55 162.7 -99.8 157.7 -88.85 152.65 -77.85 145 -68.6 132.6 -55.5 126.7 -48.8 116.25 -36.95 113.5 -26.45 112.65 -23.05 110.95 -15.8 109 -9.85 105.05 -7.5 100.2 -4.55 93.85 -7 88.2 -9.15 84.05 -14.2 83.05 -15.5 77.5 -24.1 73.65 -30.2 69.95 -33.15
M 137.7 -1.5
Q 140.25 -13.5 141.85 -19.25 144.65 -28.85 151.6 -39.95 154.7 -44.9 164.9 -59.1 173.45 -71.05 177.4 -78.5 183.35 -89.5 184.8 -99.65 185.05 -90.6 195.45 -81.4 196.5 -80.4 204.7 -73.75 210.3 -69.15 213.3 -65.85 216.2 -62.65 219.65 -57.15 221.65 -54.05 225.55 -47.85 232.7 -37.15 241.05 -34.6 249.3 -31.95 258.85 -36.3 266.8 -39.9 274.25 -47.55 276.55 -38.55 274.4 -28 272.95 -20.3 268.15 -8.7 265.55 -2.35 260.2 10.65 256.1 21.9 255.35 30.6 254.85 36.5 256.1 41.25 257.65 46.85 261.5 50.15 264.2 52.5 268.45 53.85 271.55 54.85 276.45 55.6 315.8 61.75 346.7 51.7 364.05 45.95 377.6 35.05 391.85 23.5 399.05 8.3 406.4 21.3 410.15 35.85 413.9 50.35 413.75 65.2 413.6 76.55 414.25 80.85 415.65 89.45 420.95 93.75 427.7 99.25 442.2 96.95 446.1 96.3 454.2 94.95 461.15 94 466 94.8 466.55 126.95 453.2 157.3 439.75 187.7 415.35 209.5 409.55 214.65 408.3 215.9 404.4 219.7 402.4 223.2 399.8 228.05 398.85 235.2 398.5 237.75 398.05 247.85 397 281.6 384.5 304.3 377.05 317.75 365.55 327.15 353.3 337.2 338.95 340.4 324.55 343.65 303.7 340.15 279.85 335.1 268.1 333.35 255.35 331.5 234.8 331.05 208.05 330.45 201.4 330 160.9 327.4 139.3 309.6 133.05 304.4 125.05 294.9 113.6 281.1 111.8 279.15 105.25 272.1 93.85 262.35 76.1 247.25 74.95 246.2 53.15 226.55 47.7 208.25 44.3 196.7 45.35 180.05 47.5 160.85 48.2 151.4 49.15 138.6 48.05 115.1 46.8 90 47.35 78.8 48.3 58.7 54.05 42.9 60.85 24.25 73.85 12.85 78.2 9.05 81.8 8.8 85.35 8.6 89.25 11.4 91.45 13 95.6 16.8 103 22.5 113.2 21.7 123.5 20.95 129.8 14.2 135.05 8.75 137.7 -1.5 Z"/>

<path fill="#FFFFFF" stroke="none" d="
M 141.85 -19.25
Q 140.25 -13.5 137.7 -1.5 135.05 8.75 129.8 14.2 123.5 20.95 113.2 21.7 103 22.5 95.6 16.8 91.45 13 89.25 11.4 85.35 8.6 81.8 8.8 78.2 9.05 73.85 12.85 60.85 24.25 54.05 42.9 48.3 58.7 47.35 78.8 46.8 90 48.05 115.1 49.15 138.6 48.2 151.4 47.5 160.85 45.35 180.05 44.3 196.7 47.7 208.25 53.15 226.55 74.95 246.2 76.1 247.25 93.85 262.35 105.25 272.1 111.8 279.15 113.6 281.1 125.05 294.9 133.05 304.4 139.3 309.6 160.9 327.4 201.4 330 208.05 330.45 234.8 331.05 255.35 331.5 268.1 333.35 279.85 335.1 303.7 340.15 324.55 343.65 338.95 340.4 353.3 337.2 365.55 327.15 377.05 317.75 384.5 304.3 397 281.6 398.05 247.85 398.5 237.75 398.85 235.2 399.8 228.05 402.4 223.2 404.4 219.7 408.3 215.9 409.55 214.65 415.35 209.5 439.75 187.7 453.2 157.3 466.55 126.95 466 94.8 461.15 94 454.2 94.95 446.1 96.3 442.2 96.95 427.7 99.25 420.95 93.75 415.65 89.45 414.25 80.85 413.6 76.55 413.75 65.2 413.9 50.35 410.15 35.85 406.4 21.3 399.05 8.3 391.85 23.5 377.6 35.05 364.05 45.95 346.7 51.7 315.8 61.75 276.45 55.6 271.55 54.85 268.45 53.85 264.2 52.5 261.5 50.15 257.65 46.85 256.1 41.25 254.85 36.5 255.35 30.6 256.1 21.9 260.2 10.65 265.55 -2.35 268.15 -8.7 272.95 -20.3 274.4 -28 276.55 -38.55 274.25 -47.55 266.8 -39.9 258.85 -36.3 249.3 -31.95 241.05 -34.6 232.7 -37.15 225.55 -47.85 221.65 -54.05 219.65 -57.15 216.2 -62.65 213.3 -65.85 210.3 -69.15 204.7 -73.75 196.5 -80.4 195.45 -81.4 185.05 -90.6 184.8 -99.65 183.35 -89.5 177.4 -78.5 173.45 -71.05 164.9 -59.1 154.7 -44.9 151.6 -39.95 144.65 -28.85 141.85 -19.25 Z"/>
</g>
</defs>

<g transform="matrix( -0.6658172607421875, 0, 0, 0.6658172607421875, 520.45,355.5) ">
<g transform="matrix( 0, 0.2122802734375, -0.2408905029296875, 0, 85.35,174.35) ">
<g transform="matrix( 1, 0, 0, 1, 0,0) ">
<use xlink:href="#rag_fire_0_Layer0_0_FILL"/>
</g>
</g>
</g>
</svg>
