
<svg xmlns="http://www.w3.org/2000/svg" version="1.1" xmlns:xlink="http://www.w3.org/1999/xlink" preserveAspectRatio="none" x="0px" y="0px" width="125px" height="100px" viewBox="0 0 125 100">
<defs>
<linearGradient id="Gradient_1" gradientUnits="userSpaceOnUse" x1="56.2625" y1="101.9625" x2="57.4375" y2="72.0375" spreadMethod="pad">
<stop  offset="6.2745098039215685%" stop-color="#EF66FF"/>

<stop  offset="25.88235294117647%" stop-color="#CC66FF"/>

<stop  offset="100%" stop-color="#FFFFFF"/>
</linearGradient>

<g id="firey_Burst_0_Layer0_0_FILL">
<path fill="url(#Gradient_1)" stroke="none" d="
M 95.65 61.7
Q 95.4 60.25 94.75 59 82.4 50.9 70.85 39.1 68.3 32.4 66.8 27.8 65.9 26.1 65.05 25.7 63.85 25.05 63.2 25.75 63 25.65 62.95 25.95 63.65 38.1 62.8 43.45 59.9 50.35 56.85 59.15 52.65 61.35 49.55 54.95 46.95 47.9 51.35 39.05 53.45 34.15 54.9 33.75 57.15 33.55 58.6 31.75 58.5 31.35 58.7 31.35 49.3 28.65 43.65 26.5 36.45 24.7 33.05 33.6 31.85 36.35 31.75 42 31.7 42.9 31.8 44.15 27.1 46.6 24.8 48.8 19.1 53.95 20.65 59.05 21 61.2 21.95 62.8 31.6 75.2 40.65 77.7 47.5 79.95 52.75 81.85 55.5 83.1 56.7 87.25 59.05 89.3 55.1 92.9 52.15 95.4 44.9 100.4 44.3 100.7 36.3 106 48.65 102.45 59.85 96.35 77.7 88.1 80.7 80.8 81.3 82.55 78.65 86.55 77.9 87.65 76.9 88.9 83.75 80.7 84 78.8 90.7 72.8 95.65 61.7 Z"/>
</g>
</defs>

<g transform="matrix( -0.361663818359375, 0, 0, -0.47125244140625, 71.15,83.35) ">
<g transform="matrix( 1, 0, 0, 1, 0,0) ">
<use xlink:href="#firey_Burst_0_Layer0_0_FILL"/>
</g>
</g>
</svg>
