
<svg xmlns="http://www.w3.org/2000/svg" version="1.1" xmlns:xlink="http://www.w3.org/1999/xlink" preserveAspectRatio="none" x="0px" y="0px" width="300px" height="300px" viewBox="0 0 300 300">
<defs>
<linearGradient id="Gradient_1" gradientUnits="userSpaceOnUse" x1="109" y1="30.737500000000004" x2="111.19999999999999" y2="104.1625" spreadMethod="pad">
<stop  offset="0%" stop-color="#FFFF00" stop-opacity="0"/>

<stop  offset="100%" stop-color="#FFFFFF"/>
</linearGradient>

<g id="chest_2_Layer3_0_FILL">
<path fill="#000000" stroke="none" d="
M 140.8 28.45
Q 140.7 26.4 139.95 25.7 139.2119140625 25.0470703125 138.1 25.1 138.029296875 25.0544921875 137.95 25 137.2 24.35 135.85 24.65 134.5 24.85 133.95 25.55 133.909765625 25.6046875 133.85 25.65 131.9619140625 25.43671875 128.95 25.9 126.45 25.45 123.8 24.95 113.2 23.1 99.75 21.75 81.9 20.2 70.65 18.95 66.5 18.5 63.3 18.1 62 17.95 61.05 18
L 61.05 17.9
Q 61 17.95 61 18 60.75 18 60.55 18.05
L 60.55 18.15
Q 58.65 19 56.15 19.8 55.35 20.05 54.65 20.25 51.9 21.1 50.4 21.55 46.55 22.85 38.85 26.05 35.25 27.6 32.45 28.7 31.6 29 30.8 29.35 30.35 29.5 29.95 29.65 28.45 30.15 27.25 30.55 26.7630859375 30.6951171875 26.3 30.8 25.1658203125 30.0728515625 22.7 30.15 20.7 30.25 20 31.05 19.45 31.65 19.35 33.25 18.4 45.65 18.4 62.75 18.4 64.85 18.55 66.95 18.85 69.6 20.1 70.7 20.85 71.4 22.25 71.75 23.348828125 72.0767578125 24.25 72
L 24.25 72
Q 26.1388671875 72.5310546875 31.45 73.75
L 69.65 82.7
Q 77.3 84.45 81.05 85.2 87.4 86.25 92.6 86.85 93.15 86.75 93.55 86.6 93.85 86.55 94.55 86.3 103.5 82.1 114.15 76.1 121.4228515625 71.915625 133.25 64.9 133.230859375 64.926953125 133.2 64.95 133.6607421875 64.85078125 134.2 64.65
L 135.15 64.25
Q 135.3162109375 64.3 135.5 64.3 136.05 64.25 136.7 63.7 136.823046875 63.59453125 137 63.45 137.509375 63.123046875 137.8 62.8 137.8873046875 62.69921875 137.95 62.6 138.4009765625 62.2625 139.15 61.75 139.75 61.2 140.1 60.05 140.8 57.9 140.8 53.75
L 140.8 28.45
M 133.75 28.45
L 133.9 28.45
Q 134.65 45 134 61.6 133.55 61.55 133.25 61.85 129.25 63.5 121.95 67.9
L 93.15 84.45
Q 92.75 84.15 92.3 84.2
L 72.75 79.8 32.95 70.85 28.15 69.8 26.6 69.45 24.9 69.05
Q 24.15 68.8 23.7 68.95 23.65 60.4 23.7 54.75 23.7 52.2 23.75 50.25 23.85 41.9 24 35.3
L 24 34.75
Q 24.3 34.9 24.55 35.05 26 35.65 28.25 36.1 30.6 36.6 34.1 37.2 41.8 38.55 54.65 40.5 55.2 41.8 56.25 42.65 56.3 42.7 56.35 42.7
L 56.35 42.75
Q 56.501171875 42.9033203125 56.55 43.05 56.55 43.15 56.45 43.4
L 54.85 47.2
Q 54.45 48.15 54.5 48.85 54.7 49.7 55.35 50 55.7 50.2 56.6 50.3
L 58.05 50.5 58.85 50.6
Q 59.7 50.7 60.1 50.45 60.6 50 60.6 49.2 60.6 49.05 60.6 48.95 60.6 48.6 60.55 48.2 60.45 47.8 60.3 47.35 60.05 46.45 59.85 45.4 59.65 44.5 59.5 43.5 59.65 43.45 59.8 43.4 61 42.75 61.85 41.6 72.95 43.3 80.25 44.9 80.3 44.9 80.4 44.95
L 82.1 45.3
Q 87.3 46.5 88.6 46.75 89.25 46.85 89.9 47 92.35 47.35 94.35 47.45 94.75 47.45 95.1 47.45 95.1 47.6 95.15 47.7 95.2 47.75 95.25 47.75 95.35 47.8 95.65 47.75 96.15 47.65 96.65 47.5 97.8 47.2 98.95 46.85 101.9 45.9 105.3 44.3 107 43.5 108.85 42.5 113.15 40.25 121.65 35.5 123.75 34.4 127.85 32.3 128.2 32.1 128.55 31.9 131.55 30.2 133.75 28.45
M 129.3 29.75
Q 128.5 30.05 127.85 30.35 125.3 31.4 123.85 32 120.2 33.6 112.9 37.75 108.45 40.3 105.3 41.9 103.4 42.85 101.9 43.45 99.7 44.35 98.6 44.85 97.5 45.35 96.65 45.85 96.4 46 96.2 46.2 96 46 95.65 45.9 95.45 45.85 95.25 45.8 92.7 44.9 89.9 44.15 78 40.75 61.6 38.45 44.75 36.4 34.1 34.8 30.2 34.2 27.15 33.7 26.4 33.55 25.75 33.55 25.3 33.45 25.15 33.4 25.05 33.35 24.9 33.05 27.3 32.35 29.95 31.5 30.35 31.35 30.8 31.25 31.6 30.95 32.45 30.6 33.5 30.25 34.6 29.8 39.1 28.05 48.1 24.3 50.3 23.45 54.65 21.8 55.05 21.65 55.4 21.45 58.35 20.25 60.55 19
L 60.55 19.15
Q 62.05 19.6 64.4 19.95 66.95 20.3 70.65 20.75 78.9 21.8 92.95 23.3 111.2 25.25 121.45 26.9 122.7 27.1 123.8 27.3 127.25 27.85 128.3 28 129 28.1 129.7 28.2 130.9 28.35 132.05 28.45 130.8 29.1 129.3 29.75
M 125.3 29.65
Q 125.5 29.3 125.4 29.1 125.3 28.6 124.65 28.6 121.75 28.3 110.2 27.5 101.3 26.9 95.8 26.1 93.45 25.75 81.3 23.5 72.5 21.8 66.8 21.5 63.6 21.4 61.7 22.05 61.85 21.85 61.95 21.65 61.8 21 60.9 21.35
L 31.65 32.2
Q 31.35 32.3 31.2 32.45 30.7 32.4 30.2 32.4 30.5 32.7 30.9 33 31 33.05 31.1 33.1 31.65 33.4 32.35 33.6 33.15 33.8 34.8 33.9 47.55 34.45 65.05 37.85 75 39.8 94.6 44.1 94.6 44.2 94.7 44.3 94.8 44.6 95.05 44.7 95.35 44.8 96 44.5
L 111.4 36.9
Q 120.75 32.3 124.75 30.1 125.1 29.95 125.3 29.65
M 96.2 42.85
Q 95.95 42.65 95.5 42.55
L 76.75 38.45
Q 68.05 36.6 64.05 35.9 63.4 35.8 62.75 35.7
L 62.65 34.9
Q 62.45 33.25 62.45 29.45 62.45 25.9 62.05 24 62.05 23.55 61.85 23.65 61.4 24.9 61.4 27.6
L 61.4 31.5
Q 61.25 33.7 61.25 33.8 61.2 34.4 61 35.4 47.1 33 33.45 32.5
L 60.35 22.85
Q 61 22.65 61.4 22.35 61.6 22.35 61.85 22.4 61.9 22.4 61.95 22.4 68.2 23.1 92.8 27.05 110.9 29.95 122.95 29.8
L 103.55 39.15
Q 99.15 41.25 96.2 42.85
M 86.15 53.9
Q 86.4 53.6 86.3 53.35 86.3 53.15 86.1 53 86 52.25 85.65 52.1
L 85.5 52.8
Q 85.15 52.65 84.7 52.6 80.75 51.9 78.2 51.1 74.8 50.15 74.5 50.1 71.9 49.65 71.85 49.65 71.55 49.55 71.35 49.5 71 49.4 70.9 49.45 70.25 49.55 70.15 50.15 70.15 50.3 70.2 50.45 69.8 50.9 69.8 52.1
L 69.75 54.2
Q 69.65 55.55 69.6 55.8 69.3 56.7 68.75 57 68.3 57.2 67.75 57 67.25 56.8 66.9 56.65 66.8 56.6 66.7 56.55 66.1 56.4 65.1 56.45 63.95 56.5 63.5 56.45 63.4 56.45 63.3 56.45
L 63.3 56.4
Q 62.85 56.3 62 56 61.8 55.9 61.55 55.8 60.25 55.3 57.65 54.85 55 54.35 53.75 53.9 52.6 53.45 52.05 53.25 51.05 52.85 50.35 52.8 49.65 52.75 49.45 52.7 48.95 52.55 48.7 52.15 48.45 51.75 48.45 50.65 48.6 47.25 48.35 42.7 48.35 42.25 48.2 41.95 48.15 41.85 48.1 41.75 47.9 41.55 47.65 41.6 47.65 41.65 47.6 41.7 47.35 42.45 47.25 43.7
L 43.2 42.75 39.6 41.95
Q 36.6189453125 41.2875 35 41.1 34.9357421875 41.1080078125 34.85 41.1
L 34.65 41.1 33.65 40.95
Q 33.6822265625 40.966015625 33.75 41
L 32.9 40.9
Q 32.5 40.85 32.1 40.8 30.45 40.35 29.9 40.5 29.55 40.5 29.35 40.8 29.05 41.15 29.25 41.5 29.3 41.6 29.35 41.65 29.3 41.9 29.3 42.2 29.15 43.65 29.25 45.65 29.3 46.8 29.45 49.05 29.55 51.55 29.4 53.65
L 29.05 58.5
Q 28.8 62.55 28.9 64.5 28.9 65.3 29.25 65.45 29.45 65.55 29.65 65.45 29.9 65.3 29.95 65.05 30 64.9 30.05 64.75 36.7 67.4 46.95 69.35 52.75 70.5 64.35 72.65 64.7 72.75 65.1 72.85 68.45 73.65 74.55 75.15
L 74.95 75.25
Q 75.1 75.25 75.2 75.3 75.95 75.45 76.6 75.6
L 77.2 75.7
Q 77.45 75.75 77.7 75.8
L 77.7 75.85
Q 81.7 76.6 84.85 76.8 85.25 76.8 85.5 76.6 85.8 76.4 85.75 76.2 85.95 76.15 86.1 75.85 86.25 75.65 86.3 75.15 86.75 72.55 86.85 70.85 86.85 70.35 86.85 69.9 86.7 68.35 86.75 68
L 86.95 66.85
Q 87 66.1 86.95 64.55
L 86.65 60.75 86.15 53.9
M 82.7 54.2
Q 84.15 54.4 85.3 54.25 85.25 55.8 85.35 58.4
L 85.55 63.15
Q 85.55 64.65 85.45 66.15
L 85.35 67.1 85.2 69.75 85.15 69.75 85.15 70.15
Q 84.9 73.65 85.2 75.4 85.3 75.9 85.45 76.1 79.9 75.3 69.45 72.35 68.35 72.05 67.3 71.8 66.75 71.65 66.25 71.5 57.7 69.25 53.2 68.55
L 47.45 67.75
Q 44.5 67.25 38.95 65.65 33.15 64 30.45 63.5 30.25 63.45 30.05 63.5 29.95 62 30 61.2
L 30.25 56.5 30.3 56.15 30.3 55.95
Q 30.4 53.9 30.4 52.85 30.5 51.1 30.35 48.15 30.15 44.75 30.15 43.45
L 30.2 41.9 45.6 44.65
Q 46.65 44.85 47.25 44.85
L 47.25 46.2 47.25 47.8 47.2 51.4
Q 47.2 52.6 47.45 53.1 47.85 54.05 48.8 54.3 49.4 54.5 50.5 54.6 51.8 54.85 54.25 55.8 55.2 56.1 57.2 56.45 59.15 56.75 60.15 57.05 62.35 57.85 62.7 57.9 63.2 58 64.15 58 65.15 58 65.6 58.05 66.3 58.15 67.65 58.5 68.8 58.7 69.5 58.25 70.1 57.85 70.45 57.1 70.75 56.35 70.75 54.65
L 70.7 52.1
Q 70.7 51.6 70.7 51.25 71.2 51.6 72.05 51.8 72.6 51.85 73.65 51.95
L 77.45 52.95
Q 80.85 53.95 82.7 54.2
M 68.1 45
Q 67.95 45.45 67.95 46.35
L 68 54.2
Q 68 55.3 68.35 55.65 68.8 55 68.8 53.4
L 68.8 46.15
Q 68.8 45.25 68.6 44.9 68.5 44.6 68.25 44.7 68.1 44.7 68.1 45
M 95.3 49.6
Q 94.75 52.55 94.6 55.35
L 93.7 66.45
Q 93.55 67.95 93.1 70.9 93 71.8 92.9 74.95
L 92.85 77.7
Q 92.75 80.3 93.2 81.6 93.7 80.6 93.9 78.45
L 95.3 67.05 95.7 58.15
Q 95.95 52.5 95.3 49.6
M 132.05 36.15
Q 132.05 36.05 132.05 36 132.3 35.35 131.7 34.95 131.3 34.75 130.7 34.95 130.1 35.15 128.9 36 126.6 37.6 121.35 40.05
L 105.9 47.4
Q 102.1 49.1 100 50.9 99.85 50.55 99.6 50.7 99.4 50.7 99.35 51.1 99.25 51.3 99.2 51.6 98.75 52.05 98.9 52.5 98.95 52.8 99.15 52.95 99.15 53 99.15 53.1
L 99.15 58.15
Q 99.15 60.7 99.05 61.95
L 98.95 63.5
Q 98.85 64.35 98.85 66.1
L 98.9 69.4
Q 98.9 71.45 99.15 72.35 99.35 72.75 99.45 72.85 99.7 73.05 99.95 72.85 100.1 73.05 100.3 73.05 100.55 73.05 101.1 72.7 103.5 70.9 107.6 68.7 111.7 66.45 117.65 63.45
L 129.45 57.35
Q 129.7 57.2 129.85 57.1 130.15 57.15 130.4 56.75 130.6 56.3 130.8 55.5
L 131.15 53.25
Q 131.15 51.15 131.25 50.1 131.25 49.55 131.4 49
L 131.55 47.45
Q 131.85 45.65 131.8 44.45
L 131.8 42.9 132 41.95
Q 132.1 41.2 132.1 39.6 132.1 37.3 132.05 36.15
M 130.8 39.75
Q 130.8 40.6 130.8 41.1 130.75 41.2 130.75 41.3
L 130.6 42.25 130.6 42.3
Q 130.5 42.9 130.5 44 130.6 45 130.45 45.75
L 130.25 46.75 130.35 47.8 130.35 48.05
Q 130.4 48.5 130.2 49.8
L 130.15 50.75
Q 130.15 51.1 130.15 51.55 130.2 52.75 130.1 53.3 129.95 54.1 129.75 54.85 129.6 55.25 129.55 55.6 129.1 55.5 128.35 55.9
L 109.9 65.55
Q 106.55 67.3 104.85 68.4 102.25 70 100.35 71.75 100.3 71.4 100.2 71 100.1 70.3 100.1 68.85
L 100.15 63.85 100.3 62.25
Q 100.45 61.05 100.35 59.55
L 100.25 52.7
Q 100.3 52.7 100.35 52.65 103.8 50.3 111.65 46.4
L 118 43.35
Q 118.7 43 121.3 41.85 123.35 40.95 124.55 40.3 125 40.05 127.95 38.3 129.55 37.3 130.8 36.75
L 130.8 39.75 Z"/>

<path fill="#BFC2D4" stroke="none" d="
M 127.85 30.35
Q 128.5 30.05 129.3 29.75 130.8 29.1 132.05 28.45 130.9 28.35 129.7 28.2 129 28.1 128.3 28 127.25 27.85 123.8 27.3 122.7 27.1 121.45 26.9 111.2 25.25 92.95 23.3 78.9 21.8 70.65 20.75 66.95 20.3 64.4 19.95 62.05 19.6 60.55 19.15
L 60.55 19
Q 58.35 20.25 55.4 21.45 55.05 21.65 54.65 21.8 50.3 23.45 48.1 24.3 39.1 28.05 34.6 29.8 33.5 30.25 32.45 30.6 31.6 30.95 30.8 31.25 30.35 31.35 29.95 31.5 27.3 32.35 24.9 33.05 25.05 33.35 25.15 33.4 25.3 33.45 25.75 33.55 26.4 33.55 27.15 33.7 30.2 34.2 34.1 34.8 44.75 36.4 61.6 38.45 78 40.75 89.9 44.15 92.7 44.9 95.25 45.8 95.45 45.85 95.65 45.9 96 46 96.2 46.2 96.4 46 96.65 45.85 97.5 45.35 98.6 44.85 99.7 44.35 101.9 43.45 103.4 42.85 105.3 41.9 108.45 40.3 112.9 37.75 120.2 33.6 123.85 32 125.3 31.4 127.85 30.35
M 125.4 29.1
Q 125.5 29.3 125.3 29.65 125.1 29.95 124.75 30.1 120.75 32.3 111.4 36.9
L 96 44.5
Q 95.35 44.8 95.05 44.7 94.8 44.6 94.7 44.3 94.6 44.2 94.6 44.1 75 39.8 65.05 37.85 47.55 34.45 34.8 33.9 33.15 33.8 32.35 33.6 31.65 33.4 31.1 33.1 31 33.05 30.9 33 30.5 32.7 30.2 32.4 30.7 32.4 31.2 32.45 31.35 32.3 31.65 32.2
L 60.9 21.35
Q 61.8 21 61.95 21.65 61.85 21.85 61.7 22.05 63.6 21.4 66.8 21.5 72.5 21.8 81.3 23.5 93.45 25.75 95.8 26.1 101.3 26.9 110.2 27.5 121.75 28.3 124.65 28.6 125.3 28.6 125.4 29.1 Z"/>

<path fill="#483828" stroke="none" d="
M 62.75 35.7
Q 63.4 35.8 64.05 35.9
L 62.65 34.9 62.75 35.7
M 66.25 71.5
Q 66.75 71.65 67.3 71.8 67.3 69.15 67.1 67.7 66.7 67.7 66.6 68.7 66.45 70.35 66.25 71.5
M 31.45 56.65
L 31.65 56.65
Q 31.7 56.55 31.65 56.45
L 30.5 56.2
Q 30.4 56.2 30.3 56.15
L 30.25 56.5 31.45 56.65
M 47.25 47.8
L 47.25 46.2 43.6 45.7
Q 38.55 45.15 36.65 45.15
L 36.6 45.45
Q 37.05 45.4 38.4 46
L 38.45 46.05
Q 38.4 46.3 38.4 46.7 38.35 47.85 38.6 50.15 38.6 50.65 38.55 53.45 38.45 55.4 38.7 56.65 38.9 56.45 38.9 55.8 38.9 54.95 39.2 51.9
L 39.7 46.5 39.7 46.45
Q 40.1 46.5 40.5 46.6 43.8 47.35 47.25 47.8
M 85.35 67.1
L 85.4 66.65
Q 78.2 65.35 73.4 64.75
L 53.5 62.4
Q 57.4 63.75 66.5 65.75
L 84 69.5
Q 84.5904296875 69.64765625 85.15 69.75
L 85.2 69.75 85.35 67.1
M 63.2 67.05
L 63.1 67.9 63.15 68.3
Q 63.2 68.4 63.5 68.65 63.85 68.9 64.1 68.8 64.55 68.65 64.65 67.8
L 64.65 67.55
Q 64.65 67.25 64.55 67 64.35 66.7 63.9 66.5
L 63.9 66.65
Q 63.45 66.5 63.2 67.05
M 33.3 57.05
Q 32.95 57.05 33.15 57.25 34 57.35 35.9 58.15 37.75 58.85 38.75 58.95 39 58.95 40.3 58.9 41.15 58.85 41.8 59 42.1 59 42.1 58.85 41.45 58.45 40.5 58.35 39.4 58.25 38.85 58.2 38 58.1 36.1 57.6 34.25 57.1 33.3 57.05
M 130.8 41.1
Q 130.8 40.6 130.8 39.75
L 130.8 36.75
Q 129.55 37.3 127.95 38.3 125 40.05 124.55 40.3 123.35 40.95 121.3 41.85 118.7 43 118 43.35
L 111.65 46.4
Q 103.8 50.3 100.35 52.65 100.3 52.7 100.25 52.7
L 100.35 59.55
Q 100.45 61.05 100.3 62.25
L 100.15 63.85 100.1 68.85
Q 100.1 70.3 100.2 71 100.3 71.4 100.35 71.75 102.25 70 104.85 68.4 106.55 67.3 109.9 65.55
L 128.35 55.9
Q 129.1 55.5 129.55 55.6 129.6 55.25 129.75 54.85 129.95 54.1 130.1 53.3 130.2 52.75 130.15 51.55 130.15 51.1 130.15 50.75 128.3 51.65 124.6 53.4
L 104.6 62.65
Q 106.25 60.9 108.95 59.55 110.55 58.8 113.8 57.45 116.25 56.3 119.55 54.35 121.45 53.2 125.15 50.85
L 130.35 47.8 130.25 46.75 130.45 45.75
Q 130.6 45 130.5 44 130.5 42.9 130.6 42.3
L 129.35 42.9
Q 127.2 43.85 126.15 43.9 128.4 42.5 130.8 41.1 Z"/>

<path fill="#FFE74F" stroke="none" d="
M 61.85 23.65
L 61.85 22.4
Q 61.6 22.35 61.4 22.35 61 22.65 60.35 22.85
L 33.45 32.5
Q 47.1 33 61 35.4 61.2 34.4 61.25 33.8 61.25 33.7 61.4 31.5
L 61.4 27.6
Q 61.4 24.9 61.85 23.65
M 95.5 42.55
Q 95.95 42.65 96.2 42.85 99.15 41.25 103.55 39.15
L 122.95 29.8
Q 110.9 29.95 92.8 27.05 68.2 23.1 61.95 22.4
L 61.85 23.65
Q 62.05 23.55 62.05 24 62.45 25.9 62.45 29.45 62.45 33.25 62.65 34.9
L 64.05 35.9
Q 68.05 36.6 76.75 38.45
L 95.5 42.55 Z"/>

<path fill="#B6A14B" stroke="none" d="
M 61.95 22.4
Q 61.9 22.4 61.85 22.4
L 61.85 23.65 61.95 22.4 Z"/>

<path fill="#4B506B" stroke="none" d="
M 65.1 72.85
Q 65.2 73.35 65.55 73.85 66.1 74.85 67.1 75.2 68.15 75.55 69.05 75.05 69.7 74.8 69.85 74.85 70 74.9 70.5 75.55 70.9 76.05 71.95 76.6 72.25 76.85 72.8 77.4 73.35 77.85 73.8 77.85 74.4 77.9 74.85 77.3 75.25 76.75 75.25 76 75.25 75.65 75.2 75.3 75.1 75.25 74.95 75.25
L 74.55 75.15
Q 68.45 73.65 65.1 72.85
M 61.45 50.85
L 61 49.65
Q 60.8 49.35 60.6 49.2 60.6 50 60.1 50.45 59.7 50.7 58.85 50.6
L 58.05 50.5 57.5 50.45
Q 57.4 50.75 57.4 51.05 57.4 51.4 57.55 52 57.65 52.4 57.8 53.25 57.9 54 58.2 54.4 58.8 55.35 60.1 55.15 61.2 54.95 61.7 54.3 62.45 53.4 62.2 52.25 62.15 52.15 61.45 50.85
M 23.85 54.85
Q 23.8 54.8 23.7 54.75 23.65 60.4 23.7 68.95 24.15 68.8 24.9 69.05
L 26.6 69.45
Q 27 68.95 27.05 68.4 27.5 68.85 28.1 68.65 28.25 68.6 28.4 68.55
L 28.3 69
Q 28.3 69.3 28.15 69.8
L 32.95 70.85
Q 32.95 70.75 32.9 70.65 32.8 70.3 32.6 69.9 32.3 69.45 32.2 69.2 31.7 68.2 31.55 68.05 31 67.7 30.7 67.5
L 29.95 67.1
Q 29.5505859375 66.9669921875 29.15 67.15 29.2443359375 66.3447265625 28.6 65.75 28.15 65.35 27.65 65.45 26.85 65.65 26.6 66.4 26.4 65.95 26 65.55 25.6 65.15 25.35 65.1 25.1 65.05 25.05 64.95 24.95 64.8 25.05 64.5 25.2 63.85 25.1 63.3 25.35 63.6 25.75 63.8 26.25 64 26.7 63.75 27.15 63.55 27.45 62.95 27.65 62.35 27.6 61.8 27.5 61.2 27.05 60.75 26.65 60.35 26.2 60.35 25.7 60.35 25.3 60.8 24.85 61.2 24.75 61.8 24.7 62.1 24.75 62.4 24.65 62.2 24.5 62.05 25.25 60.8 25.35 59.1 25.45 57.45 24.8 56.05 24.35 55.15 23.85 54.85
M 37.45 41.2
Q 35.9662109375 41.1587890625 35 41.1 36.6189453125 41.2875 39.6 41.95
L 43.2 42.75
Q 41.3 41.3 37.45 41.2
M 29.45 39.9
Q 28.5 40.3 28.15 42.55 27.7 45.6 27.6 48.25 27.45 50.4 27.55 56.4 27.65 61.25 28 63.6 28.15 64.4 28.45 64.5 28.5 64.6 28.9 64.5 28.8 62.55 29.05 58.5
L 29.4 53.65
Q 29.55 51.55 29.45 49.05 29.3 46.8 29.25 45.65 29.15 43.65 29.3 42.2 29.3 41.9 29.35 41.65 29.3 41.6 29.25 41.5 29.05 41.15 29.35 40.8 29.55 40.5 29.9 40.5 30.45 40.35 32.1 40.8 32.5 40.85 32.9 40.9
L 33.75 41
Q 33.6822265625 40.966015625 33.65 40.95
L 33.6 40.95
Q 32.4 40.75 31.45 40.35 30.6 39.95 30.45 39.9 29.9 39.7 29.45 39.9
M 60.2 44.95
Q 59.95 45.15 59.85 45.4 60.05 46.45 60.3 47.35 60.45 47.8 60.55 48.2 60.85 48.35 61.2 48.3 61.8 48.15 62.15 47.6 62.5 47.1 62.45 46.25 62.4 45.6 61.95 45.15 61.55 44.7 61 44.6
L 61 44.7
Q 60.6 44.65 60.2 44.95
M 35.25 68.55
L 35.25 68.7
Q 34.75 68.55 34.5 69.15 34.3 69.75 34.55 70.2 34.75 70.75 35.2 70.9
L 35.45 71
Q 36 71 36.25 70.35 36.45 69.75 36.1 69.15 35.8 68.7 35.25 68.55
M 26.6 52.4
Q 26.55 51.7 26.05 51.3 25.55 50.95 24.95 51.1
L 24.5 51.35
Q 23.9 51.9 24 53.05 24.15 54.1 24.7 54.45 25.3 54.7 25.75 54.4 26.2 54.1 26.5 53.45 26.7 52.95 26.6 52.4
M 25.25 47.4
L 25.3 47.55
Q 24.95 47.45 24.8 47.6 24.6 47.85 24.55 48.1
L 24.5 48.3 24.6 48.8
Q 24.7 49.15 25.2 49.25
L 25.45 49.25
Q 25.55 49.2 25.75 48.95
L 25.95 48.7 25.95 48.35 25.9 47.95
Q 25.75 47.6 25.25 47.4
M 47.65 41.6
Q 47.9 41.55 48.1 41.75 52.75 42.35 56.45 42.9 56.403125 42.80625 56.35 42.75
L 56.35 42.7
Q 56.3 42.7 56.25 42.65 55.2 41.8 54.65 40.5 41.8 38.55 34.1 37.2 30.6 36.6 28.25 36.1 26 35.65 24.55 35.05 24.3 34.9 24 34.75
L 24 35.3
Q 26.95 36.7 28.95 37.5 35.8 40.2 47.6 41.7 47.65 41.65 47.65 41.6
M 87 60.35
Q 86.8 60.5 86.65 60.75
L 86.95 64.55
Q 87 66.1 86.95 66.85
L 86.75 68
Q 86.7 68.35 86.85 69.9 86.85 70.35 86.85 70.85 87.75 70.75 88.6 70 89.65 68.95 90.05 67.4 90.3 65.65 89.45 64.45 89.25 64.15 88.85 63.8 89.05 63.6 89.3 62.8 89.5 62.2 89.45 61.7 89.4 60.55 88.6 60.15 87.8 59.75 87 60.35
M 90.75 58
Q 90.8 57.85 90.75 57.6
L 90.55 57.15
Q 90.45 56.9 89.9 56.8
L 89.9 56.85
Q 89.35 56.75 89.15 57.4 89.1 57.5 89.1 58.05
L 89.2 58.4
Q 89.25 58.6 89.6 58.8 90 58.95 90.1 58.9 90.65 58.8 90.75 58
M 85.25 48.7
Q 84.55 48.55 84.05 49.2 83.75 49.6 83.75 49.95
L 83.75 50.7
Q 83.9 51.35 84.4 51.8 84.9 52.2 85.45 52 85.75 51.8 85.9 51.6 86.55 50.7 86.25 49.7 85.95 48.85 85.25 48.7
M 133.9 28.45
L 133.75 28.45
Q 131.55 30.2 128.55 31.9 128.2 32.1 127.85 32.3 123.75 34.4 121.65 35.5 113.15 40.25 108.85 42.5 107 43.5 105.3 44.3 101.9 45.9 98.95 46.85 97.8 47.2 96.65 47.5 96.15 47.65 95.65 47.75 95.35 47.8 95.25 47.75 95.2 47.75 95.15 47.7 95.1 47.6 95.1 47.45 94.75 47.45 94.35 47.45 92.35 47.35 89.9 47 89.25 46.85 88.6 46.75 87.3 46.5 82.1 45.3
L 80.4 44.95
Q 80.3 44.9 80.25 44.9 72.95 43.3 61.85 41.6 61 42.75 59.8 43.4 64.95 44.2 67.4 44.8
L 67.1 51.95
Q 66.7 51.75 65.95 51.65 64.2 51.45 63.3 52.4 62.55 53.1 62.2 54.65 62.05 55.35 62 56 62.85 56.3 63.3 56.4
L 63.3 56.45
Q 63.4 56.45 63.5 56.45 63.95 56.5 65.1 56.45 66.1 56.4 66.7 56.55 66.8 56.6 66.9 56.65 67.25 56.8 67.75 57 68.3 57.2 68.75 57 69.3 56.7 69.6 55.8 69.65 55.55 69.75 54.2
L 69.8 52.1
Q 69.8 50.9 70.2 50.45 70.15 50.3 70.15 50.15 70.25 49.55 70.9 49.45 71 49.4 71.35 49.5
L 71.35 45.65
Q 77.25 47.2 83.25 48.3 83.5 48.35 83.75 48.4 85.6 48.7 87.4 48.95
L 88.15 49.65 88.6 50.35
Q 89.35 51.65 90.65 52.05 92 52.4 93.05 51.55 93.2 51.45 94.05 50.55 94.15 50.4 94.25 50.3 94.25 50.0884765625 94.25 49.85 93.986328125 56.9041015625 93.4 65.65 92.8 74.55 92.4 80.4 91.65 81.15 90.7 81.65 89.25 82.35 87.55 82.35 86.5 82.35 84.4 81.8 82.2 81.3 81.15 81.25 80.6 81.25 80.4 81.05 80.2 80.95 79.8 80.2 79.25 79 77.85 78.75 77.95 78.65 78.05 78.5 78.4 78 78.4 77.25 78.35 76.4 77.85 75.95 77.8 75.9 77.7 75.85
L 77.7 75.8
Q 77.45 75.75 77.2 75.7
L 76.6 75.6 76.55 75.6
Q 76.4 75.55 76.15 75.65 75.7 75.85 75.45 76.35 75.15 76.9 75.2 77.45 75.25 78.05 75.55 78.55 75.75 78.75 75.9 78.9 75.8 78.9 75.75 78.95 74.85 79.35 74.75 79.4
L 73.05 79.7
Q 72.85 79.75 72.75 79.8
L 92.3 84.2
Q 92.75 84.15 93.15 84.45
L 121.95 67.9
Q 129.25 63.5 133.25 61.85 133.55 61.55 134 61.6 134.65 45 133.9 28.45
M 132.05 36
Q 132.05 36.05 132.05 36.15 132.1 37.3 132.1 39.6 132.1 41.2 132 41.95
L 131.8 42.9 131.8 44.45
Q 131.85 45.65 131.55 47.45
L 131.4 49
Q 131.25 49.55 131.25 50.1 131.15 51.15 131.15 53.25
L 130.8 55.5
Q 130.6 56.3 130.4 56.75 130.15 57.15 129.85 57.1 129.7 57.2 129.45 57.35
L 117.65 63.45
Q 111.7 66.45 107.6 68.7 103.5 70.9 101.1 72.7 100.55 73.05 100.3 73.05 100.1 73.05 99.95 72.85 99.7 73.05 99.45 72.85 99.35 72.75 99.15 72.35 98.9 71.45 98.9 69.4
L 98.85 66.1
Q 98.85 64.35 98.95 63.5
L 99.05 61.95
Q 99.15 60.7 99.15 58.15
L 99.15 53.1
Q 99.15 53 99.15 52.95 98.95 52.8 98.9 52.5 98.75 52.05 99.2 51.6 99.25 51.3 99.35 51.1 99.4 50.7 99.6 50.7 99.85 50.55 100 50.9 102.1 49.1 105.9 47.4
L 121.35 40.05
Q 126.6 37.6 128.9 36 130.1 35.15 130.7 34.95 131.3 34.75 131.7 34.95 132.3 35.35 132.05 36
M 94.6 55.35
Q 94.75 52.55 95.3 49.6 95.95 52.5 95.7 58.15
L 95.3 67.05 93.9 78.45
Q 93.7 80.6 93.2 81.6 92.75 80.3 92.85 77.7
L 92.9 74.95
Q 93 71.8 93.1 70.9 93.55 67.95 93.7 66.45
L 94.6 55.35
M 67.95 46.35
Q 67.95 45.45 68.1 45 68.1 44.7 68.25 44.7 68.5 44.6 68.6 44.9 68.8 45.25 68.8 46.15
L 68.8 53.4
Q 68.8 55 68.35 55.65 68 55.3 68 54.2
L 67.95 46.35 Z"/>

<path fill="#8B90AA" stroke="none" d="
M 26.6 69.45
L 28.15 69.8
Q 28.3 69.3 28.3 69
L 28.4 68.55
Q 28.25 68.6 28.1 68.65 27.5 68.85 27.05 68.4 27 68.95 26.6 69.45
M 47.25 43.7
Q 47.35 42.45 47.6 41.7 35.8 40.2 28.95 37.5 26.95 36.7 24 35.3 23.85 41.9 23.75 50.25 23.7 52.2 23.7 54.75 23.8 54.8 23.85 54.85 24.35 55.15 24.8 56.05 25.45 57.45 25.35 59.1 25.25 60.8 24.5 62.05 24.65 62.2 24.75 62.4 24.7 62.1 24.75 61.8 24.85 61.2 25.3 60.8 25.7 60.35 26.2 60.35 26.65 60.35 27.05 60.75 27.5 61.2 27.6 61.8 27.65 62.35 27.45 62.95 27.15 63.55 26.7 63.75 26.25 64 25.75 63.8 25.35 63.6 25.1 63.3 25.2 63.85 25.05 64.5 24.95 64.8 25.05 64.95 25.1 65.05 25.35 65.1 25.6 65.15 26 65.55 26.4 65.95 26.6 66.4 26.85 65.65 27.65 65.45 28.15 65.35 28.6 65.75 29.2443359375 66.3447265625 29.15 67.15 29.5505859375 66.9669921875 29.95 67.1
L 30.7 67.5
Q 31 67.7 31.55 68.05 31.7 68.2 32.2 69.2 32.3 69.45 32.6 69.9 32.8 70.3 32.9 70.65 32.95 70.75 32.95 70.85
L 72.75 79.8
Q 72.85 79.75 73.05 79.7
L 74.75 79.4
Q 74.85 79.35 75.75 78.95 75.8 78.9 75.9 78.9 75.75 78.75 75.55 78.55 75.25 78.05 75.2 77.45 75.15 76.9 75.45 76.35 75.7 75.85 76.15 75.65 76.4 75.55 76.55 75.6
L 76.6 75.6
Q 75.95 75.45 75.2 75.3 75.25 75.65 75.25 76 75.25 76.75 74.85 77.3 74.4 77.9 73.8 77.85 73.35 77.85 72.8 77.4 72.25 76.85 71.95 76.6 70.9 76.05 70.5 75.55 70 74.9 69.85 74.85 69.7 74.8 69.05 75.05 68.15 75.55 67.1 75.2 66.1 74.85 65.55 73.85 65.2 73.35 65.1 72.85 64.7 72.75 64.35 72.65 52.75 70.5 46.95 69.35 36.7 67.4 30.05 64.75 30 64.9 29.95 65.05 29.9 65.3 29.65 65.45 29.45 65.55 29.25 65.45 28.9 65.3 28.9 64.5 28.5 64.6 28.45 64.5 28.15 64.4 28 63.6 27.65 61.25 27.55 56.4 27.45 50.4 27.6 48.25 27.7 45.6 28.15 42.55 28.5 40.3 29.45 39.9 29.9 39.7 30.45 39.9 30.6 39.95 31.45 40.35 32.4 40.75 33.6 40.95
L 33.65 40.95 34.65 41.1 34.85 41.1
Q 34.9357421875 41.1080078125 35 41.1 35.9662109375 41.1587890625 37.45 41.2 41.3 41.3 43.2 42.75
L 47.25 43.7
M 25.3 47.55
L 25.25 47.4
Q 25.75 47.6 25.9 47.95
L 25.95 48.35 25.95 48.7 25.75 48.95
Q 25.55 49.2 25.45 49.25
L 25.2 49.25
Q 24.7 49.15 24.6 48.8
L 24.5 48.3 24.55 48.1
Q 24.6 47.85 24.8 47.6 24.95 47.45 25.3 47.55
M 26.05 51.3
Q 26.55 51.7 26.6 52.4 26.7 52.95 26.5 53.45 26.2 54.1 25.75 54.4 25.3 54.7 24.7 54.45 24.15 54.1 24 53.05 23.9 51.9 24.5 51.35
L 24.95 51.1
Q 25.55 50.95 26.05 51.3
M 35.25 68.7
L 35.25 68.55
Q 35.8 68.7 36.1 69.15 36.45 69.75 36.25 70.35 36 71 35.45 71
L 35.2 70.9
Q 34.75 70.75 34.55 70.2 34.3 69.75 34.5 69.15 34.75 68.55 35.25 68.7
M 48.2 41.95
Q 48.35 42.25 48.35 42.7 48.6 47.25 48.45 50.65 48.45 51.75 48.7 52.15 48.95 52.55 49.45 52.7 49.65 52.75 50.35 52.8 51.05 52.85 52.05 53.25 52.6 53.45 53.75 53.9 55 54.35 57.65 54.85 60.25 55.3 61.55 55.8 61.8 55.9 62 56 62.05 55.35 62.2 54.65 62.55 53.1 63.3 52.4 64.2 51.45 65.95 51.65 66.7 51.75 67.1 51.95
L 67.4 44.8
Q 64.95 44.2 59.8 43.4 59.65 43.45 59.5 43.5 59.65 44.5 59.85 45.4 59.95 45.15 60.2 44.95 60.6 44.65 61 44.7
L 61 44.6
Q 61.55 44.7 61.95 45.15 62.4 45.6 62.45 46.25 62.5 47.1 62.15 47.6 61.8 48.15 61.2 48.3 60.85 48.35 60.55 48.2 60.6 48.6 60.6 48.95 60.6 49.05 60.6 49.2 60.8 49.35 61 49.65
L 61.45 50.85
Q 62.15 52.15 62.2 52.25 62.45 53.4 61.7 54.3 61.2 54.95 60.1 55.15 58.8 55.35 58.2 54.4 57.9 54 57.8 53.25 57.65 52.4 57.55 52 57.4 51.4 57.4 51.05 57.4 50.75 57.5 50.45
L 58.05 50.5 56.6 50.3
Q 55.7 50.2 55.35 50 54.7 49.7 54.5 48.85 54.45 48.15 54.85 47.2
L 56.45 43.4
Q 56.55 43.15 56.55 43.05 56.501171875 42.9033203125 56.35 42.75 56.403125 42.80625 56.45 42.9 52.75 42.35 48.1 41.75 48.15 41.85 48.2 41.95
M 83.75 48.4
Q 83.5 48.35 83.25 48.3 77.25 47.2 71.35 45.65
L 71.35 49.5
Q 71.55 49.55 71.85 49.65 71.9 49.65 74.5 50.1 74.8 50.15 78.2 51.1 80.75 51.9 84.7 52.6 85.15 52.65 85.5 52.8
L 85.65 52.1
Q 86 52.25 86.1 53 86.3 53.15 86.3 53.35 86.4 53.6 86.15 53.9
L 86.65 60.75
Q 86.8 60.5 87 60.35 87.8 59.75 88.6 60.15 89.4 60.55 89.45 61.7 89.5 62.2 89.3 62.8 89.05 63.6 88.85 63.8 89.25 64.15 89.45 64.45 90.3 65.65 90.05 67.4 89.65 68.95 88.6 70 87.75 70.75 86.85 70.85 86.75 72.55 86.3 75.15 86.25 75.65 86.1 75.85 85.95 76.15 85.75 76.2 85.8 76.4 85.5 76.6 85.25 76.8 84.85 76.8 81.7 76.6 77.7 75.85 77.8 75.9 77.85 75.95 78.35 76.4 78.4 77.25 78.4 78 78.05 78.5 77.95 78.65 77.85 78.75 79.25 79 79.8 80.2 80.2 80.95 80.4 81.05 80.6 81.25 81.15 81.25 82.2 81.3 84.4 81.8 86.5 82.35 87.55 82.35 89.25 82.35 90.7 81.65 91.65 81.15 92.4 80.4 92.8 74.55 93.4 65.65 93.986328125 56.9041015625 94.25 49.85 94.25 50.0884765625 94.25 50.3 94.15 50.4 94.05 50.55 93.2 51.45 93.05 51.55 92 52.4 90.65 52.05 89.35 51.65 88.6 50.35
L 88.15 49.65 87.4 48.95
Q 85.6 48.7 83.75 48.4
M 84.05 49.2
Q 84.55 48.55 85.25 48.7 85.95 48.85 86.25 49.7 86.55 50.7 85.9 51.6 85.75 51.8 85.45 52 84.9 52.2 84.4 51.8 83.9 51.35 83.75 50.7
L 83.75 49.95
Q 83.75 49.6 84.05 49.2
M 90.75 57.6
Q 90.8 57.85 90.75 58 90.65 58.8 90.1 58.9 90 58.95 89.6 58.8 89.25 58.6 89.2 58.4
L 89.1 58.05
Q 89.1 57.5 89.15 57.4 89.35 56.75 89.9 56.85
L 89.9 56.8
Q 90.45 56.9 90.55 57.15
L 90.75 57.6 Z"/>

<path fill="#CC6600" stroke="none" d="
M 85.3 54.25
Q 84.15 54.4 82.7 54.2 80.85 53.95 77.45 52.95
L 73.65 51.95
Q 72.6 51.85 72.05 51.8 71.2 51.6 70.7 51.25 70.7 51.6 70.7 52.1
L 70.75 54.65
Q 70.75 56.35 70.45 57.1 70.1 57.85 69.5 58.25 68.8 58.7 67.65 58.5 66.3 58.15 65.6 58.05 65.15 58 64.15 58 63.2 58 62.7 57.9 62.35 57.85 60.15 57.05 59.15 56.75 57.2 56.45 55.2 56.1 54.25 55.8 51.8 54.85 50.5 54.6 49.4 54.5 48.8 54.3 47.85 54.05 47.45 53.1 47.2 52.6 47.2 51.4
L 47.25 47.8
Q 43.8 47.35 40.5 46.6 40.1 46.5 39.7 46.45
L 39.7 46.5 39.2 51.9
Q 38.9 54.95 38.9 55.8 38.9 56.45 38.7 56.65 38.45 55.4 38.55 53.45 38.6 50.65 38.6 50.15 38.35 47.85 38.4 46.7 38.4 46.3 38.45 46.05
L 38.4 46
Q 37.05 45.4 36.6 45.45
L 36.65 45.15
Q 38.55 45.15 43.6 45.7
L 47.25 46.2 47.25 44.85
Q 46.65 44.85 45.6 44.65
L 30.2 41.9 30.15 43.45
Q 30.15 44.75 30.35 48.15 30.5 51.1 30.4 52.85 30.4 53.9 30.3 55.95
L 30.3 56.15
Q 30.4 56.2 30.5 56.2
L 31.65 56.45
Q 31.7 56.55 31.65 56.65
L 31.45 56.65 30.25 56.5 30 61.2
Q 29.95 62 30.05 63.5 30.25 63.45 30.45 63.5 33.15 64 38.95 65.65 44.5 67.25 47.45 67.75
L 53.2 68.55
Q 57.7 69.25 66.25 71.5 66.45 70.35 66.6 68.7 66.7 67.7 67.1 67.7 67.3 69.15 67.3 71.8 68.35 72.05 69.45 72.35 79.9 75.3 85.45 76.1 85.3 75.9 85.2 75.4 84.9 73.65 85.15 70.15
L 85.15 69.75
Q 84.5904296875 69.64765625 84 69.5
L 66.5 65.75
Q 57.4 63.75 53.5 62.4
L 73.4 64.75
Q 78.2 65.35 85.4 66.65
L 85.35 67.1 85.45 66.15
Q 85.55 64.65 85.55 63.15
L 85.35 58.4
Q 85.25 55.8 85.3 54.25
M 33.15 57.25
Q 32.95 57.05 33.3 57.05 34.25 57.1 36.1 57.6 38 58.1 38.85 58.2 39.4 58.25 40.5 58.35 41.45 58.45 42.1 58.85 42.1 59 41.8 59 41.15 58.85 40.3 58.9 39 58.95 38.75 58.95 37.75 58.85 35.9 58.15 34 57.35 33.15 57.25
M 63.1 67.9
L 63.2 67.05
Q 63.45 66.5 63.9 66.65
L 63.9 66.5
Q 64.35 66.7 64.55 67 64.65 67.25 64.65 67.55
L 64.65 67.8
Q 64.55 68.65 64.1 68.8 63.85 68.9 63.5 68.65 63.2 68.4 63.15 68.3
L 63.1 67.9
M 130.35 48.05
L 130.35 47.8 125.15 50.85
Q 121.45 53.2 119.55 54.35 116.25 56.3 113.8 57.45 110.55 58.8 108.95 59.55 106.25 60.9 104.6 62.65
L 124.6 53.4
Q 128.3 51.65 130.15 50.75
L 130.2 49.8
Q 130.4 48.5 130.35 48.05
M 129.35 42.9
L 130.6 42.3 130.6 42.25 130.75 41.3
Q 130.75 41.2 130.8 41.1 128.4 42.5 126.15 43.9 127.2 43.85 129.35 42.9 Z"/>
</g>

<g id="chest_2_Layer2_0_FILL">
<path fill="#000000" stroke="none" d="
M 72.4 -26.65
Q 71.9 -26.55 71.7 -26.35 71.6 -26.25 71.6 -26.05
L 71.55 -26.05
Q 71.45 -25.95 71.4 -25.6
L 70.8 -23.05
Q 70.2 -20.05 70.15 -19.95
L 67.9 -13.35
Q 67.15 -11.1 67 -10.3 67 -10 67 -9.75 66.65 -8.55 66.3 -7 63.15 7.6 61.95 15.3 61.65 17.2 61.6 18.15 61.6 18.65 61.75 18.85 61.8 19 62 19.05 62.15 19.05 62.2 18.9 63.8 19.55 67 19.8 84.45 21.3 84.55 21.3 94.55 22.25 102.05 23.4 103.3 23.6 115.45 25.75 123.45 27.15 128.85 27.7 128.85 28.1 129.1 28.3 129.3 28.5 129.6 28.4 129.9 28.6 130.3 28.7 132.8822265625 29.5607421875 134.95 29.65 134.9642578125 29.7748046875 135 29.9 135.4 31.25 137.6 31.25 142.05 31.1 145.5 27.05 147.8 24.45 149.9 19.05 153.9 9 153.65 1.75 153.509765625 -1.19609375 152.7 -4.6 152.892578125 -5.3529296875 152.55 -6.65
L 151.3 -11.55
Q 150.15 -16.15 149.45 -18.35 148.25 -22.05 146.8 -24.8 145.4 -27.5 143.75 -28.45 142.2 -29.35 138.85 -29.45 118.05 -30 95.45 -29.4 90.85 -29.3 87.95 -28.9 84.822265625 -28.391796875 82.9 -27.3 82.8837890625 -27.301171875 82.85 -27.3 75.85 -27 72.4 -26.65
M 72 -25.1
Q 72 -25.25 71.95 -25.5 72.55 -25.55 73.25 -25.6 76.9966796875 -25.7634765625 81.35 -25.85 81.3671875 -25.7205078125 81.4 -25.6 81.5 -25.15 82.5 -25.05 84 -24.9 86.05 -25.1 94.0931640625 -25.551953125 102.15 -25.8 103.8443359375 -25.7400390625 105.6 -25.7 131.5 -25.1 139.3 -25.2
L 139.4 -25.55 139.25 -24.9
Q 139.2 -24.8 139.2 -24.65 138.9 -23.3 138.6 -21.95
L 138 -19.2
Q 137.85 -19.25 137.65 -19.25 106.45 -19.65 77.5 -20.65 76.25 -22.2 74.75 -22.95 74.2 -23.3 73.95 -22.85 74.4 -22 75.3 -21
L 76.85 -19.4
Q 78.05 -17.95 79 -15.45 79.6 -13.9 80.45 -10.85 81.15 -8.05 81.25 -7.8 82 -4.25 81.9 -0.5 81.65 4.8 79.75 9.7 79.2 11.05 78.55 12.15 77.25 14.25 75 15.7 73.65 16.6 70.75 17.8 72.1 17.75 73.35 17.25 77.65 18.2 84.25 18.55 94.05 19.05 95.2 19.15 98.7 19.5 103.15 20.15
L 129.7 23.95
Q 129.4 24.9 129.2 25.75 127 26.15 122.5 25.25 94.95 19.65 69.1 18.4 65.6 18.25 63.4 18.5 62.8 18.55 62.3 18.7
L 67 -2.9
Q 68.45 -9.6 69.35 -12.85 69.7 -14.2 70.45 -16.9
L 70.85 -18.15
Q 71.25 -19.65 71.4 -20.75 71.367578125 -20.620703125 71.3 -20.5 71.4796875 -21.167578125 71.55 -21.8 71.7169921875 -22.6767578125 71.6 -23.1 71.7037109375 -23.3638671875 71.85 -23.9 72.05 -24.65 72 -25.1
M 79.7 -17.1
Q 79.15 -18.25 78.55 -19.2
L 137.45 -17.4
Q 137.55 -17.4 137.6 -17.4
L 136.5 -12.5 136.1 -10.6 136.05 -10.5
Q 133.15 2.55 131.9 9.95 131.8 10.6 131.7 11.4
L 131.45 12.95
Q 131.45 13.1 131.4 13.2 130.95 16.05 130.4 20.1 130.15 21.5 129.95 22.7 96.65 17.35 74.95 16.5 75.6 16.1 76.3 15.6 78.9 13.5 80.45 10.15 82.05 6.55 82.8 0.35 83.05 -1.75 83.05 -3.4 83 -5.6 82.25 -8.75 81.1 -14.1 79.7 -17.1
M 140.35 -25.15
L 140.35 -25.2
Q 141.35 -24 142.3 -22.6 145.05 -18.25 146.6 -12.15 148.3 -4.95 147.8 3.45 147.2 14.6 143.25 21.85 142.15 23.75 141.25 24.7 139.2 26.9 135.9 27.15 133.7 27.3 130.7 26.45 130.95 25.6 131.2 24.7 131.5 23.65 131.75 22.55 131.75 22.4 131.8 22.25 131.95 21.55 132.1 20.8 132.1884765625 20.31328125 132.4 19.1 132.372265625 19.2111328125 132.35 19.3 132.4 19.05 132.45 18.8
L 133 15.05
Q 133.05 14.65 133.15 14.25 134.75 3.25 137.6 -9.9 137.95 -11.45 138.6 -14.5 139.6 -19.6 140.2 -24 140.3 -24.65 140.35 -25.15
M 142.45 -16.25
Q 142.3 -16.1 142.15 -15.5
L 141.2 -11.4
Q 136.1 10.25 134.1 21.7 133.7 23.9 133.45 24.6 133.25 25.1 133.3 25.3 133.45 25.85 134.1 25.65 140.05 24.3 142.7 19.65 143.55 18.25 144.3 15.95 146.25 10.25 146.85 3.95 147.4 -2.35 146.45 -8.55 146.2 -10.25 145.85 -11.35 145.35 -12.95 143.65 -15.6 142.95 -16.8 142.45 -16.25
M 145.45 -9.85
Q 145.95 -7.65 146.1 -3.6 146.3 1.85 145.9 5.25 145.35 9 143.6 14.75 142.9 17.2 142.25 18.5 141.6 19.75 140.65 20.75
L 139.95 21.4
Q 139.55 21.7 139.15 22
L 139.15 21.95
Q 137.3 23.2 134.8 23.8 135.55 18.05 138 7 138 6.75 138.05 6.55
L 138.25 5.7 142.8 -14.9
Q 144.65 -13.35 145.45 -9.85
M 75.9 -15.35
L 74.9 -17.55
Q 74.4 -18.6 73.9 -18.5 73.45 -18.45 73.15 -17.55 72.55 -15.9 71.95 -11.55 71.15 -5.75 69.95 -0.45
L 69.1 3.1
Q 67.85 8.2 67 11.1 66.35 13.1 66.25 14.2 66.2 15.1 66.45 15.45 66.7 15.75 67.35 15.75 70.05 15.65 71.25 14.9 71.75 14.55 72.7 13.65 73.7 12.65 73.95 12.35 74.65 11.6 75.85 9.8 77.15 7.65 77.8 5.95 78.85 3.1 79 -1.05 79.05 -3.55 78.7 -6.2 78.3 -9.7 77.1 -12.7 76.55 -14.15 75.9 -15.35
M 73.05 -14.35
Q 73.65 -14.65 74.1 -16.35
L 75.65 -13.45
Q 76.25 -12.3 76.35 -12 76.6 -11.4 77.1 -9.6
L 77.55 -7.5
Q 77.75 -6.4 77.95 -4.2 78.1 -2.3 78.1 -1.45 78.1 -1.35 77.95 0.45 77.8 2.25 77.65 3.15 77.25 4.95 76.25 6.9 75.45 8.5 74.75 9.65 74.2 10.55 73.6 11.1
L 72.55 11.95 72.4 12.05
Q 72.25 12.2 71.4 13.1
L 71.25 13.25
Q 71.05 13.4 70.85 13.5 69.6 14.2 67.35 14.2 68.25 11.25 69.2 6.6 71.75 -4.85 72.7 -11.85
L 73.05 -14.35 Z"/>

<path fill="#8B90AA" stroke="none" d="
M 131.2 24.7
Q 131.4 24.45 131.5 24.15 131.6 23.95 131.75 22.55 131.5 23.65 131.2 24.7
M 140.35 -25.2
L 140.35 -25.15
Q 140.3 -24.65 140.2 -24 139.6 -19.6 138.6 -14.5 137.95 -11.45 137.6 -9.9 134.75 3.25 133.15 14.25 133.05 14.65 133 15.05
L 132.45 18.8
Q 132.4 19.05 132.35 19.3 132.372265625 19.2111328125 132.4 19.1 132.572265625 18.40546875 132.75 17.65 133.95 13.35 134.05 12.85 134.35 11.55 135.1 6.4 135.85 2 138.4 -8.2 140.7 -17.5 141.4 -22.9 141.85 -22.75 142.3 -22.6 141.35 -24 140.35 -25.2
M 71.95 -25.5
Q 72 -25.25 72 -25.1 72.05 -24.65 71.85 -23.9 71.7037109375 -23.3638671875 71.6 -23.1 71.7169921875 -22.6767578125 71.55 -21.8 71.4796875 -21.167578125 71.3 -20.5 71.367578125 -20.620703125 71.4 -20.75 71.25 -19.65 70.85 -18.15
L 70.45 -16.9
Q 69.7 -14.2 69.35 -12.85 68.45 -9.6 67 -2.9
L 62.3 18.7
Q 62.8 18.55 63.4 18.5 64.35 14.9 65.6 9 67.15 1.45 67.9 -1.6 68 -1.95 70.65 -11.5 72.35 -17.45 73 -21.55 73.2326171875 -22.8056640625 73.25 -23.7 73.25 -23.475 73.25 -23.25 73.4 -23.25 73.65 -23.3 78.7 -23.8 81.25 -23.95 85 -24.15 92.45 -24.15 108.05 -24.1 115.85 -23.8 128.45 -23.3 138.6 -21.95 138.9 -23.3 139.2 -24.65 139.2 -24.8 139.25 -24.9
L 139.4 -25.55 139.3 -25.2
Q 131.5 -25.1 105.6 -25.7 103.8443359375 -25.7400390625 102.15 -25.8 94.0931640625 -25.551953125 86.05 -25.1 84 -24.9 82.5 -25.05 81.5 -25.15 81.4 -25.6 81.3671875 -25.7205078125 81.35 -25.85 76.9966796875 -25.7634765625 73.25 -25.6 72.55 -25.55 71.95 -25.5 Z"/>

<path fill="#4B506B" stroke="none" d="
M 141.4 -22.9
Q 140.7 -17.5 138.4 -8.2 135.85 2 135.1 6.4 134.35 11.55 134.05 12.85 133.95 13.35 132.75 17.65 132.572265625 18.40546875 132.4 19.1 132.1884765625 20.31328125 132.1 20.8 131.95 21.55 131.8 22.25 131.75 22.4 131.75 22.55 131.6 23.95 131.5 24.15 131.4 24.45 131.2 24.7 130.95 25.6 130.7 26.45 133.7 27.3 135.9 27.15 139.2 26.9 141.25 24.7 142.15 23.75 143.25 21.85 147.2 14.6 147.8 3.45 148.3 -4.95 146.6 -12.15 145.05 -18.25 142.3 -22.6 141.85 -22.75 141.4 -22.9
M 142.15 -15.5
Q 142.3 -16.1 142.45 -16.25 142.95 -16.8 143.65 -15.6 145.35 -12.95 145.85 -11.35 146.2 -10.25 146.45 -8.55 147.4 -2.35 146.85 3.95 146.25 10.25 144.3 15.95 143.55 18.25 142.7 19.65 140.05 24.3 134.1 25.65 133.45 25.85 133.3 25.3 133.25 25.1 133.45 24.6 133.7 23.9 134.1 21.7 136.1 10.25 141.2 -11.4
L 142.15 -15.5
M 73.95 -22.85
Q 74.2 -23.3 74.75 -22.95 76.25 -22.2 77.5 -20.65 106.45 -19.65 137.65 -19.25 137.85 -19.25 138 -19.2
L 138.6 -21.95
Q 128.45 -23.3 115.85 -23.8 108.05 -24.1 92.45 -24.15 85 -24.15 81.25 -23.95 78.7 -23.8 73.65 -23.3 73.4 -23.25 73.25 -23.25 73.25 -23.475 73.25 -23.7 73.2326171875 -22.8056640625 73 -21.55 72.35 -17.45 70.65 -11.5 68 -1.95 67.9 -1.6 67.15 1.45 65.6 9 64.35 14.9 63.4 18.5 65.6 18.25 69.1 18.4 94.95 19.65 122.5 25.25 127 26.15 129.2 25.75 129.4 24.9 129.7 23.95
L 103.15 20.15
Q 98.7 19.5 95.2 19.15 94.05 19.05 84.25 18.55 77.65 18.2 73.35 17.25 72.1 17.75 70.75 17.8 73.65 16.6 75 15.7 77.25 14.25 78.55 12.15 79.2 11.05 79.75 9.7 81.65 4.8 81.9 -0.5 82 -4.25 81.25 -7.8 81.15 -8.05 80.45 -10.85 79.6 -13.9 79 -15.45 78.05 -17.95 76.85 -19.4
L 75.3 -21
Q 74.4 -22 73.95 -22.85
M 74.9 -17.55
L 75.9 -15.35
Q 76.55 -14.15 77.1 -12.7 78.3 -9.7 78.7 -6.2 79.05 -3.55 79 -1.05 78.85 3.1 77.8 5.95 77.15 7.65 75.85 9.8 74.65 11.6 73.95 12.35 73.7 12.65 72.7 13.65 71.75 14.55 71.25 14.9 70.05 15.65 67.35 15.75 66.7 15.75 66.45 15.45 66.2 15.1 66.25 14.2 66.35 13.1 67 11.1 67.85 8.2 69.1 3.1
L 69.95 -0.45
Q 71.15 -5.75 71.95 -11.55 72.55 -15.9 73.15 -17.55 73.45 -18.45 73.9 -18.5 74.4 -18.6 74.9 -17.55 Z"/>

<path fill="#CC9966" stroke="none" d="
M 141 13.7
Q 140.65 16.1 140.05 18.5 139.6 20.5 139.15 21.95
L 139.15 22
Q 139.55 21.7 139.95 21.4
L 140.65 20.75
Q 140.75 19.7 140.95 18 142 9.45 143.4 1.6 142 6.15 141.4 10.65
L 141 13.7
M 138.3 5.75
L 138.25 5.7 138.05 6.55
Q 138 6.75 138 7 138.15 7 138.35 7 138.55 7.1 139 7.35 139.4 7.55 139.65 7.4 139.7 6.85 139.2 6.35
L 138.3 5.75
M 78.55 -19.2
Q 79.15 -18.25 79.7 -17.1 81.1 -14.1 82.25 -8.75 83 -5.6 83.05 -3.4 83.05 -1.75 82.8 0.35 82.05 6.55 80.45 10.15 78.9 13.5 76.3 15.6 75.6 16.1 74.95 16.5 96.65 17.35 129.95 22.7 130.15 21.5 130.4 20.1 130.95 16.05 131.4 13.2 131.1 13.15 130.8 13.1
L 118.6 11.15
Q 118.75 10.8 119.2 10.8 121.25 10.6 124.15 10.7 125.85 10.8 129.25 11.1 130.6 11.25 131.7 11.4 131.8 10.6 131.9 9.95 133.15 2.55 136.05 -10.5
L 136.1 -10.6
Q 134.4 -10.7 133.3 -10.75
L 113.95 -12.3
Q 115.85 -12.6 117.7 -12.6
L 121.35 -12.45
Q 126.35 -12.2 133 -12.35 133.45 -12.4 136.5 -12.5
L 137.6 -17.4
Q 137.55 -17.4 137.45 -17.4
L 78.55 -19.2
M 94.2 -3.5
Q 96.65 -3 97.6 -2.9 99.45 -2.75 103.1 -3.1 105.75 -3.2 111.05 -2.5
L 120.4 -1.2
Q 121.9 -1 122.55 -0.6 115.4 -0.6 112.45 -0.7 106.8 -0.85 102.4 -1.4
L 98.4 -1.95
Q 91.6 -3 88.2 -3.6 89.35 -3.95 90.75 -3.95 92 -3.9 94.2 -3.5
M 126.5 19.15
Q 126.5 19.45 126.1 19.55 124.45 19.9 120.55 19.5
L 113.55 18.7
Q 110.7 18.4 109.3 18.05 107 17.4 105.85 17.2 105.35 17.1 102.85 16.85 96.3 16.3 84.45 13.9 86.6 13.3 89.7 13.9 91.5 14.2 95.05 15 96.6 15.25 99.7 15.3 102.85 15.35 104.35 15.55 105.65 15.7 108.2 16.25 110.2 16.65 117.2 17.2 122.8 17.7 126.15 18.75 126.5 19 126.5 19.15
M 74.1 -16.35
Q 73.65 -14.65 73.05 -14.35
L 72.7 -11.85
Q 71.75 -4.85 69.2 6.6 68.25 11.25 67.35 14.2 69.6 14.2 70.85 13.5 71.4 11.55 72.05 9.3
L 75.6 -3
Q 75.3 -0.4 74.15 4.95
L 72.55 11.95 73.6 11.1
Q 74.2 10.55 74.75 9.65 75.45 8.5 76.25 6.9 77.25 4.95 77.65 3.15 77.8 2.25 77.95 0.45 78.1 -1.35 78.1 -1.45 78.1 -2.3 77.95 -4.2 77.75 -6.4 77.55 -7.5
L 77.1 -9.6
Q 76.6 -11.4 76.35 -12 76.25 -12.3 75.65 -13.45
L 74.1 -16.35 Z"/>

<path fill="#483828" stroke="none" d="
M 146.1 -3.6
Q 145.95 -7.65 145.45 -9.85 144.65 -13.35 142.8 -14.9
L 138.25 5.7 138.3 5.75 139.2 6.35
Q 139.7 6.85 139.65 7.4 139.4 7.55 139 7.35 138.55 7.1 138.35 7 138.15 7 138 7 135.55 18.05 134.8 23.8 137.3 23.2 139.15 21.95 139.6 20.5 140.05 18.5 140.65 16.1 141 13.7
L 141.4 10.65
Q 142 6.15 143.4 1.6 142 9.45 140.95 18 140.75 19.7 140.65 20.75 141.6 19.75 142.25 18.5 142.9 17.2 143.6 14.75 145.35 9 145.9 5.25 146.3 1.85 146.1 -3.6
M 129.25 11.1
Q 125.85 10.8 124.15 10.7 121.25 10.6 119.2 10.8 118.75 10.8 118.6 11.15
L 130.8 13.1
Q 131.1 13.15 131.4 13.2 131.45 13.1 131.45 12.95
L 131.7 11.4
Q 130.6 11.25 129.25 11.1
M 121.35 -12.45
L 117.7 -12.6
Q 115.85 -12.6 113.95 -12.3
L 133.3 -10.75
Q 134.4 -10.7 136.1 -10.6
L 136.5 -12.5
Q 133.45 -12.4 133 -12.35 126.35 -12.2 121.35 -12.45
M 126.1 19.55
Q 126.5 19.45 126.5 19.15 126.5 19 126.15 18.75 122.8 17.7 117.2 17.2 110.2 16.65 108.2 16.25 105.65 15.7 104.35 15.55 102.85 15.35 99.7 15.3 96.6 15.25 95.05 15 91.5 14.2 89.7 13.9 86.6 13.3 84.45 13.9 96.3 16.3 102.85 16.85 105.35 17.1 105.85 17.2 107 17.4 109.3 18.05 110.7 18.4 113.55 18.7
L 120.55 19.5
Q 124.45 19.9 126.1 19.55
M 97.6 -2.9
Q 96.65 -3 94.2 -3.5 92 -3.9 90.75 -3.95 89.35 -3.95 88.2 -3.6 91.6 -3 98.4 -1.95
L 102.4 -1.4
Q 106.8 -0.85 112.45 -0.7 115.4 -0.6 122.55 -0.6 121.9 -1 120.4 -1.2
L 111.05 -2.5
Q 105.75 -3.2 103.1 -3.1 99.45 -2.75 97.6 -2.9
M 72.4 12.05
L 72.55 11.95 74.15 4.95
Q 75.3 -0.4 75.6 -3
L 72.05 9.3
Q 71.4 11.55 70.85 13.5 71.05 13.4 71.25 13.25
L 71.4 13.1
Q 72.25 12.2 72.4 12.05 Z"/>
</g>

<g id="light_1_Layer0_0_FILL">
<path fill="url(#Gradient_1)" stroke="none" d="
M 11.8 33.8
Q 11.35 34.05 10.9 34.35 32.75 86.4 38.9 104.35 41.5 112.1 44.05 121.25 49.55 123.65 64.45 126.25 79.3 128.85 98.4 132.4 117.4 135.9 138.45 116.9 175.3 41.25 181.6 11.7 157.2 4.25 136.8 4.25 93.55 4.25 47.2 19.1 26.05 25.85 11.8 33.8 Z"/>
</g>

<g id="gold_0_Layer0_0_FILL">
<path fill="#FFCC00" stroke="none" d="
M 7.15 11.35
L 6.1 11.4 5.5 11.5 6.15 11.65 10.85 11.2 7.15 11.35
M 17.1 1.2
L 17 2.3
Q 15.9 2.6 14.85 2.9 11.65 3.5 8.15 3.45
L 5.95 3.5 7.65 3.65
Q 12.5 4.3 17.1 2.55
L 16.65 4.25
Q 16.4751953125 4.3171875 16.3 4.35 15.8251953125 4.540234375 15.35 4.65 13.119140625 5.36875 10.8 5.65 8.51953125 5.9462890625 6.15 5.8 6.237890625 5.8126953125 6.35 5.85 10.8 6.9 15.2 5.65
L 17.55 4.65 17.9 1.25
Q 17.4 0.85 16.85 0.65 14.1 0 11.25 0.1 9.05 0.35 6.95 0.95 5.3 1.35 4.1 2.4 2.85 3.5 3.5 5.2 3.05 5.3 2.7 5.5 1.95 5.75 1.25 6.15 0.95 6.4 0.7 6.7
L 0.5 9.95 1.75 10.7 1.6 13.3 3.15 13.85 2.6 15.55 1.6 16.15
Q 1.55 17.45 1.8 18.75 1.85 19.15 2.3 19.4 2.7 19.65 3.2 19.75 3 20.2 3 20.7 2.95 21.4 3.15 22.2 3.25 22.5 3.5 22.85 5.05 23.15 6.65 23.45 10.2 23.8 13.55 23.1 15.35 22.55 16.6 21.35 18.15 19.85 17.05 17.85 16.25 17.9 15.5 17.95 15.45 17.8 15.45 17.65
L 15.75 16
Q 15.9 15.65 16.15 15.35 17.05 14.3 16.5 13.05 16.3 12.6 16 12.25
L 15.95 9.3 15.15 8.3 15.15 5.75 14.55 8.8 13.3 9.35 11.35 10.2
Q 12.7216796875 10.7029296875 13.9 10.05 14.038671875 10.0185546875 14.15 9.95 14.85 9.55 15.05 9.15
L 15.25 9.8 13.65 10.4 12.1 11 12.05 11 11.7 11.15 15.4 10.45 14.75 12.3
Q 14.3078125 12.4607421875 13.85 12.6 13.2279296875 12.8607421875 12.6 13.1
L 11.25 13.4
Q 11.045703125 13.4833984375 10.8 13.5
L 10.75 13.5
Q 8.24921875 13.954296875 5.75 13.55
L 3 13.15 1.95 12.85 2.25 10.9 3.4 11.1 6 11.3 7.15 11.35 7.7 11.2 7.7 11.2 10.05 10.6 5.6 10.45 2.45 10.35 1 9.1 1.5 7.85 4.2 8.4
Q 5.75 8.45 7.3 8.5 9.35 8.2 11.45 7.95 13.25 7.6 13.1 7.2
L 3.2 7.5 1.6 6.65 2.8 5.95 3.4 6 4.3 5.55 4 3.15 4.15 2.6
Q 4.6 2.3 5.1 2.05 9.85 0.4 14.95 0.75
L 17.1 1.2
M 5.5 14.3
L 7.9 14.45
Q 8.7 14.4 9.5 14.15 12.8 13.65 15.95 12.75
L 15.8 14.5
Q 15.575390625 14.6404296875 15.35 14.75
L 15 14.95
Q 12.630078125 16.2068359375 9.95 16.4 8.89921875 16.4845703125 7.8 16.4
L 5.05 16.15 3.8 15.8 3.65 13.95 5.5 14.3
M 2.15 18.4
L 2.2 16.45 2.7 16.2
Q 2.8 16.1 2.95 16.05 3 16.15 3.1 16.3
L 3.8 16.85
Q 6.6 17.1 9.45 17.35 10.6 17.25 11.75 16.95 13.4 16.55 15.05 16.25
L 15 16.3 14.05 18.6
Q 12.9 18.85 11.75 19.15
L 11.65 19.15
Q 8.0515625 19.592578125 4.55 19.05
L 2.15 18.4
M 3.9 21.95
L 3.95 19.85 6.75 20.15
Q 11 20.75 14.95 19.15
L 15.45 18.4 16.4 18.6
Q 16.4240234375 18.7283203125 16.45 18.85 16.4892578125 19.2716796875 16.4 19.65
L 16.4 19.7
Q 16.41171875 19.7708984375 16.4 19.8 16.3830078125 19.844921875 16.35 19.85
L 16.35 19.9
Q 16.325390625 19.9837890625 16.3 20.05 16 20.9 15.1 21.35 13.507421875 22.1564453125 11.85 22.5 9.39609375 23.0072265625 6.8 22.5
L 3.9 21.95 Z"/>

<path fill="#B6A14B" stroke="none" d="
M 6.1 11.4
L 7.15 11.35 6 11.3 6.1 11.4
M 2.7 16.2
L 3.1 16.3
Q 3 16.15 2.95 16.05 2.8 16.1 2.7 16.2 Z"/>

<path fill="#FFFFFF" stroke="none" d="
M 2.95 8.95
Q 3.5 8.4 4.2 8.4
L 1.5 7.85 1 9.1 2.45 10.35
Q 2.45 9.55 2.95 8.95
M 3.4 6
L 2.8 5.95 1.6 6.65 3.2 7.5 3 7 4.3 5.55 3.4 6
M 5.95 3.5
L 8.15 3.45 14.95 0.75
Q 9.85 0.4 5.1 2.05 4.6 2.3 4.15 2.6
L 4 3.15
Q 4.25 3.2 4.5 3.4 6.1 4.1 7.65 3.65
L 5.95 3.5
M 3.95 19.85
L 3.9 21.95 6.8 22.5 6.75 20.15 3.95 19.85
M 2.2 16.45
L 2.15 18.4 4.55 19.05
Q 4.6 18.9 4.65 18.8 5.4 17.3 3.8 16.85
L 3.1 16.3 2.7 16.2 2.2 16.45
M 7.8 16.4
L 7.9 14.45 5.5 14.3 5.05 16.15 7.8 16.4 Z"/>

<path fill="#FFF08E" stroke="none" d="
M 14.15 9.95
Q 14.038671875 10.0185546875 13.9 10.05 13.83203125 10.2533203125 13.65 10.4
L 15.25 9.8 15.05 9.15
Q 14.85 9.55 14.15 9.95
M 12.05 11
Q 11.8583984375 11.0265625 11.6 11.05
L 9.5 11.2
Q 8.2888671875 11.2431640625 7.7 11.2
L 7.15 11.35 10.85 11.2 6.15 11.65 5.5 11.5 6.1 11.4 6 11.3 3.4 11.1 2.25 10.9 1.95 12.85 3 13.15 5.75 13.55
Q 8.24921875 13.954296875 10.75 13.5 10.1634765625 13.471875 9.7 13.35 9.25 13.25 9.05 13.05 8.65 12.65 8.8 12.35 8.85 11.95 9.75 11.7
L 13.1 11
Q 13.6 10.9 13.9 11.4 14.1 11.85 13.95 12.45 13.9173828125 12.5373046875 13.85 12.6 14.3078125 12.4607421875 14.75 12.3
L 15.4 10.45 11.7 11.15 12.05 11
M 15.85 3.55
Q 16.15 3.65 16.3 3.9 16.4255859375 4.067578125 16.3 4.35 16.4751953125 4.3171875 16.65 4.25
L 17.1 2.55
Q 12.5 4.3 7.65 3.65 6.1 4.1 4.5 3.4 4.25 3.2 4 3.15
L 4.3 5.55 3 7 3.2 7.5 13.1 7.2
Q 13.25 7.6 11.45 7.95 9.35 8.2 7.3 8.5 5.75 8.45 4.2 8.4 3.5 8.4 2.95 8.95 2.45 9.55 2.45 10.35
L 5.6 10.45
Q 5.2931640625 10.15234375 5.25 9.85 5.15 9.2 6 8.9 6.3 8.8 7.35 8.8 8.25 8.85 11.2 8.4 12.25 8.1 12.9 8.3 13.6955078125 8.4591796875 13.95 9.05
L 13.3 9.35 14.55 8.8 15.15 5.75 15.2 5.65
Q 10.8 6.9 6.35 5.85 6.237890625 5.8126953125 6.15 5.8 8.51953125 5.9462890625 10.8 5.65 10.4310546875 5.5568359375 10.25 5.35
L 10.15 5.05 10.35 4.85
Q 10.65 4.55 10.85 4.45 11.3 4.1 12.2 4
L 14.6 3.6
Q 15.35 3.45 15.85 3.55
M 6.75 20.15
L 6.8 22.5
Q 9.39609375 23.0072265625 11.85 22.5 11.3478515625 22.4326171875 11 22.15 10.6 21.85 10.75 21.45 10.8 21.3 11.15 21.05 12.45 20.25 15.75 19.1 16.1044921875 18.97421875 16.45 18.85 16.4240234375 18.7283203125 16.4 18.6
L 15.45 18.4 14.95 19.15
Q 11 20.75 6.75 20.15
M 4.65 18.8
Q 4.6 18.9 4.55 19.05 8.0515625 19.592578125 11.65 19.15 11.3544921875 19.083203125 11.1 18.95 10.6 18.75 10.55 18.4 10.5 17.85 11.4 17.4 12.05 17.15 13.9 16.65 14.515625 16.4712890625 15 16.3
L 15.05 16.25
Q 13.4 16.55 11.75 16.95 10.6 17.25 9.45 17.35 6.6 17.1 3.8 16.85 5.4 17.3 4.65 18.8
M 3.8 15.8
L 5.05 16.15 5.5 14.3 3.65 13.95 3.8 15.8
M 7.9 14.45
L 7.8 16.4
Q 8.89921875 16.4845703125 9.95 16.4 9.5337890625 16.223046875 9.4 16 9.1 15.7 9.25 15.25 9.35 14.85 10.05 14.65 11.2 14.25 13.6 13.85 14.2 13.65 14.55 13.65 15.1 13.65 15.45 14 15.68984375 14.2638671875 15.7 14.55 15.5248046875 14.6626953125 15.35 14.75 15.575390625 14.6404296875 15.8 14.5
L 15.95 12.75
Q 12.8 13.65 9.5 14.15 8.7 14.4 7.9 14.45
M 17 2.3
L 17.1 1.2 14.95 0.75 8.15 3.45
Q 11.65 3.5 14.85 2.9 15.9 2.6 17 2.3 Z"/>

<path fill="#FFE74F" stroke="none" d="
M 13.9 11.4
Q 13.6 10.9 13.1 11
L 9.75 11.7
Q 8.85 11.95 8.8 12.35 8.65 12.65 9.05 13.05 9.25 13.25 9.7 13.35 10.1634765625 13.471875 10.75 13.5
L 10.8 13.5
Q 11.045703125 13.4833984375 11.25 13.4
L 12.6 13.1
Q 13.2279296875 12.8607421875 13.85 12.6 13.9173828125 12.5373046875 13.95 12.45 14.1 11.85 13.9 11.4
M 13.95 9.05
Q 13.6955078125 8.4591796875 12.9 8.3 12.25 8.1 11.2 8.4 8.25 8.85 7.35 8.8 6.3 8.8 6 8.9 5.15 9.2 5.25 9.85 5.2931640625 10.15234375 5.6 10.45
L 10.05 10.6 7.7 11.2 7.7 11.2
Q 8.2888671875 11.2431640625 9.5 11.2
L 11.6 11.05
Q 11.8583984375 11.0265625 12.05 11
L 12.1 11 13.65 10.4
Q 13.83203125 10.2533203125 13.9 10.05 12.7216796875 10.7029296875 11.35 10.2
L 13.3 9.35 13.95 9.05
M 16.3 3.9
Q 16.15 3.65 15.85 3.55 15.35 3.45 14.6 3.6
L 12.2 4
Q 11.3 4.1 10.85 4.45 10.65 4.55 10.35 4.85
L 10.15 5.05 10.25 5.35
Q 10.4310546875 5.5568359375 10.8 5.65 13.119140625 5.36875 15.35 4.65 15.8251953125 4.540234375 16.3 4.35 16.4255859375 4.067578125 16.3 3.9
M 11.85 22.5
Q 13.507421875 22.1564453125 15.1 21.35 16 20.9 16.3 20.05 16.325390625 19.9837890625 16.35 19.9
L 16.35 19.85
Q 16.3830078125 19.844921875 16.4 19.8 16.41171875 19.7708984375 16.4 19.7
L 16.4 19.65
Q 16.4892578125 19.2716796875 16.45 18.85 16.1044921875 18.97421875 15.75 19.1 12.45 20.25 11.15 21.05 10.8 21.3 10.75 21.45 10.6 21.85 11 22.15 11.3478515625 22.4326171875 11.85 22.5
M 11.4 17.4
Q 10.5 17.85 10.55 18.4 10.6 18.75 11.1 18.95 11.3544921875 19.083203125 11.65 19.15
L 11.75 19.15
Q 12.9 18.85 14.05 18.6
L 15 16.3
Q 14.515625 16.4712890625 13.9 16.65 12.05 17.15 11.4 17.4
M 9.4 16
Q 9.5337890625 16.223046875 9.95 16.4 12.630078125 16.2068359375 15 14.95
L 15.35 14.75
Q 15.5248046875 14.6626953125 15.7 14.55 15.68984375 14.2638671875 15.45 14 15.1 13.65 14.55 13.65 14.2 13.65 13.6 13.85 11.2 14.25 10.05 14.65 9.35 14.85 9.25 15.25 9.1 15.7 9.4 16 Z"/>
</g>

<g id="gold_2_Layer0_0_FILL">
<path fill="#FFCC00" stroke="none" d="
M 2.95 12.4
L 2.9 15.1 1.6 16.15
Q 1.85 17.65 2.35 19.1 2.45 19.45 2.75 19.7
L 3.2 19.75
Q 3.15 20.8 3.25 21.85 3.3 22.35 3.5 22.85 6.55 23.7 9.8 23.6 17.4 24.05 17.05 17.85 16.25 17.9 15.5 17.95 15.45 17.8 15.45 17.65
L 16.15 15.35 16.75 14.15
Q 16.9 12.55 15.8 12 9.65 8.4 2.95 12.4
M 4.55 14.45
Q 4.55 14.4 4.5 14.35 4.2 13.6 4.75 13.15 10.15 10.3 15.4 12.6
L 15.6 13.55 15.8 14.5
Q 15.4 14.7 15 14.95 13.205859375 15.926171875 11.3 16.25 9.5947265625 16.5888671875 7.8 16.4
L 5.05 16.15 4.35 15.75 4.55 14.45
M 2.15 18.4
L 2.2 16.45 2.7 16.2
Q 2.8 16.1 2.95 16.05 3 16.15 3.1 16.3
L 3.8 16.85
Q 7.8708984375 16.6318359375 11.95 16.4
L 11.95 16.4
Q 12.6099609375 16.371875 13.25 16.35
L 14.5 16.25
Q 14.7875 16.2638671875 15.05 16.25
L 14.8 16.85 14.05 18.6
Q 12.9 18.85 11.75 19.15 11.71640625 19.156640625 11.65 19.15 8.1623046875 19.841796875 4.55 19.05
L 2.15 18.4
M 3.9 21.95
L 3.95 19.85 6.75 20.15
Q 8.3708984375 20.4359375 9.95 20.35 12.3505859375 20.23984375 14.65 19.25 14.8009765625 19.216015625 14.95 19.15
L 15.45 18.4 16.4 18.6
Q 16.45 18.95 16.3 19.2 15.6193359375 20.2634765625 14.8 21 12.7400390625 22.9287109375 9.8 22.9 8.4 22.9318359375 6.8 22.5
L 3.9 21.95 Z"/>

<path fill="#FFF08E" stroke="none" d="
M 14.95 19.15
Q 14.8009765625 19.216015625 14.65 19.25 14.8 19.8125 14.8 20.6
L 14.8 21
Q 15.6193359375 20.2634765625 16.3 19.2 16.45 18.95 16.4 18.6
L 15.45 18.4 14.95 19.15
M 6.75 20.15
L 6.8 22.5
Q 8.4 22.9318359375 9.8 22.9 9.686328125 21.4595703125 9.95 20.35 8.3708984375 20.4359375 6.75 20.15
M 14.5 16.25
Q 14.6943359375 16.508984375 14.8 16.85
L 15.05 16.25
Q 14.7875 16.2638671875 14.5 16.25
M 3.8 16.85
L 4.75 17.4 4.55 19.05
Q 8.1623046875 19.841796875 11.65 19.15 11.75 18.6177734375 11.75 18.05 11.75 16.8615234375 11.95 16.4 7.8708984375 16.6318359375 3.8 16.85
M 4.35 15.75
L 5.05 16.15 5.65 15 4.55 14.45 4.35 15.75
M 9.7 15.15
Q 8.75 15.15 7.85 15.2
L 7.8 16.4
Q 9.5947265625 16.5888671875 11.3 16.25 11.15 16.0951171875 11.15 15.9 11.15 15.25 12 15.05 12.1 15.05 13.5 14.7 14.4 14.55 14.9 14.2 15.2140625 13.9802734375 15.6 13.55
L 15.4 12.6
Q 10.15 10.3 4.75 13.15 8.7 14.9 12.85 13.6 13 13.6 13.15 13.6
L 13.25 13.5
Q 13.35 13.65 13.35 13.9 11.85 15.25 9.7 15.15 Z"/>

<path fill="#FFE74F" stroke="none" d="
M 9.95 20.35
Q 9.686328125 21.4595703125 9.8 22.9 12.7400390625 22.9287109375 14.8 21
L 14.8 20.6
Q 14.8 19.8125 14.65 19.25 12.3505859375 20.23984375 9.95 20.35
M 11.95 16.4
L 11.95 16.4
Q 11.75 16.8615234375 11.75 18.05 11.75 18.6177734375 11.65 19.15 11.71640625 19.156640625 11.75 19.15 12.9 18.85 14.05 18.6
L 14.8 16.85
Q 14.6943359375 16.508984375 14.5 16.25
L 13.25 16.35
Q 12.6099609375 16.371875 11.95 16.4
M 15.8 14.5
L 15.6 13.55
Q 15.2140625 13.9802734375 14.9 14.2 14.4 14.55 13.5 14.7 12.1 15.05 12 15.05 11.15 15.25 11.15 15.9 11.15 16.0951171875 11.3 16.25 13.205859375 15.926171875 15 14.95 15.4 14.7 15.8 14.5 Z"/>

<path fill="#FFFFFF" stroke="none" d="
M 3.95 19.85
L 3.9 21.95 6.8 22.5 6.75 20.15 3.95 19.85
M 2.2 16.45
L 2.15 18.4 4.55 19.05 4.75 17.4 3.8 16.85 3.1 16.3 2.7 16.2 2.2 16.45
M 7.85 15.2
Q 8.75 15.15 9.7 15.15 11.85 15.25 13.35 13.9 13.35 13.65 13.25 13.5
L 13.15 13.6
Q 13 13.6 12.85 13.6 8.7 14.9 4.75 13.15 4.2 13.6 4.5 14.35 4.55 14.4 4.55 14.45
L 5.65 15 5.05 16.15 7.8 16.4 7.85 15.2 Z"/>

<path fill="#B6A14B" stroke="none" d="
M 2.7 16.2
L 3.1 16.3
Q 3 16.15 2.95 16.05 2.8 16.1 2.7 16.2 Z"/>
</g>

<g id="gold_1_Layer0_0_FILL">
<path fill="#B6A14B" stroke="none" d="
M 6.15 17.65
Q 6.75 17.65 7.85 17.55
L 10.65 17.3
Q 13.45 17.1 14.85 16.35 14.918359375 16.3078125 15 16.25 13.371484375 16.5568359375 11.75 16.95 10.6 17.25 9.45 17.35 6.7041015625 17.1091796875 4 16.85 4.0814453125 16.92578125 4.15 16.95 4.405078125 17.0865234375 4.55 17.25
L 4.6 17.25
Q 5.25 17.6 6.15 17.65
M 7.15 11.35
L 6 11.3 6.1 11.4 7.15 11.35 Z"/>

<path fill="#FFFFFF" stroke="none" d="
M 6.15 11.65
L 5.5 11.5 6.1 11.4 6 11.3 3.4 11.1 3 13.15 5.75 13.55 6.15 11.65
M 2.95 8.95
Q 3.5 8.4 4.2 8.4
L 1.5 7.85 1 9.1 2.45 10.35
Q 2.45 9.55 2.95 8.95
M 3.4 6
L 2.8 5.95 1.6 6.65 3.2 7.5 3 7 4.3 5.55 3.4 6
M 5.95 3.5
L 8.15 3.45 14.95 0.75
Q 9.85 0.4 5.1 2.05 4.6 2.3 4.15 2.6
L 4 3.15
Q 4.25 3.2 4.5 3.4 6.1 4.1 7.65 3.65
L 5.95 3.5
M 7.9 14.45
L 5.5 14.3 5.05 16.15 7.8 16.4 7.9 14.45 Z"/>

<path fill="#FFCC00" stroke="none" d="
M 7.15 11.35
L 6.1 11.4 5.5 11.5 6.15 11.65 10.85 11.2 7.15 11.35
M 16 2.9
Q 16.5541015625 2.7578125 17.1 2.55
L 17.05 2.6 16.65 4.25
Q 16 4.5 15.35 4.65 12.5734375 5.5447265625 9.7 5.75 7.9431640625 5.9107421875 6.15 5.8 6.237890625 5.8126953125 6.35 5.85 10.0794921875 6.730078125 13.75 6 14.4876953125 5.85234375 15.2 5.65
L 17.55 4.65 17.9 1.25
Q 17.4 0.85 16.85 0.65 14.1 0 11.25 0.1 9.05 0.35 6.95 0.95 5.3 1.35 4.1 2.4 2.85 3.5 3.5 5.2 3.05 5.3 2.7 5.5 1.95 5.75 1.25 6.15 0.95 6.4 0.7 6.7
L 0.5 9.95 1.75 10.7 1.6 13.3 3.15 13.85 2.6 15.55 2.4 15.65
Q 2.72890625 15.861328125 3.1 16.15 3.6427734375 16.5984375 4 16.85 6.7041015625 17.1091796875 9.45 17.35 10.6 17.25 11.75 16.95 13.371484375 16.5568359375 15 16.25 15.3861328125 16.0123046875 15.95 15.6 16.039453125 15.4826171875 16.15 15.35 17.05 14.3 16.5 13.05 16.3 12.6 16 12.25
L 15.95 9.3 15.15 8.3 15.15 5.75 14.7 8.05 14.55 8.8 11.35 10.2
Q 12.85 10.75 14.15 9.95 14.85 9.55 15.05 9.15
L 15.25 9.8 12.95 10.65 11.7 11.15 15.4 10.45 15.35 10.55 14.75 12.3
Q 13.65 12.7 12.6 13.1 12.524609375 13.121875 12.45 13.15
L 12.25 13.2
Q 8.9861328125 14.0734375 5.75 13.55
L 3 13.15 1.95 12.85 2.25 10.9 3.4 11.1 6 11.3 7.15 11.35 9.65 10.7 10.05 10.6 9.1 10.55 2.45 10.35 1 9.1 1.5 7.85 4.2 8.4
Q 5.75 8.45 7.3 8.5 9.35 8.2 11.45 7.95 13.25 7.6 13.1 7.2
L 3.2 7.5 1.6 6.65 2.8 5.95 3.4 6 4.3 5.55 4 3.15 4.15 2.6
Q 4.6 2.3 5.1 2.05 9.85 0.4 14.95 0.75
L 17.1 1.2 17 2.3
Q 15.9 2.6 14.85 2.9 11.65 3.5 8.15 3.45
L 5.95 3.5 7.65 3.65
Q 9.109375 3.8455078125 10.55 3.8 12.749609375 3.7919921875 14.9 3.25 15.4541015625 3.1078125 16 2.9
M 5.5 14.3
L 7.9 14.45
Q 8.7 14.4 9.5 14.15 12.1349609375 13.75078125 14.65 13.1 15.315234375 12.9314453125 15.95 12.75
L 15.8 14.5
Q 15.4 14.75 15 14.95 13.25859375 15.8734375 11.35 16.2 9.6419921875 16.5416015625 7.8 16.4
L 5.05 16.15 3.8 15.8 3.65 13.95 5.5 14.3 Z"/>

<path fill="#FFF08E" stroke="none" d="
M 3.4 11.1
L 2.25 10.9 1.95 12.85 3 13.15 3.4 11.1
M 10.25 12.35
Q 10.3 12.15 10.75 12.05 12.3 11.7 12.95 11.5 13.8373046875 11.226953125 15.35 10.55
L 15.4 10.45 11.7 11.15 12.95 10.65
Q 12.8275390625 10.6884765625 12.7 10.7
L 10.45 10.8
Q 10.136328125 10.8 9.65 10.7
L 7.15 11.35 10.85 11.2 6.15 11.65 5.75 13.55
Q 8.9861328125 14.0734375 12.25 13.2 11.8712890625 13.29609375 11.45 13.35 10.8142578125 13.183984375 10.4 12.75 10.2 12.55 10.25 12.35
M 10.35 3.85
L 10.55 3.8
Q 9.109375 3.8455078125 7.65 3.65 6.1 4.1 4.5 3.4 4.25 3.2 4 3.15
L 4.3 5.55 3 7 3.2 7.5 13.1 7.2
Q 13.25 7.6 11.45 7.95 9.35 8.2 7.3 8.5 5.75 8.45 4.2 8.4 3.5 8.4 2.95 8.95 2.45 9.55 2.45 10.35
L 9.1 10.55
Q 8.6884765625 10.3884765625 8.55 10.25 8.25 9.95 8.3 9.65 8.4 9.25 8.8 9.15
L 9.5 8.95 10.6 8.45
Q 11.05 8.3 12 8.2 12.8962890625 8.100390625 14.8 7.35
L 14.7 8.05 15.15 5.75 15.1 5.8 14.75 5.9
Q 14.266796875 5.96171875 13.75 6 10.0794921875 6.730078125 6.35 5.85 6.237890625 5.8126953125 6.15 5.8 7.9431640625 5.9107421875 9.7 5.75 9.102734375 5.673046875 8.8 5.5 8.2 5.1 8.3 4.55 8.95 3.95 10.35 3.85
M 17 2.3
L 17.1 1.2 14.95 0.75 8.15 3.45
Q 11.65 3.5 14.85 2.9 15.9 2.6 17 2.3
M 3.8 15.8
L 5.05 16.15 5.5 14.3 3.65 13.95 3.8 15.8
M 7.9 14.45
L 7.8 16.4
Q 9.6419921875 16.5416015625 11.35 16.2 11.271484375 16.19296875 11.2 16.15 10.8 16 10.65 15.6 10.45 15.25 10.65 14.9 10.8 14.6 11.65 14.3 13.3 13.8 14.45 13.2 14.5609375 13.14921875 14.65 13.1 12.1349609375 13.75078125 9.5 14.15 8.7 14.4 7.9 14.45
M 16 2.9
L 17.05 2.6 17.1 2.55
Q 16.5541015625 2.7578125 16 2.9 Z"/>

<path fill="#FFE74F" stroke="none" d="
M 10.75 12.05
Q 10.3 12.15 10.25 12.35 10.2 12.55 10.4 12.75 10.8142578125 13.183984375 11.45 13.35 11.8712890625 13.29609375 12.25 13.2
L 12.45 13.15
Q 12.524609375 13.121875 12.6 13.1 13.65 12.7 14.75 12.3
L 15.35 10.55
Q 13.8373046875 11.226953125 12.95 11.5 12.3 11.7 10.75 12.05
M 14.55 8.8
L 14.7 8.05 14.8 7.35
Q 12.8962890625 8.100390625 12 8.2 11.05 8.3 10.6 8.45
L 9.5 8.95 8.8 9.15
Q 8.4 9.25 8.3 9.65 8.25 9.95 8.55 10.25 8.6884765625 10.3884765625 9.1 10.55
L 10.05 10.6 9.65 10.7
Q 10.136328125 10.8 10.45 10.8
L 12.7 10.7
Q 12.8275390625 10.6884765625 12.95 10.65
L 15.25 9.8 15.05 9.15
Q 14.85 9.55 14.15 9.95 12.85 10.75 11.35 10.2
L 14.55 8.8
M 13.75 6
Q 14.266796875 5.96171875 14.75 5.9
L 15.1 5.8 15.15 5.75 15.2 5.65
Q 14.4876953125 5.85234375 13.75 6
M 15.8 14.5
L 15.95 12.75
Q 15.315234375 12.9314453125 14.65 13.1 14.5609375 13.14921875 14.45 13.2 13.3 13.8 11.65 14.3 10.8 14.6 10.65 14.9 10.45 15.25 10.65 15.6 10.8 16 11.2 16.15 11.271484375 16.19296875 11.35 16.2 13.25859375 15.8734375 15 14.95 15.4 14.75 15.8 14.5
M 17.05 2.6
L 16 2.9
Q 15.4541015625 3.1078125 14.9 3.25 12.749609375 3.7919921875 10.55 3.8
L 10.35 3.85
Q 8.95 3.95 8.3 4.55 8.2 5.1 8.8 5.5 9.102734375 5.673046875 9.7 5.75 12.5734375 5.5447265625 15.35 4.65 16 4.5 16.65 4.25
L 17.05 2.6 Z"/>
</g>
</defs>

<g transform="matrix( 1.558135986328125, 0, 0, 1.558135986328125, 30.4,146.4) ">
<g transform="matrix( 1, 0, 0, 1, 0,0) ">
<use xlink:href="#chest_2_Layer3_0_FILL"/>
</g>

<g transform="matrix( 1, 0, 0, 1, 0,0) ">
<use xlink:href="#chest_2_Layer2_0_FILL"/>
</g>

<g transform="matrix( 1, 0, 0, 1, -13.6,-88.7) ">
<g transform="matrix( 1, 0, 0, 1, 0,0) ">
<use xlink:href="#light_1_Layer0_0_FILL"/>
</g>
</g>

<g transform="matrix( 1.3309173583984375, 0, 0, 1.64849853515625, 80.3,-19.85) ">
<g transform="matrix( 1, 0, 0, 1, 0,0) ">
<use xlink:href="#gold_0_Layer0_0_FILL"/>
</g>
</g>

<g transform="matrix( 1.3309173583984375, 0, 0, 1.64849853515625, 56.7,-2.95) ">
<g transform="matrix( 1, 0, 0, 1, 0,0) ">
<use xlink:href="#gold_0_Layer0_0_FILL"/>
</g>
</g>

<g transform="matrix( 1.3309173583984375, 0, 0, 1.64849853515625, 74.85,-32.3) ">
<g transform="matrix( 1, 0, 0, 1, 0,0) ">
<use xlink:href="#gold_2_Layer0_0_FILL"/>
</g>
</g>

<g transform="matrix( 1.3309173583984375, 0, 0, 1.64849853515625, 74.25,-7.85) ">
<g transform="matrix( 1, 0, 0, 1, 0,0) ">
<use xlink:href="#gold_0_Layer0_0_FILL"/>
</g>
</g>

<g transform="matrix( 1.3309173583984375, 0, 0, 1.64849853515625, 63.3,-33.15) ">
<g transform="matrix( 1, 0, 0, 1, 0,0) ">
<use xlink:href="#gold_0_Layer0_0_FILL"/>
</g>
</g>

<g transform="matrix( 1.3309173583984375, 0, 0, 1.64849853515625, 22.15,3.35) ">
<g transform="matrix( 1, 0, 0, 1, 0,0) ">
<use xlink:href="#gold_1_Layer0_0_FILL"/>
</g>
</g>

<g transform="matrix( 1.3309173583984375, 0, 0, 1.64849853515625, 35.4,-13.5) ">
<g transform="matrix( 1, 0, 0, 1, 0,0) ">
<use xlink:href="#gold_0_Layer0_0_FILL"/>
</g>
</g>

<g transform="matrix( 1.3309173583984375, 0, 0, 1.64849853515625, 42,7.5) ">
<g transform="matrix( 1, 0, 0, 1, 0,0) ">
<use xlink:href="#gold_1_Layer0_0_FILL"/>
</g>
</g>

<g transform="matrix( 1.3309173583984375, 0, 0, 1.64849853515625, 97.5,-2.95) ">
<g transform="matrix( 1, 0, 0, 1, 0,0) ">
<use xlink:href="#gold_0_Layer0_0_FILL"/>
</g>
</g>

<g transform="matrix( 1.255584716796875, 0, 0, 1.555206298828125, 108.75,-9.4) ">
<g transform="matrix( 1, 0, 0, 1, 0,0) ">
<use xlink:href="#gold_2_Layer0_0_FILL"/>
</g>
</g>

<g transform="matrix( 1.3309173583984375, 0, 0, 1.64849853515625, 98.4,8.25) ">
<g transform="matrix( 1, 0, 0, 1, 0,0) ">
<use xlink:href="#gold_1_Layer0_0_FILL"/>
</g>
</g>

<g transform="matrix( 1.3309173583984375, 0, 0, 1.64849853515625, 84.5,-5.1) ">
<g transform="matrix( 1, 0, 0, 1, 0,0) ">
<use xlink:href="#gold_0_Layer0_0_FILL"/>
</g>
</g>

<g transform="matrix( 1.3309173583984375, 0, 0, 1.64849853515625, 84.95,4.55) ">
<g transform="matrix( 1, 0, 0, 1, 0,0) ">
<use xlink:href="#gold_2_Layer0_0_FILL"/>
</g>
</g>

<g transform="matrix( 1.255584716796875, 0, 0, 1.555206298828125, 91.65,-35.05) ">
<g transform="matrix( 1, 0, 0, 1, 0,0) ">
<use xlink:href="#gold_2_Layer0_0_FILL"/>
</g>
</g>

<g transform="matrix( 1.255584716796875, 0, 0, 1.555206298828125, 64.25,4.15) ">
<g transform="matrix( 1, 0, 0, 1, 0,0) ">
<use xlink:href="#gold_2_Layer0_0_FILL"/>
</g>
</g>
</g>
</svg>
