
<svg xmlns="http://www.w3.org/2000/svg" version="1.1" xmlns:xlink="http://www.w3.org/1999/xlink" preserveAspectRatio="none" x="0px" y="0px" width="250px" height="250px" viewBox="0 0 250 250">
<defs>
<g id="Wizard_0_Layer0_0_FILL">
<path fill="#000000" stroke="none" d="
M 88.8 31.35
Q 88.95 30.2 87.5 28.55 83.5 24.3 75.6 17.95
L 66.45 10.4
Q 63.55 8.1 62.6 7.45 62.15 7.15 59.95 5.75 58.35 4.7 57.4 3.9 56.8 3.4 55.75 2.35 54.75 1.45 53.95 0.95 52.95 0.25 51.85 0.05 50.6 -0.15 49.65 0.3 48.35 0.9 47.1 3.45
L 44 9.55
Q 39.05 19.15 37.5 24.6 36.15 29.25 35.7 30.3 34.75 32.45 32.5 35.35 32.35 35.55 32.2 35.75 26.25 34.65 17.3 35.55 9.6 36.3 5.65 38.75 2.95 40.4 1.35 43.05 -0.3 45.9 0.1 48.8 0.5 51.8 3.15 54.6 4.95 56.5 8.6 58.9 5.65 58.55 3.15 60.9 0.8 63.2 0.55 66.3 0.35 69.2 1.9 72.1 3.35 74.7 5.85 76.7 8 78.4 11.05 79.8 12.9 80.65 16.75 82.05 13.85 91.15 7.6 98.55 6 100.25 5.95 101.5 5.9 102.7 6.85 103.7 7.7 104.6 9 104.95 9.65 105.15 11.45 105.4 13 105.65 13.85 106 11.95 108.45 11.15 109.7 9.75 111.9 9.15 113.8 8.4 116.15 8.7 118.4 9 120.85 10.5 122.45 13.1 125.25 19 125.15 26.75 124.95 30.35 120.65 30.75 129.6 28.6 137.9 27.6 141.9 29.4 143 30.3 143.6 32.6 143.2 39.15 141.95 42.65 140.95 48.1 139.4 52.1 137.1 57.05 134.25 61.85 128.95 64.2 126.4 67.95 121.5 68.3 121.6 68.8 121.75 69.8 122.05 71.15 122.8
L 73.45 124
Q 76.25 125.4 82.75 126.85 84.75 127.25 85.9 127.25 87.6 127.2 88.75 126.45 91.05 124.8 90.75 120.05 90.05 109.05 83.65 100.1
L 90.65 103.8
Q 93.3 105.3 94.7 104.3 95.8 103.5 95.7 101.2 95.45 94.5 91.25 89.45 90.3 88.3 90.65 87.65 90.8 87.2 91.85 86.85 97.35 85.15 99.95 82.15 101.6 80.3 102.15 77.95 102.7 75.45 101.8 73.4 104.75 71.65 106.15 70.35 108.3 68.4 108.75 66.1 109.45 62.65 105.95 57.65 103.85 54.7 101.95 52.9 99.05 50.15 94.5 48.1 91.6 46.8 86 45.05
L 77.05 42.15
Q 76.95 42 76.9 41.9 74.25 37.25 72.55 31.95
L 84 33.35
Q 85.95 33.55 86.9 33.3 88.65 32.85 88.8 31.35
M 99.95 60.8
Q 100.1 61 100.25 61.2 100.6 61.55 100.9 61.95 102.4 63.8 101.8 65.05 101.45 65.75 99.95 66.4 98.05 67.1 96 67.65 95.9 67.65 95.8 67.7 91.65 68.65 86.8 68.85 81.5 69.05 73.25 68.2 64.7 67.35 53.85 65.65 41.75 63.7 32.7 61.2 21.5 58.1 12.65 53.6 10.2 52.4 9.1 51.1 7.3 49.15 8.05 47.05 8.65 45.25 11.85 43.95 16.5 42.15 21.45 41.7 23.1 41.55 24.8 41.55 28.2 41.7 29.9 41.75 30.6 41.75 31.25 41.8 32 42.45 33.15 42.5 33.6 42.55 34.05 42.45 34.25 42.4 34.45 42.35 34 43.15 33.3 44.4 33.25 44.5 33.25 44.55 33.1 44.8 33 45
L 32.9 45.15
Q 32.8 45.35 32.7 45.6
L 32.7 45.55
Q 32.25 46.5 32 47.3 31.8 48 32.05 48.3 32.35 48.65 33.1 48.45 35.55 47.75 37.75 43.85 39.6 40.65 41.55 36.3 42.45 34.35 44.9 28.5
L 53.1 8.45
Q 58.45 12.65 64 16.65 70.1 21 76.5 25.05 77.3 25.7 78.05 26.3
L 68.7 24.6
Q 66.25 24.2 65.45 25.1 64.7 25.85 64.95 27.15 65.1 28.05 65.8 29.5 66.75 31.55 67.7 34.9 69.1 39.8 69.3 40.4 70.15 43.25 72.4 48.25
L 74.65 53.4
Q 74.95 54.15 75.4 54.55 76 55.05 76.5 54.75 77.25 54.4 76.8 52.8
L 74.9 46.75
Q 75.8 47.4 76.65 47.15 85.95 51 87.5 51.8
L 87.55 51.8
Q 88.6 52.3 89.6 52.9 96.05 56.4 99.95 60.8
M 86.45 72.9
Q 88.8 72.8 91.05 72.6 93.35 73.3 95.65 74.5 96.75 75.05 96.85 75.7 97 76.2 96.55 77.05 96.55 77.1 96.5 77.15 95.5 78.85 93.5 79.95 91.7 80.95 89.5 81.25 88.8 81.35 86.2 81.55 85 81.65 84.1 81.8 81.4 77.2 78.4 72.75 81.95 72.95 84.9 72.95 85.7 72.95 86.45 72.9
M 89.1 97.2
L 87.85 96.25 75.35 87
Q 74.8 86.6 74.4 86.45 74.25 86.4 74.15 86.4 73.9 86.4 73.75 86.45 72.9 86.7 72.8 88.25 72.6 90.85 72.55 96.1 72.05 103.25 68.9 110.1 65.85 116.7 60.75 122.15 57.55 125.5 53.75 128.3 49.65 131.3 44.9 133.6 40.75 135.6 36.15 137.1 36.1 137.1 36.05 137.1 36.05 136.95 36.1 136.85 37.5 128.9 37.25 119.2 37.1 112 35.95 101.25
L 34.65 90.75
Q 34.55 90.05 34.35 89.65 34.2 89.25 33.95 89.05 32.55 87.85 30.25 90.6 27.85 93.5 24.55 95.45 23.85 95.45 23.25 95.85 22.9 96.1 22.55 96.5 19.7 97.85 16.7 98.3 15.4 98.5 14.05 98.55 24.8 87.55 30.9 73.35 32.05 70.6 33.05 67.75 33.6 66.3 33.5 65.35 53.15 70.35 73 72.3 75 72.5 76.85 72.65 76.8 72.9 76.8 73.2 76.8 74.25 77.4 75.3
L 79.7 79.6 83.65 87.05
Q 83.7 87.1 83.7 87.15 84 87.95 84.6 88.85
L 89.1 97.2
M 27.45 66.8
Q 28.55 68.1 27.55 71.15 26.85 73.45 25.5 76.85 24.85 78.45 24.15 78.9 23.5 79.35 22.6 79.3 22 79.25 20.85 78.95 17.25 77.85 14.85 76.85 11.7931640625 75.54921875 10 73.95 9.076953125 73.1265625 8.5 72.2 7.5 70.6 7.5 68.75 7.5 66.8 8.6 65.45 9.85 63.95 12.25 63.5 13.3291015625 63.27109375 14.9 63.25 15.73125 63.248046875 16.7 63.3 21.35 63.5 23.3 64.4 24.05 64.75 25.55 65.6 25.9 65.8 26.6 66.1 27.15 66.45 27.45 66.8
M 25.9 98.5
Q 26 98.4 26.15 98.35 26.7 98.05 27.25 97.75
L 27.25 97.7
Q 27.75 97.35 28.35 97.05
L 31.45 94.7
Q 31.5 94.65 31.55 94.6 31.65 94.5 31.8 94.4 31.9 94.3 31.95 94.25
L 33.25 112.35 33.15 112.35
Q 32.95 112.25 33.05 112.15 31.8 112.2 30.9 113.3 30.85 113.35 30.85 113.4 30 113.95 29 115.3 26.75 117.05 23.95 118.05 21.3 118.95 18.55 119.05 17.95 119.05 17.35 119 16.7 118.95 16.35 118.8 16.2 118.7 16.1 118.65 16.05 118.6 16 118.55
L 15.95 118.5
Q 15.45 117.9 16 116.55 18.85 109.35 25.3 99.55 25.65 99 25.85 98.5
L 25.9 98.5
M 76.8 96.7
Q 76.9 96.85 77 97 77.8 98.45 79.25 100.9 79.45 101.25 79.7 101.6
L 79.7 101.65
Q 79.9 102 80.1 102.35 80.9 103.85 81.4 105.3 82.2 107.3 83.5 111.4 85 114.95 85.25 116.2 85.8 118.15 84.95 119.35 83.8 119.4 82.5 119.1 81.7 118.9 80.85 118.6 79.45 118.05 77.05 116.65
L 72.35 114.05
Q 71.3 113.45 70.5 113.25 71.85 110.75 72.85 108.1 75.45 101.25 75.65 94.45 75.8 94.9 76.25 95.65 76.5 96.1 76.8 96.7
M 73.1 118.5
Q 73.6 118.75 73.95 119 73.55 118.8 73.15 118.6 73.15 118.55 73.1 118.5 Z"/>

<path fill="#0099FF" stroke="none" d="
M 80.1 102.35
Q 79.9 102 79.7 101.65 79.3 105.3 78.2 108.1 77.1 111.05 75.45 112.25 77.4 113.85 81.65 118.25 82.05 118.7 82.5 119.1 83.8 119.4 84.95 119.35 85.8 118.15 85.25 116.2 85 114.95 83.5 111.4 82.2 107.3 81.4 105.3 80.9 103.85 80.1 102.35
M 27.25 97.75
Q 26.7 98.05 26.15 98.35 25.15 100.75 23.5 104.15
L 16.35 118.8
Q 16.7 118.95 17.35 119 17.95 119.05 18.55 119.05 19.2 118.5 20.35 117.45 22.95 115.3 24.15 114.1 26.2 112.1 26.85 110.1 27.3 108.7 27.3 105.65
L 27.25 97.75
M 20.55 73.9
Q 21.35 72 21.3 71.15 21.25 69.65 18.9 67.5 16.7533203125 65.5013671875 14.9 63.25 13.3291015625 63.27109375 12.25 63.5 9.85 63.95 8.6 65.45 7.5 66.8 7.5 68.75 7.5 70.6 8.5 72.2 9.076953125 73.1265625 10 73.95
L 20.05 76.6
Q 19.8 75.65 20.55 73.9
M 91.05 72.6
Q 88.8 72.8 86.45 72.9 85.7 72.95 84.9 72.95 85.25 74.05 85.8 76.35 91.2 77 96.55 77.05 97 76.2 96.85 75.7 96.75 75.05 95.65 74.5 93.35 73.3 91.05 72.6
M 95.8 67.7
Q 95.9 67.65 96 67.65 96 67.6068359375 96 67.55 95.8984375 67.6310546875 95.8 67.7
M 91.95 61.1
Q 93.3 59.25 91.2 56.1 89.55 53.7 87.5 51.8 85.95 51 76.65 47.15 75.8 47.4 74.9 46.75
L 76.8 52.8
Q 77.25 54.4 76.5 54.75 76 55.05 75.4 54.55 74.95 54.15 74.65 53.4
L 72.4 48.25
Q 70.15 43.25 69.3 40.4 69.1 39.8 67.7 34.9 66.75 31.55 65.8 29.5 65.1 28.05 64.95 27.15 64.7 25.85 65.45 25.1 66.25 24.2 68.7 24.6
L 78.05 26.3
Q 77.3 25.7 76.5 25.05 70.1 21 64 16.65
L 54.6 14.2
Q 54.25 16.15 54.5 18.9 54.65 20.45 55 23.6 55.15 26 55.15 28.45 55.15 42.95 53 57.9 58.7 59.45 64.3 60.1 64.1 61 62.6 61.2 55.5 62.75 48.1 59.95 41.6 57.55 35.8 52 33.85 50.15 33.1 48.45 32.35 48.65 32.05 48.3 31.8 48 32 47.3 32.25 46.5 32.7 45.55 32.85 44.75 33.25 43.9 33.45 43.55 34.05 42.45 33.6 42.55 33.15 42.5 32 42.45 31.25 41.8 30.6 41.75 29.9 41.75 28.2 41.7 24.8 41.55 23.1 41.55 21.45 41.7
L 14.8 45.6
Q 13.1 46.65 12.9 47.5 12.7 48.4 13.45 49.6 15.35 52.65 20.15 55.15 27.95 59.3 38.55 61.45 46 63 58 63.95 67.95 64.75 73.9 64.65 82.6 64.45 89.45 62.45 91.25 62 91.95 61.1 Z"/>

<path fill="#264CD8" stroke="none" d="
M 77 97
Q 76.9 96.85 76.8 96.7 76.5 96.1 76.25 95.65 75.8 94.9 75.65 94.45 75.45 101.25 72.85 108.1 71.85 110.75 70.5 113.25 71.3 113.45 72.35 114.05
L 77.05 116.65
Q 79.45 118.05 80.85 118.6 81.7 118.9 82.5 119.1 82.05 118.7 81.65 118.25 77.4 113.85 75.45 112.25 77.1 111.05 78.2 108.1 79.3 105.3 79.7 101.65
L 79.7 101.6
Q 79.45 101.25 79.25 100.9 77.8 98.45 77 97
M 27.25 97.7
L 27.25 97.75 27.3 105.65
Q 27.3 108.7 26.85 110.1 26.2 112.1 24.15 114.1 22.95 115.3 20.35 117.45 19.2 118.5 18.55 119.05 21.3 118.95 23.95 118.05 26.75 117.05 29 115.3 30 113.95 30.85 113.4 30.85 113.35 30.9 113.3 31.8 112.2 33.05 112.15 32.95 112.25 33.15 112.35
L 33.25 112.35 31.95 94.25
Q 31.9 94.3 31.8 94.4 31.65 94.5 31.55 94.6 31.5 94.65 31.45 94.7
L 28.35 97.05
Q 27.75 97.35 27.25 97.7
M 26.15 98.35
Q 26 98.4 25.9 98.5
L 25.85 98.5
Q 25.65 99 25.3 99.55 18.85 109.35 16 116.55 15.45 117.9 15.95 118.5
L 16 118.55
Q 16.05 118.6 16.1 118.65 16.2 118.7 16.35 118.8
L 23.5 104.15
Q 25.15 100.75 26.15 98.35
M 27.55 71.15
Q 28.55 68.1 27.45 66.8 27.15 66.45 26.6 66.1 25.9 65.8 25.55 65.6 24.05 64.75 23.3 64.4 21.35 63.5 16.7 63.3 15.73125 63.248046875 14.9 63.25 16.7533203125 65.5013671875 18.9 67.5 21.25 69.65 21.3 71.15 21.35 72 20.55 73.9 19.8 75.65 20.05 76.6
L 10 73.95
Q 11.7931640625 75.54921875 14.85 76.85 17.25 77.85 20.85 78.95 22 79.25 22.6 79.3 23.5 79.35 24.15 78.9 24.85 78.45 25.5 76.85 26.85 73.45 27.55 71.15
M 96.5 77.15
Q 96.55 77.1 96.55 77.05 91.2 77 85.8 76.35 85.25 74.05 84.9 72.95 81.95 72.95 78.4 72.75 81.4 77.2 84.1 81.8 85 81.65 86.2 81.55 88.8 81.35 89.5 81.25 91.7 80.95 93.5 79.95 95.5 78.85 96.5 77.15
M 34.45 42.35
Q 34.25 42.4 34.05 42.45 33.45 43.55 33.25 43.9 32.85 44.75 32.7 45.55
L 32.7 45.6
Q 32.8 45.35 32.9 45.15
L 33 45
Q 33.1 44.8 33.25 44.55 33.25 44.5 33.3 44.4 34 43.15 34.45 42.35
M 55 23.6
Q 54.65 20.45 54.5 18.9 54.25 16.15 54.6 14.2
L 64 16.65
Q 58.45 12.65 53.1 8.45
L 44.9 28.5
Q 42.45 34.35 41.55 36.3 39.6 40.65 37.75 43.85 35.55 47.75 33.1 48.45 33.85 50.15 35.8 52 41.6 57.55 48.1 59.95 55.5 62.75 62.6 61.2 64.1 61 64.3 60.1 58.7 59.45 53 57.9 55.15 42.95 55.15 28.45 55.15 26 55 23.6
M 100.25 61.2
Q 100.1 61 99.95 60.8 96.05 56.4 89.6 52.9 88.6 52.3 87.55 51.8
L 87.5 51.8
Q 89.55 53.7 91.2 56.1 93.3 59.25 91.95 61.1 91.25 62 89.45 62.45 82.6 64.45 73.9 64.65 67.95 64.75 58 63.95 46 63 38.55 61.45 27.95 59.3 20.15 55.15 15.35 52.65 13.45 49.6 12.7 48.4 12.9 47.5 13.1 46.65 14.8 45.6
L 21.45 41.7
Q 16.5 42.15 11.85 43.95 8.65 45.25 8.05 47.05 7.3 49.15 9.1 51.1 10.2 52.4 12.65 53.6 21.5 58.1 32.7 61.2 41.75 63.7 53.85 65.65 64.7 67.35 73.25 68.2 81.5 69.05 86.8 68.85 91.65 68.65 95.8 67.7 95.8984375 67.6310546875 96 67.55 96 67.6068359375 96 67.65 98.05 67.1 99.95 66.4 101.45 65.75 101.8 65.05 102.4 63.8 100.9 61.95 100.6 61.55 100.25 61.2 Z"/>

<path fill="#FFFFFF" stroke="none" d="
M 36.15 137.1
L 36.1 136.85
Q 36.05 136.95 36.05 137.1 36.1 137.1 36.15 137.1
M 41.65 78
L 40.9 82.8
Q 39.25 93.1 39.3 98.75 39.4 105.3 42.05 117.45 44.3 127.7 44.9 133.6 49.65 131.3 53.75 128.3 57 124.75 59.75 120.7 65.85 111.65 68.6 101.3 69.65 97.2 69.9 94.2 70.2 90.1 69.35 82.85
L 69.1 80.15 66.6 80.25
Q 66.45 81.7 66.1 83.1 65.3 86.75 62.25 91.7 59.5 96.05 56.1 99.75 55.95 99.15 55.35 99
L 54.3 100.55
Q 50.65 97.25 49.3 91.55 48.5 88.4 48.2 81.15 48.15 80.35 48.15 79.6 44.85 79 41.65 78
M 14.05 98.55
Q 15.4 98.5 16.7 98.3 17.1 98 17.65 97.65
L 19.55 96.4
Q 23.35 93.95 29.55 88.05 32.95 84.75 34.2 82.75 35.05 81.5 36 79.5 36.85 77.55 37.4 76.5 34.05 75.15 30.9 73.35 24.8 87.55 14.05 98.55
M 56.75 80.5
Q 54.6 80.45 52.55 80.25 52.5 80.3 52.5 80.35 52.1 83.9 52.05 85.5 51.95 88.4 52.5 90.6 52.85 92 53.85 94.3 55 96.95 55.35 98 57.4 94.55 58.35 92.6 59.85 89.5 60.35 86.8 60.6 85.65 60.8 83.35
L 61.05 80.45
Q 57.982421875 80.545703125 56.75 80.5
M 87.85 96.25
L 89.1 97.2 84.6 88.85
Q 84 87.95 83.7 87.15 83.7 87.1 83.65 87.05
L 79.7 79.6 74.25 79.85
Q 74.3 79.95 74.35 80.1 75.5 82.4 78.55 86 81.5 89.7 83.8 91.85 85.9 93.85 86.3 94.25 86.65 94.65 87.55 95.9 87.7 96.1 87.85 96.25 Z"/>

<path fill="#999999" stroke="none" d="
M 87.85 96.25
Q 87.7 96.1 87.55 95.9 86.65 94.65 86.3 94.25 85.9 93.85 83.8 91.85 81.5 89.7 78.55 86 75.5 82.4 74.35 80.1 74.3 79.95 74.25 79.85
L 79.7 79.6 77.4 75.3
Q 76.8 74.25 76.8 73.2 76.8 72.9 76.85 72.65 75 72.5 73 72.3 53.15 70.35 33.5 65.35 33.6 66.3 33.05 67.75 32.05 70.6 30.9 73.35 34.05 75.15 37.4 76.5 36.85 77.55 36 79.5 35.05 81.5 34.2 82.75 32.95 84.75 29.55 88.05 23.35 93.95 19.55 96.4
L 17.65 97.65
Q 17.1 98 16.7 98.3 19.7 97.85 22.55 96.5 22.9 96.1 23.25 95.85 23.85 95.45 24.55 95.45 27.85 93.5 30.25 90.6 32.55 87.85 33.95 89.05 34.2 89.25 34.35 89.65 34.55 90.05 34.65 90.75
L 35.95 101.25
Q 37.1 112 37.25 119.2 37.5 128.9 36.1 136.85
L 36.15 137.1
Q 40.75 135.6 44.9 133.6 44.3 127.7 42.05 117.45 39.4 105.3 39.3 98.75 39.25 93.1 40.9 82.8
L 41.65 78
Q 44.85 79 48.15 79.6 48.15 80.35 48.2 81.15 48.5 88.4 49.3 91.55 50.65 97.25 54.3 100.55
L 55.35 99
Q 55.95 99.15 56.1 99.75 59.5 96.05 62.25 91.7 65.3 86.75 66.1 83.1 66.45 81.7 66.6 80.25
L 69.1 80.15 69.35 82.85
Q 70.2 90.1 69.9 94.2 69.65 97.2 68.6 101.3 65.85 111.65 59.75 120.7 57 124.75 53.75 128.3 57.55 125.5 60.75 122.15 65.85 116.7 68.9 110.1 72.05 103.25 72.55 96.1 72.6 90.85 72.8 88.25 72.9 86.7 73.75 86.45 73.9 86.4 74.15 86.4 74.25 86.4 74.4 86.45 74.8 86.6 75.35 87
L 87.85 96.25
M 52.55 80.25
Q 54.6 80.45 56.75 80.5 57.982421875 80.545703125 61.05 80.45
L 60.8 83.35
Q 60.6 85.65 60.35 86.8 59.85 89.5 58.35 92.6 57.4 94.55 55.35 98 55 96.95 53.85 94.3 52.85 92 52.5 90.6 51.95 88.4 52.05 85.5 52.1 83.9 52.5 80.35 52.5 80.3 52.55 80.25 Z"/>
</g>

<g id="orbital_2_Layer0_0_FILL">
<path fill="#000000" stroke="none" d="
M 38.7 27.15
Q 35.941796875 9.665234375 27.3 4.3 18.7025390625 -1.0052734375 6.55 -0.8 -6.2052734375 -0.6025390625 -10.6 16.75 -14.984375 34.15703125 -18.35 57.85 -21.66328125 81.5439453125 -20.35 108.7 -19.0431640625 135.9029296875 -15.35 153 -11.6517578125 170.1494140625 -2.75 178.6 6.2 187.1 27.15 180
L 25.85 179.7 29.85 178.25
Q 32.848046875 175.15 38.4 161.6 44.0052734375 148.1 45 124.6 45.9927734375 101.155078125 43.75 72.9 41.509765625 44.6345703125 38.7 27.15
M 15.9 4.2
Q 18.5029296875 4.4138671875 21.25 5.05 26.2 6.35 27.85 10.8 35.6013671875 31.9357421875 36.75 55.25 36.81484375 56.1486328125 36.85 57.05 37.95 84.45 38.5 111.9 38.9478515625 133.9646484375 34.4 155.4 33.39140625 160.2912109375 32.1 165.15 31.2 168.45 29.1 170.25 18.85 179.1 3 176.9 0.3 176.45 -1.1 174.55 -12.85 158.7 -12.3 137 -12.95 125.15 -12.75 113.45 -12.35 90.3 -12.2 67.1 -12.123828125 53.441015625 -10.3 40.05
L -10.3 40
Q -8.5173828125 27.0353515625 -5.1 14.3 -4.4 11.6 -2.6 10.05 5.1494140625 3.35 15.9 4.2 Z"/>

<path fill="#CC9900" stroke="none" d="
M 32.1 165.15
Q 33.39140625 160.2912109375 34.4 155.4 31.771484375 149.6029296875 28.65 142.35 9 96.75 -6.2 51.75 -8.6826171875 44.5140625 -10.3 40.05 -12.123828125 53.441015625 -12.2 67.1 -12.35 90.3 -12.75 113.45 -12.95 125.15 -12.3 137 -12.85 158.7 -1.1 174.55 0.3 176.45 3 176.9 18.85 179.1 29.1 170.25 31.2 168.45 32.1 165.15
M 21.25 5.05
Q 18.5029296875 4.4138671875 15.9 4.2
L 36.75 55.25
Q 35.6013671875 31.9357421875 27.85 10.8 26.2 6.35 21.25 5.05 Z"/>

<path fill="#FFFFFF" stroke="none" d="
M 36.85 57.05
Q 36.81484375 56.1486328125 36.75 55.25
L 15.9 4.2
Q 5.1494140625 3.35 -2.6 10.05 -4.4 11.6 -5.1 14.3 -8.5173828125 27.0353515625 -10.3 40
L -10.3 40.05
Q -8.6826171875 44.5140625 -6.2 51.75 9 96.75 28.65 142.35 31.771484375 149.6029296875 34.4 155.4 38.9478515625 133.9646484375 38.5 111.9 37.95 84.45 36.85 57.05 Z"/>
</g>

<g id="orbital_5_Layer0_0_FILL">
<path fill="#000000" stroke="none" d="
M 13 183.2
Q 50.6 183.2 77.2 156.25 103.85 129.3 103.85 91.3 103.85 53.25 77.2 26.25 50.6 -0.6 13 -0.6 -24.65 -0.6 -51.25 26.25 -77.9 53.25 -77.9 91.3 -77.9 129.3 -51.25 156.25 -24.65 183.2 13 183.2
M 13 2.4
Q 13.5259765625 2.4 14.05 2.4
L 31.25 4.05
Q 56.103515625 9.16875 75.1 28.35 100.85 54.45 100.85 91.3 100.85 128.1 75.1 154.15 56.103515625 173.4052734375 31.25 178.55
L 14.05 180.2
Q 13.5240234375 180.2 13 180.2 8.25546875 180.3390625 3.65 179.95
L -19.05 174.3
Q -19.1884765625 174.258984375 -19.35 174.2 -19.8208984375 173.9771484375 -20.35 173.75 -20.4650390625 173.6865234375 -20.6 173.6 -36.269140625 167.2314453125 -49.2 154.15 -54.8607421875 148.4234375 -59.3 142.15 -62.4166015625 137.7326171875 -64.95 133 -74.95 114.255859375 -74.95 91.3 -74.95 73.96015625 -69.25 59 -62.8333984375 42.1685546875 -49.2 28.35
L -49.2 28.4
Q -36.269140625 15.34375 -20.6 8.95 -4.3728515625 2.442578125 13 2.4
M 18.7 5.6
Q 18.35 5.6 18.05 5.6 17.7 5.6 17.4 5.6 17 5.6 16.6 5.6 1.73828125 5.956640625 -11.2 10.8
L -19.3 14.2 -24.95 17.25
Q -33.178515625 22.3455078125 -40.55 29.5 -64.0283203125 52.21484375 -65.05 85.8
L -65.1 89.05
Q -65.05 124.8 -40.75 150.25 -37.9529296875 153.1796875 -35.05 155.75 -26.330859375 163.4216796875 -16.45 168.05
L -9 171
Q 2.3859375 174.9146484375 15.25 175.15 16.7 175.15 18.15 175.15 33.2548828125 174.93203125 46.3 170.4
L 54.75 166.8 60.25 163.75
Q 69.00234375 158.6517578125 76.6 151.15 100.35 127.6 100.35 91.75 100.35 55.9 76.85 30.75 53.35 5.55 18.7 5.6
M 98.85 85.15
Q 99 87.86640625 99 90.65 99 125.3 75.25 149.8 51.65 174.3 18.15 174.3 -15.35 174.3 -39 149.8 -62.7 125.3 -62.7 90.65 -62.7 56 -39 31.45 -15.35 7 18.15 7 51.65 7 75.25 31.45 82.663671875 39.113671875 87.8 47.75
L 90.9 53.6
Q 96.6404296875 65.79296875 98.35 79.75
L 98.85 85.15
M 19.3 8.8
Q 19 8.8 18.7 8.8 18.4 8.8 18.1 8.8 10.1 8.85 2.7 10.35 -19.55 15.15 -36.6 32.8 -59.8 56.8 -59.8 90.65 -59.8 124.55 -36.6 148.5 -19.55 166.15 2.7 170.95
L 18.1 172.5 19.3 172.5 34.75 170.95
Q 57.7 166.65 75.15 148.5 98.35 124.55 98.35 90.65 98.35 56.8 75.15 32.8 57.7 14.65 34.75 10.35 27.3 8.85 19.3 8.8
M 19.3 11.8
Q 50.85 11.8 73.15 34.9 95.45 58 95.45 90.65 95.45 123.35 73.15 146.4 50.85 169.5 19.3 169.5 -12.25 169.5 -34.6 146.4 -56.9 123.35 -56.9 90.65 -56.9 58 -34.6 34.9 -12.25 11.8 19.3 11.8 Z"/>

<path fill="#FFFFFF" stroke="none" d="
M 3.65 179.95
Q 4.0638671875 179.9712890625 4.45 180 -1.2822265625 176.3990234375 -6.8 172.25 -7.3708984375 171.820703125 -7.95 171.4 -8.4689453125 171.2236328125 -9 171
L -16.45 168.05
Q -26.330859375 163.4216796875 -35.05 155.75 -37.9529296875 153.1796875 -40.75 150.25 -65.05 124.8 -65.1 89.05
L -65.05 85.8
Q -65.04453125 85.2806640625 -65.05 84.75 -67.2341796875 75.774609375 -68.45 66.4 -68.93203125 62.683203125 -69.25 59 -74.95 73.96015625 -74.95 91.3 -74.95 114.255859375 -64.95 133 -62.4166015625 137.7326171875 -59.3 142.15 -54.8607421875 148.4234375 -49.2 154.15 -36.269140625 167.2314453125 -20.6 173.6 -20.4650390625 173.6865234375 -20.35 173.75 -19.8208984375 173.9771484375 -19.35 174.2 -19.1884765625 174.258984375 -19.05 174.3
L 3.65 179.95 Z"/>

<path fill="#CC9900" stroke="none" d="
M 18.05 5.6
Q 18.35 5.6 18.7 5.6 53.35 5.55 76.85 30.75 100.35 55.9 100.35 91.75 100.35 127.6 76.6 151.15 69.00234375 158.6517578125 60.25 163.75
L 54.75 166.8 46.3 170.4
Q 33.2548828125 174.93203125 18.15 175.15 16.7 175.15 15.25 175.15 2.3859375 174.9146484375 -9 171 -8.4689453125 171.2236328125 -7.95 171.4 -7.3708984375 171.820703125 -6.8 172.25 -1.2822265625 176.3990234375 4.45 180 4.0638671875 179.9712890625 3.65 179.95 8.25546875 180.3390625 13 180.2 13.5240234375 180.2 14.05 180.2
L 31.25 178.55
Q 56.103515625 173.4052734375 75.1 154.15 100.85 128.1 100.85 91.3 100.85 54.45 75.1 28.35 56.103515625 9.16875 31.25 4.05
L 14.05 2.4
Q 13.5259765625 2.4 13 2.4 -4.3728515625 2.442578125 -20.6 8.95 -36.269140625 15.34375 -49.2 28.4
L -49.2 28.35
Q -62.8333984375 42.1685546875 -69.25 59 -68.93203125 62.683203125 -68.45 66.4 -67.2341796875 75.774609375 -65.05 84.75 -65.04453125 85.2806640625 -65.05 85.8 -64.0283203125 52.21484375 -40.55 29.5 -33.178515625 22.3455078125 -24.95 17.25
L -19.3 14.2 -11.2 10.8
Q 1.73828125 5.956640625 16.6 5.6 17 5.6 17.4 5.6 17.7 5.6 18.05 5.6 Z"/>

<path fill="#8E2D1A" stroke="none" d="
M 99 90.65
Q 99 87.86640625 98.85 85.15
L 98.35 79.75
Q 96.6404296875 65.79296875 90.9 53.6
L 87.8 47.75
Q 82.663671875 39.113671875 75.25 31.45 51.65 7 18.15 7 -15.35 7 -39 31.45 -62.7 56 -62.7 90.65 -62.7 125.3 -39 149.8 -15.35 174.3 18.15 174.3 51.65 174.3 75.25 149.8 99 125.3 99 90.65
M 18.7 8.8
Q 19 8.8 19.3 8.8 27.3 8.85 34.75 10.35 57.7 14.65 75.15 32.8 98.35 56.8 98.35 90.65 98.35 124.55 75.15 148.5 57.7 166.65 34.75 170.95
L 19.3 172.5 18.1 172.5 2.7 170.95
Q -19.55 166.15 -36.6 148.5 -59.8 124.55 -59.8 90.65 -59.8 56.8 -36.6 32.8 -19.55 15.15 2.7 10.35 10.1 8.85 18.1 8.8 18.4 8.8 18.7 8.8 Z"/>
</g>
</defs>

<g transform="matrix( 0.701141357421875, 0, 0, 0.701141357421875, 65.2,74.45) ">
<g transform="matrix( 1, 0, 0, 1, -43.95,-66.5) ">
<g transform="matrix( -0.9619140625, 0.9618988037109375, 0.9618988037109375, 0.9619140625, 107.5,-14.7) "/>

<g transform="matrix( 0.7071075439453125, 0.70709228515625, -0.70709228515625, 0.7071075439453125, 129.6,26.4) "/>

<g transform="matrix( 1, 0, 0, 1, 71.35,69.8) ">
<g transform="matrix( 1, 0, 0, 1, 0,0) ">
<use xlink:href="#Wizard_0_Layer0_0_FILL"/>
</g>
</g>

<g transform="matrix( 0.7071075439453125, 0.70709228515625, -0.70709228515625, 0.7071075439453125, 175.3,73.6) ">
<g transform="matrix( 1, 0, 0, 1, 0,0) ">
<use xlink:href="#orbital_2_Layer0_0_FILL"/>
</g>
</g>

<g transform="matrix( -0.9619140625, 0.9618988037109375, 0.9618988037109375, 0.9619140625, 44.75,50.2) ">
<g transform="matrix( 1, 0, 0, 1, 0,0) ">
<use xlink:href="#orbital_5_Layer0_0_FILL"/>
</g>
</g>
</g>
</g>
</svg>
