
<svg xmlns="http://www.w3.org/2000/svg" version="1.1" xmlns:xlink="http://www.w3.org/1999/xlink" preserveAspectRatio="none" x="0px" y="0px" width="250px" height="250px" viewBox="0 0 250 250">
<defs>
<g id="spike_ball_0_Layer0_0_FILL">
<path fill="#000000" stroke="none" d="
M 113.05 49.1
L 108.1 36.15
Q 108.5 35.15 108.95 34.25 115.1 21.45 113.85 7.3 98.95 4 87.2 14.55
L 70.6 8.3
Q 69.6 5.8 67.85 3.65 64.3 -0.6 59.35 1.8 55.3 3.65 53.6 7.6 41.75 9.3 31.25 15.1 27.7 13.05 24.15 11 16.1 6.4 7.5 10 9.55 32.3 5.35 54.25 4.6 54.7 3.9 55.2 0.4 57.9 0.65 62.2 0.95 66.95 5.25 68.9 5.55 70.35 5.85 71.8 7.95 81.95 12.8 91.05 11 95.25 9.25 99.35 6.6 105.35 9.15 111.4
L 29.1 107.65
Q 45.05 115.95 62.75 119.25
L 65.9 116.55
Q 70.4 115.7 74.9 114.65 81.15 113.45 86.55 110 89 111.25 91.55 112.4 99.85 116.3 109.05 115.85 109.95 114.35 110.6 112.8 116.45 98.8 109.45 85.35 110 84 110.6 82.65 115.5 71.6 114.4 59.4 116.95 57.4 117.2 54.45 117.4 52.25 115.95 50.75 114.75 49.45 113.05 49.1
M 110.1 11.8
L 107.5 19.85 104.25 30.2 96.8 22.4 93.35 18.8 110.1 11.8
M 85 43.45
Q 84.373046875 44.430859375 84.05 45.7 80.1193359375 60.705859375 83.2 66.75 83.16640625 66.64375 83.1 66.5 81.98125 61.9361328125 82.2 58.55 82.26171875 57.8046875 82.35 57.1
L 82.4 57.1
Q 83.3970703125 51.1849609375 89.3 49.5 96.3548828125 47.56171875 110.3 51.6 112.25 52.05 114.25 52.5 107.63359375 65.7330078125 95.3 68.6 94.8908203125 68.715625 94.45 68.8 90.206640625 69.6615234375 85.25 69.3 88.6271484375 71.901171875 95.25 70.25 100.119140625 69.09765625 106.7 65.7 106.6 66.8 106.55 67.95 105.5 84.45 93.1 95.45 88.4109375 100.6158203125 82.55 103.65 77.3357421875 106.365625 71.2 107.4 74.65 102.85 75.75 97.1 76.8 91.75 73.3 90 72.405078125 89.5404296875 71.55 89.1 72.909765625 96.05234375 70.95 102.35 69.16328125 108.07890625 64.6 113.25 63.831640625 114.201171875 62.95 115.1 62.9009765625 115.1 62.85 115.1 62.79375 115.0986328125 62.75 115.1 62.59609375 115.091796875 62.45 115.05 62.3607421875 115.062890625 62.25 115.05 62.0279296875 115.002734375 61.8 114.9 60.9353515625 114.6099609375 60.35 113.8 60.311328125 113.70234375 60.25 113.6 57.95 109.9 55.9 106.1 47.0890625 87.7330078125 62.7 85.65 43.934375 80.5697265625 52.2 108.35 35.740625 104.80390625 25.4 94 18.2921875 86.5701171875 14.1 75.65 16.45 76.85 18.95 77.35 20.600390625 77.7484375 22.05 77.75 26.9625 77.8025390625 29.55 73.4 29.83515625 72.9146484375 30.1 72.45 25.8162109375 73.0875 21.9 72.7 20.2552734375 72.52421875 18.65 72.15 9.28984375 70.088671875 2.2 61.55 3.25 60.65 4.4 60 17.591015625 52.7380859375 24.3 54.7 31.138671875 56.758984375 31.35 68.25 31.3703125 69.0994140625 31.35 70 31.35234375 70.086328125 31.35 70.15 41.726953125 50.516796875 26.5 48.95 21.3505859375 48.4654296875 13.2 50.05 22.05 23.95 48.5 16.55
L 44.15 31.2
Q 44.4359375 31.453125 44.7 31.7 45.515625 32.3416015625 46.35 32.9 49.931640625 35.292578125 54.4 36.05 67.825 38.77265625 72.95 33.15 77.358984375 28.3490234375 75.7 17.45 95.15 25 103.4 44.25 98.5 40.65 92.45 40.5 87.065234375 40.269140625 85 43.45
M 62.05 5.35
Q 62.65 5.85 63.15 6.5 76.009375 24.58984375 67.05 30.7 66.9806640625 30.7904296875 66.85 30.85 65.7158203125 31.6279296875 64.2 32.2 59.864453125 33.839453125 52.65 33.9 52.62421875 33.7873046875 52.6 33.65 52.383203125 32.7015625 52.2 31.75 52.065234375 30.7986328125 51.95 29.85 50.356640625 15.4609375 62.05 5.35
M 25.75 19
L 20.45 24.65 14.4 31.1 14.1 29.8 14.1 29.75 10.7 13.15 25.75 19
M 20.7 100.3
L 23.15 102.9 14.75 105.3 15 104.35 17.15 96.65 20.7 100.3
M 107.45 106.7
L 108.3 109.9 92.65 105.9 97.5 100.9 104.2 94.1 107.45 106.7 Z"/>

<path fill="#264CD8" stroke="none" d="
M 107.45 106.7
Q 106.7048828125 106.2076171875 106 105.8 100.55 103.2 98.1 101.4 97.79453125 101.143359375 97.5 100.9
L 92.65 105.9 108.3 109.9 107.45 106.7
M 23.15 102.9
L 20.7 100.3
Q 20.4220703125 100.6232421875 20.15 100.85 19.1 101.7 16.7 102.9 15.769921875 103.5201171875 15 104.35
L 14.75 105.3 23.15 102.9
M 19.15 23.6
Q 17.15 22.05 16.45 21.35 15.8 20.8 15.65 20.8 14.85 20.6 14.2 21.75 13.6 22.9 13.8 24.7 13.9 25.75 14.2 27.8 14.2 28.3 14.15 29.35 14.1375 29.5736328125 14.1 29.75
L 14.1 29.8 14.4 31.1 20.45 24.65
Q 19.8796875 24.162890625 19.15 23.6
M 59.95 21.45
Q 59.65 20.3 58.85 18 58.65 17.4 58.2 17.4 57.9 17.4 57.7 17.8 56.15 20.1 55.05 23.45 54.45 25.35 53.45 29.6
L 53.4 29.65 52.6 33.65
Q 52.62421875 33.7873046875 52.65 33.9 59.864453125 33.839453125 64.2 32.2
L 62.3 26.2
Q 61.2 22.75 59.95 21.45
M 70.45 96.1
Q 70.5 94.85 70.5 94.2 70.45 93.1 70.25 92.35 69.8 91.15 69.1 91.35 68.8 91.4 68.45 92 67.45 93.7 66.8 95.9 66.4 97.4 65.8 100.45 65.4 102.1 64.35 104.95 63.2 108.1 62.8 109.45 62.440234375 110.8234375 62 113.65 61.8986328125 114.2580078125 61.8 114.9 62.0279296875 115.002734375 62.25 115.05 62.3607421875 115.062890625 62.45 115.05 62.59609375 115.091796875 62.75 115.1 62.79375 115.0986328125 62.85 115.1 62.9009765625 115.1 62.95 115.1 63.831640625 114.201171875 64.6 113.25 69.16328125 108.07890625 70.95 102.35 70.95859375 101.8568359375 70.95 101.4 70.5 97.85 70.45 96.1
M 21.9 72.7
Q 25.8162109375 73.0875 30.1 72.45
L 31.35 70.15
Q 31.35234375 70.086328125 31.35 70 31.3703125 69.0994140625 31.35 68.25 30.3681640625 68.0505859375 29.2 67.65 27.2 66.9 26.15 66.55 24.244140625 65.8533203125 22.25 65.4 19.3892578125 64.726953125 16.35 64.55 15 64.4 13.95 64.75 12.7 65.15 12.4 66.2 12 67.85 14.35 69.45 16.453125 70.9712890625 18.65 72.15 20.2552734375 72.52421875 21.9 72.7
M 102.8 60.8
Q 104.2 59.5 103.85 58.55 103.45 57.35 101.35 57.45 96.9390625 57.45 93.2 57.4 88.73984375 57.313671875 85.25 57.15 83.6677734375 57.0755859375 82.4 57.1
L 82.35 57.1
Q 82.26171875 57.8046875 82.2 58.55 81.98125 61.9361328125 83.1 66.5 83.16640625 66.64375 83.2 66.75
L 85.25 69.3
Q 90.206640625 69.6615234375 94.45 68.8 94.65859375 68.6521484375 94.85 68.5 95.060546875 68.3271484375 95.3 68.1 96.6033203125 66.9966796875 98.6 65
L 102.8 60.8
M 105.85 18
Q 105.2 17.95 104.2 18.55 103.2 19.15 98.9 21.35 97.7837890625 21.9166015625 96.8 22.4
L 104.25 30.2 107.5 19.85
Q 107.100390625 18.1388671875 105.85 18 Z"/>

<path fill="#0099FF" stroke="none" d="
M 106 105.8
Q 106.7048828125 106.2076171875 107.45 106.7
L 104.2 94.1 97.5 100.9
Q 97.79453125 101.143359375 98.1 101.4 100.55 103.2 106 105.8
M 20.15 100.85
Q 20.4220703125 100.6232421875 20.7 100.3
L 17.15 96.65 15 104.35
Q 15.769921875 103.5201171875 16.7 102.9 19.1 101.7 20.15 100.85
M 20.45 24.65
L 25.75 19 10.7 13.15 14.1 29.75
Q 14.1375 29.5736328125 14.15 29.35 14.2 28.3 14.2 27.8 13.9 25.75 13.8 24.7 13.6 22.9 14.2 21.75 14.85 20.6 15.65 20.8 15.8 20.8 16.45 21.35 17.15 22.05 19.15 23.6 19.8796875 24.162890625 20.45 24.65
M 63.15 6.5
Q 62.65 5.85 62.05 5.35 50.356640625 15.4609375 51.95 29.85 52.065234375 30.7986328125 52.2 31.75 52.383203125 32.7015625 52.6 33.65
L 53.4 29.65 53.45 29.6
Q 54.45 25.35 55.05 23.45 56.15 20.1 57.7 17.8 57.9 17.4 58.2 17.4 58.65 17.4 58.85 18 59.65 20.3 59.95 21.45 61.2 22.75 62.3 26.2
L 64.2 32.2
Q 65.7158203125 31.6279296875 66.85 30.85 66.9806640625 30.7904296875 67.05 30.7 76.009375 24.58984375 63.15 6.5
M 71.55 89.1
L 62.7 85.65
Q 47.0890625 87.7330078125 55.9 106.1 57.95 109.9 60.25 113.6 60.311328125 113.70234375 60.35 113.8 60.9353515625 114.6099609375 61.8 114.9 61.8986328125 114.2580078125 62 113.65 62.440234375 110.8234375 62.8 109.45 63.2 108.1 64.35 104.95 65.4 102.1 65.8 100.45 66.4 97.4 66.8 95.9 67.45 93.7 68.45 92 68.8 91.4 69.1 91.35 69.8 91.15 70.25 92.35 70.45 93.1 70.5 94.2 70.5 94.85 70.45 96.1 70.5 97.85 70.95 101.4 70.95859375 101.8568359375 70.95 102.35 72.909765625 96.05234375 71.55 89.1
M 22.25 65.4
Q 24.244140625 65.8533203125 26.15 66.55 27.2 66.9 29.2 67.65 30.3681640625 68.0505859375 31.35 68.25 31.138671875 56.758984375 24.3 54.7 17.591015625 52.7380859375 4.4 60 3.25 60.65 2.2 61.55 9.28984375 70.088671875 18.65 72.15 16.453125 70.9712890625 14.35 69.45 12 67.85 12.4 66.2 12.7 65.15 13.95 64.75 15 64.4 16.35 64.55 19.3892578125 64.726953125 22.25 65.4
M 103.85 58.55
Q 104.2 59.5 102.8 60.8
L 98.6 65
Q 96.6033203125 66.9966796875 95.3 68.1 95.060546875 68.3271484375 94.85 68.5 94.65859375 68.6521484375 94.45 68.8 94.8908203125 68.715625 95.3 68.6 107.63359375 65.7330078125 114.25 52.5 112.25 52.05 110.3 51.6 96.3548828125 47.56171875 89.3 49.5 83.3970703125 51.1849609375 82.4 57.1 83.6677734375 57.0755859375 85.25 57.15 88.73984375 57.313671875 93.2 57.4 96.9390625 57.45 101.35 57.45 103.45 57.35 103.85 58.55
M 107.5 19.85
L 110.1 11.8 93.35 18.8 96.8 22.4
Q 97.7837890625 21.9166015625 98.9 21.35 103.2 19.15 104.2 18.55 105.2 17.95 105.85 18 107.100390625 18.1388671875 107.5 19.85 Z"/>

<path fill="#CCCCCC" stroke="none" d="
M 18.95 77.35
Q 16.45 76.85 14.1 75.65 18.2921875 86.5701171875 25.4 94 22.6248046875 87.0611328125 22.05 77.75 20.600390625 77.7484375 18.95 77.35
M 44.7 31.7
Q 44.4359375 31.453125 44.15 31.2
L 48.5 16.55
Q 22.05 23.95 13.2 50.05 21.3505859375 48.4654296875 26.5 48.95 28.533203125 44.7353515625 31.4 41.25 36.8591796875 34.6150390625 44.7 31.7
M 106.55 67.95
Q 106.6 66.8 106.7 65.7 100.119140625 69.09765625 95.25 70.25 94.930078125 85.2421875 87.4 97.3 85.1884765625 100.8642578125 82.55 103.65 88.4109375 100.6158203125 93.1 95.45 105.5 84.45 106.55 67.95
M 85 43.45
Q 87.065234375 40.269140625 92.45 40.5 98.5 40.65 103.4 44.25 95.15 25 75.7 17.45 77.358984375 28.3490234375 72.95 33.15 79.2560546875 36.4556640625 85 43.45 Z"/>

<path fill="#999999" stroke="none" d="
M 84.05 45.7
Q 84.373046875 44.430859375 85 43.45 79.2560546875 36.4556640625 72.95 33.15 67.825 38.77265625 54.4 36.05 49.931640625 35.292578125 46.35 32.9 45.515625 32.3416015625 44.7 31.7 36.8591796875 34.6150390625 31.4 41.25 28.533203125 44.7353515625 26.5 48.95 41.726953125 50.516796875 31.35 70.15
L 30.1 72.45
Q 29.83515625 72.9146484375 29.55 73.4 26.9625 77.8025390625 22.05 77.75 22.6248046875 87.0611328125 25.4 94 35.740625 104.80390625 52.2 108.35 43.934375 80.5697265625 62.7 85.65
L 71.55 89.1
Q 72.405078125 89.5404296875 73.3 90 76.8 91.75 75.75 97.1 74.65 102.85 71.2 107.4 77.3357421875 106.365625 82.55 103.65 85.1884765625 100.8642578125 87.4 97.3 94.930078125 85.2421875 95.25 70.25 88.6271484375 71.901171875 85.25 69.3
L 83.2 66.75
Q 80.1193359375 60.705859375 84.05 45.7 Z"/>
</g>
</defs>

<g transform="matrix( 0.701141357421875, 0, 0, 0.701141357421875, 65.2,74.45) ">
<g transform="matrix( 1, 0, 0, 1, 27.1,22.15) ">
<g transform="matrix( 1, 0, 0, 1, 0,0) ">
<use xlink:href="#spike_ball_0_Layer0_0_FILL"/>
</g>
</g>
</g>
</svg>
