
<svg xmlns="http://www.w3.org/2000/svg" version="1.1" xmlns:xlink="http://www.w3.org/1999/xlink" preserveAspectRatio="none" x="0px" y="0px" width="250px" height="250px" viewBox="0 0 250 250">
<defs>
<g id="Wizard_1_Layer0_0_FILL">
<path fill="#000000" stroke="none" d="
M 89.7 70.05
Q 87.2 68.4 83.5 69.1 80.95 69.6 77.55 71.45 69.95 75.35 63.3 80.2 59.45 83.05 56.4 85.75 56.2 85.95 56.05 86.05 55.05 84.6 52.75 83.45 48.55 81.3 43.95 80.7 39.15 80.05 34.85 81.2 30.3 82.35 26.65 85.4 22.9 88.45 21.1 92.6 20.2 94.65 19.85 96.8 19.2 100.1 19.6 103.3 19.65 104.4 19.65 104.45 19.65 105.1 19.45 105.6 19.15 106.15 17.9 106.85 10.05 111.2 5.9 112.95 3.65 113.95 -1.05 115.85 -5.1 117.6 -7.65 119.35 -11 121.5 -12.15 124.05 -12.85 125.65 -12.7 127.3 -12.5 129.05 -11.4 130.25 -10.6 131.1 -9.2 131.65 -8.85 131.75 -8.3 131.9 -8.95 132.25 -9.55 132.55 -12.85 134.5 -12.15 136.45 -11.7 137.75 -9.1 138.2 0.95 140.15 11.15 139.1 11.4 140.45 12.5 141.6 13.4 142.65 14.8 143.3 15.9 143.8 17.55 144.15 18.5 144.35 20.4 144.7 22.95 145.2 26.95 146.4 31.95 147.85 33.4 148.25 39.75 149.85 47.5 150.45 53.35 150.95 61.85 150.9 63.95 150.9 65.1 150.7 66.85 150.45 68.05 149.7 69.15 149 69.35 148.1 69.5 147.4 69.15 146.7 68.8 146.05 68.1 145.6 67.35 145.1 65.3 144.75 65.3 143.65 65.2 142.9 67 142.7 69.05 142.45 77.5 141.6 83.1 140.4 90.65 138.75 96.45 135.85 100.6 133.75 102.55 131.35 103.15 130.6 103.55 129.8 103.65 129.85 103.7 129.85 104.55 130.2 105.8 130.2 106.4 130.15 107.95 130 112.2 129.4 114.45 128.55 116.15 127.9 117.55 126.65 119.6 125 120.65 122.05 121.25 120.7 121 119.6 120.65 118.45 119 117.3 109.7 110.45 101 109.85 97.25 109.55 97.2 109.55 95.95 109.45 94.2 108.9 93.45 108.65 93.3 108.3 93.15 108 93.15 107.4 93.2 104.15 92.7 100.95 94.7 102.25 97.05 103.6 99.35 104.9 103.7 106.95 105.3 107.7 106.2 107.45 107.8 106.95 107.85 104.4 107.95 101.05 105.7 95.65 103.45 90.55 99.9 84.6 97.75 81.05 93.2 74.1 91.25 71.05 89.7 70.05
M 83.1 75.5
Q 83.4279296875 75.390234375 83.75 75.3 85.15 74.85 86.2 75.15 87.15 75.45 88.45 77.15 90.9 80.55 96.4 88.9 98.75 92.8 99.1 93.4 99.3220703125 93.809375 99.55 94.25 100.9427734375 96.9953125 102.45 101 97.2 98.5 94 93.4 93.3 92.25 92.9 91.65 92.2 90.6 91.55 90 90.75 89.25 89.7 89 88.6 88.7 87.7 89.15 86.2 89.95 85.75 92.9 84.7 99.15 85.4 106 85.65 108.7 85.65 109.55 85.65 111.5 85.1 112.9 85.020703125 113.103125 84.9 113.3 83.5517578125 116.226953125 79.15 118.1 76.4 119.3 71.25 120.55 72.85 122.1 75.5 122.2 77.65 122.3 80.2 121.35 84.155859375 120.019921875 86.85 117.8 88.0662109375 116.8384765625 89 115.65 89.0669921875 115.640625 89.1 115.6 89.6 114.95 89.95 114.4 91.9232421875 116.95078125 97.05 123.55 97.245703125 123.8357421875 97.45 124.1 98.8 126 98.55 127.1 98.3 128.2 96.8 129 91.15 132.55 83.05 134.65 77.9 135.95 68.1 137.35 62.55 138.1 59.75 138.35 55.1 138.75 51.35 138.5 41.95 137.9 35.75 133.1 32.85 130.85 30.65 127.55 30.4 127.25 30.25 126.95
L 28.15 121.8
Q 27.95 120.45 27.6 118.55 27.05 115.45 26.9 114.15 25.85 106.1 27.75 98.05 28.3 95.8 28.95 94.3 30.6 90.75 33.95 89.4 35.8 88.7 39.15 88.8 42.75 88.8 44.5 88.9 47.85 89.1 49.65 89.95
L 51.1 90.85 51.2 90.9
Q 48.9 93.6 48.15 95.95 47.7 97.4 48.1 98.2 48.396875 98.712890625 48.9 98.9 49.3787109375 99.09609375 50 99.05 51.25 99.05 52.4 98.25 53.7 97.35 55.1 95.75 56.75 93.85 57.5 92.9 60.45 89.55 64.95 86.25 67.75 84.1 73.2 80.6 76.6 78.45 78.3 77.55 80.869921875 76.1998046875 83.1 75.5
M 48.8 142.75
Q 53.35 143.45 58.95 143.3 60.05 143.25 61.3 143.2
L 61.65 144.55
Q 62.160546875 145.859375 63.1 147 53.05 147.2 45.75 146.45 38.3197265625 145.7708984375 31.95 144.1 30.3779296875 143.6826171875 28.85 143.2 25.35 142 23.6 141.5
L 23.55 141.5
Q 20.8837890625 140.6115234375 18.75 140.3 18.5021484375 140.27734375 18.25 140.25 16.55 140.1 16.05 139.35 15.8 138.95 15.8 138.15 15.85 137.1 15.75 136.8 15.7220703125 136.70078125 15.65 136.6 14.9857421875 134.86640625 11.3 135.15 6.35 135.65 3.1 135.65 -1.4 135.65 -5.1 134.8 5.2931640625 130.5396484375 16.65 125.05 17.4232421875 124.67890625 18.2 124.3 20.2 123.3 21.1 122.7 22.06015625 122.1056640625 22.7 121.4 22.7900390625 121.3642578125 22.85 121.3 23.65 123.35 24.9 124.75 24.95 124.85 25.1 125 25.246875 125.3669921875 25.4 125.7 25.8712890625 126.8302734375 26.4 127.85 28.25 131.5 30.8 134.2 37.35 141.05 48.8 142.75
M 21.3 113.05
Q 21.45 116.1 22 118.55 19.45 118.95 14.6 121 6.65 124.45 2.35 126.5 1.88828125 126.6943359375 1.45 126.9 0.9869140625 127.11875 0.55 127.35 0.25 127.2 -0.15 127.1 -2.15 126.5 -4.2 126.6 -5.65 126.6 -5.65 125.85 -5.65 125.45 -5.1 125.1 -3.3 123.5 1.25 121.2 3.15 120.15 4.9 119.3 6.55 118.65 7.65 118.25 11.0958984375 116.9146484375 17.4 113.7 18.4126953125 113.2109375 19.5 112.65 19.8 112.55 20 112.4 20.65 112.1 21.25 111.8 21.25 112.4 21.3 113.05
M 102.65 117.1
L 105.3 117.85
Q 110.2 119.3 112.15 120.55 113.8 121.55 113.8 122.8 113.8 123.4 113.3 124 112.85 124.5 112.2 124.75 112.1642578125 124.7626953125 112.1 124.75 111.6021484375 124.9421875 110.5 125.05 110.0951171875 125.073828125 109.6 125.1 109.5876953125 125.098046875 109.55 125.1 107 125.15 104.65 125.7 104.6 124.9 104.4 124.2 103.9 122.55 101.95 120
L 99.05 116.1 102.65 117.1 Z"/>

<path fill="#264CD8" stroke="none" d="
M 103.7 118.25
Q 103.1013671875 117.595703125 102.65 117.1
L 99.05 116.1 101.95 120
Q 103.9 122.55 104.4 124.2 104.6 124.9 104.65 125.7 107 125.15 109.55 125.1 109.5876953125 125.098046875 109.6 125.1 110.0951171875 125.073828125 110.5 125.05 111.6021484375 124.9421875 112.1 124.75 111.95546875 123.6203125 111.7 123 111.2 121.9 109.4 121.3 107.3 120.75 106.35 120.3 105.15 119.75 103.7 118.25
M 22 118.55
Q 21.45 116.1 21.3 113.05 21.25 112.4 21.25 111.8 20.65 112.1 20 112.4 19.8 112.55 19.5 112.65 18.4126953125 113.2109375 17.4 113.7 7.074609375 122.206640625 2.3 126.2 1.9470703125 126.490625 1.45 126.9 1.88828125 126.6943359375 2.35 126.5 6.65 124.45 14.6 121 19.45 118.95 22 118.55
M 55.1 95.75
Q 53.7 97.35 52.4 98.25 51.25 99.05 50 99.05 49.3787109375 99.09609375 48.9 98.9 48.9 99.5767578125 48.9 100.6 48.9 101.7 48.75 104 48.95 109.65 54.9 114.75 56.05 115.8 57.05 116.1 57.7 116.25 58.3 116.1 59 115.9 59.3 115.35
L 56.65 109.85
Q 56 108.7 56.1 107.85 56.2 106.85 57.45 105.7 59.6 103.5 61.3 101.1 62.2 99.85 63.45 97.9 65.2 95.2 65.5 94.7 68.8 89.7 74.4 83.95 79.888671875 78.6646484375 83.1 75.5 80.869921875 76.1998046875 78.3 77.55 76.6 78.45 73.2 80.6 67.75 84.1 64.95 86.25 60.45 89.55 57.5 92.9 56.75 93.85 55.1 95.75
M 28.95 94.3
Q 28.3 95.8 27.75 98.05 25.85 106.1 26.9 114.15 27.05 115.45 27.6 118.55 27.95 120.45 28.15 121.8
L 30.25 126.95
Q 30.4 127.25 30.65 127.55 32.85 130.85 35.75 133.1 41.95 137.9 51.35 138.5 55.1 138.75 59.75 138.35 62.55 138.1 68.1 137.35 77.9 135.95 83.05 134.65 91.15 132.55 96.8 129 98.3 128.2 98.55 127.1 98.8 126 97.45 124.1 97.245703125 123.8357421875 97.05 123.55 91.9232421875 116.95078125 89.95 114.4 89.6 114.95 89.1 115.6 89.0669921875 115.640625 89 115.65 88.0662109375 116.8384765625 86.85 117.8 87.0234375 118.1162109375 87.2 118.4 87.85 119.5 90.1 122.4 91.66953125 124.278515625 93.2 126 92.4255859375 126.317578125 91.5 126.6 88.15 127.55 86.5 128.15 85.5 128.5 82.75 129.7 80.4 130.75 78.95 131.15 75.75 132.1 70.2 132.1 59 132.1 47.75 130.05 43 129.2 39.95 127.75 35.9 125.9 34.05 122.75 32.85 120.6 32.25 117.4 31.55 113.7 31.5 110.9 31.2 105 32.95 98.8 34.4 94.25 36.8 92.7 38.7 91.4 41.95 91.4 43.8 91.4 47.55 91.65 49.45 91.6 50.9 90.95 51.0109375 90.9009765625 51.1 90.85
L 49.65 89.95
Q 47.85 89.1 44.5 88.9 42.75 88.8 39.15 88.8 35.8 88.7 33.95 89.4 30.6 90.75 28.95 94.3
M 88.5 84.45
Q 87.35 84.1 86.25 84.3 85 84.55 84.3 85.35 83.4 86.45 83.3 89.1 83.2 95.8 83.55 98.6
L 84.1 102.45
Q 84.25 104.7 84.2 109.3 84.3865234375 111.3716796875 84.9 113.3 85.020703125 113.103125 85.1 112.9 85.65 111.5 85.65 109.55 85.65 108.7 85.4 106 84.7 99.15 85.75 92.9 86.2 89.95 87.7 89.15 88.6 88.7 89.7 89 90.75 89.25 91.55 90 92.2 90.6 92.9 91.65 93.3 92.25 94 93.4 97.2 98.5 102.45 101 100.9427734375 96.9953125 99.55 94.25 99.1365234375 93.9212890625 98.65 93.55 97.2 92.45 95.3 90.4 93.25 88.15 92.15 87.05 90.15 85.05 88.5 84.45 Z"/>

<path fill="#0099FF" stroke="none" d="
M 105.3 117.85
L 102.65 117.1
Q 103.1013671875 117.595703125 103.7 118.25 105.15 119.75 106.35 120.3 107.3 120.75 109.4 121.3 111.2 121.9 111.7 123 111.95546875 123.6203125 112.1 124.75 112.1642578125 124.7626953125 112.2 124.75 112.85 124.5 113.3 124 113.8 123.4 113.8 122.8 113.8 121.55 112.15 120.55 110.2 119.3 105.3 117.85
M 7.65 118.25
Q 6.55 118.65 4.9 119.3 3.15 120.15 1.25 121.2 -3.3 123.5 -5.1 125.1 -5.65 125.45 -5.65 125.85 -5.65 126.6 -4.2 126.6 -2.15 126.5 -0.15 127.1 0.25 127.2 0.55 127.35 0.9869140625 127.11875 1.45 126.9 1.9470703125 126.490625 2.3 126.2 7.074609375 122.206640625 17.4 113.7 11.0958984375 116.9146484375 7.65 118.25
M 83.75 75.3
Q 83.4279296875 75.390234375 83.1 75.5 79.888671875 78.6646484375 74.4 83.95 68.8 89.7 65.5 94.7 65.2 95.2 63.45 97.9 62.2 99.85 61.3 101.1 59.6 103.5 57.45 105.7 56.2 106.85 56.1 107.85 56 108.7 56.65 109.85
L 59.3 115.35
Q 59 115.9 58.3 116.1 57.7 116.25 57.05 116.1 56.05 115.8 54.9 114.75 48.95 109.65 48.75 104 48.9 101.7 48.9 100.6 48.9 99.5767578125 48.9 98.9 48.396875 98.712890625 48.1 98.2 47.7 97.4 48.15 95.95 48.9 93.6 51.2 90.9
L 51.1 90.85
Q 51.0109375 90.9009765625 50.9 90.95 49.45 91.6 47.55 91.65 43.8 91.4 41.95 91.4 38.7 91.4 36.8 92.7 34.4 94.25 32.95 98.8 31.2 105 31.5 110.9 31.55 113.7 32.25 117.4 32.85 120.6 34.05 122.75 35.9 125.9 39.95 127.75 43 129.2 47.75 130.05 59 132.1 70.2 132.1 75.75 132.1 78.95 131.15 80.4 130.75 82.75 129.7 85.5 128.5 86.5 128.15 88.15 127.55 91.5 126.6 92.4255859375 126.317578125 93.2 126 91.66953125 124.278515625 90.1 122.4 87.85 119.5 87.2 118.4 87.0234375 118.1162109375 86.85 117.8 84.155859375 120.019921875 80.2 121.35 77.65 122.3 75.5 122.2 72.85 122.1 71.25 120.55 76.4 119.3 79.15 118.1 83.5517578125 116.226953125 84.9 113.3 84.3865234375 111.3716796875 84.2 109.3 84.25 104.7 84.1 102.45
L 83.55 98.6
Q 83.2 95.8 83.3 89.1 83.4 86.45 84.3 85.35 85 84.55 86.25 84.3 87.35 84.1 88.5 84.45 90.15 85.05 92.15 87.05 93.25 88.15 95.3 90.4 97.2 92.45 98.65 93.55 99.1365234375 93.9212890625 99.55 94.25 99.3220703125 93.809375 99.1 93.4 98.75 92.8 96.4 88.9 90.9 80.55 88.45 77.15 87.15 75.45 86.2 75.15 85.15 74.85 83.75 75.3 Z"/>

<path fill="#EFECED" stroke="none" d="
M 19.1 139.45
Q 18.95625 139.7662109375 18.75 140.3 20.8837890625 140.6115234375 23.55 141.5 23.484765625 141.4611328125 23.4 141.4 24.9255859375 140.7005859375 25.95 140.55
L 26.9 140.35
Q 27.45 140 27.45 139.6 24.6 138.05 22.4 135.4 21.65 134.55 21.3 134.45 21.05 136 20.25 137.35 20.2 137.5 19.6 138.4 19.25 139 19.1 139.45
M 17.45 127.75
Q 16.9048828125 126.4615234375 16.65 125.05 5.2931640625 130.5396484375 -5.1 134.8 -1.4 135.65 3.1 135.65 6.35 135.65 11.3 135.15 14.9857421875 134.86640625 15.65 136.6
L 17.55 133.15
Q 18.3 131.65 18.35 130.95 18.45 129.95 17.45 127.75
M 22.85 121.3
Q 22.7900390625 121.3642578125 22.7 121.4 22.921875 121.96484375 23.15 122.7 23.55 123.95 24.15 124.65 24.621875 125.256640625 25.4 125.7 25.246875 125.3669921875 25.1 125 24.95 124.85 24.9 124.75 23.65 123.35 22.85 121.3
M 60.25 145.25
Q 49.45 146 40.9 144.45 37.65 143.8 37.5 143.8 35.55 143.5 34.05 143.65 33.19609375 143.7375 31.95 144.1 38.3197265625 145.7708984375 45.75 146.45 53.05 147.2 63.1 147 62.160546875 145.859375 61.65 144.55 61.7720703125 144.83671875 61.9 145.1 61.0404296875 145.191796875 60.25 145.25 Z"/>

<path fill="#999999" stroke="none" d="
M 58.95 143.3
Q 53.35 143.45 48.8 142.75 37.35 141.05 30.8 134.2 28.25 131.5 26.4 127.85 25.8712890625 126.8302734375 25.4 125.7 24.621875 125.256640625 24.15 124.65 23.55 123.95 23.15 122.7 22.921875 121.96484375 22.7 121.4 22.06015625 122.1056640625 21.1 122.7 20.2 123.3 18.2 124.3 17.4232421875 124.67890625 16.65 125.05 16.9048828125 126.4615234375 17.45 127.75 18.45 129.95 18.35 130.95 18.3 131.65 17.55 133.15
L 15.65 136.6
Q 15.7220703125 136.70078125 15.75 136.8 15.85 137.1 15.8 138.15 15.8 138.95 16.05 139.35 16.55 140.1 18.25 140.25 18.5021484375 140.27734375 18.75 140.3 18.95625 139.7662109375 19.1 139.45 19.25 139 19.6 138.4 20.2 137.5 20.25 137.35 21.05 136 21.3 134.45 21.65 134.55 22.4 135.4 24.6 138.05 27.45 139.6 27.45 140 26.9 140.35
L 25.95 140.55
Q 24.9255859375 140.7005859375 23.4 141.4 23.484765625 141.4611328125 23.55 141.5
L 23.6 141.5
Q 25.35 142 28.85 143.2 30.3779296875 143.6826171875 31.95 144.1 33.19609375 143.7375 34.05 143.65 35.55 143.5 37.5 143.8 37.65 143.8 40.9 144.45 49.45 146 60.25 145.25 61.0404296875 145.191796875 61.9 145.1 61.7720703125 144.83671875 61.65 144.55
L 61.3 143.2
Q 60.05 143.25 58.95 143.3 Z"/>
</g>
</defs>

<g transform="matrix( 0.701141357421875, 0, 0, 0.701141357421875, 65.2,74.45) ">
<g transform="matrix( 1, 0, 0, 1, -43.95,-66.5) ">
<g transform="matrix( 1.0945281982421875, 0, 0, 0.9290924072265625, 67.15,126.75) ">
<g transform="matrix( 1, 0, 0, 1, 0,0) ">
<use xlink:href="#Wizard_1_Layer0_0_FILL"/>
</g>
</g>
</g>
</g>
</svg>
