
<svg xmlns="http://www.w3.org/2000/svg" version="1.1" xmlns:xlink="http://www.w3.org/1999/xlink" preserveAspectRatio="none" x="0px" y="0px" width="250px" height="250px" viewBox="0 0 250 250">
<defs>
<g id="orbital_back_1_Layer0_0_FILL">
<path fill="#000000" stroke="none" d="
M 98.3 8.25
Q 94.15 3.75 88.35 2.7 82.75 1.7 77.05 4.05 72.6904296875 5.873046875 69.4 9.1 69.465234375 9.0298828125 69.5 8.95 65.9 11.7 62.65 18.45 54.7 34.85 50.9 60.4 42.8 113.85 57.1 154.45 61.35 166.35 66.7 173.05 70.1 177.35 74.35 180.2 78.1263671875 182.744921875 82.15 183.85
L 82 183.9
Q 85.05 185.15 89.15 184.15 91.95 183.45 96.2 181.35 97.85 180.55 98.5 180.15 99.75 179.4 100.45 178.45 101.9 176.6 101.75 173.6 101.65 171.7 100.75 168.25 90.7 132.5 89.95 99.25 89.15 62.25 100.05 30.85 101.65 26.05 102 24.8 102.95 21.3 102.85 18.55 102.6 12.8 98.3 8.25
M 98.5 14.85
Q 99.95 18.8 98.5 24.2 98.1 25.8 95.15 33.55 92.35 40.75 90.25 51.65 84.6 81 86.8 111.6 88.9 141.75 98.45 170.65 98.681640625 171.3833984375 98.85 171.95 98.476171875 172.0416015625 98 172.25 93.4 173.9 89.9 174.3 85.2 174.8 81.7 173.15 81.4244140625 173.0638671875 81.2 173 81.26171875 171.6009765625 78.45 170.3 75.3 168.75 72.7 165.35 70.75 162.8 68.75 158.6 59.4 138.75 57.65 112.75 56.35 93.5 59.5 65.35 61.15 50.7 63.35 39.65 65.488671875 28.5529296875 68.5 19.05 69.0396484375 18.5041015625 69.65 17.75 74.6998046875 11.362109375 81.15 6.7 82.5416015625 6.4197265625 83.9 6.35 88.6 6.05 92.7 8.35 97 10.75 98.5 14.85
M 75.3 8.7
Q 74.840625 9.1765625 74.35 9.7 71.3505859375 12.7654296875 69.3 15.15 67.4677734375 16.8609375 66.2 19.65 65.2 21.9 64.2 25.9 56.1 58.75 55 91.85 54.25 113.15 57 129.8 60.3 150 69.05 165.25 71.5 169.5 73.8 171.4 75.4 172.75 77.25 173.3 78.697265625 173.7703125 80.05 173.7 80.1125 173.8875 80.3 174 82.15 176.2 85.85 176.65 87.95 176.9 92.05 176.3 94.5 175.95 95.85 175.65 97.8599609375 175.1236328125 99.25 174.25 99.3162109375 175.4419921875 98.9 176.35 98.3 177.65 96.8 178.55 95.8 179.1 93.85 179.8
L 86.7 182.25
Q 86.2951171875 181.681640625 85.1 181.25 79 178.9 73.75 174 68.95 169.45 65.35 163.25 59.9 153.7 56.45 137.65 49.65 105.5 53 72.3 56.1353515625 41.68515625 67.5 13.65 67.6009765625 13.7146484375 67.7 13.75 71.56015625 10.533203125 75.3 8.7 Z"/>

<path fill="#8E2D1A" stroke="none" d="
M 74.35 9.7
Q 74.840625 9.1765625 75.3 8.7 71.56015625 10.533203125 67.7 13.75 67.6009765625 13.7146484375 67.5 13.65 56.1353515625 41.68515625 53 72.3 49.65 105.5 56.45 137.65 59.9 153.7 65.35 163.25 68.95 169.45 73.75 174 79 178.9 85.1 181.25 86.2951171875 181.681640625 86.7 182.25
L 93.85 179.8
Q 95.8 179.1 96.8 178.55 98.3 177.65 98.9 176.35 99.3162109375 175.4419921875 99.25 174.25 97.8599609375 175.1236328125 95.85 175.65 94.5 175.95 92.05 176.3 87.95 176.9 85.85 176.65 82.15 176.2 80.3 174 80.1125 173.8875 80.05 173.7 78.697265625 173.7703125 77.25 173.3 75.4 172.75 73.8 171.4 71.5 169.5 69.05 165.25 60.3 150 57 129.8 54.25 113.15 55 91.85 56.1 58.75 64.2 25.9 65.2 21.9 66.2 19.65 67.4677734375 16.8609375 69.3 15.15 71.3505859375 12.7654296875 74.35 9.7 Z"/>

<path fill="#666666" stroke="none" d="
M 98.5 24.2
Q 99.95 18.8 98.5 14.85 97 10.75 92.7 8.35 88.6 6.05 83.9 6.35 82.5416015625 6.4197265625 81.15 6.7 74.6998046875 11.362109375 69.65 17.75 69.0396484375 18.5041015625 68.5 19.05 65.488671875 28.5529296875 63.35 39.65 61.15 50.7 59.5 65.35 56.35 93.5 57.65 112.75 59.4 138.75 68.75 158.6 70.75 162.8 72.7 165.35 75.3 168.75 78.45 170.3 81.26171875 171.6009765625 81.2 173 81.4244140625 173.0638671875 81.7 173.15 85.2 174.8 89.9 174.3 93.4 173.9 98 172.25 98.476171875 172.0416015625 98.85 171.95 98.681640625 171.3833984375 98.45 170.65 88.9 141.75 86.8 111.6 84.6 81 90.25 51.65 92.35 40.75 95.15 33.55 98.1 25.8 98.5 24.2 Z"/>
</g>

<g id="Wizard_0_Layer0_0_FILL">
<path fill="#000000" stroke="none" d="
M 88.8 31.35
Q 88.95 30.2 87.5 28.55 83.5 24.3 75.6 17.95
L 66.45 10.4
Q 63.55 8.1 62.6 7.45 62.15 7.15 59.95 5.75 58.35 4.7 57.4 3.9 56.8 3.4 55.75 2.35 54.75 1.45 53.95 0.95 52.95 0.25 51.85 0.05 50.6 -0.15 49.65 0.3 48.35 0.9 47.1 3.45
L 44 9.55
Q 39.05 19.15 37.5 24.6 36.15 29.25 35.7 30.3 34.75 32.45 32.5 35.35 32.35 35.55 32.2 35.75 26.25 34.65 17.3 35.55 9.6 36.3 5.65 38.75 2.95 40.4 1.35 43.05 -0.3 45.9 0.1 48.8 0.5 51.8 3.15 54.6 4.95 56.5 8.6 58.9 5.65 58.55 3.15 60.9 0.8 63.2 0.55 66.3 0.35 69.2 1.9 72.1 3.35 74.7 5.85 76.7 8 78.4 11.05 79.8 12.9 80.65 16.75 82.05 13.85 91.15 7.6 98.55 6 100.25 5.95 101.5 5.9 102.7 6.85 103.7 7.7 104.6 9 104.95 9.65 105.15 11.45 105.4 13 105.65 13.85 106 11.95 108.45 11.15 109.7 9.75 111.9 9.15 113.8 8.4 116.15 8.7 118.4 9 120.85 10.5 122.45 13.1 125.25 19 125.15 26.75 124.95 30.35 120.65 30.75 129.6 28.6 137.9 27.6 141.9 29.4 143 30.3 143.6 32.6 143.2 39.15 141.95 42.65 140.95 48.1 139.4 52.1 137.1 57.05 134.25 61.85 128.95 64.2 126.4 67.95 121.5 68.3 121.6 68.8 121.75 69.8 122.05 71.15 122.8
L 73.45 124
Q 76.25 125.4 82.75 126.85 84.75 127.25 85.9 127.25 87.6 127.2 88.75 126.45 91.05 124.8 90.75 120.05 90.05 109.05 83.65 100.1
L 90.65 103.8
Q 93.3 105.3 94.7 104.3 95.8 103.5 95.7 101.2 95.45 94.5 91.25 89.45 90.3 88.3 90.65 87.65 90.8 87.2 91.85 86.85 97.35 85.15 99.95 82.15 101.6 80.3 102.15 77.95 102.7 75.45 101.8 73.4 104.75 71.65 106.15 70.35 108.3 68.4 108.75 66.1 109.45 62.65 105.95 57.65 103.85 54.7 101.95 52.9 99.05 50.15 94.5 48.1 91.6 46.8 86 45.05
L 77.05 42.15
Q 76.95 42 76.9 41.9 74.25 37.25 72.55 31.95
L 84 33.35
Q 85.95 33.55 86.9 33.3 88.65 32.85 88.8 31.35
M 99.95 60.8
Q 100.1 61 100.25 61.2 100.6 61.55 100.9 61.95 102.4 63.8 101.8 65.05 101.45 65.75 99.95 66.4 98.05 67.1 96 67.65 95.9 67.65 95.8 67.7 91.65 68.65 86.8 68.85 81.5 69.05 73.25 68.2 64.7 67.35 53.85 65.65 41.75 63.7 32.7 61.2 21.5 58.1 12.65 53.6 10.2 52.4 9.1 51.1 7.3 49.15 8.05 47.05 8.65 45.25 11.85 43.95 16.5 42.15 21.45 41.7 23.1 41.55 24.8 41.55 28.2 41.7 29.9 41.75 30.6 41.75 31.25 41.8 32 42.45 33.15 42.5 33.6 42.55 34.05 42.45 34.25 42.4 34.45 42.35 34 43.15 33.3 44.4 33.25 44.5 33.25 44.55 33.1 44.8 33 45
L 32.9 45.15
Q 32.8 45.35 32.7 45.6
L 32.7 45.55
Q 32.25 46.5 32 47.3 31.8 48 32.05 48.3 32.35 48.65 33.1 48.45 35.55 47.75 37.75 43.85 39.6 40.65 41.55 36.3 42.45 34.35 44.9 28.5
L 53.1 8.45
Q 58.45 12.65 64 16.65 70.1 21 76.5 25.05 77.3 25.7 78.05 26.3
L 68.7 24.6
Q 66.25 24.2 65.45 25.1 64.7 25.85 64.95 27.15 65.1 28.05 65.8 29.5 66.75 31.55 67.7 34.9 69.1 39.8 69.3 40.4 70.15 43.25 72.4 48.25
L 74.65 53.4
Q 74.95 54.15 75.4 54.55 76 55.05 76.5 54.75 77.25 54.4 76.8 52.8
L 74.9 46.75
Q 75.8 47.4 76.65 47.15 85.95 51 87.5 51.8
L 87.55 51.8
Q 88.6 52.3 89.6 52.9 96.05 56.4 99.95 60.8
M 86.45 72.9
Q 88.8 72.8 91.05 72.6 93.35 73.3 95.65 74.5 96.75 75.05 96.85 75.7 97 76.2 96.55 77.05 96.55 77.1 96.5 77.15 95.5 78.85 93.5 79.95 91.7 80.95 89.5 81.25 88.8 81.35 86.2 81.55 85 81.65 84.1 81.8 81.4 77.2 78.4 72.75 81.95 72.95 84.9 72.95 85.7 72.95 86.45 72.9
M 89.1 97.2
L 87.85 96.25 75.35 87
Q 74.8 86.6 74.4 86.45 74.25 86.4 74.15 86.4 73.9 86.4 73.75 86.45 72.9 86.7 72.8 88.25 72.6 90.85 72.55 96.1 72.05 103.25 68.9 110.1 65.85 116.7 60.75 122.15 57.55 125.5 53.75 128.3 49.65 131.3 44.9 133.6 40.75 135.6 36.15 137.1 36.1 137.1 36.05 137.1 36.05 136.95 36.1 136.85 37.5 128.9 37.25 119.2 37.1 112 35.95 101.25
L 34.65 90.75
Q 34.55 90.05 34.35 89.65 34.2 89.25 33.95 89.05 32.55 87.85 30.25 90.6 27.85 93.5 24.55 95.45 23.85 95.45 23.25 95.85 22.9 96.1 22.55 96.5 19.7 97.85 16.7 98.3 15.4 98.5 14.05 98.55 24.8 87.55 30.9 73.35 32.05 70.6 33.05 67.75 33.6 66.3 33.5 65.35 53.15 70.35 73 72.3 75 72.5 76.85 72.65 76.8 72.9 76.8 73.2 76.8 74.25 77.4 75.3
L 79.7 79.6 83.65 87.05
Q 83.7 87.1 83.7 87.15 84 87.95 84.6 88.85
L 89.1 97.2
M 27.45 66.8
Q 28.55 68.1 27.55 71.15 26.85 73.45 25.5 76.85 24.85 78.45 24.15 78.9 23.5 79.35 22.6 79.3 22 79.25 20.85 78.95 17.25 77.85 14.85 76.85 11.7931640625 75.54921875 10 73.95 9.076953125 73.1265625 8.5 72.2 7.5 70.6 7.5 68.75 7.5 66.8 8.6 65.45 9.85 63.95 12.25 63.5 13.3291015625 63.27109375 14.9 63.25 15.73125 63.248046875 16.7 63.3 21.35 63.5 23.3 64.4 24.05 64.75 25.55 65.6 25.9 65.8 26.6 66.1 27.15 66.45 27.45 66.8
M 25.9 98.5
Q 26 98.4 26.15 98.35 26.7 98.05 27.25 97.75
L 27.25 97.7
Q 27.75 97.35 28.35 97.05
L 31.45 94.7
Q 31.5 94.65 31.55 94.6 31.65 94.5 31.8 94.4 31.9 94.3 31.95 94.25
L 33.25 112.35 33.15 112.35
Q 32.95 112.25 33.05 112.15 31.8 112.2 30.9 113.3 30.85 113.35 30.85 113.4 30 113.95 29 115.3 26.75 117.05 23.95 118.05 21.3 118.95 18.55 119.05 17.95 119.05 17.35 119 16.7 118.95 16.35 118.8 16.2 118.7 16.1 118.65 16.05 118.6 16 118.55
L 15.95 118.5
Q 15.45 117.9 16 116.55 18.85 109.35 25.3 99.55 25.65 99 25.85 98.5
L 25.9 98.5
M 76.8 96.7
Q 76.9 96.85 77 97 77.8 98.45 79.25 100.9 79.45 101.25 79.7 101.6
L 79.7 101.65
Q 79.9 102 80.1 102.35 80.9 103.85 81.4 105.3 82.2 107.3 83.5 111.4 85 114.95 85.25 116.2 85.8 118.15 84.95 119.35 83.8 119.4 82.5 119.1 81.7 118.9 80.85 118.6 79.45 118.05 77.05 116.65
L 72.35 114.05
Q 71.3 113.45 70.5 113.25 71.85 110.75 72.85 108.1 75.45 101.25 75.65 94.45 75.8 94.9 76.25 95.65 76.5 96.1 76.8 96.7
M 73.1 118.5
Q 73.6 118.75 73.95 119 73.55 118.8 73.15 118.6 73.15 118.55 73.1 118.5 Z"/>

<path fill="#0099FF" stroke="none" d="
M 80.1 102.35
Q 79.9 102 79.7 101.65 79.3 105.3 78.2 108.1 77.1 111.05 75.45 112.25 77.4 113.85 81.65 118.25 82.05 118.7 82.5 119.1 83.8 119.4 84.95 119.35 85.8 118.15 85.25 116.2 85 114.95 83.5 111.4 82.2 107.3 81.4 105.3 80.9 103.85 80.1 102.35
M 27.25 97.75
Q 26.7 98.05 26.15 98.35 25.15 100.75 23.5 104.15
L 16.35 118.8
Q 16.7 118.95 17.35 119 17.95 119.05 18.55 119.05 19.2 118.5 20.35 117.45 22.95 115.3 24.15 114.1 26.2 112.1 26.85 110.1 27.3 108.7 27.3 105.65
L 27.25 97.75
M 20.55 73.9
Q 21.35 72 21.3 71.15 21.25 69.65 18.9 67.5 16.7533203125 65.5013671875 14.9 63.25 13.3291015625 63.27109375 12.25 63.5 9.85 63.95 8.6 65.45 7.5 66.8 7.5 68.75 7.5 70.6 8.5 72.2 9.076953125 73.1265625 10 73.95
L 20.05 76.6
Q 19.8 75.65 20.55 73.9
M 91.05 72.6
Q 88.8 72.8 86.45 72.9 85.7 72.95 84.9 72.95 85.25 74.05 85.8 76.35 91.2 77 96.55 77.05 97 76.2 96.85 75.7 96.75 75.05 95.65 74.5 93.35 73.3 91.05 72.6
M 95.8 67.7
Q 95.9 67.65 96 67.65 96 67.6068359375 96 67.55 95.8984375 67.6310546875 95.8 67.7
M 91.95 61.1
Q 93.3 59.25 91.2 56.1 89.55 53.7 87.5 51.8 85.95 51 76.65 47.15 75.8 47.4 74.9 46.75
L 76.8 52.8
Q 77.25 54.4 76.5 54.75 76 55.05 75.4 54.55 74.95 54.15 74.65 53.4
L 72.4 48.25
Q 70.15 43.25 69.3 40.4 69.1 39.8 67.7 34.9 66.75 31.55 65.8 29.5 65.1 28.05 64.95 27.15 64.7 25.85 65.45 25.1 66.25 24.2 68.7 24.6
L 78.05 26.3
Q 77.3 25.7 76.5 25.05 70.1 21 64 16.65
L 54.6 14.2
Q 54.25 16.15 54.5 18.9 54.65 20.45 55 23.6 55.15 26 55.15 28.45 55.15 42.95 53 57.9 58.7 59.45 64.3 60.1 64.1 61 62.6 61.2 55.5 62.75 48.1 59.95 41.6 57.55 35.8 52 33.85 50.15 33.1 48.45 32.35 48.65 32.05 48.3 31.8 48 32 47.3 32.25 46.5 32.7 45.55 32.85 44.75 33.25 43.9 33.45 43.55 34.05 42.45 33.6 42.55 33.15 42.5 32 42.45 31.25 41.8 30.6 41.75 29.9 41.75 28.2 41.7 24.8 41.55 23.1 41.55 21.45 41.7
L 14.8 45.6
Q 13.1 46.65 12.9 47.5 12.7 48.4 13.45 49.6 15.35 52.65 20.15 55.15 27.95 59.3 38.55 61.45 46 63 58 63.95 67.95 64.75 73.9 64.65 82.6 64.45 89.45 62.45 91.25 62 91.95 61.1 Z"/>

<path fill="#264CD8" stroke="none" d="
M 77 97
Q 76.9 96.85 76.8 96.7 76.5 96.1 76.25 95.65 75.8 94.9 75.65 94.45 75.45 101.25 72.85 108.1 71.85 110.75 70.5 113.25 71.3 113.45 72.35 114.05
L 77.05 116.65
Q 79.45 118.05 80.85 118.6 81.7 118.9 82.5 119.1 82.05 118.7 81.65 118.25 77.4 113.85 75.45 112.25 77.1 111.05 78.2 108.1 79.3 105.3 79.7 101.65
L 79.7 101.6
Q 79.45 101.25 79.25 100.9 77.8 98.45 77 97
M 27.25 97.7
L 27.25 97.75 27.3 105.65
Q 27.3 108.7 26.85 110.1 26.2 112.1 24.15 114.1 22.95 115.3 20.35 117.45 19.2 118.5 18.55 119.05 21.3 118.95 23.95 118.05 26.75 117.05 29 115.3 30 113.95 30.85 113.4 30.85 113.35 30.9 113.3 31.8 112.2 33.05 112.15 32.95 112.25 33.15 112.35
L 33.25 112.35 31.95 94.25
Q 31.9 94.3 31.8 94.4 31.65 94.5 31.55 94.6 31.5 94.65 31.45 94.7
L 28.35 97.05
Q 27.75 97.35 27.25 97.7
M 26.15 98.35
Q 26 98.4 25.9 98.5
L 25.85 98.5
Q 25.65 99 25.3 99.55 18.85 109.35 16 116.55 15.45 117.9 15.95 118.5
L 16 118.55
Q 16.05 118.6 16.1 118.65 16.2 118.7 16.35 118.8
L 23.5 104.15
Q 25.15 100.75 26.15 98.35
M 27.55 71.15
Q 28.55 68.1 27.45 66.8 27.15 66.45 26.6 66.1 25.9 65.8 25.55 65.6 24.05 64.75 23.3 64.4 21.35 63.5 16.7 63.3 15.73125 63.248046875 14.9 63.25 16.7533203125 65.5013671875 18.9 67.5 21.25 69.65 21.3 71.15 21.35 72 20.55 73.9 19.8 75.65 20.05 76.6
L 10 73.95
Q 11.7931640625 75.54921875 14.85 76.85 17.25 77.85 20.85 78.95 22 79.25 22.6 79.3 23.5 79.35 24.15 78.9 24.85 78.45 25.5 76.85 26.85 73.45 27.55 71.15
M 96.5 77.15
Q 96.55 77.1 96.55 77.05 91.2 77 85.8 76.35 85.25 74.05 84.9 72.95 81.95 72.95 78.4 72.75 81.4 77.2 84.1 81.8 85 81.65 86.2 81.55 88.8 81.35 89.5 81.25 91.7 80.95 93.5 79.95 95.5 78.85 96.5 77.15
M 34.45 42.35
Q 34.25 42.4 34.05 42.45 33.45 43.55 33.25 43.9 32.85 44.75 32.7 45.55
L 32.7 45.6
Q 32.8 45.35 32.9 45.15
L 33 45
Q 33.1 44.8 33.25 44.55 33.25 44.5 33.3 44.4 34 43.15 34.45 42.35
M 55 23.6
Q 54.65 20.45 54.5 18.9 54.25 16.15 54.6 14.2
L 64 16.65
Q 58.45 12.65 53.1 8.45
L 44.9 28.5
Q 42.45 34.35 41.55 36.3 39.6 40.65 37.75 43.85 35.55 47.75 33.1 48.45 33.85 50.15 35.8 52 41.6 57.55 48.1 59.95 55.5 62.75 62.6 61.2 64.1 61 64.3 60.1 58.7 59.45 53 57.9 55.15 42.95 55.15 28.45 55.15 26 55 23.6
M 100.25 61.2
Q 100.1 61 99.95 60.8 96.05 56.4 89.6 52.9 88.6 52.3 87.55 51.8
L 87.5 51.8
Q 89.55 53.7 91.2 56.1 93.3 59.25 91.95 61.1 91.25 62 89.45 62.45 82.6 64.45 73.9 64.65 67.95 64.75 58 63.95 46 63 38.55 61.45 27.95 59.3 20.15 55.15 15.35 52.65 13.45 49.6 12.7 48.4 12.9 47.5 13.1 46.65 14.8 45.6
L 21.45 41.7
Q 16.5 42.15 11.85 43.95 8.65 45.25 8.05 47.05 7.3 49.15 9.1 51.1 10.2 52.4 12.65 53.6 21.5 58.1 32.7 61.2 41.75 63.7 53.85 65.65 64.7 67.35 73.25 68.2 81.5 69.05 86.8 68.85 91.65 68.65 95.8 67.7 95.8984375 67.6310546875 96 67.55 96 67.6068359375 96 67.65 98.05 67.1 99.95 66.4 101.45 65.75 101.8 65.05 102.4 63.8 100.9 61.95 100.6 61.55 100.25 61.2 Z"/>

<path fill="#FFFFFF" stroke="none" d="
M 36.15 137.1
L 36.1 136.85
Q 36.05 136.95 36.05 137.1 36.1 137.1 36.15 137.1
M 41.65 78
L 40.9 82.8
Q 39.25 93.1 39.3 98.75 39.4 105.3 42.05 117.45 44.3 127.7 44.9 133.6 49.65 131.3 53.75 128.3 57 124.75 59.75 120.7 65.85 111.65 68.6 101.3 69.65 97.2 69.9 94.2 70.2 90.1 69.35 82.85
L 69.1 80.15 66.6 80.25
Q 66.45 81.7 66.1 83.1 65.3 86.75 62.25 91.7 59.5 96.05 56.1 99.75 55.95 99.15 55.35 99
L 54.3 100.55
Q 50.65 97.25 49.3 91.55 48.5 88.4 48.2 81.15 48.15 80.35 48.15 79.6 44.85 79 41.65 78
M 14.05 98.55
Q 15.4 98.5 16.7 98.3 17.1 98 17.65 97.65
L 19.55 96.4
Q 23.35 93.95 29.55 88.05 32.95 84.75 34.2 82.75 35.05 81.5 36 79.5 36.85 77.55 37.4 76.5 34.05 75.15 30.9 73.35 24.8 87.55 14.05 98.55
M 56.75 80.5
Q 54.6 80.45 52.55 80.25 52.5 80.3 52.5 80.35 52.1 83.9 52.05 85.5 51.95 88.4 52.5 90.6 52.85 92 53.85 94.3 55 96.95 55.35 98 57.4 94.55 58.35 92.6 59.85 89.5 60.35 86.8 60.6 85.65 60.8 83.35
L 61.05 80.45
Q 57.982421875 80.545703125 56.75 80.5
M 87.85 96.25
L 89.1 97.2 84.6 88.85
Q 84 87.95 83.7 87.15 83.7 87.1 83.65 87.05
L 79.7 79.6 74.25 79.85
Q 74.3 79.95 74.35 80.1 75.5 82.4 78.55 86 81.5 89.7 83.8 91.85 85.9 93.85 86.3 94.25 86.65 94.65 87.55 95.9 87.7 96.1 87.85 96.25 Z"/>

<path fill="#999999" stroke="none" d="
M 87.85 96.25
Q 87.7 96.1 87.55 95.9 86.65 94.65 86.3 94.25 85.9 93.85 83.8 91.85 81.5 89.7 78.55 86 75.5 82.4 74.35 80.1 74.3 79.95 74.25 79.85
L 79.7 79.6 77.4 75.3
Q 76.8 74.25 76.8 73.2 76.8 72.9 76.85 72.65 75 72.5 73 72.3 53.15 70.35 33.5 65.35 33.6 66.3 33.05 67.75 32.05 70.6 30.9 73.35 34.05 75.15 37.4 76.5 36.85 77.55 36 79.5 35.05 81.5 34.2 82.75 32.95 84.75 29.55 88.05 23.35 93.95 19.55 96.4
L 17.65 97.65
Q 17.1 98 16.7 98.3 19.7 97.85 22.55 96.5 22.9 96.1 23.25 95.85 23.85 95.45 24.55 95.45 27.85 93.5 30.25 90.6 32.55 87.85 33.95 89.05 34.2 89.25 34.35 89.65 34.55 90.05 34.65 90.75
L 35.95 101.25
Q 37.1 112 37.25 119.2 37.5 128.9 36.1 136.85
L 36.15 137.1
Q 40.75 135.6 44.9 133.6 44.3 127.7 42.05 117.45 39.4 105.3 39.3 98.75 39.25 93.1 40.9 82.8
L 41.65 78
Q 44.85 79 48.15 79.6 48.15 80.35 48.2 81.15 48.5 88.4 49.3 91.55 50.65 97.25 54.3 100.55
L 55.35 99
Q 55.95 99.15 56.1 99.75 59.5 96.05 62.25 91.7 65.3 86.75 66.1 83.1 66.45 81.7 66.6 80.25
L 69.1 80.15 69.35 82.85
Q 70.2 90.1 69.9 94.2 69.65 97.2 68.6 101.3 65.85 111.65 59.75 120.7 57 124.75 53.75 128.3 57.55 125.5 60.75 122.15 65.85 116.7 68.9 110.1 72.05 103.25 72.55 96.1 72.6 90.85 72.8 88.25 72.9 86.7 73.75 86.45 73.9 86.4 74.15 86.4 74.25 86.4 74.4 86.45 74.8 86.6 75.35 87
L 87.85 96.25
M 52.55 80.25
Q 54.6 80.45 56.75 80.5 57.982421875 80.545703125 61.05 80.45
L 60.8 83.35
Q 60.6 85.65 60.35 86.8 59.85 89.5 58.35 92.6 57.4 94.55 55.35 98 55 96.95 53.85 94.3 52.85 92 52.5 90.6 51.95 88.4 52.05 85.5 52.1 83.9 52.5 80.35 52.5 80.3 52.55 80.25 Z"/>
</g>

<g id="orbital_6_Layer0_0_FILL">
<path fill="#000000" stroke="none" d="
M 14.05 183.2
Q 52.11640625 183.1951171875 79 156.25 105.9453125 129.3154296875 105.95 91.3 105.94453125 53.234765625 79 26.25 52.116015625 -0.59375 14.05 -0.6 -24.015625 -0.6060546875 -50.95 26.2
L -50.95 26.25
Q -77.89453125 53.234765625 -77.9 91.3 -77.8953125 129.3154296875 -50.95 156.25 -24.016015625 183.1947265625 14.05 183.2
M 14.05 2.4
Q 50.8837890625 2.39375 76.9 28.35 102.95546875 54.4650390625 102.95 91.3 102.9546875 128.0845703125 76.9 154.15 50.88359375 180.2046875 14.05 180.2 8.58125 180.20078125 3.35 179.6 -26.6541015625 176.33671875 -48.85 154.15 -69.979296875 133.0119140625 -74 104.8 -74.9009765625 98.2537109375 -74.9 91.3 -74.90546875 54.4650390625 -48.85 28.35
L -48.85 28.35
Q -22.784375 2.405859375 14.05 2.4
M 74.75 31.3
Q 50.4541015625 6.1521484375 14.55 6.2 -21.305078125 6.258203125 -46.75 30.05 -72.1875 53.8896484375 -72.15 89.65 -72.1296875 106.4828125 -66.55 121 -60.2794921875 137.3865234375 -47 150.85 -31.3365234375 166.678515625 -11.55 172.45 0.48359375 175.9470703125 14 175.75 49.9078125 175.2353515625 74.5 151.7 99.1052734375 128.2078125 99.1 92.35 99.088671875 56.496875 74.75 31.3
M 14.05 7.6
Q 48.6837890625 7.59453125 73.15 32.05 97.704296875 56.6150390625 97.7 91.25 97.7041015625 125.8841796875 73.15 150.4 48.6837890625 174.9046875 14.05 174.9 -20.633984375 174.9052734375 -45.15 150.4 -69.655078125 125.8841796875 -69.65 91.25 -69.6552734375 56.61484375 -45.15 32.05 -20.6341796875 7.5939453125 14.05 7.6
M 71.8 33.4
Q 47.8666015625 9.4048828125 13.95 9.4 -19.916015625 9.405078125 -43.9 33.4 -67.894921875 57.383984375 -67.9 91.25 -67.8951171875 125.1666015625 -43.9 149.1 -19.916015625 173.0947265625 13.95 173.1 47.8666015625 173.094921875 71.8 149.1 95.794921875 125.1666015625 95.8 91.25 95.7947265625 57.383984375 71.8 33.4
M 13.95 12.4
Q 46.6333984375 12.394921875 69.7 35.5 92.8046875 58.6154296875 92.8 91.25 92.8048828125 123.9333984375 69.7 147 46.6333984375 170.1048828125 13.95 170.1 -18.6845703125 170.1046875 -41.8 147 -64.905078125 123.9333984375 -64.9 91.25 -64.9048828125 58.6154296875 -41.8 35.5 -18.6845703125 12.3951171875 13.95 12.4 Z"/>

<path fill="#FFFFFF" stroke="none" d="
M -66.55 121
Q -67.4529296875 119.4310546875 -68.3 117.8 -71.4890625 111.6197265625 -74 104.8 -69.979296875 133.0119140625 -48.85 154.15 -26.6541015625 176.33671875 3.35 179.6 -4.380859375 176.301171875 -11.55 172.45 -31.3365234375 166.678515625 -47 150.85 -60.2794921875 137.3865234375 -66.55 121 Z"/>

<path fill="#8E2D1A" stroke="none" d="
M 73.15 32.05
Q 48.6837890625 7.59453125 14.05 7.6 -20.6341796875 7.5939453125 -45.15 32.05 -69.6552734375 56.61484375 -69.65 91.25 -69.655078125 125.8841796875 -45.15 150.4 -20.633984375 174.9052734375 14.05 174.9 48.6837890625 174.9046875 73.15 150.4 97.7041015625 125.8841796875 97.7 91.25 97.704296875 56.6150390625 73.15 32.05
M 13.95 9.4
Q 47.8666015625 9.4048828125 71.8 33.4 95.7947265625 57.383984375 95.8 91.25 95.794921875 125.1666015625 71.8 149.1 47.8666015625 173.094921875 13.95 173.1 -19.916015625 173.0947265625 -43.9 149.1 -67.8951171875 125.1666015625 -67.9 91.25 -67.894921875 57.383984375 -43.9 33.4 -19.916015625 9.405078125 13.95 9.4 Z"/>

<path fill="#CC9900" stroke="none" d="
M 76.9 28.35
Q 50.8837890625 2.39375 14.05 2.4 -22.784375 2.405859375 -48.85 28.35
L -48.85 28.35
Q -74.90546875 54.4650390625 -74.9 91.3 -74.9009765625 98.2537109375 -74 104.8 -71.4890625 111.6197265625 -68.3 117.8 -67.4529296875 119.4310546875 -66.55 121 -72.1296875 106.4828125 -72.15 89.65 -72.1875 53.8896484375 -46.75 30.05 -21.305078125 6.258203125 14.55 6.2 50.4541015625 6.1521484375 74.75 31.3 99.088671875 56.496875 99.1 92.35 99.1052734375 128.2078125 74.5 151.7 49.9078125 175.2353515625 14 175.75 0.48359375 175.9470703125 -11.55 172.45 -4.380859375 176.301171875 3.35 179.6 8.58125 180.20078125 14.05 180.2 50.88359375 180.2046875 76.9 154.15 102.9546875 128.0845703125 102.95 91.3 102.95546875 54.4650390625 76.9 28.35 Z"/>
</g>

<g id="orbital_1_Layer0_0_FILL">
<path fill="#CC9900" stroke="none" d="
M 60.05 98.3
Q 45.492578125 75.9453125 41.45 69.85 43.8779296875 95.206640625 40.1 121.2 36.3859375 146.754296875 23.95 167.55
L 23.35 168.6
Q 20.6529296875 173.0318359375 17.55 177.25 25.8 180.1 33.95 176.6 52.2 168.6 59.95 149.45 67.22265625 131.4388671875 69.45 112.45 64.52734375 105.207421875 60.05 98.3
M 62.35 37.25
Q 56.8 21 43.55 10.65 35.7958984375 4.557421875 26.05 3.55 29.4845703125 6.5875 33.55 10.4 48.3 24.25 55.6 32.75 59.7794921875 37.6564453125 64.5 44.05 63.506640625 40.6384765625 62.35 37.25 Z"/>

<path fill="#000000" stroke="none" d="
M 16.55 10.75
Q 14.0072265625 8.8751953125 11.35 8.8 8.3712890625 8.6109375 5.7 10.55 5.55234375 10.6802734375 5.4 10.8 4.071484375 11.7275390625 3 13 2.0451171875 14.1119140625 1.3 15.5 1.193359375 15.6689453125 1.1 15.85 0.25 17.1 1.15 17.55 1.5 17.8 2.45 17.2 5.4 14.9 6.5 14.35 8.9 12.9 11.05 13.05 15.3 13.2 18.9 19.7 24 28.9 27.05 40.9 29.6 50.8 30.75 63.7 33.1 88.45 30.2 114.15 27.1 140.15 19.15 164.1 17.75 167.9 16.3 169.3 15.05 170.1 13.55 170.25 11.75 170 10.95 168.9 10.75 170.219921875 11.7 171.25 11.93984375 171.55 12.25 171.8 13.414453125 172.7767578125 14.65 172.8 15.0771484375 172.837109375 15.5 172.75 16.875390625 172.5 18.1 171.4 19.300390625 170.3744140625 20.35 168.5 22.75 164.4 25.1 156.5 26.3814453125 152.1044921875 27.5 147.7 33.990625 122.69375 35.65 98.1 35.8625 94.3888671875 35.95 90.7 36.6064453125 65.063671875 31.4 41.7 29.75 34.15 27.85 28.75 25.4 22.3 21.5 16.25 19.081640625 12.6099609375 16.55 10.75
M 71.05 42.15
Q 63.7962890625 22.6470703125 52.8 12.55 41.8509765625 2.490234375 24.25 0.55 7.444921875 -1.2529296875 0.55 13.1 0.2837890625 13.7337890625 0 14.4
L 7.9 6 9.05 5.45
Q 11.19765625 5.7099609375 13.1 6.4 14.1232421875 6.7607421875 15.05 7.25 16.5736328125 8.0205078125 17.9 9.1 19.872265625 10.711328125 21.45 13 32.05 28.25 35.25 46.6 39.1529296875 68.78828125 38.55 90.7 37.787890625 119.6560546875 29.2 148.15 27.8 152.85 27.15 157.6 26.3658203125 163.3501953125 23.95 167.55 36.3859375 146.754296875 40.1 121.2 43.8779296875 95.206640625 41.45 69.85 39.3513671875 47.55390625 32.45 25.75 28.8056640625 14.223046875 20.25 7 20.0681640625 6.8341796875 19.85 6.65 17.8072265625 4.963671875 15.45 3.5 19 3 22.6 3.35 22.9482421875 3.3544921875 23.3 3.35 24.694140625 3.416015625 26.05 3.55 35.7958984375 4.557421875 43.55 10.65 56.8 21 62.35 37.25 63.506640625 40.6384765625 64.5 44.05 70.8255859375 65.87109375 70.35 88.7 70.864453125 100.760546875 69.45 112.45 67.22265625 131.4388671875 59.95 149.45 52.2 168.6 33.95 176.6 25.8 180.1 17.55 177.25 20.6529296875 173.0318359375 23.35 168.6 21.7037109375 171.1708984375 19.4 173.1 18.0107421875 174.3126953125 16.35 175.25 15.733984375 175.6546875 15.05 176
L 11.1 174.1 10.3 173.7
Q 13.65 182.45 24.9 181.5 53.0849609375 179.5 65.15 153.25 77.25625 127.046875 77.8 94.35 78.3548828125 61.709375 71.05 42.15 Z"/>

<path fill="#8E2D1A" stroke="none" d="
M 11.35 8.8
Q 14.0072265625 8.8751953125 16.55 10.75 19.081640625 12.6099609375 21.5 16.25 25.4 22.3 27.85 28.75 29.75 34.15 31.4 41.7 36.6064453125 65.063671875 35.95 90.7 35.8625 94.3888671875 35.65 98.1 33.990625 122.69375 27.5 147.7 26.3814453125 152.1044921875 25.1 156.5 22.75 164.4 20.35 168.5 19.300390625 170.3744140625 18.1 171.4 16.875390625 172.5 15.5 172.75 15.0771484375 172.837109375 14.65 172.8 13.414453125 172.7767578125 12.25 171.8 11.93984375 171.55 11.7 171.25 11.4359375 171.549609375 11.35 171.75 11.1 172.25 11.1 173.4 11.1 173.778515625 11.1 174.1
L 15.05 176
Q 15.733984375 175.6546875 16.35 175.25 18.0107421875 174.3126953125 19.4 173.1 21.7037109375 171.1708984375 23.35 168.6
L 23.95 167.55
Q 26.3658203125 163.3501953125 27.15 157.6 27.8 152.85 29.2 148.15 37.787890625 119.6560546875 38.55 90.7 39.1529296875 68.78828125 35.25 46.6 32.05 28.25 21.45 13 19.872265625 10.711328125 17.9 9.1 16.5736328125 8.0205078125 15.05 7.25 14.1232421875 6.7607421875 13.1 6.4 11.19765625 5.7099609375 9.05 5.45
L 7.9 6 0 14.4
Q 0.2837890625 13.7337890625 0.55 13.1 -0.107421875 13.909765625 -0.15 14.25 -0.2 14.75 0.25 15.15 0.65 15.55 1.2 15.5 1.24453125 15.4974609375 1.3 15.5 2.0451171875 14.1119140625 3 13 4.071484375 11.7275390625 5.4 10.8 5.55234375 10.6802734375 5.7 10.55 8.3712890625 8.6109375 11.35 8.8 Z"/>

<path fill="#FFFFFF" stroke="none" d="
M 64.5 44.05
Q 59.7794921875 37.6564453125 55.6 32.75 48.3 24.25 33.55 10.4 29.4845703125 6.5875 26.05 3.55 24.694140625 3.416015625 23.3 3.35 22.9482421875 3.3544921875 22.6 3.35 19 3 15.45 3.5 17.8072265625 4.963671875 19.85 6.65 20.0681640625 6.8341796875 20.25 7 28.8056640625 14.223046875 32.45 25.75 39.3513671875 47.55390625 41.45 69.85 45.492578125 75.9453125 60.05 98.3 64.52734375 105.207421875 69.45 112.45 70.864453125 100.760546875 70.35 88.7 70.8255859375 65.87109375 64.5 44.05 Z"/>
</g>
</defs>

<g transform="matrix( 0.701141357421875, 0, 0, 0.701141357421875, 65.2,74.45) ">
<g transform="matrix( 1, 0, 0, 1, -43.95,-66.5) ">
<g transform="matrix( -0.9619140625, 0.9618988037109375, 0.9618988037109375, 0.9619140625, 107.5,-14.7) ">
<g transform="matrix( 1, 0, 0, 1, 0,0) ">
<use xlink:href="#orbital_back_1_Layer0_0_FILL"/>
</g>
</g>

<g transform="matrix( 0.7071075439453125, 0.70709228515625, -0.70709228515625, 0.7071075439453125, 129.6,26.4) "/>

<g transform="matrix( 1, 0, 0, 1, 71.35,69.8) ">
<g transform="matrix( 1, 0, 0, 1, 0,0) ">
<use xlink:href="#Wizard_0_Layer0_0_FILL"/>
</g>
</g>

<g transform="matrix( 0.7071075439453125, 0.70709228515625, -0.70709228515625, 0.7071075439453125, 175.3,73.6) ">
<g transform="matrix( 1, 0, 0, 1, 0,0) ">
<use xlink:href="#orbital_6_Layer0_0_FILL"/>
</g>
</g>

<g transform="matrix( -0.9619140625, 0.9618988037109375, 0.9618988037109375, 0.9619140625, 44.75,50.2) ">
<g transform="matrix( 1, 0, 0, 1, 0,0) ">
<use xlink:href="#orbital_1_Layer0_0_FILL"/>
</g>
</g>
</g>
</g>
</svg>
