
<svg xmlns="http://www.w3.org/2000/svg" version="1.1" xmlns:xlink="http://www.w3.org/1999/xlink" preserveAspectRatio="none" x="0px" y="0px" width="250px" height="250px" viewBox="0 0 250 250">
<defs>
<g id="orbital_back_4_Layer0_0_FILL">
<path fill="#8E2D1A" stroke="none" d="
M 84.2 179.15
L 83.55 179.15
Q 83.4578125 179.23125 83.35 179.3 83.8068359375 179.2591796875 84.2 179.15
M 145.9 48.95
Q 141.85 41.8 136.6 35.4 130.4 27.8 122.7 21.75 116.1 16.45 108.55 13.05 102.3 10.15 95.5 8.85 93.67578125 8.4578125 91.8 8.15 88.274609375 7.5294921875 84.65 7.2
L 81.2 7.25
Q 80.4064453125 7.25 80.1 6.95 79.8275390625 7.2140625 79.75 7.55 79.6 8.05 79.9 8.5 80.024609375 8.795703125 80.2 9.05 80.9107421875 8.812109375 81.6 8.6 85.5 8.6 89.35 9.1 90.4341796875 9.2099609375 91.5 9.35 97.7390625 10.296875 103.5 12.9 117.45 19.1 128.05 30.05 134.75 36.95 139.9 45.1 144.15 51.85 147.15 59.15 153.25 74.2 153.75 90.55 154.15 103.6 151.1 116 149.25 123.6 146 130.8 142.2 139.3 136.45 146.75 130.3 154.85 122.45 161.35 116.7 166 109.9 169 103.15 172.1 95.85 173.8 90.9841796875 174.81953125 86.2 174.9 85.8267578125 174.9 85.45 174.9 85.4 175.25 84.95 175.6 84.55 175.8 83.9 175.9 81.7 176.3 80.7 176.4 78.85 176.6 77.45 176.3 76.9583984375 176.2330078125 76.55 176.05
L 76.5 176.1
Q 76.3373046875 176.2083984375 76.2 176.3 75.7609375 176.784375 75.8 177.45 75.8 178.2 76.65 178.65 76.7654296875 178.6994140625 76.95 178.75 76.93046875 178.5013671875 77 178.2 77.15 177.6 77.65 177.4 77.867578125 177.306640625 78.2 177.25 78.4353515625 177.25 78.7 177.25 82.8126953125 177.0103515625 86.85 176.45 87.8830078125 176.3111328125 88.9 176.15 97.5 175.5 105.5 172.05 112.85 168.85 119.65 164.25 127.6 158.85 134.15 152 139.75 146.1 144.35 139.25 148.25 133.4 150.8 126.9 156.55 112.25 157.05 96.2 157.35 87.35 156.15 78.7 155.1 70.8 152.5 63.4 149.8 55.8 145.9 48.95 Z"/>

<path fill="#956A14" stroke="none" d="
M 56.25 16.5
Q 57.1 16.5 57.6 16 57.7236328125 15.8763671875 57.85 15.7 56.209375 15.608203125 54.55 15.6 54.703125 15.7890625 54.9 15.95 55.5 16.45 56.25 16.5 Z"/>

<path fill="#000000" stroke="none" d="
M 113.25 45.05
Q 104.6 31.45 90.9 22.85 76.85 14.05 61.25 13 60.6978515625 12.962890625 60.15 12.95 55.903515625 12.8892578125 54.15 14.85 53.833203125 15.18828125 53.6 15.6 54.0759765625 15.59609375 54.55 15.6 56.209375 15.608203125 57.85 15.7 73.4755859375 16.570703125 87.7 24.85 103.9 34.3 112.6 49.95 120.2 63.6 121.9 81.35 122.7 89.3 122.15 97.9 121.3 111.05 117.05 122.6 112.45 135.05 104.45 144.25 96 154.05 84.3 159.25 72.1 164.7 59.8 163.55 56.05 163.2 48.65 162 48.7833984375 162.583203125 49.2 163.05 50.1166015625 164.0666015625 52.25 164.7 54.62578125 165.341796875 57.05 165.7 67.2173828125 167.3412109375 78.05 164.35 90.9 160.75 100.95 151.8 110.4 143.3 116.55 131 122.25 119.45 124.5 105.95 127.15 89.95 124.4 74.4 121.55 58.15 113.25 45.05
M 139.9 45.1
Q 134.75 36.95 128.05 30.05 117.45 19.1 103.5 12.9 97.7390625 10.296875 91.5 9.35 90.4341796875 9.2099609375 89.35 9.1 85.5 8.6 81.6 8.6 80.9107421875 8.812109375 80.2 9.05 79.5841796875 9.238671875 78.95 9.45
L 79.25 10.9
Q 85.7 10.7 92.2 11.85 95.35 12.4 98.4 13.35 104.6 15.2 110.3 18.3 115.8 21.35 120.6 25.45 129.25 32.8 135.8 42.2 141.8 50.8 145.55 60.6 150.65 74.05 151.85 88.4 152.1 91.7 152.35 95.05 152.25 104.95 150 114.35 147.8 123.75 143.5 132.1 138.85 141.1 132.5 148.75 126.05 156.45 117.6 161.85 109.1 167.2 99.45 170.15 89.7 173.15 79.4 173.5
L 79.15 173.8
Q 78.65 173.75 78.3 173.65
L 76.95 173.3
Q 76 173.2 75.6 173.7 75.25 174.05 75.3 174.6 75.35 175.1 75.7 175.5 76.0595703125 175.8595703125 76.55 176.05 76.9583984375 176.2330078125 77.45 176.3 78.85 176.6 80.7 176.4 81.7 176.3 83.9 175.9 84.55 175.8 84.95 175.6 85.4 175.25 85.45 174.9 85.8267578125 174.9 86.2 174.9 90.9841796875 174.81953125 95.85 173.8 103.15 172.1 109.9 169 116.7 166 122.45 161.35 130.3 154.85 136.45 146.75 142.2 139.3 146 130.8 149.25 123.6 151.1 116 154.15 103.6 153.75 90.55 153.25 74.2 147.15 59.15 144.15 51.85 139.9 45.1
M 142.35 38.4
Q 136.35 30.2 128.85 23.4 121.45 16.8 112.9 11.8 104.25 6.65 94.9 3.25 92.65 2.4 90.4 1.95 85.7666015625 1.6009765625 78.1 1.45 78.2599609375 1.680078125 78.65 1.8 78.7 1.85 78.8 1.85 77.5 2.1 76.25 2.45
L 78 2.75 85.95 4.2 81.7 5.4 80.95 5.35
Q 80.6 5.35 80.65 5.1 78.8 5.1 78.25 5.7 77.9 6.25 78.1 6.65 78.148828125 6.8126953125 78.25 6.9 78.477734375 7.15 78.95 7.15 79.25 7.15 79.9 6.9 79.95 6.9 80.05 6.9 80.069921875 6.9232421875 80.1 6.95 80.4064453125 7.25 81.2 7.25
L 84.65 7.2
Q 88.274609375 7.5294921875 91.8 8.15 93.67578125 8.4578125 95.5 8.85 102.3 10.15 108.55 13.05 116.1 16.45 122.7 21.75 130.4 27.8 136.6 35.4 141.85 41.8 145.9 48.95 149.8 55.8 152.5 63.4 155.1 70.8 156.15 78.7 157.35 87.35 157.05 96.2 156.55 112.25 150.8 126.9 148.25 133.4 144.35 139.25 139.75 146.1 134.15 152 127.6 158.85 119.65 164.25 112.85 168.85 105.5 172.05 97.5 175.5 88.9 176.15 87.8830078125 176.3111328125 86.85 176.45 82.8126953125 177.0103515625 78.7 177.25 78.4353515625 177.25 78.2 177.25 77.867578125 177.306640625 77.65 177.4 77.15 177.6 77 178.2 76.93046875 178.5013671875 76.95 178.75 77.0123046875 179.0587890625 77.2 179.3 77.6 179.8 79 180 80.4 180.2 81.5 180.05 82.569921875 179.9162109375 83.35 179.3 83.4578125 179.23125 83.55 179.15
L 84.2 179.15 86.55 179.25 77.15 181.3
Q 77.25 181.35 77.35 181.35 76.75 181.55 76.55 181.85 76.44375 182.0357421875 76.45 182.2 76.4828125 182.4123046875 76.6 182.6 76.85 183 77.25 183.15 77.65 183.3 78.85 183.2 79.8 183.15 81.75 183.25 83.7 183.35 84.7 183.25 86 183.15 87 182.75 87.2 182.75 87.35 182.75 92.75 182.6 97.95 180.95 104.8 179 111.1 175.5 117.65 172 123.35 167.45 129.05 162.95 134.3 157.65 139.55 152.35 143.85 146.35 148.2 140.25 151.25 133.45 155.35 124.3 157.45 114.55 159.5 104.85 159.55 94.75 159.6 84.6 157.75 74.6 155.95 64.75 152.05 55.6 148.2 46.45 142.35 38.4 Z"/>

<path fill="#666666" stroke="none" d="
M 81.7 5.4
L 85.95 4.2 78 2.75 73.85 3.25
Q 70.5 3.75 69 4.15 67.25 4.6 64.5 5.7 60.9 7.35 60.15 7.7 57 9.15 55.55 10.65 54.3 11.9 54.05 13.2 53.9224609375 14.14375 54.15 14.85 55.903515625 12.8892578125 60.15 12.95 60.6978515625 12.962890625 61.25 13 76.85 14.05 90.9 22.85 104.6 31.45 113.25 45.05 121.55 58.15 124.4 74.4 127.15 89.95 124.5 105.95 122.25 119.45 116.55 131 110.4 143.3 100.95 151.8 90.9 160.75 78.05 164.35 67.2173828125 167.3412109375 57.05 165.7 54.62578125 165.341796875 52.25 164.7 50.1166015625 164.0666015625 49.2 163.05 48.524609375 163.6123046875 48.25 164.65 47.9 166.3 49.25 167.4 50.05 168.05 52.05 168.7 53 169.1 54.5 170.35 57.3 172.7 57.75 173.05 59.65 174.55 61.25 175.4 62.95 176.35 67.05 177.75 70.9 179.05 72.75 180.2
L 75.9 182
Q 76.172265625 182.1296875 76.45 182.2 76.44375 182.0357421875 76.55 181.85 76.75 181.55 77.35 181.35 77.25 181.35 77.15 181.3
L 86.55 179.25 84.2 179.15
Q 83.8068359375 179.2591796875 83.35 179.3 82.569921875 179.9162109375 81.5 180.05 80.4 180.2 79 180 77.6 179.8 77.2 179.3 77.0123046875 179.0587890625 76.95 178.75 76.7654296875 178.6994140625 76.65 178.65 75.8 178.2 75.8 177.45 75.7609375 176.784375 76.2 176.3 76.3373046875 176.2083984375 76.5 176.1
L 76.55 176.05
Q 76.0595703125 175.8595703125 75.7 175.5 75.35 175.1 75.3 174.6 75.25 174.05 75.6 173.7 76 173.2 76.95 173.3
L 78.3 173.65
Q 78.65 173.75 79.15 173.8
L 79.4 173.5
Q 89.7 173.15 99.45 170.15 109.1 167.2 117.6 161.85 126.05 156.45 132.5 148.75 138.85 141.1 143.5 132.1 147.8 123.75 150 114.35 152.25 104.95 152.35 95.05 152.1 91.7 151.85 88.4 150.65 74.05 145.55 60.6 141.8 50.8 135.8 42.2 129.25 32.8 120.6 25.45 115.8 21.35 110.3 18.3 104.6 15.2 98.4 13.35 95.35 12.4 92.2 11.85 85.7 10.7 79.25 10.9
L 78.95 9.45
Q 79.5841796875 9.238671875 80.2 9.05 80.024609375 8.795703125 79.9 8.5 79.6 8.05 79.75 7.55 79.8275390625 7.2140625 80.1 6.95 80.069921875 6.9232421875 80.05 6.9 79.95 6.9 79.9 6.9 79.25 7.15 78.95 7.15 78.477734375 7.15 78.25 6.9 78.148828125 6.8126953125 78.1 6.65 77.9 6.25 78.25 5.7 78.8 5.1 80.65 5.1 80.6 5.35 80.95 5.35
L 81.7 5.4 Z"/>
</g>

<g id="Wizard_0_Layer0_0_FILL">
<path fill="#000000" stroke="none" d="
M 88.8 31.35
Q 88.95 30.2 87.5 28.55 83.5 24.3 75.6 17.95
L 66.45 10.4
Q 63.55 8.1 62.6 7.45 62.15 7.15 59.95 5.75 58.35 4.7 57.4 3.9 56.8 3.4 55.75 2.35 54.75 1.45 53.95 0.95 52.95 0.25 51.85 0.05 50.6 -0.15 49.65 0.3 48.35 0.9 47.1 3.45
L 44 9.55
Q 39.05 19.15 37.5 24.6 36.15 29.25 35.7 30.3 34.75 32.45 32.5 35.35 32.35 35.55 32.2 35.75 26.25 34.65 17.3 35.55 9.6 36.3 5.65 38.75 2.95 40.4 1.35 43.05 -0.3 45.9 0.1 48.8 0.5 51.8 3.15 54.6 4.95 56.5 8.6 58.9 5.65 58.55 3.15 60.9 0.8 63.2 0.55 66.3 0.35 69.2 1.9 72.1 3.35 74.7 5.85 76.7 8 78.4 11.05 79.8 12.9 80.65 16.75 82.05 13.85 91.15 7.6 98.55 6 100.25 5.95 101.5 5.9 102.7 6.85 103.7 7.7 104.6 9 104.95 9.65 105.15 11.45 105.4 13 105.65 13.85 106 11.95 108.45 11.15 109.7 9.75 111.9 9.15 113.8 8.4 116.15 8.7 118.4 9 120.85 10.5 122.45 13.1 125.25 19 125.15 26.75 124.95 30.35 120.65 30.75 129.6 28.6 137.9 27.6 141.9 29.4 143 30.3 143.6 32.6 143.2 39.15 141.95 42.65 140.95 48.1 139.4 52.1 137.1 57.05 134.25 61.85 128.95 64.2 126.4 67.95 121.5 68.3 121.6 68.8 121.75 69.8 122.05 71.15 122.8
L 73.45 124
Q 76.25 125.4 82.75 126.85 84.75 127.25 85.9 127.25 87.6 127.2 88.75 126.45 91.05 124.8 90.75 120.05 90.05 109.05 83.65 100.1
L 90.65 103.8
Q 93.3 105.3 94.7 104.3 95.8 103.5 95.7 101.2 95.45 94.5 91.25 89.45 90.3 88.3 90.65 87.65 90.8 87.2 91.85 86.85 97.35 85.15 99.95 82.15 101.6 80.3 102.15 77.95 102.7 75.45 101.8 73.4 104.75 71.65 106.15 70.35 108.3 68.4 108.75 66.1 109.45 62.65 105.95 57.65 103.85 54.7 101.95 52.9 99.05 50.15 94.5 48.1 91.6 46.8 86 45.05
L 77.05 42.15
Q 76.95 42 76.9 41.9 74.25 37.25 72.55 31.95
L 84 33.35
Q 85.95 33.55 86.9 33.3 88.65 32.85 88.8 31.35
M 99.95 60.8
Q 100.1 61 100.25 61.2 100.6 61.55 100.9 61.95 102.4 63.8 101.8 65.05 101.45 65.75 99.95 66.4 98.05 67.1 96 67.65 95.9 67.65 95.8 67.7 91.65 68.65 86.8 68.85 81.5 69.05 73.25 68.2 64.7 67.35 53.85 65.65 41.75 63.7 32.7 61.2 21.5 58.1 12.65 53.6 10.2 52.4 9.1 51.1 7.3 49.15 8.05 47.05 8.65 45.25 11.85 43.95 16.5 42.15 21.45 41.7 23.1 41.55 24.8 41.55 28.2 41.7 29.9 41.75 30.6 41.75 31.25 41.8 32 42.45 33.15 42.5 33.6 42.55 34.05 42.45 34.25 42.4 34.45 42.35 34 43.15 33.3 44.4 33.25 44.5 33.25 44.55 33.1 44.8 33 45
L 32.9 45.15
Q 32.8 45.35 32.7 45.6
L 32.7 45.55
Q 32.25 46.5 32 47.3 31.8 48 32.05 48.3 32.35 48.65 33.1 48.45 35.55 47.75 37.75 43.85 39.6 40.65 41.55 36.3 42.45 34.35 44.9 28.5
L 53.1 8.45
Q 58.45 12.65 64 16.65 70.1 21 76.5 25.05 77.3 25.7 78.05 26.3
L 68.7 24.6
Q 66.25 24.2 65.45 25.1 64.7 25.85 64.95 27.15 65.1 28.05 65.8 29.5 66.75 31.55 67.7 34.9 69.1 39.8 69.3 40.4 70.15 43.25 72.4 48.25
L 74.65 53.4
Q 74.95 54.15 75.4 54.55 76 55.05 76.5 54.75 77.25 54.4 76.8 52.8
L 74.9 46.75
Q 75.8 47.4 76.65 47.15 85.95 51 87.5 51.8
L 87.55 51.8
Q 88.6 52.3 89.6 52.9 96.05 56.4 99.95 60.8
M 86.45 72.9
Q 88.8 72.8 91.05 72.6 93.35 73.3 95.65 74.5 96.75 75.05 96.85 75.7 97 76.2 96.55 77.05 96.55 77.1 96.5 77.15 95.5 78.85 93.5 79.95 91.7 80.95 89.5 81.25 88.8 81.35 86.2 81.55 85 81.65 84.1 81.8 81.4 77.2 78.4 72.75 81.95 72.95 84.9 72.95 85.7 72.95 86.45 72.9
M 89.1 97.2
L 87.85 96.25 75.35 87
Q 74.8 86.6 74.4 86.45 74.25 86.4 74.15 86.4 73.9 86.4 73.75 86.45 72.9 86.7 72.8 88.25 72.6 90.85 72.55 96.1 72.05 103.25 68.9 110.1 65.85 116.7 60.75 122.15 57.55 125.5 53.75 128.3 49.65 131.3 44.9 133.6 40.75 135.6 36.15 137.1 36.1 137.1 36.05 137.1 36.05 136.95 36.1 136.85 37.5 128.9 37.25 119.2 37.1 112 35.95 101.25
L 34.65 90.75
Q 34.55 90.05 34.35 89.65 34.2 89.25 33.95 89.05 32.55 87.85 30.25 90.6 27.85 93.5 24.55 95.45 23.85 95.45 23.25 95.85 22.9 96.1 22.55 96.5 19.7 97.85 16.7 98.3 15.4 98.5 14.05 98.55 24.8 87.55 30.9 73.35 32.05 70.6 33.05 67.75 33.6 66.3 33.5 65.35 53.15 70.35 73 72.3 75 72.5 76.85 72.65 76.8 72.9 76.8 73.2 76.8 74.25 77.4 75.3
L 79.7 79.6 83.65 87.05
Q 83.7 87.1 83.7 87.15 84 87.95 84.6 88.85
L 89.1 97.2
M 27.45 66.8
Q 28.55 68.1 27.55 71.15 26.85 73.45 25.5 76.85 24.85 78.45 24.15 78.9 23.5 79.35 22.6 79.3 22 79.25 20.85 78.95 17.25 77.85 14.85 76.85 11.7931640625 75.54921875 10 73.95 9.076953125 73.1265625 8.5 72.2 7.5 70.6 7.5 68.75 7.5 66.8 8.6 65.45 9.85 63.95 12.25 63.5 13.3291015625 63.27109375 14.9 63.25 15.73125 63.248046875 16.7 63.3 21.35 63.5 23.3 64.4 24.05 64.75 25.55 65.6 25.9 65.8 26.6 66.1 27.15 66.45 27.45 66.8
M 25.9 98.5
Q 26 98.4 26.15 98.35 26.7 98.05 27.25 97.75
L 27.25 97.7
Q 27.75 97.35 28.35 97.05
L 31.45 94.7
Q 31.5 94.65 31.55 94.6 31.65 94.5 31.8 94.4 31.9 94.3 31.95 94.25
L 33.25 112.35 33.15 112.35
Q 32.95 112.25 33.05 112.15 31.8 112.2 30.9 113.3 30.85 113.35 30.85 113.4 30 113.95 29 115.3 26.75 117.05 23.95 118.05 21.3 118.95 18.55 119.05 17.95 119.05 17.35 119 16.7 118.95 16.35 118.8 16.2 118.7 16.1 118.65 16.05 118.6 16 118.55
L 15.95 118.5
Q 15.45 117.9 16 116.55 18.85 109.35 25.3 99.55 25.65 99 25.85 98.5
L 25.9 98.5
M 76.8 96.7
Q 76.9 96.85 77 97 77.8 98.45 79.25 100.9 79.45 101.25 79.7 101.6
L 79.7 101.65
Q 79.9 102 80.1 102.35 80.9 103.85 81.4 105.3 82.2 107.3 83.5 111.4 85 114.95 85.25 116.2 85.8 118.15 84.95 119.35 83.8 119.4 82.5 119.1 81.7 118.9 80.85 118.6 79.45 118.05 77.05 116.65
L 72.35 114.05
Q 71.3 113.45 70.5 113.25 71.85 110.75 72.85 108.1 75.45 101.25 75.65 94.45 75.8 94.9 76.25 95.65 76.5 96.1 76.8 96.7
M 73.1 118.5
Q 73.6 118.75 73.95 119 73.55 118.8 73.15 118.6 73.15 118.55 73.1 118.5 Z"/>

<path fill="#0099FF" stroke="none" d="
M 80.1 102.35
Q 79.9 102 79.7 101.65 79.3 105.3 78.2 108.1 77.1 111.05 75.45 112.25 77.4 113.85 81.65 118.25 82.05 118.7 82.5 119.1 83.8 119.4 84.95 119.35 85.8 118.15 85.25 116.2 85 114.95 83.5 111.4 82.2 107.3 81.4 105.3 80.9 103.85 80.1 102.35
M 27.25 97.75
Q 26.7 98.05 26.15 98.35 25.15 100.75 23.5 104.15
L 16.35 118.8
Q 16.7 118.95 17.35 119 17.95 119.05 18.55 119.05 19.2 118.5 20.35 117.45 22.95 115.3 24.15 114.1 26.2 112.1 26.85 110.1 27.3 108.7 27.3 105.65
L 27.25 97.75
M 20.55 73.9
Q 21.35 72 21.3 71.15 21.25 69.65 18.9 67.5 16.7533203125 65.5013671875 14.9 63.25 13.3291015625 63.27109375 12.25 63.5 9.85 63.95 8.6 65.45 7.5 66.8 7.5 68.75 7.5 70.6 8.5 72.2 9.076953125 73.1265625 10 73.95
L 20.05 76.6
Q 19.8 75.65 20.55 73.9
M 91.05 72.6
Q 88.8 72.8 86.45 72.9 85.7 72.95 84.9 72.95 85.25 74.05 85.8 76.35 91.2 77 96.55 77.05 97 76.2 96.85 75.7 96.75 75.05 95.65 74.5 93.35 73.3 91.05 72.6
M 95.8 67.7
Q 95.9 67.65 96 67.65 96 67.6068359375 96 67.55 95.8984375 67.6310546875 95.8 67.7
M 91.95 61.1
Q 93.3 59.25 91.2 56.1 89.55 53.7 87.5 51.8 85.95 51 76.65 47.15 75.8 47.4 74.9 46.75
L 76.8 52.8
Q 77.25 54.4 76.5 54.75 76 55.05 75.4 54.55 74.95 54.15 74.65 53.4
L 72.4 48.25
Q 70.15 43.25 69.3 40.4 69.1 39.8 67.7 34.9 66.75 31.55 65.8 29.5 65.1 28.05 64.95 27.15 64.7 25.85 65.45 25.1 66.25 24.2 68.7 24.6
L 78.05 26.3
Q 77.3 25.7 76.5 25.05 70.1 21 64 16.65
L 54.6 14.2
Q 54.25 16.15 54.5 18.9 54.65 20.45 55 23.6 55.15 26 55.15 28.45 55.15 42.95 53 57.9 58.7 59.45 64.3 60.1 64.1 61 62.6 61.2 55.5 62.75 48.1 59.95 41.6 57.55 35.8 52 33.85 50.15 33.1 48.45 32.35 48.65 32.05 48.3 31.8 48 32 47.3 32.25 46.5 32.7 45.55 32.85 44.75 33.25 43.9 33.45 43.55 34.05 42.45 33.6 42.55 33.15 42.5 32 42.45 31.25 41.8 30.6 41.75 29.9 41.75 28.2 41.7 24.8 41.55 23.1 41.55 21.45 41.7
L 14.8 45.6
Q 13.1 46.65 12.9 47.5 12.7 48.4 13.45 49.6 15.35 52.65 20.15 55.15 27.95 59.3 38.55 61.45 46 63 58 63.95 67.95 64.75 73.9 64.65 82.6 64.45 89.45 62.45 91.25 62 91.95 61.1 Z"/>

<path fill="#264CD8" stroke="none" d="
M 77 97
Q 76.9 96.85 76.8 96.7 76.5 96.1 76.25 95.65 75.8 94.9 75.65 94.45 75.45 101.25 72.85 108.1 71.85 110.75 70.5 113.25 71.3 113.45 72.35 114.05
L 77.05 116.65
Q 79.45 118.05 80.85 118.6 81.7 118.9 82.5 119.1 82.05 118.7 81.65 118.25 77.4 113.85 75.45 112.25 77.1 111.05 78.2 108.1 79.3 105.3 79.7 101.65
L 79.7 101.6
Q 79.45 101.25 79.25 100.9 77.8 98.45 77 97
M 27.25 97.7
L 27.25 97.75 27.3 105.65
Q 27.3 108.7 26.85 110.1 26.2 112.1 24.15 114.1 22.95 115.3 20.35 117.45 19.2 118.5 18.55 119.05 21.3 118.95 23.95 118.05 26.75 117.05 29 115.3 30 113.95 30.85 113.4 30.85 113.35 30.9 113.3 31.8 112.2 33.05 112.15 32.95 112.25 33.15 112.35
L 33.25 112.35 31.95 94.25
Q 31.9 94.3 31.8 94.4 31.65 94.5 31.55 94.6 31.5 94.65 31.45 94.7
L 28.35 97.05
Q 27.75 97.35 27.25 97.7
M 26.15 98.35
Q 26 98.4 25.9 98.5
L 25.85 98.5
Q 25.65 99 25.3 99.55 18.85 109.35 16 116.55 15.45 117.9 15.95 118.5
L 16 118.55
Q 16.05 118.6 16.1 118.65 16.2 118.7 16.35 118.8
L 23.5 104.15
Q 25.15 100.75 26.15 98.35
M 27.55 71.15
Q 28.55 68.1 27.45 66.8 27.15 66.45 26.6 66.1 25.9 65.8 25.55 65.6 24.05 64.75 23.3 64.4 21.35 63.5 16.7 63.3 15.73125 63.248046875 14.9 63.25 16.7533203125 65.5013671875 18.9 67.5 21.25 69.65 21.3 71.15 21.35 72 20.55 73.9 19.8 75.65 20.05 76.6
L 10 73.95
Q 11.7931640625 75.54921875 14.85 76.85 17.25 77.85 20.85 78.95 22 79.25 22.6 79.3 23.5 79.35 24.15 78.9 24.85 78.45 25.5 76.85 26.85 73.45 27.55 71.15
M 96.5 77.15
Q 96.55 77.1 96.55 77.05 91.2 77 85.8 76.35 85.25 74.05 84.9 72.95 81.95 72.95 78.4 72.75 81.4 77.2 84.1 81.8 85 81.65 86.2 81.55 88.8 81.35 89.5 81.25 91.7 80.95 93.5 79.95 95.5 78.85 96.5 77.15
M 34.45 42.35
Q 34.25 42.4 34.05 42.45 33.45 43.55 33.25 43.9 32.85 44.75 32.7 45.55
L 32.7 45.6
Q 32.8 45.35 32.9 45.15
L 33 45
Q 33.1 44.8 33.25 44.55 33.25 44.5 33.3 44.4 34 43.15 34.45 42.35
M 55 23.6
Q 54.65 20.45 54.5 18.9 54.25 16.15 54.6 14.2
L 64 16.65
Q 58.45 12.65 53.1 8.45
L 44.9 28.5
Q 42.45 34.35 41.55 36.3 39.6 40.65 37.75 43.85 35.55 47.75 33.1 48.45 33.85 50.15 35.8 52 41.6 57.55 48.1 59.95 55.5 62.75 62.6 61.2 64.1 61 64.3 60.1 58.7 59.45 53 57.9 55.15 42.95 55.15 28.45 55.15 26 55 23.6
M 100.25 61.2
Q 100.1 61 99.95 60.8 96.05 56.4 89.6 52.9 88.6 52.3 87.55 51.8
L 87.5 51.8
Q 89.55 53.7 91.2 56.1 93.3 59.25 91.95 61.1 91.25 62 89.45 62.45 82.6 64.45 73.9 64.65 67.95 64.75 58 63.95 46 63 38.55 61.45 27.95 59.3 20.15 55.15 15.35 52.65 13.45 49.6 12.7 48.4 12.9 47.5 13.1 46.65 14.8 45.6
L 21.45 41.7
Q 16.5 42.15 11.85 43.95 8.65 45.25 8.05 47.05 7.3 49.15 9.1 51.1 10.2 52.4 12.65 53.6 21.5 58.1 32.7 61.2 41.75 63.7 53.85 65.65 64.7 67.35 73.25 68.2 81.5 69.05 86.8 68.85 91.65 68.65 95.8 67.7 95.8984375 67.6310546875 96 67.55 96 67.6068359375 96 67.65 98.05 67.1 99.95 66.4 101.45 65.75 101.8 65.05 102.4 63.8 100.9 61.95 100.6 61.55 100.25 61.2 Z"/>

<path fill="#FFFFFF" stroke="none" d="
M 36.15 137.1
L 36.1 136.85
Q 36.05 136.95 36.05 137.1 36.1 137.1 36.15 137.1
M 41.65 78
L 40.9 82.8
Q 39.25 93.1 39.3 98.75 39.4 105.3 42.05 117.45 44.3 127.7 44.9 133.6 49.65 131.3 53.75 128.3 57 124.75 59.75 120.7 65.85 111.65 68.6 101.3 69.65 97.2 69.9 94.2 70.2 90.1 69.35 82.85
L 69.1 80.15 66.6 80.25
Q 66.45 81.7 66.1 83.1 65.3 86.75 62.25 91.7 59.5 96.05 56.1 99.75 55.95 99.15 55.35 99
L 54.3 100.55
Q 50.65 97.25 49.3 91.55 48.5 88.4 48.2 81.15 48.15 80.35 48.15 79.6 44.85 79 41.65 78
M 14.05 98.55
Q 15.4 98.5 16.7 98.3 17.1 98 17.65 97.65
L 19.55 96.4
Q 23.35 93.95 29.55 88.05 32.95 84.75 34.2 82.75 35.05 81.5 36 79.5 36.85 77.55 37.4 76.5 34.05 75.15 30.9 73.35 24.8 87.55 14.05 98.55
M 56.75 80.5
Q 54.6 80.45 52.55 80.25 52.5 80.3 52.5 80.35 52.1 83.9 52.05 85.5 51.95 88.4 52.5 90.6 52.85 92 53.85 94.3 55 96.95 55.35 98 57.4 94.55 58.35 92.6 59.85 89.5 60.35 86.8 60.6 85.65 60.8 83.35
L 61.05 80.45
Q 57.982421875 80.545703125 56.75 80.5
M 87.85 96.25
L 89.1 97.2 84.6 88.85
Q 84 87.95 83.7 87.15 83.7 87.1 83.65 87.05
L 79.7 79.6 74.25 79.85
Q 74.3 79.95 74.35 80.1 75.5 82.4 78.55 86 81.5 89.7 83.8 91.85 85.9 93.85 86.3 94.25 86.65 94.65 87.55 95.9 87.7 96.1 87.85 96.25 Z"/>

<path fill="#999999" stroke="none" d="
M 87.85 96.25
Q 87.7 96.1 87.55 95.9 86.65 94.65 86.3 94.25 85.9 93.85 83.8 91.85 81.5 89.7 78.55 86 75.5 82.4 74.35 80.1 74.3 79.95 74.25 79.85
L 79.7 79.6 77.4 75.3
Q 76.8 74.25 76.8 73.2 76.8 72.9 76.85 72.65 75 72.5 73 72.3 53.15 70.35 33.5 65.35 33.6 66.3 33.05 67.75 32.05 70.6 30.9 73.35 34.05 75.15 37.4 76.5 36.85 77.55 36 79.5 35.05 81.5 34.2 82.75 32.95 84.75 29.55 88.05 23.35 93.95 19.55 96.4
L 17.65 97.65
Q 17.1 98 16.7 98.3 19.7 97.85 22.55 96.5 22.9 96.1 23.25 95.85 23.85 95.45 24.55 95.45 27.85 93.5 30.25 90.6 32.55 87.85 33.95 89.05 34.2 89.25 34.35 89.65 34.55 90.05 34.65 90.75
L 35.95 101.25
Q 37.1 112 37.25 119.2 37.5 128.9 36.1 136.85
L 36.15 137.1
Q 40.75 135.6 44.9 133.6 44.3 127.7 42.05 117.45 39.4 105.3 39.3 98.75 39.25 93.1 40.9 82.8
L 41.65 78
Q 44.85 79 48.15 79.6 48.15 80.35 48.2 81.15 48.5 88.4 49.3 91.55 50.65 97.25 54.3 100.55
L 55.35 99
Q 55.95 99.15 56.1 99.75 59.5 96.05 62.25 91.7 65.3 86.75 66.1 83.1 66.45 81.7 66.6 80.25
L 69.1 80.15 69.35 82.85
Q 70.2 90.1 69.9 94.2 69.65 97.2 68.6 101.3 65.85 111.65 59.75 120.7 57 124.75 53.75 128.3 57.55 125.5 60.75 122.15 65.85 116.7 68.9 110.1 72.05 103.25 72.55 96.1 72.6 90.85 72.8 88.25 72.9 86.7 73.75 86.45 73.9 86.4 74.15 86.4 74.25 86.4 74.4 86.45 74.8 86.6 75.35 87
L 87.85 96.25
M 52.55 80.25
Q 54.6 80.45 56.75 80.5 57.982421875 80.545703125 61.05 80.45
L 60.8 83.35
Q 60.6 85.65 60.35 86.8 59.85 89.5 58.35 92.6 57.4 94.55 55.35 98 55 96.95 53.85 94.3 52.85 92 52.5 90.6 51.95 88.4 52.05 85.5 52.1 83.9 52.5 80.35 52.5 80.3 52.55 80.25 Z"/>
</g>

<g id="orbital_4_Layer0_0_FILL">
<path fill="#FFFFFF" stroke="none" d="
M -71.6 93.15
Q -72.0662109375 91.7216796875 -72.5 90.25 -72.9744140625 101.3224609375 -70.75 112.55 -70.2158203125 115.1404296875 -69.55 117.75 -63.4 141.8 -44.5 157.7 -35.2666015625 165.4884765625 -24.8 170.55 -31.939453125 162.862890625 -38.3 154.7 -61.1 125.45 -71.6 93.15 Z"/>

<path fill="#8E2D1A" stroke="none" d="
M 13.1 7.35
Q 14.076953125 7.1197265625 15.05 6.95 15.0466796875 6.828125 15 6.7 14.8732421875 6.319921875 14.65 6 13.5109375 6.2 12.35 6.45 11.80625 6.6171875 11.25 6.75 11.03359375 6.8376953125 10.8 6.9 4.9224609375 8.6619140625 -0.3 12.45 -3.35 14.7 -6.75 17.1 -10.766796875 20.739453125 -14.5 24.9 -17.6505859375 28.4330078125 -20.6 32.35 -26.65 40.5 -31.1 49.85 -35.5 59.35 -38.1 69.45 -40.2990234375 78.2009765625 -40.9 87.25 -40.95390625 88.3099609375 -41 89.35 -41.35 99.3 -39.85 109.45 -38.2 119.65 -34.3 129.4 -30.5 138.75 -24.85 147.25 -19.05 155.75 -11.8 163 -4 170.6 6.2 174.4 8.6646484375 175.230859375 11.1 175.85 11.6275390625 176.003125 12.1 176.1 13.470703125 176.457421875 14.8 176.7 14.9341796875 176.1671875 14.9 175.45 14.9 175.3115234375 14.9 175.15 13.7779296875 174.828125 12.5 174.6 12.0880859375 174.461328125 11.65 174.3 11.54140625 174.278515625 11.4 174.2 7.098046875 172.7158203125 3.1 170.85 -1.3 168.55 -4.7 165.05 -12.3 156.7 -19.1 147.15 -24.8 139.2 -28.7 130.25 -30.871875 125.2173828125 -32.55 120 -34.018359375 115.399609375 -35.1 110.65 -37.55 99.05 -36.95 87.65 -36.34453125 79.4244140625 -34.55 71.45 -31.9716796875 60.308984375 -27.05 49.65 -23.2322265625 41.4197265625 -18.25 33.95 -15.2232421875 29.490234375 -11.8 25.3 -2.65 14.15 10.1 8.35 10.5509765625 8.1697265625 11 8 11.8115234375 7.7228515625 12.6 7.5 12.8560546875 7.4353515625 13.1 7.35
M 14.1 9.05
Q 14.56171875 8.8365234375 14.8 8.5 14.406640625 8.57421875 14 8.65 13.0412109375 8.8783203125 12.05 9.15 12.1720703125 9.207421875 12.3 9.25 13.25 9.5 14 9.15 14.06875 9.115625 14.1 9.05 Z"/>

<path fill="#000000" stroke="none" d="
M 14.8 8.5
Q 14.94765625 8.4763671875 15.1 8.45
L 15.15 6.95
Q 15.112109375 6.955859375 15.05 6.95 14.076953125 7.1197265625 13.1 7.35 12.8560546875 7.4353515625 12.6 7.5 11.8115234375 7.7228515625 11 8 10.5509765625 8.1697265625 10.1 8.35 -2.65 14.15 -11.8 25.3 -15.2232421875 29.490234375 -18.25 33.95 -23.2322265625 41.4197265625 -27.05 49.65 -31.9716796875 60.308984375 -34.55 71.45 -36.34453125 79.4244140625 -36.95 87.65 -37.55 99.05 -35.1 110.65 -34.018359375 115.399609375 -32.55 120 -30.871875 125.2173828125 -28.7 130.25 -24.8 139.2 -19.1 147.15 -12.3 156.7 -4.7 165.05 -1.3 168.55 3.1 170.85 7.098046875 172.7158203125 11.4 174.2 11.54140625 174.278515625 11.65 174.3 12.0880859375 174.461328125 12.5 174.6 13.7779296875 174.828125 14.9 175.15 14.9953125 175.2150390625 15.1 175.25
L 15.1 172.55
Q 13.830078125 172.2568359375 12.5 171.9 12.1291015625 171.38515625 11.15 170.95 1.35 166.35 -6.75 158 -14.45 150.1 -19.65 139.85 -28.8 121.85 -30.25 96.85 -30.65 88.9 -30.25 82.3 -29.5 70.45 -26.2 59.05 -21.55 43.05 -12.15 30.8 -1.85 17.4 12 11.6 13.5 11 13.95 10.25 14.2431640625 9.6962890625 14.1 9.05 14.06875 9.115625 14 9.15 13.25 9.5 12.3 9.25 12.1720703125 9.207421875 12.05 9.15 13.0412109375 8.8783203125 14 8.65 14.406640625 8.57421875 14.8 8.5
M 15.1 4.15
Q 14.969921875 4.1599609375 14.85 4.15 9.77109375 4.625 4.75 7.55 0.65 9.75 -3 12.75 -12.65 20.85 -20.9 30.7 -32.05 43.95 -38.2 60.2 -43.85 75 -44.1 90.75 -44.15 103.15 -41.15 115.75 -38 128 -31.85 139.05 -27.9 145.9 -23.3 152.3 -19.4 157.4 -15.1 161.7 -11.75 164.8 -8.35 167.7 -2.95 171.9 2.85 175.1 7.232421875 177.2720703125 11.85 178.35 12.572265625 178.53125 13.3 178.65 14.0201171875 178.83125 14.75 178.95 14.8451171875 178.89296875 14.9 178.85 14.997265625 178.87578125 15.05 178.9 15.077734375 178.9552734375 15.1 179
L 15.1 176.8
Q 15.06171875 176.7921875 15 176.75 14.9208984375 176.7541015625 14.8 176.7 13.470703125 176.457421875 12.1 176.1 11.6275390625 176.003125 11.1 175.85 8.6646484375 175.230859375 6.2 174.4 -4 170.6 -11.8 163 -19.05 155.75 -24.85 147.25 -30.5 138.75 -34.3 129.4 -38.2 119.65 -39.85 109.45 -41.35 99.3 -41 89.35 -40.95390625 88.3099609375 -40.9 87.25 -40.2990234375 78.2009765625 -38.1 69.45 -35.5 59.35 -31.1 49.85 -26.65 40.5 -20.6 32.35 -17.6505859375 28.4330078125 -14.5 24.9 -10.766796875 20.739453125 -6.75 17.1 -3.35 14.7 -0.3 12.45 4.9224609375 8.6619140625 10.8 6.9 11.03359375 6.8376953125 11.25 6.75 11.80625 6.6171875 12.35 6.45 13.5109375 6.2 14.65 6 14.8595703125 5.957421875 15.05 5.9 15.094140625 5.909375 15.15 5.9
L 15.1 4.15
M 15.1 2.2
L 15.1 0.25
Q 12.7 0.35 2.45 0.9 -7.75 1.45 -22.7 7.95 -37.6 14.4 -54.1 30.45 -70.55 46.5 -75.75 80.65 -80.9 114.75 -67.15 138.9 -53.4 163.05 -30.55 173.4 -7.7 183.7 15.15 182.55
L 14.85 180.25
Q 8.65 180.05 2.45 178.95 -12.0849609375 176.7560546875 -24.8 170.55 -35.2666015625 165.4884765625 -44.5 157.7 -63.4 141.8 -69.55 117.75 -70.2158203125 115.1404296875 -70.75 112.55 -72.9744140625 101.3224609375 -72.5 90.25 -71.868359375 75.245703125 -66.2 60.55 -58.1 39.45 -40.9 25 -16.9306640625 4.7525390625 14.6 2.25 14.749609375 2.234765625 14.85 2.2 14.9873046875 2.20859375 15.1 2.2 Z"/>

<path fill="#CC9900" stroke="none" d="
M 14.85 4.15
L 14.6 2.25
Q -16.9306640625 4.7525390625 -40.9 25 -58.1 39.45 -66.2 60.55 -71.868359375 75.245703125 -72.5 90.25 -72.0662109375 91.7216796875 -71.6 93.15 -61.1 125.45 -38.3 154.7 -31.939453125 162.862890625 -24.8 170.55 -12.0849609375 176.7560546875 2.45 178.95 8.65 180.05 14.85 180.25
L 14.9 178.85
Q 14.8451171875 178.89296875 14.75 178.95 14.0201171875 178.83125 13.3 178.65 12.572265625 178.53125 11.85 178.35 7.232421875 177.2720703125 2.85 175.1 -2.95 171.9 -8.35 167.7 -11.75 164.8 -15.1 161.7 -19.4 157.4 -23.3 152.3 -27.9 145.9 -31.85 139.05 -38 128 -41.15 115.75 -44.15 103.15 -44.1 90.75 -43.85 75 -38.2 60.2 -32.05 43.95 -20.9 30.7 -12.65 20.85 -3 12.75 0.65 9.75 4.75 7.55 9.77109375 4.625 14.85 4.15 Z"/>
</g>

<g id="orbital_7_Layer0_0_FILL">
<path fill="#000000" stroke="none" d="
M 12.9 183.2
Q 50.55 183.2 77.15 156.25 103.8 129.3 103.8 91.3 103.8 53.25 77.15 26.25 50.55 -0.6 12.9 -0.6 -24.7 -0.6 -51.3 26.25 -77.95 53.25 -77.95 91.3 -77.95 129.3 -51.3 156.25 -24.7 183.2 12.9 183.2
M 46.5 9
Q 62.15 15.35 75.1 28.4
L 75.1 28.35
Q 100.85 54.45 100.85 91.3 100.85 128.1 75.1 154.15 62.15 167.25 46.5 173.65 30.9 180.75 12.9 180.2 12.4 180.2 11.85 180.2
L -5.4 178.55
Q -30.2 173.4 -49.2 154.15 -74.95 128.1 -74.95 91.3 -74.95 54.45 -49.2 28.35 -30.2 9.15 -5.4 4.05
L 11.85 2.4
Q 12.35 2.4 12.9 2.4 30.25 2.45 46.5 9
M 66.45 29.5
Q 59.1 22.35 50.8 17.3
L 45.15 14.25 37.1 10.8
Q 24.15 5.95 9.3 5.6 8.9 5.6 8.5 5.6 8.2 5.6 7.85 5.6 7.55 5.6 7.2 5.6 -27.45 5.55 -50.95 30.75 -74.45 55.9 -74.45 91.75 -74.45 127.6 -50.7 151.15 -43.1 158.65 -34.4 163.8
L -28.9 166.8 -20.45 170.45
Q -7.35 174.95 7.75 175.15 9.2 175.15 10.65 175.15 43.45 174.55 66.65 150.25 90.95 124.8 91 89.05 91.05 53.3 66.45 29.5
M 7.75 7
Q 41.25 7 64.9 31.45 88.6 56 88.6 90.65 88.6 125.3 64.9 149.8 41.25 174.3 7.75 174.3 -25.75 174.3 -49.35 149.8 -73.1 125.3 -73.1 90.65 -73.1 87.85 -73 85.15
L -72.5 79.8
Q -70.75 65.8 -65 53.65
L -61.9 47.75
Q -56.75 39.1 -49.35 31.45 -25.75 7 7.75 7
M 23.2 10.35
Q 15.8 8.85 7.8 8.8 7.5 8.8 7.2 8.8 6.9 8.8 6.6 8.8 -1.4 8.85 -8.85 10.35 -31.8 14.65 -49.25 32.8 -72.45 56.8 -72.45 90.65 -72.45 124.55 -49.25 148.5 -31.8 166.65 -8.85 170.95
L 6.6 172.5 7.8 172.5 23.2 170.95
Q 45.45 166.15 62.5 148.5 85.7 124.55 85.7 90.65 85.7 56.8 62.5 32.8 45.45 15.15 23.2 10.35
M 6.6 11.8
Q 38.15 11.8 60.5 34.9 82.8 58 82.8 90.65 82.8 123.35 60.5 146.4 38.15 169.5 6.6 169.5 -24.95 169.5 -47.25 146.4 -69.55 123.35 -69.55 90.65 -69.55 58 -47.25 34.9 -24.95 11.8 6.6 11.8 Z"/>

<path fill="#CC9900" stroke="none" d="
M 75.1 28.4
Q 62.15 15.35 46.5 9 30.25 2.45 12.9 2.4 12.35 2.4 11.85 2.4
L -5.4 4.05
Q -30.2 9.15 -49.2 28.35 -74.95 54.45 -74.95 91.3 -74.95 128.1 -49.2 154.15 -30.2 173.4 -5.4 178.55
L 11.85 180.2
Q 12.4 180.2 12.9 180.2 30.9 180.75 46.5 173.65 62.15 167.25 75.1 154.15 100.85 128.1 100.85 91.3 100.85 54.45 75.1 28.35
L 75.1 28.4
M 50.8 17.3
Q 59.1 22.35 66.45 29.5 91.05 53.3 91 89.05 90.95 124.8 66.65 150.25 43.45 174.55 10.65 175.15 9.2 175.15 7.75 175.15 -7.35 174.95 -20.45 170.45
L -28.9 166.8 -34.4 163.8
Q -43.1 158.65 -50.7 151.15 -74.45 127.6 -74.45 91.75 -74.45 55.9 -50.95 30.75 -27.45 5.55 7.2 5.6 7.55 5.6 7.85 5.6 8.2 5.6 8.5 5.6 8.9 5.6 9.3 5.6 24.15 5.95 37.1 10.8
L 45.15 14.25 50.8 17.3 Z"/>

<path fill="#8E2D1A" stroke="none" d="
M 64.9 31.45
Q 41.25 7 7.75 7 -25.75 7 -49.35 31.45 -56.75 39.1 -61.9 47.75
L -65 53.65
Q -70.75 65.8 -72.5 79.8
L -73 85.15
Q -73.1 87.85 -73.1 90.65 -73.1 125.3 -49.35 149.8 -25.75 174.3 7.75 174.3 41.25 174.3 64.9 149.8 88.6 125.3 88.6 90.65 88.6 56 64.9 31.45
M 7.8 8.8
Q 15.8 8.85 23.2 10.35 45.45 15.15 62.5 32.8 85.7 56.8 85.7 90.65 85.7 124.55 62.5 148.5 45.45 166.15 23.2 170.95
L 7.8 172.5 6.6 172.5 -8.85 170.95
Q -31.8 166.65 -49.25 148.5 -72.45 124.55 -72.45 90.65 -72.45 56.8 -49.25 32.8 -31.8 14.65 -8.85 10.35 -1.4 8.85 6.6 8.8 6.9 8.8 7.2 8.8 7.5 8.8 7.8 8.8 Z"/>
</g>
</defs>

<g transform="matrix( 0.701141357421875, 0, 0, 0.701141357421875, 65.2,74.45) ">
<g transform="matrix( 1, 0, 0, 1, -43.95,-66.5) ">
<g transform="matrix( -0.9619140625, 0.9618988037109375, 0.9618988037109375, 0.9619140625, 107.5,-14.7) "/>

<g transform="matrix( 0.7071075439453125, 0.70709228515625, -0.70709228515625, 0.7071075439453125, 129.6,26.4) ">
<g transform="matrix( 1, 0, 0, 1, 0,0) ">
<use xlink:href="#orbital_back_4_Layer0_0_FILL"/>
</g>
</g>

<g transform="matrix( 1, 0, 0, 1, 71.35,69.8) ">
<g transform="matrix( 1, 0, 0, 1, 0,0) ">
<use xlink:href="#Wizard_0_Layer0_0_FILL"/>
</g>
</g>

<g transform="matrix( 0.7071075439453125, 0.70709228515625, -0.70709228515625, 0.7071075439453125, 175.3,73.6) ">
<g transform="matrix( 1, 0, 0, 1, 0,0) ">
<use xlink:href="#orbital_4_Layer0_0_FILL"/>
</g>
</g>

<g transform="matrix( -0.9619140625, 0.9618988037109375, 0.9618988037109375, 0.9619140625, 44.75,50.2) ">
<g transform="matrix( 1, 0, 0, 1, 0,0) ">
<use xlink:href="#orbital_7_Layer0_0_FILL"/>
</g>
</g>
</g>
</g>
</svg>
