
<svg xmlns="http://www.w3.org/2000/svg" version="1.1" xmlns:xlink="http://www.w3.org/1999/xlink" preserveAspectRatio="none" x="0px" y="0px" width="300px" height="200px" viewBox="0 0 300 200">
<defs>
<g id="Symbol_130_1_Layer0_0_FILL">
<path fill="#00CCFF" fill-opacity="0.33725490196078434" stroke="none" d="
M -259.05 72.25
Q -255.55 72.4 -250.8 71.25 -246.1 70 -244.95 67.1 -244.15 65.1 -245.25 62.9 -246.25 60.85 -248.35 59.7 -251.15 58.15 -256.95 58.15 -259.7 58.05 -261.3 57.8 -263.7 57.4 -265.4 56.4 -269.7 57.45 -272.35 60.5 -273.8 61.95 -273.65 63.35 -273.5 64.2 -272.65 65.05 -272.35 65.35 -271 66.4 -270.25 66.95 -268.75 68.45 -267.4 69.8 -266.5 70.4 -263.6 72.25 -259.05 72.25
M -167.3 48.95
Q -171.45 46.35 -177.2 44.75 -180.95 43.7 -187.85 42.55 -201.7 40.1 -209.65 39.85 -221.75 39.5 -230.75 43.1 -232.8 44 -233.95 45.2 -235.4 46.7 -235.05 48.25 -234.75 49.5 -233.45 50.45 -232.6 51 -230.85 51.7 -224.7 53.9 -218.9 56.1 -212.65 58.35 -209.1 59.2 -203.55 60.5 -198.95 60.15 -195.1 59.85 -188.7 57.7 -181.45 55.25 -178.5 54.75 -176.25 54.5 -175.15 54.3 -173.25 54 -171.9 53.45 -168.05 52 -167.3 48.95 Z"/>

<path fill="#00CCFF" fill-opacity="0.6980392156862745" stroke="none" d="
M -230.55 93.5
Q -229.6 94.9 -228 95.55 -226.05 96.45 -221.75 96.25 -217.55 95.95 -215.6 95 -212.15 93.7 -211.2 90.75 -213.7 88.15 -218.1 87.2 -221.25 86.55 -226.05 86.55 -225.95 86.6 -226 86.8 -226.1 86.9 -226.25 87
L -226.8 87
Q -228.55 86.65 -230.55 89.65 -231.3 90.75 -231.3 91.5 -231.4 92.45 -230.55 93.5 Z"/>

<path fill="#00CCFF" stroke="none" d="
M -140.65 64.75
Q -139.45 65.4 -137.6 65.3 -137.1 65.3 -134.4 64.9 -131.15 64.45 -125.1 64.5 -118.7 64.55 -115.9 64.2 -112.75 63.85 -110.45 62.7 -107.7 61.3 -106.8 58.95 -106.3 57.75 -106.45 56.4 -106.6 54.95 -107.45 54.1 -108.85 52.55 -112.85 52.55 -123.75 52.55 -129.25 52.45 -134.5 52.45 -136.95 53.2 -141.35 54.6 -142.75 57.95 -143.5 59.8 -142.95 61.8 -142.35 63.9 -140.65 64.75
M 254.45 77.65
Q 260.6 74.9 264.55 71.05 267.8 68 267.4 65.1 266.909765625 62.381640625 263.85 61.3 265.4123046875 56.75234375 265.5 51.9 265.75 41.2 259 31.3 252.75 22.1 242.55 16.35 233.6 11.35 221.75 8.85 212.4 6.9 199.65 6.25 179 5.15 153.5 6.6 137.2 7.55 107.45 10.45 68.75 14.05 49.35 15.95 11.35 19.65 -4.65 21.4 -26.5650390625 23.7662109375 -45.05 26.25 -46.38984375 26.3525390625 -47.8 26.45 -58.85 27.05 -66.2 26.05 -71.8 25.35 -81.45 22.7 -92.05 19.75 -96.55 19 -108.9 16.95 -121.45 19.1 -133.95 21.25 -144.85 27.25 -138.35 28.6 -124.65 34.25 -111.8 39.6 -104.35 40.7 -97 41.8 -87 40.65 -75.45 38.9 -69.7 38.05 -62.985546875 37.0224609375 -56.25 36.45 -26.16953125 37.896875 -5 38.6 0.77578125 39.58828125 6.45 40.9 7.15 43.65 9.4 45.6 11.7 47.55 14.5 47.7 5.45 53.25 -10.45 54.45 -14.9 54.8 -23.9 55.2 -32 55.6 -37.25 56.5 -41.2 57.25 -48.7 59.25 -56.4 61.25 -60.15 62 -68.4 63.55 -83.85 63.95 -100.35 64.35 -107.65 65.45 -115.25 66.55 -124.3 69.15 -130.6 71 -140.55 74.45 -144.75 75.9 -144.95 78.1 -145.25 79.95 -143.25 81.35 -141.7 82.4 -139.25 82.9 -108.8 89.15 -78.75 90.75 -61.75 91.35 -53.3 91.7 -38.2 92.3 -27.9 93.7 -20.7 94.7 -6.2 97.6 8.05 100.5 15.5 101.5 30.25 103.55 48.85 103.55 60.05 103.5 82.35 102.4 135.85 99.9 163.45 96.85 208.3 92 242.95 81.7 250.35 79.5 254.45 77.65 Z"/>
</g>

<g id="Symbol_129_4_Layer1_0_FILL">
<path fill="#00A1CB" stroke="none" d="
M 117.15 218.25
Q 132.8 218.85 139.4 233.1
L 153 179.2 120.5 209 125.55 192.85 80.95 216.15
Q 99.05 217.2 117.15 218.25
M 25.25 193.65
L 55.95 197.35 55.05 207.8 71.05 185.1 25.25 193.65 Z"/>

<path fill="#00CCFF" stroke="none" d="
M 289 182.45
Q 286.7 184.25 284.45 186.1 256.7 207.75 235.05 235.35
L 265.45 230.75
Q 268.85 225.95 273.1 222.1 291.55 205.4 289 182.45
M 175.35 79.1
Q 171.45 87.05 165.6 93.6 99.05 168.15 0 191.05
L 25.25 193.65 71.05 185.1 55.05 207.8
Q 55.35 208.3 55.7 208.7 66.2 218.9 80.95 216.15
L 125.55 192.85 120.5 209 153 179.2 139.4 233.1
Q 139.7 233.3 140 233.5 178.35 241.85 217.2 237.05 250.05 198.95 252.3 155.1 199.55 177.7 160 223.3 174.95 182.25 199.5 145.95
L 197.05 141.45 168.65 159.8
Q 172.05 147.75 175.5 135.75 164.2 136.6 156.85 145.2 134.3 171.45 106.65 192.3 108.85 189.95 111.1 187.65 156.65 141.1 175.35 79.1 Z"/>

<path fill="#48D9FF" stroke="none" d="
M 192.85 26.5
Q 192.5 29.05 192.05 31.6 187.7 56.7 175.35 79.1 156.65 141.1 111.1 187.65 108.85 189.95 106.65 192.3 134.3 171.45 156.85 145.2 164.2 136.6 175.5 135.75 172.05 147.75 168.65 159.8
L 197.05 141.45 199.5 145.95
Q 174.95 182.25 160 223.3 199.55 177.7 252.3 155.1 250.05 198.95 217.2 237.05
L 235.05 235.35
Q 256.7 207.75 284.45 186.1 286.7 184.25 289 182.45 278.8 161 293.45 140.5 302.8 127.45 286.65 125.05 223.7 115 246.05 61.8 242.1 61.85 238.25 62.35 231.95 63 232.55 59.05 239.7 9.9 192.85 26.5 Z"/>

<path fill="#D0F3FC" stroke="none" d="
M 189.8 0.55
L 192.85 26.5
Q 239.7 9.9 232.55 59.05 231.95 63 238.25 62.35 242.1 61.85 246.05 61.8 223.7 115 286.65 125.05 302.8 127.45 293.45 140.5 278.8 161 289 182.45 291.55 205.4 273.1 222.1 268.85 225.95 265.45 230.75 332.35 209.95 317.2 133.65 295.65 25.15 189.8 0.55 Z"/>
</g>

<g id="Symbol_129_4_Layer0_0_FILL">
<path fill="#D0F3FC" stroke="none" d="
M 153.75 28.7
Q 153.75 25.7 151.6 23.6 149.5 21.5 146.5 21.5 143.5 21.5 141.35 23.6 139.25 25.7 139.25 28.7 139.25 31.7 141.35 33.8 143.5 35.9 146.5 35.9 149.5 35.9 151.6 33.8 153.75 31.7 153.75 28.7
M 239.5 112.15
Q 239.5 107.65 236.3 104.45 233.1 101.25 228.6 101.25 224.1 101.25 220.9 104.45 217.7 107.65 217.7 112.15 217.7 116.65 220.9 119.85 224.1 123.05 228.6 123.05 233.1 123.05 236.3 119.85 239.5 116.65 239.5 112.15
M 197.4 47.95
Q 197.4 43.55 194.3 40.4 191.2 37.3 186.8 37.3 182.4 37.3 179.3 40.4 176.2 43.55 176.2 47.95 176.2 52.35 179.3 55.45 182.4 58.6 186.8 58.6 191.2 58.6 194.3 55.45 197.4 52.35 197.4 47.95
M 242.8 44.35
Q 242.8 37.5 237.55 32.65 232.3 27.85 224.9 27.85 217.5 27.85 212.25 32.65 207 37.5 207 44.35 207 51.2 212.25 56 217.5 60.85 224.9 60.85 232.3 60.85 237.55 56 242.8 51.2 242.8 44.35
M 223.5 -0.25
Q 223.5 -1.6 222.85 -2.55 222.2 -3.45 221.3 -3.45 220.4 -3.45 219.75 -2.55 219.1 -1.6 219.1 -0.25 219.1 1.1 219.75 2 220.4 2.95 221.3 2.95 222.2 2.95 222.85 2 223.5 1.1 223.5 -0.25
M 188.25 -3.2
Q 188.25 -5.9 186.3 -7.85 184.4 -9.75 181.7 -9.75 179 -9.75 177.05 -7.85 175.15 -5.9 175.15 -3.2 175.15 -0.5 177.05 1.4 179 3.35 181.7 3.35 184.4 3.35 186.3 1.4 188.25 -0.5 188.25 -3.2 Z"/>
</g>
</defs>

<g transform="matrix( 0.4565277099609375, 0, 0, 0.4565277099609375, 140.4,37.55) ">
<g transform="matrix( 0.847808837890625, 0, 0, 1, 4,158.1) ">
<g transform="matrix( 1, 0, 0, 1, 0,0) ">
<use xlink:href="#Symbol_130_1_Layer0_0_FILL"/>
</g>
</g>

<g transform="matrix( 1, 0, 0, 1, 0,0) ">
<use xlink:href="#Symbol_129_4_Layer1_0_FILL"/>
</g>

<g transform="matrix( 1, 0, 0, 1, 0,0) ">
<use xlink:href="#Symbol_129_4_Layer0_0_FILL"/>
</g>
</g>
</svg>
