
<svg xmlns="http://www.w3.org/2000/svg" version="1.1" xmlns:xlink="http://www.w3.org/1999/xlink" preserveAspectRatio="none" x="0px" y="0px" width="1000px" height="1000px" viewBox="0 0 1000 1000">
<defs>
<linearGradient id="Gradient_1" gradientUnits="userSpaceOnUse" x1="-7.65" y1="45.2" x2="31.950000000000003" y2="47.3" spreadMethod="pad">
<stop  offset="0%" stop-color="#FFFFFF"/>

<stop  offset="100%" stop-color="#9C9C9C"/>
</linearGradient>

<linearGradient id="Gradient_2" gradientUnits="userSpaceOnUse" x1="27" y1="69.9" x2="58.900000000000006" y2="57.8" spreadMethod="pad">
<stop  offset="0%" stop-color="#FFFFFF"/>

<stop  offset="100%" stop-color="#9C9C9C"/>
</linearGradient>

<linearGradient id="Gradient_3" gradientUnits="userSpaceOnUse" x1="67.15" y1="22.3" x2="52.85" y2="22.3" spreadMethod="pad">
<stop  offset="0%" stop-color="#FFFFFF"/>

<stop  offset="100%" stop-color="#9C9C9C"/>
</linearGradient>

<linearGradient id="Gradient_4" gradientUnits="userSpaceOnUse" x1="66.05" y1="47.25" x2="51.75" y2="47.25" spreadMethod="pad">
<stop  offset="0%" stop-color="#FFFFFF"/>

<stop  offset="100%" stop-color="#9C9C9C"/>
</linearGradient>

<linearGradient id="Gradient_5" gradientUnits="userSpaceOnUse" x1="124.9125" y1="45.775" x2="39.787499999999994" y2="45.025" spreadMethod="pad">
<stop  offset="0%" stop-color="#FFFFFF"/>

<stop  offset="100%" stop-color="#9C9C9C"/>
</linearGradient>

<linearGradient id="Gradient_6" gradientUnits="userSpaceOnUse" x1="25.924999999999997" y1="72.0625" x2="74.375" y2="98.4375" spreadMethod="pad">
<stop  offset="0%" stop-color="#FFFFFF"/>

<stop  offset="100%" stop-color="#9C9C9C"/>
</linearGradient>

<linearGradient id="Gradient_7" gradientUnits="userSpaceOnUse" x1="56.68749999999999" y1="18.8625" x2="82.01249999999999" y2="50.837500000000006" spreadMethod="pad">
<stop  offset="0%" stop-color="#FFFFFF"/>

<stop  offset="100%" stop-color="#9C9C9C"/>
</linearGradient>

<g id="executioner_legs_0_Layer0_0_FILL">
<path fill="#000000" stroke="none" d="
M 82.4 24.85
Q 82.9 24.9 84.3 24.75 85.65 24.6 86 24.5 86.9 24.95 89.15 22.7 91.3 20.5 91.55 19 91.75 17.9 91.2 10.75 90.65 3.2 90 2.25 89.05 0.8 43.95 2.8 -0.95 4.8 -1.4 5.6 -2.2 7.2 -0.55 15.25 1 22.9 1.55 23.35 6.6 27 13.15 26.8 17.75 26.55 18.35 22.3 20.35 21.75 46.35 20.3 71.55 18.9 73.1 19 74.1 18.85 77.7 21.85 81.4 24.9 82.4 24.85
M 82.5 4.35
Q 84.95 14.25 84.75 19 84.75 19.25 82.55 19.85 80.35 20.45 80.3 20.2 80.15 19.4 77.95 17.5 75.5 15.35 73.8 15.4 70.15 15.15 46.9 16.25 24.25 17.3 19.8 17.85 14.75 18.35 14.25 23.2
L 10.45 23.1
Q 9.45 22.95 7.7 22.3 5.8 21.55 5.7 21.05 4.5 14.85 4.45 8.65
L 39.05 6
Q 43.65 5.65 62.65 4.9 82.1 4.1 82.5 4.35 Z"/>

<path fill="#3333CC" stroke="none" d="
M 30.25 11.6
Q 36.85 7.95 39.05 6
L 4.45 8.65
Q 4.5 14.85 5.7 21.05 5.8 21.55 7.7 22.3 9.45 22.95 10.45 23.1
L 11.15 16.1
Q 12.05 16.25 15.7 16.2 19.85 16.15 21.55 15.75 23.7 15.25 30.25 11.6 Z"/>

<path fill="#0099FF" stroke="none" d="
M 84.75 19
Q 84.95 14.25 82.5 4.35 82.1 4.1 62.65 4.9 43.65 5.65 39.05 6 36.85 7.95 30.25 11.6 23.7 15.25 21.55 15.75 19.85 16.15 15.7 16.2 12.05 16.25 11.15 16.1
L 10.45 23.1 14.25 23.2
Q 14.75 18.35 19.8 17.85 24.25 17.3 46.9 16.25 70.15 15.15 73.8 15.4 75.5 15.35 77.95 17.5 80.15 19.4 80.3 20.2 80.35 20.45 82.55 19.85 84.75 19.25 84.75 19 Z"/>
</g>

<g id="executioner_arm_1_Layer0_0_FILL">
<path fill="#000000" stroke="none" d="
M 75.95 80.6
Q 76.25 56.1650390625 60.3 39.3 44.353125 22.4359375 23.5 15.9 2.6916015625 9.3521484375 -14.25 19.7 -31.18984375 30.1033203125 -27.25 48.95 -23.303515625 67.848828125 -16.5 71.4 1.8 80.7 12.3 97.6 24.45 117.1 34.45 137.7 49.45 134.95 59.7 123.3 75.649609375 105.0447265625 75.95 80.6
M 50.1 40.45
Q 50.74609375 41.0505859375 58.6 48.25 65.2619140625 54.35390625 68.25 71.85 67.283203125 76.38671875 66.7 75.85 65.828515625 76.830859375 64.75 78 51.5599609375 92.6650390625 30.75 89.25 14.4 91.05 1.85 80.25 2.2 80.3 2.6 80.35 10.35 82.15 18.15 80.7 19.95234375 80.7544921875 30.3 72.55 40.642578125 64.3861328125 38.65 39.85 36.4 33.55 32.25 28.75 33.55 29.1 39.75 32.75 47.3 37.2 50.1 40.45
M 30.3 40.65
Q 26.1 30.45 16.6 24.95 35.4 29.75 36.15 50.25 36.9 70 18.4 77.55 19.1 77.1 19.8 76.6 39.1 62.8 30.3 40.65
M 9.5 25.55
Q 20.9884765625 26.68671875 27.25 39.25 27.8423828125 40.9158203125 29.6 44.65 31.3576171875 48.4341796875 30.7 58.7 21.0880859375 80.184375 2.5 77.6 -16.0439453125 75.0599609375 -18.45 63.85 -20.8013671875 52.6470703125 -20.75 51.85 -20.55 50.2 -20.3 48.6 -17.9 33.35 -4.55 25.1 -1.9884765625 24.46328125 9.5 25.55
M 20.75 94.7
Q 22.6 95.3 25.85 96.15 31 97.5 33.35 97.55 36.792578125 97.3685546875 45.65 95.6 54.507421875 93.8814453125 57.75 91.7 59.5330078125 91.1048828125 62.8 88.8 66.1169921875 86.494921875 66.95 85 67.25 86.95 66.9 90.55 66.6 94.35 65.8 96.55 57.3 120 35.75 132.5 33.85 126 31.05 118 25.4 102.05 20.75 94.7
M 22.25 92.4
Q 23 92.55 23.8 92.7 33.7 95.55 50.35 88.3 55.85 85.95 61 82.9 65.25 80.45 65.45 80 65.55 81.45 64.55 82.4 46.6 99.8 22.25 92.4 Z"/>

<path fill="#666666" stroke="none" d="
M 23.8 92.7
Q 23 92.55 22.25 92.4 46.6 99.8 64.55 82.4 65.55 81.45 65.45 80 65.25 80.45 61 82.9 55.85 85.95 50.35 88.3 33.7 95.55 23.8 92.7
M 16.6 24.95
Q 26.1 30.45 30.3 40.65 39.1 62.8 19.8 76.6 19.1 77.1 18.4 77.55 36.9 70 36.15 50.25 35.4 29.75 16.6 24.95 Z"/>

<path fill="#FFFFFF" stroke="none" d="
M 66.95 85
Q 66.1169921875 86.494921875 62.8 88.8 59.5330078125 91.1048828125 57.75 91.7 53.9 106.95 45.65 115.95 50.65 112.25 55.8 106.8 66.15 96 66.95 85
M 5.45 34.4
Q 17.05 42.8 27.25 39.25 20.9884765625 26.68671875 9.5 25.55 -1.9884765625 24.46328125 -4.55 25.1 -0.35 30.2 5.45 34.4
M 32.25 28.75
Q 36.4 33.55 38.65 39.85 41.1 42.2 48.25 52.65 57.35 65.85 62.55 77.95
L 65.95 75.3
Q 65.875390625 75.104296875 65.8 74.9 55.5109375 47.9458984375 50.1 40.45 47.3 37.2 39.75 32.75 33.55 29.1 32.25 28.75 Z"/>

<path fill="#0099FF" stroke="none" d="
M 57.75 91.7
Q 54.507421875 93.8814453125 45.65 95.6 36.792578125 97.3685546875 33.35 97.55
L 40.05 102.65
Q 39.05 103.1 36.1 103.9 33.15 104.75 32.2 104.8 33.15 107.7 34.6 115.9 36.6 127.2 35.75 132.5 57.3 120 65.8 96.55 66.6 94.35 66.9 90.55 67.25 86.95 66.95 85 66.15 96 55.8 106.8 50.65 112.25 45.65 115.95 53.9 106.95 57.75 91.7 Z"/>

<path fill="#3333CC" stroke="none" d="
M 25.85 96.15
Q 22.6 95.3 20.75 94.7 25.4 102.05 31.05 118 33.85 126 35.75 132.5 36.6 127.2 34.6 115.9 33.15 107.7 32.2 104.8 33.15 104.75 36.1 103.9 39.05 103.1 40.05 102.65
L 33.35 97.55
Q 31 97.5 25.85 96.15 Z"/>

<path fill="#999999" stroke="none" d="
M 11.95 64.1
Q 10.9 66.45 10.8 66.45 -6.15 61.6 -20.75 51.85 -20.8013671875 52.6470703125 -18.45 63.85 -16.0439453125 75.0599609375 2.5 77.6 21.0880859375 80.184375 30.7 58.7 19.8 52.65 14.05 60.25 13.2 61.35 11.95 64.1
M 18.15 80.7
Q 10.35 82.15 2.6 80.35 2.2 80.3 1.85 80.25 14.4 91.05 30.75 89.25 32.15 88.6 35.9 86.6 39.65 84.6 40.05 84.25 36.2 83.8 31.6 83.15 22.45 81.9 18.15 80.7 Z"/>

<path fill="url(#Gradient_1)" stroke="none" d="
M 27.25 39.25
Q 17.05 42.8 5.45 34.4 -0.35 30.2 -4.55 25.1 -17.9 33.35 -20.3 48.6 -20.55 50.2 -20.75 51.85 -6.15 61.6 10.8 66.45 10.9 66.45 11.95 64.1 13.2 61.35 14.05 60.25 19.8 52.65 30.7 58.7 31.3576171875 48.4341796875 29.6 44.65 27.8423828125 40.9158203125 27.25 39.25 Z"/>

<path fill="url(#Gradient_2)" stroke="none" d="
M 35.9 86.6
Q 32.15 88.6 30.75 89.25 51.5599609375 92.6650390625 64.75 78 65.828515625 76.830859375 66.7 75.85 65.95390625 75.16484375 65.95 75.3
L 62.55 77.95
Q 57.35 65.85 48.25 52.65 41.1 42.2 38.65 39.85 40.642578125 64.3861328125 30.3 72.55 19.95234375 80.7544921875 18.15 80.7 22.45 81.9 31.6 83.15 36.2 83.8 40.05 84.25 39.65 84.6 35.9 86.6 Z"/>

<path fill="#CCCCCC" stroke="none" d="
M 58.6 48.25
Q 50.74609375 41.0505859375 50.1 40.45 55.5109375 47.9458984375 65.8 74.9 65.875390625 75.104296875 65.95 75.3 65.95390625 75.16484375 66.7 75.85 67.283203125 76.38671875 68.25 71.85 65.2619140625 54.35390625 58.6 48.25 Z"/>
</g>

<g id="executioner_body_0_Layer0_0_FILL">
<path fill="#000000" stroke="none" d="
M 108.45 -1.2
Q 94.35 -2.9 80.15 -2.15 66.55 -1.4 53.3 2.05 39.15 5.55 26.25 12.5 14.25 18.8 5.85 29.4 -3.45 41.2 -5.65 56.05 -7.6 69.35 -3.65 82.2 0.25 94.95 9 104.9 17.85 115.05 30.4 120.5 42.15 125.65 54.25 129.4 67.3 133.45 80.8 135.65 94.5 137.6 108.25 136.4 122.45 135.95 134.45 128.25 143.05 124.95 151.65 121.6 158.3 118.95 164.1 114.9 176.45 106.35 180.55 91.75 184.25 78.7 182.95 65 181.8 52.5 176.85 40.95 171.3 28.1 160.65 18.95 149.1 9 134.6 4.55 121.8 0.7 108.45 -1.2
M 174 58.25
Q 176.6 73.3 171.8 87.7 166.45 98.4 158.05 107 155.05 110 135 119.35 115 128.6 109.15 129.75 102.65 130.9 81.65 128.45 62.2 126.15 54.9 124.05 38.35 119.25 25.35 108.55 14.7 99.9 9.55 87.3 5.35 77.1 5.65 66.05 6 51 13.95 38.3 21.25 26.75 33.4 20.3 39.1 17.25 52.5 12 59.15 9.4 64.7 7.35
L 98.95 6.55 119.75 10
Q 128.4 11.85 136.75 14.2 150.9 18.25 161.4 28.6 163.35 31.75 167.5 40.65 173 52.55 174 58.25
M 123.15 98.9
Q 124.1 89 122.8 79.2
L 118.3 98.75
Q 81.9 103.65 81.85 103.6
L 65.95 111.2
Q 103.3 101.6 141.75 105.95 141.45 104.9 140.9 103.75 139.85 101.45 138.55 101.15
L 123.15 98.9 Z"/>

<path fill="#CC6600" stroke="none" d="
M 171.8 87.7
Q 168.85 91.25 164.95 93.8 152.85 101.65 138.55 101.15 139.85 101.45 140.9 103.75 141.45 104.9 141.75 105.95 103.3 101.6 65.95 111.2
L 81.85 103.6
Q 76.7271484375 105.69609375 71.2 105.65 55.3 105.5 45.8 92.7 37.6 81.6 39.1 68 41.45 46.15 55.8 29.35 54.7 32.75 54.3 36.2 53.25 45.4 61.85 64.7 68.1 78.8 72.2 84.6 80.6 96.45 93.85 95 100.2 94.25 102.45 88.35 104.3 89.6 106.45 89.15 111.8 87.75 121.6 73.45 131.75 58.65 131.15 51.45 130.3 41.4 124.15 33.35 129.3 31.2 134.5 29.1 147.9 23.85 161.4 28.6 150.9 18.25 136.75 14.2 128.4 11.85 119.75 10
L 98.95 6.55 64.7 7.35
Q 59.15 9.4 52.5 12 39.1 17.25 33.4 20.3 21.25 26.75 13.95 38.3 6 51 5.65 66.05 5.35 77.1 9.55 87.3 14.7 99.9 25.35 108.55 38.35 119.25 54.9 124.05 62.2 126.15 81.65 128.45 102.65 130.9 109.15 129.75 115 128.6 135 119.35 155.05 110 158.05 107 166.45 98.4 171.8 87.7 Z"/>

<path fill="#FFCC99" stroke="none" d="
M 171.8 87.7
Q 176.6 73.3 174 58.25 173 52.55 167.5 40.65 163.35 31.75 161.4 28.6 147.9 23.85 134.5 29.1 129.3 31.2 124.15 33.35 130.3 41.4 131.15 51.45 131.75 58.65 121.6 73.45 111.8 87.75 106.45 89.15 104.3 89.6 102.45 88.35 100.2 94.25 93.85 95 80.6 96.45 72.2 84.6 68.1 78.8 61.85 64.7 53.25 45.4 54.3 36.2 54.7 32.75 55.8 29.35 41.45 46.15 39.1 68 37.6 81.6 45.8 92.7 55.3 105.5 71.2 105.65 76.7271484375 105.69609375 81.85 103.6 81.9 103.65 118.3 98.75
L 122.8 79.2
Q 124.1 89 123.15 98.9
L 138.55 101.15
Q 152.85 101.65 164.95 93.8 168.85 91.25 171.8 87.7 Z"/>
</g>

<g id="executioner_belt_0_Layer0_0_FILL">
<path fill="#000000" stroke="none" d="
M 91.75 35.65
Q 91.8 35.6 93.65 33.3 95.45 30.7 95.1 29.15 89.1 3.1 60 0.35 57.25 0.2 55.35 1.9 31 23.85 -1.15 18.95 -1.5 19.9 -1.2 20.75 9.95 48.35 40.5 44.55 39.15 50.85 43.95 53.8 71.4 70.3 82.55 41.3 85 40.25 86.75 39.3 90.65 37.25 91.75 35.65
M 88.75 20.25
L 88.55 23.6 83.85 25.7
Q 82.55 9.15 65.7 10.35 44.9 10.8 42.9 31.6
L 28.9 30.8
Q 18.65 29.85 8.6 26.75
L 6.15 20.65
Q 9.9 21 13.65 21.4 35.9 24.1 51.6 8.35
L 54.5 5.25
Q 59.35 5.1 64.15 5.45 79.05 7.4 88.75 20.25
M 88.7 28.7
Q 86.6 36.1 83 36.55
L 82.3 36.85 83.15 31.25 88.7 28.7
M 42.3 36.15
L 42 41 38 40.4
Q 25 40.4 13.05 35 9.35 33.35 9.15 29.05 10.6 29.6 12.1 30.2 26.7 36 42.3 36.15
M 44.35 41.35
L 44.35 35.65
Q 50.2 36.05 60.1 35.25 73.8 34.15 81.7 31.7
L 80.75 38.5
Q 62.65 43.25 44.35 41.35
M 45.25 49.3
L 45.5 44.8
Q 61.85 47.45 78.1 43.2
L 78.2 46.4
Q 76.35 47.1 74.55 47.8 61.45 52.85 47.7 50.5
L 45.25 49.3
M 80.35 26.35
L 80.25 27.15
Q 63.7 31.3 46.6 31.35 47.75 26.05 51.15 22.25 69.25 2.25 80.35 26.35 Z"/>

<path fill="url(#Gradient_3)" stroke="none" d="
M 80.25 27.15
L 80.35 26.35
Q 69.25 2.25 51.15 22.25 47.75 26.05 46.6 31.35 63.7 31.3 80.25 27.15 Z"/>

<path fill="url(#Gradient_4)" stroke="none" d="
M 45.5 44.8
L 45.25 49.3 47.7 50.5
Q 61.45 52.85 74.55 47.8 76.35 47.1 78.2 46.4
L 78.1 43.2
Q 61.85 47.45 45.5 44.8 Z"/>

<path fill="#666666" stroke="none" d="
M 44.35 35.65
L 44.35 41.35
Q 62.65 43.25 80.75 38.5
L 81.7 31.7
Q 73.8 34.15 60.1 35.25 50.2 36.05 44.35 35.65
M 42 41
L 42.3 36.15
Q 26.7 36 12.1 30.2 10.6 29.6 9.15 29.05 9.35 33.35 13.05 35 25 40.4 38 40.4
L 42 41
M 83 36.55
Q 86.6 36.1 88.7 28.7
L 83.15 31.25 82.3 36.85 83 36.55 Z"/>

<path fill="#3333CC" stroke="none" d="
M 49.3 12.8
Q 50.65 10.6 51.6 8.35 35.9 24.1 13.65 21.4 9.9 21 6.15 20.65
L 8.6 26.75
Q 18.65 29.85 28.9 30.8
L 28.2 24.8
Q 42 24.5 49.3 12.8 Z"/>

<path fill="#0099FF" stroke="none" d="
M 88.55 23.6
L 88.75 20.25
Q 79.05 7.4 64.15 5.45 59.35 5.1 54.5 5.25
L 51.6 8.35
Q 50.65 10.6 49.3 12.8 42 24.5 28.2 24.8
L 28.9 30.8 42.9 31.6
Q 44.9 10.8 65.7 10.35 82.55 9.15 83.85 25.7
L 88.55 23.6 Z"/>
</g>

<g id="executioner_head_0_Layer0_0_FILL">
<path fill="#000000" stroke="none" d="
M 39.55 -5.9
Q 26.03125 -7.3759765625 20.8 -5.2 15.5546875 -3.035546875 12.35 5.25 9.1451171875 13.5388671875 8.25 16.45 7.35234375 19.35390625 4.25 29.35 1.0453125 39.7048828125 0.8 44.7 0.614453125 49.737109375 2.75 57.35 4.876953125 65.02265625 7.35 67 7.816015625 66.2396484375 8.6 65.45 8.4537109375 74.1015625 11.95 85.1 15.4888671875 96.0947265625 16.45 98.1 17.41484375 100.1568359375 19.05 101.15 19.2625 100.6875 19.9 98.85 20.5875 97.0625 23.6 94.15 26.2134765625 98.1625 27.2 103.35 28.197265625 108.5439453125 30.4 110.45 32.59609375 112.3515625 33.15 112.7 33.75078125 113.0462890625 36.6 110.8 39.4548828125 108.56640625 40.95 105.9 42.443359375 103.2779296875 47.35 97.95 48.1384765625 102.568359375 49.05 106.5 50.0115234375 110.481640625 50 109.25 54.2 110.05 60.1 106.1 60.4869140625 103.75 62.25 98.85 64.0630859375 93.95 65.8 90.2 71.571484375 92.8482421875 74.4 94.35 76.2939453125 92.171875 76.3 87.45 76.3791015625 79.3 76.55 72.55
L 82.4 76.7
Q 83.15 77.5 83.6 68.6 84.1 60.1 83.75 57.35 83 50.85 77.9 31.55 72.45 10.95 69.3 4.15 69.05 3.7 64.75 1.6 60.005078125 -0.7453125 56.55 -2.6 53.0830078125 -4.4140625 39.55 -5.9
M 48.3 4.85
Q 51.1 5.35 56.3 7.55 62.5 10.15 63.65 12.15 64.85 14.3 72.55 34.75 76.4 45 80 54.8
L 80.85 72.85 73.15 67.35 74.3 79.6
Q 74.55 82.7 74.45 85.75 74.4 86.7 74.05 89.1 73.75 91.2 73.6 91.85
L 65.6 86.55 60.25 94.25 60 95 58.35 104.15 50.95 105.95
Q 51.25 104.3 49.95 99.9 48.6 95.45 47.45 94.35
L 34.75 109.8
Q 29.55 107.05 28.35 101.1 27.15 95.35 24.1 90.3
L 21.85 89.9
Q 19 95.8 18.9 96.05 17.5 93.6 16.3 91.1 15.7 89.75 9.85 61.65
L 6.7 62.7
Q 6.4 59.65 6.25 56.6 6.15 54.55 6.7 47.7 7.25 40.7 7.7 38.15 7.95 36.85 14.45 21.3 20.6 6.8 21.5 4.9
L 48.3 4.85
M 20 40.85
L 18.55 46.05 15.6 60.45
Q 15.05 61.85 16.9 64.45 17.5 62.8 18.6 59.35 20.1 54.65 20.45 52.7 20.9 50.1 20.5 45.2
L 20 40.85
M 16 41.3
L 16 40.9 16.95 36.65 10.2 49.2 12.35 48.35
Q 15.75 43.7 16 41.3
M 49.9 22.55
L 47.7 19.4
Q 50.2017578125 23.79375 46.3 22.65 45.7 22.5 43.5 21.4 40.85 20.15 39.9 19.25
L 32.2 15.1
Q 30.6158203125 14.41953125 29.95 13.7 29.2841796875 13.03046875 29 13.2
L 36.3 20.9
Q 33.8107421875 22.02421875 33.1 23.45 32.392578125 24.9306640625 31.55 27.45 30.750390625 30.0091796875 31.6 31.15 32.508984375 32.3376953125 34.1 33.6 35.690234375 34.9087890625 38.2 35.6 40.7044921875 36.353515625 43.1 35.05 45.547265625 33.787109375 47.3 29 48.3548828125 30.7451171875 50.4 30.75 52.4853515625 30.7646484375 53.15 30 53.8646484375 29.2353515625 54.85 29.4 55.8951171875 29.6048828125 56.2 29.15 57.85 26.45 56.25 23.25
L 58.5 22.35 58.7 21.9
Q 57.1029296875 21.703515625 54.45 22.7 51.8412109375 23.7390625 49.9 22.55
M 53.75 27.85
L 50.95 29.7
Q 49.446875 27.3484375 50.7 25.6
L 54.65 24
Q 57.33515625 25.221484375 55.5 27.95
L 53.75 27.85
M 44.15 25.8
Q 44.76953125 28.2296875 44.05 31.25 43.3365234375 34.3138671875 39.5 34.1 35.7142578125 33.892578125 33.8 31 31.9259765625 28.1015625 36.15 23 37.830859375 21.71875 39.85 23.1 41.9138671875 24.5359375 42.55 25 43.191796875 25.4546875 44.15 25.8 Z"/>

<path fill="#3333CC" stroke="none" d="
M 80 54.8
L 78.15 66.6
Q 72.25 64.95 71.35 65.1
L 73.5 87.5
Q 72 86.8 67.9 85.9 64.35 85.1 63.3 85.05 62.9 85.9 61.8 89.1 60.55 92.75 60.25 94.25
L 65.6 86.55 73.6 91.85
Q 73.75 91.2 74.05 89.1 74.4 86.7 74.45 85.75 74.55 82.7 74.3 79.6
L 73.15 67.35 80.85 72.85 80 54.8
M 31.05 95.25
Q 27.2 84.7 27.1 84.75 24.95 87.15 24.1 90.3 27.15 95.35 28.35 101.1 29.55 107.05 34.75 109.8
L 47.45 94.35
Q 48.6 95.45 49.95 99.9 51.25 104.3 50.95 105.95
L 58.35 104.15 60 95
Q 59.3 96.1 57.1 98.05 54.5 100.4 53.4 100.35
L 51.3 91
Q 50.2 91.4 46.1 93.85 42.05 96.2 41.7 96.55 37.4 100.6 34.85 105.8 32.95 100.5 31.05 95.25
M 69.9 47.15
L 69.05 46.85
Q 75.85 58.45 76.1 58.4
L 69.9 47.15
M 68.55 35.1
Q 69.1 36.6 71 40.7 73 45 73.25 44.95
L 66 23.1
Q 65.75 23.15 66.7 27.7 67.65 32.5 68.55 35.1
M 39.9 19.25
Q 39.05 18.1 38.2 16.95 36.2 14.2 32.2 15.1
L 39.9 19.25
M 58.5 22.35
L 56.25 23.25
Q 57.85 26.45 56.2 29.15 55.8951171875 29.6048828125 54.85 29.4 53.8646484375 29.2353515625 53.15 30 52.4853515625 30.7646484375 50.4 30.75 48.3548828125 30.7451171875 47.3 29 45.547265625 33.787109375 43.1 35.05 40.7044921875 36.353515625 38.2 35.6 35.690234375 34.9087890625 34.1 33.6 32.508984375 32.3376953125 31.6 31.15 30.750390625 30.0091796875 31.55 27.45 32.392578125 24.9306640625 33.1 23.45 33.8107421875 22.02421875 36.3 20.9
L 29 13.2 27.95 12.65 29.25 21.5
Q 29.8 25.3 29.55 29.3 29.45 30.7 30 32.15 32.05 37.9 38 39.6 40.15 39 42.35 38.65 43.6 38.3 44.75 37.25 46.4 35.65 46.95 33.4 50.5 36.15 54.35 34 57.4 32.35 58.7 29.25 60.1 25.8 58.5 22.35
M 45.25 6.05
Q 46.8 5.5 48.3 4.85
L 21.5 4.9
Q 20.6 6.8 14.45 21.3 7.95 36.85 7.7 38.15 7.25 40.7 6.7 47.7 6.15 54.55 6.25 56.6 6.4 59.65 6.7 62.7
L 9.85 61.65
Q 15.7 89.75 16.3 91.1 17.5 93.6 18.9 96.05 19 95.8 21.85 89.9 21.05 87.5 20.25 85.15 18.35 79.45 17.75 73.6 17.3 69 16.9 64.45 15.05 61.85 15.6 60.45 12 58.4 8.4 60.25 7.65 60.55 6.95 61
L 12.35 48.35 10.2 49.2 16.95 36.65 16 40.9 16 41.3
Q 15.95 42.85 16 45 16.05 48 16.4 48.95
L 18.55 46.05 20 40.85 23.9 7.3
Q 25.85 7.55 27.8 7.8 33.5 8.6 39.1 7.6 42.25 7.15 45.25 6.05 Z"/>

<path fill="#0099FF" stroke="none" d="
M 18.55 46.05
L 16.4 48.95
Q 16.05 48 16 45 15.95 42.85 16 41.3 15.75 43.7 12.35 48.35
L 6.95 61
Q 7.65 60.55 8.4 60.25 12 58.4 15.6 60.45
L 18.55 46.05
M 48.3 4.85
Q 46.8 5.5 45.25 6.05 42.25 7.15 39.1 7.6 33.5 8.6 27.8 7.8 25.85 7.55 23.9 7.3
L 20 40.85 20.5 45.2
Q 20.9 50.1 20.45 52.7 20.1 54.65 18.6 59.35 17.5 62.8 16.9 64.45 17.3 69 17.75 73.6 18.35 79.45 20.25 85.15 21.05 87.5 21.85 89.9
L 24.1 90.3
Q 24.95 87.15 27.1 84.75 27.2 84.7 31.05 95.25 32.95 100.5 34.85 105.8 37.4 100.6 41.7 96.55 42.05 96.2 46.1 93.85 50.2 91.4 51.3 91
L 53.4 100.35
Q 54.5 100.4 57.1 98.05 59.3 96.1 60 95
L 60.25 94.25
Q 60.55 92.75 61.8 89.1 62.9 85.9 63.3 85.05 64.35 85.1 67.9 85.9 72 86.8 73.5 87.5
L 71.35 65.1
Q 72.25 64.95 78.15 66.6
L 80 54.8
Q 76.4 45 72.55 34.75 64.85 14.3 63.65 12.15 62.5 10.15 56.3 7.55 51.1 5.35 48.3 4.85
M 47.7 19.4
L 49.9 22.55
Q 51.8412109375 23.7390625 54.45 22.7 57.1029296875 21.703515625 58.7 21.9
L 58.5 22.35
Q 60.1 25.8 58.7 29.25 57.4 32.35 54.35 34 50.5 36.15 46.95 33.4 46.4 35.65 44.75 37.25 43.6 38.3 42.35 38.65 40.15 39 38 39.6 32.05 37.9 30 32.15 29.45 30.7 29.55 29.3 29.8 25.3 29.25 21.5
L 27.95 12.65 29 13.2
Q 29.2841796875 13.03046875 29.95 13.7 30.6158203125 14.41953125 32.2 15.1 36.2 14.2 38.2 16.95 39.05 18.1 39.9 19.25 40.85 20.15 43.5 21.4 45.7 22.5 46.3 22.65 50.2017578125 23.79375 47.7 19.4
M 71 40.7
Q 69.1 36.6 68.55 35.1 67.65 32.5 66.7 27.7 65.75 23.15 66 23.1
L 73.25 44.95
Q 73 45 71 40.7
M 69.05 46.85
L 69.9 47.15 76.1 58.4
Q 75.85 58.45 69.05 46.85 Z"/>

<path fill="#FFFFFF" stroke="none" d="
M 44.05 31.25
Q 44.76953125 28.2296875 44.15 25.8 43.191796875 25.4546875 42.55 25 41.9138671875 24.5359375 39.85 23.1 37.830859375 21.71875 36.15 23 31.9259765625 28.1015625 33.8 31 35.7142578125 33.892578125 39.5 34.1 43.3365234375 34.3138671875 44.05 31.25
M 50.95 29.7
L 53.75 27.85 55.5 27.95
Q 57.33515625 25.221484375 54.65 24
L 50.7 25.6
Q 49.446875 27.3484375 50.95 29.7 Z"/>
</g>

<g id="executioner_axe_0_Layer0_0_FILL">
<path fill="#793C00" stroke="none" d="
M 63.3 96.85
L 67.7 97.55 68.8 92.25
Q 67.45 91.75 63.15 91.9 59.25 92.05 57.65 92.4 57.25 176.2 55.45 213.35 55.55 213.55 57.45 215.1 58.4 215.9 59.35 216.65 61.2 211.4 62 158.95 62.85 101.45 63.3 96.85
M 81.05 27.05
L 81.3 28.35 83.25 25.4
Q 71.5 23.65 62.55 31.3 62.4 31.45 63.2 35.3 63.6 37.2 64.05 39.1
L 73.5 38.95
Q 74.35 36.4 77.6 31.7 80.3 27.75 81.05 27.05 Z"/>

<path fill="#CC6600" stroke="none" d="
M 67.7 97.55
L 63.3 96.85
Q 62.85 101.45 62 158.95 61.2 211.4 59.35 216.65 58.4 215.9 57.45 215.1 55.55 213.55 55.45 213.35 55.35 216.9 57.25 224.2 59.1 231.15 59.75 231.05 61.65 230.85 62.95 225.6 63.95 221.55 63.9 218.8 63.4841796875 181.8337890625 64.5 144.8 65.05 124.15 67.05 103.75 67.35 100.65 67.7 97.55
M 84.45 27.85
Q 83.85 26.6 83.25 25.4
L 81.3 28.35 76.5 38.9 80.8 38.45
Q 86.1 31.4 84.45 27.85 Z"/>

<path fill="#000000" stroke="none" d="
M 150.25 -37.65
Q 148.15 -24.2 142.1 -12.15 138.9955078125 -5.9310546875 135.2 -0.6 120.0224609375 20.8015625 93.95 27.65 93.75 28.25 91.85 26.7 69.1759765625 8.9859375 54.65 30.9
L 43.9 32.45
Q 19.1759765625 47.5705078125 17.55 78.7 15.973828125 109.8794921875 52.35 104.6 52.3 107.1 51.55 126.65 50.85 148.7 50.8 166.9 50.5 224.1 58.15 232.45 58.85 233.5 59.75 231.05 59.1 231.15 57.25 224.2 55.35 216.9 55.45 213.35 57.25 176.2 57.65 92.4 59.25 92.05 63.15 91.9 67.45 91.75 68.8 92.25
L 67.7 97.55
Q 67.35 100.65 67.05 103.75 65.05 124.15 64.5 144.8 63.4841796875 181.8337890625 63.9 218.8 68.25 204.65 72.15 153.8 74.15 128.4 75.25 105.8 97.6689453125 108.6060546875 125.55 124.7 126.905859375 125.5083984375 128.2 126.25 153.7865234375 140.675 160.55 137.4 167.6443359375 134.009765625 182.65 103.55 197.65390625 73.1466796875 190.15 26.85 183.65 -13.55 150.25 -37.65
M 151.8 -12.3
L 154.2 -17.25 156.3 -27.25
Q 168.05 -13.9 174.1 2.7 182.05 24.6 182.85 47.8
L 182.9 49.65
Q 182.95 55.8 183.1 61.9 183.75 86.15 171.6 107
L 171.2 107.65 156 130.25
Q 147.9 122.35 145.05 118.6
L 135.15 108.7 134.95 108.5
Q 117.95 94 96.6 87.3 83.1 83.05 68.95 83.15 48.3 83.25 31.7 95.4 28.355859375 85.094921875 27.65 73.95 26.93203125 62.81484375 35.75 49.9 44.623828125 37.030078125 80.4 41.8
L 81.05 42.15 96 36.8 95.8 36.4
Q 102.6 33.9 109.05 30.35 125.94765625 21.2576171875 138.3 7 140.8587890625 4.10078125 143.2 0.95
L 151.8 -12.3
M 83.25 25.4
Q 83.85 26.6 84.45 27.85 86.1 31.4 80.8 38.45
L 76.5 38.9 81.3 28.35 81.05 27.05
Q 80.3 27.75 77.6 31.7 74.35 36.4 73.5 38.95
L 64.05 39.1
Q 63.6 37.2 63.2 35.3 62.4 31.45 62.55 31.3 71.5 23.65 83.25 25.4
M 89.6 88
Q 103.25 91.15 115.3 98.3 125.4560546875 104.25703125 134 112.05 138.6146484375 116.271484375 142.75 121 137.84921875 118.0419921875 132.8 115.4 123.4466796875 110.537109375 113.6 106.8 93.4 99 71.75 97.85 71 90.45 70.25 89.9 69.3 89.2 62.95 89.55 56.5 89.85 55.5 90.8
L 55.5 98
Q 53.05 97.7 50.65 97.4 42.25 97 33.8 98.2 39.65 93.15 47.1 90.55 67.95 83.1 89.6 88 Z"/>

<path fill="#666666" stroke="none" d="
M 115.3 98.3
Q 103.25 91.15 89.6 88 67.95 83.1 47.1 90.55 39.65 93.15 33.8 98.2 42.25 97 50.65 97.4 53.05 97.7 55.5 98
L 55.5 90.8
Q 56.5 89.85 62.95 89.55 69.3 89.2 70.25 89.9 71 90.45 71.75 97.85 93.4 99 113.6 106.8 123.4466796875 110.537109375 132.8 115.4 137.84921875 118.0419921875 142.75 121 138.6146484375 116.271484375 134 112.05 125.4560546875 104.25703125 115.3 98.3 Z"/>

<path fill="url(#Gradient_5)" stroke="none" d="
M 138.5 7.5
Q 138.4146484375 7.253515625 138.3 7 125.94765625 21.2576171875 109.05 30.35 102.6 33.9 95.8 36.4
L 96 36.8 81.05 42.15 80.4 41.8
Q 44.623828125 37.030078125 35.75 49.9 26.93203125 62.81484375 27.65 73.95 28.355859375 85.094921875 31.7 95.4 48.3 83.25 68.95 83.15 83.1 83.05 96.6 87.3 117.95 94 134.95 108.5
L 135.15 108.7
Q 136.1232421875 105.83984375 137 102.85 144.75 76.35 144.75 52.25 144.75 25.75 138.5 7.5 Z"/>

<path fill="#CCCCCC" stroke="none" d="
M 171.2 107.65
L 171.6 107 170.95 106.4 171.2 107.65
M 182.85 47.8
Q 182.7 47.85 182.8 48.75 182.85 49.25 182.9 49.65
L 182.85 47.8 Z"/>

<path fill="#0099FF" stroke="none" d="
M 154.2 -17.25
L 151.8 -12.3 143.2 0.95
Q 140.8587890625 4.10078125 138.3 7 138.4146484375 7.253515625 138.5 7.5 144.75 25.75 144.75 52.25 144.75 76.35 137 102.85 136.1232421875 105.83984375 135.15 108.7
L 145.05 118.6
Q 147.9 122.35 156 130.25
L 171.2 107.65 170.95 106.4 171.6 107
Q 183.75 86.15 183.1 61.9 182.95 55.8 182.9 49.65 182.85 49.25 182.8 48.75 182.7 47.85 182.85 47.8 182.05 24.6 174.1 2.7 168.05 -13.9 156.3 -27.25
L 154.2 -17.25 Z"/>
</g>

<g id="executioner_arm_0_Layer0_0_FILL">
<path fill="#000000" stroke="none" d="
M 86.05 98
Q 90.6 76.15 100.7 56.05 112 33.75 97.6 14 82 -7.3 57.3 0.7 35.45 7.85 21.1 25.95 7.2 43.45 1 65.05 -5.1 86.25 -3.95 108.3 -2.7 132.6 14.65 149.5 34.55 168.8 57.5 153.95 78.1 140.75 81.65 116.5 84.1 107.4 86.05 98
M 91.55 23.35
Q 100.5 34.45 93.55 46.25 79.55 69.8 56.8 54.85 37.65 42.15 39.75 19.35 41.05 18.3 42.4 17.3 52.4 9.55 64.15 5.15 64.45 5.15 64.75 5.15 82.2 8.45 91.55 23.35
M 82.4 64.45
L 86.95 63.25 85.7 66.35
Q 75 69.65 64.2 66 37.5 56.9 35.6 28.75 37.8 37.85 43.1 45.55 57.45 66.2 82.4 64.45
M 32.45 27.05
Q 32.45 29.8 34.8 38.9 37.7 50.4 41.1 54.7 41.7 55.35 42.3 56.05 54.25 69.5 72.2 71
L 80.7 69.85 84.7 69.2
Q 82.05 92.55 59.85 100.05 36.75 108.05 13.55 100.15 12.1 98.9 9 94.2 5.85 89.4 5.3 87.6 6.45 81.8 7.8 76.05 14.4 48.7 32.45 27.05
M 66.3 110.3
Q 67.3 109.65 68.35 109 73.3 105.9 76.4 101
L 80.75 94.5
Q 80.6 98.8 76.85 113.6 71.9 133.25 66.1 141.35 50.9 162.55 26.55 154.15 5.85 134.25 4.95 105.7 5.15 105.9 16.85 112.8 29.95 119.5 37.85 118.6 38.75 118.5 39.65 118.4 53.55 116.4 66.3 110.3
M 47.1 114.05
Q 22 120.5 4.75 101.3
L 4.9 92.35
Q 14.95 109.05 34.65 109.05 59.3 109 76.9 92.1
L 81.1 88.3
Q 69.4 108.25 47.1 114.05 Z"/>

<path fill="#666666" stroke="none" d="
M 4.75 101.3
Q 22 120.5 47.1 114.05 69.4 108.25 81.1 88.3
L 76.9 92.1
Q 59.3 109 34.65 109.05 14.95 109.05 4.9 92.35
L 4.75 101.3
M 86.95 63.25
L 82.4 64.45
Q 57.45 66.2 43.1 45.55 37.8 37.85 35.6 28.75 37.5 56.9 64.2 66 75 69.65 85.7 66.35
L 86.95 63.25 Z"/>

<path fill="#3333CC" stroke="none" d="
M 14 117.55
Q 15.45 118.4 23.2 119.4 33.05 120.7 37.85 118.6 29.95 119.5 16.85 112.8 5.15 105.9 4.95 105.7 5.85 134.25 26.55 154.15 17.8 136.8 14 117.55 Z"/>

<path fill="#FFFFFF" stroke="none" d="
M 66.3 110.3
Q 66.25 112 63.4 123.35 60.9 134.75 62.25 138.6 66.25 132.65 69.9 125.1 77.2 110 76.4 101 73.3 105.9 68.35 109 67.3 109.65 66.3 110.3
M 72.2 71
Q 72.1 71.35 68.85 79.45 65.8 88.3 66.25 92.75 68 91.4 73.05 84.5 79.75 75.45 80.7 69.85
L 72.2 71
M 84.6 54.3
Q 84.8 54.15 85 53.95 100.85 41.4 91.55 23.35 82.2 8.45 64.75 5.15 64.45 5.15 64.15 5.15 77.1 12.8 82.15 34.3 84.65 45.05 84.6 54.3 Z"/>

<path fill="#0099FF" stroke="none" d="
M 63.4 123.35
Q 66.25 112 66.3 110.3 53.55 116.4 39.65 118.4 38.75 118.5 37.85 118.6 33.05 120.7 23.2 119.4 15.45 118.4 14 117.55 17.8 136.8 26.55 154.15 50.9 162.55 66.1 141.35 71.9 133.25 76.85 113.6 80.6 98.8 80.75 94.5
L 76.4 101
Q 77.2 110 69.9 125.1 66.25 132.65 62.25 138.6 60.9 134.75 63.4 123.35 Z"/>

<path fill="url(#Gradient_6)" stroke="none" d="
M 68.85 79.45
Q 72.1 71.35 72.2 71 54.25 69.5 42.3 56.05 41.7 55.35 41.1 54.7 38.8 53.75 34.7 49.85 31.5 46.8 30.55 45.55 14.85 70.55 13.55 100.15 36.75 108.05 59.85 100.05 82.05 92.55 84.7 69.2
L 80.7 69.85
Q 79.75 75.45 73.05 84.5 68 91.4 66.25 92.75 65.8 88.3 68.85 79.45 Z"/>

<path fill="#999999" stroke="none" d="
M 34.8 38.9
Q 32.45 29.8 32.45 27.05 14.4 48.7 7.8 76.05 6.45 81.8 5.3 87.6 5.85 89.4 9 94.2 12.1 98.9 13.55 100.15 14.85 70.55 30.55 45.55 31.5 46.8 34.7 49.85 38.8 53.75 41.1 54.7 37.7 50.4 34.8 38.9 Z"/>

<path fill="url(#Gradient_7)" stroke="none" d="
M 93.55 46.25
Q 100.5 34.45 91.55 23.35 100.85 41.4 85 53.95 84.8 54.15 84.6 54.3 84.65 45.05 82.15 34.3 77.1 12.8 64.15 5.15 52.4 9.55 42.4 17.3 41.05 18.3 39.75 19.35 37.65 42.15 56.8 54.85 79.55 69.8 93.55 46.25 Z"/>
</g>
</defs>

<g id="Layer_2">
<g transform="matrix( 0.842193603515625, 0, 0, 0.842193603515625, 342.9,245.5) ">
<g id="Layer_4">
<g transform="matrix( 1, 0, 0, 1, -30.7,-73.7) ">
<g id="executioner_legs">
<g transform="matrix( 1, 0, 0, 1, 172.8,351.45) ">
<g id="Layer_1">
<g transform="matrix( 1, 0, 0, 1, 0,0) ">
<use xlink:href="#executioner_legs_0_Layer0_0_FILL"/>
</g>
</g>
</g>
</g>

<g id="executioner_arm">
<g transform="matrix( 0.9994049072265625, 0.0313262939453125, -0.0313262939453125, 0.9994049072265625, 246.65,133.75) ">
<g transform="matrix( 1, 0, 0, 1, 0,0) ">
<use xlink:href="#executioner_arm_1_Layer0_0_FILL"/>
</g>
</g>
</g>

<g id="executioner_body">
<g transform="matrix( 0.998199462890625, 0.056732177734375, -0.056732177734375, 0.998199462890625, 126.25,212) ">
<g transform="matrix( 1, 0, 0, 1, 0,0) ">
<use xlink:href="#executioner_body_0_Layer0_0_FILL"/>
</g>
</g>
</g>

<g id="executioner_belt">
<g transform="matrix( 1, 0, -0.0569305419921875, 0.9994964599609375, 169.15,321.8) ">
<g transform="matrix( 1, 0, 0, 1, 0,0) ">
<use xlink:href="#executioner_belt_0_Layer0_0_FILL"/>
</g>
</g>
</g>

<g id="executioner_head">
<g transform="matrix( 0.9941558837890625, 0.104705810546875, -0.104705810546875, 0.9941558837890625, 194.45,194.35) ">
<g transform="matrix( 1, 0, 0, 1, 0,0) ">
<use xlink:href="#executioner_head_0_Layer0_0_FILL"/>
</g>
</g>
</g>

<g id="executioner_axe">
<g transform="matrix( 0.0438385009765625, -0.9988250732421875, 0.9988250732421875, 0.0438385009765625, 3.7,219) ">
<g transform="matrix( 1, 0, 0, 1, 0,0) ">
<use xlink:href="#executioner_axe_0_Layer0_0_FILL"/>
</g>
</g>
</g>

<g transform="matrix( 0.95111083984375, -0.3057403564453125, 0.3057403564453125, 0.95111083984375, 59.3,164.45) ">
<g transform="matrix( 1, 0, 0, 1, 0,0) ">
<use xlink:href="#executioner_arm_0_Layer0_0_FILL"/>
</g>
</g>
</g>
</g>
</g>
</g>
</svg>
