
<svg xmlns="http://www.w3.org/2000/svg" version="1.1" xmlns:xlink="http://www.w3.org/1999/xlink" preserveAspectRatio="none" x="0px" y="0px" width="300px" height="300px" viewBox="0 0 300 300">
<defs>
<g id="Beam_03_0_Layer0_0_FILL">
<path fill="#00CCFF" stroke="none" d="
M 51.95 17.5
Q 51.95 9.55 43.8 4.6 36.35 0.05 25.95 0 15.25 -0.05 8.05 4.75 0.05 10.05 -0.1 19.4 -1 21.7 -1 24.75 -1.05 26.5 -0.6 30.7 -0.25 34.35 -0.4 36.1 -0.85 40.85 -0.7 48.05
L -0.4 108.25
Q -0.4 112.4 -0.4 163.95 0.05 203.4 1.85 221.85 1.9 222.65 2 223.45 2 224.85 2.35 226.25 2.75 229.4 3.2 231.7 3.75 231.3 4.3 230.55 4.9 231.45 5.65 232.35 11.5 239.2 24.05 239.2 41.3 239.2 46.9 230.35 49.25 226.6 49.25 219.7 49.25 218.3 49 216.9 49.5 212 49.8 206.4 50.4 191.6 50.75 184.9
L 51.05 99.7
Q 51.05 69.7 50.75 55.6 51.75 41.15 51.75 33.6 51.75 28 50.85 23.6 51.95 19.7 51.95 17.5
M 43.45 20.3
Q 43.95 22.7 43.85 30.75 43.75 38.75 42.5 56.35 42.2 84.85 42.2 99.7
L 42.5 184.9 41.35 222.6
Q 40.7 226.25 37.5 228.05 37.3087890625 228.1572265625 37.1 228.25 34.1380859375 229.75390625 28.7 230.15 26.9126953125 230.3228515625 24.8 230.35 24.448046875 230.35 24.05 230.35 10.95 230.35 8.2 219.85 8 219.05 7.85 218.1 9.85 204 9.8 176 9.8 160.75 9.15 136.5 8.45 112.35 8.45 108.25
L 8.45 36.7
Q 8 34.35 8.25 30.65 8.65 26.5 8.7 24.5 8.75 22.05 8.25 20.05 9.55 14.3 13.8 11.95 17.278515625 9.9685546875 23.95 9.7 24.883203125 9.7 25.85 9.7 26.29453125 9.7 26.7 9.7 35.600390625 9.8341796875 38.7 12.6 41.15 14.75 43.45 20.3 Z"/>

<path fill="#FFFFFF" stroke="none" d="
M 43.85 30.75
Q 43.95 22.7 43.45 20.3 41.15 14.75 38.7 12.6 35.600390625 9.8341796875 26.7 9.7 26.29453125 9.7 25.85 9.7 24.883203125 9.7 23.95 9.7 17.278515625 9.9685546875 13.8 11.95 9.55 14.3 8.25 20.05 8.75 22.05 8.7 24.5 8.65 26.5 8.25 30.65 8 34.35 8.45 36.7
L 8.45 108.25
Q 8.45 112.35 9.15 136.5 9.8 160.75 9.8 176 9.85 204 7.85 218.1 8 219.05 8.2 219.85 10.95 230.35 24.05 230.35 24.448046875 230.35 24.8 230.35 26.9126953125 230.3228515625 28.7 230.15 34.1380859375 229.75390625 37.1 228.25 37.3087890625 228.1572265625 37.5 228.05 40.7 226.25 41.35 222.6
L 42.5 184.9 42.2 99.7
Q 42.2 84.85 42.5 56.35 43.75 38.75 43.85 30.75 Z"/>
</g>
</defs>

<g transform="matrix( 0.579864501953125, 0, 0, 0.579864501953125, 128.6,95.1) ">
<g transform="matrix( 0, 0.7999267578125, -0.8907318115234375, 0, 148.1,118) ">
<g transform="matrix( 1, 0, 0, 1, 0,0) ">
<use xlink:href="#Beam_03_0_Layer0_0_FILL"/>
</g>
</g>
</g>
</svg>
