
<svg xmlns="http://www.w3.org/2000/svg" version="1.1" xmlns:xlink="http://www.w3.org/1999/xlink" preserveAspectRatio="none" x="0px" y="0px" width="300px" height="300px" viewBox="0 0 300 300">
<defs>
<g id="Beam_03_1_Layer0_0_FILL">
<path fill="#00CCFF" stroke="none" d="
M 46.6 23.6
Q 47.5 19.7 47.5 17.5 47.5 9.55 40.7 4.6 34.5 0.05 25.85 0 16.9 -0.05 10.9 4.75 4.25 10.05 4.1 19.4 3.35 21.7 3.35 24.75 3.3 26.5 3.7 30.7 4 34.35 3.85 36.1 3.5 40.85 3.6 48.05
L 3.85 108.25
Q 3.85 112.4 3.85 163.95 4.25 203.4 5.75 221.85 5.75 222.65 5.85 223.45 5.85 224.85 6.15 226.25 6.5 229.4 6.85 231.7 7.3 231.3 7.75 230.55 8.25 231.45 8.9 232.35 13.8 239.2 24.25 239.2 38.65 239.2 43.3 230.35 45.25 226.6 45.25 219.7 45.25 218.3 45.05 216.9 45.45 212 45.7 206.4 46.2 191.6 46.5 184.9
L 46.75 99.7
Q 46.75 69.7 46.5 55.6 47.35 41.15 47.35 33.6 47.35 28 46.6 23.6
M 36.15 12.25
Q 36.18515625 12.312890625 36.2 12.35 36.258203125 12.3845703125 36.3 12.4 36.3193359375 12.444140625 36.35 12.45 36.3853515625 12.50859375 36.4 12.55 36.4318359375 12.58046875 36.45 12.6 38.5 14.75 40.45 20.3 40.85 22.7 40.75 30.75 40.7 38.75 39.65 56.35 39.4 84.85 39.4 99.7
L 39.65 184.9 38.7 222.6
Q 38.15 226.25 35.45 228.05 33.4568359375 229.3984375 29.95 229.95 27.47734375 230.35 24.25 230.35 23.53125 230.35 22.85 230.3 13.1490234375 229.6607421875 11 219.85 10.85 219.05 10.75 218.1 12.4 204 12.35 176 12.35 160.75 11.8 136.5 11.25 112.35 11.25 108.25
L 11.25 36.7
Q 10.85 34.35 11.05 30.65 11.4 26.5 11.45 24.5 11.4849609375 22.790234375 11.25 21.3 11.1859375 20.654296875 11.05 20.05 11.658203125 16.8712890625 13 14.7
L 13 14.7
Q 13.30078125 14.27265625 13.6 13.9
L 15.7 11.95
Q 19 9.7 25.75 9.7 26.9369140625 9.7 28 9.75 28.1564453125 9.783984375 28.3 9.8
L 36.15 12.25 Z"/>

<path fill="#FFFFFF" stroke="none" d="
M 36.2 12.35
Q 36.18515625 12.312890625 36.15 12.25
L 28.3 9.8
Q 28.1564453125 9.783984375 28 9.75 26.9369140625 9.7 25.75 9.7 19 9.7 15.7 11.95
L 13.6 13.9
Q 13.30078125 14.27265625 13 14.7
L 13 14.7
Q 11.658203125 16.8712890625 11.05 20.05 11.1859375 20.654296875 11.25 21.3 11.4849609375 22.790234375 11.45 24.5 11.4 26.5 11.05 30.65 10.85 34.35 11.25 36.7
L 11.25 108.25
Q 11.25 112.35 11.8 136.5 12.35 160.75 12.35 176 12.4 204 10.75 218.1 10.85 219.05 11 219.85 13.1490234375 229.6607421875 22.85 230.3 23.53125 230.35 24.25 230.35 27.47734375 230.35 29.95 229.95 33.4568359375 229.3984375 35.45 228.05 38.15 226.25 38.7 222.6
L 39.65 184.9 39.4 99.7
Q 39.4 84.85 39.65 56.35 40.7 38.75 40.75 30.75 40.85 22.7 40.45 20.3 38.5 14.75 36.45 12.6 36.4318359375 12.58046875 36.4 12.55 36.3853515625 12.50859375 36.35 12.45 36.3193359375 12.444140625 36.3 12.4 36.258203125 12.3845703125 36.2 12.35 Z"/>
</g>
</defs>

<g transform="matrix( 0.579864501953125, 0, 0, 0.579864501953125, 128.6,95.1) ">
<g transform="matrix( 0, 0.7999267578125, -0.8907318115234375, 0, 148.1,118) ">
<g transform="matrix( 1, 0, 0, 1, 0,0) ">
<use xlink:href="#Beam_03_1_Layer0_0_FILL"/>
</g>
</g>
</g>
</svg>
