
<svg xmlns="http://www.w3.org/2000/svg" version="1.1" xmlns:xlink="http://www.w3.org/1999/xlink" preserveAspectRatio="none" x="0px" y="0px" width="1000px" height="1000px" viewBox="0 0 1000 1000">
<defs>
<linearGradient id="Gradient_1" gradientUnits="userSpaceOnUse" x1="23.512500000000003" y1="202.575" x2="15.0875" y2="149.625" spreadMethod="pad">
<stop  offset="0%" stop-color="#FFFFFF"/>

<stop  offset="9.019607843137255%" stop-color="#FFBF20"/>

<stop  offset="29.019607843137255%" stop-color="#FF2020"/>

<stop  offset="100%" stop-color="#838383"/>
</linearGradient>

<linearGradient id="Gradient_2" gradientUnits="userSpaceOnUse" x1="46.4" y1="153.45" x2="46.4" y2="201.55" spreadMethod="pad">
<stop  offset="0.39215686274509803%" stop-color="#999999"/>

<stop  offset="100%" stop-color="#FFFFFF"/>
</linearGradient>

<linearGradient id="Gradient_3" gradientUnits="userSpaceOnUse" x1="74.55" y1="201.6625" x2="74.05" y2="145.3375" spreadMethod="pad">
<stop  offset="0%" stop-color="#FFFFFF"/>

<stop  offset="9.019607843137255%" stop-color="#FFBF20"/>

<stop  offset="29.019607843137255%" stop-color="#FF2020"/>

<stop  offset="100%" stop-color="#838383"/>
</linearGradient>

<linearGradient id="Gradient_4" gradientUnits="userSpaceOnUse" x1="45.8" y1="129.625" x2="45.8" y2="38.474999999999994" spreadMethod="pad">
<stop  offset="14.509803921568627%" stop-color="#2C2623"/>

<stop  offset="100%" stop-color="#79725F"/>
</linearGradient>

<linearGradient id="Gradient_5" gradientUnits="userSpaceOnUse" x1="17.45" y1="45.2" x2="23.650000000000002" y2="45.2" spreadMethod="pad">
<stop  offset="0%" stop-color="#999999"/>

<stop  offset="100%" stop-color="#D4D4D4"/>
</linearGradient>

<linearGradient id="Gradient_6" gradientUnits="userSpaceOnUse" x1="65.46249999999999" y1="44.25" x2="71.2375" y2="44.25" spreadMethod="pad">
<stop  offset="0%" stop-color="#999999"/>

<stop  offset="100%" stop-color="#D4D4D4"/>
</linearGradient>

<linearGradient id="Gradient_7" gradientUnits="userSpaceOnUse" x1="41.25" y1="37.1" x2="41.25" y2="57.9" spreadMethod="pad">
<stop  offset="0%" stop-color="#999999"/>

<stop  offset="100%" stop-color="#D4D4D4"/>
</linearGradient>

<linearGradient id="Gradient_8" gradientUnits="userSpaceOnUse" x1="43.1375" y1="44.95" x2="50.5625" y2="44.95" spreadMethod="pad">
<stop  offset="0%" stop-color="#999999"/>

<stop  offset="100%" stop-color="#D4D4D4"/>
</linearGradient>

<g id="cast_iron_copy_2_0_Layer2_0_FILL">
<path fill="#000000" stroke="none" d="
M 50.35 9
Q 48.75 8.3 47.4 8 46.85 7.85 46.55 7.85 46.1 7.8 45.8 7.85 45.75 7.85 45.7 7.85 45.4 7.85 45.15 7.85
L 44.25 8
Q 42.95 8.3 41.3 9 35.2 11.5 32.25 13.8 29.25 16.05 29.75 24.35 31.05 80.9 37.05 137.05 30.1 137.8 17.15 124.1 14 120.75 8.35 123.4 3.05 125.85 -2.8 132.65 -8.8 139.45 -13.1 148.15 -17.75 157.6 -19.1 166.4 -21.6 182.6 -9.3 205 -4.7 213.4 -0.25 218.35 4.15 223.3 6.85 222.85 9.5 222.4 15.95 217.9 22.3 213.4 29 211.6 30.7 211.15 37.7 210.85 44.75 210.5 43.4 210.9
L 47.25 225.95 50.55 210.25
Q 59.441796875 210.717578125 62.6 211.6 69.3 213.4 75.7 217.9 82.1 222.4 84.8 222.85 87.55 223.3 91.95 218.35 96.35 213.4 100.95 205 113.25 182.6 110.75 166.4 109.45 157.6 104.75 148.15 100.45 139.45 94.5 132.65 88.65 125.85 83.35 123.4 77.7 120.75 74.55 124.1 61.55 137.8 54.6 137.05 60.6 80.9 61.95 24.35 62.4 16.05 59.4 13.8 56.45 11.5 50.35 9
M 41.05 21.05
Q 42.15 20.4 45.25 20.4 45.45 20.4 45.7 20.4 45.8 20.4 46 20.4 46.25 20.4 46.45 20.4 49.55 20.4 50.6 21.05 55.15 23.7 54.35 34.25 53.55 44.8 50.85 93.35 49 134.5 49.85 140.05
L 45.7 140.05 41.8 140.05
Q 42.65 134.5 40.85 93.35 38.05 44.8 37.3 34.25 36.5 23.7 41.05 21.05
M 68.75 140.3
Q 75.1365234375 134.9236328125 79.2 134.5 81.384765625 134.330859375 82.9 135.55 87.3 139.05 92.2 145.55 97.15 151.95 98.85 158.05 100.7 164.1 101.25 169.65 103.7 192.85 88.2 209.55 86.730859375 208.2505859375 85.2 207.1 75.167578125 199.6849609375 63.3 200.25 56.9208984375 200.5759765625 54.55 198.6 54.821484375 173.525 54.05 148.9 58.85 148.55 68.75 140.3
M 45.9 147
L 46.75 147
Q 51.4927734375 146.1431640625 51.95 158.2 52.4046875 170.25703125 52.95 179.75 53.487890625 189.2923828125 52.65 196.4 51.8044921875 203.50078125 46.35 205.5 40.63828125 205.7525390625 40.3 192.75 40.0048828125 179.7919921875 40.15 171.2 40.34765625 162.60859375 40.8 154.95 41.3025390625 147.341015625 45.9 147
M 13.7 134.75
Q 17.4728515625 135.7125 22.95 140.3 32.85 148.55 38.3 148.95 38.0134765625 176.3955078125 39 200.1 32.95 200.5 28.4 200.25 15.201953125 199.623828125 4.25 208.8 3.862109375 209.185546875 3.45 209.55 -12.05 192.85 -9.6 169.65 -9 164.1 -7.25 158.05 -5.45 151.95 -0.55 145.55 4.35 139.05 8.75 135.55 10.6810546875 133.9962890625 13.7 134.75 Z"/>

<path fill="#FFFFFF" stroke="none" d="
M 13.7 134.75
Q 10.6810546875 133.9962890625 8.75 135.55 4.35 139.05 -0.55 145.55 -5.45 151.95 -7.25 158.05 -9 164.1 -9.6 169.65 -12.05 192.85 3.45 209.55 3.862109375 209.185546875 4.25 208.8 -12.891796875 173.226953125 13.7 134.75
M 40.15 171.2
Q 40.0048828125 179.7919921875 40.3 192.75 40.63828125 205.7525390625 46.35 205.5 44.55 196.85 43.9 187.9 43.25 179.25 43.7 170.55 44.1 162 45.1 153.45 45.45 150.2 45.9 147 41.3025390625 147.341015625 40.8 154.95 40.34765625 162.60859375 40.15 171.2
M 92.2 145.55
Q 87.3 139.05 82.9 135.55 81.384765625 134.330859375 79.2 134.5 106.10703125 172.287890625 85.2 207.1 86.730859375 208.2505859375 88.2 209.55 103.7 192.85 101.25 169.65 100.7 164.1 98.85 158.05 97.15 151.95 92.2 145.55 Z"/>

<path fill="url(#Gradient_1)" stroke="none" d="
M 22.95 140.3
Q 17.4728515625 135.7125 13.7 134.75 -12.891796875 173.226953125 4.25 208.8 15.201953125 199.623828125 28.4 200.25 32.95 200.5 39 200.1 38.0134765625 176.3955078125 38.3 148.95 32.85 148.55 22.95 140.3 Z"/>

<path fill="url(#Gradient_2)" stroke="none" d="
M 46.75 147
L 45.9 147
Q 45.45 150.2 45.1 153.45 44.1 162 43.7 170.55 43.25 179.25 43.9 187.9 44.55 196.85 46.35 205.5 51.8044921875 203.50078125 52.65 196.4 53.487890625 189.2923828125 52.95 179.75 52.4046875 170.25703125 51.95 158.2 51.4927734375 146.1431640625 46.75 147 Z"/>

<path fill="url(#Gradient_3)" stroke="none" d="
M 79.2 134.5
Q 75.1365234375 134.9236328125 68.75 140.3 58.85 148.55 54.05 148.9 54.821484375 173.525 54.55 198.6 56.9208984375 200.5759765625 63.3 200.25 75.167578125 199.6849609375 85.2 207.1 106.10703125 172.287890625 79.2 134.5 Z"/>

<path fill="url(#Gradient_4)" stroke="none" d="
M 45.25 20.4
Q 42.15 20.4 41.05 21.05 36.5 23.7 37.3 34.25 38.05 44.8 40.85 93.35 42.65 134.5 41.8 140.05
L 45.7 140.05 49.85 140.05
Q 49 134.5 50.85 93.35 53.55 44.8 54.35 34.25 55.15 23.7 50.6 21.05 49.55 20.4 46.45 20.4 46.25 20.4 46 20.4 45.8 20.4 45.7 20.4 45.45 20.4 45.25 20.4 Z"/>
</g>

<g id="cast_iron_copy_2_0_Layer1_0_FILL">
<path fill="#000000" stroke="none" d="
M -9.5 175.25
Q -13.4 175.15 -16 177.9 -17.5 179.45 -13.35 181.1 -9.25 182.75 -7.6 181.15 -5.2 178.85 -4 176 -4.05 175.85 -6.45 175.55 -8.75 175.25 -9.5 175.25
M 96.75 201.75
Q 94.95 201.9 93.25 202.1 90 202.5 89.15 203.1 91.15 205.7 94.2 206.7 95.25 207.05 96.25 204.55 97.3 202.05 96.75 201.75
M 103.5 157.6
Q 102.75 155.55 101.9 156.55 99.9 158.9 96.95 159.95 96.7 159.9 88.35 155.4 88.25 155.4 87.4 156.25 86.45 157.2 86.35 157.65 86.2 158.75 87.05 158.8 87 157.05 88.1 157.8 89.4 158.65 97.55 162.45 101.6 161.25 103.15 160.25 104.2 159.6 103.5 157.6
M 61.95 179.75
Q 63.8 182.6 65.65 185.55 65.2 186.55 64.5 187.9 63.35 190.15 62.6 190.9 61.1 192.4 60.7 194.1 62.65 194.75 67.05 197.85 62.1439453125 200.69296875 60.5 205.55 62.45 205.9 70.3 201.75 75.8 198.8 80.75 195.65 80.15 189.25 79.4 188.2 79.2 188.15 79.15 190.65 79.15 191.95 79.2 193.75 77.3 194.2 73.25 195.45 69.6 196.6 69 196.85 65.6 193.65 64.5 192.4 68.4537109375 186.49609375 66.65 184.35
L 57.7 173.35
Q 59.95 176.6 61.95 179.75
M 3.05 186.5
Q 2.75 186.45 0.3 190.95 -1.95 195.15 -2.65 196.8 -1.9 198 0.6 202.55 3 206.95 3.65 208.25 3.05 209.4 2.3 210.5 1.8 211.25 4.45 209.6 7 208 7.1 207.1 6.35 206.3 3.45 201.6 0.25 196.45 -0.35 195.65 3.5 188.05 3.05 186.5
M 36.1 191.25
Q 40.0078125 187.9853515625 39.5 186.85
L 23.85 198.1 23.6 203.25
Q 23.55 204 24.95 204.3 26.3 204.55 26.35 203.85
L 26.15 198.7
Q 32.2421875 194.5146484375 36.1 191.25 Z"/>
</g>

<g id="cast_iron_copy_2_0_Layer0_0_FILL">
<path fill="#000000" stroke="none" d="
M 72 47.2
Q 73.8 44 73.3 42.5 73.05 41.6 71.35 40.1 69.7 38.65 69.1 38.55 68.5 33.7 67.25 28.6
L 24.95 28.6
Q 23.05 33.55 22.3 38.55 21.5 38.45 19.4 39.4 17.35 40.35 16.9 40.95 15.75 42.45 15.5 44.55 15.3 46.65 16 48.5 16.7 50.35 18.25 51.45 19.75 52.6 21.5 52.6 21.8 52.6 24.95 61.95
L 67.25 61.95
Q 68.9 56.45 69.4 50.45 70.3 50.25 72 47.2
M 47.85 31.55
L 58.95 31.55
Q 65.5 43.3 58.95 59
L 45.4 59 36.35 59 32.4 59
Q 24.25 45.3 32.4 31.55
L 37.6 31.55 47.85 31.55
M 65.5 44.9
Q 65.4 41.25 68.35 40.85 74.1 44 68.6 47.15 65.6 48.9 65.5 44.9
M 17.8 44.45
Q 18.5 42.85 19.9 42.15 20.45 41.85 21.05 41.7 25.4 43.15 22.6 47.05 19.95 50.7 17.85 46.35 17.65 45.9 17.45 45.4 17.65 44.9 17.8 44.45
M 49.2 38.8
Q 48.65 38.5 48.1 38.4 47.2 38.2 46.3 38.3 44.3 38.55 42.75 40.3 41.25 42.05 40.95 44.4 40.7 46.25 41.25 48.1 41.9 49.95 43.15 51.15 44.7 52.65 46.8 52.7 48.95 52.75 50.55 51.35 52.2 49.95 52.8 47.55 53.4 45.1 52.7 42.9 51.95 40.7 50.15 39.35 50 39.25 49.9 39.2 49.5 38.95 49.2 38.8
M 43.25 46.15
Q 42.65 41.25 46.9 40.55 54.05 44.2 47.4 48.6 43.9 50.95 43.25 46.15 Z"/>

<path fill="url(#Gradient_5)" stroke="none" d="
M 19.9 42.15
Q 18.5 42.85 17.8 44.45 17.65 44.9 17.45 45.4 17.65 45.9 17.85 46.35 19.95 50.7 22.6 47.05 25.4 43.15 21.05 41.7 20.45 41.85 19.9 42.15 Z"/>

<path fill="url(#Gradient_6)" stroke="none" d="
M 68.35 40.85
Q 65.4 41.25 65.5 44.9 65.6 48.9 68.6 47.15 74.1 44 68.35 40.85 Z"/>

<path fill="#FFFFFF" stroke="none" d="
M 35.35 40.5
Q 36.4 35.95 37.6 31.55
L 32.4 31.55
Q 24.25 45.3 32.4 59
L 36.35 59
Q 36.05 58.15 35.8 57.25 33.35 49.1 35.35 40.5 Z"/>

<path fill="url(#Gradient_7)" stroke="none" d="
M 46.3 38.3
Q 47.2 38.2 48.1 38.4 48.1 35 47.85 31.55
L 37.6 31.55
Q 36.4 35.95 35.35 40.5 33.35 49.1 35.8 57.25 36.05 58.15 36.35 59
L 45.4 59
Q 46.2 55.85 46.8 52.7 44.7 52.65 43.15 51.15 41.9 49.95 41.25 48.1 40.7 46.25 40.95 44.4 41.25 42.05 42.75 40.3 44.3 38.55 46.3 38.3 Z"/>

<path fill="url(#Gradient_8)" stroke="none" d="
M 46.9 40.55
Q 42.65 41.25 43.25 46.15 43.9 50.95 47.4 48.6 54.05 44.2 46.9 40.55 Z"/>

<path fill="#666666" stroke="none" d="
M 48.1 38.4
Q 48.65 38.5 49.2 38.8 49.5 38.95 49.9 39.2 50 39.25 50.15 39.35 51.95 40.7 52.7 42.9 53.4 45.1 52.8 47.55 52.2 49.95 50.55 51.35 48.95 52.75 46.8 52.7 46.2 55.85 45.4 59
L 58.95 59
Q 65.5 43.3 58.95 31.55
L 47.85 31.55
Q 48.1 35 48.1 38.4 Z"/>
</g>
</defs>

<g transform="matrix( 0.774139404296875, 0, 0, 0.774139404296875, 467.2,334) ">
<g transform="matrix( 1, 0, 0, 1, 0,0) ">
<use xlink:href="#cast_iron_copy_2_0_Layer2_0_FILL"/>
</g>

<g transform="matrix( 1, 0, 0, 1, 0,0) ">
<use xlink:href="#cast_iron_copy_2_0_Layer1_0_FILL"/>
</g>

<g transform="matrix( 1, 0, 0, 1, 0,0) ">
<use xlink:href="#cast_iron_copy_2_0_Layer0_0_FILL"/>
</g>
</g>
</svg>
