
<svg xmlns="http://www.w3.org/2000/svg" version="1.1" xmlns:xlink="http://www.w3.org/1999/xlink" preserveAspectRatio="none" x="0px" y="0px" width="1000px" height="1000px" viewBox="0 0 1000 1000">
<defs>
<g id="impact_1_Layer0_0_FILL">
<path fill="#000000" stroke="none" d="
M 321.45 15.05
Q 321.033984375 14.9494140625 320.6 14.85
L 317.2 14.85
Q 321.575390625 15.5203125 321.45 15.05
M 254.4 340.8
Q 254.3525390625 341.93984375 256.8 345.3 256.962109375 345.466796875 257.1 345.65 260.25 349.9 260.4 350.25 261.1 351.55 261.65 365.85 262.45 365.05 264.1 359.4 265.75 353.6 265.85 350.85 265.9 350.05 263.6 344.2 263.5345703125 344.0333984375 263.45 343.85 261.4029296875 338.5984375 261.5 338.55 264 337.3 268.5 331.5 272.85 326 272.5 325.2 272.1 324.45 263.25 332.2 254.45 339.95 254.4 340.8
M 247.9 280.95
Q 250.35 281.95 258.85 281.2 268.2 280.3 270.75 277.65 272.15 281 274.95 283.5 277.75 285.9 281.25 286.9 280.85 289.1 277.8 292.85 274.9 296.45 274.7 298.85 274.6 300.15 277.65 310.5 279.68203125 317.3580078125 281.3 322 282.2787109375 324.6654296875 283.1 326.6 283.4 327.2 287.95 328.5 290.058984375 329.0904296875 293.6 330 294.28828125 330.2123046875 295 330.4 302.45 347.35 303.45 346.8 304.5 346.25 301.3 337.3 298.18046875 328.4861328125 296.9 327.6
L 296.9 327.6
Q 295.4 326.55 292.35 326.65 288.55 326.7 287.5 326.45 285.35 320.35 282.45 310.5 279.5 300.3 279.7 299.45 279.9 298.7 282.35 294.8 284.9 290.9 285.05 290.6 285.15 290.7 285.25 290.75 286.4 291.5 288.9 292.25 291.6 293.05 292.7 293.7 293.1 293.95 304.25 306.45 308.54765625 311.282421875 311.4 314.25 315.7337890625 318.8083984375 316.7 319.05 317.1791015625 317.9322265625 313.75 311.55 311.79765625 307.9751953125 308.6 302.7 300.15 288.75 298.7 287.6 297.75 286.9 292.8 286.1 287.85 285.3 286.5 285.65 286.45 285.45 276.9 276.4 267.25 267.2 266.6 266.9 265.3 266.15 248.2 271.2 260.7 271.55 265.4 270.05 265.45 270.45 266.55 272.3 267.5 273.95 267.25 274.45 266.2 276.3 257.45 278.6 248.6 280.65 247.9 280.95
M 149.5 258.25
Q 161.1 266.65 161.85 267.05 162.8255859375 267.5376953125 168.1 264.25 169.3505859375 263.50390625 170.8 262.55 178.45 257.25 178.85 257.05 179.35 256.7 200.45 255.3 206.55 265.7 206.75 265.9 207.35 267.15 211.25 270.3 215 273.35 215.55 273.35 208.7 283.6 207.25 286.65 206.85 287.4 207.65 305.25 208.5 323.3 209.4 322.85 210.3 322.4 217.3 315 224.25 307.75 224.45 307.15 228.2 285.45 228.9 284.9 231.75 284.05 234.5 283.2 239.9 281.5 240.35 280.3 240.1 279.95 233.45 279.35 226.9 278.75 226.65 278.3 226.1 277.3 223.1 273.7 220.4 270.4 220.5 270.3 222.4 267.9 227 254.65 224.9 256.55 224.75 256.65 224.2 257 219.85 262.85 215.6 268.6 215.4 268.65 210 261.7 210.2 260.85 210.3 260.3 217.65 255.75 215.9 256.35 211.4 256.25 206.55 256.15 206.05 255.1 205.05 252.95 204.8 251.9 204.3 250.15 206.5 245.35 207.65 242.95 208.9 240.65 200.05 248.3 199.8 249.35 199.75 249.35 199.65 249.3 198.65 248.95 188.45 248.9 178.15 248.9 177.05 249.3 175.9 249.7 169.75 256.25 163.6 262.8 162.75 263.05 158.3 260.75 155.05 259.15 148.9 256.1 147.95 256.2 147.75 256.45 147.85 256.85 147.9 257.25 148.2 257.5 148.6 257.85 149.5 258.25
M 219.85 276.1
Q 220.7 276.35 222.7 281.9 224.75 287.55 224.4 289.25 221.3 304.8 219.9 306.9 218.6 309 214.8 311.95 210.95 315 209.65 316.95 209.4 311.6 209.8 298.65 210.2 286.5 210.45 285.8 210.9 284.65 215 280.35 219.15 275.9 219.85 276.1
M 106.4 292.1
Q 103.7 275.8 103.1 275.85 102.2677734375 275.880859375 101.5 283.05 101.0412109375 287.5189453125 100.6 294.75 99.4 313.75 100.65 315.4 101.25 316.15 110.9 322.15 121.05 328.5 123.85 331.25 123.8 334 129.2 347.05 133.0373046875 356.2150390625 141.1 364.55
L 141.15 364.5
Q 142.5 365.3 146.1 367 151.35 369.4 161.5 373.8 166.3150390625 375.9400390625 172.25 378.45 172.146484375 378.783984375 159.05 401.2 175.42734375 379.8556640625 176 380.1 206.8 393.4 209.45 393.9 209.6529296875 393.932421875 209.85 393.95 211.3435546875 396.8609375 213.85 401.35 220.55 413.3 220.85 413.1 221.05 413 217.8 404.05 215.3318359375 397.20625 213.85 393.6 214.95 393.35 219.1 391.7 223.3 390 225.05 389.1 225.301953125 388.9806640625 225.55 388.85 234.55 384.15 236.1 382.55 236.65 381.95 236.85 377.3 237.05 373.4 236.95 372.35 236.901953125 371.551171875 234.45 367.45
L 232.65 373
Q 230.8 378.85 230.55 379 229.15 379.95 222.55 383.65 215.85 387.35 214.8 387.75 214.069140625 388 213.7 388 212.0392578125 388 206.2 386 200.7 384.15 145.2 359.9 144.65 359.55 137.2 344.45 130.2 330.25 128.2 325.75 133.25 321.1 134.25 321.15 143.1 321.75 144.2 321.2 145.7 320.55 148.35 314.6 149.75 311.5 151.65 307.1
L 151.7 307.1
Q 153.9 309.6 156.25 312.15 159.05 315.15 162 318.2 172.85 329.8 176 332 178.85 334 191.6 336.2 193.2109375 336.47265625 194.6 336.7 198.177734375 337.243359375 200.55 337.45 200.193359375 337.8458984375 199.8 338.25 199.49453125 338.5640625 199.2 338.85 192.7392578125 345.55625 192.5 346.8 192.35 347.6 193.3 357.65 193.3 357.85 193.35 358.05 194.3 367.75 194.6 367.65 194.85 367.6 195.7 358.05 195.7 357.6 195.75 357.1 196.65 346.45 196.75 346.3 197.0427734375 345.616796875 201.8 339.95 201.93046875 339.841015625 202.05 339.7 202.9919921875 338.5951171875 203.8 337.6 205.114453125 337.5708984375 205.45 337.25 205.31640625 337.0630859375 204.5 336.7 207.5697265625 333.0005859375 208.45 331.35 207.2998046875 330.8982421875 202.2 335.85 199.7361328125 334.9939453125 195.4 333.7 185.2 330.65 182.45 328.7 180.15 327.1 169.9 316.15 159.8 305.35 159.7 305.25 159.6 305.2 162.5 298.05 165.5 290.8 165.55 290.6 165.65 289.55 165.55 286 165.55 281.75 165.2 281.55 165.55 281.1 168.55 276.15 171.7 271.05 173.45 269.8 173.4875 269.65 172 270.55 169.573828125 272.02578125 162.95 276.4 162.9 276.45 162.85 276.5 152.1 283.5 152.05 283.55 150.35 268.45 149.3 268.35 148.5951171875 279.8416015625 148.2 286.7 147.6712890625 295.8908203125 147.7 296.75 147.85 299.95 149.45 302.6 149.6 302.8 146.05 308.7 142.55 314.45 142.2 314.85 142 315.1 135.25 316 128.4 316.95 127.6 317.6 126.3 318.75 125 321.55 124.6416015625 321.1916015625 119.85 317.6 109.3 309.15 109.05 308.6 107.75 300.25 106.4 292.1
M 152.75 289.95
Q 159.1 286.6 161.2 285.4 162 284.9 162.2 284.75 162.15 285.15 160.35 289.85 159.75 291.45 158.95 293.6 156.6408203125 299.477734375 155.8 301.25 155.475 302.0349609375 155.4 302.05 154.5857421875 301.31328125 153.85 298.05 153.651953125 297.1447265625 153.45 296 152.65 291.75 152.75 289.95
M 121.5 176.2
Q 122.3958984375 174.876171875 123.15 173.75 115.4751953125 182.8119140625 107.6 191.2 102.630859375 196.49453125 97.55 201.5 97.8849609375 207.68984375 97.95 218.45 97.9845703125 224.3556640625 98 229.2 98.2068359375 251.264453125 98.5 252.05 98.526953125 252.111328125 98.55 252.05 100 248.15 100.5 228.5 100.95 228.45 109.3 224.75 117.7 221 117.75 220.75 117.8 220.45 104.95 210.15 106.55 207.65 107.9 205.6 110.5 201.55 110.9 200.65 111.55 199.25 114.7 187.95 115.5 185.1 121.5 176.2
M 108.3 222.5
Q 107.525 222.575390625 106.75 222.65 103.8712890625 222.925390625 100.85 223.2 101.5 217 103.25 213.25
L 103.25 213.2
Q 104.318359375 213.9369140625 108.1 216.2 109.489453125 217 111.2 218 116 220.75 115.95 221.35 115.5 221.8 108.3 222.5
M 266.15 105.9
Q 266.2033203125 105.9021484375 266.3 105.9 258.1205078125 103.2884765625 256.95 103.65 256.1 104 250.15 107.15 244.05 110.35 243.6 110.8 242.2 112.25 242.45 120.95 242.75 129.25 243.35 129.3 244.35 127.4 246.7 120.7 248.85 114.6 249.05 114.45 250.9 113.35 258.05 109.75 265.6 105.9 266.15 105.9
M 195.7 165.15
Q 199.5 165.1 200.55 165.35 201.65 168.45 205.05 180.15 208.45 191.95 208.35 192.35 208.15 193.1 205.7 197 203.15 200.9 203 201.2 202.9 201.1 202.8 201.05 201.65 200.3 199.15 199.55 196.45 198.75 195.35 198.1 195.3 198.1 183.45 185.4 171.65 172.8 171.35 172.75 171.2 173.1 172.7 176.6 174 179.7 174.8 181.1 176.1 183.4 182.2 193.2 188.7 203.7 189.35 204.2 190.3 204.9 195.25 205.7 200.2 206.5 201.55 206.15 201.6 206.35 211.15 215.4 220.8 224.6 221.45 224.9 222.5775390625 225.5373046875 235.65 221.8 235.9 221.15 230.25 221.15 224.6 221.1 222.65 221.75 222.6 221.35 221.5 219.5 220.55 217.85 220.8 217.35 221.25 216.6 230.6 213.7 235.3 212.25 240.15 210.85 237.7 209.85 229.2 210.6 219.85 211.5 217.3 214.15 215.9 210.8 213.1 208.3 210.3 205.9 206.8 204.9 207.2 202.7 210.25 198.95 213.15 195.35 213.35 192.95 213.4 192.3 210.15 181.3 206.95 170.35 206 167.8 205.65 166.85 193.05 161.4 185.6 144.45 184.6 145 183.55 145.55 186.75 154.5 189.630078125 162.6373046875 190.9 164 191.04296875 164.1314453125 191.15 164.2 192.65 165.25 195.7 165.15
M 213.2 141.95
Q 213.15 142.3 215.25 147.95 216.65 151.85 217.45 153.95
L 217.55 154.25
Q 215.05 155.5 210.55 161.3 206.2 166.8 206.55 167.6 206.95 168.35 215.8 160.6 222.4560546875 154.73828125 224.1 152.8 224.637890625 152.20703125 224.65 152 224.7 150.8 221.95 147.15 218.8 142.9 218.65 142.55 217.95 141.25 217.4 126.95 216.6 127.75 214.95 133.4 213.3 139.2 213.2 141.95
M 213.3 105.2
Q 212.9 105 207.8 102.75 202.4 100.4 202 100.35 201.134375 100.3052734375 166.05 119.6 150.527734375 110.50546875 134.6 91.5 146.2701171875 116.4595703125 156.05 124.1 145.2048828125 136.1869140625 134.55 147.6 126.4 156.35 123.3 160.4 127.191796875 156.7609375 131.65 152.75 146.71328125 139.4529296875 168.4 122.35 171.65 124.45 173.5 127.05 173.95 119.2 174.9 118.8 175.05 118.75 190.9 111.3 205.65 104.35 206.1 104.6 228.9 116.2 229.8 116.35 225.777734375 112.83359375 221.55 110 217.528125 107.2970703125 213.3 105.2
M 324.65 368.3
Q 326.8 365.25 335.95 354.95 340.55 349.75 344.95 344.85 343.52578125 346.3259765625 342.05 347.8 326.1 363.75 272.2 389.25 270.691796875 388.586328125 268.9 387.25 261.5 381.25 260.85 380.75 260.2 380.3 254.6 378.9 251.6 378.15 248.45 377.45 255.8640625 383.976171875 264 388.1 265.0130859375 388.6625 266.05 389.15 268.5 390.3 272.4 391.9 276.1 393.4 276.3 393.4 276.5 393.4 292.2 385.3 309.8 376.2 324.65 368.3
M 333.85 234.3
Q 333.45 233.95 332.55 233.55 332.1 233.35 326.75 229.4 326.390234375 229.130078125 326.05 228.85 321.2734375 225.3099609375 320.2 224.75 319 224.15 311.25 229.25 303.6 234.55 303.2 234.75 302.7 235.1 281.6 236.5 275.5 226.1 275.3 225.9 274.7 224.65 270.8 221.5 267.05 218.45 266.5 218.45 273.35 208.2 274.8 205.15 275.2 204.4 274.4 186.55 273.55 168.5 272.65 168.95 271.75 169.4 264.75 176.8 257.8 184.05 257.6 184.65 253.85 206.35 253.15 206.9 250.3 207.75 247.55 208.6 242.15 210.3 241.7 211.5 241.95 211.85 248.6 212.45 255.15 213.05 255.4 213.5 255.95 214.5 258.95 218.1 261.65 221.4 261.55 221.5 258.95 224.75 254.25 232 253.95 231.95 253.65 231.95 243.65 233.9 241.2 235.6 240.45 236.1 236.65 234.15 233 232.25 231.9 231.05 232.45 230.35 235.1 223.45 230.807421875 230.409765625 230.05 230.9 229.7 231.1 232.95 238.05 234.6 241.5 236.3 245 236.45 246.25 236.7 247.3 236.1 247.45 230.65 250.35 225.15 253.25 225.35 253.5 225.7392578125 253.29921875 226.35 253.1 226.44765625 253.0736328125 226.5 253.05 238.3 250.65 238.5 250.6 238.8 250.9 247.65 251 256.55 251.05 256.9 250.5 257.1 250.2 257.25 247.3 257.35 244.65 257.3 243.05 257.75 243.2 264.3 239.9 269.9 237.05 274.45 234.5 274.85 234.35 276 236.7 277 238.85 277.25 239.9 277.75 241.65 275.55 246.45 274.4 248.85 273.15 251.15 282 243.5 282.25 242.45 282.3 242.45 282.4 242.5 283.4 242.85 293.6 242.9 303.9 242.9 305 242.5 306.15 242.1 312.3 235.55 318.45 229 319.3 228.75
L 330.15 233.95
Q 330.85 234.25 332.05 235.1 333.2 235.7 334.1 235.6 334.3 235.35 334.2 234.95 334.15 234.55 333.85 234.3
M 267.25 179.85
Q 271.1 176.8 272.4 174.85 272.65 180.2 272.25 193.15 271.85 205.3 271.6 206 271.15 207.15 267.05 211.45 262.9 215.9 262.2 215.7 261.35 215.45 259.35 209.9 257.3 204.25 257.65 202.55 260.75 187 262.15 184.9 263.45 182.8 267.25 179.85
M 257.2 240.5
Q 257 237.95 256.65 235.5 257 235.35 257.3 235.15 257.85 234.8 262.2 228.95 266.45 223.2 266.65 223.15 272.05 230.1 271.85 230.95 271.7 231.7 257.2 240.5
M 247.45 236.7
L 247.55 236.65
Q 250.05 235.35 252.7 235.85 252.4 236.8 252.85 241.65 253.3 246.7 254.05 248.85 253.8 248.8 251.55 248.9 249.55 248.95 249.2 248.65 248.9 248.5 247.45 236.7
M 245.7 248.4
Q 245.15 248.3 243.3 248.55 241.75 248.7 241 248.25 240.95 248.2 240.9 248.15 239.1 245 239.05 243.95 239.6 243.6 244.25 239.55 244.3 240 245.7 248.4
M 384.1 246.55
Q 380.8455078125 239.8431640625 380.5 240.75 379.05 244.65 378.5 264.3 377.4 264.4 369.4 267.95 361.35 271.5 361.3 272.05 361.25 272.5 367.35 277.45 373.15 282.15 374.1 282.65 372.75 284.75 371.05 287.9 368.8 292 368.95 292.6 369.3900390625 293.9330078125 370.5 301.6 371.6599609375 309.3169921875 361.8 317.05 357.5 320.45 355 323 352.9 325.05 353.35 324.95 354.65 324.7 361.9 320.2 369.1 315.65 369.7 314.75 372.7 310.45 379.45 295.65 386.15 281.05 387.7 275.65 388.7 272.1 389.45 259.6 389.55 257.95 385.2 248.85 384.613671875 247.6025390625 384.1 246.55
M 370.75 270.3
Q 374.35 269.95 378.2 269.55 377.5494140625 275.8099609375 375.8 279.55
L 375.75 279.6
Q 374.35 278.6 367.85 274.8 363.05 272.05 363.1 271.45 363.55 271 370.75 270.3
M 368.4 236.05
Q 378.95 232.8 378.9 232.05 378.85 231.25 371.75 230.3 364.75 229.35 364 229.75 363.05 230.25 360.25 234.25 357.45 238.3 357.7 238.85 357.9 239.25 368.4 236.05
M 333.9 135.8
Q 334.15 135.95 337.3 142.25 340.75 149.05 342.75 153.6 346.5 162 350 170.35 344.75 174.9 343.8 174.8 335 174 333.85 174.45 332.35 175.15 329.55 181 328.1 184.05 326.05 188.4
L 326 188.4
Q 321.3 182.9 316 177 305.45 165.15 302.4 162.85 299.6 160.8 286.85 158.25 283.75 157.6 281.2 156.35 278.7 155.1 279.25 154.55 286.3 147.3 286.55 146 286.7 145.2 285.75 135.15 284.75 125.05 284.45 125.15 284.2 125.2 283.3 135.7 282.4 146.35 282.3 146.5 282.1 146.95 273.1 156.85 273.15 156.95 273.2 157.3 273.2 157.7 273.1 157.8 271.2560546875 160.2197265625 270.6 161.45 270.7607421875 161.5130859375 271 161.45 271.137109375 161.454296875 271.3 161.4 272.4984375 160.953515625 275.1 158.6 275.2 158.5 277.9 159.2 280.6 159.9 283 160.65 293.1 163.95 295.85 165.95 298.1 167.65 308.1 178.9 317.9 189.95 318 190
L 311.75 204.6
Q 311.65 205.55 311.6 209.15 311.5 213.4 311.8 213.65 311.45 214.05 308.4 218.9 305.1 223.9 303.25 225.1 303.21875 225.3498046875 307.4 222.8 309.915625 221.314453125 313.95 218.8 324.95 211.95 325 211.95 326.35 227.05 327.35 227.15 328.1978515625 217.6828125 328.75 211.35 329.732421875 199.8376953125 329.7 198.9 329.65 195.7 328.1 192.95 328 192.75 331.65 186.95 335.35 181.25 335.75 180.85 335.95 180.65 342.65 179.95 349.5 179.2 350.3 178.55 351.65 177.4 353.05 174.6 353.5 175.1 360.8 180.85 368.1 186.75 368.65 188 368.95 188.75 370.6 205.05 372.4 220.95 373.75 220.9 374.6 220.9 376.9 200.15 372.2880859375 183.5162109375 380.95 177.85 384.5388671875 175.5283203125 387.5 174.25 368.4 175.15 367.2 174.4 365.4 173.2 360.95 170 355.4 166 354.45 165 354.5 164.1 350.05 151.5 345.8 139.55 344.85 137.5 337.45 132.3 298.25 117.45 277.275390625 109.4998046875 266.9 106.1 271.338671875 107.7005859375 300.25 120.55 332.6 135 333.9 135.8
M 324.35 202.35
Q 324.561328125 204.3958984375 324.5 205.5 315.7 209.9 314.95 210.45 315 209.9 318.4 201.65 319.8078125 198.3583984375 320.65 196.35 322.0095703125 193.330078125 322.1 193.3 323.2 194.35 323.95 199.45 324.2013671875 201.09296875 324.35 202.35
M 107.3 262.5
Q 114.3 263.45 115.05 263.05 116 262.55 118.8 258.55 121.6 254.5 121.35 253.95 121.15 253.55 110.65 256.75 106.72578125 257.9587890625 104.25 258.8 100.1185546875 260.27890625 100.15 260.75 100.188671875 261.369140625 104.45 262.05 105.6953125 262.2853515625 107.3 262.5
M 137.8 176.85
Q 131.45 172.05 131.2 172 131.05 172.4 134.5 176.95 138 181.55 138.25 181 138.45 180.5 138.25 178.85 138.05 177.3 137.8 176.85 Z"/>

<path fill="#483828" stroke="none" d="
M 247.9 280.95
Q 248.6 280.65 257.45 278.6 266.2 276.3 267.25 274.45 267.5 273.95 266.55 272.3 265.45 270.45 265.4 270.05 260.7 271.55 248.2 271.2
L 247.9 280.95
M 255.4 213.5
Q 255.15 213.05 248.6 212.45 241.95 211.85 241.7 211.5
L 240.15 210.85
Q 235.3 212.25 230.6 213.7 221.25 216.6 220.8 217.35 220.55 217.85 221.5 219.5 222.6 221.35 222.65 221.75 224.6 221.1 230.25 221.15 235.9 221.15 235.65 221.8 235.9333984375 221.7265625 236.2 221.65 235.6232421875 222.596875 235.1 223.45 232.45 230.35 231.9 231.05 233 232.25 236.65 234.15 240.45 236.1 241.2 235.6 243.65 233.9 253.65 231.95 253.95 231.95 254.25 232 258.95 224.75 261.55 221.5 261.65 221.4 258.95 218.1 255.95 214.5 255.4 213.5
M 222.7 281.9
Q 220.7 276.35 219.85 276.1 219.15 275.9 215 280.35 210.9 284.65 210.45 285.8 210.2 286.5 209.8 298.65 209.4 311.6 209.65 316.95 210.95 315 214.8 311.95 218.6 309 219.9 306.9 221.3 304.8 224.4 289.25 224.75 287.55 222.7 281.9
M 161.2 285.4
Q 159.1 286.6 152.75 289.95 152.65 291.75 153.45 296 153.651953125 297.1447265625 153.85 298.05 154.5857421875 301.31328125 155.4 302.05 155.475 302.0349609375 155.8 301.25 156.6408203125 299.477734375 158.95 293.6 159.75 291.45 160.35 289.85 162.15 285.15 162.2 284.75 162 284.9 161.2 285.4
M 106.75 222.65
Q 107.525 222.575390625 108.3 222.5 115.5 221.8 115.95 221.35 116 220.75 111.2 218 109.489453125 217 108.1 216.2 104.318359375 213.9369140625 103.25 213.2
L 103.25 213.25
Q 101.5 217 100.85 223.2 103.8712890625 222.925390625 106.75 222.65
M 243.3 248.55
Q 245.15 248.3 245.7 248.4 244.3 240 244.25 239.55 239.6 243.6 239.05 243.95 239.1 245 240.9 248.15 240.95 248.2 241 248.25 241.75 248.7 243.3 248.55
M 247.55 236.65
L 247.45 236.7
Q 248.9 248.5 249.2 248.65 249.55 248.95 251.55 248.9 253.8 248.8 254.05 248.85 253.3 246.7 252.85 241.65 252.4 236.8 252.7 235.85 250.05 235.35 247.55 236.65
M 256.65 235.5
Q 257 237.95 257.2 240.5 271.7 231.7 271.85 230.95 272.05 230.1 266.65 223.15 266.45 223.2 262.2 228.95 257.85 234.8 257.3 235.15 257 235.35 256.65 235.5
M 272.4 174.85
Q 271.1 176.8 267.25 179.85 263.45 182.8 262.15 184.9 260.75 187 257.65 202.55 257.3 204.25 259.35 209.9 261.35 215.45 262.2 215.7 262.9 215.9 267.05 211.45 271.15 207.15 271.6 206 271.85 205.3 272.25 193.15 272.65 180.2 272.4 174.85
M 378.2 269.55
Q 374.35 269.95 370.75 270.3 363.55 271 363.1 271.45 363.05 272.05 367.85 274.8 374.35 278.6 375.75 279.6
L 375.8 279.55
Q 377.5494140625 275.8099609375 378.2 269.55
M 331.65 186.95
Q 328 192.75 328.1 192.95 329.65 195.7 329.7 198.9 329.732421875 199.8376953125 328.75 211.35 328.1978515625 217.6828125 327.35 227.15
L 326.05 228.85
Q 326.390234375 229.130078125 326.75 229.4 332.1 233.35 332.55 233.55 333.45 233.95 333.85 234.3 334.15 234.55 334.2 234.95
L 335.1 234.8
Q 336.1 241.87265625 336.1 249.35 336.1 283.1931640625 316.05 308.7
L 308.6 302.7
Q 311.79765625 307.9751953125 313.75 311.55 317.1791015625 317.9322265625 316.7 319.05 315.7337890625 318.8083984375 311.4 314.25 308.54765625 311.282421875 304.25 306.45 293.1 293.95 292.7 293.7 291.6 293.05 288.9 292.25 286.4 291.5 285.25 290.75 285.15 290.7 285.05 290.6 284.9 290.9 282.35 294.8 279.9 298.7 279.7 299.45 279.5 300.3 282.45 310.5 285.35 320.35 287.5 326.45 288.55 326.7 292.35 326.65 295.4 326.55 296.9 327.6
L 296.9 327.6
Q 298.18046875 328.4861328125 301.3 337.3 304.5 346.25 303.45 346.8 302.45 347.35 295 330.4 294.28828125 330.2123046875 293.6 330 290.058984375 329.0904296875 287.95 328.5 283.4 327.2 283.1 326.6 282.2787109375 324.6654296875 281.3 322
L 272.5 325.2
Q 272.85 326 268.5 331.5 264 337.3 261.5 338.55 261.4029296875 338.5984375 263.45 343.85 263.5345703125 344.0333984375 263.6 344.2 265.9 350.05 265.85 350.85 265.75 353.6 264.1 359.4 262.45 365.05 261.65 365.85 261.1 351.55 260.4 350.25 260.25 349.9 257.1 345.65 256.962109375 345.466796875 256.8 345.3 248.0390625 346.85 238.6 346.85 218.7810546875 346.85 201.8 339.95 197.0427734375 345.616796875 196.75 346.3 196.65 346.45 195.75 357.1 195.7 357.6 195.7 358.05 194.85 367.6 194.6 367.65 194.3 367.75 193.35 358.05 193.3 357.85 193.3 357.65 192.35 347.6 192.5 346.8 192.7392578125 345.55625 199.2 338.85 199.49453125 338.5640625 199.8 338.25 200.193359375 337.8458984375 200.55 337.45 198.177734375 337.243359375 194.6 336.7 193.2109375 336.47265625 191.6 336.2 178.85 334 176 332 172.85 329.8 162 318.2 159.05 315.15 156.25 312.15 153.9 309.6 151.7 307.1
L 151.65 307.1
Q 149.75 311.5 148.35 314.6 145.7 320.55 144.2 321.2 143.1 321.75 134.25 321.15 133.25 321.1 128.2 325.75 130.2 330.25 137.2 344.45 144.65 359.55 145.2 359.9 200.7 384.15 206.2 386 208.7 386.65 214.8 387.75 215.85 387.35 222.55 383.65 229.15 379.95 230.55 379 230.8 378.85 232.65 373
L 234.45 367.45
Q 236.901953125 371.551171875 236.95 372.35 237.05 373.4 236.85 377.3 236.65 381.95 236.1 382.55 234.55 384.15 225.55 388.85 225.301953125 388.9806640625 225.05 389.1 232.6763671875 389.85 240.6 389.85 252.6443359375 389.85 264 388.1 255.8640625 383.976171875 248.45 377.45 251.6 378.15 254.6 378.9 260.2 380.3 260.85 380.75 261.5 381.25 268.9 387.25 270.691796875 388.586328125 272.2 389.25 326.1 363.75 342.05 347.8 343.52578125 346.3259765625 344.95 344.85
L 352.05 336.85
Q 353.3646484375 335.2560546875 354.6 333.65
L 353.35 324.95
Q 352.9 325.05 355 323 357.5 320.45 361.8 317.05 371.6599609375 309.3169921875 370.5 301.6 369.3900390625 293.9330078125 368.95 292.6 368.8 292 371.05 287.9 372.75 284.75 374.1 282.65 373.15 282.15 367.35 277.45 361.25 272.5 361.3 272.05 361.35 271.5 369.4 267.95 377.4 264.4 378.5 264.3 379.05 244.65 380.5 240.75 380.8455078125 239.8431640625 384.1 246.55 384.1 246.4470703125 384.1 246.35 384.1 238.8609375 383.4 231.65 381.9154296875 215.1755859375 376.9 200.15 374.6 220.9 373.75 220.9 372.4 220.95 370.6 205.05 368.95 188.75 368.65 188 368.1 186.75 360.8 180.85 353.5 175.1 353.05 174.6 351.65 177.4 350.3 178.55 349.5 179.2 342.65 179.95 335.95 180.65 335.75 180.85 335.35 181.25 331.65 186.95
M 378.9 232.05
Q 378.95 232.8 368.4 236.05 357.9 239.25 357.7 238.85 357.45 238.3 360.25 234.25 363.05 230.25 364 229.75 364.75 229.35 371.75 230.3 378.85 231.25 378.9 232.05
M 324.5 205.5
Q 324.561328125 204.3958984375 324.35 202.35 324.2013671875 201.09296875 323.95 199.45 323.2 194.35 322.1 193.3 322.0095703125 193.330078125 320.65 196.35 319.8078125 198.3583984375 318.4 201.65 315 209.9 314.95 210.45 315.7 209.9 324.5 205.5
M 337.3 142.25
Q 334.15 135.95 333.9 135.8 332.6 135 300.25 120.55 271.338671875 107.7005859375 266.9 106.1 266.5248046875 105.97734375 266.3 105.9 266.2033203125 105.9021484375 266.15 105.9 265.6 105.9 258.05 109.75 250.9 113.35 249.05 114.45 248.85 114.6 246.7 120.7 244.35 127.4 243.35 129.3 242.75 129.25 242.45 120.95 242.2 112.25 243.6 110.8 244.05 110.35 250.15 107.15 256.1 104 256.95 103.65 255.7 103.55 213.3 105.2 217.528125 107.2970703125 221.55 110 225.777734375 112.83359375 229.8 116.35 228.9 116.2 206.1 104.6 205.65 104.35 190.9 111.3 175.05 118.75 174.9 118.8 173.95 119.2 173.5 127.05 171.65 124.45 168.4 122.35 146.71328125 139.4529296875 131.65 152.75 116.161328125 170.5431640625 107.6 191.2 115.4751953125 182.8119140625 123.15 173.75 122.3958984375 174.876171875 121.5 176.2 115.5 185.1 114.7 187.95 111.55 199.25 110.9 200.65 110.5 201.55 107.9 205.6 106.55 207.65 104.95 210.15 117.8 220.45 117.75 220.75 117.7 221 109.3 224.75 100.95 228.45 100.5 228.5 100 248.15 98.55 252.05 98.526953125 252.111328125 98.5 252.05
L 99.35 264.85
Q 100.4 278.6 101.5 283.05 102.2677734375 275.880859375 103.1 275.85 103.7 275.8 106.4 292.1 107.75 300.25 109.05 308.6 109.3 309.15 119.85 317.6 124.6416015625 321.1916015625 125 321.55 126.3 318.75 127.6 317.6 128.4 316.95 135.25 316 142 315.1 142.2 314.85 142.55 314.45 146.05 308.7 149.6 302.8 149.45 302.6 147.85 299.95 147.7 296.75 147.6712890625 295.8908203125 148.2 286.7 148.5951171875 279.8416015625 149.3 268.35 150.35 268.45 152.05 283.55 152.1 283.5 162.85 276.5 162.9 276.45 162.95 276.4 169.573828125 272.02578125 172 270.55
L 168.1 264.25
Q 162.8255859375 267.5376953125 161.85 267.05 161.1 266.65 149.5 258.25 148.6 257.85 148.2 257.5 147.9 257.25 147.85 256.85 147.75 256.45 147.95 256.2
L 141.1 249.35
Q 141.1 208.95 169.65 180.4
L 174.8 181.1
Q 174 179.7 172.7 176.6 171.2 173.1 171.35 172.75 171.65 172.8 183.45 185.4 195.3 198.1 195.35 198.1 196.45 198.75 199.15 199.55 201.65 200.3 202.8 201.05 202.9 201.1 203 201.2 203.15 200.9 205.7 197 208.15 193.1 208.35 192.35 208.45 191.95 205.05 180.15 201.65 168.45 200.55 165.35 199.5 165.1 195.7 165.15 192.65 165.25 191.15 164.2 191.04296875 164.1314453125 190.9 164 189.630078125 162.6373046875 186.75 154.5 183.55 145.55 184.6 145 185.6 144.45 193.05 161.4 205.65 166.85 206 167.8
L 206.55 167.6
Q 206.2 166.8 210.55 161.3 215.05 155.5 217.55 154.25
L 217.45 153.95
Q 216.65 151.85 215.25 147.95 213.15 142.3 213.2 141.95 213.3 139.2 214.95 133.4 216.6 127.75 217.4 126.95 217.95 141.25 218.65 142.55 218.8 142.9 221.95 147.15 224.7 150.8 224.65 152 224.637890625 152.20703125 224.1 152.8 231.15390625 151.85 238.6 151.85 257.0943359375 151.85 273.1 157.8 273.2 157.7 273.2 157.3 273.15 156.95 273.1 156.85 282.1 146.95 282.3 146.5 282.4 146.35 283.3 135.7 284.2 125.2 284.45 125.15 284.75 125.05 285.75 135.15 286.7 145.2 286.55 146 286.3 147.3 279.25 154.55 278.7 155.1 281.2 156.35 283.75 157.6 286.85 158.25 299.6 160.8 302.4 162.85 305.45 165.15 316 177 321.3 182.9 326 188.4
L 326.05 188.4
Q 328.1 184.05 329.55 181 332.35 175.15 333.85 174.45 335 174 343.8 174.8 344.75 174.9 350 170.35 346.5 162 342.75 153.6 340.75 149.05 337.3 142.25
M 131.2 172
Q 131.45 172.05 137.8 176.85 138.05 177.3 138.25 178.85 138.45 180.5 138.25 181 138 181.55 134.5 176.95 131.05 172.4 131.2 172
M 115.05 263.05
Q 114.3 263.45 107.3 262.5 105.6953125 262.2853515625 104.45 262.05 100.188671875 261.369140625 100.15 260.75 100.1185546875 260.27890625 104.25 258.8 106.72578125 257.9587890625 110.65 256.75 121.15 253.55 121.35 253.95 121.6 254.5 118.8 258.55 116 262.55 115.05 263.05 Z"/>

<path fill="#31271E" stroke="none" d="
M 326.05 228.85
L 327.35 227.15
Q 326.35 227.05 325 211.95 324.95 211.95 313.95 218.8 309.915625 221.314453125 307.4 222.8 303.21875 225.3498046875 303.25 225.1 305.1 223.9 308.4 218.9 311.45 214.05 311.8 213.65 311.5 213.4 311.6 209.15 311.65 205.55 311.75 204.6
L 318 190
Q 317.9 189.95 308.1 178.9 298.1 167.65 295.85 165.95 293.1 163.95 283 160.65 280.6 159.9 277.9 159.2 275.2 158.5 275.1 158.6 272.4984375 160.953515625 271.3 161.4 271.137109375 161.454296875 271 161.45 270.7607421875 161.5130859375 270.6 161.45 271.2560546875 160.2197265625 273.1 157.8 257.0943359375 151.85 238.6 151.85 231.15390625 151.85 224.1 152.8 222.4560546875 154.73828125 215.8 160.6 206.95 168.35 206.55 167.6
L 206 167.8
Q 206.95 170.35 210.15 181.3 213.4 192.3 213.35 192.95 213.15 195.35 210.25 198.95 207.2 202.7 206.8 204.9 210.3 205.9 213.1 208.3 215.9 210.8 217.3 214.15 219.85 211.5 229.2 210.6 237.7 209.85 240.15 210.85
L 241.7 211.5
Q 242.15 210.3 247.55 208.6 250.3 207.75 253.15 206.9 253.85 206.35 257.6 184.65 257.8 184.05 264.75 176.8 271.75 169.4 272.65 168.95 273.55 168.5 274.4 186.55 275.2 204.4 274.8 205.15 273.35 208.2 266.5 218.45 267.05 218.45 270.8 221.5 274.7 224.65 275.3 225.9 275.5 226.1 281.6 236.5 302.7 235.1 303.2 234.75 303.6 234.55 311.25 229.25 319 224.15 320.2 224.75 321.2734375 225.3099609375 326.05 228.85
M 335.1 234.8
L 334.2 234.95
Q 334.3 235.35 334.1 235.6 333.2 235.7 332.05 235.1 330.85 234.25 330.15 233.95
L 319.3 228.75
Q 318.45 229 312.3 235.55 306.15 242.1 305 242.5 303.9 242.9 293.6 242.9 283.4 242.85 282.4 242.5 282.3 242.45 282.25 242.45 282 243.5 273.15 251.15 274.4 248.85 275.55 246.45 277.75 241.65 277.25 239.9 277 238.85 276 236.7 274.85 234.35 274.45 234.5 269.9 237.05 264.3 239.9 257.75 243.2 257.3 243.05 257.35 244.65 257.25 247.3 257.1 250.2 256.9 250.5 256.55 251.05 247.65 251 238.8 250.9 238.5 250.6 238.3 250.65 226.5 253.05 226.44765625 253.0736328125 226.35 253.1 225.7392578125 253.29921875 225.35 253.5 225.15 253.25 230.65 250.35 236.1 247.45 236.7 247.3 236.45 246.25 236.3 245 234.6 241.5 232.95 238.05 229.7 231.1 230.05 230.9 230.807421875 230.409765625 235.1 223.45 235.6232421875 222.596875 236.2 221.65 235.9333984375 221.7265625 235.65 221.8 222.5775390625 225.5373046875 221.45 224.9 220.8 224.6 211.15 215.4 201.6 206.35 201.55 206.15 200.2 206.5 195.25 205.7 190.3 204.9 189.35 204.2 188.7 203.7 182.2 193.2 176.1 183.4 174.8 181.1
L 169.65 180.4
Q 141.1 208.95 141.1 249.35
L 147.95 256.2
Q 148.9 256.1 155.05 259.15 158.3 260.75 162.75 263.05 163.6 262.8 169.75 256.25 175.9 249.7 177.05 249.3 178.15 248.9 188.45 248.9 198.65 248.95 199.65 249.3 199.75 249.35 199.8 249.35 200.05 248.3 208.9 240.65 207.65 242.95 206.5 245.35 204.3 250.15 204.8 251.9 205.05 252.95 206.05 255.1 206.55 256.15 211.4 256.25 215.9 256.35 217.65 255.75 210.3 260.3 210.2 260.85 210 261.7 215.4 268.65 215.6 268.6 219.85 262.85 224.2 257 224.75 256.65 224.9 256.55 227 254.65 222.4 267.9 220.5 270.3 220.4 270.4 223.1 273.7 226.1 277.3 226.65 278.3 226.9 278.75 233.45 279.35 240.1 279.95 240.35 280.3 239.9 281.5 234.5 283.2 231.75 284.05 228.9 284.9 228.2 285.45 224.45 307.15 224.25 307.75 217.3 315 210.3 322.4 209.4 322.85 208.5 323.3 207.65 305.25 206.85 287.4 207.25 286.65 208.7 283.6 215.55 273.35 215 273.35 211.25 270.3 207.35 267.15 206.75 265.9 206.55 265.7 200.45 255.3 179.35 256.7 178.85 257.05 178.45 257.25 170.8 262.55 169.3505859375 263.50390625 168.1 264.25
L 172 270.55
Q 173.4875 269.65 173.45 269.8 171.7 271.05 168.55 276.15 165.55 281.1 165.2 281.55 165.55 281.75 165.55 286 165.65 289.55 165.55 290.6 165.5 290.8 162.5 298.05 159.6 305.2 159.7 305.25 159.8 305.35 169.9 316.15 180.15 327.1 182.45 328.7 185.2 330.65 195.4 333.7 199.7361328125 334.9939453125 202.2 335.85 207.2998046875 330.8982421875 208.45 331.35 207.5697265625 333.0005859375 204.5 336.7 205.31640625 337.0630859375 205.45 337.25 205.114453125 337.5708984375 203.8 337.6 202.9919921875 338.5951171875 202.05 339.7 201.93046875 339.841015625 201.8 339.95 218.7810546875 346.85 238.6 346.85 248.0390625 346.85 256.8 345.3 254.3525390625 341.93984375 254.4 340.8 254.45 339.95 263.25 332.2 272.1 324.45 272.5 325.2
L 281.3 322
Q 279.68203125 317.3580078125 277.65 310.5 274.6 300.15 274.7 298.85 274.9 296.45 277.8 292.85 280.85 289.1 281.25 286.9 277.75 285.9 274.95 283.5 272.15 281 270.75 277.65 268.2 280.3 258.85 281.2 250.35 281.95 247.9 280.95
L 248.2 271.2
Q 265.3 266.15 266.6 266.9 267.25 267.2 276.9 276.4 286.45 285.45 286.5 285.65 287.85 285.3 292.8 286.1 297.75 286.9 298.7 287.6 300.15 288.75 308.6 302.7
L 316.05 308.7
Q 336.1 283.1931640625 336.1 249.35 336.1 241.87265625 335.1 234.8 Z"/>
</g>
</defs>

<g transform="matrix( 1, 0, 0, 1, 251.95,261.1) ">
<g transform="matrix( 1, 0, 0, 1, 0,0) ">
<use xlink:href="#impact_1_Layer0_0_FILL"/>
</g>
</g>
</svg>
