
<svg xmlns="http://www.w3.org/2000/svg" version="1.1" xmlns:xlink="http://www.w3.org/1999/xlink" preserveAspectRatio="none" x="0px" y="0px" width="300px" height="550px" viewBox="0 0 300 550">
<defs>
<filter id="Filter_1" x="-20%" y="-20%" width="140%" height="140%" color-interpolation-filters="sRGB">
<feColorMatrix in="SourceGraphic" type="matrix" values="1 0 0 0 0 0 1 0 0 0 0 0 1 0 0 0 0 0 0.46 0" result="result1"/>
</filter>

<filter id="Filter_2" x="-20%" y="-20%" width="140%" height="140%" color-interpolation-filters="sRGB">
<feColorMatrix in="SourceGraphic" type="matrix" values="1 0 0 0 0 0 1 0 0 0 0 0 1 0 0 0 0 0 0.16 0" result="result1"/>
</filter>

<g id="Symbol_138_0_Layer0_0_FILL">
<path fill="#00CCFF" stroke="none" d="
M 104.4 2.15
Q 101.95 1.85 99.55 1.55 82.05 -0.7 72.1 0.35 57.05 1.9 50.5 10.55 47.15 14.9 46.05 21.5 45.35 25.75 45.35 33.55 45.15 78 44.95 100.35 44.8 142.8 45.9 165.55 46.4 175.7 49.15 208.4 51.25 235.05 51.6 251.25 51.8 266.55 50.75 286.85 50.7 287.7 48.55 322.5 44.6 386.4 43.75 466.35 43.15 515 43.75 610.5 44.35 707.25 43.85 754.65 43 834.75 39.2 898.6 37.9 921.4 36.25 938.05 34.2 959.3 31 977.3 22.9 1023.05 4.75 1065.55 1.55 1072.95 0.6 1077.05 -0.85 1083.6 1.1 1088.7 3.05 1093.85 8.6 1098.25 12.7 1101.45 19.85 1105 35.65 1112.8 52.3 1118.55 55.6 1066.35 68.7 1021.65 73.45 1005.75 80.8 986.65 86.35 972.5 86.35 970.05 86.35 959.65 79.8 945.15 73.25 930.7 73.25 923.4 81.3 888.95 89.35 843.7 91.6 831.2 93.6 819.2 95.45 807.15 97 795.6 100.9 765.3 102.95 738.2 105.3 711.1 105.3 687.15 105.3 684.55 102.15 626.9 99 569.25 99 566.7 99 550.35 103.75 517.3 108.45 484.25 108.45 462.15 108.45 459.6 105.3 412.35 102.15 365.1 102.15 362.5 102.15 303.25 108.45 247.65 110.1 233.75 112.8 212.45 114.85 196.3 114.85 188.5 114.85 179.75 110.1 165.35 105.3 150.95 105.3 147 105.3 144.45 108.45 124.7 111.6 105 111.6 102.4 111.6 87.2 105.3 71.35 99 55.55 99 40.15 99 39 102.15 18.6 103.3 11 104.05 4.95
L 104.05 4.9
Q 104.2 3.45 104.4 2.15
M 371.15 8.05
Q 371.25 13.35 371.25 18.35 371.25 18.95 366.5 50.85 361.75 82.75 361.75 98.3 361.75 123.85 350.45 197.85 344.85 234.85 339.2 267.2 339.2 274.95 334.5 334.5 329.75 394 329.75 406 329.75 421.5 333.15 433.55 335.1 440.3 340.8 452.6 346.2 464.35 348.35 472.7 351.85 485.9 351.85 503.4 351.85 518.85 345.55 551.75 339.2 584.7 339.2 608.2 339.2 641.8 352.05 676.8 360.35 699.4 360.9 701.1 364.9 713.9 364.9 724.3 364.9 737.5 361.9 749 360.2 755.5 355.25 767.85 350.45 779.75 348.55 787.5 345.55 799.85 345.55 814.5 345.55 835.35 353.15 881.1 360 922.65 358.6 935.95 354.95 971.9 370.5 999.55 374.4 1006.6 381.75 1018.95 387.1 1029.5 387.1 1039.45 387.1 1042.05 383.85 1055.6 380.7 1069.2 380.7 1071.75 380.7 1082.2 390.45 1114.05 410 1110.15 427.4 1105.35 432.1 1104.1 434.8 1102.75 438.7 1100.8 440.45 1098.05 442.85 1094.2 441.4 1088.7 440.45 1085.1 437.15 1079.1 420.35 1048.8 412.9 1017.9 410.15 1006 408.25 990.75 407.2 982.1 405.4 963.35 401.4 920.9 392.9 828.25 388.55 781.35 387.2 757.85 384.4 707.6 386.35 634.75 389.35 552.7 390.05 511.65 391.05 461.85 389.95 394.4 389.35 355.3 387.6 277 384.8 131.5 391 42.55 391.6 33.95 391 29.1 390.05 21.7 386.1 16.85 381.35 11.1 372.05 8.3 371.6 8.15 371.15 8.05 Z"/>

<path fill="#00B9EA" stroke="none" d="
M 135.95 40.15
Q 135.95 39 138 18.6 138.75 11 139.25 4.9 120.75 4 104.4 2.15 104.2 3.45 104.05 4.9
L 104.05 4.95
Q 103.3 11 102.15 18.6 99 39 99 40.15 99 55.55 105.3 71.35 111.6 87.2 111.6 102.4 111.6 105 108.45 124.7 105.3 144.45 105.3 147 105.3 150.95 110.1 165.35 114.85 179.75 114.85 188.5 114.85 196.3 112.8 212.45 110.1 233.75 108.45 247.65 102.15 303.25 102.15 362.5 102.15 365.1 105.3 412.35 108.45 459.6 108.45 462.15 108.45 484.25 103.75 517.3 99 550.35 99 566.7 99 569.25 102.15 626.9 105.3 684.55 105.3 687.15 105.3 711.1 102.95 738.2 100.9 765.3 97 795.6 95.45 807.15 93.6 819.2 91.6 831.2 89.35 843.7 81.3 888.95 73.25 923.4 73.25 930.7 79.8 945.15 86.35 959.65 86.35 970.05 86.35 972.5 80.8 986.65 73.45 1005.75 68.7 1021.65 55.6 1066.35 52.3 1118.55 74.5 1126.2 98.1 1130.15 100.15 1130.5 102.3 1130.8 103.75 1131.05 105.25 1131.25 106.8 1071.75 116.35 1021.65 119.4 1005.75 124.2 986.65 127.75 972.5 127.75 970.05 127.75 959.65 123.55 945.15 119.3 930.7 119.3 923.4 124.5 888.95 129.7 843.7 131.15 831.2 132.25 819.2 133.55 807.15 134.65 795.6 137.45 765.3 138.9 738.2 140.05 711.05 140.05 687.15 140.05 684.55 138 626.9 135.95 569.25 135.95 566.7 135.95 550.35 139.05 517.3 142.1 484.25 142.1 462.15 142.1 459.6 140.05 412.35 138 365.1 138 362.5 138 303.25 142.1 247.65 143.15 233.75 144.9 212.45 146.2 196.3 146.2 188.5 146.2 179.75 143.15 165.35 140.05 150.95 140.05 147 140.05 144.45 142.1 124.7 144.15 105 144.15 102.4 144.15 87.2 140.05 71.35 135.95 55.55 135.95 40.15
M 371.25 18.35
Q 371.25 13.35 371.15 8.05 364.65 6.25 354.6 5.45 343.1 4.6 330.25 4.15 330.45 11.55 330.45 18.35 330.45 18.95 327.05 50.85 323.65 82.75 323.65 98.3 323.65 123.85 315.6 197.85 311.6 234.85 307.55 267.2 307.55 274.95 304.2 334.5 300.8 394 300.8 406 300.8 421.5 303.25 433.55 304.65 440.3 308.7 452.6 312.55 464.35 314.1 472.7 316.6 485.9 316.6 503.4 316.6 518.85 312.1 551.75 307.55 584.7 307.55 608.2 307.55 641.8 316.75 676.8 322.65 699.4 323.05 701.1 325.9 713.9 325.9 724.3 325.9 737.5 323.75 749 322.55 755.5 319 767.85 315.6 779.75 314.25 787.5 312.1 799.85 312.1 814.5 312.1 835.35 317.5 881.1 322.4 922.65 321.4 935.95 318.8 971.9 329.9 999.55 332.7 1006.6 337.95 1018.95 341.75 1029.5 341.75 1039.45 341.75 1042.05 339.45 1055.6 337.2 1069.2 337.2 1071.75 337.2 1083.35 345.8 1121.45 369.35 1118.25 390.45 1114.05 380.7 1082.2 380.7 1071.75 380.7 1069.2 383.85 1055.6 387.1 1042.05 387.1 1039.45 387.1 1029.5 381.75 1018.95 374.4 1006.6 370.5 999.55 354.95 971.9 358.6 935.95 360 922.65 353.15 881.1 345.55 835.35 345.55 814.5 345.55 799.85 348.55 787.5 350.45 779.75 355.25 767.85 360.2 755.5 361.9 749 364.9 737.5 364.9 724.3 364.9 713.9 360.9 701.1 360.35 699.4 352.05 676.8 339.2 641.8 339.2 608.2 339.2 584.7 345.55 551.75 351.85 518.85 351.85 503.4 351.85 485.9 348.35 472.7 346.2 464.35 340.8 452.6 335.1 440.3 333.15 433.55 329.75 421.5 329.75 406 329.75 394 334.5 334.5 339.2 274.95 339.2 267.2 344.85 234.85 350.45 197.85 361.75 123.85 361.75 98.3 361.75 82.75 366.5 50.85 371.25 18.95 371.25 18.35 Z"/>

<path fill="#009FC9" stroke="none" d="
M 330.45 18.35
Q 330.45 11.55 330.25 4.15 321.5 3.8 312.1 3.7 301.8 3.5 290.75 3.6 276 3.7 226.8 5.05 187.25 6.1 163.1 5.7 151 5.5 139.7 4.95 139.45 4.9 139.25 4.9 138.75 11 138 18.6 135.95 39 135.95 40.15 135.95 55.55 140.05 71.35 144.15 87.2 144.15 102.4 144.15 105 142.1 124.7 140.05 144.45 140.05 147 140.05 150.95 143.15 165.35 146.2 179.75 146.2 188.5 146.2 196.3 144.9 212.45 143.15 233.75 142.1 247.65 138 303.25 138 362.5 138 365.1 140.05 412.35 142.1 459.6 142.1 462.15 142.1 484.25 139.05 517.3 135.95 550.35 135.95 566.7 135.95 569.25 138 626.9 140.05 684.55 140.05 687.15 140.05 711.05 138.9 738.2 137.45 765.3 134.65 795.6 133.55 807.15 132.25 819.2 131.15 831.2 129.7 843.7 124.5 888.95 119.3 923.4 119.3 930.7 123.55 945.15 127.75 959.65 127.75 970.05 127.75 972.5 124.2 986.65 119.4 1005.75 116.35 1021.65 106.8 1071.75 105.25 1131.25 130.9 1134.85 162.3 1134.65 184.65 1134.5 226.9 1131.75 292.75 1127.55 326.65 1123.8 327.5 1123.7 328.35 1123.6 337.2 1122.6 345.8 1121.45 337.2 1083.35 337.2 1071.75 337.2 1069.2 339.45 1055.6 341.75 1042.05 341.75 1039.45 341.75 1029.5 337.95 1018.95 332.7 1006.6 329.9 999.55 318.8 971.9 321.4 935.95 322.4 922.65 317.5 881.1 312.1 835.35 312.1 814.5 312.1 799.85 314.25 787.5 315.6 779.75 319 767.85 322.55 755.5 323.75 749 325.9 737.5 325.9 724.3 325.9 713.9 323.05 701.1 322.65 699.4 316.75 676.8 307.55 641.8 307.55 608.2 307.55 584.7 312.1 551.75 316.6 518.85 316.6 503.4 316.6 485.9 314.1 472.7 312.55 464.35 308.7 452.6 304.65 440.3 303.25 433.55 300.8 421.5 300.8 406 300.8 394 304.2 334.5 307.55 274.95 307.55 267.2 311.6 234.85 315.6 197.85 323.65 123.85 323.65 98.3 323.65 82.75 327.05 50.85 330.45 18.95 330.45 18.35 Z"/>
</g>

<g id="waterfall_0_Layer0_0_FILL">
<path fill="#00CCFF" stroke="none" d="
M 275.4 305.1
Q 276.6 301.15 274.6 298.25 274.55 301.45 275.4 303.05
L 275.4 305.1
M 90.9 292.8
Q 91.1 289.8 90.8 287.15 89.05 290.45 88.85 292.8
L 90.9 292.8
M 381.15 28
Q 380.75 25.2 379.5 24 377.25 21.95 374.3 24.7 371.75 27.05 370.6 30.8 363.45 52.25 348.35 68.4 339.85 77.7 332.25 76.8 327.25 76.25 323.1 71.45 320.05 67.9 317.2 61.65 307.2 39.55 301.15 16.4 297.15 46.95 294.1 73.4 290 109 290 114.75
L 290 116.8
Q 286.6 113.2 284.1 107.8 281.8 102.85 281.8 100.15
L 281.8 98.1
Q 273.9 138.6 272.1 146.5 264 181.75 256.95 191.05 251.4 185.85 243.25 168.1 242.75 167.05 231.85 141.35 230.8 138.95 229.3 142.95 228 146.4 227.75 149.55 226.4 149.55 225.95 148.25 225.7 147.5 225.7 145.45 220.9 146.05 216.1 157.55 213.2 164.6 208.05 182.4 202.85 200.4 200.25 206.9 195.7 217.95 191.35 217.95 184.45 217.95 178.2 198.3 176.25 192.3 174.15 183.6 172.05 174.9 171.9 174.4 169.7 178.9 163.2 186.45 155 195.6 150.8 200.3 134.75 218.25 134.45 226.4
L 132.4 226.4
Q 133.7 211.35 132.65 198.85 130.6 174.4 118.85 174.4 115.65 174.4 112.9 179.2 110.5 183.45 109.6 189 109.45 174.7 107.55 137.95 106.95 126.65 106.55 118.55 105.2 120.1 103.75 121.4 100.05 124.7 95.55 125.8 90.6 127.05 86.85 124.9 83.7 122.95 81.85 118.5 81 116.45 79.4 110.25 76.8 101.05 71.3 92.8 67.65 87.45 63.9 88 60.35 88.55 58.25 95.25 48.6 127.45 44 159.6 40.35 158.5 36.2 157.45 33.65 154.95 33.3 149.85 33.4 143.8 33.25 140.95 33 136.25 29.45 132.9 25.7 129.35 22.5 131.9 21.4 132.65 20.7 134.2 20.3 134.95 19.6 137.05 8.45 175.4 3.3 214.45 4.5 212.05 5.8 209.4 13.55 193.7 16.35 191.05
L 16.35 193.1
Q 16.3 194.5 14.85 207.35 13.55 219.3 13.45 227.45 13.15 253.7 24.55 259.45 25.3 258.15 27.5 255.2 29.75 252.2 30.7 251.25 34.4 255.85 36.2 263.6 39 275.75 39.15 276.15 40.45 274.85 41.95 274.35 42.75 274.1 43.25 274.1 44.75 269.2 49.8 241.75 54.1 218.5 55.8 207.7
L 57.85 207.7
Q 61.95 249.2 61.95 276.15 66.05 274.1 68.25 273.35 71.85 272.05 75.3 272.05 81.65 272.05 86.2 276.85 90 280.9 90.8 287.15 92.95 283 97.45 277.35 106.5 265.9 113.7 265.9 120 265.9 124.3 276.15 128.3 285.7 128.3 297.9 128.3 299.5 127.9 304.95 127.75 310.5 128.85 314.6 132.1 327.05 147.05 329.95 148.2 328.75 149.7 324.05 151.5 317.8 152.65 314.3 157.1 300.5 163.45 296.9 166.75 300.7 168.7 306.05 169.85 309.15 171.9 315.6 174.65 308.55 176.7 295.4 178.8 279.75 180 271.95 184.55 242.8 194.7 234.6 194.7 235.9 195.75 236.4 196.25 236.65 196.75 236.65 194.35 244.65 195.45 250.25 196.3 254.65 199.9 259.05 201.95 261.65 206.9 267.05 211.25 272.35 213.4 278.2 227.5 280.9 234.7 258.75 238.5 247 242.35 215.9
L 244.4 215.9
Q 245.7 229.35 247.25 255.95 249 277.75 252.6 286.4 252.6 284.85 253.9 283.6 255.25 282.3 256.95 282.3
L 256.95 292.8
Q 262.6 290.9 269.65 294.35 273.05 296 274.6 298.25 274.6 296.65 274.8 294.65 275.5 288.45 277.85 282.15 283.95 265.9 294.1 265.9 297.25 265.9 299.1 268.9 300.35 270.9 301.85 276.35 305.65 289.7 310.75 294.85 322.75 293.95 328.8 273.9 333.6 258.05 333.6 235.65 332.85 227.85 332.2 220.9 330.95 207.25 331.55 197.45 333.4 166.2 353.3 166.2 356.75 166.2 364.8 170.4 371.55 173.95 375.1 176.7 375.1 173.65 376.4 171.85 377.5 170.3 379.2 170.3
L 379.2 172.35
Q 378 174.9 380 178.85 381.75 182.35 383.3 182.85 388.4 181.4 391.7 176 394.4 171.65 396.85 162.85 397.65 159.8 398.35 157.1 397.9 145.6 396.6 132 394.4 108.65 389.95 79.9 387.1 61.3 381.15 28 Z"/>

<path fill="#009FC9" stroke="none" d="
M 301.15 16.4
Q 300.3 13.2 299.55 10 298.5 5.45 296.15 2.55 293.3 -1 290 0.35 288.55 0.95 287.45 2.65 286.75 3.75 285.8 6 271.5 41.5 248.7 71.8 246.35 74.9 244.4 76.45 241.55 78.65 238.75 78.45 236.6 78.3 233.15 76.1 229.45 73.7 227.6 73.35 223.5 72.5 219.5 76.15 216.85 78.55 213.45 83.9 202 101.75 185.65 114.1 181.8 117.05 178.75 118.55 174.7 120.5 171 120.5 164.25 120.5 158.35 114.3 154.25 110.05 149.6 101.5 143 88.95 138.1 79.8 136.7 77.2 135.6 75.95 133.95 74.05 131.95 73.65 128.9 73 126.2 75.85 124 78.2 122.65 81.95 118.05 96.25 115.35 103.15 111.65 112.7 106.55 118.55 106.95 126.65 107.55 137.95 109.45 174.7 109.6 189 110.5 183.45 112.9 179.2 115.65 174.4 118.85 174.4 130.6 174.4 132.65 198.85 133.7 211.35 132.4 226.4
L 134.45 226.4
Q 134.75 218.25 150.8 200.3 155 195.6 163.2 186.45 169.7 178.9 171.9 174.4 172.05 174.9 174.15 183.6 176.25 192.3 178.2 198.3 184.45 217.95 191.35 217.95 195.7 217.95 200.25 206.9 202.85 200.4 208.05 182.4 213.2 164.6 216.1 157.55 220.9 146.05 225.7 145.45 225.7 147.5 225.95 148.25 226.4 149.55 227.75 149.55 228 146.4 229.3 142.95 230.8 138.95 231.85 141.35 242.75 167.05 243.25 168.1 251.4 185.85 256.95 191.05 264 181.75 272.1 146.5 273.9 138.6 281.8 98.1
L 281.8 100.15
Q 281.8 102.85 284.1 107.8 286.6 113.2 290 116.8
L 290 114.75
Q 290 109 294.1 73.4 297.15 46.95 301.15 16.4 Z"/>

<path fill="#D0F3FC" stroke="none" d="
M 353.3 166.2
Q 333.4 166.2 331.55 197.45 330.95 207.25 332.2 220.9 332.85 227.85 333.6 235.65 333.6 258.05 328.8 273.9 322.75 293.95 310.75 294.85 305.65 289.7 301.85 276.35 300.35 270.9 299.1 268.9 297.25 265.9 294.1 265.9 283.95 265.9 277.85 282.15 275.5 288.45 274.8 294.65 274.6 296.65 274.6 298.25 276.6 301.15 275.4 305.1
L 275.4 303.05
Q 274.55 301.45 274.6 298.25 273.05 296 269.65 294.35 262.6 290.9 256.95 292.8
L 256.95 282.3
Q 255.25 282.3 253.9 283.6 252.6 284.85 252.6 286.4 249 277.75 247.25 255.95 245.7 229.35 244.4 215.9
L 242.35 215.9
Q 238.5 247 234.7 258.75 227.5 280.9 213.4 278.2 211.25 272.35 206.9 267.05 201.95 261.65 199.9 259.05 196.3 254.65 195.45 250.25 194.35 244.65 196.75 236.65 196.25 236.65 195.75 236.4 194.7 235.9 194.7 234.6 184.55 242.8 180 271.95 178.8 279.75 176.7 295.4 174.65 308.55 171.9 315.6 169.85 309.15 168.7 306.05 166.75 300.7 163.45 296.9 157.1 300.5 152.65 314.3 151.5 317.8 149.7 324.05 148.2 328.75 147.05 329.95 132.1 327.05 128.85 314.6 127.75 310.5 127.9 304.95 128.3 299.5 128.3 297.9 128.3 285.7 124.3 276.15 120 265.9 113.7 265.9 106.5 265.9 97.45 277.35 92.95 283 90.8 287.15 91.1 289.8 90.9 292.8
L 88.85 292.8
Q 89.05 290.45 90.8 287.15 90 280.9 86.2 276.85 81.65 272.05 75.3 272.05 71.85 272.05 68.25 273.35 66.05 274.1 61.95 276.15 61.95 249.2 57.85 207.7
L 55.8 207.7
Q 54.1 218.5 49.8 241.75 44.75 269.2 43.25 274.1 42.75 274.1 41.95 274.35 40.45 274.85 39.15 276.15 39 275.75 36.2 263.6 34.4 255.85 30.7 251.25 29.75 252.2 27.5 255.2 25.3 258.15 24.55 259.45 13.15 253.7 13.45 227.45 13.55 219.3 14.85 207.35 16.3 194.5 16.35 193.1
L 16.35 191.05
Q 13.55 193.7 5.8 209.4 4.5 212.05 3.3 214.45 1.85 225.4 0.85 236.35 -0.1 247.8 0 254.6 0.15 264.7 2.3 272.65 4.8 281.9 10.2 289.05 16.1 296.8 24.15 300.2 32.75 303.85 42.05 301.3 51.7 298.6 56 290.8 55.5 299.55 55.65 304.35 55.9 311.8 57.55 317.65 59.6 324.5 63.75 329.65 68.35 335.3 74.45 337.4 81 339.65 87.75 337 94.75 334.2 96.9 328 101.55 335.5 106.85 350.4 112.65 366.8 116.05 373.2 122.4 385 133 391.45 144.7 398.6 155.75 394.9 162.9 392.5 168.75 385.25 173.05 380 177.55 370.75 192.9 339.05 200.1 304.95 202.85 309.2 204.35 311.1 206.9 314.35 209.65 316.1 213 318.2 216.8 318.25 220.9 318.35 223.5 315.9 225.55 314 228.25 306.6 230.5 300.3 234.05 299.1 237.5 298 241.2 300.7 244.05 302.8 246.75 306.9 257.25 322.55 258.25 323.95 265.05 333.45 271.55 339.45 279.6 346.95 288.85 350.65 299.1 354.8 308.75 353.4 318.8 351.95 327.5 344.65 335.55 338 340.65 328.1 345 319.75 347.9 308.35 349.65 301.45 352.05 287.5 359.1 245.25 362.6 224.05 366.1 229.8 373.9 229.9 381.35 230 386.55 225.1 391.15 220.75 393.7 213.65 395.65 208.15 396.6 200.05 398.75 184.35 398.55 166.05 398.5 161.75 398.35 157.1 397.65 159.8 396.85 162.85 394.4 171.65 391.7 176 388.4 181.4 383.3 182.85 381.75 182.35 380 178.85 378 174.9 379.2 172.35
L 379.2 170.3
Q 377.5 170.3 376.4 171.85 375.1 173.65 375.1 176.7 371.55 173.95 364.8 170.4 356.75 166.2 353.3 166.2 Z"/>
</g>

<g id="Splash_FULL_copy_4_Layer1_0_FILL">
<path fill="#00CCFF" stroke="none" d="
M 532.05 258.9
Q 601.95 240.5 543.6 224.55 485.25 208.5 480.3 206.1 508.85 204.2 502.4 187.6 495.85 170.95 398.5 161 301.1 151.05 285.25 160.4 269.4 169.75 217.3 175.55 165.15 181.35 205.85 195.25 210.35 196.85 214.4 197.95 107.35 219.85 136.8 231.6 166.25 243.3 181.15 260.15 196.05 277.05 288.6 270.1 381.1 263.1 421.6 270.2 462.05 277.25 532.05 258.9 Z"/>
</g>

<g id="Splash_Splash_01_0_Layer0_0_FILL">
<path fill="#00CCFF" stroke="none" d="
M 235 135.9
Q 234.1 132.7 233.25 131.15 231.85 128.65 229.8 128.1 227.85 127.6 225.3 128.85 223.8 129.55 220.9 131.1 215.55 133.2 209.4 129.4 204.6 126.45 199.85 120.35 175.15 89.2 159.25 52.3 156.7 46.4 153.3 46.7 153.55 68.5 150.25 88.85 149.75 91.6 149.25 92.9 148.45 95.05 146.95 96.2 143.1 99.2 136 95.3 129.6 91.8 124.4 86.7 119.1 81.5 115.6 75.25 113.8 72.05 113.2 71.05 111.65 68.8 110 67.55 107.9 66.15 105.35 66.4 102.65 66.7 101.65 68.7 101.1 69.85 101.05 71.85 101.05 74.35 100.9 75.05 100.25 78.3 96.8 79.9 93.55 81.45 90.1 80.6 87.2 79.9 84.2 77.6 82.45 76.25 79.15 73
L 9.6 3.3
Q 7.5 1.2 5.35 0.4 2.65 -0.65 1.1 0.9 -1.35 3.25 1.75 8.6 17.4 35.8 25.15 48.9 38.4 71.15 49.75 88.45 61.75 106.7 65 112.3 73.05 126.1 76.6 137.95 77.7 141.6 77.4 144.5 77.05 148.1 74.5 149.5 72.2 150.75 68.85 149.45 68.25 149.2 63.15 146.45 60.25 144.8 56.9 145.35 53.35 145.95 53.15 148.85 53.1 150.15 54 151.55 54.55 152.4 55.95 153.8 69.15 167.35 77.5 183.9 77.65 184.35 77.9 184.8 78 185 78.15 185.2 79.35 187.65 80.45 190.15 80.8 189.05 81.05 187.95 81.3 188.15 81.6 188.35 85 190.8 87.05 192.05 90.15 193.9 92.85 194.85 96.6 196.2 101.5 196.45 104.7 196.6 110.4 196.25 156.75 194.05 179.95 192.95 189.6 192.45 194.05 191.95 201.9 191.1 207.85 189.25 210.3 188.5 211.85 187.3 213.8 185.75 213.7 183.75 226.25 184.95 233.95 184.8 245.15 184.6 253.8 181.75 256.65 180.75 257.85 179.35 258.7 178.35 258.8 177 258.85 176.65 258.85 176.35 258.9 176.35 258.95 176.3 260.15 175.75 260.4 174.2 260.65 172.75 260 171.5 259.15 169.7 256.2 167.65 248.6 161.65 243.1 153.5 237.6 145.25 235 135.9 Z"/>
</g>

<g id="Splash_Splash_03_0_Layer0_0_FILL">
<path fill="#00CCFF" stroke="none" d="
M 86.35 23.6
Q 86.1 21.6 85.7 17.6 85.25 14.1 84.3 11.8 81.5 5.4 73 1.8 66.55 -0.7 61.75 0.3 58.85 0.8 56.4 2.55 53.9 4.4 52.8 7 52.55 7.6 51.35 13.2 50.55 16.95 48.6 18.45 46.4 20.1 42.85 19.45 38.65 18.7 32.15 13.25 25.55 7.7 21.55 6.75 16.95 5.7 12.05 8 7.65 10.05 4.3 14.15 1.3 18 0.35 22.25 -0.7 27.05 1.4 30.75 2.85 33.4 6.2 35.5 7.15 36.15 12.4 38.85 20.9 43.15 28.15 49.65 35.3 56.1 40.6 64.15 44.2 69.85 43.35 73.55 42.8 75.6 40 78.9 37.2 82.1 36.75 84.2 36.2 86.8 37.7 89.5 39.05 91.95 41.5 93.55 43.4 94.75 46.55 96 51.45 97.85 51.75 98 56.9 100.15 63.4 105.1 67.1 107.9 74.45 113.55 76.2 114.75 79.55 116.85 83.15 119.1 84.7 120.15 89.5 123.65 96.6 130.45 119.1 152 140.95 176.15 142.65 178.15 144 178.2 145.3 178.2 146.15 177.05 147 175.9 146.9 174.6 146.8 172.55 144.75 169.95 140.3 163.85 131.5 153.35 121.9 142 118.05 136.9 110.9 127.3 106.6 118.9 101.35 108.7 99.65 99.05 99.25 96.15 99.7 94.95 100.65 92.7 103.55 92.05 106 91.5 109.05 92.15 113.35 93.15 114.3 93.3 117.35 93.6 119.25 92.3 121.15 91.05 121.75 88.55 122.3 86.25 121.6 83.9 120.95 81.9 119.45 79.75 118.45 78.3 116.45 76.15 103.2 61.35 97.1 51.8 87.85 37.3 86.35 23.6 Z"/>
</g>

<g id="Splash_Splash_03_copy_0_Layer0_0_FILL">
<path fill="#00CCFF" stroke="none" d="
M 86.6 57.95
Q 87.7 53.35 82.95 47.95 78.25 42.55 70.5 39.6 62.75 36.65 56.45 37.85 50.2 39.05 49.1 43.65 48 48.25 52.7 53.65 56.2095703125 57.6822265625 61.4 60.35 61.09375 62.7943359375 63.2 65.45 65.5 68.4 69.4 69.9 73.35 71.4 76.55 70.55 79.75 69.75 80.35 67.1 80.7705078125 65.41796875 79.95 63.6 85.5677734375 62.266796875 86.6 57.95
M 95.75 74.35
Q 92.55 75.2 91.95 77.85 91.3 80.5 93.6 83.45 95.9 86.4 99.8 87.85 103.75 89.35 106.95 88.5 110.15 87.65 110.75 85 111.4 82.35 109.1 79.4 106.85 76.45 102.9 74.95 99 73.5 95.75 74.35 Z"/>
</g>

<g id="Splash_FULL_copy_8_Layer1_0_FILL">
<path fill="#00CCFF" stroke="none" d="
M 522.15 256.6
Q 588.25 239.15 533.05 224 477.9 208.8 473.2 206.5 500.2 204.7 494.1 188.95 487.95 173.2 395.85 163.75 303.8 154.3 288.8 163.15 273.85 172.05 224.55 177.55 175.25 183.05 213.75 196.2 218 197.75 221.85 198.8 120.6 219.55 148.45 230.7 176.3 241.8 190.4 257.8 204.5 273.8 291.95 267.2 379.4 260.6 417.7 267.3 455.95 274 522.15 256.6 Z"/>
</g>

<g id="Symbol_169_0_Layer0_0_FILL">
<path fill="#000000" stroke="none" d="
M 166.75 83.25
Q 168.95 81.15 173.3 81 175.65 80.85 177.35 79.55 186.3 72.8 188.2 60.45 193.25 26.95 168.9 4 160.4 -3.95 149.2 -5.6 124.8 -9.2 108.95 8.6 105.3 12.65 103.25 17.35 88.95 50.7 107.7 82.65 108.7 84.35 110.45 84.5 119.95 85.55 127.45 88.5 136.75 138.45 127.2 188.15 126.8 190.2 125.9 192.1 117.75 209.8 99.4 219.25 96.5 220.8 95.35 223.85 92.8 230.5 93.15 238.05 93.6 247.4 103.6 246.35 116.8 245.85 126.8 253.4 129.55 255.5 130.5 258.8 140.2 293.75 138.25 330.7
L 116.65 368.2
Q 72.2 358.85 55.25 316.65 52.1 308.85 52.3 300.45 52.5 291.6 60.15 286.55
L 29.45 216.7 29.2 213.75
Q 28.95 213.65 28.85 213.75 17.75 219.1 12.8 231.8 3.15 248.75 -5.3 266.4 -6.9 269.75 -9.1 272.8 -15.2 281.1 -14.65 290.95 -14.5 294.2 -11.65 295.45 -1.65 299.65 9.65 300.1 3.2 310.45 -0.75 322 -1.4 323.9 -0.7 325.95 6.75 347.65 20.7 366.05 26.95 374.3 34.7 380.65 80.2 417.65 139.35 412.15
L 161.25 427.45
Q 167.85 422.75 173.05 416 176.95 411 182.85 409.15 198.65 403.9 213.1 395.5 250.5 373.85 262.9 332.6 264.85 326.1 267.3 319.85 272 307.95 263.3 300.05
L 282 291.05
Q 280.6 268.7 271.1 247.65 268.55 242 266.25 236.25 262.4 226.5 253.7 224.1 250.45 225.45 249 228.8 241.75 245.75 229.95 259.5 227.85 262 225.85 264.4 219.4 272.15 220.4 280.4
L 221.9 281.4 222.1 283.3 233.85 293.4
Q 234.05 294.4 233.75 295.45 223 333.45 192.6 358.4 186 348.6 180.1 338.55 178.3 335.55 177.9 332.45 174.8 306.65 174.1 280.65 173.7 265.3 179.8 251.4 182 246.3 187.65 246.2 196.05 245.25 204.3 243.8 210.15 242.95 210.95 236.95 212.5 225.15 203.4 218.4 197.4 213.95 191.95 208.7 173.7 191.35 170.45 166 165.2 124.85 166.75 83.25
M 175.7 69.65
Q 174.85 72.6 171.9 72.55 162.25 72.3 158.55 79.8
L 160.35 83.25 160.2 85.9 159.65 99.55
Q 159.35 122 159.15 144.2 158.8 179.3 178.8 207.3 181.1 210.5 184.35 212.25 196.85 219.25 204.55 230.3
L 204.9 232.05 204.15 236.7
Q 203.35 237.75 201.6 237.7 193.3 237.55 185.1 239.15 171.05 242.05 168.8 256.95 164.25 286.65 167.6 316.7
L 159.1 304.2 144.55 321.4
Q 144.1 295.7 141.55 270.1 140.7 261.5 136.4 254.1 127.35 238.45 108.5 239.2
L 142.65 221.95 106.35 238.95
Q 105.65 238.85 104.95 238.8 100.55 239.4 101 235.35 100.75 232.75 101.9 230.55 105.5 223.55 112.4 218.6 119.4 213.65 126.05 208.65 138.3 191.4 139 170.55
L 138.1 173.2
Q 142.7 137.15 136.9 100.95 134.4 85.5 149.15 82.4 143.1 77.5 135.5 84.55 129.9 77.8 119.75 78.05
L 126.6 74.5 122.5 66.1 118.1 39.75 118.05 36.75
Q 113.95 45.1 116.25 54.85 118.55 64.65 122.55 72.6
L 116.65 77.55
Q 115.7 76.95 115.2 76.1 105.45 60.1 106.2 40.8 107.15 14.9 130.45 5.25
L 139.3 3.8
Q 145.15 3.25 150.55 4.9 158.55 7.55 164.7 13.8 186.6 35.85 176.8 65.95
L 175.7 69.65
M 27.15 219.1
Q 27.3 218.85 27.4 218.85
L 27.3 219.1
Q 33.45 248.55 46.75 275.65 48.55 279.25 50.35 282.85
L 50.55 283.3
Q 50.65 283.45 50.6 283.5 40.15 296.6 46 312.95
L 58 337.25
Q 74.55 363.95 105.3 371.15 112.15 372.7 112.35 375.35
L 118 375.2 123.65 370.65
Q 123.95 370.4 124.2 370.2 126.05 368.7 124.3 368.95
L 124.65 368 155.45 319.85 158 313.6 186.85 366.25 189.15 368.95
Q 193.05 367.45 196.3 365.2 203.3 360.25 209.5 354.1 222.05 341.7 230 325.7 237.65 312.35 241.1 297.15 241.4 295.95 241.35 294.8 241.1 283.8 229.2 280.55
L 226.45 279 253.15 237.5 253.75 262.35 257.65 242.2 270.05 275.7 254.8 270.25 237.4 275.7 232.5 279.8
Q 236.95 279.3 240.35 276.4 246.55 271.2 253.35 273.65 266.7 278.35 275.5 288.45 268.6 290.6 261.6 292.35 256.6 293.7 254.8 298.3
L 263 313 248.9 321.3 248.5 321.55 248.95 321.4 254.3 319.85 261.5 315.9 262.3 315.65
Q 257.35 344.45 236.65 365.6 211.95 390.75 177.85 399.85
L 172.2 404.25 170.35 406.45 162.75 417.15 161.8 401.85 160.45 398.05 160.2 401 153.85 395
Q 152.4 393.3 150.65 392.05 145.4 388.2 145.65 392.35
L 159.8 402.4 157.2 418.3
Q 151 409.45 142.25 403.05 141.05 402.2 139.75 402.35 109.2 399.9 79.3 392.85 70.85 390.85 63.35 386.65 32.45 369.6 14.4 338.45
L 5.9 326.25 10.65 313.45
Q 15.45 306.7 15.65 299.05 15.7 296.9 14.4 295.2
L -4 286.7 4.7 264.5 27.15 219.1
M 250.6 301
L 247.75 309.15 247.8 319.1 250.6 301
M 200.1 376.75
Q 194.2 380.6 187.5 382 179.8 383.75 185.85 384.55
L 210 373.3
Q 211.05 372.75 212 372.15 241.4 354.6 247.95 322.05
L 226 354.6 200.1 376.75
M 175.3 390.65
L 172.85 391.75 166.25 400.4 175.3 390.65
M 30.1 300.8
L 30.55 307.65 20.1 317.65 17.6 323.65 31.65 310.1
Q 36.95 342.1 59.4 365.9 68.4 375.4 80.7 380 107.75 389.9 136.6 391.9
L 141.05 391.95 141.3 391.55
Q 132.6 388.8 123.35 387.85 112 387.1 101.15 384.3 82.2 379.2 67.45 366.6 39.3 342.45 34.2 305.2
L 30.55 289.05 30.1 300.8
M 160.35 338
L 160.75 342 175.75 373.4
Q 176.1 374.4 176.7 374.95 177.25 375.45 177.25 375.15 176.55 365.5 170.6 356.55
L 160.35 338
M 158.35 343.15
L 158.85 336.85 147.5 374.8 156.3 350.95 158.35 343.15
M 16.65 285.9
Q 20.05 285.2 16.7 284.05
L 5.75 283.45 -1.05 285.5
Q 7.25 288.2 16.65 285.9
M 29.3 240.45
Q 28.5 232.75 25.75 229.35
L 25.2 236
Q 25.85 252.75 27.35 269.25 27.95 275.9 30.25 281.95 30.4 282.35 30.65 280.35 31.2 259.5 29.3 240.45
M 153.9 166.9
Q 151.5 172.35 152 178.35 153.5 195.8 157.2 212.7
L 156.5 214.35 157.6 298.35 162.55 226.2 168.9 224.35 180.3 229.6 163.9 216.55 153.9 166.9
M 161.9 26
Q 160.9 22.8 158.45 20.55 145.55 9.15 131.15 19.95 128.35 22 127.1 25.25 119.75 44.35 126.6 64.1
L 155.3 64.5
Q 163.3 62.35 164.5 54.3 166.75 39.5 161.9 26
M 142.6 25.65
Q 144.95 25.05 147.25 25.35 149.7 25.7 150.95 27.7 159.6 41.1 155 57.45
L 134.9 57.8
Q 135.25 50.65 133.8 43.65 131.05 30.5 142.6 25.65 Z"/>

<path fill="#FFFFFF" stroke="none" d="
M 261.5 315.9
L 254.3 319.85 248.95 321.4 249.85 323.2 261.5 315.9
M 251.85 299.1
Q 250.65 299.9 250.6 301
L 247.8 319.1 248.9 321.3 263 313 254.8 298.3
Q 253.1 298.35 251.85 299.1
M 185.85 384.55
L 175.3 390.65 166.25 400.4 172.85 391.75 161.8 401.85 162.75 417.15 170.35 406.45 172.2 404.25 177.85 399.85 210 373.3 185.85 384.55
M 254.8 270.25
L 270.05 275.7 257.65 242.2 253.75 262.35 254.8 270.25
M 155.45 319.85
L 156.3 321.95 183.15 370.9 185.7 370.6 186.85 366.25 158 313.6 155.45 319.85
M 58 337.25
L 48.95 324.25
Q 49 326.95 50.2 329.55 58.2 347.05 70.25 362.3 72.7 365.4 75.85 367.8 85.7 375.25 97.1 379.25 109.95 383.85 118 375.2
L 112.35 375.35
Q 112.15 372.7 105.3 371.15 74.55 363.95 58 337.25
M 160.75 342
L 158.35 343.15 156.3 350.95 157.1 355.15 159.55 352.7 176.05 378.55 175.75 373.4 160.75 342
M 25.75 229.35
Q 28.5 232.75 29.3 240.45 31.2 259.5 30.65 280.35
L 32.9 283.45 48.45 283.25 50.35 282.85
Q 48.55 279.25 46.75 275.65 33.45 248.55 27.3 219.1
L 27.15 219.1 4.7 264.5 10.55 255.05 25.2 236 25.75 229.35 Z"/>

<path fill="#0099FF" stroke="none" d="
M 254.8 270.25
L 253.75 262.35 253.15 237.5 226.45 279 229.2 280.55
Q 229.2 278.6 231.6 277.15 234 275.75 237.4 275.7
L 254.8 270.25
M 30.55 307.65
L 30.1 300.8 10.65 313.45 5.9 326.25 14.4 338.45 10.45 326.1
Q 17.35 329.75 22.25 337.45 44.9 373.2 83.45 388.7 90.25 391.45 97.4 392.25 117 393.65 136.6 391.9 107.75 389.9 80.7 380 68.4 375.4 59.4 365.9 36.95 342.1 31.65 310.1
L 17.6 323.65 20.1 317.65 30.55 307.65
M 58 337.25
L 46 312.95 34.2 305.2
Q 39.3 342.45 67.45 366.6 82.2 379.2 101.15 384.3 112 387.1 123.35 387.85 132.6 388.8 141.3 391.55
L 141.05 391.95 145.65 392.35
Q 145.4 388.2 150.65 392.05 152.4 393.3 153.85 395
L 160.2 401 160.45 398.05 161.8 401.85 172.85 391.75 175.3 390.65 185.85 384.55
Q 179.8 383.75 187.5 382 194.2 380.6 200.1 376.75
L 226 354.6 247.95 322.05
Q 241.4 354.6 212 372.15 211.05 372.75 210 373.3
L 177.85 399.85
Q 211.95 390.75 236.65 365.6 257.35 344.45 262.3 315.65
L 261.5 315.9 249.85 323.2 248.95 321.4 248.5 321.55 248.9 321.3 247.8 319.1 247.75 309.15 230 325.7
Q 222.05 341.7 209.5 354.1 203.3 360.25 196.3 365.2 193.05 367.45 189.15 368.95
L 186.85 366.25 185.7 370.6 183.15 370.9 156.3 321.95
Q 143.95 351.15 125.55 375.5 125.4 375.75 125 375.75
L 123.65 370.65 118 375.2
Q 109.95 383.85 97.1 379.25 85.7 375.25 75.85 367.8 72.7 365.4 70.25 362.3 58.2 347.05 50.2 329.55 49 326.95 48.95 324.25
L 58 337.25
M 158.85 336.85
L 158.35 343.15 160.75 342 160.35 338 170.6 356.55
Q 176.55 365.5 177.25 375.15 177.25 375.45 176.7 374.95 176.1 374.4 175.75 373.4
L 176.05 378.55 159.55 352.7 157.1 355.15 156.3 350.95 147.5 374.8 158.85 336.85
M 50.55 283.3
L 50.35 282.85 48.45 283.25 50.55 283.3
M 10.55 255.05
L 5.75 283.45 16.7 284.05 32.9 283.45 30.65 280.35
Q 30.4 282.35 30.25 281.95 27.95 275.9 27.35 269.25 25.85 252.75 25.2 236
L 10.55 255.05
M 27.15 219.1
L 27.3 219.1 27.4 218.85
Q 27.3 218.85 27.15 219.1 Z"/>

<path fill="#003399" stroke="none" d="
M 275.5 288.45
Q 266.7 278.35 253.35 273.65 246.55 271.2 240.35 276.4 236.95 279.3 232.5 279.8
L 237.4 275.7
Q 234 275.75 231.6 277.15 229.2 278.6 229.2 280.55 241.1 283.8 241.35 294.8 241.4 295.95 241.1 297.15 237.65 312.35 230 325.7
L 247.75 309.15 250.6 301
Q 250.65 299.9 251.85 299.1 253.1 298.35 254.8 298.3 256.6 293.7 261.6 292.35 268.6 290.6 275.5 288.45
M 156.3 321.95
L 155.45 319.85 124.65 368 124.3 368.95
Q 126.05 368.7 124.2 370.2 123.95 370.4 123.65 370.65
L 125 375.75
Q 125.4 375.75 125.55 375.5 143.95 351.15 156.3 321.95
M 10.45 326.1
L 14.4 338.45
Q 32.45 369.6 63.35 386.65 70.85 390.85 79.3 392.85 109.2 399.9 139.75 402.35 141.05 402.2 142.25 403.05 151 409.45 157.2 418.3
L 159.8 402.4 145.65 392.35 141.05 391.95 136.6 391.9
Q 117 393.65 97.4 392.25 90.25 391.45 83.45 388.7 44.9 373.2 22.25 337.45 17.35 329.75 10.45 326.1
M 5.75 283.45
L 10.55 255.05 4.7 264.5 -4 286.7 14.4 295.2
Q 15.7 296.9 15.65 299.05 15.45 306.7 10.65 313.45
L 30.1 300.8 30.55 289.05 34.2 305.2 46 312.95
Q 40.15 296.6 50.6 283.5 50.65 283.45 50.55 283.3
L 48.45 283.25 32.9 283.45 16.7 284.05
Q 20.05 285.2 16.65 285.9 7.25 288.2 -1.05 285.5
L 5.75 283.45 Z"/>

<path fill="#333333" stroke="none" d="
M 126.15 236.5
Q 128.35 235.2 130.55 233.9 135.1 231.15 139.9 229.05 145.9 226.3 146.8 220.7 146.1 219.6 145 219.7 122 224.75 101 235.35 100.55 239.4 104.95 238.8 105.65 238.85 106.35 238.95
L 142.65 221.95 108.5 239.2
Q 127.35 238.45 136.4 254.1 140.7 261.5 141.55 270.1 144.1 295.7 144.55 321.4
L 159.1 304.2 167.6 316.7
Q 164.25 286.65 168.8 256.95 171.05 242.05 185.1 239.15 193.3 237.55 201.6 237.7 203.35 237.75 204.15 236.7
L 204.9 232.05 163.9 216.55 180.3 229.6 168.9 224.35 162.55 226.2 157.6 298.35 156.25 302.05
Q 152.95 289.8 152.5 276.9 151.5 248.3 126.15 236.5
M 118.05 36.75
Q 118.15 35 118.15 33.2 118.15 16.4 130.45 5.25 107.15 14.9 106.2 40.8 105.45 60.1 115.2 76.1 115.7 76.95 116.65 77.55
L 122.55 72.6
Q 118.55 64.65 116.25 54.85 113.95 45.1 118.05 36.75
M 171.9 72.55
Q 174.85 72.6 175.7 69.65
L 126.6 74.5 119.75 78.05
Q 129.9 77.8 135.5 84.55 143.1 77.5 149.15 82.4 134.4 85.5 136.9 100.95 142.7 137.15 138.1 173.2
L 139 170.55
Q 138.3 191.4 126.05 208.65 146.1 193.75 146.15 168.2 146.2 137.6 145.05 106.8 144.7 98.05 144.3 89.3
L 160.2 85.9 160.35 83.25 158.55 79.8
Q 162.25 72.3 171.9 72.55
M 165.65 62.6
Q 166.7 61.6 167.1 60.4 173.5 42.3 161.9 26 166.75 39.5 164.5 54.3 163.3 62.35 155.3 64.5 160.85 66.9 165.65 62.6 Z"/>

<path fill="#999999" stroke="none" d="
M 159.15 144.2
Q 159.35 122 159.65 99.55
L 157.45 96.6
Q 154.45 101.2 154.3 107.6 153.75 127.95 153.85 148.25 154 177.15 167.9 202.05 180.1 223.9 204.55 230.3 196.85 219.25 184.35 212.25 181.1 210.5 178.8 207.3 158.8 179.3 159.15 144.2
M 162.55 19.45
Q 164.45 21.65 165.9 24.2 176.4 43.25 176.8 65.95 186.6 35.85 164.7 13.8 158.55 7.55 150.55 4.9 145.15 3.25 139.3 3.8 153.05 8.5 162.55 19.45 Z"/>

<path fill="#666666" stroke="none" d="
M 160.2 85.9
L 144.3 89.3
Q 144.7 98.05 145.05 106.8 146.2 137.6 146.15 168.2 146.1 193.75 126.05 208.65 119.4 213.65 112.4 218.6 105.5 223.55 101.9 230.55 100.75 232.75 101 235.35 122 224.75 145 219.7 146.1 219.6 146.8 220.7 145.9 226.3 139.9 229.05 135.1 231.15 130.55 233.9 128.35 235.2 126.15 236.5 151.5 248.3 152.5 276.9 152.95 289.8 156.25 302.05
L 157.6 298.35 156.5 214.35 157.2 212.7
Q 153.5 195.8 152 178.35 151.5 172.35 153.9 166.9
L 163.9 216.55 204.9 232.05 204.55 230.3
Q 180.1 223.9 167.9 202.05 154 177.15 153.85 148.25 153.75 127.95 154.3 107.6 154.45 101.2 157.45 96.6
L 159.65 99.55 160.2 85.9
M 165.9 24.2
Q 164.45 21.65 162.55 19.45 153.05 8.5 139.3 3.8
L 130.45 5.25
Q 118.15 16.4 118.15 33.2 118.15 35 118.05 36.75
L 118.1 39.75 122.5 66.1 126.6 74.5 175.7 69.65 176.8 65.95
Q 176.4 43.25 165.9 24.2
M 167.1 60.4
Q 166.7 61.6 165.65 62.6 160.85 66.9 155.3 64.5
L 126.6 64.1
Q 119.75 44.35 127.1 25.25 128.35 22 131.15 19.95 145.55 9.15 158.45 20.55 160.9 22.8 161.9 26 173.5 42.3 167.1 60.4 Z"/>
</g>
</defs>

<g transform="matrix( 0.2893829345703125, 0, 0, 0.2893829345703125, 25.65,158.2) ">
<g transform="matrix( 1, 0, 0, 1, 88.55,470.8) ">
<g transform="matrix( 0.441009521484375, 0, 0, 1, 268.1,-369.4) ">
<g transform="matrix( 1, 0, 0, 1, 0,0) ">
<use xlink:href="#Symbol_138_0_Layer0_0_FILL"/>
</g>
</g>

<g transform="matrix( 0.441009521484375, 0, 0, 1, 279.7,-126.5) ">
<g transform="matrix( 0.999664306640625, 0, 0, 0.988800048828125, 0.1,-126.3) ">
<g transform="matrix( 1, 0, 0, 1, 0,0) ">
<use filter="url(#Filter_1)" xlink:href="#waterfall_0_Layer0_0_FILL"/>
</g>
</g>
</g>

<g transform="matrix( 0.441009521484375, 0, 0, 1, 279.7,-126.5) ">
<g transform="matrix( 0.9992523193359375, 0, 0, 0.974822998046875, 0.15,236.9) ">
<g transform="matrix( 1, 0, 0, 1, 0,0) ">
<use filter="url(#Filter_1)" xlink:href="#waterfall_0_Layer0_0_FILL"/>
</g>
</g>
</g>

<g transform="matrix( 0.441009521484375, 0, 0, 1, 279.7,-126.5) ">
<g transform="matrix( 0.998931884765625, 0, 0, 0.9636383056640625, 0.25,527.55) ">
<g transform="matrix( 1, 0, 0, 1, 0,0) ">
<use filter="url(#Filter_1)" xlink:href="#waterfall_0_Layer0_0_FILL"/>
</g>
</g>
</g>

<g transform="matrix( -0.9077911376953125, 0, 0, 0.9264984130859375, 664.85,556.5) ">
<g transform="matrix( 1, 0, 0, 1, 0,0) ">
<use xlink:href="#Splash_FULL_copy_4_Layer1_0_FILL"/>
</g>

<g transform="matrix( 1, 0, 0, 1, 111.95,68.5) ">
<g transform="matrix( 1, 0, 0.13299560546875, 1.12225341796875, -25.05,-22.25) ">
<g transform="matrix( 1, 0, 0, 1, 0,0) ">
<use xlink:href="#Splash_Splash_01_0_Layer0_0_FILL"/>
</g>
</g>

<g transform="matrix( 0.7041473388671875, -0.303924560546875, 0.1056365966796875, 0.956817626953125, -152,-166.95) ">
<g transform="matrix( 1, 0, 0, 1, 0,0) ">
<use xlink:href="#Splash_Splash_03_0_Layer0_0_FILL"/>
</g>
</g>

<g transform="matrix( 0.67938232421875, -0.321075439453125, 0.1213226318359375, 0.9495849609375, -76.4,-143.5) ">
<g transform="matrix( 1, 0, 0, 1, 0,0) ">
<use xlink:href="#Splash_Splash_03_copy_0_Layer0_0_FILL"/>
</g>
</g>

<g transform="matrix( 0.7397308349609375, -0.2851409912109375, 0.1056365966796875, 0.956817626953125, 23.35,-325.55) ">
<g transform="matrix( 1, 0, 0, 1, 0,0) ">
<use xlink:href="#Splash_Splash_03_copy_0_Layer0_0_FILL"/>
</g>
</g>

<g transform="matrix( 0.5754852294921875, -0.3752899169921875, 0.201904296875, 0.9030303955078125, -76.8,8.95) ">
<g transform="matrix( 1, 0, 0, 1, 0,0) ">
<use xlink:href="#Splash_Splash_03_copy_0_Layer0_0_FILL"/>
</g>
</g>

<g transform="matrix( 0.57861328125, -0.16107177734375, 0.0461273193359375, 0.648040771484375, -118.25,-29.7) ">
<g transform="matrix( 1, 0, 0, 1, 0,0) ">
<use xlink:href="#Splash_Splash_03_0_Layer0_0_FILL"/>
</g>
</g>

<g transform="matrix( 1.125457763671875, -0.0297088623046875, 0.0453338623046875, 1.29071044921875, 79.45,-51) ">
<g transform="matrix( 1, 0, 0, 1, 0,0) ">
<use xlink:href="#Splash_Splash_03_0_Layer0_0_FILL"/>
</g>
</g>
</g>

<g transform="matrix( -1, 0, 0, 1, 609.35,56.55) ">
<g transform="matrix( 1, 0, 0.13299560546875, 1.12225341796875, -25.05,-22.25) ">
<g transform="matrix( 1, 0, 0, 1, 0,0) ">
<use xlink:href="#Splash_Splash_01_0_Layer0_0_FILL"/>
</g>
</g>

<g transform="matrix( 0.7041473388671875, -0.303924560546875, 0.1056365966796875, 0.956817626953125, -152,-166.95) ">
<g transform="matrix( 1, 0, 0, 1, 0,0) ">
<use xlink:href="#Splash_Splash_03_0_Layer0_0_FILL"/>
</g>
</g>

<g transform="matrix( 0.67938232421875, -0.321075439453125, 0.1213226318359375, 0.9495849609375, -76.4,-143.5) ">
<g transform="matrix( 1, 0, 0, 1, 0,0) ">
<use xlink:href="#Splash_Splash_03_copy_0_Layer0_0_FILL"/>
</g>
</g>

<g transform="matrix( 0.7397308349609375, -0.2851409912109375, 0.1056365966796875, 0.956817626953125, 23.35,-325.55) ">
<g transform="matrix( 1, 0, 0, 1, 0,0) ">
<use xlink:href="#Splash_Splash_03_copy_0_Layer0_0_FILL"/>
</g>
</g>

<g transform="matrix( 0.5754852294921875, -0.3752899169921875, 0.201904296875, 0.9030303955078125, -76.8,8.95) ">
<g transform="matrix( 1, 0, 0, 1, 0,0) ">
<use xlink:href="#Splash_Splash_03_copy_0_Layer0_0_FILL"/>
</g>
</g>

<g transform="matrix( 0.57861328125, -0.16107177734375, 0.0461273193359375, 0.648040771484375, -118.25,-29.7) ">
<g transform="matrix( 1, 0, 0, 1, 0,0) ">
<use xlink:href="#Splash_Splash_03_0_Layer0_0_FILL"/>
</g>
</g>

<g transform="matrix( 1.125457763671875, -0.0297088623046875, 0.0453338623046875, 1.29071044921875, 79.45,-51) ">
<g transform="matrix( 1, 0, 0, 1, 0,0) ">
<use xlink:href="#Splash_Splash_03_0_Layer0_0_FILL"/>
</g>
</g>
</g>

<g transform="matrix( -0.675384521484375, 0, 0, 0.675384521484375, 428.15,85.7) ">
<g transform="matrix( 1, 0, 0.13299560546875, 1.12225341796875, -25.05,-22.25) ">
<g transform="matrix( 1, 0, 0, 1, 0,0) ">
<use xlink:href="#Splash_Splash_01_0_Layer0_0_FILL"/>
</g>
</g>

<g transform="matrix( 0.7041473388671875, -0.303924560546875, 0.1056365966796875, 0.956817626953125, -152,-166.95) ">
<g transform="matrix( 1, 0, 0, 1, 0,0) ">
<use xlink:href="#Splash_Splash_03_0_Layer0_0_FILL"/>
</g>
</g>

<g transform="matrix( 0.67938232421875, -0.321075439453125, 0.1213226318359375, 0.9495849609375, -76.4,-143.5) ">
<g transform="matrix( 1, 0, 0, 1, 0,0) ">
<use xlink:href="#Splash_Splash_03_copy_0_Layer0_0_FILL"/>
</g>
</g>

<g transform="matrix( 0.7397308349609375, -0.2851409912109375, 0.1056365966796875, 0.956817626953125, 23.35,-325.55) ">
<g transform="matrix( 1, 0, 0, 1, 0,0) ">
<use xlink:href="#Splash_Splash_03_copy_0_Layer0_0_FILL"/>
</g>
</g>

<g transform="matrix( 0.5754852294921875, -0.3752899169921875, 0.201904296875, 0.9030303955078125, -76.8,8.95) ">
<g transform="matrix( 1, 0, 0, 1, 0,0) ">
<use xlink:href="#Splash_Splash_03_copy_0_Layer0_0_FILL"/>
</g>
</g>

<g transform="matrix( 0.57861328125, -0.16107177734375, 0.0461273193359375, 0.648040771484375, -118.25,-29.7) ">
<g transform="matrix( 1, 0, 0, 1, 0,0) ">
<use xlink:href="#Splash_Splash_03_0_Layer0_0_FILL"/>
</g>
</g>

<g transform="matrix( 1.125457763671875, -0.0297088623046875, 0.0453338623046875, 1.29071044921875, 79.45,-51) ">
<g transform="matrix( 1, 0, 0, 1, 0,0) ">
<use xlink:href="#Splash_Splash_03_0_Layer0_0_FILL"/>
</g>
</g>
</g>

<g transform="matrix( 0.4836273193359375, 0, 0, 0.4836273193359375, 109.1,127.55) ">
<g transform="matrix( 1, 0, 0.13299560546875, 1.12225341796875, -25.05,-22.25) ">
<g transform="matrix( 1, 0, 0, 1, 0,0) ">
<use xlink:href="#Splash_Splash_01_0_Layer0_0_FILL"/>
</g>
</g>

<g transform="matrix( 0.7041473388671875, -0.303924560546875, 0.1056365966796875, 0.956817626953125, -152,-166.95) ">
<g transform="matrix( 1, 0, 0, 1, 0,0) ">
<use xlink:href="#Splash_Splash_03_0_Layer0_0_FILL"/>
</g>
</g>

<g transform="matrix( 0.67938232421875, -0.321075439453125, 0.1213226318359375, 0.9495849609375, -76.4,-143.5) ">
<g transform="matrix( 1, 0, 0, 1, 0,0) ">
<use xlink:href="#Splash_Splash_03_copy_0_Layer0_0_FILL"/>
</g>
</g>

<g transform="matrix( 0.7397308349609375, -0.2851409912109375, 0.1056365966796875, 0.956817626953125, 23.35,-325.55) ">
<g transform="matrix( 1, 0, 0, 1, 0,0) ">
<use xlink:href="#Splash_Splash_03_copy_0_Layer0_0_FILL"/>
</g>
</g>

<g transform="matrix( 0.5754852294921875, -0.3752899169921875, 0.201904296875, 0.9030303955078125, -76.8,8.95) ">
<g transform="matrix( 1, 0, 0, 1, 0,0) ">
<use xlink:href="#Splash_Splash_03_copy_0_Layer0_0_FILL"/>
</g>
</g>

<g transform="matrix( 0.57861328125, -0.16107177734375, 0.0461273193359375, 0.648040771484375, -118.25,-29.7) ">
<g transform="matrix( 1, 0, 0, 1, 0,0) ">
<use xlink:href="#Splash_Splash_03_0_Layer0_0_FILL"/>
</g>
</g>

<g transform="matrix( 1.125457763671875, -0.0297088623046875, 0.0453338623046875, 1.29071044921875, 79.45,-51) ">
<g transform="matrix( 1, 0, 0, 1, 0,0) ">
<use xlink:href="#Splash_Splash_03_0_Layer0_0_FILL"/>
</g>
</g>
</g>

<g transform="matrix( 0.63238525390625, 0, 0, 1.557403564453125, 242.15,-19.2) ">
<g transform="matrix( 1, 0, 0.13299560546875, 1.12225341796875, -25.05,-22.25) ">
<g transform="matrix( 1, 0, 0, 1, 0,0) ">
<use xlink:href="#Splash_Splash_01_0_Layer0_0_FILL"/>
</g>
</g>

<g transform="matrix( 0.7041473388671875, -0.303924560546875, 0.1056365966796875, 0.956817626953125, -152,-166.95) ">
<g transform="matrix( 1, 0, 0, 1, 0,0) ">
<use xlink:href="#Splash_Splash_03_0_Layer0_0_FILL"/>
</g>
</g>

<g transform="matrix( 0.67938232421875, -0.321075439453125, 0.1213226318359375, 0.9495849609375, -76.4,-143.5) ">
<g transform="matrix( 1, 0, 0, 1, 0,0) ">
<use xlink:href="#Splash_Splash_03_copy_0_Layer0_0_FILL"/>
</g>
</g>

<g transform="matrix( 0.7397308349609375, -0.2851409912109375, 0.1056365966796875, 0.956817626953125, 23.35,-325.55) ">
<g transform="matrix( 1, 0, 0, 1, 0,0) ">
<use xlink:href="#Splash_Splash_03_copy_0_Layer0_0_FILL"/>
</g>
</g>

<g transform="matrix( 0.5754852294921875, -0.3752899169921875, 0.201904296875, 0.9030303955078125, -76.8,8.95) ">
<g transform="matrix( 1, 0, 0, 1, 0,0) ">
<use xlink:href="#Splash_Splash_03_copy_0_Layer0_0_FILL"/>
</g>
</g>

<g transform="matrix( 0.57861328125, -0.16107177734375, 0.0461273193359375, 0.648040771484375, -118.25,-29.7) ">
<g transform="matrix( 1, 0, 0, 1, 0,0) ">
<use xlink:href="#Splash_Splash_03_0_Layer0_0_FILL"/>
</g>
</g>

<g transform="matrix( 1.125457763671875, -0.0297088623046875, 0.0453338623046875, 1.29071044921875, 79.45,-51) ">
<g transform="matrix( 1, 0, 0, 1, 0,0) ">
<use xlink:href="#Splash_Splash_03_0_Layer0_0_FILL"/>
</g>
</g>
</g>
</g>

<g transform="matrix( -0.60040283203125, 0, 0, 0.970794677734375, 723.05,511.65) ">
<g transform="matrix( 1, 0, 0, 1, 0,0) ">
<use xlink:href="#Splash_FULL_copy_8_Layer1_0_FILL"/>
</g>

<g transform="matrix( 1, 0, 0, 1, 111.95,68.5) ">
<g transform="matrix( 1, 0, 0.191864013671875, 1.084930419921875, -36.2,-15.2) ">
<g transform="matrix( 1, 0, 0, 1, 0,0) ">
<use xlink:href="#Splash_Splash_01_0_Layer0_0_FILL"/>
</g>
</g>

<g transform="matrix( 0.60247802734375, -0.472991943359375, 0.2018280029296875, 0.9029541015625, -203.2,-147.65) ">
<g transform="matrix( 1, 0, 0, 1, 0,0) ">
<use xlink:href="#Splash_Splash_03_0_Layer0_0_FILL"/>
</g>
</g>

<g transform="matrix( 0.590576171875, -0.4231414794921875, 0.2018585205078125, 0.9029998779296875, -128.7,-144.4) ">
<g transform="matrix( 1, 0, 0, 1, 0,0) ">
<use xlink:href="#Splash_Splash_03_copy_0_Layer0_0_FILL"/>
</g>
</g>

<g transform="matrix( 0.5754852294921875, -0.3752899169921875, 0.201904296875, 0.9030303955078125, -2.3,-335.75) ">
<g transform="matrix( 1, 0, 0, 1, 0,0) ">
<use xlink:href="#Splash_Splash_03_copy_0_Layer0_0_FILL"/>
</g>
</g>

<g transform="matrix( 0.5663604736328125, -0.921722412109375, 0.20147705078125, 0.9026947021484375, -137.75,97) ">
<g transform="matrix( 1, 0, 0, 1, 0,0) ">
<use xlink:href="#Splash_Splash_03_copy_0_Layer0_0_FILL"/>
</g>
</g>

<g transform="matrix( 0.5754852294921875, -0.3752899169921875, 0.201904296875, 0.9030303955078125, -258.85,-78.15) ">
<g transform="matrix( 1, 0, 0, 1, 0,0) ">
<use xlink:href="#Splash_Splash_03_0_Layer0_0_FILL"/>
</g>
</g>

<g transform="matrix( 1.193634033203125, -0.0533905029296875, 0.1240997314453125, 1.120208740234375, 58,-23.25) ">
<g transform="matrix( 1, 0, 0, 1, 0,0) ">
<use xlink:href="#Splash_Splash_03_0_Layer0_0_FILL"/>
</g>
</g>
</g>

<g transform="matrix( -1, 0, 0, 1, 609.35,56.55) ">
<g transform="matrix( 1, 0, 0.191864013671875, 1.084930419921875, -36.2,-15.2) ">
<g transform="matrix( 1, 0, 0, 1, 0,0) ">
<use xlink:href="#Splash_Splash_01_0_Layer0_0_FILL"/>
</g>
</g>

<g transform="matrix( 0.60247802734375, -0.472991943359375, 0.2018280029296875, 0.9029541015625, -203.2,-147.65) ">
<g transform="matrix( 1, 0, 0, 1, 0,0) ">
<use xlink:href="#Splash_Splash_03_0_Layer0_0_FILL"/>
</g>
</g>

<g transform="matrix( 0.590576171875, -0.4231414794921875, 0.2018585205078125, 0.9029998779296875, -128.7,-144.4) ">
<g transform="matrix( 1, 0, 0, 1, 0,0) ">
<use xlink:href="#Splash_Splash_03_copy_0_Layer0_0_FILL"/>
</g>
</g>

<g transform="matrix( 0.5754852294921875, -0.3752899169921875, 0.201904296875, 0.9030303955078125, -2.3,-335.75) ">
<g transform="matrix( 1, 0, 0, 1, 0,0) ">
<use xlink:href="#Splash_Splash_03_copy_0_Layer0_0_FILL"/>
</g>
</g>

<g transform="matrix( 0.5663604736328125, -0.921722412109375, 0.20147705078125, 0.9026947021484375, -137.75,97) ">
<g transform="matrix( 1, 0, 0, 1, 0,0) ">
<use xlink:href="#Splash_Splash_03_copy_0_Layer0_0_FILL"/>
</g>
</g>

<g transform="matrix( 0.5754852294921875, -0.3752899169921875, 0.201904296875, 0.9030303955078125, -258.85,-78.15) ">
<g transform="matrix( 1, 0, 0, 1, 0,0) ">
<use xlink:href="#Splash_Splash_03_0_Layer0_0_FILL"/>
</g>
</g>

<g transform="matrix( 1.193634033203125, -0.0533905029296875, 0.1240997314453125, 1.120208740234375, 58,-23.25) ">
<g transform="matrix( 1, 0, 0, 1, 0,0) ">
<use xlink:href="#Splash_Splash_03_0_Layer0_0_FILL"/>
</g>
</g>
</g>

<g transform="matrix( -0.675384521484375, 0, 0, 0.675384521484375, 428.15,85.7) ">
<g transform="matrix( 1, 0, 0.191864013671875, 1.084930419921875, -36.2,-15.2) ">
<g transform="matrix( 1, 0, 0, 1, 0,0) ">
<use xlink:href="#Splash_Splash_01_0_Layer0_0_FILL"/>
</g>
</g>

<g transform="matrix( 0.60247802734375, -0.472991943359375, 0.2018280029296875, 0.9029541015625, -203.2,-147.65) ">
<g transform="matrix( 1, 0, 0, 1, 0,0) ">
<use xlink:href="#Splash_Splash_03_0_Layer0_0_FILL"/>
</g>
</g>

<g transform="matrix( 0.590576171875, -0.4231414794921875, 0.2018585205078125, 0.9029998779296875, -128.7,-144.4) ">
<g transform="matrix( 1, 0, 0, 1, 0,0) ">
<use xlink:href="#Splash_Splash_03_copy_0_Layer0_0_FILL"/>
</g>
</g>

<g transform="matrix( 0.5754852294921875, -0.3752899169921875, 0.201904296875, 0.9030303955078125, -2.3,-335.75) ">
<g transform="matrix( 1, 0, 0, 1, 0,0) ">
<use xlink:href="#Splash_Splash_03_copy_0_Layer0_0_FILL"/>
</g>
</g>

<g transform="matrix( 0.5663604736328125, -0.921722412109375, 0.20147705078125, 0.9026947021484375, -137.75,97) ">
<g transform="matrix( 1, 0, 0, 1, 0,0) ">
<use xlink:href="#Splash_Splash_03_copy_0_Layer0_0_FILL"/>
</g>
</g>

<g transform="matrix( 0.5754852294921875, -0.3752899169921875, 0.201904296875, 0.9030303955078125, -258.85,-78.15) ">
<g transform="matrix( 1, 0, 0, 1, 0,0) ">
<use xlink:href="#Splash_Splash_03_0_Layer0_0_FILL"/>
</g>
</g>

<g transform="matrix( 1.193634033203125, -0.0533905029296875, 0.1240997314453125, 1.120208740234375, 58,-23.25) ">
<g transform="matrix( 1, 0, 0, 1, 0,0) ">
<use xlink:href="#Splash_Splash_03_0_Layer0_0_FILL"/>
</g>
</g>
</g>

<g transform="matrix( 0.4836273193359375, 0, 0, 0.4836273193359375, 109.1,127.55) ">
<g transform="matrix( 1, 0, 0.191864013671875, 1.084930419921875, -36.2,-15.2) ">
<g transform="matrix( 1, 0, 0, 1, 0,0) ">
<use xlink:href="#Splash_Splash_01_0_Layer0_0_FILL"/>
</g>
</g>

<g transform="matrix( 0.60247802734375, -0.472991943359375, 0.2018280029296875, 0.9029541015625, -203.2,-147.65) ">
<g transform="matrix( 1, 0, 0, 1, 0,0) ">
<use xlink:href="#Splash_Splash_03_0_Layer0_0_FILL"/>
</g>
</g>

<g transform="matrix( 0.590576171875, -0.4231414794921875, 0.2018585205078125, 0.9029998779296875, -128.7,-144.4) ">
<g transform="matrix( 1, 0, 0, 1, 0,0) ">
<use xlink:href="#Splash_Splash_03_copy_0_Layer0_0_FILL"/>
</g>
</g>

<g transform="matrix( 0.5754852294921875, -0.3752899169921875, 0.201904296875, 0.9030303955078125, -2.3,-335.75) ">
<g transform="matrix( 1, 0, 0, 1, 0,0) ">
<use xlink:href="#Splash_Splash_03_copy_0_Layer0_0_FILL"/>
</g>
</g>

<g transform="matrix( 0.5663604736328125, -0.921722412109375, 0.20147705078125, 0.9026947021484375, -137.75,97) ">
<g transform="matrix( 1, 0, 0, 1, 0,0) ">
<use xlink:href="#Splash_Splash_03_copy_0_Layer0_0_FILL"/>
</g>
</g>

<g transform="matrix( 0.5754852294921875, -0.3752899169921875, 0.201904296875, 0.9030303955078125, -258.85,-78.15) ">
<g transform="matrix( 1, 0, 0, 1, 0,0) ">
<use xlink:href="#Splash_Splash_03_0_Layer0_0_FILL"/>
</g>
</g>

<g transform="matrix( 1.193634033203125, -0.0533905029296875, 0.1240997314453125, 1.120208740234375, 58,-23.25) ">
<g transform="matrix( 1, 0, 0, 1, 0,0) ">
<use xlink:href="#Splash_Splash_03_0_Layer0_0_FILL"/>
</g>
</g>
</g>

<g transform="matrix( 0.63238525390625, 0, 0, 1.557403564453125, 242.15,-19.2) ">
<g transform="matrix( 1, 0, 0.191864013671875, 1.084930419921875, -36.2,-15.2) ">
<g transform="matrix( 1, 0, 0, 1, 0,0) ">
<use xlink:href="#Splash_Splash_01_0_Layer0_0_FILL"/>
</g>
</g>

<g transform="matrix( 0.60247802734375, -0.472991943359375, 0.2018280029296875, 0.9029541015625, -203.2,-147.65) ">
<g transform="matrix( 1, 0, 0, 1, 0,0) ">
<use xlink:href="#Splash_Splash_03_0_Layer0_0_FILL"/>
</g>
</g>

<g transform="matrix( 0.590576171875, -0.4231414794921875, 0.2018585205078125, 0.9029998779296875, -128.7,-144.4) ">
<g transform="matrix( 1, 0, 0, 1, 0,0) ">
<use xlink:href="#Splash_Splash_03_copy_0_Layer0_0_FILL"/>
</g>
</g>

<g transform="matrix( 0.5754852294921875, -0.3752899169921875, 0.201904296875, 0.9030303955078125, -2.3,-335.75) ">
<g transform="matrix( 1, 0, 0, 1, 0,0) ">
<use xlink:href="#Splash_Splash_03_copy_0_Layer0_0_FILL"/>
</g>
</g>

<g transform="matrix( 0.5663604736328125, -0.921722412109375, 0.20147705078125, 0.9026947021484375, -137.75,97) ">
<g transform="matrix( 1, 0, 0, 1, 0,0) ">
<use xlink:href="#Splash_Splash_03_copy_0_Layer0_0_FILL"/>
</g>
</g>

<g transform="matrix( 0.5754852294921875, -0.3752899169921875, 0.201904296875, 0.9030303955078125, -258.85,-78.15) ">
<g transform="matrix( 1, 0, 0, 1, 0,0) ">
<use xlink:href="#Splash_Splash_03_0_Layer0_0_FILL"/>
</g>
</g>

<g transform="matrix( 1.193634033203125, -0.0533905029296875, 0.1240997314453125, 1.120208740234375, 58,-23.25) ">
<g transform="matrix( 1, 0, 0, 1, 0,0) ">
<use xlink:href="#Splash_Splash_03_0_Layer0_0_FILL"/>
</g>
</g>
</g>
</g>

<g transform="matrix( 0.565216064453125, 0, 0, 0.7543182373046875, 16.8,594.6) ">
<g transform="matrix( 1, 0, 0, 1, 111.95,68.5) ">
<g transform="matrix( 1, 0, -0.4731292724609375, 0.320556640625, 89.7,129.5) ">
<g transform="matrix( 1, 0, 0, 1, 0,0) ">
<use xlink:href="#Splash_Splash_01_0_Layer0_0_FILL"/>
</g>
</g>

<g transform="matrix( 1, 0, 0, 1, 135.45,92) ">
<g transform="matrix( 1, 0, 0, 1, 0,0) ">
<use xlink:href="#Splash_Splash_03_copy_0_Layer0_0_FILL"/>
</g>
</g>

<g transform="matrix( 1, 0, 0, 1, 137.3,87.15) ">
<g transform="matrix( 1, 0, 0, 1, 0,0) ">
<use xlink:href="#Splash_Splash_03_copy_0_Layer0_0_FILL"/>
</g>
</g>

<g transform="matrix( 1, 0, 0, 1, 136.2,95.75) ">
<g transform="matrix( 1, 0, 0, 1, 0,0) ">
<use xlink:href="#Splash_Splash_03_copy_0_Layer0_0_FILL"/>
</g>
</g>
</g>

<g transform="matrix( -1, 0, 0, 1, 609.35,56.55) ">
<g transform="matrix( 1, 0, -0.4731292724609375, 0.320556640625, 89.7,129.5) ">
<g transform="matrix( 1, 0, 0, 1, 0,0) ">
<use xlink:href="#Splash_Splash_01_0_Layer0_0_FILL"/>
</g>
</g>

<g transform="matrix( 1, 0, 0, 1, 135.45,92) ">
<g transform="matrix( 1, 0, 0, 1, 0,0) ">
<use xlink:href="#Splash_Splash_03_copy_0_Layer0_0_FILL"/>
</g>
</g>

<g transform="matrix( 1, 0, 0, 1, 137.3,87.15) ">
<g transform="matrix( 1, 0, 0, 1, 0,0) ">
<use xlink:href="#Splash_Splash_03_copy_0_Layer0_0_FILL"/>
</g>
</g>

<g transform="matrix( 1, 0, 0, 1, 136.2,95.75) ">
<g transform="matrix( 1, 0, 0, 1, 0,0) ">
<use xlink:href="#Splash_Splash_03_copy_0_Layer0_0_FILL"/>
</g>
</g>
</g>

<g transform="matrix( -0.675384521484375, 0, 0, 0.675384521484375, 428.15,85.7) ">
<g transform="matrix( 1, 0, -0.4731292724609375, 0.320556640625, 89.7,129.5) ">
<g transform="matrix( 1, 0, 0, 1, 0,0) ">
<use xlink:href="#Splash_Splash_01_0_Layer0_0_FILL"/>
</g>
</g>

<g transform="matrix( 1, 0, 0, 1, 135.45,92) ">
<g transform="matrix( 1, 0, 0, 1, 0,0) ">
<use xlink:href="#Splash_Splash_03_copy_0_Layer0_0_FILL"/>
</g>
</g>

<g transform="matrix( 1, 0, 0, 1, 137.3,87.15) ">
<g transform="matrix( 1, 0, 0, 1, 0,0) ">
<use xlink:href="#Splash_Splash_03_copy_0_Layer0_0_FILL"/>
</g>
</g>

<g transform="matrix( 1, 0, 0, 1, 136.2,95.75) ">
<g transform="matrix( 1, 0, 0, 1, 0,0) ">
<use xlink:href="#Splash_Splash_03_copy_0_Layer0_0_FILL"/>
</g>
</g>
</g>

<g transform="matrix( 0.4836273193359375, 0, 0, 0.4836273193359375, 109.1,127.55) ">
<g transform="matrix( 1, 0, -0.4731292724609375, 0.320556640625, 89.7,129.5) ">
<g transform="matrix( 1, 0, 0, 1, 0,0) ">
<use xlink:href="#Splash_Splash_01_0_Layer0_0_FILL"/>
</g>
</g>

<g transform="matrix( 1, 0, 0, 1, 135.45,92) ">
<g transform="matrix( 1, 0, 0, 1, 0,0) ">
<use xlink:href="#Splash_Splash_03_copy_0_Layer0_0_FILL"/>
</g>
</g>

<g transform="matrix( 1, 0, 0, 1, 137.3,87.15) ">
<g transform="matrix( 1, 0, 0, 1, 0,0) ">
<use xlink:href="#Splash_Splash_03_copy_0_Layer0_0_FILL"/>
</g>
</g>

<g transform="matrix( 1, 0, 0, 1, 136.2,95.75) ">
<g transform="matrix( 1, 0, 0, 1, 0,0) ">
<use xlink:href="#Splash_Splash_03_copy_0_Layer0_0_FILL"/>
</g>
</g>
</g>

<g transform="matrix( 0.63238525390625, 0, 0, 1.557403564453125, 242.15,-19.2) ">
<g transform="matrix( 1, 0, -0.4731292724609375, 0.320556640625, 89.7,129.5) ">
<g transform="matrix( 1, 0, 0, 1, 0,0) ">
<use xlink:href="#Splash_Splash_01_0_Layer0_0_FILL"/>
</g>
</g>

<g transform="matrix( 1, 0, 0, 1, 135.45,92) ">
<g transform="matrix( 1, 0, 0, 1, 0,0) ">
<use xlink:href="#Splash_Splash_03_copy_0_Layer0_0_FILL"/>
</g>
</g>

<g transform="matrix( 1, 0, 0, 1, 137.3,87.15) ">
<g transform="matrix( 1, 0, 0, 1, 0,0) ">
<use xlink:href="#Splash_Splash_03_copy_0_Layer0_0_FILL"/>
</g>
</g>

<g transform="matrix( 1, 0, 0, 1, 136.2,95.75) ">
<g transform="matrix( 1, 0, 0, 1, 0,0) ">
<use xlink:href="#Splash_Splash_03_copy_0_Layer0_0_FILL"/>
</g>
</g>
</g>
</g>

<g transform="matrix( 0.441009521484375, 0, 0, 1, 279.7,-126.5) ">
<g transform="matrix( 0.9944915771484375, 0, 0, 0.802642822265625, 1.1,35.9) ">
<g transform="matrix( 1, 0, 0, 1, 0,0) ">
<use xlink:href="#waterfall_0_Layer0_0_FILL"/>
</g>
</g>
</g>

<g transform="matrix( 0.441009521484375, 0, 0, 1, 279.7,-126.5) ">
<g transform="matrix( 1.6014251708984375, 0, 0, 0.453338623046875, -131.4,787.85) ">
<g transform="matrix( 1, 0, 0, 1, 0,0) ">
<use filter="url(#Filter_2)" xlink:href="#waterfall_0_Layer0_0_FILL"/>
</g>
</g>
</g>
</g>

<g transform="matrix( 1.4015655517578125, 0.0932159423828125, -0.0932159423828125, 1.4015655517578125, 300.55,631.85) ">
<g transform="matrix( 1, 0, 0, 1, 0,0) ">
<use xlink:href="#Symbol_169_0_Layer0_0_FILL"/>
</g>
</g>

<g transform="matrix( -0.60040283203125, 0, 0, 0.970794677734375, 670.3,1033.45) ">
<g transform="matrix( 1, 0, 0, 1, 0,0) ">
<use xlink:href="#Splash_FULL_copy_8_Layer1_0_FILL"/>
</g>

<g transform="matrix( 1, 0, 0, 1, 111.95,68.5) ">
<g transform="matrix( 1, 0, 0.191864013671875, 1.084930419921875, -36.2,-15.2) ">
<g transform="matrix( 1, 0, 0, 1, 0,0) ">
<use xlink:href="#Splash_Splash_01_0_Layer0_0_FILL"/>
</g>
</g>

<g transform="matrix( 0.60247802734375, -0.472991943359375, 0.2018280029296875, 0.9029541015625, -203.2,-147.65) ">
<g transform="matrix( 1, 0, 0, 1, 0,0) ">
<use xlink:href="#Splash_Splash_03_0_Layer0_0_FILL"/>
</g>
</g>

<g transform="matrix( 0.590576171875, -0.4231414794921875, 0.2018585205078125, 0.9029998779296875, -128.7,-144.4) ">
<g transform="matrix( 1, 0, 0, 1, 0,0) ">
<use xlink:href="#Splash_Splash_03_copy_0_Layer0_0_FILL"/>
</g>
</g>

<g transform="matrix( 0.5754852294921875, -0.3752899169921875, 0.201904296875, 0.9030303955078125, -2.3,-335.75) ">
<g transform="matrix( 1, 0, 0, 1, 0,0) ">
<use xlink:href="#Splash_Splash_03_copy_0_Layer0_0_FILL"/>
</g>
</g>

<g transform="matrix( 0.5663604736328125, -0.921722412109375, 0.20147705078125, 0.9026947021484375, -137.75,97) ">
<g transform="matrix( 1, 0, 0, 1, 0,0) ">
<use xlink:href="#Splash_Splash_03_copy_0_Layer0_0_FILL"/>
</g>
</g>

<g transform="matrix( 0.5754852294921875, -0.3752899169921875, 0.201904296875, 0.9030303955078125, -258.85,-78.15) ">
<g transform="matrix( 1, 0, 0, 1, 0,0) ">
<use xlink:href="#Splash_Splash_03_0_Layer0_0_FILL"/>
</g>
</g>

<g transform="matrix( 1.193634033203125, -0.0533905029296875, 0.1240997314453125, 1.120208740234375, 58,-23.25) ">
<g transform="matrix( 1, 0, 0, 1, 0,0) ">
<use xlink:href="#Splash_Splash_03_0_Layer0_0_FILL"/>
</g>
</g>
</g>

<g transform="matrix( -1, 0, 0, 1, 609.35,56.55) ">
<g transform="matrix( 1, 0, 0.191864013671875, 1.084930419921875, -36.2,-15.2) ">
<g transform="matrix( 1, 0, 0, 1, 0,0) ">
<use xlink:href="#Splash_Splash_01_0_Layer0_0_FILL"/>
</g>
</g>

<g transform="matrix( 0.60247802734375, -0.472991943359375, 0.2018280029296875, 0.9029541015625, -203.2,-147.65) ">
<g transform="matrix( 1, 0, 0, 1, 0,0) ">
<use xlink:href="#Splash_Splash_03_0_Layer0_0_FILL"/>
</g>
</g>

<g transform="matrix( 0.590576171875, -0.4231414794921875, 0.2018585205078125, 0.9029998779296875, -128.7,-144.4) ">
<g transform="matrix( 1, 0, 0, 1, 0,0) ">
<use xlink:href="#Splash_Splash_03_copy_0_Layer0_0_FILL"/>
</g>
</g>

<g transform="matrix( 0.5754852294921875, -0.3752899169921875, 0.201904296875, 0.9030303955078125, -2.3,-335.75) ">
<g transform="matrix( 1, 0, 0, 1, 0,0) ">
<use xlink:href="#Splash_Splash_03_copy_0_Layer0_0_FILL"/>
</g>
</g>

<g transform="matrix( 0.5663604736328125, -0.921722412109375, 0.20147705078125, 0.9026947021484375, -137.75,97) ">
<g transform="matrix( 1, 0, 0, 1, 0,0) ">
<use xlink:href="#Splash_Splash_03_copy_0_Layer0_0_FILL"/>
</g>
</g>

<g transform="matrix( 0.5754852294921875, -0.3752899169921875, 0.201904296875, 0.9030303955078125, -258.85,-78.15) ">
<g transform="matrix( 1, 0, 0, 1, 0,0) ">
<use xlink:href="#Splash_Splash_03_0_Layer0_0_FILL"/>
</g>
</g>

<g transform="matrix( 1.193634033203125, -0.0533905029296875, 0.1240997314453125, 1.120208740234375, 58,-23.25) ">
<g transform="matrix( 1, 0, 0, 1, 0,0) ">
<use xlink:href="#Splash_Splash_03_0_Layer0_0_FILL"/>
</g>
</g>
</g>

<g transform="matrix( -0.675384521484375, 0, 0, 0.675384521484375, 428.15,85.7) ">
<g transform="matrix( 1, 0, 0.191864013671875, 1.084930419921875, -36.2,-15.2) ">
<g transform="matrix( 1, 0, 0, 1, 0,0) ">
<use xlink:href="#Splash_Splash_01_0_Layer0_0_FILL"/>
</g>
</g>

<g transform="matrix( 0.60247802734375, -0.472991943359375, 0.2018280029296875, 0.9029541015625, -203.2,-147.65) ">
<g transform="matrix( 1, 0, 0, 1, 0,0) ">
<use xlink:href="#Splash_Splash_03_0_Layer0_0_FILL"/>
</g>
</g>

<g transform="matrix( 0.590576171875, -0.4231414794921875, 0.2018585205078125, 0.9029998779296875, -128.7,-144.4) ">
<g transform="matrix( 1, 0, 0, 1, 0,0) ">
<use xlink:href="#Splash_Splash_03_copy_0_Layer0_0_FILL"/>
</g>
</g>

<g transform="matrix( 0.5754852294921875, -0.3752899169921875, 0.201904296875, 0.9030303955078125, -2.3,-335.75) ">
<g transform="matrix( 1, 0, 0, 1, 0,0) ">
<use xlink:href="#Splash_Splash_03_copy_0_Layer0_0_FILL"/>
</g>
</g>

<g transform="matrix( 0.5663604736328125, -0.921722412109375, 0.20147705078125, 0.9026947021484375, -137.75,97) ">
<g transform="matrix( 1, 0, 0, 1, 0,0) ">
<use xlink:href="#Splash_Splash_03_copy_0_Layer0_0_FILL"/>
</g>
</g>

<g transform="matrix( 0.5754852294921875, -0.3752899169921875, 0.201904296875, 0.9030303955078125, -258.85,-78.15) ">
<g transform="matrix( 1, 0, 0, 1, 0,0) ">
<use xlink:href="#Splash_Splash_03_0_Layer0_0_FILL"/>
</g>
</g>

<g transform="matrix( 1.193634033203125, -0.0533905029296875, 0.1240997314453125, 1.120208740234375, 58,-23.25) ">
<g transform="matrix( 1, 0, 0, 1, 0,0) ">
<use xlink:href="#Splash_Splash_03_0_Layer0_0_FILL"/>
</g>
</g>
</g>

<g transform="matrix( 0.4836273193359375, 0, 0, 0.4836273193359375, 109.1,127.55) ">
<g transform="matrix( 1, 0, 0.191864013671875, 1.084930419921875, -36.2,-15.2) ">
<g transform="matrix( 1, 0, 0, 1, 0,0) ">
<use xlink:href="#Splash_Splash_01_0_Layer0_0_FILL"/>
</g>
</g>

<g transform="matrix( 0.60247802734375, -0.472991943359375, 0.2018280029296875, 0.9029541015625, -203.2,-147.65) ">
<g transform="matrix( 1, 0, 0, 1, 0,0) ">
<use xlink:href="#Splash_Splash_03_0_Layer0_0_FILL"/>
</g>
</g>

<g transform="matrix( 0.590576171875, -0.4231414794921875, 0.2018585205078125, 0.9029998779296875, -128.7,-144.4) ">
<g transform="matrix( 1, 0, 0, 1, 0,0) ">
<use xlink:href="#Splash_Splash_03_copy_0_Layer0_0_FILL"/>
</g>
</g>

<g transform="matrix( 0.5754852294921875, -0.3752899169921875, 0.201904296875, 0.9030303955078125, -2.3,-335.75) ">
<g transform="matrix( 1, 0, 0, 1, 0,0) ">
<use xlink:href="#Splash_Splash_03_copy_0_Layer0_0_FILL"/>
</g>
</g>

<g transform="matrix( 0.5663604736328125, -0.921722412109375, 0.20147705078125, 0.9026947021484375, -137.75,97) ">
<g transform="matrix( 1, 0, 0, 1, 0,0) ">
<use xlink:href="#Splash_Splash_03_copy_0_Layer0_0_FILL"/>
</g>
</g>

<g transform="matrix( 0.5754852294921875, -0.3752899169921875, 0.201904296875, 0.9030303955078125, -258.85,-78.15) ">
<g transform="matrix( 1, 0, 0, 1, 0,0) ">
<use xlink:href="#Splash_Splash_03_0_Layer0_0_FILL"/>
</g>
</g>

<g transform="matrix( 1.193634033203125, -0.0533905029296875, 0.1240997314453125, 1.120208740234375, 58,-23.25) ">
<g transform="matrix( 1, 0, 0, 1, 0,0) ">
<use xlink:href="#Splash_Splash_03_0_Layer0_0_FILL"/>
</g>
</g>
</g>

<g transform="matrix( 0.63238525390625, 0, 0, 1.557403564453125, 242.15,-19.2) ">
<g transform="matrix( 1, 0, 0.191864013671875, 1.084930419921875, -36.2,-15.2) ">
<g transform="matrix( 1, 0, 0, 1, 0,0) ">
<use xlink:href="#Splash_Splash_01_0_Layer0_0_FILL"/>
</g>
</g>

<g transform="matrix( 0.60247802734375, -0.472991943359375, 0.2018280029296875, 0.9029541015625, -203.2,-147.65) ">
<g transform="matrix( 1, 0, 0, 1, 0,0) ">
<use xlink:href="#Splash_Splash_03_0_Layer0_0_FILL"/>
</g>
</g>

<g transform="matrix( 0.590576171875, -0.4231414794921875, 0.2018585205078125, 0.9029998779296875, -128.7,-144.4) ">
<g transform="matrix( 1, 0, 0, 1, 0,0) ">
<use xlink:href="#Splash_Splash_03_copy_0_Layer0_0_FILL"/>
</g>
</g>

<g transform="matrix( 0.5754852294921875, -0.3752899169921875, 0.201904296875, 0.9030303955078125, -2.3,-335.75) ">
<g transform="matrix( 1, 0, 0, 1, 0,0) ">
<use xlink:href="#Splash_Splash_03_copy_0_Layer0_0_FILL"/>
</g>
</g>

<g transform="matrix( 0.5663604736328125, -0.921722412109375, 0.20147705078125, 0.9026947021484375, -137.75,97) ">
<g transform="matrix( 1, 0, 0, 1, 0,0) ">
<use xlink:href="#Splash_Splash_03_copy_0_Layer0_0_FILL"/>
</g>
</g>

<g transform="matrix( 0.5754852294921875, -0.3752899169921875, 0.201904296875, 0.9030303955078125, -258.85,-78.15) ">
<g transform="matrix( 1, 0, 0, 1, 0,0) ">
<use xlink:href="#Splash_Splash_03_0_Layer0_0_FILL"/>
</g>
</g>

<g transform="matrix( 1.193634033203125, -0.0533905029296875, 0.1240997314453125, 1.120208740234375, 58,-23.25) ">
<g transform="matrix( 1, 0, 0, 1, 0,0) ">
<use xlink:href="#Splash_Splash_03_0_Layer0_0_FILL"/>
</g>
</g>
</g>
</g>
</g>
</svg>
