
<svg xmlns="http://www.w3.org/2000/svg" version="1.1" xmlns:xlink="http://www.w3.org/1999/xlink" preserveAspectRatio="none" x="0px" y="0px" width="300px" height="550px" viewBox="0 0 300 550">
<defs>
<g id="Splash_FULL_copy_10_Layer1_0_FILL">
<path fill="#00CCFF" stroke="none" d="
M 463 194.1
Q 458.2 181.55 386 174.05 313.85 166.5 302.15 173.55 290.4 180.6 251.75 185 213.1 189.35 243.3 199.85 246.65 201.05 249.65 201.9 170.3 218.4 192.1 227.3 213.95 236.1 225 248.9 236.05 261.65 304.6 256.35 373.15 251.1 403.15 256.4 433.1 261.8 484.95 247.9 536.8 234.05 493.5 221.95 450.3 209.85 446.65 208.05 467.8 206.6 463 194.1 Z"/>
</g>

<g id="Splash_Splash_01_0_Layer0_0_FILL">
<path fill="#00CCFF" stroke="none" d="
M 235 135.9
Q 234.1 132.7 233.25 131.15 231.85 128.65 229.8 128.1 227.85 127.6 225.3 128.85 223.8 129.55 220.9 131.1 215.55 133.2 209.4 129.4 204.6 126.45 199.85 120.35 175.15 89.2 159.25 52.3 156.7 46.4 153.3 46.7 153.55 68.5 150.25 88.85 149.75 91.6 149.25 92.9 148.45 95.05 146.95 96.2 143.1 99.2 136 95.3 129.6 91.8 124.4 86.7 119.1 81.5 115.6 75.25 113.8 72.05 113.2 71.05 111.65 68.8 110 67.55 107.9 66.15 105.35 66.4 102.65 66.7 101.65 68.7 101.1 69.85 101.05 71.85 101.05 74.35 100.9 75.05 100.25 78.3 96.8 79.9 93.55 81.45 90.1 80.6 87.2 79.9 84.2 77.6 82.45 76.25 79.15 73
L 9.6 3.3
Q 7.5 1.2 5.35 0.4 2.65 -0.65 1.1 0.9 -1.35 3.25 1.75 8.6 17.4 35.8 25.15 48.9 38.4 71.15 49.75 88.45 61.75 106.7 65 112.3 73.05 126.1 76.6 137.95 77.7 141.6 77.4 144.5 77.05 148.1 74.5 149.5 72.2 150.75 68.85 149.45 68.25 149.2 63.15 146.45 60.25 144.8 56.9 145.35 53.35 145.95 53.15 148.85 53.1 150.15 54 151.55 54.55 152.4 55.95 153.8 69.15 167.35 77.5 183.9 77.65 184.35 77.9 184.8 78 185 78.15 185.2 79.35 187.65 80.45 190.15 80.8 189.05 81.05 187.95 81.3 188.15 81.6 188.35 85 190.8 87.05 192.05 90.15 193.9 92.85 194.85 96.6 196.2 101.5 196.45 104.7 196.6 110.4 196.25 156.75 194.05 179.95 192.95 189.6 192.45 194.05 191.95 201.9 191.1 207.85 189.25 210.3 188.5 211.85 187.3 213.8 185.75 213.7 183.75 226.25 184.95 233.95 184.8 245.15 184.6 253.8 181.75 256.65 180.75 257.85 179.35 258.7 178.35 258.8 177 258.85 176.65 258.85 176.35 258.9 176.35 258.95 176.3 260.15 175.75 260.4 174.2 260.65 172.75 260 171.5 259.15 169.7 256.2 167.65 248.6 161.65 243.1 153.5 237.6 145.25 235 135.9 Z"/>
</g>

<g id="Splash_Splash_03_0_Layer0_0_FILL">
<path fill="#00CCFF" stroke="none" d="
M 86.35 23.6
Q 86.1 21.6 85.7 17.6 85.25 14.1 84.3 11.8 81.5 5.4 73 1.8 66.55 -0.7 61.75 0.3 58.85 0.8 56.4 2.55 53.9 4.4 52.8 7 52.55 7.6 51.35 13.2 50.55 16.95 48.6 18.45 46.4 20.1 42.85 19.45 38.65 18.7 32.15 13.25 25.55 7.7 21.55 6.75 16.95 5.7 12.05 8 7.65 10.05 4.3 14.15 1.3 18 0.35 22.25 -0.7 27.05 1.4 30.75 2.85 33.4 6.2 35.5 7.15 36.15 12.4 38.85 20.9 43.15 28.15 49.65 35.3 56.1 40.6 64.15 44.2 69.85 43.35 73.55 42.8 75.6 40 78.9 37.2 82.1 36.75 84.2 36.2 86.8 37.7 89.5 39.05 91.95 41.5 93.55 43.4 94.75 46.55 96 51.45 97.85 51.75 98 56.9 100.15 63.4 105.1 67.1 107.9 74.45 113.55 76.2 114.75 79.55 116.85 83.15 119.1 84.7 120.15 89.5 123.65 96.6 130.45 119.1 152 140.95 176.15 142.65 178.15 144 178.2 145.3 178.2 146.15 177.05 147 175.9 146.9 174.6 146.8 172.55 144.75 169.95 140.3 163.85 131.5 153.35 121.9 142 118.05 136.9 110.9 127.3 106.6 118.9 101.35 108.7 99.65 99.05 99.25 96.15 99.7 94.95 100.65 92.7 103.55 92.05 106 91.5 109.05 92.15 113.35 93.15 114.3 93.3 117.35 93.6 119.25 92.3 121.15 91.05 121.75 88.55 122.3 86.25 121.6 83.9 120.95 81.9 119.45 79.75 118.45 78.3 116.45 76.15 103.2 61.35 97.1 51.8 87.85 37.3 86.35 23.6 Z"/>
</g>

<g id="Splash_Splash_03_copy_0_Layer0_0_FILL">
<path fill="#00CCFF" stroke="none" d="
M 86.6 57.95
Q 87.7 53.35 82.95 47.95 78.25 42.55 70.5 39.6 62.75 36.65 56.45 37.85 50.2 39.05 49.1 43.65 48 48.25 52.7 53.65 56.2095703125 57.6822265625 61.4 60.35 61.09375 62.7943359375 63.2 65.45 65.5 68.4 69.4 69.9 73.35 71.4 76.55 70.55 79.75 69.75 80.35 67.1 80.7705078125 65.41796875 79.95 63.6 85.5677734375 62.266796875 86.6 57.95
M 95.75 74.35
Q 92.55 75.2 91.95 77.85 91.3 80.5 93.6 83.45 95.9 86.4 99.8 87.85 103.75 89.35 106.95 88.5 110.15 87.65 110.75 85 111.4 82.35 109.1 79.4 106.85 76.45 102.9 74.95 99 73.5 95.75 74.35 Z"/>
</g>

<g id="Symbol_169_0_Layer0_0_FILL">
<path fill="#000000" stroke="none" d="
M 166.75 83.25
Q 168.95 81.15 173.3 81 175.65 80.85 177.35 79.55 186.3 72.8 188.2 60.45 193.25 26.95 168.9 4 160.4 -3.95 149.2 -5.6 124.8 -9.2 108.95 8.6 105.3 12.65 103.25 17.35 88.95 50.7 107.7 82.65 108.7 84.35 110.45 84.5 119.95 85.55 127.45 88.5 136.75 138.45 127.2 188.15 126.8 190.2 125.9 192.1 117.75 209.8 99.4 219.25 96.5 220.8 95.35 223.85 92.8 230.5 93.15 238.05 93.6 247.4 103.6 246.35 116.8 245.85 126.8 253.4 129.55 255.5 130.5 258.8 140.2 293.75 138.25 330.7
L 116.65 368.2
Q 72.2 358.85 55.25 316.65 52.1 308.85 52.3 300.45 52.5 291.6 60.15 286.55
L 29.45 216.7 29.2 213.75
Q 28.95 213.65 28.85 213.75 17.75 219.1 12.8 231.8 3.15 248.75 -5.3 266.4 -6.9 269.75 -9.1 272.8 -15.2 281.1 -14.65 290.95 -14.5 294.2 -11.65 295.45 -1.65 299.65 9.65 300.1 3.2 310.45 -0.75 322 -1.4 323.9 -0.7 325.95 6.75 347.65 20.7 366.05 26.95 374.3 34.7 380.65 80.2 417.65 139.35 412.15
L 161.25 427.45
Q 167.85 422.75 173.05 416 176.95 411 182.85 409.15 198.65 403.9 213.1 395.5 250.5 373.85 262.9 332.6 264.85 326.1 267.3 319.85 272 307.95 263.3 300.05
L 282 291.05
Q 280.6 268.7 271.1 247.65 268.55 242 266.25 236.25 262.4 226.5 253.7 224.1 250.45 225.45 249 228.8 241.75 245.75 229.95 259.5 227.85 262 225.85 264.4 219.4 272.15 220.4 280.4
L 221.9 281.4 222.1 283.3 233.85 293.4
Q 234.05 294.4 233.75 295.45 223 333.45 192.6 358.4 186 348.6 180.1 338.55 178.3 335.55 177.9 332.45 174.8 306.65 174.1 280.65 173.7 265.3 179.8 251.4 182 246.3 187.65 246.2 196.05 245.25 204.3 243.8 210.15 242.95 210.95 236.95 212.5 225.15 203.4 218.4 197.4 213.95 191.95 208.7 173.7 191.35 170.45 166 165.2 124.85 166.75 83.25
M 175.7 69.65
Q 174.85 72.6 171.9 72.55 162.25 72.3 158.55 79.8
L 160.35 83.25 160.2 85.9 159.65 99.55
Q 159.35 122 159.15 144.2 158.8 179.3 178.8 207.3 181.1 210.5 184.35 212.25 196.85 219.25 204.55 230.3
L 204.9 232.05 204.15 236.7
Q 203.35 237.75 201.6 237.7 193.3 237.55 185.1 239.15 171.05 242.05 168.8 256.95 164.25 286.65 167.6 316.7
L 159.1 304.2 144.55 321.4
Q 144.1 295.7 141.55 270.1 140.7 261.5 136.4 254.1 127.35 238.45 108.5 239.2
L 142.65 221.95 106.35 238.95
Q 105.65 238.85 104.95 238.8 100.55 239.4 101 235.35 100.75 232.75 101.9 230.55 105.5 223.55 112.4 218.6 119.4 213.65 126.05 208.65 138.3 191.4 139 170.55
L 138.1 173.2
Q 142.7 137.15 136.9 100.95 134.4 85.5 149.15 82.4 143.1 77.5 135.5 84.55 129.9 77.8 119.75 78.05
L 126.6 74.5 122.5 66.1 118.1 39.75 118.05 36.75
Q 113.95 45.1 116.25 54.85 118.55 64.65 122.55 72.6
L 116.65 77.55
Q 115.7 76.95 115.2 76.1 105.45 60.1 106.2 40.8 107.15 14.9 130.45 5.25
L 139.3 3.8
Q 145.15 3.25 150.55 4.9 158.55 7.55 164.7 13.8 186.6 35.85 176.8 65.95
L 175.7 69.65
M 27.15 219.1
Q 27.3 218.85 27.4 218.85
L 27.3 219.1
Q 33.45 248.55 46.75 275.65 48.55 279.25 50.35 282.85
L 50.55 283.3
Q 50.65 283.45 50.6 283.5 40.15 296.6 46 312.95
L 58 337.25
Q 74.55 363.95 105.3 371.15 112.15 372.7 112.35 375.35
L 118 375.2 123.65 370.65
Q 123.95 370.4 124.2 370.2 126.05 368.7 124.3 368.95
L 124.65 368 155.45 319.85 158 313.6 186.85 366.25 189.15 368.95
Q 193.05 367.45 196.3 365.2 203.3 360.25 209.5 354.1 222.05 341.7 230 325.7 237.65 312.35 241.1 297.15 241.4 295.95 241.35 294.8 241.1 283.8 229.2 280.55
L 226.45 279 253.15 237.5 253.75 262.35 257.65 242.2 270.05 275.7 254.8 270.25 237.4 275.7 232.5 279.8
Q 236.95 279.3 240.35 276.4 246.55 271.2 253.35 273.65 266.7 278.35 275.5 288.45 268.6 290.6 261.6 292.35 256.6 293.7 254.8 298.3
L 263 313 248.9 321.3 248.5 321.55 248.95 321.4 254.3 319.85 261.5 315.9 262.3 315.65
Q 257.35 344.45 236.65 365.6 211.95 390.75 177.85 399.85
L 172.2 404.25 170.35 406.45 162.75 417.15 161.8 401.85 160.45 398.05 160.2 401 153.85 395
Q 152.4 393.3 150.65 392.05 145.4 388.2 145.65 392.35
L 159.8 402.4 157.2 418.3
Q 151 409.45 142.25 403.05 141.05 402.2 139.75 402.35 109.2 399.9 79.3 392.85 70.85 390.85 63.35 386.65 32.45 369.6 14.4 338.45
L 5.9 326.25 10.65 313.45
Q 15.45 306.7 15.65 299.05 15.7 296.9 14.4 295.2
L -4 286.7 4.7 264.5 27.15 219.1
M 250.6 301
L 247.75 309.15 247.8 319.1 250.6 301
M 200.1 376.75
Q 194.2 380.6 187.5 382 179.8 383.75 185.85 384.55
L 210 373.3
Q 211.05 372.75 212 372.15 241.4 354.6 247.95 322.05
L 226 354.6 200.1 376.75
M 175.3 390.65
L 172.85 391.75 166.25 400.4 175.3 390.65
M 30.1 300.8
L 30.55 307.65 20.1 317.65 17.6 323.65 31.65 310.1
Q 36.95 342.1 59.4 365.9 68.4 375.4 80.7 380 107.75 389.9 136.6 391.9
L 141.05 391.95 141.3 391.55
Q 132.6 388.8 123.35 387.85 112 387.1 101.15 384.3 82.2 379.2 67.45 366.6 39.3 342.45 34.2 305.2
L 30.55 289.05 30.1 300.8
M 160.35 338
L 160.75 342 175.75 373.4
Q 176.1 374.4 176.7 374.95 177.25 375.45 177.25 375.15 176.55 365.5 170.6 356.55
L 160.35 338
M 158.35 343.15
L 158.85 336.85 147.5 374.8 156.3 350.95 158.35 343.15
M 16.65 285.9
Q 20.05 285.2 16.7 284.05
L 5.75 283.45 -1.05 285.5
Q 7.25 288.2 16.65 285.9
M 29.3 240.45
Q 28.5 232.75 25.75 229.35
L 25.2 236
Q 25.85 252.75 27.35 269.25 27.95 275.9 30.25 281.95 30.4 282.35 30.65 280.35 31.2 259.5 29.3 240.45
M 153.9 166.9
Q 151.5 172.35 152 178.35 153.5 195.8 157.2 212.7
L 156.5 214.35 157.6 298.35 162.55 226.2 168.9 224.35 180.3 229.6 163.9 216.55 153.9 166.9
M 161.9 26
Q 160.9 22.8 158.45 20.55 145.55 9.15 131.15 19.95 128.35 22 127.1 25.25 119.75 44.35 126.6 64.1
L 155.3 64.5
Q 163.3 62.35 164.5 54.3 166.75 39.5 161.9 26
M 142.6 25.65
Q 144.95 25.05 147.25 25.35 149.7 25.7 150.95 27.7 159.6 41.1 155 57.45
L 134.9 57.8
Q 135.25 50.65 133.8 43.65 131.05 30.5 142.6 25.65 Z"/>

<path fill="#FFFFFF" stroke="none" d="
M 261.5 315.9
L 254.3 319.85 248.95 321.4 249.85 323.2 261.5 315.9
M 251.85 299.1
Q 250.65 299.9 250.6 301
L 247.8 319.1 248.9 321.3 263 313 254.8 298.3
Q 253.1 298.35 251.85 299.1
M 185.85 384.55
L 175.3 390.65 166.25 400.4 172.85 391.75 161.8 401.85 162.75 417.15 170.35 406.45 172.2 404.25 177.85 399.85 210 373.3 185.85 384.55
M 254.8 270.25
L 270.05 275.7 257.65 242.2 253.75 262.35 254.8 270.25
M 155.45 319.85
L 156.3 321.95 183.15 370.9 185.7 370.6 186.85 366.25 158 313.6 155.45 319.85
M 58 337.25
L 48.95 324.25
Q 49 326.95 50.2 329.55 58.2 347.05 70.25 362.3 72.7 365.4 75.85 367.8 85.7 375.25 97.1 379.25 109.95 383.85 118 375.2
L 112.35 375.35
Q 112.15 372.7 105.3 371.15 74.55 363.95 58 337.25
M 160.75 342
L 158.35 343.15 156.3 350.95 157.1 355.15 159.55 352.7 176.05 378.55 175.75 373.4 160.75 342
M 25.75 229.35
Q 28.5 232.75 29.3 240.45 31.2 259.5 30.65 280.35
L 32.9 283.45 48.45 283.25 50.35 282.85
Q 48.55 279.25 46.75 275.65 33.45 248.55 27.3 219.1
L 27.15 219.1 4.7 264.5 10.55 255.05 25.2 236 25.75 229.35 Z"/>

<path fill="#0099FF" stroke="none" d="
M 254.8 270.25
L 253.75 262.35 253.15 237.5 226.45 279 229.2 280.55
Q 229.2 278.6 231.6 277.15 234 275.75 237.4 275.7
L 254.8 270.25
M 30.55 307.65
L 30.1 300.8 10.65 313.45 5.9 326.25 14.4 338.45 10.45 326.1
Q 17.35 329.75 22.25 337.45 44.9 373.2 83.45 388.7 90.25 391.45 97.4 392.25 117 393.65 136.6 391.9 107.75 389.9 80.7 380 68.4 375.4 59.4 365.9 36.95 342.1 31.65 310.1
L 17.6 323.65 20.1 317.65 30.55 307.65
M 58 337.25
L 46 312.95 34.2 305.2
Q 39.3 342.45 67.45 366.6 82.2 379.2 101.15 384.3 112 387.1 123.35 387.85 132.6 388.8 141.3 391.55
L 141.05 391.95 145.65 392.35
Q 145.4 388.2 150.65 392.05 152.4 393.3 153.85 395
L 160.2 401 160.45 398.05 161.8 401.85 172.85 391.75 175.3 390.65 185.85 384.55
Q 179.8 383.75 187.5 382 194.2 380.6 200.1 376.75
L 226 354.6 247.95 322.05
Q 241.4 354.6 212 372.15 211.05 372.75 210 373.3
L 177.85 399.85
Q 211.95 390.75 236.65 365.6 257.35 344.45 262.3 315.65
L 261.5 315.9 249.85 323.2 248.95 321.4 248.5 321.55 248.9 321.3 247.8 319.1 247.75 309.15 230 325.7
Q 222.05 341.7 209.5 354.1 203.3 360.25 196.3 365.2 193.05 367.45 189.15 368.95
L 186.85 366.25 185.7 370.6 183.15 370.9 156.3 321.95
Q 143.95 351.15 125.55 375.5 125.4 375.75 125 375.75
L 123.65 370.65 118 375.2
Q 109.95 383.85 97.1 379.25 85.7 375.25 75.85 367.8 72.7 365.4 70.25 362.3 58.2 347.05 50.2 329.55 49 326.95 48.95 324.25
L 58 337.25
M 158.85 336.85
L 158.35 343.15 160.75 342 160.35 338 170.6 356.55
Q 176.55 365.5 177.25 375.15 177.25 375.45 176.7 374.95 176.1 374.4 175.75 373.4
L 176.05 378.55 159.55 352.7 157.1 355.15 156.3 350.95 147.5 374.8 158.85 336.85
M 50.55 283.3
L 50.35 282.85 48.45 283.25 50.55 283.3
M 10.55 255.05
L 5.75 283.45 16.7 284.05 32.9 283.45 30.65 280.35
Q 30.4 282.35 30.25 281.95 27.95 275.9 27.35 269.25 25.85 252.75 25.2 236
L 10.55 255.05
M 27.15 219.1
L 27.3 219.1 27.4 218.85
Q 27.3 218.85 27.15 219.1 Z"/>

<path fill="#003399" stroke="none" d="
M 275.5 288.45
Q 266.7 278.35 253.35 273.65 246.55 271.2 240.35 276.4 236.95 279.3 232.5 279.8
L 237.4 275.7
Q 234 275.75 231.6 277.15 229.2 278.6 229.2 280.55 241.1 283.8 241.35 294.8 241.4 295.95 241.1 297.15 237.65 312.35 230 325.7
L 247.75 309.15 250.6 301
Q 250.65 299.9 251.85 299.1 253.1 298.35 254.8 298.3 256.6 293.7 261.6 292.35 268.6 290.6 275.5 288.45
M 156.3 321.95
L 155.45 319.85 124.65 368 124.3 368.95
Q 126.05 368.7 124.2 370.2 123.95 370.4 123.65 370.65
L 125 375.75
Q 125.4 375.75 125.55 375.5 143.95 351.15 156.3 321.95
M 10.45 326.1
L 14.4 338.45
Q 32.45 369.6 63.35 386.65 70.85 390.85 79.3 392.85 109.2 399.9 139.75 402.35 141.05 402.2 142.25 403.05 151 409.45 157.2 418.3
L 159.8 402.4 145.65 392.35 141.05 391.95 136.6 391.9
Q 117 393.65 97.4 392.25 90.25 391.45 83.45 388.7 44.9 373.2 22.25 337.45 17.35 329.75 10.45 326.1
M 5.75 283.45
L 10.55 255.05 4.7 264.5 -4 286.7 14.4 295.2
Q 15.7 296.9 15.65 299.05 15.45 306.7 10.65 313.45
L 30.1 300.8 30.55 289.05 34.2 305.2 46 312.95
Q 40.15 296.6 50.6 283.5 50.65 283.45 50.55 283.3
L 48.45 283.25 32.9 283.45 16.7 284.05
Q 20.05 285.2 16.65 285.9 7.25 288.2 -1.05 285.5
L 5.75 283.45 Z"/>

<path fill="#333333" stroke="none" d="
M 126.15 236.5
Q 128.35 235.2 130.55 233.9 135.1 231.15 139.9 229.05 145.9 226.3 146.8 220.7 146.1 219.6 145 219.7 122 224.75 101 235.35 100.55 239.4 104.95 238.8 105.65 238.85 106.35 238.95
L 142.65 221.95 108.5 239.2
Q 127.35 238.45 136.4 254.1 140.7 261.5 141.55 270.1 144.1 295.7 144.55 321.4
L 159.1 304.2 167.6 316.7
Q 164.25 286.65 168.8 256.95 171.05 242.05 185.1 239.15 193.3 237.55 201.6 237.7 203.35 237.75 204.15 236.7
L 204.9 232.05 163.9 216.55 180.3 229.6 168.9 224.35 162.55 226.2 157.6 298.35 156.25 302.05
Q 152.95 289.8 152.5 276.9 151.5 248.3 126.15 236.5
M 118.05 36.75
Q 118.15 35 118.15 33.2 118.15 16.4 130.45 5.25 107.15 14.9 106.2 40.8 105.45 60.1 115.2 76.1 115.7 76.95 116.65 77.55
L 122.55 72.6
Q 118.55 64.65 116.25 54.85 113.95 45.1 118.05 36.75
M 171.9 72.55
Q 174.85 72.6 175.7 69.65
L 126.6 74.5 119.75 78.05
Q 129.9 77.8 135.5 84.55 143.1 77.5 149.15 82.4 134.4 85.5 136.9 100.95 142.7 137.15 138.1 173.2
L 139 170.55
Q 138.3 191.4 126.05 208.65 146.1 193.75 146.15 168.2 146.2 137.6 145.05 106.8 144.7 98.05 144.3 89.3
L 160.2 85.9 160.35 83.25 158.55 79.8
Q 162.25 72.3 171.9 72.55
M 165.65 62.6
Q 166.7 61.6 167.1 60.4 173.5 42.3 161.9 26 166.75 39.5 164.5 54.3 163.3 62.35 155.3 64.5 160.85 66.9 165.65 62.6 Z"/>

<path fill="#999999" stroke="none" d="
M 159.15 144.2
Q 159.35 122 159.65 99.55
L 157.45 96.6
Q 154.45 101.2 154.3 107.6 153.75 127.95 153.85 148.25 154 177.15 167.9 202.05 180.1 223.9 204.55 230.3 196.85 219.25 184.35 212.25 181.1 210.5 178.8 207.3 158.8 179.3 159.15 144.2
M 162.55 19.45
Q 164.45 21.65 165.9 24.2 176.4 43.25 176.8 65.95 186.6 35.85 164.7 13.8 158.55 7.55 150.55 4.9 145.15 3.25 139.3 3.8 153.05 8.5 162.55 19.45 Z"/>

<path fill="#666666" stroke="none" d="
M 160.2 85.9
L 144.3 89.3
Q 144.7 98.05 145.05 106.8 146.2 137.6 146.15 168.2 146.1 193.75 126.05 208.65 119.4 213.65 112.4 218.6 105.5 223.55 101.9 230.55 100.75 232.75 101 235.35 122 224.75 145 219.7 146.1 219.6 146.8 220.7 145.9 226.3 139.9 229.05 135.1 231.15 130.55 233.9 128.35 235.2 126.15 236.5 151.5 248.3 152.5 276.9 152.95 289.8 156.25 302.05
L 157.6 298.35 156.5 214.35 157.2 212.7
Q 153.5 195.8 152 178.35 151.5 172.35 153.9 166.9
L 163.9 216.55 204.9 232.05 204.55 230.3
Q 180.1 223.9 167.9 202.05 154 177.15 153.85 148.25 153.75 127.95 154.3 107.6 154.45 101.2 157.45 96.6
L 159.65 99.55 160.2 85.9
M 165.9 24.2
Q 164.45 21.65 162.55 19.45 153.05 8.5 139.3 3.8
L 130.45 5.25
Q 118.15 16.4 118.15 33.2 118.15 35 118.05 36.75
L 118.1 39.75 122.5 66.1 126.6 74.5 175.7 69.65 176.8 65.95
Q 176.4 43.25 165.9 24.2
M 167.1 60.4
Q 166.7 61.6 165.65 62.6 160.85 66.9 155.3 64.5
L 126.6 64.1
Q 119.75 44.35 127.1 25.25 128.35 22 131.15 19.95 145.55 9.15 158.45 20.55 160.9 22.8 161.9 26 173.5 42.3 167.1 60.4 Z"/>
</g>
</defs>

<g transform="matrix( 0.2893829345703125, 0, 0, 0.2893829345703125, 25.65,158.2) ">
<g transform="matrix( 1, 0, 0, 1, 88.55,470.8) ">
<g transform="matrix( 0.565216064453125, 0, 0, 0.7543182373046875, 16.8,594.6) ">
<g transform="matrix( 1, 0, 0, 1, 0,0) ">
<use xlink:href="#Splash_FULL_copy_10_Layer1_0_FILL"/>
</g>

<g transform="matrix( 1, 0, 0, 1, 111.95,68.5) ">
<g transform="matrix( 1, 0, 0.2218170166015625, 0.7344818115234375, -41.9,51.15) ">
<g transform="matrix( 1, 0, 0, 1, 0,0) ">
<use xlink:href="#Splash_Splash_01_0_Layer0_0_FILL"/>
</g>
</g>

<g transform="matrix( 0.5663604736328125, -0.921722412109375, 0.20147705078125, 0.9026947021484375, -220.55,-12.85) ">
<g transform="matrix( 1, 0, 0, 1, 0,0) ">
<use xlink:href="#Splash_Splash_03_0_Layer0_0_FILL"/>
</g>
</g>

<g transform="matrix( 0.6110687255859375, -0.5246429443359375, 0.2017669677734375, 0.9029388427734375, -140.6,-119.45) ">
<g transform="matrix( 1, 0, 0, 1, 0,0) ">
<use xlink:href="#Splash_Splash_03_copy_0_Layer0_0_FILL"/>
</g>
</g>

<g transform="matrix( 0.59808349609375, -0.45281982421875, 0.20184326171875, 0.9029693603515625, -11.15,-317) ">
<g transform="matrix( 1, 0, 0, 1, 0,0) ">
<use xlink:href="#Splash_Splash_03_copy_0_Layer0_0_FILL"/>
</g>
</g>

<g transform="matrix( 0.61627197265625, -0.5779266357421875, 0.20172119140625, 0.9028778076171875, -299.55,-25.65) ">
<g transform="matrix( 1, 0, 0, 1, 0,0) ">
<use xlink:href="#Splash_Splash_03_0_Layer0_0_FILL"/>
</g>
</g>

<g transform="matrix( 1.3953704833984375, -0.142669677734375, 0.0933990478515625, 0.84429931640625, 20.35,37.8) ">
<g transform="matrix( 1, 0, 0, 1, 0,0) ">
<use xlink:href="#Splash_Splash_03_0_Layer0_0_FILL"/>
</g>
</g>
</g>

<g transform="matrix( -1, 0, 0, 1, 609.35,56.55) ">
<g transform="matrix( 1, 0, 0.2218170166015625, 0.7344818115234375, -41.9,51.15) ">
<g transform="matrix( 1, 0, 0, 1, 0,0) ">
<use xlink:href="#Splash_Splash_01_0_Layer0_0_FILL"/>
</g>
</g>

<g transform="matrix( 0.5663604736328125, -0.921722412109375, 0.20147705078125, 0.9026947021484375, -220.55,-12.85) ">
<g transform="matrix( 1, 0, 0, 1, 0,0) ">
<use xlink:href="#Splash_Splash_03_0_Layer0_0_FILL"/>
</g>
</g>

<g transform="matrix( 0.6110687255859375, -0.5246429443359375, 0.2017669677734375, 0.9029388427734375, -140.6,-119.45) ">
<g transform="matrix( 1, 0, 0, 1, 0,0) ">
<use xlink:href="#Splash_Splash_03_copy_0_Layer0_0_FILL"/>
</g>
</g>

<g transform="matrix( 0.59808349609375, -0.45281982421875, 0.20184326171875, 0.9029693603515625, -11.15,-317) ">
<g transform="matrix( 1, 0, 0, 1, 0,0) ">
<use xlink:href="#Splash_Splash_03_copy_0_Layer0_0_FILL"/>
</g>
</g>

<g transform="matrix( 0.61627197265625, -0.5779266357421875, 0.20172119140625, 0.9028778076171875, -299.55,-25.65) ">
<g transform="matrix( 1, 0, 0, 1, 0,0) ">
<use xlink:href="#Splash_Splash_03_0_Layer0_0_FILL"/>
</g>
</g>

<g transform="matrix( 1.3953704833984375, -0.142669677734375, 0.0933990478515625, 0.84429931640625, 20.35,37.8) ">
<g transform="matrix( 1, 0, 0, 1, 0,0) ">
<use xlink:href="#Splash_Splash_03_0_Layer0_0_FILL"/>
</g>
</g>
</g>

<g transform="matrix( -0.675384521484375, 0, 0, 0.675384521484375, 428.15,85.7) ">
<g transform="matrix( 1, 0, 0.2218170166015625, 0.7344818115234375, -41.9,51.15) ">
<g transform="matrix( 1, 0, 0, 1, 0,0) ">
<use xlink:href="#Splash_Splash_01_0_Layer0_0_FILL"/>
</g>
</g>

<g transform="matrix( 0.5663604736328125, -0.921722412109375, 0.20147705078125, 0.9026947021484375, -220.55,-12.85) ">
<g transform="matrix( 1, 0, 0, 1, 0,0) ">
<use xlink:href="#Splash_Splash_03_0_Layer0_0_FILL"/>
</g>
</g>

<g transform="matrix( 0.6110687255859375, -0.5246429443359375, 0.2017669677734375, 0.9029388427734375, -140.6,-119.45) ">
<g transform="matrix( 1, 0, 0, 1, 0,0) ">
<use xlink:href="#Splash_Splash_03_copy_0_Layer0_0_FILL"/>
</g>
</g>

<g transform="matrix( 0.59808349609375, -0.45281982421875, 0.20184326171875, 0.9029693603515625, -11.15,-317) ">
<g transform="matrix( 1, 0, 0, 1, 0,0) ">
<use xlink:href="#Splash_Splash_03_copy_0_Layer0_0_FILL"/>
</g>
</g>

<g transform="matrix( 0.61627197265625, -0.5779266357421875, 0.20172119140625, 0.9028778076171875, -299.55,-25.65) ">
<g transform="matrix( 1, 0, 0, 1, 0,0) ">
<use xlink:href="#Splash_Splash_03_0_Layer0_0_FILL"/>
</g>
</g>

<g transform="matrix( 1.3953704833984375, -0.142669677734375, 0.0933990478515625, 0.84429931640625, 20.35,37.8) ">
<g transform="matrix( 1, 0, 0, 1, 0,0) ">
<use xlink:href="#Splash_Splash_03_0_Layer0_0_FILL"/>
</g>
</g>
</g>

<g transform="matrix( 0.4836273193359375, 0, 0, 0.4836273193359375, 109.1,127.55) ">
<g transform="matrix( 1, 0, 0.2218170166015625, 0.7344818115234375, -41.9,51.15) ">
<g transform="matrix( 1, 0, 0, 1, 0,0) ">
<use xlink:href="#Splash_Splash_01_0_Layer0_0_FILL"/>
</g>
</g>

<g transform="matrix( 0.5663604736328125, -0.921722412109375, 0.20147705078125, 0.9026947021484375, -220.55,-12.85) ">
<g transform="matrix( 1, 0, 0, 1, 0,0) ">
<use xlink:href="#Splash_Splash_03_0_Layer0_0_FILL"/>
</g>
</g>

<g transform="matrix( 0.6110687255859375, -0.5246429443359375, 0.2017669677734375, 0.9029388427734375, -140.6,-119.45) ">
<g transform="matrix( 1, 0, 0, 1, 0,0) ">
<use xlink:href="#Splash_Splash_03_copy_0_Layer0_0_FILL"/>
</g>
</g>

<g transform="matrix( 0.59808349609375, -0.45281982421875, 0.20184326171875, 0.9029693603515625, -11.15,-317) ">
<g transform="matrix( 1, 0, 0, 1, 0,0) ">
<use xlink:href="#Splash_Splash_03_copy_0_Layer0_0_FILL"/>
</g>
</g>

<g transform="matrix( 0.61627197265625, -0.5779266357421875, 0.20172119140625, 0.9028778076171875, -299.55,-25.65) ">
<g transform="matrix( 1, 0, 0, 1, 0,0) ">
<use xlink:href="#Splash_Splash_03_0_Layer0_0_FILL"/>
</g>
</g>

<g transform="matrix( 1.3953704833984375, -0.142669677734375, 0.0933990478515625, 0.84429931640625, 20.35,37.8) ">
<g transform="matrix( 1, 0, 0, 1, 0,0) ">
<use xlink:href="#Splash_Splash_03_0_Layer0_0_FILL"/>
</g>
</g>
</g>

<g transform="matrix( 0.63238525390625, 0, 0, 1.557403564453125, 242.15,-19.2) ">
<g transform="matrix( 1, 0, 0.2218170166015625, 0.7344818115234375, -41.9,51.15) ">
<g transform="matrix( 1, 0, 0, 1, 0,0) ">
<use xlink:href="#Splash_Splash_01_0_Layer0_0_FILL"/>
</g>
</g>

<g transform="matrix( 0.5663604736328125, -0.921722412109375, 0.20147705078125, 0.9026947021484375, -220.55,-12.85) ">
<g transform="matrix( 1, 0, 0, 1, 0,0) ">
<use xlink:href="#Splash_Splash_03_0_Layer0_0_FILL"/>
</g>
</g>

<g transform="matrix( 0.6110687255859375, -0.5246429443359375, 0.2017669677734375, 0.9029388427734375, -140.6,-119.45) ">
<g transform="matrix( 1, 0, 0, 1, 0,0) ">
<use xlink:href="#Splash_Splash_03_copy_0_Layer0_0_FILL"/>
</g>
</g>

<g transform="matrix( 0.59808349609375, -0.45281982421875, 0.20184326171875, 0.9029693603515625, -11.15,-317) ">
<g transform="matrix( 1, 0, 0, 1, 0,0) ">
<use xlink:href="#Splash_Splash_03_copy_0_Layer0_0_FILL"/>
</g>
</g>

<g transform="matrix( 0.61627197265625, -0.5779266357421875, 0.20172119140625, 0.9028778076171875, -299.55,-25.65) ">
<g transform="matrix( 1, 0, 0, 1, 0,0) ">
<use xlink:href="#Splash_Splash_03_0_Layer0_0_FILL"/>
</g>
</g>

<g transform="matrix( 1.3953704833984375, -0.142669677734375, 0.0933990478515625, 0.84429931640625, 20.35,37.8) ">
<g transform="matrix( 1, 0, 0, 1, 0,0) ">
<use xlink:href="#Splash_Splash_03_0_Layer0_0_FILL"/>
</g>
</g>
</g>
</g>
</g>

<g transform="matrix( 1.404876708984375, -0.013153076171875, 0.013153076171875, 1.404876708984375, 255.15,647.5) ">
<g transform="matrix( 1, 0, 0, 1, 0,0) ">
<use xlink:href="#Symbol_169_0_Layer0_0_FILL"/>
</g>
</g>
</g>
</svg>
