
<svg xmlns="http://www.w3.org/2000/svg" version="1.1" xmlns:xlink="http://www.w3.org/1999/xlink" preserveAspectRatio="none" x="0px" y="0px" width="1000px" height="1000px" viewBox="0 0 1000 1000">
<defs>
<linearGradient id="Gradient_1" gradientUnits="userSpaceOnUse" x1="264.95" y1="36.71249999999999" x2="232.25" y2="118.3875" spreadMethod="pad">
<stop  offset="0%" stop-color="#999999"/>

<stop  offset="100%" stop-color="#CCCCCC"/>
</linearGradient>

<linearGradient id="Gradient_2" gradientUnits="userSpaceOnUse" x1="268.46250000000003" y1="53.4875" x2="297.2375" y2="117.21249999999999" spreadMethod="pad">
<stop  offset="0%" stop-color="#CCCCCC"/>

<stop  offset="100%" stop-color="#FFFFFF"/>
</linearGradient>

<linearGradient id="Gradient_3" gradientUnits="userSpaceOnUse" x1="185.125" y1="263.425" x2="179.77499999999998" y2="310.075" spreadMethod="pad">
<stop  offset="0%" stop-color="#333333"/>

<stop  offset="100%" stop-color="#999999"/>
</linearGradient>

<linearGradient id="Gradient_4" gradientUnits="userSpaceOnUse" x1="325.42499999999995" y1="269.61249999999995" x2="339.875" y2="336.1875" spreadMethod="pad">
<stop  offset="0%" stop-color="#999999"/>

<stop  offset="100%" stop-color="#CCCCCC"/>
</linearGradient>

<linearGradient id="Gradient_5" gradientUnits="userSpaceOnUse" x1="414.3625" y1="240.1" x2="435.6375" y2="256.6" spreadMethod="pad">
<stop  offset="0%" stop-color="#CCCCCC"/>

<stop  offset="100%" stop-color="#FFFFFF"/>
</linearGradient>

<linearGradient id="Gradient_6" gradientUnits="userSpaceOnUse" x1="276.97499999999997" y1="136.1875" x2="272.925" y2="207.5125" spreadMethod="pad">
<stop  offset="0%" stop-color="#999999"/>

<stop  offset="100%" stop-color="#CCCCCC"/>
</linearGradient>

<linearGradient id="Gradient_7" gradientUnits="userSpaceOnUse" x1="180.2" y1="99.88749999999999" x2="117.8" y2="158.8125" spreadMethod="pad">
<stop  offset="0%" stop-color="#999999"/>

<stop  offset="100%" stop-color="#CCCCCC"/>
</linearGradient>

<linearGradient id="Gradient_8" gradientUnits="userSpaceOnUse" x1="181.48749999999998" y1="125.0875" x2="164.4125" y2="214.9125" spreadMethod="pad">
<stop  offset="0%" stop-color="#333333"/>

<stop  offset="100%" stop-color="#999999"/>
</linearGradient>

<linearGradient id="Gradient_9" gradientUnits="userSpaceOnUse" x1="328.8" y1="114.35" x2="362.40000000000003" y2="180.15" spreadMethod="pad">
<stop  offset="0%" stop-color="#CCCCCC"/>

<stop  offset="100%" stop-color="#FFFFFF"/>
</linearGradient>

<linearGradient id="Gradient_10" gradientUnits="userSpaceOnUse" x1="37.6625" y1="6.362499999999997" x2="39.0375" y2="70.4375" spreadMethod="pad">
<stop  offset="0%" stop-color="#FFFFFF"/>

<stop  offset="100%" stop-color="#9C9C9C"/>
</linearGradient>

<g id="Bunker_0_Layer3_0_FILL">
<path fill="#836666" stroke="none" d="
M 311.4 188.25
L 150.3 273.8 245.3 273.8 311.4 188.25 Z"/>

<path fill="#2C2323" stroke="none" d="
M 168.3 176.4
L 109.6 176.4 109.6 224.45 168.3 176.4
M 409.2 176.4
L 370.3 176.4 409.2 236.3 409.2 176.4 Z"/>

<path fill="#171717" stroke="none" d="
M 320.6 176.4
L 311.4 188.25 333.8 176.4 320.6 176.4 Z"/>

<path fill="#624949" stroke="none" d="
M 311.4 188.25
L 320.6 176.4 209.25 176.4 109.6 232.25 109.6 273.8 150.3 273.8 311.4 188.25
M 359.85 176.4
L 333.8 176.4 311.4 188.25 245.3 273.8 359.45 273.8 359.85 176.4 Z"/>

<path fill="#463434" stroke="none" d="
M 209.25 176.4
L 168.3 176.4 109.6 224.45 109.6 232.25 209.25 176.4
M 370.3 176.4
L 359.85 176.4 359.45 273.8 409.2 273.8 409.2 236.3 370.3 176.4 Z"/>
</g>

<g id="Bunker_Spike_0_Layer0_0_FILL">
<path fill="#000000" stroke="none" d="
M 43.9 0.05
L 43.85 0 1.6 15.55
Q 1.4 15.65 0.85 17.75 0.25 20.35 0.05 23.3 -0.5 32.1 3.35 38.65
L 6.4 42.35
Q 14.3 50.3 25.6 47.1 28.25 46.35 31.15 44.95 40.35 15.1 42.2 8.05 43.75 2.2 43.9 0.35
L 43.9 0.3
Q 43.9 0.25 43.9 0.2 43.9 0.15 43.9 0.1
L 43.9 0.05
M 38.2 7.15
L 37.4 10.1 28.6 41.75
Q 28.4 42.05 28.2 42.35 27.4 43.35 26.35 44 23.4 45.75 17.95 45.05 13.15 44.4 9.9 42.35 7.55 40.9 5.95 38.75 5.85 38.55 5.75 38.35 2.75 31.35 2.2 26.5 1.65 21.8 3.5 19.15
L 38.2 7.15 Z"/>

<path fill="#FF3300" stroke="none" d="
M 5.95 38.75
Q 7.55 40.9 9.9 42.35 13.15 44.4 17.95 45.05 23.4 45.75 26.35 44
L 32.75 16.25 5.75 38.35
Q 5.85 38.55 5.95 38.75 Z"/>

<path fill="#FF9900" stroke="none" d="
M 37.4 10.1
L 37.25 10.55
Q 26.5 14.95 15.95 19.95 16.8 20.6 17.3 21.7 18.1 23.4 17.55 25.05 17 26.7 15.3 27.55 13.6 28.4 11.9 27.85 9.9 27.2 9.1 25.3 8.75 23.45 8.75 23.4 7.15 24.15 5.6 24.95 3.35 26.1 2.2 26.5 2.75 31.35 5.75 38.35
L 32.75 16.25 26.35 44
Q 27.4 43.35 28.2 42.35 28.4 42.05 28.6 41.75
L 37.4 10.1 Z"/>

<path fill="#FFFFFF" stroke="none" d="
M 37.4 10.1
L 38.2 7.15 3.5 19.15
Q 1.65 21.8 2.2 26.5 3.35 26.1 5.6 24.95 7.15 24.15 8.75 23.4 8.75 23.45 9.1 25.3 9.9 27.2 11.9 27.85 13.6 28.4 15.3 27.55 17 26.7 17.55 25.05 18.1 23.4 17.3 21.7 16.8 20.6 15.95 19.95 26.5 14.95 37.25 10.55
L 37.4 10.1 Z"/>
</g>

<g id="Bunker_0_Layer1_0_FILL">
<path fill="#000000" stroke="none" d="
M 363.65 94.65
Q 364.5 82.6 363.9 82.45 363.1 82.2 339.75 92.45 326.4572265625 85.62265625 311.2 80.5 298.263671875 50.648046875 257.3 1.15 254.75 4.35 231.6 37.95 205.9 75.25 203.6 80.55 188.35 85.6 175 92.5 151.7 82.2 150.85 82.45 150.7 82.5 151.25 93.05 151.8 103.4 152.1 106.65 143.3 113.15 126.1 134.4 110.55 153.65 107.4 159.95 107.15 160.5 107.9 163.9 108.7 167.25 109.45 168.85
L 106.85 175.85 63.95 197.75
Q 63.85 197.8 58.05 210.8 52 224.35 50.8 226.25
L 37.85 235.65 49.9 237.05
Q 52.05 242.05 71.7 267.55 91 292.7 95.35 296.55
L 92.75 302.05 104.4 301 251.95 328.8
Q 255.998046875 331.3255859375 258.4 333.6 258.98671875 334.1791015625 259.45 334.7 263.623046875 330.7044921875 265.15 329.4
L 406.15 301.8 416.9 303.15 415.35 296.15
Q 433.7 272.7 461.55 236.3
L 473.6 233.1 463.2 226.95
Q 461.6 222.85 456.55 210.9 451 197.85 450.85 197.7
L 407.9 175.85 405.35 168.85
Q 406.1 167.25 406.9 163.9 407.65 160.5 407.35 159.9 391.2447265625 127.8021484375 362.7 106.65 363.25 100.65 363.65 94.65
M 358.25 91.7
L 357.95 93.8 356 106.35 355.7 108.3 349.1 103.55 346.4 101.6 343.1 99.2 358.25 91.7
M 338 99.45
L 356.8 111.05
Q 382.273828125 129.3548828125 397.65 156.55
L 399.3 159.55
Q 399.930078125 160.7169921875 400.5 161.85 400.25 162.8 399.1 165.65 398.1 168.2 398.05 168.4 398.0318359375 168.56171875 395.95 170.35 392.3943359375 173.466796875 382.6 181.6 382.5876953125 181.6251953125 382.55 181.65 372.343359375 188.5119140625 350.95 195.5
L 325.6 201.05 298.35 207
Q 281.7193359375 210.2388671875 257.4 212.45 236.0439453125 210.50078125 220.55 207.8 218.429296875 207.4369140625 216.4 207.05
L 163.85 195.5
Q 142.45 188.5 132.25 181.65 132.2 181.65 132.15 181.6 122.3794921875 173.4525390625 118.8 170.35 118.7787109375 170.325 118.75 170.3 116.76796875 168.575390625 116.75 168.45 116.700390625 168.2015625 115.7 165.65
L 115.7 165.65
Q 114.55 162.8 114.25 161.9 116.390234375 157.7412109375 118.75 153.75 133.8671875 128.3927734375 158 111.05
L 176.75 99.45
Q 186.35 94.4 197 90.3 192.65 95.05 191.6 99.35 191.355859375 100.21875 191.25 101.05 190.6580078125 105.3529296875 193.35 109.1 194.8130859375 111.125390625 197.25 113 202.95 117.5 232.1 122.65 235.98359375 123.3296875 239.8 123.95 243.85 124.6 254.65 126.05 254.55 126.3 255.25 127.75 256.05 129.45 257.4 131.7 258.75 129.45 259.55 127.75 260.25 126.3 260.15 126.05 261 125.95 277.85 123.45 280.25859375 123.07734375 282.7 122.65 285.696484375 122.1205078125 288.45 121.6 312.4359375 117.0375 317.55 113 319.6130859375 111.4099609375 320.95 109.7 324.776953125 104.96328125 323.2 99.3
L 322.85 98.1
Q 321.5482421875 94.405859375 317.75 90.3 328.43671875 94.4041015625 338 99.45
M 399.6 173.55
L 400.35 175.1 411.65 198.05
Q 411.4 199.25 410.05 201.75 409.699609375 202.4005859375 409.4 202.95 408.5875 204.5626953125 408.4 205.2
L 396.55 181.6 394.7 177.9
Q 397.32421875 175.8037109375 399.6 173.55
M 386.6 183.75
Q 389.634375 181.696484375 391.5 180.35
L 405.7 205.9 400.95 206.05 386.6 183.75
M 383.25 185.95
Q 386.5794921875 190.6828125 389.1 194.3 397.1119140625 205.8515625 397.15 206.15 397.1642578125 206.4576171875 397.2 206.7 383.3796875 220.4162109375 352.4 226.45
L 353.35 198.9
Q 373.0337890625 192.4 383.25 185.95
M 414.25 197.75
L 413.1 194.6 409.45 184.5 444.4 202.3 388.9 249.25 383.7 249.9 258.5 265.55 258.4 265.55 125.85 249.25 75.2 206.45 74.75 206.05 70.35 202.35 105.35 184.5 105.2 184.9 102.65 191.85 100.5 197.8
Q 100.35 198.15 105.8 207.35 111.25 216.65 112.2 217.55 122.7908203125 227.7818359375 153.85 238.95 157.387890625 240.2587890625 161.2 241.55 162.15 241.9 187.35 247.05 243.0103515625 253.3484375 256.45 254.3 256.5263671875 254.4630859375 256.6 254.45 256.97421875 254.4296875 257.35 254.4 257.787109375 254.42890625 258.15 254.45 258.255078125 254.4630859375 258.35 254.3 263.5423828125 253.9474609375 275 252.75 283.130078125 251.9498046875 294.35 250.7 308.45078125 249.1998046875 327.45 247.05 352.65 241.9 353.55 241.55
L 353.6 241.55
Q 390.7806640625 228.9501953125 402.55 217.55 403.55 216.65 409 207.35 414.45 198.15 414.25 197.75
M 456.9 235.6
L 452.1 241.75 409.35 296.65 409 297.1 258.55 320.25 258.4 320.2 224.05 315 224.1 315.05 217 313.95 217 313.95 207.8 312.55 199.35 311.3 101.75 296.5 101.5 296.2 53.45 235.95 67.55 205.2 124.75 253.15
Q 144.605859375 255.7310546875 159.25 257.6
L 167 258.6
Q 209.65 264.15 258.4 270
L 262.65 269.45 269.1 268.65 370.8 255.6
Q 390.45 252.85 391 252.35
L 408.8 237.55 408.75 237.55 414.4 232.8
Q 415.8 231.65 438.15 212.85
L 443.35 208.45
Q 445.2888671875 206.8390625 447.2 205.2
L 458.4 233.65 456.9 235.6
M 403.9 209.35
Q 401.2609375 213.2435546875 399.8 214.65 388.319921875 225.5494140625 352.3 237.75
L 352.3 237.75
Q 352.1865234375 237.79609375 352.05 237.85
L 352.3 230.55
Q 385.5080078125 224.253515625 400.15 209.45
L 403.9 209.35
M 349.3 200.2
L 349.4 208.55 349.75 240.15
Q 349.70390625 240.1537109375 349.65 240.15
L 349.4 240.15
Q 349.00078125 240.2197265625 348.55 240.25
L 348.55 240.25
Q 342.1646484375 241.0123046875 329.2 244.7
L 319.95 226.05 311.7 209.3
Q 319.3591796875 207.869140625 326.45 206.25 338.734375 203.490234375 349.3 200.2
M 255.7 9.2
Q 256.6509765625 7.903125 257.4 6.8 262.0212890625 13.6234375 272.95 29 292.35 56.19453125 305.35 84.7
L 305.4 84.75
Q 305.55 85.15 308.75 91.05 312.05 97.3 312.85 99.45 311.7443359375 101.9109375 309.15 103.95 305.9392578125 106.53515625 300.45 108.5 295.8203125 110.1345703125 289.55 111.35 282.005859375 112.8306640625 272.05 113.65 265.2638671875 114.244140625 257.35 114.5 237.146484375 113.80703125 224.2 111.15 210.217578125 108.2875 204.7 103.15 204 102.5 202.95 101 202 99.65 201.95 99.45 202.75 97.3 206.05 91.05 209.25 85.15 209.4 84.75 222.45 56.2 241.8 29
L 255.7 9.2
M 316.1 97.05
Q 315.35 94.7 314.6 92.8 318.3291015625 96.81796875 319.3 100.35 320.584765625 105.6154296875 315.1 109.8 307.1591796875 115.8529296875 287.05 119.95 283.691796875 120.630859375 280 121.25 269.945703125 122.9642578125 257.4 124.25 248.3236328125 123.32421875 240.55 122.15 209.9705078125 117.61015625 199.65 109.85 197.3642578125 108.0673828125 196.25 106.1 194.72421875 103.398046875 195.45 100.35 195.6 99.8 197.05 97.25 198.85 94.2 200.15 92.8 197.7 99.55 197.9 100.15 198.291015625 101.423046875 199.6 102.65 201.1017578125 104.0296875 203.75 105.35 210.3779296875 108.6212890625 224.15 111.5 226.4 112 235.7 113.55 246.4 115.3 251.05 115.85 252.05 115.95 257.4 115.95 262.75 115.95 263.75 115.85 265.8 115.6 276.95 113.85 287.8 112.1 289.1 111.85 314.9212890625 106.5919921875 316.9 100.15 317 99.85 316.1 97.05
M 167.25 102.4
L 164.85 104.1 159.1 108.3 156.8 93.75 156.5 91.75 160.2 93.55 171.7 99.2 167.25 102.4
M 115.15 173.6
Q 117.5 175.8 120.1 177.95
L 106.4 205.2
Q 106.15 204.35 104.75 201.75 103.4 199.25 103.15 198.05
L 115.15 173.6
M 123.3 180.4
L 128.2 183.75 113.85 206.05 109.1 205.9 123.3 180.4
M 117.55 206.75
Q 117.65 206.45 117.65 206.2 117.7 205.75 131.5 185.95 141.75 192.4 161.45 198.95
L 162.35 226.5
Q 131.4 220.4 117.55 206.75
M 114.95 214.65
Q 113.55 213.25 110.9 209.35
L 114.65 209.5
Q 129.3 224.25 162.5 230.6
L 162.75 237.85 159.3 236.65
Q 125.9791015625 225.0583984375 114.95 214.65
M 315.2 240.1
L 315.4 240.2
Q 315.4615234375 240.2517578125 315.5 240.25
L 321.8 244.1
Q 317.06875 244.693359375 306.3 245.8 299.5373046875 246.4939453125 290.4 247.4 286.3955078125 247.79140625 282.8 248.1 264.18125 249.9224609375 257.4 250.35 249.3205078125 249.8357421875 224.4 247.4 200.7 245.05 193 244.15
L 199.3 240.3 199.35 240.25 199.55 240.1 256.45 243.9
Q 256.5265625 244.0630859375 256.6 244.05
L 257.4 244 258.15 244.05
Q 258.25546875 244.0630859375 258.35 243.9
L 315.2 240.1
M 297.75 211.2
L 312.8 236.25 257.4 239.95 201.95 236.25 217.05 211.25
Q 218.6263671875 211.5455078125 220.25 211.8 235.534765625 214.498046875 256.45 216.4 256.565234375 216.5646484375 256.65 216.55 257.03203125 216.5181640625 257.4 216.45 257.7431640625 216.518359375 258.1 216.55 258.21796875 216.56484375 258.3 216.4 281.5177734375 214.27265625 297.75 211.2
M 302.1 210.65
Q 305.54296875 210.28984375 307.6 210
L 326.3 244.65 318.05 237.15 302.1 210.65
M 207.2 210
Q 209.25 210.3 212.7 210.7
L 196.7 237.15 188.5 244.65 207.2 210
M 165.05 240.15
L 165.1 234.15 165.5 200.2
Q 182.15 205.4 203.1 209.3
L 197.65 220.25 185.6 244.7
Q 171.4 240.65 165.05 240.15
M 187.85 145.75
Q 187.3 143.65 187.1 143.55
L 145.25 128.1 144.8 127.95
Q 144.7947265625 128.1669921875 144.8 128.5 145.369140625 133.9994140625 156.7 170.35 157.1361328125 171.63125 157.55 172.95 159.613671875 173.9462890625 161.55 174.6 173.492578125 178.7017578125 181.7 170.85 181.994921875 170.6189453125 182.25 170.35 183.82578125 168.7689453125 185.25 166.75 185.35 166.7 185.35 166.65 189.2 160.1 188.65 151.3 188.45 148.35 187.85 145.75
M 185.2 147.15
Q 185.5083984375 147.5982421875 185.75 148.1 185.96875 148.5607421875 186.1 149.05 186.426171875 150.009375 186.55 151.1
L 186.1 156.8
Q 185.2337890625 161.0810546875 182.75 166.75 181.687109375 168.185546875 180.3 169.3 179.60234375 169.8646484375 178.8 170.35 175.5220703125 172.405859375 170.75 173.05 163.4525390625 173.9958984375 160.65 170.55 160.5712890625 170.45234375 160.5 170.35 160.2857421875 170.0669921875 160.1 169.75
L 151.2 137.65 150.5 135.15 185.2 147.15
M 370 128.1
Q 369.9998046875 128.058203125 370 128
L 369.95 127.95 361.35 131.15 327.7 143.55
Q 327.5 143.65 326.95 145.75 326.35 148.35 326.15 151.3 325.6 160.1 329.4 166.6 329.45 166.65 332.5 170.35 340.39296875 178.323046875 351.7 175.1 354.37265625 174.3302734375 357.2 172.95 366.45 143.1 368.3 136 369.8462890625 130.1998046875 370 128.35
L 370 128.3
Q 369.99765625 128.2462890625 370 128.2
L 370 128.15
Q 369.9990234375 128.1408203125 370 128.1
M 364.3 135.15
L 363.45 138.1 354.65 169.7
Q 354.4845703125 170.052734375 354.25 170.35 353.5205078125 171.3443359375 352.4 172 349.4939453125 173.7431640625 344 173 339.2669921875 172.4001953125 335.95 170.35 333.646875 168.9046875 332.05 166.75 331.954296875 166.5326171875 331.85 166.3 328.82734375 159.3279296875 328.25 154.5 327.758984375 149.80078125 329.55 147.15
L 364.3 135.15 Z"/>

<path fill="#FF3300" stroke="none" d="
M 165.5 200.2
L 165.1 234.15 197.65 220.25 203.1 209.3
Q 182.15 205.4 165.5 200.2
M 120.1 177.95
Q 117.5 175.8 115.15 173.6
L 103.15 198.05
Q 103.4 199.25 104.75 201.75 106.15 204.35 106.4 205.2
L 120.1 177.95
M 156.8 93.75
L 159.1 108.3 164.85 104.1 156.8 93.75
M 235.7 113.55
Q 226.4 112 224.15 111.5 210.3779296875 108.6212890625 203.75 105.35 201.1017578125 104.0296875 199.6 102.65
L 196.25 106.1
Q 197.3642578125 108.0673828125 199.65 109.85 209.9705078125 117.61015625 240.55 122.15 248.3236328125 123.32421875 257.4 124.25 269.945703125 122.9642578125 280 121.25
L 289.1 111.85
Q 287.8 112.1 276.95 113.85 265.8 115.6 263.75 115.85 262.75 115.95 257.4 115.95 252.05 115.95 251.05 115.85 246.4 115.3 235.7 113.55
M 349.4 208.55
L 349.3 200.2
Q 338.734375 203.490234375 326.45 206.25 319.3591796875 207.869140625 311.7 209.3
L 319.95 226.05 342.6 212.55 349.4 208.55
M 100.5 197.8
L 102.65 191.85 75.2 206.45 125.85 249.25 258.4 265.55 258.5 265.55 294.35 250.7
Q 283.130078125 251.9498046875 275 252.75 263.5423828125 253.9474609375 258.35 254.3 258.255078125 254.4630859375 258.15 254.45 257.787109375 254.42890625 257.35 254.4 256.97421875 254.4296875 256.6 254.45 256.5263671875 254.4630859375 256.45 254.3 243.0103515625 253.3484375 187.35 247.05 162.15 241.9 161.2 241.55 157.387890625 240.2587890625 153.85 238.95 122.7908203125 227.7818359375 112.2 217.55 111.25 216.65 105.8 207.35 100.35 198.15 100.5 197.8
M 400.35 175.1
L 399.6 173.55
Q 397.32421875 175.8037109375 394.7 177.9
L 396.55 181.6 398.15 178.85 400.35 175.1
M 178.8 170.35
Q 179.60234375 169.8646484375 180.3 169.3
L 153.85 140.3 160.65 170.55
Q 163.4525390625 173.9958984375 170.75 173.05 175.5220703125 172.405859375 178.8 170.35
M 331.85 166.3
Q 331.954296875 166.5326171875 332.05 166.75 333.646875 168.9046875 335.95 170.35 339.2669921875 172.4001953125 344 173 349.4939453125 173.7431640625 352.4 172
L 358.85 144.25 331.85 166.3
M 355.7 108.3
L 356 106.35 356 96.15 349.1 103.55 355.7 108.3 Z"/>

<path fill="#FF9900" stroke="none" d="
M 165.1 234.15
L 165.05 240.15
Q 171.4 240.65 185.6 244.7
L 197.65 220.25 165.1 234.15
M 164.85 104.1
L 167.25 102.4
Q 166.612109375 101.5744140625 165.9 100.65 164 97.95 163.25 97.1 162.8 96.5 160.9 94.5 160.3740234375 93.9556640625 159.85 93.4
L 160.2 93.55 156.5 91.75 156.8 93.75 164.85 104.1
M 200.15 92.8
Q 198.85 94.2 197.05 97.25 195.6 99.8 195.45 100.35 194.72421875 103.398046875 196.25 106.1
L 199.6 102.65
Q 198.291015625 101.423046875 197.9 100.15 197.7 99.55 200.15 92.8
M 314.6 92.8
Q 315.35 94.7 316.1 97.05 317 99.85 316.9 100.15 314.9212890625 106.5919921875 289.1 111.85
L 280 121.25
Q 283.691796875 120.630859375 287.05 119.95 307.1591796875 115.8529296875 315.1 109.8 320.584765625 105.6154296875 319.3 100.35 318.3291015625 96.81796875 314.6 92.8
M 348.55 240.25
L 344.8 222.85
Q 343.5732421875 217.1740234375 342.6 212.55
L 319.95 226.05 329.2 244.7
Q 342.1646484375 241.0123046875 348.55 240.25
M 102.65 191.85
L 105.2 184.9 96.25 191.45
Q 88.3 197.2 84.8 199.6 79.39375 203.301171875 74.75 206.05
L 75.2 206.45 102.65 191.85
M 413.1 194.6
L 414.25 197.75
Q 414.45 198.15 409 207.35 403.55 216.65 402.55 217.55 390.7806640625 228.9501953125 353.6 241.55
L 353.55 241.55
Q 352.65 241.9 327.45 247.05 308.45078125 249.1998046875 294.35 250.7
L 258.5 265.55 383.7 249.9
Q 391.9794921875 241.32734375 403.85 230.75 427.35 209.75 432.7 204.45 422.5423828125 199.78203125 413.1 194.6
M 400.35 184
Q 398.65 180.85 398.25 179.3 398.2162109375 179.0712890625 398.15 178.85
L 396.55 181.6 408.4 205.2
Q 408.5875 204.5626953125 409.4 202.95 408.39921875 200.505859375 407.7 198.9 406.05 195 403.85 190.5 401.55 186.1 400.35 184
M 182.75 166.75
Q 185.2337890625 161.0810546875 186.1 156.8 186.016015625 157.26875 185.9 157.75 174.1 151.7 167.7 147.8 160.8 143.4 157.3 141.2 154.04453125 139.162109375 151.2 137.65
L 160.1 169.75
Q 160.2857421875 170.0669921875 160.5 170.35 160.5712890625 170.45234375 160.65 170.55
L 153.85 140.3 180.3 169.3
Q 181.687109375 168.185546875 182.75 166.75
M 363.45 138.1
L 363.35 138.5
Q 352.6193359375 142.959765625 342 147.95 342.883984375 148.6037109375 343.4 149.7 344.2 151.4 343.65 153.05 343.1 154.7 341.4 155.55 339.7 156.4 338 155.85 336 155.2 335.2 153.3 334.85 151.45 334.85 151.4 333.270703125 152.1662109375 331.7 152.95 329.433984375 154.0830078125 328.25 154.5 328.82734375 159.3279296875 331.85 166.3
L 358.85 144.25 352.4 172
Q 353.5205078125 171.3443359375 354.25 170.35 354.4845703125 170.052734375 354.65 169.7
L 363.45 138.1
M 357.95 93.8
L 356.05 95.15
Q 350.5236328125 99.00625 346.4 101.6
L 349.1 103.55 356 96.15 356 106.35 357.95 93.8 Z"/>

<path fill="#333333" stroke="none" d="
M 212.7 210.7
Q 209.25 210.3 207.2 210
L 188.5 244.65 196.7 237.15 212.7 210.7
M 307.6 210
Q 305.54296875 210.28984375 302.1 210.65
L 318.05 237.15 326.3 244.65 307.6 210
M 110.9 209.35
Q 113.55 213.25 114.95 214.65 125.9791015625 225.0583984375 159.3 236.65
L 162.75 237.85 162.5 230.6
Q 129.3 224.25 114.65 209.5
L 110.9 209.35
M 128.2 183.75
L 123.3 180.4 109.1 205.9 113.85 206.05 128.2 183.75
M 101.5 296.2
L 124.75 253.15 67.55 205.2 53.45 235.95 101.5 296.2
M 391.5 180.35
Q 389.634375 181.696484375 386.6 183.75
L 400.95 206.05 405.7 205.9 391.5 180.35 Z"/>

<path fill="#666666" stroke="none" d="
M 315.4 240.2
L 315.2 240.1 258.35 243.9
Q 258.25546875 244.0630859375 258.15 244.05
L 257.4 244 256.6 244.05
Q 256.5265625 244.0630859375 256.45 243.9
L 199.55 240.1 199.35 240.25 199.3 240.3 193 244.15
Q 200.7 245.05 224.4 247.4 249.3205078125 249.8357421875 257.4 250.35 264.18125 249.9224609375 282.8 248.1 286.3955078125 247.79140625 290.4 247.4 299.5373046875 246.4939453125 306.3 245.8 317.06875 244.693359375 321.8 244.1
L 315.5 240.25
Q 315.4615234375 240.2517578125 315.4 240.2
M 204.7 103.15
Q 210.217578125 108.2875 224.2 111.15 225.675390625 80.351171875 235.25 48.6 218.98046875 69.6630859375 204.7 103.15
M 266.05 95
Q 266.95 94.25 268.9 92.15 271.1 89.75 271.6 88.8 278.15 72.95 277.9 72.6 277.55 72.65 275.85 75.75
L 274.2 78.9
Q 273.6 80.05 271.7 82.75 270 85.15 269.45 85.8 268.1720703125 87.2671875 264.75 89.95
L 249.45 102.1
Q 249.1 102.45 257.4 98.9 265.65 95.35 266.05 95
M 275.25 59.5
Q 270.5 53.6 270.35 53.85 272 55.55 274.05 58.5 277 62.95 277.4 63.45 278.45 64.85 280.6 67.1 282.7 69.3 282.8 69.15 279.45 64.75 275.25 59.5
M 399.8 214.65
Q 401.2609375 213.2435546875 403.9 209.35
L 400.15 209.45
Q 385.5080078125 224.253515625 352.3 230.55
L 352.05 237.85
Q 352.1865234375 237.79609375 352.3 237.75
L 352.3 237.75
Q 388.319921875 225.5494140625 399.8 214.65
M 197.9 281.7
Q 197.65 281.9 204.9 293.3 212.35 305 212.35 305.1 201.55 309.95 199.35 311.3
L 207.8 312.55
Q 211.453125 309.8740234375 214.45 307.65 214.3 307.85 215.1 310.1 216 312.45 217 313.95
L 217 313.95 224.1 315.05 224.05 315
Q 216.8 306.05 216.75 306 228.8 298.05 231.1 296.15 230.6 295.75 224.45 299 221.1 300.75 215 303.9 200.5 284.35 197.9 281.7
M 279.25 287.3
Q 275.3 279.55 273.5 276.2 273.25 275.75 271.15 272.45 269.75 270.2 269.1 268.65
L 262.65 269.45
Q 282.25 295.75 283.65 296.25 283.85 296.25 279.25 287.3
M 159.25 257.6
Q 152.8 262.65 141.05 272.1 127.25 283.15 126.75 283.95 136.9 277.65 147 271.3 167.2 258.7 167 258.6
L 159.25 257.6
M 401.05 257.45
Q 398.65 268 398.25 269.1 398.25 269.45 393.05 276.7 387.95 283.85 388.05 283.85 388.5 283.75 394.5 279.35 400.45 274.95 400.5 274.75 401.45 258.5 401.05 257.45
M 357 268.8
Q 356.65 268.3 333.95 287.95 327.65 287.35 321.4 286.8 308.85 285.7 309.05 285.85 313.55 286.55 332 290.6 321.15 303.9 319.7 305.1 319.95 305.2 327.25 299.5 334.8 293.6 336.6 291.75 370.55 297.45 370.8 297.15 371 296.85 356.8 292.9 342.5 288.9 339.65 288.6 357.6 269.7 357 268.8
M 420.6 230.6
Q 420.15 230.55 419.75 232.05 419.45 233.3 419.4 234.2
L 414.4 232.8 408.75 237.55 408.8 237.55
Q 410.65 237.8 414.75 238.1 418.45 238.35 419.05 238.35 418.5 263.3 418.65 264.35 418.85 264.35 422 238.25 428.65 237.6 428.45 237.3 427.05 237.2 425.1 236.45 422.95 235.5 421.85 235.05 421.2 230.6 420.6 230.6
M 452.1 241.75
L 456.9 235.6
Q 446.6 240.35 443.75 241.3
L 435.9 243.9
Q 435.7 244.1 442.8 243.2 450.05 242.3 452.1 241.75
M 253.95 155.1
Q 257 157.05 277.85 174.3 276.6 172.15 271.65 167.35 267.1 162.95 265.35 161.75 262.65 159.95 257.8 157.2 252.8 154.4 253.95 155.1
M 263.85 192.25
L 275.9 182.7
Q 288.25 172.95 289.95 171.8 307.15 159.15 306.95 158.4 303.65 158.8 296.4 162.8 289.45 166.9 288.75 167.3 286.1 168.9 274.95 180 263.55 191.25 263.85 192.25
M 399.85 160.6
Q 399.584375 160.087890625 399.3 159.55
L 397.65 156.55
Q 397.2 156.9 395.1 157.55 393 158.2 392 158.4
L 383.2 160.3
Q 383 159.3 381.9 156.8 380.75 154.25 380.45 154.3
L 381.5 160.65
Q 380.35 160.85 378.35 161 376 161.15 375.35 160.95 375.55 161.5 378.75 162.1 380.3 162.4 381.7 162.6 381.75 164.3 380.15 174.25 380.4 174.35 383.55 162.6 385.25 162.65 393.2 161.85 393.95 161.8 396.85 161.25 399.7 160.7 399.85 160.6
M 340.75 195.3
Q 335.35 186.45 334.3 185.4 333.35 184.45 319.6 177.3 319.1 177.1 316.55 176.2 313.8 175.15 313.65 175.3 314.05 175.8 320.55 180.25 339.6 194.3 340.75 195.3
M 332.6 96.7
Q 330.3087890625 95.612109375 327.95 94.55 334.05 103.65 334.15 103.65
L 334.65 103.95
Q 333.65 99 332.6 96.7 Z"/>

<path fill="#FFFFFF" stroke="none" d="
M 165.9 100.65
Q 166.612109375 101.5744140625 167.25 102.4
L 171.7 99.2 160.2 93.55 159.85 93.4
Q 160.3740234375 93.9556640625 160.9 94.5 162.8 96.5 163.25 97.1 164 97.95 165.9 100.65
M 272.4 33.7
Q 259.9 15.45 259.8 15.9 265.3 25.95 271.7 39.05 274.95 45.8 282.8 62.55 292.15 82.65 294 87.75 294.95 90.3 300.45 108.5 305.9392578125 106.53515625 309.15 103.95 295.8 69.9 292.15 63.85 285.7 53.2 272.4 33.7
M 261 33.3
Q 260.25 34.4 260.25 35.45 260.2 36.4 260.8 37.3 261.35 38.1 262.25 38.5 263.15 38.9 264.15 38.7 265.15 38.5 265.85 37.8 266.5 37.15 266.75 36.1 266.95 35.1 266.6 34.2 266.2 33.3 265.4 32.7 264.55 32.1 263.6 32.1 262.65 32.25 262.2 32.4 261.5 32.65 261 33.3
M 349.65 240.15
Q 349.70390625 240.1537109375 349.75 240.15
L 349.4 208.55 342.6 212.55
Q 343.5732421875 217.1740234375 344.8 222.85
L 348.55 240.25 348.55 240.25
Q 349.00078125 240.2197265625 349.4 240.15
L 349.65 240.15
M 392.9 256.25
Q 391.15 252.35 391 252.35 390.45 252.85 370.8 255.6
L 370.1 255.7
Q 350.9630859375 258.765234375 333.3 261.75 316.6 264.55 308 266.45 294.05 269.45 283.3 273.45 297.5 271.55 350.4 265.55 375.4333984375 262.7115234375 394.65 260.05 393.8 258.15 392.9 256.25
M 452.15 235
Q 452.85 234.75 449.45 224.45 446.05 214.2 443.35 208.45
L 438.15 212.85
Q 438 213 444.85 224.1 451.75 235.15 452.15 235
M 438.7 223.95
Q 438.2 223.25 437.1 222.8 436 222.35 434.8 222.55 433.55 222.75 432.65 223.5 430.65 225.1 430.95 227.7 431.1 228.85 431.8 229.85 432.5 230.9 433.55 231.4 435 232.1 436.3 231.8 438.25 231.5 439.25 229.45 440.1 227.75 439.5 225.6 439.25 224.55 438.7 223.95
M 444.05 234.3
Q 443.05 232.85 441.35 233.1 441.15 233.3 440.45 233.3 439.35 233.5 438.8 235.3 438.5 236.65 438.8 237.3 439.15 238.1 440.5 238.65 442 239.15 442.85 238.8 443.85 238.45 444.3 237.3 444.95 235.75 444.05 234.3
M 105.2 184.9
L 105.35 184.5 70.35 202.35 74.75 206.05
Q 79.39375 203.301171875 84.8 199.6 88.3 197.2 96.25 191.45
L 105.2 184.9
M 409.45 184.5
L 413.1 194.6
Q 422.5423828125 199.78203125 432.7 204.45 427.35 209.75 403.85 230.75 391.9794921875 241.32734375 383.7 249.9
L 388.9 249.25 444.4 202.3 409.45 184.5
M 400.35 175.1
L 398.15 178.85
Q 398.2162109375 179.0712890625 398.25 179.3 398.65 180.85 400.35 184 401.55 186.1 403.85 190.5 406.05 195 407.7 198.9 408.39921875 200.505859375 409.4 202.95 409.699609375 202.4005859375 410.05 201.75 411.4 199.25 411.65 198.05
L 400.35 175.1
M 307.55 182.3
Q 306.1 183.45 306 185.25 306 187.1 307.35 188.3 308.1 189.05 309.05 189.2 310.4 189.6 311.75 188.65 312.65 188.05 313.15 187 313.65 185.95 313.5 184.9 313.4 183.8 312.65 182.95 311.9 182.05 310.85 181.7 309.05 181.2 307.55 182.3
M 185.75 148.1
Q 185.5083984375 147.5982421875 185.2 147.15
L 150.5 135.15 151.2 137.65
Q 154.04453125 139.162109375 157.3 141.2 160.8 143.4 167.7 147.8 174.1 151.7 185.9 157.75 186.016015625 157.26875 186.1 156.8
L 186.55 151.1
Q 186.426171875 150.009375 186.1 149.05 185.96875 148.5607421875 185.75 148.1
M 334.65 103.95
L 334.15 103.65
Q 331.85 102.4 327.35 100.25 324.55 98.9 322.85 98.1
L 323.2 99.3
Q 324.776953125 104.96328125 320.95 109.7 328.95 113.4 343.45 121.15 357.7 128.75 361.35 131.15
L 369.95 127.95
Q 369.55 127.6 334.65 103.95
M 363.35 138.5
L 363.45 138.1 364.3 135.15 329.55 147.15
Q 327.758984375 149.80078125 328.25 154.5 329.433984375 154.0830078125 331.7 152.95 333.270703125 152.1662109375 334.85 151.4 334.85 151.45 335.2 153.3 336 155.2 338 155.85 339.7 156.4 341.4 155.55 343.1 154.7 343.65 153.05 344.2 151.4 343.4 149.7 342.883984375 148.6037109375 342 147.95 352.6193359375 142.959765625 363.35 138.5
M 368.3 136
Q 369.6 137 376.9 143.55 385.95 151.75 389.8 156.25 384.2498046875 141.0349609375 370 128 369.9998046875 128.058203125 370 128.1 369.9990234375 128.1408203125 370 128.15
L 370 128.2
Q 369.99765625 128.2462890625 370 128.3
L 370 128.35
Q 369.8462890625 130.1998046875 368.3 136
M 328.35 133.55
Q 328.3 134.35 328.7 135.1 329.15 135.85 329.9 136.2 330.65 136.55 331.5 136.45 332.35 136.35 332.95 135.8 333.55 135.25 333.75 134.4 333.95 133.55 333.65 132.8 333.45 132.15 332.2 131.55 331.25 131.1 330.95 131.1 330 131.1 329.2 131.8 328.45 132.55 328.35 133.55
M 327.6 129.1
Q 328.6 127.55 328.45 125.6 328.3 123.65 327.05 122.3 325.6 120.65 323.2 120.3 321.2 120.05 319.4 121.1 317.15 122.35 316.6 124.95 316.05 127.45 317.7 129.65 319.1 131.35 321.25 131.8 323.05 132.2 324.85 131.4 326.6 130.65 327.6 129.1
M 357.95 93.8
L 358.25 91.7 343.1 99.2 346.4 101.6
Q 350.5236328125 99.00625 356.05 95.15
L 357.95 93.8 Z"/>

<path fill="url(#Gradient_1)" stroke="none" d="
M 266.05 95
Q 265.65 95.35 257.4 98.9 249.1 102.45 249.45 102.1
L 264.75 89.95
Q 256.264453125 55.535546875 255.7 9.2
L 241.8 29
Q 222.45 56.2 209.4 84.75 209.25 85.15 206.05 91.05 202.75 97.3 201.95 99.45 202 99.65 202.95 101 204 102.5 204.7 103.15 218.98046875 69.6630859375 235.25 48.6 225.675390625 80.351171875 224.2 111.15 237.146484375 113.80703125 257.35 114.5 265.2638671875 114.244140625 272.05 113.65 268.7021484375 104.8509765625 266.05 95 Z"/>

<path fill="url(#Gradient_2)" stroke="none" d="
M 257.4 6.8
Q 256.6509765625 7.903125 255.7 9.2 256.264453125 55.535546875 264.75 89.95 268.1720703125 87.2671875 269.45 85.8 270 85.15 271.7 82.75 273.6 80.05 274.2 78.9
L 275.85 75.75
Q 277.55 72.65 277.9 72.6 278.15 72.95 271.6 88.8 271.1 89.75 268.9 92.15 266.95 94.25 266.05 95 268.7021484375 104.8509765625 272.05 113.65 282.005859375 112.8306640625 289.55 111.35 295.8203125 110.1345703125 300.45 108.5 294.95 90.3 294 87.75 292.15 82.65 282.8 62.55 274.95 45.8 271.7 39.05 265.3 25.95 259.8 15.9 259.9 15.45 272.4 33.7 285.7 53.2 292.15 63.85 295.8 69.9 309.15 103.95 311.7443359375 101.9109375 312.85 99.45 312.05 97.3 308.75 91.05 305.55 85.15 305.4 84.75
L 305.35 84.7
Q 292.35 56.19453125 272.95 29 262.0212890625 13.6234375 257.4 6.8
M 260.25 35.45
Q 260.25 34.4 261 33.3 261.5 32.65 262.2 32.4 262.65 32.25 263.6 32.1 264.55 32.1 265.4 32.7 266.2 33.3 266.6 34.2 266.95 35.1 266.75 36.1 266.5 37.15 265.85 37.8 265.15 38.5 264.15 38.7 263.15 38.9 262.25 38.5 261.35 38.1 260.8 37.3 260.2 36.4 260.25 35.45
M 270.35 53.85
Q 270.5 53.6 275.25 59.5 279.45 64.75 282.8 69.15 282.7 69.3 280.6 67.1 278.45 64.85 277.4 63.45 277 62.95 274.05 58.5 272 55.55 270.35 53.85 Z"/>

<path fill="url(#Gradient_3)" stroke="none" d="
M 214.45 307.65
Q 211.453125 309.8740234375 207.8 312.55
L 217 313.95
Q 216 312.45 215.1 310.1 214.3 307.85 214.45 307.65
M 101.5 296.2
L 101.75 296.5 199.35 311.3
Q 201.55 309.95 212.35 305.1 212.35 305 204.9 293.3 197.65 281.9 197.9 281.7 200.5 284.35 215 303.9 221.1 300.75 224.45 299 230.6 295.75 231.1 296.15 228.8 298.05 216.75 306 216.8 306.05 224.05 315
L 258.4 320.2 258.4 270
Q 209.65 264.15 167 258.6 167.2 258.7 147 271.3 136.9 277.65 126.75 283.95 127.25 283.15 141.05 272.1 152.8 262.65 159.25 257.6 144.605859375 255.7310546875 124.75 253.15
L 101.5 296.2 Z"/>

<path fill="url(#Gradient_4)" stroke="none" d="
M 398.25 269.1
L 394.65 260.05
Q 375.4333984375 262.7115234375 350.4 265.55 297.5 271.55 283.3 273.45 294.05 269.45 308 266.45 316.6 264.55 333.3 261.75 350.9630859375 258.765234375 370.1 255.7
L 370.8 255.6 269.1 268.65
Q 269.75 270.2 271.15 272.45 273.25 275.75 273.5 276.2 275.3 279.55 279.25 287.3 283.85 296.25 283.65 296.25 282.25 295.75 262.65 269.45
L 258.4 270 258.4 320.2 258.55 320.25 409 297.1 409.35 296.65 400.5 274.75
Q 400.45 274.95 394.5 279.35 388.5 283.75 388.05 283.85 387.95 283.85 393.05 276.7 398.25 269.45 398.25 269.1
M 333.95 287.95
Q 356.65 268.3 357 268.8 357.6 269.7 339.65 288.6 342.5 288.9 356.8 292.9 371 296.85 370.8 297.15 370.55 297.45 336.6 291.75 334.8 293.6 327.25 299.5 319.95 305.2 319.7 305.1 321.15 303.9 332 290.6 313.55 286.55 309.05 285.85 308.85 285.7 321.4 286.8 327.65 287.35 333.95 287.95 Z"/>

<path fill="url(#Gradient_5)" stroke="none" d="
M 456.9 235.6
L 458.4 233.65 447.2 205.2
Q 445.2888671875 206.8390625 443.35 208.45 446.05 214.2 449.45 224.45 452.85 234.75 452.15 235 451.75 235.15 444.85 224.1 438 213 438.15 212.85 415.8 231.65 414.4 232.8
L 419.4 234.2
Q 419.45 233.3 419.75 232.05 420.15 230.55 420.6 230.6 421.2 230.6 421.85 235.05 422.95 235.5 425.1 236.45 427.05 237.2 428.45 237.3 428.65 237.6 422 238.25 418.85 264.35 418.65 264.35 418.5 263.3 419.05 238.35 418.45 238.35 414.75 238.1 410.65 237.8 408.8 237.55
L 391 252.35
Q 391.15 252.35 392.9 256.25 393.8 258.15 394.65 260.05
L 398.25 269.1
Q 398.65 268 401.05 257.45 401.45 258.5 400.5 274.75
L 409.35 296.65 452.1 241.75
Q 450.05 242.3 442.8 243.2 435.7 244.1 435.9 243.9
L 443.75 241.3
Q 446.6 240.35 456.9 235.6
M 441.35 233.1
Q 443.05 232.85 444.05 234.3 444.95 235.75 444.3 237.3 443.85 238.45 442.85 238.8 442 239.15 440.5 238.65 439.15 238.1 438.8 237.3 438.5 236.65 438.8 235.3 439.35 233.5 440.45 233.3 441.15 233.3 441.35 233.1
M 437.1 222.8
Q 438.2 223.25 438.7 223.95 439.25 224.55 439.5 225.6 440.1 227.75 439.25 229.45 438.25 231.5 436.3 231.8 435 232.1 433.55 231.4 432.5 230.9 431.8 229.85 431.1 228.85 430.95 227.7 430.65 225.1 432.65 223.5 433.55 222.75 434.8 222.55 436 222.35 437.1 222.8 Z"/>

<path fill="url(#Gradient_6)" stroke="none" d="
M 239.8 123.95
Q 230.833984375 145.523828125 225.8 170.35 222.16640625 188.23125 220.55 207.8 236.0439453125 210.50078125 257.4 212.45 281.7193359375 210.2388671875 298.35 207
L 325.6 201.05
Q 323.680859375 190.359375 320.55 180.25 314.05 175.8 313.65 175.3 313.8 175.15 316.55 176.2 319.1 177.1 319.6 177.3 319.4791015625 176.934375 319.35 176.55 318.3052734375 173.42265625 317.15 170.35 307.1525390625 143.953515625 288.45 121.6 285.696484375 122.1205078125 282.7 122.65 280.25859375 123.07734375 277.85 123.45 261 125.95 260.15 126.05 260.25 126.3 259.55 127.75 258.75 129.45 257.4 131.7 256.05 129.45 255.25 127.75 254.55 126.3 254.65 126.05 243.85 124.6 239.8 123.95
M 275.9 182.7
L 263.85 192.25
Q 263.55 191.25 274.95 180 286.1 168.9 288.75 167.3 289.45 166.9 296.4 162.8 303.65 158.8 306.95 158.4 307.15 159.15 289.95 171.8 288.25 172.95 275.9 182.7
M 277.85 174.3
Q 257 157.05 253.95 155.1 252.8 154.4 257.8 157.2 262.65 159.95 265.35 161.75 267.1 162.95 271.65 167.35 276.6 172.15 277.85 174.3
M 306 185.25
Q 306.1 183.45 307.55 182.3 309.05 181.2 310.85 181.7 311.9 182.05 312.65 182.95 313.4 183.8 313.5 184.9 313.65 185.95 313.15 187 312.65 188.05 311.75 188.65 310.4 189.6 309.05 189.2 308.1 189.05 307.35 188.3 306 187.1 306 185.25 Z"/>

<path fill="url(#Gradient_7)" stroke="none" d="
M 191.25 101.05
Q 191.355859375 100.21875 191.6 99.35 192.65 95.05 197 90.3 186.35 94.4 176.75 99.45
L 158 111.05
Q 133.8671875 128.3927734375 118.75 153.75 116.390234375 157.7412109375 114.25 161.9 114.55 162.8 115.7 165.65
L 115.7 165.65
Q 117.116796875 162.566015625 118.75 159.55 127.9517578125 142.5587890625 144.8 128.5 144.7947265625 128.1669921875 144.8 127.95
L 145.25 128.1
Q 163.73046875 112.8673828125 191.25 101.05 Z"/>

<path fill="url(#Gradient_8)" stroke="none" d="
M 239.8 123.95
Q 235.98359375 123.3296875 232.1 122.65 202.95 117.5 197.25 113 194.8130859375 111.125390625 193.35 109.1 190.6580078125 105.3529296875 191.25 101.05 163.73046875 112.8673828125 145.25 128.1
L 187.1 143.55
Q 187.3 143.65 187.85 145.75 188.45 148.35 188.65 151.3 189.2 160.1 185.35 166.65 185.35 166.7 185.25 166.75 183.82578125 168.7689453125 182.25 170.35 181.994921875 170.6189453125 181.7 170.85 173.492578125 178.7017578125 161.55 174.6 159.613671875 173.9462890625 157.55 172.95 157.1361328125 171.63125 156.7 170.35 145.369140625 133.9994140625 144.8 128.5 127.9517578125 142.5587890625 118.75 159.55 117.116796875 162.566015625 115.7 165.65 116.700390625 168.2015625 116.75 168.45 116.76796875 168.575390625 118.75 170.3 118.7787109375 170.325 118.8 170.35 122.3794921875 173.4525390625 132.15 181.6 132.2 181.65 132.25 181.65 142.45 188.5 163.85 195.5
L 216.4 207.05
Q 218.429296875 207.4369140625 220.55 207.8 222.16640625 188.23125 225.8 170.35 230.833984375 145.523828125 239.8 123.95 Z"/>

<path fill="url(#Gradient_9)" stroke="none" d="
M 327.95 94.55
Q 330.3087890625 95.612109375 332.6 96.7 333.65 99 334.65 103.95 369.55 127.6 369.95 127.95
L 370 128
Q 384.2498046875 141.0349609375 389.8 156.25 385.95 151.75 376.9 143.55 369.6 137 368.3 136 366.45 143.1 357.2 172.95 354.37265625 174.3302734375 351.7 175.1 340.39296875 178.323046875 332.5 170.35 329.45 166.65 329.4 166.6 325.6 160.1 326.15 151.3 326.35 148.35 326.95 145.75 327.5 143.65 327.7 143.55
L 361.35 131.15
Q 357.7 128.75 343.45 121.15 328.95 113.4 320.95 109.7 319.6130859375 111.4099609375 317.55 113 312.4359375 117.0375 288.45 121.6 307.1525390625 143.953515625 317.15 170.35 318.3052734375 173.42265625 319.35 176.55 319.4791015625 176.934375 319.6 177.3 333.35 184.45 334.3 185.4 335.35 186.45 340.75 195.3 339.6 194.3 320.55 180.25 323.680859375 190.359375 325.6 201.05
L 350.95 195.5
Q 372.343359375 188.5119140625 382.55 181.65 382.5876953125 181.6251953125 382.6 181.6 392.3943359375 173.466796875 395.95 170.35 398.0318359375 168.56171875 398.05 168.4 398.1 168.2 399.1 165.65 400.25 162.8 400.5 161.85 399.930078125 160.7169921875 399.3 159.55 399.584375 160.087890625 399.85 160.6 399.7 160.7 396.85 161.25 393.95 161.8 393.2 161.85 385.25 162.65 383.55 162.6 380.4 174.35 380.15 174.25 381.75 164.3 381.7 162.6 380.3 162.4 378.75 162.1 375.55 161.5 375.35 160.95 376 161.15 378.35 161 380.35 160.85 381.5 160.65
L 380.45 154.3
Q 380.75 154.25 381.9 156.8 383 159.3 383.2 160.3
L 392 158.4
Q 393 158.2 395.1 157.55 397.2 156.9 397.65 156.55 382.273828125 129.3548828125 356.8 111.05
L 338 99.45
Q 328.43671875 94.4041015625 317.75 90.3 321.5482421875 94.405859375 322.85 98.1 324.55 98.9 327.35 100.25 331.85 102.4 334.15 103.65 334.05 103.65 327.95 94.55
M 328.45 125.6
Q 328.6 127.55 327.6 129.1 326.6 130.65 324.85 131.4 323.05 132.2 321.25 131.8 319.1 131.35 317.7 129.65 316.05 127.45 316.6 124.95 317.15 122.35 319.4 121.1 321.2 120.05 323.2 120.3 325.6 120.65 327.05 122.3 328.3 123.65 328.45 125.6
M 328.7 135.1
Q 328.3 134.35 328.35 133.55 328.45 132.55 329.2 131.8 330 131.1 330.95 131.1 331.25 131.1 332.2 131.55 333.45 132.15 333.65 132.8 333.95 133.55 333.75 134.4 333.55 135.25 332.95 135.8 332.35 136.35 331.5 136.45 330.65 136.55 329.9 136.2 329.15 135.85 328.7 135.1 Z"/>
</g>

<g id="Catapult_Shield_copy_2_0_Layer0_0_FILL">
<path fill="#000000" stroke="none" d="
M 74.55 28.8
Q 74.15 27.5 55.25 13.8 36.3 0.1 34.65 0 32.7 -0.1 16.2 14.75 -0.2 29.5 0.15 30.55 1.15 33.45 5.3 43.55 10.65 56.55 13.15 60.9 16.25 66.35 26.15 75.25 36.15 84.25 38.7 83.6 40.55 83.15 43.05 80.7 51.9 72.05 64.05 50.65 75.2 30.95 74.55 28.8
M 69.9 33.65
Q 67.8 38.7 65.35 43.5 58.75 56.5 49.75 67.9 47.5 70.8 42.8 75.15 37.75 79.8 36.55 79.75 35.35 79.7 29.35 74.15 23.45 68.7 20.85 65.35 15.75 58.9 11.95 50.05 9.85 45.15 7.8 38.45 7.15 36.35 6.5 33.65 5.6 29.9 5.85 28.95 6.15 28 19.75 16.2 33.45 4.25 34.55 4.3 35.4 4.4 52.85 16.75 70.4 29.2 70.55 30.05 70.85 31.3 69.9 33.65
M 64.2 33.55
Q 65.2 30.7 64.4 29.25 63.85 28.2 49.85 20.15 35.4 11.85 33.5 12.4 32 12.85 21.3 21.25 10.35 29.8 10.3 31 10.25 31.7 15.2 42.5 20.1 53.15 21.05 54.7 22.9 57.6 30.4 64.85 38.05 72.25 39.1 71.95 40.4 71.55 50.15 57.65 60.95 42.15 64.2 33.55
M 47.55 22.65
Q 60.8 29.95 61.3 30.05 59.05 39.15 57 43.4 55.1 47.35 48.7 56.6 46.65 59.25 42.95 63.6 38.8 68.55 38.4 68.7 37.5 69 36.2 68.3 32.9 65.5 31.6 63.9 26.2 57.25 21.6 50.1
L 18.8 45.5
Q 17.7 43.35 15.65 37.95 13.25 31.65 13.1 29.5 19.1 26.55 31.25 17.55
L 34.2 15.55
Q 34.45 15.45 47.55 22.65 Z"/>

<path fill="#666666" stroke="none" d="
M 20.85 65.35
Q 23.45 68.7 29.35 74.15 35.35 79.7 36.55 79.75 37.75 79.8 42.8 75.15 47.5 70.8 49.75 67.9 58.75 56.5 65.35 43.5 38.8 75.95 38.1 75.85 23.2 64.9 20.35 61.05 19.35 59.65 14.4 50.5 8.9 40.3 7.8 38.45 9.85 45.15 11.95 50.05 15.75 58.9 20.85 65.35 Z"/>

<path fill="url(#Gradient_10)" stroke="none" d="
M 65.35 43.5
Q 67.8 38.7 69.9 33.65 70.85 31.3 70.55 30.05 70.4 29.2 52.85 16.75 35.4 4.4 34.55 4.3 33.45 4.25 19.75 16.2 6.15 28 5.85 28.95 5.6 29.9 6.5 33.65 7.15 36.35 7.8 38.45 8.9 40.3 14.4 50.5 19.35 59.65 20.35 61.05 23.2 64.9 38.1 75.85 38.8 75.95 65.35 43.5
M 64.4 29.25
Q 65.2 30.7 64.2 33.55 60.95 42.15 50.15 57.65 40.4 71.55 39.1 71.95 38.05 72.25 30.4 64.85 22.9 57.6 21.05 54.7 20.1 53.15 15.2 42.5 10.25 31.7 10.3 31 10.35 29.8 21.3 21.25 32 12.85 33.5 12.4 35.4 11.85 49.85 20.15 63.85 28.2 64.4 29.25 Z"/>

<path fill="#FF3300" stroke="none" d="
M 25.35 24.05
Q 28.3 20.8 31.25 17.55 19.1 26.55 13.1 29.5 13.25 31.65 15.65 37.95 17.7 43.35 18.8 45.5
L 21.6 50.1
Q 26.2 57.25 31.6 63.9 32.9 65.5 36.2 68.3 31.6 61.3 25.1 46.05 19.2 32.3 19.4 31.15 19.55 30.55 25.35 24.05 Z"/>

<path fill="#FFFFFF" stroke="none" d="
M 52.5 34.05
Q 52.15 38.95 50.5 47.8 49.15 55.05 48.7 56.6 55.1 47.35 57 43.4 59.05 39.15 61.3 30.05 60.8 29.95 47.55 22.65 34.45 15.45 34.2 15.55 34.65 21.7 38.8 57.65 41.55 41.55 40.55 25.35 43.5 26.65 47.55 28.7 52.05 31.05 52.3 31.55 52.6 32.3 52.5 34.05 Z"/>

<path fill="#FF9900" stroke="none" d="
M 50.5 47.8
Q 52.15 38.95 52.5 34.05 52.6 32.3 52.3 31.55 52.05 31.05 47.55 28.7 43.5 26.65 40.55 25.35 41.55 41.55 38.8 57.65 34.65 21.7 34.2 15.55
L 31.25 17.55
Q 28.3 20.8 25.35 24.05 19.55 30.55 19.4 31.15 19.2 32.3 25.1 46.05 31.6 61.3 36.2 68.3 37.5 69 38.4 68.7 38.8 68.55 42.95 63.6 46.65 59.25 48.7 56.6 49.15 55.05 50.5 47.8 Z"/>
</g>
</defs>

<g transform="matrix( 1, 0, 0, 1, 242.7,168.85) ">
<g transform="matrix( 1, 0, 0, 1, 0,0) ">
<use xlink:href="#Bunker_0_Layer3_0_FILL"/>
</g>

<g transform="matrix( 0.510833740234375, -0.082977294921875, 0.082977294921875, 0.510833740234375, 401.6,166.4) ">
<g transform="matrix( 1, 0, 0, 1, 0,0) ">
<use xlink:href="#Bunker_Spike_0_Layer0_0_FILL"/>
</g>
</g>

<g transform="matrix( 0.649627685546875, -0.065216064453125, 0.065216064453125, 0.649627685546875, 413.55,172) ">
<g transform="matrix( 1, 0, 0, 1, 0,0) ">
<use xlink:href="#Bunker_Spike_0_Layer0_0_FILL"/>
</g>
</g>

<g transform="matrix( 0.6969146728515625, -0.0092315673828125, 0.0092315673828125, 0.6969146728515625, 430.25,176.75) ">
<g transform="matrix( 1, 0, 0, 1, 0,0) ">
<use xlink:href="#Bunker_Spike_0_Layer0_0_FILL"/>
</g>
</g>

<g transform="matrix( -0.510833740234375, -0.082977294921875, -0.082977294921875, 0.510833740234375, 116.15,169.6) ">
<g transform="matrix( 1, 0, 0, 1, 0,0) ">
<use xlink:href="#Bunker_Spike_0_Layer0_0_FILL"/>
</g>
</g>

<g transform="matrix( -0.649627685546875, -0.065216064453125, -0.065216064453125, 0.649627685546875, 104.2,175.2) ">
<g transform="matrix( 1, 0, 0, 1, 0,0) ">
<use xlink:href="#Bunker_Spike_0_Layer0_0_FILL"/>
</g>
</g>

<g transform="matrix( -0.6969146728515625, -0.0092315673828125, -0.0092315673828125, 0.6969146728515625, 87.5,179.95) ">
<g transform="matrix( 1, 0, 0, 1, 0,0) ">
<use xlink:href="#Bunker_Spike_0_Layer0_0_FILL"/>
</g>
</g>

<g transform="matrix( 1, 0, 0, 1, 0,0) ">
<use xlink:href="#Bunker_0_Layer1_0_FILL"/>
</g>

<g transform="matrix( 0.7510528564453125, 0.091552734375, -0.091552734375, 0.7510528564453125, 445.95,189.5) ">
<g transform="matrix( 1, 0, 0, 1, 0,0) ">
<use xlink:href="#Bunker_Spike_0_Layer0_0_FILL"/>
</g>
</g>

<g transform="matrix( 0.3294677734375, -0.27630615234375, 0.37591552734375, 0.4735870361328125, 425.45,204.05) ">
<g transform="matrix( 1, 0, 0, 1, 0,0) ">
<use xlink:href="#Catapult_Shield_copy_2_0_Layer0_0_FILL"/>
</g>
</g>

<g transform="matrix( 0.9503936767578125, 0.09527587890625, -0.09527587890625, 0.9503936767578125, 427.25,202.5) ">
<g transform="matrix( 1, 0, 0, 1, 0,0) ">
<use xlink:href="#Bunker_Spike_0_Layer0_0_FILL"/>
</g>
</g>

<g transform="matrix( 0.5677490234375, -0.2032928466796875, 0.41815185546875, 0.692169189453125, 392.05,217.75) ">
<g transform="matrix( 1, 0, 0, 1, 0,0) ">
<use xlink:href="#Catapult_Shield_copy_2_0_Layer0_0_FILL"/>
</g>
</g>

<g transform="matrix( 1.113739013671875, 0.111663818359375, -0.111663818359375, 1.113739013671875, 399.75,222.85) ">
<g transform="matrix( 1, 0, 0, 1, 0,0) ">
<use xlink:href="#Bunker_Spike_0_Layer0_0_FILL"/>
</g>
</g>

<g transform="matrix( 0.794219970703125, -0.27264404296875, 0.26202392578125, 0.7649993896484375, 225.4,278.15) ">
<g transform="matrix( 1, 0, 0, 1, 0,0) ">
<use xlink:href="#Catapult_Shield_copy_2_0_Layer0_0_FILL"/>
</g>
</g>

<g transform="matrix( -0.7510528564453125, 0.091552734375, 0.091552734375, 0.7510528564453125, 70.65,197.85) ">
<g transform="matrix( 1, 0, 0, 1, 0,0) ">
<use xlink:href="#Bunker_Spike_0_Layer0_0_FILL"/>
</g>
</g>

<g transform="matrix( -0.3294677734375, -0.27630615234375, -0.37591552734375, 0.4735870361328125, 91.15,212.4) ">
<g transform="matrix( 1, 0, 0, 1, 0,0) ">
<use xlink:href="#Catapult_Shield_copy_2_0_Layer0_0_FILL"/>
</g>
</g>

<g transform="matrix( -0.9503936767578125, 0.09527587890625, 0.09527587890625, 0.9503936767578125, 89.35,210.85) ">
<g transform="matrix( 1, 0, 0, 1, 0,0) ">
<use xlink:href="#Bunker_Spike_0_Layer0_0_FILL"/>
</g>
</g>

<g transform="matrix( -0.5677490234375, -0.2032928466796875, -0.41815185546875, 0.692169189453125, 124.55,226.1) ">
<g transform="matrix( 1, 0, 0, 1, 0,0) ">
<use xlink:href="#Catapult_Shield_copy_2_0_Layer0_0_FILL"/>
</g>
</g>

<g transform="matrix( -1.113739013671875, 0.111663818359375, 0.111663818359375, 1.113739013671875, 116.85,231.2) ">
<g transform="matrix( 1, 0, 0, 1, 0,0) ">
<use xlink:href="#Bunker_Spike_0_Layer0_0_FILL"/>
</g>
</g>
</g>
</svg>
