
<svg xmlns="http://www.w3.org/2000/svg" version="1.1" xmlns:xlink="http://www.w3.org/1999/xlink" preserveAspectRatio="none" x="0px" y="0px" width="1000px" height="1000px" viewBox="0 0 1000 1000">
<defs>
<g id="Catapult_side_bar_0_Layer0_0_FILL">
<path fill="#000000" stroke="none" d="
M 153.05 -7.45
Q 88.39453125 2.8021484375 47.5 -1.95 6.6568359375 -6.6541015625 -1.45 4.8
L -1.85 22.65
Q -1.084375 23.3921875 -0.55 24.6 0.034375 25.8578125 1.25 26.4
L 4.4 27.15 5.1 31.65
Q 35.6984375 32.744140625 57.5 33.6 79.3541015625 34.4669921875 139.1 33.45 198.8443359375 32.4271484375 210.8 32.65 217.320703125 21.8646484375 218.35 19.85 219.434375 17.8888671875 217.55 13.5 215.705078125 9.153515625 215.9 -3.95 188.9 -1.3 163.2 -4.25
L 161.85 2 153.05 -7.45
M 212.4 2.7
L 204.25 8.55
Q 184.2 7.7 164.1 7.9 127.05 8.2 90.05 8.55 51.25 8.9 12.55 8.85
L 10.4 9.35 205.6 10.9 207.4 27.1 121.65 27.15 132.1 14.25 111.65 27.15 10.05 26.8 7.8 25.15 6.95 23.2 3.85 22.7 2.75 9.1 5.25 7.95 30 3.4 159.25 3 161.35 4.8 163 4.8 163.8 2.5 212.4 2.7
M 206.8 9.9
L 213.35 5.2
Q 216.55 12.7 214.6 20.65 213.65 24.55 209.85 25.75
L 206.8 9.9
M 119.75 27.15
L 114.1 27.15 124.55 20.5 119.75 27.15 Z"/>

<path fill="#382B1E" stroke="none" d="
M 114.1 27.15
L 119.75 27.15 124.55 20.5 114.1 27.15 Z"/>

<path fill="#6B533B" stroke="none" d="
M 213.35 5.2
L 206.8 9.9 209.85 25.75
Q 213.65 24.55 214.6 20.65 216.55 12.7 213.35 5.2
M 207.4 27.1
L 205.6 10.9 10.4 9.35 12.55 8.85 5.25 7.95 2.75 9.1 3.85 22.7 6.95 23.2 7.8 25.15 10.05 26.8 111.65 27.15 132.1 14.25 121.65 27.15 207.4 27.1 Z"/>

<path fill="#CC9966" stroke="none" d="
M 204.25 8.55
L 212.4 2.7 163.8 2.5 163 4.8 161.35 4.8 159.25 3 30 3.4 5.25 7.95 12.55 8.85
Q 51.25 8.9 90.05 8.55 127.05 8.2 164.1 7.9 184.2 7.7 204.25 8.55 Z"/>
</g>
</defs>

<g transform="matrix( 0.9910125732421875, 0, 0, 0.9910125732421875, 311.25,307.95) ">
<g transform="matrix( 1.3134765625, 0, 0, 1.3134765625, 3.85,-203.25) ">
<g transform="matrix( 0.999755859375, -0.0218658447265625, 0.0218658447265625, 0.999755859375, 34.9,244.6) ">
<g transform="matrix( 1, 0, 0, 1, 0,0) ">
<use xlink:href="#Catapult_side_bar_0_Layer0_0_FILL"/>
</g>
</g>
</g>
</g>
</svg>
