
<svg xmlns="http://www.w3.org/2000/svg" version="1.1" xmlns:xlink="http://www.w3.org/1999/xlink" preserveAspectRatio="none" x="0px" y="0px" width="500px" height="500px" viewBox="0 0 500 500">
<defs>
<g id="Ground_Break_debri_shrapnal_10G_0_Layer0_0_FILL">
<path fill="#000000" stroke="none" d="
M 31.55 -8.7
Q 27.8 -7.25 21.7 -2.2
L -13.4 26.45
Q -19.75 31.5 -22.1 35.15 -22.6 35.9 -22.85 36.7 -34 46.8 -39.6 53.3 -48.95 64.3 -53.1 75.3 -56.3 84 -57.75 97.35 -58.5 105 -59.8 120.15 -60.45 125.1 -62.15 134.8 -63.6 143.5 -63.45 149.45 -63.3 163.6 -55.55 179.65 -50.6 190.05 -38.8 207.15 -35.45 211.95 -32.75 214.3 -28.7 217.65 -24.7 217.65 -19.65 217.8 -15.25 213 -12.35 209.75 -9 203.25 8.5 168.65 37.8 144.15 45.85 137.15 51.65 138.6 55.7 139.35 58.8 143.9 60.6 146.5 63.7 152.45 69.55 162.05 78.5 164.5 83.45 166.05 88.35 164.9 93.55 163.75 96.9 160.25 99.75 157 101.3 151.65 101.85 149.75 103.25 141.95 108.95 102.3 127.75 64.95 131.5 58.05 134.5 52.75 137.5 53.4 139.55 51.7 142.8 49.25 142 41.1
L 141.9 39.3
Q 142.55 37.85 143.3 36.55
L 141.5 36.4 139.95 22.8
Q 139.15 15.8 136.85 13.2 134.1 10.35 127.35 9.35 111.3 6.2 101.05 5.3 93.8 4.8 90.15 4.4 83.95 3.9 79.4 2.7 74.75 1.4 67.75 -1.8 58 -6.25 56.2 -7 41.3 -12.85 31.55 -8.7
M 126.45 35.15
L 128 35.25
Q 123.75 43.55 117.8 55.1 105.45 78.95 100.55 94.75 99.25 99.05 93.95 120.55 90.15 136.35 85.75 145.85 81.2 146.6 76.8 143.35 72.95 140.65 70.05 136 66.55 130.3 64.65 127.55 61.25 122.9 57.5 120.95 50.75 117.3 41.8 121.2 34.8 124.3 27.4 131.6 -2.25 159.2 -25.2 194.6 -30.8 190.7 -35.2 183.3 -37.65 178.75 -41.65 169.15 -47 157.25 -47.25 150.25 -47.5 145.2 -46.1 137.8 -44 129.35 -43.35 125.2 -42.45 120.05 -42.05 110.95 -41.65 101 -41.15 96.7 -37.25 73.75 -17.15 51.6 -10.05 44.05 1.65 33.85 6.95 29.15 11.2 25.55
L 16 25.9
Q 22.9 20.75 25.5 18 29.1 14.15 31.05 12.45 34.3 9.35 37.4 8.3 42.05 6.75 47.9 8.4 51.8 9.6 57.9 12.95 67.1 17.65 70.45 18.8 79 21.8 97.7 22.7 104.7 23.05 110.25 23.85
L 96.15 32.9
Q 80.2 43.55 62.7 59 61.25 60.15 60.2 61.3 58.15 60.3 55.05 59.65 46.75 58.05 36 59.25 29.75 59.9 16.9 62.35
L 2.8 65.2
Q -1.35 66.35 -2.15 68.2 1.25 70.25 9.4 70.8
L 53.6 73.65
Q 55.55 73.75 57.25 73.65 57.5 76.75 58 79.45 58.4 81.65 60.5 88.55
L 65.15 103.95
Q 67.5 110.45 68.15 111.6 69.3 113.55 71.9 117.3 72.65 118.75 74.2 123.65 76.95 131.6 81.85 138.2 82.5 139.1 83.05 139.1 84.6 139.5 84.85 137.4 85.25 135.2 83.7 132.2 81.75 129 80.95 127.3 80.3 125.6 79.65 122.35 78.9 118.75 78.5 117.45 78 115.9 76.7 113.55 75.15 110.7 74.75 109.8 72.4 104.75 71.35 96.05 69.95 83.6 69.55 81.8 68.5 77.5 68.4 76.1 68 72.7 68.9 70.4 69.95 68.05 74.1 64.7
L 83.55 57.3
Q 92.5 49.9 99.35 45.35
L 125.45 28.9
Q 125.15 28 125.05 27.35 126.1 29.95 126.45 35.15 Z"/>

<path fill="#BD793E" stroke="none" d="
M 128 35.25
L 126.45 35.15
Q 126.1 29.95 125.05 27.35 125.15 28 125.45 28.9
L 99.35 45.35
Q 92.5 49.9 83.55 57.3
L 74.1 64.7
Q 69.95 68.05 68.9 70.4 68 72.7 68.4 76.1 68.5 77.5 69.55 81.8 69.95 83.6 71.35 96.05 72.4 104.75 74.75 109.8 75.15 110.7 76.7 113.55 78 115.9 78.5 117.45 78.9 118.75 79.65 122.35 80.3 125.6 80.95 127.3 81.75 129 83.7 132.2 85.25 135.2 84.85 137.4 84.6 139.5 83.05 139.1 82.5 139.1 81.85 138.2 76.95 131.6 74.2 123.65 72.65 118.75 71.9 117.3 69.3 113.55 68.15 111.6 67.5 110.45 65.15 103.95
L 60.5 88.55
Q 58.4 81.65 58 79.45 57.5 76.75 57.25 73.65 55.55 73.75 53.6 73.65
L 9.4 70.8
Q 1.25 70.25 -2.15 68.2 -1.35 66.35 2.8 65.2
L 16.9 62.35
Q 29.75 59.9 36 59.25 46.75 58.05 55.05 59.65 58.15 60.3 60.2 61.3 61.25 60.15 62.7 59 80.2 43.55 96.15 32.9
L 110.25 23.85
Q 104.7 23.05 97.7 22.7 79 21.8 70.45 18.8 67.1 17.65 57.9 12.95 51.8 9.6 47.9 8.4 42.05 6.75 37.4 8.3 34.3 9.35 31.05 12.45 29.1 14.15 25.5 18 22.9 20.75 16 25.9
L 11.2 25.55
Q 6.95 29.15 1.65 33.85 -10.05 44.05 -17.15 51.6 -37.25 73.75 -41.15 96.7 -41.65 101 -42.05 110.95 -42.45 120.05 -43.35 125.2 -44 129.35 -46.1 137.8 -47.5 145.2 -47.25 150.25 -47 157.25 -41.65 169.15 -37.65 178.75 -35.2 183.3 -30.8 190.7 -25.2 194.6 -2.25 159.2 27.4 131.6 34.8 124.3 41.8 121.2 50.75 117.3 57.5 120.95 61.25 122.9 64.65 127.55 66.55 130.3 70.05 136 72.95 140.65 76.8 143.35 81.2 146.6 85.75 145.85 90.15 136.35 93.95 120.55 99.25 99.05 100.55 94.75 105.45 78.95 117.8 55.1 123.75 43.55 128 35.25 Z"/>
</g>

<g id="Ground_Break_debri_shrapnal_9G_0_Layer0_0_FILL">
<path fill="#000000" stroke="none" d="
M 56.15 18.65
Q 56.05 16.2 55.75 14.9 55.25 12.85 54 11.8 52.25 10.25 49.1 10.65 47.9 10.8 43.55 12.1 35.65 14.45 26.4 11.55 18.45 9.05 10.7 3.1 5.55 -1.05 2.5 0.4 0.85 1.2 0.25 3.35 -0.25 5.3 0.25 7.5 0.75 9.9 2.65 13.25 5.6 18.55 5.75 18.9 7.25 21.95 9.55 28.5 11.9 34.1 15.3 36.5 17.35 37.95 21.85 39.4 25.1 40.3 26.6 40.55 29.3 40.95 31.45 40.6 34.4 40.1 38.25 37.7 44.3 33.85 44.65 33.7 48.35 32.2 50.15 31.35 53.2 29.85 54.55 27.8 55.7 26 56.05 23.4 56.25 21.7 56.15 18.65
M 48.85 13.7
Q 49.05 15.3 49.55 18.45 49.8 21.2 48.85 22.95 48.15 24.35 46.5 25.55 45.65 26.1 43.35 27.35 41.55 28.45 37.9 30.7 34.7 32.55 32.05 33.2 28.05 34.1 23.45 32.85 19.45 31.7 17.55 29.5 16.6 28.45 15.75 26.9 15.5 26.4 14.45 24.05
L 8.3 9.4
Q 10.35 10.2 13.4 12.1 17.2 14.45 18.3 15 22.95 17.55 28.85 18.45 32.85 18.8 35.75 18.55 43.1 17.7 48.85 13.7 Z"/>

<path fill="#BD793E" stroke="none" d="
M 49.55 18.45
Q 49.05 15.3 48.85 13.7 43.1 17.7 35.75 18.55 32.85 18.8 28.85 18.45 22.95 17.55 18.3 15 17.2 14.45 13.4 12.1 10.35 10.2 8.3 9.4
L 14.45 24.05
Q 15.5 26.4 15.75 26.9 16.6 28.45 17.55 29.5 19.45 31.7 23.45 32.85 28.05 34.1 32.05 33.2 34.7 32.55 37.9 30.7 41.55 28.45 43.35 27.35 45.65 26.1 46.5 25.55 48.15 24.35 48.85 22.95 49.8 21.2 49.55 18.45 Z"/>
</g>

<g id="Ground_Break_debri_shrapnal_8G_0_Layer1_0_FILL">
<path fill="#000000" stroke="none" d="
M 84.5 44.25
L 86.75 13.85
Q 87.05 9.8 86.35 7.7 84.75 3.15 78.15 1.15 72.3 -0.6 64.9 0.3 59.45 0.95 51.6 3.3 40.95 6.6 28 11.65 20.45 14.65 4.85 21.15 3.1 21.95 2.45 22.4 1.2 23.2 0.55 24.25 -0.4 25.85 0.3 28 1 30 2.6 31.25 4.05 32.3 6.15 32.95 7.5 33.3 10.1 33.7 36.35 38.15 46.45 39.75 52.2 40.65 55.45 41.55 60.25 42.9 63.65 45.1 64.8 45.85 68.05 48.5 70.75 50.7 72.6 51.65 75.25 53 78.05 52.8 81.1 52.6 82.7 50.6 83.65 49.35 84.05 47.6 84.3 46.5 84.5 44.25
M 70.85 5.75
Q 78.7 6.05 80.85 10.4 81.85 12.3 81.7 15.05 81.65 16.6 80.95 19.85 78.45 33.35 79.9 46.2 77.65 47.5 74.55 46.05 73.05 45.3 69.45 42.65 64.05 38.6 56 36.25 50.95 34.8 41.2 33.2 26.45 30.65 5.8 27.25 6.15 25.9 7.75 25.05 8.8 24.5 10.85 23.95 26.6 19.9 39.05 10.5 40.85 12.1 43.65 12.4 46.1 12.7 48.8 12 50.65 11.45 53.55 10.15 57.2 8.45 58.3 8.05 64.2 5.6 70.85 5.75 Z"/>

<path fill="#BD793E" stroke="none" d="
M 80.85 10.4
Q 78.7 6.05 70.85 5.75 64.2 5.6 58.3 8.05 57.2 8.45 53.55 10.15 50.65 11.45 48.8 12 46.1 12.7 43.65 12.4 40.85 12.1 39.05 10.5 26.6 19.9 10.85 23.95 8.8 24.5 7.75 25.05 6.15 25.9 5.8 27.25 26.45 30.65 41.2 33.2 50.95 34.8 56 36.25 64.05 38.6 69.45 42.65 73.05 45.3 74.55 46.05 77.65 47.5 79.9 46.2 78.45 33.35 80.95 19.85 81.65 16.6 81.7 15.05 81.85 12.3 80.85 10.4 Z"/>
</g>

<g id="Ground_Break_debri_shrapnal_7G_0_Layer0_0_FILL">
<path fill="#000000" stroke="none" d="
M 66.2 17.2
Q 67.55 14.7 68.05 13.15 68.8 10.85 68.45 8.9 67.6 5.1 62.55 2.7 57.4 0.05 51.4 0 45.45 -0.05 40.3 2.45 34.4 5.25 27.6 12.9 17.5 24.3 11.05 37.85 8 43.7 7.95 43.85 6 47.2 3.95 49.2 3.25 49.9 1.75 51.3 0.5 52.6 0.2 53.85 -0.35 55.6 0.75 57.5 1.7 59.25 3.5 60.3 4.95 61.1 7.15 61.65 9.75 62.25 11.05 62.55 19.1 64.3 25.15 68.7 28.35 70.9 29.65 71.5 32.4 72.75 34.5 71.9 35.65 71.4 36.65 70.25 37.2 69.6 38.35 67.95 42.1 61.9 49 49.2 60.5 27.85 66.2 17.2
M 41.25 7.3
Q 41.85 7 42.75 7.1 42.95 7.15 44.25 7.4 49.6 8.45 55.75 8.15 57.55 8.05 58.45 8.2 59.85 8.45 60.5 9.45 61.3 10.85 59.95 13.75 53.85 25.9 51.65 30.15 46.9 39.35 42.85 46.3
L 35.75 58.45
Q 33.9 61.25 32.55 61.9 31.25 62.4 29.6 62.05 28.6 61.85 26.75 61.05 16.95 56.6 11.35 53.75 19.2 34.7 31.05 19.25 33.75 15.7 39.55 8.8 40.45 7.6 41.25 7.3 Z"/>

<path fill="#BD793E" stroke="none" d="
M 42.75 7.1
Q 41.85 7 41.25 7.3 40.45 7.6 39.55 8.8 33.75 15.7 31.05 19.25 19.2 34.7 11.35 53.75 16.95 56.6 26.75 61.05 28.6 61.85 29.6 62.05 31.25 62.4 32.55 61.9 33.9 61.25 35.75 58.45
L 42.85 46.3
Q 46.9 39.35 51.65 30.15 53.85 25.9 59.95 13.75 61.3 10.85 60.5 9.45 59.85 8.45 58.45 8.2 57.55 8.05 55.75 8.15 49.6 8.45 44.25 7.4 42.95 7.15 42.75 7.1 Z"/>
</g>

<g id="Ground_Break_debri_shrapnal_6G_0_Layer0_0_FILL">
<path fill="#000000" stroke="none" d="
M -1.9 -175.95
Q -22.2 -157.75 -52.7 -109.8 -64.7 -109 -87.6 -110.3 -108.7 -110.6 -120.45 -103.3 -130.85 -96 -145.2 -72.8
L -185.8 -6.1
Q -198.85 15 -204.05 28.3 -210.55 48.6 -205.9 65.55 -203.3 74.4 -192.6 89 -138.95 164.25 -135.3 168.7 -118.1 191.35 -102.2 201.8 -88.4 210.1 -68.6 213.75 -56.1 216.4 -32.9 217.7 16.35 221.6 41.1 217.4 65.6 211.95 77.05 210.4 97.1 209.6 107 208.8 124.45 207 134.6 199.95 144.5 193.45 128.9 137.7 113.5 81.95 151.55 47.8 189.6 13.7 233.35 -14.45 237.5 -69.4 212.25 -97.05 204.2 -105.35 185.7 -116.3
L 77.05 -186.4
Q 62.45 -195.5 54.1 -197.85 40.85 -200.7 21.8 -192.4 9.3 -186.15 -1.9 -175.95
M -114.7 -49.6
Q -102.7 -69.15 -94.1 -75.65
L -65.2 -73.3
Q -57.9 -72 -51.65 -72.55 -68.85 -39.7 -82.9 -4.8 -92.8 21.5 -87.1 36.1 -82.4 48.35 -60.25 61.9 -17.8 89.25 9.3 101.5 15.05 103.85 19.75 106.2 22.35 100.2 16.85 93.65 16.1 92.9 15.55 92.35
L 15.3 92.1
Q 15.05 92.1 14.5 91.6 11.9 89 9.05 86.65
L 4.6 84.3
Q 4.35 84.05 4.1 84.05
L -61.55 43.4
Q -61.55 42.6 -61.3 41.55 -59.75 30.9 -54.8 18.65 -47.5 0.95 -32.4 -21.75 -3.2 -66.55 3.3 -85.3 4.6 -90 10.35 -112.65 11.4 -118.15 12.7 -123.1 20.5 -132.7 24.95 -137.65 34.85 -149.15 45 -147.3 49.45 -147.85 60.1 -141.85
L 146.85 -91.3
Q 179.7 -72 185.7 -53 185.7 -50.9 186.7 -48.3 188.3 -39.2 187.75 -27.75 108.55 -9.75 95.8 47.55 83.3 104.6 97.1 129.9 110.65 154.9 107.5 157.25 107 158 106.2 158.3 103.1 155.65 98.95 153.6 89.3 150.7 88.25 149.4 86.15 147.6 84.6 142.4 83.05 137.7 81.2 135.9 78.35 133.8 72.6 131.2 69.75 129.1 63.75 121.3 58.3 115.3 54.4 115.3
L 49.45 118.15 46.8 119.45
Q 47.85 122.05 46.8 127.55 46.8 132.5 47.1 134.85 48.1 137.95 52.3 141.1 57 145.25 58.3 147.1 61.15 155.4 62.95 158.3 66.1 162.2 72.85 166.6 74.2 167.9 75.75 168.2 48.65 174.15 29.9 175.45 12.7 176.8 -2.7 176 -17.8 175.45 -59.75 172.35 -71.2 171.55 -77.2 168.95 -83.45 165.55 -91.8 155.65 -101.4 143.95 -139.2 94.7
L -158.45 68.4
Q -162.4 63.2 -164.2 60.05
L -145.2 54.6
Q -140.75 53.8 -139.45 54.05 -134 56.15 -130.85 56.95
L -123.55 49.65 -125.9 48.6
Q -123.3 46.25 -125.4 44.15 -129.05 46.25 -140.25 44.15 -142.6 43.9 -152.75 41.85 -159.5 41.85 -162.1 41.05 -163.7 40.25 -166.3 39.75 -163.7 29.6 -156.1 17.1
L -114.7 -49.6 Z"/>

<path fill="#833C00" stroke="none" d="
M -61.3 41.55
Q -61.55 42.6 -61.55 43.4
L 4.1 84.05
Q -8.65 74.4 -19.85 67.1 -43.85 52.5 -61.3 41.55
M -94.1 -75.65
Q -102.7 -69.15 -114.7 -49.6
L -156.1 17.1
Q -163.7 29.6 -166.3 39.75 -163.7 40.25 -162.1 41.05 -159.5 41.85 -152.75 41.85 -142.6 43.9 -140.25 44.15 -129.05 46.25 -125.4 44.15 -123.3 46.25 -125.9 48.6
L -123.55 49.65 -130.85 56.95
Q -134 56.15 -139.45 54.05 -140.75 53.8 -145.2 54.6
L -164.2 60.05
Q -162.4 63.2 -158.45 68.4
L -139.2 94.7
Q -101.4 143.95 -91.8 155.65 -83.45 165.55 -77.2 168.95 -71.2 171.55 -59.75 172.35 -17.8 175.45 -2.7 176 12.7 176.8 29.9 175.45 48.65 174.15 75.75 168.2 74.2 167.9 72.85 166.6 66.1 162.2 62.95 158.3 61.15 155.4 58.3 147.1 57 145.25 52.3 141.1 48.1 137.95 47.1 134.85 46.8 132.5 46.8 127.55 47.85 122.05 46.8 119.45
L 49.45 118.15
Q 31.7 103.85 15.55 92.35 16.1 92.9 16.85 93.65 22.35 100.2 19.75 106.2 15.05 103.85 9.3 101.5 -17.8 89.25 -60.25 61.9 -82.4 48.35 -87.1 36.1 -92.8 21.5 -82.9 -4.8 -68.85 -39.7 -51.65 -72.55 -57.9 -72 -65.2 -73.3
L -94.1 -75.65 Z"/>

<path fill="#BD793E" stroke="none" d="
M 12.7 -123.1
Q 11.4 -118.15 10.35 -112.65 4.6 -90 3.3 -85.3 -3.2 -66.55 -32.4 -21.75 -47.5 0.95 -54.8 18.65 -59.75 30.9 -61.3 41.55 -43.85 52.5 -19.85 67.1 -8.65 74.4 4.1 84.05 4.35 84.05 4.6 84.3
L 9.05 86.65
Q 11.9 89 14.5 91.6 15.05 92.1 15.3 92.1
L 15.55 92.35
Q 31.7 103.85 49.45 118.15
L 54.4 115.3
Q 58.3 115.3 63.75 121.3 69.75 129.1 72.6 131.2 78.35 133.8 81.2 135.9 83.05 137.7 84.6 142.4 86.15 147.6 88.25 149.4 89.3 150.7 98.95 153.6 103.1 155.65 106.2 158.3 107 158 107.5 157.25 110.65 154.9 97.1 129.9 83.3 104.6 95.8 47.55 108.55 -9.75 187.75 -27.75 188.3 -39.2 186.7 -48.3 185.7 -50.9 185.7 -53 179.7 -72 146.85 -91.3
L 60.1 -141.85
Q 49.45 -147.85 45 -147.3 34.85 -149.15 24.95 -137.65 20.5 -132.7 12.7 -123.1 Z"/>
</g>

<g id="Ground_Break_debri_shrapnal_5G_0_Layer0_0_FILL">
<path fill="#000000" stroke="none" d="
M 42.15 34.6
Q 43.05 32.8 43.15 30.6 43.3 27.05 41.3 22.65 38.05 14.9 33.25 11.65 30.15 9.55 23.7 8 16.45 6.25 13.8 4.9 14.7 2.45 14.55 0.05 10.65 -0.5 7.25 5.45 3.6 11.85 0.8 21.75 0.15 24.55 0.05 26 -0.2 28.35 0.45 30.15 2.6 35.85 12.7 37.15 22.15 38.5 32.8 38.65 34.95 38.75 36.25 38.6 38.1 38.35 39.5 37.55 41.2 36.55 42.15 34.6
M 20.8 15.55
Q 23.9 16 25.45 16.25 28.25 16.65 29.8 17.8 31.65 19.2 33.55 23.05 34.85 25.65 35.3 27 36.05 29.3 35.85 31.25 27.55 31.75 22.8 31.6 15.6 31.4 9.9 29.95 8.6 29.6 8.05 29.3 7.05 28.8 6.6 28 5.95 26.9 6.4 25.25 6.5 25.05 7.55 22.4 7.95 21.25 8.25 19.6 8.6 17.7 8.75 16.7 8.95 14.7 9.8 14.15 10.35 13.6 11.75 13.4 13.6 13.25 16.3 14.1 19.3 15.2 20.8 15.55 Z"/>

<path fill="#BD793E" stroke="none" d="
M 25.45 16.25
Q 23.9 16 20.8 15.55 19.3 15.2 16.3 14.1 13.6 13.25 11.75 13.4 10.35 13.6 9.8 14.15 8.95 14.7 8.75 16.7 8.6 17.7 8.25 19.6 7.95 21.25 7.55 22.4 6.5 25.05 6.4 25.25 5.95 26.9 6.6 28 7.05 28.8 8.05 29.3 8.6 29.6 9.9 29.95 15.6 31.4 22.8 31.6 27.55 31.75 35.85 31.25 36.05 29.3 35.3 27 34.85 25.65 33.55 23.05 31.65 19.2 29.8 17.8 28.25 16.65 25.45 16.25 Z"/>
</g>

<g id="Ground_Break_debri_shrapnal_3G_0_Layer0_0_FILL">
<path fill="#000000" stroke="none" d="
M 81.35 35.75
Q 83.7 33.15 83.9 29.65 84.15 25.85 81.5 24.25 80.1 23.45 76.8 23.3 73.5 23.15 72.1 22.3 70.9 21.6 68.3 17.85 66.15 14.8 64.05 14.8 63.2 14.75 61.9 15.2 60.35 15.8 59.85 15.85 56.8 16.5 52.45 12.95 46.6 8.7 39.1 3.05 36.75 1.25 35.1 0.55 32.7 -0.45 30.75 0.3 28.7 0.9 27.25 3.3 26.9 3.95 25.15 7.8 22.55 13.45 16.3 19.05 12.65 22.35 4.85 28.35 -1.15 33.15 0.3 37.25 1.1 39.2 4.4 41.25 25.7 54.35 50.75 60.25 54.35 61.05 56.65 61.1 59.9 61.15 62.25 59.85 65.3 58.1 67.5 52.9 70.45 45.95 71.5 44.55 72.95 42.65 76.3 40.1 80 37.25 81.35 35.75
M 41.7 12.1
Q 45.05 15.3 52.25 18.2 61.1 21.7 63.65 23.3 68.1 26.5 70.4 27.75 74.4 29.95 77.6 29.1 77.45 31.1 75.75 33.1 75.25 33.65 72.35 36.3 67.25 40.7 64.5 46.85 63.95 47.95 62.9 50.15 61.9 52.05 60.75 53.05 56.8 56.35 48.25 53.9 43.9 52.7 38.15 50.7 34.8 49.55 28.15 47.15 19.85 43.95 16.15 41.95 9.7 38.55 6.1 34.05 20.3 25.85 28.8 11.55 29.8 9.8 30.4 9 31.45 7.7 32.65 7.25 34.85 6.5 37.45 8.35 37.85 8.6 41.7 12.1 Z"/>

<path fill="#BD793E" stroke="none" d="
M 52.25 18.2
Q 45.05 15.3 41.7 12.1 37.85 8.6 37.45 8.35 34.85 6.5 32.65 7.25 31.45 7.7 30.4 9 29.8 9.8 28.8 11.55 20.3 25.85 6.1 34.05 9.7 38.55 16.15 41.95 19.85 43.95 28.15 47.15 34.8 49.55 38.15 50.7 43.9 52.7 48.25 53.9 56.8 56.35 60.75 53.05 61.9 52.05 62.9 50.15 63.95 47.95 64.5 46.85 67.25 40.7 72.35 36.3 75.25 33.65 75.75 33.1 77.45 31.1 77.6 29.1 74.4 29.95 70.4 27.75 68.1 26.5 63.65 23.3 61.1 21.7 52.25 18.2 Z"/>
</g>

<g id="Ground_Break_debri_shrapnal_2G_0_Layer0_0_FILL">
<path fill="#000000" stroke="none" d="
M 40 6.8
Q 40 4.1 39.05 3.05 37.95 1.8 35.2 1.85 31.6 1.9 30.75 1.65 30.8 1.4 31.3 0 23.9 2.5 16.3 7.7 10.25 11.8 3.15 18.3 1.1 20.1 0.45 21.4 -0.55 23.75 0.65 25.3 1.45 26.25 3.1 26.5 5.1 26.7 6.05 26.8 8.6 27.05 11.6 28.75 12.55 29.25 16.7 32.05 23.1 36.55 27.75 35.4 33.2 33.95 36.25 26.15 40.15 16.9 40 6.8
M 33.25 18.2
L 31.75 22.5
Q 31.15 24.8 30.35 26.25 29.45 28.15 28.4 28.7 27.85 28.95 26.55 29.15 24.25 29.5 22.8 29.15 21.6 28.75 19.35 27.2 13.65 22.95 7.1 20.35 17.85 10.35 20 8.3 20.35 10.05 21.7 11.3 23.1 12.55 24.85 12.7 26.95 12.9 29.55 11.4 32.5 9.45 34 8.6 34.85 10.6 34.45 13.35 34.25 14.85 33.25 18.2 Z"/>

<path fill="#BD793E" stroke="none" d="
M 31.75 22.5
L 33.25 18.2
Q 34.25 14.85 34.45 13.35 34.85 10.6 34 8.6 32.5 9.45 29.55 11.4 26.95 12.9 24.85 12.7 23.1 12.55 21.7 11.3 20.35 10.05 20 8.3 17.85 10.35 7.1 20.35 13.65 22.95 19.35 27.2 21.6 28.75 22.8 29.15 24.25 29.5 26.55 29.15 27.85 28.95 28.4 28.7 29.45 28.15 30.35 26.25 31.15 24.8 31.75 22.5 Z"/>
</g>

<g id="Ground_Break_debri_shrapnal_1G_0_Layer0_0_FILL">
<path fill="#000000" stroke="none" d="
M 62.25 -3.85
Q 59.25 -7.7 56.15 -9.1 53.15 -10.45 47.2 -10.2 28.55 -9.85 18.5 -8.55 2.6 -6.5 -8.85 -1 -22.45 6.15 -25.2 16.1 -26.05 19.05 -26.05 25.05
L -26.65 61.1
Q -26.65 65.8 -25.95 68.05 -24.75 71.75 -19.95 75 -16.75 76.9 -12.55 78.1 -5.25 80.25 10.4 80.45 12.3 83.1 15.4 88.7 18.4 93.6 21.85 95.4 25.1 96.95 32.6 96.95
L 54.35 96.7
Q 61.15 96.7 65.1 95.9 70.95 94.55 74.05 91 75.85 88.95 77.75 84.4 87.55 60.65 88.15 59.2 91 51.8 91.15 46.55 91.15 42.1 89.1 36.85 87.9 33.5 84.8 27.9 78.5 15.7 73.8 10.45 69.05 5.45 67 2.95 63.9 -1.6 62.25 -3.85
M 57.2 10.35
Q 57.2 9.85 57.2 9.5 62.6 14.9 65.7 19.2 68.45 23.15 70.45 26.85 72.6 30.4 77.9 40.8 79.55 43.7 79.65 45.45 79.9 47.4 78.7 50.7 77.4 54.65 71.3 70.9
L 67.95 79.3
Q 67.25 80.95 66.75 81.9
L 64.5 79.85 62.7 78.2
Q 61.85 77.35 61.75 76.9 61.5 75.2 61.05 74.5
L 58.4 73.9 58.4 74.5
Q 57.55 74.25 57.35 75.1 58.4 75.55 59.5 78.45 59.7 79.15 60.9 81.9 61.75 83.35 61.85 84.15 62 84.65 62.25 85.35 59.5 86.2 55.4 86.2
L 33.7 86.2
Q 27.35 86.2 24.5 85.25
L 20.9 77.95
Q 20.05 76.05 19.2 74.75 29.25 74 39.55 72.1 47.3 70.65 49.8 67.2 52.05 64.35 52.05 57.05 52.3 43.1 51.25 34.95 51 33.3 50.75 31.85 48.95 32.1 48.25 34.25 47.9 35.45 47.75 37.25
L 47.75 60.15
Q 45.05 61.35 41.1 62.05 35.7 63.05 28.3 62.8 13.35 62.45 8.1 63.65 6.7 64 0.6 66 -0.95 66.5 -2.4 66.95 -5.75 66.5 -7.55 66.25 -11.6 65.55 -12.8 62.9 -13.4 61.85 -13.65 58.5
L -14.45 30.55
Q -14.7 20 -11.1 15.95 -10.65 15.5 -10.05 14.9 -8.25 13.2 -5.25 11.8 4.65 7.5 22.45 4.95 37 3.05 46.7 3.2 48.95 3.2 50.05 3.55 50.15 3.55 50.4 3.65 50.15 4.85 50.4 6.15 51 8.9 50.9 9.4 50.75 10 49.8 11.2 48.95 12.25 48.85 12.85 48.6 13.95 48.95 15.7 48.95 16.7 48 19.2 47.3 21.2 47.75 22.3
L 49.9 23.35
Q 50.4 22.75 51.7 22.3 53.05 21.6 53.5 21.1 54.1 20.4 54.35 18.95 54.6 17.15 54.8 16.7 56.25 14.75 56.75 13.8 57.2 12.6 57.2 10.35 Z"/>

<path fill="#833C00" stroke="none" d="
M 45.05 40.2
Q 44.3 41.75 43.35 42.5 42.15 43.45 38.95 43.45 17.45 43.1 0.25 43.2 -0.25 40.7 -2.05 37.25 -4.55 32.2 -4.9 31.35 -5.85 29.2 -6.8 25.75 -7.9 21.95 -8.5 20 -8.95 17.85 -10.05 14.9 -10.65 15.5 -11.1 15.95 -14.7 20 -14.45 30.55
L -13.65 58.5
Q -13.4 61.85 -12.8 62.9 -11.6 65.55 -7.55 66.25 -5.75 66.5 -2.4 66.95 -0.95 66.5 0.6 66 6.7 64 8.1 63.65 13.35 62.45 28.3 62.8 35.7 63.05 41.1 62.05 45.05 61.35 47.75 60.15
L 47.75 37.25
Q 47.9 35.45 48.25 34.25 46.7 34.85 45.85 37.45 45.6 38.4 45.05 40.2
M 52.2 36.75
Q 51.85 35.65 51.25 34.95 52.3 43.1 52.05 57.05 52.05 64.35 49.8 67.2 47.3 70.65 39.55 72.1 29.25 74 19.2 74.75 20.05 76.05 20.9 77.95
L 24.5 85.25
Q 27.35 86.2 33.7 86.2
L 55.4 86.2
Q 59.5 86.2 62.25 85.35 62 84.65 61.85 84.15 61.75 83.35 60.9 81.9 59.7 79.15 59.5 78.45 58.4 75.55 57.35 75.1 57.55 74.25 58.4 74.5
L 58.4 73.9 61.05 74.5
Q 61.5 75.2 61.75 76.9 61.85 77.35 62.7 78.2
L 64.5 79.85
Q 64.25 79.4 64.15 79.3 61.75 73.8 59.7 71.4 57.2 69 56.35 67.45 55.8 66.5 55.3 64.45 54.8 62.45 54.35 61.5 52.65 59.2 52.3 57.75 51.95 56.7 52.2 55.15 52.55 53.45 52.65 52.5 53.05 50.25 52.65 46.55 52.2 42.1 52.2 40.55
L 52.2 36.75 Z"/>

<path fill="#BD793E" stroke="none" d="
M 57.2 9.5
Q 57.2 9.85 57.2 10.35 57.2 12.6 56.75 13.8 56.25 14.75 54.8 16.7 54.6 17.15 54.35 18.95 54.1 20.4 53.5 21.1 53.05 21.6 51.7 22.3 50.4 22.75 49.9 23.35
L 47.75 22.3
Q 47.3 21.2 48 19.2 48.95 16.7 48.95 15.7 48.6 13.95 48.85 12.85 48.95 12.25 49.8 11.2 50.75 10 50.9 9.4 51 8.9 50.4 6.15 50.15 4.85 50.4 3.65 50.15 3.55 50.05 3.55 48.95 3.2 46.7 3.2 37 3.05 22.45 4.95 4.65 7.5 -5.25 11.8 -8.25 13.2 -10.05 14.9 -8.95 17.85 -8.5 20 -7.9 21.95 -6.8 25.75 -5.85 29.2 -4.9 31.35 -4.55 32.2 -2.05 37.25 -0.25 40.7 0.25 43.2 17.45 43.1 38.95 43.45 42.15 43.45 43.35 42.5 44.3 41.75 45.05 40.2 45.6 38.4 45.85 37.45 46.7 34.85 48.25 34.25 48.95 32.1 50.75 31.85 51 33.3 51.25 34.95 51.85 35.65 52.2 36.75
L 52.2 40.55
Q 52.2 42.1 52.65 46.55 53.05 50.25 52.65 52.5 52.55 53.45 52.2 55.15 51.95 56.7 52.3 57.75 52.65 59.2 54.35 61.5 54.8 62.45 55.3 64.45 55.8 66.5 56.35 67.45 57.2 69 59.7 71.4 61.75 73.8 64.15 79.3 64.25 79.4 64.5 79.85
L 66.75 81.9
Q 67.25 80.95 67.95 79.3
L 71.3 70.9
Q 77.4 54.65 78.7 50.7 79.9 47.4 79.65 45.45 79.55 43.7 77.9 40.8 72.6 30.4 70.45 26.85 68.45 23.15 65.7 19.2 62.6 14.9 57.2 9.5 Z"/>
</g>

<g id="Ground_Break_debri_shrapnal_4G_0_Layer0_0_FILL">
<path fill="#000000" stroke="none" d="
M -82.85 -31.75
Q -96.35 -19.35 -99.15 -8.9 -100.5 -3.9 -100.2 2.55 -99.95 6.55 -98.8 14.05 -93.05 50.25 -84.3 94.4 -77.9 124.85 -72.65 141.15 -64.8 164.45 -54.6 176.4 -44.3 188.45 -26.65 197.2 -15.55 202.6 6.5 210.05
L 65.35 229.65
Q 76.1 233.7 83 233.2 90.65 232.7 102.7 225.35 177.2 179.95 231.9 111.7 240.95 100.45 245.55 92.45 251.85 81.25 253.25 70.85 254.45 61.75 252.2 50.4 251 44.8 248.3 35.25 248.3 35.55 248.35 35.85 247.35 32.15 245.9 28.15 244.67109375 24.4634765625 243.6 20.7 243.697265625 20.91875 243.8 21.15
L 230.5 -21
Q 226.65 -33.35 223.35 -39.75 218.3 -49.75 211.2 -54.95 202.4 -61.35 189.45 -61.6 178.4 -61.9 166.3 -57.5 159.9 -55.3 144.9 -48.05 131.45 -41.75 123.3 -39.3 112.75 -36.3 105.85 -38.15 100.7 -39.45 95.25 -44 92.7 -46.1 86.35 -52.55 69.5 -70.05 48.8 -82.55 34.2 -91.55 23.1 -92.3 14.85 -92.65 5 -88.85 -0.9 -86.4 -12.05 -80.1 -36.55 -65.85 -48.7 -57.75 -68.75 -44.65 -82.85 -31.75
M -60.05 -3.5
Q -55 -15.95 -42.2 -27 -33.95 -34.15 -17.05 -44.4
L 4.1 -57.35
Q 8 -59.65 9.7 -60.3 13 -61.7 15.7 -61.7 20.3 -61.6 26.85 -57.1
L 85.8 -20.4
Q 93.6 -15.5 97.85 -13.7 104.8 -10.45 110.9 -10.2 117.15 -9.8 124.8 -12.65 128.25 -14.1 138 -18.85 158.3 -29 182.15 -35.75 193.95 -38.9 198.9 -34.65 200.15 -33.65 202.95 -28.8 216.5 -1.7 226.5 25.8 230.1 36 231.45 42.3 233.45 51.5 232.45 59.1 230.85 71.3 221.6 83.65 215.6 91.65 202.4 103.8
L 115.25 184.8
Q 107 192.35 101.8 195.75 99.7 197.15 97.6 198.15 91.65 201.1 86 201.6 81.4 201.95 74.5 200.25 70.15 199.3 65.1 197.55
L -9.25 171.85
Q -21.4 167.75 -26.35 163.35 -31.25 159 -36 148.65 -47.1 124.8 -53.9 95.05 -58.3 76.15 -61.2 52.75 -50.05 68.65 -34.55 89.9 -26.45 100.7 -24.7 102.75 -19.1 110.1 -14.1 115 -1.55 127.55 16.45 137.25
L 20.05 139.2
Q 29.4 144.15 35.9 144.8
L 36.3 144.8
Q 36.8 144.9 37.55 144.9 44.45 145.05 56.2 140.9 98.35 125.9 136.75 105.45 138.1 104.75 138.8 103.4 139.4 102 138.35 101.45 96.45 116.15 56.5 128.25 45.7 131.3 40.35 130.6 34.9 129.95 26.15 125.1 15 118.75 10.9 115.6 5.25 111.3 -0.65 104.55 -4.35 100.55 -11 92.05 -45.55 47.75 -64.1 18.6 -64.2 18 -64.15 17.5 -63.7 5.6 -60.05 -3.5 Z"/>

<path fill="#833C00" stroke="none" d="
M 35.9 144.8
Q 29.4 144.15 20.05 139.2
L 16.45 137.25
Q -1.55 127.55 -14.1 115 -19.1 110.1 -24.7 102.75 -26.45 100.7 -34.55 89.9 -50.05 68.65 -61.2 52.75 -58.3 76.15 -53.9 95.05 -47.1 124.8 -36 148.65 -31.25 159 -26.35 163.35 -21.4 167.75 -9.25 171.85
L 65.1 197.55
Q 70.15 199.3 74.5 200.25 81.4 201.95 86 201.6 91.65 201.1 97.6 198.15 71.45 177.9 67.55 174.35 60.95 168.5 48.1 155.6 42.1 149.5 37.55 144.9 36.8 144.9 36.3 144.8
L 35.9 144.8 Z"/>

<path fill="#BD793E" stroke="none" d="
M -42.2 -27
Q -55 -15.95 -60.05 -3.5 -63.7 5.6 -64.15 17.5 -64.2 18 -64.1 18.6 -45.55 47.75 -11 92.05 -4.35 100.55 -0.65 104.55 5.25 111.3 10.9 115.6 15 118.75 26.15 125.1 34.9 129.95 40.35 130.6 45.7 131.3 56.5 128.25 96.45 116.15 138.35 101.45 139.4 102 138.8 103.4 138.1 104.75 136.75 105.45 98.35 125.9 56.2 140.9 44.45 145.05 37.55 144.9 42.1 149.5 48.1 155.6 60.95 168.5 67.55 174.35 71.45 177.9 97.6 198.15 99.7 197.15 101.8 195.75 107 192.35 115.25 184.8
L 202.4 103.8
Q 215.6 91.65 221.6 83.65 230.85 71.3 232.45 59.1 233.45 51.5 231.45 42.3 230.1 36 226.5 25.8 216.5 -1.7 202.95 -28.8 200.15 -33.65 198.9 -34.65 193.95 -38.9 182.15 -35.75 158.3 -29 138 -18.85 128.25 -14.1 124.8 -12.65 117.15 -9.8 110.9 -10.2 104.8 -10.45 97.85 -13.7 93.6 -15.5 85.8 -20.4
L 26.85 -57.1
Q 20.3 -61.6 15.7 -61.7 13 -61.7 9.7 -60.3 8 -59.65 4.1 -57.35
L -17.05 -44.4
Q -33.95 -34.15 -42.2 -27 Z"/>
</g>
</defs>

<g transform="matrix( 1, 0, 0, 1, 58.2,265.2) ">
<g transform="matrix( 1.3134765625, 0, 0, 1.3134765625, 3.85,-203.25) ">
<g transform="matrix( 0.13201904296875, 0, 0, 0.13201904296875, 84.35,162.9) ">
<g transform="matrix( 1, 0, 0, 1, -9.4,271.9) ">
<g transform="matrix( -0.996429443359375, 0.08184814453125, -0.08184814453125, -0.996429443359375, 1378.2,680.55) ">
<g transform="matrix( 1, 0, 0, 1, 0,0) ">
<use xlink:href="#Ground_Break_debri_shrapnal_10G_0_Layer0_0_FILL"/>
</g>
</g>
</g>

<g transform="matrix( 0.67388916015625, 0, 0, 0.67388916015625, 128.35,194.3) ">
<g transform="matrix( 0.76593017578125, -0.6968231201171875, 0.67279052734375, 0.73956298828125, 245.1,-196.15) ">
<g transform="matrix( 4.13165283203125, 0, 0, 4.13165283203125, -87.95,-63.7) ">
<use xlink:href="#Ground_Break_debri_shrapnal_9G_0_Layer0_0_FILL"/>
</g>
</g>
</g>

<g transform="matrix( 0.7279815673828125, 0, 0, 0.7279815673828125, -44,-112.2) ">
<g transform="matrix( 0.7409820556640625, -0.671234130859375, 0.671234130859375, 0.7409820556640625, 797.15,221.4) ">
<g transform="matrix( 2.8411865234375, 0, 0, 2.8411865234375, -79.9,-48.6) ">
<use xlink:href="#Ground_Break_debri_shrapnal_8G_0_Layer1_0_FILL"/>
</g>
</g>
</g>

<g transform="matrix( 0.72601318359375, 0, 0, 0.72601318359375, 19.7,156.4) ">
<g transform="matrix( -0.14801025390625, 0.988800048828125, -0.988800048828125, -0.14801025390625, 2200.7,691.35) ">
<g transform="matrix( 2.370269775390625, 0, 0, 2.370269775390625, -46.9,-49.45) ">
<use xlink:href="#Ground_Break_debri_shrapnal_7G_0_Layer0_0_FILL"/>
</g>
</g>
</g>

<g transform="matrix( 0.7657928466796875, 0, 0, 0.7657928466796875, 593.9,34.95) ">
<g transform="matrix( 0.9453277587890625, -0.3255462646484375, 0.3255462646484375, 0.9453277587890625, -824.8,250.15) ">
<g transform="matrix( 1, 0, 0, 1, 0,0) ">
<use xlink:href="#Ground_Break_debri_shrapnal_6G_0_Layer0_0_FILL"/>
</g>
</g>
</g>

<g transform="matrix( 0.42071533203125, 0, 0, 0.42071533203125, 377.7,99.85) ">
<g transform="matrix( -0.6150665283203125, 0.788238525390625, -0.788238525390625, -0.6150665283203125, 2031.65,271.75) ">
<g transform="matrix( 2.8518524169921875, 0, 0, 2.8518524169921875, -39.9,-35.8) ">
<use xlink:href="#Ground_Break_debri_shrapnal_5G_0_Layer0_0_FILL"/>
</g>
</g>
</g>

<g transform="matrix( 0.7662353515625, 0, 0, 0.7662353515625, 91.65,134.8) ">
<g transform="matrix( -0.944976806640625, 0.326995849609375, -0.326995849609375, -0.944976806640625, -143.95,292.25) ">
<g transform="matrix( 3.2884368896484375, 0, 0, 3.2884368896484375, -95.95,-69.9) ">
<use xlink:href="#Ground_Break_debri_shrapnal_3G_0_Layer0_0_FILL"/>
</g>
</g>
</g>

<g transform="matrix( 0.7362060546875, 0, 0, 0.7362060546875, 54.95,162.9) ">
<g transform="matrix( -0.4347381591796875, 0.900482177734375, -0.900482177734375, -0.4347381591796875, -803,528.65) ">
<g transform="matrix( 4.4499969482421875, 0, 0, 4.4499969482421875, -68.95,-61.4) ">
<use xlink:href="#Ground_Break_debri_shrapnal_2G_0_Layer0_0_FILL"/>
</g>
</g>
</g>

<g transform="matrix( 1, 0, 0, 1, 47.85,-191.3) ">
<g transform="matrix( -0.9927825927734375, 0.11920166015625, -0.11920166015625, -0.9927825927734375, 771.6,750.75) ">
<g transform="matrix( 2.7996673583984375, 0, 0, 2.7996673583984375, -58,-78) ">
<use xlink:href="#Ground_Break_debri_shrapnal_1G_0_Layer0_0_FILL"/>
</g>
</g>
</g>

<g transform="matrix( 1, 0, 0, 1, 4.95,351.8) ">
<g transform="matrix( -0.2108001708984375, 0.9774169921875, -0.9774169921875, -0.2108001708984375, 21.05,567.85) ">
<g transform="matrix( 1, 0, 0, 1, 0,0) ">
<use xlink:href="#Ground_Break_debri_shrapnal_4G_0_Layer0_0_FILL"/>
</g>
</g>
</g>
</g>
</g>
</g>
</svg>
