
<svg xmlns="http://www.w3.org/2000/svg" version="1.1" xmlns:xlink="http://www.w3.org/1999/xlink" preserveAspectRatio="none" x="0px" y="0px" width="1000px" height="1000px" viewBox="0 0 1000 1000">
<defs>
<g id="Catapult_Neck_0_Layer0_0_FILL">
<path fill="#000000" stroke="none" d="
M 178.1 73.85
Q 180 65.8 179.6 65.45 176.6 63 137 45.7
L 138.3 45.15 199.45 68.1
Q 201.35 66.95 203.25 65.75 204.7 64.85 206.05 63.85 209.1 61.7 212.15 59.5
L 215 44.95
Q 212.2337890625 43.06015625 142.95 21.05 73.6630859375 -0.9162109375 68.2 -3 62.7390625 -5.0755859375 55.95 0.45 49.1587890625 6.020703125 47.9 8.85 46.69296875 11.728125 45.7 16.85 4.4 31.85 0 33.7 3.07265625 35.629296875 9.2 42.1 15.388671875 48.5798828125 27.85 48.6 40.3009765625 48.6205078125 47.55 45.95 50.999609375 44.689453125 51.1 44.1
L 79.9 46.85
Q 97.1 51.2 164.65 95.95 170.65 88.3 174.5 84.05 176.1 82.25 178.1 73.85
M 200.8 54.55
Q 198 63.9 197.6 63.95 197.2 63.9 169.9 54.1 141.9 44.05 140.05 43.45 140.35 42.8 140.2 35.45
L 200.8 54.55
M 175.35 66.75
L 168.4 73.1
Q 140.05 57.95 111.4 42.65 54 12 52.3 11.25
L 57 6.85
Q 62.05 2.7 63.75 4 65.45 5.35 136.3 26.7 205.45 47.55 207.8 48
L 201.45 51.3
Q 198.85 50.55 61.75 6.65
L 63.85 8.65
Q 121.75 29.65 124.6 30.55
L 112.85 34.15
Q 104.15 29.85 85.6 21.1
L 68.75 13.2 63.35 9.25 60.35 6.9
Q 60.05 6.75 59.75 8.25 59.4 9.85 60.1 10.35 60.9 10.95 116.55 38.2 172.4 65.6 175.35 66.75
M 176.95 68.75
Q 176.7 70.8 176.3 72.8 175.95 74.8 175.35 76.75 173.8 81.65 169.2 84.6 170.6 75.4 176.95 68.75
M 168.35 73.25
L 166.05 85.95 48.1 17.95 51.85 12.15
Q 52.65 12.7 110.35 42.95 167.95 73.1 168.35 73.25
M 204.4 52.8
L 210.05 49.9 206.4 60.15 201.95 62.45 204.4 52.8
M 135 34.05
Q 135.7 34.2 136.35 34.5
L 129.85 38.8
Q 133 38.3 134.8 37.65 135.4 37.5 136.35 36.3 137 35.45 137.25 34.95 137.35 35.05 137.25 36.9 137.1 38.8 136.85 39.9 136.4 41.85 132.85 44
L 116.15 35.8
Q 121.4 33.85 126.7 33.15 130.9 32.7 135 34.05
M 49.2 31.85
L 59.25 27.15 68.5 33.1 49.2 31.85
M 55.7 24.85
Q 53.35 26.1 51 27.35 43.8 31.3 36.55 35.3 34.25 36.55 31.8 37.2 27.15 38.45 22.4 38.35 16.8 38.2 11.95 35.85 10.95 35.35 9.95 34.85 8.85 34.3 7.8 33.75
L 46.95 19.1 55.7 24.85
M 65.3 36.3
L 77.45 38.85 64.95 38.8 38.95 36.2
Q 40.5 35.35 44.1 33.85 63.95 36.05 65.3 36.3 Z"/>

<path fill="#6B533B" stroke="none" d="
M 77.45 38.85
L 65.3 36.3
Q 63.95 36.05 44.1 33.85 40.5 35.35 38.95 36.2
L 64.95 38.8 77.45 38.85
M 51 27.35
Q 53.35 26.1 55.7 24.85
L 46.95 19.1 7.8 33.75
Q 8.85 34.3 9.95 34.85 10.95 35.35 11.95 35.85 16.8 38.2 22.4 38.35 27.15 38.45 31.8 37.2 34.25 36.55 36.55 35.3 43.8 31.3 51 27.35
M 166.05 85.95
L 168.35 73.25
Q 167.95 73.1 110.35 42.95 52.65 12.7 51.85 12.15
L 48.1 17.95 166.05 85.95
M 85.6 21.1
Q 104.15 29.85 112.85 34.15
L 124.6 30.55
Q 121.75 29.65 63.85 8.65
L 63.35 9.25 68.75 13.2 85.6 21.1
M 197.6 63.95
Q 198 63.9 200.8 54.55
L 140.2 35.45
Q 140.35 42.8 140.05 43.45 141.9 44.05 169.9 54.1 197.2 63.9 197.6 63.95 Z"/>

<path fill="#CC9966" stroke="none" d="
M 136.35 34.5
Q 135.7 34.2 135 34.05 130.9 32.7 126.7 33.15 121.4 33.85 116.15 35.8
L 132.85 44
Q 136.4 41.85 136.85 39.9 137.1 38.8 137.25 36.9 137.35 35.05 137.25 34.95 137 35.45 136.35 36.3 135.4 37.5 134.8 37.65 133 38.3 129.85 38.8
L 136.35 34.5
M 210.05 49.9
L 204.4 52.8 201.95 62.45 206.4 60.15 210.05 49.9
M 176.3 72.8
Q 176.7 70.8 176.95 68.75 170.6 75.4 169.2 84.6 173.8 81.65 175.35 76.75 175.95 74.8 176.3 72.8
M 168.4 73.1
L 175.35 66.75
Q 172.4 65.6 116.55 38.2 60.9 10.95 60.1 10.35 59.4 9.85 59.75 8.25 60.05 6.75 60.35 6.9
L 63.35 9.25 63.85 8.65 61.75 6.65
Q 198.85 50.55 201.45 51.3
L 207.8 48
Q 205.45 47.55 136.3 26.7 65.45 5.35 63.75 4 62.05 2.7 57 6.85
L 52.3 11.25
Q 54 12 111.4 42.65 140.05 57.95 168.4 73.1 Z"/>
</g>
</defs>

<g transform="matrix( 0.9910125732421875, 0, 0, 0.9910125732421875, 311.25,307.95) ">
<g transform="matrix( 1.3134765625, 0, 0, 1.3134765625, 3.85,-203.25) ">
<g transform="matrix( 0.986297607421875, 0.1649627685546875, 0.1649627685546875, -0.986297607421875, 19.6,278.95) ">
<g transform="matrix( 1, 0, 0, 1, 0,0) ">
<use xlink:href="#Catapult_Neck_0_Layer0_0_FILL"/>
</g>
</g>
</g>
</g>
</svg>
