
<svg xmlns="http://www.w3.org/2000/svg" version="1.1" xmlns:xlink="http://www.w3.org/1999/xlink" preserveAspectRatio="none" x="0px" y="0px" width="100px" height="100px" viewBox="0 0 100 100">
<defs>
<g id="Symbol_170_1_Layer0_0_FILL">
<path fill="#AA00FF" stroke="none" d="
M 62.65 121.8
L 61.3 113.9 61.3 112.1 55.35 111.65
Q 43.8 121.2 28.65 120.8 26.45 120.75 25.7 122.8 26.45 126.25 29.9 127.45 34.1 128.95 38.55 129.65 43 130.45 45 134.2 47.391796875 138.6966796875 50 142.25 50.1310546875 142.4400390625 50.25 142.6 55.25 141.85 56.75 136.6 57.6 133.55 58.85 130.8 60.0109375 128.1880859375 61 125.8 61.8943359375 123.712890625 62.65 121.8
M 113.65 37.2
Q 110.2 35.75 106.85 34.05 106.495703125 33.8716796875 106.15 33.7 102.4625 31.9375 98.8 31.15 87.6287109375 28.742578125 76.9 35.6 68.35 41.15 58.85 44.1 55.35 45.25 52.65 48.05 40.35 60.95 40.8 79 40.55 91.35 50 98.55 51.45 99.6 53.3 99.95 61.35 101.15 69.3 102.15 71.15 102.5 72.2 104.05 72.05 108.8 69.35 113.05 68.45 114.45 68.85 116.05 69.3677734375 118.1744140625 70.45 119.25 72.406640625 121.2501953125 76.2 119.9 78.9 118.95 78.8 116 78.55 109.15 84.3 106.9 86.6 107.55 86.9 110.1 87.25 113.2 87.6 116.3 87.75 117.45 88.35 118.55 92.9 121.5 96.15 117.4 99.5 113.05 99.55 107.35 99.55 105.55 101 105 107.25 105.7 106.75 112.95 106.3 119.25 112.1 121.05 114.75 121.8 116.55 119.65 121.9 113.1 117.45 105.05 114.3 99.35 118.6 95.2 119.6 94.3 121.1 94.15 124.5 93.65 127.85 94.1 135.5 93.3 139.4 86.45 142.1 81.75 141.7 76.15 141.05 66.7 136.5 58 135.75 56.6 134.95 55.2 127.2 43.15 113.65 37.2
M 88.55 39.45
Q 89.1 38.8 90.05 38.5 91.1 41.15 87.85 45.25 86.1 47.5 83.7 49.2 93.7 65.2 88.35 82.75 87.55 85.4 85.85 87.6 76.55 99.3 61.7 96.8 49.7 92.05 46.25 80.2 45.7 78.35 46.5 76.25 47.55 73.55 48.75 70.95 71.85 59.15 88.55 39.45
M 109.8 58.25
Q 112.6 61.15 116.45 62.8 123.05 65.7 128.7 70.25 134.5 74.95 132.25 81.9 125.5 91 113.55 88.6 110.5 88.05 108 86.2 103.35 82.9 102.15 77 100.5 68.8 104.65 61.95 99 57.4 98.75 50.25 98.7 49.35 99.2 48.4 104.6 52.75 109.8 58.25
M 29.9 19.9
Q 30 17.65 28.6 15.95 24.35 10.85 18.05 14.3 16.95 14.85 15.95 15.5 12.15 23.2 17.5 30.8 18.75 32.55 19 34.8 19.95 43.3 11.8 47.7 9.3 49.1 8.4 51.8 7.55 54.45 8.75 55.85 22.26328125 53.842578125 32.9 59.85 33.1255859375 59.969140625 33.35 60.1
L 34.85 56.05 35.35 54.8 36.15 53.3 36.1 53.6 40.95 45.9
Q 29.1 35.7 29.9 19.9
M 151.95 109.45
Q 152.70625 108.757421875 153.5 108.1 154.0744140625 107.6681640625 154.65 107.25
L 156.85 103.55 140.3 101.65 138.95 100.7 124.9 102.55
Q 128.9 111.95 125.65 120.5 131.55 125.25 134.8 132 135.3 133.1 136.35 133.2 146 132 144.5 121.85 144.35 120.9 144.7 120 144.892578125 119.505859375 145.1 119 145.15546875 118.8966796875 145.2 118.75
L 150.85 110.5
Q 151.35859375 109.9724609375 151.9 109.45
L 151.95 109.45
M 165.35 43.55
Q 165.8 43.2 165.55 42.55 164 38.25 160 35.85 155.25 32.85 158.45 27.85 161.9 22.55 161.45 16.7 161.2 13.3 158.65 10.95 151.9 5.55 147.15 12.3 142.35 19.15 143.1 27.5 143.8 35.05 138.75 40.8
L 147.75 55
Q 157.2 50 165.35 43.55 Z"/>

<path fill="#FFFFFF" stroke="none" d="
M 116.45 62.8
Q 112.6 61.15 109.8 58.25 104.6 52.75 99.2 48.4 98.7 49.35 98.75 50.25 99 57.4 104.65 61.95 100.5 68.8 102.15 77 103.35 82.9 108 86.2 110.5 88.05 113.55 88.6 125.5 91 132.25 81.9 134.5 74.95 128.7 70.25 123.05 65.7 116.45 62.8
M 114.3 70.7
Q 115.7 72 117.5 72.6 122.05 74.1 122.65 78.05
L 120.55 78.7 111.3 78.9
Q 109.7 77 109.1 74.25 108.5 71.35 108.1 68.35 107.7 65.3 108.7 64.9 111.35 67.9 114.3 70.7
M 90.05 38.5
Q 89.1 38.8 88.55 39.45 71.85 59.15 48.75 70.95 47.55 73.55 46.5 76.25 45.7 78.35 46.25 80.2 49.7 92.05 61.7 96.8 76.55 99.3 85.85 87.6 87.55 85.4 88.35 82.75 93.7 65.2 83.7 49.2 86.1 47.5 87.85 45.25 91.1 41.15 90.05 38.5
M 78.75 55
Q 78.35 58.15 79.3 61.25 82.4 71.7 76.2 79.85 69 89.25 59.7 82.2 54.35 76.5 60.35 71.3 69.65 63.25 78.75 55
M 98.8 31.15
Q 99.5984375 31.08671875 100.35 31.05 95.5626953125 29.2951171875 88.15 28.2 78.944140625 26.897265625 70.35 26.45 58.1923828125 31.75625 47.15 39.5 46.35 38.4 45.55 37.35 44.2 35.65 43.55 33.5 40.7 23.95 39.35 13.8 38.8 9.75 35.65 7.35 24.95 -1.05 12.85 5.85 9.55 7.8 7.9 11.25 1.9 24.1 10.85 35.45 10.8 36.3 10.25 36.6 2.4 41.45 0.15 50 0.05 51.65 -0.05 53.25 -0.55 59.45 4.25 62.9 7.2 65 10.85 64.35 23.241796875 62.1689453125 30.35 71.9 30.4380859375 72.0138671875 30.5 72.1
L 30.2 77.3
Q 30.5 81.3 30.8 85.3 32.1 101.25 45.5 108.9 41.4 111.4 36.55 110.9 25.5 109.4 18.6 117.7 17.5 118.95 17.4 120.55 16.8 131.85 27.95 135.5 31.4 136.7 34.9 137.95 40.95 139.85 41.1 146.9 45.35 152.75 52.85 151.5 57.971484375 150.7150390625 60.8 146.95 59.9607421875 147.48046875 59.05 147.9 56.6 149.1 53.9 149.2 51.05 149.25 48.7 148.1 47.1 147.3 46.45 145.65 45.7 143.9 46.9 142.95 47.4 142.55 48.3 142.45 48.85 142.4 49.9 142.3 49.9580078125 142.291796875 50 142.25 47.391796875 138.6966796875 45 134.2 43 130.45 38.55 129.65 34.1 128.95 29.9 127.45 26.45 126.25 25.7 122.8 26.45 120.75 28.65 120.8 43.8 121.2 55.35 111.65
L 61.3 112.1 61.3 113.9 62.65 121.8
Q 61.8943359375 123.712890625 61 125.8 61.5716796875 124.96796875 62.2 124.2 64.85 120.95 68.25 119.85 69.0216796875 119.6185546875 70.45 119.25 69.3677734375 118.1744140625 68.85 116.05 68.45 114.45 69.35 113.05 72.05 108.8 72.2 104.05 71.15 102.5 69.3 102.15 61.35 101.15 53.3 99.95 51.45 99.6 50 98.55 40.55 91.35 40.8 79 40.35 60.95 52.65 48.05 55.35 45.25 58.85 44.1 68.35 41.15 76.9 35.6 87.6287109375 28.742578125 98.8 31.15
M 28.6 15.95
Q 30 17.65 29.9 19.9 29.1 35.7 40.95 45.9
L 36.1 53.6 36.05 53.95
Q 35.4490234375 55.0345703125 34.85 56.05
L 33.35 60.1
Q 33.1255859375 59.969140625 32.9 59.85 22.26328125 53.842578125 8.75 55.85 7.55 54.45 8.4 51.8 9.3 49.1 11.8 47.7 19.95 43.3 19 34.8 18.75 32.55 17.5 30.8 12.15 23.2 15.95 15.5 16.95 14.85 18.05 14.3 24.35 10.85 28.6 15.95
M 153.5 108.1
Q 152.70625 108.757421875 151.95 109.45 152.1130859375 109.374609375 152.25 109.3 153.100390625 108.740625 153.5 108.1 Z"/>

<path fill="#EF66FF" stroke="none" d="
M 117.5 72.6
Q 115.7 72 114.3 70.7 111.35 67.9 108.7 64.9 107.7 65.3 108.1 68.35 108.5 71.35 109.1 74.25 109.7 77 111.3 78.9
L 120.55 78.7 122.65 78.05
Q 122.05 74.1 117.5 72.6
M 79.3 61.25
Q 78.35 58.15 78.75 55 69.65 63.25 60.35 71.3 54.35 76.5 59.7 82.2 69 89.25 76.2 79.85 82.4 71.7 79.3 61.25
M 36.1 53.6
L 36.15 53.3 35.35 54.8 34.85 56.05
Q 35.4490234375 55.0345703125 36.05 53.95
L 36.1 53.6
M 173.75 34.05
L 167.5 29.3 169.9 16.55
Q 168.35 8.95 162.05 4.05 159.3 1.95 156 1.2 142.35 -2.2 137 11.2 135.75 14.4 135.5 17.75 134.8 26.95 130.35 34.6 129.125390625 33.6609375 127.85 32.75 114.711328125 23.3908203125 99 19.6 94.55 18.5 90.2 19.6
L 70.95 26.15
Q 70.6349609375 26.31484375 70.3 26.45
L 70.35 26.45
Q 78.944140625 26.897265625 88.15 28.2 95.5626953125 29.2951171875 100.35 31.05 99.5984375 31.08671875 98.8 31.15 102.4625 31.9375 106.15 33.7 106.495703125 33.8716796875 106.85 34.05 110.2 35.75 113.65 37.2 127.2 43.15 134.95 55.2 135.75 56.6 136.5 58 141.05 66.7 141.7 76.15 142.1 81.75 139.4 86.45 135.5 93.3 127.85 94.1 124.5 93.65 121.1 94.15 119.6 94.3 118.6 95.2 114.3 99.35 117.45 105.05 121.9 113.1 116.55 119.65 114.75 121.8 112.1 121.05 106.3 119.25 106.75 112.95 107.25 105.7 101 105 99.55 105.55 99.55 107.35 99.5 113.05 96.15 117.4 92.9 121.5 88.35 118.55 87.75 117.45 87.6 116.3 87.25 113.2 86.9 110.1 86.6 107.55 84.3 106.9 78.55 109.15 78.8 116 78.9 118.95 76.2 119.9 72.406640625 121.2501953125 70.45 119.25 69.0216796875 119.6185546875 68.25 119.85 64.85 120.95 62.2 124.2 61.5716796875 124.96796875 61 125.8 60.0109375 128.1880859375 58.85 130.8 57.6 133.55 56.75 136.6 55.25 141.85 50.25 142.6 50.1310546875 142.4400390625 50 142.25 49.9580078125 142.291796875 49.9 142.3 48.85 142.4 48.3 142.45 47.4 142.55 46.9 142.95 45.7 143.9 46.45 145.65 47.1 147.3 48.7 148.1 51.05 149.25 53.9 149.2 56.6 149.1 59.05 147.9 59.9607421875 147.48046875 60.8 146.95
L 60.85 146.9
Q 61.7576171875 145.70625 62.4 144.2 62.468359375 144.1224609375 62.5 144.05 66.2 135.4 71.1 127.6 73.1 127.8 75.15 127.3 79.45 126.45 81.95 122.95 85.4 126.05 90 126.5 96.95 126.6 102.85 122.9 104.35 124.05 105.85 125.2 114.65 131.9 122.85 124 124 128.7 126.05 132.9 128.25 137.45 132.7 139.9 135.35 141.45 138.4 141 140.35 141.25 142.3 140.5 153.45 136.1 153.1 123.55 153.05 122 154 120.95 158.55 116.25 162.9 111.25 168.95 104.45 165.25 96.6 164.8 95.6 163.95 95.2 156.15 91.7 147.05 92.85 148.35 90.9 149.3 88.8 154.1111328125 78.0509765625 151.6 67.15
L 151.6 67.1
Q 151.2052734375 65.465625 150.65 63.8
L 152 63.2
Q 159.5 59.95 167.05 56.6 169.3 55.6 171.2 53.95 180.45 45.55 173.75 34.05
M 165.55 42.55
Q 165.8 43.2 165.35 43.55 157.2 50 147.75 55
L 138.75 40.8
Q 143.8 35.05 143.1 27.5 142.35 19.15 147.15 12.3 151.9 5.55 158.65 10.95 161.2 13.3 161.45 16.7 161.9 22.55 158.45 27.85 155.25 32.85 160 35.85 164 38.25 165.55 42.55
M 153.5 108.1
Q 153.100390625 108.740625 152.25 109.3 152.1130859375 109.374609375 151.95 109.45
L 151.9 109.45
Q 151.35859375 109.9724609375 150.85 110.5
L 145.2 118.75
Q 145.15546875 118.8966796875 145.1 119 144.892578125 119.505859375 144.7 120 144.35 120.9 144.5 121.85 146 132 136.35 133.2 135.3 133.1 134.8 132 131.55 125.25 125.65 120.5 128.9 111.95 124.9 102.55
L 138.95 100.7 140.3 101.65 156.85 103.55 154.65 107.25
Q 154.0744140625 107.6681640625 153.5 108.1 Z"/>
</g>
</defs>

<g transform="matrix( 0.4565277099609375, 0, 0, 0.4565277099609375, 10.25,15.75) ">
<g transform="matrix( 1, 0, 0, 1, 0,0) ">
<use xlink:href="#Symbol_170_1_Layer0_0_FILL"/>
</g>
</g>
</svg>
