
<svg xmlns="http://www.w3.org/2000/svg" version="1.1" xmlns:xlink="http://www.w3.org/1999/xlink" preserveAspectRatio="none" x="0px" y="0px" width="345px" height="325px" viewBox="0 0 345 325">
<defs>
<g id="Bone_Archer_34_Layer1_0_FILL">
<path fill="#000000" stroke="none" d="
M 162.45 135.35
Q 163.05 135.1 163.8 134.3 164.75 133.4 165.15 133.15 165.6 132.9 166.3 132.65 166.75 132.5 167.55 132.25 169.1 131.7 169.35 130.6 169.75 129.1 167.4 127.4 164.65 125.4 163.25 124.6 160.9 123.2 158.8 122.5 155.8 121.6 153.7 122.3 152.8 122.65 151.65 123.4 150.4 124.35 149.75 124.75 148.8 125.3 147.3 125.95 147.20078125 125.993359375 147.1 126.05 145.7126953125 125.09296875 144.85 124.6 142.5 123.2 140.4 122.5 137.4 121.6 135.3 122.3 134.4 122.65 133.25 123.4 132 124.35 131.35 124.75 130.4 125.3 128.9 125.95 128.1 126.3 126.4 126.95 124.55 127.7 121.15 129.35 117.6 131.05 115.95 131.8 114.359765625 132.446875 112.75 132.95 110.2689453125 132.062890625 107.8 130.85 106.2 130.05 102.75 128.05 99.5 126.2 97.7 125.3 96.05 124.55 95.25 124.15 93.8 123.45 92.9 122.8 92.3 122.3 91.1 121.35 90.4048828125 120.836328125 89.85 120.45 91.5330078125 120.4279296875 92.2 120.25 93.2 119.9 94.95 118.55 96.2 117.5 95.8 116.7 96.2 116.7 96.6 116.95 96.9 117.05 97.45 117.35 98 117.55 99.05 117.55 99.6 117.45 100.7 117.4 101.35 117.3 102.7 117.45 104 117.3 104.45 116.65 104.8 116.15 104.75 115.05 104.5 113.85 103.6 112.4 103.4 112 101.95 109.9 101.2 108.85 99.85 106.75 98.7 104.9 97.75 103.75 96.15 101.85 94.6 101.15 93.6 100.75 92.9 100.9 92.3 100.95 91.25 101.65 90.3 102.3 90 102.8 89.6 103.3 89.45 104.4 89.3 106.65 91.05 110.9 88.2640625 111.7796875 86.55 114.2 86.34921875 113.761328125 86.05 113.3 85.3634765625 112.3388671875 84.65 111.5 84.275 110.9529296875 83.65 110.05
L 86.8 110.3
Q 88.7 110.4 89.4 109.8 90.6 108.55 88.8 106 86.75 103.1 85.4 101.9 83.15 99.75 80.5 99.5 78.3 99.55 77.2 99.3 76.45 99.15 75.1 98.5 73.75 97.9 73 97.7 71.75 97.4 70.5 97.7 69.2 98.1 68.4 98.95 68.2076171875 99.1572265625 68.05 99.35 66.8703125 98.721484375 66 99 65.1189453125 99.3708984375 64.85 100.35 63.5515625 99.6369140625 62.1 99.5 59.9 99.55 58.8 99.3 58.05 99.15 56.7 98.5 55.35 97.9 54.6 97.7 53.35 97.4 52.1 97.7 50.8 98.1 50 98.95 49.8076171875 99.1572265625 49.65 99.35 48.9142578125 98.962109375 48.3 98.9 46.7044921875 95.38984375 44.65 92 40.95 85.65 36 85.4 34.75 85.3 33.05 85.7 32.6 85.8 30.25 86.5 26.9138671875 87.5599609375 23.45 88.25 20.7943359375 85.561328125 17.6 85.4 16.35 85.3 14.65 85.7 14.2 85.8 11.85 86.5 9.169140625 87.3517578125 6.4 87.95
L 5.05 82
Q 4.8 80.55 4.3 79.15
L 3.4 76.15
Q 3.1 75.05 2.7 73.75 3.3 73.35 3.85 72.6 4.95 70.8 5.55 69.9
L 6.3 67.65
Q 7.15 65.85 8.8 64.2 10.5 62.8 10.9 62 11.35 60.85 10.85 58.5 10.55 56.65 9.7 53.2 9.188671875 51.0521484375 8.95 49.35 9.945703125 46.0904296875 9.5 43.75 9.1 41.65 7.65 40.1 6.1 38.5 4.1 38.35 1.4 38.2 -2.45 42 -6.5 46.05 -9 46.3 -9.4078125 46.335546875 -9.85 46.3 -10.1751953125 45.37265625 -10.85 45.05 -11.35 44.8 -12.05 45 -12.6748046875 45.0447265625 -13.05 45.4 -13.99296875 45.0080078125 -15.05 44.4
L -16.65 43.1
Q -17.45 42.3 -18.05 42.3 -18.4072265625 42.23515625 -18.8 42.4
L -22.7 40.3
Q -25.15 39 -26.25 38.55 -28.3 37.7 -30.05 37.55 -32.15 37.45 -33.95 38.35 -35.85 39.3 -36.55 41.05 -36.77890625 41.6369140625 -36.85 42.3 -37.1970703125 42.3791015625 -37.55 42.7 -37.9 43.05 -37.9 43.6 -38.05 44.2 -37.4 45.7 -37.05 46.4 -34.2 53.1 -32.95 55.8 -32.5 57.15 -31.3 60.4 -31.3 62.8
L -31.35 64.1
Q -31.35 64.85 -31.1 65.3 -30.7 66.05 -29.4 66.7 -28 67.35 -27.25 67.75 -26.55 68 -25.25 69.05 -24.05 69.95 -23.25 70.35 -22.05 70.9 -21.55 71.2 -21.25 71.4 -20.85 71.9 -20.6 72.25 -20.35 72.4
L -19.65 76 -18.65 78.55
Q -18.2 79.75 -17.4 83.15
L -16.9 85.5
Q -18.9958984375 85.2330078125 -20.75 85.5 -23.4703125 85.9232421875 -26.2 87.8 -27.4849609375 87.504296875 -28.75 87.15 -32.7 86 -33.9 85.75 -36.85 85.15 -39.15 85.5 -43.65 86.2 -48.2 90.9 -54.85 97.9 -58.55 106.3 -62.3 114.75 -62.7 123.65 -62.7201171875 124.0947265625 -62.75 124.55 -63.63046875 124.4958984375 -64.65 124.45 -68.4 124.25 -71.05 123.75 -73.75 123.2 -74.7 124.1 -75.05078125 124.49453125 -75.05 124.95 -75.6990234375 124.8646484375 -76.45 124.8 -78.6 124.65 -83.05 124.45 -86.8 124.25 -89.45 123.75 -92.15 123.2 -93.1 124.1 -93.5 124.55 -93.45 125.1 -93.45 125.75 -93.05 126.2 -92.8 126.7 -91.35 128 -89.6 129.8 -88 133.75 -87.5 134.6 -87.5 135.4 -87.35 137.45 -91.4 139.6
L -100.95 144.65
Q -102 145.2 -102.2 145.7 -102.4 146.2 -101.95 146.75 -101.6 147.15 -101.05 147.35 -100.25 147.65 -98.4 147.45 -97.45 147.4 -88.8 146.7 -85.44765625 146.311328125 -83.8 146.35 -83.717578125 146.5453125 -83.55 146.75 -83.2 147.15 -82.65 147.35 -81.85 147.65 -80 147.45 -79.4046875 147.4185546875 -75.8 147.1
L -75.3 147.25
Q -74.4 147.4 -73.75 147.35 -73.0904296875 147.255859375 -72.45 146.85 -71.4859375 146.787890625 -70.4 146.7 -66.95 146.3 -65.3 146.35 -61.2 146.2 -58.4 146.9
L -57.55 147.1
Q -54.861328125 152.493359375 -50.95 157.35 -50.7 157.6 -50.5 157.85 -50.9876953125 157.938671875 -51.55 158.15 -52.2138671875 157.9 -52.85 157.9 -53.95 158 -55.85 159.15
L -58.85 161.1
Q -60.114453125 160.2732421875 -62.4 159.85 -63.2 159.75 -65.15 159.55 -66.8 159.35 -67.8 159 -68.4 158.8 -69.55 158.35 -70.45 157.9 -71.25 157.9 -72.35 158 -74.25 159.15
L -86.6 167.35
Q -89.15 169 -90.2 169.5 -92.2 170.3 -92.25 170.35 -93.25 170.85 -93.55 171.6 -94.05 172.7 -93.2 174.1 -92.7 175 -91.8 175.45 -91.3 175.65 -89.75 175.9
L -82.65 176.5
Q -81.85 176.7 -81.75 176.75 -81.4 177.1 -81.6 178.05 -82.45 181 -82.45 183.65
L -82.5 186.05
Q -82.3 187.85 -82.3 188.4 -82.25 189.25 -82.35 189.7 -82.45 189.95 -82.7 190.35 -82.9 190.75 -82.9 191 -83 191.45 -82.7 191.9 -82.4888671875 192.1640625 -82.25 192.3 -82.11640625 194.099609375 -81 195.35 -79.2 197.4 -75.95 197.55 -73.85 197.6 -71.45 196.85 -69.8 196.35 -67.15 195.1 -63.8275390625 193.598046875 -61.9 192.6 -61.409375 192.4728515625 -60.9 192.2 -59.4044921875 191.4736328125 -58 190.2 -57.6189453125 189.9390625 -57.3 189.65 -56.6203125 189.61015625 -56 189.3 -55.878515625 189.2392578125 -55.75 189.15 -55.6373046875 189.8591796875 -55.35 190.5 -54.25 193.1 -50.85 193.9 -48.25 194.45 -45.1 193.5 -40.9 192.4 -37.3 189.85 -34.1619140625 187.58359375 -32 184.5 -31.0001953125 183.8056640625 -29.8 183 -26.1 180.4 -24.5 179 -24.05 178.6 -23.9 178.4 -23.5 177.95 -23.05 177.8 -22.75 177.7 -22.25 177.6 -21.55 177.4 -21.4 177.45 -19.75 177 -19 175.25 -18.6 174.4 -18.3 172.45
L -17.9 170.1
Q -17.876953125 169.9041015625 -17.85 169.7
L 3.85 180.3
Q 4.65 180.6 5.35 181.05 5.1 181.35 5.05 181.7 5 182.4 5.8 183.1 6.5 183.9 7.25 184.6 9.35 186.85 11.5 188.5 13.5 190.2 14 190.85 14.7 192 15.7 194.35 17 196.7 19.55 198.2 20.55 198.9 22.45 199.65 23.45 200.05 25.65 200.9 30.55 202.75 34.85 205.65 35.3 205.95 36.05 206.35 36.75 206.8 37.4 206.85 38.05 207.1 38.85 206.9 38.8890625 206.8888671875 38.9 206.85 39.2916015625 207.2515625 39.7 207.65 42.35 210.3 44.25 211.1 46.4 212.05 49.95 212.05 55.55 211.95 57.9 209.35 59.1 208 59.35 206.1 59.55 204.2 58.7 202.65 58.23984375 201.6640625 57.4 200.95 56.998828125 198.9599609375 56.65 197.35
L 56.1 194.65
Q 55.7 193.15 56.45 192.5 56.85 192.2 57.6 192.1 57.75 192.05 59 192.1 60.6 192.05 63.65 191.7 65.15 191.6 67.4 191.85 68.65 192 71.05 192.3 72.95 192.55 73.7 192 74.1 191.5 74.15 190.95 74.3 190.35 73.9 189.85 73.45 189.1 71.8 188.2 70.1 187.35 65 185.3
L 57.35 182.3
Q 52.6 180.45 50.65 179 49.5 178 48.85 177.6 47.85 176.85 46.7 176.75 46.15 176.75 44.6 177 42.1 177.6 36.65 177.85 33.75 177.9 31.6 178.15 31.4412109375 178.1740234375 31.25 178.2 30.797265625 177.813671875 30.45 177.6 29.45 176.85 28.3 176.75 27.75 176.75 26.2 177 25.9806640625 177.0525390625 25.75 177.1 23.019140625 175.743359375 20.3 174.45 20.35 174.4 20.45 174.35 21.05 174.15 22 174.1 23.3 173.95 23.65 174 23.85 173.95 25.25 173.6 26.15 173.3 26.7 173.35 27.3 173.25 28.5 173.35 29.15 173.25 29.55 173.1
L 31.6 174.1 32.6 170.1
Q 32 169.8 31.05 169.25 30.5236328125 169.039453125 29.7 168.8 30.0109375 168.7296875 30.25 168.65 30.75 168.6 31.2 168.4 31.3 168.4 31.45 168.35 32.0376953125 169.0734375 33.25 169.55
L 32.45 171.6
Q 33.1 171.55 34.25 171.55
L 35.75 171.2
Q 36.154296875 171.6513671875 36.45 171.75 37.05 171.85 37.6 171.4 37.79765625 171.20234375 37.95 170.95 39.492578125 171.4951171875 42.2 172.55 44.3 173.4 45.95 173.75 47.15 173.85 48.75 173.7 49.35 173.65 51.5 173.3
L 54.3 172.75
Q 57 172.3 58.7 172.25 59.1849609375 172.25 59.85 172.25 60.2287109375 172.4052734375 60.6 172.55 62.7 173.4 64.35 173.75 65.55 173.85 67.15 173.7 67.75 173.65 69.9 173.3
L 72.7 172.75
Q 75.4 172.3 77.1 172.25 77.85 172.25 79.1 172.3 80.35 172.35 81.2 172.15 82 172 83.45 171.5 84.25 171.4 86.1 171.45 87.7 171.5 88.65 171.05 89.2 170.65 89.45 170.15 89.7 169.55 89.45 169.1 89.05 168.45 87.65 168
L 74.5 164
Q 73.55 163.8 73.7 163.4 73.65 163.15 74.05 162.95 74.35 162.85 74.85 162.75 75.2 162.55 75.45 162.15 75.65 162 75.85 161.45 76.45 160.75 77.95 160 81.85 157.7 87.55 153.9 88.55 153.25 88.85 152.85 89.45 152.15 89.1 151.35 88.55 150.75 86.6 150.45 84.05 150.35 82.9 150.55 81.75 151 81.3 151.1 80.05 151 79.4 151.1 78.8 151.1 77.85 151.55 76.7 151.95 76.35 152 75.65 152.15 74.4 152.2 74.1640625 152.1916015625 73.95 152.2 74.0271484375 152.16953125 74.1 152.15 78.15 151.15 80.5 148.7 82.95 146.1 83.55 141.8 83.7994140625 139.9912109375 83.65 137.45 85.0201171875 138.701171875 86.15 140.1 88.45 142.85 89.55 145.95 89.75 146.45 90.05 147.4 90.4 148.3 90.7 148.85 91.7 150.5 93.05 150.8 94.8 151.1 96.7 149.3
L 98.05 147.85
Q 98.9 147 99.6 146.6 100.6 145.95 102.05 145.7 103.65 146 104.75 146.75 105.35 147.25 106.15 148.15
L 107.45 149.75
Q 109.2 151.65 110.95 151.4 111.684375 151.2951171875 112.3 150.8 113.6759765625 150.6490234375 115.1 149.3
L 116.45 147.85
Q 117.3 147 118 146.6 119 145.95 120.45 145.7 122.05 146 123.15 146.75 123.75 147.25 124.55 148.15
L 125.85 149.75
Q 127.6 151.65 129.35 151.4 130.75 151.2 131.85 149.65 132.2 149.15 132.55 148.3 132.95 147.3 133.15 146.85 134.5 143.8 136.95 141.15 139.25 138.75 142.3 136.9 147.85 133.5 153.1 133.75 155.45 133.85 159.05 135 160.25 135.4 160.75 135.45 161.75 135.6 162.45 135.35
M 1.6 85.8
Q 2.00703125 87.3875 2.3 88.75 1.0591796875 88.981640625 -0.25 89.15 -5.38046875 88.54140625 -10.35 87.15 -11.42734375 86.836328125 -12.3 86.6
L -13.35 82
Q -13.6 80.55 -14.1 79.15
L -15 76.15
Q -15.3 75.05 -15.7 73.75 -15.1 73.35 -14.55 72.6 -13.45 70.8 -12.85 69.9
L -12.1 67.65
Q -11.8154296875 67.047265625 -11.45 66.45 -11.2353515625 66.582421875 -11 66.7 -9.6 67.35 -8.85 67.75 -8.15 68 -6.85 69.05 -5.65 69.95 -4.85 70.35 -3.65 70.9 -3.15 71.2 -2.85 71.4 -2.45 71.9 -2.2 72.25 -1.95 72.4
L -1.25 76 -0.25 78.55
Q 0.2 79.75 1 83.15
L 1.6 85.8
M 71.9 109.15
Q 71.921875 109.09765625 71.95 109.05 71.978125 109.1326171875 72 109.2 71.9533203125 109.18359375 71.9 109.15
M 28.6 161.6
Q 28.7 161.6 28.85 161.6
L 30.75 164.05
Q 30.4546875 164.1419921875 30.1 164.25 29.0880859375 164.4943359375 28.5 164.6 28.4625 164.3994140625 28.45 164.3 28.5 163.45 28.6 161.6
M 12.35 164.05
Q 12.2580078125 164.1333984375 12.15 164.2 11.7 164.5 10.9 164.7 10.428515625 164.8650390625 10.1 164.95 10.0708984375 164.4666015625 10.05 164.3 10.09375 163.5556640625 10.15 162.05 10.41328125 161.9447265625 10.6 161.85
L 12.35 164.05
M 17.25 177.85
Q 14.981640625 177.9427734375 13.2 178.15 11.55 178.4 10.4 178.7
L 10.1 178.5
Q 6 176.4 1.9 174.45 1.95 174.4 2.05 174.35 2.65 174.15 3.6 174.1 4.9 173.95 5.25 174 5.45 173.95 6.85 173.6 7.525 173.375 8 173.35
L 17.25 177.85
M 85.65 119.65
Q 85.931640625 119.3419921875 86.15 119.05 86.2728515625 119.2005859375 86.4 119.35 86.509375 119.500390625 86.65 119.6 86.1841796875 119.6296875 85.7 119.65 85.6712890625 119.6640625 85.65 119.65
M 97.1 133.85
Q 94.1783203125 133.0115234375 91.3 131.75 94.1822265625 132.26015625 97.1 133.85
M -63.3 176.8
Q -63.0224609375 177.2064453125 -63.2 178.05 -63.32890625 178.4970703125 -63.45 178.9 -63.51796875 178.9681640625 -63.6 179 -63.8 179.05 -66 179.75 -66.468359375 179.8791015625 -66.9 180 -66.4720703125 179.5181640625 -66.15 179.15 -65.3 178.05 -63.3 176.85
L -63.3 176.8
M -14.5 165.65
Q -14.55 165.9 -14.6 166.1
L -14.65 166.3
Q -14.8 166.3 -15 166.3 -15.4884765625 166.2673828125 -16.05 166.45
L -16.6 166.2 -15.95 165.8 -16.05 165.7
Q -15.3 165.75 -14.5 165.65
M -10.4 166
L -10.25 165.2
Q -10.2 165.2 -10.05 165.2 -9.1375 165.0671875 -8.1 164.9 -8.5671875 165.066796875 -8.7 165.1 -9.1 165.25 -9.85 165.75 -10.1529296875 165.892578125 -10.4 166 Z"/>
</g>

<g id="Duplicate_Items_Folder_Bone_Crossbow_cape_copy_0_Layer1_0_FILL">
<path fill="#000000" stroke="none" d="
M 39.3 -37.45
Q 38.3 -37.8 37.15 -37.35 36.1 -36.95 35.35 -36.05 34.2 -34.75 33.65 -32 33.1 -28.75 32.7 -27.7 29.9 -29.35 27.95 -28.45 26.75 -27.85 26.4 -26.75 26.1 -25.95 26.2 -24.15 26.3 -22.45 26.6 -21.6 26.8 -21 27.7 -19.3
L 29.7 -16
Q 30.05 -15.3 30.05 -15.05 30.05 -14.75 29.7 -13.95 26.85 -8.9 26.15 -7 26.1212890625 -6.910546875 26.1 -6.85 25.044921875 -6.8830078125 24.3 -6.5 23.3 -5.95 22.55 -4.4 21.8 -2.6 21.3 -1.75 20.1 -0.1 19.55 0.75 19 1.65 18.5 3.1 17.95 4.75 17.65 5.55 16.85 7.65 14.75 11.3
L 9.2 20.65
Q 6.7 24.8 5.8 27.4 4.35 31.35 5.1 34.65 5.85 38.15 9.1 41.05 11.25 43 15.6 45.2 21.65 48.15 25.1 46.5 26.7 45.7 28 43.9 28.7 42.8 29.95 40.35 32.05 36.2 38.4 25.5
L 48.15 9.3
Q 49 7.85 49.3 6.95 49.75 5.55 49.35 4.5 49.054296875 3.736328125 48.2 3.05
L 54.75 -4.65
Q 55.5 -5.6 56.15 -5.9 56.55 -6.1 57.9 -6.2 61.7 -6.4 65.25 -8.05 66.7 -8.7 67.2 -9.45 67.65 -10.15 67.85 -11.55 68.15 -12.9 67.85 -13.75 67.4 -14.8 65.55 -15.6 67.25 -18.3 67.3 -19.9 67.45 -21.55 66.25 -23.45 65.45 -24.6 64.65 -24.8 64.3 -24.85 63.2 -24.65
L 60.3 -23.85
Q 60.7 -25.95 60.6 -28.05 60.6 -29.1 60.25 -29.95 59.85 -30.8 58.95 -31.25 58.05 -31.7 57.1 -31.6 55.35 -31.55 53.8 -30 53.05 -29.3 51.55 -27.05 51 -28.25 49.45 -28.15 49.3150390625 -28.1357421875 49.15 -28.1 49.89375 -29.36953125 50.55 -30.7 51.15 -32 51.3 -32.75 51.65 -34.4 51.1 -36.2 50.65 -37.55 49.95 -38.15 48.8 -39 47.3 -38.45 46.3 -38.1 44.95 -36.95 43.55 -35.7 42.2 -34.1 41.15 -36.9 39.3 -37.45
M 36.85 -24.85
Q 36.995703125 -29.3689453125 39.05 -33.3 39.3658203125 -32.6025390625 39.45 -31.55 39.5361328125 -30.4744140625 39.8 -29.8 39.8513671875 -29.220703125 39.95 -28.9 40.15 -28.3 40.65 -27.95 41.2 -27.6 41.75 -27.8 42.2 -27.9 42.7 -28.6
L 47.15 -34.2
Q 47.65 -29.9 44.05 -24.25 42.8 -22.4 43.75 -21.65 44.45 -21 45.55 -21.8 46.05 -22.2 46.9 -23.2 47.7 -23.9 48.9 -24 48.15 -22.55 48.65 -20.85 49.05 -19.7 49.8 -19.7 50.35 -19.65 50.95 -20.25 51.7 -20.95 52.35 -22.15 52.75 -22.85 53.45 -24.3 54.9 -27 56.8 -27.5 56.9 -24.45 55.45 -21.9 54.6 -20.35 54.5 -19.75 54.4 -19.15 54.7 -18.55 55 -17.95 55.6 -17.85 56.15 -17.7 57.45 -18.65 59.6 -20.2 62.25 -20.2
L 62.8 -19.2
Q 61.35 -17.4 59.35 -16.15 58.25 -15.5 57.9 -15.05 57.15 -14.2 57.6 -13.35 58.1 -12.45 59.5 -12.75 59.7947265625 -12.8130859375 60.2 -12.95 60.33984375 -12.63125 60.6 -12.4 61.05 -12 61.65 -12 62 -12 62.5 -12.2 62.75 -12.3 63.3 -12.55
L 63.3 -12.55 63.35 -12.5
Q 60.4 -10.75 56.65 -9.7 54.65 -9.15 54.4 -9.1 53.15 -8.65 52.35 -8.05 51.636328125 -7.52421875 50.5 -5.9 50.395703125 -5.94453125 50.25 -6 50.75 -6.65 50.4 -7.45 50.1 -8.3 49.3 -8.45 48.85 -8.55 47.25 -8.1 45.85 -7.75 45.4 -8.7 45.25 -9.05 45.45 -10.15 45.6 -11.05 45.2 -11.35 44.8 -11.55 44.05 -11.25
L 39.65 -9.5
Q 38.35 -11.4 38.6 -13.65 38.7 -14.7 38.4 -15 38.15 -15.25 37.35 -15.25 35.841015625 -15.19296875 34.45 -14.8 34.5353515625 -15.1087890625 34.55 -15.4 34.55 -16.4 33.8 -17.9
L 31.15 -23.45
Q 30.587890625 -24.5341796875 30.95 -25.05 31.39140625 -24.7251953125 32.1 -24.1 33.071875 -23.4318359375 33.85 -23.5 33.9859375 -23.3369140625 34.1 -23.2 35.3 -22.2 36.2 -22.9 36.75 -23.3 36.85 -24.85
M 33.6 -12.9
Q 33.935546875 -12.7796875 34.35 -12.75 35.25 -12.75 36.55 -13.4 36.58359375 -13.0087890625 36.65 -12.65 36.8462890625 -11.3046875 37.35 -9.95 37.380078125 -9.901171875 37.4 -9.85 37.712109375 -9.0697265625 38.1 -8.6 38.5904296875 -7.9662109375 39.2 -7.8 39.5638671875 -7.7271484375 40 -7.8 40.446484375 -7.8765625 40.95 -8.1 41.0205078125 -8.1154296875 41.1 -8.15 42.55 -8.85 43.05 -8.9 42.79375 -8.0029296875 43.35 -7.25 43.4240234375 -7.188671875 43.45 -7.15 43.536328125 -7.063671875 43.6 -7 44.1 -6.5 45.4 -6 47.31953125 -5.405859375 48 -6.15 47.601171875 -5.5421875 48 -4.7 48.377734375 -3.94453125 49.05 -3.65 47.6642578125 -1.5642578125 45.9 0.2 45.3041015625 0.7958984375 45 1.25
L 45.35 1.4 37.25 -2.3 35.05 -3.3 31.9 -4.75 29.5 -5.85 29.55 -5.85 33.6 -12.9
M 25.85 -3.6
Q 27.0390625 -3.122265625 28.5 -2.5 30.425 -1.6962890625 32.8 -0.65 37.3328125 1.3373046875 43.6 4.2 44.8 4.8 45.25 5.25 45.9017578125 5.983203125 45.7 6.75 45.6833984375 6.9240234375 45.6 7.1 45 8.2 42.8 7.75
L 24.75 4.25 21.9 3.7 25.85 -3.6
M 43.55 10.55
L 40.55 15.55
Q 39.85 16.75 39.95 17.45 39.15 17.85 38.4 19.15
L 31.85 29.95
Q 31.05 31.35 28.65 36.1 26.75 39.95 25.3 42.1 24.4 43.35 23.65 43.7 22.9 44.05 21.45 43.75 17.35 42.9 12.65 39.45 10.9427734375 38.17734375 9.95 37 9.3412109375 36.2826171875 9 35.6 7.7 32.95 8.65 29.55 9.2 27.65 11.15 23.9
L 17.25 12.75
Q 18.4 10.6 18.7 9.55 18.9 8.45 19.05 7.85 19.3 6.9 19.7 6.3 22.0541015625 6.8322265625 24.5 7.3
L 31.3 8.6
Q 31.5837890625 8.654296875 31.85 8.7
L 43.55 10.55 Z"/>

<path fill="#999999" stroke="none" d="
M 22.9 8.45
Q 23.2421875 7.7810546875 23.55 7.15 24.0435546875 7.2455078125 24.5 7.3 22.0541015625 6.8322265625 19.7 6.3 19.3 6.9 19.05 7.85 18.9 8.45 18.7 9.55 18.4 10.6 17.25 12.75
L 11.15 23.9
Q 9.2 27.65 8.65 29.55 7.7 32.95 9 35.6 9.3412109375 36.2826171875 9.95 37 10.8939453125 34.6552734375 11.95 32.2 14.15 27.1 19.1 16.3 21.6 10.9 22.9 8.45 Z"/>

<path fill="#666666" stroke="none" d="
M 40.55 15.55
L 43.55 10.55 31.85 8.7
Q 31.5837890625 8.654296875 31.3 8.6
L 24.5 7.3
Q 24.0435546875 7.2455078125 23.55 7.15 23.2421875 7.7810546875 22.9 8.45 21.6 10.9 19.1 16.3 14.15 27.1 11.95 32.2 10.8939453125 34.6552734375 9.95 37 10.9427734375 38.17734375 12.65 39.45 17.35 42.9 21.45 43.75 22.9 44.05 23.65 43.7 24.4 43.35 25.3 42.1 26.75 39.95 28.65 36.1 31.05 31.35 31.85 29.95
L 38.4 19.15
Q 39.15 17.85 39.95 17.45 39.85 16.75 40.55 15.55
M 40 -7.8
Q 39.5638671875 -7.7271484375 39.2 -7.8 38.5904296875 -7.9662109375 38.1 -8.6
L 37.85 -8.15
Q 36.3109375 -5.54765625 35.05 -3.3
L 37.25 -2.3 38.65 -5.15
Q 39.48125 -6.9046875 40 -7.8
M 34.35 -12.75
Q 33.935546875 -12.7796875 33.6 -12.9
L 29.55 -5.85 29.5 -5.85 31.9 -4.75
Q 32.80390625 -6.423828125 34.3 -8.85
L 36.65 -12.65
Q 36.58359375 -13.0087890625 36.55 -13.4 35.25 -12.75 34.35 -12.75 Z"/>

<path fill="#71368A" stroke="none" d="
M 45.6 7.1
Q 45.6833984375 6.9240234375 45.7 6.75 41.040234375 5.1642578125 38.15 4.25 32.2626953125 2.392578125 27.15 1.1
L 27.1 1.1
Q 27.053125 1.1017578125 26.95 1.05
L 26.95 1.05
Q 25.8984375 2.7103515625 24.75 4.25
L 42.8 7.75
Q 45 8.2 45.6 7.1 Z"/>

<path fill="#CC66FF" stroke="none" d="
M 32.8 -0.65
Q 32.9642578125 -0.571484375 33.1 -0.5 32.5080078125 -0.3232421875 31.85 -0.15
L 27.55 1
Q 27.340234375 1.0576171875 27.15 1.1 32.2626953125 2.392578125 38.15 4.25 41.040234375 5.1642578125 45.7 6.75 45.9017578125 5.983203125 45.25 5.25 44.8 4.8 43.6 4.2 37.3328125 1.3373046875 32.8 -0.65
M 39.05 -33.3
Q 36.995703125 -29.3689453125 36.85 -24.85 36.75 -23.3 36.2 -22.9 35.3 -22.2 34.1 -23.2 33.9859375 -23.3369140625 33.85 -23.5 33.071875 -23.4318359375 32.1 -24.1 31.39140625 -24.7251953125 30.95 -25.05 30.587890625 -24.5341796875 31.15 -23.45
L 33.8 -17.9
Q 34.55 -16.4 34.55 -15.4 34.5353515625 -15.1087890625 34.45 -14.8 35.841015625 -15.19296875 37.35 -15.25 38.15 -15.25 38.4 -15 38.7 -14.7 38.6 -13.65 38.35 -11.4 39.65 -9.5
L 44.05 -11.25
Q 44.8 -11.55 45.2 -11.35 45.6 -11.05 45.45 -10.15 45.25 -9.05 45.4 -8.7 45.85 -7.75 47.25 -8.1 48.85 -8.55 49.3 -8.45 50.1 -8.3 50.4 -7.45 50.75 -6.65 50.25 -6 50.395703125 -5.94453125 50.5 -5.9 51.636328125 -7.52421875 52.35 -8.05 53.15 -8.65 54.4 -9.1 54.65 -9.15 56.65 -9.7 60.4 -10.75 63.35 -12.5
L 63.3 -12.55 63.3 -12.55
Q 62.75 -12.3 62.5 -12.2 62 -12 61.65 -12 61.05 -12 60.6 -12.4 60.33984375 -12.63125 60.2 -12.95 59.7947265625 -12.8130859375 59.5 -12.75 58.1 -12.45 57.6 -13.35 57.15 -14.2 57.9 -15.05 58.25 -15.5 59.35 -16.15 61.35 -17.4 62.8 -19.2
L 62.25 -20.2
Q 59.6 -20.2 57.45 -18.65 56.15 -17.7 55.6 -17.85 55 -17.95 54.7 -18.55 54.4 -19.15 54.5 -19.75 54.6 -20.35 55.45 -21.9 56.9 -24.45 56.8 -27.5 54.9 -27 53.45 -24.3 52.75 -22.85 52.35 -22.15 51.7 -20.95 50.95 -20.25 50.35 -19.65 49.8 -19.7 49.05 -19.7 48.65 -20.85 48.15 -22.55 48.9 -24 47.7 -23.9 46.9 -23.2 46.05 -22.2 45.55 -21.8 44.45 -21 43.75 -21.65 42.8 -22.4 44.05 -24.25 47.65 -29.9 47.15 -34.2
L 42.7 -28.6
Q 42.2 -27.9 41.75 -27.8 41.2 -27.6 40.65 -27.95 40.15 -28.3 39.95 -28.9 39.8513671875 -29.220703125 39.8 -29.8 39.5361328125 -30.4744140625 39.45 -31.55 39.3658203125 -32.6025390625 39.05 -33.3 Z"/>

<path fill="#FFFFFF" stroke="none" d="
M 28.5 -2.5
Q 27.0390625 -3.122265625 25.85 -3.6
L 21.9 3.7 24.75 4.25
Q 25.8984375 2.7103515625 26.95 1.05
L 26.95 1.05
Q 27.053125 1.1017578125 27.1 1.1
L 27.15 1.1
Q 27.340234375 1.0576171875 27.55 1
L 31.85 -0.15
Q 32.5080078125 -0.3232421875 33.1 -0.5 32.9642578125 -0.571484375 32.8 -0.65 30.425 -1.6962890625 28.5 -2.5 Z"/>

<path fill="#793C00" stroke="none" d="
M 43.45 -7.15
Q 43.4240234375 -7.188671875 43.35 -7.25
L 42.85 -6.5
Q 43.1703125 -6.8203125 43.45 -7.15 Z"/>

<path fill="#333333" stroke="none" d="
M 38.65 -5.15
L 37.25 -2.3 45.35 1.4 45 1.25
Q 45.3041015625 0.7958984375 45.9 0.2 47.6642578125 -1.5642578125 49.05 -3.65 48.377734375 -3.94453125 48 -4.7 47.601171875 -5.5421875 48 -6.15 47.31953125 -5.405859375 45.4 -6 44.1 -6.5 43.6 -7 43.536328125 -7.063671875 43.45 -7.15 43.1703125 -6.8203125 42.85 -6.5
L 43.35 -7.25
Q 42.79375 -8.0029296875 43.05 -8.9 42.55 -8.85 41.1 -8.15 41.0205078125 -8.1154296875 40.95 -8.1 40.446484375 -7.8765625 40 -7.8 39.48125 -6.9046875 38.65 -5.15
M 38.1 -8.6
Q 37.712109375 -9.0697265625 37.4 -9.85 37.380078125 -9.901171875 37.35 -9.95 36.8462890625 -11.3046875 36.65 -12.65
L 34.3 -8.85
Q 32.80390625 -6.423828125 31.9 -4.75
L 35.05 -3.3
Q 36.3109375 -5.54765625 37.85 -8.15
L 38.1 -8.6 Z"/>
</g>

<g id="Duplicate_Items_Folder_Bone_Crossbow_cape_copy_0_Layer0_0_FILL">
<path fill="#000000" stroke="none" d="
M 57.4 9.55
Q 59 7.75 59.3 6.75 59.55 5.9 59.4 5.05 59.2 4.1 58.6 3.6 57.45 2.65 55.55 3.3 53.7 4.3 52.75 4.8 50.75 5.8 46.55 6.4 42.25 7 40.15 6.95 37.05 6.8 32.95 5.6 28.25 4 25.9 3.25 14.1 -0.5 1.85 0.05 0.75 0.15 0.35 0.45 -0.05 0.85 0 1.6 0.1 2.2 0.5 2.7 1.05 3.3 2.45 4.25 4.3 5.8 4.5 9.1 4.55 10.05 4.45 11.85 4.35 13.7 4.35 14.55 4.4 19 7.05 24.45 8 26.5 9.1 27.5 10.85 28.95 12.6 28.3 13.1 28.1 13.7 27.65
L 14.7 26.8
Q 15.8 26.05 17.5 25.9 18.3 25.8 20.6 25.85 28.1 26.15 34.95 24.35 42.25 22.45 47.95 18.4 52.25 15.35 57.4 9.55
M 52.85 7.7
Q 53.95 6.95 54.45 6.65 55.4 6.1 56.2 6.2
L 51.15 11.4
Q 48.45 14.1 47.35 15 46.15 15.9 44.45 16.95 35.45 22.3 24.9 22.45 20.45 22.35 18.25 22.5 14.45 22.8 12.1 24.35 11.6 24.75 11.2 24.7 10.958984375 24.678125 10.75 24.5 10.4966796875 24.3212890625 10.3 23.9 7.867578125 19.6544921875 7.5 14.85 7.4615234375 14.2353515625 7.45 13.6 7.55 11 7.6 9.7 7.6 7.4 7.1 5.85 6.75 4.95 6.6 4.55 6.3 3.75 6.25 3.2 8 3.25 11.5 3.85 20.7 5.45 25.1 6.8 27.45 7.5 32.05 9.1 36.15 10.35 39.15 10.45 40.3580078125 10.5013671875 41.7 10.4 43.01640625 10.29296875 44.45 10.05 46.2 9.75 49.7 8.9 52 8.25 52.85 7.7 Z"/>

<path fill="#CC66FF" stroke="none" d="
M 26.1 11.15
Q 28.05 11.25 31.95 11.45 36.8947265625 11.56328125 41.7 10.4 40.3580078125 10.5013671875 39.15 10.45 36.15 10.35 32.05 9.1 27.45 7.5 25.1 6.8 20.7 5.45 11.5 3.85 8 3.25 6.25 3.2 6.3 3.75 6.6 4.55 6.75 4.95 7.1 5.85 7.6 7.4 7.6 9.7 7.55 11 7.45 13.6 7.4615234375 14.2353515625 7.5 14.85 7.9068359375 15.3783203125 8.25 15.9 8.5 16.25 9.75 18.25 10.6 19.7 11.35 20.5 11.85 21.05 12.85 22.15 13.33828125 22.692578125 13.65 23.2 17.4419921875 21.7080078125 23.8 20.3 32.05 18.45 35.3 17.25 29.95 16.05 18.95 15.15
L 12.15 14.6
Q 11.95 13.25 14.55 13 15.65 12.85 17.45 12.35 19.6 11.7 20.35 11.55 22.7 11.05 26.1 11.15 Z"/>

<path fill="#71368A" stroke="none" d="
M 54.45 6.65
Q 53.95 6.95 52.85 7.7 52 8.25 49.7 8.9 46.2 9.75 44.45 10.05 43.01640625 10.29296875 41.7 10.4 36.8947265625 11.56328125 31.95 11.45 28.05 11.25 26.1 11.15 22.7 11.05 20.35 11.55 19.6 11.7 17.45 12.35 15.65 12.85 14.55 13 11.95 13.25 12.15 14.6
L 18.95 15.15
Q 29.95 16.05 35.3 17.25 32.05 18.45 23.8 20.3 17.4419921875 21.7080078125 13.65 23.2 13.33828125 22.692578125 12.85 22.15 11.85 21.05 11.35 20.5 10.6 19.7 9.75 18.25 8.5 16.25 8.25 15.9 7.9068359375 15.3783203125 7.5 14.85 7.867578125 19.6544921875 10.3 23.9 10.4966796875 24.3212890625 10.75 24.5 10.958984375 24.678125 11.2 24.7 11.6 24.75 12.1 24.35 14.45 22.8 18.25 22.5 20.45 22.35 24.9 22.45 35.45 22.3 44.45 16.95 46.15 15.9 47.35 15 48.45 14.1 51.15 11.4
L 56.2 6.2
Q 55.4 6.1 54.45 6.65 Z"/>
</g>

<g id="Skeleton_Archer_archerSkeleton_body_6_Layer0_0_FILL">
<path fill="#000000" stroke="none" d="
M 9.65 48.65
Q 9.523828125 48.9654296875 9.45 49.2 9.4001953125 49.238671875 9.35 49.25 7.4 49.7 4.75 52.15 2.5 54.1 2.5 55.7 2.55 57.25 4.2 58.35 5.25 59 7.3 59.4 13.8 60.75 18.35 60.3 21.95 59.9 22.55 57.7 23.05 55.75 20.25 53.5 18.7755859375 52.29921875 17.4 51.4 17.5998046875 51.08046875 17.8 50.6 18.35 49.15 18.75 47.3 19.25 44.8 18.85 43.4 18.2 41.15 16.25 40.7 14.3 40.3 12.8 42.1 11.8 43.25 10.95 45.45
L 9.65 48.65
M 12.6 49.3
Q 12.654296875 49.1828125 12.7 49.05 13.5 46.6 15.25 44.45 15.8 44.65 15.7 45.6 15.6 47.4 14.95 49.05 14.7412109375 49.5626953125 14.6 49.95 14.194921875 49.7837890625 13.8 49.65 13.1853515625 49.43671875 12.6 49.3
M 16.3 54.6
Q 17.45 54.95 17.65 55.3 17.85 55.55 18.15 56.2 18.25 56.3 18.8 56.5 19.2 56.65 19.3 56.9 18.2 57.45 16.45 57.25 14.45 56.9 13.45 56.8 10.7 56.8 9.35 56.8 6.9 56.75 5.5 55.9 5.5 55.5 6 55.1
L 8.5 53.2
Q 9.3 52.6 9.6 52.55 10.35 52.3 11.35 52.55 12.9 52.85 14 53.5 15.75 54.4 16.3 54.6
M 49.85 34.55
Q 48.1 33.9 47 34.65 46.2 35.2 45.5 36.75 44.6 38.65 44.55 39.8
L 44.55 40.9
Q 44.5 41.55 44.4 42 44.3 42.55 43.8 43.2 43.55 43.55 42.95 44.3 41.85 45.9 41.4 47.65 40.85 49.55 41.75 50.6 42.6 51.65 45.6 51.45 48.4 51.25 51.25 51.6 54.05 51.95 54.9 51.95 56.95 51.9 58.1 50.9 59.9 49.4 59.55 46.7 59.3 44.8 57.65 42.6 55.55 39.8 53.15 39.8 53.3 38.15 52.35 36.65 51.4 35.1 49.85 34.55
M 50.15 38.75
Q 50.3 38.9 50.3 39
L 50.3 39.3
Q 50.15 39.7 49.8 39.95 49.6 40.1 48.9 40.35 48.3 40.6 47.75 40.6 47.7 39.6 47.85 39.15
L 48.35 37.85
Q 48.35 37.6 48.55 37.55 48.6 37.45 48.8 37.45 49.55 37.45 49.85 38.1 50 38.3 50.15 38.75
M 43.85 48.75
Q 44.4 47.4 44.7 46.7 45.2 45.5 45.65 44.75 47 42.5 49.05 42.2 50.05 42.1 51.45 42.55 53.35 43.1 54.4 43.9 55.35 44.7 55.8 45.85 56.25 47.05 56.1 48.25 54.65 48.5 52.3 48.3 49.3 48.05 48.45 48.05 46.6 48.1 43.85 48.75 Z"/>

<path fill="#D7D7C5" stroke="none" d="
M 17.65 55.3
Q 17.45 54.95 16.3 54.6 15.75 54.4 14 53.5 12.9 52.85 11.35 52.55 10.35 52.3 9.6 52.55 9.3 52.6 8.5 53.2
L 6 55.1
Q 5.5 55.5 5.5 55.9 6.9 56.75 9.35 56.8 10.7 56.8 13.45 56.8 14.45 56.9 16.45 57.25 18.2 57.45 19.3 56.9 19.2 56.65 18.8 56.5 18.25 56.3 18.15 56.2 17.85 55.55 17.65 55.3
M 12.7 49.05
Q 12.654296875 49.1828125 12.6 49.3 13.1853515625 49.43671875 13.8 49.65 14.194921875 49.7837890625 14.6 49.95 14.7412109375 49.5626953125 14.95 49.05 15.6 47.4 15.7 45.6 15.8 44.65 15.25 44.45 13.5 46.6 12.7 49.05
M 44.7 46.7
Q 44.4 47.4 43.85 48.75 46.6 48.1 48.45 48.05 49.3 48.05 52.3 48.3 54.65 48.5 56.1 48.25 56.25 47.05 55.8 45.85 55.35 44.7 54.4 43.9 53.35 43.1 51.45 42.55 50.05 42.1 49.05 42.2 47 42.5 45.65 44.75 45.2 45.5 44.7 46.7
M 50.3 39
Q 50.3 38.9 50.15 38.75 50 38.3 49.85 38.1 49.55 37.45 48.8 37.45 48.6 37.45 48.55 37.55 48.35 37.6 48.35 37.85
L 47.85 39.15
Q 47.7 39.6 47.75 40.6 48.3 40.6 48.9 40.35 49.6 40.1 49.8 39.95 50.15 39.7 50.3 39.3
L 50.3 39 Z"/>
</g>

<g id="Bone_Archer_Body_6_Layer0_0_FILL">
<path fill="#000000" stroke="none" d="
M 49.2 6.4
Q 48.6 4.6 47.45 3.6 46.3 2.5 43.8 1.75 40.1 0.65 32.6 0.65 25.1 0.65 17.7 0.8
L 2.7 1.05
Q 1.25 1.05 0.35 1.55 -0.2 1.95 -0.45 2.75 -0.65 3.15 -0.9 4.1 -1.25 5 -2.5 6.35 -3.8 7.8 -4.15 8.6 -4.8 9.9 -4.4 11.35 -4 12.8 -2.8 13.7 -2.05 14.25 -0.5 15.15 0.1 15.6 0.9 16.35 0.1 16.8 -0.65 17.35 -2.05 18.4 -2.7 19.55 -3.35 21 -2.85 23.85 -2.6 25.15 -2.1 25.55 -1.3 26.25 0.55 26.15 4 26 8.25 25.25 9.05 25.1 10.2 24.8
L 10.4 25.4
Q 10.45 25.65 10.6 26.05 9.05 26.35 8.1 26.55 5.5 27.1 3.7 27.75 0.55 28.8 -0.7 30.55 -1.45 31.6 -1.4 32.85 -1.3 34.15 -0.3 34.95 0.8 35.8 3.65 36 8.1 36.25 10.45 36.1 12.7 35.95 14.6 35.45 15.35 38.1 16.9 39.1 18.35 40 21.25 40.2 24.1 40.3 26.5 40 30.05 39.55 31.1 38.05 31.55 37.35 31.65 36.1 31.8 34.5 31.9 34.1 32.35 32.75 33.85 31.65 34.9 30.9 36.25 30.5 36.75 31.1 37.7 31.85 40.65 34.25 42.7 34.7 44.55 35.05 48.2 34.3 51.3 33.65 51.7 32.25 52 31.15 50.95 30.2 50.4 29.7 48.9 28.95 47.85 28.45 47.1 28.05 47.45 27.8 47.45 27.45
L 47.35 26.85 47.35 26.8
Q 49.1 26.75 50.2 26.25 51.4 25.75 52.8 24.35 54.35 22.95 54.65 21.65 55.05 20 53.5 18.25 52.45 16.95 50.1 15.75 49.7 15.55 49.2 15.3 51 11 49.2 6.4
M 41.75 4.75
Q 42.8 5.1 43.5 5.4 41.05 7.95 37.5 9.8 36.45 10.4 35.4 10.85 33.15 11.75 30.8 12.35 26.7 13.25 22.25 12.9
L 16.85 12.3
Q 16.35 12.2 16 12.2 14.05 12 13.75 11.9 12.3 11.4 11.6 11.25 10.95 11.1 10.05 11.1 8.8 11.1 8.4 11.05 7.55 10.95 6.95 10.6 6.25 10.1 6.2 9.5 5.8 9.55 5.05 9.55
L 6.75 11.6
Q 7.1 12.15 7.55 12.45 8.1 12.75 9.35 12.8 10.65 12.85 11.15 13.1 11.35 13.2 11.6 13.4 11.9 13.55 12.25 13.85 12.2919921875 13.8919921875 12.35 13.9
L 12.4 13.9
Q 12.95 14.1 13.75 14.2 14.45 14.25 16.6 14.7 17.7 14.85 19.2 15.1 24.35 16 28.2 15.85 27.95 15.9 27.7 15.95 25.55 16.55 23.65 17 19.9 17.85 17.1 18.15 16.3 18.2 15.6 18.25 13.7 18.35 12.55 18 11.5 17.5 10.9 17.35 10.4 17.2 9.55 17.15 9.05 17.1 8.5 17.05 7.5 17 6.8 16.9 6.35 16.8 6.05 16.7 5.05 16.2 4.5 16.15 4.25 16.1 4.1 16.2 3.95 16.1 3.9 16.05 3.65 15.85 3.1 15.2 2.65 14.8 2.15 14.2 1.1 13 0.3 12.45 -1.05 11.4 -1.25 11.05 -1.6 10.35 -1.2 9.3 -0.8 8.5 -0.25 8.25 0.05 8.1 0.85 8.05 1.6 7.9 1.9 7.7 2.55 7.35 2.55 6.2 2.45 4.8 2.8 4.4 13.15 4.8 22.85 4.35
L 26.15 4.1
Q 27.9 3.9 28.7 3.9 29.1 3.9 31.3 4.15 32.55 4.3 36.55 4.3 37.1 4.3 37.6 4.35 39.9 4.4 41.4 4.7 41.6 4.7 41.75 4.75
M 44.6 9.95
Q 44.35 9.75 44.15 9.65 44.85 8.9 45.6 8.15 46.1 9.5 46.1 10.6 46.05 11.9 44.85 13.8 44.7 14 44.5 14.25 43.5 15.55 42.9 16.3 42.6 16.65 42.35 16.9 40.15 19.05 36.95 20.35 36.7 20.45 36.3 20.6 35.5 20.85 34.25 21.2 32.9 21.55 31.05 22 29.95 22.2 29.05 22.35 27.95 22.55 27.15 22.65 25.65 22.95 25.1 22.95
L 25.05 22.95
Q 23.75 23.05 22.3 22.95 20.3 22.8 18.1 22.45 18.05 22.4 17.9 22.4 15.25 21.8 14.45 21.5 13.75 21.3 12.9 20.95 11.9 20.55 10.65 20 10.1 19.75 9.45 19.4 9.25 19.3 9.05 19.2 8.4 18.9 7.85 18.6 8.5 18.7 9.1 18.8 9.95 18.9 10.9 19.1
L 13.15 19.75
Q 13.8 19.85 15.85 20.05 16.5 20.1 17.2 20.15 19.5 20.25 20.55 20.05 20.7 20.05 20.8 20
L 20.75 20
Q 21 19.95 21.25 19.9
L 22 19.75
Q 22.75 19.65 24.25 19.6 25.1 19.45 26.7 18.95 26.9 18.9 27.5 18.85 28.05 18.75 29.1 18.55 29.6 18.45 30.35 18.2 31.25 17.95 32.35 17.45 35.7 16.1 38.25 14.95 40.55 13.85 42.2 12.95 42.8 12.6 43.4 12.3 44.35 11.7 44.6 11.35 45.2 10.55 44.6 9.95
M 47.7 17.85
Q 48.05 17.95 48.3 18.05 49.65 18.6 50.45 19.25
L 50.5 19.3
Q 51.4 20.15 51.5 20.8 51.65 21.7 50.75 22.5 49.2 24.1 45.25 23.65 44.75 23.6 44.25 23.5 43 23.3 41.75 23.1
L 41.7 23.1 41.65 23.05
Q 41.626953125 23.05 41.6 23.05 41.45 23 41.35 23 41.4 22.95 41.45 22.95 41.7 22.75 41.95 22.6 44.6 20.95 46 19.65 47 18.85 47.7 17.85
M 45.75 30.3
Q 45.9 30.5 46.1 30.7 46.35 30.95 46.6 31.25 46.6 31.3 46.65 31.3
L 46.65 31.35
Q 46.05 31.8 44.3 31.9 43.65 31.9 43.25 31.85 42.7 31.6 42.35 31.45 42.25 31.35 42.2 31.35
L 40.4 30.2
Q 38.5 28.9 38.1 28 38.5 27.85 39 28 39.3 28.05 39.9 28.35
L 42.75 29
Q 44.15 29.4 44.8 29.75 45.3 30 45.75 30.3
M 42.65 26.35
Q 42.65 26.5 42.65 26.65 42.15 26.55 41.65 26.45 39.3 25.9 38 25.35 37.25 25.05 36.75 24.95 36.95 24.9 37.2 24.85 38.15 25.15 38.4 25.25 40.7 25.9 42.65 26.35
M 8.3 22.35
Q 7.35 22.6 6.7 22.75 3.15 23.55 0.25 23.4 -0.3 22.5 -0.15 21.4 0.05 20.3 0.85 19.45 1.55 18.75 2.6 18.2 4.4 19.95 8.3 22.35
M 17.55 27.3
Q 18.65 26.9 19.6 26.6 20.8 26.75 21.8 26.85 20.3 28.6 19.15 29.65 18.05 30.65 16.85 31.3 15.8 31.95 14.75 32.3 14.7 32.3 14.6 32.3 14.55 32.3 14.45 32.35 12.9 32.85 10.9 32.9 9.65 32.95 7.2 32.85
L 3.2 32.7
Q 2.9 32.7 2.6 32.55 2.3 32.15 2.85 31.7 4 30.6 6.35 29.9 8.3 29.35 12.3 28.85 12.55 28.8 12.9 28.75 14.55 28.35 17.55 27.3
M 18.35 36.1
Q 17.85 35.6 17.65 34.8 17.6 34.5 17.6 34.3 20.4 32.8 22.6 29.9 23.5 28.8 24.55 27 27.1 27 30.1 26.5 32 26.15 35.65 25.25 35.3 25.5 35.45 26.05 35.45 26.45 35.55 27.05
L 35.55 27.1
Q 32 27.75 29.6 30.5 27.15 33.25 27.5 36.5 24.35 37.15 21.05 37 19.1 36.9 18.35 36.1 Z"/>

<path fill="#929274" stroke="none" d="
M 17.65 34.8
Q 17.85 35.6 18.35 36.1 19.1 36.9 21.05 37 24.35 37.15 27.5 36.5 27.15 33.25 29.6 30.5 32 27.75 35.55 27.1
L 35.55 27.05
Q 35.45 26.45 35.45 26.05 35.3 25.5 35.65 25.25 32 26.15 30.1 26.5 27.1 27 24.55 27 23.5 28.8 22.6 29.9 20.4 32.8 17.6 34.3 17.6 34.5 17.65 34.8
M 12.9 28.75
Q 12.55 28.8 12.3 28.85 8.3 29.35 6.35 29.9 4 30.6 2.85 31.7 2.3 32.15 2.6 32.55 2.9 32.7 3.2 32.7
L 7.2 32.85
Q 9.65 32.95 10.9 32.9 12.9 32.85 14.45 32.35 14.55 32.3 14.6 32.3 14.7 32.3 14.75 32.3 15.8 31.95 16.85 31.3 17.1 31.15 17.35 31 14.6 30.95 11.95 30.1
L 12.9 28.75
M 6.7 22.75
Q 7.35 22.6 8.3 22.35 4.4 19.95 2.6 18.2 1.55 18.75 0.85 19.45 0.05 20.3 -0.15 21.4 -0.3 22.5 0.25 23.4 3.15 23.55 6.7 22.75
M 42.65 26.65
Q 42.65 26.5 42.65 26.35 40.7 25.9 38.4 25.25 38.15 25.15 37.2 24.85 36.95 24.9 36.75 24.95 37.25 25.05 38 25.35 39.3 25.9 41.65 26.45 42.15 26.55 42.65 26.65
M 46.1 30.7
Q 45.9 30.5 45.75 30.3 45.3 30.25 45.05 30.2 43.7 30 43.25 30.1 42.7 30.3 42.45 30.9 42.35 31.15 42.35 31.45 42.7 31.6 43.25 31.85 43.65 31.9 44.3 31.9 46.05 31.8 46.65 31.35
L 46.65 31.3
Q 46.6 31.3 46.6 31.25 46.35 30.95 46.1 30.7
M 50.5 19.3
L 50.45 19.25
Q 49.65 18.6 48.3 18.05 47.8 21.05 45.25 23.65 49.2 24.1 50.75 22.5 51.65 21.7 51.5 20.8 51.4 20.15 50.5 19.3
M 41.6 23.05
Q 41.626953125 23.05 41.65 23.05
L 41.45 22.95
Q 41.4 22.95 41.35 23 41.45 23 41.6 23.05 Z"/>

<path fill="#D7D7C5" stroke="none" d="
M 19.6 26.6
Q 18.65 26.9 17.55 27.3 14.55 28.35 12.9 28.75
L 11.95 30.1
Q 14.6 30.95 17.35 31 17.1 31.15 16.85 31.3 18.05 30.65 19.15 29.65 20.3 28.6 21.8 26.85 20.8 26.75 19.6 26.6
M 43.25 30.1
Q 43.7 30 45.05 30.2 45.3 30.25 45.75 30.3 45.3 30 44.8 29.75 44.15 29.4 42.75 29
L 39.9 28.35
Q 39.3 28.05 39 28 38.5 27.85 38.1 28 38.5 28.9 40.4 30.2
L 42.2 31.35
Q 42.25 31.35 42.35 31.45 42.35 31.15 42.45 30.9 42.7 30.3 43.25 30.1
M 48.3 18.05
Q 48.05 17.95 47.7 17.85 47 18.85 46 19.65 44.6 20.95 41.95 22.6 41.7 22.75 41.45 22.95
L 41.65 23.05 41.7 23.1 41.75 23.1
Q 43 23.3 44.25 23.5 44.75 23.6 45.25 23.65 47.8 21.05 48.3 18.05 Z"/>

<path fill="#CC66FF" stroke="none" d="
M 22.3 20
Q 21.5 20.05 20.8 20 20.7 20.05 20.55 20.05 19.5 20.25 17.2 20.15 16.5 20.1 15.85 20.05 13.8 19.85 13.15 19.75
L 10.9 19.1
Q 9.95 18.9 9.1 18.8 8.5 18.7 7.85 18.6 8.4 18.9 9.05 19.2 9.25 19.3 9.45 19.4 10.1 19.75 10.65 20 11.9 20.55 12.9 20.95 13.75 21.3 14.45 21.5 15.25 21.8 17.9 22.4 18.05 22.4 18.1 22.45 20.3 22.8 22.3 22.95 23.75 23.05 25.05 22.95
L 25.1 22.95
Q 25.65 22.95 27.15 22.65 27.75 22.45 28.45 22.2 30.05 21.5 32.15 20.45 32.95 20.05 33.9 19.55 34.2 19.4 34.5 19.25
L 22.3 20
M 27.7 15.95
Q 27.95 15.9 28.2 15.85 24.35 16 19.2 15.1 17.7 14.85 16.6 14.7 14.45 14.25 13.75 14.2 12.95 14.1 12.4 13.9
L 12.35 13.9
Q 11.1828125 13.846875 9.85 13.6 6.6 12.9 2.4 11 0.25 10.1 -1.2 9.3 -1.6 10.35 -1.25 11.05 -1.05 11.4 0.3 12.45 1.1 13 2.15 14.2 2.65 14.8 3.1 15.2 3.65 15.85 3.9 16.05 3.95 16.1 4.1 16.2 4.25 16.1 4.5 16.15 5.05 16.2 6.05 16.7 6.35 16.8 6.8 16.9 7.5 17 8.5 17.05 9.05 17.1 9.55 17.15 10.4 17.2 10.9 17.35 11.5 17.5 12.55 18 13.7 18.35 15.6 18.25 16.3 18.2 17.1 18.15 19.9 17.85 23.65 17 25.55 16.55 27.7 15.95
M 40.7 5.1
Q 40.9 5 41.4 4.7 39.9 4.4 37.6 4.35 32.95 6.1 28.15 7.5 25.3 8.35 23.8 8.6 20.7 9.3 16.75 9.5 14.3 9.6 9.55 9.6 11.1 10.2 13.8 10.25 17.85 10.35 18.3 10.4 18.5 10.45 19.9 10.7 20.4 10.75 21 10.85 22.6 11.15 23.75 11.1 25.65 11.05 29.1 9.75
L 35.95 7.15
Q 39.4 5.75 40.7 5.1 Z"/>

<path fill="#71368A" stroke="none" d="
M 44.15 9.65
Q 44.35 9.75 44.6 9.95 45.2 10.55 44.6 11.35 44.35 11.7 43.4 12.3 42.8 12.6 42.2 12.95 40.55 13.85 38.25 14.95 35.7 16.1 32.35 17.45 31.25 17.95 30.35 18.2 29.6 18.45 29.1 18.55 28.05 18.75 27.5 18.85 26.9 18.9 26.7 18.95 25.1 19.45 24.25 19.6 22.75 19.65 22 19.75
L 21.25 19.9
Q 21 19.95 20.75 20
L 20.8 20
Q 21.5 20.05 22.3 20
L 34.5 19.25
Q 34.2 19.4 33.9 19.55 32.95 20.05 32.15 20.45 30.05 21.5 28.45 22.2 27.75 22.45 27.15 22.65 27.95 22.55 29.05 22.35 29.95 22.2 31.05 22 32.9 21.55 34.25 21.2 35.5 20.85 36.3 20.6 36.7 20.45 36.95 20.35 40.15 19.05 42.35 16.9 42.6 16.65 42.9 16.3 43.5 15.55 44.5 14.25 44.7 14 44.85 13.8 46.05 11.9 46.1 10.6 46.1 9.5 45.6 8.15 44.85 8.9 44.15 9.65
M 43.5 5.4
Q 42.8 5.1 41.75 4.75 41.6 4.7 41.4 4.7 40.9 5 40.7 5.1 39.4 5.75 35.95 7.15
L 29.1 9.75
Q 25.65 11.05 23.75 11.1 22.6 11.15 21 10.85 20.4 10.75 19.9 10.7 18.5 10.45 18.3 10.4 17.85 10.35 13.8 10.25 11.1 10.2 9.55 9.6 14.3 9.6 16.75 9.5 20.7 9.3 23.8 8.6 25.3 8.35 28.15 7.5 32.95 6.1 37.6 4.35 37.1 4.3 36.55 4.3 32.55 4.3 31.3 4.15 29.1 3.9 28.7 3.9 27.9 3.9 26.15 4.1
L 22.85 4.35
Q 13.15 4.8 2.8 4.4 2.45 4.8 2.55 6.2 2.55 7.35 1.9 7.7 1.6 7.9 0.85 8.05 0.05 8.1 -0.25 8.25 -0.8 8.5 -1.2 9.3 0.25 10.1 2.4 11 6.6 12.9 9.85 13.6 11.1828125 13.846875 12.35 13.9 12.2919921875 13.8919921875 12.25 13.85 11.9 13.55 11.6 13.4 11.35 13.2 11.15 13.1 10.65 12.85 9.35 12.8 8.1 12.75 7.55 12.45 7.1 12.15 6.75 11.6
L 5.05 9.55
Q 5.8 9.55 6.2 9.5 6.25 10.1 6.95 10.6 7.55 10.95 8.4 11.05 8.8 11.1 10.05 11.1 10.95 11.1 11.6 11.25 12.3 11.4 13.75 11.9 14.05 12 16 12.2 16.35 12.2 16.85 12.3
L 22.25 12.9
Q 26.7 13.25 30.8 12.35 33.15 11.75 35.4 10.85 36.45 10.4 37.5 9.8 41.05 7.95 43.5 5.4 Z"/>
</g>

<g id="Bone_Archer_Head_1_Layer3_0_FILL">
<path fill="#000000" stroke="none" d="
M 16.5 29.35
Q 18.5 28.65 18.9 27.4 18.5 26.3 17.2 26.05 16.65 25.95 15.1 26.15
L 11.05 26.8 11.1 27.9 10.25 27.35 -2.15 50.25
Q -2.5 51.05 -2.95 51.7 -3.25 51.45 -3.65 51.4 -4.45 51.4 -5.25 52.15 -6.1 52.85 -6.9 53.55 -9.3 55.55 -11.1 57.6 -12.9 59.5 -13.65 60 -14.9 60.65 -17.55 61.65 -20.15 62.95 -21.7 65.35 -22.45 66.3 -23.25 68.1 -23.65 69 -24.5 71.05 -26.4 75.65 -29.5 79.75 -29.8 80.15 -30.2 80.85 -30.65 81.5 -30.75 82.1 -30.95 82.75 -30.75 83.45 -30.45 84.1 -29.95 84.35 -29.4 84.6 -28.2 84.3 -23.35 83.3 -19.95 82.6
L -17 82
Q -15.3 81.6 -14.55 82.25 -14.15 82.6 -14.05 83.3 -14 83.45 -14 84.6 -13.9 86.05 -13.35 88.85 -13.15 90.25 -13.35 92.3 -13.45 93.45 -13.7 95.75 -13.95 97.5 -13.25 98.15 -12.7 98.5 -12.05 98.55 -11.4 98.65 -10.8 98.25 -10.05 97.8 -9.1 96.3 -8.15 94.65 -6.1 89.9
L -3 82.75
Q -1.15 78.3 0.45 76.45 1.5 75.35 1.95 74.75 2.75 73.75 2.8 72.7 2.8 72.2 2.4 70.75 1.7 68.5 1.2 63.45 1 60.8 0.6 58.85 0.3 57.3 -0.1 56.25
L 0.1 56
Q 2.2802734375 52.12578125 4.35 48.2 4.3947265625 48.3091796875 4.45 48.4 4.75 48.95 4.8 49.85 5 51.05 5 51.35 5.05 51.55 5.55 52.8 5.85 53.6 5.85 54.15 5.95 54.7 5.9 55.8 6.05 56.4 6.25 56.75
L 5.2 58.7 9.75 59.5
Q 10.05 58.95 10.65 58 10.95 57.3 11.3 56.1 12.1 56.1 13.1 55.9 15.65 55.5 16.15 55.45 17.15 55.45 19.25 55.5 19.3544921875 55.5 19.45 55.5
L 12.7 60.2
Q 12.6140625 60.2390625 12.5 60.25
L 12.55 60.75 8.05 59.4
Q 8.1 60 8.2 61.05
L 9.35 64.9 9.6 65 9.4 65.45 11.1 71.3
Q 11.3 71.95 11.45 72.5 11.75 73.6 12 74.25 12.15 74.7 12.35 75.1 12.35 75.2 12.4 75.35 11.55 76 11.05 77.35 11 77.55 10.05 80.45 9.65 81.8 8.1 85.4 7.2 87.35 6.95 88.95 6.8 90.05 7.05 91.5 7.15 92.05 7.6 94
L 8.35 96.6
Q 8.95 99.05 9.15 100.65 9.15 101.3 9.15 102.5 9.15 103.65 9.35 104.4 9.6 105.15 10.2 106.5 10.35 107.2 10.4 108.9 10.35 110.4 10.95 111.25 11.4 111.75 11.95 111.95 12.65 112.2 13.15 111.95 13.85 111.55 14.3 110.25
L 18.25 97.95
Q 18.5 97.05 18.95 97.2 19.25 97.15 19.45 97.55 19.55 97.8 19.75 98.25 19.95 98.55 20.4 98.8 20.6 98.95 21.2 99.15 22.05 99.65 22.95 101.05 25.7 104.55 30.15 109.7 30.95 110.55 31.4 110.85 32.25 111.4 33.15 111.05 33.8 110.5 34.05 108.7 34.05 106.35 33.75 105.3 33.2 104.25 33.1 103.8 33.15 102.65 33.05 102.05 33 101.5 32.5 100.65 31.95 99.6 31.85 99.3 31.7 98.65 31.6 97.5 31.55 96.2 31.4 95.7 30.95 94.25 30.75 93.55 30.4 92.35 30.35 90.6 30.35 88.7 30.35 87.65 30.25 86.15 29.85 85.6 29.4 85.1 28.7 84.65 27.75 84.3 27.3 84.1 26.1 83.5 23.8 81.15 21.8 79 20.2 78.5 20.15 77.95 19.7 77.4 19.4 77.1 18.95 76.75 18.2 76.1 17.55 75.65 17.45 75 16.95 73.95 16.5 72.65 16.4 72.1
L 16 69.85
Q 15.8 68.7 15.2 66.8 15 65.95 14.65 65 14.625 64.944921875 14.6 64.9 15.66640625 64.3056640625 16.2 63.95 17.2 63.35 19.05 62.1
L 24.95 57.75
Q 27.05 55.8 26.5 53.8 26.25 52.7 25.35 52.45 24.3884765625 52.0654296875 23 53 23.3564453125 51.85 23.4 51.85 23.7 51.2 24.6 49.95 24.8 49.6 25 48.85 25.25 48.1 25.45 47.8 25.75 47.25 26.6 46.15 27.45 45.2 27.7 44.6 27.75 44.5 28 43.6 28.15 43 28.3 42.75 28.65 42.15 29.35 41.15 29.9 40.2 29.4 39.45 28.95 38.95 27.85 38.5 26.85 38.15 26.3 38.2 25.95 38.25 25.6 38.5 25.2 38.75 25 38.85 24.45 39.2 23.55 39.55 22.3 40 22.15 40.1 20.6 40.95 19.8 41.35 18.75 41.85 18.05 41.85 17.6 41.85 16.95 41.5 16.05 41 15.55 40.4 15.2 40 14.95 39.3 14.55 38.35 14.45 38.2 14.25 37.8 13.7 37.1 13.2 36.4 12.95 36 12.6 35.4 12.25 34.5 12.1150390625 34.050390625 11.75 33.2 11.914453125 32.9435546875 12.05 32.65
L 13.1 30.3 13.75 30.15
Q 15.5 29.65 16.5 29.35
M 10 38.2
Q 10.05 38.1 10.05 38 10.95 39.1 12.35 41.55 13.602734375 43.328125 15.15 44.1 15.51640625 44.275390625 15.9 44.4 17.65 45 19.85 44.45 20.5017578125 44.2978515625 21.25 44 22.305859375 43.6220703125 23.55 43 23.6 43.05 23.7 43.1 24.05 43.45 23.55 44.05 20.95 47.8 19.05 52.1 15.1 52.1 11.45 53.25 10.95 53.5 10.55 53.55
L 10.5 53.55
Q 10.2 53.4 9.85 53.35 9.75 52.4 9.2 49.85 8.7 48 8.2 47.05 7.85 46.4 7.65 46.1 7.35 45.5 7.2 45.05 7 43.7 8.5 41.55 10 39.4 10 38.2
M 15 79.85
Q 15.05 79.85 15.15 79.9 15.75 80.15 16 80.65 16.15 80.65 16.35 80.55
L 24.8 87.2
Q 26.35 88.45 26.7 89.35 27 90.1 26.9 92 26.95 93.5 27.75 97.3
L 28.25 99.2 28.95 102.15
Q 24.25 97.25 20.45 93.45 19.5 92.65 18.95 92.55 18.05 92.6 17.25 93.8 15.1 96.9 13.05 103.25 13.35 98.8 12.2 94.65 12.2 94.35 12.15 94.1 11.75 92.85 11.6 92.25 11.35 91.15 11.35 90.4 11.4 89.35 12.25 86.95
L 15 79.85
M -6 58.6
Q -6.2 59 -6.95 60.55 -7.6 61.75 -7.75 62.5 -8.15 63.55 -7.85 64.6 -7.8 65.3 -7.45 65.65 -7.4 65.9 -7.2 66.05 -7 66.2 -6.8 66.35 -6.6 66.15 -6.35 65.9
L -6.4 65.85
Q -6.05 65.45 -5.7 65.15 -4.75 64.1 -3.95 62.9 -3.85 62.75 -3.8 62.6 -3.1 61.55 -2.45 60.35
L -1.55 71.3
Q -1.4 72.3 -1.55 72.75 -1.65 73 -2.2 74.05 -4 76.55 -5.35 79.35 -6.45 81.8 -7.65 84.45
L -8.4 86.5 -9.7 89.45 -10.25 83.55
Q -10.45 81.3 -10.9 80.5 -11.45 79.5 -12.3 78.7 -13.15 78.05 -14.3 78 -15.6 77.75 -18.15 78.4 -19.7 78.85 -23 79.75 -24.65 80.2 -25.25 79.65 -23.5 77.9 -21.45 72.9 -19.6 68.45 -17.7 66.65 -17.6 66.45 -17.4 66.25
L -17.35 66.25
Q -16.4 65.4 -14.4 64.4 -12.15 63.25 -11.4 62.65 -10.3 61.85 -8.45 59.7 -6.55 57.6 -5.4 56.8
L -5.25 56.7
Q -5.6 57.45 -6 58.6
M 5.2 -38.8
Q 4.55 -39.7 3.7 -39.95 2.5 -40.4 0.95 -39.55 -0.05 -39.05 -0.5 -38.25 -0.75 -37.75 -0.95 -36.3
L -1.35 -29.7
Q -1.55 -29 -1.6 -28.9 -1.95 -28.55 -3.05 -28.7 -6.45 -29.4 -9.4 -29.3
L -12.15 -29.25
Q -14.1 -29.05 -14.7 -29.05 -15.65 -28.95 -16.2 -29.05 -16.45 -29.1 -16.95 -29.3 -17.45 -29.5 -17.7 -29.5 -18.2 -29.6 -18.7 -29.25 -19.25 -28.9 -19.4 -28.4 -19.8 -27.35 -18.9 -26.1 -17.9 -24.55 -16 -23.05 -15.65 -22.75 -12.65 -20.55
L -8.6 -17.4
Q -6.95 -16.15 -6.15 -15.7 -5.25 -15.25 -4.8 -15.1 -4.1 -14.7 -3.65 -14.4 -2.4 -13.65 -0.95 -11.85 0.439453125 -10.1314453125 1.1 -9.35 1.1759765625 -9.0564453125 1.15 -8.9 1.2 -8.25 0.4 -7.65 -1.85 -5.9 -5.15 -6.05 -7.8 -6.2 -10.9 -7.55 -12.05 -8.1 -12.75 -8.2 -13.8 -8.45 -14.5 -7.9 -15.25 -7.45 -15.2 -6.4 -15.2 -5.5 -14.7 -4.7 -14.3 -4.15 -13.5 -3.4 -12.5 -2.7 -12.05 -2.35 -10.2 -1 -7.3 2.3 -4.25 5.65 -2.6 7.05 -2.1 7.45 -1.85 7.6 -1.35 7.95 -1.2 8.35 -1 8.65 -0.9 9.1 -0.7 9.7 -0.65 9.85 -0.1 11.35 1.85 12 2.85 12.35 5.1 12.55
L 7.7 12.85
Q 8.7 12.95 9.55 12.95 10.0091796875 12.923046875 10.45 12.9
L 10.7 19.4 18.8 20.35
Q 19.55 20.55 19.9 20.15 20.25 19.7 19.6 18.85 18.35 17.5 16.3 16.75 14.95 16.2 12.35 15.75
L 12.15 15.7
Q 12.15 15.6 12.15 15.4 12.1 14.7 11.55 13.95 11.33671875 13.4623046875 10.95 12.9 11.071875 12.9 11.2 12.9
L 12.65 14.5 17.15 8.95
Q 17.15 8.85 17.15 8.8 17.25 6.9 17.25 6.6 17.55 4.15 17.55 2.95 17.5 1.7 17.05 0.25 16.8294921875 -0.66875 16.55 -1.5 17.3490234375 -0.6400390625 18.15 0.2 19.25 1.5 20.15 1.15 20.55 1.05 20.75 0.65 20.95 0.3 20.9 -0.2 20.95 -0.85 20.45 -1.7 19.35 -3.95 16.6 -7.8 17.75 -9.05 18.2 -11.55 18.25 -12.35 18.45 -14.15 18.6 -15.65 18.95 -16.6 19.2 -17.15 19.65 -18.2 20.1 -19.1 20.05 -19.85 19.9 -20.85 18.55 -22.55
L 8.8 -33.7
Q 6.8 -35.95 6.25 -36.95 5.25 -38.75 5.2 -38.8
M 3.1 -34.3
Q 3.65 -33.45 4.65 -32.45 5.85 -31.3 6.3 -30.75
L 7.25 -29.8 7.4 -29.65
Q 7.45 -29.6 7.5 -29.55 7.6 -29.45 7.7 -29.35 9.3 -27.7 10.9 -25.7 13.4 -22.55 14.9 -21.1 15.9 -20 15.85 -19.35 15.85 -19.15 15.65 -18.7 15.5 -18.35 15.35 -18.15 14.9 -17.3 14.85 -15.95 14.9 -14.35 14.8 -13.6 14.35 -12.2 14.2 -11.2 12.55 -13.65 11.75 -15.35 10.95 -16.95 10.9 -17.1 10.35 -18.05 9.65 -18.65
L 9.6 -18.7
Q 9.25 -18.95 8.8 -19.05 8.25 -19.2 7.7 -19.1 6.5 -19 6.2 -18.1 6.186328125 -18.058984375 6.15 -18.05 5.81796875 -18.5033203125 5.4 -18.7 4.75 -18.9 3.75 -18.45 2.15 -17.65 1.95 -15.85 1.996484375 -15.0833984375 1.95 -14.5 1.546484375 -15.021484375 0.95 -15.85 0.1 -16.85 -1.75 -17.95 -4.1 -19.35 -4.65 -19.75
L -5.7 -20.65
Q -6.3 -21.15 -6.8 -21.4 -7.4 -21.85 -8.75 -22.45 -9.35 -22.8 -10.65 -24.05 -11.8 -25.2 -12.65 -25.6 -10.45 -26.1 -6.4 -25.55 -1.85 -24.9 0 -25.1 1.25 -25.2 1.7 -25.8 2.25 -26.3 2.35 -27.3 2.35 -27.8 2.25 -29.1 2 -31.8 3.1 -34.3
M 5.45 -12.7
Q 5.4630859375 -12.65234375 5.45 -12.6 5.6390625 -12.098046875 6.05 -11.55 6.727734375 -10.4658203125 7.85 -9.1 8.4052734375 -8.4591796875 9.05 -7.75 11.9 -4.65 12.7 -2.85 13.9 -0.55 14 3.35 13.95 6.5 13.6 9.3
L 10.6 5.35
Q 9.75 4.1 8.85 3.95 8.5 3.95 8.2 4 7.65 4.15 7.3 4.7 6.55 5.5 6.65 6.5 6.9 7.55 7.95 9 8.15 9.25 8.3 9.5 7.85 9.4 7.4 9.4 7.15 9.4 7 9.35 5.95 9.2 4.8 9.15 3.7 9.15 3.15 8.85 2.65 8.55 2.05 7.45 0.95 5.6 -2.7 2.3 -6.1 -0.85 -7.15 -3 -3.1 -2.4 0.85 -4 4 -5.4 4.5 -7.55 4.5275390625 -7.8255859375 4.55 -8.7 4.605078125 -9.3451171875 4.65 -10.4 4.6037109375 -11.883203125 5.3 -12.6 5.3880859375 -12.6490234375 5.45 -12.7
M 30.75 -47.65
Q 30.45 -46.9 30.75 -45.2 30.85 -44.35 32 -36.4 32.55 -33.25 32.6 -31.7 32.95 -27.9 32.25 -25.3
L 31.9 -23.9
Q 31.75 -23.05 31.85 -22.45 32.05 -21.5 33.1 -20.6 34.45 -19.65 35 -19.1 35.65 -18.6 36.65 -17.2 37.6 -16.1 38.3 -15.5 39.3 -14.7 39.7 -14.25 40 -13.9 40.35 -13.35 40.5 -12.95 40.65 -12.7
L 40.45 -8.55 40.7 -5.65
Q 40.8 -4.2 40.75 -0.3
L 40.7 2.8
Q 40.45 11.3 40.15 14.65 39.9 18.1 39.9 19.5 39.95 22.15 40.8 24.1 41.3 25.2 41.95 25.15 42.55 25 42.95 23.95 43.3 23.1 43.65 21.3 44.25 18.35 44.55 14.7 44.7 12.3 44.8 7.95
L 45.1 -0.85
Q 45.25 -2.45 45.1 -4.1
L 45.05 -7.6
Q 44.9 -8.85 44.9 -10.3 45.55 -10.75 46.3 -11.45 48 -13.15 48.7 -14.05
L 50.15 -16.4
Q 51.45 -18.25 53.45 -19.75 55.55 -21 56.1 -21.75 56.95 -23 57.1 -25.7 57.25 -27.7 57.3 -31.8 57.35 -35.25 57.8 -37.7 58.3 -40.25 57.25 -41.1 56.75 -41.45 56.1 -41.35 55.4 -41.35 54.85 -41 54.35 -40.7 52.95 -39.35 51 -37.65 46.55 -36.05 45.65 -35.6 44.8 -35.55 42.45 -35.35 39.85 -39
L 33.75 -47.65
Q 33.15 -48.65 32.55 -48.8 32 -48.95 31.4 -48.55 30.95 -48.2 30.75 -47.65
M 34.7 -40.9
Q 35.55 -40 36.8 -38.2 38.15 -36.3 38.9 -35.5 41.7 -32.3 44.8 -32.4 46.15 -32.45 48.5 -33.65
L 50.55 -34.65 50.55 -34.65 54.45 -36.55 54.35 -28.35
Q 54.35 -27 54.2 -26.3 54.05 -25.15 53.6 -24.35 53.05 -23.5 52.15 -22.75 50.95 -21.95 50.4 -21.6 48.15 -19.95 45.95 -17.1 45.45 -16.4 44.95 -15.65
L 45 -16.8
Q 44.9 -18.5 44.65 -19.2 44.35 -19.75 44 -20.1 43.9 -20.2 43.8 -20.2 43.3 -20.55 42.75 -20.5 42.155859375 -20.462890625 41.7 -20.05
L 41.75 -20.05
Q 41.6986328125 -20.02421875 41.65 -20 41.5408203125 -19.8771484375 41.45 -19.75
L 41.2 -19.3
Q 40.95 -18.75 40.85 -17.75 40.45 -18.2 39.95 -18.7 37.5 -21.15 37.15 -21.65 37 -21.75 36.85 -21.95 36.85 -22 36.85 -22.05 36.75 -22.05 36.75 -22.1 36.7 -22.15 36.7 -22.2
L 35.7 -24.05
Q 35.6498046875 -24.1669921875 35.6 -24.3
L 35.6 -24.35
Q 35.48671875 -24.6830078125 35.45 -25.05 35.3 -26.1 35.6 -27.7 36 -29.8 36.05 -30.3 36.1 -31.9 35.15 -35.55 34.4 -39 34.7 -40.9 Z"/>

<path fill="#71368A" stroke="none" d="
M -3.8 62.6
Q -3.85 62.75 -3.95 62.9 -4.75 64.1 -5.7 65.15 -6.05 65.45 -6.4 65.85
L -6.35 65.9 -8.4 86.5 -7.65 84.45
Q -6.45 81.8 -5.35 79.35 -4 76.55 -2.2 74.05 -1.65 73 -1.55 72.75 -1.4 72.3 -1.55 71.3
L -2.45 60.35
Q -3.1 61.55 -3.8 62.6
M -6.95 60.55
Q -6.2 59 -6 58.6 -5.6 57.45 -5.25 56.7
L -5.4 56.8
Q -6.55 57.6 -8.45 59.7 -10.3 61.85 -11.4 62.65 -12.15 63.25 -14.4 64.4 -16.4 65.4 -17.35 66.25
L -17.4 66.25
Q -17.6 66.45 -17.7 66.65 -17.35 66.6 -16.85 66.7 -11.95 67.15 -7.2 66.05 -7.4 65.9 -7.45 65.65 -7.8 65.3 -7.85 64.6 -8.15 63.55 -7.75 62.5 -7.6 61.75 -6.95 60.55
M 15.15 79.9
Q 15.05 79.85 15 79.85
L 12.25 86.95
Q 11.4 89.35 11.35 90.4 11.35 91.15 11.6 92.25 11.75 92.85 12.15 94.1 12.2 94.35 12.2 94.65 15 90.35 17.3 85.95 22.2 92.85 24.95 95.75 26.15 97 28.25 99.2
L 27.75 97.3
Q 26.95 93.5 26.9 92 27 90.1 26.7 89.35 26.35 88.45 24.8 87.2
L 16.35 80.55
Q 16.15 80.65 16 80.65 15.75 80.15 15.15 79.9
M 7.65 46.1
Q 7.85 46.4 8.2 47.05 8.7 48 9.2 49.85 9.75 52.4 9.85 53.35 10.2 53.4 10.5 53.55
L 10.55 53.55
Q 10.95 53.5 11.45 53.25 15.1 52.1 19.05 52.1 20.95 47.8 23.55 44.05 24.05 43.45 23.7 43.1 23.5 43.25 23.4 43.4 22.37421875 44.184375 21.55 44.8 19.637890625 46.2111328125 18.8 46.7 16.255859375 48.15390625 14.85 49 14.519140625 49.226953125 14.25 49.4 14.184375 49.2958984375 14.1 49.2 12.998046875 47.3640625 12.05 45 11.8505859375 44.458203125 11.65 43.9 11.35 42.9 10 38.2 10 39.4 8.5 41.55 7 43.7 7.2 45.05 7.35 45.5 7.65 46.1
M 7 9.35
Q 7.15 9.4 7.4 9.4 7.85 9.4 8.3 9.5 8.15 9.25 7.95 9 7.8 9.05 7.7 9.05 7.3 9.25 7 9.35
M 7.85 -9.1
Q 6.727734375 -10.4658203125 6.05 -11.55 5.9927734375 -10.262109375 6.05 -9.05 6.1216796875 -8.1552734375 6.25 -7.3 6.45 -5.45 7.35 -1.75 7.65 -0.45 7.85 2.35 8 3.2 8.2 4 8.5 3.95 8.85 3.95 9.75 4.1 10.6 5.35
L 13.6 9.3
Q 13.95 6.5 14 3.35 13.9 -0.55 12.7 -2.85 11.9 -4.65 9.05 -7.75 8.4052734375 -8.4591796875 7.85 -9.1
M 7.7 -29.35
Q 7.6 -29.45 7.5 -29.55 7.45 -29.6 7.4 -29.65
L 7.25 -29.8
Q 8.2 -24.5 8.8 -19.05 9.25 -18.95 9.6 -18.7
L 9.65 -18.65
Q 10.35 -18.05 10.9 -17.1 10.95 -16.95 11.75 -15.35 12.55 -13.65 14.2 -11.2 14.35 -12.2 14.8 -13.6 14.9 -14.35 14.85 -15.95 14.9 -17.3 15.35 -18.15 15.5 -18.35 15.65 -18.7 15.85 -19.15 15.85 -19.35 15.9 -20 14.9 -21.1 13.4 -22.55 10.9 -25.7 9.3 -27.7 7.7 -29.35
M 50 -33.4
L 48.15 -29.05
Q 46.8 -25.65 46.05 -24 45.05 -21.75 44 -20.1 44.35 -19.75 44.65 -19.2 44.9 -18.5 45 -16.8
L 44.95 -15.65
Q 45.45 -16.4 45.95 -17.1 48.15 -19.95 50.4 -21.6 50.95 -21.95 52.15 -22.75 53.05 -23.5 53.6 -24.35 54.05 -25.15 54.2 -26.3 54.35 -27 54.35 -28.35
L 54.45 -36.55 50.55 -34.65 50.55 -34.65
Q 50.2451171875 -34.086328125 50 -33.4
M 35.6 -24.35
L 35.6 -24.3
Q 35.6498046875 -24.1669921875 35.7 -24.05
L 36.7 -22.2
Q 36.7 -22.15 36.75 -22.1 36.75 -22.05 36.85 -22.05 36.85 -22 36.85 -21.95 37 -21.75 37.15 -21.65 37.5 -21.15 39.95 -18.7 40.45 -18.2 40.85 -17.75 40.95 -18.75 41.2 -19.3
L 41.45 -19.75
Q 41.5408203125 -19.8771484375 41.65 -20 41.6986328125 -20.02421875 41.75 -20.05
L 41.7 -20.05
Q 41.2927734375 -20.358984375 40.9 -20.85 39 -22.7 38.65 -22.95 37.9 -23.5 36.7 -24.15 36 -24.5 35.55 -24.7 35.55 -24.5171875 35.6 -24.35 Z"/>

<path fill="#CC66FF" stroke="none" d="
M -16.85 66.7
Q -17.35 66.6 -17.7 66.65 -19.6 68.45 -21.45 72.9 -23.5 77.9 -25.25 79.65 -24.65 80.2 -23 79.75 -19.7 78.85 -18.15 78.4 -15.6 77.75 -14.3 78 -13.15 78.05 -12.3 78.7 -11.45 79.5 -10.9 80.5 -10.45 81.3 -10.25 83.55
L -9.7 89.45 -8.4 86.5 -6.35 65.9
Q -6.6 66.15 -6.8 66.35 -7 66.2 -7.2 66.05 -11.95 67.15 -16.85 66.7
M 17.25 93.8
Q 18.05 92.6 18.95 92.55 19.5 92.65 20.45 93.45 24.25 97.25 28.95 102.15
L 28.25 99.2
Q 26.15 97 24.95 95.75 22.2 92.85 17.3 85.95 15 90.35 12.2 94.65 13.35 98.8 13.05 103.25 15.1 96.9 17.25 93.8
M 10.05 38
Q 10.05 38.1 10 38.2 11.35 42.9 11.65 43.9 11.8505859375 44.458203125 12.05 45 12.998046875 47.3640625 14.1 49.2 14.184375 49.2958984375 14.25 49.4 14.519140625 49.226953125 14.85 49 16.255859375 48.15390625 18.8 46.7 19.637890625 46.2111328125 21.55 44.8 22.37421875 44.184375 23.4 43.4 23.5 43.25 23.7 43.1 23.6 43.05 23.55 43 22.305859375 43.6220703125 21.25 44 20.5017578125 44.2978515625 19.85 44.45 17.65 45 15.9 44.4 15.51640625 44.275390625 15.15 44.1 13.602734375 43.328125 12.35 41.55 10.95 39.1 10.05 38
M 5.45 -12.6
Q 5.4630859375 -12.65234375 5.45 -12.7 5.3880859375 -12.6490234375 5.3 -12.6 4.6037109375 -11.883203125 4.65 -10.4 4.605078125 -9.3451171875 4.55 -8.7 4.5275390625 -7.8255859375 4.5 -7.55 4 -5.4 0.85 -4 -3.1 -2.4 -7.15 -3 -6.1 -0.85 -2.7 2.3 0.95 5.6 2.05 7.45 2.65 8.55 3.15 8.85 3.7 9.15 4.8 9.15 5.95 9.2 7 9.35 7.3 9.25 7.7 9.05 7.8 9.05 7.95 9 6.9 7.55 6.65 6.5 6.55 5.5 7.3 4.7 7.65 4.15 8.2 4 8 3.2 7.85 2.35 7.65 -0.45 7.35 -1.75 6.45 -5.45 6.25 -7.3 6.1216796875 -8.1552734375 6.05 -9.05 5.9927734375 -10.262109375 6.05 -11.55 5.6390625 -12.098046875 5.45 -12.6
M 4.65 -32.45
Q 3.65 -33.45 3.1 -34.3 2 -31.8 2.25 -29.1 2.35 -27.8 2.35 -27.3 2.25 -26.3 1.7 -25.8 1.25 -25.2 0 -25.1 -1.85 -24.9 -6.4 -25.55 -10.45 -26.1 -12.65 -25.6 -11.8 -25.2 -10.65 -24.05 -9.35 -22.8 -8.75 -22.45 -7.4 -21.85 -6.8 -21.4 -6.3 -21.15 -5.7 -20.65
L -4.65 -19.75
Q -4.1 -19.35 -1.75 -17.95 0.1 -16.85 0.95 -15.85 1.546484375 -15.021484375 1.95 -14.5 1.996484375 -15.0833984375 1.95 -15.85 2.15 -17.65 3.75 -18.45 4.75 -18.9 5.4 -18.7 5.81796875 -18.5033203125 6.15 -18.05 6.186328125 -18.058984375 6.2 -18.1 6.5 -19 7.7 -19.1 8.25 -19.2 8.8 -19.05 8.2 -24.5 7.25 -29.8
L 6.3 -30.75
Q 5.85 -31.3 4.65 -32.45
M 36.8 -38.2
Q 35.55 -40 34.7 -40.9 34.4 -39 35.15 -35.55 36.1 -31.9 36.05 -30.3 36 -29.8 35.6 -27.7 35.3 -26.1 35.45 -25.05 35.48671875 -24.6830078125 35.6 -24.35 35.55 -24.5171875 35.55 -24.7 36 -24.5 36.7 -24.15 37.9 -23.5 38.65 -22.95 39 -22.7 40.9 -20.85 41.2927734375 -20.358984375 41.7 -20.05 42.155859375 -20.462890625 42.75 -20.5 43.3 -20.55 43.8 -20.2 43.9 -20.2 44 -20.1 45.05 -21.75 46.05 -24 46.8 -25.65 48.15 -29.05
L 50 -33.4
Q 50.2451171875 -34.086328125 50.55 -34.65
L 48.5 -33.65
Q 46.15 -32.45 44.8 -32.4 41.7 -32.3 38.9 -35.5 38.15 -36.3 36.8 -38.2 Z"/>
</g>

<g id="Bone_Archer_Head_1_Layer2_0_FILL">
<path fill="#000000" stroke="none" d="
M 86.9 64.75
Q 86.75 63.75 86.5 63.25 85.8 61.4 84.15 60.1 82.65 58.8 80.75 58.45 78.8 58.1 76.9 58.75 74.95 59.4 73.75 60.8 70.85 58.2 66.2 57.5 63.3 57 58.1 57.3 55.5 57.4 54.5 58.35 54.25 58.7 53.95 58.85 53.7 59.1 53.4 59.15 53 59.2 52.3 58.8 46.7 55.6 40.4 56.45 36.8 56.9 34.75 58.7 32.7 60.65 32 64.05
L 32 74.4
Q 32.0046875 74.24375 32.15 74.05
L 32.15 74.85
Q 32.3 76.8 32.4 77.7 32.7 79.25 33.5 80.2 34.2 81.3 36.4 82.3 40.95 84.25 48.05 84.45 52.05 84.6 60.15 84.6 61.25 84.65 64.7 84.95 67.4 85.2 69.2 85.25 73.3 85.3 78.55 84.4 82.65 83.7 84.7 82.15 86.1 81.05 86.75 79.4 86.89765625 79.44921875 86.9 79.55
L 86.9 64.75
M 84.3 65.1
Q 84.3 65.85 84.3 66.9 84.3 68.55 84.45 71.9 84.6 74.8 83.75 76.7 83.2 78.2 82.25 78.8 81.4 79.3 79.2 79.4 78.4 79.5 76.5 79.75 74.7 80.05 73.75 80.1 71.25 80.3 67.55 79.8 63.3 79.15 61.25 78.95 60.85 78.9 60.15 78.9 59.3 78.85 58.5 78.85 57.7 78.85 56.7 78.85 54.1 78.8 50 78.85 43 78.95 38.75 77.8 36.7 77.3 35.85 76.2 35.05 75.05 35.3 73.1 35.85 70.95 36 69.9 36.25 68.9 36.25 65.75 36.4 64.35 36.8 63.6 37.35 62.55 39.3 61.75 42.85 60.5 46.4 60.55 49.05 60.55 49.45 60.45 51.1 60 51.5 60.7 51.75 61.15 51.5 62.05 51.2 63.8 51.5 65.6 51.9 67.45 52.85 68.9 53.3 69.35 53.4 69.4 53.95 69.4 54.25 68.7 55.05 67.2 55.5 65.45 55.6 64.2 55.9 63.85 56.45 63.15 58.1 62.85
L 62.9 62.2 63.3 62.15 63.15 62.15 64.15 62.05
Q 64.4 62 64.8 61.95 67.15 61.6 69.5 61.3 70.7 61.1 71.4 61.55 71.8 61.95 72.1 63.05 72.65 65.35 72.65 67.35 72.5 67.9 72.75 68.3 73.05 68.8 73.3 68.75 73.75 68.7 74 68.05 74.55 67.95 74.95 67.15 75.25 66.1 75.4 65.6 76.2 63.95 78.65 63.55 79.2 63.5 79.65 63.5 81.15 63.45 82.65 64 83.35 64.25 83.9 64.65 84.15 64.85 84.3 65.05
L 84.3 65.1 Z"/>

<path fill="#D7D7C5" stroke="none" d="
M 66.75 62.45
Q 64.4 62.05 63.3 62.15
L 62.9 62.2
Q 60.95 62.5 60 63.75 58.9 65 58.75 68 58.65 69.8 58.5 71.35 58.65 71.7 58.65 72.1 59.3 75.2 60.55 76.3 61.95 77.65 64.95 77.45 67.15 77.3 68.5 76.45 68.5 76.25 68.5 76.05
L 68.5 64.4
Q 68.5 63.45 68.25 63.05 67.85 62.55 66.75 62.45
M 83.6 73.5
Q 83.75 72.45 83.9 68.65
L 83.9 64.65
Q 83.35 64.25 82.65 64 81.15 63.45 79.65 63.5 79.1 63.85 78.65 64.4 76.75 66.55 76.6 70.2 76.5 72.3 77.05 76.5 77.05 77.4 77.45 77.75 77.7 78 78.25 78.2 79.35 78.55 80.2 78.5 81.55 78.35 82.65 76.65 83.35 75.5 83.6 73.5
M 40.95 66.1
L 40.95 73.45
Q 40.95 74.3 41.05 74.65 41.35 75.3 42.6 75.7 45.2 76.45 47.8 76.45 48.9 76.45 49.3 76 49.6 75.6 49.45 74.6 49.3 72.25 49.7 68.25 50.4 63.55 50.4 61.9 46.7 61.5 43.15 62.8 41.75 63.3 41.35 64.05 40.95 64.65 40.95 66.1 Z"/>

<path fill="#929274" stroke="none" d="
M 84.3 66.9
Q 84.3 65.85 84.3 65.1
L 84.3 65.05
Q 84.15 64.85 83.9 64.65
L 83.9 68.65
Q 83.75 72.45 83.6 73.5 83.35 75.5 82.65 76.65 81.55 78.35 80.2 78.5 79.35 78.55 78.25 78.2 77.7 78 77.45 77.75 77.05 77.4 77.05 76.5 76.5 72.3 76.6 70.2 76.75 66.55 78.65 64.4 79.1 63.85 79.65 63.5 79.2 63.5 78.65 63.55 76.2 63.95 75.4 65.6 75.25 66.1 74.95 67.15 74.55 67.95 74 68.05 73.75 68.7 73.3 68.75 73.05 68.8 72.75 68.3 72.5 67.9 72.65 67.35 72.65 65.35 72.1 63.05 71.8 61.95 71.4 61.55 70.7 61.1 69.5 61.3 67.15 61.6 64.8 61.95 64.4 62 64.15 62.05
L 63.15 62.15 63.3 62.15
Q 64.4 62.05 66.75 62.45 67.85 62.55 68.25 63.05 68.5 63.45 68.5 64.4
L 68.5 76.05
Q 68.5 76.25 68.5 76.45 67.15 77.3 64.95 77.45 61.95 77.65 60.55 76.3 59.3 75.2 58.65 72.1 58.65 71.7 58.5 71.35 58.65 69.8 58.75 68 58.9 65 60 63.75 60.95 62.5 62.9 62.2
L 58.1 62.85
Q 56.45 63.15 55.9 63.85 55.6 64.2 55.5 65.45 55.05 67.2 54.25 68.7 53.95 69.4 53.4 69.4 53.3 69.35 52.85 68.9 51.9 67.45 51.5 65.6 51.2 63.8 51.5 62.05 51.75 61.15 51.5 60.7 51.1 60 49.45 60.45 49.05 60.55 46.4 60.55 42.85 60.5 39.3 61.75 37.35 62.55 36.8 63.6 36.4 64.35 36.25 65.75 36.25 68.9 36 69.9 35.85 70.95 35.3 73.1 35.05 75.05 35.85 76.2 36.7 77.3 38.75 77.8 43 78.95 50 78.85 54.1 78.8 56.7 78.85 57.7 78.85 58.5 78.85 59.3 78.85 60.15 78.9 60.85 78.9 61.25 78.95 63.3 79.15 67.55 79.8 71.25 80.3 73.75 80.1 74.7 80.05 76.5 79.75 78.4 79.5 79.2 79.4 81.4 79.3 82.25 78.8 83.2 78.2 83.75 76.7 84.6 74.8 84.45 71.9 84.3 68.55 84.3 66.9
M 40.95 73.45
L 40.95 66.1
Q 40.95 64.65 41.35 64.05 41.75 63.3 43.15 62.8 46.7 61.5 50.4 61.9 50.4 63.55 49.7 68.25 49.3 72.25 49.45 74.6 49.6 75.6 49.3 76 48.9 76.45 47.8 76.45 45.2 76.45 42.6 75.7 41.35 75.3 41.05 74.65 40.95 74.3 40.95 73.45 Z"/>
</g>

<g id="Bone_Archer_Head_1_Layer1_0_FILL">
<path fill="#000000" stroke="none" d="
M 39.3 -10
Q 29.65 -6.9 21.5 -1.1 14.8 3.7 13.2 8.8 12 12.9 13.55 19.9 14.8 25.55 17.8 36.85 20 46.75 19.3 53.95 19.1 55.8 19.1 56.2 19.1 57.45 19.4 58.4 19.75 59.5 20.75 60.2 21.75 60.9 22.8 60.6 22.05 63.3 22 65 21.9 67.45 23.1 69 24.25 70.45 27.2 71.4 35.2 74.15 43.65 73.15 54.3 77.6 65.7 76.05 67.55 75.8 68.8 75 70.3 74 70.15 72.55 71.4 75.05 74.7 75.5 76.8 75.8 80.3 74.9 89.7 72.6 98.2 68.05 105.2 64.45 105.3 59.85 105.35 58.65 104.85 57.15 104.7 56.7 103.8 54.55 100 45.8 99.4 36.05 98.8 26.3 101.45 17.1 102.55 13.4 102.8 12.3 103.35 9.55 102.9 7.45 101.95 3.35 96.4 -0.75 88.3 -6.65 78.65 -9.8 69 -13 59 -13.05 49 -13.1 39.3 -10
M 56.2 -7.85
Q 57.25 -7.9 58.25 -7.9 62.5 -7.9 66.8 -7.3 66.2 -6 65.45 -4.5 64.55 -2.7 63.45 -0.65 62.85 0.5 62.2 0.9 61.55 1.3 59.75 1.2 57 1.05 54.8 1.3 52.65 1.5 51.75 2.35 51.25 2.85 50.45 4.8 49.7 6.75 48.4 8.45 48.2 8.65 48.05 8.9 47.8 9.2 47.5 9.5 46.95 10.1 46.6 10.55 45.6 10 44.15 9.7
L 40.15 8.75
Q 37.05 8.1 35.5 8.65 35.4 8.65 35.3 8.7 34.3 9.15 32.8 10.75
L 30.75 12.9
Q 30.2 13.6 30.15 13.85 30.1 14.15 30.3 14.4 30.45 14.65 30.75 14.6
L 33.2 12.45
Q 34.9 11.1 35.8 10.85 37.5 10.45 39.85 11.65 41.6 12.55 41.7 12.6 42.8 13.1 43.7 13.2 44.45 13.25 45.45 13.1 45.35 13.8 45.4 14.65 45.45 15.65 45.45 17 44.8 17.05 44.45 17.15 43.35 17.45 41.45 18.85 39.45 20.35 38.25 21.65 36.8 23.45 35.8 26 33.6 31.35 33.75 36.2 33.8 37.15 33.9 38.05 33.95 38.35 34 38.6 33.95 38.6 33.9 38.6 32.65 38.55 30.45 37.1 29.9 36.65 29.55 36.55
L 29.5 36.55
Q 29.25 36.5 29.1 36.55 28.9 36.6 28.8 36.7 28.65 36.75 28.6 36.9 28.25 37.4 28.85 38.15 28.95 38.25 29.05 38.4 30 39.7 31.8 40.65 32.15 40.85 32.55 41 33.55 41.5 35.05 42 35 41.9 35 41.85 35.05 41.95 35.1 42.05 35.25 42.35 35.4 42.65 36.85 45.3 39.75 47.1
L 39.8 47.15
Q 41.45 48.15 43.35 48.8 43.5 48.85 43.65 48.9 44.55 49.2 45.5 49.4 45.65 49.4 45.8 49.45 52.45 50.7 59.3 48.25 59.65 48.1 60.05 48 60.1 47.95 60.2 47.9 63.35 46.7 65.3 45.05 67.75 42.95 70 38.75 71.3 36.35 71.65 34.6 72 33 71.8 30.3 71.7 27.6 71.15 25.8 70.95 25.1 70.65 24.4 69.25 21.35 66 19 62.8 16.65 58 15.75 54.15 15 51.3 15.75 51.05 15.8 50.85 15.85 48.9 16.55 47.85 16.8 47.85 16.75 47.9 16.75 47.9 16.05 47.85 15.5 47.75 13.45 48 12.65 48.2 12 48.8 11.35 49.5 10.6 49.8 10.2 52.05 7.65 53.05 4.3 56 4.1 59 4.7 61.15 5.15 61.75 5.25 63.3 5.45 64.4 5 65.5 4.55 66.45 3.3 67 2.55 67.85 0.95
L 71.65 -6.45
Q 73 -6.15 74.4 -5.8 75.15 -5.6 75.85 -5.4 84 -3.05 91.3 1.25 91.5 1.35 91.7 1.5 97.35 5 98.2 8.75 98.6 10.45 98.25 12.7 98.2 12.9 98.15 13.1 98 13.95 96.95 17.4 94.85 24.5 94.75 31.95 94.7 34.3 94.9 36.75 94.95 37.75 95.1 38.75 95.1 38.9 95.15 39.15 95.15 39.55 95.25 39.95 95.3 40.55 95.4 41.15 95.4 41.25 95.45 41.35 95.45 41.5 95.5 41.65 95.5 41.8 95.55 41.95 96.3 46.4 97.8 50.6 98.7 53.15 99.85 55.65 100.7 57.4 100.95 58.25 101.45 59.75 101.3 60.95 101.1 62.45 99.8 63.9 98.95 64.9 97.15 66.25 94.9 63.25 94.75 59.45 94.75 58.2 94.7 57.6 94.6 56.55 94.25 55.85 94.15 55.65 94 55.5 93.55 54.95 92.85 54.7 91.85 54.35 91.25 55 90.75 55.55 90.75 56.9 90.8 58.65 91 60.4 91.15 61.55 91.4 62.7 91.8 64.4 92.35 66.05 92.4 66.1 92.4 66.15 92.45 66.25 92.5 66.4 83.65 70.55 73.8 71.75
L 73.35 68.35 72.45 61.45
Q 72 58.4 70.4 58.3 68.65 58.15 67.9 61 67.25 63.3 66.85 65.7 66.4 68.5 66.3 71.35 57.55 72.4 48.95 71.3 48.4 71.25 48 71.1 47.25 70.9 46.9 70.55 46.15 69.8 46.45 67.45
L 48 58.45
Q 48.35 57.15 47.55 56.85 46.75 56.6 46.2 57.95
L 44.65 61.6 42.65 66.2
Q 41.9 67.75 41.3 68.1 40.5 68.6 38.55 68.4
L 31.85 67.5
Q 30.05 67.25 29.15 66.95 27.7 66.5 26.85 65.65 25.05 63.85 25.7 58.85 25.7 58.7 25.75 58.6
L 25.75 58.55
Q 26.35 53.45 25.05 51.6
L 23.1 57.2
Q 24.15 48.7 21.9 36.95 18.8 23.55 17.45 16.85 16.6 12.8 17.25 10.45 18.1 7.55 22.15 4.35 29.35 -1.25 38.2 -4.4 46.95 -7.5 56.2 -7.85
M 61.8 21.1
Q 63.3 22.25 64.1 23.65 64.75 24.2 65.25 24.85 66.8 26.9 67.25 30.7 67.45 32.85 67.2 33.95 66.95 35.25 65.65 37.3 63.55 40.7 61.9 41.95 60.85 42.7 58.45 43.6 56.2 44.5 54.9 44.7 53.85 44.9 51.7 45 47.3 45.2 44.85 44.6 41 43.75 39.35 40.85 38.6 39.7 38.35 38 37.35 32.7 40.05 26.25 41.3 22.95 43.35 22.1 43.35 22.15 43.4 22.2 43.5 22.05 43.65 21.95 45.15 20.6 49 19.7 53.65 18.6 56.05 18.85 59.25 19.15 61.8 21.1
M 93.9 34
Q 94.05 32.3 93.35 30.65 93.05 29.9 92.65 29.3 92.15 28.5 91.45 27.85 91.1 27.5 90.75 27.25 88.55 25.5 85.3 25.15 82 24.85 80.8 26.7
L 80.55 27.35 80.45 27.6
Q 80.4 27.75 80.35 27.9 80.3 27.95 80.3 28 80.2 28.3 80.05 28.65 80 28.7 78.95 30.55 76.55 34.25 77.4 37.3 78.2 40.45 81.85 41.85 84.05 42.7 86.35 42.45 87.15 42.35 88 42.15 89.95 41.55 90.95 40.45 91.7 39.7 92.45 38.2
L 92.45 38.15
Q 92.5 38.1 92.5 38.05 93.75 35.6 93.9 34
M 81.8 30.15
Q 82.4 30.25 83.3 30.1
L 84.8 29.85
Q 87.25 29.7 88.85 31.45 89.9 32.6 89.85 33.8 89.8 34.25 89.6 34.85 89.45 35.2 89.15 35.9 88.5 37.35 88.35 37.5 87.7 38.15 86.7 38.4 84.75 38.85 83.35 38.3 81.6 37.65 80.9 36.05 80.65 35.4 80.55 33.95 80.55 31.35 81.8 30.15 Z"/>

<path fill="#CC66FF" stroke="none" d="
M 64.1 23.65
Q 63.3 22.25 61.8 21.1 59.25 19.15 56.05 18.85 53.65 18.6 49 19.7 45.15 20.6 43.65 21.95 43.5 22.05 43.4 22.2 43.35 22.15 43.35 22.1 41.3 22.95 40.05 26.25 37.35 32.7 38.35 38 38.6 39.7 39.35 40.85 41 43.75 44.85 44.6 47.3 45.2 51.7 45 53.85 44.9 54.9 44.7 56.2 44.5 58.45 43.6 60.85 42.7 61.9 41.95 63.55 40.7 65.65 37.3 66.95 35.25 67.2 33.95 67.45 32.85 67.25 30.7 66.8 26.9 65.25 24.85 64.75 24.2 64.1 23.65 Z"/>

<path fill="#929274" stroke="none" d="
M 54.65 56.6
Q 53.55 56.05 51.6 54.8 49.5 53.4 48.15 52.95 47.75 52.85 47.4 52.8 47.6 52.8 47.85 52.8 46.9 52.75 46.05 52.7 45.1 52.85 43.4 53.95 42.45 54.55 41.6 55 42.7 55.65 43.15 56.15 44.1 57.25 44.4 59.4 44.55 60.5 44.65 61.6
L 46.2 57.95
Q 46.75 56.6 47.55 56.85 48.35 57.15 48 58.45
L 46.45 67.45
Q 46.15 69.8 46.9 70.55 47.25 70.9 48 71.1 47.9 70.45 47.9 69.4 47.9 67.9 48.15 67.2
L 48.7 65.85
Q 48.9 65.35 48.95 64.55 49.05 63.35 49.1 63.2 49.35 61.5 50.85 59.35 51.6 58.25 52.3 57.7 52.9 57.2 54.3 56.7 54.5 56.65 54.65 56.6
M 43.65 48.9
Q 43.5 48.85 43.35 48.8 41.45 48.15 39.8 47.15
L 39.75 47.1
Q 36.85 45.3 35.4 42.65 35.25 42.35 35.1 42.05 35.05 41.95 35 41.85 35 41.9 35.05 42 33.55 41.5 32.55 41 32.55 41.2 32.6 41.4 33.9 47.2 38.2 49.4 39.6 50.15 42.25 50.7
L 49.25 52.4
Q 52.5 53.25 54.5 53.2 57.35 53.2 60.85 51.45 64.9 49.4 67.55 46.5 70.15 43.6 71.35 39.7 72.55 35.9 72.2 31.9 71.8 29.2 71.75 27.85 71.65 26.1 71.45 25.6 71.15 24.75 70.65 24.4 70.95 25.1 71.15 25.8 71.7 27.6 71.8 30.3 72 33 71.65 34.6 71.3 36.35 70 38.75 67.75 42.95 65.3 45.05 63.35 46.7 60.2 47.9 60.1 47.95 60.05 48 59.65 48.1 59.3 48.25 52.45 50.7 45.8 49.45 45.65 49.4 45.5 49.4 44.55 49.2 43.65 48.9
M 43.9 7.25
Q 41.05 6.9 40.65 6.8 38.7 6.35 38.65 6.35 37.45 6.2 36.6 6.4 35.6 6.6 34.15 7.85 30.55 11.05 29.15 15.8 29.05 16.25 29.15 16.45 29.3 16.85 29.8 16.65 30.25 16.5 30.6 16.1 32.2 13.9 33.1 12.85 34.45 11.45 35.8 10.85 34.9 11.1 33.2 12.45
L 30.75 14.6
Q 30.45 14.65 30.3 14.4 30.1 14.15 30.15 13.85 30.2 13.6 30.75 12.9
L 32.8 10.75
Q 34.3 9.15 35.3 8.7 35.4 8.65 35.5 8.65 37.05 8.1 40.15 8.75
L 44.15 9.7
Q 45.6 10 46.6 10.55 46.95 10.1 47.5 9.5 47.8 9.2 48.05 8.9 48.2 8.65 48.4 8.45 47.65 8.1 47.1 7.9 45.9 7.5 43.9 7.25
M 95.4 52.25
Q 93.95 52.95 92.3 53 90.25 53.1 87.35 51.9 86.35 51.5 85.65 51.05 85.55 51.35 85.45 51.7 85.4 51.9 85.35 52.05 84.8 53.7 84.1 54.5 83.3 55.45 81.85 56 81 56.35 79.1 56.75 76 57.35 74.35 57.45 71.7 57.6 69.75 56.85 68.9 56.55 67.6 55.8 66.7 55.25 66.1 54.95 65.8 54.8 65.6 54.7
L 65.45 54.8
Q 63.65 56.5 61.15 57.1 61.8 57.5 62.45 58.15 65.7 61.3 66.85 65.7 67.25 63.3 67.9 61 68.65 58.15 70.4 58.3 72 58.4 72.45 61.45
L 73.35 68.35
Q 73.7 65.45 74.55 63.05 74.95 61.9 75.35 61.25 76.4 59.5 78.7 58 80.55 56.9 82 56.7 83 56.6 85 57 87.45 57.55 88.75 58.35 89.85 59.05 91 60.4 90.8 58.65 90.75 56.9 90.75 55.55 91.25 55 91.85 54.35 92.85 54.7 93.55 54.95 94 55.5 94.5 53.4 95.4 52.25
M 93.35 30.65
Q 94.05 32.3 93.9 34 93.75 35.6 92.5 38.05 92.5 38.1 92.45 38.15
L 92.45 38.2
Q 91.7 39.7 90.95 40.45 89.95 41.55 88 42.15 87.15 42.35 86.35 42.45 84.05 42.7 81.85 41.85 78.2 40.45 77.4 37.3 76.55 34.25 78.95 30.55 80 28.7 80.05 28.65 80.2 28.3 80.3 28 80.3 27.95 80.35 27.9 80.4 27.75 80.45 27.6
L 80.55 27.35
Q 80 27.55 79.65 27.8 78.25 28.65 77.1 31.2 75.7 34.25 75.65 36.7 75.55 39.9 77.4 41.95 79.7 44.55 84.95 44.75 91.6 45.05 94.3 41.55 94.85 40.8 95.25 39.95 95.15 39.55 95.15 39.15 95.1 38.9 95.1 38.75 94.95 37.75 94.9 36.75 94.7 34.3 94.75 31.95 94.15 30.45 93.15 29.25 92.05 27.95 90.75 27.25 91.1 27.5 91.45 27.85 92.15 28.5 92.65 29.3 93.05 29.9 93.35 30.65
M 72.05 -0.5
Q 74.15 -3.3 75.3 -4.7 75.6 -5.05 75.85 -5.4 75.15 -5.6 74.4 -5.8 73 -6.15 71.65 -6.45
L 67.85 0.95
Q 67 2.55 66.45 3.3 65.5 4.55 64.4 5 63.3 5.45 61.75 5.25 61.15 5.15 59 4.7 56 4.1 53.05 4.3 52.05 7.65 49.8 10.2 49.5 10.6 48.8 11.35 48.2 12 48 12.65 47.75 13.45 47.85 15.5 47.9 16.05 47.9 16.75 47.85 16.75 47.85 16.8 48.9 16.55 50.85 15.85 51.05 15.8 51.3 15.75 51.35 15.1 51.4 14.4 51.5 13.3 51.75 12.85 52 12.3 52.65 11.65
L 53.7 10.6
Q 53.95 10.35 54.75 9.05 55.3 8.1 55.9 7.7 56.8 7.1 58.3 7.25 58.95 7.35 60.8 7.85 64.25 8.9 66.2 7.65 67 7.15 67.65 6.2 67.95 5.75 68.75 4.35 69.4 3.2 72.05 -0.5
M 58.25 -7.9
Q 57.25 -7.9 56.2 -7.85 46.95 -7.5 38.2 -4.4 29.35 -1.25 22.15 4.35 18.1 7.55 17.25 10.45 16.6 12.8 17.45 16.85 18.8 23.55 21.9 36.95 24.15 48.7 23.1 57.2
L 25.05 51.6
Q 26.35 53.45 25.75 58.55 25.85 58.45 25.95 58.3 26.95 57.05 27.35 56.35 28.7 54.4 29.2 54.05 29.8 53.7 31.65 53.35 32.15 53.25 32.85 53.05 30.8 50.95 30.2 49.4 29.9 48.6 29.7 46.9
L 29.25 42.8
Q 28.95 40.35 29.05 38.65
L 29.15 39.1 29.05 38.4
Q 28.95 38.25 28.85 38.15 28.25 37.4 28.6 36.9 28.65 36.75 28.8 36.7
L 28.25 33.05
Q 27.2 26.1 27.2 22.15 27.2 20.05 27.2 19 27.15 17.2 26.85 15.95 26.5 14.65 26.35 14 26.1 12.85 26.2 12.05 26.35 10.8 27.3 9.6 27.9 8.8 29.25 7.6 34.35 3.1 37.25 1.3 39.75 -0.3 43.5 -1.9 45.65 -2.8 50 -4.55 56.7 -7.4 58.25 -7.9 Z"/>

<path fill="#D7D7C5" stroke="none" d="
M 85 57
Q 83 56.6 82 56.7 80.55 56.9 78.7 58 76.4 59.5 75.35 61.25 74.95 61.9 74.55 63.05 73.7 65.45 73.35 68.35
L 73.8 71.75
Q 83.65 70.55 92.5 66.4 92.45 66.25 92.4 66.15 92.4 66.1 92.35 66.05 91.8 64.4 91.4 62.7 91.15 61.55 91 60.4 89.85 59.05 88.75 58.35 87.45 57.55 85 57
M 75.3 -4.7
Q 74.15 -3.3 72.05 -0.5 69.4 3.2 68.75 4.35 67.95 5.75 67.65 6.2 67 7.15 66.2 7.65 64.25 8.9 60.8 7.85 58.95 7.35 58.3 7.25 56.8 7.1 55.9 7.7 55.3 8.1 54.75 9.05 53.95 10.35 53.7 10.6
L 52.65 11.65
Q 52 12.3 51.75 12.85 51.5 13.3 51.4 14.4 51.35 15.1 51.3 15.75 54.15 15 58 15.75 62.8 16.65 66 19 69.25 21.35 70.65 24.4 71.15 24.75 71.45 25.6 71.65 26.1 71.75 27.85 71.8 29.2 72.2 31.9 72.55 35.9 71.35 39.7 70.15 43.6 67.55 46.5 64.9 49.4 60.85 51.45 57.35 53.2 54.5 53.2 52.5 53.25 49.25 52.4
L 42.25 50.7
Q 39.6 50.15 38.2 49.4 33.9 47.2 32.6 41.4 32.55 41.2 32.55 41 32.15 40.85 31.8 40.65 30 39.7 29.05 38.4
L 29.15 39.1 29.05 38.65
Q 28.95 40.35 29.25 42.8
L 29.7 46.9
Q 29.9 48.6 30.2 49.4 30.8 50.95 32.85 53.05 32.15 53.25 31.65 53.35 29.8 53.7 29.2 54.05 28.7 54.4 27.35 56.35 26.95 57.05 25.95 58.3 25.85 58.45 25.75 58.55
L 25.75 58.6
Q 25.7 58.7 25.7 58.85 25.05 63.85 26.85 65.65 27.7 66.5 29.15 66.95 30.05 67.25 31.85 67.5
L 38.55 68.4
Q 40.5 68.6 41.3 68.1 41.9 67.75 42.65 66.2
L 44.65 61.6
Q 44.55 60.5 44.4 59.4 44.1 57.25 43.15 56.15 42.7 55.65 41.6 55 42.45 54.55 43.4 53.95 45.1 52.85 46.05 52.7 46.9 52.75 47.85 52.8 47.6 52.8 47.4 52.8 47.75 52.85 48.15 52.95 49.5 53.4 51.6 54.8 53.55 56.05 54.65 56.6 54.5 56.65 54.3 56.7 52.9 57.2 52.3 57.7 51.6 58.25 50.85 59.35 49.35 61.5 49.1 63.2 49.05 63.35 48.95 64.55 48.9 65.35 48.7 65.85
L 48.15 67.2
Q 47.9 67.9 47.9 69.4 47.9 70.45 48 71.1 48.4 71.25 48.95 71.3 57.55 72.4 66.3 71.35 66.4 68.5 66.85 65.7 65.7 61.3 62.45 58.15 61.8 57.5 61.15 57.1 63.65 56.5 65.45 54.8
L 65.6 54.7
Q 65.8 54.8 66.1 54.95 66.7 55.25 67.6 55.8 68.9 56.55 69.75 56.85 71.7 57.6 74.35 57.45 76 57.35 79.1 56.75 81 56.35 81.85 56 83.3 55.45 84.1 54.5 84.8 53.7 85.35 52.05 85.4 51.9 85.45 51.7 85.55 51.35 85.65 51.05 86.35 51.5 87.35 51.9 90.25 53.1 92.3 53 93.95 52.95 95.4 52.25 94.5 53.4 94 55.5 94.15 55.65 94.25 55.85 94.6 56.55 94.7 57.6 94.75 58.2 94.75 59.45 94.9 63.25 97.15 66.25 98.95 64.9 99.8 63.9 101.1 62.45 101.3 60.95 101.45 59.75 100.95 58.25 100.7 57.4 99.85 55.65 98.7 53.15 97.8 50.6 96.3 46.4 95.55 41.95 95.5 41.8 95.5 41.65 95.45 41.5 95.45 41.35 95.4 41.25 95.4 41.15 95.3 40.55 95.25 39.95 94.85 40.8 94.3 41.55 91.6 45.05 84.95 44.75 79.7 44.55 77.4 41.95 75.55 39.9 75.65 36.7 75.7 34.25 77.1 31.2 78.25 28.65 79.65 27.8 80 27.55 80.55 27.35
L 80.8 26.7
Q 82 24.85 85.3 25.15 88.55 25.5 90.75 27.25 92.05 27.95 93.15 29.25 94.15 30.45 94.75 31.95 94.85 24.5 96.95 17.4 98 13.95 98.15 13.1 98.2 12.9 98.25 12.7 97.9 11.85 97.45 10.95 96.55 9 94.5 5.75 92.85 3.05 91.9 1.75 91.8 1.6 91.7 1.5 91.5 1.35 91.3 1.25 84 -3.05 75.85 -5.4 75.6 -5.05 75.3 -4.7
M 50 -4.55
Q 45.65 -2.8 43.5 -1.9 39.75 -0.3 37.25 1.3 34.35 3.1 29.25 7.6 27.9 8.8 27.3 9.6 26.35 10.8 26.2 12.05 26.1 12.85 26.35 14 26.5 14.65 26.85 15.95 27.15 17.2 27.2 19 27.2 20.05 27.2 22.15 27.2 26.1 28.25 33.05
L 28.8 36.7
Q 28.9 36.6 29.1 36.55 29.25 36.5 29.5 36.55
L 29.55 36.55
Q 29.9 36.65 30.45 37.1 32.65 38.55 33.9 38.6 33.95 38.6 34 38.6 33.95 38.35 33.9 38.05 33.8 37.15 33.75 36.2 33.6 31.35 35.8 26 36.8 23.45 38.25 21.65 39.45 20.35 41.45 18.85 43.35 17.45 44.45 17.15 44.8 17.05 45.45 17 45.45 15.65 45.4 14.65 45.35 13.8 45.45 13.1 44.45 13.25 43.7 13.2 42.8 13.1 41.7 12.6 41.6 12.55 39.85 11.65 37.5 10.45 35.8 10.85 34.45 11.45 33.1 12.85 32.2 13.9 30.6 16.1 30.25 16.5 29.8 16.65 29.3 16.85 29.15 16.45 29.05 16.25 29.15 15.8 30.55 11.05 34.15 7.85 35.6 6.6 36.6 6.4 37.45 6.2 38.65 6.35 38.7 6.35 40.65 6.8 41.05 6.9 43.9 7.25 45.9 7.5 47.1 7.9 47.65 8.1 48.4 8.45 49.7 6.75 50.45 4.8 51.25 2.85 51.75 2.35 52.65 1.5 54.8 1.3 57 1.05 59.75 1.2 61.55 1.3 62.2 0.9 62.85 0.5 63.45 -0.65 64.55 -2.7 65.45 -4.5 66.2 -6 66.8 -7.3 62.5 -7.9 58.25 -7.9 56.7 -7.4 50 -4.55 Z"/>

<path fill="#666666" stroke="none" d="
M 83.3 30.1
Q 82.4 30.25 81.8 30.15 80.55 31.35 80.55 33.95 80.65 35.4 80.9 36.05 81.6 37.65 83.35 38.3 84.75 38.85 86.7 38.4 87.7 38.15 88.35 37.5 88.5 37.35 89.15 35.9 89.45 35.2 89.6 34.85 89.8 34.25 89.85 33.8 89.9 32.6 88.85 31.45 87.25 29.7 84.8 29.85
L 83.3 30.1 Z"/>

<path fill="#CCCC99" stroke="none" d="
M 94.5 5.75
Q 96.55 9 97.45 10.95 97.9 11.85 98.25 12.7 98.6 10.45 98.2 8.75 97.35 5 91.7 1.5 91.8 1.6 91.9 1.75 92.85 3.05 94.5 5.75 Z"/>
</g>

<g id="Bone_Archer_Head_1_Layer0_0_FILL">
<path fill="#000000" stroke="none" d="
M 150.15 7.2
Q 149.45 7.1 147.8 7.75 147 8.1 139.55 10.95 136.6 12.2 135.1 12.65 131.5 13.85 128.8 13.95
L 127.35 13.95
Q 126.5 13.95 125.95 14.2 125.15 14.6 124.45 15.8 123.8 17.15 123.4 17.85 123.1 18.5 121.95 19.75 121 20.9 120.6 21.65 120.05 22.75 119.7 23.2 119.5 23.55 118.95 23.9 118.6 24.15 118.4 24.35
L 114.35 25.15 111.55 26.15
Q 110.2 26.6 106.4 27.45
L 103.45 28.1
Q 95.15 29.95 91.75 30.5 88.4 31.1 87.05 31.5 84.45 32.2 82.8 33.4 81.8 34.1 82 34.65 82.25 35.25 83.4 35.2 84.3 35.3 86.1 35.2 89.1 35.1 92.7 34.45 95.05 34 99.3 33
L 107.9 31.15
Q 109.5 30.9 111.05 30.35
L 114.4 29.45
Q 115.6 29.1 117.05 28.7 117.6 29.25 118.4 29.7 120.5 30.7 121.5 31.2
L 124.1 31.85
Q 126.15 32.55 128.05 34 129.7 35.55 130.65 35.9 131.95 36.3 134.6 35.75 136.65 35.4 140.55 34.5 144 33.7 146.45 33.5 149.05 33.35 149.6 32.25 149.8 31.75 149.6 31.15 149.5 30.5 149 30.15 148.65 29.7 147.05 28.85 144.9 27.5 142.4 23.95 141.75 23.25 141.45 22.5 140.8 20.5 143.8 17.3
L 150.85 9.85
Q 151.7 9.05 151.7 8.5 151.75 8 151.2 7.55 150.8 7.2 150.15 7.2
M 144.55 12.3
Q 143.8 13.3 142.35 14.8 140.8 16.45 140.2 17.3 137.65 20.6 138.45 23.25 138.526171875 23.5109375 138.65 23.8 139.15859375 24.8412109375 140.45 26.25
L 144.55 30.85 136.7 32.75
Q 135.3 33.05 134.6 33.05 133.4 33.25 132.55 33 131.65 32.7 130.7 32.1 129.65 31.25 129.2 30.9 127.1 29.3 123.85 28 123.15 27.75 122.25 27.45
L 123.35 27.2
Q 124.95 26.75 125.6 26.3 126.2 25.9 126.45 25.35 126.4650390625 25.3083984375 126.45 25.25 126.638671875 24.7623046875 126.5 24.3 126.15 23.4 124.95 23.2 124.35 23.15 123.4 23.35 123.75 22.85 124.15 22.3 125.95 19.6 126.35 19.1 127.65 17.4 129.3 16.75 130.25 16.45 131.85 16.25 134.05 16.1 134.45 16.05 136.1 15.7 139.45 14 142.6 12.5 144.55 12.3 Z"/>

<path fill="#71368A" stroke="none" d="
M 138.65 23.8
Q 135.10390625 23.8361328125 133.7 23.95 132.4 24.05 127.3 24.9 126.912109375 24.9646484375 126.55 25 126.5203125 25.144140625 126.45 25.25 126.4650390625 25.3083984375 126.45 25.35 126.2 25.9 125.6 26.3 124.95 26.75 123.35 27.2
L 122.25 27.45
Q 123.15 27.75 123.85 28 127.1 29.3 129.2 30.9 129.65 31.25 130.7 32.1 131.65 32.7 132.55 33 133.4 33.25 134.6 33.05 135.3 33.05 136.7 32.75
L 144.55 30.85 140.45 26.25
Q 139.15859375 24.8412109375 138.65 23.8 Z"/>

<path fill="#CC66FF" stroke="none" d="
M 142.35 14.8
Q 143.8 13.3 144.55 12.3 142.6 12.5 139.45 14 136.1 15.7 134.45 16.05 134.05 16.1 131.85 16.25 130.25 16.45 129.3 16.75 127.65 17.4 126.35 19.1 125.95 19.6 124.15 22.3 123.75 22.85 123.4 23.35 124.35 23.15 124.95 23.2 126.15 23.4 126.5 24.3 126.638671875 24.7623046875 126.45 25.25 126.5203125 25.144140625 126.55 25 126.912109375 24.9646484375 127.3 24.9 132.4 24.05 133.7 23.95 135.10390625 23.8361328125 138.65 23.8 138.526171875 23.5109375 138.45 23.25 137.65 20.6 140.2 17.3 140.8 16.45 142.35 14.8 Z"/>
</g>

<g id="Bone_Archer_Death_6_Layer1_0_FILL">
<path fill="#000000" stroke="none" d="
M 43.2 143.4
Q 43.6 140.9 43.25 139.75 42.9 138.3 41.65 137.35 40.35 136.5 38.85 136.45 35.9 136.35 33.85 139 32.75 140.3 31.9 142.65 31.4 143.95 30.45 146.6 29.65 148.4 27.9 151.9 26.65 154.95 27.25 157.15 27.65 158.8 28.95 160.05 30.15 161.3 31.75 161.65 33.35 162 35 161.6 36.55 161.2 37.85 160.1 39.85 158.45 40.95 155.35 41.7 153.25 42.25 149.55
L 43.2 143.4
M 35.4 142.8
Q 35.6 141.9 35.9 141.6 36.25 141.3 37.15 141.25
L 39.5 141
Q 39.25 141.9 39.2 143.2 39.15 144.05 39.15 145.55 39.1 148.15 38.4 150.7 38.35 150.9 38.3 151.05
L 38.1 151.8
Q 38.05 152 38 152.2 37.6 153.35 37.55 153.6 37.35 155.05 37.05 155.75 36.65 156.6 35.6 157.35 34.1 158.35 32.65 158.1 31.9 158 31.3 157.5 30.65 156.85 30.5 156.15 30.35 155.6 30.5 155 30.65 154.05 31.25 152.8
L 32.65 149.95
Q 34.6 145.9 35.4 142.8 Z"/>

<path fill="#FFFFFF" stroke="none" d="
M 37.55 153.6
Q 37.6 153.35 38 152.2 37.85 151.4 37.75 150.3
L 31.25 154.5
Q 30.85 154.75 30.5 155 30.35 155.6 30.5 156.15 30.65 156.85 31.3 157.5 31.9 158 32.65 158.1 34.1 158.35 35.6 157.35 36.65 156.6 37.05 155.75 37.35 155.05 37.55 153.6 Z"/>

<path fill="#CCCC99" stroke="none" d="
M 35.9 141.6
Q 35.6 141.9 35.4 142.8 34.6 145.9 32.65 149.95
L 31.25 152.8
Q 30.65 154.05 30.5 155 30.85 154.75 31.25 154.5
L 37.75 150.3
Q 37.85 151.4 38 152.2 38.05 152 38.1 151.8
L 38.3 151.05
Q 38.35 150.9 38.4 150.7 39.1 148.15 39.15 145.55 39.15 144.05 39.2 143.2 39.25 141.9 39.5 141
L 37.15 141.25
Q 36.25 141.3 35.9 141.6 Z"/>
</g>

<g id="Bone_Archer_Bow_0_Layer0_0_FILL">
<path fill="#000000" stroke="none" d="
M 33.25 -33.6
Q 26.7 -40.25 22.2 -38.5 18.9 -37.15 17.75 -32 17.3 -29.25 17.05 -27.95 16.6 -25.55 15.9 -24.05 15.3 -22.65 12.85 -19.4 10.7 -16.6 10.2 -14.6 9.65 -12.2 10.55 -9.2 11 -7.5 12.65 -4 17.9 6.9 19.25 14.4 22.2 30.85 13.8 49.75 9.25 60.25 2.5 68.6 -4.7 77.5 -13.7 83 -15.15 83.9 -18.05 85.55 -20.55 87.05 -22.1 88.45 -26.6 92.5 -26.6 97 -26.6 102.65 -19.75 107.45
L -14.25 110.85
Q -11 112.9 -9.25 114.8 -6.3529296875 117.8708984375 -4.8 122.8 -4.815625 127.3880859375 -6.4 130.9 -7.4 133.25 -9.8 136.3
L -13.85 141.3
Q -18.75 148.05 -16.85 153.4 -15.4 157.65 -9.8 160 -7.9 160.8 -5.05 161.4 -1.75 162 -0.1 162.35 10.2 164.6 19.9 170.65 29.05 176.3 36.85 184.7 50.95 199.8 53.6 216.3 54.8 223.85 53.4 235.9 53 239.75 53.15 241.5 53.25 244.55 54.6 246.7 55.7 248.45 58.7 250.3 62.05 252.6 63.05 253.7 64.25 254.95 65.45 257.05 66.15 258.15 67.45 260.6 70.25 265.15 73.75 265.3 78.6 265.45 82.6 257.05 86.95 247.3 88.7 242.35 91.65 234.05 92.35 227.1 93.35 217.05 89.7 210.9 88.1 208.45 85 205.3 81.3 201.95 79.6 200.15 77.1 197.5 74.25 193.4 72.65 191 69.55 186.1 65.95 180.75 58.7 171.3 50.95 161.2 47.75 156.5 36.4 139.65 30.15 121.7 29.4 119.8 28.85 118.95 28.4 118.2 27.8 117.7 27.5 117.35 27 117.15 26.9 117.1 26.75 117.05 26.6580078125 117.012109375 26.55 116.95
L 26.6 116.95
Q 26.700390625 116.8654296875 26.8 116.75 27.1369140625 116.4349609375 27.4 115.95 27.7443359375 115.3478515625 27.95 114.5 28.15 113.55 28.25 111.45 28.25 92.45 33.4 72.8 34.9 67.3 38.9 55.25 42.65 43.9 44.25 37.7 45.6 32.05 46.35 29.25 47.65 24.4 49.15 21.05 50.15 18.85 52.5 14.45 54.45 10.5 55.1 7.6 56.55 0.65 52.3 -8.55 49.35 -14.9 43.85 -21.75 40.55 -25.85 33.25 -33.6
M 25.6 -28.4
Q 25.714453125 -28.83515625 25.8 -29.3 32.8 -22.4 36.5 -18 42 -11.5 45.05 -5.25 46.95 -1.25 46.9 1.55 46.7 3.85 44.95 7.5 42.1 14.05 39.2 22.6 38.737890625 23.986328125 38.1 25.95 36.9990234375 29.3958984375 35.35 34.6 34.891796875 36.1953125 34.35 37.95 31.95 46.15 28.5 57.2 28.450390625 57.3650390625 28.4 57.5 27.9587890625 58.9951171875 27.55 60.35 26.0392578125 65.47734375 24.95 69.45 23.482421875 74.766015625 22.75 78.1 19.35 92.65 18.8 107.95 18.6736328125 111.1744140625 19.15 113.25 18.5421875 114.4861328125 18.45 115.5 18.35 116.65 19.05 118.4 20 120.55 20.1 121.25 20.25 121.95 20.15 123.25 20.1 124.6 20.2 125.2 20.3 126.25 20.8 127.1 21.35 128.1 22.2 128.25 22.303125 128.263671875 22.4 128.25 27.9470703125 142.4736328125 35.95 155 39.45 160.8 48.25 172.85 55.1 182.15 60.1 189.1 66.85 198.25 69.7 202 75.3 209.15 80.15 214.35 83 217.25 83.95 219.35 84.9 222 84.45 226.35 83.6 233.3 80.5 241.25 78.45 246.6 74.15 255.4 72.2013671875 251.961328125 69.75 249 67.9703125 246.7923828125 65.9 244.85 64.25 243.25 63.9 242.9 62.85 241.7 62.4 240.5 61.55 238.45 62.15 234.3 62.266796875 233.42734375 62.35 232.55 62.540625 231.1857421875 62.65 229.85 62.9197265625 227.2568359375 63 224.85 63.3318359375 217.478125 62.3 211.85 60.65 202.4 54.8 192.9 49.95 185.05 41.9 176.7 20.15 154.4 -1.95 153.4 -4.65 153.3 -6.4 152.5 -8.75 151.5 -8.7 149.6 -8.75 148.65 -8.05 147.55 -7.65 146.95 -6.55 145.75 -2.380859375 141.3724609375 0.15 135.75 1.287890625 135.712109375 2.45 134.55 6.45 130.8 3.9 122.55 3.71484375 121.9568359375 3.5 121.35 3.5361328125 120.317578125 3.5 119.25 3.2 110.65 -1.85 108.4 -3.492578125 107.5998046875 -4.65 108.05 -8.8955078125 103.6111328125 -14.35 100.8 -15.601953125 100.129296875 -16.2 99.7 -16.241796875 99.64765625 -16.3 99.6 -17.35 98.8 -17.65 97.9 -18.25 96.1 -16.4 94.4 -15 93.1 -12.5 92.1 8.05 83.85 21.25 55.65 26.1 45.1 28.1 36.1 30.5 25.2 28.95 15.75 27.55 6.75 21.4 -5.4 19.5 -9.1 19.6 -11.35 19.65 -12.6 20.25 -14.1 20.45 -14.55 21.5 -16.6 21.8796875 -17.3345703125 22.2 -18.1 24.5126953125 -22.9349609375 25.6 -28.4 Z"/>

<path fill="#CC66FF" stroke="none" d="
M 62.35 232.55
Q 62.266796875 233.42734375 62.15 234.3 61.55 238.45 62.4 240.5 62.85 241.7 63.9 242.9 64.25 243.25 65.9 244.85 67.9703125 246.7923828125 69.75 249 71.683984375 243.13671875 72.45 238 73.6 229 70 224.6 68.85 223.25 67.3 222.7 65.55 222.05 64.3 222.95 63.45 223.6 63.05 224.75 63.03203125 224.800390625 63 224.85 62.9197265625 227.2568359375 62.65 229.85 62.540625 231.1857421875 62.35 232.55
M 25.8 -29.05
L 25.75 -29.1
Q 25.7056640625 -28.7349609375 25.6 -28.4 24.5126953125 -22.9349609375 22.2 -18.1 21.8796875 -17.3345703125 21.5 -16.6 20.45 -14.55 20.25 -14.1 19.65 -12.6 19.6 -11.35 19.5 -9.1 21.4 -5.4 27.55 6.75 28.95 15.75 30.5 25.2 28.1 36.1 26.1 45.1 21.25 55.65 8.05 83.85 -12.5 92.1 -15 93.1 -16.4 94.4 -18.25 96.1 -17.65 97.9 -17.35 98.8 -16.3 99.6 -16.241796875 99.64765625 -16.2 99.7 -7.066796875 96.128515625 0 92.4 9.25 87.4 14.6 82.5 19.2376953125 78.2880859375 24.6 70.55 24.774609375 70.0291015625 24.95 69.45 26.0392578125 65.47734375 27.55 60.35 27.9587890625 58.9951171875 28.4 57.5 28.450390625 57.3650390625 28.5 57.2 31.95 46.15 34.35 37.95 34.891796875 36.1953125 35.35 34.6 36.9990234375 29.3958984375 38.1 25.95 37.9734375 1.5580078125 29.45 -21.4 27.7 -26.2 25.8 -29.05 Z"/>

<path fill="#71368A" stroke="none" d="
M 24.95 69.45
Q 24.774609375 70.0291015625 24.6 70.55 19.2376953125 78.2880859375 14.6 82.5 9.25 87.4 0 92.4 -7.066796875 96.128515625 -16.2 99.7 -15.601953125 100.129296875 -14.35 100.8 -8.8955078125 103.6111328125 -4.65 108.05 -3.492578125 107.5998046875 -1.85 108.4 3.2 110.65 3.5 119.25 3.5361328125 120.317578125 3.5 121.35 3.71484375 121.9568359375 3.9 122.55 6.45 130.8 2.45 134.55 1.287890625 135.712109375 0.15 135.75 -2.380859375 141.3724609375 -6.55 145.75 -7.65 146.95 -8.05 147.55 -8.75 148.65 -8.7 149.6 -8.75 151.5 -6.4 152.5 -4.65 153.3 -1.95 153.4 20.15 154.4 41.9 176.7 49.95 185.05 54.8 192.9 60.65 202.4 62.3 211.85 63.3318359375 217.478125 63 224.85 63.03203125 224.800390625 63.05 224.75 63.45 223.6 64.3 222.95 65.55 222.05 67.3 222.7 68.85 223.25 70 224.6 73.6 229 72.45 238 71.683984375 243.13671875 69.75 249 72.2013671875 251.961328125 74.15 255.4 78.45 246.6 80.5 241.25 83.6 233.3 84.45 226.35 84.9 222 83.95 219.35 83 217.25 80.15 214.35 75.3 209.15 69.7 202 66.85 198.25 60.1 189.1 55.1 182.15 48.25 172.85 39.45 160.8 35.95 155 27.9470703125 142.4736328125 22.4 128.25 22.303125 128.263671875 22.2 128.25 21.35 128.1 20.8 127.1 20.3 126.25 20.2 125.2 20.1 124.6 20.15 123.25 20.25 121.95 20.1 121.25 20 120.55 19.05 118.4 18.35 116.65 18.45 115.5 18.5421875 114.4861328125 19.15 113.25 18.6736328125 111.1744140625 18.8 107.95 19.35 92.65 22.75 78.1 23.482421875 74.766015625 24.95 69.45
M 25.8 -29.3
Q 25.714453125 -28.83515625 25.6 -28.4 25.7056640625 -28.7349609375 25.75 -29.1
L 25.8 -29.05
Q 27.7 -26.2 29.45 -21.4 37.9734375 1.5580078125 38.1 25.95 38.737890625 23.986328125 39.2 22.6 42.1 14.05 44.95 7.5 46.7 3.85 46.9 1.55 46.95 -1.25 45.05 -5.25 42 -11.5 36.5 -18 32.8 -22.4 25.8 -29.3 Z"/>
</g>
</defs>

<g transform="matrix( 1, 0, 0, 1, 122.3,96.95) ">
<g transform="matrix( 1, 0, 0, 1, 0,0) ">
<use xlink:href="#Bone_Archer_34_Layer1_0_FILL"/>
</g>

<g transform="matrix( 1, 0, 0, 1, 18.2,-1.35) ">
<g transform="matrix( 0.2564239501953125, -0.966522216796875, 0.966522216796875, 0.2564239501953125, -19.55,149.2) ">
<g transform="matrix( 0.65557861328125, -0.75347900390625, 0.75347900390625, 0.65557861328125, -11.65,51.6) ">
<g transform="matrix( 1, 0, 0, 1, 0,0) ">
<use xlink:href="#Duplicate_Items_Folder_Bone_Crossbow_cape_copy_0_Layer1_0_FILL"/>
</g>

<g transform="matrix( 1, 0, 0, 1, 0,0) ">
<use xlink:href="#Duplicate_Items_Folder_Bone_Crossbow_cape_copy_0_Layer0_0_FILL"/>
</g>
</g>
</g>

<g transform="matrix( -0.4659576416015625, -0.59759521484375, 0.7367706298828125, -0.4924468994140625, 38.95,147.15) ">
<g transform="matrix( 1.23980712890625, 0, 0, 1.04937744140625, -8.7,-4.35) ">
<g transform="matrix( 1, 0, 0, 1, 0,0) ">
<use xlink:href="#Skeleton_Archer_archerSkeleton_body_6_Layer0_0_FILL"/>
</g>
</g>

<g transform="matrix( 1, 0, 0, 1, 0,0) ">
<use xlink:href="#Bone_Archer_Body_6_Layer0_0_FILL"/>
</g>
</g>

<g transform="matrix( 0.0315704345703125, -0.886688232421875, 1.081695556640625, 0.03851318359375, -59.45,177.8) ">
<g transform="matrix( 1, 0, 0, 1, 0,0) ">
<use xlink:href="#Bone_Archer_Head_1_Layer3_0_FILL"/>
</g>

<g transform="matrix( 1, 0, 0, 1, 0,0) ">
<use xlink:href="#Bone_Archer_Head_1_Layer2_0_FILL"/>
</g>

<g transform="matrix( 1, 0, 0, 1, 0,0) ">
<use xlink:href="#Bone_Archer_Head_1_Layer1_0_FILL"/>
</g>

<g transform="matrix( 1, 0, 0, 1, 0,0) ">
<use xlink:href="#Bone_Archer_Head_1_Layer0_0_FILL"/>
</g>
</g>

<g transform="matrix( 1, 0, 0, 1, 0,0) ">
<use xlink:href="#Bone_Archer_Death_6_Layer1_0_FILL"/>
</g>

<g transform="matrix( -0.0418853759765625, -0.3102874755859375, -0.3102874755859375, 0.0418853759765625, 130.95,140.45) ">
<g transform="matrix( 1, 0, 0, 1, 0,0) ">
<use xlink:href="#Bone_Archer_Bow_0_Layer0_0_FILL"/>
</g>
</g>
</g>
</g>
</svg>
