
<svg xmlns="http://www.w3.org/2000/svg" version="1.1" xmlns:xlink="http://www.w3.org/1999/xlink" preserveAspectRatio="none" x="0px" y="0px" width="345px" height="325px" viewBox="0 0 345 325">
<defs>
<g id="Bone_Archer_41_Layer1_0_FILL">
<path fill="#000000" stroke="none" d="
M 106.6 93.15
Q 104.75 92.05 102.1 91.85 100.55 91.85 97.25 92.15 91.7 92.65 76.75 93.1
L 72.75 93.1
Q 68.4 89.9 63.5 87.75 57.75 85.3 48.55 83.75 45.7 83.25 44.5 83.6 43.45 83.85 42.7 84.65 41.8 85.45 41.7 86.4 41.4 88.2 43.3 89.8 45.45 91.05 46.55 91.7 47.9 92.55 49.65 94.3 48.8 94.8 48.35 95.45 47.75 96.3 47.55 97.55
L 35.55 95.85
Q 34.15 95.7 33.45 95.2 33 94.9 32.05 93.55 29.45 89.75 25.6 87.1 24 86 22.95 86 21.9 85.95 20.4 86.7 18.8 87.25 18.1 88.15 17.3 89.3 17.6 91.75 13.8 91.75 12.1 92.75 10.35 93.7 9.15 96.2 8.4 97.75 8.7 98.75 8.9 99.1 9.75 100.15
L 12.4 102.65
Q 10 103.6 7.9 105.1 6.85 105.8 6.15 106.7 5.55 107.7 5.65 108.95 5.7 110.15 6.4 111.1 7.55 112.85 10.1 113.45 11.35 113.8 14.55 113.85 13.65 115.25 14.7 116.8 14.8 116.95 14.9 117 13.25 117.15 11.45 117.3 9.7 117.55 8.85 117.9 6.95 118.6 5.45 120.4 4.3 121.7 4.15 122.85 3.95 124.6 5.5 125.8 6.45 126.65 8.45 127.25 10.65 127.9 13.1 128.25 10.95 131.2 11.45 133.5 11.75 134.8 12.9 135.7 13.95 136.5 15.4 136.7 17.45 137.05 20.6 135.8 24.3 134.25 25.65 134 25.65 138 27.8 139.45 29.15 140.3 30.5 139.9 31.55 139.7 33.3 138.4 35 137.2 35.65 136.35 36.15 135.75 37.35 133.7
L 39.5 129.4
Q 40 128.6 40.25 128.45 40.55 128.25 41.6 128.05 48.55 127.75 50.95 127.2 51.1 127.2 51.2 127.1 51.75 128.3 52.6 128.8 53.8 129.5 55.9 129.25 58.2 128.85 59.35 128.85 61.8 129 63 129 63.45 129 64.05 128.9 67.45 139.1 73.3 147.9 74.1 149 74.65 149.25 75.3 149.4 76.05 148.85 76.6 148.35 76.85 147.65 77.15 146.65 77.25 144.55 77.7 141.6 80.95 139.2 81.9 138.55 83.85 137.45 85.8 136.35 86.65 135.8 91.2 132.8 95.15 126.5
L 95.2 126.4
Q 97.4 126.2 98.95 125.85 103.9 124.75 106.85 121.85 109.95 118.75 110.95 113.45 111.6 109.9 111.15 103.9 110.45 95.65 106.6 93.15 Z"/>
</g>

<g id="Duplicate_Items_Folder_Bone_Crossbow_cape_copy_0_Layer1_0_FILL">
<path fill="#000000" stroke="none" d="
M 39.3 -37.45
Q 38.3 -37.8 37.15 -37.35 36.1 -36.95 35.35 -36.05 34.2 -34.75 33.65 -32 33.1 -28.75 32.7 -27.7 29.9 -29.35 27.95 -28.45 26.75 -27.85 26.4 -26.75 26.1 -25.95 26.2 -24.15 26.3 -22.45 26.6 -21.6 26.8 -21 27.7 -19.3
L 29.7 -16
Q 30.05 -15.3 30.05 -15.05 30.05 -14.75 29.7 -13.95 26.85 -8.9 26.15 -7 26.1212890625 -6.910546875 26.1 -6.85 25.044921875 -6.8830078125 24.3 -6.5 23.3 -5.95 22.55 -4.4 21.8 -2.6 21.3 -1.75 20.1 -0.1 19.55 0.75 19 1.65 18.5 3.1 17.95 4.75 17.65 5.55 16.85 7.65 14.75 11.3
L 9.2 20.65
Q 6.7 24.8 5.8 27.4 4.35 31.35 5.1 34.65 5.85 38.15 9.1 41.05 11.25 43 15.6 45.2 21.65 48.15 25.1 46.5 26.7 45.7 28 43.9 28.7 42.8 29.95 40.35 32.05 36.2 38.4 25.5
L 48.15 9.3
Q 49 7.85 49.3 6.95 49.75 5.55 49.35 4.5 49.054296875 3.736328125 48.2 3.05
L 54.75 -4.65
Q 55.5 -5.6 56.15 -5.9 56.55 -6.1 57.9 -6.2 61.7 -6.4 65.25 -8.05 66.7 -8.7 67.2 -9.45 67.65 -10.15 67.85 -11.55 68.15 -12.9 67.85 -13.75 67.4 -14.8 65.55 -15.6 67.25 -18.3 67.3 -19.9 67.45 -21.55 66.25 -23.45 65.45 -24.6 64.65 -24.8 64.3 -24.85 63.2 -24.65
L 60.3 -23.85
Q 60.7 -25.95 60.6 -28.05 60.6 -29.1 60.25 -29.95 59.85 -30.8 58.95 -31.25 58.05 -31.7 57.1 -31.6 55.35 -31.55 53.8 -30 53.05 -29.3 51.55 -27.05 51 -28.25 49.45 -28.15 49.3150390625 -28.1357421875 49.15 -28.1 49.89375 -29.36953125 50.55 -30.7 51.15 -32 51.3 -32.75 51.65 -34.4 51.1 -36.2 50.65 -37.55 49.95 -38.15 48.8 -39 47.3 -38.45 46.3 -38.1 44.95 -36.95 43.55 -35.7 42.2 -34.1 41.15 -36.9 39.3 -37.45
M 36.85 -24.85
Q 36.995703125 -29.3689453125 39.05 -33.3 39.3658203125 -32.6025390625 39.45 -31.55 39.5361328125 -30.4744140625 39.8 -29.8 39.8513671875 -29.220703125 39.95 -28.9 40.15 -28.3 40.65 -27.95 41.2 -27.6 41.75 -27.8 42.2 -27.9 42.7 -28.6
L 47.15 -34.2
Q 47.65 -29.9 44.05 -24.25 42.8 -22.4 43.75 -21.65 44.45 -21 45.55 -21.8 46.05 -22.2 46.9 -23.2 47.7 -23.9 48.9 -24 48.15 -22.55 48.65 -20.85 49.05 -19.7 49.8 -19.7 50.35 -19.65 50.95 -20.25 51.7 -20.95 52.35 -22.15 52.75 -22.85 53.45 -24.3 54.9 -27 56.8 -27.5 56.9 -24.45 55.45 -21.9 54.6 -20.35 54.5 -19.75 54.4 -19.15 54.7 -18.55 55 -17.95 55.6 -17.85 56.15 -17.7 57.45 -18.65 59.6 -20.2 62.25 -20.2
L 62.8 -19.2
Q 61.35 -17.4 59.35 -16.15 58.25 -15.5 57.9 -15.05 57.15 -14.2 57.6 -13.35 58.1 -12.45 59.5 -12.75 59.7947265625 -12.8130859375 60.2 -12.95 60.33984375 -12.63125 60.6 -12.4 61.05 -12 61.65 -12 62 -12 62.5 -12.2 62.75 -12.3 63.3 -12.55
L 63.3 -12.55 63.35 -12.5
Q 60.4 -10.75 56.65 -9.7 54.65 -9.15 54.4 -9.1 53.15 -8.65 52.35 -8.05 51.636328125 -7.52421875 50.5 -5.9 50.395703125 -5.94453125 50.25 -6 50.75 -6.65 50.4 -7.45 50.1 -8.3 49.3 -8.45 48.85 -8.55 47.25 -8.1 45.85 -7.75 45.4 -8.7 45.25 -9.05 45.45 -10.15 45.6 -11.05 45.2 -11.35 44.8 -11.55 44.05 -11.25
L 39.65 -9.5
Q 38.35 -11.4 38.6 -13.65 38.7 -14.7 38.4 -15 38.15 -15.25 37.35 -15.25 35.841015625 -15.19296875 34.45 -14.8 34.5353515625 -15.1087890625 34.55 -15.4 34.55 -16.4 33.8 -17.9
L 31.15 -23.45
Q 30.587890625 -24.5341796875 30.95 -25.05 31.39140625 -24.7251953125 32.1 -24.1 33.071875 -23.4318359375 33.85 -23.5 33.9859375 -23.3369140625 34.1 -23.2 35.3 -22.2 36.2 -22.9 36.75 -23.3 36.85 -24.85
M 33.6 -12.9
Q 33.935546875 -12.7796875 34.35 -12.75 35.25 -12.75 36.55 -13.4 36.58359375 -13.0087890625 36.65 -12.65 36.8462890625 -11.3046875 37.35 -9.95 37.380078125 -9.901171875 37.4 -9.85 37.712109375 -9.0697265625 38.1 -8.6 38.5904296875 -7.9662109375 39.2 -7.8 39.5638671875 -7.7271484375 40 -7.8 40.446484375 -7.8765625 40.95 -8.1 41.0205078125 -8.1154296875 41.1 -8.15 42.55 -8.85 43.05 -8.9 42.79375 -8.0029296875 43.35 -7.25 43.4240234375 -7.188671875 43.45 -7.15 43.536328125 -7.063671875 43.6 -7 44.1 -6.5 45.4 -6 47.31953125 -5.405859375 48 -6.15 47.601171875 -5.5421875 48 -4.7 48.377734375 -3.94453125 49.05 -3.65 47.6642578125 -1.5642578125 45.9 0.2 45.3041015625 0.7958984375 45 1.25
L 45.35 1.4 37.25 -2.3 35.05 -3.3 31.9 -4.75 29.5 -5.85 29.55 -5.85 33.6 -12.9
M 25.85 -3.6
Q 27.0390625 -3.122265625 28.5 -2.5 30.425 -1.6962890625 32.8 -0.65 37.3328125 1.3373046875 43.6 4.2 44.8 4.8 45.25 5.25 45.9017578125 5.983203125 45.7 6.75 45.6833984375 6.9240234375 45.6 7.1 45 8.2 42.8 7.75
L 24.75 4.25 21.9 3.7 25.85 -3.6
M 43.55 10.55
L 40.55 15.55
Q 39.85 16.75 39.95 17.45 39.15 17.85 38.4 19.15
L 31.85 29.95
Q 31.05 31.35 28.65 36.1 26.75 39.95 25.3 42.1 24.4 43.35 23.65 43.7 22.9 44.05 21.45 43.75 17.35 42.9 12.65 39.45 10.9427734375 38.17734375 9.95 37 9.3412109375 36.2826171875 9 35.6 7.7 32.95 8.65 29.55 9.2 27.65 11.15 23.9
L 17.25 12.75
Q 18.4 10.6 18.7 9.55 18.9 8.45 19.05 7.85 19.3 6.9 19.7 6.3 22.0541015625 6.8322265625 24.5 7.3
L 31.3 8.6
Q 31.5837890625 8.654296875 31.85 8.7
L 43.55 10.55 Z"/>

<path fill="#999999" stroke="none" d="
M 22.9 8.45
Q 23.2421875 7.7810546875 23.55 7.15 24.0435546875 7.2455078125 24.5 7.3 22.0541015625 6.8322265625 19.7 6.3 19.3 6.9 19.05 7.85 18.9 8.45 18.7 9.55 18.4 10.6 17.25 12.75
L 11.15 23.9
Q 9.2 27.65 8.65 29.55 7.7 32.95 9 35.6 9.3412109375 36.2826171875 9.95 37 10.8939453125 34.6552734375 11.95 32.2 14.15 27.1 19.1 16.3 21.6 10.9 22.9 8.45 Z"/>

<path fill="#666666" stroke="none" d="
M 40.55 15.55
L 43.55 10.55 31.85 8.7
Q 31.5837890625 8.654296875 31.3 8.6
L 24.5 7.3
Q 24.0435546875 7.2455078125 23.55 7.15 23.2421875 7.7810546875 22.9 8.45 21.6 10.9 19.1 16.3 14.15 27.1 11.95 32.2 10.8939453125 34.6552734375 9.95 37 10.9427734375 38.17734375 12.65 39.45 17.35 42.9 21.45 43.75 22.9 44.05 23.65 43.7 24.4 43.35 25.3 42.1 26.75 39.95 28.65 36.1 31.05 31.35 31.85 29.95
L 38.4 19.15
Q 39.15 17.85 39.95 17.45 39.85 16.75 40.55 15.55
M 40 -7.8
Q 39.5638671875 -7.7271484375 39.2 -7.8 38.5904296875 -7.9662109375 38.1 -8.6
L 37.85 -8.15
Q 36.3109375 -5.54765625 35.05 -3.3
L 37.25 -2.3 38.65 -5.15
Q 39.48125 -6.9046875 40 -7.8
M 34.35 -12.75
Q 33.935546875 -12.7796875 33.6 -12.9
L 29.55 -5.85 29.5 -5.85 31.9 -4.75
Q 32.80390625 -6.423828125 34.3 -8.85
L 36.65 -12.65
Q 36.58359375 -13.0087890625 36.55 -13.4 35.25 -12.75 34.35 -12.75 Z"/>

<path fill="#71368A" stroke="none" d="
M 45.6 7.1
Q 45.6833984375 6.9240234375 45.7 6.75 41.040234375 5.1642578125 38.15 4.25 32.2626953125 2.392578125 27.15 1.1
L 27.1 1.1
Q 27.053125 1.1017578125 26.95 1.05
L 26.95 1.05
Q 25.8984375 2.7103515625 24.75 4.25
L 42.8 7.75
Q 45 8.2 45.6 7.1 Z"/>

<path fill="#CC66FF" stroke="none" d="
M 32.8 -0.65
Q 32.9642578125 -0.571484375 33.1 -0.5 32.5080078125 -0.3232421875 31.85 -0.15
L 27.55 1
Q 27.340234375 1.0576171875 27.15 1.1 32.2626953125 2.392578125 38.15 4.25 41.040234375 5.1642578125 45.7 6.75 45.9017578125 5.983203125 45.25 5.25 44.8 4.8 43.6 4.2 37.3328125 1.3373046875 32.8 -0.65
M 39.05 -33.3
Q 36.995703125 -29.3689453125 36.85 -24.85 36.75 -23.3 36.2 -22.9 35.3 -22.2 34.1 -23.2 33.9859375 -23.3369140625 33.85 -23.5 33.071875 -23.4318359375 32.1 -24.1 31.39140625 -24.7251953125 30.95 -25.05 30.587890625 -24.5341796875 31.15 -23.45
L 33.8 -17.9
Q 34.55 -16.4 34.55 -15.4 34.5353515625 -15.1087890625 34.45 -14.8 35.841015625 -15.19296875 37.35 -15.25 38.15 -15.25 38.4 -15 38.7 -14.7 38.6 -13.65 38.35 -11.4 39.65 -9.5
L 44.05 -11.25
Q 44.8 -11.55 45.2 -11.35 45.6 -11.05 45.45 -10.15 45.25 -9.05 45.4 -8.7 45.85 -7.75 47.25 -8.1 48.85 -8.55 49.3 -8.45 50.1 -8.3 50.4 -7.45 50.75 -6.65 50.25 -6 50.395703125 -5.94453125 50.5 -5.9 51.636328125 -7.52421875 52.35 -8.05 53.15 -8.65 54.4 -9.1 54.65 -9.15 56.65 -9.7 60.4 -10.75 63.35 -12.5
L 63.3 -12.55 63.3 -12.55
Q 62.75 -12.3 62.5 -12.2 62 -12 61.65 -12 61.05 -12 60.6 -12.4 60.33984375 -12.63125 60.2 -12.95 59.7947265625 -12.8130859375 59.5 -12.75 58.1 -12.45 57.6 -13.35 57.15 -14.2 57.9 -15.05 58.25 -15.5 59.35 -16.15 61.35 -17.4 62.8 -19.2
L 62.25 -20.2
Q 59.6 -20.2 57.45 -18.65 56.15 -17.7 55.6 -17.85 55 -17.95 54.7 -18.55 54.4 -19.15 54.5 -19.75 54.6 -20.35 55.45 -21.9 56.9 -24.45 56.8 -27.5 54.9 -27 53.45 -24.3 52.75 -22.85 52.35 -22.15 51.7 -20.95 50.95 -20.25 50.35 -19.65 49.8 -19.7 49.05 -19.7 48.65 -20.85 48.15 -22.55 48.9 -24 47.7 -23.9 46.9 -23.2 46.05 -22.2 45.55 -21.8 44.45 -21 43.75 -21.65 42.8 -22.4 44.05 -24.25 47.65 -29.9 47.15 -34.2
L 42.7 -28.6
Q 42.2 -27.9 41.75 -27.8 41.2 -27.6 40.65 -27.95 40.15 -28.3 39.95 -28.9 39.8513671875 -29.220703125 39.8 -29.8 39.5361328125 -30.4744140625 39.45 -31.55 39.3658203125 -32.6025390625 39.05 -33.3 Z"/>

<path fill="#FFFFFF" stroke="none" d="
M 28.5 -2.5
Q 27.0390625 -3.122265625 25.85 -3.6
L 21.9 3.7 24.75 4.25
Q 25.8984375 2.7103515625 26.95 1.05
L 26.95 1.05
Q 27.053125 1.1017578125 27.1 1.1
L 27.15 1.1
Q 27.340234375 1.0576171875 27.55 1
L 31.85 -0.15
Q 32.5080078125 -0.3232421875 33.1 -0.5 32.9642578125 -0.571484375 32.8 -0.65 30.425 -1.6962890625 28.5 -2.5 Z"/>

<path fill="#793C00" stroke="none" d="
M 43.45 -7.15
Q 43.4240234375 -7.188671875 43.35 -7.25
L 42.85 -6.5
Q 43.1703125 -6.8203125 43.45 -7.15 Z"/>

<path fill="#333333" stroke="none" d="
M 38.65 -5.15
L 37.25 -2.3 45.35 1.4 45 1.25
Q 45.3041015625 0.7958984375 45.9 0.2 47.6642578125 -1.5642578125 49.05 -3.65 48.377734375 -3.94453125 48 -4.7 47.601171875 -5.5421875 48 -6.15 47.31953125 -5.405859375 45.4 -6 44.1 -6.5 43.6 -7 43.536328125 -7.063671875 43.45 -7.15 43.1703125 -6.8203125 42.85 -6.5
L 43.35 -7.25
Q 42.79375 -8.0029296875 43.05 -8.9 42.55 -8.85 41.1 -8.15 41.0205078125 -8.1154296875 40.95 -8.1 40.446484375 -7.8765625 40 -7.8 39.48125 -6.9046875 38.65 -5.15
M 38.1 -8.6
Q 37.712109375 -9.0697265625 37.4 -9.85 37.380078125 -9.901171875 37.35 -9.95 36.8462890625 -11.3046875 36.65 -12.65
L 34.3 -8.85
Q 32.80390625 -6.423828125 31.9 -4.75
L 35.05 -3.3
Q 36.3109375 -5.54765625 37.85 -8.15
L 38.1 -8.6 Z"/>
</g>

<g id="Duplicate_Items_Folder_Bone_Crossbow_cape_copy_0_Layer0_0_FILL">
<path fill="#000000" stroke="none" d="
M 57.4 9.55
Q 59 7.75 59.3 6.75 59.55 5.9 59.4 5.05 59.2 4.1 58.6 3.6 57.45 2.65 55.55 3.3 53.7 4.3 52.75 4.8 50.75 5.8 46.55 6.4 42.25 7 40.15 6.95 37.05 6.8 32.95 5.6 28.25 4 25.9 3.25 14.1 -0.5 1.85 0.05 0.75 0.15 0.35 0.45 -0.05 0.85 0 1.6 0.1 2.2 0.5 2.7 1.05 3.3 2.45 4.25 4.3 5.8 4.5 9.1 4.55 10.05 4.45 11.85 4.35 13.7 4.35 14.55 4.4 19 7.05 24.45 8 26.5 9.1 27.5 10.85 28.95 12.6 28.3 13.1 28.1 13.7 27.65
L 14.7 26.8
Q 15.8 26.05 17.5 25.9 18.3 25.8 20.6 25.85 28.1 26.15 34.95 24.35 42.25 22.45 47.95 18.4 52.25 15.35 57.4 9.55
M 52.85 7.7
Q 53.95 6.95 54.45 6.65 55.4 6.1 56.2 6.2
L 51.15 11.4
Q 48.45 14.1 47.35 15 46.15 15.9 44.45 16.95 35.45 22.3 24.9 22.45 20.45 22.35 18.25 22.5 14.45 22.8 12.1 24.35 11.6 24.75 11.2 24.7 10.958984375 24.678125 10.75 24.5 10.4966796875 24.3212890625 10.3 23.9 7.867578125 19.6544921875 7.5 14.85 7.4615234375 14.2353515625 7.45 13.6 7.55 11 7.6 9.7 7.6 7.4 7.1 5.85 6.75 4.95 6.6 4.55 6.3 3.75 6.25 3.2 8 3.25 11.5 3.85 20.7 5.45 25.1 6.8 27.45 7.5 32.05 9.1 36.15 10.35 39.15 10.45 40.3580078125 10.5013671875 41.7 10.4 43.01640625 10.29296875 44.45 10.05 46.2 9.75 49.7 8.9 52 8.25 52.85 7.7 Z"/>

<path fill="#CC66FF" stroke="none" d="
M 26.1 11.15
Q 28.05 11.25 31.95 11.45 36.8947265625 11.56328125 41.7 10.4 40.3580078125 10.5013671875 39.15 10.45 36.15 10.35 32.05 9.1 27.45 7.5 25.1 6.8 20.7 5.45 11.5 3.85 8 3.25 6.25 3.2 6.3 3.75 6.6 4.55 6.75 4.95 7.1 5.85 7.6 7.4 7.6 9.7 7.55 11 7.45 13.6 7.4615234375 14.2353515625 7.5 14.85 7.9068359375 15.3783203125 8.25 15.9 8.5 16.25 9.75 18.25 10.6 19.7 11.35 20.5 11.85 21.05 12.85 22.15 13.33828125 22.692578125 13.65 23.2 17.4419921875 21.7080078125 23.8 20.3 32.05 18.45 35.3 17.25 29.95 16.05 18.95 15.15
L 12.15 14.6
Q 11.95 13.25 14.55 13 15.65 12.85 17.45 12.35 19.6 11.7 20.35 11.55 22.7 11.05 26.1 11.15 Z"/>

<path fill="#71368A" stroke="none" d="
M 54.45 6.65
Q 53.95 6.95 52.85 7.7 52 8.25 49.7 8.9 46.2 9.75 44.45 10.05 43.01640625 10.29296875 41.7 10.4 36.8947265625 11.56328125 31.95 11.45 28.05 11.25 26.1 11.15 22.7 11.05 20.35 11.55 19.6 11.7 17.45 12.35 15.65 12.85 14.55 13 11.95 13.25 12.15 14.6
L 18.95 15.15
Q 29.95 16.05 35.3 17.25 32.05 18.45 23.8 20.3 17.4419921875 21.7080078125 13.65 23.2 13.33828125 22.692578125 12.85 22.15 11.85 21.05 11.35 20.5 10.6 19.7 9.75 18.25 8.5 16.25 8.25 15.9 7.9068359375 15.3783203125 7.5 14.85 7.867578125 19.6544921875 10.3 23.9 10.4966796875 24.3212890625 10.75 24.5 10.958984375 24.678125 11.2 24.7 11.6 24.75 12.1 24.35 14.45 22.8 18.25 22.5 20.45 22.35 24.9 22.45 35.45 22.3 44.45 16.95 46.15 15.9 47.35 15 48.45 14.1 51.15 11.4
L 56.2 6.2
Q 55.4 6.1 54.45 6.65 Z"/>
</g>
</defs>

<g transform="matrix( 1, 0, 0, 1, 122.3,96.95) ">
<g transform="matrix( 1, 0, 0, 1, 0,0) ">
<use xlink:href="#Bone_Archer_41_Layer1_0_FILL"/>
</g>

<g transform="matrix( 0.2971954345703125, -0.954803466796875, 0.954803466796875, 0.2971954345703125, 28.7,116.35) ">
<g transform="matrix( 0.65557861328125, -0.75347900390625, 0.75347900390625, 0.65557861328125, -11.65,51.6) ">
<g transform="matrix( 1, 0, 0, 1, 0,0) ">
<use xlink:href="#Duplicate_Items_Folder_Bone_Crossbow_cape_copy_0_Layer1_0_FILL"/>
</g>

<g transform="matrix( 1, 0, 0, 1, 0,0) ">
<use xlink:href="#Duplicate_Items_Folder_Bone_Crossbow_cape_copy_0_Layer0_0_FILL"/>
</g>
</g>
</g>
</g>
</svg>
