
<svg xmlns="http://www.w3.org/2000/svg" version="1.1" xmlns:xlink="http://www.w3.org/1999/xlink" preserveAspectRatio="none" x="0px" y="0px" width="345px" height="325px" viewBox="0 0 345 325">
<defs>
<g id="Bone_Archer_23_Layer1_0_FILL">
<path fill="#000000" stroke="none" d="
M 37.65 -53.6
Q 34.95 -53.75 33.2 -52.4 31.2005859375 -50.8533203125 30.7 -47.7 30.6494140625 -47.6404296875 30.6 -47.6 30.15 -47.2 30 -46.65 29.75 -45.85 30.2 -44.2 30.35 -43.4 32.1 -35.55 32.85 -32.45 33.05 -30.9 33.65 -27.1 33.15 -24.5
L 32.95 -23.55 25.3 -31.1
Q 23.1 -33.2 22.5 -34.15 21.35 -35.9 21.3 -35.95 20.6994140625 -36.6791015625 19.95 -36.95 19.8244140625 -37.184375 19.7 -37.4 18.5 -39.55 16.9 -40.75 14.75 -42.4 11.45 -42.5 9.913671875 -42.569921875 8.5 -42.15 6.52421875 -42.6443359375 4.65 -42.05 3.25 -41.6 2.4 -40.75 0.850390625 -39.200390625 0.75 -36.3 -0.0767578125 -35.74296875 -0.45 -34.95 -0.65 -34.45 -0.75 -33
L -0.65 -26.35
Q -0.8 -25.65 -0.85 -25.55 -1.2 -25.15 -2.3 -25.2 -5.75 -25.65 -8.65 -25.35
L -11.4 -25.1
Q -13.3 -24.75 -13.9 -24.7 -14.85 -24.55 -15.4 -24.6 -15.65 -24.6 -16.2 -24.8 -16.7 -24.95 -16.95 -24.95 -17.45 -25 -17.95 -24.6 -18.45 -24.2 -18.55 -23.7 -18.9 -22.6 -17.9 -21.5 -16.8 -20 -14.75 -18.65 -14.4 -18.4 -11.25 -16.4
L -7 -13.55
Q -5.25 -12.45 -4.4 -12.05 -3.5 -11.65 -3.05 -11.55 -2.3 -11.2 -1.8 -10.95 -0.7951171875 -10.4087890625 0.35 -9.3 0.6982421875 -8.9744140625 1.05 -8.6 3.15 -6.35 3.75 -5.85 4.6 -5.25 5.2 -5.25 5.6 -5.25 6.25 -5.55 6.55 -5.7 7.25 -6.05 8.25 -6.4 9.6 -6.45 10.05 -6.55 12.1 -6.55 12.65 -6.55 12.95 -6.6 16.6 -2 21 2 21.45 2.4 21.85 2.7 20.0369140625 4.469921875 18.8 6.25 17.53515625 5.8708984375 16.4 5.8 15.1 5.7 12.6 5.85 12.25 5.85 9.45 5.45 6 4.8 4.75 4.2 3.15 3.5 2.3 3.85 1.7 4.15 1.3 5.25 1.2009765625 5.5765625 1.15 5.9 0.7228515625 5.8263671875 0.3 5.8 -1 5.7 -3.5 5.85 -3.85 5.85 -6.65 5.45 -10.1 4.8 -11.35 4.2 -12.95 3.5 -13.8 3.85 -14.4 4.15 -14.8 5.25 -15.3 6.9 -14.15 8.35 -12.9 9.4 -12.5 10.15 -12.3 10.35 -11.65 11.8 -11.15 12.75 -10.7 13.15 -9.9 13.45 -9.7 13.7 -9.2 14.1 -9.35 15.15 -9.65 17.95 -12 20.2 -14 22 -17.1 23.3 -18.35 23.8 -18.85 24.2 -19.75 24.8 -19.9 25.65 -20.05 26.55 -19.3 27.25 -18.65 27.9 -17.7 28.05 -17.05 28.15 -15.95 28.1 -14.75 27.85 -14.15 27.75 -11.95 27.4 -7.5 27.6 -4.6787109375 27.6951171875 -2.75 27.6 -2.2515625 27.9470703125 -1.6 28.05 -0.95 28.15 0.15 28.1 1.3130859375 27.8576171875 1.9 27.75 2.409765625 28.0048828125 2.5 28.05 4 28.65 5.8 27.7 5.952734375 27.6275390625 6.1 27.5 7.260546875 27.53984375 8.6 27.6 13.05 27.75 15.25 27.45 15.9 27.4 16.15 27.35 16.8 27.25 17.15 27.4 17.5 27.45 17.9 27.7 18.5 28 18.6 28.05 18.991796875 28.206640625 19.4 28.25
L -2.65 33.55
Q -3.7451171875 33.5 -4.8 33.5 -7.35 33.45 -8.25 33.2 -9.6 32.75 -12.1 31.45 -14.8 30.4 -17.65 30.85 -18.9 30.9 -20.7 31.5 -21.65 31.85 -23.7 32.6 -24.296875 32.8095703125 -24.9 33 -26.1720703125 32.5044921875 -28.2 31.45 -30.9 30.4 -33.75 30.85 -35 30.9 -36.8 31.5 -37.75 31.85 -39.8 32.6 -44.5 34.25 -49.65 34.7 -50.15 34.7 -51 34.9 -51.75 35 -52.25 35.3 -52.85 35.6 -53.2 36.2 -53.55 36.85 -53.35 37.4 -53.15 38 -52.15 38.7 -48.2 41.6 -45.4 43.65
L -42.9 45.5
Q -41.55 46.5 -41.5 47.45 -41.45 48 -41.95 48.55 -42 48.7 -42.85 49.45 -43.9 50.5 -45.65 52.75 -46.5 53.85 -48.2 55.05 -49.1 55.75 -51 57.15 -52.4 58.1 -52.45 59.05 -52.35 59.7 -51.95 60.25 -51.55 60.75 -50.9 60.95 -50.05 61.25 -48.3 60.9 -46.4 60.55 -41.5 58.85
L -34.15 56.35
Q -33.8390625 56.241796875 -33.55 56.15 -34.138671875 56.5890625 -34.9 57.15 -36.3 58.1 -36.35 59.05 -36.25 59.7 -35.85 60.25 -35.45 60.75 -34.8 60.95 -33.95 61.25 -32.2 60.9 -30.3 60.55 -25.4 58.85
L -18.05 56.35
Q -13.45 54.75 -11.05 54.65 -10.652734375 54.6755859375 -10.3 54.7 -9.56171875 55.1712890625 -9.15 55.4 -8.95 55.45 -7.8 55.95 -6.9 56.2 -6.45 56.6 -5.7 57.1 -5.15 58.05 -4.8 58.75 -4.9 59.2 -5 59.9 -5.65 60.9 -6.35 61.65 -7.6 63.2 -7.7 63.35 -8.5 64.6 -9 65.5 -9.5 65.95 -9.65 66.2 -10 66.55 -10.4 66.9 -10.45 67.2 -10.6 67.75 -10.3 68.8 -9.85 69.9 -9.2 70.35 -8.35 70.9 -7.05 70.4 -5.65 69.75 -4.9 69.45 -4.5 69.3 -3.75 69.2 -2.6 69 -2.45 68.95 -1.65 68.75 -0.35 67.95 1.15 67.15 1.85 66.9 2.25 66.7 3.2 66.5 4.25 66.3 4.7 66.1 4.8509765625 66.0333984375 5 65.95 5.090625 66.24765625 5.25 66.5 5.39375 66.7876953125 5.65 67.1 5.6576171875 67.1544921875 5.65 67.2 5.5 67.75 5.8 68.8 6.25 69.9 6.9 70.35 7.75 70.9 9.05 70.4 9.540625 70.1720703125 9.95 70 10.0369140625 70.0244140625 10.1 70.05 8.6708984375 71.2791015625 7.95 72 7.5 72.35 7.1 72.8 6.15 72.3 4.7 72.4 4.5 72.4 1.45 72.8 0.05 72.95 -3.8 73 -5.95 72.95 -7.55 73.35 -8.6 73.7 -9.8 74.55 -10.3 74.85 -11.9 76.05
L -13.95 77.75
Q -16 79.4 -17.35 80.15 -17.9 80.4 -19.05 80.9 -20.05 81.45 -20.7 81.9 -21.25 82.45 -22.2 83.5 -22.8 83.9 -24.35 84.7 -25.75 85.3 -26.25 86.15 -26.55 86.7 -26.5 87.3 -26.45 88.05 -26.05 88.35 -25.4 88.9 -24 88.75
L -11.15 87.35
Q -10.6294921875 87.258203125 -10.4 87.4 -10.3494140625 87.825 -10.2 88.1 -10.222265625 88.1912109375 -10.3 88.3 -10.5 88.45 -10.85 88.85 -11.05 89.15 -11.05 89.65 -11.15 89.9 -11.1 90.5 -11.15 91.5 -12.05 92.9 -14.2 96.85 -17 103.05 -17.45 104.15 -17.55 104.65 -17.7 105.65 -17 106.25 -16.3 106.7 -14.55 106.15 -12.4 105.25 -11.55 104.55 -10.8 103.6 -10.45 103.25 -9.35 102.85 -8.85 102.55 -8.4 102.3 -7.8 101.5 -7.05 100.55 -6.85 100.35 -6.3 99.95 -5.3 99.4 -4.1 98.8 -3.7 98.45 -2.6 97.5 -2 97.05 -1.05 96.2 0.5 95.45 2.2 94.65 3.15 94.25 3.2798828125 94.1826171875 3.4 94.1 1.4865234375 97.7658203125 -0.9 103.05 -1.35 104.15 -1.45 104.65 -1.6 105.65 -0.9 106.25 -0.2 106.7 1.55 106.15 3.7 105.25 4.55 104.55 5.3 103.6 5.65 103.25 6.75 102.85 7.25 102.55 7.7 102.3 8.3 101.5 9.05 100.55 9.25 100.35 9.8 99.95 10.8 99.4 12 98.8 12.4 98.45 13.5 97.5 14.1 97.05 15.05 96.2 16.6 95.45 18.3 94.65 19.25 94.25 20.6 93.55 20.95 92.9 21.25 92.35 21.35 91.5 21.25 90.5 21.25 89.95 21.2615234375 89.650390625 21.3 89.25 21.3978515625 89.5017578125 21.45 89.7 21.75 90.7 22.5 91.9 22.25 92.45 22.05 92.9 20.15 96.8 19.1 104.75 18.75 106.4 19.05 107.35 19.35 108.25 20.9 109.6
L 29.65 117.2
Q 31.6 118.9 32.9 118.6 33 118.5 33.1 118.55 34.95 121.45 37.55 122.8 38.4646484375 123.3080078125 39.45 123.6 37.5900390625 125.5162109375 36.1 129.55 35.35 131.5 36 132.5 36.35 133.05 37.45 133.45 41 134.6 44.7 134.9 49.55 135.2 52 133.25 52.22421875 133.0515625 52.4 132.85 52.818359375 133.183984375 53.55 133.45 57.1 134.6 60.8 134.9 65.65 135.2 68.1 133.25 69.4 132.1 69.7 130.9 70.1 129 68.45 126.3 67.0826171875 124.0322265625 65.7 122.85 67.021484375 122.44140625 68.5 121.85 72.7873046875 120.017578125 74.6 117.7 74.6916015625 117.810546875 74.8 117.9 75.9 118.8 78.1 118.95 78.4603515625 118.966796875 78.8 118.95 78.86015625 119.57265625 78.9 120.45 79 122.1 79.75 122.85 80.1 123.15 81.1 123.6 81.4 123.7 81.65 123.8 81.3 124.1 80.95 124.5 80.45 125.2 79.35 127.05 78.15 129.4 77.95 130.75 77.85 131.65 78.15 132.1 78.5 132.7 79.85 133.05 86.05 134.45 86.2 134.5 89.85 135.1 92.55 134.45 93.4564453125 134.2646484375 94.15 133.9 94.4326171875 134.36640625 94.75 134.85 96.7 137.6 98.35 137.3 99.6 137.05 100.35 135.3 100.5677734375 134.5744140625 100.7 134.15 102.22734375 134.47578125 102.3 134.5 105.95 135.1 108.65 134.45 109.5564453125 134.2646484375 110.25 133.9 110.5326171875 134.36640625 110.85 134.85 112.8 137.6 114.45 137.3 115.7 137.05 116.45 135.3 116.75 134.3 116.95 133.85 117.25 133.1 117.6 132.6 117.9 132.1 118.95 131.1 119.9 130.25 120.2 129.6 120.6 128.75 120.4 127.65 120.35 127.05 120.05 125.7 118.85 121.5 118.85 118.75 118.85 112.75 123 106.55 125.3 103.15 128.25 100.65 131.35 97.95 134.85 96.55 135.4 96.3 136.55 95.9 137.55 95.55 138.2 95.15 140 94 140.3 92.4 140.65 90.4 138.5 88.25
L 136.85 86.7
Q 136.038671875 86.0044921875 135.55 85.35 135.9390625 84.1171875 135.75 82.15 135.6552734375 80.730078125 135.3 79.25 135.3447265625 79.18125 135.4 79.1 135.9 78.35 136.95 77.45
L 138.7 75.9
Q 140.9 73.8 140.55 71.8 140.3 70.2 138.45 69 137.85 68.65 136.85 68.2 135.75 67.8 135.15 67.55 131.65 66.15 128.6 63.35 127.1841796875 62.105078125 125.95 60.6 128.6091796875 57.8986328125 128.45 55 128.4 53.8 127.8 52.35 127.65 51.9 126.55 49.8 122.1 41.35 120.8 31.7 120.55 30.15 120.45 28.65
L 128.9 26.15
Q 129.3876953125 26.043359375 129.85 25.9 131.5556640625 26.463671875 133.15 27.5 134.9 28.95 135.9 29.2 137.2 29.5 139.75 28.75 141.8 28.25 145.6 27.1 146.592578125 26.77890625 147.5 26.5 148.391015625 26.9416015625 149.25 27.5 151 28.95 152 29.2 153.3 29.5 155.85 28.75 157.9 28.25 161.7 27.1 165.1 26 167.55 25.65 170.15 25.3 170.6 24.15 170.75 23.65 170.5 23.05 170.35 22.4 169.85 22.1 169.45 21.65 167.8 20.95 165.55 19.75 162.8 16.45 162.1 15.8 161.75 15.05 160.95 13.1 163.7 9.7
L 170.2 1.7
Q 170.95 0.85 170.95 0.35 170.95 -0.15 170.35 -0.55 169.95 -0.9 169.3 -0.85 168.6 -0.9 167 -0.1 166.2 0.3 158.95 3.65 156.1 5.1 154.65 5.7 151.8564453125 6.8740234375 149.55 7.3
L 154.1 1.7
Q 154.85 0.85 154.85 0.35 154.85 -0.15 154.25 -0.55 153.85 -0.9 153.2 -0.85 152.5 -0.9 150.9 -0.1 150.1 0.3 142.85 3.65 140 5.1 138.55 5.7 135.1 7.15 132.4 7.45
L 130.95 7.55
Q 130.1 7.6 129.55 7.9 128.8 8.35 128.2 9.65 127.65 11 127.3 11.75 127.05 12.45 125.95 13.75 125.1 15 124.75 15.75 124.3 16.9 124 17.4 123.8 17.75 123.3 18.15 122.95 18.4 122.75 18.65
L 120.4 19.3
Q 120.705078125 15.9580078125 121.4 12.65 122.25 8.85 122.4 7.75 122.75 4.95 122.15 2.95 120.9 -1.1 115.1 -4.8 110.8947265625 -7.406640625 106.35 -9.3 101.70546875 -11.255859375 96.7 -12.45 86.85 -14.95 76.9 -14.25 74.991796875 -14.1279296875 73.1 -13.9 69.773828125 -14.3259765625 66.4 -14.4 66.46328125 -14.446484375 66.5 -14.5
L 67.8 -16.95
Q 68.95 -18.9 70.85 -20.55 72.85 -21.95 73.35 -22.75 74.1 -24.05 74.05 -26.75 74.05 -28.7 73.8 -32.8 73.55 -36.25 73.85 -38.75 73.8587890625 -38.8263671875 73.85 -38.9 73.880859375 -38.962109375 73.85 -39.05 73.8802734375 -39.082421875 73.85 -39.15 73.8796875 -39.202734375 73.85 -39.25
L 73.85 -40.7
Q 73.8072265625 -40.8853515625 73.75 -41.1 73.812890625 -41.619140625 73.75 -42.15 73.4 -44.5 71.05 -45.95 68.8 -47.3 66.25 -47 62.5 -46.55 57.65 -42.55 57.3193359375 -42.273046875 57 -42.05 56.98046875 -42.079296875 56.95 -42.1 56.4 -42.45 55.75 -42.3 55.05 -42.25 54.55 -41.85 54.405078125 -41.7484375 54.2 -41.55 53.4865234375 -41.975390625 52.65 -43.25 48.8 -49.25 42.35 -52.3 39.85 -53.45 37.65 -53.6
M 18.85 -5.9
Q 19.059375 -6.137890625 19.25 -6.45 19.6376953125 -6.0267578125 19.85 -5.85 20.7 -5.25 21.3 -5.25 21.7 -5.25 22.35 -5.55 22.65 -5.7 23.35 -6.05 24.35 -6.4 25.7 -6.45 26.15 -6.55 28.2 -6.55 28.75 -6.55 29.05 -6.6 29.94609375 -5.470703125 30.85 -4.4 27.4220703125 -2.1865234375 24.25 0.45 24 0.7 23.7 0.95 23.55 0.45 23.15 -0.05 21.9 -2.25 18.85 -5.9
M 36.65 -14.8
Q 36.85 -15.4 37.25 -16.45 37.4755859375 -16.9857421875 37.5 -17.45 37.817578125 -17.14296875 38.15 -16.75 39.2 -15.7 39.95 -15.15 41 -14.45 41.45 -14 41.75 -13.7 42.15 -13.15 42.35 -12.75 42.5 -12.55
L 42.6 -10.15
Q 41.95 -9.95 41.35 -9.75 40.8087890625 -9.53125 40.25 -9.3 37.9427734375 -8.31171875 35.7 -7.15 36.094921875 -8.0623046875 36.25 -9.3 36.2798828125 -9.4953125 36.3 -9.7 36.3 -10.5 36.35 -12.3 36.4 -13.85 36.65 -14.8
M 57.55 -14
Q 57.56953125 -13.98046875 57.6 -13.95 53.0123046875 -13.4236328125 48.6 -12.2 49.85 -13.7 50.4 -14.5
L 51.7 -16.95
Q 52.1322265625 -17.6830078125 52.65 -18.4 53.28828125 -17.88671875 54.25 -16.75 55.3 -15.7 56.05 -15.15 57.1 -14.45 57.55 -14
M 121.75 23.05
Q 122.2716796875 23.484765625 122.95 23.85 121.5259765625 24.270703125 120.25 24.65 120.2412109375 24.1169921875 120.25 23.55 120.9560546875 23.33359375 121.75 23.05
M 117.7 66.2
Q 117.8140625 66.4232421875 117.9 66.6 118.0205078125 66.878515625 118.15 67.15 117.5755859375 66.8978515625 117 66.6 117.372265625 66.4146484375 117.7 66.2
M 99.95 95.4
Q 99.65 95.2 99.3 94.95 100.2462890625 92.041015625 99.85 88.95 102.374609375 88.7310546875 104.65 88.4 103.51484375 92.5650390625 101.65 96.7 100.9544921875 96.0416015625 99.95 95.4
M 117.6 97.05
Q 117.5720703125 97.1017578125 117.55 97.15 116.65 99 114.5 103.05 112.4 106.8 111.45 108.9 110.65 110.85 110.2 111.75 109.4 113.4 108.65 114.45 108.15 115.2 107.05 116.65 106.15 117.9 105.75 118.9 105.178515625 120.313671875 105.25 122.15 104.493359375 121.8541015625 103.75 121.75 103.3806640625 121.6916015625 103 121.65 102.75 120.051953125 102.75 118.75 102.75 112.75 106.9 106.55 109.2 103.15 112.15 100.65 114.7330078125 98.4001953125 117.6 97.05
M 120.85 77.45
L 121.3 77
Q 121.512109375 77.891796875 121.65 78.75
L 121.65 78.75
Q 120.9 78.55 119.5 78.9 119.450390625 78.9330078125 119.4 78.95 119.9005859375 78.2638671875 120.85 77.45
M 17.9 32.5
L 18.85 32.2
Q 20.05 31.75 20.95 31.4 21.0072265625 31.56875 21.05 31.75
L 17.9 32.5
M 3.6 40.8
L 3.9 40.8
Q 13.31484375 38.6470703125 22.5 36 22.9435546875 37.2310546875 23.4 38.55 23.459375 38.742578125 23.5 38.9 23.359375 38.9830078125 23.2 39.05 22.25 39.4 21.75 40.25 20.65 41.55 20.75 43.75 20.78515625 44.48828125 21.15 45.95
L 21.1 45.95
Q 19.75 45.2 19.05 44.85 18.224609375 44.483203125 17.4 44.3 17.2216796875 44.0388671875 17.05 43.85 16.05 42.5 14.3 41.7 13 41.2 12.1 41.3 10.7 41.65 10.15 43.1 9.75 44.05 9.7 45.9 9.705859375 46.1181640625 9.7 46.35 9.3466796875 46.52265625 8.95 46.7 8.786328125 46.6287109375 8.7 46.6 8.35 46.6 6.85 46.35 5.65 46.25 5 45.95 3.65 45.2 2.95 44.85 2.0462890625 44.4484375 1.15 44.25 2.8177734375 42.266796875 3.6 40.8
M 17.05 72.4
Q 17.128515625 72.619140625 17.2 72.8 16.3421875 72.9041015625 14.8 72.95 15.5828125 72.3376953125 16.5 71.5 16.734375 71.723828125 17.05 72.4
M 5.9 87.7
Q 6.05 87.95 5.8 88.3 5.63125 88.4265625 5.35 88.7 5.4984375 88.1568359375 5.75 87.45 5.86640625 87.53203125 5.9 87.7
M 49.6 122.85
Q 50.851171875 122.46484375 52.25 121.9 52.9154296875 122.4185546875 53.65 122.8 54.564453125 123.3080078125 55.55 123.6 54.19375 125.0109375 53 127.55 52.7458984375 126.9478515625 52.35 126.3 50.9828125 124.0322265625 49.6 122.85
M 89.45 109.6
Q 89.85 110.2 90.55 110.9 92.1078125 112.5271484375 93.3 113.2 92.93359375 113.9130859375 92.55 114.45 92.05 115.2 90.95 116.65 90.05 117.9 89.65 118.9 89.078515625 120.313671875 89.15 122.15 88.393359375 121.8541015625 87.65 121.75 86.7 121.6 85.8 121.75 86 120.95 85.95 119.8 85.8744140625 118.1 85.55 116.9
L 85.55 116.9
Q 85.9 116.2 86 115 86.1 113.45 86.15 113.1 86.5 111.8 87.65 110.7 88.45 110 89.45 109.6 Z"/>
</g>

<g id="Duplicate_Items_Folder_Bone_Crossbow_cape_copy_1_Layer1_0_FILL">
<path fill="#000000" stroke="none" d="
M 39.3 -37.45
Q 38.3 -37.8 37.15 -37.35 36.1 -36.95 35.35 -36.05 34.2 -34.75 33.65 -32 33.1 -28.75 32.7 -27.7 29.9 -29.35 27.95 -28.45 26.75 -27.85 26.4 -26.75 26.1 -25.95 26.2 -24.15 26.3 -22.45 26.6 -21.6 26.8 -21 27.7 -19.3
L 29.7 -16
Q 30.05 -15.3 30.05 -15.05 30.05 -14.75 29.7 -13.95 26.85 -8.9 26.15 -7 26.1212890625 -6.910546875 26.1 -6.85 25.044921875 -6.8830078125 24.3 -6.5 23.3 -5.95 22.55 -4.4 21.8 -2.6 21.3 -1.75 20.1 -0.1 19.55 0.75 19 1.65 18.5 3.1 17.95 4.75 17.65 5.55 16.85 7.65 14.75 11.3
L 9.2 20.65
Q 6.7 24.8 5.8 27.4 4.35 31.35 5.1 34.65 5.85 38.15 9.1 41.05 11.25 43 15.6 45.2 21.65 48.15 25.1 46.5 26.7 45.7 28 43.9 28.7 42.8 29.95 40.35 32.05 36.2 38.4 25.5
L 48.15 9.3
Q 49 7.85 49.3 6.95 49.75 5.55 49.35 4.5 49.054296875 3.736328125 48.2 3.05
L 54.75 -4.65
Q 55.5 -5.6 56.15 -5.9 56.55 -6.1 57.9 -6.2 61.7 -6.4 65.25 -8.05 66.7 -8.7 67.2 -9.45 67.65 -10.15 67.85 -11.55 68.15 -12.9 67.85 -13.75 67.4 -14.8 65.55 -15.6 67.25 -18.3 67.3 -19.9 67.45 -21.55 66.25 -23.45 65.45 -24.6 64.65 -24.8 64.3 -24.85 63.2 -24.65
L 60.3 -23.85
Q 60.7 -25.95 60.6 -28.05 60.6 -29.1 60.25 -29.95 59.85 -30.8 58.95 -31.25 58.05 -31.7 57.1 -31.6 55.35 -31.55 53.8 -30 53.05 -29.3 51.55 -27.05 51 -28.25 49.45 -28.15 49.3150390625 -28.1357421875 49.15 -28.1 49.89375 -29.36953125 50.55 -30.7 51.15 -32 51.3 -32.75 51.65 -34.4 51.1 -36.2 50.65 -37.55 49.95 -38.15 48.8 -39 47.3 -38.45 46.3 -38.1 44.95 -36.95 43.55 -35.7 42.2 -34.1 41.15 -36.9 39.3 -37.45
M 36.85 -24.85
Q 36.995703125 -29.3689453125 39.05 -33.3 39.3658203125 -32.6025390625 39.45 -31.55 39.5361328125 -30.4744140625 39.8 -29.8 39.8513671875 -29.220703125 39.95 -28.9 40.15 -28.3 40.65 -27.95 41.2 -27.6 41.75 -27.8 42.2 -27.9 42.7 -28.6
L 47.15 -34.2
Q 47.65 -29.9 44.05 -24.25 42.8 -22.4 43.75 -21.65 44.45 -21 45.55 -21.8 46.05 -22.2 46.9 -23.2 47.7 -23.9 48.9 -24 48.15 -22.55 48.65 -20.85 49.05 -19.7 49.8 -19.7 50.35 -19.65 50.95 -20.25 51.7 -20.95 52.35 -22.15 52.75 -22.85 53.45 -24.3 54.9 -27 56.8 -27.5 56.9 -24.45 55.45 -21.9 54.6 -20.35 54.5 -19.75 54.4 -19.15 54.7 -18.55 55 -17.95 55.6 -17.85 56.15 -17.7 57.45 -18.65 59.6 -20.2 62.25 -20.2
L 62.8 -19.2
Q 61.35 -17.4 59.35 -16.15 58.25 -15.5 57.9 -15.05 57.15 -14.2 57.6 -13.35 58.1 -12.45 59.5 -12.75 59.7947265625 -12.8130859375 60.2 -12.95 60.33984375 -12.63125 60.6 -12.4 61.05 -12 61.65 -12 62 -12 62.5 -12.2 62.75 -12.3 63.3 -12.55
L 63.3 -12.55 63.35 -12.5
Q 60.4 -10.75 56.65 -9.7 54.65 -9.15 54.4 -9.1 53.15 -8.65 52.35 -8.05 51.636328125 -7.52421875 50.5 -5.9 50.395703125 -5.94453125 50.25 -6 50.75 -6.65 50.4 -7.45 50.1 -8.3 49.3 -8.45 48.85 -8.55 47.25 -8.1 45.85 -7.75 45.4 -8.7 45.25 -9.05 45.45 -10.15 45.6 -11.05 45.2 -11.35 44.8 -11.55 44.05 -11.25
L 39.65 -9.5
Q 38.35 -11.4 38.6 -13.65 38.7 -14.7 38.4 -15 38.15 -15.25 37.35 -15.25 35.841015625 -15.19296875 34.45 -14.8 34.5353515625 -15.1087890625 34.55 -15.4 34.55 -16.4 33.8 -17.9
L 31.15 -23.45
Q 30.587890625 -24.5341796875 30.95 -25.05 31.39140625 -24.7251953125 32.1 -24.1 33.071875 -23.4318359375 33.85 -23.5 33.9859375 -23.3369140625 34.1 -23.2 35.3 -22.2 36.2 -22.9 36.75 -23.3 36.85 -24.85
M 33.6 -12.9
Q 33.935546875 -12.7796875 34.35 -12.75 35.25 -12.75 36.55 -13.4 36.58359375 -13.0087890625 36.65 -12.65 36.8462890625 -11.3046875 37.35 -9.95 37.380078125 -9.901171875 37.4 -9.85 37.712109375 -9.0697265625 38.1 -8.6 38.5904296875 -7.9662109375 39.2 -7.8 39.5638671875 -7.7271484375 40 -7.8 40.446484375 -7.8765625 40.95 -8.1 41.0205078125 -8.1154296875 41.1 -8.15 42.55 -8.85 43.05 -8.9 42.79375 -8.0029296875 43.35 -7.25 43.4240234375 -7.188671875 43.45 -7.15 43.536328125 -7.063671875 43.6 -7 44.1 -6.5 45.4 -6 47.31953125 -5.405859375 48 -6.15 47.601171875 -5.5421875 48 -4.7 48.377734375 -3.94453125 49.05 -3.65 47.6642578125 -1.5642578125 45.9 0.2 45.3041015625 0.7958984375 45 1.25
L 45.35 1.4 37.25 -2.3 35.05 -3.3 31.9 -4.75 29.5 -5.85 29.55 -5.85 33.6 -12.9
M 25.85 -3.6
Q 27.0390625 -3.122265625 28.5 -2.5 30.425 -1.6962890625 32.8 -0.65 37.3328125 1.3373046875 43.6 4.2 44.8 4.8 45.25 5.25 45.9017578125 5.983203125 45.7 6.75 45.6833984375 6.9240234375 45.6 7.1 45 8.2 42.8 7.75
L 24.75 4.25 21.9 3.7 25.85 -3.6
M 43.55 10.55
L 40.55 15.55
Q 39.85 16.75 39.95 17.45 39.15 17.85 38.4 19.15
L 31.85 29.95
Q 31.05 31.35 28.65 36.1 26.75 39.95 25.3 42.1 24.4 43.35 23.65 43.7 22.9 44.05 21.45 43.75 17.35 42.9 12.65 39.45 10.9427734375 38.17734375 9.95 37 9.3412109375 36.2826171875 9 35.6 7.7 32.95 8.65 29.55 9.2 27.65 11.15 23.9
L 17.25 12.75
Q 18.4 10.6 18.7 9.55 18.9 8.45 19.05 7.85 19.3 6.9 19.7 6.3 22.0541015625 6.8322265625 24.5 7.3
L 31.3 8.6
Q 31.5837890625 8.654296875 31.85 8.7
L 43.55 10.55 Z"/>

<path fill="#999999" stroke="none" d="
M 22.9 8.45
Q 23.2421875 7.7810546875 23.55 7.15 24.0435546875 7.2455078125 24.5 7.3 22.0541015625 6.8322265625 19.7 6.3 19.3 6.9 19.05 7.85 18.9 8.45 18.7 9.55 18.4 10.6 17.25 12.75
L 11.15 23.9
Q 9.2 27.65 8.65 29.55 7.7 32.95 9 35.6 9.3412109375 36.2826171875 9.95 37 10.8939453125 34.6552734375 11.95 32.2 14.15 27.1 19.1 16.3 21.6 10.9 22.9 8.45 Z"/>

<path fill="#666666" stroke="none" d="
M 40.55 15.55
L 43.55 10.55 31.85 8.7
Q 31.5837890625 8.654296875 31.3 8.6
L 24.5 7.3
Q 24.0435546875 7.2455078125 23.55 7.15 23.2421875 7.7810546875 22.9 8.45 21.6 10.9 19.1 16.3 14.15 27.1 11.95 32.2 10.8939453125 34.6552734375 9.95 37 10.9427734375 38.17734375 12.65 39.45 17.35 42.9 21.45 43.75 22.9 44.05 23.65 43.7 24.4 43.35 25.3 42.1 26.75 39.95 28.65 36.1 31.05 31.35 31.85 29.95
L 38.4 19.15
Q 39.15 17.85 39.95 17.45 39.85 16.75 40.55 15.55
M 40 -7.8
Q 39.5638671875 -7.7271484375 39.2 -7.8 38.5904296875 -7.9662109375 38.1 -8.6
L 37.85 -8.15
Q 36.3109375 -5.54765625 35.05 -3.3
L 37.25 -2.3 38.65 -5.15
Q 39.48125 -6.9046875 40 -7.8
M 34.35 -12.75
Q 33.935546875 -12.7796875 33.6 -12.9
L 29.55 -5.85 29.5 -5.85 31.9 -4.75
Q 32.80390625 -6.423828125 34.3 -8.85
L 36.65 -12.65
Q 36.58359375 -13.0087890625 36.55 -13.4 35.25 -12.75 34.35 -12.75 Z"/>

<path fill="#71368A" stroke="none" d="
M 45.6 7.1
Q 45.6833984375 6.9240234375 45.7 6.75 41.040234375 5.1642578125 38.15 4.25 32.2626953125 2.392578125 27.15 1.1
L 27.1 1.1
Q 27.053125 1.1017578125 26.95 1.05
L 26.95 1.05
Q 25.8984375 2.7103515625 24.75 4.25
L 42.8 7.75
Q 45 8.2 45.6 7.1 Z"/>

<path fill="#CC66FF" stroke="none" d="
M 32.8 -0.65
Q 32.9642578125 -0.571484375 33.1 -0.5 32.5080078125 -0.3232421875 31.85 -0.15
L 27.55 1
Q 27.340234375 1.0576171875 27.15 1.1 32.2626953125 2.392578125 38.15 4.25 41.040234375 5.1642578125 45.7 6.75 45.9017578125 5.983203125 45.25 5.25 44.8 4.8 43.6 4.2 37.3328125 1.3373046875 32.8 -0.65
M 39.05 -33.3
Q 36.995703125 -29.3689453125 36.85 -24.85 36.75 -23.3 36.2 -22.9 35.3 -22.2 34.1 -23.2 33.9859375 -23.3369140625 33.85 -23.5 33.071875 -23.4318359375 32.1 -24.1 31.39140625 -24.7251953125 30.95 -25.05 30.587890625 -24.5341796875 31.15 -23.45
L 33.8 -17.9
Q 34.55 -16.4 34.55 -15.4 34.5353515625 -15.1087890625 34.45 -14.8 35.841015625 -15.19296875 37.35 -15.25 38.15 -15.25 38.4 -15 38.7 -14.7 38.6 -13.65 38.35 -11.4 39.65 -9.5
L 44.05 -11.25
Q 44.8 -11.55 45.2 -11.35 45.6 -11.05 45.45 -10.15 45.25 -9.05 45.4 -8.7 45.85 -7.75 47.25 -8.1 48.85 -8.55 49.3 -8.45 50.1 -8.3 50.4 -7.45 50.75 -6.65 50.25 -6 50.395703125 -5.94453125 50.5 -5.9 51.636328125 -7.52421875 52.35 -8.05 53.15 -8.65 54.4 -9.1 54.65 -9.15 56.65 -9.7 60.4 -10.75 63.35 -12.5
L 63.3 -12.55 63.3 -12.55
Q 62.75 -12.3 62.5 -12.2 62 -12 61.65 -12 61.05 -12 60.6 -12.4 60.33984375 -12.63125 60.2 -12.95 59.7947265625 -12.8130859375 59.5 -12.75 58.1 -12.45 57.6 -13.35 57.15 -14.2 57.9 -15.05 58.25 -15.5 59.35 -16.15 61.35 -17.4 62.8 -19.2
L 62.25 -20.2
Q 59.6 -20.2 57.45 -18.65 56.15 -17.7 55.6 -17.85 55 -17.95 54.7 -18.55 54.4 -19.15 54.5 -19.75 54.6 -20.35 55.45 -21.9 56.9 -24.45 56.8 -27.5 54.9 -27 53.45 -24.3 52.75 -22.85 52.35 -22.15 51.7 -20.95 50.95 -20.25 50.35 -19.65 49.8 -19.7 49.05 -19.7 48.65 -20.85 48.15 -22.55 48.9 -24 47.7 -23.9 46.9 -23.2 46.05 -22.2 45.55 -21.8 44.45 -21 43.75 -21.65 42.8 -22.4 44.05 -24.25 47.65 -29.9 47.15 -34.2
L 42.7 -28.6
Q 42.2 -27.9 41.75 -27.8 41.2 -27.6 40.65 -27.95 40.15 -28.3 39.95 -28.9 39.8513671875 -29.220703125 39.8 -29.8 39.5361328125 -30.4744140625 39.45 -31.55 39.3658203125 -32.6025390625 39.05 -33.3 Z"/>

<path fill="#FFFFFF" stroke="none" d="
M 28.5 -2.5
Q 27.0390625 -3.122265625 25.85 -3.6
L 21.9 3.7 24.75 4.25
Q 25.8984375 2.7103515625 26.95 1.05
L 26.95 1.05
Q 27.053125 1.1017578125 27.1 1.1
L 27.15 1.1
Q 27.340234375 1.0576171875 27.55 1
L 31.85 -0.15
Q 32.5080078125 -0.3232421875 33.1 -0.5 32.9642578125 -0.571484375 32.8 -0.65 30.425 -1.6962890625 28.5 -2.5 Z"/>

<path fill="#793C00" stroke="none" d="
M 43.45 -7.15
Q 43.4240234375 -7.188671875 43.35 -7.25
L 42.85 -6.5
Q 43.1703125 -6.8203125 43.45 -7.15 Z"/>

<path fill="#333333" stroke="none" d="
M 38.65 -5.15
L 37.25 -2.3 45.35 1.4 45 1.25
Q 45.3041015625 0.7958984375 45.9 0.2 47.6642578125 -1.5642578125 49.05 -3.65 48.377734375 -3.94453125 48 -4.7 47.601171875 -5.5421875 48 -6.15 47.31953125 -5.405859375 45.4 -6 44.1 -6.5 43.6 -7 43.536328125 -7.063671875 43.45 -7.15 43.1703125 -6.8203125 42.85 -6.5
L 43.35 -7.25
Q 42.79375 -8.0029296875 43.05 -8.9 42.55 -8.85 41.1 -8.15 41.0205078125 -8.1154296875 40.95 -8.1 40.446484375 -7.8765625 40 -7.8 39.48125 -6.9046875 38.65 -5.15
M 38.1 -8.6
Q 37.712109375 -9.0697265625 37.4 -9.85 37.380078125 -9.901171875 37.35 -9.95 36.8462890625 -11.3046875 36.65 -12.65
L 34.3 -8.85
Q 32.80390625 -6.423828125 31.9 -4.75
L 35.05 -3.3
Q 36.3109375 -5.54765625 37.85 -8.15
L 38.1 -8.6 Z"/>
</g>

<g id="Duplicate_Items_Folder_Bone_Crossbow_cape_copy_1_Layer0_0_FILL">
<path fill="#000000" stroke="none" d="
M 15.8 -0.25
Q 13.5 -0.95 8.45 -1.45 6.35 -1.75 5.5 -0.85 5.05 -0.25 5.05 1.45 5.45 10.45 2.4 18.95 1.65 21.1 2.6 21.9 3.05 22.3 4.2 22.2 5.3 22.15 7.4 21.95 9.3 21.8 10.6 22.1 11.8 22.4 13.5 23.3
L 21.15 27.25
Q 23.65 28.55 25.05 29.05 27.25 29.95 29.15 30.1 31.25 30.25 33.8 29.55 35.5 29.1 38.25 27.95 41.6 26.55 43.2 25.45 44.8 24.35 47.45 21.4 53.65 14.35 58.8 7 59.75 5.8 59.25 5.1 58.45 4.15 56.75 5.5 47.75 12.5 31.8 11.3 28.15 11 26.6 9.9 25.4 9.05 24.15 6.95 22.55 4.25 22.05 3.65 19.9 0.95 15.8 -0.25
M 45.95 18.45
Q 43.55 21.05 42.45 21.95 39 24.75 32.45 26.5 30.3 27.05 28.9 26.95 27.75 26.85 26.1 26.2 20.3 24 14.9 21.4 12.85 20.45 11.6 20.1 10.25 19.75 8 19.8 5.05 19.8 4.4 19.75 4.4302734375 19.531640625 4.45 19.3 4.634375 18.4271484375 4.95 17.35 5.2828125 16.3392578125 5.75 15.15 7.1 11.7 7.4 10.65 7.9 8.65 7.95 6.1 8 4.55 7.85 1.45 11.55 1.75 15.45 2.75 17.75 3.45 18.7 4.2 19.45 4.8 20.45 6.2
L 22.05 8.4
Q 23.65 10.65 24.85 11.45 26.15 12.35 29.05 12.95 35.15 14.1 41.35 13.45 42.1673828125 13.3650390625 42.95 13.25 48.3453125 12.4861328125 53.3 10.4
L 45.95 18.45 Z"/>

<path fill="#CC66FF" stroke="none" d="
M 42.95 13.25
Q 42.1673828125 13.3650390625 41.35 13.45 35.15 14.1 29.05 12.95 26.15 12.35 24.85 11.45 23.65 10.65 22.05 8.4
L 20.45 6.2
Q 19.45 4.8 18.7 4.2 17.75 3.45 15.45 2.75 11.55 1.75 7.85 1.45 8 4.55 7.95 6.1 7.9 8.65 7.4 10.65 7.1 11.7 5.75 15.15 5.2828125 16.3392578125 4.95 17.35 5.639453125 17.3060546875 6.3 17.3 8.9 17.3 13.9 18.3 17.75 18.95 19.85 19.75 20.75 20.05 22.85 20.95 24.75 21.75 25.85 22.1 28.9 22.95 32.15 22.45 35.35 21.9 37.95 20.05 31.8 20.3 24.7 18 19.45 16.3 12.2 12.55 12 12.05 12.5 11.6 12.95 11.2 13.5 11.25 14.25 11.25 15.6 11.9 16.2 12.1 17.1 12.1 17.6 12.15 18.65 12.15 19.65 12.25 21 12.65 21.75 12.85 23.25 13.35 25.4 14 30.05 14.5 34.25 15 36.65 14.75 39.3 14.55 42.45 13.45 42.698046875 13.35859375 42.95 13.25 Z"/>

<path fill="#71368A" stroke="none" d="
M 42.45 21.95
Q 43.55 21.05 45.95 18.45
L 53.3 10.4
Q 48.3453125 12.4861328125 42.95 13.25 42.698046875 13.35859375 42.45 13.45 39.3 14.55 36.65 14.75 34.25 15 30.05 14.5 25.4 14 23.25 13.35 21.75 12.85 21 12.65 19.65 12.25 18.65 12.15 17.6 12.15 17.1 12.1 16.2 12.1 15.6 11.9 14.25 11.25 13.5 11.25 12.95 11.2 12.5 11.6 12 12.05 12.2 12.55 19.45 16.3 24.7 18 31.8 20.3 37.95 20.05 35.35 21.9 32.15 22.45 28.9 22.95 25.85 22.1 24.75 21.75 22.85 20.95 20.75 20.05 19.85 19.75 17.75 18.95 13.9 18.3 8.9 17.3 6.3 17.3 5.639453125 17.3060546875 4.95 17.35 4.634375 18.4271484375 4.45 19.3 4.4302734375 19.531640625 4.4 19.75 5.05 19.8 8 19.8 10.25 19.75 11.6 20.1 12.85 20.45 14.9 21.4 20.3 24 26.1 26.2 27.75 26.85 28.9 26.95 30.3 27.05 32.45 26.5 39 24.75 42.45 21.95 Z"/>
</g>

<g id="Skeleton_Archer_archerSkeleton_body_0_Layer0_0_FILL">
<path fill="#000000" stroke="none" d="
M 13.25 35.55
Q 12.65 34.65 11.45 34.35 10.35 34.05 9.25 34.45 7.9 34.9 6.95 36.1 6 37.25 5.75 38.7 5.5 40 5.4 40.2 5.25 40.6 4.75 41.35 4.25 42.2 4.25 43.1 4.25 44.1 4.85 44.7 5.0486328125 44.8986328125 5.3 45.05 2.9673828125 45.2978515625 1.75 45.95 -1.2 47.45 -3.4 52.9 -4.2 54.85 -3.5 55.85 -3.15 56.35 -1.95 56.75 1.8 57.9 5.75 58.2 10.9 58.5 13.5 56.55 14.9 55.45 15.2 54.25 15.65 52.35 13.9 49.7 11.696875 46.3494140625 9.5 45.45 10.0291015625 45.6466796875 10.5 45.95 10.9162109375 45.82421875 11.3 45.55 12.3 44.85 12.85 43.7 13.5 42.25 13.7 39.05 13.9 36.55 13.25 35.55
M 7.3 43.1
L 6.85 42.9
Q 6.55 42.65 6.75 41.9 7.05 40.85 7.4 40.45
L 8.3 39.7
Q 8.55 39.45 8.75 38.95 9.05 38.3 9.15 38.15 9.85 37.15 10.65 37.5 10.95 39.75 10.65 42 10.55 42.9 10.15 43.25 9.55 43.75 8.3 43.35
L 7.3 43.1
M 5.6 48.15
Q 7.7 48.15 8.65 48.45 10.35 48.95 10.95 50.35 11.05 50.65 11.2 51.55 11.3 52.3 11.5 52.7 11.85 53.25 11.8 53.5 11.75 54.1 10.75 54.2 6.9 54.95 4.45 55.05 1.45 55.15 -1.35 54.45 -0.45 51.95 0.25 50.85 1.55 48.95 3.3 48.4 4.25 48.15 5.6 48.15
M 49.65 43.3
Q 49.55 41.05 48.95 39.7 48.15 37.8 46.45 37.05 44.45 36.25 42.95 37.5 42.45 37.95 42.1 38.6 41.55 39.45 41.55 40 41.55 40.45 41.9 41.3 42.05 41.75 42.15 43.9 42.25 45.55 43.05 46.3 43.4 46.6 44.5 47.05 44.7865234375 47.154296875 45.05 47.2 44.6984375 47.5310546875 44.35 47.9 43.8 48.6 42.65 50.45 41.35 52.75 41.15 54.1 41.05 55 41.35 55.45 41.7 56.05 43.15 56.35 49.75 57.75 49.9 57.8 53.8 58.4 56.65 57.75 59 57.3 59.95 55.95 60.6 55.1 60.65 53.85 60.65 52.7 60.15 51.6 59.5 50.1 57.25 48.15 54.1 45.55 51.45 45.2 50.4306640625 45.0640625 49.45 45.15 49.71484375 44.401171875 49.65 43.3
M 46.6 41.95
Q 46.65 42.2 46.6 43 46.6 43.65 46.75 44 46.55 44.4 46 44.5 45.5 44.6 45.1 44.45
L 44.5 44.2
Q 44.05 43.8 43.95 42.95 43.75 41.35 44.5 40.45 44.8 40.15 45 40.1 45.2 40.05 45.85 40.2 45.95 40.45 46.25 41.05 46.5 41.6 46.6 41.95
M 51.35 48.25
Q 52.1 48.4 53.4 49.2 56.25 51 57.1 52.25 57.75 53.2 57.3 53.75 57.05 54.15 56.2 54.25 50.8 55.05 44.7 53.75 44.05 53.65 43.8 53.3 43.65 53 43.85 52.35 44.3 51.4 46.1 50 49.3 47.75 51.35 48.25 Z"/>

<path fill="#D7D7C5" stroke="none" d="
M 8.65 48.45
Q 7.7 48.15 5.6 48.15 4.25 48.15 3.3 48.4 1.55 48.95 0.25 50.85 -0.45 51.95 -1.35 54.45 1.45 55.15 4.45 55.05 6.9 54.95 10.75 54.2 11.75 54.1 11.8 53.5 11.85 53.25 11.5 52.7 11.3 52.3 11.2 51.55 11.05 50.65 10.95 50.35 10.35 48.95 8.65 48.45
M 6.85 42.9
L 7.3 43.1 8.3 43.35
Q 9.55 43.75 10.15 43.25 10.55 42.9 10.65 42 10.95 39.75 10.65 37.5 9.85 37.15 9.15 38.15 9.05 38.3 8.75 38.95 8.55 39.45 8.3 39.7
L 7.4 40.45
Q 7.05 40.85 6.75 41.9 6.55 42.65 6.85 42.9
M 53.4 49.2
Q 52.1 48.4 51.35 48.25 49.3 47.75 46.1 50 44.3 51.4 43.85 52.35 43.65 53 43.8 53.3 44.05 53.65 44.7 53.75 50.8 55.05 56.2 54.25 57.05 54.15 57.3 53.75 57.75 53.2 57.1 52.25 56.25 51 53.4 49.2
M 46.6 43
Q 46.65 42.2 46.6 41.95 46.5 41.6 46.25 41.05 45.95 40.45 45.85 40.2 45.2 40.05 45 40.1 44.8 40.15 44.5 40.45 43.75 41.35 43.95 42.95 44.05 43.8 44.5 44.2
L 45.1 44.45
Q 45.5 44.6 46 44.5 46.55 44.4 46.75 44 46.6 43.65 46.6 43 Z"/>
</g>

<g id="Bone_Archer_Body_0_Layer0_0_FILL">
<path fill="#000000" stroke="none" d="
M 49.2 6.4
Q 48.6 4.6 47.45 3.6 46.3 2.5 43.8 1.75 40.1 0.65 32.6 0.65 25.1 0.65 17.7 0.8
L 2.7 1.05
Q 1.25 1.05 0.35 1.55 -0.2 1.95 -0.45 2.75 -0.65 3.15 -0.9 4.1 -1.25 5 -2.5 6.35 -3.8 7.8 -4.15 8.6 -4.8 9.9 -4.4 11.35 -4 12.8 -2.8 13.7 -2.05 14.25 -0.5 15.15 0.1 15.6 0.9 16.35 0.1 16.8 -0.65 17.35 -2.05 18.4 -2.7 19.55 -3.35 21 -2.85 23.85 -2.6 25.15 -2.1 25.55 -1.3 26.25 0.55 26.15 4 26 8.25 25.25 9.05 25.1 10.2 24.8
L 10.4 25.4
Q 10.45 25.65 10.6 26.05 9.05 26.35 8.1 26.55 5.5 27.1 3.7 27.75 0.55 28.8 -0.7 30.55 -1.45 31.6 -1.4 32.85 -1.3 34.15 -0.3 34.95 0.8 35.8 3.65 36 8.1 36.25 10.45 36.1 12.7 35.95 14.6 35.45 15.35 38.1 16.9 39.1 18.35 40 21.25 40.2 24.1 40.3 26.5 40 30.05 39.55 31.1 38.05 31.55 37.35 31.65 36.1 31.8 34.5 31.9 34.1 32.35 32.75 33.85 31.65 34.9 30.9 36.25 30.5 36.75 31.1 37.7 31.85 40.65 34.25 42.7 34.7 44.55 35.05 48.2 34.3 51.3 33.65 51.7 32.25 52 31.15 50.95 30.2 50.4 29.7 48.9 28.95 47.85 28.45 47.1 28.05 47.45 27.8 47.45 27.45
L 47.35 26.85 47.35 26.8
Q 49.1 26.75 50.2 26.25 51.4 25.75 52.8 24.35 54.35 22.95 54.65 21.65 55.05 20 53.5 18.25 52.45 16.95 50.1 15.75 49.7 15.55 49.2 15.3 51 11 49.2 6.4
M 41.75 4.75
Q 42.8 5.1 43.5 5.4 41.05 7.95 37.5 9.8 36.45 10.4 35.4 10.85 33.15 11.75 30.8 12.35 26.7 13.25 22.25 12.9
L 16.85 12.3
Q 16.35 12.2 16 12.2 14.05 12 13.75 11.9 12.3 11.4 11.6 11.25 10.95 11.1 10.05 11.1 8.8 11.1 8.4 11.05 7.55 10.95 6.95 10.6 6.25 10.1 6.2 9.5 5.8 9.55 5.05 9.55
L 6.75 11.6
Q 7.1 12.15 7.55 12.45 8.1 12.75 9.35 12.8 10.65 12.85 11.15 13.1 11.35 13.2 11.6 13.4 11.9 13.55 12.25 13.85 12.2919921875 13.8919921875 12.35 13.9
L 12.4 13.9
Q 12.95 14.1 13.75 14.2 14.45 14.25 16.6 14.7 17.7 14.85 19.2 15.1 24.35 16 28.2 15.85 27.95 15.9 27.7 15.95 25.55 16.55 23.65 17 19.9 17.85 17.1 18.15 16.3 18.2 15.6 18.25 13.7 18.35 12.55 18 11.5 17.5 10.9 17.35 10.4 17.2 9.55 17.15 9.05 17.1 8.5 17.05 7.5 17 6.8 16.9 6.35 16.8 6.05 16.7 5.05 16.2 4.5 16.15 4.25 16.1 4.1 16.2 3.95 16.1 3.9 16.05 3.65 15.85 3.1 15.2 2.65 14.8 2.15 14.2 1.1 13 0.3 12.45 -1.05 11.4 -1.25 11.05 -1.6 10.35 -1.2 9.3 -0.8 8.5 -0.25 8.25 0.05 8.1 0.85 8.05 1.6 7.9 1.9 7.7 2.55 7.35 2.55 6.2 2.45 4.8 2.8 4.4 13.15 4.8 22.85 4.35
L 26.15 4.1
Q 27.9 3.9 28.7 3.9 29.1 3.9 31.3 4.15 32.55 4.3 36.55 4.3 37.1 4.3 37.6 4.35 39.9 4.4 41.4 4.7 41.6 4.7 41.75 4.75
M 44.6 9.95
Q 44.35 9.75 44.15 9.65 44.85 8.9 45.6 8.15 46.1 9.5 46.1 10.6 46.05 11.9 44.85 13.8 44.7 14 44.5 14.25 43.5 15.55 42.9 16.3 42.6 16.65 42.35 16.9 40.15 19.05 36.95 20.35 36.7 20.45 36.3 20.6 35.5 20.85 34.25 21.2 32.9 21.55 31.05 22 29.95 22.2 29.05 22.35 27.95 22.55 27.15 22.65 25.65 22.95 25.1 22.95
L 25.05 22.95
Q 23.75 23.05 22.3 22.95 20.3 22.8 18.1 22.45 18.05 22.4 17.9 22.4 15.25 21.8 14.45 21.5 13.75 21.3 12.9 20.95 11.9 20.55 10.65 20 10.1 19.75 9.45 19.4 9.25 19.3 9.05 19.2 8.4 18.9 7.85 18.6 8.5 18.7 9.1 18.8 9.95 18.9 10.9 19.1
L 13.15 19.75
Q 13.8 19.85 15.85 20.05 16.5 20.1 17.2 20.15 19.5 20.25 20.55 20.05 20.7 20.05 20.8 20
L 20.75 20
Q 21 19.95 21.25 19.9
L 22 19.75
Q 22.75 19.65 24.25 19.6 25.1 19.45 26.7 18.95 26.9 18.9 27.5 18.85 28.05 18.75 29.1 18.55 29.6 18.45 30.35 18.2 31.25 17.95 32.35 17.45 35.7 16.1 38.25 14.95 40.55 13.85 42.2 12.95 42.8 12.6 43.4 12.3 44.35 11.7 44.6 11.35 45.2 10.55 44.6 9.95
M 47.7 17.85
Q 48.05 17.95 48.3 18.05 49.65 18.6 50.45 19.25
L 50.5 19.3
Q 51.4 20.15 51.5 20.8 51.65 21.7 50.75 22.5 49.2 24.1 45.25 23.65 44.75 23.6 44.25 23.5 43 23.3 41.75 23.1
L 41.7 23.1 41.65 23.05
Q 41.626953125 23.05 41.6 23.05 41.45 23 41.35 23 41.4 22.95 41.45 22.95 41.7 22.75 41.95 22.6 44.6 20.95 46 19.65 47 18.85 47.7 17.85
M 45.75 30.3
Q 45.9 30.5 46.1 30.7 46.35 30.95 46.6 31.25 46.6 31.3 46.65 31.3
L 46.65 31.35
Q 46.05 31.8 44.3 31.9 43.65 31.9 43.25 31.85 42.7 31.6 42.35 31.45 42.25 31.35 42.2 31.35
L 40.4 30.2
Q 38.5 28.9 38.1 28 38.5 27.85 39 28 39.3 28.05 39.9 28.35
L 42.75 29
Q 44.15 29.4 44.8 29.75 45.3 30 45.75 30.3
M 42.65 26.35
Q 42.65 26.5 42.65 26.65 42.15 26.55 41.65 26.45 39.3 25.9 38 25.35 37.25 25.05 36.75 24.95 36.95 24.9 37.2 24.85 38.15 25.15 38.4 25.25 40.7 25.9 42.65 26.35
M 8.3 22.35
Q 7.35 22.6 6.7 22.75 3.15 23.55 0.25 23.4 -0.3 22.5 -0.15 21.4 0.05 20.3 0.85 19.45 1.55 18.75 2.6 18.2 4.4 19.95 8.3 22.35
M 17.55 27.3
Q 18.65 26.9 19.6 26.6 20.8 26.75 21.8 26.85 20.3 28.6 19.15 29.65 18.05 30.65 16.85 31.3 15.8 31.95 14.75 32.3 14.7 32.3 14.6 32.3 14.55 32.3 14.45 32.35 12.9 32.85 10.9 32.9 9.65 32.95 7.2 32.85
L 3.2 32.7
Q 2.9 32.7 2.6 32.55 2.3 32.15 2.85 31.7 4 30.6 6.35 29.9 8.3 29.35 12.3 28.85 12.55 28.8 12.9 28.75 14.55 28.35 17.55 27.3
M 18.35 36.1
Q 17.85 35.6 17.65 34.8 17.6 34.5 17.6 34.3 20.4 32.8 22.6 29.9 23.5 28.8 24.55 27 27.1 27 30.1 26.5 32 26.15 35.65 25.25 35.3 25.5 35.45 26.05 35.45 26.45 35.55 27.05
L 35.55 27.1
Q 32 27.75 29.6 30.5 27.15 33.25 27.5 36.5 24.35 37.15 21.05 37 19.1 36.9 18.35 36.1 Z"/>

<path fill="#929274" stroke="none" d="
M 17.65 34.8
Q 17.85 35.6 18.35 36.1 19.1 36.9 21.05 37 24.35 37.15 27.5 36.5 27.15 33.25 29.6 30.5 32 27.75 35.55 27.1
L 35.55 27.05
Q 35.45 26.45 35.45 26.05 35.3 25.5 35.65 25.25 32 26.15 30.1 26.5 27.1 27 24.55 27 23.5 28.8 22.6 29.9 20.4 32.8 17.6 34.3 17.6 34.5 17.65 34.8
M 12.9 28.75
Q 12.55 28.8 12.3 28.85 8.3 29.35 6.35 29.9 4 30.6 2.85 31.7 2.3 32.15 2.6 32.55 2.9 32.7 3.2 32.7
L 7.2 32.85
Q 9.65 32.95 10.9 32.9 12.9 32.85 14.45 32.35 14.55 32.3 14.6 32.3 14.7 32.3 14.75 32.3 15.8 31.95 16.85 31.3 17.1 31.15 17.35 31 14.6 30.95 11.95 30.1
L 12.9 28.75
M 6.7 22.75
Q 7.35 22.6 8.3 22.35 4.4 19.95 2.6 18.2 1.55 18.75 0.85 19.45 0.05 20.3 -0.15 21.4 -0.3 22.5 0.25 23.4 3.15 23.55 6.7 22.75
M 42.65 26.65
Q 42.65 26.5 42.65 26.35 40.7 25.9 38.4 25.25 38.15 25.15 37.2 24.85 36.95 24.9 36.75 24.95 37.25 25.05 38 25.35 39.3 25.9 41.65 26.45 42.15 26.55 42.65 26.65
M 46.1 30.7
Q 45.9 30.5 45.75 30.3 45.3 30.25 45.05 30.2 43.7 30 43.25 30.1 42.7 30.3 42.45 30.9 42.35 31.15 42.35 31.45 42.7 31.6 43.25 31.85 43.65 31.9 44.3 31.9 46.05 31.8 46.65 31.35
L 46.65 31.3
Q 46.6 31.3 46.6 31.25 46.35 30.95 46.1 30.7
M 50.5 19.3
L 50.45 19.25
Q 49.65 18.6 48.3 18.05 47.8 21.05 45.25 23.65 49.2 24.1 50.75 22.5 51.65 21.7 51.5 20.8 51.4 20.15 50.5 19.3
M 41.6 23.05
Q 41.626953125 23.05 41.65 23.05
L 41.45 22.95
Q 41.4 22.95 41.35 23 41.45 23 41.6 23.05 Z"/>

<path fill="#D7D7C5" stroke="none" d="
M 19.6 26.6
Q 18.65 26.9 17.55 27.3 14.55 28.35 12.9 28.75
L 11.95 30.1
Q 14.6 30.95 17.35 31 17.1 31.15 16.85 31.3 18.05 30.65 19.15 29.65 20.3 28.6 21.8 26.85 20.8 26.75 19.6 26.6
M 43.25 30.1
Q 43.7 30 45.05 30.2 45.3 30.25 45.75 30.3 45.3 30 44.8 29.75 44.15 29.4 42.75 29
L 39.9 28.35
Q 39.3 28.05 39 28 38.5 27.85 38.1 28 38.5 28.9 40.4 30.2
L 42.2 31.35
Q 42.25 31.35 42.35 31.45 42.35 31.15 42.45 30.9 42.7 30.3 43.25 30.1
M 48.3 18.05
Q 48.05 17.95 47.7 17.85 47 18.85 46 19.65 44.6 20.95 41.95 22.6 41.7 22.75 41.45 22.95
L 41.65 23.05 41.7 23.1 41.75 23.1
Q 43 23.3 44.25 23.5 44.75 23.6 45.25 23.65 47.8 21.05 48.3 18.05 Z"/>

<path fill="#CC66FF" stroke="none" d="
M 22.3 20
Q 21.5 20.05 20.8 20 20.7 20.05 20.55 20.05 19.5 20.25 17.2 20.15 16.5 20.1 15.85 20.05 13.8 19.85 13.15 19.75
L 10.9 19.1
Q 9.95 18.9 9.1 18.8 8.5 18.7 7.85 18.6 8.4 18.9 9.05 19.2 9.25 19.3 9.45 19.4 10.1 19.75 10.65 20 11.9 20.55 12.9 20.95 13.75 21.3 14.45 21.5 15.25 21.8 17.9 22.4 18.05 22.4 18.1 22.45 20.3 22.8 22.3 22.95 23.75 23.05 25.05 22.95
L 25.1 22.95
Q 25.65 22.95 27.15 22.65 27.75 22.45 28.45 22.2 30.05 21.5 32.15 20.45 32.95 20.05 33.9 19.55 34.2 19.4 34.5 19.25
L 22.3 20
M 27.7 15.95
Q 27.95 15.9 28.2 15.85 24.35 16 19.2 15.1 17.7 14.85 16.6 14.7 14.45 14.25 13.75 14.2 12.95 14.1 12.4 13.9
L 12.35 13.9
Q 11.1828125 13.846875 9.85 13.6 6.6 12.9 2.4 11 0.25 10.1 -1.2 9.3 -1.6 10.35 -1.25 11.05 -1.05 11.4 0.3 12.45 1.1 13 2.15 14.2 2.65 14.8 3.1 15.2 3.65 15.85 3.9 16.05 3.95 16.1 4.1 16.2 4.25 16.1 4.5 16.15 5.05 16.2 6.05 16.7 6.35 16.8 6.8 16.9 7.5 17 8.5 17.05 9.05 17.1 9.55 17.15 10.4 17.2 10.9 17.35 11.5 17.5 12.55 18 13.7 18.35 15.6 18.25 16.3 18.2 17.1 18.15 19.9 17.85 23.65 17 25.55 16.55 27.7 15.95
M 40.7 5.1
Q 40.9 5 41.4 4.7 39.9 4.4 37.6 4.35 32.95 6.1 28.15 7.5 25.3 8.35 23.8 8.6 20.7 9.3 16.75 9.5 14.3 9.6 9.55 9.6 11.1 10.2 13.8 10.25 17.85 10.35 18.3 10.4 18.5 10.45 19.9 10.7 20.4 10.75 21 10.85 22.6 11.15 23.75 11.1 25.65 11.05 29.1 9.75
L 35.95 7.15
Q 39.4 5.75 40.7 5.1 Z"/>

<path fill="#71368A" stroke="none" d="
M 44.15 9.65
Q 44.35 9.75 44.6 9.95 45.2 10.55 44.6 11.35 44.35 11.7 43.4 12.3 42.8 12.6 42.2 12.95 40.55 13.85 38.25 14.95 35.7 16.1 32.35 17.45 31.25 17.95 30.35 18.2 29.6 18.45 29.1 18.55 28.05 18.75 27.5 18.85 26.9 18.9 26.7 18.95 25.1 19.45 24.25 19.6 22.75 19.65 22 19.75
L 21.25 19.9
Q 21 19.95 20.75 20
L 20.8 20
Q 21.5 20.05 22.3 20
L 34.5 19.25
Q 34.2 19.4 33.9 19.55 32.95 20.05 32.15 20.45 30.05 21.5 28.45 22.2 27.75 22.45 27.15 22.65 27.95 22.55 29.05 22.35 29.95 22.2 31.05 22 32.9 21.55 34.25 21.2 35.5 20.85 36.3 20.6 36.7 20.45 36.95 20.35 40.15 19.05 42.35 16.9 42.6 16.65 42.9 16.3 43.5 15.55 44.5 14.25 44.7 14 44.85 13.8 46.05 11.9 46.1 10.6 46.1 9.5 45.6 8.15 44.85 8.9 44.15 9.65
M 43.5 5.4
Q 42.8 5.1 41.75 4.75 41.6 4.7 41.4 4.7 40.9 5 40.7 5.1 39.4 5.75 35.95 7.15
L 29.1 9.75
Q 25.65 11.05 23.75 11.1 22.6 11.15 21 10.85 20.4 10.75 19.9 10.7 18.5 10.45 18.3 10.4 17.85 10.35 13.8 10.25 11.1 10.2 9.55 9.6 14.3 9.6 16.75 9.5 20.7 9.3 23.8 8.6 25.3 8.35 28.15 7.5 32.95 6.1 37.6 4.35 37.1 4.3 36.55 4.3 32.55 4.3 31.3 4.15 29.1 3.9 28.7 3.9 27.9 3.9 26.15 4.1
L 22.85 4.35
Q 13.15 4.8 2.8 4.4 2.45 4.8 2.55 6.2 2.55 7.35 1.9 7.7 1.6 7.9 0.85 8.05 0.05 8.1 -0.25 8.25 -0.8 8.5 -1.2 9.3 0.25 10.1 2.4 11 6.6 12.9 9.85 13.6 11.1828125 13.846875 12.35 13.9 12.2919921875 13.8919921875 12.25 13.85 11.9 13.55 11.6 13.4 11.35 13.2 11.15 13.1 10.65 12.85 9.35 12.8 8.1 12.75 7.55 12.45 7.1 12.15 6.75 11.6
L 5.05 9.55
Q 5.8 9.55 6.2 9.5 6.25 10.1 6.95 10.6 7.55 10.95 8.4 11.05 8.8 11.1 10.05 11.1 10.95 11.1 11.6 11.25 12.3 11.4 13.75 11.9 14.05 12 16 12.2 16.35 12.2 16.85 12.3
L 22.25 12.9
Q 26.7 13.25 30.8 12.35 33.15 11.75 35.4 10.85 36.45 10.4 37.5 9.8 41.05 7.95 43.5 5.4 Z"/>
</g>

<g id="Bone_Archer_Head_0_Layer3_0_FILL">
<path fill="#000000" stroke="none" d="
M 25.35 52.45
Q 24.35 52.05 22.9 53.1
L 12.7 60.2
Q 12.15 60.45 11 61
L 2.35 67.2
Q 0.7 68.35 -0.1 69.05 -0.55 69.35 -1 69.8 -1.9 69.2 -3.35 69.2 -3.55 69.2 -6.6 69.35 -8 69.4 -11.9 69.15 -14.05 68.95 -15.65 69.25 -16.75 69.5 -18 70.25 -18.5 70.5 -20.2 71.6
L -22.35 73.15
Q -24.5 74.6 -25.9 75.25 -26.5 75.5 -27.7 75.9 -28.75 76.35 -29.4 76.75 -30 77.25 -31.05 78.25 -31.65 78.6 -33.25 79.25 -34.7 79.75 -35.25 80.6 -35.6 81.15 -35.6 81.75 -35.6 82.5 -35.2 82.85 -34.6 83.4 -33.2 83.4
L -20.3 82.95
Q -19.4 82.85 -19.35 83.35 -19.25 83.6 -19.5 83.95 -19.7 84.1 -20.1 84.45 -20.3 84.75 -20.35 85.25 -20.45 85.5 -20.45 86.1 -20.6 87.05 -21.6 88.4 -24 92.15 -27.3 98.1 -27.85 99.2 -28 99.7 -28.2 100.7 -27.55 101.35 -26.85 101.85 -25.05 101.45 -22.85 100.7 -21.95 100.05 -21.15 99.15 -20.75 98.85 -19.65 98.55 -19.1 98.25 -18.65 98 -18 97.25 -17.2 96.35 -16.95 96.2 -16.4 95.85 -15.35 95.35 -14.1 94.85 -13.7 94.55 -12.55 93.65 -11.9 93.25 -10.9 92.5 -9.3 91.85 -7.5 91.2 -6.5 90.85 -5.15 90.25 -4.75 89.65 -4.4 89.1 -4.25 88.3 -4.25 87.3 -4.2 86.75 -4.05 85.45 -2.6 82.5 -1.25 79.85 -1.3 78.2 -0.55 77.9 -0.1 76.45 0.25 75.5 0.45 74.75 1 74.4 1.85 73.6 2.95 72.75 3.4 72.45
L 5.35 71.35
Q 6.85 70.5 9.45 68.4 12.2 66.25 13.65 65.4 15.45 64.45 16.2 63.95 17.2 63.35 19.05 62.1
L 24.95 57.75
Q 27.05 55.8 26.5 53.8 26.25 52.7 25.35 52.45
M -15.5 73.9
Q -14.5 73.6 -11.95 73.6
L -4.35 73.75
Q -4.35 73.8 -4.35 73.9 -4.4 74.6 -4.75 74.95 -4.7 75.1 -4.55 75.3
L -7.95 85.5
Q -8.6 87.35 -9.35 88 -9.95 88.5 -11.75 89.1 -13.15 89.6 -16.45 91.65
L -18.1 92.75 -20.6 94.4
Q -17.6 88.35 -15.3 83.5 -14.85 82.3 -15 81.8 -15.35 80.95 -16.75 80.6 -20.35 79.65 -27.05 79.85 -22.75 78.6 -19.2 76.15 -18.95 76 -18.75 75.9 -17.7 75.1 -17.2 74.75 -16.25 74.15 -15.5 73.9
M 2.55 43.75
Q 2.2 43.7 0.7 43.35 -0.45 43.15 -1.1 42.8 -2.4 41.95 -3.05 41.55 -4.8 40.65 -6.6 40.65 -7.95 40.65 -11.1 41.75 -12.55 42.4 -14.05 42.95 -15.7 43.6 -16.55 43.6 -17.35 43.7 -18.9 43.55 -20.15 43.5 -21.5 44 -22.35 44.3 -22.95 44.95 -23.55 45.9 -23.15 46.6 -22.85 47.25 -21.9 47.7 -20.75 48.25 -20.2 48.45 -19.1 48.95 -18.4 49.4 -17.95 49.7 -17.15 50.3 -16.35 50.95 -15.9 51.2 -15.7 51.3 -14.6 51.85 -13.75 52.2 -13.3 52.6 -12.6 53.15 -12.15 54.15 -11.85 54.85 -11.95 55.3 -12.1 56 -12.85 56.95 -13.6 57.65 -14.95 59.1 -15.05 59.25 -15.95 60.4 -16.5 61.25 -17.05 61.7 -17.2 61.9 -17.6 62.25 -18 62.55 -18.1 62.9 -18.3 63.45 -18.05 64.5 -17.7 65.65 -17.1 66.15 -16.25 66.75 -14.95 66.35 -13.5 65.8 -12.75 65.55 -12.35 65.45 -11.55 65.4 -10.4 65.25 -10.25 65.25 -9.45 65.1 -8.05 64.4 -6.5 63.7 -5.8 63.5 -5.35 63.35 -4.4 63.2 -3.35 63.1 -2.9 62.95 -1.15 62.25 -0.25 62.05 -0.2 62 1.8 61.75 3 61.6 3.65 61.15 4.75 60.4 5.15 58.5 5.5 56.4 5.7 55.4 5.8 54.95 6.85 52.45 7.3 51.5 7.45 50.7 8.95 50.55 9.95 50.35 11.7 49.75 12.55 49.55 14.3 49.15 15.15 48.95 16.65 48.55 18.7 47.45 20.05 46.9 20.75 46.25 21.5 45.5 21.55 44.85 21.55 44.25 21.05 43.7 20.6 43.2 19.95 43.15 18.9 42.95 17.35 43.45
L 9.2 45.8
Q 8.75 45.55 8.1 45.35 6.65 45.2 5.95 45.05 5.25 44.95 4.3 44.5 2.85 43.85 2.55 43.75
M 4.3 49.55
L 4.3 49.6
Q 4.15 50 3.8 50.45 1.65 53.85 0.85 57.75 -4.95 59.05 -10.15 61.05 -11.05 61.45 -11.4 61.05 -11.45 60.95 -11.5 60.9 -9.7 58.9 -8.95 57.45 -7.85 55.35 -8.25 53.5 -8.75 51.45 -11.25 49.65 -14.1 47.85 -15.35 46.8 -15.2 46.85 -15.05 46.8 -13.55 46.95 -10.55 45.8 -7.5 44.6 -5.85 45.05 -5.3 45.25 -4.6 45.65 -4.25 45.9 -3.45 46.3 -2.4 46.95 -0.1 47.7 3 48.6 4.15 48.85 4.15 49.2 4.3 49.55
M 13.75 30.15
Q 15.5 29.65 16.5 29.35 18.5 28.65 18.9 27.4 18.5 26.3 17.2 26.05 16.65 25.95 15.1 26.15
L -14.7 31.05
Q -15.55 31.3 -16.3 31.35 -16.3 30.95 -16.5 30.6 -17 29.95 -18.1 29.8 -22.35 28.8 -25.95 28.5 -28.55 28.25 -29.45 27.95 -30.75 27.4 -33.15 25.9 -35.75 24.65 -38.6 24.85 -39.85 24.85 -41.7 25.3 -42.65 25.55 -44.8 26.15 -49.6 27.5 -54.75 27.55 -55.25 27.55 -56.1 27.65 -56.85 27.7 -57.4 27.95 -58 28.25 -58.4 28.8 -58.8 29.4 -58.65 30 -58.5 30.6 -57.55 31.35 -53.8 34.55 -51.2 36.8
L -48.85 38.8
Q -47.55 39.9 -47.6 40.85 -47.6 41.4 -48.1 41.9 -48.2 42.05 -49.1 42.75 -50.2 43.7 -52.1 45.85 -53.05 46.9 -54.8 47.95 -55.75 48.6 -57.75 49.85 -59.25 50.7 -59.35 51.65 -59.3 52.3 -58.95 52.85 -58.6 53.4 -57.95 53.65 -57.1 54 -55.35 53.8 -53.45 53.55 -48.45 52.25
L -40.9 50.3
Q -36.2 49.05 -33.8 49.15 -32.3 49.35 -31.55 49.35 -30.25 49.35 -29.4 48.75 -29 48.4 -28.15 47.25 -26.75 45.3 -23.05 41.85 -19.5 38.55 -18.15 36.4
L -17.85 36.4
Q -4.75 34.45 7.95 31.5
L 13.75 30.15
M -30.1 36.35
Q -30.25 36.5 -30.25 36.75 -30.3 37 -30.3 37.25 -29.95 37.3 -29.65 37.35
L -29.6 37.3
Q -29.1 37.35 -28.65 37.4 -27.25 37.5 -25.8 37.4 -25.6 37.4 -25.45 37.35 -24.2 37.25 -22.8 37.05
L -30.95 44.45
Q -31.65 45.15 -32.1 45.3 -32.35 45.4 -33.55 45.6 -36.6 45.75 -39.65 46.4 -42.3 47 -45.1 47.7
L -47.2 48.35 -50.3 49.1 -45.95 45.05
Q -44.35 43.55 -43.95 42.7 -43.5 41.65 -43.4 40.5 -43.45 39.4 -44.05 38.45 -44.65 37.3 -46.75 35.7 -48.05 34.75 -50.75 32.65 -52.15 31.65 -52.1 30.8 -49.65 31.15 -44.4 29.7 -39.75 28.4 -37.15 28.8 -36.95 28.8 -36.7 28.85
L -36.65 28.85
Q -35.4 29.1 -33.4 30.05 -31.1 31.15 -30.15 31.4 -28.85 31.8 -26.05 31.9 -23.2 32.1 -21.85 32.5 -21.85 32.55 -21.7 32.6 -22.5 32.8 -23.65 33.15 -24.1 33.25 -25.8 33.6 -27.1 33.8 -27.8 34.15 -28.9 34.5 -29.55 35.35 -30 35.85 -30.1 36.35
M 6.75 7.5
Q 5.85 6.6 4.6 5.85 0.4 2.9 -2.8 2.45 -4.05 2.25 -6.55 2.2 -6.9 2.2 -9.7 1.6 -13.1 0.65 -14.3 0 -15.85 -0.85 -16.7 -0.55 -17.35 -0.3 -17.8 0.75 -18.45 2.4 -17.4 3.9 -16.25 5.05 -15.9 5.8 -15.7 6.05 -15.15 7.5 -14.75 8.5 -14.3 8.95 -13.55 9.35 -13.35 9.6 -12.9 10.05 -13.1 11.05 -13.65 13.85 -16.15 15.9 -18.25 17.55 -21.45 18.6 -22.7 19 -23.25 19.35 -24.2 19.9 -24.4 20.75 -24.6 21.6 -23.9 22.35 -23.3 23.05 -22.4 23.3 -21.75 23.45 -20.65 23.45 -19.45 23.3 -18.85 23.25 -16.6 23.05 -12.2 23.6 -7.75 24.05 -5.55 23.95 -4.9 23.95 -4.65 23.9 -4 23.85 -3.65 24.05 -3.3 24.1 -2.9 24.4 -2.35 24.7 -2.25 24.8 -0.8 25.5 1.05 24.7 2.05 24.3 3.85 23
L 6 21.45
Q 6.85 20.85 7.45 20.3 8.05 19.7 8.65 19.15
L 18.8 20.35
Q 19.55 20.55 19.9 20.15 20.25 19.7 19.6 18.85 18.35 17.5 16.3 16.75 14.95 16.2 12.35 15.75
L 12.15 15.7
Q 12.15 15.6 12.15 15.4 12.1 14.7 11.55 13.95 11.2 13.15 10.35 12.15 9.15 10.65 8.95 10.45 7.55 8.4 6.75 7.5
M 3.65 18.45
Q 3.95 18.5 4.2 18.55 3.8 18.8 3.45 19.1 3.300390625 19.1998046875 3.15 19.3 2.2576171875 19.92109375 1.4 20.65 0.55 21.35 -0.05 21.5 -0.6 21.6 -1.85 21.2 -3.85 20.55 -8.8 20.5 -13.4 20.45 -15.65 19.55 -12.2 17.3 -10.35 13.45 -8.9 10.3 -10 8.35 -10.25 7.95 -11.75 6.15 -12.85 4.95 -12.7 3.9 -12.2 4.2 -11.5 4.35 -9.7 4.9 -6.75 5.2 -2.5 5.6 -0.7 6.45 1.7 7.35 4.35 10.15 6.45 12.55 8 14.9
L 3.2 13.95
Q 1.7 13.6 0.9 14.05 0.65 14.3 0.5 14.55 0.2 15 0.25 15.65 0.25 16.75 1 17.4 1.85 18.05 3.65 18.45
M 5.2 -38.8
Q 4.55 -39.7 3.7 -39.95 2.5 -40.4 0.95 -39.55 -0.05 -39.05 -0.5 -38.25 -0.75 -37.75 -0.95 -36.3
L -1.35 -29.7
Q -1.55 -29 -1.6 -28.9 -1.95 -28.55 -3.05 -28.7 -6.45 -29.4 -9.4 -29.3
L -12.15 -29.25
Q -14.1 -29.05 -14.7 -29.05 -15.65 -28.95 -16.2 -29.05 -16.45 -29.1 -16.95 -29.3 -17.45 -29.5 -17.7 -29.5 -18.2 -29.6 -18.7 -29.25 -19.25 -28.9 -19.4 -28.4 -19.8 -27.35 -18.9 -26.1 -17.9 -24.55 -16 -23.05 -15.65 -22.75 -12.65 -20.55
L -8.6 -17.4
Q -6.95 -16.15 -6.15 -15.7 -5.25 -15.25 -4.8 -15.1 -4.1 -14.7 -3.65 -14.4 -2.4 -13.65 -0.95 -11.85 0.95 -9.5 1.5 -8.9 2.3 -8.25 2.9 -8.2 3.3 -8.15 4 -8.4 4.3 -8.55 5 -8.85 6.05 -9.15 7.4 -9.1 7.85 -9.15 9.9 -8.95 10.45 -8.9 10.75 -8.95 14.05 -4.1 18.15 0.2 19.25 1.5 20.15 1.15 20.55 1.05 20.75 0.65 20.95 0.3 20.9 -0.2 20.95 -0.85 20.45 -1.7 19.35 -3.95 16.6 -7.8 17.75 -9.05 18.2 -11.55 18.25 -12.35 18.45 -14.15 18.6 -15.65 18.95 -16.6 19.2 -17.15 19.65 -18.2 20.1 -19.1 20.05 -19.85 19.9 -20.85 18.55 -22.55
L 8.8 -33.7
Q 6.8 -35.95 6.25 -36.95 5.25 -38.75 5.2 -38.8
M 3.1 -34.3
Q 3.65 -33.45 4.65 -32.45 5.85 -31.3 6.3 -30.75
L 7.25 -29.8 7.4 -29.65
Q 7.45 -29.6 7.5 -29.55 7.6 -29.45 7.7 -29.35 9.3 -27.7 10.9 -25.7 13.4 -22.55 14.9 -21.1 15.9 -20 15.85 -19.35 15.85 -19.15 15.65 -18.7 15.5 -18.35 15.35 -18.15 14.9 -17.3 14.85 -15.95 14.9 -14.35 14.8 -13.6 14.35 -12.2 14.2 -11.2 12.55 -13.65 11.75 -15.35 10.95 -16.95 10.9 -17.1 10.35 -18.05 9.65 -18.65
L 9.6 -18.7
Q 9.25 -18.95 8.8 -19.05 8.25 -19.2 7.7 -19.1 6.5 -19 6.2 -18.1 5.9 -17.2 6.75 -15.6 7.3 -14.6 7.85 -13.6 8.2 -12.95 8.55 -12.4 7.35 -12.7 6.05 -12.65 4.5 -12.5 4.1 -12.7 3.2 -13 2.35 -14.05 1.85 -14.6 0.95 -15.85 0.1 -16.85 -1.75 -17.95 -4.1 -19.35 -4.65 -19.75
L -5.7 -20.65
Q -6.3 -21.15 -6.8 -21.4 -7.4 -21.85 -8.75 -22.45 -9.35 -22.8 -10.65 -24.05 -11.8 -25.2 -12.65 -25.6 -10.45 -26.1 -6.4 -25.55 -1.85 -24.9 0 -25.1 1.25 -25.2 1.7 -25.8 2.25 -26.3 2.35 -27.3 2.35 -27.8 2.25 -29.1 2 -31.8 3.1 -34.3
M 30.75 -47.65
Q 30.45 -46.9 30.75 -45.2 30.85 -44.35 32 -36.4 32.55 -33.25 32.6 -31.7 32.95 -27.9 32.25 -25.3
L 31.9 -23.9
Q 31.75 -23.05 31.85 -22.45 32.05 -21.5 33.1 -20.6 34.45 -19.65 35 -19.1 35.65 -18.6 36.65 -17.2 37.6 -16.1 38.3 -15.5 39.3 -14.7 39.7 -14.25 40 -13.9 40.35 -13.35 40.5 -12.95 40.65 -12.7
L 40.45 -8.55 40.7 -5.65
Q 40.8 -4.2 40.75 -0.3
L 40.7 2.8
Q 40.45 11.3 40.15 14.65 39.9 18.1 39.9 19.5 39.95 22.15 40.8 24.1 41.3 25.2 41.95 25.15 42.55 25 42.95 23.95 43.3 23.1 43.65 21.3 44.25 18.35 44.55 14.7 44.7 12.3 44.8 7.95
L 45.1 -0.85
Q 45.25 -2.45 45.1 -4.1
L 45.05 -7.6
Q 44.9 -8.85 44.9 -10.3 45.55 -10.75 46.3 -11.45 48 -13.15 48.7 -14.05
L 50.15 -16.4
Q 51.45 -18.25 53.45 -19.75 55.55 -21 56.1 -21.75 56.95 -23 57.1 -25.7 57.25 -27.7 57.3 -31.8 57.35 -35.25 57.8 -37.7 58.3 -40.25 57.25 -41.1 56.75 -41.45 56.1 -41.35 55.4 -41.35 54.85 -41 54.35 -40.7 52.95 -39.35 51 -37.65 46.55 -36.05 45.65 -35.6 44.8 -35.55 42.45 -35.35 39.85 -39
L 33.75 -47.65
Q 33.15 -48.65 32.55 -48.8 32 -48.95 31.4 -48.55 30.95 -48.2 30.75 -47.65
M 34.7 -40.9
Q 35.55 -40 36.8 -38.2 38.15 -36.3 38.9 -35.5 41.7 -32.3 44.8 -32.4 46.15 -32.45 48.5 -33.65
L 50.55 -34.65 50.55 -34.65 54.45 -36.55 54.35 -28.35
Q 54.35 -27 54.2 -26.3 54.05 -25.15 53.6 -24.35 53.05 -23.5 52.15 -22.75 50.95 -21.95 50.4 -21.6 48.15 -19.95 45.95 -17.1 45.45 -16.4 44.95 -15.65
L 45 -16.8
Q 44.9 -18.5 44.65 -19.2 44.35 -19.75 44 -20.1 43.9 -20.2 43.8 -20.2 43.3 -20.55 42.75 -20.5 42.155859375 -20.462890625 41.7 -20.05
L 41.75 -20.05
Q 41.6986328125 -20.02421875 41.65 -20 41.5408203125 -19.8771484375 41.45 -19.75
L 41.2 -19.3
Q 40.95 -18.75 40.85 -17.75 40.45 -18.2 39.95 -18.7 37.5 -21.15 37.15 -21.65 37 -21.75 36.85 -21.95 36.85 -22 36.85 -22.05 36.75 -22.05 36.75 -22.1 36.7 -22.15 36.7 -22.2
L 35.7 -24.05
Q 35.6498046875 -24.1669921875 35.6 -24.3
L 35.6 -24.35
Q 35.48671875 -24.6830078125 35.45 -25.05 35.3 -26.1 35.6 -27.7 36 -29.8 36.05 -30.3 36.1 -31.9 35.15 -35.55 34.4 -39 34.7 -40.9 Z"/>

<path fill="#CC66FF" stroke="none" d="
M -16.75 80.6
Q -15.35 80.95 -15 81.8 -14.85 82.3 -15.3 83.5 -17.6 88.35 -20.6 94.4
L -18.1 92.75
Q -16.75 90.05 -15.95 88.5 -14.15 84.95 -9.35 78 -14.25 77.3 -19.2 76.15 -22.75 78.6 -27.05 79.85 -20.35 79.65 -16.75 80.6
M -15.05 46.8
Q -15.2 46.85 -15.35 46.8 -14.1 47.85 -11.25 49.65 -8.75 51.45 -8.25 53.5 -7.85 55.35 -8.95 57.45 -9.7 58.9 -11.5 60.9 -11.45 60.95 -11.4 61.05 -11.2 60.9 -11 60.8 -7.05 57.8 -5.95 56.75 -3.1 53.9 -1.65 52.6 -4.3 50.85 -8.15 49.3 -9.4 48.8 -15.05 46.8
M -36.7 29.55
Q -36.95 29.1 -37.15 28.8 -39.75 28.4 -44.4 29.7 -49.65 31.15 -52.1 30.8 -52.15 31.65 -50.75 32.65 -48.05 34.75 -46.75 35.7 -44.65 37.3 -44.05 38.45 -43.45 39.4 -43.4 40.5 -43.5 41.65 -43.95 42.7 -44.35 43.55 -45.95 45.05
L -50.3 49.1 -47.2 48.35 -29.65 37.35
Q -29.95 37.3 -30.3 37.25 -30.3 37 -30.25 36.75 -34 33.7 -36.7 29.55
M 0.25 15.65
Q 0.2 15 0.5 14.55 -0.2 14.05 -0.9 13.5 -2.9 11.6 -3.95 10.8 -7.1 8.65 -8.55 7.4 -10.05 6.1 -11.5 4.35 -12.2 4.2 -12.7 3.9 -12.85 4.95 -11.75 6.15 -10.25 7.95 -10 8.35 -8.9 10.3 -10.35 13.45 -12.2 17.3 -15.65 19.55 -13.4 20.45 -8.8 20.5 -3.85 20.55 -1.85 21.2 -0.6 21.6 -0.05 21.5 0.55 21.35 1.4 20.65 2.2576171875 19.92109375 3.15 19.3 3.3 19 3.5 18.65 3.55 18.55 3.65 18.45 1.85 18.05 1 17.4 0.25 16.75 0.25 15.65
M 4.65 -32.45
Q 3.65 -33.45 3.1 -34.3 2 -31.8 2.25 -29.1 2.35 -27.8 2.35 -27.3 2.25 -26.3 1.7 -25.8 1.25 -25.2 0 -25.1 -1.85 -24.9 -6.4 -25.55 -10.45 -26.1 -12.65 -25.6 -11.8 -25.2 -10.65 -24.05 -9.35 -22.8 -8.75 -22.45 -7.4 -21.85 -6.8 -21.4 -6.3 -21.15 -5.7 -20.65
L -4.65 -19.75
Q -4.1 -19.35 -1.75 -17.95 0.1 -16.85 0.95 -15.85 1.85 -14.6 2.35 -14.05 2.35 -14.1 2.3 -14.15 2.9 -14.1 3.55 -14 6.2 -13.6 7.85 -13.6 7.3 -14.6 6.75 -15.6 5.9 -17.2 6.2 -18.1 6.5 -19 7.7 -19.1 8.25 -19.2 8.8 -19.05 8.2 -24.5 7.25 -29.8
L 6.3 -30.75
Q 5.85 -31.3 4.65 -32.45
M 36.8 -38.2
Q 35.55 -40 34.7 -40.9 34.4 -39 35.15 -35.55 36.1 -31.9 36.05 -30.3 36 -29.8 35.6 -27.7 35.3 -26.1 35.45 -25.05 35.48671875 -24.6830078125 35.6 -24.35 35.55 -24.5171875 35.55 -24.7 36 -24.5 36.7 -24.15 37.9 -23.5 38.65 -22.95 39 -22.7 40.9 -20.85 41.2927734375 -20.358984375 41.7 -20.05 42.155859375 -20.462890625 42.75 -20.5 43.3 -20.55 43.8 -20.2 43.9 -20.2 44 -20.1 45.05 -21.75 46.05 -24 46.8 -25.65 48.15 -29.05
L 50 -33.4
Q 50.2451171875 -34.086328125 50.55 -34.65
L 48.5 -33.65
Q 46.15 -32.45 44.8 -32.4 41.7 -32.3 38.9 -35.5 38.15 -36.3 36.8 -38.2 Z"/>

<path fill="#71368A" stroke="none" d="
M -11.95 73.6
Q -14.5 73.6 -15.5 73.9 -16.25 74.15 -17.2 74.75 -17.7 75.1 -18.75 75.9 -18.95 76 -19.2 76.15 -14.25 77.3 -9.35 78 -14.15 84.95 -15.95 88.5 -16.75 90.05 -18.1 92.75
L -16.45 91.65
Q -13.15 89.6 -11.75 89.1 -9.95 88.5 -9.35 88 -8.6 87.35 -7.95 85.5
L -4.55 75.3
Q -4.7 75.1 -4.75 74.95 -4.4 74.6 -4.35 73.9 -4.35 73.8 -4.35 73.75
L -11.95 73.6
M 4.3 49.6
L 4.3 49.55
Q 4.15 49.2 4.15 48.85 3 48.6 -0.1 47.7 -2.4 46.95 -3.45 46.3 -4.25 45.9 -4.6 45.65 -5.3 45.25 -5.85 45.05 -7.5 44.6 -10.55 45.8 -13.55 46.95 -15.05 46.8 -9.4 48.8 -8.15 49.3 -4.3 50.85 -1.65 52.6 -3.1 53.9 -5.95 56.75 -7.05 57.8 -11 60.8 -11.2 60.9 -11.4 61.05 -11.05 61.45 -10.15 61.05 -4.95 59.05 0.85 57.75 1.65 53.85 3.8 50.45 4.15 50 4.3 49.6
M -39.65 46.4
Q -36.6 45.75 -33.55 45.6 -32.35 45.4 -32.1 45.3 -31.65 45.15 -30.95 44.45
L -22.8 37.05
Q -24.2 37.25 -25.45 37.35 -25.6 37.4 -25.8 37.4 -27.25 37.5 -28.65 37.4 -29.1 37.35 -29.6 37.3
L -29.65 37.35 -47.2 48.35 -45.1 47.7
Q -42.3 47 -39.65 46.4
M -30.25 36.75
Q -30.25 36.5 -30.1 36.35 -30 35.85 -29.55 35.35 -28.9 34.5 -27.8 34.15 -27.1 33.8 -25.8 33.6 -24.1 33.25 -23.65 33.15 -22.5 32.8 -21.7 32.6 -21.85 32.55 -21.85 32.5 -23.2 32.1 -26.05 31.9 -28.85 31.8 -30.15 31.4 -31.1 31.15 -33.4 30.05 -35.4 29.1 -36.65 28.85
L -36.7 28.85
Q -36.95 28.8 -37.15 28.8 -36.95 29.1 -36.7 29.55 -34 33.7 -30.25 36.75
M 0.5 14.55
Q 0.65 14.3 0.9 14.05 1.7 13.6 3.2 13.95
L 8 14.9
Q 6.45 12.55 4.35 10.15 1.7 7.35 -0.7 6.45 -2.5 5.6 -6.75 5.2 -9.7 4.9 -11.5 4.35 -10.05 6.1 -8.55 7.4 -7.1 8.65 -3.95 10.8 -2.9 11.6 -0.9 13.5 -0.2 14.05 0.5 14.55
M 4.2 18.55
Q 3.95 18.5 3.65 18.45 3.55 18.55 3.5 18.65 3.3 19 3.15 19.3 3.300390625 19.1998046875 3.45 19.1 3.8 18.8 4.2 18.55
M 2.35 -14.05
Q 3.2 -13 4.1 -12.7 4.5 -12.5 6.05 -12.65 7.35 -12.7 8.55 -12.4 8.2 -12.95 7.85 -13.6 6.2 -13.6 3.55 -14 2.9 -14.1 2.3 -14.15 2.35 -14.1 2.35 -14.05
M 7.7 -29.35
Q 7.6 -29.45 7.5 -29.55 7.45 -29.6 7.4 -29.65
L 7.25 -29.8
Q 8.2 -24.5 8.8 -19.05 9.25 -18.95 9.6 -18.7
L 9.65 -18.65
Q 10.35 -18.05 10.9 -17.1 10.95 -16.95 11.75 -15.35 12.55 -13.65 14.2 -11.2 14.35 -12.2 14.8 -13.6 14.9 -14.35 14.85 -15.95 14.9 -17.3 15.35 -18.15 15.5 -18.35 15.65 -18.7 15.85 -19.15 15.85 -19.35 15.9 -20 14.9 -21.1 13.4 -22.55 10.9 -25.7 9.3 -27.7 7.7 -29.35
M 50 -33.4
L 48.15 -29.05
Q 46.8 -25.65 46.05 -24 45.05 -21.75 44 -20.1 44.35 -19.75 44.65 -19.2 44.9 -18.5 45 -16.8
L 44.95 -15.65
Q 45.45 -16.4 45.95 -17.1 48.15 -19.95 50.4 -21.6 50.95 -21.95 52.15 -22.75 53.05 -23.5 53.6 -24.35 54.05 -25.15 54.2 -26.3 54.35 -27 54.35 -28.35
L 54.45 -36.55 50.55 -34.65 50.55 -34.65
Q 50.2451171875 -34.086328125 50 -33.4
M 35.6 -24.35
L 35.6 -24.3
Q 35.6498046875 -24.1669921875 35.7 -24.05
L 36.7 -22.2
Q 36.7 -22.15 36.75 -22.1 36.75 -22.05 36.85 -22.05 36.85 -22 36.85 -21.95 37 -21.75 37.15 -21.65 37.5 -21.15 39.95 -18.7 40.45 -18.2 40.85 -17.75 40.95 -18.75 41.2 -19.3
L 41.45 -19.75
Q 41.5408203125 -19.8771484375 41.65 -20 41.6986328125 -20.02421875 41.75 -20.05
L 41.7 -20.05
Q 41.2927734375 -20.358984375 40.9 -20.85 39 -22.7 38.65 -22.95 37.9 -23.5 36.7 -24.15 36 -24.5 35.55 -24.7 35.55 -24.5171875 35.6 -24.35 Z"/>
</g>

<g id="Bone_Archer_Head_0_Layer2_0_FILL">
<path fill="#000000" stroke="none" d="
M 86.9 64.75
Q 86.75 63.75 86.5 63.25 85.8 61.4 84.15 60.1 82.65 58.8 80.75 58.45 78.8 58.1 76.9 58.75 74.95 59.4 73.75 60.8 70.85 58.2 66.2 57.5 63.3 57 58.1 57.3 55.5 57.4 54.5 58.35 54.25 58.7 53.95 58.85 53.7 59.1 53.4 59.15 53 59.2 52.3 58.8 46.7 55.6 40.4 56.45 36.8 56.9 34.75 58.7 32.7 60.65 32 64.05
L 32 74.4
Q 32.0046875 74.24375 32.15 74.05
L 32.15 74.85
Q 32.3 76.8 32.4 77.7 32.7 79.25 33.5 80.2 34.2 81.3 36.4 82.3 40.95 84.25 48.05 84.45 52.05 84.6 60.15 84.6 61.25 84.65 64.7 84.95 67.4 85.2 69.2 85.25 73.3 85.3 78.55 84.4 82.65 83.7 84.7 82.15 86.1 81.05 86.75 79.4 86.89765625 79.44921875 86.9 79.55
L 86.9 64.75
M 84.3 65.1
Q 84.3 65.85 84.3 66.9 84.3 68.55 84.45 71.9 84.6 74.8 83.75 76.7 83.2 78.2 82.25 78.8 81.4 79.3 79.2 79.4 78.4 79.5 76.5 79.75 74.7 80.05 73.75 80.1 71.25 80.3 67.55 79.8 63.3 79.15 61.25 78.95 60.85 78.9 60.15 78.9 59.3 78.85 58.5 78.85 57.7 78.85 56.7 78.85 54.1 78.8 50 78.85 43 78.95 38.75 77.8 36.7 77.3 35.85 76.2 35.05 75.05 35.3 73.1 35.85 70.95 36 69.9 36.25 68.9 36.25 65.75 36.4 64.35 36.8 63.6 37.35 62.55 39.3 61.75 42.85 60.5 46.4 60.55 49.05 60.55 49.45 60.45 51.1 60 51.5 60.7 51.75 61.15 51.5 62.05 51.2 63.8 51.5 65.6 51.9 67.45 52.85 68.9 53.3 69.35 53.4 69.4 53.95 69.4 54.25 68.7 55.05 67.2 55.5 65.45 55.6 64.2 55.9 63.85 56.45 63.15 58.1 62.85
L 62.9 62.2 63.3 62.15 63.15 62.15 64.15 62.05
Q 64.4 62 64.8 61.95 67.15 61.6 69.5 61.3 70.7 61.1 71.4 61.55 71.8 61.95 72.1 63.05 72.65 65.35 72.65 67.35 72.5 67.9 72.75 68.3 73.05 68.8 73.3 68.75 73.75 68.7 74 68.05 74.55 67.95 74.95 67.15 75.25 66.1 75.4 65.6 76.2 63.95 78.65 63.55 79.2 63.5 79.65 63.5 81.15 63.45 82.65 64 83.35 64.25 83.9 64.65 84.15 64.85 84.3 65.05
L 84.3 65.1 Z"/>

<path fill="#D7D7C5" stroke="none" d="
M 66.75 62.45
Q 64.4 62.05 63.3 62.15
L 62.9 62.2
Q 60.95 62.5 60 63.75 58.9 65 58.75 68 58.65 69.8 58.5 71.35 58.65 71.7 58.65 72.1 59.3 75.2 60.55 76.3 61.95 77.65 64.95 77.45 67.15 77.3 68.5 76.45 68.5 76.25 68.5 76.05
L 68.5 64.4
Q 68.5 63.45 68.25 63.05 67.85 62.55 66.75 62.45
M 83.6 73.5
Q 83.75 72.45 83.9 68.65
L 83.9 64.65
Q 83.35 64.25 82.65 64 81.15 63.45 79.65 63.5 79.1 63.85 78.65 64.4 76.75 66.55 76.6 70.2 76.5 72.3 77.05 76.5 77.05 77.4 77.45 77.75 77.7 78 78.25 78.2 79.35 78.55 80.2 78.5 81.55 78.35 82.65 76.65 83.35 75.5 83.6 73.5
M 40.95 66.1
L 40.95 73.45
Q 40.95 74.3 41.05 74.65 41.35 75.3 42.6 75.7 45.2 76.45 47.8 76.45 48.9 76.45 49.3 76 49.6 75.6 49.45 74.6 49.3 72.25 49.7 68.25 50.4 63.55 50.4 61.9 46.7 61.5 43.15 62.8 41.75 63.3 41.35 64.05 40.95 64.65 40.95 66.1 Z"/>

<path fill="#929274" stroke="none" d="
M 84.3 66.9
Q 84.3 65.85 84.3 65.1
L 84.3 65.05
Q 84.15 64.85 83.9 64.65
L 83.9 68.65
Q 83.75 72.45 83.6 73.5 83.35 75.5 82.65 76.65 81.55 78.35 80.2 78.5 79.35 78.55 78.25 78.2 77.7 78 77.45 77.75 77.05 77.4 77.05 76.5 76.5 72.3 76.6 70.2 76.75 66.55 78.65 64.4 79.1 63.85 79.65 63.5 79.2 63.5 78.65 63.55 76.2 63.95 75.4 65.6 75.25 66.1 74.95 67.15 74.55 67.95 74 68.05 73.75 68.7 73.3 68.75 73.05 68.8 72.75 68.3 72.5 67.9 72.65 67.35 72.65 65.35 72.1 63.05 71.8 61.95 71.4 61.55 70.7 61.1 69.5 61.3 67.15 61.6 64.8 61.95 64.4 62 64.15 62.05
L 63.15 62.15 63.3 62.15
Q 64.4 62.05 66.75 62.45 67.85 62.55 68.25 63.05 68.5 63.45 68.5 64.4
L 68.5 76.05
Q 68.5 76.25 68.5 76.45 67.15 77.3 64.95 77.45 61.95 77.65 60.55 76.3 59.3 75.2 58.65 72.1 58.65 71.7 58.5 71.35 58.65 69.8 58.75 68 58.9 65 60 63.75 60.95 62.5 62.9 62.2
L 58.1 62.85
Q 56.45 63.15 55.9 63.85 55.6 64.2 55.5 65.45 55.05 67.2 54.25 68.7 53.95 69.4 53.4 69.4 53.3 69.35 52.85 68.9 51.9 67.45 51.5 65.6 51.2 63.8 51.5 62.05 51.75 61.15 51.5 60.7 51.1 60 49.45 60.45 49.05 60.55 46.4 60.55 42.85 60.5 39.3 61.75 37.35 62.55 36.8 63.6 36.4 64.35 36.25 65.75 36.25 68.9 36 69.9 35.85 70.95 35.3 73.1 35.05 75.05 35.85 76.2 36.7 77.3 38.75 77.8 43 78.95 50 78.85 54.1 78.8 56.7 78.85 57.7 78.85 58.5 78.85 59.3 78.85 60.15 78.9 60.85 78.9 61.25 78.95 63.3 79.15 67.55 79.8 71.25 80.3 73.75 80.1 74.7 80.05 76.5 79.75 78.4 79.5 79.2 79.4 81.4 79.3 82.25 78.8 83.2 78.2 83.75 76.7 84.6 74.8 84.45 71.9 84.3 68.55 84.3 66.9
M 40.95 73.45
L 40.95 66.1
Q 40.95 64.65 41.35 64.05 41.75 63.3 43.15 62.8 46.7 61.5 50.4 61.9 50.4 63.55 49.7 68.25 49.3 72.25 49.45 74.6 49.6 75.6 49.3 76 48.9 76.45 47.8 76.45 45.2 76.45 42.6 75.7 41.35 75.3 41.05 74.65 40.95 74.3 40.95 73.45 Z"/>
</g>

<g id="Bone_Archer_Head_0_Layer1_0_FILL">
<path fill="#000000" stroke="none" d="
M 39.3 -10
Q 29.65 -6.9 21.5 -1.1 14.8 3.7 13.2 8.8 12 12.9 13.55 19.9 14.8 25.55 17.8 36.85 20 46.75 19.3 53.95 19.1 55.8 19.1 56.2 19.1 57.45 19.4 58.4 19.75 59.5 20.75 60.2 21.75 60.9 22.8 60.6 22.05 63.3 22 65 21.9 67.45 23.1 69 24.25 70.45 27.2 71.4 35.2 74.15 43.65 73.15 54.3 77.6 65.7 76.05 67.55 75.8 68.8 75 70.3 74 70.15 72.55 71.4 75.05 74.7 75.5 76.8 75.8 80.3 74.9 89.7 72.6 98.2 68.05 105.2 64.45 105.3 59.85 105.35 58.65 104.85 57.15 104.7 56.7 103.8 54.55 100 45.8 99.4 36.05 98.8 26.3 101.45 17.1 102.55 13.4 102.8 12.3 103.35 9.55 102.9 7.45 101.95 3.35 96.4 -0.75 88.3 -6.65 78.65 -9.8 69 -13 59 -13.05 49 -13.1 39.3 -10
M 56.2 -7.85
Q 57.25 -7.9 58.25 -7.9 62.5 -7.9 66.8 -7.3 66.2 -6 65.45 -4.5 64.55 -2.7 63.45 -0.65 62.85 0.5 62.2 0.9 61.55 1.3 59.75 1.2 57 1.05 54.8 1.3 52.65 1.5 51.75 2.35 51.25 2.85 50.45 4.8 49.7 6.75 48.4 8.45 48.2 8.65 48.05 8.9 47.8 9.2 47.5 9.5 46.95 10.1 46.6 10.55 45.6 10 44.15 9.7
L 40.15 8.75
Q 37.05 8.1 35.5 8.65 35.4 8.65 35.3 8.7 34.3 9.15 32.8 10.75
L 30.75 12.9
Q 30.2 13.6 30.15 13.85 30.1 14.15 30.3 14.4 30.45 14.65 30.75 14.6
L 33.2 12.45
Q 34.9 11.1 35.8 10.85 37.5 10.45 39.85 11.65 41.6 12.55 41.7 12.6 42.8 13.1 43.7 13.2 44.45 13.25 45.45 13.1 45.35 13.8 45.4 14.65 45.45 15.65 45.45 17 44.8 17.05 44.45 17.15 43.35 17.45 41.45 18.85 39.45 20.35 38.25 21.65 36.8 23.45 35.8 26 33.6 31.35 33.75 36.2 33.8 37.15 33.9 38.05 33.95 38.35 34 38.6 33.95 38.6 33.9 38.6 32.65 38.55 30.45 37.1 29.9 36.65 29.55 36.55
L 29.5 36.55
Q 29.25 36.5 29.1 36.55 28.9 36.6 28.8 36.7 28.65 36.75 28.6 36.9 28.25 37.4 28.85 38.15 28.95 38.25 29.05 38.4 30 39.7 31.8 40.65 32.15 40.85 32.55 41 33.55 41.5 35.05 42 35 41.9 35 41.85 35.05 41.95 35.1 42.05 35.25 42.35 35.4 42.65 36.85 45.3 39.75 47.1
L 39.8 47.15
Q 41.45 48.15 43.35 48.8 43.5 48.85 43.65 48.9 44.55 49.2 45.5 49.4 45.65 49.4 45.8 49.45 52.45 50.7 59.3 48.25 59.65 48.1 60.05 48 60.1 47.95 60.2 47.9 63.35 46.7 65.3 45.05 67.75 42.95 70 38.75 71.3 36.35 71.65 34.6 72 33 71.8 30.3 71.7 27.6 71.15 25.8 70.95 25.1 70.65 24.4 69.25 21.35 66 19 62.8 16.65 58 15.75 54.15 15 51.3 15.75 51.05 15.8 50.85 15.85 48.9 16.55 47.85 16.8 47.85 16.75 47.9 16.75 47.9 16.05 47.85 15.5 47.75 13.45 48 12.65 48.2 12 48.8 11.35 49.5 10.6 49.8 10.2 52.05 7.65 53.05 4.3 56 4.1 59 4.7 61.15 5.15 61.75 5.25 63.3 5.45 64.4 5 65.5 4.55 66.45 3.3 67 2.55 67.85 0.95
L 71.65 -6.45
Q 73 -6.15 74.4 -5.8 75.15 -5.6 75.85 -5.4 84 -3.05 91.3 1.25 91.5 1.35 91.7 1.5 97.35 5 98.2 8.75 98.6 10.45 98.25 12.7 98.2 12.9 98.15 13.1 98 13.95 96.95 17.4 94.85 24.5 94.75 31.95 94.7 34.3 94.9 36.75 94.95 37.75 95.1 38.75 95.1 38.9 95.15 39.15 95.15 39.55 95.25 39.95 95.3 40.55 95.4 41.15 95.4 41.25 95.45 41.35 95.45 41.5 95.5 41.65 95.5 41.8 95.55 41.95 96.3 46.4 97.8 50.6 98.7 53.15 99.85 55.65 100.7 57.4 100.95 58.25 101.45 59.75 101.3 60.95 101.1 62.45 99.8 63.9 98.95 64.9 97.15 66.25 94.9 63.25 94.75 59.45 94.75 58.2 94.7 57.6 94.6 56.55 94.25 55.85 94.15 55.65 94 55.5 93.55 54.95 92.85 54.7 91.85 54.35 91.25 55 90.75 55.55 90.75 56.9 90.8 58.65 91 60.4 91.15 61.55 91.4 62.7 91.8 64.4 92.35 66.05 92.4 66.1 92.4 66.15 92.45 66.25 92.5 66.4 83.65 70.55 73.8 71.75
L 73.35 68.35 72.45 61.45
Q 72 58.4 70.4 58.3 68.65 58.15 67.9 61 67.25 63.3 66.85 65.7 66.4 68.5 66.3 71.35 57.55 72.4 48.95 71.3 48.4 71.25 48 71.1 47.25 70.9 46.9 70.55 46.15 69.8 46.45 67.45
L 48 58.45
Q 48.35 57.15 47.55 56.85 46.75 56.6 46.2 57.95
L 44.65 61.6 42.65 66.2
Q 41.9 67.75 41.3 68.1 40.5 68.6 38.55 68.4
L 31.85 67.5
Q 30.05 67.25 29.15 66.95 27.7 66.5 26.85 65.65 25.05 63.85 25.7 58.85 25.7 58.7 25.75 58.6
L 25.75 58.55
Q 26.35 53.45 25.05 51.6
L 23.1 57.2
Q 24.15 48.7 21.9 36.95 18.8 23.55 17.45 16.85 16.6 12.8 17.25 10.45 18.1 7.55 22.15 4.35 29.35 -1.25 38.2 -4.4 46.95 -7.5 56.2 -7.85
M 61.8 21.1
Q 63.3 22.25 64.1 23.65 64.75 24.2 65.25 24.85 66.8 26.9 67.25 30.7 67.45 32.85 67.2 33.95 66.95 35.25 65.65 37.3 63.55 40.7 61.9 41.95 60.85 42.7 58.45 43.6 56.2 44.5 54.9 44.7 53.85 44.9 51.7 45 47.3 45.2 44.85 44.6 41 43.75 39.35 40.85 38.6 39.7 38.35 38 37.35 32.7 40.05 26.25 41.3 22.95 43.35 22.1 43.35 22.15 43.4 22.2 43.5 22.05 43.65 21.95 45.15 20.6 49 19.7 53.65 18.6 56.05 18.85 59.25 19.15 61.8 21.1
M 93.9 34
Q 94.05 32.3 93.35 30.65 93.05 29.9 92.65 29.3 92.15 28.5 91.45 27.85 91.1 27.5 90.75 27.25 88.55 25.5 85.3 25.15 82 24.85 80.8 26.7
L 80.55 27.35 80.45 27.6
Q 80.4 27.75 80.35 27.9 80.3 27.95 80.3 28 80.2 28.3 80.05 28.65 80 28.7 78.95 30.55 76.55 34.25 77.4 37.3 78.2 40.45 81.85 41.85 84.05 42.7 86.35 42.45 87.15 42.35 88 42.15 89.95 41.55 90.95 40.45 91.7 39.7 92.45 38.2
L 92.45 38.15
Q 92.5 38.1 92.5 38.05 93.75 35.6 93.9 34
M 81.8 30.15
Q 82.4 30.25 83.3 30.1
L 84.8 29.85
Q 87.25 29.7 88.85 31.45 89.9 32.6 89.85 33.8 89.8 34.25 89.6 34.85 89.45 35.2 89.15 35.9 88.5 37.35 88.35 37.5 87.7 38.15 86.7 38.4 84.75 38.85 83.35 38.3 81.6 37.65 80.9 36.05 80.65 35.4 80.55 33.95 80.55 31.35 81.8 30.15 Z"/>

<path fill="#CC66FF" stroke="none" d="
M 64.1 23.65
Q 63.3 22.25 61.8 21.1 59.25 19.15 56.05 18.85 53.65 18.6 49 19.7 45.15 20.6 43.65 21.95 43.5 22.05 43.4 22.2 43.35 22.15 43.35 22.1 41.3 22.95 40.05 26.25 37.35 32.7 38.35 38 38.6 39.7 39.35 40.85 41 43.75 44.85 44.6 47.3 45.2 51.7 45 53.85 44.9 54.9 44.7 56.2 44.5 58.45 43.6 60.85 42.7 61.9 41.95 63.55 40.7 65.65 37.3 66.95 35.25 67.2 33.95 67.45 32.85 67.25 30.7 66.8 26.9 65.25 24.85 64.75 24.2 64.1 23.65 Z"/>

<path fill="#929274" stroke="none" d="
M 54.65 56.6
Q 53.55 56.05 51.6 54.8 49.5 53.4 48.15 52.95 47.75 52.85 47.4 52.8 47.6 52.8 47.85 52.8 46.9 52.75 46.05 52.7 45.1 52.85 43.4 53.95 42.45 54.55 41.6 55 42.7 55.65 43.15 56.15 44.1 57.25 44.4 59.4 44.55 60.5 44.65 61.6
L 46.2 57.95
Q 46.75 56.6 47.55 56.85 48.35 57.15 48 58.45
L 46.45 67.45
Q 46.15 69.8 46.9 70.55 47.25 70.9 48 71.1 47.9 70.45 47.9 69.4 47.9 67.9 48.15 67.2
L 48.7 65.85
Q 48.9 65.35 48.95 64.55 49.05 63.35 49.1 63.2 49.35 61.5 50.85 59.35 51.6 58.25 52.3 57.7 52.9 57.2 54.3 56.7 54.5 56.65 54.65 56.6
M 43.65 48.9
Q 43.5 48.85 43.35 48.8 41.45 48.15 39.8 47.15
L 39.75 47.1
Q 36.85 45.3 35.4 42.65 35.25 42.35 35.1 42.05 35.05 41.95 35 41.85 35 41.9 35.05 42 33.55 41.5 32.55 41 32.55 41.2 32.6 41.4 33.9 47.2 38.2 49.4 39.6 50.15 42.25 50.7
L 49.25 52.4
Q 52.5 53.25 54.5 53.2 57.35 53.2 60.85 51.45 64.9 49.4 67.55 46.5 70.15 43.6 71.35 39.7 72.55 35.9 72.2 31.9 71.8 29.2 71.75 27.85 71.65 26.1 71.45 25.6 71.15 24.75 70.65 24.4 70.95 25.1 71.15 25.8 71.7 27.6 71.8 30.3 72 33 71.65 34.6 71.3 36.35 70 38.75 67.75 42.95 65.3 45.05 63.35 46.7 60.2 47.9 60.1 47.95 60.05 48 59.65 48.1 59.3 48.25 52.45 50.7 45.8 49.45 45.65 49.4 45.5 49.4 44.55 49.2 43.65 48.9
M 43.9 7.25
Q 41.05 6.9 40.65 6.8 38.7 6.35 38.65 6.35 37.45 6.2 36.6 6.4 35.6 6.6 34.15 7.85 30.55 11.05 29.15 15.8 29.05 16.25 29.15 16.45 29.3 16.85 29.8 16.65 30.25 16.5 30.6 16.1 32.2 13.9 33.1 12.85 34.45 11.45 35.8 10.85 34.9 11.1 33.2 12.45
L 30.75 14.6
Q 30.45 14.65 30.3 14.4 30.1 14.15 30.15 13.85 30.2 13.6 30.75 12.9
L 32.8 10.75
Q 34.3 9.15 35.3 8.7 35.4 8.65 35.5 8.65 37.05 8.1 40.15 8.75
L 44.15 9.7
Q 45.6 10 46.6 10.55 46.95 10.1 47.5 9.5 47.8 9.2 48.05 8.9 48.2 8.65 48.4 8.45 47.65 8.1 47.1 7.9 45.9 7.5 43.9 7.25
M 95.4 52.25
Q 93.95 52.95 92.3 53 90.25 53.1 87.35 51.9 86.35 51.5 85.65 51.05 85.55 51.35 85.45 51.7 85.4 51.9 85.35 52.05 84.8 53.7 84.1 54.5 83.3 55.45 81.85 56 81 56.35 79.1 56.75 76 57.35 74.35 57.45 71.7 57.6 69.75 56.85 68.9 56.55 67.6 55.8 66.7 55.25 66.1 54.95 65.8 54.8 65.6 54.7
L 65.45 54.8
Q 63.65 56.5 61.15 57.1 61.8 57.5 62.45 58.15 65.7 61.3 66.85 65.7 67.25 63.3 67.9 61 68.65 58.15 70.4 58.3 72 58.4 72.45 61.45
L 73.35 68.35
Q 73.7 65.45 74.55 63.05 74.95 61.9 75.35 61.25 76.4 59.5 78.7 58 80.55 56.9 82 56.7 83 56.6 85 57 87.45 57.55 88.75 58.35 89.85 59.05 91 60.4 90.8 58.65 90.75 56.9 90.75 55.55 91.25 55 91.85 54.35 92.85 54.7 93.55 54.95 94 55.5 94.5 53.4 95.4 52.25
M 93.35 30.65
Q 94.05 32.3 93.9 34 93.75 35.6 92.5 38.05 92.5 38.1 92.45 38.15
L 92.45 38.2
Q 91.7 39.7 90.95 40.45 89.95 41.55 88 42.15 87.15 42.35 86.35 42.45 84.05 42.7 81.85 41.85 78.2 40.45 77.4 37.3 76.55 34.25 78.95 30.55 80 28.7 80.05 28.65 80.2 28.3 80.3 28 80.3 27.95 80.35 27.9 80.4 27.75 80.45 27.6
L 80.55 27.35
Q 80 27.55 79.65 27.8 78.25 28.65 77.1 31.2 75.7 34.25 75.65 36.7 75.55 39.9 77.4 41.95 79.7 44.55 84.95 44.75 91.6 45.05 94.3 41.55 94.85 40.8 95.25 39.95 95.15 39.55 95.15 39.15 95.1 38.9 95.1 38.75 94.95 37.75 94.9 36.75 94.7 34.3 94.75 31.95 94.15 30.45 93.15 29.25 92.05 27.95 90.75 27.25 91.1 27.5 91.45 27.85 92.15 28.5 92.65 29.3 93.05 29.9 93.35 30.65
M 72.05 -0.5
Q 74.15 -3.3 75.3 -4.7 75.6 -5.05 75.85 -5.4 75.15 -5.6 74.4 -5.8 73 -6.15 71.65 -6.45
L 67.85 0.95
Q 67 2.55 66.45 3.3 65.5 4.55 64.4 5 63.3 5.45 61.75 5.25 61.15 5.15 59 4.7 56 4.1 53.05 4.3 52.05 7.65 49.8 10.2 49.5 10.6 48.8 11.35 48.2 12 48 12.65 47.75 13.45 47.85 15.5 47.9 16.05 47.9 16.75 47.85 16.75 47.85 16.8 48.9 16.55 50.85 15.85 51.05 15.8 51.3 15.75 51.35 15.1 51.4 14.4 51.5 13.3 51.75 12.85 52 12.3 52.65 11.65
L 53.7 10.6
Q 53.95 10.35 54.75 9.05 55.3 8.1 55.9 7.7 56.8 7.1 58.3 7.25 58.95 7.35 60.8 7.85 64.25 8.9 66.2 7.65 67 7.15 67.65 6.2 67.95 5.75 68.75 4.35 69.4 3.2 72.05 -0.5
M 58.25 -7.9
Q 57.25 -7.9 56.2 -7.85 46.95 -7.5 38.2 -4.4 29.35 -1.25 22.15 4.35 18.1 7.55 17.25 10.45 16.6 12.8 17.45 16.85 18.8 23.55 21.9 36.95 24.15 48.7 23.1 57.2
L 25.05 51.6
Q 26.35 53.45 25.75 58.55 25.85 58.45 25.95 58.3 26.95 57.05 27.35 56.35 28.7 54.4 29.2 54.05 29.8 53.7 31.65 53.35 32.15 53.25 32.85 53.05 30.8 50.95 30.2 49.4 29.9 48.6 29.7 46.9
L 29.25 42.8
Q 28.95 40.35 29.05 38.65
L 29.15 39.1 29.05 38.4
Q 28.95 38.25 28.85 38.15 28.25 37.4 28.6 36.9 28.65 36.75 28.8 36.7
L 28.25 33.05
Q 27.2 26.1 27.2 22.15 27.2 20.05 27.2 19 27.15 17.2 26.85 15.95 26.5 14.65 26.35 14 26.1 12.85 26.2 12.05 26.35 10.8 27.3 9.6 27.9 8.8 29.25 7.6 34.35 3.1 37.25 1.3 39.75 -0.3 43.5 -1.9 45.65 -2.8 50 -4.55 56.7 -7.4 58.25 -7.9 Z"/>

<path fill="#D7D7C5" stroke="none" d="
M 85 57
Q 83 56.6 82 56.7 80.55 56.9 78.7 58 76.4 59.5 75.35 61.25 74.95 61.9 74.55 63.05 73.7 65.45 73.35 68.35
L 73.8 71.75
Q 83.65 70.55 92.5 66.4 92.45 66.25 92.4 66.15 92.4 66.1 92.35 66.05 91.8 64.4 91.4 62.7 91.15 61.55 91 60.4 89.85 59.05 88.75 58.35 87.45 57.55 85 57
M 75.3 -4.7
Q 74.15 -3.3 72.05 -0.5 69.4 3.2 68.75 4.35 67.95 5.75 67.65 6.2 67 7.15 66.2 7.65 64.25 8.9 60.8 7.85 58.95 7.35 58.3 7.25 56.8 7.1 55.9 7.7 55.3 8.1 54.75 9.05 53.95 10.35 53.7 10.6
L 52.65 11.65
Q 52 12.3 51.75 12.85 51.5 13.3 51.4 14.4 51.35 15.1 51.3 15.75 54.15 15 58 15.75 62.8 16.65 66 19 69.25 21.35 70.65 24.4 71.15 24.75 71.45 25.6 71.65 26.1 71.75 27.85 71.8 29.2 72.2 31.9 72.55 35.9 71.35 39.7 70.15 43.6 67.55 46.5 64.9 49.4 60.85 51.45 57.35 53.2 54.5 53.2 52.5 53.25 49.25 52.4
L 42.25 50.7
Q 39.6 50.15 38.2 49.4 33.9 47.2 32.6 41.4 32.55 41.2 32.55 41 32.15 40.85 31.8 40.65 30 39.7 29.05 38.4
L 29.15 39.1 29.05 38.65
Q 28.95 40.35 29.25 42.8
L 29.7 46.9
Q 29.9 48.6 30.2 49.4 30.8 50.95 32.85 53.05 32.15 53.25 31.65 53.35 29.8 53.7 29.2 54.05 28.7 54.4 27.35 56.35 26.95 57.05 25.95 58.3 25.85 58.45 25.75 58.55
L 25.75 58.6
Q 25.7 58.7 25.7 58.85 25.05 63.85 26.85 65.65 27.7 66.5 29.15 66.95 30.05 67.25 31.85 67.5
L 38.55 68.4
Q 40.5 68.6 41.3 68.1 41.9 67.75 42.65 66.2
L 44.65 61.6
Q 44.55 60.5 44.4 59.4 44.1 57.25 43.15 56.15 42.7 55.65 41.6 55 42.45 54.55 43.4 53.95 45.1 52.85 46.05 52.7 46.9 52.75 47.85 52.8 47.6 52.8 47.4 52.8 47.75 52.85 48.15 52.95 49.5 53.4 51.6 54.8 53.55 56.05 54.65 56.6 54.5 56.65 54.3 56.7 52.9 57.2 52.3 57.7 51.6 58.25 50.85 59.35 49.35 61.5 49.1 63.2 49.05 63.35 48.95 64.55 48.9 65.35 48.7 65.85
L 48.15 67.2
Q 47.9 67.9 47.9 69.4 47.9 70.45 48 71.1 48.4 71.25 48.95 71.3 57.55 72.4 66.3 71.35 66.4 68.5 66.85 65.7 65.7 61.3 62.45 58.15 61.8 57.5 61.15 57.1 63.65 56.5 65.45 54.8
L 65.6 54.7
Q 65.8 54.8 66.1 54.95 66.7 55.25 67.6 55.8 68.9 56.55 69.75 56.85 71.7 57.6 74.35 57.45 76 57.35 79.1 56.75 81 56.35 81.85 56 83.3 55.45 84.1 54.5 84.8 53.7 85.35 52.05 85.4 51.9 85.45 51.7 85.55 51.35 85.65 51.05 86.35 51.5 87.35 51.9 90.25 53.1 92.3 53 93.95 52.95 95.4 52.25 94.5 53.4 94 55.5 94.15 55.65 94.25 55.85 94.6 56.55 94.7 57.6 94.75 58.2 94.75 59.45 94.9 63.25 97.15 66.25 98.95 64.9 99.8 63.9 101.1 62.45 101.3 60.95 101.45 59.75 100.95 58.25 100.7 57.4 99.85 55.65 98.7 53.15 97.8 50.6 96.3 46.4 95.55 41.95 95.5 41.8 95.5 41.65 95.45 41.5 95.45 41.35 95.4 41.25 95.4 41.15 95.3 40.55 95.25 39.95 94.85 40.8 94.3 41.55 91.6 45.05 84.95 44.75 79.7 44.55 77.4 41.95 75.55 39.9 75.65 36.7 75.7 34.25 77.1 31.2 78.25 28.65 79.65 27.8 80 27.55 80.55 27.35
L 80.8 26.7
Q 82 24.85 85.3 25.15 88.55 25.5 90.75 27.25 92.05 27.95 93.15 29.25 94.15 30.45 94.75 31.95 94.85 24.5 96.95 17.4 98 13.95 98.15 13.1 98.2 12.9 98.25 12.7 97.9 11.85 97.45 10.95 96.55 9 94.5 5.75 92.85 3.05 91.9 1.75 91.8 1.6 91.7 1.5 91.5 1.35 91.3 1.25 84 -3.05 75.85 -5.4 75.6 -5.05 75.3 -4.7
M 50 -4.55
Q 45.65 -2.8 43.5 -1.9 39.75 -0.3 37.25 1.3 34.35 3.1 29.25 7.6 27.9 8.8 27.3 9.6 26.35 10.8 26.2 12.05 26.1 12.85 26.35 14 26.5 14.65 26.85 15.95 27.15 17.2 27.2 19 27.2 20.05 27.2 22.15 27.2 26.1 28.25 33.05
L 28.8 36.7
Q 28.9 36.6 29.1 36.55 29.25 36.5 29.5 36.55
L 29.55 36.55
Q 29.9 36.65 30.45 37.1 32.65 38.55 33.9 38.6 33.95 38.6 34 38.6 33.95 38.35 33.9 38.05 33.8 37.15 33.75 36.2 33.6 31.35 35.8 26 36.8 23.45 38.25 21.65 39.45 20.35 41.45 18.85 43.35 17.45 44.45 17.15 44.8 17.05 45.45 17 45.45 15.65 45.4 14.65 45.35 13.8 45.45 13.1 44.45 13.25 43.7 13.2 42.8 13.1 41.7 12.6 41.6 12.55 39.85 11.65 37.5 10.45 35.8 10.85 34.45 11.45 33.1 12.85 32.2 13.9 30.6 16.1 30.25 16.5 29.8 16.65 29.3 16.85 29.15 16.45 29.05 16.25 29.15 15.8 30.55 11.05 34.15 7.85 35.6 6.6 36.6 6.4 37.45 6.2 38.65 6.35 38.7 6.35 40.65 6.8 41.05 6.9 43.9 7.25 45.9 7.5 47.1 7.9 47.65 8.1 48.4 8.45 49.7 6.75 50.45 4.8 51.25 2.85 51.75 2.35 52.65 1.5 54.8 1.3 57 1.05 59.75 1.2 61.55 1.3 62.2 0.9 62.85 0.5 63.45 -0.65 64.55 -2.7 65.45 -4.5 66.2 -6 66.8 -7.3 62.5 -7.9 58.25 -7.9 56.7 -7.4 50 -4.55 Z"/>

<path fill="#666666" stroke="none" d="
M 83.3 30.1
Q 82.4 30.25 81.8 30.15 80.55 31.35 80.55 33.95 80.65 35.4 80.9 36.05 81.6 37.65 83.35 38.3 84.75 38.85 86.7 38.4 87.7 38.15 88.35 37.5 88.5 37.35 89.15 35.9 89.45 35.2 89.6 34.85 89.8 34.25 89.85 33.8 89.9 32.6 88.85 31.45 87.25 29.7 84.8 29.85
L 83.3 30.1 Z"/>

<path fill="#CCCC99" stroke="none" d="
M 94.5 5.75
Q 96.55 9 97.45 10.95 97.9 11.85 98.25 12.7 98.6 10.45 98.2 8.75 97.35 5 91.7 1.5 91.8 1.6 91.9 1.75 92.85 3.05 94.5 5.75 Z"/>
</g>

<g id="Bone_Archer_Head_0_Layer0_0_FILL">
<path fill="#000000" stroke="none" d="
M 150.15 7.2
Q 149.45 7.1 147.8 7.75 147 8.1 139.55 10.95 136.6 12.2 135.1 12.65 131.5 13.85 128.8 13.95
L 127.35 13.95
Q 126.5 13.95 125.95 14.2 125.15 14.6 124.45 15.8 123.8 17.15 123.4 17.85 123.1 18.5 121.95 19.75 121 20.9 120.6 21.65 120.05 22.75 119.7 23.2 119.5 23.55 118.95 23.9 118.6 24.15 118.4 24.35
L 114.35 25.15 111.55 26.15
Q 110.2 26.6 106.4 27.45
L 103.45 28.1
Q 95.15 29.95 91.75 30.5 88.4 31.1 87.05 31.5 84.45 32.2 82.8 33.4 81.8 34.1 82 34.65 82.25 35.25 83.4 35.2 84.3 35.3 86.1 35.2 89.1 35.1 92.7 34.45 95.05 34 99.3 33
L 107.9 31.15
Q 109.5 30.9 111.05 30.35
L 114.4 29.45
Q 115.6 29.1 117.05 28.7 117.6 29.25 118.4 29.7 120.5 30.7 121.5 31.2
L 124.1 31.85
Q 126.15 32.55 128.05 34 129.7 35.55 130.65 35.9 131.95 36.3 134.6 35.75 136.65 35.4 140.55 34.5 144 33.7 146.45 33.5 149.05 33.35 149.6 32.25 149.8 31.75 149.6 31.15 149.5 30.5 149 30.15 148.65 29.7 147.05 28.85 144.9 27.5 142.4 23.95 141.75 23.25 141.45 22.5 140.8 20.5 143.8 17.3
L 150.85 9.85
Q 151.7 9.05 151.7 8.5 151.75 8 151.2 7.55 150.8 7.2 150.15 7.2
M 144.55 12.3
Q 143.8 13.3 142.35 14.8 140.8 16.45 140.2 17.3 137.65 20.6 138.45 23.25 138.526171875 23.5109375 138.65 23.8 139.15859375 24.8412109375 140.45 26.25
L 144.55 30.85 136.7 32.75
Q 135.3 33.05 134.6 33.05 133.4 33.25 132.55 33 131.65 32.7 130.7 32.1 129.65 31.25 129.2 30.9 127.1 29.3 123.85 28 123.15 27.75 122.25 27.45
L 123.35 27.2
Q 124.95 26.75 125.6 26.3 126.2 25.9 126.45 25.35 126.4650390625 25.3083984375 126.45 25.25 126.638671875 24.7623046875 126.5 24.3 126.15 23.4 124.95 23.2 124.35 23.15 123.4 23.35 123.75 22.85 124.15 22.3 125.95 19.6 126.35 19.1 127.65 17.4 129.3 16.75 130.25 16.45 131.85 16.25 134.05 16.1 134.45 16.05 136.1 15.7 139.45 14 142.6 12.5 144.55 12.3 Z"/>

<path fill="#71368A" stroke="none" d="
M 138.65 23.8
Q 135.10390625 23.8361328125 133.7 23.95 132.4 24.05 127.3 24.9 126.912109375 24.9646484375 126.55 25 126.5203125 25.144140625 126.45 25.25 126.4650390625 25.3083984375 126.45 25.35 126.2 25.9 125.6 26.3 124.95 26.75 123.35 27.2
L 122.25 27.45
Q 123.15 27.75 123.85 28 127.1 29.3 129.2 30.9 129.65 31.25 130.7 32.1 131.65 32.7 132.55 33 133.4 33.25 134.6 33.05 135.3 33.05 136.7 32.75
L 144.55 30.85 140.45 26.25
Q 139.15859375 24.8412109375 138.65 23.8 Z"/>

<path fill="#CC66FF" stroke="none" d="
M 142.35 14.8
Q 143.8 13.3 144.55 12.3 142.6 12.5 139.45 14 136.1 15.7 134.45 16.05 134.05 16.1 131.85 16.25 130.25 16.45 129.3 16.75 127.65 17.4 126.35 19.1 125.95 19.6 124.15 22.3 123.75 22.85 123.4 23.35 124.35 23.15 124.95 23.2 126.15 23.4 126.5 24.3 126.638671875 24.7623046875 126.45 25.25 126.5203125 25.144140625 126.55 25 126.912109375 24.9646484375 127.3 24.9 132.4 24.05 133.7 23.95 135.10390625 23.8361328125 138.65 23.8 138.526171875 23.5109375 138.45 23.25 137.65 20.6 140.2 17.3 140.8 16.45 142.35 14.8 Z"/>
</g>

<g id="Bone_Archer_Bow_shooot_4_Layer4_0_FILL">
<path fill="#000000" stroke="none" d="
M 34.05 95.35
Q 34.0876953125 95.415234375 34.1 95.45
L 34.35 95.4
Q 33.6796875 95.993359375 33.15 96.75 32.6 97.6 32.75 98.45 32.9 99.05 33.6 99.35 33.7603515625 99.4234375 33.9 99.5 32.8853515625 99.1353515625 32.4 99.4 31.5 99.8 31.8 100.95 32.1 101.85 32.9 102.3 34.15 103.25 36.05 103.6 37.35 103.8 39.55 103.8 46.05 103.85 53.75 103.05
L 53.8 103.05
Q 53.9859375 103.52421875 54.4 103.75 55.15 103.55 55.55 102.8 55.95 102.05 55.85 101.25 55.75 99.95 54.4 98.55 50.634375 94.4078125 43.65 92.75 42.9171875 92.23671875 42.5 91.9 42.427734375 91.925390625 42.35 91.95 41.7166015625 92.15 41.15 92.3 40.9900390625 92.278125 40.8 92.25 39.1 92.05 38.2 92.4 37.7748046875 92.5771484375 37.45 92.9 36.2662109375 92.9396484375 35.6 93.15 35.38203125 93.22265625 35.15 93.3
L 31.9 93.8
Q 31.2 93.95 31.1 94.5 31.05 94.95 31.35 95.25 31.6 95.55 32 95.6 33.065625 95.7470703125 34.05 95.35
M 34.1 97.75
Q 34.176171875 97.6880859375 34.25 97.6 35.776171875 96.421484375 37.3 95.85 37.71796875 95.7169921875 38 95.5 38.33828125 95.69609375 38.8 95.85 39.9 96.25 42.15 96.85 44.4 97.4 45.5 97.8 45.5619140625 97.8240234375 45.6 97.85
L 45.65 97.85
Q 45.919921875 97.959375 46.2 98.05
L 48.9 99.5
Q 49.0478515625 99.5740234375 49.15 99.65 49.2359375 99.686328125 49.3 99.7 49.3935546875 99.784765625 49.5 99.85 49.5974609375 99.9111328125 49.7 99.95 49.3091796875 100.0076171875 48.9 100.05
L 47.4 100.15
Q 45.95 100.25 43.05 100
L 41.7 99.85
Q 37.65 99.35 34.1 97.75 Z"/>

<path fill="#FFFFFF" stroke="none" d="
M 38 95.5
Q 37.71796875 95.7169921875 37.3 95.85 35.776171875 96.421484375 34.25 97.6 39.8400390625 97.5544921875 45.6 97.85 45.5619140625 97.8240234375 45.5 97.8 44.4 97.4 42.15 96.85 39.9 96.25 38.8 95.85 38.33828125 95.69609375 38 95.5 Z"/>

<path fill="#CCCC99" stroke="none" d="
M 34.25 97.6
Q 34.176171875 97.6880859375 34.1 97.75 37.65 99.35 41.7 99.85
L 43.05 100
Q 45.95 100.25 47.4 100.15
L 48.9 100.05
Q 49.3091796875 100.0076171875 49.7 99.95 49.5974609375 99.9111328125 49.5 99.85 49.3935546875 99.784765625 49.3 99.7 49.2359375 99.686328125 49.15 99.65 49.0478515625 99.5740234375 48.9 99.5
L 46.2 98.05
Q 45.919921875 97.959375 45.65 97.85
L 45.6 97.85
Q 39.8400390625 97.5544921875 34.25 97.6 Z"/>
</g>

<g id="Bone_Archer_Bow_1_Layer0_0_FILL">
<path fill="#000000" stroke="none" d="
M 71.05 -48.15
Q 68.9 -48.2 66.35 -46.95 64.7 -46.1 62.1 -44.25 59.3 -42.4 48.55 -34.85 44.85 -32.45 44.1 -30 43.75 -28.65 44.15 -26.8 44.45 -25.65 45.25 -23.7 47.05 -19.45 47.95 -16.45 49.1 -12.4 49.15 -8.85 49.15 -5.05 47.9 -0.35 47.15 2.4 45.15 7.85 41.8 16.75 40 21 36.95 28.3 33.75 33.65 28.7 41.85 20.75 50.1 14.6 56.45 5.2 64.45 0.95 68.25 -2.2 70.55 -6.5 73.7 -10.45 75.6 -13.85 77.1 -15.2 78.05 -17.7 79.75 -18.1 82.05 -18.65 84.65 -16.3 87.8 -15.5193359375 88.812109375 -14.25 90.4 -14.8896484375 91.829296875 -14.2 93.8 -13.7 95.1 -12.35 97.1 -11.8826171875 97.7572265625 -11.45 98.4 -8.7080078125 99.9275390625 -7.1 101.1 -3.35 103.8 -1.55 107 -0.3 109.25 0.6 113.85 3.2 125.85 0.7 135.1 -0.508984375 140.2263671875 -3.55 144.45 -3.2603515625 146.030078125 -2.45 147.25 -2.458203125 147.4154296875 -2.5 147.55 -4.3 151.75 -5.05 153.75 -6.45 157.45 -5.2 159.8 -4.15 161.85 -1.3 162.8 0.25 163.35 3.95 163.8 8.35 164.5 13.3 166.3 17 167.6 22.15 170.05 33.4 174.95 41.1 179.3 51.05 184.9 58.2 191.35 62.9 195.65 67.95 201.75 70.85 205.25 76.55 212.9 80.1 217.55 81.55 219.95 84.05 224.1 85.15 227.75 86.1 231.2 86.15 235.35 86.2 238.5 85.65 243.1 85.45 245.15 85.55 246.35 85.6 248.2 86.35 249.5 87.75 251.6 92.05 252.85 104.4 257 107.55 258 110.65 259.05 112.5 259.35 115.2 259.8 117.35 259.2 124.75 257.1 125.95 243.65 127.2 229.5 125.9 214.85 125.5 211.55 125.05 209.7 124.35 206.9 123.35 204.8 121.45 201.1 116.95 198.15 114.3 196.4 108.5 193.55 94.4 186.8 84.1 180.35 71.3 172.5 61.8 163.9 50.95 154.1 43.55 142.85 35.65 130.65 32.6 117.65 31.85 115.2 31.55 114.15 31 112.45 30.05 111.3 29.45 98.15 33.5 84.35 37.3 71.45 44.9 59 51.6 48 61.6 36.9 69.7 27.8 81.3 17.3 86.1 12.9 88.1 10.5 91.5 6.35 92.3 2.3 92.75 0 92.55 -2.9 92.45 -4.8 91.9 -8.1 89.05 -22.5 83.8 -35.7 78.75 -48.25 71.05 -48.15
M 63.75 -34.8
L 67.45 -37.3
Q 69.9 -38.9 71.4 -38.45 72.75 -37.85 73.7 -35.1
L 80.75 -12.25
Q 82.25 -7.55 82.65 -4.75 83.2 -0.55 82.05 2.7 81.1 5.15 78.75 7.7 77.45 9.1 74.3 11.8 66.6 18.45 61.5 23.85 57.54140625 27.76796875 51.55 34.35 50.2017578125 35.8328125 48.75 37.45 43.5 43.35 41.15 46.55 39.05 49.45 34.85 57 34.5326171875 57.598828125 34.2 58.2 31.379296875 63.6287109375 29.1 68.6 28.9728515625 68.9681640625 28.8 69.3
L 28.8 69.3
Q 24.68671875 78.5275390625 22.55 86.25 17.95 102.95 21.05 116.85 21.8 119.85 23.15 121 25.25 132.45 32.5 144.15 39.55 155.35 52.7 168.7 58.9 174.7 61.7 176.9 64.9 179.25 71.6 183.45 81.7 189.65 87.65 192.9 94.1 196.55 103.3 200.75 107.1 202.5 108.8 203.55 111.7 205.2 113.35 207.3 115.45 210.1 116 214.25 116.5 217.1 116.35 222
L 116.1 245.9
Q 116.05 248.9 114.9 249.8 113.55 250.65 110.8 249.85
L 108.45 249.05 101.6 246.8
Q 98.05 245.85 96.75 244 96.52734375 243.6986328125 96.35 243.35 95.873828125 242.39140625 95.8 241.1 95.75 240.45 95.85 238.05 96.2 231.3 94.95 226.3 93.3 219.5 88.4 212.25 85.5 208 78.65 200 70.15 190.2 65.6 186.05 58.5 179.6 48.45 173.7 41.6 169.7 29.7 163.9 21.7 160 17.25 158.65 10.2 156.35 4.3 156.95 4.753515625 152.652734375 4.8 148.35 5.08828125 148.13359375 5.35 147.85 6.9 146.15 7.75 143.55 8.5 141.25 9.1 137.3 9.85 132.65 10.25 131.05 10.3 130.75 11.6 126.1 12.4 123.1 12.55 121.05 13.05 115.15 9.3 107.3 4.341015625 96.25078125 -3.1 90.95 -4.1865234375 90.162890625 -5.35 89.5 -5.408203125 89.4673828125 -5.5 89.4 -6.6736328125 85.706640625 -8.2 82.05 -2.35 80.95 3.75 76.8 7.6 74.2 14.15 68.15 23.95 59.25 29.4 53.4 37.35 44.85 42.25 36.7 45.45 31.45 50.8 19.6 55.1 10 56.65 5.05 59.3 -3.25 58.9 -10.2 58.75 -15.4 56.5 -21.75 55.7 -24.05 55.55 -24.7 55.2 -26.45 55.65 -27.75 56.35 -29.85 59.5 -31.85
L 63.75 -34.8 Z"/>

<path fill="#CC66FF" stroke="none" d="
M 99.1 220.2
Q 97.95 219.85 97 220.2 94.55 221.4 95.7 226.7 97.0728515625 233.605078125 96.05 242.6 96.18984375 243.0111328125 96.35 243.35 96.52734375 243.6986328125 96.75 244 98.05 245.85 101.6 246.8
L 108.45 249.05
Q 108.7771484375 245.9841796875 108.9 242.7 109.25 238.35 108.5 235.25 107.85 233 106.1 230 103.1 225 103.05 224.95 101.75 222.15 100.85 221.25 100.1 220.5 99.1 220.2
M 65.25 -28.9
Q 64.2326171875 -32.587890625 63.75 -34.8
L 59.5 -31.85
Q 56.35 -29.85 55.65 -27.75 55.2 -26.45 55.55 -24.7 55.7 -24.05 56.5 -21.75 58.75 -15.4 58.9 -10.2 59.3 -3.25 56.65 5.05 55.1 10 50.8 19.6 45.45 31.45 42.25 36.7 37.35 44.85 29.4 53.4 23.95 59.25 14.15 68.15 7.6 74.2 3.75 76.8 -2.35 80.95 -8.2 82.05 -6.6736328125 85.706640625 -5.5 89.4 -5.408203125 89.4673828125 -5.35 89.5 -4.1865234375 90.162890625 -3.1 90.95 5.7876953125 87.41796875 13.55 82.6 20.9 78.1 26.05 72.5 27.3896484375 71.0783203125 28.8 69.3
L 28.8 69.3
Q 28.9728515625 68.9681640625 29.1 68.6 31.379296875 63.6287109375 34.2 58.2 34.5326171875 57.598828125 34.85 57 39.05 49.45 41.15 46.55 43.5 43.35 48.75 37.45 50.2017578125 35.8328125 51.55 34.35 52.119921875 33.4458984375 52.3 33.15 61.25 18.4 64.9 6.65 69.75 -8.85 66.9 -22.3 66.5 -24.5 65.25 -28.9 Z"/>

<path fill="#71368A" stroke="none" d="
M 28.8 69.3
Q 27.3896484375 71.0783203125 26.05 72.5 20.9 78.1 13.55 82.6 5.7876953125 87.41796875 -3.1 90.95 4.341015625 96.25078125 9.3 107.3 13.05 115.15 12.55 121.05 12.4 123.1 11.6 126.1 10.3 130.75 10.25 131.05 9.85 132.65 9.1 137.3 8.5 141.25 7.75 143.55 6.9 146.15 5.35 147.85 5.08828125 148.13359375 4.8 148.35 4.753515625 152.652734375 4.3 156.95 10.2 156.35 17.25 158.65 21.7 160 29.7 163.9 41.6 169.7 48.45 173.7 58.5 179.6 65.6 186.05 70.15 190.2 78.65 200 85.5 208 88.4 212.25 93.3 219.5 94.95 226.3 96.2 231.3 95.85 238.05 95.75 240.45 95.8 241.1 95.873828125 242.39140625 96.35 243.35 96.18984375 243.0111328125 96.05 242.6 97.0728515625 233.605078125 95.7 226.7 94.55 221.4 97 220.2 97.95 219.85 99.1 220.2 100.1 220.5 100.85 221.25 101.75 222.15 103.05 224.95 103.1 225 106.1 230 107.85 233 108.5 235.25 109.25 238.35 108.9 242.7 108.7771484375 245.9841796875 108.45 249.05
L 110.8 249.85
Q 113.55 250.65 114.9 249.8 116.05 248.9 116.1 245.9
L 116.35 222
Q 116.5 217.1 116 214.25 115.45 210.1 113.35 207.3 111.7 205.2 108.8 203.55 107.1 202.5 103.3 200.75 94.1 196.55 87.65 192.9 81.7 189.65 71.6 183.45 64.9 179.25 61.7 176.9 58.9 174.7 52.7 168.7 39.55 155.35 32.5 144.15 25.25 132.45 23.15 121 21.8 119.85 21.05 116.85 17.95 102.95 22.55 86.25 24.68671875 78.5275390625 28.8 69.3
M 63.75 -34.8
Q 64.2326171875 -32.587890625 65.25 -28.9 66.5 -24.5 66.9 -22.3 69.75 -8.85 64.9 6.65 61.25 18.4 52.3 33.15 52.119921875 33.4458984375 51.55 34.35 57.54140625 27.76796875 61.5 23.85 66.6 18.45 74.3 11.8 77.45 9.1 78.75 7.7 81.1 5.15 82.05 2.7 83.2 -0.55 82.65 -4.75 82.25 -7.55 80.75 -12.25
L 73.7 -35.1
Q 72.75 -37.85 71.4 -38.45 69.9 -38.9 67.45 -37.3
L 63.75 -34.8 Z"/>
</g>

<g id="Bone_Archer_Bow_shooot_4_Layer2_0_FILL">
<path fill="#000000" stroke="none" d="
M 29.35 91.15
Q 27.9796875 91.1 27.95 91.1 23.65 91.1 22.5 93.3 22.1 93.95 22 95.45 21.85 97.4 22 99.25 22.2 102.35 23.4 103.85 25 105.8 27.85 105.8 27.89296875 105.8009765625 27.9 105.8 29.384375 106.3869140625 30.95 106.3 32.15 106.25 33 105.85 34.25 105.3 35.4 103.7 36.75 101.8 37.1 99.45 37.5 97.05 36.75 94.9 35.85 92.45 34.2 91.6 32.9 90.95 30.9 91 30.09453125 91.0287109375 29.35 91.15
M 25.8 96.2
Q 26.6845703125 94.74921875 27.8 94.25
L 30.9 94.25
Q 31.8 94.35 32.05 94.6 32.3 94.85 32.55 95.7 32.6 95.8 33.5 96.7 34.1 97.45 34.1 98.5 34.1 99.5 33.55 100.35 32.65 101.8 30.35 102.5 28.87734375 102.944140625 27.7 102.85 27.5501953125 102.7501953125 27.4 102.65 25.9244140625 101.628515625 25.3 100.45
L 25.1 97.5
Q 25.3451171875 96.8689453125 25.8 96.2 Z"/>

<path fill="#FFFFFF" stroke="none" d="
M 27.8 94.25
Q 26.6845703125 94.74921875 25.8 96.2 25.3451171875 96.8689453125 25.1 97.5
L 25.3 100.45
Q 25.9244140625 101.628515625 27.4 102.65 27.5501953125 102.7501953125 27.7 102.85 28.87734375 102.944140625 30.35 102.5 32.65 101.8 33.55 100.35 34.1 99.5 34.1 98.5 34.1 97.45 33.5 96.7 32.6 95.8 32.55 95.7 32.3 94.85 32.05 94.6 31.8 94.35 30.9 94.25
L 27.8 94.25 Z"/>
</g>

<g id="Bone_Archer_Arrow_0_Layer0_0_FILL">
<path fill="#000000" stroke="none" d="
M 187.35 1.3
Q 185.3 0.75 183.35 1.5 181 2.65 179.8 3.2 179.77421875 3.2123046875 179.75 3.2 178.2546875 2.9705078125 177.25 2.35 176.9591796875 2.2046875 176.35 1.75 176.2802734375 1.6205078125 176.2 1.5 175.3333984375 0.1568359375 174 0 173.612890625 -0.19921875 173.25 -0.3 170.15 -1.4 165.9 2.75
L 153.65 14.75
Q 153.6220703125 14.7794921875 153.6 14.8 153.328515625 14.7828125 153 14.75 144.1 14.5 126.2 14.6 126.15 14.6 113.5 14.75 64.25 15.15 39.55 14.75 38.9650390625 14.75 38.45 14.75 38.65 11.8619140625 38.65 8.9 38.65 6.2 37.5 5.3 36.5498046875 4.4716796875 35.15 4.75 34.849609375 4.4623046875 34.5 4.2 33.25 3.3 31.7 3.2 30.15 3.1 28.9 3.9 28 4.45 27 5.7 26.45 6.35 25.3 7.75 23.9 9.35 21.5 10.6 19.85 11.45 17.05 12.45 9.9 15.05 7.8 16.1 5.8080078125 17.0466796875 4.15 18.15 3.0955078125 18.3486328125 1.75 18.6 -2.05 19.3 -4.35 19.95 -6.1 20.35 -6.5 21.35 -6.75 22.05 -6.35 22.8 -6.2662109375 22.9677734375 -6.15 23.1 -6.191015625 23.3423828125 -6.1 23.6 -4.45 24.65 -1.95 25 -0.45 25.2 2.45 25.35 8.15 25.9 17.6 30 27.95 34.45 32.65 35.35 35.65 35.85 37.05 35.1 38.35 34.35 39 32.5 39.4 31.25 39.6 29.05 39.9 26.55 39.4 25.3 39 24.3 38.2 23.75 37.8658203125 23.4943359375 37.5 23.35 37.57578125 23.04453125 37.6 22.7 47.4259765625 23.1525390625 59.65 23.25 101.65 23.55 143.5 21.45 148 21.15 150.3 20.75 150.5642578125 20.6900390625 151 20.55 151.98515625 20.819140625 153.85 21 154.0140625 21.164453125 154.2 21.3
L 160.85 26.45
Q 161.5916015625 27.0197265625 162.25 27.55
L 167.25 33.85
Q 169.1 36.2 170.65 37.3 170.964453125 37.533984375 171.25 37.7 171.3146484375 37.8146484375 171.35 37.9 172.1 39.75 172.3 40.05 172.9 41.25 173.7 41.75 174.85 42.5 176.35 42.2 177.8 41.9 178.8 40.8 180.35 39.05 180.45 35.7 182.6 36.95 183.55 37.35 185.3 38.1 186.9 38.1 188.7 38.1 190.15 36.85 191.6 35.6 191.4 33.95 191.3 32.65 190.1 31.35 189.9728515625 31.265234375 188.35 29.8 187.9912109375 28.241015625 186.95 26.7 185.3 24.7 184.5 23.65 183.9216796875 22.912109375 183.5 22.2 183.239453125 20.78828125 183.4 19.45 184.7330078125 17.95234375 185.5 15.1 186.2154296875 14.2064453125 187.25 13.15 189.6 10.7 190.35 9.2 191.3 7.2 190.65 5.8 190.2892578125 5.0359375 189.6 4.5 189.6892578125 4.0921875 189.65 3.7 189.5 1.9 187.35 1.3
M 184 8.25
Q 183.6181640625 9.3359375 183.2 10.7
L 180.15 16.6
Q 178.7 19.4 178.6 20.95 178.35 23.85 180.75 27.1 181.1 27.55 182.85 29.75 183.673046875 30.73125 184.2 31.55 181.957421875 29.8646484375 180.35 29.25 179.15 28.8 177.95 28.85 176.65 28.9 175.65 29.55 175.6216796875 29.5689453125 175.6 29.6 175.546875 29.569140625 175.5 29.55 175.379296875 29.6939453125 175.25 29.85 174.5322265625 30.4921875 174.25 31.5 173.99921875 32.3154296875 174.15 33 169.3734375 27.496875 163.75 23 161.5900390625 20.28203125 159.5 18.85 159.7 18.5 159.85 18.15 159.85 17.55 159.85 17 159.7005859375 16.765234375 159.55 16.5 162.0330078125 14.33125 163.5 12.9 166.5205078125 9.78359375 168.35 6.75 170.0134765625 5.551953125 171.8 4.45 172.2134765625 4.4875 172.9 4.65 173.039453125 4.8349609375 173.15 5.1
L 173.15 5.1
Q 172.8873046875 5.71171875 173.15 6.5 173.5 7.45 174.35 7.9 175.6220703125 8.5595703125 177.8 7.85 178.2447265625 7.8849609375 178.7 7.85 181.35 7.7 181.65 7.75 183.0693359375 7.791796875 184 8.25
M 30.7 15.05
Q 30.7880859375 15.45 30.9 15.85 30.9 15.93515625 31.45 17.4
L 31.05 21.8
Q 30.7 25 30.95 26.9 31.0748046875 27.9158203125 31.35 28.75
L 31.2 28.8
Q 23.7 24.5 18.7 23.7 17.2 23.5 14.05 23.25 11.6744140625 23.0201171875 9.4 22.4 20.3990234375 20.113671875 30.7 15.05 Z"/>

<path fill="#999999" stroke="none" d="
M 30.9 15.85
Q 30.7880859375 15.45 30.7 15.05 20.3990234375 20.113671875 9.4 22.4 11.6744140625 23.0201171875 14.05 23.25 17.2 23.5 18.7 23.7 23.7 24.5 31.2 28.8
L 31.35 28.75
Q 31.0748046875 27.9158203125 30.95 26.9 30.7 25 31.05 21.8
L 31.45 17.4
Q 30.9 15.93515625 30.9 15.85 Z"/>

<path fill="#CC66FF" stroke="none" d="
M 183.2 10.7
Q 183.6181640625 9.3359375 184 8.25 183.0693359375 7.791796875 181.65 7.75 181.35 7.7 178.7 7.85 178.2447265625 7.8849609375 177.8 7.85 175.6220703125 8.5595703125 174.35 7.9 173.5 7.45 173.15 6.5 172.8873046875 5.71171875 173.15 5.1
L 173.15 5.1
Q 173.039453125 4.8349609375 172.9 4.65 172.2134765625 4.4875 171.8 4.45 170.0134765625 5.551953125 168.35 6.75 166.5205078125 9.78359375 163.5 12.9 162.0330078125 14.33125 159.55 16.5 159.7005859375 16.765234375 159.85 17 159.85 17.55 159.85 18.15 159.7 18.5 159.5 18.85 161.5900390625 20.28203125 163.75 23 169.3734375 27.496875 174.15 33 173.99921875 32.3154296875 174.25 31.5 174.5322265625 30.4921875 175.25 29.85 175.379296875 29.6939453125 175.5 29.55 175.546875 29.569140625 175.6 29.6 175.6216796875 29.5689453125 175.65 29.55 176.65 28.9 177.95 28.85 179.15 28.8 180.35 29.25 181.957421875 29.8646484375 184.2 31.55 183.673046875 30.73125 182.85 29.75 181.1 27.55 180.75 27.1 178.35 23.85 178.6 20.95 178.7 19.4 180.15 16.6
L 183.2 10.7 Z"/>
</g>

<g id="Bone_Archer_Bow_shooot_4_Layer0_0_FILL">
<path fill="#000000" stroke="none" d="
M 97.2 91.75
Q 97.10390625 90.820703125 96.6 90 95.8130859375 87.1056640625 93.35 85.85 91.85 85.15 88.8 84.85 83.65 84.35 80.65 84.5 76.1 84.7 72.75 86.2 70.65 87.1 69.25 88.65 67.65 90.4 67.65 92.4 67.65 94 68.75 95.5 69.75 96.8 71.4 97.65 73.35 98.65 78 99.15 82.3 99.6 84.65 99.55 88.35 99.5 91.15 98.55 92.9240234375 97.9787109375 94.2 97 95.0439453125 96.498828125 95.75 95.75 97.55 93.9 97.2 91.75
M 84.4 88.55
Q 87.35 88.6 89.55 88.8 91.2419921875 88.9056640625 92.4 89.25 92.729296875 89.4201171875 93 89.6 93.429296875 89.98359375 93.75 90.45 94.3 91.3 94.2 92.25 94 93.7 92.2 94.75 90.268359375 95.941796875 87.6 96.3 85.85234375 96.1953125 84.9 96.15 82.3 96.1 81.05 96 80.34375 95.945703125 79.65 95.85 75.2595703125 95.2154296875 71.55 92.8 73.65 90.2 77.45 89.2 80.25 88.45 84.4 88.55 Z"/>

<path fill="#CCCC99" stroke="none" d="
M 84.9 96.15
Q 85.85234375 96.1953125 87.6 96.3 90.268359375 95.941796875 92.2 94.75 94 93.7 94.2 92.25 94.3 91.3 93.75 90.45 93.429296875 89.98359375 93 89.6 92.76953125 89.79609375 92.55 90 91 91.7 90.2 92.4 88.65 93.95 86.05 94.75 84.35 95.25 81.1 95.65
L 79.65 95.85
Q 80.34375 95.945703125 81.05 96 82.3 96.1 84.9 96.15 Z"/>

<path fill="#FFFFFF" stroke="none" d="
M 89.55 88.8
Q 87.35 88.6 84.4 88.55 80.25 88.45 77.45 89.2 73.65 90.2 71.55 92.8 75.2595703125 95.2154296875 79.65 95.85
L 81.1 95.65
Q 84.35 95.25 86.05 94.75 88.65 93.95 90.2 92.4 91 91.7 92.55 90 92.76953125 89.79609375 93 89.6 92.729296875 89.4201171875 92.4 89.25 91.2419921875 88.9056640625 89.55 88.8 Z"/>
</g>
</defs>

<g transform="matrix( 1, 0, 0, 1, 122.3,96.95) ">
<g transform="matrix( 1, 0, 0, 1, 0,0) ">
<use xlink:href="#Bone_Archer_23_Layer1_0_FILL"/>
</g>

<g transform="matrix( 1, 0, 0, 1, 18.2,-1.35) ">
<g transform="matrix( 1, 0, 0, 1, 10.75,53.7) ">
<g transform="matrix( 0.65557861328125, -0.75347900390625, 0.75347900390625, 0.65557861328125, -11.65,51.6) ">
<g transform="matrix( 1, 0, 0, 1, 0,0) ">
<use xlink:href="#Duplicate_Items_Folder_Bone_Crossbow_cape_copy_1_Layer1_0_FILL"/>
</g>

<g transform="matrix( 1, 0, 0, 1, 0,0) ">
<use xlink:href="#Duplicate_Items_Folder_Bone_Crossbow_cape_copy_1_Layer0_0_FILL"/>
</g>
</g>
</g>

<g transform="matrix( 0.7578277587890625, 0, 0, 0.96441650390625, 36.9,81.55) ">
<g transform="matrix( 1.23980712890625, 0, 0, 1.04937744140625, -8.7,-4.35) ">
<g transform="matrix( 1, 0, 0, 1, 0,0) ">
<use xlink:href="#Skeleton_Archer_archerSkeleton_body_0_Layer0_0_FILL"/>
</g>
</g>

<g transform="matrix( 1, 0, 0, 1, 0,0) ">
<use xlink:href="#Bone_Archer_Body_0_Layer0_0_FILL"/>
</g>
</g>

<g transform="matrix( 0.9972076416015625, -0.07452392578125, 0.07452392578125, 0.9972076416015625, -6.1,4.5) ">
<g transform="matrix( 1, 0, 0, 1, 0,0) ">
<use xlink:href="#Bone_Archer_Head_0_Layer3_0_FILL"/>
</g>

<g transform="matrix( 1, 0, 0, 1, 0,0) ">
<use xlink:href="#Bone_Archer_Head_0_Layer2_0_FILL"/>
</g>

<g transform="matrix( 1, 0, 0, 1, 0,0) ">
<use xlink:href="#Bone_Archer_Head_0_Layer1_0_FILL"/>
</g>

<g transform="matrix( 1, 0, 0, 1, 0,0) ">
<use xlink:href="#Bone_Archer_Head_0_Layer0_0_FILL"/>
</g>
</g>

<g transform="matrix( -0.814849853515625, 0.130279541015625, 0.130279541015625, 0.814849853515625, 115.65,-0.2) ">
<g transform="matrix( 1, 0, 0, 1, 0,0) ">
<use xlink:href="#Bone_Archer_Bow_shooot_4_Layer4_0_FILL"/>
</g>

<g transform="matrix( 0.436004638671875, 0, 0, 0.436004638671875, 25.85,45.5) ">
<g transform="matrix( 1, 0, 0, 1, 0,0) ">
<use xlink:href="#Bone_Archer_Bow_1_Layer0_0_FILL"/>
</g>
</g>

<g transform="matrix( 1, 0, 0, 1, 0,0) ">
<use xlink:href="#Bone_Archer_Bow_shooot_4_Layer2_0_FILL"/>
</g>

<g transform="matrix( 0.4358673095703125, -0.00921630859375, 0.00921630859375, 0.4358673095703125, -2.6,85.05) ">
<g transform="matrix( 1, 0, 0, 1, 0,0) ">
<use xlink:href="#Bone_Archer_Arrow_0_Layer0_0_FILL"/>
</g>
</g>

<g transform="matrix( 1, 0, 0, 1, 0,0) ">
<use xlink:href="#Bone_Archer_Bow_shooot_4_Layer0_0_FILL"/>
</g>
</g>
</g>
</g>
</svg>
