
<svg xmlns="http://www.w3.org/2000/svg" version="1.1" xmlns:xlink="http://www.w3.org/1999/xlink" preserveAspectRatio="none" x="0px" y="0px" width="345px" height="325px" viewBox="0 0 345 325">
<defs>
<g id="Bone_Archer_40_Layer1_0_FILL">
<path fill="#000000" stroke="none" d="
M 20.9 -2.25
Q 19.25 -1.85 17.85 -0.7 16.5 0.45 15.85 1.95 15.5 2.85 15.3 4.1 15.258984375 4.3873046875 15.2 4.8 14.2314453125 4.7021484375 13.05 5.35 12.05 5.85 11.6 6.65 11.35 7.15 11.15 8.6
L 10.75 15.2
Q 10.716015625 15.319140625 10.65 15.4 10.5802734375 15.4 10.5 15.4 10 15.3 9.5 15.65 9.1359375 15.881640625 8.95 16.15 5.60546875 15.5015625 2.7 15.6
L -0.05 15.65
Q -2 15.85 -2.6 15.85 -3.55 15.95 -4.1 15.85 -4.35 15.8 -4.85 15.6 -5.35 15.4 -5.6 15.4 -6.1 15.3 -6.6 15.65 -7.15 16 -7.3 16.5 -7.7 17.55 -6.8 18.8 -5.8 20.35 -3.9 21.85 -3.55 22.15 -0.55 24.35
L 3.5 27.5
Q 5.15 28.75 5.95 29.2 6.85 29.65 7.3 29.8 8 30.2 8.45 30.5 9.7 31.25 11.15 33.05 13.05 35.4 13.6 36 14.4 36.65 15 36.7 15.4 36.75 16.1 36.5 16.4 36.35 17.1 36.05 18.15 35.75 19.5 35.8 19.95 35.75 22 35.95 22.55 36 22.85 35.95 26.15 40.8 30.25 45.1 30.65 45.55 31.05 45.85 30.0052734375 46.7322265625 29.1 47.6 28.41953125 47.05703125 27.6 46.45 21.5 42.25 17.3 41.35 14.75 40.75 10.95 40.75 6.7 40.85 4.55 40.8 1 40.75 -0.05 40.85 -2.6 41.15 -4.05 42.5 -5.3443359375 43.62734375 -5.6 45.4 -5.64765625 45.528125 -5.7 45.65 -6.35 47.3 -5.3 48.8 -5.0607421875 49.0392578125 -4.85 49.25 -4.6146484375 49.6244140625 -4.3 49.95 -4.250390625 49.999609375 -4.2 50.05 -3.9376953125 50.4048828125 -3.8 50.7 -3.6 50.95 -3.05 52.4 -2.65 53.4 -2.2 53.85 -1.45 54.25 -1.25 54.5 -0.8 54.95 -1 55.95 -1.348828125 57.72578125 -2.5 59.2 -3.145703125 59.506640625 -3.7 59.95 -4.4931640625 60.5896484375 -4.95 61.45 -6.806640625 62.6654296875 -9.35 63.5 -10.6 63.9 -11.15 64.25 -12.1 64.8 -12.3 65.65 -12.5 66.5 -11.8 67.25 -11.2 67.95 -10.3 68.2 -9.65 68.35 -8.55 68.35 -7.35 68.2 -6.75 68.15 -5.594921875 68.047265625 -3.9 68.15 -1.90390625 69.8583984375 2.35 70.6 14.9 72.85 25.2 71.35 26.24375 71.2158203125 27.1 71 27.1431640625 71.0234375 27.15 71.05
L 7.9 74.2
Q 4.898828125 73.620703125 2.25 73.4 -0.35 73.15 -1.25 72.85 -2.55 72.3 -4.95 70.8 -7.55 69.55 -10.4 69.75 -11.65 69.75 -13.5 70.2 -13.94609375 70.3173828125 -14.65 70.5 -14.9732421875 70.4521484375 -15.3 70.4 -17.45 70.05 -21.6 69.9
L -24.35 69.8
Q -25.3646484375 69.6775390625 -26.45 69.75
L -34.25 69.5
Q -37.15 69.4 -38.75 69.65 -41.25 70.05 -42.7 71.3 -43.3275390625 71.8578125 -43.75 72.5 -43.8640625 72.533984375 -44 72.55 -44.75 72.6 -45.3 72.85 -45.9 73.15 -46.3 73.7 -46.7 74.3 -46.55 74.9 -46.4 75.5 -45.45 76.25 -44.855859375 76.75703125 -44.3 77.25 -43.6501953125 80.1044921875 -41.15 81.15 -40.245703125 81.5673828125 -39.1 81.7
L -36.75 83.7
Q -35.45 84.8 -35.5 85.75 -35.5 86.3 -36 86.8 -36.1 86.95 -37 87.65 -37.866015625 88.3978515625 -39.25 89.9 -42.720703125 90.8396484375 -44.35 92.05 -45.65 93 -46.35 94.35 -46.6900390625 95.0076171875 -46.85 95.65 -47.2021484375 96.0962890625 -47.25 96.55 -47.2 97.2 -46.85 97.75 -46.8 97.828515625 -46.75 97.9 -46.3029296875 99.2912109375 -45 100.35 -43.5 101.55 -41.55 101.8 -39.9 102 -37.8 101.65 -36.65 101.5 -34.15 100.85 -23.7 98.45 -12.95 98.75 -9.55 98.8 -8.75 98.75 -6.4 98.6 -4.75 97.7 -3.7974609375 97.2236328125 -3.05 96.5 -2.7916015625 96.6041015625 -2.5 96.75 -1.65 97.1 -1.2 97.5 -0.5 98.05 -0.05 99.05 0.25 99.75 0.15 100.2 0 100.9 -0.75 101.85 -1.5 102.55 -2.85 104 -2.95 104.15 -3.85 105.3 -4.4 106.15 -4.95 106.6 -5.1 106.8 -5.5 107.15 -5.9 107.45 -6 107.8 -6.2 108.35 -5.95 109.4 -5.6 110.55 -5 111.05 -4.15 111.65 -2.85 111.25 -1.4 110.7 -0.65 110.45 -0.25 110.35 0.55 110.3 1.7 110.15 1.85 110.15 2.65 110 4.05 109.3 5.6 108.6 6.3 108.4 6.75 108.25 7.7 108.1 8.75 108 9.2 107.85 9.801953125 107.6091796875 10.3 107.4 10.15546875 107.6060546875 10.1 107.8 9.9 108.35 10.15 109.4 10.5 110.55 11.1 111.05 11.95 111.65 13.25 111.25 14.7 110.7 15.45 110.45 15.85 110.35 16.65 110.3 16.855859375 110.2732421875 17 110.25
L 14.45 112.1
Q 12.8 113.25 12 113.95 11.583203125 114.2279296875 11.15 114.6 11.1205078125 114.6509765625 11.05 114.65 10.1724609375 114.1 8.75 114.1 8.55 114.1 5.5 114.25 4.1 114.3 0.2 114.05 -1.95 113.85 -3.55 114.15 -4.65 114.4 -5.9 115.15 -6.4 115.4 -8.1 116.5
L -10.25 118.05
Q -12.4 119.5 -13.8 120.15 -14.4 120.4 -15.6 120.8 -16.65 121.25 -17.3 121.65 -17.9 122.15 -18.95 123.15 -19.55 123.5 -21.15 124.15 -22.6 124.65 -23.15 125.5 -23.5 126.05 -23.5 126.65 -23.5 127.4 -23.1 127.75 -22.5 128.3 -21.1 128.3
L -8.2 127.85
Q -7.3 127.75 -7.25 128.25 -7.15 128.5 -7.4 128.85 -7.6 129 -8 129.35 -8.2 129.65 -8.25 130.15 -8.35 130.4 -8.35 131 -8.5 131.95 -9.5 133.3 -11.9 137.05 -15.2 143 -15.75 144.1 -15.9 144.6 -16.1 145.6 -15.45 146.25 -14.75 146.75 -12.95 146.35 -12.7404296875 146.278515625 -12.55 146.2 -12.55 146.3794921875 -12.55 146.55 -12.55 148.6 -11.5 150.25 -10.4 152.05 -8.6 152.6 -6.65 153.25 -4.25 152.25 -2.55 151.55 -0.2 149.8
L 8.2 143.5
Q 8.765625 143.332421875 9.1 143.15 9.55 142.9 10.2 142.15 10.3068359375 142.0298828125 10.4 141.9 11.229296875 141.293359375 11.85 140.75 12.272265625 140.5251953125 12.85 140.25 14.1 139.75 14.5 139.45 15.65 138.55 16.3 138.15 17.3 137.4 18.9 136.75 20.7 136.1 21.7 135.75 23.05 135.15 23.45 134.55 23.8 134 23.95 133.2 23.95 132.2 24 131.65 24.15 130.35 25.6 127.4 26.95 124.75 26.9 123.1 27.65 122.8 28.1 121.35 28.45 120.4 28.65 119.65 29.2 119.3 30.05 118.5 31.15 117.65 31.6 117.35
L 33.55 116.25
Q 34.51640625 115.70234375 35.95 114.6 37.134765625 115.602734375 39.3 116.3 41.7 117.1 44.1 117.6
L 44.1 119.3
Q 44.1046875 119.14375 44.25 118.95
L 44.25 119.75
Q 44.4 121.7 44.5 122.6 44.8 124.15 45.6 125.1 46.3 126.2 48.5 127.2 53.05 129.15 60.15 129.35 64.15 129.5 72.25 129.5 73.35 129.55 76.8 129.85 79.5 130.1 81.3 130.15 84.79296875 130.192578125 89.1 129.55 90.3865234375 129.6314453125 92.9 129.85 95.6 130.1 97.4 130.15 101.5 130.2 106.75 129.3 110.85 128.6 112.9 127.05 114.3 125.95 114.95 124.3 115.09765625 124.34921875 115.1 124.45
L 115.1 117.9
Q 120.95 115.85 126.4 112.95 133.4 109.35 133.5 104.75 133.55 103.55 133.05 102.05 132.9 101.6 132 99.45 128.2 90.7 127.6 80.95 127.5 79.4 127.5 77.9
L 134.65 76.35 136.2 76.75
Q 138.25 77.45 140.15 78.9 141.8 80.45 142.75 80.8 144.05 81.2 146.7 80.65 148.75 80.3 152.65 79.4 154.4708984375 78.977734375 156 78.7 156.13203125 78.8099609375 156.25 78.9 157.9 80.45 158.85 80.8 160.15 81.2 162.8 80.65 164.85 80.3 168.75 79.4 172.2 78.6 174.65 78.4 177.25 78.25 177.8 77.15 178 76.65 177.8 76.05 177.7 75.4 177.2 75.05 176.85 74.6 175.25 73.75 173.1 72.4 170.6 68.85 169.95 68.15 169.65 67.4 169 65.4 172 62.2
L 179.05 54.75
Q 179.9 53.95 179.9 53.4 179.95 52.9 179.4 52.45 179 52.1 178.35 52.1 177.65 52 176 52.65 175.2 53 167.75 55.85 164.8 57.1 163.3 57.55 161.14609375 58.26796875 159.3 58.6
L 162.95 54.75
Q 163.8 53.95 163.8 53.4 163.85 52.9 163.3 52.45 162.9 52.1 162.25 52.1 161.55 52 159.9 52.65 159.1 53 151.65 55.85 148.7 57.1 147.2 57.55 143.6 58.75 140.9 58.85
L 139.45 58.85
Q 138.6 58.85 138.05 59.1 137.25 59.5 136.55 60.7 135.9 62.05 135.5 62.75 135.2 63.4 134.05 64.65 133.1 65.8 132.7 66.55 132.15 67.65 131.8 68.1 131.6 68.45 131.05 68.8 130.7 69.05 130.5 69.25
L 128 69.75
Q 128.5373046875 65.8287109375 129.65 62 130.75 58.3 131 57.2 131.55 54.45 131.1 52.35 130.15 48.25 124.6 44.15 116.5 38.25 106.85 35.1 97.2 31.9 87.2 31.85 82.974609375 31.816015625 78.8 32.35 77.33828125 32.170703125 75.85 32.05 76.5220703125 31.322265625 76.9 30.85
L 78.35 28.5
Q 79.65 26.65 81.65 25.15 83.75 23.9 84.3 23.15 85.15 21.9 85.3 19.2 85.3078125 19.095703125 85.3 18.95 86.1078125 17.562109375 86.3 15.4 86.35 14.65 86.35 11.4 86.35 7.442578125 86.15 5.8 86.1677734375 4.874609375 85.85 4.3 85.1470703125 1.7701171875 83.35 0.6 81.1 -0.85 78.1 0.1 75.45 0.9 73.2 3.15 71.4 4.85 70.3 4.85 70.131640625 4.85 69.95 4.8 69.7939453125 4.159375 69.35 3.8 68.85 3.45 68.2 3.55 68.0513671875 3.55 67.9 3.55 67.8548828125 3.5091796875 67.8 3.45 66.35 1.9 64.1 -1.6 61.8 -5.1 60.4 -6.65 58.1 -9.2 55.2 -10.25 51.9 -11.4 49.25 -10.1 47.5 -9.2 46.35 -7.3 45.395703125 -5.6640625 45.05 -3.7 44.85546875 -3.8486328125 44.65 -3.9 44.1 -4.05 43.5 -3.65 43.05 -3.3 42.85 -2.75 42.55 -2 42.85 -0.3 42.95 0.55 44.1 8.5 44.65 11.65 44.7 13.2 45.05 17 44.35 19.6
L 38.4 12.8
Q 38.1361328125 11.487890625 37.3 10.15 36.7 9.05 35.5 7.7 34.1 6.2 33.4 5.4 31.6 3 30.65 1.85 29 -0.15 27.4 -1.1 24.25 -3.1 20.9 -2.25
M 52.65 34.55
Q 52 34.7 51.4 34.9 48.096875 35.9611328125 44.95 37.35 44.8857421875 37.2201171875 44.8 37.1 45.95 35.85 46.4 33.35 46.45 32.55 46.65 30.75 46.8 29.25 47.15 28.3 47.4 27.75 47.85 26.7 47.87578125 26.6484375 47.9 26.6 48.2875 27.0525390625 48.75 27.7 49.7 28.8 50.4 29.4 51.4 30.2 51.8 30.65 52.1 31 52.45 31.55 52.6 31.95 52.75 32.2
L 52.65 34.55
M 68.55 31.55
Q 68.6171875 31.7291015625 68.65 31.85 63.7185546875 32.034375 58.85 33 60.2 31.6 60.8 30.85
L 62.25 28.5
Q 62.9828125 27.4572265625 63.95 26.5 64.350390625 27.000390625 64.85 27.7 65.8 28.8 66.5 29.4 67.5 30.2 67.9 30.65 68.2 31 68.55 31.55
M 26.8 15.1
Q 26.825390625 15.1478515625 26.85 15.2 26.65 15.9 26.6 16 26.2724609375 16.3275390625 25.3 16.2
L 24.8 15.65
Q 25.1857421875 14.5966796875 25.15 13.45 26.1 13.85 26.8 15.1
M 31.1 36.7
Q 31.5 36.75 32.2 36.5 32.5 36.35 33.2 36.05 34.25 35.75 35.6 35.8 36.05 35.75 38.1 35.95 38.65 36 38.95 35.95 40.052734375 37.570703125 41.25 39.1 37.2693359375 41.1888671875 33.6 43.8 33.3 44.05 33 44.25 32.9 43.75 32.55 43.2 31.45 40.95 28.7 37.1 29.1841796875 36.5736328125 29.55 35.8 29.6322265625 35.926171875 29.7 36 30.5 36.65 31.1 36.7
M 17.1 86.65
Q 15.65 87.3 14.15 87.85 13.4650390625 88.119921875 12.9 88.25 12.86015625 88.2640625 12.8 88.25 11.65 88.05 11 87.7 9.7 86.85 9.05 86.45 7.7169921875 85.764453125 6.35 85.6 8.942578125 83.063671875 10.05 81.3
L 10.35 81.3
Q 19.7365234375 79.902734375 28.9 78 29.3845703125 79.78671875 29.9 81.75 30.65 85.05 31.05 88 30.3 88.05 29.45 88.35
L 29.4 88.35
Q 29.1673828125 88.3123046875 28.9 88.25 27.75 88.05 27.1 87.7 25.8 86.85 25.15 86.45 23.4 85.55 21.6 85.55 20.25 85.55 17.1 86.65
M 34.9 105.5
Q 34.2263671875 107.9248046875 34.1 109.55
L 30.55 112.1
Q 28.9 113.25 28.1 113.95 27.65 114.25 27.2 114.7 26.3 114.1 24.85 114.1 24.65 114.1 21.6 114.25 21.120703125 114.2671875 20.35 114.25 20.9166015625 113.81171875 21.55 113.3 24.3 111.15 25.75 110.3 27.55 109.35 28.3 108.85 29.3 108.25 31.15 107
L 33.35 105.4
Q 34.1 105.75 34.9 105.5 Z"/>
</g>

<g id="Bone_Archer_Head_0_Layer3_0_FILL">
<path fill="#000000" stroke="none" d="
M 25.35 52.45
Q 24.35 52.05 22.9 53.1
L 12.7 60.2
Q 12.15 60.45 11 61
L 2.35 67.2
Q 0.7 68.35 -0.1 69.05 -0.55 69.35 -1 69.8 -1.9 69.2 -3.35 69.2 -3.55 69.2 -6.6 69.35 -8 69.4 -11.9 69.15 -14.05 68.95 -15.65 69.25 -16.75 69.5 -18 70.25 -18.5 70.5 -20.2 71.6
L -22.35 73.15
Q -24.5 74.6 -25.9 75.25 -26.5 75.5 -27.7 75.9 -28.75 76.35 -29.4 76.75 -30 77.25 -31.05 78.25 -31.65 78.6 -33.25 79.25 -34.7 79.75 -35.25 80.6 -35.6 81.15 -35.6 81.75 -35.6 82.5 -35.2 82.85 -34.6 83.4 -33.2 83.4
L -20.3 82.95
Q -19.4 82.85 -19.35 83.35 -19.25 83.6 -19.5 83.95 -19.7 84.1 -20.1 84.45 -20.3 84.75 -20.35 85.25 -20.45 85.5 -20.45 86.1 -20.6 87.05 -21.6 88.4 -24 92.15 -27.3 98.1 -27.85 99.2 -28 99.7 -28.2 100.7 -27.55 101.35 -26.85 101.85 -25.05 101.45 -22.85 100.7 -21.95 100.05 -21.15 99.15 -20.75 98.85 -19.65 98.55 -19.1 98.25 -18.65 98 -18 97.25 -17.2 96.35 -16.95 96.2 -16.4 95.85 -15.35 95.35 -14.1 94.85 -13.7 94.55 -12.55 93.65 -11.9 93.25 -10.9 92.5 -9.3 91.85 -7.5 91.2 -6.5 90.85 -5.15 90.25 -4.75 89.65 -4.4 89.1 -4.25 88.3 -4.25 87.3 -4.2 86.75 -4.05 85.45 -2.6 82.5 -1.25 79.85 -1.3 78.2 -0.55 77.9 -0.1 76.45 0.25 75.5 0.45 74.75 1 74.4 1.85 73.6 2.95 72.75 3.4 72.45
L 5.35 71.35
Q 6.85 70.5 9.45 68.4 12.2 66.25 13.65 65.4 15.45 64.45 16.2 63.95 17.2 63.35 19.05 62.1
L 24.95 57.75
Q 27.05 55.8 26.5 53.8 26.25 52.7 25.35 52.45
M -15.5 73.9
Q -14.5 73.6 -11.95 73.6
L -4.35 73.75
Q -4.35 73.8 -4.35 73.9 -4.4 74.6 -4.75 74.95 -4.7 75.1 -4.55 75.3
L -7.95 85.5
Q -8.6 87.35 -9.35 88 -9.95 88.5 -11.75 89.1 -13.15 89.6 -16.45 91.65
L -18.1 92.75 -20.6 94.4
Q -17.6 88.35 -15.3 83.5 -14.85 82.3 -15 81.8 -15.35 80.95 -16.75 80.6 -20.35 79.65 -27.05 79.85 -22.75 78.6 -19.2 76.15 -18.95 76 -18.75 75.9 -17.7 75.1 -17.2 74.75 -16.25 74.15 -15.5 73.9
M 2.55 43.75
Q 2.2 43.7 0.7 43.35 -0.45 43.15 -1.1 42.8 -2.4 41.95 -3.05 41.55 -4.8 40.65 -6.6 40.65 -7.95 40.65 -11.1 41.75 -12.55 42.4 -14.05 42.95 -15.7 43.6 -16.55 43.6 -17.35 43.7 -18.9 43.55 -20.15 43.5 -21.5 44 -22.35 44.3 -22.95 44.95 -23.55 45.9 -23.15 46.6 -22.85 47.25 -21.9 47.7 -20.75 48.25 -20.2 48.45 -19.1 48.95 -18.4 49.4 -17.95 49.7 -17.15 50.3 -16.35 50.95 -15.9 51.2 -15.7 51.3 -14.6 51.85 -13.75 52.2 -13.3 52.6 -12.6 53.15 -12.15 54.15 -11.85 54.85 -11.95 55.3 -12.1 56 -12.85 56.95 -13.6 57.65 -14.95 59.1 -15.05 59.25 -15.95 60.4 -16.5 61.25 -17.05 61.7 -17.2 61.9 -17.6 62.25 -18 62.55 -18.1 62.9 -18.3 63.45 -18.05 64.5 -17.7 65.65 -17.1 66.15 -16.25 66.75 -14.95 66.35 -13.5 65.8 -12.75 65.55 -12.35 65.45 -11.55 65.4 -10.4 65.25 -10.25 65.25 -9.45 65.1 -8.05 64.4 -6.5 63.7 -5.8 63.5 -5.35 63.35 -4.4 63.2 -3.35 63.1 -2.9 62.95 -1.15 62.25 -0.25 62.05 -0.2 62 1.8 61.75 3 61.6 3.65 61.15 4.75 60.4 5.15 58.5 5.5 56.4 5.7 55.4 5.8 54.95 6.85 52.45 7.3 51.5 7.45 50.7 8.95 50.55 9.95 50.35 11.7 49.75 12.55 49.55 14.3 49.15 15.15 48.95 16.65 48.55 18.7 47.45 20.05 46.9 20.75 46.25 21.5 45.5 21.55 44.85 21.55 44.25 21.05 43.7 20.6 43.2 19.95 43.15 18.9 42.95 17.35 43.45
L 9.2 45.8
Q 8.75 45.55 8.1 45.35 6.65 45.2 5.95 45.05 5.25 44.95 4.3 44.5 2.85 43.85 2.55 43.75
M 4.3 49.55
L 4.3 49.6
Q 4.15 50 3.8 50.45 1.65 53.85 0.85 57.75 -4.95 59.05 -10.15 61.05 -11.05 61.45 -11.4 61.05 -11.45 60.95 -11.5 60.9 -9.7 58.9 -8.95 57.45 -7.85 55.35 -8.25 53.5 -8.75 51.45 -11.25 49.65 -14.1 47.85 -15.35 46.8 -15.2 46.85 -15.05 46.8 -13.55 46.95 -10.55 45.8 -7.5 44.6 -5.85 45.05 -5.3 45.25 -4.6 45.65 -4.25 45.9 -3.45 46.3 -2.4 46.95 -0.1 47.7 3 48.6 4.15 48.85 4.15 49.2 4.3 49.55
M 13.75 30.15
Q 15.5 29.65 16.5 29.35 18.5 28.65 18.9 27.4 18.5 26.3 17.2 26.05 16.65 25.95 15.1 26.15
L -14.7 31.05
Q -15.55 31.3 -16.3 31.35 -16.3 30.95 -16.5 30.6 -17 29.95 -18.1 29.8 -22.35 28.8 -25.95 28.5 -28.55 28.25 -29.45 27.95 -30.75 27.4 -33.15 25.9 -35.75 24.65 -38.6 24.85 -39.85 24.85 -41.7 25.3 -42.65 25.55 -44.8 26.15 -49.6 27.5 -54.75 27.55 -55.25 27.55 -56.1 27.65 -56.85 27.7 -57.4 27.95 -58 28.25 -58.4 28.8 -58.8 29.4 -58.65 30 -58.5 30.6 -57.55 31.35 -53.8 34.55 -51.2 36.8
L -48.85 38.8
Q -47.55 39.9 -47.6 40.85 -47.6 41.4 -48.1 41.9 -48.2 42.05 -49.1 42.75 -50.2 43.7 -52.1 45.85 -53.05 46.9 -54.8 47.95 -55.75 48.6 -57.75 49.85 -59.25 50.7 -59.35 51.65 -59.3 52.3 -58.95 52.85 -58.6 53.4 -57.95 53.65 -57.1 54 -55.35 53.8 -53.45 53.55 -48.45 52.25
L -40.9 50.3
Q -36.2 49.05 -33.8 49.15 -32.3 49.35 -31.55 49.35 -30.25 49.35 -29.4 48.75 -29 48.4 -28.15 47.25 -26.75 45.3 -23.05 41.85 -19.5 38.55 -18.15 36.4
L -17.85 36.4
Q -4.75 34.45 7.95 31.5
L 13.75 30.15
M -30.1 36.35
Q -30.25 36.5 -30.25 36.75 -30.3 37 -30.3 37.25 -29.95 37.3 -29.65 37.35
L -29.6 37.3
Q -29.1 37.35 -28.65 37.4 -27.25 37.5 -25.8 37.4 -25.6 37.4 -25.45 37.35 -24.2 37.25 -22.8 37.05
L -30.95 44.45
Q -31.65 45.15 -32.1 45.3 -32.35 45.4 -33.55 45.6 -36.6 45.75 -39.65 46.4 -42.3 47 -45.1 47.7
L -47.2 48.35 -50.3 49.1 -45.95 45.05
Q -44.35 43.55 -43.95 42.7 -43.5 41.65 -43.4 40.5 -43.45 39.4 -44.05 38.45 -44.65 37.3 -46.75 35.7 -48.05 34.75 -50.75 32.65 -52.15 31.65 -52.1 30.8 -49.65 31.15 -44.4 29.7 -39.75 28.4 -37.15 28.8 -36.95 28.8 -36.7 28.85
L -36.65 28.85
Q -35.4 29.1 -33.4 30.05 -31.1 31.15 -30.15 31.4 -28.85 31.8 -26.05 31.9 -23.2 32.1 -21.85 32.5 -21.85 32.55 -21.7 32.6 -22.5 32.8 -23.65 33.15 -24.1 33.25 -25.8 33.6 -27.1 33.8 -27.8 34.15 -28.9 34.5 -29.55 35.35 -30 35.85 -30.1 36.35
M 6.75 7.5
Q 5.85 6.6 4.6 5.85 0.4 2.9 -2.8 2.45 -4.05 2.25 -6.55 2.2 -6.9 2.2 -9.7 1.6 -13.1 0.65 -14.3 0 -15.85 -0.85 -16.7 -0.55 -17.35 -0.3 -17.8 0.75 -18.45 2.4 -17.4 3.9 -16.25 5.05 -15.9 5.8 -15.7 6.05 -15.15 7.5 -14.75 8.5 -14.3 8.95 -13.55 9.35 -13.35 9.6 -12.9 10.05 -13.1 11.05 -13.65 13.85 -16.15 15.9 -18.25 17.55 -21.45 18.6 -22.7 19 -23.25 19.35 -24.2 19.9 -24.4 20.75 -24.6 21.6 -23.9 22.35 -23.3 23.05 -22.4 23.3 -21.75 23.45 -20.65 23.45 -19.45 23.3 -18.85 23.25 -16.6 23.05 -12.2 23.6 -7.75 24.05 -5.55 23.95 -4.9 23.95 -4.65 23.9 -4 23.85 -3.65 24.05 -3.3 24.1 -2.9 24.4 -2.35 24.7 -2.25 24.8 -0.8 25.5 1.05 24.7 2.05 24.3 3.85 23
L 6 21.45
Q 6.85 20.85 7.45 20.3 8.05 19.7 8.65 19.15
L 18.8 20.35
Q 19.55 20.55 19.9 20.15 20.25 19.7 19.6 18.85 18.35 17.5 16.3 16.75 14.95 16.2 12.35 15.75
L 12.15 15.7
Q 12.15 15.6 12.15 15.4 12.1 14.7 11.55 13.95 11.2 13.15 10.35 12.15 9.15 10.65 8.95 10.45 7.55 8.4 6.75 7.5
M 3.65 18.45
Q 3.95 18.5 4.2 18.55 3.8 18.8 3.45 19.1 3.300390625 19.1998046875 3.15 19.3 2.2576171875 19.92109375 1.4 20.65 0.55 21.35 -0.05 21.5 -0.6 21.6 -1.85 21.2 -3.85 20.55 -8.8 20.5 -13.4 20.45 -15.65 19.55 -12.2 17.3 -10.35 13.45 -8.9 10.3 -10 8.35 -10.25 7.95 -11.75 6.15 -12.85 4.95 -12.7 3.9 -12.2 4.2 -11.5 4.35 -9.7 4.9 -6.75 5.2 -2.5 5.6 -0.7 6.45 1.7 7.35 4.35 10.15 6.45 12.55 8 14.9
L 3.2 13.95
Q 1.7 13.6 0.9 14.05 0.65 14.3 0.5 14.55 0.2 15 0.25 15.65 0.25 16.75 1 17.4 1.85 18.05 3.65 18.45
M 5.2 -38.8
Q 4.55 -39.7 3.7 -39.95 2.5 -40.4 0.95 -39.55 -0.05 -39.05 -0.5 -38.25 -0.75 -37.75 -0.95 -36.3
L -1.35 -29.7
Q -1.55 -29 -1.6 -28.9 -1.95 -28.55 -3.05 -28.7 -6.45 -29.4 -9.4 -29.3
L -12.15 -29.25
Q -14.1 -29.05 -14.7 -29.05 -15.65 -28.95 -16.2 -29.05 -16.45 -29.1 -16.95 -29.3 -17.45 -29.5 -17.7 -29.5 -18.2 -29.6 -18.7 -29.25 -19.25 -28.9 -19.4 -28.4 -19.8 -27.35 -18.9 -26.1 -17.9 -24.55 -16 -23.05 -15.65 -22.75 -12.65 -20.55
L -8.6 -17.4
Q -6.95 -16.15 -6.15 -15.7 -5.25 -15.25 -4.8 -15.1 -4.1 -14.7 -3.65 -14.4 -2.4 -13.65 -0.95 -11.85 0.95 -9.5 1.5 -8.9 2.3 -8.25 2.9 -8.2 3.3 -8.15 4 -8.4 4.3 -8.55 5 -8.85 6.05 -9.15 7.4 -9.1 7.85 -9.15 9.9 -8.95 10.45 -8.9 10.75 -8.95 14.05 -4.1 18.15 0.2 19.25 1.5 20.15 1.15 20.55 1.05 20.75 0.65 20.95 0.3 20.9 -0.2 20.95 -0.85 20.45 -1.7 19.35 -3.95 16.6 -7.8 17.75 -9.05 18.2 -11.55 18.25 -12.35 18.45 -14.15 18.6 -15.65 18.95 -16.6 19.2 -17.15 19.65 -18.2 20.1 -19.1 20.05 -19.85 19.9 -20.85 18.55 -22.55
L 8.8 -33.7
Q 6.8 -35.95 6.25 -36.95 5.25 -38.75 5.2 -38.8
M 3.1 -34.3
Q 3.65 -33.45 4.65 -32.45 5.85 -31.3 6.3 -30.75
L 7.25 -29.8 7.4 -29.65
Q 7.45 -29.6 7.5 -29.55 7.6 -29.45 7.7 -29.35 9.3 -27.7 10.9 -25.7 13.4 -22.55 14.9 -21.1 15.9 -20 15.85 -19.35 15.85 -19.15 15.65 -18.7 15.5 -18.35 15.35 -18.15 14.9 -17.3 14.85 -15.95 14.9 -14.35 14.8 -13.6 14.35 -12.2 14.2 -11.2 12.55 -13.65 11.75 -15.35 10.95 -16.95 10.9 -17.1 10.35 -18.05 9.65 -18.65
L 9.6 -18.7
Q 9.25 -18.95 8.8 -19.05 8.25 -19.2 7.7 -19.1 6.5 -19 6.2 -18.1 5.9 -17.2 6.75 -15.6 7.3 -14.6 7.85 -13.6 8.2 -12.95 8.55 -12.4 7.35 -12.7 6.05 -12.65 4.5 -12.5 4.1 -12.7 3.2 -13 2.35 -14.05 1.85 -14.6 0.95 -15.85 0.1 -16.85 -1.75 -17.95 -4.1 -19.35 -4.65 -19.75
L -5.7 -20.65
Q -6.3 -21.15 -6.8 -21.4 -7.4 -21.85 -8.75 -22.45 -9.35 -22.8 -10.65 -24.05 -11.8 -25.2 -12.65 -25.6 -10.45 -26.1 -6.4 -25.55 -1.85 -24.9 0 -25.1 1.25 -25.2 1.7 -25.8 2.25 -26.3 2.35 -27.3 2.35 -27.8 2.25 -29.1 2 -31.8 3.1 -34.3
M 30.75 -47.65
Q 30.45 -46.9 30.75 -45.2 30.85 -44.35 32 -36.4 32.55 -33.25 32.6 -31.7 32.95 -27.9 32.25 -25.3
L 31.9 -23.9
Q 31.75 -23.05 31.85 -22.45 32.05 -21.5 33.1 -20.6 34.45 -19.65 35 -19.1 35.65 -18.6 36.65 -17.2 37.6 -16.1 38.3 -15.5 39.3 -14.7 39.7 -14.25 40 -13.9 40.35 -13.35 40.5 -12.95 40.65 -12.7
L 40.45 -8.55 40.7 -5.65
Q 40.8 -4.2 40.75 -0.3
L 40.7 2.8
Q 40.45 11.3 40.15 14.65 39.9 18.1 39.9 19.5 39.95 22.15 40.8 24.1 41.3 25.2 41.95 25.15 42.55 25 42.95 23.95 43.3 23.1 43.65 21.3 44.25 18.35 44.55 14.7 44.7 12.3 44.8 7.95
L 45.1 -0.85
Q 45.25 -2.45 45.1 -4.1
L 45.05 -7.6
Q 44.9 -8.85 44.9 -10.3 45.55 -10.75 46.3 -11.45 48 -13.15 48.7 -14.05
L 50.15 -16.4
Q 51.45 -18.25 53.45 -19.75 55.55 -21 56.1 -21.75 56.95 -23 57.1 -25.7 57.25 -27.7 57.3 -31.8 57.35 -35.25 57.8 -37.7 58.3 -40.25 57.25 -41.1 56.75 -41.45 56.1 -41.35 55.4 -41.35 54.85 -41 54.35 -40.7 52.95 -39.35 51 -37.65 46.55 -36.05 45.65 -35.6 44.8 -35.55 42.45 -35.35 39.85 -39
L 33.75 -47.65
Q 33.15 -48.65 32.55 -48.8 32 -48.95 31.4 -48.55 30.95 -48.2 30.75 -47.65
M 34.7 -40.9
Q 35.55 -40 36.8 -38.2 38.15 -36.3 38.9 -35.5 41.7 -32.3 44.8 -32.4 46.15 -32.45 48.5 -33.65
L 50.55 -34.65 50.55 -34.65 54.45 -36.55 54.35 -28.35
Q 54.35 -27 54.2 -26.3 54.05 -25.15 53.6 -24.35 53.05 -23.5 52.15 -22.75 50.95 -21.95 50.4 -21.6 48.15 -19.95 45.95 -17.1 45.45 -16.4 44.95 -15.65
L 45 -16.8
Q 44.9 -18.5 44.65 -19.2 44.35 -19.75 44 -20.1 43.9 -20.2 43.8 -20.2 43.3 -20.55 42.75 -20.5 42.155859375 -20.462890625 41.7 -20.05
L 41.75 -20.05
Q 41.6986328125 -20.02421875 41.65 -20 41.5408203125 -19.8771484375 41.45 -19.75
L 41.2 -19.3
Q 40.95 -18.75 40.85 -17.75 40.45 -18.2 39.95 -18.7 37.5 -21.15 37.15 -21.65 37 -21.75 36.85 -21.95 36.85 -22 36.85 -22.05 36.75 -22.05 36.75 -22.1 36.7 -22.15 36.7 -22.2
L 35.7 -24.05
Q 35.6498046875 -24.1669921875 35.6 -24.3
L 35.6 -24.35
Q 35.48671875 -24.6830078125 35.45 -25.05 35.3 -26.1 35.6 -27.7 36 -29.8 36.05 -30.3 36.1 -31.9 35.15 -35.55 34.4 -39 34.7 -40.9 Z"/>

<path fill="#CC66FF" stroke="none" d="
M -16.75 80.6
Q -15.35 80.95 -15 81.8 -14.85 82.3 -15.3 83.5 -17.6 88.35 -20.6 94.4
L -18.1 92.75
Q -16.75 90.05 -15.95 88.5 -14.15 84.95 -9.35 78 -14.25 77.3 -19.2 76.15 -22.75 78.6 -27.05 79.85 -20.35 79.65 -16.75 80.6
M -15.05 46.8
Q -15.2 46.85 -15.35 46.8 -14.1 47.85 -11.25 49.65 -8.75 51.45 -8.25 53.5 -7.85 55.35 -8.95 57.45 -9.7 58.9 -11.5 60.9 -11.45 60.95 -11.4 61.05 -11.2 60.9 -11 60.8 -7.05 57.8 -5.95 56.75 -3.1 53.9 -1.65 52.6 -4.3 50.85 -8.15 49.3 -9.4 48.8 -15.05 46.8
M -36.7 29.55
Q -36.95 29.1 -37.15 28.8 -39.75 28.4 -44.4 29.7 -49.65 31.15 -52.1 30.8 -52.15 31.65 -50.75 32.65 -48.05 34.75 -46.75 35.7 -44.65 37.3 -44.05 38.45 -43.45 39.4 -43.4 40.5 -43.5 41.65 -43.95 42.7 -44.35 43.55 -45.95 45.05
L -50.3 49.1 -47.2 48.35 -29.65 37.35
Q -29.95 37.3 -30.3 37.25 -30.3 37 -30.25 36.75 -34 33.7 -36.7 29.55
M 0.25 15.65
Q 0.2 15 0.5 14.55 -0.2 14.05 -0.9 13.5 -2.9 11.6 -3.95 10.8 -7.1 8.65 -8.55 7.4 -10.05 6.1 -11.5 4.35 -12.2 4.2 -12.7 3.9 -12.85 4.95 -11.75 6.15 -10.25 7.95 -10 8.35 -8.9 10.3 -10.35 13.45 -12.2 17.3 -15.65 19.55 -13.4 20.45 -8.8 20.5 -3.85 20.55 -1.85 21.2 -0.6 21.6 -0.05 21.5 0.55 21.35 1.4 20.65 2.2576171875 19.92109375 3.15 19.3 3.3 19 3.5 18.65 3.55 18.55 3.65 18.45 1.85 18.05 1 17.4 0.25 16.75 0.25 15.65
M 4.65 -32.45
Q 3.65 -33.45 3.1 -34.3 2 -31.8 2.25 -29.1 2.35 -27.8 2.35 -27.3 2.25 -26.3 1.7 -25.8 1.25 -25.2 0 -25.1 -1.85 -24.9 -6.4 -25.55 -10.45 -26.1 -12.65 -25.6 -11.8 -25.2 -10.65 -24.05 -9.35 -22.8 -8.75 -22.45 -7.4 -21.85 -6.8 -21.4 -6.3 -21.15 -5.7 -20.65
L -4.65 -19.75
Q -4.1 -19.35 -1.75 -17.95 0.1 -16.85 0.95 -15.85 1.85 -14.6 2.35 -14.05 2.35 -14.1 2.3 -14.15 2.9 -14.1 3.55 -14 6.2 -13.6 7.85 -13.6 7.3 -14.6 6.75 -15.6 5.9 -17.2 6.2 -18.1 6.5 -19 7.7 -19.1 8.25 -19.2 8.8 -19.05 8.2 -24.5 7.25 -29.8
L 6.3 -30.75
Q 5.85 -31.3 4.65 -32.45
M 36.8 -38.2
Q 35.55 -40 34.7 -40.9 34.4 -39 35.15 -35.55 36.1 -31.9 36.05 -30.3 36 -29.8 35.6 -27.7 35.3 -26.1 35.45 -25.05 35.48671875 -24.6830078125 35.6 -24.35 35.55 -24.5171875 35.55 -24.7 36 -24.5 36.7 -24.15 37.9 -23.5 38.65 -22.95 39 -22.7 40.9 -20.85 41.2927734375 -20.358984375 41.7 -20.05 42.155859375 -20.462890625 42.75 -20.5 43.3 -20.55 43.8 -20.2 43.9 -20.2 44 -20.1 45.05 -21.75 46.05 -24 46.8 -25.65 48.15 -29.05
L 50 -33.4
Q 50.2451171875 -34.086328125 50.55 -34.65
L 48.5 -33.65
Q 46.15 -32.45 44.8 -32.4 41.7 -32.3 38.9 -35.5 38.15 -36.3 36.8 -38.2 Z"/>

<path fill="#71368A" stroke="none" d="
M -11.95 73.6
Q -14.5 73.6 -15.5 73.9 -16.25 74.15 -17.2 74.75 -17.7 75.1 -18.75 75.9 -18.95 76 -19.2 76.15 -14.25 77.3 -9.35 78 -14.15 84.95 -15.95 88.5 -16.75 90.05 -18.1 92.75
L -16.45 91.65
Q -13.15 89.6 -11.75 89.1 -9.95 88.5 -9.35 88 -8.6 87.35 -7.95 85.5
L -4.55 75.3
Q -4.7 75.1 -4.75 74.95 -4.4 74.6 -4.35 73.9 -4.35 73.8 -4.35 73.75
L -11.95 73.6
M 4.3 49.6
L 4.3 49.55
Q 4.15 49.2 4.15 48.85 3 48.6 -0.1 47.7 -2.4 46.95 -3.45 46.3 -4.25 45.9 -4.6 45.65 -5.3 45.25 -5.85 45.05 -7.5 44.6 -10.55 45.8 -13.55 46.95 -15.05 46.8 -9.4 48.8 -8.15 49.3 -4.3 50.85 -1.65 52.6 -3.1 53.9 -5.95 56.75 -7.05 57.8 -11 60.8 -11.2 60.9 -11.4 61.05 -11.05 61.45 -10.15 61.05 -4.95 59.05 0.85 57.75 1.65 53.85 3.8 50.45 4.15 50 4.3 49.6
M -39.65 46.4
Q -36.6 45.75 -33.55 45.6 -32.35 45.4 -32.1 45.3 -31.65 45.15 -30.95 44.45
L -22.8 37.05
Q -24.2 37.25 -25.45 37.35 -25.6 37.4 -25.8 37.4 -27.25 37.5 -28.65 37.4 -29.1 37.35 -29.6 37.3
L -29.65 37.35 -47.2 48.35 -45.1 47.7
Q -42.3 47 -39.65 46.4
M -30.25 36.75
Q -30.25 36.5 -30.1 36.35 -30 35.85 -29.55 35.35 -28.9 34.5 -27.8 34.15 -27.1 33.8 -25.8 33.6 -24.1 33.25 -23.65 33.15 -22.5 32.8 -21.7 32.6 -21.85 32.55 -21.85 32.5 -23.2 32.1 -26.05 31.9 -28.85 31.8 -30.15 31.4 -31.1 31.15 -33.4 30.05 -35.4 29.1 -36.65 28.85
L -36.7 28.85
Q -36.95 28.8 -37.15 28.8 -36.95 29.1 -36.7 29.55 -34 33.7 -30.25 36.75
M 0.5 14.55
Q 0.65 14.3 0.9 14.05 1.7 13.6 3.2 13.95
L 8 14.9
Q 6.45 12.55 4.35 10.15 1.7 7.35 -0.7 6.45 -2.5 5.6 -6.75 5.2 -9.7 4.9 -11.5 4.35 -10.05 6.1 -8.55 7.4 -7.1 8.65 -3.95 10.8 -2.9 11.6 -0.9 13.5 -0.2 14.05 0.5 14.55
M 4.2 18.55
Q 3.95 18.5 3.65 18.45 3.55 18.55 3.5 18.65 3.3 19 3.15 19.3 3.300390625 19.1998046875 3.45 19.1 3.8 18.8 4.2 18.55
M 2.35 -14.05
Q 3.2 -13 4.1 -12.7 4.5 -12.5 6.05 -12.65 7.35 -12.7 8.55 -12.4 8.2 -12.95 7.85 -13.6 6.2 -13.6 3.55 -14 2.9 -14.1 2.3 -14.15 2.35 -14.1 2.35 -14.05
M 7.7 -29.35
Q 7.6 -29.45 7.5 -29.55 7.45 -29.6 7.4 -29.65
L 7.25 -29.8
Q 8.2 -24.5 8.8 -19.05 9.25 -18.95 9.6 -18.7
L 9.65 -18.65
Q 10.35 -18.05 10.9 -17.1 10.95 -16.95 11.75 -15.35 12.55 -13.65 14.2 -11.2 14.35 -12.2 14.8 -13.6 14.9 -14.35 14.85 -15.95 14.9 -17.3 15.35 -18.15 15.5 -18.35 15.65 -18.7 15.85 -19.15 15.85 -19.35 15.9 -20 14.9 -21.1 13.4 -22.55 10.9 -25.7 9.3 -27.7 7.7 -29.35
M 50 -33.4
L 48.15 -29.05
Q 46.8 -25.65 46.05 -24 45.05 -21.75 44 -20.1 44.35 -19.75 44.65 -19.2 44.9 -18.5 45 -16.8
L 44.95 -15.65
Q 45.45 -16.4 45.95 -17.1 48.15 -19.95 50.4 -21.6 50.95 -21.95 52.15 -22.75 53.05 -23.5 53.6 -24.35 54.05 -25.15 54.2 -26.3 54.35 -27 54.35 -28.35
L 54.45 -36.55 50.55 -34.65 50.55 -34.65
Q 50.2451171875 -34.086328125 50 -33.4
M 35.6 -24.35
L 35.6 -24.3
Q 35.6498046875 -24.1669921875 35.7 -24.05
L 36.7 -22.2
Q 36.7 -22.15 36.75 -22.1 36.75 -22.05 36.85 -22.05 36.85 -22 36.85 -21.95 37 -21.75 37.15 -21.65 37.5 -21.15 39.95 -18.7 40.45 -18.2 40.85 -17.75 40.95 -18.75 41.2 -19.3
L 41.45 -19.75
Q 41.5408203125 -19.8771484375 41.65 -20 41.6986328125 -20.02421875 41.75 -20.05
L 41.7 -20.05
Q 41.2927734375 -20.358984375 40.9 -20.85 39 -22.7 38.65 -22.95 37.9 -23.5 36.7 -24.15 36 -24.5 35.55 -24.7 35.55 -24.5171875 35.6 -24.35 Z"/>
</g>

<g id="Bone_Archer_Head_0_Layer2_0_FILL">
<path fill="#000000" stroke="none" d="
M 86.9 64.75
Q 86.75 63.75 86.5 63.25 85.8 61.4 84.15 60.1 82.65 58.8 80.75 58.45 78.8 58.1 76.9 58.75 74.95 59.4 73.75 60.8 70.85 58.2 66.2 57.5 63.3 57 58.1 57.3 55.5 57.4 54.5 58.35 54.25 58.7 53.95 58.85 53.7 59.1 53.4 59.15 53 59.2 52.3 58.8 46.7 55.6 40.4 56.45 36.8 56.9 34.75 58.7 32.7 60.65 32 64.05
L 32 74.4
Q 32.0046875 74.24375 32.15 74.05
L 32.15 74.85
Q 32.3 76.8 32.4 77.7 32.7 79.25 33.5 80.2 34.2 81.3 36.4 82.3 40.95 84.25 48.05 84.45 52.05 84.6 60.15 84.6 61.25 84.65 64.7 84.95 67.4 85.2 69.2 85.25 73.3 85.3 78.55 84.4 82.65 83.7 84.7 82.15 86.1 81.05 86.75 79.4 86.89765625 79.44921875 86.9 79.55
L 86.9 64.75
M 84.3 65.1
Q 84.3 65.85 84.3 66.9 84.3 68.55 84.45 71.9 84.6 74.8 83.75 76.7 83.2 78.2 82.25 78.8 81.4 79.3 79.2 79.4 78.4 79.5 76.5 79.75 74.7 80.05 73.75 80.1 71.25 80.3 67.55 79.8 63.3 79.15 61.25 78.95 60.85 78.9 60.15 78.9 59.3 78.85 58.5 78.85 57.7 78.85 56.7 78.85 54.1 78.8 50 78.85 43 78.95 38.75 77.8 36.7 77.3 35.85 76.2 35.05 75.05 35.3 73.1 35.85 70.95 36 69.9 36.25 68.9 36.25 65.75 36.4 64.35 36.8 63.6 37.35 62.55 39.3 61.75 42.85 60.5 46.4 60.55 49.05 60.55 49.45 60.45 51.1 60 51.5 60.7 51.75 61.15 51.5 62.05 51.2 63.8 51.5 65.6 51.9 67.45 52.85 68.9 53.3 69.35 53.4 69.4 53.95 69.4 54.25 68.7 55.05 67.2 55.5 65.45 55.6 64.2 55.9 63.85 56.45 63.15 58.1 62.85
L 62.9 62.2 63.3 62.15 63.15 62.15 64.15 62.05
Q 64.4 62 64.8 61.95 67.15 61.6 69.5 61.3 70.7 61.1 71.4 61.55 71.8 61.95 72.1 63.05 72.65 65.35 72.65 67.35 72.5 67.9 72.75 68.3 73.05 68.8 73.3 68.75 73.75 68.7 74 68.05 74.55 67.95 74.95 67.15 75.25 66.1 75.4 65.6 76.2 63.95 78.65 63.55 79.2 63.5 79.65 63.5 81.15 63.45 82.65 64 83.35 64.25 83.9 64.65 84.15 64.85 84.3 65.05
L 84.3 65.1 Z"/>

<path fill="#D7D7C5" stroke="none" d="
M 66.75 62.45
Q 64.4 62.05 63.3 62.15
L 62.9 62.2
Q 60.95 62.5 60 63.75 58.9 65 58.75 68 58.65 69.8 58.5 71.35 58.65 71.7 58.65 72.1 59.3 75.2 60.55 76.3 61.95 77.65 64.95 77.45 67.15 77.3 68.5 76.45 68.5 76.25 68.5 76.05
L 68.5 64.4
Q 68.5 63.45 68.25 63.05 67.85 62.55 66.75 62.45
M 83.6 73.5
Q 83.75 72.45 83.9 68.65
L 83.9 64.65
Q 83.35 64.25 82.65 64 81.15 63.45 79.65 63.5 79.1 63.85 78.65 64.4 76.75 66.55 76.6 70.2 76.5 72.3 77.05 76.5 77.05 77.4 77.45 77.75 77.7 78 78.25 78.2 79.35 78.55 80.2 78.5 81.55 78.35 82.65 76.65 83.35 75.5 83.6 73.5
M 40.95 66.1
L 40.95 73.45
Q 40.95 74.3 41.05 74.65 41.35 75.3 42.6 75.7 45.2 76.45 47.8 76.45 48.9 76.45 49.3 76 49.6 75.6 49.45 74.6 49.3 72.25 49.7 68.25 50.4 63.55 50.4 61.9 46.7 61.5 43.15 62.8 41.75 63.3 41.35 64.05 40.95 64.65 40.95 66.1 Z"/>

<path fill="#929274" stroke="none" d="
M 84.3 66.9
Q 84.3 65.85 84.3 65.1
L 84.3 65.05
Q 84.15 64.85 83.9 64.65
L 83.9 68.65
Q 83.75 72.45 83.6 73.5 83.35 75.5 82.65 76.65 81.55 78.35 80.2 78.5 79.35 78.55 78.25 78.2 77.7 78 77.45 77.75 77.05 77.4 77.05 76.5 76.5 72.3 76.6 70.2 76.75 66.55 78.65 64.4 79.1 63.85 79.65 63.5 79.2 63.5 78.65 63.55 76.2 63.95 75.4 65.6 75.25 66.1 74.95 67.15 74.55 67.95 74 68.05 73.75 68.7 73.3 68.75 73.05 68.8 72.75 68.3 72.5 67.9 72.65 67.35 72.65 65.35 72.1 63.05 71.8 61.95 71.4 61.55 70.7 61.1 69.5 61.3 67.15 61.6 64.8 61.95 64.4 62 64.15 62.05
L 63.15 62.15 63.3 62.15
Q 64.4 62.05 66.75 62.45 67.85 62.55 68.25 63.05 68.5 63.45 68.5 64.4
L 68.5 76.05
Q 68.5 76.25 68.5 76.45 67.15 77.3 64.95 77.45 61.95 77.65 60.55 76.3 59.3 75.2 58.65 72.1 58.65 71.7 58.5 71.35 58.65 69.8 58.75 68 58.9 65 60 63.75 60.95 62.5 62.9 62.2
L 58.1 62.85
Q 56.45 63.15 55.9 63.85 55.6 64.2 55.5 65.45 55.05 67.2 54.25 68.7 53.95 69.4 53.4 69.4 53.3 69.35 52.85 68.9 51.9 67.45 51.5 65.6 51.2 63.8 51.5 62.05 51.75 61.15 51.5 60.7 51.1 60 49.45 60.45 49.05 60.55 46.4 60.55 42.85 60.5 39.3 61.75 37.35 62.55 36.8 63.6 36.4 64.35 36.25 65.75 36.25 68.9 36 69.9 35.85 70.95 35.3 73.1 35.05 75.05 35.85 76.2 36.7 77.3 38.75 77.8 43 78.95 50 78.85 54.1 78.8 56.7 78.85 57.7 78.85 58.5 78.85 59.3 78.85 60.15 78.9 60.85 78.9 61.25 78.95 63.3 79.15 67.55 79.8 71.25 80.3 73.75 80.1 74.7 80.05 76.5 79.75 78.4 79.5 79.2 79.4 81.4 79.3 82.25 78.8 83.2 78.2 83.75 76.7 84.6 74.8 84.45 71.9 84.3 68.55 84.3 66.9
M 40.95 73.45
L 40.95 66.1
Q 40.95 64.65 41.35 64.05 41.75 63.3 43.15 62.8 46.7 61.5 50.4 61.9 50.4 63.55 49.7 68.25 49.3 72.25 49.45 74.6 49.6 75.6 49.3 76 48.9 76.45 47.8 76.45 45.2 76.45 42.6 75.7 41.35 75.3 41.05 74.65 40.95 74.3 40.95 73.45 Z"/>
</g>

<g id="Bone_Archer_Head_0_Layer1_0_FILL">
<path fill="#000000" stroke="none" d="
M 39.3 -10
Q 29.65 -6.9 21.5 -1.1 14.8 3.7 13.2 8.8 12 12.9 13.55 19.9 14.8 25.55 17.8 36.85 20 46.75 19.3 53.95 19.1 55.8 19.1 56.2 19.1 57.45 19.4 58.4 19.75 59.5 20.75 60.2 21.75 60.9 22.8 60.6 22.05 63.3 22 65 21.9 67.45 23.1 69 24.25 70.45 27.2 71.4 35.2 74.15 43.65 73.15 54.3 77.6 65.7 76.05 67.55 75.8 68.8 75 70.3 74 70.15 72.55 71.4 75.05 74.7 75.5 76.8 75.8 80.3 74.9 89.7 72.6 98.2 68.05 105.2 64.45 105.3 59.85 105.35 58.65 104.85 57.15 104.7 56.7 103.8 54.55 100 45.8 99.4 36.05 98.8 26.3 101.45 17.1 102.55 13.4 102.8 12.3 103.35 9.55 102.9 7.45 101.95 3.35 96.4 -0.75 88.3 -6.65 78.65 -9.8 69 -13 59 -13.05 49 -13.1 39.3 -10
M 56.2 -7.85
Q 57.25 -7.9 58.25 -7.9 62.5 -7.9 66.8 -7.3 66.2 -6 65.45 -4.5 64.55 -2.7 63.45 -0.65 62.85 0.5 62.2 0.9 61.55 1.3 59.75 1.2 57 1.05 54.8 1.3 52.65 1.5 51.75 2.35 51.25 2.85 50.45 4.8 49.7 6.75 48.4 8.45 48.2 8.65 48.05 8.9 47.8 9.2 47.5 9.5 46.95 10.1 46.6 10.55 45.6 10 44.15 9.7
L 40.15 8.75
Q 37.05 8.1 35.5 8.65 35.4 8.65 35.3 8.7 34.3 9.15 32.8 10.75
L 30.75 12.9
Q 30.2 13.6 30.15 13.85 30.1 14.15 30.3 14.4 30.45 14.65 30.75 14.6
L 33.2 12.45
Q 34.9 11.1 35.8 10.85 37.5 10.45 39.85 11.65 41.6 12.55 41.7 12.6 42.8 13.1 43.7 13.2 44.45 13.25 45.45 13.1 45.35 13.8 45.4 14.65 45.45 15.65 45.45 17 44.8 17.05 44.45 17.15 43.35 17.45 41.45 18.85 39.45 20.35 38.25 21.65 36.8 23.45 35.8 26 33.6 31.35 33.75 36.2 33.8 37.15 33.9 38.05 33.95 38.35 34 38.6 33.95 38.6 33.9 38.6 32.65 38.55 30.45 37.1 29.9 36.65 29.55 36.55
L 29.5 36.55
Q 29.25 36.5 29.1 36.55 28.9 36.6 28.8 36.7 28.65 36.75 28.6 36.9 28.25 37.4 28.85 38.15 28.95 38.25 29.05 38.4 30 39.7 31.8 40.65 32.15 40.85 32.55 41 33.55 41.5 35.05 42 35 41.9 35 41.85 35.05 41.95 35.1 42.05 35.25 42.35 35.4 42.65 36.85 45.3 39.75 47.1
L 39.8 47.15
Q 41.45 48.15 43.35 48.8 43.5 48.85 43.65 48.9 44.55 49.2 45.5 49.4 45.65 49.4 45.8 49.45 52.45 50.7 59.3 48.25 59.65 48.1 60.05 48 60.1 47.95 60.2 47.9 63.35 46.7 65.3 45.05 67.75 42.95 70 38.75 71.3 36.35 71.65 34.6 72 33 71.8 30.3 71.7 27.6 71.15 25.8 70.95 25.1 70.65 24.4 69.25 21.35 66 19 62.8 16.65 58 15.75 54.15 15 51.3 15.75 51.05 15.8 50.85 15.85 48.9 16.55 47.85 16.8 47.85 16.75 47.9 16.75 47.9 16.05 47.85 15.5 47.75 13.45 48 12.65 48.2 12 48.8 11.35 49.5 10.6 49.8 10.2 52.05 7.65 53.05 4.3 56 4.1 59 4.7 61.15 5.15 61.75 5.25 63.3 5.45 64.4 5 65.5 4.55 66.45 3.3 67 2.55 67.85 0.95
L 71.65 -6.45
Q 73 -6.15 74.4 -5.8 75.15 -5.6 75.85 -5.4 84 -3.05 91.3 1.25 91.5 1.35 91.7 1.5 97.35 5 98.2 8.75 98.6 10.45 98.25 12.7 98.2 12.9 98.15 13.1 98 13.95 96.95 17.4 94.85 24.5 94.75 31.95 94.7 34.3 94.9 36.75 94.95 37.75 95.1 38.75 95.1 38.9 95.15 39.15 95.15 39.55 95.25 39.95 95.3 40.55 95.4 41.15 95.4 41.25 95.45 41.35 95.45 41.5 95.5 41.65 95.5 41.8 95.55 41.95 96.3 46.4 97.8 50.6 98.7 53.15 99.85 55.65 100.7 57.4 100.95 58.25 101.45 59.75 101.3 60.95 101.1 62.45 99.8 63.9 98.95 64.9 97.15 66.25 94.9 63.25 94.75 59.45 94.75 58.2 94.7 57.6 94.6 56.55 94.25 55.85 94.15 55.65 94 55.5 93.55 54.95 92.85 54.7 91.85 54.35 91.25 55 90.75 55.55 90.75 56.9 90.8 58.65 91 60.4 91.15 61.55 91.4 62.7 91.8 64.4 92.35 66.05 92.4 66.1 92.4 66.15 92.45 66.25 92.5 66.4 83.65 70.55 73.8 71.75
L 73.35 68.35 72.45 61.45
Q 72 58.4 70.4 58.3 68.65 58.15 67.9 61 67.25 63.3 66.85 65.7 66.4 68.5 66.3 71.35 57.55 72.4 48.95 71.3 48.4 71.25 48 71.1 47.25 70.9 46.9 70.55 46.15 69.8 46.45 67.45
L 48 58.45
Q 48.35 57.15 47.55 56.85 46.75 56.6 46.2 57.95
L 44.65 61.6 42.65 66.2
Q 41.9 67.75 41.3 68.1 40.5 68.6 38.55 68.4
L 31.85 67.5
Q 30.05 67.25 29.15 66.95 27.7 66.5 26.85 65.65 25.05 63.85 25.7 58.85 25.7 58.7 25.75 58.6
L 25.75 58.55
Q 26.35 53.45 25.05 51.6
L 23.1 57.2
Q 24.15 48.7 21.9 36.95 18.8 23.55 17.45 16.85 16.6 12.8 17.25 10.45 18.1 7.55 22.15 4.35 29.35 -1.25 38.2 -4.4 46.95 -7.5 56.2 -7.85
M 61.8 21.1
Q 63.3 22.25 64.1 23.65 64.75 24.2 65.25 24.85 66.8 26.9 67.25 30.7 67.45 32.85 67.2 33.95 66.95 35.25 65.65 37.3 63.55 40.7 61.9 41.95 60.85 42.7 58.45 43.6 56.2 44.5 54.9 44.7 53.85 44.9 51.7 45 47.3 45.2 44.85 44.6 41 43.75 39.35 40.85 38.6 39.7 38.35 38 37.35 32.7 40.05 26.25 41.3 22.95 43.35 22.1 43.35 22.15 43.4 22.2 43.5 22.05 43.65 21.95 45.15 20.6 49 19.7 53.65 18.6 56.05 18.85 59.25 19.15 61.8 21.1
M 93.9 34
Q 94.05 32.3 93.35 30.65 93.05 29.9 92.65 29.3 92.15 28.5 91.45 27.85 91.1 27.5 90.75 27.25 88.55 25.5 85.3 25.15 82 24.85 80.8 26.7
L 80.55 27.35 80.45 27.6
Q 80.4 27.75 80.35 27.9 80.3 27.95 80.3 28 80.2 28.3 80.05 28.65 80 28.7 78.95 30.55 76.55 34.25 77.4 37.3 78.2 40.45 81.85 41.85 84.05 42.7 86.35 42.45 87.15 42.35 88 42.15 89.95 41.55 90.95 40.45 91.7 39.7 92.45 38.2
L 92.45 38.15
Q 92.5 38.1 92.5 38.05 93.75 35.6 93.9 34
M 81.8 30.15
Q 82.4 30.25 83.3 30.1
L 84.8 29.85
Q 87.25 29.7 88.85 31.45 89.9 32.6 89.85 33.8 89.8 34.25 89.6 34.85 89.45 35.2 89.15 35.9 88.5 37.35 88.35 37.5 87.7 38.15 86.7 38.4 84.75 38.85 83.35 38.3 81.6 37.65 80.9 36.05 80.65 35.4 80.55 33.95 80.55 31.35 81.8 30.15 Z"/>

<path fill="#CC66FF" stroke="none" d="
M 64.1 23.65
Q 63.3 22.25 61.8 21.1 59.25 19.15 56.05 18.85 53.65 18.6 49 19.7 45.15 20.6 43.65 21.95 43.5 22.05 43.4 22.2 43.35 22.15 43.35 22.1 41.3 22.95 40.05 26.25 37.35 32.7 38.35 38 38.6 39.7 39.35 40.85 41 43.75 44.85 44.6 47.3 45.2 51.7 45 53.85 44.9 54.9 44.7 56.2 44.5 58.45 43.6 60.85 42.7 61.9 41.95 63.55 40.7 65.65 37.3 66.95 35.25 67.2 33.95 67.45 32.85 67.25 30.7 66.8 26.9 65.25 24.85 64.75 24.2 64.1 23.65 Z"/>

<path fill="#929274" stroke="none" d="
M 54.65 56.6
Q 53.55 56.05 51.6 54.8 49.5 53.4 48.15 52.95 47.75 52.85 47.4 52.8 47.6 52.8 47.85 52.8 46.9 52.75 46.05 52.7 45.1 52.85 43.4 53.95 42.45 54.55 41.6 55 42.7 55.65 43.15 56.15 44.1 57.25 44.4 59.4 44.55 60.5 44.65 61.6
L 46.2 57.95
Q 46.75 56.6 47.55 56.85 48.35 57.15 48 58.45
L 46.45 67.45
Q 46.15 69.8 46.9 70.55 47.25 70.9 48 71.1 47.9 70.45 47.9 69.4 47.9 67.9 48.15 67.2
L 48.7 65.85
Q 48.9 65.35 48.95 64.55 49.05 63.35 49.1 63.2 49.35 61.5 50.85 59.35 51.6 58.25 52.3 57.7 52.9 57.2 54.3 56.7 54.5 56.65 54.65 56.6
M 43.65 48.9
Q 43.5 48.85 43.35 48.8 41.45 48.15 39.8 47.15
L 39.75 47.1
Q 36.85 45.3 35.4 42.65 35.25 42.35 35.1 42.05 35.05 41.95 35 41.85 35 41.9 35.05 42 33.55 41.5 32.55 41 32.55 41.2 32.6 41.4 33.9 47.2 38.2 49.4 39.6 50.15 42.25 50.7
L 49.25 52.4
Q 52.5 53.25 54.5 53.2 57.35 53.2 60.85 51.45 64.9 49.4 67.55 46.5 70.15 43.6 71.35 39.7 72.55 35.9 72.2 31.9 71.8 29.2 71.75 27.85 71.65 26.1 71.45 25.6 71.15 24.75 70.65 24.4 70.95 25.1 71.15 25.8 71.7 27.6 71.8 30.3 72 33 71.65 34.6 71.3 36.35 70 38.75 67.75 42.95 65.3 45.05 63.35 46.7 60.2 47.9 60.1 47.95 60.05 48 59.65 48.1 59.3 48.25 52.45 50.7 45.8 49.45 45.65 49.4 45.5 49.4 44.55 49.2 43.65 48.9
M 43.9 7.25
Q 41.05 6.9 40.65 6.8 38.7 6.35 38.65 6.35 37.45 6.2 36.6 6.4 35.6 6.6 34.15 7.85 30.55 11.05 29.15 15.8 29.05 16.25 29.15 16.45 29.3 16.85 29.8 16.65 30.25 16.5 30.6 16.1 32.2 13.9 33.1 12.85 34.45 11.45 35.8 10.85 34.9 11.1 33.2 12.45
L 30.75 14.6
Q 30.45 14.65 30.3 14.4 30.1 14.15 30.15 13.85 30.2 13.6 30.75 12.9
L 32.8 10.75
Q 34.3 9.15 35.3 8.7 35.4 8.65 35.5 8.65 37.05 8.1 40.15 8.75
L 44.15 9.7
Q 45.6 10 46.6 10.55 46.95 10.1 47.5 9.5 47.8 9.2 48.05 8.9 48.2 8.65 48.4 8.45 47.65 8.1 47.1 7.9 45.9 7.5 43.9 7.25
M 95.4 52.25
Q 93.95 52.95 92.3 53 90.25 53.1 87.35 51.9 86.35 51.5 85.65 51.05 85.55 51.35 85.45 51.7 85.4 51.9 85.35 52.05 84.8 53.7 84.1 54.5 83.3 55.45 81.85 56 81 56.35 79.1 56.75 76 57.35 74.35 57.45 71.7 57.6 69.75 56.85 68.9 56.55 67.6 55.8 66.7 55.25 66.1 54.95 65.8 54.8 65.6 54.7
L 65.45 54.8
Q 63.65 56.5 61.15 57.1 61.8 57.5 62.45 58.15 65.7 61.3 66.85 65.7 67.25 63.3 67.9 61 68.65 58.15 70.4 58.3 72 58.4 72.45 61.45
L 73.35 68.35
Q 73.7 65.45 74.55 63.05 74.95 61.9 75.35 61.25 76.4 59.5 78.7 58 80.55 56.9 82 56.7 83 56.6 85 57 87.45 57.55 88.75 58.35 89.85 59.05 91 60.4 90.8 58.65 90.75 56.9 90.75 55.55 91.25 55 91.85 54.35 92.85 54.7 93.55 54.95 94 55.5 94.5 53.4 95.4 52.25
M 93.35 30.65
Q 94.05 32.3 93.9 34 93.75 35.6 92.5 38.05 92.5 38.1 92.45 38.15
L 92.45 38.2
Q 91.7 39.7 90.95 40.45 89.95 41.55 88 42.15 87.15 42.35 86.35 42.45 84.05 42.7 81.85 41.85 78.2 40.45 77.4 37.3 76.55 34.25 78.95 30.55 80 28.7 80.05 28.65 80.2 28.3 80.3 28 80.3 27.95 80.35 27.9 80.4 27.75 80.45 27.6
L 80.55 27.35
Q 80 27.55 79.65 27.8 78.25 28.65 77.1 31.2 75.7 34.25 75.65 36.7 75.55 39.9 77.4 41.95 79.7 44.55 84.95 44.75 91.6 45.05 94.3 41.55 94.85 40.8 95.25 39.95 95.15 39.55 95.15 39.15 95.1 38.9 95.1 38.75 94.95 37.75 94.9 36.75 94.7 34.3 94.75 31.95 94.15 30.45 93.15 29.25 92.05 27.95 90.75 27.25 91.1 27.5 91.45 27.85 92.15 28.5 92.65 29.3 93.05 29.9 93.35 30.65
M 72.05 -0.5
Q 74.15 -3.3 75.3 -4.7 75.6 -5.05 75.85 -5.4 75.15 -5.6 74.4 -5.8 73 -6.15 71.65 -6.45
L 67.85 0.95
Q 67 2.55 66.45 3.3 65.5 4.55 64.4 5 63.3 5.45 61.75 5.25 61.15 5.15 59 4.7 56 4.1 53.05 4.3 52.05 7.65 49.8 10.2 49.5 10.6 48.8 11.35 48.2 12 48 12.65 47.75 13.45 47.85 15.5 47.9 16.05 47.9 16.75 47.85 16.75 47.85 16.8 48.9 16.55 50.85 15.85 51.05 15.8 51.3 15.75 51.35 15.1 51.4 14.4 51.5 13.3 51.75 12.85 52 12.3 52.65 11.65
L 53.7 10.6
Q 53.95 10.35 54.75 9.05 55.3 8.1 55.9 7.7 56.8 7.1 58.3 7.25 58.95 7.35 60.8 7.85 64.25 8.9 66.2 7.65 67 7.15 67.65 6.2 67.95 5.75 68.75 4.35 69.4 3.2 72.05 -0.5
M 58.25 -7.9
Q 57.25 -7.9 56.2 -7.85 46.95 -7.5 38.2 -4.4 29.35 -1.25 22.15 4.35 18.1 7.55 17.25 10.45 16.6 12.8 17.45 16.85 18.8 23.55 21.9 36.95 24.15 48.7 23.1 57.2
L 25.05 51.6
Q 26.35 53.45 25.75 58.55 25.85 58.45 25.95 58.3 26.95 57.05 27.35 56.35 28.7 54.4 29.2 54.05 29.8 53.7 31.65 53.35 32.15 53.25 32.85 53.05 30.8 50.95 30.2 49.4 29.9 48.6 29.7 46.9
L 29.25 42.8
Q 28.95 40.35 29.05 38.65
L 29.15 39.1 29.05 38.4
Q 28.95 38.25 28.85 38.15 28.25 37.4 28.6 36.9 28.65 36.75 28.8 36.7
L 28.25 33.05
Q 27.2 26.1 27.2 22.15 27.2 20.05 27.2 19 27.15 17.2 26.85 15.95 26.5 14.65 26.35 14 26.1 12.85 26.2 12.05 26.35 10.8 27.3 9.6 27.9 8.8 29.25 7.6 34.35 3.1 37.25 1.3 39.75 -0.3 43.5 -1.9 45.65 -2.8 50 -4.55 56.7 -7.4 58.25 -7.9 Z"/>

<path fill="#D7D7C5" stroke="none" d="
M 85 57
Q 83 56.6 82 56.7 80.55 56.9 78.7 58 76.4 59.5 75.35 61.25 74.95 61.9 74.55 63.05 73.7 65.45 73.35 68.35
L 73.8 71.75
Q 83.65 70.55 92.5 66.4 92.45 66.25 92.4 66.15 92.4 66.1 92.35 66.05 91.8 64.4 91.4 62.7 91.15 61.55 91 60.4 89.85 59.05 88.75 58.35 87.45 57.55 85 57
M 75.3 -4.7
Q 74.15 -3.3 72.05 -0.5 69.4 3.2 68.75 4.35 67.95 5.75 67.65 6.2 67 7.15 66.2 7.65 64.25 8.9 60.8 7.85 58.95 7.35 58.3 7.25 56.8 7.1 55.9 7.7 55.3 8.1 54.75 9.05 53.95 10.35 53.7 10.6
L 52.65 11.65
Q 52 12.3 51.75 12.85 51.5 13.3 51.4 14.4 51.35 15.1 51.3 15.75 54.15 15 58 15.75 62.8 16.65 66 19 69.25 21.35 70.65 24.4 71.15 24.75 71.45 25.6 71.65 26.1 71.75 27.85 71.8 29.2 72.2 31.9 72.55 35.9 71.35 39.7 70.15 43.6 67.55 46.5 64.9 49.4 60.85 51.45 57.35 53.2 54.5 53.2 52.5 53.25 49.25 52.4
L 42.25 50.7
Q 39.6 50.15 38.2 49.4 33.9 47.2 32.6 41.4 32.55 41.2 32.55 41 32.15 40.85 31.8 40.65 30 39.7 29.05 38.4
L 29.15 39.1 29.05 38.65
Q 28.95 40.35 29.25 42.8
L 29.7 46.9
Q 29.9 48.6 30.2 49.4 30.8 50.95 32.85 53.05 32.15 53.25 31.65 53.35 29.8 53.7 29.2 54.05 28.7 54.4 27.35 56.35 26.95 57.05 25.95 58.3 25.85 58.45 25.75 58.55
L 25.75 58.6
Q 25.7 58.7 25.7 58.85 25.05 63.85 26.85 65.65 27.7 66.5 29.15 66.95 30.05 67.25 31.85 67.5
L 38.55 68.4
Q 40.5 68.6 41.3 68.1 41.9 67.75 42.65 66.2
L 44.65 61.6
Q 44.55 60.5 44.4 59.4 44.1 57.25 43.15 56.15 42.7 55.65 41.6 55 42.45 54.55 43.4 53.95 45.1 52.85 46.05 52.7 46.9 52.75 47.85 52.8 47.6 52.8 47.4 52.8 47.75 52.85 48.15 52.95 49.5 53.4 51.6 54.8 53.55 56.05 54.65 56.6 54.5 56.65 54.3 56.7 52.9 57.2 52.3 57.7 51.6 58.25 50.85 59.35 49.35 61.5 49.1 63.2 49.05 63.35 48.95 64.55 48.9 65.35 48.7 65.85
L 48.15 67.2
Q 47.9 67.9 47.9 69.4 47.9 70.45 48 71.1 48.4 71.25 48.95 71.3 57.55 72.4 66.3 71.35 66.4 68.5 66.85 65.7 65.7 61.3 62.45 58.15 61.8 57.5 61.15 57.1 63.65 56.5 65.45 54.8
L 65.6 54.7
Q 65.8 54.8 66.1 54.95 66.7 55.25 67.6 55.8 68.9 56.55 69.75 56.85 71.7 57.6 74.35 57.45 76 57.35 79.1 56.75 81 56.35 81.85 56 83.3 55.45 84.1 54.5 84.8 53.7 85.35 52.05 85.4 51.9 85.45 51.7 85.55 51.35 85.65 51.05 86.35 51.5 87.35 51.9 90.25 53.1 92.3 53 93.95 52.95 95.4 52.25 94.5 53.4 94 55.5 94.15 55.65 94.25 55.85 94.6 56.55 94.7 57.6 94.75 58.2 94.75 59.45 94.9 63.25 97.15 66.25 98.95 64.9 99.8 63.9 101.1 62.45 101.3 60.95 101.45 59.75 100.95 58.25 100.7 57.4 99.85 55.65 98.7 53.15 97.8 50.6 96.3 46.4 95.55 41.95 95.5 41.8 95.5 41.65 95.45 41.5 95.45 41.35 95.4 41.25 95.4 41.15 95.3 40.55 95.25 39.95 94.85 40.8 94.3 41.55 91.6 45.05 84.95 44.75 79.7 44.55 77.4 41.95 75.55 39.9 75.65 36.7 75.7 34.25 77.1 31.2 78.25 28.65 79.65 27.8 80 27.55 80.55 27.35
L 80.8 26.7
Q 82 24.85 85.3 25.15 88.55 25.5 90.75 27.25 92.05 27.95 93.15 29.25 94.15 30.45 94.75 31.95 94.85 24.5 96.95 17.4 98 13.95 98.15 13.1 98.2 12.9 98.25 12.7 97.9 11.85 97.45 10.95 96.55 9 94.5 5.75 92.85 3.05 91.9 1.75 91.8 1.6 91.7 1.5 91.5 1.35 91.3 1.25 84 -3.05 75.85 -5.4 75.6 -5.05 75.3 -4.7
M 50 -4.55
Q 45.65 -2.8 43.5 -1.9 39.75 -0.3 37.25 1.3 34.35 3.1 29.25 7.6 27.9 8.8 27.3 9.6 26.35 10.8 26.2 12.05 26.1 12.85 26.35 14 26.5 14.65 26.85 15.95 27.15 17.2 27.2 19 27.2 20.05 27.2 22.15 27.2 26.1 28.25 33.05
L 28.8 36.7
Q 28.9 36.6 29.1 36.55 29.25 36.5 29.5 36.55
L 29.55 36.55
Q 29.9 36.65 30.45 37.1 32.65 38.55 33.9 38.6 33.95 38.6 34 38.6 33.95 38.35 33.9 38.05 33.8 37.15 33.75 36.2 33.6 31.35 35.8 26 36.8 23.45 38.25 21.65 39.45 20.35 41.45 18.85 43.35 17.45 44.45 17.15 44.8 17.05 45.45 17 45.45 15.65 45.4 14.65 45.35 13.8 45.45 13.1 44.45 13.25 43.7 13.2 42.8 13.1 41.7 12.6 41.6 12.55 39.85 11.65 37.5 10.45 35.8 10.85 34.45 11.45 33.1 12.85 32.2 13.9 30.6 16.1 30.25 16.5 29.8 16.65 29.3 16.85 29.15 16.45 29.05 16.25 29.15 15.8 30.55 11.05 34.15 7.85 35.6 6.6 36.6 6.4 37.45 6.2 38.65 6.35 38.7 6.35 40.65 6.8 41.05 6.9 43.9 7.25 45.9 7.5 47.1 7.9 47.65 8.1 48.4 8.45 49.7 6.75 50.45 4.8 51.25 2.85 51.75 2.35 52.65 1.5 54.8 1.3 57 1.05 59.75 1.2 61.55 1.3 62.2 0.9 62.85 0.5 63.45 -0.65 64.55 -2.7 65.45 -4.5 66.2 -6 66.8 -7.3 62.5 -7.9 58.25 -7.9 56.7 -7.4 50 -4.55 Z"/>

<path fill="#666666" stroke="none" d="
M 83.3 30.1
Q 82.4 30.25 81.8 30.15 80.55 31.35 80.55 33.95 80.65 35.4 80.9 36.05 81.6 37.65 83.35 38.3 84.75 38.85 86.7 38.4 87.7 38.15 88.35 37.5 88.5 37.35 89.15 35.9 89.45 35.2 89.6 34.85 89.8 34.25 89.85 33.8 89.9 32.6 88.85 31.45 87.25 29.7 84.8 29.85
L 83.3 30.1 Z"/>

<path fill="#CCCC99" stroke="none" d="
M 94.5 5.75
Q 96.55 9 97.45 10.95 97.9 11.85 98.25 12.7 98.6 10.45 98.2 8.75 97.35 5 91.7 1.5 91.8 1.6 91.9 1.75 92.85 3.05 94.5 5.75 Z"/>
</g>

<g id="Bone_Archer_Head_0_Layer0_0_FILL">
<path fill="#000000" stroke="none" d="
M 150.15 7.2
Q 149.45 7.1 147.8 7.75 147 8.1 139.55 10.95 136.6 12.2 135.1 12.65 131.5 13.85 128.8 13.95
L 127.35 13.95
Q 126.5 13.95 125.95 14.2 125.15 14.6 124.45 15.8 123.8 17.15 123.4 17.85 123.1 18.5 121.95 19.75 121 20.9 120.6 21.65 120.05 22.75 119.7 23.2 119.5 23.55 118.95 23.9 118.6 24.15 118.4 24.35
L 114.35 25.15 111.55 26.15
Q 110.2 26.6 106.4 27.45
L 103.45 28.1
Q 95.15 29.95 91.75 30.5 88.4 31.1 87.05 31.5 84.45 32.2 82.8 33.4 81.8 34.1 82 34.65 82.25 35.25 83.4 35.2 84.3 35.3 86.1 35.2 89.1 35.1 92.7 34.45 95.05 34 99.3 33
L 107.9 31.15
Q 109.5 30.9 111.05 30.35
L 114.4 29.45
Q 115.6 29.1 117.05 28.7 117.6 29.25 118.4 29.7 120.5 30.7 121.5 31.2
L 124.1 31.85
Q 126.15 32.55 128.05 34 129.7 35.55 130.65 35.9 131.95 36.3 134.6 35.75 136.65 35.4 140.55 34.5 144 33.7 146.45 33.5 149.05 33.35 149.6 32.25 149.8 31.75 149.6 31.15 149.5 30.5 149 30.15 148.65 29.7 147.05 28.85 144.9 27.5 142.4 23.95 141.75 23.25 141.45 22.5 140.8 20.5 143.8 17.3
L 150.85 9.85
Q 151.7 9.05 151.7 8.5 151.75 8 151.2 7.55 150.8 7.2 150.15 7.2
M 144.55 12.3
Q 143.8 13.3 142.35 14.8 140.8 16.45 140.2 17.3 137.65 20.6 138.45 23.25 138.526171875 23.5109375 138.65 23.8 139.15859375 24.8412109375 140.45 26.25
L 144.55 30.85 136.7 32.75
Q 135.3 33.05 134.6 33.05 133.4 33.25 132.55 33 131.65 32.7 130.7 32.1 129.65 31.25 129.2 30.9 127.1 29.3 123.85 28 123.15 27.75 122.25 27.45
L 123.35 27.2
Q 124.95 26.75 125.6 26.3 126.2 25.9 126.45 25.35 126.4650390625 25.3083984375 126.45 25.25 126.638671875 24.7623046875 126.5 24.3 126.15 23.4 124.95 23.2 124.35 23.15 123.4 23.35 123.75 22.85 124.15 22.3 125.95 19.6 126.35 19.1 127.65 17.4 129.3 16.75 130.25 16.45 131.85 16.25 134.05 16.1 134.45 16.05 136.1 15.7 139.45 14 142.6 12.5 144.55 12.3 Z"/>

<path fill="#71368A" stroke="none" d="
M 138.65 23.8
Q 135.10390625 23.8361328125 133.7 23.95 132.4 24.05 127.3 24.9 126.912109375 24.9646484375 126.55 25 126.5203125 25.144140625 126.45 25.25 126.4650390625 25.3083984375 126.45 25.35 126.2 25.9 125.6 26.3 124.95 26.75 123.35 27.2
L 122.25 27.45
Q 123.15 27.75 123.85 28 127.1 29.3 129.2 30.9 129.65 31.25 130.7 32.1 131.65 32.7 132.55 33 133.4 33.25 134.6 33.05 135.3 33.05 136.7 32.75
L 144.55 30.85 140.45 26.25
Q 139.15859375 24.8412109375 138.65 23.8 Z"/>

<path fill="#CC66FF" stroke="none" d="
M 142.35 14.8
Q 143.8 13.3 144.55 12.3 142.6 12.5 139.45 14 136.1 15.7 134.45 16.05 134.05 16.1 131.85 16.25 130.25 16.45 129.3 16.75 127.65 17.4 126.35 19.1 125.95 19.6 124.15 22.3 123.75 22.85 123.4 23.35 124.35 23.15 124.95 23.2 126.15 23.4 126.5 24.3 126.638671875 24.7623046875 126.45 25.25 126.5203125 25.144140625 126.55 25 126.912109375 24.9646484375 127.3 24.9 132.4 24.05 133.7 23.95 135.10390625 23.8361328125 138.65 23.8 138.526171875 23.5109375 138.45 23.25 137.65 20.6 140.2 17.3 140.8 16.45 142.35 14.8 Z"/>
</g>
</defs>

<g transform="matrix( 1, 0, 0, 1, 122.3,96.95) ">
<g transform="matrix( 1, 0, 0, 1, 0,0) ">
<use xlink:href="#Bone_Archer_40_Layer1_0_FILL"/>
</g>

<g transform="matrix( 1, 0, 0, 1, 21.3,44.9) ">
<g transform="matrix( 1, 0, 0, 1, 0,0) ">
<use xlink:href="#Bone_Archer_Head_0_Layer3_0_FILL"/>
</g>

<g transform="matrix( 1, 0, 0, 1, 0,0) ">
<use xlink:href="#Bone_Archer_Head_0_Layer2_0_FILL"/>
</g>

<g transform="matrix( 1, 0, 0, 1, 0,0) ">
<use xlink:href="#Bone_Archer_Head_0_Layer1_0_FILL"/>
</g>

<g transform="matrix( 1, 0, 0, 1, 0,0) ">
<use xlink:href="#Bone_Archer_Head_0_Layer0_0_FILL"/>
</g>
</g>
</g>
</svg>
