
<svg xmlns="http://www.w3.org/2000/svg" version="1.1" xmlns:xlink="http://www.w3.org/1999/xlink" preserveAspectRatio="none" x="0px" y="0px" width="1000px" height="1000px" viewBox="0 0 1000 1000">
<defs>
<linearGradient id="Gradient_1" gradientUnits="userSpaceOnUse" x1="-1580.6375" y1="140.2875" x2="-1155.9624999999999" y2="467.2125" spreadMethod="pad">
<stop  offset="0%" stop-color="#FF6600"/>

<stop  offset="50.19607843137255%" stop-color="#FFCC00"/>

<stop  offset="100%" stop-color="#FFFFFF"/>
</linearGradient>

<linearGradient id="Gradient_2" gradientUnits="userSpaceOnUse" x1="-1395.1" y1="303.5" x2="-1325.6" y2="303.5" spreadMethod="pad">
<stop  offset="0%" stop-color="#FFFF66"/>

<stop  offset="100%" stop-color="#FFFFFF"/>
</linearGradient>

<linearGradient id="Gradient_3" gradientUnits="userSpaceOnUse" x1="-1183.8625" y1="247.9" x2="-513.1375" y2="306.6" spreadMethod="pad">
<stop  offset="0%" stop-color="#FFFF66"/>

<stop  offset="100%" stop-color="#FFFFFF"/>
</linearGradient>

<linearGradient id="Gradient_4" gradientUnits="userSpaceOnUse" x1="-1085.55" y1="260.3875" x2="-599.05" y2="290.41249999999997" spreadMethod="pad">
<stop  offset="0%" stop-color="#FFFF66"/>

<stop  offset="100%" stop-color="#FFFFFF"/>
</linearGradient>

<linearGradient id="Gradient_5" gradientUnits="userSpaceOnUse" x1="-1381.9875000000002" y1="281.975" x2="-51.21249999999998" y2="299.525" spreadMethod="pad">
<stop  offset="0%" stop-color="#FF6600"/>

<stop  offset="50.19607843137255%" stop-color="#FFCC00"/>

<stop  offset="100%" stop-color="#FFFFFF"/>
</linearGradient>

<linearGradient id="Gradient_6" gradientUnits="userSpaceOnUse" x1="-126.975" y1="315.7" x2="-93.525" y2="318.2" spreadMethod="pad">
<stop  offset="0%" stop-color="#FFFF66"/>

<stop  offset="100%" stop-color="#FFFFFF"/>
</linearGradient>

<linearGradient id="Gradient_7" gradientUnits="userSpaceOnUse" x1="-430.975" y1="323.0125" x2="-294.525" y2="281.8875" spreadMethod="pad">
<stop  offset="0%" stop-color="#FFFF66"/>

<stop  offset="100%" stop-color="#FFFFFF"/>
</linearGradient>

<linearGradient id="Gradient_8" gradientUnits="userSpaceOnUse" x1="-218.7875" y1="295.9375" x2="-33.412499999999994" y2="275.5625" spreadMethod="pad">
<stop  offset="0%" stop-color="#FFFF66"/>

<stop  offset="100%" stop-color="#FFFFFF"/>
</linearGradient>

<linearGradient id="Gradient_9" gradientUnits="userSpaceOnUse" x1="-321.70000000000005" y1="255" x2="-33.400000000000006" y2="255" spreadMethod="pad">
<stop  offset="0%" stop-color="#FF6600"/>

<stop  offset="50.19607843137255%" stop-color="#FFCC00"/>

<stop  offset="100%" stop-color="#FFFFFF"/>
</linearGradient>

<linearGradient id="Gradient_10" gradientUnits="userSpaceOnUse" x1="99.5" y1="334.7875" x2="125.69999999999999" y2="143.61249999999998" spreadMethod="pad">
<stop  offset="18.823529411764707%" stop-color="#FFFFFF"/>

<stop  offset="38.03921568627451%" stop-color="#FFFF99"/>

<stop  offset="90.19607843137256%" stop-color="#FF6600"/>
</linearGradient>

<linearGradient id="Gradient_11" gradientUnits="userSpaceOnUse" x1="102.28750000000001" y1="354.525" x2="129.01250000000002" y2="89.37499999999997" spreadMethod="pad">
<stop  offset="18.823529411764707%" stop-color="#FFFFFF"/>

<stop  offset="38.03921568627451%" stop-color="#FFFF99"/>

<stop  offset="90.19607843137256%" stop-color="#FF6600"/>
</linearGradient>

<linearGradient id="Gradient_12" gradientUnits="userSpaceOnUse" x1="111.425" y1="337.9125" x2="134.675" y2="27.087499999999977" spreadMethod="pad">
<stop  offset="18.823529411764707%" stop-color="#FFFFFF"/>

<stop  offset="38.03921568627451%" stop-color="#FFFF99"/>

<stop  offset="90.19607843137256%" stop-color="#FF6600"/>
</linearGradient>

<linearGradient id="Gradient_13" gradientUnits="userSpaceOnUse" x1="109.14999999999999" y1="360.1125" x2="152.75" y2="40.38749999999999" spreadMethod="pad">
<stop  offset="18.823529411764707%" stop-color="#FFFFFF"/>

<stop  offset="38.03921568627451%" stop-color="#FFFF99"/>

<stop  offset="90.19607843137256%" stop-color="#FF6600"/>
</linearGradient>

<linearGradient id="Gradient_14" gradientUnits="userSpaceOnUse" x1="101.77499999999999" y1="336.26250000000005" x2="155.125" y2="74.3375" spreadMethod="pad">
<stop  offset="18.823529411764707%" stop-color="#FFFFFF"/>

<stop  offset="38.03921568627451%" stop-color="#FFFF99"/>

<stop  offset="90.19607843137256%" stop-color="#FF6600"/>
</linearGradient>

<linearGradient id="Gradient_15" gradientUnits="userSpaceOnUse" x1="94.19999999999999" y1="362.975" x2="149" y2="7.324999999999989" spreadMethod="pad">
<stop  offset="18.823529411764707%" stop-color="#FFFFFF"/>

<stop  offset="38.03921568627451%" stop-color="#FFFF99"/>

<stop  offset="90.19607843137256%" stop-color="#FF6600"/>
</linearGradient>

<linearGradient id="Gradient_16" gradientUnits="userSpaceOnUse" x1="106.8875" y1="335.55" x2="131.9125" y2="88.34999999999998" spreadMethod="pad">
<stop  offset="18.823529411764707%" stop-color="#FFFFFF"/>

<stop  offset="38.03921568627451%" stop-color="#FFFF99"/>

<stop  offset="90.19607843137256%" stop-color="#FF6600"/>
</linearGradient>

<linearGradient id="Gradient_17" gradientUnits="userSpaceOnUse" x1="107.63750000000002" y1="328.63750000000005" x2="155.4625" y2="18.56249999999997" spreadMethod="pad">
<stop  offset="18.823529411764707%" stop-color="#FFFFFF"/>

<stop  offset="38.03921568627451%" stop-color="#FFFF99"/>

<stop  offset="90.19607843137256%" stop-color="#FF6600"/>
</linearGradient>

<g id="Blaze_Blaze_fire_stream_5_Layer0_0_FILL">
<path fill="#FF9900" stroke="none" d="
M -1340.2 84.95
Q -1344.7771484375 86.7546875 -1350.05 88.8 -1360.5 93 -1365.3 95.85 -1371.15 99.35 -1373.65 103.5 -1376.2 107.8 -1376.2 114.55 -1376.2 120.5 -1365.35 131.8 -1365.25 131.9 -1357.35 139.75 -1353.4 143.7 -1352.7 145.1 -1358.3 150.7 -1364.9 155.2 -1368.4 157.6 -1373.75 161.2 -1377.55 164.2 -1379.1 168.15 -1380.9 172.75 -1380.9 181.2 -1380.9 183.4 -1381.05 188.9 -1381.05 194.05 -1380.3 197.75 -1378.2 208.4 -1369.15 212.95 -1376.15 195.25 -1351.25 177.1 -1350.95 176.85 -1333.15 165.15 -1324.5 159.5 -1324.5 156.85 -1324.5 154.75 -1328.15 148.95 -1330.35 145.45 -1336.25 136.4 -1348 117.4 -1348 104.25 -1348 96.8205078125 -1340.2 84.95
M -795.75 409.45
Q -801.2 403.8 -806.35 401.8 -810.8 400.05 -818.05 400.05 -824.5369140625 400.05 -841.25 405.7 -852.689453125 418.1453125 -856.6 428.05 -857.1939453125 429.5349609375 -858.3 433.55 -857.0326171875 432.1013671875 -855.45 430.65 -847.8 423.6 -834.5 417.6 -822.75 412.3 -811.7 409.85 -800.8 407.45 -798.1 409.45
L -795.75 409.45
M -1274 529.95
Q -1276.182421875 532.2486328125 -1279.4 534.6 -1283.35 537.55 -1284.6 539 -1289.55 544.45 -1289.55 559.3 -1289.55 570.2 -1283.95 577.55 -1281.5 580.85 -1273.1 587.5 -1274.75 585.85 -1276.35 577.05 -1277.8 569 -1277.8 564 -1277.8 548.7 -1274.65 542.75 -1273.55 540.7 -1271.6 538.95 -1268.45 536.15 -1268.4 536.05 -1270.1859375 533.7388671875 -1274 529.95
M -1262.15 410.65
Q -1273.118359375 413.78671875 -1276.45 421.1 -1277.85 424.15 -1277.95 428 -1278 430.1 -1277.8 432.95 -1273.15 433.95 -1266.55 427.95 -1263.5173828125 425.133984375 -1262.15 410.65
M -1034.95 233.35
Q -1040 227.05 -1046 227.05 -1056.3 227.05 -1063.35 235.5 -1069.5 242.8 -1069.5 250.55 -1044.75 255.05 -1037.75 256.3 -1027.3 258.25 -1025.15 259.65
L -1025.15 245.85
Q -1029.25 241.75 -1034.95 233.35
M -1235.95 38.5
Q -1243.33671875 40.3658203125 -1243.6 40.3 -1245.45 39.65 -1249.6 39.65 -1262.05 39.65 -1287.15 58.5 -1296.25 65.35 -1303.6 72.1 -1310.4 78.4 -1310.4 79.6 -1310.4 92.4 -1309 104.05 -1307.25 118.95 -1303.65 126.3 -1303.05 126.3 -1302.45 126.6 -1301.3 127.2 -1301.3 128.65 -1297.45 123.4 -1293.95 113.15 -1288.55 97.6 -1288.05 96.35 -1284.2 87.25 -1278.8 82.8 -1272.05 77.25 -1261.35 77.25 -1258.4 77.25 -1256.8 79.6 -1255.15 81.95 -1252.25 81.95 -1243.7 75.5 -1233.6 68.45 -1213.35 54.3 -1202.9 51.4 -1208.2 46.05 -1227.25 40.8 -1231.3482421875 39.66171875 -1235.95 38.5
M -1018.7 26.75
Q -1020.9 21.15 -1034.55 21.15 -1046.4 21.15 -1053.75 29.2 -1059.15 35 -1063.2 46.85 -1065.4 53.3 -1069.1 64.5 -1072.55 72.55 -1077.75 72.55 -1081.35 72.55 -1086.05 67.85 -1090.75 63.15 -1093 63.15 -1094.3 63.15 -1112.1 80.05 -1127.3228515625 94.4994140625 -1131.4 100.7 -1124.6017578125 96.225 -1120.85 93.95 -1112.6 89 -1108 89 -1104.5 89 -1094.6 94.25 -1083.4 100.2 -1081.25 105.45 -1080.55 83.35 -1067.1 70.15 -1056.35 59.6 -1036.25 53.8 -1030.431640625 52.1466796875 -1018 49.75 -1019.8798828125 45.5380859375 -1019.3 39.8 -1018.55 34.9 -1018.3 32.7 -1017.9 28.9 -1018.7 26.75
M -959.5 183.75
Q -957 189.85 -957 192.95 -957 196.2 -968.75 210.6 -980.5 225 -980.5 228.2 -974.1 236.9 -967.7 246.15 -955.2486328125 264.2166015625 -954.95 269.95 -952.8451171875 265.412109375 -950.5 260.05 -939.45 234.9 -936.8 229.3 -928.75 212.65 -921.8 204.4 -913.2 194.15 -904.45 194.15 -903.1 194.15 -898.85 199.45 -892.95 206.8 -891.5 208.25 -878.45 191.8 -871.85 191.8 -865.45 191.8 -851.65 201.15 -838.265625 211.0787109375 -835.55 212.85 -835.852734375 209.508984375 -836.85 203.25 -838.5 193 -838.9 187.75 -840.3 168.05 -830.7 163.9 -837.3 163.9 -848.2 162.75 -859.05 161.55 -861.25 161.55 -869.75 161.55 -881.45 170.7 -887.85 175.7 -890 177.05 -894.7 179.95 -898.55 180.05 -900 178.9 -907.35 172.45 -911.8951171875 169.11015625 -917.35 166.35 -921.5435546875 167.3828125 -926.55 168.6 -955.6 175.65 -962 175.65 -962 177.65 -959.5 183.75
M -436.5 301.95
Q -439.6 301.95 -444.65 301.85 -446.8380859375 301.8759765625 -448.85 302.15 -461.566796875 310.7447265625 -467.35 316.9 -469.95 319.65 -474.85 326.15 -479.25 331.95 -482 334.55 -476.3 330.65 -450.85 323.7 -425.05 316.7 -421.2 318.4
L -407.1 318.4
Q -409 306.15 -419.9 303 -423.7 301.95 -428.95 301.85 -431.85 301.8 -436.5 301.95
M -640.7 70.1
Q -634.6 70.2 -630.65 70.2 -619.35 70.2 -601.95 80.4 -584.75 90.5 -578.1 100.75 -578.1 100 -576.9 97.35 -575.75 94.7 -575.75 91.35 -575.75 64.9 -592.25 54.2 -603.35 47 -622.45 47 -629.2 47 -636.8 54.05 -640.6 57.55 -649.55 68.65 -651.1654296875 70.6537109375 -652.65 72.35 -651.1615234375 71.8158203125 -649.9 71.45 -645.55 70.2 -640.7 70.1
M -311.05 116.95
Q -313.5724609375 116.5185546875 -316.35 116 -324.3 114.55 -327.5 114.55 -332.4 114.55 -342 119.25 -346.8 121.6 -351 123.95
L -351 126.3
Q -345.25 126.3 -328.1 130.25 -312.2 133.95 -309 133.35 -308.4 133.65 -307.8 133.2 -306.65 132.3 -306.65 128.65 -306.65 122.72734375 -311.05 116.95
M -721.3 -0.45
Q -721.072265625 -0.4451171875 -720.85 -0.45 -703.6 12.05 -699 15.45 -692.7 20.1 -687.95 25.85
L -687.95 4.7
Q -693.2 -1.4 -703.15 -6.45 -713 -11.45 -719.65 -11.45 -726.8 -11.45 -727.95 -11.1 -731.65 -10 -734.95 -4.4 -731.15 -1.2 -721.3 -0.45
M -1483.05 466.25
Q -1483.2626953125 464.672265625 -1483.4 462.75
L -1484.55 463.35
Q -1483.724609375 464.815234375 -1483.05 466.25
M -1330.4 423.95
Q -1331.0388671875 424.15390625 -1331.7 424.35 -1338.3400390625 433.176171875 -1345.45 438.85 -1346.8259765625 440.57734375 -1348 442.35
L -1350.35 442.35
Q -1347.874609375 440.7810546875 -1345.45 438.85 -1343.8384765625 436.81953125 -1341.95 434.85 -1338.2 431.2 -1336.7 429.55 -1334.8197265625 427.487109375 -1333.65 425.05 -1346.8830078125 429.7501953125 -1357.55 437.65 -1369.5 446.5 -1376.1 457.75 -1382.95 469.5 -1382.95 482 -1382.95 501.25 -1377.65 511.65 -1373.45 519.9 -1364.5 524.5 -1361.55 526 -1356.35 528 -1349.75 530.5 -1347.75 531.35 -1337.5 535.85 -1331.55 543.1 -1337.4 535.35 -1345.7 519.6 -1355.05 501.9 -1355.05 496.1 -1355.05 486.75 -1349.75 476.3 -1344.9 466.8 -1336.6 458.25 -1328.65 450.05 -1319.85 445.1 -1310.8 440 -1303.65 440 -1308.7875 430.0349609375 -1300.85 418.9 -1316.0443359375 419.3162109375 -1330.4 423.95 Z"/>

<path fill="url(#Gradient_1)" stroke="none" d="
M -1442.45 -25.25
Q -1445.25 -25.55 -1451.1 -25.55 -1465.25 -25.55 -1487.7 -14.7 -1511.3 -3.35 -1533.1 14.85 -1557.65 35.3 -1572.6 58.7 -1589.75 85.6 -1591.5 112.5
L -1591.5 126.3 -1586.8 126.3
Q -1578.25 122.15 -1563.5 131.85 -1557.4 135.8 -1553.4 140.45 -1549.2 145.25 -1549.2 148.6 -1549.2 149.8 -1550.55 151.2 -1551.45 152.1 -1554.4 154.85 -1556.7642578125 157.2642578125 -1559.05 160.35 -1559.6958984375 160.668359375 -1560.2 160.85 -1562.35 161.6 -1564.8 161.65 -1566.3 161.7 -1570.35 161.55 -1577.35 161.55 -1581.95 159.35 -1584.2 158.25 -1588.95 154.5 -1593.15 151.1 -1597.1 149.65 -1603.1 147.45 -1612.35 147.45 -1649.35 147.45 -1664.15 185.1 -1673.45 208.75 -1673.45 247 -1673.45 254.45 -1672.05 257.9 -1671.25 259.95 -1668.95 261.95 -1666.7 263.95 -1665.75 266.4 -1664.25 270.3 -1664.05 278.45 -1654.35 268.75 -1643 261.1 -1627.35 250.55 -1617.05 250.55 -1614 250.55 -1610.75 251.6 -1607.5 252.6 -1605.3 252.6 -1605.3 256.65 -1615.85 267.5 -1626.45 278.4 -1626.45 278.45 -1626.45 281.4 -1624.1 286.1 -1621.75 290.8 -1621.75 293.75 -1621.75 303.1 -1626.5 310 -1629.2 313.85 -1637 320.6 -1644.5 327.05 -1647.55 331.8 -1652.3 339.35 -1652.3 349.85 -1652.3 370.55 -1642.55 388.5 -1633.9240234375 404.3662109375 -1624.1 406.7
L -1624.1 400.05
Q -1616.6 402.7 -1611.05 398.6 -1607.65 396.05 -1602.2 387.7 -1596.4 378.75 -1592.6 375.4 -1586.05 369.6 -1577.4 369.8
L -1575.05 369.8
Q -1582.85 373.6 -1595.6 396 -1607.95 417.75 -1607.95 425.9 -1607.3 425.9 -1606.6 426.2 -1605.3 426.8 -1605.3 428.25 -1589 391.6 -1573.25 373.95 -1554.85 353.35 -1533.05 353.35 -1528.7 353.35 -1509.5 362.75 -1491.05 372.15 -1490.75 372.15
L -1490.75 374.5
Q -1508.25 378.35 -1515.6 386.1 -1521.3 392.15 -1521.3 401.25 -1521.3 401.65 -1524.8 410.65 -1528.35 419.6 -1528.35 420.05 -1528.35 422.65 -1522.35 427.45 -1513.65 433.75 -1508.35 437.8 -1491.521484375 450.655078125 -1484.55 463.35
L -1483.4 462.75
Q -1483.7 458.8 -1483.7 451.75 -1483.7 425.7 -1472 409.5 -1467.15 402.75 -1461.05 399.1 -1455.35 395.65 -1449.95 395.65 -1445.4271484375 395.65 -1439.85 398.45 -1434.6890625 390.30625 -1426.65 385.45 -1416.25 379.2 -1402.95 379.2 -1396.35 379.2 -1393.65 380.8 -1391.9 381.8 -1391.05 384.4 -1390.1 387.3 -1388.9 388.4 -1386.65 390.35 -1380.9 390.95 -1377.95 391.2 -1369.45 390.65 -1362.35 390.15 -1359.75 390.95 -1348.85 394.3 -1341.65 399.3 -1331.55 406.4 -1331.55 415.35 -1331.55 420.7783203125 -1333.65 425.05 -1332.65546875 424.6974609375 -1331.7 424.35 -1330.8322265625 423.2583984375 -1330 422.1 -1319.55 405.9 -1314.5 398.15 -1305.5 384.35 -1297.6 378.15 -1286.95 369.8 -1273.1 369.8 -1268.85 369.8 -1263.25 371.25 -1258.05 372.65 -1254.3 374.5 -1249.7 345.1 -1233.25 332.1 -1218.85 320.75 -1193.5 320.75 -1192.1 320.75 -1186.55 323.35 -1180.9 326 -1179.4 327.5 -1140.9 281.1 -1118.6 264.35 -1154.3 265.85 -1181.35 273.8 -1214.45 283.45 -1231.1 301.95 -1235.85 294.55 -1237.85 292.8 -1241.5 289.65 -1249.9 287.85 -1252.85 287.2 -1259.2 286.7 -1265.5 286.2 -1268.25 285.55 -1277.8 283.3 -1277.8 273.75 -1277.8 272.55 -1271.85 266.65 -1264.65 259.5 -1256.65 254.95 -1258.15 251.85 -1260.85 249.6 -1262.4 248.3 -1265.45 246.2 -1270.75 242.15 -1270.75 234.1 -1270.75 227.75 -1265.7 220.8 -1260.65 213.7 -1251.7 207.85 -1230.85 194.15 -1202.9 194.15 -1205.4 191.65 -1210.7 189.05 -1218.9 185.05 -1227.55 185.05 -1247.1 185.05 -1260.85 192.35 -1270.55 197.5 -1280 208.4 -1282.55 211.3 -1287.2 216.95 -1291.25 221.75 -1294.3 224.45 -1302.65 231.75 -1313.05 231.75 -1315.8 231.75 -1323.35 227.45 -1330.2 223.6 -1333.9 224.7 -1333.5 241.05 -1344.7 247.45 -1353.75 252.6 -1373.85 252.6 -1385.95 252.6 -1400.3 243 -1413.1 234.4 -1425.25 219.9 -1436.65 206.35 -1443.8 192.1 -1451.1 177.7 -1451.1 168.3 -1451.1 165.842578125 -1450.6 163.05 -1453.45 155.2919921875 -1453.45 145.1 -1453.45 133.75 -1451.1 128.75 -1449.45 125.2 -1444.2 121.45 -1437.15 116.35 -1433.15 112 -1425.5 103.6 -1418.2 89
L -1420.55 89
Q -1429.4 89.75 -1439.8 97.5 -1450.1 105.15 -1458.2 116.8 -1466.75 129.15 -1470 142.05 -1473.049609375 154.4201171875 -1470.6 165.1 -1470.0990234375 165.7509765625 -1469.6 166.25
L -1469.6 168.6
Q -1470.1568359375 166.8873046875 -1470.6 165.1 -1474.061328125 160.46171875 -1475.65 148.9 -1476.65 136.3 -1476.65 135.7 -1477.85 127.55 -1481.45 123.55 -1483.7 121 -1488.55 119 -1493.4 117.05 -1495 115.3 -1497.8 112.2 -1497.8 105.45 -1497.8 84.9 -1478.2 63.6 -1471.4 56.2 -1460 46.3 -1447.35 35.6 -1441.7 30.55 -1427.35 17.65 -1397.5 11.6 -1371.25 6.3 -1355.05 9.4
L -1355.05 7.05
Q -1355.2 7.05 -1382.65 -2.2 -1411.45 -11.45 -1418.2 -11.45 -1427.65 -11.45 -1439.35 -6.45 -1446.8 -3.25 -1460.5 4.7
L -1460.5 2.35 -1457 2.35
Q -1455.5 1.75 -1455.5 -2.05 -1456.4 -9.9 -1454.2 -15.8 -1449.95 -27.55 -1434.65 -20.55
L -1434.65 -23.2
Q -1437.8 -24.75 -1442.45 -25.25
M -1326.95 293
Q -1322.25 287.85 -1310.7 287.85 -1306.8 287.85 -1301.1 289.4 -1293.6 291.4 -1289.55 294.9 -1300.05 295.35 -1309.9 309.25 -1317.0359375 319.3154296875 -1320.4 331.15 -1329.118359375 334.815234375 -1342.95 339.7 -1375.063671875 351.05625 -1384.35 354.35 -1384.9296875 355.0357421875 -1385.6 355.7
L -1387.95 355.7
Q -1387.3796875 355.476953125 -1384.35 354.35 -1380.0208984375 349.7095703125 -1379.1 345.5 -1378.55 343 -1378.55 331.05 -1378.55 322.65 -1381.85 315.35 -1384.55 309.3 -1391.4 300.55 -1395.6 295.15 -1406.8 281.35 -1417.95 267.2 -1427.6 252.6 -1420.4 258.5 -1408.5 265.7 -1392.95 274.8 -1382.95 280.8 -1380.15 282.5 -1376.4 289.3 -1371.95 298.1 -1369.6 302.75 -1360.35 320.75 -1352.7 320.75 -1341.05 320.75 -1336.25 315.6 -1333.4 312.5 -1331.6 304.3 -1329.8 296.05 -1326.95 293 Z"/>

<path fill="url(#Gradient_2)" stroke="none" d="
M -1310.7 287.85
Q -1322.25 287.85 -1326.95 293 -1329.8 296.05 -1331.6 304.3 -1333.4 312.5 -1336.25 315.6 -1341.05 320.75 -1352.7 320.75 -1360.35 320.75 -1369.6 302.75 -1371.95 298.1 -1376.4 289.3 -1380.15 282.5 -1382.95 280.8 -1392.95 274.8 -1408.5 265.7 -1420.4 258.5 -1427.6 252.6 -1417.95 267.2 -1406.8 281.35 -1395.6 295.15 -1391.4 300.55 -1384.55 309.3 -1381.85 315.35 -1378.55 322.65 -1378.55 331.05 -1378.55 343 -1379.1 345.5 -1380.0208984375 349.7095703125 -1384.35 354.35 -1375.063671875 351.05625 -1342.95 339.7 -1329.118359375 334.815234375 -1320.4 331.15 -1317.0359375 319.3154296875 -1309.9 309.25 -1300.05 295.35 -1289.55 294.9 -1293.6 291.4 -1301.1 289.4 -1306.8 287.85 -1310.7 287.85 Z"/>
</g>

<g id="Blaze_Blaze_fire_stream_2_Layer0_0_FILL">
<path fill="#FF9900" stroke="none" d="
M -265.55 524.3
Q -269.25 521.75 -276.6 521.85 -288.75 522 -288.95 521.95 -295.7 521.3 -299 516.8 -301.9955078125 512.7216796875 -302.85 504.95 -309.29453125 511.641015625 -312.15 515.65 -321.95 529.4 -321.95 545.45 -321.95 564.1 -303.95 574.05 -297.1 577.8 -284.6 582.05 -269.4 587 -261.1 589.85 -269.7 581.4 -276.3 574.05 -289.05 559.8 -289.05 553.4 -289.05 548.15 -279.7 537 -270.7 526.15 -265.55 524.3
M -1.55 529.9
Q -3.5 535.6 -3.5 538.4 10.45 535.9 16.5 530.5 22 525.6 22 517.25 22 511.3 14 507.15 10.201953125 505.1640625 5.85 504.15 5.0609375 510.84140625 2.45 518.65 1.1 522.75 -1.55 529.9
M -123.8 588.55
Q -136.55 590.75 -141.55 592.2 -138.15 599.1 -116.7 603.2 -100.6 606.3 -87.8 606.3 -78.55 597.8 -68.65 587.95 -49.53515625 568.9794921875 -45.8 562.15 -49.3623046875 562.991015625 -57.7 565.2 -71.1890625 568.0787109375 -84.45 568.6 -94.53671875 579.699609375 -106.35 584.2 -112.7 586.6 -123.8 588.55
M -827.05 163.65
Q -826.0076171875 161.4826171875 -824.65 159.25
L -826.55 159
Q -826.791015625 161.26953125 -827.05 163.65
M -160.15 463
L -161 461.7
Q -163.66875 465.59375 -164.8 467.65 -163.2255859375 464.9455078125 -160.15 463
M -126.2 102.7
Q -126.1685546875 102.8966796875 -126.15 103.1
L -126.05 103.05
Q -126.105859375 102.8890625 -126.2 102.7
M -275.25 -4.4
Q -276.2166015625 -4.184375 -278.65 -2.95 -281.92578125 -1.205859375 -287.85 2.45 -301.3 10.75 -307.85 18.8
L -307.85 30.55
Q -301.5 28.35 -292.55 26.15 -281.85 23.5 -277.3 23.5 -277.3 24.1 -277 24.7 -276.4 25.85 -274.95 25.85 -274.95 30.75 -284.7 43 -291.4 51.4 -298.45 58.45
L -298.45 60.8
Q -290.05 52.5 -286.05 48.65 -279.15 42.05 -274 38.2 -260.45 28.2 -245.85 28.2 -245.4 28.2 -231.15 31.75 -216.9 35.25 -216.45 35.25 -213.95 35.25 -202.5 32.9 -191.05 30.55 -185.9 30.55 -198.4 21.9 -220.2 3.05 -238.6 -11.45 -250.55 -11.45 -258.55 -11.45 -273.4 -5.15 -274.2833984375 -4.7759765625 -275.25 -4.4
M 5.55 -88.7
Q 5.55 -81.5 2.9 -77.2 0.55 -73.35 -4.8 -70.75 -8.4 -68.95 -17.2 -66.2 -28.35 -62.7 -34.05 -60.5 -28.5 -61.6 -19.7 -59.35 -12.19765625 -56.97421875 -9.2 -56.1 -8.2455078125 -52.061328125 -7.05 -48.85 -6.5267578125 -47.500390625 -6 -46.3 -0.9359375 -50.43359375 4.3 -53.1 9.6 -55.8 12.6 -55.8 31.3 -55.8 47.8 -34.15 56.15 -23.25 61.65 -11.45 65.1 -16.55 67.7 -24.2 71.05 -34.2 71.05 -44.05 71.05 -66.55 57.5 -85.7 44.9 -103.4 21.9 -116.6 0.15 -129.1 -27.9 -135.85 -55.45 -142.45 -84.3 -142.45 -130.1 -142.45 -179.55 -100.9 -195.1 -87.8 -210.05 -71.3 -217.6 -63 -223.5 -55.8
L -223.5 -53.45
Q -213.7 -58.3 -198.65 -68 -179.95 -80 -174.1 -83.35 -144.35 -100.45 -117.2 -100.45 -100.5 -100.45 -92.95 -97.45 -85.9 -94.65 -85.45 -88.7 -59.65 -107.15 -47.1 -113.2 -35.15 -118.95 -23.5 -118.95 -9 -118.95 -1.25 -109.65 5.55 -101.5 5.55 -88.7 Z"/>

<path fill="url(#Gradient_3)" stroke="none" d="
M -979.8 171.75
L -980.5 170.95 -979.8 171.75 -979.8 171.75
M -664.75 280.8
L -663.85 279.65 -663.9 279.65 -664.75 280.8 Z"/>

<path fill="#FFFF99" stroke="none" d="
M -978.5 170.65
Q -979.82421875 170.95 -980.5 170.95
L -979.8 171.75
Q -979.134375 171.2060546875 -978.5 170.65
M -662.4 280.8
Q -663.096484375 280.2552734375 -663.85 279.65
L -664.75 280.8 -662.4 280.8
M -135.7 285.5
L -134.55 286.65 -133.35 285.5 -135.7 285.5
M -170.95 309
Q -168.193359375 308.567578125 -165.6 308.2
L -165.85 306.35
Q -167.458984375 306.65 -168.6 306.65
L -170.95 309
M -501 353.6
L -501.5 352
Q -515.6529296875 356.8392578125 -533.7 362.75 -508.65 355.45 -501 353.6
M -189.45 297.25
L -187.1 297.25
Q -188.2103515625 297.031640625 -189.35 296.8
L -189.45 297.25 Z"/>

<path fill="url(#Gradient_4)" stroke="none" d="
M -559.3 290.2
Q -523.75 295.1 -519.75 295.85 -515.7775390625 296.584375 -512.35 297.45 -534.33046875 285.5517578125 -554.9 255.95 -563.75 243.15 -571.8 227.75 -575.7 220.2 -578.1 215.3 -581 215.3 -591.6 217.65 -602.15 220 -605.1 220 -609.3 220 -657.55 190.8 -705.8 161.55 -710.25 161.55 -713.8 161.55 -716.45 163 -717.15 163.45 -720.75 166.25 -726.8 170.95 -737 170.95 -737 174.65 -734.8 185.95 -732.6 197.25 -732.6 200 -732.6 213.95 -746.45 226.45 -758.4 237.2 -779.45 245.9 -797.7 253.4 -818.85 257.9 -838.2 262 -851.85 262 -864.3 262 -876.3 256.3 -884.9 252.2 -896.15 243.5 -912.05 231.2 -913.75 230 -919.4626953125 226.171875 -924.6 224.2 -933.7625 223.4052734375 -939.1 221.35 -950.45 217.05 -950.25 205.9 -951 205.9 -954.65 204.75 -958.35 203.55 -961.7 203.55 -964.65 203.55 -978.75 205.9 -992.85 208.25 -995.8 208.25 -1002.55 208.25 -1006.2 207.95 -1012.65 207.45 -1015.75 205.9 -1007.7 196.55 -990.45 181.05 -984.8857421875 176.0634765625 -979.8 171.75
L -980.5 170.95
Q -983.9 170.95 -987.15 169.65 -990.35 168.3 -991.1 168.3
L -991.1 156.85
Q -989.5025390625 153.655078125 -982.6 146.75 -986.8716796875 147.45 -989.9 147.45 -994.1 147.45 -999.75 146 -1004.95 144.6 -1008.7 142.75 -1012.85 147.8 -1019.2 160.95 -1027.3 177.85 -1030.9 183.95 -1047.85 212.6 -1074.2 217.65 -1108.25 224.15 -1133.05 226 -1150.8 227.3 -1182.05 227.05 -1151.3 235.75 -1115.15 241.55 -1112.25 242 -1050.7 250.55 -1050.7 251.1 -1049.5 251.9 -1048.35 252.7 -1048.35 256.15 -1048.35 259.05 -1050.7 260.85 -1053.05 262.6 -1053.05 265.55 -1053.05 268.5 -1050.7 269.65 -1048.35 270.85 -1048.35 273.75 -1048.35 279.95 -1062.3 290.85 -1072.4 298.7 -1078.9 301.95
L -1078.9 304.3 -1069.5 304.3
Q -1069.7 307.15 -1073.95 311.35 -1076.35 313.7 -1081.25 318.4 -1080.65 318.4 -1080.05 318.7 -1078.9 319.3 -1078.9 320.75 -1076.15 319.4 -1050.1 309.25 -1030.95 301.75 -1027.5 297.25 -1026.9 296.95 -1026.3 297.4 -1025.15 298.3 -1025.15 301.95 -1025.15 318.45 -1071.9 344.6 -1090 354.7 -1111.3 364.05 -1130.5 372.45 -1144.45 376.85
L -1144.45 379.2 -1128 379.2
Q -1117.35 375.45 -1020.1 336.35 -928.8 299.6 -926.75 299.6 -923.7 299.6 -921.6 300.8 -919.55 301.95 -917.35 301.95
L -917.35 320.75
Q -919.7 323.1 -920.6 324.25 -922.05 326.15 -922.05 327.5
L -922.05 329.85
Q -919.85 329.85 -911.35 327.65 -902.8 325.45 -899.75 325.45 -888.8 325.45 -882.45 330.55 -880.25 332.35 -874.9 337.75 -868.45 344.25 -863.6 348.65 -859.6 340.75 -819 307 -778.9 273.75 -774.6 273.75 -770.35 273.75 -764.75 275.2 -759.55 276.6 -755.8 278.45 -757.8 280.45 -759.05 283.75 -760.5 287.65 -760.5 292.55 -755.65 290.75 -712.85 285.7 -671.45 280.8 -664.75 280.8
L -663.9 279.65
Q -667.3365234375 276.9953125 -672 273.6 -677.65 269.5 -678.55 269.05 -671 265.95 -642.5 260.45 -613.85 254.95 -605.1 254.95 -592.45 254.95 -587.6 259.65 -584.7 262.5 -583.05 270.5 -581.35 278.7 -578.1 282.35 -572.65 288.35 -559.3 290.2 Z"/>

<path fill="url(#Gradient_5)" stroke="none" d="
M -94.85 121.6
Q -93.2 131.3 -104.25 142.75 -113.0314453125 138.5310546875 -126.05 103.05
L -126.15 103.1
Q -125.1 115.1 -125 130.1 -124.95 138.1 -125.1 148.3 -125.1 179.3 -127.5 191.8 -132.45 217.65 -148.6 217.65 -154.6 217.65 -155.75 217.3 -159.85 216.1 -162.7 210.6 -165.15 228.3 -179.95 240.25 -182.1732421875 242.04609375 -184.4 243.5 -185.759765625 242.6369140625 -187.3 241.85 -197.55 236.55 -218.05 234.95 -222.7 234.6 -235.3 233.95 -246 233.45 -251.65 232.85 -269.15 230.95 -275.2 224.7 -280.2 219.6 -283 210.9 -285.5 200.9 -286.8 196.3 -289.05 188.35 -292.95 184.75 -298.05 180.05 -307.85 180.05 -315.55 180.05 -330.95 192.85 -334.15 195.5 -346.1 206 -356.6 215.15 -363.95 221.05 -387.05 239.5 -408.35 249.2 -436.5 262 -465.85 262 -484.9 262 -495.25 260.9 -509.45 259.4 -518.05 255.15 -538.05 245.4 -537.25 215.3 -536.95 203.15 -541.1 196.75 -544.45 191.6 -551.45 189.55 -554.7 188.6 -564.65 187.6 -572.95 186.7 -576.9 184.75 -571.15 177.55 -542.7 168.55 -514.2 160.55 -511.4 159.2 -520.05 159.2 -546.7 158.05 -573.35 156.85 -601.6 156.85 -623.55 156.85 -633.5 153.35 -639.95 151.05 -640.55 150.9 -644.95 149.8 -651.8 149.8 -651.8 149.05 -652.95 148.2 -654.15 147.3 -654.15 143.9 -654.15 139.15 -645.2 122.55 -635.95 106.35 -635.35 105.15 -638.9 101.6 -647.5 97.2 -657.35 92.1 -670.15 88 -703.55 77.25 -742 77.25 -792.2 77.25 -811.6 106.8 -819.3 118.5 -823.1 136.1 -825.0099609375 144.8474609375 -826.55 159
L -824.65 159.25
Q -820.1 151.8 -812.85 145.55 -796 131 -776.05 131 -765.85 131 -761.25 144.75 -759.95 148.65 -758.75 155.05 -757.7 160.7 -757.25 161.55 -779.65 172.25 -792.15 182.25 -799.55 188.15 -805.4 195.95 -809.95 202.05 -813.3 203.55 -818.5 205.9 -832.15 205.9 -841.7 205.9 -864.95 196.1 -881.05 189.3 -882.05 188.9 -890.85 185.4 -895.35 184.75 -901.1 183.85 -913.5 182.85 -923.5 182.05 -928.25 180.85 -935.3 179.1 -940 175 -945.3 170.35 -949.1 161.55 -949.35 161.55 -963.25 166.25 -974.2353515625 169.835546875 -978.5 170.65 -979.134375 171.2060546875 -979.8 171.75
L -979.8 171.75
Q -984.8857421875 176.0634765625 -990.45 181.05 -1007.7 196.55 -1015.75 205.9 -1012.65 207.45 -1006.2 207.95 -1002.55 208.25 -995.8 208.25 -992.85 208.25 -978.75 205.9 -964.65 203.55 -961.7 203.55 -958.35 203.55 -954.65 204.75 -951 205.9 -950.25 205.9 -950.45 217.05 -939.1 221.35 -933.7625 223.4052734375 -924.6 224.2 -919.4626953125 226.171875 -913.75 230 -912.05 231.2 -896.15 243.5 -884.9 252.2 -876.3 256.3 -864.3 262 -851.85 262 -838.2 262 -818.85 257.9 -797.7 253.4 -779.45 245.9 -758.4 237.2 -746.45 226.45 -732.6 213.95 -732.6 200 -732.6 197.25 -734.8 185.95 -737 174.65 -737 170.95 -726.8 170.95 -720.75 166.25 -717.15 163.45 -716.45 163 -713.8 161.55 -710.25 161.55 -705.8 161.55 -657.55 190.8 -609.3 220 -605.1 220 -602.15 220 -591.6 217.65 -581 215.3 -578.1 215.3 -575.7 220.2 -571.8 227.75 -563.75 243.15 -554.9 255.95 -534.33046875 285.5517578125 -512.35 297.45 -502.6123046875 299.92734375 -497.25 303.5 -495.4984375 303.950390625 -493.75 304.3
L -496.1 304.3
Q -496.6421875 303.8904296875 -497.25 303.5 -504.8806640625 301.498828125 -512.35 297.45 -515.7775390625 296.584375 -519.75 295.85 -523.75 295.1 -559.3 290.2 -572.65 288.35 -578.1 282.35 -581.35 278.7 -583.05 270.5 -584.7 262.5 -587.6 259.65 -592.45 254.95 -605.1 254.95 -613.85 254.95 -642.5 260.45 -671 265.95 -678.55 269.05 -677.65 269.5 -672 273.6 -667.3365234375 276.9953125 -663.9 279.65
L -663.85 279.65
Q -663.096484375 280.2552734375 -662.4 280.8
L -664.75 280.8
Q -671.45 280.8 -712.85 285.7 -755.65 290.75 -760.5 292.55 -760.5 287.65 -759.05 283.75 -757.8 280.45 -755.8 278.45 -759.55 276.6 -764.75 275.2 -770.35 273.75 -774.6 273.75 -778.9 273.75 -819 307 -859.6 340.75 -863.6 348.65 -868.45 344.25 -874.9 337.75 -880.25 332.35 -882.45 330.55 -888.8 325.45 -899.75 325.45 -902.8 325.45 -911.35 327.65 -919.85 329.85 -922.05 329.85
L -922.05 327.5
Q -922.05 326.15 -920.6 324.25 -919.7 323.1 -917.35 320.75
L -917.35 301.95
Q -919.55 301.95 -921.6 300.8 -923.7 299.6 -926.75 299.6 -928.8 299.6 -1020.1 336.35 -1117.35 375.45 -1128 379.2
L -1144.45 379.2 -1144.45 376.85
Q -1130.5 372.45 -1111.3 364.05 -1090 354.7 -1071.9 344.6 -1025.15 318.45 -1025.15 301.95 -1025.15 298.3 -1026.3 297.4 -1026.9 296.95 -1027.5 297.25 -1030.95 301.75 -1050.1 309.25 -1076.15 319.4 -1078.9 320.75 -1078.9 319.3 -1080.05 318.7 -1080.65 318.4 -1081.25 318.4 -1076.35 313.7 -1073.95 311.35 -1069.7 307.15 -1069.5 304.3
L -1078.9 304.3 -1078.9 301.95
Q -1072.4 298.7 -1062.3 290.85 -1048.35 279.95 -1048.35 273.75 -1048.35 270.85 -1050.7 269.65 -1053.05 268.5 -1053.05 265.55 -1053.05 262.6 -1050.7 260.85 -1048.35 259.05 -1048.35 256.15 -1048.35 252.7 -1049.5 251.9 -1050.7 251.1 -1050.7 250.55 -1112.25 242 -1115.15 241.55 -1151.3 235.75 -1182.05 227.05 -1150.8 227.3 -1133.05 226 -1108.25 224.15 -1074.2 217.65 -1047.85 212.6 -1030.9 183.95 -1027.3 177.85 -1019.2 160.95 -1012.85 147.8 -1008.7 142.75 -1004.95 144.6 -999.75 146 -994.1 147.45 -989.9 147.45 -986.8716796875 147.45 -982.6 146.75
L -982.55 146.75
Q -975.25 139.55 -966.3 132.6 -944.0515625 115.3275390625 -931.45 114.55 -935.6248046875 114.35 -951.1 110.3 -970.7 105.15 -979.65 105.15 -1007.65 105.15 -1025.9 116.1 -1037.55 123.15 -1051.4 140.25 -1059.25 149.95 -1062.2 153.15 -1068.5 160.05 -1074.7 164.4 -1090.4 175.35 -1114.15 175.35 -1122.85 175.35 -1128.15 171.1 -1133.25 167 -1133.7 166.7 -1137.8 163.8 -1143.25 161.55 -1143.25 159.55 -1136.2 144.3 -1129.15 129 -1129.15 123.95 -1129.15 120.85 -1130.3 117.65 -1131.5 114.4 -1131.5 112.2
L -1145.6 112.2
Q -1146.4 113 -1154.2 115.95 -1162.95 119.25 -1166.75 119.25 -1166.75 114.95 -1152.05 98.65 -1144.4 90.2 -1133.85 79.6
L -1145.6 79.6
Q -1145.6 79.6458984375 -1145.6 79.7 -1144.5640625 79.8697265625 -1144.1 80.4 -1143.55 81.1 -1144 81.8 -1144.4 82.5 -1144.95 82.05 -1145.584765625 81.56171875 -1145.6 79.7 -1146.0666015625 79.611328125 -1146.65 79.6
L -1145.6 79.6
Q -1145.6 74.5 -1208.65 94.05 -1233.5 101.7 -1254 109.05 -1275.4 116.7 -1278.95 119.25 -1285.9 124.3 -1289.95 136.8 -1291.05 140.15 -1295.5 160.2 -1298.7 174.4 -1302.8 180.65 -1308.5 189.45 -1318.9 189.45 -1322.4 189.45 -1329.35 185.95 -1336.35 182.4 -1343.6 182.4 -1356.5 182.4 -1363.1 183.7 -1370.25 185.15 -1377.6 189.45 -1382.6 192.35 -1396.4 202.25 -1414.55 215.2 -1428.8 224.7 -1431.5 226.55 -1442.2 233.25 -1453.1 240.5 -1461.05 248 -1485.2 270.65 -1485.2 297.25 -1485.2 309.85 -1476.4 319.7 -1470.75 325.95 -1457 334.85 -1442.45 344.2 -1437.6 349.05 -1428.8 357.85 -1428.8 368.65 -1428.8 380.55 -1393 385.55 -1374.73515625 388.0740234375 -1355.05 388.25 -1354.576171875 389.8005859375 -1354.15 391.4 -1353.05 395.55 -1351.15 403.8 -1349.3 411 -1347.4 415.5 -1342.15 427.9 -1330.65 432.95 -1307.5 443.1 -1291.7 453.2 -1291.3 453.45 -1260.45 474.95 -1260.45 473.4 -1265 459.05 -1269.55 444.65 -1269.55 440 -1269.55 429.45 -1260.5 423.6 -1253.25 418.85 -1244 418.85 -1226.55 418.85 -1216.65 427.2 -1212.65 430.6 -1208.5 436.35 -1207.45 437.85 -1200.95 447.75 -1190.35 464 -1178.65 473.75 -1160.7 488.75 -1131.5 498.45
L -1119.75 498.45
Q -1119.75 488.3 -1110.1 477.45 -1099.8 465.85 -1088.3 465.85 -1085.4 465.85 -1072 468.05 -1058.65 470.25 -1055.7 470.25 -1040.55 470.25 -1034.2 465.8 -1030.5 463.15 -1029.1 462.55 -1025.55 461.05 -1019.3 460.85 -1025.5 455.5 -1027.2 451 -1028.7 446.9 -1028.7 436.5 -1028.7 425.55 -1021.75 411.95 -1014.7 398.3 -1002.9 386.35 -990.2 373.55 -975.3 366.2 -958.7 358.05 -942.05 358.05 -927.05 358.05 -918.85 363.8 -908.9 370.8 -914.15 383.9
L -914.15 397.7
Q -912.95 399.45 -912.55 399.75 -912.1 400.05 -908.25 400.05 -903.9 400.05 -900.05 398.65 -898.65 398.1 -893.4 395.5 -884.2 390.95 -873 390.95 -859.7 390.95 -852.5 403.15 -850.2 407 -848.35 412.5 -847.4 415.35 -846.25 418.85 -795.8 396 -780.45 395.35 -784 368.8 -759.9 348.15 -740.6 331.65 -704.6 319.7 -678.8 311.1 -647.2 305.7 -620.6 301.95 -620.4 301.95 -606.4 301.95 -599.45 303.4 -591.95 304.95 -588.6 308.9 -585.5 312.65 -584.55 320.3 -583.95 325.4 -583.95 339.25 -583.95 339.8 -589.8 363.6 -595.7 387.4 -595.7 387.45 -595.7 401.5 -581.65 408.6 -570.8 414.15 -555.75 414.15 -544 414.15 -535.85 422.85 -531.75 427.65 -529.8 429.9 -526.3 433.75 -523.15 435.3 -520.2 420 -506.75 411.65 -494.8 404.2 -473.15 401.6 -455.6 399.45 -427.05 400.15 -423.4 400.25 -373.35 402.4
L -352.2 402.4
Q -352.2 398.75 -354.55 390.35 -356.9 382 -356.9 379.2 -356.9 372.2 -353.05 362.6 -349.2 352.85 -342.8 344.05 -327.3 322.8 -310.2 322.8 -307.85 322.8 -303.15 327.5 -298.45 332.2 -296.1 332.2 -289.7 332.2 -284.8 329.65 -279.35 326.05 -276.1 324 -263 315.75 -237.6 315.75 -213.2 315.75 -197.2 322.2 -182.3728515625 328.2109375 -173.7 340.05 -176.7251953125 348.064453125 -184.05 356.35 -193.95546875 367.6041015625 -207.4 375.65 -202.1779296875 373.8755859375 -195.25 370 -186.55 365.1 -179.15 365.1 -167.05 365.1 -158.05 372.25 -148.6 379.75 -148.6 390.65 -148.6 404.2 -167.45 412.8 -174.7 416.15 -182.95 417.8 -190.45 419.35 -195.3 418.85
L -195.3 421.2
Q -177.6 420.8 -167.45 421.85 -148.6 423.85 -148.6 434.15 -148.6 442.35 -155.5 453.5 -156.9 455.7 -161 461.7
L -160.15 463
Q -155.9244140625 460.3466796875 -148.8 459.15 -133.6 457.8 -127.45 456.45 -124.45 455.9 -120.6 452.75 -119.05 451.5 -113.6 446.4 -104.25 437.65 -98.4 437.65 -93.5068359375 437.65 -87.55 441.55 -90.3734375 438.602734375 -91.55 435.3 -92.6 432.35 -92.65 428.25 -92.5 423.55 -92.5 421.2 -92.5 415.8 -82.6 405.65 -73.7 396.5 -59.55 386.25 -45.85 376.3 -33.4 369.75 -20.15 362.75 -14.1 362.75 -3.6 362.75 12.25 369.65 18.5857421875 372.449609375 30.65 378.95 25.104296875 350.553515625 -13.35 325.3 -21.5 320 -40.45 309.45 -52.55 302.75 -52.55 300.8 -52.55 287.8 -30.05 281.35 -25.95 280.15 -12.75 277.3 -3.55 275.35 -1.15 273.75
L -1.15 269.05
Q -6.45 269.05 -9.65 268.75 -15.3 268.25 -19.95 266.7 -19.95 264.05 -15.25 255.25 -36.7 236.9 -55 226.8 -60.25 223.9 -67.05 220.7 -73.35 217.8 -75.05 216.8 -81 213.35 -82.2 205.55 -83.1 199.9 -83.1 173.3 -83.1 160.05 -87 145.8 -87.4 144.35 -94.85 121.6
M -217.65 291.1
Q -221.1 290.1 -238.85 284.15 -250.7 280.15 -259.65 278.45 -271.95 276.1 -286.7 276.1 -296 276.1 -324.1 286.05 -351.9 295.9 -360.4 301.95 -382.35 317.15 -401.25 337.1 -404.7 340.8 -411.85 348.85 -415.85 353.35 -416.5 353.35 -419.45 353.35 -441.2 351 -462.95 348.65 -465.85 348.65 -480.3 348.65 -501 353.6 -508.65 355.45 -533.7 362.75 -515.6529296875 356.8392578125 -501.5 352 -477.4587890625 343.85390625 -464.65 338.85 -439.25 328.95 -427.25 320.15 -415.5 311.5 -409.65 298.7 -405.55 289.75 -400.05 266.7
L -359.1 266.7
Q -355.1078125 265.458203125 -349.8 264.7 -349.3046875 264.66015625 -348.85 264.6 -332.9552734375 263.31015625 -329.85 262 -322.3 259.05 -306.2 248.95 -293.8 241.15 -287.85 241.15 -286.65 241.15 -277.85 248.4 -265.15 258.8 -256.3 265.15 -221.8298828125 289.8060546875 -189.35 296.8 -188.2103515625 297.031640625 -187.1 297.25
L -189.45 297.25
Q -204.1 295.05 -217.65 291.1
M -165.6 308.2
Q -168.193359375 308.567578125 -170.95 309
L -168.6 306.65
Q -167.458984375 306.65 -165.85 306.35 -160.940234375 305.5841796875 -151.65 302.4 -135.9 297 -131 290.2
L -134.55 286.65 -135.7 285.5 -133.35 285.5
Q -127.1 285.5 -123.4 285.05 -119.6291015625 284.565234375 -114.05 283.35 -104.2724609375 287.5373046875 -98.8 290 -75.8 300.35 -67.85 309 -79.25 320.4 -86.7 332.3 -94.45 344.75 -100.45 351 -105.1 346.35 -109.4 335.8 -114.25 323.95 -117.4 319.75 -123.55 311.6 -134.55 308.8 -146.384375 305.8083984375 -165.6 308.2 Z"/>

<path fill="url(#Gradient_6)" stroke="none" d="
M -165.85 306.35
L -165.6 308.2
Q -146.384375 305.8083984375 -134.55 308.8 -123.55 311.6 -117.4 319.75 -114.25 323.95 -109.4 335.8 -105.1 346.35 -100.45 351 -94.45 344.75 -86.7 332.3 -79.25 320.4 -67.85 309 -75.8 300.35 -98.8 290 -104.2724609375 287.5373046875 -114.05 283.35 -119.6291015625 284.565234375 -123.4 285.05 -127.1 285.5 -133.35 285.5
L -134.55 286.65 -131 290.2
Q -135.9 297 -151.65 302.4 -160.940234375 305.5841796875 -165.85 306.35 Z"/>

<path fill="url(#Gradient_7)" stroke="none" d="
M -238.85 284.15
Q -221.1 290.1 -217.65 291.1 -204.1 295.05 -189.45 297.25
L -189.35 296.8
Q -221.8298828125 289.8060546875 -256.3 265.15 -265.15 258.8 -277.85 248.4 -286.65 241.15 -287.85 241.15 -293.8 241.15 -306.2 248.95 -322.3 259.05 -329.85 262 -332.9552734375 263.31015625 -348.85 264.6
L -359.1 266.7 -400.05 266.7
Q -405.55 289.75 -409.65 298.7 -415.5 311.5 -427.25 320.15 -439.25 328.95 -464.65 338.85 -477.4587890625 343.85390625 -501.5 352
L -501 353.6
Q -480.3 348.65 -465.85 348.65 -462.95 348.65 -441.2 351 -419.45 353.35 -416.5 353.35 -415.85 353.35 -411.85 348.85 -404.7 340.8 -401.25 337.1 -382.35 317.15 -360.4 301.95 -351.9 295.9 -324.1 286.05 -296 276.1 -286.7 276.1 -271.95 276.1 -259.65 278.45 -250.7 280.15 -238.85 284.15 Z"/>
</g>

<g id="Blaze_Blaze_fire_stream_0_Layer0_0_FILL">
<path fill="#FFFF99" stroke="none" d="
M -146.25 493.8
L -147.3 493
Q -148.589453125 494.6599609375 -149.8 496.1
L -149.8 498.45
Q -148.3017578125 496.2275390625 -146.25 493.8
M -198.85 229.4
Q -198.1228515625 229.599609375 -197.25 230.2
L -196.5 229.4 -198.85 229.4 Z"/>

<path fill="url(#Gradient_8)" stroke="none" d="
M 14.95 240.85
Q 10.4 242.6 5.6 244.4 -4 247.9 -7.05 247.9 -13.8 247.9 -21.95 238.4 -29.0376953125 230.1857421875 -35.35 217.1 -35.5376953125 214.8357421875 -35.7 212.45 -36.2599609375 204.24921875 -36.4 173.4 -40.1275390625 164.3279296875 -42.9 154.6 -46.65 140.05 -48.2 134.1 -50.9 124 -53.75 119.25 -55.65 123.1 -60.8 129.6 -65.15 135.9 -65.5 142.75
L -67.85 142.75
Q -72.55 121.65 -74.9 110.05 -79.25 89.05 -79.6 74.9 -82.2 82.85 -87 120.25 -91.35 153.9 -91.35 156.85 -91.35 160.3 -87.8 167.35 -84.3 174.4 -84.3 180.05 -84.3 185.15 -86.65 189.5 -89.15 194.15 -92.5 194.15 -96.45 194.15 -126.05 162 -145.0443359375 141.4029296875 -153.55 131.2 -148.7025390625 137.698046875 -143.15 149.6 -133.35 170.6 -133.35 180.05 -133.35 186.3 -136.85 188.35 -138.7 189.4 -139.3 190.3 -140.4 191.9 -140.4 195.3 -140.4 200.7 -138.2 204.1 -137.25 205.55 -133.35 209.1 -130 212.2 -128.5 215.45 -126.3 220.3 -126.3 228.2 -126.3 237.4 -135.75 241.15 -141.75 243.5 -150.95 243.5 -160.5 243.5 -174.5 238.75 -185.45 235.05 -196.5 229.4
L -197.25 230.2
Q -195.0740234375 231.8107421875 -192 236.1 -189.75 239.25 -187.1 243.5 -187.1 248.2 -194.15 248.2 -204.6666015625 248.2 -217.65 245.15 -207.8564453125 249.3380859375 -201.55 254.15 -192.65 260.95 -188.65 270.5 -184.75 279.8 -184.75 293.75 -184.75 303.05 -217.85 312.65 -229.6 316.05 -242.4 318.55 -253.6 320.75 -257.3 320.75 -247.5 325.65 -237.75 327.8 -233.3 328.75 -222.3 330 -213.7 330.95 -208.6 332.75 -201.25 335.4 -194.15 341.6 -203.2 347.65 -221.15 360.85 -238.65 373.7 -250.55 381.55 -226.3 372.65 -171.3 354.3 -126 339.15 -103.1 329.85
L -84.3 329.85 -84.3 346.3
Q -84.75 347.2 -92.6 365.05 -99.4 380.5 -100.45 381.55 -98.85 383.15 -97.05 383.6 -95.95 383.9 -93.7 383.9
L -93.7 398
Q -109.45 430.3 -122.85 454.2 -137.3681640625 480.1822265625 -147.3 493
L -146.25 493.8
Q -140.104296875 486.591015625 -129 477.7 -111.3 463.5 -100.75 463.5 -92.405859375 463.5 -88.95 472.5 -89 469.788671875 -89 466.75 -89 400.95 -66.85 369.35 -52.522265625 348.8494140625 -29.3 343.4 -15.5482421875 334.0138671875 3.2 327.5 3.2 325.2 -0.15 315.75 -3.5 306.25 -3.5 305.5 -3.5 296.05 1.65 281.05 6.95 265.6 14.95 252.6
L 14.95 240.85 Z"/>

<path fill="url(#Gradient_9)" stroke="none" d="
M -146.25 -20.85
Q -146.25 -17.3 -135.8 -1 -125.4 15.3 -125.4 18.8 -125.4 23.25 -136.5 38.2 -147.7 53.25 -153.3 56.1
L -153.3 58.45
Q -145.85 58.45 -136.9 54.95 -129.35 51.4 -128.95 51.4 -113.4 51.4 -104.35 67.95 -97.2 81.05 -97.2 95.75 -97.2 111.3 -101.95 116.95 -105.95 121.6 -116 121.6 -120.6 121.6 -126.4 117.45 -131.85 113.6 -136.55 107.45 -141.35 101.25 -143.45 95.2 -145.7 88.6 -143.9 84.3 -143.3 83.7 -143.45 83.15 -143.75 81.95 -147.45 81.95 -151.75 81.95 -155.95 84.35 -158.35 85.75 -162.7 89
L -176.8 89
Q -176.05 72.95 -187.55 69.3 -191.95 67.85 -199.7 67.7 -204.2 67.65 -214.1 67.85 -219.25 67.85 -228.5 67.65 -236.1 67.8 -241.3 69.5 -254.6 73.8 -265.8 93.4 -259.5 98 -251.8 99.85 -249.25 100.45 -239 101.75 -231.8 102.7 -227.9 104.8 -222.4 107.75 -218.8 114.55 -216.6 118.6 -211.6 125.4 -204.8 134.65 -203.15 137 -193.25 151.75 -193.25 163.9 -193.25 171.5 -197.9 176.8 -199.92421875 179.103515625 -204.75 183.2 -201.9134765625 182.4 -198.85 182.4 -197 182.4 -191.75 189.5 -186.2 197 -186.2 201.2 -191.5 202.95 -199.4 204.45 -207.4 205.9 -211.75 205.9 -217.35 205.9 -233.5 202.4 -249.65 198.85 -265.8 198.85 -288.4 198.85 -309.5 209.85 -329.4 220.2 -345.15 238.8 -360.6 257 -369.25 279.65 -378.05 302.85 -378.05 326.35 -378.05 377 -345.15 395.35 -332.35 402.5 -313.7 405.2 -300.75 407.1 -280.8 407.1 -276.15 407.1 -268.15 405.65 -259.75 404.1 -256.4 402.4 -255.2 407.85 -256.85 420.1 -257.08515625 430.1146484375 -250.25 434.7 -250.68125 431.457421875 -248.95 427.35 -246.65 421.7 -241 416.05 -235.35 410.45 -228.35 406.75 -222.1890625 403.5248046875 -216.5 402.65 -216.45 402.5052734375 -216.45 402.4
L -214.1 402.4
Q -215.2765625 402.4779296875 -216.5 402.65 -216.6115234375 403.599609375 -217.6 406.35 -218.8 409.6 -218.8 413 -218.8 425.3 -196.65 430.15 -183.85 432.95 -165.05 432.95 -175.6 450.3 -190.85 465.75 -202.65 477.7 -221.65 492.7 -232.65 501.35 -256.35 519.6 -276.95546875 535.997265625 -292.7 551.2 -286.296484375 549.018359375 -274.5 543.35 -254.8 533.55 -244.1 528.3 -202.65 507.85 -189.75 507.85 -181.15 507.85 -177.2 509.1 -172.75 510.5 -171.1 514.3 -169.55 517.95 -169.95 525.6 -170.25 531.3 -172.1 545.2 -167.5 543.8 -158.3 540.3 -147.3 536.1 -142.8 534.55 -123.4 527.95 -111.3 529
L -111.3 592.2
Q -109.75 592.2 -109.25 593.65 -108.95 594.55 -108.95 596.9
L -106.6 596.9
Q -84.85 542.05 -42.7 521.55 -25.95 513.4 -5.15 510.2 4.9974609375 508.64140625 17.6 508.1 -22.301953125 487.4673828125 -41.05 468.9 -66.65 443.5 -66.65 410.65 -66.65 372.25 -34.55 347.25 -32.0271484375 345.2796875 -29.3 343.4 -52.522265625 348.8494140625 -66.85 369.35 -89 400.95 -89 466.75 -89 469.788671875 -88.95 472.5 -88.383203125 473.9947265625 -87.95 475.7 -86.65 480.9 -86.65 491.4
L -86.65 493.75
Q -88.6419921875 487.773828125 -88.95 472.5 -92.405859375 463.5 -100.75 463.5 -111.3 463.5 -129 477.7 -140.104296875 486.591015625 -146.25 493.8 -148.3017578125 496.2275390625 -149.8 498.45
L -149.8 496.1
Q -148.589453125 494.6599609375 -147.3 493 -137.3681640625 480.1822265625 -122.85 454.2 -109.45 430.3 -93.7 398
L -93.7 383.9
Q -95.95 383.9 -97.05 383.6 -98.85 383.15 -100.45 381.55 -99.4 380.5 -92.6 365.05 -84.75 347.2 -84.3 346.3
L -84.3 329.85 -103.1 329.85
Q -126 339.15 -171.3 354.3 -226.3 372.65 -250.55 381.55 -238.65 373.7 -221.15 360.85 -203.2 347.65 -194.15 341.6 -201.25 335.4 -208.6 332.75 -213.7 330.95 -222.3 330 -233.3 328.75 -237.75 327.8 -247.5 325.65 -257.3 320.75 -253.6 320.75 -242.4 318.55 -229.6 316.05 -217.85 312.65 -184.75 303.05 -184.75 293.75 -184.75 279.8 -188.65 270.5 -192.65 260.95 -201.55 254.15 -207.8564453125 249.3380859375 -217.65 245.15 -221.819921875 244.1521484375 -226.25 242.85 -235.6017578125 240.096875 -254.15 233.65 -257.9091796875 232.7240234375 -262 231.75
L -259.65 231.75
Q -256.7896484375 232.7517578125 -254.15 233.65 -236.5091796875 238.108984375 -225.4 242.1 -221.2818359375 243.5765625 -217.65 245.15 -204.6666015625 248.2 -194.15 248.2 -187.1 248.2 -187.1 243.5 -189.75 239.25 -192 236.1 -195.0740234375 231.8107421875 -197.25 230.2 -198.1228515625 229.599609375 -198.85 229.4
L -196.5 229.4
Q -185.45 235.05 -174.5 238.75 -160.5 243.5 -150.95 243.5 -141.75 243.5 -135.75 241.15 -126.3 237.4 -126.3 228.2 -126.3 220.3 -128.5 215.45 -130 212.2 -133.35 209.1 -137.25 205.55 -138.2 204.1 -140.4 200.7 -140.4 195.3 -140.4 191.9 -139.3 190.3 -138.7 189.4 -136.85 188.35 -133.35 186.3 -133.35 180.05 -133.35 170.6 -143.15 149.6 -148.7025390625 137.698046875 -153.55 131.2 -145.0443359375 141.4029296875 -126.05 162 -96.45 194.15 -92.5 194.15 -89.15 194.15 -86.65 189.5 -84.3 185.15 -84.3 180.05 -84.3 174.4 -87.8 167.35 -91.35 160.3 -91.35 156.85 -91.35 153.9 -87 120.25 -82.2 82.85 -79.6 74.9 -79.25 89.05 -74.9 110.05 -72.55 121.65 -67.85 142.75
L -65.5 142.75
Q -65.15 135.9 -60.8 129.6 -55.65 123.1 -53.75 119.25 -50.9 124 -48.2 134.1 -46.65 140.05 -42.9 154.6 -40.1275390625 164.3279296875 -36.4 173.4 -36.4 165.6763671875 -36.4 156.55 -36.4 141.55 -32.85 116.15 -30.831640625 101.5021484375 -30 90 -32.137109375 92.58984375 -35.65 96.9 -40.4 102.8 -42.3 102.8 -45 102.8 -49.2 96.9 -53.25 91.15 -57.2 82 -66.65 60.1 -66.65 42 -66.65 24.05 -58.45 0.65 -51 -20.65 -38.6 -41.5 -26.6 -61.7 -14.15 -74.6 -5.3771484375 -83.641796875 1.55 -86.9 -7.5353515625 -85.458203125 -24.85 -83.6 -58.3 -79.95 -77.45 -75.8 -146.25 -60.85 -146.25 -20.85
M -159.2 123.95
Q -158.0802734375 125.6083984375 -155.95 128.25 -158.891796875 125.03671875 -161.55 123.95
L -159.2 123.95 Z"/>
</g>

<g id="Duplicate_Items_Folder_Symbol_17_3_Layer0_0_FILL">
<path fill="url(#Gradient_10)" stroke="none" d="
M 214.15 127.25
L 213.85 126.05
Q 208.1357421875 127.396875 200.05 131.05 194.35 133.55 186.45 133.55 174.45 133.55 163.3 128.55 151.45 123.15 151.6 116.5 151.7 112 166.1 101.9 170.247265625 99.0005859375 173.05 93.85 167.8998046875 95.503515625 160.7 97.55 146.1 101.7 139.05 104.5 117 113.25 110.8 129.1 107.45 131.75 103.1 135.2 95.3 141.55 91.25 144.35 79.65 152.25 68.35 152.25 55.05 152.25 49.25 147.35 43.95 142.85 44.15 133.45 44.4 125.05 54.95 112.5 60.5 106.15 62.9 103.4 66.9 98.65 67.95 95.95
L 67.95 95.7
Q 56.8134765625 94.0755859375 44.45 98.7 32.65 103.15 21.8 112.3 11.65 121 5.25 131.3 -1.2 141.8 -1.4 150.35 -1.75 163.25 10.45 171.4 11.45 172.05 20.05 177 25.25 179.95 26.9 182.3
L 26.85 183.55
Q 23.25 181.8 14.25 180.15 6.25 178.65 3.05 178.65
L -0.8 178.65
Q 1.5 180.9 8.65 186.1 14.65 191.35 14.55 196.65 14.4 201 10.8 206.55 8.75 209.6 2.75 216.7 -2.9 223.45 -5.3 227.3 -8.95 233.4 -9.1 238.55 -9.25 245.25 -3.45 252.75 -2.05 254.6 0.5 257.9 2.3 260.55 2.25 262.45 2.2 264 0.8 270.25 -0.65 276.5 -0.65 278.05 -1.55 311.45 40.4 335.15 55.7 343.8 73.5 349.15 88.75 353.8 97.35 353.8 119.5 353.8 144.15 334.5 144.95 333.9 162.45 319.05 172.55 310.55 178.7 307.5 191.1 301.65 197.55 298.5 209.05 292.85 216.05 288.25 235.75 275.15 236.15 259.25 236.3 253.5 235.95 243.4 235.5 233.35 235.55 231.75 235.75 223.1 229.35 208.7 222.75 193.65 217.6 193.65
L 216.6 194.75
Q 217.2896484375 195.3140625 217.85 195.85 220.2 198.25 220.15 200.45 220.05 203.4 217.55 206.15 215.25 208.65 213.4 208.65 207.55 208.65 201.85 191.15 196.8 175.75 197.05 167.9 197.2 161.6 203.9 145.9 210.5 130.55 214.15 127.25 Z"/>

<path fill="url(#Gradient_11)" stroke="none" d="
M 213.85 126.05
L 214.15 127.25 213.85 126.05 213.85 126.05 Z"/>
</g>

<g id="Duplicate_Items_Folder_Symbol_17_0_Layer0_0_FILL">
<path fill="url(#Gradient_12)" stroke="none" d="
M 164.45 0.25
Q 164.1 0.6 163.6 0.95 152.45 10 142.45 21.05 134.3 29.9 131.7 36.9 129.25 43.5 129.75 51.85 130.1 58.3 132.5 67 135.45 76.8 136.7 81.75 138.9 90.35 139.05 96.8 139.35 106.1 135.75 115.1 132.9 121.95 128.3 127.45 130 124.7 130.25 119.95 130.4 118.2 130.4 116.55 130.4 107.35 127.3 98.4 126.35 95.9 124.9 95.9 123.3 96.05 122.8 99.25 122 105.4 118.65 110.75 116.95 113.4 114.7 116.1
L 107.8 124.7
Q 106.25 126.75 106.8 127.95 106.9 128.1 107.05 128.25 105.45 131.45 102.7 134.55 100 137.55 94.8 142
L 83 151.75
Q 81.8 152.7 80.9 152.85 80.25 152.9 79.75 152.55 79.75 152.45 79.85 152.45 80.5 152.2 80.75 150.95 81.05 149.15 80.65 146.55 80.35 144.95 79.85 143.15 79.4 141.4 78.7 140.55 77.45 139.15 76.05 139.8 75.35 140.2 74.75 141.7 71.6 149 66.65 155.35 64.3 158.45 61.75 161.15 57.85 165.55 56.6 166.8 54.9 168.45 51.85 170.9 47.8 174.3 47 174.95 31.3 188.05 21.2 206 17.35 212.65 16.7 217.35
L 15.75 217.2
Q 15.85 218.65 13.95 220.55 12.2 222.55 10.75 223.65 9.4 224.7 8.75 225.25 7.5 226.15 6.85 226.95 5.7 228.4 4.6 231.15 3.3 234.7 2.8 235.55 1.5 237.8 1.15 239.05 0.7 240.5 0.7 243.25 0.65 243.9 0.3 245.75 0 247.3 0 248.2 0.05 249.1 0.35 250.75 0.7 252.5 0.7 253.3 0.8 254.1 0.65 256.3 0.5 258.2 0.7 259.3 1 260.5 1.6 261.8
L 2 263
Q 0.95 263.5 0.55 265.85 0.55 266.15 0.55 266.45 -0.2 275.35 3.95 285.75 6.8 292.85 13.8 304.15 19.25 313.25 23.05 318.8 28.4 326.6 33.7 332.5 46.95 347.1 61.9 351.8 69.2 354.1 78.6 354.45 85.1 354.7 95.6 353.95 124.4 351.85 143.1 345.8 168.8 337.4 183.85 320.7 191 312.8 197.8 300.15 201.7 292.85 208.95 277.8 216.75 262.45 225.7 248.5 231.25 240.05 233.3 235.4 236.6 227.7 235.55 221.1 235.45 220.6 235.3 220.1 235.05 219 234.3 218.15 233.8 217.5 233.25 217.2 233.5 216.7 233.8 216.2 234 215.8 235.9 213.35 237.15 211.7 237.7 210.45 238.65 208.6 239.6 203.6 240.1 199.2 239.95 197.95 239.75 195.5 238.35 192.75 237.55 191 235.6 187.9
L 231.4 181.75
Q 227.65 176.55 226.8 174.75 224.5 169.9 224.75 162.4 225 156.95 227.1 147.9
L 226.35 147.7
Q 225.9 149.85 225.2 151.9 224.6 153.65 222.9 157.25 221.2 160.65 220.65 162.5 219.65 165.8 219.1 166.8 218.05 169.05 216.15 169.6 216 165.65 217.05 162.45 217.55 160.5 219.05 157.05 220.65 153.35 221.15 151.55 223.75 142.15 219.05 131.05 217.25 126.8 214.05 121.9 212.25 119.2 208 113.35 203.8 107.65 202 104.4 196.55 94.25 196.05 80.1 195.85 71.85 197.35 64.3 194.8 67.35 191 73.5
L 188.1 78.05
Q 187.75 78.05 187.3 78.15 187.15 78.15 187 78.2 186.2 78.4 185.7 79 184.7 79.95 184 82.2 182.3 87.75 181.8 93.3 181.5 96.05 181.5 98.9 181.5 100.35 182.15 100.85 182.8 101.35 183.55 101.05 184.1 103.15 184.5 104.25
L 185.85 106.9
Q 186.45 108.5 186.2 110.6 186.05 111.9 185.4 114.45
L 184.5 114.65
Q 184.55 111.85 182.55 108.2 181.45 106.2 179.05 102.05 178.25 100.35 177.45 97 177.05 95.4 175.6 87.95
L 173.85 78.9
Q 172.85 73.55 172.75 70.8 172.7 68.65 173.35 62.65 174.3 56.55 175 54.4 176.3 50.85 176.45 50.15 176.6 49.55 176.75 48.55 176.9 48.45 177.05 48.45 178.2 48.1 178.7 47.8 179 47.6 179.25 47.4 179.65 46.95 179.8 46.4 180.15 45.45 179.5 44.8 178.85 44 177.1 44.4 174.8 45 172.75 46.45 171.6 47.4 171.05 47.8 170 48.6 169.15 48.9 167.7 49.4 166.1 48.75 164.5 48.1 163.8 46.75 163.45 45.85 162.95 43.9 162.7 43.35 162.05 42.1 161.4 40.95 161.2 40.3 160.7 38.95 160.7 36.1
L 160.7 29.25
Q 160.7 25.1 160.85 23.95 161.05 21.8 162.05 17.45
L 162.7 14.65
Q 163.15 13.1 163.95 10.05 164.6 7.85 166.2 3.5 166.6 2.05 166.45 1.3 166.2 0 165.05 0
L 164.45 0.25
M 125.4 130.5
Q 124.9 129.4 126.05 127.1 126.5 126.3 126.85 125.55
L 127 127.1
Q 127.05 127.4 127.2 127.65 127.3 128.05 127.5 128.3 126.5 129.4 125.4 130.5 Z"/>
</g>

<g id="Duplicate_Items_Folder_Symbol_17_4_Layer0_0_FILL">
<path fill="url(#Gradient_13)" stroke="none" d="
M 29.35 154.1
L 29.25 154.35
Q 29.633984375 154.8134765625 29.9 155.6
L 30.95 155.35
Q 30.1123046875 154.7166015625 29.35 154.1 Z"/>

<path fill="url(#Gradient_14)" stroke="none" d="
M 192.95 48.7
Q 186.8 44.2 179.55 44.2 165.05 44.2 158.05 58.25
L 157.75 59
Q 157.72578125 58.9849609375 157.7 58.95 152.2412109375 70.4798828125 153.55 85.7 150.25 81.45 148.45 76.25 145.778515625 68.6107421875 145.6 57.6 127.3890625 58.896484375 114.9 72.2 109.8 77.65 106.75 84 104.1 89.5 104.1 92.95 104.1 97.95 106.6 102.85 108.1 105.8 112.15 111.1 116.15 116.4 117.65 119.25 120.15 124.1 120.15 129.05 120.15 140.2 109.55 145.8 101.85 149.85 92.1 149.85 89.9 149.85 74.05 139.1 58.9 128.8 57.35 127.05 50.9 119.9 46.25 108.45 43.1 100.6 39.95 88.25 35.15 95.7 27 107.65 21.25 117.55 21.25 127.05 21.25 134.35 22.8 138.25 24 141.15 27 143.85 32 148.3 33 149.4 36.85 153.7 39.95 160.45
L 39.95 161.8
Q 36.3 159.35 30.95 155.35
L 29.9 155.6
Q 30.7 157.7953125 30.7 162.5 30.7 167.65 26.1 171.5 23.35 173.85 16.05 178.35 9.3 183.1 5.95 188.8 1.35 196.65 1.35 208.55 1.35 214.8 2.8 220.15 3.55 222.85 6 229 10.6 240.65 10.6 253.25 10.6 254.95 9.25 269.65 7.9 284.35 7.9 286 7.9 287.2802734375 8.35 290.25 8.46015625 291.00078125 8.6 291.85
L 7.65 291.15
Q 6.3111328125 293.030078125 5.05 294.85 7.5025390625 302.36328125 11.8 310.35 18.2 322.15 26.9 331.4 49.7 355.55 81.3 355.55 96.4 355.55 113.25 347.45 129.4 339.75 154.9 320.75 176.15 305 197.85 300.45 208 298.3 210.85 297.15 217 294.65 221.7 288.7 228.75 279.85 231.05 264.95 232.05 258.4 232.8 237.95 233.45 221.4 236.05 213.3 239.85 201.45 249.75 196.55 249 196.55 248.7 195.9
L 248.55 195.2
Q 247.3 195.2 244.75 194.55 242.2 193.85 240.45 193.85 238.85 193.85 235.35 194.55 231.9 195.2 229.8 195.2
L 229.8 191.15
Q 232.75 189.25 240.45 184.55 247.65 180.05 252.3 176.3 265.95 165.45 265.95 155.75 265.95 146.9 256.55 139.05 246.95 131.1 235.7 131.1 233.85 131.1 224.6 134.05 221.3154296875 135.09375 218.65 136.1 219.68359375 138.11796875 221.25 140.1 221.35 140.2 225.75 145.1 231.15 151.15 231.15 157.75 231.15 163.65 217.65 177.85 212.85 182.95 208.05 187.2 203.6 191.15 203 191.15 191.35 191.15 185.6 172.4 181.7 159.85 181.7 146.95 181.7 138.8 184.65 129.3 187.8 119.3 193.3 110.85 206.55 90.55 225.75 89.6 219.95 83.95 213.5 74.75 206.7 64.55 203.4 60 197.8 52.3 192.95 48.7 Z"/>
</g>

<g id="Symbol_151_1_Layer1_0_FILL">
<path fill="#000000" stroke="none" d="
M 172.1 28.3
Q 174.4 17.75 177.05 5.7 177.25 4.45 164.05 1.1 150.9 -2.25 149.1 -1.45 142.05 3.45 134.2 8.8 118.35 19.55 110.55 23.15 108.55 22.95 106.55 22.85 105.45 22.85 73.2 50.8 40.5 79.15 40.25 81.9 40 84.6 43.6 87.3 45.35 88.65 47.2 89.45 38.05 96.4 22.65 109.6 0.8 128.45 -6 137.4 -6.6 138.15 -3.65 141.8 -0.9 145.2 0.5 146.05 9.3 151.4 19.45 151.4 44.7 153.05 68.75 146.35 68.7 147 67.8 152.45 67 158 67.1 160 67.15 161 70.95 169.9 75.1 179.55 77.55 183.3 78.7 185.1 83.75 188.85 89.15 192.9 91.6 193.35 94.35 193.7 105.15 192.85 116.55 191.9 118.1 190.8 127.35 184.05 149 164.8 168.85 147.15 170 145.55 170.8 144.35 172.05 141.25 173.2 138.4 173.25 137.8 173.45 133 171.45 118.9 169.5 104.9 168.05 100.45 166.55 95.8 161.5 95.65 161.6 95.2 164.1 91.7 166.75 88.05 166.8 87.9 167.2 87.15 166.6 74.8 165.95 61.2 166.6 56.5 167.6 48.95 172.1 28.3
M 162.8 18.95
Q 166.45 12.5 167.3 11.3
L 159.75 46 157.55 28.4
Q 159.05 25.45 162.8 18.95
M 150.8 24.15
L 130.05 24.35 120.4 24.4
Q 123.5 22.55 136.95 13.85 149.6 5.9 153 5.05
L 164.8 7.05 153.8 25.35 150.8 24.15
M 150 30.95
L 152.85 27.9 157.65 80.95
Q 155.9 84.25 153.6 88.05 149.05 95.65 146 98.75
L 142.45 103.4
Q 150 101.65 154.7 95.35 154.55 96.05 155.25 98.75 156.15 102.15 157.75 103.15
L 160.85 108.3
Q 162.65 116.3 164.45 124.35 166.5 133.3 161.35 140.9 158 145.85 146.75 158.3 135.3 170.95 131.1 174.2
L 111.25 188.1
Q 101.05 189 99.1 188.2 97.65 161.7 94.6 149.85 97.8 150.55 106.75 151.45 118.4 152.6 123.4 151.9 125.2 151.6 131.4 147.35 139.3 141.95 141.05 137.1 145.2 125.6 142.95 113.65
L 139.65 106.25
Q 138.55 106.1 132.25 107.8 125.2 109.75 122.2 111.65 112.2 118.15 103.25 125.75
L 92.75 134.35 91.95 132.55 91.45 131.75 92.25 130.35
Q 94.1 127.15 94.7 116.7 95.3 105.9 93.4 102.65 91.5 99.35 81 92.85 69.55 85.75 64.05 86.2
L 63.3 87.2
Q 69.95 89.65 76.6 92.15 88.7 96.7 90.95 109.65 91 111.3 91.1 112.95 91.55 122 86.3 129.25 71.6 140.4 63.95 142.75 59.05 144.2 43 144.4 27.4 144.6 21.8 143.55
L 3.35 138.85 4.95 136.3
Q 7.35 133.3 50.85 86.95
L 49.8 83.8
Q 94.95 83.2 102.3 80.65
L 150 30.95
M 145.8 28.35
L 149.45 28.15
Q 107.85 68.7 104.5 72.15 97.75 79.1 88.1 78.75 84.1 79.2 76 79.85 64.8 80.7 60.3 80.6
L 52.3 80.75
Q 55.35 77.7 82.5 54.55 110.6 30.55 112.2 30.1
L 145.8 28.35
M 76.5 164.95
Q 73.75 157.35 74.45 149.1 74.8 149.3 75.2 149.5 76.85 150.55 78.5 149.35
L 93 149.65
Q 93 150 93.6 167 94 184.45 92.95 187.2
L 90.65 186.8 85.6 184.75
Q 80.2 175.15 76.5 164.95 Z"/>

<path fill="#333333" stroke="none" d="
M 93.6 167
Q 93 150 93 149.65
L 78.5 149.35 90.65 186.8 92.95 187.2
Q 94 184.45 93.6 167
M 88.1 78.75
L 145.8 28.35 112.2 30.1 60.3 80.6
Q 64.8 80.7 76 79.85 84.1 79.2 88.1 78.75
M 99.1 188.2
Q 101.05 189 111.25 188.1 113.75 183.65 118.3 169.25 121.7 158.5 123.4 151.9 118.4 152.6 106.75 151.45 97.8 150.55 94.6 149.85 97.65 161.7 99.1 188.2
M 63.3 87.2
L 64.05 86.2
Q 69.55 85.75 81 92.85 91.5 99.35 93.4 102.65 95.3 105.9 94.7 116.7 94.1 127.15 92.25 130.35
L 91.95 132.55 92.75 134.35 103.25 125.75 103.15 124.35 102.3 80.65
Q 94.95 83.2 49.8 83.8
L 50.85 86.95
Q 7.35 133.3 4.95 136.3 15.5 134.55 26.1 132.85 30.25 132.3 60.05 121.1 90.35 109.8 90.95 109.65 88.7 96.7 76.6 92.15 69.95 89.65 63.3 87.2
M 155.25 98.75
Q 154.55 96.05 154.7 95.35 150 101.65 142.45 103.4
L 146 98.75 139.65 106.25 142.95 113.65 157.75 103.15
Q 156.15 102.15 155.25 98.75
M 130.05 24.35
L 150.8 24.15 164.8 7.05 153 5.05 130.05 24.35 Z"/>

<path fill="#666666" stroke="none" d="
M 75.2 149.5
Q 74.8 149.3 74.45 149.1
L 85.6 184.75 90.65 186.8 78.5 149.35
Q 76.85 150.55 75.2 149.5
M 112.2 30.1
Q 110.6 30.55 82.5 54.55 55.35 77.7 52.3 80.75
L 60.3 80.6 112.2 30.1
M 149.45 28.15
L 145.8 28.35 88.1 78.75
Q 97.75 79.1 104.5 72.15 107.85 68.7 149.45 28.15
M 91.95 132.55
L 92.25 130.35 91.45 131.75 91.95 132.55
M 160.85 108.3
L 157.75 103.15 142.95 113.65
Q 145.2 125.6 141.05 137.1 139.3 141.95 131.4 147.35 125.2 151.6 123.4 151.9 121.7 158.5 118.3 169.25 113.75 183.65 111.25 188.1
L 131.1 174.2
Q 133.05 169.65 146.7 139.4 160.1 109.75 160.85 108.3
M 26.1 132.85
Q 15.5 134.55 4.95 136.3
L 3.35 138.85 21.8 143.55
Q 33.35 140 44.7 136.25 66.3 128.95 86.8 118.7 86.95 120.35 86.95 123.1 86.95 127.4 86.3 129.25 91.55 122 91.1 112.95 91 111.3 90.95 109.65 90.35 109.8 60.05 121.1 30.25 132.3 26.1 132.85
M 128.95 97.65
Q 150.75 74.9 150.8 74.7 151.3 67.05 150 30.95
L 102.3 80.65 103.15 124.35
Q 107.25 120.25 128.95 97.65
M 150.8 24.15
L 153.8 25.35 164.8 7.05 150.8 24.15
M 130.05 24.35
L 153 5.05
Q 149.6 5.9 136.95 13.85 123.5 22.55 120.4 24.4
L 130.05 24.35
M 167.3 11.3
Q 166.45 12.5 162.8 18.95 159.05 25.45 157.55 28.4
L 159.75 46 167.3 11.3 Z"/>

<path fill="#999999" stroke="none" d="
M 74.45 149.1
Q 73.75 157.35 76.5 164.95 80.2 175.15 85.6 184.75
L 74.45 149.1
M 160.85 108.3
Q 160.1 109.75 146.7 139.4 133.05 169.65 131.1 174.2 135.3 170.95 146.75 158.3 158 145.85 161.35 140.9 166.5 133.3 164.45 124.35 162.65 116.3 160.85 108.3
M 43 144.4
Q 59.05 144.2 63.95 142.75 71.6 140.4 86.3 129.25 86.95 127.4 86.95 123.1 86.95 120.35 86.8 118.7 66.3 128.95 44.7 136.25 33.35 140 21.8 143.55 27.4 144.6 43 144.4
M 152.85 27.9
L 150 30.95
Q 151.3 67.05 150.8 74.7 150.75 74.9 128.95 97.65 107.25 120.25 103.15 124.35
L 103.25 125.75
Q 112.2 118.15 122.2 111.65 125.2 109.75 132.25 107.8 138.55 106.1 139.65 106.25
L 146 98.75
Q 149.05 95.65 153.6 88.05 155.9 84.25 157.65 80.95
L 152.85 27.9 Z"/>
</g>

<g id="Symbol_38_0_Layer1_0_FILL">
<path fill="#000000" stroke="none" d="
M 137.6 38.6
Q 138.8 35.05 132.5 30 128.35 26.7 124.05 24.7 100.95 13.75 79.45 -0.05 77.95 -1 68.55 0.2 59.2 1.4 54.6 3.05 52.7 3.7 50.2 8.65
L 48.1 13.45
Q 43.55 16 39 18.6 29.95 23.75 30.1 23.85 30.25 23.9 25.95 31.6 23.85 35.45 21.65 39.3
L 23.35 41.9
Q 19.4 42.35 17.95 45.55 17.45 46.7 -0.25 73.85 -1.4 75.7 -0.75 77.4 1.8 84.55 5.75 91.1 2.9 93 0 95 -0.75 95.5 -0.35 101.15 0.05 107.4 2.05 110.2
L -0.9 116.85
Q 1 119.7 3.75 121.9 4.15 122.2 4.75 129.1 5.4 136.45 5.2 140.5 5.1 142.95 12.4 149.15 19.65 155.25 24 156.6 24.75 156.8 30.85 155.55 37.75 154.1 38.85 154 38.9 154.1 45 157.6 51.1 161.1 52.2 161.65 59.7 165.75 64.35 158.9 65.75 159.55 74.2 163.95 82.6 168.1 85.6 168.45 89.95 168.5 98.7 164.6 108.5 160.2 109.05 156.15
L 137.6 38.6
M 129.5 33.65
Q 130.3 34.55 130.2 35.7 129.4 44 126.1 51.85
L 120.95 39.8
Q 120.3 40.5 120.6 43.1 120.75 44.4 121.05 46 121.124609375 47.0171875 121.3 47.95 121.5712890625 48.820703125 121.75 49.65 122.7962890625 52.7244140625 125.2 55
L 121.65 57.15
Q 118.25 59.25 118.05 60.4 123.35 61.6 123.2 62.25
L 114.75 96.5 101.5 154.05 89 160.75
Q 88.5 160.65 7.75 114.65 7.55 114.15 31.75 63.6 56.3 12.4 58.8 10.25 64.85 5.3 72.2 4.1 73.1 4.3 74 4.65 78.85 6.65 103.9 19.8 128.75 32.85 129.5 33.65
M 48.65 18.95
L 46.25 25.5 38.45 44.45 24.8 72.9 6.6 106.75 3.45 99.65 13.45 90.95 5.8 78.6
Q 5.7 78.5 5.7 78.45 5.45 77.2 8.95 77.75 9.35 77.7 9.75 77.65 16.3 78.1 20.05 74.1
L 4.35 76.4 19.6 51.95
Q 20.95 49 29.2 43.75 38.35 37.9 38.65 37.6
L 27.35 40.9 32.9 31.2
Q 33.6 29.55 39.2 24.95 45.2 20 48.65 18.95
M 13.3 142.55
L 10.65 126.35 23.6 134.25
Q 21.75 135.1 19.5 136.7 15.85 139.25 15.65 141.2
L 27.25 136 57.75 151.95
Q 56.5 152.85 55 152.55 46.85 151.15 41.15 145.25 35.1 145.6 29.35 148.7 28.7 149.1 22.65 146.85 16.25 144.55 13.3 142.55
M 38.15 97.4
Q 45.05 78.65 53.8 60.75 63.35 41.25 70.9 21.3
L 48.25 66.15 31.2 106.9
Q 30.05 106.9 23.6 109.35 16.05 112.2 13.45 114.6
L 32.05 110.8
Q 33.8 111.95 65.05 131.9 95.9 151.8 98.05 154 99.6 153.3 99.25 152.8 96.5 148.8 65.5 128.1 35.05 108.2 34.95 108.1 34.75 107.95 36 103.9 37.2 99.95 38.15 97.4
M 95.45 25.95
Q 95.45 27.85 94.15 31.3 92.95 34.5 92.45 34.65 86.5 36.25 83.8 41.6 82.05 45.05 72.2 69.5 61.8 95.25 61.8 97.15 61.8 99.95 64.05 109.95 66.45 120.55 68.2 124.4 68.2716796875 124.55859375 68.35 124.7
L 71.7 126.75
Q 89.5 115.25 91.05 113.1 92.2 111.5 98.85 85.2 105.4 59.3 105.45 57.05 104.7 53.55 103.9 49.6 102.4 41.8 102.35 38.2 104.2 31.8 103.85 30.75 101.8 24.15 95.45 25.95
M 97.6 29.3
L 101.05 31.3
Q 100.4 33.8 100.15 40.35 99.8 48.65 101.25 51.8 102.2 54 101.85 56.25 100.15 68.05 94.65 90.05 89.5 110.65 88.55 111.6 81.05 119.05 71.75 124.2 71.3 123.55 68.25 111.7 65.15 99.7 65.25 98.75 65.55 95.7 73.75 74.75 83.8 49.1 85.2 45 93.6 38.1 94.15 37.5 94.6 37.05 95.85 33.8 97.45 29.6 97.6 29.3 Z"/>

<path fill="#332C2C" stroke="none" d="
M 15.65 141.2
L 13.3 142.55
Q 16.25 144.55 22.65 146.85 28.7 149.1 29.35 148.7 35.1 145.6 41.15 145.25 46.85 151.15 55 152.55 56.5 152.85 57.75 151.95
L 27.25 136 15.65 141.2
M 8.95 77.75
L 5.8 78.6 13.45 90.95 3.45 99.65 6.6 106.75 24.8 72.9 20.05 74.1
Q 16.3 78.1 9.75 77.65 9.35 77.7 8.95 77.75
M 32.9 31.2
L 27.35 40.9 38.65 37.6
Q 38.35 37.9 29.2 43.75 20.95 49 19.6 51.95
L 38.45 44.45 46.25 25.5 32.9 31.2 Z"/>

<path fill="#584748" stroke="none" d="
M 13.3 142.55
L 15.65 141.2
Q 15.85 139.25 19.5 136.7 21.75 135.1 23.6 134.25
L 10.65 126.35 13.3 142.55
M 4.35 76.4
L 20.05 74.1 24.8 72.9 38.45 44.45 19.6 51.95 4.35 76.4
M 8.95 77.75
Q 5.45 77.2 5.7 78.45 5.7 78.5 5.8 78.6
L 8.95 77.75
M 46.25 25.5
L 48.65 18.95
Q 45.2 20 39.2 24.95 33.6 29.55 32.9 31.2
L 46.25 25.5 Z"/>

<path fill="#999999" stroke="none" d="
M 72.2 4.1
Q 64.85 5.3 58.8 10.25 56.3 12.4 31.75 63.6 7.55 114.15 7.75 114.65 88.5 160.65 89 160.75
L 101.5 154.05
Q 98.35 154.75 92.8 155.4 86.85 156.05 86 155.65 69.7 148.15 53.6 140 43 134.45 39.2 132.2 26.65 124.75 23.75 119.95 26.35 118 28.7 115.7 32.3 112.25 32.05 110.8
L 13.45 114.6
Q 16.05 112.2 23.6 109.35 30.05 106.9 31.2 106.9
L 48.25 66.15
Q 56.8 46.45 62.35 33.1 72.8 7.85 72.2 4.1 Z"/>

<path fill="#666666" stroke="none" d="
M 112.6 61.5
Q 112.65 61.65 112.8 61.75 117.75 64.25 123.2 62.25 123.35 61.6 118.05 60.4 118.25 59.25 121.65 57.15
L 125.2 55
Q 122.7962890625 52.7244140625 121.75 49.65 122.415625 52.3939453125 122.55 55.15
L 112.6 61.5
M 126.25 34.95
L 124.7 45.75
Q 124.65 44.5 123 41.4 121.2 38 119.9 37.6 118.5 39.15 121.3 47.95 121.124609375 47.0171875 121.05 46 120.75 44.4 120.6 43.1 120.3 40.5 120.95 39.8
L 126.1 51.85
Q 129.4 44 130.2 35.7 130.3 34.55 129.5 33.65 128.75 32.85 103.9 19.8 78.85 6.65 74 4.65 73.1 4.3 72.2 4.1 72.8 7.85 62.35 33.1 56.8 46.45 48.25 66.15
L 70.9 21.3
Q 63.35 41.25 53.8 60.75 45.05 78.65 38.15 97.4 37.2 99.95 36 103.9 34.75 107.95 34.95 108.1 35.05 108.2 65.5 128.1 96.5 148.8 99.25 152.8 99.6 153.3 98.05 154 95.9 151.8 65.05 131.9 33.8 111.95 32.05 110.8 32.3 112.25 28.7 115.7 26.35 118 23.75 119.95 26.65 124.75 39.2 132.2 43 134.45 53.6 140 69.7 148.15 86 155.65 86.85 156.05 92.8 155.4 98.35 154.75 101.5 154.05
L 114.75 96.5 102.55 144.05
Q 99.519921875 143.4248046875 71.7 126.75
L 68.35 124.7
Q 39.2125 107.17109375 39.85 105.7 49.9 83.05 61.7 55.15 76.95 19 78.85 11.75
L 126.25 34.95 Z"/>

<path fill="#FFFF99" stroke="none" d="
M 101.05 31.3
L 97.6 29.3
Q 97.45 29.6 95.85 33.8 94.6 37.05 94.15 37.5 93.6 38.1 85.2 45 83.8 49.1 73.75 74.75 65.55 95.7 65.25 98.75 65.15 99.7 68.25 111.7 71.3 123.55 71.75 124.2 81.05 119.05 88.55 111.6 89.5 110.65 94.65 90.05 100.15 68.05 101.85 56.25 102.2 54 101.25 51.8 99.8 48.65 100.15 40.35 100.4 33.8 101.05 31.3
M 91.65 47.2
Q 94 44.5 96.2 42.4 96.25 44.4 97.3 50.65 98.3 56.4 98.2 56.95 93.8 82.95 86.85 108.25 79.95 117.2 75.1 119.05 73.4 114.95 71.85 105.65 70.45 97.2 70.8 96.4 85.05 59.65 86.1 55.65 86.9 52.6 91.65 47.2 Z"/>

<path fill="#FF9900" stroke="none" d="
M 96.2 42.4
Q 94 44.5 91.65 47.2 86.9 52.6 86.1 55.65 85.05 59.65 70.8 96.4 70.45 97.2 71.85 105.65 73.4 114.95 75.1 119.05 79.95 117.2 86.85 108.25 93.8 82.95 98.2 56.95 98.3 56.4 97.3 50.65 96.25 44.4 96.2 42.4
M 92.35 60.7
Q 91.6 66.05 88.5 81 85.35 96.4 84 100.8 82.45 106 77.9 104.8 76.8 104.5 76.15 101.2 75.5 98.1 75.95 96.7
L 92.35 60.7 Z"/>

<path fill="#FF6600" stroke="none" d="
M 88.5 81
Q 91.6 66.05 92.35 60.7
L 75.95 96.7
Q 75.5 98.1 76.15 101.2 76.8 104.5 77.9 104.8 82.45 106 84 100.8 85.35 96.4 88.5 81 Z"/>

<path fill="#333333" stroke="none" d="
M 124.7 45.75
L 126.25 34.95 78.85 11.75
Q 76.95 19 61.7 55.15 49.9 83.05 39.85 105.7 39.2125 107.17109375 68.35 124.7 68.2716796875 124.55859375 68.2 124.4 66.45 120.55 64.05 109.95 61.8 99.95 61.8 97.15 61.8 95.25 72.2 69.5 82.05 45.05 83.8 41.6 86.5 36.25 92.45 34.65 92.95 34.5 94.15 31.3 95.45 27.85 95.45 25.95 101.8 24.15 103.85 30.75 104.2 31.8 102.35 38.2 102.4 41.8 103.9 49.6 104.7 53.55 105.45 57.05 105.4 59.3 98.85 85.2 92.2 111.5 91.05 113.1 89.5 115.25 71.7 126.75 99.519921875 143.4248046875 102.55 144.05
L 114.75 96.5 123.2 62.25
Q 117.75 64.25 112.8 61.75 112.65 61.65 112.6 61.5
L 122.55 55.15
Q 122.415625 52.3939453125 121.75 49.65 121.5712890625 48.820703125 121.3 47.95 118.5 39.15 119.9 37.6 121.2 38 123 41.4 124.65 44.5 124.7 45.75 Z"/>
</g>

<g id="Duplicate_Items_Folder_Symbol_17_2_Layer0_0_FILL">
<path fill="url(#Gradient_15)" stroke="none" d="
M 75.85 99.15
L 75.85 99.1 74.3 98.9 75.85 99.15 Z"/>

<path fill="url(#Gradient_16)" stroke="none" d="
M 183.65 21.45
Q 186.15 26.05 186.15 31.3 186.15 45.45 179.25 54.45 173.7 61.65 162.85 66.4 159.15 68.05 143.55 73.05 132.4 76.65 127.9 80.35
L 123.15 80.35
Q 122.6 76.85 122.6 70.35
L 121.9 70.2
Q 121.307421875 73.5484375 120.05 77.25 116.8 86.75 110.2 96.25 103.7 105.55 96.45 111.4 88.75 117.55 82.9 117.55 77.2 117.55 75.5 115.3 74.3 113.7 74.3 108.8 74.3 107.7 75.45 101.45 75.6712890625 100.2578125 75.85 99.15
L 74.3 98.9
Q 71.15 109.85 60.45 118.65 58.9 119.95 50.05 126.55 42.95 131.85 38.2 136.25 28.8 144.95 20.55 161.1 12.65 176.5 12.65 184.55 12.65 188 17.3 198.4 21.95 208.8 21.95 214.15 21.95 220 17.25 224.7 12.55 229.4 6.75 229.4 3.6 229.4 1.95 226.45 0.05 222.95 1 216.45 -14.05 226.45 -14.05 262.45 -14.05 278.65 -1.65 297.35 9.3 313.8 27.8 329.45 44.7 343.8 62.45 353 80.05 362.1 90.55 362.1 110.75 362.1 135.4 346.7 156.7 333.4 177.95 310.9 196.95 290.8 209.7 270.3 222.2 250.2 222.2 240.35 222.2 235.65 219.25 214.35 216.3 193.05 216.3 185.7 216.3 161.8 221.05 143.2 230.2 107.05 254.15 107.05 256.05 107.05 258.25 107.9
L 259.15 106.85
Q 256.933203125 105.03125 254.8 102.85 250.3 97.85 248.05 95.75 240.55 88.55 227.95 88.55 216.4 88.55 208.3 98.95 201.25 108 201.25 117.4 201.25 122.55 203.6 129.4 205.95 136.2 205.95 138.55 205.95 143.75 202.4 145.5 200.1 146.6 194.75 146.6 185.95 146.6 179.15 138.6 172.05 130.25 172.05 118.7 172.05 107.5 176.95 96.95 180.15 90.15 187.8 79.55 195.95 68.3 198.65 63.1 203.55 53.6 203.55 44.1 203.55 35.2 196.05 27.95 193.8 25.8 187.6 20.75 180.9 15.35 176.8 11.6 182.65 19.7 183.65 21.45 Z"/>
</g>

<g id="Duplicate_Items_Folder_Symbol_17_1_Layer0_0_FILL">
<path fill="url(#Gradient_17)" stroke="none" d="
M 166.3 -20.8
L 166.3 -21.95
Q 153.8 -12.95 148.7 -9.25 140.15 -3.05 136 1.1 125.6 11.35 125.6 26.7 125.6 35.75 132.7 38.4 135.9 39.6 148.25 40.2 159.05 40.7 163.8 44 170.9 48.85 170.9 61.65 170.9 71.2 161.5 82.6 151.85 94.3 143 94.3 145.9 85.5 138.35 70.45 135.05 63.9 131.05 59.65 126.925390625 55.1373046875 123.35 54.6 124.226953125 59.4044921875 124.85 64.3 125.6 69.85 125.6 72 125.6017578125 85.6474609375 112.2 104.9 98.7947265625 124.2076171875 91.45 123.3 84.1552734375 122.3923828125 85.25 116.6 86.3482421875 110.8025390625 83.65 107.05
L 84.8 109.35 73.15 109.35
Q 63.65 111.85 52.8 123.9 42.8 135.05 42.8 140.3 42.8 142.3 48.05 153 53.3 163.65 53.3 166.45 53.3 178.05 44.4 184.9 39.85 188.45 24.9 194.6 11.15 200.25 5.35 205.95 -3.55 214.6 -3.55 229.25 -3.55 247.3 1.25 266.15 7 288.7 18.4 306.25 47.8 351.6 105.8 351.6 121.4 351.6 144.85 340.7 157.5 334.8 177.95 322.55 196.1 311.8 201.55 302.15 207.1 292.25 207.1 270.1 207.1 248.95 213.45 236.25 217.65 227.8 227.45 219.5 238.3 210.3 241.45 205.5 247.8 195.8 247.8 179.8 247.8 173.6 247.45 172.6 246.5 169.7 242.05 169.9
L 242.05 160.7
Q 243.85 155.1 250.4 147.55 258.1 138.65 264.05 138.55 259.5 136.15 254.85 132.65 250.15 128.95 247.9 127.4 240.4 122.15 230.25 122.15 215.85 122.15 211.7 128.1 209.4 131.4 209.4 141.3 209.4 148 208.25 150.25 207.05 152.5 203.55 152.5 201.6 152.5 200.1 149 198.95 146.3 198.95 144.9 198.95 139.15 201.5 132.2 202.6 129.1 207.05 119.55 215.15 102.15 215.15 88.95 215.15 79.95 207.85 65.75 199.936328125 51.99765625 197.9 47.95 198.2896484375 49.9974609375 199.55 52.95 201.25 57.05 201.25 60.35 201.25 67.4 200.1 71 198.4 67.45 191.4 56.85 182.35 43 178.5 36.65 161.7 8.85 161.7 -5.75 161.7 -8.3 163.2 -13.6 164.8 -19.3 166.3 -20.8 Z"/>
</g>
</defs>

<g transform="matrix( -0.6658172607421875, 0, 0, 0.6658172607421875, 520.45,355.5) ">
<g transform="matrix( 1, 0, 0, 1, -160.55,-288.2) ">
<g transform="matrix( 1, 0, 0, 1, 5.45,-72.4) ">
<g transform="matrix( 0, 0.4279327392578125, -0.6338958740234375, 0, 386.9,621.95) ">
<g transform="matrix( 1, 0, 0, 1, 0,0) ">
<use xlink:href="#Blaze_Blaze_fire_stream_5_Layer0_0_FILL"/>
</g>
</g>

<g transform="matrix( 0, 0.370941162109375, -0.681060791015625, 0, 231.75,620.75) ">
<g transform="matrix( 1, 0, 0, 1, 0,0) ">
<use xlink:href="#Blaze_Blaze_fire_stream_2_Layer0_0_FILL"/>
</g>
</g>

<g transform="matrix( 0, 0.370941162109375, -0.681060791015625, 0, 567.4,622.05) ">
<g transform="matrix( 1, 0, 0, 1, 0,0) ">
<use xlink:href="#Blaze_Blaze_fire_stream_0_Layer0_0_FILL"/>
</g>
</g>
</g>

<g transform="matrix( -0.639251708984375, 0, 0, 0.90972900390625, 355.6,33.3) ">
<g transform="matrix( 0.8552398681640625, 0, 0, 0.5524444580078125, 173.7,31.75) ">
<g transform="matrix( 1.5428009033203125, 0, 0, 1.131591796875, -59.9,-42.25) ">
<g transform="matrix( 1, 0, 0, 1, 0,0) ">
<use xlink:href="#Duplicate_Items_Folder_Symbol_17_3_Layer0_0_FILL"/>
</g>
</g>
</g>

<g transform="matrix( -0.7543792724609375, 0, 0, 0.7543792724609375, 288.95,161.8) ">
<g transform="matrix( 0.328155517578125, 0, 0, 0.3170623779296875, 74.35,219.7) ">
<g transform="matrix( 1, 0, 0, 1, 0,0) ">
<use xlink:href="#Duplicate_Items_Folder_Symbol_17_0_Layer0_0_FILL"/>
</g>
</g>
</g>

<g transform="matrix( 0.7629852294921875, 0, 0, 0.7629852294921875, 320.8,269.9) ">
<g transform="matrix( 1.08441162109375, 0, 0, 0.7657928466796875, -9.25,75.4) ">
<g transform="matrix( 1, 0, 0, 1, 0,0) ">
<use xlink:href="#Duplicate_Items_Folder_Symbol_17_4_Layer0_0_FILL"/>
</g>
</g>
</g>
</g>

<g transform="matrix( 0.962310791015625, 0.271881103515625, -0.271881103515625, 0.962310791015625, 142.55,139.9) ">
<g transform="matrix( 1, 0, 0, 1, 0,0) ">
<use xlink:href="#Symbol_151_1_Layer1_0_FILL"/>
</g>
</g>

<g transform="matrix( 1.16143798828125, -0.2888946533203125, 0.2888946533203125, 1.16143798828125, 299.35,362.05) ">
<g transform="matrix( 1, 0, 0, 1, 0,0) ">
<use xlink:href="#Symbol_38_0_Layer1_0_FILL"/>
</g>
</g>

<g transform="matrix( 1.007965087890625, 0, 0, 1.089935302734375, 10.1,-17.65) ">
<g transform="matrix( 0.8552398681640625, 0, 0, 0.5524444580078125, 173.7,31.75) ">
<g transform="matrix( 0.6097259521484375, 0, 0, 0.8649139404296875, 43.2,43.5) ">
<g transform="matrix( 1, 0, 0, 1, 0,0) ">
<use xlink:href="#Duplicate_Items_Folder_Symbol_17_0_Layer0_0_FILL"/>
</g>
</g>
</g>

<g transform="matrix( -0.7543792724609375, 0, 0, 0.7543792724609375, 345.75,162.8) ">
<g transform="matrix( 1.42828369140625, 0, 0, 1.17510986328125, -47.25,-56.2) ">
<g transform="matrix( 1, 0, 0, 1, 0,0) ">
<use xlink:href="#Duplicate_Items_Folder_Symbol_17_2_Layer0_0_FILL"/>
</g>
</g>
</g>

<g transform="matrix( 0.7543792724609375, 0, 0, 0.7543792724609375, -21.05,202.65) ">
<g transform="matrix( 0.328155517578125, 0, 0, 0.3170623779296875, 74.35,219.7) ">
<g transform="matrix( 1, 0, 0, 1, 0,0) ">
<use xlink:href="#Duplicate_Items_Folder_Symbol_17_0_Layer0_0_FILL"/>
</g>
</g>
</g>

<g transform="matrix( 0.7629852294921875, 0, 0, 0.7629852294921875, 320.8,269.9) ">
<g transform="matrix( 1.313751220703125, 0, 0, 1.2186737060546875, -34.6,-70.25) ">
<g transform="matrix( 1, 0, 0, 1, 0,0) ">
<use xlink:href="#Duplicate_Items_Folder_Symbol_17_1_Layer0_0_FILL"/>
</g>
</g>
</g>
</g>

<g transform="matrix( -0.638885498046875, 0, 0, 0.9207611083984375, 419.7,5.85) ">
<g transform="matrix( 0, 0.4279327392578125, -0.6338958740234375, 0, 386.9,621.95) ">
<g transform="matrix( 1, 0, 0, 1, 0,0) ">
<use xlink:href="#Blaze_Blaze_fire_stream_5_Layer0_0_FILL"/>
</g>
</g>

<g transform="matrix( 0, 0.370941162109375, -0.681060791015625, 0, 231.75,620.75) ">
<g transform="matrix( 1, 0, 0, 1, 0,0) ">
<use xlink:href="#Blaze_Blaze_fire_stream_2_Layer0_0_FILL"/>
</g>
</g>

<g transform="matrix( 0, 0.370941162109375, -0.681060791015625, 0, 567.4,622.05) ">
<g transform="matrix( 1, 0, 0, 1, 0,0) ">
<use xlink:href="#Blaze_Blaze_fire_stream_0_Layer0_0_FILL"/>
</g>
</g>
</g>

<g transform="matrix( 0.638885498046875, 0, 0, 0.9207611083984375, 27.95,7.15) ">
<g transform="matrix( 0, 0.4279327392578125, -0.6338958740234375, 0, 386.9,621.95) ">
<g transform="matrix( 1, 0, 0, 1, 0,0) ">
<use xlink:href="#Blaze_Blaze_fire_stream_5_Layer0_0_FILL"/>
</g>
</g>

<g transform="matrix( 0, 0.370941162109375, -0.681060791015625, 0, 231.75,620.75) ">
<g transform="matrix( 1, 0, 0, 1, 0,0) ">
<use xlink:href="#Blaze_Blaze_fire_stream_2_Layer0_0_FILL"/>
</g>
</g>

<g transform="matrix( 0, 0.370941162109375, -0.681060791015625, 0, 567.4,622.05) ">
<g transform="matrix( 1, 0, 0, 1, 0,0) ">
<use xlink:href="#Blaze_Blaze_fire_stream_0_Layer0_0_FILL"/>
</g>
</g>
</g>
</g>
</g>
</svg>
