
<svg xmlns="http://www.w3.org/2000/svg" version="1.1" xmlns:xlink="http://www.w3.org/1999/xlink" preserveAspectRatio="none" x="0px" y="0px" width="1000px" height="1000px" viewBox="0 0 1000 1000">
<defs>
<linearGradient id="Gradient_1" gradientUnits="userSpaceOnUse" x1="-1406.2875" y1="298.425" x2="-1287.9125" y2="305.77500000000003" spreadMethod="pad">
<stop  offset="0%" stop-color="#FFFF66"/>

<stop  offset="100%" stop-color="#FFFFFF"/>
</linearGradient>

<linearGradient id="Gradient_2" gradientUnits="userSpaceOnUse" x1="-1573.125" y1="312.48749999999995" x2="-798.2750000000001" y2="281.3125" spreadMethod="pad">
<stop  offset="0%" stop-color="#FF6600"/>

<stop  offset="50.19607843137255%" stop-color="#FFCC00"/>

<stop  offset="100%" stop-color="#FFFFFF"/>
</linearGradient>

<linearGradient id="Gradient_3" gradientUnits="userSpaceOnUse" x1="-478.90000000000003" y1="352.4125" x2="-406.8" y2="329.2875" spreadMethod="pad">
<stop  offset="0%" stop-color="#FF6600"/>

<stop  offset="50.19607843137255%" stop-color="#FFCC00"/>

<stop  offset="100%" stop-color="#FFFFFF"/>
</linearGradient>

<linearGradient id="Gradient_4" gradientUnits="userSpaceOnUse" x1="-654.5749999999999" y1="77.6375" x2="-595.525" y2="144.66250000000002" spreadMethod="pad">
<stop  offset="0%" stop-color="#FF6600"/>

<stop  offset="50.19607843137255%" stop-color="#FFCC00"/>

<stop  offset="100%" stop-color="#FFFFFF"/>
</linearGradient>

<linearGradient id="Gradient_5" gradientUnits="userSpaceOnUse" x1="-149.725" y1="328" x2="-56.974999999999994" y2="317.79999999999995" spreadMethod="pad">
<stop  offset="0%" stop-color="#FF6600"/>

<stop  offset="50.19607843137255%" stop-color="#FFCC00"/>

<stop  offset="100%" stop-color="#FFFFFF"/>
</linearGradient>

<linearGradient id="Gradient_6" gradientUnits="userSpaceOnUse" x1="-1183.8625" y1="247.9" x2="-513.1375" y2="306.6" spreadMethod="pad">
<stop  offset="0%" stop-color="#FFFF66"/>

<stop  offset="100%" stop-color="#FFFFFF"/>
</linearGradient>

<linearGradient id="Gradient_7" gradientUnits="userSpaceOnUse" x1="-1085.55" y1="260.3875" x2="-599.05" y2="290.41249999999997" spreadMethod="pad">
<stop  offset="0%" stop-color="#FFFF66"/>

<stop  offset="100%" stop-color="#FFFFFF"/>
</linearGradient>

<linearGradient id="Gradient_8" gradientUnits="userSpaceOnUse" x1="-1381.9875000000002" y1="281.975" x2="-51.21249999999998" y2="299.525" spreadMethod="pad">
<stop  offset="0%" stop-color="#FF6600"/>

<stop  offset="50.19607843137255%" stop-color="#FFCC00"/>

<stop  offset="100%" stop-color="#FFFFFF"/>
</linearGradient>

<linearGradient id="Gradient_9" gradientUnits="userSpaceOnUse" x1="-126.975" y1="315.7" x2="-93.525" y2="318.2" spreadMethod="pad">
<stop  offset="0%" stop-color="#FFFF66"/>

<stop  offset="100%" stop-color="#FFFFFF"/>
</linearGradient>

<linearGradient id="Gradient_10" gradientUnits="userSpaceOnUse" x1="-430.975" y1="323.0125" x2="-294.525" y2="281.8875" spreadMethod="pad">
<stop  offset="0%" stop-color="#FFFF66"/>

<stop  offset="100%" stop-color="#FFFFFF"/>
</linearGradient>

<linearGradient id="Gradient_11" gradientUnits="userSpaceOnUse" x1="107.63750000000002" y1="328.63750000000005" x2="155.4625" y2="18.56249999999997" spreadMethod="pad">
<stop  offset="18.823529411764707%" stop-color="#FFFFFF"/>

<stop  offset="38.03921568627451%" stop-color="#FFFF99"/>

<stop  offset="90.19607843137256%" stop-color="#FF6600"/>
</linearGradient>

<linearGradient id="Gradient_12" gradientUnits="userSpaceOnUse" x1="94.19999999999999" y1="362.975" x2="149" y2="7.324999999999989" spreadMethod="pad">
<stop  offset="18.823529411764707%" stop-color="#FFFFFF"/>

<stop  offset="38.03921568627451%" stop-color="#FFFF99"/>

<stop  offset="90.19607843137256%" stop-color="#FF6600"/>
</linearGradient>

<linearGradient id="Gradient_13" gradientUnits="userSpaceOnUse" x1="106.8875" y1="335.55" x2="131.9125" y2="88.34999999999998" spreadMethod="pad">
<stop  offset="18.823529411764707%" stop-color="#FFFFFF"/>

<stop  offset="38.03921568627451%" stop-color="#FFFF99"/>

<stop  offset="90.19607843137256%" stop-color="#FF6600"/>
</linearGradient>

<linearGradient id="Gradient_14" gradientUnits="userSpaceOnUse" x1="109.14999999999999" y1="360.1125" x2="152.75" y2="40.38749999999999" spreadMethod="pad">
<stop  offset="18.823529411764707%" stop-color="#FFFFFF"/>

<stop  offset="38.03921568627451%" stop-color="#FFFF99"/>

<stop  offset="90.19607843137256%" stop-color="#FF6600"/>
</linearGradient>

<linearGradient id="Gradient_15" gradientUnits="userSpaceOnUse" x1="101.77499999999999" y1="336.26250000000005" x2="155.125" y2="74.3375" spreadMethod="pad">
<stop  offset="18.823529411764707%" stop-color="#FFFFFF"/>

<stop  offset="38.03921568627451%" stop-color="#FFFF99"/>

<stop  offset="90.19607843137256%" stop-color="#FF6600"/>
</linearGradient>

<linearGradient id="Gradient_16" gradientUnits="userSpaceOnUse" x1="99.5" y1="334.7875" x2="125.69999999999999" y2="143.61249999999998" spreadMethod="pad">
<stop  offset="18.823529411764707%" stop-color="#FFFFFF"/>

<stop  offset="38.03921568627451%" stop-color="#FFFF99"/>

<stop  offset="90.19607843137256%" stop-color="#FF6600"/>
</linearGradient>

<linearGradient id="Gradient_17" gradientUnits="userSpaceOnUse" x1="102.28750000000001" y1="354.525" x2="129.01250000000002" y2="89.37499999999997" spreadMethod="pad">
<stop  offset="18.823529411764707%" stop-color="#FFFFFF"/>

<stop  offset="38.03921568627451%" stop-color="#FFFF99"/>

<stop  offset="90.19607843137256%" stop-color="#FF6600"/>
</linearGradient>

<g id="Blaze_Blaze_fire_stream_4_Layer0_0_FILL">
<path fill="#FF9900" stroke="none" d="
M -768.7 416.5
L -766.35 414.15
Q -767.75 413.4 -780.3 410.2 -792.55 407.1 -793.4 407.1 -807.25 407.1 -840.2 425.9 -857 435.45 -874.2 447.05 -876.35 444.9 -889.6 437.45 -905.95 428.25 -912.95 428.25 -916.35 428.25 -920.6 429.45 -923.3025390625 430.18125 -924.6 430.45 -912.878515625 430.828515625 -900.9 443.9 -897.05 448.1 -891.1 456.15 -885.6 463.55 -883.6 465.55 -881 462.65 -867.75 456.05 -859.7263671875 452.064453125 -854.15 450.4 -835.48515625 434.9474609375 -812.25 426.45 -800.3 422.15 -786.6 419.45 -772.95 417.25 -768.7 416.5
M -1075.4 519.6
Q -1072.7 522.5 -1060.55 527 -1049.6 531.1 -1047.5 531.1 -1042.1 531.1 -1031.05 526.65 -1019.3 521.9 -1019.3 518.45 -1019.3 511.5048828125 -1021.05 504.4 -1027.1939453125 508.365234375 -1035.2 511.7 -1046.85 516.6 -1059.45 518.8 -1070.55 520.7 -1075.4 519.6
M -1038.1 51.4
Q -1043 51.4 -1050.05 56.15 -1052.85 58.1 -1063.35 66.7 -1072.25 73.9 -1078.1 77.2 -1086.65 81.95 -1094.2 81.95 -1098.45 81.95 -1102.8 80.5 -1104.4681640625 79.928125 -1109.95 77.5 -1120.358984375 84.7541015625 -1134.5 98.35 -1143.65 107.15 -1151.3 115.75 -1158.4 123.7 -1159.7 126.3
L -1159.7 128.65
Q -1152.8 117.35 -1135.65 108 -1117.55 98.1 -1101.25 98.1 -1097.4 98.1 -1095.2 99.55 -1094.8 99.85 -1091.85 102.8 -1094.3 106.55 -1098.9 114.55
L -1098.9 116.9
Q -1091.65 108.1 -1062.05 97.35 -1032.55 86.65 -1015.75 86.65 -1001.45 86.65 -998.2 87.4 -992.75 88.6 -979.35 96.05
L -977 96.05
Q -994.05 74.45 -1011.6 62.25 -1027.3 51.4 -1038.1 51.4
M -1374.1 236.05
Q -1374.7525390625 235.75234375 -1375.4 235.45 -1375.2986328125 235.888671875 -1375.2 236.3
L -1374.1 236.05
M -1307.15 81.95
L -1309.5 81.95 -1308.65 83.05
Q -1307.8853515625 82.43125 -1307.15 81.95
M -1218.6 553.45
L -1217.85 554.7
Q -1215.8671875 553.4859375 -1214.4 552.7 -1216.0865234375 553.003125 -1218.6 553.45
M -544.3 484.35
Q -544.3 475.85 -555.65 467.95 -568.8625 458.82578125 -588.55 458.8 -574.738671875 466.151953125 -568.55 473.1 -556.5 486.55 -562.8 505.5
L -562.8 510.2
Q -554.65 502.05 -552.1 499.05 -544.3 489.8 -544.3 484.35
M -473.8 486.7
Q -477 479.95 -485.75 477.6 -491.794140625 475.9939453125 -497.55 476.9 -498.0119140625 477.5169921875 -498.55 478.35 -499.95 480.6 -502 482
L -502 489.05
Q -499.8 489.05 -497.15 490.25 -494.5 491.4 -491.4 491.4 -488.35 491.4 -482.15 489.05 -476 486.7 -473.8 486.7
M -361.6 339.25
L -359.25 339.25
Q -362.119140625 337.8453125 -365 336.5
L -365.25 337.15
Q -363.2458984375 338.140234375 -361.6 339.25
M -469.65 372.1
Q -469.60546875 370.9677734375 -469.6 369.85
L -471.5 369.8
Q -470.5078125 370.8970703125 -469.65 372.1
M -731.4 65.5
Q -730.655859375 66.0033203125 -729.9 66.55
L -729.05 65.5 -731.4 65.5
M -163.4 296.7
Q -162.7 293.34921875 -162.7 289.05 -162.7 272.05 -181.05 260.95 -183.20390625 259.65 -185.5 258.5 -184.269140625 262.2712890625 -182.6 268.6 -180.65 276.1 -179.15 278.45 -172.75 288.7 -168.3 293.05 -165.913671875 295.380859375 -163.4 296.7
M -274.95 147.45
L -272.85 147.45
Q -284.8 134.1 -299.05 127.6 -314.030078125 120.7576171875 -327.3 124.15 -330.3353515625 124.4259765625 -333.65 125.1 -350.7361328125 128.5671875 -374.4 142.6 -386.3 149.65 -396.35 157.4 -404.0486328125 163.35078125 -407.2 166.95 -398.592578125 163.6548828125 -371.55 153.8 -338.75 141.85 -336.05 140.4 -336.05 142.75 -334.7 149.8 -333.4 156.85 -333.4 159.2
L -331.35 159.2
Q -330.95 144.4 -326.1 141.65 -323.9 140.4 -319.35 140.3 -313.1 140.4 -309 140.4 -294.3 140.4 -290.1 140.95 -280.1 142.25 -274.95 147.45
M 75.75 -55.8
Q 70.009375 -76.7025390625 59.25 -90.8 65.6478515625 -80.061328125 68.9 -66.25 70.75 -58.35 72.6 -42.95 74.05 -31.1 75.75 -27.9
L 75.75 -55.8
M -166.15 -124.9
Q -168.967578125 -122.2611328125 -171.85 -119.45 -155.9013671875 -129.75078125 -131.55 -137.4 -109.9 -144.15 -88.2 -146.9 -69.592578125 -149.231640625 -61.1 -147.5 -64.3931640625 -148.4955078125 -72.7 -152.05 -84.270703125 -155.823046875 -99.45 -156.45
L -116 -154.2
Q -138.95 -150.3 -166.15 -124.9
M -739.65 -2.05
L -745.5 -2.05
Q -733.6 1.4 -712.4 23.3 -705.95 30 -698.45 38.6 -692.2 45.95 -691.45 46.7 -684.9638671875 42.6912109375 -683.1 32.35 -690.7244140625 17.627734375 -705.25 8.45 -721.8 -2.05 -739.65 -2.05 Z"/>

<path fill="#FFFF99" stroke="none" d="
M -1454.7 367.3
Q -1454.8734375 367.277734375 -1455.05 367.25 -1454.8982421875 367.3369140625 -1454.75 367.4
L -1454.7 367.3
M -1381.1 316.3
Q -1380.00390625 316.6310546875 -1378.45 317.35
L -1378.35 316.5
Q -1379.64296875 316.4650390625 -1381.1 316.3 Z"/>

<path fill="url(#Gradient_1)" stroke="none" d="
M -1203.45 272.3
Q -1208.480078125 272.7078125 -1214.1 272.85 -1230.2 273.25 -1233.2 273.45 -1243.4 274.1 -1249.9 276.1 -1265.4 280.8 -1276.9 287.2 -1284.05 291.15 -1292.65 297.85 -1300.65 304.05 -1304.3 305.85 -1310.6 309 -1318.9 309 -1332.5 309 -1338.1 299.05 -1340.2 295.35 -1342.15 288.55 -1344.3 280.45 -1345.65 276.1 -1364.1 270 -1372.55 245.45 -1374.05390625 241.0830078125 -1375.2 236.3 -1375.2986328125 235.888671875 -1375.4 235.45 -1391.02265625 228.1884765625 -1400.1 220.6 -1402.426171875 218.6466796875 -1404.6 216.5 -1405.124609375 218.128125 -1405.7 219.8 -1413.5 242.35 -1413.5 244.65 -1413.5 248.85 -1405.45 255.55 -1404.1 256.7 -1387.8 268.65 -1375.85 277.45 -1370.15 283.8 -1362.1 292.75 -1362.1 300.8 -1362.1 310.8 -1367.45 314.35 -1371.2451171875 316.8798828125 -1378.35 316.5
L -1378.45 317.35
Q -1374.9 319 -1371.4 321.55 -1363.5884765625 327.26171875 -1362.35 332.55 -1362.3134765625 332.61484375 -1362.3 332.65 -1395.1634765625 359.2197265625 -1415 365.4 -1422.3 367.65 -1429.7 367.8 -1433.95 367.85 -1441.7 367.45 -1453.65 367.45 -1454.7 367.3
L -1454.75 367.4
Q -1446.6685546875 372.0541015625 -1443.65 373.65 -1436.75 377.25 -1432.15 378.35 -1427.95 379.4 -1421.15 379.4 -1411.15 379.2 -1403.2 379.2 -1387 379.2 -1381.2 374.45 -1377.8 371.65 -1376.35 363.95 -1374.9 356.4 -1370.8 353.4 -1364.25 348.65 -1346.8 348.65 -1343.9 348.65 -1328.15 351 -1312.45 353.35 -1309.5 353.35 -1303 353.35 -1297.55 350.6 -1296.1 349.85 -1287.95 344.4 -1274.25 335.2 -1254.3 334.55 -1254.3 330.8 -1251.25 322.3 -1247.1 310.55 -1239.8 300.4 -1225.5298828125 280.62890625 -1203.45 272.3 Z"/>

<path fill="url(#Gradient_2)" stroke="none" d="
M -836.95 235.05
Q -832.590625 236.503125 -817.75 246.5 -829.280859375 238.396875 -853.1 219.25 -880.7 197.05 -890.65 187.1 -898.9 199.4 -921.75 207.1 -927.8 209.1 -939.35 212.8 -948.85 216.2 -953.8 220 -956 221.75 -956 225.4 -955.95 226.4 -954.95 233.5 -953 246.75 -958.5 257.3 -966.85 273.55 -974.3 280 -980.65 285.5 -988.75 285.5 -1009.15 285.5 -1021.8 280.5 -1045.7 271.05 -1042.5 245.55 -1047.65 245.55 -1069.1 246.75 -1090.5 247.9 -1093 247.9 -1106.05 247.9 -1108.6 247.4 -1116.5 245.8 -1119.75 238.5 -1112.6 227.95 -1089.75 219.9 -1077.154296875 215.467578125 -1067.15 213.85 -1075.8681640625 212.4806640625 -1082.15 210.75 -1087.5 209.25 -1094.55 206.15 -1100.5 203.55 -1105.35 202.6 -1112.65 201.2 -1125.9 201.2 -1142.75 201.2 -1156.6 207.4 -1166.75 211.95 -1177.3 221.05 -1183.1 226 -1192.75 234.65 -1200.75 240.85 -1207.6 240.85 -1214.8 240.85 -1215.9 240.55 -1219.55 239.5 -1222.85 234.1 -1219.7 229.9 -1213.6 220.55 -1206.25 209.25 -1203.1 204.7 -1190.1951171875 186.101953125 -1179.65 178.5 -1202.5958984375 184.2771484375 -1237.45 207.9 -1260.35 223.4 -1262.05 224.5 -1266.2693359375 227.12578125 -1269.65 228.8 -1273.2873046875 206.0126953125 -1257.1 187.95 -1251.65 181.85 -1244.65 177.15 -1239.45 173.7 -1236.95 173 -1243.5 167.15 -1250.85 164.7 -1254.7 163.45 -1261.9 162.6 -1267.45 161.95 -1269.25 160.45 -1271.9 158.3 -1271.9 152.15 -1271.9 127.15 -1256.7 107.3 -1244.05 90.8 -1221.8 78.9 -1204.3796875 69.625390625 -1184.1 64.5 -1190.9546875 60.239453125 -1197.9 58.4 -1206.7 56.1 -1224.05 56.1 -1273.2 56.1 -1295.4 89 -1303.2 100.6 -1306.9 115.2 -1309.5 125.6 -1309.5 134.5 -1309.5 141.1 -1307.9 144.6 -1306.15 148.45 -1300.1 154.5 -1304.4 159.1 -1309.5 163.9 -1310.9482421875 165.2619140625 -1311.9 166.25 -1314.8630859375 164.541015625 -1317.7 162.3 -1333 150.35 -1333 134.5 -1333 121.45 -1322.95 102.95 -1314.9234375 88.1900390625 -1308.65 83.05
L -1309.5 81.95
Q -1328.45 86.3 -1343.6 107.85 -1358.55 129.15 -1358.55 150.95 -1358.55 155.4 -1352.4 168.6 -1346.5 181.3 -1342.1 187.1 -1352.15 188.05 -1358.55 192.25 -1367.95 198.4 -1367.95 210.6 -1367.95 221.35 -1360.75 233.25 -1355.95 241.15 -1349.15 247.9 -1352.75 245.75 -1374.1 236.05
L -1375.2 236.3
Q -1374.05390625 241.0830078125 -1372.55 245.45 -1364.1 270 -1345.65 276.1 -1344.3 280.45 -1342.15 288.55 -1340.2 295.35 -1338.1 299.05 -1332.5 309 -1318.9 309 -1310.6 309 -1304.3 305.85 -1300.65 304.05 -1292.65 297.85 -1284.05 291.15 -1276.9 287.2 -1265.4 280.8 -1249.9 276.1 -1243.4 274.1 -1233.2 273.45 -1230.2 273.25 -1214.1 272.85 -1208.480078125 272.7078125 -1203.45 272.3 -1191.41015625 267.811328125 -1177.05 266.7
L -1175 266.7
Q -1185.4697265625 270.997265625 -1203.45 272.3 -1225.5298828125 280.62890625 -1239.8 300.4 -1247.1 310.55 -1251.25 322.3 -1254.3 330.8 -1254.3 334.55 -1274.25 335.2 -1287.95 344.4 -1296.1 349.85 -1297.55 350.6 -1303 353.35 -1309.5 353.35 -1312.45 353.35 -1328.15 351 -1343.9 348.65 -1346.8 348.65 -1364.25 348.65 -1370.8 353.4 -1374.9 356.4 -1376.35 363.95 -1377.8 371.65 -1381.2 374.45 -1387 379.2 -1403.2 379.2 -1411.15 379.2 -1421.15 379.4 -1427.95 379.4 -1432.15 378.35 -1436.75 377.25 -1443.65 373.65 -1446.6685546875 372.0541015625 -1454.75 367.4 -1454.8982421875 367.3369140625 -1455.05 367.25 -1459.8564453125 366.516015625 -1462.85 362.75 -1458.49609375 365.271484375 -1455.05 367.25 -1454.8734375 367.277734375 -1454.7 367.3 -1453.65 367.45 -1441.7 367.45 -1433.95 367.85 -1429.7 367.8 -1422.3 367.65 -1415 365.4 -1395.1634765625 359.2197265625 -1362.3 332.65 -1362.3134765625 332.61484375 -1362.35 332.55 -1363.5884765625 327.26171875 -1371.4 321.55 -1374.9 319 -1378.45 317.35 -1380.00390625 316.6310546875 -1381.1 316.3 -1379.64296875 316.4650390625 -1378.35 316.5 -1371.2451171875 316.8798828125 -1367.45 314.35 -1362.1 310.8 -1362.1 300.8 -1362.1 292.75 -1370.15 283.8 -1375.85 277.45 -1387.8 268.65 -1404.1 256.7 -1405.45 255.55 -1413.5 248.85 -1413.5 244.65 -1413.5 242.35 -1405.7 219.8 -1405.124609375 218.128125 -1404.6 216.5 -1428.8 192.0216796875 -1428.8 141.25 -1428.8 133.05 -1429.95 123.95 -1430.5703125 119.246484375 -1430.9 116.9 -1434.13046875 120.8564453125 -1439.3 128.5 -1445.9349609375 138.4125 -1447.3 143.05 -1445.3275390625 147.2794921875 -1442.9 152.15 -1447.6 152.15 -1447.6 145.1 -1447.6 144.257421875 -1447.3 143.05 -1451.6744140625 133.543359375 -1453.55 127.5 -1457 116.6 -1457 103.95 -1457 91.85 -1453.8 79.3 -1450.1 64.95 -1442.95 53.75 -1425 25.55 -1391.45 25.55 -1380.7 25.55 -1367.1 31.4 -1358.65 35 -1351.5 39.65 -1355.15 36 -1360.45 28.1 -1367.7 17.35 -1369.45 15.1 -1380.95 0 -1393.8 0 -1401.85 0 -1418.4 5.9 -1434.95 11.75 -1440.55 11.75 -1443.45 11.75 -1456.4 9.4 -1469.3 7.05 -1472.25 7.05 -1478.15 7.05 -1493.85 20.5 -1511.1 35.3 -1527.3 56.05 -1546.75 80.95 -1558.05 106.55 -1571.55 137.05 -1571.55 164.75 -1571.55 168.6169921875 -1570.65 172.55 -1573.7919921875 174.45390625 -1577.2 176.4 -1601.3 190.2 -1606.1 193.45 -1621 203.6 -1628.2 215.2 -1637.05 229.35 -1637.05 249.1 -1637.05 257.7 -1633.5 266.95 -1630 276.2 -1630 280.8 -1630 281.35 -1633.5 298.05 -1637.05 314.8 -1637.05 322.8 -1637.05 336.6 -1634.45 348.9 -1632.5 358.15 -1627.65 372.15 -1625.95 377.25 -1618.05 388.25 -1610.45 398.8 -1604.45 404.75 -1605.85 429.75 -1602.25 444.9 -1597.1564453125 466.19296875 -1582.45 474.5 -1584.38984375 471.7900390625 -1585.15 468.15 -1585.65 465.6 -1585.65 452.65 -1585.65 417.95 -1566.9 395.45 -1559.3 386.35 -1550.1 381.25 -1541.55 376.55 -1534.25 376.55 -1531.15 376.55 -1525.55 379.05 -1520 381.55 -1517.8 381.55 -1517.85 381.7 -1522.7 389.45 -1527.2 396.6 -1527.2 398.9 -1527.2 401.85 -1524.85 403 -1522.5 404.2 -1522.5 407.1 -1522.5 407.85 -1528.2 420.7 -1533.95 435.1 -1533.95 443.55 -1533.95 450.15 -1528.3 454.25 -1524.7 456.85 -1515.75 459.9 -1506.3 463.15 -1502.95 465.25 -1497.05 469 -1496.65 474.95 -1495.95 485.45 -1488.7 496.55 -1484.35 502.85 -1482.1 506.2 -1478 512.2 -1475.5 517.25 -1472.45 514.05 -1470.4 508.35 -1468.15 501.2 -1466.65 496.95 -1460.6 480.1 -1445.25 465.55 -1432.4 453.55 -1405.75 449.8 -1395.05 448.35 -1385.7 448.85 -1376.6 449.35 -1372.65 451.45 -1376.6 443.85 -1384.8 438.15 -1392.25 432.95 -1397.35 432.95 -1397.9 432.95 -1407.35 436.5 -1416.85 440 -1419.4 440
L -1419.4 423.55
Q -1413.9 418.35 -1405.7 411.15 -1402.4875 408.3181640625 -1399.65 405.65 -1392.5552734375 411.7662109375 -1383.3 412.1 -1378.65 412.25 -1371.85 410.9 -1364.8 409.45 -1363.25 409.45 -1363.85 418.2 -1359.95 421.95 -1357.2 424.55 -1351 425.3 -1342.75 426.25 -1341.7 426.6 -1337.4 428.1 -1337.4 432.95 -1337.4 439.55 -1341.8 444.35 -1344.45 447.25 -1351.5 452.9 -1357.95 458.8 -1361.2 466.35 -1365.6 476.65 -1365.6 492.6 -1365.6 504.5 -1359.8 516.65 -1354.25 528.4 -1344.45 538.05 -1334.5 547.85 -1322.4 553.4 -1309.55 559.3 -1296.6 559.3 -1291.9 559.3 -1283.8 557.85 -1275.25 556.3 -1271.9 554.6
L -1269.55 554.6
Q -1273.15 558.75 -1274 565.25 -1274.25 567.1 -1274.25 574.55 -1274.25 593.45 -1263.9 600.6 -1258.923828125 604.02734375 -1251.45 604.85 -1255.45 599.912890625 -1255.45 586.3 -1255.45 582.25 -1236.55 567.95 -1224.41015625 558.773828125 -1217.85 554.7
L -1218.6 553.45
Q -1225.35 554.6 -1228.75 554.6 -1231.25 554.6 -1239.75 553.45 -1248.25 552.25 -1253.4 552.25
L -1253.4 526.65
Q -1257.95 525.8 -1270.6 523.5 -1282.45 521.05 -1290.6 517.4 -1314.2 506.95 -1314.2 484.35 -1314.2 461.25 -1299.8 447.3 -1294.65 442.3 -1286.1 436.95 -1276.4 431.2 -1271.9 428.25 -1271.9 429 -1273.05 432.8 -1274.25 436.65 -1274.25 440 -1274.25 450.1 -1270.35 453.75 -1265.15 456.9 -1262.5 460.85
L -1260.45 460.85
Q -1260.25 458.6 -1258.3 453.85 -1257.7681640625 452.58359375 -1257.35 451.55 -1257.4751953125 450.84921875 -1257.5 450.7 -1257.8 448.85 -1257.8 444.7 -1257.8 431.25 -1244.4 418.25 -1233.1 407.25 -1222.85 404.75 -1224.9 383.9 -1215.55 369.05 -1207.6 356.45 -1189.95 346.3 -1192.8 362.6 -1176.6 380.25 -1173.4 383.75 -1163.1 393.45 -1155.3 400.8 -1152.65 404.75
L -1150.3 404.75
Q -1150.3 404 -1151.45 400.2 -1152.65 396.4 -1152.65 393 -1152.65 373 -1146.45 365.6 -1141.75 360.1 -1131.6 360.5 -1119.65 362.05 -1113.85 361.75 -1103.85 361.2 -1098.9 353.35 -1072.1 311.05 -1015.75 311.05 -995.75 311.05 -981.95 316.2 -970.25 320.6 -965.55 327.5 -956.75 320.45 -947.9 298.95 -943.05 286.55 -940.55 280.25 -936.1 268.85 -932.65 262 -927.1 251.1 -905.35 242.9 -882.15 234.1 -854.2 234.1 -846.55 233.95 -843.9 234.05 -839.85 234.1 -836.95 235.05 Z"/>

<path fill="url(#Gradient_3)" stroke="none" d="
M -498.45 363.3
Q -495.9 362.75 -487.9 362.75 -477.9 362.75 -471.5 369.8
L -469.6 369.85
Q -469.4 364.7068359375 -469.4 360.4 -469.4 341.85 -445.9 334.55 -430.85 329.85 -405.05 329.85 -392.2 329.85 -380.55 332.25 -371.2796875 334.1640625 -365.25 337.15
L -365 336.5
Q -378.78359375 330.125 -392.25 325.65 -402.3615234375 322.294921875 -411.1 320.5 -421.203515625 318.4 -429.45 318.4 -440.1 318.4 -453.5 323.15 -457.95 324.7 -469.55 329.65 -476.9681640625 334.631640625 -484.5 341.35 -494.05 349.85 -502.05 359.75 -508.35 367.6 -509.05 369.8 -504.45 364.6 -498.45 363.3 Z"/>

<path fill="url(#Gradient_4)" stroke="none" d="
M -626.25 84.3
Q -618.5 84.3 -612.35 87.9 -607.75 90.6 -602.2 96.65 -592.45 107.25 -592.35 107.35 -586.1453125 113.4068359375 -579.45 116.8 -581.92734375 89.75546875 -592.55 74.3 -603.45 58.45 -620.4 58.45 -620.8 58.45 -648.45 67.85 -676.05 77.25 -676.5 77.25 -680.8 77.25 -702 72.7 -724.15 67.95 -729.05 65.5
L -729.9 66.55
Q -725.2859375 69.8984375 -719.35 75.45 -710.55 83.65 -707.8 85.9 -693.05 97.9 -672.95 100.75 -680.6681640625 113.9412109375 -683.35 117.7 -669.84453125 103.9865234375 -663 98.75 -644.15 84.3 -626.25 84.3 Z"/>

<path fill="url(#Gradient_5)" stroke="none" d="
M -176.8 327.5
L -176.8 329.85
Q -150.5 316.5 -143.5 314.75 -139.25 313.65 -133.3 313.6 -124.9 313.7 -118.35 313.7 -93.4 313.7 -80.3 319.5 -60.75 328.15 -71.35 348.65 -70.45 348.65 -66.35 349.85 -62.25 351 -59.6 351
L -52.55 315.75 -52.55 297.25
Q -68.6 295.8 -99.4 296.35 -115.1 296.65 -131.3 297.25 -137.45 297.25 -148.1 298.2 -155.8 298.9 -159.2 298.2 -161.3361328125 297.7771484375 -163.4 296.7 -163.670703125 298.1970703125 -164.1 299.5 -165.05 302.5 -167.55 306.5 -174.15 317.05 -176.8 327.5 Z"/>
</g>

<g id="Blaze_Blaze_fire_stream_2_Layer0_0_FILL">
<path fill="#FF9900" stroke="none" d="
M -265.55 524.3
Q -269.25 521.75 -276.6 521.85 -288.75 522 -288.95 521.95 -295.7 521.3 -299 516.8 -301.9955078125 512.7216796875 -302.85 504.95 -309.29453125 511.641015625 -312.15 515.65 -321.95 529.4 -321.95 545.45 -321.95 564.1 -303.95 574.05 -297.1 577.8 -284.6 582.05 -269.4 587 -261.1 589.85 -269.7 581.4 -276.3 574.05 -289.05 559.8 -289.05 553.4 -289.05 548.15 -279.7 537 -270.7 526.15 -265.55 524.3
M -1.55 529.9
Q -3.5 535.6 -3.5 538.4 10.45 535.9 16.5 530.5 22 525.6 22 517.25 22 511.3 14 507.15 10.201953125 505.1640625 5.85 504.15 5.0609375 510.84140625 2.45 518.65 1.1 522.75 -1.55 529.9
M -123.8 588.55
Q -136.55 590.75 -141.55 592.2 -138.15 599.1 -116.7 603.2 -100.6 606.3 -87.8 606.3 -78.55 597.8 -68.65 587.95 -49.53515625 568.9794921875 -45.8 562.15 -49.3623046875 562.991015625 -57.7 565.2 -71.1890625 568.0787109375 -84.45 568.6 -94.53671875 579.699609375 -106.35 584.2 -112.7 586.6 -123.8 588.55
M -827.05 163.65
Q -826.0076171875 161.4826171875 -824.65 159.25
L -826.55 159
Q -826.791015625 161.26953125 -827.05 163.65
M -160.15 463
L -161 461.7
Q -163.66875 465.59375 -164.8 467.65 -163.2255859375 464.9455078125 -160.15 463
M -126.2 102.7
Q -126.1685546875 102.8966796875 -126.15 103.1
L -126.05 103.05
Q -126.105859375 102.8890625 -126.2 102.7
M -275.25 -4.4
Q -276.2166015625 -4.184375 -278.65 -2.95 -281.92578125 -1.205859375 -287.85 2.45 -301.3 10.75 -307.85 18.8
L -307.85 30.55
Q -301.5 28.35 -292.55 26.15 -281.85 23.5 -277.3 23.5 -277.3 24.1 -277 24.7 -276.4 25.85 -274.95 25.85 -274.95 30.75 -284.7 43 -291.4 51.4 -298.45 58.45
L -298.45 60.8
Q -290.05 52.5 -286.05 48.65 -279.15 42.05 -274 38.2 -260.45 28.2 -245.85 28.2 -245.4 28.2 -231.15 31.75 -216.9 35.25 -216.45 35.25 -213.95 35.25 -202.5 32.9 -191.05 30.55 -185.9 30.55 -198.4 21.9 -220.2 3.05 -238.6 -11.45 -250.55 -11.45 -258.55 -11.45 -273.4 -5.15 -274.2833984375 -4.7759765625 -275.25 -4.4
M 5.55 -88.7
Q 5.55 -81.5 2.9 -77.2 0.55 -73.35 -4.8 -70.75 -8.4 -68.95 -17.2 -66.2 -28.35 -62.7 -34.05 -60.5 -28.5 -61.6 -19.7 -59.35 -12.19765625 -56.97421875 -9.2 -56.1 -8.2455078125 -52.061328125 -7.05 -48.85 -6.5267578125 -47.500390625 -6 -46.3 -0.9359375 -50.43359375 4.3 -53.1 9.6 -55.8 12.6 -55.8 31.3 -55.8 47.8 -34.15 56.15 -23.25 61.65 -11.45 65.1 -16.55 67.7 -24.2 71.05 -34.2 71.05 -44.05 71.05 -66.55 57.5 -85.7 44.9 -103.4 21.9 -116.6 0.15 -129.1 -27.9 -135.85 -55.45 -142.45 -84.3 -142.45 -130.1 -142.45 -179.55 -100.9 -195.1 -87.8 -210.05 -71.3 -217.6 -63 -223.5 -55.8
L -223.5 -53.45
Q -213.7 -58.3 -198.65 -68 -179.95 -80 -174.1 -83.35 -144.35 -100.45 -117.2 -100.45 -100.5 -100.45 -92.95 -97.45 -85.9 -94.65 -85.45 -88.7 -59.65 -107.15 -47.1 -113.2 -35.15 -118.95 -23.5 -118.95 -9 -118.95 -1.25 -109.65 5.55 -101.5 5.55 -88.7 Z"/>

<path fill="url(#Gradient_6)" stroke="none" d="
M -979.8 171.75
L -980.5 170.95 -979.8 171.75 -979.8 171.75
M -664.75 280.8
L -663.85 279.65 -663.9 279.65 -664.75 280.8 Z"/>

<path fill="#FFFF99" stroke="none" d="
M -978.5 170.65
Q -979.82421875 170.95 -980.5 170.95
L -979.8 171.75
Q -979.134375 171.2060546875 -978.5 170.65
M -662.4 280.8
Q -663.096484375 280.2552734375 -663.85 279.65
L -664.75 280.8 -662.4 280.8
M -135.7 285.5
L -134.55 286.65 -133.35 285.5 -135.7 285.5
M -170.95 309
Q -168.193359375 308.567578125 -165.6 308.2
L -165.85 306.35
Q -167.458984375 306.65 -168.6 306.65
L -170.95 309
M -501 353.6
L -501.5 352
Q -515.6529296875 356.8392578125 -533.7 362.75 -508.65 355.45 -501 353.6
M -189.45 297.25
L -187.1 297.25
Q -188.2103515625 297.031640625 -189.35 296.8
L -189.45 297.25 Z"/>

<path fill="url(#Gradient_7)" stroke="none" d="
M -559.3 290.2
Q -523.75 295.1 -519.75 295.85 -515.7775390625 296.584375 -512.35 297.45 -534.33046875 285.5517578125 -554.9 255.95 -563.75 243.15 -571.8 227.75 -575.7 220.2 -578.1 215.3 -581 215.3 -591.6 217.65 -602.15 220 -605.1 220 -609.3 220 -657.55 190.8 -705.8 161.55 -710.25 161.55 -713.8 161.55 -716.45 163 -717.15 163.45 -720.75 166.25 -726.8 170.95 -737 170.95 -737 174.65 -734.8 185.95 -732.6 197.25 -732.6 200 -732.6 213.95 -746.45 226.45 -758.4 237.2 -779.45 245.9 -797.7 253.4 -818.85 257.9 -838.2 262 -851.85 262 -864.3 262 -876.3 256.3 -884.9 252.2 -896.15 243.5 -912.05 231.2 -913.75 230 -919.4626953125 226.171875 -924.6 224.2 -933.7625 223.4052734375 -939.1 221.35 -950.45 217.05 -950.25 205.9 -951 205.9 -954.65 204.75 -958.35 203.55 -961.7 203.55 -964.65 203.55 -978.75 205.9 -992.85 208.25 -995.8 208.25 -1002.55 208.25 -1006.2 207.95 -1012.65 207.45 -1015.75 205.9 -1007.7 196.55 -990.45 181.05 -984.8857421875 176.0634765625 -979.8 171.75
L -980.5 170.95
Q -983.9 170.95 -987.15 169.65 -990.35 168.3 -991.1 168.3
L -991.1 156.85
Q -989.5025390625 153.655078125 -982.6 146.75 -986.8716796875 147.45 -989.9 147.45 -994.1 147.45 -999.75 146 -1004.95 144.6 -1008.7 142.75 -1012.85 147.8 -1019.2 160.95 -1027.3 177.85 -1030.9 183.95 -1047.85 212.6 -1074.2 217.65 -1108.25 224.15 -1133.05 226 -1150.8 227.3 -1182.05 227.05 -1151.3 235.75 -1115.15 241.55 -1112.25 242 -1050.7 250.55 -1050.7 251.1 -1049.5 251.9 -1048.35 252.7 -1048.35 256.15 -1048.35 259.05 -1050.7 260.85 -1053.05 262.6 -1053.05 265.55 -1053.05 268.5 -1050.7 269.65 -1048.35 270.85 -1048.35 273.75 -1048.35 279.95 -1062.3 290.85 -1072.4 298.7 -1078.9 301.95
L -1078.9 304.3 -1069.5 304.3
Q -1069.7 307.15 -1073.95 311.35 -1076.35 313.7 -1081.25 318.4 -1080.65 318.4 -1080.05 318.7 -1078.9 319.3 -1078.9 320.75 -1076.15 319.4 -1050.1 309.25 -1030.95 301.75 -1027.5 297.25 -1026.9 296.95 -1026.3 297.4 -1025.15 298.3 -1025.15 301.95 -1025.15 318.45 -1071.9 344.6 -1090 354.7 -1111.3 364.05 -1130.5 372.45 -1144.45 376.85
L -1144.45 379.2 -1128 379.2
Q -1117.35 375.45 -1020.1 336.35 -928.8 299.6 -926.75 299.6 -923.7 299.6 -921.6 300.8 -919.55 301.95 -917.35 301.95
L -917.35 320.75
Q -919.7 323.1 -920.6 324.25 -922.05 326.15 -922.05 327.5
L -922.05 329.85
Q -919.85 329.85 -911.35 327.65 -902.8 325.45 -899.75 325.45 -888.8 325.45 -882.45 330.55 -880.25 332.35 -874.9 337.75 -868.45 344.25 -863.6 348.65 -859.6 340.75 -819 307 -778.9 273.75 -774.6 273.75 -770.35 273.75 -764.75 275.2 -759.55 276.6 -755.8 278.45 -757.8 280.45 -759.05 283.75 -760.5 287.65 -760.5 292.55 -755.65 290.75 -712.85 285.7 -671.45 280.8 -664.75 280.8
L -663.9 279.65
Q -667.3365234375 276.9953125 -672 273.6 -677.65 269.5 -678.55 269.05 -671 265.95 -642.5 260.45 -613.85 254.95 -605.1 254.95 -592.45 254.95 -587.6 259.65 -584.7 262.5 -583.05 270.5 -581.35 278.7 -578.1 282.35 -572.65 288.35 -559.3 290.2 Z"/>

<path fill="url(#Gradient_8)" stroke="none" d="
M -94.85 121.6
Q -93.2 131.3 -104.25 142.75 -113.0314453125 138.5310546875 -126.05 103.05
L -126.15 103.1
Q -125.1 115.1 -125 130.1 -124.95 138.1 -125.1 148.3 -125.1 179.3 -127.5 191.8 -132.45 217.65 -148.6 217.65 -154.6 217.65 -155.75 217.3 -159.85 216.1 -162.7 210.6 -165.15 228.3 -179.95 240.25 -182.1732421875 242.04609375 -184.4 243.5 -185.759765625 242.6369140625 -187.3 241.85 -197.55 236.55 -218.05 234.95 -222.7 234.6 -235.3 233.95 -246 233.45 -251.65 232.85 -269.15 230.95 -275.2 224.7 -280.2 219.6 -283 210.9 -285.5 200.9 -286.8 196.3 -289.05 188.35 -292.95 184.75 -298.05 180.05 -307.85 180.05 -315.55 180.05 -330.95 192.85 -334.15 195.5 -346.1 206 -356.6 215.15 -363.95 221.05 -387.05 239.5 -408.35 249.2 -436.5 262 -465.85 262 -484.9 262 -495.25 260.9 -509.45 259.4 -518.05 255.15 -538.05 245.4 -537.25 215.3 -536.95 203.15 -541.1 196.75 -544.45 191.6 -551.45 189.55 -554.7 188.6 -564.65 187.6 -572.95 186.7 -576.9 184.75 -571.15 177.55 -542.7 168.55 -514.2 160.55 -511.4 159.2 -520.05 159.2 -546.7 158.05 -573.35 156.85 -601.6 156.85 -623.55 156.85 -633.5 153.35 -639.95 151.05 -640.55 150.9 -644.95 149.8 -651.8 149.8 -651.8 149.05 -652.95 148.2 -654.15 147.3 -654.15 143.9 -654.15 139.15 -645.2 122.55 -635.95 106.35 -635.35 105.15 -638.9 101.6 -647.5 97.2 -657.35 92.1 -670.15 88 -703.55 77.25 -742 77.25 -792.2 77.25 -811.6 106.8 -819.3 118.5 -823.1 136.1 -825.0099609375 144.8474609375 -826.55 159
L -824.65 159.25
Q -820.1 151.8 -812.85 145.55 -796 131 -776.05 131 -765.85 131 -761.25 144.75 -759.95 148.65 -758.75 155.05 -757.7 160.7 -757.25 161.55 -779.65 172.25 -792.15 182.25 -799.55 188.15 -805.4 195.95 -809.95 202.05 -813.3 203.55 -818.5 205.9 -832.15 205.9 -841.7 205.9 -864.95 196.1 -881.05 189.3 -882.05 188.9 -890.85 185.4 -895.35 184.75 -901.1 183.85 -913.5 182.85 -923.5 182.05 -928.25 180.85 -935.3 179.1 -940 175 -945.3 170.35 -949.1 161.55 -949.35 161.55 -963.25 166.25 -974.2353515625 169.835546875 -978.5 170.65 -979.134375 171.2060546875 -979.8 171.75
L -979.8 171.75
Q -984.8857421875 176.0634765625 -990.45 181.05 -1007.7 196.55 -1015.75 205.9 -1012.65 207.45 -1006.2 207.95 -1002.55 208.25 -995.8 208.25 -992.85 208.25 -978.75 205.9 -964.65 203.55 -961.7 203.55 -958.35 203.55 -954.65 204.75 -951 205.9 -950.25 205.9 -950.45 217.05 -939.1 221.35 -933.7625 223.4052734375 -924.6 224.2 -919.4626953125 226.171875 -913.75 230 -912.05 231.2 -896.15 243.5 -884.9 252.2 -876.3 256.3 -864.3 262 -851.85 262 -838.2 262 -818.85 257.9 -797.7 253.4 -779.45 245.9 -758.4 237.2 -746.45 226.45 -732.6 213.95 -732.6 200 -732.6 197.25 -734.8 185.95 -737 174.65 -737 170.95 -726.8 170.95 -720.75 166.25 -717.15 163.45 -716.45 163 -713.8 161.55 -710.25 161.55 -705.8 161.55 -657.55 190.8 -609.3 220 -605.1 220 -602.15 220 -591.6 217.65 -581 215.3 -578.1 215.3 -575.7 220.2 -571.8 227.75 -563.75 243.15 -554.9 255.95 -534.33046875 285.5517578125 -512.35 297.45 -502.6123046875 299.92734375 -497.25 303.5 -495.4984375 303.950390625 -493.75 304.3
L -496.1 304.3
Q -496.6421875 303.8904296875 -497.25 303.5 -504.8806640625 301.498828125 -512.35 297.45 -515.7775390625 296.584375 -519.75 295.85 -523.75 295.1 -559.3 290.2 -572.65 288.35 -578.1 282.35 -581.35 278.7 -583.05 270.5 -584.7 262.5 -587.6 259.65 -592.45 254.95 -605.1 254.95 -613.85 254.95 -642.5 260.45 -671 265.95 -678.55 269.05 -677.65 269.5 -672 273.6 -667.3365234375 276.9953125 -663.9 279.65
L -663.85 279.65
Q -663.096484375 280.2552734375 -662.4 280.8
L -664.75 280.8
Q -671.45 280.8 -712.85 285.7 -755.65 290.75 -760.5 292.55 -760.5 287.65 -759.05 283.75 -757.8 280.45 -755.8 278.45 -759.55 276.6 -764.75 275.2 -770.35 273.75 -774.6 273.75 -778.9 273.75 -819 307 -859.6 340.75 -863.6 348.65 -868.45 344.25 -874.9 337.75 -880.25 332.35 -882.45 330.55 -888.8 325.45 -899.75 325.45 -902.8 325.45 -911.35 327.65 -919.85 329.85 -922.05 329.85
L -922.05 327.5
Q -922.05 326.15 -920.6 324.25 -919.7 323.1 -917.35 320.75
L -917.35 301.95
Q -919.55 301.95 -921.6 300.8 -923.7 299.6 -926.75 299.6 -928.8 299.6 -1020.1 336.35 -1117.35 375.45 -1128 379.2
L -1144.45 379.2 -1144.45 376.85
Q -1130.5 372.45 -1111.3 364.05 -1090 354.7 -1071.9 344.6 -1025.15 318.45 -1025.15 301.95 -1025.15 298.3 -1026.3 297.4 -1026.9 296.95 -1027.5 297.25 -1030.95 301.75 -1050.1 309.25 -1076.15 319.4 -1078.9 320.75 -1078.9 319.3 -1080.05 318.7 -1080.65 318.4 -1081.25 318.4 -1076.35 313.7 -1073.95 311.35 -1069.7 307.15 -1069.5 304.3
L -1078.9 304.3 -1078.9 301.95
Q -1072.4 298.7 -1062.3 290.85 -1048.35 279.95 -1048.35 273.75 -1048.35 270.85 -1050.7 269.65 -1053.05 268.5 -1053.05 265.55 -1053.05 262.6 -1050.7 260.85 -1048.35 259.05 -1048.35 256.15 -1048.35 252.7 -1049.5 251.9 -1050.7 251.1 -1050.7 250.55 -1112.25 242 -1115.15 241.55 -1151.3 235.75 -1182.05 227.05 -1150.8 227.3 -1133.05 226 -1108.25 224.15 -1074.2 217.65 -1047.85 212.6 -1030.9 183.95 -1027.3 177.85 -1019.2 160.95 -1012.85 147.8 -1008.7 142.75 -1004.95 144.6 -999.75 146 -994.1 147.45 -989.9 147.45 -986.8716796875 147.45 -982.6 146.75
L -982.55 146.75
Q -975.25 139.55 -966.3 132.6 -944.0515625 115.3275390625 -931.45 114.55 -935.6248046875 114.35 -951.1 110.3 -970.7 105.15 -979.65 105.15 -1007.65 105.15 -1025.9 116.1 -1037.55 123.15 -1051.4 140.25 -1059.25 149.95 -1062.2 153.15 -1068.5 160.05 -1074.7 164.4 -1090.4 175.35 -1114.15 175.35 -1122.85 175.35 -1128.15 171.1 -1133.25 167 -1133.7 166.7 -1137.8 163.8 -1143.25 161.55 -1143.25 159.55 -1136.2 144.3 -1129.15 129 -1129.15 123.95 -1129.15 120.85 -1130.3 117.65 -1131.5 114.4 -1131.5 112.2
L -1145.6 112.2
Q -1146.4 113 -1154.2 115.95 -1162.95 119.25 -1166.75 119.25 -1166.75 114.95 -1152.05 98.65 -1144.4 90.2 -1133.85 79.6
L -1145.6 79.6
Q -1145.6 79.6458984375 -1145.6 79.7 -1144.5640625 79.8697265625 -1144.1 80.4 -1143.55 81.1 -1144 81.8 -1144.4 82.5 -1144.95 82.05 -1145.584765625 81.56171875 -1145.6 79.7 -1146.0666015625 79.611328125 -1146.65 79.6
L -1145.6 79.6
Q -1145.6 74.5 -1208.65 94.05 -1233.5 101.7 -1254 109.05 -1275.4 116.7 -1278.95 119.25 -1285.9 124.3 -1289.95 136.8 -1291.05 140.15 -1295.5 160.2 -1298.7 174.4 -1302.8 180.65 -1308.5 189.45 -1318.9 189.45 -1322.4 189.45 -1329.35 185.95 -1336.35 182.4 -1343.6 182.4 -1356.5 182.4 -1363.1 183.7 -1370.25 185.15 -1377.6 189.45 -1382.6 192.35 -1396.4 202.25 -1414.55 215.2 -1428.8 224.7 -1431.5 226.55 -1442.2 233.25 -1453.1 240.5 -1461.05 248 -1485.2 270.65 -1485.2 297.25 -1485.2 309.85 -1476.4 319.7 -1470.75 325.95 -1457 334.85 -1442.45 344.2 -1437.6 349.05 -1428.8 357.85 -1428.8 368.65 -1428.8 380.55 -1393 385.55 -1374.73515625 388.0740234375 -1355.05 388.25 -1354.576171875 389.8005859375 -1354.15 391.4 -1353.05 395.55 -1351.15 403.8 -1349.3 411 -1347.4 415.5 -1342.15 427.9 -1330.65 432.95 -1307.5 443.1 -1291.7 453.2 -1291.3 453.45 -1260.45 474.95 -1260.45 473.4 -1265 459.05 -1269.55 444.65 -1269.55 440 -1269.55 429.45 -1260.5 423.6 -1253.25 418.85 -1244 418.85 -1226.55 418.85 -1216.65 427.2 -1212.65 430.6 -1208.5 436.35 -1207.45 437.85 -1200.95 447.75 -1190.35 464 -1178.65 473.75 -1160.7 488.75 -1131.5 498.45
L -1119.75 498.45
Q -1119.75 488.3 -1110.1 477.45 -1099.8 465.85 -1088.3 465.85 -1085.4 465.85 -1072 468.05 -1058.65 470.25 -1055.7 470.25 -1040.55 470.25 -1034.2 465.8 -1030.5 463.15 -1029.1 462.55 -1025.55 461.05 -1019.3 460.85 -1025.5 455.5 -1027.2 451 -1028.7 446.9 -1028.7 436.5 -1028.7 425.55 -1021.75 411.95 -1014.7 398.3 -1002.9 386.35 -990.2 373.55 -975.3 366.2 -958.7 358.05 -942.05 358.05 -927.05 358.05 -918.85 363.8 -908.9 370.8 -914.15 383.9
L -914.15 397.7
Q -912.95 399.45 -912.55 399.75 -912.1 400.05 -908.25 400.05 -903.9 400.05 -900.05 398.65 -898.65 398.1 -893.4 395.5 -884.2 390.95 -873 390.95 -859.7 390.95 -852.5 403.15 -850.2 407 -848.35 412.5 -847.4 415.35 -846.25 418.85 -795.8 396 -780.45 395.35 -784 368.8 -759.9 348.15 -740.6 331.65 -704.6 319.7 -678.8 311.1 -647.2 305.7 -620.6 301.95 -620.4 301.95 -606.4 301.95 -599.45 303.4 -591.95 304.95 -588.6 308.9 -585.5 312.65 -584.55 320.3 -583.95 325.4 -583.95 339.25 -583.95 339.8 -589.8 363.6 -595.7 387.4 -595.7 387.45 -595.7 401.5 -581.65 408.6 -570.8 414.15 -555.75 414.15 -544 414.15 -535.85 422.85 -531.75 427.65 -529.8 429.9 -526.3 433.75 -523.15 435.3 -520.2 420 -506.75 411.65 -494.8 404.2 -473.15 401.6 -455.6 399.45 -427.05 400.15 -423.4 400.25 -373.35 402.4
L -352.2 402.4
Q -352.2 398.75 -354.55 390.35 -356.9 382 -356.9 379.2 -356.9 372.2 -353.05 362.6 -349.2 352.85 -342.8 344.05 -327.3 322.8 -310.2 322.8 -307.85 322.8 -303.15 327.5 -298.45 332.2 -296.1 332.2 -289.7 332.2 -284.8 329.65 -279.35 326.05 -276.1 324 -263 315.75 -237.6 315.75 -213.2 315.75 -197.2 322.2 -182.3728515625 328.2109375 -173.7 340.05 -176.7251953125 348.064453125 -184.05 356.35 -193.95546875 367.6041015625 -207.4 375.65 -202.1779296875 373.8755859375 -195.25 370 -186.55 365.1 -179.15 365.1 -167.05 365.1 -158.05 372.25 -148.6 379.75 -148.6 390.65 -148.6 404.2 -167.45 412.8 -174.7 416.15 -182.95 417.8 -190.45 419.35 -195.3 418.85
L -195.3 421.2
Q -177.6 420.8 -167.45 421.85 -148.6 423.85 -148.6 434.15 -148.6 442.35 -155.5 453.5 -156.9 455.7 -161 461.7
L -160.15 463
Q -155.9244140625 460.3466796875 -148.8 459.15 -133.6 457.8 -127.45 456.45 -124.45 455.9 -120.6 452.75 -119.05 451.5 -113.6 446.4 -104.25 437.65 -98.4 437.65 -93.5068359375 437.65 -87.55 441.55 -90.3734375 438.602734375 -91.55 435.3 -92.6 432.35 -92.65 428.25 -92.5 423.55 -92.5 421.2 -92.5 415.8 -82.6 405.65 -73.7 396.5 -59.55 386.25 -45.85 376.3 -33.4 369.75 -20.15 362.75 -14.1 362.75 -3.6 362.75 12.25 369.65 18.5857421875 372.449609375 30.65 378.95 25.104296875 350.553515625 -13.35 325.3 -21.5 320 -40.45 309.45 -52.55 302.75 -52.55 300.8 -52.55 287.8 -30.05 281.35 -25.95 280.15 -12.75 277.3 -3.55 275.35 -1.15 273.75
L -1.15 269.05
Q -6.45 269.05 -9.65 268.75 -15.3 268.25 -19.95 266.7 -19.95 264.05 -15.25 255.25 -36.7 236.9 -55 226.8 -60.25 223.9 -67.05 220.7 -73.35 217.8 -75.05 216.8 -81 213.35 -82.2 205.55 -83.1 199.9 -83.1 173.3 -83.1 160.05 -87 145.8 -87.4 144.35 -94.85 121.6
M -217.65 291.1
Q -221.1 290.1 -238.85 284.15 -250.7 280.15 -259.65 278.45 -271.95 276.1 -286.7 276.1 -296 276.1 -324.1 286.05 -351.9 295.9 -360.4 301.95 -382.35 317.15 -401.25 337.1 -404.7 340.8 -411.85 348.85 -415.85 353.35 -416.5 353.35 -419.45 353.35 -441.2 351 -462.95 348.65 -465.85 348.65 -480.3 348.65 -501 353.6 -508.65 355.45 -533.7 362.75 -515.6529296875 356.8392578125 -501.5 352 -477.4587890625 343.85390625 -464.65 338.85 -439.25 328.95 -427.25 320.15 -415.5 311.5 -409.65 298.7 -405.55 289.75 -400.05 266.7
L -359.1 266.7
Q -355.1078125 265.458203125 -349.8 264.7 -349.3046875 264.66015625 -348.85 264.6 -332.9552734375 263.31015625 -329.85 262 -322.3 259.05 -306.2 248.95 -293.8 241.15 -287.85 241.15 -286.65 241.15 -277.85 248.4 -265.15 258.8 -256.3 265.15 -221.8298828125 289.8060546875 -189.35 296.8 -188.2103515625 297.031640625 -187.1 297.25
L -189.45 297.25
Q -204.1 295.05 -217.65 291.1
M -165.6 308.2
Q -168.193359375 308.567578125 -170.95 309
L -168.6 306.65
Q -167.458984375 306.65 -165.85 306.35 -160.940234375 305.5841796875 -151.65 302.4 -135.9 297 -131 290.2
L -134.55 286.65 -135.7 285.5 -133.35 285.5
Q -127.1 285.5 -123.4 285.05 -119.6291015625 284.565234375 -114.05 283.35 -104.2724609375 287.5373046875 -98.8 290 -75.8 300.35 -67.85 309 -79.25 320.4 -86.7 332.3 -94.45 344.75 -100.45 351 -105.1 346.35 -109.4 335.8 -114.25 323.95 -117.4 319.75 -123.55 311.6 -134.55 308.8 -146.384375 305.8083984375 -165.6 308.2 Z"/>

<path fill="url(#Gradient_9)" stroke="none" d="
M -165.85 306.35
L -165.6 308.2
Q -146.384375 305.8083984375 -134.55 308.8 -123.55 311.6 -117.4 319.75 -114.25 323.95 -109.4 335.8 -105.1 346.35 -100.45 351 -94.45 344.75 -86.7 332.3 -79.25 320.4 -67.85 309 -75.8 300.35 -98.8 290 -104.2724609375 287.5373046875 -114.05 283.35 -119.6291015625 284.565234375 -123.4 285.05 -127.1 285.5 -133.35 285.5
L -134.55 286.65 -131 290.2
Q -135.9 297 -151.65 302.4 -160.940234375 305.5841796875 -165.85 306.35 Z"/>

<path fill="url(#Gradient_10)" stroke="none" d="
M -238.85 284.15
Q -221.1 290.1 -217.65 291.1 -204.1 295.05 -189.45 297.25
L -189.35 296.8
Q -221.8298828125 289.8060546875 -256.3 265.15 -265.15 258.8 -277.85 248.4 -286.65 241.15 -287.85 241.15 -293.8 241.15 -306.2 248.95 -322.3 259.05 -329.85 262 -332.9552734375 263.31015625 -348.85 264.6
L -359.1 266.7 -400.05 266.7
Q -405.55 289.75 -409.65 298.7 -415.5 311.5 -427.25 320.15 -439.25 328.95 -464.65 338.85 -477.4587890625 343.85390625 -501.5 352
L -501 353.6
Q -480.3 348.65 -465.85 348.65 -462.95 348.65 -441.2 351 -419.45 353.35 -416.5 353.35 -415.85 353.35 -411.85 348.85 -404.7 340.8 -401.25 337.1 -382.35 317.15 -360.4 301.95 -351.9 295.9 -324.1 286.05 -296 276.1 -286.7 276.1 -271.95 276.1 -259.65 278.45 -250.7 280.15 -238.85 284.15 Z"/>
</g>

<g id="Duplicate_Items_Folder_Symbol_17_1_Layer0_0_FILL">
<path fill="url(#Gradient_11)" stroke="none" d="
M 166.3 -20.8
L 166.3 -21.95
Q 153.8 -12.95 148.7 -9.25 140.15 -3.05 136 1.1 125.6 11.35 125.6 26.7 125.6 35.75 132.7 38.4 135.9 39.6 148.25 40.2 159.05 40.7 163.8 44 170.9 48.85 170.9 61.65 170.9 71.2 161.5 82.6 151.85 94.3 143 94.3 145.9 85.5 138.35 70.45 135.05 63.9 131.05 59.65 126.925390625 55.1373046875 123.35 54.6 124.226953125 59.4044921875 124.85 64.3 125.6 69.85 125.6 72 125.6017578125 85.6474609375 112.2 104.9 98.7947265625 124.2076171875 91.45 123.3 84.1552734375 122.3923828125 85.25 116.6 86.3482421875 110.8025390625 83.65 107.05
L 84.8 109.35 73.15 109.35
Q 63.65 111.85 52.8 123.9 42.8 135.05 42.8 140.3 42.8 142.3 48.05 153 53.3 163.65 53.3 166.45 53.3 178.05 44.4 184.9 39.85 188.45 24.9 194.6 11.15 200.25 5.35 205.95 -3.55 214.6 -3.55 229.25 -3.55 247.3 1.25 266.15 7 288.7 18.4 306.25 47.8 351.6 105.8 351.6 121.4 351.6 144.85 340.7 157.5 334.8 177.95 322.55 196.1 311.8 201.55 302.15 207.1 292.25 207.1 270.1 207.1 248.95 213.45 236.25 217.65 227.8 227.45 219.5 238.3 210.3 241.45 205.5 247.8 195.8 247.8 179.8 247.8 173.6 247.45 172.6 246.5 169.7 242.05 169.9
L 242.05 160.7
Q 243.85 155.1 250.4 147.55 258.1 138.65 264.05 138.55 259.5 136.15 254.85 132.65 250.15 128.95 247.9 127.4 240.4 122.15 230.25 122.15 215.85 122.15 211.7 128.1 209.4 131.4 209.4 141.3 209.4 148 208.25 150.25 207.05 152.5 203.55 152.5 201.6 152.5 200.1 149 198.95 146.3 198.95 144.9 198.95 139.15 201.5 132.2 202.6 129.1 207.05 119.55 215.15 102.15 215.15 88.95 215.15 79.95 207.85 65.75 199.936328125 51.99765625 197.9 47.95 198.2896484375 49.9974609375 199.55 52.95 201.25 57.05 201.25 60.35 201.25 67.4 200.1 71 198.4 67.45 191.4 56.85 182.35 43 178.5 36.65 161.7 8.85 161.7 -5.75 161.7 -8.3 163.2 -13.6 164.8 -19.3 166.3 -20.8 Z"/>
</g>

<g id="Symbol_151_1_Layer1_0_FILL">
<path fill="#000000" stroke="none" d="
M 172.1 28.3
Q 174.4 17.75 177.05 5.7 177.25 4.45 164.05 1.1 150.9 -2.25 149.1 -1.45 142.05 3.45 134.2 8.8 118.35 19.55 110.55 23.15 108.55 22.95 106.55 22.85 105.45 22.85 73.2 50.8 40.5 79.15 40.25 81.9 40 84.6 43.6 87.3 45.35 88.65 47.2 89.45 38.05 96.4 22.65 109.6 0.8 128.45 -6 137.4 -6.6 138.15 -3.65 141.8 -0.9 145.2 0.5 146.05 9.3 151.4 19.45 151.4 44.7 153.05 68.75 146.35 68.7 147 67.8 152.45 67 158 67.1 160 67.15 161 70.95 169.9 75.1 179.55 77.55 183.3 78.7 185.1 83.75 188.85 89.15 192.9 91.6 193.35 94.35 193.7 105.15 192.85 116.55 191.9 118.1 190.8 127.35 184.05 149 164.8 168.85 147.15 170 145.55 170.8 144.35 172.05 141.25 173.2 138.4 173.25 137.8 173.45 133 171.45 118.9 169.5 104.9 168.05 100.45 166.55 95.8 161.5 95.65 161.6 95.2 164.1 91.7 166.75 88.05 166.8 87.9 167.2 87.15 166.6 74.8 165.95 61.2 166.6 56.5 167.6 48.95 172.1 28.3
M 162.8 18.95
Q 166.45 12.5 167.3 11.3
L 159.75 46 157.55 28.4
Q 159.05 25.45 162.8 18.95
M 150.8 24.15
L 130.05 24.35 120.4 24.4
Q 123.5 22.55 136.95 13.85 149.6 5.9 153 5.05
L 164.8 7.05 153.8 25.35 150.8 24.15
M 150 30.95
L 152.85 27.9 157.65 80.95
Q 155.9 84.25 153.6 88.05 149.05 95.65 146 98.75
L 142.45 103.4
Q 150 101.65 154.7 95.35 154.55 96.05 155.25 98.75 156.15 102.15 157.75 103.15
L 160.85 108.3
Q 162.65 116.3 164.45 124.35 166.5 133.3 161.35 140.9 158 145.85 146.75 158.3 135.3 170.95 131.1 174.2
L 111.25 188.1
Q 101.05 189 99.1 188.2 97.65 161.7 94.6 149.85 97.8 150.55 106.75 151.45 118.4 152.6 123.4 151.9 125.2 151.6 131.4 147.35 139.3 141.95 141.05 137.1 145.2 125.6 142.95 113.65
L 139.65 106.25
Q 138.55 106.1 132.25 107.8 125.2 109.75 122.2 111.65 112.2 118.15 103.25 125.75
L 92.75 134.35 91.95 132.55 91.45 131.75 92.25 130.35
Q 94.1 127.15 94.7 116.7 95.3 105.9 93.4 102.65 91.5 99.35 81 92.85 69.55 85.75 64.05 86.2
L 63.3 87.2
Q 69.95 89.65 76.6 92.15 88.7 96.7 90.95 109.65 91 111.3 91.1 112.95 91.55 122 86.3 129.25 71.6 140.4 63.95 142.75 59.05 144.2 43 144.4 27.4 144.6 21.8 143.55
L 3.35 138.85 4.95 136.3
Q 7.35 133.3 50.85 86.95
L 49.8 83.8
Q 94.95 83.2 102.3 80.65
L 150 30.95
M 145.8 28.35
L 149.45 28.15
Q 107.85 68.7 104.5 72.15 97.75 79.1 88.1 78.75 84.1 79.2 76 79.85 64.8 80.7 60.3 80.6
L 52.3 80.75
Q 55.35 77.7 82.5 54.55 110.6 30.55 112.2 30.1
L 145.8 28.35
M 76.5 164.95
Q 73.75 157.35 74.45 149.1 74.8 149.3 75.2 149.5 76.85 150.55 78.5 149.35
L 93 149.65
Q 93 150 93.6 167 94 184.45 92.95 187.2
L 90.65 186.8 85.6 184.75
Q 80.2 175.15 76.5 164.95 Z"/>

<path fill="#333333" stroke="none" d="
M 93.6 167
Q 93 150 93 149.65
L 78.5 149.35 90.65 186.8 92.95 187.2
Q 94 184.45 93.6 167
M 88.1 78.75
L 145.8 28.35 112.2 30.1 60.3 80.6
Q 64.8 80.7 76 79.85 84.1 79.2 88.1 78.75
M 99.1 188.2
Q 101.05 189 111.25 188.1 113.75 183.65 118.3 169.25 121.7 158.5 123.4 151.9 118.4 152.6 106.75 151.45 97.8 150.55 94.6 149.85 97.65 161.7 99.1 188.2
M 63.3 87.2
L 64.05 86.2
Q 69.55 85.75 81 92.85 91.5 99.35 93.4 102.65 95.3 105.9 94.7 116.7 94.1 127.15 92.25 130.35
L 91.95 132.55 92.75 134.35 103.25 125.75 103.15 124.35 102.3 80.65
Q 94.95 83.2 49.8 83.8
L 50.85 86.95
Q 7.35 133.3 4.95 136.3 15.5 134.55 26.1 132.85 30.25 132.3 60.05 121.1 90.35 109.8 90.95 109.65 88.7 96.7 76.6 92.15 69.95 89.65 63.3 87.2
M 155.25 98.75
Q 154.55 96.05 154.7 95.35 150 101.65 142.45 103.4
L 146 98.75 139.65 106.25 142.95 113.65 157.75 103.15
Q 156.15 102.15 155.25 98.75
M 130.05 24.35
L 150.8 24.15 164.8 7.05 153 5.05 130.05 24.35 Z"/>

<path fill="#666666" stroke="none" d="
M 75.2 149.5
Q 74.8 149.3 74.45 149.1
L 85.6 184.75 90.65 186.8 78.5 149.35
Q 76.85 150.55 75.2 149.5
M 112.2 30.1
Q 110.6 30.55 82.5 54.55 55.35 77.7 52.3 80.75
L 60.3 80.6 112.2 30.1
M 149.45 28.15
L 145.8 28.35 88.1 78.75
Q 97.75 79.1 104.5 72.15 107.85 68.7 149.45 28.15
M 91.95 132.55
L 92.25 130.35 91.45 131.75 91.95 132.55
M 160.85 108.3
L 157.75 103.15 142.95 113.65
Q 145.2 125.6 141.05 137.1 139.3 141.95 131.4 147.35 125.2 151.6 123.4 151.9 121.7 158.5 118.3 169.25 113.75 183.65 111.25 188.1
L 131.1 174.2
Q 133.05 169.65 146.7 139.4 160.1 109.75 160.85 108.3
M 26.1 132.85
Q 15.5 134.55 4.95 136.3
L 3.35 138.85 21.8 143.55
Q 33.35 140 44.7 136.25 66.3 128.95 86.8 118.7 86.95 120.35 86.95 123.1 86.95 127.4 86.3 129.25 91.55 122 91.1 112.95 91 111.3 90.95 109.65 90.35 109.8 60.05 121.1 30.25 132.3 26.1 132.85
M 128.95 97.65
Q 150.75 74.9 150.8 74.7 151.3 67.05 150 30.95
L 102.3 80.65 103.15 124.35
Q 107.25 120.25 128.95 97.65
M 150.8 24.15
L 153.8 25.35 164.8 7.05 150.8 24.15
M 130.05 24.35
L 153 5.05
Q 149.6 5.9 136.95 13.85 123.5 22.55 120.4 24.4
L 130.05 24.35
M 167.3 11.3
Q 166.45 12.5 162.8 18.95 159.05 25.45 157.55 28.4
L 159.75 46 167.3 11.3 Z"/>

<path fill="#999999" stroke="none" d="
M 74.45 149.1
Q 73.75 157.35 76.5 164.95 80.2 175.15 85.6 184.75
L 74.45 149.1
M 160.85 108.3
Q 160.1 109.75 146.7 139.4 133.05 169.65 131.1 174.2 135.3 170.95 146.75 158.3 158 145.85 161.35 140.9 166.5 133.3 164.45 124.35 162.65 116.3 160.85 108.3
M 43 144.4
Q 59.05 144.2 63.95 142.75 71.6 140.4 86.3 129.25 86.95 127.4 86.95 123.1 86.95 120.35 86.8 118.7 66.3 128.95 44.7 136.25 33.35 140 21.8 143.55 27.4 144.6 43 144.4
M 152.85 27.9
L 150 30.95
Q 151.3 67.05 150.8 74.7 150.75 74.9 128.95 97.65 107.25 120.25 103.15 124.35
L 103.25 125.75
Q 112.2 118.15 122.2 111.65 125.2 109.75 132.25 107.8 138.55 106.1 139.65 106.25
L 146 98.75
Q 149.05 95.65 153.6 88.05 155.9 84.25 157.65 80.95
L 152.85 27.9 Z"/>
</g>

<g id="Duplicate_Items_Folder_Symbol_17_2_Layer0_0_FILL">
<path fill="url(#Gradient_12)" stroke="none" d="
M 75.85 99.15
L 75.85 99.1 74.3 98.9 75.85 99.15 Z"/>

<path fill="url(#Gradient_13)" stroke="none" d="
M 183.65 21.45
Q 186.15 26.05 186.15 31.3 186.15 45.45 179.25 54.45 173.7 61.65 162.85 66.4 159.15 68.05 143.55 73.05 132.4 76.65 127.9 80.35
L 123.15 80.35
Q 122.6 76.85 122.6 70.35
L 121.9 70.2
Q 121.307421875 73.5484375 120.05 77.25 116.8 86.75 110.2 96.25 103.7 105.55 96.45 111.4 88.75 117.55 82.9 117.55 77.2 117.55 75.5 115.3 74.3 113.7 74.3 108.8 74.3 107.7 75.45 101.45 75.6712890625 100.2578125 75.85 99.15
L 74.3 98.9
Q 71.15 109.85 60.45 118.65 58.9 119.95 50.05 126.55 42.95 131.85 38.2 136.25 28.8 144.95 20.55 161.1 12.65 176.5 12.65 184.55 12.65 188 17.3 198.4 21.95 208.8 21.95 214.15 21.95 220 17.25 224.7 12.55 229.4 6.75 229.4 3.6 229.4 1.95 226.45 0.05 222.95 1 216.45 -14.05 226.45 -14.05 262.45 -14.05 278.65 -1.65 297.35 9.3 313.8 27.8 329.45 44.7 343.8 62.45 353 80.05 362.1 90.55 362.1 110.75 362.1 135.4 346.7 156.7 333.4 177.95 310.9 196.95 290.8 209.7 270.3 222.2 250.2 222.2 240.35 222.2 235.65 219.25 214.35 216.3 193.05 216.3 185.7 216.3 161.8 221.05 143.2 230.2 107.05 254.15 107.05 256.05 107.05 258.25 107.9
L 259.15 106.85
Q 256.933203125 105.03125 254.8 102.85 250.3 97.85 248.05 95.75 240.55 88.55 227.95 88.55 216.4 88.55 208.3 98.95 201.25 108 201.25 117.4 201.25 122.55 203.6 129.4 205.95 136.2 205.95 138.55 205.95 143.75 202.4 145.5 200.1 146.6 194.75 146.6 185.95 146.6 179.15 138.6 172.05 130.25 172.05 118.7 172.05 107.5 176.95 96.95 180.15 90.15 187.8 79.55 195.95 68.3 198.65 63.1 203.55 53.6 203.55 44.1 203.55 35.2 196.05 27.95 193.8 25.8 187.6 20.75 180.9 15.35 176.8 11.6 182.65 19.7 183.65 21.45 Z"/>
</g>

<g id="Duplicate_Items_Folder_Symbol_17_4_Layer0_0_FILL">
<path fill="url(#Gradient_14)" stroke="none" d="
M 29.35 154.1
L 29.25 154.35
Q 29.633984375 154.8134765625 29.9 155.6
L 30.95 155.35
Q 30.1123046875 154.7166015625 29.35 154.1 Z"/>

<path fill="url(#Gradient_15)" stroke="none" d="
M 192.95 48.7
Q 186.8 44.2 179.55 44.2 165.05 44.2 158.05 58.25
L 157.75 59
Q 157.72578125 58.9849609375 157.7 58.95 152.2412109375 70.4798828125 153.55 85.7 150.25 81.45 148.45 76.25 145.778515625 68.6107421875 145.6 57.6 127.3890625 58.896484375 114.9 72.2 109.8 77.65 106.75 84 104.1 89.5 104.1 92.95 104.1 97.95 106.6 102.85 108.1 105.8 112.15 111.1 116.15 116.4 117.65 119.25 120.15 124.1 120.15 129.05 120.15 140.2 109.55 145.8 101.85 149.85 92.1 149.85 89.9 149.85 74.05 139.1 58.9 128.8 57.35 127.05 50.9 119.9 46.25 108.45 43.1 100.6 39.95 88.25 35.15 95.7 27 107.65 21.25 117.55 21.25 127.05 21.25 134.35 22.8 138.25 24 141.15 27 143.85 32 148.3 33 149.4 36.85 153.7 39.95 160.45
L 39.95 161.8
Q 36.3 159.35 30.95 155.35
L 29.9 155.6
Q 30.7 157.7953125 30.7 162.5 30.7 167.65 26.1 171.5 23.35 173.85 16.05 178.35 9.3 183.1 5.95 188.8 1.35 196.65 1.35 208.55 1.35 214.8 2.8 220.15 3.55 222.85 6 229 10.6 240.65 10.6 253.25 10.6 254.95 9.25 269.65 7.9 284.35 7.9 286 7.9 287.2802734375 8.35 290.25 8.46015625 291.00078125 8.6 291.85
L 7.65 291.15
Q 6.3111328125 293.030078125 5.05 294.85 7.5025390625 302.36328125 11.8 310.35 18.2 322.15 26.9 331.4 49.7 355.55 81.3 355.55 96.4 355.55 113.25 347.45 129.4 339.75 154.9 320.75 176.15 305 197.85 300.45 208 298.3 210.85 297.15 217 294.65 221.7 288.7 228.75 279.85 231.05 264.95 232.05 258.4 232.8 237.95 233.45 221.4 236.05 213.3 239.85 201.45 249.75 196.55 249 196.55 248.7 195.9
L 248.55 195.2
Q 247.3 195.2 244.75 194.55 242.2 193.85 240.45 193.85 238.85 193.85 235.35 194.55 231.9 195.2 229.8 195.2
L 229.8 191.15
Q 232.75 189.25 240.45 184.55 247.65 180.05 252.3 176.3 265.95 165.45 265.95 155.75 265.95 146.9 256.55 139.05 246.95 131.1 235.7 131.1 233.85 131.1 224.6 134.05 221.3154296875 135.09375 218.65 136.1 219.68359375 138.11796875 221.25 140.1 221.35 140.2 225.75 145.1 231.15 151.15 231.15 157.75 231.15 163.65 217.65 177.85 212.85 182.95 208.05 187.2 203.6 191.15 203 191.15 191.35 191.15 185.6 172.4 181.7 159.85 181.7 146.95 181.7 138.8 184.65 129.3 187.8 119.3 193.3 110.85 206.55 90.55 225.75 89.6 219.95 83.95 213.5 74.75 206.7 64.55 203.4 60 197.8 52.3 192.95 48.7 Z"/>
</g>

<g id="Duplicate_Items_Folder_Symbol_17_3_Layer0_0_FILL">
<path fill="url(#Gradient_16)" stroke="none" d="
M 214.15 127.25
L 213.85 126.05
Q 208.1357421875 127.396875 200.05 131.05 194.35 133.55 186.45 133.55 174.45 133.55 163.3 128.55 151.45 123.15 151.6 116.5 151.7 112 166.1 101.9 170.247265625 99.0005859375 173.05 93.85 167.8998046875 95.503515625 160.7 97.55 146.1 101.7 139.05 104.5 117 113.25 110.8 129.1 107.45 131.75 103.1 135.2 95.3 141.55 91.25 144.35 79.65 152.25 68.35 152.25 55.05 152.25 49.25 147.35 43.95 142.85 44.15 133.45 44.4 125.05 54.95 112.5 60.5 106.15 62.9 103.4 66.9 98.65 67.95 95.95
L 67.95 95.7
Q 56.8134765625 94.0755859375 44.45 98.7 32.65 103.15 21.8 112.3 11.65 121 5.25 131.3 -1.2 141.8 -1.4 150.35 -1.75 163.25 10.45 171.4 11.45 172.05 20.05 177 25.25 179.95 26.9 182.3
L 26.85 183.55
Q 23.25 181.8 14.25 180.15 6.25 178.65 3.05 178.65
L -0.8 178.65
Q 1.5 180.9 8.65 186.1 14.65 191.35 14.55 196.65 14.4 201 10.8 206.55 8.75 209.6 2.75 216.7 -2.9 223.45 -5.3 227.3 -8.95 233.4 -9.1 238.55 -9.25 245.25 -3.45 252.75 -2.05 254.6 0.5 257.9 2.3 260.55 2.25 262.45 2.2 264 0.8 270.25 -0.65 276.5 -0.65 278.05 -1.55 311.45 40.4 335.15 55.7 343.8 73.5 349.15 88.75 353.8 97.35 353.8 119.5 353.8 144.15 334.5 144.95 333.9 162.45 319.05 172.55 310.55 178.7 307.5 191.1 301.65 197.55 298.5 209.05 292.85 216.05 288.25 235.75 275.15 236.15 259.25 236.3 253.5 235.95 243.4 235.5 233.35 235.55 231.75 235.75 223.1 229.35 208.7 222.75 193.65 217.6 193.65
L 216.6 194.75
Q 217.2896484375 195.3140625 217.85 195.85 220.2 198.25 220.15 200.45 220.05 203.4 217.55 206.15 215.25 208.65 213.4 208.65 207.55 208.65 201.85 191.15 196.8 175.75 197.05 167.9 197.2 161.6 203.9 145.9 210.5 130.55 214.15 127.25 Z"/>

<path fill="url(#Gradient_17)" stroke="none" d="
M 213.85 126.05
L 214.15 127.25 213.85 126.05 213.85 126.05 Z"/>
</g>
</defs>

<g transform="matrix( -0.6658172607421875, 0, 0, 0.6658172607421875, 520.45,355.5) ">
<g transform="matrix( 1, 0, 0, 1, -160.55,-288.2) ">
<g transform="matrix( 1, 0, 0, 1, 5.45,-72.4) ">
<g transform="matrix( 0, 0.370941162109375, -0.681060791015625, 0, 231.75,620.75) ">
<g transform="matrix( 1, 0, 0, 1, 0,0) ">
<use xlink:href="#Blaze_Blaze_fire_stream_4_Layer0_0_FILL"/>
</g>
</g>

<g transform="matrix( 0, 0.370941162109375, -0.681060791015625, 0, 567.4,622.05) ">
<g transform="matrix( 1, 0, 0, 1, 0,0) ">
<use xlink:href="#Blaze_Blaze_fire_stream_2_Layer0_0_FILL"/>
</g>
</g>
</g>

<g transform="matrix( -0.639251708984375, 0, 0, 0.90972900390625, 355.6,33.3) ">
<g transform="matrix( -0.7543792724609375, 0, 0, 0.7543792724609375, 288.95,161.8) ">
<g transform="matrix( 1.313751220703125, 0, 0, 1.2186737060546875, -34.6,-70.25) ">
<g transform="matrix( 1, 0, 0, 1, 0,0) ">
<use xlink:href="#Duplicate_Items_Folder_Symbol_17_1_Layer0_0_FILL"/>
</g>
</g>
</g>
</g>

<g transform="matrix( 0.962310791015625, 0.271881103515625, -0.271881103515625, 0.962310791015625, 142.55,139.9) ">
<g transform="matrix( 1, 0, 0, 1, 0,0) ">
<use xlink:href="#Symbol_151_1_Layer1_0_FILL"/>
</g>
</g>

<g transform="matrix( 1.007965087890625, 0, 0, 1.089935302734375, 10.1,-17.65) ">
<g transform="matrix( 0.8552398681640625, 0, 0, 0.5524444580078125, 173.7,31.75) ">
<g transform="matrix( 1.42828369140625, 0, 0, 1.17510986328125, -47.25,-56.2) ">
<g transform="matrix( 1, 0, 0, 1, 0,0) ">
<use xlink:href="#Duplicate_Items_Folder_Symbol_17_2_Layer0_0_FILL"/>
</g>
</g>
</g>

<g transform="matrix( -0.7543792724609375, 0, 0, 0.7543792724609375, 345.75,162.8) ">
<g transform="matrix( 1.08441162109375, 0, 0, 0.7657928466796875, -9.25,75.4) ">
<g transform="matrix( 1, 0, 0, 1, 0,0) ">
<use xlink:href="#Duplicate_Items_Folder_Symbol_17_4_Layer0_0_FILL"/>
</g>
</g>
</g>

<g transform="matrix( 0.7629852294921875, 0, 0, 0.7629852294921875, 320.8,269.9) ">
<g transform="matrix( 1.5428009033203125, 0, 0, 1.131591796875, -59.9,-42.25) ">
<g transform="matrix( 1, 0, 0, 1, 0,0) ">
<use xlink:href="#Duplicate_Items_Folder_Symbol_17_3_Layer0_0_FILL"/>
</g>
</g>
</g>
</g>

<g transform="matrix( -0.638885498046875, 0, 0, 0.9207611083984375, 419.7,5.85) ">
<g transform="matrix( 0, 0.370941162109375, -0.681060791015625, 0, 231.75,620.75) ">
<g transform="matrix( 1, 0, 0, 1, 0,0) ">
<use xlink:href="#Blaze_Blaze_fire_stream_4_Layer0_0_FILL"/>
</g>
</g>

<g transform="matrix( 0, 0.370941162109375, -0.681060791015625, 0, 567.4,622.05) ">
<g transform="matrix( 1, 0, 0, 1, 0,0) ">
<use xlink:href="#Blaze_Blaze_fire_stream_2_Layer0_0_FILL"/>
</g>
</g>
</g>

<g transform="matrix( 0.638885498046875, 0, 0, 0.9207611083984375, 27.95,7.15) ">
<g transform="matrix( 0, 0.370941162109375, -0.681060791015625, 0, 231.75,620.75) ">
<g transform="matrix( 1, 0, 0, 1, 0,0) ">
<use xlink:href="#Blaze_Blaze_fire_stream_4_Layer0_0_FILL"/>
</g>
</g>

<g transform="matrix( 0, 0.370941162109375, -0.681060791015625, 0, 567.4,622.05) ">
<g transform="matrix( 1, 0, 0, 1, 0,0) ">
<use xlink:href="#Blaze_Blaze_fire_stream_2_Layer0_0_FILL"/>
</g>
</g>
</g>
</g>
</g>
</svg>
