
<svg xmlns="http://www.w3.org/2000/svg" version="1.1" xmlns:xlink="http://www.w3.org/1999/xlink" preserveAspectRatio="none" x="0px" y="0px" width="1000px" height="1000px" viewBox="0 0 1000 1000">
<defs>
<linearGradient id="Gradient_1" gradientUnits="userSpaceOnUse" x1="-1607.875" y1="110.60000000000001" x2="-1524.8249999999998" y2="224.5" spreadMethod="pad">
<stop  offset="0%" stop-color="#FF6600"/>

<stop  offset="50.19607843137255%" stop-color="#FFCC00"/>

<stop  offset="100%" stop-color="#FFFFFF"/>
</linearGradient>

<linearGradient id="Gradient_2" gradientUnits="userSpaceOnUse" x1="-1571.1000000000001" y1="158.29999999999998" x2="-1524.8" y2="281.9" spreadMethod="pad">
<stop  offset="0%" stop-color="#FF6600"/>

<stop  offset="50.19607843137255%" stop-color="#FFCC00"/>

<stop  offset="100%" stop-color="#FFFFFF"/>
</linearGradient>

<linearGradient id="Gradient_3" gradientUnits="userSpaceOnUse" x1="-1503" y1="-9.325000000000003" x2="-1464.4" y2="88.525" spreadMethod="pad">
<stop  offset="0%" stop-color="#FF6600"/>

<stop  offset="50.19607843137255%" stop-color="#FFCC00"/>

<stop  offset="100%" stop-color="#FFFFFF"/>
</linearGradient>

<linearGradient id="Gradient_4" gradientUnits="userSpaceOnUse" x1="-1406.2875" y1="298.425" x2="-1287.9125" y2="305.77500000000003" spreadMethod="pad">
<stop  offset="0%" stop-color="#FFFF66"/>

<stop  offset="100%" stop-color="#FFFFFF"/>
</linearGradient>

<linearGradient id="Gradient_5" gradientUnits="userSpaceOnUse" x1="-1573.125" y1="312.48749999999995" x2="-798.2750000000001" y2="281.3125" spreadMethod="pad">
<stop  offset="0%" stop-color="#FF6600"/>

<stop  offset="50.19607843137255%" stop-color="#FFCC00"/>

<stop  offset="100%" stop-color="#FFFFFF"/>
</linearGradient>

<linearGradient id="Gradient_6" gradientUnits="userSpaceOnUse" x1="-478.90000000000003" y1="352.4125" x2="-406.8" y2="329.2875" spreadMethod="pad">
<stop  offset="0%" stop-color="#FF6600"/>

<stop  offset="50.19607843137255%" stop-color="#FFCC00"/>

<stop  offset="100%" stop-color="#FFFFFF"/>
</linearGradient>

<linearGradient id="Gradient_7" gradientUnits="userSpaceOnUse" x1="-654.5749999999999" y1="77.6375" x2="-595.525" y2="144.66250000000002" spreadMethod="pad">
<stop  offset="0%" stop-color="#FF6600"/>

<stop  offset="50.19607843137255%" stop-color="#FFCC00"/>

<stop  offset="100%" stop-color="#FFFFFF"/>
</linearGradient>

<linearGradient id="Gradient_8" gradientUnits="userSpaceOnUse" x1="-149.725" y1="328" x2="-56.974999999999994" y2="317.79999999999995" spreadMethod="pad">
<stop  offset="0%" stop-color="#FF6600"/>

<stop  offset="50.19607843137255%" stop-color="#FFCC00"/>

<stop  offset="100%" stop-color="#FFFFFF"/>
</linearGradient>

<linearGradient id="Gradient_9" gradientUnits="userSpaceOnUse" x1="99.5" y1="334.7875" x2="125.69999999999999" y2="143.61249999999998" spreadMethod="pad">
<stop  offset="18.823529411764707%" stop-color="#FFFFFF"/>

<stop  offset="38.03921568627451%" stop-color="#FFFF99"/>

<stop  offset="90.19607843137256%" stop-color="#FF6600"/>
</linearGradient>

<linearGradient id="Gradient_10" gradientUnits="userSpaceOnUse" x1="102.28750000000001" y1="354.525" x2="129.01250000000002" y2="89.37499999999997" spreadMethod="pad">
<stop  offset="18.823529411764707%" stop-color="#FFFFFF"/>

<stop  offset="38.03921568627451%" stop-color="#FFFF99"/>

<stop  offset="90.19607843137256%" stop-color="#FF6600"/>
</linearGradient>

<linearGradient id="Gradient_11" gradientUnits="userSpaceOnUse" x1="109.14999999999999" y1="360.1125" x2="152.75" y2="40.38749999999999" spreadMethod="pad">
<stop  offset="18.823529411764707%" stop-color="#FFFFFF"/>

<stop  offset="38.03921568627451%" stop-color="#FFFF99"/>

<stop  offset="90.19607843137256%" stop-color="#FF6600"/>
</linearGradient>

<linearGradient id="Gradient_12" gradientUnits="userSpaceOnUse" x1="101.77499999999999" y1="336.26250000000005" x2="155.125" y2="74.3375" spreadMethod="pad">
<stop  offset="18.823529411764707%" stop-color="#FFFFFF"/>

<stop  offset="38.03921568627451%" stop-color="#FFFF99"/>

<stop  offset="90.19607843137256%" stop-color="#FF6600"/>
</linearGradient>

<linearGradient id="Gradient_13" gradientUnits="userSpaceOnUse" x1="111.425" y1="337.9125" x2="134.675" y2="27.087499999999977" spreadMethod="pad">
<stop  offset="18.823529411764707%" stop-color="#FFFFFF"/>

<stop  offset="38.03921568627451%" stop-color="#FFFF99"/>

<stop  offset="90.19607843137256%" stop-color="#FF6600"/>
</linearGradient>

<g id="Blaze_Blaze_fire_stream_6_Layer0_0_FILL">
<path fill="#FF9900" stroke="none" d="
M -1203.1 288.55
Q -1195.4744140625 284.44296875 -1184.95 281.4 -1177.55 279.25 -1161.1 275.85 -1148.15 273.2 -1144.45 271.4 -1144.45 270.8 -1144.15 269.95 -1143.55 268.15 -1142.1 266.7 -1145.85 264.85 -1151.05 263.45 -1156.65 262 -1160.9 262 -1170.5 262 -1177.8 265.4 -1184.2 268.3 -1190.85 274.95 -1194.1630859375 278.215625 -1203.1 288.55
M -1237.2 30.05
Q -1240.85 28.2 -1241.65 28.2 -1244.8 28.2 -1255.95 38.05 -1259.2068359375 40.905078125 -1261.85 43.45 -1249.01171875 45.5599609375 -1238.3 50.3 -1235.05 51.75 -1219.35 60.8 -1217.4 58.85 -1217.3 58.6 -1217 57.85 -1217 53.75 -1217 44.05 -1228.8 35.25 -1232.7 32.3 -1237.2 30.05
M -1015.8 21.2
Q -1019 16.45 -1026.35 16.45 -1028.8 16.45 -1031.9 19.1 -1033.0150390625 20.0681640625 -1036.9 23.85 -1028.2583984375 35.00546875 -1026.6 37.65 -1026 38.6 -1022.8 42.3
L -1015.75 42.3
Q -1015.75 41.4 -1014.55 37.65 -1013.4 33.9 -1013.4 30.55 -1013.4 24.7 -1015.8 21.2
M -946 239.75
Q -947.700390625 237.5685546875 -949.3 235.65 -953.7076171875 246.880078125 -959.85 255.65 -961.1 257.45 -966.35 264.2 -969.75 268.6 -971.1 271.4
L -959.65 271.4
Q -947.35 260.35 -947.15 260.2 -940.85 253.55 -940.85 247.9 -940.85 246.45 -946 239.75
M -1330.35 409.15
Q -1331.55 408.55 -1331.55 407.1 -1340.8 414.05 -1354.2 417.75 -1361.5 419.75 -1374.45 422.9 -1384.55 426.25 -1389.1 433.35 -1394.7 442.2 -1394.7 460 -1394.7 464.5 -1391.85 472.9 -1388.9 481.5 -1384.35 489.9 -1372.85 511.15 -1362.1 512.55
L -1360.05 514.6
Q -1365.2955078125 509.0916015625 -1372.35 492.55 -1375.7169921875 484.62109375 -1377.25 480.45 -1366.11484375 448.5759765625 -1345.4 438.95 -1338.2 435.6 -1328.5 434.4 -1318.75 433.7 -1315.4 432.95 -1317.75 429.4 -1322.1 427 -1324.5 425.7 -1328.7 423.75 -1331.75 421.95 -1332.1 419.2 -1332.5 415.85 -1329.2 409.45
L -1330.35 409.15
M -1506.95 393.3
Q -1500.5 382.65 -1495.45 369.8 -1513.45 381.85 -1517.55 393.5 -1519.1 397.8 -1519.15 403.4 -1519.2 406.6 -1518.95 413 -1518.95 420.85 -1517.05 424.5 -1515.45 427.5 -1511.45 429.45 -1506.05 431.65 -1502.6 433.5 -1499.201953125 435.2798828125 -1496.05 437.7 -1499.2958984375 434.226171875 -1502.75 429.1 -1511.9 415.65 -1511.9 402.4 -1511.9 401.4 -1506.95 393.3
M -1605.1 279.7
Q -1608.725 288.1458984375 -1614.75 293.05 -1618.9 296.45 -1625 298.95 -1627.1 299.8 -1636 302.7 -1649.85 307.2 -1655.5 314.5 -1664.05 325.5 -1664.05 349.85 -1664.05 363.6 -1662.9 368.85 -1661.75 373.85 -1658.35 376.2 -1653.15 378.9 -1649.05 381.25 -1644.9451171875 383.595703125 -1640.8 386.85 -1643.022265625 383.71484375 -1645.15 379.15 -1649.95 368.8 -1649.95 362.75 -1649.95 332.85 -1627.2 322.2 -1619.5 318.6 -1610.55 317.85 -1603.45 317.3 -1600.9 318.4
L -1600.9 304.3
Q -1602.65 296.2 -1603.85 288.9 -1604.765625 283.3744140625 -1605.1 279.7
M -1680.5 194.15
Q -1679.978125 193.6732421875 -1679.4 193.15
L -1680.5 191.8 -1680.5 194.15
M -1429.85 84.8
Q -1435.0375 86.1822265625 -1439.95 90 -1444.65 93.7 -1448.75 98.4
L -1448.75 103.1 -1418.2 103.1
Q -1415.95 95.7 -1424.8 88.35 -1426.8365234375 86.6818359375 -1429.85 84.8
M -1352.75 84.8
Q -1362.77421875 86.546484375 -1370.85 94.25 -1380.9 103.8 -1380.9 114.55 -1380.9 122.5 -1376.75 127.05 -1375.4 128.5 -1373.6 129.7 -1371.85 130.7 -1371.5 131 -1371.5 116.7 -1362.1 100.5 -1359.85 96.65 -1355.65 90.5 -1352.7 86.2 -1352.7 85.45 -1352.7 85.1267578125 -1352.75 84.8
M -1593.05 98.75
L -1593.85 98.4 -1593.85 100.75
Q -1593.455859375 99.7533203125 -1593.05 98.75
M -1366.8 -2.05
L -1367.5 -0.35
Q -1367.14765625 -0.165234375 -1366.8 0
L -1366.8 -2.05
M -1468.75 -40.05
L -1469.25 -39.3
Q -1468.8171875 -39.537890625 -1468.4 -39.8 -1468.56328125 -39.9015625 -1468.75 -40.05
M -719.65 -13.8
Q -725.1 -13.8 -726.55 -12.65 -727.848046875 -11.655859375 -729.55 -8.55 -721.931640625 -2.203125 -720.4 -1.15 -718.8 0 -714.95 0 -711.6 0 -710.7 -1 -709.85 -2.05 -709.1 -2.05
L -709.1 -11.45
Q -709.85 -11.45 -713.05 -12.6 -716.3 -13.8 -719.65 -13.8 Z"/>

<path fill="url(#Gradient_1)" stroke="none" d="
M -1680.5 191.8
L -1679.4 193.15 -1679.4 193.1 -1680.5 191.8 Z"/>

<path fill="url(#Gradient_2)" stroke="none" d="
M -1554.1 126.25
Q -1560.15 131.25 -1565.35 141.6 -1568.15 147.15 -1573 156.9 -1577.45 163.9 -1583.3 163.9 -1588.25 163.9 -1591.85 158.05 -1592.55 156.9 -1597.9 145.1 -1601.85 136.35 -1606.25 132.2 -1612.4 126.3 -1621.75 126.3 -1628.85 126.3 -1638.95 133.25 -1648.3 139.75 -1657.75 150.35 -1667.1 160.9 -1673.25 171.8 -1679.75 183.4 -1680.5 191.8
L -1679.4 193.1
Q -1675.4220703125 189.652734375 -1668.65 184.4 -1658 176.15 -1652.3 173.3
L -1596.2 173.3
Q -1597.85 178.1 -1599.45 188.15 -1600.9 197.65 -1600.9 202.35 -1600.9 216.35 -1600.45 217.55 -1600.1 218.5 -1598.45 222.3 -1596.763671875 226.5365234375 -1594.75 233.35 -1595.71796875 215.424609375 -1571.2 195.55 -1560.9 187.15 -1549.2 181.15 -1538.6 175.65 -1534.25 175.65 -1531.35 175.65 -1529.35 179.05 -1527.35 182.4 -1526 182.4 -1523.05 182.4 -1519.55 180.2 -1516 178 -1513.1 178 -1505.3 178 -1503.15 191.8 -1502.5 196.1 -1502.5 208.25 -1493.4 186.55 -1481.8 167.35 -1469.2 146.4 -1457.85 135.7 -1468.29296875 135.5810546875 -1482.1 134.55 -1497.5 133.35 -1502.5 133.35 -1506.4 133.35 -1508.45 130.55 -1508.75 130.1 -1511.45 124.25 -1512.236328125 122.5791015625 -1513.2 121.2 -1521.0484375 125.19140625 -1524.05 123.3 -1525.15 122.65 -1527.3 120.8 -1529.6 119.25 -1533.05 119.25 -1545.7 119.25 -1554.1 126.25 Z"/>

<path fill="url(#Gradient_3)" stroke="none" d="
M -1469.25 -39.3
L -1468.75 -40.05
Q -1470.8498046875 -41.469921875 -1472.45 -42.9 -1475 -45.15 -1476.1 -45.6 -1478 -46.4 -1482.55 -46.4 -1509.05 -46.4 -1532.95 -14.3 -1541.55 -2.7 -1548.5 11.35 -1554.1 22.75 -1556.25 30.55 -1557.3 34.3 -1563.2 43.4 -1566.7 48.85 -1575.5 61.7 -1592.7 87.5 -1593.85 98.4
L -1593.05 98.75
Q -1582.8453125 75.2435546875 -1555.15 60.7 -1544.35 55.05 -1532.75 51.8 -1522.9 49.05 -1516.6 49.05
L -1512 49.05
Q -1513.559375 49.096875 -1515.4 50.55 -1516.8 51.65 -1518.95 54.05
L -1518.95 86.65
Q -1514.05 68.35 -1495.4 49 -1477.9 30.85 -1453.55 16.9 -1429.1 2.85 -1406.4 -2 -1382.5111328125 -7.0806640625 -1367.5 -0.35
L -1366.8 -2.05
Q -1381.1 -11.85 -1388.8 -20.25 -1392.7 -24.55 -1396.5 -30.85 -1398.85 -34.8 -1401.6 -35.8 -1405 -37 -1415.85 -37 -1420.35 -37 -1427.8 -31.55 -1432.65 -28 -1441.85 -19.5 -1451.7 -10.4 -1455.4 -7.5 -1462.4 -2.05 -1466.1 -2.05 -1479.4 -2.05 -1483.75 -4.45 -1488.4 -7 -1488.4 -14.95 -1488.4 -21.55 -1482.9 -28.3 -1477.7 -34.6 -1469.25 -39.3 Z"/>
</g>

<g id="Blaze_Blaze_fire_stream_4_Layer0_0_FILL">
<path fill="#FF9900" stroke="none" d="
M -768.7 416.5
L -766.35 414.15
Q -767.75 413.4 -780.3 410.2 -792.55 407.1 -793.4 407.1 -807.25 407.1 -840.2 425.9 -857 435.45 -874.2 447.05 -876.35 444.9 -889.6 437.45 -905.95 428.25 -912.95 428.25 -916.35 428.25 -920.6 429.45 -923.3025390625 430.18125 -924.6 430.45 -912.878515625 430.828515625 -900.9 443.9 -897.05 448.1 -891.1 456.15 -885.6 463.55 -883.6 465.55 -881 462.65 -867.75 456.05 -859.7263671875 452.064453125 -854.15 450.4 -835.48515625 434.9474609375 -812.25 426.45 -800.3 422.15 -786.6 419.45 -772.95 417.25 -768.7 416.5
M -1075.4 519.6
Q -1072.7 522.5 -1060.55 527 -1049.6 531.1 -1047.5 531.1 -1042.1 531.1 -1031.05 526.65 -1019.3 521.9 -1019.3 518.45 -1019.3 511.5048828125 -1021.05 504.4 -1027.1939453125 508.365234375 -1035.2 511.7 -1046.85 516.6 -1059.45 518.8 -1070.55 520.7 -1075.4 519.6
M -1038.1 51.4
Q -1043 51.4 -1050.05 56.15 -1052.85 58.1 -1063.35 66.7 -1072.25 73.9 -1078.1 77.2 -1086.65 81.95 -1094.2 81.95 -1098.45 81.95 -1102.8 80.5 -1104.4681640625 79.928125 -1109.95 77.5 -1120.358984375 84.7541015625 -1134.5 98.35 -1143.65 107.15 -1151.3 115.75 -1158.4 123.7 -1159.7 126.3
L -1159.7 128.65
Q -1152.8 117.35 -1135.65 108 -1117.55 98.1 -1101.25 98.1 -1097.4 98.1 -1095.2 99.55 -1094.8 99.85 -1091.85 102.8 -1094.3 106.55 -1098.9 114.55
L -1098.9 116.9
Q -1091.65 108.1 -1062.05 97.35 -1032.55 86.65 -1015.75 86.65 -1001.45 86.65 -998.2 87.4 -992.75 88.6 -979.35 96.05
L -977 96.05
Q -994.05 74.45 -1011.6 62.25 -1027.3 51.4 -1038.1 51.4
M -1374.1 236.05
Q -1374.7525390625 235.75234375 -1375.4 235.45 -1375.2986328125 235.888671875 -1375.2 236.3
L -1374.1 236.05
M -1307.15 81.95
L -1309.5 81.95 -1308.65 83.05
Q -1307.8853515625 82.43125 -1307.15 81.95
M -1218.6 553.45
L -1217.85 554.7
Q -1215.8671875 553.4859375 -1214.4 552.7 -1216.0865234375 553.003125 -1218.6 553.45
M -544.3 484.35
Q -544.3 475.85 -555.65 467.95 -568.8625 458.82578125 -588.55 458.8 -574.738671875 466.151953125 -568.55 473.1 -556.5 486.55 -562.8 505.5
L -562.8 510.2
Q -554.65 502.05 -552.1 499.05 -544.3 489.8 -544.3 484.35
M -473.8 486.7
Q -477 479.95 -485.75 477.6 -491.794140625 475.9939453125 -497.55 476.9 -498.0119140625 477.5169921875 -498.55 478.35 -499.95 480.6 -502 482
L -502 489.05
Q -499.8 489.05 -497.15 490.25 -494.5 491.4 -491.4 491.4 -488.35 491.4 -482.15 489.05 -476 486.7 -473.8 486.7
M -361.6 339.25
L -359.25 339.25
Q -362.119140625 337.8453125 -365 336.5
L -365.25 337.15
Q -363.2458984375 338.140234375 -361.6 339.25
M -469.65 372.1
Q -469.60546875 370.9677734375 -469.6 369.85
L -471.5 369.8
Q -470.5078125 370.8970703125 -469.65 372.1
M -731.4 65.5
Q -730.655859375 66.0033203125 -729.9 66.55
L -729.05 65.5 -731.4 65.5
M -163.4 296.7
Q -162.7 293.34921875 -162.7 289.05 -162.7 272.05 -181.05 260.95 -183.20390625 259.65 -185.5 258.5 -184.269140625 262.2712890625 -182.6 268.6 -180.65 276.1 -179.15 278.45 -172.75 288.7 -168.3 293.05 -165.913671875 295.380859375 -163.4 296.7
M -274.95 147.45
L -272.85 147.45
Q -284.8 134.1 -299.05 127.6 -314.030078125 120.7576171875 -327.3 124.15 -330.3353515625 124.4259765625 -333.65 125.1 -350.7361328125 128.5671875 -374.4 142.6 -386.3 149.65 -396.35 157.4 -404.0486328125 163.35078125 -407.2 166.95 -398.592578125 163.6548828125 -371.55 153.8 -338.75 141.85 -336.05 140.4 -336.05 142.75 -334.7 149.8 -333.4 156.85 -333.4 159.2
L -331.35 159.2
Q -330.95 144.4 -326.1 141.65 -323.9 140.4 -319.35 140.3 -313.1 140.4 -309 140.4 -294.3 140.4 -290.1 140.95 -280.1 142.25 -274.95 147.45
M 75.75 -55.8
Q 70.009375 -76.7025390625 59.25 -90.8 65.6478515625 -80.061328125 68.9 -66.25 70.75 -58.35 72.6 -42.95 74.05 -31.1 75.75 -27.9
L 75.75 -55.8
M -166.15 -124.9
Q -168.967578125 -122.2611328125 -171.85 -119.45 -155.9013671875 -129.75078125 -131.55 -137.4 -109.9 -144.15 -88.2 -146.9 -69.592578125 -149.231640625 -61.1 -147.5 -64.3931640625 -148.4955078125 -72.7 -152.05 -84.270703125 -155.823046875 -99.45 -156.45
L -116 -154.2
Q -138.95 -150.3 -166.15 -124.9
M -739.65 -2.05
L -745.5 -2.05
Q -733.6 1.4 -712.4 23.3 -705.95 30 -698.45 38.6 -692.2 45.95 -691.45 46.7 -684.9638671875 42.6912109375 -683.1 32.35 -690.7244140625 17.627734375 -705.25 8.45 -721.8 -2.05 -739.65 -2.05 Z"/>

<path fill="#FFFF99" stroke="none" d="
M -1454.7 367.3
Q -1454.8734375 367.277734375 -1455.05 367.25 -1454.8982421875 367.3369140625 -1454.75 367.4
L -1454.7 367.3
M -1381.1 316.3
Q -1380.00390625 316.6310546875 -1378.45 317.35
L -1378.35 316.5
Q -1379.64296875 316.4650390625 -1381.1 316.3 Z"/>

<path fill="url(#Gradient_4)" stroke="none" d="
M -1203.45 272.3
Q -1208.480078125 272.7078125 -1214.1 272.85 -1230.2 273.25 -1233.2 273.45 -1243.4 274.1 -1249.9 276.1 -1265.4 280.8 -1276.9 287.2 -1284.05 291.15 -1292.65 297.85 -1300.65 304.05 -1304.3 305.85 -1310.6 309 -1318.9 309 -1332.5 309 -1338.1 299.05 -1340.2 295.35 -1342.15 288.55 -1344.3 280.45 -1345.65 276.1 -1364.1 270 -1372.55 245.45 -1374.05390625 241.0830078125 -1375.2 236.3 -1375.2986328125 235.888671875 -1375.4 235.45 -1391.02265625 228.1884765625 -1400.1 220.6 -1402.426171875 218.6466796875 -1404.6 216.5 -1405.124609375 218.128125 -1405.7 219.8 -1413.5 242.35 -1413.5 244.65 -1413.5 248.85 -1405.45 255.55 -1404.1 256.7 -1387.8 268.65 -1375.85 277.45 -1370.15 283.8 -1362.1 292.75 -1362.1 300.8 -1362.1 310.8 -1367.45 314.35 -1371.2451171875 316.8798828125 -1378.35 316.5
L -1378.45 317.35
Q -1374.9 319 -1371.4 321.55 -1363.5884765625 327.26171875 -1362.35 332.55 -1362.3134765625 332.61484375 -1362.3 332.65 -1395.1634765625 359.2197265625 -1415 365.4 -1422.3 367.65 -1429.7 367.8 -1433.95 367.85 -1441.7 367.45 -1453.65 367.45 -1454.7 367.3
L -1454.75 367.4
Q -1446.6685546875 372.0541015625 -1443.65 373.65 -1436.75 377.25 -1432.15 378.35 -1427.95 379.4 -1421.15 379.4 -1411.15 379.2 -1403.2 379.2 -1387 379.2 -1381.2 374.45 -1377.8 371.65 -1376.35 363.95 -1374.9 356.4 -1370.8 353.4 -1364.25 348.65 -1346.8 348.65 -1343.9 348.65 -1328.15 351 -1312.45 353.35 -1309.5 353.35 -1303 353.35 -1297.55 350.6 -1296.1 349.85 -1287.95 344.4 -1274.25 335.2 -1254.3 334.55 -1254.3 330.8 -1251.25 322.3 -1247.1 310.55 -1239.8 300.4 -1225.5298828125 280.62890625 -1203.45 272.3 Z"/>

<path fill="url(#Gradient_5)" stroke="none" d="
M -836.95 235.05
Q -832.590625 236.503125 -817.75 246.5 -829.280859375 238.396875 -853.1 219.25 -880.7 197.05 -890.65 187.1 -898.9 199.4 -921.75 207.1 -927.8 209.1 -939.35 212.8 -948.85 216.2 -953.8 220 -956 221.75 -956 225.4 -955.95 226.4 -954.95 233.5 -953 246.75 -958.5 257.3 -966.85 273.55 -974.3 280 -980.65 285.5 -988.75 285.5 -1009.15 285.5 -1021.8 280.5 -1045.7 271.05 -1042.5 245.55 -1047.65 245.55 -1069.1 246.75 -1090.5 247.9 -1093 247.9 -1106.05 247.9 -1108.6 247.4 -1116.5 245.8 -1119.75 238.5 -1112.6 227.95 -1089.75 219.9 -1077.154296875 215.467578125 -1067.15 213.85 -1075.8681640625 212.4806640625 -1082.15 210.75 -1087.5 209.25 -1094.55 206.15 -1100.5 203.55 -1105.35 202.6 -1112.65 201.2 -1125.9 201.2 -1142.75 201.2 -1156.6 207.4 -1166.75 211.95 -1177.3 221.05 -1183.1 226 -1192.75 234.65 -1200.75 240.85 -1207.6 240.85 -1214.8 240.85 -1215.9 240.55 -1219.55 239.5 -1222.85 234.1 -1219.7 229.9 -1213.6 220.55 -1206.25 209.25 -1203.1 204.7 -1190.1951171875 186.101953125 -1179.65 178.5 -1202.5958984375 184.2771484375 -1237.45 207.9 -1260.35 223.4 -1262.05 224.5 -1266.2693359375 227.12578125 -1269.65 228.8 -1273.2873046875 206.0126953125 -1257.1 187.95 -1251.65 181.85 -1244.65 177.15 -1239.45 173.7 -1236.95 173 -1243.5 167.15 -1250.85 164.7 -1254.7 163.45 -1261.9 162.6 -1267.45 161.95 -1269.25 160.45 -1271.9 158.3 -1271.9 152.15 -1271.9 127.15 -1256.7 107.3 -1244.05 90.8 -1221.8 78.9 -1204.3796875 69.625390625 -1184.1 64.5 -1190.9546875 60.239453125 -1197.9 58.4 -1206.7 56.1 -1224.05 56.1 -1273.2 56.1 -1295.4 89 -1303.2 100.6 -1306.9 115.2 -1309.5 125.6 -1309.5 134.5 -1309.5 141.1 -1307.9 144.6 -1306.15 148.45 -1300.1 154.5 -1304.4 159.1 -1309.5 163.9 -1310.9482421875 165.2619140625 -1311.9 166.25 -1314.8630859375 164.541015625 -1317.7 162.3 -1333 150.35 -1333 134.5 -1333 121.45 -1322.95 102.95 -1314.9234375 88.1900390625 -1308.65 83.05
L -1309.5 81.95
Q -1328.45 86.3 -1343.6 107.85 -1358.55 129.15 -1358.55 150.95 -1358.55 155.4 -1352.4 168.6 -1346.5 181.3 -1342.1 187.1 -1352.15 188.05 -1358.55 192.25 -1367.95 198.4 -1367.95 210.6 -1367.95 221.35 -1360.75 233.25 -1355.95 241.15 -1349.15 247.9 -1352.75 245.75 -1374.1 236.05
L -1375.2 236.3
Q -1374.05390625 241.0830078125 -1372.55 245.45 -1364.1 270 -1345.65 276.1 -1344.3 280.45 -1342.15 288.55 -1340.2 295.35 -1338.1 299.05 -1332.5 309 -1318.9 309 -1310.6 309 -1304.3 305.85 -1300.65 304.05 -1292.65 297.85 -1284.05 291.15 -1276.9 287.2 -1265.4 280.8 -1249.9 276.1 -1243.4 274.1 -1233.2 273.45 -1230.2 273.25 -1214.1 272.85 -1208.480078125 272.7078125 -1203.45 272.3 -1191.41015625 267.811328125 -1177.05 266.7
L -1175 266.7
Q -1185.4697265625 270.997265625 -1203.45 272.3 -1225.5298828125 280.62890625 -1239.8 300.4 -1247.1 310.55 -1251.25 322.3 -1254.3 330.8 -1254.3 334.55 -1274.25 335.2 -1287.95 344.4 -1296.1 349.85 -1297.55 350.6 -1303 353.35 -1309.5 353.35 -1312.45 353.35 -1328.15 351 -1343.9 348.65 -1346.8 348.65 -1364.25 348.65 -1370.8 353.4 -1374.9 356.4 -1376.35 363.95 -1377.8 371.65 -1381.2 374.45 -1387 379.2 -1403.2 379.2 -1411.15 379.2 -1421.15 379.4 -1427.95 379.4 -1432.15 378.35 -1436.75 377.25 -1443.65 373.65 -1446.6685546875 372.0541015625 -1454.75 367.4 -1454.8982421875 367.3369140625 -1455.05 367.25 -1459.8564453125 366.516015625 -1462.85 362.75 -1458.49609375 365.271484375 -1455.05 367.25 -1454.8734375 367.277734375 -1454.7 367.3 -1453.65 367.45 -1441.7 367.45 -1433.95 367.85 -1429.7 367.8 -1422.3 367.65 -1415 365.4 -1395.1634765625 359.2197265625 -1362.3 332.65 -1362.3134765625 332.61484375 -1362.35 332.55 -1363.5884765625 327.26171875 -1371.4 321.55 -1374.9 319 -1378.45 317.35 -1380.00390625 316.6310546875 -1381.1 316.3 -1379.64296875 316.4650390625 -1378.35 316.5 -1371.2451171875 316.8798828125 -1367.45 314.35 -1362.1 310.8 -1362.1 300.8 -1362.1 292.75 -1370.15 283.8 -1375.85 277.45 -1387.8 268.65 -1404.1 256.7 -1405.45 255.55 -1413.5 248.85 -1413.5 244.65 -1413.5 242.35 -1405.7 219.8 -1405.124609375 218.128125 -1404.6 216.5 -1428.8 192.0216796875 -1428.8 141.25 -1428.8 133.05 -1429.95 123.95 -1430.5703125 119.246484375 -1430.9 116.9 -1434.13046875 120.8564453125 -1439.3 128.5 -1445.9349609375 138.4125 -1447.3 143.05 -1445.3275390625 147.2794921875 -1442.9 152.15 -1447.6 152.15 -1447.6 145.1 -1447.6 144.257421875 -1447.3 143.05 -1451.6744140625 133.543359375 -1453.55 127.5 -1457 116.6 -1457 103.95 -1457 91.85 -1453.8 79.3 -1450.1 64.95 -1442.95 53.75 -1425 25.55 -1391.45 25.55 -1380.7 25.55 -1367.1 31.4 -1358.65 35 -1351.5 39.65 -1355.15 36 -1360.45 28.1 -1367.7 17.35 -1369.45 15.1 -1380.95 0 -1393.8 0 -1401.85 0 -1418.4 5.9 -1434.95 11.75 -1440.55 11.75 -1443.45 11.75 -1456.4 9.4 -1469.3 7.05 -1472.25 7.05 -1478.15 7.05 -1493.85 20.5 -1511.1 35.3 -1527.3 56.05 -1546.75 80.95 -1558.05 106.55 -1571.55 137.05 -1571.55 164.75 -1571.55 168.6169921875 -1570.65 172.55 -1573.7919921875 174.45390625 -1577.2 176.4 -1601.3 190.2 -1606.1 193.45 -1621 203.6 -1628.2 215.2 -1637.05 229.35 -1637.05 249.1 -1637.05 257.7 -1633.5 266.95 -1630 276.2 -1630 280.8 -1630 281.35 -1633.5 298.05 -1637.05 314.8 -1637.05 322.8 -1637.05 336.6 -1634.45 348.9 -1632.5 358.15 -1627.65 372.15 -1625.95 377.25 -1618.05 388.25 -1610.45 398.8 -1604.45 404.75 -1605.85 429.75 -1602.25 444.9 -1597.1564453125 466.19296875 -1582.45 474.5 -1584.38984375 471.7900390625 -1585.15 468.15 -1585.65 465.6 -1585.65 452.65 -1585.65 417.95 -1566.9 395.45 -1559.3 386.35 -1550.1 381.25 -1541.55 376.55 -1534.25 376.55 -1531.15 376.55 -1525.55 379.05 -1520 381.55 -1517.8 381.55 -1517.85 381.7 -1522.7 389.45 -1527.2 396.6 -1527.2 398.9 -1527.2 401.85 -1524.85 403 -1522.5 404.2 -1522.5 407.1 -1522.5 407.85 -1528.2 420.7 -1533.95 435.1 -1533.95 443.55 -1533.95 450.15 -1528.3 454.25 -1524.7 456.85 -1515.75 459.9 -1506.3 463.15 -1502.95 465.25 -1497.05 469 -1496.65 474.95 -1495.95 485.45 -1488.7 496.55 -1484.35 502.85 -1482.1 506.2 -1478 512.2 -1475.5 517.25 -1472.45 514.05 -1470.4 508.35 -1468.15 501.2 -1466.65 496.95 -1460.6 480.1 -1445.25 465.55 -1432.4 453.55 -1405.75 449.8 -1395.05 448.35 -1385.7 448.85 -1376.6 449.35 -1372.65 451.45 -1376.6 443.85 -1384.8 438.15 -1392.25 432.95 -1397.35 432.95 -1397.9 432.95 -1407.35 436.5 -1416.85 440 -1419.4 440
L -1419.4 423.55
Q -1413.9 418.35 -1405.7 411.15 -1402.4875 408.3181640625 -1399.65 405.65 -1392.5552734375 411.7662109375 -1383.3 412.1 -1378.65 412.25 -1371.85 410.9 -1364.8 409.45 -1363.25 409.45 -1363.85 418.2 -1359.95 421.95 -1357.2 424.55 -1351 425.3 -1342.75 426.25 -1341.7 426.6 -1337.4 428.1 -1337.4 432.95 -1337.4 439.55 -1341.8 444.35 -1344.45 447.25 -1351.5 452.9 -1357.95 458.8 -1361.2 466.35 -1365.6 476.65 -1365.6 492.6 -1365.6 504.5 -1359.8 516.65 -1354.25 528.4 -1344.45 538.05 -1334.5 547.85 -1322.4 553.4 -1309.55 559.3 -1296.6 559.3 -1291.9 559.3 -1283.8 557.85 -1275.25 556.3 -1271.9 554.6
L -1269.55 554.6
Q -1273.15 558.75 -1274 565.25 -1274.25 567.1 -1274.25 574.55 -1274.25 593.45 -1263.9 600.6 -1258.923828125 604.02734375 -1251.45 604.85 -1255.45 599.912890625 -1255.45 586.3 -1255.45 582.25 -1236.55 567.95 -1224.41015625 558.773828125 -1217.85 554.7
L -1218.6 553.45
Q -1225.35 554.6 -1228.75 554.6 -1231.25 554.6 -1239.75 553.45 -1248.25 552.25 -1253.4 552.25
L -1253.4 526.65
Q -1257.95 525.8 -1270.6 523.5 -1282.45 521.05 -1290.6 517.4 -1314.2 506.95 -1314.2 484.35 -1314.2 461.25 -1299.8 447.3 -1294.65 442.3 -1286.1 436.95 -1276.4 431.2 -1271.9 428.25 -1271.9 429 -1273.05 432.8 -1274.25 436.65 -1274.25 440 -1274.25 450.1 -1270.35 453.75 -1265.15 456.9 -1262.5 460.85
L -1260.45 460.85
Q -1260.25 458.6 -1258.3 453.85 -1257.7681640625 452.58359375 -1257.35 451.55 -1257.4751953125 450.84921875 -1257.5 450.7 -1257.8 448.85 -1257.8 444.7 -1257.8 431.25 -1244.4 418.25 -1233.1 407.25 -1222.85 404.75 -1224.9 383.9 -1215.55 369.05 -1207.6 356.45 -1189.95 346.3 -1192.8 362.6 -1176.6 380.25 -1173.4 383.75 -1163.1 393.45 -1155.3 400.8 -1152.65 404.75
L -1150.3 404.75
Q -1150.3 404 -1151.45 400.2 -1152.65 396.4 -1152.65 393 -1152.65 373 -1146.45 365.6 -1141.75 360.1 -1131.6 360.5 -1119.65 362.05 -1113.85 361.75 -1103.85 361.2 -1098.9 353.35 -1072.1 311.05 -1015.75 311.05 -995.75 311.05 -981.95 316.2 -970.25 320.6 -965.55 327.5 -956.75 320.45 -947.9 298.95 -943.05 286.55 -940.55 280.25 -936.1 268.85 -932.65 262 -927.1 251.1 -905.35 242.9 -882.15 234.1 -854.2 234.1 -846.55 233.95 -843.9 234.05 -839.85 234.1 -836.95 235.05 Z"/>

<path fill="url(#Gradient_6)" stroke="none" d="
M -498.45 363.3
Q -495.9 362.75 -487.9 362.75 -477.9 362.75 -471.5 369.8
L -469.6 369.85
Q -469.4 364.7068359375 -469.4 360.4 -469.4 341.85 -445.9 334.55 -430.85 329.85 -405.05 329.85 -392.2 329.85 -380.55 332.25 -371.2796875 334.1640625 -365.25 337.15
L -365 336.5
Q -378.78359375 330.125 -392.25 325.65 -402.3615234375 322.294921875 -411.1 320.5 -421.203515625 318.4 -429.45 318.4 -440.1 318.4 -453.5 323.15 -457.95 324.7 -469.55 329.65 -476.9681640625 334.631640625 -484.5 341.35 -494.05 349.85 -502.05 359.75 -508.35 367.6 -509.05 369.8 -504.45 364.6 -498.45 363.3 Z"/>

<path fill="url(#Gradient_7)" stroke="none" d="
M -626.25 84.3
Q -618.5 84.3 -612.35 87.9 -607.75 90.6 -602.2 96.65 -592.45 107.25 -592.35 107.35 -586.1453125 113.4068359375 -579.45 116.8 -581.92734375 89.75546875 -592.55 74.3 -603.45 58.45 -620.4 58.45 -620.8 58.45 -648.45 67.85 -676.05 77.25 -676.5 77.25 -680.8 77.25 -702 72.7 -724.15 67.95 -729.05 65.5
L -729.9 66.55
Q -725.2859375 69.8984375 -719.35 75.45 -710.55 83.65 -707.8 85.9 -693.05 97.9 -672.95 100.75 -680.6681640625 113.9412109375 -683.35 117.7 -669.84453125 103.9865234375 -663 98.75 -644.15 84.3 -626.25 84.3 Z"/>

<path fill="url(#Gradient_8)" stroke="none" d="
M -176.8 327.5
L -176.8 329.85
Q -150.5 316.5 -143.5 314.75 -139.25 313.65 -133.3 313.6 -124.9 313.7 -118.35 313.7 -93.4 313.7 -80.3 319.5 -60.75 328.15 -71.35 348.65 -70.45 348.65 -66.35 349.85 -62.25 351 -59.6 351
L -52.55 315.75 -52.55 297.25
Q -68.6 295.8 -99.4 296.35 -115.1 296.65 -131.3 297.25 -137.45 297.25 -148.1 298.2 -155.8 298.9 -159.2 298.2 -161.3361328125 297.7771484375 -163.4 296.7 -163.670703125 298.1970703125 -164.1 299.5 -165.05 302.5 -167.55 306.5 -174.15 317.05 -176.8 327.5 Z"/>
</g>

<g id="Duplicate_Items_Folder_Symbol_17_3_Layer0_0_FILL">
<path fill="url(#Gradient_9)" stroke="none" d="
M 214.15 127.25
L 213.85 126.05
Q 208.1357421875 127.396875 200.05 131.05 194.35 133.55 186.45 133.55 174.45 133.55 163.3 128.55 151.45 123.15 151.6 116.5 151.7 112 166.1 101.9 170.247265625 99.0005859375 173.05 93.85 167.8998046875 95.503515625 160.7 97.55 146.1 101.7 139.05 104.5 117 113.25 110.8 129.1 107.45 131.75 103.1 135.2 95.3 141.55 91.25 144.35 79.65 152.25 68.35 152.25 55.05 152.25 49.25 147.35 43.95 142.85 44.15 133.45 44.4 125.05 54.95 112.5 60.5 106.15 62.9 103.4 66.9 98.65 67.95 95.95
L 67.95 95.7
Q 56.8134765625 94.0755859375 44.45 98.7 32.65 103.15 21.8 112.3 11.65 121 5.25 131.3 -1.2 141.8 -1.4 150.35 -1.75 163.25 10.45 171.4 11.45 172.05 20.05 177 25.25 179.95 26.9 182.3
L 26.85 183.55
Q 23.25 181.8 14.25 180.15 6.25 178.65 3.05 178.65
L -0.8 178.65
Q 1.5 180.9 8.65 186.1 14.65 191.35 14.55 196.65 14.4 201 10.8 206.55 8.75 209.6 2.75 216.7 -2.9 223.45 -5.3 227.3 -8.95 233.4 -9.1 238.55 -9.25 245.25 -3.45 252.75 -2.05 254.6 0.5 257.9 2.3 260.55 2.25 262.45 2.2 264 0.8 270.25 -0.65 276.5 -0.65 278.05 -1.55 311.45 40.4 335.15 55.7 343.8 73.5 349.15 88.75 353.8 97.35 353.8 119.5 353.8 144.15 334.5 144.95 333.9 162.45 319.05 172.55 310.55 178.7 307.5 191.1 301.65 197.55 298.5 209.05 292.85 216.05 288.25 235.75 275.15 236.15 259.25 236.3 253.5 235.95 243.4 235.5 233.35 235.55 231.75 235.75 223.1 229.35 208.7 222.75 193.65 217.6 193.65
L 216.6 194.75
Q 217.2896484375 195.3140625 217.85 195.85 220.2 198.25 220.15 200.45 220.05 203.4 217.55 206.15 215.25 208.65 213.4 208.65 207.55 208.65 201.85 191.15 196.8 175.75 197.05 167.9 197.2 161.6 203.9 145.9 210.5 130.55 214.15 127.25 Z"/>

<path fill="url(#Gradient_10)" stroke="none" d="
M 213.85 126.05
L 214.15 127.25 213.85 126.05 213.85 126.05 Z"/>
</g>

<g id="Symbol_151_1_Layer1_0_FILL">
<path fill="#000000" stroke="none" d="
M 172.1 28.3
Q 174.4 17.75 177.05 5.7 177.25 4.45 164.05 1.1 150.9 -2.25 149.1 -1.45 142.05 3.45 134.2 8.8 118.35 19.55 110.55 23.15 108.55 22.95 106.55 22.85 105.45 22.85 73.2 50.8 40.5 79.15 40.25 81.9 40 84.6 43.6 87.3 45.35 88.65 47.2 89.45 38.05 96.4 22.65 109.6 0.8 128.45 -6 137.4 -6.6 138.15 -3.65 141.8 -0.9 145.2 0.5 146.05 9.3 151.4 19.45 151.4 44.7 153.05 68.75 146.35 68.7 147 67.8 152.45 67 158 67.1 160 67.15 161 70.95 169.9 75.1 179.55 77.55 183.3 78.7 185.1 83.75 188.85 89.15 192.9 91.6 193.35 94.35 193.7 105.15 192.85 116.55 191.9 118.1 190.8 127.35 184.05 149 164.8 168.85 147.15 170 145.55 170.8 144.35 172.05 141.25 173.2 138.4 173.25 137.8 173.45 133 171.45 118.9 169.5 104.9 168.05 100.45 166.55 95.8 161.5 95.65 161.6 95.2 164.1 91.7 166.75 88.05 166.8 87.9 167.2 87.15 166.6 74.8 165.95 61.2 166.6 56.5 167.6 48.95 172.1 28.3
M 162.8 18.95
Q 166.45 12.5 167.3 11.3
L 159.75 46 157.55 28.4
Q 159.05 25.45 162.8 18.95
M 150.8 24.15
L 130.05 24.35 120.4 24.4
Q 123.5 22.55 136.95 13.85 149.6 5.9 153 5.05
L 164.8 7.05 153.8 25.35 150.8 24.15
M 150 30.95
L 152.85 27.9 157.65 80.95
Q 155.9 84.25 153.6 88.05 149.05 95.65 146 98.75
L 142.45 103.4
Q 150 101.65 154.7 95.35 154.55 96.05 155.25 98.75 156.15 102.15 157.75 103.15
L 160.85 108.3
Q 162.65 116.3 164.45 124.35 166.5 133.3 161.35 140.9 158 145.85 146.75 158.3 135.3 170.95 131.1 174.2
L 111.25 188.1
Q 101.05 189 99.1 188.2 97.65 161.7 94.6 149.85 97.8 150.55 106.75 151.45 118.4 152.6 123.4 151.9 125.2 151.6 131.4 147.35 139.3 141.95 141.05 137.1 145.2 125.6 142.95 113.65
L 139.65 106.25
Q 138.55 106.1 132.25 107.8 125.2 109.75 122.2 111.65 112.2 118.15 103.25 125.75
L 92.75 134.35 91.95 132.55 91.45 131.75 92.25 130.35
Q 94.1 127.15 94.7 116.7 95.3 105.9 93.4 102.65 91.5 99.35 81 92.85 69.55 85.75 64.05 86.2
L 63.3 87.2
Q 69.95 89.65 76.6 92.15 88.7 96.7 90.95 109.65 91 111.3 91.1 112.95 91.55 122 86.3 129.25 71.6 140.4 63.95 142.75 59.05 144.2 43 144.4 27.4 144.6 21.8 143.55
L 3.35 138.85 4.95 136.3
Q 7.35 133.3 50.85 86.95
L 49.8 83.8
Q 94.95 83.2 102.3 80.65
L 150 30.95
M 145.8 28.35
L 149.45 28.15
Q 107.85 68.7 104.5 72.15 97.75 79.1 88.1 78.75 84.1 79.2 76 79.85 64.8 80.7 60.3 80.6
L 52.3 80.75
Q 55.35 77.7 82.5 54.55 110.6 30.55 112.2 30.1
L 145.8 28.35
M 76.5 164.95
Q 73.75 157.35 74.45 149.1 74.8 149.3 75.2 149.5 76.85 150.55 78.5 149.35
L 93 149.65
Q 93 150 93.6 167 94 184.45 92.95 187.2
L 90.65 186.8 85.6 184.75
Q 80.2 175.15 76.5 164.95 Z"/>

<path fill="#333333" stroke="none" d="
M 93.6 167
Q 93 150 93 149.65
L 78.5 149.35 90.65 186.8 92.95 187.2
Q 94 184.45 93.6 167
M 88.1 78.75
L 145.8 28.35 112.2 30.1 60.3 80.6
Q 64.8 80.7 76 79.85 84.1 79.2 88.1 78.75
M 99.1 188.2
Q 101.05 189 111.25 188.1 113.75 183.65 118.3 169.25 121.7 158.5 123.4 151.9 118.4 152.6 106.75 151.45 97.8 150.55 94.6 149.85 97.65 161.7 99.1 188.2
M 63.3 87.2
L 64.05 86.2
Q 69.55 85.75 81 92.85 91.5 99.35 93.4 102.65 95.3 105.9 94.7 116.7 94.1 127.15 92.25 130.35
L 91.95 132.55 92.75 134.35 103.25 125.75 103.15 124.35 102.3 80.65
Q 94.95 83.2 49.8 83.8
L 50.85 86.95
Q 7.35 133.3 4.95 136.3 15.5 134.55 26.1 132.85 30.25 132.3 60.05 121.1 90.35 109.8 90.95 109.65 88.7 96.7 76.6 92.15 69.95 89.65 63.3 87.2
M 155.25 98.75
Q 154.55 96.05 154.7 95.35 150 101.65 142.45 103.4
L 146 98.75 139.65 106.25 142.95 113.65 157.75 103.15
Q 156.15 102.15 155.25 98.75
M 130.05 24.35
L 150.8 24.15 164.8 7.05 153 5.05 130.05 24.35 Z"/>

<path fill="#666666" stroke="none" d="
M 75.2 149.5
Q 74.8 149.3 74.45 149.1
L 85.6 184.75 90.65 186.8 78.5 149.35
Q 76.85 150.55 75.2 149.5
M 112.2 30.1
Q 110.6 30.55 82.5 54.55 55.35 77.7 52.3 80.75
L 60.3 80.6 112.2 30.1
M 149.45 28.15
L 145.8 28.35 88.1 78.75
Q 97.75 79.1 104.5 72.15 107.85 68.7 149.45 28.15
M 91.95 132.55
L 92.25 130.35 91.45 131.75 91.95 132.55
M 160.85 108.3
L 157.75 103.15 142.95 113.65
Q 145.2 125.6 141.05 137.1 139.3 141.95 131.4 147.35 125.2 151.6 123.4 151.9 121.7 158.5 118.3 169.25 113.75 183.65 111.25 188.1
L 131.1 174.2
Q 133.05 169.65 146.7 139.4 160.1 109.75 160.85 108.3
M 26.1 132.85
Q 15.5 134.55 4.95 136.3
L 3.35 138.85 21.8 143.55
Q 33.35 140 44.7 136.25 66.3 128.95 86.8 118.7 86.95 120.35 86.95 123.1 86.95 127.4 86.3 129.25 91.55 122 91.1 112.95 91 111.3 90.95 109.65 90.35 109.8 60.05 121.1 30.25 132.3 26.1 132.85
M 128.95 97.65
Q 150.75 74.9 150.8 74.7 151.3 67.05 150 30.95
L 102.3 80.65 103.15 124.35
Q 107.25 120.25 128.95 97.65
M 150.8 24.15
L 153.8 25.35 164.8 7.05 150.8 24.15
M 130.05 24.35
L 153 5.05
Q 149.6 5.9 136.95 13.85 123.5 22.55 120.4 24.4
L 130.05 24.35
M 167.3 11.3
Q 166.45 12.5 162.8 18.95 159.05 25.45 157.55 28.4
L 159.75 46 167.3 11.3 Z"/>

<path fill="#999999" stroke="none" d="
M 74.45 149.1
Q 73.75 157.35 76.5 164.95 80.2 175.15 85.6 184.75
L 74.45 149.1
M 160.85 108.3
Q 160.1 109.75 146.7 139.4 133.05 169.65 131.1 174.2 135.3 170.95 146.75 158.3 158 145.85 161.35 140.9 166.5 133.3 164.45 124.35 162.65 116.3 160.85 108.3
M 43 144.4
Q 59.05 144.2 63.95 142.75 71.6 140.4 86.3 129.25 86.95 127.4 86.95 123.1 86.95 120.35 86.8 118.7 66.3 128.95 44.7 136.25 33.35 140 21.8 143.55 27.4 144.6 43 144.4
M 152.85 27.9
L 150 30.95
Q 151.3 67.05 150.8 74.7 150.75 74.9 128.95 97.65 107.25 120.25 103.15 124.35
L 103.25 125.75
Q 112.2 118.15 122.2 111.65 125.2 109.75 132.25 107.8 138.55 106.1 139.65 106.25
L 146 98.75
Q 149.05 95.65 153.6 88.05 155.9 84.25 157.65 80.95
L 152.85 27.9 Z"/>
</g>

<g id="Duplicate_Items_Folder_Symbol_17_4_Layer0_0_FILL">
<path fill="url(#Gradient_11)" stroke="none" d="
M 29.35 154.1
L 29.25 154.35
Q 29.633984375 154.8134765625 29.9 155.6
L 30.95 155.35
Q 30.1123046875 154.7166015625 29.35 154.1 Z"/>

<path fill="url(#Gradient_12)" stroke="none" d="
M 192.95 48.7
Q 186.8 44.2 179.55 44.2 165.05 44.2 158.05 58.25
L 157.75 59
Q 157.72578125 58.9849609375 157.7 58.95 152.2412109375 70.4798828125 153.55 85.7 150.25 81.45 148.45 76.25 145.778515625 68.6107421875 145.6 57.6 127.3890625 58.896484375 114.9 72.2 109.8 77.65 106.75 84 104.1 89.5 104.1 92.95 104.1 97.95 106.6 102.85 108.1 105.8 112.15 111.1 116.15 116.4 117.65 119.25 120.15 124.1 120.15 129.05 120.15 140.2 109.55 145.8 101.85 149.85 92.1 149.85 89.9 149.85 74.05 139.1 58.9 128.8 57.35 127.05 50.9 119.9 46.25 108.45 43.1 100.6 39.95 88.25 35.15 95.7 27 107.65 21.25 117.55 21.25 127.05 21.25 134.35 22.8 138.25 24 141.15 27 143.85 32 148.3 33 149.4 36.85 153.7 39.95 160.45
L 39.95 161.8
Q 36.3 159.35 30.95 155.35
L 29.9 155.6
Q 30.7 157.7953125 30.7 162.5 30.7 167.65 26.1 171.5 23.35 173.85 16.05 178.35 9.3 183.1 5.95 188.8 1.35 196.65 1.35 208.55 1.35 214.8 2.8 220.15 3.55 222.85 6 229 10.6 240.65 10.6 253.25 10.6 254.95 9.25 269.65 7.9 284.35 7.9 286 7.9 287.2802734375 8.35 290.25 8.46015625 291.00078125 8.6 291.85
L 7.65 291.15
Q 6.3111328125 293.030078125 5.05 294.85 7.5025390625 302.36328125 11.8 310.35 18.2 322.15 26.9 331.4 49.7 355.55 81.3 355.55 96.4 355.55 113.25 347.45 129.4 339.75 154.9 320.75 176.15 305 197.85 300.45 208 298.3 210.85 297.15 217 294.65 221.7 288.7 228.75 279.85 231.05 264.95 232.05 258.4 232.8 237.95 233.45 221.4 236.05 213.3 239.85 201.45 249.75 196.55 249 196.55 248.7 195.9
L 248.55 195.2
Q 247.3 195.2 244.75 194.55 242.2 193.85 240.45 193.85 238.85 193.85 235.35 194.55 231.9 195.2 229.8 195.2
L 229.8 191.15
Q 232.75 189.25 240.45 184.55 247.65 180.05 252.3 176.3 265.95 165.45 265.95 155.75 265.95 146.9 256.55 139.05 246.95 131.1 235.7 131.1 233.85 131.1 224.6 134.05 221.3154296875 135.09375 218.65 136.1 219.68359375 138.11796875 221.25 140.1 221.35 140.2 225.75 145.1 231.15 151.15 231.15 157.75 231.15 163.65 217.65 177.85 212.85 182.95 208.05 187.2 203.6 191.15 203 191.15 191.35 191.15 185.6 172.4 181.7 159.85 181.7 146.95 181.7 138.8 184.65 129.3 187.8 119.3 193.3 110.85 206.55 90.55 225.75 89.6 219.95 83.95 213.5 74.75 206.7 64.55 203.4 60 197.8 52.3 192.95 48.7 Z"/>
</g>

<g id="Duplicate_Items_Folder_Symbol_17_0_Layer0_0_FILL">
<path fill="url(#Gradient_13)" stroke="none" d="
M 164.45 0.25
Q 164.1 0.6 163.6 0.95 152.45 10 142.45 21.05 134.3 29.9 131.7 36.9 129.25 43.5 129.75 51.85 130.1 58.3 132.5 67 135.45 76.8 136.7 81.75 138.9 90.35 139.05 96.8 139.35 106.1 135.75 115.1 132.9 121.95 128.3 127.45 130 124.7 130.25 119.95 130.4 118.2 130.4 116.55 130.4 107.35 127.3 98.4 126.35 95.9 124.9 95.9 123.3 96.05 122.8 99.25 122 105.4 118.65 110.75 116.95 113.4 114.7 116.1
L 107.8 124.7
Q 106.25 126.75 106.8 127.95 106.9 128.1 107.05 128.25 105.45 131.45 102.7 134.55 100 137.55 94.8 142
L 83 151.75
Q 81.8 152.7 80.9 152.85 80.25 152.9 79.75 152.55 79.75 152.45 79.85 152.45 80.5 152.2 80.75 150.95 81.05 149.15 80.65 146.55 80.35 144.95 79.85 143.15 79.4 141.4 78.7 140.55 77.45 139.15 76.05 139.8 75.35 140.2 74.75 141.7 71.6 149 66.65 155.35 64.3 158.45 61.75 161.15 57.85 165.55 56.6 166.8 54.9 168.45 51.85 170.9 47.8 174.3 47 174.95 31.3 188.05 21.2 206 17.35 212.65 16.7 217.35
L 15.75 217.2
Q 15.85 218.65 13.95 220.55 12.2 222.55 10.75 223.65 9.4 224.7 8.75 225.25 7.5 226.15 6.85 226.95 5.7 228.4 4.6 231.15 3.3 234.7 2.8 235.55 1.5 237.8 1.15 239.05 0.7 240.5 0.7 243.25 0.65 243.9 0.3 245.75 0 247.3 0 248.2 0.05 249.1 0.35 250.75 0.7 252.5 0.7 253.3 0.8 254.1 0.65 256.3 0.5 258.2 0.7 259.3 1 260.5 1.6 261.8
L 2 263
Q 0.95 263.5 0.55 265.85 0.55 266.15 0.55 266.45 -0.2 275.35 3.95 285.75 6.8 292.85 13.8 304.15 19.25 313.25 23.05 318.8 28.4 326.6 33.7 332.5 46.95 347.1 61.9 351.8 69.2 354.1 78.6 354.45 85.1 354.7 95.6 353.95 124.4 351.85 143.1 345.8 168.8 337.4 183.85 320.7 191 312.8 197.8 300.15 201.7 292.85 208.95 277.8 216.75 262.45 225.7 248.5 231.25 240.05 233.3 235.4 236.6 227.7 235.55 221.1 235.45 220.6 235.3 220.1 235.05 219 234.3 218.15 233.8 217.5 233.25 217.2 233.5 216.7 233.8 216.2 234 215.8 235.9 213.35 237.15 211.7 237.7 210.45 238.65 208.6 239.6 203.6 240.1 199.2 239.95 197.95 239.75 195.5 238.35 192.75 237.55 191 235.6 187.9
L 231.4 181.75
Q 227.65 176.55 226.8 174.75 224.5 169.9 224.75 162.4 225 156.95 227.1 147.9
L 226.35 147.7
Q 225.9 149.85 225.2 151.9 224.6 153.65 222.9 157.25 221.2 160.65 220.65 162.5 219.65 165.8 219.1 166.8 218.05 169.05 216.15 169.6 216 165.65 217.05 162.45 217.55 160.5 219.05 157.05 220.65 153.35 221.15 151.55 223.75 142.15 219.05 131.05 217.25 126.8 214.05 121.9 212.25 119.2 208 113.35 203.8 107.65 202 104.4 196.55 94.25 196.05 80.1 195.85 71.85 197.35 64.3 194.8 67.35 191 73.5
L 188.1 78.05
Q 187.75 78.05 187.3 78.15 187.15 78.15 187 78.2 186.2 78.4 185.7 79 184.7 79.95 184 82.2 182.3 87.75 181.8 93.3 181.5 96.05 181.5 98.9 181.5 100.35 182.15 100.85 182.8 101.35 183.55 101.05 184.1 103.15 184.5 104.25
L 185.85 106.9
Q 186.45 108.5 186.2 110.6 186.05 111.9 185.4 114.45
L 184.5 114.65
Q 184.55 111.85 182.55 108.2 181.45 106.2 179.05 102.05 178.25 100.35 177.45 97 177.05 95.4 175.6 87.95
L 173.85 78.9
Q 172.85 73.55 172.75 70.8 172.7 68.65 173.35 62.65 174.3 56.55 175 54.4 176.3 50.85 176.45 50.15 176.6 49.55 176.75 48.55 176.9 48.45 177.05 48.45 178.2 48.1 178.7 47.8 179 47.6 179.25 47.4 179.65 46.95 179.8 46.4 180.15 45.45 179.5 44.8 178.85 44 177.1 44.4 174.8 45 172.75 46.45 171.6 47.4 171.05 47.8 170 48.6 169.15 48.9 167.7 49.4 166.1 48.75 164.5 48.1 163.8 46.75 163.45 45.85 162.95 43.9 162.7 43.35 162.05 42.1 161.4 40.95 161.2 40.3 160.7 38.95 160.7 36.1
L 160.7 29.25
Q 160.7 25.1 160.85 23.95 161.05 21.8 162.05 17.45
L 162.7 14.65
Q 163.15 13.1 163.95 10.05 164.6 7.85 166.2 3.5 166.6 2.05 166.45 1.3 166.2 0 165.05 0
L 164.45 0.25
M 125.4 130.5
Q 124.9 129.4 126.05 127.1 126.5 126.3 126.85 125.55
L 127 127.1
Q 127.05 127.4 127.2 127.65 127.3 128.05 127.5 128.3 126.5 129.4 125.4 130.5 Z"/>
</g>
</defs>

<g transform="matrix( -0.6658172607421875, 0, 0, 0.6658172607421875, 520.45,355.5) ">
<g transform="matrix( 1, 0, 0, 1, -160.55,-288.2) ">
<g transform="matrix( 1, 0, 0, 1, 5.45,-72.4) ">
<g transform="matrix( 0, 0.370941162109375, -0.681060791015625, 0, 231.75,620.75) ">
<g transform="matrix( 1, 0, 0, 1, 0,0) ">
<use xlink:href="#Blaze_Blaze_fire_stream_6_Layer0_0_FILL"/>
</g>
</g>

<g transform="matrix( 0, 0.370941162109375, -0.681060791015625, 0, 567.4,622.05) ">
<g transform="matrix( 1, 0, 0, 1, 0,0) ">
<use xlink:href="#Blaze_Blaze_fire_stream_4_Layer0_0_FILL"/>
</g>
</g>
</g>

<g transform="matrix( -0.639251708984375, 0, 0, 0.90972900390625, 355.6,33.3) ">
<g transform="matrix( -0.7543792724609375, 0, 0, 0.7543792724609375, 288.95,161.8) ">
<g transform="matrix( 1.5428009033203125, 0, 0, 1.131591796875, -59.9,-42.25) ">
<g transform="matrix( 1, 0, 0, 1, 0,0) ">
<use xlink:href="#Duplicate_Items_Folder_Symbol_17_3_Layer0_0_FILL"/>
</g>
</g>
</g>
</g>

<g transform="matrix( 0.962310791015625, 0.271881103515625, -0.271881103515625, 0.962310791015625, 142.55,139.9) ">
<g transform="matrix( 1, 0, 0, 1, 0,0) ">
<use xlink:href="#Symbol_151_1_Layer1_0_FILL"/>
</g>
</g>

<g transform="matrix( 1.007965087890625, 0, 0, 1.089935302734375, 10.1,-17.65) ">
<g transform="matrix( 0.8552398681640625, 0, 0, 0.5524444580078125, 173.7,31.75) ">
<g transform="matrix( 1.08441162109375, 0, 0, 0.7657928466796875, -9.25,75.4) ">
<g transform="matrix( 1, 0, 0, 1, 0,0) ">
<use xlink:href="#Duplicate_Items_Folder_Symbol_17_4_Layer0_0_FILL"/>
</g>
</g>
</g>

<g transform="matrix( -0.7543792724609375, 0, 0, 0.7543792724609375, 288.95,161.8) ">
<g transform="matrix( 0.6097259521484375, 0, 0, 0.8649139404296875, 43.2,43.5) ">
<g transform="matrix( 1, 0, 0, 1, 0,0) ">
<use xlink:href="#Duplicate_Items_Folder_Symbol_17_0_Layer0_0_FILL"/>
</g>
</g>
</g>

<g transform="matrix( 0.7629852294921875, 0, 0, 0.7629852294921875, 320.8,269.9) ">
<g transform="matrix( 0.328155517578125, 0, 0, 0.3170623779296875, 74.35,219.7) ">
<g transform="matrix( 1, 0, 0, 1, 0,0) ">
<use xlink:href="#Duplicate_Items_Folder_Symbol_17_0_Layer0_0_FILL"/>
</g>
</g>
</g>
</g>

<g transform="matrix( -0.638885498046875, 0, 0, 0.9207611083984375, 419.7,5.85) ">
<g transform="matrix( 0, 0.370941162109375, -0.681060791015625, 0, 231.75,620.75) ">
<g transform="matrix( 1, 0, 0, 1, 0,0) ">
<use xlink:href="#Blaze_Blaze_fire_stream_6_Layer0_0_FILL"/>
</g>
</g>

<g transform="matrix( 0, 0.370941162109375, -0.681060791015625, 0, 567.4,622.05) ">
<g transform="matrix( 1, 0, 0, 1, 0,0) ">
<use xlink:href="#Blaze_Blaze_fire_stream_4_Layer0_0_FILL"/>
</g>
</g>
</g>

<g transform="matrix( 0.638885498046875, 0, 0, 0.9207611083984375, 27.95,7.15) ">
<g transform="matrix( 0, 0.370941162109375, -0.681060791015625, 0, 231.75,620.75) ">
<g transform="matrix( 1, 0, 0, 1, 0,0) ">
<use xlink:href="#Blaze_Blaze_fire_stream_6_Layer0_0_FILL"/>
</g>
</g>

<g transform="matrix( 0, 0.370941162109375, -0.681060791015625, 0, 567.4,622.05) ">
<g transform="matrix( 1, 0, 0, 1, 0,0) ">
<use xlink:href="#Blaze_Blaze_fire_stream_4_Layer0_0_FILL"/>
</g>
</g>
</g>
</g>
</g>
</svg>
