
<svg xmlns="http://www.w3.org/2000/svg" version="1.1" xmlns:xlink="http://www.w3.org/1999/xlink" preserveAspectRatio="none" x="0px" y="0px" width="1000px" height="1000px" viewBox="0 0 1000 1000">
<defs>
<linearGradient id="Gradient_1" gradientUnits="userSpaceOnUse" x1="-1607.875" y1="110.60000000000001" x2="-1524.8249999999998" y2="224.5" spreadMethod="pad">
<stop  offset="0%" stop-color="#FF6600"/>

<stop  offset="50.19607843137255%" stop-color="#FFCC00"/>

<stop  offset="100%" stop-color="#FFFFFF"/>
</linearGradient>

<linearGradient id="Gradient_2" gradientUnits="userSpaceOnUse" x1="-1571.1000000000001" y1="158.29999999999998" x2="-1524.8" y2="281.9" spreadMethod="pad">
<stop  offset="0%" stop-color="#FF6600"/>

<stop  offset="50.19607843137255%" stop-color="#FFCC00"/>

<stop  offset="100%" stop-color="#FFFFFF"/>
</linearGradient>

<linearGradient id="Gradient_3" gradientUnits="userSpaceOnUse" x1="-1503" y1="-9.325000000000003" x2="-1464.4" y2="88.525" spreadMethod="pad">
<stop  offset="0%" stop-color="#FF6600"/>

<stop  offset="50.19607843137255%" stop-color="#FFCC00"/>

<stop  offset="100%" stop-color="#FFFFFF"/>
</linearGradient>

<linearGradient id="Gradient_4" gradientUnits="userSpaceOnUse" x1="111.425" y1="337.9125" x2="134.675" y2="27.087499999999977" spreadMethod="pad">
<stop  offset="18.823529411764707%" stop-color="#FFFFFF"/>

<stop  offset="38.03921568627451%" stop-color="#FFFF99"/>

<stop  offset="90.19607843137256%" stop-color="#FF6600"/>
</linearGradient>

<linearGradient id="Gradient_5" gradientUnits="userSpaceOnUse" x1="94.19999999999999" y1="362.975" x2="149" y2="7.324999999999989" spreadMethod="pad">
<stop  offset="18.823529411764707%" stop-color="#FFFFFF"/>

<stop  offset="38.03921568627451%" stop-color="#FFFF99"/>

<stop  offset="90.19607843137256%" stop-color="#FF6600"/>
</linearGradient>

<linearGradient id="Gradient_6" gradientUnits="userSpaceOnUse" x1="106.8875" y1="335.55" x2="131.9125" y2="88.34999999999998" spreadMethod="pad">
<stop  offset="18.823529411764707%" stop-color="#FFFFFF"/>

<stop  offset="38.03921568627451%" stop-color="#FFFF99"/>

<stop  offset="90.19607843137256%" stop-color="#FF6600"/>
</linearGradient>

<g id="Blaze_Blaze_fire_stream_6_Layer0_0_FILL">
<path fill="#FF9900" stroke="none" d="
M -1203.1 288.55
Q -1195.4744140625 284.44296875 -1184.95 281.4 -1177.55 279.25 -1161.1 275.85 -1148.15 273.2 -1144.45 271.4 -1144.45 270.8 -1144.15 269.95 -1143.55 268.15 -1142.1 266.7 -1145.85 264.85 -1151.05 263.45 -1156.65 262 -1160.9 262 -1170.5 262 -1177.8 265.4 -1184.2 268.3 -1190.85 274.95 -1194.1630859375 278.215625 -1203.1 288.55
M -1237.2 30.05
Q -1240.85 28.2 -1241.65 28.2 -1244.8 28.2 -1255.95 38.05 -1259.2068359375 40.905078125 -1261.85 43.45 -1249.01171875 45.5599609375 -1238.3 50.3 -1235.05 51.75 -1219.35 60.8 -1217.4 58.85 -1217.3 58.6 -1217 57.85 -1217 53.75 -1217 44.05 -1228.8 35.25 -1232.7 32.3 -1237.2 30.05
M -1015.8 21.2
Q -1019 16.45 -1026.35 16.45 -1028.8 16.45 -1031.9 19.1 -1033.0150390625 20.0681640625 -1036.9 23.85 -1028.2583984375 35.00546875 -1026.6 37.65 -1026 38.6 -1022.8 42.3
L -1015.75 42.3
Q -1015.75 41.4 -1014.55 37.65 -1013.4 33.9 -1013.4 30.55 -1013.4 24.7 -1015.8 21.2
M -946 239.75
Q -947.700390625 237.5685546875 -949.3 235.65 -953.7076171875 246.880078125 -959.85 255.65 -961.1 257.45 -966.35 264.2 -969.75 268.6 -971.1 271.4
L -959.65 271.4
Q -947.35 260.35 -947.15 260.2 -940.85 253.55 -940.85 247.9 -940.85 246.45 -946 239.75
M -1330.35 409.15
Q -1331.55 408.55 -1331.55 407.1 -1340.8 414.05 -1354.2 417.75 -1361.5 419.75 -1374.45 422.9 -1384.55 426.25 -1389.1 433.35 -1394.7 442.2 -1394.7 460 -1394.7 464.5 -1391.85 472.9 -1388.9 481.5 -1384.35 489.9 -1372.85 511.15 -1362.1 512.55
L -1360.05 514.6
Q -1365.2955078125 509.0916015625 -1372.35 492.55 -1375.7169921875 484.62109375 -1377.25 480.45 -1366.11484375 448.5759765625 -1345.4 438.95 -1338.2 435.6 -1328.5 434.4 -1318.75 433.7 -1315.4 432.95 -1317.75 429.4 -1322.1 427 -1324.5 425.7 -1328.7 423.75 -1331.75 421.95 -1332.1 419.2 -1332.5 415.85 -1329.2 409.45
L -1330.35 409.15
M -1506.95 393.3
Q -1500.5 382.65 -1495.45 369.8 -1513.45 381.85 -1517.55 393.5 -1519.1 397.8 -1519.15 403.4 -1519.2 406.6 -1518.95 413 -1518.95 420.85 -1517.05 424.5 -1515.45 427.5 -1511.45 429.45 -1506.05 431.65 -1502.6 433.5 -1499.201953125 435.2798828125 -1496.05 437.7 -1499.2958984375 434.226171875 -1502.75 429.1 -1511.9 415.65 -1511.9 402.4 -1511.9 401.4 -1506.95 393.3
M -1605.1 279.7
Q -1608.725 288.1458984375 -1614.75 293.05 -1618.9 296.45 -1625 298.95 -1627.1 299.8 -1636 302.7 -1649.85 307.2 -1655.5 314.5 -1664.05 325.5 -1664.05 349.85 -1664.05 363.6 -1662.9 368.85 -1661.75 373.85 -1658.35 376.2 -1653.15 378.9 -1649.05 381.25 -1644.9451171875 383.595703125 -1640.8 386.85 -1643.022265625 383.71484375 -1645.15 379.15 -1649.95 368.8 -1649.95 362.75 -1649.95 332.85 -1627.2 322.2 -1619.5 318.6 -1610.55 317.85 -1603.45 317.3 -1600.9 318.4
L -1600.9 304.3
Q -1602.65 296.2 -1603.85 288.9 -1604.765625 283.3744140625 -1605.1 279.7
M -1680.5 194.15
Q -1679.978125 193.6732421875 -1679.4 193.15
L -1680.5 191.8 -1680.5 194.15
M -1429.85 84.8
Q -1435.0375 86.1822265625 -1439.95 90 -1444.65 93.7 -1448.75 98.4
L -1448.75 103.1 -1418.2 103.1
Q -1415.95 95.7 -1424.8 88.35 -1426.8365234375 86.6818359375 -1429.85 84.8
M -1352.75 84.8
Q -1362.77421875 86.546484375 -1370.85 94.25 -1380.9 103.8 -1380.9 114.55 -1380.9 122.5 -1376.75 127.05 -1375.4 128.5 -1373.6 129.7 -1371.85 130.7 -1371.5 131 -1371.5 116.7 -1362.1 100.5 -1359.85 96.65 -1355.65 90.5 -1352.7 86.2 -1352.7 85.45 -1352.7 85.1267578125 -1352.75 84.8
M -1593.05 98.75
L -1593.85 98.4 -1593.85 100.75
Q -1593.455859375 99.7533203125 -1593.05 98.75
M -1366.8 -2.05
L -1367.5 -0.35
Q -1367.14765625 -0.165234375 -1366.8 0
L -1366.8 -2.05
M -1468.75 -40.05
L -1469.25 -39.3
Q -1468.8171875 -39.537890625 -1468.4 -39.8 -1468.56328125 -39.9015625 -1468.75 -40.05
M -719.65 -13.8
Q -725.1 -13.8 -726.55 -12.65 -727.848046875 -11.655859375 -729.55 -8.55 -721.931640625 -2.203125 -720.4 -1.15 -718.8 0 -714.95 0 -711.6 0 -710.7 -1 -709.85 -2.05 -709.1 -2.05
L -709.1 -11.45
Q -709.85 -11.45 -713.05 -12.6 -716.3 -13.8 -719.65 -13.8 Z"/>

<path fill="url(#Gradient_1)" stroke="none" d="
M -1680.5 191.8
L -1679.4 193.15 -1679.4 193.1 -1680.5 191.8 Z"/>

<path fill="url(#Gradient_2)" stroke="none" d="
M -1554.1 126.25
Q -1560.15 131.25 -1565.35 141.6 -1568.15 147.15 -1573 156.9 -1577.45 163.9 -1583.3 163.9 -1588.25 163.9 -1591.85 158.05 -1592.55 156.9 -1597.9 145.1 -1601.85 136.35 -1606.25 132.2 -1612.4 126.3 -1621.75 126.3 -1628.85 126.3 -1638.95 133.25 -1648.3 139.75 -1657.75 150.35 -1667.1 160.9 -1673.25 171.8 -1679.75 183.4 -1680.5 191.8
L -1679.4 193.1
Q -1675.4220703125 189.652734375 -1668.65 184.4 -1658 176.15 -1652.3 173.3
L -1596.2 173.3
Q -1597.85 178.1 -1599.45 188.15 -1600.9 197.65 -1600.9 202.35 -1600.9 216.35 -1600.45 217.55 -1600.1 218.5 -1598.45 222.3 -1596.763671875 226.5365234375 -1594.75 233.35 -1595.71796875 215.424609375 -1571.2 195.55 -1560.9 187.15 -1549.2 181.15 -1538.6 175.65 -1534.25 175.65 -1531.35 175.65 -1529.35 179.05 -1527.35 182.4 -1526 182.4 -1523.05 182.4 -1519.55 180.2 -1516 178 -1513.1 178 -1505.3 178 -1503.15 191.8 -1502.5 196.1 -1502.5 208.25 -1493.4 186.55 -1481.8 167.35 -1469.2 146.4 -1457.85 135.7 -1468.29296875 135.5810546875 -1482.1 134.55 -1497.5 133.35 -1502.5 133.35 -1506.4 133.35 -1508.45 130.55 -1508.75 130.1 -1511.45 124.25 -1512.236328125 122.5791015625 -1513.2 121.2 -1521.0484375 125.19140625 -1524.05 123.3 -1525.15 122.65 -1527.3 120.8 -1529.6 119.25 -1533.05 119.25 -1545.7 119.25 -1554.1 126.25 Z"/>

<path fill="url(#Gradient_3)" stroke="none" d="
M -1469.25 -39.3
L -1468.75 -40.05
Q -1470.8498046875 -41.469921875 -1472.45 -42.9 -1475 -45.15 -1476.1 -45.6 -1478 -46.4 -1482.55 -46.4 -1509.05 -46.4 -1532.95 -14.3 -1541.55 -2.7 -1548.5 11.35 -1554.1 22.75 -1556.25 30.55 -1557.3 34.3 -1563.2 43.4 -1566.7 48.85 -1575.5 61.7 -1592.7 87.5 -1593.85 98.4
L -1593.05 98.75
Q -1582.8453125 75.2435546875 -1555.15 60.7 -1544.35 55.05 -1532.75 51.8 -1522.9 49.05 -1516.6 49.05
L -1512 49.05
Q -1513.559375 49.096875 -1515.4 50.55 -1516.8 51.65 -1518.95 54.05
L -1518.95 86.65
Q -1514.05 68.35 -1495.4 49 -1477.9 30.85 -1453.55 16.9 -1429.1 2.85 -1406.4 -2 -1382.5111328125 -7.0806640625 -1367.5 -0.35
L -1366.8 -2.05
Q -1381.1 -11.85 -1388.8 -20.25 -1392.7 -24.55 -1396.5 -30.85 -1398.85 -34.8 -1401.6 -35.8 -1405 -37 -1415.85 -37 -1420.35 -37 -1427.8 -31.55 -1432.65 -28 -1441.85 -19.5 -1451.7 -10.4 -1455.4 -7.5 -1462.4 -2.05 -1466.1 -2.05 -1479.4 -2.05 -1483.75 -4.45 -1488.4 -7 -1488.4 -14.95 -1488.4 -21.55 -1482.9 -28.3 -1477.7 -34.6 -1469.25 -39.3 Z"/>
</g>

<g id="Duplicate_Items_Folder_Symbol_17_0_Layer0_0_FILL">
<path fill="url(#Gradient_4)" stroke="none" d="
M 164.45 0.25
Q 164.1 0.6 163.6 0.95 152.45 10 142.45 21.05 134.3 29.9 131.7 36.9 129.25 43.5 129.75 51.85 130.1 58.3 132.5 67 135.45 76.8 136.7 81.75 138.9 90.35 139.05 96.8 139.35 106.1 135.75 115.1 132.9 121.95 128.3 127.45 130 124.7 130.25 119.95 130.4 118.2 130.4 116.55 130.4 107.35 127.3 98.4 126.35 95.9 124.9 95.9 123.3 96.05 122.8 99.25 122 105.4 118.65 110.75 116.95 113.4 114.7 116.1
L 107.8 124.7
Q 106.25 126.75 106.8 127.95 106.9 128.1 107.05 128.25 105.45 131.45 102.7 134.55 100 137.55 94.8 142
L 83 151.75
Q 81.8 152.7 80.9 152.85 80.25 152.9 79.75 152.55 79.75 152.45 79.85 152.45 80.5 152.2 80.75 150.95 81.05 149.15 80.65 146.55 80.35 144.95 79.85 143.15 79.4 141.4 78.7 140.55 77.45 139.15 76.05 139.8 75.35 140.2 74.75 141.7 71.6 149 66.65 155.35 64.3 158.45 61.75 161.15 57.85 165.55 56.6 166.8 54.9 168.45 51.85 170.9 47.8 174.3 47 174.95 31.3 188.05 21.2 206 17.35 212.65 16.7 217.35
L 15.75 217.2
Q 15.85 218.65 13.95 220.55 12.2 222.55 10.75 223.65 9.4 224.7 8.75 225.25 7.5 226.15 6.85 226.95 5.7 228.4 4.6 231.15 3.3 234.7 2.8 235.55 1.5 237.8 1.15 239.05 0.7 240.5 0.7 243.25 0.65 243.9 0.3 245.75 0 247.3 0 248.2 0.05 249.1 0.35 250.75 0.7 252.5 0.7 253.3 0.8 254.1 0.65 256.3 0.5 258.2 0.7 259.3 1 260.5 1.6 261.8
L 2 263
Q 0.95 263.5 0.55 265.85 0.55 266.15 0.55 266.45 -0.2 275.35 3.95 285.75 6.8 292.85 13.8 304.15 19.25 313.25 23.05 318.8 28.4 326.6 33.7 332.5 46.95 347.1 61.9 351.8 69.2 354.1 78.6 354.45 85.1 354.7 95.6 353.95 124.4 351.85 143.1 345.8 168.8 337.4 183.85 320.7 191 312.8 197.8 300.15 201.7 292.85 208.95 277.8 216.75 262.45 225.7 248.5 231.25 240.05 233.3 235.4 236.6 227.7 235.55 221.1 235.45 220.6 235.3 220.1 235.05 219 234.3 218.15 233.8 217.5 233.25 217.2 233.5 216.7 233.8 216.2 234 215.8 235.9 213.35 237.15 211.7 237.7 210.45 238.65 208.6 239.6 203.6 240.1 199.2 239.95 197.95 239.75 195.5 238.35 192.75 237.55 191 235.6 187.9
L 231.4 181.75
Q 227.65 176.55 226.8 174.75 224.5 169.9 224.75 162.4 225 156.95 227.1 147.9
L 226.35 147.7
Q 225.9 149.85 225.2 151.9 224.6 153.65 222.9 157.25 221.2 160.65 220.65 162.5 219.65 165.8 219.1 166.8 218.05 169.05 216.15 169.6 216 165.65 217.05 162.45 217.55 160.5 219.05 157.05 220.65 153.35 221.15 151.55 223.75 142.15 219.05 131.05 217.25 126.8 214.05 121.9 212.25 119.2 208 113.35 203.8 107.65 202 104.4 196.55 94.25 196.05 80.1 195.85 71.85 197.35 64.3 194.8 67.35 191 73.5
L 188.1 78.05
Q 187.75 78.05 187.3 78.15 187.15 78.15 187 78.2 186.2 78.4 185.7 79 184.7 79.95 184 82.2 182.3 87.75 181.8 93.3 181.5 96.05 181.5 98.9 181.5 100.35 182.15 100.85 182.8 101.35 183.55 101.05 184.1 103.15 184.5 104.25
L 185.85 106.9
Q 186.45 108.5 186.2 110.6 186.05 111.9 185.4 114.45
L 184.5 114.65
Q 184.55 111.85 182.55 108.2 181.45 106.2 179.05 102.05 178.25 100.35 177.45 97 177.05 95.4 175.6 87.95
L 173.85 78.9
Q 172.85 73.55 172.75 70.8 172.7 68.65 173.35 62.65 174.3 56.55 175 54.4 176.3 50.85 176.45 50.15 176.6 49.55 176.75 48.55 176.9 48.45 177.05 48.45 178.2 48.1 178.7 47.8 179 47.6 179.25 47.4 179.65 46.95 179.8 46.4 180.15 45.45 179.5 44.8 178.85 44 177.1 44.4 174.8 45 172.75 46.45 171.6 47.4 171.05 47.8 170 48.6 169.15 48.9 167.7 49.4 166.1 48.75 164.5 48.1 163.8 46.75 163.45 45.85 162.95 43.9 162.7 43.35 162.05 42.1 161.4 40.95 161.2 40.3 160.7 38.95 160.7 36.1
L 160.7 29.25
Q 160.7 25.1 160.85 23.95 161.05 21.8 162.05 17.45
L 162.7 14.65
Q 163.15 13.1 163.95 10.05 164.6 7.85 166.2 3.5 166.6 2.05 166.45 1.3 166.2 0 165.05 0
L 164.45 0.25
M 125.4 130.5
Q 124.9 129.4 126.05 127.1 126.5 126.3 126.85 125.55
L 127 127.1
Q 127.05 127.4 127.2 127.65 127.3 128.05 127.5 128.3 126.5 129.4 125.4 130.5 Z"/>
</g>

<g id="Symbol_151_1_Layer1_0_FILL">
<path fill="#000000" stroke="none" d="
M 172.1 28.3
Q 174.4 17.75 177.05 5.7 177.25 4.45 164.05 1.1 150.9 -2.25 149.1 -1.45 142.05 3.45 134.2 8.8 118.35 19.55 110.55 23.15 108.55 22.95 106.55 22.85 105.45 22.85 73.2 50.8 40.5 79.15 40.25 81.9 40 84.6 43.6 87.3 45.35 88.65 47.2 89.45 38.05 96.4 22.65 109.6 0.8 128.45 -6 137.4 -6.6 138.15 -3.65 141.8 -0.9 145.2 0.5 146.05 9.3 151.4 19.45 151.4 44.7 153.05 68.75 146.35 68.7 147 67.8 152.45 67 158 67.1 160 67.15 161 70.95 169.9 75.1 179.55 77.55 183.3 78.7 185.1 83.75 188.85 89.15 192.9 91.6 193.35 94.35 193.7 105.15 192.85 116.55 191.9 118.1 190.8 127.35 184.05 149 164.8 168.85 147.15 170 145.55 170.8 144.35 172.05 141.25 173.2 138.4 173.25 137.8 173.45 133 171.45 118.9 169.5 104.9 168.05 100.45 166.55 95.8 161.5 95.65 161.6 95.2 164.1 91.7 166.75 88.05 166.8 87.9 167.2 87.15 166.6 74.8 165.95 61.2 166.6 56.5 167.6 48.95 172.1 28.3
M 162.8 18.95
Q 166.45 12.5 167.3 11.3
L 159.75 46 157.55 28.4
Q 159.05 25.45 162.8 18.95
M 150.8 24.15
L 130.05 24.35 120.4 24.4
Q 123.5 22.55 136.95 13.85 149.6 5.9 153 5.05
L 164.8 7.05 153.8 25.35 150.8 24.15
M 150 30.95
L 152.85 27.9 157.65 80.95
Q 155.9 84.25 153.6 88.05 149.05 95.65 146 98.75
L 142.45 103.4
Q 150 101.65 154.7 95.35 154.55 96.05 155.25 98.75 156.15 102.15 157.75 103.15
L 160.85 108.3
Q 162.65 116.3 164.45 124.35 166.5 133.3 161.35 140.9 158 145.85 146.75 158.3 135.3 170.95 131.1 174.2
L 111.25 188.1
Q 101.05 189 99.1 188.2 97.65 161.7 94.6 149.85 97.8 150.55 106.75 151.45 118.4 152.6 123.4 151.9 125.2 151.6 131.4 147.35 139.3 141.95 141.05 137.1 145.2 125.6 142.95 113.65
L 139.65 106.25
Q 138.55 106.1 132.25 107.8 125.2 109.75 122.2 111.65 112.2 118.15 103.25 125.75
L 92.75 134.35 91.95 132.55 91.45 131.75 92.25 130.35
Q 94.1 127.15 94.7 116.7 95.3 105.9 93.4 102.65 91.5 99.35 81 92.85 69.55 85.75 64.05 86.2
L 63.3 87.2
Q 69.95 89.65 76.6 92.15 88.7 96.7 90.95 109.65 91 111.3 91.1 112.95 91.55 122 86.3 129.25 71.6 140.4 63.95 142.75 59.05 144.2 43 144.4 27.4 144.6 21.8 143.55
L 3.35 138.85 4.95 136.3
Q 7.35 133.3 50.85 86.95
L 49.8 83.8
Q 94.95 83.2 102.3 80.65
L 150 30.95
M 145.8 28.35
L 149.45 28.15
Q 107.85 68.7 104.5 72.15 97.75 79.1 88.1 78.75 84.1 79.2 76 79.85 64.8 80.7 60.3 80.6
L 52.3 80.75
Q 55.35 77.7 82.5 54.55 110.6 30.55 112.2 30.1
L 145.8 28.35
M 76.5 164.95
Q 73.75 157.35 74.45 149.1 74.8 149.3 75.2 149.5 76.85 150.55 78.5 149.35
L 93 149.65
Q 93 150 93.6 167 94 184.45 92.95 187.2
L 90.65 186.8 85.6 184.75
Q 80.2 175.15 76.5 164.95 Z"/>

<path fill="#333333" stroke="none" d="
M 93.6 167
Q 93 150 93 149.65
L 78.5 149.35 90.65 186.8 92.95 187.2
Q 94 184.45 93.6 167
M 88.1 78.75
L 145.8 28.35 112.2 30.1 60.3 80.6
Q 64.8 80.7 76 79.85 84.1 79.2 88.1 78.75
M 99.1 188.2
Q 101.05 189 111.25 188.1 113.75 183.65 118.3 169.25 121.7 158.5 123.4 151.9 118.4 152.6 106.75 151.45 97.8 150.55 94.6 149.85 97.65 161.7 99.1 188.2
M 63.3 87.2
L 64.05 86.2
Q 69.55 85.75 81 92.85 91.5 99.35 93.4 102.65 95.3 105.9 94.7 116.7 94.1 127.15 92.25 130.35
L 91.95 132.55 92.75 134.35 103.25 125.75 103.15 124.35 102.3 80.65
Q 94.95 83.2 49.8 83.8
L 50.85 86.95
Q 7.35 133.3 4.95 136.3 15.5 134.55 26.1 132.85 30.25 132.3 60.05 121.1 90.35 109.8 90.95 109.65 88.7 96.7 76.6 92.15 69.95 89.65 63.3 87.2
M 155.25 98.75
Q 154.55 96.05 154.7 95.35 150 101.65 142.45 103.4
L 146 98.75 139.65 106.25 142.95 113.65 157.75 103.15
Q 156.15 102.15 155.25 98.75
M 130.05 24.35
L 150.8 24.15 164.8 7.05 153 5.05 130.05 24.35 Z"/>

<path fill="#666666" stroke="none" d="
M 75.2 149.5
Q 74.8 149.3 74.45 149.1
L 85.6 184.75 90.65 186.8 78.5 149.35
Q 76.85 150.55 75.2 149.5
M 112.2 30.1
Q 110.6 30.55 82.5 54.55 55.35 77.7 52.3 80.75
L 60.3 80.6 112.2 30.1
M 149.45 28.15
L 145.8 28.35 88.1 78.75
Q 97.75 79.1 104.5 72.15 107.85 68.7 149.45 28.15
M 91.95 132.55
L 92.25 130.35 91.45 131.75 91.95 132.55
M 160.85 108.3
L 157.75 103.15 142.95 113.65
Q 145.2 125.6 141.05 137.1 139.3 141.95 131.4 147.35 125.2 151.6 123.4 151.9 121.7 158.5 118.3 169.25 113.75 183.65 111.25 188.1
L 131.1 174.2
Q 133.05 169.65 146.7 139.4 160.1 109.75 160.85 108.3
M 26.1 132.85
Q 15.5 134.55 4.95 136.3
L 3.35 138.85 21.8 143.55
Q 33.35 140 44.7 136.25 66.3 128.95 86.8 118.7 86.95 120.35 86.95 123.1 86.95 127.4 86.3 129.25 91.55 122 91.1 112.95 91 111.3 90.95 109.65 90.35 109.8 60.05 121.1 30.25 132.3 26.1 132.85
M 128.95 97.65
Q 150.75 74.9 150.8 74.7 151.3 67.05 150 30.95
L 102.3 80.65 103.15 124.35
Q 107.25 120.25 128.95 97.65
M 150.8 24.15
L 153.8 25.35 164.8 7.05 150.8 24.15
M 130.05 24.35
L 153 5.05
Q 149.6 5.9 136.95 13.85 123.5 22.55 120.4 24.4
L 130.05 24.35
M 167.3 11.3
Q 166.45 12.5 162.8 18.95 159.05 25.45 157.55 28.4
L 159.75 46 167.3 11.3 Z"/>

<path fill="#999999" stroke="none" d="
M 74.45 149.1
Q 73.75 157.35 76.5 164.95 80.2 175.15 85.6 184.75
L 74.45 149.1
M 160.85 108.3
Q 160.1 109.75 146.7 139.4 133.05 169.65 131.1 174.2 135.3 170.95 146.75 158.3 158 145.85 161.35 140.9 166.5 133.3 164.45 124.35 162.65 116.3 160.85 108.3
M 43 144.4
Q 59.05 144.2 63.95 142.75 71.6 140.4 86.3 129.25 86.95 127.4 86.95 123.1 86.95 120.35 86.8 118.7 66.3 128.95 44.7 136.25 33.35 140 21.8 143.55 27.4 144.6 43 144.4
M 152.85 27.9
L 150 30.95
Q 151.3 67.05 150.8 74.7 150.75 74.9 128.95 97.65 107.25 120.25 103.15 124.35
L 103.25 125.75
Q 112.2 118.15 122.2 111.65 125.2 109.75 132.25 107.8 138.55 106.1 139.65 106.25
L 146 98.75
Q 149.05 95.65 153.6 88.05 155.9 84.25 157.65 80.95
L 152.85 27.9 Z"/>
</g>

<g id="Duplicate_Items_Folder_Symbol_17_2_Layer0_0_FILL">
<path fill="url(#Gradient_5)" stroke="none" d="
M 75.85 99.15
L 75.85 99.1 74.3 98.9 75.85 99.15 Z"/>

<path fill="url(#Gradient_6)" stroke="none" d="
M 183.65 21.45
Q 186.15 26.05 186.15 31.3 186.15 45.45 179.25 54.45 173.7 61.65 162.85 66.4 159.15 68.05 143.55 73.05 132.4 76.65 127.9 80.35
L 123.15 80.35
Q 122.6 76.85 122.6 70.35
L 121.9 70.2
Q 121.307421875 73.5484375 120.05 77.25 116.8 86.75 110.2 96.25 103.7 105.55 96.45 111.4 88.75 117.55 82.9 117.55 77.2 117.55 75.5 115.3 74.3 113.7 74.3 108.8 74.3 107.7 75.45 101.45 75.6712890625 100.2578125 75.85 99.15
L 74.3 98.9
Q 71.15 109.85 60.45 118.65 58.9 119.95 50.05 126.55 42.95 131.85 38.2 136.25 28.8 144.95 20.55 161.1 12.65 176.5 12.65 184.55 12.65 188 17.3 198.4 21.95 208.8 21.95 214.15 21.95 220 17.25 224.7 12.55 229.4 6.75 229.4 3.6 229.4 1.95 226.45 0.05 222.95 1 216.45 -14.05 226.45 -14.05 262.45 -14.05 278.65 -1.65 297.35 9.3 313.8 27.8 329.45 44.7 343.8 62.45 353 80.05 362.1 90.55 362.1 110.75 362.1 135.4 346.7 156.7 333.4 177.95 310.9 196.95 290.8 209.7 270.3 222.2 250.2 222.2 240.35 222.2 235.65 219.25 214.35 216.3 193.05 216.3 185.7 216.3 161.8 221.05 143.2 230.2 107.05 254.15 107.05 256.05 107.05 258.25 107.9
L 259.15 106.85
Q 256.933203125 105.03125 254.8 102.85 250.3 97.85 248.05 95.75 240.55 88.55 227.95 88.55 216.4 88.55 208.3 98.95 201.25 108 201.25 117.4 201.25 122.55 203.6 129.4 205.95 136.2 205.95 138.55 205.95 143.75 202.4 145.5 200.1 146.6 194.75 146.6 185.95 146.6 179.15 138.6 172.05 130.25 172.05 118.7 172.05 107.5 176.95 96.95 180.15 90.15 187.8 79.55 195.95 68.3 198.65 63.1 203.55 53.6 203.55 44.1 203.55 35.2 196.05 27.95 193.8 25.8 187.6 20.75 180.9 15.35 176.8 11.6 182.65 19.7 183.65 21.45 Z"/>
</g>
</defs>

<g transform="matrix( -0.6658172607421875, 0, 0, 0.6658172607421875, 520.45,355.5) ">
<g transform="matrix( 1, 0, 0, 1, -160.55,-288.2) ">
<g transform="matrix( 1, 0, 0, 1, 5.45,-72.4) ">
<g transform="matrix( 0, 0.370941162109375, -0.681060791015625, 0, 567.4,622.05) ">
<g transform="matrix( 1, 0, 0, 1, 0,0) ">
<use xlink:href="#Blaze_Blaze_fire_stream_6_Layer0_0_FILL"/>
</g>
</g>
</g>

<g transform="matrix( -0.639251708984375, 0, 0, 0.90972900390625, 355.6,33.3) ">
<g transform="matrix( -0.7543792724609375, 0, 0, 0.7543792724609375, 288.95,161.8) ">
<g transform="matrix( 0.328155517578125, 0, 0, 0.3170623779296875, 74.35,219.7) ">
<g transform="matrix( 1, 0, 0, 1, 0,0) ">
<use xlink:href="#Duplicate_Items_Folder_Symbol_17_0_Layer0_0_FILL"/>
</g>
</g>
</g>
</g>

<g transform="matrix( 0.962310791015625, 0.271881103515625, -0.271881103515625, 0.962310791015625, 142.55,139.9) ">
<g transform="matrix( 1, 0, 0, 1, 0,0) ">
<use xlink:href="#Symbol_151_1_Layer1_0_FILL"/>
</g>
</g>

<g transform="matrix( 1.007965087890625, 0, 0, 1.089935302734375, 10.1,-17.65) ">
<g transform="matrix( -0.7543792724609375, 0, 0, 0.7543792724609375, 288.95,161.8) ">
<g transform="matrix( 1.42828369140625, 0, 0, 1.17510986328125, -47.25,-56.2) ">
<g transform="matrix( 1, 0, 0, 1, 0,0) ">
<use xlink:href="#Duplicate_Items_Folder_Symbol_17_2_Layer0_0_FILL"/>
</g>
</g>
</g>
</g>

<g transform="matrix( -0.638885498046875, 0, 0, 0.9207611083984375, 419.7,5.85) ">
<g transform="matrix( 0, 0.370941162109375, -0.681060791015625, 0, 567.4,622.05) ">
<g transform="matrix( 1, 0, 0, 1, 0,0) ">
<use xlink:href="#Blaze_Blaze_fire_stream_6_Layer0_0_FILL"/>
</g>
</g>
</g>

<g transform="matrix( 0.638885498046875, 0, 0, 0.9207611083984375, 27.95,7.15) ">
<g transform="matrix( 0, 0.370941162109375, -0.681060791015625, 0, 567.4,622.05) ">
<g transform="matrix( 1, 0, 0, 1, 0,0) ">
<use xlink:href="#Blaze_Blaze_fire_stream_6_Layer0_0_FILL"/>
</g>
</g>
</g>
</g>
</g>
</svg>
