
<svg xmlns="http://www.w3.org/2000/svg" version="1.1" xmlns:xlink="http://www.w3.org/1999/xlink" preserveAspectRatio="none" x="0px" y="0px" width="300px" height="550px" viewBox="0 0 300 550">
<defs>
<filter id="Filter_1" x="-20%" y="-20%" width="140%" height="140%" color-interpolation-filters="sRGB">
<feColorMatrix in="SourceGraphic" type="matrix" values="1 0 0 0 0 0 1 0 0 0 0 0 1 0 0 0 0 0 0.46 0" result="result1"/>
</filter>

<g id="waterfall_0_Layer0_0_FILL">
<path fill="#00CCFF" stroke="none" d="
M 275.4 305.1
Q 276.6 301.15 274.6 298.25 274.55 301.45 275.4 303.05
L 275.4 305.1
M 90.9 292.8
Q 91.1 289.8 90.8 287.15 89.05 290.45 88.85 292.8
L 90.9 292.8
M 381.15 28
Q 380.75 25.2 379.5 24 377.25 21.95 374.3 24.7 371.75 27.05 370.6 30.8 363.45 52.25 348.35 68.4 339.85 77.7 332.25 76.8 327.25 76.25 323.1 71.45 320.05 67.9 317.2 61.65 307.2 39.55 301.15 16.4 297.15 46.95 294.1 73.4 290 109 290 114.75
L 290 116.8
Q 286.6 113.2 284.1 107.8 281.8 102.85 281.8 100.15
L 281.8 98.1
Q 273.9 138.6 272.1 146.5 264 181.75 256.95 191.05 251.4 185.85 243.25 168.1 242.75 167.05 231.85 141.35 230.8 138.95 229.3 142.95 228 146.4 227.75 149.55 226.4 149.55 225.95 148.25 225.7 147.5 225.7 145.45 220.9 146.05 216.1 157.55 213.2 164.6 208.05 182.4 202.85 200.4 200.25 206.9 195.7 217.95 191.35 217.95 184.45 217.95 178.2 198.3 176.25 192.3 174.15 183.6 172.05 174.9 171.9 174.4 169.7 178.9 163.2 186.45 155 195.6 150.8 200.3 134.75 218.25 134.45 226.4
L 132.4 226.4
Q 133.7 211.35 132.65 198.85 130.6 174.4 118.85 174.4 115.65 174.4 112.9 179.2 110.5 183.45 109.6 189 109.45 174.7 107.55 137.95 106.95 126.65 106.55 118.55 105.2 120.1 103.75 121.4 100.05 124.7 95.55 125.8 90.6 127.05 86.85 124.9 83.7 122.95 81.85 118.5 81 116.45 79.4 110.25 76.8 101.05 71.3 92.8 67.65 87.45 63.9 88 60.35 88.55 58.25 95.25 48.6 127.45 44 159.6 40.35 158.5 36.2 157.45 33.65 154.95 33.3 149.85 33.4 143.8 33.25 140.95 33 136.25 29.45 132.9 25.7 129.35 22.5 131.9 21.4 132.65 20.7 134.2 20.3 134.95 19.6 137.05 8.45 175.4 3.3 214.45 4.5 212.05 5.8 209.4 13.55 193.7 16.35 191.05
L 16.35 193.1
Q 16.3 194.5 14.85 207.35 13.55 219.3 13.45 227.45 13.15 253.7 24.55 259.45 25.3 258.15 27.5 255.2 29.75 252.2 30.7 251.25 34.4 255.85 36.2 263.6 39 275.75 39.15 276.15 40.45 274.85 41.95 274.35 42.75 274.1 43.25 274.1 44.75 269.2 49.8 241.75 54.1 218.5 55.8 207.7
L 57.85 207.7
Q 61.95 249.2 61.95 276.15 66.05 274.1 68.25 273.35 71.85 272.05 75.3 272.05 81.65 272.05 86.2 276.85 90 280.9 90.8 287.15 92.95 283 97.45 277.35 106.5 265.9 113.7 265.9 120 265.9 124.3 276.15 128.3 285.7 128.3 297.9 128.3 299.5 127.9 304.95 127.75 310.5 128.85 314.6 132.1 327.05 147.05 329.95 148.2 328.75 149.7 324.05 151.5 317.8 152.65 314.3 157.1 300.5 163.45 296.9 166.75 300.7 168.7 306.05 169.85 309.15 171.9 315.6 174.65 308.55 176.7 295.4 178.8 279.75 180 271.95 184.55 242.8 194.7 234.6 194.7 235.9 195.75 236.4 196.25 236.65 196.75 236.65 194.35 244.65 195.45 250.25 196.3 254.65 199.9 259.05 201.95 261.65 206.9 267.05 211.25 272.35 213.4 278.2 227.5 280.9 234.7 258.75 238.5 247 242.35 215.9
L 244.4 215.9
Q 245.7 229.35 247.25 255.95 249 277.75 252.6 286.4 252.6 284.85 253.9 283.6 255.25 282.3 256.95 282.3
L 256.95 292.8
Q 262.6 290.9 269.65 294.35 273.05 296 274.6 298.25 274.6 296.65 274.8 294.65 275.5 288.45 277.85 282.15 283.95 265.9 294.1 265.9 297.25 265.9 299.1 268.9 300.35 270.9 301.85 276.35 305.65 289.7 310.75 294.85 322.75 293.95 328.8 273.9 333.6 258.05 333.6 235.65 332.85 227.85 332.2 220.9 330.95 207.25 331.55 197.45 333.4 166.2 353.3 166.2 356.75 166.2 364.8 170.4 371.55 173.95 375.1 176.7 375.1 173.65 376.4 171.85 377.5 170.3 379.2 170.3
L 379.2 172.35
Q 378 174.9 380 178.85 381.75 182.35 383.3 182.85 388.4 181.4 391.7 176 394.4 171.65 396.85 162.85 397.65 159.8 398.35 157.1 397.9 145.6 396.6 132 394.4 108.65 389.95 79.9 387.1 61.3 381.15 28 Z"/>

<path fill="#009FC9" stroke="none" d="
M 301.15 16.4
Q 300.3 13.2 299.55 10 298.5 5.45 296.15 2.55 293.3 -1 290 0.35 288.55 0.95 287.45 2.65 286.75 3.75 285.8 6 271.5 41.5 248.7 71.8 246.35 74.9 244.4 76.45 241.55 78.65 238.75 78.45 236.6 78.3 233.15 76.1 229.45 73.7 227.6 73.35 223.5 72.5 219.5 76.15 216.85 78.55 213.45 83.9 202 101.75 185.65 114.1 181.8 117.05 178.75 118.55 174.7 120.5 171 120.5 164.25 120.5 158.35 114.3 154.25 110.05 149.6 101.5 143 88.95 138.1 79.8 136.7 77.2 135.6 75.95 133.95 74.05 131.95 73.65 128.9 73 126.2 75.85 124 78.2 122.65 81.95 118.05 96.25 115.35 103.15 111.65 112.7 106.55 118.55 106.95 126.65 107.55 137.95 109.45 174.7 109.6 189 110.5 183.45 112.9 179.2 115.65 174.4 118.85 174.4 130.6 174.4 132.65 198.85 133.7 211.35 132.4 226.4
L 134.45 226.4
Q 134.75 218.25 150.8 200.3 155 195.6 163.2 186.45 169.7 178.9 171.9 174.4 172.05 174.9 174.15 183.6 176.25 192.3 178.2 198.3 184.45 217.95 191.35 217.95 195.7 217.95 200.25 206.9 202.85 200.4 208.05 182.4 213.2 164.6 216.1 157.55 220.9 146.05 225.7 145.45 225.7 147.5 225.95 148.25 226.4 149.55 227.75 149.55 228 146.4 229.3 142.95 230.8 138.95 231.85 141.35 242.75 167.05 243.25 168.1 251.4 185.85 256.95 191.05 264 181.75 272.1 146.5 273.9 138.6 281.8 98.1
L 281.8 100.15
Q 281.8 102.85 284.1 107.8 286.6 113.2 290 116.8
L 290 114.75
Q 290 109 294.1 73.4 297.15 46.95 301.15 16.4 Z"/>

<path fill="#D0F3FC" stroke="none" d="
M 353.3 166.2
Q 333.4 166.2 331.55 197.45 330.95 207.25 332.2 220.9 332.85 227.85 333.6 235.65 333.6 258.05 328.8 273.9 322.75 293.95 310.75 294.85 305.65 289.7 301.85 276.35 300.35 270.9 299.1 268.9 297.25 265.9 294.1 265.9 283.95 265.9 277.85 282.15 275.5 288.45 274.8 294.65 274.6 296.65 274.6 298.25 276.6 301.15 275.4 305.1
L 275.4 303.05
Q 274.55 301.45 274.6 298.25 273.05 296 269.65 294.35 262.6 290.9 256.95 292.8
L 256.95 282.3
Q 255.25 282.3 253.9 283.6 252.6 284.85 252.6 286.4 249 277.75 247.25 255.95 245.7 229.35 244.4 215.9
L 242.35 215.9
Q 238.5 247 234.7 258.75 227.5 280.9 213.4 278.2 211.25 272.35 206.9 267.05 201.95 261.65 199.9 259.05 196.3 254.65 195.45 250.25 194.35 244.65 196.75 236.65 196.25 236.65 195.75 236.4 194.7 235.9 194.7 234.6 184.55 242.8 180 271.95 178.8 279.75 176.7 295.4 174.65 308.55 171.9 315.6 169.85 309.15 168.7 306.05 166.75 300.7 163.45 296.9 157.1 300.5 152.65 314.3 151.5 317.8 149.7 324.05 148.2 328.75 147.05 329.95 132.1 327.05 128.85 314.6 127.75 310.5 127.9 304.95 128.3 299.5 128.3 297.9 128.3 285.7 124.3 276.15 120 265.9 113.7 265.9 106.5 265.9 97.45 277.35 92.95 283 90.8 287.15 91.1 289.8 90.9 292.8
L 88.85 292.8
Q 89.05 290.45 90.8 287.15 90 280.9 86.2 276.85 81.65 272.05 75.3 272.05 71.85 272.05 68.25 273.35 66.05 274.1 61.95 276.15 61.95 249.2 57.85 207.7
L 55.8 207.7
Q 54.1 218.5 49.8 241.75 44.75 269.2 43.25 274.1 42.75 274.1 41.95 274.35 40.45 274.85 39.15 276.15 39 275.75 36.2 263.6 34.4 255.85 30.7 251.25 29.75 252.2 27.5 255.2 25.3 258.15 24.55 259.45 13.15 253.7 13.45 227.45 13.55 219.3 14.85 207.35 16.3 194.5 16.35 193.1
L 16.35 191.05
Q 13.55 193.7 5.8 209.4 4.5 212.05 3.3 214.45 1.85 225.4 0.85 236.35 -0.1 247.8 0 254.6 0.15 264.7 2.3 272.65 4.8 281.9 10.2 289.05 16.1 296.8 24.15 300.2 32.75 303.85 42.05 301.3 51.7 298.6 56 290.8 55.5 299.55 55.65 304.35 55.9 311.8 57.55 317.65 59.6 324.5 63.75 329.65 68.35 335.3 74.45 337.4 81 339.65 87.75 337 94.75 334.2 96.9 328 101.55 335.5 106.85 350.4 112.65 366.8 116.05 373.2 122.4 385 133 391.45 144.7 398.6 155.75 394.9 162.9 392.5 168.75 385.25 173.05 380 177.55 370.75 192.9 339.05 200.1 304.95 202.85 309.2 204.35 311.1 206.9 314.35 209.65 316.1 213 318.2 216.8 318.25 220.9 318.35 223.5 315.9 225.55 314 228.25 306.6 230.5 300.3 234.05 299.1 237.5 298 241.2 300.7 244.05 302.8 246.75 306.9 257.25 322.55 258.25 323.95 265.05 333.45 271.55 339.45 279.6 346.95 288.85 350.65 299.1 354.8 308.75 353.4 318.8 351.95 327.5 344.65 335.55 338 340.65 328.1 345 319.75 347.9 308.35 349.65 301.45 352.05 287.5 359.1 245.25 362.6 224.05 366.1 229.8 373.9 229.9 381.35 230 386.55 225.1 391.15 220.75 393.7 213.65 395.65 208.15 396.6 200.05 398.75 184.35 398.55 166.05 398.5 161.75 398.35 157.1 397.65 159.8 396.85 162.85 394.4 171.65 391.7 176 388.4 181.4 383.3 182.85 381.75 182.35 380 178.85 378 174.9 379.2 172.35
L 379.2 170.3
Q 377.5 170.3 376.4 171.85 375.1 173.65 375.1 176.7 371.55 173.95 364.8 170.4 356.75 166.2 353.3 166.2 Z"/>
</g>
</defs>

<g transform="matrix( 0.2893829345703125, 0, 0, 0.2893829345703125, 25.65,158.2) ">
<g transform="matrix( 1, 0, 0, 1, 88.55,470.8) ">
<g transform="matrix( 1, 0, 0, 1, 174.8,-126.5) ">
<g transform="matrix( 1, 0, 0, 1, 0,-416.85) ">
<g transform="matrix( 1, 0, 0, 1, 0,0) ">
<use filter="url(#Filter_1)" xlink:href="#waterfall_0_Layer0_0_FILL"/>
</g>
</g>
</g>

<g transform="matrix( 1, 0, 0, 1, 174.8,-126.5) ">
<g transform="matrix( 1, 0, 0, 1, 0,-416.85) ">
<g transform="matrix( 1, 0, 0, 1, 0,0) ">
<use xlink:href="#waterfall_0_Layer0_0_FILL"/>
</g>
</g>
</g>
</g>
</g>
</svg>
