
<svg xmlns="http://www.w3.org/2000/svg" version="1.1" xmlns:xlink="http://www.w3.org/1999/xlink" preserveAspectRatio="none" x="0px" y="0px" width="175px" height="425px" viewBox="0 0 175 425">
<defs>
<g id="bannerman_warrior_shieldbannerman_0_Layer1_0_FILL">
<path fill="#000000" stroke="none" d="
M 80.5 -254.15
L 78.65 -280.3 21.35 -280.2 17.6 -280.55 27.7 -295.1 9.6 -343.95 -18.6 -299.1 -7.75 -279.15
Q -27.5 -278.8 -42.1 -280.7 -43.75 -280.95 -55.9 -280.6 -68.8 -280.2 -74.65 -279.5
L -77.6 -253.45
Q -42.25 -253.8 -7.2 -249.35 -4.95 -200.25 -9.2 -150.4 -9.65 -145.25 -9.85 -140.1 -10.95 -109.3 -11.7 -78.3 -11.8 -73.2 -11.95 -68.05
L -17.35 59.8
Q -19.83359375 60.869921875 -26.55 63.25 -15.3 64.6 -4.5 67.65 0.6 69.15 5.2 65 5.65 64.6 8.45 63.15 10.95 61.85 12.45 61.2
L 11.35 60.65 3.45 61.3
Q -2.9 30.45 2.5 -0.7
L 7.35 -138.65
Q 7.65 -195.85 16.15 -251.85
L 78.4 -251.3 80.5 -254.15
M 8.15 -333.8
Q 9.05 -332.05 10 -330.3 18.8 -314.15 21.65 -295.95 20.7 -295.05 19.8 -294.1 13.5 -287.45 10.3 -278.95
L -2.9 -279.6
Q -3.4 -280.75 -3.9 -281.85 -7.4 -290 -13.4 -296.6
L -12.55 -299.25
Q -10.55 -302.35 -8.5 -305.45 -0.5 -317.4 5.2 -330.4
L 8.15 -333.8
M 54.7 -274.2
L 56.1 -272.9 73.45 -272.5 75.2 -261.7 76.25 -256.5
Q 46.9 -256.9 17.6 -256.2 -26.9 -253.9 -71.15 -259.1
L -71.25 -272.4 -69.8 -274.9 -57.25 -274.05 54.7 -274.2
M 6.4 -250.25
Q 6.7 -250.15 7 -249.9
L -2.6 12.45 -3.9 62.9
Q -6.4 63.9 -8.95 62.9 -9.5 62.8 -9.95 62.55 -10.45 62.35 -10.9 62.05 -11.45 61.8 -11.95 61.45
L -11.6 50.05 -11.15 49.35 -10.55 30.15 -0.2 -250.8
Q 3.2 -251.8 6.4 -250.25 Z"/>

<path fill="#CC6600" stroke="none" d="
M -10.55 30.15
L -11.15 49.35 -11.6 50.05 -11.95 61.45
Q -11.45 61.8 -10.9 62.05 -10.45 62.35 -9.95 62.55 -9.5 62.8 -8.95 62.9 -6.4 63.9 -3.9 62.9
L -2.6 12.45
Q -6.25 21.55 -10.55 30.15
M 56.1 -272.9
L 54.7 -274.2 -57.25 -274.05
Q -57.25 -273.7 -57.25 -273.35 -57.25 -273 -57.25 -272.65 -57.35 -272.3 -57.5 -271.9 -57.5 -271.55 -57.5 -271.2 -57.5 -270.85 -57.5 -270.5 -57.55 -270.15 -57.7 -269.8 -57.9 -269.45 -58.1 -269.05 -58.1 -268.7 -58.1 -268.35 -58.1 -268 -58.1 -267.65 -58.1 -267.3 -58.1 -266.95 -58.1 -266.6 -58.1 -266.2 -58.1 -265.85 -58.1 -265.5 -58.1 -265.15 -58.1 -264.8 -58.1 -264.45 -58.1 -264.1 -58.1 -263.75 -58.1 -263.35 -58.1 -263 -58.1 -262.65 -58.1 -262.4 -58.1 -262.2 -58.1 -262.05 -58.1 -261.95 8.55 -261.85 75.2 -261.7
L 73.45 -272.5 56.1 -272.9 Z"/>

<path fill="#572207" stroke="none" d="
M 7 -249.9
Q 6.7 -250.15 6.4 -250.25 3.2 -251.8 -0.2 -250.8
L -10.55 30.15
Q -6.25 21.55 -2.6 12.45
L 7 -249.9
M 76.25 -256.5
L 75.2 -261.7
Q 8.55 -261.85 -58.1 -261.95 -58.1 -262.05 -58.1 -262.2 -58.1 -262.4 -58.1 -262.65 -58.1 -263 -58.1 -263.35 -58.1 -263.75 -58.1 -264.1 -58.1 -264.45 -58.1 -264.8 -58.1 -265.15 -58.1 -265.5 -58.1 -265.85 -58.1 -266.2 -58.1 -266.6 -58.1 -266.95 -58.1 -267.3 -58.1 -267.65 -58.1 -268 -58.1 -268.35 -58.1 -268.7 -58.1 -269.05 -57.9 -269.45 -57.7 -269.8 -57.55 -270.15 -57.5 -270.5 -57.5 -270.85 -57.5 -271.2 -57.5 -271.55 -57.5 -271.9 -57.35 -272.3 -57.25 -272.65 -57.25 -273 -57.25 -273.35 -57.25 -273.7 -57.25 -274.05
L -69.8 -274.9 -71.25 -272.4 -71.15 -259.1
Q -26.9 -253.9 17.6 -256.2 46.9 -256.9 76.25 -256.5 Z"/>

<path fill="#666666" stroke="none" d="
M 21.65 -295.95
Q 21.3 -296 20.95 -296.05 18.15 -294.3 15.65 -292.1 12.4 -288.95 10.65 -287.45 7.7 -284.95 5.1 -284.05 5.05 -284.75 5 -290.1 5 -293.7 3.8 -295.6 2.55 -297.85 -0.3 -298.65 -1.8 -299.1 -5.4 -299.2
L -12.55 -299.25 -13.4 -296.6
Q -7.4 -290 -3.9 -281.85 -3.4 -280.75 -2.9 -279.6
L 10.3 -278.95
Q 13.5 -287.45 19.8 -294.1 20.7 -295.05 21.65 -295.95 Z"/>

<path fill="#FFFFFF" stroke="none" d="
M 5.2 -330.4
L 5.2 -330.35
Q 5.2490234375 -329.4373046875 5.2 -328.85 5.15 -327.4 4.25 -321.7 3.55 -317.3 4 -314.6 4.25 -313.45 4.4 -312.85 4.65 -311.8 4.65 -311.05 4.65 -309.1 4.75 -308.15 5.1 -305.2 8.3 -302.2 11.65 -299.15 15.7 -297.5 18.25 -296.45 20.95 -296.05 21.3 -296 21.65 -295.95 18.8 -314.15 10 -330.3 9.05 -332.05 8.15 -333.8
L 5.2 -330.4 Z"/>

<path fill="#CCCCCC" stroke="none" d="
M 5.2 -330.35
L 5.2 -330.4
Q -0.5 -317.4 -8.5 -305.45 -10.55 -302.35 -12.55 -299.25
L -5.4 -299.2
Q -1.8 -299.1 -0.3 -298.65 2.55 -297.85 3.8 -295.6 5 -293.7 5 -290.1 5.05 -284.75 5.1 -284.05 7.7 -284.95 10.65 -287.45 12.4 -288.95 15.65 -292.1 18.15 -294.3 20.95 -296.05 18.25 -296.45 15.7 -297.5 11.65 -299.15 8.3 -302.2 5.1 -305.2 4.75 -308.15 4.65 -309.1 4.65 -311.05 4.65 -311.8 4.4 -312.85 4.25 -313.45 4 -314.6 3.55 -317.3 4.25 -321.7 5.15 -327.4 5.2 -328.85 5.2490234375 -329.4373046875 5.2 -330.35 Z"/>
</g>
</defs>

<g transform="matrix( 1, 0, 0, 1, 84.05,345.95) ">
<g transform="matrix( 1, 0, 0, 1, 0,0) ">
<use xlink:href="#bannerman_warrior_shieldbannerman_0_Layer1_0_FILL"/>
</g>
</g>
</svg>
