
<svg xmlns="http://www.w3.org/2000/svg" version="1.1" xmlns:xlink="http://www.w3.org/1999/xlink" preserveAspectRatio="none" x="0px" y="0px" width="1000px" height="1000px" viewBox="0 0 1000 1000">
<defs>
<g id="Skeleton_Skeleton_head_top_1_Layer1_0_FILL">
<path fill="#000000" stroke="none" d="
M 102.9 78.05
Q 104.45 66.1 92.85 53.8 86.0990234375 46.6125 72.4 43.4 62.568359375 41.1298828125 49.15 40.9 17.05 40.3 3.3 55.85 -10.45 71.35 2 122.95
L 8.55 122.95
Q 9.85 124.1 10 126.15 10.15 128.25 10.8 128.9 11.5 129.55 13.25 130.25 15.3 131.1 17 131.1 19.35 131.1 32.45 130 36.4 129.7 36.65 125.2 36.8 122.9 37.2 122.15 37.95 120.8 40.1 120.8 44.2 120.8 45.15 122.4 45.35 122.75 45.7 125.95 46.2 131.1 58.85 131.1 66.05 131.1 70.25 128.8 74.95 126.15 75.5 120.8 77.1 121.1 77.5 122.95 78.35 126.55 78.65 127.25 79.35 128.9 86.85 128.9 92.45 128.9 95.1 126.5 95.35 126.3 95.55 126.05 98.15 101.8 99.75 95.9 101.35 90 102.9 78.05
M 83.8 62.65
Q 87.640234375 66.162109375 89.75 70.3 92.512109375 75.6056640625 92.45 81.95 92.4287109375 83.465234375 92.25 85.05 90.75 98.3 90.2 103.95 90.15 104.25 89.15 122.85 88.35 122.95 85.75 122.95 82.25 122.95 81.3 121.7 80.8 120.95 81 118.9 81.25 116.85 80.55 116.05 79.4 114.8 75.5 114.8 71.45 114.8 71.1 116.5 70 121.6 68.9 123.55 67.15 124.35 61.25 124.8 57.2 125.15 55.3 125.15 49.2 125.15 48.95 119.7 48.75 116.65 48.5 115.95 47.8 114.25 45.25 114.25 36.2 114.25 33.55 116.15 31.85 117.3 32.35 120.25 32.85 123.3 31.7 124.4 29.65 126.25 21.6 126.25 20.6 126.25 18.2 125.85 17.93671875 125.8115234375 17.65 125.75 15.662890625 125.4615234375 14.55 125.15 14.8 118.75 14.3 116.1 13.5 111.5 8.8 111.5 8.3 111.5 7.55 111.6 2 77.15 11.15 64.65 18.948046875 53.9384765625 39.75 52.9 43.2154296875 52.7498046875 47.05 52.85 55.2029296875 53.06328125 61.8 54.05 64.730859375 54.4927734375 67.35 55.1 78.201953125 57.5556640625 83.8 62.65 Z"/>

<path fill="#B1B19F" stroke="none" d="
M 18.8 73.4
Q 25.1896484375 57.5123046875 39.75 52.9 18.948046875 53.9384765625 11.15 64.65 2 77.15 7.55 111.6 8.3 111.5 8.8 111.5 13.5 111.5 14.3 116.1 14.8 118.75 14.55 125.15 15.662890625 125.4615234375 17.65 125.75 16.8 122.56328125 16.8 117.8 16.8 114.3 25 114.3
L 25 113.75
Q 18 114.75 15.7 111.75 14.05 109.55 14.05 102.9 14.05 85.15 18.8 73.4
M 89.75 70.3
L 83.45 70.3 78.9 64.3 78.9 59.95 73.4 65.95 73.4 59.95 65.25 59.95 67.35 55.1
Q 64.730859375 54.4927734375 61.8 54.05
L 58.7 64.8 69.6 64.8
Q 70.75 68 70.95 69.1
L 76.65 63.2 76.65 65.95 81.6 70.8 83.2 75.25 83.2 82.25 79.9 84.6
Q 80.1396484375 86.1052734375 80.05 87.9 79.99609375 88.9662109375 79.9 89.9
L 85.35 89.9 85.35 76.8 92.45 81.95
Q 92.512109375 75.6056640625 89.75 70.3 Z"/>

<path fill="#F3F3E5" stroke="none" d="
M 83.2 82.25
L 83.2 75.25 81.6 70.8 76.65 65.95 76.65 63.2 70.95 69.1
Q 70.75 68 69.6 64.8
L 58.7 64.8 61.8 54.05
Q 55.2029296875 53.06328125 47.05 52.85 43.2154296875 52.7498046875 39.75 52.9 25.1896484375 57.5123046875 18.8 73.4 14.05 85.15 14.05 102.9 14.05 109.55 15.7 111.75 18 114.75 25 113.75
L 25 114.3
Q 16.8 114.3 16.8 117.8 16.8 122.56328125 17.65 125.75 17.93671875 125.8115234375 18.2 125.85 20.6 126.25 21.6 126.25 29.65 126.25 31.7 124.4 32.85 123.3 32.35 120.25 31.85 117.3 33.55 116.15 36.2 114.25 45.25 114.25 47.8 114.25 48.5 115.95 48.75 116.65 48.95 119.7 49.2 125.15 55.3 125.15 57.2 125.15 61.25 124.8 67.15 124.35 68.9 123.55 70 121.6 71.1 116.5 71.45 114.8 75.5 114.8 79.4 114.8 80.55 116.05 81.25 116.85 81 118.9 80.8 120.95 81.3 121.7 82.25 122.95 85.75 122.95 88.35 122.95 89.15 122.85 90.15 104.25 90.2 103.95 90.75 98.3 92.25 85.05 92.4287109375 83.465234375 92.45 81.95
L 85.35 76.8 85.35 89.9 79.9 89.9
Q 79.99609375 88.9662109375 80.05 87.9 80.1396484375 86.1052734375 79.9 84.6
L 83.2 82.25
M 83.45 70.3
L 89.75 70.3
Q 87.640234375 66.162109375 83.8 62.65 78.201953125 57.5556640625 67.35 55.1
L 65.25 59.95 73.4 59.95 73.4 65.95 78.9 59.95 78.9 64.3 83.45 70.3 Z"/>
</g>

<g id="Skeleton_Skeleton_head_top_1_Layer0_0_FILL">
<path fill="#000000" stroke="none" d="
M 39.9 69.4
Q 35.4 74.75 35 84.2 34.6 93.65 37.2 100.3 39.95 106.9 46.2 108 52.45 109.05 56.6 103.4 60.7 97.65 60.7 88.7 60.65 79.65 58 73 55.3 66.35 49.9 65.2 44.4 63.95 39.9 69.4
M 40 96.75
Q 38.1 91.8 38.9 85.45 39.75 79.05 42.9 74.85 46.05 70.75 49.65 71.25 53.25 71.8 55.3 76.65 57.2 81.55 56.35 87.9 55.6 94.3 52.4 98.55 49.25 102.65 45.65 102.15 42.05 101.6 40 96.75
M 83 88.15
Q 83.15 86.05 82.85 84.25 82.35 81.05 80.7 79 78.1 75.75 74.7 76.6 71.3 77.4 69.4 81.2 67.65 85.1 68.1 90.2 68.6 95.3 71.15 98.25 73.75 101.15 77 100 80.15 98.9 81.45 96.45 82.45 94.5 82.85 90.5 82.95 89.4 83 88.15
M 71.45 84.1
Q 72.65 81.55 74.5 81.35 76.4 81.2 78.05 83.5 79 84.9 79.5 86.8 79.75 87.85 79.85 89.1 79.9 89.8 79.9 90.5 79.9 93 79.05 95 77.9 97.55 75.95 97.7 74.1 97.9 72.45 95.6 70.9 93.35 70.6 90 70.3 86.6 71.45 84.1 Z"/>

<path fill="#CC66FF" stroke="none" d="
M 38.9 85.45
Q 38.1 91.8 40 96.75 42.05 101.6 45.65 102.15 49.25 102.65 52.4 98.55 55.6 94.3 56.35 87.9 57.2 81.55 55.3 76.65 53.25 71.8 49.65 71.25 46.05 70.75 42.9 74.85 39.75 79.05 38.9 85.45
M 74.5 81.35
Q 72.65 81.55 71.45 84.1 70.3 86.6 70.6 90 70.9 93.35 72.45 95.6 74.1 97.9 75.95 97.7 77.9 97.55 79.05 95 79.9 93 79.9 90.5 79.9 89.8 79.85 89.1 79.75 87.85 79.5 86.8 79 84.9 78.05 83.5 76.4 81.2 74.5 81.35 Z"/>
</g>
</defs>

<g transform="matrix( 0.69915771484375, 0, 0, 0.69915771484375, 428.45,366.1) ">
<g transform="matrix( 0.999725341796875, -0.022003173828125, 0.022003173828125, 0.999725341796875, 60.15,207.25) "/>

<g transform="matrix( 0.998321533203125, 0.057098388671875, -0.057098388671875, 0.998321533203125, 63.6,95.4) ">
<g transform="matrix( 1, 0, 0, 1, 0,0) ">
<use xlink:href="#Skeleton_Skeleton_head_top_1_Layer1_0_FILL"/>
</g>

<g transform="matrix( 1, 0, 0, 1, 0,0) ">
<use xlink:href="#Skeleton_Skeleton_head_top_1_Layer0_0_FILL"/>
</g>
</g>
</g>
</svg>
