
<svg xmlns="http://www.w3.org/2000/svg" version="1.1" xmlns:xlink="http://www.w3.org/1999/xlink" preserveAspectRatio="none" x="0px" y="0px" width="1000px" height="1000px" viewBox="0 0 1000 1000">
<defs>
<linearGradient id="Gradient_1" gradientUnits="userSpaceOnUse" x1="-5.4125" y1="42.925" x2="-15.0875" y2="53.275000000000006" spreadMethod="pad">
<stop  offset="0%" stop-color="#A3A3A3"/>

<stop  offset="100%" stop-color="#FFFFFF"/>
</linearGradient>

<linearGradient id="Gradient_2" gradientUnits="userSpaceOnUse" x1="-14.637500000000001" y1="0.050000000000000266" x2="4.8375" y2="-5.550000000000001" spreadMethod="pad">
<stop  offset="0%" stop-color="#A3A3A3"/>

<stop  offset="100%" stop-color="#FFFFFF"/>
</linearGradient>

<g id="Skeleton_Skeleton_Arm_1_Layer0_0_FILL">
<path fill="#000000" stroke="none" d="
M 34.95 16.95
Q 34.103515625 12.2458984375 28.9 7.1 23.69609375 1.9478515625 17.2 1.55 10.7 1.2 5.85 5.55 4.155859375 7.06953125 3 8.85 0.8603515625 12.1705078125 0.6 16.4 0.2484375 22.90234375 5.75 28.95 11.3037109375 35.0416015625 17.15 36.4 23.0501953125 37.8080078125 29.45 29.7 35.8482421875 21.651953125 34.95 16.95
M 26.4 21.4
Q 25.7734375 22.9736328125 24.65 24.25 24.1458984375 24.86640625 23.55 25.4 22.9720703125 25.9173828125 22.35 26.3 21.5 25 18.8 21.65 15.85 17.95 15.3 17.7
L 15.05 19.2
Q 15.05 19.3021484375 16.15 21.05 16.6841796875 21.903515625 17.45 23.1 19.65 26.5 20.3 27.4 18.1740234375 28.26484375 15.7 28.1 15.106640625 28.0666015625 14.55 27.95 13.333984375 27.789453125 12.25 27.35
L 12.2 26.95
Q 12.2 25.75 11.45 23.45 10.5 20.75 9.35 19.6
L 9.25 24.35
Q 9.25 24.6 8.9 24.7 8.5 24.85 8.25 24.55 5.25 21.2 5.5 16.7 5.6310546875 14.7349609375 6.35 13.05 7.00703125 11.504296875 8.15 10.2 8.6255859375 9.71171875 9.15 9.25 10.9443359375 7.61875 13.1 6.9 12.185546875 8.445703125 10.75 10.8 10.4162109375 11.3435546875 10.1 11.85 8.68671875 14.2048828125 7.95 15.5 7.25 16.8287109375 7.25 17.1 7.25 17.4361328125 8.55 16.55 8.6421875 16.537890625 8.7 16.5 10.05 15.6 10.4 15.05 10.55 15.35 13.3 16.6 13.3 16.35 12.6 14.8 12.171875 13.8119140625 11.95 13.4 11.8181640625 13.1681640625 11.75 13.1
L 13.6 10.75
Q 13.6 12.05 15.8 12.1 17.95 12.2 17.95 11.65 17.95 11.45 16.2 10.3 14.4 9.15 14.1 9.15 14.0369140625 9.15 13.95 9.15 14.953515625 7.3388671875 15.3 6.5 16.0982421875 6.412109375 16.95 6.45 21.45 6.75 24.45 10.1 27.45 13.45 27.15 17.95 27.120703125 18.4701171875 27.05 18.95 25.0169921875 16.9728515625 23.95 16 20.55 12.9 19.35 12.8
L 19.3 14.15
Q 19.3 14.43046875 26.4 21.4 Z"/>

<path fill="#F3F3E5" stroke="none" d="
M 10.1 11.85
Q 10.4162109375 11.3435546875 10.75 10.8 12.185546875 8.445703125 13.1 6.9 10.9443359375 7.61875 9.15 9.25 8.6255859375 9.71171875 8.15 10.2 7.00703125 11.504296875 6.35 13.05 7.25859375 14.3361328125 7.95 15.5 8.68671875 14.2048828125 10.1 11.85
M 21.75 21.8
Q 23.3115234375 23.1455078125 24.65 24.25 25.7734375 22.9736328125 26.4 21.4 19.3 14.43046875 19.3 14.15
L 19.35 12.8
Q 20.55 12.9 23.95 16 25.0169921875 16.9728515625 27.05 18.95 27.120703125 18.4701171875 27.15 17.95 27.45 13.45 24.45 10.1 21.45 6.75 16.95 6.45 16.0982421875 6.412109375 15.3 6.5 14.953515625 7.3388671875 13.95 9.15 14.0369140625 9.15 14.1 9.15 14.4 9.15 16.2 10.3 17.95 11.45 17.95 11.65 17.95 12.2 15.8 12.1 13.6 12.05 13.6 10.75
L 11.75 13.1
Q 11.8181640625 13.1681640625 11.95 13.4 15.60703125 16.51015625 21.75 21.8
M 16.15 21.05
Q 16.0669921875 22.3365234375 15.75 23.7 15.4642578125 24.8431640625 14.55 27.95 15.106640625 28.0666015625 15.7 28.1 18.1740234375 28.26484375 20.3 27.4 19.65 26.5 17.45 23.1 16.6841796875 21.903515625 16.15 21.05 Z"/>

<path fill="#B1B19F" stroke="none" d="
M 24.65 24.25
Q 23.3115234375 23.1455078125 21.75 21.8 15.60703125 16.51015625 11.95 13.4 12.171875 13.8119140625 12.6 14.8 13.3 16.35 13.3 16.6 10.55 15.35 10.4 15.05 10.05 15.6 8.7 16.5 8.6421875 16.537890625 8.55 16.55 7.25 17.4361328125 7.25 17.1 7.25 16.8287109375 7.95 15.5 7.25859375 14.3361328125 6.35 13.05 5.6310546875 14.7349609375 5.5 16.7 5.25 21.2 8.25 24.55 8.5 24.85 8.9 24.7 9.25 24.6 9.25 24.35
L 9.35 19.6
Q 10.5 20.75 11.45 23.45 12.2 25.75 12.2 26.95
L 12.25 27.35
Q 13.333984375 27.789453125 14.55 27.95 15.4642578125 24.8431640625 15.75 23.7 16.0669921875 22.3365234375 16.15 21.05 15.05 19.3021484375 15.05 19.2
L 15.3 17.7
Q 15.85 17.95 18.8 21.65 21.5 25 22.35 26.3 22.9720703125 25.9173828125 23.55 25.4 24.1458984375 24.86640625 24.65 24.25 Z"/>
</g>

<g id="Skeleton_Skeleton_tsword_0_Layer0_0_FILL">
<path fill="#000000" stroke="none" d="
M -5.85 94.3
Q -7.1865234375 97.2943359375 -3.9 98.25 -0.57421875 99.217578125 4.35 101 9.2787109375 102.824609375 16.55 92.2 14.0431640625 87.351953125 11.45 83.3 8.905078125 79.2484375 6.35 78.15 3.8482421875 77.050390625 -0.05 79.95 -0.8 81.65 -2.55 86.3 -4.4525390625 91.298828125 -5.85 94.3
M 2.95 80.85
L 6.4 81.05 8.4 90 2.4 91.5 -0.75 91.2 2.95 80.85
M 13.75 -12.85
Q 10.65 -14.8 7.3 -15.65 0.05 -17.7 -7.2 -16.15 -21.35 -12.8 -30.15 -1 -37.7 9.15 -38.55 21.8 -39.2 31.2 -37.25 40.4 -36.3 44.7 -33 47.6 -31.7 46.9 -28.8 45.85 -25.5 44.65 -24.5 44.8 -15.7 46.3 -13.35 54.75 -11.9 60.05 -9.15 64.9 -8.5 66.05 4.4 65.3 17.05 64.55 17.7 63.95 17.75 63.9 18.95 56.1 20.2 47.85 21.1 45.45 20.9 45.25 13.85 42.5 6.45 39.6 5.95 39.35 -3.15 35.55 -6.3 26.3 -8.35 20.15 -5.95 14.3 -3.95 9.3 0.4 6.05 11.7 -2.45 25.7 -1 23.9 -3.45 22 -5.8 18.5 -10.05 13.75 -12.85
M 14.35 -5.85
Q 8.75 -5.55 3.6 -3.75 -3.3 -1.4 -9.05 3.35
L -14.5 14.55
Q -14.3 17.55 -14.1 20.55 -13.55 28.45 -9.75 35.45 -6.4 41.65 0.15 44.3 7.15 47.15 14.65 47.5
L 13.4 49.05 10.45 61.2 3.85 62.1 -4.45 63.75 -4.8 63.45
Q -4.55 62.3 -4.55 59 -4.55 55.6 -4.8 54.55 -6.8 46.75 -13.5 42.2 -19.55 38.1 -26.7 36.6
L -30.8 37.2
Q -30.55 30.35 -30.3 23.5 -30 15.8 -26.8 8.85 -24.1 5.65 -21.35 2.55 -16.85 -2.55 -10.9 -5.7 -4.25 -9.05 3.35 -9.15 10.7 -9.2 17.15 -5.6
L 17.7 -5.2 14.35 -5.85 Z"/>

<path fill="#CCCCCC" stroke="none" d="
M 6.4 81.05
L 2.95 80.85 -0.75 91.2 2.4 91.5 8.4 90 6.4 81.05 Z"/>

<path fill="#FFFFFF" stroke="none" d="
M 6.9 48.9
Q 6.8 49.05 6.75 49.15 4.05 55.35 3.85 62.1
L 10.45 61.2 13.4 49.05 6.9 48.9
M -14.5 14.55
L -9.05 3.35 -20.75 9.75 -17.9 5.15 -26.8 8.85
Q -30 15.8 -30.3 23.5 -30.55 30.35 -30.8 37.2
L -26.7 36.6 -20.85 32.5
Q -23.55 27.75 -23.9 22.2 -23.95 21.35 -23.95 20.5
L -14.5 14.55
M 14.35 -5.85
L 17.7 -5.2 17.15 -5.6 15.3 -6.15 14.35 -5.85 Z"/>

<path fill="url(#Gradient_1)" stroke="none" d="
M -20.85 32.5
L -26.7 36.6
Q -19.55 38.1 -13.5 42.2 -6.8 46.75 -4.8 54.55 -4.55 55.6 -4.55 59 -4.55 62.3 -4.8 63.45
L -4.45 63.75 3.85 62.1
Q 4.05 55.35 6.75 49.15 6.8 49.05 6.9 48.9 -0.45 47.7 -7.2 44.5 -14.2 41.3 -19 35.05 -19.95 33.8 -20.85 32.5 Z"/>

<path fill="#CC66FF" stroke="none" d="
M -14.1 20.55
Q -14.3 17.55 -14.5 14.55
L -23.95 20.5
Q -23.95 21.35 -23.9 22.2 -23.55 27.75 -20.85 32.5 -19.95 33.8 -19 35.05 -14.2 41.3 -7.2 44.5 -0.45 47.7 6.9 48.9
L 13.4 49.05 14.65 47.5
Q 7.15 47.15 0.15 44.3 -6.4 41.65 -9.75 35.45 -13.55 28.45 -14.1 20.55
M 3.6 -3.75
Q 8.75 -5.55 14.35 -5.85
L 15.3 -6.15
Q 11.8 -6.35 8.3 -6.5 0.45 -6.75 -6.5 -3.3 -12.9 -0.1 -17.9 5.15
L -20.75 9.75 -9.05 3.35
Q -3.3 -1.4 3.6 -3.75 Z"/>

<path fill="url(#Gradient_2)" stroke="none" d="
M 17.15 -5.6
Q 10.7 -9.2 3.35 -9.15 -4.25 -9.05 -10.9 -5.7 -16.85 -2.55 -21.35 2.55 -24.1 5.65 -26.8 8.85
L -17.9 5.15
Q -12.9 -0.1 -6.5 -3.3 0.45 -6.75 8.3 -6.5 11.8 -6.35 15.3 -6.15
L 17.15 -5.6 Z"/>
</g>

<g id="Skeleton_Skeleton_Arm_0_Layer1_0_FILL">
<path fill="#000000" stroke="none" d="
M -15.45 0.9
Q -10.5810546875 22.2884765625 -2.6 21.1 5.371875 19.91640625 7.45 12.8 9.5783203125 5.6796875 8.4 2.7 7.276953125 -0.2220703125 0.9 -2 -5.420703125 -3.7845703125 -15.45 0.9
M -8.85 4.2
Q -5.25 4.75 -2.6 5.15 2.5 6.05 2.5 6.4 2.5 8 0.4 11.65 -1.8 15.5 -3.15 15.5 -3.6 15.5 -6.35 9.85 -9.15 4.15 -8.85 4.2 Z"/>

<path fill="#F3F3E5" stroke="none" d="
M -2.6 5.15
Q -5.25 4.75 -8.85 4.2 -9.15 4.15 -6.35 9.85 -3.6 15.5 -3.15 15.5 -1.8 15.5 0.4 11.65 2.5 8 2.5 6.4 2.5 6.05 -2.6 5.15 Z"/>
</g>

<g id="Skeleton_Skeleton_Arm_0_Layer0_0_FILL">
<path fill="#000000" stroke="none" d="
M 34.95 16.95
Q 34.103515625 12.2458984375 28.9 7.1 23.69609375 1.9478515625 17.2 1.55 10.7 1.2 5.85 5.55 4.155859375 7.06953125 3 8.85 0.8603515625 12.1705078125 0.6 16.4 0.2484375 22.90234375 5.75 28.95 11.3037109375 35.0416015625 17.15 36.4 23.0501953125 37.8080078125 29.45 29.7 35.8482421875 21.651953125 34.95 16.95
M 26.4 21.4
Q 25.7734375 22.9736328125 24.65 24.25 24.1458984375 24.86640625 23.55 25.4 22.9720703125 25.9173828125 22.35 26.3 21.5 25 18.8 21.65 15.85 17.95 15.3 17.7
L 15.05 19.2
Q 15.05 19.3021484375 16.15 21.05 16.6841796875 21.903515625 17.45 23.1 19.65 26.5 20.3 27.4 18.1740234375 28.26484375 15.7 28.1 15.106640625 28.0666015625 14.55 27.95 13.333984375 27.789453125 12.25 27.35
L 12.2 26.95
Q 12.2 25.75 11.45 23.45 10.5 20.75 9.35 19.6
L 9.25 24.35
Q 9.25 24.6 8.9 24.7 8.5 24.85 8.25 24.55 5.25 21.2 5.5 16.7 5.6310546875 14.7349609375 6.35 13.05 7.00703125 11.504296875 8.15 10.2 8.6255859375 9.71171875 9.15 9.25 10.9443359375 7.61875 13.1 6.9 12.185546875 8.445703125 10.75 10.8 10.4162109375 11.3435546875 10.1 11.85 8.68671875 14.2048828125 7.95 15.5 7.25 16.8287109375 7.25 17.1 7.25 17.4361328125 8.55 16.55 8.6421875 16.537890625 8.7 16.5 10.05 15.6 10.4 15.05 10.55 15.35 13.3 16.6 13.3 16.35 12.6 14.8 12.171875 13.8119140625 11.95 13.4 11.8181640625 13.1681640625 11.75 13.1
L 13.6 10.75
Q 13.6 12.05 15.8 12.1 17.95 12.2 17.95 11.65 17.95 11.45 16.2 10.3 14.4 9.15 14.1 9.15 14.0369140625 9.15 13.95 9.15 14.953515625 7.3388671875 15.3 6.5 16.0982421875 6.412109375 16.95 6.45 21.45 6.75 24.45 10.1 27.45 13.45 27.15 17.95 27.120703125 18.4701171875 27.05 18.95 25.0169921875 16.9728515625 23.95 16 20.55 12.9 19.35 12.8
L 19.3 14.15
Q 19.3 14.43046875 26.4 21.4 Z"/>

<path fill="#F3F3E5" stroke="none" d="
M 10.1 11.85
Q 10.4162109375 11.3435546875 10.75 10.8 12.185546875 8.445703125 13.1 6.9 10.9443359375 7.61875 9.15 9.25 8.6255859375 9.71171875 8.15 10.2 7.00703125 11.504296875 6.35 13.05 7.25859375 14.3361328125 7.95 15.5 8.68671875 14.2048828125 10.1 11.85
M 21.75 21.8
Q 23.3115234375 23.1455078125 24.65 24.25 25.7734375 22.9736328125 26.4 21.4 19.3 14.43046875 19.3 14.15
L 19.35 12.8
Q 20.55 12.9 23.95 16 25.0169921875 16.9728515625 27.05 18.95 27.120703125 18.4701171875 27.15 17.95 27.45 13.45 24.45 10.1 21.45 6.75 16.95 6.45 16.0982421875 6.412109375 15.3 6.5 14.953515625 7.3388671875 13.95 9.15 14.0369140625 9.15 14.1 9.15 14.4 9.15 16.2 10.3 17.95 11.45 17.95 11.65 17.95 12.2 15.8 12.1 13.6 12.05 13.6 10.75
L 11.75 13.1
Q 11.8181640625 13.1681640625 11.95 13.4 15.60703125 16.51015625 21.75 21.8
M 16.15 21.05
Q 16.0669921875 22.3365234375 15.75 23.7 15.4642578125 24.8431640625 14.55 27.95 15.106640625 28.0666015625 15.7 28.1 18.1740234375 28.26484375 20.3 27.4 19.65 26.5 17.45 23.1 16.6841796875 21.903515625 16.15 21.05 Z"/>

<path fill="#B1B19F" stroke="none" d="
M 24.65 24.25
Q 23.3115234375 23.1455078125 21.75 21.8 15.60703125 16.51015625 11.95 13.4 12.171875 13.8119140625 12.6 14.8 13.3 16.35 13.3 16.6 10.55 15.35 10.4 15.05 10.05 15.6 8.7 16.5 8.6421875 16.537890625 8.55 16.55 7.25 17.4361328125 7.25 17.1 7.25 16.8287109375 7.95 15.5 7.25859375 14.3361328125 6.35 13.05 5.6310546875 14.7349609375 5.5 16.7 5.25 21.2 8.25 24.55 8.5 24.85 8.9 24.7 9.25 24.6 9.25 24.35
L 9.35 19.6
Q 10.5 20.75 11.45 23.45 12.2 25.75 12.2 26.95
L 12.25 27.35
Q 13.333984375 27.789453125 14.55 27.95 15.4642578125 24.8431640625 15.75 23.7 16.0669921875 22.3365234375 16.15 21.05 15.05 19.3021484375 15.05 19.2
L 15.3 17.7
Q 15.85 17.95 18.8 21.65 21.5 25 22.35 26.3 22.9720703125 25.9173828125 23.55 25.4 24.1458984375 24.86640625 24.65 24.25 Z"/>
</g>

<g id="rib_0_Layer0_0_FILL">
<path fill="#000000" stroke="none" d="
M 39.2 -0.85
Q 27.85 -0.55 24.65 -0.8 15.8310546875 -1.4701171875 6.25 0.3 -3.2734375 2.1248046875 -1.75 9.45 -0.2369140625 16.8333984375 4.85 17.65 9.9974609375 18.5037109375 20.35 18.5 36.1541015625 18.497265625 43.1 17.65 50.0861328125 16.85390625 54.65 16.05 59.267578125 15.2572265625 60.35 8.7 61.43828125 2.1404296875 57.05 0.85 52.7109375 -0.4380859375 50.45 -1 49.8 -1.15 39.2 -0.85
M 45.05 3.4
Q 49.5 5.35 49.5 9.65 49.5 14.15 39.35 15.5 34.55 16.2 23.65 16.25 23 16.25 22.35 16.25 14.6 16.25 12.4 15.85 7.1 14.9 7.1 11.3 7.1 5.3 17.35 3.45 17.95 3.35 18.7 3.3 25.35 2.35 41.35 2.35 41.4 2.35 41.45 2.35 43.6 2.8 45.05 3.4 Z"/>

<path fill="#B1B19F" stroke="none" d="
M 22.35 16.25
Q 23 16.25 23.65 16.25 22.35 15.95 21.2 15.6 14.65 13.55 14.65 8.95 14.65 5.8 17.2 4.05 17.6 3.75 18.7 3.3 17.95 3.35 17.35 3.45 7.1 5.3 7.1 11.3 7.1 14.9 12.4 15.85 14.6 16.25 22.35 16.25 Z"/>

<path fill="#F3F3E5" stroke="none" d="
M 49.5 9.65
Q 49.5 5.35 45.05 3.4 43.6 2.8 41.45 2.35 41.4 2.35 41.35 2.35 25.35 2.35 18.7 3.3 17.6 3.75 17.2 4.05 14.65 5.8 14.65 8.95 14.65 13.55 21.2 15.6 22.35 15.95 23.65 16.25 34.55 16.2 39.35 15.5 49.5 14.15 49.5 9.65 Z"/>
</g>

<g id="scarf_0_Layer0_0_FILL">
<path fill="#000000" stroke="none" d="
M 59.25 25.05
Q 70.7837890625 18.2603515625 64.55 5.9 58.316796875 -6.4150390625 28.3 -4.6 -1.70625 -2.7267578125 -1.6 11.2 -1.4591796875 25.114453125 27.6 30.15 47.705078125 31.8955078125 59.25 25.05
M 46.6 9
L 50.55 9.35 52.7 10
Q 34.65 22.25 12.85 13.95
L 20.45 18.1 36.35 20.05
Q 18.25 26.2 6.3 15.4
L 6.35 13.7 7.35 12.7 9.9 12.05 10.5 9.05 46.6 9
M 54.9 12.6
Q 54.95 13.1 54.85 13.55 52 25.8 35.75 26.45 30.65 27.15 25.85 26.3 20.25 25.3 15.75 22.6
L 29.65 23.9 30.55 23.85
Q 44.6 22.8 54.15 14.7
L 53.35 14.05 54.9 12.6 Z"/>

<path fill="#CC66FF" stroke="none" d="
M 30.55 23.85
L 29.65 23.9 15.75 22.6
Q 20.25 25.3 25.85 26.3 30.65 27.15 35.75 26.45
L 43.4 23.2 30.55 23.85
M 36.35 20.05
L 20.45 18.1
Q 13.05 17.3 6.8 13.9 6.55 13.8 6.35 13.7
L 6.3 15.4
Q 18.25 26.2 36.35 20.05
M 40.65 13.05
Q 45.95 11.75 50.55 9.35
L 46.6 9
Q 35.6 13.6 23.2 14 20.3 14 17.5 14 29.2 15.85 40.65 13.05 Z"/>

<path fill="#71368A" stroke="none" d="
M 54.85 13.55
Q 54.95 13.1 54.9 12.6
L 53.35 14.05 54.15 14.7
Q 44.6 22.8 30.55 23.85
L 43.4 23.2 35.75 26.45
Q 52 25.8 54.85 13.55
M 50.55 9.35
Q 45.95 11.75 40.65 13.05 29.2 15.85 17.5 14 20.3 14 23.2 14 35.6 13.6 46.6 9
L 10.5 9.05 9.9 12.05 7.35 12.7 6.35 13.7
Q 6.55 13.8 6.8 13.9 13.05 17.3 20.45 18.1
L 12.85 13.95
Q 34.65 22.25 52.7 10
L 50.55 9.35 Z"/>
</g>

<g id="Skeleton_Skeleton_head_top_0_Layer1_0_FILL">
<path fill="#000000" stroke="none" d="
M 102.9 78.05
Q 104.45 66.1 92.85 53.8 86.0990234375 46.6125 72.4 43.4 62.568359375 41.1298828125 49.15 40.9 17.05 40.3 3.3 55.85 -10.45 71.35 2 122.95
L 8.55 122.95
Q 9.85 124.1 10 126.15 10.15 128.25 10.8 128.9 11.5 129.55 13.25 130.25 15.3 131.1 17 131.1 19.35 131.1 32.45 130 36.4 129.7 36.65 125.2 36.8 122.9 37.2 122.15 37.95 120.8 40.1 120.8 44.2 120.8 45.15 122.4 45.35 122.75 45.7 125.95 46.2 131.1 58.85 131.1 66.05 131.1 70.25 128.8 74.95 126.15 75.5 120.8 77.1 121.1 77.5 122.95 78.35 126.55 78.65 127.25 79.35 128.9 86.85 128.9 92.45 128.9 95.1 126.5 95.35 126.3 95.55 126.05 98.15 101.8 99.75 95.9 101.35 90 102.9 78.05
M 83.8 62.65
Q 87.640234375 66.162109375 89.75 70.3 92.512109375 75.6056640625 92.45 81.95 92.4287109375 83.465234375 92.25 85.05 90.75 98.3 90.2 103.95 90.15 104.25 89.15 122.85 88.35 122.95 85.75 122.95 82.25 122.95 81.3 121.7 80.8 120.95 81 118.9 81.25 116.85 80.55 116.05 79.4 114.8 75.5 114.8 71.45 114.8 71.1 116.5 70 121.6 68.9 123.55 67.15 124.35 61.25 124.8 57.2 125.15 55.3 125.15 49.2 125.15 48.95 119.7 48.75 116.65 48.5 115.95 47.8 114.25 45.25 114.25 36.2 114.25 33.55 116.15 31.85 117.3 32.35 120.25 32.85 123.3 31.7 124.4 29.65 126.25 21.6 126.25 20.6 126.25 18.2 125.85 17.93671875 125.8115234375 17.65 125.75 15.662890625 125.4615234375 14.55 125.15 14.8 118.75 14.3 116.1 13.5 111.5 8.8 111.5 8.3 111.5 7.55 111.6 2 77.15 11.15 64.65 18.948046875 53.9384765625 39.75 52.9 43.2154296875 52.7498046875 47.05 52.85 55.2029296875 53.06328125 61.8 54.05 64.730859375 54.4927734375 67.35 55.1 78.201953125 57.5556640625 83.8 62.65 Z"/>

<path fill="#B1B19F" stroke="none" d="
M 18.8 73.4
Q 25.1896484375 57.5123046875 39.75 52.9 18.948046875 53.9384765625 11.15 64.65 2 77.15 7.55 111.6 8.3 111.5 8.8 111.5 13.5 111.5 14.3 116.1 14.8 118.75 14.55 125.15 15.662890625 125.4615234375 17.65 125.75 16.8 122.56328125 16.8 117.8 16.8 114.3 25 114.3
L 25 113.75
Q 18 114.75 15.7 111.75 14.05 109.55 14.05 102.9 14.05 85.15 18.8 73.4
M 89.75 70.3
L 83.45 70.3 78.9 64.3 78.9 59.95 73.4 65.95 73.4 59.95 65.25 59.95 67.35 55.1
Q 64.730859375 54.4927734375 61.8 54.05
L 58.7 64.8 69.6 64.8
Q 70.75 68 70.95 69.1
L 76.65 63.2 76.65 65.95 81.6 70.8 83.2 75.25 83.2 82.25 79.9 84.6
Q 80.1396484375 86.1052734375 80.05 87.9 79.99609375 88.9662109375 79.9 89.9
L 85.35 89.9 85.35 76.8 92.45 81.95
Q 92.512109375 75.6056640625 89.75 70.3 Z"/>

<path fill="#F3F3E5" stroke="none" d="
M 83.2 82.25
L 83.2 75.25 81.6 70.8 76.65 65.95 76.65 63.2 70.95 69.1
Q 70.75 68 69.6 64.8
L 58.7 64.8 61.8 54.05
Q 55.2029296875 53.06328125 47.05 52.85 43.2154296875 52.7498046875 39.75 52.9 25.1896484375 57.5123046875 18.8 73.4 14.05 85.15 14.05 102.9 14.05 109.55 15.7 111.75 18 114.75 25 113.75
L 25 114.3
Q 16.8 114.3 16.8 117.8 16.8 122.56328125 17.65 125.75 17.93671875 125.8115234375 18.2 125.85 20.6 126.25 21.6 126.25 29.65 126.25 31.7 124.4 32.85 123.3 32.35 120.25 31.85 117.3 33.55 116.15 36.2 114.25 45.25 114.25 47.8 114.25 48.5 115.95 48.75 116.65 48.95 119.7 49.2 125.15 55.3 125.15 57.2 125.15 61.25 124.8 67.15 124.35 68.9 123.55 70 121.6 71.1 116.5 71.45 114.8 75.5 114.8 79.4 114.8 80.55 116.05 81.25 116.85 81 118.9 80.8 120.95 81.3 121.7 82.25 122.95 85.75 122.95 88.35 122.95 89.15 122.85 90.15 104.25 90.2 103.95 90.75 98.3 92.25 85.05 92.4287109375 83.465234375 92.45 81.95
L 85.35 76.8 85.35 89.9 79.9 89.9
Q 79.99609375 88.9662109375 80.05 87.9 80.1396484375 86.1052734375 79.9 84.6
L 83.2 82.25
M 83.45 70.3
L 89.75 70.3
Q 87.640234375 66.162109375 83.8 62.65 78.201953125 57.5556640625 67.35 55.1
L 65.25 59.95 73.4 59.95 73.4 65.95 78.9 59.95 78.9 64.3 83.45 70.3 Z"/>
</g>

<g id="Skeleton_Skeleton_head_top_0_Layer0_0_FILL">
<path fill="#000000" stroke="none" d="
M 39.9 69.4
Q 35.4 74.75 35 84.2 34.6 93.65 37.2 100.3 39.95 106.9 46.2 108 52.45 109.05 56.6 103.4 60.7 97.65 60.7 88.7 60.65 79.65 58 73 55.3 66.35 49.9 65.2 44.4 63.95 39.9 69.4
M 40 96.75
Q 38.1 91.8 38.9 85.45 39.75 79.05 42.9 74.85 46.05 70.75 49.65 71.25 53.25 71.8 55.3 76.65 57.2 81.55 56.35 87.9 55.6 94.3 52.4 98.55 49.25 102.65 45.65 102.15 42.05 101.6 40 96.75
M 83 88.15
Q 83.15 86.05 82.85 84.25 82.35 81.05 80.7 79 78.1 75.75 74.7 76.6 71.3 77.4 69.4 81.2 67.65 85.1 68.1 90.2 68.6 95.3 71.15 98.25 73.75 101.15 77 100 80.15 98.9 81.45 96.45 82.45 94.5 82.85 90.5 82.95 89.4 83 88.15
M 71.45 84.1
Q 72.65 81.55 74.5 81.35 76.4 81.2 78.05 83.5 79 84.9 79.5 86.8 79.75 87.85 79.85 89.1 79.9 89.8 79.9 90.5 79.9 93 79.05 95 77.9 97.55 75.95 97.7 74.1 97.9 72.45 95.6 70.9 93.35 70.6 90 70.3 86.6 71.45 84.1 Z"/>

<path fill="#CC66FF" stroke="none" d="
M 38.9 85.45
Q 38.1 91.8 40 96.75 42.05 101.6 45.65 102.15 49.25 102.65 52.4 98.55 55.6 94.3 56.35 87.9 57.2 81.55 55.3 76.65 53.25 71.8 49.65 71.25 46.05 70.75 42.9 74.85 39.75 79.05 38.9 85.45
M 74.5 81.35
Q 72.65 81.55 71.45 84.1 70.3 86.6 70.6 90 70.9 93.35 72.45 95.6 74.1 97.9 75.95 97.7 77.9 97.55 79.05 95 79.9 93 79.9 90.5 79.9 89.8 79.85 89.1 79.75 87.85 79.5 86.8 79 84.9 78.05 83.5 76.4 81.2 74.5 81.35 Z"/>
</g>

<g id="Skeleton_Skeleton_shield_0_Layer0_0_FILL">
<path fill="#000000" stroke="none" d="
M 31.25 -26.7
Q 17.75 -26.4 16.8 -25.4 16.25 -24.85 6.05 -5.1 -4.35 15 -4.4 16.3 -4.5 19.6 1.65 44.05 7.65 67.75 8.7 69.9 11.85 76.2 19.45 76.7 23 76.95 36.85 72 50.35 67.2 50.35 66.35 50.9 64.2 64.3 5.65 64.45 4.9 56.35 -10.45 48.3 -25.75 47.8 -25.95 44.85 -27 31.25 -26.7
M 16.05 -15.45
Q 17.25 -17.45 19.1 -18.5 20 -19.05 21.05 -19.3 22.05 -19.6 23.1 -19.65 20.85 -16.05 18.65 -12.35 14.95 -6.05 11.5 0.45 8.35 6.35 5.45 12.35
L 1.6 13.35
Q 1.6 12.45 1.9 11.7 8.25 -2.15 16.05 -15.45
M 25.05 -13.65
Q 30.15 -19.15 37.6 -20.75
L 41.9 -21.35 49.8 -7.05
Q 51.4 -4.2 53.15 3.15 54.85 10.4 54.45 12.2
L 47.3 41.9 43.35 56.95 43.05 58.05
Q 43.05 61.75 40.7 64.35 38.4 67 35.1 67
L 21.95 70.65 21.25 67.8 15.05 42.25 10.05 20.75
Q 10.1 17.95 10.2 15.2 10.5 8.2 14 2.1 16.05 -1.1 18.05 -4.35 21.05 -9.35 25.05 -13.65
M 3.05 21.65
Q 2.65 19.65 2.3 17.7 1.95 15.7 1.65 13.75
L 5.35 14.95 6 19.45 18.05 69.15 13.8 67.8
Q 12.2 60.9 10.55 54 8.6 45.9 6.7 37.8 4.8 29.85 3.05 21.65
M 45.5 12.95
Q 46.8 10.05 43.85 8.8
L 37.85 9.75
Q 37.7 5.25 37.25 0.95 36.9 -2.2 33.75 -2.5
L 30.15 11.75
Q 28.05 12.15 24.05 14.25 18.9 16.95 18.05 19.3
L 19.9 21.65
Q 25.05 22.5 29.65 20.1 29.6 22.1 29.05 53.1 29.05 58.95 33.9 62.1
L 34.75 61.7
Q 34.95 60.6 35.15 59.55 39.45 38.9 37.7 17.75 38.95 17.3 45.5 12.95
M 43.3 11.05
L 43.5 12.25
Q 41.9 13.5 34.2 16.1 26 18.85 22.45 19
L 21.5 18.2
Q 36.7 12.35 43.3 11.05
M 32.65 5.3
L 33.2 4.95 34.7 2.5 34.85 10.5 32.95 10.95 32.65 5.3
M 32.4 19.5
L 34.65 18.75
Q 35.4 30.2 36.2 41.75 36.85 50.55 33.6 58.6 30.85 47.85 31.55 42.8
L 32.4 19.5 Z"/>

<path fill="#35303F" stroke="none" d="
M 2.3 17.7
Q 2.65 19.65 3.05 21.65 4.8 29.85 6.7 37.8 8.6 45.9 10.55 54 12.2 60.9 13.8 67.8
L 18.05 69.15 6 19.45 5.35 14.95 1.65 13.75
Q 1.95 15.7 2.3 17.7
M 39.45 61
Q 35.8 64.4 35.1 67 38.4 67 40.7 64.35 43.05 61.75 43.05 58.05 42.35 58.3 39.45 61
M 20.85 46.8
Q 19.25 42.8 15.05 42.25
L 21.25 67.8
Q 25.45 61.45 25.9 59.8 27.1 55.4 22.7 54.05 22.2 50.15 20.85 46.8
M 14.75 9.5
Q 16.3 8.85 16.6 7.1 17.2 3.65 14 2.1 10.5 8.2 10.2 15.2 10.1 17.95 10.05 20.75 11.65 19.05 13.25 17.35 16.35 13.95 14.75 9.5
M 47.3 41.9
Q 46.6 42.9 46 43.9 42.2 49.9 43.35 56.95
L 47.3 41.9
M 37.6 -20.75
Q 38 -19.4 38.55 -18.05 40.3 -13.75 45 -14.45 44.75 -12.8 45.05 -11.2 45.8 -7.25 49.8 -7.05
L 41.9 -21.35 37.6 -20.75
M 26.2 38.3
Q 25.2 37.15 23.75 37.15 22.3 37.15 21.25 38.3 20.25 39.45 20.25 41.05 20.25 42.65 21.25 43.8 21.8 44.35 23.75 44.35 25.75 44.35 26.2 43.8 26.75 43.25 26.75 41.05 26.75 38.85 26.2 38.3
M 21.95 11.85
Q 21.95 10.75 21.1 10 20.3 9.25 19.1 9.25 18.5 9.25 17.4 10.25 16.25 11.3 16.25 11.85 16.25 12.4 17.4 13.45 18.5 14.45 19.1 14.45 19.7 14.45 20.85 13.45 21.95 12.4 21.95 11.85
M 47 37.05
Q 47 35.9 46.6 35.55 45.9 34.95 44.9 34.95 43.9 34.95 43.15 35.55 42.85 35.9 42.85 37.05 42.85 38.2 43.15 38.5 43.55 38.85 44.9 38.85 46.3 38.85 46.6 38.5 47 38.2 47 37.05
M 37.8 -8.8
Q 38.5 -8.1 39.45 -8.1 39.95 -8.1 40.85 -9 41.8 -9.9 41.8 -10.4 41.8 -11.35 41.1 -12.05 40.4 -12.7 39.45 -12.7 38.5 -12.7 37.8 -12.05 37.45 -11.65 37.45 -10.35 37.45 -9.1 37.8 -8.8
M 19.1 -18.5
Q 17.25 -17.45 16.05 -15.45 8.25 -2.15 1.9 11.7 1.6 12.45 1.6 13.35
L 5.45 12.35
Q 8.35 6.35 11.5 0.45 14.95 -6.05 18.65 -12.35 20.85 -16.05 23.1 -19.65 22.05 -19.6 21.05 -19.3 20 -19.05 19.1 -18.5 Z"/>

<path fill="#78747F" stroke="none" d="
M 37.6 -20.75
Q 30.15 -19.15 25.05 -13.65 21.05 -9.35 18.05 -4.35 16.05 -1.1 14 2.1 17.2 3.65 16.6 7.1 16.3 8.85 14.75 9.5 16.35 13.95 13.25 17.35 11.65 19.05 10.05 20.75
L 15.05 42.25
Q 19.25 42.8 20.85 46.8 22.2 50.15 22.7 54.05 27.1 55.4 25.9 59.8 25.45 61.45 21.25 67.8
L 21.95 70.65 35.1 67
Q 35.8 64.4 39.45 61 42.35 58.3 43.05 58.05
L 43.35 56.95
Q 42.2 49.9 46 43.9 46.6 42.9 47.3 41.9
L 54.45 12.2
Q 54.85 10.4 53.15 3.15 51.4 -4.2 49.8 -7.05 45.8 -7.25 45.05 -11.2 44.75 -12.8 45 -14.45 40.3 -13.75 38.55 -18.05 38 -19.4 37.6 -20.75
M 39.45 -8.1
Q 38.5 -8.1 37.8 -8.8 37.45 -9.1 37.45 -10.35 37.45 -11.65 37.8 -12.05 38.5 -12.7 39.45 -12.7 40.4 -12.7 41.1 -12.05 41.8 -11.35 41.8 -10.4 41.8 -9.9 40.85 -9 39.95 -8.1 39.45 -8.1
M 43.85 8.8
Q 46.8 10.05 45.5 12.95 38.95 17.3 37.7 17.75 39.45 38.9 35.15 59.55 34.95 60.6 34.75 61.7
L 33.9 62.1
Q 29.05 58.95 29.05 53.1 29.6 22.1 29.65 20.1 25.05 22.5 19.9 21.65
L 18.05 19.3
Q 18.9 16.95 24.05 14.25 28.05 12.15 30.15 11.75
L 33.75 -2.5
Q 36.9 -2.2 37.25 0.95 37.7 5.25 37.85 9.75
L 43.85 8.8
M 46.6 35.55
Q 47 35.9 47 37.05 47 38.2 46.6 38.5 46.3 38.85 44.9 38.85 43.55 38.85 43.15 38.5 42.85 38.2 42.85 37.05 42.85 35.9 43.15 35.55 43.9 34.95 44.9 34.95 45.9 34.95 46.6 35.55
M 21.1 10
Q 21.95 10.75 21.95 11.85 21.95 12.4 20.85 13.45 19.7 14.45 19.1 14.45 18.5 14.45 17.4 13.45 16.25 12.4 16.25 11.85 16.25 11.3 17.4 10.25 18.5 9.25 19.1 9.25 20.3 9.25 21.1 10
M 23.75 37.15
Q 25.2 37.15 26.2 38.3 26.75 38.85 26.75 41.05 26.75 43.25 26.2 43.8 25.75 44.35 23.75 44.35 21.8 44.35 21.25 43.8 20.25 42.65 20.25 41.05 20.25 39.45 21.25 38.3 22.3 37.15 23.75 37.15 Z"/>

<path fill="#CC66FF" stroke="none" d="
M 34.65 18.75
L 32.4 19.5 31.55 42.8
Q 30.85 47.85 33.6 58.6 36.85 50.55 36.2 41.75 35.4 30.2 34.65 18.75
M 33.2 4.95
L 32.65 5.3 32.95 10.95 34.85 10.5 34.7 2.5 33.2 4.95
M 43.5 12.25
L 43.3 11.05
Q 36.7 12.35 21.5 18.2
L 22.45 19
Q 26 18.85 34.2 16.1 41.9 13.5 43.5 12.25 Z"/>
</g>
</defs>

<g transform="matrix( 0.69915771484375, 0, 0, 0.69915771484375, 428.45,366.1) ">
<g transform="matrix( 1, 0, 0, 1, 1.4,-5.6) ">
<g transform="matrix( -0.9981689453125, -0.056854248046875, -0.056854248046875, 0.9981689453125, 71.65,152) ">
<g transform="matrix( 1, 0, 0, 1, 0,0) ">
<use xlink:href="#Skeleton_Skeleton_Arm_1_Layer0_0_FILL"/>
</g>
</g>

<g transform="matrix( 0.8659515380859375, -0.49993896484375, 0.49993896484375, 0.8659515380859375, 11.65,107.45) ">
<g transform="matrix( 1, 0, 0, 1, 0,0) ">
<use xlink:href="#Skeleton_Skeleton_tsword_0_Layer0_0_FILL"/>
</g>
</g>

<g transform="matrix( 1, 0, 0, 1, 121.7,153.15) ">
<g transform="matrix( 1, 0, 0, 1, 0,0) ">
<use xlink:href="#Skeleton_Skeleton_Arm_0_Layer1_0_FILL"/>
</g>

<g transform="matrix( 1, 0, 0, 1, 0,0) ">
<use xlink:href="#Skeleton_Skeleton_Arm_0_Layer0_0_FILL"/>
</g>
</g>

<g transform="matrix( 1, 0, 0, 1, 78.9,139.2) ">
<g transform="matrix( 1.07611083984375, 0, 0, 0.9979705810546875, -4.2,40.55) ">
<g transform="matrix( 1, 0, 0, 1, 0,0) ">
<use xlink:href="#rib_0_Layer0_0_FILL"/>
</g>
</g>

<g transform="matrix( 1.2691497802734375, 0, 0, 0.9979705810546875, -10.65,31.55) ">
<g transform="matrix( 1, 0, 0, 1, 0,0) ">
<use xlink:href="#rib_0_Layer0_0_FILL"/>
</g>
</g>

<g transform="matrix( 1.0688629150390625, 0, 0, 0.8539886474609375, -9.8,15.95) ">
<g transform="matrix( 1, 0, 0, 1, 0,0) ">
<use xlink:href="#scarf_0_Layer0_0_FILL"/>
</g>
</g>
</g>

<g transform="matrix( 1, 0, 0, 1, 58.05,8) ">
<g transform="matrix( 1, 0, 0, 1, 0,0) ">
<use xlink:href="#Skeleton_Skeleton_head_top_0_Layer1_0_FILL"/>
</g>

<g transform="matrix( 1, 0, 0, 1, 0,0) ">
<use xlink:href="#Skeleton_Skeleton_head_top_0_Layer0_0_FILL"/>
</g>
</g>

<g transform="matrix( 0.999053955078125, -0.0402984619140625, 0.0402984619140625, 0.999053955078125, 133.5,127.2) ">
<g transform="matrix( 1, 0, 0, 1, 0,0) ">
<use xlink:href="#Skeleton_Skeleton_shield_0_Layer0_0_FILL"/>
</g>
</g>
</g>
</g>
</svg>
