
<svg xmlns="http://www.w3.org/2000/svg" version="1.1" xmlns:xlink="http://www.w3.org/1999/xlink" preserveAspectRatio="none" x="0px" y="0px" width="500px" height="500px" viewBox="0 0 500 500">
<defs>
<g id="Symbol_3_copy_5_Layer0_0_FILL">
<path fill="#FFFF99" stroke="none" d="
M 24.85 52.85
L 25.3 52.9
Q 25.3 52.4 25.3 51.75 25.15 52.35 24.85 52.85 Z"/>

<path fill="#FFFFFF" stroke="none" d="
M 29.2 48.45
L 29.2 48.5
Q 29.6 51.05 29.65 53.65 31.55 53.25 33.55 53 33.25 50.9 32.6 48.8 32.15 47.55 32 46.9 31.85 46.4 31.75 45.95
L 31.7 45.95
Q 29.9 46.5 29.2 48.45
M 20.2 45.8
Q 18.95 45.95 17.9 46.8 17.85 46.95 17.85 47.15 17.75 47.75 17.35 48.95 16.9 50.1 16.8 50.7 16.7 51.45 16.95 51.7 17.3 52.05 17.9 52.05
L 22.25 52.55 21.9 52.5
Q 22.35 51.5 22.5 50.9 22.65 50.4 22.7 49.6 22.7 48.7 22.7 48.25
L 22.95 46.3
Q 22.65 46.1 22.3 46 21.15 45.65 20.2 45.8
M 9.3 44.35
Q 7.95 46.4 8.15 47.55 8.35 48.85 9.8 49.75 10 49.45 10.25 49.2 11.1 48.2 12.15 46 12.45 45.4 12.7 44.9 12.35 44.2 11.65 43.75 10.85 43.2 10 43.2 9.75 43.6 9.5 44.1 9.4 44.2 9.3 44.35
M 46 16.4
Q 44.754296875 19.5796875 44.25 22.8 44.2830078125 22.8521484375 44.3 22.9 45.7 27 45.05 30.15 44.817578125 31.1318359375 44.4 32 44.841796875 34.2775390625 45.7 36.4 46.34921875 35.6439453125 46.95 34.7 48 33.2 48.4 31.85 48.7 30.85 48.8 28.65 48.8 25.3 48.75 24.9 48.5 23.1 47.6 20.35 46.8380859375 17.96484375 46 16.4
M 41.85 12.35
Q 41.9 10.5 41.9 8.45 36.4 5.75 30.7 5.5 28.55 5.35 27 5.65 25.95 5.85 22.8 7.1
L 21.3 7.75
Q 21.25 7.9 21.2 8.05 19.25 13.65 15.05 16.15 13.05 17.35 10.75 17.65 8.7 18 7.25 17.4 6.95 17.95 6.7 18.6 6.6 18.85 6.55 19.1 6.5 19.15 6.5 19.2
L 5.6 22.45
Q 5.45 23.1 5.3 23.8 5.6 24.6 6.05 25.35 6.25 25.7 7.3 27.15 8.1 28.25 8.4 29 8.7 29.85 9.2 31.6 9.55 32.4 11.35 34.8 12.8 36.65 12.85 38.1 12.85 38.75 12.75 40.15 12.9 41.1 13.7 41.8 14.45 42.5 15.45 42.6 17.5 42.85 18.95 41.1 20.1 41.85 22 40.85 22.5 40.65 23.45 40.15 24.3 39.75 24.95 39.7 25.9 39.65 27.7 40.5 30.15 41.7 32.15 42.3 32.35 42 32.55 41.7 33.05 40.95 33.85 39.5 31.65 39.2 30.65 38.8 29.8 38.5 28.2 37.5 27.45 37.05 27.1 36.55 26.6 35.6 26.3 35.15 26.05 34.65 25.45 34.05
L 24.5 33.05
Q 23.35 31.9 22.55 30.3 22.1 29.4 21.2 26.65 20.8 25.25 20.85 24.6 21.05 23.6 21.15 23.05 21.4 21.35 21.55 20.45 21.6 19.85 21.9 18.55
L 21.95 18.35
Q 21.651953125 17.03515625 21.85 15.55 22.15 13.25 23.6 11.55 25.1 9.85 27.35 9.2 29.6 8.5 31.75 9.1 32.8 9.4 33.55 9.9 33.8 9.8 34.05 9.8 37.2 9.45 41.55 12.15 41.7 12.25 41.85 12.35
M 17.15 20.65
Q 18.45 21.5 18.95 22.85 19.4 24.1 19 26.75 18.8 28.05 18.5 28.65 18.1 29.45 16.95 30.4 15.25 31.85 13.8 32.1 12.5 32.35 11.25 31.8 9.95 31.25 9.25 30.15 8.7 29.3 8.45 28.1 8 25.15 9.55 22.8 11.4 20 14.4 19.85 15.85 19.8 17.15 20.65
M 53.05 9.35
Q 52.4216796875 8.7216796875 51.75 8.1 49.748828125 9.4427734375 48.05 12.25 49.8703125 13.6462890625 51.35 15.3 52.5 16.6 53.35 18 53.9 18.95 54.3 19.9 55.75 23.4 55.6 27.45 55.4 31.35 53.8 34.95 53.2 36.55 52.3 37.55 51.7 38.25 49.85 39.55 48.8576171875 40.26328125 47.95 40.8 49.20234375 42.6685546875 50.65 44 50.8736328125 43.85 51.1 43.7 55.4 40.95 57.75 36.55 60.05 32.25 60.25 27.1 60.4 22.1 58.5 17.5 56.6 13 53.05 9.35 Z"/>

<path fill="#FFAFFF" stroke="none" d="
M 21.2 8.05
Q 21.25 7.9 21.3 7.75
L 16.35 9.8
Q 12.05 11.55 10.15 13.3 8.4 14.9 7.25 17.4 8.7 18 10.75 17.65 13.05 17.35 15.05 16.15 19.25 13.65 21.2 8.05
M 31.35 10.5
Q 31.55 10.4 31.8 10.35
L 31.85 10.35
Q 31.9 10.3 31.95 10.3 32.8 10 33.55 9.9 32.8 9.4 31.75 9.1 29.6 8.5 27.35 9.2 25.1 9.85 23.6 11.55 22.15 13.25 21.85 15.55 21.651953125 17.03515625 21.95 18.35
L 22.2 17.15
Q 22.8 14.55 23.7 13.55 24.5 12.7 26 12.2 26.9 11.9 28.75 11.45 29.65 11.2 31.35 10.5
M 41.9 8.45
Q 41.9 10.5 41.85 12.35 41.95 12.4 42.1 12.5
L 44.85 14.8
Q 44.95 14.9 45.1 15.05
L 45.15 15.1
Q 45.588671875 15.6568359375 46 16.4 46.8380859375 17.96484375 47.6 20.35 48.5 23.1 48.75 24.9 48.8 25.3 48.8 28.65 48.7 30.85 48.4 31.85 48 33.2 46.95 34.7 46.34921875 35.6439453125 45.7 36.4 44.0490234375 38.32890625 42.05 39.15 40.55 39.8 38.5 39.85 37.25 39.85 34.8 39.6
L 34.05 39.55
Q 33.95 39.5 33.85 39.5 33.05 40.95 32.55 41.7 32.35 42 32.15 42.3 30.15 41.7 27.7 40.5 25.9 39.65 24.95 39.7 24.3 39.75 23.45 40.15 22.5 40.65 22 40.85 20.1 41.85 18.95 41.1 17.5 42.85 15.45 42.6 14.45 42.5 13.7 41.8 12.9 41.1 12.75 40.15 12.85 38.75 12.85 38.1 12.8 36.65 11.35 34.8 9.55 32.4 9.2 31.6 8.7 29.85 8.4 29 8.1 28.25 7.3 27.15 6.25 25.7 6.05 25.35 5.6 24.6 5.3 23.8 5.45 23.1 5.6 22.45 5.3 23.6 5.05 24.95 4.35 27.85 4.7 29.5 4.85 30.15 5.35 31.2 5.85 32.35 6 32.85
L 6.35 34.55
Q 6.55 35.55 6.9 36.15 7.25 36.75 9.05 38.5 10.45 39.9 10.55 41.1 10.6 41.9 10 43.2 10.85 43.2 11.65 43.75 12.35 44.2 12.7 44.9 12.45 45.4 12.15 46 11.1 48.2 10.25 49.2 10 49.45 9.8 49.75 10.35 50.05 11.1 50.35
L 11.65 50.5
Q 11.85 50.5 12 50.5 12.192578125 50.4548828125 12.35 50.35 12.7 50.15 12.8 49.25 13.1 47.45 13.4 46.7 13.8 45.55 14.5 44.85 15.3 44 16.25 44.15 17.15 44.35 17.6 45.3 17.9 46 17.9 46.8 18.95 45.95 20.2 45.8 21.15 45.65 22.3 46 22.65 46.1 22.95 46.3
L 22.7 48.25
Q 22.7 48.7 22.7 49.6 22.65 50.4 22.5 50.9 22.35 51.5 21.9 52.5
L 22.25 52.55 24.85 52.85
Q 25.15 52.35 25.3 51.75
L 25.3 49.25
Q 25.3 48.25 25.35 47.05 25.45 45.65 25.95 45.2 26.4 44.85 27.05 44.95 27.7 45.1 28.15 45.55 28.65 46.1 29.05 47.75 29.1 48.1 29.2 48.5
L 29.2 48.45
Q 29.9 46.5 31.7 45.95
L 31.75 45.95
Q 31.85 46.4 32 46.9 32.15 47.55 32.6 48.8 33.25 50.9 33.55 53 35.05 52.8 36.65 52.75 36.85 52.7 37.1 52.7 37.75 52.65 38.4 52.65 39.05 52.65 39.3 52.5 39.95 52 39.4 50.65 38.4 48.25 38.25 46.95 38.05 44.55 39.5 43.35 40.35 42.7 41.85 42.5 42.75 42.4 44.5 42.25 45.983203125 41.9740234375 47.95 40.8 48.8576171875 40.26328125 49.85 39.55 51.7 38.25 52.3 37.55 53.2 36.55 53.8 34.95 55.4 31.35 55.6 27.45 55.75 23.4 54.3 19.9 53.9 18.95 53.35 18 52.5 16.6 51.35 15.3 49.8703125 13.6462890625 48.05 12.25 47.7787109375 12.0509765625 47.5 11.85 44.75 9.8 41.9 8.45 Z"/>

<path fill="#CC33FF" stroke="none" d="
M 41.85 12.35
Q 41.7 12.25 41.55 12.15 37.2 9.45 34.05 9.8 33.8 9.8 33.55 9.9 32.8 10 31.95 10.3 31.9 10.3 31.85 10.35
L 31.8 10.35
Q 31.55 10.4 31.35 10.5 29.65 11.2 28.75 11.45 26.9 11.9 26 12.2 24.5 12.7 23.7 13.55 22.8 14.55 22.2 17.15
L 21.95 18.35 21.9 18.55
Q 21.6 19.85 21.55 20.45 21.4 21.35 21.15 23.05 21.05 23.6 20.85 24.6 20.8 25.25 21.2 26.65 22.1 29.4 22.55 30.3 23.35 31.9 24.5 33.05
L 25.45 34.05
Q 26.05 34.65 26.3 35.15 26.6 35.6 27.1 36.55 27.45 37.05 28.2 37.5 29.8 38.5 30.65 38.8 31.65 39.2 33.85 39.5 33.95 39.5 34.05 39.55
L 34.8 39.6
Q 37.25 39.85 38.5 39.85 40.55 39.8 42.05 39.15 44.0490234375 38.32890625 45.7 36.4 44.841796875 34.2775390625 44.4 32 44.031640625 32.79921875 43.5 33.5 42.25 35 40.6 35.6 39.2 36.1 36.1 35.9 33.05 35.8 31.45 35.1 28.9 34.05 26.7 30.8 23.25 25.7 24.55 21.9 24.95 20.75 25.9 19.35 26.9 17.85 27.55 17.3 28.35 16.6 31 15.85 34.8 14.85 36.8 15.2 39.4 15.6 41.45 17.95 43.2208984375 19.917578125 44.25 22.8 44.754296875 19.5796875 46 16.4 45.588671875 15.6568359375 45.15 15.1
L 45.1 15.05
Q 44.95 14.9 44.85 14.8
L 42.1 12.5
Q 41.95 12.4 41.85 12.35
M 41.9 8.45
Q 44.75 9.8 47.5 11.85 47.7787109375 12.0509765625 48.05 12.25 49.748828125 9.4427734375 51.75 8.1 48.7421875 5.4640625 45.05 3.7 41.3 1.95 35.95 0.75 32.15 -0.05 29.65 0 26.4 0.05 22.6 1.25 20.05 2.1 15.85 4 11.9 5.75 10.1 6.9 7.05 8.8 5.5 11.15 4.55 12.65 3.5 15.35 1.7 19.85 1.1 22 -0.05 25.8 0 28.95 0 35.25 3.9 40.25 4.65 41.25 4.75 41.7 4.9 42.4 4.35 43.7 3.4 46.2 3.55 48.5 3.75 51.2 5.5 52.65 6.65 53.65 9.55 54.25
L 13.8 55.2
Q 18.85 56.4 21.25 56.6 22.9 56.8 26.3 56.9
L 30 56.95
Q 33.3 56.95 37.4 56.7 40.4 56.5 41.55 55.6 43.45 54.25 43.25 51.3 43.15 49.8 41.9 46.75 46.5421875 46.560546875 50.65 44 49.20234375 42.6685546875 47.95 40.8 45.983203125 41.9740234375 44.5 42.25 42.75 42.4 41.85 42.5 40.35 42.7 39.5 43.35 38.05 44.55 38.25 46.95 38.4 48.25 39.4 50.65 39.95 52 39.3 52.5 39.05 52.65 38.4 52.65 37.75 52.65 37.1 52.7 36.85 52.7 36.65 52.75 35.05 52.8 33.55 53 31.55 53.25 29.65 53.65 29.6 51.05 29.2 48.5 29.1 48.1 29.05 47.75 28.65 46.1 28.15 45.55 27.7 45.1 27.05 44.95 26.4 44.85 25.95 45.2 25.45 45.65 25.35 47.05 25.3 48.25 25.3 49.25
L 25.3 51.75
Q 25.3 52.4 25.3 52.9
L 24.85 52.85 22.25 52.55 17.9 52.05
Q 17.3 52.05 16.95 51.7 16.7 51.45 16.8 50.7 16.9 50.1 17.35 48.95 17.75 47.75 17.85 47.15 17.85 46.95 17.9 46.8 17.9 46 17.6 45.3 17.15 44.35 16.25 44.15 15.3 44 14.5 44.85 13.8 45.55 13.4 46.7 13.1 47.45 12.8 49.25 12.7 50.15 12.35 50.35 12.192578125 50.4548828125 12 50.5 11.85 50.5 11.65 50.5
L 11.1 50.35
Q 10.35 50.05 9.8 49.75 8.35 48.85 8.15 47.55 7.95 46.4 9.3 44.35 9.4 44.2 9.5 44.1 9.75 43.6 10 43.2 10.6 41.9 10.55 41.1 10.45 39.9 9.05 38.5 7.25 36.75 6.9 36.15 6.55 35.55 6.35 34.55
L 6 32.85
Q 5.85 32.35 5.35 31.2 4.85 30.15 4.7 29.5 4.35 27.85 5.05 24.95 5.3 23.6 5.6 22.45
L 6.5 19.2
Q 6.5 19.15 6.55 19.1 6.6 18.85 6.7 18.6 6.95 17.95 7.25 17.4 8.4 14.9 10.15 13.3 12.05 11.55 16.35 9.8
L 21.3 7.75 22.8 7.1
Q 25.95 5.85 27 5.65 28.55 5.35 30.7 5.5 36.4 5.75 41.9 8.45
M 18.95 22.85
Q 18.45 21.5 17.15 20.65 15.85 19.8 14.4 19.85 11.4 20 9.55 22.8 8 25.15 8.45 28.1 8.7 29.3 9.25 30.15 9.95 31.25 11.25 31.8 12.5 32.35 13.8 32.1 15.25 31.85 16.95 30.4 18.1 29.45 18.5 28.65 18.8 28.05 19 26.75 19.4 24.1 18.95 22.85
M 12.6 25.85
L 12.85 25.7
Q 13.35 25.45 14.15 25.95 14.8 26.3 15 26.85 15.2 27.25 15.2 27.45 15.15 27.75 14.8 28.2 14.65 28.4 14.35 28.6 13.95 28.85 13.2 28.65 12.55 28.55 12.3 28.25 11.65 27.6 12 26.75 12.2 26.15 12.6 25.85 Z"/>
</g>
</defs>

<g transform="matrix( -0.679534912109375, 0, 0, 0.679534912109375, 338.35,132.05) ">
<g transform="matrix( 1.405059814453125, 0, 0, 1.405059814453125, 87.25,120.25) ">
<g transform="matrix( 1, 0, 0, 1, 0,0) ">
<use xlink:href="#Symbol_3_copy_5_Layer0_0_FILL"/>
</g>
</g>
</g>
</svg>
