
<svg xmlns="http://www.w3.org/2000/svg" version="1.1" xmlns:xlink="http://www.w3.org/1999/xlink" preserveAspectRatio="none" x="0px" y="0px" width="500px" height="500px" viewBox="0 0 500 500">
<defs>
<g id="attack_impact_0_Layer0_0_FILL">
<path fill="#CC33FF" stroke="none" d="
M 78.85 13.55
Q 65.3 0 46.15 0 27.05 0 13.5 13.55 0 27.1 0 46.2 0 65.35 13.5 78.85 27.05 92.4 46.15 92.4 65.3 92.4 78.85 78.85 92.4 65.35 92.4 46.2 92.4 27.1 78.85 13.55
M 46.75 14.85
Q 59.95 14.85 69.3 24.2 78.65 33.55 78.65 46.7 78.65 59.9 69.3 69.25 59.95 78.6 46.75 78.6 33.6 78.6 24.25 69.25 14.9 59.9 14.9 46.75 14.9 33.55 24.25 24.2 33.6 14.85 46.75 14.85 Z"/>

<path fill="#FFAFFF" stroke="none" d="
M 69.3 24.2
Q 59.95 14.85 46.75 14.85 33.6 14.85 24.25 24.2 14.9 33.55 14.9 46.75 14.9 59.9 24.25 69.25 33.6 78.6 46.75 78.6 59.95 78.6 69.3 69.25 78.65 59.9 78.65 46.7 78.65 33.55 69.3 24.2 Z"/>
</g>
</defs>

<g transform="matrix( -0.679534912109375, 0, 0, 0.679534912109375, 338.35,132.05) ">
<g transform="matrix( 1, 0, 0, 1, 96.1,122.5) ">
<g transform="matrix( 1, 0, 0, 1, 0,0) ">
<use xlink:href="#attack_impact_0_Layer0_0_FILL"/>
</g>
</g>
</g>
</svg>
