
<svg xmlns="http://www.w3.org/2000/svg" version="1.1" xmlns:xlink="http://www.w3.org/1999/xlink" preserveAspectRatio="none" x="0px" y="0px" width="900px" height="700px" viewBox="0 0 900 700">
<defs>
<g id="After_Life_Circle_copy_0_Layer0_0_FILL">
<path fill="#FFFFFF" stroke="none" d="
M 714.75 224.05
Q 714.6 223.6 714.4 223.2 697.15 183.7 669.95 148.35 655.2 129.25 637.55 111.3 637.4 111.15 637.25 111.05
L 635.2 108.95
Q 531.45 5.2 386.75 0.25 380 0 373.2 0 372.95 0 372.7 0 372.4 0 372.1 0 364.7 0 357.45 0.25 343.1 0.75 329.15 2.2 325.65 2.55 322.2 3 318.85 3.4 315.5 3.9 312.25 4.35 309.05 4.85
L 146.1 76.05
Q 144.9 76.95 143.75 77.85 125.8 92.1 108.95 108.95 105.2 112.7 101.6 116.5 54.45 166.05 29.15 224.7 28.6 225.95 28.1 227.2
L 14.45 265.85
Q 13.95 267.5 13.5 269.15 4.3 302.35 1.35 338.25 1.3 338.6 1.3 338.95 1.25 339.2 1.25 339.55 1.2 339.85 1.2 340.2 1.15 340.55 1.15 340.9 1.1 341.2 1.1 341.55 1.05 341.9 1.05 342.25 1 342.65 1 343.1 0.95 343.45 0.95 343.85 0.9 344 0.9 344.15 0.9 344.35 0.9 344.5 0.85 344.9 0.85 345.3 0.8 345.5 0.8 345.7 0.8 346.15 0.75 346.65 0.75 347.05 0.7 347.55 0.7 348.05 0.65 348.55 0 360.2 0 372.1 0 384 0.65 395.6 3.15 440.5 15.35 481.35 15.7 482.6 16.1 483.85
L 29.35 519.9
Q 29.55 520.45 29.8 521 47.05 560.5 74.25 595.85 74.5 596.1 74.75 596.45
L 106.65 632.9
Q 107.8 634.05 108.95 635.2
L 109 635.25
Q 212.75 739 357.45 743.95 364.7 744.2 372.1 744.2 379.5 744.2 386.75 743.95 401.1 743.45 415.05 742 419.05 741.6 423.05 741.1 425.9 740.7 428.75 740.3 430.15 740.1 431.55 739.9 432 739.85 432.5 739.75
L 599.3 667.25
Q 599.85 666.8 600.45 666.35 618.4 652.1 635.25 635.25 639 631.5 642.6 627.7 689.75 578.15 715.05 519.5 715.6 518.25 716.1 517
L 729.75 478.35
Q 741.15 438.85 743.55 395.65 744.2 384 744.2 372.1 744.2 360.2 743.55 348.6 743.45 347.1 743.4 345.6
L 729.6 265.35
Q 729 263.25 728.4 261.2
L 724.7 249.7 714.75 224.05
M 709.6 266.05
Q 714.8 276.6 714.8 288.7 714.8 299.2892578125 710.85 308.6 716.2 339.2369140625 716.2 372.05 716.2 372.1 716.2 372.15
L 707.35 440.35
Q 708.8337890625 442.5755859375 710.05 445.3 714.8 455.6 714.8 467.25 714.8 478.95 710.05 489.25 707.55 494.6 704 498.05 699.8 502.15 694.85 502.65 693.240234375 502.7919921875 691.65 502.5 668.0248046875 560.5462890625 621.55 609.1 621.2087890625 615.44609375 619.5 622.15 618.3 626.3 617.15 628.9 615.6 632.45 613.6 634.95 611.25 637.9 608.3 639.7 605.05 641.7 601.65 641.9 598.35 642.1 595 640.65 592.7587890625 639.6580078125 590.8 638 505.726953125 709.35625 393.7 715.55 393.5986328125 715.4166015625 393.5 715.25 391.0208984375 721.8111328125 387.45 725.55 384.9 728.3 381.6 729.85 378 731.5 374.5 731.15 369.7 730.85 365.45 727.15 361.7 723.9 359.15 718.9 358.276171875 717.1591796875 357.55 715.3 357.3806640625 715.609765625 357.2 715.9 226.6599609375 710.9416015625 132.25 618.8 130.9046875 620.9255859375 129.3 622.6 125.25 626.85 120.35 627.6 117.05 628.05 113.6 626.75 110.45 625.6 107.65 623.15 103.5 619.35 100.3 611.5 96.4 601.35 96.9 590.1 97.133203125 585.34921875 98.1 580.85 68.263671875 542.5884765625 51.1 499.05 48.8365234375 499.008984375 46.5 498.15 43.35 496.95 40.7 494.55 36.5 490.7 33.3 483.2 29.35 472.9 29.85 461.5 30.35 450.1 35.25 440.25 35.73203125 439.252734375 36.25 438.35
L 28 373.3
Q 28 372.75 28 372.15 28 372.1 28 372.05 28 371.65 28 371.2 28 370.75 28 370.35 28 369.9 28 369.55
L 36.1 309.75
Q 34.480859375 307.836328125 33.15 305.45 26.2 292.55 28.3 273.9 29.95 261.75 34.5 254.85 36.95 251.1 40.45 248.8 44.25 246.2 48.35 246 50.6416015625 245.931640625 52.85 246.6
L 112.15 146.5
Q 112.35 146.2 112.6 145.95 112.8 145.7 113.05 145.45 113.3 145.15 113.55 144.9 114.15 144.25 114.7 143.6 114.95 143.3 115.2 143.05 115.4 142.8 115.65 142.6 115.9 142.3 116.15 142 116.4 141.75 116.65 141.5 116.9 141.2 117.15 140.95 117.4 140.65 117.65 140.35 117.9 140.1 118.15 139.8 118.4 139.5 118.7 139.2 118.95 138.95 119.25 138.65 119.5 138.35 119.75 138.1 120 137.8 120.3 137.55 120.6 137.2 120.9 136.9 121.55 136.2 122.2 135.55 122.45 135.25 122.75 134.95 122.7998046875 134.875390625 122.85 134.8 123.6037109375 123.90234375 128.6 114.45 133.05 106.05 138.9 103.8 142.95 102.4 147.4 103.6 150.590625 104.4162109375 153.2 106.3 238.0345703125 35.1185546875 349.7 28.7 350.4392578125 27.0025390625 351.3 25.35 353.8 20.6 357.05 17.65 360.95 14.05 365.35 13.55 371.1 12.95 376.3 17.5 380.75 21.35 383.6 27.7 384.4197265625 29.554296875 385.1 31.45 386.103515625 29.85390625 387.05 28.35 519.95 33.35 615.4 128.8 619.09765625 132.49765625 622.7 136.25 623.285546875 136.0078125 623.9 135.8 627.85 134.55 632.35 135.85 636.6 137.15 639.85 140.25 645.3 145.55 647.95 155.45 649.5955078125 161.702734375 649.8 168.3 679.6845703125 207.9677734375 696.1 253.2 699.3955078125 253.997265625 702.5 256.6 706.75 260.15 709.6 266.05 Z"/>
</g>
</defs>

<g transform="matrix( 1.133544921875, 0, 0, 0.6865997314453125, 24,100) ">
<g transform="matrix( 1, 0, 0, 1, 0,0) ">
<use xlink:href="#After_Life_Circle_copy_0_Layer0_0_FILL"/>
</g>
</g>
</svg>
