
<svg xmlns="http://www.w3.org/2000/svg" version="1.1" xmlns:xlink="http://www.w3.org/1999/xlink" preserveAspectRatio="none" x="0px" y="0px" width="900px" height="700px" viewBox="0 0 900 700">
<defs>
<g id="After_Life_Circle_copy_1_Layer0_0_FILL">
<path fill="#FFFFFF" stroke="none" d="
M 740.7 31.35
Q 737.4 22.8 737.15 13.6
L 13.7 13.6
Q 13.2 19.25 11.65 24.7 9.3 33.2 4.7 38 1.9 40.9 -1.5 42.4 -4 43.5 -6.4 43.65
L -6.4 687.6
Q -5.2 687.75 -3.95 688.05 0 689.05 3.05 691.85 8.5 696.55 11.5 705.85 12.65 709.55 13.3 713.3
L 736.65 713.3
Q 737.95 708.15 740.3 703.35 744.8 694.1 751.35 691.85 751.9 691.65 752.5 691.55
L 752.5 45.9
Q 750.05 44.75 747.95 42.85 743.6 38.85 740.7 31.35
M 732.75 66
Q 733.15 65.7 733.55 65.3
L 734.45 331.2
Q 734.55 331.25 734.65 331.35 740.3 336.6 742.95 346.55 745.15 354.6 745.05 362.95 744.9 371.4 742.35 379.3 739.7 387.7 735.25 392.3 734.95 392.6 734.7 392.9
L 735.6 660.75
Q 734.15 659.95 732.6 659.7 732.7 659.95 732.55 660.2 732.35 660.45 732 660.45 731.75 660.55 731.35 660.5
L 730.7 660.45
Q 728.7 660.1 726.7 662.95 722.95 668.25 722.55 675.1 722.45 677.1 722.65 679
L 391.65 679
Q 390.45 685.55 387.75 691.7 383.6 701.2 377 703.8 372.9 705.3 368.3 704.15 363.9 703.05 360.45 699.95 354.75 694.85 352.05 684.75 351.25 681.9 350.75 679
L 22.05 678.95
Q 23.6 671.75 21.5 664.7 20.4 660.9 18.2 658.4 15.65 655.45 12.35 655.25 12.55 655.55 12.1 655.85 11.75 656.1 11.25 656.15
L 11.25 402.4
Q 7.95 398.65 5.45 392.6 1.35 382.4 1.75 371.1 2.15 359.8 6.9 349.8 8.85 345.85 11.25 343.1
L 11.25 71.3
Q 11.9 71.6 12.6 71.8 14.7 72.45 16.5 71.9 20.95 70.9 23.45 63.2 25.95 54.6 24.15 47.85 24.05 47.5 24 47.15
L 349.5 45.55
Q 350.3 43.5 351.3 41.55 356.4 32 363.25 30.3 366.25 29.6 369.6 30.4 372.75 31.15 375.5 33.1 380.05 36.5 383.5 43.3 384 44.3 384.45 45.4
L 719.3 43.75
Q 718.3 46.95 718.25 50.6 718.15 57.75 721.7 63.5 723.65 66.7 726.1 67.5 727.7 68.1 729.6 67.65 731.35 67.2 732.75 66 Z"/>
</g>
</defs>

<g transform="matrix( 1.133544921875, 0, 0, 0.6865997314453125, 24,100) ">
<g transform="matrix( 1, 0, 0, 1, 0,0) ">
<use xlink:href="#After_Life_Circle_copy_1_Layer0_0_FILL"/>
</g>
</g>
</svg>
