
<svg xmlns="http://www.w3.org/2000/svg" version="1.1" xmlns:xlink="http://www.w3.org/1999/xlink" preserveAspectRatio="none" x="0px" y="0px" width="500px" height="350px" viewBox="0 0 500 350">
<defs>
<g id="octo_tenticle_5_Layer0_0_FILL">
<path fill="#000000" stroke="none" d="
M 11.55 -18.4
Q 11.45 -16.9 14.45 -15.95 18.6 -14.65 21.9 -11.95 24.45 -9.95 26.95 -6.75 28.55 -4.65 31.05 -0.75 38.1 10.15 41.85 14.6 48.65 22.6 56.25 25.9 61.15 28.05 69.25 29.15 81.25 30.8 92.1 30.1 99.25 29.65 103.35 27.7 106.9 26.1 109.55 23.05 112.15 20 113.15 16.2 114.05 12.9 113.6 8.65 112.95 1.45 109.2 -3.5 107.15 -6.2 104.35 -7.8 101.35 -9.55 98.15 -9.75 95.35 -9.95 91.7 -8.85 87.45 -7.3 85.35 -6.6 78.75 -4.3 72.25 -4.05 65.15 -3.8 59.15 -6 57.05 -6.75 54.15 -8.15 50.95 -9.85 49.3 -10.65 33.25 -18.65 15.25 -20.2 13.85 -20.3 12.85 -19.9 11.6 -19.45 11.55 -18.4
M 28.4 -9.25
Q 28.3876953125 -9.290625 28.35 -9.35 26.25 -12.75 24.4 -14.3 32.55 -12.45 39.5 -8.7 41.06484375 -7.846484375 46.25 -4.75 46.5556640625 -4.5755859375 46.85 -4.4 51.35 -1.7 54.3 -0.4 63.35 3.55 73.55 2.75 81.6005859375 2.1609375 88.45 -1.2 90.3189453125 -2.1234375 92.1 -3.25 93.6 -4.25 94.5 -4.4 95.5447265625 -4.5361328125 97.2 -3.8 97.26484375 -3.7751953125 97.3 -3.75
L 97.55 -3.65
Q 99.7099609375 -2.5701171875 101.1 -1.4 101.545703125 -1.054296875 101.9 -0.7 105.05 2.35 105.85 7.95 106.85 14.15 103.85 17.85 102.05 20.1 98.55 21.2 96.15 21.9 92.05 22.25 90.2111328125 22.374609375 88.4 22.45 75.88515625 22.98828125 65.95 21.15 57.75 19.65 52.8 16.5 49 14.1 44.25 8.6 38.15 1.65 36.3 -0.05 36.0556640625 -0.2576171875 35.8 -0.45
L 32.8 -3.2
Q 32.430859375 -3.569921875 32.1 -3.9
L 32.15 -3.9
Q 32.06875 -3.9732421875 32 -4.05 31.176171875 -4.9916015625 29.4 -7.75 29.31328125 -7.85625 29.2 -8
L 28.4 -9.25 Z"/>

<path fill="#CBF5FC" stroke="none" d="
M 96.05 -1.5
Q 96.1140625 -1.8107421875 96.15 -2.05
L 96.3 -2.5
Q 96.5888671875 -3.2703125 97.2 -3.8 95.5447265625 -4.5361328125 94.5 -4.4 93.6 -4.25 92.1 -3.25 90.3189453125 -2.1234375 88.45 -1.2 87.8056640625 -0.3029296875 87.2 0 86.9 0.15 85.45 0.65 84.8 0.85 83.6 1.45 82.75 1.9 82.35 2.4 81.75 3.2 82.2 3.9 82.7 4.7 84.2 4.25 85.1 4.05 86 3.65 89.7 2.4 92.6 0.9 94.661328125 -0.319921875 96.05 -1.5
M 28.35 -9.35
Q 28.3876953125 -9.290625 28.4 -9.25
L 29.2 -8
Q 29.31328125 -7.85625 29.4 -7.75 29.9771484375 -7.5779296875 30.6 -7.4 39.35 -5.05 44 -2
L 45.8 -0.7
Q 47.2 0.45 48.1 0.9 49.65 1.75 51.3 1.65 51.5 1.05 51 0.2 50.2 -1.1 48.6 -2.65 47.1337890625 -3.9232421875 46.25 -4.75 41.06484375 -7.846484375 39.5 -8.7 32.55 -12.45 24.4 -14.3 26.25 -12.75 28.35 -9.35 Z"/>

<path fill="#2D4AF5" stroke="none" d="
M 38.35 -0.65
Q 35.0662109375 -2.7943359375 32.15 -3.9
L 32.1 -3.9
Q 32.430859375 -3.569921875 32.8 -3.2
L 35.8 -0.45
Q 36.0556640625 -0.2576171875 36.3 -0.05 38.15 1.65 44.25 8.6 49 14.1 52.8 16.5 57.75 19.65 65.95 21.15 75.88515625 22.98828125 88.4 22.45 90.2111328125 22.374609375 92.05 22.25 96.15 21.9 98.55 21.2 102.05 20.1 103.85 17.85 106.85 14.15 105.85 7.95 105.05 2.35 101.9 -0.7 101.545703125 -1.054296875 101.1 -1.4 99.7099609375 -2.5701171875 97.55 -3.65
L 97.3 -3.75
Q 97.26484375 -3.7751953125 97.2 -3.8 96.5888671875 -3.2703125 96.3 -2.5
L 96.15 -2.05
Q 95.97109375 -1.125390625 96.05 0.65 96.3 4.6 95.8 7.2 95.15 10.8 93.1 12.85 91.55 14.5 88.95 15.4 88.912890625 15.4126953125 88.85 15.4 88.528125 15.0068359375 88.1 14.55 86.2 12.5 84.65 12.25 82.55 12 80.25 14.2 78.8294921875 15.6611328125 78.25 16.95 78.5857421875 16.935546875 78.9 16.9 73.26484375 17.2513671875 67.75 16.7 57.4 15.7 51.9 11.15 50.85 10.3 47.6 6.9 43.3 2.55 38.35 -0.65
M 82.1 11.45
Q 82.5 10.75 82.35 10 82.25 9.25 81.65 8.7 81.05 8.2 80.3 8.1 80.35 8.3 80.05 8.3 79.05 8.3 78.5 9.1 78.2 9.65 78.2 10.3 78.2 10.95 78.45 11.4 78.85 12.1 79.55 12.3 80.2 12.5 80.95 12.35 81.65 12.1 82.1 11.45 Z"/>

<path fill="#66CCFF" stroke="none" d="
M 32 -4.05
Q 32.06875 -3.9732421875 32.15 -3.9 35.0662109375 -2.7943359375 38.35 -0.65 43.3 2.55 47.6 6.9 50.85 10.3 51.9 11.15 57.4 15.7 67.75 16.7 73.26484375 17.2513671875 78.9 16.9 78.5857421875 16.935546875 78.25 16.95 78.8294921875 15.6611328125 80.25 14.2 82.55 12 84.65 12.25 86.2 12.5 88.1 14.55 88.528125 15.0068359375 88.85 15.4 88.912890625 15.4126953125 88.95 15.4 91.55 14.5 93.1 12.85 95.15 10.8 95.8 7.2 96.3 4.6 96.05 0.65 95.97109375 -1.125390625 96.15 -2.05 96.1140625 -1.8107421875 96.05 -1.5 94.661328125 -0.319921875 92.6 0.9 89.7 2.4 86 3.65 85.1 4.05 84.2 4.25 82.7 4.7 82.2 3.9 81.75 3.2 82.35 2.4 82.75 1.9 83.6 1.45 84.8 0.85 85.45 0.65 86.9 0.15 87.2 0 87.8056640625 -0.3029296875 88.45 -1.2 81.6005859375 2.1609375 73.55 2.75 63.35 3.55 54.3 -0.4 51.35 -1.7 46.85 -4.4 46.5556640625 -4.5755859375 46.25 -4.75 47.1337890625 -3.9232421875 48.6 -2.65 50.2 -1.1 51 0.2 51.5 1.05 51.3 1.65 49.65 1.75 48.1 0.9 47.2 0.45 45.8 -0.7
L 44 -2
Q 39.35 -5.05 30.6 -7.4 29.9771484375 -7.5779296875 29.4 -7.75 31.176171875 -4.9916015625 32 -4.05
M 82.35 10
Q 82.5 10.75 82.1 11.45 81.65 12.1 80.95 12.35 80.2 12.5 79.55 12.3 78.85 12.1 78.45 11.4 78.2 10.95 78.2 10.3 78.2 9.65 78.5 9.1 79.05 8.3 80.05 8.3 80.35 8.3 80.3 8.1 81.05 8.2 81.65 8.7 82.25 9.25 82.35 10 Z"/>
</g>

<g id="octo_tenticle_0_Layer0_0_FILL">
<path fill="#000000" stroke="none" d="
M 111.85 19.55
Q 112.8 13.9 112 9.9 110.85 4.45 107 1.85 102.15 -1.35 93.35 0.95 85.05 3.15 77.5 8.1 70.2 12.9 64.45 19.7 63.4 20.9 59.4 26.05 56.35 30 54.15 32.2 45.4 41.05 29.35 46.2 24.1 47.85 15.45 49.95 4.45 52.55 1.5 53.35 0.35 53.65 0.1 54.2 -0.4 55.25 1.3 56.4 5.9 59.35 14.35 60.45 21.35 61.5 33.7 62.15 43.45 62.7 48.65 62.4 56.9 61.9 63 59.4 68.55 57.15 76.65 51 86.15 43.75 89.8 41.7 96.7 38.4 100 36.6 105.75 33.4 108.4 29.5 110.9 25.75 111.85 19.55
M 102.8 4.35
Q 104.6 4.95 105.95 6.55 106.45 7.2 106.85 7.9 107.4 8.9 107.7 10.1 108.2 11.95 108.05 15 108 16.35 107.8 17.95 107.45 20.5 107.1 21.9 106.6 24.05 105.65 25.6 103.85 28.55 99.75 30.65 98.55 31.25 92.2 33.75 86.6 36 81.45 39.25 77.35 41.9 69.55 47.85 62.4 52.85 56.7 54.45 52.5 55.6 45.05 55.8 38.8 56 32.65 56
L 32.6 56
Q 25.85 55.95 19.15 55.65 31.3 53.15 40 49.25 47.5 45.85 53 41.2 55.35 39.2 57.35 36.95 58.9 35.2 60.8 32.65 62.95 29.65 64 28.15 67.35 23.5 70.6 19.75 74.5 15.25 78.3 12 85.848046875 5.5986328125 93.9 3 94.012109375 2.9607421875 94.1 2.9 94.2314453125 2.88671875 94.35 2.85 94.50546875 2.7935546875 94.65 2.75
L 96.95 2.1
Q 97.05 2.1 97.2 2.05 97.8 3.15 99.65 3.6 100.7 3.9 102.8 4.35 Z"/>

<path fill="#CBF5FC" stroke="none" d="
M 73.45 23.4
Q 76.45 18.95 78.4 17.25 79.2 16.6 79.6 16.25 80.25 15.6 80.6 15.05 81.1 14.2 81.1 13.45 78.8 13.8 77.15 14.95 76.25 15.6 74.6 17.15 74 17.6 72.5 18.5 71.3 19.25 70.6 19.75 67.35 23.5 64 28.15 62.95 29.65 60.8 32.65 58.9 35.2 57.35 36.95 55.35 39.2 53 41.2 56.9 40.4 58.5 39.7 61.65 38.4 64.85 35 67.65 32.05 71.95 25.6
L 73.45 23.4 Z"/>

<path fill="#66CCFF" stroke="none" d="
M 87.15 17.05
Q 88.55 16.45 89.9 16.85 90.45 17.05 90.9 17.35 90.9 17 90.95 16.6 91.8 9.65 93.9 3 85.848046875 5.5986328125 78.3 12 74.5 15.25 70.6 19.75 71.3 19.25 72.5 18.5 74 17.6 74.6 17.15 76.25 15.6 77.15 14.95 78.8 13.8 81.1 13.45 81.1 14.2 80.6 15.05 80.25 15.6 79.6 16.25 79.2 16.6 78.4 17.25 76.45 18.95 73.45 23.4
L 71.95 25.6
Q 67.65 32.05 64.85 35 61.65 38.4 58.5 39.7 56.9 40.4 53 41.2 47.5 45.85 40 49.25 31.3 53.15 19.15 55.65 25.85 55.95 32.6 56
L 32.65 56
Q 33.8 55.7 35 55.4 40.6 53.95 50.75 50 57.45 47.45 61.1 45.7 66.65 43.05 70.6 39.95 73.15 37.95 78.15 32.8 82.85 27.95 85.8 25.8 86.4 25.4 86.85 25.1 86.65 24.95 86.45 24.85 85.3 24.1 84.9 22.9 84.6 22.1 84.6 21.2 84.6 19.8 85.1 18.9 85.75 17.65 87.15 17.05
M 81.35 19.75
Q 82.2 19.75 82.85 20.4 83.45 21.05 83.35 21.95 83.35 23.2 82.35 23.85 81.25 24.55 80.2 23.75 79.8 23.4 79.55 22.85 79.2 22 79.45 21.15 79.7 20.55 80.2 20.15 80.75 19.75 81.35 19.75 Z"/>

<path fill="#2D4AF5" stroke="none" d="
M 82.85 20.4
Q 82.2 19.75 81.35 19.75 80.75 19.75 80.2 20.15 79.7 20.55 79.45 21.15 79.2 22 79.55 22.85 79.8 23.4 80.2 23.75 81.25 24.55 82.35 23.85 83.35 23.2 83.35 21.95 83.45 21.05 82.85 20.4
M 105.95 6.55
Q 104.6 4.95 102.8 4.35 100.7 3.9 99.65 3.6 97.8 3.15 97.2 2.05 97.05 2.1 96.95 2.1
L 94.65 2.75
Q 94.50546875 2.7935546875 94.35 2.85 94.2314453125 2.88671875 94.1 2.9 94.012109375 2.9607421875 93.9 3 91.8 9.65 90.95 16.6 90.9 17 90.9 17.35 90.45 17.05 89.9 16.85 88.55 16.45 87.15 17.05 85.75 17.65 85.1 18.9 84.6 19.8 84.6 21.2 84.6 22.1 84.9 22.9 85.3 24.1 86.45 24.85 86.65 24.95 86.85 25.1 86.4 25.4 85.8 25.8 82.85 27.95 78.15 32.8 73.15 37.95 70.6 39.95 66.65 43.05 61.1 45.7 57.45 47.45 50.75 50 40.6 53.95 35 55.4 33.8 55.7 32.65 56 38.8 56 45.05 55.8 52.5 55.6 56.7 54.45 62.4 52.85 69.55 47.85 77.35 41.9 81.45 39.25 86.6 36 92.2 33.75 98.55 31.25 99.75 30.65 103.85 28.55 105.65 25.6 106.6 24.05 107.1 21.9 107.45 20.5 107.8 17.95 108 16.35 108.05 15 108.2 11.95 107.7 10.1 107.4 8.9 106.85 7.9 106.45 7.2 105.95 6.55 Z"/>
</g>

<g id="octo_death_4_Layer4_0_FILL">
<path fill="#000000" stroke="none" d="
M 132.3 132.25
Q 133.2 132.5 134.05 132.8 138.4 130.15 142.65 127.8 141.2 126.95 139.4 126.1 130.3 122.15 116.65 120.65 113.9 120.45 111.4 120.3 106.05 122.85 99.7 123.4 90 124.2 81.85 119.9 81.6 122.05 83.3 124.3 83.7 124.8 84.85 126.05 89.75 126.55 108.15 128.05 123.1 129.3 132.3 132.25
M 72.15 115.3
Q 72 115.25 71.95 115.25 72.05 115.5 72.1 115.75 72.1 115.5 72.15 115.3
M 87.4 -0.1
Q 97.15 -4.95 105.2 -7.35 116.85 -10.85 130.75 -11.15 149.65 -11.75 168 -6.75 186.35 -1.75 201.6 8.25 208.2 12.55 213.35 17.3 220.3 23.95 224.6 32.25 229 40.6 230.25 49.55 231.55 58.55 229.55 67.6 227.7 76.05 223.3 83.55 222.45 87.35 220.45 91.65 218.75 95.25 214.8 101.75
L 229.2 90.7
Q 236 79.85 238.35 67.5 241.45 51.75 236.45 37.45 233.15 28.1 226.5 19.6 220.1 11.5 211.35 4.85 195.2 -7.25 171.8 -13.85 152.9 -19.1 134.45 -19.2 114.6 -19.25 97.65 -13.3 87.45 -9.7 74.3 -2.15 65.8 2.65 61.6 6.35 55.65 11.6 49.5 21.6 31.4 51.1 31.7 79.15 31.8 88.5 34.25 94.95 36.75 101.45 41.95 107.05 46.95 112.4 53.8 116.45 59 119.4 65.15 121.55 63.5 119.55 61.95 117.4 58.7 113 57.3 109.05 53.25 106.5 50.05 103.4 44.45 98 42.2 91.55 40.25 86.1 40.5 77.3 40.95 63.85 45.3 50.35 45.3 50.3 45.35 50.25 45.4 50.05 45.45 49.75 49.5 37.6 56.6 26.15 57.2 25.1 57.85 24.1 63.1 15.85 68.2 11.55 72.55 7.85 80.75 3.4 80.85 3.4 80.9 3.35
L 80.95 3.3
Q 81.85 2.75 82.85 2.3
L 87.4 -0.1 Z"/>

<path fill="#2D4AF5" stroke="none" d="
M 142.7 112.4
L 142.65 112.4
Q 134.8 116.3 129.85 117.55 122.35 119.45 116.75 117 114.2 118.95 111.4 120.3 113.9 120.45 116.65 120.65 130.3 122.15 139.4 126.1 141.2 126.95 142.65 127.8 144.05 127 145.45 126.25 142.6 123.7 141.85 119.75 141.05 115.8 142.7 112.4
M 132.25 81.75
Q 132.5 80.7 132.3 79.65 131.75 77.95 130.1 77 128.6 76.25 126.75 76.6 125 76.95 123.9 78.25 123 79.25 123.1 80.65 123.2 80.7 123.35 80.7 127.4 81.4 132.25 81.75
M 118.3 93.75
Q 118.7 94.1 119.35 94.4 120.55 95.1 122.2 94.85 123.7 94.55 124.55 93.45 124.65 93.35 124.75 93.25 121.05 93.5 118.3 93.75
M 89.65 96.95
Q 86.95 96.1 84.6 95.15 77.1 96.1 71.5 98.35 66.6 100.25 65.9 103.35 65.25 106 68.05 109.6 71.15 113.55 71.95 115.25 72 115.25 72.15 115.3 72.4 113.05 74.65 111.5 76.9 109.85 79.7 109.95 81.9 110 84.85 110.95 86.55 111.55 89.9 112.8 95.7 114.65 101.35 113.75 107.55 112.8 111.2 108.75 112.4 107.5 114.85 104.6 117.1 102.5 119.35 102.95 121.2 103.35 122.35 105.4 123.3 107.05 123.45 109.4 126.25 108.65 129.05 107.8 128.65 107.7 128.25 107.6 128.9 106.5 129.15 105.3 129.6 102.6 128.55 100.15 127.35 97.5 124.85 96.45 122.4 95.45 119.45 96.1 115.1 97.05 113.15 100.65 112.4 101.85 112.35 103.25
L 101.3 100.25
Q 93.75 98.25 89.65 96.95
M 97.9 67.8
Q 97.6 66.4 96.25 65.65 94.9 64.9 93.4 65.35 91.85 65.85 91.3 67.1 90.75 68.3 91.25 69.6 91.3 69.95 91.8 70.65 92.5 71.45 93.8 71.7 95.05 71.9 96.05 71.35 97.15 70.9 97.65 69.85 98.15 68.85 97.9 67.8
M 97.75 44.5
Q 98.15 44.85 98.75 44.95 99.25 45.1 99.75 45.15 98.7 44.8 97.75 44.5
M 90.75 45.85
Q 89.9 47 90.65 48.15 91.5 49.4 93.05 49.2 93.9 49 94.45 48.35 95.05 47.75 95 47 94.95 46.25 94.25 45.65 93.6 45.05 92.7 45 92.55 45.1 92.25 45.1
L 91.55 45.25
Q 91.25 45.45 90.75 45.85
M 84.35 42.9
Q 84.65 42.5 84.75 42 82.25 41.9 79.8 42.05 81.25 42.8 82.35 44.1 82.6 44.05 82.85 44 83.75 43.7 84.35 42.9
M 127.05 25.85
Q 126.95 25.9 126.6 25.9 126.05 25.9 125.55 26.2 124.65 26.6 124.15 27.6 123.8 28.4 124.05 29.25 124.4 30.1 125.1 30.65 125.8 31.25 126.85 31.3 127.9 31.3 128.65 30.8 129.5 30.35 129.85 29.45 130.2 28.6 129.9 27.8 129.6 27 128.85 26.4 128 25.85 127.05 25.85
M 134.95 32.2
Q 134.75 31.9 134.65 31.85 134.35 31.45 133.25 31.25
L 132.95 31.35
Q 132.3 31.35 131.75 31.75 131.25 32.2 131.15 32.8
L 131.25 33.4
Q 131.4 34 131.7 34.35 131.85 34.55 132.65 34.75
L 133.35 34.9
Q 134.05 34.9 134.6 34.4 135.2 33.85 135.2 33.15 135.3 32.85 135.1 32.6 135.1 32.5 134.95 32.2
M 131.15 20.3
Q 130.3 21.7 130.7 23.3 130.9 24.85 132.15 26 133.4 27.05 135.2 27.3 137 27.55 138.5 26.85 140.05 26.1 140.8 24.65 140.85 24.6 140.9 24.55 140.2 23.65 139.65 22.95 137.25 20.05 134.75 17.85 134.1 18 133.45 18.3 131.85 19.05 131.15 20.3
M 80.1 77.15
Q 78.65 76.1 77.4 74.9 76.35 73.85 75.6 72.75 75.65 74.25 76.85 75.5 78.15 76.9 79.95 77.15 80.05 77.15 80.1 77.15
M 71.5 58.5
Q 70.95 57 71.35 54.4 70.25 54.55 69.3 55.25 68.15 56.05 67.8 57.2 67.2 59.35 69 60.9 70 61.8 71.45 61.95 72.5 62.05 73.4 61.75 73.15 61.15 72.6 60.4 71.75 59.1 71.5 58.5
M 92.95 85.1
Q 92.2 84.4 91.3 84 88.6 82.95 86.1 84.25 85 84.85 84.35 85.7 84.45 85.65 84.6 85.65 87.95 85.25 92.95 85.1
M 92.5 32.6
Q 92.75 31.15 91.75 30.3 90.8 29.25 89.3 29.25
L 88.3 29.35
Q 87.25 29.65 86.5 30.65 85.85 31.6 86.05 32.65 86.05 32.7 86.05 32.75 86.6 32.8 87.15 32.9 89.6 33.25 92.1 33.75 92.45 33.2 92.5 32.6
M 94.95 32.1
Q 93.75 32.9 93.2 33.95 98.55 35 103.9 36.4 103.9 36.25 103.9 36.15 103.95 34.45 102.65 33 101.3 31.55 99.4 31.25 97 30.75 94.95 32.1
M 100.45 22.1
Q 100.2 20.85 100.15 19.6 99.9 20.05 99.8 20.7 99.8 21.6 100 22 100.15 22.45 100.6 22.9 100.5 22.45 100.45 22.1
M 81.2 20.2
Q 82.25 19.1 82.6 18 83.1 16.65 82.15 16 81.35 15.4 79.35 15.75 66.6 18.45 56.6 26.15 49.5 37.6 45.45 49.75 45.4 50.05 45.35 50.25 45.3 50.3 45.3 50.35 40.95 63.85 40.5 77.3 40.25 86.1 42.2 91.55 44.45 98 50.05 103.4 53.25 106.5 57.3 109.05 57.15 108.6 57.05 108.25 55.35 102.8 57.3 98.5 59.4 93.85 66.3 90.45 73.5 87 83.3 85.8 83.1 83 80.95 80.55 78.25 77.3 74.45 77.05 71.85 76.95 69.75 78.1 67.7 79.25 66.35 81.4 66.05 82 65.8 82.55 63.65 79.9 62.35 77 61.65 75.35 61.15 73.55 62.1 73.75 63.1 73.65 65.25 73.55 66.75 72.35 68.2 71.15 68.45 69.2 68.7 67.35 67.55 65.9 66.45 64.55 64.9 64.05 63.35 63.45 61.6 63.75 60.85 63.85 60.25 64.05 60.55 60.05 61.6 55.5 63 49.45 65.55 43.65 65.85 44.45 66.5 45.1 68.2 46.8 71.05 47 71.2 47 71.4 47 71.25 46.65 71.15 46.35 70.4 44.5 70.25 43.8 69.65 41.5 70.3 39.15 71 36.75 72.75 35.15 73.25 34.7 73.75 34.4 73.05 34.15 72.25 34 71.35 33.9 70.5 33.95 75.05 26.6 81.2 20.2
M 88.95 -0.8
Q 88.2 -0.45 87.4 -0.1
L 82.85 2.3
Q 81.85 2.75 80.95 3.3
L 80.9 3.35
Q 80.85 3.4 80.75 3.4 80.75 3.6 80.85 3.8 81.15 5.6 82.9 6.75 84.7 7.95 86.7 7.7 88.7 7.45 90.1 5.9 91.45 4.35 91.25 2.55 91.05 1.15 90.1 0.15 89.55 -0.45 88.95 -0.8
M 95.05 11.1
Q 94.35 10.25 93.25 10.25
L 92.85 10.35
Q 91.55 10.5 91.05 11.55 90.65 12.1 90.8 12.85 90.9 13.7 91.55 14.1 92.7 15.05 94.1 14.55 95.55 14.1 95.7 12.7 95.7 11.65 95.05 11.1
M 111.35 -0.4
Q 111.25 -1.15 110.6 -1.6 110 -2.1 109.15 -2.1 109.1 -2.05 108.4 -1.95 107.5 -1.85 107.05 -1 106.75 -0.35 106.95 0.7
L 107.2 1.45
Q 107.6 1.9 108.2 2.2 109.7 2.7 110.55 1.95 111 1.55 111.3 0.75 111.4 -0.05 111.35 -0.4 Z"/>

<path fill="#66CCFF" stroke="none" d="
M 142.7 112.4
L 142.7 112.35
Q 142.65 112.35 142.65 112.4
L 142.7 112.4
M 90.75 94.6
Q 87.5 94.75 84.6 95.15 86.95 96.1 89.65 96.95 93.75 98.25 101.3 100.25
L 112.35 103.25
Q 112.4 101.85 113.15 100.65 115.1 97.05 119.45 96.1 122.4 95.45 124.85 96.45 127.35 97.5 128.55 100.15 129.6 102.6 129.15 105.3 128.9 106.5 128.25 107.6 128.65 107.7 129.05 107.8 139.95 104.4 150.3 98.8 152.5 97.6 153.7 97.1 155.35 96.45 156.8 96.3 156.5 96.15 156.15 96.05 153.2 95.05 152.1 94.25 152.5 94.05 152.9 93.8 152.45 93.8 152.1 93.75 152.75 92.6 154.45 92.1 154 92.1 153.45 92.05 145.1 91.6 132.05 92.65 128.05 93 124.75 93.25 124.65 93.35 124.55 93.45 123.7 94.55 122.2 94.85 120.55 95.1 119.35 94.4 118.7 94.1 118.3 93.75 112.5 94.1 110.6 94.15 97.3 94.2 90.75 94.6
M 91.3 84
Q 92.2 84.4 92.95 85.1 97.7 84.95 103.9 84.95 100.7 83.45 94.85 82.15 87.95 80.7 85.55 79.85 82.5 78.85 80.1 77.15 80.05 77.15 79.95 77.15 78.15 76.9 76.85 75.5 75.65 74.25 75.6 72.75 73.65 69.9 73.65 66.7 73.8 65.25 73.8 64.5 73.85 63.2 73.6 62.35 73.55 62.1 73.4 61.75 72.5 62.05 71.45 61.95 70 61.8 69 60.9 67.2 59.35 67.8 57.2 68.15 56.05 69.3 55.25 70.25 54.55 71.35 54.4 71.4 54.05 71.45 53.75 72.1 50.2 71.9 48.85 71.8 48.1 71.4 47 71.2 47 71.05 47 68.2 46.8 66.5 45.1 65.85 44.45 65.55 43.65 63 49.45 61.6 55.5 60.55 60.05 60.25 64.05 60.85 63.85 61.6 63.75 63.35 63.45 64.9 64.05 66.45 64.55 67.55 65.9 68.7 67.35 68.45 69.2 68.2 71.15 66.75 72.35 65.25 73.55 63.1 73.65 62.1 73.75 61.15 73.55 61.65 75.35 62.35 77 63.65 79.9 65.8 82.55 66.05 82 66.35 81.4 67.7 79.25 69.75 78.1 71.85 76.95 74.45 77.05 78.25 77.3 80.95 80.55 83.1 83 83.3 85.8 83.8 85.75 84.35 85.7 85 84.85 86.1 84.25 88.6 82.95 91.3 84
M 87.4 -0.1
Q 88.2 -0.45 88.95 -0.8 89.55 -0.45 90.1 0.15 91.05 1.15 91.25 2.55 91.45 4.35 90.1 5.9 88.7 7.45 86.7 7.7 84.7 7.95 82.9 6.75 81.15 5.6 80.85 3.8 80.75 3.6 80.75 3.4 72.55 7.85 68.2 11.55 63.1 15.85 57.85 24.1 57.2 25.1 56.6 26.15 66.6 18.45 79.35 15.75 81.35 15.4 82.15 16 83.1 16.65 82.6 18 82.25 19.1 81.2 20.2 75.05 26.6 70.5 33.95 71.35 33.9 72.25 34 73.05 34.15 73.75 34.4 76.05 32.8 79.5 32.45 82.2 32.2 86.05 32.75 86.05 32.7 86.05 32.65 85.85 31.6 86.5 30.65 87.25 29.65 88.3 29.35
L 89.3 29.25
Q 90.8 29.25 91.75 30.3 92.75 31.15 92.5 32.6 92.45 33.2 92.1 33.75 92.6 33.85 93.2 33.95 93.75 32.9 94.95 32.1 97 30.75 99.4 31.25 101.3 31.55 102.65 33 103.95 34.45 103.9 36.15 103.9 36.25 103.9 36.4 105.1 36.7 106.4 37.1 101.65 28.8 100.6 22.9 100.15 22.45 100 22 99.8 21.6 99.8 20.7 99.9 20.05 100.15 19.6 100 16.75 100.65 14 101.6 9.75 104.2 6.9 108 2.65 114.7 1.8 120.55 1 126.9 2.9 136.5 5.9 143.5 12.55 142.75 9.65 143.35 6.65 143.95 3.6 145.75 1.3 147.65 -1.05 150.5 -2.25 153.4 -3.4 156.3 -3 158.2 -2.7 161.8 -1.5 163.7 -1.05 166.55 -0.9 168.15 -0.8 171.35 -0.6 177.3 -0.05 182.75 2.8 187.8 5.45 191.45 9.6 196.75 11.7 200.45 13.75 205.9 16.9 211.8 22.2 220.7 30.2 224.15 36.95 229.85 48.55 226.2 65.85 225.2 70.75 223.6 74.95 224.15 77.4 223.8 80.65 223.6 82.05 223.3 83.55 227.7 76.05 229.55 67.6 231.55 58.55 230.25 49.55 229 40.6 224.6 32.25 220.3 23.95 213.35 17.3 208.2 12.55 201.6 8.25 186.35 -1.75 168 -6.75 149.65 -11.75 130.75 -11.15 116.85 -10.85 105.2 -7.35 97.15 -4.95 87.4 -0.1
M 110.6 -1.6
Q 111.25 -1.15 111.35 -0.4 111.4 -0.05 111.3 0.75 111 1.55 110.55 1.95 109.7 2.7 108.2 2.2 107.6 1.9 107.2 1.45
L 106.95 0.7
Q 106.75 -0.35 107.05 -1 107.5 -1.85 108.4 -1.95 109.1 -2.05 109.15 -2.1 110 -2.1 110.6 -1.6
M 93.25 10.25
Q 94.35 10.25 95.05 11.1 95.7 11.65 95.7 12.7 95.55 14.1 94.1 14.55 92.7 15.05 91.55 14.1 90.9 13.7 90.8 12.85 90.65 12.1 91.05 11.55 91.55 10.5 92.85 10.35
L 93.25 10.25 Z"/>

<path fill="#CBF5FC" stroke="none" d="
M 209.25 92.65
Q 211.95 88.1 212.9 85.5 214.45 81.3 213.85 77.8 211.75 79.6 210.55 80.5 210.3 83.65 209.7 86.85 208.9 91.25 207.35 94.6 206.85 95.75 203.65 101.1 201.8 104.05 201.05 106.4
L 209.25 92.65
M 186.35 18.55
Q 186.05 18 185.65 17.5 183.45 14.35 180.25 12.35 183.45 14.95 186.35 18.55
M 211.2 42.25
Q 209.9 39.2 207.75 39 206.4 38.9 204.45 40.3 202.75 41.5 201.15 42.8 202.5 45.3 203.5 47.35 206.85 54.55 208.55 60.8 209.7 58.1 210.65 55.35 213.15 47.45 211.2 42.25
M 224.15 36.95
Q 220.7 30.2 211.8 22.2 205.9 16.9 200.45 13.75 196.75 11.7 191.45 9.6 191.75 9.95 192 10.25 195.85 14.85 197.7 20.65 199.6 26.45 199.1 32.4 202.35 29.2 207.45 29.45 212.4 29.75 215.9 33 219.15 36 220.55 40.75 221.85 45.1 221.35 50.05 220.9 54.1 219.2 59 218.2 61.9 215.7 67.55 217.85 67.5 219.8 68.85 221.6 70.1 222.65 72.15 223.3 73.4 223.6 74.95 225.2 70.75 226.2 65.85 229.85 48.55 224.15 36.95 Z"/>
</g>
</defs>

<g transform="matrix( 0.9928131103515625, 0, 0, 0.9928131103515625, 74.65,54.2) ">
<g transform="matrix( 1, 0, 0, 1, 4.15,-1.5) ">
<g transform="matrix( 1.00506591796875, -0.8856964111328125, 0.52874755859375, 0.6000213623046875, -11.4,289.95) ">
<g transform="matrix( 1, 0, 0, 1, 0,0) ">
<use xlink:href="#octo_tenticle_5_Layer0_0_FILL"/>
</g>
</g>

<g transform="matrix( 0.866729736328125, 0, 0, 1, 32.25,213.1) ">
<g transform="matrix( 1, 0, 0, 1, 0,0) ">
<use xlink:href="#octo_tenticle_0_Layer0_0_FILL"/>
</g>
</g>

<g transform="matrix( -0.868988037109375, 0, 0, 1, 321.7,201.6) ">
<g transform="matrix( 1, 0, 0, 1, 0,0) ">
<use xlink:href="#octo_tenticle_0_Layer0_0_FILL"/>
</g>
</g>

<g transform="matrix( 1, 0, 0, 1, 0,0) ">
<use xlink:href="#octo_death_4_Layer4_0_FILL"/>
</g>
</g>
</g>
</svg>
