
<svg xmlns="http://www.w3.org/2000/svg" version="1.1" xmlns:xlink="http://www.w3.org/1999/xlink" preserveAspectRatio="none" x="0px" y="0px" width="500px" height="350px" viewBox="0 0 500 350">
<defs>
<g id="Octocannon_31_Layer0_0_FILL">
<path fill="#3366CC" stroke="none" d="
M 224.95 95.35
Q 220.5205078125 76.6205078125 205.95 62.05 184.95 41.05 155.2 41.05 132.6771484375 41.05 115.15 53.1 109.5748046875 56.9751953125 104.5 62.05 83.5 83.05 83.5 112.75 83.5 138.6482421875 99.4 157.9 101.7810546875 160.7810546875 104.5 163.5 109.5748046875 168.5748046875 115.15 172.4 132.6771484375 184.5 155.2 184.5 184.95 184.5 205.95 163.5 226.95 142.5 226.95 112.75 226.95 103.6568359375 224.95 95.35
M 217.3 114.95
Q 217.0248046875 121.565234375 215.6 127.7 211.55 145.25 198.2 158.9 179.05 178.55 151.95 178.55 135.3 178.55 121.65 171.15 116.2349609375 168.1734375 111.25 164.05 108.41328125 161.668359375 105.7 158.9 86.55 139.25 86.55 111.45 86.55 83.7 105.7 64.05 113.1 56.5 121.65 51.85 135.3 44.4 151.95 44.4 179.05 44.4 198.2 64.05 217.4 83.7 217.4 111.45 217.4 113.221484375 217.3 114.95 Z"/>

<path fill="#333333" stroke="none" d="
M 217.3 114.95
Q 217.4 113.221484375 217.4 111.45 217.4 83.7 198.2 64.05 179.05 44.4 151.95 44.4 135.3 44.4 121.65 51.85 113.1 56.5 105.7 64.05 86.55 83.7 86.55 111.45 86.55 139.25 105.7 158.9 108.41328125 161.668359375 111.25 164.05 124.6419921875 169.5 139.8 169.5 177.35 169.5 203.9 136.05 206.6451171875 132.5916015625 209.1 128.95 213.7091796875 122.2283203125 217.3 114.95
M 199.55 141.1
Q 202.361328125 103.1873046875 183.2 65.25 220.0853515625 98.390234375 199.55 141.1
M 110.5 68.05
Q 114.55 64 120.2 64 125.9 64 129.95 68.05 134 72.1 134 77.75 134 83.45 129.95 87.5 125.9 91.55 120.2 91.55 114.55 91.55 110.5 87.5 106.45 83.45 106.45 77.75 106.45 72.1 110.5 68.05 Z"/>

<path fill="#FFFFFF" stroke="none" d="
M 120.2 64
Q 114.55 64 110.5 68.05 106.45 72.1 106.45 77.75 106.45 83.45 110.5 87.5 114.55 91.55 120.2 91.55 125.9 91.55 129.95 87.5 134 83.45 134 77.75 134 72.1 129.95 68.05 125.9 64 120.2 64
M 183.2 65.25
Q 202.361328125 103.1873046875 199.55 141.1 220.0853515625 98.390234375 183.2 65.25 Z"/>

<path fill="#003366" stroke="none" d="
M 215.6 127.7
Q 217.0248046875 121.565234375 217.3 114.95 213.7091796875 122.2283203125 209.1 128.95 206.6451171875 132.5916015625 203.9 136.05 177.35 169.5 139.8 169.5 124.6419921875 169.5 111.25 164.05 116.2349609375 168.1734375 121.65 171.15 135.3 178.55 151.95 178.55 179.05 178.55 198.2 158.9 211.55 145.25 215.6 127.7 Z"/>
</g>
</defs>

<g transform="matrix( 0.9928131103515625, 0, 0, 0.9928131103515625, 74.65,54.2) ">
<g transform="matrix( 1, 0, 0, 1, 0,0) ">
<use xlink:href="#Octocannon_31_Layer0_0_FILL"/>
</g>
</g>
</svg>
