
<svg xmlns="http://www.w3.org/2000/svg" version="1.1" xmlns:xlink="http://www.w3.org/1999/xlink" preserveAspectRatio="none" x="0px" y="0px" width="500px" height="350px" viewBox="0 0 500 350">
<defs>
<g id="spill_0_Layer0_0_FILL">
<path fill="#3366CC" stroke="none" d="
M 208.3 9.55
Q 208.3 9.390625 208.25 9.2 208.1083984375 7.3361328125 205.75 5.95 203.25 4.45 199.65 4.45 199.65 6.55 202.15 8.05 203.363671875 8.7560546875 204.8 9.1 204.3953125 9.0541015625 204 8.95 185.75 5.4 167.55 2.9 146.25 -0.25 124.9 0.4 102.45 1.05 80.5 5.65 62.3 9.5 52.85 24.8 52 26.2 52.35 27.95 53.3 33.15 57.25 36.35 55.35 19.6 71.85 14.35 89.65 8.75 108.4 7.2 125.25 5.5 142.25 4.7 158.75 4.25 175.1 7.55 190.9 10.6 207.05 12.25 221.8 13.65 236.5 11.75 223.1390625 7.502734375 209.15 9.1
L 208.3 9.55
M 256.4 19.05
Q 261.65 21.7 266.9 24.3 287.6 34.55 310.45 35.55
L 256.4 19.05
M 334.65 87.95
Q 334.6 87.3 334.55 86.7 329.85 95.3 321 99.55 310 104.75 298.8 109.5 288.4 114.05 278.1 118.95 257.8 128.8 235.3 131.55 212.5 134.35 191.3 126.45 178.95 121.9 166 120.9 162.5 120.45 159.15 121.2 142.15 125.3 124.85 128.55 101.15 132.95 79.3 123.15 72.3 120 64.8 118.45 51.25 115.85 38.7 110.35 28.75 105.95 22 97.65 15.85 90.05 6.55 86.75
L 20 111.7
Q 31.5 125.15 49.25 126.5 57.8 127.35 66.2 130.3 85.25 137.2 104.9 142.2 107.45 142.95 110.2 143.3 133.15 143.75 153.5 132.85 155.65 131.65 158.1 131.05 179.75 125.95 200.45 134.4 216.3 140.8 233.45 139 255.6 136.9 277 130.2 296.2 124.15 312.85 113 315.3 111.4 318.1 110.5 324.1 108.9 328.65 105.1 329.4 104.15 330.15 103.25 335.4 96.55 334.65 87.95
M 28.65 32.75
L 28.65 32.8 28.65 32.8 28.65 32.75
M 20 41.15
L 18.55 38.9
Q 18.45 49.15 28.45 49.05 38.2 48.35 45.7 42.15 33 47.3 20.5 41.4 20.25 41.25 20 41.15
M 180.3 141.1
Q 178.95 141.4 177.6 141.7 168.7 143.65 160.1 140.45
L 158.25 137.25 154.3 141.05
Q 155.55 142.15 156.9 143.25 167.6 152 179.4 144.85
L 180.3 141.1
M 315.05 33.45
L 314.4 34.9 324.05 37.1 323.65 29.65 315.05 33.45
M 286.95 2
L 291.15 5.75 298.3 11.05 301.8 17
Q 301.2 17.2 300.6 17.4 279.5 21.8 260.2 12.4
L 257.7 11.1 257.9 14.05 269.15 22.45
Q 285.45 28.55 302.95 28.4 303.1 28.4 303.25 28.4
L 308.6 25.55
Q 309.45 11.95 296.95 6.35 291.95 4.15 286.95 2 Z"/>

<path fill="#333333" stroke="none" d="
M 208.25 9.2
Q 208.3 9.390625 208.3 9.55
L 209.15 9.1 213.9 6.75
Q 211.1 1 204.65 2.4 201.9 3.05 199.65 4.45 203.25 4.45 205.75 5.95 208.1083984375 7.3361328125 208.25 9.2
M 325.85 83.65
L 324.6 65.45
Q 311.2 46.75 288.5 41.85 284.75 41 281.3 38.9 277.9 36.95 274.6 34.8 253.75 28.1 233 20.1 232.3 19.85 231.55 19.9 210.35 22.8 189.55 17.55 168.5 12.3 146.75 12.35 125 12.4 103.4 15.5 84.8 18.45 67.3 25.8 81.5 31.7 80.35 47 80.15 49.45 78.6 51.45 69.3 63.1 54.35 61.75 40.15 60.35 26.95 65.9 14.6 71.15 16.15 84.3 16.8 89.85 20.75 93.95 23.05 96.25 26.1 97.3 47.8 104.4 69.9 110.5 83.75 114.35 97.1 119.8 102.7 122.1 108.7 122.75 124.5 124.6 139.4 119.4 145.4 110.15 156.2 111.85 179.7 115.9 203.35 119.45 220.6 122.15 237.75 122.2 257.4 120.8 274.8 111.3 283.55 106.5 292.15 101.75 299.45 97.7 307.15 94.25 317 89.8 325.85 83.65
M 29.8 32.3
Q 29.2 32.5 28.65 32.75
L 28.65 32.8
Q 29 37.75 25 40.5 24.4 40.9 23.85 41.35 36.8 44.1 47.75 36.6 40.15 29.05 29.8 32.3
M 177.6 141.7
Q 178.95 141.4 180.3 141.1 175.1 131.95 165 135.55 163 136.25 161.05 137
L 160.95 135.7 158.25 137.25 160.1 140.45
Q 168.7 143.65 177.6 141.7
M 314.4 34.9
L 315.05 33.45 323.65 29.65 316 25.25 309.85 27.25 310.05 28.6 309.1 30.2 312.05 34.35 314.4 34.9
M 257.9 14.05
L 256.35 15.4 269.15 22.45 257.9 14.05
M 307 27.55
Q 308.6 26.75 308.6 25.55
L 303.25 28.4
Q 305.45 28.4 307 27.55
M 297.5 11.45
Q 297.95 11.3 298.3 11.05
L 291.15 5.75 263.85 10.15
Q 280.55 16.9 297.5 11.45 Z"/>

<path fill="#484848" stroke="none" d="
M 320.75 40.35
L 310.45 35.55
Q 287.6 34.55 266.9 24.3 261.65 21.7 256.4 19.05
L 236.5 11.75
Q 221.8 13.65 207.05 12.25 190.9 10.6 175.1 7.55 158.75 4.25 142.25 4.7 125.25 5.5 108.4 7.2 89.65 8.75 71.85 14.35 55.35 19.6 57.25 36.35
L 61.35 41.25
Q 58.2 51.1 46.95 50.8 44.15 50.75 41.35 51.05 27.55 56.8 14 63.1 9.75 65.1 9.35 70.05 28.25 62.1 48.25 57.9 55.7 56.2 63.15 54.8 74.75 52.75 74.05 41.05
L 62.3 28.6 67.3 25.8
Q 84.8 18.45 103.4 15.5 125 12.4 146.75 12.35 168.5 12.3 189.55 17.55 210.35 22.8 231.55 19.9 232.3 19.85 233 20.1 253.75 28.1 274.6 34.8
L 320.75 40.35
M 291.15 5.75
L 286.95 2
Q 269.3 -1.8 252.7 5.1 252.45 5.25 252.25 5.45 252.05 6 252 6.55 251.8 7.9 251.95 9.25 252.05 10.4 252.55 11.45 253.7 14.1 256.35 15.4
L 257.9 14.05 257.7 11.1 260.2 12.4 263.85 10.15 291.15 5.75 Z"/>

<path fill="#003366" stroke="none" d="
M 324.6 65.45
L 325.85 83.65
Q 317 89.8 307.15 94.25 299.45 97.7 292.15 101.75 283.55 106.5 274.8 111.3 257.4 120.8 237.75 122.2 220.6 122.15 203.35 119.45 179.7 115.9 156.2 111.85 145.4 110.15 139.4 119.4 124.5 124.6 108.7 122.75 102.7 122.1 97.1 119.8 83.75 114.35 69.9 110.5 47.8 104.4 26.1 97.3 23.05 96.25 20.75 93.95 16.8 89.85 16.15 84.3 14.6 71.15 26.95 65.9 40.15 60.35 54.35 61.75 69.3 63.1 78.6 51.45 80.15 49.45 80.35 47 81.5 31.7 67.3 25.8
L 62.3 28.6 74.05 41.05
Q 74.75 52.75 63.15 54.8 55.7 56.2 48.25 57.9 28.25 62.1 9.35 70.05 9.75 65.1 14 63.1 27.55 56.8 41.35 51.05 17.1 51.35 2.3 70.4 -0.6 74.05 0.5 78.7 5.2 98.1 20 111.7
L 6.55 86.75
Q 15.85 90.05 22 97.65 28.75 105.95 38.7 110.35 51.25 115.85 64.8 118.45 72.3 120 79.3 123.15 101.15 132.95 124.85 128.55 142.15 125.3 159.15 121.2 162.5 120.45 166 120.9 178.95 121.9 191.3 126.45 212.5 134.35 235.3 131.55 257.8 128.8 278.1 118.95 288.4 114.05 298.8 109.5 310 104.75 321 99.55 329.85 95.3 334.55 86.7 334.6 87.3 334.65 87.95 335.4 96.55 330.15 103.25 329.4 104.15 328.65 105.1 343.25 93.35 338.95 75.1 334.35 55.35 320.75 40.35
L 274.6 34.8
Q 277.9 36.95 281.3 38.9 284.75 41 288.5 41.85 311.2 46.75 324.6 65.45
M 45.7 42.15
Q 47.05 42.45 49.3 41.95 51.55 41.45 52.4 40.35 53.25 39.25 52.15 38.2 51.1 37.15 47.75 36.6 36.8 44.1 23.85 41.35 24.4 40.9 25 40.5 29 37.75 28.65 32.8
L 28.65 32.8 28.65 32.75 18.55 38.9 20 41.15
Q 20.25 41.25 20.5 41.4 33 47.3 45.7 42.15
M 298.3 11.05
Q 297.95 11.3 297.5 11.45 280.55 16.9 263.85 10.15
L 260.2 12.4
Q 279.5 21.8 300.6 17.4 301.2 17.2 301.8 17
L 298.3 11.05 Z"/>
</g>
</defs>

<g transform="matrix( 0.9928131103515625, 0, 0, 0.9928131103515625, 74.65,54.2) ">
<g transform="matrix( 1, 0, 0, 1, -8.85,99) ">
<g transform="matrix( 1, 0, 0, 1, 0,0) ">
<use xlink:href="#spill_0_Layer0_0_FILL"/>
</g>
</g>
</g>
</svg>
