
<svg xmlns="http://www.w3.org/2000/svg" version="1.1" xmlns:xlink="http://www.w3.org/1999/xlink" preserveAspectRatio="none" x="0px" y="0px" width="1000px" height="1000px" viewBox="0 0 1000 1000">
<defs>
<g id="Lightning_Strike_6_Layer0_0_FILL">
<path fill="#FFFFFF" stroke="none" d="
M 29.2 25.65
L 37.05 12.9 17.5 29.15 52.45 49.4 31.35 86.65 61.35 95.1 10.15 130.75 38.35 163.45 28.65 166.3 43.5 191.35
Q 39 208.85 2.35 233.9
L 18.6 251.05 -14.6 282.2 33.85 359.85 22.65 348.05 32 366.4 11.7 351.1 -30.3 347.15 -10.1 360.05 28.7 375.3 -12.9 380.75 33.6 384.25 20.35 395.3 44.3 386.65 49.9 390.85 50.55 383.9 70.6 382.3 54.2 372.35 66.55 360.6 50.65 362.5 63.7 341.45 69.2 297.8 44.85 358.75 48.95 335.1 41.35 353.25
Q 27.05 305.75 45.1 322.25
L 1.4 280.4 23.3 270.8 17.05 261.4 44.3 246.4 19.65 234.7 42.95 203.65 42.25 210.9 55.15 194.8 37.55 170.55 71.75 154.8 28.05 131.3 86.25 84.05 53.7 83.95
Q 51.95 59.75 103.6 58.95
L 29.2 25.65 Z"/>
</g>
</defs>

<g transform="matrix( 0.5844268798828125, 0, 0, 0.5844268798828125, 422.65,249.95) ">
<g transform="matrix( 0, -1.527679443359375, 0.95428466796875, 0, -9.95,296.7) ">
<g transform="matrix( 1, 0, 0, 1, 0,0) ">
<use xlink:href="#Lightning_Strike_6_Layer0_0_FILL"/>
</g>
</g>
</g>
</svg>
