
<svg xmlns="http://www.w3.org/2000/svg" version="1.1" xmlns:xlink="http://www.w3.org/1999/xlink" preserveAspectRatio="none" x="0px" y="0px" width="1000px" height="1000px" viewBox="0 0 1000 1000">
<defs>
<g id="Lightning_Strike_4_Layer0_0_FILL">
<path fill="#FFFFFF" stroke="none" d="
M 12.75 55.9
Q 50.27734375 61.6005859375 41.9 91.65
L 8.3 108.4 44.25 123.4 31.35 135.15 39.6 161.65 2.8 220.05 41.5 228.4 32.75 219.15 65.95 228.75 24 244.35 31.85 255.4 28.65 260.9 59.35 281.3 28.3 315.35
Q 52.4578125 307.590234375 38.8 355.1
L 30.95 336.95 35.3 360.6 10.2 299.6 16.3 343.3 29.6 364.35 13.7 362.4 26.2 374.2 9.85 384.1 29.95 385.7 30.7 392.65 36.25 388.45 60.3 397.1 46.9 386.1 93.35 382.55 51.75 377.1 90.3 361.85 110.35 348.95 68.35 352.95 48.3 368.2 57.35 349.9 46.35 361.7 87.6 279.2 41.3 253.85 100.4 238.7
Q 39.2384765625 210.7240234375 22.35 212.75
L 58.8 147.65 37.35 136.9 61.8 120.9 22.8 103.85 74.45 90.45 38.3 50.3 64.4 33.9 38.6 14.7 50.3 32.4 12.75 55.9 Z"/>
</g>
</defs>

<g transform="matrix( 0.5844268798828125, 0, 0, 0.5844268798828125, 422.65,249.95) ">
<g transform="matrix( 0, -1.527679443359375, 0.95428466796875, 0, -9.95,296.7) ">
<g transform="matrix( 1, 0, 0, 1, 0,0) ">
<use xlink:href="#Lightning_Strike_4_Layer0_0_FILL"/>
</g>
</g>
</g>
</svg>
