
<svg xmlns="http://www.w3.org/2000/svg" version="1.1" xmlns:xlink="http://www.w3.org/1999/xlink" preserveAspectRatio="none" x="0px" y="0px" width="300px" height="300px" viewBox="0 0 300 300">
<defs>
<g id="E_ball_1_Layer0_0_FILL">
<path fill="#7F00FF" stroke="none" d="
M 149.2 76.2
Q 149.2 45.95 127.85 24.55 106.45 3.2 76.2 3.2 45.95 3.2 24.55 24.55 3.2 45.95 3.2 76.2 3.2 106.45 24.55 127.85 45.95 149.2 76.2 149.2 106.45 149.2 127.85 127.85 149.2 106.45 149.2 76.2
M 124.5 27.9
Q 144.5 47.95 144.5 76.2 144.5 104.55 124.5 124.5 104.5 144.5 76.2 144.5 47.9 144.5 27.9 124.5 7.9 104.55 7.9 76.2 7.9 47.95 27.9 27.9 47.9 7.9 76.2 7.9 104.5 7.9 124.5 27.9 Z"/>

<path fill="#972EFC" stroke="none" d="
M 144.5 76.2
Q 144.5 47.95 124.5 27.9 104.5 7.9 76.2 7.9 47.9 7.9 27.9 27.9 7.9 47.95 7.9 76.2 7.9 104.55 27.9 124.5 47.9 144.5 76.2 144.5 104.5 144.5 124.5 124.5 144.5 104.55 144.5 76.2
M 115.55 37
Q 131.85 53.35 131.85 76.45 131.85 99.6 115.55 115.85 99.2 132.2 76.1 132.2 52.95 132.2 36.7 115.85 20.35 99.6 20.35 76.45 20.35 53.35 36.7 37 52.95 20.7 76.1 20.7 99.2 20.7 115.55 37 Z"/>

<path fill="#BA4AFF" stroke="none" d="
M 131.85 76.45
Q 131.85 53.35 115.55 37 99.2 20.7 76.1 20.7 52.95 20.7 36.7 37 20.35 53.35 20.35 76.45 20.35 99.6 36.7 115.85 52.95 132.2 76.1 132.2 99.2 132.2 115.55 115.85 131.85 99.6 131.85 76.45
M 105.55 47
Q 117.7 59.1 117.7 76.25 117.7 93.45 105.55 105.55 93.45 117.7 76.3 117.7 59.1 117.7 47 105.55 34.85 93.45 34.85 76.25 34.85 59.1 47 47 59.1 34.85 76.3 34.85 93.45 34.85 105.55 47 Z"/>

<path fill="#DE66FF" stroke="none" d="
M 117.7 76.25
Q 117.7 59.1 105.55 47 93.45 34.85 76.3 34.85 59.1 34.85 47 47 34.85 59.1 34.85 76.25 34.85 93.45 47 105.55 59.1 117.7 76.3 117.7 93.45 117.7 105.55 105.55 117.7 93.45 117.7 76.25
M 102.7 49.85
Q 113.65 60.8 113.65 76.3 113.65 91.75 102.7 102.65 91.75 113.6 76.3 113.6 60.8 113.6 49.95 102.65 38.95 91.75 38.95 76.3 38.95 60.8 49.95 49.85 60.8 38.95 76.3 38.95 91.75 38.95 102.7 49.85 Z"/>

<path fill="#FFFFFF" stroke="none" d="
M 113.65 76.3
Q 113.65 60.8 102.7 49.85 91.75 38.95 76.3 38.95 60.8 38.95 49.95 49.85 38.95 60.8 38.95 76.3 38.95 91.75 49.95 102.65 60.8 113.6 76.3 113.6 91.75 113.6 102.7 102.65 113.65 91.75 113.65 76.3 Z"/>
</g>
</defs>

<g transform="matrix( 1.76611328125, 0, 0, 1.76611328125, 16.1,16.1) ">
<g transform="matrix( 1, 0, 0, 1, 0,0) ">
<use xlink:href="#E_ball_1_Layer0_0_FILL"/>
</g>
</g>
</svg>
