
<svg xmlns="http://www.w3.org/2000/svg" version="1.1" xmlns:xlink="http://www.w3.org/1999/xlink" preserveAspectRatio="none" x="0px" y="0px" width="650px" height="550px" viewBox="0 0 650 550">
<defs>
<filter id="Filter_1" x="-20%" y="-20%" width="140%" height="140%" color-interpolation-filters="sRGB">
<feColorMatrix in="SourceGraphic" type="matrix" values="0 0 0 0 0 0 0 0 0 0.8 0 0 0 0 1 0 0 0 1 0" result="result1"/>
</filter>

<g id="Splash_FULL_14_Layer1_0_FILL">
<path fill="#00CCFF" stroke="none" d="
M 463 194.1
Q 458.2 181.55 386 174.05 313.85 166.5 302.15 173.55 290.4 180.6 251.75 185 213.1 189.35 243.3 199.85 246.65 201.05 249.65 201.9 170.3 218.4 192.1 227.3 213.95 236.1 225 248.9 236.05 261.65 304.6 256.35 373.15 251.1 403.15 256.4 433.1 261.8 484.95 247.9 536.8 234.05 493.5 221.95 450.3 209.85 446.65 208.05 467.8 206.6 463 194.1 Z"/>
</g>

<g id="Splash_Splash_03_copy_0_Layer0_0_FILL">
<path fill="#00CCFF" stroke="none" d="
M 86.6 57.95
Q 87.7 53.35 82.95 47.95 78.25 42.55 70.5 39.6 62.75 36.65 56.45 37.85 50.2 39.05 49.1 43.65 48 48.25 52.7 53.65 56.2095703125 57.6822265625 61.4 60.35 61.09375 62.7943359375 63.2 65.45 65.5 68.4 69.4 69.9 73.35 71.4 76.55 70.55 79.75 69.75 80.35 67.1 80.7705078125 65.41796875 79.95 63.6 85.5677734375 62.266796875 86.6 57.95
M 95.75 74.35
Q 92.55 75.2 91.95 77.85 91.3 80.5 93.6 83.45 95.9 86.4 99.8 87.85 103.75 89.35 106.95 88.5 110.15 87.65 110.75 85 111.4 82.35 109.1 79.4 106.85 76.45 102.9 74.95 99 73.5 95.75 74.35 Z"/>
</g>
</defs>

<g transform="matrix( -0.57574462890625, 0, 0, 0.5655975341796875, 536.8,333) ">
<g transform="matrix( 1, 0, 0, 1, 0,0) ">
<use filter="url(#Filter_1)" xlink:href="#Splash_FULL_14_Layer1_0_FILL"/>
</g>

<g transform="matrix( 1, 0, 0, 1, 111.95,68.5) ">
<g transform="matrix( 0.374603271484375, -1.26507568359375, 0.2012176513671875, 0.9024810791015625, -148.95,95.2) ">
<g transform="matrix( 1, 0, 0, 1, 0,0) ">
<use filter="url(#Filter_1)" xlink:href="#Splash_Splash_03_copy_0_Layer0_0_FILL"/>
</g>
</g>

<g transform="matrix( 0.6100921630859375, -0.7454376220703125, 0.20159912109375, 0.902801513671875, -23.65,-189) ">
<g transform="matrix( 1, 0, 0, 1, 0,0) ">
<use filter="url(#Filter_1)" xlink:href="#Splash_Splash_03_copy_0_Layer0_0_FILL"/>
</g>
</g>
</g>

<g transform="matrix( -1, 0, 0, 1, 609.35,56.55) ">
<g transform="matrix( 0.374603271484375, -1.26507568359375, 0.2012176513671875, 0.9024810791015625, -148.95,95.2) ">
<g transform="matrix( 1, 0, 0, 1, 0,0) ">
<use filter="url(#Filter_1)" xlink:href="#Splash_Splash_03_copy_0_Layer0_0_FILL"/>
</g>
</g>

<g transform="matrix( 0.6100921630859375, -0.7454376220703125, 0.20159912109375, 0.902801513671875, -23.65,-189) ">
<g transform="matrix( 1, 0, 0, 1, 0,0) ">
<use filter="url(#Filter_1)" xlink:href="#Splash_Splash_03_copy_0_Layer0_0_FILL"/>
</g>
</g>
</g>

<g transform="matrix( -0.675384521484375, 0, 0, 0.675384521484375, 428.15,85.7) ">
<g transform="matrix( 0.374603271484375, -1.26507568359375, 0.2012176513671875, 0.9024810791015625, -148.95,95.2) ">
<g transform="matrix( 1, 0, 0, 1, 0,0) ">
<use filter="url(#Filter_1)" xlink:href="#Splash_Splash_03_copy_0_Layer0_0_FILL"/>
</g>
</g>

<g transform="matrix( 0.6100921630859375, -0.7454376220703125, 0.20159912109375, 0.902801513671875, -23.65,-189) ">
<g transform="matrix( 1, 0, 0, 1, 0,0) ">
<use filter="url(#Filter_1)" xlink:href="#Splash_Splash_03_copy_0_Layer0_0_FILL"/>
</g>
</g>
</g>

<g transform="matrix( 0.4836273193359375, 0, 0, 0.4836273193359375, 109.1,127.55) ">
<g transform="matrix( 0.374603271484375, -1.26507568359375, 0.2012176513671875, 0.9024810791015625, -148.95,95.2) ">
<g transform="matrix( 1, 0, 0, 1, 0,0) ">
<use filter="url(#Filter_1)" xlink:href="#Splash_Splash_03_copy_0_Layer0_0_FILL"/>
</g>
</g>

<g transform="matrix( 0.6100921630859375, -0.7454376220703125, 0.20159912109375, 0.902801513671875, -23.65,-189) ">
<g transform="matrix( 1, 0, 0, 1, 0,0) ">
<use filter="url(#Filter_1)" xlink:href="#Splash_Splash_03_copy_0_Layer0_0_FILL"/>
</g>
</g>
</g>

<g transform="matrix( 0.63238525390625, 0, 0, 1.557403564453125, 242.15,-19.2) ">
<g transform="matrix( 0.374603271484375, -1.26507568359375, 0.2012176513671875, 0.9024810791015625, -148.95,95.2) ">
<g transform="matrix( 1, 0, 0, 1, 0,0) ">
<use filter="url(#Filter_1)" xlink:href="#Splash_Splash_03_copy_0_Layer0_0_FILL"/>
</g>
</g>

<g transform="matrix( 0.6100921630859375, -0.7454376220703125, 0.20159912109375, 0.902801513671875, -23.65,-189) ">
<g transform="matrix( 1, 0, 0, 1, 0,0) ">
<use filter="url(#Filter_1)" xlink:href="#Splash_Splash_03_copy_0_Layer0_0_FILL"/>
</g>
</g>
</g>
</g>

<g transform="matrix( 0.359771728515625, 0, 0, 0.424224853515625, 190.1,308.2) ">
<g transform="matrix( 1, 0, 0, 1, 0,0) ">
<use filter="url(#Filter_1)" xlink:href="#Splash_FULL_14_Layer1_0_FILL"/>
</g>

<g transform="matrix( 1, 0, 0, 1, 111.95,68.5) ">
<g transform="matrix( 0.374603271484375, -1.26507568359375, 0.2012176513671875, 0.9024810791015625, -148.95,95.2) ">
<g transform="matrix( 1, 0, 0, 1, 0,0) ">
<use filter="url(#Filter_1)" xlink:href="#Splash_Splash_03_copy_0_Layer0_0_FILL"/>
</g>
</g>

<g transform="matrix( 0.6100921630859375, -0.7454376220703125, 0.20159912109375, 0.902801513671875, -23.65,-189) ">
<g transform="matrix( 1, 0, 0, 1, 0,0) ">
<use filter="url(#Filter_1)" xlink:href="#Splash_Splash_03_copy_0_Layer0_0_FILL"/>
</g>
</g>
</g>

<g transform="matrix( -1, 0, 0, 1, 609.35,56.55) ">
<g transform="matrix( 0.374603271484375, -1.26507568359375, 0.2012176513671875, 0.9024810791015625, -148.95,95.2) ">
<g transform="matrix( 1, 0, 0, 1, 0,0) ">
<use filter="url(#Filter_1)" xlink:href="#Splash_Splash_03_copy_0_Layer0_0_FILL"/>
</g>
</g>

<g transform="matrix( 0.6100921630859375, -0.7454376220703125, 0.20159912109375, 0.902801513671875, -23.65,-189) ">
<g transform="matrix( 1, 0, 0, 1, 0,0) ">
<use filter="url(#Filter_1)" xlink:href="#Splash_Splash_03_copy_0_Layer0_0_FILL"/>
</g>
</g>
</g>

<g transform="matrix( -0.675384521484375, 0, 0, 0.675384521484375, 428.15,85.7) ">
<g transform="matrix( 0.374603271484375, -1.26507568359375, 0.2012176513671875, 0.9024810791015625, -148.95,95.2) ">
<g transform="matrix( 1, 0, 0, 1, 0,0) ">
<use filter="url(#Filter_1)" xlink:href="#Splash_Splash_03_copy_0_Layer0_0_FILL"/>
</g>
</g>

<g transform="matrix( 0.6100921630859375, -0.7454376220703125, 0.20159912109375, 0.902801513671875, -23.65,-189) ">
<g transform="matrix( 1, 0, 0, 1, 0,0) ">
<use filter="url(#Filter_1)" xlink:href="#Splash_Splash_03_copy_0_Layer0_0_FILL"/>
</g>
</g>
</g>

<g transform="matrix( 0.4836273193359375, 0, 0, 0.4836273193359375, 109.1,127.55) ">
<g transform="matrix( 0.374603271484375, -1.26507568359375, 0.2012176513671875, 0.9024810791015625, -148.95,95.2) ">
<g transform="matrix( 1, 0, 0, 1, 0,0) ">
<use filter="url(#Filter_1)" xlink:href="#Splash_Splash_03_copy_0_Layer0_0_FILL"/>
</g>
</g>

<g transform="matrix( 0.6100921630859375, -0.7454376220703125, 0.20159912109375, 0.902801513671875, -23.65,-189) ">
<g transform="matrix( 1, 0, 0, 1, 0,0) ">
<use filter="url(#Filter_1)" xlink:href="#Splash_Splash_03_copy_0_Layer0_0_FILL"/>
</g>
</g>
</g>

<g transform="matrix( 0.63238525390625, 0, 0, 1.557403564453125, 242.15,-19.2) ">
<g transform="matrix( 0.374603271484375, -1.26507568359375, 0.2012176513671875, 0.9024810791015625, -148.95,95.2) ">
<g transform="matrix( 1, 0, 0, 1, 0,0) ">
<use filter="url(#Filter_1)" xlink:href="#Splash_Splash_03_copy_0_Layer0_0_FILL"/>
</g>
</g>

<g transform="matrix( 0.6100921630859375, -0.7454376220703125, 0.20159912109375, 0.902801513671875, -23.65,-189) ">
<g transform="matrix( 1, 0, 0, 1, 0,0) ">
<use filter="url(#Filter_1)" xlink:href="#Splash_Splash_03_copy_0_Layer0_0_FILL"/>
</g>
</g>
</g>
</g>
</svg>
