
<svg xmlns="http://www.w3.org/2000/svg" version="1.1" xmlns:xlink="http://www.w3.org/1999/xlink" preserveAspectRatio="none" x="0px" y="0px" width="650px" height="550px" viewBox="0 0 650 550">
<defs>
<filter id="Filter_1" x="-20%" y="-20%" width="140%" height="140%" color-interpolation-filters="sRGB">
<feColorMatrix in="SourceGraphic" type="matrix" values="0 0 0 0 0 0 0 0 0 0.8 0 0 0 0 1 0 0 0 1 0" result="result1"/>
</filter>

<g id="Splash_FULL_1_Layer1_0_FILL">
<path fill="#00CCFF" stroke="none" d="
M 539.45 260.65
Q 612.25 241.55 551.5 224.95 490.75 208.3 485.6 205.8 515.35 203.8 508.6 186.55 501.8 169.3 400.45 158.95 299.05 148.6 282.6 158.3 266.1 168 211.85 174.05 157.55 180.05 199.95 194.5 204.65 196.15 208.85 197.35 97.4 220.05 128.05 232.25 158.7 244.4 174.25 261.95 189.75 279.5 286.05 272.25 382.35 265 424.5 272.35 466.6 279.7 539.45 260.65 Z"/>
</g>

<g id="Splash_Splash_01_0_Layer0_0_FILL">
<path fill="#00CCFF" stroke="none" d="
M 235 135.9
Q 234.1 132.7 233.25 131.15 231.85 128.65 229.8 128.1 227.85 127.6 225.3 128.85 223.8 129.55 220.9 131.1 215.55 133.2 209.4 129.4 204.6 126.45 199.85 120.35 175.15 89.2 159.25 52.3 156.7 46.4 153.3 46.7 153.55 68.5 150.25 88.85 149.75 91.6 149.25 92.9 148.45 95.05 146.95 96.2 143.1 99.2 136 95.3 129.6 91.8 124.4 86.7 119.1 81.5 115.6 75.25 113.8 72.05 113.2 71.05 111.65 68.8 110 67.55 107.9 66.15 105.35 66.4 102.65 66.7 101.65 68.7 101.1 69.85 101.05 71.85 101.05 74.35 100.9 75.05 100.25 78.3 96.8 79.9 93.55 81.45 90.1 80.6 87.2 79.9 84.2 77.6 82.45 76.25 79.15 73
L 9.6 3.3
Q 7.5 1.2 5.35 0.4 2.65 -0.65 1.1 0.9 -1.35 3.25 1.75 8.6 17.4 35.8 25.15 48.9 38.4 71.15 49.75 88.45 61.75 106.7 65 112.3 73.05 126.1 76.6 137.95 77.7 141.6 77.4 144.5 77.05 148.1 74.5 149.5 72.2 150.75 68.85 149.45 68.25 149.2 63.15 146.45 60.25 144.8 56.9 145.35 53.35 145.95 53.15 148.85 53.1 150.15 54 151.55 54.55 152.4 55.95 153.8 69.15 167.35 77.5 183.9 77.65 184.35 77.9 184.8 78 185 78.15 185.2 79.35 187.65 80.45 190.15 80.8 189.05 81.05 187.95 81.3 188.15 81.6 188.35 85 190.8 87.05 192.05 90.15 193.9 92.85 194.85 96.6 196.2 101.5 196.45 104.7 196.6 110.4 196.25 156.75 194.05 179.95 192.95 189.6 192.45 194.05 191.95 201.9 191.1 207.85 189.25 210.3 188.5 211.85 187.3 213.8 185.75 213.7 183.75 226.25 184.95 233.95 184.8 245.15 184.6 253.8 181.75 256.65 180.75 257.85 179.35 258.7 178.35 258.8 177 258.85 176.65 258.85 176.35 258.9 176.35 258.95 176.3 260.15 175.75 260.4 174.2 260.65 172.75 260 171.5 259.15 169.7 256.2 167.65 248.6 161.65 243.1 153.5 237.6 145.25 235 135.9 Z"/>
</g>

<g id="Splash_Splash_03_0_Layer0_0_FILL">
<path fill="#00CCFF" stroke="none" d="
M 86.35 23.6
Q 86.1 21.6 85.7 17.6 85.25 14.1 84.3 11.8 81.5 5.4 73 1.8 66.55 -0.7 61.75 0.3 58.85 0.8 56.4 2.55 53.9 4.4 52.8 7 52.55 7.6 51.35 13.2 50.55 16.95 48.6 18.45 46.4 20.1 42.85 19.45 38.65 18.7 32.15 13.25 25.55 7.7 21.55 6.75 16.95 5.7 12.05 8 7.65 10.05 4.3 14.15 1.3 18 0.35 22.25 -0.7 27.05 1.4 30.75 2.85 33.4 6.2 35.5 7.15 36.15 12.4 38.85 20.9 43.15 28.15 49.65 35.3 56.1 40.6 64.15 44.2 69.85 43.35 73.55 42.8 75.6 40 78.9 37.2 82.1 36.75 84.2 36.2 86.8 37.7 89.5 39.05 91.95 41.5 93.55 43.4 94.75 46.55 96 51.45 97.85 51.75 98 56.9 100.15 63.4 105.1 67.1 107.9 74.45 113.55 76.2 114.75 79.55 116.85 83.15 119.1 84.7 120.15 89.5 123.65 96.6 130.45 119.1 152 140.95 176.15 142.65 178.15 144 178.2 145.3 178.2 146.15 177.05 147 175.9 146.9 174.6 146.8 172.55 144.75 169.95 140.3 163.85 131.5 153.35 121.9 142 118.05 136.9 110.9 127.3 106.6 118.9 101.35 108.7 99.65 99.05 99.25 96.15 99.7 94.95 100.65 92.7 103.55 92.05 106 91.5 109.05 92.15 113.35 93.15 114.3 93.3 117.35 93.6 119.25 92.3 121.15 91.05 121.75 88.55 122.3 86.25 121.6 83.9 120.95 81.9 119.45 79.75 118.45 78.3 116.45 76.15 103.2 61.35 97.1 51.8 87.85 37.3 86.35 23.6 Z"/>
</g>

<g id="Splash_Splash_03_copy_0_Layer0_0_FILL">
<path fill="#00CCFF" stroke="none" d="
M 86.6 57.95
Q 87.7 53.35 82.95 47.95 78.25 42.55 70.5 39.6 62.75 36.65 56.45 37.85 50.2 39.05 49.1 43.65 48 48.25 52.7 53.65 56.2095703125 57.6822265625 61.4 60.35 61.09375 62.7943359375 63.2 65.45 65.5 68.4 69.4 69.9 73.35 71.4 76.55 70.55 79.75 69.75 80.35 67.1 80.7705078125 65.41796875 79.95 63.6 85.5677734375 62.266796875 86.6 57.95
M 95.75 74.35
Q 92.55 75.2 91.95 77.85 91.3 80.5 93.6 83.45 95.9 86.4 99.8 87.85 103.75 89.35 106.95 88.5 110.15 87.65 110.75 85 111.4 82.35 109.1 79.4 106.85 76.45 102.9 74.95 99 73.5 95.75 74.35 Z"/>
</g>
</defs>

<g transform="matrix( -0.57574462890625, 0, 0, 0.5655975341796875, 536.8,333) ">
<g transform="matrix( 1, 0, 0, 1, 0,0) ">
<use filter="url(#Filter_1)" xlink:href="#Splash_FULL_1_Layer1_0_FILL"/>
</g>

<g transform="matrix( 1, 0, 0, 1, 111.95,68.5) ">
<g transform="matrix( 1, 0, 0, 0.9999847412109375, 0.05,0.8) ">
<g transform="matrix( 1, 0, 0, 1, 0,0) ">
<use filter="url(#Filter_1)" xlink:href="#Splash_Splash_01_0_Layer0_0_FILL"/>
</g>
</g>

<g transform="matrix( 1, 0, 0, 1, -13.95,-27.7) ">
<g transform="matrix( 1, 0, 0, 1, 0,0) ">
<use filter="url(#Filter_1)" xlink:href="#Splash_Splash_03_0_Layer0_0_FILL"/>
</g>
</g>

<g transform="matrix( 0.93212890625, -0.1024017333984375, 0.0305633544921875, 0.98883056640625, 5.25,-72.05) ">
<g transform="matrix( 1, 0, 0, 1, 0,0) ">
<use filter="url(#Filter_1)" xlink:href="#Splash_Splash_03_copy_0_Layer0_0_FILL"/>
</g>
</g>

<g transform="matrix( 0.9444122314453125, -0.083892822265625, 0.02313232421875, 0.9903717041015625, 64.8,-188.7) ">
<g transform="matrix( 1, 0, 0, 1, 0,0) ">
<use filter="url(#Filter_1)" xlink:href="#Splash_Splash_03_copy_0_Layer0_0_FILL"/>
</g>
</g>

<g transform="matrix( 0.8817138671875, -0.1609649658203125, 0.05230712890625, 0.979888916015625, 22.6,33.65) ">
<g transform="matrix( 1, 0, 0, 1, 0,0) ">
<use filter="url(#Filter_1)" xlink:href="#Splash_Splash_03_copy_0_Layer0_0_FILL"/>
</g>
</g>
</g>

<g transform="matrix( -1, 0, 0, 1, 609.35,56.55) ">
<g transform="matrix( 1, 0, 0, 0.9999847412109375, 0.05,0.8) ">
<g transform="matrix( 1, 0, 0, 1, 0,0) ">
<use filter="url(#Filter_1)" xlink:href="#Splash_Splash_01_0_Layer0_0_FILL"/>
</g>
</g>

<g transform="matrix( 1, 0, 0, 1, -13.95,-27.7) ">
<g transform="matrix( 1, 0, 0, 1, 0,0) ">
<use filter="url(#Filter_1)" xlink:href="#Splash_Splash_03_0_Layer0_0_FILL"/>
</g>
</g>

<g transform="matrix( 0.93212890625, -0.1024017333984375, 0.0305633544921875, 0.98883056640625, 5.25,-72.05) ">
<g transform="matrix( 1, 0, 0, 1, 0,0) ">
<use filter="url(#Filter_1)" xlink:href="#Splash_Splash_03_copy_0_Layer0_0_FILL"/>
</g>
</g>

<g transform="matrix( 0.9444122314453125, -0.083892822265625, 0.02313232421875, 0.9903717041015625, 64.8,-188.7) ">
<g transform="matrix( 1, 0, 0, 1, 0,0) ">
<use filter="url(#Filter_1)" xlink:href="#Splash_Splash_03_copy_0_Layer0_0_FILL"/>
</g>
</g>

<g transform="matrix( 0.8817138671875, -0.1609649658203125, 0.05230712890625, 0.979888916015625, 22.6,33.65) ">
<g transform="matrix( 1, 0, 0, 1, 0,0) ">
<use filter="url(#Filter_1)" xlink:href="#Splash_Splash_03_copy_0_Layer0_0_FILL"/>
</g>
</g>
</g>

<g transform="matrix( -0.675384521484375, 0, 0, 0.675384521484375, 428.15,85.7) ">
<g transform="matrix( 1, 0, 0, 0.9999847412109375, 0.05,0.8) ">
<g transform="matrix( 1, 0, 0, 1, 0,0) ">
<use filter="url(#Filter_1)" xlink:href="#Splash_Splash_01_0_Layer0_0_FILL"/>
</g>
</g>

<g transform="matrix( 1, 0, 0, 1, -13.95,-27.7) ">
<g transform="matrix( 1, 0, 0, 1, 0,0) ">
<use filter="url(#Filter_1)" xlink:href="#Splash_Splash_03_0_Layer0_0_FILL"/>
</g>
</g>

<g transform="matrix( 0.93212890625, -0.1024017333984375, 0.0305633544921875, 0.98883056640625, 5.25,-72.05) ">
<g transform="matrix( 1, 0, 0, 1, 0,0) ">
<use filter="url(#Filter_1)" xlink:href="#Splash_Splash_03_copy_0_Layer0_0_FILL"/>
</g>
</g>

<g transform="matrix( 0.9444122314453125, -0.083892822265625, 0.02313232421875, 0.9903717041015625, 64.8,-188.7) ">
<g transform="matrix( 1, 0, 0, 1, 0,0) ">
<use filter="url(#Filter_1)" xlink:href="#Splash_Splash_03_copy_0_Layer0_0_FILL"/>
</g>
</g>

<g transform="matrix( 0.8817138671875, -0.1609649658203125, 0.05230712890625, 0.979888916015625, 22.6,33.65) ">
<g transform="matrix( 1, 0, 0, 1, 0,0) ">
<use filter="url(#Filter_1)" xlink:href="#Splash_Splash_03_copy_0_Layer0_0_FILL"/>
</g>
</g>
</g>

<g transform="matrix( 0.4836273193359375, 0, 0, 0.4836273193359375, 109.1,127.55) ">
<g transform="matrix( 1, 0, 0, 0.9999847412109375, 0.05,0.8) ">
<g transform="matrix( 1, 0, 0, 1, 0,0) ">
<use filter="url(#Filter_1)" xlink:href="#Splash_Splash_01_0_Layer0_0_FILL"/>
</g>
</g>

<g transform="matrix( 1, 0, 0, 1, -13.95,-27.7) ">
<g transform="matrix( 1, 0, 0, 1, 0,0) ">
<use filter="url(#Filter_1)" xlink:href="#Splash_Splash_03_0_Layer0_0_FILL"/>
</g>
</g>

<g transform="matrix( 0.93212890625, -0.1024017333984375, 0.0305633544921875, 0.98883056640625, 5.25,-72.05) ">
<g transform="matrix( 1, 0, 0, 1, 0,0) ">
<use filter="url(#Filter_1)" xlink:href="#Splash_Splash_03_copy_0_Layer0_0_FILL"/>
</g>
</g>

<g transform="matrix( 0.9444122314453125, -0.083892822265625, 0.02313232421875, 0.9903717041015625, 64.8,-188.7) ">
<g transform="matrix( 1, 0, 0, 1, 0,0) ">
<use filter="url(#Filter_1)" xlink:href="#Splash_Splash_03_copy_0_Layer0_0_FILL"/>
</g>
</g>

<g transform="matrix( 0.8817138671875, -0.1609649658203125, 0.05230712890625, 0.979888916015625, 22.6,33.65) ">
<g transform="matrix( 1, 0, 0, 1, 0,0) ">
<use filter="url(#Filter_1)" xlink:href="#Splash_Splash_03_copy_0_Layer0_0_FILL"/>
</g>
</g>
</g>

<g transform="matrix( 0.63238525390625, 0, 0, 1.557403564453125, 242.15,-19.2) ">
<g transform="matrix( 1, 0, 0, 0.9999847412109375, 0.05,0.8) ">
<g transform="matrix( 1, 0, 0, 1, 0,0) ">
<use filter="url(#Filter_1)" xlink:href="#Splash_Splash_01_0_Layer0_0_FILL"/>
</g>
</g>

<g transform="matrix( 1, 0, 0, 1, -13.95,-27.7) ">
<g transform="matrix( 1, 0, 0, 1, 0,0) ">
<use filter="url(#Filter_1)" xlink:href="#Splash_Splash_03_0_Layer0_0_FILL"/>
</g>
</g>

<g transform="matrix( 0.93212890625, -0.1024017333984375, 0.0305633544921875, 0.98883056640625, 5.25,-72.05) ">
<g transform="matrix( 1, 0, 0, 1, 0,0) ">
<use filter="url(#Filter_1)" xlink:href="#Splash_Splash_03_copy_0_Layer0_0_FILL"/>
</g>
</g>

<g transform="matrix( 0.9444122314453125, -0.083892822265625, 0.02313232421875, 0.9903717041015625, 64.8,-188.7) ">
<g transform="matrix( 1, 0, 0, 1, 0,0) ">
<use filter="url(#Filter_1)" xlink:href="#Splash_Splash_03_copy_0_Layer0_0_FILL"/>
</g>
</g>

<g transform="matrix( 0.8817138671875, -0.1609649658203125, 0.05230712890625, 0.979888916015625, 22.6,33.65) ">
<g transform="matrix( 1, 0, 0, 1, 0,0) ">
<use filter="url(#Filter_1)" xlink:href="#Splash_Splash_03_copy_0_Layer0_0_FILL"/>
</g>
</g>
</g>
</g>

<g transform="matrix( 0.359771728515625, 0, 0, 0.424224853515625, 190.1,308.2) ">
<g transform="matrix( 1, 0, 0, 1, 0,0) ">
<use filter="url(#Filter_1)" xlink:href="#Splash_FULL_1_Layer1_0_FILL"/>
</g>

<g transform="matrix( 1, 0, 0, 1, 111.95,68.5) ">
<g transform="matrix( 1, 0, 0, 0.9999847412109375, 0.05,0.8) ">
<g transform="matrix( 1, 0, 0, 1, 0,0) ">
<use filter="url(#Filter_1)" xlink:href="#Splash_Splash_01_0_Layer0_0_FILL"/>
</g>
</g>

<g transform="matrix( 1, 0, 0, 1, -13.95,-27.7) ">
<g transform="matrix( 1, 0, 0, 1, 0,0) ">
<use filter="url(#Filter_1)" xlink:href="#Splash_Splash_03_0_Layer0_0_FILL"/>
</g>
</g>

<g transform="matrix( 0.93212890625, -0.1024017333984375, 0.0305633544921875, 0.98883056640625, 5.25,-72.05) ">
<g transform="matrix( 1, 0, 0, 1, 0,0) ">
<use filter="url(#Filter_1)" xlink:href="#Splash_Splash_03_copy_0_Layer0_0_FILL"/>
</g>
</g>

<g transform="matrix( 0.9444122314453125, -0.083892822265625, 0.02313232421875, 0.9903717041015625, 64.8,-188.7) ">
<g transform="matrix( 1, 0, 0, 1, 0,0) ">
<use filter="url(#Filter_1)" xlink:href="#Splash_Splash_03_copy_0_Layer0_0_FILL"/>
</g>
</g>

<g transform="matrix( 0.8817138671875, -0.1609649658203125, 0.05230712890625, 0.979888916015625, 22.6,33.65) ">
<g transform="matrix( 1, 0, 0, 1, 0,0) ">
<use filter="url(#Filter_1)" xlink:href="#Splash_Splash_03_copy_0_Layer0_0_FILL"/>
</g>
</g>
</g>

<g transform="matrix( -1, 0, 0, 1, 609.35,56.55) ">
<g transform="matrix( 1, 0, 0, 0.9999847412109375, 0.05,0.8) ">
<g transform="matrix( 1, 0, 0, 1, 0,0) ">
<use filter="url(#Filter_1)" xlink:href="#Splash_Splash_01_0_Layer0_0_FILL"/>
</g>
</g>

<g transform="matrix( 1, 0, 0, 1, -13.95,-27.7) ">
<g transform="matrix( 1, 0, 0, 1, 0,0) ">
<use filter="url(#Filter_1)" xlink:href="#Splash_Splash_03_0_Layer0_0_FILL"/>
</g>
</g>

<g transform="matrix( 0.93212890625, -0.1024017333984375, 0.0305633544921875, 0.98883056640625, 5.25,-72.05) ">
<g transform="matrix( 1, 0, 0, 1, 0,0) ">
<use filter="url(#Filter_1)" xlink:href="#Splash_Splash_03_copy_0_Layer0_0_FILL"/>
</g>
</g>

<g transform="matrix( 0.9444122314453125, -0.083892822265625, 0.02313232421875, 0.9903717041015625, 64.8,-188.7) ">
<g transform="matrix( 1, 0, 0, 1, 0,0) ">
<use filter="url(#Filter_1)" xlink:href="#Splash_Splash_03_copy_0_Layer0_0_FILL"/>
</g>
</g>

<g transform="matrix( 0.8817138671875, -0.1609649658203125, 0.05230712890625, 0.979888916015625, 22.6,33.65) ">
<g transform="matrix( 1, 0, 0, 1, 0,0) ">
<use filter="url(#Filter_1)" xlink:href="#Splash_Splash_03_copy_0_Layer0_0_FILL"/>
</g>
</g>
</g>

<g transform="matrix( -0.675384521484375, 0, 0, 0.675384521484375, 428.15,85.7) ">
<g transform="matrix( 1, 0, 0, 0.9999847412109375, 0.05,0.8) ">
<g transform="matrix( 1, 0, 0, 1, 0,0) ">
<use filter="url(#Filter_1)" xlink:href="#Splash_Splash_01_0_Layer0_0_FILL"/>
</g>
</g>

<g transform="matrix( 1, 0, 0, 1, -13.95,-27.7) ">
<g transform="matrix( 1, 0, 0, 1, 0,0) ">
<use filter="url(#Filter_1)" xlink:href="#Splash_Splash_03_0_Layer0_0_FILL"/>
</g>
</g>

<g transform="matrix( 0.93212890625, -0.1024017333984375, 0.0305633544921875, 0.98883056640625, 5.25,-72.05) ">
<g transform="matrix( 1, 0, 0, 1, 0,0) ">
<use filter="url(#Filter_1)" xlink:href="#Splash_Splash_03_copy_0_Layer0_0_FILL"/>
</g>
</g>

<g transform="matrix( 0.9444122314453125, -0.083892822265625, 0.02313232421875, 0.9903717041015625, 64.8,-188.7) ">
<g transform="matrix( 1, 0, 0, 1, 0,0) ">
<use filter="url(#Filter_1)" xlink:href="#Splash_Splash_03_copy_0_Layer0_0_FILL"/>
</g>
</g>

<g transform="matrix( 0.8817138671875, -0.1609649658203125, 0.05230712890625, 0.979888916015625, 22.6,33.65) ">
<g transform="matrix( 1, 0, 0, 1, 0,0) ">
<use filter="url(#Filter_1)" xlink:href="#Splash_Splash_03_copy_0_Layer0_0_FILL"/>
</g>
</g>
</g>

<g transform="matrix( 0.4836273193359375, 0, 0, 0.4836273193359375, 109.1,127.55) ">
<g transform="matrix( 1, 0, 0, 0.9999847412109375, 0.05,0.8) ">
<g transform="matrix( 1, 0, 0, 1, 0,0) ">
<use filter="url(#Filter_1)" xlink:href="#Splash_Splash_01_0_Layer0_0_FILL"/>
</g>
</g>

<g transform="matrix( 1, 0, 0, 1, -13.95,-27.7) ">
<g transform="matrix( 1, 0, 0, 1, 0,0) ">
<use filter="url(#Filter_1)" xlink:href="#Splash_Splash_03_0_Layer0_0_FILL"/>
</g>
</g>

<g transform="matrix( 0.93212890625, -0.1024017333984375, 0.0305633544921875, 0.98883056640625, 5.25,-72.05) ">
<g transform="matrix( 1, 0, 0, 1, 0,0) ">
<use filter="url(#Filter_1)" xlink:href="#Splash_Splash_03_copy_0_Layer0_0_FILL"/>
</g>
</g>

<g transform="matrix( 0.9444122314453125, -0.083892822265625, 0.02313232421875, 0.9903717041015625, 64.8,-188.7) ">
<g transform="matrix( 1, 0, 0, 1, 0,0) ">
<use filter="url(#Filter_1)" xlink:href="#Splash_Splash_03_copy_0_Layer0_0_FILL"/>
</g>
</g>

<g transform="matrix( 0.8817138671875, -0.1609649658203125, 0.05230712890625, 0.979888916015625, 22.6,33.65) ">
<g transform="matrix( 1, 0, 0, 1, 0,0) ">
<use filter="url(#Filter_1)" xlink:href="#Splash_Splash_03_copy_0_Layer0_0_FILL"/>
</g>
</g>
</g>

<g transform="matrix( 0.63238525390625, 0, 0, 1.557403564453125, 242.15,-19.2) ">
<g transform="matrix( 1, 0, 0, 0.9999847412109375, 0.05,0.8) ">
<g transform="matrix( 1, 0, 0, 1, 0,0) ">
<use filter="url(#Filter_1)" xlink:href="#Splash_Splash_01_0_Layer0_0_FILL"/>
</g>
</g>

<g transform="matrix( 1, 0, 0, 1, -13.95,-27.7) ">
<g transform="matrix( 1, 0, 0, 1, 0,0) ">
<use filter="url(#Filter_1)" xlink:href="#Splash_Splash_03_0_Layer0_0_FILL"/>
</g>
</g>

<g transform="matrix( 0.93212890625, -0.1024017333984375, 0.0305633544921875, 0.98883056640625, 5.25,-72.05) ">
<g transform="matrix( 1, 0, 0, 1, 0,0) ">
<use filter="url(#Filter_1)" xlink:href="#Splash_Splash_03_copy_0_Layer0_0_FILL"/>
</g>
</g>

<g transform="matrix( 0.9444122314453125, -0.083892822265625, 0.02313232421875, 0.9903717041015625, 64.8,-188.7) ">
<g transform="matrix( 1, 0, 0, 1, 0,0) ">
<use filter="url(#Filter_1)" xlink:href="#Splash_Splash_03_copy_0_Layer0_0_FILL"/>
</g>
</g>

<g transform="matrix( 0.8817138671875, -0.1609649658203125, 0.05230712890625, 0.979888916015625, 22.6,33.65) ">
<g transform="matrix( 1, 0, 0, 1, 0,0) ">
<use filter="url(#Filter_1)" xlink:href="#Splash_Splash_03_copy_0_Layer0_0_FILL"/>
</g>
</g>
</g>
</g>
</svg>
