
<svg xmlns="http://www.w3.org/2000/svg" version="1.1" xmlns:xlink="http://www.w3.org/1999/xlink" preserveAspectRatio="none" x="0px" y="0px" width="1000px" height="1000px" viewBox="0 0 1000 1000">
<defs>
<radialGradient id="Gradient_1" gradientUnits="userSpaceOnUse" cx="0" cy="0" r="421.6251158093526" fx="0" fy="0" gradientTransform="matrix( 0.9999997253262477, -0.000741179754911242, 0.00038541347255384586, 0.5382150908263476, 47.05,-46.15) " spreadMethod="pad">
<stop  offset="11.372549019607844%" stop-color="#FFFFFF"/>

<stop  offset="25.88235294117647%" stop-color="#FFC400"/>

<stop  offset="72.15686274509804%" stop-color="#FF0000"/>
</radialGradient>

<g id="Symbol_6_11_Layer1_0_FILL">
<path fill="url(#Gradient_1)" stroke="none" d="
M -4.6 -31.5
Q -6.4017578125 -14.723828125 -4.6 -4.65 -14.2087890625 -5.43046875 -20.7 -34.15 -17.71328125 -2.2669921875 -1.65 20.35 14.45078125 43.0078125 4.05 49.5 9.8427734375 55.025390625 19.8 59.2 31.6 64 45.85 64 52.65 63.95 60.15 62.85 82.9490234375 59.343359375 87.2 55.2 91.50390625 51.1109375 85.8 48.85 80.15 46.6375 95.95 22.1 111.791015625 -2.38984375 113.9 -13.5 115.4546875 -21.6146484375 117.1 -56.1 116.510546875 -53.659375 115.8 -51 106.6720703125 -16.8447265625 76.35 13.4
L 75.5 13.4
Q 76.99375 13.0029296875 79.15 8.45 81.312109375 3.8927734375 84.85 -3.7 88.3833984375 -11.2904296875 91.5 -29.95 77.4740234375 9.2044921875 62.25 24.4 47.02734375 39.637109375 33.85 34.3 20.7193359375 28.973828125 6.05 -7.15 -6.0568359375 -36.909375 2.2 -53.4 -3.270703125 -43.8763671875 -4.6 -31.5 Z"/>
</g>

<g id="Symbol_6_11_Layer0_0_FILL">
<path fill="#FF9900" stroke="none" d="
M -17.2 -86.4
Q -22.75 -85.3 -21.2 -79.9 -19.05 -72.45 -12 -74.95 -11.9 -75.55 -11.8 -76.15 -11.25 -79.35 -12.4 -82.45 -13.7 -85.85 -17.2 -86.4
M 136.2 -73.2
Q 135.55 -73.1 134.9 -72.9 131.95 -72 131.55 -69.15 131.4 -68.05 131.55 -66.85 130.05 -66.25 129.15 -64.95 128.2 -63.6 128.4 -62 128.45 -61.4 128.85 -60.8 129.6 -60.9 130.3 -61.2 135.1 -63.1 138.4 -66.65 142.85 -71.35 136.2 -73.2
M 63.35 -57.7
Q 58.65 -57.15 59 -52.5 59.35 -47.6 63.85 -49.9 71.8 -54 63.35 -57.7
M 36.25 -179.55
Q 30.95 -179 31.15 -173.6 31.4 -167.65 36.65 -170.15 46.6 -174.85 36.25 -179.55
M 109.1 -142.2
Q 107.9 -142 106.8 -140.95 104.8 -138.95 104.55 -135.95 104.4 -133.9 103.3 -131.9 103.65 -131.6 104.05 -131.65 108.8 -131.7 112.15 -134.85 114.85 -137.45 112.95 -140.65 112.2 -141.2 111.35 -141.65 110.65 -142 109.85 -142.1 109.45 -142.2 109.1 -142.2 Z"/>
</g>
</defs>

<g transform="matrix( 1, 0, 0, 1, 314.1,173.5) ">
<g transform="matrix( 0.719146728515625, 0, 0, 0.719146728515625, 153.9,281.35) ">
<g transform="matrix( 1, 0, 0, 1, 0,0) ">
<use xlink:href="#Symbol_6_11_Layer1_0_FILL"/>
</g>

<g transform="matrix( 1, 0, 0, 1, 0,0) ">
<use xlink:href="#Symbol_6_11_Layer0_0_FILL"/>
</g>
</g>
</g>
</svg>
