
<svg xmlns="http://www.w3.org/2000/svg" version="1.1" xmlns:xlink="http://www.w3.org/1999/xlink" preserveAspectRatio="none" x="0px" y="0px" width="1000px" height="1000px" viewBox="0 0 1000 1000">
<defs>
<radialGradient id="Gradient_1" gradientUnits="userSpaceOnUse" cx="0" cy="0" r="421.6251158093526" fx="0" fy="0" gradientTransform="matrix( 0.9999997253262477, -0.000741179754911242, 0.00038541347255384586, 0.5382150908263476, 47.05,-46.15) " spreadMethod="pad">
<stop  offset="11.372549019607844%" stop-color="#FFFFFF"/>

<stop  offset="25.88235294117647%" stop-color="#FFC400"/>

<stop  offset="72.15686274509804%" stop-color="#FF0000"/>
</radialGradient>

<g id="Symbol_6_14_Layer1_0_FILL">
<path fill="url(#Gradient_1)" stroke="none" d="
M 91.6 42.6
Q 92.31484375 32.241015625 90.65 29.2 89.0447265625 26.217578125 89.9 28.9 85.8115234375 44.0724609375 64 54.45 42.234375 64.8220703125 23.5 55.2 4.77578125 45.630859375 -3.6 34.95 -5.413671875 32.599609375 -6.6 30.45 -6.6892578125 33.4970703125 -6.85 37.2 -18.86015625 44.3900390625 -20.7 13.9 -28.7263671875 42.315234375 -14.65 52.3 -1.82109375 61.402734375 21.8 59.95 32.802734375 64 45.85 64 52.65 63.95 60.15 62.85 72.0841796875 61.014453125 78.95 59 78.4369140625 59.2720703125 77.9 59.55 78.7642578125 59.1568359375 79.6 58.8 82.2654296875 58.0009765625 84.1 57.15 91.1708984375 57.3701171875 96.5 57.9 93.5416015625 54.2322265625 91.6 42.6
M 114.05 47.55
Q 119.0173828125 38.7287109375 117.55 27.3 108.476171875 53.6982421875 102.15 58.55 108.09296875 58.2798828125 114.05 47.55 Z"/>
</g>

<g id="Symbol_6_14_Layer0_0_FILL">
<path fill="#FF9900" stroke="none" d="
M -29.6 -75.75
Q -30.2 -75.55 -30.6 -75.15 -31.8 -74.1 -31.95 -72.45 -32.05 -71 -30.95 -70.1 -30.3 -69.95 -29.65 -70 -27.45 -70.25 -27.1 -72.45 -26.55 -75.5 -29.6 -75.75
M 80.05 -29.05
Q 79.45 -28.95 79.25 -28.65 77.7 -26 78.35 -22.95 79.05 -19.55 81.4 -18 81.6 -18.3 81.8 -18.6 83.55 -21.2 82.4 -24.05 81.3 -26.65 80.05 -29.05
M 31.2 -168.55
Q 27.35 -164.05 26 -156.95 25.4 -153.75 27.5 -153.2 38.35 -150.4 31.6 -162.7 31.6 -163 31.7 -163.25 32.15 -164.65 32.2 -166.2 32.25 -167.6 31.2 -168.55
M 135.8 -136.75
Q 134.2 -134.25 136.1 -129.25 137.75 -124.95 140.35 -128.4 145.2 -134.7 135.8 -136.75 Z"/>
</g>
</defs>

<g transform="matrix( 1, 0, 0, 1, 314.1,173.5) ">
<g transform="matrix( 0.719146728515625, 0, 0, 0.719146728515625, 153.9,281.35) ">
<g transform="matrix( 1, 0, 0, 1, 0,0) ">
<use xlink:href="#Symbol_6_14_Layer1_0_FILL"/>
</g>

<g transform="matrix( 1, 0, 0, 1, 0,0) ">
<use xlink:href="#Symbol_6_14_Layer0_0_FILL"/>
</g>
</g>
</g>
</svg>
