
<svg xmlns="http://www.w3.org/2000/svg" version="1.1" xmlns:xlink="http://www.w3.org/1999/xlink" preserveAspectRatio="none" x="0px" y="0px" width="1000px" height="1000px" viewBox="0 0 1000 1000">
<defs>
<linearGradient id="Gradient_1" gradientUnits="userSpaceOnUse" x1="48.7125" y1="340.225" x2="47.7875" y2="525.275" spreadMethod="pad">
<stop  offset="7.450980392156863%" stop-color="#FF5D00" stop-opacity="0.8666666666666667"/>

<stop  offset="100%" stop-color="#FFC400"/>
</linearGradient>

<linearGradient id="Gradient_2" gradientUnits="userSpaceOnUse" x1="49.525000000000006" y1="38.162499999999994" x2="30.175" y2="332.73749999999995" spreadMethod="pad">
<stop  offset="0.7843137254901961%" stop-color="#FF5D00" stop-opacity="0"/>

<stop  offset="41.96078431372549%" stop-color="#FF5D00" stop-opacity="0.8666666666666667"/>

<stop  offset="100%" stop-color="#FFC400"/>
</linearGradient>

<filter id="Filter_1" x="-20%" y="-20%" width="140%" height="140%" color-interpolation-filters="sRGB">
<feColorMatrix in="SourceGraphic" type="matrix" values="1 0 0 0 0 0 1 0 0 0 0 0 1 0 0 0 0 0 0.5 0" result="result1"/>
</filter>

<g id="Symbol_7_4_Layer0_0_FILL">
<path fill="url(#Gradient_1)" stroke="none" d="
M 45.85 394.85
Q 45.5 391.55 45.6 387.7 45.6 387.55 48 350.5 49.8 322.05 48.4 320.6 47.05 322.95 33.2 394.85 28.95 416.75 23.55 445.05 23.45 451.4 26.35 456.05 27.6 458 32.9 463.5 37.45 468.2 39.4 472.65 42.3 479.2 42.1 488.75 41.9 498.4 36.7 503.2 34.1 505.6 25.4 509.25 17.5 512.5 14.1 516.7 8.85 523.1 8.6 535.55 8.35 546.15 11.95 561.05 15.5 575.95 15.35 582.55 17.5 578.4 18.95 573.45 19.75 570.75 20.85 566.5 21.9 563.35 23.4 562.05 25.25 560.45 28.85 560.45 34.95 560.45 39.1 566.9 42.9 572.85 42.7 579.95 42.45 592 39.95 602.1
L 86.6 602.1
Q 81.5 577.35 73.55 538.15 71.3 545.25 68.8 552.05 63.8 565.55 58.6 568.25 56.3 565.9 54.25 557.8 52.45 550.5 52.55 546.6 52.6 543.9 58.2 525.2 63.8 506.55 63.9 503.05 63.95 500.95 63 497.65 62.45 495.65 60.9 490.6 57.9 479.4 58.25 465.2 54.6 465.45 51.95 462.25 49.25 458.95 49.35 454.15 49.35 453.9 52.2 443.9 55.95 434 60.85 434 62.35 434 65.6 437 67.35 438.65 70.45 441.8
L 70.6 435.3
Q 70.45 425.65 66.4 420.85 64.45 418.5 57.7 414.75 51.65 411.35 49.1 407 46.5 402.45 45.85 394.85 Z"/>

<path fill="url(#Gradient_2)" stroke="none" d="
M 94.85 45.55
Q 92.891015625 36.9412109375 86.6 6.45
L 39.95 6.45
Q 39.8076171875 7.053515625 39.65 7.65 34.8 26.05 24.25 26.05 22.25 26.05 19.9 22.8 17.45 19.55 14.65 19.55 10 19.55 5.5 23.45 0.15 28.1 0 35.15 -0.05 38.1 3.75 44.25 7.75 50.75 10.7 50.75 14.5 50.75 16.7 48.7 17.85 47.7 19.8 44.25 21.65 41.1 23.45 39.8 26.3 37.75 31.15 37.75 38.45 37.75 49.15 46.85 60.65 56.7 60.45 65.7 60.25 74.75 50.95 84.95 45.75 90.6 44.5 92.4 41.6 96.5 41.5 100.3 41.45 101.95 42.7 104.2 43.95 106.5 43.9 108.1 43.8 114.25 38.5 117.95 35.75 119.85 34.9 120.95 33.2 123 33.15 126.3 32.95 134.5 37.75 139.4 39.55 141.3 48.3 146.7 55.55 151.2 58.8 156.45 63.5 164.1 63.2 176.95 62.75 198.25 47.95 218.85 43.5 225 37.85 230.95 36.4 232.4 35.45 233.4 35.7 233.2 36 233.05 39.8 236.25 40.6 243.45 40.9 245.95 40.75 253.85 40.55 262.8 37.7 274.5 34.85 286.2 34.8 289.1 34.7 292.95 37.3 307.9 40.05 323.9 41.8 325.65 44.4 323.5 46.2 319.5 48 314.8 48.95 312.65 52.35 304.7 60.45 304.7 63.3 304.7 67.35 307.9 70.55 310.45 73.4 313.95
L 74.05 283.9
Q 74.35 270.65 80.65 249 83.85 238.55 84.95 234.3 87 227.15 87.05 223.95 87.1 221.55 82.75 182.4 82.8 183.65 81.1 186.75 79.5 189.85 77.35 192.75 72.45 190.85 71.4 186.35 71 184.7 71.15 178.25 71.3 171.1 77.6 151.35 83.85 131.65 83.85 131 83.9 128.85 83.6 128.1 82.65 125.95 78.85 123.85 77.35 126.4 75.95 129.05 73.2 134.35 73.4 135.55
L 68.05 135.55
Q 64.1 133.65 63.3 129.15 63 127.55 63.15 121.1 63.15 120.9 66 108.75 68.85 96.6 68.9 95.75 69 91.45 68.2 81.7 67.7 75.25 68.8 71.7 70.3 66.8 75.95 61.15 81.85 55.2 94.85 45.55 Z"/>
</g>
</defs>

<g transform="matrix( 1, 0, 0, 1, 314.1,173.5) ">
<g transform="matrix( 1, 0, 0, 1, 170.65,170.1) "/>

<g transform="matrix( 1, 0, 0, 1, 132.6,221.25) "/>

<g transform="matrix( 1, 0, 0, 1, 289.9,240.6) "/>

<g transform="matrix( 0.7633819580078125, 0, 0, 0.7633819580078125, 147.75,-129.15) ">
<g transform="matrix( 1, 0, 0, 1, 0,0) ">
<use filter="url(#Filter_1)" xlink:href="#Symbol_7_4_Layer0_0_FILL"/>
</g>
</g>
</g>
</svg>
