
<svg xmlns="http://www.w3.org/2000/svg" version="1.1" xmlns:xlink="http://www.w3.org/1999/xlink" preserveAspectRatio="none" x="0px" y="0px" width="1000px" height="1000px" viewBox="0 0 1000 1000">
<defs>
<linearGradient id="Gradient_1" gradientUnits="userSpaceOnUse" x1="40.650000000000006" y1="273.86249999999995" x2="46.75" y2="547.5375" spreadMethod="pad">
<stop  offset="7.450980392156863%" stop-color="#FF5D00" stop-opacity="0.8666666666666667"/>

<stop  offset="100%" stop-color="#FFC400"/>
</linearGradient>

<linearGradient id="Gradient_2" gradientUnits="userSpaceOnUse" x1="61.1125" y1="57.44999999999999" x2="56.6875" y2="297.25" spreadMethod="pad">
<stop  offset="0.7843137254901961%" stop-color="#FF5D00" stop-opacity="0"/>

<stop  offset="41.96078431372549%" stop-color="#FF5D00" stop-opacity="0.8666666666666667"/>

<stop  offset="100%" stop-color="#FFC400"/>
</linearGradient>

<filter id="Filter_1" x="-20%" y="-20%" width="140%" height="140%" color-interpolation-filters="sRGB">
<feColorMatrix in="SourceGraphic" type="matrix" values="1 0 0 0 0 0 1 0 0 0 0 0 1 0 0 0 0 0 0.5 0" result="result1"/>
</filter>

<g id="Symbol_7_5_Layer0_0_FILL">
<path fill="url(#Gradient_1)" stroke="none" d="
M 48 290.6
Q 49.8 262.15 48.4 260.7 47.05 263.05 33.2 334.95 28.95 356.85 23.55 385.15 23.45 391.5 26.35 396.15 27.6 398.1 32.9 403.6 37.45 408.3 39.4 412.75 42.3 419.3 42.1 428.85 41.9 438.5 36.7 443.3 34.1 445.7 25.4 449.35 17.5 452.6 14.1 456.8 8.85 463.2 8.6 475.65 8.35 486.25 11.95 501.15 15.5 516.05 15.35 522.65 17.5 518.5 18.95 513.55 19.75 510.85 20.85 506.6 21.9 503.45 23.4 502.15 25.25 500.55 28.85 500.55 34.95 500.55 39.1 507 42.9 512.95 42.7 520.05 42.45 532.8 39.65 543.4 34.8 561.8 24.25 561.8 22.25 561.8 19.9 558.55 17.45 555.3 14.65 555.3 10 555.3 5.5 559.2 0.15 563.85 0 570.9 -0.05 573.85 3.75 580 7.75 586.5 10.7 586.5 14.5 586.5 16.7 584.45 17.85 583.45 19.8 580 21.65 576.85 23.45 575.55 26.3 573.5 31.15 573.5 38.45 573.5 49.15 582.6 60.25 592.1 60.45 600.85
L 72.45 600.85
Q 73.95 598.9 75.95 596.9 81.85 590.95 94.85 581.3 91.3 565.7 73.55 478.25 71.3 485.35 68.8 492.15 63.8 505.65 58.6 508.35 56.3 506 54.25 497.9 52.45 490.6 52.55 486.7 52.6 484 58.2 465.3 63.8 446.65 63.9 443.15 63.95 441.05 63 437.75 62.45 435.75 60.9 430.7 57.9 419.5 58.25 405.3 54.6 405.55 51.95 402.35 49.25 399.05 49.35 394.25 49.35 394 52.2 384 55.95 374.1 60.85 374.1 62.35 374.1 65.6 377.1 67.35 378.75 70.45 381.9
L 70.6 375.4
Q 70.45 365.75 66.4 360.95 64.45 358.6 57.7 354.85 51.65 351.45 49.1 347.1 46.5 342.55 45.85 334.95 45.5 331.65 45.6 327.8 45.6 327.65 48 290.6 Z"/>

<path fill="url(#Gradient_2)" stroke="none" d="
M 83.85 68.45
Q 83.9 66.3 83.6 65.55 82.65 63.4 78.85 61.3 77.35 63.85 75.95 66.5 73.2 71.8 73.4 73
L 68.05 73
Q 64.1 71.1 63.3 66.6 63 65 63.15 58.55 63.15 58.35 66 46.2 68.85 34.05 68.9 33.2 69 28.9 68.2 19.15 67.7 12.7 68.8 9.15 69.762890625 6.0046875 72.4 2.55
L 60.45 2.55
Q 60.456640625 2.8505859375 60.45 3.15 60.25 12.2 50.95 22.4 45.75 28.05 44.5 29.85 41.6 33.95 41.5 37.75 41.45 39.4 42.7 41.65 43.95 43.95 43.9 45.55 43.8 51.7 38.5 55.4 35.75 57.3 34.9 58.4 33.2 60.45 33.15 63.75 32.95 71.95 37.75 76.85 39.55 78.75 48.3 84.15 55.55 88.65 58.8 93.9 63.5 101.55 63.2 114.4 62.75 135.7 47.95 156.3 43.5 162.45 37.85 168.4 36.4 169.85 35.45 170.85 35.7 170.65 36 170.5 39.8 173.7 40.6 180.9 40.9 183.4 40.75 191.3 40.55 200.25 37.7 211.95 34.85 223.65 34.8 226.55 34.7 230.4 37.3 245.35 40.05 261.35 41.8 263.1 44.4 260.95 46.2 256.95 48 252.25 48.95 250.1 52.35 242.15 60.45 242.15 63.3 242.15 67.35 245.35 70.55 247.9 73.4 251.4
L 74.05 221.35
Q 74.35 208.1 80.65 186.45 83.85 176 84.95 171.75 87 164.6 87.05 161.4 87.1 159 82.75 119.85 82.8 121.1 81.1 124.2 79.5 127.3 77.35 130.2 72.45 128.3 71.4 123.8 71 122.15 71.15 115.7 71.3 108.55 77.6 88.8 83.85 69.1 83.85 68.45 Z"/>
</g>
</defs>

<g transform="matrix( 1, 0, 0, 1, 314.1,173.5) ">
<g transform="matrix( 1, 0, 0, 1, 170.65,170.1) "/>

<g transform="matrix( 1, 0, 0, 1, 132.6,221.25) "/>

<g transform="matrix( 1, 0, 0, 1, 289.9,240.6) "/>

<g transform="matrix( 0.7633819580078125, 0, 0, 0.7633819580078125, 147.75,-129.15) ">
<g transform="matrix( 1, 0, 0, 1, 0,0) ">
<use filter="url(#Filter_1)" xlink:href="#Symbol_7_5_Layer0_0_FILL"/>
</g>
</g>
</g>
</svg>
