
<svg xmlns="http://www.w3.org/2000/svg" version="1.1" xmlns:xlink="http://www.w3.org/1999/xlink" preserveAspectRatio="none" x="0px" y="0px" width="1000px" height="1000px" viewBox="0 0 1000 1000">
<defs>
<linearGradient id="Gradient_1" gradientUnits="userSpaceOnUse" x1="38.75" y1="120.0875" x2="52.349999999999994" y2="558.0125" spreadMethod="pad">
<stop  offset="7.450980392156863%" stop-color="#FF5D00" stop-opacity="0.8666666666666667"/>

<stop  offset="100%" stop-color="#FFC400"/>
</linearGradient>

<linearGradient id="Gradient_2" gradientUnits="userSpaceOnUse" x1="58.487500000000004" y1="24.96249999999999" x2="52.2125" y2="126.6375" spreadMethod="pad">
<stop  offset="0.7843137254901961%" stop-color="#FF5D00" stop-opacity="0"/>

<stop  offset="41.96078431372549%" stop-color="#FF5D00" stop-opacity="0.8666666666666667"/>

<stop  offset="100%" stop-color="#FFC400"/>
</linearGradient>

<filter id="Filter_1" x="-20%" y="-20%" width="140%" height="140%" color-interpolation-filters="sRGB">
<feColorMatrix in="SourceGraphic" type="matrix" values="1 0 0 0 0 0 1 0 0 0 0 0 1 0 0 0 0 0 0.5 0" result="result1"/>
</filter>

<g id="Symbol_7_8_Layer0_0_FILL">
<path fill="url(#Gradient_1)" stroke="none" d="
M 66.4 184.95
Q 64.45 182.6 57.7 178.85 51.65 175.45 49.1 171.1 46.5 166.55 45.85 158.95 45.5 155.65 45.6 151.8 45.6 151.65 48 114.6 49.8 86.15 48.4 84.7 47.05 87.05 33.2 158.95 28.95 180.85 23.55 209.15 23.45 215.5 26.35 220.15 27.6 222.1 32.9 227.6 37.45 232.3 39.4 236.75 42.3 243.3 42.1 252.85 41.9 262.5 36.7 267.3 34.1 269.7 25.4 273.35 17.5 276.6 14.1 280.8 8.85 287.2 8.6 299.65 8.35 310.25 11.95 325.15 15.5 340.05 15.35 346.65 17.5 342.5 18.95 337.55 19.75 334.85 20.85 330.6 21.9 327.45 23.4 326.15 25.25 324.55 28.85 324.55 34.95 324.55 39.1 331 42.9 336.95 42.7 344.05 42.45 356.8 39.65 367.4 34.8 385.8 24.25 385.8 22.25 385.8 19.9 382.55 17.45 379.3 14.65 379.3 10 379.3 5.5 383.2 0.15 387.85 0 394.9 -0.05 397.85 3.75 404 7.75 410.5 10.7 410.5 14.5 410.5 16.7 408.45 17.85 407.45 19.8 404 21.65 400.85 23.45 399.55 26.3 397.5 31.15 397.5 38.45 397.5 49.15 406.6 60.65 416.45 60.45 425.45 60.25 434.5 50.95 444.7 45.75 450.35 44.5 452.15 41.6 456.25 41.5 460.05 41.45 461.7 42.7 463.95 43.95 466.25 43.9 467.85 43.8 474 38.5 477.7 35.75 479.6 34.9 480.7 33.2 482.75 33.15 486.05 32.95 494.25 37.75 499.15 39.55 501.05 48.3 506.45 55.55 510.95 58.8 516.2 63.5 523.85 63.2 536.7 62.75 558 47.95 578.6 43.5 584.75 37.85 590.7 36.4 592.15 35.45 593.15 35.7 592.95 36 592.8 39.8 596 40.6 603.2 40.6 603.3 40.65 603.4
L 82.3 603.4
Q 84.15 597.1 84.95 594.05 87 586.9 87.05 583.7 87.1 581.3 82.75 542.15 82.8 543.4 81.1 546.5 79.5 549.6 77.35 552.5 72.45 550.6 71.4 546.1 71 544.45 71.15 538 71.3 530.85 77.6 511.1 83.85 491.4 83.85 490.75 83.9 488.6 83.6 487.85 82.65 485.7 78.85 483.6 77.35 486.15 75.95 488.8 73.2 494.1 73.4 495.3
L 68.05 495.3
Q 64.1 493.4 63.3 488.9 63 487.3 63.15 480.85 63.15 480.65 66 468.5 68.85 456.35 68.9 455.5 69 451.2 68.2 441.45 67.7 435 68.8 431.45 70.3 426.55 75.95 420.9 81.85 414.95 94.85 405.3 91.3 389.7 73.55 302.25 71.3 309.35 68.8 316.15 63.8 329.65 58.6 332.35 56.3 330 54.25 321.9 52.45 314.6 52.55 310.7 52.6 308 58.2 289.3 63.8 270.65 63.9 267.15 63.95 265.05 63 261.75 62.45 259.75 60.9 254.7 57.9 243.5 58.25 229.3 54.6 229.55 51.95 226.35 49.25 223.05 49.35 218.25 49.35 218 52.2 208 55.95 198.1 60.85 198.1 62.35 198.1 65.6 201.1 67.35 202.75 70.45 205.9
L 70.6 199.4
Q 70.45 189.75 66.4 184.95 Z"/>

<path fill="url(#Gradient_2)" stroke="none" d="
M 40.6 1.25
Q 40.8943359375 3.853125 40.75 11.45 40.55 20.4 37.7 32.1 34.85 43.8 34.8 46.7 34.7 50.55 37.3 65.5 40.05 81.5 41.8 83.25 44.4 81.1 46.2 77.1 48 72.4 48.95 70.25 52.35 62.3 60.45 62.3 63.3 62.3 67.35 65.5 70.55 68.05 73.4 71.55
L 74.05 41.5
Q 74.35 28.25 80.65 6.6 81.5431640625 3.68359375 82.25 1.25
L 40.6 1.25 Z"/>
</g>
</defs>

<g transform="matrix( 1, 0, 0, 1, 314.1,173.5) ">
<g transform="matrix( 1, 0, 0, 1, 170.65,170.1) "/>

<g transform="matrix( 1, 0, 0, 1, 132.6,221.25) "/>

<g transform="matrix( 1, 0, 0, 1, 289.9,240.6) "/>

<g transform="matrix( 0.7633819580078125, 0, 0, 0.7633819580078125, 147.75,-129.15) ">
<g transform="matrix( 1, 0, 0, 1, 0,0) ">
<use filter="url(#Filter_1)" xlink:href="#Symbol_7_8_Layer0_0_FILL"/>
</g>
</g>
</g>
</svg>
