
<svg xmlns="http://www.w3.org/2000/svg" version="1.1" xmlns:xlink="http://www.w3.org/1999/xlink" preserveAspectRatio="none" x="0px" y="0px" width="1000px" height="1000px" viewBox="0 0 1000 1000">
<defs>
<linearGradient id="Gradient_1" gradientUnits="userSpaceOnUse" x1="279.38750000000005" y1="30.662499999999994" x2="63.412499999999994" y2="313.5375" spreadMethod="pad">
<stop  offset="0%" stop-color="#FCEB71"/>

<stop  offset="39.21568627450981%" stop-color="#FFC400"/>

<stop  offset="78.43137254901961%" stop-color="#FF5A00"/>

<stop  offset="98.82352941176471%" stop-color="#FF4500"/>
</linearGradient>

<radialGradient id="Gradient_2" gradientUnits="userSpaceOnUse" cx="0" cy="0" r="175.20000000000005" fx="0" fy="0" gradientTransform="matrix( 0.9999999999999998, 0, 0, 0.9999999999999998, 178.5,167.85) " spreadMethod="pad">
<stop  offset="0%" stop-color="#FF0000"/>

<stop  offset="49.411764705882355%" stop-color="#FF5D00"/>

<stop  offset="78.82352941176471%" stop-color="#FF8400"/>

<stop  offset="94.11764705882354%" stop-color="#FFC400"/>

<stop  offset="100%" stop-color="#FCEB71"/>
</radialGradient>

<g id="lava_pool_anm_0_Layer0_0_FILL">
<path fill="url(#Gradient_1)" stroke="none" d="
M 338 134.8
Q 342.1361328125 125.8001953125 342.4 112.8 342.6537109375 99.8498046875 336.3 87.55 328.3 72.1 317.8 58.15 316.05 55.8 313.55 54.25 302.75 47.502734375 290.95 49.85 279.202734375 52.2384765625 272.35 46.8 265.5412109375 41.365625 257.55 32.15 249.55859375 22.9876953125 234.1 11.5 218.6970703125 0.003515625 198.8 0 176.3947265625 0.0521484375 169.35 9.85 162.315234375 19.6435546875 157.45 24.55 152.6345703125 29.4564453125 138.7 23.35 124.805078125 17.2478515625 120.4 16.75 103.1 14.25 87.9 22.15 81.4537109375 25.5 78.4 34.45 75.33828125 43.45 68.4 50.1 61.5115234375 56.8 50.4 58.35 39.29609375 59.95 35.15 61.7 13.9 71.05 12.15 93.85 14.8525390625 104.655078125 21.65 112.55 28.441796875 120.4341796875 26.75 133.45 25.0580078125 146.465625 11.45 164.95 -2.102734375 183.4947265625 0.6 202.95 1.149609375 206.7962890625 7.3 214.35 13.4998046875 221.9619140625 20.8 230.3 28.1017578125 238.6349609375 28.3 249 28.4958984375 259.3595703125 33.65 275.9 38.8513671875 292.44765625 59.15 299.3 68.9 302.65 79.05 301.35 92.15 300.25 106.25 297.25 119.005078125 290.646484375 131.8 302.5 144.594921875 314.354296875 162.25 323.95 179.9544921875 333.544921875 192.3 326.45 204.6865234375 319.415234375 213.55 311.6 222.4634765625 303.784765625 231 308.35 239.5455078125 312.905078125 244.1 313.3 265.05 314.85 284.6 306.6 293.5470703125 302.8974609375 300.55 297.35 307.6099609375 291.8087890625 310.45 284.95 313.283984375 278.13515625 310.5 262.8 307.7673828125 247.4669921875 320.7 231.4 333.6822265625 215.3322265625 340 204.4 346.355859375 193.505859375 345.75 187.65 344.80546875 178.299609375 337.85 169.85 330.880859375 161.4009765625 332.35 152.6 333.870703125 143.8490234375 338 134.8
M 333.75 112.8
Q 334.5 116.55 334.35 120.4 333.85 136.45 330.85 152.5 329.95 157.4 330.6 162.15 331.7 170.2 334.1 177.9 338.8 193.05 330.05 206.9 323.5 217.4 316.3 227.6 303.85 245.2 307.6 266.45 308.15 269.55 306.9 272.4 301.9 283.6 291.65 290.7 282.15 297.15 271.2 300.9 251.75 307.55 231.5 303.55 226.15 302.6 220.85 302.6 211.25 302.6 204.1 309.4 192.75 320.05 177.35 319.15 156.2 317.25 139.5 304.15 129.2 296.15 117.4 290.7 115.7 289.95 113.75 289.9 101.2 291.1 88.85 293.25 70.85 296.5 55.7 286.7 50.95 283.6 47.75 278.75 37.8 263.6 34.3 245.6 32.9 238.4 28.65 232.4 20.7 220.95 13.65 209.05 11.35 205.25 10.8 200.7 8.3 181.1 18.05 163.35 28 145.15 31.5 124.95 31.8 123.15 31.05 121.55 25.45 110 21.55 98 21.9 82.9 33.8 73.65 43.45 66.25 55.2 62.55 67.65 58.8 75.75 48.15 76.7 46.85 77.5 45.5 89.05 26.7 110.65 25.15 122.45 23.9 133.5 28.4 147.4 34.2 160.7 27.45 161.85 26.95 162.7 25.9 172.95 13.5 188.55 10.8 210.05 7.2 228.95 17.8 246.35 27.5 261.25 40.65 263.75 42.85 266.05 45.35 272.45 52.25 281.45 53.3 292.95 54.35 303.05 59.1 307.05 60.95 309.6 64.25 316.5 73.2 322.25 82.9 330.6 96.95 333.75 112.8 Z"/>

<path fill="url(#Gradient_2)" stroke="none" d="
M 334.35 120.4
Q 334.5 116.55 333.75 112.8 330.6 96.95 322.25 82.9 316.5 73.2 309.6 64.25 307.05 60.95 303.05 59.1 292.95 54.35 281.45 53.3 272.45 52.25 266.05 45.35 263.75 42.85 261.25 40.65 246.35 27.5 228.95 17.8 210.05 7.2 188.55 10.8 172.95 13.5 162.7 25.9 161.85 26.95 160.7 27.45 147.4 34.2 133.5 28.4 122.45 23.9 110.65 25.15 89.05 26.7 77.5 45.5 76.7 46.85 75.75 48.15 67.65 58.8 55.2 62.55 43.45 66.25 33.8 73.65 21.9 82.9 21.55 98 25.45 110 31.05 121.55 31.8 123.15 31.5 124.95 28 145.15 18.05 163.35 8.3 181.1 10.8 200.7 11.35 205.25 13.65 209.05 20.7 220.95 28.65 232.4 32.9 238.4 34.3 245.6 37.8 263.6 47.75 278.75 50.95 283.6 55.7 286.7 70.85 296.5 88.85 293.25 101.2 291.1 113.75 289.9 115.7 289.95 117.4 290.7 129.2 296.15 139.5 304.15 156.2 317.25 177.35 319.15 192.75 320.05 204.1 309.4 211.25 302.6 220.85 302.6 226.15 302.6 231.5 303.55 251.75 307.55 271.2 300.9 282.15 297.15 291.65 290.7 301.9 283.6 306.9 272.4 308.15 269.55 307.6 266.45 303.85 245.2 316.3 227.6 323.5 217.4 330.05 206.9 338.8 193.05 334.1 177.9 331.7 170.2 330.6 162.15 329.95 157.4 330.85 152.5 333.85 136.45 334.35 120.4 Z"/>
</g>
</defs>

<g transform="matrix( 1, 0, 0, 1, 314.1,173.5) ">
<g transform="matrix( 1.5294189453125, 0, 0, 1.545257568359375, -76.7,77.15) ">
<g transform="matrix( 1, 0, 0, 1, 0,0) ">
<use xlink:href="#lava_pool_anm_0_Layer0_0_FILL"/>
</g>
</g>
</g>
</svg>
