
<svg xmlns="http://www.w3.org/2000/svg" version="1.1" xmlns:xlink="http://www.w3.org/1999/xlink" preserveAspectRatio="none" x="0px" y="0px" width="1000px" height="1000px" viewBox="0 0 1000 1000">
<defs>
<linearGradient id="Gradient_1" gradientUnits="userSpaceOnUse" x1="37.125" y1="238.76249999999996" x2="48.675" y2="568.5375" spreadMethod="pad">
<stop  offset="7.450980392156863%" stop-color="#FF5D00" stop-opacity="0.8666666666666667"/>

<stop  offset="100%" stop-color="#FFC400"/>
</linearGradient>

<linearGradient id="Gradient_2" gradientUnits="userSpaceOnUse" x1="60.587500000000006" y1="32.51249999999999" x2="57.3125" y2="267.1875" spreadMethod="pad">
<stop  offset="0.7843137254901961%" stop-color="#FF5D00" stop-opacity="0"/>

<stop  offset="41.96078431372549%" stop-color="#FF5D00" stop-opacity="0.8666666666666667"/>

<stop  offset="100%" stop-color="#FFC400"/>
</linearGradient>

<filter id="Filter_1" x="-20%" y="-20%" width="140%" height="140%" color-interpolation-filters="sRGB">
<feColorMatrix in="SourceGraphic" type="matrix" values="1 0 0 0 0 0 1 0 0 0 0 0 1 0 0 0 0 0 0.5 0" result="result1"/>
</filter>

<g id="Symbol_7_6_Layer0_0_FILL">
<path fill="url(#Gradient_1)" stroke="none" d="
M 45.85 291.9
Q 45.5 288.6 45.6 284.75 45.6 284.6 48 247.55 49.8 219.1 48.4 217.65 47.05 220 33.2 291.9 28.95 313.8 23.55 342.1 23.45 348.45 26.35 353.1 27.6 355.05 32.9 360.55 37.45 365.25 39.4 369.7 42.3 376.25 42.1 385.8 41.9 395.45 36.7 400.25 34.1 402.65 25.4 406.3 17.5 409.55 14.1 413.75 8.85 420.15 8.6 432.6 8.35 443.2 11.95 458.1 15.5 473 15.35 479.6 17.5 475.45 18.95 470.5 19.75 467.8 20.85 463.55 21.9 460.4 23.4 459.1 25.25 457.5 28.85 457.5 34.95 457.5 39.1 463.95 42.9 469.9 42.7 477 42.45 489.75 39.65 500.35 34.8 518.75 24.25 518.75 22.25 518.75 19.9 515.5 17.45 512.25 14.65 512.25 10 512.25 5.5 516.15 0.15 520.8 0 527.85 -0.05 530.8 3.75 536.95 7.75 543.45 10.7 543.45 14.5 543.45 16.7 541.4 17.85 540.4 19.8 536.95 21.65 533.8 23.45 532.5 26.3 530.45 31.15 530.45 38.45 530.45 49.15 539.55 60.65 549.4 60.45 558.4 60.25 567.45 50.95 577.65 45.75 583.3 44.5 585.1 41.6 589.2 41.5 593 41.45 594.65 42.7 596.9 43.95 599.2 43.9 600.8 43.85 602.9 43.25 604.75
L 65.25 604.75
Q 65.6 603.25 66 601.45 68.85 589.3 68.9 588.45 69 584.15 68.2 574.4 67.7 567.95 68.8 564.4 70.3 559.5 75.95 553.85 81.85 547.9 94.85 538.25 91.3 522.65 73.55 435.2 71.3 442.3 68.8 449.1 63.8 462.6 58.6 465.3 56.3 462.95 54.25 454.85 52.45 447.55 52.55 443.65 52.6 440.95 58.2 422.25 63.8 403.6 63.9 400.1 63.95 398 63 394.7 62.45 392.7 60.9 387.65 57.9 376.45 58.25 362.25 54.6 362.5 51.95 359.3 49.25 356 49.35 351.2 49.35 350.95 52.2 340.95 55.95 331.05 60.85 331.05 62.35 331.05 65.6 334.05 67.35 335.7 70.45 338.85
L 70.6 332.35
Q 70.45 322.7 66.4 317.9 64.45 315.55 57.7 311.8 51.65 308.4 49.1 304.05 46.5 299.5 45.85 291.9 Z"/>

<path fill="url(#Gradient_2)" stroke="none" d="
M 83.85 21.5
Q 83.9 19.35 83.6 18.6 82.65 16.45 78.85 14.35 77.35 16.9 75.95 19.55 73.2 24.85 73.4 26.05
L 68.05 26.05
Q 64.1 24.15 63.3 19.65 63 18.05 63.15 11.6 63.15 11.429296875 65.2 2.55
L 43.2 2.55
Q 41.9724609375 6.0259765625 38.5 8.45 35.75 10.35 34.9 11.45 33.2 13.5 33.15 16.8 32.95 25 37.75 29.9 39.55 31.8 48.3 37.2 55.55 41.7 58.8 46.95 63.5 54.6 63.2 67.45 62.75 88.75 47.95 109.35 43.5 115.5 37.85 121.45 36.4 122.9 35.45 123.9 35.7 123.7 36 123.55 39.8 126.75 40.6 133.95 40.9 136.45 40.75 144.35 40.55 153.3 37.7 165 34.85 176.7 34.8 179.6 34.7 183.45 37.3 198.4 40.05 214.4 41.8 216.15 44.4 214 46.2 210 48 205.3 48.95 203.15 52.35 195.2 60.45 195.2 63.3 195.2 67.35 198.4 70.55 200.95 73.4 204.45
L 74.05 174.4
Q 74.35 161.15 80.65 139.5 83.85 129.05 84.95 124.8 87 117.65 87.05 114.45 87.1 112.05 82.75 72.9 82.8 74.15 81.1 77.25 79.5 80.35 77.35 83.25 72.45 81.35 71.4 76.85 71 75.2 71.15 68.75 71.3 61.6 77.6 41.85 83.85 22.15 83.85 21.5 Z"/>
</g>
</defs>

<g transform="matrix( 1, 0, 0, 1, 314.1,173.5) ">
<g transform="matrix( 1, 0, 0, 1, 170.65,170.1) "/>

<g transform="matrix( 1, 0, 0, 1, 132.6,221.25) "/>

<g transform="matrix( 1, 0, 0, 1, 289.9,240.6) "/>

<g transform="matrix( 0.7633819580078125, 0, 0, 0.7633819580078125, 147.75,-129.15) ">
<g transform="matrix( 1, 0, 0, 1, 0,0) ">
<use filter="url(#Filter_1)" xlink:href="#Symbol_7_6_Layer0_0_FILL"/>
</g>
</g>
</g>
</svg>
