
<svg xmlns="http://www.w3.org/2000/svg" version="1.1" xmlns:xlink="http://www.w3.org/1999/xlink" preserveAspectRatio="none" x="0px" y="0px" width="100px" height="100px" viewBox="0 0 100 100">
<defs>
<g id="Symbol_3_0_Layer0_0_FILL">
<path fill="#000000" stroke="none" d="
M 54.85 47.1
Q 57.4 44.95 60.05 42.9 61.5 41.75 62.25 40.15 70.1 23.75 58.65 8.7 52.55 0.65 42.8 -1.75 17.9 -8.3 1.1 10.85 -1.5 15.5 -2.75 20.85 -6.75 38 7.4 47.1
L 8.4 53.9
Q 22.2 59.1 37.25 58.55 40.5 58.1 43.75 57.65 55.05 57.2 54.85 47.1
M 58.1 19.7
Q 58.365234375 20.3328125 58.4 21.05 62.95 33.45 52.6 41.5 51.55 42.3 50.4 42.95
L 50.85 50.6 43.25 53.2 40.15 48.1
Q 39.95 47.95 39.75 47.8 38.2 47.35 37.7 48.8
L 38.1 53.6 26.2 52.95 26.4 48.05
Q 26.3 47.25 25.85 46.8 25.45 46.35 24.9 46.45 24.35 46.6 24.05 47.2 23.75 47.8 23.8 48.45
L 22.25 53.55 14.9 51.3 13.65 50.9 11.35 50.2 11.7 43.7
Q 11.5833984375 43.5486328125 11.45 43.4 10.86171875 42.75390625 10.3 42.1 8.7935546875 41.1212890625 7.45 39.95 2.6 35.7 3.05 29.35 4.45 8.8 24.35 2.75
L 32.8 3.3 39.5 4.65
Q 53.05 7.3 58 19.4 58.07109375 19.55234375 58.1 19.7
M 14.85 12.5
L 11.05 13.5 8.5 17
Q 3.6 28.35 11.9 37 19.5 44.9 26.85 37.3 27.75 36.35 28 35.2 29.75 25.85 21.2 20.45
L 17.1 14.4 14.85 12.5
M 15.15 16.85
L 25.85 32.35
Q 23.2 38.1 18.1 34.6 7.45 27.4 15.15 16.85
M 54.45 19.45
Q 54.15 18.4 53.85 17.45
L 47.9 12.55 33.15 31.35
Q 33.45 37.75 39.2 40.5 40.9 41.3 42.8 40.9 44.5 40.85 46.1 40.4 58.7 33.4 54.45 19.45
M 47 16.85
Q 54.95 27.35 44.4 35 40.65 37.8 37.6 34.1 36.9 33.3 36.4 32.35
L 47 16.85 Z"/>

<path fill="#DD7BFF" stroke="none" d="
M 14.9 51.3
L 22.25 53.55 23.8 48.45 14.9 51.3
M 26.2 52.95
L 38.1 53.6 37.7 48.8 29.95 53 26.4 48.05 26.2 52.95
M 13.6 47.95
Q 13.23046875 45.5482421875 11.7 43.7
L 11.35 50.2 13.65 50.9
Q 13.85 49.55 13.6 47.95
M 8.5 17
L 11.05 13.5 24.35 2.75
Q 4.45 8.8 3.05 29.35 2.6 35.7 7.45 39.95 8.7935546875 41.1212890625 10.3 42.1 0.683203125 30.359375 8.5 17
M 53.85 17.45
Q 54.15 18.4 54.45 19.45 58.7 33.4 46.1 40.4
L 46 49.95 40.15 48.1 43.25 53.2 50.85 50.6 50.4 42.95
Q 51.55 42.3 52.6 41.5 62.95 33.45 58.4 21.05 58.365234375 20.3328125 58.1 19.7 57.800390625 19.0447265625 57.1 18.5 55.75 17.45 53.85 17.45 Z"/>

<path fill="#EFBFFF" stroke="none" d="
M 21.75 6.55
Q 26.35 3.35 32.8 3.3
L 24.35 2.75 11.05 13.5 14.85 12.5 17.1 14.4
Q 17.15 9.8 21.75 6.55
M 47.9 12.55
L 53.85 17.45
Q 55.75 17.45 57.1 18.5 57.800390625 19.0447265625 58.1 19.7 58.07109375 19.55234375 58 19.4 53.05 7.3 39.5 4.65
L 42.1 10.5
Q 41.6 11.1 41.05 11.65 32.9 19.95 21.2 20.45 29.75 25.85 28 35.2 27.75 36.35 26.85 37.3 19.5 44.9 11.9 37 3.6 28.35 8.5 17 0.683203125 30.359375 10.3 42.1 10.86171875 42.75390625 11.45 43.4 11.5833984375 43.5486328125 11.7 43.7 13.23046875 45.5482421875 13.6 47.95 13.85 49.55 13.65 50.9
L 14.9 51.3 23.8 48.45
Q 23.75 47.8 24.05 47.2 24.35 46.6 24.9 46.45 25.45 46.35 25.85 46.8 26.3 47.25 26.4 48.05
L 29.95 53 37.7 48.8
Q 38.2 47.35 39.75 47.8 39.95 47.95 40.15 48.1
L 46 49.95 46.1 40.4
Q 44.5 40.85 42.8 40.9 40.9 41.3 39.2 40.5 33.45 37.75 33.15 31.35
L 47.9 12.55 Z"/>

<path fill="#FFFFFF" stroke="none" d="
M 41.05 11.65
Q 41.6 11.1 42.1 10.5
L 39.5 4.65 32.8 3.3
Q 26.35 3.35 21.75 6.55 17.15 9.8 17.1 14.4
L 21.2 20.45
Q 32.9 19.95 41.05 11.65 Z"/>
</g>
</defs>

<g transform="matrix( 1.2118988037109375, 0, 0, 1.2118988037109375, 10.7,17.15) ">
<g transform="matrix( 1, 0, 0, 1, 0,0) ">
<use xlink:href="#Symbol_3_0_Layer0_0_FILL"/>
</g>
</g>
</svg>
