
<svg xmlns="http://www.w3.org/2000/svg" version="1.1" xmlns:xlink="http://www.w3.org/1999/xlink" preserveAspectRatio="none" x="0px" y="0px" width="900px" height="900px" viewBox="0 0 900 900">
<defs>
<linearGradient id="Gradient_1" gradientUnits="userSpaceOnUse" x1="126.89999999999999" y1="54.1125" x2="140.5" y2="235.6875" spreadMethod="pad">
<stop  offset="0%" stop-color="#7400FF"/>

<stop  offset="100%" stop-color="#E68AFF"/>
</linearGradient>

<filter id="Filter_1" x="-20%" y="-20%" width="140%" height="140%" color-interpolation-filters="sRGB">
<feColorMatrix in="SourceGraphic" type="matrix" values="0.94 0 0 0 0 0 0.94 0 0 0 0 0 0.94 0 0 0 0 0 0.35 0" result="result1"/>
</filter>

<filter id="Filter_2" x="-20%" y="-20%" width="140%" height="140%" color-interpolation-filters="sRGB">
<feColorMatrix in="SourceGraphic" type="matrix" values="1 0 0 0 0 0 1 0 0 0 0 0 1 0 0 0 0 0 0.35 0" result="result1"/>
</filter>

<g id="Explosion_3_Assets_explo03_0_Layer3_0_FILL">
<path fill="#CC33FF" stroke="none" d="
M 177.85 94.2
Q 174.55 90.8 168.6 86.75 159.55 80.6 158.75 80 154.7 77.2 149.9 72.9 148.9 72 141.5 65.15 138.6 62.35 136.7 60.95 133.8 58.85 131.05 58.15 127.35 57.2 122.65 58.35 119.6 59.1 114.5 61.35 78.7 77.3 73 79.9 62.75 84.25 57.25 88.35 54.2 90.7 50.85 94.3 49.3 96 45.2 100.8 39.2 108 36.65 112 32.45 118.55 31.3 124.65 29.2 135.1 34.85 148.1 36.7 152.55 40.2 158.95 45.9 169.4 46 169.6 48.75 175 49.05 175.6 50.95 178.95 53 181.1 55.6 183.85 60.45 186.4 63.15 187.85 68.65 190.65 72.55 192.85 76.9 196.3 79.65 198.5 84.55 202.85 88.1 205.85 89.2 208.15 90.7 211.4 89.35 215.3 88.15 218.85 85.1 221.5 82.65 223.55 78.65 225.25 73.9 227.05 71.55 227.9 67.15 229.5 64.6 230.9 61 232.9 58.85 235.55 69.85 235.4 79.5 232.25 87.75 229.75 92.75 225.9 100.85 219.9 103.15 209.35 105.5 198.7 100.45 190.1 97.25 184.7 89.9 178.9 81.35 172.7 77.5 169.2 72.8 164.95 68.25 158.5 65.25 154.25 60.7 146.55 57.15 140.75 55.5 136.8 53.15 131.2 53.15 126.25 53.15 120.6 56.2 113.65 59.45 106.3 64.25 102.15 66.5 100.25 69.75 98.55 71.9 97.4 75.65 95.8
L 121.25 75.9
Q 124.7 74.3 126.8 74.6 128.3 74.65 129.9 75.6 131 76.25 132.65 77.65 145.9 88.55 152.1 95.1 162.05 105.6 166.3 116.3 168.3 121.45 171.3 135.9 173.9 148.45 177.45 155 178.75 157.7 178.8 157.8 179.45 159.45 179.3 160.85 179.2 162.25 178.15 163.65 177.45 164.65 175.95 166 168 173.05 157.6 176.55 147.2 180.05 136.5 179.25 119.3 165.15 104.15 150.35 102.3 148.5 101.45 147.3 100.15 145.35 100.05 143.6 99.8 141.5 101.15 139.15 102.05 137.65 104.15 135.4 106.4 133 107.8 131.95 110.05 130.3 112.25 130.25 114 130.15 116.1 131.15 117.45 131.8 119.65 133.4
L 126 137.8
Q 123.45 139.5 122.1 142.4 120.7 145.3 121 148.4 126.3 145.3 131.05 139.9 133.05 137.7 133.05 136.05 132.85 133.45 128.8 131.3 123.7 128.6 117.8 126.5 113.25 125 110.5 125.75 108.55 126.25 106.7 128 105.5 129.1 103.65 131.4 101.25 134.45 100.05 136.35 98.25 139.15 97.55 141.75 96.3 146.35 97.8 151.5 99.1 156 102.3 160.3 104.65 163.4 108.95 167.7 114.9 173.6 115.95 174.75 118.55 177.6 123.45 183.65 127.95 188.8 132.25 191.2 136.65 193.6 142.85 194.35 147.3 194.9 154.1 194.6 163.55 194.4 168.95 193.05 171.9 192.25 175.45 190.85 177.15 190.2 181.8 188.15 189.55 184.55 193.2 182 199.1 177.85 201.4 172.65 203.55 167.8 202.85 161.05 202.45 156.8 200.35 149.2 197.85 139.75 195.3 131.15 191.6 117.8 188.85 111.3 184.4 100.65 177.85 94.2 Z"/>
</g>

<g id="Explosion_3_Assets_explo03_0_Layer2_0_FILL">
<path fill="url(#Gradient_1)" stroke="none" d="
M 232.1 123.1
Q 230.4 120.4 227.45 118.5 240.85 -2.05 124.1 18.45 115.1 19.95 109 28 -2.5 -6.4 12.05 133.35 -9.55 272.7 139 247 141 249.7 143.75 251.5 145.2 252.55 147.15 253.25 150.4 254.55 153.85 253.55 154.6 253.35 155.4 253.2 303 236 232.1 123.1 Z"/>
</g>
</defs>

<g transform="matrix( 0.822235107421875, 0, 0, 0.822235107421875, 452.3,408.75) ">
<g transform="matrix( 0.382110595703125, 0.10205078125, -0.1150665283203125, 0.430877685546875, 152.85,181.3) ">
<g transform="matrix( 0.5496368408203125, -0.782073974609375, 0.782073974609375, 0.5496368408203125, -90.15,14.5) ">
<g transform="matrix( 1, 0, 0, 1, 0,0) ">
<use filter="url(#Filter_1)" xlink:href="#Explosion_3_Assets_explo03_0_Layer3_0_FILL"/>
</g>

<g transform="matrix( 1, 0, 0, 1, 0,0) ">
<use filter="url(#Filter_1)" xlink:href="#Explosion_3_Assets_explo03_0_Layer2_0_FILL"/>
</g>
</g>
</g>

<g transform="matrix( -0.298797607421875, 0.0659027099609375, 0.0723724365234375, 0.3281402587890625, -115,167.55) ">
<g transform="matrix( 0.5496368408203125, -0.782073974609375, 0.782073974609375, 0.5496368408203125, -90.15,14.5) ">
<g transform="matrix( 1, 0, 0, 1, 0,0) ">
<use filter="url(#Filter_1)" xlink:href="#Explosion_3_Assets_explo03_0_Layer3_0_FILL"/>
</g>

<g transform="matrix( 1, 0, 0, 1, 0,0) ">
<use filter="url(#Filter_1)" xlink:href="#Explosion_3_Assets_explo03_0_Layer2_0_FILL"/>
</g>
</g>
</g>

<g transform="matrix( 0.2939605712890625, -0.14044189453125, 0.1327362060546875, 0.277801513671875, -36.15,269.1) ">
<g transform="matrix( 0.5496368408203125, -0.782073974609375, 0.782073974609375, 0.5496368408203125, -90.15,14.5) ">
<g transform="matrix( 1, 0, 0, 1, 0,0) ">
<use filter="url(#Filter_1)" xlink:href="#Explosion_3_Assets_explo03_0_Layer3_0_FILL"/>
</g>

<g transform="matrix( 1, 0, 0, 1, 0,0) ">
<use filter="url(#Filter_1)" xlink:href="#Explosion_3_Assets_explo03_0_Layer2_0_FILL"/>
</g>
</g>
</g>

<g transform="matrix( 0.807159423828125, 0.1929779052734375, -0.17974853515625, 0.75177001953125, 26.05,72.65) ">
<g transform="matrix( 0.5496368408203125, -0.782073974609375, 0.782073974609375, 0.5496368408203125, -90.15,14.5) ">
<g transform="matrix( 1, 0, 0, 1, 0,0) ">
<use filter="url(#Filter_2)" xlink:href="#Explosion_3_Assets_explo03_0_Layer3_0_FILL"/>
</g>

<g transform="matrix( 1, 0, 0, 1, 0,0) ">
<use filter="url(#Filter_2)" xlink:href="#Explosion_3_Assets_explo03_0_Layer2_0_FILL"/>
</g>
</g>
</g>

<g transform="matrix( -0.5238494873046875, 0, 0, 0.7431182861328125, 102.25,-50.75) ">
<g transform="matrix( 0.5496368408203125, -0.782073974609375, 0.782073974609375, 0.5496368408203125, -90.15,14.5) ">
<g transform="matrix( 1, 0, 0, 1, 0,0) ">
<use filter="url(#Filter_2)" xlink:href="#Explosion_3_Assets_explo03_0_Layer3_0_FILL"/>
</g>

<g transform="matrix( 1, 0, 0, 1, 0,0) ">
<use filter="url(#Filter_2)" xlink:href="#Explosion_3_Assets_explo03_0_Layer2_0_FILL"/>
</g>
</g>
</g>

<g transform="matrix( 0.6485137939453125, 0, 0, 0.6485137939453125, -95.3,157.35) ">
<g transform="matrix( 0.5496368408203125, -0.782073974609375, 0.782073974609375, 0.5496368408203125, -90.15,14.5) ">
<g transform="matrix( 1, 0, 0, 1, 0,0) ">
<use filter="url(#Filter_2)" xlink:href="#Explosion_3_Assets_explo03_0_Layer3_0_FILL"/>
</g>

<g transform="matrix( 1, 0, 0, 1, 0,0) ">
<use filter="url(#Filter_2)" xlink:href="#Explosion_3_Assets_explo03_0_Layer2_0_FILL"/>
</g>
</g>
</g>

<g transform="matrix( -0.491119384765625, 0, 0, 0.491119384765625, -55.95,13.8) ">
<g transform="matrix( 0.5496368408203125, -0.782073974609375, 0.782073974609375, 0.5496368408203125, -90.15,14.5) ">
<g transform="matrix( 1, 0, 0, 1, 0,0) ">
<use filter="url(#Filter_2)" xlink:href="#Explosion_3_Assets_explo03_0_Layer3_0_FILL"/>
</g>

<g transform="matrix( 1, 0, 0, 1, 0,0) ">
<use filter="url(#Filter_2)" xlink:href="#Explosion_3_Assets_explo03_0_Layer2_0_FILL"/>
</g>
</g>
</g>

<g transform="matrix( -0.4513702392578125, 0.1663818359375, 0.1663818359375, 0.4513702392578125, -69.45,217) ">
<g transform="matrix( 0.5496368408203125, -0.782073974609375, 0.782073974609375, 0.5496368408203125, -90.15,14.5) ">
<g transform="matrix( 1, 0, 0, 1, 0,0) ">
<use filter="url(#Filter_2)" xlink:href="#Explosion_3_Assets_explo03_0_Layer3_0_FILL"/>
</g>

<g transform="matrix( 1, 0, 0, 1, 0,0) ">
<use filter="url(#Filter_2)" xlink:href="#Explosion_3_Assets_explo03_0_Layer2_0_FILL"/>
</g>
</g>
</g>

<g transform="matrix( -0.6684112548828125, -0.2594451904296875, -0.2726898193359375, 0.702545166015625, 131.55,233) ">
<g transform="matrix( 0.5496368408203125, -0.782073974609375, 0.782073974609375, 0.5496368408203125, -90.15,14.5) ">
<g transform="matrix( 1, 0, 0, 1, 0,0) ">
<use filter="url(#Filter_2)" xlink:href="#Explosion_3_Assets_explo03_0_Layer3_0_FILL"/>
</g>

<g transform="matrix( 1, 0, 0, 1, 0,0) ">
<use filter="url(#Filter_2)" xlink:href="#Explosion_3_Assets_explo03_0_Layer2_0_FILL"/>
</g>
</g>
</g>
</g>
</svg>
