
<svg xmlns="http://www.w3.org/2000/svg" version="1.1" xmlns:xlink="http://www.w3.org/1999/xlink" preserveAspectRatio="none" x="0px" y="0px" width="1000px" height="1000px" viewBox="0 0 1000 1000">
<defs>
<linearGradient id="Gradient_1" gradientUnits="userSpaceOnUse" x1="90.35000000000001" y1="75.76249999999999" x2="80.55" y2="145.4375" spreadMethod="pad">
<stop  offset="0%" stop-color="#333333"/>

<stop  offset="100%" stop-color="#666666"/>
</linearGradient>

<radialGradient id="Gradient_2" gradientUnits="userSpaceOnUse" cx="0" cy="0" r="30.900000000000006" fx="0" fy="0" gradientTransform="matrix( 0.9999999999999999, 0, 0, 0.9999999999999999, 34.75,35.05) " spreadMethod="pad">
<stop  offset="12.549019607843137%" stop-color="#FFFFFF"/>

<stop  offset="56.86274509803921%" stop-color="#FFFD2C"/>
</radialGradient>

<linearGradient id="Gradient_3" gradientUnits="userSpaceOnUse" x1="38.775" y1="58.9125" x2="32.725" y2="72.4875" spreadMethod="pad">
<stop  offset="0%" stop-color="#999999"/>

<stop  offset="100%" stop-color="#666666"/>
</linearGradient>

<linearGradient id="Gradient_4" gradientUnits="userSpaceOnUse" x1="36.7125" y1="58" x2="35.7875" y2="70.5" spreadMethod="pad">
<stop  offset="0%" stop-color="#999999"/>

<stop  offset="100%" stop-color="#666666"/>
</linearGradient>

<linearGradient id="Gradient_5" gradientUnits="userSpaceOnUse" x1="47.6625" y1="54.9875" x2="49.237500000000004" y2="114.91250000000001" spreadMethod="pad">
<stop  offset="0%" stop-color="#000000"/>

<stop  offset="100%" stop-color="#3C3C3C"/>
</linearGradient>

<linearGradient id="Gradient_6" gradientUnits="userSpaceOnUse" x1="49.249999999999986" y1="441.40000000000003" x2="250.14999999999998" y2="485.2" spreadMethod="pad">
<stop  offset="0%" stop-color="#FF6600"/>

<stop  offset="50.98039215686274%" stop-color="#FFCC00"/>

<stop  offset="100%" stop-color="#FFFF99"/>
</linearGradient>

<linearGradient id="Gradient_7" gradientUnits="userSpaceOnUse" x1="456.73749999999995" y1="389.8" x2="357.5625" y2="464.8" spreadMethod="pad">
<stop  offset="0%" stop-color="#FF6600"/>

<stop  offset="50.98039215686274%" stop-color="#FFCC00"/>

<stop  offset="100%" stop-color="#FFFF99"/>
</linearGradient>

<g id="Symbol_13_0_Layer1_0_FILL">
<path fill="#000000" stroke="none" d="
M 23.15 152.75
Q 32.5005859375 157.1697265625 42 160.1 88.8271484375 174.533203125 139.3 152.75 179.372265625 81.115625 139.3 14.85 81.2251953125 -9.8263671875 23.15 14.85 -21.946875 78.305078125 23.15 152.75
M 133.3 22.55
Q 133.688671875 23.155859375 133.75 24.05 134.3216796875 26.632421875 123.6 30.9 98.220703125 37.5076171875 73.3 36.55 73.1900390625 36.56328125 73.05 36.55 56.880859375 35.38671875 48.75 33.8
L 48.7 33.8
Q 44.85 33.1 38.95 31.65 26.435546875 26.24765625 28.7 22.8
L 28.75 22.7
Q 28.9640625 22.4615234375 30 21.95 44.850390625 15.60625 59.75 12.95 83.9431640625 11.1044921875 84.9 11.15 108.91328125 11.9107421875 133.1 22.2
L 133.35 22.5 133.3 22.55
M 125.65 34.3
Q 135.27890625 30.64609375 136.45 28 140.32421875 35.141015625 143.15 42.35
L 145.05 47.55
Q 157.6771484375 84.4369140625 143.5 123.1
L 142.4 126
Q 141.8 127.55 138.65 134.3 135 142.15 133.1 145.55 83.4919921875 166.95390625 37.85 149.25 33.4775390625 147.59609375 29.15 145.55 23.0322265625 135.45234375 18.75 125.55 18.528515625 125.0044921875 18.3 124.4 1.20703125 83.933203125 15.45 47.25
L 17.65 42
Q 22.8 31.8 25.85 27 25.28984375 30.2435546875 36.95 35.05 40.41484375 35.8794921875 43.9 36.55 84.1759765625 44.6109375 125.65 34.3
M 95.55 15.6
Q 89.85 13.55 81.8 13.55 73.75 13.55 68.05 15.6 62.35 17.6 62.35 20.4 62.35 23.3 68.05 25.25 73.75 27.3 81.8 27.3 89.85 27.3 95.55 25.25 101.25 23.3 101.25 20.4 101.25 17.6 95.55 15.6
M 97.2 21.65
Q 97.17421875 21.675 97.15 21.7 95.9814453125 22.7875 93.25 23.65 88.5 25.25 81.8 25.25 78.281640625 25.25 75.3 24.8 75.0740234375 24.7671875 74.85 24.7
L 70.35 23.65
Q 65.6 22.15 65.6 19.95 65.6 17.75 70.35 16.2 75.1 14.65 81.8 14.65 88.5 14.65 93.25 16.2 98 17.75 98 19.95
L 98 20.15
Q 97.95 20.5 97.2 21.65 Z"/>

<path fill="#1E1E1E" stroke="none" d="
M 32.15 132.25
L 33.2 136.35 37.85 149.25
Q 83.4919921875 166.95390625 133.1 145.55 135 142.15 138.65 134.3 141.8 127.55 142.4 126 141.95 126.4 138.3 128.15 134.05 130.2 131.15 131.2 80.83828125 142.248828125 32.15 132.25
M 145.05 47.55
L 143.15 42.35 142.65 42.55
Q 142.95 45.45 130.3 49.7 82.4671875 60.25625 36.05 51.55
L 33.85 55.8
Q 82.3779296875 64.6107421875 132.4 54 143.9439453125 50.2548828125 145.05 47.55 Z"/>

<path fill="#666666" stroke="none" d="
M 32.15 132.25
Q 32.0951171875 132.0509765625 32.05 131.85 20.15 127.4 18.75 125.55 23.0322265625 135.45234375 29.15 145.55 33.4775390625 147.59609375 37.85 149.25
L 33.2 136.35 32.15 132.25
M 17.65 42
L 15.45 47.25
Q 15.8974609375 50.3341796875 28.45 54.75 31.0826171875 55.287890625 33.7 55.75
L 33.7 56.05 33.85 55.8 36.05 51.55
Q 33.2251953125 51.0505859375 30.4 50.45 16.705859375 45.453515625 17.65 42
M 133.75 24.05
Q 133.688671875 23.155859375 133.3 22.55 133.2076171875 22.378125 133.1 22.2 108.91328125 11.9107421875 84.9 11.15 84.59296875 11.1734375 84.3 11.2 65.2 12.95 49.95 19.55 48.85 20 46.75 22.1 44.55 24.3 44.6 25.25 44.7 27.5 47.65 29.7 50.8 31.95 60.65 34.3 68.6 36.15 73.05 36.55 73.1900390625 36.56328125 73.3 36.55 98.220703125 37.5076171875 123.6 30.9 134.3216796875 26.632421875 133.75 24.05
M 81.8 13.55
Q 89.85 13.55 95.55 15.6 101.25 17.6 101.25 20.4 101.25 23.3 95.55 25.25 89.85 27.3 81.8 27.3 73.75 27.3 68.05 25.25 62.35 23.3 62.35 20.4 62.35 17.6 68.05 15.6 73.75 13.55 81.8 13.55
M 90.05 18.5
Q 86.8 18.1 84.95 18.1 82.15 18.15 80 18.9 78.9 19.3 76.9 20.4 75.25 21.4 74.7 22.3 74.5 22.65 74.75 23.65 75 24.65 75.3 24.8 78.281640625 25.25 81.8 25.25 88.5 25.25 93.25 23.65 95.9814453125 22.7875 97.15 21.7 97.026953125 21.76875 96.75 21.65
L 96.45 21.45
Q 96.3 21 93.55 19.75 90.85 18.6 90.05 18.5 Z"/>

<path fill="#999999" stroke="none" d="
M 32.1 59.8
Q 32.875390625 57.91171875 33.7 56.05
L 33.7 55.75
Q 31.0826171875 55.287890625 28.45 54.75 15.8974609375 50.3341796875 15.45 47.25 1.20703125 83.933203125 18.3 124.4 18.528515625 125.0044921875 18.75 125.55 20.15 127.4 32.05 131.85 20.45546875 89.4978515625 32.1 59.8
M 84.3 11.2
Q 84.59296875 11.1734375 84.9 11.15 83.9431640625 11.1044921875 59.75 12.95 44.850390625 15.60625 30 21.95 28.9640625 22.4615234375 28.75 22.7
L 28.7 22.8
Q 26.435546875 26.24765625 38.95 31.65 44.85 33.1 48.7 33.8
L 48.75 33.8
Q 56.880859375 35.38671875 73.05 36.55 68.6 36.15 60.65 34.3 50.8 31.95 47.65 29.7 44.7 27.5 44.6 25.25 44.55 24.3 46.75 22.1 48.85 20 49.95 19.55 65.2 12.95 84.3 11.2
M 84.95 18.1
Q 86.8 18.1 90.05 18.5 90.85 18.6 93.55 19.75 96.3 21 96.45 21.45
L 96.75 21.65
Q 97.026953125 21.76875 97.15 21.7 97.17421875 21.675 97.2 21.65 97.95 20.5 98 20.15
L 98 19.95
Q 98 17.75 93.25 16.2 88.5 14.65 81.8 14.65 75.1 14.65 70.35 16.2 65.6 17.75 65.6 19.95 65.6 22.15 70.35 23.65
L 74.85 24.7
Q 75.0740234375 24.7671875 75.3 24.8 75 24.65 74.75 23.65 74.5 22.65 74.7 22.3 75.25 21.4 76.9 20.4 78.9 19.3 80 18.9 82.15 18.15 84.95 18.1 Z"/>

<path fill="#FF9900" stroke="none" d="
M 36.95 35.05
Q 25.28984375 30.2435546875 25.85 27 22.8 31.8 17.65 42 16.705859375 45.453515625 30.4 50.45 33.2251953125 51.0505859375 36.05 51.55
L 43.9 36.55
Q 40.41484375 35.8794921875 36.95 35.05 Z"/>

<path fill="url(#Gradient_1)" stroke="none" d="
M 145.05 47.55
Q 143.9439453125 50.2548828125 132.4 54 82.3779296875 64.6107421875 33.85 55.8
L 33.7 56.05
Q 32.875390625 57.91171875 32.1 59.8 20.45546875 89.4978515625 32.05 131.85 32.0951171875 132.0509765625 32.15 132.25 80.83828125 142.248828125 131.15 131.2 134.05 130.2 138.3 128.15 141.95 126.4 142.4 126
L 143.5 123.1
Q 157.6771484375 84.4369140625 145.05 47.55 Z"/>

<path fill="#FF3300" stroke="none" d="
M 136.45 28
Q 135.27890625 30.64609375 125.65 34.3 84.1759765625 44.6109375 43.9 36.55
L 36.05 51.55
Q 82.4671875 60.25625 130.3 49.7 142.95 45.45 142.65 42.55
L 143.15 42.35
Q 140.32421875 35.141015625 136.45 28 Z"/>
</g>

<g id="Symbol_13_0_Layer0_0_FILL">
<path fill="#FF3300" stroke="none" d="
M 105.4 97.25
Q 105.55 87.35 98.65 80.3 91.8 73.25 81.9 73.1 72.45 72.95 65.55 79.35
L 65.4 79.45
Q 64.95 79.8 64.55 80.2 57.5 87.1 57.35 97 57.2 106.9 63.6 108.55 68.3 109.75 74.25 116.25 77.35 110.6 80.2 117.05 83.8 111.05 86.85 116.25 92.8 110.65 97.35 109.45 100.05 108.8 101.8 107.1 105.35 104 105.4 97.25
M 96.35 96.6
Q 95.57109375 97.2328125 94.65 97.55 93.2453125 101.258984375 89.75 105.6 85.2 111.35 77.9 108.7 67.0083984375 104.790234375 66.75 97.05 65.560546875 96.5625 64.6 95.55 62.75 93.7 62.8 91 62.85 88.35 64.7 86.45
L 64.7 86.4
Q 66.5 84.95 68.95 84.95 70.016015625 84.989453125 70.95 85.3 74.3490234375 80.4603515625 80.25 79.4 89.9134765625 82.086328125 93.5 86.6 95.2302734375 86.941796875 96.5 88.25 98.2 90.05 98.2 92.45 98.2 94.85 96.4 96.55
L 96.35 96.6 Z"/>

<path fill="#FF9900" stroke="none" d="
M 93.05 86.5
Q 93.286328125 86.5591796875 93.5 86.6 89.9134765625 82.086328125 80.25 79.4 74.3490234375 80.4603515625 70.95 85.3 72.38046875 85.78046875 73.5 86.9 75.3 88.85 75.25 91.55 75.2 94.25 73.35 96.05 73.3 96.1 73.3 96.15 71.5 97.6 69.15 97.5 67.851953125 97.5 66.75 97.05 67.0083984375 104.790234375 77.9 108.7 85.2 111.35 89.75 105.6 93.2453125 101.258984375 94.65 97.55 93.727734375 97.8755859375 92.65 97.85 90.25 97.85 88.55 96.05 86.85 94.35 86.9 91.95 86.9 89.6 88.6 87.85 90.3 86.5 92.45 86.5
L 93.05 86.5 Z"/>
</g>

<g id="spark_0_Layer0_0_FILL">
<path fill="#FFFF00" stroke="none" d="
M 40.4 10.1
Q 43.15 7.1 43.7 2.05 38.6 4.85 40.4 10.1
M 21.75 68.65
Q 22.25 68.65 24.05 64.75 26 60.55 26.15 58.3 26 58.2 25.9 58.25 18.45 63.1 21.75 68.65
M 3.1 14.35
Q 2.2 12.8 1.4 12.8 -4.75 12.75 2.95 16.15 4 15.95 3.1 14.35
M 70.15 47.75
Q 70.05 43.2 66.25 45.15 66.25 45.25 66.25 45.35 66.75 48.25 70.15 47.75 Z"/>

<path fill="url(#Gradient_2)" stroke="none" d="
M 43.1 39.2
Q 46.75 39.35 46.8 39 43.424609375 36.1462890625 41.3 33.55 48.640625 26.9154296875 56.95 19.1 45.062109375 23.128125 35.85 29.55 31.155078125 21.077734375 23.35 14.65 23.35 14.75 23.4 14.9 26.450390625 23.448046875 28.95 30.65 20.46796875 29.948828125 10.5 31.95 10.55 32.1 10.65 32.1 18.987890625 36.10859375 28.45 36.05 18.580078125 43.97265625 12.1 54.85 21.5 47.95 31.4 41.2 32.624609375 40.3646484375 33.5 39.45 36.4015625 52.4173828125 43.7 64.45 44 64.2 41.85 54.3 39.65 44.25 37.95 38.25 39.3 39 43.1 39.2 Z"/>
</g>

<g id="fdudearm_2_Layer1_0_FILL">
<path fill="#FF3300" stroke="none" d="
M 48.75 31.6
Q 48.8 31.45 48.75 31.35 43.85 24.55 34 25.65 22.5 25.95 11.7 30.2 11.6392578125 30.223828125 11.55 30.25 12.08515625 34.53515625 12.45 38.8 28.496875 30.5626953125 48.75 31.6
M 44.25 3.65
Q 44.25 3.5 44.15 3.45 40.4 0.45 35.3 0.45 23.9078125 1.3322265625 13.2 5.3 10.9830078125 9.7263671875 10.4 14.65 25.9478515625 5.9876953125 44.25 3.65
M 46.1 17.8
Q 46.1 17.65 46 17.55 41.75 11.7 33.35 13.45 21.45 14.3 10.3 18.9 10.2765625 18.9095703125 10.25 18.9 10.3 19.95 10.7 23.2 11.05 26.35 11.2 27.4 11.2666015625 27.6681640625 11.3 27.9 26.9962890625 19.28671875 46.1 17.8
M 25.65 90.45
Q 27.6515625 90.771875 29.5 90.9 29.4759765625 90.849609375 29.45 90.8 25.5458984375 82.603125 24.65 73.7 17.853125 72.823046875 10.45 73.25 8.9033203125 87.7568359375 25.65 90.45 Z"/>

<path fill="#54433B" stroke="none" d="
M 46 17.55
Q 46.1 17.65 46.1 17.8 26.9962890625 19.28671875 11.3 27.9 11.2666015625 27.6681640625 11.2 27.4 11.40859375 28.8322265625 11.55 30.25 11.6392578125 30.223828125 11.7 30.2 22.5 25.95 34 25.65 43.85 24.55 48.75 31.35 48.8 31.45 48.75 31.6 28.496875 30.5626953125 12.45 38.8 12.746484375 42.1814453125 12.95 45.55 20.05625 44.236328125 37.5 41.8 50.5169921875 41.837109375 56.85 43.6 61.5232421875 24.6677734375 64.1 5.5 42.9904296875 -12.18203125 15.65 1.2 14.248046875 3.19296875 13.2 5.3 23.9078125 1.3322265625 35.3 0.45 40.4 0.45 44.15 3.45 44.25 3.5 44.25 3.65 25.9478515625 5.9876953125 10.4 14.65 10.1876953125 16.742578125 10.25 18.9 10.2765625 18.9095703125 10.3 18.9 21.45 14.3 33.35 13.45 41.75 11.7 46 17.55 Z"/>

<path fill="#000000" stroke="none" d="
M 64.45 3.1
Q 64.29453125 4.3017578125 64.1 5.5 61.5232421875 24.6677734375 56.85 43.6 50.5169921875 41.837109375 37.5 41.8 20.05625 44.236328125 12.95 45.55 12.746484375 42.1814453125 12.45 38.8 12.08515625 34.53515625 11.55 30.25 11.40859375 28.8322265625 11.2 27.4 11.05 26.35 10.7 23.2 10.3 19.95 10.25 18.9 10.1876953125 16.742578125 10.4 14.65 10.9830078125 9.7263671875 13.2 5.3 14.248046875 3.19296875 15.65 1.2 15.95 0.8 15.7 0.8 15.4 0.75 14.9 1.1 -0.1759765625 13.2396484375 2.6 33.8 4.95 51.15 5.05 68.65 5.0578125 70.1189453125 5.2 71.5 5.2228515625 71.5375 5.2 71.55 4.8765625 77.73984375 4.95 81.85 5.3642578125 95.5396484375 20.6 97.9 35.8841796875 100.264453125 47.55 92.7 59.27265625 85.1462890625 59.75 81.8 60.85 73.45 62.55 51.8 64.8771484375 22.3857421875 64.5 5.5 64.49140625 4.2828125 64.45 3.1
M 47.25 45.7
L 47.3 45.7
Q 50.8798828125 46.2138671875 54.45 46.95 55.250390625 55.5166015625 54.3 61 50.9287109375 58.308203125 47 56.85 46.98828125 56.86171875 46.95 56.85 44.10234375 55.8486328125 36.7 55.75 31.3 55.65 29 55.85 19.4212890625 56.7017578125 11.55 61.2 11.775 55.4001953125 11.5 49.35 11.9 49.2 12.3 49.1 24.2 45.5 36.8 44.8 40.2251953125 44.88359375 43.65 45.25
L 47.25 45.7
M 18 72.25
Q 10.8 72.5 10.55 72.6 11.248828125 67.411328125 11.5 62.05 27 58.55 27 58.5 37.6765625 57.3763671875 47.95 59.85 51.091015625 60.633984375 54.15 61.7 53.6 64.95 50.7 77.85 49.6859375 79.8552734375 48.5 81.7 48.2740234375 81.53046875 48 81.35
L 42.3 77.6
Q 34.3720703125 73.17421875 25.1 72 21.55 72.1 18 72.25
M 29.5 90.9
Q 27.6515625 90.771875 25.65 90.45 8.9033203125 87.7568359375 10.45 73.25 17.853125 72.823046875 24.65 73.7 33.61484375 74.9294921875 41.6 78.45 45.2107421875 80.072265625 48.6 82.15 42.7224609375 91.723046875 29.5 90.9
M 37.7 79.45
Q 33.6 80.25 33.8 84.55 33.8533203125 85.6943359375 34.35 86.2 34.8314453125 86.6466796875 35.65 86.6 44.956640625 86.0853515625 39.8 81.2 38.9517578125 80.381640625 37.7 79.45
M 45.9 66.6
Q 45.65 66.4 44 67.4 42.15 68.45 41.85 69.8 41.324609375 72.331640625 43.4 72.45 49.75 71.75 49.35 70.25 48.9755859375 68.876171875 45.9 66.6
M 47.05 49.45
L 47 49.45
Q 46.95703125 49.4908203125 46.9 49.5 45.06171875 50.300390625 44.75 52.6 44.6 53.6 46.15 54.35 46.7791015625 54.6162109375 47.25 54.7
L 48.1 54.8 48.15 54.8 50.7 51.25
Q 50.6486328125 51.196484375 50.6 51.15
L 47.05 49.45 Z"/>

<path fill="#FF9900" stroke="none" d="
M 29.45 90.8
Q 29.4759765625 90.849609375 29.5 90.9 42.7224609375 91.723046875 48.6 82.15 45.2107421875 80.072265625 41.6 78.45 33.61484375 74.9294921875 24.65 73.7 25.5458984375 82.603125 29.45 90.8
M 33.8 84.55
Q 33.6 80.25 37.7 79.45 38.9517578125 80.381640625 39.8 81.2 44.956640625 86.0853515625 35.65 86.6 34.8314453125 86.6466796875 34.35 86.2 33.8533203125 85.6943359375 33.8 84.55 Z"/>

<path fill="#FFFFFF" stroke="none" d="
M 49.35 70.25
Q 49.75 71.75 43.4 72.45 42.27890625 74.7068359375 40.95 76.85 41.66015625 77.230859375 42.3 77.6
L 48 81.35
Q 48.2740234375 81.53046875 48.5 81.7 49.6859375 79.8552734375 50.7 77.85 53.6 64.95 54.15 61.7 51.091015625 60.633984375 47.95 59.85 47.1314453125 63.3158203125 45.9 66.6 48.9755859375 68.876171875 49.35 70.25
M 47 49.45
L 47.05 49.45 50.6 51.15
Q 50.6486328125 51.196484375 50.7 51.25
L 48.15 54.8 48.1 54.8 47.25 54.7
Q 47.06875 54.6939453125 46.85 54.6 46.883203125 55.721484375 46.95 56.85 46.98828125 56.86171875 47 56.85 50.9287109375 58.308203125 54.3 61 55.250390625 55.5166015625 54.45 46.95 50.8798828125 46.2138671875 47.3 45.7 47.041796875 47.55703125 46.9 49.5 46.95703125 49.4908203125 47 49.45 Z"/>

<path fill="#333333" stroke="none" d="
M 25.75 66.95
Q 26.35 61.1 27 58.5 27 58.55 11.5 62.05 11.248828125 67.411328125 10.55 72.6 10.8 72.5 18 72.25 21.55 72.1 25.1 72 25.2 72 25.75 66.95
M 12.3 49.1
Q 11.9 49.2 11.5 49.35 11.775 55.4001953125 11.55 61.2 19.4212890625 56.7017578125 29 55.85 29.390625 52.0787109375 30.05 48.3 36.92578125 46.9716796875 43.65 45.25 40.2251953125 44.88359375 36.8 44.8 24.2 45.5 12.3 49.1 Z"/>

<path fill="url(#Gradient_3)" stroke="none" d="
M 27 58.5
Q 26.35 61.1 25.75 66.95 25.2 72 25.1 72 34.3720703125 73.17421875 42.3 77.6 41.66015625 77.230859375 40.95 76.85 42.27890625 74.7068359375 43.4 72.45 41.324609375 72.331640625 41.85 69.8 42.15 68.45 44 67.4 45.65 66.4 45.9 66.6 47.1314453125 63.3158203125 47.95 59.85 37.6765625 57.3763671875 27 58.5 Z"/>

<path fill="url(#Gradient_4)" stroke="none" d="
M 47.3 45.7
L 47.25 45.7 43.65 45.25
Q 36.92578125 46.9716796875 30.05 48.3 29.390625 52.0787109375 29 55.85 31.3 55.65 36.7 55.75 44.10234375 55.8486328125 46.95 56.85 46.883203125 55.721484375 46.85 54.6 47.06875 54.6939453125 47.25 54.7 46.7791015625 54.6162109375 46.15 54.35 44.6 53.6 44.75 52.6 45.06171875 50.300390625 46.9 49.5 47.041796875 47.55703125 47.3 45.7 Z"/>
</g>

<g id="fdudebody_0_Layer1_0_FILL">
<path fill="#000000" stroke="none" d="
M 121.25 29.25
Q 100.3 12.5 92.8 9.95 86.35 7.7 80.05 7.4 73.2 7.1 67.3 9.1 18.4 46.25 9.6 57.35 7.311328125 62.9015625 8.35 68.05 8.7 70.05 20.2 90.35 26 100.65 32.35 111.9
L 35.25 127.75
Q 38.5 143.85 40.3 145.4 41.697265625 146.5537109375 79.9 146.35 118.1580078125 146.1888671875 118.25 143.6 118.391796875 141.0111328125 135.55 109.35 152.7025390625 77.6962890625 152.55 75.15 152.85 73.6 151.65 67.05 150.4 60.1 149.05 57.4 144.05 47.5 121.25 29.25
M 90.35 20.3
Q 99.4 25.45 109.35 32.1 136.35 50.05 142.3 59.9 146.1015625 66.0220703125 146.2 70.8
L 146.2 70.95
Q 146.2173828125 71.4888671875 145.95 72.5 145.502734375 74.4466796875 144.1 78.1 143.6052734375 79.4068359375 143.15 80.5 141.8708984375 83.73203125 141.05 85.15
L 109.3 138.75
Q 106.75 138.3 77.4 137.7 48.9 137.1 48.5 136.8 47.75 136.25 45.85 129.7 43.5 121.55 43 120.25 42.95 120.05 42.85 119.85 41.3 115.7 33.25 101.65 25.25 87.65 17 74.7 15.8 72.85 15.8 66.8 15.8 60.65 17.05 58.8 22.3 51.25 30.75 43.55 36.15 38.6 46.7 30.45 56.35 22.95 62.5 19.75 71.85 14.9 80.2 15.35 80.3 15.35 80.4 15.35 81.9 15.45 90.35 20.3 Z"/>

<path fill="#54433B" stroke="none" d="
M 42.85 119.85
Q 42.95 120.05 43 120.25
L 43 119.8
Q 42.95 119.8 42.85 119.85
M 109.35 32.1
Q 99.4 25.45 90.35 20.3 81.9 15.45 80.4 15.35 78 17 54.75 37.25 30.4 58.4 28.1 61.45 27.25 62.6 26.95 66.25 26.65 69.85 27.25 70.85
L 35.25 80.9
Q 43.749609375 91.1529296875 46.65 97.15 49.5564453125 103.2013671875 60.5 106.55 71.4408203125 109.9423828125 84.75 106.35 98.0625 102.759765625 97.65 98.05 98.59765625 105.2572265625 112.75 105.4 126.90234375 105.5998046875 133.8 95.35 140.743359375 85.1521484375 143.15 80.5 143.6052734375 79.4068359375 144.1 78.1 145.502734375 74.4466796875 145.95 72.5 146.1365234375 71.46328125 146.15 70.45 146.191796875 70.6431640625 146.2 70.8 146.1015625 66.0220703125 142.3 59.9 136.35 50.05 109.35 32.1 Z"/>

<path fill="#2E2724" stroke="none" d="
M 143.15 80.5
Q 140.743359375 85.1521484375 133.8 95.35 126.90234375 105.5998046875 112.75 105.4 98.59765625 105.2572265625 97.65 98.05 98.0625 102.759765625 84.75 106.35 71.4408203125 109.9423828125 60.5 106.55 49.5564453125 103.2013671875 46.65 97.15 43.749609375 91.1529296875 35.25 80.9
L 27.25 70.85
Q 26.65 69.85 26.95 66.25 27.25 62.6 28.1 61.45 30.4 58.4 54.75 37.25 78 17 80.4 15.35 80.3 15.35 80.2 15.35 71.85 14.9 62.5 19.75 56.35 22.95 46.7 30.45 36.15 38.6 30.75 43.55 22.3 51.25 17.05 58.8 15.8 60.65 15.8 66.8 15.8 72.85 17 74.7 25.25 87.65 33.25 101.65 41.3 115.7 42.85 119.85 42.95 119.8 43 119.8
L 43 120.25
Q 43.5 121.55 45.85 129.7 47.75 136.25 48.5 136.8 48.9 137.1 77.4 137.7 106.75 138.3 109.3 138.75
L 141.05 85.15
Q 141.8708984375 83.73203125 143.15 80.5
M 146.2 70.8
Q 146.191796875 70.6431640625 146.15 70.45 146.1365234375 71.46328125 145.95 72.5 146.2173828125 71.4888671875 146.2 70.95
L 146.2 70.8 Z"/>
</g>

<g id="fdudebody_0_Layer0_0_FILL">
<path fill="#000000" stroke="none" d="
M 47.7 144.95
Q 48 144.75 75.9 145.65 104.1 146.55 104.7 146.45 104.8 146.95 105.15 150.9 105.55 154.75 105.8 155.4 106.2 156.4 106.95 156.95 107.8 157.6 108.65 157.3 108.95 157.2 109.9 155.2 110.85 153.25 110.95 152.55 111.45 150.5 112 146.5 112.6 142.25 112.4 141.45 112.35 141 81.15 139.2 48.55 137.4 45.7 137.2 44.6 137.15 42.25 138.5 39.85 139.85 39.65 140.65 39.5 141.4 39 147.6 38.4 154.55 38.65 155.6 39 156.85 39.8 157.7 40.7 158.65 41.8 158.6 43.65 158.5 44.7 155.55 45 154.8 46.1 149.75 47.05 145.45 47.7 144.95 Z"/>
</g>

<g id="fdudehelm_1_Layer0_0_FILL">
<path fill="#000000" stroke="none" d="
M 99.45 79.65
Q 97.4537109375 67.869140625 92.45 58.15 87.4990234375 48.4263671875 76.1 41.6 71.35 38.8 62.4 36.7 54.45 35.15 54.35 35.1 49.6 31.2 38.35 23.8 28.25 17.3 28.25 17.15 10.05 50.65 9.6 52.6 8.15 54.05 4.75 59.85 0.3 67.4 0.3 71.25 -7.9453125 74.56328125 -16.1 78.5 -18.3 79.55 -19.6 81.4 -27.7 93.1 -20.65 107.15 -19.4513671875 109.555078125 -12.25 119 -4.992578125 128.48671875 12.5 134.25 30.03828125 140.01328125 33.9 138.5 37.8126953125 136.9822265625 43.95 126.15 55.9427734375 128.7232421875 66.35 126.55 68.469140625 127.1376953125 74.4 132.05 80.3330078125 136.97734375 86.25 133.6 92.20625 130.2060546875 96.95 127.2 114.6 115.95 100.15 102 101.494921875 91.4330078125 99.45 79.65
M 84 61.35
Q 91.135546875 75.7896484375 92.45 86.45 93.8478515625 97.7552734375 93.2 103.55 91.1720703125 107.6439453125 87.9 110.85 85.0123046875 113.7408203125 81.15 115.95 59.55 128.35 35.35 119.05 15.50390625 111.448828125 7.7 96.75 8.7318359375 85.7580078125 11.55 75 6.7763671875 81.679296875 6.45 90.6 6.4513671875 90.7248046875 6.45 90.8 6.45 91.85 4.55 85.75 2.7 79.6 2.65 75.15 5.1552734375 69.3083984375 9 63.9 13.628125 57.380078125 20.2 51.5 25.438671875 46.8572265625 32.45 44.5 26.9939453125 48.9373046875 25 53.75 30.2072265625 48.375390625 36.05 43.5 43.2638671875 41.84609375 52.1 42.3 60.0201171875 45.779296875 67.4 50.05 83.3 60.75 84 61.35
M 41.45 32.4
Q 48.9 37.9 46.95 37.5 45.6505859375 37.2912109375 44.2 37.25 44.35703125 37.1517578125 44.5 37.05 44.45 37.05 44.4 37.05 44.2064453125 37.14375 44 37.25 43.700390625 37.2412109375 43.35 37.25 41.65 37.2466796875 39.7 37.5 39.668359375 37.5154296875 39.6 37.5 39.1841796875 37.5787109375 38.75 37.65 38.6576171875 37.6611328125 38.55 37.65 36.9177734375 37.9474609375 35.1 38.4 32.729296875 39.00546875 30.65 40
L 24.35 44.85
Q 24.2720703125 44.9388671875 24.2 45 24.1251953125 45.108203125 24.05 45.2 31.1 26.7 31.05 24.75 31.3412109375 24.9970703125 31.85 25.4 34.24453125 27.2533203125 41.45 32.4
M 0.15 81.4
Q 0.25 82.25 0.75 84.85 1.2 87.25 1.35 87.7 4.71328125 100.788671875 12.85 109.7 12.9783203125 109.8404296875 13.1 109.95
L 37.65 124.55 40.9 125.45
Q 38.993359375 127.305078125 37.65 130.15 34.21796875 137.3623046875 26.6 134.8
L 26.55 134.8
Q 2.75 126.7 2.1 126.35 0.75 125.75 -2.35 123.8 -5.2 122 -5.95 121.4 -6.35 121.1 -17.7 105.2 -17.7166015625 105.1421875 -17.75 105.05 -18.5337890625 102.9201171875 -19.1 100.6
L -20.2 94.75
Q -20.15 92.6 -19.65 91.8 -13.8 82.45 -2.15 77.5 -0.7181640625 76.891796875 0.3 76.25 0.15 81.3 0.15 81.4
M 75.8 129.55
Q 69.35 126.6 68.25 126.15 71.5330078125 125.3173828125 74.65 124
L 92.85 110.75
Q 92.9529296875 110.704296875 93 110.6 93.79609375 109.784765625 94.55 108.9 94.75 108.7 96.95 110.65 98.25 111.75 100.85 114.2 99.6427734375 115.5083984375 98.4 116.8 94 121.5 81.7 131.8 81.5291015625 131.865234375 81.3 131.85 80.9 131.95 75.8 129.55
M 55.9 42.6
Q 75.0625 44.751953125 82.7 58.7 71.1869140625 47.8662109375 55.9 42.6 Z"/>

<path fill="#666666" stroke="none" d="
M 82.7 58.7
Q 75.0625 44.751953125 55.9 42.6 71.1869140625 47.8662109375 82.7 58.7
M 74.65 124
Q 74.35 124.15 76.9 127.05 79.05 129.6 81.3 131.85 81.5291015625 131.865234375 81.7 131.8 94 121.5 98.4 116.8 95.8544921875 113.4994140625 93 110.6 92.9529296875 110.704296875 92.85 110.75
L 74.65 124
M 13.1 109.95
Q 12.9783203125 109.8404296875 12.85 109.7 4.71328125 100.788671875 1.35 87.7 -9.5341796875 94.896875 -17.75 105.05 -17.7166015625 105.1421875 -17.7 105.2 -6.35 121.1 -5.95 121.4 -5.2 122 -2.35 123.8 0.75 125.75 2.1 126.35 2.75 126.7 26.55 134.8
L 26.6 134.8
Q 26.7158203125 134.8533203125 26.8 134.85 28.75 132.9 33.55 128.45 37.7 124.6 37.65 124.55
L 13.1 109.95
M 39.6 37.5
Q 39.668359375 37.5154296875 39.7 37.5 41.65 37.2466796875 43.35 37.25 41.1470703125 34.5470703125 37.8 32.35 37.7048828125 35.2173828125 38.55 37.65 38.6576171875 37.6611328125 38.75 37.65 39.1841796875 37.5787109375 39.6 37.5
M 24.75 54.3
Q 24.5189453125 54.4107421875 24.25 54.5 24.6373046875 54.1203125 25 53.75 26.9939453125 48.9373046875 32.45 44.5 25.438671875 46.8572265625 20.2 51.5 13.628125 57.380078125 9 63.9 7.5740234375 69.9759765625 7.1 76.35 6.5529296875 83.5423828125 6.45 90.6 6.7763671875 81.679296875 11.55 75 11.648046875 74.8884765625 11.75 74.75 11.7298828125 74.5796875 11.7 74.4 10.2693359375 60.920703125 24.7 54.5 24.730859375 54.4134765625 24.75 54.3
M 82.75 72.8
Q 86.3498046875 80.4578125 88.55 89 91.4513671875 100.2591796875 87.9 110.85 91.1720703125 107.6439453125 93.2 103.55 93.8478515625 97.7552734375 92.45 86.45 91.135546875 75.7896484375 84 61.35 83.3 60.75 67.4 50.05 67.25 50 69.55 52.8 72.5 56.35 73.6 57.75 85.5431640625 61.3044921875 82.75 72.8 Z"/>

<path fill="#999999" stroke="none" d="
M 93 110.6
Q 95.8544921875 113.4994140625 98.4 116.8 99.6427734375 115.5083984375 100.85 114.2 98.25 111.75 96.95 110.65 94.75 108.7 94.55 108.9 93.79609375 109.784765625 93 110.6
M 76.9 127.05
Q 74.35 124.15 74.65 124 71.5330078125 125.3173828125 68.25 126.15 69.35 126.6 75.8 129.55 80.9 131.95 81.3 131.85 79.05 129.6 76.9 127.05
M 26.6 134.8
Q 34.21796875 137.3623046875 37.65 130.15 38.993359375 127.305078125 40.9 125.45
L 37.65 124.55
Q 37.7 124.6 33.55 128.45 28.75 132.9 26.8 134.85 26.7158203125 134.8533203125 26.6 134.8
M 0.75 84.85
Q 0.25 82.25 0.15 81.4 -19.05 100.9 -19.1 100.6 -18.5337890625 102.9201171875 -17.75 105.05 -9.5341796875 94.896875 1.35 87.7 1.2 87.25 0.75 84.85
M 46.95 37.5
Q 48.9 37.9 41.45 32.4 34.24453125 27.2533203125 31.85 25.4 32.034765625 31.628125 31.45 38.15 31.3810546875 38.9310546875 31.3 39.7 30.97890625 39.8431640625 30.65 40 32.729296875 39.00546875 35.1 38.4 36.9177734375 37.9474609375 38.55 37.65 37.7048828125 35.2173828125 37.8 32.35 41.1470703125 34.5470703125 43.35 37.25 43.700390625 37.2412109375 44 37.25 44.2064453125 37.14375 44.4 37.05 44.45 37.05 44.5 37.05 44.35703125 37.1517578125 44.2 37.25 45.6505859375 37.2912109375 46.95 37.5
M 2.65 75.15
Q 2.7 79.6 4.55 85.75 6.45 91.85 6.45 90.8 6.4513671875 90.7248046875 6.45 90.6 6.5529296875 83.5423828125 7.1 76.35 7.5740234375 69.9759765625 9 63.9 5.1552734375 69.3083984375 2.65 75.15 Z"/>

<path fill="#FFFFFF" stroke="none" d="
M 0.15 81.4
Q 0.15 81.3 0.3 76.25 -0.7181640625 76.891796875 -2.15 77.5 -13.8 82.45 -19.65 91.8 -20.15 92.6 -20.2 94.75
L -19.1 100.6
Q -19.05 100.9 0.15 81.4
M 31.85 25.4
Q 31.3412109375 24.9970703125 31.05 24.75 31.1 26.7 24.05 45.2 24.1251953125 45.108203125 24.2 45 24.2720703125 44.9388671875 24.35 44.85
L 30.65 40
Q 30.97890625 39.8431640625 31.3 39.7 31.3810546875 38.9310546875 31.45 38.15 32.034765625 31.628125 31.85 25.4 Z"/>

<path fill="#FF3300" stroke="none" d="
M 28.6 53.35
Q 26.6716796875 53.6712890625 24.75 54.3 24.730859375 54.4134765625 24.7 54.5 10.2693359375 60.920703125 11.7 74.4 11.7431640625 74.29296875 11.75 74.15 12.1546875 76.25078125 12.9 78.5 18.05 93.9 33.65 88.2 42.65 84.95 44.15 75.9 47.15 57.25 28.6 53.35
M 29.4 58.85
Q 41.5 60.5 38.4 73.4 36.3 82.2 26.25 82 14.4 81.8 17.6 70.3 20.1 61.5 29.4 58.85
M 81.55 76.55
Q 82.325390625 74.5939453125 82.75 72.8 85.5431640625 61.3044921875 73.6 57.75 71.77265625 57.2072265625 69.6 56.85 62.7 61.1 63.9 69.7 65.5 80.8 76.85 79.9 80.35 79.6 81.55 76.55
M 69.25 73.15
Q 66.15 66.4 71.3 62.7 84.6 64.6 75.3 74 71.45 77.85 69.25 73.15 Z"/>

<path fill="#FF9900" stroke="none" d="
M 38.4 73.4
Q 41.5 60.5 29.4 58.85 20.1 61.5 17.6 70.3 14.4 81.8 26.25 82 36.3 82.2 38.4 73.4
M 71.3 62.7
Q 66.15 66.4 69.25 73.15 71.45 77.85 75.3 74 84.6 64.6 71.3 62.7 Z"/>

<path fill="url(#Gradient_5)" stroke="none" d="
M 88.55 89
Q 86.3498046875 80.4578125 82.75 72.8 82.325390625 74.5939453125 81.55 76.55 80.35 79.6 76.85 79.9 65.5 80.8 63.9 69.7 62.7 61.1 69.6 56.85 71.77265625 57.2072265625 73.6 57.75 72.5 56.35 69.55 52.8 67.25 50 67.4 50.05 60.0201171875 45.779296875 52.1 42.3 43.2638671875 41.84609375 36.05 43.5 30.2072265625 48.375390625 25 53.75 24.6373046875 54.1203125 24.25 54.5 24.5189453125 54.4107421875 24.75 54.3 26.6716796875 53.6712890625 28.6 53.35 47.15 57.25 44.15 75.9 42.65 84.95 33.65 88.2 18.05 93.9 12.9 78.5 12.1546875 76.25078125 11.75 74.15 11.7431640625 74.29296875 11.7 74.4 11.7298828125 74.5796875 11.75 74.75 11.648046875 74.8884765625 11.55 75 8.7318359375 85.7580078125 7.7 96.75 15.50390625 111.448828125 35.35 119.05 59.55 128.35 81.15 115.95 85.0123046875 113.7408203125 87.9 110.85 91.4513671875 100.2591796875 88.55 89 Z"/>
</g>

<g id="Symbol_24_0_Layer0_0_FILL">
<path fill="url(#Gradient_6)" stroke="none" d="
M 77.75 343.95
Q 74.7 343.55 59.7 343.55 39 343.55 31.05 347.55 24.3 350.95 24.3 358.9 24.3 365.7 30.85 381.55 34.7 390.9 39.15 399.75
L 39.15 401.1
Q 33.75 398.4 29.7 398.4 25.05 398.4 23 401.15 21.6 403 21.6 405.65 21.6 413.6 27.25 422.65 32.3 430.7 39.15 435.85
L 39.15 438.55 39.05 439.25
Q 38.55 439.9 36.45 439.9 19.05 439.9 8.25 425.25 4.45 420.1 2.15 414 0.3 409.05 0.3 406.35 0.3 403.5 1.05 397.9 1.9 391.8 2.85 388.95
L 2.85 387.6
Q 1.1 389.35 -10.9 394 -17.2 396.4 -26.3 399.75 -28.65 400.7 -31.5 410.1 -34.4 419.8 -34.4 427.75 -34.4 451.5 -8.4 472.6 0 479.45 11.35 486.1 17.0890625 489.427734375 23.8 493.1 25.241796875 493.3849609375 25.65 493.4
L 24.3 493.4
Q 24.0517578125 493.2634765625 23.8 493.1 20.4900390625 492.53359375 11.7 490.65 -0.7 488 -3.5 488 -9.35 488 -11.65 489.4 -14.3 491 -14.3 495.45 -14.3 510.35 10.25 516.6 17.9 518.55 29.45 519.95 42.25 521.45 43 521.6 42.4 522.85 35.75 525.4 28.5 528.25 27 529.5 31.45 540.65 71.25 550 109.95 559.05 148.8 559.05 170.65 559.05 196.1 553 196.7 552.85 212.45 548.8 217.1990234375 547.5806640625 219.95 547.15 207.918359375 547.4515625 177.9 533.5 165.95 527.95 154.2 521.5 143.9 515.9 140.7 513.5
L 140.7 512.15 147.45 512.15
Q 167.15 519.45 198.4 523.65 222.05 526.8 237.75 526.8 261.25 526.8 278.35 522.6 282.5447265625 521.571875 291 519.35 280.2146484375 515.9318359375 272.35 512.9 247.85 503.45 247.85 494.1 247.85 489.15 253.5 486.7 256.35 485.45 265.95 483.6 274.65 481.9 278.35 479.75 284 476.4 284 469.95 284 460.85 267.6 447.3 253.05 435.25 229.15 422.55 206.55 410.45 184.65 402.55 161.95 394.35 150.15 394.35 132.85 394.35 120.4 403.1 117.690234375 404.9841796875 115.4 407.05 117.298828125 406.35 119.95 406.35 131.35 406.35 139.35 415.85 146.1 423.8 146.1 431.15 146.1 435.2 139.4 435.9 131.6 435.85 129.4 435.85 116.65 435.85 107.35 431.85 95.3 426.65 95.3 416.45 95.3 413.3 96.8 409.6 98.05 406.6 99.35 405 91.75 406.05 87.75 401.4 84.5 397.65 84.5 391.65 84.5 373.3 103.1 372.5 108.3 372.3 117.15 373.55 124.75 374.65 126.05 374.25 124.75 373.35 114.65 364.3 104.85 355.55 100.7 352.85 89.35 345.55 77.75 343.95 Z"/>

<path fill="url(#Gradient_7)" stroke="none" d="
M 396.55 336.8
L 397.9 336.8
Q 402.55 333.65 405.15 333.05 406.6 332.75 412.55 332.75 419.3 332.75 422 335.45 425.9 339.35 425.9 350.8 425.9 372.95 411.7 397.85 398.9 420.4 376.8 441.5 356 461.4 332.65 474.75 312.525390625 486.3109375 296.15 489.75 297.1091796875 489.85078125 298.25 489.95 306.75 490.4 315.5 489.5 333.8123046875 487.694921875 350.85 480.7 352.5171875 479.7466796875 354.3 478.75 362.051171875 474.5150390625 367.95 471.25 373.5578125 468.138671875 377.5 465.9 407.95 448.4 424.7 430.45 424.2 434.25 418.85 443.25 413.6 452.2 406.35 461.55 395.958203125 475.03359375 388.55 480.9 391.878125 479.680859375 396.45 478.45 412 474.25 413.9 473.3
L 420.65 473.3
Q 419.65 488.3 386.95 508.5 374.2 516.35 361.65 521.7 350.0771484375 526.659765625 344.85 526.8
L 363.15 526.8
Q 363.15 524.8 366.2 525.55 371.35 526.8 371.75 526.8
L 363.15 526.8
Q 363.15 530.5 377.55 528.6 392.75 526.55 409.3 519.85 429.15 511.75 441.05 500.35 455.45 486.5 455.45 469.95 455.45 463.9 449.75 462.9 441.6 462.6 436.7 461.35
L 436.7 460
Q 459.55 446.15 469.45 436 486.15 418.95 486.15 398.25 486.15 385.4 483.05 378.05 479.9 370.55 471.45 363.65 470.6 369.5 464.05 374.55 460.4 377.45 455.45 379.65 455.45 378.8 454.8 378.45
L 454.1 378.3
Q 457.7 367.7 459.25 363.05 462 354.85 462 346.75 462 335.45 456.8 324.75 450.9 312.65 442.6 312.65 434.5 312.65 422.25 318.8 408.8 325.5 396.55 336.8 Z"/>
</g>
</defs>

<g id="Layer_2">
<g transform="matrix( 0.8203582763671875, 0, 0, 0.8203582763671875, 455.25,327.1) ">
<g transform="matrix( 1, 0, 0, 1, -2.7,-14.25) ">
<g id="Layer_1">
<g transform="matrix( 0.9792022705078125, -0.202880859375, 0.202880859375, 0.9792022705078125, -66.8,48.35) ">
<g transform="matrix( 1, 0, 0, 1, 0,0) ">
<use xlink:href="#Symbol_13_0_Layer1_0_FILL"/>
</g>

<g id="Layer_3">
<g transform="matrix( 1, 0, 0, 1, 0,0) ">
<use xlink:href="#Symbol_13_0_Layer0_0_FILL"/>
</g>
</g>
</g>

<g transform="matrix( -1.27618408203125, 0.264404296875, -0.264404296875, -1.27618408203125, 69.75,72.6) ">
<g transform="matrix( 1, 0, 0, 1, 0,0) ">
<use xlink:href="#spark_0_Layer0_0_FILL"/>
</g>
</g>
</g>

<g id="Symbol_84">
<g transform="matrix( 0.6385040283203125, 0.7695770263671875, 0.7695770263671875, -0.6385040283203125, 92.65,95.8) ">
<g transform="matrix( 1, 0, 0, 1, 0,0) ">
<use xlink:href="#fdudearm_2_Layer1_0_FILL"/>
</g>
</g>
</g>

<g id="Symbol_85">
<g transform="matrix( 1, 0, 0.1150360107421875, 1, -14.65,54.2) ">
<g transform="matrix( 1, 0, 0, 1, 0,0) ">
<use xlink:href="#fdudebody_0_Layer1_0_FILL"/>
</g>

<g transform="matrix( 1, 0, 0, 1, 0,0) ">
<use xlink:href="#fdudebody_0_Layer0_0_FILL"/>
</g>
</g>
</g>

<g transform="matrix( -0.3889617919921875, 0.9212188720703125, -0.9212188720703125, -0.3889617919921875, 54.15,84.05) ">
<g transform="matrix( 1, 0, 0, 1, 0,0) ">
<use xlink:href="#fdudearm_2_Layer1_0_FILL"/>
</g>
</g>

<g id="Symbol_83">
<g transform="matrix( 0.9981536865234375, -0.0606231689453125, 0.0606231689453125, 0.9981536865234375, 27.2,-4) ">
<g id="Layer_4">
<g transform="matrix( 1, 0, 0, 1, 0,0) ">
<use xlink:href="#fdudehelm_1_Layer0_0_FILL"/>
</g>
</g>
</g>
</g>

<g transform="matrix( 0.411102294921875, 0, 0, 0.411102294921875, -21.05,-7.75) ">
<g transform="matrix( 1, 0, 0, 1, 0,0) ">
<use xlink:href="#Symbol_24_0_Layer0_0_FILL"/>
</g>
</g>
</g>
</g>
</g>
</svg>
