
<svg xmlns="http://www.w3.org/2000/svg" version="1.1" xmlns:xlink="http://www.w3.org/1999/xlink" preserveAspectRatio="none" x="0px" y="0px" width="1000px" height="1000px" viewBox="0 0 1000 1000">
<defs>
<linearGradient id="Gradient_1" gradientUnits="userSpaceOnUse" x1="79.85" y1="3.3999999999999986" x2="79.85" y2="93.4" spreadMethod="pad">
<stop  offset="0%" stop-color="#000000"/>

<stop  offset="20.784313725490197%" stop-color="#FF0000"/>

<stop  offset="39.6078431372549%" stop-color="#FF7000"/>

<stop  offset="74.11764705882354%" stop-color="#FFE000"/>

<stop  offset="100%" stop-color="#FFFFFF"/>
</linearGradient>

<linearGradient id="Gradient_2" gradientUnits="userSpaceOnUse" x1="71.5375" y1="109.54999999999998" x2="109.36250000000001" y2="163.85" spreadMethod="pad">
<stop  offset="0%" stop-color="#1E1E1E"/>

<stop  offset="29.80392156862745%" stop-color="#FF4F2C"/>

<stop  offset="64.70588235294117%" stop-color="#FFB600"/>

<stop  offset="100%" stop-color="#FFFFFF"/>
</linearGradient>

<linearGradient id="Gradient_3" gradientUnits="userSpaceOnUse" x1="29.9875" y1="41.7" x2="12.6125" y2="41.7" spreadMethod="pad">
<stop  offset="0%" stop-color="#000000"/>

<stop  offset="20.784313725490197%" stop-color="#FF0000"/>

<stop  offset="39.6078431372549%" stop-color="#FF7000"/>

<stop  offset="74.11764705882354%" stop-color="#FFE000"/>

<stop  offset="100%" stop-color="#FFFFFF"/>
</linearGradient>

<linearGradient id="Gradient_4" gradientUnits="userSpaceOnUse" x1="76.225" y1="72.63749999999999" x2="151.875" y2="149.3625" spreadMethod="pad">
<stop  offset="0%" stop-color="#333333"/>

<stop  offset="53.333333333333336%" stop-color="#FF4F2C"/>

<stop  offset="84.31372549019608%" stop-color="#FFB600"/>

<stop  offset="100%" stop-color="#FFFFFF"/>
</linearGradient>

<linearGradient id="Gradient_5" gradientUnits="userSpaceOnUse" x1="35.3625" y1="43.85" x2="97.03750000000001" y2="43.85" spreadMethod="pad">
<stop  offset="0%" stop-color="#000000"/>

<stop  offset="20.784313725490197%" stop-color="#FF0000"/>

<stop  offset="39.6078431372549%" stop-color="#FF7000"/>

<stop  offset="74.11764705882354%" stop-color="#FFE000"/>

<stop  offset="100%" stop-color="#FFFFFF"/>
</linearGradient>

<linearGradient id="Gradient_6" gradientUnits="userSpaceOnUse" x1="81.8375" y1="8.5" x2="81.6625" y2="15.2" spreadMethod="pad">
<stop  offset="0%" stop-color="#000000"/>

<stop  offset="20.784313725490197%" stop-color="#FF0000"/>

<stop  offset="39.6078431372549%" stop-color="#FF7000"/>

<stop  offset="74.11764705882354%" stop-color="#FFE000"/>

<stop  offset="100%" stop-color="#FFFFFF"/>
</linearGradient>

<radialGradient id="Gradient_7" gradientUnits="userSpaceOnUse" cx="0" cy="0" r="30.879630219612412" fx="0" fy="0" gradientTransform="matrix( 0.48454271937806265, -0.8747675994786912, 0.8747675994786912, 0.48454271937806265, 34.85,35.05) " spreadMethod="pad">
<stop  offset="12.549019607843137%" stop-color="#FFFFFF"/>

<stop  offset="56.86274509803921%" stop-color="#FFFD2C"/>
</radialGradient>

<linearGradient id="Gradient_8" gradientUnits="userSpaceOnUse" x1="38.775" y1="58.9125" x2="32.725" y2="72.4875" spreadMethod="pad">
<stop  offset="0%" stop-color="#999999"/>

<stop  offset="100%" stop-color="#666666"/>
</linearGradient>

<linearGradient id="Gradient_9" gradientUnits="userSpaceOnUse" x1="36.7125" y1="58" x2="35.7875" y2="70.5" spreadMethod="pad">
<stop  offset="0%" stop-color="#999999"/>

<stop  offset="100%" stop-color="#666666"/>
</linearGradient>

<linearGradient id="Gradient_10" gradientUnits="userSpaceOnUse" x1="47.6625" y1="54.9875" x2="49.237500000000004" y2="114.91250000000001" spreadMethod="pad">
<stop  offset="0%" stop-color="#000000"/>

<stop  offset="100%" stop-color="#3C3C3C"/>
</linearGradient>

<linearGradient id="Gradient_11" gradientUnits="userSpaceOnUse" x1="275.4375" y1="635.85" x2="68.66250000000001" y2="177.85000000000002" spreadMethod="pad">
<stop  offset="0%" stop-color="#FF6600"/>

<stop  offset="50.98039215686274%" stop-color="#FFCC00"/>

<stop  offset="100%" stop-color="#FFFF99"/>
</linearGradient>

<linearGradient id="Gradient_12" gradientUnits="userSpaceOnUse" x1="-8.012500000000017" y1="412.875" x2="346.9125" y2="390.92499999999995" spreadMethod="pad">
<stop  offset="0%" stop-color="#FF6600"/>

<stop  offset="50.98039215686274%" stop-color="#FFCC00"/>

<stop  offset="100%" stop-color="#FFFF99"/>
</linearGradient>

<g id="Symbol_13_4_Layer1_0_FILL">
<path fill="url(#Gradient_1)" stroke="none" d="
M 18.65 153.35
Q 28.75 158.1 38.95 161.25 89.4 176.85 143.7 153.35 186.85 76.2 143.7 4.9 81.25 -21.7 18.65 4.9 -29.9 73.2 18.65 153.35
M 137.75 14.8
Q 138.35 17.6 126.8 22.15 99.5 29.25 72.7 28.3 72.55 28.25 72.4 28.25 55 27 46.25 25.35
L 46.25 25.3
Q 42.05 24.55 35.7 23 22.25 17.15 24.65 13.5
L 24.75 13.4
Q 24.9 13.05 26.05 12.55 42.05 5.7 58.15 2.9 84.15 0.85 85.15 0.9 111 1.7 137.05 12.8
L 137.35 13.1 137.3 13.2
Q 137.7 13.8 137.75 14.8
M 147.9 34.5
L 149.95 40.1
Q 163.55 79.8 148.25 121.5
L 147.05 124.55
Q 146.4 126.2 143 133.5 139.1 141.95 137.05 145.6 83.65 168.65 34.5 149.65 29.8 147.8 25.15 145.6 18.55 134.75 14 124.1 13.7 123.5 13.45 122.9 -4.95 79.3 10.4 39.75
L 12.75 34.15
Q 18.3 23.15 21.65 18 21 21.45 33.55 26.65 37.25 27.55 41 28.3 84.4 36.9 129.05 25.85 139.4 21.9 140.65 19.05 144.8 26.75 147.9 34.5 Z"/>

<path fill="url(#Gradient_2)" stroke="none" d="
M 28.35 131.3
L 29.5 135.7 34.5 149.65
Q 83.65 168.65 137.05 145.6 139.1 141.95 143 133.5 146.4 126.2 147.05 124.55 146.6 125 142.65 126.85 138.05 129.1 134.95 130.15 80.8 142.05 28.35 131.3 Z"/>

<path fill="#666666" stroke="none" d="
M 28.25 130.85
Q 15.45 126.05 14 124.1 18.55 134.75 25.15 145.6 29.8 147.8 34.5 149.65
L 29.5 135.7 28.35 131.3
Q 28.3 131.05 28.25 130.85
M 137.3 13.2
Q 137.15 13 137.05 12.8 111 1.7 85.15 0.9 84.85 0.9 84.5 0.95 63.95 2.85 47.55 9.95 46.35 10.45 44.1 12.7 41.7 15.05 41.75 16.1 41.9 18.5 45.05 20.9 48.45 23.3 59.05 25.85 67.6 27.8 72.4 28.25 72.55 28.25 72.7 28.3 99.5 29.25 126.8 22.15 138.35 17.6 137.75 14.8 137.7 13.8 137.3 13.2
M 81.8 3.5
Q 90.5 3.5 96.6 5.7 102.75 7.85 102.75 10.85 102.75 14 96.6 16.1 90.5 18.3 81.8 18.3 73.15 18.3 67 16.1 60.9 14 60.9 10.85 60.9 7.85 67 5.7 73.15 3.5 81.8 3.5
M 97.6 12
Q 97.45 11.5 94.45 10.15 91.55 8.95 90.7 8.8 87.2 8.4 85.2 8.4 82.2 8.45 79.9 9.25 78.7 9.7 76.55 10.85 74.75 11.95 74.15 12.9 73.95 13.3 74.25 14.35 74.5 15.45 74.8 15.6 78.05 16.1 81.8 16.1 89.05 16.1 94.15 14.35 97.1 13.45 98.35 12.25 98.25 12.3 97.9 12.2
L 97.6 12 Z"/>

<path fill="#FF9900" stroke="none" d="
M 26.5 43.2
Q 29.55 43.85 32.55 44.45
L 41 28.3
Q 37.25 27.55 33.55 26.65 21 21.45 21.65 18 18.3 23.15 12.75 34.15 11.75 37.85 26.5 43.2 Z"/>

<path fill="#999999" stroke="none" d="
M 30.1 49.25
L 30.1 49
Q 27.25 48.45 24.4 47.85 10.85 43.1 10.4 39.75 -4.95 79.3 13.45 122.9 13.7 123.5 14 124.1 15.45 126.05 28.25 130.85 15.75 85.25 28.35 53.35 29.15 51.25 30.1 49.25
M 84.5 0.95
Q 84.85 0.9 85.15 0.9 84.15 0.85 58.15 2.9 42.05 5.7 26.05 12.55 24.9 13.05 24.75 13.4
L 24.65 13.5
Q 22.25 17.15 35.7 23 42.05 24.55 46.25 25.3
L 46.25 25.35
Q 55 27 72.4 28.25 67.6 27.8 59.05 25.85 48.45 23.3 45.05 20.9 41.9 18.5 41.75 16.1 41.7 15.05 44.1 12.7 46.35 10.45 47.55 9.95 63.95 2.85 84.5 0.95
M 94.45 10.15
Q 97.45 11.5 97.6 12
L 97.9 12.2
Q 98.25 12.3 98.35 12.25
L 98.4 12.2
Q 99.2 10.95 99.25 10.6
L 99.25 10.4
Q 99.25 8 94.15 6.35 89.05 4.65 81.8 4.65 74.6 4.65 69.5 6.35 64.4 8 64.4 10.4 64.4 12.75 69.5 14.35
L 74.35 15.55
Q 74.55 15.55 74.8 15.6 74.5 15.45 74.25 14.35 73.95 13.3 74.15 12.9 74.75 11.95 76.55 10.85 78.7 9.7 79.9 9.25 82.2 8.45 85.2 8.4 87.2 8.4 90.7 8.8 91.55 8.95 94.45 10.15 Z"/>

<path fill="url(#Gradient_3)" stroke="none" d="
M 12.75 34.15
L 10.4 39.75
Q 10.85 43.1 24.4 47.85 27.25 48.45 30.1 49
L 30.1 49.25 30.2 49 32.55 44.45
Q 29.55 43.85 26.5 43.2 11.75 37.85 12.75 34.15 Z"/>

<path fill="url(#Gradient_4)" stroke="none" d="
M 149.95 40.1
Q 148.75 43 136.3 47.05 82.45 58.45 30.2 49
L 30.1 49.25
Q 29.15 51.25 28.35 53.35 15.75 85.25 28.25 130.85 28.3 131.05 28.35 131.3 80.8 142.05 134.95 130.15 138.05 129.1 142.65 126.85 146.6 125 147.05 124.55
L 148.25 121.5
Q 163.55 79.8 149.95 40.1 Z"/>

<path fill="url(#Gradient_5)" stroke="none" d="
M 147.9 34.5
L 147.35 34.7
Q 147.65 37.85 134.05 42.4 82.5 53.75 32.55 44.45
L 30.2 49
Q 82.45 58.45 136.3 47.05 148.75 43 149.95 40.1
L 147.9 34.5 Z"/>

<path fill="#FF3300" stroke="none" d="
M 147.35 34.7
L 147.9 34.5
Q 144.8 26.75 140.65 19.05 139.4 21.9 129.05 25.85 84.4 36.9 41 28.3
L 32.55 44.45
Q 82.5 53.75 134.05 42.4 147.65 37.85 147.35 34.7 Z"/>

<path fill="url(#Gradient_6)" stroke="none" d="
M 96.6 5.7
Q 90.5 3.5 81.8 3.5 73.15 3.5 67 5.7 60.9 7.85 60.9 10.85 60.9 14 67 16.1 73.15 18.3 81.8 18.3 90.5 18.3 96.6 16.1 102.75 14 102.75 10.85 102.75 7.85 96.6 5.7
M 98.4 12.2
L 98.35 12.25
Q 97.1 13.45 94.15 14.35 89.05 16.1 81.8 16.1 78.05 16.1 74.8 15.6 74.55 15.55 74.35 15.55
L 69.5 14.35
Q 64.4 12.75 64.4 10.4 64.4 8 69.5 6.35 74.6 4.65 81.8 4.65 89.05 4.65 94.15 6.35 99.25 8 99.25 10.4
L 99.25 10.6
Q 99.2 10.95 98.4 12.2 Z"/>
</g>

<g id="Symbol_13_4_Layer0_0_FILL">
<path fill="#FF3300" stroke="none" d="
M 118.35 98.6
Q 118.6 83.35 108.05 72.55 97.5 61.8 82.35 61.55 67.9 61.35 57.3 71.15
L 57.05 71.25
Q 56.4 71.8 55.75 72.35 44.95 83 44.8 98.15 44.5 113.35 54.35 115.85 61.45 117.65 70.6 127.6 75.35 119 79.7 128.9 85.25 119.65 90.05 127.6 99.05 119.05 106.05 117.3 110.2 116.15 112.9 113.65 118.25 108.85 118.35 98.6
M 104.7 84.7
Q 107.35 87.55 107.35 91.25 107.35 94.85 104.55 97.5
L 104.45 97.55
Q 102.6283203125 99.105859375 100.3 99.4 100.4966796875 99.4056640625 100.65 99.35 98.801953125 103.9818359375 95 109.1 92.65 112.25 88.6 113.65 60.495703125 123.096484375 60.2 98.55 57.743359375 97.9103515625 55.8 95.9 53 93.15 53.05 88.95 53.15 84.85 55.95 81.95
L 55.95 81.9
Q 58.7 79.75 62.5 79.75 63.786328125 79.7814453125 64.95 80.05 70.6201171875 71.8755859375 83.15 69.85 95.5650390625 74.9982421875 100 82.2 102.747265625 82.667578125 104.7 84.7 Z"/>

<path fill="#FF9900" stroke="none" d="
M 92.5 96.75
Q 90.05 94.05 90.1 90.35 90.1 86.85 92.55 84.1 95.2 82.1 98.55 82.1 99.3009765625 82.11015625 100 82.2 95.5650390625 74.9982421875 83.15 69.85 70.6201171875 71.8755859375 64.95 80.05 66.0974609375 80.372265625 67.1 80.9 67.760546875 81.2798828125 68.35 81.7 68.8140625 82.0849609375 69.25 82.5 69.30078125 82.551953125 69.35 82.6 69.40390625 82.65390625 69.45 82.7 72.25 85.75 72.2 89.75 72.15 93.95 69.25 96.75 69.2 96.8 69.2 96.9 66.45 99.05 62.8 98.9 61.4474609375 98.9 60.2 98.55 60.495703125 123.096484375 88.6 113.65 92.65 112.25 95 109.1 98.801953125 103.9818359375 100.65 99.35 100.4966796875 99.4056640625 100.3 99.4
L 99.2 99.5
Q 99.0037109375 99.50625 98.8 99.5 95.15 99.5 92.5 96.75 Z"/>
</g>

<g id="spark_1_Layer0_0_FILL">
<path fill="#FFFF00" stroke="none" d="
M 44.25 1.7
Q 47 0.8 47.55 -0.7 42.45 0.15 44.25 1.7
M -2.5 11.1
Q -2 10.95 -2.45 9.85 -2.9 8.75 -3.3 8.75 -6.35 8.7 -2.5 11.1
M 47.3 74.8
Q 47.3 74.75 47.3 74.7 49.4 68.85 43.75 63.65 43.65 63.7 43.6 63.8 41.8 70.75 47.3 74.8
M 17.9 72.05
Q 18.4 72.05 20.2 69.85 22.15 67.45 22.3 66.15 22.15 66.1 22.05 66.15 14.6 68.9 17.9 72.05
M 60.05 15.75
Q 60.15 15.75 60.3 15.7 68 14.5 70.1 7.8 70 7.7 69.95 7.7 61.45 8.65 60.05 15.75 Z"/>

<path fill="url(#Gradient_7)" stroke="none" d="
M 64.9 41.5
Q 64.85 41.15 55.15 38.2 45.25 35.25 39.25 33.9 40.5 33 42.55 29.8 44.45 26.7 50.3 21.2 40.05 28.05 36.7 28.6 34.45 19 29.25 5.7 29.45 20.35 30.55 31.45 27.45 31.5 21.1 34.5
L 28.15 38.05
Q 25.05 42.75 12.5 66.7 28.15 49.4 32.75 41.05 37.05 46.1 39.55 50.25 39.05 45.6 38.6 41 38.45 39.55 38.1 38.3 50.85 42.1 64.9 41.5 Z"/>
</g>

<g id="fdudearm_2_Layer1_0_FILL">
<path fill="#FF3300" stroke="none" d="
M 48.75 31.6
Q 48.8 31.45 48.75 31.35 43.85 24.55 34 25.65 22.5 25.95 11.7 30.2 11.6392578125 30.223828125 11.55 30.25 12.08515625 34.53515625 12.45 38.8 28.496875 30.5626953125 48.75 31.6
M 44.25 3.65
Q 44.25 3.5 44.15 3.45 40.4 0.45 35.3 0.45 23.9078125 1.3322265625 13.2 5.3 10.9830078125 9.7263671875 10.4 14.65 25.9478515625 5.9876953125 44.25 3.65
M 46.1 17.8
Q 46.1 17.65 46 17.55 41.75 11.7 33.35 13.45 21.45 14.3 10.3 18.9 10.2765625 18.9095703125 10.25 18.9 10.3 19.95 10.7 23.2 11.05 26.35 11.2 27.4 11.2666015625 27.6681640625 11.3 27.9 26.9962890625 19.28671875 46.1 17.8
M 25.65 90.45
Q 27.6515625 90.771875 29.5 90.9 29.4759765625 90.849609375 29.45 90.8 25.5458984375 82.603125 24.65 73.7 17.853125 72.823046875 10.45 73.25 8.9033203125 87.7568359375 25.65 90.45 Z"/>

<path fill="#54433B" stroke="none" d="
M 46 17.55
Q 46.1 17.65 46.1 17.8 26.9962890625 19.28671875 11.3 27.9 11.2666015625 27.6681640625 11.2 27.4 11.40859375 28.8322265625 11.55 30.25 11.6392578125 30.223828125 11.7 30.2 22.5 25.95 34 25.65 43.85 24.55 48.75 31.35 48.8 31.45 48.75 31.6 28.496875 30.5626953125 12.45 38.8 12.746484375 42.1814453125 12.95 45.55 20.05625 44.236328125 37.5 41.8 50.5169921875 41.837109375 56.85 43.6 61.5232421875 24.6677734375 64.1 5.5 42.9904296875 -12.18203125 15.65 1.2 14.248046875 3.19296875 13.2 5.3 23.9078125 1.3322265625 35.3 0.45 40.4 0.45 44.15 3.45 44.25 3.5 44.25 3.65 25.9478515625 5.9876953125 10.4 14.65 10.1876953125 16.742578125 10.25 18.9 10.2765625 18.9095703125 10.3 18.9 21.45 14.3 33.35 13.45 41.75 11.7 46 17.55 Z"/>

<path fill="#000000" stroke="none" d="
M 64.45 3.1
Q 64.29453125 4.3017578125 64.1 5.5 61.5232421875 24.6677734375 56.85 43.6 50.5169921875 41.837109375 37.5 41.8 20.05625 44.236328125 12.95 45.55 12.746484375 42.1814453125 12.45 38.8 12.08515625 34.53515625 11.55 30.25 11.40859375 28.8322265625 11.2 27.4 11.05 26.35 10.7 23.2 10.3 19.95 10.25 18.9 10.1876953125 16.742578125 10.4 14.65 10.9830078125 9.7263671875 13.2 5.3 14.248046875 3.19296875 15.65 1.2 15.95 0.8 15.7 0.8 15.4 0.75 14.9 1.1 -0.1759765625 13.2396484375 2.6 33.8 4.95 51.15 5.05 68.65 5.0578125 70.1189453125 5.2 71.5 5.2228515625 71.5375 5.2 71.55 4.8765625 77.73984375 4.95 81.85 5.3642578125 95.5396484375 20.6 97.9 35.8841796875 100.264453125 47.55 92.7 59.27265625 85.1462890625 59.75 81.8 60.85 73.45 62.55 51.8 64.8771484375 22.3857421875 64.5 5.5 64.49140625 4.2828125 64.45 3.1
M 47.25 45.7
L 47.3 45.7
Q 50.8798828125 46.2138671875 54.45 46.95 55.250390625 55.5166015625 54.3 61 50.9287109375 58.308203125 47 56.85 46.98828125 56.86171875 46.95 56.85 44.10234375 55.8486328125 36.7 55.75 31.3 55.65 29 55.85 19.4212890625 56.7017578125 11.55 61.2 11.775 55.4001953125 11.5 49.35 11.9 49.2 12.3 49.1 24.2 45.5 36.8 44.8 40.2251953125 44.88359375 43.65 45.25
L 47.25 45.7
M 18 72.25
Q 10.8 72.5 10.55 72.6 11.248828125 67.411328125 11.5 62.05 27 58.55 27 58.5 37.6765625 57.3763671875 47.95 59.85 51.091015625 60.633984375 54.15 61.7 53.6 64.95 50.7 77.85 49.6859375 79.8552734375 48.5 81.7 48.2740234375 81.53046875 48 81.35
L 42.3 77.6
Q 34.3720703125 73.17421875 25.1 72 21.55 72.1 18 72.25
M 29.5 90.9
Q 27.6515625 90.771875 25.65 90.45 8.9033203125 87.7568359375 10.45 73.25 17.853125 72.823046875 24.65 73.7 33.61484375 74.9294921875 41.6 78.45 45.2107421875 80.072265625 48.6 82.15 42.7224609375 91.723046875 29.5 90.9
M 37.7 79.45
Q 33.6 80.25 33.8 84.55 33.8533203125 85.6943359375 34.35 86.2 34.8314453125 86.6466796875 35.65 86.6 44.956640625 86.0853515625 39.8 81.2 38.9517578125 80.381640625 37.7 79.45
M 45.9 66.6
Q 45.65 66.4 44 67.4 42.15 68.45 41.85 69.8 41.324609375 72.331640625 43.4 72.45 49.75 71.75 49.35 70.25 48.9755859375 68.876171875 45.9 66.6
M 47.05 49.45
L 47 49.45
Q 46.95703125 49.4908203125 46.9 49.5 45.06171875 50.300390625 44.75 52.6 44.6 53.6 46.15 54.35 46.7791015625 54.6162109375 47.25 54.7
L 48.1 54.8 48.15 54.8 50.7 51.25
Q 50.6486328125 51.196484375 50.6 51.15
L 47.05 49.45 Z"/>

<path fill="#FF9900" stroke="none" d="
M 29.45 90.8
Q 29.4759765625 90.849609375 29.5 90.9 42.7224609375 91.723046875 48.6 82.15 45.2107421875 80.072265625 41.6 78.45 33.61484375 74.9294921875 24.65 73.7 25.5458984375 82.603125 29.45 90.8
M 33.8 84.55
Q 33.6 80.25 37.7 79.45 38.9517578125 80.381640625 39.8 81.2 44.956640625 86.0853515625 35.65 86.6 34.8314453125 86.6466796875 34.35 86.2 33.8533203125 85.6943359375 33.8 84.55 Z"/>

<path fill="#FFFFFF" stroke="none" d="
M 49.35 70.25
Q 49.75 71.75 43.4 72.45 42.27890625 74.7068359375 40.95 76.85 41.66015625 77.230859375 42.3 77.6
L 48 81.35
Q 48.2740234375 81.53046875 48.5 81.7 49.6859375 79.8552734375 50.7 77.85 53.6 64.95 54.15 61.7 51.091015625 60.633984375 47.95 59.85 47.1314453125 63.3158203125 45.9 66.6 48.9755859375 68.876171875 49.35 70.25
M 47 49.45
L 47.05 49.45 50.6 51.15
Q 50.6486328125 51.196484375 50.7 51.25
L 48.15 54.8 48.1 54.8 47.25 54.7
Q 47.06875 54.6939453125 46.85 54.6 46.883203125 55.721484375 46.95 56.85 46.98828125 56.86171875 47 56.85 50.9287109375 58.308203125 54.3 61 55.250390625 55.5166015625 54.45 46.95 50.8798828125 46.2138671875 47.3 45.7 47.041796875 47.55703125 46.9 49.5 46.95703125 49.4908203125 47 49.45 Z"/>

<path fill="#333333" stroke="none" d="
M 25.75 66.95
Q 26.35 61.1 27 58.5 27 58.55 11.5 62.05 11.248828125 67.411328125 10.55 72.6 10.8 72.5 18 72.25 21.55 72.1 25.1 72 25.2 72 25.75 66.95
M 12.3 49.1
Q 11.9 49.2 11.5 49.35 11.775 55.4001953125 11.55 61.2 19.4212890625 56.7017578125 29 55.85 29.390625 52.0787109375 30.05 48.3 36.92578125 46.9716796875 43.65 45.25 40.2251953125 44.88359375 36.8 44.8 24.2 45.5 12.3 49.1 Z"/>

<path fill="url(#Gradient_8)" stroke="none" d="
M 27 58.5
Q 26.35 61.1 25.75 66.95 25.2 72 25.1 72 34.3720703125 73.17421875 42.3 77.6 41.66015625 77.230859375 40.95 76.85 42.27890625 74.7068359375 43.4 72.45 41.324609375 72.331640625 41.85 69.8 42.15 68.45 44 67.4 45.65 66.4 45.9 66.6 47.1314453125 63.3158203125 47.95 59.85 37.6765625 57.3763671875 27 58.5 Z"/>

<path fill="url(#Gradient_9)" stroke="none" d="
M 47.3 45.7
L 47.25 45.7 43.65 45.25
Q 36.92578125 46.9716796875 30.05 48.3 29.390625 52.0787109375 29 55.85 31.3 55.65 36.7 55.75 44.10234375 55.8486328125 46.95 56.85 46.883203125 55.721484375 46.85 54.6 47.06875 54.6939453125 47.25 54.7 46.7791015625 54.6162109375 46.15 54.35 44.6 53.6 44.75 52.6 45.06171875 50.300390625 46.9 49.5 47.041796875 47.55703125 47.3 45.7 Z"/>
</g>

<g id="fdudebody_0_Layer1_0_FILL">
<path fill="#000000" stroke="none" d="
M 121.25 29.25
Q 100.3 12.5 92.8 9.95 86.35 7.7 80.05 7.4 73.2 7.1 67.3 9.1 18.4 46.25 9.6 57.35 7.311328125 62.9015625 8.35 68.05 8.7 70.05 20.2 90.35 26 100.65 32.35 111.9
L 35.25 127.75
Q 38.5 143.85 40.3 145.4 41.697265625 146.5537109375 79.9 146.35 118.1580078125 146.1888671875 118.25 143.6 118.391796875 141.0111328125 135.55 109.35 152.7025390625 77.6962890625 152.55 75.15 152.85 73.6 151.65 67.05 150.4 60.1 149.05 57.4 144.05 47.5 121.25 29.25
M 90.35 20.3
Q 99.4 25.45 109.35 32.1 136.35 50.05 142.3 59.9 146.1015625 66.0220703125 146.2 70.8
L 146.2 70.95
Q 146.2173828125 71.4888671875 145.95 72.5 145.502734375 74.4466796875 144.1 78.1 143.6052734375 79.4068359375 143.15 80.5 141.8708984375 83.73203125 141.05 85.15
L 109.3 138.75
Q 106.75 138.3 77.4 137.7 48.9 137.1 48.5 136.8 47.75 136.25 45.85 129.7 43.5 121.55 43 120.25 42.95 120.05 42.85 119.85 41.3 115.7 33.25 101.65 25.25 87.65 17 74.7 15.8 72.85 15.8 66.8 15.8 60.65 17.05 58.8 22.3 51.25 30.75 43.55 36.15 38.6 46.7 30.45 56.35 22.95 62.5 19.75 71.85 14.9 80.2 15.35 80.3 15.35 80.4 15.35 81.9 15.45 90.35 20.3 Z"/>

<path fill="#54433B" stroke="none" d="
M 42.85 119.85
Q 42.95 120.05 43 120.25
L 43 119.8
Q 42.95 119.8 42.85 119.85
M 109.35 32.1
Q 99.4 25.45 90.35 20.3 81.9 15.45 80.4 15.35 78 17 54.75 37.25 30.4 58.4 28.1 61.45 27.25 62.6 26.95 66.25 26.65 69.85 27.25 70.85
L 35.25 80.9
Q 43.749609375 91.1529296875 46.65 97.15 49.5564453125 103.2013671875 60.5 106.55 71.4408203125 109.9423828125 84.75 106.35 98.0625 102.759765625 97.65 98.05 98.59765625 105.2572265625 112.75 105.4 126.90234375 105.5998046875 133.8 95.35 140.743359375 85.1521484375 143.15 80.5 143.6052734375 79.4068359375 144.1 78.1 145.502734375 74.4466796875 145.95 72.5 146.1365234375 71.46328125 146.15 70.45 146.191796875 70.6431640625 146.2 70.8 146.1015625 66.0220703125 142.3 59.9 136.35 50.05 109.35 32.1 Z"/>

<path fill="#2E2724" stroke="none" d="
M 143.15 80.5
Q 140.743359375 85.1521484375 133.8 95.35 126.90234375 105.5998046875 112.75 105.4 98.59765625 105.2572265625 97.65 98.05 98.0625 102.759765625 84.75 106.35 71.4408203125 109.9423828125 60.5 106.55 49.5564453125 103.2013671875 46.65 97.15 43.749609375 91.1529296875 35.25 80.9
L 27.25 70.85
Q 26.65 69.85 26.95 66.25 27.25 62.6 28.1 61.45 30.4 58.4 54.75 37.25 78 17 80.4 15.35 80.3 15.35 80.2 15.35 71.85 14.9 62.5 19.75 56.35 22.95 46.7 30.45 36.15 38.6 30.75 43.55 22.3 51.25 17.05 58.8 15.8 60.65 15.8 66.8 15.8 72.85 17 74.7 25.25 87.65 33.25 101.65 41.3 115.7 42.85 119.85 42.95 119.8 43 119.8
L 43 120.25
Q 43.5 121.55 45.85 129.7 47.75 136.25 48.5 136.8 48.9 137.1 77.4 137.7 106.75 138.3 109.3 138.75
L 141.05 85.15
Q 141.8708984375 83.73203125 143.15 80.5
M 146.2 70.8
Q 146.191796875 70.6431640625 146.15 70.45 146.1365234375 71.46328125 145.95 72.5 146.2173828125 71.4888671875 146.2 70.95
L 146.2 70.8 Z"/>
</g>

<g id="fdudebody_0_Layer0_0_FILL">
<path fill="#000000" stroke="none" d="
M 47.7 144.95
Q 48 144.75 75.9 145.65 104.1 146.55 104.7 146.45 104.8 146.95 105.15 150.9 105.55 154.75 105.8 155.4 106.2 156.4 106.95 156.95 107.8 157.6 108.65 157.3 108.95 157.2 109.9 155.2 110.85 153.25 110.95 152.55 111.45 150.5 112 146.5 112.6 142.25 112.4 141.45 112.35 141 81.15 139.2 48.55 137.4 45.7 137.2 44.6 137.15 42.25 138.5 39.85 139.85 39.65 140.65 39.5 141.4 39 147.6 38.4 154.55 38.65 155.6 39 156.85 39.8 157.7 40.7 158.65 41.8 158.6 43.65 158.5 44.7 155.55 45 154.8 46.1 149.75 47.05 145.45 47.7 144.95 Z"/>
</g>

<g id="fdudehelm_1_Layer0_0_FILL">
<path fill="#000000" stroke="none" d="
M 99.45 79.65
Q 97.4537109375 67.869140625 92.45 58.15 87.4990234375 48.4263671875 76.1 41.6 71.35 38.8 62.4 36.7 54.45 35.15 54.35 35.1 49.6 31.2 38.35 23.8 28.25 17.3 28.25 17.15 10.05 50.65 9.6 52.6 8.15 54.05 4.75 59.85 0.3 67.4 0.3 71.25 -7.9453125 74.56328125 -16.1 78.5 -18.3 79.55 -19.6 81.4 -27.7 93.1 -20.65 107.15 -19.4513671875 109.555078125 -12.25 119 -4.992578125 128.48671875 12.5 134.25 30.03828125 140.01328125 33.9 138.5 37.8126953125 136.9822265625 43.95 126.15 55.9427734375 128.7232421875 66.35 126.55 68.469140625 127.1376953125 74.4 132.05 80.3330078125 136.97734375 86.25 133.6 92.20625 130.2060546875 96.95 127.2 114.6 115.95 100.15 102 101.494921875 91.4330078125 99.45 79.65
M 84 61.35
Q 91.135546875 75.7896484375 92.45 86.45 93.8478515625 97.7552734375 93.2 103.55 91.1720703125 107.6439453125 87.9 110.85 85.0123046875 113.7408203125 81.15 115.95 59.55 128.35 35.35 119.05 15.50390625 111.448828125 7.7 96.75 8.7318359375 85.7580078125 11.55 75 6.7763671875 81.679296875 6.45 90.6 6.4513671875 90.7248046875 6.45 90.8 6.45 91.85 4.55 85.75 2.7 79.6 2.65 75.15 5.1552734375 69.3083984375 9 63.9 13.628125 57.380078125 20.2 51.5 25.438671875 46.8572265625 32.45 44.5 26.9939453125 48.9373046875 25 53.75 30.2072265625 48.375390625 36.05 43.5 43.2638671875 41.84609375 52.1 42.3 60.0201171875 45.779296875 67.4 50.05 83.3 60.75 84 61.35
M 41.45 32.4
Q 48.9 37.9 46.95 37.5 45.6505859375 37.2912109375 44.2 37.25 44.35703125 37.1517578125 44.5 37.05 44.45 37.05 44.4 37.05 44.2064453125 37.14375 44 37.25 43.700390625 37.2412109375 43.35 37.25 41.65 37.2466796875 39.7 37.5 39.668359375 37.5154296875 39.6 37.5 39.1841796875 37.5787109375 38.75 37.65 38.6576171875 37.6611328125 38.55 37.65 36.9177734375 37.9474609375 35.1 38.4 32.729296875 39.00546875 30.65 40
L 24.35 44.85
Q 24.2720703125 44.9388671875 24.2 45 24.1251953125 45.108203125 24.05 45.2 31.1 26.7 31.05 24.75 31.3412109375 24.9970703125 31.85 25.4 34.24453125 27.2533203125 41.45 32.4
M 0.15 81.4
Q 0.25 82.25 0.75 84.85 1.2 87.25 1.35 87.7 4.71328125 100.788671875 12.85 109.7 12.9783203125 109.8404296875 13.1 109.95
L 37.65 124.55 40.9 125.45
Q 38.993359375 127.305078125 37.65 130.15 34.21796875 137.3623046875 26.6 134.8
L 26.55 134.8
Q 2.75 126.7 2.1 126.35 0.75 125.75 -2.35 123.8 -5.2 122 -5.95 121.4 -6.35 121.1 -17.7 105.2 -17.7166015625 105.1421875 -17.75 105.05 -18.5337890625 102.9201171875 -19.1 100.6
L -20.2 94.75
Q -20.15 92.6 -19.65 91.8 -13.8 82.45 -2.15 77.5 -0.7181640625 76.891796875 0.3 76.25 0.15 81.3 0.15 81.4
M 75.8 129.55
Q 69.35 126.6 68.25 126.15 71.5330078125 125.3173828125 74.65 124
L 92.85 110.75
Q 92.9529296875 110.704296875 93 110.6 93.79609375 109.784765625 94.55 108.9 94.75 108.7 96.95 110.65 98.25 111.75 100.85 114.2 99.6427734375 115.5083984375 98.4 116.8 94 121.5 81.7 131.8 81.5291015625 131.865234375 81.3 131.85 80.9 131.95 75.8 129.55
M 55.9 42.6
Q 75.0625 44.751953125 82.7 58.7 71.1869140625 47.8662109375 55.9 42.6 Z"/>

<path fill="#666666" stroke="none" d="
M 82.7 58.7
Q 75.0625 44.751953125 55.9 42.6 71.1869140625 47.8662109375 82.7 58.7
M 74.65 124
Q 74.35 124.15 76.9 127.05 79.05 129.6 81.3 131.85 81.5291015625 131.865234375 81.7 131.8 94 121.5 98.4 116.8 95.8544921875 113.4994140625 93 110.6 92.9529296875 110.704296875 92.85 110.75
L 74.65 124
M 13.1 109.95
Q 12.9783203125 109.8404296875 12.85 109.7 4.71328125 100.788671875 1.35 87.7 -9.5341796875 94.896875 -17.75 105.05 -17.7166015625 105.1421875 -17.7 105.2 -6.35 121.1 -5.95 121.4 -5.2 122 -2.35 123.8 0.75 125.75 2.1 126.35 2.75 126.7 26.55 134.8
L 26.6 134.8
Q 26.7158203125 134.8533203125 26.8 134.85 28.75 132.9 33.55 128.45 37.7 124.6 37.65 124.55
L 13.1 109.95
M 39.6 37.5
Q 39.668359375 37.5154296875 39.7 37.5 41.65 37.2466796875 43.35 37.25 41.1470703125 34.5470703125 37.8 32.35 37.7048828125 35.2173828125 38.55 37.65 38.6576171875 37.6611328125 38.75 37.65 39.1841796875 37.5787109375 39.6 37.5
M 24.75 54.3
Q 24.5189453125 54.4107421875 24.25 54.5 24.6373046875 54.1203125 25 53.75 26.9939453125 48.9373046875 32.45 44.5 25.438671875 46.8572265625 20.2 51.5 13.628125 57.380078125 9 63.9 7.5740234375 69.9759765625 7.1 76.35 6.5529296875 83.5423828125 6.45 90.6 6.7763671875 81.679296875 11.55 75 11.648046875 74.8884765625 11.75 74.75 11.7298828125 74.5796875 11.7 74.4 10.2693359375 60.920703125 24.7 54.5 24.730859375 54.4134765625 24.75 54.3
M 82.75 72.8
Q 86.3498046875 80.4578125 88.55 89 91.4513671875 100.2591796875 87.9 110.85 91.1720703125 107.6439453125 93.2 103.55 93.8478515625 97.7552734375 92.45 86.45 91.135546875 75.7896484375 84 61.35 83.3 60.75 67.4 50.05 67.25 50 69.55 52.8 72.5 56.35 73.6 57.75 85.5431640625 61.3044921875 82.75 72.8 Z"/>

<path fill="#999999" stroke="none" d="
M 93 110.6
Q 95.8544921875 113.4994140625 98.4 116.8 99.6427734375 115.5083984375 100.85 114.2 98.25 111.75 96.95 110.65 94.75 108.7 94.55 108.9 93.79609375 109.784765625 93 110.6
M 76.9 127.05
Q 74.35 124.15 74.65 124 71.5330078125 125.3173828125 68.25 126.15 69.35 126.6 75.8 129.55 80.9 131.95 81.3 131.85 79.05 129.6 76.9 127.05
M 26.6 134.8
Q 34.21796875 137.3623046875 37.65 130.15 38.993359375 127.305078125 40.9 125.45
L 37.65 124.55
Q 37.7 124.6 33.55 128.45 28.75 132.9 26.8 134.85 26.7158203125 134.8533203125 26.6 134.8
M 0.75 84.85
Q 0.25 82.25 0.15 81.4 -19.05 100.9 -19.1 100.6 -18.5337890625 102.9201171875 -17.75 105.05 -9.5341796875 94.896875 1.35 87.7 1.2 87.25 0.75 84.85
M 46.95 37.5
Q 48.9 37.9 41.45 32.4 34.24453125 27.2533203125 31.85 25.4 32.034765625 31.628125 31.45 38.15 31.3810546875 38.9310546875 31.3 39.7 30.97890625 39.8431640625 30.65 40 32.729296875 39.00546875 35.1 38.4 36.9177734375 37.9474609375 38.55 37.65 37.7048828125 35.2173828125 37.8 32.35 41.1470703125 34.5470703125 43.35 37.25 43.700390625 37.2412109375 44 37.25 44.2064453125 37.14375 44.4 37.05 44.45 37.05 44.5 37.05 44.35703125 37.1517578125 44.2 37.25 45.6505859375 37.2912109375 46.95 37.5
M 2.65 75.15
Q 2.7 79.6 4.55 85.75 6.45 91.85 6.45 90.8 6.4513671875 90.7248046875 6.45 90.6 6.5529296875 83.5423828125 7.1 76.35 7.5740234375 69.9759765625 9 63.9 5.1552734375 69.3083984375 2.65 75.15 Z"/>

<path fill="#FFFFFF" stroke="none" d="
M 0.15 81.4
Q 0.15 81.3 0.3 76.25 -0.7181640625 76.891796875 -2.15 77.5 -13.8 82.45 -19.65 91.8 -20.15 92.6 -20.2 94.75
L -19.1 100.6
Q -19.05 100.9 0.15 81.4
M 31.85 25.4
Q 31.3412109375 24.9970703125 31.05 24.75 31.1 26.7 24.05 45.2 24.1251953125 45.108203125 24.2 45 24.2720703125 44.9388671875 24.35 44.85
L 30.65 40
Q 30.97890625 39.8431640625 31.3 39.7 31.3810546875 38.9310546875 31.45 38.15 32.034765625 31.628125 31.85 25.4 Z"/>

<path fill="#FF3300" stroke="none" d="
M 28.6 53.35
Q 26.6716796875 53.6712890625 24.75 54.3 24.730859375 54.4134765625 24.7 54.5 10.2693359375 60.920703125 11.7 74.4 11.7431640625 74.29296875 11.75 74.15 12.1546875 76.25078125 12.9 78.5 18.05 93.9 33.65 88.2 42.65 84.95 44.15 75.9 47.15 57.25 28.6 53.35
M 29.4 58.85
Q 41.5 60.5 38.4 73.4 36.3 82.2 26.25 82 14.4 81.8 17.6 70.3 20.1 61.5 29.4 58.85
M 81.55 76.55
Q 82.325390625 74.5939453125 82.75 72.8 85.5431640625 61.3044921875 73.6 57.75 71.77265625 57.2072265625 69.6 56.85 62.7 61.1 63.9 69.7 65.5 80.8 76.85 79.9 80.35 79.6 81.55 76.55
M 69.25 73.15
Q 66.15 66.4 71.3 62.7 84.6 64.6 75.3 74 71.45 77.85 69.25 73.15 Z"/>

<path fill="#FF9900" stroke="none" d="
M 38.4 73.4
Q 41.5 60.5 29.4 58.85 20.1 61.5 17.6 70.3 14.4 81.8 26.25 82 36.3 82.2 38.4 73.4
M 71.3 62.7
Q 66.15 66.4 69.25 73.15 71.45 77.85 75.3 74 84.6 64.6 71.3 62.7 Z"/>

<path fill="url(#Gradient_10)" stroke="none" d="
M 88.55 89
Q 86.3498046875 80.4578125 82.75 72.8 82.325390625 74.5939453125 81.55 76.55 80.35 79.6 76.85 79.9 65.5 80.8 63.9 69.7 62.7 61.1 69.6 56.85 71.77265625 57.2072265625 73.6 57.75 72.5 56.35 69.55 52.8 67.25 50 67.4 50.05 60.0201171875 45.779296875 52.1 42.3 43.2638671875 41.84609375 36.05 43.5 30.2072265625 48.375390625 25 53.75 24.6373046875 54.1203125 24.25 54.5 24.5189453125 54.4107421875 24.75 54.3 26.6716796875 53.6712890625 28.6 53.35 47.15 57.25 44.15 75.9 42.65 84.95 33.65 88.2 18.05 93.9 12.9 78.5 12.1546875 76.25078125 11.75 74.15 11.7431640625 74.29296875 11.7 74.4 11.7298828125 74.5796875 11.75 74.75 11.648046875 74.8884765625 11.55 75 8.7318359375 85.7580078125 7.7 96.75 15.50390625 111.448828125 35.35 119.05 59.55 128.35 81.15 115.95 85.0123046875 113.7408203125 87.9 110.85 91.4513671875 100.2591796875 88.55 89 Z"/>
</g>

<g id="Symbol_24_4_Layer0_0_FILL">
<path fill="url(#Gradient_11)" stroke="none" d="
M 263 537.85
L 261.1 540.7 261.15 540.75
Q 264.82890625 543.240234375 267.75 545.25 264.8572265625 541.87421875 263 537.85
M 383 393.55
Q 382.99375 393.526171875 382.95 393.5 370.1982421875 386.14296875 355.75 379.2 374.8970703125 391.896484375 381.25 396.5
L 383 393.55 Z"/>

<path fill="url(#Gradient_12)" stroke="none" d="
M 383.65 393.9
Q 383.333984375 393.7283203125 383 393.55
L 381.25 396.5
Q 394.25 405.95 401.25 413.85 409.25 422.85 412.85 433.45 416.6 444.45 416.6 459.8 416.6 474.7 413.95 481.45 409.75 492.05 397.7 492.05 383.65 492.05 373.6 486.15 365.5 481.35 358.7 471.7 356.3 468.25 347.95 453.75 341.6 442.65 336.3 437.2
L 336.3 439.9
Q 339.45 442.4 340.15 448.5 340.35 450.1 340.35 458.45 340.35 468.9 333.65 473.35 327.65 477.35 314.7 477.35 256.15 477.35 199.2 440.95 176 426.15 150.4 403.65 131.9 387.45 105.35 360.95 65.35 320.9 62.5 318.2 38.55 295 20.2 280.9 -27.05 244.5 -69.15 244.5 -69.25 244.5 -78.5 246 -89.55 248.55 -98.75 253.85 -128.05 270.75 -128.05 308.6 -128.05 341.75 -102.45 367.8 -81.8 388.8 -45.65 404.25 -19.15 415.55 12.45 422.65 35.05 427.75 41.85 427.75 36.6 424.35 26.1 408.3 14.6 390.65 12.3 379.65
L 12.3 370.2 40.5 370.2
Q 54.45 375.35 60.15 384.2 63.7 389.7 68.9 403.65 75.5 417.95 88.5 430.45 106.6 447.95 140.7 466.55 167.75 481.3 215.9 511.65 244.365234375 529.58125 260.1 540.05 260.6056640625 540.394921875 261.1 540.7
L 263 537.85
Q 260 531.4 260 524.1 260 519.45 261.35 516.2 263.65 510.8 269.3 510.8 274.65 510.8 281.95 513.8 289.05 516.65 296.15 521.6 296.15 520.75 295.5 520.4
L 294.8 520.25
Q 291.65 515.25 290.4 512.2 289.4 509.8 289.4 508.1 289.4 504.95 292.05 501.5 296.25 496.1 304.75 496.1 319.2 496.1 341.85 507.35 344.6224609375 508.7517578125 352.7 513.4 353.3751953125 510.95390625 355.1 508.1 358.35 502.85 362.3 502.85 366.85 502.85 371.1 508.1 375.1 513.05 375.1 517.55 375.1 522.65 368.35 528.2 361.8 533.55 356.4 533.55 354.45 533.55 350.4 531.55 349.3037109375 530.9880859375 348.45 530.55 358.0513671875 537.30234375 368.3 539.25 370.05 539.55 378.65 540.75 385.65 541.7 391.15 543
L 391.15 541.65
Q 391.15 541 390.5 539.65 389.8 538.3 389.8 537.6 391.05 537.6 394.2 536.95 397.3 536.25 399.05 536.25 404.3 536.25 405.4 541.8 405.7 543.25 406 546.25 406.35 548.7 407.15 549.6 408.7 551.3 417.6 554.35 427.4 557.7 433.35 557.7 451.2 557.7 467.5 548.95 484.85 539.7 487.5 526.8
L 486.15 526.8
Q 480.95 529.4 477.65 530.85 471.6 533.55 465.4 533.55 449.7 533.55 439.45 525.5 429.95 518.05 429.95 508.1 429.95 506.5 431.3 502.6 433.1 497.45 435.35 497.45 440.05 497.45 449.4 505.5 458.75 513.5 460.65 513.5 464.65 513.5 467.45 510.85 471.45 507.05 471.45 498.8 471.45 472.75 445.75 443.15 422.74453125 416.574609375 383.65 393.9 Z"/>
</g>
</defs>

<g id="Layer_2">
<g transform="matrix( 0.8203582763671875, 0, 0, 0.8203582763671875, 455.25,327.1) ">
<g transform="matrix( 1, 0, 0, 1, -2.7,-14.25) ">
<g id="Layer_1">
<g transform="matrix( 0.9792022705078125, -0.202880859375, 0.202880859375, 0.9792022705078125, -66.8,48.35) ">
<g transform="matrix( 1, 0, 0, 1, 0,0) ">
<use xlink:href="#Symbol_13_4_Layer1_0_FILL"/>
</g>

<g id="Layer_3">
<g transform="matrix( 1, 0, 0, 1, 0,0) ">
<use xlink:href="#Symbol_13_4_Layer0_0_FILL"/>
</g>
</g>
</g>

<g transform="matrix( -1.27618408203125, 0.264404296875, -0.264404296875, -1.27618408203125, 69.75,72.6) ">
<g transform="matrix( 1, 0, 0, 1, 0,0) ">
<use xlink:href="#spark_1_Layer0_0_FILL"/>
</g>
</g>
</g>

<g id="Symbol_84">
<g transform="matrix( 0.6385040283203125, 0.7695770263671875, 0.7695770263671875, -0.6385040283203125, 92.65,95.8) ">
<g transform="matrix( 1, 0, 0, 1, 0,0) ">
<use xlink:href="#fdudearm_2_Layer1_0_FILL"/>
</g>
</g>
</g>

<g id="Symbol_85">
<g transform="matrix( 1, 0, 0.1150360107421875, 1, -14.65,54.2) ">
<g transform="matrix( 1, 0, 0, 1, 0,0) ">
<use xlink:href="#fdudebody_0_Layer1_0_FILL"/>
</g>

<g transform="matrix( 1, 0, 0, 1, 0,0) ">
<use xlink:href="#fdudebody_0_Layer0_0_FILL"/>
</g>
</g>
</g>

<g id="Symbol_83">
<g transform="matrix( 0.7880706787109375, 0.61553955078125, -0.61553955078125, 0.7880706787109375, 104.25,-20.5) ">
<g id="Layer_4">
<g transform="matrix( 1, 0, 0, 1, 0,0) ">
<use xlink:href="#fdudehelm_1_Layer0_0_FILL"/>
</g>
</g>
</g>
</g>

<g transform="matrix( 0.411102294921875, 0, 0, 0.411102294921875, -21.05,-7.75) ">
<g transform="matrix( 1, 0, 0, 1, 0,0) ">
<use xlink:href="#Symbol_24_4_Layer0_0_FILL"/>
</g>
</g>
</g>
</g>
</g>
</svg>
