
<svg xmlns="http://www.w3.org/2000/svg" version="1.1" xmlns:xlink="http://www.w3.org/1999/xlink" preserveAspectRatio="none" x="0px" y="0px" width="1000px" height="1000px" viewBox="0 0 1000 1000">
<defs>
<linearGradient id="Gradient_1" gradientUnits="userSpaceOnUse" x1="83.875" y1="31.29999999999999" x2="74.32499999999999" y2="152.9" spreadMethod="pad">
<stop  offset="0%" stop-color="#000000"/>

<stop  offset="20.784313725490197%" stop-color="#FF0000"/>

<stop  offset="39.6078431372549%" stop-color="#FF7000"/>

<stop  offset="74.11764705882354%" stop-color="#FFE000"/>

<stop  offset="100%" stop-color="#FFFFFF"/>
</linearGradient>

<linearGradient id="Gradient_2" gradientUnits="userSpaceOnUse" x1="87.86250000000001" y1="130.1375" x2="101.4375" y2="203.3625" spreadMethod="pad">
<stop  offset="0%" stop-color="#1E1E1E"/>

<stop  offset="29.80392156862745%" stop-color="#FF4F2C"/>

<stop  offset="64.70588235294117%" stop-color="#FFB600"/>

<stop  offset="100%" stop-color="#FFFFFF"/>
</linearGradient>

<linearGradient id="Gradient_3" gradientUnits="userSpaceOnUse" x1="29.512500000000003" y1="46" x2="9.987499999999999" y2="46" spreadMethod="pad">
<stop  offset="0%" stop-color="#000000"/>

<stop  offset="20.784313725490197%" stop-color="#FF0000"/>

<stop  offset="39.6078431372549%" stop-color="#FF7000"/>

<stop  offset="74.11764705882354%" stop-color="#FFE000"/>

<stop  offset="100%" stop-color="#FFFFFF"/>
</linearGradient>

<linearGradient id="Gradient_4" gradientUnits="userSpaceOnUse" x1="96.10000000000001" y1="95.47500000000001" x2="155.70000000000002" y2="155.82500000000002" spreadMethod="pad">
<stop  offset="0%" stop-color="#333333"/>

<stop  offset="100%" stop-color="#FF4F2C"/>
</linearGradient>

<linearGradient id="Gradient_5" gradientUnits="userSpaceOnUse" x1="38.5" y1="48.05" x2="151.4" y2="48.05" spreadMethod="pad">
<stop  offset="0%" stop-color="#000000"/>

<stop  offset="20.784313725490197%" stop-color="#FF0000"/>

<stop  offset="39.6078431372549%" stop-color="#FF7000"/>

<stop  offset="74.11764705882354%" stop-color="#FFE000"/>

<stop  offset="100%" stop-color="#FFFFFF"/>
</linearGradient>

<linearGradient id="Gradient_6" gradientUnits="userSpaceOnUse" x1="81.95" y1="23.225" x2="81.95" y2="-2.625" spreadMethod="pad">
<stop  offset="0%" stop-color="#000000"/>

<stop  offset="20.784313725490197%" stop-color="#FF0000"/>

<stop  offset="39.6078431372549%" stop-color="#FF7000"/>

<stop  offset="74.11764705882354%" stop-color="#FFE000"/>

<stop  offset="100%" stop-color="#FFFFFF"/>
</linearGradient>

<radialGradient id="Gradient_7" gradientUnits="userSpaceOnUse" cx="0" cy="0" r="30.876632041885653" fx="0" fy="0" gradientTransform="matrix( 0.940840955729636, -0.33884848534668904, 0.33884848534668904, 0.940840955729636, 34.75,35.7) " spreadMethod="pad">
<stop  offset="12.549019607843137%" stop-color="#FFFFFF"/>

<stop  offset="56.86274509803921%" stop-color="#FFFD2C"/>
</radialGradient>

<g id="Symbol_13_5_Layer1_0_FILL">
<path fill="url(#Gradient_1)" stroke="none" d="
M 21.15 153.5
Q 30.85 158.1 40.7 161.15 89.25 176.15 141.6 153.5 183.1 79.25 141.6 10.55 81.4 -15.05 21.15 10.55 -25.6 76.35 21.15 153.5
M 135.4 18.55
Q 135.75 19.15 135.8 20.1 136.4 22.8 125.3 27.2 98.95 34.05 73.2 33.1 73.05 33.05 72.9 33.05
L 72.3 33
Q 56.000390625 31.8216796875 47.7 30.25
L 47.7 30.2
Q 43.65 29.45 37.55 27.95 24.55 22.35 26.9 18.85
L 27 18.75
Q 27.15 18.45 28.25 17.9 43.65 11.3 59.15 8.65 84.2 6.65 85.2 6.7 110.05 7.5 135.15 18.15
L 135.45 18.5 135.4 18.55
M 145.6 39.05
L 147.6 44.45
Q 160.65 82.7 145.95 122.85
L 144.8 125.8
Q 144.15 127.4 140.9 134.4 137.1 142.55 135.15 146.05 83.7 168.25 36.4 149.95 31.9 148.2 27.35 146.05 21.05 135.6 16.65 125.35 16.4 124.75 16.1 124.2 -1.6 82.2 13.15 44.15
L 15.45 38.75
Q 20.8 28.1 24 23.2 23.4 26.5 35.45 31.5 39.05 32.35 42.65 33.1 84.45 41.4 127.45 30.7 137.45 26.95 138.6 24.2 142.6 31.6 145.6 39.05 Z"/>

<path fill="url(#Gradient_2)" stroke="none" d="
M 30.5 132.25
L 31.55 136.5 36.4 149.95
Q 83.7 168.25 135.15 146.05 137.1 142.55 140.9 134.4 144.15 127.4 144.8 125.8 144.35 126.2 140.55 128 136.15 130.15 133.15 131.2 81 142.65 30.5 132.25 Z"/>

<path fill="#666666" stroke="none" d="
M 30.4 131.85
Q 18.05 127.25 16.65 125.35 21.05 135.6 27.35 146.05 31.9 148.2 36.4 149.95
L 31.55 136.5 30.5 132.25
Q 30.45 132.05 30.4 131.85
M 135.4 18.55
Q 135.25 18.35 135.15 18.15 110.05 7.5 85.2 6.7 84.85 6.7 84.55 6.75 64.75 8.6 48.95 15.4 47.8 15.9 45.6 18.05 43.35 20.35 43.4 21.35 43.5 23.65 46.55 25.95 49.8 28.3 60.05 30.7 67.784375 32.528125 72.3 33
L 72.9 33.05
Q 73.05 33.05 73.2 33.1 98.95 34.05 125.3 27.2 136.4 22.8 135.8 20.1 135.75 19.15 135.4 18.55
M 81.95 9.2
Q 90.3 9.2 96.2 11.3 102.15 13.4 102.15 16.3 102.15 19.3 96.2 21.35 90.3 23.45 81.95 23.45 73.6 23.45 67.7 21.35 61.8 19.3 61.8 16.3 61.8 13.4 67.7 11.3 73.6 9.2 81.95 9.2
M 90.5 14.35
Q 87.15 13.9 85.25 13.9 82.3 13.95 80.1 14.75 78.95 15.15 76.9 16.3 75.15 17.35 74.6 18.25 74.4 18.65 74.65 19.65 74.9 20.7 75.2 20.85 78.35 21.35 81.95 21.35 88.9 21.35 93.85 19.65 96.7 18.8 97.9 17.65 97.75 17.7 97.45 17.6
L 97.15 17.4
Q 97 16.9 94.15 15.65 91.35 14.45 90.5 14.35 Z"/>

<path fill="#999999" stroke="none" d="
M 30.5 57.2
Q 31.25 55.2 32.15 53.25
L 32.15 53
Q 29.4 52.5 26.65 51.9 13.65 47.35 13.15 44.15 -1.6 82.2 16.1 124.2 16.4 124.75 16.65 125.35 18.05 127.25 30.4 131.85 18.35 87.95 30.5 57.2
M 84.55 6.75
Q 84.85 6.7 85.2 6.7 84.2 6.65 59.15 8.65 43.65 11.3 28.25 17.9 27.15 18.45 27 18.75
L 26.9 18.85
Q 24.55 22.35 37.55 27.95 43.65 29.45 47.7 30.2
L 47.7 30.25
Q 56.000390625 31.8216796875 72.3 33 67.784375 32.528125 60.05 30.7 49.8 28.3 46.55 25.95 43.5 23.65 43.4 21.35 43.35 20.35 45.6 18.05 47.8 15.9 48.95 15.4 64.75 8.6 84.55 6.75
M 85.25 13.9
Q 87.15 13.9 90.5 14.35 91.35 14.45 94.15 15.65 97 16.9 97.15 17.4
L 97.45 17.6
Q 97.75 17.7 97.9 17.65
L 97.95 17.6
Q 98.7 16.4 98.75 16.05
L 98.75 15.85
Q 98.75 13.55 93.85 11.95 88.9 10.35 81.95 10.35 75 10.35 70.1 11.95 65.15 13.55 65.15 15.85 65.15 18.1 70.1 19.65
L 74.75 20.8
Q 74.95 20.8 75.2 20.85 74.9 20.7 74.65 19.65 74.4 18.65 74.6 18.25 75.15 17.35 76.9 16.3 78.95 15.15 80.1 14.75 82.3 13.95 85.25 13.9 Z"/>

<path fill="url(#Gradient_3)" stroke="none" d="
M 34.55 48.65
Q 31.6 48.1 28.65 47.45 14.45 42.25 15.45 38.75
L 13.15 44.15
Q 13.65 47.35 26.65 51.9 29.4 52.5 32.15 53
L 32.15 53.25 32.25 53 34.55 48.65 Z"/>

<path fill="#FF9900" stroke="none" d="
M 28.65 47.45
Q 31.6 48.1 34.55 48.65
L 42.65 33.1
Q 39.05 32.35 35.45 31.5 23.4 26.5 24 23.2 20.8 28.1 15.45 38.75 14.45 42.25 28.65 47.45 Z"/>

<path fill="url(#Gradient_4)" stroke="none" d="
M 147.6 44.45
Q 146.4 47.25 134.4 51.15 82.6 62.15 32.25 53
L 32.15 53.25
Q 31.25 55.2 30.5 57.2 18.35 87.95 30.4 131.85 30.45 132.05 30.5 132.25 81 142.65 133.15 131.2 136.15 130.15 140.55 128 144.35 126.2 144.8 125.8
L 145.95 122.85
Q 160.65 82.7 147.6 44.45 Z"/>

<path fill="#FF3300" stroke="none" d="
M 145.05 39.25
L 145.6 39.05
Q 142.6 31.6 138.6 24.2 137.45 26.95 127.45 30.7 84.45 41.4 42.65 33.1
L 34.55 48.65
Q 82.65 57.6 132.25 46.7 145.35 42.25 145.05 39.25 Z"/>

<path fill="url(#Gradient_5)" stroke="none" d="
M 147.6 44.45
L 145.6 39.05 145.05 39.25
Q 145.35 42.25 132.25 46.7 82.65 57.6 34.55 48.65
L 32.25 53
Q 82.6 62.15 134.4 51.15 146.4 47.25 147.6 44.45 Z"/>

<path fill="url(#Gradient_6)" stroke="none" d="
M 96.2 11.3
Q 90.3 9.2 81.95 9.2 73.6 9.2 67.7 11.3 61.8 13.4 61.8 16.3 61.8 19.3 67.7 21.35 73.6 23.45 81.95 23.45 90.3 23.45 96.2 21.35 102.15 19.3 102.15 16.3 102.15 13.4 96.2 11.3
M 97.95 17.6
L 97.9 17.65
Q 96.7 18.8 93.85 19.65 88.9 21.35 81.95 21.35 78.35 21.35 75.2 20.85 74.95 20.8 74.75 20.8
L 70.1 19.65
Q 65.15 18.1 65.15 15.85 65.15 13.55 70.1 11.95 75 10.35 81.95 10.35 88.9 10.35 93.85 11.95 98.75 13.55 98.75 15.85
L 98.75 16.05
Q 98.7 16.4 97.95 17.6 Z"/>
</g>

<g id="Symbol_13_5_Layer0_0_FILL">
<path fill="#FF3300" stroke="none" d="
M 108.35 97.7
Q 108.55 86.6 100.85 78.75 93.2 70.9 82.15 70.7 71.65 70.6 63.9 77.7
L 63.75 77.8
Q 63.3 78.2 62.8 78.6 54.9 86.35 54.85 97.35 54.6 108.4 61.75 110.25 66.95 111.55 73.6 118.8 77.05 112.55 80.25 119.7 84.25 113 87.75 118.8 94.3 112.55 99.4 111.25 102.4 110.45 104.35 108.65 108.25 105.15 108.35 97.7
M 96.5 86.2
Q 96.234765625 86.069140625 95.9 85.95 97.33828125 86.447265625 98.4 87.6 100.35 89.65 100.35 92.3 100.35 94.95 98.3 96.9
L 98.25 96.9
Q 97.1318359375 97.8583984375 95.75 98.15 93.1779296875 101.89296875 87.85 105.9 76 114.85 65.95 103.45 62.60625 99.6806640625 62.4 95.25 60.8 93.366015625 60.8 90.65 60.9 87.65 62.95 85.55
L 62.95 85.5
Q 64.3826171875 84.3896484375 66.2 84.05 71.0681640625 77.0935546875 80.3 75.85 92.6947265625 80.5642578125 96.5 86.2 Z"/>

<path fill="#FF9900" stroke="none" d="
M 93.95 85.65
L 95.9 85.95
Q 96.234765625 86.069140625 96.5 86.2 92.6947265625 80.5642578125 80.3 75.85 71.0681640625 77.0935546875 66.2 84.05 66.919921875 83.95 67.7 83.95 70.7 84.05 72.75 86.1 74.8 88.35 74.75 91.25 74.75 94.3 72.65 96.35 72.6 96.4 72.6 96.45 70.55 98 67.95 97.9 64.95 97.9 62.85 95.7 62.6255859375 95.4810546875 62.4 95.25 62.60625 99.6806640625 65.95 103.45 76 114.85 87.85 105.9 93.1779296875 101.89296875 95.75 98.15 94.998046875 98.36796875 94.15 98.35 91.45 98.35 89.55 96.35 87.75 94.4 87.8 91.7 87.8 89.15 89.55 87.15 91.5 85.65 93.95 85.65 Z"/>
</g>

<g id="spark_2_Layer0_0_FILL">
<path fill="url(#Gradient_7)" stroke="none" d="
M 44 36.85
Q 47.5 35.8 55.55 35.5 43.3 33.9 40.4 32.1 45.05 23.4 49.9 9.95 40.4 21.1 33.95 30.2 31.55 28.2 24.75 26.25
L 27.8 33.6
Q 22.35 35.05 -2.9 44.85 20.3 42.1 29.25 38.9 29.15 45.5 28.3 50.25 31 46.45 33.7 42.7 34.55 41.5 35.05 40.3 42.15 51.55 53.15 60.35 53.35 60.05 48 51.5 42.5 42.7 38.85 37.75 40.35 37.95 44 36.85 Z"/>

<path fill="#FFFF00" stroke="none" d="
M 70.9 6.9
Q 71.7 6.95 72.3 6.25 73.4 5.05 72.25 4.7 66.55 3 70.9 6.9 Z"/>
</g>
</defs>

<g id="Layer_2">
<g transform="matrix( 0.8203582763671875, 0, 0, 0.8203582763671875, 455.25,327.1) ">
<g transform="matrix( 1, 0, 0, 1, -2.7,-14.25) ">
<g id="Layer_1">
<g transform="matrix( 1.265106201171875, -0.0288238525390625, 0.0288238525390625, 1.265106201171875, -62.3,31.9) ">
<g transform="matrix( 1, 0, 0, 1, 0,0) ">
<use xlink:href="#Symbol_13_5_Layer1_0_FILL"/>
</g>

<g id="Layer_3">
<g transform="matrix( 1, 0, 0, 1, 0,0) ">
<use xlink:href="#Symbol_13_5_Layer0_0_FILL"/>
</g>
</g>
</g>
</g>

<g id="Symbol_84">
<g transform="matrix( -1.3028564453125, 0.02972412109375, -0.02972412109375, -1.3028564453125, 89.85,87.95) ">
<g transform="matrix( 1, 0, 0, 1, 0,0) ">
<use xlink:href="#spark_2_Layer0_0_FILL"/>
</g>
</g>
</g>

<g id="Symbol_85"/>

<g id="Symbol_83"/>
</g>
</g>
</g>
</svg>
