
<svg xmlns="http://www.w3.org/2000/svg" version="1.1" xmlns:xlink="http://www.w3.org/1999/xlink" preserveAspectRatio="none" x="0px" y="0px" width="1000px" height="1000px" viewBox="0 0 1000 1000">
<defs>
<linearGradient id="Gradient_1" gradientUnits="userSpaceOnUse" x1="79.75" y1="-8.300000000000002" x2="79.75" y2="40" spreadMethod="pad">
<stop  offset="0%" stop-color="#000000"/>

<stop  offset="20.784313725490197%" stop-color="#FF0000"/>

<stop  offset="39.6078431372549%" stop-color="#FF7000"/>

<stop  offset="74.11764705882354%" stop-color="#FFE000"/>

<stop  offset="100%" stop-color="#FFFFFF"/>
</linearGradient>

<linearGradient id="Gradient_2" gradientUnits="userSpaceOnUse" x1="77.825" y1="112.85" x2="96.575" y2="148.04999999999998" spreadMethod="pad">
<stop  offset="0%" stop-color="#1E1E1E"/>

<stop  offset="29.80392156862745%" stop-color="#FF4F2C"/>

<stop  offset="64.70588235294117%" stop-color="#FFB600"/>

<stop  offset="100%" stop-color="#FFFFFF"/>
</linearGradient>

<linearGradient id="Gradient_3" gradientUnits="userSpaceOnUse" x1="28.475" y1="39.45" x2="10.625" y2="39.45" spreadMethod="pad">
<stop  offset="0%" stop-color="#000000"/>

<stop  offset="20.784313725490197%" stop-color="#FF0000"/>

<stop  offset="39.6078431372549%" stop-color="#FF7000"/>

<stop  offset="74.11764705882354%" stop-color="#FFE000"/>

<stop  offset="100%" stop-color="#FFFFFF"/>
</linearGradient>

<linearGradient id="Gradient_4" gradientUnits="userSpaceOnUse" x1="69.2875" y1="43.625" x2="112.9125" y2="132.775" spreadMethod="pad">
<stop  offset="0%" stop-color="#333333"/>

<stop  offset="53.333333333333336%" stop-color="#FF4F2C"/>

<stop  offset="84.31372549019608%" stop-color="#FFB600"/>

<stop  offset="100%" stop-color="#FFFFFF"/>
</linearGradient>

<linearGradient id="Gradient_5" gradientUnits="userSpaceOnUse" x1="34.012499999999996" y1="41.65" x2="57.2875" y2="41.65" spreadMethod="pad">
<stop  offset="0%" stop-color="#000000"/>

<stop  offset="20.784313725490197%" stop-color="#FF0000"/>

<stop  offset="39.6078431372549%" stop-color="#FF7000"/>

<stop  offset="74.11764705882354%" stop-color="#FFE000"/>

<stop  offset="100%" stop-color="#FFFFFF"/>
</linearGradient>

<linearGradient id="Gradient_6" gradientUnits="userSpaceOnUse" x1="81.73750000000001" y1="5.324999999999999" x2="81.5625" y2="12.175" spreadMethod="pad">
<stop  offset="0%" stop-color="#000000"/>

<stop  offset="20.784313725490197%" stop-color="#FF0000"/>

<stop  offset="39.6078431372549%" stop-color="#FF7000"/>

<stop  offset="74.11764705882354%" stop-color="#FFE000"/>

<stop  offset="100%" stop-color="#FFFFFF"/>
</linearGradient>

<radialGradient id="Gradient_7" gradientUnits="userSpaceOnUse" cx="0" cy="0" r="30.876632041885653" fx="0" fy="0" gradientTransform="matrix( 0.940840955729636, -0.33884848534668904, 0.33884848534668904, 0.940840955729636, 34.75,35.7) " spreadMethod="pad">
<stop  offset="12.549019607843137%" stop-color="#FFFFFF"/>

<stop  offset="56.86274509803921%" stop-color="#FFFD2C"/>
</radialGradient>

<g id="Symbol_13_3_Layer1_0_FILL">
<path fill="url(#Gradient_1)" stroke="none" d="
M 16.9 154.15
Q 27.3 159.05 37.75 162.3 89.6 178.3 145.4 154.15 189.7 74.9 145.4 1.6 81.2 -25.7 16.9 1.6 -32.95 71.85 16.9 154.15
M 57.5 -0.4
Q 84.15 -2.5 85.2 -2.45 111.8 -1.65 138.55 9.75
L 138.9 10.1 138.85 10.2
Q 139.2 10.8 139.25 11.85 139.85 14.7 128.05 19.4 99.9 26.7 72.45 25.7 72.3 25.6 72.1 25.6 71.7890625 25.5767578125 71.45 25.55 54.0908203125 24.369921875 45.25 22.7
L 45.25 22.65
Q 40.9 21.85 34.4 20.2 20.55 14.25 23.05 10.5
L 23.15 10.4
Q 23.35 10.05 24.5 9.5 40.9 2.5 57.5 -0.4
M 149.75 32.05
L 151.8 37.8
Q 165.75 78.65 150.05 121.45
L 148.8 124.6
Q 148.2 126.3 144.7 133.75 140.65 142.45 138.55 146.2 83.65 169.9 33.15 150.35 28.35 148.5 23.55 146.2 16.8 135.05 12.1 124.15 11.85 123.5 11.55 122.9 -7.35 78.05 8.4 37.5
L 10.8 31.7
Q 16.55 20.4 19.95 15.15 19.3 18.65 32.2 23.95 36 24.95 39.9 25.7 84.45 34.55 130.3 23.15 140.95 19.1 142.25 16.15 146.5 24.05 149.75 32.05 Z"/>

<path fill="url(#Gradient_2)" stroke="none" d="
M 26.85 131.5
L 28.05 136.05 33.15 150.35
Q 83.65 169.9 138.55 146.2 140.65 142.45 144.7 133.75 148.2 126.3 148.8 124.6 148.35 125.05 144.3 126.95 139.6 129.25 136.35 130.35 80.75 142.55 26.85 131.5 Z"/>

<path fill="#333333" stroke="none" d="
M 28.05 136.05
L 26.85 131.5
Q 26.8 131.3 26.75 131.1 13.6 126.15 12.1 124.15 16.8 135.05 23.55 146.2 28.35 148.5 33.15 150.35
L 28.05 136.05 Z"/>

<path fill="#FFFFFF" stroke="none" d="
M 28.6 46.95
Q 25.75 46.35 22.8 45.75 8.9 40.9 8.4 37.5 -7.35 78.05 11.55 122.9 11.85 123.5 12.1 124.15 13.6 126.15 26.75 131.1 13.9 84.2 26.85 51.45 27.7 49.25 28.6 47.2
L 28.6 46.95
M 24.95 41
Q 28.1 41.7 31.2 42.3
L 39.9 25.7
Q 36 24.95 32.2 23.95 19.3 18.65 19.95 15.15 16.55 20.4 10.8 31.7 9.8 35.5 24.95 41
M 84.6 -2.4
Q 84.9 -2.45 85.2 -2.45 84.15 -2.5 57.5 -0.4 40.9 2.5 24.5 9.5 23.35 10.05 23.15 10.4
L 23.05 10.5
Q 20.55 14.25 34.4 20.2 40.9 21.85 45.25 22.65
L 45.25 22.7
Q 54.0908203125 24.369921875 71.45 25.55 66.65 25.071875 58.4 23.15 47.5 20.55 44 18.1 40.75 15.65 40.65 13.15 40.6 12.1 43.05 9.65 45.35 7.35 46.6 6.85 63.4 -0.45 84.6 -2.4
M 98.8 9.2
L 98.85 9.15
Q 99.65 7.9 99.7 7.5
L 99.7 7.3
Q 99.7 4.85 94.45 3.1 89.25 1.4 81.8 1.4 74.35 1.4 69.15 3.1 63.9 4.85 63.9 7.3 63.9 9.7 69.15 11.35
L 74.1 12.6
Q 74.3 12.6 74.6 12.65 74.25 12.45 74 11.35 73.75 10.3 73.95 9.9 74.55 8.9 76.4 7.75 78.6 6.55 79.8 6.1 82.15 5.3 85.25 5.25 87.3 5.25 90.95 5.7 91.8 5.8 94.8 7.1 97.85 8.45 98 8.95
L 98.3 9.15
Q 98.7 9.25 98.8 9.2 Z"/>

<path fill="url(#Gradient_3)" stroke="none" d="
M 10.8 31.7
L 8.4 37.5
Q 8.9 40.9 22.8 45.75 25.75 46.35 28.6 46.95
L 28.6 47.2 28.8 46.95 31.2 42.3
Q 28.1 41.7 24.95 41 9.8 35.5 10.8 31.7 Z"/>

<path fill="url(#Gradient_4)" stroke="none" d="
M 151.8 37.8
Q 150.55 40.8 137.75 44.95 82.45 56.7 28.8 46.95
L 28.6 47.2
Q 27.7 49.25 26.85 51.45 13.9 84.2 26.75 131.1 26.8 131.3 26.85 131.5 80.75 142.55 136.35 130.35 139.6 129.25 144.3 126.95 148.35 125.05 148.8 124.6
L 150.05 121.45
Q 165.75 78.65 151.8 37.8 Z"/>

<path fill="url(#Gradient_5)" stroke="none" d="
M 149.75 32.05
L 149.1 32.3
Q 149.45 35.5 135.45 40.2 82.5 51.85 31.2 42.3
L 28.8 46.95
Q 82.45 56.7 137.75 44.95 150.55 40.8 151.8 37.8
L 149.75 32.05 Z"/>

<path fill="#FF3300" stroke="none" d="
M 149.1 32.3
L 149.75 32.05
Q 146.5 24.05 142.25 16.15 140.95 19.1 130.3 23.15 84.45 34.55 39.9 25.7
L 31.2 42.3
Q 82.5 51.85 135.45 40.2 149.45 35.5 149.1 32.3 Z"/>

<path fill="#666666" stroke="none" d="
M 85.2 -2.45
Q 84.9 -2.45 84.6 -2.4 63.4 -0.45 46.6 6.85 45.35 7.35 43.05 9.65 40.6 12.1 40.65 13.15 40.75 15.65 44 18.1 47.5 20.55 58.4 23.15 66.65 25.071875 71.45 25.55 71.7890625 25.5767578125 72.1 25.6 72.3 25.6 72.45 25.7 99.9 26.7 128.05 19.4 139.85 14.7 139.25 11.85 139.2 10.8 138.85 10.2 138.65 10 138.55 9.75 111.8 -1.65 85.2 -2.45
M 81.8 0.2
Q 90.7 0.2 97.05 2.5 103.3 4.65 103.3 7.75 103.3 11 97.05 13.15 90.7 15.4 81.8 15.4 72.85 15.4 66.55 13.15 60.25 11 60.25 7.75 60.25 4.65 66.55 2.5 72.85 0.2 81.8 0.2
M 94.45 11.35
Q 97.5 10.45 98.8 9.2 98.7 9.25 98.3 9.15
L 98 8.95
Q 97.85 8.45 94.8 7.1 91.8 5.8 90.95 5.7 87.3 5.25 85.25 5.25 82.15 5.3 79.8 6.1 78.6 6.55 76.4 7.75 74.55 8.9 73.95 9.9 73.75 10.3 74 11.35 74.25 12.45 74.6 12.65 77.95 13.15 81.8 13.15 89.25 13.15 94.45 11.35 Z"/>

<path fill="url(#Gradient_6)" stroke="none" d="
M 97.05 2.5
Q 90.7 0.2 81.8 0.2 72.85 0.2 66.55 2.5 60.25 4.65 60.25 7.75 60.25 11 66.55 13.15 72.85 15.4 81.8 15.4 90.7 15.4 97.05 13.15 103.3 11 103.3 7.75 103.3 4.65 97.05 2.5
M 98.85 9.15
L 98.8 9.2
Q 97.5 10.45 94.45 11.35 89.25 13.15 81.8 13.15 77.95 13.15 74.6 12.65 74.3 12.6 74.1 12.6
L 69.15 11.35
Q 63.9 9.7 63.9 7.3 63.9 4.85 69.15 3.1 74.35 1.4 81.8 1.4 89.25 1.4 94.45 3.1 99.7 4.85 99.7 7.3
L 99.7 7.5
Q 99.65 7.9 98.85 9.15 Z"/>
</g>

<g id="Symbol_13_3_Layer0_0_FILL">
<path fill="#FF3300" stroke="none" d="
M 120.1 98.7
Q 120.35 82.75 109.25 71.45 98.25 60.1 82.3 59.85 67.2 59.7 56.1 69.95
L 55.85 70.05
Q 55.15 70.6 54.45 71.25 43.15 82.35 42.95 98.3 42.65 114.15 52.95 116.85 60.45 118.7 70.1 129.15 75 120.1 79.55 130.45 85.4 120.85 90.4 129.15 99.85 120.15 107.2 118.25 111.55 117.15 114.35 114.5 120 109.45 120.1 98.7
M 106.5 84.95
Q 108.55 87.6333984375 108.55 91 108.55 92.2580078125 108.2 93.4 108.3943359375 96.3806640625 108.05 99.7 107.5 105.2 103.2 109.3 89.9 121.95 71.2 117.35 49.5125 112.008984375 53.6 94.85 51.60859375 92.205078125 51.65 88.6 51.8 84.3 54.65 81.3
L 54.65 81.25
Q 57.6 78.9 61.5 78.9 61.6009765625 78.903515625 61.7 78.9 68.7091796875 70.4716796875 79.85 67.75 101.15390625 71.1517578125 106.5 84.95 Z"/>

<path fill="#FF9900" stroke="none" d="
M 93 96.8
Q 90.4 93.95 90.45 90.1 90.45 86.4 93.05 83.55 95.8 81.4 99.35 81.4 103.2 81.5 105.8 84.15 106.176171875 84.553515625 106.5 84.95 101.15390625 71.1517578125 79.85 67.75 68.7091796875 70.4716796875 61.7 78.9 61.9193359375 78.911328125 62.1 78.9
L 67.75 81.1
Q 68.3373046875 81.5287109375 68.85 82.05 71.75 85.25 71.7 89.5 71.65 93.85 68.65 96.8 68.6 96.85 68.6 96.9 65.65 99.15 61.9 99.05 57.5 99.05 54.55 95.9 54.0447265625 95.3947265625 53.6 94.85 49.5125 112.008984375 71.2 117.35 89.9 121.95 103.2 109.3 107.5 105.2 108.05 99.7 108.3943359375 96.3806640625 108.2 93.4 107.5734375 95.7103515625 105.6 97.55
L 105.55 97.6
Q 103 99.7 99.6 99.65 95.75 99.65 93 96.8 Z"/>
</g>

<g id="spark_2_Layer0_0_FILL">
<path fill="url(#Gradient_7)" stroke="none" d="
M 44 36.85
Q 47.5 35.8 55.55 35.5 43.3 33.9 40.4 32.1 45.05 23.4 49.9 9.95 40.4 21.1 33.95 30.2 31.55 28.2 24.75 26.25
L 27.8 33.6
Q 22.35 35.05 -2.9 44.85 20.3 42.1 29.25 38.9 29.15 45.5 28.3 50.25 31 46.45 33.7 42.7 34.55 41.5 35.05 40.3 42.15 51.55 53.15 60.35 53.35 60.05 48 51.5 42.5 42.7 38.85 37.75 40.35 37.95 44 36.85 Z"/>

<path fill="#FFFF00" stroke="none" d="
M 70.9 6.9
Q 71.7 6.95 72.3 6.25 73.4 5.05 72.25 4.7 66.55 3 70.9 6.9 Z"/>
</g>
</defs>

<g id="Layer_2">
<g transform="matrix( 0.8203582763671875, 0, 0, 0.8203582763671875, 455.25,327.1) ">
<g transform="matrix( 1, 0, 0, 1, -2.7,-14.25) ">
<g id="Layer_1">
<g transform="matrix( 1.28094482421875, -0.0291748046875, 0.0291748046875, 1.28094482421875, -63.45,29.4) ">
<g transform="matrix( 1, 0, 0, 1, 0,0) ">
<use xlink:href="#Symbol_13_3_Layer1_0_FILL"/>
</g>

<g id="Layer_3">
<g transform="matrix( 1, 0, 0, 1, 0,0) ">
<use xlink:href="#Symbol_13_3_Layer0_0_FILL"/>
</g>
</g>
</g>
</g>

<g id="Symbol_84">
<g transform="matrix( -1.3028564453125, 0.02972412109375, -0.02972412109375, -1.3028564453125, 89.85,87.95) ">
<g transform="matrix( 1, 0, 0, 1, 0,0) ">
<use xlink:href="#spark_2_Layer0_0_FILL"/>
</g>
</g>
</g>

<g id="Symbol_85"/>

<g id="Symbol_83"/>
</g>
</g>
</g>
</svg>
