
<svg xmlns="http://www.w3.org/2000/svg" version="1.1" xmlns:xlink="http://www.w3.org/1999/xlink" preserveAspectRatio="none" x="0px" y="0px" width="1000px" height="1000px" viewBox="0 0 1000 1000">
<defs>
<linearGradient id="Gradient_1" gradientUnits="userSpaceOnUse" x1="79.85" y1="3.3999999999999986" x2="79.85" y2="93.4" spreadMethod="pad">
<stop  offset="0%" stop-color="#000000"/>

<stop  offset="20.784313725490197%" stop-color="#FF0000"/>

<stop  offset="39.6078431372549%" stop-color="#FF7000"/>

<stop  offset="74.11764705882354%" stop-color="#FFE000"/>

<stop  offset="100%" stop-color="#FFFFFF"/>
</linearGradient>

<linearGradient id="Gradient_2" gradientUnits="userSpaceOnUse" x1="81.425" y1="116.11250000000001" x2="99.075" y2="155.6875" spreadMethod="pad">
<stop  offset="0%" stop-color="#1E1E1E"/>

<stop  offset="53.333333333333336%" stop-color="#FF4F2C"/>

<stop  offset="84.31372549019608%" stop-color="#FFB600"/>

<stop  offset="100%" stop-color="#FFFFFF"/>
</linearGradient>

<linearGradient id="Gradient_3" gradientUnits="userSpaceOnUse" x1="29.9875" y1="41.7" x2="12.6125" y2="41.7" spreadMethod="pad">
<stop  offset="0%" stop-color="#000000"/>

<stop  offset="20.784313725490197%" stop-color="#FF0000"/>

<stop  offset="39.6078431372549%" stop-color="#FF7000"/>

<stop  offset="74.11764705882354%" stop-color="#FFE000"/>

<stop  offset="100%" stop-color="#FFFFFF"/>
</linearGradient>

<linearGradient id="Gradient_4" gradientUnits="userSpaceOnUse" x1="53.9375" y1="59.3" x2="138.5625" y2="122.7" spreadMethod="pad">
<stop  offset="0%" stop-color="#333333"/>

<stop  offset="83.52941176470588%" stop-color="#FF4F2C"/>

<stop  offset="100%" stop-color="#FFB72C"/>
</linearGradient>

<linearGradient id="Gradient_5" gradientUnits="userSpaceOnUse" x1="35.3625" y1="43.85" x2="97.03750000000001" y2="43.85" spreadMethod="pad">
<stop  offset="0%" stop-color="#000000"/>

<stop  offset="20.784313725490197%" stop-color="#FF0000"/>

<stop  offset="39.6078431372549%" stop-color="#FF7000"/>

<stop  offset="74.11764705882354%" stop-color="#FFE000"/>

<stop  offset="100%" stop-color="#FFFFFF"/>
</linearGradient>

<linearGradient id="Gradient_6" gradientUnits="userSpaceOnUse" x1="81.8375" y1="8.5" x2="81.6625" y2="15.2" spreadMethod="pad">
<stop  offset="0%" stop-color="#000000"/>

<stop  offset="20.784313725490197%" stop-color="#FF0000"/>

<stop  offset="39.6078431372549%" stop-color="#FF7000"/>

<stop  offset="74.11764705882354%" stop-color="#FFE000"/>

<stop  offset="100%" stop-color="#FFFFFF"/>
</linearGradient>

<radialGradient id="Gradient_7" gradientUnits="userSpaceOnUse" cx="0" cy="0" r="30.876632041885653" fx="0" fy="0" gradientTransform="matrix( 0.940840955729636, -0.33884848534668904, 0.33884848534668904, 0.940840955729636, 34.75,35.7) " spreadMethod="pad">
<stop  offset="12.549019607843137%" stop-color="#FFFFFF"/>

<stop  offset="56.86274509803921%" stop-color="#FFFD2C"/>
</radialGradient>

<g id="Symbol_13_2_Layer1_0_FILL">
<path fill="url(#Gradient_1)" stroke="none" d="
M 18.65 153.35
Q 28.75 158.1 38.95 161.25 89.4 176.85 143.7 153.35 186.85 76.2 143.7 4.9 81.25 -21.7 18.65 4.9 -29.9 73.2 18.65 153.35
M 137.75 14.8
Q 138.35 17.6 126.8 22.15 99.5 29.25 72.7 28.3 72.55 28.25 72.4 28.25 55 27 46.25 25.35
L 46.25 25.3
Q 42.05 24.55 35.7 23 22.25 17.15 24.65 13.5
L 24.75 13.4
Q 24.9 13.05 26.05 12.55 42.05 5.7 58.15 2.9 84.15 0.85 85.15 0.9 111 1.7 137.05 12.8
L 137.35 13.1 137.3 13.2
Q 137.7 13.8 137.75 14.8
M 147.9 34.5
L 149.95 40.1
Q 163.55 79.8 148.25 121.5
L 147.05 124.55
Q 146.4 126.2 143 133.5 139.1 141.95 137.05 145.6 83.65 168.65 34.5 149.65 29.8 147.8 25.15 145.6 18.55 134.75 14 124.1 13.7 123.5 13.45 122.9 -4.95 79.3 10.4 39.75
L 12.75 34.15
Q 18.3 23.15 21.65 18 21 21.45 33.55 26.65 37.25 27.55 41 28.3 84.4 36.9 129.05 25.85 139.4 21.9 140.65 19.05 144.8 26.75 147.9 34.5 Z"/>

<path fill="url(#Gradient_2)" stroke="none" d="
M 28.35 131.3
L 29.5 135.7 34.5 149.65
Q 83.65 168.65 137.05 145.6 139.1 141.95 143 133.5 146.4 126.2 147.05 124.55 146.6 125 142.65 126.85 138.05 129.1 134.95 130.15 80.8 142.05 28.35 131.3 Z"/>

<path fill="#666666" stroke="none" d="
M 29.5 135.7
L 28.35 131.3
Q 28.3 131.05 28.25 130.85 15.45 126.05 14 124.1 18.55 134.75 25.15 145.6 29.8 147.8 34.5 149.65
L 29.5 135.7
M 126.8 22.15
Q 138.35 17.6 137.75 14.8 137.7 13.8 137.3 13.2 137.15 13 137.05 12.8 111 1.7 85.15 0.9 84.85 0.9 84.5 0.95 63.95 2.85 47.55 9.95 46.35 10.45 44.1 12.7 41.7 15.05 41.75 16.1 41.9 18.5 45.05 20.9 48.45 23.3 59.05 25.85 67.6 27.8 72.4 28.25 72.55 28.25 72.7 28.3 99.5 29.25 126.8 22.15
M 81.8 3.5
Q 90.5 3.5 96.6 5.7 102.75 7.85 102.75 10.85 102.75 14 96.6 16.1 90.5 18.3 81.8 18.3 73.15 18.3 67 16.1 60.9 14 60.9 10.85 60.9 7.85 67 5.7 73.15 3.5 81.8 3.5
M 97.6 12
Q 97.45 11.5 94.45 10.15 91.55 8.95 90.7 8.8 87.2 8.4 85.2 8.4 82.2 8.45 79.9 9.25 78.7 9.7 76.55 10.85 74.75 11.95 74.15 12.9 73.95 13.3 74.25 14.35 74.5 15.45 74.8 15.6 78.05 16.1 81.8 16.1 89.05 16.1 94.15 14.35 97.1 13.45 98.35 12.25 98.25 12.3 97.9 12.2
L 97.6 12 Z"/>

<path fill="#999999" stroke="none" d="
M 30.1 49
Q 27.25 48.45 24.4 47.85 10.85 43.1 10.4 39.75 -4.95 79.3 13.45 122.9 13.7 123.5 14 124.1 15.45 126.05 28.25 130.85 15.75 85.25 28.35 53.35 29.15 51.25 30.1 49.25
L 30.1 49
M 84.5 0.95
Q 84.85 0.9 85.15 0.9 84.15 0.85 58.15 2.9 42.05 5.7 26.05 12.55 24.9 13.05 24.75 13.4
L 24.65 13.5
Q 22.25 17.15 35.7 23 42.05 24.55 46.25 25.3
L 46.25 25.35
Q 55 27 72.4 28.25 67.6 27.8 59.05 25.85 48.45 23.3 45.05 20.9 41.9 18.5 41.75 16.1 41.7 15.05 44.1 12.7 46.35 10.45 47.55 9.95 63.95 2.85 84.5 0.95
M 98.35 12.25
L 98.4 12.2
Q 99.2 10.95 99.25 10.6
L 99.25 10.4
Q 99.25 8 94.15 6.35 89.05 4.65 81.8 4.65 74.6 4.65 69.5 6.35 64.4 8 64.4 10.4 64.4 12.75 69.5 14.35
L 74.35 15.55
Q 74.55 15.55 74.8 15.6 74.5 15.45 74.25 14.35 73.95 13.3 74.15 12.9 74.75 11.95 76.55 10.85 78.7 9.7 79.9 9.25 82.2 8.45 85.2 8.4 87.2 8.4 90.7 8.8 91.55 8.95 94.45 10.15 97.45 11.5 97.6 12
L 97.9 12.2
Q 98.25 12.3 98.35 12.25 Z"/>

<path fill="#FF9900" stroke="none" d="
M 26.5 43.2
Q 29.55 43.85 32.55 44.45
L 41 28.3
Q 37.25 27.55 33.55 26.65 21 21.45 21.65 18 18.3 23.15 12.75 34.15 11.75 37.85 26.5 43.2 Z"/>

<path fill="url(#Gradient_3)" stroke="none" d="
M 12.75 34.15
L 10.4 39.75
Q 10.85 43.1 24.4 47.85 27.25 48.45 30.1 49
L 30.1 49.25 30.2 49 32.55 44.45
Q 29.55 43.85 26.5 43.2 11.75 37.85 12.75 34.15 Z"/>

<path fill="url(#Gradient_4)" stroke="none" d="
M 149.95 40.1
Q 148.75 43 136.3 47.05 82.45 58.45 30.2 49
L 30.1 49.25
Q 29.15 51.25 28.35 53.35 15.75 85.25 28.25 130.85 28.3 131.05 28.35 131.3 80.8 142.05 134.95 130.15 138.05 129.1 142.65 126.85 146.6 125 147.05 124.55
L 148.25 121.5
Q 163.55 79.8 149.95 40.1 Z"/>

<path fill="url(#Gradient_5)" stroke="none" d="
M 147.9 34.5
L 147.35 34.7
Q 147.65 37.85 134.05 42.4 82.5 53.75 32.55 44.45
L 30.2 49
Q 82.45 58.45 136.3 47.05 148.75 43 149.95 40.1
L 147.9 34.5 Z"/>

<path fill="#FF3300" stroke="none" d="
M 147.35 34.7
L 147.9 34.5
Q 144.8 26.75 140.65 19.05 139.4 21.9 129.05 25.85 84.4 36.9 41 28.3
L 32.55 44.45
Q 82.5 53.75 134.05 42.4 147.65 37.85 147.35 34.7 Z"/>

<path fill="url(#Gradient_6)" stroke="none" d="
M 96.6 5.7
Q 90.5 3.5 81.8 3.5 73.15 3.5 67 5.7 60.9 7.85 60.9 10.85 60.9 14 67 16.1 73.15 18.3 81.8 18.3 90.5 18.3 96.6 16.1 102.75 14 102.75 10.85 102.75 7.85 96.6 5.7
M 98.4 12.2
L 98.35 12.25
Q 97.1 13.45 94.15 14.35 89.05 16.1 81.8 16.1 78.05 16.1 74.8 15.6 74.55 15.55 74.35 15.55
L 69.5 14.35
Q 64.4 12.75 64.4 10.4 64.4 8 69.5 6.35 74.6 4.65 81.8 4.65 89.05 4.65 94.15 6.35 99.25 8 99.25 10.4
L 99.25 10.6
Q 99.2 10.95 98.4 12.2 Z"/>
</g>

<g id="Symbol_13_2_Layer0_0_FILL">
<path fill="#FF3300" stroke="none" d="
M 117.05 98.45
Q 117.3 83.7 107.1 73.25 96.9 62.85 82.25 62.6 68.3 62.4 58.05 71.85
L 57.85 71.95
Q 57.15 72.5 56.55 73.1 46.1 83.35 45.9 98 45.7 112.7 55.2 115.15 62.1 116.9 70.95 126.5 75.5 118.15 79.7 127.7 85.05 118.8 89.65 126.5 98.4 118.2 105.15 116.45 109.2 115.45 111.75 113 117 108.35 117.05 98.45
M 97.5 82.5
Q 97.7244140625 82.5 97.95 82.5 101.5 82.55 103.9 85 106.4 87.75 106.4 91.3 106.4 94.85 103.7 97.35
L 103.65 97.4
Q 103.098046875 97.8580078125 102.5 98.2 102.9923828125 97.9298828125 103.45 97.55 103.66328125 111.9458984375 85.85 115.6 63.05 120.3 59.15 98.2 59.108984375 97.962890625 59.05 97.7 57.7376953125 97.0283203125 56.6 95.85 53.9 93.15 54 89.1 54.05 85.15 56.75 82.4
L 56.75 82.3
Q 59.45 80.15 63.05 80.15 63.1126953125 80.1515625 63.15 80.15 64.41015625 78.472265625 66 76.9 70.55 72.45 76.4 71.2 77.597265625 71.967578125 78.45 72.75 80.6560546875 71.9333984375 83.15 71.4 94.2044921875 76.0390625 97.5 82.5 Z"/>

<path fill="#FF9900" stroke="none" d="
M 95.45 98.85
Q 93.6013671875 98.21015625 92.1 96.65 89.65 94.05 89.7 90.5 89.7 87.05 92.15 84.4
L 97.1 82.5
Q 97.3140625 82.508203125 97.5 82.5 94.2044921875 76.0390625 83.15 71.4 80.6560546875 71.9333984375 78.45 72.75 77.597265625 71.967578125 76.4 71.2 70.55 72.45 66 76.9 64.41015625 78.472265625 63.15 80.15 65.5634765625 80.237890625 67.45 81.25 68.7423828125 81.953125 69.8 83.05 72.5 86 72.45 89.9 72.4 93.9 69.6 96.65 69.55 96.7 69.55 96.75 69.2537109375 96.98046875 68.95 97.15 68.879296875 97.2224609375 68.8 97.25
L 64.75 98.7
Q 64.0994140625 98.7703125 63.4 98.75 61.025390625 98.75 59.05 97.7 59.108984375 97.962890625 59.15 98.2 63.05 120.3 85.85 115.6 103.66328125 111.9458984375 103.45 97.55 102.9923828125 97.9298828125 102.5 98.2
L 99.35 99.25
Q 98.7912109375 99.3095703125 98.2 99.3 96.7400390625 99.3 95.45 98.85 Z"/>
</g>

<g id="spark_2_Layer0_0_FILL">
<path fill="url(#Gradient_7)" stroke="none" d="
M 44 36.85
Q 47.5 35.8 55.55 35.5 43.3 33.9 40.4 32.1 45.05 23.4 49.9 9.95 40.4 21.1 33.95 30.2 31.55 28.2 24.75 26.25
L 27.8 33.6
Q 22.35 35.05 -2.9 44.85 20.3 42.1 29.25 38.9 29.15 45.5 28.3 50.25 31 46.45 33.7 42.7 34.55 41.5 35.05 40.3 42.15 51.55 53.15 60.35 53.35 60.05 48 51.5 42.5 42.7 38.85 37.75 40.35 37.95 44 36.85 Z"/>

<path fill="#FFFF00" stroke="none" d="
M 70.9 6.9
Q 71.7 6.95 72.3 6.25 73.4 5.05 72.25 4.7 66.55 3 70.9 6.9 Z"/>
</g>
</defs>

<g id="Layer_2">
<g transform="matrix( 0.8203582763671875, 0, 0, 0.8203582763671875, 455.25,327.1) ">
<g transform="matrix( 1, 0, 0, 1, -2.7,-14.25) ">
<g id="Layer_1">
<g transform="matrix( 0.9996795654296875, -0.0227813720703125, 0.0227813720703125, 0.9996795654296875, -40.25,72.55) ">
<g transform="matrix( 1, 0, 0, 1, 0,0) ">
<use xlink:href="#Symbol_13_2_Layer1_0_FILL"/>
</g>

<g id="Layer_3">
<g transform="matrix( 1, 0, 0, 1, 0,0) ">
<use xlink:href="#Symbol_13_2_Layer0_0_FILL"/>
</g>
</g>
</g>
</g>

<g id="Symbol_84">
<g transform="matrix( -1.3028564453125, 0.02972412109375, -0.02972412109375, -1.3028564453125, 88.6,120.45) ">
<g transform="matrix( 1, 0, 0, 1, 0,0) ">
<use xlink:href="#spark_2_Layer0_0_FILL"/>
</g>
</g>
</g>

<g id="Symbol_85"/>

<g id="Symbol_83"/>
</g>
</g>
</g>
</svg>
