
<svg xmlns="http://www.w3.org/2000/svg" version="1.1" xmlns:xlink="http://www.w3.org/1999/xlink" preserveAspectRatio="none" x="0px" y="0px" width="1000px" height="1000px" viewBox="0 0 1000 1000">
<defs>
<linearGradient id="Gradient_1" gradientUnits="userSpaceOnUse" x1="90.35000000000001" y1="75.76249999999999" x2="80.55" y2="145.4375" spreadMethod="pad">
<stop  offset="0%" stop-color="#333333"/>

<stop  offset="100%" stop-color="#666666"/>
</linearGradient>

<radialGradient id="Gradient_2" gradientUnits="userSpaceOnUse" cx="0" cy="0" r="30.876632041885653" fx="0" fy="0" gradientTransform="matrix( 0.940840955729636, -0.33884848534668904, 0.33884848534668904, 0.940840955729636, 34.75,35.7) " spreadMethod="pad">
<stop  offset="12.549019607843137%" stop-color="#FFFFFF"/>

<stop  offset="56.86274509803921%" stop-color="#FFFD2C"/>
</radialGradient>

<linearGradient id="Gradient_3" gradientUnits="userSpaceOnUse" x1="182.8875" y1="84.41250000000001" x2="231.1125" y2="121.8875" spreadMethod="pad">
<stop  offset="0%" stop-color="#FF6600"/>

<stop  offset="50.98039215686274%" stop-color="#FFCC00"/>

<stop  offset="100%" stop-color="#FFFF99"/>
</linearGradient>

<linearGradient id="Gradient_4" gradientUnits="userSpaceOnUse" x1="249.7375" y1="14.575" x2="258.5625" y2="21.425" spreadMethod="pad">
<stop  offset="0%" stop-color="#FF6600"/>

<stop  offset="50.98039215686274%" stop-color="#FFCC00"/>

<stop  offset="100%" stop-color="#FFFF99"/>
</linearGradient>

<linearGradient id="Gradient_5" gradientUnits="userSpaceOnUse" x1="328.6125" y1="177.0875" x2="356.9875" y2="199.11249999999998" spreadMethod="pad">
<stop  offset="0%" stop-color="#FF6600"/>

<stop  offset="50.98039215686274%" stop-color="#FFCC00"/>

<stop  offset="100%" stop-color="#FFFF99"/>
</linearGradient>

<linearGradient id="Gradient_6" gradientUnits="userSpaceOnUse" x1="298.3125" y1="142.225" x2="323.0875" y2="161.475" spreadMethod="pad">
<stop  offset="0%" stop-color="#FF6600"/>

<stop  offset="50.98039215686274%" stop-color="#FFCC00"/>

<stop  offset="100%" stop-color="#FFFF99"/>
</linearGradient>

<linearGradient id="Gradient_7" gradientUnits="userSpaceOnUse" x1="397.3875" y1="98.52499999999999" x2="412.91249999999997" y2="110.575" spreadMethod="pad">
<stop  offset="0%" stop-color="#FF6600"/>

<stop  offset="50.98039215686274%" stop-color="#FFCC00"/>

<stop  offset="100%" stop-color="#FFFF99"/>
</linearGradient>

<linearGradient id="Gradient_8" gradientUnits="userSpaceOnUse" x1="442.7625" y1="51.25" x2="450.6375" y2="57.349999999999994" spreadMethod="pad">
<stop  offset="0%" stop-color="#FF6600"/>

<stop  offset="50.98039215686274%" stop-color="#FFCC00"/>

<stop  offset="100%" stop-color="#FFFF99"/>
</linearGradient>

<g id="Symbol_13_0_Layer1_0_FILL">
<path fill="#000000" stroke="none" d="
M 23.15 152.75
Q 32.5005859375 157.1697265625 42 160.1 88.8271484375 174.533203125 139.3 152.75 179.372265625 81.115625 139.3 14.85 81.2251953125 -9.8263671875 23.15 14.85 -21.946875 78.305078125 23.15 152.75
M 133.3 22.55
Q 133.688671875 23.155859375 133.75 24.05 134.3216796875 26.632421875 123.6 30.9 98.220703125 37.5076171875 73.3 36.55 73.1900390625 36.56328125 73.05 36.55 56.880859375 35.38671875 48.75 33.8
L 48.7 33.8
Q 44.85 33.1 38.95 31.65 26.435546875 26.24765625 28.7 22.8
L 28.75 22.7
Q 28.9640625 22.4615234375 30 21.95 44.850390625 15.60625 59.75 12.95 83.9431640625 11.1044921875 84.9 11.15 108.91328125 11.9107421875 133.1 22.2
L 133.35 22.5 133.3 22.55
M 125.65 34.3
Q 135.27890625 30.64609375 136.45 28 140.32421875 35.141015625 143.15 42.35
L 145.05 47.55
Q 157.6771484375 84.4369140625 143.5 123.1
L 142.4 126
Q 141.8 127.55 138.65 134.3 135 142.15 133.1 145.55 83.4919921875 166.95390625 37.85 149.25 33.4775390625 147.59609375 29.15 145.55 23.0322265625 135.45234375 18.75 125.55 18.528515625 125.0044921875 18.3 124.4 1.20703125 83.933203125 15.45 47.25
L 17.65 42
Q 22.8 31.8 25.85 27 25.28984375 30.2435546875 36.95 35.05 40.41484375 35.8794921875 43.9 36.55 84.1759765625 44.6109375 125.65 34.3
M 95.55 15.6
Q 89.85 13.55 81.8 13.55 73.75 13.55 68.05 15.6 62.35 17.6 62.35 20.4 62.35 23.3 68.05 25.25 73.75 27.3 81.8 27.3 89.85 27.3 95.55 25.25 101.25 23.3 101.25 20.4 101.25 17.6 95.55 15.6
M 97.2 21.65
Q 97.17421875 21.675 97.15 21.7 95.9814453125 22.7875 93.25 23.65 88.5 25.25 81.8 25.25 78.281640625 25.25 75.3 24.8 75.0740234375 24.7671875 74.85 24.7
L 70.35 23.65
Q 65.6 22.15 65.6 19.95 65.6 17.75 70.35 16.2 75.1 14.65 81.8 14.65 88.5 14.65 93.25 16.2 98 17.75 98 19.95
L 98 20.15
Q 97.95 20.5 97.2 21.65 Z"/>

<path fill="#1E1E1E" stroke="none" d="
M 32.15 132.25
L 33.2 136.35 37.85 149.25
Q 83.4919921875 166.95390625 133.1 145.55 135 142.15 138.65 134.3 141.8 127.55 142.4 126 141.95 126.4 138.3 128.15 134.05 130.2 131.15 131.2 80.83828125 142.248828125 32.15 132.25
M 145.05 47.55
L 143.15 42.35 142.65 42.55
Q 142.95 45.45 130.3 49.7 82.4671875 60.25625 36.05 51.55
L 33.85 55.8
Q 82.3779296875 64.6107421875 132.4 54 143.9439453125 50.2548828125 145.05 47.55 Z"/>

<path fill="#666666" stroke="none" d="
M 32.15 132.25
Q 32.0951171875 132.0509765625 32.05 131.85 20.15 127.4 18.75 125.55 23.0322265625 135.45234375 29.15 145.55 33.4775390625 147.59609375 37.85 149.25
L 33.2 136.35 32.15 132.25
M 17.65 42
L 15.45 47.25
Q 15.8974609375 50.3341796875 28.45 54.75 31.0826171875 55.287890625 33.7 55.75
L 33.7 56.05 33.85 55.8 36.05 51.55
Q 33.2251953125 51.0505859375 30.4 50.45 16.705859375 45.453515625 17.65 42
M 133.75 24.05
Q 133.688671875 23.155859375 133.3 22.55 133.2076171875 22.378125 133.1 22.2 108.91328125 11.9107421875 84.9 11.15 84.59296875 11.1734375 84.3 11.2 65.2 12.95 49.95 19.55 48.85 20 46.75 22.1 44.55 24.3 44.6 25.25 44.7 27.5 47.65 29.7 50.8 31.95 60.65 34.3 68.6 36.15 73.05 36.55 73.1900390625 36.56328125 73.3 36.55 98.220703125 37.5076171875 123.6 30.9 134.3216796875 26.632421875 133.75 24.05
M 81.8 13.55
Q 89.85 13.55 95.55 15.6 101.25 17.6 101.25 20.4 101.25 23.3 95.55 25.25 89.85 27.3 81.8 27.3 73.75 27.3 68.05 25.25 62.35 23.3 62.35 20.4 62.35 17.6 68.05 15.6 73.75 13.55 81.8 13.55
M 90.05 18.5
Q 86.8 18.1 84.95 18.1 82.15 18.15 80 18.9 78.9 19.3 76.9 20.4 75.25 21.4 74.7 22.3 74.5 22.65 74.75 23.65 75 24.65 75.3 24.8 78.281640625 25.25 81.8 25.25 88.5 25.25 93.25 23.65 95.9814453125 22.7875 97.15 21.7 97.026953125 21.76875 96.75 21.65
L 96.45 21.45
Q 96.3 21 93.55 19.75 90.85 18.6 90.05 18.5 Z"/>

<path fill="#999999" stroke="none" d="
M 32.1 59.8
Q 32.875390625 57.91171875 33.7 56.05
L 33.7 55.75
Q 31.0826171875 55.287890625 28.45 54.75 15.8974609375 50.3341796875 15.45 47.25 1.20703125 83.933203125 18.3 124.4 18.528515625 125.0044921875 18.75 125.55 20.15 127.4 32.05 131.85 20.45546875 89.4978515625 32.1 59.8
M 84.3 11.2
Q 84.59296875 11.1734375 84.9 11.15 83.9431640625 11.1044921875 59.75 12.95 44.850390625 15.60625 30 21.95 28.9640625 22.4615234375 28.75 22.7
L 28.7 22.8
Q 26.435546875 26.24765625 38.95 31.65 44.85 33.1 48.7 33.8
L 48.75 33.8
Q 56.880859375 35.38671875 73.05 36.55 68.6 36.15 60.65 34.3 50.8 31.95 47.65 29.7 44.7 27.5 44.6 25.25 44.55 24.3 46.75 22.1 48.85 20 49.95 19.55 65.2 12.95 84.3 11.2
M 84.95 18.1
Q 86.8 18.1 90.05 18.5 90.85 18.6 93.55 19.75 96.3 21 96.45 21.45
L 96.75 21.65
Q 97.026953125 21.76875 97.15 21.7 97.17421875 21.675 97.2 21.65 97.95 20.5 98 20.15
L 98 19.95
Q 98 17.75 93.25 16.2 88.5 14.65 81.8 14.65 75.1 14.65 70.35 16.2 65.6 17.75 65.6 19.95 65.6 22.15 70.35 23.65
L 74.85 24.7
Q 75.0740234375 24.7671875 75.3 24.8 75 24.65 74.75 23.65 74.5 22.65 74.7 22.3 75.25 21.4 76.9 20.4 78.9 19.3 80 18.9 82.15 18.15 84.95 18.1 Z"/>

<path fill="#FF9900" stroke="none" d="
M 36.95 35.05
Q 25.28984375 30.2435546875 25.85 27 22.8 31.8 17.65 42 16.705859375 45.453515625 30.4 50.45 33.2251953125 51.0505859375 36.05 51.55
L 43.9 36.55
Q 40.41484375 35.8794921875 36.95 35.05 Z"/>

<path fill="url(#Gradient_1)" stroke="none" d="
M 145.05 47.55
Q 143.9439453125 50.2548828125 132.4 54 82.3779296875 64.6107421875 33.85 55.8
L 33.7 56.05
Q 32.875390625 57.91171875 32.1 59.8 20.45546875 89.4978515625 32.05 131.85 32.0951171875 132.0509765625 32.15 132.25 80.83828125 142.248828125 131.15 131.2 134.05 130.2 138.3 128.15 141.95 126.4 142.4 126
L 143.5 123.1
Q 157.6771484375 84.4369140625 145.05 47.55 Z"/>

<path fill="#FF3300" stroke="none" d="
M 136.45 28
Q 135.27890625 30.64609375 125.65 34.3 84.1759765625 44.6109375 43.9 36.55
L 36.05 51.55
Q 82.4671875 60.25625 130.3 49.7 142.95 45.45 142.65 42.55
L 143.15 42.35
Q 140.32421875 35.141015625 136.45 28 Z"/>
</g>

<g id="Symbol_13_0_Layer0_0_FILL">
<path fill="#FF3300" stroke="none" d="
M 105.4 97.25
Q 105.55 87.35 98.65 80.3 91.8 73.25 81.9 73.1 72.45 72.95 65.55 79.35
L 65.4 79.45
Q 64.95 79.8 64.55 80.2 57.5 87.1 57.35 97 57.2 106.9 63.6 108.55 68.3 109.75 74.25 116.25 77.35 110.6 80.2 117.05 83.8 111.05 86.85 116.25 92.8 110.65 97.35 109.45 100.05 108.8 101.8 107.1 105.35 104 105.4 97.25
M 96.35 96.6
Q 95.57109375 97.2328125 94.65 97.55 93.2453125 101.258984375 89.75 105.6 85.2 111.35 77.9 108.7 67.0083984375 104.790234375 66.75 97.05 65.560546875 96.5625 64.6 95.55 62.75 93.7 62.8 91 62.85 88.35 64.7 86.45
L 64.7 86.4
Q 66.5 84.95 68.95 84.95 70.016015625 84.989453125 70.95 85.3 74.3490234375 80.4603515625 80.25 79.4 89.9134765625 82.086328125 93.5 86.6 95.2302734375 86.941796875 96.5 88.25 98.2 90.05 98.2 92.45 98.2 94.85 96.4 96.55
L 96.35 96.6 Z"/>

<path fill="#FF9900" stroke="none" d="
M 93.05 86.5
Q 93.286328125 86.5591796875 93.5 86.6 89.9134765625 82.086328125 80.25 79.4 74.3490234375 80.4603515625 70.95 85.3 72.38046875 85.78046875 73.5 86.9 75.3 88.85 75.25 91.55 75.2 94.25 73.35 96.05 73.3 96.1 73.3 96.15 71.5 97.6 69.15 97.5 67.851953125 97.5 66.75 97.05 67.0083984375 104.790234375 77.9 108.7 85.2 111.35 89.75 105.6 93.2453125 101.258984375 94.65 97.55 93.727734375 97.8755859375 92.65 97.85 90.25 97.85 88.55 96.05 86.85 94.35 86.9 91.95 86.9 89.6 88.6 87.85 90.3 86.5 92.45 86.5
L 93.05 86.5 Z"/>
</g>

<g id="spark_2_Layer0_0_FILL">
<path fill="url(#Gradient_2)" stroke="none" d="
M 44 36.85
Q 47.5 35.8 55.55 35.5 43.3 33.9 40.4 32.1 45.05 23.4 49.9 9.95 40.4 21.1 33.95 30.2 31.55 28.2 24.75 26.25
L 27.8 33.6
Q 22.35 35.05 -2.9 44.85 20.3 42.1 29.25 38.9 29.15 45.5 28.3 50.25 31 46.45 33.7 42.7 34.55 41.5 35.05 40.3 42.15 51.55 53.15 60.35 53.35 60.05 48 51.5 42.5 42.7 38.85 37.75 40.35 37.95 44 36.85 Z"/>

<path fill="#FFFF00" stroke="none" d="
M 70.9 6.9
Q 71.7 6.95 72.3 6.25 73.4 5.05 72.25 4.7 66.55 3 70.9 6.9 Z"/>
</g>

<g id="Symbol_24_11_Layer0_0_FILL">
<path fill="url(#Gradient_3)" stroke="none" d="
M 247.3 69.7
Q 245.47421875 69.7396484375 243.8 69.75 237.03828125 69.9099609375 232.75 69.95 231.0083984375 69.9677734375 229.35 69.95 223.9587890625 71.80546875 221 76.4 220.3 77.45 217.7 83.3 216.25 86.55 214.45 86.55 206.75 86.55 202.55 81.2 198.45 76 198.45 66.95 198.45 61.55 199.15 58.95 199.95 55.95 202.2 54.05 205 51.75 221.2 46.2
L 209.85 46.2
Q 211.055859375 46.168359375 212 45.5 210.7302734375 45.3234375 207.9 45.65 202.2 46.3 196.4 48.65 179.7 55.3 179.7 68.3 179.7 70 181 74.05 182.25 78.1 182.25 79.8 182.25 81.9 181.6 82.4
L 180.9 82.5
Q 164 83 155.15 91 146.1 99.15 146.1 114.55 146.1 121.15 146.75 124.25 147.6 128.1 150.1 130.85 153.59765625 134.665625 169.6 142.45 167.2541015625 140.330078125 166.6 138.15 166.2 136.75 166.2 130.6 166.2 119.5 168.95 113.25 172.95 103.95 182.9 103.95 195.25 103.95 206.3 119.8 208.55 123.1 214.3 132.7 218.7 140.1 221.2 142.75 222.45 140.4 222.95 140.2 223.3 140.05 227.1 140.05 232.55 140.05 248.1 145.35 263.65 150.65 263.9 150.65
L 263.9 147.95
Q 252.85 143.15 245.2 138.15 230.5 128.6 230.5 116.6 230.5 104 234.6 98.55 239.7 91.8 253.25 91.8 255.2 91.8 257.4 92.5 258.0828125 92.7017578125 258.6 92.85 258.456640625 92.3927734375 258 91.55 257.3 90.35 257.3 88.4 257.3 88.15 259.35 82.6 261.35 77 261.35 75.75 261.35 72.15 257.5 70.8 254.4 69.7 247.3 69.7 Z"/>

<path fill="url(#Gradient_4)" stroke="none" d="
M 261.35 5.4
Q 261.35 1.5763671875 261.15 0.6 256.75 4.05 251.7 15.2 246.25 28 243.8 32.9 245.95 31.05 250.2 28.65 254.2 26.35 255.8 24.85 261.35 19.6 261.35 5.4 Z"/>

<path fill="url(#Gradient_5)" stroke="none" d="
M 339.5 194.9
Q 352.634375 194.9 363.45 190.85 354.86796875 190.8041015625 339.35 186.9 325.15 182.9 324.15 182.9
L 324.15 185.6
Q 328.4 190.3 330.05 191.6 334.35 194.9 339.5 194.9 Z"/>

<path fill="url(#Gradient_6)" stroke="none" d="
M 327.2 156.2
Q 329.55 154 329.55 149.3 329.55 146.85 328.3 146 325.05 143.75 322.95 141.4
L 299.05 141.4
Q 299.8076171875 144.7205078125 300.7 149.8 302.7 161 302.7 165.5 306.9 162.5 312.45 160.9 315.6 159.95 321.1 158.9 325.4 157.9 327.2 156.2 Z"/>

<path fill="url(#Gradient_7)" stroke="none" d="
M 412 92.8
Q 409.4525390625 89.646875 406.6 86.75 407.15 88.9451171875 407.15 89.75 407.15 92.95 403.9 103.95 402.25 109.4 400.6 114.55
L 400.6 119.95
Q 401.1 118.8 409.9 112.2 417.95 106.15 417.95 102.6 417.95 100.15 412 92.8 Z"/>

<path fill="url(#Gradient_8)" stroke="none" d="
M 456.1 45.9
Q 455.975 45.851171875 455.85 45.8 454.05 45.05 451.9 45.05 444.3 45.05 442.5 54.9 442.12578125 56.958203125 442.1 66.45 442.55 65.95 445.25 63.5 448.2 60.6 450.35 57.8 454.8244140625 51.9109375 456.1 45.9 Z"/>
</g>
</defs>

<g id="Layer_2">
<g transform="matrix( 0.8203582763671875, 0, 0, 0.8203582763671875, 455.25,327.1) ">
<g transform="matrix( 1, 0, 0, 1, -2.7,-14.25) ">
<g id="Layer_1">
<g transform="matrix( 0.894073486328125, -0.4478607177734375, 0.4478607177734375, 0.894073486328125, -78.7,-11.35) ">
<g transform="matrix( 1, 0, 0, 1, 0,0) ">
<use xlink:href="#Symbol_13_0_Layer1_0_FILL"/>
</g>

<g id="Layer_3">
<g transform="matrix( 1, 0, 0, 1, 0,0) ">
<use xlink:href="#Symbol_13_0_Layer0_0_FILL"/>
</g>
</g>
</g>

<g transform="matrix( -1.16522216796875, 0.583709716796875, -0.583709716796875, -1.16522216796875, 59.35,-23.1) ">
<g transform="matrix( 1, 0, 0, 1, 0,0) ">
<use xlink:href="#spark_2_Layer0_0_FILL"/>
</g>
</g>
</g>

<g id="Symbol_84"/>

<g id="Symbol_85"/>

<g id="Symbol_83"/>

<g transform="matrix( 0.411102294921875, 0, 0, 0.411102294921875, -21.05,-7.75) ">
<g transform="matrix( 1, 0, 0, 1, 0,0) ">
<use xlink:href="#Symbol_24_11_Layer0_0_FILL"/>
</g>
</g>
</g>
</g>
</g>
</svg>
