
<svg xmlns="http://www.w3.org/2000/svg" version="1.1" xmlns:xlink="http://www.w3.org/1999/xlink" preserveAspectRatio="none" x="0px" y="0px" width="1000px" height="1000px" viewBox="0 0 1000 1000">
<defs>
<linearGradient id="Gradient_1" gradientUnits="userSpaceOnUse" x1="79.85" y1="3.3999999999999986" x2="79.85" y2="93.4" spreadMethod="pad">
<stop  offset="0%" stop-color="#000000"/>

<stop  offset="20.784313725490197%" stop-color="#FF0000"/>

<stop  offset="39.6078431372549%" stop-color="#FF7000"/>

<stop  offset="74.11764705882354%" stop-color="#FFE000"/>

<stop  offset="100%" stop-color="#FFFFFF"/>
</linearGradient>

<linearGradient id="Gradient_2" gradientUnits="userSpaceOnUse" x1="71.5375" y1="109.54999999999998" x2="109.36250000000001" y2="163.85" spreadMethod="pad">
<stop  offset="0%" stop-color="#1E1E1E"/>

<stop  offset="29.80392156862745%" stop-color="#FF4F2C"/>

<stop  offset="64.70588235294117%" stop-color="#FFB600"/>

<stop  offset="100%" stop-color="#FFFFFF"/>
</linearGradient>

<linearGradient id="Gradient_3" gradientUnits="userSpaceOnUse" x1="29.9875" y1="41.7" x2="12.6125" y2="41.7" spreadMethod="pad">
<stop  offset="0%" stop-color="#000000"/>

<stop  offset="20.784313725490197%" stop-color="#FF0000"/>

<stop  offset="39.6078431372549%" stop-color="#FF7000"/>

<stop  offset="74.11764705882354%" stop-color="#FFE000"/>

<stop  offset="100%" stop-color="#FFFFFF"/>
</linearGradient>

<linearGradient id="Gradient_4" gradientUnits="userSpaceOnUse" x1="76.225" y1="72.63749999999999" x2="151.875" y2="149.3625" spreadMethod="pad">
<stop  offset="0%" stop-color="#333333"/>

<stop  offset="53.333333333333336%" stop-color="#FF4F2C"/>

<stop  offset="84.31372549019608%" stop-color="#FFB600"/>

<stop  offset="100%" stop-color="#FFFFFF"/>
</linearGradient>

<linearGradient id="Gradient_5" gradientUnits="userSpaceOnUse" x1="35.3625" y1="43.85" x2="97.03750000000001" y2="43.85" spreadMethod="pad">
<stop  offset="0%" stop-color="#000000"/>

<stop  offset="20.784313725490197%" stop-color="#FF0000"/>

<stop  offset="39.6078431372549%" stop-color="#FF7000"/>

<stop  offset="74.11764705882354%" stop-color="#FFE000"/>

<stop  offset="100%" stop-color="#FFFFFF"/>
</linearGradient>

<linearGradient id="Gradient_6" gradientUnits="userSpaceOnUse" x1="81.8375" y1="8.5" x2="81.6625" y2="15.2" spreadMethod="pad">
<stop  offset="0%" stop-color="#000000"/>

<stop  offset="20.784313725490197%" stop-color="#FF0000"/>

<stop  offset="39.6078431372549%" stop-color="#FF7000"/>

<stop  offset="74.11764705882354%" stop-color="#FFE000"/>

<stop  offset="100%" stop-color="#FFFFFF"/>
</linearGradient>

<radialGradient id="Gradient_7" gradientUnits="userSpaceOnUse" cx="0" cy="0" r="30.879630219612412" fx="0" fy="0" gradientTransform="matrix( 0.48454271937806265, -0.8747675994786912, 0.8747675994786912, 0.48454271937806265, 34.85,35.05) " spreadMethod="pad">
<stop  offset="12.549019607843137%" stop-color="#FFFFFF"/>

<stop  offset="56.86274509803921%" stop-color="#FFFD2C"/>
</radialGradient>

<g id="Symbol_13_4_Layer1_0_FILL">
<path fill="url(#Gradient_1)" stroke="none" d="
M 18.65 153.35
Q 28.75 158.1 38.95 161.25 89.4 176.85 143.7 153.35 186.85 76.2 143.7 4.9 81.25 -21.7 18.65 4.9 -29.9 73.2 18.65 153.35
M 137.75 14.8
Q 138.35 17.6 126.8 22.15 99.5 29.25 72.7 28.3 72.55 28.25 72.4 28.25 55 27 46.25 25.35
L 46.25 25.3
Q 42.05 24.55 35.7 23 22.25 17.15 24.65 13.5
L 24.75 13.4
Q 24.9 13.05 26.05 12.55 42.05 5.7 58.15 2.9 84.15 0.85 85.15 0.9 111 1.7 137.05 12.8
L 137.35 13.1 137.3 13.2
Q 137.7 13.8 137.75 14.8
M 147.9 34.5
L 149.95 40.1
Q 163.55 79.8 148.25 121.5
L 147.05 124.55
Q 146.4 126.2 143 133.5 139.1 141.95 137.05 145.6 83.65 168.65 34.5 149.65 29.8 147.8 25.15 145.6 18.55 134.75 14 124.1 13.7 123.5 13.45 122.9 -4.95 79.3 10.4 39.75
L 12.75 34.15
Q 18.3 23.15 21.65 18 21 21.45 33.55 26.65 37.25 27.55 41 28.3 84.4 36.9 129.05 25.85 139.4 21.9 140.65 19.05 144.8 26.75 147.9 34.5 Z"/>

<path fill="url(#Gradient_2)" stroke="none" d="
M 28.35 131.3
L 29.5 135.7 34.5 149.65
Q 83.65 168.65 137.05 145.6 139.1 141.95 143 133.5 146.4 126.2 147.05 124.55 146.6 125 142.65 126.85 138.05 129.1 134.95 130.15 80.8 142.05 28.35 131.3 Z"/>

<path fill="#666666" stroke="none" d="
M 28.25 130.85
Q 15.45 126.05 14 124.1 18.55 134.75 25.15 145.6 29.8 147.8 34.5 149.65
L 29.5 135.7 28.35 131.3
Q 28.3 131.05 28.25 130.85
M 137.3 13.2
Q 137.15 13 137.05 12.8 111 1.7 85.15 0.9 84.85 0.9 84.5 0.95 63.95 2.85 47.55 9.95 46.35 10.45 44.1 12.7 41.7 15.05 41.75 16.1 41.9 18.5 45.05 20.9 48.45 23.3 59.05 25.85 67.6 27.8 72.4 28.25 72.55 28.25 72.7 28.3 99.5 29.25 126.8 22.15 138.35 17.6 137.75 14.8 137.7 13.8 137.3 13.2
M 81.8 3.5
Q 90.5 3.5 96.6 5.7 102.75 7.85 102.75 10.85 102.75 14 96.6 16.1 90.5 18.3 81.8 18.3 73.15 18.3 67 16.1 60.9 14 60.9 10.85 60.9 7.85 67 5.7 73.15 3.5 81.8 3.5
M 97.6 12
Q 97.45 11.5 94.45 10.15 91.55 8.95 90.7 8.8 87.2 8.4 85.2 8.4 82.2 8.45 79.9 9.25 78.7 9.7 76.55 10.85 74.75 11.95 74.15 12.9 73.95 13.3 74.25 14.35 74.5 15.45 74.8 15.6 78.05 16.1 81.8 16.1 89.05 16.1 94.15 14.35 97.1 13.45 98.35 12.25 98.25 12.3 97.9 12.2
L 97.6 12 Z"/>

<path fill="#FF9900" stroke="none" d="
M 26.5 43.2
Q 29.55 43.85 32.55 44.45
L 41 28.3
Q 37.25 27.55 33.55 26.65 21 21.45 21.65 18 18.3 23.15 12.75 34.15 11.75 37.85 26.5 43.2 Z"/>

<path fill="#999999" stroke="none" d="
M 30.1 49.25
L 30.1 49
Q 27.25 48.45 24.4 47.85 10.85 43.1 10.4 39.75 -4.95 79.3 13.45 122.9 13.7 123.5 14 124.1 15.45 126.05 28.25 130.85 15.75 85.25 28.35 53.35 29.15 51.25 30.1 49.25
M 84.5 0.95
Q 84.85 0.9 85.15 0.9 84.15 0.85 58.15 2.9 42.05 5.7 26.05 12.55 24.9 13.05 24.75 13.4
L 24.65 13.5
Q 22.25 17.15 35.7 23 42.05 24.55 46.25 25.3
L 46.25 25.35
Q 55 27 72.4 28.25 67.6 27.8 59.05 25.85 48.45 23.3 45.05 20.9 41.9 18.5 41.75 16.1 41.7 15.05 44.1 12.7 46.35 10.45 47.55 9.95 63.95 2.85 84.5 0.95
M 94.45 10.15
Q 97.45 11.5 97.6 12
L 97.9 12.2
Q 98.25 12.3 98.35 12.25
L 98.4 12.2
Q 99.2 10.95 99.25 10.6
L 99.25 10.4
Q 99.25 8 94.15 6.35 89.05 4.65 81.8 4.65 74.6 4.65 69.5 6.35 64.4 8 64.4 10.4 64.4 12.75 69.5 14.35
L 74.35 15.55
Q 74.55 15.55 74.8 15.6 74.5 15.45 74.25 14.35 73.95 13.3 74.15 12.9 74.75 11.95 76.55 10.85 78.7 9.7 79.9 9.25 82.2 8.45 85.2 8.4 87.2 8.4 90.7 8.8 91.55 8.95 94.45 10.15 Z"/>

<path fill="url(#Gradient_3)" stroke="none" d="
M 12.75 34.15
L 10.4 39.75
Q 10.85 43.1 24.4 47.85 27.25 48.45 30.1 49
L 30.1 49.25 30.2 49 32.55 44.45
Q 29.55 43.85 26.5 43.2 11.75 37.85 12.75 34.15 Z"/>

<path fill="url(#Gradient_4)" stroke="none" d="
M 149.95 40.1
Q 148.75 43 136.3 47.05 82.45 58.45 30.2 49
L 30.1 49.25
Q 29.15 51.25 28.35 53.35 15.75 85.25 28.25 130.85 28.3 131.05 28.35 131.3 80.8 142.05 134.95 130.15 138.05 129.1 142.65 126.85 146.6 125 147.05 124.55
L 148.25 121.5
Q 163.55 79.8 149.95 40.1 Z"/>

<path fill="url(#Gradient_5)" stroke="none" d="
M 147.9 34.5
L 147.35 34.7
Q 147.65 37.85 134.05 42.4 82.5 53.75 32.55 44.45
L 30.2 49
Q 82.45 58.45 136.3 47.05 148.75 43 149.95 40.1
L 147.9 34.5 Z"/>

<path fill="#FF3300" stroke="none" d="
M 147.35 34.7
L 147.9 34.5
Q 144.8 26.75 140.65 19.05 139.4 21.9 129.05 25.85 84.4 36.9 41 28.3
L 32.55 44.45
Q 82.5 53.75 134.05 42.4 147.65 37.85 147.35 34.7 Z"/>

<path fill="url(#Gradient_6)" stroke="none" d="
M 96.6 5.7
Q 90.5 3.5 81.8 3.5 73.15 3.5 67 5.7 60.9 7.85 60.9 10.85 60.9 14 67 16.1 73.15 18.3 81.8 18.3 90.5 18.3 96.6 16.1 102.75 14 102.75 10.85 102.75 7.85 96.6 5.7
M 98.4 12.2
L 98.35 12.25
Q 97.1 13.45 94.15 14.35 89.05 16.1 81.8 16.1 78.05 16.1 74.8 15.6 74.55 15.55 74.35 15.55
L 69.5 14.35
Q 64.4 12.75 64.4 10.4 64.4 8 69.5 6.35 74.6 4.65 81.8 4.65 89.05 4.65 94.15 6.35 99.25 8 99.25 10.4
L 99.25 10.6
Q 99.2 10.95 98.4 12.2 Z"/>
</g>

<g id="Symbol_13_4_Layer0_0_FILL">
<path fill="#FF3300" stroke="none" d="
M 118.35 98.6
Q 118.6 83.35 108.05 72.55 97.5 61.8 82.35 61.55 67.9 61.35 57.3 71.15
L 57.05 71.25
Q 56.4 71.8 55.75 72.35 44.95 83 44.8 98.15 44.5 113.35 54.35 115.85 61.45 117.65 70.6 127.6 75.35 119 79.7 128.9 85.25 119.65 90.05 127.6 99.05 119.05 106.05 117.3 110.2 116.15 112.9 113.65 118.25 108.85 118.35 98.6
M 104.7 84.7
Q 107.35 87.55 107.35 91.25 107.35 94.85 104.55 97.5
L 104.45 97.55
Q 102.6283203125 99.105859375 100.3 99.4 100.4966796875 99.4056640625 100.65 99.35 98.801953125 103.9818359375 95 109.1 92.65 112.25 88.6 113.65 60.495703125 123.096484375 60.2 98.55 57.743359375 97.9103515625 55.8 95.9 53 93.15 53.05 88.95 53.15 84.85 55.95 81.95
L 55.95 81.9
Q 58.7 79.75 62.5 79.75 63.786328125 79.7814453125 64.95 80.05 70.6201171875 71.8755859375 83.15 69.85 95.5650390625 74.9982421875 100 82.2 102.747265625 82.667578125 104.7 84.7 Z"/>

<path fill="#FF9900" stroke="none" d="
M 92.5 96.75
Q 90.05 94.05 90.1 90.35 90.1 86.85 92.55 84.1 95.2 82.1 98.55 82.1 99.3009765625 82.11015625 100 82.2 95.5650390625 74.9982421875 83.15 69.85 70.6201171875 71.8755859375 64.95 80.05 66.0974609375 80.372265625 67.1 80.9 67.760546875 81.2798828125 68.35 81.7 68.8140625 82.0849609375 69.25 82.5 69.30078125 82.551953125 69.35 82.6 69.40390625 82.65390625 69.45 82.7 72.25 85.75 72.2 89.75 72.15 93.95 69.25 96.75 69.2 96.8 69.2 96.9 66.45 99.05 62.8 98.9 61.4474609375 98.9 60.2 98.55 60.495703125 123.096484375 88.6 113.65 92.65 112.25 95 109.1 98.801953125 103.9818359375 100.65 99.35 100.4966796875 99.4056640625 100.3 99.4
L 99.2 99.5
Q 99.0037109375 99.50625 98.8 99.5 95.15 99.5 92.5 96.75 Z"/>
</g>

<g id="spark_1_Layer0_0_FILL">
<path fill="#FFFF00" stroke="none" d="
M 44.25 1.7
Q 47 0.8 47.55 -0.7 42.45 0.15 44.25 1.7
M -2.5 11.1
Q -2 10.95 -2.45 9.85 -2.9 8.75 -3.3 8.75 -6.35 8.7 -2.5 11.1
M 47.3 74.8
Q 47.3 74.75 47.3 74.7 49.4 68.85 43.75 63.65 43.65 63.7 43.6 63.8 41.8 70.75 47.3 74.8
M 17.9 72.05
Q 18.4 72.05 20.2 69.85 22.15 67.45 22.3 66.15 22.15 66.1 22.05 66.15 14.6 68.9 17.9 72.05
M 60.05 15.75
Q 60.15 15.75 60.3 15.7 68 14.5 70.1 7.8 70 7.7 69.95 7.7 61.45 8.65 60.05 15.75 Z"/>

<path fill="url(#Gradient_7)" stroke="none" d="
M 64.9 41.5
Q 64.85 41.15 55.15 38.2 45.25 35.25 39.25 33.9 40.5 33 42.55 29.8 44.45 26.7 50.3 21.2 40.05 28.05 36.7 28.6 34.45 19 29.25 5.7 29.45 20.35 30.55 31.45 27.45 31.5 21.1 34.5
L 28.15 38.05
Q 25.05 42.75 12.5 66.7 28.15 49.4 32.75 41.05 37.05 46.1 39.55 50.25 39.05 45.6 38.6 41 38.45 39.55 38.1 38.3 50.85 42.1 64.9 41.5 Z"/>
</g>
</defs>

<g id="Layer_2">
<g transform="matrix( 0.8203582763671875, 0, 0, 0.8203582763671875, 455.25,327.1) ">
<g transform="matrix( 1, 0, 0, 1, -2.7,-14.25) ">
<g id="Layer_1">
<g transform="matrix( 1.14788818359375, -0.026153564453125, 0.026153564453125, 1.14788818359375, -52.55,49.85) ">
<g transform="matrix( 1, 0, 0, 1, 0,0) ">
<use xlink:href="#Symbol_13_4_Layer1_0_FILL"/>
</g>

<g id="Layer_3">
<g transform="matrix( 1, 0, 0, 1, 0,0) ">
<use xlink:href="#Symbol_13_4_Layer0_0_FILL"/>
</g>
</g>
</g>
</g>

<g id="Symbol_84">
<g transform="matrix( -1.3028564453125, 0.02972412109375, -0.02972412109375, -1.3028564453125, 89.85,99.2) ">
<g transform="matrix( 1, 0, 0, 1, 0,0) ">
<use xlink:href="#spark_1_Layer0_0_FILL"/>
</g>
</g>
</g>

<g id="Symbol_85"/>

<g id="Symbol_83"/>
</g>
</g>
</g>
</svg>
