
<svg xmlns="http://www.w3.org/2000/svg" version="1.1" xmlns:xlink="http://www.w3.org/1999/xlink" preserveAspectRatio="none" x="0px" y="0px" width="1000px" height="1000px" viewBox="0 0 1000 1000">
<defs>
<linearGradient id="Gradient_1" gradientUnits="userSpaceOnUse" x1="83.875" y1="31.29999999999999" x2="74.32499999999999" y2="152.9" spreadMethod="pad">
<stop  offset="0%" stop-color="#000000"/>

<stop  offset="20.784313725490197%" stop-color="#FF0000"/>

<stop  offset="39.6078431372549%" stop-color="#FF7000"/>

<stop  offset="74.11764705882354%" stop-color="#FFE000"/>

<stop  offset="100%" stop-color="#FFFFFF"/>
</linearGradient>

<linearGradient id="Gradient_2" gradientUnits="userSpaceOnUse" x1="29.512500000000003" y1="46" x2="9.987499999999999" y2="46" spreadMethod="pad">
<stop  offset="0%" stop-color="#000000"/>

<stop  offset="20.784313725490197%" stop-color="#FF0000"/>

<stop  offset="39.6078431372549%" stop-color="#FF7000"/>

<stop  offset="74.11764705882354%" stop-color="#FFE000"/>

<stop  offset="100%" stop-color="#FFFFFF"/>
</linearGradient>

<linearGradient id="Gradient_3" gradientUnits="userSpaceOnUse" x1="96.10000000000001" y1="95.47500000000001" x2="155.70000000000002" y2="155.82500000000002" spreadMethod="pad">
<stop  offset="0%" stop-color="#333333"/>

<stop  offset="100%" stop-color="#FF4F2C"/>
</linearGradient>

<linearGradient id="Gradient_4" gradientUnits="userSpaceOnUse" x1="38.5" y1="48.05" x2="151.4" y2="48.05" spreadMethod="pad">
<stop  offset="0%" stop-color="#000000"/>

<stop  offset="20.784313725490197%" stop-color="#FF0000"/>

<stop  offset="39.6078431372549%" stop-color="#FF7000"/>

<stop  offset="74.11764705882354%" stop-color="#FFE000"/>

<stop  offset="100%" stop-color="#FFFFFF"/>
</linearGradient>

<linearGradient id="Gradient_5" gradientUnits="userSpaceOnUse" x1="81.95" y1="23.225" x2="81.95" y2="-2.625" spreadMethod="pad">
<stop  offset="0%" stop-color="#000000"/>

<stop  offset="20.784313725490197%" stop-color="#FF0000"/>

<stop  offset="39.6078431372549%" stop-color="#FF7000"/>

<stop  offset="74.11764705882354%" stop-color="#FFE000"/>

<stop  offset="100%" stop-color="#FFFFFF"/>
</linearGradient>

<radialGradient id="Gradient_6" gradientUnits="userSpaceOnUse" cx="0" cy="0" r="30.879630219612412" fx="0" fy="0" gradientTransform="matrix( 0.48454271937806265, -0.8747675994786912, 0.8747675994786912, 0.48454271937806265, 34.85,35.05) " spreadMethod="pad">
<stop  offset="12.549019607843137%" stop-color="#FFFFFF"/>

<stop  offset="56.86274509803921%" stop-color="#FFFD2C"/>
</radialGradient>

<linearGradient id="Gradient_7" gradientUnits="userSpaceOnUse" x1="47.6625" y1="54.9875" x2="49.237500000000004" y2="114.91250000000001" spreadMethod="pad">
<stop  offset="0%" stop-color="#000000"/>

<stop  offset="100%" stop-color="#3C3C3C"/>
</linearGradient>

<linearGradient id="Gradient_8" gradientUnits="userSpaceOnUse" x1="81.56249999999999" y1="80.63749999999999" x2="263.6375" y2="151.5625" spreadMethod="pad">
<stop  offset="0%" stop-color="#FF6600"/>

<stop  offset="50.98039215686274%" stop-color="#FFCC00"/>

<stop  offset="100%" stop-color="#FFFF99"/>
</linearGradient>

<linearGradient id="Gradient_9" gradientUnits="userSpaceOnUse" x1="183.4375" y1="52.9125" x2="212.8625" y2="72.98750000000001" spreadMethod="pad">
<stop  offset="0%" stop-color="#FF6600"/>

<stop  offset="50.98039215686274%" stop-color="#FFCC00"/>

<stop  offset="100%" stop-color="#FFFF99"/>
</linearGradient>

<linearGradient id="Gradient_10" gradientUnits="userSpaceOnUse" x1="542.9625" y1="238.45000000000002" x2="541.6374999999999" y2="245.15" spreadMethod="pad">
<stop  offset="0%" stop-color="#FF6600"/>

<stop  offset="50.98039215686274%" stop-color="#FFCC00"/>

<stop  offset="100%" stop-color="#FFFF99"/>
</linearGradient>

<linearGradient id="Gradient_11" gradientUnits="userSpaceOnUse" x1="316.125" y1="388.8125" x2="384.475" y2="198.6875" spreadMethod="pad">
<stop  offset="0%" stop-color="#FF6600"/>

<stop  offset="50.98039215686274%" stop-color="#FFCC00"/>

<stop  offset="100%" stop-color="#FFFF99"/>
</linearGradient>

<linearGradient id="Gradient_12" gradientUnits="userSpaceOnUse" x1="440.475" y1="113.60000000000001" x2="392.225" y2="72.2" spreadMethod="pad">
<stop  offset="0%" stop-color="#FF6600"/>

<stop  offset="50.98039215686274%" stop-color="#FFCC00"/>

<stop  offset="100%" stop-color="#FFFF99"/>
</linearGradient>

<linearGradient id="Gradient_13" gradientUnits="userSpaceOnUse" x1="288.45000000000005" y1="2.8625000000000003" x2="277.75" y2="-2.4625" spreadMethod="pad">
<stop  offset="0%" stop-color="#FF6600"/>

<stop  offset="50.98039215686274%" stop-color="#FFCC00"/>

<stop  offset="100%" stop-color="#FFFF99"/>
</linearGradient>

<linearGradient id="Gradient_14" gradientUnits="userSpaceOnUse" x1="-76.55" y1="-31.137500000000003" x2="47.95" y2="22.4375" spreadMethod="pad">
<stop  offset="0%" stop-color="#FF6600"/>

<stop  offset="50.98039215686274%" stop-color="#FFCC00"/>

<stop  offset="100%" stop-color="#FFFF99"/>
</linearGradient>

<g id="Symbol_13_1_Layer1_0_FILL">
<path fill="url(#Gradient_1)" stroke="none" d="
M 21.15 153.5
Q 30.85 158.1 40.7 161.15 89.25 176.15 141.6 153.5 183.1 79.25 141.6 10.55 81.4 -15.05 21.15 10.55 -25.6 76.35 21.15 153.5
M 135.4 18.55
Q 135.75 19.15 135.8 20.1 136.4 22.8 125.3 27.2 98.95 34.05 73.2 33.1 73.05 33.05 72.9 33.05
L 72.3 33
Q 56.000390625 31.8216796875 47.7 30.25
L 47.7 30.2
Q 43.65 29.45 37.55 27.95 24.55 22.35 26.9 18.85
L 27 18.75
Q 27.15 18.45 28.25 17.9 43.65 11.3 59.15 8.65 84.2 6.65 85.2 6.7 110.05 7.5 135.15 18.15
L 135.45 18.5 135.4 18.55
M 145.6 39.05
L 147.6 44.45
Q 160.65 82.7 145.95 122.85
L 144.8 125.8
Q 144.15 127.4 140.9 134.4 137.1 142.55 135.15 146.05 83.7 168.25 36.4 149.95 31.9 148.2 27.35 146.05 21.05 135.6 16.65 125.35 16.4 124.75 16.1 124.2 -1.6 82.2 13.15 44.15
L 15.45 38.75
Q 20.8 28.1 24 23.2 23.4 26.5 35.45 31.5 39.05 32.35 42.65 33.1 84.45 41.4 127.45 30.7 137.45 26.95 138.6 24.2 142.6 31.6 145.6 39.05 Z"/>

<path fill="#1E1E1E" stroke="none" d="
M 30.5 132.25
L 31.55 136.5 36.4 149.95
Q 83.7 168.25 135.15 146.05 137.1 142.55 140.9 134.4 144.15 127.4 144.8 125.8 144.35 126.2 140.55 128 136.15 130.15 133.15 131.2 81 142.65 30.5 132.25 Z"/>

<path fill="#666666" stroke="none" d="
M 31.55 136.5
L 30.5 132.25
Q 30.45 132.05 30.4 131.85 18.05 127.25 16.65 125.35 21.05 135.6 27.35 146.05 31.9 148.2 36.4 149.95
L 31.55 136.5
M 135.4 18.55
Q 135.25 18.35 135.15 18.15 110.05 7.5 85.2 6.7 84.85 6.7 84.55 6.75 64.75 8.6 48.95 15.4 47.8 15.9 45.6 18.05 43.35 20.35 43.4 21.35 43.5 23.65 46.55 25.95 49.8 28.3 60.05 30.7 67.784375 32.528125 72.3 33
L 72.9 33.05
Q 73.05 33.05 73.2 33.1 98.95 34.05 125.3 27.2 136.4 22.8 135.8 20.1 135.75 19.15 135.4 18.55
M 81.95 9.2
Q 90.3 9.2 96.2 11.3 102.15 13.4 102.15 16.3 102.15 19.3 96.2 21.35 90.3 23.45 81.95 23.45 73.6 23.45 67.7 21.35 61.8 19.3 61.8 16.3 61.8 13.4 67.7 11.3 73.6 9.2 81.95 9.2
M 90.5 14.35
Q 87.15 13.9 85.25 13.9 82.3 13.95 80.1 14.75 78.95 15.15 76.9 16.3 75.15 17.35 74.6 18.25 74.4 18.65 74.65 19.65 74.9 20.7 75.2 20.85 78.35 21.35 81.95 21.35 88.9 21.35 93.85 19.65 96.7 18.8 97.9 17.65 97.75 17.7 97.45 17.6
L 97.15 17.4
Q 97 16.9 94.15 15.65 91.35 14.45 90.5 14.35 Z"/>

<path fill="#999999" stroke="none" d="
M 32.15 53.25
L 32.15 53
Q 29.4 52.5 26.65 51.9 13.65 47.35 13.15 44.15 -1.6 82.2 16.1 124.2 16.4 124.75 16.65 125.35 18.05 127.25 30.4 131.85 18.35 87.95 30.5 57.2 31.25 55.2 32.15 53.25
M 84.55 6.75
Q 84.85 6.7 85.2 6.7 84.2 6.65 59.15 8.65 43.65 11.3 28.25 17.9 27.15 18.45 27 18.75
L 26.9 18.85
Q 24.55 22.35 37.55 27.95 43.65 29.45 47.7 30.2
L 47.7 30.25
Q 56.000390625 31.8216796875 72.3 33 67.784375 32.528125 60.05 30.7 49.8 28.3 46.55 25.95 43.5 23.65 43.4 21.35 43.35 20.35 45.6 18.05 47.8 15.9 48.95 15.4 64.75 8.6 84.55 6.75
M 85.25 13.9
Q 87.15 13.9 90.5 14.35 91.35 14.45 94.15 15.65 97 16.9 97.15 17.4
L 97.45 17.6
Q 97.75 17.7 97.9 17.65
L 97.95 17.6
Q 98.7 16.4 98.75 16.05
L 98.75 15.85
Q 98.75 13.55 93.85 11.95 88.9 10.35 81.95 10.35 75 10.35 70.1 11.95 65.15 13.55 65.15 15.85 65.15 18.1 70.1 19.65
L 74.75 20.8
Q 74.95 20.8 75.2 20.85 74.9 20.7 74.65 19.65 74.4 18.65 74.6 18.25 75.15 17.35 76.9 16.3 78.95 15.15 80.1 14.75 82.3 13.95 85.25 13.9 Z"/>

<path fill="#FF9900" stroke="none" d="
M 35.45 31.5
Q 23.4 26.5 24 23.2 20.8 28.1 15.45 38.75 14.45 42.25 28.65 47.45 31.6 48.1 34.55 48.65
L 42.65 33.1
Q 39.05 32.35 35.45 31.5 Z"/>

<path fill="url(#Gradient_2)" stroke="none" d="
M 15.45 38.75
L 13.15 44.15
Q 13.65 47.35 26.65 51.9 29.4 52.5 32.15 53
L 32.15 53.25 32.25 53 34.55 48.65
Q 31.6 48.1 28.65 47.45 14.45 42.25 15.45 38.75 Z"/>

<path fill="url(#Gradient_3)" stroke="none" d="
M 147.6 44.45
Q 146.4 47.25 134.4 51.15 82.6 62.15 32.25 53
L 32.15 53.25
Q 31.25 55.2 30.5 57.2 18.35 87.95 30.4 131.85 30.45 132.05 30.5 132.25 81 142.65 133.15 131.2 136.15 130.15 140.55 128 144.35 126.2 144.8 125.8
L 145.95 122.85
Q 160.65 82.7 147.6 44.45 Z"/>

<path fill="#FF3300" stroke="none" d="
M 145.05 39.25
L 145.6 39.05
Q 142.6 31.6 138.6 24.2 137.45 26.95 127.45 30.7 84.45 41.4 42.65 33.1
L 34.55 48.65
Q 82.65 57.6 132.25 46.7 145.35 42.25 145.05 39.25 Z"/>

<path fill="url(#Gradient_4)" stroke="none" d="
M 147.6 44.45
L 145.6 39.05 145.05 39.25
Q 145.35 42.25 132.25 46.7 82.65 57.6 34.55 48.65
L 32.25 53
Q 82.6 62.15 134.4 51.15 146.4 47.25 147.6 44.45 Z"/>

<path fill="url(#Gradient_5)" stroke="none" d="
M 96.2 11.3
Q 90.3 9.2 81.95 9.2 73.6 9.2 67.7 11.3 61.8 13.4 61.8 16.3 61.8 19.3 67.7 21.35 73.6 23.45 81.95 23.45 90.3 23.45 96.2 21.35 102.15 19.3 102.15 16.3 102.15 13.4 96.2 11.3
M 97.9 17.65
Q 96.7 18.8 93.85 19.65 88.9 21.35 81.95 21.35 78.35 21.35 75.2 20.85 74.95 20.8 74.75 20.8
L 70.1 19.65
Q 65.15 18.1 65.15 15.85 65.15 13.55 70.1 11.95 75 10.35 81.95 10.35 88.9 10.35 93.85 11.95 98.75 13.55 98.75 15.85
L 98.75 16.05
Q 98.7 16.4 97.95 17.6
L 97.9 17.65 Z"/>
</g>

<g id="Symbol_13_1_Layer0_0_FILL">
<path fill="#FF3300" stroke="none" d="
M 108.45 97.55
Q 108.6 86.4 100.85 78.45 93.15 70.55 82 70.35 71.4 70.2 63.65 77.4
L 63.45 77.5
Q 62.95 77.9 62.5 78.35 54.55 86.1 54.4 97.25 54.25 108.4 61.45 110.25 66.7 111.6 73.4 118.9 76.9 112.55 80.1 119.8 84.15 113.05 87.6 118.9 94.3 112.6 99.4 111.25 102.45 110.5 104.4 108.6 108.4 105.1 108.45 97.55
M 98.25 96.8
Q 97.12109375 97.709375 95.75 98 93.9482421875 102.0884765625 89.95 106.8 83.15 114.85 73.75 108.85 65.5365234375 103.655078125 64.8 97.2 63.5748046875 96.6736328125 62.55 95.6 60.5 93.55 60.55 90.5 60.6 87.5 62.65 85.4
L 62.65 85.35
Q 64.7 83.7 67.45 83.7 68.816796875 83.7447265625 69.95 84.2 71.28203125 82.6228515625 72.9 81 76.1 77.8 80.3 77.2 91.4791015625 80.2974609375 95.3 85.6 97.1056640625 86.0193359375 98.45 87.4 100.35 89.45 100.35 92.15 100.35 94.85 98.3 96.75
L 98.25 96.8 Z"/>

<path fill="#FF9900" stroke="none" d="
M 95.3 85.6
L 95.3 85.6
Q 91.4791015625 80.2974609375 80.3 77.2 76.1 77.8 72.9 81 71.28203125 82.6228515625 69.95 84.2 71.2935546875 84.6947265625 72.35 85.7 72.4021484375 85.752734375 72.45 85.8 72.4982421875 85.846875 72.55 85.9 74.6 88.1 74.55 91.1 74.5 94.15 72.4 96.2 72.35 96.25 72.35 96.3 70.3 97.9 67.7 97.8 66.1384765625 97.8 64.8 97.2 65.5365234375 103.655078125 73.75 108.85 83.15 114.85 89.95 106.8 93.9482421875 102.0884765625 95.75 98 94.976171875 98.2185546875 94.1 98.2 91.4 98.2 89.5 96.2 87.6 94.25 87.65 91.55 87.65 88.95 89.55 86.95 91.45 85.45 93.9 85.45 94.0240234375 85.45234375 94.15 85.45
L 94.45 85.45
Q 94.896484375 85.5244140625 95.3 85.6 Z"/>
</g>

<g id="spark_1_Layer0_0_FILL">
<path fill="#FFFF00" stroke="none" d="
M 44.25 1.7
Q 47 0.8 47.55 -0.7 42.45 0.15 44.25 1.7
M -2.5 11.1
Q -2 10.95 -2.45 9.85 -2.9 8.75 -3.3 8.75 -6.35 8.7 -2.5 11.1
M 47.3 74.8
Q 47.3 74.75 47.3 74.7 49.4 68.85 43.75 63.65 43.65 63.7 43.6 63.8 41.8 70.75 47.3 74.8
M 17.9 72.05
Q 18.4 72.05 20.2 69.85 22.15 67.45 22.3 66.15 22.15 66.1 22.05 66.15 14.6 68.9 17.9 72.05
M 60.05 15.75
Q 60.15 15.75 60.3 15.7 68 14.5 70.1 7.8 70 7.7 69.95 7.7 61.45 8.65 60.05 15.75 Z"/>

<path fill="url(#Gradient_6)" stroke="none" d="
M 64.9 41.5
Q 64.85 41.15 55.15 38.2 45.25 35.25 39.25 33.9 40.5 33 42.55 29.8 44.45 26.7 50.3 21.2 40.05 28.05 36.7 28.6 34.45 19 29.25 5.7 29.45 20.35 30.55 31.45 27.45 31.5 21.1 34.5
L 28.15 38.05
Q 25.05 42.75 12.5 66.7 28.15 49.4 32.75 41.05 37.05 46.1 39.55 50.25 39.05 45.6 38.6 41 38.45 39.55 38.1 38.3 50.85 42.1 64.9 41.5 Z"/>
</g>

<g id="fdudebody_0_Layer1_0_FILL">
<path fill="#000000" stroke="none" d="
M 121.25 29.25
Q 100.3 12.5 92.8 9.95 86.35 7.7 80.05 7.4 73.2 7.1 67.3 9.1 18.4 46.25 9.6 57.35 7.311328125 62.9015625 8.35 68.05 8.7 70.05 20.2 90.35 26 100.65 32.35 111.9
L 35.25 127.75
Q 38.5 143.85 40.3 145.4 41.697265625 146.5537109375 79.9 146.35 118.1580078125 146.1888671875 118.25 143.6 118.391796875 141.0111328125 135.55 109.35 152.7025390625 77.6962890625 152.55 75.15 152.85 73.6 151.65 67.05 150.4 60.1 149.05 57.4 144.05 47.5 121.25 29.25
M 90.35 20.3
Q 99.4 25.45 109.35 32.1 136.35 50.05 142.3 59.9 146.1015625 66.0220703125 146.2 70.8
L 146.2 70.95
Q 146.2173828125 71.4888671875 145.95 72.5 145.502734375 74.4466796875 144.1 78.1 143.6052734375 79.4068359375 143.15 80.5 141.8708984375 83.73203125 141.05 85.15
L 109.3 138.75
Q 106.75 138.3 77.4 137.7 48.9 137.1 48.5 136.8 47.75 136.25 45.85 129.7 43.5 121.55 43 120.25 42.95 120.05 42.85 119.85 41.3 115.7 33.25 101.65 25.25 87.65 17 74.7 15.8 72.85 15.8 66.8 15.8 60.65 17.05 58.8 22.3 51.25 30.75 43.55 36.15 38.6 46.7 30.45 56.35 22.95 62.5 19.75 71.85 14.9 80.2 15.35 80.3 15.35 80.4 15.35 81.9 15.45 90.35 20.3 Z"/>

<path fill="#54433B" stroke="none" d="
M 42.85 119.85
Q 42.95 120.05 43 120.25
L 43 119.8
Q 42.95 119.8 42.85 119.85
M 109.35 32.1
Q 99.4 25.45 90.35 20.3 81.9 15.45 80.4 15.35 78 17 54.75 37.25 30.4 58.4 28.1 61.45 27.25 62.6 26.95 66.25 26.65 69.85 27.25 70.85
L 35.25 80.9
Q 43.749609375 91.1529296875 46.65 97.15 49.5564453125 103.2013671875 60.5 106.55 71.4408203125 109.9423828125 84.75 106.35 98.0625 102.759765625 97.65 98.05 98.59765625 105.2572265625 112.75 105.4 126.90234375 105.5998046875 133.8 95.35 140.743359375 85.1521484375 143.15 80.5 143.6052734375 79.4068359375 144.1 78.1 145.502734375 74.4466796875 145.95 72.5 146.1365234375 71.46328125 146.15 70.45 146.191796875 70.6431640625 146.2 70.8 146.1015625 66.0220703125 142.3 59.9 136.35 50.05 109.35 32.1 Z"/>

<path fill="#2E2724" stroke="none" d="
M 143.15 80.5
Q 140.743359375 85.1521484375 133.8 95.35 126.90234375 105.5998046875 112.75 105.4 98.59765625 105.2572265625 97.65 98.05 98.0625 102.759765625 84.75 106.35 71.4408203125 109.9423828125 60.5 106.55 49.5564453125 103.2013671875 46.65 97.15 43.749609375 91.1529296875 35.25 80.9
L 27.25 70.85
Q 26.65 69.85 26.95 66.25 27.25 62.6 28.1 61.45 30.4 58.4 54.75 37.25 78 17 80.4 15.35 80.3 15.35 80.2 15.35 71.85 14.9 62.5 19.75 56.35 22.95 46.7 30.45 36.15 38.6 30.75 43.55 22.3 51.25 17.05 58.8 15.8 60.65 15.8 66.8 15.8 72.85 17 74.7 25.25 87.65 33.25 101.65 41.3 115.7 42.85 119.85 42.95 119.8 43 119.8
L 43 120.25
Q 43.5 121.55 45.85 129.7 47.75 136.25 48.5 136.8 48.9 137.1 77.4 137.7 106.75 138.3 109.3 138.75
L 141.05 85.15
Q 141.8708984375 83.73203125 143.15 80.5
M 146.2 70.8
Q 146.191796875 70.6431640625 146.15 70.45 146.1365234375 71.46328125 145.95 72.5 146.2173828125 71.4888671875 146.2 70.95
L 146.2 70.8 Z"/>
</g>

<g id="fdudebody_0_Layer0_0_FILL">
<path fill="#000000" stroke="none" d="
M 47.7 144.95
Q 48 144.75 75.9 145.65 104.1 146.55 104.7 146.45 104.8 146.95 105.15 150.9 105.55 154.75 105.8 155.4 106.2 156.4 106.95 156.95 107.8 157.6 108.65 157.3 108.95 157.2 109.9 155.2 110.85 153.25 110.95 152.55 111.45 150.5 112 146.5 112.6 142.25 112.4 141.45 112.35 141 81.15 139.2 48.55 137.4 45.7 137.2 44.6 137.15 42.25 138.5 39.85 139.85 39.65 140.65 39.5 141.4 39 147.6 38.4 154.55 38.65 155.6 39 156.85 39.8 157.7 40.7 158.65 41.8 158.6 43.65 158.5 44.7 155.55 45 154.8 46.1 149.75 47.05 145.45 47.7 144.95 Z"/>
</g>

<g id="fdudehelm_1_Layer0_0_FILL">
<path fill="#000000" stroke="none" d="
M 99.45 79.65
Q 97.4537109375 67.869140625 92.45 58.15 87.4990234375 48.4263671875 76.1 41.6 71.35 38.8 62.4 36.7 54.45 35.15 54.35 35.1 49.6 31.2 38.35 23.8 28.25 17.3 28.25 17.15 10.05 50.65 9.6 52.6 8.15 54.05 4.75 59.85 0.3 67.4 0.3 71.25 -7.9453125 74.56328125 -16.1 78.5 -18.3 79.55 -19.6 81.4 -27.7 93.1 -20.65 107.15 -19.4513671875 109.555078125 -12.25 119 -4.992578125 128.48671875 12.5 134.25 30.03828125 140.01328125 33.9 138.5 37.8126953125 136.9822265625 43.95 126.15 55.9427734375 128.7232421875 66.35 126.55 68.469140625 127.1376953125 74.4 132.05 80.3330078125 136.97734375 86.25 133.6 92.20625 130.2060546875 96.95 127.2 114.6 115.95 100.15 102 101.494921875 91.4330078125 99.45 79.65
M 84 61.35
Q 91.135546875 75.7896484375 92.45 86.45 93.8478515625 97.7552734375 93.2 103.55 91.1720703125 107.6439453125 87.9 110.85 85.0123046875 113.7408203125 81.15 115.95 59.55 128.35 35.35 119.05 15.50390625 111.448828125 7.7 96.75 8.7318359375 85.7580078125 11.55 75 6.7763671875 81.679296875 6.45 90.6 6.4513671875 90.7248046875 6.45 90.8 6.45 91.85 4.55 85.75 2.7 79.6 2.65 75.15 5.1552734375 69.3083984375 9 63.9 13.628125 57.380078125 20.2 51.5 25.438671875 46.8572265625 32.45 44.5 26.9939453125 48.9373046875 25 53.75 30.2072265625 48.375390625 36.05 43.5 43.2638671875 41.84609375 52.1 42.3 60.0201171875 45.779296875 67.4 50.05 83.3 60.75 84 61.35
M 41.45 32.4
Q 48.9 37.9 46.95 37.5 45.6505859375 37.2912109375 44.2 37.25 44.35703125 37.1517578125 44.5 37.05 44.45 37.05 44.4 37.05 44.2064453125 37.14375 44 37.25 43.700390625 37.2412109375 43.35 37.25 41.65 37.2466796875 39.7 37.5 39.668359375 37.5154296875 39.6 37.5 39.1841796875 37.5787109375 38.75 37.65 38.6576171875 37.6611328125 38.55 37.65 36.9177734375 37.9474609375 35.1 38.4 32.729296875 39.00546875 30.65 40
L 24.35 44.85
Q 24.2720703125 44.9388671875 24.2 45 24.1251953125 45.108203125 24.05 45.2 31.1 26.7 31.05 24.75 31.3412109375 24.9970703125 31.85 25.4 34.24453125 27.2533203125 41.45 32.4
M 0.15 81.4
Q 0.25 82.25 0.75 84.85 1.2 87.25 1.35 87.7 4.71328125 100.788671875 12.85 109.7 12.9783203125 109.8404296875 13.1 109.95
L 37.65 124.55 40.9 125.45
Q 38.993359375 127.305078125 37.65 130.15 34.21796875 137.3623046875 26.6 134.8
L 26.55 134.8
Q 2.75 126.7 2.1 126.35 0.75 125.75 -2.35 123.8 -5.2 122 -5.95 121.4 -6.35 121.1 -17.7 105.2 -17.7166015625 105.1421875 -17.75 105.05 -18.5337890625 102.9201171875 -19.1 100.6
L -20.2 94.75
Q -20.15 92.6 -19.65 91.8 -13.8 82.45 -2.15 77.5 -0.7181640625 76.891796875 0.3 76.25 0.15 81.3 0.15 81.4
M 75.8 129.55
Q 69.35 126.6 68.25 126.15 71.5330078125 125.3173828125 74.65 124
L 92.85 110.75
Q 92.9529296875 110.704296875 93 110.6 93.79609375 109.784765625 94.55 108.9 94.75 108.7 96.95 110.65 98.25 111.75 100.85 114.2 99.6427734375 115.5083984375 98.4 116.8 94 121.5 81.7 131.8 81.5291015625 131.865234375 81.3 131.85 80.9 131.95 75.8 129.55
M 55.9 42.6
Q 75.0625 44.751953125 82.7 58.7 71.1869140625 47.8662109375 55.9 42.6 Z"/>

<path fill="#666666" stroke="none" d="
M 82.7 58.7
Q 75.0625 44.751953125 55.9 42.6 71.1869140625 47.8662109375 82.7 58.7
M 74.65 124
Q 74.35 124.15 76.9 127.05 79.05 129.6 81.3 131.85 81.5291015625 131.865234375 81.7 131.8 94 121.5 98.4 116.8 95.8544921875 113.4994140625 93 110.6 92.9529296875 110.704296875 92.85 110.75
L 74.65 124
M 13.1 109.95
Q 12.9783203125 109.8404296875 12.85 109.7 4.71328125 100.788671875 1.35 87.7 -9.5341796875 94.896875 -17.75 105.05 -17.7166015625 105.1421875 -17.7 105.2 -6.35 121.1 -5.95 121.4 -5.2 122 -2.35 123.8 0.75 125.75 2.1 126.35 2.75 126.7 26.55 134.8
L 26.6 134.8
Q 26.7158203125 134.8533203125 26.8 134.85 28.75 132.9 33.55 128.45 37.7 124.6 37.65 124.55
L 13.1 109.95
M 39.6 37.5
Q 39.668359375 37.5154296875 39.7 37.5 41.65 37.2466796875 43.35 37.25 41.1470703125 34.5470703125 37.8 32.35 37.7048828125 35.2173828125 38.55 37.65 38.6576171875 37.6611328125 38.75 37.65 39.1841796875 37.5787109375 39.6 37.5
M 24.75 54.3
Q 24.5189453125 54.4107421875 24.25 54.5 24.6373046875 54.1203125 25 53.75 26.9939453125 48.9373046875 32.45 44.5 25.438671875 46.8572265625 20.2 51.5 13.628125 57.380078125 9 63.9 7.5740234375 69.9759765625 7.1 76.35 6.5529296875 83.5423828125 6.45 90.6 6.7763671875 81.679296875 11.55 75 11.648046875 74.8884765625 11.75 74.75 11.7298828125 74.5796875 11.7 74.4 10.2693359375 60.920703125 24.7 54.5 24.730859375 54.4134765625 24.75 54.3
M 82.75 72.8
Q 86.3498046875 80.4578125 88.55 89 91.4513671875 100.2591796875 87.9 110.85 91.1720703125 107.6439453125 93.2 103.55 93.8478515625 97.7552734375 92.45 86.45 91.135546875 75.7896484375 84 61.35 83.3 60.75 67.4 50.05 67.25 50 69.55 52.8 72.5 56.35 73.6 57.75 85.5431640625 61.3044921875 82.75 72.8 Z"/>

<path fill="#999999" stroke="none" d="
M 93 110.6
Q 95.8544921875 113.4994140625 98.4 116.8 99.6427734375 115.5083984375 100.85 114.2 98.25 111.75 96.95 110.65 94.75 108.7 94.55 108.9 93.79609375 109.784765625 93 110.6
M 76.9 127.05
Q 74.35 124.15 74.65 124 71.5330078125 125.3173828125 68.25 126.15 69.35 126.6 75.8 129.55 80.9 131.95 81.3 131.85 79.05 129.6 76.9 127.05
M 26.6 134.8
Q 34.21796875 137.3623046875 37.65 130.15 38.993359375 127.305078125 40.9 125.45
L 37.65 124.55
Q 37.7 124.6 33.55 128.45 28.75 132.9 26.8 134.85 26.7158203125 134.8533203125 26.6 134.8
M 0.75 84.85
Q 0.25 82.25 0.15 81.4 -19.05 100.9 -19.1 100.6 -18.5337890625 102.9201171875 -17.75 105.05 -9.5341796875 94.896875 1.35 87.7 1.2 87.25 0.75 84.85
M 46.95 37.5
Q 48.9 37.9 41.45 32.4 34.24453125 27.2533203125 31.85 25.4 32.034765625 31.628125 31.45 38.15 31.3810546875 38.9310546875 31.3 39.7 30.97890625 39.8431640625 30.65 40 32.729296875 39.00546875 35.1 38.4 36.9177734375 37.9474609375 38.55 37.65 37.7048828125 35.2173828125 37.8 32.35 41.1470703125 34.5470703125 43.35 37.25 43.700390625 37.2412109375 44 37.25 44.2064453125 37.14375 44.4 37.05 44.45 37.05 44.5 37.05 44.35703125 37.1517578125 44.2 37.25 45.6505859375 37.2912109375 46.95 37.5
M 2.65 75.15
Q 2.7 79.6 4.55 85.75 6.45 91.85 6.45 90.8 6.4513671875 90.7248046875 6.45 90.6 6.5529296875 83.5423828125 7.1 76.35 7.5740234375 69.9759765625 9 63.9 5.1552734375 69.3083984375 2.65 75.15 Z"/>

<path fill="#FFFFFF" stroke="none" d="
M 0.15 81.4
Q 0.15 81.3 0.3 76.25 -0.7181640625 76.891796875 -2.15 77.5 -13.8 82.45 -19.65 91.8 -20.15 92.6 -20.2 94.75
L -19.1 100.6
Q -19.05 100.9 0.15 81.4
M 31.85 25.4
Q 31.3412109375 24.9970703125 31.05 24.75 31.1 26.7 24.05 45.2 24.1251953125 45.108203125 24.2 45 24.2720703125 44.9388671875 24.35 44.85
L 30.65 40
Q 30.97890625 39.8431640625 31.3 39.7 31.3810546875 38.9310546875 31.45 38.15 32.034765625 31.628125 31.85 25.4 Z"/>

<path fill="#FF3300" stroke="none" d="
M 28.6 53.35
Q 26.6716796875 53.6712890625 24.75 54.3 24.730859375 54.4134765625 24.7 54.5 10.2693359375 60.920703125 11.7 74.4 11.7431640625 74.29296875 11.75 74.15 12.1546875 76.25078125 12.9 78.5 18.05 93.9 33.65 88.2 42.65 84.95 44.15 75.9 47.15 57.25 28.6 53.35
M 29.4 58.85
Q 41.5 60.5 38.4 73.4 36.3 82.2 26.25 82 14.4 81.8 17.6 70.3 20.1 61.5 29.4 58.85
M 81.55 76.55
Q 82.325390625 74.5939453125 82.75 72.8 85.5431640625 61.3044921875 73.6 57.75 71.77265625 57.2072265625 69.6 56.85 62.7 61.1 63.9 69.7 65.5 80.8 76.85 79.9 80.35 79.6 81.55 76.55
M 69.25 73.15
Q 66.15 66.4 71.3 62.7 84.6 64.6 75.3 74 71.45 77.85 69.25 73.15 Z"/>

<path fill="#FF9900" stroke="none" d="
M 38.4 73.4
Q 41.5 60.5 29.4 58.85 20.1 61.5 17.6 70.3 14.4 81.8 26.25 82 36.3 82.2 38.4 73.4
M 71.3 62.7
Q 66.15 66.4 69.25 73.15 71.45 77.85 75.3 74 84.6 64.6 71.3 62.7 Z"/>

<path fill="url(#Gradient_7)" stroke="none" d="
M 88.55 89
Q 86.3498046875 80.4578125 82.75 72.8 82.325390625 74.5939453125 81.55 76.55 80.35 79.6 76.85 79.9 65.5 80.8 63.9 69.7 62.7 61.1 69.6 56.85 71.77265625 57.2072265625 73.6 57.75 72.5 56.35 69.55 52.8 67.25 50 67.4 50.05 60.0201171875 45.779296875 52.1 42.3 43.2638671875 41.84609375 36.05 43.5 30.2072265625 48.375390625 25 53.75 24.6373046875 54.1203125 24.25 54.5 24.5189453125 54.4107421875 24.75 54.3 26.6716796875 53.6712890625 28.6 53.35 47.15 57.25 44.15 75.9 42.65 84.95 33.65 88.2 18.05 93.9 12.9 78.5 12.1546875 76.25078125 11.75 74.15 11.7431640625 74.29296875 11.7 74.4 11.7298828125 74.5796875 11.75 74.75 11.648046875 74.8884765625 11.55 75 8.7318359375 85.7580078125 7.7 96.75 15.50390625 111.448828125 35.35 119.05 59.55 128.35 81.15 115.95 85.0123046875 113.7408203125 87.9 110.85 91.4513671875 100.2591796875 88.55 89 Z"/>
</g>

<g id="Symbol_24_7_Layer0_0_FILL">
<path fill="url(#Gradient_8)" stroke="none" d="
M 189.9 96.5
Q 172 88.1 162.15 84.15 127.6 70.35 97.2 70.35 70.05 70.35 54.4 79.45 43.2 85.95 41.85 93.15 46.5 90.8 52.9 88.95 61.3 86.55 68.5 86.55 97.45 86.55 126.55 96.8 147.45 104.15 174.05 119.3 174.15 119.35 194.65 131.3 206.3 138.1 213.65 141.75 233.9 152 247.85 152 253.95 152 262.7 148.6 270.65 145.45 273.35 142.75 267.45 141.65 232.25 126.95 211.4224609375 118.15078125 198.9 112.95 198.553125 112.231640625 198.45 111.85 202.25 109.4 208.95 108.5 212.4 108 215.8 108 207.5 104.7 189.9 96.5 Z"/>

<path fill="url(#Gradient_9)" stroke="none" d="
M 175.6 37.3
Q 175.509375 38.957421875 174.3 41.6 172.95 44.55 172.95 46.2 172.95 56.6 179.7 62.45 190.4 71.7 218.35 71.7 220.3 71.7 223.15 71.05 226.05 70.35 226.45 70.35
L 225.1 69.15
Q 219.8 68.3 210.6 63.65 199.95 58.35 190.25 50.8 181.8146484375 44.260546875 175.6 37.3 Z"/>

<path fill="url(#Gradient_10)" stroke="none" d="
M 549.1 241.1
Q 544.7634765625 232.5572265625 541.25 226.35 540.4025390625 230.3080078125 539.1 234.9 536.1580078125 245.1765625 533.9 250.45 537.5888671875 247.59375 543.2 245.05 549.1 242.4 549.1 241.1 Z"/>

<path fill="url(#Gradient_11)" stroke="none" d="
M 433.45 183
Q 428.95 166.35 428.6 156.05 427.75 130.45 369.05 107.55 350.9 100.45 327.3 93.8 307.1 88.45 305.4 87.75
L 305.4 89.1
Q 308.45 91.7 309.3 92.75 312.15 96.25 312.15 100.55 312.15 103 312.1 103.1 311.2 105.3 306.75 105.3 302.45 105.3 284.6 101.25 266.7 97.2 265.95 97.2 264.85 97.2 255.3 97.9 245.75 98.55 241.1 98.55
L 243.8 99.9
Q 329.3 143.55 368.65 172.55 417.95 208.8 417.95 237.05 417.95 239.6 417.8 240.2 417.6 240.8 416.6 241.8 415.35 241.8 407.75 238.45 400.1 235.05 399.25 235.05 399.8 236.55 402.9 240.65 406.8 245.95 408.75 249.15 416.6 262 416.6 275.9 416.6 290.35 392.35 301.3 379.15 307.25 339 318.6 301.15 329.25 285.6 337.25 261.35 349.8 261.35 366.85 261.35 370.9 265.2 377.55 270.1 386.05 278.8 393.05 303.5 413.1 347.6 413.1 386.6806640625 413.1 414.3 400.45 430.6724609375 397.298828125 447.3 392.1 494.5 377.35 504.9 359.6 514.75 342.7 516.85 313.05 517.5 303.6 517.35 292.95 517.122265625 285.7767578125 517.05 283.15 516.9509765625 290.2943359375 511.65 297.9 506.45 305.45 497.2 312.1 488.35 318.45 478.4 322.25 468.2 326.15 460 326.15 451.4 326.15 446 320.75 440.75 315.45 440.75 307.25 440.75 305.4 442.8 298.85 445.3 290.95 448.75 283.65 459 262.3 471.45 259.2 465.7 256.55 458.15 243.9 451.25 232.4 444.4 215.4 437.8 198.95 433.45 183 Z"/>

<path fill="url(#Gradient_12)" stroke="none" d="
M 445.05 73.45
Q 439.15 70.45 419.45 62.7 409.8515625 58.92578125 401.6 55.35 383.5201171875 51.1958984375 360.7 48.55 330.9 45.05 306.75 45.05 311 46.2 332.35 50.25 355.3 55 371.25 60.5 421.7 77.8 415.25 105.3 429.45 109.45 440.95 118.15 454.93984375 128.7091796875 458.25 142.45 459.0970703125 137.387109375 461 131.55 466.05 116 466.05 105.8 466.05 93.45 460.7 85.8 456 79.05 445.05 73.45 Z"/>

<path fill="url(#Gradient_13)" stroke="none" d="
M 281.6 -12.2
Q 278.643359375 -14.7990234375 276.05 -16.8 276.05 -16.6369140625 276.05 -16.5 276.05 -14.7 278.75 -2.4 281.45 9.85 281.45 10.8 281.45 11.9349609375 281.4 12.75 282.109765625 11.3248046875 283.1 9.2 284.55 6.15 285.7 4.95 288.6 1.85 296.15 4.85 293.6 -1.65 281.6 -12.2 Z"/>

<path fill="url(#Gradient_14)" stroke="none" d="
M 22.95 -2.5
Q 22.95 -5.6 18.85 -12.5 13.7 -21.15 5.55 -28.5 -18.15 -49.95 -54.5 -49.95 -86.55 -49.95 -118.1 -38 -127.55 -34.45 -137.9 -29.35 -147.4 -24.7 -148.15 -24.45
L -145.45 -24.45
Q -68.6 -11.4 -59.25 -8.5 -54.25 -7 -49.3 -3.75 -41.95 1.1 -34.4 4.85 -31.45 0.55 -27.55 -3.35 -19.8 -11.1 -12.95 -11.1 -6.7 -11.1 6.9 -2.3 16.0498046875 3.5748046875 20.75 8.4 22.95 3.804296875 22.95 -2.5 Z"/>
</g>
</defs>

<g id="Layer_2">
<g transform="matrix( 0.8203582763671875, 0, 0, 0.8203582763671875, 455.25,327.1) ">
<g transform="matrix( 1, 0, 0, 1, -2.7,-14.25) ">
<g id="Layer_1">
<g transform="matrix( 0.9792022705078125, -0.202880859375, 0.202880859375, 0.9792022705078125, -66.8,48.35) ">
<g transform="matrix( 1, 0, 0, 1, 0,0) ">
<use xlink:href="#Symbol_13_1_Layer1_0_FILL"/>
</g>

<g id="Layer_3">
<g transform="matrix( 1, 0, 0, 1, 0,0) ">
<use xlink:href="#Symbol_13_1_Layer0_0_FILL"/>
</g>
</g>
</g>

<g transform="matrix( -1.27618408203125, 0.264404296875, -0.264404296875, -1.27618408203125, 69.75,72.6) ">
<g transform="matrix( 1, 0, 0, 1, 0,0) ">
<use xlink:href="#spark_1_Layer0_0_FILL"/>
</g>
</g>
</g>

<g id="Symbol_84"/>

<g id="Symbol_85">
<g transform="matrix( 0.1782684326171875, 0, 0.051513671875, 0.447845458984375, 59.35,144.25) ">
<g transform="matrix( 1, 0, 0, 1, 0,0) ">
<use xlink:href="#fdudebody_0_Layer1_0_FILL"/>
</g>

<g transform="matrix( 1, 0, 0, 1, 0,0) ">
<use xlink:href="#fdudebody_0_Layer0_0_FILL"/>
</g>
</g>
</g>

<g id="Symbol_83">
<g transform="matrix( 0.3185882568359375, -0.3525848388671875, 0.312255859375, 0.2821807861328125, 55.1,108.6) ">
<g id="Layer_4">
<g transform="matrix( 1, 0, 0, 1, 0,0) ">
<use xlink:href="#fdudehelm_1_Layer0_0_FILL"/>
</g>
</g>
</g>
</g>

<g transform="matrix( 0.411102294921875, 0, 0, 0.411102294921875, -21.05,-7.75) ">
<g transform="matrix( 1, 0, 0, 1, 0,0) ">
<use xlink:href="#Symbol_24_7_Layer0_0_FILL"/>
</g>
</g>
</g>
</g>
</g>
</svg>
