
<svg xmlns="http://www.w3.org/2000/svg" version="1.1" xmlns:xlink="http://www.w3.org/1999/xlink" preserveAspectRatio="none" x="0px" y="0px" width="1000px" height="1000px" viewBox="0 0 1000 1000">
<defs>
<linearGradient id="Gradient_1" gradientUnits="userSpaceOnUse" x1="57.0125" y1="17" x2="59.3875" y2="35" spreadMethod="pad">
<stop  offset="0%" stop-color="#999999"/>

<stop  offset="100%" stop-color="#FFFFFF"/>
</linearGradient>

<linearGradient id="Gradient_2" gradientUnits="userSpaceOnUse" x1="57.262499999999996" y1="50.412499999999994" x2="64.33749999999999" y2="96.0875" spreadMethod="pad">
<stop  offset="0%" stop-color="#999999"/>

<stop  offset="100%" stop-color="#FFFFFF"/>
</linearGradient>

<g id="Archer_Head_copy_1_Layer1_0_FILL">
<path fill="#000000" stroke="none" d="
M 98.7 41.45
Q 96.2 39.9 90.55 38.15 84.85 36.4 82.2 35.95 82.25 35.9 82.3 35.85 83.7 34.5 85 32.4 86.3 30.25 86.35 29.15 86.35 28 73.5 11.4 60.65 -5.25 60.35 -5.05 59.8 -5.05 46.55 10.4 33.25 25.8 33.4 27.3 33.5 28.75 35.95 32.45 38.35 36.15 39.65 37.4 37 37.55 27.9 39.1 18.75 40.6 14.8 43.55 10.8 46.45 11 48.55 11.15 50.65 13.35 61.9 14.45 67.8 16.1 76 16.55 79.05 17.25 90.45 17.85 100.05 18.3 100.7 26.4 105.05 27 104.8
L 27.2 105.3
Q 53.938671875 108.6109375 73.35 107.3 92.761328125 105.9890625 94.2 105.75 96 104.8 96.3 104.5 98.2 102.7 101.85 51.55 101.15 43 98.7 41.45
M 91.1 50.45
Q 91.45 53.35 90.85 75.3 90.3 97.5 90.45 99.4 90.3 99.35 88.65 99.75 87.15 100.05 86.5 100.25
L 74.1 103.05
Q 69.6 103.8 65.85 103.95 60.7 104.25 49.45 103.3 39 102.25 38.6 102.2 36.95 102 33.4 101.25 29.45 100.45 28.3 100.05 28.05 99.95 27 98.55 25.9 97.05 25.9 96.5 25.4 74.8 20.7 53.8 20.55 53.15 20.8 51.85 21.05 50.7 21.2 50.6 21.75 50.25 23.95 49.5 31.35 47.6 35.9 46.6 37.35 46.3 50.4 45.1 64.7 43.85 68.05 44.05 68.1 44.05 68.2 44.05
L 68.3 44.05
Q 68.4822265625 44.0955078125 68.7 44.1
L 68.75 44.1
Q 88.9 46.3 89.75 47.05 90.85 48 91.1 50.45
M 64.05 10.65
Q 64.35 11.3 64.75 12 76.5 29.2 76.55 29.75 76.55 29.85 72.75 34.7 68.8 39.7 68.6 40.25 67.85 40.2 65.65 40.05 63.4 39.95 62.6 39.95 60.45 39.9 56.35 40.05 52.55 40.15 51.95 40.25 49.55 35.7 46.35 31.75 44.75 29.6 44.75 29.3 44.75 28.95 45.05 28.5 45.1 28.45 50.8 20.35 56.85 11.25 58.85 6.3 59.8 4.05 60.55 1.75 62.6 7.9 64.05 10.65 Z"/>

<path fill="#FFFFFF" stroke="none" d="
M 44.75 29.3
Q 44.75 29.6 46.35 31.75 47.1 31.65 50.35 30.8 53.65 29.85 53.7 29.65 53.7 29.25 45.05 28.5 44.75 28.95 44.75 29.3
M 64.75 12
Q 64.65 11.9 64.6 11.85 64.2 11.45 64.05 10.65 62.6 7.9 60.55 1.75 59.8 4.05 58.85 6.3 59.55 24.35 59.9 25.9 60.1 26.6 61.6 28.15 63.2 29.75 63.95 29.85 65.05 30.1 72.25 30.35 71 31.75 66.7 35.95 62.7 39.85 62.6 39.95 63.4 39.95 65.65 40.05 67.85 40.2 68.6 40.25 68.8 39.7 72.75 34.7 76.55 29.85 76.55 29.75 76.5 29.2 64.75 12
M 90.85 75.3
Q 91.45 53.35 91.1 50.45 90.85 48 89.75 47.05 88.9 46.3 68.75 44.1
L 68.7 44.1 68.4 44.1 68.3 44.05 68.2 44.05
Q 68.1 44.05 68.05 44.05 78.75 46.25 83.15 52.25 88.05 62.25 86.5 100.25 87.15 100.05 88.65 99.75 90.3 99.35 90.45 99.4 90.3 97.5 90.85 75.3 Z"/>

<path fill="url(#Gradient_1)" stroke="none" d="
M 58.85 6.3
Q 56.85 11.25 50.8 20.35 45.1 28.45 45.05 28.5 53.7 29.25 53.7 29.65 53.65 29.85 50.35 30.8 47.1 31.65 46.35 31.75 49.55 35.7 51.95 40.25 52.55 40.15 56.35 40.05 60.45 39.9 62.6 39.95 62.7 39.85 66.7 35.95 71 31.75 72.25 30.35 65.05 30.1 63.95 29.85 63.2 29.75 61.6 28.15 60.1 26.6 59.9 25.9 59.55 24.35 58.85 6.3 Z"/>

<path fill="#666666" stroke="none" d="
M 25.9 96.5
Q 25.9 97.05 27 98.55 28.05 99.95 28.3 100.05 29.45 100.45 33.4 101.25 36.95 102 38.6 102.2
L 36.8 66.15
Q 35.95 47 35.9 46.6 31.35 47.6 23.95 49.5 21.75 50.25 21.2 50.6 21.05 50.7 20.8 51.85 20.55 53.15 20.7 53.8 25.4 74.8 25.9 96.5 Z"/>

<path fill="url(#Gradient_2)" stroke="none" d="
M 68.05 44.05
Q 64.7 43.85 50.4 45.1 37.35 46.3 35.9 46.6 35.95 47 36.8 66.15
L 38.6 102.2
Q 39 102.25 49.45 103.3 60.7 104.25 65.85 103.95 69.6 103.8 74.1 103.05
L 86.5 100.25
Q 88.05 62.25 83.15 52.25 78.75 46.25 68.05 44.05 Z"/>

<path fill="#999999" stroke="none" d="
M 68.7 44.1
Q 68.4822265625 44.0955078125 68.3 44.05
L 68.4 44.1 68.7 44.1 Z"/>
</g>

<g id="Archer_Head_copy_1_Layer0_0_FILL">
<path fill="#000000" stroke="none" d="
M 80.4 83
L 78.3 79.05 81.2 74.1
Q 68.55 80.7 80.4 83
M 62.85 83.25
Q 67.9 79.7 62.8 75.55 57.9 71.65 51.2 70.05 51.8 71.35 55.05 74.7 58.5 78.25 60.3 79.15 58.7 80.1 55.35 82.7 51.2 85.8 50.25 87.3 61.45 84.2 62.85 83.25 Z"/>
</g>
</defs>

<g transform="matrix( 0.736785888671875, 0, 0, 0.736785888671875, 449.7,402.2) ">
<g transform="matrix( 1, 0, 0, 1, 13.9,59.7) ">
<g transform="matrix( 1, 0, 0, 1, 0,0) ">
<use xlink:href="#Archer_Head_copy_1_Layer1_0_FILL"/>
</g>

<g transform="matrix( 1, 0, 0, 1, 0,0) ">
<use xlink:href="#Archer_Head_copy_1_Layer0_0_FILL"/>
</g>
</g>
</g>
</svg>
