
<svg xmlns="http://www.w3.org/2000/svg" version="1.1" xmlns:xlink="http://www.w3.org/1999/xlink" preserveAspectRatio="none" x="0px" y="0px" width="1000px" height="1000px" viewBox="0 0 1000 1000">
<defs>
<g id="Duplicate_Items_Folder_Crossbow_cape_copy_0_Layer0_0_FILL">
<path fill="#000000" stroke="none" d="
M 76.1 -51.25
Q 72.958984375 -51.9044921875 75.3 -56.25 77.6361328125 -60.540234375 78.65 -65.9 72.0958984375 -68.7712890625 69.2 -66.95 66.5646484375 -65.2447265625 65.95 -64.4 69.7580078125 -70.6912109375 62.4 -75.95 59.225390625 -72.537890625 56.8 -69.7 56.9591796875 -74.2359375 47.2 -78.4
L 43.75 -69.75 34.8 -76
Q 23.63359375 -64.83203125 25.2 -60.05 26.8197265625 -55.2146484375 28.7 -52.35 24.259765625 -54.8267578125 23.25 -54.5 22.65 -54.25 18.35 -49.5 14 -44.6 14.45 -44.25 14.9 -43.95 21.75 -37.3 28.9 -30.35 29.5 -29.85
L 27.35 -22.7
Q 27.25 -22.6 19.15 -23.75 19.65 -22.85 15.35 3.55 11 30.2 11.4 31.5
L 17.5 40.85
Q 19.6 42.35 26.95 44.4 33.85 46.3 35.7 46.2 37.3 46.2 41.2 42.1 45.05 38 45.1 36.25 45.2748046875 32.8712890625 60.8 -16.25 58 -19.5 56.15 -20.7
L 60.6 -29.8
Q 66.4580078125 -30.4501953125 84.05 -45.2 79.2818359375 -50.5431640625 76.1 -51.25
M 47.1 -67
L 47.25 -66.95
Q 47.6 -66.8 47.8 -61.75 47.95 -56.8 47.7 -56.05 44.55 -47 44.4 -46.35 44.8 -46.15 47.95 -52.05 49.5 -55.05 51 -58.05 51.3 -57.85 50.75 -47.35 55.05 -60.7 55.35 -61.15 56.4 -62.7 60.25 -64.3 60.65 -60.95 59.5 -57.65 58.85 -55.75 57.8 -52.25 56.8 -48.9 56.8 -48.7 57.1 -48.35 60.1 -52.4 61.6 -54.4 63.25 -56.75 64.55 -57.75 67.15 -59.05 69.95 -60.4 70.35 -60.1 70.620703125 -59.9208984375 70.85 -59.65
L 61.35 -45.15
Q 62.3 -45.95 66.85 -45.85 69.1 -45.75 71.15 -45.55 71.3708984375 -45.019921875 66.8 -40.7 66.18828125 -40.1359375 65.5 -39.5 59.95 -34.4 57.6 -32.75 57.45 -32.65 54.3 -34.1
L 53.95 -34.25 50.6 -32.65
Q 49.8384765625 -32.2654296875 49.7 -32.3 48 -35.2 47.5 -34.7 45.8666015625 -33.0666015625 44.2 -31.45 43.7166015625 -30.9166015625 43.2 -30.4 42.5 -31.05 41.6 -33.55 40.7 -35.9 40.6 -35.95 39.05 -35.35 37.45 -34.8 34.2 -33.7 33.75 -33.85 33.15 -34.05 29.8 -37.85 26.55 -41.6 24.85 -44 25.1 -44.85 27.65 -45.7 27.7673828125 -45.7380859375 27.85 -45.8 29.4537109375 -46.2671875 30.85 -46.5
L 36.1 -43.4
Q 36.2291015625 -43.3291015625 36.25 -43.35
L 35 -47.5
Q 33.88203125 -51.3642578125 33 -55.35 32.3853515625 -58.06171875 33.65 -60.25 34 -60.8 36.7 -62.65
L 39.9 -51.7
Q 39.9783203125 -51.7783203125 40.1 -52.05 40.5294921875 -52.9109375 41.5 -55.9 42.9 -60.3 43.35 -61.25 43.9 -62.55 45.25 -64.75 46.55 -66.9 46.8 -67
L 47.1 -67
M 36.15 -31.15
Q 39.35 -32.5 39.45 -32.25
L 42 -28.5
Q 42.25 -28.45 42.95 -28.45 43.85 -28.5 44.15 -28.7
L 47 -31.6 47.75 -29.85 49.95 -30.05
Q 52.25 -30.35 52.45 -30.55 52.55 -30.65 53.45 -29.7 54.4 -28.7 54.5 -28.7
L 51.85 -21 42.6 -21.05 40 -20.9 36.4 -20.9 36.15 -31.15
M 26.3 -1.9
L 30.5 -3 52.2 -9.85
Q 38.75 38.7 38.4 38.8 30.95 41.6 23.55 37.95 21.35 36.7 20.9 34.15 20.55 32.1 23.3 15.75 24.7 7.45 26.3 -1.9
M 31.15 -6.95
L 28 -6.1 30.35 -16.35 38.3 -16.75
Q 44.5 -16.85 50.7 -16.85 52.25 -17.05 53.45 -16.05
L 53.6 -15.25
Q 53.15 -12.95 50.75 -12.35 40.9 -9.75 31.15 -6.95 Z"/>

<path fill="#0099FF" stroke="none" d="
M 38.3 -16.75
L 32.85 -11.75 53.6 -15.25 53.45 -16.05
Q 52.25 -17.05 50.7 -16.85 44.5 -16.85 38.3 -16.75
M 36.1 -43.4
L 30.85 -46.5
Q 29.4537109375 -46.2671875 27.85 -45.8
L 37.35 -38.95 36.1 -43.4
M 40.1 -52.05
Q 39.9783203125 -51.7783203125 39.9 -51.7
L 36.7 -62.65
Q 34 -60.8 33.65 -60.25
L 38.35 -42.2 40.1 -52.05
M 70.35 -60.1
L 62.85 -50.15 53.95 -34.25 54.3 -34.1 54.9 -34.5 66.8 -40.7
Q 71.3708984375 -45.019921875 71.15 -45.55 69.1 -45.75 66.85 -45.85 62.3 -45.95 61.35 -45.15
L 70.85 -59.65
Q 70.620703125 -59.9208984375 70.35 -60.1
M 47.25 -66.95
L 47.1 -67
Q 46.35 -64.1 45.4 -61.2 43.55 -55.35 43.1 -54.95
L 40.85 -39.8 49.45 -49.1 44.2 -31.45
Q 45.8666015625 -33.0666015625 47.5 -34.7 48 -35.2 49.7 -32.3 49.8384765625 -32.2654296875 50.6 -32.65
L 50.6 -35.8 63.25 -56.75
Q 61.6 -54.4 60.1 -52.4 57.1 -48.35 56.8 -48.7 56.8 -48.9 57.8 -52.25 58.85 -55.75 59.5 -57.65 60.65 -60.95 60.25 -64.3 56.4 -62.7 55.35 -61.15 55.05 -60.7 50.75 -47.35 51.3 -57.85 51 -58.05 49.5 -55.05 47.95 -52.05 44.8 -46.15 44.4 -46.35 44.55 -47 47.7 -56.05 47.95 -56.8 47.8 -61.75 47.6 -66.8 47.25 -66.95 Z"/>

<path fill="#FFFFFF" stroke="none" d="
M 31.15 -6.95
L 32.85 -11.75 38.3 -16.75 30.35 -16.35 28 -6.1 31.15 -6.95 Z"/>

<path fill="#3333CC" stroke="none" d="
M 32.85 -11.75
L 31.15 -6.95
Q 40.9 -9.75 50.75 -12.35 53.15 -12.95 53.6 -15.25
L 32.85 -11.75
M 65.5 -39.5
Q 66.18828125 -40.1359375 66.8 -40.7
L 54.9 -34.5 54.3 -34.1
Q 57.45 -32.65 57.6 -32.75 59.95 -34.4 65.5 -39.5
M 62.85 -50.15
L 70.35 -60.1
Q 69.95 -60.4 67.15 -59.05 64.55 -57.75 63.25 -56.75
L 50.6 -35.8 50.6 -32.65 53.95 -34.25 62.85 -50.15
M 47.1 -67
L 46.8 -67
Q 46.55 -66.9 45.25 -64.75 43.9 -62.55 43.35 -61.25 42.9 -60.3 41.5 -55.9 40.5294921875 -52.9109375 40.1 -52.05
L 38.35 -42.2 33.65 -60.25
Q 32.3853515625 -58.06171875 33 -55.35 33.88203125 -51.3642578125 35 -47.5
L 36.25 -43.35
Q 36.2291015625 -43.3291015625 36.1 -43.4
L 37.35 -38.95 27.85 -45.8
Q 27.7673828125 -45.7380859375 27.65 -45.7 25.1 -44.85 24.85 -44 26.55 -41.6 29.8 -37.85 33.15 -34.05 33.75 -33.85 34.2 -33.7 37.45 -34.8 39.05 -35.35 40.6 -35.95 40.7 -35.9 41.6 -33.55 42.5 -31.05 43.2 -30.4 43.7166015625 -30.9166015625 44.2 -31.45
L 49.45 -49.1 40.85 -39.8 43.1 -54.95
Q 43.55 -55.35 45.4 -61.2 46.35 -64.1 47.1 -67 Z"/>

<path fill="#CC6600" stroke="none" d="
M 52.2 -9.85
L 30.5 -3 23.55 37.95
Q 30.95 41.6 38.4 38.8 38.75 38.7 52.2 -9.85 Z"/>

<path fill="#FFC700" stroke="none" d="
M 30.5 -3
L 26.3 -1.9
Q 24.7 7.45 23.3 15.75 20.55 32.1 20.9 34.15 21.35 36.7 23.55 37.95
L 30.5 -3
M 49.95 -30.05
L 47.75 -29.85 47 -31.6 44.15 -28.7 42.6 -21.05 51.85 -21 54.5 -28.7
Q 54.4 -28.7 53.45 -29.7 52.55 -30.65 52.45 -30.55 52.25 -30.35 49.95 -30.05
M 36.4 -20.9
L 40 -20.9 42 -28.5 39.45 -32.25 36.4 -20.9 Z"/>

<path fill="#793C00" stroke="none" d="
M 44.15 -28.7
Q 43.85 -28.5 42.95 -28.45 42.25 -28.45 42 -28.5
L 40 -20.9 42.6 -21.05 44.15 -28.7
M 39.45 -32.25
Q 39.35 -32.5 36.15 -31.15
L 36.4 -20.9 39.45 -32.25 Z"/>
</g>
</defs>

<g transform="matrix( 0.736785888671875, 0, 0, 0.736785888671875, 449.7,402.2) ">
<g transform="matrix( 0.2971954345703125, -0.954803466796875, 0.954803466796875, 0.2971954345703125, 25.7,138.35) ">
<g transform="matrix( 0.756561279296875, -0.6519622802734375, 0.6519622802734375, 0.756561279296875, -18.4,67.8) ">
<g transform="matrix( 1, 0, 0, 1, 0,0) ">
<use xlink:href="#Duplicate_Items_Folder_Crossbow_cape_copy_0_Layer0_0_FILL"/>
</g>
</g>
</g>
</g>
</svg>
