
<svg xmlns="http://www.w3.org/2000/svg" version="1.1" xmlns:xlink="http://www.w3.org/1999/xlink" preserveAspectRatio="none" x="0px" y="0px" width="250px" height="200px" viewBox="0 0 250 200">
<defs>
<g id="Symbol_17_4_Layer4_0_FILL">
<path fill="#000000" stroke="none" d="
M 65 -70.65
Q 62.55 -69.85 61.9 -68.55 75.5 -72.05 88.05 -69.75 101.85 -67.2 111.55 -58.45 115.1 -55.25 119.5 -49.7 124.1 -43.75 125.95 -39.95 129 -33.85 129.45 -27.05 129.55 -25.6 130.3 -25.55 131.25 -25.4 131.35 -27.05 132.2 -38.65 120.9 -52.45 116.35 -58.05 112.1 -61.55 102.55 -69.6 89.7 -72.1 76.9 -74.6 65 -70.65
M 56.4 -62.45
Q 57.55 -63.1 58.75 -63.7 66.65 -67.55 75.05 -68.95 65.75 -71.5 53.6 -64.15 41.35 -56.75 32.45 -44.85 30.05 -41.6 28 -38.2 24.8 -35.4 21.9 -32.05 14.4 -23.45 10.2 -12.75 11.85 -14.8 14.3 -18.55 17.15 -22.85 18.3 -24.4 21.15 -28.3 24.5 -31.75 21.55 -25.65 19.7 -19.1 18.25 -14.15 19.4 -11.35
L 19.45 -11.3
Q 18 -7.15 17.5 -2.8 15.85 11.15 23 25.55 26.85 33.25 32.4 39.25 38.35 45.6 45.55 49.3 52.15 52.65 59.7 53.7 67.15 54.7 74.5 53.3 74.95 53.2 75.45 53.15 77.45 54.5 81.45 53.55 91.3 51.1 102.45 41.45 111.3 33.8 116.6 26.05 126.65 11.5 129.5 -9.65 130.35 -15.85 130.05 -20.55 129.7 -26.5 127.6 -31 127.85 -23.45 127.25 -16.3 127.25 -19.75 126.55 -23.75 124.1 -36.75 116.95 -44.95 113.15 -49.35 106 -54 102.4 -56.3 98.85 -58.1 99.15 -58.9 98.75 -59.35 98.25 -59.85 97.6 -59.4 97.35 -59.3 97.1 -58.95 89.75 -62.4 82.4 -63.95 68.85 -66.75 57 -62.7 56.7 -62.6 56.4 -62.45
M 57.85 -57.9
Q 58.4 -58.7 58 -59.4 50.05 -55.45 44.1 -49 44.05 -48.8 44.2 -48.7 44.35 -48.55 44.55 -48.6 41.95 -47.55 39.45 -46.2 36.95 -44.85 34.55 -43.25 37.1 -46.7 40.05 -49.8 42.5 -52.35 45.1 -54.6 52.6 -59.7 61.7 -61.8 71.95 -64.15 82 -62.15 88.8 -60.8 96.2 -57.25 95.25 -55.2 94.45 -52.6 93.85 -50.45 92.95 -46.4 92.95 -46.25 92.9 -46.1 88.45 -48.7 83.45 -50.35 76.55 -52.6 69.25 -52.9 72.55 -56.3 76.4 -59.1 78.15 -60.35 78.45 -61.35
L 78.05 -61.7
Q 76.65 -61.5 74.55 -60.05 70.2 -56.95 67.2 -52.95 64.15 -53 61.05 -52.7 52.85 -51.9 45.3 -48.9
L 56.7 -56.85
Q 57.6 -57.45 57.85 -57.9
M 26.75 -30.5
Q 28.4 -33.9 30.35 -37.05 31.05 -37.6 31.75 -38.15 39.6 -44.15 48.6 -47.2 57.8 -50.35 67.5 -50.15 77.45 -49.95 86.25 -46.3 95.2 -42.6 102.1 -35.6 105.95 -31.6 108.7 -27.05 107.75 -27.3 106.6 -27.5 104.35 -30.75 101.7 -33.45 97.05 -38.15 91.55 -40.8 84.1 -44.35 72.3 -45 63.15 -45.5 56.15 -44.05 48.25 -42.3 40.6 -37.55 31.25 -31.65 25.15 -22.65 22.7 -19.1 21.05 -15.35 21.2 -16.05 21.45 -16.85 23.4 -23.65 26.75 -30.5
M 23.25 -12.7
Q 25.85 -19.3 31 -25.25 36.05 -31.15 42.35 -35.2 49 -39.4 56.2 -41.1 63.65 -42.9 71.25 -41.8 79.05 -40.65 85.35 -36.7 84.7 -38.45 83.25 -39.75 81.8 -41.1 80 -41.65 85.65 -40.85 91.05 -37.6 95.95 -34.65 100.1 -30 100.8 -29.2 101.5 -28.35 99.15 -28.75 96.35 -29.1 79 -31.35 70.2 -31.95 55.6 -33 44 -31.8 42.75 -31.7 42.6 -31 43.45 -30.6 45.4 -30.4 48.8 -30.1 53.7 -30.05 56.5 -30 62 -30 69.95 -29.85 80.9 -28.55 87.15 -27.85 99.7 -26.2 101.85 -25.9 103.45 -25.85 107.75 -19.9 110.15 -12.6 113.4 -2.75 112.4 7.3 111.4 17.35 106.3 26.4 101.2 35.45 93.1 41.5 82.55 49.35 69.1 50.4 55.3 51.5 44.35 44.9 33.75 38.5 27 25.95 22.05 16.75 20.95 6.9 19.75 -3.7 23.25 -12.7
M 98.15 -56.3
Q 100.1 -55.35 102.1 -54.2 108 -50.85 111.35 -47.85 116.2 -43.6 119.65 -37.8 121.9 -33.95 123.35 -29.7
L 119.9 -7.8
Q 119.6 -5.8 119.55 -4.8
L 119.45 -0.2
Q 120.1 0.05 120.55 -1.05 121.1 -2.35 121.5 -4.75
L 123.55 -16.15
Q 124.5 -21.4 124.85 -24.25 126.85 -15.3 125.25 -6.1 126 -7.7 126.45 -9.45 125.8 -5.2 124.85 -1.15 121.9 11.2 116.05 21.05 117.2 16.75 117.75 10.8 119.45 -7.7 115.05 -19.95 114.45 -21.7 113.7 -23.35 113.75 -23.4 113.8 -23.45 114.05 -23.8 114.2 -24.3 115.65 -30.45 115.65 -41.2 115.65 -42.15 115.2 -42.3 114.6 -42.5 114.15 -41.65 113.55 -40.6 113.45 -38.95 113.45 -38.8 113.45 -36.15 113.45 -34.95 113 -29.65 112.75 -27.05 112.85 -25.1 109.15 -32.6 102.75 -38.7 98.65 -42.6 94.05 -45.4 94.1 -45.55 94.15 -45.75
L 98.15 -56.3
M 107.35 -26.35
Q 108.1 -26.55 108.8 -26.9 110.9 -23.35 112.3 -19.5 114.5 -13.3 115.15 -5.65 113.75 -15 109.2 -23.25 108.35 -24.85 107.35 -26.35
M 113.35 18.4
Q 114.3 15.5 114.85 12.5 114.35 17.9 113.25 21.65 111.4 27.9 107.55 31.55 106.6 32.5 106.3 32.95 105.9 33.65 105.95 34.25 103.85 36.35 101.6 38.35 109.7 29.8 113.35 18.4
M 87.15 27.15
Q 94.45 26.65 98 26.1 101.25 25.65 104.45 24.9 102.05 23.75 96.65 24.05
L 44.7 27.15
Q 41.65 27.35 40.2 27.6 37.7 28 35.85 28.85 36.65 29.4 38.65 29.4 62.9 28.75 87.15 27.15
M 28.35 -2.4
Q 25 -2.1 23.7 -0.95 25.65 -0.1 28.4 0.05 29.9 0.1 33.25 -0.1 59.1 -1.9 85.25 0.15 95.65 1 98.6 1.05 106.15 1.25 111.8 -0.05 70.15 -6 28.35 -2.4 Z"/>
</g>

<g id="Symbol_19_4_Layer1_0_FILL">
<path fill="#FF0000" stroke="none" d="
M 120.2 22.65
L 120.2 22.6
Q 119.5908203125 23.4654296875 118.9 24 118.5333984375 24.982421875 118.1 25.95 118.9818359375 24.7220703125 119.8 23.35 120.001953125 23.010546875 120.2 22.65
M 32.4 -41.6
Q 32.6560546875 -41.7708984375 32.9 -41.95 33.4486328125 -42.3689453125 33.95 -42.75
L 33.9 -42.75
Q 33.7978515625 -42.7763671875 33.7 -42.85 33.04921875 -42.2265625 32.4 -41.6 Z"/>

<path fill="#CC6633" stroke="none" d="
M 121.9 23.7
Q 122.35 23.5 122.65 23.05 123 22.45 123.2 21.1 123.6 18.75 124.95 15.35 125.05546875 15.08203125 125.15 14.8 123.1576171875 18.8921875 120.75 23.65 120.8421875 23.7068359375 120.95 23.75 121.4 23.95 121.9 23.7
M 130.85 -10.05
Q 130.88828125 -11.0072265625 130.85 -11.9 130.8318359375 -12.1810546875 130.8 -12.45 130.8654296875 -11.2306640625 130.85 -10.05
M 108.15 -34.95
Q 108.890234375 -34.2138671875 109.6 -33.45 115.25 -27.3 118.75 -19.35 118.9537109375 -18.8755859375 119.15 -18.4 121.7591796875 -23.1638671875 123.1 -27.1 123.75 -29 123.65 -30.15 123.6 -31.4 122.5 -33.3 118.9 -39.55 113.45 -43.6 110.5900390625 -39.376171875 108.15 -34.95
M 55.7 -51.65
L 58.6 -54.7
Q 60.35 -56.5 62.2 -58.15
L 63.5 -59.25
Q 63.565234375 -59.3111328125 63.6 -59.4 55.419921875 -55.3771484375 47.85 -50.05 51.714453125 -51.113671875 55.7 -51.65
M 110.15 -48.55
Q 110.17734375 -48.5005859375 110.2 -48.5 110.544921875 -48.2140625 110.9 -47.95 110.5216796875 -48.244140625 110.15 -48.55
M 87.7 -57.6
Q 87.8802734375 -57.811328125 88.05 -58 87.710546875 -57.7091796875 86.55 -56.5 87.251171875 -57.09140625 87.7 -57.6
M 90.15 -59
Q 89.6935546875 -59.13359375 89.2 -59.25 89.2087890625 -59.2056640625 89.2 -59.15 89.2345703125 -59.1986328125 89.25 -59.25 89.716796875 -59.115625 90.15 -59
M 76.2 -60.9
Q 71.6142578125 -60.9701171875 66.9 -60.4
L 59.9 -52.05
Q 68.9765625 -52.611328125 78.75 -50.4 87.75 -48.4 95.5 -44.25 100.2927734375 -41.6490234375 104.3 -38.4
L 105.4 -40.3
Q 105.65 -40.85 106 -41.3
L 106.5 -42.05 106.85 -42.85
Q 107.25 -43.7 108.5 -45.15 108.6052734375 -45.339453125 108.75 -45.65 108.6984375 -45.685546875 108.65 -45.75 106.85 -48.25 102.4 -51.8
L 99.8 -53.7
Q 95.75 -56.4 91.1 -57.1 90.2 -57.2 89.8 -57.1 89.4 -57 88.5 -56.35
L 84.75 -53.35
Q 83.6 -52.5 82.95 -52.8 82.9390625 -52.83828125 82.9 -52.9
L 82.4 -52.35
Q 82.25 -52.25 82.05 -52.25 81.85 -52.25 81.85 -52.4 82.05 -53.25 83.4 -54.5 84.4 -55.5 84.95 -56.3 85.3 -56.75 86.05 -58 86.75 -59.1 87.2 -59.7 87.642578125 -59.6130859375 88.05 -59.55 82.4263671875 -60.79453125 76.2 -60.9
M 45.6 -54.95
L 42.25 -52.45
Q 36.45 -48.2 33.7 -44.85 32.8 -43.75 33.3 -43.15 33.444921875 -42.9224609375 33.7 -42.85 40.06171875 -49.2689453125 46.8 -55.2 46.722265625 -55.177734375 46.65 -55.15 46.105078125 -55.0060546875 45.6 -54.95 Z"/>

<path fill="#88360C" stroke="none" d="
M 112.8 -46.45
Q 112.18984375 -46.9380859375 111.6 -47.4
L 109.45 -43.75
Q 109.1 -42.95 108.9 -42.55
L 108.5 -41.9
Q 107.9 -40.65 107.5 -40.1 106.75 -39.35 106.45 -38.95 106.1 -38.5 105.7 -37.85
L 105.45 -37.45
Q 106.8484375 -36.2326171875 108.15 -34.95 110.5900390625 -39.376171875 113.45 -43.6 118.9 -39.55 122.5 -33.3 123.6 -31.4 123.65 -30.15 123.75 -29 123.1 -27.1 121.7591796875 -23.1638671875 119.15 -18.4 120.209765625 -15.7998046875 121 -13.15 122.4267578125 -8.2501953125 122.95 -3.15
L 122.95 -3.05
Q 123.0578125 -1.9255859375 123.1 -0.8 123.42578125 4.7888671875 122.6 10.4 123.512109375 8.011328125 124.05 6.7 125.3 3.6 126.8 1 127.4 -0.2 128.15 -0.3 128.25 0.05 128.05 0.65 126 6.2 123.95 13.15 123 16.4 122.65 17.4 121.8 19.8 120.9 21.5 120.870703125 21.552734375 120.85 21.6 120.690625 21.8755859375 120.5 22.1 120.3650390625 22.3763671875 120.2 22.6
L 120.2 22.6 120.2 22.65
Q 120.2513671875 23.3453125 120.75 23.65 123.1576171875 18.8921875 125.15 14.8 126.9107421875 10.36484375 127.1 9.75 127.4853515625 8.5697265625 127.85 7.1 127.837890625 7.2001953125 127.8 7.3 127.35 6.45 127.85 4.35 130.1 -4.4 129.2 -13.75 129.1529296875 -14.22578125 129.1 -14.7 128.972265625 -15.8048828125 128.8 -16.9 128.4611328125 -19.11953125 127.95 -21.3 126.7419921875 -26.408203125 124.6 -31.3 121.6 -38 117.75 -42.05 116.4 -43.45 112.8 -46.45
M 125.9 -28
Q 126.340234375 -26.8517578125 126.7 -25.75 125.9841796875 -24.31015625 124.85 -22.45
L 123 -19.3
Q 122.1 -17.8 121.35 -17.45 121.05 -18 121.55 -19.15 122.2 -20.4 123.55 -22.95 124.75 -25.2 125.3 -26.85 125.5 -27.45 125.7 -27.75 125.8107421875 -27.8923828125 125.9 -28
M 49.3 -56.05
Q 47.5 -55.4 46.8 -55.2 40.06171875 -49.2689453125 33.7 -42.85 33.7978515625 -42.7763671875 33.9 -42.75
L 33.95 -42.75
Q 37.7033203125 -45.5943359375 38.85 -46.3 40.5859375 -47.3626953125 43.15 -48.4 44.2048828125 -48.82734375 45.4 -49.25 46.63046875 -49.6640625 47.85 -50.05 55.419921875 -55.3771484375 63.6 -59.4 64.016015625 -59.7306640625 64.35 -60.05 63.7017578125 -59.9171875 63.05 -59.8 62.6400390625 -59.726953125 62.2 -59.65 61.8140625 -59.564453125 61.4 -59.5
L 61.4 -59.5
Q 57.170703125 -58.63984375 52.85 -57.3 51.0857421875 -56.7009765625 49.3 -56.05
M 89.2 -59.15
L 89.15 -59.15
Q 89.153125 -59.0921875 89.1 -59.05
L 89.1 -59
Q 88.85 -58.6 88.05 -58 87.8802734375 -57.811328125 87.7 -57.6 87.251171875 -57.09140625 86.55 -56.5 86.536328125 -56.439453125 86.5 -56.4
L 82.9 -52.9
Q 82.9390625 -52.83828125 82.95 -52.8 83.6 -52.5 84.75 -53.35
L 88.5 -56.35
Q 89.4 -57 89.8 -57.1 90.2 -57.2 91.1 -57.1 95.75 -56.4 99.8 -53.7
L 102.4 -51.8
Q 106.85 -48.25 108.65 -45.75 108.6984375 -45.685546875 108.75 -45.65 108.939453125 -46.02109375 109.2 -46.6 109.4 -46.95 109.8 -47.6 109.9697265625 -47.8970703125 110.2 -48.5 110.17734375 -48.5005859375 110.15 -48.55 105.6572265625 -51.97890625 102.5 -53.85
L 90.15 -59
Q 89.716796875 -59.115625 89.25 -59.25 89.2345703125 -59.1986328125 89.2 -59.15
M 57.4 -51.85
Q 58.653515625 -51.9818359375 59.9 -52.05
L 66.9 -60.4
Q 66.6166015625 -60.342578125 66.3 -60.3 66.2263671875 -60.259375 66.15 -60.2 65.4 -59.75 64.1 -58.55
L 57.4 -51.85 Z"/>

<path fill="#000000" stroke="none" d="
M 126.7 -25.75
Q 126.340234375 -26.8517578125 125.9 -28 125.8107421875 -27.8923828125 125.7 -27.75 125.5 -27.45 125.3 -26.85 124.75 -25.2 123.55 -22.95 122.2 -20.4 121.55 -19.15 121.05 -18 121.35 -17.45 122.1 -17.8 123 -19.3
L 124.85 -22.45
Q 125.9841796875 -24.31015625 126.7 -25.75
M 44.25 -54.85
Q 44.8857421875 -54.822265625 45.6 -54.95 46.105078125 -55.0060546875 46.65 -55.15 46.722265625 -55.177734375 46.8 -55.2 47.5 -55.4 49.3 -56.05 51.0857421875 -56.7009765625 52.85 -57.3 57.170703125 -58.63984375 61.4 -59.5
L 61.4 -59.5
Q 61.8140625 -59.564453125 62.2 -59.65 62.6400390625 -59.726953125 63.05 -59.8 63.7017578125 -59.9171875 64.35 -60.05 64.016015625 -59.7306640625 63.6 -59.4 63.565234375 -59.3111328125 63.5 -59.25
L 62.2 -58.15
Q 60.35 -56.5 58.6 -54.7
L 55.7 -51.65
Q 51.714453125 -51.113671875 47.85 -50.05 46.63046875 -49.6640625 45.4 -49.25 44.2048828125 -48.82734375 43.15 -48.4 40.5859375 -47.3626953125 38.85 -46.3 37.7033203125 -45.5943359375 33.95 -42.75 33.4486328125 -42.3689453125 32.9 -41.95 32.6560546875 -41.7708984375 32.4 -41.6 30.33046875 -40.05546875 29.25 -39.2 27.15 -37.6 25.8 -36.25 22.1 -32.55 21.6 -28.4 21.5 -27.65 21.85 -27.4 22.3 -27.15 22.9 -27.65 23.55 -28.2 24.2 -29.25 24.22421875 -29.286328125 24.25 -29.35 24.4541015625 -29.637890625 24.7 -30.1 24.9583984375 -30.539453125 25.25 -31.1 26.45 -33.1 28.6 -35.1 29.95 -36.35 32.65 -38.45 34.9412109375 -40.2001953125 37 -41.6 41.409375 -44.60234375 44.75 -46 49.4 -47.9 55.5 -48.65 64.15 -49.75 72.9 -48.55 80.2697265625 -47.5390625 87.1 -44.95 87.2533203125 -44.8677734375 87.4 -44.8 88.4341796875 -44.410546875 89.45 -44 89.5556640625 -43.940625 89.65 -43.9 99.35 -39.75 105.8 -33.3 107.264453125 -31.848046875 108.6 -30.2 112.660546875 -25.3279296875 115.8 -18.75 118.1 -13.95 119.3 -9.3 122 0.85 119.8 12.7 119.434375 14.6861328125 118.9 16.7 117.143359375 23.6962890625 113.6 31 112.99765625 32.2568359375 112.35 33.5 111.7 34.65 112.1 35.25 114.3 33.55 116.35 29.6 117.2927734375 27.798046875 118.1 25.95 118.5333984375 24.982421875 118.9 24 119.5908203125 23.4654296875 120.2 22.6
L 120.2 22.6
Q 120.3650390625 22.3763671875 120.5 22.1 120.690625 21.8755859375 120.85 21.6 120.870703125 21.552734375 120.9 21.5 121.8 19.8 122.65 17.4 123 16.4 123.95 13.15 126 6.2 128.05 0.65 128.25 0.05 128.15 -0.3 127.4 -0.2 126.8 1 125.3 3.6 124.05 6.7 123.512109375 8.011328125 122.6 10.4 123.42578125 4.7888671875 123.1 -0.8 123.0578125 -1.9255859375 122.95 -3.05
L 122.95 -3.15
Q 122.4267578125 -8.2501953125 121 -13.15 120.209765625 -15.7998046875 119.15 -18.4 118.9537109375 -18.8755859375 118.75 -19.35 115.25 -27.3 109.6 -33.45 108.890234375 -34.2138671875 108.15 -34.95 106.8484375 -36.2326171875 105.45 -37.45
L 105.7 -37.85
Q 106.1 -38.5 106.45 -38.95 106.75 -39.35 107.5 -40.1 107.9 -40.65 108.5 -41.9
L 108.9 -42.55
Q 109.1 -42.95 109.45 -43.75
L 111.6 -47.4
Q 112.18984375 -46.9380859375 112.8 -46.45 116.4 -43.45 117.75 -42.05 121.6 -38 124.6 -31.3 126.7419921875 -26.408203125 127.95 -21.3 128.4611328125 -19.11953125 128.8 -16.9 128.972265625 -15.8048828125 129.1 -14.7 129.1529296875 -14.22578125 129.2 -13.75 130.1 -4.4 127.85 4.35 127.35 6.45 127.8 7.3 127.837890625 7.2001953125 127.85 7.1 129.9283203125 1.603125 130.55 -4.25 130.8935546875 -7.10703125 130.85 -10.05 130.8654296875 -11.2306640625 130.8 -12.45 130.7470703125 -13.4822265625 130.65 -14.55 130.303125 -18.48671875 129.4 -22.25 127.759765625 -29.3337890625 124.2 -35.8 122.5 -38.95 120.65 -41.35 119.8181640625 -42.411328125 118.75 -43.55 117.669140625 -44.7080078125 116.3 -45.95 114.5271484375 -47.6224609375 112.3 -49.4 108.35 -52.55 105 -54.55 101.28515625 -56.8322265625 97.25 -58.5 93.028125 -60.2697265625 88.45 -61.35 79.5 -63.45 70.55 -62.7 65.85 -62.25 59.7 -60.95 59.33203125 -60.875 58.95 -60.8 54.33203125 -59.825 51.5 -58.85 51.298046875 -58.77890625 51.1 -58.7 46.96953125 -57.187890625 44.25 -54.85
M 59.9 -52.05
Q 58.653515625 -51.9818359375 57.4 -51.85
L 64.1 -58.55
Q 65.4 -59.75 66.15 -60.2 66.2263671875 -60.259375 66.3 -60.3 66.6166015625 -60.342578125 66.9 -60.4 71.6142578125 -60.9701171875 76.2 -60.9 82.4263671875 -60.79453125 88.05 -59.55 87.642578125 -59.6130859375 87.2 -59.7 86.75 -59.1 86.05 -58 85.3 -56.75 84.95 -56.3 84.4 -55.5 83.4 -54.5 82.05 -53.25 81.85 -52.4 81.85 -52.25 82.05 -52.25 82.25 -52.25 82.4 -52.35
L 82.9 -52.9 86.5 -56.4
Q 86.536328125 -56.439453125 86.55 -56.5 87.710546875 -57.7091796875 88.05 -58 88.85 -58.6 89.1 -59
L 89.1 -59.05
Q 89.153125 -59.0921875 89.15 -59.15
L 89.2 -59.15
Q 89.2087890625 -59.2056640625 89.2 -59.25 89.6935546875 -59.13359375 90.15 -59
L 102.5 -53.85
Q 105.6572265625 -51.97890625 110.15 -48.55 110.5216796875 -48.244140625 110.9 -47.95 110.544921875 -48.2140625 110.2 -48.5 109.9697265625 -47.8970703125 109.8 -47.6 109.4 -46.95 109.2 -46.6 108.939453125 -46.02109375 108.75 -45.65 108.6052734375 -45.339453125 108.5 -45.15 107.25 -43.7 106.85 -42.85
L 106.5 -42.05 106 -41.3
Q 105.65 -40.85 105.4 -40.3
L 104.3 -38.4
Q 100.2927734375 -41.6490234375 95.5 -44.25 87.75 -48.4 78.75 -50.4 68.9765625 -52.611328125 59.9 -52.05 Z"/>

<path fill="#5E7196" stroke="none" d="
M 120.4 -51.4
Q 120.7 -51.05 121.05 -49.75 121.25 -48.55 121.05 -47.95 120.7 -47.2 120.55 -46.8 120.3 -45.95 120.1 -45.5 119.85 -44.8 119.15 -43.95 118.949609375 -43.71328125 118.75 -43.55 119.8181640625 -42.411328125 120.65 -41.35 122.5 -38.95 124.2 -35.8 127.759765625 -29.3337890625 129.4 -22.25 130.303125 -18.48671875 130.65 -14.55 130.7470703125 -13.4822265625 130.8 -12.45 130.8318359375 -12.1810546875 130.85 -11.9 130.88828125 -11.0072265625 130.85 -10.05 130.8935546875 -7.10703125 130.55 -4.25 131.6216796875 -4.3625 132.1 -6.45 134.15 -17.15 132.25 -28.8 131.75 -32.15 130.95 -34.75 128.2 -44.05 120.15 -52.75 120.1259765625 -52.7759765625 120.1 -52.8 120.41796875 -52.175390625 120.25 -51.55 120.341015625 -51.47578125 120.4 -51.4
M 37 -41.6
Q 34.9412109375 -40.2001953125 32.65 -38.45 29.95 -36.35 28.6 -35.1 26.45 -33.1 25.25 -31.1 24.9583984375 -30.539453125 24.7 -30.1 24.4541015625 -29.637890625 24.25 -29.35 23.1251953125 -26.6083984375 21.85 -22.4 19.5 -15.1 19.3 -10.9 19.15 -7.7 19.85 -3.8 20.3 -1.3 21.5 3.2 23.5 10.85 25.55 14.45 28.5 19.55 34.9 24.35 47.3 33.55 64 36.75 78.5 39.55 95.75 37.65 103.65 36.8 108.15 34.65 111.0552734375 33.271484375 113.6 31 117.143359375 23.6962890625 118.9 16.7 119.434375 14.6861328125 119.8 12.7 122 0.85 119.3 -9.3 118.1 -13.95 115.8 -18.75 112.660546875 -25.3279296875 108.6 -30.2 108.54140625 -30.001171875 108.45 -29.8 107.7 -27.8 107.3 -26.85 106.8 -25.6 104.95 -21.95 103.4 -18.9 102.8 -16.95 102.25 -15 101.75 -14.35 101.3 -13.75 100.6 -13.5 99.85 -13.25 99.25 -13.55 97.85 -14.3 98.6 -17 99 -18.7 99.9 -20.65 99.4 -20.7 99 -21.45 98.45 -22.45 98.3 -22.6 98.1 -22.8 97.3 -23.25 96.65 -23.65 96.5 -24.05 96.25 -23.4 95.6 -23 94.9 -22.65 94.2 -22.75 93.5 -22.85 93 -23.4 92.5 -24 92.4 -24.7 91.6 -24.55 90.85 -25.1 90.1 -25.65 90 -26.5 89.55 -26.15 88.5 -25.05 87.55 -24.05 86.9 -23.65 85.9 -23.1 84.8 -23.25 83.55 -23.45 83.25 -24.4 82.95 -25.25 83.6 -26.5 84.6 -28.45 84.65 -28.55 82.85 -27.5 81.95 -27.35 80.05 -27.05 79.3 -28.4 78.55 -29.8 80.2 -32.2
L 75.45 -28
Q 74.2 -26.85 73.35 -26.8 72.1 -26.7 71.5 -27.9 71.05 -29.05 71.8 -30.25 72.25 -30.95 73.5 -32 76.35 -34.45 81.55 -39.55 84.8259765625 -42.7951171875 87.1 -44.95 80.2697265625 -47.5390625 72.9 -48.55 64.15 -49.75 55.5 -48.65 49.4 -47.9 44.75 -46 41.409375 -44.60234375 37 -41.6
M 58.95 -60.8
Q 59.33203125 -60.875 59.7 -60.95 65.85 -62.25 70.55 -62.7 79.5 -63.45 88.45 -61.35 93.028125 -60.2697265625 97.25 -58.5
L 101.75 -63.35
Q 102.5966796875 -64.290625 103.25 -64.5 98.5056640625 -66.018359375 90.5 -67.05 84.4 -67.9 80.95 -68.2 75.65 -68.65 71.35 -68.3 60.35 -67.45 53.65 -61.7 51.8857421875 -60.1658203125 50.6 -58.55 50.84609375 -58.6162109375 51.1 -58.7 51.298046875 -58.77890625 51.5 -58.85 54.33203125 -59.825 58.95 -60.8 Z"/>

<path fill="#B7CBF3" stroke="none" d="
M 103.25 -64.5
Q 102.5966796875 -64.290625 101.75 -63.35
L 97.25 -58.5
Q 101.28515625 -56.8322265625 105 -54.55 108.35 -52.55 112.3 -49.4 114.5271484375 -47.6224609375 116.3 -45.95 117.669140625 -44.7080078125 118.75 -43.55 118.949609375 -43.71328125 119.15 -43.95 119.85 -44.8 120.1 -45.5 120.3 -45.95 120.55 -46.8 120.7 -47.2 121.05 -47.95 121.25 -48.55 121.05 -49.75 120.7 -51.05 120.4 -51.4 120.341015625 -51.47578125 120.25 -51.55 120.41796875 -52.175390625 120.1 -52.8 119.68828125 -53.2451171875 119.25 -53.7 117.60859375 -55.4109375 115.9 -56.9 115.388671875 -57.375 114.85 -57.85 114.0515625 -58.4892578125 113.25 -59.1 112.9296875 -59.16171875 112.6 -59.1 112.4685546875 -59.5201171875 112.2 -59.85 112.1947265625 -59.87578125 112.15 -59.9 111.6732421875 -60.2560546875 111.15 -60.6 111.11484375 -60.621875 111.05 -60.65 110.550390625 -60.7939453125 110.05 -60.7 110.2076171875 -60.892578125 110.3 -61.15
L 110.3 -61.15
Q 109.26328125 -61.8099609375 108.2 -62.4 107.512890625 -62.745703125 106.8 -63.1
L 106.8 -63.05
Q 106.0572265625 -63.414453125 105.3 -63.75
L 105.3 -63.75
Q 105.2353515625 -63.766796875 105.15 -63.8
L 105.15 -63.8
Q 104.2853515625 -64.1494140625 103.25 -64.5
M 80.2 -32.2
Q 78.55 -29.8 79.3 -28.4 80.05 -27.05 81.95 -27.35 82.85 -27.5 84.65 -28.55 84.6 -28.45 83.6 -26.5 82.95 -25.25 83.25 -24.4 83.55 -23.45 84.8 -23.25 85.9 -23.1 86.9 -23.65 87.55 -24.05 88.5 -25.05 89.55 -26.15 90 -26.5 90.1 -25.65 90.85 -25.1 91.6 -24.55 92.4 -24.7 92.5 -24 93 -23.4 93.5 -22.85 94.2 -22.75 94.9 -22.65 95.6 -23 96.25 -23.4 96.5 -24.05 96.65 -23.65 97.3 -23.25 98.1 -22.8 98.3 -22.6 98.45 -22.45 99 -21.45 99.4 -20.7 99.9 -20.65 99 -18.7 98.6 -17 97.85 -14.3 99.25 -13.55 99.85 -13.25 100.6 -13.5 101.3 -13.75 101.75 -14.35 102.25 -15 102.8 -16.95 103.4 -18.9 104.95 -21.95 106.8 -25.6 107.3 -26.85 107.7 -27.8 108.45 -29.8 108.54140625 -30.001171875 108.6 -30.2 107.264453125 -31.848046875 105.8 -33.3 99.35 -39.75 89.65 -43.9 89.5556640625 -43.940625 89.45 -44 88.4341796875 -44.410546875 87.4 -44.8 87.2533203125 -44.8677734375 87.1 -44.95 84.8259765625 -42.7951171875 81.55 -39.55 76.35 -34.45 73.5 -32 72.25 -30.95 71.8 -30.25 71.05 -29.05 71.5 -27.9 72.1 -26.7 73.35 -26.8 74.2 -26.85 75.45 -28
L 80.2 -32.2 Z"/>
</g>

<g id="Symbol_18_0_Layer0_0_FILL">
<path fill="#000000" stroke="none" d="
M 38.75 -38.75
Q 22.7 -54.8 0 -54.8 -22.7 -54.8 -38.75 -38.75 -54.8 -22.7 -54.8 0 -54.8 22.7 -38.75 38.75 -22.7 54.8 0 54.8 22.7 54.8 38.75 38.75 54.8 22.7 54.8 0 54.8 -22.7 38.75 -38.75
M 36.55 -32.15
Q 36.65 -32 36.8 -31.85 40 -28.3 42.35 -24.3 42.5 -24.05 42.65 -23.75 47.55 -15.25 48.5 -5.1 48.5 -5 48.55 -4.9
L 48.55 -4.65 -24.1 -4.65 -27.1 -4.65
Q -29.6 -4.65 -30.85 -4.5 -31 -4.5 -31.15 -4.45 -33.05 -4.2 -34.4 -3.45
L -5.3 -2.2
Q -0.35 -1.95 3.7 -1.8
L 15.15 -1.6
Q 19.15 -1.55 23.2 -1.5 23.3 -1.5 23.4 -1.5
L 45.2 -1.15
Q 46.95 -1.15 48.75 -1.15 48.75 -0.55 48.75 0.05 48.75 15.5 40.4 27.5 37.85 31.15 34.5 34.5 20.25 48.75 0.05 48.75 -20.1 48.75 -34.35 34.5 -34.9 33.95 -35.4 33.45
L -40.35 27.4
Q -40.65 26.95 -40.95 26.5 -43.75 22.3 -45.5 17.7 -46.85 14.15 -47.65 10.35
L -47.65 10.25
Q -48.65 5.35 -48.65 0.05 -48.65 -0.15 -48.65 -0.3
L -48.55 -3
Q -47.85 -15.35 -41.5 -25.4 -41.4634765625 -25.509375 -41.4 -25.65 -41.176171875 -25.9484375 -40.95 -26.25
L -39.35 -28.55
Q -39.25 -28.65 -39.2 -28.75
L 36.55 -32.15
M 31.9 -35.15
Q 30.9 -35.15 28.55 -35 23.1 -34.8 17.65 -34.75 -8.55 -34.4 -34.55 -31.85
L -34.55 -31.8
Q -35.1 -31.75 -35.65 -31.7
L -36.7 -31.55
Q -36.85 -31.5 -37 -31.5 -35.75 -32.95 -34.35 -34.35 -20.1 -48.65 0.05 -48.65 19.65 -48.65 33.7 -35.15 32.8 -35.15 31.9 -35.15
M -35.95 26.55
Q -35.9 26.55 -35.85 26.55 -8.9 26 14.95 24.3 21.4 23.85 25 23.45 30.5 22.85 34.9 21.75
L 33.45 21.3
Q 19.7 21.05 5.8 22.2 -15.65 23 -37.15 25.05 -38.45 25.2 -39.6 25.4 -39.2 25.9 -38.45 26.2 -37.6 26.5 -36.35 26.55 -36.25 26.55 -36.15 26.55 -36.1 26.55 -36.05 26.55
L -35.95 26.55 Z"/>

<path fill="#CC6633" stroke="none" d="
M 17.65 -34.75
Q 23.1 -34.8 28.55 -35 5.9 -52.3 -20.75 -40.45 -28.25 -37 -34.55 -31.85 -8.55 -34.4 17.65 -34.75
M -41.4 -25.65
Q -41.340625 -25.659375 -41.3 -25.7 -41.15 -25.95 -40.95 -26.25 -41.176171875 -25.9484375 -41.4 -25.65
M 45.35 -5.2
L 44.3 -5.25 38.55 -23.85 -36.1 -25.55
Q -36.8 -24.1 -37.5 -22.6 -38.15 -21.15 -39.55 -19.85 -41 -18.55 -42.15 -14.5 -43.3 -10.45 -43.8 -4.1
L -31.15 -4.45
Q -31 -4.5 -30.85 -4.5 -29.6 -4.65 -27.1 -4.65
L -24.1 -4.65 9.35 -5.6 45.35 -5.2
M 15.15 -1.6
L 3.7 -1.8 -44.25 -0.4 -44.3 0.25 -43.6 0.5
Q -43.5 0.65 -43.5 0.8 -44.2 14 -37.15 25.05 -15.65 23 5.8 22.2 19.7 21.05 33.45 21.3
L 32.95 21.15 40.3 20.9
Q 45.25 12.15 45.2 1.8 45.2 0.3 45.2 -1.15
L 23.4 -1.5
Q 23.3 -1.5 23.2 -1.5 19.15 -1.55 15.15 -1.6
M -31.2 32.8
Q -27.65 36.35 -23.55 38.8 -7.75 48.2 10.85 42.5 26.1 38 36.85 26.5
L 5.55 28.6 -31.2 32.8 Z"/>

<path fill="#88360C" stroke="none" d="
M 28.55 -35
Q 30.9 -35.15 31.9 -35.15 32.8 -35.15 33.7 -35.15 19.65 -48.65 0.05 -48.65 -20.1 -48.65 -34.35 -34.35 -35.75 -32.95 -37 -31.5 -36.85 -31.5 -36.7 -31.55
L -35.65 -31.7
Q -35.1 -31.75 -34.55 -31.8
L -34.55 -31.85
Q -28.25 -37 -20.75 -40.45 5.9 -52.3 28.55 -35
M 36.8 -31.85
Q 36.65 -32 36.55 -32.15
L -39.2 -28.75
Q -39.25 -28.65 -39.35 -28.55
L -40.95 -26.25
Q -41.15 -25.95 -41.3 -25.7 -41.340625 -25.659375 -41.4 -25.65 -41.4634765625 -25.509375 -41.5 -25.4 -47.85 -15.35 -48.55 -3
L -48.65 -0.3
Q -48.65 -0.15 -48.65 0.05 -48.65 5.35 -47.65 10.25
L -47.65 10.35
Q -46.85 14.15 -45.5 17.7 -43.75 22.3 -40.95 26.5 -40.65 26.95 -40.35 27.4
L -35.4 33.45
Q -34.9 33.95 -34.35 34.5 -20.1 48.75 0.05 48.75 20.25 48.75 34.5 34.5 37.85 31.15 40.4 27.5 48.75 15.5 48.75 0.05 48.75 -0.55 48.75 -1.15 46.95 -1.15 45.2 -1.15 45.2 0.3 45.2 1.8 45.25 12.15 40.3 20.9
L 32.95 21.15 33.45 21.3 34.9 21.75
Q 30.5 22.85 25 23.45 21.4 23.85 14.95 24.3 -8.9 26 -35.85 26.55 -35.9 26.55 -35.95 26.55
L -36.05 26.55
Q -36.1 26.55 -36.15 26.55 -36.25 26.55 -36.35 26.55 -37.6 26.5 -38.45 26.2 -39.2 25.9 -39.6 25.4 -38.45 25.2 -37.15 25.05 -44.2 14 -43.5 0.8 -43.5 0.65 -43.6 0.5
L -44.3 0.25 -44.25 -0.4 3.7 -1.8
Q -0.35 -1.95 -5.3 -2.2
L -34.4 -3.45
Q -33.05 -4.2 -31.15 -4.45
L -43.8 -4.1
Q -43.3 -10.45 -42.15 -14.5 -41 -18.55 -39.55 -19.85 -38.15 -21.15 -37.5 -22.6 -36.8 -24.1 -36.1 -25.55
L 38.55 -23.85 44.3 -5.25 45.35 -5.2 9.35 -5.6 -24.1 -4.65 48.55 -4.65 48.55 -4.9
Q 48.5 -5 48.5 -5.1 47.55 -15.25 42.65 -23.75 42.5 -24.05 42.35 -24.3 40 -28.3 36.8 -31.85
M -23.55 38.8
Q -27.65 36.35 -31.2 32.8
L 5.55 28.6 36.85 26.5
Q 26.1 38 10.85 42.5 -7.75 48.2 -23.55 38.8 Z"/>
</g>

<g id="Symbol_21_4_Layer1_0_FILL">
<path fill="#000000" stroke="none" d="
M 15.3 -1.95
Q 10.25 -6.95 4.4 -11.25 -3.9 -17.35 -10.45 -18.15 -15.55 -18.75 -22.95 -16.55 -28 -15.1 -31.15 -13.35 -35.3 -11.1 -37.4 -7.8 -38.85 -5.55 -38.7 -3.55 -39 -3.45 -39.35 -3.35 -39.3 -3.1 -39.2 -2.75 -38.45 -0.45 -36.65 0.75 -34.9 1.9 -32.55 1.85 -30.5 1.7 -28.45 0.7 -27.25 0.15 -24.8 -1.45 -22.55 -2.9 -21.2 -3.5 -16 -5.8 -10.3 -3.9 -7.6 -3.05 -4.6 -1 -2.65 0.3 0.55 3 6.2 7.75 8.8 10.8 10.05 12.2 12.35 15.1 14.5 17.7 16.2 19.1 19.65 21.95 24.45 23 28.9 24 33.5 23.35 40.75 22.3 49.65 16.55 51.3 15.5 56.9 11.6 59.7 9.65 61.9 8.3 62.05 8.55 62.25 8.7 63 9.35 64 9.35 65 9.4 65.45 8.65 65.9 7.9 65.15 5.85 65.15 5.55 64.95 5.2
L 64.95 5.15
Q 64.5 3.7 64.3 2.9 63.85 1.25 63.2 0.3 61.45 -2.4 57.65 -2.75 55.15 -3 51.45 -1.75 46.15 0.15 41.65 3.5 39.2 5.45 37.9 6.35 35.7 7.9 33.7 8.3 28.9 9.35 23.45 5.6 21.5 4.25 19.2 2 16.6 -0.6 15.3 -1.95
M 4.8 -6.4
Q 7.45 -4.2 11.45 -0.25 16.55 4.8 17.95 6.05 25 12.6 30.65 12.9 34.25 13.1 38.2 11 40.3 9.9 44.85 6.5 48.75 3.6 51.8 2.5 55.95 0.85 59.55 1.9 60.2 2.8 60.75 5.25 58.05 6.35 54.9 8.25 50.5 11 48.25 12.3 44.25 14.65 41.3 16 37.4 17.75 33.85 18.3 29.7 18.95 25.8 18.1 21.55 17.15 18.5 14.6 17 13.35 15.2 11.1 13.2 8.5 12.15 7.25 9.6 4.2 5.05 0.35 0.45 -3.6 -3.05 -5.7 -7.75 -8.65 -12.15 -9.5 -15.75 -10.15 -19.3 -9.5 -22.9 -8.85 -25.9 -7 -26.85 -6.4 -28.8 -5 -30.5 -3.85 -31.9 -3.4 -33.15 -3 -33.95 -3.45 -34.7 -3.85 -34.75 -4.75 -34.35 -6.1 -33.45 -7.2 -31.65 -9.4 -27.2 -11.2 -18 -15.1 -11.15 -14.25 -3.45 -13.3 4.8 -6.4 Z"/>

<path fill="#D6D6B2" stroke="none" d="
M 11.45 -0.25
Q 7.45 -4.2 4.8 -6.4 -3.45 -13.3 -11.15 -14.25 -18 -15.1 -27.2 -11.2 -31.65 -9.4 -33.45 -7.2 -34.35 -6.1 -34.75 -4.75 -34.7 -3.85 -33.95 -3.45 -33.15 -3 -31.9 -3.4 -30.5 -3.85 -28.8 -5 -26.85 -6.4 -25.9 -7 -22.9 -8.85 -19.3 -9.5 -15.75 -10.15 -12.15 -9.5 -7.75 -8.65 -3.05 -5.7 0.45 -3.6 5.05 0.35 9.6 4.2 12.15 7.25 13.2 8.5 15.2 11.1 17 13.35 18.5 14.6 21.55 17.15 25.8 18.1 29.7 18.95 33.85 18.3 37.4 17.75 41.3 16 44.25 14.65 48.25 12.3 50.5 11 54.9 8.25 58.05 6.35 60.75 5.25 60.2 2.8 59.55 1.9 55.95 0.85 51.8 2.5 48.75 3.6 44.85 6.5 40.3 9.9 38.2 11 34.25 13.1 30.65 12.9 25 12.6 17.95 6.05 16.55 4.8 11.45 -0.25 Z"/>
</g>

<g id="Symbol_20_1_Layer0_0_FILL">
<path fill="#FFFF00" stroke="none" d="
M -22.9 -16
L -23 -15.9
Q -21.1 -15.4 -15.6 -12.65 -9.65 -9.65 -8.7 -8.3 -7.65 -6.8 -9 -4.05 -9.75 -2.6 -11.1 -0.5
L -11.25 -0.4
Q -8.4 -1.9 -6.5 -2.1 -5 -2.2 -3.7 -1.55 -3.2 0.85 -2.85 5.65 -2.4 12.65 -2.35 13.95 -2.15 10.35 -1.3 6.05 -0.15 0.4 1.2 -0.6 2.1 -1.25 3.9 -1.05 4.2 -1.05 6.9 -0.55 6.65 -0.95 5.9 -1.5 5.1 -2.1 4.9 -2.35 4.4 -3.2 4.45 -3.4
L 5.35 -4
Q 7.5 -5.55 13.45 -7.1 17.5 -8.15 29.75 -10.8
L 29.9 -10.9
Q 24.9 -9.55 16.6 -10.1 7.85 -10.7 6.2 -13.05 5.2 -14.45 6.6 -18.5 7.3 -20.4 8.35 -22.55 6.8 -20.45 5.6 -18.8 3.25 -15.75 2.7 -15.35 1.9 -14.85 0.85 -15.5 0 -16.05 -0.45 -16.7 -1.4 -18 -1.65 -20 -1.8 -18.95 -1.7 -16.4 -1.7 -14.2 -2.75 -13.45 -4.05 -12.5 -13.1 -14.1 -17.75 -14.9 -22.9 -16
M -0.95 -12.55
Q -1 -13.95 -0.85 -14.55 -0.8 -13.45 -0.25 -12.75 0 -12.4 0.5 -12.1 1.1 -11.75 1.5 -12 1.85 -12.25 3.15 -13.95 3.8 -14.85 4.7 -16 4.05 -14.8 3.75 -13.75 2.9 -11.5 3.5 -10.7 4.4 -9.4 9.25 -9.05 13.85 -8.8 16.65 -9.55
L 16.55 -9.45
Q 9.75 -8 7.5 -7.4 4.2 -6.55 2.95 -5.7
L 2.5 -5.35
Q 2.4 -5.2 2.75 -4.8 2.85 -4.6 3.3 -4.3 3.7 -3.95 3.85 -3.8 2.35 -4.1 2.2 -4.05 1.2 -4.15 0.7 -3.8 -0.05 -3.25 -0.65 -0.1 -1.15 2.3 -1.3 4.25 -1.35 3.55 -1.55 -0.35 -1.75 -3.05 -2.05 -4.35 -2.75 -4.7 -3.6 -4.65 -4.5794921875 -4.51015625 -6.05 -3.8 -5.3353515625 -4.9837890625 -5 -5.75 -4.2 -7.25 -4.8 -8.1 -5.3 -8.85 -8.65 -10.5 -11.7 -12.05 -12.75 -12.3
L -12.7 -12.35
Q -9.8 -11.75 -7.25 -11.3 -2.2 -10.4 -1.45 -10.95 -0.95 -11.3 -0.95 -12.55 Z"/>

<path fill="#FFFFFF" stroke="none" d="
M -0.85 -14.55
Q -1 -13.95 -0.95 -12.55 -0.95 -11.3 -1.45 -10.95 -2.2 -10.4 -7.25 -11.3 -9.8 -11.75 -12.7 -12.35
L -12.75 -12.3
Q -11.7 -12.05 -8.65 -10.5 -5.3 -8.85 -4.8 -8.1 -4.2 -7.25 -5 -5.75 -5.3353515625 -4.9837890625 -6.05 -3.8 -4.5794921875 -4.51015625 -3.6 -4.65 -2.75 -4.7 -2.05 -4.35 -1.75 -3.05 -1.55 -0.35 -1.35 3.55 -1.3 4.25 -1.15 2.3 -0.65 -0.1 -0.05 -3.25 0.7 -3.8 1.2 -4.15 2.2 -4.05 2.35 -4.1 3.85 -3.8 3.7 -3.95 3.3 -4.3 2.85 -4.6 2.75 -4.8 2.4 -5.2 2.5 -5.35
L 2.95 -5.7
Q 4.2 -6.55 7.5 -7.4 9.75 -8 16.55 -9.45
L 16.65 -9.55
Q 13.85 -8.8 9.25 -9.05 4.4 -9.4 3.5 -10.7 2.9 -11.5 3.75 -13.75 4.05 -14.8 4.7 -16 3.8 -14.85 3.15 -13.95 1.85 -12.25 1.5 -12 1.1 -11.75 0.5 -12.1 0 -12.4 -0.25 -12.75 -0.8 -13.45 -0.85 -14.55 Z"/>
</g>
</defs>

<g transform="matrix( 1, 0, 0, 1, 117.05,131.7) ">
<g transform="matrix( 1, 0, 0, 1, -37.15,-41.85) ">
<g transform="matrix( 1, 0, 0, 1, 0,0) ">
<use xlink:href="#Symbol_17_4_Layer4_0_FILL"/>
</g>

<g transform="matrix( 0.995025634765625, 0.0995941162109375, -0.0995941162109375, 0.995025634765625, 0.6,-11.25) ">
<g transform="matrix( 1, 0, 0, 1, 0,0) ">
<use xlink:href="#Symbol_19_4_Layer1_0_FILL"/>
</g>
</g>

<g transform="matrix( -0.65484619140625, 0.7557525634765625, -0.7557525634765625, -0.65484619140625, 63.1,3.25) ">
<g transform="matrix( 1, 0, 0, 1, 0,0) ">
<use xlink:href="#Symbol_18_0_Layer0_0_FILL"/>
</g>
</g>

<g transform="matrix( 1, 0, 0, 1, 1.8,-4.7) ">
<g transform="matrix( 1, 0, 0, 1, 0,0) ">
<use xlink:href="#Symbol_21_4_Layer1_0_FILL"/>
</g>

<g transform="matrix( 1, 0, 0, 1, -35.15,5.05) ">
<g transform="matrix( 1, 0, 0, 1, 0,0) ">
<use xlink:href="#Symbol_20_1_Layer0_0_FILL"/>
</g>
</g>
</g>
</g>
</g>
</svg>
