
<svg xmlns="http://www.w3.org/2000/svg" version="1.1" xmlns:xlink="http://www.w3.org/1999/xlink" preserveAspectRatio="none" x="0px" y="0px" width="1000px" height="1000px" viewBox="0 0 1000 1000">
<defs>
<linearGradient id="Gradient_1" gradientUnits="userSpaceOnUse" x1="45.325" y1="14.587500000000002" x2="44.175" y2="26.6125" spreadMethod="pad">
<stop  offset="0%" stop-color="#999999"/>

<stop  offset="100%" stop-color="#FFFFFF"/>
</linearGradient>

<linearGradient id="Gradient_2" gradientUnits="userSpaceOnUse" x1="57.22500000000001" y1="69.6625" x2="23.675" y2="138.3375" spreadMethod="pad">
<stop  offset="0%" stop-color="#999999"/>

<stop  offset="100%" stop-color="#FFFFFF"/>
</linearGradient>

<linearGradient id="Gradient_3" gradientUnits="userSpaceOnUse" x1="44.375" y1="17.737499999999997" x2="43.224999999999994" y2="45.2625" spreadMethod="pad">
<stop  offset="0%" stop-color="#999999"/>

<stop  offset="100%" stop-color="#FFFFFF"/>
</linearGradient>

<g id="warrior_head_bottom_0_Layer0_0_FILL">
<path fill="#000000" stroke="none" d="
M 16.2 -4.55
Q 12.35 -4.05 8.3 -3.9 1.05 -4.7 0.35 1.75 0.25 2.6 -0.15 3.2 -5 10.1 -2.85 18.2 -2.15 20.95 0.15 22.6 5.8 26.75 12.6 29 13.95 29.45 15.35 29.45 23.3 29.4 31.3 29.65 41.1 30.5 50.9 30.35 55.3 30.25 59.65 30.7 61.25 30.9 62.85 30.4 71.55 31.35 79.75 27.6 83.5 25.85 83.4 21.8 83.25 15.9 82.75 10.1 82.1 2.55 75.15 0.3 63.3 -3.7 50.95 -4.75 33.5 -6.5 16.2 -4.55
M 41.8 13.9
L 72.85 10.65 74.7 20.45
Q 64.9 24.85 54.15 26 33.75 28.05 14.6 22.15
L 3.7 16.25 6.25 9 41.8 13.9
M 63.7 6.1
Q 69.45 7.1 70.55 8.15
L 41.85 11.15 6.45 5.65
Q 6.5 5.05 7 4.85 18.65 2.25 30.5 2.5 47.3 2.9 63.7 6.1 Z"/>

<path fill="#333333" stroke="none" d="
M 70.55 8.15
Q 69.45 7.1 63.7 6.1 47.3 2.9 30.5 2.5 18.65 2.25 7 4.85 6.5 5.05 6.45 5.65
L 41.85 11.15 70.55 8.15 Z"/>

<path fill="#666666" stroke="none" d="
M 16.75 18.25
Q 17.1 17.75 17.6 17.55 29.5 14.8 41.8 13.9
L 6.25 9 3.7 16.25 14.6 22.15
Q 15.4 20.05 16.75 18.25 Z"/>

<path fill="url(#Gradient_1)" stroke="none" d="
M 72.85 10.65
L 41.8 13.9
Q 29.5 14.8 17.6 17.55 17.1 17.75 16.75 18.25 15.4 20.05 14.6 22.15 33.75 28.05 54.15 26 64.9 24.85 74.7 20.45
L 72.85 10.65 Z"/>
</g>

<g id="warrior_head_top_1_Layer2_0_FILL">
<path fill="#000000" stroke="none" d="
M 87.6 96.55
Q 89.3 80 90.45 63.45 90.55 62.2 89.65 58.8 88.75 55.3 88 54.3 81.65 45.4 71.6 43.95 72.8 41.75 71.15 32.9 69.5 24.1 67.45 20.9 60.75 9.75 56.15 2.4 47.45 -11.6 45.8 -12.05 44.65 -10.05 23.3 24.95
L 21.4 31.15
Q 19.8 38.1 21 41.65 15.55 43.7 11.35 45.25 3.3 48.35 1.05 49.85 -0.4 50.8 -2.65 55.1 -4.9 59.4 -4.85 60.9 -3.8 95.75 3.15 129.85 4.6 130.5 20 133.2 36.75 136.1 45.2 136.9 53.35 137.25 70.35 133 78.9 130.8 85.75 128.65 85.95 112.45 87.6 96.55
M 54.3 48.75
L 47.95 48.4 36.6 48.75 30.65 37.7 29.25 33.55
Q 29.4 33.25 29.6 33 39.1 20.4 43.95 4.7
L 45.9 -0.8
Q 48.2 6.6 51.05 13.5 55.85 25.05 62.8 35.15
L 54.3 48.75
M 19.5 57
Q 20 56.85 20.55 56.75 37.35 52.25 54.55 53.75
L 76.55 57.25
Q 79.85 67.35 78.75 78.2 76.45 101.75 77.6 125.55
L 73.4 126.65
Q 67.2 128.7 60.85 129.8 41.6 133.4 22.4 129.2
L 9.8 125.4 3.4 62.65 19.5 57 Z"/>

<path fill="#FFFFFF" stroke="none" d="
M 76.55 57.25
L 54.55 53.75 69.05 63.7 73.4 126.65 77.6 125.55
Q 76.45 101.75 78.75 78.2 79.85 67.35 76.55 57.25
M 30.65 37.7
L 38.45 35.05 29.25 33.55 30.65 37.7
M 46.55 33.4
L 58.2 35.85 47.95 48.4 54.3 48.75 62.8 35.15
Q 55.85 25.05 51.05 13.5 48.2 6.6 45.9 -0.8
L 43.95 4.7 46.55 33.4 Z"/>

<path fill="#666666" stroke="none" d="
M 19.5 57
L 3.4 62.65 9.8 125.4 22.4 129.2 21.55 117.5 20.85 116.6 20.55 70.65 19.5 57 Z"/>

<path fill="url(#Gradient_2)" stroke="none" d="
M 20.55 56.75
Q 20 56.85 19.5 57
L 20.55 70.65 20.85 116.6 21.55 117.5 22.4 129.2
Q 41.6 133.4 60.85 129.8 67.2 128.7 73.4 126.65
L 69.05 63.7 54.55 53.75
Q 37.35 52.25 20.55 56.75 Z"/>

<path fill="url(#Gradient_3)" stroke="none" d="
M 58.2 35.85
L 46.55 33.4 43.95 4.7
Q 39.1 20.4 29.6 33 29.4 33.25 29.25 33.55
L 38.45 35.05 30.65 37.7 36.6 48.75 47.95 48.4 58.2 35.85 Z"/>
</g>

<g id="warrior_head_top_1_Layer1_0_FILL">
<path fill="#000000" stroke="none" d="
M 73.3 94.8
L 72.9 94.4 71.65 94.45 68.2 99.55 66.25 98.3 67.4 102.1 65.15 107.25 69.25 103.95 70.6 105 72.3 104.7 70.7 101.8 73.3 94.8
M 32.4 90.85
L 37.25 97.9 27.6 111.4 40.7 102.05
Q 43.75 106.5 47.6 110.35 50.05 112.75 53.05 113.95 53.25 114 53.45 114.1 53.7 114.2 53.95 114.3 54.2 114.3 54.45 114.35 54.1 111.3 52.5 108.65 50.55 105.4 47.9 102.6 47.15 101.9 46.45 101.2 45.7 100.55 44.95 99.9 44.1 99.25 43.25 98.65
L 49.2 86.45 39.35 93.8 24.75 81.75 32.4 90.85 Z"/>
</g>
</defs>

<g id="Layer_2">
<g transform="matrix( 0.7386474609375, 0, 0, 0.7386474609375, 429.1,371.65) ">
<g id="Layer_1">
<g transform="matrix( 0.999725341796875, -0.022003173828125, 0.022003173828125, 0.999725341796875, 54.6,190.95) ">
<g transform="matrix( 1, 0, 0, 1, 0,0) ">
<use xlink:href="#warrior_head_bottom_0_Layer0_0_FILL"/>
</g>
</g>

<g transform="matrix( 0.998321533203125, 0.057098388671875, -0.057098388671875, 0.998321533203125, 58.05,79.1) ">
<g transform="matrix( 1, 0, 0, 1, 0,0) ">
<use xlink:href="#warrior_head_top_1_Layer2_0_FILL"/>
</g>

<g id="Layer_3">
<g transform="matrix( 1, 0, 0, 1, 0,0) ">
<use xlink:href="#warrior_head_top_1_Layer1_0_FILL"/>
</g>
</g>

<g id="Layer_4"/>
</g>
</g>
</g>
</g>
</svg>
