
<svg xmlns="http://www.w3.org/2000/svg" version="1.1" xmlns:xlink="http://www.w3.org/1999/xlink" preserveAspectRatio="none" x="0px" y="0px" width="1000px" height="1000px" viewBox="0 0 1000 1000">
<defs>
<g id="Symbol_48_0_Layer0_0_FILL">
<path fill="#000000" stroke="none" d="
M 118.95 -7.55
Q 113.5939453125 -11.0013671875 107.05 -2.6 100.5603515625 5.83125 91.95 19.7 83.336328125 33.625 86.15 39.75 88.9734375 45.9083984375 89.95 46.35 90.9685546875 46.80625 90.95 46.85 90.35 48.25 90.55 49.65
L 91.4 53.25
Q 91.3943359375 53.34609375 84.05 59.5 76.7658203125 65.7109375 50.6 83.05 24.4740234375 100.391015625 9.85 108.95 -4.712890625 117.4990234375 -1.1 122.4 3.5951171875 132.2275390625 40.2 105.5 76.8509765625 78.7755859375 97.95 68.15 98.0263671875 72.61953125 103.4 70.9 108.159375 90.1607421875 119.95 98.25 131.752734375 106.3470703125 155.75 92.9 179.7833984375 79.4513671875 170.2 61.45 160.6767578125 43.44609375 152.55 38.6 156.2125 32.8640625 152.35 27.5 148.487109375 22.1380859375 144.65 21.45 146.9650390625 16.395703125 148.5 7.15 150.5396484375 -4.835546875 137.25 0.9 124.0169921875 6.6822265625 121.8 11.6 122 7.4 121.75 2.9 121.2 -6.1 118.95 -7.55
M 142.15 7.65
L 141.9 8.7 137.7 21.1 132 16.75 128.2 14.9
Q 128.55 14.6 128.9 14.3 134.6 9.1 142.15 7.65
M 124.5 13.85
L 123.85 13.8
Q 124.990625 13.2484375 124.5 13.85
M 140.5 26.1
L 139.95 24.85
Q 140.30078125 25.5943359375 140.65 26
L 140.5 26.1
M 141.8 29.25
L 144.55 27.9
Q 148.4 32.65 147.35 38.25 147.2 39.1 146.75 39.9
L 141.8 29.25
M 114.8 4
L 115.05 5.5 114.1 13.95 108.45 15.8 105.05 17.45
Q 107.25 8.55 114.8 4
M 94.25 49.2
L 95.75 47.9 98.9 51.35
Q 103.95 55.7 105.95 62.35
L 104.75 64.6
Q 104.2 64.35 103.75 64.05 99.75 62 98.4 57.6
L 94.25 49.2
M 90.2 58.4
L 93.15 55.95 96.35 61.5
Q 81.448046875 71.2447265625 42.35 99.05 3.2556640625 126.915625 3.65 119.9 -0.8615234375 116.0935546875 29.7 98.1 60.2537109375 80.101953125 90.2 58.4
M 118.85 84.1
Q 113.017578125 66.3447265625 100.35 51.15 87.6939453125 36.0015625 108.4 18.7 130.1080078125 13.455078125 138.25 28.4 146.398046875 43.392578125 160.65 56.4 174.9068359375 69.416796875 151.25 85.2 124.6763671875 101.8568359375 118.85 84.1
M 139.45 73
Q 139.45 72.35 138.8 71.9 138.2 71.45 137.35 71.45 136.5 71.45 135.85 71.9 135.25 72.35 135.25 73 135.25 73.65 135.85 74.1 136.5 74.55 137.35 74.55 138.2 74.55 138.8 74.1 139.45 73.65 139.45 73
M 151.6 73.45
Q 152.05 72.9 152.05 72.1 152.05 71.3 151.6 70.75 151.15 70.2 150.55 70.2 149.95 70.2 149.5 70.75 149.05 71.3 149.05 72.1 149.05 72.9 149.5 73.45 149.95 74 150.55 74 151.15 74 151.6 73.45
M 108.8 35
Q 108.05 35.55 107.7 36.25 99.9 52.3 117 49.75 117.3 49.5 117.5 49.2 124.05 36.45 108.8 35
M 108.65 46.15
Q 107.9 43.4 108.9 40.9 109.8 38.65 112 38.1
L 116.3 41.65 116.35 45.75
Q 115 47.35 112.8 47.7 110.3 47.9 108.65 46.15
M 115.3 43.2
Q 115 42.85 114.5 42.85 114 42.85 113.65 43.2 113.35 43.55 113.35 44.05 113.35 44.55 113.65 44.9 114 45.25 114.5 45.25 115 45.25 115.3 44.9 115.65 44.55 115.65 44.05 115.65 43.55 115.3 43.2
M 110.3 41.3
Q 110.3 41.8 110.65 42.15 111.05 42.55 111.55 42.55 112.05 42.55 112.4 42.15 112.8 41.8 112.8 41.3 112.8 40.8 112.4 40.4 112.05 40.05 111.55 40.05 111.05 40.05 110.65 40.4 110.3 40.8 110.3 41.3
M 111.3 43.25
Q 110.8 43.25 110.4 43.6 110.05 44 110.05 44.5 110.05 45 110.4 45.35 110.8 45.75 111.3 45.75 111.8 45.75 112.15 45.35 112.55 45 112.55 44.5 112.55 44 112.15 43.6 111.8 43.25 111.3 43.25 Z"/>

<path fill="#CC9900" stroke="none" d="
M 108.65 33.2
Q 108.7 34.1 108.8 35 124.05 36.45 117.5 49.2 117.3 49.5 117 49.75 120.25 71.4 136.6 79.95 142.35 83 151.25 85.2 174.9068359375 69.416796875 160.65 56.4 146.398046875 43.392578125 138.25 28.4 130.1080078125 13.455078125 108.4 18.7 108.3 25.7 108.65 33.2
M 152.05 72.1
Q 152.05 72.9 151.6 73.45 151.15 74 150.55 74 149.95 74 149.5 73.45 149.05 72.9 149.05 72.1 149.05 71.3 149.5 70.75 149.95 70.2 150.55 70.2 151.15 70.2 151.6 70.75 152.05 71.3 152.05 72.1
M 138.8 71.9
Q 139.45 72.35 139.45 73 139.45 73.65 138.8 74.1 138.2 74.55 137.35 74.55 136.5 74.55 135.85 74.1 135.25 73.65 135.25 73 135.25 72.35 135.85 71.9 136.5 71.45 137.35 71.45 138.2 71.45 138.8 71.9 Z"/>

<path fill="#0099FF" stroke="none" d="
M 108.9 40.9
Q 107.9 43.4 108.65 46.15 110.3 47.9 112.8 47.7 115 47.35 116.35 45.75
L 116.3 41.65 112 38.1
Q 109.8 38.65 108.9 40.9
M 110.4 43.6
Q 110.8 43.25 111.3 43.25 111.8 43.25 112.15 43.6 112.55 44 112.55 44.5 112.55 45 112.15 45.35 111.8 45.75 111.3 45.75 110.8 45.75 110.4 45.35 110.05 45 110.05 44.5 110.05 44 110.4 43.6
M 110.65 42.15
Q 110.3 41.8 110.3 41.3 110.3 40.8 110.65 40.4 111.05 40.05 111.55 40.05 112.05 40.05 112.4 40.4 112.8 40.8 112.8 41.3 112.8 41.8 112.4 42.15 112.05 42.55 111.55 42.55 111.05 42.55 110.65 42.15
M 114.5 42.85
Q 115 42.85 115.3 43.2 115.65 43.55 115.65 44.05 115.65 44.55 115.3 44.9 115 45.25 114.5 45.25 114 45.25 113.65 44.9 113.35 44.55 113.35 44.05 113.35 43.55 113.65 43.2 114 42.85 114.5 42.85
M 144.55 27.9
L 141.8 29.25 146.75 39.9
Q 147.2 39.1 147.35 38.25 148.4 32.65 144.55 27.9 Z"/>

<path fill="#876500" stroke="none" d="
M 107.7 36.25
Q 108.05 35.55 108.8 35 108.7 34.1 108.65 33.2 108.3 25.7 108.4 18.7 87.6939453125 36.0015625 100.35 51.15 113.017578125 66.3447265625 118.85 84.1 124.6763671875 101.8568359375 151.25 85.2 142.35 83 136.6 79.95 120.25 71.4 117 49.75 99.9 52.3 107.7 36.25 Z"/>

<path fill="#69543D" stroke="none" d="
M 90.2 58.4
L 89.85 61.75
Q 77.65 70.65 65.45 79.55 35.65 101.35 3.65 119.9 3.2556640625 126.915625 42.35 99.05 81.448046875 71.2447265625 96.35 61.5
L 93.15 55.95 90.2 58.4 Z"/>

<path fill="#917557" stroke="none" d="
M 89.85 61.75
L 90.2 58.4
Q 60.2537109375 80.101953125 29.7 98.1 -0.8615234375 116.0935546875 3.65 119.9 35.65 101.35 65.45 79.55 77.65 70.65 89.85 61.75 Z"/>

<path fill="#702500" stroke="none" d="
M 103.75 64.05
Q 104.2 64.35 104.75 64.6
L 105.95 62.35
Q 103.95 55.7 98.9 51.35
L 98.4 57.6
Q 99.75 62 103.75 64.05
M 108.45 15.8
L 114.1 13.95 115.05 5.5 108.45 15.8
M 132 16.75
L 137.7 21.1 141.9 8.7 132 16.75 Z"/>

<path fill="#993300" stroke="none" d="
M 95.75 47.9
L 94.25 49.2 98.4 57.6 98.9 51.35 95.75 47.9
M 115.05 5.5
L 114.8 4
Q 107.25 8.55 105.05 17.45
L 108.45 15.8 115.05 5.5
M 141.9 8.7
L 142.15 7.65
Q 134.6 9.1 128.9 14.3 128.55 14.6 128.2 14.9
L 132 16.75 141.9 8.7 Z"/>
</g>
</defs>

<g transform="matrix( 0.7528228759765625, 0, 0, 0.7528228759765625, 407.75,320.2) ">
<g transform="matrix( 1, 0, 0, 1, 112.1,57.15) ">
<g transform="matrix( 0.88214111328125, -0.6719512939453125, -0.6719512939453125, -0.88214111328125, 6.1,238.25) ">
<g transform="matrix( 1, 0, 0, 1, 0,0) ">
<use xlink:href="#Symbol_48_0_Layer0_0_FILL"/>
</g>
</g>
</g>
</g>
</svg>
