
<svg xmlns="http://www.w3.org/2000/svg" version="1.1" xmlns:xlink="http://www.w3.org/1999/xlink" preserveAspectRatio="none" x="0px" y="0px" width="1000px" height="1000px" viewBox="0 0 1000 1000">
<defs>
<linearGradient id="Gradient_1" gradientUnits="userSpaceOnUse" x1="40.0875" y1="19.2375" x2="39.612500000000004" y2="40.8625" spreadMethod="pad">
<stop  offset="0%" stop-color="#FFFFFF"/>

<stop  offset="100%" stop-color="#424242"/>
</linearGradient>

<g id="Symbol_51_0_Layer0_0_FILL">
<path fill="#000000" stroke="none" d="
M 76.75 51.4
L 77.4 52.45
Q 77.525390625 52.1923828125 77.6 51.9
L 76.75 51.4
M 47.3 41
L 48.75 40.95 47.8 40.75 57.7 39.35
Q 58.8 40.25 59.95 41.15 67.75 47.05 77.25 49.3 72.7 38.6 61.2 36.85 53.69140625 6.82890625 15.9 -4.8 18.901953125 10.0736328125 20 13.8 6.55546875 15.5611328125 0.45 31.9 14.45 43.65 32.15 40.35
L 31.3 40.55 43.2 41
Q 45.85 48.75 51.9 54.5 69.7447265625 71.6767578125 76.95 53.7 75.5458984375 54.6607421875 74.05 55.25 69.9 57.05 65.65 55.7 57.8 53.25 56.05 45.3
L 51.35 46.65 51.25 47.95 47.3 41
M 57.35 34.55
Q 57.05 34.65 56.75 34.8 39.4 38.35 22.1 35.25
L 10.1 34.5 5.2 32.6
Q 5.45 32.25 5.75 31.95 16.4 21.6 30.85 18.2
L 31.25 17.75
Q 31.2 12.8 28.95 8.45 28.15 6.95 27.4 5.45
L 38 11.45
Q 45.2 15.7 50.45 22.05 55.1 27.65 57.35 34.55 Z"/>

<path fill="#FFFFFF" stroke="none" d="
M 5.2 32.6
L 10.1 34.5 30.85 18.2
Q 16.4 21.6 5.75 31.95 5.45 32.25 5.2 32.6 Z"/>

<path fill="#666666" stroke="none" d="
M 48.95 25.55
Q 50.05 25.55 51.15 25.6 43.45 19.35 38 11.45
L 27.4 5.45
Q 28.15 6.95 28.95 8.45 31.2 12.8 31.25 17.75
L 30.85 18.2 10.1 34.5 22.1 35.25
Q 33.8 25.5 48.95 25.55 Z"/>

<path fill="url(#Gradient_1)" stroke="none" d="
M 56.75 34.8
Q 57.05 34.65 57.35 34.55 55.1 27.65 50.45 22.05 45.2 15.7 38 11.45 43.45 19.35 51.15 25.6 50.05 25.55 48.95 25.55 33.8 25.5 22.1 35.25 39.4 38.35 56.75 34.8 Z"/>

<path fill="#999999" stroke="none" d="
M 48.75 40.95
L 47.3 41 51.25 47.95 51.35 46.65 56.05 45.3
Q 57.8 53.25 65.65 55.7 69.9 57.05 74.05 55.25 75.5458984375 54.6607421875 76.95 53.7 77.1052734375 53.602734375 77.25 53.5
L 77.5 52.6 77.4 52.45 76.75 51.4 77.6 51.9 77.75 49.45 77.25 49.3
Q 67.75 47.05 59.95 41.15 58.8 40.25 57.7 39.35
L 47.8 40.75 48.75 40.95 Z"/>
</g>
</defs>

<g transform="matrix( 0.7528228759765625, 0, 0, 0.7528228759765625, 407.75,320.2) ">
<g transform="matrix( 1, 0, 0, 1, 112.1,57.15) ">
<g transform="matrix( 0.977020263671875, -0.52532958984375, 0.52532958984375, 0.977020263671875, -42.25,122.6) ">
<g transform="matrix( 1, 0, 0, 1, 0,0) ">
<use xlink:href="#Symbol_51_0_Layer0_0_FILL"/>
</g>
</g>
</g>
</g>
</svg>
