
<svg xmlns="http://www.w3.org/2000/svg" version="1.1" xmlns:xlink="http://www.w3.org/1999/xlink" preserveAspectRatio="none" x="0px" y="0px" width="1000px" height="1000px" viewBox="0 0 1000 1000">
<defs>
<linearGradient id="Gradient_1" gradientUnits="userSpaceOnUse" x1="50.9375" y1="17.025" x2="42.8625" y2="46.075" spreadMethod="pad">
<stop  offset="0%" stop-color="#FFFFFF"/>

<stop  offset="100%" stop-color="#424242"/>
</linearGradient>

<g id="Symbol_52_0_Layer0_0_FILL">
<path fill="#000000" stroke="none" d="
M 86.75 34.5
Q 98.8822265625 23.5923828125 95.55 19.6 92.217578125 15.607421875 79.65 10.3 72.8392578125 7.4623046875 67.85 5.5 63.6255859375 3.8283203125 60.7 2.8 54.80390625 0.7958984375 47.35 3.2 39.93828125 5.662890625 20.85 17.6 1.7708984375 29.5345703125 2.8 34.1 3.8169921875 38.6587890625 21.45 41.1 39.08203125 43.540625 69 50.7 74.605859375 45.40234375 86.75 34.5
M 53.4 7.7
Q 55.985546875 8.22890625 58.45 9 70.6384765625 13.007421875 79.75 23.7
L 68.85 39.1 63.8 45.5 5.7 36.75 4.85 32.3 19 21.9
Q 24.9 17.85 38.6 12.45 51.5 7.35 53.4 7.7
M 35.9 20.9
L 34.35 21.15
Q 33.5 22 33.55 28.05 33.55 34.6 35.25 37
L 36.8 33.9
Q 37.35 30.4 37.45 28 37.65 22.5 35.9 20.9
M 50.3 13.5
Q 49.6 13.75 48.85 14.05 47.4 14.65 47.35 14.85
L 47.3 15.3
Q 49.5 22.4 51.95 35.25 52.55 33.9 52.95 32.45 55.65 22.4 50.3 13.5
M 68.1 20.2
Q 66.95 17.3 62.55 14.15 58.6 11.25 58.35 11.6 57 13.85 58.75 15.8 68.65 26.2 64.75 39.5
L 67.4 36.05
Q 68.1 34.45 68.75 29.8 69.7 23.25 68.1 20.2 Z"/>

<path fill="#666666" stroke="none" d="
M 62.15 34.9
L 62.15 37.25 51.95 35.25
Q 49.5 22.4 47.3 15.3
L 44.9 34.4 36.8 33.9 35.25 37
Q 33.55 34.6 33.55 28.05 33.5 22 34.35 21.15 33.4 21.6 31.9 25.45 30.6 28.75 30.15 30.85
L 29.7 33.6 19.6 31.15 19.1 23.85 19 22 19 21.9 4.85 32.3 5.7 36.75 63.8 45.5 68.85 39.1 68.7 39.05
Q 68.35 38.95 67.85 37.8 67.35 36.7 67.4 36.05
L 64.75 39.5
Q 68.65 26.2 58.75 15.8
L 62.15 34.9 Z"/>

<path fill="#FFFFFF" stroke="none" d="
M 58.45 9
Q 55.985546875 8.22890625 53.4 7.7 51.5 7.35 38.6 12.45 24.9 17.85 19 21.9
L 19 22 19.1 23.85 58.45 9 Z"/>

<path fill="url(#Gradient_1)" stroke="none" d="
M 62.55 14.15
Q 66.95 17.3 68.1 20.2 69.7 23.25 68.75 29.8 68.1 34.45 67.4 36.05 67.35 36.7 67.85 37.8 68.35 38.95 68.7 39.05
L 68.85 39.1 79.75 23.7
Q 70.6384765625 13.007421875 58.45 9
L 19.1 23.85 19.6 31.15 29.7 33.6 30.15 30.85
Q 30.6 28.75 31.9 25.45 33.4 21.6 34.35 21.15
L 35.9 20.9
Q 37.65 22.5 37.45 28 37.35 30.4 36.8 33.9
L 44.9 34.4 47.3 15.3 47.35 14.85
Q 47.4 14.65 48.85 14.05 49.6 13.75 50.3 13.5 55.65 22.4 52.95 32.45 52.55 33.9 51.95 35.25
L 62.15 37.25 62.15 34.9 58.75 15.8
Q 57 13.85 58.35 11.6 58.6 11.25 62.55 14.15 Z"/>
</g>
</defs>

<g transform="matrix( 0.7528228759765625, 0, 0, 0.7528228759765625, 407.75,320.2) ">
<g transform="matrix( 1, 0, 0, 1, 112.1,57.15) ">
<g transform="matrix( 0.403778076171875, -1.0338134765625, 1.0338134765625, 0.403778076171875, -13.7,145.45) ">
<g transform="matrix( 1, 0, 0, 1, 0,0) ">
<use xlink:href="#Symbol_52_0_Layer0_0_FILL"/>
</g>
</g>
</g>
</g>
</svg>
