
<svg xmlns="http://www.w3.org/2000/svg" version="1.1" xmlns:xlink="http://www.w3.org/1999/xlink" preserveAspectRatio="none" x="0px" y="0px" width="300px" height="300px" viewBox="0 0 300 300">
<defs>
<g id="Symbol_1_7_Layer0_0_FILL">
<path fill="#99CCFF" fill-opacity="0.4980392156862745" stroke="none" d="
M 253.95 91.9
Q 260.7 87 261.15 79 263.95 29.2 213.6 29.8 210.4 9.45 191.65 2.45 172.15 -4.8 151.35 -6.75 110.75 -10.35 104.8 24.45
L 89.85 27.55
Q 73.65 12.65 52.95 18.3 5.55 31.1 22.05 73.05 -9.15 100.75 16.2 135.15 20.15 140.5 26.2 141.15 50.3 143.9 73.9 130.2 80.85 140.05 90.45 147.2 126.9 174.3 150.1 139.9
L 179.9 141.5
Q 188.7 132.4 200.8 134.9 198.8 143.55 206.75 147.1 210.65 148.8 214.5 146.75 225.8 140.9 219.25 130.1 220 129.8 220.75 129.4 234.8 121.4 232.05 105.55 243.6 99.5 253.95 91.9 Z"/>
</g>
</defs>

<g transform="matrix( 1.01605224609375, 0, 0, 1.01605224609375, 55.15,72.75) ">
<g transform="matrix( 1, 0, 0, 1, -93.5,54.6) ">
<g transform="matrix( -0.5072174072265625, 0, 0, 0.6507720947265625, 235.05,7.4) ">
<g transform="matrix( 1, 0, 0, 1, 0,0) ">
<use xlink:href="#Symbol_1_7_Layer0_0_FILL"/>
</g>
</g>

<g transform="matrix( 0.228485107421875, 0, 0, 0.4472808837890625, 225.45,19.45) ">
<g transform="matrix( 1, 0, 0, 1, 0,0) ">
<use xlink:href="#Symbol_1_7_Layer0_0_FILL"/>
</g>
</g>

<g transform="matrix( 0.305450439453125, 0, 0, -0.39190673828125, 84.5,123.55) ">
<g transform="matrix( 1, 0, 0, 1, 0,0) ">
<use xlink:href="#Symbol_1_7_Layer0_0_FILL"/>
</g>
</g>

<g transform="matrix( 0.305450439453125, 0, 0, 0.39190673828125, 176.75,-9.1) ">
<g transform="matrix( 1, 0, 0, 1, 0,0) ">
<use xlink:href="#Symbol_1_7_Layer0_0_FILL"/>
</g>
</g>

<g transform="matrix( -0.4522705078125, 0, 0, -0.368194580078125, 240.25,133.6) ">
<g transform="matrix( 1, 0, 0, 1, 0,0) ">
<use xlink:href="#Symbol_1_7_Layer0_0_FILL"/>
</g>
</g>

<g transform="matrix( 0.1746063232421875, 0, 0, 0.2240447998046875, 92.05,24.2) ">
<g transform="matrix( 1, 0, 0, 1, 0,0) ">
<use xlink:href="#Symbol_1_7_Layer0_0_FILL"/>
</g>
</g>

<g transform="matrix( -0.345062255859375, 0, 0, 0.44268798828125, 299.2,51.8) ">
<g transform="matrix( 1, 0, 0, 1, 0,0) ">
<use xlink:href="#Symbol_1_7_Layer0_0_FILL"/>
</g>
</g>
</g>
</g>
</svg>
