
<svg xmlns="http://www.w3.org/2000/svg" version="1.1" xmlns:xlink="http://www.w3.org/1999/xlink" preserveAspectRatio="none" x="0px" y="0px" width="300px" height="300px" viewBox="0 0 300 300">
<defs>
<g id="sharknight_sharknight_22_Layer1_0_FILL">
<path fill="#000000" stroke="none" d="
M 162.8 62.95
Q 163.2 60.5 162.9 58.65 162.1 54.05 155.9 49.3 148.4 43.55 140.75 40.95 140.7 40.5 140.6 40.1
L 138.7 33.55
Q 135.55 24.4 124.45 15.45 122.05 13.45 115.15 8.5 111.2 5.8 109.3 4.95 108.3 4.55 106.25 3.9 104.25 3.2 103.25 2.75 101.25 2 100.65 1.85 99.396484375 1.5669921875 98.55 1.95 98.452734375 1.90703125 98.35 1.85 96.7 0.95 95.45 0.6 93.8 0.25 91.4 0.45 88.7 0.8 87.35 0.9 85.95 1 85.65 1.1 84.7 1.3 84.1 1.8 83.208203125 2.5962890625 83.15 4.05 83.0396484375 4.5251953125 82.95 5.05 81.7 11.45 81.25 14.7 80.55 19.9 80.55 25.25 80.55 26.85 80.65 30.05 80.65 32.85 80.55 34.85 80.35 37.4 79.8 39.2 79.65 39.7 79.3 40.7 79 41.55 79.05 42.2 79.05 43.1 79.45 43.85 72.7 46.5 67.4 50.5 61.75 54.8 60.7 59.45 60.1 62 61 66.85 63.95 84.65 64.6 95.3 65.55 111.1 62.85 123.65 62.6 125 62.8 125.95 62.8 126 62.85 126.05 62.6 126.95 62.8 127.9 63.4 130 65.65 131.5 67.05 132.45 69.95 133.65
L 73.9 135.15
Q 73.97265625 135.2126953125 74.05 135.25 76.70390625 136.5912109375 79.15 137.5 79.0560546875 137.8490234375 78.95 138.3 78.6 139.15 77.55 140.4 76.45 141.75 76.15 142.5 75.6 143.7 75.85 145 75.9158203125 145.3072265625 76 145.55 75.6796875 146.0849609375 75.35 146.6 72.8 150.35 69.15 157.3 66.6 162.3 65.8 164.95 64.65 169.1 64.9 177.1 64.9 178.8 65.3 179.7 65.8 180.55 67.55 181.6
L 70.25 183.25
Q 70.08828125 184.8984375 69.95 186.5 69.65 188.3 70.4 189.1 70.95 189.7 72.7 189.9 74.95 190.05 76.1 189.95 78 189.75 79.25 188.9 79.422265625 188.7736328125 79.65 188.55 80.33828125 188.6845703125 80.85 188.45 81.95 187.95 82.2 186.35 82.2193359375 186.2337890625 82.2 185.8 83.1447265625 184.7796875 84.15 183.95 84.009765625 185.23046875 83.9 186.5 83.6 188.3 84.35 189.1 84.9 189.7 86.65 189.9 88.9 190.05 90.05 189.95 91.95 189.75 93.2 188.9 93.372265625 188.7736328125 93.6 188.55 94.28828125 188.6845703125 94.8 188.45 95.77734375 188.0056640625 96.05 186.7 100.36640625 191.9384765625 105.7 195.65 112.6 200.4 121.15 202.65 131.22578125 205.275390625 141.55 203.9 152.6498046875 205.39609375 164.05 202.15 178.85 198 188.85 187.4 191.35 184.7 192.6 182.55 193.95 180.25 194.7 177.05 195.041796875 175.6146484375 195.4 173.4 195.53984375 173.17890625 195.65 173 196.65 171.5 196.75 170.6 196.95 169.3 195.5 167.1 195.1 166.35 194.5 165.85 193.4 165.1 191.95 165.2 189.5 165.2 187.45 166.5
L 186.05 167.3
Q 185.05 167.65 184.6 167.95 184.15 168.2 183.55 168.8 182.75 169.6 182.5 169.8 182.1404296875 170.0552734375 181.8 170.25 181.7529296875 169.9265625 181.5 169.8 181 169.5 180.1 170 177.280859375 171.550390625 174.35 172.75 174.83671875 172.5494140625 175.3 172.3 174.9 172.45 174.3 172.55 173.3302734375 172.796875 172.35 173 172.429296875 172.858203125 172.5 172.7 173.75 169.95 174.95 168.95 176.7 167.75 177.4 166.95 178.4 165.95 178.95 163.25 179.6 160.6 178.65 159.4 178.2 158.75 176.6 158.05 175.05 157.45 174.6 156.8 173.4 155.4 175.15 151.95 177.65 147.4 179.25 141 181 134 181.75 125.3 182.4 117.7 181.9 112.05 181.3 104.95 178.9 99.35 178.05 97.3 177.05 96.5 176.25 96.05 175.3 95.95 174.4 96 173.8 96.55 173.3 97.25 173.1 97.6 172.65 98.15 172.15 98.15 171.85 95 170.2 92.3 168.5 89.35 165.7 88 162.75 86.6 159.5 87.55 159.38828125 87.5837890625 159.25 87.6 159.2404296875 87.434765625 159.2 87.25 159.15 86.9 159.1 86.55 159.9 85.55 159.9 83.05 159.8 74.85 161.75 67.25 162.65 63.75 162.8 62.95 Z"/>
</g>

<g id="sharknight_sharknight_shield_0_Layer0_0_FILL">
<path fill="#000000" stroke="none" d="
M -0.8 -16.6
Q -2.85 -16 -4.5 -14.5 -6.15 -13.1 -6.95 -11.2 -7.65 -9.55 -8.5 -5.95 -9.45 -3 -11.3 -2 -11.55 -1.8 -12.75 -1.3 -13.7 -0.85 -14.1 -0.45 -15.05 0.4 -15.3 2.75 -17.6 22.85 -10.5 41.95 -8.6 47 -6.25 49 -5.6 49.5 -4.45 50.45 -3.3 51.3 -2.9 52.25 -2.3 53.5 -2.7 55.65 -3.3 58.95 -3.3 59.15 -3.35 60.95 -2.35 62.65 -1.35 64.4 0.3 65.25 2 66.1 4 65.9 5.95 65.6 7.4 64.4 8.75 63.3 9.25 63.25 10.2 63.05 11.85 64.35 14.85 66.75 17.15 67.5 20.7 68.6 23.05 66.7 24.3 65.85 25.8 63.15 27.3 60.55 28.55 59.65 30.45 58.6 31.25 57.9 32.3 57 33.1 54.35 34 51.75 33.15 50.45 32.75 49.8 31.25 48.95 29.75 48.2 29.3 47.5 28.25 46 30.35 42.75 33.25 38.45 35.4 32.2 37.8 25.4 39.3 16.8 40.65 9.3 40.65 3.6 40.7 -3.5 38.85 -9.3 38.2 -11.4 37.25 -12.3 36.5 -12.85 35.6 -13 34.7 -13.05 34.05 -12.55 33.5 -11.9 33.25 -11.55 32.75 -11.05 32.25 -11.1 32.25 -14.25 30.85 -17.1 29.4 -20.2 26.75 -21.8 23.95 -23.45 20.65 -22.8 17.2 -22.15 15.7 -19.45 15.35 -18.85 14.95 -17.6 14.5 -16.4 14.2 -15.9 13.1 -13.75 11.35 -13.55 10.4 -13.45 9.25 -14.1 8.55 -14.5 7.3 -15.45 5.5 -16.6 3.35 -16.95 1.2 -17.25 -0.8 -16.6
M -8.15 -0.15
Q -8.15 -0.2 -8.1 -0.25 -7.05 -1.55 -6.35 -3.45 -5.45 -6.3 -5 -7.7 -4.2 -10.2 -2.9 -11.75 -1.35 -13.65 0.65 -13.8 2.7 -13.95 6.35 -11.55 9.6 -9.5 11.65 -9.6 11.65 -8.7 11.65 -6.25 11.65 -4 11.85 -2.65 12.05 -1.45 12.65 1.1 14.65 9.9 14.5 18.1 14.45 21.95 13.6 29.7
L 13 34.8
Q 12.9 36.5 13.5 37.1 14.85 33.05 15.7 29 16.4 25.2 16.65 22.55
L 17.6 8.55
Q 17.8 4.25 17.8 3.25 17.75 2.45 17.8 1.15 17.65 -0.15 17.55 -1.8
L 17 -7.85
Q 16.75 -11.4 16.3 -13.6 16.5 -14 16.7 -14.4 19.2 -18.7 21.15 -19.5 22.45 -20.05 23.95 -19.7 25.35 -19.3 26.5 -18.4 28.35 -16.75 28.95 -14 29 -13.75 29.05 -13.45 29.5 -10.4 29.55 -10.1 29.9 -8.95 30.6 -8.35 30 -1.4 28.2 11.95 28.55 12.55 29.3 12.05 30 11.5 30.25 10.65 32.65 1.4 33.85 -7.95 34.4 -8.2 35.15 -8.6 36.15 7.65 32.5 23.85 31.4 28.45 29.85 33.6 28 39.65 25.95 43.5
L 26 43.5
Q 25.75 43.8 25.65 44.1
L 25.1 44.85
Q 23.65 47.05 21.35 49.65 20.5 50.65 17.1 54.15 16.45 54.9 16.2 55.6 15.9 56.55 16.5 56.95 17.25 57.5 18.6 56.55 22.25 53.9 25.25 49.85
L 26.25 50.45 29.5 52.75
Q 29.65 53.85 28.65 54.65 27.85 55.4 26.55 55.65 25.05 55.95 24.3 56.15 23.15 56.5 22.45 57.25 21.7 57.95 21.7 59.1 21.65 60.2 22.2 61.05 21.85 62.15 20.65 62.65 20.45 62.7 20.25 62.8 18.75 63.2 17.3 62.65 16.2 62.25 14.85 61.15 13.45 59.85 12.65 59.25 11.4 58.3 10 58 8.45 57.65 7.3 58.35 6.75 58.65 6.2 59.25 5.8 59.65 5.15 60.4 3.8 61.75 2.5 61.25 1.25 60.65 1.25 58.6 1.3 58 1.95 54.3 2.45 51.75 1.9 50.2 1.6 49.35 0.6 48.3 -0.75 46.7 -0.85 46.5 -2.1 44.9 -3.45 41.25
L -6.25 32.95
Q -8.2 27.4 -8.85 24.7 -9.3 22.55 -9.95 18
L -11.4 6.1
Q -11.65 3.7 -11.1 2.6 -10.7 1.95 -9.95 1.3 -9.05 0.7 -8.65 0.25 -8.6 0.2 -8.55 0.15
L -8.15 -0.15 Z"/>

<path fill="#F6D4B2" stroke="none" d="
M 26.55 55.65
Q 27.85 55.4 28.65 54.65 29.65 53.85 29.5 52.75
L 26.25 50.45
Q 25.6 50.95 24.95 51.55 24.35 53.55 22.25 55.15 20.85 56.25 18.1 57.6 19.45 60.75 20.65 62.65 21.85 62.15 22.2 61.05 21.65 60.2 21.7 59.1 21.7 57.95 22.45 57.25 23.15 56.5 24.3 56.15 25.05 55.95 26.55 55.65
M 6.3 -8.35
Q 6.2 -8.15 6.15 -7.9 4.9 -4.3 4.3 0.45 3.9 3.1 3.5 9 3 15.8 3.1 19.9 3.45 28.95 6.85 37.6 9.65 44.35 14.05 50.05 14.75 49.8 16.25 48.95
L 24.75 44.15
Q 25.35 43.8 25.95 43.5 28 39.65 29.85 33.6 31.4 28.45 32.5 23.85 36.15 7.65 35.15 -8.6 34.4 -8.2 33.85 -7.95 32.65 1.4 30.25 10.65 30 11.5 29.3 12.05 28.55 12.55 28.2 11.95 30 -1.4 30.6 -8.35 29.9 -8.95 29.55 -10.1 29.5 -10.4 29.05 -13.45 29 -13.75 28.95 -14 26.65 -12.4 24.9 -9.6 23.05 -6.5 21.35 -1.25 19.15 4.95 18.85 8.9 18.75 10.1 18.6 10.55 18.4 11.25 18.05 11.7
L 17.85 18.3
Q 17.8 21.25 17.65 22.95 17.05 30.55 14.15 37.75 13 40.4 12.8 41.2 12.4 42.45 12.05 42.85 11.75 43.15 11.25 43.25 10.75 43.25 10.55 43 11.7 38.3 12.15 33.4 12.7 28.4 12.2 24.65 11.95 23.6 11.4 20.9 10.95 18.5 10.75 17.15 10.55 15.65 10.45 13.35 10.4 10.9 10.35 9.6 9.9 0.15 6.3 -8.35 Z"/>

<path fill="#D5985A" stroke="none" d="
M -8.1 -0.25
Q -8.15 -0.2 -8.15 -0.15
L -8.55 0.15
Q -8.6 0.2 -8.65 0.25 -9.05 0.7 -9.95 1.3 -10.7 1.95 -11.1 2.6 -11.65 3.7 -11.4 6.1
L -9.95 18
Q -9.3 22.55 -8.85 24.7 -8.2 27.4 -6.25 32.95
L -3.45 41.25
Q -2.1 44.9 -0.85 46.5 -0.75 46.7 0.6 48.3 1.6 49.35 1.9 50.2 2.45 51.75 1.95 54.3 1.3 58 1.25 58.6 1.25 60.65 2.5 61.25 3.8 61.75 5.15 60.4 5.8 59.65 6.2 59.25 6.75 58.65 7.3 58.35 8.45 57.65 10 58 11.4 58.3 12.65 59.25 13.45 59.85 14.85 61.15 16.2 62.25 17.3 62.65 18.75 63.2 20.25 62.8 20.45 62.7 20.65 62.65 19.45 60.75 18.1 57.6 20.85 56.25 22.25 55.15 24.35 53.55 24.95 51.55 25.6 50.95 26.25 50.45
L 25.25 49.85
Q 22.25 53.9 18.6 56.55 17.25 57.5 16.5 56.95 15.9 56.55 16.2 55.6 16.45 54.9 17.1 54.15 20.5 50.65 21.35 49.65 23.65 47.05 25.1 44.85
L 25.65 44.1
Q 25.75 43.8 26 43.5
L 25.95 43.5
Q 25.35 43.8 24.75 44.15
L 16.25 48.95
Q 14.75 49.8 14.05 50.05 9.65 44.35 6.85 37.6 3.45 28.95 3.1 19.9 3 15.8 3.5 9 3.9 3.1 4.3 0.45 4.9 -4.3 6.15 -7.9 6.2 -8.15 6.3 -8.35 9.9 0.15 10.35 9.6 10.4 10.9 10.45 13.35 10.55 15.65 10.75 17.15 10.95 18.5 11.4 20.9 11.95 23.6 12.2 24.65 12.7 28.4 12.15 33.4 11.7 38.3 10.55 43 10.75 43.25 11.25 43.25 11.75 43.15 12.05 42.85 12.4 42.45 12.8 41.2 13 40.4 14.15 37.75 17.05 30.55 17.65 22.95 17.8 21.25 17.85 18.3
L 18.05 11.7
Q 18.4 11.25 18.6 10.55 18.75 10.1 18.85 8.9 19.15 4.95 21.35 -1.25 23.05 -6.5 24.9 -9.6 26.65 -12.4 28.95 -14 28.35 -16.75 26.5 -18.4 25.35 -19.3 23.95 -19.7 22.45 -20.05 21.15 -19.5 19.2 -18.7 16.7 -14.4 16.5 -14 16.3 -13.6 16.75 -11.4 17 -7.85
L 17.55 -1.8
Q 17.65 -0.15 17.8 1.15 17.75 2.45 17.8 3.25 17.8 4.25 17.6 8.55
L 16.65 22.55
Q 16.4 25.2 15.7 29 14.85 33.05 13.5 37.1 12.9 36.5 13 34.8
L 13.6 29.7
Q 14.45 21.95 14.5 18.1 14.65 9.9 12.65 1.1 12.05 -1.45 11.85 -2.65 11.65 -4 11.65 -6.25 11.65 -8.7 11.65 -9.6 9.6 -9.5 6.35 -11.55 2.7 -13.95 0.65 -13.8 -1.35 -13.65 -2.9 -11.75 -4.2 -10.2 -5 -7.7 -5.45 -6.3 -6.35 -3.45 -7.05 -1.55 -8.1 -0.25 Z"/>
</g>

<g id="sharknight_sharknight_cape_4_Layer0_0_FILL">
<path fill="#000000" stroke="none" d="
M 55.7 9.8
Q 57.35 7.45 57 5.3 56.8 4.3 56.1 4.15 56 4.1 55.15 4.25 54.1 4.55 52.7 4.3 52 4.15 50.25 3.6 44.95 2 38.15 1.8 33.65 1.6 25.8 2.1 20.15 2.5 17.55 3.25 13.35 4.4 6.6 8.8 5.15 9.65 4.65 10.5 4.15 11.35 4.15 13.4
L 4.15 25.05
Q 4.15 27.6 5.25 28.35 6.25 29.05 7.75 28.4 8.05 28.25 9.9 26.95 11.8 25.55 15.05 23.95 21.7 20.7 25.75 19.65 28.4 18.95 33.55 18.3 38.9 17.65 41.35 17.05 43.5 16.55 46.45 15.5 50.75 14.1 52.65 12.8 54.35 11.6 55.7 9.8
M 53.15 6.25
L 54.5 6.45
Q 54.15 7.3 53.6 8.15 52.95 9.35 52 10.15 51.15 10.85 49.25 11.5 40.5 14.9 34.3 15.6
L 29.75 16
Q 24.25 16.7 17.85 19.6 14.1 21.35 6.75 25.6
L 6.7 22.15 6.7 13.9
Q 6.7 12.8 6.9 12.3 7.2 11.6 8.55 10.75 13.7 7.55 17.35 6.3 19.55 5.5 22.15 5.2
L 29 4.75
Q 34.35 4.5 37.95 4.6 41.3 4.7 49.35 5.75
L 53.15 6.25 Z"/>

<path fill="#0099FF" stroke="none" d="
M 52.05 6.35
Q 52.6615234375 6.278125 53.15 6.25
L 49.35 5.75
Q 41.3 4.7 37.95 4.6 34.35 4.5 29 4.75
L 22.15 5.2
Q 19.55 5.5 17.35 6.3 13.7 7.55 8.55 10.75 7.2 11.6 6.9 12.3 6.7 12.8 6.7 13.9
L 6.7 22.15
Q 6.767578125 22.1349609375 6.8 22.1 11.75 16.85 18.45 13.85 21.55 12.5 25.9 11.3 29.7 10.2 32.35 10.4 31.65 9.9 30.55 9.9 30.5 9.9 28.55 9.95 25.85 10.15 25.1 8.7 29.25 8.1 33.4 7.8
L 52.05 6.35 Z"/>

<path fill="#003399" stroke="none" d="
M 54.5 6.45
L 53.15 6.25
Q 52.6615234375 6.278125 52.05 6.35
L 33.4 7.8
Q 29.25 8.1 25.1 8.7 25.85 10.15 28.55 9.95 30.5 9.9 30.55 9.9 31.65 9.9 32.35 10.4 29.7 10.2 25.9 11.3 21.55 12.5 18.45 13.85 11.75 16.85 6.8 22.1 6.767578125 22.1349609375 6.7 22.15
L 6.75 25.6
Q 14.1 21.35 17.85 19.6 24.25 16.7 29.75 16
L 34.3 15.6
Q 40.5 14.9 49.25 11.5 51.15 10.85 52 10.15 52.95 9.35 53.6 8.15 54.15 7.3 54.5 6.45 Z"/>
</g>

<g id="sharknight_sharknight_Arm_0_Layer0_0_FILL">
<path fill="#000000" stroke="none" d="
M 23 10.55
Q 22.6 9.45 22.15 8.55 21.25 7.95 20.85 7.9 20.5 7.8 19.75 7.8 18.85 7.75 18.1 7.15
L 18.05 7.1
Q 14.05 6.55 13.5 6.95 12.9 7.4 12.35 8.05 8.8 6.85 5.15 2.2 4.15 0.9 3.5 0.45 2.25 -0.35 1.2 0.25 0.1 0.85 0 3.15 -0.05 6.45 0.7 10.5 1.1 13 2.25 17.7 2.75 19.8 3.45 20.6 3.95 21.2 4.9 21.6 5.25 21.75 6.65 22.25 10.95 23.5 12.85 22.05 13 22.15 13.2 22.25 14.55 22.9 19.5 21.8 19.45 21.95 19.4 22.1 19.85 21.85 20.3 21.55 22.75 19.8 23.4 16.55 23.9 13.7 23 10.55
M 13.8 11.1
Q 13.98125 10.905078125 14.2 10.7 14.55 10.55 14.85 10.4 15.35 10.05 15.5 9.8 15.65 9.75 15.8 9.7 15.95 9.7 16.1 9.65 16.6 9.55 17.6 9.5 18.45 9.4 18.65 9.45 18.95 9.6 19.25 10.1 20.25 11.65 20.45 13.55 20.6 15.45 19.9 17.15 19.8658203125 17.228125 19.8 17.3 19.7650390625 17.43125 19.7 17.55
L 19.1 18.45
Q 18.5 19.15 17.3 19.4 15.8 19.8 14.5 19.25 13.65 18.85 13.1 18.1 12.55 17.3 12.45 16.4 12.45 16.15 12.55 14.9 12.75 13.2 13.1 12.4 13.31796875 11.709765625 13.8 11.1
M 3.3 5.35
Q 6.25 8.7 8.3 9.85 9.45 10.5 10.6 10.75 10.05 11.85 9.7 13.2 9.39609375 14.21328125 9.3 15.25 9.2837890625 15.7470703125 9.3 16.25 9.35 17.85 10.2 19.35 9.6 19.25 8.9 19.2 6.65 19 5.65 17.95 5.0498046875 15.8220703125 4.55 13.55 3.7453125 9.6447265625 3.3 5.35 Z"/>

<path fill="#2F7078" stroke="none" d="
M 9.3 15.25
L 8.7 15.05
Q 6.2703125 14.3068359375 4.55 13.55 5.0498046875 15.8220703125 5.65 17.95 6.65 19 8.9 19.2 9.6 19.25 10.2 19.35 9.35 17.85 9.3 16.25 9.2837890625 15.7470703125 9.3 15.25
M 19.8 17.3
Q 18.084375 17.2943359375 16.3 16.95 14.45 16.55 13.9 15.55 13.5 14.85 13.75 13.1 13.962109375 11.8630859375 13.8 11.1 13.31796875 11.709765625 13.1 12.4 12.75 13.2 12.55 14.9 12.45 16.15 12.45 16.4 12.55 17.3 13.1 18.1 13.65 18.85 14.5 19.25 15.8 19.8 17.3 19.4 18.5 19.15 19.1 18.45
L 19.7 17.55
Q 19.7650390625 17.43125 19.8 17.3 Z"/>

<path fill="#9ECFD5" stroke="none" d="
M 8.3 9.85
Q 6.25 8.7 3.3 5.35 3.7453125 9.6447265625 4.55 13.55 6.2703125 14.3068359375 8.7 15.05
L 9.3 15.25
Q 9.39609375 14.21328125 9.7 13.2 10.05 11.85 10.6 10.75 9.45 10.5 8.3 9.85
M 14.2 10.7
Q 13.98125 10.905078125 13.8 11.1 13.962109375 11.8630859375 13.75 13.1 13.5 14.85 13.9 15.55 14.45 16.55 16.3 16.95 18.084375 17.2943359375 19.8 17.3 19.8658203125 17.228125 19.9 17.15 20.6 15.45 20.45 13.55 20.25 11.65 19.25 10.1 18.95 9.6 18.65 9.45 18.45 9.4 17.6 9.5 16.6 9.55 16.1 9.65 15.95 9.7 15.8 9.7 15.65 9.75 15.5 9.8 15.35 10.05 14.85 10.4 14.55 10.55 14.2 10.7 Z"/>
</g>

<g id="sharknight_sharknight_body_0_Layer0_0_FILL">
<path fill="#000000" stroke="none" d="
M 52.8 43.3
L 48.3 24.6
Q 45 10.2 44.5 8.05 43.95 5.45 42.95 4.2 41.55 2.55 37.8 1.65 27.75 -0.75 17.35 0.3 13.1 0.7 11.05 2.1 8.95 3.5 7.85 6.15 6.9 8.5 6.85 11.35 6.85 14.45 6.8 14.85 6.7 16.05 6 18.55 0.85 36.75 0.05 52.25 -0.15 54.1 0.6 54.9 1.2 55.5 2.95 55.7 5.2 55.85 6.35 55.75 8.25 55.55 9.45 54.7 10.2 54.15 11.8 52.1 15.65 47.25 20.65 46.45 23.35 46.05 28.5 47.15 34.85 48.6 37.75 50.85 38.35 51.3 39.8 52.65 41.05 53.8 41.85 54.35 44.45 56.1 48.4 56.25 51.05 56.3 55.55 55.6 57.25 55.25 57.35 54.4 57.45 53.9 56.7 52.95 55.25 51.15 54.25 48.4 53.65 46.7 52.8 43.3
M 41.95 13.45
L 46.65 30.7
Q 48.65 37.9 50.7 45.8 51.2912109375 48.14140625 51.9 49.9 52.588671875 51.908984375 53.3 53.2 50 53.35 48.15 53.15 45.3 52.8 43.35 51.6 42.65 51.15 41.65 50.25 40.35 49.05 40.05 48.8 39.58828125 48.405859375 39.05 48 37.069140625 46.57421875 34.3 45.5 31.58046875 44.4373046875 28.1 43.75 21.45 42.5 17.5 44 15.7 44.7 12.15 47.3 10.4 48.6 9.55 49.6 9.3302734375 49.89296875 8.95 50.4 8.8470703125 50.5859375 8.7 50.8 8.2 51.55 7.7 51.9 6.25 53.05 2.85 52.55 4.85 30.1 10.85 8.95 11.55 6.55 12.5 5.5 13.6537109375 4.4744140625 15.95 4.1 16.37109375 4.0435546875 16.8 4 27.25 2.85 37.35 5.2 39.1 5.6 39.7 6.3 40.15 6.75 40.55 8.2
L 41.95 13.45 Z"/>

<path fill="#2F7078" stroke="none" d="
M 39.05 48
Q 39.58828125 48.405859375 40.05 48.8 40.35 49.05 41.65 50.25 42.65 51.15 43.35 51.6 45.3 52.8 48.15 53.15 50 53.35 53.3 53.2 52.588671875 51.908984375 51.9 49.9 49.6103515625 50.126953125 47.55 50.85 45.85 51.3 45.3 51.2 44.65 51.05 44 50.55 43.75 50.3 43 49.5 40.95 47.35 38.05 46.3 36.2115234375 45.634375 34.3 45.5 37.069140625 46.57421875 39.05 48
M 41.95 13.45
L 40.55 8.2
Q 40.15 6.75 39.7 6.3 39.1 5.6 37.35 5.2 27.25 2.85 16.8 4 16.37109375 4.0435546875 15.95 4.1 13.6537109375 4.4744140625 12.5 5.5 11.55 6.55 10.85 8.95 4.85 30.1 2.85 52.55 6.25 53.05 7.7 51.9 8.2 51.55 8.7 50.8 8.8470703125 50.5859375 8.95 50.4 7.348828125 49.9400390625 5.55 50
L 10.65 29.6
Q 11.840234375 24.535546875 12.95 19.15 13.2861328125 19.213671875 13.65 19.25 17.7 19.6 24.05 18.4 33.8943359375 16.5099609375 41.95 13.45 Z"/>

<path fill="#9ECFD5" stroke="none" d="
M 46.65 30.7
L 41.95 13.45
Q 33.8943359375 16.5099609375 24.05 18.4 17.7 19.6 13.65 19.25 13.2861328125 19.213671875 12.95 19.15 11.840234375 24.535546875 10.65 29.6
L 5.55 50
Q 7.348828125 49.9400390625 8.95 50.4 9.3302734375 49.89296875 9.55 49.6 10.4 48.6 12.15 47.3 15.7 44.7 17.5 44 21.45 42.5 28.1 43.75 31.58046875 44.4373046875 34.3 45.5 36.2115234375 45.634375 38.05 46.3 40.95 47.35 43 49.5 43.75 50.3 44 50.55 44.65 51.05 45.3 51.2 45.85 51.3 47.55 50.85 49.6103515625 50.126953125 51.9 49.9 51.2912109375 48.14140625 50.7 45.8 48.65 37.9 46.65 30.7 Z"/>
</g>

<g id="sharknight_sharknight_chest_armor_0_Layer0_0_FILL">
<path fill="#000000" stroke="none" d="
M 40.75 18.15
Q 42.35 16.5 43.2 14.3 44.85 10.05 43.35 5.5 42.85 3.8 41.95 2.85 41 1.8 39 1.05 36 0 29.95 0 23.9 0 17.95 0.15
L 5.85 0.4
Q 4.65 0.4 3.95 0.9 3.5 1.25 3.3 2 3.15 2.4 2.95 3.3 2.65 4.15 1.65 5.45 0.6 6.85 0.3 7.6 -0.2 8.85 0.1 10.2 0.45 11.6 1.4 12.45 2 13 3.25 13.85 4.2 14.6 5.65 16.6 7.3 18.6 11.5 21.5 13.45 22.8 14.15 23.15 15.9 24 19.2 24.7 21.8 25.1 23.05 25.15 25.25 25.2 27.95 24.65 29.55 24.3 32.75 23.35 34.3 22.9 35.35 22.4 35.85 22.15 37.5 20.95 39.65 19.35 40.75 18.15
M 37.05 3.85
Q 37.2046875 3.9125 37.35 3.95 38.2 4.25 38.75 4.55 36.75 7 33.9 8.75 28.2 12.3 21.6 11.7
L 17.25 11.1
Q 15.05 10.85 14.75 10.75 13.6 10.25 13 10.1 12.5 10 11.75 10 10.75 10 10.45 9.95 9.75 9.85 9.25 9.5 8.7 9.05 8.65 8.45 8.35 8.5 7.75 8.5
L 9.1 10.45
Q 9.4 11 9.75 11.25 10.2 11.55 11.2 11.6 12.25 11.65 12.65 11.9 13 12.1 13.55 12.6 13.5978515625 12.6265625 13.65 12.65 14.0796875 12.860546875 14.75 12.95 15.55 13.05 19.15 13.8 23.3 14.65 26.4 14.5 26.2 14.55 26 14.6 19.95 16.55 16.25 16.8 14.7 16.9 13.8 16.55 12.95 16.1 12.45 15.95 11.85 15.75 10.5 15.65 9.2 15.6 8.55 15.3 7.75 14.85 7.3 14.8 7.1 14.75 6.95 14.85 6.85 14.75 6.8 14.7 6.45 14.35 5.4 12.95 4.55 11.8 3.9 11.25 2.8 10.25 2.65 9.95 2.35 9.25 2.7 8.25
L 2.7 8.2
Q 3.0048828125 7.497265625 3.45 7.25 3.7 7.1 4.35 7.05 4.95 6.95 5.2 6.75 5.7 6.4 5.7 5.3 5.65 4 5.9 3.6 14.25 4 22.1 3.55
L 24.75 3.3
Q 26.15 3.1 26.8 3.1 27.15 3.1 28.9 3.35 29.9 3.5 33.15 3.5 33.5904296875 3.5083984375 34 3.5 35.8263671875 3.605859375 37.05 3.85
M 38.65 11.1
Q 39.45 10.55 39.65 10.2 40.1 9.45 39.65 8.9 39.45 8.7 39.25 8.6 39.85 7.9 40.45 7.15 40.85 8.45 40.85 9.5 40.8 10.9 39.55 13 38.45 14.7 37.8 15.5 36.05 17.55 33.45 18.8 32.3 19.35 28.7 20.35 26.75546875 20.779296875 25.55 21 24.3701171875 21.2251953125 23.9 21.25 21.4 21.45 18.1 20.75 15.95 20.2 15.3 19.9 13.9 19.4 11.3 17.9 10.6 17.5 10 17.15 11.2 17.25 12.45 17.6
L 14.25 18.2
Q 15 18.35 17.55 18.6 19.4 18.7 20.25 18.5 20.33671875 18.4783203125 20.45 18.45
L 20.4 18.45
Q 20.5798828125 18.409765625 20.8 18.35
L 21.4 18.2
Q 22 18.15 23.2 18.1 23.9 17.95 25.2 17.45 25.5 17.35 27.15 17.1 28.05 16.85 29.75 16.05 35.85 13.05 38.65 11.1 Z"/>

<path fill="#0099FF" stroke="none" d="
M 20.45 18.45
Q 20.33671875 18.4783203125 20.25 18.5 19.4 18.7 17.55 18.6 15 18.35 14.25 18.2
L 12.45 17.6
Q 11.2 17.25 10 17.15 10.6 17.5 11.3 17.9 13.9 19.4 15.3 19.9 15.95 20.2 18.1 20.75 21.4 21.45 23.9 21.25 24.3701171875 21.2251953125 25.55 21 27.8478515625 20.0494140625 31.5 17.75
L 21.65 18.45
Q 20.998046875 18.4791015625 20.45 18.45
M 26 14.6
Q 26.2 14.55 26.4 14.5 23.3 14.65 19.15 13.8 15.55 13.05 14.75 12.95 14.0796875 12.860546875 13.65 12.65 10.5015625 12.425 5.6 9.9 3.848046875 9.0564453125 2.7 8.2
L 2.7 8.25
Q 2.35 9.25 2.65 9.95 2.8 10.25 3.9 11.25 4.55 11.8 5.4 12.95 6.45 14.35 6.8 14.7 6.85 14.75 6.95 14.85 7.1 14.75 7.3 14.8 7.75 14.85 8.55 15.3 9.2 15.6 10.5 15.65 11.85 15.75 12.45 15.95 12.95 16.1 13.8 16.55 14.7 16.9 16.25 16.8 19.95 16.55 26 14.6
M 36.5 4.25
Q 36.6630859375 4.148046875 37.05 3.85 35.8263671875 3.605859375 34 3.5 30.23515625 5.2189453125 26.35 6.55 24.05 7.35 22.85 7.6 20.35 8.25 17.15 8.45 15.2 8.55 11.35 8.55 12.6 9.1 14.8 9.15 18.05 9.25 18.4 9.3 18.7 9.35 20.6 9.75 21.9 10.05 22.8 10 24.35 9.95 27.15 8.7
L 32.65 6.2
Q 35.45 4.9 36.5 4.25 Z"/>

<path fill="#003399" stroke="none" d="
M 39.65 10.2
Q 39.45 10.55 38.65 11.1 35.85 13.05 29.75 16.05 28.05 16.85 27.15 17.1 25.5 17.35 25.2 17.45 23.9 17.95 23.2 18.1 22 18.15 21.4 18.2
L 20.8 18.35
Q 20.5798828125 18.409765625 20.4 18.45
L 20.45 18.45
Q 20.998046875 18.4791015625 21.65 18.45
L 31.5 17.75
Q 27.8478515625 20.0494140625 25.55 21 26.75546875 20.779296875 28.7 20.35 32.3 19.35 33.45 18.8 36.05 17.55 37.8 15.5 38.45 14.7 39.55 13 40.8 10.9 40.85 9.5 40.85 8.45 40.45 7.15 39.85 7.9 39.25 8.6 39.45 8.7 39.65 8.9 40.1 9.45 39.65 10.2
M 37.35 3.95
Q 37.2046875 3.9125 37.05 3.85 36.6630859375 4.148046875 36.5 4.25 35.45 4.9 32.65 6.2
L 27.15 8.7
Q 24.35 9.95 22.8 10 21.9 10.05 20.6 9.75 18.7 9.35 18.4 9.3 18.05 9.25 14.8 9.15 12.6 9.1 11.35 8.55 15.2 8.55 17.15 8.45 20.35 8.25 22.85 7.6 24.05 7.35 26.35 6.55 30.23515625 5.2189453125 34 3.5 33.5904296875 3.5083984375 33.15 3.5 29.9 3.5 28.9 3.35 27.15 3.1 26.8 3.1 26.15 3.1 24.75 3.3
L 22.1 3.55
Q 14.25 4 5.9 3.6 5.65 4 5.7 5.3 5.7 6.4 5.2 6.75 4.95 6.95 4.35 7.05 3.7 7.1 3.45 7.25 3.0048828125 7.497265625 2.7 8.2 3.848046875 9.0564453125 5.6 9.9 10.5015625 12.425 13.65 12.65 13.5978515625 12.6265625 13.55 12.6 13 12.1 12.65 11.9 12.25 11.65 11.2 11.6 10.2 11.55 9.75 11.25 9.4 11 9.1 10.45
L 7.75 8.5
Q 8.35 8.5 8.65 8.45 8.7 9.05 9.25 9.5 9.75 9.85 10.45 9.95 10.75 10 11.75 10 12.5 10 13 10.1 13.6 10.25 14.75 10.75 15.05 10.85 17.25 11.1
L 21.6 11.7
Q 28.2 12.3 33.9 8.75 36.75 7 38.75 4.55 38.2 4.25 37.35 3.95 Z"/>
</g>

<g id="sharknight_sharknight_head_bottom_0_Layer0_0_FILL">
<path fill="#000000" stroke="none" d="
M 77.45 24.35
Q 79.15 23.2 79.7 21.7 80.2 20.35 79.75 18.5 79.6 17.6 78.75 15.3 77.45 11.35 77.55 8.75 77.55 7.6 77.55 7.3 77.45 6.5 77.05 6 76.55 5.45 75.1 5 64.5 1.85 51.5 0.7 41.45 -0.15 27.45 0 20.4 0.1 16.95 0.35 11.2 0.7 7.35 1.75 5.4 2.35 4.55 3.15 3.65 4 2.9 6.35
L 0.55 13.65
Q -0.3 16.15 0.2 17.6 0.75 19.15 3.35 20.7 6.8 22.9 11 24.8 15.7 27.05 19.75 28.05 23.8 29.05 31.3 29.65 46.8 30.8 55.45 30.05 65.3 29.1 74.1 25.95 76.25 25.15 77.45 24.35
M 72.85 10.65
Q 74.15 15.75 75.55 20.05 66.6 24.45 54.1 25.55 45.85 26.25 31.5 25.6 26.55 25.3 24.15 24.95 20 24.25 15.25 22.4 14.955078125 22.2880859375 14.6 22.15
L 14.6 22.15
Q 13.9109375 21.889453125 13.05 21.5
L 6.7 18.7
Q 4.2 17.55 3.7 16.25 3.35 15.15 3.95 13.1
L 5.45 8.6
Q 7.8 9.9 12.7 10.5
L 28.3 12.55
Q 37.1974609375 13.704296875 41.8 13.9 41.9791015625 13.942578125 42.15 13.95 56.25 14.65 72.85 10.65
M 44.45 3.4
Q 50.5 3.9 58 5.25 62.55 6.05 71.4 7.95 55.3 11.8 41.85 11.15 37.85 10.95 30 9.95
L 8.75 7.15
Q 7.7 7.05 7.05 6.7 6.7 6.45 6.55 6.05 6.35 5.6 6.5 5.25 6.8 4.75 7.85 4.55 13.65 3.25 21.05 2.95 26 2.7 34.5 2.95 41.2 3.15 44.45 3.4 Z"/>

<path fill="#333333" stroke="none" d="
M 58 5.25
Q 50.5 3.9 44.45 3.4 41.2 3.15 34.5 2.95 26 2.7 21.05 2.95 13.65 3.25 7.85 4.55 6.8 4.75 6.5 5.25 6.35 5.6 6.55 6.05 6.7 6.45 7.05 6.7 7.7 7.05 8.75 7.15
L 30 9.95
Q 37.85 10.95 41.85 11.15 55.3 11.8 71.4 7.95 62.55 6.05 58 5.25 Z"/>

<path fill="#666666" stroke="none" d="
M 21.05 16.25
Q 24.8 15.9 32.25 15.05
L 41.8 13.9
Q 37.1974609375 13.704296875 28.3 12.55
L 12.7 10.5
Q 7.8 9.9 5.45 8.6
L 3.95 13.1
Q 3.35 15.15 3.7 16.25 4.2 17.55 6.7 18.7
L 13.05 21.5
Q 13.9109375 21.889453125 14.6 22.15
L 14.6 22.15
Q 15.19453125 20.896875 15.8 19.65 16.7 17.9 17.55 17.3 18.45 16.55 21.05 16.25 Z"/>

<path fill="#999999" stroke="none" d="
M 75.55 20.05
Q 74.15 15.75 72.85 10.65 56.25 14.65 42.15 13.95 41.9791015625 13.942578125 41.8 13.9
L 32.25 15.05
Q 24.8 15.9 21.05 16.25 18.45 16.55 17.55 17.3 16.7 17.9 15.8 19.65 15.19453125 20.896875 14.6 22.15 14.955078125 22.2880859375 15.25 22.4 20 24.25 24.15 24.95 26.55 25.3 31.5 25.6 45.85 26.25 54.1 25.55 66.6 24.45 75.55 20.05 Z"/>
</g>

<g id="sharknight_sharknight_head_top_0_Layer0_0_FILL">
<path fill="#000000" stroke="none" d="
M 84.2 83.65
Q 84.119921875 83.3171875 84 82.95 84.8716796875 81.9412109375 84.8 79.4 84.5 71.2 86.25 63.55 87.05 60.05 87.2 59.25 87.55 56.8 87.2 54.95 86.3 50.35 79.95 45.75 72.3068359375 40.19453125 64.6 37.7 64.529296875 37.3703125 64.4 36.95
L 62.35 30.45
Q 59 21.35 47.7 12.65 45.25 10.75 38.25 5.95 34.25 3.35 32.3 2.55 31.3 2.15 29.25 1.55 27.2 0.9 26.2 0.5 24.2 -0.2 23.6 -0.35 22.05 -0.65 21.15 0.05 20.2 0.85 19.9 2.95 18.8 9.35 18.45 12.6 17.85 17.85 18 23.15 18.05 24.75 18.2 27.95 18.3 30.75 18.2 32.75 18.1 35.3 17.6 37.15 17.45 37.65 17.1 38.65 16.85 39.5 16.9 40.15 16.9 41.03125 17.3 41.75 10.6501953125 44.5974609375 5.45 48.7 -0.1 53.15 -1.05 57.8 -1.55 60.4 -0.55 65.2 2.8 83 3.7 93.6 5.05 109.4 2.65 122 2.4 123.35 2.65 124.3 2.6583984375 124.3423828125 2.65 124.35 2.4404296875 125.298046875 2.7 126.25 3.35 128.3 5.6 129.75 7.05 130.7 9.95 131.8
L 15.95 133.95
Q 20.55 135.65 22.7 136.75 23.35 137.1 24.55 137.75 25.65 138.35 26.55 138.55 27.45 138.8 28.7 138.8 29.45 138.85 30.95 138.8 33.1 138.8 38.8 139.35 59.95 141.25 74.4 134.1 77.75 132.4 84.05 128.3 85.75 127.15 86.15 126.35 86.85 125.2 86.55 123.45 86.35 122.4 85.6 120.5 83.426953125 115.2634765625 82.05 109.75 83.5755859375 105.8490234375 84.4 101.75 86.3 92.3 84.2 83.65
M 82.7 55.3
Q 83.1 56.55 82.85 58.25 82.7 59.1 82.1 61.2 80.619921875 66.409765625 80.1 71.75 79.1890625 69.568359375 78.4 68.3 76.75 65.6 72.4 61.45 67.25 56.7 63.95 55.15 60.1 53.3 54.8 52.9 48.7 52.35 42.75 53.45 39.6853515625 54.0326171875 36.8 55 33.98984375 55.99296875 31.35 57.35 28.142578125 59.0130859375 25.3 61.2 23.3958984375 62.7337890625 21.65 64.5 20.19921875 65.9841796875 18.95 67.55 16.4494140625 70.7509765625 14.75 74.35 11.85 80.4 10.5 90.05 9.7771484375 94.7763671875 9.8 98.55 9.81171875 101.608203125 10.3 104.05 11 108 13.7 114 15.6 118.2 17.45 120.15 19 121.85 22.2 123.75 22.8224609375 124.1146484375 23.45 124.45
L 31.45 128
Q 37.376953125 130.021484375 43.85 130.6 55.6 131.65 66.4 127.7 70.7 126.2 73.15 124.1 73.7076171875 123.6259765625 74.3 123 75.819140625 121.368359375 77.55 118.7 78.2765625 117.54921875 78.9 116.35 79.1498046875 117.289453125 79.45 118.25 80.05 120.15 81.6 123.9 77.05 127.1 74.5 128.6 73.6146484375 129.135546875 72.75 129.6 69.6630859375 131.3232421875 66.85 132.3 63.15 133.55 56.95 134.4 46.2400390625 135.7232421875 35.5 135.05 33.2509765625 134.9251953125 31 134.7 28.8 134.5 27.45 134.05 25.5 133.15 24.5 132.7 23.9 132.4 15.55 129.15 10.1 127 7.35 124.4 6.2 123.4 5.85 123.15 5.54609375 122.9580078125 5.25 122.85 7.199609375 118.51484375 8.1 113.9 9.1 108.75 8.95 102.15 8.90625 100.3984375 8.75 97.9
L 8.7 97.9
Q 8.6759765625 97.1328125 8.6 96.3 8.428515625 93.78828125 8.1 90.65 8.1171875 90.4796875 8.1 90.3 6.3 71.8 4.65 62.7 4.3 60.65 4.25 59.75 4.2 58.1 4.75 56.95 5.4 55.55 7.65 53.8 8.8521484375 52.912109375 10.1 52.1 10.201953125 52.03359375 10.3 51.95 11.151953125 51.425 12 50.9 12.096484375 50.8578125 12.15 50.8 13.0248046875 50.3251953125 13.9 49.85 17.125390625 48.1150390625 20.65 46.75 24.293359375 45.4056640625 28.25 44.45 39.05 41.85 51.05 42.6 68 43.65 78.85 50.9 82.05 53.05 82.7 55.3
M 52.1 35.65
Q 49.1453125 35.6150390625 45.7 35.85 42.8962890625 36.0076171875 40.2 36.25 31.9013671875 37.1365234375 24.85 39.1 24.892578125 39.09296875 24.9 39.05 25.1 37.75 24.95 35.85 24.7 33.7 24.65 32.6 24.6 30.7 24.6 29.75 24.55 28.1 24.35 27 24.0685546875 26.015234375 23.85 25.2 23.5294921875 24.0474609375 23.35 23.3 23.05 22.1 22.7 18.65 22.3 13.05 22.3 10.45 22.25 5.85 23.1 2.3 26.95 3.9 31 6.5 33.5 8.15 37.35 11.15 43.65 15.95 46.75 18.7 51.75 23.1 55.05 27.35
L 59.15 33
Q 61.15 35.65 61.6 36.25 61.8353515625 36.62265625 62 37 59.570703125 36.3615234375 57.1 36.05 54.8056640625 35.7392578125 52.1 35.65
M 40.45 59.6
Q 40.32109375 59.461328125 40.2 59.35 41.589453125 58.8421875 43.1 58.4 46.8 57.4 48.85 57.4 49.826953125 57.4 51.45 57.65 51.5642578125 57.7451171875 51.65 57.85 52.6998046875 59.219921875 53.95 61.1 56.201171875 64.5111328125 59.1 69.6 60.75 72.4 61.4 74.1 62.55 77.15 62.9 82.05 62.9517578125 82.796484375 63 83.65 63.0091796875 83.8572265625 63 84.05 63.050390625 84.7318359375 63.05 85.45 63.08359375 85.7880859375 63.1 86.15 63.11171875 86.794140625 63.1 87.45 63.1306640625 88.1056640625 63.1 88.75 63.1427734375 91.476953125 63.1 94.8
L 63.1 94.85
Q 63.0744140625 96.01171875 63.05 97.25 62.95 103.25 62.5 106.85 62.3240234375 108.229296875 62 109.7 60.817578125 115.809765625 57.6 123.8 55.1716796875 124.182421875 52.35 124.3 50.1626953125 124.3892578125 46.6 124.35 50.181640625 120.6708984375 51.6 118.35 53.15 115.6 54.25 112.05 54.5162109375 111.2025390625 54.75 110.35 56.6728515625 103.358984375 56.45 96.05 56.4 92.2 55.6 86.75 55.2 83.95 54.75 82.55 54.4 81.45 53.7 79.95 52.85 78.3 52.45 77.45 51.3 74.6 50.7 73.2 49.6 70.75 48.4 69.3 47.45 68.3 47 67.8 46.15 66.85 45.75 66.1 45.7359375 66.062890625 45.7 66 45.0388671875 64.233984375 44.5 63.45 44.05 62.8 43.1 62.05 41.75 61 41.5 60.8 40.8 60 40.45 59.6
M 35.75 61.2
Q 36.3015625 60.928515625 36.85 60.65 36.9939453125 60.8771484375 37.15 61.1
L 42 68.3
Q 42.9 69.45 44.7 71.65 46.25 73.7 47.75 77.05 49.15 80.4 49.95 83.6 51.1 87.9 51.4 92.95 52.25 105.55 47.5 117.3 46.1 120.75 44.45 122.4 44.15 122.7 43.5 123.3 43.0244140625 123.8232421875 42.8 124.3 38.835546875 124.158984375 36.6 123.6 35.6724609375 123.3751953125 34.65 123 35.500390625 122.5173828125 36.7 121.6 38.55 120.75 39.3 120.1 40.1 119.35 40.95 117.55 43.55 112.35 43.8 111.75 45.25 108.4 45.6 105.6 45.7 104.75 45.8 102.8 45.9 101 46.05 100 46.4 98.1 46.6 97.15 46.9 95.4 46.75 94.25 46.65 93.4 46.2 91.95 45.7 90.35 45.6 89.6 45.5 88.9 45.55 87.2 45.6 85.65 45.45 84.8 45.3 84 44.7 82.65 44.05 81.1 43.9 80.5 43.7 79.7 43.5 78.35 43.3 76.7 43.2 76.15 42.7 73.9 41 71.25 38.5 67.2 34.7 63.55 34.000390625 62.9021484375 33.35 62.5 34.5244140625 61.8126953125 35.75 61.2
M 24.7 70.35
L 24.65 70.3
Q 25.2849609375 69.551171875 25.95 68.8 26.8548828125 67.7658203125 27.8 66.8 28.8837890625 65.7970703125 30 64.85 30.2388671875 65.318359375 30.6 65.8 30.62265625 65.830859375 30.65 65.85
L 32.65 68.35
Q 33.5251953125 69.414453125 34.65 70.7 37.05 73.6 38 75.95 38.55 77.45 39 79.65 39.85 83.15 40.3 85.95 40.5126953125 87.115234375 40.65 88.2 41.31953125 92.5916015625 41.2 96.1 41.1 97.9 40.7 101.5
L 40 106.85 40 106.95
Q 39.15 112.45 37.65 115.25 36.6 117.2 34.7 119.25 33.7669921875 120.2640625 31.95 121.9 30.4720703125 121.1974609375 28.8 120.25 27.9517578125 119.7640625 27.15 119.25
L 25.8 118.35
Q 25.5791015625 118.2025390625 25.35 118 26.107421875 117.3865234375 26.8 116.65 27.4375 115.962109375 28 115.15 30.890625 111.340234375 32.4 105.3 32.898828125 103.2734375 33.25 101 34.6 91.7 32.75 85.3 31.9294921875 82.45 29.4 77.5
L 29.4 77.5
Q 29.2779296875 77.224609375 29.1 76.9
L 28.6 75.9
Q 26.55 71.95 24.7 70.35
M 17.3 94.2
Q 17.85 84.9 19.7 79.5 20.63046875 76.755078125 22.05 74.25 25.1865234375 79.74609375 26.7 85.8 27.7 90 28.1 94.55 29.4205078125 108.978125 22.6 115.7 22.1130859375 115.2029296875 21.7 114.7 18.6 110.95 17.65 105.05 16.95 100.8 17.3 94.2
M 68.05 69.8
Q 69.65 72.15 70 72.8 70.7 74.1 71.55 77.1 72.6 81.25 73.2 85.4
L 73.7 89.55
Q 74.3 97.1 73.05 105 72.1 111.1 69.7 118.1 69.5 118.75 69.55 119.1 69.5611328125 119.15546875 69.55 119.2 66.62578125 121.4306640625 62.55 122.7 63.0693359375 121.8638671875 63.55 120.7 65.05 117.4 66 114.75 67.85 109.35 68.3 102.4 68.6 97.45 68.25 89.7 68 84.75 67.6 81.7 67 77.35 65.7 73.95 64.2 70.2 60.6 64.85 58.2052734375 61.1705078125 56 58.45 57.0306640625 58.671484375 57.7 58.85 60.25 59.5 62.1 60.45 64.4 61.6 66.75 63.7 66.8453125 63.7826171875 66.95 63.85 66.595703125 64.10859375 66.4 64.5 65.95 65.3 66.35 66.65 66.75 67.95 68.05 69.8
M 72.9 71.3
Q 71.9 69.55 71.55 68.65 71.4908203125 68.5072265625 71.4 68.35 73.2775390625 70.3765625 74.05 71.75 75.05 73.5 76.05 77.15
L 78 84.45
Q 79.4 89.55 79.55 92.3 79.6306640625 93.8609375 79.5 95.6 79.376953125 97.1376953125 79.1 98.8 78.25 105.05 76.55 109.4 75.83671875 111.28515625 74.95 112.9 75.782421875 110.3951171875 76.25 108.7 77.5 104.05 77.55 100.25 77.5435546875 100.09765625 77.5 99.95
L 77.45 98.8
Q 77.3892578125 96.3119140625 77.35 94.9 77.25 91 77.1 89.05 76.95 86.7 76.6 84.85
L 75.85 80.9
Q 75.05 77.4 74.65 76 73.9 73.3 72.9 71.3 Z"/>

<path fill="#666666" stroke="none" d="
M 79.1 98.8
Q 79.376953125 97.1376953125 79.5 95.6 78.2103515625 95.5388671875 77.55 97.85
L 77.45 98.15
Q 77.4837890625 98.4662109375 77.45 98.8
L 77.5 99.95
Q 77.5435546875 100.09765625 77.55 100.25 77.5 104.05 76.25 108.7 75.782421875 110.3951171875 74.95 112.9 75.83671875 111.28515625 76.55 109.4 78.25 105.05 79.1 98.8
M 32.55 105.3
Q 32.47265625 105.29453125 32.4 105.3 30.890625 111.340234375 28 115.15 27.4375 115.962109375 26.8 116.65 26.107421875 117.3865234375 25.35 118 25.5791015625 118.2025390625 25.8 118.35
L 27.15 119.25
Q 27.9517578125 119.7640625 28.8 120.25 30.4720703125 121.1974609375 31.95 121.9 33.7669921875 120.2640625 34.7 119.25 36.6 117.2 37.65 115.25 39.15 112.45 40 106.95
L 40 106.85 40.05 106.25
Q 39.0689453125 106.120703125 37.45 105.9 34.2 105.45 32.55 105.3
M 24.65 70.3
L 24.7 70.35
Q 26.55 71.95 28.6 75.9
L 29.1 76.9
Q 29.2779296875 77.224609375 29.4 77.5
L 29.4 77.5
Q 30.0900390625 75.95234375 30.7 74.55 32.09453125 71.442578125 33.25 69.1 32.9328125 68.72421875 32.65 68.35
L 30.65 65.85
Q 30.62265625 65.830859375 30.6 65.8 30.2388671875 65.318359375 30 64.85 28.8837890625 65.7970703125 27.8 66.8 26.8548828125 67.7658203125 25.95 68.8 25.2849609375 69.551171875 24.65 70.3
M 60.7 109.9
Q 56.8771484375 110.1197265625 54.75 110.35 54.5162109375 111.2025390625 54.25 112.05 53.15 115.6 51.6 118.35 50.181640625 120.6708984375 46.6 124.35 50.1626953125 124.3892578125 52.35 124.3 55.1716796875 124.182421875 57.6 123.8 60.817578125 115.809765625 62 109.7 61.2447265625 109.8318359375 60.7 109.9
M 40.2 59.35
Q 40.32109375 59.461328125 40.45 59.6 40.8 60 41.5 60.8 41.75 61 43.1 62.05 44.05 62.8 44.5 63.45 45.0388671875 64.233984375 45.7 66 47.1916015625 65.126171875 48.4 64.35 52.37734375 61.9755859375 53.95 61.1 52.6998046875 59.219921875 51.65 57.85 51.5642578125 57.7451171875 51.45 57.65 49.826953125 57.4 48.85 57.4 46.8 57.4 43.1 58.4 41.589453125 58.8421875 40.2 59.35 Z"/>

<path fill="#CCCCCC" stroke="none" d="
M 71.55 68.65
Q 71.9 69.55 72.9 71.3 73.9 73.3 74.65 76 75.05 77.4 75.85 80.9
L 76.6 84.85
Q 76.95 86.7 77.1 89.05 77.25 91 77.35 94.9 77.3892578125 96.3119140625 77.45 98.8 77.4837890625 98.4662109375 77.45 98.15
L 77.55 97.85
Q 78.2103515625 95.5388671875 79.5 95.6 79.6306640625 93.8609375 79.55 92.3 79.4 89.55 78 84.45
L 76.05 77.15
Q 75.05 73.5 74.05 71.75 73.2775390625 70.3765625 71.4 68.35 71.4908203125 68.5072265625 71.55 68.65
M 29.4 77.5
Q 31.9294921875 82.45 32.75 85.3 34.6 91.7 33.25 101 32.898828125 103.2734375 32.4 105.3 32.47265625 105.29453125 32.55 105.3 34.2 105.45 37.45 105.9 39.0689453125 106.120703125 40.05 106.25
L 40 106.85 40.7 101.5
Q 41.1 97.9 41.2 96.1 41.31953125 92.5916015625 40.65 88.2 40.346484375 87.615625 40 87 36.084765625 80.117578125 30.7 74.55 30.0900390625 75.95234375 29.4 77.5
M 47 67.8
Q 47.45 68.3 48.4 69.3 49.6 70.75 50.7 73.2 51.3 74.6 52.45 77.45 52.85 78.3 53.7 79.95 54.4 81.45 54.75 82.55 55.2 83.95 55.6 86.75 56.4 92.2 56.45 96.05 56.6728515625 103.358984375 54.75 110.35 56.8771484375 110.1197265625 60.7 109.9 61.2447265625 109.8318359375 62 109.7 62.3240234375 108.229296875 62.5 106.85 62.95 103.25 63.05 97.25 63.0744140625 96.01171875 63.1 94.85
L 63.1 94.8
Q 62.5169921875 91.3076171875 61.8 87.85 60.95 83.6 59.9 81 58.95 78.65 57.2 76.05 56.2 74.5 53.85 71.45
L 48.4 64.35
Q 47.1916015625 65.126171875 45.7 66 45.7359375 66.062890625 45.75 66.1 46.15 66.85 47 67.8 Z"/>

<path fill="#0099FF" stroke="none" d="
M 70 72.8
Q 69.65 72.15 68.05 69.8 66.75 67.95 66.35 66.65 65.95 65.3 66.4 64.5 66.595703125 64.10859375 66.95 63.85 66.8453125 63.7826171875 66.75 63.7 64.4 61.6 62.1 60.45 60.25 59.5 57.7 58.85 57.0306640625 58.671484375 56 58.45 58.2052734375 61.1705078125 60.6 64.85 64.2 70.2 65.7 73.95 67 77.35 67.6 81.7 68 84.75 68.25 89.7 68.6 97.45 68.3 102.4 67.85 109.35 66 114.75 65.05 117.4 63.55 120.7 63.0693359375 121.8638671875 62.55 122.7 66.62578125 121.4306640625 69.55 119.2 69.5611328125 119.15546875 69.55 119.1 69.5 118.75 69.7 118.1 72.1 111.1 73.05 105 74.3 97.1 73.7 89.55
L 73.2 85.4
Q 72.6 81.25 71.55 77.1 70.7 74.1 70 72.8
M 19.7 79.5
Q 17.85 84.9 17.3 94.2 16.95 100.8 17.65 105.05 18.6 110.95 21.7 114.7 22.1130859375 115.2029296875 22.6 115.7 29.4205078125 108.978125 28.1 94.55 27.7 90 26.7 85.8 25.1865234375 79.74609375 22.05 74.25 20.63046875 76.755078125 19.7 79.5
M 36.85 60.65
Q 36.3015625 60.928515625 35.75 61.2 34.5244140625 61.8126953125 33.35 62.5 34.000390625 62.9021484375 34.7 63.55 38.5 67.2 41 71.25 42.7 73.9 43.2 76.15 43.3 76.7 43.5 78.35 43.7 79.7 43.9 80.5 44.05 81.1 44.7 82.65 45.3 84 45.45 84.8 45.6 85.65 45.55 87.2 45.5 88.9 45.6 89.6 45.7 90.35 46.2 91.95 46.65 93.4 46.75 94.25 46.9 95.4 46.6 97.15 46.4 98.1 46.05 100 45.9 101 45.8 102.8 45.7 104.75 45.6 105.6 45.25 108.4 43.8 111.75 43.55 112.35 40.95 117.55 40.1 119.35 39.3 120.1 38.55 120.75 36.7 121.6 35.500390625 122.5173828125 34.65 123 35.6724609375 123.3751953125 36.6 123.6 38.835546875 124.158984375 42.8 124.3 43.0244140625 123.8232421875 43.5 123.3 44.15 122.7 44.45 122.4 46.1 120.75 47.5 117.3 52.25 105.55 51.4 92.95 51.1 87.9 49.95 83.6 49.15 80.4 47.75 77.05 46.25 73.7 44.7 71.65 42.9 69.45 42 68.3
L 37.15 61.1
Q 36.9939453125 60.8771484375 36.85 60.65 Z"/>

<path fill="#FFFFFF" stroke="none" d="
M 32.65 68.35
Q 32.9328125 68.72421875 33.25 69.1 32.09453125 71.442578125 30.7 74.55 36.084765625 80.117578125 40 87 40.346484375 87.615625 40.65 88.2 40.5126953125 87.115234375 40.3 85.95 39.85 83.15 39 79.65 38.55 77.45 38 75.95 37.05 73.6 34.65 70.7 33.5251953125 69.414453125 32.65 68.35
M 59.1 69.6
Q 56.201171875 64.5111328125 53.95 61.1 52.37734375 61.9755859375 48.4 64.35
L 53.85 71.45
Q 56.2 74.5 57.2 76.05 58.95 78.65 59.9 81 60.95 83.6 61.8 87.85 62.5169921875 91.3076171875 63.1 94.8 63.1427734375 91.476953125 63.1 88.75 63.1306640625 88.1056640625 63.1 87.45 63.11171875 86.794140625 63.1 86.15 63.08359375 85.7880859375 63.05 85.45 63.050390625 84.7318359375 63 84.05 63.0091796875 83.8572265625 63 83.65 62.9517578125 82.796484375 62.9 82.05 62.55 77.15 61.4 74.1 60.75 72.4 59.1 69.6 Z"/>

<path fill="#9ECFD5" stroke="none" d="
M 50.55 33.35
Q 51.4783203125 34.4494140625 52.1 35.65 54.8056640625 35.7392578125 57.1 36.05 59.570703125 36.3615234375 62 37 61.8353515625 36.62265625 61.6 36.25 61.15 35.65 59.15 33
L 55.05 27.35
Q 51.75 23.1 46.75 18.7 43.65 15.95 37.35 11.15 33.5 8.15 31 6.5 26.95 3.9 23.1 2.3 22.25 5.85 22.3 10.45 22.3 13.05 22.7 18.65 23.05 22.1 23.35 23.3 23.5294921875 24.0474609375 23.85 25.2 24.1921875 25.055078125 24.55 24.9 27.65 23.5 30.6 24.4 33.35 25.25 36.15 28.35 37.084765625 29.3728515625 37.8 30.35 40.5359375 28.9771484375 43 29.15 44.5 29.3 46.05 29.95 48.65 31.1 50.55 33.35
M 31.15 10.95
Q 33.15 11.45 34.05 11.95 35.6 12.8 36.05 14.25 36.3 15.15 36 17.05 35.65 18.9 35.25 19.85 34.65 21.35 33.6 22.05 32.5 22.8 30.05 22.9 27.45 23 26.25 22.65 24.1 22 23.35 20.35 22.7 18.9 23.4 16.05 24.3 11.85 26.45 10.85 27.95 10.15 31.15 10.95
M 73.15 124.1
Q 70.7 126.2 66.4 127.7 55.6 131.65 43.85 130.6 37.376953125 130.021484375 31.45 128 32.052734375 128.2111328125 32.65 128.4 34.0162109375 131.087890625 35.5 135.05 46.2400390625 135.7232421875 56.95 134.4 63.15 133.55 66.85 132.3 69.6630859375 131.3232421875 72.75 129.6 72.9087890625 126.972265625 73.6 124.8 73.8822265625 123.9201171875 74.3 123 73.7076171875 123.6259765625 73.15 124.1
M 82.85 58.25
Q 83.1 56.55 82.7 55.3 82.05 53.05 78.85 50.9 68 43.65 51.05 42.6 39.05 41.85 28.25 44.45 24.293359375 45.4056640625 20.65 46.75 20.849609375 46.7146484375 21 46.65 21.4162109375 48.65625 21.35 50.6 21.1 55.9 17.95 59.25 17 60.2 16.85 60.75 16.65 61.5 17.15 62.8 18.1298828125 65.451171875 18.95 67.55 20.19921875 65.9841796875 21.65 64.5 23.3958984375 62.7337890625 25.3 61.2 25.291015625 61.158203125 25.25 61.1 24.25 59.8 24.45 57.55 24.6 56.25 25.4 54 26.65 50.25 28.7 49.55 30.1 49.2 30.3 49 34.15 50.1 35.75 52.6 36.22578125 53.361328125 36.8 55 39.6853515625 54.0326171875 42.75 53.45 48.7 52.35 54.8 52.9 60.1 53.3 63.95 55.15 67.25 56.7 72.4 61.45 76.75 65.6 78.4 68.3 79.1890625 69.568359375 80.1 71.75 80.619921875 66.409765625 82.1 61.2 82.7 59.1 82.85 58.25
M 37.1 47.05
L 37.1 46.8
Q 37.75 46.9 38.3 47.35 38.85 47.8 39.05 48.45 39.35 49.5 38.75 50.35 38.05 51.25 37 51.1 36.35 51 35.55 50.35 35.15 49.95 35.1 49.85 34.8 49.35 35.2 48.35 35.4 47.75 35.65 47.45 36.3 46.8 37.1 47.05 Z"/>

<path fill="#2F7078" stroke="none" d="
M 34.05 11.95
Q 33.15 11.45 31.15 10.95 27.95 10.15 26.45 10.85 24.3 11.85 23.4 16.05 22.7 18.9 23.35 20.35 24.1 22 26.25 22.65 27.45 23 30.05 22.9 32.5 22.8 33.6 22.05 34.65 21.35 35.25 19.85 35.65 18.9 36 17.05 36.3 15.15 36.05 14.25 35.6 12.8 34.05 11.95
M 45.7 35.85
Q 49.1453125 35.6150390625 52.1 35.65 51.4783203125 34.4494140625 50.55 33.35 48.65 31.1 46.05 29.95 44.5 29.3 43 29.15 40.5359375 28.9771484375 37.8 30.35 37.084765625 29.3728515625 36.15 28.35 33.35 25.25 30.6 24.4 27.65 23.5 24.55 24.9 24.1921875 25.055078125 23.85 25.2 24.0685546875 26.015234375 24.35 27 24.55 28.1 24.6 29.75 24.6 30.7 24.65 32.6 24.7 33.7 24.95 35.85 25.1 37.75 24.9 39.05 24.892578125 39.09296875 24.85 39.1 31.9013671875 37.1365234375 40.2 36.25 42.8962890625 36.0076171875 45.7 35.85
M 77.55 118.7
Q 75.819140625 121.368359375 74.3 123 73.8822265625 123.9201171875 73.6 124.8 72.9087890625 126.972265625 72.75 129.6 73.6146484375 129.135546875 74.5 128.6 77.05 127.1 81.6 123.9 80.05 120.15 79.45 118.25 79.1498046875 117.289453125 78.9 116.35 78.2765625 117.54921875 77.55 118.7
M 31.35 57.35
Q 33.98984375 55.99296875 36.8 55 36.22578125 53.361328125 35.75 52.6 34.15 50.1 30.3 49 30.1 49.2 28.7 49.55 26.65 50.25 25.4 54 24.6 56.25 24.45 57.55 24.25 59.8 25.25 61.1 25.291015625 61.158203125 25.3 61.2 28.142578125 59.0130859375 31.35 57.35
M 21 46.65
Q 20.849609375 46.7146484375 20.65 46.75 17.125390625 48.1150390625 13.9 49.85 13.0248046875 50.3251953125 12.15 50.8 12.096484375 50.8578125 12 50.9 11.151953125 51.425 10.3 51.95 10.201953125 52.03359375 10.1 52.1 8.8521484375 52.912109375 7.65 53.8 5.4 55.55 4.75 56.95 4.2 58.1 4.25 59.75 4.3 60.65 4.65 62.7 6.3 71.8 8.1 90.3 8.1171875 90.4796875 8.1 90.65 8.428515625 93.78828125 8.6 96.3 8.6759765625 97.1328125 8.7 97.9
L 8.75 97.9
Q 8.90625 100.3984375 8.95 102.15 9.1 108.75 8.1 113.9 7.199609375 118.51484375 5.25 122.85 5.54609375 122.9580078125 5.85 123.15 6.2 123.4 7.35 124.4 10.1 127 15.55 129.15 23.9 132.4 24.5 132.7 25.5 133.15 27.45 134.05 28.8 134.5 31 134.7 33.2509765625 134.9251953125 35.5 135.05 34.0162109375 131.087890625 32.65 128.4 32.052734375 128.2111328125 31.45 128
L 23.45 124.45
Q 22.8224609375 124.1146484375 22.2 123.75 19 121.85 17.45 120.15 15.6 118.2 13.7 114 11 108 10.3 104.05 9.81171875 101.608203125 9.8 98.55 9.7771484375 94.7763671875 10.5 90.05 11.85 80.4 14.75 74.35 16.4494140625 70.7509765625 18.95 67.55 18.1298828125 65.451171875 17.15 62.8 16.65 61.5 16.85 60.75 17 60.2 17.95 59.25 21.1 55.9 21.35 50.6 21.4162109375 48.65625 21 46.65
M 37.1 46.8
L 37.1 47.05
Q 36.3 46.8 35.65 47.45 35.4 47.75 35.2 48.35 34.8 49.35 35.1 49.85 35.15 49.95 35.55 50.35 36.35 51 37 51.1 38.05 51.25 38.75 50.35 39.35 49.5 39.05 48.45 38.85 47.8 38.3 47.35 37.75 46.9 37.1 46.8 Z"/>
</g>

<g id="sharknight_sharknight_Arm_1_Layer0_0_FILL">
<path fill="#000000" stroke="none" d="
M 22.8 14.45
Q 21.9 13.55 21.1 12.85 20.05 11.85 19.35 11.35
L 13.8 8
Q 11.05 6.35 8.8 5.4
L 5.95 4.5
Q 5.1 3.65 4.4 3.3 3.4 2.8 2.25 3 1.1 3.25 0.6 4.15 0.05 5.15 0.55 7.2 1.55 11.35 2.3 13.4 3.5 16.75 5.25 19 7.4 21.85 10.8 23.4 10.8 23.45 10.8 23.5 10.85 23.6 10.85 23.65 11.15 24.5 12.4 25.85 13.7 27.05 14.5 27.5 15.15 27.8 15.9 27.95 16.55 28.05 17.25 28.1 18.25 28.15 19.05 28.1 19.35 28.15 19.7 28.15 20.8 28.25 21.45 27.95 22.55 27.55 23.55 25.4 24.25 24 24.45 23.2 24.65 22.25 24.55 20.95 24.55 19.15 24.3 18.3 24.2 17.9 23.95 17.55 24.15 16.85 24.35 16.2 24 15.7 23.5 15.2 23.2 14.85 22.8 14.45
M 21.25 17.75
Q 21.2 17.9 21.15 18.05 21 18.65 21.35 20.1 21.6380859375 21.4765625 21.5 22.25 21.4583984375 22.673046875 21.3 22.9 21.27421875 22.966796875 21.25 23 20.95 23.4 20.35 23.85 19.8 24.25 19.25 24.7 18.8 24.75 18.15 24.75 17.55 24.75 17.05 24.7 16 24.55 15.35 24.1 13.8 23 13.9 19.95 13.9666015625 18.2505859375 14.5 17.35 14.7998046875 16.9333984375 15.2 16.7 15.75 16.45 16.5 16.35 18.5 16.15 19.8 16.7 20.65 17.05 21.25 17.75
M 4.4 10.25
Q 3.9189453125 8.4271484375 3.8 6.5 4.3 6.6 4.85 7.1 5.15 7.35 5.8 7.85 6.35 8.2 7.05 8.15
L 7.1 8.15 14.4 12.2
Q 15.25 12.65 15.25 13.2 13.467578125 13.5439453125 12.15 15.15 11.3681640625 16.1578125 10.75 17.6 10.4 18.4 10.4 19.05 10.4 19.6 10.75 20.65 7.7 18 5.9 14.25 4.9302734375 12.3107421875 4.4 10.25 Z"/>

<path fill="#2F7078" stroke="none" d="
M 6.3 11.4
Q 5.290234375 10.751953125 4.4 10.25 4.9302734375 12.3107421875 5.9 14.25 7.7 18 10.75 20.65 10.4 19.6 10.4 19.05 10.4 18.4 10.75 17.6 11.3681640625 16.1578125 12.15 15.15
L 6.3 11.4
M 20.35 23.85
Q 20.95 23.4 21.25 23 21.27421875 22.966796875 21.3 22.9 21.4583984375 22.673046875 21.5 22.25 19.560546875 22.514453125 18.45 22.35 17.4 22.15 16.6 21.55 15.7 20.9 15.4 20 15.25 19.1 15.15 18.7 15 17.9 14.65 17.5 14.5888671875 17.4294921875 14.5 17.35 13.9666015625 18.2505859375 13.9 19.95 13.8 23 15.35 24.1 16 24.55 17.05 24.7 17.55 24.75 18.15 24.75 18.8 24.75 19.25 24.7 19.8 24.25 20.35 23.85 Z"/>

<path fill="#9ECFD5" stroke="none" d="
M 3.8 6.5
Q 3.9189453125 8.4271484375 4.4 10.25 5.290234375 10.751953125 6.3 11.4
L 12.15 15.15
Q 13.467578125 13.5439453125 15.25 13.2 15.25 12.65 14.4 12.2
L 7.1 8.15 7.05 8.15
Q 6.35 8.2 5.8 7.85 5.15 7.35 4.85 7.1 4.3 6.6 3.8 6.5
M 21.15 18.05
Q 21.2 17.9 21.25 17.75 20.65 17.05 19.8 16.7 18.5 16.15 16.5 16.35 15.75 16.45 15.2 16.7 14.7998046875 16.9333984375 14.5 17.35 14.5888671875 17.4294921875 14.65 17.5 15 17.9 15.15 18.7 15.25 19.1 15.4 20 15.7 20.9 16.6 21.55 17.4 22.15 18.45 22.35 19.560546875 22.514453125 21.5 22.25 21.6380859375 21.4765625 21.35 20.1 21 18.65 21.15 18.05 Z"/>
</g>

<g id="sharknight_sharknightsword_0_Layer0_0_FILL">
<path fill="#000000" stroke="none" d="
M 14.25 77.35
Q 14.05 75.3 13 74.7 12.3 74.3 10.7 74.4
L 5.65 74.8
Q 4.25 74.9 3.8 75.5 3.25 76.3 3.9 77.2 4.45 77.9 5.3 78.2 3.1 77.95 2 77.95 0.1 77.95 -0.9 78.8 -1.7 79.4 -2.05 80.45 -2.45 81.45 -2.2 82.45 -1.85 84.5 0.25 85.5 1.5 86.1 4.65 86 7.05 85.9 8.4 85.6 10.45 85.2 11.75 84.1 13.15 82.95 13.8 81.05 14.4 79.3 14.25 77.35
M 10.95 78.8
Q 11.05 79.55 10.9 79.95 10.7 80.55 9.55 81.05 5.55 82.85 2.8 82.35 1.7 82.15 1.45 81.55 1.8 81.5 2.2 81.1 2.75 80.6 2.9 80.5 3.35 80.25 4.45 80.2 4.9 80.1 5.8 79.6 6.5 79.25 6.85 78.9 7.3 78.35 7.55 78.15 8.55 77.25 11 77.65 10.9 78 10.95 78.8
M 16.85 -12.05
Q 14.35 -11.6 11 -10.2 -2.5 -4.4 -11.55 8.05 -20.6 20.5 -22 35.15 -22.85 43.95 -20.7 52.1 -17.3 64.85 -6.4 75.75 -4.9 77.25 -4.8 78.25 -3.05 74.9 -3.05 71.1 -3.1 69.8 -3.05 69.15 -3 68 -2.6 67.35 -1.9 66.2 -0.25 65.75 0.85 65.45 2.85 65.45 9.6 65.2 15.8 62.95 16.95 62.55 17.25 61.9 17.6 61.2 16.95 60.35 16.7578125 60.109765625 15.7 59.1 15.8599609375 59.2478515625 15.95 59.35 15.85234375 58.9623046875 15.65 58.5 15.2 57.6 15 57.1 14.6 56 14.5 54.15 13.9 46.3 13.95 38.9 14 34.05 14.35 27.85 14.65 23.65 14.95 21.55 16.8 7.2 24.85 -4.55 25.1595703125 -5.0283203125 25.4 -5.45 24.8994140625 -4.8912109375 24.4 -4.35 26.63671875 -6.898046875 29.25 -9.1 30.05 -9.8 29.95 -10.35 29.85 -10.95 28.7 -11.15 24.95 -11.9 22.8 -12.15 19.5 -12.5 16.85 -12.05
M 11.85 -8.1
Q 14.4 -9.45 16.6 -10 19.05 -10.6 24.1 -10.4
L 26.7 -10.3 29.05 -10.15
Q 25.75 -8.25 21.9 -3.3 18.38359375 1.1958984375 16.3 5.3 16.2642578125 5.454296875 16.2 5.55
L 15.85 6.35
Q 13.3 12.05 12.15 19.75 11.45 24.5 10.95 33.8
L 10.9 34.85
Q 10.316796875 45.401171875 10.65 51.35 11.05 57 13.05 59.6 10.3 60.95 5.4 61.25 -1.1 61.6 -2.55 61.9 -2.871875 61.978125 -3.15 62.05 -3.5833984375 62.2095703125 -3.95 62.35 -3.9513671875 62.3880859375 -4 62.4 -4.3734375 62.60390625 -4.65 62.85 -4.679296875 62.85625 -4.7 62.85 -4.730859375 62.8826171875 -4.75 62.9 -4.7791015625 62.9298828125 -4.8 62.95 -4.82890625 62.978515625 -4.85 63 -4.878125 63.0265625 -4.9 63.05 -5.8 63.95 -5.8 66.6
L -5.65 72.5
Q -7.65 70.6 -9.45 67.7 -10.55 65.9 -12.35 62.3 -15.6 55.85 -16.6 52.25 -17.7 48.05 -17.7 42.15 -17.65 30.55 -13.25 19.75 -8.75 8.75 -0.65 0.9 4.95 -4.55 11.85 -8.1 Z"/>

<path fill="#CCCCCC" stroke="none" d="
M 10.9 79.95
Q 11.05 79.55 10.95 78.8 10.9 78 11 77.65 8.55 77.25 7.55 78.15 7.3 78.35 6.85 78.9 6.5 79.25 5.8 79.6 4.9 80.1 4.45 80.2 3.35 80.25 2.9 80.5 2.75 80.6 2.2 81.1 1.8 81.5 1.45 81.55 1.7 82.15 2.8 82.35 5.55 82.85 9.55 81.05 10.7 80.55 10.9 79.95
M 10.8 35.9
Q 10.19921875 36.4353515625 9.55 36.95 -0.4349609375 44.7408203125 -7.3 50.9 -7.3033203125 50.4533203125 -7.35 49.95 -7.11953125 57.7365234375 -3.55 61.65 -3.4515625 61.7681640625 -3.15 62.05 -2.871875 61.978125 -2.55 61.9 -1.1 61.6 5.4 61.25 10.3 60.95 13.05 59.6 11.05 57 10.65 51.35 10.316796875 45.401171875 10.9 34.85 10.85625 35.4078125 10.8 35.9
M 29.05 -10.15
L 26.7 -10.3
Q 17.41875 -5.9927734375 9.2 3.9 3.8658203125 10.514453125 0.15 18 0.31484375 17.7689453125 0.45 17.5 4.066015625 14.56796875 9.1 10.75 12.05625 8.5384765625 16.3 5.3 18.38359375 1.1958984375 21.9 -3.3 25.75 -8.25 29.05 -10.15 Z"/>

<path fill="#FFFFFF" stroke="none" d="
M 16.2 5.55
Q 16.2642578125 5.454296875 16.3 5.3 12.05625 8.5384765625 9.1 10.75 4.066015625 14.56796875 0.45 17.5 0.31484375 17.7689453125 0.15 18
L -1.95 22.7
Q -2.243359375 23.49921875 -2.55 24.3 -6.9 35.6 -7.3 47.35 -7.3083984375 47.55703125 -7.35 47.75
L -7.35 49.95
Q -7.3033203125 50.4533203125 -7.3 50.9 -0.4349609375 44.7408203125 9.55 36.95 10.19921875 36.4353515625 10.8 35.9 10.85625 35.4078125 10.9 34.85
L 10.95 33.8
Q 11.45 24.5 12.15 19.75 13.3 12.05 15.85 6.35
L 16.2 5.55 Z"/>

<path fill="#0099FF" stroke="none" d="
M 16.6 -10
Q 14.4 -9.45 11.85 -8.1 4.95 -4.55 -0.65 0.9 -8.75 8.75 -13.25 19.75 -17.65 30.55 -17.7 42.15 -17.7 48.05 -16.6 52.25 -15.6 55.85 -12.35 62.3 -10.55 65.9 -9.45 67.7 -7.65 70.6 -5.65 72.5
L -5.8 66.6
Q -5.8 63.95 -4.9 63.05 -4.878125 63.0265625 -4.85 63 -4.82890625 62.978515625 -4.8 62.95 -4.7791015625 62.9298828125 -4.75 62.9 -4.730859375 62.8826171875 -4.7 62.85 -4.679296875 62.85625 -4.65 62.85 -4.3734375 62.60390625 -4 62.4 -3.9513671875 62.3880859375 -3.95 62.35 -3.5833984375 62.2095703125 -3.15 62.05 -3.4515625 61.7681640625 -3.55 61.65 -7.11953125 57.7365234375 -7.35 49.95
L -7.35 47.75
Q -7.3083984375 47.55703125 -7.3 47.35 -6.9 35.6 -2.55 24.3 -2.243359375 23.49921875 -1.95 22.7
L 0.15 18
Q 3.8658203125 10.514453125 9.2 3.9 17.41875 -5.9927734375 26.7 -10.3
L 24.1 -10.4
Q 19.05 -10.6 16.6 -10 Z"/>
</g>
</defs>

<g transform="matrix( 1.01605224609375, 0, 0, 1.01605224609375, 55.15,72.75) ">
<g transform="matrix( 1, 0, 0, 1, 0,0) ">
<use xlink:href="#sharknight_sharknight_22_Layer1_0_FILL"/>
</g>

<g transform="matrix( 1, 0, 0, 1, 1.4,-5.6) ">
<g transform="matrix( 0.9957733154296875, -0.0910797119140625, 0.0910797119140625, 0.9957733154296875, 131.9,117.75) ">
<g transform="matrix( 1, 0, 0, 1, 0,0) ">
<use xlink:href="#sharknight_sharknight_shield_0_Layer0_0_FILL"/>
</g>
</g>

<g transform="matrix( 0.5198822021484375, -0.8527069091796875, 0.8527069091796875, 0.5198822021484375, 58.75,183.8) ">
<g transform="matrix( 1, 0, 0, 1, 0,0) ">
<use xlink:href="#sharknight_sharknight_cape_4_Layer0_0_FILL"/>
</g>
</g>

<g transform="matrix( 0.8692474365234375, -0.494293212890625, 0.494293212890625, 0.8692474365234375, 115.5,147.9) ">
<g transform="matrix( 1, 0, 0, 1, 0,0) ">
<use xlink:href="#sharknight_sharknight_Arm_0_Layer0_0_FILL"/>
</g>
</g>

<g transform="matrix( 1, 0, -0.032928466796875, 0.97271728515625, 76.4,141.3) ">
<g transform="matrix( 1, 0, 0, 1, 0,0) ">
<use xlink:href="#sharknight_sharknight_body_0_Layer0_0_FILL"/>
</g>
</g>

<g transform="matrix( 1, 0, -0.032928466796875, 0.97271728515625, 80.9,140.7) ">
<g transform="matrix( 1, 0, 0, 1, 0,0) ">
<use xlink:href="#sharknight_sharknight_chest_armor_0_Layer0_0_FILL"/>
</g>
</g>

<g transform="matrix( 0.99969482421875, 0.02362060546875, -0.02362060546875, 0.99969482421875, 68.45,115.8) ">
<g transform="matrix( 1, 0, 0, 1, 0,0) ">
<use xlink:href="#sharknight_sharknight_head_bottom_0_Layer0_0_FILL"/>
</g>
</g>

<g transform="matrix( 0.99969482421875, 0.02362060546875, -0.02362060546875, 0.99969482421875, 67.9,7.25) ">
<g transform="matrix( 1, 0, 0, 1, 0,0) ">
<use xlink:href="#sharknight_sharknight_head_top_0_Layer0_0_FILL"/>
</g>
</g>

<g transform="matrix( 0.30615234375, 0.951690673828125, 0.951690673828125, -0.30615234375, 77.2,154.5) ">
<g transform="matrix( 1, 0, 0, 1, 0,0) ">
<use xlink:href="#sharknight_sharknight_Arm_1_Layer0_0_FILL"/>
</g>
</g>

<g transform="matrix( 0.3399658203125, -0.932220458984375, -0.9380340576171875, -0.34210205078125, 166.4,199.75) ">
<g transform="matrix( 1, 0, 0, 1, 0,0) ">
<use xlink:href="#sharknight_sharknightsword_0_Layer0_0_FILL"/>
</g>
</g>
</g>
</g>
</svg>
