
<svg xmlns="http://www.w3.org/2000/svg" version="1.1" xmlns:xlink="http://www.w3.org/1999/xlink" preserveAspectRatio="none" x="0px" y="0px" width="300px" height="300px" viewBox="0 0 300 300">
<defs>
<g id="sharknight_sharknight_34_Layer1_0_FILL">
<path fill="#000000" stroke="none" d="
M 68.85 121
Q 60.35 121.25 53.45 123.7 51 124.5 49.95 125.65 49.3 126.6 49.15 127.65 49.15 128.75 49.75 129.45 50.6 130.1 51 130.35 51.6 130.95 51.6 131.55 47.8 131.7 44.45 133.45 40.8 135.3 38.95 138.5 37.15 141.85 38 145.75 38.95 149.75 42.25 151.45 43 151.85 44.5 152.25 45.95 152.7 46.55 153.05 49.15 154.25 49.5 156.35 49.7 157.45 48.9 158.85 48.45 159.7 47.4 161.2 46.1 163.4 45.75 165.95 45.45 168.5 46.35 170.85 47.1 173.2 49 175.1 50.75 177 53.1 177.85 55.05 178.65 59.4 179.5 63 180.45 64.25 182.65 64.5 182.9 65.15 184.3 65.75 185.45 66.2 185.85 67.3 187 70.1 187.2 94.3 189.05 116.95 179.85 122.9 177.4 125.2 174.6 125.8 173.75 126.85 172.4 127.85 171 128.95 170.5 130.45 169.7 133 170.1 137 170.7 137.25 170.65 139.4 170.65 141.4 169.4 143.45 168.15 144.4 166.15 145.35 164.15 145.05 161.75 144.6 159.45 143.1 157.8 141.7 156.25 141.6 155.65 141.35 154.55 142.85 152.55 145.6 148.9 146.4 146.15 147.6 141.95 145.2 139.2 144.15 137.8 140.85 136.1 137.7 134.45 136.55 133 135.2 130.8 134.35 129.85 133.2 128.65 130 127.85 126.85 126.85 125.3 127.95 124.55 128.45 123.6 130.25 122.75 132.05 121.95 132.6 120.2 133.9 116.2 131.6 110.95 128.3 103.35 126.05 95.1 123.45 84.75 122.05 75.7 120.75 68.85 121 Z"/>
</g>

<g id="sharknight_sharknight_shield_0_Layer0_0_FILL">
<path fill="#000000" stroke="none" d="
M -0.8 -16.6
Q -2.85 -16 -4.5 -14.5 -6.15 -13.1 -6.95 -11.2 -7.65 -9.55 -8.5 -5.95 -9.45 -3 -11.3 -2 -11.55 -1.8 -12.75 -1.3 -13.7 -0.85 -14.1 -0.45 -15.05 0.4 -15.3 2.75 -17.6 22.85 -10.5 41.95 -8.6 47 -6.25 49 -5.6 49.5 -4.45 50.45 -3.3 51.3 -2.9 52.25 -2.3 53.5 -2.7 55.65 -3.3 58.95 -3.3 59.15 -3.35 60.95 -2.35 62.65 -1.35 64.4 0.3 65.25 2 66.1 4 65.9 5.95 65.6 7.4 64.4 8.75 63.3 9.25 63.25 10.2 63.05 11.85 64.35 14.85 66.75 17.15 67.5 20.7 68.6 23.05 66.7 24.3 65.85 25.8 63.15 27.3 60.55 28.55 59.65 30.45 58.6 31.25 57.9 32.3 57 33.1 54.35 34 51.75 33.15 50.45 32.75 49.8 31.25 48.95 29.75 48.2 29.3 47.5 28.25 46 30.35 42.75 33.25 38.45 35.4 32.2 37.8 25.4 39.3 16.8 40.65 9.3 40.65 3.6 40.7 -3.5 38.85 -9.3 38.2 -11.4 37.25 -12.3 36.5 -12.85 35.6 -13 34.7 -13.05 34.05 -12.55 33.5 -11.9 33.25 -11.55 32.75 -11.05 32.25 -11.1 32.25 -14.25 30.85 -17.1 29.4 -20.2 26.75 -21.8 23.95 -23.45 20.65 -22.8 17.2 -22.15 15.7 -19.45 15.35 -18.85 14.95 -17.6 14.5 -16.4 14.2 -15.9 13.1 -13.75 11.35 -13.55 10.4 -13.45 9.25 -14.1 8.55 -14.5 7.3 -15.45 5.5 -16.6 3.35 -16.95 1.2 -17.25 -0.8 -16.6
M -8.15 -0.15
Q -8.15 -0.2 -8.1 -0.25 -7.05 -1.55 -6.35 -3.45 -5.45 -6.3 -5 -7.7 -4.2 -10.2 -2.9 -11.75 -1.35 -13.65 0.65 -13.8 2.7 -13.95 6.35 -11.55 9.6 -9.5 11.65 -9.6 11.65 -8.7 11.65 -6.25 11.65 -4 11.85 -2.65 12.05 -1.45 12.65 1.1 14.65 9.9 14.5 18.1 14.45 21.95 13.6 29.7
L 13 34.8
Q 12.9 36.5 13.5 37.1 14.85 33.05 15.7 29 16.4 25.2 16.65 22.55
L 17.6 8.55
Q 17.8 4.25 17.8 3.25 17.75 2.45 17.8 1.15 17.65 -0.15 17.55 -1.8
L 17 -7.85
Q 16.75 -11.4 16.3 -13.6 16.5 -14 16.7 -14.4 19.2 -18.7 21.15 -19.5 22.45 -20.05 23.95 -19.7 25.35 -19.3 26.5 -18.4 28.35 -16.75 28.95 -14 29 -13.75 29.05 -13.45 29.5 -10.4 29.55 -10.1 29.9 -8.95 30.6 -8.35 30 -1.4 28.2 11.95 28.55 12.55 29.3 12.05 30 11.5 30.25 10.65 32.65 1.4 33.85 -7.95 34.4 -8.2 35.15 -8.6 36.15 7.65 32.5 23.85 31.4 28.45 29.85 33.6 28 39.65 25.95 43.5
L 26 43.5
Q 25.75 43.8 25.65 44.1
L 25.1 44.85
Q 23.65 47.05 21.35 49.65 20.5 50.65 17.1 54.15 16.45 54.9 16.2 55.6 15.9 56.55 16.5 56.95 17.25 57.5 18.6 56.55 22.25 53.9 25.25 49.85
L 26.25 50.45 29.5 52.75
Q 29.65 53.85 28.65 54.65 27.85 55.4 26.55 55.65 25.05 55.95 24.3 56.15 23.15 56.5 22.45 57.25 21.7 57.95 21.7 59.1 21.65 60.2 22.2 61.05 21.85 62.15 20.65 62.65 20.45 62.7 20.25 62.8 18.75 63.2 17.3 62.65 16.2 62.25 14.85 61.15 13.45 59.85 12.65 59.25 11.4 58.3 10 58 8.45 57.65 7.3 58.35 6.75 58.65 6.2 59.25 5.8 59.65 5.15 60.4 3.8 61.75 2.5 61.25 1.25 60.65 1.25 58.6 1.3 58 1.95 54.3 2.45 51.75 1.9 50.2 1.6 49.35 0.6 48.3 -0.75 46.7 -0.85 46.5 -2.1 44.9 -3.45 41.25
L -6.25 32.95
Q -8.2 27.4 -8.85 24.7 -9.3 22.55 -9.95 18
L -11.4 6.1
Q -11.65 3.7 -11.1 2.6 -10.7 1.95 -9.95 1.3 -9.05 0.7 -8.65 0.25 -8.6 0.2 -8.55 0.15
L -8.15 -0.15 Z"/>

<path fill="#F6D4B2" stroke="none" d="
M 26.55 55.65
Q 27.85 55.4 28.65 54.65 29.65 53.85 29.5 52.75
L 26.25 50.45
Q 25.6 50.95 24.95 51.55 24.35 53.55 22.25 55.15 20.85 56.25 18.1 57.6 19.45 60.75 20.65 62.65 21.85 62.15 22.2 61.05 21.65 60.2 21.7 59.1 21.7 57.95 22.45 57.25 23.15 56.5 24.3 56.15 25.05 55.95 26.55 55.65
M 6.3 -8.35
Q 6.2 -8.15 6.15 -7.9 4.9 -4.3 4.3 0.45 3.9 3.1 3.5 9 3 15.8 3.1 19.9 3.45 28.95 6.85 37.6 9.65 44.35 14.05 50.05 14.75 49.8 16.25 48.95
L 24.75 44.15
Q 25.35 43.8 25.95 43.5 28 39.65 29.85 33.6 31.4 28.45 32.5 23.85 36.15 7.65 35.15 -8.6 34.4 -8.2 33.85 -7.95 32.65 1.4 30.25 10.65 30 11.5 29.3 12.05 28.55 12.55 28.2 11.95 30 -1.4 30.6 -8.35 29.9 -8.95 29.55 -10.1 29.5 -10.4 29.05 -13.45 29 -13.75 28.95 -14 26.65 -12.4 24.9 -9.6 23.05 -6.5 21.35 -1.25 19.15 4.95 18.85 8.9 18.75 10.1 18.6 10.55 18.4 11.25 18.05 11.7
L 17.85 18.3
Q 17.8 21.25 17.65 22.95 17.05 30.55 14.15 37.75 13 40.4 12.8 41.2 12.4 42.45 12.05 42.85 11.75 43.15 11.25 43.25 10.75 43.25 10.55 43 11.7 38.3 12.15 33.4 12.7 28.4 12.2 24.65 11.95 23.6 11.4 20.9 10.95 18.5 10.75 17.15 10.55 15.65 10.45 13.35 10.4 10.9 10.35 9.6 9.9 0.15 6.3 -8.35 Z"/>

<path fill="#D5985A" stroke="none" d="
M -8.1 -0.25
Q -8.15 -0.2 -8.15 -0.15
L -8.55 0.15
Q -8.6 0.2 -8.65 0.25 -9.05 0.7 -9.95 1.3 -10.7 1.95 -11.1 2.6 -11.65 3.7 -11.4 6.1
L -9.95 18
Q -9.3 22.55 -8.85 24.7 -8.2 27.4 -6.25 32.95
L -3.45 41.25
Q -2.1 44.9 -0.85 46.5 -0.75 46.7 0.6 48.3 1.6 49.35 1.9 50.2 2.45 51.75 1.95 54.3 1.3 58 1.25 58.6 1.25 60.65 2.5 61.25 3.8 61.75 5.15 60.4 5.8 59.65 6.2 59.25 6.75 58.65 7.3 58.35 8.45 57.65 10 58 11.4 58.3 12.65 59.25 13.45 59.85 14.85 61.15 16.2 62.25 17.3 62.65 18.75 63.2 20.25 62.8 20.45 62.7 20.65 62.65 19.45 60.75 18.1 57.6 20.85 56.25 22.25 55.15 24.35 53.55 24.95 51.55 25.6 50.95 26.25 50.45
L 25.25 49.85
Q 22.25 53.9 18.6 56.55 17.25 57.5 16.5 56.95 15.9 56.55 16.2 55.6 16.45 54.9 17.1 54.15 20.5 50.65 21.35 49.65 23.65 47.05 25.1 44.85
L 25.65 44.1
Q 25.75 43.8 26 43.5
L 25.95 43.5
Q 25.35 43.8 24.75 44.15
L 16.25 48.95
Q 14.75 49.8 14.05 50.05 9.65 44.35 6.85 37.6 3.45 28.95 3.1 19.9 3 15.8 3.5 9 3.9 3.1 4.3 0.45 4.9 -4.3 6.15 -7.9 6.2 -8.15 6.3 -8.35 9.9 0.15 10.35 9.6 10.4 10.9 10.45 13.35 10.55 15.65 10.75 17.15 10.95 18.5 11.4 20.9 11.95 23.6 12.2 24.65 12.7 28.4 12.15 33.4 11.7 38.3 10.55 43 10.75 43.25 11.25 43.25 11.75 43.15 12.05 42.85 12.4 42.45 12.8 41.2 13 40.4 14.15 37.75 17.05 30.55 17.65 22.95 17.8 21.25 17.85 18.3
L 18.05 11.7
Q 18.4 11.25 18.6 10.55 18.75 10.1 18.85 8.9 19.15 4.95 21.35 -1.25 23.05 -6.5 24.9 -9.6 26.65 -12.4 28.95 -14 28.35 -16.75 26.5 -18.4 25.35 -19.3 23.95 -19.7 22.45 -20.05 21.15 -19.5 19.2 -18.7 16.7 -14.4 16.5 -14 16.3 -13.6 16.75 -11.4 17 -7.85
L 17.55 -1.8
Q 17.65 -0.15 17.8 1.15 17.75 2.45 17.8 3.25 17.8 4.25 17.6 8.55
L 16.65 22.55
Q 16.4 25.2 15.7 29 14.85 33.05 13.5 37.1 12.9 36.5 13 34.8
L 13.6 29.7
Q 14.45 21.95 14.5 18.1 14.65 9.9 12.65 1.1 12.05 -1.45 11.85 -2.65 11.65 -4 11.65 -6.25 11.65 -8.7 11.65 -9.6 9.6 -9.5 6.35 -11.55 2.7 -13.95 0.65 -13.8 -1.35 -13.65 -2.9 -11.75 -4.2 -10.2 -5 -7.7 -5.45 -6.3 -6.35 -3.45 -7.05 -1.55 -8.1 -0.25 Z"/>
</g>
</defs>

<g transform="matrix( 1.01605224609375, 0, 0, 1.01605224609375, 55.15,72.75) ">
<g transform="matrix( 1, 0, 0, 1, 0,0) ">
<use xlink:href="#sharknight_sharknight_34_Layer1_0_FILL"/>
</g>

<g transform="matrix( -0.0342864990234375, -0.9993743896484375, 0.9993743896484375, -0.0342864990234375, 74.65,166.15) ">
<g transform="matrix( 1, 0, 0, 1, 0,0) ">
<use xlink:href="#sharknight_sharknight_shield_0_Layer0_0_FILL"/>
</g>
</g>
</g>
</svg>
