
<svg xmlns="http://www.w3.org/2000/svg" version="1.1" xmlns:xlink="http://www.w3.org/1999/xlink" preserveAspectRatio="none" x="0px" y="0px" width="150px" height="300px" viewBox="0 0 150 300">
<defs>
<g id="Duplicate_Items_Folder_Hero_Undead_Gravestone_copy_9_Layer0_0_FILL">
<path fill="#9933FF" stroke="none" d="
M 130.6 -209.8
L 129.2 -215.15 128.1 -215.3 130.6 -209.8 Z"/>

<path fill="#EF66FF" stroke="none" d="
M 129.85 -258.15
L 137.15 -252.75 136.15 -235.3
Q 135.35 -234.9 134.6 -234.45 123.15 -227.8 128.1 -215.3
L 129.2 -215.15 141.7 -217.1
Q 149.95 -220.85 155.9 -227.6 162.05 -234.7 158.25 -241.05 122.2 -301.85 90.55 -238.8 90.55 -230.3 95.4 -224.3 100.3 -218.3 107.2 -218.3 102.8 -247.3 129.85 -258.15 Z"/>

<path fill="#FFFFFF" stroke="none" d="
M 163.9 -204.25
L 163.95 -204.3
Q 145.75 -196.05 130.6 -209.8
L 128.1 -215.3
Q 123.15 -227.8 134.6 -234.45 135.35 -234.9 136.15 -235.3
L 137.15 -252.75 129.85 -258.15
Q 102.8 -247.3 107.2 -218.3 126.2 -177.7 163.9 -204.25 Z"/>

<path fill="#DC30FC" stroke="none" d="
M 163.95 -204.3
L 163.9 -204.25
Q 126.2 -177.7 107.2 -218.3 100.3 -218.3 95.4 -224.3 90.55 -230.3 90.55 -238.8 81.4 -206 109.1 -187.35 125.85 -175.95 142.75 -184.9 219.4 -225.25 161.1 -288.8 161.95 -287.3 162.85 -285.8 200 -222.95 141.7 -217.1
L 129.2 -215.15 130.6 -209.8
Q 145.75 -196.05 163.95 -204.3 Z"/>
</g>
</defs>

<g transform="matrix( 0.4565277099609375, 0, 0, 0.4565277099609375, 14.5,168.65) ">
<g transform="matrix( 1, 0, 0, 1, 0,0) ">
<use xlink:href="#Duplicate_Items_Folder_Hero_Undead_Gravestone_copy_9_Layer0_0_FILL"/>
</g>
</g>
</svg>
