
<svg xmlns="http://www.w3.org/2000/svg" version="1.1" xmlns:xlink="http://www.w3.org/1999/xlink" preserveAspectRatio="none" x="0px" y="0px" width="150px" height="300px" viewBox="0 0 150 300">
<defs>
<g id="Duplicate_Items_Folder_Hero_Undead_Gravestone_copy_1_Layer2_0_FILL">
<path fill="#FFFFFF" fill-opacity="0.5686274509803921" stroke="none" d="
M 254.2 194.1
L 255.25 194.1
Q 262.25 174.1 262.25 151.25 262.25 98.1 224.45 60.4 186.75 22.7 133.4 22.7 80.1 22.7 42.3 60.4 4.6 98.1 4.6 151.25 4.6 174.1 11.55 194.1
L 12.65 194.1
Q 22.1 208.15 42.3 219.5 80.1 240.75 133.4 240.75 186.75 240.75 224.45 219.5 244.75 208.15 254.2 194.1 Z"/>
</g>

<g id="Duplicate_Items_Folder_Hero_Undead_Gravestone_copy_1_Layer1_0_FILL">
<path fill="#FFFFFF" stroke="none" d="
M 68.15 110.65
Q 73 105.25 79.35 101.75 116.6 81.35 155.05 97.35 236.65 131.1 205 217.5 210.958984375 216.0263671875 215.2 211.8 237.7236328125 153.7365234375 198.6 107 155.75 55.75 90.5 78.1 73.2 84 60.5 97.25 40.15 137.6 42 182.25 42.2330078125 187.9923828125 42.45 193.55 46.566796875 201.9560546875 52.35 210.65 53.8 203.3 52.75 194.55 47.35 150.8 68.15 110.65 Z"/>

<path fill="#EF66FF" stroke="none" d="
M 241.1 181.65
Q 266.1 78.15 164.85 47.6 106.05 29.8 61.15 71.15 -11.15 137.75 43 208.4 42.740625 201.13984375 42.45 193.55 42.2330078125 187.9923828125 42 182.25 40.15 137.6 60.5 97.25 73.2 84 90.5 78.1 155.75 55.75 198.6 107 237.7236328125 153.7365234375 215.2 211.8 214.386328125 213.9927734375 213.45 216.2 235.15 206.35 241.1 181.65 Z"/>
</g>

<g id="Duplicate_Items_Folder_Hero_Undead_Gravestone_copy_1_Layer0_0_FILL">
<path fill="#9933FF" stroke="none" d="
M 110.25 190.35
Q 111.9 191.1 113.65 191.4 172.5 203.3 174.6 136.25
L 148.65 169.65 151.55 184.1 121.75 184 122 169.35 106.4 151.25
Q 113.4 170.35 110.25 190.35 Z"/>

<path fill="#DC30FC" stroke="none" d="
M 111.3 119.4
L 96.1 110.2 106.4 151.25 122 169.35 111.3 119.4
M 174.6 136.25
L 177.45 109.4 160 117.8 148.65 169.65 174.6 136.25 Z"/>

<path fill="#FFFFFF" stroke="none" d="
M 152.25 85.3
Q 144.9 72.35 134.85 72.95 124.8 73.6 117.9 87.45 111 101.3 111.3 119.4
L 122 169.35 121.75 184 151.55 184.1 148.65 169.65 160 117.8
Q 159.65 98.3 152.25 85.3 Z"/>

<path fill="#EF66FF" stroke="none" d="
M 177.45 109.4
Q 177.35 87.25 165.25 71.8 153.2 56.35 136.35 56.55 119.55 56.8 107.7 72.6 95.9 88.4 96.1 110.2
L 111.3 119.4
Q 111 101.3 117.9 87.45 124.8 73.6 134.85 72.95 144.9 72.35 152.25 85.3 159.65 98.3 160 117.8
L 177.45 109.4 Z"/>
</g>
</defs>

<g transform="matrix( 0.4565277099609375, 0, 0, 0.4565277099609375, 14.5,168.65) ">
<g transform="matrix( 1, 0, 0, 1, 0,0) ">
<use xlink:href="#Duplicate_Items_Folder_Hero_Undead_Gravestone_copy_1_Layer2_0_FILL"/>
</g>

<g transform="matrix( 1, 0, 0, 1, 0,0) ">
<use xlink:href="#Duplicate_Items_Folder_Hero_Undead_Gravestone_copy_1_Layer1_0_FILL"/>
</g>

<g transform="matrix( 1, 0, 0, 1, 0,0) ">
<use xlink:href="#Duplicate_Items_Folder_Hero_Undead_Gravestone_copy_1_Layer0_0_FILL"/>
</g>
</g>
</svg>
