
<svg xmlns="http://www.w3.org/2000/svg" version="1.1" xmlns:xlink="http://www.w3.org/1999/xlink" preserveAspectRatio="none" x="0px" y="0px" width="150px" height="300px" viewBox="0 0 150 300">
<defs>
<g id="Duplicate_Items_Folder_Hero_Undead_Gravestone_copy_2_Layer2_0_FILL">
<path fill="#FFFFFF" fill-opacity="0.4" stroke="none" d="
M 266.5 192.75
L 267.65 192.75
Q 275.4 171.35 275.4 146.95 275.4 90.2 233.6 49.9 191.95 9.65 132.95 9.65 74 9.65 32.2 49.9 -9.45 90.2 -9.45 146.95 -9.45 171.35 -1.8 192.75
L -0.55 192.75
Q 9.9 207.75 32.2 219.85 74 242.55 132.95 242.55 191.95 242.55 233.6 219.85 256.05 207.75 266.5 192.75 Z"/>
</g>

<g id="Duplicate_Items_Folder_Hero_Undead_Gravestone_copy_2_Layer1_0_FILL">
<path fill="#EF66FF" stroke="none" d="
M 31.6 187.05
Q 30.3693359375 180.6115234375 29.55 174.5 26.73203125 152.798046875 29.3 135.2 35.7009765625 91.6880859375 75.25 73.3 95.7421875 63.8205078125 125.1 61.05 152.85 58.15 176 72.25 251.1296875 117.9791015625 228.1 198 225.669140625 206.433203125 222.15 215.25 230.35 209.75 235.05 200.9 281.65 112.6 199.45 55.45 144.85 17.55 85.45 48.15 -22.7 103.75 34.65 209.4
L 37.85 208.4
Q 33.7 198.05 31.6 187.05 Z"/>

<path fill="#FFFFFF" stroke="none" d="
M 98.65 83.9
Q 128.8 71.9 158.75 83.8 247.2 118.9 212.7 215.9 222.4591796875 208.959375 228.1 198 251.1296875 117.9791015625 176 72.25 152.85 58.15 125.1 61.05 95.7421875 63.8205078125 75.25 73.3 69.7779296875 77.398828125 64.45 82.35 36.56484375 108.290234375 29.3 135.2 26.73203125 152.798046875 29.55 174.5 34.474609375 192.296484375 47.95 210.5 11.65 118.55 98.65 83.9 Z"/>
</g>

<g id="Duplicate_Items_Folder_Hero_Undead_Gravestone_copy_2_Layer0_0_FILL">
<path fill="#9933FF" stroke="none" d="
M 150.1 192.95
Q 150.4 192.65 150.55 192.3 174.8 134.4 172.35 70.4
L 150.7 117.35 154.3 179.25
Q 143.95 185.35 132.25 183.15 130.7 182.85 129.15 182.55
L 122.2 123.25 93.2 65.05 118.95 191.25
Q 126.05 194.35 133.55 195.05 139.2 195.55 144.75 194.55 147.7 194.3 150.1 192.95 Z"/>

<path fill="#DC30FC" stroke="none" d="
M 107 50.6
L 90.4 43.8 93.2 65.05 122.2 123.25 107 50.6
M 172.35 70.4
L 175.55 43.65 158.05 47.6 150.7 117.35 172.35 70.4 Z"/>

<path fill="#EF66FF" stroke="none" d="
M 126.35 -31.45
Q 126.6 -31.5 126.85 -31.45 176.55 -9.45 158.05 47.6
L 175.55 43.65
Q 185.7 2.25 163.45 -33.95 158.95 -41.2 152.45 -41.05 77.7 -39.55 90.4 43.8
L 107 50.6
Q 99.6 5.45 126.35 -31.45 Z"/>

<path fill="#FFFFFF" stroke="none" d="
M 126.85 -31.45
Q 126.6 -31.5 126.35 -31.45 99.6 5.45 107 50.6
L 122.2 123.25 129.15 182.55
Q 130.7 182.85 132.25 183.15 143.95 185.35 154.3 179.25
L 150.7 117.35 158.05 47.6
Q 176.55 -9.45 126.85 -31.45 Z"/>
</g>
</defs>

<g transform="matrix( 0.4565277099609375, 0, 0, 0.4565277099609375, 14.5,168.65) ">
<g transform="matrix( 1, 0, 0, 1, 0,0) ">
<use xlink:href="#Duplicate_Items_Folder_Hero_Undead_Gravestone_copy_2_Layer2_0_FILL"/>
</g>

<g transform="matrix( 1, 0, 0, 1, 0,0) ">
<use xlink:href="#Duplicate_Items_Folder_Hero_Undead_Gravestone_copy_2_Layer1_0_FILL"/>
</g>

<g transform="matrix( 1, 0, 0, 1, 0,0) ">
<use xlink:href="#Duplicate_Items_Folder_Hero_Undead_Gravestone_copy_2_Layer0_0_FILL"/>
</g>
</g>
</svg>
