
<svg xmlns="http://www.w3.org/2000/svg" version="1.1" xmlns:xlink="http://www.w3.org/1999/xlink" preserveAspectRatio="none" x="0px" y="0px" width="150px" height="300px" viewBox="0 0 150 300">
<defs>
<g id="Duplicate_Items_Folder_Hero_Undead_Gravestone_copy_6_Layer0_0_FILL">
<path fill="#DC30FC" stroke="none" d="
M 182.2 -238.7
Q 197.05 -226.9 203.3 -208.95 216.3 -201.45 221.4 -187.3 221.6 -186.75 221.8 -186.2 221 -225.95 188.55 -247.85 138.9 -281.3 103.6 -237.3 33.4 -149.95 85.65 -48.35 83.75 -68.8 80.6 -89 67.2 -174.65 137.5 -201.25
L 149.35 -209.5
Q 80.65 -216.55 75.75 -134.3 74.6 -115.4 76.2 -96.35 44.4 -214 152.2 -245.1 168.25 -249.75 182.2 -238.7 Z"/>

<path fill="#EF66FF" stroke="none" d="
M 203.3 -208.95
Q 203.65 -207.4 203.65 -205.85 203.4 -135.5 145.8 -160.35 145.85 -160.6 145.95 -160.8 156.5 -184.55 149.35 -209.5
L 137.5 -201.25 140.85 -197.15
Q 138.3 -195.05 136.1 -192.5 120.4 -174.1 137.7 -159.7 195.65 -111.35 221.8 -186.2 221.6 -186.75 221.4 -187.3 216.3 -201.45 203.3 -208.95 Z"/>

<path fill="#FFFFFF" stroke="none" d="
M 203.65 -205.85
Q 203.65 -207.4 203.3 -208.95 197.05 -226.9 182.2 -238.7 168.25 -249.75 152.2 -245.1 44.4 -214 76.2 -96.35 74.6 -115.4 75.75 -134.3 80.65 -216.55 149.35 -209.5 156.5 -184.55 145.95 -160.8 145.85 -160.6 145.8 -160.35 203.4 -135.5 203.65 -205.85 Z"/>
</g>
</defs>

<g transform="matrix( 0.4565277099609375, 0, 0, 0.4565277099609375, 14.5,168.65) ">
<g transform="matrix( 1, 0, 0, 1, 0,0) ">
<use xlink:href="#Duplicate_Items_Folder_Hero_Undead_Gravestone_copy_6_Layer0_0_FILL"/>
</g>
</g>
</svg>
