
<svg xmlns="http://www.w3.org/2000/svg" version="1.1" xmlns:xlink="http://www.w3.org/1999/xlink" preserveAspectRatio="none" x="0px" y="0px" width="150px" height="300px" viewBox="0 0 150 300">
<defs>
<g id="Duplicate_Items_Folder_Hero_Undead_Gravestone_copy_7_Layer0_0_FILL">
<path fill="#DC30FC" stroke="none" d="
M 175.2 -227.05
Q 174.35 -231.65 170.7 -233.15 91.95 -264.55 71.1 -173.55 68.4 -237.6 125.25 -258.75 206.25 -289.15 201.4 -205.95 209.6 -195.2 208.6 -181.8 208.55 -181.4 208.6 -180.95 231.4 -228 195.3 -264 179.1 -280.15 157.75 -275.3 50.75 -251.55 70.7 -140.75
L 70.7 -146.55 71.6 -138.75
Q 72.3 -143.3 72.6 -147.85 78.65 -236.15 157.6 -232.2
L 172.1 -228.55 175.2 -227.05
M 175.25 -226.8
L 175.2 -226.95 175.2 -226.8 175.25 -226.8 Z"/>

<path fill="#EF66FF" stroke="none" d="
M 175.25 -225.95
L 175.2 -226.8 172.1 -228.55 157.6 -232.2 162.3 -224.55
Q 141.85 -226.1 128.5 -211.1 116 -197.05 124.75 -181.85 163.5 -114.6 208.6 -180.95 208.55 -181.4 208.6 -181.8 209.6 -195.2 201.4 -205.95 200.8 -198.85 198.65 -192.05 192.95 -173.8 175.6 -170.8 115.7 -160.75 144.3 -209.1 145.85 -208.75 147.4 -208.4 169.15 -204.8 175.25 -225.95 Z"/>

<path fill="#9933FF" stroke="none" d="
M 175.25 -226.8
L 175.2 -226.8 175.25 -225.95 175.25 -226.8
M 175.2 -226.8
L 175.2 -226.95 175.2 -227.05 172.1 -228.55 175.2 -226.8 Z"/>

<path fill="#FFFFFF" stroke="none" d="
M 175.2 -226.95
L 175.25 -226.8 175.25 -225.95
Q 169.15 -204.8 147.4 -208.4 145.85 -208.75 144.3 -209.1 115.7 -160.75 175.6 -170.8 192.95 -173.8 198.65 -192.05 200.8 -198.85 201.4 -205.95 206.25 -289.15 125.25 -258.75 68.4 -237.6 71.1 -173.55 91.95 -264.55 170.7 -233.15 174.35 -231.65 175.2 -227.05
L 175.2 -226.95 Z"/>
</g>
</defs>

<g transform="matrix( 0.4565277099609375, 0, 0, 0.4565277099609375, 14.5,168.65) ">
<g transform="matrix( 1, 0, 0, 1, 0,0) ">
<use xlink:href="#Duplicate_Items_Folder_Hero_Undead_Gravestone_copy_7_Layer0_0_FILL"/>
</g>
</g>
</svg>
