
<svg xmlns="http://www.w3.org/2000/svg" version="1.1" xmlns:xlink="http://www.w3.org/1999/xlink" preserveAspectRatio="none" x="0px" y="0px" width="150px" height="300px" viewBox="0 0 150 300">
<defs>
<g id="Duplicate_Items_Folder_Hero_Undead_Gravestone_copy_0_Layer2_0_FILL">
<path fill="#FFFFFF" fill-opacity="0.8274509803921568" stroke="none" d="
M 204.35 195.75
L 204.95 195.75
Q 209.2 184.508984375 209.2 171.65 209.2 141.75 186.4 120.55 163.65 99.35 131.45 99.35 99.25 99.35 76.45 120.55 53.7 141.75 53.7 171.65 53.7 184.508984375 57.9 195.75
L 58.55 195.75
Q 64.23203125 203.634375 76.45 210.05 99.25 222 131.45 222 163.65 222 186.4 210.05 198.6650390625 203.634375 204.35 195.75 Z"/>
</g>

<g id="Duplicate_Items_Folder_Hero_Undead_Gravestone_copy_0_Layer1_0_FILL">
<path fill="#FFFFFF" stroke="none" d="
M 71.55 111.5
Q 49.4556640625 150.508203125 55.05 193.25 57.4134765625 200.42578125 60.7 208
L 65.25 207.35
Q 64.9 204.2 64.4 200.85 58.35 160.15 78.1 123.45 97.9 105.35 125.05 107.85 223.05 117.45 193.95 213.95 199.8140625 207.735546875 204.35 201.55 227.53671875 114.13515625 135.45 96.35 100.05 89.7 71.55 111.5 Z"/>

<path fill="#EF66FF" stroke="none" d="
M 218 195.2
Q 252.65 123.05 183.25 80.3 125.65 44.75 74.7 89.2 10.15 145.55 56.9 205.25 57.05 204.8 56.95 204.4 55.7654296875 198.8087890625 55.05 193.25 49.4556640625 150.508203125 71.55 111.5 100.05 89.7 135.45 96.35 227.53671875 114.13515625 204.35 201.55 202.951953125 206.8150390625 201.15 212.3 212.4 206.85 218 195.2 Z"/>
</g>

<g id="Duplicate_Items_Folder_Hero_Undead_Gravestone_copy_0_Layer0_0_FILL">
<path fill="#FFFFFF" stroke="none" d="
M 148.1 178.95
Q 152.6 171.75 152.25 162.5 151.85 162.1 151.4 161.75 134.7 149.05 120.2 164.1 120.6 174.2 125.5 180.65 130.45 187.15 137.05 186.65 143.65 186.15 148.1 178.95 Z"/>

<path fill="#EF66FF" stroke="none" d="
M 107.15 150.8
L 120.2 164.1
Q 134.7 149.05 151.4 161.75 151.85 162.1 152.25 162.5
L 162.8 152.25
Q 162.2 151.55 161.5 150.9 133.9 126.15 107.15 150.8 Z"/>

<path fill="#9933FF" stroke="none" d="
M 102.05 171.25
Q 102.1 173.2 103.1 174.25 141.8 216.5 169.65 169.2 139.55 206 104.9 174.2 103.4 172.8 102.05 171.25 Z"/>

<path fill="#DC30FC" stroke="none" d="
M 169.65 169.2
L 162.8 152.25 152.25 162.5
Q 152.6 171.75 148.1 178.95 143.65 186.15 137.05 186.65 130.45 187.15 125.5 180.65 120.6 174.2 120.2 164.1
L 107.15 150.8 102.05 171.25
Q 103.4 172.8 104.9 174.2 139.55 206 169.65 169.2 Z"/>
</g>
</defs>

<g transform="matrix( 0.4565277099609375, 0, 0, 0.4565277099609375, 14.5,168.65) ">
<g transform="matrix( 1, 0, 0, 1, 0,0) ">
<use xlink:href="#Duplicate_Items_Folder_Hero_Undead_Gravestone_copy_0_Layer2_0_FILL"/>
</g>

<g transform="matrix( 1, 0, 0, 1, 0,0) ">
<use xlink:href="#Duplicate_Items_Folder_Hero_Undead_Gravestone_copy_0_Layer1_0_FILL"/>
</g>

<g transform="matrix( 1, 0, 0, 1, 0,0) ">
<use xlink:href="#Duplicate_Items_Folder_Hero_Undead_Gravestone_copy_0_Layer0_0_FILL"/>
</g>
</g>
</svg>
