
<svg xmlns="http://www.w3.org/2000/svg" version="1.1" xmlns:xlink="http://www.w3.org/1999/xlink" preserveAspectRatio="none" x="0px" y="0px" width="150px" height="300px" viewBox="0 0 150 300">
<defs>
<g id="Duplicate_Items_Folder_Hero_Undead_Gravestone_copy_8_Layer0_0_FILL">
<path fill="#FFFFFF" stroke="none" d="
M 161.55 -282.05
L 161.8 -281.7
Q 193.3 -250.65 178.55 -210.15 155.5 -191.9 143.4 -219.35 142.85 -220.55 142.45 -221.75
L 137.6 -225.8 122.1 -206.8
Q 124.1 -167.95 160.65 -180.95 170.95 -184.6 178.5 -192.5 213.3 -246.05 161.55 -282.05 Z"/>

<path fill="#DC30FC" stroke="none" d="
M 172.2 -238.05
L 178.55 -210.15
Q 193.3 -250.65 161.8 -281.7
L 161.55 -282.05
Q 213.3 -246.05 178.5 -192.5 177.35 -175.05 165.35 -162.45 164.7 -161.75 164.1 -161 189.25 -172.35 200.8 -197.35 214.05 -225.95 197.9 -252.7 154.15 -325 93.65 -264.7 95.75 -265.85 97.9 -266.95 153.4 -295.9 172.2 -238.05 Z"/>

<path fill="#EF66FF" stroke="none" d="
M 172.2 -238.05
L 172.8 -227.3
Q 128.05 -273.5 111.65 -206.45 102.65 -169.5 140.5 -160.1 152.5 -157 164.1 -161 164.7 -161.75 165.35 -162.45 177.35 -175.05 178.5 -192.5 170.95 -184.6 160.65 -180.95 124.1 -167.95 122.1 -206.8
L 137.6 -225.8 142.45 -221.75
Q 142.85 -220.55 143.4 -219.35 155.5 -191.9 178.55 -210.15
L 172.2 -238.05 Z"/>
</g>
</defs>

<g transform="matrix( 0.4565277099609375, 0, 0, 0.4565277099609375, 14.5,168.65) ">
<g transform="matrix( 1, 0, 0, 1, 0,0) ">
<use xlink:href="#Duplicate_Items_Folder_Hero_Undead_Gravestone_copy_8_Layer0_0_FILL"/>
</g>
</g>
</svg>
