
<svg xmlns="http://www.w3.org/2000/svg" version="1.1" xmlns:xlink="http://www.w3.org/1999/xlink" preserveAspectRatio="none" x="0px" y="0px" width="150px" height="150px" viewBox="0 0 150 150">
<defs>
<linearGradient id="Gradient_1" gradientUnits="userSpaceOnUse" x1="38.675" y1="17.874999999999996" x2="8.224999999999998" y2="71.725" spreadMethod="pad">
<stop  offset="0%" stop-color="#666666"/>

<stop  offset="100%" stop-color="#370070"/>
</linearGradient>

<linearGradient id="Gradient_2" gradientUnits="userSpaceOnUse" x1="52.387499999999996" y1="55.8125" x2="77.8125" y2="152.4875" spreadMethod="pad">
<stop  offset="0%" stop-color="#CCCCCC"/>

<stop  offset="100%" stop-color="#9933FF"/>
</linearGradient>

<g id="Duplicate_Items_Folder_Hero_Undead_Gravestone_0_Layer1_0_FILL">
<path fill="#000000" stroke="none" d="
M 72.3 -11.35
Q 41.45 -15.8 11.2 -8.75 1.15 -6.5 -5.65 -3.2 -14.35 0.9 -19.6 7.25 -26.7 15.9 -29.7 31.2 -30.3 34.1 -30.15 36.55 -30.9 40.5 -30.65 44.65 -30.55 50.55 -27.5 54.05 -27.5 54.1 -27.5 54.15 -27.45 55.1 -27.3 59.05 -28.2 59.45 -29.05 60.05 -32 61.95 -32.7 64.25 -33.2 65.85 -32.7 68.1 -32.55 69.2 -31.95 71.7 -31.65 74.15 -32.4 77.6 -32.85 79.45 -33.9 83.4 -36.2 92.75 -34.55 107.4 -32.25 127.65 -32.25 131.4 -32.3 133.7 -32.7 141.4 -33.25 147 -33.95 158.05
L -27.25 171.6 -7.9 177
Q -7.75 177.1 -7.6 177.2 -7.05 176.8 -6.55 176.35 -5 175.05 -3.55 175.45 -1.7 176.45 -2.25 179.5 -2.35 180.15 -2.4 180.8 0.5 182.5 2.9 183.3 5.9 184.2 9.55 184.25 11.95 184.3 16.25 184 55.15 180.9 74.6 179.2 106.9 176.25 132.6 173 132.9 172.95 133.3 172.95 134.05 172.65 135 172.4 138.2 171.45 139.3 170.95 142.95 169.3 143.45 165.7 143.75 163.9 143 159.3 142.45 156.25 142.35 152.25 142.25 151.05 142.45 145.1 142.8 126.85 140.35 112.15 139.1 105 139.1 104.7 138.6 100.45 138.8 97.25 139.6 92.75 139.75 90.5 140.05 86.5 138.6 83.85 137.95 82.45 135.35 79.65 132.9 77 132.25 75.4 131.55 73.7 131.7 67 131.8 63.2 129.95 60.85 129.55 55.7 128.85 47.3 127.95 36.45 126.65 31.15 124.45 22.3 119.2 15.95 115.4 11.45 110.1 7.9 106.55 3.4 102.8 0.2 96.65 -4.75 88.15 -7.7 81.45 -10.05 72.3 -11.35
M 83.25 6.9
Q 93.85 10.55 101.1 16.55 102.8 17.9 104.35 19.3
L 110.65 29.1 111.25 31.4 103.95 43.95
Q 103.9 44.2 104.15 44.3 105.3 44.85 103.35 44.95 102.8 45 102.15 45.15
L 90.35 47.95
Q 88.85 48.75 88.45 49.4 88.4 49.55 88.1 49.65 87.15 50.55 85.5 52.45 83.8 54.15 81.9 54.75
L 81.1 55.05
Q 80.6 55.15 80.4 55.4 80 55.75 79.95 56.35 80.05 57.35 80 57.45 78.5 57.65 77.6 57.9 77.5 58.05 77.35 58.2 76.85 58.45 76.7 58.85 76.6 59.4 77.05 59.65 77.5 59.7 77.9 59.55 78.2 59.5 78.6 59.2 79.45 58.7 80.05 58.35
L 81.25 57.55 81.75 56.7
Q 82 56.2 82.8 55.7 83.75 55.1 84.05 54.8 86.1 53.65 88.8 50.75
L 88.95 50.8
Q 89.45 51 90.3 51.15
L 92.35 49.4 96.2 48.3 112.35 45.4 113.9 44 115.85 50.6 118.65 61.35 119.3 64.05 121 70.45 121.8 73.2 122.5 79.95 120.7 81.3 124.1 85.55 125.5 92.3 125.55 93.1 125.6 93.1 125.65 93.65 129.6 141.65 129.15 167.35 123.75 167.8 120.45 167.15 119.4 167.4
Q 112.6 171 104.25 171.85 103.5 171.85 102.5 171.95 99 172.2 95.4 171.95 90.5 172.3 85.7 172.55 83.05 172.65 80.4 172.65
L 73.25 166.35 74.9 172.85 64.6 174.55 63.9 174.7 42 177.15 46.3 163.1 60 158 62.1 154.4 61.05 152.05
Q 59.4 152.05 58.1 153.25 57 154.45 56.95 156.2
L 48.9 159.35 44.45 161.15 44.25 161
Q 44.15 160.85 44.05 160.6
L 44 160.5 40.2 155.5 35.9 150.05 34 147
Q 37.6 145.85 39.65 144.2 40.75 143.3 41.5 142.4 42.55 140.95 42.7 139.25 43.1 137.2 43.1 135.05 43.15 134.65 42.8 134.25 37.7 136.4 37.8 141 37.75 141.7 37.1 142.45
L 31.45 144.65
Q 28.85 150.8 34.7 156.95 38.6 161.15 40.95 165.6 41.35 166.25 40.9 166.95 38.4 171.95 37.2 177.2 24.15 180.8 10.15 177.75
L 9.15 177.45
Q 8.25 177.1 7.7 176.8 2.4 174.35 1 170.1 0.75 169.6 0.7 169.05 0.7 168.9 0.4 168.6
L -1.3 168 -10.1 145.1 -12.4 147.15 -11.25 168 -10.3 149.1 -4.65 169.45
Q -6.9 169.95 -8.9 169.95 -15.45 169.95 -18.15 165.25 -18.5 164.9 -18.55 164.55 -20.55 160.7 -20.5 156.85 -20.1 138.4 -19.95 120.1
L -14.05 121.9 -19.4 117.35 -17.75 76.3 -17.45 68.2 -16.55 46.7
Q -16.65 42.35 -15.8 38.2 -15.8 38 -15.65 37.85
L -5.95 19.6
Q -5.4 19.05 -4.95 18.35 -3.65 17.25 -2.55 16.15 1 12.65 6.75 10.35 19.05 5.25 33.35 3.2 37.4 2.7 41.5 2.35 43.2 2.35 37.7 3.9 19.75 9.25 12.9 20.35 11.75 22.3 10.8 24.4 10.4 25.45 10.9 26.3 17.65 23.35 21.75 17.55 25.8 11.8 34.9 9.1 38.95 7.9 42.45 6.45 44.65 5.5 46.95 4.7 51.25 12.25 55 19.8 55.25 20.45 56.45 21.05 59.75 22.45 61.55 24.5
L 62 20.55 56.65 17.9
Q 55.85 10 47.35 4.55
L 53.3 3.7
Q 67.65 2.1 80.45 6.1 81.8 6.45 83.25 6.9
M 111.95 32.7
L 112.9 43.5 105.05 44.65 111.95 32.7
M -0.15 40.85
L -3.1 43.6 -4.2 45.3 -3.3 48.4 -0.15 40.85
M 2.1 38.2
Q 2.1 38.25 2.05 38.45 2.05 38.65 2.05 38.95 1.55 42.6 2.85 46.4 -0.6 49.7 -2.3 53.4 -3.95 56.85 -3.95 60.8 -3.9 61.1 -3.9 61.2 -3.9 63.05 -3.85 64.85 -3.7 69.45 -3.9 74 -3.9 74.4 -3.95 74.85 -3.9 75.3 -3.9 75.7 -4.05 81.4 -3.9 87.15 -3.9 87.45 -3.95 87.75 -3.85 88.15 -3.9 88.5 -3.75 89.35 -3.9 90.2 -3.75 90.6 -3.75 91.05 -3.55 94.8 -3.35 98.65
L -2.7 105.9
Q -2.7 106 -2.65 106.2 -2.15 112.1 -1.25 118.1
L -9.05 123.45 -6.8 125.25 -3.95 126.5 -1.3 126.55 -6.7 123.3
Q -6.9 123.15 -6.8 123.05
L -6.55 123.1 3.05 119.45 10.2 120.9
Q 11.2 120.9 11.95 121.5 12.6 121.9 12.6 122.55
L 3.25 126.5
Q -0.2 130.9 2.85 135.45 3.15 135.95 3.25 136.65
L 8.85 176.65
Q 12.25 174.4 11.65 170.1 10.9 163.65 10.45 157.45 9.8 146.1 9.05 134.2
L 8.2 128.55
Q 11.2 127.15 13.15 125.3 14.7 124.05 15.7 122.45 15.95 122.15 16.2 121.75 17.05 120.4 15.7 119.25
L 3.2 117.2 2.65 113.5 2.7 107.55 2.55 105.75 2.7 98.9 2.65 93.85 2.65 90.2
Q -0.65 70.25 5.2 50.8 5.6 49.35 6.2 47.95 7.7 44 6.5 40.15 6.25 39.55 6.85 38.65
L 7.7 31.35
Q 3.05 33.55 2.1 38.2
M 86.85 72.25
Q 85.85 71.45 82.65 71.6
L 77.9 71.9 62.1 72.85
Q 59.75 73.05 57.95 73.25 55 73.55 53.35 74 52.8 74.15 52.55 74.3 48.65 73.7 44.95 73.2 42.45 72.8 43.5 71.25
L 60.8 68.9
Q 64.8 56.1 58.75 43.35 58.5 43 58.3 42.8
L 61.45 40.9 70.65 41.95 73.65 40.9 74.05 38.95
Q 67.65 34.8 57.95 37.75 48.5 41.95 54.45 48.65 55.45 49.7 55.6 51 56.25 58.2 56.45 65.3 40.9 63.5 36.4 71.7 35.1 73.9 37.55 75.35 45.35 79.95 56.65 78.65 56.5 82.7 56.6 86.7
L 56.65 86.7
Q 56.65 86.9 56.6 87.2
L 56.95 99.5
Q 56.5 99.6 56.15 99.8 54.95 100.45 54.5 100.65 53.65 100.9 52.25 101 50.3 101.15 49.65 101.25 48 101.6 46.4 102.95 46.35 103 46.25 103
L 44.9 102.7
Q 44.05 102.5 44.05 102
L 43.15 102.05 43.25 101.8 36.25 102 35.8 102.85
Q 36.15 103.35 37.9 103.4
L 41.55 103.7
Q 41.95 103.7 42.45 103.85 42.9 104.2 43.1 104.2 43.5 104.35 43.7 104.2
L 45.25 104.05
Q 43.85 105.45 44.45 106.45 41.8 109.9 41.1 111.1 40.6 111.8 40.6 112.05 40.75 112.75 41.6 112.85 45.6 110.15 47.25 107.75 47.95 106.75 48.4 106.25 49.25 105.4 50.2 105 51.2 104.5 53.6 104.25 56.3 104.05 57.2 103.75 57.5 109.4 58 114.95 58.05 115.85 58.15 116.7 58.4 119.1 58.7 121.55 58.85 123.65 60.15 125.65 60.5 126.35 61.2 127.15 66.4 132.9 70.45 139.05
L 71.55 140.8
Q 72 141.5 72.8 141.75 73.15 142 73.65 141.6 75.4 134 68.2 127.2 61.7 121.1 63.4 113.85 64.7 107.8 64.45 101.55 63.9 89 62.05 76.85 62 76.6 61.8 76.45
L 64.7 76.3 70 75.85
Q 71.9 75.75 73 75.55
L 74 75.25 74.6 75
Q 75.05 74.95 76.9 74.75
L 79.3 74.7
Q 79.65 74.7 80 74.65 80.65 74.55 81.25 74.5 83.05 74.35 83.8 74.15 86.35 73.55 86.85 72.25
M 81.05 47.9
L 81.1 47.65 78.25 47.7 74.15 47.9 73.6 48.65
Q 74.3 49.25 76.55 49.3 76.9 49.3 77.2 49.35 82.1 49.65 86.4 50.6 86.85 49.8 86.6 49.4 86.3 48.95 85.05 48.9
L 83.3 48.55
Q 82.1 48.3 81.9 47.95
L 81.05 47.9 Z"/>

<path fill="#CCCCCC" stroke="none" d="
M 112.9 43.5
L 111.95 32.7 105.05 44.65 112.9 43.5
M 112.35 64.25
Q 116.65 66.3 117.5 63.55
L 104.85 60.75
Q 108.65 62.45 112.35 64.25
M 118.65 61.35
L 115.85 50.6 110.4 49.75 100.2 53.3 92.8 51.65 90.3 51.15
Q 89.45 51 88.95 50.8
L 88.8 50.75
Q 86.1 53.65 84.05 54.8 83.75 55.1 82.8 55.7 82 56.2 81.75 56.7
L 81.25 57.55 80.05 58.35
Q 79.45 58.7 78.6 59.2 78.2 59.5 77.9 59.55 78.2 62.1 78.65 64.6 81.4 64.8 84.05 64.4 89.9 63.55 95.25 65.05 97.65 65.85 97.25 67.55 95.1 75.6 81.25 74.5 80.65 74.55 80 74.65 80.05 77.9 80.35 81.3 82 81.45 83.1 82.15 84.05 82.8 85.05 84.4 86.05 85.95 87 86.5 91.65 86.75 93.8 86.35 95.05 86.1 96.75 85.45 98.85 84.75 99.65 84.65 102.15 83.95 104.65 84.3 107.35 84.65 108.4 85.85 109.55 85.7 111.95 85 102.9 81.6 94.75 77.4 90.55 75.25 93.5 75.3
L 109.9 80.15 122.5 79.95 121.8 73.2
Q 119.5 72.6 117.35 71.95 115.25 71.45 113.9 70.45 106.6 65.45 97.65 61.2
L 104.7 57.35 118.65 61.35
M 95.75 18.7
Q 94.05 18.6 92.55 18.35 80 15.55 83.25 6.9 81.8 6.45 80.45 6.1 67.65 2.1 53.3 3.7
L 60.85 18.75 61.3 16.7 62 20.55 61.55 24.5
Q 59.75 22.45 56.45 21.05 55.25 20.45 55 19.8 51.25 12.25 46.95 4.7 44.65 5.5 42.45 6.45 38.95 7.9 34.9 9.1 25.8 11.8 21.75 17.55 17.65 23.35 10.9 26.3
L 7.7 31.35 6.85 38.65
Q 17.85 43.55 10.2 50.45 7.95 52.45 5.55 54.1
L 8.6 57.4 5.5 62.6
Q 5.45 63.55 10.6 62.55 12.9 62.1 14.95 63.15 21.55 66.6 17.75 71.85 14.8 75.85 7.75 76.55
L 4.25 85.45
Q 8.55 86.9 10.55 89.85 10.8 90.25 10.95 90.8 11.55 90.9 12 90.95 15.3 91.75 16.35 93.25 16.5 93.65 16.85 94.3 17.15 94.8 17.55 95.15 17.95 95.75 19.3 96.3 20.55 96.95 20.95 97.5 21.25 97.8 21.4 98.45 21.75 99.2 22 99.5 22.55 100.25 24.95 101 27.75 102 29.15 101.55 29.85 101.3 30.55 100.8 31.65 99.95 31.7 99.9 32 99.6 33.1 99 34.05 98.45 34.55 98.1 34.9 97.8 35.2 97.25
L 35.7 96.25
Q 36.8 94.15 40.3 93.1 43.95 92.1 47.3 92.85 48.4 89.35 52.3 87.65 54.25 86.75 56.6 86.7 56.5 82.7 56.65 78.65 45.35 79.95 37.55 75.35 35.1 73.9 36.4 71.7 40.9 63.5 56.45 65.3 56.25 58.2 55.6 51 55.45 49.7 54.45 48.65 48.5 41.95 57.95 37.75 61 34.85 66.15 34.5 69.95 34.3 73 35.55 83.3 40.1 78.25 47.7
L 81.1 47.65 81.05 47.9 81.9 47.95
Q 82.1 48.3 83.3 48.55
L 85.05 48.9
Q 86.3 48.95 86.6 49.4 86.85 49.8 86.4 50.6 82.1 49.65 77.2 49.35 76.9 50.1 76.9 50.9 77.2 54.35 77.6 57.9 78.5 57.65 80 57.45 80.05 57.35 79.95 56.35 80 55.75 80.4 55.4 80.6 55.15 81.1 55.05
L 81.9 54.75
Q 83.8 54.15 85.5 52.45 87.15 50.55 88.1 49.65 88.4 49.55 88.45 49.4 88.85 48.75 90.35 47.95
L 102.15 45.15
Q 102.7 36.6 109.7 29.7 110.05 29.35 110.65 29.1
L 104.35 19.3
Q 100.1 19.25 95.75 18.7
M 103.05 22.6
Q 104.4 23.5 104.4 24.7 104.4 25.85 102.95 26.75 101.55 27.5 99.6 27.5 97.65 27.5 96.25 26.75 95.05 25.85 95.05 24.7 95.1 23.5 96.4 22.6 97.85 21.75 99.8 21.75 101.8 21.75 103.05 22.6
M 16.05 47.2
Q 17.7 46.1 20.1 46.1 22.4 46.1 24 47.2 25.6 48.1 25.65 49.6 25.5 51 23.9 52 22.2 53 19.9 53 17.55 53 15.95 52 14.35 51 14.45 49.6 14.35 48.1 16.05 47.2
M 29.3 41.85
Q 29.35 40.5 30.9 39.55 32.65 38.55 34.9 38.55 37.2 38.55 38.75 39.55 40.3 40.5 40.3 41.85 40.2 43.15 38.55 44.2 36.95 45.2 34.7 45.2 32.4 45.2 30.75 44.2 29.2 43.15 29.3 41.85
M 11.9 54.2
Q 13 53.65 14.55 53.65 16 53.65 17 54.2 18.05 54.95 18 55.8 18 56.75 16.9 57.4 15.85 58 14.35 58 12.85 58 11.8 57.4 10.85 56.75 10.85 55.8 10.85 54.95 11.9 54.2 Z"/>

<path fill="#666666" stroke="none" d="
M -6.7 123.3
L -6.55 123.1 -6.8 123.05
Q -6.9 123.15 -6.7 123.3
M 48.9 159.35
L 45.2 160.6
Q 44.55 161.05 44.25 161
L 44.45 161.15 48.9 159.35
M 43.9 160.2
Q 43.9 160.15 43.9 159.95
L 40.2 155.5 44 160.5
Q 43.9 160.3 43.9 160.2
M 74 75.25
L 73 75.55
Q 71.9 75.75 70 75.85
L 64.7 76.3
Q 64.85 82.1 65.5 88.05 66.7 102 66.3 115.85 66.1 124.5 73.3 132.15 75.35 128.15 77.2 124.2 78.95 120.2 78.3 116.3 75.15 95.85 74 75.25
M 2.65 90.2
L 2.65 93.85 7.45 92.15 10.3 93.95 14.8 98.1 11.3 91.85 2.65 90.2
M 12.5 20.25
Q 12.75 20.3 12.9 20.35 19.75 9.25 37.7 3.9 43.2 2.35 41.5 2.35 37.4 2.7 33.35 3.2 19.05 5.25 6.75 10.35 1 12.65 -2.55 16.15 -3.65 17.25 -4.95 18.35 -4.65 18.55 -4.55 18.6 -4 18.75 -3.5 18.95 -1.4 19.6 1.15 19.3 3.4 19.05 4.25 19.1 5.7 19.4 6.4 19.45 6.95 19.45 8.25 19.45 9.6 19.45 10.25 19.6 11.75 20 12.5 20.25
M 62 20.55
L 61.3 16.7 60.85 18.75 53.3 3.7 47.35 4.55
Q 55.85 10 56.65 17.9
L 62 20.55
M 109.9 80.15
Q 105.6 80.9 110 82.3 116.6 84.3 124.1 85.55
L 120.7 81.3 122.5 79.95 109.9 80.15
M 92.75 69
L 91.45 67.3
Q 85.15 67.75 78.75 68.2 72.1 68.2 71.5 63.95 70.75 60.5 70.65 57.1 70.25 49 73.65 40.9
L 70.65 41.95 61.45 40.9
Q 61.4 41.45 61.7 41.85 64.15 45.2 63.9 48.9 63.6 51.7 64.55 54.6 66.9 61.95 63.45 68.55
L 60.8 68.9 43.5 71.25
Q 43.7 71.65 44 72.05 44.55 72.9 45.7 73.15 51.75 73.2 57.95 73.25 59.75 73.05 62.1 72.85
L 77.9 71.9
Q 84.8 70 92.75 69
M 102.7 60.85
L 104.85 60.75 117.5 63.55 119.3 64.05 118.65 61.35 104.7 57.35 97.65 61.2
Q 106.6 65.45 113.9 70.45 115.25 71.45 117.35 71.95 119.5 72.6 121.8 73.2
L 121 70.45
Q 112.35 70.35 108.3 65.85 105.95 63.2 102.7 60.85
M 111.25 31.4
L 110.65 29.1
Q 110.05 29.35 109.7 29.7 102.7 36.6 102.15 45.15 102.8 45 103.35 44.95 105.3 44.85 104.15 44.3 103.9 44.2 103.95 43.95
L 111.25 31.4
M 96.2 48.3
L 92.35 49.4 90.3 51.15 92.8 51.65 110 47.7 112.35 45.4 96.2 48.3 Z"/>

<path fill="#1C0038" stroke="none" d="
M -14.05 121.9
L -19.95 120.1
Q -20.1 138.4 -20.5 156.85 -20.55 160.7 -18.55 164.55 -18.5 164.9 -18.15 165.25 -15.45 169.95 -8.9 169.95 -6.9 169.95 -4.65 169.45
L -10.3 149.1 -11.25 168 -12.4 147.15
Q -15.75 154.5 -13.05 162.25 -12.8 162.85 -12.7 163.4
L -17.15 162.9 -16.55 125.1 -9.75 127.95 -14.05 121.9
M -16.65 81.9
Q -17.5 79.1 -17.75 76.3
L -19.4 117.35
Q -18.35 108.35 -16.75 99.5 -16.5 98 -16.2 96.65 -15.75 94.15 -13.5 91.9 -11.45 90.1 -13.1 88.05 -14.15 86.8 -14.85 85.55 -15.8 84.3 -16.35 82.95 -16.4 82.6 -16.45 82.3
L -16.65 81.9
M -13.15 56.35
Q -13.2 55.1 -13.75 53.8
L -13.8 53.8
Q -14.05 53.3 -14.35 52.7
L -15.05 51.65
Q -15.7 50.9 -15.85 49.65 -15.9 48 -16.55 46.7
L -17.45 68.2
Q -17.05 65.85 -16.15 63.5 -15.85 62.8 -15.35 62.1 -12.95 59.25 -13.15 56.35
M -14.5 71.05
Q -13.8 71.55 -12.85 71.6 -12.75 71.6 -12.6 71.6 -11.45 71.6 -10.6 71.05 -9.75 70.6 -9.8 69.9 -9.8 69.15 -10.6 68.65 -10.85 68.35 -11.4 68.3 -11.95 68.2 -12.45 68.2 -13.65 68.2 -14.5 68.65 -15.35 69.15 -15.35 69.9 -15.35 70.6 -14.5 71.05
M 3.25 136.65
Q 1.85 136.05 1.8 140.25 1.8 146.9 2.55 153.6 2.8 155.45 2.4 157.15 1.1 162.6 -1.3 168
L 0.4 168.6
Q 0.7 168.9 0.7 169.05 0.75 169.6 1 170.1 2.4 174.35 7.7 176.8 8.25 177.1 9.15 177.45
L 8.85 176.65 3.25 136.65
M 12.6 122.55
Q 12.6 121.9 11.95 121.5 11.2 120.9 10.2 120.9
L 3.05 119.45 -6.55 123.1 -6.7 123.3 -1.3 126.55 3.25 126.5 12.6 122.55 Z"/>

<path fill="#3F126E" stroke="none" d="
M -6.3 61.6
Q -6.25 61.35 -5.95 60.25 -5.65 59.4 -5.8 58.8 -6 58.4 -7.15 57 -7.7 56.45 -7.8 55.95 -8.95 55.75 -10.3 55.8 -11.75 55.85 -13.15 56.35 -12.95 59.25 -15.35 62.1 -15.85 62.8 -16.15 63.5 -17.05 65.85 -17.45 68.2
L -17.75 76.3
Q -17.5 79.1 -16.65 81.9
L -16.45 82.3
Q -16.4 82.6 -16.35 82.95 -13.7 81.9 -11.85 80.25 -11.8 80.3 -10.25 81.5 -9.3 82.15 -9.1 82.95 -9.05 83.1 -9.3 84 -10.35 86.4 -9.9 87.65 -9.6 88.4 -8.55 89.55 -7.4 90.85 -7.15 91.55 -6.7 92.75 -7.6 94.9 -8.65 97.3 -8.55 98.3 -8.55 98.35 -7.65 100.65
L -6.8 103
Q -5.8 105.3 -2.7 106.3 -2.7 106.25 -2.65 106.2 -2.7 106 -2.7 105.9
L -3.35 98.65
Q -3.55 94.8 -3.75 91.05 -3.75 90.6 -3.9 90.2 -3.75 89.35 -3.9 88.5 -3.85 88.15 -3.95 87.75 -3.9 87.45 -3.9 87.15 -4.05 81.4 -3.9 75.7 -3.9 75.3 -3.95 74.85 -3.9 74.4 -3.9 74 -3.7 69.45 -3.85 64.85 -3.95 64.8 -4.1 64.65 -6.45 63.4 -6.3 61.6
M -12.85 71.6
Q -13.8 71.55 -14.5 71.05 -15.35 70.6 -15.35 69.9 -15.35 69.15 -14.5 68.65 -13.65 68.2 -12.45 68.2 -11.95 68.2 -11.4 68.3 -10.85 68.35 -10.6 68.65 -9.8 69.15 -9.8 69.9 -9.75 70.6 -10.6 71.05 -11.45 71.6 -12.6 71.6 -12.75 71.6 -12.85 71.6 Z"/>

<path fill="url(#Gradient_1)" stroke="none" d="
M -7.8 55.95
Q -8 55.5 -7.75 55.15 -11.1 55.05 -12.8 53.45 -13.3 53.7 -13.75 53.8 -13.2 55.1 -13.15 56.35 -11.75 55.85 -10.3 55.8 -8.95 55.75 -7.8 55.95
M -4.95 18.35
Q -5.4 19.05 -5.95 19.6 -5.6 19.3 -5.35 19.1 -4.95 18.75 -4.55 18.6 -4.65 18.55 -4.95 18.35 Z"/>

<path fill="#9933FF" stroke="none" d="
M 117.2 125.55
Q 115.4 125.2 114.6 125 111.1 124.5 104.95 125.9 103.6 126.15 102.35 126.45
L 102.8 126.55 102.9 127.8 116.8 132.7
Q 123.8 129.8 123.8 125.55 121.1 126 119.8 125.95 118.8 125.9 117.2 125.55
M 15 127.2
Q 14.65 126.75 14 126.1 13.55 125.65 13.15 125.3 11.2 127.15 8.2 128.55
L 9.05 134.2 11.95 134.3 11.85 133.05 14.5 130.9 17.35 130.55 21 132.3 19.7 135.75 17.3 136.75 23.35 141.1 38.2 137.55 40.15 134.95 40.1 134.95
Q 40 134.85 39.95 134.85 37.6 134.6 33.35 135.65 28.85 137 26.6 136.8 27.4 135.6 26.3 134.1 25.35 132.9 23.3 131.85 22.9 131.65 19.4 130.15 17.15 129.05 15.95 128.15 15.9 128.1 15 127.2
M 43.85 145.35
Q 43.6 145.4 43.3 145.4
L 35.9 150.05 40.2 155.5 43.9 159.95 45.2 160.6 48.9 159.35 56.95 156.2
Q 57 154.45 58.1 153.25 59.4 152.05 61.05 152.05
L 65.6 148.4
Q 66.85 152.05 64.05 155.65 59.65 161.25 49.9 164.75
L 48.9 168.9
Q 49.9 169.85 50.9 170.8
L 62.4 174.2
Q 62.75 174.2 63.05 174.15 64.5 173.85 65.75 173.65
L 65.85 173.65
Q 66.45 173.05 66.9 172.5
L 69.4 164.85
Q 69.3 164.45 69.2 164
L 72.6 165.35
Q 86.5 159.7 99 167.15
L 104.65 165.45 119.4 167.4 120.45 167.15 126.1 161.15
Q 125.45 159.9 124.85 158.8 122.7 154.85 125.8 150.85
L 127.2 149.8
Q 127.15 149.6 127.05 149.5 118.3 145.75 123.35 139.95
L 100.25 129.35 100.8 126.95
Q 98.15 128 97.8 129.45 97.65 130.6 99.6 132.05
L 99.6 131.4 99.75 132.05
Q 100.25 132.5 101.15 132.95 105.35 135.1 106 136.25 103.25 136.75 100.95 137.8
L 102.6 145.4 99.95 141.6 99.8 138.35
Q 98.5 139.05 97.2 140 94.1 142.45 93.7 145.35 93.85 145.2 94.1 145.1 95.05 144.55 96.25 144.55 97.45 144.55 98.3 145.1 99.25 145.75 99.2 146.5 99.1 147.25 98.2 147.85 97.25 148.4 96.1 148.4 94.85 148.4 93.9 147.85 93.7 147.6 93.35 147.4 93.35 147.75 93.1 147.85 92.4 148.4 90.05 148.4 87.6 148.4 86.75 148.8 87.15 148.05 86.45 147.25 85.85 146.55 84.65 146.15 83.8 145.85 82.15 145.45 80.55 145.05 79.75 144.75 77.3 143.55 75.9 143.15 71.35 141.7 64.85 144.5 63.15 145.2 59.85 146.65 56.95 147.75 54.4 147.9 53 145.9 49.7 145.1 49.75 144.35 49.6 143.45 49.25 143.85 48.65 144.15
L 43.85 145.35
M 80.05 157.85
Q 78.25 156.85 78.35 155.25 78.35 153.65 80.25 152.55 82.1 151.5 84.65 151.5 87.15 151.5 89 152.55 90.75 153.65 90.7 155.25 90.65 156.85 88.75 157.85 86.95 158.95 84.45 158.95 81.9 158.95 80.05 157.85
M 108.95 143.7
Q 109.6 143.45 109.95 143.8
L 110.25 144.1
Q 110.3 144.15 110.8 144.5 110.6 144.75 110.35 144.85
L 110.2 144.85
Q 109.9 144.85 109.55 144.85 109.6 144.55 109.25 144.3
L 109.1 144.15 108.95 143.7
M 117.65 151.45
Q 117.7 150.7 118.45 150.25 119.3 149.8 120.35 149.8 121.4 149.8 122.15 150.25 122.9 150.7 122.85 151.45 122.85 152.1 122.1 152.55 121.2 152.95 120.15 152.95 119.1 152.95 118.35 152.55 117.65 152.1 117.65 151.45
M 44.3 137.2
Q 44.55 137.2 44.7 137.2 44.5 137 44.25 136.8
L 44.3 137.2 Z"/>

<path fill="#330066" stroke="none" d="
M 94.1 145.1
Q 93.85 145.2 93.7 145.35 93.1 145.85 93.1 146.5 93.1 147 93.35 147.4 93.7 147.6 93.9 147.85 94.85 148.4 96.1 148.4 97.25 148.4 98.2 147.85 99.1 147.25 99.2 146.5 99.25 145.75 98.3 145.1 97.45 144.55 96.25 144.55 95.05 144.55 94.1 145.1
M 99.6 131.4
L 99.6 132.05 99.8 138.35 99.95 141.6 102.6 145.4 100.95 137.8 99.75 132.05 99.6 131.4
M 123.75 124.3
Q 123.95 124.9 123.8 125.55 123.8 129.8 116.8 132.7
L 102.9 127.8 102.8 126.55 102.35 126.45 101 126 100.8 126.95 100.25 129.35 123.35 139.95
Q 118.3 145.75 127.05 149.5 127.15 149.6 127.2 149.8
L 125.8 150.85
Q 122.7 154.85 124.85 158.8 125.45 159.9 126.1 161.15
L 120.45 167.15 123.75 167.8 129.15 167.35 129.6 141.65 125.65 93.65
Q 120 100.9 122.55 108.1 122.9 109.35 123.6 110.65 124.25 111.6 125.45 112.5 122.7 118.35 123.75 124.3
M 61.05 152.05
L 62.1 154.4 60 158 46.3 163.1 42 177.15 63.9 174.7 62.4 174.2 50.9 170.8
Q 49.9 169.85 48.9 168.9
L 49.9 164.75
Q 59.65 161.25 64.05 155.65 66.85 152.05 65.6 148.4
L 61.05 152.05
M 69.4 164.85
L 66.9 172.5
Q 66.45 173.05 65.85 173.65
L 65.75 173.65
Q 65.25 174.05 64.6 174.55
L 74.9 172.85 73.25 166.35 80.4 172.65
Q 83.05 172.65 85.7 172.55 90.5 172.3 95.4 171.95 99 172.2 102.5 171.95 103.5 171.85 104.25 171.85 112.6 171 119.4 167.4
L 104.65 165.45 99 167.15
Q 86.5 159.7 72.6 165.35
L 69.2 164
Q 69.3 164.45 69.4 164.85
M 13.15 108.7
Q 13.5 108.15 13.7 107.75
L 12.5 108.35 2.65 113.5 3.2 117.2
Q 8.85 115.5 11.25 111.5 12.15 110 13.15 108.7
M 118.45 150.25
Q 117.7 150.7 117.65 151.45 117.65 152.1 118.35 152.55 119.1 152.95 120.15 152.95 121.2 152.95 122.1 152.55 122.85 152.1 122.85 151.45 122.9 150.7 122.15 150.25 121.4 149.8 120.35 149.8 119.3 149.8 118.45 150.25
M 78.35 155.25
Q 78.25 156.85 80.05 157.85 81.9 158.95 84.45 158.95 86.95 158.95 88.75 157.85 90.65 156.85 90.7 155.25 90.75 153.65 89 152.55 87.15 151.5 84.65 151.5 82.1 151.5 80.25 152.55 78.35 153.65 78.35 155.25
M 42.8 134.25
Q 43.15 134.65 43.1 135.05 43.1 137.2 42.7 139.25 42.55 140.95 41.5 142.4 40.75 143.3 39.65 144.2 37.6 145.85 34 147
L 35.9 150.05 43.3 145.4
Q 43.6 145.4 43.85 145.35
L 48.65 144.15
Q 49.25 143.85 49.6 143.45 51.3 142 49.65 139.15 48.9 137.9 46.8 137.45 45.7 137.3 44.7 137.2 44.55 137.2 44.3 137.2
L 44.25 136.8 43.3 130.2 40.1 134.95 40.15 134.95 38.2 137.55 23.35 141.1 17.3 136.75 19.7 135.75 21 132.3 17.35 130.55 14.5 130.9 11.85 133.05 11.95 134.3 9.05 134.2
Q 9.8 146.1 10.45 157.45 10.9 163.65 11.65 170.1 12.25 174.4 8.85 176.65
L 9.15 177.45 10.15 177.75
Q 24.15 180.8 37.2 177.2 38.4 171.95 40.9 166.95 41.35 166.25 40.95 165.6 38.6 161.15 34.7 156.95 28.85 150.8 31.45 144.65
L 37.1 142.45
Q 37.75 141.7 37.8 141 37.7 136.4 42.8 134.25
M 29.85 152.05
L 36.2 161.05 35.35 163.9 23.45 171.05 19.7 169.95
Q 25.65 166.25 21.7 161 18.9 157.1 15.45 153.15
L 16.3 149.6 20.25 148.25 29.85 152.05
M 54.15 132.15
Q 52.35 132.15 50.95 132.95 49.7 133.7 49.7 134.75 49.7 135.9 50.85 136.7 52.2 137.45 54 137.45 55.8 137.45 57 136.7 58.4 135.9 58.4 134.75 58.4 133.7 57.1 132.95 56 132.15 54.15 132.15 Z"/>

<path fill="url(#Gradient_2)" stroke="none" d="
M 101.15 132.95
Q 100.25 132.5 99.75 132.05
L 100.95 137.8
Q 103.25 136.75 106 136.25 105.35 135.1 101.15 132.95
M 63.9 174.7
L 64.6 174.55
Q 65.25 174.05 65.75 173.65 64.5 173.85 63.05 174.15 62.75 174.2 62.4 174.2
L 63.9 174.7
M 14 126.1
Q 14.65 126.75 15 127.2 15.7 125 15.7 124.85 16.05 123.55 15.7 122.45 14.7 124.05 13.15 125.3 13.55 125.65 14 126.1
M 29.55 120.35
Q 29.55 120.9 29.4 121.6 31.45 120.95 32.35 120.35 30.9 120.5 29.55 120.35
M 109.95 143.8
Q 109.6 143.45 108.95 143.7
L 109.1 144.15 109.25 144.3
Q 109.6 144.55 109.55 144.85 109.9 144.85 110.2 144.85
L 110.35 144.85
Q 110.6 144.75 110.8 144.5 110.3 144.15 110.25 144.1
L 109.95 143.8
M 36.2 161.05
L 29.85 152.05 20.25 148.25 16.3 149.6 15.45 153.15
Q 18.9 157.1 21.7 161 25.65 166.25 19.7 169.95
L 23.45 171.05 35.35 163.9 36.2 161.05
M 55.35 128.15
Q 54.05 128.45 52.05 129.5 50.95 130.15 49.95 130.5 51.2 130.35 52.65 129.8 53.55 129.3 54.9 128.5 55.15 128.3 55.35 128.15
M 49.25 116.45
Q 48.3 116.65 46.65 117
L 46.85 117
Q 47.5 117.35 48.4 117.45 49.75 117.55 50.4 117.65 51.55 117.8 52.1 118.15 52.95 118.55 52.9 119.1 55.95 117.45 58.15 116.7 58.05 115.85 58 114.95 57.8 115 57.65 115 57.65 115.1 54.4 115.4 52.35 115.7 49.25 116.45
M 117.4 91.4
Q 119 91.8 120.5 92.25
L 121.1 92.45
Q 121.25 92.45 121.5 92.25
L 121.5 90.85
Q 121.35 90.6 120.45 90.7 118.05 91.25 117.4 91.4 Z"/>

<path fill="#999999" stroke="none" d="
M 43.9 159.95
Q 43.9 160.15 43.9 160.2 43.9 160.3 44 160.5
L 44.05 160.6
Q 44.15 160.85 44.25 161 44.55 161.05 45.2 160.6
L 43.9 159.95
M 2.65 93.85
L 2.7 98.9 10.3 93.95 7.45 92.15 2.65 93.85
M 6.5 40.15
Q 7.7 44 6.2 47.95 5.6 49.35 5.2 50.8 -0.65 70.25 2.65 90.2
L 11.3 91.85
Q 11.25 91.25 10.95 90.8 10.8 90.25 10.55 89.85 8.55 86.9 4.25 85.45
L 7.75 76.55
Q 14.8 75.85 17.75 71.85 21.55 66.6 14.95 63.15 12.9 62.1 10.6 62.55 5.45 63.55 5.5 62.6
L 8.6 57.4 5.55 54.1
Q 7.95 52.45 10.2 50.45 17.85 43.55 6.85 38.65 6.25 39.55 6.5 40.15
M 93.5 75.3
Q 90.55 75.25 94.75 77.4 102.9 81.6 111.95 85 114 85.65 115.95 86.35 117.75 86.85 119.85 87.05
L 125.5 92.3 124.1 85.55
Q 116.6 84.3 110 82.3 105.6 80.9 109.9 80.15
L 93.5 75.3
M 104.85 60.75
L 102.7 60.85
Q 105.95 63.2 108.3 65.85 112.35 70.35 121 70.45
L 119.3 64.05 117.5 63.55
Q 116.65 66.3 112.35 64.25 108.65 62.45 104.85 60.75
M 113.9 44
L 112.35 45.4 110 47.7 92.8 51.65 100.2 53.3 110.4 49.75 115.85 50.6 113.9 44
M 14.55 53.65
Q 13 53.65 11.9 54.2 10.85 54.95 10.85 55.8 10.85 56.75 11.8 57.4 12.85 58 14.35 58 15.85 58 16.9 57.4 18 56.75 18 55.8 18.05 54.95 17 54.2 16 53.65 14.55 53.65
M 30.9 39.55
Q 29.35 40.5 29.3 41.85 29.2 43.15 30.75 44.2 32.4 45.2 34.7 45.2 36.95 45.2 38.55 44.2 40.2 43.15 40.3 41.85 40.3 40.5 38.75 39.55 37.2 38.55 34.9 38.55 32.65 38.55 30.9 39.55
M 20.1 46.1
Q 17.7 46.1 16.05 47.2 14.35 48.1 14.45 49.6 14.35 51 15.95 52 17.55 53 19.9 53 22.2 53 23.9 52 25.5 51 25.65 49.6 25.6 48.1 24 47.2 22.4 46.1 20.1 46.1
M 104.4 24.7
Q 104.4 23.5 103.05 22.6 101.8 21.75 99.8 21.75 97.85 21.75 96.4 22.6 95.1 23.5 95.05 24.7 95.05 25.85 96.25 26.75 97.65 27.5 99.6 27.5 101.55 27.5 102.95 26.75 104.4 25.85 104.4 24.7
M 101.1 16.55
Q 93.85 10.55 83.25 6.9 80 15.55 92.55 18.35 94.05 18.6 95.75 18.7 100.1 19.25 104.35 19.3 102.8 17.9 101.1 16.55 Z"/>

<path fill="#370070" stroke="none" d="
M 2.85 135.45
Q -0.2 130.9 3.25 126.5
L -1.3 126.55 -3.95 126.5 -6.8 125.25 -9.05 123.45 -1.25 118.1
Q -2.15 112.1 -2.65 106.2 -2.7 106.25 -2.7 106.3 -5.8 105.3 -6.8 103
L -7.65 100.65
Q -8.55 98.35 -8.55 98.3 -8.65 97.3 -7.6 94.9 -6.7 92.75 -7.15 91.55 -7.4 90.85 -8.55 89.55 -9.6 88.4 -9.9 87.65 -10.35 86.4 -9.3 84 -9.05 83.1 -9.1 82.95 -9.3 82.15 -10.25 81.5 -11.8 80.3 -11.85 80.25 -13.7 81.9 -16.35 82.95 -15.8 84.3 -14.85 85.55 -14.15 86.8 -13.1 88.05 -11.45 90.1 -13.5 91.9 -15.75 94.15 -16.2 96.65 -16.5 98 -16.75 99.5 -18.35 108.35 -19.4 117.35
L -14.05 121.9 -9.75 127.95 -16.55 125.1 -17.15 162.9 -12.7 163.4
Q -12.8 162.85 -13.05 162.25 -15.75 154.5 -12.4 147.15
L -10.1 145.1 -1.3 168
Q 1.1 162.6 2.4 157.15 2.8 155.45 2.55 153.6 1.8 146.9 1.8 140.25 1.85 136.05 3.25 136.65 3.15 135.95 2.85 135.45 Z"/>

<path fill="#A455F3" stroke="none" d="
M 3.5 107.45
Q 3.15 107.45 2.7 107.55
L 2.65 113.5 12.5 108.35
Q 9.6 107.1 3.5 107.45
M 54.9 128.5
Q 53.55 129.3 52.65 129.8 51.2 130.35 49.95 130.5
L 49.85 130.55
Q 49.2 130.6 48.5 130.6
L 47.3 130.4
Q 47.15 130.35 46.95 130.25 45.95 130 44.95 129.2 43.7 128.15 43 127.9 40.9 126.9 35.95 127.6 30.5 128.45 28.45 128
L 29.35 122.45
Q 29.4 122.05 29.4 121.6 29.55 120.9 29.55 120.35 29.55 119.2 29.5 118.45 29.05 116.2 27.05 114.95 25.05 113.65 21.35 113.2 18.75 113.05 14.55 113.15 15.3 112.3 15.2 111.25 15.15 110.05 14.2 109.35 13.7 109 13.15 108.7 12.15 110 11.25 111.5 8.85 115.5 3.2 117.2
L 15.7 119.25
Q 17.05 120.4 16.2 121.75 15.95 122.15 15.7 122.45 16.05 123.55 15.7 124.85 15.7 125 15 127.2 15.9 128.1 15.95 128.15 17.15 129.05 19.4 130.15 22.9 131.65 23.3 131.85 25.35 132.9 26.3 134.1 27.4 135.6 26.6 136.8 28.85 137 33.35 135.65 37.6 134.6 39.95 134.85 40 134.85 40.1 134.95
L 43.3 130.2 44.25 136.8
Q 44.5 137 44.7 137.2 45.7 137.3 46.8 137.45 48.9 137.9 49.65 139.15 51.3 142 49.6 143.45 49.75 144.35 49.7 145.1 53 145.9 54.4 147.9 56.95 147.75 59.85 146.65 63.15 145.2 64.85 144.5 71.35 141.7 75.9 143.15 77.3 143.55 79.75 144.75 80.55 145.05 82.15 145.45 83.8 145.85 84.65 146.15 85.85 146.55 86.45 147.25 87.15 148.05 86.75 148.8 87.6 148.4 90.05 148.4 92.4 148.4 93.1 147.85 93.35 147.75 93.35 147.4 93.1 147 93.1 146.5 93.1 145.85 93.7 145.35 94.1 142.45 97.2 140 98.5 139.05 99.8 138.35
L 99.6 132.05
Q 97.65 130.6 97.8 129.45 98.15 128 100.8 126.95
L 101 126 102.35 126.45
Q 103.6 126.15 104.95 125.9 111.1 124.5 114.6 125 115.4 125.2 117.2 125.55 118.8 125.9 119.8 125.95 121.1 126 123.8 125.55 123.95 124.9 123.75 124.3 122.7 118.35 125.45 112.5 124.25 111.6 123.6 110.65 122.9 109.35 122.55 108.1 122.45 108.15 122.25 108.25 121.55 108.8 121.2 110 121 110.65 120.55 111.85 120.15 112.95 118.3 115.2 117 116.85 116 117.4 115.75 117.45 111.95 119.05 109.55 120.1 109.25 121.15 106.65 120.75 100.9 121.6 95.3 122.3 92.5 121.8 90.45 121.4 86.85 119.95 85.75 119.7 84.5 119.45 83.05 129.65 77.85 139.35 76.75 141.4 73.65 141.6 73.15 142 72.8 141.75 72 141.5 71.55 140.8
L 70.45 139.05
Q 66.4 132.9 61.2 127.15 60.5 126.35 60.15 125.65 58.45 126.25 57 127.15 56.65 127.25 55.35 128.15 55.15 128.3 54.9 128.5
M 50.95 132.95
Q 52.35 132.15 54.15 132.15 56 132.15 57.1 132.95 58.4 133.7 58.4 134.75 58.4 135.9 57 136.7 55.8 137.45 54 137.45 52.2 137.45 50.85 136.7 49.7 135.9 49.7 134.75 49.7 133.7 50.95 132.95 Z"/>

<path fill="#B078E7" stroke="none" d="
M 50.4 117.65
Q 49.75 117.55 48.4 117.45 47.5 117.35 46.85 117
L 46.65 117
Q 46.4 116.8 46 116.4 45.65 115.75 45.35 115.5 44.65 114.75 42.25 113.95 39.6 113.05 38.9 112.6 37.2 111.45 36.4 111 34.4 109.75 31.3 109.55 28.2 109.35 25.45 110 25 109.45 23.4 109 21.05 108.3 20.85 108.25 19.2 107.1 18.3 106.65 16.05 105.4 11.55 105.05 6.95 104.95 2.55 105.75
L 2.7 107.55
Q 3.15 107.45 3.5 107.45 9.6 107.1 12.5 108.35
L 13.7 107.75
Q 13.5 108.15 13.15 108.7 13.7 109 14.2 109.35 15.15 110.05 15.2 111.25 15.3 112.3 14.55 113.15 18.75 113.05 21.35 113.2 25.05 113.65 27.05 114.95 29.05 116.2 29.5 118.45 29.55 119.2 29.55 120.35 30.9 120.5 32.35 120.35 31.45 120.95 29.4 121.6 29.4 122.05 29.35 122.45
L 28.45 128
Q 30.5 128.45 35.95 127.6 40.9 126.9 43 127.9 43.7 128.15 44.95 129.2 45.95 130 46.95 130.25 47.15 130.35 47.3 130.4
L 48.5 130.6
Q 49.2 130.6 49.85 130.55
L 49.95 130.5
Q 50.95 130.15 52.05 129.5 54.05 128.45 55.35 128.15 56.65 127.25 57 127.15 58.45 126.25 60.15 125.65 58.85 123.65 58.7 121.55 58.4 119.1 58.15 116.7 55.95 117.45 52.9 119.1 52.95 118.55 52.1 118.15 51.55 117.8 50.4 117.65
M 120.5 93.85
Q 118.15 94.8 117.3 96.4 117.1 96.65 116.5 98.9 116.1 100.5 115.05 101.25 113.95 101.95 110.6 102.4 107.35 102.95 106.3 103.75 105.9 104.1 105.35 104.95 104.9 105.7 104.6 106.05 103.6 106.75 101.15 107.4 97.15 108.55 93.15 108.8 90.1 109.25 88.85 108.6 87.8 108 87.5 106.95 87.35 105.45 87.05 104.9 86.3 103.2 83.3 102.35 83.8 105.35 84.5 108.3 85.4 111.5 85.05 115 84.95 117.25 84.5 119.45 85.75 119.7 86.85 119.95 90.45 121.4 92.5 121.8 95.3 122.3 100.9 121.6 106.65 120.75 109.25 121.15 109.55 120.1 111.95 119.05 115.75 117.45 116 117.4 117 116.85 118.3 115.2 120.15 112.95 120.55 111.85 121 110.65 121.2 110 121.55 108.8 122.25 108.25 122.45 108.15 122.55 108.1 120 100.9 125.65 93.65
L 125.6 93.1 125.55 93.1
Q 122.9 92.95 120.5 93.85 Z"/>

<path fill="#333333" stroke="none" d="
M 80.35 81.3
Q 80.05 77.9 80 74.65 79.65 74.7 79.3 74.7
L 76.9 74.75
Q 75.05 74.95 74.6 75
L 74 75.25
Q 75.15 95.85 78.3 116.3 78.95 120.2 77.2 124.2 75.35 128.15 73.3 132.15 66.1 124.5 66.3 115.85 66.7 102 65.5 88.05 64.85 82.1 64.7 76.3
L 61.8 76.45
Q 62 76.6 62.05 76.85 63.9 89 64.45 101.55 64.7 107.8 63.4 113.85 61.7 121.1 68.2 127.2 75.4 134 73.65 141.6 76.75 141.4 77.85 139.35 83.05 129.65 84.5 119.45 84.95 117.25 85.05 115 85.4 111.5 84.5 108.3 83.8 105.35 83.3 102.35 81.2 91.9 80.35 81.3
M 43.5 71.25
Q 42.45 72.8 44.95 73.2 48.65 73.7 52.55 74.3 52.8 74.15 53.35 74 55 73.55 57.95 73.25 51.75 73.2 45.7 73.15 44.55 72.9 44 72.05 43.7 71.65 43.5 71.25
M 58.3 42.8
Q 58.5 43 58.75 43.35 64.8 56.1 60.8 68.9
L 63.45 68.55
Q 66.9 61.95 64.55 54.6 63.6 51.7 63.9 48.9 64.15 45.2 61.7 41.85 61.4 41.45 61.45 40.9
L 58.3 42.8
M 82.65 71.6
Q 85.85 71.45 86.85 72.25 86.35 73.55 83.8 74.15 83.05 74.35 81.25 74.5 95.1 75.6 97.25 67.55 97.65 65.85 95.25 65.05 89.9 63.55 84.05 64.4 81.4 64.8 78.65 64.6 78.2 62.1 77.9 59.55 77.5 59.7 77.05 59.65 76.6 59.4 76.7 58.85 76.85 58.45 77.35 58.2 77.5 58.05 77.6 57.9 77.2 54.35 76.9 50.9 76.9 50.1 77.2 49.35 76.9 49.3 76.55 49.3 74.3 49.25 73.6 48.65
L 74.15 47.9 78.25 47.7
Q 83.3 40.1 73 35.55 69.95 34.3 66.15 34.5 61 34.85 57.95 37.75 67.65 34.8 74.05 38.95
L 73.65 40.9
Q 70.25 49 70.65 57.1 70.75 60.5 71.5 63.95 72.1 68.2 78.75 68.2 85.15 67.75 91.45 67.3
L 92.75 69
Q 84.8 70 77.9 71.9
L 82.65 71.6 Z"/>

<path fill="#BA97DD" stroke="none" d="
M 12 90.95
Q 11.55 90.9 10.95 90.8 11.25 91.25 11.3 91.85
L 14.8 98.1 10.3 93.95 2.7 98.9 2.55 105.75
Q 6.95 104.95 11.55 105.05 16.05 105.4 18.3 106.65 19.2 107.1 20.85 108.25 21.05 108.3 23.4 109 25 109.45 25.45 110 28.2 109.35 31.3 109.55 34.4 109.75 36.4 111 37.2 111.45 38.9 112.6 39.6 113.05 42.25 113.95 44.65 114.75 45.35 115.5 45.65 115.75 46 116.4 46.4 116.8 46.65 117 48.3 116.65 49.25 116.45 52.35 115.7 54.4 115.4 57.65 115.1 57.65 115 57.8 115 58 114.95 57.5 109.4 57.2 103.75 56.3 104.05 53.6 104.25 51.2 104.5 50.2 105 49.25 105.4 48.4 106.25 47.95 106.75 47.25 107.75 45.6 110.15 41.6 112.85 40.75 112.75 40.6 112.05 40.6 111.8 41.1 111.1 41.8 109.9 44.45 106.45 43.85 105.45 45.25 104.05
L 43.7 104.2
Q 43.5 104.35 43.1 104.2 42.9 104.2 42.45 103.85 41.95 103.7 41.55 103.7
L 37.9 103.4
Q 36.15 103.35 35.8 102.85
L 36.25 102 43.25 101.8 43.15 102.05 44.05 102
Q 44.05 102.5 44.9 102.7
L 46.25 103
Q 46.35 103 46.4 102.95 48 101.6 49.65 101.25 50.3 101.15 52.25 101 53.65 100.9 54.5 100.65 54.95 100.45 56.15 99.8 56.5 99.6 56.95 99.5
L 56.6 87.2
Q 56.65 86.9 56.65 86.7
L 56.6 86.7
Q 54.25 86.75 52.3 87.65 48.4 89.35 47.3 92.85 43.95 92.1 40.3 93.1 36.8 94.15 35.7 96.25
L 35.2 97.25
Q 34.9 97.8 34.55 98.1 34.05 98.45 33.1 99 32 99.6 31.7 99.9 31.65 99.95 30.55 100.8 29.85 101.3 29.15 101.55 27.75 102 24.95 101 22.55 100.25 22 99.5 21.75 99.2 21.4 98.45 21.25 97.8 20.95 97.5 20.55 96.95 19.3 96.3 17.95 95.75 17.55 95.15 17.15 94.8 16.85 94.3 16.5 93.65 16.35 93.25 15.3 91.75 12 90.95
M 99.65 84.65
Q 98.85 84.75 96.75 85.45 95.05 86.1 93.8 86.35 91.65 86.75 87 86.5 86.05 85.95 85.05 84.4 84.05 82.8 83.1 82.15 82 81.45 80.35 81.3 81.2 91.9 83.3 102.35 86.3 103.2 87.05 104.9 87.35 105.45 87.5 106.95 87.8 108 88.85 108.6 90.1 109.25 93.15 108.8 97.15 108.55 101.15 107.4 103.6 106.75 104.6 106.05 104.9 105.7 105.35 104.95 105.9 104.1 106.3 103.75 107.35 102.95 110.6 102.4 113.95 101.95 115.05 101.25 116.1 100.5 116.5 98.9 117.1 96.65 117.3 96.4 118.15 94.8 120.5 93.85 122.9 92.95 125.55 93.1
L 125.5 92.3 119.85 87.05
Q 117.75 86.85 115.95 86.35 114 85.65 111.95 85 109.55 85.7 108.4 85.85 107.35 84.65 104.65 84.3 102.15 83.95 99.65 84.65
M 120.5 92.25
Q 119 91.8 117.4 91.4 118.05 91.25 120.45 90.7 121.35 90.6 121.5 90.85
L 121.5 92.25
Q 121.25 92.45 121.1 92.45
L 120.5 92.25 Z"/>

<path fill="#4E336A" stroke="none" d="
M 2.05 38.95
Q 1.85 39.35 1.85 39.9 0.4 39 -0.05 37.85 -0.5 36.75 0.15 35.55 -2.3 35.3 -4.4 34.55 -5.1 34.25 -5.45 34.15 -6.45 34.05 -7.55 34.4 -8.65 34.8 -10.1 35.9 -11.75 37.15 -12.7 37.45 -14.1 38.15 -15.8 38.2 -16.65 42.35 -16.55 46.7 -15.9 48 -15.85 49.65 -15.7 50.9 -15.05 51.65
L -14.35 52.7
Q -14.05 53.3 -13.8 53.8
L -13.75 53.8
Q -13.3 53.7 -12.8 53.45 -11.1 55.05 -7.75 55.15 -8 55.5 -7.8 55.95 -7.7 56.45 -7.15 57 -6 58.4 -5.8 58.8 -5.65 59.4 -5.95 60.25 -6.25 61.35 -6.3 61.6 -6.45 63.4 -4.1 64.65 -3.95 64.8 -3.85 64.85 -3.9 63.05 -3.9 61.2 -3.9 61.1 -3.95 60.8 -3.95 56.85 -2.3 53.4 -0.6 49.7 2.85 46.4 1.55 42.6 2.05 38.95
M -3.1 43.6
L -0.15 40.85 -3.3 48.4 -4.2 45.3 -3.1 43.6 Z"/>

<path fill="#5C5267" stroke="none" d="
M 12.9 20.35
Q 12.75 20.3 12.5 20.25 11.75 20 10.25 19.6 9.6 19.45 8.25 19.45 6.95 19.45 6.4 19.45 5.7 19.4 4.25 19.1 3.4 19.05 1.15 19.3 -1.4 19.6 -3.5 18.95 -4 18.75 -4.55 18.6 -4.95 18.75 -5.35 19.1 -5.6 19.3 -5.95 19.6
L -15.65 37.85
Q -15.8 38 -15.8 38.2 -14.1 38.15 -12.7 37.45 -11.75 37.15 -10.1 35.9 -8.65 34.8 -7.55 34.4 -6.45 34.05 -5.45 34.15 -5.1 34.25 -4.4 34.55 -2.3 35.3 0.15 35.55 -0.5 36.75 -0.05 37.85 0.4 39 1.85 39.9 1.85 39.35 2.05 38.95 2.05 38.65 2.05 38.45 2.1 38.25 2.1 38.2 3.05 33.55 7.7 31.35
L 10.9 26.3
Q 10.4 25.45 10.8 24.4 11.75 22.3 12.9 20.35 Z"/>
</g>

<g id="Duplicate_Items_Folder_Hero_Undead_Gravestone_0_Layer0_0_FILL">
<path fill="#463636" stroke="none" d="
M 209.35 220.8
Q 210.95 220.5 212 219.95 213.6 219.1 213.75 217.65 213.9 216.05 212.45 215.1 210.8 213.75 207.05 213.75 206.8 214.05 205.4 214.15 203.4 214.35 202.35 215.45 201.35 216.6 201.7 217.95 202.15 219.65 204.65 220.5 206.8 221.15 209.35 220.8
M 0.45 192.35
Q 1.75 191.45 2.2 190.3 2.7 189.1 1.75 188 0.7 186.95 -2.6 186.45
L -2.6 186.7
Q -4.85 186.45 -6.05 187.7 -6.85 188.45 -6.85 189.4
L -6.55 190.85
Q -6.45 191.1 -6.3 191.65 -5.75 192.55 -4.1 193.1 -3.1 193.35 -2.6 193.35 -1.25 193.35 0.45 192.35
M 229.85 193.35
Q 230.5 193.95 232 194.5 233.95 195.2 235.2 195.2 236.6 195.15 237.65 194.5 238.8 193.85 239.05 192.8 239.25 191.65 238.05 189.85 237.55 189.05 237 188.6 236.25 188.2 233.85 187.7 234.05 187.95 233.55 187.95 231.4 187.75 230 189.1 228.85 190.3 229.05 191.9 229.3 192.85 229.85 193.35
M 184 212.8
Q 183.4 212.7 182.7 212.65 182.7 212.85 182.4 212.95
L 181.95 213
Q 181.1 213 180.35 213.35 179.65 213.6 179.3 214.05 178.7 214.65 178.7 215.7 178.7 217.05 179.9 217.75 180.45 218.2 181.7 218.5 184.3 218.85 186.45 217.75 188 217.05 188.2 215.75 188.2 214.45 186.35 213.45 185.4 213.05 184 212.8
M 56.4 210.1
Q 56.25 209.15 55.45 208.45 54.55 207.65 53.3 207.5
L 53.3 207.65
Q 52.15 207.75 51.6 207.95 51.15 208.15 50.6 208.6 50.75 207.9 50.5 207.2 50.45 207.05 50.45 207 49.85 205.95 48.55 205.35 47.05 204.55 45.4 204.8 45.15 204.8 45.15 204.85 43.9 204.85 42.8 205.35 42.5 205.45 42.2 205.65 41.5 206.05 41.1 206.6 40.45 207.4 40.6 208.35 40.65 209.3 41.45 210 42.2 210.65 43.4 211.05 45.8 211.8 47.85 211.15 48.65 210.95 49.4 210.45 49.3 210.8 49.5 211.3 49.7 211.8 49.9 212 50.2 212.25 50.75 212.35 53.1 213 54.1 212.75 55.2 212.55 55.85 211.75 56.5 211 56.4 210.1
M 104.4 221.25
Q 104.4 221.35 104.8 221.75 106.05 222.6 107.25 222.5 108.85 222.35 109.2 221.25 109.6 220.3 108.55 219.45 108.05 219.1 107.6 218.95 107.25 218.85 106.9 218.8
L 106.9 218.85 106.9 219.1
Q 106 218.8 105.1 219.4 104.55 219.95 104.4 220.65 104.3 220.95 104.4 221.25
M 153.75 201.4
Q 153.65 201.35 153.55 201.2 152.95 201.05 152.25 201 152.25 201.15 151.95 201.15
L 151.5 201.2
Q 149.9 201.45 149.15 202 148.6 202.45 148.4 203.15
L 148.3 203.9
Q 148.3 204.3 148.55 204.8 148.1 205.6 148.1 206.3 146.9 205.65 145.3 205.75
L 145.3 206.05
Q 144.4 205.95 143.5 206.3 142.65 206.75 142.35 207.4 142.15 208.05 142.35 208.75 142.75 209.4 143.5 209.85 143.9 210.1 144.3 210.25 144.2 211.25 144.65 211.6 145.15 212.05 146.6 212.15 150.5 212.45 152.15 212.05 153.65 211.65 154.75 210.95 155.45 210.55 155.9 210.2 157.1 209.9 158.1 209.15 158.6 208.75 158.95 208.3 158.55 208.45 158.15 208.55 156.9 208.8 155.6 208.5 154.2 208.2 153.5 207.35 153.05 206.8 152.85 206.15 152.45 204.8 153.5 203.7 154.45 202.75 155.9 202.6 155.8 202.6 155.75 202.6 155.6 202.45 155.45 202.3 154.25 201.95 153.75 201.4
M 161.6 202.85
Q 161.8 203.05 161.2 203.05 160.45 202.9 159.75 203.2 160.4 203.7 160.85 204.6 161.1 205.35 161.1 205.65 161.1 206.6 160.25 207.4 159.75 207.95 159.05 208.3 159.6 208.75 160.5 208.95 160.6 209.05 160.85 209.05 161.2 209.65 161.95 210.2 161.4 210.65 161.05 211.35 160.6 212.5 161.25 213.6 161.6 214.05 162.1 214.55 161.85 214.35 161.6 214.3 159.75 213.45 157.6 213.4 154.05 213.3 152.1 214.9 150.25 216.35 150.4 218.85 150.5 219.4 150.55 219.9 150.75 220.65 151.1 221.25 151.95 222.55 154.05 223.2 155.9 223.9 157.9 223.65 159.95 223.45 161.55 222.5 163.15 221.45 163.85 220.1 164.75 218.8 164.5 217.45 164.45 216.95 164.2 216.55 163.85 215.9 163.35 215.4 163.8 215.65 164.45 215.8 164.75 215.95 164.95 216 164.75 216.65 164.8 217.45 164.75 217.65 164.8 217.9 164.95 219.15 166.1 219.95 168.45 221.65 172.75 220.75 177.05 219.75 178 217.7 178.5 216.65 178.05 215.5 177.85 214.9 177.5 214.5 177.05 214 176.4 213.6 174 212.1 170.5 212.35 170.45 212.05 170.4 211.75 170.2 211.35 170.1 211 170.15 210.95 170.35 210.9 172.8 212.75 177.2 212.2 178.85 211.95 180 211.55 180.3 211.65 180.7 211.75 181.85 212 182.75 212 183.7 212 184.8 211.45 185.7 210.9 185.95 210.45 186.55 209.35 185.4 208.45 185.2 208.3 185.1 208.2 185.4 208.2 185.7 208 186.65 207.65 187.1 207 187.05 207.3 187.1 207.65 187.3 208.55 188.2 209.2 189.75 210.2 191.8 209.8 193.75 209.6 194.65 208.45 195.7 207.35 194.7 206.05 193.85 205.05 190.75 204.55 191.05 204.75 190.45 204.75 189.6 204.75 189.4 204.8 188.2 205.05 187.65 205.85 187.6072265625 205.8927734375 187.6 205.9 187.6474609375 205.3921875 187.45 204.8 187.15 203.95 186.05 203.35 185.05 202.75 183.8 202.7 184.45 203.7 183.85 204.85 183.5 205.65 182.5 206.2 181.5 206.65 180.4 206.75 179.35 206.8 178.45 206.45 177.5 207.2 176.15 207.6 174.85 207.9 173.35 207.9 171 207.7 169.4 206.55 167.7 205.35 167.8 203.5 167.9 203.1 168.1 202.7 167.35 203 166.45 203.15 164.95 203.5 163.6 203.3 163.05 203.15 162.6 203 162.55 203 162.55 203.05 162.1 202.9 161.6 202.85
M 147.65 182.8
Q 147.7515625 182.75 147.8 182.75 147.75 182.7 147.65 182.7 147.746875 182.7484375 147.65 182.8
M 39.55 185.35
Q 39.1 185.05 38.55 184.9 37.8 184.7 37 184.65
L 37 184.75
Q 35.55 184.7 34.3 185.35 33.15 185.95 32.65 186.9 32.35 187.45 32.45 188 32.45 188.45 32.65 188.9 32.85 189.4 33.25 189.85 33.2 189.9 33.15 189.95 32.8 190.45 32.7 190.9
L 32.85 191.75
Q 33 192.55 33.2 192.9 33.45 193.15 34.6 193.9 35.65 194.45 36.25 194.5 36.85 194.55 37.35 194.5 37.95 194.45 38.55 194.25 39.1 194.75 39.9 195 41 195.3 42.15 195.15 44.6 195 45.55 193.15 45.85 192.55 45.85 191.95 46.15 191.9 46.4 191.75 46.5 191.95 46.6 192.2 47.5 193.15 48.5 193.5 50.05 193.95 51.1 193.6 52.05 193.15 52.3 192.75 52.9 192.2 52.95 191.55 53.05 191.1 52.95 190.8 53.4 190.8 53.85 190.8 55.75 190.6 57.25 189.85 59.6 188.55 59.45 186.9 59.25 185.35 57.35 184.35 55.85 183.65 53.3 183.3 53.5 183.5 52.85 183.5 51.7 183.35 50.45 184 50.1 184.15 49.8 184.4 48.75 184.05 47.45 184 47.45 184.3 46.75 184.15 45.9 184.05 44.9 184.6 44.4 184.85 44.1 185.25 43.45 185.2 42.9 185.25 42.9 185.4 42.55 185.5 40.95 185.5 40.3 185.75 40.25 185.75 40.25 185.8 39.9 185.55 39.55 185.35
M 203.05 203.15
Q 203.9 202.85 204.25 202.6
L 204.9 201.75
Q 205.75 200.9 205.8 200.8 206.15 199.95 204.65 199.45 203.05 199.1 202.35 198.85
L 202.35 199.05
Q 199.8 199.05 198.25 199.85 197.5 200.2 197.35 200.7 197.15 201 197.35 201.65 197.45 202.35 197.9 202.75 198.4 203.15 199.3 203.3 201.35 203.7 203.05 203.15
M 130.05 209.75
Q 130.45 208.65 129.9 207.7 129.45 206.8 128.25 206.15 126.95 205.5 125.55 205.4 125.55 205.65 124.9 205.65 123.95 205.65 123.05 205.9 121.75 206.35 121.2 207.45 120.85 207.9 120.7 208.75 120.55 209.75 121.3 210.7 122 211.65 123.3 212.1 124.65 212.55 126.15 212.4 127.6 212.2 128.65 211.5 129.7 210.8 130.05 209.75
M 130.85 188
Q 130 188.3 129.85 188.9 129.6 189.4 129.9 190.4
L 130.05 190.8
Q 130.3 191.1 130.7 191.2 131.6 191.65 132.8 191.65 133.9 191.65 134.8 191.2 135.2 191.1 135.55 190.75 135.65 190.6 135.8 190.5 135.8 190.7 135.8 190.8 135.8 191.15 136.45 191.65 137.65 192.45 139.15 192.3 141.1 192.3 141.75 191.2 142.15 190.5 141.5 189.65 141.25 189.3 140.85 189.05
L 140.3 188.8
Q 139.35 188.55 138.3 188.55
L 138.3 188.85
Q 137.55 188.55 136.7 189.1 136.35 189.35 136 189.95 136.1 189.4 135.65 188.85 135.6 188.6 135.15 188.3 134.5 187.85 132.5 187.45
L 132.5 187.7
Q 131.65 187.65 130.85 188
M 134.2 176.85
Q 134.65 178.2 136 178.75 138 179.7 140.8 178.8 142.45 178.25 143 177.35 143.5 176.7 143.35 175.8 143.15 174.95 142.35 174.3 140.8 173.15 138.3 173.05 138.55 173.25 138 173.25 136.1 173.1 134.85 174.3 133.65 175.4 134.2 176.85
M 140.8 167
Q 141 166.85 141.15 166.5 141.2 166.2 141.25 165.8 141.45 164.5 141.2 163.9 140.65 162.25 138.3 161.65
L 138.3 161.9
Q 136.6 162.2 136.1 162.65 135.65 162.85 135.45 163.7 134.85 165.3 135.55 166.25 135.8 166.5 136 166.75 136.95 167.45 138.7 167.55 139.25 167.55 139.8 167.45 140 167.4 140.25 167.35 140.6 167.25 140.8 167
M 130.6 170
Q 129.9 170.45 129.45 171.3 129 172 129.05 172.45 129.25 172.95 129.95 173.25 130.65 173.55 131.45 173.4 132.45 173.35 134.25 172.65 135.35 172.25 135.85 171.9 136.45 171.45 136.35 171 136.3 170.8 136.2 170.6 135.95 170.3 135.2 170.05
L 132.5 169.25 132.5 169.45
Q 132.3 169.45 132.2 169.45 131.3 169.45 130.6 170
M 145.5 171.1
Q 145.8 172 146.5 172.6 146.9 172.95 147.5 173.15 148.2 173.4 148.95 173.4 149.1 173.35 149.3 173.35 150.25 173.3 150.9 172.8 151.3 172.45 151.5 172 151.5 171.85 151.55 171.75 152.5 169.95 151.3 168.8 150.6 168.25 148.8 167.75
L 148.8 168
Q 147.2 167.85 146.25 168.7 146.1 168.4 145.6 168.15 144.6 167.4 143 167.55
L 143 167.75
Q 142.45 167.7 141.95 167.9 141.8 167.95 141.55 168.1 141.35 168.3 140.85 169.1
L 140.75 169.65
Q 140.75 170.2 141.45 170.6 141.8 170.8 142.75 171.1 143.9 171.35 144.4 171.3 144.95 171.25 145.5 171.05
L 145.5 171.1
M 121.3 173.15
L 121.2 174.2
Q 121.2 175.35 122.3 176.15 123.5 177 125.05 176.75 126.9 176.4 127.4 174.7 127.7 173.1 126.3 172 125.5 171.5 124.35 171.35
L 124.35 171.6
Q 123.25 171.3 122.2 172 121.7 172.4 121.6 172.6
L 121.3 173.15
M 121.15 189.95
Q 121.3 189.05 120.7 188.25 119.55 186.85 116.2 186.45
L 116.2 186.7
Q 115.95 186.6 115.65 186.7 115.75 187.35 115.35 188.1 114.65 189.7 112.45 190.05 112.1 190.15 111.75 190.2 111.85 190.45 112 190.7 112.35 191.4 113.7 192.05 114.55 192.5 115.35 192.55 118.3 193.05 120.05 191.65 120.95 190.9 121.15 189.95
M 116.75 178.25
L 116.95 177.35
Q 117 177.15 116.85 176.95 116.55 176.7 116.55 176.55
L 115.6 176.55
Q 115.55 176.95 114.95 177.25
L 114.1 177.65 114.5 178.25
Q 114.6 178.25 115.65 178.45 116.35 178.5 116.75 178.25
M 99.3 188.6
Q 98.9 189.1 98.9 189.6 98.9 190.2 99.15 190.5 100.45 192 102.9 191.95 105.05 191.95 106.7 190.55 107.3 190.25 107.35 189.85 107.6 189.25 106.55 188.5 104.55 187.25 102.25 187.3
L 102.25 187.45
Q 100.3 187.45 99.3 188.6
M 64.35 197
Q 63.45 197.25 62.2 196.85 62 196.75 61.7 196.65 61.15 197.35 60.8 198.3 60.4 199.25 60.45 200.15 60.55 202 62.75 203.4 64.45 204.55 66.75 204.65 68.5 204.8 70.3 204.15 72 203.45 72.9 202.3 73.9 201.15 74 199.75 74 198.4 73.1 197.2 71.35 194.75 67.25 194.2 67.4 194.3 67.2 194.45 67 194.5 66.75 194.5 66.55 194.5 66.45 194.5 66.45 195 65.9 195.7 65.2 196.7 64.35 197
M 49.85 196.2
Q 49.7 196.35 49.15 196.4 48.65 196.45 48.45 196.45 47.3 196.5 46.4 197.15 45.55 197.75 45.2 198.65 44.8 199.65 45.1 200.5 44.9 200.3 44.65 200.15 43.5 199.4 41.75 198.85 41.75 199 41.4 199.1
L 40.9 199.1
Q 40.15 199.1 39.45 199.6 38.45 200.25 38.2 201.3 37.9 202.3 38.6 203.2 39.2 204.05 40.6 204.5 41.9 204.85 43.3 204.6 44.4 204.45 45.15 203.85 45.9 203.15 45.95 202.35 45.95 202.05 45.9 201.75 46.6 202.45 47.75 202.85 49.4 203.4 51.05 203.05 52.6 202.75 53.7 201.65 54.6 200.5 54.45 199.3 54.2 198.05 52.9 197.15 51.5 196.25 49.85 196.2
M 60.1 181.1
Q 58.8 181.65 58.6 182.6 58.55 182.85 58.7 183.25 58.85 183.95 59.25 184.25 59.45 184.5 60.2 184.7 62.25 185.25 63.15 185.1 64.1 184.9 64.9 184.15 65.2 183.95 65.5 183.45 65.9 182.45 64.85 181.55 64.15 180.9 62.55 180.55
L 62.55 180.8
Q 61.25 180.75 60.1 181.1
M 80.45 168.65
Q 78.4 168.75 77.3 169.95 77.1 170.15 76.85 170.4 76.8 170.45 76.8 170.55 75.85 172 76.95 173.6 77.65 174.4 78.2 174.75 79.4 175.4 81.05 175.4 82.65 175.45 83.95 174.8 85.15 174.25 85.65 173.15 86.15 172.2 85.85 171.25 85.8 171.15 85.75 171 85.3 169.95 84.05 169.25 83.1 168.75 82.1 168.55 81.7 168.5 81.3 168.45 81.15 168.55 80.45 168.65
M 63.2 172.7
Q 63.2 172.5 63.25 172.3 63.25 171.95 63.2 171.55 63.05 170.4 62.1 169.55 60.4 168.1 57.95 168.1 58.1 168.2 57.6 168.2 56.45 168.15 55.4 168.55 55.2 168.65 54.9 168.75 54.6 168.9 54.35 169.05 52.95 170 52.6 171.3 52.3 172.3 52.85 173.3 52.9 173.4 53.05 173.65 53.4 174.2 53.9 174.65 54.35 175 54.95 175.25 56.25 175.9 57.8 175.9 59.35 175.9 60.7 175.3 61.8 174.8 62.5 174 62.5 173.95 62.55 173.9 62.6 173.8 62.75 173.7 63.05 173.15 63.2 172.7
M 35.8 177.65
Q 35.6 177.4 35.5 177.3 35.25 177.1 35.15 177.05 35 177.05 34.25 177.05
L 33.8 177.05
Q 33.55 177.1 33.45 177.4
L 32.65 178.9
Q 32.65 179 32.7 179.05 33 179.6 34.3 179.85
L 34.65 179.9 35.1 179.85 36.15 179.55 36.25 179.3 36.35 178.7
Q 36.35 178.3 35.8 177.65
M 206.55 194.55
Q 205.35 195.5 205.25 196.8 205 198.1 205.95 199.05 206.65 199.7 207.7 200 208.8 200.35 209.8 200.2 212.25 200.05 213.2 198.35 214.1 196.7 212.45 195.05 211.2 193.7 209.35 193.65 209.4 193.7 209.3 193.85 209.05 193.9 208.95 193.85 208.4 193.75 207.9 193.9 207.3 194 206.55 194.55
M 188.7 189.45
Q 188.2 189.7 187.8 190.7
L 189.4 192.25
Q 189.75 192.5 189.8 192.5
L 191.65 192.55
Q 192.5 192.5 192.7 192.25 192.75 192.2 193.1 191.9 193.35 191.6 193.35 191.1 193.25 190.8 192.4 190.25
L 190.4 189.45
Q 189.3 189.35 189.15 189.4
L 188.7 189.45
M 165.85 165.55
Q 165.6 165.3 165.25 165.05 163.95 164.15 160.9 162.5 151.25 157.3 144.6 155.4 140.55 154.25 136.45 153.8 132.3 151.25 128 150.95 124.9 150.7 122.3 151.85 119.65 152.95 118.75 154.75 118.3 154.85 117.85 154.9 114 154.5 106.4 155.8 106.3 155.8 106.3 155.85 104.45 155.7 102.2 155.3 100.1 154.9 98.65 154.65 94.3 150.35 87.05 148.75 79.45 147.05 73.45 149.5 71.3 150.25 68.8 151.85 67.4 152.8 64.55 154.7 58.25 158.75 50.75 160.8 46.1 160.8 44.15 160.95 38.15 161.5 33.15 163.6 32.85 163.6 32.7 163.6 23.6 165.15 18.9 168.4 16 170.3 14.75 173.1 13.4 175.95 14.55 178.5 15.25 180 16.7 181.05 16.5 181.85 16.6 182.6 16.7 183.1 16.9 183.6 16.7 183.5 16.55 183.4 15.3 182.75 13.65 182.45
L 13.65 182.7
Q 11.65 182.45 10.4 183.8 9.6 184.8 9.7 186.5 10 187.45 10.4 187.95 10.95 188.55 12.4 188.9 13.6 189.15 14.4 189.1
L 14.05 189.4
Q 13.95 189.7 13.95 190
L 13.75 190.55
Q 13.7 190.85 14 191.3 14.6 192.2 15.9 192.7 17.3 193.15 18.55 192.75 19.5 192.35 19.8 191.85 20.5 191.05 20.35 190.2 20.15 189.35 19.25 188.7 18.5 188.2 17.2 187.95
L 17.2 188.15
Q 16.9 188.1 16.6 188.1 17.15 187.6 17.55 186.9 18.05 186.05 18.05 185.45 18.3 185.7 18.55 185.9 22 188.75 27.6 188.55 27.9 188.55 28.15 188.55 26.55 187.7 25.7 186.6 26.35 186.55 26.9 186.3 27.05 186.25 27.2 186.2 28 186.75 29.2 186.9 30.65 187.15 31.8 186.6 32.3 186.45 33.15 185.75 33.9 185.1 34.2 184.45 34.8 183.1 33.35 181.85 32.8 181.35 32 181.05 31.95 180.45 31.5 179.9 31.2 179.6 30.8 179.35 29.55 178.6 27.65 178.75
L 27.65 178.9
Q 27.5 178.9 27.25 178.9 28.15 178.2 29.85 177.35 32 176.25 32.85 175.6 34.3 174.5 35.8 172.25 37.5 169.6 38.35 168.75 41.75 165.4 48.85 164 52.2 163.35 59.35 162.8
L 59.4 162.8
Q 60.55 162.75 61.85 162.7 62.55 162.65 63.35 162.65
L 63.45 162.2
Q 63.4 161.85 63.55 161.65 63.6 161.65 63.9 161.35 64.8 160.85 66.1 160.85
L 66.1 160.65
Q 68.2 161.25 68.55 161.95 68.7 162.1 68.75 162.2 73.75 161.85 80.85 161.2 81.3990234375 161.1001953125 81.85 161.1 82 160.55 82.4 160.1 83.7 158.8 85.4 158.95 86 158.95 86 158.75 88.15 159.25 88.6 159.5 88.95 159.7 89.15 159.95 89.75 159.85 90.6 159.8
L 90.6 159.6
Q 92.1 159.9 92.8 160.65 95.75 160.55 98.3 160.65 99.05 160.65 99.8 160.7 100.65 160.75 101.7 160.8 103.45 160.85 106.05 161.05 106.65 161.05 107.35 161.1 111.7 161.2 114.85 160.7 116.25 160.45 122.5 158.65 125.55 157.7 128 157.5 128.85 156.95 130.15 157.05
L 130.15 156.85
Q 131.3 157.2 132 157.55 134.9 157.9 137.9 159.2 140.15 160.15 143.15 161.95 143.85 162.35 144.55 162.75 145.15 163.1 145.75 163.55 145.85 162.5 146.55 162 147.45 161.35 148.8 161.5
L 148.8 161.3
Q 151.4 161.8 152.25 163.5 152.95 164.7 152.2 165.55 151.85 165.9 151.25 166.15 152.9 166.8 154.3 167.05 154.15 167.25 154.05 167.45 153.75 167.85 153.75 168.1 153.5 168.55 153.55 169 153.65 169.4 154.1 170.05 153.5 170.2 153.05 170.5 151.9 171.15 151.65 172 151.5 172.2 151.5 172.35 151.45 172.7 151.55 173.3 151.65 173.5 151.75 173.65 151.25 173.65 151.1 173.7
L 150.6 174
Q 150.55 174 150.5 174.15 149.9 174.65 149.75 174.95 149.45 175.25 149.45 175.45 149.45 175.8 149.8 175.95 150.25 176.5 151.05 176.85 151.9 177.25 152.75 177.15 153.55 177.05 154.15 176.5 154.3 176.3 154.45 176.2 154.55 175.95 154.6 175.8 155.3 175.95 156.1 175.9 157.9 175.8 159.05 174.8 159.2 174.7 159.3 174.55 159.4 174.75 159.5 174.95 159.7 175.25 159.85 175.45 160.45 176.25 161.4 176.85 161.75 177.05 162.1 177.25 163.55 177.95 165.2 178 166.85 178.1 168.4 177.35 169.7 176.8 170.2 175.85 170.35 175.7 170.4 175.6 170.6 175 170.6 174.25 171.2 173.9 171.35 173.6 172 172.6 170.9 171.65 170.2 171 169.15 170.65 168.85 170.55 168.55 170.5
L 168.55 170.75
Q 168.05 170.65 167.4 170.7 167.15 170.6 166.85 170.5 165.85 170.2 164.8 170.1 163.6 170.05 161.95 170.5 160.55 171.05 160.05 171.6 159.8 171.75 159.75 171.9 159.45 171.45 159.1 171.05 159.5 170.6 159.8 169.95 160.15 169.3 160.15 168.65 160.15 167.9 159.6 167.3 161.35 167.25 164.6 167.1 166.2 167.1 167.75 167.25 174.45 167.7 180.5 170.6 187.15 173.8 190.4 178.7
L 190.35 178.75
Q 190.3 178.9 190.3 179.1 190.3 179.25 190.3 179.4 190.2 179.35 190.2 179.3 189.4 178.6 188.2 178.2 187.2 177.9 186.3 177.9 186.1 177.65 186.05 177.4 185.5 176.15 183.8 175.4 182.05 174.75 180.35 175.1 180.3 175.25 179.7 175.1 179.2 175.05 178.45 175.15 177.35 175.45 176.55 176.15 176.4 176.25 176.35 176.4 175.5 176.15 174.45 175.95 174.7 176.2 174.05 176.2 171.75 176 170.45 177.6 169.5 178.7 169.55 180.15 169.35 179.95 169.05 179.75 167.35 178.55 165.15 178.45 165.35 178.75 164.55 178.75 162.6 178.75 161.05 179.7 159.5 180.7 159.2 182.1 158.9 183.45 159.75 184.8 159.45 184.6 159.2 184.5 158.05 183.95 155.8 183.95 156.2 184.15 155.45 184.15 154.5 184.05 153.75 184.35 153.75 184.55 153.75 184.75 153.65 185.6 152.75 186.6 152.45 187.05 151.95 187.25 150.9 188 149.45 187.75 147.85 187.65 146.95 186.4 145.9 185.1 146.8 183.65 147.15 183.2 147.5 182.95 147.4 182.95 147.2 182.9 144.65 182.75 142.8 184.45 142.25 185.05 141.95 185.75 141.8 185.8 141.25 186.05
L 140.95 186.6
Q 140.65 187.15 140.8 187.45 140.85 188 141.85 188.45 142.25 190 143.75 191 145.85 192.35 148.6 191.95 151.3 191.65 152.9 189.95 153.1 189.75 153.25 189.6 154.55 190.3 156.85 190.25 158.5 190.15 159.25 189.7 159.75 189.55 160.1 189.15 160.5 189.45 161.1 189.7 161.85 189.9 162.9 189.95 164.05 189.95 164.8 189.7 164.45 189.3 164.2 188.85 163.55 187.4 164.75 186.15 165.85 184.9 168.05 184.75 168.55 184.75 168.55 184.6 169.55 184.5 170.45 184.65 170.8 184.1 170.9 183.55 170.9 183.6 170.9 183.7 171.15 184.4 171.35 184.9 171.75 185.05 172.2 185.3 174 186.25 174.25 187.65 174.5 188.75 173.75 189.95 175.1 190.05 176.15 189.65 176.45 189.55 176.75 189.4 177.2 189.55 177.65 189.65 178.75 189.85 180.85 189.7 183.45 189.65 184.45 189.05 185.45 188.55 185.7 187.7 185.95 186.95 185.55 186.3 187.1 186.3 188.4 185.75 190.15 185.15 191.05 184 191.35 183.55 191.5 183 191.6 182.8 191.65 182.65 192.3 183.25 193.35 183.6 194.65 184 196 183.8 198.7 183.6 200.45 181.65
L 200.5 181.65
Q 200.65 181.65 200.75 181.7 205.95 183 209.6 184.8 213.9 187 216.2 190.2 217.55 191.95 217.95 193.75 218.65 193.85 219.55 193.9
L 220.7 193.1
Q 219.7 192.2 219.35 190.25 219 188 218.35 187.15 217.4 185.75 213.75 184.35 211.05 183.35 210.1 182.95 210.8 182.8 211.3 182.3 211.35 182.25 211.4 182.2 211.8 182.45 212.45 182.45 213.25 182.55 214.4 182.1
L 214.85 181.85
Q 215.2 181.6 215.25 181.2 215.7 180.25 215.35 179.6 215 178.85 212.9 178.25
L 212.9 178.45
Q 211.8 178.55 211.35 178.75 210.55 178.85 210.3 179.45
L 210.3 179.6
Q 209.8 179.4 209.35 179.3
L 209.35 179.6
Q 208.2 179.4 207.25 179.85 206.65 180.15 206.55 180.2
L 206.15 180.7
Q 206.1 180.85 206.05 181 205.95 181 205.9 180.9 203 178.75 201.45 177.65 200.25 176.8 199.05 176.3 199 175.95 198.9 175.6 198.15 173.25 194.75 171 189.4 167.25 181.85 165.7 174.4 164.15 167.05 165.3 166.45 165.4 165.85 165.55 Z"/>

<path fill="#996666" stroke="none" d="
M 164.95 216
Q 164.75 215.95 164.45 215.8 163.8 215.65 163.35 215.4 163.85 215.9 164.2 216.55 164.45 216.95 164.5 217.45 164.6 217.45 164.8 217.45 164.75 216.65 164.95 216
M 155.9 202.6
Q 156.2 202.6 156.5 202.6 156.85 202.7 156.95 202.6 156.3 202.6 155.75 202.35 155.6 202.3 155.45 202.3 155.6 202.45 155.75 202.6 155.8 202.6 155.9 202.6
M 159.5 203.1
Q 159.7 203.15 159.75 203.2 160.45 202.9 161.2 203.05 161.8 203.05 161.6 202.85 162.1 202.9 162.55 203.05 162.55 203 162.6 203 161.4 202.55 160.8 201.75 160.25 202 159.75 202.25 158.9 202.6 158.05 202.6 159.1 202.85 159.5 203.1
M 170.45 184.65
Q 170.85 184.75 171.35 184.9 171.15 184.4 170.9 183.7 170.9 183.6 170.9 183.55 170.8 184.1 170.45 184.65
M 164.8 170.1
Q 165.85 170.2 166.85 170.5 167.15 170.6 167.4 170.7 168.05 170.65 168.55 170.75
L 168.55 170.5
Q 168.85 170.55 169.15 170.65 170.2 171 170.9 171.65 172 172.6 171.35 173.6 171.2 173.9 170.6 174.25 170.6 175 170.4 175.6 170.35 175.7 170.2 175.85 169.7 176.8 168.4 177.35 166.85 178.1 165.2 178 163.55 177.95 162.1 177.25 161.75 177.05 161.4 176.85 160.45 176.25 159.85 175.45 159.7 175.25 159.5 174.95 159.4 174.75 159.3 174.55 159.2 174.7 159.05 174.8 157.9 175.8 156.1 175.9 155.3 175.95 154.6 175.8 154.55 175.95 154.45 176.2 154.3 176.3 154.15 176.5 153.55 177.05 152.75 177.15 151.9 177.25 151.05 176.85 150.25 176.5 149.8 175.95 149.45 175.8 149.45 175.45 149.45 175.25 149.75 174.95 149.9 174.65 150.5 174.15 150.55 174 150.6 174
L 151.1 173.7
Q 151.25 173.65 151.75 173.65 151.65 173.5 151.55 173.3 151.45 172.7 151.5 172.35 151.5 172.2 151.65 172 151.9 171.15 153.05 170.5 153.5 170.2 154.1 170.05 153.65 169.4 153.55 169 153.5 168.55 153.75 168.1 153.75 167.85 154.05 167.45 154.15 167.25 154.3 167.05 152.9 166.8 151.25 166.15 150.95 166.25 150.75 166.3 148.65 166.95 147.4 166.4 146.4 166 145.9 165.15 145.55 164.4 145.75 163.55 145.15 163.1 144.55 162.75 143.85 162.35 143.15 161.95 140.15 160.15 137.9 159.2 134.9 157.9 132 157.55 132.45 157.7 132.65 157.95 132.9 158.15 133.2 158.65 133.6 159.7 132.9 160.65 132.3 161.4 131.15 161.8 129.2 162.2 127.6 160.95 127.05 160.45 126.85 159.95 126.65 159.3 127.15 158.5
L 127.5 157.9
Q 127.65 157.65 128 157.5 125.55 157.7 122.5 158.65 116.25 160.45 114.85 160.7 111.7 161.2 107.35 161.1 106.65 161.05 106.05 161.05 103.45 160.85 101.7 160.8 100.65 160.75 99.8 160.7 99.05 160.65 98.3 160.65 95.75 160.55 92.8 160.65 93 160.75 93.05 160.8 93.25 161.05 93.4 161.3 93.45 161.25 93.5 161.25 94.35 161 95.15 161.1
L 95.15 160.85
Q 96.65 161 97.75 161.85 99.4 163.25 98.45 164.75 98.25 165.05 97.45 165.6 96.45 166.25 95.45 166.25 94.75 166.25 94.4 166.15 93.7 165.95 93.15 165.85 92.75 165.85 92.35 165.8 91.35 165.7 90.5 165
L 89.95 164.25 89.95 164.1
Q 89.5 163.95 89.1 163.9 89.05 163.9 88.95 164 88.65 164.25 88.3 164.45 88.3 164.85 88.15 165.3 88.05 165.45 88 165.6 87.6 166.45 86.65 167.05 85.85 167.55 85 167.75 84.65 167.85 84.2 167.95 82.3 168.3 81.1 167.95 80.2 167.75 79.55 167.25 79.1 166.85 78.7 166.45 78.5 166.3 78.4 166.15 77.75 165.3 77.95 164.15 78.1 162.35 80.4 161.5 81.05 161.3 81.8 161.2 81.8 161.1015625 81.85 161.1 81.3990234375 161.1001953125 80.85 161.2 73.75 161.85 68.75 162.2 68.85 162.8 68.4 163.7
L 68.15 164.15 67.5 164.5
Q 66.45 164.95 65.55 164.85 64.55 164.7 63.8 163.9 63.2 163.35 63.25 162.8
L 63.35 162.65
Q 62.55 162.65 61.85 162.7 60.55 162.75 59.4 162.8
L 59.35 162.8
Q 52.2 163.35 48.85 164 41.75 165.4 38.35 168.75 37.5 169.6 35.8 172.25 34.3 174.5 32.85 175.6 32 176.25 29.85 177.35 28.15 178.2 27.25 178.9 27.5 178.9 27.65 178.9
L 27.65 178.75
Q 29.55 178.6 30.8 179.35 31.2 179.6 31.5 179.9 31.95 180.45 32 181.05 32.8 181.35 33.35 181.85 34.8 183.1 34.2 184.45 33.9 185.1 33.15 185.75 32.3 186.45 31.8 186.6 30.65 187.15 29.2 186.9 28 186.75 27.2 186.2 27.05 186.25 26.9 186.3 26.35 186.55 25.7 186.6 26.55 187.7 28.15 188.55 28.5 188.8 28.9 188.9 30.9 189.85 33.15 189.95 33.2 189.9 33.25 189.85 32.85 189.4 32.65 188.9 32.45 188.45 32.45 188 32.35 187.45 32.65 186.9 33.15 185.95 34.3 185.35 35.55 184.7 37 184.75
L 37 184.65
Q 37.8 184.7 38.55 184.9 39.1 185.05 39.55 185.35 39.9 185.55 40.25 185.8 40.25 185.75 40.3 185.75 40.95 185.5 42.55 185.5 42.9 185.4 42.9 185.25 43.45 185.2 44.1 185.25 44.4 184.85 44.9 184.6 45.9 184.05 46.75 184.15 47.45 184.3 47.45 184 48.75 184.05 49.8 184.4 50.1 184.15 50.45 184 51.7 183.35 52.85 183.5 53.5 183.5 53.3 183.3 55.85 183.65 57.35 184.35 59.25 185.35 59.45 186.9 59.6 188.55 57.25 189.85 55.75 190.6 53.85 190.8 53.4 190.8 52.95 190.8 53.05 191.1 52.95 191.55 52.9 192.2 52.3 192.75 52.05 193.15 51.1 193.6 50.05 193.95 48.5 193.5 47.5 193.15 46.6 192.2 46.5 191.95 46.4 191.75 46.15 191.9 45.85 191.95 45.85 192.55 45.55 193.15 44.6 195 42.15 195.15 41 195.3 39.9 195 39.1 194.75 38.55 194.25 37.95 194.45 37.35 194.5 36.85 194.55 36.25 194.5 35.65 194.45 34.6 193.9 33.45 193.15 33.2 192.9 33 192.55 32.85 191.75 31.45 195.3 33.6 199.25 36.3 203.95 42.2 205.65 42.5 205.45 42.8 205.35 43.9 204.85 45.15 204.85 45.15 204.8 45.4 204.8 47.05 204.55 48.55 205.35 49.85 205.95 50.45 207 54.15 207.35 55.8 207.7 58.9 208.35 63.6 210.5 69.15 213.05 71.2 213.7 75.7 215.1 83.15 215.6 93.8 216.3 95.45 216.55 99.55 217.1 106.9 218.85
L 106.9 218.8
Q 107.25 218.85 107.6 218.95 108.25 219.1 108.95 219.3 127.5 222.85 150.55 219.9 150.5 219.4 150.4 218.85 150.25 216.35 152.1 214.9 154.05 213.3 157.6 213.4 159.75 213.45 161.6 214.3 161.85 214.35 162.1 214.55 161.6 214.05 161.25 213.6 160.6 212.5 161.05 211.35 161.4 210.65 161.95 210.2 161.2 209.65 160.85 209.05 160.6 209.05 160.5 208.95 159.6 208.75 159.05 208.3
L 158.95 208.3
Q 158.6 208.75 158.1 209.15 157.1 209.9 155.9 210.2 155.45 210.55 154.75 210.95 153.65 211.65 152.15 212.05 150.5 212.45 146.6 212.15 145.15 212.05 144.65 211.6 144.2 211.25 144.3 210.25 143.9 210.1 143.5 209.85 142.75 209.4 142.35 208.75 142.15 208.05 142.35 207.4 142.65 206.75 143.5 206.3 144.4 205.95 145.3 206.05
L 145.3 205.75
Q 146.9 205.65 148.1 206.3 148.1 205.6 148.55 204.8 148.3 204.3 148.3 203.9
L 148.4 203.15
Q 148.6 202.45 149.15 202 149.9 201.45 151.5 201.2
L 151.95 201.15
Q 152.25 201.15 152.25 201 152.95 201.05 153.55 201.2 152.85 200.45 152.95 199.3 153.1 198.8 153.4 198.4 152.1 198.05 151.3 197.45 150.4 196.65 150.4 195.65 150.25 194.25 151.45 193.35 152.9 192.3 154.6 192.55
L 154.6 192.3
Q 156.1 192.45 157.2 193.1 158.45 193.85 158.7 194.8 158.95 195.85 158.4 196.8
L 158.4 196.85
Q 159.85 197 160.85 197.65 161.6 196.55 163.2 196.2 163.95 196.05 164.75 196.15 165.15 196.15 165.15 195.95 166.55 196 167.8 196.6 169.15 197.25 169.7 198.2 170.2 199.15 170.05 200.25 170 200.55 169.9 200.85 170 200.8 170.05 200.75 170.85 200.35 172.1 200.05 173.9 199.75 175.55 200.05 177.2 200.35 178.4 201.35
L 178.45 201.4
Q 179.05 201.2 179.65 201.2 180.4 201.2 180.3 201 181.85 201.15 182.85 201.85 183.45 202.25 183.8 202.7 185.05 202.75 186.05 203.35 187.15 203.95 187.45 204.8 187.6474609375 205.3921875 187.6 205.9 187.6072265625 205.8927734375 187.65 205.85 188.2 205.05 189.4 204.8 189.6 204.75 190.45 204.75 191.05 204.75 190.75 204.55 193.85 205.05 194.7 206.05 195.7 207.35 194.65 208.45 193.75 209.6 191.8 209.8 189.75 210.2 188.2 209.2 187.3 208.55 187.1 207.65 187.05 207.3 187.1 207 186.65 207.65 185.7 208 185.4 208.2 185.1 208.2 185.2 208.3 185.4 208.45 186.55 209.35 185.95 210.45 185.7 210.9 184.8 211.45 183.7 212 182.75 212 181.85 212 180.7 211.75 180.3 211.65 180 211.55 178.85 211.95 177.2 212.2 172.8 212.75 170.35 210.9 170.15 210.95 170.1 211 170.2 211.35 170.4 211.75 170.45 212.05 170.5 212.35 174 212.1 176.4 213.6 177.05 214 177.5 214.5 178.35 214.3 179.3 214.05 179.65 213.6 180.35 213.35 181.1 213 181.95 213
L 182.4 212.95
Q 182.7 212.85 182.7 212.65 183.4 212.7 184 212.8 190.05 211.2 198.7 208.75 206.55 206.5 210.65 204.3 216.65 201.15 217.75 197 218.2 195.4 217.95 193.75 217.55 191.95 216.2 190.2 213.9 187 209.6 184.8 205.95 183 200.75 181.7 200.65 181.65 200.5 181.65
L 200.45 181.65
Q 198.7 183.6 196 183.8 194.65 184 193.35 183.6 192.3 183.25 191.65 182.65 191.6 182.8 191.5 183 191.35 183.55 191.05 184 190.15 185.15 188.4 185.75 187.1 186.3 185.55 186.3 185.95 186.95 185.7 187.7 185.45 188.55 184.45 189.05 183.45 189.65 180.85 189.7 178.75 189.85 177.65 189.65 177.2 189.55 176.75 189.4 176.45 189.55 176.15 189.65 175.1 190.05 173.75 189.95 173.75 190 173.7 190.05 172.55 191.95 170.35 192.05 168.4 192.25 166.4 190.9 165.35 190.3 164.8 189.7 164.05 189.95 162.9 189.95 161.85 189.9 161.1 189.7 160.5 189.45 160.1 189.15 159.75 189.55 159.25 189.7 158.5 190.15 156.85 190.25 154.55 190.3 153.25 189.6 153.1 189.75 152.9 189.95 151.3 191.65 148.6 191.95 145.85 192.35 143.75 191 142.25 190 141.85 188.45 140.85 188 140.8 187.45 140.65 187.15 140.95 186.6
L 141.25 186.05
Q 141.8 185.8 141.95 185.75 142.25 185.05 142.8 184.45 144.65 182.75 147.2 182.9 147.4 182.95 147.5 182.95 147.55 182.85 147.65 182.8 147.746875 182.7484375 147.65 182.7 147.75 182.7 147.8 182.75 148.75 182.15 149.95 182.3
L 149.95 182.1
Q 152.5 182.5 153.25 183.3 153.55 183.7 153.75 184.35 154.5 184.05 155.45 184.15 156.2 184.15 155.8 183.95 158.05 183.95 159.2 184.5 159.45 184.6 159.75 184.8 158.9 183.45 159.2 182.1 159.5 180.7 161.05 179.7 162.6 178.75 164.55 178.75 165.35 178.75 165.15 178.45 167.35 178.55 169.05 179.75 169.35 179.95 169.55 180.15 169.5 178.7 170.45 177.6 171.75 176 174.05 176.2 174.7 176.2 174.45 175.95 175.5 176.15 176.35 176.4 176.4 176.25 176.55 176.15 177.35 175.45 178.45 175.15 179.2 175.05 179.7 175.1 180.3 175.25 180.35 175.1 182.05 174.75 183.8 175.4 185.5 176.15 186.05 177.4 186.1 177.65 186.3 177.9 187.2 177.9 188.2 178.2 189.4 178.6 190.2 179.3 190.2 179.35 190.3 179.4 190.3 179.25 190.3 179.1 190.3 178.9 190.35 178.75
L 190.4 178.7
Q 187.15 173.8 180.5 170.6 174.45 167.7 167.75 167.25 166.2 167.1 164.6 167.1 161.35 167.25 159.6 167.3 160.15 167.9 160.15 168.65 160.15 169.3 159.8 169.95 159.5 170.6 159.1 171.05 159.45 171.45 159.75 171.9 159.8 171.75 160.05 171.6 160.55 171.05 161.95 170.5 163.6 170.05 164.8 170.1
M 187.8 190.7
Q 188.2 189.7 188.7 189.45
L 189.15 189.4
Q 189.3 189.35 190.4 189.45
L 192.4 190.25
Q 193.25 190.8 193.35 191.1 193.35 191.6 193.1 191.9 192.75 192.2 192.7 192.25 192.5 192.5 191.65 192.55
L 189.8 192.5
Q 189.75 192.5 189.4 192.25
L 187.8 190.7
M 205.25 196.8
Q 205.35 195.5 206.55 194.55 207.3 194 207.9 193.9 208.4 193.75 208.95 193.85 209.05 193.9 209.3 193.85 209.4 193.7 209.35 193.65 211.2 193.7 212.45 195.05 214.1 196.7 213.2 198.35 212.25 200.05 209.8 200.2 208.8 200.35 207.7 200 206.65 199.7 205.95 199.05 205 198.1 205.25 196.8
M 39.15 176.8
Q 38.95 176.6 38.75 176.45 37.95 175.6 37.95 174.55 37.9 173.6 38.6 172.75 39.95 171.05 42.2 171.2 42.5 171.25 42.65 171.2 42.95 171.1 42.8 170.95 44.65 170.95 46.1 171.45 47.95 172.15 48.55 173.6 48.6 173.85 48.65 174.15 48.75 175 48.5 175.65 48.1 176.5 46.95 177.1 46.25 177.65 44.8 177.9 43.3 178.2 41.85 177.95 41.55 177.9 41.4 177.9 39.95 177.55 39.15 176.8
M 35.5 177.3
Q 35.6 177.4 35.8 177.65 36.35 178.3 36.35 178.7
L 36.25 179.3 36.15 179.55 35.1 179.85 34.65 179.9 34.3 179.85
Q 33 179.6 32.7 179.05 32.65 179 32.65 178.9
L 33.45 177.4
Q 33.55 177.1 33.8 177.05
L 34.25 177.05
Q 35 177.05 35.15 177.05 35.25 177.1 35.5 177.3
M 61.45 165.1
L 61.45 164.85
Q 63.05 164.85 63.9 165.45
L 64.05 165.7 64.1 166 64.05 166.5
Q 63.9 167.05 62.85 167.25 62.2 167.4 60.9 167.25
L 60.55 167.1 60.4 166.85
Q 59.8 166.25 59.75 165.85 60.2 165 61.45 165.1
M 63.25 172.3
Q 63.2 172.5 63.2 172.7 63.05 173.15 62.75 173.7 62.6 173.8 62.55 173.9 62.5 173.95 62.5 174 61.8 174.8 60.7 175.3 59.35 175.9 57.8 175.9 56.25 175.9 54.95 175.25 54.35 175 53.9 174.65 53.4 174.2 53.05 173.65 52.9 173.4 52.85 173.3 52.3 172.3 52.6 171.3 52.95 170 54.35 169.05 54.6 168.9 54.9 168.75 55.2 168.65 55.4 168.55 56.45 168.15 57.6 168.2 58.1 168.2 57.95 168.1 60.4 168.1 62.1 169.55 63.05 170.4 63.2 171.55 63.25 171.95 63.25 172.3
M 68.1 173.05
Q 68.5 173.05 68.45 172.85 69.75 172.85 70.9 173.5 71.1 173.55 71.2 173.65 72.1 174.15 72.55 174.95 73.7 176.55 72.75 178.7 72.35 179.65 71.35 180.3 69.55 181.6 66.75 181 65.25 180.7 64.35 180 63.2 179.25 63.05 178.25 62.9 177.6 63.7 175.9 64.35 174.75 64.9 174.1 65.15 173.85 65.4 173.65 66.45 172.95 68.1 173.05
M 77.3 169.95
Q 78.4 168.75 80.45 168.65 81.15 168.55 81.3 168.45 81.7 168.5 82.1 168.55 83.1 168.75 84.05 169.25 85.3 169.95 85.75 171 85.8 171.15 85.85 171.25 86.15 172.2 85.65 173.15 85.15 174.25 83.95 174.8 82.65 175.45 81.05 175.4 79.4 175.4 78.2 174.75 77.65 174.4 76.95 173.6 75.85 172 76.8 170.55 76.8 170.45 76.85 170.4 77.1 170.15 77.3 169.95
M 56.95 165.45
Q 57.1 166 56.9 166.75 56.6 167.35 56.4 167.55 56.05 167.85 55.5 168.1 55.25 168.1 54.9 168.15 54.6 168.15 54.35 168.15 53.3 168.1 52.25 167.55 51.9 167.25 51.9 167.1
L 51.9 166.6 51.6 165.95
Q 51.6 165.65 51.8 165.4 52.15 164.75 52.75 164.45 53.6 164.1 54.45 164.25
L 54.45 164
Q 56.15 164.4 56.8 165.1 56.8 165.15 56.85 165.25 56.9 165.3 56.95 165.45
M 58.6 182.6
Q 58.8 181.65 60.1 181.1 61.25 180.75 62.55 180.8
L 62.55 180.55
Q 64.15 180.9 64.85 181.55 65.9 182.45 65.5 183.45 65.2 183.95 64.9 184.15 64.1 184.9 63.15 185.1 62.25 185.25 60.2 184.7 59.45 184.5 59.25 184.25 58.85 183.95 58.7 183.25 58.55 182.85 58.6 182.6
M 49.15 196.4
Q 49.7 196.35 49.85 196.2 51.5 196.25 52.9 197.15 54.2 198.05 54.45 199.3 54.6 200.5 53.7 201.65 52.6 202.75 51.05 203.05 49.4 203.4 47.75 202.85 46.6 202.45 45.9 201.75 45.95 202.05 45.95 202.35 45.9 203.15 45.15 203.85 44.4 204.45 43.3 204.6 41.9 204.85 40.6 204.5 39.2 204.05 38.6 203.2 37.9 202.3 38.2 201.3 38.45 200.25 39.45 199.6 40.15 199.1 40.9 199.1
L 41.4 199.1
Q 41.75 199 41.75 198.85 43.5 199.4 44.65 200.15 44.9 200.3 45.1 200.5 44.8 199.65 45.2 198.65 45.55 197.75 46.4 197.15 47.3 196.5 48.45 196.45 48.65 196.45 49.15 196.4
M 77.75 178.45
Q 79.45 178.85 80.1 179.3 81.45 180.15 81.2 181.6 80.85 183 79.4 183.8 78.35 184.35 77.3 184.3 76.7 184.15 76.1 183.85 73.5 182.6 73.5 181.1 73.5 179.95 74.7 179.35 75.55 178.9 77.75 178.75
L 77.75 178.45
M 72.55 183.45
Q 73.45 183.95 73.75 184.65 74.1 185.3 73.85 186.05 73.65 186.75 72.85 187.3 72.3 187.7 71.35 187.85 69.8 188 68.4 187.1 67.75 186.75 67.55 186.1 67.15 185.35 67.65 184.5
L 68.05 184
Q 69.15 182.95 70.75 183.1
L 70.75 182.95
Q 71.7 183 72.55 183.45
M 61.55 194.45
Q 62.15 194.05 63.25 193.85 64.4 193.6 64.85 193.6 66 193.7 66.35 194.15 66.4 194.3 66.45 194.5 66.55 194.5 66.75 194.5 67 194.5 67.2 194.45 67.4 194.3 67.25 194.2 71.35 194.75 73.1 197.2 74 198.4 74 199.75 73.9 201.15 72.9 202.3 72 203.45 70.3 204.15 68.5 204.8 66.75 204.65 64.45 204.55 62.75 203.4 60.55 202 60.45 200.15 60.4 199.25 60.8 198.3 61.15 197.35 61.7 196.65 60.7 196.2 60.6 195.55 60.55 194.85 61.55 194.45
M 79.8 196.2
Q 79.8 195.95 80.05 195.9
L 81.3 195.9 81.3 195.7 82.7 195.9 83 196.55 82.45 196.9 82.1 196.95
Q 81.6 197 79.8 196.55
L 79.8 196.2
M 108.05 164
Q 110.1 164.45 110.65 165.45 110.75 166.1 110.55 166.75 110.1 167.45 109.85 167.65 109.2 168.25 107.9 168.15 106.95 168 106 167.55 105.55 167.3 105.55 167.15 105.4 167.05 105.4 166.7
L 105.3 166
Q 105.1 165.6 105.4 165.25
L 104.55 165.4 104.2 165.4 103.35 165.15
Q 103.3 165.15 103.1 165.05
L 103 164.85
Q 102.8 164.7 102.8 164.3 102.9 163.9 103.4 163.55 103.9 163.15 104.4 163.15 104.7 163.15 105.4 163.5 106 163.8 106.2 164 106.3 164.25 106.25 164.5 107.25 164.1 108.05 164.2
L 108.05 164
M 92.65 184.35
Q 93.15 184.85 93.15 184.9 93.7 185.4 93.15 186 93.1 186.1 92.6 186.5 92.5 186.6 92.25 186.6
L 91.9 186.7 91.1 186.7 90.8 186.6 90.3 186.25
Q 89.85 185.95 89.75 185.55 89.65 185.1 90.4 184.45
L 90.95 184.2 91.25 184.15 91.9 184.15 92.25 184.2 92.65 184.35
M 98.9 189.6
Q 98.9 189.1 99.3 188.6 100.3 187.45 102.25 187.45
L 102.25 187.3
Q 104.55 187.25 106.55 188.5 107.6 189.25 107.35 189.85 107.3 190.25 106.7 190.55 105.05 191.95 102.9 191.95 100.45 192 99.15 190.5 98.9 190.2 98.9 189.6
M 98.25 197.3
Q 99.4 196.25 101.05 196.35
L 101.05 196.15
Q 102.25 196.35 102.9 196.9 103.1 197.15 103.4 197.8
L 103.9 198.45
Q 104.25 199.15 103.55 199.8 102.9 200.3 101.8 200.55
L 101.05 200.7
Q 99.95 200.75 99 199.9 98.3 199.2 98.1 198.2
L 97.95 197.8
Q 97.95 197.6 98.25 197.3
M 116.95 177.35
L 116.75 178.25
Q 116.35 178.5 115.65 178.45 114.6 178.25 114.5 178.25
L 114.1 177.65 114.95 177.25
Q 115.55 176.95 115.6 176.55
L 116.55 176.55
Q 116.55 176.7 116.85 176.95 117 177.15 116.95 177.35
M 114 184.6
Q 114.5 184.85 114.75 185.2 115.55 185.9 115.65 186.7 115.95 186.6 116.2 186.7
L 116.2 186.45
Q 119.55 186.85 120.7 188.25 121.3 189.05 121.15 189.95 120.95 190.9 120.05 191.65 118.3 193.05 115.35 192.55 114.55 192.5 113.7 192.05 112.35 191.4 112 190.7 111.85 190.45 111.75 190.2 109.85 190.25 108.55 189.35 107.75 188.75 107.45 188 106.9 186.55 107.9 185.4 108.4 184.8 109.3 184.45 110.2 184.1 111 184.15 111.6 184.15 111.45 183.95 113 184.1 114 184.6
M 106.9 178.25
L 106.9 178.15
Q 107.85 177.95 108.7 178.45 109.6 178.85 109.75 179.6 109.85 179.95 109.65 180.55 109.4 181.2 108.95 181.6 108.25 182.15 107.1 182.3 106.05 182.45 105.1 182.05
L 104.6 181.65
Q 104.25 181.35 104.1 180.7 103.95 180.15 104.05 179.9 104.3 179 105.8 178.45 106.4 178.15 106.9 178.25
M 121.2 174.2
L 121.3 173.15 121.6 172.6
Q 121.7 172.4 122.2 172 123.25 171.3 124.35 171.6
L 124.35 171.35
Q 125.5 171.5 126.3 172 127.7 173.1 127.4 174.7 126.9 176.4 125.05 176.75 123.5 177 122.3 176.15 121.2 175.35 121.2 174.2
M 146.5 172.6
Q 145.8 172 145.5 171.1
L 145.5 171.05
Q 144.95 171.25 144.4 171.3 143.9 171.35 142.75 171.1 141.8 170.8 141.45 170.6 140.75 170.2 140.75 169.65
L 140.85 169.1
Q 141.35 168.3 141.55 168.1 141.8 167.95 141.95 167.9 142.45 167.7 143 167.75
L 143 167.55
Q 144.6 167.4 145.6 168.15 146.1 168.4 146.25 168.7 147.2 167.85 148.8 168
L 148.8 167.75
Q 150.6 168.25 151.3 168.8 152.5 169.95 151.55 171.75 151.5 171.85 151.5 172 151.3 172.45 150.9 172.8 150.25 173.3 149.3 173.35 149.1 173.35 148.95 173.4 148.2 173.4 147.5 173.15 146.9 172.95 146.5 172.6
M 129.45 171.3
Q 129.9 170.45 130.6 170 131.3 169.45 132.2 169.45 132.3 169.45 132.5 169.45
L 132.5 169.25 135.2 170.05
Q 135.95 170.3 136.2 170.6 136.3 170.8 136.35 171 136.45 171.45 135.85 171.9 135.35 172.25 134.25 172.65 132.45 173.35 131.45 173.4 130.65 173.55 129.95 173.25 129.25 172.95 129.05 172.45 129 172 129.45 171.3
M 141.15 166.5
Q 141 166.85 140.8 167 140.6 167.25 140.25 167.35 140 167.4 139.8 167.45 139.25 167.55 138.7 167.55 136.95 167.45 136 166.75 135.8 166.5 135.55 166.25 134.85 165.3 135.45 163.7 135.65 162.85 136.1 162.65 136.6 162.2 138.3 161.9
L 138.3 161.65
Q 140.65 162.25 141.2 163.9 141.45 164.5 141.25 165.8 141.2 166.2 141.15 166.5
M 136 178.75
Q 134.65 178.2 134.2 176.85 133.65 175.4 134.85 174.3 136.1 173.1 138 173.25 138.55 173.25 138.3 173.05 140.8 173.15 142.35 174.3 143.15 174.95 143.35 175.8 143.5 176.7 143 177.35 142.45 178.25 140.8 178.8 138 179.7 136 178.75
M 129.85 188.9
Q 130 188.3 130.85 188 131.65 187.65 132.5 187.7
L 132.5 187.45
Q 134.5 187.85 135.15 188.3 135.6 188.6 135.65 188.85 136.1 189.4 136 189.95 136.35 189.35 136.7 189.1 137.55 188.55 138.3 188.85
L 138.3 188.55
Q 139.35 188.55 140.3 188.8
L 140.85 189.05
Q 141.25 189.3 141.5 189.65 142.15 190.5 141.75 191.2 141.1 192.3 139.15 192.3 137.65 192.45 136.45 191.65 135.8 191.15 135.8 190.8 135.8 190.7 135.8 190.5 135.65 190.6 135.55 190.75 135.2 191.1 134.8 191.2 133.9 191.65 132.8 191.65 131.6 191.65 130.7 191.2 130.3 191.1 130.05 190.8
L 129.9 190.4
Q 129.6 189.4 129.85 188.9
M 135.55 196.75
Q 135.65 195.9 136.35 195.3 137.45 194.5 139.5 194.5
L 139.5 194.2
Q 141.55 194.55 142.6 195.5 143.95 196.8 143 198.35 142 199.85 139.65 200 139 200.05 138.45 199.95 138.35 200.05 138.35 200.15 138.3 200.8 137.25 201.55 136.3 202.45 134.9 202.45 134.25 202.3 133.9 202.25
L 132.85 201.95
Q 132.45 201.85 131.85 201.3 130.8 200.15 131.3 198.9 131.55 198.1 132.6 197.5 133.8 197 134.85 197.15
L 134.85 197
Q 135.2 197 135.55 197.1 135.55 196.9 135.55 196.75
M 129.9 207.7
Q 130.45 208.65 130.05 209.75 129.7 210.8 128.65 211.5 127.6 212.2 126.15 212.4 124.65 212.55 123.3 212.1 122 211.65 121.3 210.7 120.55 209.75 120.7 208.75 120.85 207.9 121.2 207.45 121.75 206.35 123.05 205.9 123.95 205.65 124.9 205.65 125.55 205.65 125.55 205.4 126.95 205.5 128.25 206.15 129.45 206.8 129.9 207.7
M 204.25 202.6
Q 203.9 202.85 203.05 203.15 201.35 203.7 199.3 203.3 198.4 203.15 197.9 202.75 197.45 202.35 197.35 201.65 197.15 201 197.35 200.7 197.5 200.2 198.25 199.85 199.8 199.05 202.35 199.05
L 202.35 198.85
Q 203.05 199.1 204.65 199.45 206.15 199.95 205.8 200.8 205.75 200.9 204.9 201.75
L 204.25 202.6 Z"/>

<path fill="#9F9191" stroke="none" d="
M 153.75 184.75
Q 153.75 184.55 153.75 184.35 153.55 183.7 153.25 183.3 152.5 182.5 149.95 182.1
L 149.95 182.3
Q 148.75 182.15 147.8 182.75 147.7515625 182.75 147.65 182.8 147.55 182.85 147.5 182.95 147.15 183.2 146.8 183.65 145.9 185.1 146.95 186.4 147.85 187.65 149.45 187.75 150.9 188 151.95 187.25 152.45 187.05 152.75 186.6 153.65 185.6 153.75 184.75
M 132.9 160.65
Q 133.6 159.7 133.2 158.65 132.9 158.15 132.65 157.95 132.45 157.7 132 157.55 131.3 157.2 130.15 156.85
L 130.15 157.05
Q 128.85 156.95 128 157.5 127.65 157.65 127.5 157.9
L 127.15 158.5
Q 126.65 159.3 126.85 159.95 127.05 160.45 127.6 160.95 129.2 162.2 131.15 161.8 132.3 161.4 132.9 160.65
M 148.8 161.3
L 148.8 161.5
Q 147.45 161.35 146.55 162 145.85 162.5 145.75 163.55 145.55 164.4 145.9 165.15 146.4 166 147.4 166.4 148.65 166.95 150.75 166.3 150.95 166.25 151.25 166.15 151.85 165.9 152.2 165.55 152.95 164.7 152.25 163.5 151.4 161.8 148.8 161.3
M 80.4 161.5
Q 78.1 162.35 77.95 164.15 77.75 165.3 78.4 166.15 78.5 166.3 78.7 166.45 79.1 166.85 79.55 167.25 80.2 167.75 81.1 167.95 82.3 168.3 84.2 167.95 84.65 167.85 85 167.75 85.85 167.55 86.65 167.05 87.6 166.45 88 165.6 88.05 165.45 88.15 165.3 88.3 164.85 88.3 164.45 88.65 164.25 88.95 164 89.05 163.9 89.1 163.9 89.5 163.95 89.95 164.1
L 89.95 164.25 90.5 165
Q 91.35 165.7 92.35 165.8 92.75 165.85 93.15 165.85 93.7 165.95 94.4 166.15 94.75 166.25 95.45 166.25 96.45 166.25 97.45 165.6 98.25 165.05 98.45 164.75 99.4 163.25 97.75 161.85 96.65 161 95.15 160.85
L 95.15 161.1
Q 94.35 161 93.5 161.25 93.45 161.25 93.4 161.3 93.25 161.05 93.05 160.8 93 160.75 92.8 160.65 92.1 159.9 90.6 159.6
L 90.6 159.8
Q 89.75 159.85 89.15 159.95 88.95 159.7 88.6 159.5 88.15 159.25 86 158.75 86 158.95 85.4 158.95 83.7 158.8 82.4 160.1 82 160.55 81.85 161.1 81.8 161.1015625 81.8 161.2 81.05 161.3 80.4 161.5
M 66.1 160.65
L 66.1 160.85
Q 64.8 160.85 63.9 161.35 63.6 161.65 63.55 161.65 63.4 161.85 63.45 162.2
L 63.35 162.65 63.25 162.8
Q 63.2 163.35 63.8 163.9 64.55 164.7 65.55 164.85 66.45 164.95 67.5 164.5
L 68.15 164.15 68.4 163.7
Q 68.85 162.8 68.75 162.2 68.7 162.1 68.55 161.95 68.2 161.25 66.1 160.65
M 167.8 196.6
Q 166.55 196 165.15 195.95 165.15 196.15 164.75 196.15 163.95 196.05 163.2 196.2 161.6 196.55 160.85 197.65 159.85 197 158.4 196.85
L 158.4 196.8
Q 158.95 195.85 158.7 194.8 158.45 193.85 157.2 193.1 156.1 192.45 154.6 192.3
L 154.6 192.55
Q 152.9 192.3 151.45 193.35 150.25 194.25 150.4 195.65 150.4 196.65 151.3 197.45 152.1 198.05 153.4 198.4 153.1 198.8 152.95 199.3 152.85 200.45 153.55 201.2 153.65 201.35 153.75 201.4 154.25 201.95 155.45 202.3 155.6 202.3 155.75 202.35 156.3 202.6 156.95 202.6 156.85 202.7 156.5 202.6 156.2 202.6 155.9 202.6 154.45 202.75 153.5 203.7 152.45 204.8 152.85 206.15 153.05 206.8 153.5 207.35 154.2 208.2 155.6 208.5 156.9 208.8 158.15 208.55 158.55 208.45 158.95 208.3
L 159.05 208.3
Q 159.75 207.95 160.25 207.4 161.1 206.6 161.1 205.65 161.1 205.35 160.85 204.6 160.4 203.7 159.75 203.2 159.7 203.15 159.5 203.1 159.1 202.85 158.05 202.6 158.9 202.6 159.75 202.25 160.25 202 160.8 201.75 161.4 202.55 162.6 203 163.05 203.15 163.6 203.3 164.95 203.5 166.45 203.15 167.35 203 168.1 202.7 167.9 203.1 167.8 203.5 167.7 205.35 169.4 206.55 171 207.7 173.35 207.9 174.85 207.9 176.15 207.6 177.5 207.2 178.45 206.45 179.35 206.8 180.4 206.75 181.5 206.65 182.5 206.2 183.5 205.65 183.85 204.85 184.45 203.7 183.8 202.7 183.45 202.25 182.85 201.85 181.85 201.15 180.3 201 180.4 201.2 179.65 201.2 179.05 201.2 178.45 201.4
L 178.4 201.35
Q 177.2 200.35 175.55 200.05 173.9 199.75 172.1 200.05 170.85 200.35 170.05 200.75 170 200.8 169.9 200.85 170 200.55 170.05 200.25 170.2 199.15 169.7 198.2 169.15 197.25 167.8 196.6
M 170.45 184.65
Q 169.55 184.5 168.55 184.6 168.55 184.75 168.05 184.75 165.85 184.9 164.75 186.15 163.55 187.4 164.2 188.85 164.45 189.3 164.8 189.7 165.35 190.3 166.4 190.9 168.4 192.25 170.35 192.05 172.55 191.95 173.7 190.05 173.75 190 173.75 189.95 174.5 188.75 174.25 187.65 174 186.25 172.2 185.3 171.75 185.05 171.35 184.9 170.85 184.75 170.45 184.65
M 136.35 195.3
Q 135.65 195.9 135.55 196.75 135.55 196.9 135.55 197.1 135.2 197 134.85 197
L 134.85 197.15
Q 133.8 197 132.6 197.5 131.55 198.1 131.3 198.9 130.8 200.15 131.85 201.3 132.45 201.85 132.85 201.95
L 133.9 202.25
Q 134.25 202.3 134.9 202.45 136.3 202.45 137.25 201.55 138.3 200.8 138.35 200.15 138.35 200.05 138.45 199.95 139 200.05 139.65 200 142 199.85 143 198.35 143.95 196.8 142.6 195.5 141.55 194.55 139.5 194.2
L 139.5 194.5
Q 137.45 194.5 136.35 195.3
M 106.9 178.15
L 106.9 178.25
Q 106.4 178.15 105.8 178.45 104.3 179 104.05 179.9 103.95 180.15 104.1 180.7 104.25 181.35 104.6 181.65
L 105.1 182.05
Q 106.05 182.45 107.1 182.3 108.25 182.15 108.95 181.6 109.4 181.2 109.65 180.55 109.85 179.95 109.75 179.6 109.6 178.85 108.7 178.45 107.85 177.95 106.9 178.15
M 114.75 185.2
Q 114.5 184.85 114 184.6 113 184.1 111.45 183.95 111.6 184.15 111 184.15 110.2 184.1 109.3 184.45 108.4 184.8 107.9 185.4 106.9 186.55 107.45 188 107.75 188.75 108.55 189.35 109.85 190.25 111.75 190.2 112.1 190.15 112.45 190.05 114.65 189.7 115.35 188.1 115.75 187.35 115.65 186.7 115.55 185.9 114.75 185.2
M 101.05 196.35
Q 99.4 196.25 98.25 197.3 97.95 197.6 97.95 197.8
L 98.1 198.2
Q 98.3 199.2 99 199.9 99.95 200.75 101.05 200.7
L 101.8 200.55
Q 102.9 200.3 103.55 199.8 104.25 199.15 103.9 198.45
L 103.4 197.8
Q 103.1 197.15 102.9 196.9 102.25 196.35 101.05 196.15
L 101.05 196.35
M 93.15 184.9
Q 93.15 184.85 92.65 184.35
L 92.25 184.2 91.9 184.15 91.25 184.15 90.95 184.2 90.4 184.45
Q 89.65 185.1 89.75 185.55 89.85 185.95 90.3 186.25
L 90.8 186.6 91.1 186.7 91.9 186.7 92.25 186.6
Q 92.5 186.6 92.6 186.5 93.1 186.1 93.15 186 93.7 185.4 93.15 184.9
M 110.65 165.45
Q 110.1 164.45 108.05 164
L 108.05 164.2
Q 107.25 164.1 106.25 164.5 106.3 164.25 106.2 164 106 163.8 105.4 163.5 104.7 163.15 104.4 163.15 103.9 163.15 103.4 163.55 102.9 163.9 102.8 164.3 102.8 164.7 103 164.85
L 103.1 165.05
Q 103.3 165.15 103.35 165.15
L 104.2 165.4 104.55 165.4 105.4 165.25
Q 105.1 165.6 105.3 166
L 105.4 166.7
Q 105.4 167.05 105.55 167.15 105.55 167.3 106 167.55 106.95 168 107.9 168.15 109.2 168.25 109.85 167.65 110.1 167.45 110.55 166.75 110.75 166.1 110.65 165.45
M 80.05 195.9
Q 79.8 195.95 79.8 196.2
L 79.8 196.55
Q 81.6 197 82.1 196.95
L 82.45 196.9 83 196.55 82.7 195.9 81.3 195.7 81.3 195.9 80.05 195.9
M 63.25 193.85
Q 62.15 194.05 61.55 194.45 60.55 194.85 60.6 195.55 60.7 196.2 61.7 196.65 62 196.75 62.2 196.85 63.45 197.25 64.35 197 65.2 196.7 65.9 195.7 66.45 195 66.45 194.5 66.4 194.3 66.35 194.15 66 193.7 64.85 193.6 64.4 193.6 63.25 193.85
M 73.75 184.65
Q 73.45 183.95 72.55 183.45 71.7 183 70.75 182.95
L 70.75 183.1
Q 69.15 182.95 68.05 184
L 67.65 184.5
Q 67.15 185.35 67.55 186.1 67.75 186.75 68.4 187.1 69.8 188 71.35 187.85 72.3 187.7 72.85 187.3 73.65 186.75 73.85 186.05 74.1 185.3 73.75 184.65
M 80.1 179.3
Q 79.45 178.85 77.75 178.45
L 77.75 178.75
Q 75.55 178.9 74.7 179.35 73.5 179.95 73.5 181.1 73.5 182.6 76.1 183.85 76.7 184.15 77.3 184.3 78.35 184.35 79.4 183.8 80.85 183 81.2 181.6 81.45 180.15 80.1 179.3
M 56.9 166.75
Q 57.1 166 56.95 165.45 56.9 165.3 56.85 165.25 56.8 165.15 56.8 165.1 56.15 164.4 54.45 164
L 54.45 164.25
Q 53.6 164.1 52.75 164.45 52.15 164.75 51.8 165.4 51.6 165.65 51.6 165.95
L 51.9 166.6 51.9 167.1
Q 51.9 167.25 52.25 167.55 53.3 168.1 54.35 168.15 54.6 168.15 54.9 168.15 55.25 168.1 55.5 168.1 56.05 167.85 56.4 167.55 56.6 167.35 56.9 166.75
M 68.45 172.85
Q 68.5 173.05 68.1 173.05 66.45 172.95 65.4 173.65 65.15 173.85 64.9 174.1 64.35 174.75 63.7 175.9 62.9 177.6 63.05 178.25 63.2 179.25 64.35 180 65.25 180.7 66.75 181 69.55 181.6 71.35 180.3 72.35 179.65 72.75 178.7 73.7 176.55 72.55 174.95 72.1 174.15 71.2 173.65 71.1 173.55 70.9 173.5 69.75 172.85 68.45 172.85
M 61.45 164.85
L 61.45 165.1
Q 60.2 165 59.75 165.85 59.8 166.25 60.4 166.85
L 60.55 167.1 60.9 167.25
Q 62.2 167.4 62.85 167.25 63.9 167.05 64.05 166.5
L 64.1 166 64.05 165.7 63.9 165.45
Q 63.05 164.85 61.45 164.85
M 38.75 176.45
Q 38.95 176.6 39.15 176.8 39.95 177.55 41.4 177.9 41.55 177.9 41.85 177.95 43.3 178.2 44.8 177.9 46.25 177.65 46.95 177.1 48.1 176.5 48.5 175.65 48.75 175 48.65 174.15 48.6 173.85 48.55 173.6 47.95 172.15 46.1 171.45 44.65 170.95 42.8 170.95 42.95 171.1 42.65 171.2 42.5 171.25 42.2 171.2 39.95 171.05 38.6 172.75 37.9 173.6 37.95 174.55 37.95 175.6 38.75 176.45 Z"/>
</g>
</defs>

<g transform="matrix( 0.4565277099609375, 0, 0, 0.4565277099609375, 30,29.4) ">
<g transform="matrix( 1, 0, 0, 1, 0,0) ">
<use xlink:href="#Duplicate_Items_Folder_Hero_Undead_Gravestone_0_Layer1_0_FILL"/>
</g>

<g transform="matrix( 1, 0, 0, 1, 0,0) ">
<use xlink:href="#Duplicate_Items_Folder_Hero_Undead_Gravestone_0_Layer0_0_FILL"/>
</g>
</g>
</svg>
