
<svg xmlns="http://www.w3.org/2000/svg" version="1.1" xmlns:xlink="http://www.w3.org/1999/xlink" preserveAspectRatio="none" x="0px" y="0px" width="550px" height="250px" viewBox="0 0 550 250">
<defs>
<g id="clouds_0_Layer0_0_FILL">
<path fill="#FFFFFF" stroke="none" d="
M 429.65 70.95
Q 421.85 70.95 415.4 74.15 397.8 58.85 373.9 58.85 348.45 58.85 330.15 76.2 325.9 65.95 317.45 57.5 300.55 40.6 276.65 40.6 269.55 40.6 263.05 42.1 259.15 33.3 251.75 25.9 236.05 10.2 213.8 10.2 205.1 10.2 197.45 12.6 175.3 0 147.95 0 105.95 0 76.25 29.65 53.2 52.75 48.1 83.25 42.25 81.05 35.5 81.05 20.8 81.05 10.4 91.45 0 101.85 0 116.55 0 117.103125 0 117.65 -10.0125 117.6625 -17.15 124.75 -24.25 131.9 -24.25 141.95 -24.25 152 -17.15 159.1 -10 166.25 0.05 166.25 6.9951171875 166.25 12.5 162.8 14.2568359375 177.2568359375 24.95 187.95 37.75 200.75 55.8 200.75 73.85 200.75 86.6 187.95 88.2818359375 186.2748046875 89.75 184.5 115.0791015625 202.7 147.95 202.7 189.95 202.7 219.6 173 220.05 172.55 220.55 172.05 233.25 182.45 250.3 182.45 270.05 182.45 284 168.5 290.8 161.7 294.3 153.5 304.55 150.3 313.2 143.1 317.7 156.8 328.75 167.85 347.45 186.55 373.9 186.55 400.35 186.55 419.05 167.85 423.1775390625 163.7224609375 426.4 159.2 427.7400390625 160.9400390625 429.35 162.55 439.15 172.35 453 172.35 466.85 172.35 476.65 162.55 486.45 152.75 486.45 138.9 486.45 125.05 476.65 115.25 470.18671875 108.78671875 461.95 106.55 462.1 105.021875 462.1 103.4 462.1 89.95 452.6 80.45 443.1 70.95 429.65 70.95 Z"/>
</g>
</defs>

<g transform="matrix( 1, 0, 0, 1, 44.45,24.7) ">
<g transform="matrix( 1, 0, 0, 1, 0,0) ">
<use xlink:href="#clouds_0_Layer0_0_FILL"/>
</g>
</g>
</svg>
