
<svg xmlns="http://www.w3.org/2000/svg" version="1.1" xmlns:xlink="http://www.w3.org/1999/xlink" preserveAspectRatio="none" x="0px" y="0px" width="550px" height="250px" viewBox="0 0 550 250">
<defs>
<g id="clouds_4_Layer0_0_FILL">
<path fill="#FFFFFF" stroke="none" d="
M 242.9 94.25
Q 234.05 87.7 223.85 86.65 217.55 66.8 199.9 53.65 177.4 36.8 149.55 40.85 121.7 44.9 104.85 67.4 97.6 77.1 94.25 87.85 93.1 88 91.9 88.15 76.15 90.45 66.55 103.2 57 115.95 59.3 131.75 61.6 147.55 74.35 157.1 87.15 166.65 102.9 164.35 110 163.3 115.85 160.25 117.15 161.3 118.6 162.45 141.2 179.3 169.05 175.25 187.8 172.55 201.55 161.45 212.3 166.95 224.9 165.1 241.15 162.75 250.95 149.65 254.8 144.5 256.75 138.85 262.15 141.3 268.4 140.4 277.1 139.15 282.45 132.05 287.7 125 286.4 116.3 285.15 107.55 278.1 102.3 271 97 262.3 98.25 256.05 99.15 251.6 103 248.1 98.15 242.9 94.25 Z"/>
</g>
</defs>

<g transform="matrix( 1, 0, 0, 1, 44.45,24.7) ">
<g transform="matrix( 1, 0, 0, 1, 0,0) ">
<use xlink:href="#clouds_4_Layer0_0_FILL"/>
</g>
</g>
</svg>
