
<svg xmlns="http://www.w3.org/2000/svg" version="1.1" xmlns:xlink="http://www.w3.org/1999/xlink" preserveAspectRatio="none" x="0px" y="0px" width="550px" height="250px" viewBox="0 0 550 250">
<defs>
<g id="clouds_2_Layer0_0_FILL">
<path fill="#FFFFFF" stroke="none" d="
M 396.65 109.75
Q 397.3 104.6935546875 397.3 99.35 397.3 66.6 374.15 43.45 351 20.3 318.25 20.3 295.4935546875 20.3 277.35 31.45 261.1677734375 22.4 241.2 22.4 221.76484375 22.4 205.85 31 202.4310546875 24.1810546875 196.6 18.35 182.35 4.1 162.2 4.1 142.05 4.1 127.8 18.35 113.55 32.6 113.55 52.75 113.55 59.40390625 115.1 65.4 109.287890625 62.85 102.4 62.85 98.170703125 62.85 94.35 63.8 91.3740234375 59.0740234375 87.15 54.85 72.9 40.6 52.75 40.6 32.6 40.6 18.35 54.85 4.31953125 68.88046875 4.1 88.6 -1.889453125 91.4119140625 -6.95 96.45 -18.2 107.75 -18.2 123.7 -18.2 124.75625 -18.15 125.8 -19.1564453125 125.7 -20.2 125.7 -28.6 125.7 -34.55 131.65 -40.5 137.6 -40.5 146 -40.5 154.4 -34.55 160.35 -28.6 166.3 -20.2 166.3 -11.8 166.3 -5.85 160.35 -3.44453125 157.94453125 -2 155.15 7.69140625 162.2 20.3 162.2 35.1400390625 162.2 45.9 152.4 46.9123046875 153.6123046875 48.05 154.75 57.55 164.25 71 164.25 83.599609375 164.25 92.7 155.9 96.1724609375 162.3724609375 101.75 167.95 116.3 182.5 136.85 182.5 157.4 182.5 171.95 167.95 181.3291015625 158.5708984375 184.65 146.7 186.330859375 148.580859375 188.15 150.4 210.15 172.4 241.2 172.4 259.14453125 172.4 274.05 165.05 293.3822265625 178.4 318.25 178.4 350.183984375 178.4 373 156.4 380.983984375 164.25 392.2 164.25 403.55 164.25 411.55 156.2 419.6 148.2 419.6 136.85 419.6 125.5 411.55 117.45 405.1791015625 111.0791015625 396.65 109.75 Z"/>
</g>
</defs>

<g transform="matrix( 1, 0, 0, 1, 44.45,24.7) ">
<g transform="matrix( 1, 0, 0, 1, 0,0) ">
<use xlink:href="#clouds_2_Layer0_0_FILL"/>
</g>
</g>
</svg>
