
<svg xmlns="http://www.w3.org/2000/svg" version="1.1" xmlns:xlink="http://www.w3.org/1999/xlink" preserveAspectRatio="none" x="0px" y="0px" width="550px" height="250px" viewBox="0 0 550 250">
<defs>
<g id="clouds_1_Layer0_0_FILL">
<path fill="#FFFFFF" stroke="none" d="
M 338.1 153.75
Q 352.65 139.2 352.65 118.65 352.65 98.1 338.1 83.55 323.55 69 303 69 297.8 69 292.95 69.95 290.85 61.25 284.1 54.5 274.3 44.7 260.45 44.7 246.6 44.7 236.8 54.5 231.9 59.4 229.5 65.25 218 60.9 204.75 60.9 203.95 60.9 203.2 60.95 198.4 47.1 187.2 35.9 167.6 16.3 139.9 16.3 112.2 16.3 92.6 35.9 73 55.5 73 83.2 73 95.7 77 106.6 72.3 108.9 68.3 112.9 58.8 122.4 58.8 135.85 58.8 149.3 68.3 158.8 77.8 168.3 91.25 168.3 104.7 168.3 114.2 158.8 119.2 153.8 121.6 147.75 129.7 149.95 138.7 150.1 143.45 165.95 156 178.5 176.2 198.7 204.75 198.7 233.3 198.7 253.45 178.5 264.1 167.9 269.15 154.95 283.3 168.3 303 168.3 323.55 168.3 338.1 153.75 Z"/>
</g>
</defs>

<g transform="matrix( 1, 0, 0, 1, 44.45,24.7) ">
<g transform="matrix( 1, 0, 0, 1, 0,0) ">
<use xlink:href="#clouds_1_Layer0_0_FILL"/>
</g>
</g>
</svg>
