
<svg xmlns="http://www.w3.org/2000/svg" version="1.1" xmlns:xlink="http://www.w3.org/1999/xlink" preserveAspectRatio="none" x="0px" y="0px" width="1000px" height="1000px" viewBox="0 0 1000 1000">
<defs>
<linearGradient id="Gradient_1" gradientUnits="userSpaceOnUse" x1="153.8125" y1="158.26250000000002" x2="48.787499999999994" y2="111.53750000000001" spreadMethod="pad">
<stop  offset="0%" stop-color="#66FFFF"/>

<stop  offset="100%" stop-color="#0033CC"/>
</linearGradient>

<filter id="Filter_1" x="-20%" y="-20%" width="140%" height="140%" color-interpolation-filters="sRGB">
<feColorMatrix in="SourceGraphic" type="matrix" values="1 0 0 0 0 0 1 0 0 0 0 0 1 0 0 0 0 0 0.73 0" result="result1"/>
</filter>

<g id="Water_Attack_6_Layer7_0_FILL">
<path fill="url(#Gradient_1)" stroke="none" d="
M 170.4 208.75
Q 170.65 208.45 170.9 208.3 171.5 207.8 172.3 207.2 171.85 207.05 171.6 206.95 171.2 207.6 170.4 208.75
M 104.65 210.35
Q 105.15 209.95 105.8 209.6 106.9 208.75 108.05 208.05 109.1 206.7 111.2 205
L 111.15 204.95
Q 110.25 204.9 109.3 205 107.5 207.15 105.45 209.4 105.1 209.85 104.65 210.35 Z"/>

<path fill="#FFFFFF" stroke="none" d="
M 172.35 207.15
L 172.4 207.1
Q 172.25 207.05 172.1 207.05 172.2 207.1 172.35 207.15
M 157.3 233.1
Q 156.35 233.15 155.55 233.65 154.55 234 154.05 234.7 153.05 235.65 153.45 237.05 153.95 238.5 153.9 239.25 154.15 240.45 153.8 241.75 153.7 242 152.95 244.25 152.85 245.05 153.15 245.45 153.25 245.6 153.75 245.75 154.25 245.75 154.75 245.4 155.15 245 155.75 244.25 156.1 243.5 157.5 242 158.65 240.55 159.2 239.75 160 238.35 159.85 235.95 159.9 234.55 159.5 233.95 158.9 232.8 157.3 233.1
M 45.3 239.9
Q 48.75 238.9 50.3 238.2 49.75 238 48.95 237.95 46.05 237.7 42.6 238.4 41.3 238.55 39.1 239.25 36.8 239.75 35.75 240.15 29.6 241.5 26.75 242.3 24.7 243 23.05 243.6 22.8 243.7 22.55 243.8
L 22 244.05
Q 20.05 244.8 18.45 245.95 16.5 247.15 15.45 248.65 14.35 250.2 14.65 251.55 14.95 252.8 16.8 253.2 18.85 253.55 20.45 252.4 20.9 251.85 22.55 250.1 25.85 246.3 35 243.2 39.9 241.4 45.3 239.9
M 111.7 71.75
Q 109.65 72.1 107.2 73.5 101.85 76.3 97.55 80.1 95.5 81.8 91.8 85.85 88.85 88.75 85.95 91.7 83.25 94.35 84.8 95.3 85.65 94.85 87.55 93.75 90.6 91.75 97 87.3 104.15 81.95 109.7 79.25 110.55 78.8 112.5 77.8 114 76.9 114.85 76.3 115.25 75.9 115.65 75.5 116.05 74.95 116.3 74.35 116.5 73.1 115.85 72.5 115.3 71.85 114.05 71.75 112.85 71.5 111.7 71.75
M 214.9 93.35
Q 211.3 87.85 207.6 85.8 206.55 85.1 205.95 85.4 205.3 85.6 205.8 86.95 207.2 91.65 209 97.8 209.8 99.35 212 108.5 214.95 121.5 211.85 138.5 211.2 148.25 200.65 169.15 193.9 178.8 188.35 184.25 182.25 189.65 179.15 192.55 173.6 197.4 170.5 200.9 171.35 201.1 173.55 200.15 175.2 199.3 177.2 197.95 195.95 185.2 209.7 168.55 218.05 158.05 221.95 138.7 224.7 123.75 223.25 115.6 221.45 102.85 214.9 93.35 Z"/>

<path fill="#00CCFF" stroke="none" d="
M 213.45 167.35
Q 222.7 153.6 225.45 134.75 226.3 91.2 193.6 72 174.55 54 140.4 54.75 126.6 56.35 113.45 64.45 100.7 72 89.65 81.6 78.7 91.05 71.8 100 64.75 109.15 63.7 117.95 61.8 132.55 73.65 143.7 80.9 150.45 100 160.45 118 170.45 119.65 177.9 122.95 188.9 109.3 205 110.25 204.9 111.15 204.95
L 111.2 205
Q 109.1 206.7 108.05 208.05 106.9 208.75 105.8 209.6 105.15 209.95 104.65 210.35 91.6 218.75 80.6 223.85 70.15 228.65 54.55 233.15 49.9 234.4 34.7 236.15 -7.7 245.95 15.35 259.75 21.9 261.6 35.45 263.15 74.1 267.6 108.5 263.8 142.8 260 149.95 254.35 157.05 248.7 159.9 243.4 162.45 237.95 161.85 233.4 160.7 229 160.7 228.6 160.6 225.05 162.05 221.35 163.1 218.8 166.3 213.6 166.7 212.85 168.9 210.5 169.65 209.45 170.4 208.75 171.2 207.6 171.6 206.95 171.85 207.05 172.3 207.2
L 172.35 207.15
Q 172.2 207.1 172.1 207.05 172.25 207.05 172.4 207.1 175.5 204.5 181.3 199.35 201.25 183.45 213.45 167.35
M 207.6 85.8
Q 211.3 87.85 214.9 93.35 221.45 102.85 223.25 115.6 224.7 123.75 221.95 138.7 218.05 158.05 209.7 168.55 195.95 185.2 177.2 197.95 175.2 199.3 173.55 200.15 171.35 201.1 170.5 200.9 173.6 197.4 179.15 192.55 182.25 189.65 188.35 184.25 193.9 178.8 200.65 169.15 211.2 148.25 211.85 138.5 214.95 121.5 212 108.5 209.8 99.35 209 97.8 207.2 91.65 205.8 86.95 205.3 85.6 205.95 85.4 206.55 85.1 207.6 85.8
M 185.3 90.85
Q 207.95 113.8 181.35 159.65 169.65 173.85 153.75 186.9 151.1 189.1 148.45 191.15 132.35 206.25 125.9 216.3 123.7 219.7 122.55 221.3
L 122.5 221.4
Q 122.25 221.75 122.05 222.1 121.9 222.25 121.95 222.35 121.6 222.8 121.35 223.55 120.8 225 120.55 225.55 120.55 225.6 120.55 225.8 119.85 228.55 120 230.1 119.9 230.35 120 230.55 119.95 232.55 120.85 234.5 120.95 234.9 121.2 235.3 121.2 235.6 123.55 238.4 125.55 241.45 125.9 245.1 125.9 248.7 121.4 253.15 116.85 257.45 88.95 260.85 60.75 264.3 30.2 260.45 19.5 258.9 14.75 257.45 6.25 249.75 22 244.05
L 22.55 243.8
Q 22.8 243.7 23.05 243.6 24.7 243 26.75 242.3 29.6 241.5 35.75 240.15 36.8 239.75 39.1 239.25 41.3 238.55 42.6 238.4 46.05 237.7 48.95 237.95 53.4 237.25 55.45 236.7 68.05 233.25 76.25 229.85 85 226.2 95.8 220 96.2 219.7 96.65 219.35 99 217.55 101.2 216.05 103.2 214.45 105.25 213.05 114.5 205.9 122.7 199.1 126.45 195.65 129.85 192.65 138.7 185.2 145.85 171.15 148.7 159.2 140.3 152.6 128.85 140.5 101.05 129 84.85 122.1 79.05 114.5 74 107.1 82 98.85 84.4 96.25 87.55 93.75 85.65 94.85 84.8 95.3 83.25 94.35 85.95 91.7 88.85 88.75 91.8 85.85 95.5 81.8 97.55 80.1 101.85 76.3 107.2 73.5 109.65 72.1 111.7 71.75 112.85 71.5 114.05 71.75 115.3 71.85 115.85 72.5 116.5 73.1 116.3 74.35 116.05 74.95 115.65 75.5 123.9 71.25 131.95 69.4 167.8 66.65 185.3 90.85
M 155.55 233.65
Q 156.35 233.15 157.3 233.1 158.9 232.8 159.5 233.95 159.9 234.55 159.85 235.95 160 238.35 159.2 239.75 158.65 240.55 157.5 242 156.1 243.5 155.75 244.25 155.15 245 154.75 245.4 154.25 245.75 153.75 245.75 153.25 245.6 153.15 245.45 152.85 245.05 152.95 244.25 153.7 242 153.8 241.75 154.15 240.45 153.9 239.25 153.95 238.5 153.45 237.05 153.05 235.65 154.05 234.7 154.55 234 155.55 233.65 Z"/>

<path fill="#00A3FF" stroke="none" d="
M 181.35 159.65
Q 207.95 113.8 185.3 90.85 167.8 66.65 131.95 69.4 123.9 71.25 115.65 75.5 115.25 75.9 114.85 76.3 114 76.9 112.5 77.8 110.55 78.8 109.7 79.25 104.15 81.95 97 87.3 90.6 91.75 87.55 93.75 84.4 96.25 82 98.85 74 107.1 79.05 114.5 84.85 122.1 101.05 129 128.85 140.5 140.3 152.6 148.7 159.2 145.85 171.15 138.7 185.2 129.85 192.65 126.45 195.65 122.7 199.1 114.5 205.9 105.25 213.05 103.2 214.45 101.2 216.05 99 217.55 96.65 219.35 96.2 219.7 95.8 220 85 226.2 76.25 229.85 68.05 233.25 55.45 236.7 53.4 237.25 48.95 237.95 49.75 238 50.3 238.2 48.75 238.9 45.3 239.9 39.9 241.4 35 243.2 25.85 246.3 22.55 250.1 20.9 251.85 20.45 252.4 18.85 253.55 16.8 253.2 14.95 252.8 14.65 251.55 14.35 250.2 15.45 248.65 16.5 247.15 18.45 245.95 20.05 244.8 22 244.05 6.25 249.75 14.75 257.45 19.5 258.9 30.2 260.45 60.75 264.3 88.95 260.85 116.85 257.45 121.4 253.15 125.9 248.7 125.9 245.1 125.55 241.45 123.55 238.4 121.2 235.6 121.2 235.3 120.95 234.9 120.85 234.5 119.95 232.55 120 230.55 119.9 230.35 120 230.1 119.85 228.55 120.55 225.8 120.55 225.6 120.55 225.55 120.8 225 121.35 223.55 121.6 222.8 121.95 222.35 121.9 222.25 122.05 222.1 122.25 221.75 122.5 221.4
L 122.55 221.3
Q 123.7 219.7 125.9 216.3 132.35 206.25 148.45 191.15 151.1 189.1 153.75 186.9 169.65 173.85 181.35 159.65 Z"/>
</g>

<g id="Water_Body_Shell_0_Layer0_0_FILL">
<path fill="#000000" stroke="none" d="
M 100.9 -2.05
Q 99.65 -2.4 86.35 -2.65 70.35 -2.9 68.25 -3 60.1 -3.45 41.35 1.75 21.7 7.2 15.55 12.35 10.95 16.25 4.25 34.4 -2.8 53.5 -1.15 60.95 0.4 68.55 9.45 85.7 18.1 102.15 21.7 105.3 30.45 113 46.7 115 52.8 115.8 67.75 110.55 83.4 105.05 85.65 100.35 87.45 96.55 88.8 81.35 88.848046875 81.3494140625 88.9 81.35 91.2 81.4 99.6 76.35 108.3 71.1 111.15 67.6 112.6 65.85 116.6 53.3 121.1 39.2 121.35 32.35 121.4 29.65 120.2 22.75 119 16.1 118.25 14.4 117.1 11.9 111.15 5.8 104.45 -1.05 100.9 -2.05
M 92.45 6.4
Q 97.25 7.2 100.45 10.55 102.1 12.25 103.7 15.2 108.35 23.55 109.25 33.3 110.1 43.1 107 52.1 105.85 55.45 104.3 58.35 101.85 62.85 98.45 66.2 93.65 71.05 88.05 72.4 84.95 73.1 81.95 72.6 78.75 72 76.4 70.2 74.75 68.9 72.15 64.55 70.15 61.25 69.55 59.75 68.1 55.5 68.05 55.3 67.9 54.7 67.8 54.05 67.65 53.3 67.25 50.6 66.9 47.75 66.85 46.8 66.6 43.45 69.4 31.45 72.25 19 74.2 16.6 75.5 15 77.85 12.8 81.95 9 83.65 7.9 87.55 5.6 92.45 6.4
M 71.45 13.25
Q 67.95 18.9 66.25 24.7 65.65 26.65 64.4 34.9 62.95 44.5 63.2 48.35 63.25 49.15 56.45 44.3 55.4 43.55 52.25 41.75 49.25 40.15 47.6 39.7 47.4 39.65 47.2 39.6 45.45 39.15 41.85 38.95 37.05 38.75 35.05 39.65 33.25 40.45 30.6 43.3 28.4 45.65 27.35 47.05 25.7 49.25 25 51.3 24.05 53.85 24.05 59 24.05 62.65 24.45 64.4 24.75 66 25.75 68.25 27.6 72.45 29.6 74.65 31.75 77.05 34.4 77.8 35 81.5 35.25 81.6 35.55 81.2 36.05 79.65 36.5 78.2 36.5 78.15 37.45 78.2 38.35 78.05 39.15 77.85 39.95 77.6 40.8 77.3 43.25 74.6 45.9 71.7 46.4 70.15 48.1 64.85 46 59.7 45.7 59 45.35 58.4 44.15 56.2 42.3 55.2 40.9 54.5 39.4 54.6 37.8 54.7 36.75 55.7 35.8 56.6 36.9 59.35 38.1 62.4 38.2 61.55 38.85 60.65 39.6 59.8 41.05 58.15 41.55 58.55 42.4 59.3 43.1 61.3 44.6 66.1 43.25 68.7 42.85 69.4 41.65 70.9 40.35 72.55 39.85 72.9 38.9 73.5 36.55 73.1
L 34.1 71.45
Q 34 71.4 32.9 70 31.75 68.6 31.5 68.2 30.95 67.1 29.95 62.95
L 29.05 59.05
Q 29.05 59 29.05 58.95 29.05 58.8 29.05 58.7 29 57.9 30.1 54.5 31.05 51.4 31.35 50.9 32.35 49.25 36.15 46.6 39.75 44.05 40.95 43.9 42.35 43.7 45.3 43.85 48 43.95 48.35 44.1
L 48.35 44.05 49.15 44.45
Q 50.6837890625 45.1470703125 52.15 45.9 61.75 53.95 62 54.3 63.35 56.15 65 59.15
L 66.8 63.25
Q 68.95 67.75 70.4 69.8 71.25 71 74.1 73.35 76.75 75.55 77.5 75.85 77.7 79.95 76.5 84.15 75.2 88.6 72.6 92.35 71.95 93.25 69.4 95.8 66.65 98.55 65.45 99.4
L 59.65 102.45
Q 53.6 104.95 47.05 104.85 42.25 104.8 37.25 103.45 32.3 102.2 28.45 100.05 22.95 96.8 17.65 89.6 11.75 81.65 8.45 72.9 4.9 63.6 4.6 54.3 4.3 44.85 7.45 36.2 13.45 24 17.95 19.7 21.7 16.1 26.9 13 32.9 9.45 39.35 7.4 38.55 8.2 37.45 9.55 36.45 10.75 36.25 11.15 35.95 11.5 35.8 12.75 35.65 14 35.95 14.3 43.45 6.3 43.4 6.25
L 47.9 5.3
Q 50.05 4.95 52.3 4.75 51.95 5.1 48.95 11.45 46 17.8 45.9 18.3 45.85 18.65 45.85 18.95 45.9 18.95 45.9 19 46.15 19.05 51.75 12.2 57.4 5.3 57.4 4.65 57.4 4.6 57.4 4.55 60 4.5 64.2 4.5 59.7 7.35 57.75 10.25
L 55.75 14.45
Q 55.4326171875 15.3482421875 54.75 19.2 53.9 24 54.35 25.65 55.3 22.9 56.8 19.35 59.8 12.1 62.9 9.55 65.45 7.45 70.9 5.1 78.1 4.4 78.15 4.45 77.4 5.15 74.85 8.5 72.25 11.9 71.45 13.25
M 44.05 79.9
Q 42.05 76.7 42 76.85 41.85 77.1 43.35 80.75 44.85 84.35 45.2 84.3 45.85 84.2 46.25 83.6
L 46 83.1
Q 45.05 81.5 44.05 79.9 Z"/>

<path fill="#CD7171" fill-opacity="0.9882352941176471" stroke="none" d="
M 69.4 95.8
Q 71.95 93.25 72.6 92.35 63.05 96.75 63.1 96.8
L 64.05 97.85 64.1 97.85
Q 64.35 98.05 64.9 98.65 65.55 99.3 65.45 99.4 66.65 98.55 69.4 95.8
M 52.3 4.75
Q 50.05 4.95 47.9 5.3 45.95 11.95 45.9 18.3 46 17.8 48.95 11.45 51.95 5.1 52.3 4.75
M 57.4 4.55
Q 57.4 4.6 57.4 4.65 57.4 5.3 51.75 12.2 46.15 19.05 45.9 19
L 46.2 23.35
Q 46.35 23.35 50.1 19.85 54.15 16.05 55.5 15.15 55.640625 14.775 55.75 14.45
L 57.75 10.25
Q 59.7 7.35 64.2 4.5 60 4.5 57.4 4.55
M 71.45 13.25
Q 72.25 11.9 74.85 8.5 77.4 5.15 78.15 4.45 78.1 4.4 70.9 5.1 65.45 7.45 62.9 9.55 59.8 12.1 56.8 19.35 55.3 22.9 54.35 25.65 54 29.4 54.9 29.95 55.25 30.15 59.7 23.75 64.55 16.7 65.95 15.7 67.35 14.6 71.45 13.25
M 104.95 36.9
Q 104.55 36.95 103.05 43.45 102.3 46.8 101.35 50.9 101 52.2 99.05 55.6 97.2 58.75 96.4 59.65 95.45 60.75 91.35 63.1 87.15 65.45 85.55 65.7 83.65 66 78.95 64.45 74.4 62.95 74.75 62.8 79.6 61.5 81.95 57.5 81.2 56.9 74.8 56.15 68.15 55.35 68.05 55.3 68.1 55.5 69.55 59.75 70.15 61.25 72.15 64.55 74.75 68.9 76.4 70.2 78.75 72 81.95 72.6 84.95 73.1 88.05 72.4 93.65 71.05 98.45 66.2 101.85 62.85 104.3 58.35 106.6 39.85 104.95 36.9 Z"/>

<path fill="#7C5C8C" fill-opacity="0.9882352941176471" stroke="none" d="
M 45.35 58.4
Q 45.7 59 46 59.7 48.1 64.85 46.4 70.15 45.9 71.7 43.25 74.6 40.8 77.3 39.95 77.6 40.8 81.7 43.25 85.2 43.8 86 45.65 86.15 47.35 86.25 47.55 85.95 46.75 84.65 46.25 83.6 45.85 84.2 45.2 84.3 44.85 84.35 43.35 80.75 41.85 77.1 42 76.85 42.05 76.7 44.05 79.9 45.05 81.5 46 83.1 45.55 82.2 45.25 79.65 44.85 76.65 45.4 75.55 45.9 74.6 47.3 72.9 48.85 70.5 48.75 66.65 48.6 62.25 46.35 59.45 45.9 58.85 45.35 58.4
M 39.6 59.8
Q 38.85 60.65 38.2 61.55 38.4 61.95 39.1 64.6 39.9 67.65 39.7 68.3 39.45 69 37.2 70.3 34.9 71.6 34.1 71.45
L 36.55 73.1
Q 38.9 73.5 39.85 72.9 40.35 72.55 41.65 70.9 42.85 69.4 43.25 68.7 44.6 66.1 43.1 61.3 42.4 59.3 41.55 58.55 41.05 58.15 39.6 59.8
M 7.9 39.8
Q 7.8 37.45 7.45 36.2 4.3 44.85 4.6 54.3 4.9 63.6 8.45 72.9 11.75 81.65 17.65 89.6 22.95 96.8 28.45 100.05 32.3 102.2 37.25 103.45 42.25 104.8 47.05 104.85 53.6 104.95 59.65 102.45
L 65.45 99.4
Q 65.55 99.3 64.9 98.65 64.35 98.05 64.1 97.85
L 64.05 97.85
Q 53.1 100 42.3 96.9 30.3 93.45 23 84.6 19.3 80.05 16.1 72.9 9.05 57.2 7.9 39.8
M 48.35 44.1
L 49.15 44.45 48.35 44.05 48.35 44.1
M 49.05 36.65
Q 46.1 35.9 44.75 35.75 42.05 35.5 39.4 36
L 32.2 28.55
Q 31.5 28.8 32.05 33.15 32.65 37.3 33.25 38.3 28.15 41.15 25.55 46.05 23.8 49.2 23.05 53.6 22.3 58.55 22.8 63.3 23.3 68.35 25.15 71.7 26.5 74.3 31.9 77.7 31.55 78.4 32.05 83.65 32.65 89.2 33.65 90.05 34.2 89.4 36.25 83.85 38.25 78.35 38.35 78.05 37.45 78.2 36.5 78.15 36.5 78.2 36.05 79.65 35.55 81.2 35.25 81.6 35 81.5 34.4 77.8 31.75 77.05 29.6 74.65 27.6 72.45 25.75 68.25 24.75 66 24.45 64.4 24.05 62.65 24.05 59 24.05 53.85 25 51.3 25.7 49.25 27.35 47.05 28.4 45.65 30.6 43.3 33.25 40.45 35.05 39.65 37.05 38.75 41.85 38.95 45.45 39.15 47.2 39.6 47.4 39.65 47.6 39.7 49.25 40.15 52.25 41.75 55.4 43.55 56.45 44.3 63.25 49.15 63.2 48.35 53.3 39.25 52.05 37.55 51.35 37.3 49.05 36.65 Z"/>

<path fill="#FF7D7D" stroke="none" d="
M 65 59.15
Q 63.35 56.15 62 54.3 61.25 53.95 59.7 53.8 57.75 53.55 57.25 54.15 56.5 54.95 57.4 69.05 58.35 84.6 60.8 92 61.925390625 95.2353515625 63.1 96.8 63.05 96.75 72.6 92.35 75.2 88.6 76.5 84.15 77.7 79.95 77.5 75.85 76.75 75.55 74.1 73.35 71.25 71 70.4 69.8 68.95 67.75 66.8 63.25
L 65 59.15
M 66.25 24.7
Q 67.95 18.9 71.45 13.25 67.35 14.6 65.95 15.7 64.55 16.7 59.7 23.75 55.25 30.15 54.9 29.95 54 29.4 54.35 25.65 53.9 24 54.75 19.2 55.4326171875 15.3482421875 55.75 14.45 55.640625 14.775 55.5 15.15 54.15 16.05 50.1 19.85 46.35 23.35 46.2 23.35 46.5 25.7 48.85 31.15 51 36.15 52.05 37.55 53.3 39.25 63.2 48.35 62.95 44.5 64.4 34.9 65.65 26.65 66.25 24.7 Z"/>

<path fill="#B78DCB" stroke="none" d="
M 47.9 5.3
L 43.4 6.25
Q 43.45 6.3 35.95 14.3 35.65 14 35.8 12.75 35.95 11.5 36.25 11.15 36.45 10.75 37.45 9.55 38.55 8.2 39.35 7.4 32.9 9.45 26.9 13 21.7 16.1 17.95 19.7 13.45 24 7.45 36.2 7.8 37.45 7.9 39.8 9.05 57.2 16.1 72.9 19.3 80.05 23 84.6 30.3 93.45 42.3 96.9 53.1 100 64.05 97.85
L 63.1 96.8
Q 61.925390625 95.2353515625 60.8 92 58.35 84.6 57.4 69.05 56.5 54.95 57.25 54.15 57.75 53.55 59.7 53.8 61.25 53.95 62 54.3 61.75 53.95 52.15 45.9 50.6837890625 45.1470703125 49.15 44.45
L 48.35 44.1
Q 48 43.95 45.3 43.85 42.35 43.7 40.95 43.9 39.75 44.05 36.15 46.6 32.35 49.25 31.35 50.9 31.05 51.4 30.1 54.5 29 57.9 29.05 58.7 29.05 58.8 29.05 58.95 29.05 59 29.05 59.05
L 29.95 62.95
Q 30.95 67.1 31.5 68.2 31.75 68.6 32.9 70 34 71.4 34.1 71.45 34.9 71.6 37.2 70.3 39.45 69 39.7 68.3 39.9 67.65 39.1 64.6 38.4 61.95 38.2 61.55 38.1 62.4 36.9 59.35 35.8 56.6 36.75 55.7 37.8 54.7 39.4 54.6 40.9 54.5 42.3 55.2 44.15 56.2 45.35 58.4 45.9 58.85 46.35 59.45 48.6 62.25 48.75 66.65 48.85 70.5 47.3 72.9 45.9 74.6 45.4 75.55 44.85 76.65 45.25 79.65 45.55 82.2 46 83.1
L 46.25 83.6
Q 46.75 84.65 47.55 85.95 47.35 86.25 45.65 86.15 43.8 86 43.25 85.2 40.8 81.7 39.95 77.6 39.15 77.85 38.35 78.05 38.25 78.35 36.25 83.85 34.2 89.4 33.65 90.05 32.65 89.2 32.05 83.65 31.55 78.4 31.9 77.7 26.5 74.3 25.15 71.7 23.3 68.35 22.8 63.3 22.3 58.55 23.05 53.6 23.8 49.2 25.55 46.05 28.15 41.15 33.25 38.3 32.65 37.3 32.05 33.15 31.5 28.8 32.2 28.55
L 39.4 36
Q 42.05 35.5 44.75 35.75 46.1 35.9 49.05 36.65 51.35 37.3 52.05 37.55 51 36.15 48.85 31.15 46.5 25.7 46.2 23.35
L 45.9 19
Q 45.9 18.95 45.85 18.95 45.85 18.65 45.9 18.3 45.95 11.95 47.9 5.3 Z"/>

<path fill="#723B3B" fill-opacity="0.9882352941176471" stroke="none" d="
M 84.8 37.65
Q 87.2 28.6 86.75 26.3 86.5 24.9 82.25 18.8 78.35 13.2 77.85 12.8 75.5 15 74.2 16.6 72.25 19 69.4 31.45 66.6 43.45 66.85 46.8 66.9 47.75 67.25 50.6 67.65 53.3 67.8 54.05 68.45 54.1 72.9 52.95 77.6 51.75 78.45 51.1 82 48.1 84.8 37.65 Z"/>

<path fill="#B52E2E" stroke="none" d="
M 100.45 10.55
Q 97.25 7.2 92.45 6.4 87.55 5.6 83.65 7.9 81.95 9 77.85 12.8 78.35 13.2 82.25 18.8 86.5 24.9 86.75 26.3 87.2 28.6 84.8 37.65 82 48.1 78.45 51.1 77.6 51.75 72.9 52.95 68.45 54.1 67.8 54.05 67.9 54.7 68.05 55.3 68.15 55.35 74.8 56.15 81.2 56.9 81.95 57.5 79.6 61.5 74.75 62.8 74.4 62.95 78.95 64.45 83.65 66 85.55 65.7 87.15 65.45 91.35 63.1 95.45 60.75 96.4 59.65 97.2 58.75 99.05 55.6 101 52.2 101.35 50.9 102.3 46.8 103.05 43.45 104.55 36.95 104.95 36.9 106.6 39.85 104.3 58.35 105.85 55.45 107 52.1 110.1 43.1 109.25 33.3 108.35 23.55 103.7 15.2 102.1 12.25 100.45 10.55 Z"/>
</g>

<g id="Water_Body_Eyes_0_Layer0_0_FILL">
<path fill="#000000" fill-opacity="0.9882352941176471" stroke="none" d="
M 66.2 -3.95
Q 63.4 -7.75 59.4 -7.75 55.45 -7.75 52.65 -3.95 49.85 -0.15 49.85 5.15 49.85 10.45 52.65 14.25 55.45 18.05 59.4 18.05 63.4 18.05 66.2 14.25 69 10.45 69 5.15 69 -0.15 66.2 -3.95
M 64.1 0.85
Q 65.6 3.1 65.6 6.2 65.6 9.35 64.1 11.55 62.65 13.8 60.55 13.8 58.5 13.8 57 11.55 55.55 9.35 55.55 6.2 55.55 3.1 57 0.85 58.5 -1.4 60.55 -1.4 62.65 -1.4 64.1 0.85
M 21.05 -0.8
Q 16.95 -5.85 11.15 -5.85 5.4 -5.85 1.3 -0.8 -2.75 4.3 -2.75 11.4 -2.75 18.55 1.3 23.6 5.4 28.65 11.15 28.65 16.95 28.65 21.05 23.6 25.15 18.55 25.15 11.4 25.15 4.3 21.05 -0.8
M 12.5 0.35
Q 15.75 0.35 18.05 3.35 20.4 6.4 20.4 10.75 20.4 15.1 18.05 18.15 15.75 21.2 12.5 21.2 9.3 21.2 6.95 18.15 4.65 15.1 4.65 10.75 4.65 6.4 6.95 3.35 9.3 0.35 12.5 0.35 Z"/>

<path fill="#FFFFFF" fill-opacity="0.9882352941176471" stroke="none" d="
M 65.6 6.2
Q 65.6 3.1 64.1 0.85 62.65 -1.4 60.55 -1.4 58.5 -1.4 57 0.85 55.55 3.1 55.55 6.2 55.55 9.35 57 11.55 58.5 13.8 60.55 13.8 62.65 13.8 64.1 11.55 65.6 9.35 65.6 6.2
M 18.05 3.35
Q 15.75 0.35 12.5 0.35 9.3 0.35 6.95 3.35 4.65 6.4 4.65 10.75 4.65 15.1 6.95 18.15 9.3 21.2 12.5 21.2 15.75 21.2 18.05 18.15 20.4 15.1 20.4 10.75 20.4 6.4 18.05 3.35 Z"/>
</g>

<g id="Catapult_Shield_copy_0_Layer0_0_FILL">
<path fill="#000000" stroke="none" d="
M 78.15 28
Q 78 27.45 57.6 13.6 36.55 -0.7 34.15 -0.6 31.9 -0.55 14.85 12.9 -2.8953125 26.9470703125 -3.7 30.4 -4.4646484375 33.858203125 9.55 57.6 15.6 67.85 27.3 78 36.75 86.2 39.55 86.85 42.787109375 87.58984375 61.2 61.8 79.66875 36.0125 78.15 28
M 68.7 36.05
Q 66.85 40.65 65.35 43.5 58.75 56.5 49.75 67.9 47.5 70.8 42.8 75.15 37.75 79.8 36.55 79.75 36.15 79.7 29.3 73.5 22.2 67.1 20.85 65.35 15.75 58.9 11.95 50.05 9.85 45.15 7.8 38.45 7.15 36.35 6.5 33.65 5.6 29.9 5.85 28.95 6.15 28 19.75 16.2 33.45 4.25 34.55 4.3 35.4 4.4 52.85 16.75 70.4 29.2 70.55 30.05 70.75 30.85 68.7 36.05
M 64.2 33.55
Q 65.2 30.7 64.4 29.25 63.85 28.2 49.85 20.15 35.4 11.85 33.5 12.4 32 12.85 21.3 21.25 10.35 29.8 10.3 31 10.25 31.8 12.85 38.45 15.65 45.5 17.5 48.8 18.65 50.75 28.15 61.3 38.1 72.25 39.1 71.95 40.4 71.55 50.15 57.65 60.95 42.15 64.2 33.55
M 48 22.85
Q 61.5 30.3 61.45 30.35 60.1 37 57 43.4 55.1 47.35 48.7 56.6 48.05 57.5 43.3 63.95 38.8 69.95 38.55 70 37.8953125 70.235546875 36.2 68.3 36 68.2 26.3 54.5 16.3 40.5 15.75 39.1 13.4 33.7 13.1 29.5 19.1 26.55 31.25 17.55
L 34.2 15.55
Q 34.5 15.4 48 22.85 Z"/>

<path fill="#666666" stroke="none" d="
M 20.85 65.35
Q 22.2 67.1 29.3 73.5 36.15 79.7 36.55 79.75 37.75 79.8 42.8 75.15 47.5 70.8 49.75 67.9 58.75 56.5 65.35 43.5 38.8 75.95 38.1 75.85 37.65 75.8 27.3 65.35 16.6 54.6 15.7 52.75 11.95 45.35 7.8 38.45 9.85 45.15 11.95 50.05 15.75 58.9 20.85 65.35 Z"/>

<path fill="#CCCCCC" stroke="none" d="
M 65.35 43.5
Q 66.85 40.65 68.7 36.05 70.75 30.85 70.55 30.05 70.4 29.2 52.85 16.75 35.4 4.4 34.55 4.3 33.45 4.25 19.75 16.2 6.15 28 5.85 28.95 5.6 29.9 6.5 33.65 7.15 36.35 7.8 38.45 11.95 45.35 15.7 52.75 16.6 54.6 27.3 65.35 37.65 75.8 38.1 75.85 38.8 75.95 65.35 43.5
M 64.4 29.25
Q 65.2 30.7 64.2 33.55 60.95 42.15 50.15 57.65 40.4 71.55 39.1 71.95 38.1 72.25 28.15 61.3 18.65 50.75 17.5 48.8 15.65 45.5 12.85 38.45 10.25 31.8 10.3 31 10.35 29.8 21.3 21.25 32 12.85 33.5 12.4 35.4 11.85 49.85 20.15 63.85 28.2 64.4 29.25 Z"/>

<path fill="#3333CC" stroke="none" d="
M 25.35 24.05
Q 28.3 20.8 31.25 17.55 19.1 26.55 13.1 29.5 13.4 33.7 15.75 39.1 16.3 40.5 26.3 54.5 36 68.2 36.2 68.3 31.6 61.3 25.1 46.05 19.2 32.3 19.4 31.15 19.55 30.55 25.35 24.05 Z"/>

<path fill="#FFFFFF" stroke="none" d="
M 52.3 31.55
Q 52.5 32.05 50.75 44 49 55.65 48.7 56.6 55.1 47.35 57 43.4 60.1 37 61.45 30.35 61.5 30.3 48 22.85 34.5 15.4 34.2 15.55 34.65 21.7 38.8 57.65 41.55 41.55 40.55 25.35 43.5 26.65 47.55 28.7 52.05 31.05 52.3 31.55 Z"/>

<path fill="#0099FF" stroke="none" d="
M 50.75 44
Q 52.5 32.05 52.3 31.55 52.05 31.05 47.55 28.7 43.5 26.65 40.55 25.35 41.55 41.55 38.8 57.65 34.65 21.7 34.2 15.55
L 31.25 17.55
Q 28.3 20.8 25.35 24.05 19.55 30.55 19.4 31.15 19.2 32.3 25.1 46.05 31.6 61.3 36.2 68.3 37.8953125 70.235546875 38.55 70 38.8 69.95 43.3 63.95 48.05 57.5 48.7 56.6 49 55.65 50.75 44 Z"/>
</g>

<g id="Symbol_15_0_Layer0_0_FILL">
<path fill="#33CCFF" stroke="none" d="
M 43.2 33.6
Q 46.85 24.45 42.9 15.4 39.05 6.4 29.9 2.7 20.8 -0.9 11.7 2.95 2.7 6.8 -0.95 15.95 -4.6 25.05 -0.75 34.15 3.15 43.2 12.25 46.8 21.4 50.5 30.45 46.6 39.55 42.7 43.2 33.6
M 26.25 4.1
Q 33.95 7.15 37.2 14.75 40.45 22.35 37.35 30.05 34.3 37.7 26.7 41 19.1 44.25 11.45 41.2 3.75 38.15 0.45 30.5 -2.75 22.9 0.3 15.25 3.4 7.55 10.95 4.25 18.6 1.05 26.25 4.1 Z"/>

<path fill="#33CCFF" fill-opacity="0.4470588235294118" stroke="none" d="
M 37.2 14.75
Q 33.95 7.15 26.25 4.1 18.6 1.05 10.95 4.25 3.4 7.55 0.3 15.25 -2.75 22.9 0.45 30.5 3.75 38.15 11.45 41.2 19.1 44.25 26.7 41 34.3 37.7 37.35 30.05 40.45 22.35 37.2 14.75
M 10.9 20.4
Q 8.3 19.35 7.15 16.75 6.05 14.1 7.1 11.5 8.15 8.85 10.75 7.75 13.4 6.6 16 7.65 18.65 8.7 19.75 11.35 20.9 13.95 19.85 16.6 18.8 19.2 16.15 20.35 13.55 21.45 10.9 20.4 Z"/>

<path fill="#FFFFFF" stroke="none" d="
M 7.15 16.75
Q 8.3 19.35 10.9 20.4 13.55 21.45 16.15 20.35 18.8 19.2 19.85 16.6 20.9 13.95 19.75 11.35 18.65 8.7 16 7.65 13.4 6.6 10.75 7.75 8.15 8.85 7.1 11.5 6.05 14.1 7.15 16.75 Z"/>
</g>
</defs>

<g transform="matrix( 0.6446075439453125, 0, 0, 0.6446075439453125, 460.2,498.55) ">
<g transform="matrix( 1, 0, 0, 1, -18.95,-259.95) ">
<g transform="matrix( 1, 0, 0, 1, 0,0) ">
<use xlink:href="#Water_Attack_6_Layer7_0_FILL"/>
</g>

<g transform="matrix( 0.999481201171875, -0.016571044921875, 0.0387420654296875, 0.9998626708984375, 138.75,70.4) ">
<g transform="matrix( 1, 0, 0, 1, 0,0) ">
<use xlink:href="#Water_Body_Shell_0_Layer0_0_FILL"/>
</g>
</g>

<g transform="matrix( 0.999481201171875, -0.016571044921875, 0.0387420654296875, 0.9998626708984375, 137.25,50.95) ">
<g transform="matrix( 1, 0, 0, 1, 0,0) ">
<use xlink:href="#Water_Body_Eyes_0_Layer0_0_FILL"/>
</g>
</g>

<g transform="matrix( 0.9723052978515625, 0.2320556640625, -0.2320556640625, 0.9723052978515625, 145.2,153.1) ">
<g transform="matrix( 1, 0, 0, 1, 0,0) ">
<use xlink:href="#Catapult_Shield_copy_0_Layer0_0_FILL"/>
</g>
</g>

<g transform="matrix( -1.707916259765625, 0, 0, 1.707916259765625, 273.1,59.35) ">
<g transform="matrix( 1, 0, 0, 1, 0,0) ">
<use filter="url(#Filter_1)" xlink:href="#Symbol_15_0_Layer0_0_FILL"/>
</g>
</g>

<g transform="matrix( -0.5030975341796875, 0, 0, 0.5030975341796875, 217.55,41.8) ">
<g transform="matrix( 1, 0, 0, 1, 0,0) ">
<use xlink:href="#Symbol_15_0_Layer0_0_FILL"/>
</g>
</g>

<g transform="matrix( -0.4954833984375, 0, 0, 0.4954833984375, 214.25,136.65) ">
<g transform="matrix( 1, 0, 0, 1, 0,0) ">
<use xlink:href="#Symbol_15_0_Layer0_0_FILL"/>
</g>
</g>

<g transform="matrix( -0.5117340087890625, 0, 0, 0.5117340087890625, 195.45,83.2) ">
<g transform="matrix( 1, 0, 0, 1, 0,0) ">
<use xlink:href="#Symbol_15_0_Layer0_0_FILL"/>
</g>
</g>
</g>
</g>
</svg>
