
<svg xmlns="http://www.w3.org/2000/svg" version="1.1" xmlns:xlink="http://www.w3.org/1999/xlink" preserveAspectRatio="none" x="0px" y="0px" width="1000px" height="1000px" viewBox="0 0 1000 1000">
<defs>
<radialGradient id="Gradient_1" gradientUnits="userSpaceOnUse" cx="0" cy="0" r="116.14999999999998" fx="0" fy="0" gradientTransform="matrix( 1.0000000000000002, 0, 0, 1.0000000000000002, 308.9,142.35) " spreadMethod="pad">
<stop  offset="0%" stop-color="#FFFFFF"/>

<stop  offset="28.235294117647058%" stop-color="#FFFEF4"/>

<stop  offset="49.411764705882355%" stop-color="#FFD200"/>

<stop  offset="74.11764705882354%" stop-color="#FF0000"/>
</radialGradient>

<radialGradient id="Gradient_2" gradientUnits="userSpaceOnUse" cx="0" cy="0" r="40.80000000000001" fx="0" fy="0" gradientTransform="matrix( 0.9999999999999998, 0, 0, 0.9999999999999998, 343.9,145.35) " spreadMethod="pad">
<stop  offset="0%" stop-color="#FFFFFF"/>

<stop  offset="28.235294117647058%" stop-color="#FFFEF4"/>

<stop  offset="49.411764705882355%" stop-color="#FFD200"/>

<stop  offset="74.11764705882354%" stop-color="#FF0000"/>
</radialGradient>

<g id="Bam_1_Layer0_0_FILL">
<path fill="url(#Gradient_1)" stroke="none" d="
M 354.45 162.5
Q 351.782421875 163.609375 349.3 164.45 354.71875 167.1564453125 371.4 176.4 355.3 157.65 351.3 152.2
L 424.65 144.4
Q 406.55625 139.55390625 355.55 129.75 383.119140625 115.846875 398.35 107.1 383.721484375 110.0203125 353.8 118.6 369.0443359375 95.5439453125 387 71.9 344.330859375 102.9826171875 339.15 106.45 342.544140625 96.252734375 344.9 89 334.5546875 103.770703125 322.55 118.35 337.47734375 109.2681640625 367.65 94.35 321.6943359375 137.8 354.45 162.5 Z"/>

<path fill="url(#Gradient_2)" stroke="none" d="
M 343.45 177.55
Q 349.221875 181.5185546875 352.85 184.1 352.1265625 179.651953125 347.5 165.05 334.301171875 169.1439453125 327.1 165.15 318.1109375 160.1650390625 343.45 177.55 Z"/>
</g>
</defs>

<g transform="matrix( -0.7840118408203125, 0.18511962890625, -0.218475341796875, -0.9263763427734375, 782.45,568.15) ">
<g transform="matrix( 1, 0, 0, 1, 0,0) ">
<use xlink:href="#Bam_1_Layer0_0_FILL"/>
</g>
</g>

<g transform="matrix( 0.770294189453125, -0.2360382080078125, 0.276702880859375, 0.91058349609375, 215.6,447.1) ">
<g transform="matrix( 1, 0, 0, 1, 0,0) ">
<use xlink:href="#Bam_1_Layer0_0_FILL"/>
</g>
</g>
</svg>
