
<svg xmlns="http://www.w3.org/2000/svg" version="1.1" xmlns:xlink="http://www.w3.org/1999/xlink" preserveAspectRatio="none" x="0px" y="0px" width="1000px" height="1000px" viewBox="0 0 1000 1000">
<defs>
<radialGradient id="Gradient_1" gradientUnits="userSpaceOnUse" cx="0" cy="0" r="114.69287793930363" fx="0" fy="0" gradientTransform="matrix( 0.9998441233699525, 0.017655847829292817, -0.012860432369484892, 0.7226909071360536, 304.1,137.2) " spreadMethod="pad">
<stop  offset="0%" stop-color="#FFFFFF"/>

<stop  offset="28.235294117647058%" stop-color="#FFFEF4"/>

<stop  offset="49.411764705882355%" stop-color="#FFD200"/>

<stop  offset="74.11764705882354%" stop-color="#FF0000"/>
</radialGradient>

<g id="Bam_0_Layer0_0_FILL">
<path fill="url(#Gradient_1)" stroke="none" d="
M 350.4 71.15
Q 348.75 73.4 334.45 97.85 320.6861328125 121.3427734375 314.6 132.5 317.4314453125 135.3576171875 319.35 135.75 318.4 137.8 315.6 143.5 313.3 148.75 313.3 151.7 313.3 155.65 328.9 168.55 343.4 180.6 352.95 185.8 353.45 183.7 347 163.4 349.3 164.15 371.4 176.4 355.3 157.65 354.75 156.5
L 393.35 153.8
Q 433 150.55 438.35 147.9 431.35 146.6 365.9 128 397.85 105.45 399.75 104.25
L 399.5 103.9
Q 398.5 104.3 360.7 114.3 362.7 110.5 385.3 85.2 406.9 61 408.2 56.5 345.5 102.2 339.15 106.45 350.4 72.65 350.4 71.15 Z"/>
</g>
</defs>

<g transform="matrix( -0.7840118408203125, 0.18511962890625, -0.218475341796875, -0.9263763427734375, 782.45,568.15) ">
<g transform="matrix( 1, 0, 0, 1, 0,0) ">
<use xlink:href="#Bam_0_Layer0_0_FILL"/>
</g>
</g>

<g transform="matrix( 0.770294189453125, -0.2360382080078125, 0.276702880859375, 0.91058349609375, 215.6,447.1) ">
<g transform="matrix( 1, 0, 0, 1, 0,0) ">
<use xlink:href="#Bam_0_Layer0_0_FILL"/>
</g>
</g>
</svg>
