
<svg xmlns="http://www.w3.org/2000/svg" version="1.1" xmlns:xlink="http://www.w3.org/1999/xlink" preserveAspectRatio="none" x="0px" y="0px" width="625px" height="600px" viewBox="0 0 625 600">
<defs>
<radialGradient id="Gradient_1" gradientUnits="userSpaceOnUse" cx="0" cy="0" r="270.75" fx="0" fy="0" gradientTransform="matrix( 1, 0, 0, 0.9764081255771008, 155.55,262.45) " spreadMethod="pad">
<stop  offset="43.529411764705884%" stop-color="#FFFFFF"/>

<stop  offset="72.94117647058823%" stop-color="#FFCC00"/>

<stop  offset="99.2156862745098%" stop-color="#FF5400"/>
</radialGradient>

<filter id="Filter_1" x="-20%" y="-20%" width="140%" height="140%" color-interpolation-filters="sRGB">
<feColorMatrix in="SourceGraphic" type="matrix" values="1 0 0 0 0 0 1 0 0 0 0 0 1 0 0 0 0 0 0.94 0" result="result1"/>
</filter>

<filter id="Filter_2" x="-20%" y="-20%" width="140%" height="140%" color-interpolation-filters="sRGB">
<feColorMatrix in="SourceGraphic" type="matrix" values="1 0 0 0 0 0 1 0 0 0 0 0 1 0 0 0 0 0 0.07 0" result="result1"/>
</filter>

<g id="Duplicate_Items_Folder_exploscircle03_0_Layer0_0_FILL">
<path fill="url(#Gradient_1)" stroke="none" d="
M 286.8 48.75
Q 237.55 0 168 0 98.4 0 49.2 48.75 0 97.55 0 166.5 -0.0013671875 235.4541015625 46.35 279.25 92.7615234375 323.0349609375 162.75 325.15 232.78828125 327.26484375 284.4 281.35 336.001171875 235.445703125 336 166.5 336 97.55 286.8 48.75 Z"/>
</g>

<g id="Duplicate_Items_Folder_Explosion03_4_Layer1_0_FILL">
<path fill="#413232" stroke="none" d="
M -379.3 -183.55
Q -384.35 -187.2 -394.9 -187.2 -406.75 -187.2 -414.1 -179.45 -421.65 -171.45 -421.65 -158.15 -421.65 -155.4 -420.7 -149.85 -419.8 -144.7 -418.55 -139.75 -429.15 -141.7 -434.05 -130.45 -436.95 -123.85 -436.95 -117.65 -436.95 -115.75 -435.4 -113.8 -433.85 -111.85 -433.85 -109.9 -433.85 -105.8 -435.5 -103.05 -436.25 -101.85 -439.15 -98.75 -444.5 -93.15 -444.5 -83.6 -444.5 -78.05 -442.95 -71.8 -442.5 -71.15 -442.1 -70.4 -438.5 -64.1 -437.5 -56.9 -433.2 -47.8 -426.25 -37.5 -420.85 -33.9 -417.95 -26.35 -414.35 -22 -410.65 -18.3 -402.55 -10.25 -397.25 -8.65 -405.1 -24.7 -418.35 -44.7 -427.65 -60.9 -427.65 -78.2 -427.65 -86.05 -424.75 -89.6 -422.2 -92.7 -417.2 -92.7 -415.35 -92.7 -411.35 -91.9 -407.55 -72.15 -394.9 -48.45 -388.35 -36.15 -381.6 -27.4 -374.65 -18.5 -369.7 -16.2
L -368.15 -16.2
Q -384.6 -35.2 -396.2 -69.2 -406.35 -99.1 -406.35 -118.45 -406.35 -122.1 -406.5 -127.1 -406.45 -130.6 -405.45 -132.4 -403.6 -135.75 -391.05 -141.3 -391.2 -151.2 -384.6 -160.05 -378.15 -168.65 -371.25 -168.8 -373.8 -179.5 -379.3 -183.55
M -510.6 -63.25
Q -514.5 -66.75 -518.7 -66.75 -534.8 -66.75 -547.05 -46.8 -551.95 -38.75 -554.9 -29.5 -557.65 -20.7 -557.65 -14.05 -557.65 -4.75 -554.3 2.45 -551.05 9.4 -545.45 12.7
L -545.65 13.3
Q -546.05 13.65 -547 12.7 -548.25 14.2 -549.65 17.25 -551.45 21.15 -551.45 24.1 -551.45 29.4 -548.2 34.45 -544.75 39.9 -540.8 38.65 -542.05 41.15 -542.95 44.45 -543.9 48.1 -543.9 50.85 -543.9 73.15 -511.7 90.6 -500.5 96.7 -487.75 100.85 -477.1 104.35 -473 104.35 -468.8 104.35 -466.1 102.7 -466.05 102.7 -466 102.65 -464.7 101.8 -461.65 98.6 -455.55 92.2 -444.5 90.55 -456.7 74.3 -456.7 68.5 -456.7 63.5 -448.1 62.8 -445.3 62.55 -441.05 62.8 -435.65 63.05 -435.4 63.05 -435.4 54.05 -427.35 49.3 -420.65 45.3 -414.1 46.4 -432.35 40.05 -445.4 26.1 -458.25 12.35 -458.25 -0.3 -458.25 -7.6 -453.75 -13.2 -448.9 -19.3 -441.6 -19.3 -436.5 -19.3 -436.1 -18.9 -435.85 -18.35 -435.45 -17.75
L -435.4 -17.75
Q -428.55 -17.75 -422.2 -11.45 -415.8 -5.1 -414.1 3.6 -414.25 -9 -415.6 -17.4 -416.4 -22.05 -417.6 -25.4 -417.8 -25.9 -417.95 -26.35 -422.15 -31.5 -426.25 -37.5 -430.75 -40.5 -436.95 -40.8
L -438.5 -40.8
Q -436.5 -49.35 -437.5 -56.9 -441.25 -64.8 -442.95 -71.8 -450.45 -83.6 -463.7 -83.6 -475.65 -83.6 -490.2 -73.85 -504.8 -64.15 -507.1 -54.55
L -508.65 -54.55
Q -506.15 -59.25 -510.6 -63.25
M 297.7 -27.05
Q 285.5 -13.65 285.5 -7.1 285.5 -4.15 288.5 2.1 290 5.25 291.5 8.25 292.85 6.55 296.95 3.65 301.35 0.5 302.95 0.5 308.95 0.5 311.45 5.2 313 8.05 313 11.9 313 12.85 310.15 21.15 308.65 25.5 308.3 28.15 307.15 19.9 295 15.1 292.55 14.15 290 13.4 281.2 10.85 271.75 11.15 278.55 14.8 284.9 22.15 291.5 29.85 291.5 34.75 291.5 36.5 288.3 41.75 286.95 43.95 285.65 45.55 286.8 44.55 288.2 43.45 293.4 40.2 300.6 40.2 302.95 40.2 314.35 46.4 313.7 44.1 313 37.8 312.25 31.15 311.45 28 313.75 26.8 317.2 25.85 320.85 24.9 323.65 24.9 337.55 24.9 349.75 40.3 361.85 55.6 361.85 72.95 361.85 80.75 356.05 92.3 350.65 102.95 341.95 113.65 333.3 124.3 324.65 130.95 315.4 138.05 309.15 138.05 306.45 138.05 291 133.4 274.65 128.3 271.75 127.4 276.4 122.1 279.9 114.75 283.95 106.25 283.95 99.7 283.95 86.5 270.25 76.85 257.2 67.7 241.15 67.7 224.3 67.7 213.65 79.85 204.5 90.35 204.5 102.8 204.5 112.25 209.5 117.05 210.15 117.7 214.8 121.4 218.55 124.4 221.15 127.4 219.05 122.9 223.05 119.75 226.85 116.75 233.4 116.75 239.65 116.75 244.25 121.2 248.7 125.55 248.7 131.05 248.7 136.1 244.65 142 241.15 147.1 238.05 148.7 236.8 144.3 232.3 141.35 227.3 138.05 220.4 138.05 207.1 138.05 198.3 150.25 191.65 159.5 190.85 169.55 193.05 172.55 193.85 176.2 192.9 176.2 192.5 175.45
L 192.3 174.65
Q 191.15 175.05 190.95 174.95 190.75 174.85 190.75 172.35 190.75 170.95 190.85 169.55 186.65 163.75 177.15 160.15 166.9 156.25 156.25 156.25 147.6 156.25 142.2 159.95 138.9 162.25 137.3 165.7 137.15 156.3 131.5 145.3 125.7 134 115.8 124.25 105.25 113.9 92.65 107.95 78.75 101.4 64.6 101.4 40 101.4 22.75 113.6 2.8 127.65 2.8 152.4 2.8 158.7 3.1 159.6 3.5 160.8 5.45 162.45 3.35 160.85 2.45 160.35 0.65 159.35 -4.15 159.35 -17.2 159.35 -26.2 168.5 -35.35 177.75 -35.35 191.3 -35.35 194.1 -34.4 196.85 -33.5 199.35 -32.25 200.6 -37.2 198.25 -42.6 200.4 -47.6 202.4 -51.95 207.9 -61.3 219.75 -61.3 235.7 -61.3 241.7 -52.05 251.7 -51.6 252.15 -48.55 255.05 -43.25 256.85 -38.45 263.2
L -40 263.2
Q -45.55 257.95 -48.55 255.05 -49.1 254.9 -49.65 254.75 -52.15 254.1 -63.65 254.1 -73.6 254.1 -79.9 257.9 -87.85 262.75 -87.05 272.5 -89 271.05 -94.1 270.15 -98.25 269.4 -101.55 269.4 -109.85 269.4 -117.9 271.05 -123 272.05 -134.5 275.4
L -148.25 275.4
Q -147 271.9 -146.1 267.55 -145.15 262.9 -145.15 260.1 -145.15 236.2 -156.3 224.55 -169.05 211.2 -197.1 212.85 -195.85 210.4 -194.05 196.65 -192.45 184.7 -192.45 183 -192.45 163.9 -207.75 150.25 -223.1 136.5 -244.55 136.5 -253.75 136.5 -263.9 140.95 -274.15 145.5 -282.65 153.4 -302.5 171.7 -302.5 195.95 -302.5 205.85 -298.75 211 -298.45 211.4 -298.1 211.8 -307.75 220.5 -317.3 225.55 -331.05 232.8 -345.3 232.8 -362.8 232.8 -372.85 220.55 -383.5 207.5 -383.5 183 -383.5 154.2 -368.2 136.5 -361.75 129.05 -353.65 125 -346 121.2 -338.55 121.2 -331.5 121.2 -326.9 124.75 -321 130.5 -316.25 134.95 -316.25 133.5 -315.45 129.55 -314.7 125.55 -314.7 123.5 -314.7 111.85 -324.5 106.8 -332.1 102.8 -345.3 102.95 -340.7 101.85 -339.5 94.6 -339.1 92.1 -339.1 83.6 -339.1 67.45 -351.3 54 -363.75 40.2 -379.6 40.2 -401.15 40.2 -423.25 64.7 -431.9 74.3 -437.55 84.5 -439.8 88.55 -441.1 91.9 -441.1 91.95 -441.15 92.05 -442.95 96.6 -442.95 99.7 -442.95 102.4 -442 106.2 -441.8 106.9 -441.6 107.55 -439.9 109.4 -438.5 112.1
L -440.05 112.1
Q -440.9 110.05 -441.6 107.55 -442.55 106.6 -443.5 105.85 -447.35 102.95 -453.05 102.95 -459.15 102.95 -465.1 105.15 -468.9 106.6 -472.65 108.9 -481.65 114.45 -488.95 124.35 -496.05 134.05 -500.05 145.9 -504.2 158.05 -504.2 170 -504.2 194.2 -493.4 208.5 -481.85 223.75 -456.7 229.7 -457.55 232.15 -456.2 236.2 -454.8 240.25 -451.9 243.8 -444.7 252.65 -436.95 249.45 -436.8 258.45 -432.45 267.55 -428.15 276.55 -420.6 283.8 -403.8 300 -381.35 300 -371.7 300 -357.65 292.55 -352.95 290.05 -348.85 287.4 -349.2 288.75 -349.45 290.15 -350.05 293.9 -349.75 296.9 -349.75 334.85 -323.85 354.8 -316.45 360.5 -307.75 364.25 -290.55 371.7 -268.2 371.7 -255.3 371.7 -242.2 366.6 -238.95 365.25 -236.45 364.25 -233.85 363.2 -232.1 362.55 -230.9 362.1 -229.7 361.7
L -229.9 362.6
Q -230.05 363.45 -230.2 364.25 -230.6 366.75 -230.6 368.6 -230.6 379.15 -218.4 385.5 -209.65 390.1 -203.3 390.1 -187.65 390.1 -177.3 381.7 -172.65 377.45 -170.65 375.9 -167.35 373.25 -164.35 373.25 -161.5 373.25 -158.85 375.65 -157.65 376.75 -154.4 380.9 -148.35 388.55 -142.05 388.55 -139.4 388.55 -129.05 382.4 -118.3 376.05 -117.65 373.25 -115.4 379.55 -112.65 382.2 -109.2 385.45 -103.1 385.45 -93.9 385.45 -85.65 377.75 -81.9 373.5 -79.2 370.9 -76.7 389.75 -56.7 403.9 -46.5 411.1 -33.95 415.2 -21.85 419.15 -10.95 419.15 18.15 419.15 39.55 400.15 48.6 392.1 53.95 382.3 59.05 372.85 59.4 364.25 59.4 364.2 59.4 364.15 59.45 364.2 59.55 364.25 61.5 365.5 68.35 367.65 76.25 370.15 79.95 370.15 101.4 370.15 117.8 364.25 130.75 359.6 140.5 351.2 150.1 342.95 154.45 332.55 158.65 322.4 157.05 312.2 157.55 312.2 159.55 313 161.6 313.75 163.8 313.75 166.95 313.75 169.9 309.45 172.65 305.45 174.5 303 179.2 304.4 186.8 306 201.6 309.1 207.4 309.1 277.7 309.1 310 284.75 322.3 275.45 328.15 263.2 332.75 253.45 332.75 243.25 332.75 236.3 331.5 230.85 339.75 227 344.35 217.2 348.1 209.2 348.1 202.95 348.1 202.05 347.95 201 364.35 201.45 380.05 196 396.4 190.3 408.95 179.4 420.55 169.35 424.95 158.5 429.4 147.6 424.4 140.95 448.6 133.3 463.05 109.2 476.35 86.95 476.35 60.15 476.35 47.65 472.05 36.5 467.75 25.45 460.15 17.85 452.2 10 442.2 7.4 431.45 4.6 419.75 8.25 415.35 -21.15 403.25 -34.6 390.85 -48.35 367.85 -48.35 364.2 -48.35 353.25 -45.35 342.3 -42.35 341.9 -42.35 341.9 -51.7 333 -64.05 333.15 -63.3 333.35 -62.45 334.3 -58.2 334.3 -56.1 334.3 -52.8 332.95 -47.25 331.5 -41.5 329.65 -37.7 324.45 -39.5 323.35 -39.85 320 -40.8 317.45 -40.8 310.2 -40.8 297.7 -27.05
M 289.95 -158.15
Q 289.95 -160 286.9 -162.8 284.1 -165.4 282.4 -165.7 285.65 -168.75 284.85 -173.15 284.1 -177.1 280.3 -181.15 276.6 -185.05 271.4 -187.55 266 -190.15 260.9 -190.15 249.55 -190.15 239.35 -184.05 230.85 -178.9 224.25 -170.35 235.6 -172.6 240.45 -164.95 244.25 -158.95 244.25 -145.95 244.25 -125.45 231.35 -99.35 221.65 -79.85 211.65 -71.35 228.35 -81.1 242.15 -96.1 251.1 -105.85 256.15 -115.5 258 -107.6 258 -95.6 258 -89.35 256.9 -82.75 255.9 -81.65 254.9 -80.45 248.5 -72.7 244.7 -63.7 241.15 -55.3 241.15 -49.1 241.15 -46.55 242 -43.4 240.05 -40.05 237.95 -36.6 234.7 -31.3 220.4 -10.1 209.65 5.8 204.5 15.8 215.9 12.9 243.55 -20.55 248.3 -26.35 252.75 -32.05 256.15 -29.95 258.55 -29.95 278.5 -29.95 289.95 -45.2 299.2 -57.6 299.25 -72.8 298 -74 296.85 -75.65 296.4 -76.35 296 -76.95 294.4 -79.35 293.55 -80.65 291.6 -83.55 289.95 -84.95
L 291.5 -84.95
Q 292.15 -83.85 293.6 -82.7 296.15 -80.75 296.2 -80.7 297.3 -79.7 298 -78.45 299.25 -76.15 299.25 -72.95 299.25 -72.9 299.25 -72.8 302.4 -69.85 306.05 -69.85 310.85 -69.85 313.05 -75.85 314.35 -79.55 314.35 -83.6 314.35 -84.05 314.35 -84.5 311.25 -87.4 308.15 -89.95 310.25 -93.95 311.7 -98.9 314.35 -108 314.35 -118.45 314.35 -130.55 305.2 -139.7 297.55 -147.35 286.85 -150.4 289.95 -153.5 289.95 -158.15 Z"/>
</g>

<g id="Duplicate_Items_Folder_Symbol_1_3_Layer0_0_FILL">
<path fill="#FFCC00" stroke="none" d="
M 223.75 -58.15
Q 221.7 -57.35 220.6 -56.65 219 -55.55 218.45 -54.05 217.7 -51.6 220 -49.35 222.05 -47.3 224.95 -46.9 226.3 -46.7 230.5 -46.75 233.95 -46.8 235.95 -46.1 237.5 -45.6 239.3 -44.35 240.35 -43.6 242.3 -42.1 247.15 -38.6 253.05 -36.4 257.85 -34.65 262.25 -34.8 267.35 -35.05 270.4 -38 272.9 -40.5 273.3 -44.15 273.75 -47.85 271.85 -50.7 269.9 -54.1 264.05 -56.7 254.6 -60.85 244.05 -61.25 233.5 -61.65 223.75 -58.15 Z"/>
</g>
</defs>

<g transform="matrix( 0.5390167236328125, 0, 0, 0.5390167236328125, 315.9,272.65) ">
<g transform="matrix( 1.9287109375, 0, 0, 1.97393798828125, -335.85,-224.05) ">
<g transform="matrix( 1, 0, 0, 1, 0,0) ">
<use filter="url(#Filter_1)" xlink:href="#Duplicate_Items_Folder_exploscircle03_0_Layer0_0_FILL"/>
</g>
</g>

<g transform="matrix( 3.189544677734375, 0, 0, 3.189544677734375, -539.7,-469.5) ">
<g transform="matrix( 1, 0, 0, 1, 0,0) ">
<use filter="url(#Filter_2)" xlink:href="#Duplicate_Items_Folder_exploscircle03_0_Layer0_0_FILL"/>
</g>
</g>

<g transform="matrix( 1, 0, 0, 1, 0,0) ">
<use xlink:href="#Duplicate_Items_Folder_Explosion03_4_Layer1_0_FILL"/>
</g>

<g transform="matrix( 1, 0, 0, 1, 141.85,-104.25) ">
<g transform="matrix( 1, 0, 0, 1, 0,0) ">
<use xlink:href="#Duplicate_Items_Folder_Symbol_1_3_Layer0_0_FILL"/>
</g>
</g>

<g transform="matrix( -1, 0, 0, 1, -163.9,-87.9) ">
<g transform="matrix( 1, 0, 0, 1, 0,0) ">
<use xlink:href="#Duplicate_Items_Folder_Symbol_1_3_Layer0_0_FILL"/>
</g>
</g>

<g transform="matrix( 0.8850555419921875, 0.465484619140625, -0.465484619140625, 0.8850555419921875, 190.25,69.4) ">
<g transform="matrix( 1, 0, 0, 1, 0,0) ">
<use xlink:href="#Duplicate_Items_Folder_Symbol_1_3_Layer0_0_FILL"/>
</g>
</g>

<g transform="matrix( -0.73504638671875, -0.678009033203125, -0.678009033203125, 0.73504638671875, -10.65,-53.6) ">
<g transform="matrix( 1, 0, 0, 1, 0,0) ">
<use xlink:href="#Duplicate_Items_Folder_Symbol_1_3_Layer0_0_FILL"/>
</g>
</g>

<g transform="matrix( -0.4403533935546875, -0.2989044189453125, -0.2989044189453125, 0.4403533935546875, -187.8,131.6) ">
<g transform="matrix( 1, 0, 0, 1, 0,0) ">
<use xlink:href="#Duplicate_Items_Folder_Symbol_1_3_Layer0_0_FILL"/>
</g>
</g>

<g transform="matrix( -0.633819580078125, 0, 0, 0.633819580078125, -152.15,-15) ">
<g transform="matrix( 1, 0, 0, 1, 0,0) ">
<use xlink:href="#Duplicate_Items_Folder_Symbol_1_3_Layer0_0_FILL"/>
</g>
</g>

<g transform="matrix( 0.7260284423828125, -0.211334228515625, 0.211334228515625, 0.7260284423828125, 51.9,-20.3) ">
<g transform="matrix( 1, 0, 0, 1, 0,0) ">
<use xlink:href="#Duplicate_Items_Folder_Symbol_1_3_Layer0_0_FILL"/>
</g>
</g>

<g transform="matrix( -0.8850555419921875, 0.465484619140625, 0.465484619140625, 0.8850555419921875, -209.75,127.8) ">
<g transform="matrix( 1, 0, 0, 1, 0,0) ">
<use xlink:href="#Duplicate_Items_Folder_Symbol_1_3_Layer0_0_FILL"/>
</g>
</g>

<g transform="matrix( 0.73504638671875, -0.678009033203125, 0.678009033203125, 0.73504638671875, -8.85,4.8) ">
<g transform="matrix( 1, 0, 0, 1, 0,0) ">
<use xlink:href="#Duplicate_Items_Folder_Symbol_1_3_Layer0_0_FILL"/>
</g>
</g>

<g transform="matrix( 0.411865234375, 0.3053131103515625, -0.3053131103515625, 0.411865234375, 168.25,190) ">
<g transform="matrix( 1, 0, 0, 1, 0,0) ">
<use xlink:href="#Duplicate_Items_Folder_Symbol_1_3_Layer0_0_FILL"/>
</g>
</g>
</g>
</svg>
