
<svg xmlns="http://www.w3.org/2000/svg" version="1.1" xmlns:xlink="http://www.w3.org/1999/xlink" preserveAspectRatio="none" x="0px" y="0px" width="625px" height="600px" viewBox="0 0 625 600">
<defs>
<radialGradient id="Gradient_1" gradientUnits="userSpaceOnUse" cx="0" cy="0" r="535.1" fx="0" fy="0" gradientTransform="matrix( 1, 0, 0, 1, 484.9,254.6) " spreadMethod="pad">
<stop  offset="0.39215686274509803%" stop-color="#FFE000"/>

<stop  offset="53.333333333333336%" stop-color="#FF8C00"/>

<stop  offset="100%" stop-color="#FF0000"/>
</radialGradient>

<radialGradient id="Gradient_2" gradientUnits="userSpaceOnUse" cx="0" cy="0" r="270.75" fx="0" fy="0" gradientTransform="matrix( 1, 0, 0, 0.9764081255771008, 155.55,262.45) " spreadMethod="pad">
<stop  offset="43.529411764705884%" stop-color="#FFFFFF"/>

<stop  offset="72.94117647058823%" stop-color="#FFCC00"/>

<stop  offset="99.2156862745098%" stop-color="#FF5400"/>
</radialGradient>

<filter id="Filter_1" x="-20%" y="-20%" width="140%" height="140%" color-interpolation-filters="sRGB">
<feColorMatrix in="SourceGraphic" type="matrix" values="1 0 0 0 0 0 1 0 0 0 0 0 1 0 0 0 0 0 0.35 0" result="result1"/>
</filter>

<filter id="Filter_2" x="-20%" y="-20%" width="140%" height="140%" color-interpolation-filters="sRGB">
<feColorMatrix in="SourceGraphic" type="matrix" values="1 0 0 0 0 0 1 0 0 0 0 0 1 0 0 0 0 0 0.37 0" result="result1"/>
</filter>

<g id="Duplicate_Items_Folder_Symbol_2_0_Layer0_0_FILL">
<path fill="url(#Gradient_1)" stroke="none" d="
M 1000.9 203.05
L 1000.9 199.95
Q 985.05 199.95 952 205.95 919 211.95 908.65 211.95 879.35 211.95 874.5 209.3 871.8 207.8 871.45 204.25 871.45 199.1 871.45 195.3 871.45 185.8 877.5 170.35 883.7 154.5 883.85 150.35
L 883.85 147.6
Q 879.4 150.9 868.6 156.45 855.95 162.75 850.15 165.85
L 828.45 165.85
Q 834.85 152.8 853.5 127.5 864.1 113.15 886.95 82.5 882.3 82.5 868.2 86.85 849.45 92.95 838.45 96.45 794.45 110.4 773.05 110.4 757.15 110.4 751.7 107.4 745.5 103.95 745.5 93.35 745.5 80.9 757.6 59.5 760.6 54.1 765.95 44.7 769.8 37.35 769.95 33.75 766.7 33.75 749.7 39.95 732.75 46.15 726.9 46.15
L 726.9 27.55
Q 729.4 20.35 731.15 12.75 733.1 4.4 733.1 0 731.25 0.7 717.3 11.85 699.35 26.15 686.95 34.85 640.75 67.4 612.6 67.4 601.05 67.4 594.85 62 589.5 57.3 587.1 47.6 585.55 41.2 584.5 27.05 583.2 10.55 582 3.1 566.25 18.9 565.45 19.7 550.95 33.75 537.7 44.4 497.65 76.7 471.6 76.7 459.2 76.7 429.6 53 412.1 38.95 400.7 27.55 403.5 51.4 397.25 63.15 390 76.7 369.7 76.7 363 76.7 347.55 67.65 326.15 55.1 321.55 52.55 323.7 58.95 324.7 63.2 326.65 71.5 326.65 79.8 310.05 80.8 275.1 64.9 256.55 56.5 231.35 43.05
L 228.25 43.05
Q 245.8 58.8 257.2 70.85 278.95 93.75 277.45 104.2 264.65 110.4 175.55 116.6 181.25 117.5 187.8 120.9 196.8 125.5 200.35 132.1
L 163.55 132.1
Q 162.65 131.9 140.05 127.45 125.8 124.65 123.25 122.8
L 120.15 122.8
Q 146 133.6 163.95 143.65 198.05 162.8 203.45 181.35 193.4 181.35 171.1 186.1 148.15 191 148.05 193.75 148.05 189.05 143 190.85 142.15 191.15 138.9 192.65 136.55 193.75 135.65 193.75 138.75 196.65 144.95 202.85 151.15 209.05 154.25 211.95 152.35 211.95 143.6 215.85 143.15 216.05 142.7 216.25 141.15 216.35 139.65 216.4 91.35 218.55 74 218.55 76.1 219.5 107.8 231.85 136.65 243.1 141.85 246.05 138.6 253.2 127 258.65 123.8 260.15 117.2 262.95 111.4 265.5 108.1 267.75
L 105.2 267.75
Q 108.55 267.85 119.05 271.45 131.6 275.7 135.65 279.75 128.9 293.5 72.65 326.8 49.9 340.2 29.3 350.55 8.35 361.05 0 363.05
L 0 366.15
Q 19.8 363.05 41.65 359.95 85.35 353.75 110.85 353.75 149.9 353.75 172.75 366.3 181.8 371.25 186.7 377.45 191.05 382.95 191.05 387.85 191.05 394.35 185.8 405.45 182.3 412.8 174.2 426.45 165.25 441.55 162.6 446.65 157.35 456.9 157.35 461.9 159.1 461.8 184.6 455.55 209.3 449.5 217.4 449.5 231.85 449.5 234.35 455.7 235.2 457.85 234.95 461.6 234.8 463.65 234.45 467.7 234.45 482.7 215.9 528.85 204.35 557.55 194.15 578.9 206.9 569 233.65 546.3 258.55 525.15 271.55 515.35 292.05 499.9 308.15 492.25 327.25 483.2 343.7 483.2 352.85 483.2 357.95 490.9 361.5 496.2 364.2 507.8 367.5 521.9 368.65 524.7 371.75 532.4 377.45 532.4 382.7 532.4 390.05 528.6 394.15 526.45 403.65 520.2 412.7 514.2 417.6 511.8 425.35 508 431.3 508 438.7 508 452.55 545.05 457.7 558.75 461.65 572.25 465.4 585 465.4 588.2 470.05 577.9 473.7 570.25 480.6 555.85 486.9 545.55 506.1 514.2 523.5 514.2 531.5 514.2 570.95 545.65 579.05 552.1 599.2 568.6 613.3 580.15 616.1 582 615.9 574.85 614.1 560.5 611.8 541.75 611.65 533.25 611.4 518.55 615.55 511 620.65 501.8 632.75 501.8 634.9 501.8 655.8 513.55 657.75 514.65 701.75 539.9 770 579 782.35 582 776.75 576.4 768.1 560.5 760.05 545.65 751.9 526.7 733.1 482.75 733.1 466.15 733.1 450.9 743.9 443.9 753.25 437.85 772.9 436.9 785.9 436.3 815.2 438.05 849.6 440.1 865.65 440.2
L 868.75 440.2
Q 854.8 437.9 840.85 421.6 846.35 416.1 867.8 413.65 882.95 411.95 912.8 411.35 953.05 410.55 958.85 410.3 981.8 409.25 988.85 406.1 950.1 394.85 918.8 376.75 883.85 356.6 883.85 341.35 883.85 332.1 929 305.3 969.85 281.05 1019.5 258.45 1004.05 259.2 992.3 261.85 985.35 263.4 974.75 267.05 964.6 270.55 958.35 271.85 948.1 273.95 934.6 273.95 927.35 273.95 924.55 273.5 920.05 272.8 917.95 270.45 919.4 261.05 930.75 250.7 939.35 242.9 955.8 232.85 965 227.2 982.65 216.9 996.55 208.4 1000.9 203.05 Z"/>
</g>

<g id="Duplicate_Items_Folder_exploscircle03_0_Layer0_0_FILL">
<path fill="url(#Gradient_2)" stroke="none" d="
M 286.8 48.75
Q 237.55 0 168 0 98.4 0 49.2 48.75 0 97.55 0 166.5 -0.0013671875 235.4541015625 46.35 279.25 92.7615234375 323.0349609375 162.75 325.15 232.78828125 327.26484375 284.4 281.35 336.001171875 235.445703125 336 166.5 336 97.55 286.8 48.75 Z"/>
</g>

<g id="Duplicate_Items_Folder_Explosion03_1_Layer1_0_FILL">
<path fill="#413232" stroke="none" d="
M -223.05 174.65
Q -230.6 174.5 -238.9 179.95 -247.45 185.6 -247.45 191.5 -247.45 197.8 -241.05 201.65 -237.5 203.75 -227.5 206.8 -236.8 215.05 -236.8 218.85 -236.8 226.8 -230.15 227.95 -227.85 228.3 -222.85 228.2 -216.4 228.05 -213.75 228.15 -213.45 232.15 -207.95 235.6 -202.8 238.8 -197.85 238.8 -195.15 238.8 -191.45 236.5 -187.7 234.15 -184.9 234.15 -187.35 241.1 -182.9 242.85 -181.45 243.45 -175 243.45 -169.95 243.45 -164.45 239.3 -163.1 238.25 -160.2 235.55 -156.55 234.2 -155.2 232.1 -154.25 230.65 -154.15 228.55 -154.25 226.15 -154.25 225.05 -154.25 218.2 -157.85 214.8 -161.6 211.3 -169.6 211.3
L -171.15 211.3
Q -169.55 209.7 -169 208.75 -168.05 207.05 -168.05 204.5 -168.05 197.6 -177.25 196.3 -182.05 195.65 -189.35 195.95 -188.15 193.65 -187.3 190.6 -186.45 187.35 -186.45 184.55 -186.45 174.4 -192.5 167.15 -199 159.35 -209.3 159.35 -217.9 159.35 -221.35 163 -224.9 166.8 -223.05 174.65
M -276 85.8
Q -276.85 87.4 -277.5 89.05 -281.6 90.95 -283.65 92.8 -287.2 96 -287.2 101.25 -287.2 105.55 -286.4 106.85 -285.7 107.95 -283.65 107.8 -280.65 107.4 -278.45 107.45 -274.45 107.45 -270.35 109
L -270.15 109.8
Q -269.75 110.55 -268.8 110.55 -269.1 110.55 -272.05 113.65 -275 116.8 -275 117.3 -275 119.75 -274.05 120.9 -273.45 121.6 -271.9 122.75
L -258.1 122.75
Q -261.05 120.2 -261.75 119.45 -264.5 116.6 -265.85 113.65 -260.3 114.35 -254.95 112.9 -246.6 110.65 -245.9 110.55 -245.55 106.1 -249.45 104.85 -251.8 104.15 -258.1 102.95 -252.25 98.2 -251.2 97.1 -247.45 93.3 -247.45 89.8 -247.45 84 -253.65 79.95 -258.5 76.8 -262 76.8 -271.05 76.8 -276 85.8
M 64.05 157.2
Q 64.55 158.45 65.35 160.35 57.4 162.45 55.3 166.95 53.35 171.05 56.3 174.65 52.3 174.15 50.15 175.45 48.8 176.3 45.65 179.3 46.45 180.1 47.4 181.35 48.4 182.2 50.85 182.2 53.95 182.2 58.5 181.35 63.3 180.4 65.4 179.3
L 65.4 183.75
Q 70.25 185.35 72.2 185.9 75.8 186.85 78.4 186.85 86.3 186.85 94.5 180.85 102.2 175.2 102.2 170.8 102.2 169.95 99.25 166.95 96.6 164.3 96 164 99.9 160 101.05 157.5 102.2 155.1 102.2 150.85 102.2 142.55 94.45 138.1 89 134.95 83.8 134.95 73.65 134.95 68.5 138.1 62.5 141.75 62.5 150.05 62.5 153 64.05 157.2
M 24.35 182.2
Q 18.9 177.75 8.05 177.75 1.2 177.75 -4.75 185.35 -6.7 187.9 -8.2 190.75 -9.4 193.1 -9.4 193.65 -9.4 195.85 -8.6 198 -8.35 198.65 -8.2 199.15 -7.2 199.8 -6.3 200.6
L -7.85 200.6
Q -7.85 200.25 -8.2 199.15 -10.05 197.9 -12.15 197 -14.6 195.95 -15.6 195.95 -18.85 195.95 -20 196.35 -22.7 197.2 -24.7 200.6 -24.7 201.65 -23.75 202.95 -23.15 203.7 -21.6 205.25 -23.05 205.25 -25.55 204.5 -28.1 203.7 -30.1 203.7 -38.05 203.7 -44.05 207.15 -49.8 210.4 -52.2 215.95 -55.6 213.95 -59.8 212.6 -63.85 211.3 -66.55 211.3 -68.45 211.3 -73.4 212.85 -78.3 214.4 -80.25 214.4 -84.15 214.4 -86.95 212.1 -89.7 209.75 -96.35 209.75 -101.05 209.75 -104.95 213.05 -109.05 216.5 -108.35 220.6 -109.8 220.65 -113.45 220.55 -116.8 220.55 -118.95 221 -125.2 222.35 -125.2 228.15 -125.2 233 -116.2 235.65 -110.15 236.9 -106.95 237.8 -107 238.6 -107 239.55 -107 260.3 -74.25 260.3 -60.15 260.3 -50.65 255.65 -40 250.4 -40 241.1 -40 236.75 -43.8 232.05 -44.45 231.25 -49.7 226 -48.45 227.2 -47.65 227.75 -44.75 229.7 -41.55 229.7 -34.4 229.7 -23.1 225.15 -10.95 220.25 -10.95 215.95 -10.95 214.25 -11.35 213.2 -13.1 212.85 -14.05 212.85
L -14.05 211.3
Q -12.05 211.3 -11.35 213.2 -10.45 213.4 -9.4 213.65 -6.2 214.4 -4.15 214.4 9.6 214.4 19.7 209.75 30.35 204.85 30.35 197.5 30.35 187.05 24.35 182.2
M 105.55 96.85
Q 104.5 96.75 103.55 96.75 98.1 96.75 94.45 101.35 91.35 105.35 91.35 109.75 91.35 112.95 92 114.3 92.85 116.05 96 118.1 94.85 119.5 91.4 125 88.8 129.05 86.9 130.3
L 86.9 131.85
Q 90 130.3 91.5 129.55 94.1 128.15 94.45 127.2 100.15 131.45 100.9 131.9 103.7 133.4 108.2 133.4 120.7 133.4 126.55 125.8 131.25 119.75 131.25 109.75 131.25 102.3 126.55 96.75 121.35 90.55 112.85 90.55 109.55 90.55 107.15 94.2 106.45 95.3 105.55 96.85 Z"/>
</g>

<g id="Duplicate_Items_Folder_Symbol_1_0_Layer0_0_FILL">
<path fill="#FFCC00" stroke="none" d="
M 51.45 27.55
Q 58.75 24.7 62.45 22.05 68 18.05 68.8 12.85 69.5 8.15 66.25 4.2 63 0.2 58.35 0 54.05 -0.15 48.55 3.35 39.35 9.2 39.25 9.25 38.35 9.7 33.1 11.8 29.3 13.35 27.2 14.95 24.6 17.05 21.6 22.25 18.3 28.1 16.45 30.05 15.05 31.5 12.1 33.7 8.95 36 7.7 37.25 5.8 39.05 4.1 41.9 3.4 43.05 1.25 47.15 -0.15 49.5 0.05 51.25 0.05 52.35 0.7 53.25 1.35 54.25 2.4 54.3 25.3 38.25 51.45 27.55 Z"/>
</g>
</defs>

<g transform="matrix( 0.5390167236328125, 0, 0, 0.5390167236328125, 315.9,272.65) ">
<g transform="matrix( 0.8232421875, 0, 0, 1.1302490234375, -489.05,-259.85) ">
<g transform="matrix( 1.121002197265625, 0, 0, 1.10394287109375, 0,0) ">
<g transform="matrix( 1, 0, 0, 1, 0,0) ">
<use filter="url(#Filter_1)" xlink:href="#Duplicate_Items_Folder_Symbol_2_0_Layer0_0_FILL"/>
</g>
</g>

<g transform="matrix( 1, 0, 0, 1, 61.4,29.5) ">
<g transform="matrix( 1, 0, 0, 1, 0,0) ">
<use xlink:href="#Duplicate_Items_Folder_Symbol_2_0_Layer0_0_FILL"/>
</g>
</g>
</g>

<g transform="matrix( 1.5906829833984375, 0, 0, 1.6359100341796875, -280.7,-164.45) ">
<g transform="matrix( 1, 0, 0, 1, 0,0) ">
<use xlink:href="#Duplicate_Items_Folder_exploscircle03_0_Layer0_0_FILL"/>
</g>
</g>

<g transform="matrix( 1.643829345703125, 0, 0, 1.643829345703125, -284.55,-142.85) ">
<g transform="matrix( 1, 0, 0, 1, 0,0) ">
<use filter="url(#Filter_2)" xlink:href="#Duplicate_Items_Folder_exploscircle03_0_Layer0_0_FILL"/>
</g>
</g>

<g transform="matrix( 1, 0, 0, 1, 0,0) ">
<use xlink:href="#Duplicate_Items_Folder_Explosion03_1_Layer1_0_FILL"/>
</g>

<g transform="matrix( 1, 0, 0, 1, 141.85,-104.25) ">
<g transform="matrix( 1, 0, 0, 1, 0,0) ">
<use xlink:href="#Duplicate_Items_Folder_Symbol_1_0_Layer0_0_FILL"/>
</g>
</g>

<g transform="matrix( -1, 0, 0, 1, -163.9,-87.9) ">
<g transform="matrix( 1, 0, 0, 1, 0,0) ">
<use xlink:href="#Duplicate_Items_Folder_Symbol_1_0_Layer0_0_FILL"/>
</g>
</g>

<g transform="matrix( 0.8850555419921875, 0.465484619140625, -0.465484619140625, 0.8850555419921875, 190.25,69.4) ">
<g transform="matrix( 1, 0, 0, 1, 0,0) ">
<use xlink:href="#Duplicate_Items_Folder_Symbol_1_0_Layer0_0_FILL"/>
</g>
</g>

<g transform="matrix( -0.73504638671875, -0.678009033203125, -0.678009033203125, 0.73504638671875, -10.65,-53.6) ">
<g transform="matrix( 1, 0, 0, 1, 0,0) ">
<use xlink:href="#Duplicate_Items_Folder_Symbol_1_0_Layer0_0_FILL"/>
</g>
</g>

<g transform="matrix( -0.4403533935546875, -0.2989044189453125, -0.2989044189453125, 0.4403533935546875, -187.8,131.6) ">
<g transform="matrix( 1, 0, 0, 1, 0,0) ">
<use xlink:href="#Duplicate_Items_Folder_Symbol_1_0_Layer0_0_FILL"/>
</g>
</g>

<g transform="matrix( -0.633819580078125, 0, 0, 0.633819580078125, -152.15,-15) ">
<g transform="matrix( 1, 0, 0, 1, 0,0) ">
<use xlink:href="#Duplicate_Items_Folder_Symbol_1_0_Layer0_0_FILL"/>
</g>
</g>

<g transform="matrix( 0.7260284423828125, -0.211334228515625, 0.211334228515625, 0.7260284423828125, 51.9,-20.3) ">
<g transform="matrix( 1, 0, 0, 1, 0,0) ">
<use xlink:href="#Duplicate_Items_Folder_Symbol_1_0_Layer0_0_FILL"/>
</g>
</g>

<g transform="matrix( -0.8850555419921875, 0.465484619140625, 0.465484619140625, 0.8850555419921875, -209.75,127.8) ">
<g transform="matrix( 1, 0, 0, 1, 0,0) ">
<use xlink:href="#Duplicate_Items_Folder_Symbol_1_0_Layer0_0_FILL"/>
</g>
</g>

<g transform="matrix( 0.73504638671875, -0.678009033203125, 0.678009033203125, 0.73504638671875, -8.85,4.8) ">
<g transform="matrix( 1, 0, 0, 1, 0,0) ">
<use xlink:href="#Duplicate_Items_Folder_Symbol_1_0_Layer0_0_FILL"/>
</g>
</g>

<g transform="matrix( 0.411865234375, 0.3053131103515625, -0.3053131103515625, 0.411865234375, 168.25,190) ">
<g transform="matrix( 1, 0, 0, 1, 0,0) ">
<use xlink:href="#Duplicate_Items_Folder_Symbol_1_0_Layer0_0_FILL"/>
</g>
</g>
</g>
</svg>
