
<svg xmlns="http://www.w3.org/2000/svg" version="1.1" xmlns:xlink="http://www.w3.org/1999/xlink" preserveAspectRatio="none" x="0px" y="0px" width="625px" height="600px" viewBox="0 0 625 600">
<defs>
<radialGradient id="Gradient_1" gradientUnits="userSpaceOnUse" cx="0" cy="0" r="270.75" fx="0" fy="0" gradientTransform="matrix( 1, 0, 0, 0.9764081255771008, 155.55,262.45) " spreadMethod="pad">
<stop  offset="43.529411764705884%" stop-color="#FFFFFF"/>

<stop  offset="72.94117647058823%" stop-color="#FFCC00"/>

<stop  offset="99.2156862745098%" stop-color="#FF5400"/>
</radialGradient>

<filter id="Filter_1" x="-20%" y="-20%" width="140%" height="140%" color-interpolation-filters="sRGB">
<feColorMatrix in="SourceGraphic" type="matrix" values="1 0 0 0 0 0 1 0 0 0 0 0 1 0 0 0 0 0 0 0" result="result1"/>
</filter>

<g id="Duplicate_Items_Folder_exploscircle03_0_Layer0_0_FILL">
<path fill="url(#Gradient_1)" stroke="none" d="
M 286.8 48.75
Q 237.55 0 168 0 98.4 0 49.2 48.75 0 97.55 0 166.5 -0.0013671875 235.4541015625 46.35 279.25 92.7615234375 323.0349609375 162.75 325.15 232.78828125 327.26484375 284.4 281.35 336.001171875 235.445703125 336 166.5 336 97.55 286.8 48.75 Z"/>
</g>

<g id="Duplicate_Items_Folder_Explosion03_10_Layer1_0_FILL">
<path fill="#413232" stroke="none" d="
M -482.45 110.8
Q -478.8 106.65 -473.4 101.8 -478.95 105.65 -483.85 108.1 -492 112.1 -498.2 112.1 -503.65 112.1 -507.05 107.5 -511.75 101.15 -511.75 86.9 -511.75 75.6 -505.6 61.5 -499.6 47.8 -489.3 34.8 -489.05 34.5 -488.8 34.2 -488.75 34.15 -488.7 34.05 -487.4 32.45 -486.1 30.9 -488.2 31.75 -490.25 32.8 -490.35 32.85 -490.4 32.9 -509.55 42.95 -522.8 71.75 -529.15 85.6 -533.05 101.45 -536.15 114.1 -536.15 120.4 -536.15 130.45 -533 140.5 -529.4 151.85 -522.4 160.9 -518.7 165.65 -511.15 169.65 -503.3 173.3 -501.1 174.65 -503.35 176.9 -505.25 181.25 -507.1 185.35 -507.1 187.65 -507.1 196.7 -496.4 212.05 -494.7 214.2 -493.25 216.05
L -492.1 215.1
Q -496.45 206.9 -496.45 198.3 -496.45 189.7 -491.95 180.9 -486.5 170.2 -478.2 170.2 -476 170.2 -473.45 170.9
L -472.9 170.45
Q -477.4 165.95 -485.9 159.75 -494.9 151.8 -494.9 141.7 -494.9 125.1 -482.45 110.8
M -161.05 206.6
Q -162 208.95 -162 212.05 -162 217.9 -157.35 220.6 -154.65 222.15 -152.15 222.15 -144.8 222.15 -138.95 215.95 -134.5 211.2 -134.5 209.15 -134.5 203.9 -139 200.65 -143.15 197.7 -149.05 197.7 -150.4 197.7 -151.5 198 -154.35 199.6 -156.15 200.85 -158.3 203.05 -161.05 206.6
M -79.55 238.8
Q -73.3 244.2 -73.3 247.1 -73.3 251 -78.8 259.15
L -78.45 260.05
Q -79.15 260.35 -79.8 260.65 -83.25 265.6 -87 267.6 -87.15 268.35 -87.15 269.2 -87.2 270.6 -87.05 273.85 -87.05 283.15 -82.4 289.4 -78 295.35 -71.95 295.35 -55.8 295.35 -49.05 284.75 -44.45 277.5 -44.45 265.55 -44.45 248.8 -56.85 237.3 -68.3 226.6 -82.6 226.6 -89.15 226.6 -94.15 228.65 -97.4 230 -105.45 234.35
L -105.05 235.6
Q -99 233.85 -98.65 233.75 -94.95 232.8 -92.45 232.8 -86.45 232.8 -79.55 238.8
M -174.25 226.6
Q -174.25 215.4 -180.25 201.7 -186 188.55 -190.9 186.85 -188.9 221.35 -198.85 248.85 -200.85 254.45 -203.4 259.8 -216.2 286.9 -241.25 305.25 -262.35 320.65 -289.9 328.55 -312.9 335.1 -334.65 335.1 -354.65 335.1 -373.8 328.3 -395.95 320.4 -395.7 309.1 -398.4 310.4 -404.75 312.6 -410.85 314.7 -413.9 315.15
L -413.9 319.8
Q -409.5 323.1 -406.35 324.75 -402.75 326.6 -400.15 326.1 -399.5 325.25 -398.8 324.45
L -397.25 324.45
Q -398.5 325.75 -400.15 326.1 -402.3 328.7 -404.3 331.45 -407.9 336.55 -407.9 338.2 -407.9 342.15 -404.25 347.9 -400.45 354.05 -394.15 359.5 -391.1 362.15 -387.95 364.25 -374.6 373.25 -359.05 373.25 -348.35 373.25 -315.4 367.4 -305.85 365.7 -298.4 364.25 -296.55 363.9 -294.8 363.55 -294.65 363.25 -294.5 363
L -294.4 363.5
Q -294.6 363.5 -294.8 363.55 -295 363.9 -295.15 364.25 -297.85 370 -297.85 378.5 -297.85 388.35 -291.85 393.25 -286.4 397.65 -276.55 397.65 -266.6 397.65 -254.9 394.2 -247.75 392.1 -243.55 389.45 -241.7 388.25 -240.45 387 -241.95 389.2 -242.55 390.15 -242.8 390.55 -242.9 390.7 -244.35 393.4 -244.35 396.9 -244.35 404.65 -242.75 408.85 -241.25 412.75 -237.8 415.05 -235.35 416.65 -229.25 418.85 -220.85 421.85 -216.85 423.65
L -206.2 423.65 -206.2 422.25
Q -218.55 414.4 -224.2 405.1 -230.6 394.65 -230.6 379.25 -230.6 372.4 -227.9 364.25 -227.35 362.55 -226.65 360.75 -222.1 349.2 -214 339.7 -193 315.3 -158.15 315.3 -148.75 315.3 -138.8 319 -128.95 322.65 -120.8 329.05 -102.35 343.65 -102.35 362.6 -102.35 363.4 -102.4 364.25 -102.7 370.95 -105.6 378.15 -108.2 384.6 -111.45 388.55 -110.15 390.7 -108.2 393.5 -104.9 398.2 -102.35 400.75 -105.6 401.85 -108.65 407.7 -111.45 413.15 -111.45 416.85 -111.45 435.15 -99.2 445.2 -86.3 455.8 -61.3 455.8 -51.4 455.8 -31.2 451.95 -11 448.05 -9.4 448.05
L -9.4 446.7
Q -27.8 442.55 -38.7 427.7 -49.1 413.45 -49.1 394.55 -49.1 375.85 -42.65 364.25 -40.25 359.85 -36.85 356.45
L -36.95 355.7
Q -41.8 356.4 -46.2 356.4 -56.65 356.4 -59.7 355.05 -64.4 353.05 -64.4 345.75 -64.4 338.55 -60.05 331.8 -56.5 326.35 -48.3 318.8 -38.85 310.5 -32.75 305 -43.4 311.05 -54.8 316 -77.95 326 -91.7 326 -98.45 326 -106.45 321.65 -114 317.55 -120.75 310.7 -127.55 303.75 -131.55 296.05 -135.85 287.85 -135.85 280.85 -135.85 267.7 -132.5 259.85 -128.85 251.35 -120.5 246.5 -120.75 246.15 -120.75 245.25 -120.9 245.15 -121.05 245.15
L -132.9 249.6
Q -145.85 254.65 -149.6 257.2 -155.05 260.7 -157.55 267.7 -159.15 272.1 -158.85 276.45 -157.7 280 -157.35 283.15 -158.65 279.85 -158.85 276.45 -161.1 269.4 -166.4 260.65 -172.55 250.45 -177.2 247.6
L -177.5 248
Q -177.45 247.75 -177.35 247.55 -174.25 237.2 -174.25 226.6
M -174.8 100.85
Q -177.45 105.4 -178.15 107.75 -178.7 109.6 -178.7 112.85 -178.7 119.3 -177.1 121.2 -175.85 122.75 -171.9 122.75 -167.8 122.75 -164.9 119.7 -162 116.55 -162 112.1 -162 106.7 -169.9 102.85 -172.55 101.55 -174.8 100.85
M -274.15 112.2
Q -265.4 108.1 -255.35 106 -248 104.5 -243 104.5 -218.15 104.5 -206.25 119.65 -197.1 131.25 -197.1 148.7 -197.1 155.05 -198.45 162.85 -199.5 169.05 -200.7 171.75
L -200.4 171.85
Q -198.7 167.65 -196.65 163.65 -193.85 158.5 -192.75 156.3 -189.35 149.3 -189.35 139.4 -189.35 117.45 -206.2 104.5 -222.3 92.1 -247.65 92.1 -267.15 92.1 -280.3 106.6 -286.6 113.55 -290.95 123.45 -284 116.85 -274.15 112.2
M -134.5 169.25
Q -134.5 165.85 -139 162.5
L -139.05 162.45 -151.9 162.45
Q -151.95 162.5 -152 162.55
L -152 162.45 -152.7 162.45
Q -154 163.75 -154.85 165.75 -155.8 168.1 -155.8 170.8 -155.8 173.9 -154.25 176.2 -152.25 179.3 -148.25 179.3 -141.5 179.3 -137.4 174.65 -134.5 171.35 -134.5 169.25
M -139.75 133.4
Q -140.2 133.4 -140.6 133.45 -142.05 142.7 -142.05 145.6 -138.95 145.6 -137.6 145.4 -135.4 145.1 -134.5 144.05 -134.5 140.6 -135.15 138.15 -136.4 133.4 -139.75 133.4
M -368.95 -16.2
Q -371.25 -16.2 -373.65 -13.95 -374.25 -13.4 -375 -12.95 -371 -12.9 -368.25 -9.2 -366.45 -6.7 -366.35 -3.65 -366.25 -0.45 -368.15 2.05 -349.5 -4 -333.9 -4 -313.9 -4 -304.1 2.05 -288.75 11.55 -288.75 37.85 -288.75 43.3 -289 45.6 -284.6 43.35 -281.95 39.15 -278.1 33.1 -278.1 23.35 -278.1 1.05 -288.7 -11.7 -300.25 -25.5 -322.45 -25.5 -328.25 -25.5 -344 -18.6 -359.7 -11.75 -359.85 -11.75 -360.4 -11.75 -363.45 -13.95 -366.5 -16.2 -368.95 -16.2
M -562.95 -75.55
Q -563.05 -75.3 -563.15 -75 -563.5 -73.85 -563.75 -71.7 -564.1 -69.75 -565.2 -68.3 -564.8 -68.3 -564.4 -68.1 -563.65 -67.7 -563.65 -66.75 -559.95 -67.65 -557.65 -69.2 -554.55 -71.3 -554.55 -74.3 -554.55 -76.85 -555.5 -78.3 -555.7 -78.55 -557.65 -80.5 -558.5 -80.2 -560 -79.2 -560.75 -78.65 -561.45 -78.05 -562.5 -76.8 -562.95 -75.55
M -487.35 -129.1
Q -498.4 -117.8 -502.35 -116.65 -503 -116.45 -507.4 -115.9 -510.4 -115.55 -513.75 -114.6 -508.3 -115.5 -502.1 -110.4 -499.55 -108.35 -496.35 -104.8 -493.15 -101.2 -492 -100.05
L -492 -92.7
Q -494.25 -91.75 -500.65 -90.45 -507.9 -88.95 -511.3 -87.85 -524.3 -83.75 -525.5 -74.3 -515.85 -79.1 -511.65 -80.5 -506.9 -82.05 -501.1 -82.05 -493.05 -82.05 -488.35 -80.05 -483.35 -77.9 -476.65 -71.2 -476.65 -72.15 -475.85 -72.55
L -475.1 -72.75
Q -475.35 -77.05 -472.55 -82.75 -469.65 -88.6 -464.6 -93.7 -452.2 -106.25 -436.2 -106.25 -422.1 -106.25 -415.2 -101.7 -406.85 -96.25 -402.1 -81.95 -400.4 -85.5 -398.25 -90.1 -391.05 -105.45 -391.05 -107.8 -391.05 -116 -395.7 -121.35 -401.1 -127.55 -411 -127.55 -413.2 -127.55 -414.85 -126.75 -416.5 -126 -417 -126 -413.55 -138 -426.25 -143.55 -435.2 -147.5 -449.15 -147.5 -462.2 -147.5 -468.9 -144.25 -475.55 -141.05 -487.35 -129.1
M 153.15 382.95
Q 154.55 383.9 157.05 383.9 163.8 383.9 167.9 379.45 172.35 374.55 172.35 365.5 172.35 364.85 172.35 364.25 172.3 361.3 172.2 360.1 171.05 362.3 169.75 364.25 166.2 369.45 161.45 372.35 159.05 373.8 155.05 375.95 152.05 377.95 151.05 381 151.85 381.7 153.15 382.95
M 41 318.9
L 40.9 318.85
Q 32.45 324.55 25.1 329.15 12.15 337.2 0.65 342.9
L 1.25 344.2
Q 11.85 344.2 13.75 344.75 17.1 345.7 24.3 351.95 21.55 342.9 26.45 334.3 30.55 327.2 41 318.9
M 35 264.75
Q 36.6 266.35 37.5 266.9 39.2 267.85 41.75 267.85 45.35 267.85 47.25 264.75 48.55 262.65 48.55 260.9 48.55 259 46.15 257.15 44.15 255.65 43.3 255.65 41.15 255.65 38.95 258
L 36.55 261.05 35 264.75
M 104.55 222.9
Q 103.8 224.9 102.1 228.3 99.1 234.4 99.1 235.7 99.1 237.5 101.35 241 103.55 244.5 103.55 251
L 104.4 251.75
Q 110.8 245.3 113.45 242.85 120.9 236.05 123.5 235.7 121.95 234.3 110.25 226.8 106.9 224.65 104.55 222.9
M 69.75 49.45
Q 59.2 43.3 50.1 43.3 43.2 43.3 36.75 46.9 26.95 53.2 19 59.75 18.6 60.05 18.25 60.3 8.85 67.5 2.05 80 17.15 61.45 41.85 57.95 50.3 56.75 63 57 77.45 57.3 80.7 57.05 75.25 52.65 69.75 49.45
M 266.1 186.1
Q 271.7 185.55 277.95 188.9 280.1 190.05 284.35 192.85 288.15 195.35 289.95 196.15
L 289.95 197.7
Q 290.5 194.75 292.7 191.15 294.7 187.85 296.15 186.85
L 296.55 185.05
Q 282.9 181.75 278.55 180.3 275.05 179.15 272 177.85 266.05 185 266 185.05
L 266.1 186.1
M 253.25 118.2
Q 257 121.85 259.45 124.35 260.95 125.85 262.45 127.4 262.45 126 263.25 122.6 264 119.15 264 116.75 263.5 116.75 263.3 116 263.1 115.2 260.9 115.2 260.25 115.2 253.8 117.95 253.5 118.05 253.25 118.2
M 392.45 237.85
Q 389.15 238.8 386.25 238.8 380.3 238.8 358.35 224.45 342.5 213.5 338.65 210.8 341.1 215.45 344.4 220.7 348 226.5 349.15 229.2 352.75 237.5 352.75 258.75 352.75 273.9 347.45 287.95 342.25 301.65 332.8 312.25 323.2 323 310.7 328.9 297.65 335.1 283.15 335.1 268.55 335.1 259.6 328.75 251.2 322.8 249.4 312.15 247.45 335.2 262.4 345.7 273.5 353.5 291.5 353.5 307.75 353.5 323.85 345.75 338.75 338.6 351.2 326.05 363.15 313.9 370.1 299.55 377.15 284.9 377.15 271.55 377.15 267 374.85 259.35 372.5 251.7 372.5 249.45
L 372.5 246.55
Q 374.25 248.05 376.6 248.85 378.3 249.45 379.25 249.45 387.25 249.45 390.4 246.35 391.65 245.15 396.9 235.7 395.75 236.85 392.45 237.85
M 419.95 215.95
L 412.2 215.95
Q 406.65 218.25 403.8 219.15 400.3 220.25 397.65 220.55 399.55 222.35 400.95 223.05 402.35 223.75 404.1 223.8 405.1 223.8 407.55 223.7 413.3 223.7 419.95 219.05
L 419.95 215.95
M 330.9 60.3
Q 328.65 61.3 326.75 62.5 322.15 65.3 319.45 69
L 319.4 69.05
Q 319.35 69.1 319.35 69.15
L 319.3 69.2
Q 318.75 69.95 314.55 78.35
L 315.25 79.4
Q 321.1 75.2 333.25 69.95 348.5 63.3 354.3 64.6 352.55 62.65 349.35 60.95 344.9 58.6 340.35 58.6 335.7 58.6 330.9 60.3
M 362.35 -96.55
Q 353.9 -93.7 348.95 -80.5 345 -70.05 345 -62.1 345 -56.45 348.3 -52.3 349.6 -50.7 352.75 -48.35
L 354.3 -48.35
Q 353.15 -51.8 352.15 -57.45 351.2 -63.05 351.2 -66 351.2 -77.15 357.35 -88.65 359.15 -92.1 362.35 -96.55
M 291.5 -247.95
Q 291.3 -247.95 291.1 -247.9 289.45 -244.75 288.85 -240.45 288.2 -239.8 287.4 -239.1 285.2 -237.3 284.25 -236.35 280.65 -232.8 282.4 -228.3 281.6 -228.3 280.75 -228.15 275.7 -227.4 268.45 -222.25 261 -216.2 260.9 -216.1
L 260.9 -214.55
Q 264.45 -214.1 267.15 -215.7 268.65 -216.55 271.55 -219.45 275.95 -223.9 281.1 -225 281.95 -225.2 282.8 -225.3 283.65 -225.4 284.55 -225.4 287.95 -225.4 292.2 -223.95 296.85 -222.4 302.5 -219.05 311.15 -213.9 314.6 -209.15 318.5 -210.1 321.35 -210.1 335.45 -210.1 348.3 -194.95 357.6 -183.9 361.85 -171.9
L 363.4 -171.9 363.4 -193.25
Q 362.75 -198.8 359.45 -205.65 356.15 -212.65 351.5 -217.9 341.7 -229.15 333.7 -225.4 334.1 -225.8 334.2 -226.1 334.3 -226.3 334.3 -230.05 334.3 -239.2 325.25 -243.65 315.85 -248.25 295.95 -248.25 293.95 -248.25 292.15 -248.05 291.8 -248 291.5 -247.95 Z"/>
</g>
</defs>

<g transform="matrix( 0.5390167236328125, 0, 0, 0.5390167236328125, 315.9,272.65) ">
<g transform="matrix( 1.773773193359375, 0, 0, 1.773773193359375, -308.65,-161.5) ">
<g transform="matrix( 1, 0, 0, 1, 0,0) ">
<use filter="url(#Filter_1)" xlink:href="#Duplicate_Items_Folder_exploscircle03_0_Layer0_0_FILL"/>
</g>
</g>

<g transform="matrix( 1, 0, 0, 1, 0,0) ">
<use xlink:href="#Duplicate_Items_Folder_Explosion03_10_Layer1_0_FILL"/>
</g>
</g>
</svg>
