
<svg xmlns="http://www.w3.org/2000/svg" version="1.1" xmlns:xlink="http://www.w3.org/1999/xlink" preserveAspectRatio="none" x="0px" y="0px" width="300px" height="300px" viewBox="0 0 300 300">
<defs>
<g id="Water_Death_copy_6_Layer0_0_FILL">
<path fill="#00CCFF" stroke="none" d="
M 121.35 226.85
Q 100.8 226.6 90.6 226.9 72.95 227.4 60.7 231.4 57.55 232.5 46.75 237.05 38.1 240.7 32.5 241.85 26.65 243.15 8.6 243.5 -6.45 243.7 -14.55 247.3 -17.9 248.8 -19.95 251.1 -22.4 253.8 -22 256.75 -21.2 262.6 -10.25 264.45 -16 267.3 -19.9 272.55 -22.55 276.2 -22.45 278.9 -22.25 282.3 -18.6 284.75 -15.8 286.6 -11.3 287.6 5.25 291.3 29.9 292.2 37.05 292.45 47.95 292.7 54.1 295.6 59.85 297.1 65.05 298.45 71.75 299.2 76 299.55 83.95 299.85
L 97.25 300.45
Q 103.8 300.55 105.9 300.45 108.85 300.15 114.7 299.5 117.2 299.35 122.35 299.3 126.95 299.15 129.9 298.35 134.05 297.3 137.55 294.9 139.45 293.55 141.05 291.85 142.35 291.4 143.5 290.95 146.9 289.45 149.1 287.1 151.5 284.5 151.8 280.9 152.1 277.2 149.7 274.9 154.15 273.3 160.6 273.05 164.3 272.95 171.85 273.1 189.6 273.1 206.85 266.8 214.65 263.9 215.35 259.3 215.95 255.15 210.75 250.5 199.4 240.6 181 238.1 178.75 237.75 178.2 237.55 176.65 237.1 175.8 236.4 175.15 235.8 174.4 234.65 173.45 233.05 173.15 232.75 170.85 229.8 164.85 228.45 155.85 226.35 143.25 226.35 128.65 226.75 121.35 226.85 Z"/>
</g>

<g id="triten_wJavalin_Character_28_Layer1_0_FILL">
<path fill="#000000" stroke="none" d="
M 166.45 168.15
Q 168.35 166.85 169.05 165.8 169.75 164.7 170 163.05 170.25 161.75 169.85 161.1 169.5 160.5 167.9 160.3
L 158.75 158.9
Q 155.7 158.55 153.3 158 153.4 157.9 153.5 157.65 154.35 155.15 151.9 151.8
L 150.6 150.05
Q 149.55 148.5 148.9 147.9 147.85 146.9 146.6 146.65 144.2 146.05 140.45 148.3 140.25 148.05 140.1 147.9 139 146.9 137.75 146.65 136.5 146.35 134.9 146.85 134.55 146.7 134.25 146.65 132.3 146.2 129.45 147.6 126.55 141.65 122.1 134.5 119.6 130.35 116.95 130.3 115.35 130.25 113.35 131.85 112.65 132.4 112.15 132.85 110.15 130.35 108.1 130.3 107.2 130.25 106.25 130.75 105.45 130.3 104.6 130.3 102.95 130.25 101 131.85 97.85 134.4 97.65 134.5 97.5 134.6 97.35 134.7
L 85.85 132.55 94.95 125
Q 96.85 123.35 97.75 122.2 99.1 120.45 99.05 118.65 99.05 116.15 96.55 114.35 94.4 112.8 91.35 112.3 87.2 111.65 81.7 112.2 79.05 111.85 75.8 112 70.1 111.7 62.35 113.25 55.75 114.65 51.75 115.45 51.1 114.9 50.45 114.15 49.8 113.3 48.7 111.5
L 38.45 94.25
Q 37.3 92.25 36.45 91.3 35.2 89.75 33.75 89.2 31.4 88.35 29 89.65 28.05 90.15 27.25 90.85 26.1 89.65 24.9 89.2 23.15 88.55 21.25 89.2 19 88.4 16.6 89.65 14.25 90.85 13 93.2 11.95 95.2 11.5 97.95 11.25 99.65 11.1 103.05 10.55 114.05 9.05 123.55 8.7 125.75 7.9 126.65 7.1 127.55 4.85 128 -6.3 130.6 -16.95 135.1 -21.3 136.9 -22.35 139.25 -23.05 140.8 -22.5 142.75 -22.05 144.6 -20.75 145.95 -18.8 147.9 -14.4 149.55 -4.1 153.2 7.2 153.85 7.1 163.05 7.45 167.5 8 175.15 10.05 180.85 11.9 185.65 14.65 186.4 16.1 186.85 17.8 186.3 18 186.35 18.2 186.4 19.1 186.7 20.1 186.55 20.5 189.65 21.2 191.8 22.3 195.2 24.45 197.25 26.4 199.05 29.7 200 31.7 200.65 35.7 201.2
L 57.25 204.05
Q 57.5 204.8 58.05 205.25 59.4 206.6 62.25 206.25 62.7 206.2 63.15 206.15 64.25 206.45 65.8 206.25 68.25 206 70.45 205.3 71.8 206.6 74.65 206.25 79.05 205.8 82.8 203.85 83.55 203.95 84.55 203.85 86.25 203.7 88 203.65 91 204 92.6 205.1 93.5 205.7 96.4 209.15 98.65 211.7 100.7 211.9 101.85 212 102.95 211.55 103.6 211.85 104.25 211.9 106.85 212.15 109.1 209.5 111.15 211.7 113.05 211.9 113 211.9 113 211.95 111.3 214.8 109.6 218.65 108.7 220.85 106.9 225.5 106.1 227.75 106.55 228.5 107 229.65 108.85 229.55 109.75 229.55 110.7 229.25 111.3 229.6 112.35 229.55 114.25 229.5 116.5 228.3 117.5 227.75 118.9 226.85 118.6 228 118.95 228.5 119.4 229.65 121.2 229.55 123.05 229.5 125.35 228.3 126.85 227.5 129.25 225.75 133.9 222.35 136.2 220.4 140 217.3 142.4 214.15 143.4 212.8 144.05 212.55 144.75 212.25 145.95 212.45 149.45 212.9 153.25 212.3 154.45 212.15 155.4 211.5 156.45 210.8 156.45 209.8 156.5 209.1 155.6 208.3 154.25 207.2 152 205.7 150.15 204.6 149.2 204 147.7 203 147 201.85 145.8 199.9 145.95 196.5 145.9 196.15 146.5 190.5 146.65 188.7 146.7 187 147 186.95 147.3 186.8 148.3 186.35 149.2 185.35 150.5 183.95 150.65 182.5 150.7 181.3 150.15 179.9 149.6 178.35 148.5 177.1 156.3 174.05 160.45 171.85 163.35 170.25 166.45 168.15 Z"/>
</g>

<g id="triten_wJavalin_Body_5_Layer2_0_FILL">
<path fill="#000000" stroke="none" d="
M 35.45 13.45
Q 34.55 11.45 33.6 10.2 31.9 7.95 28.1 5.9 23.65 3.5 19 2.8 13.95 2.05 9.55 3.4 9.75 2.75 9.05 2.3 8.35 1.9 7.7 2.2 6.75 2.55 6.05 4.4 2.3 13.1 -3 21.3 -4.55 23.6 -5.8 24.9 -7.6 26.7 -9.55 27.25 -11.2 27.75 -12.55 27.25 -13.3 26.95 -14.7 25.9 -17.1 24.1 -20.4 22.35 -22.3 21.35 -26.45 19.45 -28.4 18.6 -29.3 19 -30.55 19.4 -30.95 21.2 -31.4 23 -30.8 25.25 -30.4 26.75 -29.3 29.15 -27.15 33.85 -25.85 36.15 -23.75 39.95 -21.3 42.4 -20.25 43.45 -20.15 44.1 -20.05 44.75 -20.55 45.95 -21.9 49.35 -22.3 53.05 -22.45 54.25 -22.05 55.2 -21.65 56.25 -20.7 56.3 -20.05 56.35 -19 55.5 -17.55 54.25 -15.5 52.05 -13.95 50.3 -13.15 49.45 -11.75 48 -10.45 47.35 -8.25 46.25 -4.9 46.5 -4.55 46.5 0.85 47.3 9.3 48.45 17.65 45.45 26 42.45 31.75 36.1 36.75 30.7 37.55 24.85 38.2 19.65 35.45 13.45
M 31.65 16.35
Q 31.728125 16.522265625 31.8 16.7 32.5296875 18.3421875 32.9 19.7 33.096484375 20.3375 33.2 20.9 34.15 25.65 31 30.55 28.9 34 24 37.7 21.7 39.45 19.6 40.55 15.181640625 42.83359375 9.25 43.35 9.2388671875 43.3466796875 9.2 43.35 4.65 43.75 -1.7 43.15 -4.65 42.9 -5.8 42.9 -8.05 42.9 -9.75 43.55 -11.9 44.4 -14.85 47.55 -17.00234375 49.7408203125 -18.8 51.7 -19.3412109375 52.321875 -19.85 52.9 -19 48.9 -17.15 45.3 -16.4443359375 44.0810546875 -16.3 43.15 -16.1783203125 42.630078125 -16.25 42.2 -16.4 41.3 -17.85 39.85 -22.5982421875 35.1671875 -25.35 29.3 -26.8029296875 26.248828125 -27.7 22.85
L -21.3 25.5
Q -18.8 26.5 -17.7 27.2 -15.05 29.25 -13.55 29.9 -11.45 30.8 -9 30.35 -6.7 29.95 -4.7 28.5 -1.8 26.4 1.25 21.45 3.6 17.8 4.8 15.15 5.54375 13.51953125 5.95 12.6 6.3001953125 11.9568359375 6.45 11.7 7.5 9.8 8.85 8.9 10.15 8.1 11.8 7.8 16.35 6.9 23.8 9.4 28 10.75 29.6 12.65 30.65 13.85 31.65 16.35 Z"/>

<path fill="#00CCFF" stroke="none" d="
M -16.3 43.15
Q -16.4443359375 44.0810546875 -17.15 45.3 -19 48.9 -19.85 52.9 -19.3412109375 52.321875 -18.8 51.7 -16.6470703125 48.072265625 -14.15 44.4 -15.1341796875 43.8982421875 -16.3 43.15
M 4.8 15.15
Q 3.6 17.8 1.25 21.45 -1.8 26.4 -4.7 28.5 -6.7 29.95 -9 30.35 -11.45 30.8 -13.55 29.9 -15.05 29.25 -17.7 27.2 -18.8 26.5 -21.3 25.5
L -27.7 22.85
Q -26.8029296875 26.248828125 -25.35 29.3 -23.20703125 30.5521484375 -23 30.7 -18.9 34.2 -16.8 35.85 -13.1 38.85 -9.9 39.2 -8.7 39.35 -7.1 39.2 -5.2 39 -4.3 38.9 -1.5 38.55 -0.65 38.25 1 37.7 2.65 36.15 3.75 35.1 5.4 33.1
L 12.1 25.05
Q 7.9 21.8 6.45 15.55 6.1673828125 14.366796875 5.95 12.6 5.54375 13.51953125 4.8 15.15
M 33.2 20.9
Q 33.096484375 20.3375 32.9 19.7 32.2099609375 20.6658203125 31.15 21.95 28.95 24.55 28.95 26.5 29 26.95 29.1 27.85 29.2 28.7 29.05 29.2 28.7 30.4 26.6 31.65 17.4365234375 37.0197265625 9.25 43.35 15.181640625 42.83359375 19.6 40.55 21.7 39.45 24 37.7 28.9 34 31 30.55 34.15 25.65 33.2 20.9
M 25.05 14.5
Q 25.2 14.3 25.1 13.9
L 25.05 13.55 24.9 13.2 24.85 12.8 24.75 12.8 24.65 13.75
Q 24.65 14.25 25.05 14.5 Z"/>

<path fill="#0099FF" stroke="none" d="
M 31.8 16.7
Q 31.728125 16.522265625 31.65 16.35 30.65 13.85 29.6 12.65 28 10.75 23.8 9.4 16.35 6.9 11.8 7.8 10.15 8.1 8.85 8.9 7.5 9.8 6.45 11.7 6.3001953125 11.9568359375 5.95 12.6 6.1673828125 14.366796875 6.45 15.55 7.9 21.8 12.1 25.05
L 5.4 33.1
Q 3.75 35.1 2.65 36.15 1 37.7 -0.65 38.25 -1.5 38.55 -4.3 38.9 -5.2 39 -7.1 39.2 -8.7 39.35 -9.9 39.2 -13.1 38.85 -16.8 35.85 -18.9 34.2 -23 30.7 -23.20703125 30.5521484375 -25.35 29.3 -22.5982421875 35.1671875 -17.85 39.85 -16.4 41.3 -16.25 42.2 -16.1783203125 42.630078125 -16.3 43.15 -15.1341796875 43.8982421875 -14.15 44.4 -16.6470703125 48.072265625 -18.8 51.7 -17.00234375 49.7408203125 -14.85 47.55 -11.9 44.4 -9.75 43.55 -8.05 42.9 -5.8 42.9 -4.65 42.9 -1.7 43.15 4.65 43.75 9.2 43.35 9.2388671875 43.3466796875 9.25 43.35 17.4365234375 37.0197265625 26.6 31.65 28.7 30.4 29.05 29.2 29.2 28.7 29.1 27.85 29 26.95 28.95 26.5 28.95 24.55 31.15 21.95 32.2099609375 20.6658203125 32.9 19.7 32.5296875 18.3421875 31.8 16.7
M 25.1 13.9
Q 25.2 14.3 25.05 14.5 24.65 14.25 24.65 13.75
L 24.75 12.8 24.85 12.8 24.9 13.2 25.05 13.55 25.1 13.9 Z"/>
</g>

<g id="triten_wJavalin_Body_5_Layer1_0_FILL">
<path fill="#000000" stroke="none" d="
M 41.4 36.85
Q 41.85 35.1 41.95 31.55 42.05 27.55 41.7 25.6 41.4 23.9 40.35 20.75 39.25 17.55 39 15.9 38.7 12.55 38.4 10.9 37.8 7.55 35.8 4.7 35.3 4.05 34.7 3.7 33.95 3.3 33.4 3.6 32.865625 3.9484375 32.85 4.65 32.6490234375 4.95234375 32.45 5.4 29.05 13 24.6 20
L 23.2 22.05
Q 20.4 26.1 14.95 31.05 13.2 32.7 12.6 33.35 11.4 34.75 10.85 36.05 9.5 39.35 11.55 45 12.3671875 47.33046875 13.3 48.85 14.35234375 57.234765625 15.5 61.55 16.3 64.45 17.55 67.55 18.35 69.45 19.2 70.15 20.1 70.9 21.6 71.15 22.85 71.45 23.6 71.1 24.25 70.8 24.9 69.25
L 28.6 60.35
Q 29.7796875 57.4224609375 30.9 55.1 31.0607421875 55.20546875 31.25 55.3 33.5 56.25 37.4 53.95
L 39.5 52.75
Q 41.25 51.75 42 51.15 43.3 50.15 43.85 49 45.4 46 42.85 40.5 42.0439453125 38.7365234375 41.2 37.55 41.3197265625 37.2111328125 41.4 36.85
M 40.85 43.55
Q 41.8 45.55 41.4 46.8 41.1 47.95 39.2 49.4 36.95 51.05 35.85 51.7 33.9 52.85 32.15 53.25 32.0076171875 53.2875 31.85 53.3 33.109375 51.2134765625 35.25 48.1 38.2 43.8 39.35 41.75 39.506640625 41.48203125 39.65 41.2 40.3078125 42.340625 40.85 43.55
M 35.1 10.5
Q 35.1529296875 10.75234375 35.2 11 35.55 12.65 35.75 16.05 36 17.85 36.95 20.75 38 24.15 38.3 25.45 39.470703125 30.5478515625 38.25 35.45 38.1484375 35.44375 38.05 35.45 37.15 35.5 36.85 36.15 36.575390625 36.790625 37.4 38 37.3203125 38.309375 37.2 38.6 36.36328125 40.5748046875 34.65 43.3 34.508984375 43.3591796875 34.35 43.45 33.6 43.9 32.15 44.75 30.85 45.5 29.9 45.9 26.8982421875 47.267578125 22.65 47.4 20.53046875 47.449609375 18.1 47.2 17.3740234375 47.103125 16.8 47.1 16.7029296875 46.9103515625 16.55 46.7 15.75 45.65 15.5 45 15.25 44.45 14.95 43.25 14.55 42.15 14.35 41.6 13.95 40.6 13.9 39.9 13.65 37.9 15.25 35.75 16.15 34.6 18.45 32.6 26.85 25.1 31.75 13.3 32.7 11 33.4 8.9
L 33.85 7.35
Q 34.7154296875 8.93125 35.1 10.45
L 35.1 10.5
M 28 53.5
Q 27.7673828125 53.9458984375 27.5 54.45 25.63828125 54.7568359375 22.95 54.75 20.9884765625 54.7529296875 18.6 54.6 18.5275390625 54.6048828125 18.45 54.6 17.411328125 54.5388671875 16.7 54.45 16.4564453125 52.5392578125 16.3 51.4 16.9416015625 51.4583984375 17.35 51.05 17.6955078125 50.673046875 17.7 50.05 20.3 50.5455078125 22.95 50.3 24.812890625 50.1853515625 26.7 49.7 29.3576171875 48.998046875 31.65 47.75 28.9619140625 51.659765625 28 53.5
M 21.65 57.4
L 22 57.4
Q 24.2474609375 57.57890625 26.3 57.35 25.73984375 58.8244140625 25.1 60.65 24.3759765625 62.656640625 23.75 64.2 22.87421875 66.4515625 22.2 67.8
L 20.65 67.8
Q 17.9947265625 61.2640625 17.05 56.7 17.7802734375 56.9146484375 18.65 57.05 20.6 57.35 21.65 57.4 Z"/>

<path fill="#9ECFD5" stroke="none" d="
M 22 57.4
Q 22.1373046875 57.4390625 22.25 57.45 22.3966796875 58.5529296875 22.5 60.05 22.7390625 61.7712890625 23.75 64.2 24.3759765625 62.656640625 25.1 60.65 25.73984375 58.8244140625 26.3 57.35 24.2474609375 57.57890625 22 57.4
M 35.1 10.5
Q 34.903515625 11.3349609375 34.7 12.2 33.6 17.3 32.9 19.75 31.7 23.9 30.1 26.95 29.95 27.25 26.35 33.15 24.05 36.85 23.3 39.6 22.5 42.65 22.65 47 22.655859375 47.1978515625 22.65 47.4 26.8982421875 47.267578125 29.9 45.9 30.85 45.5 32.15 44.75 33.6 43.9 34.35 43.45 34.508984375 43.3591796875 34.65 43.3 36.36328125 40.5748046875 37.2 38.6 37.3203125 38.309375 37.4 38 36.575390625 36.790625 36.85 36.15 37.15 35.5 38.05 35.45 38.1484375 35.44375 38.25 35.45 39.470703125 30.5478515625 38.3 25.45 38 24.15 36.95 20.75 36 17.85 35.75 16.05 35.55 12.65 35.2 11 35.1529296875 10.75234375 35.1 10.5 Z"/>

<path fill="#2F7078" stroke="none" d="
M 22 57.4
L 21.65 57.4
Q 20.6 57.35 18.65 57.05 17.7802734375 56.9146484375 17.05 56.7 17.9947265625 61.2640625 20.65 67.8
L 22.2 67.8
Q 22.87421875 66.4515625 23.75 64.2 22.7390625 61.7712890625 22.5 60.05 22.3966796875 58.5529296875 22.25 57.45 22.1373046875 57.4390625 22 57.4
M 34.7 12.2
Q 34.903515625 11.3349609375 35.1 10.5
L 35.1 10.45
Q 34.7154296875 8.93125 33.85 7.35
L 33.4 8.9
Q 32.7 11 31.75 13.3 26.85 25.1 18.45 32.6 16.15 34.6 15.25 35.75 13.65 37.9 13.9 39.9 13.95 40.6 14.35 41.6 14.55 42.15 14.95 43.25 15.25 44.45 15.5 45 15.75 45.65 16.55 46.7 16.7029296875 46.9103515625 16.8 47.1 17.3740234375 47.103125 18.1 47.2 20.53046875 47.449609375 22.65 47.4 22.655859375 47.1978515625 22.65 47 22.5 42.65 23.3 39.6 24.05 36.85 26.35 33.15 29.95 27.25 30.1 26.95 31.7 23.9 32.9 19.75 33.6 17.3 34.7 12.2
M 41.4 46.8
Q 41.8 45.55 40.85 43.55 40.3078125 42.340625 39.65 41.2 39.506640625 41.48203125 39.35 41.75 38.2 43.8 35.25 48.1 33.109375 51.2134765625 31.85 53.3 32.0076171875 53.2875 32.15 53.25 33.9 52.85 35.85 51.7 36.95 51.05 39.2 49.4 41.1 47.95 41.4 46.8 Z"/>

<path fill="#8E4A4A" stroke="none" d="
M 22.95 54.75
Q 23.0005859375 52.7486328125 22.95 50.3 20.3 50.5455078125 17.7 50.05 17.6955078125 50.673046875 17.35 51.05 16.9416015625 51.4583984375 16.3 51.4 16.4564453125 52.5392578125 16.7 54.45 17.411328125 54.5388671875 18.45 54.6 18.5275390625 54.6048828125 18.6 54.6 20.9884765625 54.7529296875 22.95 54.75 Z"/>

<path fill="#FF9999" stroke="none" d="
M 27.5 54.45
Q 27.7673828125 53.9458984375 28 53.5 28.9619140625 51.659765625 31.65 47.75 29.3576171875 48.998046875 26.7 49.7 24.812890625 50.1853515625 22.95 50.3 23.0005859375 52.7486328125 22.95 54.75 25.63828125 54.7568359375 27.5 54.45 Z"/>
</g>

<g id="triten_wJavalin_Body_5_Layer0_0_FILL">
<path fill="#000000" stroke="none" d="
M 52.9 -0.6
Q 51.75 -2.25 47.85 -2.15 36.55 -1.8 14.2 0 9.45 0.3 6.6 0.85 4.95 1.15 4.25 1.85 3.35 2.65 3.35 4.05 3.35 5.35 4 6.55 4.3 7.3 5 8.25
L 7.3 11.9
Q 9.3 15 10.55 16.35 11.3 17.15 13 18.55 16.55 21.55 18.5 22.9 21.75 25.1 24.75 26 28.6 27.2 32.75 26.55 36.85 25.9 40.2 23.6 43.05 21.55 46.2 17.4 51.45 10.35 53.15 3.5 53.85 0.7 52.9 -0.6
M 41.3 6
Q 41.665234375 5.2544921875 41.9 4.5 42.2705078125 3.3228515625 42.3 2.1 42.0017578125 2.1408203125 41.65 2.15 46.622265625 1.8830078125 49.2 1.95 48.80546875 3.5873046875 48.25 5.15 46.0953125 11.502734375 41.6 16.6 39.5 19 37.2 20.55 35.3 21.8 33.65 22.15 32.4 22.45 30.5 22.45 27 22.55 24.7 21.8 23.25 21.3 20.9 19.95 17.1 17.8 15.4 16.6 13.130859375 15.023046875 11.55 13.3 11.10390625 12.8193359375 10.7 12.3 9.7 10.95 9.1 10.3 7.75 8.8 7.5 8.45 6.775390625 7.2271484375 6.7 5.35 6.7 5.15234375 6.7 4.95 7.624609375 4.84296875 8.55 4.75
L 8.6 4.7
Q 9.5296875 4.626953125 10.45 4.55
L 16.4 4
Q 16.6650390625 3.9693359375 16.9 3.95 17.006640625 4.43203125 17.35 5.05 18.7056640625 7.563671875 20 9.15 20.9927734375 10.3755859375 21.95 11.05 24.35 12.65 28.25 12.85 34.1 13 38.05 10 40.15 8.4 41.3 6
M 36.2 2.5
Q 37.9890625 2.3728515625 39.55 2.25 39.413671875 2.289453125 39.25 2.3 38.5880859375 5.5119140625 36.95 7.15 35.4 8.75 32.8 9.45 30.85 9.95 27.85 10.05 25.15 10.15 23.75 9.45 22.828515625 9.00625 22 8.05 21.6150390625 7.60546875 21.25 7.05 20.1 4.9 19.5 3.85 19.4720703125 3.79765625 19.45 3.75 22.2158203125 3.5361328125 25.15 3.35
L 36.2 2.5 Z"/>

<path fill="#8E4A4A" stroke="none" d="
M 39.55 2.25
Q 37.9890625 2.3728515625 36.2 2.5
L 25.15 3.35
Q 22.2158203125 3.5361328125 19.45 3.75 19.4720703125 3.79765625 19.5 3.85 20.1 4.9 21.25 7.05 21.6150390625 7.60546875 22 8.05 22.828515625 9.00625 23.75 9.45 25.15 10.15 27.85 10.05 30.85 9.95 32.8 9.45 35.4 8.75 36.95 7.15 38.5880859375 5.5119140625 39.25 2.3 39.413671875 2.289453125 39.55 2.25
M 18.3 10
Q 19.1912109375 9.5615234375 20 9.15 18.7056640625 7.563671875 17.35 5.05 17.006640625 4.43203125 16.9 3.95 16.6650390625 3.9693359375 16.4 4
L 10.45 4.55
Q 9.5296875 4.626953125 8.6 4.7
L 8.55 4.75
Q 8.4568359375 4.80546875 8.35 4.85 7.434375 5.1115234375 6.7 5.35 6.775390625 7.2271484375 7.5 8.45 7.75 8.8 9.1 10.3 9.7 10.95 10.7 12.3 11.10390625 12.8193359375 11.55 13.3 12.34609375 12.896875 13 12.55 14.75 11.65 18.3 10
M 42.3 2.1
Q 42.2705078125 3.3228515625 41.9 4.5 44.39921875 4.9669921875 48.15 5.15 48.209375 5.1529296875 48.25 5.15 48.80546875 3.5873046875 49.2 1.95 46.622265625 1.8830078125 41.65 2.15 42.0017578125 2.1408203125 42.3 2.1 Z"/>

<path fill="#FF9999" stroke="none" d="
M 6.7 4.95
Q 6.7 5.15234375 6.7 5.35 7.434375 5.1115234375 8.35 4.85 8.4568359375 4.80546875 8.55 4.75 7.624609375 4.84296875 6.7 4.95
M 41.9 4.5
Q 41.665234375 5.2544921875 41.3 6 40.15 8.4 38.05 10 34.1 13 28.25 12.85 24.35 12.65 21.95 11.05 20.9927734375 10.3755859375 20 9.15 19.1912109375 9.5615234375 18.3 10 14.75 11.65 13 12.55 12.34609375 12.896875 11.55 13.3 13.130859375 15.023046875 15.4 16.6 17.1 17.8 20.9 19.95 23.25 21.3 24.7 21.8 27 22.55 30.5 22.45 32.4 22.45 33.65 22.15 35.3 21.8 37.2 20.55 39.5 19 41.6 16.6 46.0953125 11.502734375 48.25 5.15 48.209375 5.1529296875 48.15 5.15 44.39921875 4.9669921875 41.9 4.5 Z"/>
</g>

<g id="triten_wJavalin_Head_0_Layer0_0_FILL">
<path fill="#000000" stroke="none" d="
M 19.15 -0.7
Q 17.4 -5.05 15.4 -6.85 14 -8.1 12.2 -8.5 10.25 -8.95 8.7 -8.2 6.45 -7.1 4.8 -2.7 0.75 7.95 -1.4 19.1 -1.8 21.3 -2.65 22.15 -3.5 23 -5.65 23.4 -15.05 25.25 -25.85 26.2 -29.25 26.45 -30.9 26.75 -33.65 27.25 -35.6 28.4 -37.9 29.7 -39 32.1 -40.2 34.6 -39.25 36.85 -38.65 38.3 -37.1 39.5 -36.1 40.25 -34.1 41.35
L -16.6 50.85
Q -14.8 51.9 -13.95 52.5 -12.6 53.55 -11.95 54.75 -11 56.55 -11.3 59.9 -11.4 61.25 -13.95 76.55 -15.6 86.55 -14.3 93 -13.7 96 -12.1 98.1 -10.25 100.5 -7.75 100.45 -6 100.4 -4.3 99 -3.15 98.05 -1.65 96.1
L 5.55 86.8 8.6 100.75
Q 9.3 104.1 9.35 105.9 9.45 108.8 8.3 110.75 8.2 110.95 5.8 114.15 4.3 116.15 4.4 117.75 4.55 120.35 8.7 122.7 21.35 129.95 30.15 132.4 35.85 134 39.9 133.7 42.3 133.55 45.3 132.7 46.95 132.2 50.5 130.9 60.7 127.05 65.45 125.05 73.7 121.6 79.8 118 85.5 114.75 85 111 84.75 108.95 82.15 106.85 78.6 104.05 78 103.25 76.4 101.05 76.1 96 75.8 88.9 76.05 83 76.096875 82.017578125 76 81.25 77.7603515625 77.4962890625 78.05 73.15 78.3 70.3 76.95 69 76.4640625 68.4955078125 75.7 68.25
L 72.1 47.05
Q 71.4 43.15 70.75 41.15 69.65 37.95 67.8 36.05 65.75 34 62.3 33 59.75 32.25 55.9 32 55.7626953125 31.9908203125 55.6 31.95 56.36328125 30.972265625 56.7 29.85 57.2 28.15 56.7 26.7 55.85 24 51.05 22.35 45.35 20.5 37.8 20.25 33.3 20.05 24.25 20.5 23.2 9.35 19.15 -0.7
M 10.05 -4.3
Q 12.52421875 -4.533984375 14.4 -1.8 15.321484375 -0.437109375 16.1 1.65 19.3 10.7 21.55 20.65 22 22.65 22.45 23.65 23.1 25.25 24.2 26.1 25 25.6 24.9 24.65 29.3 24.9 38.15 24.45 46 24.35 50.9 26.3 53 27.15 53.1 28.4 53.15 29.55 51.8 30.6 51.230859375 31.095703125 50.2 31.75 43.645703125 31.69296875 36.35 32.35 28 33.1 16.9 35.1 12.1 35.9 9.25 36.95 5.2 38.5 2.95 41.15 0.3916015625 44.269140625 -0.2 49.55 -0.4197265625 51.803125 -0.3 54.45 -0.2939453125 54.6259765625 -0.3 54.8 -0.136328125 58.241015625 0.55 62.8 1.3322265625 67.79609375 2.75 74.1
L 4.45 81.95 -5.7 94.5
Q -7.05 96.05 -8.05 95.95 -8.9146484375 95.821875 -9.5 94.85 -9.784375 94.3408203125 -10 93.55 -11.6732421875 87.4615234375 -10.15 77.7 -10.0337890625 76.9609375 -9.9 76.2 -7.35 61.95 -7.3 58.55 -7.2 53.35 -9.3 50.75 -9.7888671875 50.1548828125 -10.7 49.45 -11.9376953125 48.563671875 -13.95 47.5
L -32.2 38.2
Q -36.25 36.05 -35.7 33.7 -35.508984375 32.808984375 -34.65 32.2 -33.4892578125 31.3666015625 -31.1 31.05
L -5.65 27.95
Q -3.5 27.7 -2.35 27.35 -0.6 26.8 0.35 25.75 0.9607421875 25.1033203125 1.4 24.15 1.5830078125 23.85390625 1.7 23.5 1.7314453125 23.448828125 1.75 23.4 2.05 22.5 2.4 20.7 5.55 5.25 10.05 -4.3
M 59.95 47.95
Q 57.8 44.95 56 44.4 55.15 44.2 53.45 44.35 52.4 44.55 51.9 44.9 51.2 45.45 50.85 46.7 50.15 49.2 49.9 54.3
L 49.2 72.25
Q 49.15 73.15 49.2 73.9 45.9 73.05 41.1 73.25 32 73.6 31.45 73.55 28.65 73.45 27.7 73.95 26.6 74.55 26.15 75.85 25.7 77.1 25.95 78.45 26.4 80.55 28.6 82.95 31.85 86.8 36.3 89.9 38.45 91.45 39 92 40.45 93.3 40.8 94.75 41.2 96.05 40.85 97.7 40.65 98.6 39.95 100.55 38.15 105.35 38.15 108.05 38.2 111.65 40.4 113.2 42.1 114.3 44.6 113.7 45.9 113.4 48.45 111.95 51.55 110.25 53.15 109.15 55.6 107.45 57.05 105.5 58.1 104 58.7 103.25 59.7 102.05 60.8 101.75
L 63.7 103.55
Q 65.75 104.65 66.75 104.8 68.3 105 69.7 104.05 71.05 103.2 71.8 101.75 72.569140625 100.33984375 72.75 98.2 72.9626953125 98.462890625 73.15 98.6 73.487109375 101.434375 74.1 103.3 74.9744140625 105.9234375 76.35 107.75 78.0904296875 110.001953125 80.6 111.05 74.05703125 115.981640625 64.7 120.1 64.476171875 120.2015625 64.25 120.3 61.553515625 121.475390625 57.55 122.95 52.91484375 124.73984375 46.5 126.95 44.256640625 127.72734375 42.5 128.2 40.36171875 128.7666015625 39 128.85 36.018359375 129.0853515625 32.15 128.15 31.119921875 127.89453125 30 127.55 28.7150390625 127.1673828125 27.45 126.75 17.681640625 123.4173828125 9.4 117.35 13.95 113.2 14.3 105.45 14.4 102.5 13.8 98.9 13.45 96.65 12.45 92.45
L 8.6 75.8
Q 8.30703125 74.543359375 8.05 73.4 6.9271484375 68.498046875 6.4 65.7 5.35 60.05 5 55.45 4.4 47.2 8.05 43.9 9.4 42.75 11.55 42 12.4826171875 41.7001953125 13.9 41.35 14.6486328125 41.2169921875 15.5 41.05 17.9626953125 40.580859375 20.25 40.15 29.790625 38.4740234375 36.75 37.75 48.4 36.55 58.15 37.25 62.65 37.55 64.65 39.25 65.9 40.35 66.65 42.25 67.1 43.55 67.55 45.85
L 72.1 68.2
Q 70.0634765625 68.5865234375 69.2 69.45
L 68.25 65.3
Q 67.95 63.9 67.65 63.2 66.85 61.6 66.55 60.85 66.1 59.95 65.6 58.5 65.1 56.95 64.85 56.1 63.7 53.2 59.95 47.95
M 55.25 48
Q 55.55 48.15 56.05 48.75
L 57.5 50.6
Q 59.2 52.85 59.9 54.05 61 55.85 62.45 59.75
L 63.8 63.15
Q 65 66.6 65.25 67.75
L 66.25 71.95
Q 66.25 72.55 66.1 73.8 66 74.9 66.7 75.4 67.55 76.05 68.45 75.4 68.487890625 75.3755859375 68.5 75.35 69.1689453125 74.8904296875 69.5 73.85 69.7 73.1 69.65 72.1 69.95 72.15 70.35 72.05 71.6216796875 71.874609375 73.95 71.4 74.070703125 71.4697265625 74.15 71.5 74.416796875 71.5671875 74.65 71.5 74.8890625 75.4328125 73.5 78.85 73.1814453125 78.9419921875 72.9 79.2 72.278125 79.7740234375 72.35 81.2 72.1083984375 81.6125 71.85 82 71.25 83 70 85 68.95 87.35 69.3 91.75 69.75 96.95 69.5 98.7 69.25 100.25 68.4 100.8 67.05 101.95 64.85 100.5 63.8 99.7 63.35 99.3 62.4 98.7 61.65 98.45 60.15 98 58.4 98.85 57 99.6 55.8 101.05 55.05 102 53.75 103.85 52.62578125 105.3490234375 51.55 106.15 51.4685546875 106.20234375 51.4 106.25 50.55 106.9 48.75 107.65 46.95 108.5 46.15 109 44.9 109.85 44.6 110 44.2912109375 110.1716796875 44 110.25 43.442578125 110.3970703125 42.95 110.2 42.15 109.95 41.85 109.05 41.55 108.3 41.65 107.3 41.75 105.55 43.35 101.45 44.75 97.75 44.6 95.65 44.25 90.9 37.8 86.15 34.2 83.4 33.05 82.35 30.65 80 29.7 77.5
L 36.35 77.1 39.9 76.85 49.4 76.3
Q 49.41640625 76.394140625 49.4 76.45 49.5896484375 77.2693359375 49.85 77.85 49.950390625 78.0728515625 50.05 78.25 50.2 78.65 50.55 78.6 50.75 78.6 50.9 78.1 50.98203125 77.7599609375 51.05 77.4 51.98125 73.3982421875 52.35 69.25
L 52.75 63.35
Q 53.15 56.7 53.65 51.35 53.95 48.95 54.2 48.1 54.455859375 47.8673828125 54.7 47.8 54.9826171875 47.7861328125 55.25 48 Z"/>

<path fill="#8E4A4A" stroke="none" d="
M 49.4 76.45
Q 49.41640625 76.394140625 49.4 76.3
L 39.9 76.85
Q 43.930859375 78.1603515625 48.2 78.05 49.1357421875 78.05 49.85 77.85 49.5896484375 77.2693359375 49.4 76.45
M 69.65 72.1
Q 69.7 73.1 69.5 73.85 69.1689453125 74.8904296875 68.5 75.35 68.6994140625 75.499609375 68.9 75.65 70.5 76.65 72.15 75.9 74 74.9 74.35 72.35 74.3939453125 71.99765625 74.4 71.55 74.2943359375 71.5369140625 74.15 71.5 74.070703125 71.4697265625 73.95 71.4 71.6216796875 71.874609375 70.35 72.05 69.95 72.15 69.65 72.1
M 33.05 82.35
Q 34.2 83.4 37.8 86.15 44.25 90.9 44.6 95.65 44.75 97.75 43.35 101.45 41.75 105.55 41.65 107.3 41.55 108.3 41.85 109.05 42.15 109.95 42.95 110.2 43.442578125 110.3970703125 44 110.25 44.2912109375 110.1716796875 44.6 110 44.9 109.85 46.15 109 46.95 108.5 48.75 107.65 50.55 106.9 51.4 106.25 51.4685546875 106.20234375 51.55 106.15 51.49453125 106.1009765625 51.45 106.05 49.8 104.6 49.15 103.8 48.85 103.45 47.95 102.05 47.5236328125 101.380078125 47.1 100.9 47.7552734375 98.82109375 47.95 97.75 48.25 95.9 47.85 94.45 47.2 91.95 44.9 90.65 43.75 90.15 43.2 89.85 42.3 89.35 41.9 88.7 41.65 88.25 41.45 86.9 41.25 85.7 40.8 85.2 40.35 84.7 39.25 84.45 37.95 84.15 37.55 83.9 36.65 83.4 35.85 81.2 35.05 79.1 34 78.65 35.05 78.35 35.9 77.6 36.14296875 77.35703125 36.35 77.1
L 29.7 77.5
Q 30.65 80 33.05 82.35
M 54.7 47.8
Q 54.455859375 47.8673828125 54.2 48.1 53.95 48.95 53.65 51.35 53.15 56.7 52.75 63.35
L 52.35 69.25
Q 51.98125 73.3982421875 51.05 77.4 51.3625 77.2375 51.6 77 52.15 76.35 52.45 75.1 52.85 73.45 53.05 73 53.35 72.45 54 71.7 54.85 70.75 55.05 70.45 56.35 68.7 57 65.1 57.9 60.6 57.55 58.35 57.25 56.55 56.35 55.2 55.3 53.7 53.75 53.1 54.94453125 50.6224609375 54.7 47.8
M 63.05 92.6
L 62.8 92.6
Q 62.1 92.5 61.55 93.15 60.65 94.15 60.95 95.45 61.3 96.8 62.55 97.1 63.3 97.25 64.1 97 64.75 96.8 65.15 96.4 65.85 95.8 65.85 94.75 65.75 93.75 65 93.15 64.5 92.75 63.15 92.45 63.25 92.6 63.05 92.6
M 56.35 73.3
Q 56.2 73.5 55.95 73.5 55.15 73.7 54.6 74.45 54.1 75.15 54.05 76 54.05 76.8 54.35 77.3 54.75 77.85 55.55 78.1 56.15 78.35 56.65 78.3 57.1 78.25 57.55 77.8 58.2 77.15 58.3 76.2 58.4 75.25 57.85 74.55 57.45 73.9 56.35 73.3
M -24.95 36.25
Q -26.55 35.3 -29.7 35.3 -31.25 35.3 -32.5 35.5 -33.2 35.5 -33.4 35.3 -33.55 35.2 -33.65 34.75 -34.0869140625 33.0693359375 -34.65 32.2 -35.508984375 32.808984375 -35.7 33.7 -36.25 36.05 -32.2 38.2
L -13.95 47.5
Q -11.9376953125 48.563671875 -10.7 49.45 -10.520703125 46.3662109375 -11.5 44.45 -11.85 43.8 -13 42.3 -14.6 40.45 -15.45 40.05 -16.5 39.65 -18.25 39.65 -20.6 39.7 -23.1 40.35 -22.75 39.2 -23.3 38 -23.85 36.85 -24.95 36.25
M 2.75 74.1
Q 1.3322265625 67.79609375 0.55 62.8 -0.136328125 58.241015625 -0.3 54.8 -0.2939453125 54.6259765625 -0.3 54.45 -0.4197265625 51.803125 -0.2 49.55 -1.72890625 51.8001953125 -2.5 56.2 -2.85 58.35 -3.35 62.7 -3.9 66.55 -4.7 69.05 -5.25 71 -5 71.7 -4.75 72.4 -4 72.65 -3.25 72.85 -2.9 72.35 -2.55 72.45 -2.5 72.9 -2.45 73.25 -2.7 73.55 -2.9 73.8 -3.9 74.35 -5.5 75.35 -5.8 77.9 -5.9 78.75 -5.8 79.95 -5.8 80.65 -5.7 82.05 -5.7 83.85 -6.3 85.25 -7.05 86.9 -8.45 87.35 -9.2 85.5 -9.35 83.3 -9.4 80.9 -9.55 79.7 -9.736328125 78.5291015625 -10.15 77.7 -11.6732421875 87.4615234375 -10 93.55 -9.784375 94.3408203125 -9.5 94.85 -8.9146484375 95.821875 -8.05 95.95 -7.05 96.05 -5.7 94.5
L 4.45 81.95 2.75 74.1
M -20.5 32.65
Q -21.2 33.7 -20.9 34.8 -20.65 35.65 -19.85 36.15 -19.1 36.7 -18.25 36.6 -17.4 36.55 -16.7 35.9 -16.05 35.3 -15.9 34.45 -15.75 33.35 -16.3 32.55 -16.95 31.65 -18 31.55 -18.15 31.7 -18.55 31.7 -19.8 31.7 -20.5 32.65
M 12.85 11.8
Q 13.25 11.2 13 10.45 12.75 9.75 11.9 9.15 11.3 8.75 10.9 8.7
L 10.9 8.85
Q 9.9 8.7 9.45 9.7 9.1 10.55 9.4 11.5 9.5 11.9 9.65 12.05 9.95 12.45 10.9 12.65 11.35 12.75 11.8 12.65 12.55 12.4 12.85 11.8
M 14.4 -1.8
Q 12.52421875 -4.533984375 10.05 -4.3 5.55 5.25 2.4 20.7 2.05 22.5 1.75 23.4 1.7314453125 23.448828125 1.7 23.5 1.5830078125 23.85390625 1.4 24.15 2.660546875 24.0533203125 4.15 22.75 6.7 20.45 7.6 17.65 8.1 16.15 8.15 14.65 8.45 11.65 7.3 10.2 9.05 7.95 10.8 6.15 12.05 4.8 12.45 4.25 13.25 3.1 13.35 2 13.4 1.7 13.4 0.6 13.4 -0.25 13.6 -0.7 13.8 -1.2 14.3 -1.7 14.344140625 -1.744140625 14.4 -1.8 Z"/>

<path fill="#FF9999" stroke="none" d="
M 56.05 48.75
Q 55.55 48.15 55.25 48 54.9826171875 47.7861328125 54.7 47.8 54.94453125 50.6224609375 53.75 53.1 55.3 53.7 56.35 55.2 57.25 56.55 57.55 58.35 57.9 60.6 57 65.1 56.35 68.7 55.05 70.45 54.85 70.75 54 71.7 53.35 72.45 53.05 73 52.85 73.45 52.45 75.1 52.15 76.35 51.6 77 51.3625 77.2375 51.05 77.4 50.98203125 77.7599609375 50.9 78.1 50.75 78.6 50.55 78.6 50.2 78.65 50.05 78.25 49.950390625 78.0728515625 49.85 77.85 49.1357421875 78.05 48.2 78.05 43.930859375 78.1603515625 39.9 76.85
L 36.35 77.1
Q 36.14296875 77.35703125 35.9 77.6 35.05 78.35 34 78.65 35.05 79.1 35.85 81.2 36.65 83.4 37.55 83.9 37.95 84.15 39.25 84.45 40.35 84.7 40.8 85.2 41.25 85.7 41.45 86.9 41.65 88.25 41.9 88.7 42.3 89.35 43.2 89.85 43.75 90.15 44.9 90.65 47.2 91.95 47.85 94.45 48.25 95.9 47.95 97.75 47.7552734375 98.82109375 47.1 100.9 47.5236328125 101.380078125 47.95 102.05 48.85 103.45 49.15 103.8 49.8 104.6 51.45 106.05 51.49453125 106.1009765625 51.55 106.15 52.62578125 105.3490234375 53.75 103.85 55.05 102 55.8 101.05 57 99.6 58.4 98.85 60.15 98 61.65 98.45 62.4 98.7 63.35 99.3 63.8 99.7 64.85 100.5 67.05 101.95 68.4 100.8 69.25 100.25 69.5 98.7 69.75 96.95 69.3 91.75 68.95 87.35 70 85 71.25 83 71.85 82 72.1083984375 81.6125 72.35 81.2 72.278125 79.7740234375 72.9 79.2 73.1814453125 78.9419921875 73.5 78.85 74.8890625 75.4328125 74.65 71.5 74.416796875 71.5671875 74.15 71.5 74.2943359375 71.5369140625 74.4 71.55 74.3939453125 71.99765625 74.35 72.35 74 74.9 72.15 75.9 70.5 76.65 68.9 75.65 68.6994140625 75.499609375 68.5 75.35 68.487890625 75.3755859375 68.45 75.4 67.55 76.05 66.7 75.4 66 74.9 66.1 73.8 66.25 72.55 66.25 71.95
L 65.25 67.75
Q 65 66.6 63.8 63.15
L 62.45 59.75
Q 61 55.85 59.9 54.05 59.2 52.85 57.5 50.6
L 56.05 48.75
M 55.95 73.5
Q 56.2 73.5 56.35 73.3 57.45 73.9 57.85 74.55 58.4 75.25 58.3 76.2 58.2 77.15 57.55 77.8 57.1 78.25 56.65 78.3 56.15 78.35 55.55 78.1 54.75 77.85 54.35 77.3 54.05 76.8 54.05 76 54.1 75.15 54.6 74.45 55.15 73.7 55.95 73.5
M 62.8 92.6
L 63.05 92.6
Q 63.25 92.6 63.15 92.45 64.5 92.75 65 93.15 65.75 93.75 65.85 94.75 65.85 95.8 65.15 96.4 64.75 96.8 64.1 97 63.3 97.25 62.55 97.1 61.3 96.8 60.95 95.45 60.65 94.15 61.55 93.15 62.1 92.5 62.8 92.6
M 14.3 -1.7
Q 13.8 -1.2 13.6 -0.7 13.4 -0.25 13.4 0.6 13.4 1.7 13.35 2 13.25 3.1 12.45 4.25 12.05 4.8 10.8 6.15 9.05 7.95 7.3 10.2 8.45 11.65 8.15 14.65 8.1 16.15 7.6 17.65 6.7 20.45 4.15 22.75 2.660546875 24.0533203125 1.4 24.15 0.9607421875 25.1033203125 0.35 25.75 -0.6 26.8 -2.35 27.35 -3.5 27.7 -5.65 27.95
L -31.1 31.05
Q -33.4892578125 31.3666015625 -34.65 32.2 -34.0869140625 33.0693359375 -33.65 34.75 -33.55 35.2 -33.4 35.3 -33.2 35.5 -32.5 35.5 -31.25 35.3 -29.7 35.3 -26.55 35.3 -24.95 36.25 -23.85 36.85 -23.3 38 -22.75 39.2 -23.1 40.35 -20.6 39.7 -18.25 39.65 -16.5 39.65 -15.45 40.05 -14.6 40.45 -13 42.3 -11.85 43.8 -11.5 44.45 -10.520703125 46.3662109375 -10.7 49.45 -9.7888671875 50.1548828125 -9.3 50.75 -7.2 53.35 -7.3 58.55 -7.35 61.95 -9.9 76.2 -10.0337890625 76.9609375 -10.15 77.7 -9.736328125 78.5291015625 -9.55 79.7 -9.4 80.9 -9.35 83.3 -9.2 85.5 -8.45 87.35 -7.05 86.9 -6.3 85.25 -5.7 83.85 -5.7 82.05 -5.8 80.65 -5.8 79.95 -5.9 78.75 -5.8 77.9 -5.5 75.35 -3.9 74.35 -2.9 73.8 -2.7 73.55 -2.45 73.25 -2.5 72.9 -2.55 72.45 -2.9 72.35 -3.25 72.85 -4 72.65 -4.75 72.4 -5 71.7 -5.25 71 -4.7 69.05 -3.9 66.55 -3.35 62.7 -2.85 58.35 -2.5 56.2 -1.72890625 51.8001953125 -0.2 49.55 0.3916015625 44.269140625 2.95 41.15 5.2 38.5 9.25 36.95 12.1 35.9 16.9 35.1 28 33.1 36.35 32.35 43.645703125 31.69296875 50.2 31.75 51.230859375 31.095703125 51.8 30.6 53.15 29.55 53.1 28.4 53 27.15 50.9 26.3 46 24.35 38.15 24.45 29.3 24.9 24.9 24.65 25 25.6 24.2 26.1 23.1 25.25 22.45 23.65 22 22.65 21.55 20.65 19.3 10.7 16.1 1.65 15.321484375 -0.437109375 14.4 -1.8 14.344140625 -1.744140625 14.3 -1.7
M 13 10.45
Q 13.25 11.2 12.85 11.8 12.55 12.4 11.8 12.65 11.35 12.75 10.9 12.65 9.95 12.45 9.65 12.05 9.5 11.9 9.4 11.5 9.1 10.55 9.45 9.7 9.9 8.7 10.9 8.85
L 10.9 8.7
Q 11.3 8.75 11.9 9.15 12.75 9.75 13 10.45
M -20.9 34.8
Q -21.2 33.7 -20.5 32.65 -19.8 31.7 -18.55 31.7 -18.15 31.7 -18 31.55 -16.95 31.65 -16.3 32.55 -15.75 33.35 -15.9 34.45 -16.05 35.3 -16.7 35.9 -17.4 36.55 -18.25 36.6 -19.1 36.7 -19.85 36.15 -20.65 35.65 -20.9 34.8 Z"/>

<path fill="#2F7078" stroke="none" d="
M 57.55 122.95
Q 54.986328125 120.64921875 52.05 120.5 49.8 120.4 47.55 121.8 45.6 123 44 125.1 42.9 126.5 42.65 127.6 42.56484375 127.9025390625 42.5 128.2 44.256640625 127.72734375 46.5 126.95 52.91484375 124.73984375 57.55 122.95
M 80.6 111.05
Q 78.0904296875 110.001953125 76.35 107.75 76.023046875 107.932421875 75.65 108.15 71.65 110.55 71.4 112.95 70.15 112.65 68.85 113.25 67.6 113.75 66.8 114.85 65.55 116.4 64.8 119.65 64.73828125 119.884375 64.7 120.1 74.05703125 115.981640625 80.6 111.05
M 11.55 42
Q 9.4 42.75 8.05 43.9 4.4 47.2 5 55.45 5.35 60.05 6.4 65.7 6.9271484375 68.498046875 8.05 73.4 8.30703125 74.543359375 8.6 75.8
L 12.45 92.45
Q 13.45 96.65 13.8 98.9 14.4 102.5 14.3 105.45 13.95 113.2 9.4 117.35 17.681640625 123.4173828125 27.45 126.75 28.7150390625 127.1673828125 30 127.55 31.119921875 127.89453125 32.15 128.15 32.2349609375 128.001171875 32.3 127.85 34.6 122.55 34.65 122.45 35.75 119.35 35.6 116.6 35.45 113.35 33.55 111.3 33 110.7 31.95 109.95 30.35 108.85 30.15 108.7 27.75 106.85 26.45 104.1 28.95 101 28.6 96.4 28.25 92.25 25.9 88.35 23.65 84.7 20.35 82.65 16.6 80.4 12.95 81.15 12.45 79.95 12.65 78.35 12.8 77.3 13.4 75.5
L 15.4 69.6
Q 16 68 16.5 67.3 16.9 66.75 17.8 66.2
L 19.2 65.2
Q 21.15 63.75 21.85 61.25 22.55 58.75 21.65 56.45 20.9 54.4 20.85 54.1 20.75 53.25 21.1 52.2 21.6 50.95 21.8 50.35 23.2 46.4 21.4 42.25 20.90859375 41.116796875 20.25 40.15 17.9626953125 40.580859375 15.5 41.05 14.6486328125 41.2169921875 13.9 41.35 12.4826171875 41.7001953125 11.55 42
M 70.4 110.45
Q 70.7 109.75 70.6 108.8 70.5 108.25 70.3 107.9 70.05 107.55 69.5 107.25 68.65 106.75 67.95 106.8 67.95 107 67.65 107 66.95 106.95 66.4 107.45 65.9 107.95 65.8 108.65 65.55 110 66.75 111.1 68 112.15 69.25 111.7 70.1 111.3 70.4 110.45
M 32.5 95.15
Q 30.9 95.9 31 97.55 31 98.3 31.45 98.95 31.9 99.6 32.6 99.85 33.3 100.15 34.1 100 34.85 99.85 35.4 99.3 35.95 98.75 36.1 97.95 36.25 97.15 35.95 96.45 35.35 94.95 33.6 94.85 33.75 95 33.6 95
L 33.4 95
Q 33.05 94.95 32.5 95.15
M 17.85 72.5
Q 17.25 73 17.1 73.8 16.95 74.65 17.4 75.4 17.8 76.2 18.6 76.45 19.6 76.8 20.45 76.3 21.4 75.7 21.55 74.8 21.95 73.35 20.8 72.45 20.3 72.05 19.4 71.85 19.5 72 19.25 72 18.5 71.95 17.85 72.5
M 33.55 56.8
Q 32.5 55.5 30.8 55.05 29.05 54.65 27.7 55.45 26.95 55.95 26.3 56.9 25.8 57.75 24.95 60.15 24.4 62.25 24.45 63.15 24.45 64.9 25.5 65.95 26.45 66.9 28.25 67.1 29.25 67.2 31.25 67.2
L 32.55 67.3
Q 33.25 67.3 33.75 67.05 34.55 66.7 35.2 65.55 36.4 63 34.75 59 34.25 57.7 33.55 56.8 Z"/>

<path fill="#9ECFD5" stroke="none" d="
M 56 44.4
Q 57.8 44.95 59.95 47.95 63.7 53.2 64.85 56.1 65.1 56.95 65.6 58.5 66.1 59.95 66.55 60.85 66.85 61.6 67.65 63.2 67.95 63.9 68.25 65.3
L 69.2 69.45
Q 70.0634765625 68.5865234375 72.1 68.2
L 67.55 45.85
Q 67.1 43.55 66.65 42.25 65.9 40.35 64.65 39.25 62.65 37.55 58.15 37.25 48.4 36.55 36.75 37.75 29.790625 38.4740234375 20.25 40.15 20.90859375 41.116796875 21.4 42.25 23.2 46.4 21.8 50.35 21.6 50.95 21.1 52.2 20.75 53.25 20.85 54.1 20.9 54.4 21.65 56.45 22.55 58.75 21.85 61.25 21.15 63.75 19.2 65.2
L 17.8 66.2
Q 16.9 66.75 16.5 67.3 16 68 15.4 69.6
L 13.4 75.5
Q 12.8 77.3 12.65 78.35 12.45 79.95 12.95 81.15 16.6 80.4 20.35 82.65 23.65 84.7 25.9 88.35 28.25 92.25 28.6 96.4 28.95 101 26.45 104.1 27.75 106.85 30.15 108.7 30.35 108.85 31.95 109.95 33 110.7 33.55 111.3 35.45 113.35 35.6 116.6 35.75 119.35 34.65 122.45 34.6 122.55 32.3 127.85 32.2349609375 128.001171875 32.15 128.15 36.018359375 129.0853515625 39 128.85 40.36171875 128.7666015625 42.5 128.2 42.56484375 127.9025390625 42.65 127.6 42.9 126.5 44 125.1 45.6 123 47.55 121.8 49.8 120.4 52.05 120.5 54.986328125 120.64921875 57.55 122.95 61.553515625 121.475390625 64.25 120.3 64.476171875 120.2015625 64.7 120.1 64.73828125 119.884375 64.8 119.65 65.55 116.4 66.8 114.85 67.6 113.75 68.85 113.25 70.15 112.65 71.4 112.95 71.65 110.55 75.65 108.15 76.023046875 107.932421875 76.35 107.75 74.9744140625 105.9234375 74.1 103.3 73.487109375 101.434375 73.15 98.6 72.9626953125 98.462890625 72.75 98.2 72.569140625 100.33984375 71.8 101.75 71.05 103.2 69.7 104.05 68.3 105 66.75 104.8 65.75 104.65 63.7 103.55
L 60.8 101.75
Q 59.7 102.05 58.7 103.25 58.1 104 57.05 105.5 55.6 107.45 53.15 109.15 51.55 110.25 48.45 111.95 45.9 113.4 44.6 113.7 42.1 114.3 40.4 113.2 38.2 111.65 38.15 108.05 38.15 105.35 39.95 100.55 40.65 98.6 40.85 97.7 41.2 96.05 40.8 94.75 40.45 93.3 39 92 38.45 91.45 36.3 89.9 31.85 86.8 28.6 82.95 26.4 80.55 25.95 78.45 25.7 77.1 26.15 75.85 26.6 74.55 27.7 73.95 28.65 73.45 31.45 73.55 32 73.6 41.1 73.25 45.9 73.05 49.2 73.9 49.15 73.15 49.2 72.25
L 49.9 54.3
Q 50.15 49.2 50.85 46.7 51.2 45.45 51.9 44.9 52.4 44.55 53.45 44.35 55.15 44.2 56 44.4
M 30.8 55.05
Q 32.5 55.5 33.55 56.8 34.25 57.7 34.75 59 36.4 63 35.2 65.55 34.55 66.7 33.75 67.05 33.25 67.3 32.55 67.3
L 31.25 67.2
Q 29.25 67.2 28.25 67.1 26.45 66.9 25.5 65.95 24.45 64.9 24.45 63.15 24.4 62.25 24.95 60.15 25.8 57.75 26.3 56.9 26.95 55.95 27.7 55.45 29.05 54.65 30.8 55.05
M 17.1 73.8
Q 17.25 73 17.85 72.5 18.5 71.95 19.25 72 19.5 72 19.4 71.85 20.3 72.05 20.8 72.45 21.95 73.35 21.55 74.8 21.4 75.7 20.45 76.3 19.6 76.8 18.6 76.45 17.8 76.2 17.4 75.4 16.95 74.65 17.1 73.8
M 31 97.55
Q 30.9 95.9 32.5 95.15 33.05 94.95 33.4 95
L 33.6 95
Q 33.75 95 33.6 94.85 35.35 94.95 35.95 96.45 36.25 97.15 36.1 97.95 35.95 98.75 35.4 99.3 34.85 99.85 34.1 100 33.3 100.15 32.6 99.85 31.9 99.6 31.45 98.95 31 98.3 31 97.55
M 70.6 108.8
Q 70.7 109.75 70.4 110.45 70.1 111.3 69.25 111.7 68 112.15 66.75 111.1 65.55 110 65.8 108.65 65.9 107.95 66.4 107.45 66.95 106.95 67.65 107 67.95 107 67.95 106.8 68.65 106.75 69.5 107.25 70.05 107.55 70.3 107.9 70.5 108.25 70.6 108.8 Z"/>
</g>

<g id="triten_wJavalin_Arm_0_Layer0_0_FILL">
<path fill="#000000" stroke="none" d="
M 23.4 3.45
Q 22.55 3.15 20.9 2.8 19.1 2.4 18.35 2.2 15.55 1.2 14.1 0.85 12 0.3 8.35 0.1 4.1 -0.2 1.9 0.55 0.95 0.9 0.45 1.45 -0.25 2.25 0.1 3.05 0.25 3.45 0.75 3.7 0.9 4.4 2.1 5.05 4.65 6.5 10 9 14.6 11.4 17.15 13.9 18.1 14.85 18.7 15.1 18.8 15.15 18.9 15.2 19.35 15.95 20.25 16.65 23.35 19.35 26.45 19.1 27.75 18.95 29.15 18.3 31.15 17.4 31.85 16.05 32.4 14.9 32.25 13.5 32.05 10.1 29 7.05 27.45 5.5 25.65 4.5 24.9 4 23.4 3.45
M 22.05 7
Q 26.05 8.3 28.35 11.8 29.3 13.25 29.05 14.3 28.65 15.35 27.55 15.7 26.7 16 25.45 15.9 23.75 15.8 22.9 15.3 21.65 14.6 21.05 12.9 21.05 12.85 21 12.75
L 21 12.8
Q 20.95 12.6 20.9 12.35 20.7 11.7 20.5 10.5 20.45 10.3 20.4 10.15 20.35 10 20.35 9.9 20.1 9.05 19.75 8.95 19.25 8.75 18.85 9.25 18.6 9.65 18.5 10.3 18.4 10.85 18.35 11.35 12.8 7.5 6.35 4.65 5.45 4.25 4.65 4 10.35 3.8 13.75 4.65 13.95 4.7 14.15 4.75 14.8 4.95 15.8 5.25 16.8 5.55 18.1 6 18.45 6.1 20.1 6.45 21.3 6.75 22.05 7 Z"/>

<path fill="#2F7078" stroke="none" d="
M 20.5 10.5
Q 20.7 11.7 20.9 12.35 20.95 12.6 21 12.8
L 21 12.75
Q 21 10.65 20.35 9.3 19.65 7.8 17.65 6.35 17.05 5.9 16.45 5.5 16.1 5.35 15.8 5.25 14.8 4.95 14.15 4.75 13.95 4.7 13.75 4.65 10.35 3.8 4.65 4 5.45 4.25 6.35 4.65 12.8 7.5 18.35 11.35 18.4 10.85 18.5 10.3 18.6 9.65 18.85 9.25 19.25 8.75 19.75 8.95 20.1 9.05 20.35 9.9 20.35 10 20.4 10.15 20.45 10.3 20.5 10.5 Z"/>

<path fill="#9ECFD5" stroke="none" d="
M 28.35 11.8
Q 26.05 8.3 22.05 7 21.3 6.75 20.1 6.45 18.45 6.1 18.1 6 16.8 5.55 15.8 5.25 16.1 5.35 16.45 5.5 17.05 5.9 17.65 6.35 19.65 7.8 20.35 9.3 21 10.65 21 12.75 21.05 12.85 21.05 12.9 21.65 14.6 22.9 15.3 23.75 15.8 25.45 15.9 26.7 16 27.55 15.7 28.65 15.35 29.05 14.3 29.3 13.25 28.35 11.8 Z"/>
</g>
</defs>

<g transform="matrix( 1, 0, 0, 1, 42.15,63.15) ">
<g transform="matrix( 0.6450958251953125, 0, 0, 0.7060546875, 44.9,15.45) ">
<g transform="matrix( 1, 0, 0, 1, 0,0) ">
<use xlink:href="#Water_Death_copy_6_Layer0_0_FILL"/>
</g>
</g>

<g transform="matrix( 1, 0, 0, 1, 0,0) ">
<use xlink:href="#triten_wJavalin_Character_28_Layer1_0_FILL"/>
</g>

<g transform="matrix( 1, 0, 0, 1, 5.45,-1.55) ">
<g transform="matrix( -0.03741455078125, -0.9991455078125, 1.0054931640625, -0.266693115234375, 87.85,204.65) ">
<g transform="matrix( 1, 0, 0, 1, 0,0) ">
<use xlink:href="#triten_wJavalin_Body_5_Layer2_0_FILL"/>
</g>

<g transform="matrix( 1, 0, 0, 1, 0,0) ">
<use xlink:href="#triten_wJavalin_Body_5_Layer1_0_FILL"/>
</g>

<g transform="matrix( 1, 0, 0, 1, 0,0) ">
<use xlink:href="#triten_wJavalin_Body_5_Layer0_0_FILL"/>
</g>
</g>

<g transform="matrix( 0.0360565185546875, 0.9992523193359375, 0.9992523193359375, -0.0360565185546875, -11.7,131.45) ">
<g transform="matrix( 1, 0, 0, 1, 0,0) ">
<use xlink:href="#triten_wJavalin_Head_0_Layer0_0_FILL"/>
</g>
</g>

<g transform="matrix( 0.781494140625, -0.250640869140625, 0.305389404296875, 0.952117919921875, 109.65,176) ">
<g transform="matrix( 1, 0, 0, 1, 0,0) ">
<use xlink:href="#triten_wJavalin_Arm_0_Layer0_0_FILL"/>
</g>
</g>
</g>
</g>
</svg>
