
<svg xmlns="http://www.w3.org/2000/svg" version="1.1" xmlns:xlink="http://www.w3.org/1999/xlink" preserveAspectRatio="none" x="0px" y="0px" width="300px" height="300px" viewBox="0 0 300 300">
<defs>
<g id="triten_wJavalin_Character_8_Layer1_0_FILL">
<path fill="#000000" stroke="none" d="
M 193.85 94.3
Q 193.8 94.25 193.75 94.25 192 93.95 189.15 94.5 191.75 94.5 193.85 94.3
M 80.2 -11.35
Q 78.76796875 -11.4708984375 77.55 -10.9 75.3 -9.8 73.65 -5.35 69.55 5.4 67.35 16.65 66.95 18.9 66.1 19.75 65.25 20.6 63.1 21 53.6 22.9 42.7 23.85 39.25 24.1 37.6 24.4 34.8 24.9 32.85 26.05 30.5 27.4 29.4 29.8 28.2 32.35 29.15 34.6 29.75 36.05 31.3 37.3 32.35 38.05 34.35 39.15
L 52 48.75
Q 53.85 49.8 54.7 50.4 56.05 51.45 56.7 52.7 57.7 54.5 57.35 57.9 57.25 59.25 54.7 74.7 53.05 84.8 54.35 91.3 54.95 94.35 56.55 96.45 58.45 98.9 60.95 98.85 61.75 98.85 62.6 98.5 63.5 98.85 64.5 98.85 66.25 98.8 68 97.35 68.45 97 68.95 96.45 70.8 98.9 73.35 98.85 75.1 98.8 76.8 97.35 76.9 97.25 77.05 97.15
L 77.45 99.15
Q 78.2 102.5 78.25 104.35 78.3 105.25 78.2 106.1 77.05 106.15 76.15 106.65 74.9 107.5 73.55 109.65 73.5 109.75 73.45 109.85 45.55 112.75 18.1 116.4 10.4 117.4 6.5 118.85 4.85 119.5 4.4 120.4 4.05 121.05 4.35 121.7 4.5 122.1 4.75 122.3 5 123.45 5.95 124 6.95 124.6 8.35 124.6 9 124.55 10.35 124.4 11 124.6 11.9 124.6 12.7 124.55 14.45 124.3 16.1 124 18 123.7 18.15 123.85 18.35 124 19.3 124.6 20.7 124.6 21.5 124.55 23.3 124.3 27.75 123.45 33.75 123 37.3 122.7 44.3 122.2 55.35 121.4 74.65 119.15 75.2 119.75 76 120.3 76.85 122.7 79.35 124.75 80.7 125.95 83.9 127.45 85.7 128.25 87.05 128.8 83.85 135.5 79.75 141.8 78.65 143.45 77.65 144.65 76.2 143.7 74.55 142.85 72.6 141.85 68.45 139.95 66.45 139.05 65.55 139.5 64.3 139.9 63.9 141.7 63.85 141.8 63.85 141.95 62.1 141.1 59.6 139.95 57.6 139.05 56.7 139.5 56.3 139.65 56 139.95 54.1 139.05 53.2 139.5 51.9 139.9 51.5 141.7 51.05 143.5 51.65 145.8 52.05 147.3 53.2 149.75 55.35 154.5 56.65 156.8 58.8 160.65 61.25 163.1 62.3 164.15 62.4 164.85 62.5 165.5 62 166.7 60.65 170.15 60.25 173.85 60.1 175.1 60.5 176.05 60.9 177.1 61.85 177.15 61.9 177.15 62 177.15 62.95 178.3 65.3 179.2 67.7 180.15 69.55 179.9 72 179.65 74.85 177.05 75.3 176.85 75.95 176.35 77.4 175.1 79.5 172.85 81.05 171.1 81.85 170.25 83.25 168.8 84.5 168.15 85.95 168.3 87.4 168.35 84.95 174.65 83.1 180.8 82.2 183.75 83.6 184.8 84.3021484375 185.354296875 85.25 185.15 86.312109375 186.04765625 88.9 185.95
L 93.45 185.9
Q 96.05 185.9 97.25 185.45 97.8099609375 185.24375 98.25 184.9
L 98.3 184.9
Q 99.4 184.4 100.5 183.2 104.4 179.1 107.3 176.7 111.3 173.45 115.2 171.65 118 170.35 121.05 169.65 123.15 170.15 125.25 170.95 129.2 172.55 133.95 175.8 140.55 180.2 145.55 184.35 147.45 185.9 148.45 186.15 149.175390625 186.3515625 149.9 186.2 150.1669921875 186.516796875 150.5 186.75 151.9 187.7 154.95 187.7 157.5 187.7 159.15 187.35 160.8515625 187.0259765625 161.7 186.25 162.1724609375 186.27578125 162.6 186.15 163.5 185.9 163.9 185.2 164.65 183.85 163.4 181.45 160.05 175.1 146.7 156.5 141.3 148.95 137.65 142.55 138.95 141.35 140.35 139.75 141.2 139.85 142 139.8 142.55 139.75 143.2 139.6 144.4 139.9 145.55 139.8 146.85 139.65 148.25 138.95 148.9 138.65 149.5 138.35 151.9 140 154.35 139.8 155.7 139.65 157.1 138.95 159.1 138.05 159.85 136.7 160.4 135.55 160.25 134.15 160.2 133.25 160 132.45 161.3 132.6 162.7 132.55 163.35 132.55 164 132.5 165.1 132.6 166.25 132.55 168.25 132.5 170.45 132.1 172.65 132.65 175.1 132.55 180.2 132.45 185.75 129.85 186.85 129.35 189.25 128.1 191.5 126.9 192.75 126.35 197.65 124.2 205.3 122.6 209.6 121.7 218.35 120.15 219.65 119.9 220 119.3 220.25 118.55 219.35 118 218.55 117.5 217.5 117.45
L 209.65 116.85
Q 207.5 116.55 205.3 116.45 201.6 116.15 199.7 116.05 196.55 115.9 193.95 116.1 193.65 116.15 193.4 116.25 191.9 116.1 190.9 116.05 188.55 115.95 186.6 116.05 183.85 115.95 181.6 116.1 181.1 116.2 180.6 116.3 179.7 116 179 115.6 178 115.05 177.7 114.35 177.3 113.75 177.6 113.15 177.85 113.15 178.2 113.1 178.9 113.95 180.5 114 181.3 114 183.45 113.5 184 113.4 184.7 113.3 185.85 113.4 187 113.5 188.15 113.65 190.55 113.95 192.55 114.1 194.05 113.95 196.1 114.1 197.6 113.95 198.65 113.85 199.7 113.55 200.9 113.75 202.9 113.95 204.9 114.1 206.45 113.95 209.85 113.55 213.5 111.7 216.3 110.3 218.65 108.45 220.4 107.1 221.3 106.45 222.8 105.3 224.2 104.9 224.45 104.75 225 104.6 225.5 104.4 225.75 104.25 226.15 103.95 226.3 103.65 226.5 103.25 226.3 102.95 226.15 102.6 225.2 102.3
L 219.05 100.1
Q 215.9 99.05 214.3 98.2 211.75 96.65 210.35 95.9 208 94.55 206.15 94.25 203.75 93.85 199.5 94.9 199.35 94.95 199.15 95 197.4 95.35 195.6 95.95 193 96.8 191.55 97.25 188.25 98.15 184.5 98.05 180.9 98 179.85 98.1 177.15 98.45 176 100 175.75 99.65 175.5 99.35
L 176.65 97.8 176.7 97.8
Q 177.3 96.8 178.1 96.4 178.75 95 180.95 94.5 182.8 94.45 184.45 94.35 185.65 94.2 186.7 94.05 190.5 93.6 194.5 92.15
L 206.15 89.35
Q 207.25 89.1 207.95 88.5 208.35 88.1 208.45 87.75 208.4 88.05 208.15 88.35 209.1 88.1 209.35 87.75 209.7 87.3 209.45 86.7 209.15 86.15 208.65 85.9 208.6 85.9 208.6 85.85 207.7 85.5 206.05 85.7 205.75 85.75 205.4 85.75 204.95 85.75 204.45 85.7 204 85.6 203.5 85.65 201.35 85.5 198.65 85.25
L 194.7 84.9
Q 192.6 84.7 190.8 84.45 190.05 84.45 189.3 84.3 189.25 84.25 189.2 84.25 187.85 83.9 185.45 83.05 182.95 82.15 181.7 81.8 175.85 80.1 170.8 80.75 170.1 80.85 169.35 81 166.1 80.4 163.05 80.65 160.65 80.45 158.4 80.75 158.2 80.8 158 80.8 158 80.05 157.9 79.5 159.7 75.65 160 71.25 160.25 68.4 158.85 67.05 158.35 66.55 157.6 66.3
L 153.95 44.9
Q 153.25 40.95 152.6 38.95 151.5 35.7 149.65 33.8 147.55 31.7 144.05 30.7 141.5 29.95 137.6 29.7 137.45 29.7 137.35 29.7 138.05 28.65 138.4 27.55 138.9 25.8 138.4 24.35 137.55 21.6 132.7 19.95 126.95 18.1 119.35 17.85 116.3 17.7 111.15 17.9 110.85 17.85 110.5 17.85 108.45 17.75 105.65 17.8 104.55 6.7 100.5 -3.3 98.75 -7.7 96.7 -9.55 95.52890625 -10.595703125 94.05 -11.05 92.6337890625 -12.0978515625 90.8 -12.7 87.45 -13.8 84.2 -13 82.4177734375 -12.585546875 80.2 -11.35
M 96.1 178.8
Q 95.9734375 179.20078125 95.85 179.6 95.546875 179.626953125 95.2 179.65 95.6693359375 179.208984375 96.1 178.8 Z"/>
</g>

<g id="triten_wJavalin_Arm_0_Layer0_0_FILL">
<path fill="#000000" stroke="none" d="
M 23.4 3.45
Q 22.55 3.15 20.9 2.8 19.1 2.4 18.35 2.2 15.55 1.2 14.1 0.85 12 0.3 8.35 0.1 4.1 -0.2 1.9 0.55 0.95 0.9 0.45 1.45 -0.25 2.25 0.1 3.05 0.25 3.45 0.75 3.7 0.9 4.4 2.1 5.05 4.65 6.5 10 9 14.6 11.4 17.15 13.9 18.1 14.85 18.7 15.1 18.8 15.15 18.9 15.2 19.35 15.95 20.25 16.65 23.35 19.35 26.45 19.1 27.75 18.95 29.15 18.3 31.15 17.4 31.85 16.05 32.4 14.9 32.25 13.5 32.05 10.1 29 7.05 27.45 5.5 25.65 4.5 24.9 4 23.4 3.45
M 22.05 7
Q 26.05 8.3 28.35 11.8 29.3 13.25 29.05 14.3 28.65 15.35 27.55 15.7 26.7 16 25.45 15.9 23.75 15.8 22.9 15.3 21.65 14.6 21.05 12.9 21.05 12.85 21 12.75
L 21 12.8
Q 20.95 12.6 20.9 12.35 20.7 11.7 20.5 10.5 20.45 10.3 20.4 10.15 20.35 10 20.35 9.9 20.1 9.05 19.75 8.95 19.25 8.75 18.85 9.25 18.6 9.65 18.5 10.3 18.4 10.85 18.35 11.35 12.8 7.5 6.35 4.65 5.45 4.25 4.65 4 10.35 3.8 13.75 4.65 13.95 4.7 14.15 4.75 14.8 4.95 15.8 5.25 16.8 5.55 18.1 6 18.45 6.1 20.1 6.45 21.3 6.75 22.05 7 Z"/>

<path fill="#2F7078" stroke="none" d="
M 20.5 10.5
Q 20.7 11.7 20.9 12.35 20.95 12.6 21 12.8
L 21 12.75
Q 21 10.65 20.35 9.3 19.65 7.8 17.65 6.35 17.05 5.9 16.45 5.5 16.1 5.35 15.8 5.25 14.8 4.95 14.15 4.75 13.95 4.7 13.75 4.65 10.35 3.8 4.65 4 5.45 4.25 6.35 4.65 12.8 7.5 18.35 11.35 18.4 10.85 18.5 10.3 18.6 9.65 18.85 9.25 19.25 8.75 19.75 8.95 20.1 9.05 20.35 9.9 20.35 10 20.4 10.15 20.45 10.3 20.5 10.5 Z"/>

<path fill="#9ECFD5" stroke="none" d="
M 28.35 11.8
Q 26.05 8.3 22.05 7 21.3 6.75 20.1 6.45 18.45 6.1 18.1 6 16.8 5.55 15.8 5.25 16.1 5.35 16.45 5.5 17.05 5.9 17.65 6.35 19.65 7.8 20.35 9.3 21 10.65 21 12.75 21.05 12.85 21.05 12.9 21.65 14.6 22.9 15.3 23.75 15.8 25.45 15.9 26.7 16 27.55 15.7 28.65 15.35 29.05 14.3 29.3 13.25 28.35 11.8 Z"/>
</g>

<g id="triten_wJavalin_Head_0_Layer0_0_FILL">
<path fill="#000000" stroke="none" d="
M 19.15 -0.7
Q 17.4 -5.05 15.4 -6.85 14 -8.1 12.2 -8.5 10.25 -8.95 8.7 -8.2 6.45 -7.1 4.8 -2.7 0.75 7.95 -1.4 19.1 -1.8 21.3 -2.65 22.15 -3.5 23 -5.65 23.4 -15.05 25.25 -25.85 26.2 -29.25 26.45 -30.9 26.75 -33.65 27.25 -35.6 28.4 -37.9 29.7 -39 32.1 -40.2 34.6 -39.25 36.85 -38.65 38.3 -37.1 39.5 -36.1 40.25 -34.1 41.35
L -16.6 50.85
Q -14.8 51.9 -13.95 52.5 -12.6 53.55 -11.95 54.75 -11 56.55 -11.3 59.9 -11.4 61.25 -13.95 76.55 -15.6 86.55 -14.3 93 -13.7 96 -12.1 98.1 -10.25 100.5 -7.75 100.45 -6 100.4 -4.3 99 -3.15 98.05 -1.65 96.1
L 5.55 86.8 8.6 100.75
Q 9.3 104.1 9.35 105.9 9.45 108.8 8.3 110.75 8.2 110.95 5.8 114.15 4.3 116.15 4.4 117.75 4.55 120.35 8.7 122.7 21.35 129.95 30.15 132.4 35.85 134 39.9 133.7 42.3 133.55 45.3 132.7 46.95 132.2 50.5 130.9 60.7 127.05 65.45 125.05 73.7 121.6 79.8 118 85.5 114.75 85 111 84.75 108.95 82.15 106.85 78.6 104.05 78 103.25 76.4 101.05 76.1 96 75.8 88.9 76.05 83 76.096875 82.017578125 76 81.25 77.7603515625 77.4962890625 78.05 73.15 78.3 70.3 76.95 69 76.4640625 68.4955078125 75.7 68.25
L 72.1 47.05
Q 71.4 43.15 70.75 41.15 69.65 37.95 67.8 36.05 65.75 34 62.3 33 59.75 32.25 55.9 32 55.7626953125 31.9908203125 55.6 31.95 56.36328125 30.972265625 56.7 29.85 57.2 28.15 56.7 26.7 55.85 24 51.05 22.35 45.35 20.5 37.8 20.25 33.3 20.05 24.25 20.5 23.2 9.35 19.15 -0.7
M 10.05 -4.3
Q 12.52421875 -4.533984375 14.4 -1.8 15.321484375 -0.437109375 16.1 1.65 19.3 10.7 21.55 20.65 22 22.65 22.45 23.65 23.1 25.25 24.2 26.1 25 25.6 24.9 24.65 29.3 24.9 38.15 24.45 46 24.35 50.9 26.3 53 27.15 53.1 28.4 53.15 29.55 51.8 30.6 51.230859375 31.095703125 50.2 31.75 43.645703125 31.69296875 36.35 32.35 28 33.1 16.9 35.1 12.1 35.9 9.25 36.95 5.2 38.5 2.95 41.15 0.3916015625 44.269140625 -0.2 49.55 -0.4197265625 51.803125 -0.3 54.45 -0.2939453125 54.6259765625 -0.3 54.8 -0.136328125 58.241015625 0.55 62.8 1.3322265625 67.79609375 2.75 74.1
L 4.45 81.95 -5.7 94.5
Q -7.05 96.05 -8.05 95.95 -8.9146484375 95.821875 -9.5 94.85 -9.784375 94.3408203125 -10 93.55 -11.6732421875 87.4615234375 -10.15 77.7 -10.0337890625 76.9609375 -9.9 76.2 -7.35 61.95 -7.3 58.55 -7.2 53.35 -9.3 50.75 -9.7888671875 50.1548828125 -10.7 49.45 -11.9376953125 48.563671875 -13.95 47.5
L -32.2 38.2
Q -36.25 36.05 -35.7 33.7 -35.508984375 32.808984375 -34.65 32.2 -33.4892578125 31.3666015625 -31.1 31.05
L -5.65 27.95
Q -3.5 27.7 -2.35 27.35 -0.6 26.8 0.35 25.75 0.9607421875 25.1033203125 1.4 24.15 1.5830078125 23.85390625 1.7 23.5 1.7314453125 23.448828125 1.75 23.4 2.05 22.5 2.4 20.7 5.55 5.25 10.05 -4.3
M 59.95 47.95
Q 57.8 44.95 56 44.4 55.15 44.2 53.45 44.35 52.4 44.55 51.9 44.9 51.2 45.45 50.85 46.7 50.15 49.2 49.9 54.3
L 49.2 72.25
Q 49.15 73.15 49.2 73.9 45.9 73.05 41.1 73.25 32 73.6 31.45 73.55 28.65 73.45 27.7 73.95 26.6 74.55 26.15 75.85 25.7 77.1 25.95 78.45 26.4 80.55 28.6 82.95 31.85 86.8 36.3 89.9 38.45 91.45 39 92 40.45 93.3 40.8 94.75 41.2 96.05 40.85 97.7 40.65 98.6 39.95 100.55 38.15 105.35 38.15 108.05 38.2 111.65 40.4 113.2 42.1 114.3 44.6 113.7 45.9 113.4 48.45 111.95 51.55 110.25 53.15 109.15 55.6 107.45 57.05 105.5 58.1 104 58.7 103.25 59.7 102.05 60.8 101.75
L 63.7 103.55
Q 65.75 104.65 66.75 104.8 68.3 105 69.7 104.05 71.05 103.2 71.8 101.75 72.569140625 100.33984375 72.75 98.2 72.9626953125 98.462890625 73.15 98.6 73.487109375 101.434375 74.1 103.3 74.9744140625 105.9234375 76.35 107.75 78.0904296875 110.001953125 80.6 111.05 74.05703125 115.981640625 64.7 120.1 64.476171875 120.2015625 64.25 120.3 61.553515625 121.475390625 57.55 122.95 52.91484375 124.73984375 46.5 126.95 44.256640625 127.72734375 42.5 128.2 40.36171875 128.7666015625 39 128.85 36.018359375 129.0853515625 32.15 128.15 31.119921875 127.89453125 30 127.55 28.7150390625 127.1673828125 27.45 126.75 17.681640625 123.4173828125 9.4 117.35 13.95 113.2 14.3 105.45 14.4 102.5 13.8 98.9 13.45 96.65 12.45 92.45
L 8.6 75.8
Q 8.30703125 74.543359375 8.05 73.4 6.9271484375 68.498046875 6.4 65.7 5.35 60.05 5 55.45 4.4 47.2 8.05 43.9 9.4 42.75 11.55 42 12.4826171875 41.7001953125 13.9 41.35 14.6486328125 41.2169921875 15.5 41.05 17.9626953125 40.580859375 20.25 40.15 29.790625 38.4740234375 36.75 37.75 48.4 36.55 58.15 37.25 62.65 37.55 64.65 39.25 65.9 40.35 66.65 42.25 67.1 43.55 67.55 45.85
L 72.1 68.2
Q 70.0634765625 68.5865234375 69.2 69.45
L 68.25 65.3
Q 67.95 63.9 67.65 63.2 66.85 61.6 66.55 60.85 66.1 59.95 65.6 58.5 65.1 56.95 64.85 56.1 63.7 53.2 59.95 47.95
M 55.25 48
Q 55.55 48.15 56.05 48.75
L 57.5 50.6
Q 59.2 52.85 59.9 54.05 61 55.85 62.45 59.75
L 63.8 63.15
Q 65 66.6 65.25 67.75
L 66.25 71.95
Q 66.25 72.55 66.1 73.8 66 74.9 66.7 75.4 67.55 76.05 68.45 75.4 68.487890625 75.3755859375 68.5 75.35 69.1689453125 74.8904296875 69.5 73.85 69.7 73.1 69.65 72.1 69.95 72.15 70.35 72.05 71.6216796875 71.874609375 73.95 71.4 74.070703125 71.4697265625 74.15 71.5 74.416796875 71.5671875 74.65 71.5 74.8890625 75.4328125 73.5 78.85 73.1814453125 78.9419921875 72.9 79.2 72.278125 79.7740234375 72.35 81.2 72.1083984375 81.6125 71.85 82 71.25 83 70 85 68.95 87.35 69.3 91.75 69.75 96.95 69.5 98.7 69.25 100.25 68.4 100.8 67.05 101.95 64.85 100.5 63.8 99.7 63.35 99.3 62.4 98.7 61.65 98.45 60.15 98 58.4 98.85 57 99.6 55.8 101.05 55.05 102 53.75 103.85 52.62578125 105.3490234375 51.55 106.15 51.4685546875 106.20234375 51.4 106.25 50.55 106.9 48.75 107.65 46.95 108.5 46.15 109 44.9 109.85 44.6 110 44.2912109375 110.1716796875 44 110.25 43.442578125 110.3970703125 42.95 110.2 42.15 109.95 41.85 109.05 41.55 108.3 41.65 107.3 41.75 105.55 43.35 101.45 44.75 97.75 44.6 95.65 44.25 90.9 37.8 86.15 34.2 83.4 33.05 82.35 30.65 80 29.7 77.5
L 36.35 77.1 39.9 76.85 49.4 76.3
Q 49.41640625 76.394140625 49.4 76.45 49.5896484375 77.2693359375 49.85 77.85 49.950390625 78.0728515625 50.05 78.25 50.2 78.65 50.55 78.6 50.75 78.6 50.9 78.1 50.98203125 77.7599609375 51.05 77.4 51.98125 73.3982421875 52.35 69.25
L 52.75 63.35
Q 53.15 56.7 53.65 51.35 53.95 48.95 54.2 48.1 54.455859375 47.8673828125 54.7 47.8 54.9826171875 47.7861328125 55.25 48 Z"/>

<path fill="#8E4A4A" stroke="none" d="
M 49.4 76.45
Q 49.41640625 76.394140625 49.4 76.3
L 39.9 76.85
Q 43.930859375 78.1603515625 48.2 78.05 49.1357421875 78.05 49.85 77.85 49.5896484375 77.2693359375 49.4 76.45
M 69.65 72.1
Q 69.7 73.1 69.5 73.85 69.1689453125 74.8904296875 68.5 75.35 68.6994140625 75.499609375 68.9 75.65 70.5 76.65 72.15 75.9 74 74.9 74.35 72.35 74.3939453125 71.99765625 74.4 71.55 74.2943359375 71.5369140625 74.15 71.5 74.070703125 71.4697265625 73.95 71.4 71.6216796875 71.874609375 70.35 72.05 69.95 72.15 69.65 72.1
M 33.05 82.35
Q 34.2 83.4 37.8 86.15 44.25 90.9 44.6 95.65 44.75 97.75 43.35 101.45 41.75 105.55 41.65 107.3 41.55 108.3 41.85 109.05 42.15 109.95 42.95 110.2 43.442578125 110.3970703125 44 110.25 44.2912109375 110.1716796875 44.6 110 44.9 109.85 46.15 109 46.95 108.5 48.75 107.65 50.55 106.9 51.4 106.25 51.4685546875 106.20234375 51.55 106.15 51.49453125 106.1009765625 51.45 106.05 49.8 104.6 49.15 103.8 48.85 103.45 47.95 102.05 47.5236328125 101.380078125 47.1 100.9 47.7552734375 98.82109375 47.95 97.75 48.25 95.9 47.85 94.45 47.2 91.95 44.9 90.65 43.75 90.15 43.2 89.85 42.3 89.35 41.9 88.7 41.65 88.25 41.45 86.9 41.25 85.7 40.8 85.2 40.35 84.7 39.25 84.45 37.95 84.15 37.55 83.9 36.65 83.4 35.85 81.2 35.05 79.1 34 78.65 35.05 78.35 35.9 77.6 36.14296875 77.35703125 36.35 77.1
L 29.7 77.5
Q 30.65 80 33.05 82.35
M 54.7 47.8
Q 54.455859375 47.8673828125 54.2 48.1 53.95 48.95 53.65 51.35 53.15 56.7 52.75 63.35
L 52.35 69.25
Q 51.98125 73.3982421875 51.05 77.4 51.3625 77.2375 51.6 77 52.15 76.35 52.45 75.1 52.85 73.45 53.05 73 53.35 72.45 54 71.7 54.85 70.75 55.05 70.45 56.35 68.7 57 65.1 57.9 60.6 57.55 58.35 57.25 56.55 56.35 55.2 55.3 53.7 53.75 53.1 54.94453125 50.6224609375 54.7 47.8
M 63.05 92.6
L 62.8 92.6
Q 62.1 92.5 61.55 93.15 60.65 94.15 60.95 95.45 61.3 96.8 62.55 97.1 63.3 97.25 64.1 97 64.75 96.8 65.15 96.4 65.85 95.8 65.85 94.75 65.75 93.75 65 93.15 64.5 92.75 63.15 92.45 63.25 92.6 63.05 92.6
M 56.35 73.3
Q 56.2 73.5 55.95 73.5 55.15 73.7 54.6 74.45 54.1 75.15 54.05 76 54.05 76.8 54.35 77.3 54.75 77.85 55.55 78.1 56.15 78.35 56.65 78.3 57.1 78.25 57.55 77.8 58.2 77.15 58.3 76.2 58.4 75.25 57.85 74.55 57.45 73.9 56.35 73.3
M -24.95 36.25
Q -26.55 35.3 -29.7 35.3 -31.25 35.3 -32.5 35.5 -33.2 35.5 -33.4 35.3 -33.55 35.2 -33.65 34.75 -34.0869140625 33.0693359375 -34.65 32.2 -35.508984375 32.808984375 -35.7 33.7 -36.25 36.05 -32.2 38.2
L -13.95 47.5
Q -11.9376953125 48.563671875 -10.7 49.45 -10.520703125 46.3662109375 -11.5 44.45 -11.85 43.8 -13 42.3 -14.6 40.45 -15.45 40.05 -16.5 39.65 -18.25 39.65 -20.6 39.7 -23.1 40.35 -22.75 39.2 -23.3 38 -23.85 36.85 -24.95 36.25
M 2.75 74.1
Q 1.3322265625 67.79609375 0.55 62.8 -0.136328125 58.241015625 -0.3 54.8 -0.2939453125 54.6259765625 -0.3 54.45 -0.4197265625 51.803125 -0.2 49.55 -1.72890625 51.8001953125 -2.5 56.2 -2.85 58.35 -3.35 62.7 -3.9 66.55 -4.7 69.05 -5.25 71 -5 71.7 -4.75 72.4 -4 72.65 -3.25 72.85 -2.9 72.35 -2.55 72.45 -2.5 72.9 -2.45 73.25 -2.7 73.55 -2.9 73.8 -3.9 74.35 -5.5 75.35 -5.8 77.9 -5.9 78.75 -5.8 79.95 -5.8 80.65 -5.7 82.05 -5.7 83.85 -6.3 85.25 -7.05 86.9 -8.45 87.35 -9.2 85.5 -9.35 83.3 -9.4 80.9 -9.55 79.7 -9.736328125 78.5291015625 -10.15 77.7 -11.6732421875 87.4615234375 -10 93.55 -9.784375 94.3408203125 -9.5 94.85 -8.9146484375 95.821875 -8.05 95.95 -7.05 96.05 -5.7 94.5
L 4.45 81.95 2.75 74.1
M -20.5 32.65
Q -21.2 33.7 -20.9 34.8 -20.65 35.65 -19.85 36.15 -19.1 36.7 -18.25 36.6 -17.4 36.55 -16.7 35.9 -16.05 35.3 -15.9 34.45 -15.75 33.35 -16.3 32.55 -16.95 31.65 -18 31.55 -18.15 31.7 -18.55 31.7 -19.8 31.7 -20.5 32.65
M 12.85 11.8
Q 13.25 11.2 13 10.45 12.75 9.75 11.9 9.15 11.3 8.75 10.9 8.7
L 10.9 8.85
Q 9.9 8.7 9.45 9.7 9.1 10.55 9.4 11.5 9.5 11.9 9.65 12.05 9.95 12.45 10.9 12.65 11.35 12.75 11.8 12.65 12.55 12.4 12.85 11.8
M 14.4 -1.8
Q 12.52421875 -4.533984375 10.05 -4.3 5.55 5.25 2.4 20.7 2.05 22.5 1.75 23.4 1.7314453125 23.448828125 1.7 23.5 1.5830078125 23.85390625 1.4 24.15 2.660546875 24.0533203125 4.15 22.75 6.7 20.45 7.6 17.65 8.1 16.15 8.15 14.65 8.45 11.65 7.3 10.2 9.05 7.95 10.8 6.15 12.05 4.8 12.45 4.25 13.25 3.1 13.35 2 13.4 1.7 13.4 0.6 13.4 -0.25 13.6 -0.7 13.8 -1.2 14.3 -1.7 14.344140625 -1.744140625 14.4 -1.8 Z"/>

<path fill="#FF9999" stroke="none" d="
M 56.05 48.75
Q 55.55 48.15 55.25 48 54.9826171875 47.7861328125 54.7 47.8 54.94453125 50.6224609375 53.75 53.1 55.3 53.7 56.35 55.2 57.25 56.55 57.55 58.35 57.9 60.6 57 65.1 56.35 68.7 55.05 70.45 54.85 70.75 54 71.7 53.35 72.45 53.05 73 52.85 73.45 52.45 75.1 52.15 76.35 51.6 77 51.3625 77.2375 51.05 77.4 50.98203125 77.7599609375 50.9 78.1 50.75 78.6 50.55 78.6 50.2 78.65 50.05 78.25 49.950390625 78.0728515625 49.85 77.85 49.1357421875 78.05 48.2 78.05 43.930859375 78.1603515625 39.9 76.85
L 36.35 77.1
Q 36.14296875 77.35703125 35.9 77.6 35.05 78.35 34 78.65 35.05 79.1 35.85 81.2 36.65 83.4 37.55 83.9 37.95 84.15 39.25 84.45 40.35 84.7 40.8 85.2 41.25 85.7 41.45 86.9 41.65 88.25 41.9 88.7 42.3 89.35 43.2 89.85 43.75 90.15 44.9 90.65 47.2 91.95 47.85 94.45 48.25 95.9 47.95 97.75 47.7552734375 98.82109375 47.1 100.9 47.5236328125 101.380078125 47.95 102.05 48.85 103.45 49.15 103.8 49.8 104.6 51.45 106.05 51.49453125 106.1009765625 51.55 106.15 52.62578125 105.3490234375 53.75 103.85 55.05 102 55.8 101.05 57 99.6 58.4 98.85 60.15 98 61.65 98.45 62.4 98.7 63.35 99.3 63.8 99.7 64.85 100.5 67.05 101.95 68.4 100.8 69.25 100.25 69.5 98.7 69.75 96.95 69.3 91.75 68.95 87.35 70 85 71.25 83 71.85 82 72.1083984375 81.6125 72.35 81.2 72.278125 79.7740234375 72.9 79.2 73.1814453125 78.9419921875 73.5 78.85 74.8890625 75.4328125 74.65 71.5 74.416796875 71.5671875 74.15 71.5 74.2943359375 71.5369140625 74.4 71.55 74.3939453125 71.99765625 74.35 72.35 74 74.9 72.15 75.9 70.5 76.65 68.9 75.65 68.6994140625 75.499609375 68.5 75.35 68.487890625 75.3755859375 68.45 75.4 67.55 76.05 66.7 75.4 66 74.9 66.1 73.8 66.25 72.55 66.25 71.95
L 65.25 67.75
Q 65 66.6 63.8 63.15
L 62.45 59.75
Q 61 55.85 59.9 54.05 59.2 52.85 57.5 50.6
L 56.05 48.75
M 55.95 73.5
Q 56.2 73.5 56.35 73.3 57.45 73.9 57.85 74.55 58.4 75.25 58.3 76.2 58.2 77.15 57.55 77.8 57.1 78.25 56.65 78.3 56.15 78.35 55.55 78.1 54.75 77.85 54.35 77.3 54.05 76.8 54.05 76 54.1 75.15 54.6 74.45 55.15 73.7 55.95 73.5
M 62.8 92.6
L 63.05 92.6
Q 63.25 92.6 63.15 92.45 64.5 92.75 65 93.15 65.75 93.75 65.85 94.75 65.85 95.8 65.15 96.4 64.75 96.8 64.1 97 63.3 97.25 62.55 97.1 61.3 96.8 60.95 95.45 60.65 94.15 61.55 93.15 62.1 92.5 62.8 92.6
M 14.3 -1.7
Q 13.8 -1.2 13.6 -0.7 13.4 -0.25 13.4 0.6 13.4 1.7 13.35 2 13.25 3.1 12.45 4.25 12.05 4.8 10.8 6.15 9.05 7.95 7.3 10.2 8.45 11.65 8.15 14.65 8.1 16.15 7.6 17.65 6.7 20.45 4.15 22.75 2.660546875 24.0533203125 1.4 24.15 0.9607421875 25.1033203125 0.35 25.75 -0.6 26.8 -2.35 27.35 -3.5 27.7 -5.65 27.95
L -31.1 31.05
Q -33.4892578125 31.3666015625 -34.65 32.2 -34.0869140625 33.0693359375 -33.65 34.75 -33.55 35.2 -33.4 35.3 -33.2 35.5 -32.5 35.5 -31.25 35.3 -29.7 35.3 -26.55 35.3 -24.95 36.25 -23.85 36.85 -23.3 38 -22.75 39.2 -23.1 40.35 -20.6 39.7 -18.25 39.65 -16.5 39.65 -15.45 40.05 -14.6 40.45 -13 42.3 -11.85 43.8 -11.5 44.45 -10.520703125 46.3662109375 -10.7 49.45 -9.7888671875 50.1548828125 -9.3 50.75 -7.2 53.35 -7.3 58.55 -7.35 61.95 -9.9 76.2 -10.0337890625 76.9609375 -10.15 77.7 -9.736328125 78.5291015625 -9.55 79.7 -9.4 80.9 -9.35 83.3 -9.2 85.5 -8.45 87.35 -7.05 86.9 -6.3 85.25 -5.7 83.85 -5.7 82.05 -5.8 80.65 -5.8 79.95 -5.9 78.75 -5.8 77.9 -5.5 75.35 -3.9 74.35 -2.9 73.8 -2.7 73.55 -2.45 73.25 -2.5 72.9 -2.55 72.45 -2.9 72.35 -3.25 72.85 -4 72.65 -4.75 72.4 -5 71.7 -5.25 71 -4.7 69.05 -3.9 66.55 -3.35 62.7 -2.85 58.35 -2.5 56.2 -1.72890625 51.8001953125 -0.2 49.55 0.3916015625 44.269140625 2.95 41.15 5.2 38.5 9.25 36.95 12.1 35.9 16.9 35.1 28 33.1 36.35 32.35 43.645703125 31.69296875 50.2 31.75 51.230859375 31.095703125 51.8 30.6 53.15 29.55 53.1 28.4 53 27.15 50.9 26.3 46 24.35 38.15 24.45 29.3 24.9 24.9 24.65 25 25.6 24.2 26.1 23.1 25.25 22.45 23.65 22 22.65 21.55 20.65 19.3 10.7 16.1 1.65 15.321484375 -0.437109375 14.4 -1.8 14.344140625 -1.744140625 14.3 -1.7
M 13 10.45
Q 13.25 11.2 12.85 11.8 12.55 12.4 11.8 12.65 11.35 12.75 10.9 12.65 9.95 12.45 9.65 12.05 9.5 11.9 9.4 11.5 9.1 10.55 9.45 9.7 9.9 8.7 10.9 8.85
L 10.9 8.7
Q 11.3 8.75 11.9 9.15 12.75 9.75 13 10.45
M -20.9 34.8
Q -21.2 33.7 -20.5 32.65 -19.8 31.7 -18.55 31.7 -18.15 31.7 -18 31.55 -16.95 31.65 -16.3 32.55 -15.75 33.35 -15.9 34.45 -16.05 35.3 -16.7 35.9 -17.4 36.55 -18.25 36.6 -19.1 36.7 -19.85 36.15 -20.65 35.65 -20.9 34.8 Z"/>

<path fill="#2F7078" stroke="none" d="
M 57.55 122.95
Q 54.986328125 120.64921875 52.05 120.5 49.8 120.4 47.55 121.8 45.6 123 44 125.1 42.9 126.5 42.65 127.6 42.56484375 127.9025390625 42.5 128.2 44.256640625 127.72734375 46.5 126.95 52.91484375 124.73984375 57.55 122.95
M 80.6 111.05
Q 78.0904296875 110.001953125 76.35 107.75 76.023046875 107.932421875 75.65 108.15 71.65 110.55 71.4 112.95 70.15 112.65 68.85 113.25 67.6 113.75 66.8 114.85 65.55 116.4 64.8 119.65 64.73828125 119.884375 64.7 120.1 74.05703125 115.981640625 80.6 111.05
M 11.55 42
Q 9.4 42.75 8.05 43.9 4.4 47.2 5 55.45 5.35 60.05 6.4 65.7 6.9271484375 68.498046875 8.05 73.4 8.30703125 74.543359375 8.6 75.8
L 12.45 92.45
Q 13.45 96.65 13.8 98.9 14.4 102.5 14.3 105.45 13.95 113.2 9.4 117.35 17.681640625 123.4173828125 27.45 126.75 28.7150390625 127.1673828125 30 127.55 31.119921875 127.89453125 32.15 128.15 32.2349609375 128.001171875 32.3 127.85 34.6 122.55 34.65 122.45 35.75 119.35 35.6 116.6 35.45 113.35 33.55 111.3 33 110.7 31.95 109.95 30.35 108.85 30.15 108.7 27.75 106.85 26.45 104.1 28.95 101 28.6 96.4 28.25 92.25 25.9 88.35 23.65 84.7 20.35 82.65 16.6 80.4 12.95 81.15 12.45 79.95 12.65 78.35 12.8 77.3 13.4 75.5
L 15.4 69.6
Q 16 68 16.5 67.3 16.9 66.75 17.8 66.2
L 19.2 65.2
Q 21.15 63.75 21.85 61.25 22.55 58.75 21.65 56.45 20.9 54.4 20.85 54.1 20.75 53.25 21.1 52.2 21.6 50.95 21.8 50.35 23.2 46.4 21.4 42.25 20.90859375 41.116796875 20.25 40.15 17.9626953125 40.580859375 15.5 41.05 14.6486328125 41.2169921875 13.9 41.35 12.4826171875 41.7001953125 11.55 42
M 70.4 110.45
Q 70.7 109.75 70.6 108.8 70.5 108.25 70.3 107.9 70.05 107.55 69.5 107.25 68.65 106.75 67.95 106.8 67.95 107 67.65 107 66.95 106.95 66.4 107.45 65.9 107.95 65.8 108.65 65.55 110 66.75 111.1 68 112.15 69.25 111.7 70.1 111.3 70.4 110.45
M 32.5 95.15
Q 30.9 95.9 31 97.55 31 98.3 31.45 98.95 31.9 99.6 32.6 99.85 33.3 100.15 34.1 100 34.85 99.85 35.4 99.3 35.95 98.75 36.1 97.95 36.25 97.15 35.95 96.45 35.35 94.95 33.6 94.85 33.75 95 33.6 95
L 33.4 95
Q 33.05 94.95 32.5 95.15
M 17.85 72.5
Q 17.25 73 17.1 73.8 16.95 74.65 17.4 75.4 17.8 76.2 18.6 76.45 19.6 76.8 20.45 76.3 21.4 75.7 21.55 74.8 21.95 73.35 20.8 72.45 20.3 72.05 19.4 71.85 19.5 72 19.25 72 18.5 71.95 17.85 72.5
M 33.55 56.8
Q 32.5 55.5 30.8 55.05 29.05 54.65 27.7 55.45 26.95 55.95 26.3 56.9 25.8 57.75 24.95 60.15 24.4 62.25 24.45 63.15 24.45 64.9 25.5 65.95 26.45 66.9 28.25 67.1 29.25 67.2 31.25 67.2
L 32.55 67.3
Q 33.25 67.3 33.75 67.05 34.55 66.7 35.2 65.55 36.4 63 34.75 59 34.25 57.7 33.55 56.8 Z"/>

<path fill="#9ECFD5" stroke="none" d="
M 56 44.4
Q 57.8 44.95 59.95 47.95 63.7 53.2 64.85 56.1 65.1 56.95 65.6 58.5 66.1 59.95 66.55 60.85 66.85 61.6 67.65 63.2 67.95 63.9 68.25 65.3
L 69.2 69.45
Q 70.0634765625 68.5865234375 72.1 68.2
L 67.55 45.85
Q 67.1 43.55 66.65 42.25 65.9 40.35 64.65 39.25 62.65 37.55 58.15 37.25 48.4 36.55 36.75 37.75 29.790625 38.4740234375 20.25 40.15 20.90859375 41.116796875 21.4 42.25 23.2 46.4 21.8 50.35 21.6 50.95 21.1 52.2 20.75 53.25 20.85 54.1 20.9 54.4 21.65 56.45 22.55 58.75 21.85 61.25 21.15 63.75 19.2 65.2
L 17.8 66.2
Q 16.9 66.75 16.5 67.3 16 68 15.4 69.6
L 13.4 75.5
Q 12.8 77.3 12.65 78.35 12.45 79.95 12.95 81.15 16.6 80.4 20.35 82.65 23.65 84.7 25.9 88.35 28.25 92.25 28.6 96.4 28.95 101 26.45 104.1 27.75 106.85 30.15 108.7 30.35 108.85 31.95 109.95 33 110.7 33.55 111.3 35.45 113.35 35.6 116.6 35.75 119.35 34.65 122.45 34.6 122.55 32.3 127.85 32.2349609375 128.001171875 32.15 128.15 36.018359375 129.0853515625 39 128.85 40.36171875 128.7666015625 42.5 128.2 42.56484375 127.9025390625 42.65 127.6 42.9 126.5 44 125.1 45.6 123 47.55 121.8 49.8 120.4 52.05 120.5 54.986328125 120.64921875 57.55 122.95 61.553515625 121.475390625 64.25 120.3 64.476171875 120.2015625 64.7 120.1 64.73828125 119.884375 64.8 119.65 65.55 116.4 66.8 114.85 67.6 113.75 68.85 113.25 70.15 112.65 71.4 112.95 71.65 110.55 75.65 108.15 76.023046875 107.932421875 76.35 107.75 74.9744140625 105.9234375 74.1 103.3 73.487109375 101.434375 73.15 98.6 72.9626953125 98.462890625 72.75 98.2 72.569140625 100.33984375 71.8 101.75 71.05 103.2 69.7 104.05 68.3 105 66.75 104.8 65.75 104.65 63.7 103.55
L 60.8 101.75
Q 59.7 102.05 58.7 103.25 58.1 104 57.05 105.5 55.6 107.45 53.15 109.15 51.55 110.25 48.45 111.95 45.9 113.4 44.6 113.7 42.1 114.3 40.4 113.2 38.2 111.65 38.15 108.05 38.15 105.35 39.95 100.55 40.65 98.6 40.85 97.7 41.2 96.05 40.8 94.75 40.45 93.3 39 92 38.45 91.45 36.3 89.9 31.85 86.8 28.6 82.95 26.4 80.55 25.95 78.45 25.7 77.1 26.15 75.85 26.6 74.55 27.7 73.95 28.65 73.45 31.45 73.55 32 73.6 41.1 73.25 45.9 73.05 49.2 73.9 49.15 73.15 49.2 72.25
L 49.9 54.3
Q 50.15 49.2 50.85 46.7 51.2 45.45 51.9 44.9 52.4 44.55 53.45 44.35 55.15 44.2 56 44.4
M 30.8 55.05
Q 32.5 55.5 33.55 56.8 34.25 57.7 34.75 59 36.4 63 35.2 65.55 34.55 66.7 33.75 67.05 33.25 67.3 32.55 67.3
L 31.25 67.2
Q 29.25 67.2 28.25 67.1 26.45 66.9 25.5 65.95 24.45 64.9 24.45 63.15 24.4 62.25 24.95 60.15 25.8 57.75 26.3 56.9 26.95 55.95 27.7 55.45 29.05 54.65 30.8 55.05
M 17.1 73.8
Q 17.25 73 17.85 72.5 18.5 71.95 19.25 72 19.5 72 19.4 71.85 20.3 72.05 20.8 72.45 21.95 73.35 21.55 74.8 21.4 75.7 20.45 76.3 19.6 76.8 18.6 76.45 17.8 76.2 17.4 75.4 16.95 74.65 17.1 73.8
M 31 97.55
Q 30.9 95.9 32.5 95.15 33.05 94.95 33.4 95
L 33.6 95
Q 33.75 95 33.6 94.85 35.35 94.95 35.95 96.45 36.25 97.15 36.1 97.95 35.95 98.75 35.4 99.3 34.85 99.85 34.1 100 33.3 100.15 32.6 99.85 31.9 99.6 31.45 98.95 31 98.3 31 97.55
M 70.6 108.8
Q 70.7 109.75 70.4 110.45 70.1 111.3 69.25 111.7 68 112.15 66.75 111.1 65.55 110 65.8 108.65 65.9 107.95 66.4 107.45 66.95 106.95 67.65 107 67.95 107 67.95 106.8 68.65 106.75 69.5 107.25 70.05 107.55 70.3 107.9 70.5 108.25 70.6 108.8 Z"/>
</g>

<g id="triten_wJavalin_Body_0_Layer2_0_FILL">
<path fill="#000000" stroke="none" d="
M 35.45 13.45
Q 34.55 11.45 33.6 10.2 31.9 7.95 28.1 5.9 23.65 3.5 19 2.8 13.95 2.05 9.55 3.4 9.75 2.75 9.05 2.3 8.35 1.9 7.7 2.2 6.75 2.55 6.05 4.4 2.3 13.1 -3 21.3 -4.55 23.6 -5.8 24.9 -7.6 26.7 -9.55 27.25 -11.2 27.75 -12.55 27.25 -13.3 26.95 -14.7 25.9 -17.1 24.1 -20.4 22.35 -22.3 21.35 -26.45 19.45 -28.4 18.6 -29.3 19 -30.55 19.4 -30.95 21.2 -31.4 23 -30.8 25.25 -30.4 26.75 -29.3 29.15 -27.15 33.85 -25.85 36.15 -23.75 39.95 -21.3 42.4 -20.25 43.45 -20.15 44.1 -20.05 44.75 -20.55 45.95 -21.9 49.35 -22.3 53.05 -22.45 54.25 -22.05 55.2 -21.65 56.25 -20.7 56.3 -20.05 56.35 -19 55.5 -17.55 54.25 -15.5 52.05 -13.95 50.3 -13.15 49.45 -11.75 48 -10.45 47.35 -8.25 46.25 -4.9 46.5 -4.55 46.5 0.85 47.3 9.3 48.45 17.65 45.45 26 42.45 31.75 36.1 36.75 30.7 37.55 24.85 38.2 19.65 35.45 13.45
M 31.65 16.35
Q 31.728125 16.522265625 31.8 16.7 32.5296875 18.3421875 32.9 19.7 33.096484375 20.3375 33.2 20.9 34.15 25.65 31 30.55 28.9 34 24 37.7 21.7 39.45 19.6 40.55 15.181640625 42.83359375 9.25 43.35 9.2388671875 43.3466796875 9.2 43.35 4.65 43.75 -1.7 43.15 -4.65 42.9 -5.8 42.9 -8.05 42.9 -9.75 43.55 -11.9 44.4 -14.85 47.55 -17.00234375 49.7408203125 -18.8 51.7 -19.3412109375 52.321875 -19.85 52.9 -19 48.9 -17.15 45.3 -16.4443359375 44.0810546875 -16.3 43.15 -16.1783203125 42.630078125 -16.25 42.2 -16.4 41.3 -17.85 39.85 -22.5982421875 35.1671875 -25.35 29.3 -26.8029296875 26.248828125 -27.7 22.85
L -21.3 25.5
Q -18.8 26.5 -17.7 27.2 -15.05 29.25 -13.55 29.9 -11.45 30.8 -9 30.35 -6.7 29.95 -4.7 28.5 -1.8 26.4 1.25 21.45 3.6 17.8 4.8 15.15 5.54375 13.51953125 5.95 12.6 6.3001953125 11.9568359375 6.45 11.7 7.5 9.8 8.85 8.9 10.15 8.1 11.8 7.8 16.35 6.9 23.8 9.4 28 10.75 29.6 12.65 30.65 13.85 31.65 16.35 Z"/>

<path fill="#00CCFF" stroke="none" d="
M -16.3 43.15
Q -16.4443359375 44.0810546875 -17.15 45.3 -19 48.9 -19.85 52.9 -19.3412109375 52.321875 -18.8 51.7 -16.6470703125 48.072265625 -14.15 44.4 -15.1341796875 43.8982421875 -16.3 43.15
M 4.8 15.15
Q 3.6 17.8 1.25 21.45 -1.8 26.4 -4.7 28.5 -6.7 29.95 -9 30.35 -11.45 30.8 -13.55 29.9 -15.05 29.25 -17.7 27.2 -18.8 26.5 -21.3 25.5
L -27.7 22.85
Q -26.8029296875 26.248828125 -25.35 29.3 -23.20703125 30.5521484375 -23 30.7 -18.9 34.2 -16.8 35.85 -13.1 38.85 -9.9 39.2 -8.7 39.35 -7.1 39.2 -5.2 39 -4.3 38.9 -1.5 38.55 -0.65 38.25 1 37.7 2.65 36.15 3.75 35.1 5.4 33.1
L 12.1 25.05
Q 7.9 21.8 6.45 15.55 6.1673828125 14.366796875 5.95 12.6 5.54375 13.51953125 4.8 15.15
M 33.2 20.9
Q 33.096484375 20.3375 32.9 19.7 32.2099609375 20.6658203125 31.15 21.95 28.95 24.55 28.95 26.5 29 26.95 29.1 27.85 29.2 28.7 29.05 29.2 28.7 30.4 26.6 31.65 17.4365234375 37.0197265625 9.25 43.35 15.181640625 42.83359375 19.6 40.55 21.7 39.45 24 37.7 28.9 34 31 30.55 34.15 25.65 33.2 20.9
M 25.05 14.5
Q 25.2 14.3 25.1 13.9
L 25.05 13.55 24.9 13.2 24.85 12.8 24.75 12.8 24.65 13.75
Q 24.65 14.25 25.05 14.5 Z"/>

<path fill="#0099FF" stroke="none" d="
M 31.8 16.7
Q 31.728125 16.522265625 31.65 16.35 30.65 13.85 29.6 12.65 28 10.75 23.8 9.4 16.35 6.9 11.8 7.8 10.15 8.1 8.85 8.9 7.5 9.8 6.45 11.7 6.3001953125 11.9568359375 5.95 12.6 6.1673828125 14.366796875 6.45 15.55 7.9 21.8 12.1 25.05
L 5.4 33.1
Q 3.75 35.1 2.65 36.15 1 37.7 -0.65 38.25 -1.5 38.55 -4.3 38.9 -5.2 39 -7.1 39.2 -8.7 39.35 -9.9 39.2 -13.1 38.85 -16.8 35.85 -18.9 34.2 -23 30.7 -23.20703125 30.5521484375 -25.35 29.3 -22.5982421875 35.1671875 -17.85 39.85 -16.4 41.3 -16.25 42.2 -16.1783203125 42.630078125 -16.3 43.15 -15.1341796875 43.8982421875 -14.15 44.4 -16.6470703125 48.072265625 -18.8 51.7 -17.00234375 49.7408203125 -14.85 47.55 -11.9 44.4 -9.75 43.55 -8.05 42.9 -5.8 42.9 -4.65 42.9 -1.7 43.15 4.65 43.75 9.2 43.35 9.2388671875 43.3466796875 9.25 43.35 17.4365234375 37.0197265625 26.6 31.65 28.7 30.4 29.05 29.2 29.2 28.7 29.1 27.85 29 26.95 28.95 26.5 28.95 24.55 31.15 21.95 32.2099609375 20.6658203125 32.9 19.7 32.5296875 18.3421875 31.8 16.7
M 25.1 13.9
Q 25.2 14.3 25.05 14.5 24.65 14.25 24.65 13.75
L 24.75 12.8 24.85 12.8 24.9 13.2 25.05 13.55 25.1 13.9 Z"/>
</g>

<g id="triten_wJavalin_Body_0_Layer1_0_FILL">
<path fill="#000000" stroke="none" d="
M 36.6 10.2
Q 35.4 6.7 34.65 3.05 34.2 1 33.45 0.45 32.85 -0.05 31.95 0 31.1 0.05 30.4 0.5 29.6 1 28.2 2.95 8.2 33.55 0.35 59.9 -0.55 62.85 0.8 63.9 1.75 64.6 3.15 64 4.2 63.5 5.3 62.3 9.15 58.25 12.05 55.85 16 52.65 19.85 50.85 25 48.45 30.9 48.25 36.7 48.1 42.05 50.15 45.95 51.75 50.7 54.95 57.2 59.3 62.15 63.45 64.05 64.95 65.05 65.2 65.95 65.45 66.8 65.2 67.7 64.95 68.1 64.25 68.85 62.95 67.6 60.55 64.25 54.25 51.05 35.85 40.2 20.8 36.6 10.2
M 45.3 47
Q 44.5 46.5875 43.75 46.25 41.5 45.2 39.6 44.75 35.15 43.65 28.3 44.3 26.6 44.45 25.15 44.75 24.85 44.45 24.55 44.15
L 22.9 42.65
Q 22.3 42 21.6 40.95 20.9 39.75 20.5 39.15 19.25 37.3 16.2 34.05 15.95 33.75 15.7 33.55 16.2 32.45 16.75 31.4 21.95 21.05 30.8 6.2 31.3 8.2 32 10.25 33.75 15.55 36.65 21.1 39.9 27.3 45.2 34.75 47.05 37.35 54.85 47.6 60.8 55.5 64.15 60.7 57 53.75 48.1 48.55 46.63125 47.675 45.3 47
M 9.7 46.9
Q 9.8 47 9.95 47.1
L 11.2 48 12.15 48.9
Q 12.65 49.3 13.85 49.9 14 50 14.3 50.15 14.25 50.15 14.2 50.2 8.1 55.25 5.7 57.95 7.4 52.55 9.7 46.9
M 18.7 42.6
Q 18.8 42.75 18.9 42.95 20.05 44.5 21.55 45.6 20.45 45.95 19.6 46.35 18.45 46.9 16.7 48.25 16.5 47.95 16.2 47.7 16 47.55 15.7 47.4 15.1 47 14 46.45 12.5 45.75 11.8 45.1 11.2 44.55 10.8 44.2 12.3 40.7 14 37.1 14.45 37.5 15.15 38.15 16.15 39.15 16.75 39.9 17.3 40.55 18.1 41.75 18.4 42.1 18.7 42.6 Z"/>

<path fill="#8E4A4A" stroke="none" d="
M 18.7 42.6
Q 18.4 42.1 18.1 41.75 17.3 40.55 16.75 39.9 16.15 39.15 15.15 38.15 14.45 37.5 14 37.1 12.3 40.7 10.8 44.2 11.2 44.55 11.8 45.1 12.5 45.75 14 46.45 15.1 47 15.7 47.4 17.1 44.95 18.7 42.6 Z"/>

<path fill="#FF9999" stroke="none" d="
M 18.9 42.95
Q 18.8 42.75 18.7 42.6 17.1 44.95 15.7 47.4 16 47.55 16.2 47.7 16.5 47.95 16.7 48.25 18.45 46.9 19.6 46.35 20.45 45.95 21.55 45.6 20.05 44.5 18.9 42.95 Z"/>

<path fill="#2F7078" stroke="none" d="
M 9.95 47.1
Q 9.8 47 9.7 46.9 7.4 52.55 5.7 57.95 8.1 55.25 14.2 50.2 14.25 50.15 14.3 50.15 14 50 13.85 49.9 12.65 49.3 12.15 48.9
L 11.2 48 9.95 47.1
M 43.75 46.25
Q 44.5 46.5875 45.3 47 42.5 44.9 40.6 43.8 37.05 41.8 33.8 41.35 33.3 41.3 29.4 41.1 26.75 41 25.15 40.35 30.15 25.7 32 10.25 31.3 8.2 30.8 6.2 21.95 21.05 16.75 31.4 16.2 32.45 15.7 33.55 15.95 33.75 16.2 34.05 19.25 37.3 20.5 39.15 20.9 39.75 21.6 40.95 22.3 42 22.9 42.65
L 24.55 44.15
Q 24.85 44.45 25.15 44.75 26.6 44.45 28.3 44.3 35.15 43.65 39.6 44.75 41.5 45.2 43.75 46.25 Z"/>

<path fill="#9ECFD5" stroke="none" d="
M 40.6 43.8
Q 42.5 44.9 45.3 47 46.63125 47.675 48.1 48.55 57 53.75 64.15 60.7 60.8 55.5 54.85 47.6 47.05 37.35 45.2 34.75 39.9 27.3 36.65 21.1 33.75 15.55 32 10.25 30.15 25.7 25.15 40.35 26.75 41 29.4 41.1 33.3 41.3 33.8 41.35 37.05 41.8 40.6 43.8 Z"/>
</g>

<g id="triten_wJavalin_Body_0_Layer0_0_FILL">
<path fill="#000000" stroke="none" d="
M 52.9 -0.6
Q 51.75 -2.25 47.85 -2.15 36.55 -1.8 14.2 0 9.45 0.3 6.6 0.85 4.95 1.15 4.25 1.85 3.35 2.65 3.35 4.05 3.35 5.35 4 6.55 4.3 7.3 5 8.25
L 7.3 11.9
Q 9.3 15 10.55 16.35 11.3 17.15 13 18.55 16.55 21.55 18.5 22.9 21.75 25.1 24.75 26 28.6 27.2 32.75 26.55 36.85 25.9 40.2 23.6 43.05 21.55 46.2 17.4 51.45 10.35 53.15 3.5 53.85 0.7 52.9 -0.6
M 41.3 6
Q 41.665234375 5.2544921875 41.9 4.5 42.2705078125 3.3228515625 42.3 2.1 42.0017578125 2.1408203125 41.65 2.15 46.622265625 1.8830078125 49.2 1.95 48.80546875 3.5873046875 48.25 5.15 46.0953125 11.502734375 41.6 16.6 39.5 19 37.2 20.55 35.3 21.8 33.65 22.15 32.4 22.45 30.5 22.45 27 22.55 24.7 21.8 23.25 21.3 20.9 19.95 17.1 17.8 15.4 16.6 13.130859375 15.023046875 11.55 13.3 11.10390625 12.8193359375 10.7 12.3 9.7 10.95 9.1 10.3 7.75 8.8 7.5 8.45 6.775390625 7.2271484375 6.7 5.35 6.7 5.15234375 6.7 4.95 7.624609375 4.84296875 8.55 4.75
L 8.6 4.7
Q 9.5296875 4.626953125 10.45 4.55
L 16.4 4
Q 16.6650390625 3.9693359375 16.9 3.95 17.006640625 4.43203125 17.35 5.05 18.7056640625 7.563671875 20 9.15 20.9927734375 10.3755859375 21.95 11.05 24.35 12.65 28.25 12.85 34.1 13 38.05 10 40.15 8.4 41.3 6
M 36.2 2.5
Q 37.9890625 2.3728515625 39.55 2.25 39.413671875 2.289453125 39.25 2.3 38.5880859375 5.5119140625 36.95 7.15 35.4 8.75 32.8 9.45 30.85 9.95 27.85 10.05 25.15 10.15 23.75 9.45 22.828515625 9.00625 22 8.05 21.6150390625 7.60546875 21.25 7.05 20.1 4.9 19.5 3.85 19.4720703125 3.79765625 19.45 3.75 22.2158203125 3.5361328125 25.15 3.35
L 36.2 2.5 Z"/>

<path fill="#8E4A4A" stroke="none" d="
M 39.55 2.25
Q 37.9890625 2.3728515625 36.2 2.5
L 25.15 3.35
Q 22.2158203125 3.5361328125 19.45 3.75 19.4720703125 3.79765625 19.5 3.85 20.1 4.9 21.25 7.05 21.6150390625 7.60546875 22 8.05 22.828515625 9.00625 23.75 9.45 25.15 10.15 27.85 10.05 30.85 9.95 32.8 9.45 35.4 8.75 36.95 7.15 38.5880859375 5.5119140625 39.25 2.3 39.413671875 2.289453125 39.55 2.25
M 18.3 10
Q 19.1912109375 9.5615234375 20 9.15 18.7056640625 7.563671875 17.35 5.05 17.006640625 4.43203125 16.9 3.95 16.6650390625 3.9693359375 16.4 4
L 10.45 4.55
Q 9.5296875 4.626953125 8.6 4.7
L 8.55 4.75
Q 8.4568359375 4.80546875 8.35 4.85 7.434375 5.1115234375 6.7 5.35 6.775390625 7.2271484375 7.5 8.45 7.75 8.8 9.1 10.3 9.7 10.95 10.7 12.3 11.10390625 12.8193359375 11.55 13.3 12.34609375 12.896875 13 12.55 14.75 11.65 18.3 10
M 42.3 2.1
Q 42.2705078125 3.3228515625 41.9 4.5 44.39921875 4.9669921875 48.15 5.15 48.209375 5.1529296875 48.25 5.15 48.80546875 3.5873046875 49.2 1.95 46.622265625 1.8830078125 41.65 2.15 42.0017578125 2.1408203125 42.3 2.1 Z"/>

<path fill="#FF9999" stroke="none" d="
M 6.7 4.95
Q 6.7 5.15234375 6.7 5.35 7.434375 5.1115234375 8.35 4.85 8.4568359375 4.80546875 8.55 4.75 7.624609375 4.84296875 6.7 4.95
M 41.9 4.5
Q 41.665234375 5.2544921875 41.3 6 40.15 8.4 38.05 10 34.1 13 28.25 12.85 24.35 12.65 21.95 11.05 20.9927734375 10.3755859375 20 9.15 19.1912109375 9.5615234375 18.3 10 14.75 11.65 13 12.55 12.34609375 12.896875 11.55 13.3 13.130859375 15.023046875 15.4 16.6 17.1 17.8 20.9 19.95 23.25 21.3 24.7 21.8 27 22.55 30.5 22.45 32.4 22.45 33.65 22.15 35.3 21.8 37.2 20.55 39.5 19 41.6 16.6 46.0953125 11.502734375 48.25 5.15 48.209375 5.1529296875 48.15 5.15 44.39921875 4.9669921875 41.9 4.5 Z"/>
</g>

<g id="triten_wJavalin_weapon_0_Layer1_0_FILL">
<path fill="#000000" stroke="none" d="
M 140.55 -8.05
Q 140.05 -6.45 139.4 -3.05 137.9 3.35 133.6 5.4 133.343359375 5.53828125 132.95 5.7 72.22109375 11.062890625 13.65 19.65 6.1 20.75 2.25 22.2 0.6 22.9 0.15 23.8 -0.15 24.45 0.15 25.1 0.3 25.5 0.55 25.7 0.8 26.85 1.75 27.35 2.75 27.9 4.15 27.9 4.95 27.85 6.65 27.55 11.05 26.7 17 26.15 20.5 25.8 27.45 25.25 40.6 24.1 65.4 20.7 91.2 17.1 103.3 15.95 108.45 15.5 118.7 14.75 127.32421875 14.1189453125 132.3 13.65 132.4263671875 13.7072265625 132.55 13.75 134.05 14.2 134.8 14.4 139.35 15.7 142 21.8 143.25 24.95 144.05 26.45 145.35 29.1 147.1 30.6 148.95 32.25 151.65 33.1 154.2 33.85 157.05 33.75 162.1 33.55 167.55 30.9 168.65 30.35 171.05 29.15 173.25 27.9 174.45 27.35 179.3 25.15 186.85 23.45 191.1 22.5 199.75 20.85 201.05 20.6 201.35 20 201.6 19.25 200.7 18.75 199.9 18.25 198.85 18.2
L 191.1 17.7
Q 188.95 17.45 186.8 17.35 183.1 17.1 181.25 17.05 178.1 16.95 175.55 17.2 174.4 17.45 173.35 17.6 172.7 17.65 171.95 17.7 167.75 18.15 166.1 18.15 162.85 18.1 160.75 16.9 159.7 16.35 159.4 15.65 158.85 14.8 159.6 14.05 160.25 15.25 162.15 15.25 162.95 15.25 165.1 14.75 167.5 14.3 171.7 14.2 176.15 14.15 180.85 14.55 182 14.7 184.35 14.9 186.35 15.05 187.85 14.85 191.25 14.45 194.8 12.55 197.55 11.15 199.9 9.3 201.6 7.9 202.45 7.25 203.95 6.1 205.35 5.65 205.55 5.5 206.1 5.35 206.6 5.15 206.85 5 207.2 4.7 207.35 4.4 207.55 4.05 207.35 3.75 207.2 3.4 206.3 3.1
L 200.15 1
Q 197 0 195.45 -0.8 192.85 -2.3 191.5 -3.05 189.15 -4.35 187.3 -4.65 184.85 -5 180.4 -3.8 178.65 -3.4 176.85 -2.8 174.3 -1.9 172.9 -1.45 169.65 -0.5 165.95 -0.55 162.35 -0.55 161.35 -0.45 158.65 -0.1 157.5 1.45 157.2447265625 1.08828125 157 0.85
L 158.15 -0.7
Q 158.8 -1.7 159.55 -2.1 160.25 -3.6 162.65 -4.15 163.75 -4.35 166.5 -4.25 172.75 -4 176.8 -4.7 180.55 -5.2 184.5 -6.65
L 195.95 -9.6
Q 197.05 -9.85 197.75 -10.45 198.15 -10.85 198.25 -11.2 198.2 -10.9 197.95 -10.65 198.9 -10.85 199.15 -11.2 199.5 -11.65 199.25 -12.25 198.95 -12.8 198.4 -13.05 197.55 -13.4 195.8 -13.2 192.2 -12.85 187.75 -13 184.75 -13.05 179.75 -13.45
L 175.85 -13.75
Q 173.75 -13.9 171.95 -14.1 171.25 -14.1 170.5 -14.25 170.45 -14.3 170.4 -14.3 169.05 -14.65 166.65 -15.4 164.2 -16.25 162.95 -16.6 157.1 -18.2 152.1 -17.5 149.3 -17.1 146.85 -15.95 144.35 -14.65 142.85 -12.7 141.35 -10.9 140.55 -8.05
M 152.2 -14.2
Q 153 -14.35 153.85 -14.5
L 165.4 -12.5
Q 169.3 -11.8 171.25 -11.55 175.35 -10.8 180.35 -10.55 182.6 -10.45 186.05 -10.4 184.8984375 -9.9115234375 183.75 -9.5 183.619921875 -9.4205078125 183.5 -9.4 181.4556640625 -8.575 179.4 -7.9 177.4 -7.25 176.3 -7.1 174.75 -6.8 172.2 -6.8 169.85 -6.75 168.7 -6.8 166.45 -7.05 165.3 -7.05 163.2 -7 161.35 -6.4 161.702734375 -6.4 162 -6.45 157.952734375 -5.91328125 155.5 -4 153.55 -2.5 153 -0.35 152.45 1.9 153.75 3.6 155 5.05 157.2 5.35
L 158.45 4.85 159.75 4.4 159.7 4
Q 159.75 3.85 159.8 3.8 160.25 3.15 160.7 2.85 161.1 2.65 162.35 2.6 164.3568359375 2.5787109375 166.35 2.45 167.5 2.45 168.5 2.35 169.35 2.3 170.35 2.1 169.67265625 2.16953125 168.95 2.2 174.9794921875 1.5951171875 180.85 -0.05 183.15 -0.65 183.25 -0.65 184.65 -1 185.75 -1.05 187.45 -1.1 189.75 -0.35 189.8 -0.3 189.9 -0.25 195.15 2.8 200.95 4.3 199.731640625 4.8583984375 198.15 5.8 196.6208984375 6.770703125 194.75 8.1 190.2 11.45 187.15 11.95 186.1 12.1 184.65 12 184.55 11.95 182.15 11.8 173.5 11 164.95 12.25 163.25 12.45 162.15 12.2 161.6 12 161.05 11.8
L 161 11.45
Q 160.85 11.4 160.7 11.35 159.2 10.85 158.45 10.65 158.15 10.55 157.8 10.45 155.8 11.05 154.95 12.65 154.301953125 13.8224609375 154.4 15.05 154.4529296875 15.306640625 154.5 15.55 154.628515625 16.0517578125 154.85 16.55 154.8845703125 16.617578125 154.9 16.65 155.85 18.7 157.95 19.8 161.6 21.7 167.55 20.9 168.2 20.75 169.7 20.5 169.9 20.45 170.05 20.45 180.1 19.5 191 20 190.5251953125 20.094921875 190.05 20.2
L 189.9 20.2 180.65 22.1
Q 175.35 23.1 172.9 24.15 171.8 24.6 169.4 25.85
L 163.25 29.05
Q 162.75 29.35 162.45 29.7
L 162.4 29.75
Q 159.4 30.55 156.6 30.4 153.35 30.3 151.1 28.85 148.85 27.4 147.3 24.15 146.4 22.35 144.85 18.55 142.8 14.6 139.3 12.9 137.4 11.9 135.15 11.75 134.31171875 11.694140625 133.5 11.75
L 133.5 11.05 116.8 11.9
Q 115.4515625 11.95390625 114.65 11.65 114.4248046875 11.671875 114.15 11.7 59.5109375 17.834375 2.65 25.8
L 2.35 25.25
Q 3.85 24.3 5.95 23.75 7.2 23.4 9.95 23 62.280859375 15.3728515625 114.95 10.2 116.4658203125 9.6501953125 118.9 9.45 126.4029296875 8.6998046875 131.05 8.7 132.3232421875 8.5869140625 133.55 8.45
L 133.55 8.1
Q 134.0328125 8.06171875 134.5 7.95 134.6001953125 7.9244140625 134.7 7.9 136.19921875 7.4857421875 137.45 6.7 137.9267578125 6.4236328125 138.35 6.1 141.45 3.8 142.75 -0.45 143.65 -4.4 144.2 -6.35 145.2 -9.85 147.15 -11.65 149.05 -13.45 152.2 -14.2 Z"/>

<path fill="#FFFFFF" stroke="none" d="
M 189.1 20.35
L 189.9 20.2 190.05 20.2
Q 190.5251953125 20.094921875 191 20 180.1 19.5 170.05 20.45 169.9 20.45 169.7 20.5 168.2 20.75 167.55 20.9 161.6 21.7 157.95 19.8 155.85 18.7 154.9 16.65 154.8845703125 16.617578125 154.85 16.55 154.628515625 16.0517578125 154.5 15.55 154.4529296875 15.306640625 154.4 15.05 154.416015625 15.1357421875 154.4 15.2 154.05 16.45 154.75 18.1 154.85 18.35 156.25 20.85 156.75 21.7 157.1 21.85 157.2 21.9 158.15 21.9 159.5 21.8 162.95 22.35 166 22.7 169.05 22.5 172.35 22.2 178.95 20.9 184.3373046875 20.035546875 189.1 20.35
M 185.75 -1.05
Q 184.65 -1 183.25 -0.65 183.15 -0.65 180.85 -0.05 174.9794921875 1.5951171875 168.95 2.2 169.67265625 2.16953125 170.35 2.1 169.35 2.3 168.5 2.35 167.5 2.45 166.35 2.45 164.3568359375 2.5787109375 162.35 2.6 161.1 2.65 160.7 2.85 160.25 3.15 159.8 3.8 159.75 3.85 159.7 4
L 159.75 4.4 158.45 4.85
Q 159.226953125 5.4 160.85 5.4 172.6 5.35 184.35 2.65 186.2 2.2 187.35 2.25 188.8 2.3 190.65 3.1
L 198.15 5.8
Q 199.731640625 4.8583984375 200.95 4.3 195.15 2.8 189.9 -0.25 189.8 -0.3 189.75 -0.35 187.45 -1.1 185.75 -1.05
M 153.85 -14.5
Q 153 -14.35 152.2 -14.2 149.05 -13.45 147.15 -11.65 145.2 -9.85 144.2 -6.35 143.65 -4.4 142.75 -0.45 141.45 3.8 138.35 6.1 137.9267578125 6.4236328125 137.45 6.7 139.31015625 6.2306640625 140.95 5.15 143.15 3.65 144.4 1.4 145 0.35 146.45 -3.8 147.6 -7.1 149.15 -8.6 151.3 -10.55 155.45 -11.1 159.3 -11.55 165.15 -10.75 174.85 -9.45 174.9 -9.45 178.266796875 -9.2005859375 183.5 -9.4 183.619921875 -9.4205078125 183.75 -9.5 184.8984375 -9.9115234375 186.05 -10.4 182.6 -10.45 180.35 -10.55 175.35 -10.8 171.25 -11.55 169.3 -11.8 165.4 -12.5
L 153.85 -14.5 Z"/>

<path fill="#0099FF" stroke="none" d="
M 149.15 -8.6
Q 147.6 -7.1 146.45 -3.8 145 0.35 144.4 1.4 143.15 3.65 140.95 5.15 139.31015625 6.2306640625 137.45 6.7 136.19921875 7.4857421875 134.7 7.9 134.6001953125 7.9244140625 134.5 7.95 134.0328125 8.06171875 133.55 8.1
L 133.55 8.45
Q 132.3232421875 8.5869140625 131.05 8.7 126.4029296875 8.6998046875 118.9 9.45 116.4658203125 9.6501953125 114.95 10.2 62.280859375 15.3728515625 9.95 23 7.2 23.4 5.95 23.75 3.85 24.3 2.35 25.25
L 2.65 25.8
Q 59.5109375 17.834375 114.15 11.7 114.4248046875 11.671875 114.65 11.65 115.4515625 11.95390625 116.8 11.9
L 133.5 11.05 133.5 11.75
Q 134.31171875 11.694140625 135.15 11.75 137.4 11.9 139.3 12.9 142.8 14.6 144.85 18.55 146.4 22.35 147.3 24.15 148.85 27.4 151.1 28.85 153.35 30.3 156.6 30.4 159.4 30.55 162.4 29.75
L 162.45 29.7
Q 162.75 29.35 163.25 29.05
L 169.4 25.85
Q 171.8 24.6 172.9 24.15 175.35 23.1 180.65 22.1
L 189.9 20.2 189.1 20.35
Q 184.3373046875 20.035546875 178.95 20.9 172.35 22.2 169.05 22.5 166 22.7 162.95 22.35 159.5 21.8 158.15 21.9 157.2 21.9 157.1 21.85 156.75 21.7 156.25 20.85 154.85 18.35 154.75 18.1 154.05 16.45 154.4 15.2 154.416015625 15.1357421875 154.4 15.05 154.301953125 13.8224609375 154.95 12.65 155.8 11.05 157.8 10.45 158.15 10.55 158.45 10.65 159.2 10.85 160.7 11.35 160.85 11.4 161 11.45
L 161.05 11.8
Q 161.6 12 162.15 12.2 163.25 12.45 164.95 12.25 173.5 11 182.15 11.8 184.55 11.95 184.65 12 186.1 12.1 187.15 11.95 190.2 11.45 194.75 8.1 196.6208984375 6.770703125 198.15 5.8
L 190.65 3.1
Q 188.8 2.3 187.35 2.25 186.2 2.2 184.35 2.65 172.6 5.35 160.85 5.4 159.226953125 5.4 158.45 4.85
L 157.2 5.35
Q 155 5.05 153.75 3.6 152.45 1.9 153 -0.35 153.55 -2.5 155.5 -4 157.952734375 -5.91328125 162 -6.45 161.702734375 -6.4 161.35 -6.4 163.2 -7 165.3 -7.05 166.45 -7.05 168.7 -6.8 169.85 -6.75 172.2 -6.8 174.75 -6.8 176.3 -7.1 177.4 -7.25 179.4 -7.9 181.4556640625 -8.575 183.5 -9.4 178.266796875 -9.2005859375 174.9 -9.45 174.85 -9.45 165.15 -10.75 159.3 -11.55 155.45 -11.1 151.3 -10.55 149.15 -8.6 Z"/>
</g>

<g id="triten_wJavalin_Arm_1_Layer0_0_FILL">
<path fill="#000000" stroke="none" d="
M 22.5 -0.1
Q 21.45 -0.5 19.4 -1 15.4 -1.75 10 -1.65 5.85 -1.5 3.7 -0.6 3.1 -0.4 2.8 -0.1 2.5 0.35 2.65 0.8 1.25 0.95 -0.15 1.3 0.05 2.35 2.1 2.45 9.55 2.8 13.7 4.6
L 18.85 7
Q 19.85 7.45 21 8.35
L 23.65 10.05
Q 27.6 12.8 29.05 14.3 27.8 15.1 27 16.6 26 18.55 26.4 20.45 26.7 22.45 28.35 24.1 29.75 25.5 31.85 26.35 34.55 27.45 36.85 26.9 38.55 26.35 40.7 24.6 42.55 22.9 43 21.45 43.8 18.6 41.2 14.7 40.85 14.2 40.65 13.85 40.25 11.25 37.9 8.75 36.6 7.3 33.25 5.15 29.65 2.9 27.65 1.95 25.15 0.7 22.5 -0.1
M 34.85 9.55
Q 36.7 10.85 37.3 11.7 37.65 12.25 38.05 13.15 38.2 13.55 38.25 13.75 38.2 14 38.1 14.2 37.8 15.05 38.1 15.85 38.3 16.35 38.95 17.3 39.5 18.2 39.65 18.75 39.95 20.1 39.3 21.4 38.6 22.6 37.3 23.2 37.25 23.25 37.15 23.25 34.9 24.2 32.1 22.95 30.1 21.95 29.45 20.5 29.05 19.6 29.1 18.65 29.2 17.6 29.9 17 30.25 16.6 31.2 16 31.85 16.25 32.55 16.05 33.05 15.9 33.35 15.35 33.7 14.85 33.6 14.25 33.5 13.5 32.7 12.7 29.7 9.2 23.65 6.15 22.5 5.6 21.2 5 15.1 2.2 10.8 1.25 10.565625 1.15625 10.3 1.15 11.603515625 1.15 11.85 1.15 16.5 1.35 19.9 2.15 23.55 3 27.65 5.15 30.7 6.75 34.85 9.55 Z"/>

<path fill="#9ECFD5" stroke="none" d="
M 29.1 18.65
Q 29.05 19.6 29.45 20.5 30.1 21.95 32.1 22.95 34.9 24.2 37.15 23.25 36.75 22.6 36.55 21.7
L 34.85 15.35
Q 34.45 13.85 34 13.25 33.5 12.4 32.5 11.75 28.4 8.4 23.65 6.15 29.7 9.2 32.7 12.7 33.5 13.5 33.6 14.25 33.7 14.85 33.35 15.35 33.05 15.9 32.55 16.05 31.85 16.25 31.2 16 30.25 16.6 29.9 17 29.2 17.6 29.1 18.65 Z"/>

<path fill="#2F7078" stroke="none" d="
M 37.3 11.7
Q 36.7 10.85 34.85 9.55 30.7 6.75 27.65 5.15 23.55 3 19.9 2.15 16.5 1.35 11.85 1.15 11.603515625 1.15 10.3 1.15 10.565625 1.15625 10.8 1.25 15.1 2.2 21.2 5 22.5 5.6 23.65 6.15 28.4 8.4 32.5 11.75 33.5 12.4 34 13.25 34.45 13.85 34.85 15.35
L 36.55 21.7
Q 36.75 22.6 37.15 23.25 37.25 23.25 37.3 23.2 38.6 22.6 39.3 21.4 39.95 20.1 39.65 18.75 39.5 18.2 38.95 17.3 38.3 16.35 38.1 15.85 37.8 15.05 38.1 14.2 38.2 14 38.25 13.75 38.2 13.55 38.05 13.15 37.65 12.25 37.3 11.7 Z"/>
</g>
</defs>

<g transform="matrix( 1, 0, 0, 1, 42.15,63.15) ">
<g transform="matrix( 1, 0, 0, 1, 0,0) ">
<use xlink:href="#triten_wJavalin_Character_8_Layer1_0_FILL"/>
</g>

<g transform="matrix( 1, 0, 0, 1, 5.45,-1.55) ">
<g transform="matrix( 1, 0, 0, 1, 116.7,121.9) ">
<g transform="matrix( 1, 0, 0, 1, 0,0) ">
<use xlink:href="#triten_wJavalin_Arm_0_Layer0_0_FILL"/>
</g>
</g>

<g transform="matrix( 1, 0, 0, 1, 70.65,0) ">
<g transform="matrix( 1, 0, 0, 1, 0,0) ">
<use xlink:href="#triten_wJavalin_Head_0_Layer0_0_FILL"/>
</g>
</g>

<g transform="matrix( 1, 0, 0, 1, 84.5,121.7) ">
<g transform="matrix( 1, 0, 0, 1, 0,0) ">
<use xlink:href="#triten_wJavalin_Body_0_Layer2_0_FILL"/>
</g>

<g transform="matrix( 1, 0, 0, 1, 0,0) ">
<use xlink:href="#triten_wJavalin_Body_0_Layer1_0_FILL"/>
</g>

<g transform="matrix( 1, 0, 0, 1, 0,0) ">
<use xlink:href="#triten_wJavalin_Body_0_Layer0_0_FILL"/>
</g>
</g>

<g transform="matrix( 0.999908447265625, 0.013519287109375, -0.013519287109375, 0.999908447265625, 7.05,98) ">
<g transform="matrix( 1, 0, 0, 1, 0,0) ">
<use xlink:href="#triten_wJavalin_weapon_0_Layer1_0_FILL"/>
</g>
</g>

<g transform="matrix( -0.80072021484375, 0.180419921875, -0.219818115234375, -0.97552490234375, 113.35,127.8) ">
<g transform="matrix( 1, 0, 0, 1, 0,0) ">
<use xlink:href="#triten_wJavalin_Arm_1_Layer0_0_FILL"/>
</g>
</g>
</g>
</g>
</svg>
