
<svg xmlns="http://www.w3.org/2000/svg" version="1.1" xmlns:xlink="http://www.w3.org/1999/xlink" preserveAspectRatio="none" x="0px" y="0px" width="1000px" height="1000px" viewBox="0 0 1000 1000">
<defs>
<g id="Gargantuan_arm_2_Layer0_0_FILL">
<path fill="#000000" stroke="none" d="
M 100 81.55
Q 98.127734375 92.45625 105.55 98.6 114.69375 106.1685546875 122.55 101.95 142.86484375 87.4779296875 130.5 75.15 118.1423828125 62.8693359375 114.5 65.3 118.615625 55.082421875 108.1 48.4 104.5013671875 -4.08828125 71.25 -2.75 38.0482421875 -1.409765625 29.7 14.9 21.3482421875 31.2060546875 21.9 61.25
L 27.95 66.8
Q 34.1365234375 71.1087890625 35.55 66.95 37.0044921875 62.846875 37.75 68.65 45.521875 81.0724609375 50.1 76.7 54.678125 72.3775390625 54.3 68.45 58.6453125 84.4828125 66.6 78.4
L 74.45 72.45
Q 79.6587890625 75.676953125 84.2 73.95 89.163671875 87.3255859375 100 81.55
M 115.5 73.15
L 117.9 72.05 123.5 80.85
Q 127.6 88.65 119.55 92.95 118.4 93.55 117.25 94.2 111.3 90.15 109.15 83.35
L 113.7 84.1 114.65 83.9 114.1 84.55
Q 114.8 87.7 117 89.75 117.15 89.9 117.35 89.95 119.9 89 120.45 85.6 120.5 85.2 120.45 84.75
L 117.65 81.8
Q 119.05 79 117.85 76.25 117 74.4 115.5 73.15
M 106.15 69.4
Q 107.05 69.75 107.7 70.6 111 73.3 112.6 77.25 112.8 77.8 113 78.35 105.75 77.9 102.65 68.7 104.55 68.7 106.15 69.4
M 101.95 54.95
L 103.4 56.45
Q 106.55 59.05 106.4 63.3 106.35 63.9 106.3 64.5
L 101.25 63.85
Q 96.95 66.4 98.45 71 98.75 72 99.15 73 92.95 75.95 89.75 68.95 98.5 64.25 101.95 54.95
M 44.65 23
Q 46.3 27.2 43 30.8
L 38.2 31.1
Q 37.1 24.55 43.55 23.05 44.05 22.9 44.65 23
M 40.15 19.55
Q 38.95 19.75 37.85 20.4 69.95 -8.05 94.75 29.2 104.95 63.8 73.15 60.9 72.45 60.75 71.75 60.55
L 69.15 60.8
Q 66.15 69.4 59.95 68.4 59.6 68.5 59.3 68.3
L 58.85 59.15 57.35 58.35 56.1 58.65 50.5 65.15 44.75 63.5 42.7 62.1 41.8 53.65 39.65 53.25 38.25 54.45
Q 36.8 58.9 32.15 58.6 31.45 58.45 30.8 58.3
L 29.95 56.9 32.75 48.7
Q 29.95 42.45 31.25 35.85 32.1 31.7 34.1 28 39.6 41.65 46.15 27.4 50.3 18.45 40.15 19.55
M 62.4 18.3
Q 58.2 18.4 57.25 23.3 49.75 60.8 85.9 50.4 99.15 17.4 62.4 18.3
M 71.1 47.05
Q 51.95 39.5 64.45 20.95 93.2 23.65 77.2 45.65 75.05 48.65 71.1 47.05 Z"/>

<path fill="#6C5477" stroke="none" d="
M 60.2 67.95
Q 59.9 68.25 59.3 68.3 59.6 68.5 59.95 68.4 66.15 69.4 69.15 60.8 63.9 63.3 60.2 67.95
M 45.15 63.15
Q 45 63.35 44.75 63.5
L 50.5 65.15 56.1 58.65
Q 49.3 56.5 45.15 63.15
M 71.75 60.55
Q 72.45 60.75 73.15 60.9 104.95 63.8 94.75 29.2 97.6 53.7 74.8 60 73.3 60.35 71.75 60.55
M 38.25 54.45
Q 34.65 50.5 31.25 55.05 30.6 56 29.95 56.9
L 30.8 58.3
Q 31.45 58.45 32.15 58.6 36.8 58.9 38.25 54.45
M 101.25 63.85
L 103.4 56.45 101.95 54.95
Q 98.5 64.25 89.75 68.95 92.95 75.95 99.15 73 98.75 72 98.45 71 96.95 66.4 101.25 63.85
M 114.1 84.55
L 113.7 84.1 109.15 83.35
Q 111.3 90.15 117.25 94.2 118.4 93.55 119.55 92.95 127.6 88.65 123.5 80.85
L 120.45 84.75
Q 120.5 85.2 120.45 85.6 119.9 89 117.35 89.95 117.15 89.9 117 89.75 114.8 87.7 114.1 84.55 Z"/>

<path fill="#B78DCB" stroke="none" d="
M 37.85 20.4
Q 38.95 19.75 40.15 19.55 50.3 18.45 46.15 27.4 39.6 41.65 34.1 28 32.1 31.7 31.25 35.85 29.95 42.45 32.75 48.7
L 29.95 56.9
Q 30.6 56 31.25 55.05 34.65 50.5 38.25 54.45
L 39.65 53.25 41.8 53.65 42.7 62.1 44.75 63.5
Q 45 63.35 45.15 63.15 49.3 56.5 56.1 58.65
L 57.35 58.35 58.85 59.15 59.3 68.3
Q 59.9 68.25 60.2 67.95 63.9 63.3 69.15 60.8
L 71.75 60.55
Q 73.3 60.35 74.8 60 97.6 53.7 94.75 29.2 69.95 -8.05 37.85 20.4
M 57.25 23.3
Q 58.2 18.4 62.4 18.3 99.15 17.4 85.9 50.4 49.75 60.8 57.25 23.3
M 103.4 56.45
L 101.25 63.85 106.3 64.5
Q 106.35 63.9 106.4 63.3 106.55 59.05 103.4 56.45
M 107.7 70.6
Q 107.05 69.75 106.15 69.4 104.55 68.7 102.65 68.7 105.75 77.9 113 78.35 112.8 77.8 112.6 77.25 111 73.3 107.7 70.6
M 113.7 84.1
L 114.1 84.55 114.65 83.9 113.7 84.1
M 117.9 72.05
L 115.5 73.15
Q 117 74.4 117.85 76.25 119.05 79 117.65 81.8
L 120.45 84.75 123.5 80.85 117.9 72.05 Z"/>

<path fill="#CC33FF" stroke="none" d="
M 64.45 20.95
Q 51.95 39.5 71.1 47.05 75.05 48.65 77.2 45.65 93.2 23.65 64.45 20.95
M 43 30.8
Q 46.3 27.2 44.65 23 44.05 22.9 43.55 23.05 37.1 24.55 38.2 31.1
L 43 30.8 Z"/>
</g>
</defs>

<g transform="matrix( 0.662353515625, 0, 0, 0.662353515625, 419.05,465.2) ">
<g transform="matrix( 0.99896240234375, -0.0276031494140625, 0.0276031494140625, 0.99896240234375, 41.6,-89.55) ">
<g transform="matrix( 1, 0, 0, 1, 0,0) ">
<use xlink:href="#Gargantuan_arm_2_Layer0_0_FILL"/>
</g>
</g>
</g>
</svg>
