
<svg xmlns="http://www.w3.org/2000/svg" version="1.1" xmlns:xlink="http://www.w3.org/1999/xlink" preserveAspectRatio="none" x="0px" y="0px" width="230px" height="230px" viewBox="0 0 230 230">
<defs>
<linearGradient id="Gradient_1" gradientUnits="userSpaceOnUse" x1="71.425" y1="42.824999999999996" x2="75.77499999999999" y2="89.775" spreadMethod="pad">
<stop  offset="0%" stop-color="#FFFFFF"/>

<stop  offset="100%" stop-color="#353535"/>
</linearGradient>

<linearGradient id="Gradient_2" gradientUnits="userSpaceOnUse" x1="52.7875" y1="27.0375" x2="66.6125" y2="52.1625" spreadMethod="pad">
<stop  offset="0%" stop-color="#FFFFFF"/>

<stop  offset="100%" stop-color="#353535"/>
</linearGradient>

<g id="dog_chain_link_2_0_Layer0_0_FILL">
<path fill="#000000" stroke="none" d="
M 33.3 19.9
Q 34.522265625 14.899609375 36.15 6.9 37.8228515625 -1.0482421875 25.8 -5.35 5.1287109375 -5.2748046875 -3.45 -3.95 -7.146875 4.23671875 -4.95 14.75 -2.7087890625 25.300390625 2.15 25.35 7.062109375 25.45625 19.6 25.2 32.1326171875 24.944140625 33.3 19.9
M 23.25 4.4
Q 27.577734375 8.6443359375 22.75 14.9
L 4.7 14.1
Q 2.79609375 9.0005859375 4.3 5.7 4.9 5.45 11.9 4.9 19.5 4.25 23.25 4.4
M 8.2 7.65
Q 6.6 9.3 7.85 11 8.6 11.95 20.15 10.8
L 20.9 8.3
Q 14.6 6.05 8.2 7.65 Z"/>

<path fill="#999999" stroke="none" d="
M 22.75 14.9
Q 27.577734375 8.6443359375 23.25 4.4 19.5 4.25 11.9 4.9 4.9 5.45 4.3 5.7 2.79609375 9.0005859375 4.7 14.1
L 22.75 14.9
M 7.85 11
Q 6.6 9.3 8.2 7.65 14.6 6.05 20.9 8.3
L 20.15 10.8
Q 8.6 11.95 7.85 11 Z"/>
</g>

<g id="dog_chain_link_1_0_Layer0_0_FILL">
<path fill="#000000" stroke="none" d="
M 24.85 0.15
Q 23.3 -0.15 20.95 0.15 13.7 0.75 5 1.05 2.2 1.15 1.1 2 0 3 0 4.75 0.05 6.45 1.15 7.65 3.55 10.55 8.55 10.1 10 9.95 12.6 9.5 15.3 9 16.6 8.95 17.5 8.85 19.25 8.9 21 8.95 21.9 8.85 25.05 8.6 26.75 7.05 27.75 6.1 28.15 4.8 28.5 3.45 27.9 2.3 27.1 0.65 24.85 0.15
M 22.9 3.15
Q 24.9 3 25.05 4.1 24.2 4.85 22.85 5.3 22.05 5.55 20.3 5.9 17.9 6.3 16.45 6.3 15.2 6.4 12.45 6.3 9.9 6.15 8.55 6.25 6.75 6.45 5.9 6.35 4.5 6.25 3.75 5.4 3.55 5.2 3.9 4.95 4.15 4.7 4.5 4.7 13.55 3.8 22.9 3.15 Z"/>

<path fill="#999999" stroke="none" d="
M 25.05 4.1
Q 24.9 3 22.9 3.15 13.55 3.8 4.5 4.7 4.15 4.7 3.9 4.95 3.55 5.2 3.75 5.4 4.5 6.25 5.9 6.35 6.75 6.45 8.55 6.25 9.9 6.15 12.45 6.3 15.2 6.4 16.45 6.3 17.9 6.3 20.3 5.9 22.05 5.55 22.85 5.3 24.2 4.85 25.05 4.1 Z"/>
</g>

<g id="Symbol_42_0_Layer0_0_FILL">
<path fill="#000000" stroke="none" d="
M 50.4 -2.15
Q 37.64609375 -3.868359375 24.35 -1 11.0505859375 1.913671875 4.95 8.3 -1.165625 14.687109375 -4.15 25.45 -7.1234375 36.209375 -0.95 41.05 5.1 40.4 8.55 40.1 14.9 39.55 14.95 40.45 15.216015625 42.7140625 21.8 42.6 31.7484375 43.7201171875 34.85 38.15 36.4 37.8 42.9 38.35 50.29453125 38.9525390625 61.85 40.45 73.461328125 41.9490234375 73.2 34.9 72.983984375 27.896875 68.05 13.75 63.1654296875 -0.3935546875 50.4 -2.15
M 43.9 4.3
Q 52.3 6.05 56.3 13.7 62.1 24.65 64.55 37 64.35 37.1 63.2 37.3 62 37.5 61.45 37.55 60.65 37.65 59.9 37.9 55.45 39.2 52.85 35.45 41.1 34.1 28.75 35.8 28.4 36.2 28.15 36.65 26.25 39.85 22.4 39.45
L 17.7 39.45
Q 17.85 35 18 30.55 17.7 30.8 16.95 31.95 16.1 33.25 15.95 33.95
L 15.55 35.05
Q 14.55 34.95 12.05 35.5 8.7 36.3 7.65 37.8
L 5.65 38.1 3.05 37.9
Q 1.2 25.3 7.8 14.6 13.4 10.55 15.2 9.15 17.75 7.75 20.4 6.6 31.65 1.5 43.9 4.3 Z"/>

<path fill="#FF7D3C" stroke="none" d="
M 15.95 33.95
L 15.85 33.15 6.4 32.85
Q 6.3 33 6.05 35.05 5.7 37.15 5.65 38.1
L 7.65 37.8
Q 8.7 36.3 12.05 35.5 14.55 34.95 15.55 35.05
L 15.95 33.95
M 56.3 13.7
Q 52.3 6.05 43.9 4.3 31.65 1.5 20.4 6.6 17.75 7.75 15.2 9.15 20.3 6.65 21.55 12.15
L 22.4 39.45
Q 26.25 39.85 28.15 36.65 28.4 36.2 28.75 35.8 41.1 34.1 52.85 35.45 57.3 28.9 61.1 36.7 61.3 37.1 61.45 37.55 62 37.5 63.2 37.3 64.35 37.1 64.55 37 62.1 24.65 56.3 13.7 Z"/>

<path fill="#993300" stroke="none" d="
M 15.2 9.15
Q 13.4 10.55 7.8 14.6 1.2 25.3 3.05 37.9
L 5.65 38.1
Q 5.7 37.15 6.05 35.05 6.3 33 6.4 32.85
L 15.85 33.15 15.95 33.95
Q 16.1 33.25 16.95 31.95 17.7 30.8 18 30.55 17.85 35 17.7 39.45
L 22.4 39.45 21.55 12.15
Q 20.3 6.65 15.2 9.15
M 52.85 35.45
Q 55.45 39.2 59.9 37.9 60.65 37.65 61.45 37.55 61.3 37.1 61.1 36.7 57.3 28.9 52.85 35.45 Z"/>
</g>

<g id="Symbol_40_0_Layer0_0_FILL">
<path fill="#000000" stroke="none" d="
M 50.65 -0.95
L 48.55 -5.95
Q 26.65 -1.05 19.4 1.2 5.9 5.6 2.15 18.8 -1.15 30.25 2.85 40.95 8.05 54.8 22.55 57.1 32.696875 58.8517578125 45.65 52.15 58.613671875 45.494140625 59.45 35.3 60.326953125 25.106640625 57.25 11.15 54.7603515625 11.7158203125 52.3 12.5 49.8396484375 13.3341796875 49.3 14.2
L 49.2 7.65 50.65 -0.95
M 47.4 1.2
Q 47.15 4.5 47.6 10.75 48 16.55 48.25 16.65 50.4 16.55 52.6 16.5
L 53.5 25.3 47.55 23.2
Q 46.698046875 25.286328125 41.85 29.6 38.38125 28.7130859375 35.3 27.5 32.2740234375 26.3421875 28.85 24.35 25.49375 28.250390625 22.55 32.65 15.15 30.1 13.05 28.55
L 11.55 30.7 4.4 18.15
Q 8.55 10.7 16.4 6.3 30.9 -2.05 47.4 1.2
M 49.9 37.65
Q 47.3 42.75 42.45 46.25 32.35 53.4 20.75 48.7 10.4 41.65 7.75 36.8 8.05 36.75 3.4 20.45
L 11.1 34.7 13.3 32.25
Q 17.85 35.3 23.15 35.75
L 29.75 27.85
Q 36.85 30.15 42.1 32.2 45.443359375 30.413671875 47.6 26.2 50.65 27 53.2 28.9 53.05 29.7 52.9 30.5 52.25 34.45 49.9 37.65
M 2.15 33.25
L 2.8 28.9
Q 3.3 30.1 5.05 32.55 9.3 50.6 27.5 52.15 34.25 52.95 40.3 50.05 46.3 47.35 50.05 41.65 45.95 52.7 34.3 54.85 22.75 57.05 12.6 50.95 2.6 45 2.15 33.25 Z"/>

<path fill="#0099FF" stroke="none" d="
M 2.8 28.9
L 2.15 33.25
Q 2.6 45 12.6 50.95 22.75 57.05 34.3 54.85 45.95 52.7 50.05 41.65 46.3 47.35 40.3 50.05 34.25 52.95 27.5 52.15 9.3 50.6 5.05 32.55 3.3 30.1 2.8 28.9 Z"/>

<path fill="#993300" stroke="none" d="
M 47.6 26.2
Q 45.443359375 30.413671875 42.1 32.2 36.85 30.15 29.75 27.85
L 23.15 35.75
Q 17.85 35.3 13.3 32.25
L 11.1 34.7 3.4 20.45
Q 8.05 36.75 7.75 36.8 10.4 41.65 20.75 48.7
L 29.3 39.4
Q 34.35 41.6 34.5 41.5 41.25 35.3 49.9 37.65 52.25 34.45 52.9 30.5 53.05 29.7 53.2 28.9 50.65 27 47.6 26.2 Z"/>

<path fill="#FF7D3C" stroke="none" d="
M 42.45 46.25
Q 47.3 42.75 49.9 37.65 41.25 35.3 34.5 41.5 34.35 41.6 29.3 39.4
L 20.75 48.7
Q 32.35 53.4 42.45 46.25 Z"/>

<path fill="#660000" stroke="none" d="
M 47.6 10.75
Q 47.15 4.5 47.4 1.2 30.9 -2.05 16.4 6.3 8.55 10.7 4.4 18.15
L 11.55 30.7 13.05 28.55
Q 15.15 30.1 22.55 32.65 25.49375 28.250390625 28.85 24.35 32.2740234375 26.3421875 35.3 27.5 38.38125 28.7130859375 41.85 29.6 46.698046875 25.286328125 47.55 23.2
L 53.5 25.3 52.6 16.5
Q 50.4 16.55 48.25 16.65 48 16.55 47.6 10.75 Z"/>
</g>

<g id="Symbol_41_2_Layer1_0_FILL">
<path fill="#000000" stroke="none" d="
M 102.5 -18
Q 101.2275390625 -14.0984375 100.95 -0.05 100.7224609375 14.0484375 98.25 12.95 63.285546875 4.7029296875 26.1 26.25 25.2236328125 21.171875 24.45 16.1 22.4759765625 2.65 19.25 -3.1 7.3431640625 11.0240234375 0.8 24.3 -5.7013671875 37.634375 -6.6 47.05 -7.489453125 56.4578125 -4.05 60.85 -0.5671875 65.2826171875 15.2 67.4 30.972265625 69.5197265625 33.05 70.6 33.05 68.85 36.2 75.3 39.15 81.25 39.55 81.4 40 81.5 42.3 79.25 44.55 77 44.75 77.1 48 79.4 50.95 82.45 51.9 83.4 54.4 84.6 57.15 85.95 57.95 85.5 58.7 85.2 62.1 79.55 65.5 73.95 65.65 73.9 65.9 73.85 71.55 77.75 77.25 81.7 78.25 81.6 79.55 81.5 83.5 75.8 87.45 70 87.7 69.95 87.9943359375 69.9111328125 96.55 77.25 105.158984375 84.576171875 106.65 82.95 108.140625 81.3861328125 110 68.95 111.8552734375 56.501171875 111.45 54.15 112.692578125 53.650390625 117.95 50.45 123.2169921875 47.25859375 130.3 41.35 137.4255859375 35.4333984375 132.4 24.1 127.383203125 12.825390625 102.5 -18
M 124.15 29.85
Q 124.6 31.7 124.35 32.85 123.95 34.55 121.75 36.6 121.25 37.05 120.75 37.5 119.05 39 111.85 43 104.5 47.1 103.7 47.7 103.65 47.75 102.9 42.55 102.2640625 38.4298828125 101.45 33.45 101.15 31.55 100.15 27.75 99.25 24.1 99 23.6 106.85 20.55 107.75 19 107.95 18.65 108.35 11.8 108.75 5.3 109 5.6 110.45 7.1 116.75 16.85 123.65 27.45 124.15 29.85
M 82 22.25
Q 85.45 22.15 87.65 22.55 95.85 25.65 96.05 25.45 99.4 40.3 100.7 50.2 101.2892578125 54.974609375 101.55 59.45 101.946875 66.0337890625 101.65 72 101.55 73.6 101.4 75.15 100.55 74.45 95.1 70.75 88.8 66.55 88 66.55 86.7 66.6 82.45 72.3
L 78.1 78.2
Q 77.85 78.3 71.55 74.2 65.3 70.1 64.35 70.6 63.95 70.8 60.35 76.7 56.75 82.55 56.45 82.55 55.8 82.65 51.15 78.25
L 44.35 73.05
Q 43.15 72.75 41.95 73.2 40.7 73.65 40.25 74.7
L 35.8 61.35
Q 35 58.35 33.5 50.1 32.1 42.25 31.9 40.05 31.8 39.2 32.35 37.3 32.9 35.4 33.4 35 33.45 34.95 38.3 32.1
L 38.35 32.05
Q 57.4 22.75 82 22.25
M 11.2 24.6
Q 14.65 17.3 15.25 16.45
L 16.5 26.85
Q 17.7 37.05 18.05 37.3 18.55 37.7 23.35 37.3 25.7 37.05 27.95 36.8 27.85 37.6 28 39.6
L 31.65 59.95
Q 31.2 59.9 12.75 58.9 6 56.6 4.7 54.5 4.6244140625 54.3810546875 4.55 54.25 3.0548828125 51.4931640625 3.75 46.65 5.45 38.4 6.85 34.25 7.6 32.2 11.2 24.6 Z"/>

<path fill="#3333CC" stroke="none" d="
M 15.95 53.7
Q 14.35 53.5 11.5 53.8 8.4 54.15 8.4 54.8 8.35 55.25 10.05 56.8 11.7 58.3 12.75 58.9 31.2 59.9 31.65 59.95
L 28 39.6 24.45 54.2
Q 20.2 54.25 15.95 53.7
M 121.65 35.6
Q 122.15 34.2 121.95 33.85 121.4 33.1 102.9 42.55 103.65 47.75 103.7 47.7 104.5 47.1 111.85 43 119.05 39 120.75 37.5 121.2 36.95 121.65 35.6 Z"/>

<path fill="#0099FF" stroke="none" d="
M 15.25 16.45
Q 14.65 17.3 11.2 24.6 7.6 32.2 6.85 34.25 5.45 38.4 3.75 46.65 3.0548828125 51.4931640625 4.55 54.25 4.6244140625 54.3810546875 4.7 54.5 6 56.6 12.75 58.9 11.7 58.3 10.05 56.8 8.35 55.25 8.4 54.8 8.4 54.15 11.5 53.8 14.35 53.5 15.95 53.7 20.2 54.25 24.45 54.2
L 28 39.6
Q 27.85 37.6 27.95 36.8 25.7 37.05 23.35 37.3 18.55 37.7 18.05 37.3 17.7 37.05 16.5 26.85
L 15.25 16.45
M 124.35 32.85
Q 124.6 31.7 124.15 29.85 123.65 27.45 116.75 16.85 110.45 7.1 109 5.6 108.75 5.3 108.35 11.8 107.95 18.65 107.75 19 106.85 20.55 99 23.6 99.25 24.1 100.15 27.75 101.15 31.55 101.45 33.45 102.2640625 38.4298828125 102.9 42.55 121.4 33.1 121.95 33.85 122.15 34.2 121.65 35.6 121.2 36.95 120.75 37.5 121.25 37.05 121.75 36.6 123.95 34.55 124.35 32.85 Z"/>

<path fill="#666666" stroke="none" d="
M 46.15 49.25
Q 46.1193359375 49.155859375 46.1 49.05 38.9572265625 48.7486328125 35.55 45 31.784765625 40.85546875 32.35 38.9 32.9052734375 36.997265625 33.15 35.95
L 33.4 35
Q 32.9 35.4 32.35 37.3 31.8 39.2 31.9 40.05 32.1 42.25 33.5 50.1 35 58.35 35.8 61.35
L 40.25 74.7
Q 40.7 73.65 41.95 73.2 43.15 72.75 44.35 73.05
L 51.15 78.25
Q 50.5 75.9 47.1 58.8 45.5576171875 50.9216796875 46.3 49.2 46.23359375 49.2435546875 46.15 49.25 Z"/>

<path fill="url(#Gradient_1)" stroke="none" d="
M 92.45 41.45
Q 91.7478515625 39.694921875 90.35 36.6 89.2677734375 39.1763671875 83.35 41.85 71.4349609375 47.278125 46.3 49.2 45.5576171875 50.9216796875 47.1 58.8 50.5 75.9 51.15 78.25 55.8 82.65 56.45 82.55 56.75 82.55 60.35 76.7 63.95 70.8 64.35 70.6 65.3 70.1 71.55 74.2 77.85 78.3 78.1 78.2
L 82.45 72.3
Q 86.7 66.6 88 66.55 88.8 66.55 95.1 70.75 100.55 74.45 101.4 75.15 101.55 73.6 101.65 72 94.9 47.65 92.45 41.45
M 87.8 31.35
Q 88.05 31.9 88.15 32 87.604296875 30.804296875 87.55 30.75 87.55 30.85 87.8 31.35 Z"/>

<path fill="url(#Gradient_2)" stroke="none" d="
M 89.5 34.8
Q 88.6560546875 32.9978515625 88.15 32 88.05 31.9 87.8 31.35 87.55 30.85 87.55 30.75 86.9 29.8 85.5 28.8 82.6 26.85 78.75 26.8 64.9 26.7 61.8 26.9 58.05 27.2 48.55 29.45 40.75 31.3 38.35 32.05
L 38.3 32.1
Q 33.45 34.95 33.4 35
L 33.15 35.95
Q 32.9052734375 36.997265625 32.35 38.9 31.784765625 40.85546875 35.55 45 38.9572265625 48.7486328125 46.1 49.05 46.1193359375 49.155859375 46.15 49.25 46.23359375 49.2435546875 46.3 49.2 71.4349609375 47.278125 83.35 41.85 89.2677734375 39.1763671875 90.35 36.6 89.95078125 35.7677734375 89.5 34.8 Z"/>

<path fill="#FFFFFF" stroke="none" d="
M 87.65 22.55
Q 85.45 22.15 82 22.25 57.4 22.75 38.35 32.05 40.75 31.3 48.55 29.45 58.05 27.2 61.8 26.9 64.9 26.7 78.75 26.8 82.6 26.85 85.5 28.8 86.9 29.8 87.55 30.75 87.604296875 30.804296875 88.15 32 88.6560546875 32.9978515625 89.5 34.8 89.95078125 35.7677734375 90.35 36.6 91.7478515625 39.694921875 92.45 41.45 94.9 47.65 101.65 72 101.946875 66.0337890625 101.55 59.45 101.2892578125 54.974609375 100.7 50.2 99.4 40.3 96.05 25.45 95.85 25.65 87.65 22.55 Z"/>
</g>

<g id="Symbol_41_2_Layer0_0_FILL">
<path fill="#000000" stroke="none" d="
M 62.25 65.95
Q 69.45 64.2 69.35 63.8 67.75 57.1 57.8 56.45 56.5 56.15 51.9 56.9 47.45 57.6 47.3 57.9 48 58.35 54.1 59.95 60.35 61.5 61.4 62.1 60.95 62.3 56.15 65.25 51.15 68.3 51.05 68.55 56.9 67.3 62.25 65.95
M 92.35 52.7
Q 91.65 52.55 87.9 53.65 83.7 54.9 82.15 56.25 78.95 59.05 78.6 62.75 78.85 63.1 79.2 63.4 79.5 63.6 86.2 62.2 93.25 60.75 94.95 59.85 94.2 59.55 90.1 59.75 85.75 59.95 85.1 59.8 85.15 59.8 88.9 56.85 92.65 53.75 92.35 52.7
M 84.2 41.55
Q 88.1 38.6 87.1 39.1 82.7 41.35 78.55 42.75 72.75 44.75 62.55 46.65 58.55 47.35 56.55 47.55 47.5 48.35 47.55 48.45 47.65 48.75 53.4 49 59.6 49.3 62.75 48.7 73.2 46.75 79.4 44.75 80.4 44.4 84.2 41.55 Z"/>
</g>
</defs>

<g transform="matrix( 0.761688232421875, 0, 0, 0.761688232421875, 38.15,62.65) ">
<g transform="matrix( 1, 0, 0, 1, 6.25,84.35) ">
<g transform="matrix( 1, 0, 0, 1, 18.7,2.4) ">
<g transform="matrix( 0.1914215087890625, 0.5803375244140625, 0.5803375244140625, -0.1914215087890625, 111,53) ">
<g transform="matrix( 1, 0, 0, 1, 0,0) ">
<use xlink:href="#dog_chain_link_2_0_Layer0_0_FILL"/>
</g>
</g>

<g transform="matrix( 0.4604949951171875, -0.4017333984375, -0.4017333984375, -0.4604949951171875, 102.7,58.25) ">
<g transform="matrix( 1, 0, 0, 1, 0,0) ">
<use xlink:href="#dog_chain_link_2_0_Layer0_0_FILL"/>
</g>
</g>

<g transform="matrix( 0.5487518310546875, -0.268798828125, -0.268798828125, -0.5487518310546875, 96.3,75) ">
<g transform="matrix( 1, 0, 0, 1, 0,0) ">
<use xlink:href="#dog_chain_link_2_0_Layer0_0_FILL"/>
</g>
</g>

<g transform="matrix( 0.6085205078125, -0.0547943115234375, -0.0547943115234375, -0.6085205078125, 77.85,64.15) ">
<g transform="matrix( 1, 0, 0, 1, 0,0) ">
<use xlink:href="#dog_chain_link_2_0_Layer0_0_FILL"/>
</g>
</g>

<g transform="matrix( 0.44793701171875, 0.4155731201171875, 0.4155731201171875, -0.44793701171875, 86.15,58.55) ">
<g transform="matrix( 1, 0, 0, 1, 0,0) ">
<use xlink:href="#dog_chain_link_1_0_Layer0_0_FILL"/>
</g>
</g>

<g transform="matrix( -0.09564208984375, -0.603485107421875, -0.603485107421875, 0.09564208984375, 107.85,65.2) ">
<g transform="matrix( 1, 0, 0, 1, 0,0) ">
<use xlink:href="#dog_chain_link_1_0_Layer0_0_FILL"/>
</g>
</g>

<g transform="matrix( 0.4699554443359375, 0.39056396484375, 0.39056396484375, -0.4699554443359375, 105.25,48.55) ">
<g transform="matrix( 1, 0, 0, 1, 0,0) ">
<use xlink:href="#dog_chain_link_1_0_Layer0_0_FILL"/>
</g>
</g>

<g transform="matrix( 0.99908447265625, 0.0427703857421875, -0.0427703857421875, 0.99908447265625, 97.05,62.35) ">
<g transform="matrix( 1, 0, 0, 1, 0,0) ">
<use xlink:href="#Symbol_42_0_Layer0_0_FILL"/>
</g>
</g>

<g transform="matrix( 0.976470947265625, 0.215118408203125, -0.215118408203125, 0.976470947265625, 126.4,34.15) ">
<g transform="matrix( 1, 0, 0, 1, 0,0) ">
<use xlink:href="#Symbol_40_0_Layer0_0_FILL"/>
</g>
</g>

<g transform="matrix( 0.982818603515625, 0.183990478515625, -0.183990478515625, 0.982818603515625, 97.3,-7.9) ">
<g transform="matrix( 1, 0, 0, 1, 0,0) ">
<use xlink:href="#Symbol_41_2_Layer1_0_FILL"/>
</g>

<g transform="matrix( 1, 0, 0, 1, 0,0) ">
<use xlink:href="#Symbol_41_2_Layer0_0_FILL"/>
</g>
</g>
</g>
</g>
</g>
</svg>
