
<svg xmlns="http://www.w3.org/2000/svg" version="1.1" xmlns:xlink="http://www.w3.org/1999/xlink" preserveAspectRatio="none" x="0px" y="0px" width="230px" height="230px" viewBox="0 0 230 230">
<defs>
<linearGradient id="Gradient_1" gradientUnits="userSpaceOnUse" x1="52.7875" y1="27.0375" x2="66.6125" y2="52.1625" spreadMethod="pad">
<stop  offset="0%" stop-color="#FFFFFF"/>

<stop  offset="100%" stop-color="#353535"/>
</linearGradient>

<linearGradient id="Gradient_2" gradientUnits="userSpaceOnUse" x1="71.425" y1="42.824999999999996" x2="75.77499999999999" y2="89.775" spreadMethod="pad">
<stop  offset="0%" stop-color="#FFFFFF"/>

<stop  offset="100%" stop-color="#353535"/>
</linearGradient>

<g id="dog_chain_link_2_0_Layer0_0_FILL">
<path fill="#000000" stroke="none" d="
M 33.3 19.9
Q 34.522265625 14.899609375 36.15 6.9 37.8228515625 -1.0482421875 25.8 -5.35 5.1287109375 -5.2748046875 -3.45 -3.95 -7.146875 4.23671875 -4.95 14.75 -2.7087890625 25.300390625 2.15 25.35 7.062109375 25.45625 19.6 25.2 32.1326171875 24.944140625 33.3 19.9
M 23.25 4.4
Q 27.577734375 8.6443359375 22.75 14.9
L 4.7 14.1
Q 2.79609375 9.0005859375 4.3 5.7 4.9 5.45 11.9 4.9 19.5 4.25 23.25 4.4
M 8.2 7.65
Q 6.6 9.3 7.85 11 8.6 11.95 20.15 10.8
L 20.9 8.3
Q 14.6 6.05 8.2 7.65 Z"/>

<path fill="#999999" stroke="none" d="
M 22.75 14.9
Q 27.577734375 8.6443359375 23.25 4.4 19.5 4.25 11.9 4.9 4.9 5.45 4.3 5.7 2.79609375 9.0005859375 4.7 14.1
L 22.75 14.9
M 7.85 11
Q 6.6 9.3 8.2 7.65 14.6 6.05 20.9 8.3
L 20.15 10.8
Q 8.6 11.95 7.85 11 Z"/>
</g>

<g id="dog_chain_link_1_0_Layer0_0_FILL">
<path fill="#000000" stroke="none" d="
M 24.85 0.15
Q 23.3 -0.15 20.95 0.15 13.7 0.75 5 1.05 2.2 1.15 1.1 2 0 3 0 4.75 0.05 6.45 1.15 7.65 3.55 10.55 8.55 10.1 10 9.95 12.6 9.5 15.3 9 16.6 8.95 17.5 8.85 19.25 8.9 21 8.95 21.9 8.85 25.05 8.6 26.75 7.05 27.75 6.1 28.15 4.8 28.5 3.45 27.9 2.3 27.1 0.65 24.85 0.15
M 22.9 3.15
Q 24.9 3 25.05 4.1 24.2 4.85 22.85 5.3 22.05 5.55 20.3 5.9 17.9 6.3 16.45 6.3 15.2 6.4 12.45 6.3 9.9 6.15 8.55 6.25 6.75 6.45 5.9 6.35 4.5 6.25 3.75 5.4 3.55 5.2 3.9 4.95 4.15 4.7 4.5 4.7 13.55 3.8 22.9 3.15 Z"/>

<path fill="#999999" stroke="none" d="
M 25.05 4.1
Q 24.9 3 22.9 3.15 13.55 3.8 4.5 4.7 4.15 4.7 3.9 4.95 3.55 5.2 3.75 5.4 4.5 6.25 5.9 6.35 6.75 6.45 8.55 6.25 9.9 6.15 12.45 6.3 15.2 6.4 16.45 6.3 17.9 6.3 20.3 5.9 22.05 5.55 22.85 5.3 24.2 4.85 25.05 4.1 Z"/>
</g>

<g id="Symbol_42_1_Layer0_0_FILL">
<path fill="#000000" stroke="none" d="
M 41.55 39.5
Q 46.83828125 39.5404296875 52.95 37.85 54.7990234375 38.3869140625 61.45 36.95 68.0947265625 35.5556640625 71.3 30.55 74.5044921875 25.5986328125 69.05 14.45 63.6015625 3.35234375 42.55 1.75 23.35859375 -2.4859375 10.1 3.7 -3.1693359375 9.9390625 -6.55 26.75 -11.23984375 32.1181640625 -11.45 39.1
L -8.45 43.7
Q 3.48671875 47.8287109375 20 39.15 21.2298828125 39.3193359375 22.05 40.95 22.8701171875 42.6306640625 26.65 43.6 34.0349609375 45.025 41.55 39.5
M 59.7 28.9
L 59.1 28.1
Q 49.9 35.55 38.05 35.05 38.3 34.7 37.75 27.05 36.75 37.4 26.3 37.95
L 25.5 37.75
Q 25.2 37.45 24.95 37.15 24.1 36.05 23 33.5
L 22.1 31.15 22 32.2 21.7 33.7
Q 8.6 36.9 2.3 37.9 1.45 37.9 0 37.75 -1.4 37.6 -1.35 37.55 -1.3 36.8 2.45 27.45 3 24 4.7 21 10.15 11.05 20.85 7.15 29.75 4.35 38.95 4.3 51.75 4.2 58.8 13.95 60.2 15.85 61.4 17.75 66.6 26.05 60.95 31.45
L 56.6 31.75 59.7 28.9 Z"/>

<path fill="#FF7D3C" stroke="none" d="
M 13.5 33.85
Q 5.4 35.8 2.3 37.9 8.6 36.9 21.7 33.7
L 22 32.2
Q 19.9 32.3 13.5 33.85
M 59.1 28.1
L 59.7 28.9 60.5 29.35 60.95 31.45
Q 66.6 26.05 61.4 17.75 60.2 15.85 58.8 13.95 51.75 4.2 38.95 4.3 29.75 4.35 20.85 7.15 20.1 19.65 28.75 29.05 30 30.5 29.25 32.55 28.25 35.4 26.3 37.95 36.75 37.4 37.75 27.05 38.3 34.7 38.05 35.05 49.9 35.55 59.1 28.1 Z"/>

<path fill="#993300" stroke="none" d="
M 0 37.75
Q 1.45 37.9 2.3 37.9 5.4 35.8 13.5 33.85 19.9 32.3 22 32.2
L 22.1 31.15 23 33.5
Q 24.1 36.05 24.95 37.15 25.2 37.45 25.5 37.75
L 26.3 37.95
Q 28.25 35.4 29.25 32.55 30 30.5 28.75 29.05 20.1 19.65 20.85 7.15 10.15 11.05 4.7 21 3 24 2.45 27.45 -1.3 36.8 -1.35 37.55 -1.4 37.6 0 37.75
M 60.5 29.35
L 59.7 28.9 56.6 31.75 60.95 31.45 60.5 29.35 Z"/>
</g>

<g id="Symbol_40_0_Layer0_0_FILL">
<path fill="#000000" stroke="none" d="
M 50.65 -0.95
L 48.55 -5.95
Q 26.65 -1.05 19.4 1.2 5.9 5.6 2.15 18.8 -1.15 30.25 2.85 40.95 8.05 54.8 22.55 57.1 32.696875 58.8517578125 45.65 52.15 58.613671875 45.494140625 59.45 35.3 60.326953125 25.106640625 57.25 11.15 54.7603515625 11.7158203125 52.3 12.5 49.8396484375 13.3341796875 49.3 14.2
L 49.2 7.65 50.65 -0.95
M 47.4 1.2
Q 47.15 4.5 47.6 10.75 48 16.55 48.25 16.65 50.4 16.55 52.6 16.5
L 53.5 25.3 47.55 23.2
Q 46.698046875 25.286328125 41.85 29.6 38.38125 28.7130859375 35.3 27.5 32.2740234375 26.3421875 28.85 24.35 25.49375 28.250390625 22.55 32.65 15.15 30.1 13.05 28.55
L 11.55 30.7 4.4 18.15
Q 8.55 10.7 16.4 6.3 30.9 -2.05 47.4 1.2
M 49.9 37.65
Q 47.3 42.75 42.45 46.25 32.35 53.4 20.75 48.7 10.4 41.65 7.75 36.8 8.05 36.75 3.4 20.45
L 11.1 34.7 13.3 32.25
Q 17.85 35.3 23.15 35.75
L 29.75 27.85
Q 36.85 30.15 42.1 32.2 45.443359375 30.413671875 47.6 26.2 50.65 27 53.2 28.9 53.05 29.7 52.9 30.5 52.25 34.45 49.9 37.65
M 2.15 33.25
L 2.8 28.9
Q 3.3 30.1 5.05 32.55 9.3 50.6 27.5 52.15 34.25 52.95 40.3 50.05 46.3 47.35 50.05 41.65 45.95 52.7 34.3 54.85 22.75 57.05 12.6 50.95 2.6 45 2.15 33.25 Z"/>

<path fill="#0099FF" stroke="none" d="
M 2.8 28.9
L 2.15 33.25
Q 2.6 45 12.6 50.95 22.75 57.05 34.3 54.85 45.95 52.7 50.05 41.65 46.3 47.35 40.3 50.05 34.25 52.95 27.5 52.15 9.3 50.6 5.05 32.55 3.3 30.1 2.8 28.9 Z"/>

<path fill="#993300" stroke="none" d="
M 47.6 26.2
Q 45.443359375 30.413671875 42.1 32.2 36.85 30.15 29.75 27.85
L 23.15 35.75
Q 17.85 35.3 13.3 32.25
L 11.1 34.7 3.4 20.45
Q 8.05 36.75 7.75 36.8 10.4 41.65 20.75 48.7
L 29.3 39.4
Q 34.35 41.6 34.5 41.5 41.25 35.3 49.9 37.65 52.25 34.45 52.9 30.5 53.05 29.7 53.2 28.9 50.65 27 47.6 26.2 Z"/>

<path fill="#FF7D3C" stroke="none" d="
M 42.45 46.25
Q 47.3 42.75 49.9 37.65 41.25 35.3 34.5 41.5 34.35 41.6 29.3 39.4
L 20.75 48.7
Q 32.35 53.4 42.45 46.25 Z"/>

<path fill="#660000" stroke="none" d="
M 47.6 10.75
Q 47.15 4.5 47.4 1.2 30.9 -2.05 16.4 6.3 8.55 10.7 4.4 18.15
L 11.55 30.7 13.05 28.55
Q 15.15 30.1 22.55 32.65 25.49375 28.250390625 28.85 24.35 32.2740234375 26.3421875 35.3 27.5 38.38125 28.7130859375 41.85 29.6 46.698046875 25.286328125 47.55 23.2
L 53.5 25.3 52.6 16.5
Q 50.4 16.55 48.25 16.65 48 16.55 47.6 10.75 Z"/>
</g>

<g id="Symbol_41_0_Layer1_0_FILL">
<path fill="#000000" stroke="none" d="
M 102.5 -18
Q 101.2275390625 -14.0984375 100.95 -0.05 100.7224609375 14.0484375 98.25 12.95 63.285546875 4.7029296875 26.1 26.25 25.2236328125 21.171875 24.45 16.1 22.4759765625 2.65 19.25 -3.1 7.3431640625 11.0240234375 0.8 24.3 -5.7013671875 37.634375 -6.6 47.05 -7.489453125 56.4578125 -4.05 60.85 -0.5671875 65.2826171875 15.2 67.4 30.972265625 69.5197265625 33.05 70.6 33.05 68.85 36.2 75.3 39.15 81.25 39.55 81.4 40 81.5 42.3 79.25 44.55 77 44.75 77.1 48 79.4 50.95 82.45 51.9 83.4 54.4 84.6 57.15 85.95 57.95 85.5 58.7 85.2 62.1 79.55 65.5 73.95 65.65 73.9 65.9 73.85 71.55 77.75 77.25 81.7 78.25 81.6 79.55 81.5 83.5 75.8 87.45 70 87.7 69.95 87.9943359375 69.9111328125 96.55 77.25 105.158984375 84.576171875 106.65 82.95 108.140625 81.3861328125 110 68.95 111.8552734375 56.501171875 111.45 54.15 112.692578125 53.650390625 117.95 50.45 123.2169921875 47.25859375 130.3 41.35 137.4255859375 35.4333984375 132.4 24.1 127.383203125 12.825390625 102.5 -18
M 124.15 29.85
Q 124.6 31.7 124.35 32.85 123.95 34.55 121.75 36.6 121.25 37.05 120.75 37.5 119.05 39 111.85 43 104.5 47.1 103.7 47.7 103.65 47.75 102.9 42.55 102.2640625 38.4298828125 101.45 33.45 101.15 31.55 100.15 27.75 99.25 24.1 99 23.6 106.85 20.55 107.75 19 107.95 18.65 108.35 11.8 108.75 5.3 109 5.6 110.45 7.1 116.75 16.85 123.65 27.45 124.15 29.85
M 82 22.25
Q 85.45 22.15 87.65 22.55 95.85 25.65 96.05 25.45 99.4 40.3 100.7 50.2 101.2892578125 54.974609375 101.55 59.45 101.946875 66.0337890625 101.65 72 101.55 73.6 101.4 75.15 100.55 74.45 95.1 70.75 88.8 66.55 88 66.55 86.7 66.6 82.45 72.3
L 78.1 78.2
Q 77.85 78.3 71.55 74.2 65.3 70.1 64.35 70.6 63.95 70.8 60.35 76.7 56.75 82.55 56.45 82.55 55.8 82.65 51.15 78.25
L 44.35 73.05
Q 43.15 72.75 41.95 73.2 40.7 73.65 40.25 74.7
L 35.8 61.35
Q 35 58.35 33.5 50.1 32.1 42.25 31.9 40.05 31.8 39.2 32.35 37.3 32.9 35.4 33.4 35 33.45 34.95 38.3 32.1
L 38.35 32.05
Q 57.4 22.75 82 22.25
M 11.2 24.6
Q 14.65 17.3 15.25 16.45
L 16.5 26.85
Q 17.7 37.05 18.05 37.3 18.55 37.7 23.35 37.3 25.7 37.05 27.95 36.8 27.85 37.6 28 39.6
L 31.65 59.95
Q 31.2 59.9 12.75 58.9 6 56.6 4.7 54.5 4.6244140625 54.3810546875 4.55 54.25 3.0548828125 51.4931640625 3.75 46.65 5.45 38.4 6.85 34.25 7.6 32.2 11.2 24.6
M 56.9 38.1
Q 41.06953125 41.0255859375 40.6 41
L 36.5 42.75
Q 43.45 42.2 43.8 42.15 51.064453125 42.6572265625 69.65 38.15 85.909375 34.25390625 87.4 31.5 86.95 31.55 75.65 34.1 62.9 37 56.9 38.1
M 47.95 47.35
Q 47.4 47.7 46.4 48.55 45.45 49.35 45.3 49.55 45.05 49.85 44.05 51.3 42.95 52.95 42.65 53.5 42.2 54.45 43.15 58.4 44.1 62.2 44.65 62.8 45.1 63.3 48.1 65.3 48.6 65.55 50.35 65.9 52.2 66.25 53 66.25 54.5 66.3 57.55 65.3 60.4 64.35 60.9 63.85 61.75 62.85 63.95 57.15 63.95 53.75 63.35 52.35 63.05 51.65 60.65 48.65 58.25 45.65 57.85 45.45 56.85 45.1 52.6 46 48.65 46.85 47.95 47.35
M 59.5 59.35
Q 59.15 60.1 57.25 61.35 55.35 62.55 54.55 62.6 51.05 62.7 49.6 62.05 49 61.8 47.45 60.5 45.85 59.1 45.55 58.45 45.05 57.2 45.6 55.25 46.45 52.75 48.5 51 50.6 49.3 53.15 48.85 54 48.7 56.05 49.75 57.95 50.7 58.35 51.25 59.05 52.25 59.45 55.35 59.9 58.5 59.5 59.35
M 83.2 46.2
Q 81.8 46.9 81.4 47.2 80.25 48 79.9 50.3 79.8 51.1 80.15 52.8 80.5 54.3 80.65 54.5 80.9 54.8 80.9 55.15 80.9 55.5 80.5 55.5 77.9 55.55 72.85 57.3 67.6 59.1 67.3 60.4 71.5 58.2 85.9 57.1 87.85 57.3 89.5 55.9 91.6 52.4 91.35 50.55 91.3 49.25 90.7 48.25 90.15 47.3 87.75 46.2 85.5 45.15 84.95 45.35 84.5 45.5 83.2 46.2
M 83.8 49.3
Q 85.2 48.05 86.55 47.65 88.05 49.85 88.3 50.35 88.55 50.95 88.1 52.35 87.7 53.6 87.45 53.8 87.05 54.05 85.8 54.1 84.55 54.1 84.2 53.95 83.95 53.85 83.15 52.75 82.35 51.65 82.4 51.4 82.45 50.55 83.8 49.3 Z"/>

<path fill="#3333CC" stroke="none" d="
M 15.95 53.7
Q 14.35 53.5 11.5 53.8 8.4 54.15 8.4 54.8 8.35 55.25 10.05 56.8 11.7 58.3 12.75 58.9 31.2 59.9 31.65 59.95
L 28 39.6 24.45 54.2
Q 20.2 54.25 15.95 53.7
M 121.65 35.6
Q 122.15 34.2 121.95 33.85 121.4 33.1 102.9 42.55 103.65 47.75 103.7 47.7 104.5 47.1 111.85 43 119.05 39 120.75 37.5 121.2 36.95 121.65 35.6 Z"/>

<path fill="#0099FF" stroke="none" d="
M 15.25 16.45
Q 14.65 17.3 11.2 24.6 7.6 32.2 6.85 34.25 5.45 38.4 3.75 46.65 3.0548828125 51.4931640625 4.55 54.25 4.6244140625 54.3810546875 4.7 54.5 6 56.6 12.75 58.9 11.7 58.3 10.05 56.8 8.35 55.25 8.4 54.8 8.4 54.15 11.5 53.8 14.35 53.5 15.95 53.7 20.2 54.25 24.45 54.2
L 28 39.6
Q 27.85 37.6 27.95 36.8 25.7 37.05 23.35 37.3 18.55 37.7 18.05 37.3 17.7 37.05 16.5 26.85
L 15.25 16.45
M 121.95 33.85
Q 122.15 34.2 121.65 35.6 121.2 36.95 120.75 37.5 121.25 37.05 121.75 36.6 123.95 34.55 124.35 32.85 124.6 31.7 124.15 29.85 123.65 27.45 116.75 16.85 110.45 7.1 109 5.6 108.75 5.3 108.35 11.8 107.95 18.65 107.75 19 106.85 20.55 99 23.6 99.25 24.1 100.15 27.75 101.15 31.55 101.45 33.45 102.2640625 38.4298828125 102.9 42.55 121.4 33.1 121.95 33.85 Z"/>

<path fill="#FFFFFF" stroke="none" d="
M 57.25 61.35
Q 59.15 60.1 59.5 59.35 59.9 58.5 59.45 55.35 59.05 52.25 58.35 51.25 57.95 50.7 56.05 49.75 54 48.7 53.15 48.85 50.6 49.3 48.5 51 46.45 52.75 45.6 55.25 45.05 57.2 45.55 58.45 45.85 59.1 47.45 60.5 49 61.8 49.6 62.05 51.05 62.7 54.55 62.6 55.35 62.55 57.25 61.35
M 86.55 47.65
Q 85.2 48.05 83.8 49.3 82.45 50.55 82.4 51.4 82.35 51.65 83.15 52.75 83.95 53.85 84.2 53.95 84.55 54.1 85.8 54.1 87.05 54.05 87.45 53.8 87.7 53.6 88.1 52.35 88.55 50.95 88.3 50.35 88.05 49.85 86.55 47.65
M 87.65 22.55
Q 85.45 22.15 82 22.25 57.4 22.75 38.35 32.05 40.75 31.3 48.55 29.45 58.05 27.2 61.8 26.9 64.9 26.7 71.15 26.8 76.4 26.9 78.75 26.8 82.6 26.85 85.5 28.8 86.9 29.8 87.55 30.75 87.65 30.85 89.5 34.8 91.55 39.2 92.45 41.45 94.9 47.65 101.65 72 101.946875 66.0337890625 101.55 59.45 101.2892578125 54.974609375 100.7 50.2 99.4 40.3 96.05 25.45 95.85 25.65 87.65 22.55 Z"/>

<path fill="#666666" stroke="none" d="
M 44.5 45.25
Q 43.85 42.2 43.8 42.15 43.45 42.2 36.5 42.75
L 40.6 41
Q 33.2 38.1 33 37.4 32.9 37 33.15 35.95
L 33.4 35
Q 32.9 35.4 32.35 37.3 31.8 39.2 31.9 40.05 32.1 42.25 33.5 50.1 35 58.35 35.8 61.35
L 40.25 74.7
Q 40.7 73.65 41.95 73.2 43.15 72.75 44.35 73.05
L 51.15 78.25
Q 49.6 72.45 48.1 65.3 45.1 63.3 44.65 62.8 44.1 62.2 43.15 58.4 42.2 54.45 42.65 53.5 42.95 52.95 44.05 51.3 45.05 49.85 45.3 49.55 45.15 48.45 44.5 45.25
M 89.5 55.9
Q 87.85 57.3 85.9 57.1 71.5 58.2 67.3 60.4 67.6 59.1 72.85 57.3 77.9 55.55 80.5 55.5 80.9 55.5 80.9 55.15 80.9 54.8 80.65 54.5 80.5 54.35 80.4 54.2 74.9 53.9 71 54.7 67.05 55.45 63.95 57.15 61.75 62.85 60.9 63.85 61.4 63.75 73.45 61.2 86.45 58.95 92.3 59.75 92 57.3 89.5 55.9 Z"/>

<path fill="url(#Gradient_1)" stroke="none" d="
M 87.55 30.75
Q 86.9 29.8 85.5 28.8 82.6 26.85 78.75 26.8 76.4 26.9 71.15 26.8 64.9 26.7 61.8 26.9 58.05 27.2 48.55 29.45 40.75 31.3 38.35 32.05
L 38.3 32.1
Q 33.45 34.95 33.4 35
L 33.15 35.95
Q 32.9 37 33 37.4 33.2 38.1 40.6 41 41.06953125 41.0255859375 56.9 38.1 62.9 37 75.65 34.1 86.95 31.55 87.4 31.5
L 87.55 30.75 Z"/>

<path fill="url(#Gradient_2)" stroke="none" d="
M 89.5 34.8
Q 87.65 30.85 87.55 30.75
L 87.4 31.5
Q 85.909375 34.25390625 69.65 38.15 51.064453125 42.6572265625 43.8 42.15 43.85 42.2 44.5 45.25 45.15 48.45 45.3 49.55 45.45 49.35 46.4 48.55 47.4 47.7 47.95 47.35 48.65 46.85 52.6 46 56.85 45.1 57.85 45.45 58.25 45.65 60.65 48.65 63.05 51.65 63.35 52.35 63.95 53.75 63.95 57.15 67.05 55.45 71 54.7 74.9 53.9 80.4 54.2 80.5 54.35 80.65 54.5 80.5 54.3 80.15 52.8 79.8 51.1 79.9 50.3 80.25 48 81.4 47.2 81.8 46.9 83.2 46.2 84.5 45.5 84.95 45.35 85.5 45.15 87.75 46.2 90.15 47.3 90.7 48.25 91.3 49.25 91.35 50.55 91.6 52.4 89.5 55.9 92 57.3 92.3 59.75 86.45 58.95 73.45 61.2 61.4 63.75 60.9 63.85 60.4 64.35 57.55 65.3 54.5 66.3 53 66.25 52.2 66.25 50.35 65.9 48.6 65.55 48.1 65.3 49.6 72.45 51.15 78.25 55.8 82.65 56.45 82.55 56.75 82.55 60.35 76.7 63.95 70.8 64.35 70.6 65.3 70.1 71.55 74.2 77.85 78.3 78.1 78.2
L 82.45 72.3
Q 86.7 66.6 88 66.55 88.8 66.55 95.1 70.75 100.55 74.45 101.4 75.15 101.55 73.6 101.65 72 94.9 47.65 92.45 41.45 91.55 39.2 89.5 34.8 Z"/>
</g>
</defs>

<g transform="matrix( 0.761688232421875, 0, 0, 0.761688232421875, 38.15,62.65) ">
<g transform="matrix( 1, 0, 0, 1, 6.25,84.35) ">
<g transform="matrix( 1, 0, 0, 1, 18.7,2.4) ">
<g transform="matrix( 0.3136444091796875, -0.5245208740234375, 0.5245208740234375, 0.3136444091796875, 70.05,61.65) ">
<g transform="matrix( 1, 0, 0, 1, 0,0) ">
<use xlink:href="#dog_chain_link_2_0_Layer0_0_FILL"/>
</g>
</g>

<g transform="matrix( 0.573272705078125, -0.2115478515625, 0.2115478515625, 0.573272705078125, 51.05,65.5) ">
<g transform="matrix( 1, 0, 0, 1, 0,0) ">
<use xlink:href="#dog_chain_link_2_0_Layer0_0_FILL"/>
</g>
</g>

<g transform="matrix( 0.4915924072265625, 0.3628692626953125, -0.3628692626953125, 0.4915924072265625, 38.25,55.9) ">
<g transform="matrix( 1, 0, 0, 1, 0,0) ">
<use xlink:href="#dog_chain_link_2_0_Layer0_0_FILL"/>
</g>
</g>

<g transform="matrix( 0.228424072265625, 0.566558837890625, -0.566558837890625, 0.228424072265625, 36.8,34.65) ">
<g transform="matrix( 1, 0, 0, 1, 0,0) ">
<use xlink:href="#dog_chain_link_2_0_Layer0_0_FILL"/>
</g>
</g>

<g transform="matrix( 0.05987548828125, 0.6080169677734375, -0.6080169677734375, 0.05987548828125, 39,47.15) ">
<g transform="matrix( 1, 0, 0, 1, 0,0) ">
<use xlink:href="#dog_chain_link_1_0_Layer0_0_FILL"/>
</g>
</g>

<g transform="matrix( 0.600921630859375, 0.1107330322265625, -0.1107330322265625, 0.600921630859375, 43.9,63.7) ">
<g transform="matrix( 1, 0, 0, 1, 0,0) ">
<use xlink:href="#dog_chain_link_1_0_Layer0_0_FILL"/>
</g>
</g>

<g transform="matrix( 0.57269287109375, -0.2131500244140625, 0.2131500244140625, 0.57269287109375, 60.8,64.2) ">
<g transform="matrix( 1, 0, 0, 1, 0,0) ">
<use xlink:href="#dog_chain_link_1_0_Layer0_0_FILL"/>
</g>
</g>

<g transform="matrix( 0.9896697998046875, -0.1433563232421875, 0.1433563232421875, 0.9896697998046875, 68.75,44.35) ">
<g transform="matrix( 1, 0, 0, 1, 0,0) ">
<use xlink:href="#Symbol_42_1_Layer0_0_FILL"/>
</g>
</g>

<g transform="matrix( 0.9896697998046875, -0.1433563232421875, 0.1433563232421875, 0.9896697998046875, 82.15,21.45) ">
<g transform="matrix( 1, 0, 0, 1, 0,0) ">
<use xlink:href="#Symbol_40_0_Layer0_0_FILL"/>
</g>
</g>

<g transform="matrix( 0.9896697998046875, -0.1433563232421875, 0.1433563232421875, 0.9896697998046875, 37.8,-14.25) ">
<g transform="matrix( 1, 0, 0, 1, 0,0) ">
<use xlink:href="#Symbol_41_0_Layer1_0_FILL"/>
</g>
</g>
</g>
</g>
</g>
</svg>
