
<svg xmlns="http://www.w3.org/2000/svg" version="1.1" xmlns:xlink="http://www.w3.org/1999/xlink" preserveAspectRatio="none" x="0px" y="0px" width="300px" height="300px" viewBox="0 0 300 300">
<defs>
<g id="chest_0_Layer3_0_FILL">
<path fill="#000000" stroke="none" d="
M 140.8 28.45
Q 140.7 26.4 139.95 25.7 139.2119140625 25.0470703125 138.1 25.1 138.029296875 25.0544921875 137.95 25 137.2 24.35 135.85 24.65 134.5 24.85 133.95 25.55 133.909765625 25.6046875 133.85 25.65 131.9619140625 25.43671875 128.95 25.9 126.45 25.45 123.8 24.95 113.2 23.1 99.75 21.75 81.9 20.2 70.65 18.95 66.5 18.5 63.3 18.1 62 17.95 61.05 18
L 61.05 17.9
Q 61 17.95 61 18 60.75 18 60.55 18.05
L 60.55 18.15
Q 58.65 19 56.15 19.8 55.35 20.05 54.65 20.25 51.9 21.1 50.4 21.55 46.55 22.85 38.85 26.05 35.25 27.6 32.45 28.7 31.6 29 30.8 29.35 30.35 29.5 29.95 29.65 28.45 30.15 27.25 30.55 26.7630859375 30.6951171875 26.3 30.8 25.1658203125 30.0728515625 22.7 30.15 20.7 30.25 20 31.05 19.45 31.65 19.35 33.25 18.4 45.65 18.4 62.75 18.4 64.85 18.55 66.95 18.85 69.6 20.1 70.7 20.85 71.4 22.25 71.75 23.348828125 72.0767578125 24.25 72
L 24.25 72
Q 26.1388671875 72.5310546875 31.45 73.75
L 69.65 82.7
Q 77.3 84.45 81.05 85.2 87.4 86.25 92.6 86.85 93.15 86.75 93.55 86.6 93.85 86.55 94.55 86.3 103.5 82.1 114.15 76.1 121.4228515625 71.915625 133.25 64.9 133.230859375 64.926953125 133.2 64.95 133.6607421875 64.85078125 134.2 64.65
L 135.15 64.25
Q 135.3162109375 64.3 135.5 64.3 136.05 64.25 136.7 63.7 136.823046875 63.59453125 137 63.45 137.509375 63.123046875 137.8 62.8 137.8873046875 62.69921875 137.95 62.6 138.4009765625 62.2625 139.15 61.75 139.75 61.2 140.1 60.05 140.8 57.9 140.8 53.75
L 140.8 28.45
M 133.75 28.45
L 133.9 28.45
Q 134.65 45 134 61.6 133.55 61.55 133.25 61.85 129.25 63.5 121.95 67.9
L 93.15 84.45
Q 92.75 84.15 92.3 84.2
L 72.75 79.8 32.95 70.85 28.15 69.8 26.6 69.45 24.9 69.05
Q 24.15 68.8 23.7 68.95 23.65 60.4 23.7 54.75 23.7 52.2 23.75 50.25 23.85 41.9 24 35.3
L 24 34.75
Q 24.3 34.9 24.55 35.05 26 35.65 28.25 36.1 30.6 36.6 34.1 37.2 41.8 38.55 54.65 40.5 55.2 41.8 56.25 42.65 56.3 42.7 56.35 42.7
L 56.35 42.75
Q 56.501171875 42.9033203125 56.55 43.05 56.55 43.15 56.45 43.4
L 54.85 47.2
Q 54.45 48.15 54.5 48.85 54.7 49.7 55.35 50 55.7 50.2 56.6 50.3
L 58.05 50.5 58.85 50.6
Q 59.7 50.7 60.1 50.45 60.6 50 60.6 49.2 60.6 49.05 60.6 48.95 60.6 48.6 60.55 48.2 60.45 47.8 60.3 47.35 60.05 46.45 59.85 45.4 59.65 44.5 59.5 43.5 59.65 43.45 59.8 43.4 61 42.75 61.85 41.6 72.95 43.3 80.25 44.9 80.3 44.9 80.4 44.95
L 82.1 45.3
Q 87.3 46.5 88.6 46.75 89.25 46.85 89.9 47 92.35 47.35 94.35 47.45 94.75 47.45 95.1 47.45 95.1 47.6 95.15 47.7 95.2 47.75 95.25 47.75 95.35 47.8 95.65 47.75 96.15 47.65 96.65 47.5 97.8 47.2 98.95 46.85 101.9 45.9 105.3 44.3 107 43.5 108.85 42.5 113.15 40.25 121.65 35.5 123.75 34.4 127.85 32.3 128.2 32.1 128.55 31.9 131.55 30.2 133.75 28.45
M 129.3 29.75
Q 128.5 30.05 127.85 30.35 125.3 31.4 123.85 32 120.2 33.6 112.9 37.75 108.45 40.3 105.3 41.9 103.4 42.85 101.9 43.45 99.7 44.35 98.6 44.85 97.5 45.35 96.65 45.85 96.4 46 96.2 46.2 96 46 95.65 45.9 95.45 45.85 95.25 45.8 92.7 44.9 89.9 44.15 78 40.75 61.6 38.45 44.75 36.4 34.1 34.8 30.2 34.2 27.15 33.7 26.4 33.55 25.75 33.55 25.3 33.45 25.15 33.4 25.05 33.35 24.9 33.05 27.3 32.35 29.95 31.5 30.35 31.35 30.8 31.25 31.6 30.95 32.45 30.6 33.5 30.25 34.6 29.8 39.1 28.05 48.1 24.3 50.3 23.45 54.65 21.8 55.05 21.65 55.4 21.45 58.35 20.25 60.55 19
L 60.55 19.15
Q 62.05 19.6 64.4 19.95 66.95 20.3 70.65 20.75 78.9 21.8 92.95 23.3 111.2 25.25 121.45 26.9 122.7 27.1 123.8 27.3 127.25 27.85 128.3 28 129 28.1 129.7 28.2 130.9 28.35 132.05 28.45 130.8 29.1 129.3 29.75
M 125.3 29.65
Q 125.5 29.3 125.4 29.1 125.3 28.6 124.65 28.6 121.75 28.3 110.2 27.5 101.3 26.9 95.8 26.1 93.45 25.75 81.3 23.5 72.5 21.8 66.8 21.5 63.6 21.4 61.7 22.05 61.85 21.85 61.95 21.65 61.8 21 60.9 21.35
L 31.65 32.2
Q 31.35 32.3 31.2 32.45 30.7 32.4 30.2 32.4 30.5 32.7 30.9 33 31 33.05 31.1 33.1 31.65 33.4 32.35 33.6 33.15 33.8 34.8 33.9 47.55 34.45 65.05 37.85 75 39.8 94.6 44.1 94.6 44.2 94.7 44.3 94.8 44.6 95.05 44.7 95.35 44.8 96 44.5
L 111.4 36.9
Q 120.75 32.3 124.75 30.1 125.1 29.95 125.3 29.65
M 96.2 42.85
Q 95.95 42.65 95.5 42.55
L 76.75 38.45
Q 68.05 36.6 64.05 35.9 63.4 35.8 62.75 35.7
L 62.65 34.9
Q 62.45 33.25 62.45 29.45 62.45 25.9 62.05 24 62.05 23.55 61.85 23.65 61.4 24.9 61.4 27.6
L 61.4 31.5
Q 61.25 33.7 61.25 33.8 61.2 34.4 61 35.4 47.1 33 33.45 32.5
L 60.35 22.85
Q 61 22.65 61.4 22.35 61.6 22.35 61.85 22.4 61.9 22.4 61.95 22.4 68.2 23.1 92.8 27.05 110.9 29.95 122.95 29.8
L 103.55 39.15
Q 99.15 41.25 96.2 42.85
M 86.15 53.9
Q 86.4 53.6 86.3 53.35 86.3 53.15 86.1 53 86 52.25 85.65 52.1
L 85.5 52.8
Q 85.15 52.65 84.7 52.6 80.75 51.9 78.2 51.1 74.8 50.15 74.5 50.1 71.9 49.65 71.85 49.65 71.55 49.55 71.35 49.5 71 49.4 70.9 49.45 70.25 49.55 70.15 50.15 70.15 50.3 70.2 50.45 69.8 50.9 69.8 52.1
L 69.75 54.2
Q 69.65 55.55 69.6 55.8 69.3 56.7 68.75 57 68.3 57.2 67.75 57 67.25 56.8 66.9 56.65 66.8 56.6 66.7 56.55 66.1 56.4 65.1 56.45 63.95 56.5 63.5 56.45 63.4 56.45 63.3 56.45
L 63.3 56.4
Q 62.85 56.3 62 56 61.8 55.9 61.55 55.8 60.25 55.3 57.65 54.85 55 54.35 53.75 53.9 52.6 53.45 52.05 53.25 51.05 52.85 50.35 52.8 49.65 52.75 49.45 52.7 48.95 52.55 48.7 52.15 48.45 51.75 48.45 50.65 48.6 47.25 48.35 42.7 48.35 42.25 48.2 41.95 48.15 41.85 48.1 41.75 47.9 41.55 47.65 41.6 47.65 41.65 47.6 41.7 47.35 42.45 47.25 43.7
L 43.2 42.75 39.6 41.95
Q 36.6189453125 41.2875 35 41.1 34.9357421875 41.1080078125 34.85 41.1
L 34.65 41.1 33.65 40.95
Q 33.6822265625 40.966015625 33.75 41
L 32.9 40.9
Q 32.5 40.85 32.1 40.8 30.45 40.35 29.9 40.5 29.55 40.5 29.35 40.8 29.05 41.15 29.25 41.5 29.3 41.6 29.35 41.65 29.3 41.9 29.3 42.2 29.15 43.65 29.25 45.65 29.3 46.8 29.45 49.05 29.55 51.55 29.4 53.65
L 29.05 58.5
Q 28.8 62.55 28.9 64.5 28.9 65.3 29.25 65.45 29.45 65.55 29.65 65.45 29.9 65.3 29.95 65.05 30 64.9 30.05 64.75 36.7 67.4 46.95 69.35 52.75 70.5 64.35 72.65 64.7 72.75 65.1 72.85 68.45 73.65 74.55 75.15
L 74.95 75.25
Q 75.1 75.25 75.2 75.3 75.95 75.45 76.6 75.6
L 77.2 75.7
Q 77.45 75.75 77.7 75.8
L 77.7 75.85
Q 81.7 76.6 84.85 76.8 85.25 76.8 85.5 76.6 85.8 76.4 85.75 76.2 85.95 76.15 86.1 75.85 86.25 75.65 86.3 75.15 86.75 72.55 86.85 70.85 86.85 70.35 86.85 69.9 86.7 68.35 86.75 68
L 86.95 66.85
Q 87 66.1 86.95 64.55
L 86.65 60.75 86.15 53.9
M 82.7 54.2
Q 84.15 54.4 85.3 54.25 85.25 55.8 85.35 58.4
L 85.55 63.15
Q 85.55 64.65 85.45 66.15
L 85.35 67.1 85.2 69.75 85.15 69.75 85.15 70.15
Q 84.9 73.65 85.2 75.4 85.3 75.9 85.45 76.1 79.9 75.3 69.45 72.35 68.35 72.05 67.3 71.8 66.75 71.65 66.25 71.5 57.7 69.25 53.2 68.55
L 47.45 67.75
Q 44.5 67.25 38.95 65.65 33.15 64 30.45 63.5 30.25 63.45 30.05 63.5 29.95 62 30 61.2
L 30.25 56.5 30.3 56.15 30.3 55.95
Q 30.4 53.9 30.4 52.85 30.5 51.1 30.35 48.15 30.15 44.75 30.15 43.45
L 30.2 41.9 45.6 44.65
Q 46.65 44.85 47.25 44.85
L 47.25 46.2 47.25 47.8 47.2 51.4
Q 47.2 52.6 47.45 53.1 47.85 54.05 48.8 54.3 49.4 54.5 50.5 54.6 51.8 54.85 54.25 55.8 55.2 56.1 57.2 56.45 59.15 56.75 60.15 57.05 62.35 57.85 62.7 57.9 63.2 58 64.15 58 65.15 58 65.6 58.05 66.3 58.15 67.65 58.5 68.8 58.7 69.5 58.25 70.1 57.85 70.45 57.1 70.75 56.35 70.75 54.65
L 70.7 52.1
Q 70.7 51.6 70.7 51.25 71.2 51.6 72.05 51.8 72.6 51.85 73.65 51.95
L 77.45 52.95
Q 80.85 53.95 82.7 54.2
M 68.1 45
Q 67.95 45.45 67.95 46.35
L 68 54.2
Q 68 55.3 68.35 55.65 68.8 55 68.8 53.4
L 68.8 46.15
Q 68.8 45.25 68.6 44.9 68.5 44.6 68.25 44.7 68.1 44.7 68.1 45
M 95.3 49.6
Q 94.75 52.55 94.6 55.35
L 93.7 66.45
Q 93.55 67.95 93.1 70.9 93 71.8 92.9 74.95
L 92.85 77.7
Q 92.75 80.3 93.2 81.6 93.7 80.6 93.9 78.45
L 95.3 67.05 95.7 58.15
Q 95.95 52.5 95.3 49.6
M 132.05 36.15
Q 132.05 36.05 132.05 36 132.3 35.35 131.7 34.95 131.3 34.75 130.7 34.95 130.1 35.15 128.9 36 126.6 37.6 121.35 40.05
L 105.9 47.4
Q 102.1 49.1 100 50.9 99.85 50.55 99.6 50.7 99.4 50.7 99.35 51.1 99.25 51.3 99.2 51.6 98.75 52.05 98.9 52.5 98.95 52.8 99.15 52.95 99.15 53 99.15 53.1
L 99.15 58.15
Q 99.15 60.7 99.05 61.95
L 98.95 63.5
Q 98.85 64.35 98.85 66.1
L 98.9 69.4
Q 98.9 71.45 99.15 72.35 99.35 72.75 99.45 72.85 99.7 73.05 99.95 72.85 100.1 73.05 100.3 73.05 100.55 73.05 101.1 72.7 103.5 70.9 107.6 68.7 111.7 66.45 117.65 63.45
L 129.45 57.35
Q 129.7 57.2 129.85 57.1 130.15 57.15 130.4 56.75 130.6 56.3 130.8 55.5
L 131.15 53.25
Q 131.15 51.15 131.25 50.1 131.25 49.55 131.4 49
L 131.55 47.45
Q 131.85 45.65 131.8 44.45
L 131.8 42.9 132 41.95
Q 132.1 41.2 132.1 39.6 132.1 37.3 132.05 36.15
M 130.8 39.75
Q 130.8 40.6 130.8 41.1 130.75 41.2 130.75 41.3
L 130.6 42.25 130.6 42.3
Q 130.5 42.9 130.5 44 130.6 45 130.45 45.75
L 130.25 46.75 130.35 47.8 130.35 48.05
Q 130.4 48.5 130.2 49.8
L 130.15 50.75
Q 130.15 51.1 130.15 51.55 130.2 52.75 130.1 53.3 129.95 54.1 129.75 54.85 129.6 55.25 129.55 55.6 129.1 55.5 128.35 55.9
L 109.9 65.55
Q 106.55 67.3 104.85 68.4 102.25 70 100.35 71.75 100.3 71.4 100.2 71 100.1 70.3 100.1 68.85
L 100.15 63.85 100.3 62.25
Q 100.45 61.05 100.35 59.55
L 100.25 52.7
Q 100.3 52.7 100.35 52.65 103.8 50.3 111.65 46.4
L 118 43.35
Q 118.7 43 121.3 41.85 123.35 40.95 124.55 40.3 125 40.05 127.95 38.3 129.55 37.3 130.8 36.75
L 130.8 39.75 Z"/>

<path fill="#BFC2D4" stroke="none" d="
M 127.85 30.35
Q 128.5 30.05 129.3 29.75 130.8 29.1 132.05 28.45 130.9 28.35 129.7 28.2 129 28.1 128.3 28 127.25 27.85 123.8 27.3 122.7 27.1 121.45 26.9 111.2 25.25 92.95 23.3 78.9 21.8 70.65 20.75 66.95 20.3 64.4 19.95 62.05 19.6 60.55 19.15
L 60.55 19
Q 58.35 20.25 55.4 21.45 55.05 21.65 54.65 21.8 50.3 23.45 48.1 24.3 39.1 28.05 34.6 29.8 33.5 30.25 32.45 30.6 31.6 30.95 30.8 31.25 30.35 31.35 29.95 31.5 27.3 32.35 24.9 33.05 25.05 33.35 25.15 33.4 25.3 33.45 25.75 33.55 26.4 33.55 27.15 33.7 30.2 34.2 34.1 34.8 44.75 36.4 61.6 38.45 78 40.75 89.9 44.15 92.7 44.9 95.25 45.8 95.45 45.85 95.65 45.9 96 46 96.2 46.2 96.4 46 96.65 45.85 97.5 45.35 98.6 44.85 99.7 44.35 101.9 43.45 103.4 42.85 105.3 41.9 108.45 40.3 112.9 37.75 120.2 33.6 123.85 32 125.3 31.4 127.85 30.35
M 125.4 29.1
Q 125.5 29.3 125.3 29.65 125.1 29.95 124.75 30.1 120.75 32.3 111.4 36.9
L 96 44.5
Q 95.35 44.8 95.05 44.7 94.8 44.6 94.7 44.3 94.6 44.2 94.6 44.1 75 39.8 65.05 37.85 47.55 34.45 34.8 33.9 33.15 33.8 32.35 33.6 31.65 33.4 31.1 33.1 31 33.05 30.9 33 30.5 32.7 30.2 32.4 30.7 32.4 31.2 32.45 31.35 32.3 31.65 32.2
L 60.9 21.35
Q 61.8 21 61.95 21.65 61.85 21.85 61.7 22.05 63.6 21.4 66.8 21.5 72.5 21.8 81.3 23.5 93.45 25.75 95.8 26.1 101.3 26.9 110.2 27.5 121.75 28.3 124.65 28.6 125.3 28.6 125.4 29.1 Z"/>

<path fill="#483828" stroke="none" d="
M 62.75 35.7
Q 63.4 35.8 64.05 35.9
L 62.65 34.9 62.75 35.7
M 66.25 71.5
Q 66.75 71.65 67.3 71.8 67.3 69.15 67.1 67.7 66.7 67.7 66.6 68.7 66.45 70.35 66.25 71.5
M 31.45 56.65
L 31.65 56.65
Q 31.7 56.55 31.65 56.45
L 30.5 56.2
Q 30.4 56.2 30.3 56.15
L 30.25 56.5 31.45 56.65
M 47.25 47.8
L 47.25 46.2 43.6 45.7
Q 38.55 45.15 36.65 45.15
L 36.6 45.45
Q 37.05 45.4 38.4 46
L 38.45 46.05
Q 38.4 46.3 38.4 46.7 38.35 47.85 38.6 50.15 38.6 50.65 38.55 53.45 38.45 55.4 38.7 56.65 38.9 56.45 38.9 55.8 38.9 54.95 39.2 51.9
L 39.7 46.5 39.7 46.45
Q 40.1 46.5 40.5 46.6 43.8 47.35 47.25 47.8
M 85.35 67.1
L 85.4 66.65
Q 78.2 65.35 73.4 64.75
L 53.5 62.4
Q 57.4 63.75 66.5 65.75
L 84 69.5
Q 84.5904296875 69.64765625 85.15 69.75
L 85.2 69.75 85.35 67.1
M 63.2 67.05
L 63.1 67.9 63.15 68.3
Q 63.2 68.4 63.5 68.65 63.85 68.9 64.1 68.8 64.55 68.65 64.65 67.8
L 64.65 67.55
Q 64.65 67.25 64.55 67 64.35 66.7 63.9 66.5
L 63.9 66.65
Q 63.45 66.5 63.2 67.05
M 33.3 57.05
Q 32.95 57.05 33.15 57.25 34 57.35 35.9 58.15 37.75 58.85 38.75 58.95 39 58.95 40.3 58.9 41.15 58.85 41.8 59 42.1 59 42.1 58.85 41.45 58.45 40.5 58.35 39.4 58.25 38.85 58.2 38 58.1 36.1 57.6 34.25 57.1 33.3 57.05
M 130.8 41.1
Q 130.8 40.6 130.8 39.75
L 130.8 36.75
Q 129.55 37.3 127.95 38.3 125 40.05 124.55 40.3 123.35 40.95 121.3 41.85 118.7 43 118 43.35
L 111.65 46.4
Q 103.8 50.3 100.35 52.65 100.3 52.7 100.25 52.7
L 100.35 59.55
Q 100.45 61.05 100.3 62.25
L 100.15 63.85 100.1 68.85
Q 100.1 70.3 100.2 71 100.3 71.4 100.35 71.75 102.25 70 104.85 68.4 106.55 67.3 109.9 65.55
L 128.35 55.9
Q 129.1 55.5 129.55 55.6 129.6 55.25 129.75 54.85 129.95 54.1 130.1 53.3 130.2 52.75 130.15 51.55 130.15 51.1 130.15 50.75 128.3 51.65 124.6 53.4
L 104.6 62.65
Q 106.25 60.9 108.95 59.55 110.55 58.8 113.8 57.45 116.25 56.3 119.55 54.35 121.45 53.2 125.15 50.85
L 130.35 47.8 130.25 46.75 130.45 45.75
Q 130.6 45 130.5 44 130.5 42.9 130.6 42.3
L 129.35 42.9
Q 127.2 43.85 126.15 43.9 128.4 42.5 130.8 41.1 Z"/>

<path fill="#FFE74F" stroke="none" d="
M 61.85 23.65
L 61.85 22.4
Q 61.6 22.35 61.4 22.35 61 22.65 60.35 22.85
L 33.45 32.5
Q 47.1 33 61 35.4 61.2 34.4 61.25 33.8 61.25 33.7 61.4 31.5
L 61.4 27.6
Q 61.4 24.9 61.85 23.65
M 95.5 42.55
Q 95.95 42.65 96.2 42.85 99.15 41.25 103.55 39.15
L 122.95 29.8
Q 110.9 29.95 92.8 27.05 68.2 23.1 61.95 22.4
L 61.85 23.65
Q 62.05 23.55 62.05 24 62.45 25.9 62.45 29.45 62.45 33.25 62.65 34.9
L 64.05 35.9
Q 68.05 36.6 76.75 38.45
L 95.5 42.55 Z"/>

<path fill="#B6A14B" stroke="none" d="
M 61.95 22.4
Q 61.9 22.4 61.85 22.4
L 61.85 23.65 61.95 22.4 Z"/>

<path fill="#4B506B" stroke="none" d="
M 65.1 72.85
Q 65.2 73.35 65.55 73.85 66.1 74.85 67.1 75.2 68.15 75.55 69.05 75.05 69.7 74.8 69.85 74.85 70 74.9 70.5 75.55 70.9 76.05 71.95 76.6 72.25 76.85 72.8 77.4 73.35 77.85 73.8 77.85 74.4 77.9 74.85 77.3 75.25 76.75 75.25 76 75.25 75.65 75.2 75.3 75.1 75.25 74.95 75.25
L 74.55 75.15
Q 68.45 73.65 65.1 72.85
M 61.45 50.85
L 61 49.65
Q 60.8 49.35 60.6 49.2 60.6 50 60.1 50.45 59.7 50.7 58.85 50.6
L 58.05 50.5 57.5 50.45
Q 57.4 50.75 57.4 51.05 57.4 51.4 57.55 52 57.65 52.4 57.8 53.25 57.9 54 58.2 54.4 58.8 55.35 60.1 55.15 61.2 54.95 61.7 54.3 62.45 53.4 62.2 52.25 62.15 52.15 61.45 50.85
M 23.85 54.85
Q 23.8 54.8 23.7 54.75 23.65 60.4 23.7 68.95 24.15 68.8 24.9 69.05
L 26.6 69.45
Q 27 68.95 27.05 68.4 27.5 68.85 28.1 68.65 28.25 68.6 28.4 68.55
L 28.3 69
Q 28.3 69.3 28.15 69.8
L 32.95 70.85
Q 32.95 70.75 32.9 70.65 32.8 70.3 32.6 69.9 32.3 69.45 32.2 69.2 31.7 68.2 31.55 68.05 31 67.7 30.7 67.5
L 29.95 67.1
Q 29.5505859375 66.9669921875 29.15 67.15 29.2443359375 66.3447265625 28.6 65.75 28.15 65.35 27.65 65.45 26.85 65.65 26.6 66.4 26.4 65.95 26 65.55 25.6 65.15 25.35 65.1 25.1 65.05 25.05 64.95 24.95 64.8 25.05 64.5 25.2 63.85 25.1 63.3 25.35 63.6 25.75 63.8 26.25 64 26.7 63.75 27.15 63.55 27.45 62.95 27.65 62.35 27.6 61.8 27.5 61.2 27.05 60.75 26.65 60.35 26.2 60.35 25.7 60.35 25.3 60.8 24.85 61.2 24.75 61.8 24.7 62.1 24.75 62.4 24.65 62.2 24.5 62.05 25.25 60.8 25.35 59.1 25.45 57.45 24.8 56.05 24.35 55.15 23.85 54.85
M 37.45 41.2
Q 35.9662109375 41.1587890625 35 41.1 36.6189453125 41.2875 39.6 41.95
L 43.2 42.75
Q 41.3 41.3 37.45 41.2
M 29.45 39.9
Q 28.5 40.3 28.15 42.55 27.7 45.6 27.6 48.25 27.45 50.4 27.55 56.4 27.65 61.25 28 63.6 28.15 64.4 28.45 64.5 28.5 64.6 28.9 64.5 28.8 62.55 29.05 58.5
L 29.4 53.65
Q 29.55 51.55 29.45 49.05 29.3 46.8 29.25 45.65 29.15 43.65 29.3 42.2 29.3 41.9 29.35 41.65 29.3 41.6 29.25 41.5 29.05 41.15 29.35 40.8 29.55 40.5 29.9 40.5 30.45 40.35 32.1 40.8 32.5 40.85 32.9 40.9
L 33.75 41
Q 33.6822265625 40.966015625 33.65 40.95
L 33.6 40.95
Q 32.4 40.75 31.45 40.35 30.6 39.95 30.45 39.9 29.9 39.7 29.45 39.9
M 60.2 44.95
Q 59.95 45.15 59.85 45.4 60.05 46.45 60.3 47.35 60.45 47.8 60.55 48.2 60.85 48.35 61.2 48.3 61.8 48.15 62.15 47.6 62.5 47.1 62.45 46.25 62.4 45.6 61.95 45.15 61.55 44.7 61 44.6
L 61 44.7
Q 60.6 44.65 60.2 44.95
M 35.25 68.55
L 35.25 68.7
Q 34.75 68.55 34.5 69.15 34.3 69.75 34.55 70.2 34.75 70.75 35.2 70.9
L 35.45 71
Q 36 71 36.25 70.35 36.45 69.75 36.1 69.15 35.8 68.7 35.25 68.55
M 26.6 52.4
Q 26.55 51.7 26.05 51.3 25.55 50.95 24.95 51.1
L 24.5 51.35
Q 23.9 51.9 24 53.05 24.15 54.1 24.7 54.45 25.3 54.7 25.75 54.4 26.2 54.1 26.5 53.45 26.7 52.95 26.6 52.4
M 25.25 47.4
L 25.3 47.55
Q 24.95 47.45 24.8 47.6 24.6 47.85 24.55 48.1
L 24.5 48.3 24.6 48.8
Q 24.7 49.15 25.2 49.25
L 25.45 49.25
Q 25.55 49.2 25.75 48.95
L 25.95 48.7 25.95 48.35 25.9 47.95
Q 25.75 47.6 25.25 47.4
M 47.65 41.6
Q 47.9 41.55 48.1 41.75 52.75 42.35 56.45 42.9 56.403125 42.80625 56.35 42.75
L 56.35 42.7
Q 56.3 42.7 56.25 42.65 55.2 41.8 54.65 40.5 41.8 38.55 34.1 37.2 30.6 36.6 28.25 36.1 26 35.65 24.55 35.05 24.3 34.9 24 34.75
L 24 35.3
Q 26.95 36.7 28.95 37.5 35.8 40.2 47.6 41.7 47.65 41.65 47.65 41.6
M 87 60.35
Q 86.8 60.5 86.65 60.75
L 86.95 64.55
Q 87 66.1 86.95 66.85
L 86.75 68
Q 86.7 68.35 86.85 69.9 86.85 70.35 86.85 70.85 87.75 70.75 88.6 70 89.65 68.95 90.05 67.4 90.3 65.65 89.45 64.45 89.25 64.15 88.85 63.8 89.05 63.6 89.3 62.8 89.5 62.2 89.45 61.7 89.4 60.55 88.6 60.15 87.8 59.75 87 60.35
M 90.75 58
Q 90.8 57.85 90.75 57.6
L 90.55 57.15
Q 90.45 56.9 89.9 56.8
L 89.9 56.85
Q 89.35 56.75 89.15 57.4 89.1 57.5 89.1 58.05
L 89.2 58.4
Q 89.25 58.6 89.6 58.8 90 58.95 90.1 58.9 90.65 58.8 90.75 58
M 85.25 48.7
Q 84.55 48.55 84.05 49.2 83.75 49.6 83.75 49.95
L 83.75 50.7
Q 83.9 51.35 84.4 51.8 84.9 52.2 85.45 52 85.75 51.8 85.9 51.6 86.55 50.7 86.25 49.7 85.95 48.85 85.25 48.7
M 133.9 28.45
L 133.75 28.45
Q 131.55 30.2 128.55 31.9 128.2 32.1 127.85 32.3 123.75 34.4 121.65 35.5 113.15 40.25 108.85 42.5 107 43.5 105.3 44.3 101.9 45.9 98.95 46.85 97.8 47.2 96.65 47.5 96.15 47.65 95.65 47.75 95.35 47.8 95.25 47.75 95.2 47.75 95.15 47.7 95.1 47.6 95.1 47.45 94.75 47.45 94.35 47.45 92.35 47.35 89.9 47 89.25 46.85 88.6 46.75 87.3 46.5 82.1 45.3
L 80.4 44.95
Q 80.3 44.9 80.25 44.9 72.95 43.3 61.85 41.6 61 42.75 59.8 43.4 64.95 44.2 67.4 44.8
L 67.1 51.95
Q 66.7 51.75 65.95 51.65 64.2 51.45 63.3 52.4 62.55 53.1 62.2 54.65 62.05 55.35 62 56 62.85 56.3 63.3 56.4
L 63.3 56.45
Q 63.4 56.45 63.5 56.45 63.95 56.5 65.1 56.45 66.1 56.4 66.7 56.55 66.8 56.6 66.9 56.65 67.25 56.8 67.75 57 68.3 57.2 68.75 57 69.3 56.7 69.6 55.8 69.65 55.55 69.75 54.2
L 69.8 52.1
Q 69.8 50.9 70.2 50.45 70.15 50.3 70.15 50.15 70.25 49.55 70.9 49.45 71 49.4 71.35 49.5
L 71.35 45.65
Q 77.25 47.2 83.25 48.3 83.5 48.35 83.75 48.4 85.6 48.7 87.4 48.95
L 88.15 49.65 88.6 50.35
Q 89.35 51.65 90.65 52.05 92 52.4 93.05 51.55 93.2 51.45 94.05 50.55 94.15 50.4 94.25 50.3 94.25 50.0884765625 94.25 49.85 93.986328125 56.9041015625 93.4 65.65 92.8 74.55 92.4 80.4 91.65 81.15 90.7 81.65 89.25 82.35 87.55 82.35 86.5 82.35 84.4 81.8 82.2 81.3 81.15 81.25 80.6 81.25 80.4 81.05 80.2 80.95 79.8 80.2 79.25 79 77.85 78.75 77.95 78.65 78.05 78.5 78.4 78 78.4 77.25 78.35 76.4 77.85 75.95 77.8 75.9 77.7 75.85
L 77.7 75.8
Q 77.45 75.75 77.2 75.7
L 76.6 75.6 76.55 75.6
Q 76.4 75.55 76.15 75.65 75.7 75.85 75.45 76.35 75.15 76.9 75.2 77.45 75.25 78.05 75.55 78.55 75.75 78.75 75.9 78.9 75.8 78.9 75.75 78.95 74.85 79.35 74.75 79.4
L 73.05 79.7
Q 72.85 79.75 72.75 79.8
L 92.3 84.2
Q 92.75 84.15 93.15 84.45
L 121.95 67.9
Q 129.25 63.5 133.25 61.85 133.55 61.55 134 61.6 134.65 45 133.9 28.45
M 132.05 36
Q 132.05 36.05 132.05 36.15 132.1 37.3 132.1 39.6 132.1 41.2 132 41.95
L 131.8 42.9 131.8 44.45
Q 131.85 45.65 131.55 47.45
L 131.4 49
Q 131.25 49.55 131.25 50.1 131.15 51.15 131.15 53.25
L 130.8 55.5
Q 130.6 56.3 130.4 56.75 130.15 57.15 129.85 57.1 129.7 57.2 129.45 57.35
L 117.65 63.45
Q 111.7 66.45 107.6 68.7 103.5 70.9 101.1 72.7 100.55 73.05 100.3 73.05 100.1 73.05 99.95 72.85 99.7 73.05 99.45 72.85 99.35 72.75 99.15 72.35 98.9 71.45 98.9 69.4
L 98.85 66.1
Q 98.85 64.35 98.95 63.5
L 99.05 61.95
Q 99.15 60.7 99.15 58.15
L 99.15 53.1
Q 99.15 53 99.15 52.95 98.95 52.8 98.9 52.5 98.75 52.05 99.2 51.6 99.25 51.3 99.35 51.1 99.4 50.7 99.6 50.7 99.85 50.55 100 50.9 102.1 49.1 105.9 47.4
L 121.35 40.05
Q 126.6 37.6 128.9 36 130.1 35.15 130.7 34.95 131.3 34.75 131.7 34.95 132.3 35.35 132.05 36
M 94.6 55.35
Q 94.75 52.55 95.3 49.6 95.95 52.5 95.7 58.15
L 95.3 67.05 93.9 78.45
Q 93.7 80.6 93.2 81.6 92.75 80.3 92.85 77.7
L 92.9 74.95
Q 93 71.8 93.1 70.9 93.55 67.95 93.7 66.45
L 94.6 55.35
M 67.95 46.35
Q 67.95 45.45 68.1 45 68.1 44.7 68.25 44.7 68.5 44.6 68.6 44.9 68.8 45.25 68.8 46.15
L 68.8 53.4
Q 68.8 55 68.35 55.65 68 55.3 68 54.2
L 67.95 46.35 Z"/>

<path fill="#8B90AA" stroke="none" d="
M 26.6 69.45
L 28.15 69.8
Q 28.3 69.3 28.3 69
L 28.4 68.55
Q 28.25 68.6 28.1 68.65 27.5 68.85 27.05 68.4 27 68.95 26.6 69.45
M 47.25 43.7
Q 47.35 42.45 47.6 41.7 35.8 40.2 28.95 37.5 26.95 36.7 24 35.3 23.85 41.9 23.75 50.25 23.7 52.2 23.7 54.75 23.8 54.8 23.85 54.85 24.35 55.15 24.8 56.05 25.45 57.45 25.35 59.1 25.25 60.8 24.5 62.05 24.65 62.2 24.75 62.4 24.7 62.1 24.75 61.8 24.85 61.2 25.3 60.8 25.7 60.35 26.2 60.35 26.65 60.35 27.05 60.75 27.5 61.2 27.6 61.8 27.65 62.35 27.45 62.95 27.15 63.55 26.7 63.75 26.25 64 25.75 63.8 25.35 63.6 25.1 63.3 25.2 63.85 25.05 64.5 24.95 64.8 25.05 64.95 25.1 65.05 25.35 65.1 25.6 65.15 26 65.55 26.4 65.95 26.6 66.4 26.85 65.65 27.65 65.45 28.15 65.35 28.6 65.75 29.2443359375 66.3447265625 29.15 67.15 29.5505859375 66.9669921875 29.95 67.1
L 30.7 67.5
Q 31 67.7 31.55 68.05 31.7 68.2 32.2 69.2 32.3 69.45 32.6 69.9 32.8 70.3 32.9 70.65 32.95 70.75 32.95 70.85
L 72.75 79.8
Q 72.85 79.75 73.05 79.7
L 74.75 79.4
Q 74.85 79.35 75.75 78.95 75.8 78.9 75.9 78.9 75.75 78.75 75.55 78.55 75.25 78.05 75.2 77.45 75.15 76.9 75.45 76.35 75.7 75.85 76.15 75.65 76.4 75.55 76.55 75.6
L 76.6 75.6
Q 75.95 75.45 75.2 75.3 75.25 75.65 75.25 76 75.25 76.75 74.85 77.3 74.4 77.9 73.8 77.85 73.35 77.85 72.8 77.4 72.25 76.85 71.95 76.6 70.9 76.05 70.5 75.55 70 74.9 69.85 74.85 69.7 74.8 69.05 75.05 68.15 75.55 67.1 75.2 66.1 74.85 65.55 73.85 65.2 73.35 65.1 72.85 64.7 72.75 64.35 72.65 52.75 70.5 46.95 69.35 36.7 67.4 30.05 64.75 30 64.9 29.95 65.05 29.9 65.3 29.65 65.45 29.45 65.55 29.25 65.45 28.9 65.3 28.9 64.5 28.5 64.6 28.45 64.5 28.15 64.4 28 63.6 27.65 61.25 27.55 56.4 27.45 50.4 27.6 48.25 27.7 45.6 28.15 42.55 28.5 40.3 29.45 39.9 29.9 39.7 30.45 39.9 30.6 39.95 31.45 40.35 32.4 40.75 33.6 40.95
L 33.65 40.95 34.65 41.1 34.85 41.1
Q 34.9357421875 41.1080078125 35 41.1 35.9662109375 41.1587890625 37.45 41.2 41.3 41.3 43.2 42.75
L 47.25 43.7
M 25.3 47.55
L 25.25 47.4
Q 25.75 47.6 25.9 47.95
L 25.95 48.35 25.95 48.7 25.75 48.95
Q 25.55 49.2 25.45 49.25
L 25.2 49.25
Q 24.7 49.15 24.6 48.8
L 24.5 48.3 24.55 48.1
Q 24.6 47.85 24.8 47.6 24.95 47.45 25.3 47.55
M 26.05 51.3
Q 26.55 51.7 26.6 52.4 26.7 52.95 26.5 53.45 26.2 54.1 25.75 54.4 25.3 54.7 24.7 54.45 24.15 54.1 24 53.05 23.9 51.9 24.5 51.35
L 24.95 51.1
Q 25.55 50.95 26.05 51.3
M 35.25 68.7
L 35.25 68.55
Q 35.8 68.7 36.1 69.15 36.45 69.75 36.25 70.35 36 71 35.45 71
L 35.2 70.9
Q 34.75 70.75 34.55 70.2 34.3 69.75 34.5 69.15 34.75 68.55 35.25 68.7
M 48.2 41.95
Q 48.35 42.25 48.35 42.7 48.6 47.25 48.45 50.65 48.45 51.75 48.7 52.15 48.95 52.55 49.45 52.7 49.65 52.75 50.35 52.8 51.05 52.85 52.05 53.25 52.6 53.45 53.75 53.9 55 54.35 57.65 54.85 60.25 55.3 61.55 55.8 61.8 55.9 62 56 62.05 55.35 62.2 54.65 62.55 53.1 63.3 52.4 64.2 51.45 65.95 51.65 66.7 51.75 67.1 51.95
L 67.4 44.8
Q 64.95 44.2 59.8 43.4 59.65 43.45 59.5 43.5 59.65 44.5 59.85 45.4 59.95 45.15 60.2 44.95 60.6 44.65 61 44.7
L 61 44.6
Q 61.55 44.7 61.95 45.15 62.4 45.6 62.45 46.25 62.5 47.1 62.15 47.6 61.8 48.15 61.2 48.3 60.85 48.35 60.55 48.2 60.6 48.6 60.6 48.95 60.6 49.05 60.6 49.2 60.8 49.35 61 49.65
L 61.45 50.85
Q 62.15 52.15 62.2 52.25 62.45 53.4 61.7 54.3 61.2 54.95 60.1 55.15 58.8 55.35 58.2 54.4 57.9 54 57.8 53.25 57.65 52.4 57.55 52 57.4 51.4 57.4 51.05 57.4 50.75 57.5 50.45
L 58.05 50.5 56.6 50.3
Q 55.7 50.2 55.35 50 54.7 49.7 54.5 48.85 54.45 48.15 54.85 47.2
L 56.45 43.4
Q 56.55 43.15 56.55 43.05 56.501171875 42.9033203125 56.35 42.75 56.403125 42.80625 56.45 42.9 52.75 42.35 48.1 41.75 48.15 41.85 48.2 41.95
M 83.75 48.4
Q 83.5 48.35 83.25 48.3 77.25 47.2 71.35 45.65
L 71.35 49.5
Q 71.55 49.55 71.85 49.65 71.9 49.65 74.5 50.1 74.8 50.15 78.2 51.1 80.75 51.9 84.7 52.6 85.15 52.65 85.5 52.8
L 85.65 52.1
Q 86 52.25 86.1 53 86.3 53.15 86.3 53.35 86.4 53.6 86.15 53.9
L 86.65 60.75
Q 86.8 60.5 87 60.35 87.8 59.75 88.6 60.15 89.4 60.55 89.45 61.7 89.5 62.2 89.3 62.8 89.05 63.6 88.85 63.8 89.25 64.15 89.45 64.45 90.3 65.65 90.05 67.4 89.65 68.95 88.6 70 87.75 70.75 86.85 70.85 86.75 72.55 86.3 75.15 86.25 75.65 86.1 75.85 85.95 76.15 85.75 76.2 85.8 76.4 85.5 76.6 85.25 76.8 84.85 76.8 81.7 76.6 77.7 75.85 77.8 75.9 77.85 75.95 78.35 76.4 78.4 77.25 78.4 78 78.05 78.5 77.95 78.65 77.85 78.75 79.25 79 79.8 80.2 80.2 80.95 80.4 81.05 80.6 81.25 81.15 81.25 82.2 81.3 84.4 81.8 86.5 82.35 87.55 82.35 89.25 82.35 90.7 81.65 91.65 81.15 92.4 80.4 92.8 74.55 93.4 65.65 93.986328125 56.9041015625 94.25 49.85 94.25 50.0884765625 94.25 50.3 94.15 50.4 94.05 50.55 93.2 51.45 93.05 51.55 92 52.4 90.65 52.05 89.35 51.65 88.6 50.35
L 88.15 49.65 87.4 48.95
Q 85.6 48.7 83.75 48.4
M 84.05 49.2
Q 84.55 48.55 85.25 48.7 85.95 48.85 86.25 49.7 86.55 50.7 85.9 51.6 85.75 51.8 85.45 52 84.9 52.2 84.4 51.8 83.9 51.35 83.75 50.7
L 83.75 49.95
Q 83.75 49.6 84.05 49.2
M 90.75 57.6
Q 90.8 57.85 90.75 58 90.65 58.8 90.1 58.9 90 58.95 89.6 58.8 89.25 58.6 89.2 58.4
L 89.1 58.05
Q 89.1 57.5 89.15 57.4 89.35 56.75 89.9 56.85
L 89.9 56.8
Q 90.45 56.9 90.55 57.15
L 90.75 57.6 Z"/>

<path fill="#CC6600" stroke="none" d="
M 85.3 54.25
Q 84.15 54.4 82.7 54.2 80.85 53.95 77.45 52.95
L 73.65 51.95
Q 72.6 51.85 72.05 51.8 71.2 51.6 70.7 51.25 70.7 51.6 70.7 52.1
L 70.75 54.65
Q 70.75 56.35 70.45 57.1 70.1 57.85 69.5 58.25 68.8 58.7 67.65 58.5 66.3 58.15 65.6 58.05 65.15 58 64.15 58 63.2 58 62.7 57.9 62.35 57.85 60.15 57.05 59.15 56.75 57.2 56.45 55.2 56.1 54.25 55.8 51.8 54.85 50.5 54.6 49.4 54.5 48.8 54.3 47.85 54.05 47.45 53.1 47.2 52.6 47.2 51.4
L 47.25 47.8
Q 43.8 47.35 40.5 46.6 40.1 46.5 39.7 46.45
L 39.7 46.5 39.2 51.9
Q 38.9 54.95 38.9 55.8 38.9 56.45 38.7 56.65 38.45 55.4 38.55 53.45 38.6 50.65 38.6 50.15 38.35 47.85 38.4 46.7 38.4 46.3 38.45 46.05
L 38.4 46
Q 37.05 45.4 36.6 45.45
L 36.65 45.15
Q 38.55 45.15 43.6 45.7
L 47.25 46.2 47.25 44.85
Q 46.65 44.85 45.6 44.65
L 30.2 41.9 30.15 43.45
Q 30.15 44.75 30.35 48.15 30.5 51.1 30.4 52.85 30.4 53.9 30.3 55.95
L 30.3 56.15
Q 30.4 56.2 30.5 56.2
L 31.65 56.45
Q 31.7 56.55 31.65 56.65
L 31.45 56.65 30.25 56.5 30 61.2
Q 29.95 62 30.05 63.5 30.25 63.45 30.45 63.5 33.15 64 38.95 65.65 44.5 67.25 47.45 67.75
L 53.2 68.55
Q 57.7 69.25 66.25 71.5 66.45 70.35 66.6 68.7 66.7 67.7 67.1 67.7 67.3 69.15 67.3 71.8 68.35 72.05 69.45 72.35 79.9 75.3 85.45 76.1 85.3 75.9 85.2 75.4 84.9 73.65 85.15 70.15
L 85.15 69.75
Q 84.5904296875 69.64765625 84 69.5
L 66.5 65.75
Q 57.4 63.75 53.5 62.4
L 73.4 64.75
Q 78.2 65.35 85.4 66.65
L 85.35 67.1 85.45 66.15
Q 85.55 64.65 85.55 63.15
L 85.35 58.4
Q 85.25 55.8 85.3 54.25
M 33.15 57.25
Q 32.95 57.05 33.3 57.05 34.25 57.1 36.1 57.6 38 58.1 38.85 58.2 39.4 58.25 40.5 58.35 41.45 58.45 42.1 58.85 42.1 59 41.8 59 41.15 58.85 40.3 58.9 39 58.95 38.75 58.95 37.75 58.85 35.9 58.15 34 57.35 33.15 57.25
M 63.1 67.9
L 63.2 67.05
Q 63.45 66.5 63.9 66.65
L 63.9 66.5
Q 64.35 66.7 64.55 67 64.65 67.25 64.65 67.55
L 64.65 67.8
Q 64.55 68.65 64.1 68.8 63.85 68.9 63.5 68.65 63.2 68.4 63.15 68.3
L 63.1 67.9
M 130.35 48.05
L 130.35 47.8 125.15 50.85
Q 121.45 53.2 119.55 54.35 116.25 56.3 113.8 57.45 110.55 58.8 108.95 59.55 106.25 60.9 104.6 62.65
L 124.6 53.4
Q 128.3 51.65 130.15 50.75
L 130.2 49.8
Q 130.4 48.5 130.35 48.05
M 129.35 42.9
L 130.6 42.3 130.6 42.25 130.75 41.3
Q 130.75 41.2 130.8 41.1 128.4 42.5 126.15 43.9 127.2 43.85 129.35 42.9 Z"/>
</g>

<g id="chest_0_Layer2_0_FILL">
<path fill="#000000" stroke="none" d="
M 57.6 -16.55
Q 52.7 -16.95 48.95 -16.8 38.95 -16.3 32.6 -11.75 25.5462890625 -6.640625 22.55 3.25 22.4189453125 3.5458984375 22.3 3.85 20.75 7.85 19.25 16.45
L 18.85 19.05
Q 18.25 23.1 18.3 26.9 18.35 29.45 18.6 32.1 18.7 33.6 19.35 34.1 19.6810546875 34.403515625 20.25 34.45 20.23125 34.296484375 20.2 34.1 20.304296875 34.683203125 20.5 35.05 20.8 35.6 21.4 35.9 22 36.2 22.55 36 23.370703125 35.680859375 23.7 34.25 23.501953125 34.17578125 23.3 34.1 24.6169921875 34.6083984375 26.95 35.15 27.35 35.3 28.7 35.85 29.75 36.3 30.4 36.45 31.25 36.7 32.95 36.95 33.25 37 35.1 37.5
L 37.05 38
Q 38.6 38.35 40.55 38.5 43.1 38.75 46.6 38.75 46.7 38.75 46.85 38.75 47 39.65 47.4 40.1 47.8 40.5 48.75 40.7
L 51.6 41.25
Q 53.25 41.55 53.95 41.15 54.6 40.8 54.85 40.75
L 54.9 40.8
Q 55.05 40.9 55.3 41 55.5 41.2 55.7 41.1 55.75 41.1 55.9 41.1 57.2 41.15 59.7 41.55 60.25 41.7 60.6 41.6 60.8 41.7 61.15 41.8
L 65.7 43
Q 66.9 43.3 67.5 43.15 67.95 43.05 68.55 42.55 69 42.2 69.3 41.85 69.4 41.95 69.6 42.1 72.1 43.55 74.35 44.25
L 77.45 45
Q 83.2 46.2 84.7 46.45 88.2 47.05 92.3 47.55
L 94.85 47.95
Q 94.95 48.05 95.15 48.15 95.6 48.2 96 48.05 99.6 46.75 105.2 43.8 112.2 40.05 114.25 39.1
L 118 37.45
Q 123.05 35.15 133.15 29.05 134.6 28.1 135.25 27.6
L 136.35 27.6
Q 136.336328125 27.2875 136.3 26.95 136.58359375 27.11328125 136.9 27.05 137.56953125 26.9755859375 137.8 26.05 138.287109375 25.762890625 138.6 25.45 139.7 24.35 139.7 21.5 139.75 19.6 139.6 17.2 139.3 11.65 138.65 8.25 137.65 3.4 135.5 0
L 133.8 -2.35
Q 132.45 -4.05 131.9 -4.55 130.2478515625 -6.1548828125 126.65 -7.65 124.8322265625 -8.60234375 122.65 -9.35 118.7 -10.7 112.55 -11.6 103.85 -12.85 89.4 -13.85 71.6 -15.15 66.2 -15.7 59.1 -16.45 57.6 -16.55
M 33.35 -4.15
Q 35.65 -6.55 38.6 -8.3 41.6 -10.1 45.1 -11.05 46.95 -10.85 49.3 -10.6 47.1 -9.9 45 -8.6 41.75 -6.6 39.25 -3.4 38.55 -2.5 36.7 0.3 32.9 6.8 31.1 12.65 28.95 19.55 29.4 26 29.35 26.15 29.3 26.35 29.3 26.7 29.55 26.95 29.6 27.45 29.85 27.7 30.15 27.9 30.4 27.7 30.5 27.65 30.6 27.6 32 28.25 34.6 28.75
L 35.9 29 37.35 29.25
Q 38.4 29.45 42.15 30.35 43.05 30.6 44.1 30.85 45.8 31.35 47.1 31.25 46.65 33.8 46.65 37.05 44.65 36.4 43 36.25
L 41 36.15
Q 39.7 36 36.9 35.4
L 33.8 34.7
Q 30.65 34 29.05 33.4
L 26.8 32.55
Q 24.5 32 24.3 31.9 24.2 31.85 24.05 31.8 24.05 31.3 24.05 30.8 24.05 28.35 24.05 26.5 24.05 24.6 24.15 23.3 24.15 21.8 24.25 20.4 24.5 14.75 25.8 9.95 26.75 6.35 28.25 3.25 29.15 1.4 30.2 -0.25 31.65 -2.35 33.35 -4.15
M 52.1 -9.35
Q 53.05 -9.65 53.2 -10.25 63.7 -9.35 81.45 -8.35 95.25 -7.45 105.5 -6.3 105.3 -6.2 105.1 -6.1 104.45 -5.7 103.75 -5.25
L 103.8 -5.25
Q 103.5 -5.1 103.2 -4.9
L 102.35 -4.3
Q 102.35 -4.25 102.25 -4.2 100.45 -2.85 98.75 -1.15 97.6 0 96.6 1.25
L 94.95 3.4
Q 94.8 3.6 94.65 3.85 91.45 8.55 89.4 14.75 86.5 23.5 86.35 34.15 86.3 35.1 86.35 35.9 85.35 35.7 83.65 35.55
L 75.35 34.8
Q 75.1 34.75 73 34.1 71.85 33.75 70.4 33.6
L 70.35 33.6
Q 70.25 31.7 69.9 29.85 69.65 28.6 69.35 27.65 69 26.7 68.65 25.95 68.5 25.65 68.35 25.35 67.6 24.25 66 22.8 64.15 21.2 62.65 20.75 61.75 20.45 60.2 20.55 56.7 20.65 54.15 21.75 52.1775390625 22.599609375 50.7 23.95
L 50.2 24.5
Q 49.5654296875 25.169921875 49.05 25.95 48 27.65 47.45 29.9 47.25 29.85 47 29.8 46.4 29.7 45.1 29.3
L 42.3 28.55
Q 36.7 27.2 34.9 26.9 32.95 26.6 32.05 26.25 31.45 26 31.05 25.85 31.05 25.75 31.05 25.7 30.75 14.4 37.45 2.45 40.75 -3.3 44.1 -5.85 46.7 -7.8 52.1 -9.35
M 107.2 -5.3
Q 107.8 -5.6 108 -5.85 108.05 -5.9 108.05 -6 109.3 -5.85 110.4 -5.7 113.3 -5.3 115.85 -4.9 116.05 -4.9 116.25 -4.85 120.35 -4.1 122.65 -3.3 123.5 -2.95 124.3 -2.55 126.6 -1.4 128.2 0.2 130.55 2.95 131.9 8.05 132.7 11.5 133.2 17.35 133.25 17.9 133.3 18.4 133.6 22.55 133.8 26.75
L 98.85 44.9 96.4 46.2
Q 96.25 46.1 96.15 46
L 96 45.95
Q 95.75 45.8 95.2 45.65 94.35 45.5 92.9 45.3 91.75 45.15 90.25 44.95 87.05 44.55 85.25 44.25
L 81 43.4 75.8 42.35
Q 73.95 42 72.6 41.5 71.7 41.15 71.35 41
L 71.1 40.9
Q 70.5 40.7 70 40.75 70.2 40.15 70.25 38.8 70.45 36.4 70.4 35.15 70.8 35.25 71.5 35.35 72 35.4 72.8 35.65
L 74.05 36.1 75.55 36.35
Q 76.8 36.55 78.05 36.65 79.05 36.75 80.05 36.85 81.9 36.95 83.8 36.95 84.4 36.95 84.7 37
L 85.45 37.2
Q 85.75 37.25 86.5 37.2 86.5 37.7 86.65 38.15 87.05 38.2 87.3 37.6 87.4 37.3 87.45 37 87.6 36.85 87.6 36.6 87.6 36.4 87.5 36.25 87.5 31.45 88 27 88.85 19.95 91.1 13.95 91.55 12.75 92.05 11.55 94.55 5.7 98.4 1.35 102.4 -3.15 107.2 -5.3
M 63.05 23.05
Q 63.6 23.3 64.55 24.1 66.2 25.5 66.95 26.7 67.75 28 68.35 30.5 69.2 34.45 68.9 38.7 68.75 39.8 68.55 40.1 68.4 40.25 68.3 40.4 68.35 39.55 68.35 38.75 68.35 36.9 67.7 32.55 67.5 31.65 67.1 31.65 67.3 32.05 67.45 32.95
L 67.65 36.25
Q 67.7 37.05 67.85 38.65 67.85 39.05 67.7 40.35 67.65 40.55 67.65 40.8 67.3 40.85 66.9 40.9 66.25 40.95 65.2 40.75 63.3 40.35 62.2 39.8 63.05 38.15 62.85 35.95 62.65 33.9 61.65 32.2 61.35 31.7 61 31.3
L 61 31.35
Q 60.8 31.1 60.6 30.95
L 60.5 30.8 60.45 30.8
Q 60.35 30.75 60.35 30.7 59.65 30.25 58.65 30.25 57.45 30.25 56.35 31 55.2 31.8 54.55 33.1 53.85 34.4 53.8 35.95 53.75 37.55 54.25 38.95 53.55 39.8 51.7 39.35
L 48.75 38.75
Q 48.4 38.65 48.3 38.5 48.3 38.45 48.15 37.95 48.05 35.3 48.45 32.75 48.55 32.25 48.65 31.8 49.25 29 50.5 27.1 50.85 26.55 51.3 26.1 52.7 24.65 55.1 23.65 56.6 23.05 57.8 22.8 58.95 22.65 60.15 22.65 61.95 22.55 63.05 23.05
M 60.35 24
Q 59.65 24 59.5 24.5 60.15 24.85 61.2 25.1
L 62.9 25.55
Q 65.05 26.3 65.75 27.9 66.05 28.45 66.25 28.4 66.6 28.35 66.4 27.6 66 26.15 64.65 25.3 63.9 24.8 62.2 24.3 60.8 23.95 60.35 24
M 112.8 -2.8
Q 113.1 -3.05 112.7 -3.4 112.5 -3.55 112.15 -3.45 111.3 -3.3 110.5 -2.95 107.3 -1.75 104.5 1.9 102.2 5 99.7 11.25 98.9 13.35 98.55 14.45 97.45 18.1 96.85 22.9 95.85 29.95 95.8 37.25
L 95.8 37.3
Q 95.9 37.85 95.8 38.55 95.75 39.1 95.8 39.7 95.8 41.3 95.8 42.9
L 96 41.3
Q 96.85 32.2 97.6 27.7 97.8 26.3 98.35 23.5 100.8 11.2 105.85 3.75 106.6 2.6 107.6 1.4 110.25 -1.65 112.8 -2.8
M 126.9 3.15
Q 125.75 2.2 123.65 1.65 117.65 0.1 113.25 2.6 108.7 5.15 105.85 12 104.1 16.25 102.55 24.7 101.95 27.3 101.75 29.25 101.5 31.6 101.35 34.4
L 101.1 38.65
Q 100.65 38.85 100.6 39.2 100.55 39.45 100.7 39.7 100.85 39.9 101.05 39.95
L 101.1 39.95
Q 101.1 40.1 101.2 40.25 101.35 40.7 101.7 40.65 102 40.65 102.15 39.9 102.2 39.75 102.25 39.6
L 121 30.9
Q 124.2 29.5 127 28
L 129.25 26.75
Q 130.2 26.15 130.7 25.55 130.85 25.7 131.1 25.65 131.4 25.6 131.55 25.35 131.75 25 131.75 24.1 131.65 18.3 131.35 15.5 130.8 10.7 129.5 7.25 128.4 4.4 126.9 3.15
M 126.6 5.2
Q 127.35 5.95 128.1 7.65 129.4 10.65 129.95 15 130 15.5 130.05 16 130.1 16.3 130.15 17 130.25 19.1 130.55 24.9 130.55 24.95 130.55 25 129.75 24.95 128.9 25.35 128.55 25.45 126.85 26.45 125.75 27.1 123.5 28 122.8 28.3 116.5 31.25
L 102.5 38
Q 102.65 36.5 102.75 34.35 103.15 24.55 105.9 15.6 105.95 15.4 106.05 15.15 106.15 14.75 106.3 14.4 107.2 11.65 108.25 9.75 110.9 5.1 115.4 3.5 119.75 1.9 124.2 3.7 125.85 4.35 126.6 5.2 Z"/>

<path fill="#8B90AA" stroke="none" d="
M 56.1 29.5
Q 58.15 28.95 59.1 29.35
L 59.9 29.75 60.7 30.4
Q 60.85 30.65 61 31.3 61.35 31.7 61.65 32.2 62.65 33.9 62.85 35.95 63.05 38.15 62.2 39.8 63.3 40.35 65.2 40.75 66.25 40.95 66.9 40.9 67.25 37.35 67.15 35.4 67.05 31.7 65.7 29.25 64.6 27.2 62.6 26 60.75 24.85 58.55 24.75 56.15 24.6 53.35 25.75 53.95 27.45 53.8 29.15 53.55 31.8 51.75 32.7 51 33.1 50.1 32.8 49.2 32.55 48.65 31.8 48.55 32.25 48.45 32.75 48.05 35.3 48.15 37.95 48.3 38.45 48.3 38.5 48.4 38.65 48.75 38.75 48.75 38.7 48.75 38.6 48.65 38 49.1 37.9 49.25 37.85 49.45 38 49.6 38.1 49.8 38.3 50.2 38.6 51.15 38.8 51.35 38.9 51.85 39.15 52.3 39.3 53.2 39.2 52.45 36.4 53.25 33.5 53.7 32.1 54.45 30.9 54.75 30.25 55.15 29.9 55.45 29.7 56.1 29.5
M 121.1 -1.8
Q 117.65 -2.4 114.5 -0.35 114.35 0.6 113.55 1.45 113.1 1.9 111.95 2.7 107.6 5.75 104.35 14.1 101.25 21.8 99.9 30.35 98.75 37.6 98.85 44.9
L 133.8 26.75
Q 133.6 22.55 133.3 18.4 133.25 17.9 133.2 17.35 132.7 11.5 131.9 8.05 130.55 2.95 128.2 0.2 126.6 -1.4 124.3 -2.55 124.2 -2.35 124.05 -2.2 123.65 -1.75 123.15 -1.65 122.75 -1.55 121.1 -1.8
M 123.65 1.65
Q 125.75 2.2 126.9 3.15 128.4 4.4 129.5 7.25 130.8 10.7 131.35 15.5 131.65 18.3 131.75 24.1 131.75 25 131.55 25.35 131.4 25.6 131.1 25.65 130.85 25.7 130.7 25.55 130.2 26.15 129.25 26.75
L 127 28
Q 124.2 29.5 121 30.9
L 102.25 39.6
Q 102.2 39.75 102.15 39.9 102 40.65 101.7 40.65 101.35 40.7 101.2 40.25 101.1 40.1 101.1 39.95
L 101.05 39.95
Q 100.85 39.9 100.7 39.7 100.55 39.45 100.6 39.2 100.65 38.85 101.1 38.65
L 101.35 34.4
Q 101.5 31.6 101.75 29.25 101.95 27.3 102.55 24.7 104.1 16.25 105.85 12 108.7 5.15 113.25 2.6 117.65 0.1 123.65 1.65
M 109.95 -4
Q 109.8 -4.85 110.4 -5.7 109.3 -5.85 108.05 -6 108.05 -5.9 108 -5.85 107.8 -5.6 107.2 -5.3 102.4 -3.15 98.4 1.35 94.55 5.7 92.05 11.55 91.55 12.75 91.1 13.95 91.15 14.2 91.25 14.55 91.45 16.15 91.3 19.4 91.2 21.1 90.7 21.7 90.3 22.1 90.1 22.3 89.75 22.65 89.75 23.05 89.75 23.3 90.15 24.05 90.55 24.8 90.5 25.7 90.5 26.65 89.9 27.1 89.25 27.7 88 27 87.5 31.45 87.5 36.25 87.6 36.4 87.6 36.6 87.6 36.85 87.45 37 87.4 37.3 87.3 37.6 87.05 38.2 86.65 38.15 86.5 37.7 86.5 37.2 85.75 37.25 85.45 37.2
L 84.7 37
Q 84.4 36.95 83.8 36.95 81.9 36.95 80.05 36.85 80.2 37.1 80.2 37.45 80.3 37.95 80.1 38.45 79.85 38.95 79.45 39.15 79.05 39.35 78.6 39.15 78.15 39 77.9 38.55 77.7 38.1 77.75 37.55 77.8 37 78.05 36.65 76.8 36.55 75.55 36.35
L 74.05 36.1 72.8 35.65
Q 72 35.4 71.5 35.35 70.8 35.25 70.4 35.15 70.45 36.4 70.25 38.8 70.2 40.15 70 40.75 70.5 40.7 71.1 40.9
L 71.35 41
Q 71.95 40 72.5 39.55 73.45 38.65 74.5 38.85 75.35 39.05 76.65 40.6 77.1 41.15 77.4 41.2 77.7 41.25 78.1 41.1 79.35 40.8 80.05 41.3 80.75 41.85 80.95 42.9 81 43.15 81 43.4
L 85.25 44.25
Q 87.05 44.55 90.25 44.95 91.75 45.15 92.9 45.3 92.7 44.95 92.65 44.5 92.5 43.75 92.75 43.05 93 42.45 93.7 41.85 94.45 41.3 94.95 41.35 95.3 41.35 95.65 41.55 95.65 40.7 95.8 39.7 95.75 39.1 95.8 38.55 95.75 38.55 95.75 38.6 95.4 39.75 94.45 39.85 93.95 39.9 93.6 39.6 93.55 40.2 93.15 40.65 92.75 41.1 92.2 41.05 91.75 41.05 91.35 40.6 90.95 40.15 90.9 39.55 90.8 38.55 91.45 38 91.8 37.7 92.1 37.75 92.35 37.75 92.25 37.65 92.6 37.7 92.85 37.85 92.8 37.65 92.85 37.5 93.05 36.5 93.7 36.05 93.9 35.85 94.1 35.9
L 94.3 35.95
Q 94.45 35.95 94.3 35.8 95.15 35.9 95.6 36.8 95.7 37 95.8 37.25 95.85 29.95 96.85 22.9 97.45 18.1 98.55 14.45 98.9 13.35 99.7 11.25 102.2 5 104.5 1.9 107.3 -1.75 110.5 -2.95 110.05 -3.45 109.95 -4
M 105.95 -3.15
L 106.2 -3.6
Q 106.4 -3.8 106.75 -3.8
L 107.4 -3.85
Q 107.6 -3.85 107.8 -3.65 107.95 -3.4 107.85 -2.75
L 107.7 -2.25
Q 107.4 -2.05 107.25 -1.95 106.9 -1.6 106.85 -1.6 106.75 -1.55 106.45 -1.65 105.9 -1.85 105.8 -2.35 105.75 -2.7 105.95 -3.15
M 92.7 16.05
Q 92.95 15.65 93.4 15.65 93.85 15.65 94.1 16 94.4 16.35 94.4 16.8 94.4 17.15 94.3 17.45
L 94 17.95
Q 93.65 18.3 93.25 18.15 92.8 18.05 92.5 17.5
L 92.4 16.95
Q 92.4 16.45 92.7 16.05
M 92.45 32.85
Q 93.1 32.85 93.3 33.6 93.5 34.3 93.15 34.9
L 92.85 35.25
Q 92.6 35.35 92.3 35.25 92.2 35.25 91.95 35.05 91.8 34.95 91.65 34.55
L 91.55 33.9
Q 91.6 33.5 91.85 33.15 92.15 32.85 92.45 32.85
M 89.45 33.35
Q 89.35 33.55 89.2 33.6 88.8 33.95 88.4 33.7
L 88.2 33.45
Q 88.05 33.4 88.05 33.2
L 88 32.8 88 32.45 88.2 32.15
Q 88.4 31.9 88.6 31.9 88.75 31.9 88.75 31.8 89.25 32 89.45 32.25 89.55 32.55 89.55 32.95
L 89.45 33.35
M 33.35 -4.15
Q 33.45 -4.1 33.55 -4 34.15 -3.35 33.85 -2.35 33.7 -1.5 32.9 -1.05 32.2 -0.8 31.9 -0.6 31.25 -0.1 31.25 0.85 31.25 1.3 31.35 2.25 31.35 3.2 30.45 3.65 29.8 4 28.95 3.65 28.5 3.5 28.25 3.25 26.75 6.35 25.8 9.95 26.15 10.05 26.45 10.3 27.1 10.7 27.45 11.4 27.75 12.1 27.75 13 27.7 13.9 27.3 14.55 27 15 26.15 15.9 26.2 16.6 26.6 17.6 27 18.8 27.1 19.2 27.4 20.5 26.95 22.55 26.8 23.15 26.6 23.5
L 26.2 24.05
Q 26 24.45 25.75 25.25 25.35 26.15 24.55 26.4 24.3 26.5 24.05 26.5 24.05 28.35 24.05 30.8 24.05 31.3 24.05 31.8 24.2 31.85 24.3 31.9 24.5 32 26.8 32.55
L 29.05 33.4
Q 30.65 34 33.8 34.7
L 36.9 35.4
Q 39.7 36 41 36.15
L 43 36.25
Q 44.65 36.4 46.65 37.05 46.65 33.8 47.1 31.25 45.8 31.35 44.1 30.85 43.05 30.6 42.15 30.35
L 42.1 30.4
Q 41.75 31.05 41.15 31.35 40.6 31.65 38.7 31.9 38 32 37.65 31.85 37.25 31.75 36.7 30.95 36.1 30.05 35.95 29.3 35.9 29.15 35.9 29
L 34.6 28.75
Q 32 28.25 30.6 27.6 30.5 27.65 30.4 27.7 30.15 27.9 29.85 27.7 29.6 27.45 29.55 26.95 29.3 26.7 29.3 26.35 29.35 26.15 29.4 26 28.95 19.55 31.1 12.65 32.9 6.8 36.7 0.3 38.55 -2.5 39.25 -3.4 41.75 -6.6 45 -8.6 47.1 -9.9 49.3 -10.6 46.95 -10.85 45.1 -11.05 41.6 -10.1 38.6 -8.3 35.65 -6.55 33.35 -4.15
M 33.8 -0.15
Q 33.7 -0.5 33.8 -0.95 33.9 -1.35 34.2 -1.6 34.8 -2.2 35.45 -1.55 35.7 -1.2 35.75 -0.85 35.8 -0.45 35.65 -0.05 35.5 0.35 35.25 0.6 34.95 0.9 34.6 0.75 34.4 0.7 34.05 0.3
L 33.8 -0.15
M 41.15 34.35
Q 41.2 34.9 40.85 35.4 40.5 35.85 40 35.75 39.55 35.65 39.25 35.15
L 39.1 34.55 39.15 34.25
Q 39.15 33.95 39.4 33.55 39.8 33.15 40.1 33.3
L 40.1 33.15
Q 40.7 33.4 40.8 33.5
L 40.95 33.75
Q 41.15 34.15 41.15 34.35
M 30.45 6.95
Q 30.75 7.85 30.7 8.55 30.6 9.55 30.1 10.05 29.45 10.65 28.65 10.3 27.9 10 27.6 9 27.35 8.1 27.65 7.2 28.15 6.1 29.05 5.95 29.45 5.8 29.85 6.05 30.25 6.35 30.45 6.95 Z"/>

<path fill="#4B506B" stroke="none" d="
M 60.45 30.8
L 60.5 30.8 60.6 30.95
Q 60.8 31.1 61 31.35
L 61 31.3
Q 60.85 30.65 60.7 30.4
L 59.9 29.75 59.1 29.35
Q 58.15 28.95 56.1 29.5 55.45 29.7 55.15 29.9 54.75 30.25 54.45 30.9 53.7 32.1 53.25 33.5 52.45 36.4 53.2 39.2 52.3 39.3 51.85 39.15 51.35 38.9 51.15 38.8 50.2 38.6 49.8 38.3 49.6 38.1 49.45 38 49.25 37.85 49.1 37.9 48.65 38 48.75 38.6 48.75 38.7 48.75 38.75
L 51.7 39.35
Q 53.55 39.8 54.25 38.95 53.75 37.55 53.8 35.95 53.85 34.4 54.55 33.1 55.2 31.8 56.35 31 57.45 30.25 58.65 30.25 59.65 30.25 60.35 30.7 60.35 30.75 60.45 30.8
M 64.55 24.1
Q 63.6 23.3 63.05 23.05 61.95 22.55 60.15 22.65 58.95 22.65 57.8 22.8 56.6 23.05 55.1 23.65 52.7 24.65 51.3 26.1 50.85 26.55 50.5 27.1 49.25 29 48.65 31.8 49.2 32.55 50.1 32.8 51 33.1 51.75 32.7 53.55 31.8 53.8 29.15 53.95 27.45 53.35 25.75 56.15 24.6 58.55 24.75 60.75 24.85 62.6 26 64.6 27.2 65.7 29.25 67.05 31.7 67.15 35.4 67.25 37.35 66.9 40.9 67.3 40.85 67.65 40.8 67.65 40.55 67.7 40.35 67.85 39.05 67.85 38.65 67.7 37.05 67.65 36.25
L 67.45 32.95
Q 67.3 32.05 67.1 31.65 67.5 31.65 67.7 32.55 68.35 36.9 68.35 38.75 68.35 39.55 68.3 40.4 68.4 40.25 68.55 40.1 68.75 39.8 68.9 38.7 69.2 34.45 68.35 30.5 67.75 28 66.95 26.7 66.2 25.5 64.55 24.1
M 59.5 24.5
Q 59.65 24 60.35 24 60.8 23.95 62.2 24.3 63.9 24.8 64.65 25.3 66 26.15 66.4 27.6 66.6 28.35 66.25 28.4 66.05 28.45 65.75 27.9 65.05 26.3 62.9 25.55
L 61.2 25.1
Q 60.15 24.85 59.5 24.5
M 77.4 41.2
Q 77.1 41.15 76.65 40.6 75.35 39.05 74.5 38.85 73.45 38.65 72.5 39.55 71.95 40 71.35 41 71.7 41.15 72.6 41.5 73.95 42 75.8 42.35
L 81 43.4
Q 81 43.15 80.95 42.9 80.75 41.85 80.05 41.3 79.35 40.8 78.1 41.1 77.7 41.25 77.4 41.2
M 80.05 36.85
Q 79.05 36.75 78.05 36.65 77.8 37 77.75 37.55 77.7 38.1 77.9 38.55 78.15 39 78.6 39.15 79.05 39.35 79.45 39.15 79.85 38.95 80.1 38.45 80.3 37.95 80.2 37.45 80.2 37.1 80.05 36.85
M 95.6 36.8
Q 95.15 35.9 94.3 35.8 94.45 35.95 94.3 35.95
L 94.1 35.9
Q 93.9 35.85 93.7 36.05 93.05 36.5 92.85 37.5 92.8 37.65 92.85 37.85 92.6 37.7 92.25 37.65 92.35 37.75 92.1 37.75 91.8 37.7 91.45 38 90.8 38.55 90.9 39.55 90.95 40.15 91.35 40.6 91.75 41.05 92.2 41.05 92.75 41.1 93.15 40.65 93.55 40.2 93.6 39.6 93.95 39.9 94.45 39.85 95.4 39.75 95.75 38.6 95.75 38.55 95.8 38.55 95.9 37.85 95.8 37.3
L 95.8 37.25
Q 95.7 37 95.6 36.8
M 90.15 24.05
Q 89.75 23.3 89.75 23.05 89.75 22.65 90.1 22.3 90.3 22.1 90.7 21.7 91.2 21.1 91.3 19.4 91.45 16.15 91.25 14.55 91.15 14.2 91.1 13.95 88.85 19.95 88 27 89.25 27.7 89.9 27.1 90.5 26.65 90.5 25.7 90.55 24.8 90.15 24.05
M 110.4 -5.7
Q 109.8 -4.85 109.95 -4 110.05 -3.45 110.5 -2.95 111.3 -3.3 112.15 -3.45 112.5 -3.55 112.7 -3.4 113.1 -3.05 112.8 -2.8 110.25 -1.65 107.6 1.4 106.6 2.6 105.85 3.75 100.8 11.2 98.35 23.5 97.8 26.3 97.6 27.7 96.85 32.2 96 41.3
L 95.8 42.9
Q 95.8 41.3 95.8 39.7 95.65 40.7 95.65 41.55 95.3 41.35 94.95 41.35 94.45 41.3 93.7 41.85 93 42.45 92.75 43.05 92.5 43.75 92.65 44.5 92.7 44.95 92.9 45.3 94.35 45.5 95.2 45.65 95.75 45.8 96 45.95
L 96.15 46
Q 96.25 46.1 96.4 46.2
L 98.85 44.9
Q 98.75 37.6 99.9 30.35 101.25 21.8 104.35 14.1 107.6 5.75 111.95 2.7 113.1 1.9 113.55 1.45 114.35 0.6 114.5 -0.35 117.65 -2.4 121.1 -1.8 122.75 -1.55 123.15 -1.65 123.65 -1.75 124.05 -2.2 124.2 -2.35 124.3 -2.55 123.5 -2.95 122.65 -3.3 120.35 -4.1 116.25 -4.85 116.05 -4.9 115.85 -4.9 113.3 -5.3 110.4 -5.7
M 89.2 33.6
Q 89.35 33.55 89.45 33.35
L 89.55 32.95
Q 89.55 32.55 89.45 32.25 89.25 32 88.75 31.8 88.75 31.9 88.6 31.9 88.4 31.9 88.2 32.15
L 88 32.45 88 32.8 88.05 33.2
Q 88.05 33.4 88.2 33.45
L 88.4 33.7
Q 88.8 33.95 89.2 33.6
M 93.3 33.6
Q 93.1 32.85 92.45 32.85 92.15 32.85 91.85 33.15 91.6 33.5 91.55 33.9
L 91.65 34.55
Q 91.8 34.95 91.95 35.05 92.2 35.25 92.3 35.25 92.6 35.35 92.85 35.25
L 93.15 34.9
Q 93.5 34.3 93.3 33.6
M 93.4 15.65
Q 92.95 15.65 92.7 16.05 92.4 16.45 92.4 16.95
L 92.5 17.5
Q 92.8 18.05 93.25 18.15 93.65 18.3 94 17.95
L 94.3 17.45
Q 94.4 17.15 94.4 16.8 94.4 16.35 94.1 16 93.85 15.65 93.4 15.65
M 106.2 -3.6
L 105.95 -3.15
Q 105.75 -2.7 105.8 -2.35 105.9 -1.85 106.45 -1.65 106.75 -1.55 106.85 -1.6 106.9 -1.6 107.25 -1.95 107.4 -2.05 107.7 -2.25
L 107.85 -2.75
Q 107.95 -3.4 107.8 -3.65 107.6 -3.85 107.4 -3.85
L 106.75 -3.8
Q 106.4 -3.8 106.2 -3.6
M 26.45 10.3
Q 26.15 10.05 25.8 9.95 24.5 14.75 24.25 20.4 24.15 21.8 24.15 23.3 24.05 24.6 24.05 26.5 24.3 26.5 24.55 26.4 25.35 26.15 25.75 25.25 26 24.45 26.2 24.05
L 26.6 23.5
Q 26.8 23.15 26.95 22.55 27.4 20.5 27.1 19.2 27 18.8 26.6 17.6 26.2 16.6 26.15 15.9 27 15 27.3 14.55 27.7 13.9 27.75 13 27.75 12.1 27.45 11.4 27.1 10.7 26.45 10.3
M 42.1 30.4
L 42.15 30.35
Q 38.4 29.45 37.35 29.25
L 35.9 29
Q 35.9 29.15 35.95 29.3 36.1 30.05 36.7 30.95 37.25 31.75 37.65 31.85 38 32 38.7 31.9 40.6 31.65 41.15 31.35 41.75 31.05 42.1 30.4
M 33.55 -4
Q 33.45 -4.1 33.35 -4.15 31.65 -2.35 30.2 -0.25 29.15 1.4 28.25 3.25 28.5 3.5 28.95 3.65 29.8 4 30.45 3.65 31.35 3.2 31.35 2.25 31.25 1.3 31.25 0.85 31.25 -0.1 31.9 -0.6 32.2 -0.8 32.9 -1.05 33.7 -1.5 33.85 -2.35 34.15 -3.35 33.55 -4
M 30.7 8.55
Q 30.75 7.85 30.45 6.95 30.25 6.35 29.85 6.05 29.45 5.8 29.05 5.95 28.15 6.1 27.65 7.2 27.35 8.1 27.6 9 27.9 10 28.65 10.3 29.45 10.65 30.1 10.05 30.6 9.55 30.7 8.55
M 40.85 35.4
Q 41.2 34.9 41.15 34.35 41.15 34.15 40.95 33.75
L 40.8 33.5
Q 40.7 33.4 40.1 33.15
L 40.1 33.3
Q 39.8 33.15 39.4 33.55 39.15 33.95 39.15 34.25
L 39.1 34.55 39.25 35.15
Q 39.55 35.65 40 35.75 40.5 35.85 40.85 35.4
M 33.8 -0.95
Q 33.7 -0.5 33.8 -0.15
L 34.05 0.3
Q 34.4 0.7 34.6 0.75 34.95 0.9 35.25 0.6 35.5 0.35 35.65 -0.05 35.8 -0.45 35.75 -0.85 35.7 -1.2 35.45 -1.55 34.8 -2.2 34.2 -1.6 33.9 -1.35 33.8 -0.95 Z"/>

<path fill="#CC6600" stroke="none" d="
M 106.05 15.15
Q 105.95 15.4 105.9 15.6
L 112 13.15
Q 112.3 13.05 112.45 12.9 112.6 12.6 112.5 12.35
L 108.85 13.65 107.85 13.85 107.1 14.2 106.3 14.4
Q 106.15 14.75 106.05 15.15
M 130.05 16
Q 130 15.5 129.95 15
L 113.1 23.1
Q 114.4 23 116.85 21.9
L 119.85 20.6
Q 123.25 19.2 125.05 18.75
L 126.4 18.45 130.15 17
Q 130.1 16.3 130.05 16
M 53.2 -10.25
Q 53.05 -9.65 52.1 -9.35 46.7 -7.8 44.1 -5.85 40.75 -3.3 37.45 2.45 30.75 14.4 31.05 25.7 31.05 25.75 31.05 25.85 31.45 26 32.05 26.25 32.95 26.6 34.9 26.9 36.7 27.2 42.3 28.55
L 45.1 29.3
Q 46.4 29.7 47 29.8 47.25 29.85 47.45 29.9 48 27.65 49.05 25.95 49.5654296875 25.169921875 50.2 24.5 45.6 23.85 42.85 22.7 43.45 22.25 44.7 22.55 46.25 22.85 51.3 23.45 51 23.7 50.7 23.95 52.1775390625 22.599609375 54.15 21.75 56.7 20.65 60.2 20.55 61.75 20.45 62.65 20.75 64.15 21.2 66 22.8 67.6 24.25 68.35 25.35 68.5 25.65 68.65 25.95 70.95 26.5 72.8 27.25 72.05 27.65 70.35 27.65 69.85 27.65 69.35 27.65 69.65 28.6 69.9 29.85 70.25 31.7 70.35 33.6
L 70.4 33.6
Q 71.85 33.75 73 34.1 75.1 34.75 75.35 34.8
L 83.65 35.55
Q 85.35 35.7 86.35 35.9 86.3 35.1 86.35 34.15 86.5 23.5 89.4 14.75 91.45 8.55 94.65 3.85 90.65 3 88.4 2.65 87.15 2.45 83.7 2.05 80.7 1.7 78.95 1.35 72.15 -0.4 68.75 -1.2 62.65 -2.7 58.45 -2.25 61.1 -2.75 64.6 -2.3 66.65 -2.05 70.7 -1.3 73.35 -0.85 77.1 -0.6 78.45 -0.5 82.5 -0.35 85.85 -0.2 87.8 0 90.25 0.15 94.9 0.95
L 96.6 1.25
Q 97.6 0 98.75 -1.15 100.45 -2.85 102.25 -4.2 99.6 -4.55 97.05 -5 95.85 -5.2 95.6 -5.95 99.4 -5.8 103.75 -5.25 104.45 -5.7 105.1 -6.1 105.3 -6.2 105.5 -6.3 95.25 -7.45 81.45 -8.35 63.7 -9.35 53.2 -10.25
M 78.05 14.6
Q 77.35 14.8 75.4 14.7 63.7 13.5 53.4 11.6 45.2 10.15 40.1 8.25 37.55 7.2 35.5 6.25 35.55 6.15 35.65 6.05 37.45 5.7 40.25 6.1 43.65 6.65 49.8 8.6 56.35 10.6 59.4 11.2 61.35 11.6 64.8 12 68.6 12.45 70.15 12.7 74.55 13.45 78.05 14.6 Z"/>

<path fill="#483828" stroke="none" d="
M 128.1 7.65
Q 127.35 5.95 126.6 5.2 125.85 4.35 124.2 3.7 119.75 1.9 115.4 3.5 110.9 5.1 108.25 9.75 107.2 11.65 106.3 14.4
L 107.1 14.2 107.85 13.85 108.85 13.65 112.5 12.35
Q 112.6 12.6 112.45 12.9 112.3 13.05 112 13.15
L 105.9 15.6
Q 103.15 24.55 102.75 34.35 102.65 36.5 102.5 38
L 116.5 31.25
Q 122.8 28.3 123.5 28 125.75 27.1 126.85 26.45 128.55 25.45 128.9 25.35 129.75 24.95 130.55 25 130.55 24.95 130.55 24.9 130.25 19.1 130.15 17
L 126.4 18.45 125.05 18.75
Q 123.25 19.2 119.85 20.6
L 116.85 21.9
Q 114.4 23 113.1 23.1
L 129.95 15
Q 129.4 10.65 128.1 7.65
M 68.65 25.95
Q 69 26.7 69.35 27.65 69.85 27.65 70.35 27.65 72.05 27.65 72.8 27.25 70.95 26.5 68.65 25.95
M 42.85 22.7
Q 45.6 23.85 50.2 24.5
L 50.7 23.95
Q 51 23.7 51.3 23.45 46.25 22.85 44.7 22.55 43.45 22.25 42.85 22.7
M 95.6 -5.95
Q 95.85 -5.2 97.05 -5 99.6 -4.55 102.25 -4.2 102.35 -4.25 102.35 -4.3
L 103.2 -4.9
Q 103.5 -5.1 103.8 -5.25
L 103.75 -5.25
Q 99.4 -5.8 95.6 -5.95
M 77.1 -0.6
Q 73.35 -0.85 70.7 -1.3 66.65 -2.05 64.6 -2.3 61.1 -2.75 58.45 -2.25 62.65 -2.7 68.75 -1.2 72.15 -0.4 78.95 1.35 80.7 1.7 83.7 2.05 87.15 2.45 88.4 2.65 90.65 3 94.65 3.85 94.8 3.6 94.95 3.4
L 96.6 1.25 94.9 0.95
Q 90.25 0.15 87.8 0 85.85 -0.2 82.5 -0.35 78.45 -0.5 77.1 -0.6
M 75.4 14.7
Q 77.35 14.8 78.05 14.6 74.55 13.45 70.15 12.7 68.6 12.45 64.8 12 61.35 11.6 59.4 11.2 56.35 10.6 49.8 8.6 43.65 6.65 40.25 6.1 37.45 5.7 35.65 6.05 35.55 6.15 35.5 6.25 37.55 7.2 40.1 8.25 45.2 10.15 53.4 11.6 63.7 13.5 75.4 14.7 Z"/>
</g>
</defs>

<g transform="matrix( 1.558135986328125, 0, 0, 1.558135986328125, 30.4,146.4) ">
<g transform="matrix( 1, 0, 0, 1, 0,0) ">
<use xlink:href="#chest_0_Layer3_0_FILL"/>
</g>

<g transform="matrix( 1, 0, 0, 1, 0,0) ">
<use xlink:href="#chest_0_Layer2_0_FILL"/>
</g>
</g>
</svg>
