
<svg xmlns="http://www.w3.org/2000/svg" version="1.1" xmlns:xlink="http://www.w3.org/1999/xlink" preserveAspectRatio="none" x="0px" y="0px" width="300px" height="300px" viewBox="0 0 300 300">
<defs>
<g id="coin_4_Layer0_0_FILL">
<path fill="#FFCC00" stroke="none" d="
M 67.25 13.9
Q 65.65 11.85 61.3 8.2 58.6 6 57.35 5.3 56 4.5 54.2 3.9 53.1 3.1 51.75 2.35 51.65 2.3 51.6 2.3 51.3 1.95 50.75 1.65 48.45 0.45 45.25 0.1 43.15 -0.1 39.5 0.05
L 27.05 0.4
Q 23.6 0.5 21.75 0.75 18.8 1.2 16.75 2.3 15.1 3.2 12.55 5.55 7.7 10.3 4.65 15.7 1.25 21.6 0.35 27.65 -0.15 30.8 -0.05 36.3 0.15 45.6 2.25 50.8 4.05 55.25 7.6 58.9 11.05 62.45 15.55 64.7 22.85 68.3 31.65 68.25 31.75 68.25 31.85 68.3 41.45 71.9 54.55 66.15 62.85 62.5 66.8 57.2 69.85 53.1 71.75 45.8 73.3 40.1 73.4 36.75 73.5 33.4 72.6 28.15 70.9 18.65 67.25 13.9
M 47.25 8.3
Q 52.85 9.55 57.3 14.3 60.75 18 63.55 24.3 64.85 27.15 65.35 29.3 66.25 33 66.25 39.9 66.25 45 65.25 47.6 64.6 49.35 62.05 52.65 59.7 55.5 58.1 56.95 55.75 59.1 53.3 59.95 51.45 60.6 48.95 60.65 47.5 60.7 44.5 60.5 36.75 59.9 33 58.8 26.6 57 23.35 52.7 22.05 51.05 20.55 47.7 18.65 43.55 18.1 41.15 17.55 38.9 17.45 34.85 17.35 21.75 24.2 14.45 27.95 10.3 33.35 8.85 35.65 8.25 39.55 8.05 44.35 7.7 47.25 8.3
M 15.75 10.25
Q 18.05 7.95 19.8 7.15 21.7 6.3 25.45 6 21.35 8.35 18.45 12.05 12 20.1 11.9 35.6 11.8 50.5 17.85 58.15 19.95 60.7 23.05 63.1 21.9 62.7 20.85 62.3 13.1 59.2 9.4 53.7 6.7 49.75 5.6 44 3.85 35.05 6.6 25.95 9.35 16.85 15.75 10.25 Z"/>

<path fill="#B18E00" stroke="none" d="
M 19.8 7.15
Q 18.05 7.95 15.75 10.25 9.35 16.85 6.6 25.95 3.85 35.05 5.6 44 6.7 49.75 9.4 53.7 13.1 59.2 20.85 62.3 21.9 62.7 23.05 63.1 19.95 60.7 17.85 58.15 11.8 50.5 11.9 35.6 12 20.1 18.45 12.05 21.35 8.35 25.45 6 21.7 6.3 19.8 7.15 Z"/>

<path fill="#FFFF00" stroke="none" d="
M 57.3 14.3
Q 52.85 9.55 47.25 8.3 44.35 7.7 39.55 8.05 35.65 8.25 33.35 8.85 27.95 10.3 24.2 14.45 17.35 21.75 17.45 34.85 17.55 38.9 18.1 41.15 18.65 43.55 20.55 47.7 22.05 51.05 23.35 52.7 26.6 57 33 58.8 36.75 59.9 44.5 60.5 47.5 60.7 48.95 60.65 51.45 60.6 53.3 59.95 55.75 59.1 58.1 56.95 59.7 55.5 62.05 52.65 64.6 49.35 65.25 47.6 66.25 45 66.25 39.9 66.25 33 65.35 29.3 64.85 27.15 63.55 24.3 60.75 18 57.3 14.3 Z"/>
</g>
</defs>

<g transform="matrix( 1.558135986328125, 0, 0, 1.558135986328125, 30.4,146.4) ">
<g transform="matrix( 1, 0, 0, 1, 39.9,-33) ">
<g transform="matrix( 1, 0, 0, 1, 0,0) ">
<use xlink:href="#coin_4_Layer0_0_FILL"/>
</g>
</g>
</g>
</svg>
