
<svg xmlns="http://www.w3.org/2000/svg" version="1.1" xmlns:xlink="http://www.w3.org/1999/xlink" preserveAspectRatio="none" x="0px" y="0px" width="1000px" height="1000px" viewBox="0 0 1000 1000">
<defs>
<linearGradient id="Gradient_1" gradientUnits="userSpaceOnUse" x1="82.125" y1="23.9875" x2="79.875" y2="56.212500000000006" spreadMethod="pad">
<stop  offset="0%" stop-color="#333333"/>

<stop  offset="100%" stop-color="#666666"/>
</linearGradient>

<linearGradient id="Gradient_2" gradientUnits="userSpaceOnUse" x1="40.4875" y1="28.7625" x2="41.1125" y2="17.537499999999998" spreadMethod="pad">
<stop  offset="0%" stop-color="#666666"/>

<stop  offset="100%" stop-color="#FFFFFF"/>
</linearGradient>

<linearGradient id="Gradient_3" gradientUnits="userSpaceOnUse" x1="50.612500000000004" y1="28.450000000000003" x2="47.0875" y2="85.95" spreadMethod="pad">
<stop  offset="0%" stop-color="#666666"/>

<stop  offset="100%" stop-color="#E7E7E7"/>
</linearGradient>

<linearGradient id="Gradient_4" gradientUnits="userSpaceOnUse" x1="75.47500000000001" y1="55.9625" x2="74.425" y2="76.1375" spreadMethod="pad">
<stop  offset="0%" stop-color="#CCCCCC"/>

<stop  offset="100%" stop-color="#FFFFFF"/>
</linearGradient>

<linearGradient id="Gradient_5" gradientUnits="userSpaceOnUse" x1="42.1875" y1="64.52499999999999" x2="44.212500000000006" y2="88.575" spreadMethod="pad">
<stop  offset="0%" stop-color="#CCCCCC"/>

<stop  offset="100%" stop-color="#FFFFFF"/>
</linearGradient>

<g id="smith_anvil_0_Layer0_0_FILL">
<path fill="#000000" stroke="none" d="
M 41.4 -2.5
Q 38.6927734375 -2.3669921875 36.15 -2.25
L 33.85 0.4
Q 31.688671875 0.9357421875 29.6 1.45 13.123828125 5.784765625 3.1 10.25 -1.308984375 12.215625 -3.15 14.2 -5.64921875 16.9466796875 -5.3 19 -4.9470703125 21.053125 -3.4 24.5 -1.856640625 27.9462890625 17.8 33.7 37.45859375 39.501953125 38.3 38.2 38.3544921875 38.669140625 38.4 39.2 38.47734375 40.2828125 41 41.1 41.7486328125 41.3734375 42.7 41.6
L 47.4 42.65
Q 48.1 43.1 45.5 47.2 42.65 51.7 38.85 54.8 40.2 56.6 49.7 60.3 58.75 63.85 59.3 63.55 59.7 63.3 65.85 61.35 72.6 59.2 77.75 57.7 82.3 56.4 94.35 59.45 106.05 62.4 106.25 62.3 107.6 61.6 112.35 58.25 117.5 54.6 118.3 53.5 118.85 52.7 115.45 48.55 112.2431640625 44.71953125 112.3 43 112.33984375 42.8248046875 112.4 42.65 112.9 40.85 117.1 35.35 117.5279296875 34.789453125 117.95 34.25 119.3220703125 32.5603515625 120.55 31.3 123.24609375 28.615234375 125.2 28.3 128.2 27.85 134.4 27.25 134.99375 21.037890625 135.25 15.95 135.9998046875 3.5380859375 134.9 -2.05 127.683984375 -2.2546875 120.8 -2.45 71.57109375 -3.574609375 41.4 -2.5
M 125.35 16.75
Q 125.3123046875 19.03984375 125.25 19.6 122.7669921875 21.0658203125 120.6 22.45 110.810546875 28.896875 107.8 34.15 107.0724609375 35.5029296875 106.75 36.75 105.9216796875 39.9212890625 105.8 42.65
L 105.85 42.65
Q 105.85 43 105.95 44 106.05 45.35 106.25 45.9 107.5572265625 49.92734375 112.95 52.15
L 109.75 54.2 109.7 54.2
Q 104.55 57.75 104.2 57.85 84.4 50 79.85 49.95 77.75 50.05 67.7 54.35 57.95 58.55 57.55 59.2
L 46.9 54.65
Q 50.1 53.15 52.35 48.15 54.2 43.9 53.85 42.65 53.83359375 42.575390625 53.8 42.5 51.9919921875 34.601953125 41.75 33.9
L 39.25 25
Q 39.05 24.65 38.8 24.3 38.25 23.55 38.2 23.6 36.8453125 25.96484375 36.8 29 21.789453125 25.9328125 8.55 18.15
L 6.7 17.05
Q 6.627734375 16.9982421875 6.55 16.95 7.45 16.5 21.65 12.8 25.5712890625 11.7853515625 29.55 10.75 32.803515625 9.9353515625 36.1 9.1
L 36.9 12.65
Q 36.9267578125 12.7431640625 36.95 12.8 37.25 13.8 37.9 14.95 37.9357421875 15.016015625 37.95 15.05 38.558203125 16.128125 38.7 15.75 38.739453125 15.658203125 38.9 15.05 39.38828125 13.4703125 40.9 8.05
L 125.7 7.55
Q 125.6525390625 7.787109375 125.35 15.85 125.3654296875 16.3119140625 125.35 16.75 Z"/>

<path fill="#666666" stroke="none" d="
M 36.3 15.05
Q 36.8251953125 14.060546875 36.95 12.8 36.9267578125 12.7431640625 36.9 12.65
L 36.1 9.1
Q 32.803515625 9.9353515625 29.55 10.75 25.5712890625 11.7853515625 21.65 12.8 7.45 16.5 6.55 16.95 6.627734375 16.9982421875 6.7 17.05
L 8.55 18.15
Q 17.78515625 20.1025390625 28.1 19.2 34.5703125 18.6384765625 36.3 15.05
M 106.25 45.9
Q 103.25 42.9 103.25 42.95 103.3451171875 51.7255859375 109.7 54.2
L 109.75 54.2 112.95 52.15
Q 107.5572265625 49.92734375 106.25 45.9
M 125.35 15.85
Q 125.6525390625 7.787109375 125.7 7.55
L 40.9 8.05
Q 39.38828125 13.4703125 38.9 15.05 38.739453125 15.658203125 38.7 15.75 38.2927734375 19.5150390625 38.2 23.6 38.25 23.55 38.8 24.3 39.05 24.65 39.25 25 40.212890625 24.9322265625 41.15 24.85 56.7791015625 23.2943359375 74.6 21.55 106.7587890625 18.321484375 120.65 17.15 123.3482421875 16.9244140625 125.35 16.75 125.3654296875 16.3119140625 125.35 15.85 Z"/>

<path fill="#333333" stroke="none" d="
M 36.95 12.8
Q 36.8251953125 14.060546875 36.3 15.05 34.5703125 18.6384765625 28.1 19.2 17.78515625 20.1025390625 8.55 18.15 21.789453125 25.9328125 36.8 29 36.8453125 25.96484375 38.2 23.6 38.2927734375 19.5150390625 38.7 15.75 38.558203125 16.128125 37.95 15.05 37.9357421875 15.016015625 37.9 14.95 37.25 13.8 36.95 12.8 Z"/>

<path fill="url(#Gradient_1)" stroke="none" d="
M 125.25 19.6
Q 125.3123046875 19.03984375 125.35 16.75 123.3482421875 16.9244140625 120.65 17.15 106.7587890625 18.321484375 74.6 21.55 56.7791015625 23.2943359375 41.15 24.85 40.212890625 24.9322265625 39.25 25
L 41.75 33.9
Q 51.9919921875 34.601953125 53.8 42.5 53.83359375 42.575390625 53.85 42.65 54.2 43.9 52.35 48.15 50.1 53.15 46.9 54.65
L 57.55 59.2
Q 57.95 58.55 67.7 54.35 77.75 50.05 79.85 49.95 84.4 50 104.2 57.85 104.55 57.75 109.7 54.2 103.3451171875 51.7255859375 103.25 42.95 103.25 42.9 106.25 45.9 106.05 45.35 105.95 44 105.85 43 105.85 42.65
L 105.8 42.65
Q 105.9216796875 39.9212890625 106.75 36.75 107.0724609375 35.5029296875 107.8 34.15 110.810546875 28.896875 120.6 22.45 122.7669921875 21.0658203125 125.25 19.6 Z"/>
</g>

<g id="smithbody_2_Layer0_0_FILL">
<path fill="#000000" stroke="none" d="
M 51.5 43.1
Q 51.453125 42.67734375 51.2 42.25 51.341015625 42.0361328125 51.4 41.8 53.6 34.4 51.05 26.9 48.3716796875 18.9623046875 39.7 19.75 39.7330078125 19.70078125 39.75 19.65 40.35 18 39.05 13.5 37.4 7.8 33.3 7.6 29.1 7.4 21.05 8.35 12.35234375 9.401171875 8 10.15 3.643359375 10.8990234375 -1.25 19.9 -6.0984375 28.8884765625 -8.5 39.3 -10.549609375 48.25625 2.95 49.05 8.3412109375 51.4255859375 15.45 50.5 20.8705078125 49.7732421875 21 47.2 24.2 47.1 51.5 43.1
M 44.35 31.95
Q 45.0109375 31.5009765625 45.65 31.05
L 43.5 29.1 43.5 29.1
Q 43.0541015625 28.6994140625 42.6 28.25
L 40 24.15
Q 47.594921875 25.3130859375 47.55 32.6 47.5 36.05 45.45 38.9
L 48.5 41.4
Q 46.0662109375 41.059765625 43.55 41.05 41.2591796875 41.037890625 38.9 41.3 36.8833984375 41.499609375 35 41.95 35.05 41.75 37.45 38.55 36.61640625 38.7537109375 35.8 39 44 32.2 44.35 31.95
L 44.35 31.95
M 36.05 18.8
Q 35.9490234375 20.624609375 36.25 22.4 36.5056640625 23.6560546875 36.95 24.9 32.5 27.2 30.8 27.8 26.114453125 29.5412109375 21 29.55 21.3490234375 30.069921875 21.55 30.45 22.1244140625 30.51171875 22.65 30.5 26.6341796875 30.68125 30.65 30 35.65 29.2 37.35 26 37.5 26.25 38.8 28.45 40.3427734375 30.43359375 42.7 31.05 35.7 35.35 33.45 38.5 32.33046875 40.0888671875 30.7 40.65 26.2 41.2 24.6 41.2 24.1595703125 41.24375 23.7 41.25 22.1552734375 41.273828125 20.65 41.2 20.1806640625 42.3912109375 19.45 43.8 19.2130859375 43.5 18.9 43.15 19.8 36.4 18.25 33.5 18.230078125 33.4630859375 18.2 33.4 17.25 31.7 13.45 30.05 10.2 28.65 9.35 28.7 8.2 28.7 8.1 28.6 8.35 28.4 9.55 24.4 10.75 20.35 11.35 17.75 12.05 14.65 14.95 14 26.35 11.55 37.05 12.35 37.15 13.25 36.05 18.8
L 36.05 18.8
M 4.2 31.65
Q 3.7 32.3 3.8 33.9 12.1 30.45 15.45 38.2 16.5583984375 40.786328125 16.6 43.4 16.6173828125 44.3232421875 16.5 45.25 15.95 45.45 13.95 45.75 11.95 46.05 11.75 46.05 6.1083984375 46.4310546875 1.25 45.75 0.75 40.5 0.25 40.2 2.9 31.15 3.85 28.55 4.3 27.3 5.4 25.1 6.4 23 6.4 23.1
L 6.65 28.35
Q 6.65859375 28.433984375 6.65 28.5 6.7 28.8 4.3 31.55 4.2599609375 31.5958984375 4.2 31.65 Z"/>

<path fill="#666666" stroke="none" d="
M 16.5 45.25
Q 16.6173828125 44.3232421875 16.6 43.4 15.418359375 39.6224609375 10.95 35.55 11.8505859375 40.575390625 11.75 46.05 11.95 46.05 13.95 45.75 15.95 45.45 16.5 45.25
M 3.85 28.55
Q 4 30.85 4.2 31.65 4.2599609375 31.5958984375 4.3 31.55 6.7 28.8 6.65 28.5 6.65859375 28.433984375 6.65 28.35
L 6.4 23.1
Q 6.4 23 5.4 25.1 4.3 27.3 3.85 28.55
M 43.5 29.1
L 43.5 29.1
Q 42.3603515625 26.4001953125 40 24.15
L 42.6 28.25
Q 43.0541015625 28.6994140625 43.5 29.1
M 44.35 31.95
L 44.35 31.95
Q 44 32.2 35.8 39 36.61640625 38.7537109375 37.45 38.55 35.05 41.75 35 41.95 36.8833984375 41.499609375 38.9 41.3 41.2591796875 41.037890625 43.55 41.05 45.14609375 36.069140625 44.35 31.95 Z"/>

<path fill="#CCCCCC" stroke="none" d="
M 4.2 31.65
Q 4 30.85 3.85 28.55 2.9 31.15 0.25 40.2 0.75 40.5 1.25 45.75 6.1083984375 46.4310546875 11.75 46.05 11.8505859375 40.575390625 10.95 35.55 15.418359375 39.6224609375 16.6 43.4 16.5583984375 40.786328125 15.45 38.2 12.1 30.45 3.8 33.9 3.7 32.3 4.2 31.65
M 45.65 31.05
Q 45.0109375 31.5009765625 44.35 31.95 45.14609375 36.069140625 43.55 41.05 46.0662109375 41.059765625 48.5 41.4
L 45.45 38.9
Q 47.5 36.05 47.55 32.6 47.594921875 25.3130859375 40 24.15 42.3603515625 26.4001953125 43.5 29.1
L 45.65 31.05 Z"/>

<path fill="#FF3300" stroke="none" d="
M 30.7 40.65
Q 31.59765625 38.9888671875 32.25 36.9 28.398046875 38.24375 24.6 41.2 26.2 41.2 30.7 40.65
M 30.8 27.8
Q 32.5 27.2 36.95 24.9 36.5056640625 23.6560546875 36.25 22.4 33.756640625 25.8462890625 30.8 27.8
M 22.5 21.2
Q 31.7 21.35 36.05 18.8
L 36.05 18.8
Q 37.15 13.25 37.05 12.35 26.35 11.55 14.95 14 12.05 14.65 11.35 17.75 10.75 20.35 9.55 24.4 8.35 28.4 8.1 28.6 8.2 28.7 9.35 28.7 10.2 28.65 13.45 30.05 17.25 31.7 18.2 33.4 18.230078125 33.4630859375 18.25 33.5 19.8 36.4 18.9 43.15 19.2130859375 43.5 19.45 43.8 20.1806640625 42.3912109375 20.65 41.2 22.1552734375 41.273828125 23.7 41.25 23.2673828125 37.164453125 21.8 33.7 23.012890625 33.7197265625 24.3 33.65 34.365625 33.0767578125 38.8 28.45 37.5 26.25 37.35 26 35.65 29.2 30.65 30 26.6341796875 30.68125 22.65 30.5 17.2203125 30.744921875 10.75 27.35 10.95 26.8 12.25 24.15 13.75 21.3 14.05 20.6 17.85 21.15 22.5 21.2 Z"/>

<path fill="#FF9900" stroke="none" d="
M 24.3 33.65
Q 23.012890625 33.7197265625 21.8 33.7 23.2673828125 37.164453125 23.7 41.25 24.1595703125 41.24375 24.6 41.2 28.398046875 38.24375 32.25 36.9 31.59765625 38.9888671875 30.7 40.65 32.33046875 40.0888671875 33.45 38.5 35.7 35.35 42.7 31.05 40.3427734375 30.43359375 38.8 28.45 34.365625 33.0767578125 24.3 33.65
M 36.05 18.8
Q 31.7 21.35 22.5 21.2 17.85 21.15 14.05 20.6 13.75 21.3 12.25 24.15 10.95 26.8 10.75 27.35 17.2203125 30.744921875 22.65 30.5 22.1244140625 30.51171875 21.55 30.45 21.3490234375 30.069921875 21 29.55 26.114453125 29.5412109375 30.8 27.8 33.756640625 25.8462890625 36.25 22.4 35.9490234375 20.624609375 36.05 18.8 Z"/>
</g>

<g id="smithhammer_0_Layer1_0_FILL">
<path fill="#000000" stroke="none" d="
M 54 -0.95
Q 52.0525390625 -1.83359375 40.5 -0.8 28.9970703125 0.227734375 27.55 0.75 26.4421875 2.9701171875 25.85 7.9 25.253125 12.8763671875 25.95 13.55 26.698046875 14.2197265625 25 14.55 23.35390625 14.887890625 0.65 13.55 -0.0576171875 17.5662109375 -1.8 24.3 -5.2041015625 37.508203125 -5.95 50.55 -6.6458984375 63.6564453125 2.35 65.35 11.344921875 67.037109375 19.95 67.75 20.95 70.95 18.55 83.3 16.15 95.65 15.5 107.55 35.15 113.9 35.75 95.85 36.35 77.8 39.4 70.05 55.75 71.18125 79.15 71.95 80.09375 68.223828125 81.7 66.95 83.365625 65.6724609375 92.05 64.35 97.5591796875 48.2923828125 97.4 23.75
L 85.5 23.6
Q 83.9830078125 19.62265625 83.75 15.25 80.4341796875 13.279296875 70.55 13.5 60.88515625 13.76640625 58.75 14.95 59.44453125 14.5033203125 62.65 10.4 66.0962890625 6.05234375 66.05 4.3 66.003515625 2.5974609375 60.95 1.25 55.9482421875 -0.055078125 54 -0.95
M 89 30.6
L 87.7 43.2 86.5 55.25 86.5 55.5 86.5 56.55 79.7 58.3 79.8 56.25 80.3 44.55 80.95 30.6 89 30.6
M 75.7 22.75
Q 77.1755859375 22.9603515625 78.65 23.15 78.7822265625 24.756640625 78.35 30.6 77.6203125 40.21484375 75.35 61.3 74.2125 61.41328125 73.05 61.5 64.4 62.3 42.7 61.7 23.1 61.15 17.95 60.5 11.903515625 59.7130859375 5.85 58.65 5.257421875 57.568359375 4.8 56.45
L 3.85 53.35
Q 3.5 51.85 3.9 46.1 4.25 41.25 4.6 38.6 6.75 24.4 7.4 22.5 9.5 21.35 12.25 21.1 14.1 20.95 44.8 21.8 74.95 22.7 75.7 22.75
M 45 5.45
Q 53.25 4.5 54.45 4.45 56.128515625 4.4560546875 57.8 4.55 57.3578125 11.1447265625 53.5 15.2 49.6380859375 19.30390625 47.85 18.75 46.65 18.4 32.45 17.5 32.65 16.35 32.75 11.6 32.8 9.2 32.8 6.95 37.1 6.35 45 5.45
M 25.45 63.85
L 32.95 64.3
Q 29.591015625 73.5486328125 29.15 81.95 29.15 82.2 28.6 90.8 27.95 100.2 27.35 104.45 22.4 107.25 19.25 103.8 19.8 102.15 22.3 89.8 23 86.55 24.1 78.25 25.5 68.05 25.45 63.85 Z"/>

<path fill="#FF9900" stroke="none" d="
M 29.15 81.95
Q 25.77578125 86.071484375 22.3 89.8 19.8 102.15 19.25 103.8 22.4 107.25 27.35 104.45 27.95 100.2 28.6 90.8 29.15 82.2 29.15 81.95
M 54.45 4.45
Q 53.25 4.5 45 5.45 37.1 6.35 32.8 6.95 32.8 9.2 32.75 11.6 32.65 16.35 32.45 17.5 43.5462890625 11.0216796875 54.45 4.45
M 86.5 56.55
L 86.5 55.5
Q 86.059375 55.555859375 85.6 55.6 82.7068359375 55.8462890625 79.8 56.25
L 79.7 58.3 86.5 56.55
M 87.7 43.2
L 89 30.6 80.95 30.6 80.3 44.55
Q 84.0484375 43.5724609375 87.75 42.6
L 87.7 43.2 Z"/>

<path fill="#FF3300" stroke="none" d="
M 32.95 64.3
L 25.45 63.85
Q 25.5 68.05 24.1 78.25 23 86.55 22.3 89.8 25.77578125 86.071484375 29.15 81.95 29.591015625 73.5486328125 32.95 64.3
M 57.8 4.55
Q 56.128515625 4.4560546875 54.45 4.45 43.5462890625 11.0216796875 32.45 17.5 46.65 18.4 47.85 18.75 49.6380859375 19.30390625 53.5 15.2 57.3578125 11.1447265625 57.8 4.55
M 87.7 43.2
L 87.75 42.6
Q 84.0484375 43.5724609375 80.3 44.55
L 79.8 56.25
Q 82.7068359375 55.8462890625 85.6 55.6 86.059375 55.555859375 86.5 55.5
L 86.5 55.25 87.7 43.2 Z"/>

<path fill="#333333" stroke="none" d="
M 5.85 58.65
Q 11.903515625 59.7130859375 17.95 60.5 15 59.9 9.85 58.3 4.95 56.75 4.8 56.45 5.257421875 57.568359375 5.85 58.65
M 78.65 23.15
Q 77.1755859375 22.9603515625 75.7 22.75 76.505859375 28.8923828125 74.2 36.15 71.65 44.4 60.85 42.9 50.65 41.45 40.25 41.15 22.03203125 40.574609375 4.6 38.6 4.25 41.25 3.9 46.1 3.5 51.85 3.85 53.35 37.8962890625 59.6462890625 72.15 59 72.55 58.95 72.85 60.15 73.1 61.05 73.05 61.5 74.2125 61.41328125 75.35 61.3 77.6203125 40.21484375 78.35 30.6 78.7822265625 24.756640625 78.65 23.15 Z"/>

<path fill="#666666" stroke="none" d="
M 3.85 53.35
L 4.8 56.45
Q 4.95 56.75 9.85 58.3 15 59.9 17.95 60.5 23.1 61.15 42.7 61.7 64.4 62.3 73.05 61.5 73.1 61.05 72.85 60.15 72.55 58.95 72.15 59 37.8962890625 59.6462890625 3.85 53.35 Z"/>

<path fill="url(#Gradient_2)" stroke="none" d="
M 60.85 42.9
Q 71.65 44.4 74.2 36.15 76.505859375 28.8923828125 75.7 22.75 74.95 22.7 44.8 21.8 14.1 20.95 12.25 21.1 9.5 21.35 7.4 22.5 6.75 24.4 4.6 38.6 22.03203125 40.574609375 40.25 41.15 50.65 41.45 60.85 42.9 Z"/>
</g>

<g id="smithhammer_0_Layer0_0_FILL">
<path fill="#FF9900" stroke="none" d="
M 52.55 31.4
Q 52.4 31.15 52.25 30.85 51.5 29.9 50.25 29.75 48.95 29.65 47.65 29.65 46.9 30.25 46.35 30.9 46 31.3 45.8 31.85 45.65 32.2 45.65 32.6 45.55 33.6 46 34.55 46.45 35.55 47.3 36 48.2 36.45 49.05 36.75 52.15 36.5 52.9 33.5 53.2 32.4 52.55 31.4
M 58.8 24.3
Q 58.25 20.9 54.75 22.15 54.1 22.7 53.7 23.3 52.7 24.75 53.4 26.25 53.85 27.3 54.9 27.65 55.35 27.8 55.8 27.8 59.3 27.65 58.8 24.3 Z"/>
</g>

<g id="smithhand_1_Layer0_0_FILL">
<path fill="#000000" stroke="none" d="
M 23.1 7.45
Q 22.5041015625 1.5498046875 22 1.7 21.6 1.75 19.8 1.3 17.9 0.85 17.5 0.75 12.5 1.45 8.35 4.55 6.6935546875 5.813671875 5.3 7.2
L 2.9 6.75
Q -1.2544921875 7.9970703125 -6.25 15.65 -11.187109375 23.3640625 -3.45 29.25 4.3380859375 35.126953125 9.9 30.85 15.46015625 26.6240234375 16.55 24.15 19.2013671875 23.18359375 21.45 18.25 23.742578125 13.3556640625 23.1 7.45
M 7.45 12.95
Q 8.8 13.45 9.7 14.5 10.843359375 15.833984375 11.1 17.55 11.277734375 18.5373046875 11.15 19.65 10.9 21.7 9.65 22.8 8.25 24 6 23.9 4.2796875 23.9 3 23.3 2.046875 22.8443359375 1.35 22 1.272265625 21.9427734375 1.2 21.85 0.25 20.6 0.25 18.8 0.25 17.1 1.05 15.6 2.3 13.25 4.75 12.7 6.05 12.4 7.45 12.95
M 17.5 13.25
Q 17.0876953125 13.887890625 16.1 15.25 14.55 17.35 13.85 18.25 14.0595703125 14.90234375 12.3 12.65 11.1888671875 11.22421875 9.2 10.25 15.375 7.089453125 21.15 3.55 21.1 4.05 17.5 13.25 Z"/>

<path fill="#CCCCCC" stroke="none" d="
M 16 11.55
Q 15.2 10.4 15.3 10.3 13.8681640625 11.52421875 12.3 12.65 14.0595703125 14.90234375 13.85 18.25 14.55 17.35 16.1 15.25 17.0876953125 13.887890625 17.5 13.25 16.85 12.75 16 11.55
M 6 23.9
Q 8.25 24 9.65 22.8 10.9 21.7 11.15 19.65 11.277734375 18.5373046875 11.1 17.55 8.85 17.15 6.75 17.7 2.6 18.8 3 23.3 4.2796875 23.9 6 23.9 Z"/>

<path fill="#666666" stroke="none" d="
M 15.3 10.3
Q 15.2 10.4 16 11.55 16.85 12.75 17.5 13.25 21.1 4.05 21.15 3.55 15.375 7.089453125 9.2 10.25 11.1888671875 11.22421875 12.3 12.65 13.8681640625 11.52421875 15.3 10.3
M 9.7 14.5
Q 8.8 13.45 7.45 12.95 6.05 12.4 4.75 12.7 2.3 13.25 1.05 15.6 0.25 17.1 0.25 18.8 0.25 20.6 1.2 21.85 1.272265625 21.9427734375 1.35 22 2.046875 22.8443359375 3 23.3 2.6 18.8 6.75 17.7 8.85 17.15 11.1 17.55 10.843359375 15.833984375 9.7 14.5 Z"/>
</g>

<g id="smithhead_1_Layer0_0_FILL">
<path fill="#000000" stroke="none" d="
M 90.55 41.3
Q 92.424609375 7.9841796875 84.95 4.2 50.2298828125 16.162890625 27.2 14.35 4.2142578125 12.5375 5.1 29.3 5.7 40.15 10.8 62.25 16.55 87.25 20.95 90.7 30.8634765625 98.5380859375 51.2 95.2 71.5318359375 91.8412109375 80.1 83.25 88.7228515625 74.6634765625 90.55 41.3
M 15.9 22
Q 16.35 21.9 16.8 21.95 50.8 23.75 82.55 12.1 88.45 41.05 80.55 70.2 79.35 74.45 76.6 77.55 58.45 98.1 27.75 90.8 24.15 89.95 23.4 87.8 12.45 56.4 15.9 22
M 79.7 36.4
Q 76.2634765625 37.3025390625 72.75 38.05
L 59.85 40.55
Q 41.9830078125 43.437890625 23.4 43.6
L 22.55 43.6 24.25 45.8
Q 32.577734375 55.667578125 46.85 57.7 53.3376953125 58.5904296875 58.6 58.1 62.1 57.85 67.75 55.35 70.6 54.1 72.75 52.8 77.8451171875 48.512109375 79.8 40.8 80 39.9 80.2 38 80.35 36.3 80.3 36.25 80.0197265625 36.3576171875 79.7 36.4
M 71.95 42.75
Q 75.13125 41.76171875 78.25 40.55 77.55 43.75 73.3 46.85 51.872265625 62.514453125 28.8 46.65 28.6 46.6 28.75 46.4 28.85 46.15 29.05 46.2 32.21640625 46.63203125 35.35 46.85 54.24453125 48.3134765625 71.95 42.75 Z"/>

<path fill="url(#Gradient_3)" stroke="none" d="
M 16.8 21.95
Q 16.35 21.9 15.9 22 12.45 56.4 23.4 87.8 24.15 89.95 27.75 90.8 58.45 98.1 76.6 77.55 79.35 74.45 80.55 70.2 88.45 41.05 82.55 12.1 50.8 23.75 16.8 21.95
M 71.9 22.15
Q 75.1921875 21.1056640625 78.45 19.8 79.490625 27.9625 79.7 36.4 80.0197265625 36.3576171875 80.3 36.25 80.35 36.3 80.2 38 80 39.9 79.8 40.8 79.8279296875 48.5546875 79.2 56.55 77.9763671875 72.2298828125 70.4 80.8 63.9826171875 88.0693359375 53 90.2 49.35 90.95 41.25 90.25 33.1 89.55 32.65 88.5 23.911328125 68.3451171875 24.25 45.8
L 22.55 43.6 23.4 43.6
Q 23.6 43.6 25.1 35 26.6 26.45 26.7 26.45 42.9658203125 28.483203125 58.55 25.6 59.65 25.4 64.4 24.2 69.7 22.9 71.9 22.15 Z"/>

<path fill="url(#Gradient_4)" stroke="none" d="
M 72.75 52.8
Q 74.0634765625 66.6369140625 70.4 80.8 77.9763671875 72.2298828125 79.2 56.55 79.8279296875 48.5546875 79.8 40.8 77.8451171875 48.512109375 72.75 52.8 Z"/>

<path fill="url(#Gradient_5)" stroke="none" d="
M 58.6 58.1
Q 53.3376953125 58.5904296875 46.85 57.7 32.577734375 55.667578125 24.25 45.8 23.911328125 68.3451171875 32.65 88.5 33.1 89.55 41.25 90.25 49.35 90.95 53 90.2 55.4935546875 73.672265625 58.6 58.1 Z"/>

<path fill="#FFFFFF" stroke="none" d="
M 72.75 52.8
Q 70.6 54.1 67.75 55.35 62.1 57.85 58.6 58.1 55.4935546875 73.672265625 53 90.2 63.9826171875 88.0693359375 70.4 80.8 74.0634765625 66.6369140625 72.75 52.8
M 71.9 22.15
Q 69.7 22.9 64.4 24.2 59.65 25.4 58.55 25.6 58.4 26.75 58.95 33.65 59.55 40.6 59.85 40.55
L 72.75 38.05
Q 72.85 26.9 71.9 22.15 Z"/>

<path fill="#FF3300" stroke="none" d="
M 71.95 42.75
Q 70.0958984375 44.637109375 67.6 45.85 50.2197265625 54.27109375 35.35 46.85 32.21640625 46.63203125 29.05 46.2
L 28.8 46.65
Q 51.872265625 62.514453125 73.3 46.85 77.55 43.75 78.25 40.55 75.13125 41.76171875 71.95 42.75 Z"/>

<path fill="#FF9900" stroke="none" d="
M 67.6 45.85
Q 70.0958984375 44.637109375 71.95 42.75 54.24453125 48.3134765625 35.35 46.85 50.2197265625 54.27109375 67.6 45.85 Z"/>

<path fill="#CCCCCC" stroke="none" d="
M 59.85 40.55
Q 59.55 40.6 58.95 33.65 58.4 26.75 58.55 25.6 42.9658203125 28.483203125 26.7 26.45 26.6 26.45 25.1 35 23.6 43.6 23.4 43.6 41.9830078125 43.437890625 59.85 40.55
M 78.45 19.8
Q 75.1921875 21.1056640625 71.9 22.15 72.85 26.9 72.75 38.05 76.2634765625 37.3025390625 79.7 36.4 79.490625 27.9625 78.45 19.8 Z"/>
</g>

<g id="smith_attack_15_Layer0_0_FILL">
<path fill="#FF9900" stroke="none" d="
M -93.65 30.55
Q -96.1 32.25 -95.05 35.7 -94.55 37.45 -93.25 37.5 -85.05 37.7 -93.65 30.55
M -99.1 38.5
Q -101.45 41.55 -99.9 46.55 -99.3 48.5 -97.85 48.25 -88.7 46.75 -99.1 38.5 Z"/>
</g>
</defs>

<g transform="matrix( 0.825531005859375, 0, 0, 0.825531005859375, 453.45,330.95) ">
<g transform="matrix( 1, 0, 0, 1, 169.35,18.4) ">
<g transform="matrix( 0.9998779296875, -0.0089263916015625, 0.0089263916015625, 0.9998779296875, -189.85,126.35) ">
<g transform="matrix( 1, 0, 0, 1, 0,0) ">
<use xlink:href="#smith_anvil_0_Layer0_0_FILL"/>
</g>
</g>

<g transform="matrix( 1.1326904296875, 0.0601043701171875, -0.046478271484375, 0.876129150390625, -194.85,92.45) ">
<g transform="matrix( 1, 0, 0, 1, 0,0) ">
<use xlink:href="#smithbody_2_Layer0_0_FILL"/>
</g>
</g>

<g transform="matrix( 0.99285888671875, -0.1137237548828125, 0.1137237548828125, 0.99285888671875, -148.9,18.85) ">
<g transform="matrix( 1, 0, 0, 1, 0,0) ">
<use xlink:href="#smithhammer_0_Layer1_0_FILL"/>
</g>

<g transform="matrix( 1, 0, 0, 1, 0,0) ">
<use xlink:href="#smithhammer_0_Layer0_0_FILL"/>
</g>
</g>

<g transform="matrix( -0.998046875, 0.0411834716796875, 0.0411834716796875, 0.998046875, -106.75,81.4) ">
<g transform="matrix( 1, 0, 0, 1, 0,0) ">
<use xlink:href="#smithhand_1_Layer0_0_FILL"/>
</g>
</g>

<g transform="matrix( 0.19952392578125, -0.9793853759765625, -0.9793853759765625, -0.19952392578125, -188.15,126.15) ">
<g transform="matrix( 1, 0, 0, 1, 0,0) ">
<use xlink:href="#smithhand_1_Layer0_0_FILL"/>
</g>
</g>

<g transform="matrix( 0.9218597412109375, 0.3867645263671875, -0.3867645263671875, 0.9218597412109375, -167.75,24.05) ">
<g transform="matrix( 1, 0, 0, 1, 0,0) ">
<use xlink:href="#smithhead_1_Layer0_0_FILL"/>
</g>
</g>

<g transform="matrix( 1, 0, 0, 1, 0,0) ">
<use xlink:href="#smith_attack_15_Layer0_0_FILL"/>
</g>
</g>
</g>
</svg>
