
<svg xmlns="http://www.w3.org/2000/svg" version="1.1" xmlns:xlink="http://www.w3.org/1999/xlink" preserveAspectRatio="none" x="0px" y="0px" width="1000px" height="1000px" viewBox="0 0 1000 1000">
<defs>
<g id="Symbol_16_0_Layer1_0_FILL">
<path fill="#FFFFFF" stroke="none" d="
M 111.65 -5.2
Q 109.8 -5.25 107.95 -5.25 61.05 -5.25 27.85 27.85 13.75 42.05 5.65 58.7 -5.25 81.05 -5.25 107.95 -5.25 122.5 -2 135.7
L -2.1 135.7
Q -1.95 136.2 -1.8 136.7
L 3 151.3
Q 3.05 151.45 3.15 151.6 3.25 151.8 3.35 152.1 3.6 152.85 3.95 153.55 6.75 159.8 10.3 165.8 14.6 172.85 20.15 179.5 23.8 183.85 27.85 187.95 32.5 192.6 37.35 196.55 52.2 208.65 69.5 214.8 69.65 214.85 69.8 214.9 70 214.95 70.15 215.05 70.3 215.1 70.55 215.15 70.75 215.2 70.95 215.25 71.1 215.3 71.25 215.35 71.35 215.4 71.45 215.4 83.3 219.4 96.25 220.6
L 96.35 220.6
Q 102 221.15 107.95 221.15 154.85 221.15 187.95 187.95 207.9 168 215.85 143.1 219.35 132.25 220.55 120.45 221 115.65 221.15 110.75 221.15 109.35 221.15 107.95 221.15 105 221.05 102.1 220.4 88.95 217.15 76.95 209.55 49.5 187.95 27.85 184.3 24.2 180.4 20.85 150.95 -4.1 111.65 -5.2
M 175 174.9
Q 174.55 175.4 174.15 175.85
L 142.6 196.55
Q 142.5 196.6 142.3 196.65 126.5 202.75 108.05 202.75 86.4 202.75 68.2 194.3 53.4 187.35 41 174.9 31.6 165.55 25.4 154.85 13.35 133.9 13.35 107.95 13.35 89.35 19.6 73.35 19.8 72.85 20 72.25
L 24.6 62.55
Q 27.5 57.3 31.1 52.4 31.55 51.8 32 51.2 36.05 45.9 41 40.95 48.2 33.75 56.2 28.45 76.4 14.9 101.7 13.45 104.8 13.25 108.05 13.25 147.25 13.25 175 40.95 202.8 68.8 202.8 107.95 202.8 122.25 199.15 135.05 192.75 157.35 175 174.9 Z"/>
</g>

<g id="Symbol_16_0_Layer0_0_FILL">
<path fill="#ECECEC" stroke="none" d="
M 70 190.05
Q 69.45 190.55 68.9 191.15 67.7 192.45 66.55 193.6 66.3 193.45 66.1 193.4 78.95 199.7 93.55 201.8 100.5 202.75 107.85 202.75 123.75 202.75 137.75 198.2 139 195.25 140.55 192.3 125.45 198.1 107.9 198.1 87.3 198.1 70 190.05
M 16.7 80.55
Q 14.6 87.7 13.7 95.35 12.95 101.4 12.95 107.8 12.95 113.5 13.55 118.95 15.75 139.6 26.3 156.75 27.6 154.5 29.2 152.45 17.7 132.55 17.7 107.8 17.7 90.08359375 23.65 74.85 20.15 77.7 16.7 80.55
M 47.5 34.5
L 47.45 34.5
Q 44 37.4 40.7 40.7 27.8 53.6 20.95 69 28.1 61.2 35.5 53.8 39.35 48.7 44.05 44 50.9 37.15 58.5 32.1 61.55 29.4 64.7 26.75
L 65.4 26.4 48.8 33.4
Q 48.15 33.95 47.5 34.5
M 174.95 40.7
Q 172.15 37.9 169.25 35.4 157 24.85 142.75 19.25 131.35 14.75 118.7 13.45 114.1 13 109.35 12.9 106.55 14.75 103.75 16.55 102.8 17.15 101.85 17.8 104.85 17.6 107.9 17.6 145.25 17.6 171.7 44 198.15 70.5 198.15 107.8 198.15 121.4 194.65 133.6 197.7 130.7 200.8 127.9 202.75 118.25 202.75 107.8 202.75 98.45 201.2 89.75 196.15 61.9 174.95 40.7 Z"/>

<path fill="#999999" stroke="none" d="
M 46.2 187.65
Q 43.35 189.9 40.6 192.2 54.7 203.7 71.2 209.55 74.35 206.9 77.55 204.3 77.85 204.4 78.25 204.5 60.9 199.3 46.2 187.65
M 22.1 54.45
Q 16.25 57.75 10.4 60.9 0 82.2 0 107.8 0 121.6720703125 3.05 134.25 6.35625 132.797265625 9.65 131.35 8.7 127.15 8.1 122.85 7.5 118.55 7.3 114.05 7.1 111.4 7.1 108.7 7.1 108.25 7.1 107.8 7.1 107.4 7.1 107.05 7.1 106.9 7.1 106.8
L 7.25 102.25
Q 8.5 75.8 22.1 54.45
M 184 184
Q 203 165 210.6 141.3 205.85 144.05 201.1 146.9 193.7 164.5 179.1 179.05 150.15 208.1 109.45 208.65 103.15 212.25 96.75 215.1 102.15 215.6 107.8 215.6 152.45 215.6 184 184
M 206.15 84.75
Q 206.186328125 84.800390625 206.2 84.85 208.5521484375 95.3486328125 208.65 106.75 212.05 104.5 215.5 102.25 214.9 89.7 211.8 78.3 208.6 79.95 205.5 81.65 205.8 83 206.1 84.4 206.1408203125 84.578125 206.15 84.75
M 169.9 28.3
Q 173.35 26.6 176.8 24.9 148.75 1.1 111.3 0.05 104.4 3.65 97.65 7.5 102.65 7.05 107.85 7.05 109.5 7.05 111.1 7.1 118.55 7.3 125.65 8.5 128.15 8.9 130.65 9.45 139.85 11.45 148.4 15.2 159.7529296875 20.19140625 169.9 28.3 Z"/>

<path fill="#FFFFFF" stroke="none" d="
M 26.3 156.75
Q 26.35 156.85 26.45 157
L 29.65 161.9
Q 29.9 162.25 30.2 162.6 28.05 164.7 26 166.85 30.25 172.55 35.45 177.9 36 178.5 36.55 179.05 41.2 183.7 46.2 187.65 60.9 199.3 78.25 204.5
L 88.85 207
Q 89.15 207.05 89.5 207.15 91.5 204.45 93.55 201.8 78.95 199.7 66.1 193.4 66.3 193.45 66.55 193.6 67.7 192.45 68.9 191.15 69.45 190.55 70 190.05 55.9 183.45 44.05 171.6 35.1 162.65 29.2 152.45 27.6 154.5 26.3 156.75
M 7.25 102.25
L 7.1 106.8
Q 7.1 106.9 7.1 107.05 7.1 107.4 7.1 107.8 7.1 108.25 7.1 108.7 7.1 111.4 7.3 114.05 7.5 118.55 8.1 122.85 10.8 120.9 13.55 118.95 12.95 113.5 12.95 107.8 12.95 101.4 13.7 95.35 10.5 98.05 7.35 100.75 7.3 101.5 7.25 102.25
M 20.95 69
L 20.9 69
Q 18.4 74.6 16.65 80.6
L 16.7 80.55
Q 20.15 77.7 23.65 74.85 23.8474609375 74.3490234375 24.05 73.85
L 28.45 64.55
Q 31.2 59.6 34.65 54.9 35.05 54.35 35.5 53.8 28.1 61.2 20.95 69
M 101.85 17.8
Q 102.8 17.15 103.75 16.55 106.55 14.75 109.35 12.9
L 107.85 12.9
Q 101.7 12.9 95.9 13.6 103.45 10.35 111.1 7.1 109.5 7.05 107.85 7.05 102.65 7.05 97.65 7.5 72.1 9.85 51.4 24.05 51.25 24.15 51.05 24.3 50.9 24.4 50.7 24.55 50.55 24.65 50.35 24.8 50.15 24.9 50 25.05 49.8 25.2 49.6 25.35 49.4 25.45 49.25 25.6 49.05 25.75 48.85 25.9 48.65 26 48.5 26.15 48.35 26.25 48.15 26.4 47.95 26.55 47.8 26.7 47.55 26.85 47.4 27 47.2 27.15 47 27.3 46.8 27.45 46.6 27.65 46.4 27.8 46.2 27.95 46 28.1 45.8 28.3 45.6 28.45 45.4 28.6 45.2 28.75 45 28.95 44.55 29.3 44.15 29.65 43.95 29.8 43.75 29.95 43.55 30.1 43.35 30.3 43.1 30.45 42.9 30.65 42.7 30.85 42.5 31.05 42.3 31.2 42.1 31.4 41.85 31.55 41.65 31.75 41.45 31.95 41.25 32.15 41 32.35 40.8 32.55 40.7 32.65 40.6 32.75 39.8 33.45 39.05 34.2 38.7 34.5 38.35 34.8 38 35.1 37.7 35.45 37.1 36 36.55 36.55 36.45 36.65 36.35 36.75 36.25 36.85 36.2 36.9 36.1 37 36.05 37.05 36 37.1 35.9 37.2
L 33.05 40.2
Q 32.6 40.7 32.15 41.25 39.8 37.85 47.45 34.5
L 47.5 34.5
Q 48.15 33.95 48.8 33.4
L 65.4 26.4 64.7 26.75
Q 61.55 29.4 58.5 32.1 77.8 19.2 101.85 17.8
M 142.75 19.25
Q 145.5 17.15 148.4 15.2 139.85 11.45 130.65 9.45 128.15 8.9 125.65 8.5 122.15 10.95 118.7 13.45 131.35 14.75 142.75 19.25
M 200.8 127.9
Q 197.7 130.7 194.65 133.6 188.55 154.85 171.7 171.6 171.25 172.05 170.85 172.45 152.846484375 188.28203125 140.8 192.2 140.7 192.25 140.55 192.3 139 195.25 137.75 198.2 158.4 191.5 174.95 174.9 195.35 154.5 200.8 127.9
M 169.25 35.4
Q 172.15 37.9 174.95 40.7 196.15 61.9 201.2 89.75 203.75 87.3 206.2 84.85 206.186328125 84.800390625 206.15 84.75 206.1408203125 84.578125 206.1 84.4 205.8 83 205.5 81.65 198.85 53.35 183.9 41.65 183.8 41.55 183.75 41.5 183.2 40.85 182.65 40.25 180.9 38.35 179.1 36.55 176.5 33.95 173.85 31.6 171.55 33.5 169.25 35.4 Z"/>

<path fill="#CCCCCC" stroke="none" d="
M 13.55 118.95
Q 10.8 120.9 8.1 122.85 8.7 127.15 9.65 131.35 6.35625 132.797265625 3.05 134.25
L 3.05 134.25
Q 3.15 134.75 3.3 135.2
L 7.85 149.1
Q 7.9 149.25 8 149.4 8.1 149.6 8.2 149.85 8.45 150.55 8.8 151.25 11.4 157.2 14.85 162.9 18.95 169.65 24.2 175.95 27.65 180.1 31.55 184 35.95 188.4 40.6 192.2 43.35 189.9 46.2 187.65 41.2 183.7 36.55 179.05 36 178.5 35.45 177.9 30.25 172.55 26 166.85 28.05 164.7 30.2 162.6 29.9 162.25 29.65 161.9
L 26.45 157
Q 26.35 156.85 26.3 156.75 15.75 139.6 13.55 118.95
M 107.85 12.9
L 109.35 12.9
Q 114.1 13 118.7 13.45 122.15 10.95 125.65 8.5 118.55 7.3 111.1 7.1 103.45 10.35 95.9 13.6 101.7 12.9 107.85 12.9
M 111.3 0.05
Q 109.55 0 107.8 0 63.15 0 31.55 31.55 18.1 45.05 10.4 60.9 16.25 57.75 22.1 54.45 8.5 75.8 7.25 102.25 7.3 101.5 7.35 100.75 10.5 98.05 13.7 95.35 14.6 87.7 16.7 80.55
L 16.65 80.6
Q 18.4 74.6 20.9 69
L 20.95 69
Q 27.8 53.6 40.7 40.7 44 37.4 47.45 34.5 39.8 37.85 32.15 41.25 32.6 40.7 33.05 40.2
L 35.9 37.2
Q 36 37.1 36.05 37.05 36.1 37 36.2 36.9 36.25 36.85 36.35 36.75 36.45 36.65 36.55 36.55 37.1 36 37.7 35.45 38 35.1 38.35 34.8 38.7 34.5 39.05 34.2 39.8 33.45 40.6 32.75 40.7 32.65 40.8 32.55 41 32.35 41.25 32.15 41.45 31.95 41.65 31.75 41.85 31.55 42.1 31.4 42.3 31.2 42.5 31.05 42.7 30.85 42.9 30.65 43.1 30.45 43.35 30.3 43.55 30.1 43.75 29.95 43.95 29.8 44.15 29.65 44.55 29.3 45 28.95 45.2 28.75 45.4 28.6 45.6 28.45 45.8 28.3 46 28.1 46.2 27.95 46.4 27.8 46.6 27.65 46.8 27.45 47 27.3 47.2 27.15 47.4 27 47.55 26.85 47.8 26.7 47.95 26.55 48.15 26.4 48.35 26.25 48.5 26.15 48.65 26 48.85 25.9 49.05 25.75 49.25 25.6 49.4 25.45 49.6 25.35 49.8 25.2 50 25.05 50.15 24.9 50.35 24.8 50.55 24.65 50.7 24.55 50.9 24.4 51.05 24.3 51.25 24.15 51.4 24.05 72.1 9.85 97.65 7.5 104.4 3.65 111.3 0.05
M 206.2 84.85
Q 203.75 87.3 201.2 89.75 202.75 98.45 202.75 107.8 202.75 118.25 200.8 127.9 195.35 154.5 174.95 174.9 158.4 191.5 137.75 198.2 123.75 202.75 107.85 202.75 100.5 202.75 93.55 201.8 91.5 204.45 89.5 207.15 89.15 207.05 88.85 207
L 78.25 204.5
Q 77.85 204.4 77.55 204.3 74.35 206.9 71.2 209.55 71.35 209.6 71.5 209.65 71.7 209.7 71.85 209.8 72 209.85 72.2 209.9 72.35 209.95 72.55 210 72.7 210.05 72.85 210.1 72.95 210.15 73.05 210.15 84.35 213.95 96.7 215.1
L 96.75 215.1
Q 103.15 212.25 109.45 208.65 150.15 208.1 179.1 179.05 193.7 164.5 201.1 146.9 205.85 144.05 210.6 141.3 213.9 130.95 215.05 119.7 215.45 115.15 215.6 110.5 215.6 109.15 215.6 107.8 215.6 105 215.5 102.25 212.05 104.5 208.65 106.75 208.5521484375 95.3486328125 206.2 84.85
M 184 31.55
Q 180.5 28.05 176.8 24.9 173.35 26.6 169.9 28.3 159.7529296875 20.19140625 148.4 15.2 145.5 17.15 142.75 19.25 157 24.85 169.25 35.4 171.55 33.5 173.85 31.6 176.5 33.95 179.1 36.55 180.9 38.35 182.65 40.25 183.2 40.85 183.75 41.5 183.8 41.55 183.9 41.65 198.85 53.35 205.5 81.65 208.6 79.95 211.8 78.3 204.6 52.15 184 31.55 Z"/>
</g>

<g id="Symbol_17_0_Layer1_0_FILL">
<path fill="#FFFFFF" stroke="none" d="
M 96.15 50.6
L 96.15 50.35 89.8 -4.7 -0.45 -4.7 -4.35 49.25
Q -0.1 60.1 7 69.65
L 20.3 84.3
Q 20.4 84.35 20.6 84.5 29.35 92.4 40.5 99.2 44.7 101.65 49.2 104 81.7 78.45 96.15 50.6 Z"/>
</g>

<g id="Symbol_17_0_Layer0_0_FILL">
<path fill="#CCCCCC" stroke="none" d="
M 48.45 92.2
Q 54.65 87.35 60 82.35 53.55 86.95 47.1 91.5 47.75 91.85 48.45 92.2
M 11.1 45.4
Q 8.8 46.85 6.6 48.35
L 6.5 49.3
Q 9.45 56.75 14.1 63.45 11.95 65.3 9.85 67.15 10.1 67.45 10.35 67.85
L 22.5 81.2
Q 22.6 81.25 22.75 81.4 30.75 88.6 40.95 94.8 43.3 92.75 45.7 90.7 34.15 84.35 25.65 76.55 27 75.35 28.4 74.15 19.75 66.4 14.5 57.05 12.35 53.35 10.8 49.35
L 11.1 45.4
M 47.25 7.05
Q 52.75 3.4 58.45 0
L 15.55 0
Q 9 5.25 2.8 10.8
L 0.25 46.25
Q 3.75 43.1 7.2 39.8
L 8.6 20.55
Q 9.55 19.9 10.5 19.3 11.8 18.5 13.1 17.65
L 13.5 11.7 22.55 11.7
Q 26.25 9.35 30.05 7.05
L 47.25 7.05
M 85.2 50.35
Q 85.1 50.55 85 50.75 84.25 52.1 83.5 53.45 83 54.35 82.5 55.2 82.05 55.9 81.65 56.6 81.45 56.95 81.2 57.3
L 79.5 59.35
Q 85.4 54.45 91.7 50.25
L 86.25 3
Q 83.3 5.35 80.35 7.8
L 80.25 7.05 70.45 7.05
Q 67.1 9.4 63.7 11.7
L 76.5 11.7 76.9 14.95
Q 78.75 13.35 80.8 11.8
L 85.2 50.35 Z"/>

<path fill="#ECECEC" stroke="none" d="
M 12 32.65
L 11.1 45.4 10.8 49.35
Q 12.35 53.35 14.5 57.05 37 33.3 61.7 11.7
L 34.2 11.7
Q 23.25 22.45 12 32.65
M 48.15 87.55
Q 70.85 69.75 80.9 50.25
L 79.3 36.15
Q 57.65 58.35 36.2 80.3 41.65 84.15 48.15 87.55 Z"/>

<path fill="#999999" stroke="none" d="
M 0.25 46.25
L 0 49.25
Q 3.9 59.15 10.35 67.85 10.1 67.45 9.85 67.15 11.95 65.3 14.1 63.45 9.45 56.75 6.5 49.3
L 6.6 48.35 7.2 39.8
Q 3.75 43.1 0.25 46.25
M 3.55 0
L 2.8 10.8
Q 9 5.25 15.55 0
L 3.55 0
M 91.7 50.45
L 91.7 50.25
Q 85.4 54.45 79.5 59.35
L 60.85 81.6
Q 60.45 81.95 60.1 82.3 60.05 82.3 60 82.35 54.65 87.35 48.45 92.2 47.75 91.85 47.1 91.5 46.35 91.1 45.7 90.7 43.3 92.75 40.95 94.8 44.75 97.05 48.85 99.2 78.55 75.9 91.7 50.45
M 86.25 3
L 85.9 0 58.45 0
Q 52.75 3.4 47.25 7.05
L 70.45 7.05 80.25 7.05 80.35 7.8
Q 83.3 5.35 86.25 3 Z"/>

<path fill="#FFFFFF" stroke="none" d="
M 85 50.75
Q 85.1 50.55 85.2 50.35
L 80.8 11.8
Q 78.75 13.35 76.9 14.95
L 76.5 11.7 63.7 11.7
Q 67.1 9.4 70.45 7.05
L 47.25 7.05 30.05 7.05
Q 26.25 9.35 22.55 11.7
L 13.5 11.7 13.1 17.65
Q 11.8 18.5 10.5 19.3 9.55 19.9 8.6 20.55
L 7.2 39.8 6.6 48.35
Q 8.8 46.85 11.1 45.4
L 12 32.65
Q 23.25 22.45 34.2 11.7
L 61.7 11.7
Q 37 33.3 14.5 57.05 19.75 66.4 28.4 74.15 27 75.35 25.65 76.55 34.15 84.35 45.7 90.7 46.35 91.1 47.1 91.5 53.55 86.95 60 82.35 60.05 82.3 60.1 82.3 60.45 81.95 60.85 81.6
L 79.5 59.35 81.2 57.3
Q 81.45 56.95 81.65 56.6 82.05 55.9 82.5 55.2 83 54.35 83.5 53.45 84.25 52.1 85 50.75
M 80.9 50.25
Q 70.85 69.75 48.15 87.55 41.65 84.15 36.2 80.3 57.65 58.35 79.3 36.15
L 80.9 50.25 Z"/>
</g>
</defs>

<g transform="matrix( 0.825531005859375, 0, 0, 0.825531005859375, 453.45,330.95) ">
<g transform="matrix( 1, 0, 0, 1, -48.95,-14.85) ">
<g transform="matrix( 0.5, 0.86602783203125, -0.86602783203125, 0.5, 147.25,-39.45) ">
<g transform="matrix( 1, 0, 0, 1, 0,0) ">
<use xlink:href="#Symbol_16_0_Layer1_0_FILL"/>
</g>

<g transform="matrix( 1, 0, 0, 1, 0,0) ">
<use xlink:href="#Symbol_16_0_Layer0_0_FILL"/>
</g>
</g>

<g transform="matrix( 1.034637451171875, 0, 0, 1.034637451171875, 62.7,64.2) ">
<g transform="matrix( 1, 0, 0, 1, 0,0) ">
<use xlink:href="#Symbol_17_0_Layer1_0_FILL"/>
</g>

<g transform="matrix( 1, 0, 0, 1, 0,0) ">
<use xlink:href="#Symbol_17_0_Layer0_0_FILL"/>
</g>
</g>
</g>
</g>
</svg>
