
<svg xmlns="http://www.w3.org/2000/svg" version="1.1" xmlns:xlink="http://www.w3.org/1999/xlink" preserveAspectRatio="none" x="0px" y="0px" width="1000px" height="1000px" viewBox="0 0 1000 1000">
<defs>
<linearGradient id="Gradient_1" gradientUnits="userSpaceOnUse" x1="12.1375" y1="7.675000000000001" x2="17.3625" y2="24.525000000000002" spreadMethod="pad">
<stop  offset="0%" stop-color="#FFFFFF"/>

<stop  offset="100%" stop-color="#424242"/>
</linearGradient>

<linearGradient id="Gradient_2" gradientUnits="userSpaceOnUse" x1="36.262499999999996" y1="31.4375" x2="35.8375" y2="51.962500000000006" spreadMethod="pad">
<stop  offset="0%" stop-color="#FFFFFF"/>

<stop  offset="100%" stop-color="#424242"/>
</linearGradient>

<linearGradient id="Gradient_3" gradientUnits="userSpaceOnUse" x1="51.5625" y1="77.525" x2="55.4375" y2="103.375" spreadMethod="pad">
<stop  offset="0%" stop-color="#FFFFFF"/>

<stop  offset="100%" stop-color="#424242"/>
</linearGradient>

<linearGradient id="Gradient_4" gradientUnits="userSpaceOnUse" x1="46.4625" y1="13.874999999999996" x2="53.137499999999996" y2="62.724999999999994" spreadMethod="pad">
<stop  offset="0%" stop-color="#FFFFFF"/>

<stop  offset="100%" stop-color="#424242"/>
</linearGradient>

<linearGradient id="Gradient_5" gradientUnits="userSpaceOnUse" x1="12.725" y1="1.4125" x2="14.775" y2="9.387500000000001" spreadMethod="pad">
<stop  offset="0%" stop-color="#FFFFFF"/>

<stop  offset="100%" stop-color="#424242"/>
</linearGradient>

<linearGradient id="Gradient_6" gradientUnits="userSpaceOnUse" x1="40.0875" y1="19.2375" x2="39.612500000000004" y2="40.8625" spreadMethod="pad">
<stop  offset="0%" stop-color="#FFFFFF"/>

<stop  offset="100%" stop-color="#424242"/>
</linearGradient>

<linearGradient id="Gradient_7" gradientUnits="userSpaceOnUse" x1="50.9375" y1="17.025" x2="42.8625" y2="46.075" spreadMethod="pad">
<stop  offset="0%" stop-color="#FFFFFF"/>

<stop  offset="100%" stop-color="#424242"/>
</linearGradient>

<linearGradient id="Gradient_8" gradientUnits="userSpaceOnUse" x1="14.6125" y1="15.275000000000002" x2="17.8875" y2="50.625" spreadMethod="pad">
<stop  offset="0%" stop-color="#FFFFFF"/>

<stop  offset="100%" stop-color="#424242"/>
</linearGradient>

<linearGradient id="Gradient_9" gradientUnits="userSpaceOnUse" x1="49.85" y1="16.949999999999996" x2="49.85" y2="36.35" spreadMethod="pad">
<stop  offset="0%" stop-color="#FFFFFF"/>

<stop  offset="100%" stop-color="#424242"/>
</linearGradient>

<linearGradient id="Gradient_10" gradientUnits="userSpaceOnUse" x1="86.7" y1="19.375" x2="86.7" y2="27.125" spreadMethod="pad">
<stop  offset="0%" stop-color="#FFFFFF"/>

<stop  offset="100%" stop-color="#424242"/>
</linearGradient>

<linearGradient id="Gradient_11" gradientUnits="userSpaceOnUse" x1="185.9375" y1="21.525" x2="185.46249999999998" y2="25.875" spreadMethod="pad">
<stop  offset="0%" stop-color="#FFFFFF"/>

<stop  offset="100%" stop-color="#424242"/>
</linearGradient>

<linearGradient id="Gradient_12" gradientUnits="userSpaceOnUse" x1="121.85" y1="18.875" x2="121.85" y2="23.725" spreadMethod="pad">
<stop  offset="0%" stop-color="#FFFFFF"/>

<stop  offset="100%" stop-color="#424242"/>
</linearGradient>

<g id="Symbol_56_1_Layer0_0_FILL">
<path fill="#000000" stroke="none" d="
M 75.25 -3.3
Q 52.78984375 -10.84296875 33.95 -0.2 15.1662109375 10.441796875 10 22.7 5.0416015625 34.4859375 -8.85 46.95 8.576953125 71.38203125 25.5 72.75 42.4736328125 74.15625 47.65 66.1 52.881640625 58.0509765625 62.3 59.25 71.7060546875 60.4990234375 75.45 55.65 90.7 35.65 105.85 15.5 114.55 3.95 104.75 4.15 97.75390625 4.29765625 75.25 -3.3
M 88.9 6.55
L 106.45 5.95
Q 95.05 32.15 73.35 54.5 66.9 56.15 60.3 54.6 57.45 54.05 55.15 54.9 41.2 60.3 27.45 64.6 17.65 62.2 9.75 56.15 7.15 54.1 4.85 51.75 9.55 49.7 10.65 44.85 15.15 25.1 30.6 12.8 56.35 -7.6 88.9 6.55 Z"/>

<path fill="#0099FF" stroke="none" d="
M 87.95 6.5
L 88.9 6.55
Q 56.35 -7.6 30.6 12.8 15.15 25.1 10.65 44.85 9.55 49.7 4.85 51.75 7.15 54.1 9.75 56.15 17.65 62.2 27.45 64.6 33.95 34.8 57.9 17.5 57.95 17.45 58.2 17.65 60.25 24.1 57.9 32.95 57.5 34.45 58.6 35.35 58.85 35.5 59.1 35.7 71.9 20.3 87.95 6.5 Z"/>

<path fill="#3333CC" stroke="none" d="
M 106.45 5.95
L 88.9 6.55 87.95 6.5
Q 71.9 20.3 59.1 35.7 58.85 35.5 58.6 35.35 57.5 34.45 57.9 32.95 60.25 24.1 58.2 17.65 57.95 17.45 57.9 17.5 33.95 34.8 27.45 64.6 41.2 60.3 55.15 54.9 57.45 54.05 60.3 54.6 66.9 56.15 73.35 54.5 95.05 32.15 106.45 5.95 Z"/>
</g>

<g id="Symbol_2_0_Layer0_0_FILL">
<path fill="#000000" stroke="none" d="
M 32.7 10.35
L 26.8 11.15
Q 23.58125 -0.075 13.75 1.2 3.9630859375 2.480859375 0.65 6.25 -2.651953125 10.0072265625 7.95 23.7 18.5888671875 37.4458984375 34.55 15.05
L 32.7 10.35
M 22.35 14.55
L 24.25 16.65 19.5 20.6 16.5 22.8
Q 8.3 16.15 3.35 6.2 3.8 5.9 4.3 5.75 11.65 3.65 19.45 4.75
L 20.15 6.65 22.35 14.55 Z"/>

<path fill="#666666" stroke="none" d="
M 20.15 6.65
L 14.65 11.75 18.25 18.8 22.35 14.55 20.15 6.65 Z"/>

<path fill="url(#Gradient_1)" stroke="none" d="
M 20.15 6.65
L 19.45 4.75
Q 11.65 3.65 4.3 5.75 3.8 5.9 3.35 6.2 8.3 16.15 16.5 22.8
L 19.5 20.6 18.25 18.8 14.65 11.75 20.15 6.65 Z"/>

<path fill="#FFFFFF" stroke="none" d="
M 24.25 16.65
L 22.35 14.55 18.25 18.8 19.5 20.6 24.25 16.65 Z"/>
</g>

<g id="Symbol_47_0_Layer0_0_FILL">
<path fill="#000000" stroke="none" d="
M 54.4 2.55
Q 52.65 1.5 50.8 1.15 29.1 -1.7 8.75 5.2 5.85 6.1 4.45 8.3 2.7080078125 27.319921875 1.9 34.6 1.149609375 41.9333984375 0.25 44.25 -0.6623046875 46.6083984375 1.05 52.4 2.766796875 58.1990234375 6.15 57.7 31.15 53.95 56.35 48.95 59 48.55 63.95 48.15 71.74453125 35.2923828125 65.65 25.3 59.6017578125 15.35234375 54.4 2.55
M 50.5 4.9
L 55.5 22.95
Q 56.8 31.25 58 39.6 58.35 42 56.55 43.9
L 53.35 44.3 18.5 48.85
Q 12.9 48.9 7.4 48.4 4.95 48.25 5.1 45.75 5.85 34.2 6.45 22.7 6.7 17.6 8.15 13.05 8.4 12.15 9.1 11.6 14.65 6.65 22.35 6.55 31.1 5.8 39.85 5.05 45.15 4.95 50.5 4.9 Z"/>

<path fill="url(#Gradient_2)" stroke="none" d="
M 53.35 44.3
L 50.95 25.45
Q 39.65 32.35 28.45 39.35 22.55 43 18.5 48.85
L 53.35 44.3 Z"/>

<path fill="#FFFFFF" stroke="none" d="
M 53.35 44.3
L 56.55 43.9
Q 58.35 42 58 39.6 56.8 31.25 55.5 22.95
L 50.95 25.45 53.35 44.3 Z"/>

<path fill="#666666" stroke="none" d="
M 55.5 22.95
L 50.5 4.9
Q 45.15 4.95 39.85 5.05 31.1 5.8 22.35 6.55 14.65 6.65 9.1 11.6 8.4 12.15 8.15 13.05 6.7 17.6 6.45 22.7 5.85 34.2 5.1 45.75 4.95 48.25 7.4 48.4 12.9 48.9 18.5 48.85 22.55 43 28.45 39.35 39.65 32.35 50.95 25.45
L 55.5 22.95 Z"/>
</g>

<g id="Symbol_48_0_Layer0_0_FILL">
<path fill="#000000" stroke="none" d="
M 118.95 -7.55
Q 113.5939453125 -11.0013671875 107.05 -2.6 100.5603515625 5.83125 91.95 19.7 83.336328125 33.625 86.15 39.75 88.9734375 45.9083984375 89.95 46.35 90.9685546875 46.80625 90.95 46.85 90.35 48.25 90.55 49.65
L 91.4 53.25
Q 91.3943359375 53.34609375 84.05 59.5 76.7658203125 65.7109375 50.6 83.05 24.4740234375 100.391015625 9.85 108.95 -4.712890625 117.4990234375 -1.1 122.4 3.5951171875 132.2275390625 40.2 105.5 76.8509765625 78.7755859375 97.95 68.15 98.0263671875 72.61953125 103.4 70.9 108.159375 90.1607421875 119.95 98.25 131.752734375 106.3470703125 155.75 92.9 179.7833984375 79.4513671875 170.2 61.45 160.6767578125 43.44609375 152.55 38.6 156.2125 32.8640625 152.35 27.5 148.487109375 22.1380859375 144.65 21.45 146.9650390625 16.395703125 148.5 7.15 150.5396484375 -4.835546875 137.25 0.9 124.0169921875 6.6822265625 121.8 11.6 122 7.4 121.75 2.9 121.2 -6.1 118.95 -7.55
M 142.15 7.65
L 141.9 8.7 137.7 21.1 132 16.75 128.2 14.9
Q 128.55 14.6 128.9 14.3 134.6 9.1 142.15 7.65
M 124.5 13.85
L 123.85 13.8
Q 124.990625 13.2484375 124.5 13.85
M 140.5 26.1
L 139.95 24.85
Q 140.30078125 25.5943359375 140.65 26
L 140.5 26.1
M 141.8 29.25
L 144.55 27.9
Q 148.4 32.65 147.35 38.25 147.2 39.1 146.75 39.9
L 141.8 29.25
M 114.8 4
L 115.05 5.5 114.1 13.95 108.45 15.8 105.05 17.45
Q 107.25 8.55 114.8 4
M 94.25 49.2
L 95.75 47.9 98.9 51.35
Q 103.95 55.7 105.95 62.35
L 104.75 64.6
Q 104.2 64.35 103.75 64.05 99.75 62 98.4 57.6
L 94.25 49.2
M 90.2 58.4
L 93.15 55.95 96.35 61.5
Q 81.448046875 71.2447265625 42.35 99.05 3.2556640625 126.915625 3.65 119.9 -0.8615234375 116.0935546875 29.7 98.1 60.2537109375 80.101953125 90.2 58.4
M 118.85 84.1
Q 113.017578125 66.3447265625 100.35 51.15 87.6939453125 36.0015625 108.4 18.7 130.1080078125 13.455078125 138.25 28.4 146.398046875 43.392578125 160.65 56.4 174.9068359375 69.416796875 151.25 85.2 124.6763671875 101.8568359375 118.85 84.1
M 139.45 73
Q 139.45 72.35 138.8 71.9 138.2 71.45 137.35 71.45 136.5 71.45 135.85 71.9 135.25 72.35 135.25 73 135.25 73.65 135.85 74.1 136.5 74.55 137.35 74.55 138.2 74.55 138.8 74.1 139.45 73.65 139.45 73
M 151.6 73.45
Q 152.05 72.9 152.05 72.1 152.05 71.3 151.6 70.75 151.15 70.2 150.55 70.2 149.95 70.2 149.5 70.75 149.05 71.3 149.05 72.1 149.05 72.9 149.5 73.45 149.95 74 150.55 74 151.15 74 151.6 73.45
M 108.8 35
Q 108.05 35.55 107.7 36.25 99.9 52.3 117 49.75 117.3 49.5 117.5 49.2 124.05 36.45 108.8 35
M 108.65 46.15
Q 107.9 43.4 108.9 40.9 109.8 38.65 112 38.1
L 116.3 41.65 116.35 45.75
Q 115 47.35 112.8 47.7 110.3 47.9 108.65 46.15
M 115.3 43.2
Q 115 42.85 114.5 42.85 114 42.85 113.65 43.2 113.35 43.55 113.35 44.05 113.35 44.55 113.65 44.9 114 45.25 114.5 45.25 115 45.25 115.3 44.9 115.65 44.55 115.65 44.05 115.65 43.55 115.3 43.2
M 110.3 41.3
Q 110.3 41.8 110.65 42.15 111.05 42.55 111.55 42.55 112.05 42.55 112.4 42.15 112.8 41.8 112.8 41.3 112.8 40.8 112.4 40.4 112.05 40.05 111.55 40.05 111.05 40.05 110.65 40.4 110.3 40.8 110.3 41.3
M 111.3 43.25
Q 110.8 43.25 110.4 43.6 110.05 44 110.05 44.5 110.05 45 110.4 45.35 110.8 45.75 111.3 45.75 111.8 45.75 112.15 45.35 112.55 45 112.55 44.5 112.55 44 112.15 43.6 111.8 43.25 111.3 43.25 Z"/>

<path fill="#CC9900" stroke="none" d="
M 108.65 33.2
Q 108.7 34.1 108.8 35 124.05 36.45 117.5 49.2 117.3 49.5 117 49.75 120.25 71.4 136.6 79.95 142.35 83 151.25 85.2 174.9068359375 69.416796875 160.65 56.4 146.398046875 43.392578125 138.25 28.4 130.1080078125 13.455078125 108.4 18.7 108.3 25.7 108.65 33.2
M 152.05 72.1
Q 152.05 72.9 151.6 73.45 151.15 74 150.55 74 149.95 74 149.5 73.45 149.05 72.9 149.05 72.1 149.05 71.3 149.5 70.75 149.95 70.2 150.55 70.2 151.15 70.2 151.6 70.75 152.05 71.3 152.05 72.1
M 138.8 71.9
Q 139.45 72.35 139.45 73 139.45 73.65 138.8 74.1 138.2 74.55 137.35 74.55 136.5 74.55 135.85 74.1 135.25 73.65 135.25 73 135.25 72.35 135.85 71.9 136.5 71.45 137.35 71.45 138.2 71.45 138.8 71.9 Z"/>

<path fill="#0099FF" stroke="none" d="
M 108.9 40.9
Q 107.9 43.4 108.65 46.15 110.3 47.9 112.8 47.7 115 47.35 116.35 45.75
L 116.3 41.65 112 38.1
Q 109.8 38.65 108.9 40.9
M 110.4 43.6
Q 110.8 43.25 111.3 43.25 111.8 43.25 112.15 43.6 112.55 44 112.55 44.5 112.55 45 112.15 45.35 111.8 45.75 111.3 45.75 110.8 45.75 110.4 45.35 110.05 45 110.05 44.5 110.05 44 110.4 43.6
M 110.65 42.15
Q 110.3 41.8 110.3 41.3 110.3 40.8 110.65 40.4 111.05 40.05 111.55 40.05 112.05 40.05 112.4 40.4 112.8 40.8 112.8 41.3 112.8 41.8 112.4 42.15 112.05 42.55 111.55 42.55 111.05 42.55 110.65 42.15
M 114.5 42.85
Q 115 42.85 115.3 43.2 115.65 43.55 115.65 44.05 115.65 44.55 115.3 44.9 115 45.25 114.5 45.25 114 45.25 113.65 44.9 113.35 44.55 113.35 44.05 113.35 43.55 113.65 43.2 114 42.85 114.5 42.85
M 144.55 27.9
L 141.8 29.25 146.75 39.9
Q 147.2 39.1 147.35 38.25 148.4 32.65 144.55 27.9 Z"/>

<path fill="#876500" stroke="none" d="
M 107.7 36.25
Q 108.05 35.55 108.8 35 108.7 34.1 108.65 33.2 108.3 25.7 108.4 18.7 87.6939453125 36.0015625 100.35 51.15 113.017578125 66.3447265625 118.85 84.1 124.6763671875 101.8568359375 151.25 85.2 142.35 83 136.6 79.95 120.25 71.4 117 49.75 99.9 52.3 107.7 36.25 Z"/>

<path fill="#69543D" stroke="none" d="
M 90.2 58.4
L 89.85 61.75
Q 77.65 70.65 65.45 79.55 35.65 101.35 3.65 119.9 3.2556640625 126.915625 42.35 99.05 81.448046875 71.2447265625 96.35 61.5
L 93.15 55.95 90.2 58.4 Z"/>

<path fill="#917557" stroke="none" d="
M 89.85 61.75
L 90.2 58.4
Q 60.2537109375 80.101953125 29.7 98.1 -0.8615234375 116.0935546875 3.65 119.9 35.65 101.35 65.45 79.55 77.65 70.65 89.85 61.75 Z"/>

<path fill="#702500" stroke="none" d="
M 103.75 64.05
Q 104.2 64.35 104.75 64.6
L 105.95 62.35
Q 103.95 55.7 98.9 51.35
L 98.4 57.6
Q 99.75 62 103.75 64.05
M 108.45 15.8
L 114.1 13.95 115.05 5.5 108.45 15.8
M 132 16.75
L 137.7 21.1 141.9 8.7 132 16.75 Z"/>

<path fill="#993300" stroke="none" d="
M 95.75 47.9
L 94.25 49.2 98.4 57.6 98.9 51.35 95.75 47.9
M 115.05 5.5
L 114.8 4
Q 107.25 8.55 105.05 17.45
L 108.45 15.8 115.05 5.5
M 141.9 8.7
L 142.15 7.65
Q 134.6 9.1 128.9 14.3 128.55 14.6 128.2 14.9
L 132 16.75 141.9 8.7 Z"/>
</g>

<g id="Symbol_49_0_Layer0_0_FILL">
<path fill="#000000" stroke="none" d="
M 3.1 37.85
Q 4.5923828125 38.3744140625 5.9 38.6 -1.085546875 40.631640625 -7.7 53.4 -16.6060546875 70.6595703125 0.05 77.1 -2.24921875 82.383984375 -0.1 95.7 36.152734375 105.558984375 44.05 89 52.0037109375 72.436328125 64 69.55
L 64 69.6
Q 64.040625 69.5759765625 64.05 69.55 66.17265625 68.9513671875 68.45 68.35 86.3513671875 48.52734375 84.8 21.9 82.8013671875 -12.30546875 59.85 11.25 59.39140625 -2.243359375 41.35 -3.35 23.31484375 -4.41484375 29.9 14.85 29.2537109375 14.9001953125 18.35 11.05 7.4888671875 7.2490234375 -1.1 22.65 -1.59140625 36.3029296875 3.1 37.85
M 44.1 8.3
Q 46.7 8.05 47.5 10 51.8 20.75 60.75 28.4 61.6 24.9 63 20.4 65 14.2 66.15 12.95 82.2396484375 3.5958984375 78.55 24.7 74.9033203125 45.801171875 66.9 62.2 56.35 66.15 44.9 67.1 44.681640625 67.6111328125 44.45 68.1 43.9474609375 69.2341796875 40 77.5 36.104296875 85.7697265625 27.75 89.95 19.3873046875 94.1296875 14.05 92.7
L 7.45 89.1
Q 2.178515625 77.8501953125 5.45 72.75 8.7716796875 67.65 16.4 63.3 10.3 65.4 1.55 68.2 -3.180078125 56.75234375 5.25 49.3 13.730078125 41.84765625 24.55 35.1
L 13.4 35.5
Q 7.2390625 32.1365234375 12.6 24.85 18.0109375 17.5634765625 38.6 21.45 38.15 20.7 37.8 20 32.15 9.45 44.1 8.3 Z"/>

<path fill="#3333CC" stroke="none" d="
M 23.75 61.5
Q 23.1025390625 63.3962890625 27.9 67.35 16.619140625 67.2669921875 12.75 81.35 9.421484375 88.0923828125 14.05 92.7 19.3873046875 94.1296875 27.75 89.95 36.104296875 85.7697265625 40 77.5 43.9474609375 69.2341796875 44.45 68.1 44.681640625 67.6111328125 44.9 67.1 56.35 66.15 66.9 62.2 58.15 51.55 58.8 37.65
L 54.85 50.05
Q 50.25 38.5 38.5 43.25 31.55 46.05 35.2 53.15 26.65 53.4 23.75 61.5 Z"/>

<path fill="#0099FF" stroke="none" d="
M 47.5 10
Q 46.7 8.05 44.1 8.3 32.15 9.45 37.8 20 38.15 20.7 38.6 21.45 18.0109375 17.5634765625 12.6 24.85 7.2390625 32.1365234375 13.4 35.5
L 24.55 35.1
Q 13.730078125 41.84765625 5.25 49.3 -3.180078125 56.75234375 1.55 68.2 10.3 65.4 16.4 63.3 8.7716796875 67.65 5.45 72.75 2.178515625 77.8501953125 7.45 89.1
L 14.05 92.7
Q 9.421484375 88.0923828125 12.75 81.35 16.619140625 67.2669921875 27.9 67.35 23.1025390625 63.3962890625 23.75 61.5 26.65 53.4 35.2 53.15 31.55 46.05 38.5 43.25 50.25 38.5 54.85 50.05
L 58.8 37.65
Q 58.15 51.55 66.9 62.2 74.9033203125 45.801171875 78.55 24.7 82.2396484375 3.5958984375 66.15 12.95 65 14.2 63 20.4 61.6 24.9 60.75 28.4 51.8 20.75 47.5 10 Z"/>
</g>

<g id="Symbol_50_0_Layer0_0_FILL">
<path fill="#000000" stroke="none" d="
M 90 84.85
Q 90.1 84.85 93.85 80.3 81 78.5 78.35 67.6 78.05 66.45 77.8 65.3
L 77.9 30.25
Q 76.274609375 12.7064453125 71.6 6.6 66.9341796875 0.5521484375 54.65 0.75 42.41796875 0.941796875 31.65 3.75 20.8771484375 6.5572265625 9.75 15.85 -0.6751953125 24.5921875 -3.6 26.25 -4.2345703125 28.109765625 -1.45 43.9 1.32265625 59.694921875 5.2 78.5 9.0916015625 97.30078125 9.4 97.35 24.1 99.8 39.05 99 66.4 98.4 90 84.85
M 70.55 42.4
L 71.1 48.2
Q 64.2 44.25 63.7 52.5 63.1 62.1 72.05 57.6
L 73.25 69.25
Q 47.1 78.2 22.5 65.65
L 26.15 62.3
Q 26.3 62.75 29.25 67.7 30.1375 67.79375 33.1 66.6 36.1125 65.45625 33.2 60.65 33.15 60.5 30.6 60.65 28 60.8 27.75 60.95 46.7 45.9 70.55 42.4
M 70.2 38.9
L 69.05 39 58.4 40.85
Q 37.9 47.2 30.15 51.55
L 19.25 58.4
Q 18.6 59.4 18.7 64.4 18.8 70.6 21.6 72.95
L 31.7 75.45
Q 56.4 76.75 66.55 75.9
L 74.3 74.5
Q 75.15 76.3 78.85 80.05 81.9 83.15 83.2 84.05
L 72.55 86.6
Q 45.75 91.95 34.6 92.8
L 13.15 94.05
Q 14.7 91.6 14.95 91.25 16.45 88.6 16.55 87.35 17.15 84.7 11.6 54.8 8.85 39.85 6 25.4
L 28.75 11.85
Q 46.637109375 5.7 59.25 12.25 71.904296875 18.7998046875 70.2 38.9
M 29.3 64.8
Q 29.05 64.6 29.05 63.65 29.05 62.75 29.3 62.45 29.9 62 30.7 62 31.5 62 32.05 62.45 32.65 62.95 32.65 63.65 32.65 64 31.9 64.65 31.1 65.3 30.7 65.3 29.9 65.3 29.3 64.8
M 64.65 52.35
L 65.15 50.4 66.7 50.95
Q 68.35 51.65 68.8 52.4 70.2 54.75 68.25 56.7
L 65.6 56.95
Q 65.45 56.7 65.3 56.5 64.3 54.6 64.65 52.35 Z"/>

<path fill="#FFFFFF" stroke="none" d="
M 65.15 50.4
L 64.65 52.35
Q 64.3 54.6 65.3 56.5 65.45 56.7 65.6 56.95
L 68.25 56.7
Q 70.2 54.75 68.8 52.4 68.35 51.65 66.7 50.95
L 65.15 50.4
M 29.05 63.65
Q 29.05 64.6 29.3 64.8 29.9 65.3 30.7 65.3 31.1 65.3 31.9 64.65 32.65 64 32.65 63.65 32.65 62.95 32.05 62.45 31.5 62 30.7 62 29.9 62 29.3 62.45 29.05 62.75 29.05 63.65
M 66.55 75.9
Q 66.8 76.6 68.8 80.3 71.2 84.7 72.55 86.6
L 83.2 84.05
Q 81.9 83.15 78.85 80.05 75.15 76.3 74.3 74.5
L 66.55 75.9
M 9.5 28.1
L 14.75 21.9 6 25.4
Q 8.85 39.85 11.6 54.8 17.15 84.7 16.55 87.35 16.5 88.4 17.85 90.25 19.1 92 19.55 91.85 20.4 90.65 21.65 84.6 23.25 76.9 21.6 72.95 18.8 70.6 18.7 64.4 18.6 59.4 19.25 58.4 18.6 54.45 17.85 50.5 15.5 38.55 9.5 28.1
M 50.35 10.55
Q 51.55 12.45 54.65 21.95 58.7 34.3 58.4 40.85
L 69.05 39
Q 69.35 33.45 68.2 28.2 64.9 13.55 50.5 9.9
L 50.35 10.55 Z"/>

<path fill="url(#Gradient_3)" stroke="none" d="
M 31.7 75.45
Q 32.05 75.55 34.6 92.8 45.75 91.95 72.55 86.6 71.2 84.7 68.8 80.3 66.8 76.6 66.55 75.9 56.4 76.75 31.7 75.45 Z"/>

<path fill="#666666" stroke="none" d="
M 14.95 91.25
Q 14.7 91.6 13.15 94.05
L 34.6 92.8
Q 32.05 75.55 31.7 75.45
L 21.6 72.95
Q 23.25 76.9 21.65 84.6 20.4 90.65 19.55 91.85 19.1 92 17.85 90.25 16.5 88.4 16.55 87.35 16.45 88.6 14.95 91.25
M 28.75 11.85
L 6 25.4 14.75 21.9 9.5 28.1
Q 15.5 38.55 17.85 50.5 18.6 54.45 19.25 58.4
L 30.15 51.55 28.75 11.85 Z"/>

<path fill="url(#Gradient_4)" stroke="none" d="
M 54.65 21.95
Q 51.55 12.45 50.35 10.55
L 50.5 9.9
Q 64.9 13.55 68.2 28.2 69.35 33.45 69.05 39
L 70.2 38.9
Q 71.904296875 18.7998046875 59.25 12.25 46.637109375 5.7 28.75 11.85
L 30.15 51.55
Q 37.9 47.2 58.4 40.85 58.7 34.3 54.65 21.95 Z"/>

<path fill="#333333" stroke="none" d="
M 71.1 48.2
L 70.55 42.4
Q 46.7 45.9 27.75 60.95 28 60.8 30.6 60.65 33.15 60.5 33.2 60.65 36.1125 65.45625 33.1 66.6 30.1375 67.79375 29.25 67.7 26.3 62.75 26.15 62.3
L 22.5 65.65
Q 47.1 78.2 73.25 69.25
L 72.05 57.6
Q 63.1 62.1 63.7 52.5 64.2 44.25 71.1 48.2 Z"/>
</g>

<g id="Symbol_2_2_Layer0_0_FILL">
<path fill="#000000" stroke="none" d="
M 23.9 -7.45
Q 18.61484375 -8.4876953125 7.25 -2.5 -4.06484375 3.4876953125 5.4 8.95
L 6.8 15.1
Q 10.345703125 16.0462890625 19.5 17.9 31.7591796875 20.375390625 29.55 12.6 27.3861328125 4.8826171875 23.9 -7.45
M 20.55 6.55
L 23.15 10.05 16 9.75 9.65 8.2 9.3 6.05 8.4 5.2 3.55 4
Q 3.7 3.65 3.9 3.35 14.45 -9.6 21.9 -1.05
L 20.55 6.55 Z"/>

<path fill="#666666" stroke="none" d="
M 21.9 -1.05
Q 21.15 -0.75 20.4 -0.45 12.5 1.95 16 9.75
L 23.15 10.05 20.55 6.55 21.9 -1.05 Z"/>

<path fill="url(#Gradient_5)" stroke="none" d="
M 20.4 -0.45
Q 21.15 -0.75 21.9 -1.05 14.45 -9.6 3.9 3.35 3.7 3.65 3.55 4
L 8.4 5.2 9.3 6.05 9.65 8.2 16 9.75
Q 12.5 1.95 20.4 -0.45 Z"/>
</g>

<g id="Symbol_51_0_Layer0_0_FILL">
<path fill="#000000" stroke="none" d="
M 76.75 51.4
L 77.4 52.45
Q 77.525390625 52.1923828125 77.6 51.9
L 76.75 51.4
M 47.3 41
L 48.75 40.95 47.8 40.75 57.7 39.35
Q 58.8 40.25 59.95 41.15 67.75 47.05 77.25 49.3 72.7 38.6 61.2 36.85 53.69140625 6.82890625 15.9 -4.8 18.901953125 10.0736328125 20 13.8 6.55546875 15.5611328125 0.45 31.9 14.45 43.65 32.15 40.35
L 31.3 40.55 43.2 41
Q 45.85 48.75 51.9 54.5 69.7447265625 71.6767578125 76.95 53.7 75.5458984375 54.6607421875 74.05 55.25 69.9 57.05 65.65 55.7 57.8 53.25 56.05 45.3
L 51.35 46.65 51.25 47.95 47.3 41
M 57.35 34.55
Q 57.05 34.65 56.75 34.8 39.4 38.35 22.1 35.25
L 10.1 34.5 5.2 32.6
Q 5.45 32.25 5.75 31.95 16.4 21.6 30.85 18.2
L 31.25 17.75
Q 31.2 12.8 28.95 8.45 28.15 6.95 27.4 5.45
L 38 11.45
Q 45.2 15.7 50.45 22.05 55.1 27.65 57.35 34.55 Z"/>

<path fill="#FFFFFF" stroke="none" d="
M 5.2 32.6
L 10.1 34.5 30.85 18.2
Q 16.4 21.6 5.75 31.95 5.45 32.25 5.2 32.6 Z"/>

<path fill="#666666" stroke="none" d="
M 48.95 25.55
Q 50.05 25.55 51.15 25.6 43.45 19.35 38 11.45
L 27.4 5.45
Q 28.15 6.95 28.95 8.45 31.2 12.8 31.25 17.75
L 30.85 18.2 10.1 34.5 22.1 35.25
Q 33.8 25.5 48.95 25.55 Z"/>

<path fill="url(#Gradient_6)" stroke="none" d="
M 56.75 34.8
Q 57.05 34.65 57.35 34.55 55.1 27.65 50.45 22.05 45.2 15.7 38 11.45 43.45 19.35 51.15 25.6 50.05 25.55 48.95 25.55 33.8 25.5 22.1 35.25 39.4 38.35 56.75 34.8 Z"/>

<path fill="#999999" stroke="none" d="
M 48.75 40.95
L 47.3 41 51.25 47.95 51.35 46.65 56.05 45.3
Q 57.8 53.25 65.65 55.7 69.9 57.05 74.05 55.25 75.5458984375 54.6607421875 76.95 53.7 77.1052734375 53.602734375 77.25 53.5
L 77.5 52.6 77.4 52.45 76.75 51.4 77.6 51.9 77.75 49.45 77.25 49.3
Q 67.75 47.05 59.95 41.15 58.8 40.25 57.7 39.35
L 47.8 40.75 48.75 40.95 Z"/>
</g>

<g id="Symbol_52_0_Layer0_0_FILL">
<path fill="#000000" stroke="none" d="
M 86.75 34.5
Q 98.8822265625 23.5923828125 95.55 19.6 92.217578125 15.607421875 79.65 10.3 72.8392578125 7.4623046875 67.85 5.5 63.6255859375 3.8283203125 60.7 2.8 54.80390625 0.7958984375 47.35 3.2 39.93828125 5.662890625 20.85 17.6 1.7708984375 29.5345703125 2.8 34.1 3.8169921875 38.6587890625 21.45 41.1 39.08203125 43.540625 69 50.7 74.605859375 45.40234375 86.75 34.5
M 53.4 7.7
Q 55.985546875 8.22890625 58.45 9 70.6384765625 13.007421875 79.75 23.7
L 68.85 39.1 63.8 45.5 5.7 36.75 4.85 32.3 19 21.9
Q 24.9 17.85 38.6 12.45 51.5 7.35 53.4 7.7
M 35.9 20.9
L 34.35 21.15
Q 33.5 22 33.55 28.05 33.55 34.6 35.25 37
L 36.8 33.9
Q 37.35 30.4 37.45 28 37.65 22.5 35.9 20.9
M 50.3 13.5
Q 49.6 13.75 48.85 14.05 47.4 14.65 47.35 14.85
L 47.3 15.3
Q 49.5 22.4 51.95 35.25 52.55 33.9 52.95 32.45 55.65 22.4 50.3 13.5
M 68.1 20.2
Q 66.95 17.3 62.55 14.15 58.6 11.25 58.35 11.6 57 13.85 58.75 15.8 68.65 26.2 64.75 39.5
L 67.4 36.05
Q 68.1 34.45 68.75 29.8 69.7 23.25 68.1 20.2 Z"/>

<path fill="#666666" stroke="none" d="
M 62.15 34.9
L 62.15 37.25 51.95 35.25
Q 49.5 22.4 47.3 15.3
L 44.9 34.4 36.8 33.9 35.25 37
Q 33.55 34.6 33.55 28.05 33.5 22 34.35 21.15 33.4 21.6 31.9 25.45 30.6 28.75 30.15 30.85
L 29.7 33.6 19.6 31.15 19.1 23.85 19 22 19 21.9 4.85 32.3 5.7 36.75 63.8 45.5 68.85 39.1 68.7 39.05
Q 68.35 38.95 67.85 37.8 67.35 36.7 67.4 36.05
L 64.75 39.5
Q 68.65 26.2 58.75 15.8
L 62.15 34.9 Z"/>

<path fill="#FFFFFF" stroke="none" d="
M 58.45 9
Q 55.985546875 8.22890625 53.4 7.7 51.5 7.35 38.6 12.45 24.9 17.85 19 21.9
L 19 22 19.1 23.85 58.45 9 Z"/>

<path fill="url(#Gradient_7)" stroke="none" d="
M 62.55 14.15
Q 66.95 17.3 68.1 20.2 69.7 23.25 68.75 29.8 68.1 34.45 67.4 36.05 67.35 36.7 67.85 37.8 68.35 38.95 68.7 39.05
L 68.85 39.1 79.75 23.7
Q 70.6384765625 13.007421875 58.45 9
L 19.1 23.85 19.6 31.15 29.7 33.6 30.15 30.85
Q 30.6 28.75 31.9 25.45 33.4 21.6 34.35 21.15
L 35.9 20.9
Q 37.65 22.5 37.45 28 37.35 30.4 36.8 33.9
L 44.9 34.4 47.3 15.3 47.35 14.85
Q 47.4 14.65 48.85 14.05 49.6 13.75 50.3 13.5 55.65 22.4 52.95 32.45 52.55 33.9 51.95 35.25
L 62.15 37.25 62.15 34.9 58.75 15.8
Q 57 13.85 58.35 11.6 58.6 11.25 62.55 14.15 Z"/>
</g>

<g id="Symbol_53_0_Layer0_0_FILL">
<path fill="#000000" stroke="none" d="
M 217.2 23.95
Q 233.0880859375 18.7224609375 236.5 17.8 231.494921875 14.7619140625 213.65 11.3 192.7478515625 12.3736328125 166.4 12.85 140.1138671875 13.3763671875 101.05 11.45 62.034765625 9.529296875 34.8 2.7 7.605859375 -4.09140625 2.1 15.95 -7.7 51.6 24.9 53.1 36.7853515625 40.7462890625 84.4 30.75 114.405078125 24.4640625 159.7 26.25 185.634375 22.7677734375 217.2 23.95
M 148 20.7
L 130.8 21.9 109.35 24.15 94.05 26.3 72.3 30.3 59.75 33.2
Q 57.25 33.8 54.75 34.4 43.6 37.45 33.6 43.55 32.7 44.25 31.85 45 24.2 51.8 14.25 48.75 13.75 48.5 13.25 48.3 7.9 46 5.7 40.55
L 3.5 29.5
Q 3.65 29.25 3.65 29.05 4.1 3.7 26.2 6.6
L 46.55 12.2 62.55 14.15 80.65 15.2 99 15.8 114.95 16.25 132.3 16.75 150.35 17.3 224.5 17.5 148 20.7 Z"/>

<path fill="#3333CC" stroke="none" d="
M 14.75 36.95
L 14.25 48.75
Q 24.2 51.8 31.85 45 32.7 44.25 33.6 43.55
L 37.1 30.95 14.75 36.95
M 58.55 27
L 59.75 33.2 72.3 30.3 74.35 24.65 58.55 27
M 94.7 22.25
L 94.05 26.3 109.35 24.15 111.4 20.85 94.7 22.25
M 130.8 21.9
L 148 20.7 148.4 20.1 131.15 19.95 130.8 21.9 Z"/>

<path fill="#666666" stroke="none" d="
M 13.25 48.3
Q 13.75 48.5 14.25 48.75
L 14.75 36.95 5.7 40.55
Q 7.9 46 13.25 48.3
M 59.75 33.2
L 58.55 27 37.1 30.95 33.6 43.55
Q 43.6 37.45 54.75 34.4 57.25 33.8 59.75 33.2
M 94.05 26.3
L 94.7 22.25 74.35 24.65 72.3 30.3 94.05 26.3
M 130.8 21.9
L 131.15 19.95 111.4 20.85 109.35 24.15 130.8 21.9 Z"/>

<path fill="#0099FF" stroke="none" d="
M 26.2 6.6
Q 25.2 8.2 24.25 9.85 16.85 22.55 14.75 36.95
L 37.1 30.95 46.55 12.2 26.2 6.6
M 62.55 14.15
Q 61.7 15.75 60.9 17.4 58.8 21.95 58.55 27
L 74.35 24.65 80.65 15.2 62.55 14.15
M 114.95 16.25
L 99 15.8 94.7 22.25 111.4 20.85 114.95 16.25
M 150.35 17.3
L 132.3 16.75 131.15 19.95 148.4 20.1 150.35 17.3 Z"/>

<path fill="url(#Gradient_8)" stroke="none" d="
M 24.25 9.85
Q 25.2 8.2 26.2 6.6 4.1 3.7 3.65 29.05 3.65 29.25 3.5 29.5
L 5.7 40.55 14.75 36.95
Q 16.85 22.55 24.25 9.85 Z"/>

<path fill="url(#Gradient_9)" stroke="none" d="
M 60.9 17.4
Q 61.7 15.75 62.55 14.15
L 46.55 12.2 37.1 30.95 58.55 27
Q 58.8 21.95 60.9 17.4 Z"/>

<path fill="url(#Gradient_10)" stroke="none" d="
M 94.7 22.25
L 99 15.8 80.65 15.2 74.35 24.65 94.7 22.25 Z"/>

<path fill="url(#Gradient_11)" stroke="none" d="
M 148.4 20.1
L 148 20.7 224.5 17.5 150.35 17.3 148.4 20.1 Z"/>

<path fill="url(#Gradient_12)" stroke="none" d="
M 131.15 19.95
L 132.3 16.75 114.95 16.25 111.4 20.85 131.15 19.95 Z"/>
</g>

<g id="Symbol_55_0_Layer0_0_FILL">
<path fill="#000000" stroke="none" d="
M 13.9 4.05
Q 8.3447265625 0.791015625 3.6 2.4 -2.791015625 8.91015625 4.35 16.35 11.48828125 23.828515625 15.5 15.6 19.509765625 7.370703125 13.9 4.05
M 3.9 11.25
Q 3.95 11.15 3.5 7.9 3.1 4.85 3.8 3.85 4.75 3.9 8.45 5.45 8.6 4.95 8.8 4.45 9.15 3.45 9.25 3.5 15.05 6.6 11.8 12.85 11.4 13.8 10.5 14.05 6.05 15.45 3.9 11.25 Z"/>

<path fill="#FFCCFF" stroke="none" d="
M 3.5 7.9
Q 3.95 11.15 3.9 11.25 6.05 15.45 10.5 14.05 11.4 13.8 11.8 12.85 15.05 6.6 9.25 3.5 9.15 3.45 8.8 4.45 8.6 4.95 8.45 5.45 4.75 3.9 3.8 3.85 3.1 4.85 3.5 7.9 Z"/>
</g>
</defs>

<g transform="matrix( 0.7528228759765625, 0, 0, 0.7528228759765625, 407.75,320.2) ">
<g transform="matrix( 1, 0, 0, 1, 112.1,57.15) ">
<g transform="matrix( 1, 0, 0, 1, -64.8,-70.5) ">
<g transform="matrix( 1.11004638671875, 0, 0, 1.40728759765625, -44.5,144.9) ">
<g transform="matrix( 1, 0, 0, 1, 0,0) ">
<use xlink:href="#Symbol_56_1_Layer0_0_FILL"/>
</g>
</g>

<g transform="matrix( 0.8188934326171875, 0.7493743896484375, -0.7493743896484375, 0.8188934326171875, 90.65,189.6) ">
<g transform="matrix( 1, 0, 0, 1, 0,0) ">
<use xlink:href="#Symbol_2_0_Layer0_0_FILL"/>
</g>
</g>

<g transform="matrix( 1.11004638671875, 0, 0, 1.11004638671875, 43.15,147.4) ">
<g transform="matrix( 1, 0, 0, 1, 0,0) ">
<use xlink:href="#Symbol_47_0_Layer0_0_FILL"/>
</g>
</g>

<g transform="matrix( 1.1090087890625, 0.0474700927734375, -0.0474700927734375, 1.1090087890625, 45.7,95.15) ">
<g transform="matrix( 1, 0, 0, 1, 0,0) ">
<use xlink:href="#Symbol_48_0_Layer0_0_FILL"/>
</g>
</g>

<g transform="matrix( 1.095794677734375, -0.177154541015625, 0.177154541015625, 1.095794677734375, -27.1,-2.55) ">
<g transform="matrix( 1, 0, 0, 1, 0,0) ">
<use xlink:href="#Symbol_49_0_Layer0_0_FILL"/>
</g>
</g>

<g transform="matrix( 1.1096649169921875, -0.0287322998046875, 0.0287322998046875, 1.1096649169921875, 21.15,54.35) ">
<g transform="matrix( 1, 0, 0, 1, 0,0) ">
<use xlink:href="#Symbol_50_0_Layer0_0_FILL"/>
</g>
</g>

<g transform="matrix( 1.11004638671875, 0, 0, 1.11004638671875, 49.15,198.1) ">
<g transform="matrix( 1, 0, 0, 1, 0,0) ">
<use xlink:href="#Symbol_2_2_Layer0_0_FILL"/>
</g>
</g>

<g transform="matrix( 1.0165863037109375, 0.4457244873046875, -0.4457244873046875, 1.0165863037109375, 10.5,103.4) ">
<g transform="matrix( 1, 0, 0, 1, 0,0) ">
<use xlink:href="#Symbol_51_0_Layer0_0_FILL"/>
</g>
</g>

<g transform="matrix( 1.0934295654296875, -0.1911773681640625, 0.1911773681640625, 1.0934295654296875, 35.05,79.8) ">
<g transform="matrix( 1, 0, 0, 1, 0,0) ">
<use xlink:href="#Symbol_52_0_Layer0_0_FILL"/>
</g>
</g>

<g transform="matrix( 1.1096649169921875, 0.0287322998046875, -0.0287322998046875, 1.1096649169921875, -2.2,135.25) ">
<g transform="matrix( 1, 0, 0, 1, 0,0) ">
<use xlink:href="#Symbol_53_0_Layer0_0_FILL"/>
</g>
</g>

<g transform="matrix( 1.080810546875, 0.252410888671875, -0.19683837890625, 0.8428192138671875, 176.35,193.75) ">
<g transform="matrix( 1, 0, 0, 1, 0,0) ">
<use xlink:href="#Symbol_55_0_Layer0_0_FILL"/>
</g>
</g>
</g>
</g>
</g>
</svg>
