
<svg xmlns="http://www.w3.org/2000/svg" version="1.1" xmlns:xlink="http://www.w3.org/1999/xlink" preserveAspectRatio="none" x="0px" y="0px" width="1000px" height="1000px" viewBox="0 0 1000 1000">
<defs>
<linearGradient id="Gradient_1" gradientUnits="userSpaceOnUse" x1="14.6125" y1="15.275000000000002" x2="17.8875" y2="50.625" spreadMethod="pad">
<stop  offset="0%" stop-color="#FFFFFF"/>

<stop  offset="100%" stop-color="#424242"/>
</linearGradient>

<linearGradient id="Gradient_2" gradientUnits="userSpaceOnUse" x1="49.85" y1="16.949999999999996" x2="49.85" y2="36.35" spreadMethod="pad">
<stop  offset="0%" stop-color="#FFFFFF"/>

<stop  offset="100%" stop-color="#424242"/>
</linearGradient>

<linearGradient id="Gradient_3" gradientUnits="userSpaceOnUse" x1="86.7" y1="19.375" x2="86.7" y2="27.125" spreadMethod="pad">
<stop  offset="0%" stop-color="#FFFFFF"/>

<stop  offset="100%" stop-color="#424242"/>
</linearGradient>

<linearGradient id="Gradient_4" gradientUnits="userSpaceOnUse" x1="185.9375" y1="21.525" x2="185.46249999999998" y2="25.875" spreadMethod="pad">
<stop  offset="0%" stop-color="#FFFFFF"/>

<stop  offset="100%" stop-color="#424242"/>
</linearGradient>

<linearGradient id="Gradient_5" gradientUnits="userSpaceOnUse" x1="121.85" y1="18.875" x2="121.85" y2="23.725" spreadMethod="pad">
<stop  offset="0%" stop-color="#FFFFFF"/>

<stop  offset="100%" stop-color="#424242"/>
</linearGradient>

<g id="Symbol_53_0_Layer0_0_FILL">
<path fill="#000000" stroke="none" d="
M 217.2 23.95
Q 233.0880859375 18.7224609375 236.5 17.8 231.494921875 14.7619140625 213.65 11.3 192.7478515625 12.3736328125 166.4 12.85 140.1138671875 13.3763671875 101.05 11.45 62.034765625 9.529296875 34.8 2.7 7.605859375 -4.09140625 2.1 15.95 -7.7 51.6 24.9 53.1 36.7853515625 40.7462890625 84.4 30.75 114.405078125 24.4640625 159.7 26.25 185.634375 22.7677734375 217.2 23.95
M 148 20.7
L 130.8 21.9 109.35 24.15 94.05 26.3 72.3 30.3 59.75 33.2
Q 57.25 33.8 54.75 34.4 43.6 37.45 33.6 43.55 32.7 44.25 31.85 45 24.2 51.8 14.25 48.75 13.75 48.5 13.25 48.3 7.9 46 5.7 40.55
L 3.5 29.5
Q 3.65 29.25 3.65 29.05 4.1 3.7 26.2 6.6
L 46.55 12.2 62.55 14.15 80.65 15.2 99 15.8 114.95 16.25 132.3 16.75 150.35 17.3 224.5 17.5 148 20.7 Z"/>

<path fill="#3333CC" stroke="none" d="
M 14.75 36.95
L 14.25 48.75
Q 24.2 51.8 31.85 45 32.7 44.25 33.6 43.55
L 37.1 30.95 14.75 36.95
M 58.55 27
L 59.75 33.2 72.3 30.3 74.35 24.65 58.55 27
M 94.7 22.25
L 94.05 26.3 109.35 24.15 111.4 20.85 94.7 22.25
M 130.8 21.9
L 148 20.7 148.4 20.1 131.15 19.95 130.8 21.9 Z"/>

<path fill="#666666" stroke="none" d="
M 13.25 48.3
Q 13.75 48.5 14.25 48.75
L 14.75 36.95 5.7 40.55
Q 7.9 46 13.25 48.3
M 59.75 33.2
L 58.55 27 37.1 30.95 33.6 43.55
Q 43.6 37.45 54.75 34.4 57.25 33.8 59.75 33.2
M 94.05 26.3
L 94.7 22.25 74.35 24.65 72.3 30.3 94.05 26.3
M 130.8 21.9
L 131.15 19.95 111.4 20.85 109.35 24.15 130.8 21.9 Z"/>

<path fill="#0099FF" stroke="none" d="
M 26.2 6.6
Q 25.2 8.2 24.25 9.85 16.85 22.55 14.75 36.95
L 37.1 30.95 46.55 12.2 26.2 6.6
M 62.55 14.15
Q 61.7 15.75 60.9 17.4 58.8 21.95 58.55 27
L 74.35 24.65 80.65 15.2 62.55 14.15
M 114.95 16.25
L 99 15.8 94.7 22.25 111.4 20.85 114.95 16.25
M 150.35 17.3
L 132.3 16.75 131.15 19.95 148.4 20.1 150.35 17.3 Z"/>

<path fill="url(#Gradient_1)" stroke="none" d="
M 24.25 9.85
Q 25.2 8.2 26.2 6.6 4.1 3.7 3.65 29.05 3.65 29.25 3.5 29.5
L 5.7 40.55 14.75 36.95
Q 16.85 22.55 24.25 9.85 Z"/>

<path fill="url(#Gradient_2)" stroke="none" d="
M 60.9 17.4
Q 61.7 15.75 62.55 14.15
L 46.55 12.2 37.1 30.95 58.55 27
Q 58.8 21.95 60.9 17.4 Z"/>

<path fill="url(#Gradient_3)" stroke="none" d="
M 94.7 22.25
L 99 15.8 80.65 15.2 74.35 24.65 94.7 22.25 Z"/>

<path fill="url(#Gradient_4)" stroke="none" d="
M 148.4 20.1
L 148 20.7 224.5 17.5 150.35 17.3 148.4 20.1 Z"/>

<path fill="url(#Gradient_5)" stroke="none" d="
M 131.15 19.95
L 132.3 16.75 114.95 16.25 111.4 20.85 131.15 19.95 Z"/>
</g>
</defs>

<g transform="matrix( 0.7528228759765625, 0, 0, 0.7528228759765625, 407.75,320.2) ">
<g transform="matrix( 1, 0, 0, 1, 112.1,57.15) ">
<g transform="matrix( 1.1046142578125, 0.1065673828125, -0.1065673828125, 1.1046142578125, -51.45,95.5) ">
<g transform="matrix( 1, 0, 0, 1, 0,0) ">
<use xlink:href="#Symbol_53_0_Layer0_0_FILL"/>
</g>
</g>
</g>
</g>
</svg>
