
<svg xmlns="http://www.w3.org/2000/svg" version="1.1" xmlns:xlink="http://www.w3.org/1999/xlink" preserveAspectRatio="none" x="0px" y="0px" width="300px" height="300px" viewBox="0 0 300 300">
<defs>
<g id="Symbol_1_0_Layer0_0_FILL">
<path fill="#99CCFF" fill-opacity="0.4980392156862745" stroke="none" d="
M 265.65 71.95
Q 265.3 71.15 264.05 68.4 263.05 66.25 262.6 64.85 262.2 63.5 261.75 60.7 261.3 57.9 260.85 56.55 259 50.55 252.65 46.7 247.15 43.3 239.8 42.35 236.4 41.9 226.4 41.65 217.95 41.45 213.1 40.35 214.2 37.05 212.5 33 211.35 30.2 208.35 26.25 202.1 17.95 197.7 14.05 191 8.05 183.95 7.05 180.25 6.5 174.25 7.35 166.55 8.4 164.5 8.45 161.65 8.55 157.3 8.05 150.8 7.35 150.1 7.3 138.75 6.5 123.3 10.45 117.95 11.8 114.65 13.3 110.05 15.3 107.15 18.2 103.85 21.6 103.05 26.2 102.2 31.15 104.8 34.65 97.55 37.35 89.85 37.75 86.85 33.55 80.9 31.05 77 29.35 69.7 27.75 62.4 26.15 58.2 25.95 51.7 25.7 47.1 28 44.4 29.35 41.2 32.35 39.4 34.05 35.85 37.5 35.35 37.95 25.95 45.2 19.95 49.8 17.3 53.95 12.9 60.8 14.35 69.5 15.75 78.15 22.05 83.25 8.2 92.1 3.8 103.3 1.2 109.95 2.4 116.95 3.65 124.35 8.7 128.7 9.5 129.4 11.1 130.65 12.45 131.8 13.1 132.9 13.8 134.15 14.2 136.05 14.4 137.2 14.7 139.45 15.75 145.3 20.2 149.8 24.65 154.25 30.5 155.35 36.3 156.45 42.05 153.85 47.8 151.3 50.9 146.2
L 73.9 140.4
Q 78.1 149.35 88.75 155.8 95.8 160 109.4 164.85 118.2 167.95 123.6 168.65 131.6 169.7 137.35 166.8 145.4 162.7 150.1 150.1 153.4 148.65 158 149.15 160.5 149.45 166.3 151 177.25 153.85 182.05 150.95 183.35 150.2 185.75 147.9 188 145.75 189.5 144.95 191.3 144 193.9 143.7 195.35 143.55 198.6 143.55 198.95 143.55 199.35 143.55 200.45 143.85 201.1 144.25 199.95 145.95 199.6 148 199.25 150.1 199.8 152.05 200.4 154 201.8 155.55 203.2 157.1 205.1 157.9 206.6 158.55 208.7 158.7 209.75 158.8 212.4 158.8 214.6 158.75 215.65 158.6 217.45 158.3 218.7 157.55 221.1 156.1 221.9 152.8 222.55 150 221.9 146.7 221.15 142.8 219.25 140.3 221.5 139.3 223.4 138.05 229 134.35 231.5 128.1 234.1 121.5 231.45 115.85 233.75 115.4 235.8 112.35 238.95 107.65 239.3 107.3 241.25 105.25 245.1 104.05 247.3 103.35 251.8 102.15 260.6 99.1 264.85 89.85 269.1 80.55 265.65 71.95 Z"/>
</g>
</defs>

<g transform="matrix( 1.01605224609375, 0, 0, 1.01605224609375, 55.15,72.75) ">
<g transform="matrix( 1, 0, 0, 1, -93.5,54.6) ">
<g transform="matrix( -0.5072174072265625, 0, 0, 0.6507720947265625, 235.05,7.4) ">
<g transform="matrix( 1, 0, 0, 1, 0,0) ">
<use xlink:href="#Symbol_1_0_Layer0_0_FILL"/>
</g>
</g>

<g transform="matrix( 0.228485107421875, 0, 0, 0.4472808837890625, 225.45,19.45) ">
<g transform="matrix( 1, 0, 0, 1, 0,0) ">
<use xlink:href="#Symbol_1_0_Layer0_0_FILL"/>
</g>
</g>

<g transform="matrix( 0.305450439453125, 0, 0, -0.39190673828125, 84.5,123.55) ">
<g transform="matrix( 1, 0, 0, 1, 0,0) ">
<use xlink:href="#Symbol_1_0_Layer0_0_FILL"/>
</g>
</g>

<g transform="matrix( 0.305450439453125, 0, 0, 0.39190673828125, 176.75,-9.1) ">
<g transform="matrix( 1, 0, 0, 1, 0,0) ">
<use xlink:href="#Symbol_1_0_Layer0_0_FILL"/>
</g>
</g>

<g transform="matrix( -0.4522705078125, 0, 0, -0.368194580078125, 240.25,133.6) ">
<g transform="matrix( 1, 0, 0, 1, 0,0) ">
<use xlink:href="#Symbol_1_0_Layer0_0_FILL"/>
</g>
</g>

<g transform="matrix( 0.1746063232421875, 0, 0, 0.2240447998046875, 92.05,24.2) ">
<g transform="matrix( 1, 0, 0, 1, 0,0) ">
<use xlink:href="#Symbol_1_0_Layer0_0_FILL"/>
</g>
</g>

<g transform="matrix( -0.345062255859375, 0, 0, 0.44268798828125, 299.2,51.8) ">
<g transform="matrix( 1, 0, 0, 1, 0,0) ">
<use xlink:href="#Symbol_1_0_Layer0_0_FILL"/>
</g>
</g>
</g>
</g>
</svg>
