
<svg xmlns="http://www.w3.org/2000/svg" version="1.1" xmlns:xlink="http://www.w3.org/1999/xlink" preserveAspectRatio="none" x="0px" y="0px" width="300px" height="300px" viewBox="0 0 300 300">
<defs>
<g id="Symbol_1_5_Layer0_0_FILL">
<path fill="#99CCFF" fill-opacity="0.4980392156862745" stroke="none" d="
M 228.65 36.6
Q 218.35 9.2 189.25 0.65 139.4 -14 119.85 31.25
L 104.9 34.35
Q 92.3 22.9 75.4 25.4 26.2 32.45 37.1 79.85 27.05 88.55 22.95 101.05 19.55 111.5 24.4 121.15 46.3 164.7 88.95 137 92.4 141.9 96.85 146.4 132.55 182.65 165.15 146.7
L 194.95 148.3
Q 203.8 140 215.85 141.7 215.1 145.3 217.1 148.05 222.15 154.8 229.8 151.1 239 146.6 234.3 136.9 237.5 135.5 240.15 133.1 249.6 124.7 247.1 112.35 268.4 107.3 271.1 87.25 277.65 38.45 228.65 36.6 Z"/>
</g>
</defs>

<g transform="matrix( 1.01605224609375, 0, 0, 1.01605224609375, 55.15,72.75) ">
<g transform="matrix( 1, 0, 0, 1, -93.5,54.6) ">
<g transform="matrix( -0.5072174072265625, 0, 0, 0.6507720947265625, 235.05,7.4) ">
<g transform="matrix( 1, 0, 0, 1, 0,0) ">
<use xlink:href="#Symbol_1_5_Layer0_0_FILL"/>
</g>
</g>

<g transform="matrix( 0.228485107421875, 0, 0, 0.4472808837890625, 225.45,19.45) ">
<g transform="matrix( 1, 0, 0, 1, 0,0) ">
<use xlink:href="#Symbol_1_5_Layer0_0_FILL"/>
</g>
</g>

<g transform="matrix( 0.305450439453125, 0, 0, -0.39190673828125, 84.5,123.55) ">
<g transform="matrix( 1, 0, 0, 1, 0,0) ">
<use xlink:href="#Symbol_1_5_Layer0_0_FILL"/>
</g>
</g>

<g transform="matrix( 0.305450439453125, 0, 0, 0.39190673828125, 176.75,-9.1) ">
<g transform="matrix( 1, 0, 0, 1, 0,0) ">
<use xlink:href="#Symbol_1_5_Layer0_0_FILL"/>
</g>
</g>

<g transform="matrix( -0.4522705078125, 0, 0, -0.368194580078125, 240.25,133.6) ">
<g transform="matrix( 1, 0, 0, 1, 0,0) ">
<use xlink:href="#Symbol_1_5_Layer0_0_FILL"/>
</g>
</g>

<g transform="matrix( 0.1746063232421875, 0, 0, 0.2240447998046875, 92.05,24.2) ">
<g transform="matrix( 1, 0, 0, 1, 0,0) ">
<use xlink:href="#Symbol_1_5_Layer0_0_FILL"/>
</g>
</g>

<g transform="matrix( -0.345062255859375, 0, 0, 0.44268798828125, 299.2,51.8) ">
<g transform="matrix( 1, 0, 0, 1, 0,0) ">
<use xlink:href="#Symbol_1_5_Layer0_0_FILL"/>
</g>
</g>
</g>
</g>
</svg>
