
<svg xmlns="http://www.w3.org/2000/svg" version="1.1" xmlns:xlink="http://www.w3.org/1999/xlink" preserveAspectRatio="none" x="0px" y="0px" width="300px" height="300px" viewBox="0 0 300 300">
<defs>
<g id="Symbol_1_9_Layer0_0_FILL">
<path fill="#99CCFF" fill-opacity="0.4980392156862745" stroke="none" d="
M 254.85 97.3
Q 267.05 87.75 263.65 72.95 263.05 70.3 262.45 67.9 260.4 59.75 256.95 52.3 255.2 48.55 251.7 46.45 241.9 40.5 230 40.25 226.3 39.95 222.7 40.3 216.45 40.75 211.45 38.3 211.4 37.35 211.2 36.5 207.6 22.7 196.95 12.9 188.8 5.35 177.75 5.45 171.2 6.1 164.7 6.15 156.2 6.25 147.55 5.45 140.35 5.3 133 6.15 119.4 6.95 108.35 14.4 97.8 21.65 102.65 32.95
L 87.7 36.05
Q 83.45 31.05 77.15 28.6 66.05 24.15 54.1 24.4 48.8 24.5 44.45 27.5 30 37.4 17.45 50.2 15.85 51.85 14.9 53.95 7.85 69.55 19.9 81.55 16.25 84.3 12.75 87.15 6.6 92.2 3.25 99.25 -4.5 115.75 8 128.5 9.05 129.5 9.45 130.65 12.05 138.25 16.35 145.2 19.6 150.55 25.7 152.3 40.2 156.65 48.75 144.5
L 71.75 138.7
Q 74 143.15 77.65 146.3 92.75 159.45 111.8 165.4 118.7 167.6 125.9 167 143.2 165.1 147.95 148.4 149.9 147.95 151.75 148.15 164.4 150.1 177.15 150.05 178.3 150.05 179.1 149.2 187.3 140.2 198.95 142.55 197 145.7 198.1 149.25 200.2 156.2 207.65 157.6 212.6 158.5 215.9 155.25 223.6 147.5 217.1 138.6 221.55 136.9 224.85 133.15 232.1 125.05 229.9 114.05 230.95 113.35 231.65 112.4 234.55 108.6 238.25 105.55 239.5 104.45 241.05 104 248.75 102.05 254.85 97.3 Z"/>
</g>
</defs>

<g transform="matrix( 1.01605224609375, 0, 0, 1.01605224609375, 55.15,72.75) ">
<g transform="matrix( 1, 0, 0, 1, -93.5,54.6) ">
<g transform="matrix( -0.5072174072265625, 0, 0, 0.6507720947265625, 235.05,7.4) ">
<g transform="matrix( 1, 0, 0, 1, 0,0) ">
<use xlink:href="#Symbol_1_9_Layer0_0_FILL"/>
</g>
</g>

<g transform="matrix( 0.228485107421875, 0, 0, 0.4472808837890625, 225.45,19.45) ">
<g transform="matrix( 1, 0, 0, 1, 0,0) ">
<use xlink:href="#Symbol_1_9_Layer0_0_FILL"/>
</g>
</g>

<g transform="matrix( 0.305450439453125, 0, 0, -0.39190673828125, 84.5,123.55) ">
<g transform="matrix( 1, 0, 0, 1, 0,0) ">
<use xlink:href="#Symbol_1_9_Layer0_0_FILL"/>
</g>
</g>

<g transform="matrix( 0.305450439453125, 0, 0, 0.39190673828125, 176.75,-9.1) ">
<g transform="matrix( 1, 0, 0, 1, 0,0) ">
<use xlink:href="#Symbol_1_9_Layer0_0_FILL"/>
</g>
</g>

<g transform="matrix( -0.4522705078125, 0, 0, -0.368194580078125, 240.25,133.6) ">
<g transform="matrix( 1, 0, 0, 1, 0,0) ">
<use xlink:href="#Symbol_1_9_Layer0_0_FILL"/>
</g>
</g>

<g transform="matrix( 0.1746063232421875, 0, 0, 0.2240447998046875, 92.05,24.2) ">
<g transform="matrix( 1, 0, 0, 1, 0,0) ">
<use xlink:href="#Symbol_1_9_Layer0_0_FILL"/>
</g>
</g>

<g transform="matrix( -0.345062255859375, 0, 0, 0.44268798828125, 299.2,51.8) ">
<g transform="matrix( 1, 0, 0, 1, 0,0) ">
<use xlink:href="#Symbol_1_9_Layer0_0_FILL"/>
</g>
</g>
</g>
</g>
</svg>
