
<svg xmlns="http://www.w3.org/2000/svg" version="1.1" xmlns:xlink="http://www.w3.org/1999/xlink" preserveAspectRatio="none" x="0px" y="0px" width="300px" height="300px" viewBox="0 0 300 300">
<defs>
<g id="sharknight_sharknight_33_Layer1_0_FILL">
<path fill="#000000" stroke="none" d="
M 121.1 97.15
Q 115.05 97 109.1 97.05
L 101 97.05
Q 99.5265625 97.05625 98 97.05 97.5185546875 97.0478515625 97 97.05
L 97 97.05
Q 96.828125 97.0427734375 96.65 97.05 94.3455078125 97.030859375 92.05 97.05
L 79.95 97.05
Q 78.75 97 78.05 97.5 77.55 97.85 77.35 98.55 77.2 98.95 77 99.85 76.65 100.7 75.65 102 74.55 103.35 74.25 104.1 73.7 105.35 74 106.7 74.3 108.1 75.25 109 75.8 109.55 77.05 110.4 78 111.2 79.4 113.2 81 115.25 85.15 118.25 87.05 119.6 87.75 119.95 89.45 120.85 92.75 121.6 95.35 122.1 96.6 122.15 98.8 122.25 101.5 121.75 103.072265625 121.4552734375 106.25 120.55 107.6927734375 121.12109375 109.8 121.6 112.4 122.1 113.65 122.15 115.85 122.25 118.55 121.75 120.15 121.45 123.4 120.55 124.95 120.15 126 119.65 126.5 119.45 128.2 118.25 130.4 116.7 131.5 115.55 133.15 113.95 134.05 111.75 135.8 107.55 134.4 102.95 133.9 101.25 133.05 100.25 132.1 99.2 130.15 98.4 127.15 97.3 121.1 97.15 Z"/>
</g>

<g id="sharknight_sharknight_chest_armor_0_Layer0_0_FILL">
<path fill="#000000" stroke="none" d="
M 40.75 18.15
Q 42.35 16.5 43.2 14.3 44.85 10.05 43.35 5.5 42.85 3.8 41.95 2.85 41 1.8 39 1.05 36 0 29.95 0 23.9 0 17.95 0.15
L 5.85 0.4
Q 4.65 0.4 3.95 0.9 3.5 1.25 3.3 2 3.15 2.4 2.95 3.3 2.65 4.15 1.65 5.45 0.6 6.85 0.3 7.6 -0.2 8.85 0.1 10.2 0.45 11.6 1.4 12.45 2 13 3.25 13.85 4.2 14.6 5.65 16.6 7.3 18.6 11.5 21.5 13.45 22.8 14.15 23.15 15.9 24 19.2 24.7 21.8 25.1 23.05 25.15 25.25 25.2 27.95 24.65 29.55 24.3 32.75 23.35 34.3 22.9 35.35 22.4 35.85 22.15 37.5 20.95 39.65 19.35 40.75 18.15
M 37.05 3.85
Q 37.2046875 3.9125 37.35 3.95 38.2 4.25 38.75 4.55 36.75 7 33.9 8.75 28.2 12.3 21.6 11.7
L 17.25 11.1
Q 15.05 10.85 14.75 10.75 13.6 10.25 13 10.1 12.5 10 11.75 10 10.75 10 10.45 9.95 9.75 9.85 9.25 9.5 8.7 9.05 8.65 8.45 8.35 8.5 7.75 8.5
L 9.1 10.45
Q 9.4 11 9.75 11.25 10.2 11.55 11.2 11.6 12.25 11.65 12.65 11.9 13 12.1 13.55 12.6 13.5978515625 12.6265625 13.65 12.65 14.0796875 12.860546875 14.75 12.95 15.55 13.05 19.15 13.8 23.3 14.65 26.4 14.5 26.2 14.55 26 14.6 19.95 16.55 16.25 16.8 14.7 16.9 13.8 16.55 12.95 16.1 12.45 15.95 11.85 15.75 10.5 15.65 9.2 15.6 8.55 15.3 7.75 14.85 7.3 14.8 7.1 14.75 6.95 14.85 6.85 14.75 6.8 14.7 6.45 14.35 5.4 12.95 4.55 11.8 3.9 11.25 2.8 10.25 2.65 9.95 2.35 9.25 2.7 8.25
L 2.7 8.2
Q 3.0048828125 7.497265625 3.45 7.25 3.7 7.1 4.35 7.05 4.95 6.95 5.2 6.75 5.7 6.4 5.7 5.3 5.65 4 5.9 3.6 14.25 4 22.1 3.55
L 24.75 3.3
Q 26.15 3.1 26.8 3.1 27.15 3.1 28.9 3.35 29.9 3.5 33.15 3.5 33.5904296875 3.5083984375 34 3.5 35.8263671875 3.605859375 37.05 3.85
M 38.65 11.1
Q 39.45 10.55 39.65 10.2 40.1 9.45 39.65 8.9 39.45 8.7 39.25 8.6 39.85 7.9 40.45 7.15 40.85 8.45 40.85 9.5 40.8 10.9 39.55 13 38.45 14.7 37.8 15.5 36.05 17.55 33.45 18.8 32.3 19.35 28.7 20.35 26.75546875 20.779296875 25.55 21 24.3701171875 21.2251953125 23.9 21.25 21.4 21.45 18.1 20.75 15.95 20.2 15.3 19.9 13.9 19.4 11.3 17.9 10.6 17.5 10 17.15 11.2 17.25 12.45 17.6
L 14.25 18.2
Q 15 18.35 17.55 18.6 19.4 18.7 20.25 18.5 20.33671875 18.4783203125 20.45 18.45
L 20.4 18.45
Q 20.5798828125 18.409765625 20.8 18.35
L 21.4 18.2
Q 22 18.15 23.2 18.1 23.9 17.95 25.2 17.45 25.5 17.35 27.15 17.1 28.05 16.85 29.75 16.05 35.85 13.05 38.65 11.1 Z"/>

<path fill="#0099FF" stroke="none" d="
M 20.45 18.45
Q 20.33671875 18.4783203125 20.25 18.5 19.4 18.7 17.55 18.6 15 18.35 14.25 18.2
L 12.45 17.6
Q 11.2 17.25 10 17.15 10.6 17.5 11.3 17.9 13.9 19.4 15.3 19.9 15.95 20.2 18.1 20.75 21.4 21.45 23.9 21.25 24.3701171875 21.2251953125 25.55 21 27.8478515625 20.0494140625 31.5 17.75
L 21.65 18.45
Q 20.998046875 18.4791015625 20.45 18.45
M 26 14.6
Q 26.2 14.55 26.4 14.5 23.3 14.65 19.15 13.8 15.55 13.05 14.75 12.95 14.0796875 12.860546875 13.65 12.65 10.5015625 12.425 5.6 9.9 3.848046875 9.0564453125 2.7 8.2
L 2.7 8.25
Q 2.35 9.25 2.65 9.95 2.8 10.25 3.9 11.25 4.55 11.8 5.4 12.95 6.45 14.35 6.8 14.7 6.85 14.75 6.95 14.85 7.1 14.75 7.3 14.8 7.75 14.85 8.55 15.3 9.2 15.6 10.5 15.65 11.85 15.75 12.45 15.95 12.95 16.1 13.8 16.55 14.7 16.9 16.25 16.8 19.95 16.55 26 14.6
M 36.5 4.25
Q 36.6630859375 4.148046875 37.05 3.85 35.8263671875 3.605859375 34 3.5 30.23515625 5.2189453125 26.35 6.55 24.05 7.35 22.85 7.6 20.35 8.25 17.15 8.45 15.2 8.55 11.35 8.55 12.6 9.1 14.8 9.15 18.05 9.25 18.4 9.3 18.7 9.35 20.6 9.75 21.9 10.05 22.8 10 24.35 9.95 27.15 8.7
L 32.65 6.2
Q 35.45 4.9 36.5 4.25 Z"/>

<path fill="#003399" stroke="none" d="
M 39.65 10.2
Q 39.45 10.55 38.65 11.1 35.85 13.05 29.75 16.05 28.05 16.85 27.15 17.1 25.5 17.35 25.2 17.45 23.9 17.95 23.2 18.1 22 18.15 21.4 18.2
L 20.8 18.35
Q 20.5798828125 18.409765625 20.4 18.45
L 20.45 18.45
Q 20.998046875 18.4791015625 21.65 18.45
L 31.5 17.75
Q 27.8478515625 20.0494140625 25.55 21 26.75546875 20.779296875 28.7 20.35 32.3 19.35 33.45 18.8 36.05 17.55 37.8 15.5 38.45 14.7 39.55 13 40.8 10.9 40.85 9.5 40.85 8.45 40.45 7.15 39.85 7.9 39.25 8.6 39.45 8.7 39.65 8.9 40.1 9.45 39.65 10.2
M 37.35 3.95
Q 37.2046875 3.9125 37.05 3.85 36.6630859375 4.148046875 36.5 4.25 35.45 4.9 32.65 6.2
L 27.15 8.7
Q 24.35 9.95 22.8 10 21.9 10.05 20.6 9.75 18.7 9.35 18.4 9.3 18.05 9.25 14.8 9.15 12.6 9.1 11.35 8.55 15.2 8.55 17.15 8.45 20.35 8.25 22.85 7.6 24.05 7.35 26.35 6.55 30.23515625 5.2189453125 34 3.5 33.5904296875 3.5083984375 33.15 3.5 29.9 3.5 28.9 3.35 27.15 3.1 26.8 3.1 26.15 3.1 24.75 3.3
L 22.1 3.55
Q 14.25 4 5.9 3.6 5.65 4 5.7 5.3 5.7 6.4 5.2 6.75 4.95 6.95 4.35 7.05 3.7 7.1 3.45 7.25 3.0048828125 7.497265625 2.7 8.2 3.848046875 9.0564453125 5.6 9.9 10.5015625 12.425 13.65 12.65 13.5978515625 12.6265625 13.55 12.6 13 12.1 12.65 11.9 12.25 11.65 11.2 11.6 10.2 11.55 9.75 11.25 9.4 11 9.1 10.45
L 7.75 8.5
Q 8.35 8.5 8.65 8.45 8.7 9.05 9.25 9.5 9.75 9.85 10.45 9.95 10.75 10 11.75 10 12.5 10 13 10.1 13.6 10.25 14.75 10.75 15.05 10.85 17.25 11.1
L 21.6 11.7
Q 28.2 12.3 33.9 8.75 36.75 7 38.75 4.55 38.2 4.25 37.35 3.95 Z"/>
</g>
</defs>

<g transform="matrix( 1.01605224609375, 0, 0, 1.01605224609375, 55.15,72.75) ">
<g transform="matrix( 1, 0, 0, 1, 0,0) ">
<use xlink:href="#sharknight_sharknight_33_Layer1_0_FILL"/>
</g>

<g transform="matrix( 0.999725341796875, 0.02191162109375, -0.02191162109375, 0.999725341796875, 83.4,96.5) ">
<g transform="matrix( 1, 0, 0, 1, 0,0) ">
<use xlink:href="#sharknight_sharknight_chest_armor_0_Layer0_0_FILL"/>
</g>
</g>
</g>
</svg>
