
<svg xmlns="http://www.w3.org/2000/svg" version="1.1" xmlns:xlink="http://www.w3.org/1999/xlink" preserveAspectRatio="none" x="0px" y="0px" width="1000px" height="1000px" viewBox="0 0 1000 1000">
<defs>
<g id="chink_1_Layer1_0_FILL">
<path fill="#FFFFFF" stroke="none" d="
M 24.9 71.85
L 3.1 49.55 21.45 75.4 -11.9 92.8 22.9 81.65 26.35 186.05 29.05 81.8 54.4 104.15 32 77 76.9 47.4 29 72.6 25.45 -33.15 24.9 71.85 Z"/>
</g>

<g id="chink_1_Layer0_0_FILL">
<path fill="#FFFFFF" stroke="none" d="
M 3.55 164.15
Q 28.9 168.9 50.85 157.4 30.55 163.5 8.45 158.05 -24.4 150 -41.95 121.05 -56.55 96.95 -53.35 70.15 -54.5 73.95 -55.25 77.95 -60.95 108.1 -43.75 133.35 -26.5 158.55 3.55 164.15
M 59.9 -8.8
Q 30.95 -18.75 3.45 -5.5 0.1 -3.85 -2.95 -1.95 21 -12.15 47.55 -5.65 80.45 2.45 97.95 31.4 107.9 47.8 109.6 65.5 110.95 46.75 102.15 28.7 88.75 1.2 59.9 -8.8 Z"/>
</g>
</defs>

<g transform="matrix( 0.835113525390625, 0.3072052001953125, -0.3072052001953125, 0.835113525390625, 504,430) ">
<g transform="matrix( 1, 0, 0, 1, 0,0) ">
<use xlink:href="#chink_1_Layer1_0_FILL"/>
</g>

<g transform="matrix( 1, 0, 0, 1, 0,0) ">
<use xlink:href="#chink_1_Layer0_0_FILL"/>
</g>
</g>
</svg>
