
<svg xmlns="http://www.w3.org/2000/svg" version="1.1" xmlns:xlink="http://www.w3.org/1999/xlink" preserveAspectRatio="none" x="0px" y="0px" width="650px" height="550px" viewBox="0 0 650 550">
<defs>
<filter id="Filter_1" x="-20%" y="-20%" width="140%" height="140%" color-interpolation-filters="sRGB">
<feColorMatrix in="SourceGraphic" type="matrix" values="0 0 0 0 0 0 0 0 0 0.8 0 0 0 0 1 0 0 0 1 0" result="result1"/>
</filter>

<g id="Splash_FULL_12_Layer1_0_FILL">
<path fill="#00CCFF" stroke="none" d="
M 521.3 256.4
Q 587.1 239.05 532.15 223.95 477.25 208.8 472.65 206.55 499.5 204.7 493.4 189.05 487.25 173.4 395.65 164 304 154.55 289.1 163.4 274.2 172.2 225.15 177.7 176.05 183.15 214.4 196.3 218.65 197.8 222.45 198.85 121.7 219.5 149.4 230.6 177.15 241.65 191.15 257.6 205.2 273.55 292.25 266.95 379.3 260.35 417.4 267.05 455.4 273.75 521.3 256.4 Z"/>
</g>

<g id="Splash_Splash_03_copy_0_Layer0_0_FILL">
<path fill="#00CCFF" stroke="none" d="
M 86.6 57.95
Q 87.7 53.35 82.95 47.95 78.25 42.55 70.5 39.6 62.75 36.65 56.45 37.85 50.2 39.05 49.1 43.65 48 48.25 52.7 53.65 56.2095703125 57.6822265625 61.4 60.35 61.09375 62.7943359375 63.2 65.45 65.5 68.4 69.4 69.9 73.35 71.4 76.55 70.55 79.75 69.75 80.35 67.1 80.7705078125 65.41796875 79.95 63.6 85.5677734375 62.266796875 86.6 57.95
M 95.75 74.35
Q 92.55 75.2 91.95 77.85 91.3 80.5 93.6 83.45 95.9 86.4 99.8 87.85 103.75 89.35 106.95 88.5 110.15 87.65 110.75 85 111.4 82.35 109.1 79.4 106.85 76.45 102.9 74.95 99 73.5 95.75 74.35 Z"/>
</g>

<g id="Splash_Splash_03_0_Layer0_0_FILL">
<path fill="#00CCFF" stroke="none" d="
M 86.35 23.6
Q 86.1 21.6 85.7 17.6 85.25 14.1 84.3 11.8 81.5 5.4 73 1.8 66.55 -0.7 61.75 0.3 58.85 0.8 56.4 2.55 53.9 4.4 52.8 7 52.55 7.6 51.35 13.2 50.55 16.95 48.6 18.45 46.4 20.1 42.85 19.45 38.65 18.7 32.15 13.25 25.55 7.7 21.55 6.75 16.95 5.7 12.05 8 7.65 10.05 4.3 14.15 1.3 18 0.35 22.25 -0.7 27.05 1.4 30.75 2.85 33.4 6.2 35.5 7.15 36.15 12.4 38.85 20.9 43.15 28.15 49.65 35.3 56.1 40.6 64.15 44.2 69.85 43.35 73.55 42.8 75.6 40 78.9 37.2 82.1 36.75 84.2 36.2 86.8 37.7 89.5 39.05 91.95 41.5 93.55 43.4 94.75 46.55 96 51.45 97.85 51.75 98 56.9 100.15 63.4 105.1 67.1 107.9 74.45 113.55 76.2 114.75 79.55 116.85 83.15 119.1 84.7 120.15 89.5 123.65 96.6 130.45 119.1 152 140.95 176.15 142.65 178.15 144 178.2 145.3 178.2 146.15 177.05 147 175.9 146.9 174.6 146.8 172.55 144.75 169.95 140.3 163.85 131.5 153.35 121.9 142 118.05 136.9 110.9 127.3 106.6 118.9 101.35 108.7 99.65 99.05 99.25 96.15 99.7 94.95 100.65 92.7 103.55 92.05 106 91.5 109.05 92.15 113.35 93.15 114.3 93.3 117.35 93.6 119.25 92.3 121.15 91.05 121.75 88.55 122.3 86.25 121.6 83.9 120.95 81.9 119.45 79.75 118.45 78.3 116.45 76.15 103.2 61.35 97.1 51.8 87.85 37.3 86.35 23.6 Z"/>
</g>
</defs>

<g transform="matrix( -0.57574462890625, 0, 0, 0.5655975341796875, 536.8,333) ">
<g transform="matrix( 1, 0, 0, 1, 0,0) ">
<use filter="url(#Filter_1)" xlink:href="#Splash_FULL_12_Layer1_0_FILL"/>
</g>

<g transform="matrix( 1, 0, 0, 1, 111.95,68.5) ">
<g transform="matrix( 0.6004486083984375, -0.803131103515625, 0.201568603515625, 0.9027557373046875, -150.75,-35.45) ">
<g transform="matrix( 1, 0, 0, 1, 0,0) ">
<use filter="url(#Filter_1)" xlink:href="#Splash_Splash_03_copy_0_Layer0_0_FILL"/>
</g>
</g>

<g transform="matrix( 0.612396240234375, -0.5351715087890625, 0.201751708984375, 0.902923583984375, -17.15,-284.75) ">
<g transform="matrix( 1, 0, 0, 1, 0,0) ">
<use filter="url(#Filter_1)" xlink:href="#Splash_Splash_03_copy_0_Layer0_0_FILL"/>
</g>
</g>

<g transform="matrix( 0.374603271484375, -1.2650604248046875, 0.20123291015625, 0.9024810791015625, -320.2,173.8) ">
<g transform="matrix( 1, 0, 0, 1, 0,0) ">
<use filter="url(#Filter_1)" xlink:href="#Splash_Splash_03_0_Layer0_0_FILL"/>
</g>
</g>

<g transform="matrix( 1.5316925048828125, -0.2174072265625, 0.0500030517578125, 0.4522247314453125, 0.4,144) ">
<g transform="matrix( 1, 0, 0, 1, 0,0) ">
<use filter="url(#Filter_1)" xlink:href="#Splash_Splash_03_0_Layer0_0_FILL"/>
</g>
</g>
</g>

<g transform="matrix( -1, 0, 0, 1, 609.35,56.55) ">
<g transform="matrix( 0.6004486083984375, -0.803131103515625, 0.201568603515625, 0.9027557373046875, -150.75,-35.45) ">
<g transform="matrix( 1, 0, 0, 1, 0,0) ">
<use filter="url(#Filter_1)" xlink:href="#Splash_Splash_03_copy_0_Layer0_0_FILL"/>
</g>
</g>

<g transform="matrix( 0.612396240234375, -0.5351715087890625, 0.201751708984375, 0.902923583984375, -17.15,-284.75) ">
<g transform="matrix( 1, 0, 0, 1, 0,0) ">
<use filter="url(#Filter_1)" xlink:href="#Splash_Splash_03_copy_0_Layer0_0_FILL"/>
</g>
</g>

<g transform="matrix( 0.374603271484375, -1.2650604248046875, 0.20123291015625, 0.9024810791015625, -320.2,173.8) ">
<g transform="matrix( 1, 0, 0, 1, 0,0) ">
<use filter="url(#Filter_1)" xlink:href="#Splash_Splash_03_0_Layer0_0_FILL"/>
</g>
</g>

<g transform="matrix( 1.5316925048828125, -0.2174072265625, 0.0500030517578125, 0.4522247314453125, 0.4,144) ">
<g transform="matrix( 1, 0, 0, 1, 0,0) ">
<use filter="url(#Filter_1)" xlink:href="#Splash_Splash_03_0_Layer0_0_FILL"/>
</g>
</g>
</g>

<g transform="matrix( -0.675384521484375, 0, 0, 0.675384521484375, 428.15,85.7) ">
<g transform="matrix( 0.6004486083984375, -0.803131103515625, 0.201568603515625, 0.9027557373046875, -150.75,-35.45) ">
<g transform="matrix( 1, 0, 0, 1, 0,0) ">
<use filter="url(#Filter_1)" xlink:href="#Splash_Splash_03_copy_0_Layer0_0_FILL"/>
</g>
</g>

<g transform="matrix( 0.612396240234375, -0.5351715087890625, 0.201751708984375, 0.902923583984375, -17.15,-284.75) ">
<g transform="matrix( 1, 0, 0, 1, 0,0) ">
<use filter="url(#Filter_1)" xlink:href="#Splash_Splash_03_copy_0_Layer0_0_FILL"/>
</g>
</g>

<g transform="matrix( 0.374603271484375, -1.2650604248046875, 0.20123291015625, 0.9024810791015625, -320.2,173.8) ">
<g transform="matrix( 1, 0, 0, 1, 0,0) ">
<use filter="url(#Filter_1)" xlink:href="#Splash_Splash_03_0_Layer0_0_FILL"/>
</g>
</g>

<g transform="matrix( 1.5316925048828125, -0.2174072265625, 0.0500030517578125, 0.4522247314453125, 0.4,144) ">
<g transform="matrix( 1, 0, 0, 1, 0,0) ">
<use filter="url(#Filter_1)" xlink:href="#Splash_Splash_03_0_Layer0_0_FILL"/>
</g>
</g>
</g>

<g transform="matrix( 0.4836273193359375, 0, 0, 0.4836273193359375, 109.1,127.55) ">
<g transform="matrix( 0.6004486083984375, -0.803131103515625, 0.201568603515625, 0.9027557373046875, -150.75,-35.45) ">
<g transform="matrix( 1, 0, 0, 1, 0,0) ">
<use filter="url(#Filter_1)" xlink:href="#Splash_Splash_03_copy_0_Layer0_0_FILL"/>
</g>
</g>

<g transform="matrix( 0.612396240234375, -0.5351715087890625, 0.201751708984375, 0.902923583984375, -17.15,-284.75) ">
<g transform="matrix( 1, 0, 0, 1, 0,0) ">
<use filter="url(#Filter_1)" xlink:href="#Splash_Splash_03_copy_0_Layer0_0_FILL"/>
</g>
</g>

<g transform="matrix( 0.374603271484375, -1.2650604248046875, 0.20123291015625, 0.9024810791015625, -320.2,173.8) ">
<g transform="matrix( 1, 0, 0, 1, 0,0) ">
<use filter="url(#Filter_1)" xlink:href="#Splash_Splash_03_0_Layer0_0_FILL"/>
</g>
</g>

<g transform="matrix( 1.5316925048828125, -0.2174072265625, 0.0500030517578125, 0.4522247314453125, 0.4,144) ">
<g transform="matrix( 1, 0, 0, 1, 0,0) ">
<use filter="url(#Filter_1)" xlink:href="#Splash_Splash_03_0_Layer0_0_FILL"/>
</g>
</g>
</g>

<g transform="matrix( 0.63238525390625, 0, 0, 1.557403564453125, 242.15,-19.2) ">
<g transform="matrix( 0.6004486083984375, -0.803131103515625, 0.201568603515625, 0.9027557373046875, -150.75,-35.45) ">
<g transform="matrix( 1, 0, 0, 1, 0,0) ">
<use filter="url(#Filter_1)" xlink:href="#Splash_Splash_03_copy_0_Layer0_0_FILL"/>
</g>
</g>

<g transform="matrix( 0.612396240234375, -0.5351715087890625, 0.201751708984375, 0.902923583984375, -17.15,-284.75) ">
<g transform="matrix( 1, 0, 0, 1, 0,0) ">
<use filter="url(#Filter_1)" xlink:href="#Splash_Splash_03_copy_0_Layer0_0_FILL"/>
</g>
</g>

<g transform="matrix( 0.374603271484375, -1.2650604248046875, 0.20123291015625, 0.9024810791015625, -320.2,173.8) ">
<g transform="matrix( 1, 0, 0, 1, 0,0) ">
<use filter="url(#Filter_1)" xlink:href="#Splash_Splash_03_0_Layer0_0_FILL"/>
</g>
</g>

<g transform="matrix( 1.5316925048828125, -0.2174072265625, 0.0500030517578125, 0.4522247314453125, 0.4,144) ">
<g transform="matrix( 1, 0, 0, 1, 0,0) ">
<use filter="url(#Filter_1)" xlink:href="#Splash_Splash_03_0_Layer0_0_FILL"/>
</g>
</g>
</g>
</g>

<g transform="matrix( 0.359771728515625, 0, 0, 0.424224853515625, 190.1,308.2) ">
<g transform="matrix( 1, 0, 0, 1, 0,0) ">
<use filter="url(#Filter_1)" xlink:href="#Splash_FULL_12_Layer1_0_FILL"/>
</g>

<g transform="matrix( 1, 0, 0, 1, 111.95,68.5) ">
<g transform="matrix( 0.6004486083984375, -0.803131103515625, 0.201568603515625, 0.9027557373046875, -150.75,-35.45) ">
<g transform="matrix( 1, 0, 0, 1, 0,0) ">
<use filter="url(#Filter_1)" xlink:href="#Splash_Splash_03_copy_0_Layer0_0_FILL"/>
</g>
</g>

<g transform="matrix( 0.612396240234375, -0.5351715087890625, 0.201751708984375, 0.902923583984375, -17.15,-284.75) ">
<g transform="matrix( 1, 0, 0, 1, 0,0) ">
<use filter="url(#Filter_1)" xlink:href="#Splash_Splash_03_copy_0_Layer0_0_FILL"/>
</g>
</g>

<g transform="matrix( 0.374603271484375, -1.2650604248046875, 0.20123291015625, 0.9024810791015625, -320.2,173.8) ">
<g transform="matrix( 1, 0, 0, 1, 0,0) ">
<use filter="url(#Filter_1)" xlink:href="#Splash_Splash_03_0_Layer0_0_FILL"/>
</g>
</g>

<g transform="matrix( 1.5316925048828125, -0.2174072265625, 0.0500030517578125, 0.4522247314453125, 0.4,144) ">
<g transform="matrix( 1, 0, 0, 1, 0,0) ">
<use filter="url(#Filter_1)" xlink:href="#Splash_Splash_03_0_Layer0_0_FILL"/>
</g>
</g>
</g>

<g transform="matrix( -1, 0, 0, 1, 609.35,56.55) ">
<g transform="matrix( 0.6004486083984375, -0.803131103515625, 0.201568603515625, 0.9027557373046875, -150.75,-35.45) ">
<g transform="matrix( 1, 0, 0, 1, 0,0) ">
<use filter="url(#Filter_1)" xlink:href="#Splash_Splash_03_copy_0_Layer0_0_FILL"/>
</g>
</g>

<g transform="matrix( 0.612396240234375, -0.5351715087890625, 0.201751708984375, 0.902923583984375, -17.15,-284.75) ">
<g transform="matrix( 1, 0, 0, 1, 0,0) ">
<use filter="url(#Filter_1)" xlink:href="#Splash_Splash_03_copy_0_Layer0_0_FILL"/>
</g>
</g>

<g transform="matrix( 0.374603271484375, -1.2650604248046875, 0.20123291015625, 0.9024810791015625, -320.2,173.8) ">
<g transform="matrix( 1, 0, 0, 1, 0,0) ">
<use filter="url(#Filter_1)" xlink:href="#Splash_Splash_03_0_Layer0_0_FILL"/>
</g>
</g>

<g transform="matrix( 1.5316925048828125, -0.2174072265625, 0.0500030517578125, 0.4522247314453125, 0.4,144) ">
<g transform="matrix( 1, 0, 0, 1, 0,0) ">
<use filter="url(#Filter_1)" xlink:href="#Splash_Splash_03_0_Layer0_0_FILL"/>
</g>
</g>
</g>

<g transform="matrix( -0.675384521484375, 0, 0, 0.675384521484375, 428.15,85.7) ">
<g transform="matrix( 0.6004486083984375, -0.803131103515625, 0.201568603515625, 0.9027557373046875, -150.75,-35.45) ">
<g transform="matrix( 1, 0, 0, 1, 0,0) ">
<use filter="url(#Filter_1)" xlink:href="#Splash_Splash_03_copy_0_Layer0_0_FILL"/>
</g>
</g>

<g transform="matrix( 0.612396240234375, -0.5351715087890625, 0.201751708984375, 0.902923583984375, -17.15,-284.75) ">
<g transform="matrix( 1, 0, 0, 1, 0,0) ">
<use filter="url(#Filter_1)" xlink:href="#Splash_Splash_03_copy_0_Layer0_0_FILL"/>
</g>
</g>

<g transform="matrix( 0.374603271484375, -1.2650604248046875, 0.20123291015625, 0.9024810791015625, -320.2,173.8) ">
<g transform="matrix( 1, 0, 0, 1, 0,0) ">
<use filter="url(#Filter_1)" xlink:href="#Splash_Splash_03_0_Layer0_0_FILL"/>
</g>
</g>

<g transform="matrix( 1.5316925048828125, -0.2174072265625, 0.0500030517578125, 0.4522247314453125, 0.4,144) ">
<g transform="matrix( 1, 0, 0, 1, 0,0) ">
<use filter="url(#Filter_1)" xlink:href="#Splash_Splash_03_0_Layer0_0_FILL"/>
</g>
</g>
</g>

<g transform="matrix( 0.4836273193359375, 0, 0, 0.4836273193359375, 109.1,127.55) ">
<g transform="matrix( 0.6004486083984375, -0.803131103515625, 0.201568603515625, 0.9027557373046875, -150.75,-35.45) ">
<g transform="matrix( 1, 0, 0, 1, 0,0) ">
<use filter="url(#Filter_1)" xlink:href="#Splash_Splash_03_copy_0_Layer0_0_FILL"/>
</g>
</g>

<g transform="matrix( 0.612396240234375, -0.5351715087890625, 0.201751708984375, 0.902923583984375, -17.15,-284.75) ">
<g transform="matrix( 1, 0, 0, 1, 0,0) ">
<use filter="url(#Filter_1)" xlink:href="#Splash_Splash_03_copy_0_Layer0_0_FILL"/>
</g>
</g>

<g transform="matrix( 0.374603271484375, -1.2650604248046875, 0.20123291015625, 0.9024810791015625, -320.2,173.8) ">
<g transform="matrix( 1, 0, 0, 1, 0,0) ">
<use filter="url(#Filter_1)" xlink:href="#Splash_Splash_03_0_Layer0_0_FILL"/>
</g>
</g>

<g transform="matrix( 1.5316925048828125, -0.2174072265625, 0.0500030517578125, 0.4522247314453125, 0.4,144) ">
<g transform="matrix( 1, 0, 0, 1, 0,0) ">
<use filter="url(#Filter_1)" xlink:href="#Splash_Splash_03_0_Layer0_0_FILL"/>
</g>
</g>
</g>

<g transform="matrix( 0.63238525390625, 0, 0, 1.557403564453125, 242.15,-19.2) ">
<g transform="matrix( 0.6004486083984375, -0.803131103515625, 0.201568603515625, 0.9027557373046875, -150.75,-35.45) ">
<g transform="matrix( 1, 0, 0, 1, 0,0) ">
<use filter="url(#Filter_1)" xlink:href="#Splash_Splash_03_copy_0_Layer0_0_FILL"/>
</g>
</g>

<g transform="matrix( 0.612396240234375, -0.5351715087890625, 0.201751708984375, 0.902923583984375, -17.15,-284.75) ">
<g transform="matrix( 1, 0, 0, 1, 0,0) ">
<use filter="url(#Filter_1)" xlink:href="#Splash_Splash_03_copy_0_Layer0_0_FILL"/>
</g>
</g>

<g transform="matrix( 0.374603271484375, -1.2650604248046875, 0.20123291015625, 0.9024810791015625, -320.2,173.8) ">
<g transform="matrix( 1, 0, 0, 1, 0,0) ">
<use filter="url(#Filter_1)" xlink:href="#Splash_Splash_03_0_Layer0_0_FILL"/>
</g>
</g>

<g transform="matrix( 1.5316925048828125, -0.2174072265625, 0.0500030517578125, 0.4522247314453125, 0.4,144) ">
<g transform="matrix( 1, 0, 0, 1, 0,0) ">
<use filter="url(#Filter_1)" xlink:href="#Splash_Splash_03_0_Layer0_0_FILL"/>
</g>
</g>
</g>
</g>
</svg>
