
<svg xmlns="http://www.w3.org/2000/svg" version="1.1" xmlns:xlink="http://www.w3.org/1999/xlink" preserveAspectRatio="none" x="0px" y="0px" width="650px" height="550px" viewBox="0 0 650 550">
<defs>
<filter id="Filter_1" x="-20%" y="-20%" width="140%" height="140%" color-interpolation-filters="sRGB">
<feColorMatrix in="SourceGraphic" type="matrix" values="0 0 0 0 0 0 0 0 0 0.8 0 0 0 0 1 0 0 0 1 0" result="result1"/>
</filter>

<g id="Splash_Splash_01_0_Layer0_0_FILL">
<path fill="#00CCFF" stroke="none" d="
M 235 135.9
Q 234.1 132.7 233.25 131.15 231.85 128.65 229.8 128.1 227.85 127.6 225.3 128.85 223.8 129.55 220.9 131.1 215.55 133.2 209.4 129.4 204.6 126.45 199.85 120.35 175.15 89.2 159.25 52.3 156.7 46.4 153.3 46.7 153.55 68.5 150.25 88.85 149.75 91.6 149.25 92.9 148.45 95.05 146.95 96.2 143.1 99.2 136 95.3 129.6 91.8 124.4 86.7 119.1 81.5 115.6 75.25 113.8 72.05 113.2 71.05 111.65 68.8 110 67.55 107.9 66.15 105.35 66.4 102.65 66.7 101.65 68.7 101.1 69.85 101.05 71.85 101.05 74.35 100.9 75.05 100.25 78.3 96.8 79.9 93.55 81.45 90.1 80.6 87.2 79.9 84.2 77.6 82.45 76.25 79.15 73
L 9.6 3.3
Q 7.5 1.2 5.35 0.4 2.65 -0.65 1.1 0.9 -1.35 3.25 1.75 8.6 17.4 35.8 25.15 48.9 38.4 71.15 49.75 88.45 61.75 106.7 65 112.3 73.05 126.1 76.6 137.95 77.7 141.6 77.4 144.5 77.05 148.1 74.5 149.5 72.2 150.75 68.85 149.45 68.25 149.2 63.15 146.45 60.25 144.8 56.9 145.35 53.35 145.95 53.15 148.85 53.1 150.15 54 151.55 54.55 152.4 55.95 153.8 69.15 167.35 77.5 183.9 77.65 184.35 77.9 184.8 78 185 78.15 185.2 79.35 187.65 80.45 190.15 80.8 189.05 81.05 187.95 81.3 188.15 81.6 188.35 85 190.8 87.05 192.05 90.15 193.9 92.85 194.85 96.6 196.2 101.5 196.45 104.7 196.6 110.4 196.25 156.75 194.05 179.95 192.95 189.6 192.45 194.05 191.95 201.9 191.1 207.85 189.25 210.3 188.5 211.85 187.3 213.8 185.75 213.7 183.75 226.25 184.95 233.95 184.8 245.15 184.6 253.8 181.75 256.65 180.75 257.85 179.35 258.7 178.35 258.8 177 258.85 176.65 258.85 176.35 258.9 176.35 258.95 176.3 260.15 175.75 260.4 174.2 260.65 172.75 260 171.5 259.15 169.7 256.2 167.65 248.6 161.65 243.1 153.5 237.6 145.25 235 135.9 Z"/>
</g>

<g id="Splash_Splash_03_copy_0_Layer0_0_FILL">
<path fill="#00CCFF" stroke="none" d="
M 86.6 57.95
Q 87.7 53.35 82.95 47.95 78.25 42.55 70.5 39.6 62.75 36.65 56.45 37.85 50.2 39.05 49.1 43.65 48 48.25 52.7 53.65 56.2095703125 57.6822265625 61.4 60.35 61.09375 62.7943359375 63.2 65.45 65.5 68.4 69.4 69.9 73.35 71.4 76.55 70.55 79.75 69.75 80.35 67.1 80.7705078125 65.41796875 79.95 63.6 85.5677734375 62.266796875 86.6 57.95
M 95.75 74.35
Q 92.55 75.2 91.95 77.85 91.3 80.5 93.6 83.45 95.9 86.4 99.8 87.85 103.75 89.35 106.95 88.5 110.15 87.65 110.75 85 111.4 82.35 109.1 79.4 106.85 76.45 102.9 74.95 99 73.5 95.75 74.35 Z"/>
</g>
</defs>

<g transform="matrix( -0.57574462890625, 0, 0, 0.5655975341796875, 536.8,333) ">
<g transform="matrix( 1, 0, 0, 1, 111.95,68.5) ">
<g transform="matrix( 1, 0, -0.4731292724609375, 0.320556640625, 89.7,129.5) ">
<g transform="matrix( 1, 0, 0, 1, 0,0) ">
<use filter="url(#Filter_1)" xlink:href="#Splash_Splash_01_0_Layer0_0_FILL"/>
</g>
</g>

<g transform="matrix( 1, 0, 0, 1, 135.45,92) ">
<g transform="matrix( 1, 0, 0, 1, 0,0) ">
<use filter="url(#Filter_1)" xlink:href="#Splash_Splash_03_copy_0_Layer0_0_FILL"/>
</g>
</g>

<g transform="matrix( 1, 0, 0, 1, 137.3,87.15) ">
<g transform="matrix( 1, 0, 0, 1, 0,0) ">
<use filter="url(#Filter_1)" xlink:href="#Splash_Splash_03_copy_0_Layer0_0_FILL"/>
</g>
</g>

<g transform="matrix( 1, 0, 0, 1, 136.2,95.75) ">
<g transform="matrix( 1, 0, 0, 1, 0,0) ">
<use filter="url(#Filter_1)" xlink:href="#Splash_Splash_03_copy_0_Layer0_0_FILL"/>
</g>
</g>
</g>

<g transform="matrix( -1, 0, 0, 1, 609.35,56.55) ">
<g transform="matrix( 1, 0, -0.4731292724609375, 0.320556640625, 89.7,129.5) ">
<g transform="matrix( 1, 0, 0, 1, 0,0) ">
<use filter="url(#Filter_1)" xlink:href="#Splash_Splash_01_0_Layer0_0_FILL"/>
</g>
</g>

<g transform="matrix( 1, 0, 0, 1, 135.45,92) ">
<g transform="matrix( 1, 0, 0, 1, 0,0) ">
<use filter="url(#Filter_1)" xlink:href="#Splash_Splash_03_copy_0_Layer0_0_FILL"/>
</g>
</g>

<g transform="matrix( 1, 0, 0, 1, 137.3,87.15) ">
<g transform="matrix( 1, 0, 0, 1, 0,0) ">
<use filter="url(#Filter_1)" xlink:href="#Splash_Splash_03_copy_0_Layer0_0_FILL"/>
</g>
</g>

<g transform="matrix( 1, 0, 0, 1, 136.2,95.75) ">
<g transform="matrix( 1, 0, 0, 1, 0,0) ">
<use filter="url(#Filter_1)" xlink:href="#Splash_Splash_03_copy_0_Layer0_0_FILL"/>
</g>
</g>
</g>

<g transform="matrix( -0.675384521484375, 0, 0, 0.675384521484375, 428.15,85.7) ">
<g transform="matrix( 1, 0, -0.4731292724609375, 0.320556640625, 89.7,129.5) ">
<g transform="matrix( 1, 0, 0, 1, 0,0) ">
<use filter="url(#Filter_1)" xlink:href="#Splash_Splash_01_0_Layer0_0_FILL"/>
</g>
</g>

<g transform="matrix( 1, 0, 0, 1, 135.45,92) ">
<g transform="matrix( 1, 0, 0, 1, 0,0) ">
<use filter="url(#Filter_1)" xlink:href="#Splash_Splash_03_copy_0_Layer0_0_FILL"/>
</g>
</g>

<g transform="matrix( 1, 0, 0, 1, 137.3,87.15) ">
<g transform="matrix( 1, 0, 0, 1, 0,0) ">
<use filter="url(#Filter_1)" xlink:href="#Splash_Splash_03_copy_0_Layer0_0_FILL"/>
</g>
</g>

<g transform="matrix( 1, 0, 0, 1, 136.2,95.75) ">
<g transform="matrix( 1, 0, 0, 1, 0,0) ">
<use filter="url(#Filter_1)" xlink:href="#Splash_Splash_03_copy_0_Layer0_0_FILL"/>
</g>
</g>
</g>

<g transform="matrix( 0.4836273193359375, 0, 0, 0.4836273193359375, 109.1,127.55) ">
<g transform="matrix( 1, 0, -0.4731292724609375, 0.320556640625, 89.7,129.5) ">
<g transform="matrix( 1, 0, 0, 1, 0,0) ">
<use filter="url(#Filter_1)" xlink:href="#Splash_Splash_01_0_Layer0_0_FILL"/>
</g>
</g>

<g transform="matrix( 1, 0, 0, 1, 135.45,92) ">
<g transform="matrix( 1, 0, 0, 1, 0,0) ">
<use filter="url(#Filter_1)" xlink:href="#Splash_Splash_03_copy_0_Layer0_0_FILL"/>
</g>
</g>

<g transform="matrix( 1, 0, 0, 1, 137.3,87.15) ">
<g transform="matrix( 1, 0, 0, 1, 0,0) ">
<use filter="url(#Filter_1)" xlink:href="#Splash_Splash_03_copy_0_Layer0_0_FILL"/>
</g>
</g>

<g transform="matrix( 1, 0, 0, 1, 136.2,95.75) ">
<g transform="matrix( 1, 0, 0, 1, 0,0) ">
<use filter="url(#Filter_1)" xlink:href="#Splash_Splash_03_copy_0_Layer0_0_FILL"/>
</g>
</g>
</g>

<g transform="matrix( 0.63238525390625, 0, 0, 1.557403564453125, 242.15,-19.2) ">
<g transform="matrix( 1, 0, -0.4731292724609375, 0.320556640625, 89.7,129.5) ">
<g transform="matrix( 1, 0, 0, 1, 0,0) ">
<use filter="url(#Filter_1)" xlink:href="#Splash_Splash_01_0_Layer0_0_FILL"/>
</g>
</g>

<g transform="matrix( 1, 0, 0, 1, 135.45,92) ">
<g transform="matrix( 1, 0, 0, 1, 0,0) ">
<use filter="url(#Filter_1)" xlink:href="#Splash_Splash_03_copy_0_Layer0_0_FILL"/>
</g>
</g>

<g transform="matrix( 1, 0, 0, 1, 137.3,87.15) ">
<g transform="matrix( 1, 0, 0, 1, 0,0) ">
<use filter="url(#Filter_1)" xlink:href="#Splash_Splash_03_copy_0_Layer0_0_FILL"/>
</g>
</g>

<g transform="matrix( 1, 0, 0, 1, 136.2,95.75) ">
<g transform="matrix( 1, 0, 0, 1, 0,0) ">
<use filter="url(#Filter_1)" xlink:href="#Splash_Splash_03_copy_0_Layer0_0_FILL"/>
</g>
</g>
</g>
</g>

<g transform="matrix( 0.359771728515625, 0, 0, 0.424224853515625, 190.1,308.2) ">
<g transform="matrix( 1, 0, 0, 1, 111.95,68.5) ">
<g transform="matrix( 1, 0, -0.4731292724609375, 0.320556640625, 89.7,129.5) ">
<g transform="matrix( 1, 0, 0, 1, 0,0) ">
<use filter="url(#Filter_1)" xlink:href="#Splash_Splash_01_0_Layer0_0_FILL"/>
</g>
</g>

<g transform="matrix( 1, 0, 0, 1, 135.45,92) ">
<g transform="matrix( 1, 0, 0, 1, 0,0) ">
<use filter="url(#Filter_1)" xlink:href="#Splash_Splash_03_copy_0_Layer0_0_FILL"/>
</g>
</g>

<g transform="matrix( 1, 0, 0, 1, 137.3,87.15) ">
<g transform="matrix( 1, 0, 0, 1, 0,0) ">
<use filter="url(#Filter_1)" xlink:href="#Splash_Splash_03_copy_0_Layer0_0_FILL"/>
</g>
</g>

<g transform="matrix( 1, 0, 0, 1, 136.2,95.75) ">
<g transform="matrix( 1, 0, 0, 1, 0,0) ">
<use filter="url(#Filter_1)" xlink:href="#Splash_Splash_03_copy_0_Layer0_0_FILL"/>
</g>
</g>
</g>

<g transform="matrix( -1, 0, 0, 1, 609.35,56.55) ">
<g transform="matrix( 1, 0, -0.4731292724609375, 0.320556640625, 89.7,129.5) ">
<g transform="matrix( 1, 0, 0, 1, 0,0) ">
<use filter="url(#Filter_1)" xlink:href="#Splash_Splash_01_0_Layer0_0_FILL"/>
</g>
</g>

<g transform="matrix( 1, 0, 0, 1, 135.45,92) ">
<g transform="matrix( 1, 0, 0, 1, 0,0) ">
<use filter="url(#Filter_1)" xlink:href="#Splash_Splash_03_copy_0_Layer0_0_FILL"/>
</g>
</g>

<g transform="matrix( 1, 0, 0, 1, 137.3,87.15) ">
<g transform="matrix( 1, 0, 0, 1, 0,0) ">
<use filter="url(#Filter_1)" xlink:href="#Splash_Splash_03_copy_0_Layer0_0_FILL"/>
</g>
</g>

<g transform="matrix( 1, 0, 0, 1, 136.2,95.75) ">
<g transform="matrix( 1, 0, 0, 1, 0,0) ">
<use filter="url(#Filter_1)" xlink:href="#Splash_Splash_03_copy_0_Layer0_0_FILL"/>
</g>
</g>
</g>

<g transform="matrix( -0.675384521484375, 0, 0, 0.675384521484375, 428.15,85.7) ">
<g transform="matrix( 1, 0, -0.4731292724609375, 0.320556640625, 89.7,129.5) ">
<g transform="matrix( 1, 0, 0, 1, 0,0) ">
<use filter="url(#Filter_1)" xlink:href="#Splash_Splash_01_0_Layer0_0_FILL"/>
</g>
</g>

<g transform="matrix( 1, 0, 0, 1, 135.45,92) ">
<g transform="matrix( 1, 0, 0, 1, 0,0) ">
<use filter="url(#Filter_1)" xlink:href="#Splash_Splash_03_copy_0_Layer0_0_FILL"/>
</g>
</g>

<g transform="matrix( 1, 0, 0, 1, 137.3,87.15) ">
<g transform="matrix( 1, 0, 0, 1, 0,0) ">
<use filter="url(#Filter_1)" xlink:href="#Splash_Splash_03_copy_0_Layer0_0_FILL"/>
</g>
</g>

<g transform="matrix( 1, 0, 0, 1, 136.2,95.75) ">
<g transform="matrix( 1, 0, 0, 1, 0,0) ">
<use filter="url(#Filter_1)" xlink:href="#Splash_Splash_03_copy_0_Layer0_0_FILL"/>
</g>
</g>
</g>

<g transform="matrix( 0.4836273193359375, 0, 0, 0.4836273193359375, 109.1,127.55) ">
<g transform="matrix( 1, 0, -0.4731292724609375, 0.320556640625, 89.7,129.5) ">
<g transform="matrix( 1, 0, 0, 1, 0,0) ">
<use filter="url(#Filter_1)" xlink:href="#Splash_Splash_01_0_Layer0_0_FILL"/>
</g>
</g>

<g transform="matrix( 1, 0, 0, 1, 135.45,92) ">
<g transform="matrix( 1, 0, 0, 1, 0,0) ">
<use filter="url(#Filter_1)" xlink:href="#Splash_Splash_03_copy_0_Layer0_0_FILL"/>
</g>
</g>

<g transform="matrix( 1, 0, 0, 1, 137.3,87.15) ">
<g transform="matrix( 1, 0, 0, 1, 0,0) ">
<use filter="url(#Filter_1)" xlink:href="#Splash_Splash_03_copy_0_Layer0_0_FILL"/>
</g>
</g>

<g transform="matrix( 1, 0, 0, 1, 136.2,95.75) ">
<g transform="matrix( 1, 0, 0, 1, 0,0) ">
<use filter="url(#Filter_1)" xlink:href="#Splash_Splash_03_copy_0_Layer0_0_FILL"/>
</g>
</g>
</g>

<g transform="matrix( 0.63238525390625, 0, 0, 1.557403564453125, 242.15,-19.2) ">
<g transform="matrix( 1, 0, -0.4731292724609375, 0.320556640625, 89.7,129.5) ">
<g transform="matrix( 1, 0, 0, 1, 0,0) ">
<use filter="url(#Filter_1)" xlink:href="#Splash_Splash_01_0_Layer0_0_FILL"/>
</g>
</g>

<g transform="matrix( 1, 0, 0, 1, 135.45,92) ">
<g transform="matrix( 1, 0, 0, 1, 0,0) ">
<use filter="url(#Filter_1)" xlink:href="#Splash_Splash_03_copy_0_Layer0_0_FILL"/>
</g>
</g>

<g transform="matrix( 1, 0, 0, 1, 137.3,87.15) ">
<g transform="matrix( 1, 0, 0, 1, 0,0) ">
<use filter="url(#Filter_1)" xlink:href="#Splash_Splash_03_copy_0_Layer0_0_FILL"/>
</g>
</g>

<g transform="matrix( 1, 0, 0, 1, 136.2,95.75) ">
<g transform="matrix( 1, 0, 0, 1, 0,0) ">
<use filter="url(#Filter_1)" xlink:href="#Splash_Splash_03_copy_0_Layer0_0_FILL"/>
</g>
</g>
</g>
</g>
</svg>
