
<svg xmlns="http://www.w3.org/2000/svg" version="1.1" xmlns:xlink="http://www.w3.org/1999/xlink" preserveAspectRatio="none" x="0px" y="0px" width="300px" height="200px" viewBox="0 0 300 200">
<defs>
<g id="Symbol_130_5_Layer0_0_FILL">
<path fill="#00CCFF" fill-opacity="0.33725490196078434" stroke="none" d="
M -283.05 133.9
Q -278.55 133.75 -274.65 132.35 -270 130.4 -268.2 126.95 -268.1 125.75 -269.1 124.85 -270 124 -271.3 123.8 -272.3 123.6 -273.7 123.7 -274.5 123.75 -276.1 123.95 -277.75 124 -282.7 123.45 -290.65 122.75 -298.2 124.55 -302.25 125.3 -302.85 127.8 -303.05 128.8 -302.6 129.85 -302.15 130.85 -301.3 131.5 -299.85 132.6 -297.45 133.05 -291.3 134.5 -283.05 133.9
M -311.15 95.15
Q -307.3 94.6 -304.85 93.9 -301.5 92.95 -299.15 91.3 -297.85 90.4 -297.7 89.5 -297.4 88.05 -299.75 86.75 -305.05 83.8 -313.8 82.9 -328.7 81.35 -340.9 86.5 -343.95 87.7 -345 89.6 -332.65 97.85 -311.15 95.15 Z"/>

<path fill="#00CCFF" fill-opacity="0.6980392156862745" stroke="none" d="
M -176.3 44.75
Q -184.1 44.05 -191.5 44.2 -194.95 44.2 -196.85 44.55 -199.8 45.05 -201.7 46.5 -202.05 46.75 -205.15 49.95 -207.2 52.05 -209.1 52.35 -209.45 52.45 -210.45 52.45 -211.4 52.5 -211.95 52.65 -212.65 52.85 -213.15 53.4 -213.65 54 -213.5 54.65 -211.25 55 -207.7 56.75 -203.7 58.7 -201.95 59.15 -199.25 59.9 -195.55 59.85 -191.2 59.6 -189.05 59.5 -183.25 59.15 -176.3 60.05 -173.2 60.35 -172.9 60.35 -170.9 60.4 -169.5 59.8 -167.65 59.15 -166.4 57.6 -165.1 56 -164.85 54 -164.7 52.05 -165.5 50.15 -166.35 48.3 -167.85 47.05 -170.45 45.15 -176.3 44.75
M -136.95 123.75
Q -130.55 118.9 -131.2 114.4 -131.45 112.1 -133.35 110.25 -135.15 108.6 -137.6 107.9 -141.1 107 -147.25 107.9 -186.45 113.4 -206 116.05 -208.35 116.3 -209.95 117.35 -211.9 118.65 -211.6 120.45 -211.45 121.7 -210.05 122.55 -208.9 123.25 -207.2 123.5 -201 124.55 -185.6 123.5 -171.75 122.6 -164.3 124.85 -164.1 124.9 -157.6 127.2 -153.6 128.65 -150.8 128.8 -144.3 128.95 -136.95 123.75 Z"/>

<path fill="#00CCFF" stroke="none" d="
M -133.95 66.65
Q -134.65 66.75 -138.7 67.15 -141.5 67.4 -143.3 67.85 -146.3 68.65 -147.8 70.05 -149.9 72.05 -149.6 74.55 -149.15 77.45 -145.3 79.2 -141.2 80.85 -135.6 80.3 -132 79.95 -125.6 78.2 -122.65 77.35 -121 76.35 -118.7 74.9 -118.25 72.8 -117.85 71.2 -118.65 69.55 -119.4 68 -120.85 66.95 -123.45 65.3 -127.35 65.65 -128.7 65.7 -130.65 66.05 -131.75 66.25 -133.95 66.65
M 274.25 22.75
Q 267.45 18.35 258.9 16.25 251.75 14.55 242.6 14.2 236.55 13.95 226.05 14.3 195.1 15.25 180.35 16.1 155 17.6 134.95 20.45 128.7 21.3 114.1 23.75 100.75 26 93.25 26.95 75.1 29.35 29.9 31.45 -10.5 33.35 -33.1 37.4 -38.6 38.25 -39.8 41.1 -41.05 44.35 -37.4 46.85 -34.2 49 -29.8 49.35
L 20.75 53.35
Q -33.75 68.8 -88.65 74.1 -91.65 74.35 -93.25 74.7 -95.75 75.25 -97.45 76.45 -99.45 77.85 -100.2 80.1 -101.05 82.5 -99.85 84.35 -98.8 86.05 -96.4 86.75 -94.85 87.2 -91.95 87.3 -54.5 88.35 -24.8 85.7 -16.98671875 85.0025390625 -9.45 84 -8.7263671875 86.527734375 -3.7 87.45 12.357421875 90.1767578125 27.85 94.35 15.7875 97.16484375 4.95 100.4 16.75 103.55 32 104.2 41.2 104.6 59.5 104.05 123.55 101.85 155.3 99.25 208.45 94.95 250 85.55 260.9 83.05 267.35 80.35 276.6 76.5 282 70.5 288.45 63.2 289.5 52.95 290.55 42.7 285.65 34.3 281.65 27.5 274.25 22.75 Z"/>
</g>

<g id="Symbol_129_2_Layer1_0_FILL">
<path fill="#00CCFF" stroke="none" d="
M 227.45 236.15
L 230.6 204.5 172.7 237.95 227.45 236.15
M 246.65 233.85
L 259.45 231.85
Q 260.2 231.3 260.9 230.75 280.8 215.6 284.9 190.9
L 246.65 233.85
M 178 160.9
Q 177.7 160.8 177.45 160.75 177.1 160.7 176.85 160.85 130.65 172.75 93.45 207.3
L 151.35 136 150.45 135.5
Q 165.65 118.95 167.25 93.5 100 168 0 191.05
L 4.6 190.55
Q 8.3 192.7 12.6 192.3 36.7 190 56.3 198.75 55.8 204.1 58.6 205.75 88 223.6 128.95 220.85
L 143.85 235.45
Q 178.65 202.75 178 160.9
M 216.35 39.65
L 217.5 20.65 193.05 17.15
Q 193.05 18.9 192.95 20.7 190.8 51.6 175.55 78.75 179.5 77.45 183.2 75.35 197.3 67.3 204.7 52.8 214.1 86.75 204.85 123.65
L 245.7 86.45 242.45 135.75 255.35 134.95 258.45 133
Q 257.1 134.35 257 136.25 256.05 152.55 246.05 164.9
L 247.05 173.5
Q 248.3 173.8 249.6 174.1 269 177.55 283.35 163.6
L 272.45 143.2 287.1 110.5
Q 283.75 98.95 277.15 89.45 254.1 56.05 216.35 39.65 Z"/>

<path fill="#47D5FA" stroke="none" d="
M 175.55 78.75
L 167.25 93.5
Q 165.65 118.95 150.45 135.5
L 151.35 136 93.45 207.3
Q 130.65 172.75 176.85 160.85 177.1 160.7 177.45 160.75 177.7 160.8 178 160.9 178.65 202.75 143.85 235.45
L 172.7 237.95 230.6 204.5 227.45 236.15 246.65 233.85 284.9 190.9 283.35 163.6
Q 269 177.55 249.6 174.1 248.3 173.8 247.05 173.5
L 246.05 164.9
Q 256.05 152.55 257 136.25 257.1 134.35 258.45 133
L 255.35 134.95 242.45 135.75 245.7 86.45 204.85 123.65
Q 214.1 86.75 204.7 52.8 197.3 67.3 183.2 75.35 179.5 77.45 175.55 78.75 Z"/>

<path fill="#D0F3FC" stroke="none" d="
M 217.5 20.65
L 216.35 39.65
Q 254.1 56.05 277.15 89.45 283.75 98.95 287.1 110.5
L 272.45 143.2 283.35 163.6 284.9 190.9
Q 280.8 215.6 260.9 230.75 260.2 231.3 259.45 231.85 326.95 216.35 317.5 143.9 302.4 27.8 189.8 0.55
L 193.05 17.15 217.5 20.65 Z"/>
</g>

<g id="Symbol_129_2_Layer0_0_FILL">
<path fill="#D0F3FC" stroke="none" d="
M 233.9 133.55
Q 233.9 129.7 231.15 126.95 228.45 124.2 224.6 124.2 220.75 124.2 218 126.95 215.3 129.7 215.3 133.55 215.3 137.4 218 140.15 220.75 142.9 224.6 142.9 228.45 142.9 231.15 140.15 233.9 137.4 233.9 133.55
M 187.85 16.65
Q 187.85 13.35 185.5 11 183.2 8.7 179.95 8.7 176.7 8.7 174.35 11 172.05 13.35 172.05 16.65 172.05 19.95 174.35 22.25 176.7 24.6 179.95 24.6 183.2 24.6 185.5 22.25 187.85 19.95 187.85 16.65
M 213.35 46.8
Q 213.35 40.05 207.7 35.25 202.05 30.45 194.05 30.45 186.05 30.45 180.4 35.25 174.75 40.05 174.75 46.8 174.75 53.55 180.4 58.35 186.05 63.15 194.05 63.15 202.05 63.15 207.7 58.35 213.35 53.55 213.35 46.8
M 269.25 91.25
Q 269.25 82.8 264.1 76.85 258.95 70.9 251.65 70.9 244.35 70.9 239.2 76.85 234.05 82.8 234.05 91.25 234.05 99.7 239.2 105.65 244.35 111.6 251.65 111.6 258.95 111.6 264.1 105.65 269.25 99.7 269.25 91.25
M 247.5 21.3
Q 255.8 13.1 248.4 3.95 243.1 -2.55 238.4 2.05 204.95 34.4 247.5 21.3
M 158.5 -6.9
Q 154.95 -10.45 149.9 -10.45 144.85 -10.45 141.3 -6.9 137.75 -3.35 137.75 1.7 137.75 6.75 141.3 10.3 144.85 13.85 149.9 13.85 154.95 13.85 158.5 10.3 162.05 6.75 162.05 1.7 162.05 -3.35 158.5 -6.9 Z"/>
</g>
</defs>

<g transform="matrix( 0.4565277099609375, 0, 0, 0.4565277099609375, 140.4,37.55) ">
<g transform="matrix( 0.847808837890625, 0, 0, 1, 4,158.1) ">
<g transform="matrix( 1, 0, 0, 1, 0,0) ">
<use xlink:href="#Symbol_130_5_Layer0_0_FILL"/>
</g>
</g>

<g transform="matrix( 1, 0, 0, 1, 0,0) ">
<use xlink:href="#Symbol_129_2_Layer1_0_FILL"/>
</g>

<g transform="matrix( 1, 0, 0, 1, 0,0) ">
<use xlink:href="#Symbol_129_2_Layer0_0_FILL"/>
</g>
</g>
</svg>
