
<svg xmlns="http://www.w3.org/2000/svg" version="1.1" xmlns:xlink="http://www.w3.org/1999/xlink" preserveAspectRatio="none" x="0px" y="0px" width="300px" height="200px" viewBox="0 0 300 200">
<defs>
<g id="Symbol_130_4_Layer0_0_FILL">
<path fill="#00CCFF" fill-opacity="0.33725490196078434" stroke="none" d="
M -199.65 117.4
Q -200.7064453125 118.2998046875 -201.25 119.5 -203.95234375 119.2388671875 -208.55 118.5 -214.1 117.6 -216.95 117.35 -226.85 116.3 -233.6 119.25 -235.65 120.2 -236.9 121.6 -238.4 123.25 -238.05 125 -237.75 126.55 -236.2 127.65 -235.1 128.45 -233 129.2 -218.1 134.15 -206 133.55 -201.7 133.35 -198.45 131.9 -195.617578125 130.6654296875 -194.05 128.65 -192.8544921875 128.773828125 -191.5 128.7 -187.4 128.25 -185.2 125.5 -184.1 124.05 -183.95 122.2 -183.8 120.25 -184.8 118.9 -185.75 117.5 -187.75 116.7 -191.4 114.95 -195.35 115.5 -195.55 115.75 -195.95 115.85 -196.15 115.95 -196.65 116.05 -198.3 116.3 -199.65 117.4
M -222.8 79.65
Q -226.3 78 -231.2 77.6 -233.75 77.4 -240 77.5 -258.3 78.1 -262.8 78.55 -275.7 79.8 -284.85 83.6 -287.05 84.65 -288.05 85.25 -289.8 86.3 -290.75 87.6 -278.45 92.6 -273.9 94.25 -264.35 97.65 -256.55 99 -247.05 100.6 -238.4 99.35 -228.85 97.95 -221.6 93.2 -218.05 90.95 -217.3 88.05 -216.7 85.65 -218.55 83.15 -220.15 80.95 -222.8 79.65 Z"/>

<path fill="#00CCFF" fill-opacity="0.6980392156862745" stroke="none" d="
M -224.15 72.35
Q -221.25 75.4 -215.15 76.65 -205.3 79.15 -194.95 78.95 -184.65 78.7 -174.8 75.8 -172.7 75.25 -171.35 74.15 -169.75 72.8 -170.15 71.15 -170.45 69.4 -173.6 68.15 -191.95 61.1 -217.4 67.3 -223.75 68.85 -224.15 72.35
M -102.95 97.05
Q -104.35 97.1 -107.1 97.55 -119.9 99.75 -126.25 100.75 -131.35 101.65 -133.5 102.2 -137.5 103.2 -140.35 104.7 -140.5 104.75 -144.8 107.45 -147.55 109.1 -149.6 109.75 -150.95 110.2 -153.15 110.55 -156.15 111.05 -156.85 111.2 -161.3 112.45 -162.45 115.5 -161.65 117.65 -159.25 118.85 -157.1 119.9 -154.4 119.9 -152.85 119.95 -149.5 119.5 -146.35 119.1 -144.65 119.2 -142.5 119.3 -139.05 120.25 -134.75 121.45 -133.5 121.65 -131.05 122.05 -127.7 121.95 -123.85 121.75 -121.95 121.65 -116.7 121.4 -114.05 121.25 -109.5 120.9 -106.35 120.1 -102.25 119.05 -99.1 116.8 -95.7 114.3 -94.25 110.85 -92.65 107.1 -94 103.1 -95.4 98.95 -99 97.65 -100.65 97 -102.95 97.05 Z"/>

<path fill="#00CCFF" stroke="none" d="
M -83.15 40.45
Q -85.55 37.8 -90.5 37.45 -93.35 37.25 -99.3 37.6 -103.15 37.7 -108.75 36.85 -111.9 36.35 -118.25 35.3 -133.3 33 -148.65 35.6 -163.95 38.25 -177.5 45.4 -172.25 48.6 -164.75 50 -159.9 50.9 -151 51.45 -133.45 52.7 -123.5 52 -115.05 51.25 -104.9 48.75 -98.05 47.1 -86.65 43.55 -83.15 42.55 -83.15 40.45
M 279.65 35.6
Q 276.35 31.85 271.55 28.8 258.75 20.45 239.35 18.15 228.8 16.9 204.35 17.15 183.6 17.2 173.25 17.3 155.2 17.5 142.2 18.55 131.65 19.45 95.4 24.7 66.45 28.9 48.5 29 29.1 29 27.75 29.1 15.95 29.7 7.8 33.2 6.15 33.9 0.8 36.6 -3.45 38.8 -6.25 39.6 -8.9 40.3 -12.65 40.6 -14.8 40.8 -19.1 41 -31.35 41.65 -44.65 45.3 -48.7138671875 46.439453125 -50.5 48.35 -53.8037109375 48.80703125 -57.85 49.35 -59.1814453125 49.4591796875 -61.15 49.55 -61.144921875 49.4078125 -61.25 49.25 -62.8 48.45 -65.3 49.05 -66.7 49.4 -69.6 50.15 -71.75 50.45 -75.35 49.8 -79.6 49.05 -81.15 49.05 -83.1 49.05 -87.1 50.15 -90.6 51.15 -97.55 53 -101.15 53.95 -102.65 54.25 -105.5 54.85 -107.8 54.85 -109.15 54.95 -112 54.95 -114.4 55.15 -115.8 56.2 -117.95 57.85 -117.85 61.05 -117.7 64.05 -115.7 66.2 -114 68 -111.1 69.25 -109.5 69.9 -105.7 70.95 -99.35 72.45 -73.55 78.1 -62.65 80.5 -55.55 81.15 -50.9 81.6 -41.65 81.6
L -25.2 81.6
Q -28.4888671875 82.40703125 -30.4 82.95 -39.35 85.4 -45.85 88.55 -43.4 92.3 -37.65 92.6 -33.9 92.8 -27.25 91.4 -4.8 86.6 15.6 91.95 20.5 93.2 29.9 96.6 39.4 100.05 44.2 101.3 50.6 102.95 58.6 103.9 64.15 104.55 73.25 105.15 98.55 107 110.9 107.4 131.85 108 148.5 106.25 157.8 105.25 168.8 103.25 177 101.75 188.95 99.1 204.75 95.6 234.6 88.2 248.7 84.75 255.95 81.95 267.45 77.5 274.75 70.8 280.6 65.5 283.4 58.8 286.45 51.4 284.65 44.65 283.35 39.9 279.65 35.6
M -79.2 55
Q -78.9599609375 54.9572265625 -78.75 54.9 -78.7666015625 55.031640625 -78.8 55.15 -79.00078125 55.07109375 -79.2 55 Z"/>
</g>

<g id="Symbol_129_1_Layer1_0_FILL">
<path fill="#009FC9" stroke="none" d="
M 202.65 237.85
L 208.25 223.3 187.15 238.15 202.65 237.85
M 107.6 217.7
Q 108.25 217.75 108.85 217.8 128.75 214.35 137.85 231.6
L 167.5 179.35
Q 161.95 184 156.25 188.45 133.6 205.8 107.6 217.7
M 26.75 193.55
Q 29.9 193.35 32.95 192.65 46.15 190.1 56.2 198.1
L 68.3 183.6
Q 54.65 181.5 41.9 187.5 34.55 191 26.75 193.55 Z"/>

<path fill="#00CCFF" stroke="none" d="
M 182.55 63.5
Q 176.95 77.75 167.2 89.45 101.9 168 0 191.05
L 26.75 193.55
Q 34.55 191 41.9 187.5 54.65 181.5 68.3 183.6
L 56.2 198.1 56.8 210.3
Q 57.05 210.55 57.35 210.7 81.55 219.1 107.6 217.7 133.6 205.8 156.25 188.45 161.95 184 167.5 179.35
L 137.85 231.6
Q 138.25 231.95 138.75 232.1 162.05 240.7 187.15 238.15
L 208.25 223.3 202.65 237.85 271.4 229.5
Q 272.5 228 273.55 226.5 291.55 199.6 290.45 167.25
L 248.3 173.4 245.65 162.15
Q 244.9 161.95 244.25 162.1 235.3 165.3 227.95 172.1 226 173.95 223.95 175.7 221.85 177.45 219.85 179.25 213.8 184.65 208.25 190.6 208.25 186.65 209.75 183.25 216.4 168.05 222.25 152.6 222.7 151.35 222.85 150 223.5 144.65 221.95 139.5
L 196.1 156.4
Q 204.75 145.15 213.15 133.7 223.4 119.85 224.65 102.75 224.75 101.25 224.75 99.75 224.8 93.6 223.55 87.55 196.8 102.6 176.8 126.65 171.35 133.25 164.85 138.9 155.1 147.45 144.5 154.7
L 201.2 80.75 200.25 66.65 182.95 75.15 187.6 63.5 182.55 63.5 Z"/>

<path fill="#6FDBF7" stroke="none" d="
M 277.3 93.5
L 249.45 80.75 264.85 65.8
Q 252.2 47.1 229.25 49 229.45 48.1 229.55 47.25 232.4 17.8 192.45 30.25
L 182.55 63.5 187.6 63.5 182.95 75.15 200.25 66.65 201.2 80.75 144.5 154.7
Q 155.1 147.45 164.85 138.9 171.35 133.25 176.8 126.65 196.8 102.6 223.55 87.55 224.8 93.6 224.75 99.75 224.75 101.25 224.65 102.75 223.4 119.85 213.15 133.7 204.75 145.15 196.1 156.4
L 221.95 139.5
Q 223.5 144.65 222.85 150 222.7 151.35 222.25 152.6 216.4 168.05 209.75 183.25 208.25 186.65 208.25 190.6 213.8 184.65 219.85 179.25 221.85 177.45 223.95 175.7 226 173.95 227.95 172.1 235.3 165.3 244.25 162.1 244.9 161.95 245.65 162.15
L 248.3 173.4 290.45 167.25
Q 285.55 134.75 256.5 121.7 259 109.25 271.1 104.65 278.75 101.8 277.3 93.5 Z"/>

<path fill="#D0F3FC" stroke="none" d="
M 249.45 80.75
L 277.3 93.5
Q 278.75 101.8 271.1 104.65 259 109.25 256.5 121.7 285.55 134.75 290.45 167.25 291.55 199.6 273.55 226.5 272.5 228 271.4 229.5 333.3 202.35 317.45 130.45 294.05 24.15 189.8 0.55
L 192.45 30.25
Q 232.4 17.8 229.55 47.25 229.45 48.1 229.25 49 252.2 47.1 264.85 65.8
L 249.45 80.75 Z"/>
</g>

<g id="Symbol_129_1_Layer0_0_FILL">
<path fill="#D0F3FC" stroke="none" d="
M 237.8 107.8
Q 237.8 104.5 235.45 102.15 233.15 99.8 229.85 99.8 226.55 99.8 224.2 102.15 221.9 104.5 221.9 107.8 221.9 111.1 224.2 113.45 226.55 115.8 229.85 115.8 233.15 115.8 235.45 113.45 237.8 111.1 237.8 107.8
M 215.95 37.3
Q 215.95 30.3 211.4 25.35 206.85 20.4 200.45 20.4 194.05 20.4 189.5 25.35 184.95 30.3 184.95 37.3 184.95 44.3 189.5 49.25 194.05 54.2 200.45 54.2 206.85 54.2 211.4 49.25 215.95 44.3 215.95 37.3
M 235 -10.85
Q 228 -10.85 223 -5.9 218.05 -0.95 218.05 6.05 218.05 13.05 223 18 228 22.95 235 22.95 242 22.95 246.95 18 251.95 13.05 251.95 6.05 251.95 -0.95 246.95 -5.9 242 -10.85 235 -10.85
M 141.5 -13.7
Q 136.85 -8.45 136.85 -1.1 136.85 6.25 141.5 11.45 146.2 16.7 152.85 16.7 159.5 16.7 164.15 11.45 168.85 6.25 168.85 -1.1 168.85 -8.45 164.15 -13.7 159.5 -18.9 152.85 -18.9 146.2 -18.9 141.5 -13.7
M 137.5 -25.75
Q 139.85 -28.05 139.85 -31.35 139.85 -34.65 137.5 -37 135.2 -39.3 131.9 -39.3 128.6 -39.3 126.25 -37 123.95 -34.65 123.95 -31.35 123.95 -28.05 126.25 -25.75 128.6 -23.4 131.9 -23.4 135.2 -23.4 137.5 -25.75 Z"/>
</g>
</defs>

<g transform="matrix( 0.4565277099609375, 0, 0, 0.4565277099609375, 140.4,37.55) ">
<g transform="matrix( 0.847808837890625, 0, 0, 1, 4,158.1) ">
<g transform="matrix( 1, 0, 0, 1, 0,0) ">
<use xlink:href="#Symbol_130_4_Layer0_0_FILL"/>
</g>
</g>

<g transform="matrix( 1, 0, 0, 1, 0,0) ">
<use xlink:href="#Symbol_129_1_Layer1_0_FILL"/>
</g>

<g transform="matrix( 1, 0, 0, 1, 0,0) ">
<use xlink:href="#Symbol_129_1_Layer0_0_FILL"/>
</g>
</g>
</svg>
