
<svg xmlns="http://www.w3.org/2000/svg" version="1.1" xmlns:xlink="http://www.w3.org/1999/xlink" preserveAspectRatio="none" x="0px" y="0px" width="375px" height="275px" viewBox="0 0 375 275">
<defs>
<g id="Urn_3_Layer0_0_FILL">
<path fill="#000000" stroke="none" d="
M -49.35 44.7
Q -51.2 45.75 -53.25 46.6 -51.25 50.25 -50 54.25 -49.35 56.25 -49.15 58.35 -48.7 60.95 -49 63.7 -49.85 72.1 -56.1 77.85 -59.8 81.15 -64 83 -64.1 86 -63.05 88.8 -63 89.1 -62.8 89.45 -60.45 88.65 -58.3 87.4 -53.85 85.1 -50.2 81.3 -49.95 81.05 -49.7 80.8 -46.7 77.5 -44.95 73.6 -44.3 72 -43.85 70.35 -41.45 61.75 -44.85 53.6 -46.7 48.9 -49.35 44.7
M 90.95 47.95
Q 91.8 47.75 92.5 47.95 93.3 48.05 94 48.2 101.65 49.9 106.15 56.7 109.2 61.25 110.7 66.5 113.4 75.75 109.95 84.55 108.35 88.3 105.25 90.1 103.8 90.9 101.95 91.25 101.75 91.3 101.6 91.3 100.55 91.5 99.5 91.3 98.75 91.05 97.95 90.75 95.35 89.8 92.9 88.45 92 87.9 91.1 87.35 90.05 86.65 89 85.9
L 91.1 92.95
Q 93.4 92.45 95.65 92.45 97.7 92.6 100.65 92.4 101.65 92.3 102.6 92.8 103.25 95.95 105.3 97.65 105.7 97.45 106.05 97.35 107.75 96.4 109.2 95.35 110.05 94.75 110.9 94 111.45 93.5 112 92.95 115.75 89.05 116.9 83 118.6 73.9 116.7 64.6 115.15 59.35 112.35 54.75 110.85 52.15 108.9 49.8 102 41.3 91 41.45 84.85 41.6 80.85 46.1 76 43.75 70.8 42.85 70.25 42.65 69.75 42.65 69.65 42.95 69.7 43.25 69.05 46.25 67.55 48.85 73.35 49.5 78.75 52.55 78.65 53.15 78.65 53.7 78.6 54.4 78.6 55.1 78.25 59.8 80.3 63.95 81.15 61.95 81.95 59.8 82.7 57.65 83.3 55.4 84.9 49.35 90.95 47.95
M 94.45 57.35
Q 94 55.2 93.65 52.9 88.95 63 97.35 78.8 105.4 88.85 108.2 81.7 107.65 81.45 107.05 81.1 98 76.15 94.45 57.35
M 185.8 140.5
Q 185.15 141.8 184.35 143.05 182.15 146.45 178.95 148.9 174.25 152.4 169.05 154.1
L 170 158.4
Q 171.9 158 173.75 157.45 183.95 154.7 189.8 145.95 190.85 144.4 191.65 142.85
L 189.1 140.3 185.8 140.5
M 150.45 -22.45
L 148 -20.1 144.45 -20.5
Q 146.6 -10.55 155.2 -4.4 163.3 1.35 173.05 2.5 173.1 2.85 173.05 3.25 174.55 -1.35 175.9 -5.9 175.4 -5 174.9 -4.05 164.15 -4.3 156.55 -11.75 151.9 -16.25 150.45 -22.45 Z"/>

<path fill="#CC6633" stroke="none" d="
M -55.25 47.5
Q -56.25 47.95 -57.3 48.4 -60.8 49.65 -63.35 50.45 -63.65 50.55 -63.9 50.7 -68.8 52.45 -69 52.7 -70.3 54.05 -70.25 57.9 -70.15 60.75 -70.1 62.75
L -69.4 63.4 -69.6 65.05
Q -67.7 65.45 -65 66 -62.25 66.85 -58.7 69.15 -63.95 76.5 -64 83 -59.8 81.15 -56.1 77.85 -49.85 72.1 -49 63.7 -48.7 60.95 -49.15 58.35 -51.7 51.55 -55.25 47.5
M 76.1 60.05
Q 77.55 56.3 78.65 53.7 78.65 53.15 78.75 52.55 73.35 49.5 67.55 48.85 64.3 54.5 56.15 58.3 58.05 62 60.05 64.1 62.45 66.15 63.9 67.5 63.7 67.85 63.45 68.3 62.8 69.55 61.8 71.45 62.55 71.5 63.4 71.75 65.9 72.25 67.7 74.05 69.2 75.5 70.15 77.85 70.4 78.55 70.6 79.3 72 81.8 74.05 82.6 74.25 82.7 74.4 82.75 74.35 81.7 74.3 80.5 74.1 78.75 73.95 76.7 73.95 76.6 73.95 76.5 73.3 68.75 76.1 60.05
M 92.5 47.95
Q 91.8 47.75 90.95 47.95 84.9 49.35 83.3 55.4 82.7 57.65 81.95 59.8 81.95 60.15 82.05 60.4 82.7 65 83.4 68.1 83.7 69.5 84.1 70.55 84.5 72.05 85.05 73.65 85.1 73.75 85.15 73.95 87.4 79.55 90.7 83.95 91.8 85.3 93.05 86.6 94.6 88.15 96.25 89.5 97.1 90.15 97.95 90.75 98.75 91.05 99.5 91.3 100.55 91.5 101.6 91.3 101.75 91.3 101.95 91.25 103.8 90.9 105.25 90.1 108.35 88.3 109.95 84.55 113.4 75.75 110.7 66.5 109.2 61.25 106.15 56.7 101.65 49.9 94 48.2 93.3 48.05 92.5 47.95
M 103.35 60.4
Q 105.5 64 107.1 69.4 108.45 73.95 107.9 77.75 107.75 79.85 107.05 81.1 107.65 81.45 108.2 81.7 105.4 88.85 97.35 78.8 88.95 63 93.65 52.9 94 55.2 94.45 57.35
L 94.5 57.2
Q 94.8 56 96 55.6 99.85 54.45 103.35 60.4
M 173.45 141.3
L 171.6 141.45 167.05 145.05 167.6 147.45
Q 171.6 144.85 173.45 141.3
M 168.1 -21.1
L 169.85 -25.9 166.45 -37.5 159.4 -30.85
Q 160.15 -27.6 162.6 -24.65 165.05 -21.75 168.1 -21.1 Z"/>

<path fill="#933100" stroke="none" d="
M 82.05 60.4
Q 81.95 60.15 81.95 59.8 81.15 61.95 80.3 63.95 78.25 59.8 78.6 55.1 78.6 54.4 78.65 53.7 77.55 56.3 76.1 60.05 73.3 68.75 73.95 76.5 73.95 76.6 73.95 76.7 74.1 78.75 74.3 80.5 74.35 81.7 74.4 82.75 74.65 82.8 75 82.9 75.3 82.95 75.55 82.95 76.15 83 76.8 82.9 78.65 82.6 81.1 81.3 81.8 80.95 82.55 80.7
L 80.8 74.7 88.4 83.9 89 85.9
Q 90.05 86.65 91.1 87.35 92 87.9 92.9 88.45 95.35 89.8 97.95 90.75 97.1 90.15 96.25 89.5 94.6 88.15 93.05 86.6 91.8 85.3 90.7 83.95 87.4 79.55 85.15 73.95 85.1 73.75 85.05 73.65 84.5 72.05 84.1 70.55 83.7 69.5 83.4 68.1 82.7 65 82.05 60.4
M 107.1 69.4
Q 105.5 64 103.35 60.4 99.85 54.45 96 55.6 94.8 56 94.5 57.2
L 94.45 57.35
Q 98 76.15 107.05 81.1 107.75 79.85 107.9 77.75 108.45 73.95 107.1 69.4
M 173.45 141.3
Q 171.6 144.85 167.6 147.45
L 169.05 154.1
Q 174.25 152.4 178.95 148.9 182.15 146.45 184.35 143.05 185.15 141.8 185.8 140.5
L 173.45 141.3
M 159.4 -30.85
L 150.45 -22.45
Q 151.9 -16.25 156.55 -11.75 164.15 -4.3 174.9 -4.05 175.4 -5 175.9 -5.9 177.55 -11.7 179.1 -17.2
L 166.75 -17.25 168.1 -21.1
Q 165.05 -21.75 162.6 -24.65 160.15 -27.6 159.4 -30.85 Z"/>
</g>
</defs>

<g transform="matrix( 1.2698974609375, 0, 0, 1.2698974609375, 112.25,48.85) ">
<g transform="matrix( 1, 0, 0, 1, 0,0) ">
<use xlink:href="#Urn_3_Layer0_0_FILL"/>
</g>
</g>
</svg>
