
<svg xmlns="http://www.w3.org/2000/svg" version="1.1" xmlns:xlink="http://www.w3.org/1999/xlink" preserveAspectRatio="none" x="0px" y="0px" width="375px" height="275px" viewBox="0 0 375 275">
<defs>
<g id="Urn_5_Layer0_0_FILL">
<path fill="#CC6633" stroke="none" d="
M -63.8 80
Q -65.35 78.5 -67.05 75.95 -61.55 74.7 -59.7 71.65 -63 70.75 -66.3 70.8 -72.05 70.9 -74.95 74.5 -76 75.7 -76.4 77.05 -76.65 81.3 -75.5 84.7 -74.7 84.85 -73.85 85.1 -71.2 85.95 -69.3 86.65 -69.1 86.7 -68.9 86.7 -65.15 87.95 -65 87.9 -63.7 87.8 -62.65 86 -61.9 84.6 -61.35 83.65
L -61.65 83.1 -61.1 82.4
Q -62.2 81.4 -63.8 80
M 100.55 69.15
Q 100.3 69.15 100.15 69.3 97.1 70.05 95.1 70.7 94.2 71 93.45 71.35 92.5 71.7 91.55 72.2 91.45 72.25 91.3 72.3 87.7 74.2 85 76.75 84.2 77.55 83.35 78.45 82.45 79.6 81.6 80.8 81.25 81.4 80.95 82.05 80.75 82.55 80.65 83.15 80.6 83.85 80.75 84.55 80.8 84.65 80.9 84.75 81.25 86 81.9 86.85 83.3 88.8 85.95 89.65 92 91.35 98.05 88.9 101.5 87.55 104.35 85.15 108.55 81.7 109.15 76.4 109.2 75.95 109.25 75.45 109.3 74.9 109.15 74.4 107.8 70.4 103.6 69.7 102.05 69.55 100.55 69.15
M 88.05 87.5
Q 87.8 87.9 87.7 88.25 82.7 86.9 88.85 80.75 98.95 74.05 106 76.5 104.45 76.9 103.05 77.35
L 103.15 77.4
Q 104 77.5 104.3 78.3 105.35 80.75 101.7 83.5 99.4 85.25 95.85 86.65 92.95 87.9 90.35 87.8 88.95 87.85 88.05 87.5
M 104.4 66.5
Q 104.8 66.5 105.2 66.5 106.85 62.65 106.85 58.8 102.9 56.95 99.8 51.8 97.45 53.3 96.1 54.8 94.95 56.5 94.1 57.6 93.85 57.5 93.6 57.3 92.7 56.95 91.3 56.45 91.35 57 91.2 57.6 91.1 59.3 90 60.65 89.15 61.75 87.65 62.55 87.2 62.75 86.7 62.9 85.2 64.05 84.65 65.45 84.6 65.55 84.65 65.7 85.35 65.6 86.15 65.4 87.3 65.2 88.65 65 88.7 64.95 88.75 64.95 94 64 100 65.25 102.6 66 104.4 66.5
M 192.7 143.8
Q 194.7 145.35 196.85 145.7
L 196.45 144.75 193.8 143.05 192.7 143.8
M 185.25 -8.1
L 188.35 -6.3 196.55 -7.2 192.95 -12.75
Q 190.65 -12.7 188.35 -11.45 186.1 -10.05 185.25 -8.1 Z"/>

<path fill="#000000" stroke="none" d="
M -59.7 71.65
Q -58.75 70.25 -58.65 68.55 -58.6 68.4 -58.6 68.2 -60.35 67.55 -62.2 67.3 -65.75 66.5 -69.25 66.7 -69.45 66.8 -69.75 66.75 -72.6 67.1 -74.85 68.2 -75.7 68.7 -76.55 69.3 -80.55 72.25 -80.6 77.45 -80.7 80.45 -80.15 83.5 -78.65 83.8 -77 84.25 -77.3 81.7 -77 79.3 -76.9 78.15 -76.4 77.05 -76 75.7 -74.95 74.5 -72.05 70.9 -66.3 70.8 -63 70.75 -59.7 71.65
M 87.7 88.25
Q 87.8 87.9 88.05 87.5 90.75 81.05 103.05 77.35 104.45 76.9 106 76.5 98.95 74.05 88.85 80.75 82.7 86.9 87.7 88.25
M 113.45 73.95
Q 112.95 69.8 109.65 67.45 110.9 64.05 111.15 60.5 111.25 60.15 111.2 59.75 111 59.8 110.75 59.75 108.75 59.6 106.85 58.8 106.85 62.65 105.2 66.5 104.8 66.5 104.4 66.5 103.95 66.55 103.45 66.55 100.35 66.65 97.65 68.3 99.05 68.75 100.55 69.15 102.05 69.55 103.6 69.7 107.8 70.4 109.15 74.4 109.3 74.9 109.25 75.45 109.2 75.95 109.15 76.4 108.55 81.7 104.35 85.15 101.5 87.55 98.05 88.9 92 91.35 85.95 89.65 83.3 88.8 81.9 86.85 81.25 86 80.9 84.75 80.8 84.65 80.75 84.55 80.6 83.85 80.65 83.15 80.75 82.55 80.95 82.05 81.35 80.25 82.15 78.5 82.45 77.85 82.8 77.2 83.15 76.45 83.55 75.7
L 79 77.65
Q 79.5 79.1 79.6 80.55 79.65 82.05 80 84 80.15 84.55 79.85 85.25 77.85 85.95 76.85 87.45 76.95 87.65 77.05 87.9 77.85 89 78.6 89.85 79.1 90.45 79.6 90.95 80.1 91.3 80.45 91.6 83.35 93.9 87.45 94.2 93.7 94.7 99.75 92.75 103.15 91.35 106.1 89.15 107.7 87.95 109.15 86.5 114.4 81.25 113.45 73.95
M 189.55 145.65
L 187.5 146.9
Q 188.05 147.8 188.65 148.65 191.8 153.35 197.3 154.85 198.3 155.1 199.2 155.2
L 200.05 153.5 199.4 151.85
Q 198.65 151.75 197.9 151.5 195.75 151 193.9 149.8 191.35 148 189.55 145.65
M 172.85 -5.55
Q 174.3 -12.8 180.35 -17.1 183.95 -19.7 188.35 -19.85
L 187.05 -21.85 187.7 -24.25
Q 180.7 -24 175.5 -18.95 170.6 -14.1 168.6 -7.6 168.35 -7.6 168.15 -7.7 171.05 -6.05 174 -4.65 173.45 -5.05 172.85 -5.55 Z"/>

<path fill="#933100" stroke="none" d="
M 88.05 87.5
Q 88.95 87.85 90.35 87.8 92.95 87.9 95.85 86.65 99.4 85.25 101.7 83.5 105.35 80.75 104.3 78.3 104 77.5 103.15 77.4
L 103.05 77.35
Q 90.75 81.05 88.05 87.5
M 103.45 66.55
Q 103.95 66.55 104.4 66.5 102.6 66 100 65.25 94 64 88.75 64.95 88.7 64.95 88.65 65 87.3 65.2 86.15 65.4 85.35 65.6 84.65 65.7 84.6 65.9 84.6 66.1 84.55 66.3 84.6 66.5 84.6 66.95 84.75 67.3 85 68.55 86.05 70.1 86.35 70.55 86.6 71.05
L 90.45 69.4 84.85 75.2 83.55 75.7
Q 83.15 76.45 82.8 77.2 82.45 77.85 82.15 78.5 81.35 80.25 80.95 82.05 81.25 81.4 81.6 80.8 82.45 79.6 83.35 78.45 84.2 77.55 85 76.75 87.7 74.2 91.3 72.3 91.45 72.25 91.55 72.2 92.5 71.7 93.45 71.35 94.2 71 95.1 70.7 97.1 70.05 100.15 69.3 100.3 69.15 100.55 69.15 99.05 68.75 97.65 68.3 100.35 66.65 103.45 66.55
M 192.7 143.8
L 189.55 145.65
Q 191.35 148 193.9 149.8 195.75 151 197.9 151.5 198.65 151.75 199.4 151.85
L 196.85 145.7
Q 194.7 145.35 192.7 143.8
M 174 -4.65
Q 177.65 -2.8 181.25 -1.05
L 182.85 -9.5 185.25 -8.1
Q 186.1 -10.05 188.35 -11.45 190.65 -12.7 192.95 -12.75
L 188.35 -19.85
Q 183.95 -19.7 180.35 -17.1 174.3 -12.8 172.85 -5.55 173.45 -5.05 174 -4.65 Z"/>
</g>
</defs>

<g transform="matrix( 1.2698974609375, 0, 0, 1.2698974609375, 112.25,48.85) ">
<g transform="matrix( 1, 0, 0, 1, 0,0) ">
<use xlink:href="#Urn_5_Layer0_0_FILL"/>
</g>
</g>
</svg>
