
<svg xmlns="http://www.w3.org/2000/svg" version="1.1" xmlns:xlink="http://www.w3.org/1999/xlink" preserveAspectRatio="none" x="0px" y="0px" width="1000px" height="1000px" viewBox="0 0 1000 1000">
<defs>
<g id="effect_slow_19_Layer1_0_FILL">
<path fill="#004FFF" stroke="none" d="
M 114.15 -19.1
Q 114.15 -54.4 89.3 -79.45 64.4 -104.15 29.1 -104.15 -6 -104.15 -31.15 -79.45 -55.95 -54.4 -55.95 -19.1 -55.95 16.15 -31.15 40.95 -6 66.05 29.1 66.05 64.4 66.05 89.3 40.95 114.15 16.15 114.15 -19.1
M 84.1 -74.25
Q 107 -51.4 107 -19.1 107 13.2 84.1 35.95 61.4 58.85 29.1 58.85 -3.2 58.85 -26.1 35.95 -48.85 13.2 -48.85 -19.1 -48.85 -51.4 -26.1 -74.25 -3.2 -97 29.1 -97 61.4 -97 84.1 -74.25 Z"/>
</g>
</defs>

<g transform="matrix( 1, 0, 0, 1, 470.9,519.45) ">
<g transform="matrix( 1, 0, 0, 1, 0,0) ">
<use xlink:href="#effect_slow_19_Layer1_0_FILL"/>
</g>
</g>
</svg>
