
<svg xmlns="http://www.w3.org/2000/svg" version="1.1" xmlns:xlink="http://www.w3.org/1999/xlink" preserveAspectRatio="none" x="0px" y="0px" width="1000px" height="1000px" viewBox="0 0 1000 1000">
<defs>
<g id="effect_slow_9_Layer1_0_FILL">
<path fill="#004FFF" stroke="none" d="
M 28.95 -44.85
Q 18.15 -44.85 10.5 -37.25 2.9 -29.6 2.9 -18.8 2.9 -8 10.5 -0.4 18.15 7.25 28.95 7.25 39.75 7.25 47.35 -0.4 55 -8 55 -18.8 55 -29.6 47.35 -37.25 39.75 -44.85 28.95 -44.85 Z"/>
</g>

<g id="effect_slow_9_Layer0_0_FILL">
<path fill="#0099FF" stroke="none" d="
M 114.15 -19.1
Q 114.15 -54.4 89.3 -79.45 64.4 -104.15 29.1 -104.15 -6 -104.15 -31.15 -79.45 -55.95 -54.4 -55.95 -19.1 -55.95 16.15 -31.15 40.95 -6 66.05 29.1 66.05 64.4 66.05 89.3 40.95 114.15 16.15 114.15 -19.1
M 28.9 -85.05
Q 56.35 -85.05 75.6 -65.8 95.05 -46.35 95.05 -18.95 95.05 8.45 75.6 27.75 56.35 47.15 28.9 47.15 1.5 47.15 -17.9 27.75 -37.2 8.45 -37.2 -18.95 -37.2 -46.35 -17.9 -65.8 1.5 -85.05 28.9 -85.05 Z"/>
</g>
</defs>

<g transform="matrix( 1, 0, 0, 1, 470.9,519.45) ">
<g transform="matrix( 1, 0, 0, 1, 0,0) ">
<use xlink:href="#effect_slow_9_Layer1_0_FILL"/>
</g>

<g transform="matrix( 1, 0, 0, 1, 0,0) ">
<use xlink:href="#effect_slow_9_Layer0_0_FILL"/>
</g>
</g>
</svg>
