
<svg xmlns="http://www.w3.org/2000/svg" version="1.1" xmlns:xlink="http://www.w3.org/1999/xlink" preserveAspectRatio="none" x="0px" y="0px" width="1000px" height="1000px" viewBox="0 0 1000 1000">
<defs>
<g id="effect_slow_17_Layer1_0_FILL">
<path fill="#004FFF" stroke="none" d="
M 112.95 -19.1
Q 112.95 -53.9 88.45 -78.6 63.9 -102.95 29.1 -102.95 -5.5 -102.95 -30.3 -78.6 -54.8 -53.9 -54.8 -19.1 -54.8 15.7 -30.3 40.15 -5.5 64.9 29.1 64.9 63.9 64.9 88.45 40.15 112.95 15.7 112.95 -19.1
M 58.15 -48.15
Q 70.3 -36 70.3 -18.9 70.3 -1.8 58.15 10.25 46.1 22.4 29 22.4 11.85 22.4 -0.25 10.25 -12.3 -1.8 -12.3 -18.9 -12.3 -36 -0.25 -48.15 11.85 -60.2 29 -60.2 46.1 -60.2 58.15 -48.15 Z"/>
</g>
</defs>

<g transform="matrix( 1, 0, 0, 1, 470.9,519.45) ">
<g transform="matrix( 1, 0, 0, 1, 0,0) ">
<use xlink:href="#effect_slow_17_Layer1_0_FILL"/>
</g>
</g>
</svg>
