
<svg xmlns="http://www.w3.org/2000/svg" version="1.1" xmlns:xlink="http://www.w3.org/1999/xlink" preserveAspectRatio="none" x="0px" y="0px" width="100px" height="100px" viewBox="0 0 100 100">
<defs>
<g id="little_star_7_Layer1_0_FILL">
<path fill="#00CCFF" stroke="none" d="
M 88.65 46.3
Q 96.1 43.25 104.9 40.55 113.8 37.6 116.1 34.85 113.05 29.05 92 23.6 76.5 18 68.95 10.2 59.1 -1.95 51.45 0.3 44.75 6.5 31.85 16.85 23.5 21.35 11.55 24.6 -3.1 27.85 -8.9 31.65 -11.9 34.9 -0.1 38.5 10.65 41.9 20.6 45.65 35.3 51.75 43.95 63.2 55.95 80.1 67.95 60.95 75.9 51.45 88.65 46.3 Z"/>
</g>

<g id="little_star_7_Layer0_0_FILL">
<path fill="#FFFFFF" stroke="none" d="
M 81.5 36.35
Q 83.25 33.7 81.75 31.4 79.7 28.3 75.2 24.75 71.15 21.05 67.45 17.1 59.1 6.15 51.75 9.75 44.8 13.65 37.4 22.3 32.8 26.1 29.95 29.65 26.7 33.1 28 36.35 29.6 39.45 35 43.7 39.35 47.3 44.65 52.1 56.55 65.35 66.05 53 71.45 46.75 77.05 41.5 79.9 38.75 81.5 36.35 Z"/>
</g>
</defs>

<g transform="matrix( 0.683990478515625, 0, 0, 0.683990478515625, 15.6,29.75) ">
<g transform="matrix( 1, 0, 0, 1, 0,0) ">
<use xlink:href="#little_star_7_Layer1_0_FILL"/>
</g>

<g transform="matrix( 1, 0, 0, 1, 0,0) ">
<use xlink:href="#little_star_7_Layer0_0_FILL"/>
</g>
</g>
</svg>
