
<svg xmlns="http://www.w3.org/2000/svg" version="1.1" xmlns:xlink="http://www.w3.org/1999/xlink" preserveAspectRatio="none" x="0px" y="0px" width="200px" height="200px" viewBox="0 0 200 200">
<defs>
<filter id="Filter_1" x="-20%" y="-20%" width="140%" height="140%" color-interpolation-filters="sRGB">
<feColorMatrix in="SourceGraphic" type="matrix" values="1 0 0 0 0 0 1 0 0 0 0 0 1 0 0 0 0 0 0.2 0" result="result1"/>
</filter>

<g id="Symbol_15_0_Layer0_0_FILL">
<path fill="#33CCFF" stroke="none" d="
M 43.8 33.1
Q 44.55 30.85 44.75 27.85 44.9 26.25 44.95 22.5 44.95 18.2 44.55 16.45 43.45 11.35 38.35 6.35 36.35 4.1 34.3 2.9 31.85 1.4 27.15 0.55 17.55 -1.1 11.75 2 9.95 3 7.6 5.1 4.05 8.35 2.4 11.45 -0.4 16.7 0.05 25.3 0.25 30.2 1.65 32.9 2.55 34.8 5.6 38.15 9.05 41.9 11.45 43.2 13.1 44.05 16.3 44.85 22.55 46.35 26.3 46.15 32.15 45.9 37.05 42.25 42 38.6 43.8 33.1
M 26.9 7.95
Q 30.2 9.1 32.75 11.35 35.4 13.7 36.65 16.7 38.2 20.4 37.85 25.75 37.6 33.05 34.1 36.85 31.7 39.45 27.75 40.45 24.3 41.3 20.15 40.9 14.05 40.3 10.1 37.7 5.6 34.85 3.75 29.9 2.25 26.1 2.5 20.7 2.7 14.7 5.3 11.7 7.85 8.6 13.6 7.4 20.85 5.8 26.9 7.95 Z"/>

<path fill="#33CCFF" fill-opacity="0.4666666666666667" stroke="none" d="
M 32.75 11.35
Q 30.2 9.1 26.9 7.95 20.85 5.8 13.6 7.4 7.85 8.6 5.3 11.7 2.7 14.7 2.5 20.7 2.25 26.1 3.75 29.9 5.6 34.85 10.1 37.7 14.05 40.3 20.15 40.9 24.3 41.3 27.75 40.45 31.7 39.45 34.1 36.85 37.6 33.05 37.85 25.75 38.2 20.4 36.65 16.7 35.4 13.7 32.75 11.35
M 23.7 16.25
Q 24 17.8 23.65 19.85 22.75 24.5 19.45 25.8 17.45 26.65 13.75 25.65 11.35 24.9 10.3 23.9 9.2 22.9 8.7 21.35 8.25 19.9 8.4 18.35 8.7 15.65 10.6 13.55 12.5 11.4 15.15 10.9 18.15 10.35 20.55 11.85 23.1 13.5 23.7 16.25 Z"/>

<path fill="#FFFFFF" stroke="none" d="
M 23.65 19.85
Q 24 17.8 23.7 16.25 23.1 13.5 20.55 11.85 18.15 10.35 15.15 10.9 12.5 11.4 10.6 13.55 8.7 15.65 8.4 18.35 8.25 19.9 8.7 21.35 9.2 22.9 10.3 23.9 11.35 24.9 13.75 25.65 17.45 26.65 19.45 25.8 22.75 24.5 23.65 19.85 Z"/>
</g>
</defs>

<g transform="matrix( 0.4565277099609375, 0, 0, 0.4565277099609375, 54.05,49.2) ">
<g transform="matrix( -0.81854248046875, 0, 0, 0.86761474609375, 169.4,154.45) ">
<g transform="matrix( 0.9999847412109375, 0, 0, 0.999969482421875, -0.35,-78.7) ">
<g transform="matrix( 1, 0, 0, 1, 0,0) ">
<use xlink:href="#Symbol_15_0_Layer0_0_FILL"/>
</g>
</g>
</g>

<g transform="matrix( 0.6796875, 0, 0, 0.64404296875, 77,121.4) ">
<g transform="matrix( 0.9999847412109375, 0, 0, 0.999969482421875, -0.35,-78.7) ">
<g transform="matrix( 1, 0, 0, 1, 0,0) ">
<use xlink:href="#Symbol_15_0_Layer0_0_FILL"/>
</g>
</g>
</g>

<g transform="matrix( 0.95880126953125, 0, 0, 0.98358154296875, 82.2,167.15) ">
<g transform="matrix( 0.9999847412109375, 0, 0, 0.999969482421875, -0.35,-78.7) ">
<g transform="matrix( 1, 0, 0, 1, 0,0) ">
<use xlink:href="#Symbol_15_0_Layer0_0_FILL"/>
</g>
</g>
</g>

<g transform="matrix( -0.6689453125, 0, 0, 0.7414398193359375, 85.6,165.45) ">
<g transform="matrix( 0.9999847412109375, 0, 0, 0.999969482421875, -0.35,-78.7) ">
<g transform="matrix( 1, 0, 0, 1, 0,0) ">
<use xlink:href="#Symbol_15_0_Layer0_0_FILL"/>
</g>
</g>
</g>

<g transform="matrix( 0.5660400390625, 0, 0, 0.57257080078125, 131.65,207.1) ">
<g transform="matrix( 0.9999847412109375, 0, 0, 0.999969482421875, -0.35,-78.7) ">
<g transform="matrix( 1, 0, 0, 1, 0,0) ">
<use xlink:href="#Symbol_15_0_Layer0_0_FILL"/>
</g>
</g>
</g>

<g transform="matrix( -1.198974609375, 0, 0, 1.2388763427734375, 194.25,111.5) ">
<g transform="matrix( 0.5693359375, 0, 0, 0.54364013671875, 9.55,-91.8) ">
<g transform="matrix( 1, 0, 0, 1, 0,0) ">
<use filter="url(#Filter_1)" xlink:href="#Symbol_15_0_Layer0_0_FILL"/>
</g>
</g>
</g>

<g transform="matrix( 0.9955902099609375, 0, 0, 0.91961669921875, 58.9,64.3) ">
<g transform="matrix( 0.5693359375, 0, 0, 0.54364013671875, 9.55,-91.8) ">
<g transform="matrix( 1, 0, 0, 1, 0,0) ">
<use filter="url(#Filter_1)" xlink:href="#Symbol_15_0_Layer0_0_FILL"/>
</g>
</g>
</g>

<g transform="matrix( 1.404449462890625, 0, 0, 1.404449462890625, 66.5,129.65) ">
<g transform="matrix( 0.5693359375, 0, 0, 0.54364013671875, 9.55,-91.8) ">
<g transform="matrix( 1, 0, 0, 1, 0,0) ">
<use filter="url(#Filter_1)" xlink:href="#Symbol_15_0_Layer0_0_FILL"/>
</g>
</g>
</g>

<g transform="matrix( -0.9798431396484375, 0, 0, 1.058685302734375, 71.5,127.2) ">
<g transform="matrix( 0.5693359375, 0, 0, 0.54364013671875, 9.55,-91.8) ">
<g transform="matrix( 1, 0, 0, 1, 0,0) ">
<use filter="url(#Filter_1)" xlink:href="#Symbol_15_0_Layer0_0_FILL"/>
</g>
</g>
</g>

<g transform="matrix( 0.829132080078125, 0, 0, 0.8175811767578125, 138.95,186.7) ">
<g transform="matrix( 0.5693359375, 0, 0, 0.54364013671875, 9.55,-91.8) ">
<g transform="matrix( 1, 0, 0, 1, 0,0) ">
<use filter="url(#Filter_1)" xlink:href="#Symbol_15_0_Layer0_0_FILL"/>
</g>
</g>
</g>

<g transform="matrix( 1.198974609375, 0, 0, 1.2388763427734375, 110.25,132) "/>

<g transform="matrix( 0.9955902099609375, 0, 0, 0.91961669921875, 78,90.2) "/>

<g transform="matrix( -1.4044189453125, 0, 0, 1.404449462890625, 180.2,77.8) "/>

<g transform="matrix( 0.9798431396484375, 0, 0, 1.058685302734375, 59.55,125.8) "/>

<g transform="matrix( -0.829132080078125, 0, 0, 0.8175811767578125, 134,151.2) "/>
</g>
</svg>
