
<svg xmlns="http://www.w3.org/2000/svg" version="1.1" xmlns:xlink="http://www.w3.org/1999/xlink" preserveAspectRatio="none" x="0px" y="0px" width="1000px" height="1000px" viewBox="0 0 1000 1000">
<defs>
<linearGradient id="Gradient_1" gradientUnits="userSpaceOnUse" x1="42.599999999999994" y1="11.112499999999997" x2="36.5" y2="77.5875" spreadMethod="pad">
<stop  offset="0%" stop-color="#FFFFFF"/>

<stop  offset="100%" stop-color="#353535"/>
</linearGradient>

<linearGradient id="Gradient_2" gradientUnits="userSpaceOnUse" x1="28.662499999999998" y1="72.57499999999999" x2="40.6375" y2="117.125" spreadMethod="pad">
<stop  offset="0%" stop-color="#FFFFFF"/>

<stop  offset="100%" stop-color="#353535"/>
</linearGradient>

<linearGradient id="Gradient_3" gradientUnits="userSpaceOnUse" x1="21.9" y1="17.249999999999996" x2="34.5" y2="46.849999999999994" spreadMethod="pad">
<stop  offset="0%" stop-color="#FFFFFF"/>

<stop  offset="100%" stop-color="#353535"/>
</linearGradient>

<linearGradient id="Gradient_4" gradientUnits="userSpaceOnUse" x1="35.85" y1="44.025" x2="38.050000000000004" y2="73.575" spreadMethod="pad">
<stop  offset="0%" stop-color="#FFFFFF"/>

<stop  offset="100%" stop-color="#353535"/>
</linearGradient>

<g id="Javalin_Cape_0_Layer0_0_FILL">
<path fill="#000000" stroke="none" d="
M 36.85 48.05
Q 33.3072265625 21.5671875 39.85 0 29.5806640625 5.1623046875 20 15.4 10.41015625 25.6861328125 9.05 44.7 7.750390625 63.7134765625 3.7 79.05 -0.2970703125 94.4328125 -10.35 115.9 10.2994140625 134.65546875 16.95 134 23.6005859375 133.34453125 34.55 136.25 32.6 127.9 32.75 121.6 32.762890625 121.1455078125 32.75 120.75
L 38.15 126.45
Q 41.3556640625 114.156640625 50.5 109.4 59.6998046875 104.6880859375 50.05 89.6 40.441796875 74.5234375 36.85 48.05
M 18.3 40.45
Q 23.75 22.95 34.1 7.7 24.75 34.4 23.8 46.35 22.55 62.45 23.7 78.3
L 23.75 78.75 27.4 124.95
Q 23.55 124.8 20.15 123.8 11.35 121.5 3.45 116.6 5.95 113.3 7.15 109.65 12.65 92.8 13.4 75.1 14.1 57.6 18.3 40.45
M 29.15 33.3
Q 29.2 35.2 30.15 45.75 31.25 58.15 32 63.85 33.1 69.05 34.25 74.3 37.35 88.15 44 100.65
L 37.65 106.35 33.5 110.05
Q 30.5 102.65 29.25 94.6 26.4 76 26.85 57.2 27.15 45.15 29.15 33.3 Z"/>

<path fill="#FFCC00" stroke="none" d="
M 34.25 74.3
Q 33.1 69.05 32 63.85 31.85 70.95 34.4 87.95 36.55 101.9 37.65 106.35
L 44 100.65
Q 37.35 88.15 34.25 74.3
M 23.75 78.75
Q 24 83.45 21.3 93.6 13.2 67.5 18.3 40.45 14.1 57.6 13.4 75.1 12.65 92.8 7.15 109.65 5.95 113.3 3.45 116.6 11.35 121.5 20.15 123.8 23.55 124.8 27.4 124.95
L 23.75 78.75 Z"/>

<path fill="#CC6600" stroke="none" d="
M 30.15 45.75
Q 29.2 35.2 29.15 33.3 27.15 45.15 26.85 57.2 26.4 76 29.25 94.6 30.5 102.65 33.5 110.05
L 37.65 106.35
Q 36.55 101.9 34.4 87.95 31.85 70.95 32 63.85 31.25 58.15 30.15 45.75
M 34.1 7.7
Q 23.75 22.95 18.3 40.45 13.2 67.5 21.3 93.6 24 83.45 23.75 78.75
L 23.7 78.3
Q 22.55 62.45 23.8 46.35 24.75 34.4 34.1 7.7 Z"/>
</g>

<g id="Javalin_Shield_0_Layer0_0_FILL">
<path fill="#000000" stroke="none" d="
M 79.8 37.5
Q 80.626171875 19.4521484375 68.75 8.5 56.934765625 -2.4505859375 40.7 -1.55 24.452734375 -0.6001953125 13.35 10.45 2.3 21.55 2.3 37.3 2.3 53.05 13.35 64.1 24.448046875 75.19609375 40.55 75.75 56.711328125 76.3599609375 67.85 65.95 79.025390625 55.5435546875 79.8 37.5
M 62.05 15.45
Q 71.1 24.5 71.1 37.3 71.1 50.15 62.05 59.15 60.066796875 61.144140625 57.9 62.7 50.2294921875 68.2 40.25 68.2 27.4 68.2 18.35 59.15 9.35 50.15 9.35 37.3 9.35 24.5 18.35 15.45 27.2595703125 6.5896484375 39.85 6.45 40.0505859375 6.45 40.25 6.45 53.05 6.45 62.05 15.45
M 62.45 37.3
Q 62.45 34.7998046875 61.95 32.5 61.53671875 30.4583984375 60.7 28.55 59.1134765625 24.7634765625 55.95 21.6 49.45 15.1 40.2 15.1 31 15.1 24.5 21.6 18 28.1 18 37.3 18 41.0224609375 19.05 44.3 20.2765625 48.1115234375 22.9 51.3 23.6583984375 52.2083984375 24.5 53.05 31 59.55 40.2 59.55 40.2568359375 59.55 40.3 59.55 49.4900390625 59.5099609375 55.95 53.05 62.45 46.55 62.45 37.3
M 49.6 23.85
L 46.35 23.75 26.1 23.15
Q 31.95 17.35 40.25 17.35 43.7388671875 17.35 46.75 18.35 50.987890625 19.787890625 54.35 23.15 56.8640625 25.6640625 58.3 28.6 59.2109375 30.51484375 59.65 32.55
L 20.5 34.05
Q 21.1806640625 29.48046875 23.85 25.75
L 36.1 24.85 49.6 23.85
M 59.7 32.65
Q 60.2 34.8703125 60.2 37.3 60.2 43.7849609375 56.6 48.75 55.629296875 50.131640625 54.35 51.4 48.767578125 57.03046875 40.85 57.25 40.5615234375 57.25 40.25 57.25 31.95 57.25 26.1 51.4 25.9138671875 51.2154296875 25.7 51
L 54.55 47.25 23.75 48.65
Q 22.1767578125 46.4439453125 21.3 43.9
L 33.55 42.55 44 41.4 39 41.55 20.8 42.1
Q 20.25 39.821875 20.25 37.3 20.25 36.4251953125 20.3 35.55
L 38.95 33.85 59.7 32.65 Z"/>

<path fill="url(#Gradient_1)" stroke="none" d="
M 67.05 39.3
Q 67.05 25.55 57.9 15.85 50.22890625 7.759765625 39.85 6.45 27.2595703125 6.5896484375 18.35 15.45 9.35 24.5 9.35 37.3 9.35 50.15 18.35 59.15 27.4 68.2 40.25 68.2 50.2294921875 68.2 57.9 62.7 67.05 53.05 67.05 39.3
M 61.95 32.5
Q 62.45 34.7998046875 62.45 37.3 62.45 46.55 55.95 53.05 49.4900390625 59.5099609375 40.3 59.55 40.2568359375 59.55 40.2 59.55 31 59.55 24.5 53.05 23.6583984375 52.2083984375 22.9 51.3 20.2765625 48.1115234375 19.05 44.3 18 41.0224609375 18 37.3 18 28.1 24.5 21.6 31 15.1 40.2 15.1 49.45 15.1 55.95 21.6 59.1134765625 24.7634765625 60.7 28.55 61.53671875 30.4583984375 61.95 32.5 Z"/>

<path fill="#835324" stroke="none" d="
M 57.3 39.7
L 57.6 37.05 38.35 37.75 38.95 33.85 20.3 35.55
Q 20.25 36.4251953125 20.25 37.3 20.25 39.821875 20.8 42.1
L 39 41.55 57.3 39.7
M 54.75 49.1
L 55.65 44.65 33.35 46.15 33.55 42.55 21.3 43.9
Q 22.1767578125 46.4439453125 23.75 48.65
L 54.55 47.25 25.7 51
Q 25.9138671875 51.2154296875 26.1 51.4 31.95 57.25 40.25 57.25 40.5615234375 57.25 40.85 57.25
L 42.15 51.7 54.75 49.1
M 59.65 32.55
Q 59.2109375 30.51484375 58.3 28.6
L 34.3 29.15 36.1 24.85 23.85 25.75
Q 21.1806640625 29.48046875 20.5 34.05
L 59.65 32.55
M 46.35 23.75
L 46.75 18.35
Q 43.7388671875 17.35 40.25 17.35 31.95 17.35 26.1 23.15
L 46.35 23.75 Z"/>

<path fill="#CC9966" stroke="none" d="
M 55.65 44.65
L 54.75 49.1 42.15 51.7 40.85 57.25
Q 48.767578125 57.03046875 54.35 51.4 55.629296875 50.131640625 56.6 48.75 60.2 43.7849609375 60.2 37.3 60.2 34.8703125 59.7 32.65
L 38.95 33.85 38.35 37.75 57.6 37.05 57.3 39.7 39 41.55 44 41.4 33.55 42.55 33.35 46.15 55.65 44.65
M 46.75 18.35
L 46.35 23.75 49.6 23.85 36.1 24.85 34.3 29.15 58.3 28.6
Q 56.8640625 25.6640625 54.35 23.15 50.987890625 19.787890625 46.75 18.35 Z"/>

<path fill="#FFFFFF" stroke="none" d="
M 71.1 37.3
Q 71.1 24.5 62.05 15.45 53.05 6.45 40.25 6.45 40.0505859375 6.45 39.85 6.45 50.22890625 7.759765625 57.9 15.85 67.05 25.55 67.05 39.3 67.05 53.05 57.9 62.7 60.066796875 61.144140625 62.05 59.15 71.1 50.15 71.1 37.3 Z"/>
</g>

<g id="Javalin_Body_5_Layer0_0_FILL">
<path fill="#000000" stroke="none" d="
M 40.2 24.2
Q 38.2 9.75 33.4 3.6 28.3916015625 14.916796875 18 23.8 7.662890625 32.68125 7.85 48.1 8.0826171875 63.5177734375 23.85 71
L 36.2 57
Q 52.120703125 50.765234375 41.25 37.6 41.25 31.45 40.2 24.2
M 33.9 7.35
L 35.1 10.5
Q 39.6 22.6 38.05 35.45 36.7 39.4 36.3 40.05 31.75 47.75 22.65 47.4
L 14.9 47.4
Q 13.2 41.15 17.45 36.3 28.6 23.6 33.9 7.35
M 27.75 49.15
Q 30.8 48.15 31.65 47.75
L 27.55 54.5 22.95 54.75 16.7 54.45 15.75 50.1 22.95 50.3
Q 24.2 50.3 27.75 49.15
M 35.25 52.1
Q 33.55 52.7 31.9 53.35
L 39.65 41.25
Q 43.55 49.1 35.25 52.1
M 26.3 57.35
L 23.75 64.2 22.2 67.8
Q 21.7 67.8 17.1 56.7
L 22 57.4 26.3 57.35 Z"/>

<path fill="#3333CC" stroke="none" d="
M 23.75 64.2
L 22 57.4 17.1 56.7
Q 21.7 67.8 22.2 67.8
L 23.75 64.2
M 31.9 53.35
Q 33.55 52.7 35.25 52.1 43.55 49.1 39.65 41.25
L 31.9 53.35
M 35.1 10.5
L 33.9 7.35
Q 28.6 23.6 17.45 36.3 13.2 41.15 14.9 47.4
L 22.65 47.4
Q 22.65 45.55 23.5 43.8 31.3 27.85 35.1 10.5 Z"/>

<path fill="#0099FF" stroke="none" d="
M 22 57.4
L 23.75 64.2 26.3 57.35 22 57.4
M 23.5 43.8
Q 22.65 45.55 22.65 47.4 31.75 47.75 36.3 40.05 36.7 39.4 38.05 35.45 39.6 22.6 35.1 10.5 31.3 27.85 23.5 43.8 Z"/>

<path fill="#CC6600" stroke="none" d="
M 22.95 54.75
L 22.95 50.3 15.75 50.1 16.7 54.45 22.95 54.75 Z"/>

<path fill="#FFCC00" stroke="none" d="
M 31.65 47.75
Q 30.8 48.15 27.75 49.15 24.2 50.3 22.95 50.3
L 22.95 54.75 27.55 54.5 31.65 47.75 Z"/>
</g>

<g id="Javalin_Head_0_Layer1_0_FILL">
<path fill="#000000" stroke="none" d="
M 65.8 42.1
Q 61.048828125 34.8634765625 56.15 32.85 51.3013671875 30.8318359375 47.9 30.35 49.475 28.875 50.85 25.65 52.28125 22.43125 44.1 15.55 35.90625 8.65625 22.25 -8.6 18.248046875 2.501953125 9.95 14.5 1.655859375 26.54375 1.6 27.95 1.594140625 29.3560546875 4.3 32.95 6.53984375 35.9783203125 8.5 34.95 2.4857421875 39.39140625 -0.1 44 -2.80078125 48.9142578125 -0.7 60.75 1.4455078125 72.6373046875 1.7 80.4 1.9521484375 88.153515625 7.9 95.45 23.5 114.45 46.1 124 48.6 121.55 50.9 118.55 56.2 111.75 61.6 104.8 66.65 98.35 70.25 91.15 75.8 75.6 72.55 59.25 70.6001953125 49.3453125 65.8 42.1
M 44.5 38.95
Q 51.25 41.15 55.7 46.55 61 53 62.7 60.55
L 55.2 58.1 17.25 40.55
Q 18.7 40.1 20.15 39.7 32.3 36.75 44.5 38.95
M 23.4 4.4
Q 23.8 5.15 30.5 13.2 37.95 22.1 41 25
L 39.6 27.55 35.85 32.7 29.95 33.15 19.45 34.95
Q 12.35 27.35 12.55 26.6
L 21.85 8.65 23.4 4.4
M 7.95 49.1
L 13.55 42.6 20.75 46.45
Q 40.65 57.6 62.95 62.3 63.05 62.3 63.4 63.4 63.75 64.55 63.85 65.1
L 43.45 61.4
Q 45.1 62.55 64.3 68
L 64.5 69.8 56 67.8
Q 57.7 68.6 60.95 69.9 64.25 71.2 64.65 71.25
L 64.8 73.2 58.15 80.85 26.1 60.15 7.95 49.1
M 15.75 64.5
Q 19 72.8 32.65 86.05 39.5 92.7 46.05 98.55 49.8 106.25 45.6 115.7
L 44.8 119.35
Q 38.95 114.05 32.4 109.5 1.5 88 6.9 51.1 8.1 52.45 10.8 56.25 14.65 61.65 15.75 64.5
M 64.95 76.3
Q 64.8 78.85 64.65 81.4 64.05 92.7 58.2 102.1
L 48.3 117.65
Q 50.1 108.95 49 100.7 48.2 94.55 41.3 89.55 25.7 78.55 17.75 61.15 37.6 74.45 59.2 84.8
L 64.95 76.3 Z"/>

<path fill="#333333" stroke="none" d="
M 64.65 81.4
Q 64.8 78.85 64.95 76.3
L 59.2 84.8
Q 37.6 74.45 17.75 61.15 25.7 78.55 41.3 89.55 48.2 94.55 49 100.7 50.1 108.95 48.3 117.65
L 58.2 102.1
Q 64.05 92.7 64.65 81.4 Z"/>

<path fill="#666666" stroke="none" d="
M 10.8 56.25
Q 8.1 52.45 6.9 51.1 1.5 88 32.4 109.5 38.95 114.05 44.8 119.35
L 45.6 115.7
Q 38.65 109.75 33.25 102.3 20.7 85.1 15.75 64.5 14.65 61.65 10.8 56.25 Z"/>

<path fill="url(#Gradient_2)" stroke="none" d="
M 32.65 86.05
Q 19 72.8 15.75 64.5 20.7 85.1 33.25 102.3 38.65 109.75 45.6 115.7 49.8 106.25 46.05 98.55 39.5 92.7 32.65 86.05 Z"/>

<path fill="#FFCC00" stroke="none" d="
M 30.1 59.4
Q 26.55 60.2 26.1 60.15
L 58.15 80.85 64.8 73.2 64.65 71.25
Q 64.25 71.2 60.95 69.9 57.7 68.6 56 67.8
L 64.5 69.8 64.3 68
Q 45.1 62.55 43.45 61.4
L 63.85 65.1
Q 63.75 64.55 63.4 63.4 63.05 62.3 62.95 62.3 40.65 57.6 20.75 46.45
L 19.6 49.8
Q 22.15 51.55 26.1 55.15 30.05 58.75 30.1 59.4 Z"/>

<path fill="#CC6600" stroke="none" d="
M 13.55 42.6
L 7.95 49.1 26.1 60.15
Q 26.55 60.2 30.1 59.4 30.05 58.75 26.1 55.15 22.15 51.55 19.6 49.8
L 20.75 46.45 13.55 42.6 Z"/>

<path fill="url(#Gradient_3)" stroke="none" d="
M 28.3 26.5
L 29.95 33.15 35.85 32.7 39.6 27.55 21.85 8.65 12.55 26.6 28.3 26.5 Z"/>

<path fill="#999999" stroke="none" d="
M 12.55 26.6
Q 12.35 27.35 19.45 34.95
L 29.95 33.15 28.3 26.5 12.55 26.6 Z"/>

<path fill="#FFFFFF" stroke="none" d="
M 30.5 13.2
Q 23.8 5.15 23.4 4.4
L 21.85 8.65 39.6 27.55 41 25
Q 37.95 22.1 30.5 13.2
M 55.7 46.55
Q 51.25 41.15 44.5 38.95 46 41 47.55 43.1 52.7 49.95 55.2 58.1
L 62.7 60.55
Q 61 53 55.7 46.55 Z"/>

<path fill="url(#Gradient_4)" stroke="none" d="
M 47.55 43.1
Q 46 41 44.5 38.95 32.3 36.75 20.15 39.7 18.7 40.1 17.25 40.55
L 55.2 58.1
Q 52.7 49.95 47.55 43.1 Z"/>
</g>

<g id="Javalin_Arm_0_Layer0_0_FILL">
<path fill="#000000" stroke="none" d="
M 27.25 17.4
Q 29.4 16.6 29.55 14.9 30.5 4.05 16.45 0.95 7.55 -0.85 0.75 3.25 3.05 4.6 5.35 6.05 12.3 10.25 18.7 15.1 22.15 19.65 27.25 17.4
M 27.25 14.25
Q 23.45 17.35 21 12.75
L 19.75 8.95 19.3 8.95 18.85 9.25 18.35 11.35
Q 11.85 6.85 4.65 4 5.35 4 6.1 4.05 11.15 3.85 15.8 5.25 24.4 6.25 28.25 13.3 27.8 13.85 27.25 14.25 Z"/>

<path fill="#3333CC" stroke="none" d="
M 21 12.75
Q 20.9 12.25 20.8 11.75 20.05 7.1 15.8 5.25 11.15 3.85 6.1 4.05 5.35 4 4.65 4 11.85 6.85 18.35 11.35
L 18.85 9.25 19.3 8.95 19.75 8.95 21 12.75 Z"/>

<path fill="#0099FF" stroke="none" d="
M 21 12.75
Q 23.45 17.35 27.25 14.25 27.8 13.85 28.25 13.3 24.4 6.25 15.8 5.25 20.05 7.1 20.8 11.75 20.9 12.25 21 12.75 Z"/>
</g>
</defs>

<g transform="matrix( 0.8026123046875, 0, 0, 0.8026123046875, 407.6,358.45) ">
<g transform="matrix( 1, 0, 0, 1, 5.45,-1.55) ">
<g transform="matrix( 0.9692230224609375, 0.2452392578125, 0.1683807373046875, -0.51434326171875, 9.3,179.6) ">
<g transform="matrix( 1, 0, 0, 1, 0,0) ">
<use xlink:href="#Javalin_Cape_0_Layer0_0_FILL"/>
</g>
</g>

<g transform="matrix( 0.0858306884765625, -0.51531982421875, 0.986328125, 0.164276123046875, 44.25,168.05) ">
<g transform="matrix( 1, 0, 0, 1, 0,0) ">
<use xlink:href="#Javalin_Shield_0_Layer0_0_FILL"/>
</g>
</g>

<g transform="matrix( -0.025115966796875, -0.6710662841796875, 1.30450439453125, -0.1448822021484375, 76.4,194.9) ">
<g transform="matrix( 1, 0, 0, 1, 0,0) ">
<use xlink:href="#Javalin_Body_5_Layer0_0_FILL"/>
</g>
</g>

<g transform="matrix( 0.0374603271484375, 1.0385589599609375, 0.9663543701171875, -0.03485107421875, -8.55,128.6) ">
<g transform="matrix( 1, 0, 0, 1, 0,0) ">
<use xlink:href="#Javalin_Head_0_Layer1_0_FILL"/>
</g>
</g>

<g transform="matrix( 0.781494140625, -0.250640869140625, 0.305389404296875, 0.952117919921875, 109.65,176) ">
<g transform="matrix( 1, 0, 0, 1, 0,0) ">
<use xlink:href="#Javalin_Arm_0_Layer0_0_FILL"/>
</g>
</g>
</g>
</g>
</svg>
