
<svg xmlns="http://www.w3.org/2000/svg" version="1.1" xmlns:xlink="http://www.w3.org/1999/xlink" preserveAspectRatio="none" x="0px" y="0px" width="1000px" height="1000px" viewBox="0 0 1000 1000">
<defs>
<linearGradient id="Gradient_1" gradientUnits="userSpaceOnUse" x1="170.0375" y1="-11.412500000000001" x2="54.06249999999999" y2="26.9125" spreadMethod="pad">
<stop  offset="0%" stop-color="#FFFFFF"/>

<stop  offset="100%" stop-color="#353535"/>
</linearGradient>

<g id="Javalin_weapon_0_Layer0_0_FILL">
<path fill="#000000" stroke="none" d="
M 203.25 -2
L 150.05 -15.2 143.8 2.35
Q 141.258203125 2.7755859375 138.7 3.2 127.0443359375 5.1138671875 115.35 6.85 67.1853515625 14.178125 20.5 15.65
L -6.5 17.5 -1.4 33.5 23.55 29
Q 79.7349609375 16.5205078125 139.6 11.9 142.3814453125 11.6958984375 145.15 11.5
L 155.4 22.75 203.25 -2
M 149.4 -7.3
L 149.65 -7.25 189.3 0 188.85 0.2 153.15 16.55 153.1 16.6 146.6 9.45
Q 143.0125 9.728515625 139.4 10 82.162890625 14.401953125 23 24.5
L -0.5 27.15 -0.75 25.8 -1.3 22.75 22.45 19.9
Q 44.280859375 18.0328125 65.95 15.45 97.891796875 11.7310546875 129.5 6.5 134.1990234375 5.7271484375 138.9 4.9 142.2341796875 4.34375 145.55 3.75
L 149.4 -7.3 Z"/>

<path fill="#999999" stroke="none" d="
M 65.95 15.45
Q 44.280859375 18.0328125 22.45 19.9
L -1.3 22.75 -0.75 25.8 65.95 15.45 Z"/>

<path fill="#FFFFFF" stroke="none" d="
M 129.5 6.5
L 139 6.25 138.9 4.9
Q 134.1990234375 5.7271484375 129.5 6.5
M 153.05 -0.2
L 154.85 -1.75 188.85 0.2 189.3 0 149.65 -7.25 153.05 -0.2 Z"/>

<path fill="url(#Gradient_1)" stroke="none" d="
M 139 6.25
L 129.5 6.5
Q 97.891796875 11.7310546875 65.95 15.45
L -0.75 25.8 -0.5 27.15 23 24.5
Q 82.162890625 14.401953125 139.4 10
L 139 6.25
M 154.85 -1.75
L 153.05 -0.2 155.65 5.15 153.15 16.55 188.85 0.2 154.85 -1.75 Z"/>

<path fill="#3333CC" stroke="none" d="
M 153.15 16.55
L 155.65 5.15 153.05 -0.2 145.95 6.05 139 6.25 139.4 10
Q 143.0125 9.728515625 146.6 9.45
L 153.1 16.6 153.15 16.55 Z"/>

<path fill="#0099FF" stroke="none" d="
M 149.65 -7.25
L 149.4 -7.3 145.55 3.75
Q 142.2341796875 4.34375 138.9 4.9
L 139 6.25 145.95 6.05 153.05 -0.2 149.65 -7.25 Z"/>
</g>
</defs>

<g transform="matrix( 0.8026123046875, 0, 0, 0.8026123046875, 407.6,358.45) ">
<g transform="matrix( 0.9976043701171875, 0.0690460205078125, -0.0690460205078125, 0.9976043701171875, 26.1,156.5) ">
<g transform="matrix( 1, 0, 0, 1, 0,0) ">
<use xlink:href="#Javalin_weapon_0_Layer0_0_FILL"/>
</g>
</g>
</g>
</svg>
