
<svg xmlns="http://www.w3.org/2000/svg" version="1.1" xmlns:xlink="http://www.w3.org/1999/xlink" preserveAspectRatio="none" x="0px" y="0px" width="1000px" height="1000px" viewBox="0 0 1000 1000">
<defs>
<linearGradient id="Gradient_1" gradientUnits="userSpaceOnUse" x1="42.599999999999994" y1="11.112499999999997" x2="36.5" y2="77.5875" spreadMethod="pad">
<stop  offset="0%" stop-color="#FFFFFF"/>

<stop  offset="100%" stop-color="#353535"/>
</linearGradient>

<g id="Javalin_Shield_0_Layer0_0_FILL">
<path fill="#000000" stroke="none" d="
M 79.8 37.5
Q 80.626171875 19.4521484375 68.75 8.5 56.934765625 -2.4505859375 40.7 -1.55 24.452734375 -0.6001953125 13.35 10.45 2.3 21.55 2.3 37.3 2.3 53.05 13.35 64.1 24.448046875 75.19609375 40.55 75.75 56.711328125 76.3599609375 67.85 65.95 79.025390625 55.5435546875 79.8 37.5
M 62.05 15.45
Q 71.1 24.5 71.1 37.3 71.1 50.15 62.05 59.15 60.066796875 61.144140625 57.9 62.7 50.2294921875 68.2 40.25 68.2 27.4 68.2 18.35 59.15 9.35 50.15 9.35 37.3 9.35 24.5 18.35 15.45 27.2595703125 6.5896484375 39.85 6.45 40.0505859375 6.45 40.25 6.45 53.05 6.45 62.05 15.45
M 62.45 37.3
Q 62.45 34.7998046875 61.95 32.5 61.53671875 30.4583984375 60.7 28.55 59.1134765625 24.7634765625 55.95 21.6 49.45 15.1 40.2 15.1 31 15.1 24.5 21.6 18 28.1 18 37.3 18 41.0224609375 19.05 44.3 20.2765625 48.1115234375 22.9 51.3 23.6583984375 52.2083984375 24.5 53.05 31 59.55 40.2 59.55 40.2568359375 59.55 40.3 59.55 49.4900390625 59.5099609375 55.95 53.05 62.45 46.55 62.45 37.3
M 49.6 23.85
L 46.35 23.75 26.1 23.15
Q 31.95 17.35 40.25 17.35 43.7388671875 17.35 46.75 18.35 50.987890625 19.787890625 54.35 23.15 56.8640625 25.6640625 58.3 28.6 59.2109375 30.51484375 59.65 32.55
L 20.5 34.05
Q 21.1806640625 29.48046875 23.85 25.75
L 36.1 24.85 49.6 23.85
M 59.7 32.65
Q 60.2 34.8703125 60.2 37.3 60.2 43.7849609375 56.6 48.75 55.629296875 50.131640625 54.35 51.4 48.767578125 57.03046875 40.85 57.25 40.5615234375 57.25 40.25 57.25 31.95 57.25 26.1 51.4 25.9138671875 51.2154296875 25.7 51
L 54.55 47.25 23.75 48.65
Q 22.1767578125 46.4439453125 21.3 43.9
L 33.55 42.55 44 41.4 39 41.55 20.8 42.1
Q 20.25 39.821875 20.25 37.3 20.25 36.4251953125 20.3 35.55
L 38.95 33.85 59.7 32.65 Z"/>

<path fill="url(#Gradient_1)" stroke="none" d="
M 67.05 39.3
Q 67.05 25.55 57.9 15.85 50.22890625 7.759765625 39.85 6.45 27.2595703125 6.5896484375 18.35 15.45 9.35 24.5 9.35 37.3 9.35 50.15 18.35 59.15 27.4 68.2 40.25 68.2 50.2294921875 68.2 57.9 62.7 67.05 53.05 67.05 39.3
M 61.95 32.5
Q 62.45 34.7998046875 62.45 37.3 62.45 46.55 55.95 53.05 49.4900390625 59.5099609375 40.3 59.55 40.2568359375 59.55 40.2 59.55 31 59.55 24.5 53.05 23.6583984375 52.2083984375 22.9 51.3 20.2765625 48.1115234375 19.05 44.3 18 41.0224609375 18 37.3 18 28.1 24.5 21.6 31 15.1 40.2 15.1 49.45 15.1 55.95 21.6 59.1134765625 24.7634765625 60.7 28.55 61.53671875 30.4583984375 61.95 32.5 Z"/>

<path fill="#835324" stroke="none" d="
M 57.3 39.7
L 57.6 37.05 38.35 37.75 38.95 33.85 20.3 35.55
Q 20.25 36.4251953125 20.25 37.3 20.25 39.821875 20.8 42.1
L 39 41.55 57.3 39.7
M 54.75 49.1
L 55.65 44.65 33.35 46.15 33.55 42.55 21.3 43.9
Q 22.1767578125 46.4439453125 23.75 48.65
L 54.55 47.25 25.7 51
Q 25.9138671875 51.2154296875 26.1 51.4 31.95 57.25 40.25 57.25 40.5615234375 57.25 40.85 57.25
L 42.15 51.7 54.75 49.1
M 59.65 32.55
Q 59.2109375 30.51484375 58.3 28.6
L 34.3 29.15 36.1 24.85 23.85 25.75
Q 21.1806640625 29.48046875 20.5 34.05
L 59.65 32.55
M 46.35 23.75
L 46.75 18.35
Q 43.7388671875 17.35 40.25 17.35 31.95 17.35 26.1 23.15
L 46.35 23.75 Z"/>

<path fill="#CC9966" stroke="none" d="
M 55.65 44.65
L 54.75 49.1 42.15 51.7 40.85 57.25
Q 48.767578125 57.03046875 54.35 51.4 55.629296875 50.131640625 56.6 48.75 60.2 43.7849609375 60.2 37.3 60.2 34.8703125 59.7 32.65
L 38.95 33.85 38.35 37.75 57.6 37.05 57.3 39.7 39 41.55 44 41.4 33.55 42.55 33.35 46.15 55.65 44.65
M 46.75 18.35
L 46.35 23.75 49.6 23.85 36.1 24.85 34.3 29.15 58.3 28.6
Q 56.8640625 25.6640625 54.35 23.15 50.987890625 19.787890625 46.75 18.35 Z"/>

<path fill="#FFFFFF" stroke="none" d="
M 71.1 37.3
Q 71.1 24.5 62.05 15.45 53.05 6.45 40.25 6.45 40.0505859375 6.45 39.85 6.45 50.22890625 7.759765625 57.9 15.85 67.05 25.55 67.05 39.3 67.05 53.05 57.9 62.7 60.066796875 61.144140625 62.05 59.15 71.1 50.15 71.1 37.3 Z"/>
</g>
</defs>

<g transform="matrix( 0.8026123046875, 0, 0, 0.8026123046875, 407.6,358.45) ">
<g transform="matrix( -0.0081634521484375, -0.696563720703125, 0.9998779296875, -0.0117340087890625, 79.9,196.3) ">
<g transform="matrix( 1, 0, 0, 1, 0,0) ">
<use xlink:href="#Javalin_Shield_0_Layer0_0_FILL"/>
</g>
</g>
</g>
</svg>
