
<svg xmlns="http://www.w3.org/2000/svg" version="1.1" xmlns:xlink="http://www.w3.org/1999/xlink" preserveAspectRatio="none" x="0px" y="0px" width="325px" height="525px" viewBox="0 0 325 525">
<defs>
<g id="Symbol_22_2_Layer1_0_FILL">
<path fill="#000000" stroke="none" d="
M -65.9 23.25
L -65.9 17.9 -67.9 17.9
Q -67.85 18.05 -67.8 18.1 -74.5 18.8 -83.25 21.9 -85.55 22.75 -86.5 23.5 -88.25 24.75 -88.55 26.65 -88.7 27.7 -88.2 29.95 -87.5 33.2 -87.35 40.6 -87.2 47.1 -87.25 52.3 -87.35 55.1 -87.55 56.45 -87.65 57.1 -88.65 60.5 -89.3 62.95 -89.25 64.6 -89.25 65.55 -88.9 66.15 -88.35 67.05 -87.6 66.7 -87.3 66.6 -86.8 65.9 -83.8 60.85 -82.9 54.5 -82.5 51.45 -82.6 44.25
L -82.85 35.8
Q -82.95 31.95 -83.4 29.7 -83.65 28.4 -83.35 27.75 -83.05 27.3 -82.1 26.95 -72.75 23.8 -65.9 23.25
M 81 74.5
Q 82.05 73.75 83.05 73 83.8 72.35 83.9 71.8 84.1 70.75 82.65 70.2 81.4 69.65 79.7 69.7 78.7 69.75 76.65 70.1
L 36.15 77.3
Q 37.15 76.15 37.35 73.35 37.6 70.05 38.05 69 38.65 67.55 41.15 65.5
L 48.25 59.85
Q 49.2 59.1 49.65 58.3 50.25 57.25 49.75 56.45 49.45 55.9 48.7 55.75 48.05 55.55 47.35 55.8 46.5 56.05 46.1 56.2 45.5 56.35 45.15 56.35
L 38.3 59.8
Q 37.7 59.9 37.1 60 37.5 60.9 38.1 61.95 35.8 63.45 34.75 64.45 32.95 66.1 32.35 67.95 32 68.85 31.8 70.6 31.6 72.6 31.45 73.35 31.2 74.25 30.45 75.95 29.75 77.65 29.5 78.55 29.1 80 29.4 81.4 29.7 82.9 30.75 83.6 31.9 84.35 34.3 83.8 53.4 80.15 74.6 75.1 68.05 79.65 55.7 86.25 42 93.55 36.65 96.95 33.95 98.7 32.8 100.15 31.85 101.4 31.25 103.55 30.85 104.75 30.6 106.2 30 109.6 29.8 112.65 29.6 114.8 30.55 115.4 30.8 115.55 31.1 115.6 31.25 115.35 31.4 115.1 33.25 111.8 34.1 109.45 34.9 107.35 35.25 106.8 35.6 106.15 36.05 105.85 36.4 105.05 36.7 104.45 37 104 37.45 103.55 39.05 101.75 42.35 99.9 62.3 88.65 81 74.5 Z"/>
</g>

<g id="barren_prop_18_Layer1_0_FILL">
<path fill="#000000" stroke="none" d="
M 176.95 325.25
Q 178.1 323.8 178.1 321.75 176.55 321.75 175.4 323.2 174.3 324.7 174.3 326.75 175.85 326.75 176.95 325.25
M 110.3 305.3
L 103.35 303.7 114.75 308.45 110.3 305.3
M 123.5 304.15
L 127.7 304.4
Q 118.2 299.4 107.45 300.5 104.05 300.95 100.65 301.4
L 123.5 304.15
M 115.65 333.95
L 119.5 336.05
Q 119.4 335.55 119.25 335.1 118.35 332.25 115.65 333.95
M 92.05 292.95
L 88.3 285.35 92.95 287.3
Q 97.65 286.2 102.45 285.35 107.2 284.35 111.9 284.75 136.55 286.9 161.45 287.15
L 157.1 292.9
Q 157.7 296.85 156.8 300.75 150.2 328.3 125 341.1
L 123 346.4 116.85 345.1 119.6 348.05 127.45 349.25 128.3 343.6 142.5 334.55 175.35 341.2
Q 176.3 339.3 177.65 337.85 184.35 330.85 189.7 323.05 198.1 310.8 205.05 297.7
L 180.5 291.6 195 301 202.5 298.35
Q 196.9 308.05 191.35 317.8 186.5 326.25 177.65 330.4
L 172.8 338.4 172.5 338.85 144.95 331.6
Q 145.65 330.6 146.35 329.55 157.05 314.35 160.15 296.05
L 163.75 293.1 165.25 288.45 169.25 288.8 143.35 282.4 145.1 266.45
Q 110.4 263.1 75.75 268.25 76.2 280.15 76.4 292.05 76.45 294.7 75.2 297 68.1 310.3 57.3 320.75 51.75 326.05 52.5 328.95 53.2 329.3 53.95 329.7 80.9 345.1 111.9 344.05
L 75.2 336.3 54.8 325.7
Q 55.45 324.8 56.15 323.95 66.85 311.2 82.75 306.6
L 96.05 303.35 88.65 300.45 92.05 292.95
M 84.3 270.7
Q 87.85 270.05 91.4 269.4 116.15 265.35 141 268.65
L 140.95 281.45 129.7 279.35 86 283.9 88.15 292.8 85.5 301.35 77.1 301.9 80.4 269.25 84.3 270.7
M 92.1 275.35
L 89.75 273.65 84.55 273.5 92.1 275.35 Z"/>

<path fill="#7E7356" stroke="none" d="
M 174.3 326.75
L 172.8 338.4 177.65 330.4
Q 186.5 326.25 191.35 317.8 196.9 308.05 202.5 298.35
L 178.1 321.75
Q 178.1 323.8 176.95 325.25 175.85 326.75 174.3 326.75
M 146.35 329.55
Q 145.65 330.6 144.95 331.6
L 172.5 338.85 160.6 323
Q 163.25 316.9 163.75 310.2 164.25 303.55 170.1 300.5
L 171.1 296.65 160.15 296.05
Q 157.05 314.35 146.35 329.55
M 157.1 292.9
L 161.45 287.15
Q 157.9 288.05 154.9 290.15 151.1 292.9 149.4 297.4 148.65 299.5 147.45 301 147.25 301.3 146.95 301.55
L 131.4 306.6 142.4 311.7 132.7 316.4
Q 133.05 316.8 133.25 317.3 135.8 323.2 131 328.65 126.9 333.3 122.9 337.95 122.1 338.95 121.45 340.05
L 123 345.3 113.3 340.7
Q 107.7 341.9 102.05 340.7 82 336.4 63.15 327.85
L 75.2 336.3 111.9 344.05 116.85 345.1 123 346.4 125 341.1
Q 150.2 328.3 156.8 300.75 157.7 296.85 157.1 292.9
M 141 268.65
Q 136.35 268.65 133 271.75 129.7 274.9 129.7 279.35
L 140.95 281.45 141 268.65
M 88.3 285.35
L 92.05 292.95 88.65 300.45 96.05 303.35 82.75 306.6 117.75 309.45 110.3 305.3 114.75 308.45 103.35 303.7 123.5 304.15 100.65 301.4
Q 104.05 300.95 107.45 300.5 118.2 299.4 127.7 304.4
L 128.2 304.45
Q 125.85 301.6 121.4 300.65 106.7 297.15 91.7 299.3
L 93.25 291.5 88.3 285.35 Z"/>

<path fill="#CDC2A6" stroke="none" d="
M 165.25 288.45
L 163.75 293.1 160.15 296.05 171.1 296.65 170.1 300.5
Q 164.25 303.55 163.75 310.2 163.25 316.9 160.6 323
L 172.5 338.85 172.8 338.4 174.3 326.75
Q 174.3 324.7 175.4 323.2 176.55 321.75 178.1 321.75
L 202.5 298.35 195 301 180.5 291.6 169.25 288.8 165.25 288.45
M 88.3 285.35
L 93.25 291.5 91.7 299.3
Q 106.7 297.15 121.4 300.65 125.85 301.6 128.2 304.45
L 127.7 304.4 123.5 304.15 103.35 303.7 110.3 305.3 117.75 309.45 82.75 306.6
Q 66.85 311.2 56.15 323.95 55.45 324.8 54.8 325.7
L 75.2 336.3 63.15 327.85
Q 82 336.4 102.05 340.7 107.7 341.9 113.3 340.7
L 123 345.3 121.45 340.05
Q 122.1 338.95 122.9 337.95 126.9 333.3 131 328.65 135.8 323.2 133.25 317.3 133.05 316.8 132.7 316.4
L 142.4 311.7 131.4 306.6 146.95 301.55
Q 147.25 301.3 147.45 301 148.65 299.5 149.4 297.4 151.1 292.9 154.9 290.15 157.9 288.05 161.45 287.15 136.55 286.9 111.9 284.75 107.2 284.35 102.45 285.35 97.65 286.2 92.95 287.3
L 88.3 285.35
M 119.5 336.05
L 115.65 333.95
Q 118.35 332.25 119.25 335.1 119.4 335.55 119.5 336.05
M 91.4 269.4
Q 87.85 270.05 84.3 270.7
L 80.4 269.25 77.1 301.9 85.5 301.35 88.15 292.8 86 283.9 129.7 279.35
Q 129.7 274.9 133 271.75 136.35 268.65 141 268.65 116.15 265.35 91.4 269.4
M 89.75 273.65
L 92.1 275.35 84.55 273.5 89.75 273.65 Z"/>
</g>

<g id="Symbol_25_0_Layer1_0_FILL">
<path fill="#000000" stroke="none" d="
M -7.8 -64.7
Q -9.2 -46.6 -10.3 -28.5 -11.5 -8.9 -12.15 10.75 -12.85 30.7 -12.9 50.55 -12.95 64 -11.3 77.35 -9.45 92.25 6.7 86.45 8.85 85.75 9.45 83.75 13.85 69.1 12.65 53 13.85 33.3 11.05 13.8 5.3 -26.45 -7.8 -64.7
M -7.35 -6.05
Q -7.55 -31 -6.2 -55.95 -2.75 -40.65 1.05 -25.4 5.5 -7.65 6.4 10.2
L 2.15 3.75 1.8 3.9
Q 0.45 14.7 1.55 25.65 1.1 24.15 0.8 22.6 -0.7 14.4 -4.2 6.6
L -4.8 6.4
Q -5.7 6.15 -6 4.95 -7.3 -0.4 -7.35 -6.05
M -5.05 11.35
L -4.15 9.9 0.9 26.55 1.8 27.2 2.75 6.75 6.55 12.6 7.5 11.15 8.95 22.05 9.45 28.95 9.45 40.7
Q 9.3 57 9.45 73.25 9.6 85.3 -1.25 84.05 -4.15 83.95 -6.5 82.3 -7.45 81.65 -7.55 80.85 -9.85 61.2 -9.35 41.2
L -9.2 10.45 -8.9 -1.5 -5.05 11.35
M 3.15 -1.4
Q 3.05 -2.45 2.95 -3.5 1.7 -16.05 -1.75 -27.9
L -0.6 -19.4
Q 0 -9.65 3.15 -1.4 Z"/>

<path fill="#70513A" stroke="none" d="
M 9.45 73.25
Q 9.3 57 9.45 40.7
L -1.25 84.05
Q 9.6 85.3 9.45 73.25
M 0.25 49.1
Q 1.1 47.75 1.85 46.4 6.45 37.95 9.45 28.95
L 8.95 22.05
Q 4.95 35.75 0.25 49.1
M -9.35 41.2
Q -8.8 44.25 -8.25 47.35 -7.75 50.4 -7.35 53.45 -6.45 59.8 -4.3 65.65 -3.85 66.85 -3.3 68.1
L -7.9 23.8 -0.4 39.45 -9.2 10.45 -9.35 41.2 Z"/>

<path fill="#CDC2A6" stroke="none" d="
M 1.65 28
L 1.8 27.2 0.9 26.55 1.65 28
M -6.2 -55.95
Q -7.55 -31 -7.35 -6.05 -7.3 -0.4 -6 4.95 -5.7 6.15 -4.8 6.4
L -4.7 5.4 -4.2 6.6
Q -0.7 14.4 0.8 22.6 1.1 24.15 1.55 25.65 0.45 14.7 1.8 3.9
L 1.85 3.35 2.15 3.75 6.4 10.2
Q 5.5 -7.65 1.05 -25.4 -2.75 -40.65 -6.2 -55.95
M 2.95 -3.5
Q 3.05 -2.45 3.15 -1.4 0 -9.65 -0.6 -19.4
L -1.75 -27.9
Q 1.7 -16.05 2.95 -3.5 Z"/>

<path fill="#AF8362" stroke="none" d="
M -4.15 9.9
L -5.05 11.35 -8.9 -1.5 -9.2 10.45 -0.4 39.45 -7.9 23.8 -3.3 68.1
Q -3.85 66.85 -4.3 65.65 -6.45 59.8 -7.35 53.45 -7.75 50.4 -8.25 47.35 -8.8 44.25 -9.35 41.2 -9.85 61.2 -7.55 80.85 -7.45 81.65 -6.5 82.3 -4.15 83.95 -1.25 84.05
L 9.45 40.7 9.45 28.95
Q 6.45 37.95 1.85 46.4 1.1 47.75 0.25 49.1 4.95 35.75 8.95 22.05
L 7.5 11.15 6.55 12.6 2.75 6.75 1.8 27.2 1.65 28 0.9 26.55 -4.15 9.9
M 1.8 3.9
L 2.15 3.75 1.85 3.35 1.8 3.9
M -4.8 6.4
L -4.2 6.6 -4.7 5.4 -4.8 6.4 Z"/>
</g>

<g id="Symbol_25_0_Layer0_0_FILL">
<path fill="#000000" stroke="none" d="
M 3.05 48.3
Q 7.25 47.95 10.1 44.95 16.85 37.95 11.25 30.4 9.15 31 7.05 31.4 -3.05 33.3 -11.7 27.65 -11.85 28.05 -11.95 28.5 -16.15 46.8 3.05 48.3
M 4.85 34.4
L 10.65 32.8
Q 10.8 33.65 10.95 34.55 12.35 43.5 4.4 45.2 0 46.1 -4.05 44 -12.15 40 -9.9 30.45 -9.1 31.05 -8.2 31.6 -2.2 35.35 4.85 34.4 Z"/>

<path fill="#0099FF" stroke="none" d="
M 4.4 45.2
L 4.85 34.4
Q -2.2 35.35 -8.2 31.6 -9.1 31.05 -9.9 30.45 -12.15 40 -4.05 44 0 46.1 4.4 45.2 Z"/>

<path fill="#0033FF" stroke="none" d="
M 10.65 32.8
L 4.85 34.4 4.4 45.2
Q 12.35 43.5 10.95 34.55 10.8 33.65 10.65 32.8 Z"/>
</g>

<g id="barren_prop_17_Layer1_0_FILL">
<path fill="#000000" stroke="none" d="
M 83 277.1
L 114.8 288.85 118.85 340.4 85.8 329.6
Q 91.0310546875 339.1966796875 103.25 341.55 118.35 344.2 133.4 341.8 148.4 339.4 161.6 331.9
L 156.7 285.25
Q 155.1 283.55 153.45 281.95 141.8 270.4 125.5 267.6
L 79.85 273.7
Q 79.1 294.3 81.4 314.7 81.9947265625 320.053125 83.75 324.95
L 83 277.1
M 115.75 286.35
L 90.75 275.85 123 270.7 126.05 272.4 138.6 277.15 119.25 282.4 143 278.8 148.55 281.55 115.75 286.35
M 117.25 288.9
L 152.7 283.05 158.25 330.15 122.95 339.6
Q 116.55 326.85 118.45 312.45 119.2 306.85 118.55 301.1 118.35 299.05 118.15 297 117.7 292.95 117.25 288.9
M 149.05 316.25
Q 152.3 310.6 150.75 304.3 150.2 302.1 149.45 300.05 148.9 298.55 148.35 297.1 147.75 295.5 147.2 293.95
L 146.7 297.8 135.25 303.8 146.95 300.15 149.05 316.25
M 151 284.6
L 148.55 288 146.9 291.6 151 284.6
M 127.35 295.2
L 123.5 293.2
Q 128.35 304.45 127.35 316.7 127 321.25 126.3 325.8 125.8 329.05 126.7 332.25
L 129.7 324.4 145.9 314.8 129.1 320.45 128.85 311.45 134.2 310.35 128.5 310.4 127.35 295.2
M 110.2 324.5
L 112.25 330.25 108.45 296.85 110.4 322.6 92.95 316.35 110.2 324.5
M 104.6 329.5
L 108.6 330.25 89.3 322.4 104.6 329.5
M 89.45 304.95
L 87.1 307.2 85.1 326.4 87.75 322.85 88.55 308.3 99.15 310.15 89.45 304.95
M 100.8 291.35
L 108.85 293.7 113.5 289.15 108.35 291.45 86.5 282.95 100.8 291.35 Z"/>

<path fill="#70513A" stroke="none" d="
M 152.7 283.05
L 117.25 288.9
Q 117.7 292.95 118.15 297 118.35 299.05 118.55 301.1 119.2 306.85 118.45 312.45 116.55 326.85 122.95 339.6
L 158.25 330.15 152.7 283.05
M 123.5 293.2
L 127.35 295.2 128.5 310.4 134.2 310.35 128.85 311.45 129.1 320.45 145.9 314.8 129.7 324.4 126.7 332.25
Q 125.8 329.05 126.3 325.8 127 321.25 127.35 316.7 128.35 304.45 123.5 293.2
M 148.55 288
L 151 284.6 146.9 291.6 148.55 288
M 150.75 304.3
Q 152.3 310.6 149.05 316.25
L 146.95 300.15 135.25 303.8 146.7 297.8 147.2 293.95
Q 147.75 295.5 148.35 297.1 148.9 298.55 149.45 300.05 150.2 302.1 150.75 304.3 Z"/>

<path fill="#AF8362" stroke="none" d="
M 90.75 275.85
L 115.75 286.35 148.55 281.55 143 278.8 119.25 282.4 138.6 277.15 126.05 272.4 123 270.7 90.75 275.85
M 114.8 288.85
L 83 277.1 83.75 324.95
Q 84.2515625 326.248046875 84.8 327.5 85.2697265625 328.5865234375 85.8 329.6
L 118.85 340.4 114.8 288.85
M 108.85 293.7
L 100.8 291.35 86.5 282.95 108.35 291.45 113.5 289.15 108.85 293.7
M 87.1 307.2
L 89.45 304.95 99.15 310.15 88.55 308.3 87.75 322.85 85.1 326.4 87.1 307.2
M 108.6 330.25
L 104.6 329.5 89.3 322.4 108.6 330.25
M 112.25 330.25
L 110.2 324.5 92.95 316.35 110.4 322.6 108.45 296.85 112.25 330.25 Z"/>
</g>
</defs>

<g transform="matrix( 1.356475830078125, 0, 0, 1.356475830078125, 158,304.2) ">
<g transform="matrix( 1, 0, 0, 1, 0,0) ">
<use xlink:href="#Symbol_22_2_Layer1_0_FILL"/>
</g>

<g transform="matrix( 0.962005615234375, 0, 0, 1.05169677734375, -156.75,-257.2) ">
<g transform="matrix( 1, 0, 0, 1, 0,0) ">
<use xlink:href="#barren_prop_18_Layer1_0_FILL"/>
</g>
</g>

<g transform="matrix( 0.2667236328125, 1.01043701171875, -0.92425537109375, 0.291595458984375, -12.7,84.1) ">
<g transform="matrix( 1, 0, 0, 1, 0,0) ">
<use xlink:href="#Symbol_25_0_Layer1_0_FILL"/>
</g>

<g transform="matrix( 1, 0, 0, 1, 0,0) ">
<use xlink:href="#Symbol_25_0_Layer0_0_FILL"/>
</g>
</g>

<g transform="matrix( 0.2217254638671875, 1.023345947265625, -0.9360809326171875, 0.2423858642578125, 21.75,95.45) ">
<g transform="matrix( 1, 0, 0, 1, 0,0) ">
<use xlink:href="#Symbol_25_0_Layer1_0_FILL"/>
</g>

<g transform="matrix( 1, 0, 0, 1, 0,0) ">
<use xlink:href="#Symbol_25_0_Layer0_0_FILL"/>
</g>
</g>

<g transform="matrix( -0.962005615234375, 0, 0, 1.05169677734375, 109.55,-220.95) ">
<g transform="matrix( 1, 0, 0, 1, 0,0) ">
<use xlink:href="#barren_prop_17_Layer1_0_FILL"/>
</g>
</g>
</g>
</svg>
