
<svg xmlns="http://www.w3.org/2000/svg" version="1.1" xmlns:xlink="http://www.w3.org/1999/xlink" preserveAspectRatio="none" x="0px" y="0px" width="325px" height="525px" viewBox="0 0 325 525">
<defs>
<g id="Symbol_22_28_Layer1_0_FILL">
<path fill="#000000" stroke="none" d="
M 48.85 -155.2
Q 48.7 -155.25 48.5 -155.35 44.9 -156.9 42.8 -157.3 42.55 -157.35 42.3 -157.35 41.45 -158.1 40.35 -158.85 39.45 -159.4 38.5 -159.85 37.1 -160.6 35.65 -161.2 33.6 -162 30.2 -163.1 29.15 -163.45 28.15 -163.75 27.35 -164.05 26.65 -164.3 22.1 -165.9 19.7 -167.1 19.5 -167.2 19.25 -167.3 16.8 -168.6 11.85 -171.75 8.15 -174.1 5.55 -175.45 6 -178.55 5.8 -180.15 5.55 -183 3.7 -184.5 3.4 -184.75 3 -184.95 2 -185.5 0.45 -185.95 -1.6 -186.45 -4.25 -186.6 -5.8 -186.7 -9 -186.7
L -15.85 -186.75
Q -16.05 -186.75 -16.2 -186.75 -22.75 -186.75 -26.05 -186.45 -28.15 -186.25 -32.15 -185.55 -36.1 -185.8 -39.9 -185.9 -51.2 -186.2 -60.8 -185.45 -66.75 -185 -70.35 -183.7 -72.8 -182.8 -73.9 -181.45 -75.1 -179.95 -75.15 -177.5 -75.2 -176.2 -74.75 -173.1 -72.85 -160.85 -75.15 -148.9 -75.3 -148.85 -75.45 -148.75
L -85.05 -143.05
Q -89.75 -140.25 -92.1 -138.4 -94 -136.8 -94.5 -135.4 -95 -134.2 -94.9 -131.85 -94.85 -125.65 -96.05 -113.45
L -96.7 -105.6
Q -97.35 -97.85 -97.65 -89.05 -97.65 -88.05 -97.3 -87.7 -96.85 -87.15 -96.05 -87.5 -95.3 -87.85 -94.85 -88.55 -93.5 -90.65 -93.1 -95.3
L -90.65 -119.45
Q -90 -126.75 -90.05 -129.75 -90.05 -131.9 -89.85 -132.65 -89.35 -134.15 -87.95 -135.4 -86.45 -136.75 -83.6 -138.15 -79.8 -140.1 -79 -140.6 -78.4 -141 -76.45 -142.45 -76.4 -141.6 -75.85 -141.25 -75.05 -140.65 -74.05 -141.4 -73.2 -142 -72.65 -143.1 -72.1 -144.3 -71.6 -145.55 -70.75 -145.95 -70.45 -146.15 -69.6 -146.7 -69.4 -147.5 -69.2 -148.4 -69.95 -149.2 -70.15 -149.4 -70.35 -149.55 -69.15 -154.4 -69.05 -160.15 -68.9 -166.4 -70.35 -178 -65.8 -179.75 -59.9 -180.4 -55.75 -180.85 -49.1 -180.85 -48.3 -180.85 -47.5 -180.85 -47.75 -180.65 -48 -180.4 -46.3 -178.65 -42.1 -178.85 -41.15 -178.9 -39.9 -179 -37.3 -179.3 -33.5 -179.95 -32.25 -180.15 -31.15 -180.35 -23.7 -179.9 -16.2 -179.1 -10.35 -178.5 -4.5 -177.65 -4.8 -175.55 -2.8 -173.85 -2.1 -173.2 -1 -172.6 0.3 -171.95 0.95 -171.6 1.85 -171.15 3 -170.4 6.15 -168.4 11.2 -164.45 14.05 -162.2 16.5 -160.6 16.4 -160.2 16.6 -159.75 17.05 -158.6 19 -157.9 19.1 -157.85 19.25 -157.8 21.95 -156.7 25.5 -155.75 26 -155.6 26.65 -155.45 27.3 -155.25 28.15 -155.05 29.8 -154.65 32.2 -154.1
L 37.9 -152.8
Q 38.2 -152.75 38.5 -152.65 43.25 -151.65 46.25 -150.65 47.8 -150.1 48.85 -149.75 50.6 -149.15 50.9 -149.1 52.2 -148.75 53.3 -148.65 54.6 -148.55 55.7 -148.75 54.6 -146.6 53.3 -144.35 51.35 -141 48.85 -137.35 48.2 -136.4 47.5 -135.45 44.5 -131.25 38.5 -123.6 38.25 -123.25 38 -122.95
L 35.25 -119.45
Q 32.3 -115.8 30.4 -113.15 29.95 -112.45 29.55 -111.85 28.85 -111.7 28.15 -111.45 27.95 -111.4 27.7 -111.35 27.15 -111.2 26.65 -111 23.65 -109.9 23.2 -108.1 22.95 -107.3 23.25 -106.55 23.45 -105.95 23.95 -105.6 24 -105.65 24.1 -105.7 28.55 -107.25 32.3 -109.65
L 32.7 -110.5 36.8 -112.5 37.2 -113.35
Q 38.95 -114.1 40.9 -115.05 39.85 -114.8 38.5 -114.4 37.45 -114.15 36.2 -113.75
L 41.9 -120.65
Q 46.05 -125.65 48.85 -129.3 50.6 -131.65 51.8 -133.45 52.6 -134.6 53.3 -135.75 57.2 -141.9 59 -147.75 59.5 -149.2 59.3 -150.15 58.95 -151.6 57.2 -152.4 56.6 -152.65 54.2 -153.25 53.8 -153.35 53.3 -153.5 51.6 -154.05 48.85 -155.2 Z"/>
</g>

<g id="barren_prop_18_Layer1_0_FILL">
<path fill="#000000" stroke="none" d="
M 176.95 325.25
Q 178.1 323.8 178.1 321.75 176.55 321.75 175.4 323.2 174.3 324.7 174.3 326.75 175.85 326.75 176.95 325.25
M 110.3 305.3
L 103.35 303.7 114.75 308.45 110.3 305.3
M 123.5 304.15
L 127.7 304.4
Q 118.2 299.4 107.45 300.5 104.05 300.95 100.65 301.4
L 123.5 304.15
M 115.65 333.95
L 119.5 336.05
Q 119.4 335.55 119.25 335.1 118.35 332.25 115.65 333.95
M 92.05 292.95
L 88.3 285.35 92.95 287.3
Q 97.65 286.2 102.45 285.35 107.2 284.35 111.9 284.75 136.55 286.9 161.45 287.15
L 157.1 292.9
Q 157.7 296.85 156.8 300.75 150.2 328.3 125 341.1
L 123 346.4 116.85 345.1 119.6 348.05 127.45 349.25 128.3 343.6 142.5 334.55 175.35 341.2
Q 176.3 339.3 177.65 337.85 184.35 330.85 189.7 323.05 198.1 310.8 205.05 297.7
L 180.5 291.6 195 301 202.5 298.35
Q 196.9 308.05 191.35 317.8 186.5 326.25 177.65 330.4
L 172.8 338.4 172.5 338.85 144.95 331.6
Q 145.65 330.6 146.35 329.55 157.05 314.35 160.15 296.05
L 163.75 293.1 165.25 288.45 169.25 288.8 143.35 282.4 145.1 266.45
Q 110.4 263.1 75.75 268.25 76.2 280.15 76.4 292.05 76.45 294.7 75.2 297 68.1 310.3 57.3 320.75 51.75 326.05 52.5 328.95 53.2 329.3 53.95 329.7 80.9 345.1 111.9 344.05
L 75.2 336.3 54.8 325.7
Q 55.45 324.8 56.15 323.95 66.85 311.2 82.75 306.6
L 96.05 303.35 88.65 300.45 92.05 292.95
M 84.3 270.7
Q 87.85 270.05 91.4 269.4 116.15 265.35 141 268.65
L 140.95 281.45 129.7 279.35 86 283.9 88.15 292.8 85.5 301.35 77.1 301.9 80.4 269.25 84.3 270.7
M 92.1 275.35
L 89.75 273.65 84.55 273.5 92.1 275.35 Z"/>

<path fill="#7E7356" stroke="none" d="
M 174.3 326.75
L 172.8 338.4 177.65 330.4
Q 186.5 326.25 191.35 317.8 196.9 308.05 202.5 298.35
L 178.1 321.75
Q 178.1 323.8 176.95 325.25 175.85 326.75 174.3 326.75
M 146.35 329.55
Q 145.65 330.6 144.95 331.6
L 172.5 338.85 160.6 323
Q 163.25 316.9 163.75 310.2 164.25 303.55 170.1 300.5
L 171.1 296.65 160.15 296.05
Q 157.05 314.35 146.35 329.55
M 157.1 292.9
L 161.45 287.15
Q 157.9 288.05 154.9 290.15 151.1 292.9 149.4 297.4 148.65 299.5 147.45 301 147.25 301.3 146.95 301.55
L 131.4 306.6 142.4 311.7 132.7 316.4
Q 133.05 316.8 133.25 317.3 135.8 323.2 131 328.65 126.9 333.3 122.9 337.95 122.1 338.95 121.45 340.05
L 123 345.3 113.3 340.7
Q 107.7 341.9 102.05 340.7 82 336.4 63.15 327.85
L 75.2 336.3 111.9 344.05 116.85 345.1 123 346.4 125 341.1
Q 150.2 328.3 156.8 300.75 157.7 296.85 157.1 292.9
M 141 268.65
Q 136.35 268.65 133 271.75 129.7 274.9 129.7 279.35
L 140.95 281.45 141 268.65
M 88.3 285.35
L 92.05 292.95 88.65 300.45 96.05 303.35 82.75 306.6 117.75 309.45 110.3 305.3 114.75 308.45 103.35 303.7 123.5 304.15 100.65 301.4
Q 104.05 300.95 107.45 300.5 118.2 299.4 127.7 304.4
L 128.2 304.45
Q 125.85 301.6 121.4 300.65 106.7 297.15 91.7 299.3
L 93.25 291.5 88.3 285.35 Z"/>

<path fill="#CDC2A6" stroke="none" d="
M 165.25 288.45
L 163.75 293.1 160.15 296.05 171.1 296.65 170.1 300.5
Q 164.25 303.55 163.75 310.2 163.25 316.9 160.6 323
L 172.5 338.85 172.8 338.4 174.3 326.75
Q 174.3 324.7 175.4 323.2 176.55 321.75 178.1 321.75
L 202.5 298.35 195 301 180.5 291.6 169.25 288.8 165.25 288.45
M 88.3 285.35
L 93.25 291.5 91.7 299.3
Q 106.7 297.15 121.4 300.65 125.85 301.6 128.2 304.45
L 127.7 304.4 123.5 304.15 103.35 303.7 110.3 305.3 117.75 309.45 82.75 306.6
Q 66.85 311.2 56.15 323.95 55.45 324.8 54.8 325.7
L 75.2 336.3 63.15 327.85
Q 82 336.4 102.05 340.7 107.7 341.9 113.3 340.7
L 123 345.3 121.45 340.05
Q 122.1 338.95 122.9 337.95 126.9 333.3 131 328.65 135.8 323.2 133.25 317.3 133.05 316.8 132.7 316.4
L 142.4 311.7 131.4 306.6 146.95 301.55
Q 147.25 301.3 147.45 301 148.65 299.5 149.4 297.4 151.1 292.9 154.9 290.15 157.9 288.05 161.45 287.15 136.55 286.9 111.9 284.75 107.2 284.35 102.45 285.35 97.65 286.2 92.95 287.3
L 88.3 285.35
M 119.5 336.05
L 115.65 333.95
Q 118.35 332.25 119.25 335.1 119.4 335.55 119.5 336.05
M 91.4 269.4
Q 87.85 270.05 84.3 270.7
L 80.4 269.25 77.1 301.9 85.5 301.35 88.15 292.8 86 283.9 129.7 279.35
Q 129.7 274.9 133 271.75 136.35 268.65 141 268.65 116.15 265.35 91.4 269.4
M 89.75 273.65
L 92.1 275.35 84.55 273.5 89.75 273.65 Z"/>
</g>

<g id="barren_prop_17_Layer1_0_FILL">
<path fill="#000000" stroke="none" d="
M 83 277.1
L 114.8 288.85 118.85 340.4 85.8 329.6
Q 91.0310546875 339.1966796875 103.25 341.55 118.35 344.2 133.4 341.8 148.4 339.4 161.6 331.9
L 156.7 285.25
Q 155.1 283.55 153.45 281.95 141.8 270.4 125.5 267.6
L 79.85 273.7
Q 79.1 294.3 81.4 314.7 81.9947265625 320.053125 83.75 324.95
L 83 277.1
M 115.75 286.35
L 90.75 275.85 123 270.7 126.05 272.4 138.6 277.15 119.25 282.4 143 278.8 148.55 281.55 115.75 286.35
M 117.25 288.9
L 152.7 283.05 158.25 330.15 122.95 339.6
Q 116.55 326.85 118.45 312.45 119.2 306.85 118.55 301.1 118.35 299.05 118.15 297 117.7 292.95 117.25 288.9
M 149.05 316.25
Q 152.3 310.6 150.75 304.3 150.2 302.1 149.45 300.05 148.9 298.55 148.35 297.1 147.75 295.5 147.2 293.95
L 146.7 297.8 135.25 303.8 146.95 300.15 149.05 316.25
M 151 284.6
L 148.55 288 146.9 291.6 151 284.6
M 127.35 295.2
L 123.5 293.2
Q 128.35 304.45 127.35 316.7 127 321.25 126.3 325.8 125.8 329.05 126.7 332.25
L 129.7 324.4 145.9 314.8 129.1 320.45 128.85 311.45 134.2 310.35 128.5 310.4 127.35 295.2
M 110.2 324.5
L 112.25 330.25 108.45 296.85 110.4 322.6 92.95 316.35 110.2 324.5
M 104.6 329.5
L 108.6 330.25 89.3 322.4 104.6 329.5
M 89.45 304.95
L 87.1 307.2 85.1 326.4 87.75 322.85 88.55 308.3 99.15 310.15 89.45 304.95
M 100.8 291.35
L 108.85 293.7 113.5 289.15 108.35 291.45 86.5 282.95 100.8 291.35 Z"/>

<path fill="#70513A" stroke="none" d="
M 152.7 283.05
L 117.25 288.9
Q 117.7 292.95 118.15 297 118.35 299.05 118.55 301.1 119.2 306.85 118.45 312.45 116.55 326.85 122.95 339.6
L 158.25 330.15 152.7 283.05
M 123.5 293.2
L 127.35 295.2 128.5 310.4 134.2 310.35 128.85 311.45 129.1 320.45 145.9 314.8 129.7 324.4 126.7 332.25
Q 125.8 329.05 126.3 325.8 127 321.25 127.35 316.7 128.35 304.45 123.5 293.2
M 148.55 288
L 151 284.6 146.9 291.6 148.55 288
M 150.75 304.3
Q 152.3 310.6 149.05 316.25
L 146.95 300.15 135.25 303.8 146.7 297.8 147.2 293.95
Q 147.75 295.5 148.35 297.1 148.9 298.55 149.45 300.05 150.2 302.1 150.75 304.3 Z"/>

<path fill="#AF8362" stroke="none" d="
M 90.75 275.85
L 115.75 286.35 148.55 281.55 143 278.8 119.25 282.4 138.6 277.15 126.05 272.4 123 270.7 90.75 275.85
M 114.8 288.85
L 83 277.1 83.75 324.95
Q 84.2515625 326.248046875 84.8 327.5 85.2697265625 328.5865234375 85.8 329.6
L 118.85 340.4 114.8 288.85
M 108.85 293.7
L 100.8 291.35 86.5 282.95 108.35 291.45 113.5 289.15 108.85 293.7
M 87.1 307.2
L 89.45 304.95 99.15 310.15 88.55 308.3 87.75 322.85 85.1 326.4 87.1 307.2
M 108.6 330.25
L 104.6 329.5 89.3 322.4 108.6 330.25
M 112.25 330.25
L 110.2 324.5 92.95 316.35 110.4 322.6 108.45 296.85 112.25 330.25 Z"/>
</g>

<g id="Symbol_26_0_Layer0_0_FILL">
<path fill="#000000" stroke="none" d="
M -36.55 -18.7
Q -39.2 -15.55 -39.85 -13.1 -40.3 -11.4 -39.9 -9.8 -39.55 -8.05 -38.35 -7 -36.05 -5 -32.5 -6 -31.55 -6.3 -30.1 -7.05 -29.8 -6.7 -29.65 -6.45 -29.1 -5.6 -28.75 -4.75 -27.6 -2.5 -25.6 0.95
L -22.1 7.1
Q -18.75 13.05 -16.05 15.85 -16.7 16.4 -17.3 16.95 -23.1 22.25 -25.9 28.2 -27.45 31.55 -26.75 33.75 -25.9 36.35 -22.55 37.25 -19.95 38 -16.65 37.3 -16.55 37.3 -16.45 37.25 -16.4 38 -15.65 38.9 -13.7 41.4 -10.75 42.85 -7.8 44.25 -4.6 44.3 -2.9 44.3 -0.4 43.85 4.6373046875 42.8693359375 9.2 40.9 9.2 40.95 9.2 41.05 9.4 41.85 10.7 42.95 9.2 45.6 9.3 48.85 9.4 50.95 10.35 52.05 11.85 53.8 14.8 53.45 16.15 53.25 19.35 51.85
L 24.1 50.15
Q 28.1 48.65 34 45.3 36.1 44.2 36.85 43.2 37.5 42.3 38 40.1
L 39.85 31.55
Q 40.15 30.15 40.05 29.45 39.95 28.55 39.15 27.5 38.75 26.9 37.8 25.7 37.5 25.3 36.95 24.4 36.45 23.6 35.9 23.25 35.4390625 22.904296875 34.85 22.85 35.25 22 35.5 21.1 35.8 20 36.25 16.85 36.4 15.9 36.4 14.95 36.4 14.25 36.1 12.85 35.85 11.5 34.6 7.8
L 33.25 3.95
Q 32.95 3.05 32.55 2.6 32.55 2.55 32.6 2.55 35 0.95 36.2 -0.2 38.05 -1.9 38.7 -3.8 39.15 -5 39.25 -6.75 39.3 -7.8 39.3 -9.85 39.3 -10.6 39.75 -15.25 40.05 -18.55 39.8 -20.65 39.35 -24 36.45 -29.75
L 31.7 -39.15
Q 30.2 -42.1 29.8 -43.3 29.35 -44.55 28.7 -47.15 27.35 -51.45 24.3 -52.85 22.35 -53.8 19.7 -53.4 17.8 -53.1 15 -52 9.45 -49.7 1.5 -45.55 -11.75 -38.75 -19 -33.95 -29.8 -26.75 -36.55 -18.7
M -36.45 -12.45
Q -36.15 -13.7 -34.35 -15.7 -26.15 -24.55 -21.15 -28.4 -16.8 -31.7 -7.55 -36.75 7.2 -44.7 15.25 -48.35 19 -50 21.2 -49.8 22.8 -49.65 24 -48.55 25.3 -47.4 25.25 -45.9 23.45 -44.65 21.05 -42.45 19.65 -41.25 16.95 -38.85 12.9 -35.4 7.1 -31.9 4.15 -30.05 -3.4 -25.9 -16.15 -18.95 -32.15 -10 -33.95 -9.05 -34.85 -9.3 -35.8 -9.5 -36.25 -10.5 -36.65 -11.4 -36.45 -12.45
M -26.85 -7.35
L -27.6 -8.5
Q -27.32890625 -8.670703125 -27.05 -8.85 -21.75 -12.3 -13.4 -16.75 -4.1 -21.7 0.5 -24.25 9.05 -28.95 15.45 -33.6 15.55 -33.4 15.7 -33.2 16.95 -31.1 17.9 -29.95 19.75 -27.8 20.45 -26.6
L 21.15 -25.3
Q 22.15 -23.6 24.45 -21 25.15 -20.15 25.6 -19.8 26.3 -19.2 26.75 -19.45 26.95 -19.9 26.4 -20.55 24.65 -22.95 23.35 -25.25
L 22.5 -27.05
Q 22.4 -27.35 22.2 -28 22.1 -28.3 21.45 -29.3
L 18.35 -34.4
Q 18.25 -34.6 18.05 -35.05 17.95 -35.25 17.85 -35.4 22.45 -38.9 25.8 -42.4 30.4 -34.2 34.35 -25.75 35.95 -22.35 36.3 -20.15 36.65 -18.15 36.2 -14.7 35.7 -10.6 35.75 -9.2 35.85 -7.8 35.85 -7.1 35.85 -5.95 35.6 -5.1 35.05 -3.6 33.15 -2.15 32.3 -1.45 30.75 -0.3 30.8875 -0.025 31 0.3 30.7041015625 -0.4857421875 30.2 -1.2 29.5 -2.2 28.5 -2.8 27 -3.7 24.85 -3.85 22.6 -4 18.75 -2.95 7.15 0.4 -5.75 8.45 -9.95 11 -13.2 13.55 -13.45 13.3 -13.7 13 -15.65 11 -17.6 8.1 -18.7 6.45 -20.85 2.75
L -22.8 -0.65
Q -24.05 -2.95 -25.65 -5.5
L -26.85 -7.35
M 19.05 -0.8
Q 22.7 -1.65 25.6 -0.45 27.55 0.4 28 1.85 28.4 3.3 27.1 5.5 24.85 9.3 20.85 12.75 17.85 15.35 12.95 18.5 2.5 25.3 -8.9 30.8 -12.5 32.6 -14.85 33.3 -18.3 34.35 -21.15 34 -23.15 33.8 -23.6 32.55 -23.85 31.85 -23.2 30.4 -21.25 26.4 -20.15 24.8 -18.25 22.15 -14.6 19 -4.35 10.1 12.85 1.65 16.65 -0.25 19.05 -0.8
M 32.85 13.95
Q 33 14.5 33 15.05
L 32.85 16.45
Q 32.75 17.25 32.75 18.9 32.7 19.5 32.3 20.8 31.45 23.5 30.3 25.75 29.85 26.75 29.9 27.15 29.9 27.55 30.15 27.85 30.45 28.15 30.8 28.1 31.1 28.05 31.5 27.65 32.6 26.6 33.5 25.35 33.65 25.7 33.95 26.05
L 36.95 30 34.9 39.05
Q 34.6 40.4 34.15 41.1 33.85 41.6 33 42.25 32.55 42.55 32 42.9 26.1 46.35 16 50.2 14.55 50.75 14 50.75 13.1 50.75 12.65 50.4 12.1 50 11.9 49.05 11.8 48.35 12.05 47.15 12.25 46.35 12.55 45.4 13.3 43.1 12.85 41.9 12.6 41.2 11.6 40.1 11.5 39.95 11.4 39.85 14.55 38.25 17.5 36.1 20.15 34.2 20.3 32.35 19.55 32.15 18.65 32.35 17.35 32.65 15.7 33.7 4.9 40.55 -4.75 41.1 -6.65 41.1 -7.3 40.95 -8.95 40.6 -11.3 39 -12.1 38.45 -12.6 37.95 -13 37.6 -13.25 37.3
L -13.25 37.25
Q -13.3 37.2 -13.35 37.2 -13.35 37.15 -13.4 37.1 -13.65 36.75 -13.9 36.5 -13.9958984375 36.5287109375 -14.1 36.55 -12.6333984375 36.0486328125 -10.9 35.3 0.25 30.45 13.05 22.4 17.85 19.3 20.95 16.9 25.1 13.65 27.95 10.25 29.6 8.25 30.45 6.5 32.35 11.65 32.85 13.95
M 11.25 10.35
Q 13.45 8.85 14.4 7.7 15.2 6.6 15.1 5.8 15 5.15 14.4 4.75 13.8 4.35 13.1 4.4 11.75 4.55 11.15 6.05
L 12.1 6.3
Q 11.4 7.3 10.05 8.25 9.3 8.8 7.7 9.85
L 5.3 11.55
Q 4.55 12.15 3.2 12.9 -4.85 17.75 -9.5 20.05 -11.4 21 -12.7 21.3 -13 20.3 -12.35 19.3 -13.6 20.05 -13.75 21.35 -13.85 21.95 -13.55 22.35 -13.25 22.7 -12.45 22.7 -11.8 22.7 -10.95 22.45 -8.85 21.85 -6.3 20.65 -5 20.05 -1.85 18.4
L 5.6 14.25
Q 6.25 13.85 8.55 12.25
L 11.25 10.35 Z"/>

<path fill="#BBBDC7" stroke="none" d="
M 12.95 47
Q 12.5 47.1 12.05 47.15 11.8 48.35 11.9 49.05 12.1 50 12.65 50.4 13.1 50.75 14 50.75 14.55 50.75 16 50.2 26.1 46.35 32 42.9 32.55 42.55 33 42.25 32.7 41.65 32.45 40.9 31.85 38.85 31.5 37.85 30.9 36.05 30.1 35.05 24.85 40.95 17.85 45.05 14.75 46.75 12.95 47
M 15.7 33.7
Q 17.35 32.65 18.65 32.35 19.8 30.5 20.15 28.35 20.55 25.75 19.55 23.6 18.2 24.45 16.05 26.1 13.55 28 12.6 28.65 10.55 30 7.05 31.95 3.35 34 1.3 35 -2 36.55 -4.8 37.35 -7.8 38.25 -11.75 38.65 -12.25 38.25 -12.6 37.95 -12.1 38.45 -11.3 39 -8.95 40.6 -7.3 40.95 -6.65 41.1 -4.75 41.1 4.9 40.55 15.7 33.7
M -23 -7.55
Q -24.55 -7.3 -26.85 -7.35
L -25.65 -5.5
Q -24.05 -2.95 -22.8 -0.65
L -20.85 2.75
Q -18.7 6.45 -17.6 8.1 -15.65 11 -13.7 13 -13.45 13.3 -13.2 13.55 -9.95 11 -5.75 8.45 7.15 0.4 18.75 -2.95 22.6 -4 24.85 -3.85 27 -3.7 28.5 -2.8 28.35 -5 27.25 -8.2 24.45 -16.15 20.2 -23.3 19.5 -24.3 19.05 -24.45 18.45 -24.65 17.6 -24.25 1.65 -18.55 -9.95 -12.7 -14.8 -10.2 -16.3 -9.55 -19.95 -7.95 -23 -7.55 Z"/>

<path fill="#858BA5" stroke="none" d="
M 33 15.05
Q 33 14.5 32.85 13.95 32.35 11.65 30.45 6.5 29.6 8.25 27.95 10.25 25.1 13.65 20.95 16.9 17.85 19.3 13.05 22.4 0.25 30.45 -10.9 35.3 -12.6333984375 36.0486328125 -14.1 36.55 -13.9958984375 36.5287109375 -13.9 36.5 -13.65 36.75 -13.4 37.1 -13.35 37.15 -13.35 37.2 -13.3 37.2 -13.25 37.25
L -13.25 37.3
Q -13 37.6 -12.6 37.95 -12.25 38.25 -11.75 38.65 -7.8 38.25 -4.8 37.35 -2 36.55 1.3 35 3.35 34 7.05 31.95 10.55 30 12.6 28.65 13.55 28 16.05 26.1 18.2 24.45 19.55 23.6 20.55 25.75 20.15 28.35 19.8 30.5 18.65 32.35 19.55 32.15 20.3 32.35 20.15 34.2 17.5 36.1 14.55 38.25 11.4 39.85 11.5 39.95 11.6 40.1 12.6 41.2 12.85 41.9 13.3 43.1 12.55 45.4 12.25 46.35 12.05 47.15 12.5 47.1 12.95 47 14.75 46.75 17.85 45.05 24.85 40.95 30.1 35.05 30.9 36.05 31.5 37.85 31.85 38.85 32.45 40.9 32.7 41.65 33 42.25 33.85 41.6 34.15 41.1 34.6 40.4 34.9 39.05
L 36.95 30 33.95 26.05
Q 33.65 25.7 33.5 25.35 32.6 26.6 31.5 27.65 31.1 28.05 30.8 28.1 30.45 28.15 30.15 27.85 29.9 27.55 29.9 27.15 29.85 26.75 30.3 25.75 31.45 23.5 32.3 20.8 32.7 19.5 32.75 18.9 32.75 17.25 32.85 16.45
L 33 15.05
M -27.6 -8.5
L -26.85 -7.35
Q -24.55 -7.3 -23 -7.55 -19.95 -7.95 -16.3 -9.55 -14.8 -10.2 -9.95 -12.7 1.65 -18.55 17.6 -24.25 18.45 -24.65 19.05 -24.45 19.5 -24.3 20.2 -23.3 24.45 -16.15 27.25 -8.2 28.35 -5 28.5 -2.8 29.5 -2.2 30.2 -1.2 30.7041015625 -0.4857421875 31 0.3 30.8875 -0.025 30.75 -0.3 32.3 -1.45 33.15 -2.15 35.05 -3.6 35.6 -5.1 35.85 -5.95 35.85 -7.1 35.85 -7.8 35.75 -9.2 35.7 -10.6 36.2 -14.7 36.65 -18.15 36.3 -20.15 35.95 -22.35 34.35 -25.75 30.4 -34.2 25.8 -42.4 22.45 -38.9 17.85 -35.4 17.95 -35.25 18.05 -35.05 18.25 -34.6 18.35 -34.4
L 21.45 -29.3
Q 22.1 -28.3 22.2 -28 22.4 -27.35 22.5 -27.05
L 23.35 -25.25
Q 24.65 -22.95 26.4 -20.55 26.95 -19.9 26.75 -19.45 26.3 -19.2 25.6 -19.8 25.15 -20.15 24.45 -21 22.15 -23.6 21.15 -25.3
L 20.45 -26.6
Q 19.75 -27.8 17.9 -29.95 16.95 -31.1 15.7 -33.2 15.55 -33.4 15.45 -33.6 9.05 -28.95 0.5 -24.25 -4.1 -21.7 -13.4 -16.75 -21.75 -12.3 -27.05 -8.85 -27.32890625 -8.670703125 -27.6 -8.5 Z"/>

<path fill="#FFFFFF" stroke="none" d="
M 25.6 -0.45
Q 22.7 -1.65 19.05 -0.8 16.65 -0.25 12.85 1.65 -4.35 10.1 -14.6 19 -18.25 22.15 -20.15 24.8 -21.25 26.4 -23.2 30.4 -23.85 31.85 -23.6 32.55 -23.15 33.8 -21.15 34 -18.3 34.35 -14.85 33.3 -12.5 32.6 -8.9 30.8 2.5 25.3 12.95 18.5 17.85 15.35 20.85 12.75 24.85 9.3 27.1 5.5 28.4 3.3 28 1.85 27.55 0.4 25.6 -0.45
M 14.4 7.7
Q 13.45 8.85 11.25 10.35
L 8.55 12.25
Q 6.25 13.85 5.6 14.25
L -1.85 18.4
Q -5 20.05 -6.3 20.65 -8.85 21.85 -10.95 22.45 -11.8 22.7 -12.45 22.7 -13.25 22.7 -13.55 22.35 -13.85 21.95 -13.75 21.35 -13.6 20.05 -12.35 19.3 -13 20.3 -12.7 21.3 -11.4 21 -9.5 20.05 -4.85 17.75 3.2 12.9 4.55 12.15 5.3 11.55
L 7.7 9.85
Q 9.3 8.8 10.05 8.25 11.4 7.3 12.1 6.3
L 11.15 6.05
Q 11.75 4.55 13.1 4.4 13.8 4.35 14.4 4.75 15 5.15 15.1 5.8 15.2 6.6 14.4 7.7
M -34.35 -15.7
Q -36.15 -13.7 -36.45 -12.45 -36.65 -11.4 -36.25 -10.5 -35.8 -9.5 -34.85 -9.3 -33.95 -9.05 -32.15 -10 -16.15 -18.95 -3.4 -25.9 4.15 -30.05 7.1 -31.9 12.9 -35.4 16.95 -38.85 19.65 -41.25 21.05 -42.45 23.45 -44.65 25.25 -45.9 25.3 -47.4 24 -48.55 22.8 -49.65 21.2 -49.8 19 -50 15.25 -48.35 7.2 -44.7 -7.55 -36.75 -16.8 -31.7 -21.15 -28.4 -26.15 -24.55 -34.35 -15.7 Z"/>
</g>
</defs>

<g transform="matrix( 1.356475830078125, 0, 0, 1.356475830078125, 158,304.2) ">
<g transform="matrix( 1, 0, 0, 1, 0,0) ">
<use xlink:href="#Symbol_22_28_Layer1_0_FILL"/>
</g>

<g transform="matrix( 1, 0, 0, 1, -148.1,-447.55) ">
<g transform="matrix( 1, 0, 0, 1, 0,0) ">
<use xlink:href="#barren_prop_18_Layer1_0_FILL"/>
</g>
</g>

<g transform="matrix( -1, 0, 0, 1, 64.3,-417.7) ">
<g transform="matrix( 1, 0, 0, 1, 0,0) ">
<use xlink:href="#barren_prop_17_Layer1_0_FILL"/>
</g>
</g>

<g transform="matrix( 0.351531982421875, 0.9361114501953125, -0.9361114501953125, 0.351531982421875, -13,-137.55) ">
<g transform="matrix( 1, 0, 0, 1, 0,0) ">
<use xlink:href="#Symbol_26_0_Layer0_0_FILL"/>
</g>
</g>
</g>
</svg>
