
<svg xmlns="http://www.w3.org/2000/svg" version="1.1" xmlns:xlink="http://www.w3.org/1999/xlink" preserveAspectRatio="none" x="0px" y="0px" width="325px" height="525px" viewBox="0 0 325 525">
<defs>
<g id="Symbol_22_9_Layer1_0_FILL">
<path fill="#000000" stroke="none" d="
M -67.65 129.1
Q -67.75 129.05 -67.9 129 -68.05 128.8 -68.2 128.6 -68.45 128.6 -68.65 128.65 -70.95 128.9 -72.7 128.6 -73.35 128.5 -74.75 128.2 -75.15 128.1 -75.5 128.05 -75.2 128.45 -74.95 128.8
L -72.75 128.8 -72.75 133.5
Q -71.85 133.45 -71 133.4 -70.95 133.4 -70.85 133.4 -68.85 135.15 -66.85 135.85 -65.15 136.4 -64 136.15 -63.25 136.05 -62.7 135.6 -62.15 135.15 -61.95 134.55 -61.7 133.15 -63.3 132.15 -64.15 131.55 -66.05 130.65 -66.2 129.65 -67.65 129.1 Z"/>

<path fill="#040405" stroke="none" d="
M -83.5 103.9
Q -85 105.75 -84 109.8 -83.35 112.6 -82.3 115.35 -81.35 118.8 -79.6 121.5 -78.35 123.4 -75.7 126.35 -73.35 129 -71.4 128.3 -70.55 127.95 -70.2 127.1 -69.85 126.25 -70.15 125.4 -70.4 124.5 -72.1 122.5 -73.75 120.6 -75.2 118.2
L -75.15 118.2
Q -75.75 117.1 -76.35 115.85 -78.15 111.95 -79.5 108.1 -79.85 106.85 -79.8 106.4 -79.8 106.3 -79.5 104.9 -79.3 104.05 -79.6 103.55 -79.85 103.15 -80.45 102.9 -81.05 102.65 -81.6 102.75 -82.65 102.95 -83.5 103.9
M 83.95 47.15
Q 84.05 46.35 83.6 45.65 83.05 44.95 82.25 44.85 81.45 44.7 79.95 45.5
L 49.4 61.4
Q 49.6 60.75 49.75 59.8 47.9 60.7 46.15 61.6
L 43.7 61.95
Q 43.65 62.9 44 63.65 44.65 64.9 46.35 65.5 47.95 66.05 49.7 65.8 52 65.45 55.55 63.25 60.4 60.35 64.6 57.9 71.2 53.95 76.05 51.25
L 63 65.7
Q 61.05 67.9 60.6 68.95 60.15 69.9 60 71.25 60 71.5 59.85 73.65 59.6 79.1 58.5 85.8 57.8 89.85 56.1 97.85 55.9 98.85 55.75 99.75 55.25 103 55.4 104.85
L 56.45 104.85
Q 57.8 103.8 58.75 101.4 59.1 100.6 59.4 99.75 60.3 97.2 61.1 94.1 61.6 92 62.75 86.6 64.3 79.15 64.45 75.75 64.55 74.6 64.6 73.75 64.75 71.8 65.1 70.9 65.65 69.7 67.45 67.55
L 75.85 57.95
Q 80.35 52.9 82.65 49.85 83.9 48.15 83.95 47.15 Z"/>
</g>

<g id="barren_prop_17_Layer1_0_FILL">
<path fill="#000000" stroke="none" d="
M 83 277.1
L 114.8 288.85 118.85 340.4 85.8 329.6
Q 91.0310546875 339.1966796875 103.25 341.55 118.35 344.2 133.4 341.8 148.4 339.4 161.6 331.9
L 156.7 285.25
Q 155.1 283.55 153.45 281.95 141.8 270.4 125.5 267.6
L 79.85 273.7
Q 79.1 294.3 81.4 314.7 81.9947265625 320.053125 83.75 324.95
L 83 277.1
M 115.75 286.35
L 90.75 275.85 123 270.7 126.05 272.4 138.6 277.15 119.25 282.4 143 278.8 148.55 281.55 115.75 286.35
M 117.25 288.9
L 152.7 283.05 158.25 330.15 122.95 339.6
Q 116.55 326.85 118.45 312.45 119.2 306.85 118.55 301.1 118.35 299.05 118.15 297 117.7 292.95 117.25 288.9
M 149.05 316.25
Q 152.3 310.6 150.75 304.3 150.2 302.1 149.45 300.05 148.9 298.55 148.35 297.1 147.75 295.5 147.2 293.95
L 146.7 297.8 135.25 303.8 146.95 300.15 149.05 316.25
M 151 284.6
L 148.55 288 146.9 291.6 151 284.6
M 127.35 295.2
L 123.5 293.2
Q 128.35 304.45 127.35 316.7 127 321.25 126.3 325.8 125.8 329.05 126.7 332.25
L 129.7 324.4 145.9 314.8 129.1 320.45 128.85 311.45 134.2 310.35 128.5 310.4 127.35 295.2
M 110.2 324.5
L 112.25 330.25 108.45 296.85 110.4 322.6 92.95 316.35 110.2 324.5
M 104.6 329.5
L 108.6 330.25 89.3 322.4 104.6 329.5
M 89.45 304.95
L 87.1 307.2 85.1 326.4 87.75 322.85 88.55 308.3 99.15 310.15 89.45 304.95
M 100.8 291.35
L 108.85 293.7 113.5 289.15 108.35 291.45 86.5 282.95 100.8 291.35 Z"/>

<path fill="#70513A" stroke="none" d="
M 152.7 283.05
L 117.25 288.9
Q 117.7 292.95 118.15 297 118.35 299.05 118.55 301.1 119.2 306.85 118.45 312.45 116.55 326.85 122.95 339.6
L 158.25 330.15 152.7 283.05
M 123.5 293.2
L 127.35 295.2 128.5 310.4 134.2 310.35 128.85 311.45 129.1 320.45 145.9 314.8 129.7 324.4 126.7 332.25
Q 125.8 329.05 126.3 325.8 127 321.25 127.35 316.7 128.35 304.45 123.5 293.2
M 148.55 288
L 151 284.6 146.9 291.6 148.55 288
M 150.75 304.3
Q 152.3 310.6 149.05 316.25
L 146.95 300.15 135.25 303.8 146.7 297.8 147.2 293.95
Q 147.75 295.5 148.35 297.1 148.9 298.55 149.45 300.05 150.2 302.1 150.75 304.3 Z"/>

<path fill="#AF8362" stroke="none" d="
M 90.75 275.85
L 115.75 286.35 148.55 281.55 143 278.8 119.25 282.4 138.6 277.15 126.05 272.4 123 270.7 90.75 275.85
M 114.8 288.85
L 83 277.1 83.75 324.95
Q 84.2515625 326.248046875 84.8 327.5 85.2697265625 328.5865234375 85.8 329.6
L 118.85 340.4 114.8 288.85
M 108.85 293.7
L 100.8 291.35 86.5 282.95 108.35 291.45 113.5 289.15 108.85 293.7
M 87.1 307.2
L 89.45 304.95 99.15 310.15 88.55 308.3 87.75 322.85 85.1 326.4 87.1 307.2
M 108.6 330.25
L 104.6 329.5 89.3 322.4 108.6 330.25
M 112.25 330.25
L 110.2 324.5 92.95 316.35 110.4 322.6 108.45 296.85 112.25 330.25 Z"/>
</g>

<g id="Symbol_25_0_Layer1_0_FILL">
<path fill="#000000" stroke="none" d="
M -7.8 -64.7
Q -9.2 -46.6 -10.3 -28.5 -11.5 -8.9 -12.15 10.75 -12.85 30.7 -12.9 50.55 -12.95 64 -11.3 77.35 -9.45 92.25 6.7 86.45 8.85 85.75 9.45 83.75 13.85 69.1 12.65 53 13.85 33.3 11.05 13.8 5.3 -26.45 -7.8 -64.7
M -7.35 -6.05
Q -7.55 -31 -6.2 -55.95 -2.75 -40.65 1.05 -25.4 5.5 -7.65 6.4 10.2
L 2.15 3.75 1.8 3.9
Q 0.45 14.7 1.55 25.65 1.1 24.15 0.8 22.6 -0.7 14.4 -4.2 6.6
L -4.8 6.4
Q -5.7 6.15 -6 4.95 -7.3 -0.4 -7.35 -6.05
M -5.05 11.35
L -4.15 9.9 0.9 26.55 1.8 27.2 2.75 6.75 6.55 12.6 7.5 11.15 8.95 22.05 9.45 28.95 9.45 40.7
Q 9.3 57 9.45 73.25 9.6 85.3 -1.25 84.05 -4.15 83.95 -6.5 82.3 -7.45 81.65 -7.55 80.85 -9.85 61.2 -9.35 41.2
L -9.2 10.45 -8.9 -1.5 -5.05 11.35
M 3.15 -1.4
Q 3.05 -2.45 2.95 -3.5 1.7 -16.05 -1.75 -27.9
L -0.6 -19.4
Q 0 -9.65 3.15 -1.4 Z"/>

<path fill="#70513A" stroke="none" d="
M 9.45 73.25
Q 9.3 57 9.45 40.7
L -1.25 84.05
Q 9.6 85.3 9.45 73.25
M 0.25 49.1
Q 1.1 47.75 1.85 46.4 6.45 37.95 9.45 28.95
L 8.95 22.05
Q 4.95 35.75 0.25 49.1
M -9.35 41.2
Q -8.8 44.25 -8.25 47.35 -7.75 50.4 -7.35 53.45 -6.45 59.8 -4.3 65.65 -3.85 66.85 -3.3 68.1
L -7.9 23.8 -0.4 39.45 -9.2 10.45 -9.35 41.2 Z"/>

<path fill="#CDC2A6" stroke="none" d="
M 1.65 28
L 1.8 27.2 0.9 26.55 1.65 28
M -6.2 -55.95
Q -7.55 -31 -7.35 -6.05 -7.3 -0.4 -6 4.95 -5.7 6.15 -4.8 6.4
L -4.7 5.4 -4.2 6.6
Q -0.7 14.4 0.8 22.6 1.1 24.15 1.55 25.65 0.45 14.7 1.8 3.9
L 1.85 3.35 2.15 3.75 6.4 10.2
Q 5.5 -7.65 1.05 -25.4 -2.75 -40.65 -6.2 -55.95
M 2.95 -3.5
Q 3.05 -2.45 3.15 -1.4 0 -9.65 -0.6 -19.4
L -1.75 -27.9
Q 1.7 -16.05 2.95 -3.5 Z"/>

<path fill="#AF8362" stroke="none" d="
M -4.15 9.9
L -5.05 11.35 -8.9 -1.5 -9.2 10.45 -0.4 39.45 -7.9 23.8 -3.3 68.1
Q -3.85 66.85 -4.3 65.65 -6.45 59.8 -7.35 53.45 -7.75 50.4 -8.25 47.35 -8.8 44.25 -9.35 41.2 -9.85 61.2 -7.55 80.85 -7.45 81.65 -6.5 82.3 -4.15 83.95 -1.25 84.05
L 9.45 40.7 9.45 28.95
Q 6.45 37.95 1.85 46.4 1.1 47.75 0.25 49.1 4.95 35.75 8.95 22.05
L 7.5 11.15 6.55 12.6 2.75 6.75 1.8 27.2 1.65 28 0.9 26.55 -4.15 9.9
M 1.8 3.9
L 2.15 3.75 1.85 3.35 1.8 3.9
M -4.8 6.4
L -4.2 6.6 -4.7 5.4 -4.8 6.4 Z"/>
</g>

<g id="Symbol_25_0_Layer0_0_FILL">
<path fill="#000000" stroke="none" d="
M 3.05 48.3
Q 7.25 47.95 10.1 44.95 16.85 37.95 11.25 30.4 9.15 31 7.05 31.4 -3.05 33.3 -11.7 27.65 -11.85 28.05 -11.95 28.5 -16.15 46.8 3.05 48.3
M 4.85 34.4
L 10.65 32.8
Q 10.8 33.65 10.95 34.55 12.35 43.5 4.4 45.2 0 46.1 -4.05 44 -12.15 40 -9.9 30.45 -9.1 31.05 -8.2 31.6 -2.2 35.35 4.85 34.4 Z"/>

<path fill="#0099FF" stroke="none" d="
M 4.4 45.2
L 4.85 34.4
Q -2.2 35.35 -8.2 31.6 -9.1 31.05 -9.9 30.45 -12.15 40 -4.05 44 0 46.1 4.4 45.2 Z"/>

<path fill="#0033FF" stroke="none" d="
M 10.65 32.8
L 4.85 34.4 4.4 45.2
Q 12.35 43.5 10.95 34.55 10.8 33.65 10.65 32.8 Z"/>
</g>

<g id="Symbol_23_0_Layer0_0_FILL">
<path fill="#000000" stroke="none" d="
M 25.9 -37.9
Q 25.55 -39.3 23.3 -40.8 18.8 -43.85 16.45 -45.2 12.5 -47.4 8.95 -48.2 4.25 -49.25 -1.45 -48.25 -5.75 -47.5 -11.65 -45.3 -30 -38.35 -41.2 -27.6 -46.45 -22.55 -47.45 -18.15 -48.1 -15.2 -47.1 -9.3 -44.75 4.2 -41.8 12.1 -38.05 22.2 -31.9 28.95 -29.05 32.4 -25.65 35.5 -19.1 41.45 -11.2 45.2 -5.35 47.95 -0.4 48.55 4.8 49.15 11.1 47.75 18.25 46.2 24.25 42.75 32.05 38.25 40.25 28.9 44.3 24.3 45.75 21.15 48.95 14.1 46.75 2.7 44.65 -7.95 39.75 -17.7 34.85 -27.55 27.6 -35.6 26.8 -36.5 26 -37.3 26 -37.55 25.9 -37.9
M 21.75 -35.05
Q 21.8 -35.4 21.9 -35.75 23.5 -34.25 25.2 -32.4 32.5 -24.15 37.2 -14.05 39.3 -9.5 40.8 -4.8 40.65 -0.65 39.6 2.75 37.8 8.75 32.5 14.45 28.8 18.4 21.85 23.65 19.15 25.7 16.85 27.3
L 16.8 27.25
Q 16.7 27.1 16.6 27
L 16.65 27
Q 16.6 26.95 16.55 26.9 16.25 26.6 15.45 26.2
L 14.95 26 13.4 25.3
Q 12.4 24.85 12.05 24.6 11.25 23.9 10.8 24.1 10.45 24.4 10.9 25.1 11.4 25.9 11.7 26.2 12.25 26.75 13 27.25
L 14.45 28.35
Q 14.65 28.55 14.8 28.7 14.5 28.85 14.25 29.05 13.4 29.6 12.6 30.1 7.4 33.4 2.65 35.35 -0.55 36.65 -3.55 37.4 -10 38.95 -15.8 38.15 -23.35 33.5 -28.65 26.95 -34.65 19.65 -38.05 9.7 -39.4 5.75 -40.25 1.5 -38 2.75 -34.25 2.9 -33.45 2.95 -32.6 2.95 -32.55 3.2 -32.45 3.45 -29.95 10.65 -26.2 17.1 -22.2 23.95 -17.95 27.95 -16.75 29.1 -15.05 30.45 -14 31.4 -12.95 32.05
L -11.5 32.8
Q -10.45 33.55 -9.9 33.4 -13.4 30.5 -16.45 27.15 -19.05 24.3 -20.9 21.4 -21.85 19.9 -23.45 16.9 -25.95 12.1 -27.15 9.5 -28.75 5.95 -29.65 2.85 -28.7 2.8 -27.75 2.7 -27.5 2.65 -27.25 2.65 -27.05 2.6 -26.8 2.6 -26.65 2.55 -26.5 2.55 -26.35 2.5 -26.2 2.5 -26.05 2.45 -25.9 2.45 -25.75 2.4 -25.6 2.4 -19.3 1.4 -12.8 -1.5 -12.35 -1.7 -11.9 -1.9 -11.65 -2.05 -11.4 -2.15 -11.1 -2.3 -10.75 -2.45 -10.55 -1.9 -10.25 -1.25
L -7.95 3.45
Q -7 4.9 -6.85 5.1
L 0.35 13.95 2.15 15.75
Q 2.55 16.05 2.9 16.15 3.3 16.25 3.6 16.05
L 0.1 12.15 -0.65 11.1
Q -1.05 10.65 -1.95 9.75
L -2.6 8.6 -3.6 7.4
Q -4 6.85 -4.6 5.65
L -6 3.9
Q -6.55 3.1 -7.1 1.75 -7.45 0.85 -7.7 0.1 -7.8 -0.1 -7.85 -0.25 -8.15 -1.15 -8.35 -1.75 -8.6 -2.6 -8.75 -3.3 -8.75 -3.4 -8.75 -3.45 -0.75 -7.8 8.1 -15.4 9.45 -16.55 10.7 -17.7 11.15 -17.8 11.75 -18.1 13.05 -18.65 13.2 -18.7 13.5 -18.55 13.85 -18.35 13.9 -18.3 13.95 -18.3 15.85 -16.65 17.75 -14.65 20.05 -11.25 21.3 -9.65
L 23.8 -6.8
Q 24.3 -6.2 24.9 -5.1 25.7 -3.65 25.95 -3.3 26.45 -2.45 28.1 -0.45
L 28.75 0.35
Q 29.8 2 30.35 2.95
L 32.25 6.4
Q 33.65 8.6 35.2 10.1
L 34.45 8.55
Q 33.1 5.7 31.55 2.9 31.6 2.8 31.65 2.65 31.75 2.35 31.6 1.95 31.2 0.45 29.85 -1.5 27.7 -4.65 27.6 -4.8 27.45 -5.05 26.4 -6.85 25.85 -7.9 24.2 -10.4
L 20.5 -15.9
Q 18.15 -19.1 15 -21.55 14.85 -21.7 14.7 -21.8 15.6 -22.9 16.4 -23.9 16.45 -24 16.55 -24.1 16.6 -24.15 16.65 -24.25 16.75 -24.4 16.85 -24.5 20.75 -29.75 21.75 -35.05
M 10.55 -41.15
Q 10.55 -41.2 10.6 -41.2 10.7 -41.2 10.8 -41.2 12.7 -41.05 14.65 -40.35 14.75 -40.25 14.9 -40.2 15.05 -40.15 15.2 -40.1 16.95 -39.4 18.7 -38.2 18.9 -35.95 17.85 -33.15 17.3 -31.65 16.5 -30.1 15.25 -27.7 13.35 -25.3
L 13.4 -25.3
Q 13.45 -25.25 13.55 -25.2
L 9 -20.6
Q 8.8 -20.4 8.65 -20.2 8.55 -20.2 8.5 -20.2 6.95 -18.8 5.15 -17.25 -2.05 -11.2 -8.6 -7.3 -9.45 -6.8 -10.3 -6.35 -10.65 -6.2 -10.9 -6 -12.1 -5.35 -13.3 -4.8 -22.15 -0.5 -30.8 0.2 -30.95 0.1 -31.05 0.05 -31.6 -0.15 -32.1 0.25 -33.5 0.35 -34.85 0.3 -37.25 0.3 -38.95 -0.35 -40.1 -0.8 -40.85 -1.55 -41.5 -5.55 -41.8 -9.8 -41.9 -10.95 -41.95 -11.8 -40.7 -11.5 -39 -11.6 -35 -11.85 -29.75 -13.6 -22.3 -16.1 -13.6 -20.85 -7.25 -24.3 -0.25 -29 4.05 -31.9 6.35 -34.25 7.9 -35.8 8.9 -37.4 10.05 -39.25 10.55 -41.15
M 7.05 -42.8
Q 5.8 -39.2 2.5 -35.95 0.1 -33.55 -4.2 -30.75 -6.85 -29 -9.6 -27.35 -17.3 -22.75 -25.7 -19.05 -26.65 -18.65 -27.6 -18.25 -35 -15.25 -40.2 -15.05 -41.35 -15.05 -41.75 -15.45 -42.6 -16.3 -41.25 -18 -36.45 -24.05 -27.7 -30.1 -23.75 -32.8 -19.75 -35
L -20.9 -33.65
Q -22.65 -31.6 -25.6 -27.55
L -30.45 -19.8
Q -30.95 -19 -30.7 -18.5 -29.75 -19.2 -28.4 -21.3
L -19.25 -33.95 -16.8 -36.4
Q -16.65 -36.5 -16.55 -36.65 -16.45 -36.7 -16.3 -36.75 -15.6 -37.1 -14.9 -37.4 -11.15 -39.15 -7.4 -40.45 -5.8 -41 -4.2 -41.4 -7.45 -37.1 -9.7 -32
L -9.7 -31.95
Q -10.4 -30.4 -11 -28.8 -10.15 -29.3 -9.35 -30.3 -8.95 -30.75 -8.05 -32.05 -8.05 -32.1 -8 -32.15
L -6.85 -34.05
Q -4.05 -38.6 -1.95 -40.75 -1.15 -41.65 -1.05 -42.15 3.25 -43.05 7.05 -42.8
M -12.1 40.25
Q -12.4 40.1 -12.65 39.95 -3.7 40.3 5.75 36.3 13.25 33.2 21.85 26.9 23.55 25.65 25.3 24.25 29.9 20.6 32.75 17.75 36.6 13.95 38.95 10.1 40.1 8.2 41 6.25 41.95 3.95 42.5 1.65 43.05 4.25 43.45 6.95 44.15 11.7 43.6 15 43.2 17.05 42.2 19.2 42 19.6 41.8 20
L 37.8 25.8
Q 37.75 25.9 37.65 26 37.25 26.45 36.8 26.95 36.35 27.45 35.95 27.95
L 30.35 33.5
Q 28.25 35.35 26.05 36.9 26 37.25 25.8 37.55 25.45 38.05 24.45 38.45 23.4 38.85 22.65 39.15 21.35 39.9 20.05 40.55 15.05 43.1 9.8 44.05 4.2 45.05 -1 44.2 -6.05 43.35 -12.1 40.25 Z"/>

<path fill="#B7CBF3" stroke="none" d="
M 42.2 19.2
L 41 6.25
Q 40.1 8.2 38.95 10.1 36.6 13.95 32.75 17.75 29.9 20.6 25.3 24.25 23.55 25.65 21.85 26.9 22.05 27.1 22.3 27.3 24.55 29.3 29.15 33.1 29.65 33.45 30.05 33.75 30.2 33.6 30.35 33.5
L 35.95 27.95
Q 36.35 27.45 36.8 26.95 37.25 26.45 37.65 26 37.75 25.9 37.8 25.8
L 41.8 20
Q 42 19.6 42.2 19.2
M 13.35 -25.3
Q 15.25 -27.7 16.5 -30.1 16.2 -30.45 15.75 -30.9
L 8.9 -37.4
Q 7.9 -35.8 6.35 -34.25 4.05 -31.9 -0.25 -29 -7.25 -24.3 -13.6 -20.85 -14.05 -20.1 -14 -19.2 -13.9 -18.1 -12.75 -16 -12.1 -14.85 -9.25 -8.7 -8.9 -8 -8.6 -7.3 -2.05 -11.2 5.15 -17.25 6.95 -18.8 8.5 -20.2 8.55 -20.2 8.65 -20.2 8.8 -20.4 9 -20.6
L 13.55 -25.2
Q 13.45 -25.25 13.4 -25.3
L 13.35 -25.3 Z"/>

<path fill="#5E7196" stroke="none" d="
M 42.5 1.65
Q 41.95 3.95 41 6.25
L 42.2 19.2
Q 43.2 17.05 43.6 15 44.15 11.7 43.45 6.95 43.05 4.25 42.5 1.65
M -12.65 39.95
Q -12.4 40.1 -12.1 40.25 -6.05 43.35 -1 44.2 4.2 45.05 9.8 44.05 15.05 43.1 20.05 40.55 21.35 39.9 22.65 39.15 23.4 38.85 24.45 38.45 25.45 38.05 25.8 37.55 26 37.25 26.05 36.9 28.25 35.35 30.35 33.5 30.2 33.6 30.05 33.75 29.65 33.45 29.15 33.1 24.55 29.3 22.3 27.3 22.05 27.1 21.85 26.9 13.25 33.2 5.75 36.3 -3.7 40.3 -12.65 39.95
M -41.8 -9.8
Q -41.5 -5.55 -40.85 -1.55 -40.1 -0.8 -38.95 -0.35 -37.25 0.3 -34.85 0.3 -33.5 0.35 -32.1 0.25 -31.6 -0.15 -31.05 0.05 -30.95 0.1 -30.8 0.2 -22.15 -0.5 -13.3 -4.8 -12.1 -5.35 -10.9 -6 -10.65 -6.2 -10.3 -6.35 -9.45 -6.8 -8.6 -7.3 -8.9 -8 -9.25 -8.7 -12.1 -14.85 -12.75 -16 -13.9 -18.1 -14 -19.2 -14.05 -20.1 -13.6 -20.85 -22.3 -16.1 -29.75 -13.6 -35 -11.85 -39 -11.6 -40.7 -11.5 -41.95 -11.8 -41.9 -10.95 -41.8 -9.8
M 10.6 -41.2
Q 10.55 -41.2 10.55 -41.15 10.05 -39.25 8.9 -37.4
L 15.75 -30.9
Q 16.2 -30.45 16.5 -30.1 17.3 -31.65 17.85 -33.15 18.9 -35.95 18.7 -38.2 16.95 -39.4 15.2 -40.1 15.05 -40.15 14.9 -40.2 14.75 -40.25 14.65 -40.35 12.7 -41.05 10.8 -41.2 10.7 -41.2 10.6 -41.2 Z"/>

<path fill="#CC6633" stroke="none" d="
M -4.2 -41.4
Q -5.8 -41 -7.4 -40.45 -11.15 -39.15 -14.9 -37.4 -15 -37.3 -15.1 -37.15 -20.5 -29.5 -25.6 -21.45 -20.25 -23.45 -15.5 -26.35
L -12.35 -28.3
Q -11.85 -28.7 -11.75 -28.8 -11.55 -29 -11.25 -29.6
L -9.7 -31.95 -9.7 -32
Q -7.45 -37.1 -4.2 -41.4
M -24.9 -30.15
Q -28.4 -27.25 -30.1 -25.75 -33.1 -23.25 -34.25 -21.75 -35.6 -19.95 -35.85 -18.45 -35.5 -18.5 -34.45 -18.4 -33.6 -18.25 -33.1 -18.5 -32.65 -18.75 -32.15 -19.5
L -24.9 -30.15
M 2.5 -35.95
Q 5.8 -39.2 7.05 -42.8 3.25 -43.05 -1.05 -42.15 -1.15 -41.65 -1.95 -40.75 -4.05 -38.6 -6.85 -34.05
L -8 -32.15
Q -8.05 -32.1 -8.05 -32.05
L -8.95 -29.05
Q -9.3 -28 -9.6 -27.35 -6.85 -29 -4.2 -30.75 0.1 -33.55 2.5 -35.95
M -7.85 11.1
Q -11.45 6.6 -12.9 4.15 -15.8 5.55 -21.9 7.55 -24.85 8.45 -26.45 8.7 -24.05 13.35 -18.75 21 -15.95 25 -14.6 26.75 -12.2 29.85 -10 32.05 -8.8 33.25 -7.3 34.5 -5.1 34.25 -2.05 33.45 2.5 32.4 4.95 31.55 8.7 30.2 11.3 28.3
L 12.25 27.65 4.45 22.25
Q -1.15 18.35 -3.55 15.95 -4.6 14.95 -7.85 11.1
M 21.9 -35.75
Q 21.8 -35.4 21.75 -35.05 20.75 -29.75 16.85 -24.5 16.75 -24.4 16.65 -24.25 16.6 -24.15 16.55 -24.1 16.45 -24 16.4 -23.9 15.75 -22.75 15 -21.55 18.15 -19.1 20.5 -15.9
L 24.2 -10.4
Q 25.85 -7.9 26.4 -6.85 27.45 -5.05 27.6 -4.8 27.7 -4.65 29.85 -1.5 31.2 0.45 31.6 1.95 31.75 2.35 31.65 2.65 31.6 2.8 31.55 2.9 33.1 5.7 34.45 8.55
L 35.2 10.1
Q 33.65 8.6 32.25 6.4
L 30.35 2.95
Q 29.8 2 28.75 0.35
L 28.1 -0.45
Q 26.45 -2.45 25.95 -3.3 25.7 -3.65 24.9 -5.1 24.3 -6.2 23.8 -6.8
L 21.3 -9.65
Q 20.05 -11.25 17.75 -14.65 15.85 -16.65 13.95 -18.3 13.5 -17.55 12.75 -16.7 8.1 -11.8 4.45 -8.4 1.85 -6 0.8 -5.25 -0.95 -3.95 -4.15 -2.25 -6.45 -1 -7.85 -0.25 -7.8 -0.1 -7.7 0.1 -7.45 0.85 -7.1 1.75 -6.55 3.1 -6 3.9
L -4.6 5.65
Q -4 6.85 -3.6 7.4
L -2.6 8.6 -1.95 9.75
Q -1.05 10.65 -0.65 11.1
L 0.1 12.15 3.6 16.05
Q 3.3 16.25 2.9 16.15 8.15 21.85 14.95 26
L 15.45 26.2
Q 16.25 26.6 16.55 26.9 16.6 26.95 16.65 27 16.8 27.1 16.95 27.2 16.9 27.25 16.85 27.3 19.15 25.7 21.85 23.65 28.8 18.4 32.5 14.45 37.8 8.75 39.6 2.75 40.65 -0.65 40.8 -4.8 39.3 -9.5 37.2 -14.05 32.5 -24.15 25.2 -32.4 23.5 -34.25 21.9 -35.75 Z"/>

<path fill="#88360C" stroke="none" d="
M -41.25 -18
Q -42.6 -16.3 -41.75 -15.45 -41.35 -15.05 -40.2 -15.05 -35 -15.25 -27.6 -18.25 -26.65 -18.65 -25.7 -19.05 -17.3 -22.75 -9.6 -27.35 -9.3 -28 -8.95 -29.05
L -8.05 -32.05
Q -8.95 -30.75 -9.35 -30.3 -10.15 -29.3 -11 -28.8 -10.4 -30.4 -9.7 -31.95
L -11.25 -29.6
Q -11.55 -29 -11.75 -28.8 -11.85 -28.7 -12.35 -28.3
L -15.5 -26.35
Q -20.25 -23.45 -25.6 -21.45 -20.5 -29.5 -15.1 -37.15 -15 -37.3 -14.9 -37.4 -15.6 -37.1 -16.3 -36.75 -16.45 -36.7 -16.55 -36.65 -16.65 -36.5 -16.8 -36.4
L -19.25 -33.95 -28.4 -21.3
Q -29.75 -19.2 -30.7 -18.5 -30.95 -19 -30.45 -19.8
L -25.6 -27.55
Q -22.65 -31.6 -20.9 -33.65
L -19.75 -35
Q -23.75 -32.8 -27.7 -30.1 -36.45 -24.05 -41.25 -18
M -30.1 -25.75
Q -28.4 -27.25 -24.9 -30.15
L -32.15 -19.5
Q -32.65 -18.75 -33.1 -18.5 -33.6 -18.25 -34.45 -18.4 -35.5 -18.5 -35.85 -18.45 -35.6 -19.95 -34.25 -21.75 -33.1 -23.25 -30.1 -25.75
M 16.8 27.25
L 16.85 27.3
Q 16.9 27.25 16.95 27.2 16.8 27.1 16.65 27
L 16.6 27
Q 16.7 27.1 16.8 27.25
M -11.9 -1.9
Q -12.35 -1.7 -12.8 -1.5 -19.3 1.4 -25.6 2.4 -25.75 2.4 -25.9 2.45 -26.05 2.45 -26.2 2.5 -26.35 2.5 -26.5 2.55 -26.65 2.55 -26.8 2.6 -27.05 2.6 -27.25 2.65 -27.5 2.65 -27.75 2.7 -28.7 2.8 -29.65 2.85 -28.75 5.95 -27.15 9.5 -25.95 12.1 -23.45 16.9 -21.85 19.9 -20.9 21.4 -19.05 24.3 -16.45 27.15 -13.4 30.5 -9.9 33.4 -10.45 33.55 -11.5 32.8
L -12.95 32.05
Q -14 31.4 -15.05 30.45 -16.75 29.1 -17.95 27.95 -22.2 23.95 -26.2 17.1 -29.95 10.65 -32.45 3.45 -32.55 3.2 -32.6 2.95 -33.45 2.95 -34.25 2.9 -38 2.75 -40.25 1.5 -39.4 5.75 -38.05 9.7 -34.65 19.65 -28.65 26.95 -23.35 33.5 -15.8 38.15 -10 38.95 -3.55 37.4 -0.55 36.65 2.65 35.35 7.4 33.4 12.6 30.1 13.4 29.6 14.25 29.05 14.5 28.85 14.8 28.7 14.65 28.55 14.45 28.35
L 13 27.25
Q 12.25 26.75 11.7 26.2 11.4 25.9 10.9 25.1 10.45 24.4 10.8 24.1 11.25 23.9 12.05 24.6 12.4 24.85 13.4 25.3
L 14.95 26
Q 8.15 21.85 2.9 16.15 2.55 16.05 2.15 15.75
L 0.35 13.95 -6.85 5.1
Q -7 4.9 -7.95 3.45
L -10.25 -1.25
Q -10.55 -1.9 -10.75 -2.45 -11.1 -2.3 -11.4 -2.15 -11.65 -2.05 -11.9 -1.9
M -12.9 4.15
Q -11.45 6.6 -7.85 11.1 -4.6 14.95 -3.55 15.95 -1.15 18.35 4.45 22.25
L 12.25 27.65 11.3 28.3
Q 8.7 30.2 4.95 31.55 2.5 32.4 -2.05 33.45 -5.1 34.25 -7.3 34.5 -8.8 33.25 -10 32.05 -12.2 29.85 -14.6 26.75 -15.95 25 -18.75 21 -24.05 13.35 -26.45 8.7 -24.85 8.45 -21.9 7.55 -15.8 5.55 -12.9 4.15
M 12.75 -16.7
Q 13.5 -17.55 13.95 -18.3 13.9 -18.3 13.85 -18.35 13.5 -18.55 13.2 -18.7 13.05 -18.65 11.75 -18.1 11.15 -17.8 10.7 -17.7 9.45 -16.55 8.1 -15.4 -0.75 -7.8 -8.75 -3.45 -8.75 -3.4 -8.75 -3.3 -8.6 -2.6 -8.35 -1.75 -8.15 -1.15 -7.85 -0.25 -6.45 -1 -4.15 -2.25 -0.95 -3.95 0.8 -5.25 1.85 -6 4.45 -8.4 8.1 -11.8 12.75 -16.7
M 14.7 -21.8
Q 14.85 -21.7 15 -21.55 15.75 -22.75 16.4 -23.9 15.6 -22.9 14.7 -21.8 Z"/>
</g>
</defs>

<g transform="matrix( 1.356475830078125, 0, 0, 1.356475830078125, 158,304.2) ">
<g transform="matrix( 1, 0, 0, 1, 0,0) ">
<use xlink:href="#Symbol_22_9_Layer1_0_FILL"/>
</g>

<g transform="matrix( -1.2492523193359375, 0, 0, 0.8310394287109375, 159.05,-162.3) ">
<g transform="matrix( 1, 0, 0, 1, 0,0) ">
<use xlink:href="#barren_prop_17_Layer1_0_FILL"/>
</g>
</g>

<g transform="matrix( 0.661468505859375, 0.730194091796875, -0.838348388671875, 0.5761260986328125, 32.8,89.2) ">
<g transform="matrix( 1, 0, 0, 1, 0,0) ">
<use xlink:href="#Symbol_25_0_Layer1_0_FILL"/>
</g>

<g transform="matrix( 1, 0, 0, 1, 0,0) ">
<use xlink:href="#Symbol_25_0_Layer0_0_FILL"/>
</g>
</g>

<g transform="matrix( 1.06793212890625, 0, 0, 0.930145263671875, -33.65,106.3) ">
<g transform="matrix( 1, 0, 0, 1, 0,0) ">
<use xlink:href="#Symbol_23_0_Layer0_0_FILL"/>
</g>
</g>
</g>
</svg>
