
<svg xmlns="http://www.w3.org/2000/svg" version="1.1" xmlns:xlink="http://www.w3.org/1999/xlink" preserveAspectRatio="none" x="0px" y="0px" width="625px" height="600px" viewBox="0 0 625 600">
<defs>
<radialGradient id="Gradient_1" gradientUnits="userSpaceOnUse" cx="0" cy="0" r="535.1" fx="0" fy="0" gradientTransform="matrix( 1, 0, 0, 1, 484.9,254.6) " spreadMethod="pad">
<stop  offset="0.39215686274509803%" stop-color="#FFE000"/>

<stop  offset="53.333333333333336%" stop-color="#FF8C00"/>

<stop  offset="100%" stop-color="#FF0000"/>
</radialGradient>

<radialGradient id="Gradient_2" gradientUnits="userSpaceOnUse" cx="0" cy="0" r="270.75" fx="0" fy="0" gradientTransform="matrix( 1, 0, 0, 0.9764081255771008, 155.55,262.45) " spreadMethod="pad">
<stop  offset="43.529411764705884%" stop-color="#FFFFFF"/>

<stop  offset="72.94117647058823%" stop-color="#FFCC00"/>

<stop  offset="99.2156862745098%" stop-color="#FF5400"/>
</radialGradient>

<filter id="Filter_1" x="-20%" y="-20%" width="140%" height="140%" color-interpolation-filters="sRGB">
<feColorMatrix in="SourceGraphic" type="matrix" values="1 0 0 0 0 0 1 0 0 0 0 0 1 0 0 0 0 0 0.35 0" result="result1"/>
</filter>

<filter id="Filter_2" x="-20%" y="-20%" width="140%" height="140%" color-interpolation-filters="sRGB">
<feColorMatrix in="SourceGraphic" type="matrix" values="1 0 0 0 0 0 1 0 0 0 0 0 1 0 0 0 0 0 0.27 0" result="result1"/>
</filter>

<g id="Duplicate_Items_Folder_Symbol_2_0_Layer0_0_FILL">
<path fill="url(#Gradient_1)" stroke="none" d="
M 1000.9 203.05
L 1000.9 199.95
Q 985.05 199.95 952 205.95 919 211.95 908.65 211.95 879.35 211.95 874.5 209.3 871.8 207.8 871.45 204.25 871.45 199.1 871.45 195.3 871.45 185.8 877.5 170.35 883.7 154.5 883.85 150.35
L 883.85 147.6
Q 879.4 150.9 868.6 156.45 855.95 162.75 850.15 165.85
L 828.45 165.85
Q 834.85 152.8 853.5 127.5 864.1 113.15 886.95 82.5 882.3 82.5 868.2 86.85 849.45 92.95 838.45 96.45 794.45 110.4 773.05 110.4 757.15 110.4 751.7 107.4 745.5 103.95 745.5 93.35 745.5 80.9 757.6 59.5 760.6 54.1 765.95 44.7 769.8 37.35 769.95 33.75 766.7 33.75 749.7 39.95 732.75 46.15 726.9 46.15
L 726.9 27.55
Q 729.4 20.35 731.15 12.75 733.1 4.4 733.1 0 731.25 0.7 717.3 11.85 699.35 26.15 686.95 34.85 640.75 67.4 612.6 67.4 601.05 67.4 594.85 62 589.5 57.3 587.1 47.6 585.55 41.2 584.5 27.05 583.2 10.55 582 3.1 566.25 18.9 565.45 19.7 550.95 33.75 537.7 44.4 497.65 76.7 471.6 76.7 459.2 76.7 429.6 53 412.1 38.95 400.7 27.55 403.5 51.4 397.25 63.15 390 76.7 369.7 76.7 363 76.7 347.55 67.65 326.15 55.1 321.55 52.55 323.7 58.95 324.7 63.2 326.65 71.5 326.65 79.8 310.05 80.8 275.1 64.9 256.55 56.5 231.35 43.05
L 228.25 43.05
Q 245.8 58.8 257.2 70.85 278.95 93.75 277.45 104.2 264.65 110.4 175.55 116.6 181.25 117.5 187.8 120.9 196.8 125.5 200.35 132.1
L 163.55 132.1
Q 162.65 131.9 140.05 127.45 125.8 124.65 123.25 122.8
L 120.15 122.8
Q 146 133.6 163.95 143.65 198.05 162.8 203.45 181.35 193.4 181.35 171.1 186.1 148.15 191 148.05 193.75 148.05 189.05 143 190.85 142.15 191.15 138.9 192.65 136.55 193.75 135.65 193.75 138.75 196.65 144.95 202.85 151.15 209.05 154.25 211.95 152.35 211.95 143.6 215.85 143.15 216.05 142.7 216.25 141.15 216.35 139.65 216.4 91.35 218.55 74 218.55 76.1 219.5 107.8 231.85 136.65 243.1 141.85 246.05 138.6 253.2 127 258.65 123.8 260.15 117.2 262.95 111.4 265.5 108.1 267.75
L 105.2 267.75
Q 108.55 267.85 119.05 271.45 131.6 275.7 135.65 279.75 128.9 293.5 72.65 326.8 49.9 340.2 29.3 350.55 8.35 361.05 0 363.05
L 0 366.15
Q 19.8 363.05 41.65 359.95 85.35 353.75 110.85 353.75 149.9 353.75 172.75 366.3 181.8 371.25 186.7 377.45 191.05 382.95 191.05 387.85 191.05 394.35 185.8 405.45 182.3 412.8 174.2 426.45 165.25 441.55 162.6 446.65 157.35 456.9 157.35 461.9 159.1 461.8 184.6 455.55 209.3 449.5 217.4 449.5 231.85 449.5 234.35 455.7 235.2 457.85 234.95 461.6 234.8 463.65 234.45 467.7 234.45 482.7 215.9 528.85 204.35 557.55 194.15 578.9 206.9 569 233.65 546.3 258.55 525.15 271.55 515.35 292.05 499.9 308.15 492.25 327.25 483.2 343.7 483.2 352.85 483.2 357.95 490.9 361.5 496.2 364.2 507.8 367.5 521.9 368.65 524.7 371.75 532.4 377.45 532.4 382.7 532.4 390.05 528.6 394.15 526.45 403.65 520.2 412.7 514.2 417.6 511.8 425.35 508 431.3 508 438.7 508 452.55 545.05 457.7 558.75 461.65 572.25 465.4 585 465.4 588.2 470.05 577.9 473.7 570.25 480.6 555.85 486.9 545.55 506.1 514.2 523.5 514.2 531.5 514.2 570.95 545.65 579.05 552.1 599.2 568.6 613.3 580.15 616.1 582 615.9 574.85 614.1 560.5 611.8 541.75 611.65 533.25 611.4 518.55 615.55 511 620.65 501.8 632.75 501.8 634.9 501.8 655.8 513.55 657.75 514.65 701.75 539.9 770 579 782.35 582 776.75 576.4 768.1 560.5 760.05 545.65 751.9 526.7 733.1 482.75 733.1 466.15 733.1 450.9 743.9 443.9 753.25 437.85 772.9 436.9 785.9 436.3 815.2 438.05 849.6 440.1 865.65 440.2
L 868.75 440.2
Q 854.8 437.9 840.85 421.6 846.35 416.1 867.8 413.65 882.95 411.95 912.8 411.35 953.05 410.55 958.85 410.3 981.8 409.25 988.85 406.1 950.1 394.85 918.8 376.75 883.85 356.6 883.85 341.35 883.85 332.1 929 305.3 969.85 281.05 1019.5 258.45 1004.05 259.2 992.3 261.85 985.35 263.4 974.75 267.05 964.6 270.55 958.35 271.85 948.1 273.95 934.6 273.95 927.35 273.95 924.55 273.5 920.05 272.8 917.95 270.45 919.4 261.05 930.75 250.7 939.35 242.9 955.8 232.85 965 227.2 982.65 216.9 996.55 208.4 1000.9 203.05 Z"/>
</g>

<g id="Duplicate_Items_Folder_exploscircle03_0_Layer0_0_FILL">
<path fill="url(#Gradient_2)" stroke="none" d="
M 286.8 48.75
Q 237.55 0 168 0 98.4 0 49.2 48.75 0 97.55 0 166.5 -0.0013671875 235.4541015625 46.35 279.25 92.7615234375 323.0349609375 162.75 325.15 232.78828125 327.26484375 284.4 281.35 336.001171875 235.445703125 336 166.5 336 97.55 286.8 48.75 Z"/>
</g>

<g id="Duplicate_Items_Folder_Explosion03_2_Layer1_0_FILL">
<path fill="#413232" stroke="none" d="
M 267.3 -3.2
Q 268.55 -4 270.75 -4 278.25 -4 282.4 3.6 285.5 9.25 285.5 15 285.5 22.95 277.6 27.2 274.8 28.7 269.5 30.55 261 33.5 260.25 33.8 248.55 38.25 242.85 45.1 234.95 54.65 234.95 71.6 234.95 74.55 235.9 80.1 236.9 85.75 238.05 89.2 242.15 86.5 246.35 84.65 250.2 83 251.8 83 264.5 83 271.75 93.75 277.75 102.65 277.75 114.2 277.75 128.3 270.2 140.95 261.05 156.25 246.35 156.25 242.1 156.25 239.45 153.1 237.7 151 236.5 147.15 233.5 148.85 227.05 149.35 226.8 149.35 226.6 149.4 221.1 143 214.85 139.15 203.05 131.85 185.35 131.85 173.75 131.85 161.75 141.5 149.65 151.2 149.5 160.9
L 148.75 161.1
Q 147.95 161.5 147.95 162.45 145.95 158.75 139.2 155.4 132.05 151.8 125.65 151.8 102.8 151.8 91.35 176.3 87.4 184.8 85.35 195.2 83.8 202.9 83.8 208.2 83.8 215.8 87.7 226.4 89.9 232.5 94.45 241.9 89.1 239.3 86.45 243.85 85 246.25 83.8 251 84.3 242.6 79.6 233.75 75.05 225.2 66.75 218 58.35 210.75 48.1 206.55 37.25 202.15 26.45 202.15 11.8 202.15 -0.9 212.15 -14.2 222.6 -14.05 235.7
L -14.05 237.25
Q -16.8 237.25 -22.4 235.05 -28.05 232.8 -31.65 232.8 -52.65 232.8 -62.6 248.8 -70.25 261.15 -71.95 284.7 -75 282.8 -80.7 277.3 -88.3 270.05 -91.15 267.65 -105.4 255.65 -119.2 255.65 -126.75 255.65 -135.3 259.05 -143.25 262.2 -149 267.15 -149.3 268.3 -149.8 269.4
L -149.8 267.85
Q -149.4 267.5 -149 267.15 -147.6 262.05 -149.4 255.05 -151.45 247.05 -156.95 239.05 -162.5 230.95 -169.5 226 -177.05 220.6 -184.1 220.6 -185.9 220.6 -191.8 222.85 -197.65 225.05 -203.1 225.05 -205.6 206.7 -211.65 200.05 -218 193.05 -233.15 193.05 -244.5 193.05 -251.8 197.25 -256.4 199.9 -263.75 206.6 -267.95 210.4 -273 215.5 -271.75 213.85 -270.25 211.05 -270.2 210.95 -270.15 210.9 -268.55 207.8 -266.7 203.45 -265.15 199.75 -264 196.35 -267.25 203.95 -273.3 209.3 -280.7 215.95 -288.75 215.95 -293.05 215.95 -297.8 209.75 -302.5 203.6 -302.5 198.3 -302.5 184.65 -293.35 171.6 -284.1 158.4 -271 156.55 -273.45 154.05 -276.5 151.85 -281.8 148.05 -288.1 145.8 -293.05 144.05 -295.7 144.05 -300.15 144.05 -304.15 146.4 -308.2 148.7 -311.6 148.7 -312.05 140.1 -321.05 133.7 -329.85 127.4 -340.65 127.4 -357.25 127.4 -367.95 132.85 -376.2 137.1 -403.25 157.8 -416.85 168.35 -418.75 179.75 -419.35 183.45 -418.95 189 -418.45 195.55 -418.55 197.5 -422.25 194.9 -426.95 196.3 -431.3 197.55 -435.35 201.9 -444.5 211.65 -444.5 225.05 -444.5 234.8 -439.15 244 -434.25 252.35 -426 258.55 -418.1 264.5 -409.55 266.65 -400.7 268.9 -394.15 266.3 -394.15 280.65 -386.8 290.55 -377.65 302.9 -359.85 302.9 -352.25 302.9 -341.85 297.6 -331.5 292.25 -325.35 292.25 -324.6 301.1 -318.9 310.65 -313.05 320.5 -303.4 328.5 -280.8 347.3 -250.55 347.3 -243.45 347.3 -227.35 343.8 -213.15 340.7 -210.85 339.55 -206.35 356.35 -202.95 361.85 -202.15 363.15 -201.25 364.25 -195.35 371.7 -184.9 371.7 -180.25 371.7 -170 364.25 -168.9 363.45 -167.7 362.55 -157 354.45 -154.25 350.4 -152.25 350.4 -148 352.05 -142.5 354.4 -139.2 355.75 -126.15 361.05 -116.9 361.05 -103.1 361.05 -89.6 347 -85.55 342.8 -80.6 336.2 -75.75 329.8 -74.85 328.9 -74.85 330.05 -77.15 337.8 -79.5 346.9 -79.5 354.85 -79.5 359.8 -78.8 364.25 -75.7 384.5 -58.3 394.6 -42.4 403.85 -16.35 403.85 7.1 403.85 18.2 396.35 29.35 388.8 37.9 367.05 42.1 373.6 46.85 376.5 56.35 382.35 74.5 382.35 100.55 382.35 115.8 370.15 119.25 367.4 121.9 364.25 131.1 353.3 131.1 337.2 131.1 327.3 130.6 325.7 129.25 321.5 121.95 316.7 127.05 312.25 129 309.75 132.65 305 132.65 299.8 132.65 296 128.2 289.3
L 128.2 289.25
Q 127.25 287.85 126.15 286.35 123.4 283 121.7 280.85 119.3 278.9 117.3 276.95
L 118.85 276.95
Q 119.15 277.6 121.7 280.85 125.8 284.15 131 287.25 144.5 295.35 156.25 295.35 165.95 295.35 172.05 292 178.1 288.7 178.55 283.15 180.1 293.6 190.55 297.8 199.8 301.55 219.6 301.55 263.3 301.55 284 283.25 299.25 269.7 299.25 250.2 299.25 228.7 286.8 215.7 281.05 214.55 274.9 212.7 261.75 208.75 248.7 202.15
L 253.35 202.15
Q 272.8 202.15 285.55 214.4 286.2 215 286.8 215.7 296.15 217.5 304.5 217.5 314.85 217.5 326.05 208.65 336.65 200.2 337.4 193.05
L 337.4 191.5
Q 338.55 192.65 342.55 193.65 346.45 194.6 349.45 194.6 360.45 194.6 372.65 188 383.85 181.95 393.85 171.6 403.5 161.65 409.3 150.65 415.3 139.3 415.3 130.3 415.3 109.45 394 94.2 381.9 85.55 364.75 79.9 368.1 76.6 371.9 66.75 375.6 57.35 375.6 53.2 375.6 38.3 365.35 25.05 355.45 12.25 341.9 8.25 335.65 6.35 330.6 1.25 328.8 -0.55 322.7 -8.5 318.05 -14.5 314.1 -17.15 308.4 -20.85 300.6 -20.85 289.2 -20.85 279.65 -17 267.2 -12 265.55 -2.45 266.05 -2.45 267.3 -3.2
M 142.65 -15.15
L 144 -10
Q 159.6 -13.95 171.3 -18.05 209.95 -31.45 224.25 -51.45 229.75 -59.15 234.95 -61.4 236.85 -62.2 242.35 -64.2 248.3 -66.55 254.9 -69.85 276.9 -81 283.7 -91.6 288.4 -98.9 288.4 -113 288.4 -129.95 276.2 -138.2 267.1 -144.4 254.7 -144.4 250.45 -144.4 241.15 -141.3 241.25 -141.85 244.4 -146.5 247.35 -150.85 247.35 -154.3 247.35 -162.95 241.2 -165.7 237.7 -167.25 228.9 -167.25 212.25 -167.25 198.65 -160.6 186.5 -154.7 178.55 -144.4 188.25 -144.7 194.85 -140.9 201.4 -137.15 201.4 -131.4 201.4 -130.05 201.25 -129 202.1 -128.4 202.95 -127.6 207.6 -123.3 207.6 -117.65 207.6 -108.55 188.25 -85.8 187.35 -84.75 186.5 -83.7 181.05 -77.45 174.6 -70.7 171.3 -67.2 167.7 -63.65
L 167.7 -62.1
Q 183.95 -72.9 192.85 -78.15 197.25 -80.8 199.85 -82.05
L 199.85 -71.2
Q 191.8 -49.05 164.1 -29 155.45 -22.75 142.65 -15.15
M -338.6 -87.7
Q -341.95 -92.7 -347.65 -92.7 -360.55 -92.7 -369.75 -82.05 -378.85 -71.65 -378.85 -57.65 -378.85 -51.75 -375.9 -44.25 -372.8 -36.45 -372.8 -36.15
L -372.8 -34.6
Q -374.05 -36.4 -378.9 -39.4 -383.65 -42.35 -385.05 -42.35 -390.8 -42.35 -394.2 -37.6 -397.25 -33.3 -397.25 -27.05 -397.25 -25.15 -395.55 -20.35 -395.7 -18.85 -395.7 -15.6 -395.7 -6.7 -392.4 1.2 -389.25 8.9 -383 15.65 -373.15 26.3 -354.4 35.75
L -343.75 35.75
Q -344.7 34.4 -349.1 29 -353.25 24 -355.55 20.55 -362.9 9.25 -360.6 0.5 -359.4 1.1 -353.4 5.3 -351.2 6.85 -348.3 8.95 -337.65 16.6 -336 17.35 -336.75 16.1 -348 -2.35 -353.05 -10.55 -355 -14.95 -357.4 -20.35 -358.25 -26.35 -359.05 -32 -359.05 -42.35 -359.05 -57.5 -352 -64.2 -348.85 -67.15 -342.95 -70.05 -340.8 -71.15 -330 -75.85 -332.85 -78.7 -335.25 -82.3 -336.55 -84.35 -338.6 -87.7
M -428.85 -21
Q -434.55 -29.95 -440.85 -29.95 -459.4 -29.95 -468.5 -19.95 -477.3 -10.3 -478.2 9.8 -483.85 6.5 -489.6 8.25 -494.85 9.85 -499.3 15.35 -508.65 26.8 -508.65 43.3 -508.65 57.2 -502.5 63.05 -500.05 65.45 -495.75 67.4 -495.45 67.5 -487.35 70.8 -487.35 71 -490.45 80 -493.55 89.35 -493.55 91.35 -493.55 109.2 -481.4 118.15 -473 124.3 -463.7 124.3 -461.1 124.3 -456.5 123.35 -454.05 122.8 -447.6 121.2 -443.3 131 -441.6 134.2 -439.3 138.55 -437.2 139.95 -435.3 141.25 -431.7 141.35 -426.4 141.15 -422.4 141.15 -407.25 141.15 -398.9 134.5 -395.85 132.05 -392.35 127.65 -398.85 124.8 -402.3 119.35 -406.35 112.9 -406.35 102 -406.35 93.55 -400.35 89.25 -395.95 86.1 -390.45 86.1 -386.6 86.1 -384 88.35 -381.6 90.4 -377.9 90.55 -380.35 83.45 -375.1 76.85 -369 69.1 -357.5 69.25 -356.9 61.75 -364.65 52.8 -372.85 43.3 -381.95 43.3 -383.85 43.3 -386.6 44.85 -389.3 46.4 -391.25 46.4 -393.95 46.4 -396.1 44.25 -397.4 42.95 -400 39.55 -405.85 32.65 -417 32.65 -418 27.05 -412.95 18.85 -407.4 9.8 -400.35 9.8 -395.95 9.8 -392.6 12.7 -393.8 7.2 -395.8 2.8 -397.85 -1.6 -400.75 -4.9 -406.75 -11.75 -414.85 -11.75 -416.6 -11.75 -419.05 -10.7 -422.1 -9.45 -424.75 -7.1 -423.5 -12.5 -428.85 -21 Z"/>
</g>

<g id="Duplicate_Items_Folder_Symbol_1_1_Layer0_0_FILL">
<path fill="#FFCC00" stroke="none" d="
M 119.35 -29.25
Q 114.35 -26.1 103.2 -18.15 88.25 -7.35 85.05 -5 83.6 -3.9 83 -2.35 82.3 -0.65 83.6 -0.1 90.25 -1.25 97.9 -4.45 102.75 -6.45 111.4 -10.85 127.05 -18.75 134.45 -22 147.45 -27.8 158.45 -30.6 165.2 -32.45 173.15 -33.5 177.05 -33.9 178.95 -34.3 182.1 -34.9 184.4 -36.15 187.8 -38.05 189.65 -41.6 191.5 -45.25 190.9 -49 190.4 -52.8 187.5 -55.65 184.55 -58.5 180.7 -58.8 177.9 -59.05 174.65 -57.95 172.3 -57.2 168.9 -55.35
L 140.7 -41.05
Q 125.6 -33.25 119.35 -29.25 Z"/>
</g>
</defs>

<g transform="matrix( 0.5390167236328125, 0, 0, 0.5390167236328125, 315.9,272.65) ">
<g transform="matrix( 0.7045135498046875, 0, 0, 1.1033782958984375, -422.8,-264.85) ">
<g transform="matrix( 1.121002197265625, 0, 0, 1.10394287109375, 0,0) ">
<g transform="matrix( 1, 0, 0, 1, 0,0) ">
<use filter="url(#Filter_1)" xlink:href="#Duplicate_Items_Folder_Symbol_2_0_Layer0_0_FILL"/>
</g>
</g>

<g transform="matrix( 1, 0, 0, 1, 61.4,29.5) ">
<g transform="matrix( 1, 0, 0, 1, 0,0) ">
<use xlink:href="#Duplicate_Items_Folder_Symbol_2_0_Layer0_0_FILL"/>
</g>
</g>
</g>

<g transform="matrix( 1.798431396484375, 0, 0, 1.854949951171875, -315.1,-209.85) ">
<g transform="matrix( 1, 0, 0, 1, 0,0) ">
<use xlink:href="#Duplicate_Items_Folder_exploscircle03_0_Layer0_0_FILL"/>
</g>
</g>

<g transform="matrix( 2.159027099609375, 0, 0, 2.159027099609375, -369.6,-251.65) ">
<g transform="matrix( 1, 0, 0, 1, 0,0) ">
<use filter="url(#Filter_2)" xlink:href="#Duplicate_Items_Folder_exploscircle03_0_Layer0_0_FILL"/>
</g>
</g>

<g transform="matrix( 1, 0, 0, 1, 0,0) ">
<use xlink:href="#Duplicate_Items_Folder_Explosion03_2_Layer1_0_FILL"/>
</g>

<g transform="matrix( 1, 0, 0, 1, 141.85,-104.25) ">
<g transform="matrix( 1, 0, 0, 1, 0,0) ">
<use xlink:href="#Duplicate_Items_Folder_Symbol_1_1_Layer0_0_FILL"/>
</g>
</g>

<g transform="matrix( -1, 0, 0, 1, -163.9,-87.9) ">
<g transform="matrix( 1, 0, 0, 1, 0,0) ">
<use xlink:href="#Duplicate_Items_Folder_Symbol_1_1_Layer0_0_FILL"/>
</g>
</g>

<g transform="matrix( 0.8850555419921875, 0.465484619140625, -0.465484619140625, 0.8850555419921875, 190.25,69.4) ">
<g transform="matrix( 1, 0, 0, 1, 0,0) ">
<use xlink:href="#Duplicate_Items_Folder_Symbol_1_1_Layer0_0_FILL"/>
</g>
</g>

<g transform="matrix( -0.73504638671875, -0.678009033203125, -0.678009033203125, 0.73504638671875, -10.65,-53.6) ">
<g transform="matrix( 1, 0, 0, 1, 0,0) ">
<use xlink:href="#Duplicate_Items_Folder_Symbol_1_1_Layer0_0_FILL"/>
</g>
</g>

<g transform="matrix( -0.4403533935546875, -0.2989044189453125, -0.2989044189453125, 0.4403533935546875, -187.8,131.6) ">
<g transform="matrix( 1, 0, 0, 1, 0,0) ">
<use xlink:href="#Duplicate_Items_Folder_Symbol_1_1_Layer0_0_FILL"/>
</g>
</g>

<g transform="matrix( -0.633819580078125, 0, 0, 0.633819580078125, -152.15,-15) ">
<g transform="matrix( 1, 0, 0, 1, 0,0) ">
<use xlink:href="#Duplicate_Items_Folder_Symbol_1_1_Layer0_0_FILL"/>
</g>
</g>

<g transform="matrix( 0.7260284423828125, -0.211334228515625, 0.211334228515625, 0.7260284423828125, 51.9,-20.3) ">
<g transform="matrix( 1, 0, 0, 1, 0,0) ">
<use xlink:href="#Duplicate_Items_Folder_Symbol_1_1_Layer0_0_FILL"/>
</g>
</g>

<g transform="matrix( -0.8850555419921875, 0.465484619140625, 0.465484619140625, 0.8850555419921875, -209.75,127.8) ">
<g transform="matrix( 1, 0, 0, 1, 0,0) ">
<use xlink:href="#Duplicate_Items_Folder_Symbol_1_1_Layer0_0_FILL"/>
</g>
</g>

<g transform="matrix( 0.73504638671875, -0.678009033203125, 0.678009033203125, 0.73504638671875, -8.85,4.8) ">
<g transform="matrix( 1, 0, 0, 1, 0,0) ">
<use xlink:href="#Duplicate_Items_Folder_Symbol_1_1_Layer0_0_FILL"/>
</g>
</g>

<g transform="matrix( 0.411865234375, 0.3053131103515625, -0.3053131103515625, 0.411865234375, 168.25,190) ">
<g transform="matrix( 1, 0, 0, 1, 0,0) ">
<use xlink:href="#Duplicate_Items_Folder_Symbol_1_1_Layer0_0_FILL"/>
</g>
</g>
</g>
</svg>
