
<svg xmlns="http://www.w3.org/2000/svg" version="1.1" xmlns:xlink="http://www.w3.org/1999/xlink" preserveAspectRatio="none" x="0px" y="0px" width="625px" height="600px" viewBox="0 0 625 600">
<defs>
<radialGradient id="Gradient_1" gradientUnits="userSpaceOnUse" cx="0" cy="0" r="535.1" fx="0" fy="0" gradientTransform="matrix( 1, 0, 0, 1, 484.9,254.6) " spreadMethod="pad">
<stop  offset="0.39215686274509803%" stop-color="#FFE000"/>

<stop  offset="53.333333333333336%" stop-color="#FF8C00"/>

<stop  offset="100%" stop-color="#FF0000"/>
</radialGradient>

<radialGradient id="Gradient_2" gradientUnits="userSpaceOnUse" cx="0" cy="0" r="270.75" fx="0" fy="0" gradientTransform="matrix( 1, 0, 0, 0.9764081255771008, 155.55,262.45) " spreadMethod="pad">
<stop  offset="43.529411764705884%" stop-color="#FFFFFF"/>

<stop  offset="72.94117647058823%" stop-color="#FFCC00"/>

<stop  offset="99.2156862745098%" stop-color="#FF5400"/>
</radialGradient>

<filter id="Filter_1" x="-20%" y="-20%" width="140%" height="140%" color-interpolation-filters="sRGB">
<feColorMatrix in="SourceGraphic" type="matrix" values="1 0 0 0 0 0 1 0 0 0 0 0 1 0 0 0 0 0 0.35 0" result="result1"/>
</filter>

<filter id="Filter_2" x="-20%" y="-20%" width="140%" height="140%" color-interpolation-filters="sRGB">
<feColorMatrix in="SourceGraphic" type="matrix" values="1 0 0 0 0 0 1 0 0 0 0 0 1 0 0 0 0 0 0.17 0" result="result1"/>
</filter>

<g id="Duplicate_Items_Folder_Symbol_2_0_Layer0_0_FILL">
<path fill="url(#Gradient_1)" stroke="none" d="
M 1000.9 203.05
L 1000.9 199.95
Q 985.05 199.95 952 205.95 919 211.95 908.65 211.95 879.35 211.95 874.5 209.3 871.8 207.8 871.45 204.25 871.45 199.1 871.45 195.3 871.45 185.8 877.5 170.35 883.7 154.5 883.85 150.35
L 883.85 147.6
Q 879.4 150.9 868.6 156.45 855.95 162.75 850.15 165.85
L 828.45 165.85
Q 834.85 152.8 853.5 127.5 864.1 113.15 886.95 82.5 882.3 82.5 868.2 86.85 849.45 92.95 838.45 96.45 794.45 110.4 773.05 110.4 757.15 110.4 751.7 107.4 745.5 103.95 745.5 93.35 745.5 80.9 757.6 59.5 760.6 54.1 765.95 44.7 769.8 37.35 769.95 33.75 766.7 33.75 749.7 39.95 732.75 46.15 726.9 46.15
L 726.9 27.55
Q 729.4 20.35 731.15 12.75 733.1 4.4 733.1 0 731.25 0.7 717.3 11.85 699.35 26.15 686.95 34.85 640.75 67.4 612.6 67.4 601.05 67.4 594.85 62 589.5 57.3 587.1 47.6 585.55 41.2 584.5 27.05 583.2 10.55 582 3.1 566.25 18.9 565.45 19.7 550.95 33.75 537.7 44.4 497.65 76.7 471.6 76.7 459.2 76.7 429.6 53 412.1 38.95 400.7 27.55 403.5 51.4 397.25 63.15 390 76.7 369.7 76.7 363 76.7 347.55 67.65 326.15 55.1 321.55 52.55 323.7 58.95 324.7 63.2 326.65 71.5 326.65 79.8 310.05 80.8 275.1 64.9 256.55 56.5 231.35 43.05
L 228.25 43.05
Q 245.8 58.8 257.2 70.85 278.95 93.75 277.45 104.2 264.65 110.4 175.55 116.6 181.25 117.5 187.8 120.9 196.8 125.5 200.35 132.1
L 163.55 132.1
Q 162.65 131.9 140.05 127.45 125.8 124.65 123.25 122.8
L 120.15 122.8
Q 146 133.6 163.95 143.65 198.05 162.8 203.45 181.35 193.4 181.35 171.1 186.1 148.15 191 148.05 193.75 148.05 189.05 143 190.85 142.15 191.15 138.9 192.65 136.55 193.75 135.65 193.75 138.75 196.65 144.95 202.85 151.15 209.05 154.25 211.95 152.35 211.95 143.6 215.85 143.15 216.05 142.7 216.25 141.15 216.35 139.65 216.4 91.35 218.55 74 218.55 76.1 219.5 107.8 231.85 136.65 243.1 141.85 246.05 138.6 253.2 127 258.65 123.8 260.15 117.2 262.95 111.4 265.5 108.1 267.75
L 105.2 267.75
Q 108.55 267.85 119.05 271.45 131.6 275.7 135.65 279.75 128.9 293.5 72.65 326.8 49.9 340.2 29.3 350.55 8.35 361.05 0 363.05
L 0 366.15
Q 19.8 363.05 41.65 359.95 85.35 353.75 110.85 353.75 149.9 353.75 172.75 366.3 181.8 371.25 186.7 377.45 191.05 382.95 191.05 387.85 191.05 394.35 185.8 405.45 182.3 412.8 174.2 426.45 165.25 441.55 162.6 446.65 157.35 456.9 157.35 461.9 159.1 461.8 184.6 455.55 209.3 449.5 217.4 449.5 231.85 449.5 234.35 455.7 235.2 457.85 234.95 461.6 234.8 463.65 234.45 467.7 234.45 482.7 215.9 528.85 204.35 557.55 194.15 578.9 206.9 569 233.65 546.3 258.55 525.15 271.55 515.35 292.05 499.9 308.15 492.25 327.25 483.2 343.7 483.2 352.85 483.2 357.95 490.9 361.5 496.2 364.2 507.8 367.5 521.9 368.65 524.7 371.75 532.4 377.45 532.4 382.7 532.4 390.05 528.6 394.15 526.45 403.65 520.2 412.7 514.2 417.6 511.8 425.35 508 431.3 508 438.7 508 452.55 545.05 457.7 558.75 461.65 572.25 465.4 585 465.4 588.2 470.05 577.9 473.7 570.25 480.6 555.85 486.9 545.55 506.1 514.2 523.5 514.2 531.5 514.2 570.95 545.65 579.05 552.1 599.2 568.6 613.3 580.15 616.1 582 615.9 574.85 614.1 560.5 611.8 541.75 611.65 533.25 611.4 518.55 615.55 511 620.65 501.8 632.75 501.8 634.9 501.8 655.8 513.55 657.75 514.65 701.75 539.9 770 579 782.35 582 776.75 576.4 768.1 560.5 760.05 545.65 751.9 526.7 733.1 482.75 733.1 466.15 733.1 450.9 743.9 443.9 753.25 437.85 772.9 436.9 785.9 436.3 815.2 438.05 849.6 440.1 865.65 440.2
L 868.75 440.2
Q 854.8 437.9 840.85 421.6 846.35 416.1 867.8 413.65 882.95 411.95 912.8 411.35 953.05 410.55 958.85 410.3 981.8 409.25 988.85 406.1 950.1 394.85 918.8 376.75 883.85 356.6 883.85 341.35 883.85 332.1 929 305.3 969.85 281.05 1019.5 258.45 1004.05 259.2 992.3 261.85 985.35 263.4 974.75 267.05 964.6 270.55 958.35 271.85 948.1 273.95 934.6 273.95 927.35 273.95 924.55 273.5 920.05 272.8 917.95 270.45 919.4 261.05 930.75 250.7 939.35 242.9 955.8 232.85 965 227.2 982.65 216.9 996.55 208.4 1000.9 203.05 Z"/>
</g>

<g id="Duplicate_Items_Folder_exploscircle03_0_Layer0_0_FILL">
<path fill="url(#Gradient_2)" stroke="none" d="
M 286.8 48.75
Q 237.55 0 168 0 98.4 0 49.2 48.75 0 97.55 0 166.5 -0.0013671875 235.4541015625 46.35 279.25 92.7615234375 323.0349609375 162.75 325.15 232.78828125 327.26484375 284.4 281.35 336.001171875 235.445703125 336 166.5 336 97.55 286.8 48.75 Z"/>
</g>

<g id="Duplicate_Items_Folder_Explosion03_3_Layer1_0_FILL">
<path fill="#413232" stroke="none" d="
M -491.05 -46.7
Q -497.3 -39.9 -500.5 -33.2 -503.95 -25.85 -502.65 -20.85
L -503.4 -20.65
Q -504 -20.35 -504.15 -19.7 -503.85 -23.8 -507.75 -27 -511.35 -29.95 -514.85 -29.95 -529 -29.95 -537.75 -19.25 -547 -7.95 -547 11.9 -547 29.1 -540.45 40.4 -534.85 50.1 -525.5 53.95 -531.2 56.6 -532.5 60.25 -533.25 62.3 -533.25 70.05 -533.25 87.5 -520.25 98 -507.45 108.3 -492 104.35 -488.8 111 -479.15 115.6 -470.75 119.65 -463.7 119.65 -458.15 119.65 -453.1 118.6 -444.75 116.85 -437.75 112.25 -433.75 109.4 -431.2 107.6 -431.85 108.8 -432.4 110.05 -433.2 111.95 -433.75 113.75 -436.1 121.25 -433.85 127.4 -436.55 125.75 -438.85 123.85 -440.75 122.75 -446.25 122.75 -449.3 122.75 -452.2 123.2 -469.6 125.8 -481.35 144.15 -493.55 163.1 -493.55 186.85 -493.55 223.4 -466 242.65 -455.75 249.8 -442.8 253.7 -440.3 254.45 -437.85 255.05 -436.8 261.25 -433.8 267.55 -429.35 276.95 -421.6 284.75 -413.9 292.5 -404.65 296.95 -395.05 301.55 -385.8 301.55 -371.2 301.55 -358.8 295 -354.65 292.85 -347.45 288.15 -338.5 282.35 -334.65 280.05 -335.75 282.55 -336.6 286.25 -337.55 290.3 -337.55 293.05 -337.55 309.15 -331.35 324.35 -325.35 338.9 -314.65 350.4 -307 358.65 -297.85 364.25 -294.3 366.4 -290.55 368.2 -276.6 374.8 -262 374.8 -249.45 374.8 -237.95 370.05 -230.95 366.65 -225.25 364.25 -220.6 362.3 -216.85 361.05 -216.45 362.7 -216 364.25 -212.95 374.45 -206.15 380.2 -198 387 -184.9 387 -172.5 387 -166.35 383.4 -163.55 381.7 -159.7 378.2 -154.6 373.35 -151.15 370.15 -150.8 370.15 -150.45 369.95 -149.8 369.55 -149.8 368.6 -143.6 374.8 -137.2 382.45 -132.3 387 -123.85 387 -114.2 387 -97 374 -91.5 369.85 -85.05 364.25
L -85 364.2
Q -80.3 360 -78.6 358.5 -78.3 357.4 -77.95 356.4
L -77.95 357.95
Q -78.2 358.15 -78.6 358.5 -79.35 361.1 -80 364.25 -80.05 364.5 -80.1 364.75 -81.05 369.65 -81.05 372.5 -81.05 388.8 -64.4 400.7 -47.25 412.95 -22.55 412.95 7.25 412.95 28.2 399.95 49.85 386.55 48.55 367.05 49.45 369.8 56.85 373 64.45 376.35 70.65 376.35 86.2 376.35 101.9 370.9 109.95 368.05 116.9 364.25 122.55 361.1 127.5 357.3 138.5 348.85 142.15 339.9 145.6 331.4 141.55 324.6 141 324.55 140.4 324.45
L 140.4 322.9
Q 141.05 323.75 141.55 324.6 147.85 325 153 317.1 158.5 308.65 155.5 302.9 156 303.15 160.85 306 164.65 308.2 168.2 309.55 179.25 313.75 197.55 313.75 274.5 313.75 300.65 287.85 309.95 278.6 312.85 265.85 314.35 259.35 314.35 247.1 314.35 234.2 311.05 227.15 307.55 219.8 297.9 213 297.1896484375 212.866796875 296.5 212.85
L 297.7 212.85
Q 297.8 212.9 297.9 213 300.65 213.4 303.65 215.2 307.55 217.5 313.6 217.5 326.15 217.5 331.1 213.8 335.7 210.3 338.95 199.05
L 339.75 198.85
Q 340.5 198.45 340.5 197.5 343.6 201.25 349.25 202.7 353.05 203.7 358.75 203.7 373.75 203.7 387.9 196.65 401.5 189.9 412.2 177.75 422.9 165.7 428.85 150.45 435.05 134.65 435.05 118.1 435.05 89.65 421.35 70.85 415.4 62.75 408 58.3 400.85 53.95 393.8 53.95 391.05 53.95 388.4 54.9 388.3 54.95 388.2 55 386.65 56.65 384.7 58.6
L 384.7 57.05
Q 385.9 55.85 388.2 55 393.8 48.9 394.75 45.8 395.45 43.5 395.45 39.35 395.35 33.3 395.35 28.75 395.35 7.1 389.35 -3.9 382.65 -16.2 367.85 -16.2 362.45 -16.2 351.9 -10.3 345.25 -6.6 342.85 -4.75 342.4 -3.4 341.9 -2.45
L 341.9 -4
Q 342.25 -4.35 342.85 -4.75 343.45 -6.7 344.05 -9.5 345 -14.2 345 -17.15 345 -27.8 337.5 -34.55 330.6 -40.8 321.15 -40.8 318.05 -40.8 316.55 -40.35 314.7 -39.75 313.35 -38.1 314.25 -39.35 314.95 -41.75 315.9 -44.8 315.9 -47.55 315.9 -58.35 305.3 -65.2 296 -71.2 284.55 -71.2 274.1 -71.2 265.65 -68.2 270.45 -72.65 276.25 -77.25 287.75 -86.4 289.85 -88.3 296.1 -94.15 298.85 -100.35 302.15 -107.7 302.15 -118.45 302.15 -135.15 292.25 -142.1 287.9 -145.1 280.25 -147.55 276.3 -148.85 264 -151.95 265 -152.8 267.45 -156.5 270.2 -160.65 270.2 -162.05 270.2 -172.1 262.45 -176.4 257 -179.45 247.9 -179.45 237.15 -179.45 226.3 -176.1 214.25 -172.45 212.05 -167.25 222.85 -163.35 226.9 -161.35 231.85 -158.95 233.55 -156.3 235.05 -153.9 235.15 -149.25 234.95 -142.5 234.95 -137.45 234.95 -123.9 232.55 -115.1 230.1 -105.95 224.1 -98.35 222.75 -96.6 221.05 -94.7 219.75 -93.35 218.25 -91.85 213.85 -87.55 207.7 -82.7 200.1 -76.65 181.45 -63.65 201.1 -66.25 222.35 -87.75 223.75 -89.15 225.2 -90.65 225.25 -90.75 225.3 -90.8 226.15 -91.7 227 -92.65 232.25 -98.35 237.05 -104.65 240.4 -109.1 243.6 -113.85 243.75 -114.1 243.95 -114.3 245.8 -100.6 245.8 -97.15 245.8 -95 245.15 -91.85
L 241.95 -92.4
Q 242.7 -87.4 242.7 -85.95 242.7 -84.55 242.65 -83.1
L 242.7 -83.1 242.7 -83.05
Q 242.65 -82.95 242.6 -82.8 241.35 -63.7 225.2 -41.75 206.45 -16.35 170.8 8.25 186.45 9.3 223.05 -24.85 230.7 -31.95 238.2 -39.5 236.5 -33.65 236.5 -27.05 236.5 -17.5 241.15 -11.7 245.5 -6.25 252.95 -5.6 253.9 -5.55 254.9 -5.55 267.3 -5.55 272.95 -12.35 277 -17.2 280.85 -31.5 283.55 -28.8 287.6 -22.65 293.05 -14.4 293.05 -10.2 293.05 -7.35 290 -0.2 288.35 3.7 285.5 9.8 276.85 6.95 266.8 1.6 262.45 -0.7 254.8 -1 253.7 -1.05 252.55 -1.05 240.95 -1.05 234.2 2.95 226.5 7.45 218.25 20.45
L 218.25 21.8
Q 222 20.65 226.05 19.85 230.7 18.9 233.4 18.9 245 18.9 253.35 26.45 262.45 34.6 262.45 47.75 262.45 50.15 261.5 52.9 260.9 54.55 259.35 58.6 275.75 60.2 287.45 72.65 297.7 83.55 297.7 93.65 297.7 97.95 295.8 104.85 293.6 112.8 289.95 119.65 280.15 138.05 265.55 138.05 260.65 138.05 257.05 132.1 256.5 131.2 250.95 118.95 246.9 110.05 242.4 105.8 236.1 99.85 226.6 99.85 204.2 99.85 189.25 116.75 175.45 132.35 175.45 152.4 175.45 154.95 176.4 156.75 177 157.8 178.5 159.3 177.45 158.3 174.75 158 173.1 157.8 169.25 157.8 149.4 157.8 138.2 171.15 133.4 176.85 131.45 183.6 117.65 163.2 102.05 152.8 84.25 140.95 61.5 140.95 38.2 140.95 22.45 157.9 7.8 173.65 1.25 202.15 -1.75 192.65 -6.1 190.75 -8 189.95 -11.4 189.85 -15.85 189.95 -18.7 189.95 -26.05 189.95 -35.35 196.95 -44.05 203.5 -52.2 214.4 -60.3 225.25 -65.2 236.8 -70.4 249.15 -70.4 258.75 -70.4 260.6 -70.4 262.2 -76.9 259.25 -82.95 256.6 -102.95 247.9 -110.1 247.9 -115.5 247.9 -124.65 253.3 -131.75 257.5 -134.5 260.3
L -136.05 260.3
Q -134.9 258 -133.9 253.25 -132.95 248.55 -132.95 245.55 -132.95 230.7 -142.1 222.2 -150.5 214.4 -163.55 214.4 -175.35 214.4 -176.6 214.8 -178.55 215.45 -188 220.6 -183.8 211.5 -181.95 206.95 -178.7 199 -178.7 189.95 -178.7 167.4 -195.55 153.3 -210.35 140.95 -229.25 140.95 -259.7 140.95 -278.1 168.45 -285.6 179.65 -289.65 193.6 -292.75 204.1 -293.25 213.9 -295.9 215.7 -299.9 217.25 -308.6 220.6 -317 220.6 -330 220.6 -339.15 214.4 -352.85 205.05 -352.85 183.75 -352.85 162.95 -342.25 147.2 -329.85 128.75 -308.7 128.75 -305.5 128.75 -302.55 129.1 -303.65 127.4 -304.75 125.9
L -304.8 125.85
Q -304.85 125.75 -304.9 125.7 -310 118.85 -315.65 115.65 -321.75 112.15 -330.7 111.15 -336.2 110.55 -349.75 110.55 -348.85 109.5 -348.55 107.15 -348.4 105.7 -348.4 102 -348.4 89.75 -359.1 81.55 -369.05 73.9 -382.1 73.9 -390.9 73.9 -401.4 79.25 -411.45 84.35 -419.9 92.65 -424.8 97.45 -428.15 102.4 -428.6 100.35 -428.85 98.6 -429.2 96 -429.2 92.1 -429.2 76.75 -415.45 64.7 -409.85 59.7 -403.3 56.8 -397 53.95 -392 53.95 -390 53.95 -385.9 54.75 -381.85 55.5 -380.4 55.5
L -378.85 57.05
Q -392.45 41.95 -393.55 41.05 -398.35 37.1 -407.1 37.1 -409.95 37.1 -414.85 38.05 -419.6 39 -423.2 40.2 -419.65 29.65 -426.15 20.45 -430.3 14.65 -436.1 12.55 -435.85 5.1 -429.9 1.25 -424.15 -2.45 -414.1 -2.45 -411.35 -2.45 -407.15 0.3 -402.45 3.8 -400.35 5.15
L -400.35 -8.65
Q -400.45 -9.25 -400.55 -9.8 -392.2 -2.1 -383.5 2.05
L -381.95 2.05
Q -388.95 -12.75 -391.1 -17.8 -397.25 -32.25 -397.25 -37.7 -397.25 -39.8 -396.45 -41.05 -395.8 -42.05 -392.6 -45.25 -389.95 -43.25 -386.9 -42.15 -380.85 -28.3 -363.3 -11.75 -356.65 -5.5 -349.6 -0.05 -343.9 4.35 -342.2 5.15 -354.65 -3.5 -370.8 -37.35 -377.75 -51.95 -382.05 -64.95 -386.6 -78.7 -386.6 -85.95 -386.6 -105.5 -373.8 -117.3 -368.3 -122.4 -361.5 -124.7 -354.8 -126.95 -348.4 -126 -357.5 -164.15 -382.1 -164.15 -396.3 -164.15 -401.65 -154 -405.55 -146.55 -409.45 -120 -418.3 -119.75 -425.2 -109.7 -430.75 -101.55 -430.75 -96.4 -430.75 -95.75 -427.75 -85.5 -424.75 -75.3 -424.75 -75.1 -424.75 -74.8 -426.95 -69.6 -429.2 -63.75 -429.2 -59.95 -429.2 -48.25 -420.6 -34.2 -425.45 -35.05 -430.75 -33.05 -436.15 -52.25 -443.3 -57.6 -446.95 -60.35 -452.65 -61.3 -457.2 -62.1 -466 -62.1 -471.2 -62.1 -478.3 -57.6 -484.95 -53.4 -491.05 -46.7 Z"/>
</g>

<g id="Duplicate_Items_Folder_Symbol_1_2_Layer0_0_FILL">
<path fill="#FFCC00" stroke="none" d="
M 236.3 -53.3
Q 236.35 -58.5 232.65 -61.3 230.55 -62.85 227.6 -63.5 225.35 -63.95 222.05 -63.95 209.05 -64.15 196.4 -60.25 183.85 -56.3 173.15 -48.75 171.7 -47.7 171.25 -47.3 170.3 -46.4 169.85 -45.4 169.35 -44.25 169.5 -43.05 169.65 -41.75 170.5 -41.05 171.6 -40.2 173.45 -40.5 173.8 -40.55 176.75 -41.45 179.3 -42.2 183.65 -41.85 189.05 -41.45 190.75 -41.6 193.15 -41.85 197.8 -43.15 202.5 -44.1 210.1 -43.45 220.1 -42.6 222.45 -42.65 229.1 -42.65 232.5 -45.3 236.3 -48.05 236.3 -53.3 Z"/>
</g>
</defs>

<g transform="matrix( 0.5390167236328125, 0, 0, 0.5390167236328125, 315.9,272.65) ">
<g transform="matrix( 0.572601318359375, 0, 0, 0.572601318359375, -347.55,-92.8) ">
<g transform="matrix( 1.121002197265625, 0, 0, 1.10394287109375, 0,0) ">
<g transform="matrix( 1, 0, 0, 1, 0,0) ">
<use filter="url(#Filter_1)" xlink:href="#Duplicate_Items_Folder_Symbol_2_0_Layer0_0_FILL"/>
</g>
</g>

<g transform="matrix( 1, 0, 0, 1, 61.4,29.5) ">
<g transform="matrix( 1, 0, 0, 1, 0,0) ">
<use xlink:href="#Duplicate_Items_Folder_Symbol_2_0_Layer0_0_FILL"/>
</g>
</g>
</g>

<g transform="matrix( 2.0062103271484375, 0, 0, 2.074005126953125, -349.45,-255.25) ">
<g transform="matrix( 1, 0, 0, 1, 0,0) ">
<use xlink:href="#Duplicate_Items_Folder_exploscircle03_0_Layer0_0_FILL"/>
</g>
</g>

<g transform="matrix( 2.6742706298828125, 0, 0, 2.6742706298828125, -454.65,-360.5) ">
<g transform="matrix( 1, 0, 0, 1, 0,0) ">
<use filter="url(#Filter_2)" xlink:href="#Duplicate_Items_Folder_exploscircle03_0_Layer0_0_FILL"/>
</g>
</g>

<g transform="matrix( 1, 0, 0, 1, 0,0) ">
<use xlink:href="#Duplicate_Items_Folder_Explosion03_3_Layer1_0_FILL"/>
</g>

<g transform="matrix( 1, 0, 0, 1, 141.85,-104.25) ">
<g transform="matrix( 1, 0, 0, 1, 0,0) ">
<use xlink:href="#Duplicate_Items_Folder_Symbol_1_2_Layer0_0_FILL"/>
</g>
</g>

<g transform="matrix( -1, 0, 0, 1, -163.9,-87.9) ">
<g transform="matrix( 1, 0, 0, 1, 0,0) ">
<use xlink:href="#Duplicate_Items_Folder_Symbol_1_2_Layer0_0_FILL"/>
</g>
</g>

<g transform="matrix( 0.8850555419921875, 0.465484619140625, -0.465484619140625, 0.8850555419921875, 190.25,69.4) ">
<g transform="matrix( 1, 0, 0, 1, 0,0) ">
<use xlink:href="#Duplicate_Items_Folder_Symbol_1_2_Layer0_0_FILL"/>
</g>
</g>

<g transform="matrix( -0.73504638671875, -0.678009033203125, -0.678009033203125, 0.73504638671875, -10.65,-53.6) ">
<g transform="matrix( 1, 0, 0, 1, 0,0) ">
<use xlink:href="#Duplicate_Items_Folder_Symbol_1_2_Layer0_0_FILL"/>
</g>
</g>

<g transform="matrix( -0.4403533935546875, -0.2989044189453125, -0.2989044189453125, 0.4403533935546875, -187.8,131.6) ">
<g transform="matrix( 1, 0, 0, 1, 0,0) ">
<use xlink:href="#Duplicate_Items_Folder_Symbol_1_2_Layer0_0_FILL"/>
</g>
</g>

<g transform="matrix( -0.633819580078125, 0, 0, 0.633819580078125, -152.15,-15) ">
<g transform="matrix( 1, 0, 0, 1, 0,0) ">
<use xlink:href="#Duplicate_Items_Folder_Symbol_1_2_Layer0_0_FILL"/>
</g>
</g>

<g transform="matrix( 0.7260284423828125, -0.211334228515625, 0.211334228515625, 0.7260284423828125, 51.9,-20.3) ">
<g transform="matrix( 1, 0, 0, 1, 0,0) ">
<use xlink:href="#Duplicate_Items_Folder_Symbol_1_2_Layer0_0_FILL"/>
</g>
</g>

<g transform="matrix( -0.8850555419921875, 0.465484619140625, 0.465484619140625, 0.8850555419921875, -209.75,127.8) ">
<g transform="matrix( 1, 0, 0, 1, 0,0) ">
<use xlink:href="#Duplicate_Items_Folder_Symbol_1_2_Layer0_0_FILL"/>
</g>
</g>

<g transform="matrix( 0.73504638671875, -0.678009033203125, 0.678009033203125, 0.73504638671875, -8.85,4.8) ">
<g transform="matrix( 1, 0, 0, 1, 0,0) ">
<use xlink:href="#Duplicate_Items_Folder_Symbol_1_2_Layer0_0_FILL"/>
</g>
</g>

<g transform="matrix( 0.411865234375, 0.3053131103515625, -0.3053131103515625, 0.411865234375, 168.25,190) ">
<g transform="matrix( 1, 0, 0, 1, 0,0) ">
<use xlink:href="#Duplicate_Items_Folder_Symbol_1_2_Layer0_0_FILL"/>
</g>
</g>
</g>
</svg>
