
<svg xmlns="http://www.w3.org/2000/svg" version="1.1" xmlns:xlink="http://www.w3.org/1999/xlink" preserveAspectRatio="none" x="0px" y="0px" width="625px" height="600px" viewBox="0 0 625 600">
<defs>
<radialGradient id="Gradient_1" gradientUnits="userSpaceOnUse" cx="0" cy="0" r="270.75" fx="0" fy="0" gradientTransform="matrix( 1, 0, 0, 0.9764081255771008, 155.55,262.45) " spreadMethod="pad">
<stop  offset="43.529411764705884%" stop-color="#FFFFFF"/>

<stop  offset="72.94117647058823%" stop-color="#FFCC00"/>

<stop  offset="99.2156862745098%" stop-color="#FF5400"/>
</radialGradient>

<filter id="Filter_1" x="-20%" y="-20%" width="140%" height="140%" color-interpolation-filters="sRGB">
<feColorMatrix in="SourceGraphic" type="matrix" values="1 0 0 0 0 0 1 0 0 0 0 0 1 0 0 0 0 0 0 0" result="result1"/>
</filter>

<g id="Duplicate_Items_Folder_exploscircle03_0_Layer0_0_FILL">
<path fill="url(#Gradient_1)" stroke="none" d="
M 286.8 48.75
Q 237.55 0 168 0 98.4 0 49.2 48.75 0 97.55 0 166.5 -0.0013671875 235.4541015625 46.35 279.25 92.7615234375 323.0349609375 162.75 325.15 232.78828125 327.26484375 284.4 281.35 336.001171875 235.445703125 336 166.5 336 97.55 286.8 48.75 Z"/>
</g>

<g id="Duplicate_Items_Folder_Explosion03_7_Layer1_0_FILL">
<path fill="#413232" stroke="none" d="
M -409.55 -194.55
Q -412.75 -192.55 -415.15 -189.75 -416.4 -188.25 -418.6 -185 -420.5 -182.2 -421.65 -181
L -421.65 -167.25 -420.1 -167.25
Q -420.55 -171.3 -416 -181.45 -413.6 -186.8 -409.55 -194.55
M -487.5 -109.15
Q -492.3 -109.15 -499.6 -105.6 -506.55 -102.25 -513.15 -96.95 -520 -91.45 -523.8 -86.05 -527.95 -80.05 -527.05 -75.85 -530.2 -78.9 -533.95 -77.3 -537.3 -75.85 -539.9 -71.4 -542.45 -66.95 -542.85 -62 -543.3 -56.6 -540.8 -53
L -542.35 -53
Q -552 -53.65 -553.9 -48.8 -554.7 -46.9 -554.7 -43.05 -554.7 -40.8 -554.55 -35.35 -554.55 -30.1 -554.35 -28.75 -553.7 -24.75 -551.5 -19.65 -560.85 -19.5 -569.6 -4.9 -573.8 2.15 -576.4 10.45 -578.95 18.6 -578.95 24.9 -578.95 27.8 -578 32.15 -577 36.5 -575.85 38.65 -575.85 34.8 -573.25 28.15 -570.45 20.95 -566.05 14.45 -554.65 -2.45 -541.6 -2.45 -541.15 -2.45 -537.85 -0.65 -534.65 1.1 -533.25 2.05 -532.6 -14.4 -517.85 -25.85 -504.55 -36.15 -489.65 -36.15 -479.45 -36.15 -473.6 -31.45 -467.55 -26.65 -467.55 -17.95 -467.55 -16.25 -468.2 -9.55 -468.9 -2.8 -468.9 0.5 -463.05 0.5 -461.5 0.75 -459.9 1 -458.75 1.6 -460.45 -1.15 -461.05 -7 -461.35 -9.75 -461.35 -19.3 -461.35 -51.45 -433.25 -51.45 -421.2 -51.45 -410.2 -35.7 -405.7 -29.25 -403 -22.1 -401.85 -37.25 -404.85 -48.35 -408.7 -62.65 -418.55 -65.2 -415.4 -65.2 -411.05 -68.35 -406.35 -71.75 -406.35 -75.1 -406.35 -85.7 -415.5 -98.55 -425.25 -112.25 -435.4 -112.25 -438.7 -112.25 -444.05 -110.45 -449.8 -108.5 -454.9 -105.45 -467.15 -98.05 -467.55 -89.4 -467.85 -96.8 -474 -102.85 -480.35 -109.15 -487.5 -109.15
M 83.9 87.65
Q 88.5 84.55 98.15 84.55 106.2 84.55 130.65 92.95 124.8 84.3 121.95 80.4 116.9 73.6 112.15 69.8 100.15 60.15 76.85 60.15 73.05 60.15 60.6 64.35 46.55 69.05 33.45 75.45 -3.4 93.35 -3.4 109.75
L -2.35 111.3
Q 2.1 108.2 19.4 102.1 38.95 95.2 43.9 95.2 63.15 95.2 73.15 113.6 77.7 121.95 80 133.2
L 80.4 133.1
Q 77.6 119.4 77.6 102.8 77.6 91.85 83.9 87.65
M 326.4 80.3
Q 333.9 82.2 338 84.6 348.1 90.55 348.1 106.65 348.1 120.4 338.95 131.85 328 145.6 309.9 145.6 302.9 145.6 293.1 140.95 279.3 134.4 279.3 123.5 279.3 119.95 282.5 115.9 285.25 112.45 286.85 112.1 286 112.1 285.65 111.35
L 285.5 110.55
Q 284.05 110.55 282.3 109.8 280.55 109 278.5 109 269.55 109 261.45 115.95 258 118.9 255.6 122.5 253.65 120 252.3 118.85 247.95 115.2 234.95 115.2 225 115.2 218.45 121.2 215.55 123.85 210.5 131.85 208.05 131.45 203.75 128.5 201.8 127.15 198.3 124.3 200.9 127.75 203.05 131.8 206.05 137.5 206.05 140.95 206.05 150.3 202.1 159.55 198.05 168.9 190.75 176.3 174.2 193.05 149.5 193.05 113.15 193.05 94.5 167.1 84.45 153.15 80.4 133.15
L 80 133.2
Q 82.25 144.45 82.25 158.6 82.25 205.7 51.7 229.7 24.6 251 -21.6 251 -23.45 251 -26.1 250.55 -26.85 250.4 -27.7 250.25
L -27.4 249.8
Q -30.7 247.9 -35 246.5 -35 246.45 -35.05 246.45 -43.1 243.7 -43.1 245
L -41.9 245
Q -42.637890625 245.0189453125 -43.1 245.25 -43.15 246.35 -43.4 246.6
L -43.15 246.95
Q -39.1 248.6 -36.5 250.35 -27.8 256.2 -27.8 267.1 -27.8 279.15 -41.55 287.9 -53.2 295.35 -63.85 295.35
L -70.4 295.35
Q -67.55 290.85 -65.9 287.85 -62.85 282.3 -62.85 277.75 -62.85 262.75 -78 252.55 -91.5 243.45 -107 243.45 -120.2 243.45 -134.35 247.85 -148.9 252.4 -157 260.4 -156.75 261 -156.55 261.7
L -157.45 260.85
Q -157.25 260.6 -157 260.4 -158.25 257.1 -160.45 255.65 -158 252.9 -152.05 247.6 -146.3 242.5 -143.65 239.4 -134.5 228.85 -134.5 214.4 -134.5 206.1 -140.5 199 -146.85 191.5 -155.25 191.5 -159 191.5 -166.5 194.65 -175.15 198.25 -177.35 202.15 -176.95 194.65 -177.55 191.75 -178.2 188.75 -182.35 180.9 -180.7 179.85 -179.2 178.15 -176.15 173.9 -174.05 171.55 -174.2 170.75 -174.25 170
L -172.7 170
Q -173.3 170.65 -174.05 171.55 -173.45 174.85 -170.75 178.75 -167.3 183.75 -164.35 183.75 -156.55 183.75 -152.75 180.95 -148.25 177.65 -148.25 170 -148.25 159.2 -157.05 149.3 -164.9 140.5 -178.7 133.45 -191.3 127 -206.15 123.25 -220.4 119.65 -232.15 119.65 -252 119.65 -270.55 127.45 -294.75 137.65 -294.75 155.5 -294.75 162.3 -285.7 167.15 -277.5 171.55 -268.2 171.55 -265.35 171.55 -260.45 170.6 -255.7 169.65 -252.1 168.45 -252.6 169.45 -255.45 173.7 -258.1 178.2 -258.1 181.45 -258.1 183.25 -255.8 185.95 -253 189.2 -249 189.95
L -249 206.8
Q -252.7 229.55 -282.85 243.4 -294.25 248.6 -307.4 251.55 -316.35 253.55 -323.3 254 -325.2 254.1 -326.9 254.1 -331.6 254.1 -334.75 253.45 -328.9 256.3 -323.15 258.25 -312.55 261.85 -304.1 261.7
L -304.05 261.65 -302.5 261.65
Q -303.3 261.7 -304.1 261.7 -307.95 265.25 -316.15 266.1 -318.45 266.3 -330 266.3 -344.75 266.3 -347.95 266
L -348 266.1
Q -348.15 266 -348.35 265.95 -373.7 255.45 -385.7 249.5 -404.85 240 -415.8 230.3 -428.15 219.3 -433.95 205 -440.05 189.95 -440.05 168.45 -440.05 98 -394.15 64.6 -378.35 53.1 -358.8 47.4 -344.85 43.3 -334.65 43.3 -320.7 43.3 -313.25 47.1 -304.45 51.65 -304.05 61.7 -299.15 53.95 -298.25 48.65 -297.85 46.35 -297.85 34.75 -297.85 10.7 -317.8 -2.4 -334.35 -13.3 -357.5 -13.3 -379.9 -13.3 -395.7 3.5 -406.3 14.75 -417.05 38.05 -421.55 31.55 -432.75 27.6 -444.9 23.35 -457.5 23.35 -471 23.35 -483.65 32.7 -494.9 41 -504.2 55.55 -512.65 68.85 -517.6 84.3 -522.4 99.3 -522.4 111.3 -522.4 135.55 -503.75 148.7 -488.85 159.15 -468.9 159.35
L -468.9 160.9
Q -482.25 160.5 -489.85 171 -496.45 180.05 -496.45 192.85 -496.45 202.85 -489 208.4 -482.95 212.85 -475.1 212.85 -471.45 212.85 -461.55 210 -452.65 207.5 -446.05 208.35
L -445.8 208.85
Q -455.45 213 -460.65 229.65 -464.45 241.75 -464.45 251.75 -464.45 275.65 -443 289.2 -434.5 294.6 -423.75 297.45 -414.25 300 -405.55 300 -399.6 300 -393.2 298.6 -391.15 302 -388.05 303.35 -384.95 304.4 -383.4 304.95 -380.6 305.9 -378.85 307.55 -381.05 310.25 -381.95 311.85 -383.5 314.65 -383.5 317.45 -383.5 338.5 -369.75 350.4 -355.7 362.6 -330 362.6 -320.9 362.6 -306.85 359.6 -292 356 -287.2 354.85 -285.75 359.15 -280.85 364.25 -278.2 367 -274.55 370 -263 379.45 -253.65 379.45 -248.15 379.45 -237.4 377.15 -229.45 375.4 -226.25 374.95 -226.2 374.9 -226.15 374.8
L -224.8 374.8
Q -225.3296875 374.8119140625 -226.25 374.95 -227.4 376.75 -229.25 379 -230.6 381.35 -230.6 386.25 -230.6 396.5 -221.55 405.45 -212.45 414.5 -201.75 414.5 -186.45 414.5 -172.95 404.55 -160.05 395 -152.7 379.45 -148.5 384.2 -143.7 385.15 -142.1 385.45 -132.95 385.45 -122.2 385.45 -110.45 379.05 -99.4 373.05 -94.8 365.7 -93.8 369.9 -92 379.95 -90.3 386.05 -86.8 391.65 -87.05 393.4 -87.05 395.35 -87.05 413.1 -70.45 422.1 -56.1 429.85 -32.45 429.85 -12.25 429.85 8.5 422.75 10.25 422.15 24.85 416.65 34.4 413.05 41 411.4 38.55 409.05 34.1 401.25 28.8 392.1 28.8 387.8 28.8 376.2 34.7 364.95 34.9 364.6 35.1 364.25 40.6 354.05 50.1 345.75 59.85 337.3 71.7 332.5 83.95 327.55 96 327.55 114.25 327.55 125.05 333.55 138.85 341.15 138.85 357.95 138.85 360.15 137.5 364.25 136.85 366.3 135.85 368.8 132.9 376.25 131.1 377.9 135 374.6 138.4 371.65 142.9 367.65 146.55 364.25 152.3 358.8 155.6 354.85 170.8 336.75 170.8 319 170.8 318.05 170.55 317.2
L 170.05 316.65
Q 166.8 320.05 163.45 320.9 161.7 321.35 151.8 321.35 133.75 321.35 125.05 315.3 114.4 307.9 114.4 289.95 114.4 277.8 121.15 265.75 127.55 254.35 138.8 245 149.9 235.75 163.3 230.5 177.2 225.05 190.75 225.05 217.45 225.05 232 235.75 248.7 247.95 248.7 273.85 248.7 286.35 242.3 295.95 235.35 306.35 224.25 307.55 228.55 308.95 236.65 313.15 244.65 316.7 253.35 316.7 267.1 316.7 283.15 313.3 304.1 308.9 320.65 300.1 366.3 275.8 366.3 225.8 366.3 221.65 366.05 217.6 366 217.5 366 217.4 367 217.5 367.85 217.5 377.55 217.5 384.85 208.45 387.75 204.8 389.55 200.7 390.55 200.95 391.7 201.2 396.3 202.15 399.25 202.15 409 202.15 420.65 198.15 432.65 194 442.85 186.85 467.25 169.75 467.25 147.15 467.25 136.35 463.45 129.3 460.5 123.85 455.45 120.95 442.35 137.1 427.3 147.15 406.7 160.9 385.45 160.9 377.55 160.9 368.55 157 357.6 152.25 355.95 144.05 355.9 143.95 355.9 143.8 356.05 143.9 356.2 143.95 360.25 145.6 363.95 145.6 375.7 145.6 381.65 134.95 386.25 126.65 386.25 115 386.25 91.9 375.65 81.5 364.8 70.8 340.35 70.8 326.6 70.8 323.35 71.25 316.4 72.3 311.45 76.8 316.95 78.1 326.4 80.3
M 396.9 -94.25
Q 383.6 -94.25 369.5 -84.35 354.55 -73.85 354.3 -62.1
L 354.3 -51.45
Q 370.4 -60.55 380.05 -60.55 382.65 -60.55 387.2 -59 392.35 -57.25 396.9 -54.45 409.1 -46.95 409.1 -36.9
L 409.35 -36.3
Q 409.2 -36.25 409.1 -36.2 401.35 -32.5 394.75 -21.15 389.75 -12.55 386.4 -1.5
L 387.8 -1.05
Q 393.95 -16.45 402.4 -21.3 409.85 -25.5 427.5 -25.5 438.25 -25.5 449.65 -21 461 -16.5 470.35 -8.55 491.65 9.65 491.65 34 491.65 50.5 483.5 72.05 476.75 89.9 466.3 105.95 476.15 105.1 485.7 101.4 500.9 95.6 513 83.75 525.1 71.85 531.85 56.15 538.9 39.7 538.9 21.8 538.9 9 534.05 -3.45 529.25 -15.7 520.65 -25.45 501.75 -46.8 475.55 -46.8 464.75 -46.8 456.7 -42.65 448.2 -38.25 444.35 -29.95 444.55 -59.6 436.15 -74.45 425 -94.25 396.9 -94.25
M 280.85 -213.2
Q 275.25 -218.2 272.9 -219.3 269.9 -220.75 264 -220.75 253.8 -220.75 246.15 -213.55 237.1 -205 234.95 -188.75
L 237.15 -185.9
Q 239.15 -187.6 241.9 -190.15 245.85 -193.25 249.45 -193.25 263.7 -193.25 270.15 -188.75 277.75 -183.5 277.75 -170.35 277.75 -161.65 274.4 -155.8 269.25 -148.35 265.55 -141.3 271.75 -144.4 278.3 -148.15 283.2 -150.4 291.5 -150.4 308 -150.4 315.95 -141.25 323.65 -132.4 323.65 -114.55 323.65 -106.65 319.35 -92.95 316.45 -83.7 313 -75.85 316.35 -77.85 323.75 -84.85 329.3 -90.1 334.3 -91.15 355.65 -96.1 355.65 -115.35 355.65 -120.9 355 -122.7 353.9 -125.55 349.65 -127.55 353.75 -129.6 359.4 -138.25 364.75 -146.55 364.75 -149.85 364.75 -152.05 363.2 -157.3 361.4 -163.4 358.8 -168.85 351.4 -184.1 342.65 -184.1 336.95 -184.1 332.15 -180.3 331.85 -180.1 325.2 -173.45
L 325.2 -175
Q 328.1 -180.4 328.1 -185.65 328.1 -197.35 319 -208.5 309 -220.75 295.95 -220.75 291.95 -220.75 288.9 -219.35 285.2 -217.7 280.85 -213.2 Z"/>
</g>

<g id="Duplicate_Items_Folder_Symbol_1_6_Layer0_0_FILL">
<path fill="#FFCC00" stroke="none" d="
M 300.5 -20.25
Q 300.65 -19.9 299.95 -19.6 295.7 -18.95 294.25 -18.65 291.9 -18.45 291.1 -17.35 290.75 -16.75 290.6 -15.85 290.5 -14.8 290.4 -14.3 290.3 -13.35 289.55 -11.3 288.85 -9.45 288.85 -8.3 288.85 -4.85 293.35 -1.95 296.25 -0.05 299.8 0.35 303.95 0.6 306.3 -1.55 308.25 -3.3 309.25 -7.55 309.5 -10.15 309.5 -10.95 309.3 -14.45 306.65 -17.2 303.95 -19.95 300.5 -20.25 Z"/>
</g>
</defs>

<g transform="matrix( 0.5390167236328125, 0, 0, 0.5390167236328125, 315.9,272.65) ">
<g transform="matrix( 1.773773193359375, 0, 0, 1.773773193359375, -308.65,-161.5) ">
<g transform="matrix( 1, 0, 0, 1, 0,0) ">
<use filter="url(#Filter_1)" xlink:href="#Duplicate_Items_Folder_exploscircle03_0_Layer0_0_FILL"/>
</g>
</g>

<g transform="matrix( 1, 0, 0, 1, 0,0) ">
<use xlink:href="#Duplicate_Items_Folder_Explosion03_7_Layer1_0_FILL"/>
</g>

<g transform="matrix( 1, 0, 0, 1, 141.85,-104.25) ">
<g transform="matrix( 1, 0, 0, 1, 0,0) ">
<use xlink:href="#Duplicate_Items_Folder_Symbol_1_6_Layer0_0_FILL"/>
</g>
</g>

<g transform="matrix( -1, 0, 0, 1, -163.9,-87.9) ">
<g transform="matrix( 1, 0, 0, 1, 0,0) ">
<use xlink:href="#Duplicate_Items_Folder_Symbol_1_6_Layer0_0_FILL"/>
</g>
</g>

<g transform="matrix( 0.8850555419921875, 0.465484619140625, -0.465484619140625, 0.8850555419921875, 190.25,69.4) ">
<g transform="matrix( 1, 0, 0, 1, 0,0) ">
<use xlink:href="#Duplicate_Items_Folder_Symbol_1_6_Layer0_0_FILL"/>
</g>
</g>

<g transform="matrix( -0.73504638671875, -0.678009033203125, -0.678009033203125, 0.73504638671875, -10.65,-53.6) ">
<g transform="matrix( 1, 0, 0, 1, 0,0) ">
<use xlink:href="#Duplicate_Items_Folder_Symbol_1_6_Layer0_0_FILL"/>
</g>
</g>

<g transform="matrix( -0.4403533935546875, -0.2989044189453125, -0.2989044189453125, 0.4403533935546875, -187.8,131.6) ">
<g transform="matrix( 1, 0, 0, 1, 0,0) ">
<use xlink:href="#Duplicate_Items_Folder_Symbol_1_6_Layer0_0_FILL"/>
</g>
</g>

<g transform="matrix( -0.633819580078125, 0, 0, 0.633819580078125, -152.15,-15) ">
<g transform="matrix( 1, 0, 0, 1, 0,0) ">
<use xlink:href="#Duplicate_Items_Folder_Symbol_1_6_Layer0_0_FILL"/>
</g>
</g>

<g transform="matrix( 0.7260284423828125, -0.211334228515625, 0.211334228515625, 0.7260284423828125, 51.9,-20.3) ">
<g transform="matrix( 1, 0, 0, 1, 0,0) ">
<use xlink:href="#Duplicate_Items_Folder_Symbol_1_6_Layer0_0_FILL"/>
</g>
</g>

<g transform="matrix( -0.8850555419921875, 0.465484619140625, 0.465484619140625, 0.8850555419921875, -209.75,127.8) ">
<g transform="matrix( 1, 0, 0, 1, 0,0) ">
<use xlink:href="#Duplicate_Items_Folder_Symbol_1_6_Layer0_0_FILL"/>
</g>
</g>

<g transform="matrix( 0.73504638671875, -0.678009033203125, 0.678009033203125, 0.73504638671875, -8.85,4.8) ">
<g transform="matrix( 1, 0, 0, 1, 0,0) ">
<use xlink:href="#Duplicate_Items_Folder_Symbol_1_6_Layer0_0_FILL"/>
</g>
</g>

<g transform="matrix( 0.411865234375, 0.3053131103515625, -0.3053131103515625, 0.411865234375, 168.25,190) ">
<g transform="matrix( 1, 0, 0, 1, 0,0) ">
<use xlink:href="#Duplicate_Items_Folder_Symbol_1_6_Layer0_0_FILL"/>
</g>
</g>
</g>
</svg>
