
<svg xmlns="http://www.w3.org/2000/svg" version="1.1" xmlns:xlink="http://www.w3.org/1999/xlink" preserveAspectRatio="none" x="0px" y="0px" width="1000px" height="1000px" viewBox="0 0 1000 1000">
<defs>
<g id="bard_idle_death_2_Layer7_0_FILL">
<path fill="#00CDFF" stroke="none" d="
M 62.65 199.4
L 62.1 202.95 64.75 202.95 65.45 201 62.65 199.4
M 91.95 201.5
Q 91.6 201.25 90.35 201.25 89.1 201.25 88.75 201.5 88.4 201.75 88.4 202.8 88.4 203.85 88.75 204.1 89.1 204.35 90.35 204.35 91.6 204.35 91.95 204.1 92.3 203.85 92.3 202.8 92.3 201.75 91.95 201.5
M 103.4 195.95
Q 108.5 198.25 110.95 193.15 112.7 189.6 109.75 186.6
L 103.4 195.95
M 111.15 179.25
Q 110.55 178.55 109.65 178.55 108.75 178.55 108.1 179.25 107.5 180 107.5 181.05 107.5 182.1 108.1 182.8 108.75 183.55 109.65 183.55 110.55 183.55 111.15 182.8 111.8 182.1 111.8 181.05 111.8 180 111.15 179.25
M 58.2 197.75
L 54 188.4 53.55 189.3
Q 53.15 190.35 53.35 190.8 55.15 194.65 57.3 198.4
L 58.2 197.75
M 44.1 156.75
Q 44.1 154.95 43.7 154.95 43.3 154.95 42.6 155.65 41.85 156.4 41.85 156.75 41.85 157.1 42.6 157.85 43.3 158.55 43.7 158.55 44.1 158.55 44.1 156.75
M 28.15 129.7
L 25.75 127.85
Q 20.75 130.9 18 135.85 19.6 135.7 22.8 134.3 27.3 132.3 28.15 129.7
M 35.4 133.6
L 39.35 138.8 40.45 136.8 35.4 133.6
M 5.7 143.4
Q 11.45 147.5 11.3 147.2 9.6 143.35 6.5 140.65
L 5.7 143.4
M 7.05 105.05
L 4.75 104.15
Q 2.15 109.15 2.15 114.85 2.15 115.2 7.05 105.05
M 41.2 104.05
Q 41.6 103.7 41.6 102.2 41.6 100.75 41.2 100.3 40.85 99.95 39.35 99.95 37.9 99.95 37.5 100.3 37.15 100.75 37.15 102.2 37.15 103.7 37.5 104.05 37.9 104.5 39.35 104.5 40.85 104.5 41.2 104.05
M 160.7 81
Q 160.7 80.3 159.5 78.9 158.3 77.55 157.65 77.55 157 77.55 155.8 78.9 154.6 80.3 154.6 81 154.6 81.7 155.8 83.1 157 84.45 157.65 84.45 158.3 84.45 159.5 83.1 160.7 81.7 160.7 81
M 160 61.75
Q 160 60.3 159.55 59.85 159.2 59.5 157.7 59.5 156.25 59.5 155.8 59.85 155.45 60.3 155.45 61.75 155.45 63.25 155.8 63.6 156.25 64.05 157.7 64.05 159.2 64.05 159.55 63.6 160 63.25 160 61.75
M 186.7 94.25
Q 186.7 93.75 185.9 92.85 185.1 91.95 184.7 91.95 184.3 91.95 183.5 92.85 182.7 93.75 182.7 94.25 182.7 94.75 183.5 95.65 184.3 96.55 184.7 96.55 185.1 96.55 185.9 95.65 186.7 94.75 186.7 94.25
M 171.35 87.1
Q 171 86.75 169.65 86.75 168.3 86.75 167.95 87.1 167.6 87.45 167.6 88.8 167.6 90.15 167.95 90.5 168.3 90.85 169.65 90.85 171 90.85 171.35 90.5 171.7 90.15 171.7 88.8 171.7 87.45 171.35 87.1
M 178 64.85
Q 178 64.3 177.05 63.25 176.15 62.25 175.65 62.25 175.15 62.25 174.25 63.25 173.3 64.3 173.3 64.85 173.3 65.4 174.25 66.45 175.15 67.45 175.65 67.45 176.15 67.45 177.05 66.45 178 65.4 178 64.85
M 189.45 71.55
Q 190.6 70.35 190.6 69.75 190.6 69.15 189.45 68 188.3 66.8 187.7 66.8 187.1 66.8 185.95 68 184.8 69.15 184.8 69.75 184.8 70.35 185.95 71.55 187.1 72.7 187.7 72.7 188.3 72.7 189.45 71.55 Z"/>

<path fill="#FA20F7" stroke="none" d="
M 136.55 152.85
Q 135.8 152.1 134.7 152.1 134.15 152.1 133.1 153.15 132.05 154.2 132.05 154.75 132.05 155.3 133.1 156.35 134.15 157.4 134.7 157.4 135.25 157.4 136.1 155.35 137 153.3 136.55 152.85
M 146.7 171.25
Q 146.7 170.75 145.9 169.85 145.1 168.95 144.7 168.95 144.3 168.95 143.5 169.85 142.7 170.75 142.7 171.25 142.7 171.75 143.5 172.65 144.3 173.55 144.7 173.55 145.1 173.55 145.9 172.65 146.7 171.75 146.7 171.25
M 153.7 133.15
L 152.05 136.15 153.85 137.25 155.95 133.6 153.7 133.15
M 140.75 134.85
Q 140.75 133.9 140.1 133.2 139.8 132.85 138.65 132.85 137.5 132.85 137.15 133.2 136.85 133.55 136.85 134.85 136.85 136.15 137.15 136.5 137.5 136.85 139.15 136.1 140.75 135.35 140.75 134.85
M 164.75 165.75
Q 164.75 165.3 163.9 164.45 163.05 163.6 162.65 163.6 162.25 163.6 161.4 164.45 160.55 165.3 160.55 165.75 160.55 166.2 161.4 167.05 162.25 167.9 162.65 167.9 163.05 167.9 163.9 167.05 164.75 166.2 164.75 165.75
M 169.7 145.75
Q 169.25 145.3 168.6 145.3 167.95 145.3 167.5 145.75 167.05 146.2 167.05 146.8 167.05 147.1 168.25 147.6 169.5 148.05 169.7 147.85 169.95 147.65 169.95 146.8 169.95 146 169.7 145.75 Z"/>

<path fill="#9100FF" stroke="none" d="
M 158.65 121.4
Q 158.15 121.4 157.2 122.35 156.25 123.3 156.25 123.8 156.25 124.3 157.2 125.25 158.15 126.2 158.65 126.2 159.15 126.2 160.1 125.25 161.05 124.3 161.05 123.8 161.05 123.3 160.1 122.35 159.15 121.4 158.65 121.4
M 176.15 140.8
Q 176.15 140.5 175.55 139.9 174.95 139.3 174.6 139.3 173.95 139.3 173.5 139.75 173.3 140 173.3 140.8 173.3 141.65 173.5 141.85 173.7 142.05 174.95 141.6 176.15 141.1 176.15 140.8
M 165.65 134.35
Q 165.1 132.95 164.7 132.95 163.95 132.95 163.4 133.45 163.15 133.75 163.15 134.8 163.15 135.8 163.4 136 163.95 136.55 164.7 136.55 165.45 136.55 166 136 166.25 135.8 165.65 134.35
M 164.75 107.75
Q 164.75 107.3 163.9 106.45 163.05 105.6 162.65 105.6 162.25 105.6 161.4 106.45 160.55 107.3 160.55 107.75 160.55 108.2 161.4 109.05 162.25 109.9 162.65 109.9 163.05 109.9 163.9 109.05 164.75 108.2 164.75 107.75
M 178.2 109.35
Q 177.25 110.3 177.25 110.8 177.25 111.3 178.2 112.25 179.15 113.2 179.65 113.2 180.15 113.2 181.1 112.25 182.05 111.3 182.05 110.8 182.05 110.3 181.1 109.35 180.15 108.4 179.65 108.4 179.15 108.4 178.2 109.35
M 185.7 121.95
Q 185.3 121.95 184.6 122.65 183.85 123.4 183.85 123.75 183.85 124.1 184.6 124.85 185.3 125.55 185.7 125.55 186.1 125.55 186.8 124.85 187.55 124.1 187.55 123.75 187.55 123.4 186.8 122.65 186.1 121.95 185.7 121.95 Z"/>

<path fill="#FFD200" stroke="none" d="
M 44.55 52.75
Q 44.55 52.4 43.8 51.65 43.1 50.95 42.7 50.95 42.3 50.95 41.6 51.65 40.85 52.4 40.85 52.75 40.85 53.1 41.6 53.85 42.3 54.55 42.7 54.55 43.1 54.55 43.8 53.85 44.55 53.1 44.55 52.75
M 30.05 52.1
Q 28.85 51 28.2 51 27.55 51 26.35 52.1 25.1 53.2 25.1 53.75 25.1 54.3 26.35 55.4 27.55 56.5 28.2 56.5 28.85 56.5 30.05 55.4 31.3 54.3 31.3 53.75 31.3 53.2 30.05 52.1
M 19.95 41.75
Q 19.3 41.75 18.1 42.95 16.9 44.1 16.9 44.75 16.9 45.4 18.1 46.55 19.3 47.75 19.95 47.75 20.6 47.75 21.8 46.55 23 45.4 23 44.75 23 44.1 21.8 42.95 20.6 41.75 19.95 41.75
M 22.3 20.6
Q 21.3 19.25 20.8 19.25 20.3 19.25 19.3 20.6 18.3 22 18.3 22.7 18.3 23.4 19.3 24.8 20.3 26.15 20.8 26.15 21.3 26.15 22.3 24.8 23.3 23.4 23.3 22.7 23.3 22 22.3 20.6
M 46 34.75
Q 46 34.5 45.45 33.95 44.9 33.45 44.65 33.45 44.4 33.45 43.95 34.5 43.5 35.5 43.7 35.65 44.1 36.05 44.65 36.05 44.9 36.05 45.45 35.55 46 35 46 34.75 Z"/>

<path fill="#FF4600" stroke="none" d="
M 28.4 93.05
Q 29.25 93.9 29.65 93.9 30.05 93.9 30.9 93.05 31.75 92.2 31.75 91.75 31.75 91.3 30.9 90.45 30.05 89.6 29.65 89.6 29.25 89.6 28.4 90.45 27.55 91.3 27.55 91.75 27.55 92.2 28.4 93.05
M 12.7 96.3
L 11.85 93.7 9.05 95 12.7 96.3
M 5.55 84.7
Q 6.15 84.1 6.15 83.8 6.15 83.5 5.55 82.9 4.95 82.3 4.6 82.3 4.25 82.3 3.65 82.9 3.05 83.5 3.05 83.8 3.05 84.1 3.65 84.7 4.25 85.3 4.6 85.3 4.95 85.3 5.55 84.7
M 9.35 65.75
Q 9.35 65.2 8.3 64.15 7.25 63.1 6.7 63.1 6.15 63.1 5.1 64.15 4.05 65.2 4.05 65.75 4.05 66.3 5.1 67.35 6.15 68.4 6.7 68.4 7.25 68.4 8.3 67.35 9.35 66.3 9.35 65.75
M 36.05 72.8
Q 36.05 72.3 35.1 71.35 34.15 70.4 33.65 70.4 33.15 70.4 32.2 71.35 31.25 72.3 31.25 72.8 31.25 73.3 32.2 74.25 33.15 75.2 33.65 75.2 34.15 75.2 35.1 74.25 36.05 73.3 36.05 72.8
M 23.45 72
Q 23.45 71.5 22.55 70.65 21.65 69.75 21.15 69.75 20.65 69.75 19.75 70.65 18.85 71.5 18.85 72 18.85 72.5 19.75 73.35 20.65 74.25 21.15 74.25 21.65 74.25 22.55 73.35 23.45 72.5 23.45 72 Z"/>

<path fill="#E5FF00" stroke="none" d="
M 70.1 20.35
Q 69.15 19.4 68.65 19.4 68.15 19.4 67.2 20.35 66.25 21.3 66.25 21.8 66.25 22.3 67.2 23.25 68.15 24.2 68.65 24.2 69.15 24.2 70.1 23.25 71.05 22.3 71.05 21.8 71.05 21.3 70.1 20.35
M 67.4 3.25
Q 67.4 2.6 66.35 1.3 65.25 0 64.7 0 64.15 0 63.05 1.3 62 2.6 62 3.25 62 3.95 63.05 5.2 64.15 6.5 64.7 6.5 65.25 6.5 66.35 5.2 67.4 3.95 67.4 3.25
M 90.7 29.25
Q 90.7 28.75 89.9 27.85 89.1 26.95 88.7 26.95 87.85 26.95 87.25 27.6 87 28 87.65 29.75 88.3 31.55 88.7 31.55 89.1 31.55 89.9 30.65 90.7 29.75 90.7 29.25
M 96.55 12.75
Q 96.55 12.4 95.8 11.65 95.1 10.95 94.7 10.95 94.3 10.95 93.6 11.65 92.85 12.4 92.85 12.75 92.85 13.1 93.6 13.85 94.3 14.55 94.7 14.55 95.1 14.55 95.8 13.85 96.55 13.1 96.55 12.75
M 79.8 -0.35
Q 79.1 -1.05 78.7 -1.05 78.3 -1.05 77.6 -0.35 76.85 0.4 76.85 0.75 76.85 1.1 77.6 1.85 78.3 2.55 78.7 2.55 79.1 2.55 79.8 1.85 80.55 1.1 80.55 0.75 80.55 0.4 79.8 -0.35 Z"/>

<path fill="#00FF5D" stroke="none" d="
M 152.2 28.65
Q 152.2 28.3 151.35 27.65 150.5 27 150.1 27 149.7 27 148.85 27.65 148 28.3 148 28.65 148 29 148.85 29.65 149.7 30.3 150.1 30.3 150.5 30.3 151.35 29.65 152.2 29 152.2 28.65
M 141.05 44.7
Q 141.05 44 139.75 42.65 138.4 41.35 137.7 41.35 137 41.35 135.65 42.65 134.35 44 134.35 44.7 134.35 45.4 135.65 46.75 137 48.05 137.7 48.05 138.4 48.05 139.75 46.75 141.05 45.4 141.05 44.7
M 122.6 33.65
Q 123.85 32.4 123.85 31.75 123.85 31.1 122.6 29.85 121.35 28.6 120.7 28.6 120.05 28.6 118.8 29.85 117.55 31.1 117.55 31.75 117.55 32.4 118.8 33.65 120.05 34.9 120.7 34.9 121.35 34.9 122.6 33.65
M 141.55 18.85
Q 140.65 17.95 140.15 17.95 139.65 17.95 138.75 18.85 137.85 19.75 137.85 20.25 137.85 20.75 138.75 21.65 139.65 22.55 140.15 22.55 140.65 22.55 141.55 21.65 142.45 20.75 142.45 20.25 142.45 19.75 141.55 18.85
M 123.55 13.2
Q 123.6 14.05 125.55 15.05 127.55 16.1 128.25 15.25
L 125.7 11.55 123.55 13.2 Z"/>
</g>

<g id="bard_feather_0_Layer0_0_FILL">
<path fill="#000000" stroke="none" d="
M 54.3 24.35
Q 54.05 17.75 53.4 15.1 52.8 12.65 47.3 7.25 41.4 1.5 37.7 0.65 33.4 -0.35 23.4 1.25 12.85 3 8.55 5.9 4.2 8.85 1 18.2 -2.1 27.3 -0.4 30.3 2.8880859375 36.01015625 9.9 44.55 16.9611328125 53.1384765625 22 57.55 22.496875 48.32578125 30.3 37.85 31.2 39.05 36.35 42 41.6 45.1 42.85 44.85 44.15 44.75 48.6 39.7 52.75 34.95 53.7 33 54.55 31.5 54.3 24.35
M 46.4 19.75
L 46.85 24.25 46.8 27.1 46.5 29.3 46 31.8
Q 46 33.5 44.65 34.65 43.35 35.85 41.45 35.85
L 38.05 35.45 34.2 33.1 32.35 31.45 30.1 29.4 22.9 24.85 36 14.3 37.35 16.8 31.9 24.5 38.4 19.75 38.9 21.9 39.2 23.25 40 27.6
Q 40.15 26.9 40.35 26.2 41.3 22.55 40.9 16.35
L 46.4 19.75
M 45.45 16.05
L 40.65 13.4 38.25 13.25 32.9 7.45 37.85 8.1
Q 40.2 8.8 42.05 10.45 44.6 12.7 45.45 16.05
M 28.4 11.3
L 28.1 11.4 18.9 16.3 17.75 17.6 32.05 10.3 35.25 13.3 32.25 14.85
Q 31.95 15 31.65 15.15 26.2 18.05 21.95 22.5
L 20.75 24.3 13.4 23.15
Q 17.15 25.15 21 26.95 24.2 28.45 26.6 31.1
L 19.55 45.55 21.3 36.6 18.9 40.35 22 29.9 18.5 35.7 17.75 29.9 17.2 35.5 13.85 32.5 19 49.8
Q 16.35 44.95 12.8 38 8.2 28.95 7.3 26.55 6.45 20.15 10.95 15.4 16.15 10.05 23.5 8.2 25.25 8.1 27 8 29.7 8.45 32 10.25
L 28.4 11.3
M 14.4 16
L 18.7 12.5 17.8 12.1 14.4 16
M 43.45 23.9
L 42.75 24.45 44.65 26.5
Q 44.75 26.5 45 26.35 45.2 26.15 45.2 26.05
L 45.6 25.4 43.45 23.9 Z"/>

<path fill="#CC9966" stroke="none" d="
M 32.25 14.85
L 35.25 13.3 32.05 10.3 17.75 17.6 17.05 18.95
Q 25.3 16.25 27.15 15.4 29.6 14.2 32.25 14.85
M 20.75 24.3
L 21.95 22.5
Q 18.1 20.75 13.7 21.05 8.55 21.7 7.3 26.55 8.2 28.95 12.8 38 16.35 44.95 19 49.8
L 13.85 32.5 17.2 35.5 17.75 29.9 18.5 35.7 22 29.9 18.9 40.35 21.3 36.6 19.55 45.55 26.6 31.1
Q 24.2 28.45 21 26.95 17.15 25.15 13.4 23.15
L 20.75 24.3
M 23.5 8.2
L 28.4 11.3 32 10.25
Q 29.7 8.45 27 8 25.25 8.1 23.5 8.2
M 28.1 11.4
Q 26.85 11.8 25.6 12.25 21.85 13.6 18.9 16.3
L 28.1 11.4
M 40.65 13.4
L 45.45 16.05
Q 44.6 12.7 42.05 10.45 40.2 8.8 37.85 8.1
L 40.65 13.4 Z"/>

<path fill="#FFFFFF" stroke="none" d="
M 25.6 12.25
Q 26.85 11.8 28.1 11.4
L 28.4 11.3 23.5 8.2
Q 16.15 10.05 10.95 15.4 6.45 20.15 7.3 26.55 8.55 21.7 13.7 21.05 18.1 20.75 21.95 22.5 26.2 18.05 31.65 15.15 31.95 15 32.25 14.85 29.6 14.2 27.15 15.4 25.3 16.25 17.05 18.95
L 17.75 17.6 18.9 16.3
Q 21.85 13.6 25.6 12.25
M 18.7 12.5
L 14.4 16 17.8 12.1 18.7 12.5
M 37.85 8.1
L 32.9 7.45 38.25 13.25 40.65 13.4 37.85 8.1 Z"/>

<path fill="#0099FF" stroke="none" d="
M 38.05 35.45
Q 39.55 34.3 39.95 30.95 40.2 28.6 40 27.6
L 34.2 33.1 38.05 35.45
M 39.2 23.25
L 38.9 21.9 30.1 29.4 32.35 31.45 39.2 23.25
M 31.9 24.5
L 37.35 16.8 26.2 25.55
Q 30.8 26.45 31.9 24.5
M 41.45 35.85
Q 43.35 35.85 44.65 34.65 46 33.5 46 31.8
L 41.45 35.85
M 46.5 29.3
L 46.8 27.1 45.2 26.05
Q 45.2 26.15 45 26.35 44.75 26.5 44.65 26.5 44.65 27.05 45.4 28.2 46.15 29.3 46.5 29.3
M 40.9 16.35
Q 41.3 19.55 46.85 24.25
L 46.4 19.75 40.9 16.35 Z"/>

<path fill="#3333CC" stroke="none" d="
M 32.35 31.45
L 34.2 33.1 40 27.6 39.2 23.25 32.35 31.45
M 38.4 19.75
L 31.9 24.5
Q 30.8 26.45 26.2 25.55
L 37.35 16.8 36 14.3 22.9 24.85 30.1 29.4 38.9 21.9 38.4 19.75
M 46.85 24.25
Q 41.3 19.55 40.9 16.35 41.3 22.55 40.35 26.2 40.15 26.9 40 27.6 40.2 28.6 39.95 30.95 39.55 34.3 38.05 35.45
L 41.45 35.85 46 31.8 46.5 29.3
Q 46.15 29.3 45.4 28.2 44.65 27.05 44.65 26.5
L 42.75 24.45 43.45 23.9 45.6 25.4 45.2 26.05 46.8 27.1 46.85 24.25 Z"/>
</g>

<g id="bard_hat_0_Layer0_0_FILL">
<path fill="#000000" stroke="none" d="
M 55.2 -1.75
Q 52.25 -2.45 40.55 -1.4 29.1 -0.35 26.3 0.7 21.64921875 2.5451171875 11.8 11.35 1.9517578125 20.2146484375 0.45 27 -1.051953125 33.8353515625 1.6 43.55 4.2505859375 53.3048828125 7.95 56.3 13.2765625 60.655859375 19 63.5 21.6 64.85 28.8 65.35 35.2 65.8 38.55 65.35 41.2 65.4 54.4 55.55 67.15 46 69.65 42.65 74.23515625 36.6166015625 74.9 27.65 75.2 23.6 71.35 14.4 67.75 5.85 65.4 3.6 61.415625 -0.22109375 55.2 -1.75
M 43.25 4.5
Q 47.494921875 4.3658203125 51.5 4.95 55.555078125 5.5341796875 59.25 9.65 61.25 12.85 62.3 16.25 64.1 22.1 63.65 28.3 63.2 34.4 59.65 39.4 57.7 42.15 51.85 47.15
L 53.8 46.7
Q 57.8 45.95 60.5 42.9 65.6 37.25 66.1 29.55 66.7 20.55 63.2 12.25 68.55 22.15 68.6 26.85 68.7 33.95 65.6 40.3 64.4 42.7 55.6 50.75 46.5 59 43.7 59.75 37.75 61.15 31.7 60.65 24.3 60.45 17.7 56.75 18.85 57 23.3 57.65 28.9 58.45 31.45 58.5 37.25 58.5 42.9 56.95 45.75 56.15 49.3 52 51.0357421875 49.966796875 52.2 48 51.9828125 48.2513671875 49.9 49.8 47.353515625 51.7005859375 42.4 54.05 37.4443359375 56.38828125 31.25 55.75 25.1064453125 55.1677734375 20.65 53.7 17.85 54.95 13.85 52.1 9.6056640625 49.1025390625 8 43.45 6.4326171875 37.791796875 7.5 31.7 8.573046875 25.6607421875 13.4 20.95 13.15 22.25 12.95 26.8 12.75 32.55 13.35 35.05 14.65 40.6 18.1 45.1 20.8 49.05 25.1 50.7 27.95 51.85 35.85 51.5 44.05 51.1 46.15 49.4 48.45 47.6 48.9 39.5 49.35 31.9 48.1 29.1 46.95 26.55 41.75 20.15 36.55 13.8 34.3 12.1
L 28.75 9.65
Q 34.6607421875 4.9359375 43.25 4.5
M 45.45 29.8
Q 47.9 35.15 47.25 41.05 46.55 47.6 40.1 49.2 34.3 50.75 28.5 49.2 22.95 47.55 19.6 42.95
L 18.05 38.8
Q 16.733984375 34.563671875 16.5 30.05 16.35 27.1 18.3 21.65 20.2 16.4 21.45 15.6 26.25 12.45 31.7 14.35 36.55 16.15 39.65 20.25 43.05 24.7 45.45 29.8 Z"/>

<path fill="#999999" stroke="none" d="
M 31.7 14.35
Q 26.25 12.45 21.45 15.6 20.2 16.4 18.3 21.65 16.35 27.1 16.5 30.05 16.733984375 34.563671875 18.05 38.8 18.07265625 36.071875 18.85 31.5 20.783984375 20.21171875 31.7 14.35 Z"/>

<path fill="#FFFFFF" stroke="none" d="
M 47.25 41.05
Q 47.9 35.15 45.45 29.8 43.05 24.7 39.65 20.25 36.55 16.15 31.7 14.35 20.783984375 20.21171875 18.85 31.5 18.07265625 36.071875 18.05 38.8
L 19.6 42.95
Q 22.95 47.55 28.5 49.2 34.3 50.75 40.1 49.2 46.55 47.6 47.25 41.05
M 60.5 42.9
Q 57.8 45.95 53.8 46.7
L 52.25 48 52.2 48
Q 51.0357421875 49.966796875 49.3 52 45.75 56.15 42.9 56.95 37.25 58.5 31.45 58.5 28.9 58.45 23.3 57.65 18.85 57 17.7 56.75 24.3 60.45 31.7 60.65 37.75 61.15 43.7 59.75 46.5 59 55.6 50.75 64.4 42.7 65.6 40.3 68.7 33.95 68.6 26.85 68.55 22.15 63.2 12.25 66.7 20.55 66.1 29.55 65.6 37.25 60.5 42.9 Z"/>

<path fill="#3333CC" stroke="none" d="
M 7.5 31.7
Q 6.4326171875 37.791796875 8 43.45 9.6056640625 49.1025390625 13.85 52.1 17.85 54.95 20.65 53.7 16.01875 50.46484375 18.1 45.1 14.65 40.6 13.35 35.05 12.75 32.55 12.95 26.8 13.15 22.25 13.4 20.95 8.573046875 25.6607421875 7.5 31.7
M 34.3 12.1
Q 33.7025390625 11.0263671875 35.25 8.85 36.7974609375 6.7236328125 43.25 4.5 34.6607421875 4.9359375 28.75 9.65
L 34.3 12.1 Z"/>

<path fill="#0099FF" stroke="none" d="
M 51.5 4.95
Q 47.494921875 4.3658203125 43.25 4.5 36.7974609375 6.7236328125 35.25 8.85 33.7025390625 11.0263671875 34.3 12.1 36.55 13.8 41.75 20.15 46.95 26.55 48.1 29.1 49.35 31.9 48.9 39.5 48.45 47.6 46.15 49.4 44.05 51.1 35.85 51.5 27.95 51.85 25.1 50.7 20.8 49.05 18.1 45.1 16.01875 50.46484375 20.65 53.7 25.1064453125 55.1677734375 31.25 55.75 37.4443359375 56.38828125 42.4 54.05 47.353515625 51.7005859375 49.9 49.8 51.9828125 48.2513671875 52.2 48
L 52.25 48 53.8 46.7 51.85 47.15
Q 57.7 42.15 59.65 39.4 63.2 34.4 63.65 28.3 64.1 22.1 62.3 16.25 61.25 12.85 59.25 9.65 55.555078125 5.5341796875 51.5 4.95 Z"/>
</g>

<g id="bard_body_0_Layer0_0_FILL">
<path fill="#000000" stroke="none" d="
M 47.8 33.9
Q 51.25 31.4 52.2 27.35 53.25 22.65 51.7 18.1 49.95 12.9 46.1 8.95 44 6.8 36.75 3.65 30 0.75 28.3 0.75 22.7 0.7 17.7 2.85 14.9001953125 5.6 8.6 10 2.3458984375 14.40625 0 17.85 -2.33984375 21.28125 -2.6 24.85 -2.073046875 30.7619140625 0.4 33.75 2.9171875 36.741015625 8.8 37.7 14.743359375 38.6529296875 29.2 37.45 44.75 36.15 47.8 33.9
M 41.75 13.35
Q 45.4 17.8 46.4 23.55 47.6 30.25 41.35 32.75 32.7 35 28.95 35.25 23.05 35.4 17.1 34.5 12.45 34.3 9.15 30.95 4.5474609375 26.3951171875 6.8 21.95 9.10703125 17.564453125 14.95 11.75 20.8404296875 5.9306640625 23.9 5.5 28.75 5.15 33.2 7.3 38.05 9.7 41.75 13.35 Z"/>

<path fill="#0099FF" stroke="none" d="
M 14.95 11.75
Q 9.10703125 17.564453125 6.8 21.95 4.5474609375 26.3951171875 9.15 30.95 12.45 34.3 17.1 34.5 14.45 29.6 14.7 23.95 15 18.05 18.3 12.9 20.85 8.95 23.9 5.5 20.8404296875 5.9306640625 14.95 11.75
M 46.4 23.55
Q 45.4 17.8 41.75 13.35 44.9 18.4 44.65 24.2 44.4 29 41.35 32.75 47.6 30.25 46.4 23.55 Z"/>

<path fill="#3333CC" stroke="none" d="
M 41.35 32.75
Q 44.4 29 44.65 24.2 44.9 18.4 41.75 13.35 38.05 9.7 33.2 7.3 28.75 5.15 23.9 5.5 20.85 8.95 18.3 12.9 15 18.05 14.7 23.95 14.45 29.6 17.1 34.5 23.05 35.4 28.95 35.25 32.7 35 41.35 32.75 Z"/>
</g>

<g id="bard_mustache_0_Layer0_0_FILL">
<path fill="#000000" stroke="none" d="
M 39 22.1
Q 38.0400390625 16.69296875 35.3 11.6 32.553125 6.55234375 27.4 3.65 22.75 1.05 17.5 0.05 16.7 0.55 15.9 1.1 10.15 4.95 6.35 10.6 2.6 16.15 1.95 22.85 1.4 28.55 2.3 34.15 3.05 38.7 5.85 42.35 6.9515625 43.70625 9.35 42.2 11.7435546875 40.68046875 15.2 34.8 18.660546875 28.976953125 18.4 20.7 22.55 24.15 26.65 28 31.25 32.25 37.65 32.45 40.0130859375 27.559375 39 22.1
M 26.2 7.6
Q 26.9 8.2 28.3 9.8 30.15 11.85 30.65 12.85 32.1412109375 14.3794921875 35.05 19.85 38.0087890625 25.3205078125 36.6 29.15 31.5087890625 29.1474609375 25.25 22.05 21.0791015625 17.3146484375 18.65 15.3 17.8685546875 18.4724609375 17.65 19.7 15.669921875 30.65078125 13 32.95 12.85 35.01015625 10.55 38.2 8.3 41.38984375 6.95 41.55 3.31796875 36.84921875 3.85 26 4.38203125 15.15078125 6.15 13.1 7.912890625 8.96796875 14 4.7 20.087109375 0.43203125 21.6 5.75 20.714453125 1.66484375 26.2 7.6 Z"/>

<path fill="#CC9966" stroke="none" d="
M 6.9 18.65
Q 6.25 14.65 6.15 13.1 4.38203125 15.15078125 3.85 26 3.31796875 36.84921875 6.95 41.55 8.3 41.38984375 10.55 38.2 12.85 35.01015625 13 32.95 12.1 27.55 12.2 22.1 12.25 19.25 12 16.45
L 8.6 26.05
Q 7.75 23.95 6.9 18.65
M 27.15 11
Q 26.65 9.3 26.2 7.6 20.714453125 1.66484375 21.6 5.75 24.95 7.9 28.15 16.75 22.5990234375 16.691015625 19.55 11.55 19.3123046875 11.6244140625 18.65 15.3 21.0791015625 17.3146484375 25.25 22.05 31.5087890625 29.1474609375 36.6 29.15 38.0087890625 25.3205078125 35.05 19.85 32.1412109375 14.3794921875 30.65 12.85
L 31.6 16.15
Q 28.15 14.6 27.15 11 Z"/>

<path fill="#FFFFFF" stroke="none" d="
M 28.15 16.75
Q 24.95 7.9 21.6 5.75 20.087109375 0.43203125 14 4.7 7.912890625 8.96796875 6.15 13.1 6.25 14.65 6.9 18.65 7.75 23.95 8.6 26.05
L 12 16.45
Q 12.25 19.25 12.2 22.1 12.1 27.55 13 32.95 15.669921875 30.65078125 17.65 19.7 17.8685546875 18.4724609375 18.65 15.3 19.3123046875 11.6244140625 19.55 11.55 22.5990234375 16.691015625 28.15 16.75
M 28.3 9.8
Q 26.9 8.2 26.2 7.6 26.65 9.3 27.15 11 28.15 14.6 31.6 16.15
L 30.65 12.85
Q 30.15 11.85 28.3 9.8 Z"/>
</g>

<g id="bard_guitar_0_Layer3_0_FILL">
<path fill="#000000" stroke="none" d="
M 54.45 -3.2
Q 51.2353515625 -4.642578125 46.3 -4.35 41.3630859375 -4.0505859375 37 -2.25 32.6875 -0.396875 31.25 5.55 29.865234375 11.48984375 30.45 12.95 31.0271484375 14.41640625 30.25 17.95 29.4775390625 21.5302734375 26.3 31.55 23.11953125 41.56796875 20.9 45 18.6943359375 48.4947265625 18.1 49 16.704296875 49.855078125 14.6 51.1 10.75 53.35 8.55 55.3 5.05 58.4 3 62.65 0.95 66.9 0.7 71.5 0.6 73.25 2.25 79.55 3.85 85.75 4.55 86.55 4.3869140625 88.5025390625 12.55 93.45 20.714453125 98.450390625 27.25 97.3 33.782421875 96.1494140625 40.95 91.6 48.176953125 87.04765625 48.8 82.4 49.41796875 77.75625 49.7 71.7 49.9783203125 65.683984375 48.35 62.85 46.7123046875 60.0203125 44.25 54.9 41.8423828125 49.832421875 40.4 45.9 39.00234375 42.008203125 42.95 34.8 44 32.8 45.1 32 45.9439453125 31.4458984375 51.35 30.7 56.765234375 30.0103515625 59.8 27.05 62.87890625 24.14609375 64.9 20 66.9763671875 15.846875 66.5 11.1 66.0208984375 6.405078125 61.85 2.3 57.72265625 -1.7521484375 54.45 -3.2
M 41 3.45
Q 44.5037109375 1.7962890625 48.25 1.95 52.038671875 2.1111328125 56.4 5.9 60.7650390625 9.68515625 59.55 12.4 59.70546875 13.5498046875 57.85 15.3 55.9958984375 17.1 52.35 17.9 48.7013671875 18.7498046875 46.1 19.45 41.6 20.7 39.3 23 37.65 24.6 35.7 29.1 32.397265625 37.1955078125 31.4 44.55 30.4078125 51.9119140625 32.25 55.45 34.0927734375 58.9919921875 36.2 65.3 38.3509765625 71.5958984375 36.3 77.65 34.2505859375 83.703125 30.8 86.25 27.29609375 88.8482421875 25.3 89.8 23.3111328125 90.7548828125 16.8 88.3 10.338671875 85.894921875 8.25 83.55 6.1537109375 81.2015625 5.25 77.8 4.256640625 74.151953125 3.95 72.35 3.6404296875 70.5369140625 5 66.4 6.4064453125 62.3228515625 7.1 60.7 7.7994140625 59.0671875 13.65 55.2 19.5431640625 51.3412109375 23.1 48.25 26.6525390625 45.1525390625 30.4 35.5 33.7 27 34.45 16.6 34.7 13.4 34.8 12.4 35.15 10.1 35.9 8.45 37.45 5.15 41 3.45
M 60.2 16.55
Q 60.205859375 16.597265625 60.2 16.65 59.49453125 19.6287109375 56.45 23.4 53.4552734375 27.22578125 44.85 27.1
L 39.85 30.7
Q 39.41640625 32.484375 37.95 36.95 34.33515625 47.948046875 36.35 50.45 38.3646484375 53 41.55 60.75 44.7955078125 68.5001953125 45.25 70.1 45.45 70.8 44.65 76 43.7 82.05 42.35 84.3 40.6783203125 86.2900390625 38.2 88.2 35.25 90.45 24.9 93.7 16.828125 93.694921875 11.2 89.25
L 11.25 89.3
Q 13.95 90.8 17.8 91.2 21.75 91.7 25 91.1 29.25 90.3 32.8 87.45 36.25 84.65 38.15 80.65 40 76.75 40.1 72.25 40.2 67.8 38.65 63.65 38.15 62.3 36.5 59 35.05 56.1 34.45 54.3 33.9095703125 52.7078125 33.6 51 33.0046875 45.5759765625 34.3 40.05 36.6 32.65 36.5 32.55
L 36.45 32.55
Q 37.25 30.35 38.1 28.55 39.05 27.3 40.3 25.8 42.8 22.9 44.7 21.9 59.25 17.9 60.2 16.55 Z"/>

<path fill="#48311A" stroke="none" d="
M 60.2 16.65
Q 60.205859375 16.597265625 60.2 16.55 59.25 17.9 44.7 21.9 42.8 22.9 40.3 25.8 39.05 27.3 38.1 28.55 37.25 30.35 36.45 32.55
L 36.5 32.55
Q 36.6 32.65 34.3 40.05 33.0046875 45.5759765625 33.6 51 33.9095703125 52.7078125 34.45 54.3 35.05 56.1 36.5 59 38.15 62.3 38.65 63.65 40.2 67.8 40.1 72.25 40 76.75 38.15 80.65 36.25 84.65 32.8 87.45 29.25 90.3 25 91.1 21.75 91.7 17.8 91.2 13.95 90.8 11.25 89.3
L 11.2 89.25
Q 16.828125 93.694921875 24.9 93.7 35.25 90.45 38.2 88.2 40.6783203125 86.2900390625 42.35 84.3 43.7 82.05 44.65 76 45.45 70.8 45.25 70.1 44.7955078125 68.5001953125 41.55 60.75 38.3646484375 53 36.35 50.45 34.33515625 47.948046875 37.95 36.95 39.41640625 32.484375 39.85 30.7
L 44.85 27.1
Q 53.4552734375 27.22578125 56.45 23.4 59.49453125 19.6287109375 60.2 16.65
M 21.1 73.5
Q 22.45 72.25 22.8 70.1 23.1 68 22.2 66.25 21.25 64.6 19.65 64.35 18.05 64.1 16.7 65.45 15.3 66.8 15 68.9 14.65 71.05 15.6 72.7 16.5 74.4 18.1 74.65 19.7 74.9 21.1 73.5 Z"/>

<path fill="#CC9966" stroke="none" d="
M 48.25 1.95
Q 44.5037109375 1.7962890625 41 3.45 37.45 5.15 35.9 8.45 35.15 10.1 34.8 12.4 34.7 13.4 34.45 16.6 33.7 27 30.4 35.5 26.6525390625 45.1525390625 23.1 48.25 19.5431640625 51.3412109375 13.65 55.2 7.7994140625 59.0671875 7.1 60.7 6.4064453125 62.3228515625 5 66.4 3.6404296875 70.5369140625 3.95 72.35 4.256640625 74.151953125 5.25 77.8 6.1537109375 81.2015625 8.25 83.55 10.338671875 85.894921875 16.8 88.3 23.3111328125 90.7548828125 25.3 89.8 27.29609375 88.8482421875 30.8 86.25 34.2505859375 83.703125 36.3 77.65 38.3509765625 71.5958984375 36.2 65.3 34.0927734375 58.9919921875 32.25 55.45 30.4078125 51.9119140625 31.4 44.55 32.397265625 37.1955078125 35.7 29.1 37.65 24.6 39.3 23 41.6 20.7 46.1 19.45 48.7013671875 18.7498046875 52.35 17.9 55.9958984375 17.1 57.85 15.3 59.70546875 13.5498046875 59.55 12.4 60.7650390625 9.68515625 56.4 5.9 52.038671875 2.1111328125 48.25 1.95
M 25.1 64.45
Q 26.7 67.35 26.15 70.95 25.6 74.55 23.2 76.85 20.8 79.1 17.95 78.65 15.1 78.25 13.5 75.4 11.85 72.45 12.4 68.85 12.95 65.25 15.4 63 17.75 60.75 20.6 61.15 23.45 61.6 25.1 64.45 Z"/>

<path fill="#151515" stroke="none" d="
M 26.15 70.95
Q 26.7 67.35 25.1 64.45 23.45 61.6 20.6 61.15 17.75 60.75 15.4 63 12.95 65.25 12.4 68.85 11.85 72.45 13.5 75.4 15.1 78.25 17.95 78.65 20.8 79.1 23.2 76.85 25.6 74.55 26.15 70.95
M 22.8 70.1
Q 22.45 72.25 21.1 73.5 19.7 74.9 18.1 74.65 16.5 74.4 15.6 72.7 14.65 71.05 15 68.9 15.3 66.8 16.7 65.45 18.05 64.1 19.65 64.35 21.25 64.6 22.2 66.25 23.1 68 22.8 70.1 Z"/>
</g>

<g id="bard_guitar_0_Layer2_0_FILL">
<path fill="#CC9966" stroke="none" d="
M 46.1 19.45
Q 48.7013671875 18.7498046875 52.35 17.9 55.9958984375 17.1 57.85 15.3 59.70546875 13.5498046875 59.55 12.4 60.7650390625 9.68515625 56.4 5.9 52.038671875 2.1111328125 48.25 1.95 44.5037109375 1.7962890625 41 3.45 37.45 5.15 35.9 8.45 35.15 10.1 34.8 12.4 34.7 13.4 34.45 16.6 33.7 27 30.4 35.5 26.6525390625 45.1525390625 23.1 48.25 19.5431640625 51.3412109375 13.65 55.2 7.7994140625 59.0671875 7.1 60.7 6.4064453125 62.3228515625 5 66.4 3.6404296875 70.5369140625 3.95 72.35 4.256640625 74.151953125 5.25 77.8 6.1537109375 81.2015625 8.25 83.55 10.338671875 85.894921875 16.8 88.3 23.3111328125 90.7548828125 25.3 89.8 27.29609375 88.8482421875 30.8 86.25 34.2505859375 83.703125 36.3 77.65 38.3509765625 71.5958984375 36.2 65.3 34.0927734375 58.9919921875 32.25 55.45 30.4078125 51.9119140625 31.4 44.55 32.397265625 37.1955078125 35.7 29.1 37.65 24.6 39.3 23 41.6 20.7 46.1 19.45
M 25.1 64.45
Q 26.7 67.35 26.15 70.95 25.6 74.55 23.2 76.85 20.8 79.1 17.95 78.65 15.1 78.25 13.5 75.4 11.85 72.45 12.4 68.85 12.95 65.25 15.4 63 17.75 60.75 20.6 61.15 23.45 61.6 25.1 64.45 Z"/>
</g>

<g id="bard_guitar_0_Layer1_0_FILL">
<path fill="#FFFFFF" stroke="none" d="
M 22.45 50.05
Q 15.95 65.75 10.3 81.85 11.85 78.5 13.5 75.2 18.85 64.35 23.35 53.1 27.95 41.65 32.5 30 37.05 18.25 40.95 6.3 38.25 12.5 35.6 18.75 29 34.4 22.45 50.05
M 25.7 52.55
Q 19.2 68.25 13.55 84.35 15.1 81 16.75 77.7 22.1 66.85 26.6 55.6 31.2 44.15 35.75 32.5 40.3 20.75 44.2 8.8 41.5 15 38.85 21.25 32.25 36.9 25.7 52.55 Z"/>
</g>

<g id="bard_guitar_0_Layer0_0_FILL">
<path fill="#000000" stroke="none" d="
M 45.6 22.5
Q 44.25 22.3 41.4 23.25 38.65 24.1 38.35 24.6 37.45 25.85 38 28.95 36.5 29.45 34.3 32.5 32.4 35.2 32.25 36.05 32.1 37 32.45 39.4 32.8 41.75 33.05 42.3 39.1 47.05 39.7 47 40.6513671875 47.0021484375 43 46.9 45.34296875 46.800390625 49.55 40.6 53.8041015625 34.3970703125 53.4 30.9 53.25 29.4 49.7 25.9 46.4 22.6 45.6 22.5
M 41.55 30.45
Q 41.6 30.2 41.05 29.3 40.5 28.35 40.4 28.15 40.15 27.6 41.75 26.5 43.25 25.45 43.7 25.55 45 25.65 46.1 26.7 47.1 27.6 47.35 28.9 47.5 29.5 47.25 32.15 46.9 34.9 46.5 35.95 46.25 36.65 44.25 39.2 42.6 41.4 41.95 42.05 41.75 42.25 40.25 42.8 38.7 43.35 38.35 43.35 38 43.4 36.15 41.45 34.3 39.5 34.15 38.85 34 38.05 35.9 34.8 37.9 31.45 39 31.3 41.4 30.95 41.55 30.45 Z"/>

<path fill="#FFFFFF" stroke="none" d="
M 41.05 29.3
Q 41.6 30.2 41.55 30.45 41.4 30.95 39 31.3 37.9 31.45 35.9 34.8 34 38.05 34.15 38.85 34.3 39.5 36.15 41.45 38 43.4 38.35 43.35 38.7 43.35 40.25 42.8 41.75 42.25 41.95 42.05 42.6 41.4 44.25 39.2 46.25 36.65 46.5 35.95 46.9 34.9 47.25 32.15 47.5 29.5 47.35 28.9 47.1 27.6 46.1 26.7 45 25.65 43.7 25.55 43.25 25.45 41.75 26.5 40.15 27.6 40.4 28.15 40.5 28.35 41.05 29.3 Z"/>
</g>

<g id="bard_hand_2_Layer0_0_FILL">
<path fill="#000000" stroke="none" d="
M 18.9 -5.8
L 15.5 -7.75
Q 15.55 -10.1 14.5 -11.7 10.05 -17.65 2.35 -12.6 0.35 -12 -1.25 -10.8 -3.3 -9.3 -2.9 -6.85 -2.15 -2.55 -2.7 1.5 -3.3 6.05 0.25 8.8 7.4 14.55 15.95 7.85 16.7 6.05 16.3 4.5 16.15 3.85 16.25 2.85 20.45 -1.05 18.9 -5.8
M 0.1 -8.05
Q 1.45 -9.65 3.1 -9.75 4.85 -9.75 6.05 -7.75 5.3 -10.5 7.65 -11.85 10.2 -13 12.3 -11.55 14.5 -10.2 10.8 -4.1
L 15.65 -3.75
Q 16.75 1.8 10.2 1.6
L 13.35 4.5
Q 12.6 9.8 8.1 7.9
L 7.05 2.35
Q 6.2 6.65 5.4 6.65 -0.9 5.9 2.15 -2.7 0.25 -3.45 -0.5 -5.15 -1.25 -6.55 0.1 -8.05 Z"/>

<path fill="#FFFFFF" stroke="none" d="
M 3.1 -9.75
Q 1.45 -9.65 0.1 -8.05 -1.25 -6.55 -0.5 -5.15 0.25 -3.45 2.15 -2.7 -0.9 5.9 5.4 6.65 6.2 6.65 7.05 2.35
L 8.1 7.9
Q 12.6 9.8 13.35 4.5
L 10.2 1.6
Q 16.75 1.8 15.65 -3.75
L 10.8 -4.1
Q 14.5 -10.2 12.3 -11.55 10.2 -13 7.65 -11.85 5.3 -10.5 6.05 -7.75 4.85 -9.75 3.1 -9.75 Z"/>
</g>
</defs>

<g transform="matrix( 1, 0, 0, 1, 413.85,304) ">
<g transform="matrix( 1, 0, 0, 1, 5.1,-47) ">
<g transform="matrix( 1, 0, 0, 1, 0,0) ">
<use xlink:href="#bard_idle_death_2_Layer7_0_FILL"/>
</g>

<g transform="matrix( 1, 0, 0, 1, 52.5,34.4) ">
<g transform="matrix( 1, 0, 0, 1, 0,0) ">
<use xlink:href="#bard_feather_0_Layer0_0_FILL"/>
</g>
</g>

<g transform="matrix( 1, 0, 0, 1, 39.1,81.7) ">
<g transform="matrix( 1, 0, 0, 1, 0,0) ">
<use xlink:href="#bard_hat_0_Layer0_0_FILL"/>
</g>
</g>

<g transform="matrix( 1, 0, 0, 1, 57.85,135.4) ">
<g transform="matrix( 1, 0, 0, 1, 0,0) ">
<use xlink:href="#bard_body_0_Layer0_0_FILL"/>
</g>
</g>

<g transform="matrix( 1, 0, 0, 1, 69.4,117.95) ">
<g transform="matrix( 1, 0, 0, 1, 0,0) ">
<use xlink:href="#bard_mustache_0_Layer0_0_FILL"/>
</g>
</g>

<g transform="matrix( 1, 0, 0, 1, 84.75,86.75) ">
<g transform="matrix( 1, 0, 0, 1, 0,0) ">
<use xlink:href="#bard_guitar_0_Layer3_0_FILL"/>
</g>

<g transform="matrix( 1, 0, 0, 1, 0,0) ">
<use xlink:href="#bard_guitar_0_Layer2_0_FILL"/>
</g>

<g transform="matrix( 1, 0, 0, 1, 0,0) ">
<use xlink:href="#bard_guitar_0_Layer1_0_FILL"/>
</g>

<g transform="matrix( 1, 0, 0, 1, 0,0) ">
<use xlink:href="#bard_guitar_0_Layer0_0_FILL"/>
</g>
</g>

<g transform="matrix( 1, 0, 0, 1, 87.85,146.75) ">
<g transform="matrix( 1, 0, 0, 1, 0,0) ">
<use xlink:href="#bard_hand_2_Layer0_0_FILL"/>
</g>
</g>
</g>
</g>
</svg>
