
<svg xmlns="http://www.w3.org/2000/svg" version="1.1" xmlns:xlink="http://www.w3.org/1999/xlink" preserveAspectRatio="none" x="0px" y="0px" width="1000px" height="1000px" viewBox="0 0 1000 1000">
<defs>
<g id="Symbol_1_0_Layer0_0_FILL">
<path fill="#000000" stroke="none" d="
M 95.55 15.7
Q 91.469140625 12.824609375 87.9 10 84.387890625 7.1671875 78.2 4.4
L 77.2 9.95
Q 46.433984375 11.5439453125 37.3 9.95 28.2158203125 8.4087890625 26.6 3.25
L 2.65 -0.25 6.9 13.1 1.1 27.05
Q 14.8759765625 28.2396484375 17.3 28.15 19.7822265625 28.055078125 24.9 23.4 30.0552734375 18.748828125 30.5 18.75
L 77.65 18.95 79.35 24.7
Q 82.8587890625 23.634375 95.55 15.7
M 91.85 15.45
L 82.55 18.9 81.35 10.15 91.85 15.45
M 77.1 13.45
L 77.4 15.85 12.25 15.8 9.8 14.15 10.1 13.45 77.1 13.45
M 23.1 6.1
Q 27.95 10.6 28.25 10.7
L 10.7 10.65
Q 9.9 9.1 9.1 7.55 7.55 4.45 7.65 4.35
L 23.1 6.1
M 5.35 24.85
L 11.15 18.45 23.5 18.6
Q 16.55 27.75 5.35 24.85 Z"/>

<path fill="#0099FF" stroke="none" d="
M 11.15 18.45
L 5.35 24.85
Q 16.55 27.75 23.5 18.6
L 11.15 18.45
M 28.25 10.7
Q 27.95 10.6 23.1 6.1
L 7.65 4.35
Q 7.55 4.45 9.1 7.55 9.9 9.1 10.7 10.65
L 28.25 10.7 Z"/>

<path fill="#CC6600" stroke="none" d="
M 77.4 15.85
L 77.1 13.45 10.1 13.45 9.8 14.15 12.25 15.8 77.4 15.85 Z"/>

<path fill="#FFFFFF" stroke="none" d="
M 82.55 18.9
L 91.85 15.45 81.35 10.15 82.55 18.9 Z"/>
</g>
</defs>

<g transform="matrix( 0.736785888671875, 0, 0, 0.736785888671875, 449.7,402.2) ">
<g transform="matrix( 1, 0, 0, 1, 23.05,120.2) ">
<g transform="matrix( 1, 0, 0, 1, 0,0) ">
<use xlink:href="#Symbol_1_0_Layer0_0_FILL"/>
</g>
</g>
</g>
</svg>
