
<svg xmlns="http://www.w3.org/2000/svg" version="1.1" xmlns:xlink="http://www.w3.org/1999/xlink" preserveAspectRatio="none" x="0px" y="0px" width="1000px" height="1000px" viewBox="0 0 1000 1000">
<defs>
<linearGradient id="Gradient_1" gradientUnits="userSpaceOnUse" x1="57.0125" y1="17" x2="59.3875" y2="35" spreadMethod="pad">
<stop  offset="0%" stop-color="#999999"/>

<stop  offset="100%" stop-color="#FFFFFF"/>
</linearGradient>

<linearGradient id="Gradient_2" gradientUnits="userSpaceOnUse" x1="57.262499999999996" y1="50.412499999999994" x2="64.33749999999999" y2="96.0875" spreadMethod="pad">
<stop  offset="0%" stop-color="#999999"/>

<stop  offset="100%" stop-color="#FFFFFF"/>
</linearGradient>

<g id="Duplicate_Items_Folder_Crossbow_cape_copy_4_Layer0_0_FILL">
<path fill="#000000" stroke="none" d="
M 76.1 -51.25
Q 72.958984375 -51.9044921875 75.3 -56.25 77.6361328125 -60.540234375 78.65 -65.9 72.0958984375 -68.7712890625 69.2 -66.95 66.5646484375 -65.2447265625 65.95 -64.4 69.7580078125 -70.6912109375 62.4 -75.95 59.225390625 -72.537890625 56.8 -69.7 56.9591796875 -74.2359375 47.2 -78.4
L 43.75 -69.75 34.8 -76
Q 23.63359375 -64.83203125 25.2 -60.05 26.8197265625 -55.2146484375 28.7 -52.35 24.259765625 -54.8267578125 23.25 -54.5 22.65 -54.25 18.35 -49.5 14 -44.6 14.45 -44.25 14.9 -43.95 21.75 -37.3 28.9 -30.35 29.5 -29.85
L 27.35 -22.7
Q 27.25 -22.6 19.15 -23.75 19.65 -22.85 15.35 3.55 11 30.2 11.4 31.5
L 17.5 40.85
Q 19.6 42.35 26.95 44.4 33.85 46.3 35.7 46.2 37.3 46.2 41.2 42.1 45.05 38 45.1 36.25 45.2748046875 32.8712890625 60.8 -16.25 58 -19.5 56.15 -20.7
L 60.6 -29.8
Q 66.4580078125 -30.4501953125 84.05 -45.2 79.2818359375 -50.5431640625 76.1 -51.25
M 47.1 -67
L 47.25 -66.95
Q 47.6 -66.8 47.8 -61.75 47.95 -56.8 47.7 -56.05 44.55 -47 44.4 -46.35 44.8 -46.15 47.95 -52.05 49.5 -55.05 51 -58.05 51.3 -57.85 50.75 -47.35 55.05 -60.7 55.35 -61.15 56.4 -62.7 60.25 -64.3 60.65 -60.95 59.5 -57.65 58.85 -55.75 57.8 -52.25 56.8 -48.9 56.8 -48.7 57.1 -48.35 60.1 -52.4 61.6 -54.4 63.25 -56.75 64.55 -57.75 67.15 -59.05 69.95 -60.4 70.35 -60.1 70.620703125 -59.9208984375 70.85 -59.65
L 61.35 -45.15
Q 62.3 -45.95 66.85 -45.85 69.1 -45.75 71.15 -45.55 71.3708984375 -45.019921875 66.8 -40.7 66.18828125 -40.1359375 65.5 -39.5 59.95 -34.4 57.6 -32.75 57.45 -32.65 54.3 -34.1
L 53.95 -34.25 50.6 -32.65
Q 49.8384765625 -32.2654296875 49.7 -32.3 48 -35.2 47.5 -34.7 45.8666015625 -33.0666015625 44.2 -31.45 43.7166015625 -30.9166015625 43.2 -30.4 42.5 -31.05 41.6 -33.55 40.7 -35.9 40.6 -35.95 39.05 -35.35 37.45 -34.8 34.2 -33.7 33.75 -33.85 33.15 -34.05 29.8 -37.85 26.55 -41.6 24.85 -44 25.1 -44.85 27.65 -45.7 27.7673828125 -45.7380859375 27.85 -45.8 29.4537109375 -46.2671875 30.85 -46.5
L 36.1 -43.4
Q 36.2291015625 -43.3291015625 36.25 -43.35
L 35 -47.5
Q 33.88203125 -51.3642578125 33 -55.35 32.3853515625 -58.06171875 33.65 -60.25 34 -60.8 36.7 -62.65
L 39.9 -51.7
Q 39.9783203125 -51.7783203125 40.1 -52.05 40.5294921875 -52.9109375 41.5 -55.9 42.9 -60.3 43.35 -61.25 43.9 -62.55 45.25 -64.75 46.55 -66.9 46.8 -67
L 47.1 -67
M 36.15 -31.15
Q 39.35 -32.5 39.45 -32.25
L 42 -28.5
Q 42.25 -28.45 42.95 -28.45 43.85 -28.5 44.15 -28.7
L 47 -31.6 47.75 -29.85 49.95 -30.05
Q 52.25 -30.35 52.45 -30.55 52.55 -30.65 53.45 -29.7 54.4 -28.7 54.5 -28.7
L 51.85 -21 42.6 -21.05 40 -20.9 36.4 -20.9 36.15 -31.15
M 26.3 -1.9
L 30.5 -3 52.2 -9.85
Q 38.75 38.7 38.4 38.8 30.95 41.6 23.55 37.95 21.35 36.7 20.9 34.15 20.55 32.1 23.3 15.75 24.7 7.45 26.3 -1.9
M 31.15 -6.95
L 28 -6.1 30.35 -16.35 38.3 -16.75
Q 44.5 -16.85 50.7 -16.85 52.25 -17.05 53.45 -16.05
L 53.6 -15.25
Q 53.15 -12.95 50.75 -12.35 40.9 -9.75 31.15 -6.95 Z"/>

<path fill="#0099FF" stroke="none" d="
M 38.3 -16.75
L 32.85 -11.75 53.6 -15.25 53.45 -16.05
Q 52.25 -17.05 50.7 -16.85 44.5 -16.85 38.3 -16.75
M 36.1 -43.4
L 30.85 -46.5
Q 29.4537109375 -46.2671875 27.85 -45.8
L 37.35 -38.95 36.1 -43.4
M 40.1 -52.05
Q 39.9783203125 -51.7783203125 39.9 -51.7
L 36.7 -62.65
Q 34 -60.8 33.65 -60.25
L 38.35 -42.2 40.1 -52.05
M 70.35 -60.1
L 62.85 -50.15 53.95 -34.25 54.3 -34.1 54.9 -34.5 66.8 -40.7
Q 71.3708984375 -45.019921875 71.15 -45.55 69.1 -45.75 66.85 -45.85 62.3 -45.95 61.35 -45.15
L 70.85 -59.65
Q 70.620703125 -59.9208984375 70.35 -60.1
M 47.25 -66.95
L 47.1 -67
Q 46.35 -64.1 45.4 -61.2 43.55 -55.35 43.1 -54.95
L 40.85 -39.8 49.45 -49.1 44.2 -31.45
Q 45.8666015625 -33.0666015625 47.5 -34.7 48 -35.2 49.7 -32.3 49.8384765625 -32.2654296875 50.6 -32.65
L 50.6 -35.8 63.25 -56.75
Q 61.6 -54.4 60.1 -52.4 57.1 -48.35 56.8 -48.7 56.8 -48.9 57.8 -52.25 58.85 -55.75 59.5 -57.65 60.65 -60.95 60.25 -64.3 56.4 -62.7 55.35 -61.15 55.05 -60.7 50.75 -47.35 51.3 -57.85 51 -58.05 49.5 -55.05 47.95 -52.05 44.8 -46.15 44.4 -46.35 44.55 -47 47.7 -56.05 47.95 -56.8 47.8 -61.75 47.6 -66.8 47.25 -66.95 Z"/>

<path fill="#FFFFFF" stroke="none" d="
M 31.15 -6.95
L 32.85 -11.75 38.3 -16.75 30.35 -16.35 28 -6.1 31.15 -6.95 Z"/>

<path fill="#3333CC" stroke="none" d="
M 32.85 -11.75
L 31.15 -6.95
Q 40.9 -9.75 50.75 -12.35 53.15 -12.95 53.6 -15.25
L 32.85 -11.75
M 65.5 -39.5
Q 66.18828125 -40.1359375 66.8 -40.7
L 54.9 -34.5 54.3 -34.1
Q 57.45 -32.65 57.6 -32.75 59.95 -34.4 65.5 -39.5
M 62.85 -50.15
L 70.35 -60.1
Q 69.95 -60.4 67.15 -59.05 64.55 -57.75 63.25 -56.75
L 50.6 -35.8 50.6 -32.65 53.95 -34.25 62.85 -50.15
M 47.1 -67
L 46.8 -67
Q 46.55 -66.9 45.25 -64.75 43.9 -62.55 43.35 -61.25 42.9 -60.3 41.5 -55.9 40.5294921875 -52.9109375 40.1 -52.05
L 38.35 -42.2 33.65 -60.25
Q 32.3853515625 -58.06171875 33 -55.35 33.88203125 -51.3642578125 35 -47.5
L 36.25 -43.35
Q 36.2291015625 -43.3291015625 36.1 -43.4
L 37.35 -38.95 27.85 -45.8
Q 27.7673828125 -45.7380859375 27.65 -45.7 25.1 -44.85 24.85 -44 26.55 -41.6 29.8 -37.85 33.15 -34.05 33.75 -33.85 34.2 -33.7 37.45 -34.8 39.05 -35.35 40.6 -35.95 40.7 -35.9 41.6 -33.55 42.5 -31.05 43.2 -30.4 43.7166015625 -30.9166015625 44.2 -31.45
L 49.45 -49.1 40.85 -39.8 43.1 -54.95
Q 43.55 -55.35 45.4 -61.2 46.35 -64.1 47.1 -67 Z"/>

<path fill="#CC6600" stroke="none" d="
M 52.2 -9.85
L 30.5 -3 23.55 37.95
Q 30.95 41.6 38.4 38.8 38.75 38.7 52.2 -9.85 Z"/>

<path fill="#FFC700" stroke="none" d="
M 30.5 -3
L 26.3 -1.9
Q 24.7 7.45 23.3 15.75 20.55 32.1 20.9 34.15 21.35 36.7 23.55 37.95
L 30.5 -3
M 49.95 -30.05
L 47.75 -29.85 47 -31.6 44.15 -28.7 42.6 -21.05 51.85 -21 54.5 -28.7
Q 54.4 -28.7 53.45 -29.7 52.55 -30.65 52.45 -30.55 52.25 -30.35 49.95 -30.05
M 36.4 -20.9
L 40 -20.9 42 -28.5 39.45 -32.25 36.4 -20.9 Z"/>

<path fill="#793C00" stroke="none" d="
M 44.15 -28.7
Q 43.85 -28.5 42.95 -28.45 42.25 -28.45 42 -28.5
L 40 -20.9 42.6 -21.05 44.15 -28.7
M 39.45 -32.25
Q 39.35 -32.5 36.15 -31.15
L 36.4 -20.9 39.45 -32.25 Z"/>
</g>

<g id="Duplicate_Items_Folder_Archer_Body_4_Layer0_0_FILL">
<path fill="#000000" stroke="none" d="
M 50.55 45.35
Q 53.5 34.15 53.5 29.15 53.5 27.4 50.5 24.6 47.9 22.1 47.05 21.95 30.6 19.9 13.75 21.35 13.4 21.85 10.55 27.5 7.55 33.5 7.4 34.4 7.05 36.5 7.05 39.9 7.05 41.95 8.5 50.3 8.35 57.6 18.45 58.8 25.25 59.45 32 60.85 37.5 60.75 43 60.4 49.35 60.05 47.85 55.9 47.85 55.8 50.55 45.35
M 41.05 24.95
L 42.4 29.9
Q 42.65 31.15 42.7 34.3 42.75 37.85 42.4 39.05 39.8 47.9 40.5 56.9
L 40.8 58 33.4 58.1
Q 24.1 50.6 12.7 44.7 11.7 44.25 11.85 37.1 12 29.4 13.85 25.6 16.65 25.2 25.75 24.85 36.65 24.4 41.05 24.95
M 17.75 50.65
L 20.25 52.7 15.25 49.35 17.75 50.65 Z"/>

<path fill="#3333CC" stroke="none" d="
M 20.25 52.7
L 17.75 50.65 15.25 49.35 20.25 52.7
M 42.4 29.9
L 41.05 24.95
Q 36.65 24.4 25.75 24.85 16.65 25.2 13.85 25.6 12 29.4 11.85 37.1 11.7 44.25 12.7 44.7 24.1 50.6 33.4 58.1
L 40.8 58 40.5 56.9 34.35 56.4 13.95 43.5 15.25 36.45 42.4 29.9 Z"/>

<path fill="#0099FF" stroke="none" d="
M 42.7 34.3
Q 42.65 31.15 42.4 29.9
L 15.25 36.45 13.95 43.5 34.35 56.4 40.5 56.9
Q 39.8 47.9 42.4 39.05 42.75 37.85 42.7 34.3 Z"/>
</g>

<g id="Archer_Bow_0_Layer0_0_FILL">
<path fill="#000000" stroke="none" d="
M 9.85 -25.3
Q 1.1 -9.45 1.45 -6.75 2 -3.05 5.45 2.55 9.35 8.85 10.2 11.65 11.35 15.55 10.9 20.35 10.55 24.05 9.1 29 3.1478515625 50.3009765625 -9.2 60.6 -21.5392578125 70.94921875 -38.5 84.1 -55.4693359375 97.2453125 -44.3 102.55 -33.1333984375 107.9056640625 -24.55 114.35 -15.9052734375 120.7978515625 -15.1 125.8 -14.9955078125 126.5458984375 -19.15 138.85 -19.93125 141.1900390625 -39.8 156.5 27.7857421875 196.4892578125 48.9 210.45 49.2189453125 217.598828125 48.35 229.3 46.8 249.75 47.1 250.85 47.75 253.25 62.7 263.4 77.35 273.35 79 273.2 79.8 273.15 88.1 253.15 96.3 233.4 96.5 231.7 96.9 227.8 74.95 195.6 51.2560546875 161.59765625 48.85 153.75 46.4826171875 145.897265625 39.95 127.5 33.4220703125 109.1017578125 31.85 99.85 30.3326171875 90.6544921875 32.75 78.55 35.154296875 66.448046875 45.1 37.55 54.6 9.8 55.1 7.6 55.95 3.7 47.35 -12.15 39 -27.5 33.25 -33.6 31.15 -35.7 26.15 -38.35 21.1 -41.05 19.5 -40.9 18.4 -40.75 9.85 -25.3
M 23 -20.2
Q 26.3 -27.6 26.65 -27.65 46.95 -0.75 46.9 1.55 46.8 2.7 43.2 12.2 38.95 23.35 38.1 25.95 25.7 66.8 24.95 69.45 23.85 73.5 21.65 86.25 19.05 101.35 18.8 107.95 18.75 109.95 25.35 129.05 32.4 149.5 35.95 155 38 158.35 61 188.75 83.55 218.55 83.95 219.35 84.55 221 83.3 229.1 82 237.35 80.5 241.25 78.48359375 246.5125 74.3 255.1 74.1134765625 255.0658203125 73.9 255 72.0587890625 251.7873046875 69.75 249 67.6 246.7 65.95 244.95 62.85 241.65 62.4 240.5 61.9 239.3 62.4 232.55 63 225.65 63 224.85 63.3318359375 217.478125 62.3 211.85 60.65 202.4 54.8 192.9 49.95 185.05 41.9 176.7 35.1 169.75 12.15 159.65 1.35 155.05 -2.45 153.35 -8.7 150.5 -8.7 149.6 -8.75 148.65 -8.05 147.55 -7.65 146.95 -6.55 145.75 -4 143.05 0.2 134.6 4.75 125.3 3.9 122.55 3.71484375 121.9568359375 3.5 121.35 3.5 120.65 -4.05 111.55 -11.95 102 -14.35 100.8 -15.601953125 100.129296875 -16.2 99.7 -16.4 99.45 -15.3 96.3 -14.15 92.75 -12.5 92.1 8.05 83.85 21.25 55.65 26.1 45.1 28.1 36.1 30.5 25.2 28.95 15.75 28.3 11.6 23.8 0.2 19.55 -10.55 19.6 -11.35 19.65 -12.7 23 -20.2 Z"/>

<path fill="#CC6600" stroke="none" d="
M 63 224.85
Q 63 225.65 62.4 232.55 61.9 239.3 62.4 240.5 62.85 241.65 65.95 244.95 67.6 246.7 69.75 249 71.05 245.1 71.5 236.7 71.95 227 70 224.6 69.05 223.5 66.1 223.8 63.3 224.05 63.05 224.75 63.03203125 224.800390625 63 224.85
M 26.65 -27.65
Q 26.3 -27.6 23 -20.2 19.65 -12.7 19.6 -11.35 19.55 -10.55 23.8 0.2 28.3 11.6 28.95 15.75 30.5 25.2 28.1 36.1 26.1 45.1 21.25 55.65 8.05 83.85 -12.5 92.1 -14.15 92.75 -15.3 96.3 -16.4 99.45 -16.2 99.7 -10.1 97.35 24.95 69.45 25.7 66.8 38.1 25.95 38 9.7 26.65 -27.65 Z"/>

<path fill="#FFC700" stroke="none" d="
M 21.65 86.25
Q 23.85 73.5 24.95 69.45 -10.1 97.35 -16.2 99.7 -15.601953125 100.129296875 -14.35 100.8 -11.95 102 -4.05 111.55 3.5 120.65 3.5 121.35 3.71484375 121.9568359375 3.9 122.55 4.75 125.3 0.2 134.6 -4 143.05 -6.55 145.75 -7.65 146.95 -8.05 147.55 -8.75 148.65 -8.7 149.6 -8.7 150.5 -2.45 153.35 1.35 155.05 12.15 159.65 35.1 169.75 41.9 176.7 49.95 185.05 54.8 192.9 60.65 202.4 62.3 211.85 63.3318359375 217.478125 63 224.85 63.03203125 224.800390625 63.05 224.75 63.3 224.05 66.1 223.8 69.05 223.5 70 224.6 71.95 227 71.5 236.7 71.05 245.1 69.75 249 72.0587890625 251.7873046875 73.9 255 74.1134765625 255.0658203125 74.3 255.1 78.48359375 246.5125 80.5 241.25 82 237.35 83.3 229.1 84.55 221 83.95 219.35 83.55 218.55 61 188.75 38 158.35 35.95 155 32.4 149.5 25.35 129.05 18.75 109.95 18.8 107.95 19.05 101.35 21.65 86.25
M 43.2 12.2
Q 46.8 2.7 46.9 1.55 46.95 -0.75 26.65 -27.65 38 9.7 38.1 25.95 38.95 23.35 43.2 12.2 Z"/>
</g>

<g id="Archer_Arrow_0_Layer0_0_FILL">
<path fill="#000000" stroke="none" d="
M 39.7 -4.2
Q 38 -5.6 36.05 -5.6 34.1 -5.6 32 -4.15 30.9 -3.35 28.6 -1.2 19.65 7.05 8.8 11.25 4.95 12.75 -2.85 15.2 -7.95 17.05 -12.7 19.4 -16.7 21.4 -17.05 23.8 -17.55 27.5 -11.1 29.95 -1 33.65 12.2 37.55 19.25 39.65 35.85 44.2 39.25 45.15 40.85 44.25 42.5 43.4 43.55 39.8
L 46.65 29
Q 54.7 28.7 73.05 25.95 85.968359375 24.00078125 94.5 23.55 95.3306640625 23.6216796875 96.4 23.7 98.0677734375 23.7462890625 99.2 23.45 99.3107421875 23.449609375 99.4 23.45 101.4140625 23.45 102.5 22.9 123.01875 22.477734375 143.5 21.45 148 21.15 150.3 20.75 150.5642578125 20.6900390625 151 20.55 151.98515625 20.819140625 153.85 21 154.0140625 21.164453125 154.2 21.3
L 160.85 26.45
Q 161.5916015625 27.0197265625 162.25 27.55
L 167.25 33.85
Q 169.1 36.2 170.65 37.3 170.964453125 37.533984375 171.25 37.7 171.3146484375 37.8146484375 171.35 37.9 172.1 39.75 172.3 40.05 172.9 41.25 173.7 41.75 174.85 42.5 176.35 42.2 177.8 41.9 178.8 40.8 180.35 39.05 180.45 35.7 182.6 36.95 183.55 37.35 185.3 38.1 186.9 38.1 188.7 38.1 190.15 36.85 191.6 35.6 191.4 33.95 191.3 32.65 190.1 31.35 189.9728515625 31.265234375 188.35 29.8 187.9912109375 28.241015625 186.95 26.7 185.3 24.7 184.5 23.65 183.9216796875 22.912109375 183.5 22.2 183.239453125 20.78828125 183.4 19.45 184.7330078125 17.95234375 185.5 15.1 186.2154296875 14.2064453125 187.25 13.15 189.6 10.7 190.35 9.2 191.3 7.2 190.65 5.8 190.2892578125 5.0359375 189.6 4.5 189.6892578125 4.0921875 189.65 3.7 189.5 1.9 187.35 1.3 185.3 0.75 183.35 1.5 181 2.65 179.8 3.2 179.77421875 3.2123046875 179.75 3.2 178.2546875 2.9705078125 177.25 2.35 176.9591796875 2.2046875 176.35 1.75 176.2802734375 1.6205078125 176.2 1.5 175.3333984375 0.1568359375 174 0 173.612890625 -0.19921875 173.25 -0.3 170.15 -1.4 165.9 2.75
L 153.65 14.75
Q 153.6220703125 14.7794921875 153.6 14.8 153.328515625 14.7828125 153 14.75 144.1 14.5 126.2 14.6 126.15 14.6 113.5 14.75 102.6205078125 14.83828125 92.95 14.85
L 78.4 14.4
Q 72.45 13.95 69.5 13.75 64.3 13.4 60.6 13.35 57.85 13.35 56.45 13.3 54.05 13.2 52.3 12.9 50.2 12.45 49.2 12.2 47.9279296875 11.9322265625 46.95 11.8 46.435546875 10.1248046875 45.8 8.15 44.1 3.1 42.9 0.3 42.4560546875 -0.5619140625 42.05 -1.1 41.235546875 -3.000390625 39.7 -4.2
M 184 8.25
Q 183.6181640625 9.3359375 183.2 10.7
L 180.15 16.6
Q 178.7 19.4 178.6 20.95 178.35 23.85 180.75 27.1 181.1 27.55 182.85 29.75 183.673046875 30.73125 184.2 31.55 181.957421875 29.8646484375 180.35 29.25 179.15 28.8 177.95 28.85 176.65 28.9 175.65 29.55 175.6216796875 29.5689453125 175.6 29.6 175.546875 29.569140625 175.5 29.55 175.379296875 29.6939453125 175.25 29.85 174.5322265625 30.4921875 174.25 31.5 173.99921875 32.3154296875 174.15 33 169.3734375 27.496875 163.75 23 161.5900390625 20.28203125 159.5 18.85 159.7 18.5 159.85 18.15 159.85 17.55 159.85 17 159.7005859375 16.765234375 159.55 16.5 162.0330078125 14.33125 163.5 12.9 166.5205078125 9.78359375 168.35 6.75 170.0134765625 5.551953125 171.8 4.45 172.2134765625 4.4875 172.9 4.65 173.039453125 4.8349609375 173.15 5.1
L 173.15 5.1
Q 172.8873046875 5.71171875 173.15 6.5 173.5 7.45 174.35 7.9 175.6220703125 8.5595703125 177.8 7.85 178.2447265625 7.8849609375 178.7 7.85 181.35 7.7 181.65 7.75 183.0693359375 7.791796875 184 8.25
M 31.45 17.4
L 31.05 21.8
Q 30.7 25 30.95 26.9 31.0748046875 27.9158203125 31.35 28.75
L 31.2 28.8
Q 23.7 24.5 18.7 23.7 17.2 23.5 14.05 23.25 12.537890625 23.1037109375 11.05 22.8 15.5748046875 21.52109375 19.75 19.6 25.3310546875 17.70703125 30.7 15.05 30.7880859375 15.45 30.9 15.85 30.9 15.93515625 31.45 17.4 Z"/>

<path fill="#999999" stroke="none" d="
M 31.05 21.8
L 31.45 17.4
Q 30.9 15.93515625 30.9 15.85 30.7880859375 15.45 30.7 15.05 25.3310546875 17.70703125 19.75 19.6 15.5748046875 21.52109375 11.05 22.8 12.537890625 23.1037109375 14.05 23.25 17.2 23.5 18.7 23.7 23.7 24.5 31.2 28.8
L 31.35 28.75
Q 31.0748046875 27.9158203125 30.95 26.9 30.7 25 31.05 21.8 Z"/>

<path fill="#0099FF" stroke="none" d="
M 183.2 10.7
Q 183.6181640625 9.3359375 184 8.25 183.0693359375 7.791796875 181.65 7.75 181.35 7.7 178.7 7.85 178.2447265625 7.8849609375 177.8 7.85 175.6220703125 8.5595703125 174.35 7.9 173.5 7.45 173.15 6.5 172.8873046875 5.71171875 173.15 5.1
L 173.15 5.1
Q 173.039453125 4.8349609375 172.9 4.65 172.2134765625 4.4875 171.8 4.45 170.0134765625 5.551953125 168.35 6.75 166.5205078125 9.78359375 163.5 12.9 162.0330078125 14.33125 159.55 16.5 159.7005859375 16.765234375 159.85 17 159.85 17.55 159.85 18.15 159.7 18.5 159.5 18.85 161.5900390625 20.28203125 163.75 23 169.3734375 27.496875 174.15 33 173.99921875 32.3154296875 174.25 31.5 174.5322265625 30.4921875 175.25 29.85 175.379296875 29.6939453125 175.5 29.55 175.546875 29.569140625 175.6 29.6 175.6216796875 29.5689453125 175.65 29.55 176.65 28.9 177.95 28.85 179.15 28.8 180.35 29.25 181.957421875 29.8646484375 184.2 31.55 183.673046875 30.73125 182.85 29.75 181.1 27.55 180.75 27.1 178.35 23.85 178.6 20.95 178.7 19.4 180.15 16.6
L 183.2 10.7 Z"/>
</g>

<g id="Archer_Head_copy_0_Layer1_0_FILL">
<path fill="#000000" stroke="none" d="
M 98.7 41.45
Q 96.2 39.9 90.55 38.15 84.85 36.4 82.2 35.95 82.25 35.9 82.3 35.85 83.7 34.5 85 32.4 86.3 30.25 86.35 29.15 86.35 28 73.5 11.4 60.65 -5.25 60.35 -5.05 59.8 -5.05 46.55 10.4 33.25 25.8 33.4 27.3 33.5 28.75 35.95 32.45 38.35 36.15 39.65 37.4 37 37.55 27.9 39.1 18.75 40.6 14.8 43.55 10.8 46.45 11 48.55 11.15 50.65 13.35 61.9 14.45 67.8 16.1 76 16.55 79.05 17.25 90.45 17.85 100.05 18.3 100.7 26.4 105.05 27 104.8
L 27.2 105.3
Q 53.938671875 108.6109375 73.35 107.3 92.761328125 105.9890625 94.2 105.75 96 104.8 96.3 104.5 98.2 102.7 101.85 51.55 101.15 43 98.7 41.45
M 91.1 50.45
Q 91.45 53.35 90.85 75.3 90.3 97.5 90.45 99.4 90.3 99.35 88.65 99.75 87.15 100.05 86.5 100.25
L 74.1 103.05
Q 69.6 103.8 65.85 103.95 60.7 104.25 49.45 103.3 39 102.25 38.6 102.2 36.95 102 33.4 101.25 29.45 100.45 28.3 100.05 28.05 99.95 27 98.55 25.9 97.05 25.9 96.5 25.4 74.8 20.7 53.8 20.55 53.15 20.8 51.85 21.05 50.7 21.2 50.6 21.75 50.25 23.95 49.5 31.35 47.6 35.9 46.6 37.35 46.3 50.4 45.1 64.7 43.85 68.05 44.05 68.1 44.05 68.2 44.05
L 68.3 44.05
Q 68.4822265625 44.0955078125 68.7 44.1
L 68.75 44.1
Q 88.9 46.3 89.75 47.05 90.85 48 91.1 50.45
M 64.05 10.65
Q 64.35 11.3 64.75 12 76.5 29.2 76.55 29.75 76.55 29.85 72.75 34.7 68.8 39.7 68.6 40.25 67.85 40.2 65.65 40.05 63.4 39.95 62.6 39.95 60.45 39.9 56.35 40.05 52.55 40.15 51.95 40.25 49.55 35.7 46.35 31.75 44.75 29.6 44.75 29.3 44.75 28.95 45.05 28.5 45.1 28.45 50.8 20.35 56.85 11.25 58.85 6.3 59.8 4.05 60.55 1.75 62.6 7.9 64.05 10.65 Z"/>

<path fill="#FFFFFF" stroke="none" d="
M 44.75 29.3
Q 44.75 29.6 46.35 31.75 47.1 31.65 50.35 30.8 53.65 29.85 53.7 29.65 53.7 29.25 45.05 28.5 44.75 28.95 44.75 29.3
M 64.75 12
Q 64.65 11.9 64.6 11.85 64.2 11.45 64.05 10.65 62.6 7.9 60.55 1.75 59.8 4.05 58.85 6.3 59.55 24.35 59.9 25.9 60.1 26.6 61.6 28.15 63.2 29.75 63.95 29.85 65.05 30.1 72.25 30.35 71 31.75 66.7 35.95 62.7 39.85 62.6 39.95 63.4 39.95 65.65 40.05 67.85 40.2 68.6 40.25 68.8 39.7 72.75 34.7 76.55 29.85 76.55 29.75 76.5 29.2 64.75 12
M 90.85 75.3
Q 91.45 53.35 91.1 50.45 90.85 48 89.75 47.05 88.9 46.3 68.75 44.1
L 68.7 44.1 68.4 44.1 68.3 44.05 68.2 44.05
Q 68.1 44.05 68.05 44.05 78.75 46.25 83.15 52.25 88.05 62.25 86.5 100.25 87.15 100.05 88.65 99.75 90.3 99.35 90.45 99.4 90.3 97.5 90.85 75.3 Z"/>

<path fill="url(#Gradient_1)" stroke="none" d="
M 58.85 6.3
Q 56.85 11.25 50.8 20.35 45.1 28.45 45.05 28.5 53.7 29.25 53.7 29.65 53.65 29.85 50.35 30.8 47.1 31.65 46.35 31.75 49.55 35.7 51.95 40.25 52.55 40.15 56.35 40.05 60.45 39.9 62.6 39.95 62.7 39.85 66.7 35.95 71 31.75 72.25 30.35 65.05 30.1 63.95 29.85 63.2 29.75 61.6 28.15 60.1 26.6 59.9 25.9 59.55 24.35 58.85 6.3 Z"/>

<path fill="#666666" stroke="none" d="
M 25.9 96.5
Q 25.9 97.05 27 98.55 28.05 99.95 28.3 100.05 29.45 100.45 33.4 101.25 36.95 102 38.6 102.2
L 36.8 66.15
Q 35.95 47 35.9 46.6 31.35 47.6 23.95 49.5 21.75 50.25 21.2 50.6 21.05 50.7 20.8 51.85 20.55 53.15 20.7 53.8 25.4 74.8 25.9 96.5 Z"/>

<path fill="url(#Gradient_2)" stroke="none" d="
M 68.05 44.05
Q 64.7 43.85 50.4 45.1 37.35 46.3 35.9 46.6 35.95 47 36.8 66.15
L 38.6 102.2
Q 39 102.25 49.45 103.3 60.7 104.25 65.85 103.95 69.6 103.8 74.1 103.05
L 86.5 100.25
Q 88.05 62.25 83.15 52.25 78.75 46.25 68.05 44.05 Z"/>

<path fill="#999999" stroke="none" d="
M 68.7 44.1
Q 68.4822265625 44.0955078125 68.3 44.05
L 68.4 44.1 68.7 44.1 Z"/>
</g>

<g id="Archer_Head_copy_0_Layer0_0_FILL">
<path fill="#000000" stroke="none" d="
M 80.45 75.65
Q 79.05 74.35 77.1 74.4 75.2 74.45 73.9 75.8 72.65 77.2 72.65 79.1 72.7 81.05 74.05 82.35 75.45 83.65 77.35 83.6 79.3 83.55 80.6 82.2 81.9 80.85 81.85 78.9 81.85 77 80.45 75.65
M 59.2 71.6
Q 56.4 71.65 54.45 73.7 52.5 75.75 52.55 78.55 52.6 81.4 54.65 83.35 56.7 85.3 59.5 85.25 62.3 85.2 64.25 83.15 66.2 81.1 66.15 78.25 66.1 75.45 64.05 73.5 62 71.55 59.2 71.6 Z"/>
</g>
</defs>

<g transform="matrix( 0.736785888671875, 0, 0, 0.736785888671875, 449.7,402.2) ">
<g transform="matrix( 1, 0, 0, 1, 18.2,-1.35) ">
<g transform="matrix( 0.95648193359375, 0.288482666015625, -0.288482666015625, 0.95648193359375, 30.35,46.2) ">
<g transform="matrix( 0.756561279296875, -0.6519622802734375, 0.6519622802734375, 0.756561279296875, -18.4,67.8) ">
<g transform="matrix( 1, 0, 0, 1, 0,0) ">
<use xlink:href="#Duplicate_Items_Folder_Crossbow_cape_copy_4_Layer0_0_FILL"/>
</g>
</g>
</g>

<g transform="matrix( 0.7469482421875, 0.1253662109375, -0.1595306396484375, 0.950531005859375, 46.8,79.05) ">
<g transform="matrix( 1.077880859375, 0, 0, 1, -6.1,2.3) ">
<g transform="matrix( 1, 0, 0, 1, 0,0) ">
<use xlink:href="#Duplicate_Items_Folder_Archer_Body_4_Layer0_0_FILL"/>
</g>
</g>
</g>

<g transform="matrix( -0.681671142578125, -0.4618377685546875, -0.4618377685546875, 0.681671142578125, 146.8,72.4) ">
<g transform="matrix( 0.436004638671875, 0, 0, 0.297637939453125, 25.85,58.8) ">
<g transform="matrix( 1, 0, 0, 1, 0,0) ">
<use xlink:href="#Archer_Bow_0_Layer0_0_FILL"/>
</g>
</g>

<g transform="matrix( 0.435821533203125, 0.007843017578125, -0.0114898681640625, 0.297515869140625, -23.7,84.3) ">
<g transform="matrix( 1, 0, 0, 1, 0,0) ">
<use xlink:href="#Archer_Arrow_0_Layer0_0_FILL"/>
</g>
</g>
</g>

<g transform="matrix( 0.995819091796875, 0.087890625, -0.087890625, 0.995819091796875, 17.45,-1.65) ">
<g transform="matrix( 1, 0, 0, 1, 0,0) ">
<use xlink:href="#Archer_Head_copy_0_Layer1_0_FILL"/>
</g>

<g transform="matrix( 1, 0, 0, 1, 0,0) ">
<use xlink:href="#Archer_Head_copy_0_Layer0_0_FILL"/>
</g>
</g>
</g>
</g>
</svg>
