
<svg xmlns="http://www.w3.org/2000/svg" version="1.1" xmlns:xlink="http://www.w3.org/1999/xlink" preserveAspectRatio="none" x="0px" y="0px" width="1000px" height="1000px" viewBox="0 0 1000 1000">
<defs>
<g id="Carriage_0_Layer1_0_FILL">
<path fill="#000000" stroke="none" d="
M 8.7 262.2
Q 8.95 261.75 9.2 261.35 9.2 260.85 8.7 260.55 8.25 260.3 7.75 260.4 7.05 260.5 6.1 261.55 5.85 261.8 5.65 262.1 5 262.4 4.7 262.9 4.55 263.15 4.5 263.45 1.05 267.75 -3.3 274.8 -9.5 284.85 -12.3 288.45 -16.35 293.65 -17.05 294.8 -19.4 298.55 -19.35 301.95 -19.35 304.15 -18.25 305.1 -17.55 305.7 -16.6 305.65 -15.65 305.6 -15.25 304.85 -14.95 304.3 -15.05 303.45 -15.25 302.45 -15.3 301.95 -15.45 300.7 -14.8 299.3 -14.45 298.4 -13.45 296.8 -1.45 278 5.8 266.7 5.95 266.85 6.15 267 6.45 267.2 8.2 268.25 9.45 269 10.05 269.7 10.45 270.15 11.15 271.35 11.8 272.45 12.3 272.95 13 273.6 14.7 274.55 15.45 275.1 16.2 276.25 16.6 276.85 17.35 278.2 18.15 279.45 20.7 282.8
L 24.95 288
Q 27.25 290.95 28.9 292.6 31.1 294.9 36.55 299.05 41.75 303.05 44.1 305.6 44.8 306.35 46.1 307.85 46.95 308.75 47.6 309.4 42.6431640625 306.932421875 37.45 306.35 28.75 305.45 16.45 310.2 12 311.85 9.1 313.75 5.6 316 1.85 320.25 0.0908203125 322.323046875 -1.45 324.5 -3.021875 323.0205078125 -4.85 321.35 -7.95 318.45 -9 317.3 -10.15 316.1 -12.05 313.7
L -16.2 308.5
Q -16.55 308.25 -16.8 308.75 -16.85 309.1 -16.7 309.5 -15.3 313.9 -11.65 318.6 -10 320.75 -8.8 321.8 -8.35 322.2 -5.7 324.35 -4.5255859375 325.356640625 -3.05 326.95 -6.1103515625 331.81484375 -8.2 337.3 -11.8 346.85 -11.95 356.75 -12.1 368.3 -7.6 377 -3.4 385.05 4.7 390.1 12.75 395.1 21.9 395.45 27.4 395.65 34.6 394.1 49.1 391 60.6 384.1 69.9 378.5 72.35 371.8 73.55 368.55 73.65 363.35 73.844921875 356.0935546875 72.6 349.05 124.1439453125 349.05 175.6 349.05 175.173046875 350.9765625 174.95 352.95 174.25 359 175.85 364.5 177.3 369.5 182.15 377.15 186 383.3 189.2 385.95 193.55 389.55 200.95 391.4 215.15 394.95 229.3 391.25 235.2 389.7 239.05 387.15 246 382.5 250.75 371.85 255.7 361 255.3 352 255.0818359375 345.8939453125 252.4 339.35
L 253.15 337.85
Q 256.35 331.2 257.6 329 259.55 325.55 263.3 320.05 267.7 313.55 269.15 311.2 271 308.3 271.2 306.35 271.45 303.75 269.4 300.45 266.8 296.85 265.8 294.95 265.05 293.5 264.25 290.85 263.25 287.7 262.85 286.7 262.15 284.95 259.5 280.45 255.05 272.95 251.55 264.75 250.3 261.65 248.6 261.15 246.15 260.35 243.35 264.25 242.35 265.7 240.3 268.65 238.5 271.25 237.1 272.95 235.7 274.7 230.9 279.6 223.25 287.4 216.65 296.1 214.333984375 299.1759765625 205.45 309.6 206.13203125 309.8830078125 206.8 310.05 206.587109375 310.333984375 206.35 310.65 204.96328125 311.17734375 203.65 311.75 200.9599609375 314.9482421875 197.75 318.7 198.432421875 316.5318359375 198.9 314.45 197.109765625 315.6703125 195.55 317.1 193.35 319.1 191.05 322.15 189.9 323.65 187.15 327.7
L 183.2 333.65
Q 179.8 338.65 178.2 341.85 177.9216796875 342.42265625 177.65 343 124.5083984375 343 71.3 343 70.21328125 338.6837890625 68.55 334.45 64.830078125 325.1296875 59.35 318.7 58.1544921875 317.2861328125 56.85 316 55.874609375 315.048828125 54.85 314.15 53.5755859375 313.10078125 52.2 312.15 52.837109375 312.2884765625 53.45 312.3 48.714453125 305.964453125 48.65 305.9 48.15 305.35 47.55 304.35
L 46.55 302.75
Q 45.45 301.1 42.2 298.2
L 35.35 292.2
Q 32.3 289.45 31.2 288.05 30.4 287.05 29.4 285.35 28.05 283.1 27.7 282.6 26.95 281.5 25.25 279.4 20.05 273.1 15.35 267.95 12.35 264.55 10.15 263.05 9.35 262.5 8.7 262.2
M 43.75 312.45
Q 47.05 313.7 50.4 316.3 59.25 323.15 64.2 335.1 65.7177734375 338.76953125 66.8 343 41.8896484375 343 16.95 343 16.95 343.15 16.95 343.25 16.45 343.25 15.95 343.25 15.7 343.4 15.45 343.5 15.2 343.75 14.95 344 14.8 344.15 14.65 344.35 14.4 344.1 14.05 343.8 13.15 343 12.75 342.5 12.3 341.95 11.8 340.85 11.2 339.55 10.95 339.15 10.4 338.25 9.3 337.1 7.6 335.25 7.5 335.15 6.9 334.45 6.1 333.2 4.95 331.4 4.8 331.2 4.698046875 331.0580078125 4.55 330.9 9.3931640625 323.4505859375 16.55 317.25 20.65 313.75 23.8 313.1 25.3 312.75 27.25 312.9 28.4 312.95 30.7 313.3 30.8 312.6 30.25 312 29.75 311.4 29.05 311.35 34 311.05 36.5 311.15 40.65 311.3 43.75 312.45
M 1.8 327.6
L 1.5 327.3
Q 1.85 326.95 2.2 326.15 2.55 325.25 2.85 324.95 3.1 324.7 3.25 324.8 3.35 325 3.15 325.2
L 2.85 325.5
Q 2.7 325.7 2.6 326.15 2.5 326.35 2.2 326.85 1.9 327.3 1.8 327.6
M 4.35 336.15
Q 5.95 338.15 7.65 340.6
L 9.9 343.9
Q 10.6 344.85 12.2 346.6 12.6 347.05 13.5 348.25 14.25 349.3 14.75 349.8 16.55 351.65 19 352.5
L 19.45 352.1
Q 19.2 351.7 19.25 350.8 19.25 349.85 19.05 349.45 18.95 349.25 18.85 349.05 43.5068359375 349.05 68.15 349.05 68.9265625 353.28828125 69.35 358 69.8 363.15 69.35 366.65 68.7 371.3 66.4 374.4 64.05 377.55 58.25 380.6 48.8 385.55 38.45 388.65 27.75 391.85 19.85 391.2 14.9 390.8 10.65 388.95 6.1 386.95 3.05 383.6 -2 377.85 -3.55 366.9 -4.8 358.15 -3.55 350.95 -2.85 346.95 -1.15 342.4 0.46015625 338.05078125 2.7 334 3.3990234375 334.9486328125 4.35 336.15
M 243.7 271.85
Q 246.4 268.85 247.45 267.15 250.5 274.35 254.6 281.2 257.05 285.25 257.75 286.9 258.2 288 258.9 290.2 259.6 292.4 260.05 293.45 260.75 295.1 262.1 297.4 262.9 298.65 264.45 301.2 266.2 304.3 266.2 306.35 266.2 308.6 264 312 262.75 314 259.45 318.8 256.5 323.05 255 325.6 253.3240234375 328.42265625 250.2 334.6 247.7 329.783984375 243.75 324.3 240.9 320.25 238.7 318.05 236.1 315.45 231.7 312.45 227.95 309.95 225.3 309 219.5 307 211.15 309.15 210.7939453125 309.2408203125 210.45 309.3 214.728125 304.6537109375 219.85 298.8
L 243.7 271.85
M 226.8 315.35
Q 230.5 317.2 232.95 318.9 235.3 320.6 237.15 322.7 238 323.65 239.6 325.65 241.65 328.2 243.15 330.3 245.05 332.9 246.4 335.55 247.29609375 337.16640625 248.05 338.85
L 247.1 340.75
Q 246.3640625 339.5646484375 245.5 338.35 242.85 334.6 238.55 329.85 234.5 325.4 231.8 323.5 229.2 321.7 223.65 319.2 218.25 316.8 215.35 316.25 211.85 315.65 205.9 316.2 212 313.55 218.65 313.3 221.05 313.2 222.7 313.65 224.4 314.05 226.8 315.35
M 205.6 328.2
Q 206.5 328.1 207.1 327.75 207.85 327.3 207.7 326.6 207.5 325.8 206.15 325.6 201.75 324.9 197.55 325.8 204.65 321.35 211.4 321.55 216.05 321.7 222.15 324.45 227.05 326.6 230.6 329.35 234.8 332.6 239.55 338.75 241.8310546875 341.722265625 243.55 344.45 242.3134765625 344.372265625 241.05 344.25 239.05 344.15 237.05 344 236 343.9 235 343.75 228.45 343.65 221.9 343.5 217.85 343.4 213.8 343.25 203.2 343.15 192.6 343 190.4994140625 343 188.4 343 188.4919921875 342.35 188.6 341.8 189.45 337.35 191.7 334.5 195.9 329.25 205.6 328.2
M 183.05 366.5
Q 182.35 362.9 183.5 359.6 184.6 367.25 189.45 373.2 189.95 373.9 190.45 373.9 190.8 373.9 191.1 373.55 191.35 373.25 191.35 372.85 191.35 372.2 190.9 371.4 188.8 367 188.15 360.95 187.75 357 187.9 350 187.9134765625 349.514453125 187.9 349.05 190.26484375 349.05 192.6 349.05 203.2 348.95 213.8 348.8 217.85 348.7 221.9 348.55 228.45 348.45 235 348.3 236 348.2 237.05 348.05 239.05 347.95 241.05 347.8 242.6 347.7 244.1 347.55 244.6 347.4 245.1 347.3 245.15078125 347.3 245.2 347.3 247.1283203125 350.8666015625 248 354 249.25 358.45 248.8 362.75 248.3 367.45 245.9 370.9 243.25 374.75 237.4 377.9 232.15 380.75 226.65 382 223.05 382.8 218.45 383 215.7 383.15 210.2 383.1 205.25 383.1 202.7 382.35 201.1 381.9 199.05 380.8 196.75 379.55 195.55 378.9 192.15 377.15 190.55 376.15 187.7 374.45 186.1 372.65 183.75 370.05 183.05 366.5
M 214.8 387.95
Q 210.64921875 387.712890625 208.2 387.6 217.0244140625 387.6958984375 223.6 386.6 233.2 385.05 240.15 380.7 237.45 384.1 232.9 386 228.9 387.7 223.95 388.05 220.5 388.3 214.8 387.95
M 249.6 345.25
L 250.1 344.2
Q 250.4908203125 345.319921875 250.8 346.45 251.1 347.35 250.75 347.85 250.2544921875 346.5697265625 249.6 345.25
M 104.7 255.6
Q 102.65 256.7 101.4 258.1 100.1 259.55 99.2 261.8 98.65 263.15 97.9 265.95
L 94.05 280.25
Q 91.75 288.9 91.3 291 90.4 294.95 90.1 297.55 89.75 301.2 90.35 304.1 91 307 93.4 311.7 94.95 314.8 96.2 316.7 99.6 321.75 105.2 324.75 110.8 327.7 116.9 327.7 119.35 327.7 122.75 327.15 124.7 326.85 128.55 326.1 132.3 325.45 139.85 324.25 146.3 322.9 150.3 320.2 158.05 314.9 161.25 303.05 164.25 291.8 161.4 280.4 158.45 268.65 150.3 260.9 146.4 257.25 142.95 256.1 140.1 255.15 134.45 255.2 128.45 255.2 125.85 254.55 124.95 254.35 121.25 253 118.45 252 116.55 251.9 114.75 251.85 112.5 252.45 111.25 252.8 108.55 253.85 106 254.9 104.7 255.6
M 108.65 265.65
Q 110.25 263.65 111.6 263.05 112.7 262.5 115.2 262.3 128.1 261.1 134.6 261.05 140.1 261.05 143 262.2 147.2 263.8 150.95 268.9 154.85 274.25 156.6 280.85 158.4 287.4 157.7 294 156.9 301.35 153.35 305.65 151.75 307.45 148.7 309.7 142.5 314.25 135.8 317.85 132.15 319.75 130 320.25 127.1 320.9 121.8 320.4 117.1 320.1 114.6 319.35 108.65 317.55 104.65 312.1 101.4 307.75 100.55 302.45 100.15 300.15 100.15 296.85 100.25 293.1 100.2 291.2 100.1 286.8 100.15 284.65 100.2 280.85 101.1 278.2 101.85 275.95 104.15 272.3 106.95 267.7 108.65 265.65
M 117.95 159.85
Q 113.2 160.95 107.3 165.2 99.8 170.55 96 176.45 93.35 180.55 91.85 185.65 90.95 188.65 90.5 191.95 89.85 196.4 90.15 200.4 90.55 206.4 93 212.2 95.35 217.85 99.35 222.55 101.9 225.65 104.3 227.15 108.05 229.45 114.6 230 127.55 231.2 140.25 227.05 146.9 224.8 149.9 221.55 152.65 218.6 154.15 213.2 156.4 205.5 155.7 196.7 155.1 188.6 152.05 180.4 147.6 168.45 139.95 165.35 139.65 165.25 137 164.4 135.2 163.8 134.15 163.15 134.5 163.1 134.6 162.7 134.75 162.3 134.55 162 134.3 161.65 133.35 161.2 129.25 159.7 124.7 159.4 121 159.15 117.95 159.85
M 113.85 168.55
Q 116.15 168.25 120.25 168.3
L 124.8 168.3
Q 128.2 168.35 129.45 168.45 132.05 168.55 134 169 139.15 170.1 142.1 173.25 143.75 175.1 145.35 178.65 149.45 187.45 150.5 194.8 151.7 203.7 149.05 212.25 147.8 216.5 145.6 218.75 143.45 221 139.45 222.1 138.9 222.25 132.25 223.6 130 224.1 128.85 224.35 126.85 224.75 125.45 224.9 122.9 225.15 119.75 225
L 113.55 224.55
Q 110.75 224.3 108.9 223.6 105.8 222.45 102.55 218.55 96.65 211.6 95.5 203.65 94.95 200.25 95.3 195.2 95.55 189.9 96.8 186.4 97.65 183.95 100.1 179.7 102.15 176.2 103.45 174.5 105.55 171.75 107.9 170.4 110.35 169 113.85 168.55
M 109.3 67
Q 105.65 69.25 103.45 71.9 101.7 74 99.5 78.25
L 93.15 90.15
Q 90.45 95.25 89.5 97.95 87.9 102.65 88 107.7 88.1 112.75 89.95 117.35 91.45 121 93.8 124.15 97.4 129.1 102.75 132.7 107.95 136.15 114.05 137.9 125.9 141.25 138.7 137.8 145.95 135.9 150.25 132.3 154.15 129 157.3 122.85 161.05 115.35 161.95 107.3 162.95 98.85 160.55 91.3 159.3 87.2 155.1 79.35 152.6 74.65 150.9 72.25 148.2 68.5 145.05 66.6 142.5 65.1 138.25 64.05 133.4 63.1 131 62.4 129 61.75 128 61.5 126.25 61 124.9 60.95 122.85 60.85 120.45 61.65 118.95 62.15 116.2 63.45 111.55 65.65 109.3 67
M 114.55 69.75
Q 117 68.6 120.4 68.25 122.65 68.05 126.55 68.2 129.95 68.3 133.3 68.5 139.15 68.95 142.3 70.85 144.8 72.3 146.95 75.3 148.35 77.15 150.35 80.95 154.1 87.8 155.65 91.9 158 98.15 157.8 103.55 157.75 105.35 157.15 108.75 155.7 116.45 152.8 121.8 149.15 128.5 143.3 131.5 139.9 133.25 135.15 133.85 132.1 134.25 126.55 134.3 122.2 134.4 119.4 134.1 116.3 133.7 113.4 132.75 106.45 130.5 101.2 125.7 95.65 120.6 93.6 114.05 92.55 110.55 92.55 106.85 92.55 99.5 96.65 92.6 98.9 89.15 99.9 87.35 101.6 83.75 102.65 82 103.9 79.9 106.75 76.65 108.9 74.1 110.3 72.8 112.45 70.8 114.55 69.75
M 164.85 35.7
Q 165.6 37.2 166.85 40.7
L 185.75 96.05
Q 197.7 130.95 203.1 148.55 212.05 177.95 216.8 202.1 217.4 205.25 217 206.85 216.25 209.9 211.55 212.7 201.65 218.65 190.6 221.9 187.8 222.7 186.45 223.45 184.3 224.65 183.75 226.5 182.4 230.85 189.7 235
L 211.6 247.35 183.8 269.4
Q 182.05 270.8 181.25 271.8 180 273.3 179.9 274.85 179.75 276.75 181.35 278.8 181.55 279.05 184.6 282.15 187.45 285.05 189.9 290.45 191.3 293.5 193.95 299.65 196.1 304.05 199.05 307 199.3 299.5 196.45 293.25 189.95 278.85 185 274.1 200.8 263.6 214.8 250.2 215.95 249.05 216.45 248.25 217.25 247.1 217.2 245.95 217.1 243.65 213.3 241.55
L 190.3 228.8
Q 203.35 223.9 215.15 217.35 218.1 215.7 219.6 214.45 221.9 212.6 222.75 210.4 223.6 208.4 223.4 205.7 223.3 203.9 222.55 200.85 215.1 168.4 202.5 128.85 194.75 104.65 178.4 58
L 170.95 36.75
Q 169.5 32.7 168.5 30.75 166.8 27.6 164.5 25.85 161.75 23.8 157.5 23.35 154.65 23 149.7 23.35
L 127.15 24.85 104.6 23.35
Q 99.65 23 96.8 23.35 92.55 23.8 89.8 25.85 87.5 27.6 85.8 30.75 84.8 32.7 83.35 36.75
L 75.9 58
Q 59.55 104.65 51.8 128.85 39.2 168.4 31.75 200.85 31 203.9 30.9 205.7 30.7 208.4 31.55 210.4 32.4 212.6 34.7 214.45 36.2 215.7 39.15 217.35 50.95 223.9 64 228.8
L 41 241.55
Q 37.2 243.65 37.1 245.95 37.05 247.1 37.85 248.25 38.35 249.05 39.5 250.2 53.5 263.6 69.3 274.1 64.35 278.85 57.85 293.25 55.5 298.35 56 306.2 58.5 303.5 60.35 299.65 63 293.5 64.4 290.45 66.85 285.05 69.7 282.15 72.75 279.05 72.95 278.8 74.55 276.75 74.4 274.85 74.3 273.3 73.05 271.8 72.25 270.8 70.5 269.4
L 42.7 247.35 64.6 235
Q 71.9 230.85 70.55 226.5 70 224.65 67.85 223.45 66.5 222.7 63.7 221.9 52.65 218.65 42.75 212.7 38.05 209.9 37.3 206.85 36.9 205.25 37.5 202.1 42.25 177.95 51.2 148.55 56.6 130.95 68.55 96.05
L 87.45 40.7
Q 88.7 37.2 89.45 35.7 90.85 33 92.7 31.55 95.15 29.6 99 29.15 101.55 28.85 106.05 29.2
L 124.75 30.55 124.75 30.85 129.55 30.85 129.55 30.55 148.25 29.2
Q 152.75 28.85 155.3 29.15 159.15 29.6 161.6 31.55 163.45 33 164.85 35.7
M 381.05 378.8
Q 376.4 380.4 372.55 381.15 367.7 382.1 360.7 382.2 338.5 382.8 320.35 377.25 314.75 375.5 311.75 373.5 307.3 370.5 305.15 365.65 303.85 367.6 304.35 370.25 304.85 372.75 306.55 374.6 308.05 376.25 310.4 377.55 312 378.35 314.9 379.45 341.95 389.4 367.5 386.7 373.85 385.95 378.05 384.65 381.9 383.5 389.3 380.3 391.15 379.6 394.9 378.2 398.1 376.95 400.25 375.75 403.25 374.05 406.4 371.15 408.35 369.35 411.85 365.65 415 362.25 416.4 360.4 418.65 357.25 419.45 354.25 419.8 352.95 419.15 352.55 418.45 352.05 417.25 353.25
L 407.65 363.4
Q 402.7 368.65 399.55 370.75 397.5 372.2 394.6 373.5 392.95 374.25 389.35 375.7 383.85 377.85 381.05 378.8
M 449.95 244.9
Q 450.2 242.95 450.2 240.9 450.25 239.55 449.75 238.9 449.3 238.45 448.6 238.35 447.9 238.25 447.25 238.6 446.2 239.2 445.75 240.75 445.65 241.05 445.45 243.45 445.4 244.6 444.85 247.95
L 444.2 251.15
Q 443.8 252.9 442.85 256.3 442.25 259.05 442 259.75 441.1 262.2 441.05 262.45 440.85 263.2 440.65 264.75 440.5 265.45 440 266.85 438.25 271.9 435.85 276.75 434.7 279.15 434.45 279.75 433.8 281.4 433.65 282.7 432.85 282.35 431.65 282.2 424.9 281.2 416.5 281.65 410.95 281.95 401.35 283.2 400.55 283.35 400 283.7 399.35 284.1 399.5 284.65 399.55 285.4 400.8 285.75 401.8 286 403 286.2 402.8 287.95 403 289.85 403.15 291 403.7 293.25 404.25 295.5 404.35 296.6 404.65 298.5 404.55 301.7 404.45 305.45 404.5 306.75 404.6 308.2 404.95 311.1 405.35 313.95 405.4 315.4 405.4 316 405.4 319.65 405.4 322.25 405.65 323.9 405.85 325.2 406.75 328 407.6 330.65 407.8 332.1 407.95 333.35 408.25 334 406.5 333.7 404.15 334.15 401.05 334.85 399.55 335.1 396.75 335.75 392.9 336.1 388.45 336.45 386.2 336.65 385.6 336.65 385 336.75 384.65 336.55 384.2 336.6 383.8 336.65 383.5 336.9 359.05 339.2 336.1 347.85 332.4 349.25 330.7 349.65 328.65 350.15 326.8 350.15 326.8 349.45 326.55 348.55
L 318.15 316.9
Q 320.85 316.2 324.1 314.05 326 312.85 329.65 310.25 331.3 309.2 333.85 307.8 335.25 307 338.05 305.5 340.2 304.3 343.95 302 348.1 299.5 349.9 298.5 355.05 295.45 359.9 293.4 362.65 292.15 362.2 290.6 361.95 289.55 360.45 289.4 359.7 289.35 358.3 289.9 357.65 290.15 356.85 290.55 356.95 290.4 357 290.2 357.2 289.7 357.1 289.15 356.65 287.8 356.55 287.15 356.45 286.65 356.6 285.7 356.75 284.7 356.75 284.2 356.7 283.7 356.45 282.95 356.05 281.9 356.05 281.65 355.9 281.05 355.9 280.05 355.95 278.8 355.9 278.4 355.85 277.75 355.6 276.75 355.3 275.25 355.25 275 355.05 273.65 355.1 271.25 355.15 268.55 355.05 267.45 354.65 265.25 354.45 264.1 354 261.5 354 256.4 354.05 251.15 353.65 248.65 353.25 246.35 353.6 245.35 352.5 245.35 351.95 246.5 351.5 247.2 351.45 248.55 351.25 250.8 351.2 254.45 351.15 259.05 351.1 260.25 351.05 263.15 351.1 264.1 351.3 265.25 351.75 267.45 351.8 268.35 351.8 269.65
L 351.75 271.8
Q 351.75 273.65 352.15 276.1
L 353.35 284.65
Q 352.3 284.5 350.95 284.45 346.65 284.35 338.1 285.45 336.3 285.7 335.5 286.05 334.8 286.4 334.35 286.9 331.4 281.9 330.55 274.9 329.9 269.3 330.6 261.25 331.2 254.6 332.15 249.75 333.45 243.6 335.7 238.75 337.75 234.35 343.2 226.7 346 222.9 347.55 221 350.15 217.9 352.65 215.95 355.6 213.6 361 211.05 366.1 208.55 371.65 206.35 373.55 205.55 375.15 205.15 374.75 205.8 375 206.45 375.1 206.85 375.5 207.3 375.7 207.55 376.15 208.05 377.15 209.2 377.65 211.25 377.75 211.75 378.25 214.95 378.65 217.5 380.05 222.7
L 381.8 229.2
Q 382.45 231.55 383.05 232.95 371.35 235 359.75 237.75 356.9 238.5 357 240.05 357 240.65 357.45 241.15 357.9 241.6 358.6 241.7 359.5 241.9 361.05 241.5 373.65 238.7 385.85 236.5 386.65 237 387.55 237.2 387.8 236.8 387.8 236.15 390.35 235.7 392.95 235.25 400 234.1 403.6 233.9 407.9 233.65 414.6 234.1 424.15 234.7 425.65 234.75 429.85 234.85 438.4 234.55
L 445.95 234.3
Q 445.1 233.35 443.55 232.95 442.6 232.65 440.7 232.45
L 420.5 230.55
Q 415.25 230.05 412.65 229.9 408.2 229.65 404.75 229.8 400.2 230 393.45 231.15 390.35 231.6 387.2 232.2
L 386.9 228.05
Q 386.1 219.6 383.25 211.55 382.95 210.55 382.45 210.1 382.1 209.85 381.65 209.85 381.3 209.85 381.15 210 381.05 209.65 380.95 209.3 380.55 206.95 379.9 205.8 379.4 205 378.65 204.5 378.05 204.15 377.5 204.05 376.85 203.45 375.9 203.1 374.6 202.7 373.2 202.95 372.05 203.15 370.7 203.75 370.55 203.8 368.25 205 367.15 205.55 358.35 209.4 352.35 212 349.05 214.7 346.1 217.15 341.85 222.95 335.65 231.45 332.95 237.2 327.75 248.25 327.05 264.7 326.5 276.7 329.15 284.35 330.6 288.45 332.8 290.05 334.2 291.15 335.1 290.45 335.8 289.85 335.35 288.7 335.9 288.75 336.55 288.7 343.95 288.4 351.25 287.85 352.75 287.75 353.8 287.55 354 288.7 354.25 289.4 354.6 290.2 355.15 290.65 355.55 291 355.95 291 353.4 292.3 349.5 294.5 340.75 299.5 336.1 302.4 328.8 306.95 323.2 311.05 321 312.65 319.9 313.2 317.95 314.2 316.2 314.15 315.65 314.1 315.35 314.1 314.8 314.1 314.5 314.25 313.95 314.45 313.6 315.05 313.35 315.6 313.35 316.25 313.35 317 313.95 318.65 315.5 322.65 318.75 335.5 321.45 346.05 324.65 351.75 325.15 352.15 325.8 351.9 326.55 352.75 327.55 352.95 328.95 353.25 331.65 352.45 336.85 350.85 342 349.35 340.55 352.75 339.35 354.7
L 338 356.7
Q 337.15 357.9 336.75 358.75 336.2 359.95 335.65 361.95 334.9 364.6 334.7 365.2 334.6 365.5 333.95 367.15 333.5 368.35 333.3 369.1 332.75 371.5 333.75 373.15
L 334.95 372.85
Q 336.5 370.7 337.85 366.6 339.55 361.55 340.25 360.1 341.95 357.1 342.6 355.55 343.25 354.05 343.95 350.85 344.25 349.45 344.25 348.7 353.45 346.1 362.6 343.85 369.8 342.05 374.45 341.5 376.6 341.25 380 341.15 382 341.05 383.3 341 383.4 341.25 383.5 341.45 384.8 344 388.3 353.5 391.15 361 393.85 365.15 394.7 366.35 395.35 366.75 395.8 367 396.4 366.9 397 366.8 397.3 366.4 397.6 366.05 397.6 365.1 397.5 363.05 396.3 360.45 394.75 357.45 394 356 392.95 353.8 390.55 346.95 389.25 343.3 388 340.75 392.2 340.35 397.15 339.6 400.9 338.95 408.6 337.5 410.65 337.15 410.8 336 410.9 335.35 410.3 334.85
L 410.3 334.8
Q 410.6 334.6 410.5 334.15 410.3 333.6 410.2 333.35 410.1 332.95 410.2 331.75 410.25 330.3 410 328.2 409.55 325.85 409.35 324.65 409.05 322.6 409.1 318.95 409.15 314.8 409.05 313.2 408.95 312.05 408.6 309.7 408.15 306.65 408.15 304.55 408.4 300.35 408.3 298.3 408.2 296.9 407.8 295.1 407.35 293 407.1 291.9 406.65 289.6 406.65 288 406.7 286.7 406.7 286.45 406.7 286.4 406.7 286.35 406.8 286.35 407 286.35
L 413.3 285.95
Q 420.05 285.6 431.7 286.55 434.45 286.7 435.05 285.4 435.25 284.95 435.15 284.4
L 435.15 284.35 437.7 279.8
Q 439.9 275.9 440.6 274.5 441.9 272.05 443.8 268.05 444.65 266.45 444.8 265.4 444.95 263.9 445.15 263.2 445.25 262.65 445.6 261.85 446.05 260.85 446.1 260.5 446.3 259.8 446.55 258.55 446.75 257.15 446.85 256.6 447 256.15 447.9 253.8 448.85 251.3 449.35 248.55 449.75 246.6 449.95 244.9 Z"/>
</g>
</defs>

<g transform="matrix( 1.24884033203125, 0, 0, 1.24884033203125, 255.1,458.85) ">
<g transform="matrix( 1, 0, 0, 1, 0,0) ">
<use xlink:href="#Carriage_0_Layer1_0_FILL"/>
</g>
</g>
</svg>
