
<svg xmlns="http://www.w3.org/2000/svg" version="1.1" xmlns:xlink="http://www.w3.org/1999/xlink" preserveAspectRatio="none" x="0px" y="0px" width="75px" height="75px" viewBox="0 0 75 75">
<defs>
<linearGradient id="Gradient_1" gradientUnits="userSpaceOnUse" x1="12.125" y1="11.475000000000001" x2="-10.125" y2="-13.375" spreadMethod="pad">
<stop  offset="0%" stop-color="#0010FF"/>

<stop  offset="100%" stop-color="#92E5FF"/>
</linearGradient>

<g id="Symbol_35_0_Layer0_0_FILL">
<path fill="#0061FF" fill-opacity="0.4" stroke="none" d="
M 16.4 -15.8
Q 16.15 -16.85 15.65 -17.2 15.1 -17.55 13.8 -17.35 11.8 -17.1 8.65 -17.2
L 3.35 -17.35
Q 1.7 -17.35 -1.4 -17.15
L -14.5 -16.4
Q -15.6 -16.4 -16 -16 -16.5 -15.55 -16.6 -14.25 -16.8 -10.85 -17.35 -7.5 -17.6 -5.75 -16.85 -5.3 -16.35 -5 -15.6 -5.1
L -5.8 -5.6
Q -10.15 -0.5 -15.3 4.75 -16.5 5.9 -16.7 6.85 -16.95 7.45 -16.7 8.95 -16.45 10.9 -16.6 12.65 -16.7 14.4 -16.2 14.95 -15.65 15.6 -14.6 15.7 -14 15.7 -12.8 15.5 -11.05 15.25 -7.8 15.35 4.35 15.55 11 14.8 15.6 14.35 17 14.45 18.3 14.55 18.75 14.2 19.25 13.75 19.15 12.5
L 18.8 5.85
Q 18.8 4.9 18.4 4.55 18.15 4.35 17.45 4.25 15.45 4.1 9.95 4.4 5.25 4.65 2.5 4.1 8.5 0 15.65 -5.45 16.5 -6.1 16.65 -6.5 16.8 -6.8 16.95 -7.85 16.95 -13.4 16.4 -15.8
M 15.45 -10.35
Q 15.45 -9.55 15.4 -8.75 15.4 -8 15.4 -7.25 8.8 -2.1 2 2.7 1.3 3.25 0.6 3.85 -0.05 4.45 -0.8 5.1
L 17.65 5.3 17.6 12.85 -14.6 13.95 -14.95 6.65
Q -12.85 4.65 -10 1.55 -7.05 -1.55 -4.8 -3.75 -2.5 -5.95 -2 -6.6 -1.5 -7.2 -1 -7.8
L -15.65 -6.95 -15.65 -8.55 -14.5 -15.4 14.25 -16.5
Q 15.8 -13.55 15.45 -10.35 Z"/>

<path fill="url(#Gradient_1)" stroke="none" d="
M 15.4 -8.75
Q 15.45 -9.55 15.45 -10.35 15.8 -13.55 14.25 -16.5
L -14.5 -15.4 -15.65 -8.55 -15.65 -6.95 -1 -7.8
Q -1.5 -7.2 -2 -6.6 -2.5 -5.95 -4.8 -3.75 -7.05 -1.55 -10 1.55 -12.85 4.65 -14.95 6.65
L -14.6 13.95 17.6 12.85 17.65 5.3 -0.8 5.1
Q -0.05 4.45 0.6 3.85 1.3 3.25 2 2.7 8.8 -2.1 15.4 -7.25 15.4 -8 15.4 -8.75 Z"/>
</g>
</defs>

<g transform="matrix( 0.617828369140625, 0, 0, 0.617828369140625, 49.2,67.8) ">
<g transform="matrix( 1, 0, 0, 1, 0,0) ">
<g transform="matrix( 1.213134765625, 0, 0, 1.213134765625, -4.7,-18.7) ">
<g transform="matrix( 1, 0, 0, 1, 0,0) ">
<use xlink:href="#Symbol_35_0_Layer0_0_FILL"/>
</g>
</g>
</g>
</g>
</svg>
