
<svg xmlns="http://www.w3.org/2000/svg" version="1.1" xmlns:xlink="http://www.w3.org/1999/xlink" preserveAspectRatio="none" x="0px" y="0px" width="300px" height="300px" viewBox="0 0 300 300">
<defs>
<g id="coin_3_Layer0_0_FILL">
<path fill="#FFCC00" stroke="none" d="
M 52.7 9.65
Q 52.8 6.05 50.65 2.8 49.3 1 48 0.5 46.95 0.1 44.75 0.2
L 28.2 0.95
Q 24.8 1.05 23.2 1.95 21.3 2.95 20.2 5.4 19.4 7.05 18.8 10 17 19.5 16.85 29.3 16.8 35.2 17.25 41.65 17.65 48.3 18.65 53.3 19.25 56.55 19.95 58.9 21.45 64 23.75 66.45 27.1 69.95 33.1 70.2 36.3 70.35 42.8 69.05 43.1 69.15 43.45 69.25 46 70.1 48.75 68.95 51.4 67.95 53.2 65.65 55.95 62.1 56.9 55.3 57.75 49.55 57.85 38.05 57.85 27.8 56.7 22.5 56.25 20.3 55.1 16.5 53.85 12.45 52.7 9.65
M 43.05 7.4
L 44.85 7.25
Q 46.4 9.05 47.6 11.75 48.4 13.55 49.45 16.8 50.3 19.4 50.9 21.8 52.55 28.7 52.35 40.45 52.15 47.85 50.95 51.9 49.25 58.25 44.85 61.5 43.95 62.2 43.2 62.2 42.45 62.15 41.55 61.25 39.85 59.3 38.8 55.75 36.15 47.65 36.55 39 36.6 36.95 36.55 36.35 36.5 34.9 36 33.85 36.4 32.95 36.5 31.5 36.5 29.85 36.55 29 36.6 26.1 37.9 20.5 38.85 16.1 39.8 13.65 41 10.3 43.05 7.4
M 24 11.75
Q 24.15 10.6 24.25 9.9 24.5 9.25 24.95 8.3
L 25.25 7.75
Q 25.5 7.5 25.75 7.3 26.55 6.75 28.55 6.65
L 36.9 6.35
Q 33.1 13.4 31.6 23.65 30.95 27.8 30.8 32.3
L 30.9 38.85
Q 31.2 46.65 31.65 49.75 33.05 59.45 38 65.2
L 34.6 65.2
Q 28.7 64.9 26.45 61.6 25.6 60.4 25.05 58.25 22.05 48.05 21.85 37.65 21.8 34.65 22 28.65 22.3 21.25 22.8 18.3 23.95 12 24 11.75 Z"/>

<path fill="#B18E00" stroke="none" d="
M 24.25 9.9
Q 24.15 10.6 24 11.75 23.95 12 22.8 18.3 22.3 21.25 22 28.65 21.8 34.65 21.85 37.65 22.05 48.05 25.05 58.25 25.6 60.4 26.45 61.6 28.7 64.9 34.6 65.2
L 38 65.2
Q 33.05 59.45 31.65 49.75 31.2 46.65 30.9 38.85
L 30.8 32.3
Q 30.95 27.8 31.6 23.65 33.1 13.4 36.9 6.35
L 28.55 6.65
Q 26.55 6.75 25.75 7.3 25.5 7.5 25.25 7.75
L 24.95 8.3
Q 24.5 9.25 24.25 9.9 Z"/>

<path fill="#FFFF00" stroke="none" d="
M 44.85 7.25
L 43.05 7.4
Q 41 10.3 39.8 13.65 38.85 16.1 37.9 20.5 36.6 26.1 36.55 29 36.5 29.85 36.5 31.5 36.4 32.95 36 33.85 36.5 34.9 36.55 36.35 36.6 36.95 36.55 39 36.15 47.65 38.8 55.75 39.85 59.3 41.55 61.25 42.45 62.15 43.2 62.2 43.95 62.2 44.85 61.5 49.25 58.25 50.95 51.9 52.15 47.85 52.35 40.45 52.55 28.7 50.9 21.8 50.3 19.4 49.45 16.8 48.4 13.55 47.6 11.75 46.4 9.05 44.85 7.25 Z"/>
</g>
</defs>

<g transform="matrix( 1.558135986328125, 0, 0, 1.558135986328125, 30.4,146.4) ">
<g transform="matrix( 1, 0, 0, 1, 39.9,-33) ">
<g transform="matrix( 1, 0, 0, 1, 0,0) ">
<use xlink:href="#coin_3_Layer0_0_FILL"/>
</g>
</g>
</g>
</svg>
