
<svg xmlns="http://www.w3.org/2000/svg" version="1.1" xmlns:xlink="http://www.w3.org/1999/xlink" preserveAspectRatio="none" x="0px" y="0px" width="300px" height="300px" viewBox="0 0 300 300">
<defs>
<g id="coin_0_Layer0_0_FILL">
<path fill="#FFCC00" stroke="none" d="
M 68.75 15.7
Q 65.7 10.3 60.85 5.55 58.3 3.2 56.65 2.3 54.6 1.2 51.65 0.75 49.8 0.5 46.35 0.4
L 33.9 0.05
Q 30.25 -0.1 28.15 0.1 24.95 0.45 22.65 1.65 22.1 1.95 21.8 2.3 21.75 2.3 21.65 2.35 20.3 3.1 19.2 3.9 17.4 4.5 16.05 5.3 14.8 6 12.1 8.2 7.75 11.85 6.15 13.9 2.5 18.65 0.8 28.15 -0.1 33.4 0 36.75 0.1 40.1 1.65 45.8 3.55 53.1 6.6 57.2 10.55 62.5 18.85 66.15 31.95 71.9 41.55 68.3 41.65 68.25 41.75 68.25 50.55 68.3 57.85 64.7 62.35 62.45 65.8 58.9 69.35 55.25 71.15 50.8 73.25 45.6 73.45 36.3 73.55 30.8 73.05 27.65 72.15 21.6 68.75 15.7
M 54.95 12.05
Q 52.05 8.35 47.95 6 51.7 6.3 53.6 7.15 55.35 7.95 57.65 10.25 64.05 16.85 66.8 25.95 69.55 35.05 67.8 44 66.7 49.75 64 53.7 60.3 59.2 52.55 62.3 51.5 62.7 50.35 63.1 53.45 60.7 55.55 58.15 61.6 50.5 61.5 35.6 61.4 20.1 54.95 12.05
M 55.3 41.15
Q 54.75 43.55 52.85 47.7 51.35 51.05 50.05 52.7 46.8 57 40.4 58.8 36.65 59.9 28.9 60.5 25.9 60.7 24.45 60.65 21.95 60.6 20.1 59.95 17.65 59.1 15.3 56.95 13.7 55.5 11.35 52.65 8.8 49.35 8.15 47.6 7.15 45 7.15 39.9 7.15 33 8.05 29.3 8.55 27.15 9.85 24.3 12.65 18 16.1 14.3 20.55 9.55 26.15 8.3 29.05 7.7 33.85 8.05 37.75 8.25 40.05 8.85 45.45 10.3 49.2 14.45 56.05 21.75 55.95 34.85 55.85 38.9 55.3 41.15 Z"/>

<path fill="#FFFF00" stroke="none" d="
M 52.85 47.7
Q 54.75 43.55 55.3 41.15 55.85 38.9 55.95 34.85 56.05 21.75 49.2 14.45 45.45 10.3 40.05 8.85 37.75 8.25 33.85 8.05 29.05 7.7 26.15 8.3 20.55 9.55 16.1 14.3 12.65 18 9.85 24.3 8.55 27.15 8.05 29.3 7.15 33 7.15 39.9 7.15 45 8.15 47.6 8.8 49.35 11.35 52.65 13.7 55.5 15.3 56.95 17.65 59.1 20.1 59.95 21.95 60.6 24.45 60.65 25.9 60.7 28.9 60.5 36.65 59.9 40.4 58.8 46.8 57 50.05 52.7 51.35 51.05 52.85 47.7 Z"/>

<path fill="#B18E00" stroke="none" d="
M 47.95 6
Q 52.05 8.35 54.95 12.05 61.4 20.1 61.5 35.6 61.6 50.5 55.55 58.15 53.45 60.7 50.35 63.1 51.5 62.7 52.55 62.3 60.3 59.2 64 53.7 66.7 49.75 67.8 44 69.55 35.05 66.8 25.95 64.05 16.85 57.65 10.25 55.35 7.95 53.6 7.15 51.7 6.3 47.95 6 Z"/>
</g>
</defs>

<g transform="matrix( 1.558135986328125, 0, 0, 1.558135986328125, 30.4,146.4) ">
<g transform="matrix( 1, 0, 0, 1, 39.9,-33) ">
<g transform="matrix( 1, 0, 0, 1, 0,0) ">
<use xlink:href="#coin_0_Layer0_0_FILL"/>
</g>
</g>
</g>
</svg>
