
<svg xmlns="http://www.w3.org/2000/svg" version="1.1" xmlns:xlink="http://www.w3.org/1999/xlink" preserveAspectRatio="none" x="0px" y="0px" width="1000px" height="1000px" viewBox="0 0 1000 1000">
<defs>
<linearGradient id="Gradient_1" gradientUnits="userSpaceOnUse" x1="-47.475" y1="147.8" x2="-0.22500000000000142" y2="147.8" spreadMethod="pad">
<stop  offset="6.2745098039215685%" stop-color="#4F71FF"/>

<stop  offset="25.88235294117647%" stop-color="#66D9FF"/>

<stop  offset="100%" stop-color="#FFFFFF"/>
</linearGradient>

<linearGradient id="Gradient_2" gradientUnits="userSpaceOnUse" x1="-131.475" y1="92.9" x2="-73.025" y2="92.9" spreadMethod="pad">
<stop  offset="6.2745098039215685%" stop-color="#4F71FF"/>

<stop  offset="25.88235294117647%" stop-color="#66D9FF"/>

<stop  offset="100%" stop-color="#FFFFFF"/>
</linearGradient>

<linearGradient id="Gradient_3" gradientUnits="userSpaceOnUse" x1="35.125" y1="103.13749999999999" x2="27.674999999999997" y2="134.0625" spreadMethod="pad">
<stop  offset="6.2745098039215685%" stop-color="#4F71FF"/>

<stop  offset="25.88235294117647%" stop-color="#66D9FF"/>

<stop  offset="100%" stop-color="#FFFFFF"/>
</linearGradient>

<linearGradient id="Gradient_4" gradientUnits="userSpaceOnUse" x1="-7.237499999999997" y1="49.474999999999994" x2="-51.2625" y2="103.625" spreadMethod="pad">
<stop  offset="6.2745098039215685%" stop-color="#4F71FF"/>

<stop  offset="25.88235294117647%" stop-color="#66D9FF"/>

<stop  offset="100%" stop-color="#FFFFFF"/>
</linearGradient>

<linearGradient id="Gradient_5" gradientUnits="userSpaceOnUse" x1="55.637499999999996" y1="58.087500000000006" x2="40.9625" y2="83.7125" spreadMethod="pad">
<stop  offset="6.2745098039215685%" stop-color="#4F71FF"/>

<stop  offset="25.88235294117647%" stop-color="#66D9FF"/>

<stop  offset="100%" stop-color="#FFFFFF"/>
</linearGradient>

<linearGradient id="Gradient_6" gradientUnits="userSpaceOnUse" x1="115.28750000000001" y1="102.9875" x2="87.6125" y2="132.0125" spreadMethod="pad">
<stop  offset="6.2745098039215685%" stop-color="#4F71FF"/>

<stop  offset="25.88235294117647%" stop-color="#66D9FF"/>

<stop  offset="100%" stop-color="#FFFFFF"/>
</linearGradient>

<g id="Blanket_Ghost_death_10_Layer6_0_FILL">
<path fill="#070707" stroke="none" d="
M 4.5 159.4
Q 14.65 158.25 18.9 158.25 23.05 158.25 30.95 159.75 35.25 160.55 42.95 162.05
L 42.95 163.55
Q 42.45 163.55 42.25 164 42.15 164.2 42.15 164.4 39.95 164.4 32.15 166.2 24.05 168 22.8 169 31.5 170.25 40.7 173.45 53 177.75 53 182.15
L 53 183.75
Q 42.3 185.2 35.65 186.15 23.55 187.95 15.15 189.9 11.25 190.8 -5.4 199 -21.5 207 -21.8 207 -24 207 -38.15 204.65 -52.25 202.3 -56.9 202.3 -73.75 202.3 -80.85 204.65
L -80.85 203.9
Q -77.8 202.3 -73.2 198.5 -65.95 192.6 -65.35 192.15 -64.95 191.85 -64.55 191.55 -66.5 191.5 -72.7 190.4 -79.05 189.25 -81.65 188.4 -83.6 187.8 -92.25 187.85 -98.65 187.9 -99.5 185.3 -99.45 185.25 -90.2 179.7 -83.6 175.7 -82.4 175.95
L -82.4 175.2
Q -87.35 176.35 -95.45 180.05 -106.2 184.95 -107.15 185.3 -118.6 189.75 -120.65 190.15 -123.5 190.7 -135.1 190.75 -135.15 191.05 -135.2 191.05 -135.35 191 -136.7 190.75 -135.9 190.75 -135.1 190.75 -135.1 190.45 -135.1 189.9 -135.1 189.8 -145.6 190.55 -157.45 190.5 -163.7 186.05 -143.8 180 -134.45 177.45 -116.6 172.6 -106.4 171.35
L -106.4 170.6
Q -108.55 170.25 -110.1 169.1 -111.85 167.85 -111.85 166.3 -111.85 164.6 -82.45 155.9 -53.4 147.35 -49.15 147.35 -47.85 147.35 -38.35 149.3 -28.95 151.25 -27.55 151.2 -22.65 151 -15.4 150.6 -10.55 151.1 -10.55 155.9
L -10.55 155.95
Q -9.95 156.05 -9.3 156.15 -7.9 156.4 -6.8 156.55 -9.05 152.35 -9.9 151.35 -12.55 148.2 -17.5 146.6 -24.3 144.4 -34.85 143.4 -42.4 142.65 -49.5 142.65 -54.6 142.65 -67.9 146.55 -75 148.65 -85.5 152.05 -89.75 153.35 -95.3 154.15 -98.4 154.55 -103.95 155.25 -113.15 156.6 -116.45 161.3 -121.2 168.15 -152.05 176.1 -159.7 178.1 -172.5 181.25 -181.5 183.65 -181.5 184.85 -181.5 188.5 -159.85 195.35 -140.15 201.55 -136.25 201.55 -132.05 201.55 -129.1 200.45 -127.65 199.85 -124.2 197.85 -117.35 193.8 -107.15 193 -96.75 192.25 -91.3 192.2 -85.95 192.25 -82.4 192.25
L -77.85 192.25
Q -79.4 193.8 -83.9 196.5 -88.4 199.25 -93.3 201.55 -88.8 206 -85.5 207.7 -79.65 210.8 -70.8 210.8 -67 210.8 -59.25 209.7 -51.55 208.55 -46.4 208.55 -41.3 208.55 -31.95 210.5 -22.65 212.4 -20.95 212.4 -15.95 212.4 -9.75 209.75 -6.5 208.3 1.7 203.75 17.85 194.7 29 193.85 49.15 192.4 53.25 191.7 68.45 189.1 68.45 182.5 68.45 178.1 56.95 172.25 48.35 167.85 43.7 166.75
L 43.7 165.9
Q 45.9 165.9 50.75 165.55 55.6 165.15 58.45 165.15 57.05 159.8 41.45 155.1 28.45 151.2 21.6 151.2 16.1 151.2 7.65 153.95 -0.8 156.65 -5.1 156.65 -5.8 156.65 -6.8 156.55 -6.75 156.65 -6.7 156.75 -5.35 159.25 -3.5 160.25 -0.45 159.95 4.5 159.4
M -72.85 160.3
Q -74.75 160.95 -76.55 161.6 -74 161.2 -71.75 160.85 -53.4 158.15 -35 158.25 -37.85 158.15 -42.65 157.1 -48 155.9 -51.5 155.9 -60.2 155.9 -72.85 160.3
M 10.35 174.45
L 10.35 175.2
Q -2.75 180.2 -16 187.3 -32.2 195.95 -35.9 201.55
L -35.9 204.65
Q -26.75 202.25 -22.1 201.05 -13.8 198.9 -8.95 198.45
L -8.95 197.7
Q -10.6 197.95 -16.6 196.7 -23.1 195.35 -25.2 195.35 -12.75 187 1 181.75 12.25 177.45 22.05 175.95 15.65 171.55 1.75 169.35 -9.65 167.5 -22.95 167.5 -30.4 167.5 -38.4 169.15 -36.9 169.15 -36.3 169.4 -36.15 169.25 -36 169.05 -35.9 168.9 -35.9 169.75 -20.45 169.85 -9.65 171.45 9.65 174.4 10.35 174.45 Z"/>

<path fill="#CC33FF" stroke="none" d="
M 18.9 158.25
Q 14.65 158.25 4.5 159.4 -0.45 159.95 -3.5 160.25 -5.35 159.25 -6.7 156.75 -6.75 156.65 -6.8 156.55 -7.9 156.4 -9.3 156.15 -9.95 156.05 -10.55 155.95
L -10.55 155.9
Q -10.55 151.1 -15.4 150.6 -22.65 151 -27.55 151.2 -28.95 151.25 -38.35 149.3 -47.85 147.35 -49.15 147.35 -53.4 147.35 -82.45 155.9 -111.85 164.6 -111.85 166.3 -111.85 167.85 -110.1 169.1 -108.55 170.25 -106.4 170.6
L -106.4 171.35
Q -116.6 172.6 -134.45 177.45 -143.8 180 -163.7 186.05 -157.45 190.5 -145.6 190.55 -135.1 189.8 -135.1 189.9 -135.1 190.45 -135.1 190.75 -123.5 190.7 -120.65 190.15 -118.6 189.75 -107.15 185.3 -106.2 184.95 -95.45 180.05 -87.35 176.35 -82.4 175.2
L -82.4 175.95
Q -83.6 175.7 -90.2 179.7 -99.45 185.25 -99.5 185.3 -98.65 187.9 -92.25 187.85 -83.6 187.8 -81.65 188.4 -79.05 189.25 -72.7 190.4 -66.5 191.5 -64.55 191.55 -64.95 191.85 -65.35 192.15 -65.95 192.6 -73.2 198.5 -77.8 202.3 -80.85 203.9
L -80.85 204.65
Q -73.75 202.3 -56.9 202.3 -52.25 202.3 -38.15 204.65 -24 207 -21.8 207 -21.5 207 -5.4 199 11.25 190.8 15.15 189.9 23.55 187.95 35.65 186.15 42.3 185.2 53 183.75
L 53 182.15
Q 53 177.75 40.7 173.45 31.5 170.25 22.8 169 24.05 168 32.15 166.2 39.95 164.4 42.15 164.4 42.15 164.2 42.25 164 42.45 163.55 42.95 163.55
L 42.95 162.05
Q 35.25 160.55 30.95 159.75 23.05 158.25 18.9 158.25
M 10.35 175.2
L 10.35 174.45
Q 9.65 174.4 -9.65 171.45 -20.45 169.85 -35.9 169.75 -35.9 168.9 -36 169.05 -36.15 169.25 -36.3 169.4 -36.9 169.15 -38.4 169.15 -30.4 167.5 -22.95 167.5 -9.65 167.5 1.75 169.35 15.65 171.55 22.05 175.95 12.25 177.45 1 181.75 -12.75 187 -25.2 195.35 -23.1 195.35 -16.6 196.7 -10.6 197.95 -8.95 197.7
L -8.95 198.45
Q -13.8 198.9 -22.1 201.05 -26.75 202.25 -35.9 204.65
L -35.9 201.55
Q -32.2 195.95 -16 187.3 -2.75 180.2 10.35 175.2
M -76.55 161.6
Q -74.75 160.95 -72.85 160.3 -60.2 155.9 -51.5 155.9 -48 155.9 -42.65 157.1 -37.85 158.15 -35 158.25 -53.4 158.15 -71.75 160.85 -74 161.2 -76.55 161.6 Z"/>
</g>

<g id="lantern_firey_Burst_copy_5_Layer0_0_FILL">
<path fill="url(#Gradient_1)" stroke="none" d="
M -0.2 140.2
Q -3.566015625 141.385546875 -12 145.1 -22.3 148.9 -32 148.9 -38.15 148.9 -42.25 146.95 -46.094140625 145.17578125 -46.7 142.3 -47.45 146.185546875 -47.45 146.95 -47.45 152 -42.25 154.05 -39 155.35 -34.25 155.35 -20.95 155.35 -10.45 149.05 -3.983203125 145.16015625 -0.2 140.2 Z"/>

<path fill="url(#Gradient_2)" stroke="none" d="
M -131.4 76.6
Q -131.45 77.379296875 -131.45 78 -131.45 96.3 -121.85 104 -115.35 109.2 -104.8 109.2 -98.85 109.2 -87.1 98.75 -77.85 90.55 -73 84.05 -76.35 84.9 -91.45 91.3 -103.15 96.25 -111.2 96.25 -120.4 96.25 -125.05 92.45 -130.765625 87.761328125 -131.4 76.6 Z"/>

<path fill="url(#Gradient_3)" stroke="none" d="
M 33.35 94.95
Q 33.35 94.8 34.3 91.5 34.9642578125 89.1578125 35.15 88.05 34.1703125 89.0234375 31.3 90.65 28.8 92.45 28.8 94.65 28.8 96.9 33.35 102.05 37.85 107.25 37.85 109.75 37.85 113.3 31.6 119.8 24.96875 126.701953125 10.75 137.55 16.637109375 134.6505859375 22.35 132.55 26.55 131 37.1 128.05 43.2 126.4 45.1 124.35 47.45 121.85 47.45 115.5 47.45 109.15 40.4 103.5 36.25 100.2 35.55 99.5 33.35 97.25 33.35 94.95 Z"/>

<path fill="url(#Gradient_4)" stroke="none" d="
M 26.5 34.1
Q 22.4044921875 34.7447265625 7.5 39.8 -9.9 45.65 -11.5 47.5 -13.95 50.25 -16.8 58.6 -17.35703125 60.2015625 -17.85 61.55 -42.70390625 89.7611328125 -57.75 100.85 -64.1 105.6 -70.25 108.35 -73.6216796875 109.9171875 -79.55 112.1 -68.501171875 109.991796875 -58.65 107.15 -38.35 101.35 -32.65 94.4 -28.5 89.35 -24.2 81.75 -19.55 73.65 -17.85 68.05 -14.55 57.1 4.05 45.35 17.6947265625 36.71171875 26.5 34.1 Z"/>

<path fill="url(#Gradient_5)" stroke="none" d="
M 61.05 28.7
Q 61.38046875 37.4421875 60.1 40.2 59.35 41.7 57.65 42.55 55.2 43.7 54.5 44.35 50.8 47.7 49.2 49.05 46.5 51.4 44.25 52.7 41 54.6 37.35 57.15 35.2392578125 58.425390625 33.75 58 36.1041015625 58.950390625 37.95 61.35 39.1 62.9 41.3 66.3 45.95 72.55 55.8 72.55 59.45 72.55 65.25 71.6 68.1 71.15 70.5 70.65
L 70.5 70
Q 63.05 72.35 57.45 68 52 63.75 52 56.2 52 47.9 62.55 43.65 69.7 40.8 69.8 40.75 73.1 39.05 73.1 36.6 73.1 35.1 66.15 31.45 63.4337890625 30.0306640625 61.05 28.7 Z"/>

<path fill="url(#Gradient_6)" stroke="none" d="
M 194.65 62.9
Q 195.056640625 62.2263671875 195.4 61.55 184.6732421875 76.4513671875 152.5 92.2 135.35 100.55 117.35 106.55 101.1 111.95 96.2 111.7 104.2 106.75 107.25 99.5 110.08046875 92.922265625 110.35 83 108.92890625 85.120703125 106.95 87.4 100.65 94.65 90.4 101.95 80.95 108.7 72.2 112.65 63.35 116.65 60.25 115.5
L 59.6 115.5
Q 63.15 117.85 74.25 119.3 84.85 120.7 97.15 120.7 110.4 120.7 140.15 106 166.05 93.2 175.15 85.35 187.45 74.8 194.65 62.9 Z"/>

<path fill="#CC66FF" stroke="none" d="
M -62.15 -1.75
L -70.7 -1.75
Q -78.1880859375 2.9458984375 -78.65 3.55 -78.7 3.65 -78.4 4.1 -78.15 4.5 -79.5 5.85 -78.15 5.85 -70.3 2.4 -62.5 -1.1 -62.15 -1.1
L -62.15 -1.75 Z"/>
</g>
</defs>

<g transform="matrix( 0.8803863525390625, 0, 0, 0.8803863525390625, 464.15,349.75) ">
<g transform="matrix( 1, 0, 0, 1, -76.9,-20) ">
<g transform="matrix( 1, 0, 0, 1, 0,0) ">
<use xlink:href="#Blanket_Ghost_death_10_Layer6_0_FILL"/>
</g>

<g transform="matrix( 1, 0, 0, 1, 10.35,-20.2) ">
<g transform="matrix( -0.3151397705078125, 0, 0, -0.5994110107421875, -50.1,179.3) ">
<g transform="matrix( 1, 0, 0, 1, 0,0) ">
<use xlink:href="#lantern_firey_Burst_copy_5_Layer0_0_FILL"/>
</g>
</g>
</g>
</g>
</g>
</svg>
