
<svg xmlns="http://www.w3.org/2000/svg" version="1.1" xmlns:xlink="http://www.w3.org/1999/xlink" preserveAspectRatio="none" x="0px" y="0px" width="1000px" height="1000px" viewBox="0 0 1000 1000">
<defs>
<linearGradient id="Gradient_1" gradientUnits="userSpaceOnUse" x1="16.925" y1="42.5625" x2="21.474999999999998" y2="26.137500000000003" spreadMethod="pad">
<stop  offset="0%" stop-color="#877046"/>

<stop  offset="30.58823529411765%" stop-color="#CCCC99"/>

<stop  offset="100%" stop-color="#FFFFFF"/>
</linearGradient>

<linearGradient id="Gradient_2" gradientUnits="userSpaceOnUse" x1="10.762500000000001" y1="12.05" x2="26.4375" y2="-3.8500000000000005" spreadMethod="pad">
<stop  offset="0%" stop-color="#877046"/>

<stop  offset="30.58823529411765%" stop-color="#CCCC99"/>

<stop  offset="100%" stop-color="#FFFFFF"/>
</linearGradient>

<linearGradient id="Gradient_3" gradientUnits="userSpaceOnUse" x1="14.525" y1="-11.0125" x2="23.075000000000003" y2="-25.587500000000002" spreadMethod="pad">
<stop  offset="0%" stop-color="#877046"/>

<stop  offset="30.58823529411765%" stop-color="#CCCC99"/>

<stop  offset="100%" stop-color="#FFFFFF"/>
</linearGradient>

<filter id="Filter_1" x="-20%" y="-20%" width="140%" height="140%" color-interpolation-filters="sRGB">
<feColorMatrix in="SourceGraphic" type="matrix" values="1 0 0 0 0 0 1 0 0 0 0 0 1 0 0 0 0 0 0.5 0" result="result1"/>
</filter>

<g id="blanket_ghost_bottom_copy_6_Layer0_0_FILL">
<path fill="#4B286D" stroke="none" d="
M 20.05 69.75
Q 17.9361328125 66.5505859375 13.9 65.1 13.05625 65.871484375 12.3 66.65 17.3798828125 69.1158203125 21.35 72.15 20.5822265625 70.5623046875 20.05 69.75
M 98.9 96.2
Q 94.05 96.2 89.3 92.3 84.55 88.35 80.8 88.35 78.5 88.35 66.1 90.55 53.7 92.7 50.3 92.7 44.1 92.7 36.1 88.6 34.86484375 87.9615234375 33.75 87.3 34.100390625 87.9232421875 34.45 88.55 38.15 95.1 41.3 97.45 46.05 101 54.9 101 61.05 101 69.6 98.15 78.2 95.3 82.8 95.3 86.3 95.3 96.5 97.3 106.7 99.25 107.6 99.25 111.8 99.25 127 92.25 130.75 90 135.2 85.05 136.1197265625 84.0126953125 136.95 82.95 122.4556640625 91.1728515625 117.5 93.1 109.6 96.2 98.9 96.2 Z"/>

<path fill="#000000" stroke="none" d="
M 153.45 43.8
Q 153.37578125 43.9791015625 153.3 44.15 150.1875 51.7013671875 149.65 53.9 148.2 59.8 146.2 65.75 144 72.2 142.3 75.25 140.098828125 79.14140625 136.95 82.95 136.1197265625 84.0126953125 135.2 85.05 130.75 90 127 92.25 111.8 99.25 107.6 99.25 106.7 99.25 96.5 97.3 86.3 95.3 82.8 95.3 78.2 95.3 69.6 98.15 61.05 101 54.9 101 46.05 101 41.3 97.45 38.15 95.1 34.45 88.55 34.100390625 87.9232421875 33.75 87.3 29.8267578125 80.452734375 26.7 77.05 24.328125 74.4484375 21.35 72.15 17.3798828125 69.1158203125 12.3 66.65 13.05625 65.871484375 13.9 65.1 17.187109375 62.1470703125 22.15 59.5 22.55 59.3 37.95 52.2 47.85 47.6 53.4 43 58.2720703125 38.961328125 61.35 33.85 63.0833984375 30.99453125 64.25 27.8
L 64.25 25.2
Q 64.1 25.2 63.9 25.4 63.7 25.55 63.45 25.55 63.0494140625 26.156640625 62.6 26.75 57.4859375 34.0056640625 49.9 38.4 42.35 42.75 29.85 45.6 25.5 46.6 18.6 50.15 18.1 50.4 9.45 55.2 9.1 55.4 3.2 62.4 -0.487109375 66.776171875 -2.65 68.1 -2.29140625 73.354296875 -0.3 76.3 1.5 78.9 5.65 80.75 12.55 83.8 13.15 84.15 17.55 86.75 20.25 91.4 26.9 103 33.15 107.05 39.95 111.45 52.5 111.45 58.05 111.45 68.95 107.95 79.9 104.45 83.45 104.45 86.75 104.45 94.1 106.7 101.5 108.9 105.05 108.9 125.25 108.9 140.5 87.5 147.05 78.25 150.8 67.2 154.5 56.2 154.5 46.25 154.5 45.95 154.3 43.85 154.1916015625 42.9400390625 154.1 42.1 153.806640625 42.9294921875 153.45 43.8 Z"/>

<path fill="#CC33FF" stroke="none" d="
M 140.05 5.1
Q 137.55 2.95 124.2 0.2 110.8 -2.6 103.05 -2.6 77.85 -2.6 67.3 15.6 64.1734375 20.9765625 62.6 26.75 63.0494140625 26.156640625 63.45 25.55 63.7 25.55 63.9 25.4 64.1 25.2 64.25 25.2
L 64.25 27.8
Q 63.0833984375 30.99453125 61.35 33.85 58.2720703125 38.961328125 53.4 43 47.85 47.6 37.95 52.2 22.55 59.3 22.15 59.5 17.187109375 62.1470703125 13.9 65.1 17.9361328125 66.5505859375 20.05 69.75 20.5822265625 70.5623046875 21.35 72.15 24.328125 74.4484375 26.7 77.05 29.8267578125 80.452734375 33.75 87.3 34.86484375 87.9615234375 36.1 88.6 44.1 92.7 50.3 92.7 53.7 92.7 66.1 90.55 78.5 88.35 80.8 88.35 84.55 88.35 89.3 92.3 94.05 96.2 98.9 96.2 109.6 96.2 117.5 93.1 122.4556640625 91.1728515625 136.95 82.95 140.098828125 79.14140625 142.3 75.25 144 72.2 146.2 65.75 148.2 59.8 149.65 53.9 150.1875 51.7013671875 153.3 44.15 153.4083984375 43.44921875 153.5 42.8 154.5 35.55 154.5 29.75 154.5 26.25 148.2 16.3 142.55 7.35 140.05 5.1
M 65.85 45.6
Q 65.7 46.3 65.15 47.95 65.2 48.35 67.85 50.55 70.35 53.15 71.8 54.15 71.45 55.5 71.45 57.8 71.85 57.9 73.05 59 74.55 59.65 75.85 60.9 72.5 59.7 71.3 60.1 71.1 61.8 71.65 63.1 71.75 63.35 73 63.8 73.95 64.55 74.45 64.9 72.55 64.75 71.65 64.95 71.15 66.3 71 67.65 71.2 67.65 72 68.25 72.4 68.55 72.55 69.05 70.5 69.3 70.4 69.55 70.1 69.45 70.15 69.55 65.65 75.95 64.95 76.15 61.45 76.15 58.95 74.95 56.1130859375 77.0404296875 56.65 77.5 55.3505859375 76.447265625 55.6 75 55.45 73.2 56.25 73.35 54.75 72.2 53.05 71.2
L 51.55 69.95
Q 44.75 69.7 43.9 69.65 43.3 69 47.05 69.3 49.25 68.5 50.4 68.65 48.3 66.9 46.95 65.55 40.5 60.4 37.2 57.6 35.75 57.15 35.5 57.25 36.5 55.45 40.1 55.65 42.5 55.3 48.25 54.3 50.45 52.75 56 48.2 60.45 44.6 61.1 44.75 61.9 44.5 63.9 46.45 65.85 42.55 66.4 43 65.45 44.7 65.85 45.6 Z"/>

<path fill="#CC99FF" stroke="none" d="
M 65.15 47.95
Q 65.7 46.3 65.85 45.6 65.45 44.7 66.4 43 65.85 42.55 63.9 46.45 61.9 44.5 61.1 44.75 60.45 44.6 56 48.2 50.45 52.75 48.25 54.3 42.5 55.3 40.1 55.65 36.5 55.45 35.5 57.25 35.75 57.15 37.2 57.6 40.5 60.4 46.95 65.55 48.3 66.9 50.4 68.65 49.25 68.5 47.05 69.3 43.3 69 43.9 69.65 44.75 69.7 51.55 69.95
L 53.05 71.2
Q 54.75 72.2 56.25 73.35 55.45 73.2 55.6 75 55.3505859375 76.447265625 56.65 77.5 56.1130859375 77.0404296875 58.95 74.95 61.45 76.15 64.95 76.15 65.65 75.95 70.15 69.55 70.1 69.45 70.4 69.55 70.5 69.3 72.55 69.05 72.4 68.55 72 68.25 71.2 67.65 71 67.65 71.15 66.3 71.65 64.95 72.55 64.75 74.45 64.9 73.95 64.55 73 63.8 71.75 63.35 71.65 63.1 71.1 61.8 71.3 60.1 72.5 59.7 75.85 60.9 74.55 59.65 73.05 59 71.85 57.9 71.45 57.8 71.45 55.5 71.8 54.15 70.35 53.15 67.85 50.55 65.2 48.35 65.15 47.95 Z"/>
</g>

<g id="blanket_ghost_hood_copy_6_Layer0_0_FILL">
<path fill="#4B286D" stroke="none" d="
M 46.85 57.2
Q 46.4 58.45 50.3 59.65 51.65 59.65 55.1 60.7 53.5 61.85 51.9 63.6 50.5 64.5 49.6 64.7 49.75 64.7 50.35 65 60.5 64.5 66.25 51.5 63.35 52.85 59.25 54.25 51.35 56.1 46.9 56.65 46.75 56.55 46.85 57.2
M 42.95 46.75
Q 53.75 42.65 56.3 44.25 53.1 46.75 51.1 49.75 50.45 49.7 51 50.05 52.55 48.35 55.1 46.95 59.35 42.9 67.25 36.35 66.45 36.05 66.45 36.3 57.35 38.45 47.4 41.25 26.6 45.65 14.45 44.75 10.7 43.95 9.1 43.25 6.95 41.75 7.05 41.2 6.5 41.9 6.45 43.3 4.7 49.55 10.75 52.8 15.7 55.15 23.95 53.15 31.85 50.15 42.95 46.75
M 138 21.85
Q 135.25 17.5 130.95 14.8 121.65 5.05 108.25 8.15 94.1 10.75 83.6 13.6 84.05 13.55 86.85 14.85 89.1 15.25 90.6 16 82.9 19.4 80.1 23.15 77.85 24.7 75.45 29.95 80.5 23.75 93.65 17.8 104.85 11 112.85 10.1 120 9.05 125.5 12.75 130.5 15.7 137.75 21.9 137.8 21.9 138 21.85 Z"/>

<path fill="#CC99FF" stroke="none" d="
M 63.2 18.2
Q 61.6 17.6 61.1 17.9 60.3 16.6 60.15 16.05 57.05 15.9 55.35 17 43.25 18.95 33.25 23.6 32.7 23 33.25 23.65 33.15 25.1 33.85 27.9 34.05 29.35 34.95 31.55 36.7 30.25 40.1 29.35 40.25 30.2 41.05 31.55 42.05 33.85 42.5 34.25 42.25 30.6 42.8 28.6 44 27.9 45.9 27.65 45.5517578125 27.898828125 47.05 31.3 47.0833984375 31.253125 47.55 31.55 47.15 29.75 47.65 27.25 48.8 27.1 57.4 25.2 62.75 23.4 63.45 23.4 63.25 22.3 62.35 20.3 62.35 20 64.1 20.1 65.05 19.7 66.45 20.15 65.3 18.75 63.2 18.2 Z"/>

<path fill="#CC33FF" stroke="none" d="
M 158.95 41.65
Q 158.6 39.25 157.05 34.45 154.65 29.5 153.6 27.65 153.15 27 153.05 27.05 141.7 18 130.95 14.8 135.25 17.5 138 21.85 137.8 21.9 137.75 21.9 130.5 15.7 125.5 12.75 120 9.05 112.85 10.1 104.85 11 93.65 17.8 80.5 23.75 75.45 29.95 77.85 24.7 80.1 23.15 82.9 19.4 90.6 16 89.1 15.25 86.85 14.85 84.05 13.55 83.6 13.6 78.6 13 76 13.8 68.1 14.25 60.15 16.05 60.3 16.6 61.1 17.9 61.6 17.6 63.2 18.2 65.3 18.75 66.45 20.15 65.05 19.7 64.1 20.1 62.35 20 62.35 20.3 63.25 22.3 63.45 23.4 62.75 23.4 57.4 25.2 48.8 27.1 47.65 27.25 47.15 29.75 47.55 31.55 47.0833984375 31.253125 47.05 31.3 45.5517578125 27.898828125 45.9 27.65 44 27.9 42.8 28.6 42.25 30.6 42.5 34.25 42.05 33.85 41.05 31.55 40.25 30.2 40.1 29.35 36.7 30.25 34.95 31.55 34.05 29.35 33.85 27.9 33.15 25.1 33.25 23.65 22.45 27.65 15.35 32.55 8.8 35.75 7.05 41.2 6.95 41.75 9.1 43.25 10.7 43.95 14.45 44.75 26.6 45.65 47.4 41.25 57.35 38.45 66.45 36.3 66.45 36.05 67.25 36.35 59.35 42.9 55.1 46.95 52.55 48.35 51 50.05 47.4 53.9 46.9 56.65 51.35 56.1 59.25 54.25 63.35 52.85 66.25 51.5 60.5 64.5 50.35 65 49.75 64.7 49.6 64.7
L 49.55 64.7
Q 48.2 64.75 47.25 65.45 48 67.1 50.1 71.1 50.45 72.5 52.7 77.65 53.9 81.75 55.45 83.7 58.3 88.8 61.1 91.85 66.15 97.6 71.45 99.35 86.15 103.2 87.7 103.8 94.95 104.75 104.65 104.8 123.25 102.1 133.3 92.1 135.7 88.3 138.15 83.4 138.35 81.8 139 81.2
L 139 81.15
Q 138.25 77.15 141.45 72.65 141.6 69.85 147.8 63.45 158.05 50.65 158.95 41.65 Z"/>

<path fill="#000000" stroke="none" d="
M 157.05 34.45
Q 158.6 39.25 158.95 41.65 158.05 50.65 147.8 63.45 141.6 69.85 141.45 72.65 138.25 77.15 139 81.15 141.05 75.25 146.2 69.6 148.05 66.15 154.15 60.7 163.8 50.2 164.95 38.85 163.95 29.8 158.05 22.4 136.45 2.7 115.85 4.2 94.45 4.3 78.7 4.7 64.1 4.9 49.35 9.05 34.35 12.05 22.6 17.85 7.3 23.5 0.55 30.65 -3.35 34.75 -4.5 44.2 -3.85 53.85 5.45 60.95 11.95 65.15 21.35 66.35 25.3 65.9 33.55 61.1 35.3 59.9 37.35 58.6 37 58.95 37.4 60 37.45 62.35 39.85 64.5 41.1 64.95 43.75 65.65 45.2 65.6 47.25 65.45 48.2 64.75 49.55 64.7
L 49.6 64.7
Q 50.5 64.5 51.9 63.6 53.5 61.85 55.1 60.7 51.65 59.65 50.3 59.65 46.4 58.45 46.85 57.2 46.75 56.55 46.9 56.65 47.4 53.9 51 50.05 50.45 49.7 51.1 49.75 53.1 46.75 56.3 44.25 53.75 42.65 42.95 46.75 31.85 50.15 23.95 53.15 15.7 55.15 10.75 52.8 4.7 49.55 6.45 43.3 6.5 41.9 7.05 41.2 8.8 35.75 15.35 32.55 22.45 27.65 33.25 23.65 32.7 23 33.25 23.6 43.25 18.95 55.35 17 57.05 15.9 60.15 16.05 68.1 14.25 76 13.8 78.6 13 83.6 13.6 94.1 10.75 108.25 8.15 121.65 5.05 130.95 14.8 141.7 18 153.05 27.05 153.15 27 153.6 27.65 154.65 29.5 157.05 34.45 Z"/>
</g>

<g id="blanket_ghost_arm_0_Layer0_0_FILL">
<path fill="#CC33FF" stroke="none" d="
M 38.55 21.85
Q 38.05 22.5 37.5 23.3 34.6 28.85 33.45 34.95 32.65 39.1 31.15 47.45 36.45 39.8 39.3 33.3 39.65 32.5 40 31.65 40.8 24.2 42.7 18.5 40.45 19.6 38.55 21.85
M 36.3 22.05
Q 36.95 20.65 37.7 19.6 28 22.5 19.55 29.85 21.9 29 24.95 28 31.9 25.7 36.3 22.05
M 70 20.35
Q 69.35 20.35 68.2 21 66.9 21.75 66.9 22.5 66.9 23.55 67.9 24 68.75 24.35 70.4 24.35 71.7 24.35 75.25 23.7 75.25 23.95 75.25 24.2 76.2 22.65 76.2 20.2 76.2 15.95 73.25 12.45 69.85 8.4 61.5 8.4 53.15 8.35 47.2 18 41.95 26.4 39.4 44.05 39.4 43.85 39.4 43.8 39.4 42.9 39.4 42 39.15 43.2 38.85 44.3 37.3 50.2 34.75 55.8
L 35.05 55.5
Q 40.3 52.85 43.25 46.35 44.5 43.65 47.25 34 49.5 26.2 52.1 22.6 55.95 17.4 62.85 16.35 60.9 15.35 59.9 14.95 58.25 14.35 56.15 14.7 58 13.65 59 13.45 59.55 13.35 62.35 13.35 65.85 13.35 68.85 15.05 72.2 16.95 72.2 19.85
L 72.2 21.35
Q 72.05 21.1 71.25 20.75 70.4 20.35 70 20.35 Z"/>

<path fill="#4B286D" stroke="none" d="
M 62.85 20.7
Q 64.05 18.75 65.8 18.75 66.85 18.75 67.65 19.4 67.45 19.35 67.2 19.35 66.25 19.35 65.5 20.4 64.85 21.4 64.85 22.6 64.85 24.6 66.15 25.7 67.45 26.75 69.85 26.75 72.95 26.75 74.6 25.05 74.95 24.65 75.25 24.2 75.25 23.95 75.25 23.7 71.7 24.35 70.4 24.35 68.75 24.35 67.9 24 66.9 23.55 66.9 22.5 66.9 21.75 68.2 21 69.35 20.35 70 20.35 70.4 20.35 71.25 20.75 72.05 21.1 72.2 21.35
L 72.2 19.85
Q 72.2 16.95 68.85 15.05 65.85 13.35 62.35 13.35 59.55 13.35 59 13.45 58 13.65 56.15 14.7 58.25 14.35 59.9 14.95 60.9 15.35 62.85 16.35 55.95 17.4 52.1 22.6 49.5 26.2 47.25 34 44.5 43.65 43.25 46.35 40.3 52.85 35.05 55.5
L 34.75 55.8
Q 37.3 50.2 38.85 44.3 39.15 43.2 39.4 42 39.5 36.45 40 31.65 39.65 32.5 39.3 33.3 36.45 39.8 31.15 47.45 32.65 39.1 33.45 34.95 34.6 28.85 37.5 23.3 35.9 25.6 34.05 29.4
L 33.7 29.4
Q 34.8 25.05 36.3 22.05 31.9 25.7 24.95 28 21.9 29 19.55 29.85 16.6 32.35 13.8 35.45 0 50.7 0 70.05 0 71.5 0.65 75.2 0.75 75.9 0.9 76.55 3.2 84.2 6.65 85.65 11.15 87.5 13.5 88.3 17.6 89.6 20.55 89.6 30.45 89.6 38.5 81.75 46.4 74.1 49.8 61.6 51.1 56.75 52.6 50.15 54.15 43.4 54.8 39.45 56.35 30.45 56.45 30.15 57.85 26 61.8 24.05 61.85 22.3 62.85 20.7 Z"/>

<path fill="#000000" stroke="none" d="
M 74.8 2.2
Q 73.3 1.2 71.9 0.55 70.7 0.1 69.65 0 67.2 0 66 0 50.75 0 44.25 14.4 40.6 15.85 38.3 18.75 38 19.15 37.7 19.6 36.95 20.65 36.3 22.05 34.8 25.05 33.7 29.4
L 34.05 29.4
Q 35.9 25.6 37.5 23.3 38.05 22.5 38.55 21.85 40.45 19.6 42.7 18.5 40.8 24.2 40 31.65 39.5 36.45 39.4 42 39.4 42.9 39.4 43.8 39.4 43.85 39.4 44.05 41.95 26.4 47.2 18 53.15 8.35 61.5 8.4 69.85 8.4 73.25 12.45 76.2 15.95 76.2 20.2 76.2 22.65 75.25 24.2 74.95 24.65 74.6 25.05 72.95 26.75 69.85 26.75 67.45 26.75 66.15 25.7 64.85 24.6 64.85 22.6 64.85 21.4 65.5 20.4 66.25 19.35 67.2 19.35 67.45 19.35 67.65 19.4 66.85 18.75 65.8 18.75 64.05 18.75 62.85 20.7 61.85 22.3 61.8 24.05 57.85 26 56.45 30.15 56.35 30.45 54.8 39.45 54.15 43.4 52.6 50.15 51.1 56.75 49.8 61.6 46.4 74.1 38.5 81.75 30.45 89.6 20.55 89.6 17.6 89.6 13.5 88.3 11.15 87.5 6.65 85.65 3.2 84.2 0.9 76.55 0.75 76.1 0.6 75.6
L 0.6 75.25
Q 0.5962890625 75.3587890625 0.45 75.7 0.25 76.1 0.25 76.6 0.25 84.95 5 91.05 5.35 91.5 5.7 91.9 6.15 92.45 6.65 92.95 7.5 93.85 8.35 94.6 13.95 99.4 21.15 99.4 34.65 99.4 42.2 92.35 48.55 86.45 54.8 70.85 56.4 66.85 57.65 59.65 58.75 53.4 59.15 47.8 59.75 45.65 59.75 41.9 59.6 37.65 59.65 35.7 59.8 29.8 63.2 28.65 65.05 30.8 69.35 30.8 76.55 30.8 80.3 25.4 83.3 21.05 83.3 14.85 83.3 8.9 77.25 4 76 3 74.8 2.2 Z"/>
</g>

<g id="blanket_ghost_face_0_Layer0_0_FILL">
<path fill="#000000" stroke="none" d="
M 58.55 9.05
Q 49.75 0 41.5 0 32.5 0 27.45 2.7 22.65 5.3 14.1 14.4 0 29.5 0 43.5 0 52.8 12.4 57.9 21.45 61.6 30.45 61.6 38.45 61.6 48.2 55.75 53.5 52.55 57.35 49.05 62.9 41.7 64.75 37.95 67.25 32.9 67.25 26.15 67.25 18.05 58.55 9.05
M 41.8 5
Q 50 5 57.2 12.05 64.25 18.95 64.25 26.45 64.25 34.3 59.9 41.2 55.45 48.3 47.55 52.45 44.35 55 42.4 55.95 37.75 58.25 30.6 58.25 22.45 58.25 15.45 55.3 4.4 50.6 4.4 40.3 4.4 28.15 17.15 16.45 29.6 5 41.8 5 Z"/>

<path fill="#333333" stroke="none" d="
M 57.2 12.05
Q 50 5 41.8 5 29.6 5 17.15 16.45 4.4 28.15 4.4 40.3 4.4 50.6 15.45 55.3 22.45 58.25 30.6 58.25 37.75 58.25 42.4 55.95 44.35 55 47.55 52.45 55.45 48.3 59.9 41.2 64.25 34.3 64.25 26.45 64.25 18.95 57.2 12.05
M 43.55 23.95
Q 43.55 23.05 44.2 22.4 44.85 21.75 45.75 21.75 46.7 21.75 47.35 22.4 48 23.05 48 24 48 24.9 47.35 25.55 46.7 26.2 45.75 26.2 44.85 26.2 44.2 25.55 43.55 24.9 43.55 23.95
M 32.9 23.15
Q 32.9 20.95 34.05 19.35 35.25 17.8 36.9 17.8 38.55 17.8 39.75 19.35 40.95 20.95 40.95 23.2 40.95 25.4 39.75 27 38.55 28.6 36.9 28.6 35.25 28.6 34.05 27 32.9 25.4 32.9 23.15 Z"/>

<path fill="#66CCFF" stroke="none" d="
M 34.05 19.35
Q 32.9 20.95 32.9 23.15 32.9 25.4 34.05 27 35.25 28.6 36.9 28.6 38.55 28.6 39.75 27 40.95 25.4 40.95 23.2 40.95 20.95 39.75 19.35 38.55 17.8 36.9 17.8 35.25 17.8 34.05 19.35
M 44.2 22.4
Q 43.55 23.05 43.55 23.95 43.55 24.9 44.2 25.55 44.85 26.2 45.75 26.2 46.7 26.2 47.35 25.55 48 24.9 48 24 48 23.05 47.35 22.4 46.7 21.75 45.75 21.75 44.85 21.75 44.2 22.4 Z"/>
</g>

<g id="lantern_glow_0_Layer0_0_FILL">
<path fill="#3399FF" stroke="none" d="
M 118.9 59.45
Q 118.9 34.85 101.5 17.45 84.1 0 59.45 0 34.85 0 17.45 17.45 0 34.85 0 59.45 0 84.1 17.45 101.5 34.85 118.9 59.45 118.9 84.1 118.9 101.5 101.5 118.9 84.1 118.9 59.45
M 105.25 56.7
Q 105.25 75.7 91.85 89.1 78.45 102.5 59.45 102.5 40.5 102.5 27.05 89.1 13.65 75.7 13.65 56.7 13.65 37.75 27.05 24.3 40.5 10.9 59.45 10.9 78.45 10.9 91.85 24.3 105.25 37.75 105.25 56.7 Z"/>

<path fill="#00FFFF" stroke="none" d="
M 91.85 89.1
Q 105.25 75.7 105.25 56.7 105.25 37.75 91.85 24.3 78.45 10.9 59.45 10.9 40.5 10.9 27.05 24.3 13.65 37.75 13.65 56.7 13.65 75.7 27.05 89.1 40.5 102.5 59.45 102.5 78.45 102.5 91.85 89.1
M 57.45 25.95
Q 69.9 25.95 78.7 34.75 87.55 43.6 87.55 56.05 87.55 68.5 78.7 77.3 69.9 86.1 57.45 86.1 45 86.1 36.15 77.3 27.35 68.5 27.35 56.05 27.35 43.6 36.15 34.75 45 25.95 57.45 25.95 Z"/>

<path fill="#FFFFFF" stroke="none" d="
M 78.7 34.75
Q 69.9 25.95 57.45 25.95 45 25.95 36.15 34.75 27.35 43.6 27.35 56.05 27.35 68.5 36.15 77.3 45 86.1 57.45 86.1 69.9 86.1 78.7 77.3 87.55 68.5 87.55 56.05 87.55 43.6 78.7 34.75 Z"/>
</g>

<g id="lantern_Hand_copy_2_0_Layer1_0_FILL">
<path fill="#000000" stroke="none" d="
M 18.4 -22.8
Q 17.65 -22.9 16.85 -22.9 12.3 -22.9 9.05 -20.6 5.9 -18.25 5.9 -14.9 5.9 -11.6 8.95 -9.4
L 5.6 -9.4 -12.25 7.95 7.55 49.7 30.95 47.6 45.05 6 28.45 -9.4 24.75 -9.4
Q 27.9 -11.6 27.9 -14.9 27.9 -18.25 24.6 -20.6 22 -22.5 18.4 -22.8
M 16.85 -21.4
Q 17.95 -21.4 18.95 -21.2 21.2 -20.8 22.95 -19.5 25.55 -17.6 25.55 -14.85 25.55 -12.15 22.95 -10.3 22.85 -10.2 22.8 -10.1 21.65 -9.3 20.3 -8.85 18.7 -8.35 16.85 -8.35 15.05 -8.35 13.45 -8.85 11.95 -9.35 10.7 -10.3 8.2 -12.15 8.2 -14.85 8.2 -17.6 10.7 -19.5 13.25 -21.4 16.85 -21.4
M 22 -6.2
L 26 -6.2 35.65 8.1 27.65 8.1 -1.3 8.1 8.15 -6.2 22 -6.2
M 10.65 43.1
L 7.95 37.75 25.2 37.75 28.7 37.75 25.75 43.4 23.5 43.35 10.65 43.1
M 31.15 36.4
L 5.45 36.7 -4.6 9.75 39.2 9.75 31.15 36.4
M 13.95 -14.75
Q 13.95 -13.7 14.8 -13 15.65 -12.25 16.85 -12.25 18.1 -12.25 18.95 -13 19.8 -13.7 19.8 -14.75 19.8 -15.75 18.95 -16.5 18.1 -17.3 16.85 -17.3 15.65 -17.3 14.8 -16.5 13.95 -15.75 13.95 -14.75
M 15.65 -15.95
Q 16.2 -16.45 16.85 -16.45 17.6 -16.45 18.1 -15.95 18.65 -15.45 18.65 -14.8 18.65 -14.1 18.1 -13.65 17.6 -13.2 16.85 -13.2 16.2 -13.2 15.65 -13.65 15.15 -14.1 15.15 -14.8 15.15 -15.45 15.65 -15.95 Z"/>

<path fill="#FFFFFF" stroke="none" d="
M 23.5 43.35
L 25.75 43.4 28.7 37.75 25.2 37.75 23.5 43.35
M 26 -6.2
L 22 -6.2 27.65 8.1 35.65 8.1 26 -6.2
M 22.8 -10.1
Q 22.85 -10.2 22.95 -10.3 25.55 -12.15 25.55 -14.85 25.55 -17.6 22.95 -19.5 21.2 -20.8 18.95 -21.2 24.9 -17.1 22.8 -10.1 Z"/>

<path fill="url(#Gradient_1)" stroke="none" d="
M 7.95 37.75
L 10.65 43.1 23.5 43.35 25.2 37.75 7.95 37.75 Z"/>

<path fill="url(#Gradient_2)" stroke="none" d="
M 22 -6.2
L 8.15 -6.2 -1.3 8.1 27.65 8.1 22 -6.2 Z"/>

<path fill="url(#Gradient_3)" stroke="none" d="
M 18.95 -21.2
Q 17.95 -21.4 16.85 -21.4 13.25 -21.4 10.7 -19.5 8.2 -17.6 8.2 -14.85 8.2 -12.15 10.7 -10.3 11.95 -9.35 13.45 -8.85 15.05 -8.35 16.85 -8.35 18.7 -8.35 20.3 -8.85 21.65 -9.3 22.8 -10.1 24.9 -17.1 18.95 -21.2
M 14.8 -13
Q 13.95 -13.7 13.95 -14.75 13.95 -15.75 14.8 -16.5 15.65 -17.3 16.85 -17.3 18.1 -17.3 18.95 -16.5 19.8 -15.75 19.8 -14.75 19.8 -13.7 18.95 -13 18.1 -12.25 16.85 -12.25 15.65 -12.25 14.8 -13 Z"/>
</g>

<g id="lantern_Hand_copy_2_0_Layer0_0_FILL">
<path fill="#66CCFF" stroke="none" d="
M 22.95 22.6
Q 21.8 20.55 20.4 19.75 18.4 18.65 15.7 19.15 13.1 19.65 11.85 21.25 11.25 22.2 10.9 24.2 10.35 26.6 10.3 27.55 10.05 29.4 10.35 30.9 10.7 32.65 11.95 34.05 13.25 35.55 15.2 36.25 16.7 36.75 18.05 36.65 21.4 36.45 23.4 33.3 26.3 28.55 22.95 22.6
M 15.95 24.3
Q 16.1 23.55 16.65 23.4 17.3 23.4 17.65 23.95
L 17.85 24.45 18.25 25
Q 19.25 26.15 19.3 26.85 19.45 27.25 19.5 28.05 19.5 28.45 19.65 29.2 19.65 29.75 18.95 30.65 18.7 30.6 17.6 30.65 16.8 30.7 16.45 30.55 15.95 30.35 15.6 29.7 14.9 28.6 14.9 28.1 14.85 27.6 15.35 26.75 15.85 25.8 15.9 25.35 15.85 24.6 15.95 24.3 Z"/>

<path fill="#FFFFFF" stroke="none" d="
M 16.65 23.4
Q 16.1 23.55 15.95 24.3 15.85 24.6 15.9 25.35 15.85 25.8 15.35 26.75 14.85 27.6 14.9 28.1 14.9 28.6 15.6 29.7 15.95 30.35 16.45 30.55 16.8 30.7 17.6 30.65 18.7 30.6 18.95 30.65 19.65 29.75 19.65 29.2 19.5 28.45 19.5 28.05 19.45 27.25 19.3 26.85 19.25 26.15 18.25 25
L 17.85 24.45 17.65 23.95
Q 17.3 23.4 16.65 23.4 Z"/>
</g>

<g id="blanket_ghost_other_arm_0_Layer0_0_FILL">
<path fill="#4B286D" stroke="none" d="
M 51.3 9.95
Q 51.6 14.4 51.6 14.8 51.6 22.75 48.15 32.95 47.3 35.4 42.2 47.85
L 42.2 48.2
Q 43.75 47 46.2 43.6 48.45 40.5 49.2 38.75
L 49.85 38.75
Q 49.65 41.15 50 44.95 50.25 43.05 50.8 38.95 53.55 17.85 51.3 9.95
M 45.85 9.35
L 45.55 9.35
Q 37.05 17.5 32.7 20.4 22.55 27.15 6.95 31.8 10.1 32.45 11.55 32.45 17.75 32.45 25.25 29.5 33.15 26.4 37.1 22
L 37.1 22.35
Q 36.9 23.4 33.95 33.85 31.45 42.75 31.45 44.3 31.45 44.85 31.5 44.9 31.55 44.95 31.8 45.1 39.35 40.65 44.55 30.4 50.15 19.25 47.85 10.3
L 45.2 13.3
Q 45.2 12.4 45.85 11
L 45.85 9.35 Z"/>

<path fill="#CC33FF" stroke="none" d="
M 51.3 9.95
Q 50 5.55 47.25 5.2 43.15 4.65 37.95 7.75 30.7 11.95 28.65 12.6 23.95 14 17.9 15.25 13.25 16.15 10.25 16.75 7.65 17.65 6 18.6 0 22 0 30.25 0 36.55 13.7 47.5 26.7 57.85 31.65 57.85 33 57.85 38.9 55.75 44.7 53.6 45.55 52.85 48.05 50.55 49.05 48.55 49.25 48.15 49.55 47.55 49.65 46.9 49.75 46.25 49.85 45.85 50 44.95 49.65 41.15 49.85 38.75
L 49.2 38.75
Q 48.45 40.5 46.2 43.6 43.75 47 42.2 48.2
L 42.2 47.85
Q 47.3 35.4 48.15 32.95 51.6 22.75 51.6 14.8 51.6 14.4 51.3 9.95
M 45.55 9.35
L 45.85 9.35 45.85 11
Q 45.2 12.4 45.2 13.3
L 47.85 10.3
Q 50.15 19.25 44.55 30.4 39.35 40.65 31.8 45.1 31.55 44.95 31.5 44.9 31.45 44.85 31.45 44.3 31.45 42.75 33.95 33.85 36.9 23.4 37.1 22.35
L 37.1 22
Q 33.15 26.4 25.25 29.5 17.75 32.45 11.55 32.45 10.1 32.45 6.95 31.8 22.55 27.15 32.7 20.4 37.05 17.5 45.55 9.35 Z"/>

<path fill="#000000" stroke="none" d="
M 55.9 10.4
Q 54.65 0.8 49.1 0.1 44.55 -0.5 37.2 3.35 29.45 8 26.75 9.3 23.45 10.9 16.65 13.6 9.6 16.35 7.75 17.25 8.8 17.05 10.25 16.75 13.25 16.15 17.9 15.25 23.95 14 28.65 12.6 30.7 11.95 37.95 7.75 43.15 4.65 47.25 5.2 50 5.55 51.3 9.95 53.55 17.85 50.8 38.95 50.25 43.05 50 44.95 49.85 45.85 49.75 46.25 49.65 46.9 49.55 47.55 49.4 48.1 49.3 48.7 49.55 48.1 49.9 47.5 50 47.2 50.15 46.85 50.7 45.4 51.3 43.8 51.75 42.8 52.1 41.8 54.25 35.2 55.45 26.05 56.65 16.9 55.9 10.4 Z"/>
</g>

<g id="blanket_ghost_teddy_0_Layer0_0_FILL">
<path fill="#000000" stroke="none" d="
M 55.55 18.75
Q 55 18.75 53.6 19.15
L 52.25 19.5
Q 51.9 13.5 47.6 9.7 43.3 5.9 38.2 6.35 37.2 1.75 36.5 1 35.6 0 31.6 0 27.95 0 23.5 2.3 18.4 4.95 18.4 8.05 18.4 8.75 19.1 10.2 20 12.15 20.1 12.4 15.6 12.25 12.35 17.35 9.6876953125 21.49140625 9.5 25.95 9.5021484375 26.0365234375 9.5 26.1 5.9 26.55 3 29.5 0 32.5 0 35.75 0 38.180078125 1.2 40 2.03515625 41.2080078125 3.35 42.15 6.15 44.15 9.55 44.15 10.8 44.15 13.45 42.7 15.4 41.65 16.4 40.85 17.95 41.7 20.3 42 21.4 42.15 24.95 42.15 32.7 42.15 41.65 37.3 45.52734375 35.166015625 47.65 33.15 49.0619140625 31.8564453125 49.7 30.6 50.003515625 31.234765625 50.4 31.8 50.7744140625 32.301953125 51.2 32.75 53.7 35.45 57.2 35.45 60.35 35.45 62.3 33.1 63.4970703125 31.6265625 63.95 29.55 64.25 28.275 64.25 26.75 64.25 22.85 61.95 20.75 59.7 18.75 55.55 18.75
M 53.35 23.7
Q 53.5533203125 23.3759765625 53.75 23.05 55.070703125 21.09921875 55.9 20.75 61.6 20.75 61.6 27.1 61.6 28.6763671875 61.25 29.65 61.1203125 30.1197265625 60.9 30.45 60.05 31.85 57.75 31.85 55.55 31.85 53.9 30.85 53.2849609375 30.475 52.85 29.95 51.85 28.834765625 51.85 27.05 51.85 26.2 53.35 23.7
M 42.9 11.8
Q 49.5 12.85 49.85 20.1
L 48.85 26.85
Q 46.67421875 30.8251953125 41.85 34 40.9359375 34.6544921875 39.9 35.25 31.45 40.15 21.3 40.15 20.65 40.15 15.75 37.85 15.15 37.85 13.85 39.5 12.5 41.1 11.05 41.1 9.85 41.1 7.1 38.85 6.7779296875 38.5861328125 6.5 38.3 4.05 36.1494140625 4.05 34.45 4.05 34.05 5.7 31.4 7.55 28.45 8.55 28.45 9.05 28.45 9.6 28.6 10.05 31.25 10.3 31.95 10.5375 30.4365234375 10.9 28.85 11.1748046875 27.7974609375 11.5 26.7 12.7 22.5 14.1 20.4 16.1 17.4 16.15 17.35 16.361328125 17.0794921875 16.55 16.8 17.6875 15.5724609375 19.1 14.7 19.6 14.4 22.75 13.85 25.35 13.45 25.8 12.4 24.827734375 12.6916015625 23.3 10.9 23.29296875 10.852734375 23.25 10.8 21.65 8.9 21.75 7.7 22.25 7.6 26.95 5.55 31.25 3.7 33.15 3.7 34.45 3.7 35.3 5.25 36.45 7.4 36.8 7.7 36.3 8.35 34.9 9.75 33.65 11.05 32.9 12.05
L 33.15 12.05
Q 35.1 10.95 35.85 10.8 36.25 10.7 42.9 11.8
M 19.95 34.15
Q 19.15 34.8 19.15 35.7 19.15 36.65 19.95 37.3 20.75 37.95 21.8 37.95 22.9 37.95 23.7 37.3 24.5 36.65 24.5 35.7 24.5 34.8 23.7 34.15 22.9 33.5 21.8 33.5 20.75 33.5 19.95 34.15
M 43.95 22.2
Q 43.95 20.95 43.25 20.05 42.55 19.2 41.55 19.2 40.6 19.2 39.9 20.05 39.2 20.95 39.2 22.2 39.2 23.45 39.9 24.3 40.6 25.2 41.55 25.2 42.55 25.2 43.25 24.3 43.95 23.45 43.95 22.2 Z"/>

<path fill="#BD793E" stroke="none" d="
M 10.9 28.85
Q 10.5375 30.4365234375 10.3 31.95 10.05 31.25 9.6 28.6 9.05 28.45 8.55 28.45 7.55 28.45 5.7 31.4 4.05 34.05 4.05 34.45 4.05 36.1494140625 6.5 38.3 7.9642578125 37.463671875 9.05 36.2 11.15 33.8 11.15 31.45 11.15 29.9625 10.9 28.85
M 49.85 20.1
Q 49.5 12.85 42.9 11.8 36.25 10.7 35.85 10.8 35.1 10.95 33.15 12.05
L 32.9 12.05
Q 33.65 11.05 34.9 9.75 36.3 8.35 36.8 7.7 36.45 7.4 35.3 5.25 34.45 3.7 33.15 3.7 31.25 3.7 26.95 5.55 22.25 7.6 21.75 7.7 21.65 8.9 23.25 10.8 23.29296875 10.852734375 23.3 10.9 24.827734375 12.6916015625 25.8 12.4 25.35 13.45 22.75 13.85 19.6 14.4 19.1 14.7 17.6875 15.5724609375 16.55 16.8 16.35 18.3826171875 16.35 21.85 16.35 29.5 23.4 32.35 27.8 34.1 36.3 34.1 39.65703125 34.1 41.85 34 46.67421875 30.8251953125 48.85 26.85
L 49.85 20.1
M 43.25 20.05
Q 43.95 20.95 43.95 22.2 43.95 23.45 43.25 24.3 42.55 25.2 41.55 25.2 40.6 25.2 39.9 24.3 39.2 23.45 39.2 22.2 39.2 20.95 39.9 20.05 40.6 19.2 41.55 19.2 42.55 19.2 43.25 20.05
M 55.9 20.75
Q 55.070703125 21.09921875 53.75 23.05 54.5830078125 24.5279296875 56.35 26.35 59.130078125 29.2142578125 61.25 29.65 61.6 28.6763671875 61.6 27.1 61.6 20.75 55.9 20.75 Z"/>

<path fill="#53315F" stroke="none" d="
M 16.35 21.85
Q 16.35 18.3826171875 16.55 16.8 16.361328125 17.0794921875 16.15 17.35 16.1 17.4 14.1 20.4 12.7 22.5 11.5 26.7 11.1748046875 27.7974609375 10.9 28.85 11.15 29.9625 11.15 31.45 11.15 33.8 9.05 36.2 7.9642578125 37.463671875 6.5 38.3 6.7779296875 38.5861328125 7.1 38.85 9.85 41.1 11.05 41.1 12.5 41.1 13.85 39.5 15.15 37.85 15.75 37.85 20.65 40.15 21.3 40.15 31.45 40.15 39.9 35.25 40.9359375 34.6544921875 41.85 34 39.65703125 34.1 36.3 34.1 27.8 34.1 23.4 32.35 16.35 29.5 16.35 21.85
M 19.15 35.7
Q 19.15 34.8 19.95 34.15 20.75 33.5 21.8 33.5 22.9 33.5 23.7 34.15 24.5 34.8 24.5 35.7 24.5 36.65 23.7 37.3 22.9 37.95 21.8 37.95 20.75 37.95 19.95 37.3 19.15 36.65 19.15 35.7
M 53.75 23.05
Q 53.5533203125 23.3759765625 53.35 23.7 51.85 26.2 51.85 27.05 51.85 28.834765625 52.85 29.95 53.2849609375 30.475 53.9 30.85 55.55 31.85 57.75 31.85 60.05 31.85 60.9 30.45 61.1203125 30.1197265625 61.25 29.65 59.130078125 29.2142578125 56.35 26.35 54.5830078125 24.5279296875 53.75 23.05 Z"/>
</g>
</defs>

<g transform="matrix( 0.8803863525390625, 0, 0, 0.8803863525390625, 464.15,349.75) ">
<g transform="matrix( 1, 0, 0, 1, -76.9,6) ">
<g transform="matrix( 0.999847412109375, 0.013916015625, -0.0090789794921875, 0.999755859375, 1.2,38.5) ">
<g transform="matrix( 1, 0, 0, 1, 0,0) ">
<use xlink:href="#blanket_ghost_bottom_copy_6_Layer0_0_FILL"/>
</g>
</g>

<g transform="matrix( 0.9987335205078125, -0.044036865234375, 0.109832763671875, 0.996368408203125, 5.85,4.4) ">
<g transform="matrix( 1, 0, 0, 1, 0,0) ">
<use xlink:href="#blanket_ghost_hood_copy_6_Layer0_0_FILL"/>
</g>
</g>

<g transform="matrix( 1, 0, -0.0400543212890625, 1.000244140625, 127.15,19.3) ">
<g transform="matrix( 1, 0, 0, 1, 0,0) ">
<use xlink:href="#blanket_ghost_arm_0_Layer0_0_FILL"/>
</g>
</g>

<g transform="matrix( 1.0003662109375, 0.04473876953125, 0, 1, 85.45,17.45) ">
<g transform="matrix( 1, 0, 0, 1, 0,0) ">
<use xlink:href="#blanket_ghost_face_0_Layer0_0_FILL"/>
</g>
</g>

<g transform="matrix( 0.9986419677734375, 0.0485687255859375, -0.0485687255859375, 0.9986419677734375, 177.7,62.25) ">
<g transform="matrix( 0.74951171875, 0, 0, 0.74951171875, -26.55,-13.9) ">
<g transform="matrix( 1, 0, 0, 1, 0,0) ">
<use filter="url(#Filter_1)" xlink:href="#lantern_glow_0_Layer0_0_FILL"/>
</g>
</g>

<g transform="matrix( 1, 0, 0, 1, 0,0) ">
<use xlink:href="#lantern_Hand_copy_2_0_Layer1_0_FILL"/>
</g>

<g transform="matrix( 1, 0, 0, 1, 0,0) ">
<use xlink:href="#lantern_Hand_copy_2_0_Layer0_0_FILL"/>
</g>
</g>

<g transform="matrix( 0.9996795654296875, -0.0221710205078125, 0.0221710205078125, 0.9996795654296875, 89,70.25) ">
<g transform="matrix( 1, 0, 0, 1, 0,0) ">
<use xlink:href="#blanket_ghost_other_arm_0_Layer0_0_FILL"/>
</g>
</g>

<g transform="matrix( 0.9997711181640625, -0.0178070068359375, 0.0178070068359375, 0.9997711181640625, 69.35,49.25) ">
<g transform="matrix( 1, 0, 0, 1, 0,0) ">
<use xlink:href="#blanket_ghost_teddy_0_Layer0_0_FILL"/>
</g>
</g>
</g>
</g>
</svg>
