
<svg xmlns="http://www.w3.org/2000/svg" version="1.1" xmlns:xlink="http://www.w3.org/1999/xlink" preserveAspectRatio="none" x="0px" y="0px" width="1000px" height="1000px" viewBox="0 0 1000 1000">
<defs>
<linearGradient id="Gradient_1" gradientUnits="userSpaceOnUse" x1="16.925" y1="42.5625" x2="21.474999999999998" y2="26.137500000000003" spreadMethod="pad">
<stop  offset="0%" stop-color="#877046"/>

<stop  offset="30.58823529411765%" stop-color="#CCCC99"/>

<stop  offset="100%" stop-color="#FFFFFF"/>
</linearGradient>

<linearGradient id="Gradient_2" gradientUnits="userSpaceOnUse" x1="10.762500000000001" y1="12.05" x2="26.4375" y2="-3.8500000000000005" spreadMethod="pad">
<stop  offset="0%" stop-color="#877046"/>

<stop  offset="30.58823529411765%" stop-color="#CCCC99"/>

<stop  offset="100%" stop-color="#FFFFFF"/>
</linearGradient>

<linearGradient id="Gradient_3" gradientUnits="userSpaceOnUse" x1="14.525" y1="-11.0125" x2="23.075000000000003" y2="-25.587500000000002" spreadMethod="pad">
<stop  offset="0%" stop-color="#877046"/>

<stop  offset="30.58823529411765%" stop-color="#CCCC99"/>

<stop  offset="100%" stop-color="#FFFFFF"/>
</linearGradient>

<filter id="Filter_1" x="-20%" y="-20%" width="140%" height="140%" color-interpolation-filters="sRGB">
<feColorMatrix in="SourceGraphic" type="matrix" values="1 0 0 0 0 0 1 0 0 0 0 0 1 0 0 0 0 0 0.5 0" result="result1"/>
</filter>

<g id="lantern_glow_1_Layer0_0_FILL">
<path fill="#3399FF" stroke="none" d="
M 130.2 59.45
Q 130.2 30.15 109.45 9.4 88.75 -11.3 59.45 -11.3 30.15 -11.3 9.4 9.4 -11.3 30.15 -11.3 59.45 -11.3 88.75 9.4 109.45 30.15 130.2 59.45 130.2 88.75 130.2 109.45 109.45 130.2 88.75 130.2 59.45
M 113.95 56.15
Q 113.95 78.75 98 94.7 82.05 110.7 59.45 110.7 36.85 110.7 20.9 94.7 4.95 78.75 4.95 56.15 4.95 33.55 20.9 17.55 36.85 1.6 59.45 1.6 82.05 1.6 98 17.55 113.95 33.55 113.95 56.15 Z"/>

<path fill="#00FFFF" stroke="none" d="
M 98 94.7
Q 113.95 78.75 113.95 56.15 113.95 33.55 98 17.55 82.05 1.6 59.45 1.6 36.85 1.6 20.9 17.55 4.95 33.55 4.95 56.15 4.95 78.75 20.9 94.7 36.85 110.7 59.45 110.7 82.05 110.7 98 94.7
M 92.95 55.35
Q 92.95 70.2 82.45 80.65 71.95 91.15 57.1 91.15 42.25 91.15 31.75 80.65 21.25 70.2 21.25 55.35 21.25 40.5 31.75 30 42.25 19.55 57.1 19.55 71.95 19.55 82.45 30 92.95 40.5 92.95 55.35 Z"/>

<path fill="#FFFFFF" stroke="none" d="
M 82.45 80.65
Q 92.95 70.2 92.95 55.35 92.95 40.5 82.45 30 71.95 19.55 57.1 19.55 42.25 19.55 31.75 30 21.25 40.5 21.25 55.35 21.25 70.2 31.75 80.65 42.25 91.15 57.1 91.15 71.95 91.15 82.45 80.65 Z"/>
</g>

<g id="blanket_ghost_bottom_copy_4_Layer0_0_FILL">
<path fill="#4B286D" stroke="none" d="
M 20.1 57.4
Q 17.685546875 57.8888671875 15.7 58.1 17.0044921875 60.8548828125 18.35 65.15 19.7 69.55 21.6 76.55 23.65 82.9 27.65 87.2 32.4 92.3 38.6 92.7 49.75 93.4 64.25 95.3 68.2 95.85 76.25 98.85 83.25 101.45 88.25 101.45 91.4083984375 101.45 95.3 100.7 85.6546875 99.5455078125 75.25 93.6 67.1 88.9 66.25 88.45 61.5 86.15 57.7 86.15 47.6 86.15 42.4 88.35 37.15 90.55 32.9 90.55 27.55 90.55 23.45 74.35 21.1775390625 62.5537109375 20.1 57.4 Z"/>

<path fill="#000000" stroke="none" d="
M 153.9 41
L 152.45 41
Q 151.593359375 54.0076171875 148.35 63.45 144.1 75.75 135.3 84 131.95 87.2 116.65 93.7 104.092578125 99.0619140625 95.3 100.7 91.4083984375 101.45 88.25 101.45 83.25 101.45 76.25 98.85 68.2 95.85 64.25 95.3 49.75 93.4 38.6 92.7 32.4 92.3 27.65 87.2 23.65 82.9 21.6 76.55 19.7 69.55 18.35 65.15 17.0044921875 60.8548828125 15.7 58.1 17.685546875 57.8888671875 20.1 57.4 21.9626953125 57.0185546875 24.05 56.5 33.05 54.3 40.95 50.6 62.55 40.45 62.55 25.85
L 62.2 25.6
Q 62.106640625 25.737109375 62 25.85 53.665625 37.963671875 40.5 42.8 30.3 46.55 13.5 46.55 12.05 46.55 6.85 48.15 4.2 48.95 1.1 50 2.5 53.55 3.6 59.3 4.25 62.6 5.4 69.45 7.85 82.05 12.85 87.95 19.65 96.1 26.75 97.9 31.25 99.15 34.45 99.95 41.8 101.85 43.55 101.85 44.1 101.85 45.6 102.75 46.1564453125 103.065234375 47.25 103.2
L 47.25 103.6
Q 51.5 104.2 55.6 104.2 57.9 104.2 62.1 104.05 64.7 104.05 74.9 106.7 85.05 109.35 89.3 109.35 100.55 109.35 113.6 102.5 120.95 98.7 134.45 90.55 143.25 86.1 149.7 74.35 156.2 62.6 156.2 51.05 156.2 46.3 154.4 41.05
L 153.9 41 Z"/>

<path fill="#CC33FF" stroke="none" d="
M 154.15 26.4
Q 153.8 18.75 150.95 13.45 142.8 -1.8 112.85 -1.8 83.5 -1.8 70.9 10.7 66.2 15.4 63.25 22.45 62.7037109375 23.7767578125 62 25.85 62.106640625 25.737109375 62.2 25.6
L 62.55 25.85
Q 62.55 40.45 40.95 50.6 33.05 54.3 24.05 56.5 21.9626953125 57.0185546875 20.1 57.4 21.1775390625 62.5537109375 23.45 74.35 27.55 90.55 32.9 90.55 37.15 90.55 42.4 88.35 47.6 86.15 57.7 86.15 61.5 86.15 66.25 88.45 67.1 88.9 75.25 93.6 85.6546875 99.5455078125 95.3 100.7 104.092578125 99.0619140625 116.65 93.7 131.95 87.2 135.3 84 144.1 75.75 148.35 63.45 151.593359375 54.0076171875 152.45 41
L 153.9 41
Q 154.05 38.3025390625 154.05 37.55 154.4 30.65 154.15 26.4
M 65.95 45.6
Q 65.9 46.35 65.25 47.85 65.5 48.2 67.9 50.55 70.45 53.25 72 54.35 71.65 55.7 71.65 58 72.2 58.35 73.3 59.25 74.85 60.15 75.8 61.2 73.05 60.2 71.45 60.4 71.3 62.45 71.15 64.25 71.3 64.6 72.25 65.55 73 66.8 73.15 67.45 71.35 66.9 70.15 66.7 68.95 68.4 67.55 69.7 67.85 69.9 68.35 70.9 68.5 71.65 68.45 72 66 71.25 65.55 71.3 65.35 71.35 65.3 71.15 56.95 74.6 56.75 74.8 53.55 74.2 50.5 72.4 46.25 73.1 46.55 73.5 45.35 72.4 46.5 71.45 47.5 70.3 48.3 70.5 47.4 69.6 46.5 68.45 45.9 67.45 45.9 67.4 39.4 66.65 38.65 66.65 38.45 66.4 41.85 66.55 44.7 66.3 45.7 66.45 45.05 65.05 44.4 64.05 41.25 60.15 37.25 57.45 36 57.25 35.5 57.25 36.8 55.55 40.05 55.45 42.65 55.05 48.2 54 50.45 52.55 56.05 48.05 60.5 44.55 61.15 44.65 62 44.65 64 46.4 66.15 42.8 66.5 43 65.75 44.8 65.95 45.6 Z"/>

<path fill="#CC99FF" stroke="none" d="
M 65.25 47.85
Q 65.9 46.35 65.95 45.6 65.75 44.8 66.5 43 66.15 42.8 64 46.4 62 44.65 61.15 44.65 60.5 44.55 56.05 48.05 50.45 52.55 48.2 54 42.65 55.05 40.05 55.45 36.8 55.55 35.5 57.25 36 57.25 37.25 57.45 41.25 60.15 44.4 64.05 45.05 65.05 45.7 66.45 44.7 66.3 41.85 66.55 38.45 66.4 38.65 66.65 39.4 66.65 45.9 67.4 45.9 67.45 46.5 68.45 47.4 69.6 48.3 70.5 47.5 70.3 46.5 71.45 45.35 72.4 46.55 73.5 46.25 73.1 50.5 72.4 53.55 74.2 56.75 74.8 56.95 74.6 65.3 71.15 65.35 71.35 65.55 71.3 66 71.25 68.45 72 68.5 71.65 68.35 70.9 67.85 69.9 67.55 69.7 68.95 68.4 70.15 66.7 71.35 66.9 73.15 67.45 73 66.8 72.25 65.55 71.3 64.6 71.15 64.25 71.3 62.45 71.45 60.4 73.05 60.2 75.8 61.2 74.85 60.15 73.3 59.25 72.2 58.35 71.65 58 71.65 55.7 72 54.35 70.45 53.25 67.9 50.55 65.5 48.2 65.25 47.85 Z"/>
</g>

<g id="blanket_ghost_hood_copy_4_Layer0_0_FILL">
<path fill="#4B286D" stroke="none" d="
M 44.2 57.05
Q 43.95 58.25 47.9 59.5 49.3 59.5 52.85 60.5 51.4 61.65 49.6 63.45 48.3 64.35 47.25 64.65 47.4 64.75 48.1 64.95 58.7 64.35 64 51.15 61.15 52.65 56.95 54 48.9 55.9 44.2 56.45 44.1 56.55 44.2 57.05
M 64.2 36.6
Q 63.5 36.45 63.4 36.6 54.2 38.85 44 41.5 22.65 46.25 10.9 46.1 7.35 45.6 5.6 45.15 3.7 43.95 3.55 43.3 3.25 44.05 3.15 45.35 2.1 51.35 7.85 54.1 12.75 56.1 20.75 53.7 28.45 50.6 39.7 46.9 50.75 42.85 53.3 44.25 50.2 46.8 48.3 49.65 47.75 49.75 48.2 49.9 49.8 48.3 52.2 46.85 56.4 42.95 64.2 36.6
M 137.25 21.6
Q 134.45 17.5 129.6 15 119.7 5.95 105.1 9.2 90.1 12.1 79.45 14.8 79.9 15.15 82.8 16 85.45 16.65 86.8 17.1 79.2 20.5 76.45 24.05 74.4 25.7 72.2 30.55 77.15 24.8 90 18.8 101.6 12.05 110.1 10.95 117.8 9.9 123.8 13.25 129.25 16 136.95 21.6 137.1 21.6 137.25 21.6 Z"/>

<path fill="#CC99FF" stroke="none" d="
M 56.55 19.1
Q 55.6 17.85 55.5 17.3 52.25 17.3 50.5 18.35 38 20.25 27.8 25.1 27.3 24.7 27.75 25.15 27.8 26.65 28.75 29.25 29.2 30.65 30.25 32.65 32.1 31.55 35.35 30.5 35.8 31.2 36.5 32.5 37.8 34.8 38.35 35 37.95 31.55 38.1 29.6 39.25 28.9 41.4 28.7 41.2 28.85 42.9 32.3 42.8 32.05 43.35 32.3 42.9 30.7 43.1 28.25 44.25 28.05 53.2 26.15 58.9 24.55 59.3 24.4 59.2 23.45 58 21.4 58.15 21.2 59.8 21.3 61 21.05 62.2 21.2 61.2 20 58.75 19.45 57.25 18.95 56.55 19.1 Z"/>

<path fill="#CC33FF" stroke="none" d="
M 159.5 39.9
Q 159.4 37.75 157.45 33.15 155 28.5 153.75 26.7 153.45 26.25 153.2 26.15 141.55 17.8 129.6 15 134.45 17.5 137.25 21.6 137.1 21.6 136.95 21.6 129.25 16 123.8 13.25 117.8 9.9 110.1 10.95 101.6 12.05 90 18.8 77.15 24.8 72.2 30.55 74.4 25.7 76.45 24.05 79.2 20.5 86.8 17.1 85.45 16.65 82.8 16 79.9 15.15 79.45 14.8 74.55 14.45 71.8 15.1 64.05 15.7 55.5 17.3 55.6 17.85 56.55 19.1 57.25 18.95 58.75 19.45 61.2 20 62.2 21.2 61 21.05 59.8 21.3 58.15 21.2 58 21.4 59.2 23.45 59.3 24.4 58.9 24.55 53.2 26.15 44.25 28.05 43.1 28.25 42.9 30.7 43.35 32.3 42.8 32.05 42.9 32.3 41.2 28.85 41.4 28.7 39.25 28.9 38.1 29.6 37.95 31.55 38.35 35 37.8 34.8 36.5 32.5 35.8 31.2 35.35 30.5 32.1 31.55 30.25 32.65 29.2 30.65 28.75 29.25 27.8 26.65 27.75 25.15 17.1 29.45 10.7 34.55 4.85 38.15 3.55 43.3 3.7 43.95 5.6 45.15 7.35 45.6 10.9 46.1 22.65 46.25 44 41.5 54.2 38.85 63.4 36.6 63.5 36.45 64.2 36.6 56.4 42.95 52.2 46.85 49.8 48.3 48.2 49.9 44.7 53.95 44.2 56.45 48.9 55.9 56.95 54 61.15 52.65 64 51.15 58.7 64.35 48.1 64.95 47.4 64.75 47.25 64.65 45.95 64.8 44.85 65.45 45.8 67.1 48.1 71.1 48.7 72.6 51.15 77.7 52.85 81.9 54.3 83.65 57.65 88.9 60.55 91.8 66 97.65 71.3 99.4 86.5 103.4 87.7 103.85 95.15 105.05 104.45 104.85 122.75 102.4 132.3 92.15 135.05 88.2 137.25 83.1 137.65 81.65 138.2 80.8 138.1 80.7 138.2 80.75 137.75 76.65 140.85 71.75 141.3 69.15 147.55 62.05 158.45 48.5 159.5 39.9 Z"/>

<path fill="#000000" stroke="none" d="
M 157.45 33.15
Q 159.4 37.75 159.5 39.9 158.45 48.5 147.55 62.05 141.3 69.15 140.85 71.75 137.75 76.65 138.2 80.75 140.55 74.6 145.7 68.55 147.8 64.95 154.2 59 164.75 48 165.65 37.05 164.7 28.8 158.4 21.65 135.85 3.2 113.2 5.05 90 5.8 74.25 6.15 59.4 6.2 43.8 10.5 28.15 13.7 16.6 19.95 1.95 26.55 -3.5 33.75 -6.5 38.15 -7 47.2 -5.9 56.25 3.05 62.5 9.4 66.3 18.65 67 22.65 66.6 30.75 61.35 32.45 60 34.55 58.65 34.4 59.05 34.65 60.1 34.7 62.7 37.35 64.6 38.75 65 41.2 65.7 43 65.8 44.85 65.45 45.95 64.8 47.25 64.65 48.3 64.35 49.6 63.45 51.4 61.65 52.85 60.5 49.3 59.5 47.9 59.5 43.95 58.25 44.2 57.05 44.1 56.55 44.2 56.45 44.7 53.95 48.2 49.9 47.75 49.75 48.3 49.65 50.2 46.8 53.3 44.25 50.75 42.85 39.7 46.9 28.45 50.6 20.75 53.7 12.75 56.1 7.85 54.1 2.1 51.35 3.15 45.35 3.25 44.05 3.55 43.3 4.85 38.15 10.7 34.55 17.1 29.45 27.75 25.15 27.3 24.7 27.8 25.1 38 20.25 50.5 18.35 52.25 17.3 55.5 17.3 64.05 15.7 71.8 15.1 74.55 14.45 79.45 14.8 90.1 12.1 105.1 9.2 119.7 5.95 129.6 15 141.55 17.8 153.2 26.15 153.45 26.25 153.75 26.7 155 28.5 157.45 33.15 Z"/>
</g>

<g id="blanket_ghost_arm_0_Layer0_0_FILL">
<path fill="#CC33FF" stroke="none" d="
M 38.55 21.85
Q 38.05 22.5 37.5 23.3 34.6 28.85 33.45 34.95 32.65 39.1 31.15 47.45 36.45 39.8 39.3 33.3 39.65 32.5 40 31.65 40.8 24.2 42.7 18.5 40.45 19.6 38.55 21.85
M 36.3 22.05
Q 36.95 20.65 37.7 19.6 28 22.5 19.55 29.85 21.9 29 24.95 28 31.9 25.7 36.3 22.05
M 70 20.35
Q 69.35 20.35 68.2 21 66.9 21.75 66.9 22.5 66.9 23.55 67.9 24 68.75 24.35 70.4 24.35 71.7 24.35 75.25 23.7 75.25 23.95 75.25 24.2 76.2 22.65 76.2 20.2 76.2 15.95 73.25 12.45 69.85 8.4 61.5 8.4 53.15 8.35 47.2 18 41.95 26.4 39.4 44.05 39.4 43.85 39.4 43.8 39.4 42.9 39.4 42 39.15 43.2 38.85 44.3 37.3 50.2 34.75 55.8
L 35.05 55.5
Q 40.3 52.85 43.25 46.35 44.5 43.65 47.25 34 49.5 26.2 52.1 22.6 55.95 17.4 62.85 16.35 60.9 15.35 59.9 14.95 58.25 14.35 56.15 14.7 58 13.65 59 13.45 59.55 13.35 62.35 13.35 65.85 13.35 68.85 15.05 72.2 16.95 72.2 19.85
L 72.2 21.35
Q 72.05 21.1 71.25 20.75 70.4 20.35 70 20.35 Z"/>

<path fill="#4B286D" stroke="none" d="
M 62.85 20.7
Q 64.05 18.75 65.8 18.75 66.85 18.75 67.65 19.4 67.45 19.35 67.2 19.35 66.25 19.35 65.5 20.4 64.85 21.4 64.85 22.6 64.85 24.6 66.15 25.7 67.45 26.75 69.85 26.75 72.95 26.75 74.6 25.05 74.95 24.65 75.25 24.2 75.25 23.95 75.25 23.7 71.7 24.35 70.4 24.35 68.75 24.35 67.9 24 66.9 23.55 66.9 22.5 66.9 21.75 68.2 21 69.35 20.35 70 20.35 70.4 20.35 71.25 20.75 72.05 21.1 72.2 21.35
L 72.2 19.85
Q 72.2 16.95 68.85 15.05 65.85 13.35 62.35 13.35 59.55 13.35 59 13.45 58 13.65 56.15 14.7 58.25 14.35 59.9 14.95 60.9 15.35 62.85 16.35 55.95 17.4 52.1 22.6 49.5 26.2 47.25 34 44.5 43.65 43.25 46.35 40.3 52.85 35.05 55.5
L 34.75 55.8
Q 37.3 50.2 38.85 44.3 39.15 43.2 39.4 42 39.5 36.45 40 31.65 39.65 32.5 39.3 33.3 36.45 39.8 31.15 47.45 32.65 39.1 33.45 34.95 34.6 28.85 37.5 23.3 35.9 25.6 34.05 29.4
L 33.7 29.4
Q 34.8 25.05 36.3 22.05 31.9 25.7 24.95 28 21.9 29 19.55 29.85 16.6 32.35 13.8 35.45 0 50.7 0 70.05 0 71.5 0.65 75.2 0.75 75.9 0.9 76.55 3.2 84.2 6.65 85.65 11.15 87.5 13.5 88.3 17.6 89.6 20.55 89.6 30.45 89.6 38.5 81.75 46.4 74.1 49.8 61.6 51.1 56.75 52.6 50.15 54.15 43.4 54.8 39.45 56.35 30.45 56.45 30.15 57.85 26 61.8 24.05 61.85 22.3 62.85 20.7 Z"/>

<path fill="#000000" stroke="none" d="
M 74.8 2.2
Q 73.3 1.2 71.9 0.55 70.7 0.1 69.65 0 67.2 0 66 0 50.75 0 44.25 14.4 40.6 15.85 38.3 18.75 38 19.15 37.7 19.6 36.95 20.65 36.3 22.05 34.8 25.05 33.7 29.4
L 34.05 29.4
Q 35.9 25.6 37.5 23.3 38.05 22.5 38.55 21.85 40.45 19.6 42.7 18.5 40.8 24.2 40 31.65 39.5 36.45 39.4 42 39.4 42.9 39.4 43.8 39.4 43.85 39.4 44.05 41.95 26.4 47.2 18 53.15 8.35 61.5 8.4 69.85 8.4 73.25 12.45 76.2 15.95 76.2 20.2 76.2 22.65 75.25 24.2 74.95 24.65 74.6 25.05 72.95 26.75 69.85 26.75 67.45 26.75 66.15 25.7 64.85 24.6 64.85 22.6 64.85 21.4 65.5 20.4 66.25 19.35 67.2 19.35 67.45 19.35 67.65 19.4 66.85 18.75 65.8 18.75 64.05 18.75 62.85 20.7 61.85 22.3 61.8 24.05 57.85 26 56.45 30.15 56.35 30.45 54.8 39.45 54.15 43.4 52.6 50.15 51.1 56.75 49.8 61.6 46.4 74.1 38.5 81.75 30.45 89.6 20.55 89.6 17.6 89.6 13.5 88.3 11.15 87.5 6.65 85.65 3.2 84.2 0.9 76.55 0.75 76.1 0.6 75.6
L 0.6 75.25
Q 0.5962890625 75.3587890625 0.45 75.7 0.25 76.1 0.25 76.6 0.25 84.95 5 91.05 5.35 91.5 5.7 91.9 6.15 92.45 6.65 92.95 7.5 93.85 8.35 94.6 13.95 99.4 21.15 99.4 34.65 99.4 42.2 92.35 48.55 86.45 54.8 70.85 56.4 66.85 57.65 59.65 58.75 53.4 59.15 47.8 59.75 45.65 59.75 41.9 59.6 37.65 59.65 35.7 59.8 29.8 63.2 28.65 65.05 30.8 69.35 30.8 76.55 30.8 80.3 25.4 83.3 21.05 83.3 14.85 83.3 8.9 77.25 4 76 3 74.8 2.2 Z"/>
</g>

<g id="blanket_ghost_face_0_Layer0_0_FILL">
<path fill="#000000" stroke="none" d="
M 58.55 9.05
Q 49.75 0 41.5 0 32.5 0 27.45 2.7 22.65 5.3 14.1 14.4 0 29.5 0 43.5 0 52.8 12.4 57.9 21.45 61.6 30.45 61.6 38.45 61.6 48.2 55.75 53.5 52.55 57.35 49.05 62.9 41.7 64.75 37.95 67.25 32.9 67.25 26.15 67.25 18.05 58.55 9.05
M 41.8 5
Q 50 5 57.2 12.05 64.25 18.95 64.25 26.45 64.25 34.3 59.9 41.2 55.45 48.3 47.55 52.45 44.35 55 42.4 55.95 37.75 58.25 30.6 58.25 22.45 58.25 15.45 55.3 4.4 50.6 4.4 40.3 4.4 28.15 17.15 16.45 29.6 5 41.8 5 Z"/>

<path fill="#333333" stroke="none" d="
M 57.2 12.05
Q 50 5 41.8 5 29.6 5 17.15 16.45 4.4 28.15 4.4 40.3 4.4 50.6 15.45 55.3 22.45 58.25 30.6 58.25 37.75 58.25 42.4 55.95 44.35 55 47.55 52.45 55.45 48.3 59.9 41.2 64.25 34.3 64.25 26.45 64.25 18.95 57.2 12.05
M 43.55 23.95
Q 43.55 23.05 44.2 22.4 44.85 21.75 45.75 21.75 46.7 21.75 47.35 22.4 48 23.05 48 24 48 24.9 47.35 25.55 46.7 26.2 45.75 26.2 44.85 26.2 44.2 25.55 43.55 24.9 43.55 23.95
M 32.9 23.15
Q 32.9 20.95 34.05 19.35 35.25 17.8 36.9 17.8 38.55 17.8 39.75 19.35 40.95 20.95 40.95 23.2 40.95 25.4 39.75 27 38.55 28.6 36.9 28.6 35.25 28.6 34.05 27 32.9 25.4 32.9 23.15 Z"/>

<path fill="#66CCFF" stroke="none" d="
M 34.05 19.35
Q 32.9 20.95 32.9 23.15 32.9 25.4 34.05 27 35.25 28.6 36.9 28.6 38.55 28.6 39.75 27 40.95 25.4 40.95 23.2 40.95 20.95 39.75 19.35 38.55 17.8 36.9 17.8 35.25 17.8 34.05 19.35
M 44.2 22.4
Q 43.55 23.05 43.55 23.95 43.55 24.9 44.2 25.55 44.85 26.2 45.75 26.2 46.7 26.2 47.35 25.55 48 24.9 48 24 48 23.05 47.35 22.4 46.7 21.75 45.75 21.75 44.85 21.75 44.2 22.4 Z"/>
</g>

<g id="lantern_Hand_copy_2_1_Layer1_0_FILL">
<path fill="#000000" stroke="none" d="
M 18.4 -22.8
Q 17.65 -22.9 16.85 -22.9 12.3 -22.9 9.05 -20.6 5.9 -18.25 5.9 -14.9 5.9 -11.6 8.95 -9.4
L 5.6 -9.4 -12.25 7.95 7.55 49.7 30.95 47.6 45.05 6 28.45 -9.4 24.75 -9.4
Q 27.9 -11.6 27.9 -14.9 27.9 -18.25 24.6 -20.6 22 -22.5 18.4 -22.8
M 16.85 -21.4
Q 17.95 -21.4 18.95 -21.2 21.2 -20.8 22.95 -19.5 25.55 -17.6 25.55 -14.85 25.55 -12.15 22.95 -10.3 22.85 -10.2 22.8 -10.1 21.65 -9.3 20.3 -8.85 18.7 -8.35 16.85 -8.35 15.05 -8.35 13.45 -8.85 11.95 -9.35 10.7 -10.3 8.2 -12.15 8.2 -14.85 8.2 -17.6 10.7 -19.5 13.25 -21.4 16.85 -21.4
M 22 -6.2
L 26 -6.2 35.65 8.1 27.65 8.1 -1.3 8.1 8.15 -6.2 22 -6.2
M 10.65 43.1
L 7.95 37.75 25.2 37.75 28.7 37.75 25.75 43.4 23.5 43.35 10.65 43.1
M 31.15 36.4
L 5.45 36.7 -4.6 9.75 39.2 9.75 31.15 36.4
M 13.95 -14.75
Q 13.95 -13.7 14.8 -13 15.65 -12.25 16.85 -12.25 18.1 -12.25 18.95 -13 19.8 -13.7 19.8 -14.75 19.8 -15.75 18.95 -16.5 18.1 -17.3 16.85 -17.3 15.65 -17.3 14.8 -16.5 13.95 -15.75 13.95 -14.75
M 15.65 -15.95
Q 16.2 -16.45 16.85 -16.45 17.6 -16.45 18.1 -15.95 18.65 -15.45 18.65 -14.8 18.65 -14.1 18.1 -13.65 17.6 -13.2 16.85 -13.2 16.2 -13.2 15.65 -13.65 15.15 -14.1 15.15 -14.8 15.15 -15.45 15.65 -15.95 Z"/>

<path fill="#FFFFFF" stroke="none" d="
M 23.5 43.35
L 25.75 43.4 28.7 37.75 25.2 37.75 23.5 43.35
M 26 -6.2
L 22 -6.2 27.65 8.1 35.65 8.1 26 -6.2
M 22.8 -10.1
Q 22.85 -10.2 22.95 -10.3 25.55 -12.15 25.55 -14.85 25.55 -17.6 22.95 -19.5 21.2 -20.8 18.95 -21.2 24.9 -17.1 22.8 -10.1 Z"/>

<path fill="url(#Gradient_1)" stroke="none" d="
M 7.95 37.75
L 10.65 43.1 23.5 43.35 25.2 37.75 7.95 37.75 Z"/>

<path fill="url(#Gradient_2)" stroke="none" d="
M 22 -6.2
L 8.15 -6.2 -1.3 8.1 27.65 8.1 22 -6.2 Z"/>

<path fill="url(#Gradient_3)" stroke="none" d="
M 18.95 -21.2
Q 17.95 -21.4 16.85 -21.4 13.25 -21.4 10.7 -19.5 8.2 -17.6 8.2 -14.85 8.2 -12.15 10.7 -10.3 11.95 -9.35 13.45 -8.85 15.05 -8.35 16.85 -8.35 18.7 -8.35 20.3 -8.85 21.65 -9.3 22.8 -10.1 24.9 -17.1 18.95 -21.2
M 14.8 -13
Q 13.95 -13.7 13.95 -14.75 13.95 -15.75 14.8 -16.5 15.65 -17.3 16.85 -17.3 18.1 -17.3 18.95 -16.5 19.8 -15.75 19.8 -14.75 19.8 -13.7 18.95 -13 18.1 -12.25 16.85 -12.25 15.65 -12.25 14.8 -13 Z"/>
</g>

<g id="lantern_Hand_copy_2_1_Layer0_0_FILL">
<path fill="#66CCFF" stroke="none" d="
M 10.25 31.15
Q 10.25 33.05 12.35 34.45 14.5 35.85 17.55 35.85 20.6 35.85 22.7 34.45 24.85 33.05 24.85 31.15 24.85 29.2 22.7 27.8 20.6 26.45 17.55 26.45 14.5 26.45 12.35 27.8 10.25 29.2 10.25 31.15
M 19 29.4
Q 19.6 29.95 19.6 30.7 19.6 31.5 19 32.1 18.35 32.6 17.4 32.6 16.5 32.6 15.9 32.1 15.2 31.5 15.2 30.7 15.2 29.95 15.9 29.4 16.5 28.85 17.4 28.85 18.35 28.85 19 29.4 Z"/>

<path fill="#FFFFFF" stroke="none" d="
M 19.6 30.7
Q 19.6 29.95 19 29.4 18.35 28.85 17.4 28.85 16.5 28.85 15.9 29.4 15.2 29.95 15.2 30.7 15.2 31.5 15.9 32.1 16.5 32.6 17.4 32.6 18.35 32.6 19 32.1 19.6 31.5 19.6 30.7 Z"/>
</g>

<g id="blanket_ghost_other_arm_0_Layer0_0_FILL">
<path fill="#4B286D" stroke="none" d="
M 51.3 9.95
Q 51.6 14.4 51.6 14.8 51.6 22.75 48.15 32.95 47.3 35.4 42.2 47.85
L 42.2 48.2
Q 43.75 47 46.2 43.6 48.45 40.5 49.2 38.75
L 49.85 38.75
Q 49.65 41.15 50 44.95 50.25 43.05 50.8 38.95 53.55 17.85 51.3 9.95
M 45.85 9.35
L 45.55 9.35
Q 37.05 17.5 32.7 20.4 22.55 27.15 6.95 31.8 10.1 32.45 11.55 32.45 17.75 32.45 25.25 29.5 33.15 26.4 37.1 22
L 37.1 22.35
Q 36.9 23.4 33.95 33.85 31.45 42.75 31.45 44.3 31.45 44.85 31.5 44.9 31.55 44.95 31.8 45.1 39.35 40.65 44.55 30.4 50.15 19.25 47.85 10.3
L 45.2 13.3
Q 45.2 12.4 45.85 11
L 45.85 9.35 Z"/>

<path fill="#CC33FF" stroke="none" d="
M 51.3 9.95
Q 50 5.55 47.25 5.2 43.15 4.65 37.95 7.75 30.7 11.95 28.65 12.6 23.95 14 17.9 15.25 13.25 16.15 10.25 16.75 7.65 17.65 6 18.6 0 22 0 30.25 0 36.55 13.7 47.5 26.7 57.85 31.65 57.85 33 57.85 38.9 55.75 44.7 53.6 45.55 52.85 48.05 50.55 49.05 48.55 49.25 48.15 49.55 47.55 49.65 46.9 49.75 46.25 49.85 45.85 50 44.95 49.65 41.15 49.85 38.75
L 49.2 38.75
Q 48.45 40.5 46.2 43.6 43.75 47 42.2 48.2
L 42.2 47.85
Q 47.3 35.4 48.15 32.95 51.6 22.75 51.6 14.8 51.6 14.4 51.3 9.95
M 45.55 9.35
L 45.85 9.35 45.85 11
Q 45.2 12.4 45.2 13.3
L 47.85 10.3
Q 50.15 19.25 44.55 30.4 39.35 40.65 31.8 45.1 31.55 44.95 31.5 44.9 31.45 44.85 31.45 44.3 31.45 42.75 33.95 33.85 36.9 23.4 37.1 22.35
L 37.1 22
Q 33.15 26.4 25.25 29.5 17.75 32.45 11.55 32.45 10.1 32.45 6.95 31.8 22.55 27.15 32.7 20.4 37.05 17.5 45.55 9.35 Z"/>

<path fill="#000000" stroke="none" d="
M 55.9 10.4
Q 54.65 0.8 49.1 0.1 44.55 -0.5 37.2 3.35 29.45 8 26.75 9.3 23.45 10.9 16.65 13.6 9.6 16.35 7.75 17.25 8.8 17.05 10.25 16.75 13.25 16.15 17.9 15.25 23.95 14 28.65 12.6 30.7 11.95 37.95 7.75 43.15 4.65 47.25 5.2 50 5.55 51.3 9.95 53.55 17.85 50.8 38.95 50.25 43.05 50 44.95 49.85 45.85 49.75 46.25 49.65 46.9 49.55 47.55 49.4 48.1 49.3 48.7 49.55 48.1 49.9 47.5 50 47.2 50.15 46.85 50.7 45.4 51.3 43.8 51.75 42.8 52.1 41.8 54.25 35.2 55.45 26.05 56.65 16.9 55.9 10.4 Z"/>
</g>

<g id="blanket_ghost_teddy_0_Layer0_0_FILL">
<path fill="#000000" stroke="none" d="
M 55.55 18.75
Q 55 18.75 53.6 19.15
L 52.25 19.5
Q 51.9 13.5 47.6 9.7 43.3 5.9 38.2 6.35 37.2 1.75 36.5 1 35.6 0 31.6 0 27.95 0 23.5 2.3 18.4 4.95 18.4 8.05 18.4 8.75 19.1 10.2 20 12.15 20.1 12.4 15.6 12.25 12.35 17.35 9.6876953125 21.49140625 9.5 25.95 9.5021484375 26.0365234375 9.5 26.1 5.9 26.55 3 29.5 0 32.5 0 35.75 0 38.180078125 1.2 40 2.03515625 41.2080078125 3.35 42.15 6.15 44.15 9.55 44.15 10.8 44.15 13.45 42.7 15.4 41.65 16.4 40.85 17.95 41.7 20.3 42 21.4 42.15 24.95 42.15 32.7 42.15 41.65 37.3 45.52734375 35.166015625 47.65 33.15 49.0619140625 31.8564453125 49.7 30.6 50.003515625 31.234765625 50.4 31.8 50.7744140625 32.301953125 51.2 32.75 53.7 35.45 57.2 35.45 60.35 35.45 62.3 33.1 63.4970703125 31.6265625 63.95 29.55 64.25 28.275 64.25 26.75 64.25 22.85 61.95 20.75 59.7 18.75 55.55 18.75
M 53.35 23.7
Q 53.5533203125 23.3759765625 53.75 23.05 55.070703125 21.09921875 55.9 20.75 61.6 20.75 61.6 27.1 61.6 28.6763671875 61.25 29.65 61.1203125 30.1197265625 60.9 30.45 60.05 31.85 57.75 31.85 55.55 31.85 53.9 30.85 53.2849609375 30.475 52.85 29.95 51.85 28.834765625 51.85 27.05 51.85 26.2 53.35 23.7
M 42.9 11.8
Q 49.5 12.85 49.85 20.1
L 48.85 26.85
Q 46.67421875 30.8251953125 41.85 34 40.9359375 34.6544921875 39.9 35.25 31.45 40.15 21.3 40.15 20.65 40.15 15.75 37.85 15.15 37.85 13.85 39.5 12.5 41.1 11.05 41.1 9.85 41.1 7.1 38.85 6.7779296875 38.5861328125 6.5 38.3 4.05 36.1494140625 4.05 34.45 4.05 34.05 5.7 31.4 7.55 28.45 8.55 28.45 9.05 28.45 9.6 28.6 10.05 31.25 10.3 31.95 10.5375 30.4365234375 10.9 28.85 11.1748046875 27.7974609375 11.5 26.7 12.7 22.5 14.1 20.4 16.1 17.4 16.15 17.35 16.361328125 17.0794921875 16.55 16.8 17.6875 15.5724609375 19.1 14.7 19.6 14.4 22.75 13.85 25.35 13.45 25.8 12.4 24.827734375 12.6916015625 23.3 10.9 23.29296875 10.852734375 23.25 10.8 21.65 8.9 21.75 7.7 22.25 7.6 26.95 5.55 31.25 3.7 33.15 3.7 34.45 3.7 35.3 5.25 36.45 7.4 36.8 7.7 36.3 8.35 34.9 9.75 33.65 11.05 32.9 12.05
L 33.15 12.05
Q 35.1 10.95 35.85 10.8 36.25 10.7 42.9 11.8
M 19.95 34.15
Q 19.15 34.8 19.15 35.7 19.15 36.65 19.95 37.3 20.75 37.95 21.8 37.95 22.9 37.95 23.7 37.3 24.5 36.65 24.5 35.7 24.5 34.8 23.7 34.15 22.9 33.5 21.8 33.5 20.75 33.5 19.95 34.15
M 43.95 22.2
Q 43.95 20.95 43.25 20.05 42.55 19.2 41.55 19.2 40.6 19.2 39.9 20.05 39.2 20.95 39.2 22.2 39.2 23.45 39.9 24.3 40.6 25.2 41.55 25.2 42.55 25.2 43.25 24.3 43.95 23.45 43.95 22.2 Z"/>

<path fill="#BD793E" stroke="none" d="
M 10.9 28.85
Q 10.5375 30.4365234375 10.3 31.95 10.05 31.25 9.6 28.6 9.05 28.45 8.55 28.45 7.55 28.45 5.7 31.4 4.05 34.05 4.05 34.45 4.05 36.1494140625 6.5 38.3 7.9642578125 37.463671875 9.05 36.2 11.15 33.8 11.15 31.45 11.15 29.9625 10.9 28.85
M 49.85 20.1
Q 49.5 12.85 42.9 11.8 36.25 10.7 35.85 10.8 35.1 10.95 33.15 12.05
L 32.9 12.05
Q 33.65 11.05 34.9 9.75 36.3 8.35 36.8 7.7 36.45 7.4 35.3 5.25 34.45 3.7 33.15 3.7 31.25 3.7 26.95 5.55 22.25 7.6 21.75 7.7 21.65 8.9 23.25 10.8 23.29296875 10.852734375 23.3 10.9 24.827734375 12.6916015625 25.8 12.4 25.35 13.45 22.75 13.85 19.6 14.4 19.1 14.7 17.6875 15.5724609375 16.55 16.8 16.35 18.3826171875 16.35 21.85 16.35 29.5 23.4 32.35 27.8 34.1 36.3 34.1 39.65703125 34.1 41.85 34 46.67421875 30.8251953125 48.85 26.85
L 49.85 20.1
M 43.25 20.05
Q 43.95 20.95 43.95 22.2 43.95 23.45 43.25 24.3 42.55 25.2 41.55 25.2 40.6 25.2 39.9 24.3 39.2 23.45 39.2 22.2 39.2 20.95 39.9 20.05 40.6 19.2 41.55 19.2 42.55 19.2 43.25 20.05
M 55.9 20.75
Q 55.070703125 21.09921875 53.75 23.05 54.5830078125 24.5279296875 56.35 26.35 59.130078125 29.2142578125 61.25 29.65 61.6 28.6763671875 61.6 27.1 61.6 20.75 55.9 20.75 Z"/>

<path fill="#53315F" stroke="none" d="
M 16.35 21.85
Q 16.35 18.3826171875 16.55 16.8 16.361328125 17.0794921875 16.15 17.35 16.1 17.4 14.1 20.4 12.7 22.5 11.5 26.7 11.1748046875 27.7974609375 10.9 28.85 11.15 29.9625 11.15 31.45 11.15 33.8 9.05 36.2 7.9642578125 37.463671875 6.5 38.3 6.7779296875 38.5861328125 7.1 38.85 9.85 41.1 11.05 41.1 12.5 41.1 13.85 39.5 15.15 37.85 15.75 37.85 20.65 40.15 21.3 40.15 31.45 40.15 39.9 35.25 40.9359375 34.6544921875 41.85 34 39.65703125 34.1 36.3 34.1 27.8 34.1 23.4 32.35 16.35 29.5 16.35 21.85
M 19.15 35.7
Q 19.15 34.8 19.95 34.15 20.75 33.5 21.8 33.5 22.9 33.5 23.7 34.15 24.5 34.8 24.5 35.7 24.5 36.65 23.7 37.3 22.9 37.95 21.8 37.95 20.75 37.95 19.95 37.3 19.15 36.65 19.15 35.7
M 53.75 23.05
Q 53.5533203125 23.3759765625 53.35 23.7 51.85 26.2 51.85 27.05 51.85 28.834765625 52.85 29.95 53.2849609375 30.475 53.9 30.85 55.55 31.85 57.75 31.85 60.05 31.85 60.9 30.45 61.1203125 30.1197265625 61.25 29.65 59.130078125 29.2142578125 56.35 26.35 54.5830078125 24.5279296875 53.75 23.05 Z"/>
</g>

<g id="ghost_blanket_glow_0_Layer0_0_FILL">
<path fill="#66CCFF" stroke="none" d="
M 40 91.55
Q 36.3 93.9 31.2 96.7 20.9 102.35 13.25 104.8 9.15 106.1 4.9 110.25 0.8 114.3 0 117.65
L 0 118.1
Q 3 117.1 8.55 114.4 10.95 113.25 15.65 113.25 21.65 113.25 25.05 115.85 27.8 117.95 30.7 119.05 32.4 119.95 34.65 121.3 41 124.7 44 124.7 47.95 124.7 53.55 116.9 58.85 109.5 58.35 107.05
L 58.35 106.6
Q 58.25 107.05 54.6 110.55 50.9 114.1 49.95 114.55
L 49.6 114.55
Q 55.15 103.45 57.7 95 60.55 85.5 60.55 76.5 60.55 73.35 60.2 72.5 59.7 71.2 57.7 71.2 56.55 71.2 55.3 71.65 54.5 90.7 44.85 104.9 41.55 109.8 37.9 112.7 39.05 105.4 40.7 96.8
L 40.7 92
Q 41.15 91.55 40 91.55
M 59.35 21.6
Q 51.05 15.9 42.95 15.9 39 15.9 35.5 17.05 30.85 18.5 28.5 21.9 23.1080078125 24.9841796875 19.5 28.85 13.65 35.1 10.2 46.4 12.55 44.9 16.8 43.3 21.55 41.55 24.15 41.55 26.45 41.55 28.3 43.4 30.35 45.5 29.7 48.2 35.3 47.25 39 49.95 43 52.85 43.4 59.2 46.1 59.2 50.3 59.9 54.55 60.6 55.55 60.6 61.35 60.6 65.5 49.5 68.65 41.1 68.65 36.45 68.65 28 59.35 21.6
M 94 29.2
Q 89.5 34.45 87.7 39.4 86.9 41.6 85.4 49.95 90.25 45.55 92.2 38.15 93.15 32.95 94 29.2
M 85.85 26.5
Q 88 25.15 88 24.3 88 21.25 80.45 15.8 72.25 10.4 70.8 9.25
L 70.35 9.25
Q 73.25 18.1 74.35 20.3 65.65 10.1 62.35 7.2 54.2 0 46.65 0 39.1 0 31.8 6.3 26.2 11.1 22.15 18.1 25.55 15.45 32.7 12.3 34.05 11.7 35.8 11 37.6 10.75 41.3 10.05 43.35 9.7 44.4 9.7 55.95 9.7 64.15 18.05 69.15 23.15 75.6 35.35 76.6 34.35 76.6 31.35 76.6 30.35 76.3 28 76 25.35 75.6 23.85 76.05 24.05 79.1 26 82.15 27.8 82.95 27.8 83.8 27.8 85.85 26.5
M 138.45 13.6
Q 137.1 10.5 132.35 8.7 127.85 7 123.6 7 116.05 7 109.55 13.55 103.35 19.8 103.05 26.5 109.25 18.4 119.95 15.1 128.9 12.4 138.45 13.6 Z"/>
</g>
</defs>

<g transform="matrix( 0.8803863525390625, 0, 0, 0.8803863525390625, 464.15,349.75) ">
<g transform="matrix( 1, 0, 0, 1, -76.9,4.7) ">
<g transform="matrix( 1.0269775390625, 0, 0, 1.0269775390625, 168.85,9.8) ">
<g transform="matrix( 1, 0, 0, 1, 0,0) ">
<use xlink:href="#lantern_glow_1_Layer0_0_FILL"/>
</g>
</g>

<g transform="matrix( 1, 0, 0, 1, -1.65,39.45) ">
<g transform="matrix( 1, 0, 0, 1, 0,0) ">
<use xlink:href="#blanket_ghost_bottom_copy_4_Layer0_0_FILL"/>
</g>
</g>

<g transform="matrix( 1, 0, 0, 1, 13.3,-0.35) ">
<g transform="matrix( 1, 0, 0, 1, 0,0) ">
<use xlink:href="#blanket_ghost_hood_copy_4_Layer0_0_FILL"/>
</g>
</g>

<g transform="matrix( 1.2860565185546875, -0.203948974609375, 0.0096435546875, 0.99884033203125, 122.2,20.6) ">
<g transform="matrix( 1, 0, 0, 1, 0,0) ">
<use xlink:href="#blanket_ghost_arm_0_Layer0_0_FILL"/>
</g>
</g>

<g transform="matrix( 1, 0, 0, 1, 84.35,18.2) ">
<g transform="matrix( 1, 0, 0, 1, 0,0) ">
<use xlink:href="#blanket_ghost_face_0_Layer0_0_FILL"/>
</g>
</g>

<g transform="matrix( 0.988983154296875, -0.1437530517578125, 0.1437530517578125, 0.988983154296875, 205.5,44.55) ">
<g transform="matrix( 0.74951171875, 0, 0, 0.74951171875, -26.55,-13.9) ">
<g transform="matrix( 1, 0, 0, 1, 0,0) ">
<use filter="url(#Filter_1)" xlink:href="#lantern_glow_1_Layer0_0_FILL"/>
</g>
</g>

<g transform="matrix( 1, 0, 0, 1, 0,0) ">
<use xlink:href="#lantern_Hand_copy_2_1_Layer1_0_FILL"/>
</g>

<g transform="matrix( 1, 0, 0, 1, 0,0) ">
<use xlink:href="#lantern_Hand_copy_2_1_Layer0_0_FILL"/>
</g>
</g>

<g transform="matrix( 1, 0, 0, 1, 88.75,70.45) ">
<g transform="matrix( 1, 0, 0, 1, 0,0) ">
<use xlink:href="#blanket_ghost_other_arm_0_Layer0_0_FILL"/>
</g>
</g>

<g transform="matrix( 0.9997711181640625, 0.0181121826171875, -0.0181121826171875, 0.9997711181640625, 69.5,48.1) ">
<g transform="matrix( 1, 0, 0, 1, 0,0) ">
<use xlink:href="#blanket_ghost_teddy_0_Layer0_0_FILL"/>
</g>
</g>

<g transform="matrix( 1, 0, 0, 1, 79.1,7.45) ">
<g transform="matrix( 1, 0, 0, 1, 0,0) ">
<use xlink:href="#ghost_blanket_glow_0_Layer0_0_FILL"/>
</g>
</g>
</g>
</g>
</svg>
