
<svg xmlns="http://www.w3.org/2000/svg" version="1.1" xmlns:xlink="http://www.w3.org/1999/xlink" preserveAspectRatio="none" x="0px" y="0px" width="1000px" height="1000px" viewBox="0 0 1000 1000">
<defs>
<linearGradient id="Gradient_1" gradientUnits="userSpaceOnUse" x1="56.2625" y1="101.9625" x2="57.4375" y2="72.0375" spreadMethod="pad">
<stop  offset="6.2745098039215685%" stop-color="#4F71FF"/>

<stop  offset="25.88235294117647%" stop-color="#66D9FF"/>

<stop  offset="100%" stop-color="#FFFFFF"/>
</linearGradient>

<g id="lantern_glow_0_Layer0_0_FILL">
<path fill="#3399FF" stroke="none" d="
M 118.9 59.45
Q 118.9 34.85 101.5 17.45 84.1 0 59.45 0 34.85 0 17.45 17.45 0 34.85 0 59.45 0 84.1 17.45 101.5 34.85 118.9 59.45 118.9 84.1 118.9 101.5 101.5 118.9 84.1 118.9 59.45
M 105.25 56.7
Q 105.25 75.7 91.85 89.1 78.45 102.5 59.45 102.5 40.5 102.5 27.05 89.1 13.65 75.7 13.65 56.7 13.65 37.75 27.05 24.3 40.5 10.9 59.45 10.9 78.45 10.9 91.85 24.3 105.25 37.75 105.25 56.7 Z"/>

<path fill="#00FFFF" stroke="none" d="
M 91.85 89.1
Q 105.25 75.7 105.25 56.7 105.25 37.75 91.85 24.3 78.45 10.9 59.45 10.9 40.5 10.9 27.05 24.3 13.65 37.75 13.65 56.7 13.65 75.7 27.05 89.1 40.5 102.5 59.45 102.5 78.45 102.5 91.85 89.1
M 57.45 25.95
Q 69.9 25.95 78.7 34.75 87.55 43.6 87.55 56.05 87.55 68.5 78.7 77.3 69.9 86.1 57.45 86.1 45 86.1 36.15 77.3 27.35 68.5 27.35 56.05 27.35 43.6 36.15 34.75 45 25.95 57.45 25.95 Z"/>

<path fill="#FFFFFF" stroke="none" d="
M 78.7 34.75
Q 69.9 25.95 57.45 25.95 45 25.95 36.15 34.75 27.35 43.6 27.35 56.05 27.35 68.5 36.15 77.3 45 86.1 57.45 86.1 69.9 86.1 78.7 77.3 87.55 68.5 87.55 56.05 87.55 43.6 78.7 34.75 Z"/>
</g>

<g id="blanket_ghost_hood_copy_1_Layer0_0_FILL">
<path fill="#4B286D" stroke="none" d="
M 45.3 63.6
Q 45.45 64.9 49.05 65.4 50.65 65.5 54 65.6 52.6 67.3 50.95 68.8 49.85 69.75 48.7 70.35 49.1 70.45 49.55 70.5 60.45 68.65 64.2 54.65 61.65 56.6 57.55 58.5 49.9 62.1 45.3 62.95 45.2 63.2 45.3 63.6
M 62.9 38.7
Q 62.55 38.75 62.15 38.7 53.5 43.05 43.8 47.35 24.2 55.95 12.65 56.9 9.5 57.1 7.55 56.35 5.8 55.6 5.45 54.5 5.2 55.6 5.15 56.85 4.75 63.7 10.05 65.45 15.05 67 22.55 63.5 29.95 59.8 40.2 53.85 50.55 47.8 53 48.95 50.5 52.3 48.7 55.4 48.55 55.55 48.6 55.65 50.3 54 52.15 51.85 55.95 47.25 62.9 38.7
M 134.9 20.6
Q 131.95 16.6 127.25 14 117.55 4.5 102.65 6.75 87.8 8.9 77.35 12.4 78 12.7 80.65 13.4 83.35 14.1 84.55 14.35 77.6 18.7 74.55 22.75 72.65 25.25 70.5 30.6 75.9 23.05 87.75 16.1 99.35 9.05 107.6 8.7 115.65 8.45 121.4 11.85 126.85 15 134.55 20.65 134.65 20.6 134.9 20.6 Z"/>

<path fill="#CC99FF" stroke="none" d="
M 54.1 20.1
Q 53.25 19 52.85 18.35 50.2 19.1 47.9 20.1 36.2 24.1 26.75 31.1 26.65 31.05 26.75 31.15 26.95 33 28.05 35.5 28.85 37.3 29.8 39.45 31.65 37.8 34.5 36 35 37.15 35.6 38.1 37.6 40.7 37.7 40.85 37.15 37.35 36.9 34.6 38.25 33.95 39.95 33.15 40 33.45 41.75 37 41.85 36.95 42.1 36.95 41.8 35.45 41.6 32.4 42.85 31.85 51.25 28.35 57 26 57.1 25.55 57 24.7 55.55 22.35 55.95 22.2 57.35 21.95 58.65 21.65 59.8 21.6 59.15 20.6 56.15 20.15 54.95 20 54.1 20.1 Z"/>

<path fill="#CC33FF" stroke="none" d="
M 158 37.85
Q 157.7 36.1 155.3 31.5 153 27.45 151.45 25.5 151.1 25.2 150.9 25.1 139.2 17.5 127.25 14 131.95 16.6 134.9 20.6 134.65 20.6 134.55 20.65 126.85 15 121.4 11.85 115.65 8.45 107.6 8.7 99.35 9.05 87.75 16.1 75.9 23.05 70.5 30.6 72.65 25.25 74.55 22.75 77.6 18.7 84.55 14.35 83.35 14.1 80.65 13.4 78 12.7 77.35 12.4 72.5 12.9 69.4 13.65 61.5 15.4 52.85 18.35 53.25 19 54.1 20.1 54.95 20 56.15 20.15 59.15 20.6 59.8 21.6 58.65 21.65 57.35 21.95 55.95 22.2 55.55 22.35 57 24.7 57.1 25.55 57 26 51.25 28.35 42.85 31.85 41.6 32.4 41.8 35.45 42.1 36.95 41.85 36.95 41.75 37 40 33.45 39.95 33.15 38.25 33.95 36.9 34.6 37.15 37.35 37.7 40.85 37.6 40.7 35.6 38.1 35 37.15 34.5 36 31.65 37.8 29.8 39.45 28.85 37.3 28.05 35.5 26.95 33 26.75 31.15 17.15 37.8 11.4 43.95 6.45 48.9 5.45 54.5 5.8 55.6 7.55 56.35 9.5 57.1 12.65 56.9 24.2 55.95 43.8 47.35 53.5 43.05 62.15 38.7 62.55 38.75 62.9 38.7 55.95 47.25 52.15 51.85 50.3 54 48.6 55.65 45.5 60.65 45.3 62.95 49.9 62.1 57.55 58.5 61.65 56.6 64.2 54.65 60.45 68.65 49.55 70.5 49.1 70.45 48.7 70.35 47.55 70.85 46.4 71.3 47.55 72.95 49.45 75.95 50.4 77.45 52.45 81.3 54.1 84.85 55.3 86.2 58.6 90.45 61.15 92.85 66.55 98.05 71.65 99.55 86.9 103.7 87.95 104 95.7 105.55 104.6 104.8 123.3 102.9 132.75 92 135.95 88.05 138.5 82.55 139 81.35 139.6 80.15 139.6236328125 80.099609375 139.65 80.05 139.6 76.1 142.75 70.45 143.9 68.05 149.3 59.95 158.65 45.65 158 37.85 Z"/>

<path fill="#000000" stroke="none" d="
M 155.3 31.5
Q 157.7 36.1 158 37.85 158.65 45.65 149.3 59.95 143.9 68.05 142.75 70.45 139.6 76.1 139.65 80.05 142.640625 73.6962890625 147.75 66.95 150.35 63.1 155.9 56.45 164.45 45.05 163.6 34.55 162.6 27.15 156.15 20.6 133.95 4.6 110.75 3.55 87.6 2.2 72 4.5 56.5 6.6 41.15 12.95 26.35 18.8 15.55 26.45 2.5 35.65 -2.35 44.25 -5.6 50.2 -4.85 59.7 -3.85 69.65 5.25 73.7 11.55 76.65 20.65 75.85 24.8 75.45 32.4 69.55 34.35 68.05 36.1 66.55 36.05 66.85 36.25 67.9 36.55 70.35 38.9 71.5 40.45 72 42.75 72 44.55 71.8 46.4 71.3 47.55 70.85 48.7 70.35 49.85 69.75 50.95 68.8 52.6 67.3 54 65.6 50.65 65.5 49.05 65.4 45.45 64.9 45.3 63.6 45.2 63.2 45.3 62.95 45.5 60.65 48.6 55.65 48.55 55.55 48.7 55.4 50.5 52.3 53 48.95 50.55 47.8 40.2 53.85 29.95 59.8 22.55 63.5 15.05 67 10.05 65.45 4.75 63.7 5.15 56.85 5.2 55.6 5.45 54.5 6.45 48.9 11.4 43.95 17.15 37.8 26.75 31.15 26.65 31.05 26.75 31.1 36.2 24.1 47.9 20.1 50.2 19.1 52.85 18.35 61.5 15.4 69.4 13.65 72.5 12.9 77.35 12.4 87.8 8.9 102.65 6.75 117.55 4.5 127.25 14 139.2 17.5 150.9 25.1 151.1 25.2 151.45 25.5 153 27.45 155.3 31.5 Z"/>
</g>

<g id="blanket_ghost_bottom_copy_1_Layer0_0_FILL">
<path fill="#CC33FF" stroke="none" d="
M 8.2 67.75
Q 8.1783203125 67.78125 8.15 67.8 9.3337890625 67.6068359375 8.2 67.75
M 153.4 39.6
Q 153.6 35.3859375 153.6 35.2 153.6 29.45 151.5 22.7 148.8 13.95 144.05 9.9 141.4 7.6 132.35 4.85 123 2.05 117.05 2.05 108.95 2.9 107.8 2.9 98.9 2.9 94.2 3.45 89.6 4 77.75 6.45 71.8 7.7 68.8 12.9 67.181640625 15.6513671875 64.1 24.85 64.4994140625 24.3099609375 64.9 23.75 64.576171875 32.2841796875 58.8 38.1 53.65 43.35 41.1 48.4 23.7 55.35 20.6 57.05 12.95 61.2130859375 8.95 66.7
L 10.25 66
Q 11.682421875 64.884765625 12.1 64.65 12.55 64.35 15.9 64.35 26.5 64.35 31.65 69.65 35.1 73.25 37.2 81.4 39.65 90.65 41.15 93.1 44.4 98.4 51.85 98.4 58.2 98.4 71.3 92.5 84.4 86.6 90.15 86.6 97.85 86.6 106.85 91.85 115.85 97.05 122 97.05
L 122 97.15
Q 122.17421875 97.111328125 122.3 97.05 132.9908203125 92.7193359375 141.3 74.5 145.1 66.1 148.95 53.45 151.4517578125 44.773046875 153 39.4
L 153.4 39.6
M 55 47.65
Q 59.65 44.25 60.3 44.35 61.65 44.45 63.85 46.45 67.15 43.5 67.35 43.4 66.85 45.5 66.75 46.05 66.35 47.05 65.55 48.15 66 48.65 68.95 51.4 71.9 54.35 73.5 55.6 72.85 56.8 72.2 58.1 72.9 58.6 73.8 59.3 75.3 60.4 75.6 60.85 73.4 60.1 71.35 59.7 70.6 61 69.8 62.25 70.05 62.5 71 63.4 71.9 64.4 71.9 64.95 70.05 64.45 68.45 64.15 67.15 65.6 65.9 67.15 66.3 67.45 67 68.4 67.7 69.35 67.6 69.7 64.75 69.25 64.35 69.3 64.1 69.35 64.05 69.2 59.45 75 58.9 75.15 56.15 75.2 52.85 73.5 49.75 76.15 49.55 76.2 48.85 76 49.35 74 49.9 72.15 50.4 71.8 49.3 71 47.7 68.9 46.45 67.15 46.3 66.8 41.35 68.3 40.3 68.35 40.4 68.05 42.65 66.7 44.8 65.35 45.5 65.05 44.2 62.45 43.45 60.8 40.95 56.6 37.3 53.6 36.3 53.25 35.5 52.9 37.45 52.15 40.3 52.45 42.85 52.7 47.6 52.1 49.85 51.65 55 47.65 Z"/>

<path fill="#4B286D" stroke="none" d="
M 106.85 91.85
Q 97.85 86.6 90.15 86.6 84.4 86.6 71.3 92.5 58.2 98.4 51.85 98.4 44.4 98.4 41.15 93.1 39.65 90.65 37.2 81.4 35.1 73.25 31.65 69.65 26.5 64.35 15.9 64.35 12.55 64.35 12.1 64.65 11.682421875 64.884765625 10.25 66
L 8.95 66.7
Q 8.67578125 67.0541015625 8.4 67.4 8.3130859375 67.57890625 8.2 67.75 9.3337890625 67.6068359375 8.15 67.8 8.1783203125 67.78125 8.2 67.75 7.655859375 67.8021484375 6.55 67.95 18.95 67.5 22.95 73.25 24.8 75.9 28.4 86 31.55 94.8 35.45 98.7 41.3 104.45 52.05 104.45 57 104.45 62.15 102.35 65.15 101.1 71.05 97.7 82.65 90.95 90.6 90.95 95.55 90.95 104.8 94.7 114 98.4 115.45 98.4 118.8419921875 98.4 122 97.15
L 122 97.05
Q 115.85 97.05 106.85 91.85 Z"/>

<path fill="#000000" stroke="none" d="
M 153.4 39.6
L 153 39.4
Q 151.4517578125 44.773046875 148.95 53.45 145.1 66.1 141.3 74.5 132.9908203125 92.7193359375 122.3 97.05 122.17421875 97.111328125 122 97.15 118.8419921875 98.4 115.45 98.4 114 98.4 104.8 94.7 95.55 90.95 90.6 90.95 82.65 90.95 71.05 97.7 65.15 101.1 62.15 102.35 57 104.45 52.05 104.45 41.3 104.45 35.45 98.7 31.55 94.8 28.4 86 24.8 75.9 22.95 73.25 18.95 67.5 6.55 67.95 7.655859375 67.8021484375 8.2 67.75 8.3130859375 67.57890625 8.4 67.4 8.67578125 67.0541015625 8.95 66.7 12.95 61.2130859375 20.6 57.05 23.7 55.35 41.1 48.4 53.65 43.35 58.8 38.1 64.576171875 32.2841796875 64.9 23.75 64.4994140625 24.3099609375 64.1 24.85 57.2794921875 33.895703125 48.1 38.3 40.75 41.8 26.35 44.3 14.25 46.45 6.15 54.15 -3.15 63.05 -1.85 75.25
L -1.6 75.3
Q -1.4 75.4 -1.4 75.7 -0.15 75.05 1.7 74.5 3.5 73.95 4.3 73.95 13.45 73.95 17.4 83.65 18.45 86.2 19.85 91.75 21.15 96.7 22.05 98.4 24.7 103.45 31.85 107.9 39.65 112.75 46.85 112.75 58.95 112.75 69.95 106 77.35 101.5 77.6 101.35 81.65 99.25 85.2 99.25 91.75 99.25 98.15 104.1 104.55 108.9 109.4 108.9 116.35 108.9 124.5 102.7 131.95 97.05 138.8 87.5 145.4 78.2 149.4 68.25 153.6 57.85 153.6 50 153.6 42.75 153.45 39.6
L 153.4 39.6 Z"/>

<path fill="#CC99FF" stroke="none" d="
M 60.3 44.35
Q 59.65 44.25 55 47.65 49.85 51.65 47.6 52.1 42.85 52.7 40.3 52.45 37.45 52.15 35.5 52.9 36.3 53.25 37.3 53.6 40.95 56.6 43.45 60.8 44.2 62.45 45.5 65.05 44.8 65.35 42.65 66.7 40.4 68.05 40.3 68.35 41.35 68.3 46.3 66.8 46.45 67.15 47.7 68.9 49.3 71 50.4 71.8 49.9 72.15 49.35 74 48.85 76 49.55 76.2 49.75 76.15 52.85 73.5 56.15 75.2 58.9 75.15 59.45 75 64.05 69.2 64.1 69.35 64.35 69.3 64.75 69.25 67.6 69.7 67.7 69.35 67 68.4 66.3 67.45 65.9 67.15 67.15 65.6 68.45 64.15 70.05 64.45 71.9 64.95 71.9 64.4 71 63.4 70.05 62.5 69.8 62.25 70.6 61 71.35 59.7 73.4 60.1 75.6 60.85 75.3 60.4 73.8 59.3 72.9 58.6 72.2 58.1 72.85 56.8 73.5 55.6 71.9 54.35 68.95 51.4 66 48.65 65.55 48.15 66.35 47.05 66.75 46.05 66.85 45.5 67.35 43.4 67.15 43.5 63.85 46.45 61.65 44.45 60.3 44.35 Z"/>
</g>

<g id="blanket_ghost_arm_0_Layer0_0_FILL">
<path fill="#CC33FF" stroke="none" d="
M 38.55 21.85
Q 38.05 22.5 37.5 23.3 34.6 28.85 33.45 34.95 32.65 39.1 31.15 47.45 36.45 39.8 39.3 33.3 39.65 32.5 40 31.65 40.8 24.2 42.7 18.5 40.45 19.6 38.55 21.85
M 36.3 22.05
Q 36.95 20.65 37.7 19.6 28 22.5 19.55 29.85 21.9 29 24.95 28 31.9 25.7 36.3 22.05
M 70 20.35
Q 69.35 20.35 68.2 21 66.9 21.75 66.9 22.5 66.9 23.55 67.9 24 68.75 24.35 70.4 24.35 71.7 24.35 75.25 23.7 75.25 23.95 75.25 24.2 76.2 22.65 76.2 20.2 76.2 15.95 73.25 12.45 69.85 8.4 61.5 8.4 53.15 8.35 47.2 18 41.95 26.4 39.4 44.05 39.4 43.85 39.4 43.8 39.4 42.9 39.4 42 39.15 43.2 38.85 44.3 37.3 50.2 34.75 55.8
L 35.05 55.5
Q 40.3 52.85 43.25 46.35 44.5 43.65 47.25 34 49.5 26.2 52.1 22.6 55.95 17.4 62.85 16.35 60.9 15.35 59.9 14.95 58.25 14.35 56.15 14.7 58 13.65 59 13.45 59.55 13.35 62.35 13.35 65.85 13.35 68.85 15.05 72.2 16.95 72.2 19.85
L 72.2 21.35
Q 72.05 21.1 71.25 20.75 70.4 20.35 70 20.35 Z"/>

<path fill="#4B286D" stroke="none" d="
M 62.85 20.7
Q 64.05 18.75 65.8 18.75 66.85 18.75 67.65 19.4 67.45 19.35 67.2 19.35 66.25 19.35 65.5 20.4 64.85 21.4 64.85 22.6 64.85 24.6 66.15 25.7 67.45 26.75 69.85 26.75 72.95 26.75 74.6 25.05 74.95 24.65 75.25 24.2 75.25 23.95 75.25 23.7 71.7 24.35 70.4 24.35 68.75 24.35 67.9 24 66.9 23.55 66.9 22.5 66.9 21.75 68.2 21 69.35 20.35 70 20.35 70.4 20.35 71.25 20.75 72.05 21.1 72.2 21.35
L 72.2 19.85
Q 72.2 16.95 68.85 15.05 65.85 13.35 62.35 13.35 59.55 13.35 59 13.45 58 13.65 56.15 14.7 58.25 14.35 59.9 14.95 60.9 15.35 62.85 16.35 55.95 17.4 52.1 22.6 49.5 26.2 47.25 34 44.5 43.65 43.25 46.35 40.3 52.85 35.05 55.5
L 34.75 55.8
Q 37.3 50.2 38.85 44.3 39.15 43.2 39.4 42 39.5 36.45 40 31.65 39.65 32.5 39.3 33.3 36.45 39.8 31.15 47.45 32.65 39.1 33.45 34.95 34.6 28.85 37.5 23.3 35.9 25.6 34.05 29.4
L 33.7 29.4
Q 34.8 25.05 36.3 22.05 31.9 25.7 24.95 28 21.9 29 19.55 29.85 16.6 32.35 13.8 35.45 0 50.7 0 70.05 0 71.5 0.65 75.2 0.75 75.9 0.9 76.55 3.2 84.2 6.65 85.65 11.15 87.5 13.5 88.3 17.6 89.6 20.55 89.6 30.45 89.6 38.5 81.75 46.4 74.1 49.8 61.6 51.1 56.75 52.6 50.15 54.15 43.4 54.8 39.45 56.35 30.45 56.45 30.15 57.85 26 61.8 24.05 61.85 22.3 62.85 20.7 Z"/>

<path fill="#000000" stroke="none" d="
M 74.8 2.2
Q 73.3 1.2 71.9 0.55 70.7 0.1 69.65 0 67.2 0 66 0 50.75 0 44.25 14.4 40.6 15.85 38.3 18.75 38 19.15 37.7 19.6 36.95 20.65 36.3 22.05 34.8 25.05 33.7 29.4
L 34.05 29.4
Q 35.9 25.6 37.5 23.3 38.05 22.5 38.55 21.85 40.45 19.6 42.7 18.5 40.8 24.2 40 31.65 39.5 36.45 39.4 42 39.4 42.9 39.4 43.8 39.4 43.85 39.4 44.05 41.95 26.4 47.2 18 53.15 8.35 61.5 8.4 69.85 8.4 73.25 12.45 76.2 15.95 76.2 20.2 76.2 22.65 75.25 24.2 74.95 24.65 74.6 25.05 72.95 26.75 69.85 26.75 67.45 26.75 66.15 25.7 64.85 24.6 64.85 22.6 64.85 21.4 65.5 20.4 66.25 19.35 67.2 19.35 67.45 19.35 67.65 19.4 66.85 18.75 65.8 18.75 64.05 18.75 62.85 20.7 61.85 22.3 61.8 24.05 57.85 26 56.45 30.15 56.35 30.45 54.8 39.45 54.15 43.4 52.6 50.15 51.1 56.75 49.8 61.6 46.4 74.1 38.5 81.75 30.45 89.6 20.55 89.6 17.6 89.6 13.5 88.3 11.15 87.5 6.65 85.65 3.2 84.2 0.9 76.55 0.75 76.1 0.6 75.6
L 0.6 75.25
Q 0.5962890625 75.3587890625 0.45 75.7 0.25 76.1 0.25 76.6 0.25 84.95 5 91.05 5.35 91.5 5.7 91.9 6.15 92.45 6.65 92.95 7.5 93.85 8.35 94.6 13.95 99.4 21.15 99.4 34.65 99.4 42.2 92.35 48.55 86.45 54.8 70.85 56.4 66.85 57.65 59.65 58.75 53.4 59.15 47.8 59.75 45.65 59.75 41.9 59.6 37.65 59.65 35.7 59.8 29.8 63.2 28.65 65.05 30.8 69.35 30.8 76.55 30.8 80.3 25.4 83.3 21.05 83.3 14.85 83.3 8.9 77.25 4 76 3 74.8 2.2 Z"/>
</g>

<g id="blanket_ghost_face_0_Layer0_0_FILL">
<path fill="#000000" stroke="none" d="
M 58.55 9.05
Q 49.75 0 41.5 0 32.5 0 27.45 2.7 22.65 5.3 14.1 14.4 0 29.5 0 43.5 0 52.8 12.4 57.9 21.45 61.6 30.45 61.6 38.45 61.6 48.2 55.75 53.5 52.55 57.35 49.05 62.9 41.7 64.75 37.95 67.25 32.9 67.25 26.15 67.25 18.05 58.55 9.05
M 41.8 5
Q 50 5 57.2 12.05 64.25 18.95 64.25 26.45 64.25 34.3 59.9 41.2 55.45 48.3 47.55 52.45 44.35 55 42.4 55.95 37.75 58.25 30.6 58.25 22.45 58.25 15.45 55.3 4.4 50.6 4.4 40.3 4.4 28.15 17.15 16.45 29.6 5 41.8 5 Z"/>

<path fill="#333333" stroke="none" d="
M 57.2 12.05
Q 50 5 41.8 5 29.6 5 17.15 16.45 4.4 28.15 4.4 40.3 4.4 50.6 15.45 55.3 22.45 58.25 30.6 58.25 37.75 58.25 42.4 55.95 44.35 55 47.55 52.45 55.45 48.3 59.9 41.2 64.25 34.3 64.25 26.45 64.25 18.95 57.2 12.05
M 43.55 23.95
Q 43.55 23.05 44.2 22.4 44.85 21.75 45.75 21.75 46.7 21.75 47.35 22.4 48 23.05 48 24 48 24.9 47.35 25.55 46.7 26.2 45.75 26.2 44.85 26.2 44.2 25.55 43.55 24.9 43.55 23.95
M 32.9 23.15
Q 32.9 20.95 34.05 19.35 35.25 17.8 36.9 17.8 38.55 17.8 39.75 19.35 40.95 20.95 40.95 23.2 40.95 25.4 39.75 27 38.55 28.6 36.9 28.6 35.25 28.6 34.05 27 32.9 25.4 32.9 23.15 Z"/>

<path fill="#66CCFF" stroke="none" d="
M 34.05 19.35
Q 32.9 20.95 32.9 23.15 32.9 25.4 34.05 27 35.25 28.6 36.9 28.6 38.55 28.6 39.75 27 40.95 25.4 40.95 23.2 40.95 20.95 39.75 19.35 38.55 17.8 36.9 17.8 35.25 17.8 34.05 19.35
M 44.2 22.4
Q 43.55 23.05 43.55 23.95 43.55 24.9 44.2 25.55 44.85 26.2 45.75 26.2 46.7 26.2 47.35 25.55 48 24.9 48 24 48 23.05 47.35 22.4 46.7 21.75 45.75 21.75 44.85 21.75 44.2 22.4 Z"/>
</g>

<g id="blanket_ghost_other_arm_0_Layer0_0_FILL">
<path fill="#4B286D" stroke="none" d="
M 51.3 9.95
Q 51.6 14.4 51.6 14.8 51.6 22.75 48.15 32.95 47.3 35.4 42.2 47.85
L 42.2 48.2
Q 43.75 47 46.2 43.6 48.45 40.5 49.2 38.75
L 49.85 38.75
Q 49.65 41.15 50 44.95 50.25 43.05 50.8 38.95 53.55 17.85 51.3 9.95
M 45.85 9.35
L 45.55 9.35
Q 37.05 17.5 32.7 20.4 22.55 27.15 6.95 31.8 10.1 32.45 11.55 32.45 17.75 32.45 25.25 29.5 33.15 26.4 37.1 22
L 37.1 22.35
Q 36.9 23.4 33.95 33.85 31.45 42.75 31.45 44.3 31.45 44.85 31.5 44.9 31.55 44.95 31.8 45.1 39.35 40.65 44.55 30.4 50.15 19.25 47.85 10.3
L 45.2 13.3
Q 45.2 12.4 45.85 11
L 45.85 9.35 Z"/>

<path fill="#CC33FF" stroke="none" d="
M 51.3 9.95
Q 50 5.55 47.25 5.2 43.15 4.65 37.95 7.75 30.7 11.95 28.65 12.6 23.95 14 17.9 15.25 13.25 16.15 10.25 16.75 7.65 17.65 6 18.6 0 22 0 30.25 0 36.55 13.7 47.5 26.7 57.85 31.65 57.85 33 57.85 38.9 55.75 44.7 53.6 45.55 52.85 48.05 50.55 49.05 48.55 49.25 48.15 49.55 47.55 49.65 46.9 49.75 46.25 49.85 45.85 50 44.95 49.65 41.15 49.85 38.75
L 49.2 38.75
Q 48.45 40.5 46.2 43.6 43.75 47 42.2 48.2
L 42.2 47.85
Q 47.3 35.4 48.15 32.95 51.6 22.75 51.6 14.8 51.6 14.4 51.3 9.95
M 45.55 9.35
L 45.85 9.35 45.85 11
Q 45.2 12.4 45.2 13.3
L 47.85 10.3
Q 50.15 19.25 44.55 30.4 39.35 40.65 31.8 45.1 31.55 44.95 31.5 44.9 31.45 44.85 31.45 44.3 31.45 42.75 33.95 33.85 36.9 23.4 37.1 22.35
L 37.1 22
Q 33.15 26.4 25.25 29.5 17.75 32.45 11.55 32.45 10.1 32.45 6.95 31.8 22.55 27.15 32.7 20.4 37.05 17.5 45.55 9.35 Z"/>

<path fill="#000000" stroke="none" d="
M 55.9 10.4
Q 54.65 0.8 49.1 0.1 44.55 -0.5 37.2 3.35 29.45 8 26.75 9.3 23.45 10.9 16.65 13.6 9.6 16.35 7.75 17.25 8.8 17.05 10.25 16.75 13.25 16.15 17.9 15.25 23.95 14 28.65 12.6 30.7 11.95 37.95 7.75 43.15 4.65 47.25 5.2 50 5.55 51.3 9.95 53.55 17.85 50.8 38.95 50.25 43.05 50 44.95 49.85 45.85 49.75 46.25 49.65 46.9 49.55 47.55 49.4 48.1 49.3 48.7 49.55 48.1 49.9 47.5 50 47.2 50.15 46.85 50.7 45.4 51.3 43.8 51.75 42.8 52.1 41.8 54.25 35.2 55.45 26.05 56.65 16.9 55.9 10.4 Z"/>
</g>

<g id="lantern_firey_Burst_copy_0_Layer0_0_FILL">
<path fill="url(#Gradient_1)" stroke="none" d="
M 95.65 61.7
Q 95.4 60.25 94.75 59 82.4 50.9 70.85 39.1 68.3 32.4 66.8 27.8 65.9 26.1 65.05 25.7 63.85 25.05 63.2 25.75 63 25.65 62.95 25.95 63.65 38.1 62.8 43.45 59.9 50.35 56.85 59.15 52.65 61.35 49.55 54.95 46.95 47.9 51.35 39.05 53.45 34.15 54.9 33.75 57.15 33.55 58.6 31.75 58.5 31.35 58.7 31.35 49.3 28.65 43.65 26.5 36.45 24.7 33.05 33.6 31.85 36.35 31.75 42 31.7 42.9 31.8 44.15 27.1 46.6 24.8 48.8 19.1 53.95 20.65 59.05 21 61.2 21.95 62.8 31.6 75.2 40.65 77.7 47.5 79.95 52.75 81.85 55.5 83.1 56.7 87.25 59.05 89.3 55.1 92.9 52.15 95.4 44.9 100.4 44.3 100.7 36.3 106 48.65 102.45 59.85 96.35 77.7 88.1 80.7 80.8 81.3 82.55 78.65 86.55 77.9 87.65 76.9 88.9 83.75 80.7 84 78.8 90.7 72.8 95.65 61.7 Z"/>
</g>
</defs>

<g transform="matrix( 0.8803863525390625, 0, 0, 0.8803863525390625, 464.15,349.75) ">
<g transform="matrix( 1, 0, 0, 1, -76.9,-20) ">
<g transform="matrix( 1.6487579345703125, 0, 0, 1.6487579345703125, 110,-36.3) ">
<g transform="matrix( 1, 0, 0, 1, 0,0) ">
<use xlink:href="#lantern_glow_0_Layer0_0_FILL"/>
</g>
</g>

<g transform="matrix( 0.980804443359375, -0.1949920654296875, -0.1579132080078125, 1.05096435546875, -48.05,21.25) ">
<g transform="matrix( 1, 0, 0, 1, 0,0) ">
<use xlink:href="#blanket_ghost_hood_copy_1_Layer0_0_FILL"/>
</g>
</g>

<g transform="matrix( 1, 0, 0.6730499267578125, 1, -72.75,43.3) ">
<g transform="matrix( 1, 0, 0, 1, 0,0) ">
<use xlink:href="#blanket_ghost_bottom_copy_1_Layer0_0_FILL"/>
</g>
</g>

<g transform="matrix( 1.28790283203125, -0.20501708984375, 0.3141326904296875, 0.949981689453125, 34.8,32.8) ">
<g transform="matrix( 1, 0, 0, 1, 0,0) ">
<use xlink:href="#blanket_ghost_arm_0_Layer0_0_FILL"/>
</g>
</g>

<g transform="matrix( 0.86181640625, 0, 0, 0.674072265625, 24.8,53) ">
<g transform="matrix( 1, 0, 0, 1, 0,0) ">
<use xlink:href="#blanket_ghost_face_0_Layer0_0_FILL"/>
</g>
</g>

<g transform="matrix( 1.40106201171875, 0, 0.167938232421875, 1.231842041015625, -0.6,65.55) ">
<g transform="matrix( 1, 0, 0, 1, 0,0) ">
<use xlink:href="#blanket_ghost_other_arm_0_Layer0_0_FILL"/>
</g>
</g>

<g transform="matrix( 1, 0, 0, 1, 10.35,-20.2) ">
<g transform="matrix( 0.3151397705078125, 0, 0, -0.5994110107421875, 9.55,75.2) ">
<g transform="matrix( 1, 0, 0, 1, 0,0) ">
<use xlink:href="#lantern_firey_Burst_copy_0_Layer0_0_FILL"/>
</g>
</g>

<g transform="matrix( -0.3151397705078125, 0, 0, -0.5994110107421875, 66.55,191.65) ">
<g transform="matrix( 1, 0, 0, 1, 0,0) ">
<use xlink:href="#lantern_firey_Burst_copy_0_Layer0_0_FILL"/>
</g>
</g>

<g transform="matrix( 0.49627685546875, 0, 0, -0.5340423583984375, 60.45,113.4) ">
<g transform="matrix( 1, 0, 0, 1, 0,0) ">
<use xlink:href="#lantern_firey_Burst_copy_0_Layer0_0_FILL"/>
</g>
</g>
</g>
</g>
</g>
</svg>
