
<svg xmlns="http://www.w3.org/2000/svg" version="1.1" xmlns:xlink="http://www.w3.org/1999/xlink" preserveAspectRatio="none" x="0px" y="0px" width="125px" height="100px" viewBox="0 0 125 100">
<defs>
<linearGradient id="Gradient_1" gradientUnits="userSpaceOnUse" x1="54.55" y1="20.96249999999999" x2="83.14999999999999" y2="261.7375" spreadMethod="pad">
<stop  offset="6.2745098039215685%" stop-color="#EF66FF"/>

<stop  offset="25.88235294117647%" stop-color="#CC66FF"/>

<stop  offset="100%" stop-color="#FFFFFF"/>
</linearGradient>

<g id="firey_Burst_2_Layer0_0_FILL">
<path fill="url(#Gradient_1)" stroke="none" d="
M 99 30.4
Q 92.1 25.55 84.15 22.25 77.4 19.45 73.8 19.25
L 73.15 19.25
Q 74.95 33.2 70.8 38.6 65.45 45.6 47.45 45.6 36.2 45.6 28.85 37.9 21.2 29.85 21.2 16.65 21.2 9.35 22.75 7.25 25.35 4.8 27.55 0.65
L 27.55 0
Q 14 7.6 10.2 11.4 4.5 17.05 4.5 26.35 4.5 29.25 6.35 34 6.7 34.85 7.15 35.85 4.4 40.65 3.05 43.7 0 50.45 0 55.85 0 68.25 9.65 76.45 16.9 82.65 30.8 87.1 38.5 89.55 52 92.95 61.6 95.8 61.6 99.15 61.6 101.55 58.7 104.65 58.5 104.8 54.7 108.25 66.1 106.2 77.6 99.75 93.75 90.65 90.55 80.2 94.75 82.4 97.75 86.85 101.25 91.9 100.1 96.3 110.75 82.6 113.7 77.9 118.05 71 118.05 60.95 118.05 43.85 99 30.4 Z"/>
</g>
</defs>

<g transform="matrix( -0.361663818359375, 0, 0, -0.47125244140625, 71.15,83.35) ">
<g transform="matrix( 1, 0, 0, 1, 0,0) ">
<use xlink:href="#firey_Burst_2_Layer0_0_FILL"/>
</g>
</g>
</svg>
