
<svg xmlns="http://www.w3.org/2000/svg" version="1.1" xmlns:xlink="http://www.w3.org/1999/xlink" preserveAspectRatio="none" x="0px" y="0px" width="125px" height="100px" viewBox="0 0 125 100">
<defs>
<linearGradient id="Gradient_1" gradientUnits="userSpaceOnUse" x1="61.887499999999996" y1="26.637500000000003" x2="59.4125" y2="67.2625" spreadMethod="pad">
<stop  offset="6.2745098039215685%" stop-color="#EF66FF"/>

<stop  offset="25.88235294117647%" stop-color="#CC66FF"/>

<stop  offset="100%" stop-color="#FFFFFF"/>
</linearGradient>

<g id="firey_Burst_1_Layer0_0_FILL">
<path fill="url(#Gradient_1)" stroke="none" d="
M 90.7 81.75
Q 101.85 72.85 107 61.3 109.2 43.7 90 30.45 82.3 25.6 74.15 23.9 67.35 22.65 64.9 24 64.6 24.05 64.45 24.25 63.6 36.2 60.1 42.35 54.75 49.85 49 59.1 44.15 61.4 42.9 54.3 41.75 46.75 47.8 37.55 51 32.55 52.8 32.15 55.6 31.95 57.75 30.1 57.75 29.75 57.95 29.75 46.15 27.25 38.7 25.1 29.25 23.45 25.55 32.15 24.45 34.8 24.9 40.45 24.9 41.25 25.1 42.6 20.15 44.85 17.75 47.1 12.4 51.9 12.8 57.7 12.2 70.3 14.95 76.1 16.6 80.25 21.25 86.4 23.65 90.3 31.2 94.95 37.45 96.9 36.7 99.85 36.05 101.95 33 104.65 32.65 104.95 29.1 107.25 40.2 106.05 48.5 101.8 62 95.4 67.7 82.4 69.75 85.45 68.95 91.25 68.05 97.65 64.95 102.65 82.25 88.2 90.7 81.75 Z"/>
</g>
</defs>

<g transform="matrix( -0.361663818359375, 0, 0, -0.47125244140625, 71.15,83.35) ">
<g transform="matrix( 1, 0, 0, 1, 0,0) ">
<use xlink:href="#firey_Burst_1_Layer0_0_FILL"/>
</g>
</g>
</svg>
