
<svg xmlns="http://www.w3.org/2000/svg" version="1.1" xmlns:xlink="http://www.w3.org/1999/xlink" preserveAspectRatio="none" x="0px" y="0px" width="125px" height="100px" viewBox="0 0 125 100">
<defs>
<linearGradient id="Gradient_1" gradientUnits="userSpaceOnUse" x1="10.375" y1="117.1875" x2="16.825" y2="143.5125" spreadMethod="pad">
<stop  offset="0%" stop-color="#CC66FF"/>

<stop  offset="100%" stop-color="#FFFFFF"/>
</linearGradient>

<linearGradient id="Gradient_2" gradientUnits="userSpaceOnUse" x1="34.800000000000004" y1="45.324999999999996" x2="31.1" y2="115.875" spreadMethod="pad">
<stop  offset="6.2745098039215685%" stop-color="#EF66FF"/>

<stop  offset="25.88235294117647%" stop-color="#CC66FF"/>

<stop  offset="100%" stop-color="#FFFFFF"/>
</linearGradient>

<g id="firey_Burst_4_Layer0_0_FILL">
<path fill="#CC66FF" stroke="none" d="
M -88.4 130.95
Q -87.868359375 132.3619140625 -87.15 133.2 -85.8 134.8 -84.3 134.1 -76.5 134.1 -65.9 125.35 -56.9 117.9 -55.7 114.2 -61.75 120.25 -68.85 124.55 -79.2169921875 130.809375 -88.4 130.95
M 20.35 -26.8
Q 27.701953125 -24.451953125 36.05 -20.1 40.3 -17.85 53.85 -9.4
L 54.5 -9.4
Q 52.85 -13.7 51.85 -15.75 50.1 -19.25 47.35 -21.3 40.2943359375 -26.6525390625 20.35 -26.8
M -62.65 -4.95
Q -62.7404296875 -4.933203125 -62.85 -4.95 -75.9181640625 2.5806640625 -79.35 5.25 -80.2 5.85 -81.05 6.85 -81.6 7.45 -83.35 8.45 -82.2 7.95 -63.25 0.6 -44.85 -6.55 -44.2 -6.9 -44.85 -7.55 -49.05 -7.55 -49.9 -7.55 -62.65 -4.95 Z"/>

<path fill="url(#Gradient_1)" stroke="none" d="
M 31.4 94.95
Q 31.4 87.05 40.35 81.2 41.9 80.2 47.6 77.05 51.75 74.75 53.3 73.2 41.3 78.3 31.85 88.05 21.3 98.95 21.75 108.55 22.3 119.35 12.1 127.25 3.2 134.1 -5.75 134.1 -19.8 134.1 -26.75 132.2 -32.50546875 130.597265625 -35.9 127.5 -38.4 136.0142578125 -38.4 137.05 -38.4 140.9 -33.95 143.15 -30.35 145 -26 145 -2.3 145 18.6 131.6 26.65 126.45 31.75 120.75 36.55 115.45 36.55 112.35 36.55 109.5 34 103.75 31.4 97.95 31.4 94.95 Z"/>

<path fill="url(#Gradient_2)" stroke="none" d="
M 178.65 33.25
Q 179.6 35.5 179.6 36.3 179.6 57.3 159.05 73.85 151 80.3 141.8 84.25 133.2 87.95 127.3 87.95 120.05 87.95 114.3 81.95 107.9 73.5 103.8 68.7 96.3 59.9 86.7 55.45 79.1017578125 51.9296875 69.2 50.45 68.5009765625 48.1841796875 67.65 45.1 56.50625 32.839453125 54.4 22.5 53.8 19.55 53.8 15.15 53.8 11.25 53.3 9.75 50.6 14.45 35.95 21.25 15.65 30 3.25 35.95 -3.1 39.05 -16.3 46.85 -32.05 56.2 -38.7 59.8 -67.1 75.15 -85.3 75.15 -96.7 75.15 -101.95 67.45 -107.05 60.05 -107.05 44.65 -107.05 31.9419921875 -100.9 20.25 -113.072265625 30.7439453125 -117.45 43.2 -119.9 50.1 -119.9 59.7 -119.9 83.4 -105.15 91.15 -98.95 94.4 -88.15 94.4 -86.7765625 94.4 -85.35 94.2 -81.909765625 97.406640625 -79.05 98.85 -75.25 100.8 -68.55 100.8 -50.25 100.8 -35.3 89.55 -25.1 81.9 -12.35 64.85 2.6 44.8 7.3 40.15 18.6 28.9 30.7 28.9 40.9 28.9 45.9 38.3 48.7400390625 43.6458984375 49.05 49.7 49.0994140625 50.458203125 49.1 51.2 63.5453125 53.273828125 75.05 64.25 88.45 77.05 88.45 91.8 88.45 96.05 87.5 98.55 86.65 100.95 83.95 104.35 82.3017578125 106.3646484375 77.45 112.2 117.4818359375 106.1396484375 151.7 87.3 168.65 77.95 178.55 68 188.55 58 188.55 50.1 188.55 45.15 183.65 37.6 179.5515625 31.3287109375 177.7 30.2 177.86484375 31.5228515625 178.65 33.25 Z"/>
</g>
</defs>

<g transform="matrix( -0.361663818359375, 0, 0, -0.47125244140625, 71.15,83.35) ">
<g transform="matrix( 1, 0, 0, 1, 0,0) ">
<use xlink:href="#firey_Burst_4_Layer0_0_FILL"/>
</g>
</g>
</svg>
