
<svg xmlns="http://www.w3.org/2000/svg" version="1.1" xmlns:xlink="http://www.w3.org/1999/xlink" preserveAspectRatio="none" x="0px" y="0px" width="1000px" height="500px" viewBox="0 0 1000 500">
<defs>
<radialGradient id="Gradient_1" gradientUnits="userSpaceOnUse" cx="0" cy="0" r="1457.8529718926563" fx="0" fy="0" gradientTransform="matrix( 0.8822563213148936, 0.4707693527619561, 0, 0.7479406504103122, 366.1,383.6) " spreadMethod="pad">
<stop  offset="11.764705882352942%" stop-color="#6633FF" stop-opacity="0.403921568627451"/>

<stop  offset="67.84313725490196%" stop-color="#6621FF" stop-opacity="0.1411764705882353"/>
</radialGradient>

<filter id="Filter_1" x="-20%" y="-20%" width="140%" height="140%" color-interpolation-filters="sRGB">
<feColorMatrix in="SourceGraphic" type="matrix" values="1 0 0 0 0 0 1 0 0 0 0 0 1 0 0 0 0 0 0.41 0" result="result1"/>
</filter>

<g id="__Starter_Assets_BG_Space_Assets_Symbol_41_0_Layer0_0_FILL">
<path fill="url(#Gradient_1)" stroke="none" d="
M -158.85 -623.9
Q -158.85 -629.65 -159.25 -631.3 -160.1 -635.35 -163.85 -639.65 -173 -650.35 -207.5 -670.4 -207.5 -677.6 -201.25 -689.6 -198.1 -701.45 -211 -716.5 -300.2 -655.65 -348.35 -622.2 -435 -562.15 -487.05 -519.75 -481.4 -514.25 -474.85 -509 -471.3 -506.3 -465.7 -502 -457.9 -495.6 -457.9 -488.3 -457.9 -456.15 -491.9 -415.1 -508.85 -395.65 -515.2 -387.25 -525.9 -373.45 -525.9 -365.2 -525.9 -358.65 -473.1 -365.45 -456.3 -367.65 -394.9 -377.5 -403.55 -366.95 -409.05 -360.7 -419.15 -348.5 -419.15 -341.2 -419.15 -333.45 -417 -330.5 -414.9 -327.5 -405.75 -322.65 -398.8 -318.95 -338.5 -326.15 -276.35 -333.8 -268.05 -331.5
L -268.05 -329.45
Q -270.1 -321.55 -285.1 -295.65 -285.35 -295.4 -316.8 -243.15 -360.9 -169.9 -360.9 -153.7 -360.9 -146.85 -358.85 -143.9 -358.2 -143 -352.35 -137.85 -303 -135.6 -255.75 -146.55 -225.4 -153.5 -177 -171.6 -125.6 -190.85 -101.85 -196.95 -58.35 -208.15 -15.8 -206.6
L -15.8 -204.55
Q -16.4 -196.65 -21.65 -183.75 -26.65 -171.5 -26.65 -166.65 -26.65 -160.25 7.6 -135.3 24.75 -122.8 41.85 -111.6 27.8 -87.55 -17.8 -37.15 -40.65 -11.9 -60.65 8.5
L -54.2 12.95
Q -46.4 18.15 -38.85 22.2 12.45 49.55 78.25 54.85 130.2 59 194.75 49.1 224.15 44.75 294.55 29.45 344.8 18.55 361.45 19.9 362.7 21.55 364.15 27.75 366.7 33.95 374.9 38.3 382.65 42.45 386.2 40.95 387.65 40.3 389.4 36.85 389.15 36 385.95 28.8 383.4 23.1 383.4 21.25 416.65 61.2 426.55 77.3 438 95.85 438 112.7 438 153.7 376.1 212.7 326.6 259.9 239.95 316.5 178 356.9 103.75 397.9 66.6 418.4 41.85 430.85
L 47.1 434.7
Q 53.8 439.25 61.35 443.3 97.15 462.4 156.4 463.75 197.2 464.7 279.85 455.9 384.15 444.8 425.7 442.45 514.55 437.6 588.35 446.3
L 589.6 450.05
Q 582.3 464.75 567.55 493.9 554.75 519.35 547.2 538.5
L 548.65 540.3
Q 551.7 543 559.25 547.05 609.2 573.7 622.15 594 627.75 602.75 628.95 613.5 629.55 618.3 629.55 634.95 629.55 668.6 581.55 704.7 546.35 731.05 475.9 764.4 399 799 370.25 813.65 322.1 837.75 322.1 851.45 322.1 854.95 342 862.7 356.05 868.2 388.1 878.7 430.85 892.7 440.05 895.85 467.25 905.25 477.35 910.65 481.75 913 484.2 916.15 485.4 917.95 487.1 922.05 490.5 930.7 498.55 936.3 549.5 963.5 571.05 976.55 592.65 989.6 619.95 1004.15 657.6 1024.25 759.95 1059.25 838.55 1086.1 903.15 1104.9
L 939.55 1124.3
Q 946.75 1137.45 945.05 1148 944.8 1150.15 943.1 1155.65 941.75 1160 941.75 1162.7 942 1170.65 953.35 1180.85 967.35 1193.4 1003.3 1214.9
L 1003.3 1292
Q 1002.1 1296.2 989.55 1312.5 981.95 1322.05 962.85 1346.15 925.05 1394.1 925.05 1408.15 925.05 1411.65 938.2 1414.55 947.25 1416.55 968.55 1419.3 994.55 1422.65 1002.25 1423.9 1019.7 1426.8 1025.7 1430 1083.75 1460.95 1106.5 1479 1124.55 1493.15 1124.3 1502.95 1124.3 1506.15 1122.1 1510.75 1119.55 1516.35 1119.05 1518.65 1117 1528.8 1130.65 1542.5 1180.7 1561.25 1210.6 1599.25 1219.25 1610.25 1227.9 1625.35 1235.7 1638.9 1237.4 1640.6 1253 1648.7 1256.75 1645 1258 1643.8 1258 1636.15 1258 1619.75 1230.7 1577.7 1198.5 1531.2 1188.9 1515 1173.65 1489.65 1131.35 1431.4 1093 1378.5 1093 1378.4 1093 1362.6 1139.8 1254.5 1186.45 1149.45 1186.45 1148.6 1186.45 1142.15 1137.3 1112.85 1121.55 1103.45 1102.5 1092.8 1090.8 1086.25 1084.6 1082.9 1087.9 1063.75 1088.65 1041.1 1090.15 995.75 1077.25 978.3
L 1023.9 949.8
Q 994.75 938.15 975.4 933.25 946.05 925.6 944.2 925.05 898.75 910.6 739.35 833.95 801.75 816 866.8 772.5 931.05 729.7 983.8 671.65 1038.65 611.7 1069.6 548.05 1102.75 479.5 1102.75 417.5 1102.75 417.1 1103.35 414.4 1103.7 411.2 1102.6 408 1099.2 398.05 1082.15 388.95 1076.15 385.75 952.6 347.05 816.85 304.6 778.25 290.65
L 694.5 245.95
Q 677.1 223.5 672.45 199.45 670.25 188.55 670.25 162 670.25 149.6 687.2 137.1 696.1 130.55 698.9 127.5 704.25 121.8 704.25 115.4 704.25 114.15 694.5 96.45 684.75 78.75 684.75 74.1 684.75 69.95 687.2 58.65 690.85 42 691.6 37.6 696.5 9.85 688.4 1.45
L 138.95 -168.3
Q 148 -175 160.7 -199.05 167.05 -211.1 171.6 -221.8 155.65 -232.1 141.4 -240.75 128.1 -248.85 125.55 -250.55 138.8 -255.35 148.1 -279.05 152.7 -290.95 154.7 -301.85
L 129.2 -315.45
Q 104.35 -317.3 65.25 -316.55 19.9 -315.35 -3.5 -315.05 -90.15 -314.1 -143.15 -328.1 -132.9 -337.3 -142.15 -354.35 -154.85 -377.5 -201.4 -402.35 -234.55 -420.05 -292.4 -419.2 -320.45 -418.25 -331.3 -417.85 -349.55 -417.15 -354.8 -419.45 -334.2 -439.75 -241.35 -529.35 -158.85 -611.4 -158.85 -623.9
M -224.4 -686.65
Q -229.05 -678.6 -220.15 -665.15
L -233.7 -680.4
Q -229.05 -683.45 -224.4 -686.65
M 1076.05 409.35
L 1075.05 406.55
Q 1076.8 406.75 1077.25 407
L 1076.05 409.35
M 75.6 428
Q 73.9 427.8 72.2 427.5
L 74.6 425.7 75.6 428 Z"/>
</g>
</defs>

<g transform="matrix( 0.620025634765625, -0.2354888916015625, -0.106964111328125, 0.184173583984375, 322.8,294.45) ">
<g transform="matrix( 1, 0, 0, 1, 0,0) ">
<use filter="url(#Filter_1)" xlink:href="#__Starter_Assets_BG_Space_Assets_Symbol_41_0_Layer0_0_FILL"/>
</g>
</g>
</svg>
