
<svg xmlns="http://www.w3.org/2000/svg" version="1.1" xmlns:xlink="http://www.w3.org/1999/xlink" preserveAspectRatio="none" x="0px" y="0px" width="1000px" height="500px" viewBox="0 0 1000 500">
<defs>
<radialGradient id="Gradient_1" gradientUnits="userSpaceOnUse" cx="0" cy="0" r="262" fx="0" fy="0" gradientTransform="matrix( -1, 0, 0, 1.0135973282442747, 210.45,1171.75) " spreadMethod="pad">
<stop  offset="11.764705882352942%" stop-color="#6633FF" stop-opacity="0.403921568627451"/>

<stop  offset="67.84313725490196%" stop-color="#6621FF" stop-opacity="0.1411764705882353"/>
</radialGradient>

<radialGradient id="Gradient_2" gradientUnits="userSpaceOnUse" cx="0" cy="0" r="62.63749999999982" fx="0" fy="0" gradientTransform="matrix( 1.0000000000000029, 0, 0, 0.8545200558770729, 2426.8,1430.6) " spreadMethod="pad">
<stop  offset="11.764705882352942%" stop-color="#6633FF" stop-opacity="0.403921568627451"/>

<stop  offset="67.84313725490196%" stop-color="#6621FF" stop-opacity="0.1411764705882353"/>
</radialGradient>

<radialGradient id="Gradient_3" gradientUnits="userSpaceOnUse" cx="0" cy="0" r="233.2750000000001" fx="0" fy="0" gradientTransform="matrix( 0.9999999999999998, 0, 0, 0.7696388382809987, 2160.3,1482.85) " spreadMethod="pad">
<stop  offset="11.764705882352942%" stop-color="#6633FF" stop-opacity="0.403921568627451"/>

<stop  offset="67.84313725490196%" stop-color="#6621FF" stop-opacity="0.1411764705882353"/>
</radialGradient>

<radialGradient id="Gradient_4" gradientUnits="userSpaceOnUse" cx="0" cy="0" r="491.875" fx="0" fy="0" gradientTransform="matrix( 1, 0, 0, 0.7696060991105464, 972.25,1184.3) " spreadMethod="pad">
<stop  offset="11.764705882352942%" stop-color="#6633FF" stop-opacity="0.403921568627451"/>

<stop  offset="67.84313725490196%" stop-color="#6621FF" stop-opacity="0.1411764705882353"/>
</radialGradient>

<radialGradient id="Gradient_5" gradientUnits="userSpaceOnUse" cx="0" cy="0" r="339.25" fx="0" fy="0" gradientTransform="matrix( 1, 0, 0, 0.9509211495946942, 1065.7,813.4) " spreadMethod="pad">
<stop  offset="11.764705882352942%" stop-color="#6633FF" stop-opacity="0.403921568627451"/>

<stop  offset="67.84313725490196%" stop-color="#6621FF" stop-opacity="0.1411764705882353"/>
</radialGradient>

<radialGradient id="Gradient_6" gradientUnits="userSpaceOnUse" cx="0" cy="0" r="379.88750000000005" fx="0" fy="0" gradientTransform="matrix( -1, 0, 0, 0.8202757395281498, 1381.65,971.65) " spreadMethod="pad">
<stop  offset="11.764705882352942%" stop-color="#6633FF" stop-opacity="0.403921568627451"/>

<stop  offset="67.84313725490196%" stop-color="#6621FF" stop-opacity="0.1411764705882353"/>
</radialGradient>

<radialGradient id="Gradient_7" gradientUnits="userSpaceOnUse" cx="0" cy="0" r="305.9000000000001" fx="0" fy="0" gradientTransform="matrix( 0.9999999999999999, 0, 0, 0.8785142203334422, 2901.3,1512.1) " spreadMethod="pad">
<stop  offset="11.764705882352942%" stop-color="#6633FF" stop-opacity="0.403921568627451"/>

<stop  offset="67.84313725490196%" stop-color="#6621FF" stop-opacity="0.1411764705882353"/>
</radialGradient>

<radialGradient id="Gradient_8" gradientUnits="userSpaceOnUse" cx="0" cy="0" r="160.88749999999982" fx="0" fy="0" gradientTransform="matrix( 1.000000000000001, 0, 0, 0.9509750602128827, 2557.95,1386.55) " spreadMethod="pad">
<stop  offset="11.764705882352942%" stop-color="#6633FF" stop-opacity="0.403921568627451"/>

<stop  offset="67.84313725490196%" stop-color="#6621FF" stop-opacity="0.1411764705882353"/>
</radialGradient>

<radialGradient id="Gradient_9" gradientUnits="userSpaceOnUse" cx="0" cy="0" r="373.4875000000002" fx="0" fy="0" gradientTransform="matrix( 0.9999999999999996, 0, 0, 1.2370895946986171, 2967.75,1320.25) " spreadMethod="pad">
<stop  offset="11.764705882352942%" stop-color="#6633FF" stop-opacity="0.403921568627451"/>

<stop  offset="67.84313725490196%" stop-color="#6621FF" stop-opacity="0.1411764705882353"/>
</radialGradient>

<radialGradient id="Gradient_10" gradientUnits="userSpaceOnUse" cx="0" cy="0" r="644.9875000000002" fx="0" fy="0" gradientTransform="matrix( 0.9999999999999998, 0, 0, 0.8784860171708753, 1789.75,1078.05) " spreadMethod="pad">
<stop  offset="11.764705882352942%" stop-color="#6633FF" stop-opacity="0.403921568627451"/>

<stop  offset="67.84313725490196%" stop-color="#6621FF" stop-opacity="0.1411764705882353"/>
</radialGradient>

<radialGradient id="Gradient_11" gradientUnits="userSpaceOnUse" cx="0" cy="0" r="787.4875000000002" fx="0" fy="0" gradientTransform="matrix( 0.9999999999999998, 0, 0, 1.237067255035794, 4321,641.2) " spreadMethod="pad">
<stop  offset="11.764705882352942%" stop-color="#6633FF" stop-opacity="0.403921568627451"/>

<stop  offset="67.84313725490196%" stop-color="#6621FF" stop-opacity="0.1411764705882353"/>
</radialGradient>

<radialGradient id="Gradient_12" gradientUnits="userSpaceOnUse" cx="0" cy="0" r="498.1374999999998" fx="0" fy="0" gradientTransform="matrix( -1.0000000000000004, 0, 0, 0.9363378585229986, 4277.75,1263.65) " spreadMethod="pad">
<stop  offset="11.764705882352942%" stop-color="#6633FF" stop-opacity="0.403921568627451"/>

<stop  offset="67.84313725490196%" stop-color="#6621FF" stop-opacity="0.1411764705882353"/>
</radialGradient>

<radialGradient id="Gradient_13" gradientUnits="userSpaceOnUse" cx="0" cy="0" r="644.9875000000002" fx="0" fy="0" gradientTransform="matrix( 0.9999999999999998, 0, 0, 0.8784860171708753, 3803.05,1112.1) " spreadMethod="pad">
<stop  offset="11.764705882352942%" stop-color="#6633FF" stop-opacity="0.403921568627451"/>

<stop  offset="67.84313725490196%" stop-color="#6621FF" stop-opacity="0.1411764705882353"/>
</radialGradient>

<filter id="Filter_1" x="-20%" y="-20%" width="140%" height="140%" color-interpolation-filters="sRGB">
<feColorMatrix in="SourceGraphic" type="matrix" values="1 0 0 0 0 0 1 0 0 0 0 0 1 0 0 0 0 0 0.21 0" result="result1"/>
</filter>

<g id="__Starter_Assets_BG_Space_Assets_Symbol_5_copy_4_0_Layer0_0_FILL">
<path fill="url(#Gradient_1)" stroke="none" d="
M 157.8 1162.9
Q 141.8 1163.55 106.75 1147.45 89.25 1139.4 74.9 1131.2 23.5 1090.55 -32.6 1124.1 -33.2 1124.5 -32.9 1129.45 -32.55 1135.2 -30.85 1140.7 -25.8 1157.05 -12.6 1159.1 -10.65 1159.4 -1.4 1168.1 14.3 1182.8 19.4 1187.2 51.6 1215.25 73 1218.15 104.1 1222.5 204.6 1225.1 286 1227.2 328.9 1226.8 351.1 1226.6 385.55 1224.55 437.7 1221.5 457.75 1216.4 314.5 1155.2 157.8 1162.9 Z"/>

<path fill="url(#Gradient_2)" stroke="none" d="
M 2365.55 1427.35
Q 2377.45 1431.3 2389.35 1435.3 2440.8 1453 2489 1427.85
L 2463.6 1420.95 2365.55 1427.35 Z"/>

<path fill="url(#Gradient_3)" stroke="none" d="
M 1934.55 1454.95
Q 1934.35 1455.05 1934.2 1455.35 1935.1 1456.75 1959.6 1476.2 1971.85 1485.9 1983.95 1495.35 2041.85 1514.45 2103.05 1514.75 2210.5 1515.25 2318 1506.8 2355.15 1503.75 2388.05 1486.55 2315.45 1475.3 2240.55 1466.45 2091.35 1448.9 2065 1459.1
L 2114.5 1475.7 1999.15 1466.35
Q 1946.5 1450.45 1934.55 1454.95 Z"/>

<path fill="url(#Gradient_4)" stroke="none" d="
M 1426.3 1210.85
Q 1446.3 1209.2 1453.75 1190.6 1449.2 1189.05 1398.35 1181 1326.85 1169.95 1284.1 1163.3 1110 1136.25 1063.55 1125.75 978.25 1106.35 890.8 1103.45 826.55 1101.25 771.25 1134.05
L 878.3 1169.75
Q 875.45 1170.75 858.2 1172.4 839.05 1174.25 817.55 1175.3 757.6 1178.25 729.9 1173 665.75 1159.55 608.35 1147.8 494.95 1124.55 494.65 1126.95 497.9 1129.45 538.3 1142.75 581.1 1156.8 581.95 1157.2 583.95 1207.5 633.5 1229.6 637.35 1231.3 693.25 1243.8 750.1 1256.5 755.1 1256.35 1091.1 1239.65 1426.3 1210.85 Z"/>

<path fill="url(#Gradient_5)" stroke="none" d="
M 1353.45 800.4
Q 1361.8501953125 800.0796875 1369.15 797.9
L 1334 797.9
Q 1343.501953125 800.809375 1353.45 800.4 Z"/>

<path fill="url(#Gradient_6)" stroke="none" d="
M 1689.1 954.15
Q 1699.5 943.8 1700.85 943.8 1709.8 943.15 1729.4 935.05 1748 927.35 1750.65 924.1 1701.8 910.95 1653.8 934.4 1651.7 935.45 1633 945.8 1613.7 956.05 1605.6 957.9 1581.35 963.25 1522.55 963.2 1467.35 963.15 1454.85 959.55
L 1537.1 930.3
Q 1474.2 894.15 1402.6 907.15 1281.85 928.55 1196.3 943.75 1032.4 972.9 1008.75 978.8 1091.95 1024.35 1186.55 1013.1 1219.4 1009.2 1253 1011.65 1312.45 1016.15 1444.45 1018.45 1592.6 1021 1617.7 1014.95 1630.85 1011.75 1665.95 977.3 1682.85 960.35 1689.1 954.15 Z"/>

<path fill="url(#Gradient_7)" stroke="none" d="
M 2886.8 1489.85
L 2595.7 1519.35
Q 2797.3 1563 3003 1547.95 3005.3 1547.75 3029.1 1547.25 3057.25 1546.3 3081.35 1544.15 3159 1537.2 3189.9 1518.65 3192.35 1517.15 3179.75 1507.75 3166.5 1497.8 3147.65 1487.7 3125.3 1475.7 3105 1469.15 3080.55 1461.25 3063.2 1462.65 2974 1469.6 2886.8 1489.85 Z"/>

<path fill="url(#Gradient_8)" stroke="none" d="
M 2641.25 1363.2
L 2638.85 1374.1 2405.5 1412.2
Q 2491.85 1414.45 2556 1413.75 2653.8 1412.65 2660.8 1404.65 2673.85 1389.7 2686.6 1379.45 2691.55 1380.9 2641.25 1363.2 Z"/>

<path fill="url(#Gradient_9)" stroke="none" d="
M 2806.7 1363.3
Q 2853.95 1352.1 2893.6 1323.15 2950.55 1281.5 3014.05 1308.95 3037.75 1365.7 3100.1 1381.65 3151.1 1394.65 3202.15 1380.8 3236.25 1371.55 3282.1 1337.7 3299.3 1324.95 3310.1 1314.5 3320.65 1304.35 3317.65 1303.7 3316.05 1303.3 3291.95 1302.4 3261.25 1301.3 3239 1299.7 3158.9 1294.05 3125.4 1279.95 3120.7 1277.25 3084.65 1269.7 3054.25 1263.3 3043.7 1261.7 3022.35 1258.25 2947.85 1260.8 2915 1261.9 2855.65 1265.1 2752.85 1271.25 2656.6 1305 2623.8 1316.4 2604.15 1341.7 2604.35 1342.4 2604.65 1342.4 2677.35 1352.8 2714.1 1357.2 2792.4 1366.65 2806.7 1363.3 Z"/>

<path fill="url(#Gradient_10)" stroke="none" d="
M 2963.7 1028.05
Q 3039.6 1037.8 3100.85 993.5 3036.45 981.75 2824.85 945.4 2650.8 915.5 2644.4 913.4 2527.4 875.2 2420.95 933.85
L 2528.75 967.45
Q 2492.75 975.45 2414.65 971.55 2386.7 970.15 2361.9 967.6 2339.6 965.3 2336.25 963.95 2284 942.6 2230.55 925.15 2185 910.35 2143.05 926.15 2144 928.55 2154.1 933.1 2163.8 937.45 2177.6 941.85 2211.3 952.55 2228.15 951.6
L 2226.7 980.5
Q 2093.15 973.2 1960.8 992.9 1808.65 1015.6 1658.35 1048.3 1646.15 1051 1609.1 1054.4 1567.75 1058.15 1552.7 1056.6 1348.6 1036.95 1151.5 1093.85 1162.95 1098.25 1248.1 1112 1328 1124.85 1434.2 1139.8 1544.6 1155.3 1625.5 1164.85 1716.65 1175.65 1737.55 1174.8 1773.9 1173.65 1913.75 1158.05 1986.85 1149.9 2088.85 1138.25 2094.75 1137.65 2155.95 1132.5 2213.95 1127.6 2254.5 1123.1 2385.75 1108.35 2417.6 1088.85 2447.35 1097.6 2478.2 1099.5 2546.1 1103.5 2607.35 1073.75 2605.3 1073.85 2591.7 1073.45 2574.15 1072.95 2556.95 1071.95 2503.8 1068.75 2478.9 1062.3
L 2715.25 1044.4
Q 2953.55 1026.75 2963.7 1028.05
M 1941.05 1041.45
Q 1960.0640625 1044.285546875 1979.5 1048.5 1959.2775390625 1044.59453125 1941.05 1041.45 Z"/>

<path fill="url(#Gradient_11)" stroke="none" d="
M 4864.05 798.5
Q 4885.3830078125 799.7734375 4906.05 797.9
L 4852.2 797.9
Q 4858.1390625 798.1990234375 4864.05 798.5 Z"/>

<path fill="url(#Gradient_12)" stroke="none" d="
M 4060.7 1320.05
Q 4096.95 1322.25 4100.45 1322.55 4232.85 1334.1 4365.8 1330.95 4511.2 1327.55 4654.15 1301.25 4680.8 1296.35 4717.9 1281.05 4732.65 1275 4740.9 1270.45 4749.35 1265.8 4746.05 1265.45 4693.1 1260.25 4486.25 1242.35 4314.55 1227.45 4301.45 1225.1 4280.05 1219.95 4230.5 1212.35 4181.65 1204.85 4126.05 1198.2 3990.85 1181.9 3949.25 1185.1 3863.3 1191.55 3785.5 1228.7 3784.65 1231.85 3786.95 1240.05 3789.2 1248.05 3793.35 1257 3803.65 1279.2 3813.15 1282.8 3862.5 1301.55 3981.05 1313.45 4018.3 1317.2 4060.7 1320.05 Z"/>

<path fill="url(#Gradient_13)" stroke="none" d="
M 4348.25 1029.45
Q 4323.95 1024.85 4298.75 1021.75 4237.65 1014.15 4227.25 1020.85 4227.4 1024.7 4216.55 1036.25 4204.95 1048.65 4189.6 1060 4171.3 1073.45 4154.65 1079.9 4134.75 1087.6 4120.15 1083.85 4034 1061.7 3945.5 1052 3925.75 1049.75 3839.05 1056.5 3780.45 1061.1 3653.25 1073.15 3503.3 1087.35 3456.6 1091.4 3355.85 1100.2 3317.55 1100.85 3236.05 1102.3 3158.55 1127.4 3255 1143.7 3448.9 1171.05 3638.5 1197.8 3666.85 1199.5 3679.15 1200.3 3704 1191.75 3726.9 1183.85 3729.45 1180.2 3771.05 1121.25 3841.2 1105.9 3845.7 1105.05 3849.75 1106.1 3940.05 1130.8 4135.9 1150 4198.85 1156.15 4264.3 1160.9 4311.65 1164.35 4322.75 1164.7 4353.15 1166.6 4395.9 1135.45 4410 1125.1 4422.5 1113.35 4432.95 1103.45 4433 1102.15 4434.6 1053.4 4386.35 1038.3 4372.8 1034.1 4348.25 1029.45 Z"/>
</g>
</defs>

<g transform="matrix( 0.1837158203125, 0, 0, 0.1837158203125, 58.25,-84.05) ">
<g transform="matrix( 1, 0, 0, 1, 0,0) ">
<use filter="url(#Filter_1)" xlink:href="#__Starter_Assets_BG_Space_Assets_Symbol_5_copy_4_0_Layer0_0_FILL"/>
</g>
</g>
</svg>
