
<svg xmlns="http://www.w3.org/2000/svg" version="1.1" xmlns:xlink="http://www.w3.org/1999/xlink" preserveAspectRatio="none" x="0px" y="0px" width="150px" height="100px" viewBox="0 0 150 100">
<defs>
<g id="Symbol_121_0_Layer0_0_FILL">
<path fill="#000000" stroke="none" d="
M 68.35 48.55
Q 66.45 46.1 65.6 44.85 64.3 42.85 63.15 40.75
L 58.45 32.2
Q 56.2 28.05 54.85 26.05 52.65 22.75 50.45 20.55 45.75 15.95 36.25 12.05 23.1 6.85 20.65 5.4
L 17.6 3.65
Q 15.8 2.65 14.45 2.05 12.7 1.4 8.05 0.35 2.1 -0.75 0 1.75 0.1 3.4 2.5 5.05 5.3 6.95 5.75 8.2 6.1 9.05 6.15 10.55 6.35 12.75 7.95 17.5
L 9.6 22.25
Q 11.15 26.45 14.1 33.1 15.5 36.2 16.4 37.75 17.75 40.2 19.45 41.8 21.25 43.75 25.75 46.6 30.3 49.5 33.2 50.8 35 51.55 38.8 52.95 40.5 53.7 43.65 55.15 45.8 56.05 50.15 57.1
L 63.15 60.15
Q 66.25 60.9 67.75 60.4 69.85 59.65 70.6 57.15 71.3 54.8 70.6 52.5 69.95 50.7 68.35 48.55
M 49 31.55
Q 49.8 32.6 50.5 33.8 53.15 38.15 57.3 47.4 45.6 44.75 33.75 40.3 33.15 40.1 32.6 39.85 27 37.75 23.65 35.7 19 32.95 16.45 29.4 14.7 26.8 12.85 22.2 9.85 14.6 7.6 7.5 18 12.2 31.1 17.85 37.1 20.4 40.5 22.7 45.2 25.9 49 31.55 Z"/>

<path fill="#FFFFFF" stroke="none" d="
M 49 31.55
Q 45.2 25.9 40.5 22.7 37.1 20.4 31.1 17.85 18 12.2 7.6 7.5 9.85 14.6 12.85 22.2 14.7 26.8 16.45 29.4 19 32.95 23.65 35.7 27 37.75 32.6 39.85 33.15 40.1 33.75 40.3 28.4 37 27.4 36.35 22.3 32.8 22.25 29.35 23.25 28.55 25 28.6 25.7 28.6 28.05 28.95 29.8 29.15 32.55 29.2 36.6 29.05 37.1 29.05 43.05 29.2 49 31.55 Z"/>

<path fill="#D6AEE5" stroke="none" d="
M 50.5 33.8
Q 49.8 32.6 49 31.55 43.05 29.2 37.1 29.05 36.6 29.05 32.55 29.2 29.8 29.15 28.05 28.95 25.7 28.6 25 28.6 23.25 28.55 22.25 29.35 22.3 32.8 27.4 36.35 28.4 37 33.75 40.3 45.6 44.75 57.3 47.4 53.15 38.15 50.5 33.8 Z"/>
</g>
</defs>

<g transform="matrix( 0.2342681884765625, 0, 0, 0.2342681884765625, 37,46.25) ">
<g transform="matrix( 1.63623046875, 0, 0, 1.63623046875, -96.45,-195.5) ">
<g transform="matrix( 0.5433502197265625, 0.261932373046875, -0.261932373046875, 0.5433502197265625, 246.4,103.05) ">
<g transform="matrix( 0.26055908203125, -0.1318359375, 0.34075927734375, 0.6734619140625, -136.55,-112.3) ">
<g transform="matrix( 1, 0, 0, 1, 0,0) ">
<use xlink:href="#Symbol_121_0_Layer0_0_FILL"/>
</g>
</g>
</g>

<g transform="matrix( 0.6574249267578125, 0.031829833984375, -0.025970458984375, 0.5359649658203125, 271.45,138.25) "/>

<g transform="matrix( 0.275421142578125, 0.26116943359375, -0.3162689208984375, 0.3335418701171875, 315.75,128.05) "/>

<g transform="matrix( 0.402374267578125, 0.231781005859375, -0.248504638671875, 0.431427001953125, 291.1,123.85) ">
<g transform="matrix( 0.26055908203125, -0.1318359375, 0.34075927734375, 0.6734619140625, -136.55,-112.3) ">
<g transform="matrix( 1, 0, 0, 1, 0,0) ">
<use xlink:href="#Symbol_121_0_Layer0_0_FILL"/>
</g>
</g>
</g>

<g transform="matrix( 0.48968505859375, -0.555389404296875, 0.3050994873046875, 0.2690277099609375, 261.85,194.3) ">
<g transform="matrix( 0.26055908203125, -0.1318359375, 0.34075927734375, 0.6734619140625, -136.55,-112.3) ">
<g transform="matrix( 1, 0, 0, 1, 0,0) ">
<use xlink:href="#Symbol_121_0_Layer0_0_FILL"/>
</g>
</g>
</g>

<g transform="matrix( 0.1923065185546875, -0.237213134765625, 0.28668212890625, 0.232421875, 251.75,169.15) ">
<g transform="matrix( 0.26055908203125, -0.1318359375, 0.34075927734375, 0.6734619140625, -136.55,-112.3) ">
<g transform="matrix( 1, 0, 0, 1, 0,0) ">
<use xlink:href="#Symbol_121_0_Layer0_0_FILL"/>
</g>
</g>
</g>

<g transform="matrix( 0.558441162109375, -0.0392913818359375, 0.3832550048828125, 0.3543243408203125, 221.95,140.4) ">
<g transform="matrix( 0.26055908203125, -0.1318359375, 0.34075927734375, 0.6734619140625, -136.55,-112.3) ">
<g transform="matrix( 1, 0, 0, 1, 0,0) ">
<use xlink:href="#Symbol_121_0_Layer0_0_FILL"/>
</g>
</g>
</g>
</g>
</g>
</svg>
