
<svg xmlns="http://www.w3.org/2000/svg" version="1.1" xmlns:xlink="http://www.w3.org/1999/xlink" preserveAspectRatio="none" x="0px" y="0px" width="150px" height="100px" viewBox="0 0 150 100">
<defs>
<g id="Necro_Shot_0_Layer0_0_FILL">
<path fill="#CC66FF" stroke="none" d="
M 26.7 35.35
L 24.15 36.6 23.95 34.5 14.9 41.45 20.65 34.4 14.85 39.35
Q 11.2 49.55 2.95 56.6 1.75 57.7 0.6 58.8
L 25.2 39.95 26.75 44.75
Q 28.2 41.3 27.25 37.6 26.95 36.45 26.7 35.35
M 11.45 33.5
L 15.1 36 20 28.8 0.85 28.15 6.85 26.5 -20.25 22.95 -14.85 22.6 -42 23.55
Q -27.85 25.85 -13.3 27.6 0.75 29.6 15.2 30.05 15.05 30.35 14.9 30.65 14.7 30.95 14.5 31.25 14.4 31.5 14.25 31.7 14.05 31.95 13.8 32.2 13.65 32.4 13.45 32.6 13.25 32.7 13.1 32.8 13 32.85 12.9 32.95 12.75 32.95 12.65 32.95 12.05 33.2 11.45 33.5
M 19.1 15.4
L 18.2 13.05 14.25 10 19.1 15.4
M 19.3 21.8
L 16.7 19.1 19.15 17.65 13.5 9.3 -3.7 -9.55 16.4 20.6 -11.45 18.8
Q -9.45 19.35 -7.4 19.95 -6.65 20.2 -5.85 20.45 -5.25 20.65 -4.65 20.85 -3.45 21.1 -2.9 22.05
L 19.3 21.8
M 27.25 12.1
L 26.85 8.95 25.9 12 22.2 9.75 21.95 11.65 26.2 15.4 27.25 12.1
M 27.5 11.25
L 28.15 3.25 33.75 28.2 27.1 46.2 28 57.25 36.15 22.75 25.2 -8.65 26.85 8.8 27.5 11.25 Z"/>

<path fill="#AA00FF" stroke="none" d="
M 16.7 19.1
L 19.3 21.8 -2.9 22.05 -14.85 22.6 -20.25 22.95 6.85 26.5 0.85 28.15 20 28.8 15.1 36 6.25 48.7 14.85 39.35 20.65 34.4 22.1 30.95 21.55 29.85 20.2 29.15 21.55 27.55 -5.8 24.3 13.25 23.55 9.05 22 22.55 22.75 19.15 17.65 16.7 19.1
M 20.4 16.8
Q 22.3 18.8 24.75 19.4 24.9 19.55 25.15 19.55
L 25.4 17.6 27.3 18.65 27.25 12.1 26.2 15.4 21.95 11.65 9.3 0.55
Q 10 1.35 10.7 2.15 15.15 7.05 18.2 13.05
L 19.1 15.4
Q 19.75 16.1 20.4 16.8
M 28.15 3.25
L 27.5 11.25 32.2 23.95 28.2 40.7 26.85 32.3 23.95 34.5 24.15 36.6 26.7 35.35
Q 26.95 36.45 27.25 37.6 28.2 41.3 26.75 44.75
L 26.2 49.85 27.1 46.2 33.75 28.2 28.15 3.25 Z"/>

<path fill="#FDFAFF" stroke="none" d="
M 26.85 8.8
L 26.85 8.95 27.25 12.1 27.3 18.65 25.4 17.6 25.15 19.55
Q 24.9 19.55 24.75 19.4 22.3 18.8 20.4 16.8 19.75 16.1 19.1 15.4
L 14.25 10 12.8 8.25 13.5 9.3 19.15 17.65 22.55 22.75 9.05 22 13.25 23.55 -5.8 24.3 21.55 27.55 20.2 29.15 21.55 29.85 22.1 30.95 20.65 34.4 14.9 41.45 23.95 34.5 26.85 32.3 28.2 40.7 32.2 23.95 27.5 11.25 26.85 8.8 Z"/>
</g>

<g id="Symbol_121_0_Layer0_0_FILL">
<path fill="#000000" stroke="none" d="
M 68.35 48.55
Q 66.45 46.1 65.6 44.85 64.3 42.85 63.15 40.75
L 58.45 32.2
Q 56.2 28.05 54.85 26.05 52.65 22.75 50.45 20.55 45.75 15.95 36.25 12.05 23.1 6.85 20.65 5.4
L 17.6 3.65
Q 15.8 2.65 14.45 2.05 12.7 1.4 8.05 0.35 2.1 -0.75 0 1.75 0.1 3.4 2.5 5.05 5.3 6.95 5.75 8.2 6.1 9.05 6.15 10.55 6.35 12.75 7.95 17.5
L 9.6 22.25
Q 11.15 26.45 14.1 33.1 15.5 36.2 16.4 37.75 17.75 40.2 19.45 41.8 21.25 43.75 25.75 46.6 30.3 49.5 33.2 50.8 35 51.55 38.8 52.95 40.5 53.7 43.65 55.15 45.8 56.05 50.15 57.1
L 63.15 60.15
Q 66.25 60.9 67.75 60.4 69.85 59.65 70.6 57.15 71.3 54.8 70.6 52.5 69.95 50.7 68.35 48.55
M 49 31.55
Q 49.8 32.6 50.5 33.8 53.15 38.15 57.3 47.4 45.6 44.75 33.75 40.3 33.15 40.1 32.6 39.85 27 37.75 23.65 35.7 19 32.95 16.45 29.4 14.7 26.8 12.85 22.2 9.85 14.6 7.6 7.5 18 12.2 31.1 17.85 37.1 20.4 40.5 22.7 45.2 25.9 49 31.55 Z"/>

<path fill="#FFFFFF" stroke="none" d="
M 49 31.55
Q 45.2 25.9 40.5 22.7 37.1 20.4 31.1 17.85 18 12.2 7.6 7.5 9.85 14.6 12.85 22.2 14.7 26.8 16.45 29.4 19 32.95 23.65 35.7 27 37.75 32.6 39.85 33.15 40.1 33.75 40.3 28.4 37 27.4 36.35 22.3 32.8 22.25 29.35 23.25 28.55 25 28.6 25.7 28.6 28.05 28.95 29.8 29.15 32.55 29.2 36.6 29.05 37.1 29.05 43.05 29.2 49 31.55 Z"/>

<path fill="#D6AEE5" stroke="none" d="
M 50.5 33.8
Q 49.8 32.6 49 31.55 43.05 29.2 37.1 29.05 36.6 29.05 32.55 29.2 29.8 29.15 28.05 28.95 25.7 28.6 25 28.6 23.25 28.55 22.25 29.35 22.3 32.8 27.4 36.35 28.4 37 33.75 40.3 45.6 44.75 57.3 47.4 53.15 38.15 50.5 33.8 Z"/>
</g>
</defs>

<g transform="matrix( 0.2342681884765625, 0, 0, 0.2342681884765625, 37,46.25) ">
<g transform="matrix( 1.63623046875, 0, 0, 1.63623046875, -96.45,-195.5) ">
<g transform="matrix( 3.54180908203125, 0, 0, 3.47149658203125, 201.4,57.8) ">
<g transform="matrix( 1, 0, 0, 1, 0,0) ">
<use xlink:href="#Necro_Shot_0_Layer0_0_FILL"/>
</g>
</g>

<g transform="matrix( 0.5433502197265625, 0.261932373046875, -0.261932373046875, 0.5433502197265625, 246.4,103.05) ">
<g transform="matrix( 1, 0, 0, 1, -23.65,-19.2) ">
<g transform="matrix( 1, 0, 0, 1, 0,0) ">
<use xlink:href="#Symbol_121_0_Layer0_0_FILL"/>
</g>
</g>
</g>

<g transform="matrix( 0.6574249267578125, 0.031829833984375, -0.025970458984375, 0.5359649658203125, 271.45,138.25) ">
<g transform="matrix( 0.9905242919921875, 0.056640625, -0.05242919921875, 0.9168853759765625, -94.35,-77.55) ">
<g transform="matrix( 1, 0, 0, 1, 0,0) ">
<use xlink:href="#Symbol_121_0_Layer0_0_FILL"/>
</g>
</g>
</g>

<g transform="matrix( 0.275421142578125, 0.26116943359375, -0.3162689208984375, 0.3335418701171875, 315.75,128.05) ">
<g transform="matrix( 0.9905242919921875, 0.056640625, -0.05242919921875, 0.9168853759765625, -94.35,-77.55) ">
<g transform="matrix( 1, 0, 0, 1, 0,0) ">
<use xlink:href="#Symbol_121_0_Layer0_0_FILL"/>
</g>
</g>
</g>

<g transform="matrix( 0.402374267578125, 0.231781005859375, -0.248504638671875, 0.431427001953125, 291.1,123.85) ">
<g transform="matrix( 1, 0, 0, 1, -23.65,-19.2) ">
<g transform="matrix( 1, 0, 0, 1, 0,0) ">
<use xlink:href="#Symbol_121_0_Layer0_0_FILL"/>
</g>
</g>
</g>

<g transform="matrix( 0.48968505859375, -0.555389404296875, 0.3050994873046875, 0.2690277099609375, 261.85,194.3) ">
<g transform="matrix( 1, 0, 0, 1, -23.65,-19.2) ">
<g transform="matrix( 1, 0, 0, 1, 0,0) ">
<use xlink:href="#Symbol_121_0_Layer0_0_FILL"/>
</g>
</g>
</g>

<g transform="matrix( 0.1923065185546875, -0.237213134765625, 0.28668212890625, 0.232421875, 251.75,169.15) ">
<g transform="matrix( 1, 0, 0, 1, -23.65,-19.2) ">
<g transform="matrix( 1, 0, 0, 1, 0,0) ">
<use xlink:href="#Symbol_121_0_Layer0_0_FILL"/>
</g>
</g>
</g>

<g transform="matrix( 0.558441162109375, -0.0392913818359375, 0.3832550048828125, 0.3543243408203125, 221.95,140.4) ">
<g transform="matrix( 1, 0, 0, 1, -23.65,-19.2) ">
<g transform="matrix( 1, 0, 0, 1, 0,0) ">
<use xlink:href="#Symbol_121_0_Layer0_0_FILL"/>
</g>
</g>
</g>
</g>
</g>
</svg>
