
<svg xmlns="http://www.w3.org/2000/svg" version="1.1" xmlns:xlink="http://www.w3.org/1999/xlink" preserveAspectRatio="none" x="0px" y="0px" width="325px" height="525px" viewBox="0 0 325 525">
<defs>
<g id="Symbol_22_5_Layer1_0_FILL">
<path fill="#000000" stroke="none" d="
M 108.8 95.85
Q 110.8 94.65 110.3 93.7 109.9 92.95 108.3 92.8 103.45 92.2 96.9 92.55 89.25 93.2 85.45 93.5 78.15 94.1 64.9 94.45 64.45 94.45 63.95 94.45 56.55 94.65 51.2 94.85 56.85 91.95 62.85 88.6 63.8 88 64.9 87.4 68.15 85.55 72.35 83 77.95 79.65 85.2 75.1 93.4 70.05 97.6 66.95 98.25 66.45 98.8 66.05 100.9 64.3 100.05 63.2 99.2 62.05 96.3 62.8
L 26.45 81.95 26.45 83 23.35 83
Q 22.2 83.7 22.45 84.6 22.55 85.1 23.1 85.5 23.7 85.85 24.45 85.9 25.25 85.95 26.45 85.65 26.75 85.6 27.15 85.5 31.7 84.25 36.25 83 50.65 79 64.9 74.85 78.05 71 91.05 66.95 80 73.9 64.9 82.75 64.7 82.9 64.45 83 58.7 86.35 52.4 89.95 47.15 92.95 44.3 94.2 42.75 94.9 41.85 95.3 39.6 95.55 38.6 96.15 37.75 96.7 37.55 97.55 37.45 97.8 37.45 98.05 37.35 98.15 37.25 98.25 36.65 98.85 36.6 99.6 36.45 100.4 37.25 100.7 38.05 101 39.2 100.4 40 100.05 40.8 99.75 40.85 99.75 40.95 99.75 53 99.45 64.9 98.85 83.45 97.75 101.65 95.7 92.55 99.6 73.25 105.25 68.8 106.55 64.9 107.8 51.8 111.8 44.8 114.8 42.45 115.7 41.75 116.85 40.9 118.25 42.2 120.45 42.85 120.35 43.55 120.25
L 51.05 117.5
Q 50.8 117.5 50.65 117.5 57.4 114.5 64.9 112.15 66.1 111.8 67.4 111.4 70 110.6 75.75 109.05 81.2 107.55 84.05 106.65 97.25 102.6 108.8 95.85 Z"/>
</g>

<g id="barren_prop_17_Layer1_0_FILL">
<path fill="#000000" stroke="none" d="
M 83 277.1
L 114.8 288.85 118.85 340.4 85.8 329.6
Q 91.0310546875 339.1966796875 103.25 341.55 118.35 344.2 133.4 341.8 148.4 339.4 161.6 331.9
L 156.7 285.25
Q 155.1 283.55 153.45 281.95 141.8 270.4 125.5 267.6
L 79.85 273.7
Q 79.1 294.3 81.4 314.7 81.9947265625 320.053125 83.75 324.95
L 83 277.1
M 115.75 286.35
L 90.75 275.85 123 270.7 126.05 272.4 138.6 277.15 119.25 282.4 143 278.8 148.55 281.55 115.75 286.35
M 117.25 288.9
L 152.7 283.05 158.25 330.15 122.95 339.6
Q 116.55 326.85 118.45 312.45 119.2 306.85 118.55 301.1 118.35 299.05 118.15 297 117.7 292.95 117.25 288.9
M 149.05 316.25
Q 152.3 310.6 150.75 304.3 150.2 302.1 149.45 300.05 148.9 298.55 148.35 297.1 147.75 295.5 147.2 293.95
L 146.7 297.8 135.25 303.8 146.95 300.15 149.05 316.25
M 151 284.6
L 148.55 288 146.9 291.6 151 284.6
M 127.35 295.2
L 123.5 293.2
Q 128.35 304.45 127.35 316.7 127 321.25 126.3 325.8 125.8 329.05 126.7 332.25
L 129.7 324.4 145.9 314.8 129.1 320.45 128.85 311.45 134.2 310.35 128.5 310.4 127.35 295.2
M 110.2 324.5
L 112.25 330.25 108.45 296.85 110.4 322.6 92.95 316.35 110.2 324.5
M 104.6 329.5
L 108.6 330.25 89.3 322.4 104.6 329.5
M 89.45 304.95
L 87.1 307.2 85.1 326.4 87.75 322.85 88.55 308.3 99.15 310.15 89.45 304.95
M 100.8 291.35
L 108.85 293.7 113.5 289.15 108.35 291.45 86.5 282.95 100.8 291.35 Z"/>

<path fill="#70513A" stroke="none" d="
M 152.7 283.05
L 117.25 288.9
Q 117.7 292.95 118.15 297 118.35 299.05 118.55 301.1 119.2 306.85 118.45 312.45 116.55 326.85 122.95 339.6
L 158.25 330.15 152.7 283.05
M 123.5 293.2
L 127.35 295.2 128.5 310.4 134.2 310.35 128.85 311.45 129.1 320.45 145.9 314.8 129.7 324.4 126.7 332.25
Q 125.8 329.05 126.3 325.8 127 321.25 127.35 316.7 128.35 304.45 123.5 293.2
M 148.55 288
L 151 284.6 146.9 291.6 148.55 288
M 150.75 304.3
Q 152.3 310.6 149.05 316.25
L 146.95 300.15 135.25 303.8 146.7 297.8 147.2 293.95
Q 147.75 295.5 148.35 297.1 148.9 298.55 149.45 300.05 150.2 302.1 150.75 304.3 Z"/>

<path fill="#AF8362" stroke="none" d="
M 90.75 275.85
L 115.75 286.35 148.55 281.55 143 278.8 119.25 282.4 138.6 277.15 126.05 272.4 123 270.7 90.75 275.85
M 114.8 288.85
L 83 277.1 83.75 324.95
Q 84.2515625 326.248046875 84.8 327.5 85.2697265625 328.5865234375 85.8 329.6
L 118.85 340.4 114.8 288.85
M 108.85 293.7
L 100.8 291.35 86.5 282.95 108.35 291.45 113.5 289.15 108.85 293.7
M 87.1 307.2
L 89.45 304.95 99.15 310.15 88.55 308.3 87.75 322.85 85.1 326.4 87.1 307.2
M 108.6 330.25
L 104.6 329.5 89.3 322.4 108.6 330.25
M 112.25 330.25
L 110.2 324.5 92.95 316.35 110.4 322.6 108.45 296.85 112.25 330.25 Z"/>
</g>

<g id="Symbol_25_0_Layer1_0_FILL">
<path fill="#000000" stroke="none" d="
M -7.8 -64.7
Q -9.2 -46.6 -10.3 -28.5 -11.5 -8.9 -12.15 10.75 -12.85 30.7 -12.9 50.55 -12.95 64 -11.3 77.35 -9.45 92.25 6.7 86.45 8.85 85.75 9.45 83.75 13.85 69.1 12.65 53 13.85 33.3 11.05 13.8 5.3 -26.45 -7.8 -64.7
M -7.35 -6.05
Q -7.55 -31 -6.2 -55.95 -2.75 -40.65 1.05 -25.4 5.5 -7.65 6.4 10.2
L 2.15 3.75 1.8 3.9
Q 0.45 14.7 1.55 25.65 1.1 24.15 0.8 22.6 -0.7 14.4 -4.2 6.6
L -4.8 6.4
Q -5.7 6.15 -6 4.95 -7.3 -0.4 -7.35 -6.05
M -5.05 11.35
L -4.15 9.9 0.9 26.55 1.8 27.2 2.75 6.75 6.55 12.6 7.5 11.15 8.95 22.05 9.45 28.95 9.45 40.7
Q 9.3 57 9.45 73.25 9.6 85.3 -1.25 84.05 -4.15 83.95 -6.5 82.3 -7.45 81.65 -7.55 80.85 -9.85 61.2 -9.35 41.2
L -9.2 10.45 -8.9 -1.5 -5.05 11.35
M 3.15 -1.4
Q 3.05 -2.45 2.95 -3.5 1.7 -16.05 -1.75 -27.9
L -0.6 -19.4
Q 0 -9.65 3.15 -1.4 Z"/>

<path fill="#70513A" stroke="none" d="
M 9.45 73.25
Q 9.3 57 9.45 40.7
L -1.25 84.05
Q 9.6 85.3 9.45 73.25
M 0.25 49.1
Q 1.1 47.75 1.85 46.4 6.45 37.95 9.45 28.95
L 8.95 22.05
Q 4.95 35.75 0.25 49.1
M -9.35 41.2
Q -8.8 44.25 -8.25 47.35 -7.75 50.4 -7.35 53.45 -6.45 59.8 -4.3 65.65 -3.85 66.85 -3.3 68.1
L -7.9 23.8 -0.4 39.45 -9.2 10.45 -9.35 41.2 Z"/>

<path fill="#CDC2A6" stroke="none" d="
M 1.65 28
L 1.8 27.2 0.9 26.55 1.65 28
M -6.2 -55.95
Q -7.55 -31 -7.35 -6.05 -7.3 -0.4 -6 4.95 -5.7 6.15 -4.8 6.4
L -4.7 5.4 -4.2 6.6
Q -0.7 14.4 0.8 22.6 1.1 24.15 1.55 25.65 0.45 14.7 1.8 3.9
L 1.85 3.35 2.15 3.75 6.4 10.2
Q 5.5 -7.65 1.05 -25.4 -2.75 -40.65 -6.2 -55.95
M 2.95 -3.5
Q 3.05 -2.45 3.15 -1.4 0 -9.65 -0.6 -19.4
L -1.75 -27.9
Q 1.7 -16.05 2.95 -3.5 Z"/>

<path fill="#AF8362" stroke="none" d="
M -4.15 9.9
L -5.05 11.35 -8.9 -1.5 -9.2 10.45 -0.4 39.45 -7.9 23.8 -3.3 68.1
Q -3.85 66.85 -4.3 65.65 -6.45 59.8 -7.35 53.45 -7.75 50.4 -8.25 47.35 -8.8 44.25 -9.35 41.2 -9.85 61.2 -7.55 80.85 -7.45 81.65 -6.5 82.3 -4.15 83.95 -1.25 84.05
L 9.45 40.7 9.45 28.95
Q 6.45 37.95 1.85 46.4 1.1 47.75 0.25 49.1 4.95 35.75 8.95 22.05
L 7.5 11.15 6.55 12.6 2.75 6.75 1.8 27.2 1.65 28 0.9 26.55 -4.15 9.9
M 1.8 3.9
L 2.15 3.75 1.85 3.35 1.8 3.9
M -4.8 6.4
L -4.2 6.6 -4.7 5.4 -4.8 6.4 Z"/>
</g>

<g id="Symbol_25_0_Layer0_0_FILL">
<path fill="#000000" stroke="none" d="
M 3.05 48.3
Q 7.25 47.95 10.1 44.95 16.85 37.95 11.25 30.4 9.15 31 7.05 31.4 -3.05 33.3 -11.7 27.65 -11.85 28.05 -11.95 28.5 -16.15 46.8 3.05 48.3
M 4.85 34.4
L 10.65 32.8
Q 10.8 33.65 10.95 34.55 12.35 43.5 4.4 45.2 0 46.1 -4.05 44 -12.15 40 -9.9 30.45 -9.1 31.05 -8.2 31.6 -2.2 35.35 4.85 34.4 Z"/>

<path fill="#0099FF" stroke="none" d="
M 4.4 45.2
L 4.85 34.4
Q -2.2 35.35 -8.2 31.6 -9.1 31.05 -9.9 30.45 -12.15 40 -4.05 44 0 46.1 4.4 45.2 Z"/>

<path fill="#0033FF" stroke="none" d="
M 10.65 32.8
L 4.85 34.4 4.4 45.2
Q 12.35 43.5 10.95 34.55 10.8 33.65 10.65 32.8 Z"/>
</g>
</defs>

<g transform="matrix( 1.356475830078125, 0, 0, 1.356475830078125, 158,304.2) ">
<g transform="matrix( 1, 0, 0, 1, 0,0) ">
<use xlink:href="#Symbol_22_5_Layer1_0_FILL"/>
</g>

<g transform="matrix( -1.055267333984375, 0, 0, 0.8574981689453125, 112.25,-160.45) ">
<g transform="matrix( 1, 0, 0, 1, 0,0) ">
<use xlink:href="#barren_prop_17_Layer1_0_FILL"/>
</g>
</g>

<g transform="matrix( 0.4174652099609375, 0.7875213623046875, -0.9691619873046875, 0.3392333984375, 37.75,90.85) ">
<g transform="matrix( 1, 0, 0, 1, 0,0) ">
<use xlink:href="#Symbol_25_0_Layer1_0_FILL"/>
</g>

<g transform="matrix( 1, 0, 0, 1, 0,0) ">
<use xlink:href="#Symbol_25_0_Layer0_0_FILL"/>
</g>
</g>

<g transform="matrix( 0.157958984375, 0.8478240966796875, -1.043365478515625, 0.12835693359375, 41.05,108.9) ">
<g transform="matrix( 1, 0, 0, 1, 0,0) ">
<use xlink:href="#Symbol_25_0_Layer1_0_FILL"/>
</g>

<g transform="matrix( 1, 0, 0, 1, 0,0) ">
<use xlink:href="#Symbol_25_0_Layer0_0_FILL"/>
</g>
</g>
</g>
</svg>
