
<svg xmlns="http://www.w3.org/2000/svg" version="1.1" xmlns:xlink="http://www.w3.org/1999/xlink" preserveAspectRatio="none" x="0px" y="0px" width="1000px" height="1000px" viewBox="0 0 1000 1000">
<defs>
<g id="Skeleton_Skeleton_shield_0_Layer0_0_FILL">
<path fill="#000000" stroke="none" d="
M 31.25 -26.7
Q 17.75 -26.4 16.8 -25.4 16.25 -24.85 6.05 -5.1 -4.35 15 -4.4 16.3 -4.5 19.6 1.65 44.05 7.65 67.75 8.7 69.9 11.85 76.2 19.45 76.7 23 76.95 36.85 72 50.35 67.2 50.35 66.35 50.9 64.2 64.3 5.65 64.45 4.9 56.35 -10.45 48.3 -25.75 47.8 -25.95 44.85 -27 31.25 -26.7
M 16.05 -15.45
Q 17.25 -17.45 19.1 -18.5 20 -19.05 21.05 -19.3 22.05 -19.6 23.1 -19.65 20.85 -16.05 18.65 -12.35 14.95 -6.05 11.5 0.45 8.35 6.35 5.45 12.35
L 1.6 13.35
Q 1.6 12.45 1.9 11.7 8.25 -2.15 16.05 -15.45
M 25.05 -13.65
Q 30.15 -19.15 37.6 -20.75
L 41.9 -21.35 49.8 -7.05
Q 51.4 -4.2 53.15 3.15 54.85 10.4 54.45 12.2
L 47.3 41.9 43.35 56.95 43.05 58.05
Q 43.05 61.75 40.7 64.35 38.4 67 35.1 67
L 21.95 70.65 21.25 67.8 15.05 42.25 10.05 20.75
Q 10.1 17.95 10.2 15.2 10.5 8.2 14 2.1 16.05 -1.1 18.05 -4.35 21.05 -9.35 25.05 -13.65
M 3.05 21.65
Q 2.65 19.65 2.3 17.7 1.95 15.7 1.65 13.75
L 5.35 14.95 6 19.45 18.05 69.15 13.8 67.8
Q 12.2 60.9 10.55 54 8.6 45.9 6.7 37.8 4.8 29.85 3.05 21.65
M 45.5 12.95
Q 46.8 10.05 43.85 8.8
L 37.85 9.75
Q 37.7 5.25 37.25 0.95 36.9 -2.2 33.75 -2.5
L 30.15 11.75
Q 28.05 12.15 24.05 14.25 18.9 16.95 18.05 19.3
L 19.9 21.65
Q 25.05 22.5 29.65 20.1 29.6 22.1 29.05 53.1 29.05 58.95 33.9 62.1
L 34.75 61.7
Q 34.95 60.6 35.15 59.55 39.45 38.9 37.7 17.75 38.95 17.3 45.5 12.95
M 43.3 11.05
L 43.5 12.25
Q 41.9 13.5 34.2 16.1 26 18.85 22.45 19
L 21.5 18.2
Q 36.7 12.35 43.3 11.05
M 32.65 5.3
L 33.2 4.95 34.7 2.5 34.85 10.5 32.95 10.95 32.65 5.3
M 32.4 19.5
L 34.65 18.75
Q 35.4 30.2 36.2 41.75 36.85 50.55 33.6 58.6 30.85 47.85 31.55 42.8
L 32.4 19.5 Z"/>

<path fill="#35303F" stroke="none" d="
M 2.3 17.7
Q 2.65 19.65 3.05 21.65 4.8 29.85 6.7 37.8 8.6 45.9 10.55 54 12.2 60.9 13.8 67.8
L 18.05 69.15 6 19.45 5.35 14.95 1.65 13.75
Q 1.95 15.7 2.3 17.7
M 39.45 61
Q 35.8 64.4 35.1 67 38.4 67 40.7 64.35 43.05 61.75 43.05 58.05 42.35 58.3 39.45 61
M 20.85 46.8
Q 19.25 42.8 15.05 42.25
L 21.25 67.8
Q 25.45 61.45 25.9 59.8 27.1 55.4 22.7 54.05 22.2 50.15 20.85 46.8
M 14.75 9.5
Q 16.3 8.85 16.6 7.1 17.2 3.65 14 2.1 10.5 8.2 10.2 15.2 10.1 17.95 10.05 20.75 11.65 19.05 13.25 17.35 16.35 13.95 14.75 9.5
M 47.3 41.9
Q 46.6 42.9 46 43.9 42.2 49.9 43.35 56.95
L 47.3 41.9
M 37.6 -20.75
Q 38 -19.4 38.55 -18.05 40.3 -13.75 45 -14.45 44.75 -12.8 45.05 -11.2 45.8 -7.25 49.8 -7.05
L 41.9 -21.35 37.6 -20.75
M 26.2 38.3
Q 25.2 37.15 23.75 37.15 22.3 37.15 21.25 38.3 20.25 39.45 20.25 41.05 20.25 42.65 21.25 43.8 21.8 44.35 23.75 44.35 25.75 44.35 26.2 43.8 26.75 43.25 26.75 41.05 26.75 38.85 26.2 38.3
M 21.95 11.85
Q 21.95 10.75 21.1 10 20.3 9.25 19.1 9.25 18.5 9.25 17.4 10.25 16.25 11.3 16.25 11.85 16.25 12.4 17.4 13.45 18.5 14.45 19.1 14.45 19.7 14.45 20.85 13.45 21.95 12.4 21.95 11.85
M 47 37.05
Q 47 35.9 46.6 35.55 45.9 34.95 44.9 34.95 43.9 34.95 43.15 35.55 42.85 35.9 42.85 37.05 42.85 38.2 43.15 38.5 43.55 38.85 44.9 38.85 46.3 38.85 46.6 38.5 47 38.2 47 37.05
M 37.8 -8.8
Q 38.5 -8.1 39.45 -8.1 39.95 -8.1 40.85 -9 41.8 -9.9 41.8 -10.4 41.8 -11.35 41.1 -12.05 40.4 -12.7 39.45 -12.7 38.5 -12.7 37.8 -12.05 37.45 -11.65 37.45 -10.35 37.45 -9.1 37.8 -8.8
M 19.1 -18.5
Q 17.25 -17.45 16.05 -15.45 8.25 -2.15 1.9 11.7 1.6 12.45 1.6 13.35
L 5.45 12.35
Q 8.35 6.35 11.5 0.45 14.95 -6.05 18.65 -12.35 20.85 -16.05 23.1 -19.65 22.05 -19.6 21.05 -19.3 20 -19.05 19.1 -18.5 Z"/>

<path fill="#78747F" stroke="none" d="
M 37.6 -20.75
Q 30.15 -19.15 25.05 -13.65 21.05 -9.35 18.05 -4.35 16.05 -1.1 14 2.1 17.2 3.65 16.6 7.1 16.3 8.85 14.75 9.5 16.35 13.95 13.25 17.35 11.65 19.05 10.05 20.75
L 15.05 42.25
Q 19.25 42.8 20.85 46.8 22.2 50.15 22.7 54.05 27.1 55.4 25.9 59.8 25.45 61.45 21.25 67.8
L 21.95 70.65 35.1 67
Q 35.8 64.4 39.45 61 42.35 58.3 43.05 58.05
L 43.35 56.95
Q 42.2 49.9 46 43.9 46.6 42.9 47.3 41.9
L 54.45 12.2
Q 54.85 10.4 53.15 3.15 51.4 -4.2 49.8 -7.05 45.8 -7.25 45.05 -11.2 44.75 -12.8 45 -14.45 40.3 -13.75 38.55 -18.05 38 -19.4 37.6 -20.75
M 39.45 -8.1
Q 38.5 -8.1 37.8 -8.8 37.45 -9.1 37.45 -10.35 37.45 -11.65 37.8 -12.05 38.5 -12.7 39.45 -12.7 40.4 -12.7 41.1 -12.05 41.8 -11.35 41.8 -10.4 41.8 -9.9 40.85 -9 39.95 -8.1 39.45 -8.1
M 43.85 8.8
Q 46.8 10.05 45.5 12.95 38.95 17.3 37.7 17.75 39.45 38.9 35.15 59.55 34.95 60.6 34.75 61.7
L 33.9 62.1
Q 29.05 58.95 29.05 53.1 29.6 22.1 29.65 20.1 25.05 22.5 19.9 21.65
L 18.05 19.3
Q 18.9 16.95 24.05 14.25 28.05 12.15 30.15 11.75
L 33.75 -2.5
Q 36.9 -2.2 37.25 0.95 37.7 5.25 37.85 9.75
L 43.85 8.8
M 46.6 35.55
Q 47 35.9 47 37.05 47 38.2 46.6 38.5 46.3 38.85 44.9 38.85 43.55 38.85 43.15 38.5 42.85 38.2 42.85 37.05 42.85 35.9 43.15 35.55 43.9 34.95 44.9 34.95 45.9 34.95 46.6 35.55
M 21.1 10
Q 21.95 10.75 21.95 11.85 21.95 12.4 20.85 13.45 19.7 14.45 19.1 14.45 18.5 14.45 17.4 13.45 16.25 12.4 16.25 11.85 16.25 11.3 17.4 10.25 18.5 9.25 19.1 9.25 20.3 9.25 21.1 10
M 23.75 37.15
Q 25.2 37.15 26.2 38.3 26.75 38.85 26.75 41.05 26.75 43.25 26.2 43.8 25.75 44.35 23.75 44.35 21.8 44.35 21.25 43.8 20.25 42.65 20.25 41.05 20.25 39.45 21.25 38.3 22.3 37.15 23.75 37.15 Z"/>

<path fill="#CC66FF" stroke="none" d="
M 34.65 18.75
L 32.4 19.5 31.55 42.8
Q 30.85 47.85 33.6 58.6 36.85 50.55 36.2 41.75 35.4 30.2 34.65 18.75
M 33.2 4.95
L 32.65 5.3 32.95 10.95 34.85 10.5 34.7 2.5 33.2 4.95
M 43.5 12.25
L 43.3 11.05
Q 36.7 12.35 21.5 18.2
L 22.45 19
Q 26 18.85 34.2 16.1 41.9 13.5 43.5 12.25 Z"/>
</g>
</defs>

<g transform="matrix( 0.69915771484375, 0, 0, 0.69915771484375, 428.45,366.1) ">
<g transform="matrix( -0.0342864990234375, -0.9993743896484375, 0.9993743896484375, -0.0342864990234375, 74.65,222.15) ">
<g transform="matrix( 1, 0, 0, 1, 0,0) ">
<use xlink:href="#Skeleton_Skeleton_shield_0_Layer0_0_FILL"/>
</g>
</g>
</g>
</svg>
