
<svg xmlns="http://www.w3.org/2000/svg" version="1.1" xmlns:xlink="http://www.w3.org/1999/xlink" preserveAspectRatio="none" x="0px" y="0px" width="1000px" height="1000px" viewBox="0 0 1000 1000">
<defs>
<g id="Ground_Break_debri_shrapnal_4G_1_Layer0_0_FILL">
<path fill="#000000" stroke="none" d="
M 163.2 -76.95
L 69.65 -95.85 -75.15 -36.85 -63.05 143.1 128.75 186.45 216.15 144.75 219.15 0.4 163.2 -76.95
M 68.9 -60.65
L 145.95 -40.25 201.3 24.85 178.95 115.85 176.8 117.05 121.35 148.45 -36.65 130.25 -47.8 -24.95 68.9 -60.65 Z"/>

<path fill="#BD793E" stroke="none" d="
M 53.35 73.6
Q 68.8705078125 40.9560546875 87.1 8.05
L -9.25 -6.1 -36.65 130.25 121.35 148.45
Q 97.3 128.2 53.35 73.6
M 176.8 117.05
L 178.95 115.85 201.3 24.85 114 12
Q 113.6 12.85 101.8 29.55 91.6 44 90.25 48.45 139.01953125 77.223046875 176.8 117.05 Z"/>

<path fill="#DEAA7E" stroke="none" d="
M 90.25 48.45
Q 91.6 44 101.8 29.55 113.6 12.85 114 12
L 87.1 8.05
Q 68.8705078125 40.9560546875 53.35 73.6 97.3 128.2 121.35 148.45
L 176.8 117.05
Q 139.01953125 77.223046875 90.25 48.45 Z"/>

<path fill="#833C00" stroke="none" d="
M 145.95 -40.25
L 68.9 -60.65 -47.8 -24.95 -36.65 130.25 -9.25 -6.1 87.1 8.05 114 12 201.3 24.85 145.95 -40.25 Z"/>
</g>
</defs>

<g transform="matrix( 0.9910125732421875, 0, 0, 0.9910125732421875, 311.25,307.95) ">
<g transform="matrix( 1.3134765625, 0, 0, 1.3134765625, 3.85,-203.25) ">
<g transform="matrix( -0.1371307373046875, 0.0440826416015625, -0.0440826416015625, -0.1371307373046875, 153.95,300.75) ">
<g transform="matrix( 1, 0, 0, 1, 0,0) ">
<use xlink:href="#Ground_Break_debri_shrapnal_4G_1_Layer0_0_FILL"/>
</g>
</g>
</g>
</g>
</svg>
