
<svg xmlns="http://www.w3.org/2000/svg" version="1.1" xmlns:xlink="http://www.w3.org/1999/xlink" preserveAspectRatio="none" x="0px" y="0px" width="1000px" height="1000px" viewBox="0 0 1000 1000">
<defs>
<g id="Ground_Break_debri_shrapnal_blow_up_piecesG_2_Layer0_0_FILL">
<path fill="#B89A80" fill-opacity="0.26666666666666666" stroke="none" d="
M 1374.25 -567.65
Q 1010.6 -933.8 496.35 -933.8 -17.85 -933.8 -381.5 -567.65 -745.15 -201.55 -745.15 315.95 -745.15 441.3 -723.85 557.8
L -716.9 557.8
Q -643.8 733.8 -381.5 869.35 -17.85 1057.45 496.35 1057.45 1010.6 1057.45 1374.25 869.35 1636.5 733.8 1709.7 557.8
L 1716.7 557.8
Q 1737.95 441.3 1737.95 315.95 1737.95 -201.55 1374.25 -567.65 Z"/>
</g>
</defs>

<g transform="matrix( 0.9910125732421875, 0, 0, 0.9910125732421875, 311.25,307.95) ">
<g transform="matrix( 1.3134765625, 0, 0, 1.3134765625, 3.85,-203.25) ">
<g transform="matrix( 0.13201904296875, 0, 0, 0.13201904296875, 79,184.45) ">
<g transform="matrix( 1, 0, 0, 1, 0,0) ">
<use xlink:href="#Ground_Break_debri_shrapnal_blow_up_piecesG_2_Layer0_0_FILL"/>
</g>
</g>
</g>
</g>
</svg>
