
<svg xmlns="http://www.w3.org/2000/svg" version="1.1" xmlns:xlink="http://www.w3.org/1999/xlink" preserveAspectRatio="none" x="0px" y="0px" width="1000px" height="1000px" viewBox="0 0 1000 1000">
<defs>
<g id="Ground_Break_debri_shrapnal_4G_0_Layer0_0_FILL">
<path fill="#000000" stroke="none" d="
M 163.2 -76.95
L 14.55 -86.8 -67.65 0.65 -63.05 143.1 104.95 240.4 225.55 127.6 219.15 0.4 163.2 -76.95
M 18.45 -60.2
L 145.95 -40.25 201.3 24.85 205.55 108 121.55 186.65 121.55 186.65 94.75 211.75 63.4 193 -36.65 130.25 -57.6 3.25 18.45 -60.2 Z"/>

<path fill="#DEAA7E" stroke="none" d="
M 76.4 150.2
Q 66.15 179.35 63.4 193
L 94.75 211.75 121.55 186.65 121.55 186.65
Q 113.762890625 113.8484375 43.2 57.3 57.9 94.8 86.85 122.25 85.15 125.25 76.4 150.2 Z"/>

<path fill="#BD793E" stroke="none" d="
M 205.55 108
L 201.3 24.85 44.3 28.6 -36.65 130.25 63.4 193
Q 66.15 179.35 76.4 150.2 85.15 125.25 86.85 122.25 57.9 94.8 43.2 57.3 113.762890625 113.8484375 121.55 186.65
L 205.55 108 Z"/>

<path fill="#833C00" stroke="none" d="
M 145.95 -40.25
L 18.45 -60.2 -57.6 3.25 -36.65 130.25 44.3 28.6 201.3 24.85 145.95 -40.25 Z"/>
</g>
</defs>

<g transform="matrix( 0.9910125732421875, 0, 0, 0.9910125732421875, 311.25,307.95) ">
<g transform="matrix( 1.3134765625, 0, 0, 1.3134765625, 3.85,-203.25) ">
<g transform="matrix( -0.1437835693359375, -0.0085601806640625, 0.0085601806640625, -0.1437835693359375, 153.55,307.25) ">
<g transform="matrix( 1, 0, 0, 1, 0,0) ">
<use xlink:href="#Ground_Break_debri_shrapnal_4G_0_Layer0_0_FILL"/>
</g>
</g>
</g>
</g>
</svg>
