
<svg xmlns="http://www.w3.org/2000/svg" version="1.1" xmlns:xlink="http://www.w3.org/1999/xlink" preserveAspectRatio="none" x="0px" y="0px" width="1000px" height="1000px" viewBox="0 0 1000 1000">
<defs>
<g id="Catapult_bumper_0_Layer0_0_FILL">
<path fill="#000000" stroke="none" d="
M 41.75 -0.1
Q 39.3 -2.35 36 -3.1 23.2 -6.25 12.15 0.9 9.25 2.7 6.9 5.55 5.15 7.55 3.7 9.75 0.55 14.5 -1.05 20.1 -2.65 25.7 -3.25 31.45
L 0.15 35
Q -2.6 38.05 -2.5 42.25 -2.2 53.25 -0.8 64.1 0.55 74.4 2.05 84.7 3.6 95.25 6.75 105.25 9.7 114.65 13.55 123.75 18.5 126.6 23.75 128.6 30.45 131.25 42.1 130.1 62.2 110.85 80.9 84.65 81.3 84.1 81.4 83.45 82.05 79.35 82.5 75.25 82.8 72.7 81.3 70.45 79.55 67.9 76.55 67.7 67.15 45.3 57.85 22.8 52.3 9.5 41.75 -0.1
M 48.35 27.35
Q 45.6 21.3 41.95 15.7 38.75 10.8 32.85 11.2 28.35 11.7 25.45 15.05 24.65 16 22.8 22.55 20.85 29.4 20.6 32.7 18.9 57.1 26.6 80.3
L 30.2 90.7
Q 30.25 90.85 59.75 76.5
L 30.85 96.5
Q 30.35 96.2 27.5 90.65 24.4 84.7 23.3 81.4 18.65 67.65 17.35 53.15 16.95 48.9 17.35 37.2 17.8 24.4 18.85 20.15 19.6 17.1 24.3 11.3 28.85 5.65 30.65 5.1 31.85 4.75 35.1 5.9 38.05 6.95 39.1 7.75 46.25 12.95 50.5 20.8 53.95 27.1 69.6 74.8
L 74.2 75.55
Q 76 79 73.45 82.05
L 41 120.9 40.65 105.55
Q 47.55 100.6 71.1 77.95 71.15 77.85 71.25 77.75 70.45 78.25 54.75 90.9 39.25 103.35 38.95 103.65
L 35.5 103.55 50.65 90.5 33 102.6 32.4 98.5
Q 48.45 90.4 61.6 78.15
L 66.5 73.5
Q 66.6 73.4 64.55 73.5 58.35 49.8 48.35 27.35
M 25.7 3.15
Q 23.75 4.85 22.1 6.8 19.6 9.8 16.7 21.75 14 32.7 13.95 37.35 13.9 43.4 16.4 61.5 18.95 79.65 20.7 85.6 21.7 88.95 24.7 94 28 99.5 29.45 99.4
L 32 106.1 37.85 106.75 38.8 121.1
Q 38.55 121 17.15 120.85 13.75 114.45 11.15 107.8 7.55 98.4 4.85 75.15 2.75 56.9 2.85 50.65 2.9 42.65 7.65 36.6 7.7 35.75 5.85 33.75 4.35 32.2 3.65 31.7 4.75 25.65 7 19.95 12.2 6.6 25.7 3.15
M 26.2 22.4
Q 28.6 15.7 29.4 15.15 30.15 16.05 31.6 18.15 33.1 20.25 33.35 20.8 44.25 45.25 49.15 71.4
L 29.75 83.35
Q 28.9 79.65 27.2 70.4 25.2 59.25 24.95 55.1 24.25 44.45 23.75 33.8 23.55 29.9 26.2 22.4
M 32.15 13.95
Q 32.85 13.8 37.75 18 42.7 22.2 43.25 23.4 54.3 47.15 61.1 72.2
L 31.25 88.45 30.7 86.65
Q 41.4 81.95 49.75 73.6
L 52.2 74
Q 50.65 58.65 48.65 51.75 47.35 47.1 39.8 30.35 32.65 14.35 32.15 13.95 Z"/>

<path fill="#6B533B" stroke="none" d="
M 37.75 18
Q 32.85 13.8 32.15 13.95 32.65 14.35 39.8 30.35 47.35 47.1 48.65 51.75 50.65 58.65 52.2 74
L 49.75 73.6
Q 41.4 81.95 30.7 86.65
L 31.25 88.45 61.1 72.2
Q 54.3 47.15 43.25 23.4 42.7 22.2 37.75 18 Z"/>

<path fill="#CC9966" stroke="none" d="
M 22.1 6.8
Q 23.75 4.85 25.7 3.15 12.2 6.6 7 19.95 4.75 25.65 3.65 31.7 4.35 32.2 5.85 33.75 7.7 35.75 7.65 36.6 2.9 42.65 2.85 50.65 2.75 56.9 4.85 75.15 7.55 98.4 11.15 107.8 13.75 114.45 17.15 120.85 38.55 121 38.8 121.1
L 37.85 106.75 32 106.1 29.45 99.4
Q 28 99.5 24.7 94 21.7 88.95 20.7 85.6 18.95 79.65 16.4 61.5 13.9 43.4 13.95 37.35 14 32.7 16.7 21.75 19.6 9.8 22.1 6.8
M 41.95 15.7
Q 45.6 21.3 48.35 27.35 58.35 49.8 64.55 73.5 66.6 73.4 66.5 73.5
L 61.6 78.15
Q 48.45 90.4 32.4 98.5
L 33 102.6 50.65 90.5 35.5 103.55 38.95 103.65
Q 39.25 103.35 54.75 90.9 70.45 78.25 71.25 77.75 71.15 77.85 71.1 77.95 47.55 100.6 40.65 105.55
L 41 120.9 73.45 82.05
Q 76 79 74.2 75.55
L 69.6 74.8
Q 53.95 27.1 50.5 20.8 46.25 12.95 39.1 7.75 38.05 6.95 35.1 5.9 31.85 4.75 30.65 5.1 28.85 5.65 24.3 11.3 19.6 17.1 18.85 20.15 17.8 24.4 17.35 37.2 16.95 48.9 17.35 53.15 18.65 67.65 23.3 81.4 24.4 84.7 27.5 90.65 30.35 96.2 30.85 96.5
L 59.75 76.5
Q 30.25 90.85 30.2 90.7
L 26.6 80.3
Q 18.9 57.1 20.6 32.7 20.85 29.4 22.8 22.55 24.65 16 25.45 15.05 28.35 11.7 32.85 11.2 38.75 10.8 41.95 15.7 Z"/>
</g>
</defs>

<g transform="matrix( 0.9910125732421875, 0, 0, 0.9910125732421875, 311.25,307.95) ">
<g transform="matrix( 1.3134765625, 0, 0, 1.3134765625, 3.85,-203.25) ">
<g transform="matrix( -0.07025146484375, -0.99749755859375, -0.99749755859375, 0.07025146484375, 192.35,296.1) ">
<g transform="matrix( 1, 0, 0, 1, 0,0) ">
<use xlink:href="#Catapult_bumper_0_Layer0_0_FILL"/>
</g>
</g>
</g>
</g>
</svg>
