
<svg xmlns="http://www.w3.org/2000/svg" version="1.1" xmlns:xlink="http://www.w3.org/1999/xlink" preserveAspectRatio="none" x="0px" y="0px" width="1000px" height="1000px" viewBox="0 0 1000 1000">
<defs>
<filter id="Filter_1" x="-20%" y="-20%" width="140%" height="140%" color-interpolation-filters="sRGB">
<feColorMatrix in="SourceGraphic" type="matrix" values="0.4 0 0 0 0 0 0.4 0 0 0 0 0 0.4 0 0 0 0 0 1 0" result="result1"/>
</filter>

<g id="Symbol_28_0_Layer2_0_FILL">
<path fill="#000000" stroke="none" d="
M 39.8 1.65
Q 21.25 1.65 8.75 13.55 -3.6958984375 25.4466796875 -3.15 43.2 -2.612890625 61.0123046875 9.3 70.05 21.258203125 79.133984375 38.05 78.4 54.9017578125 77.657421875 67.35 70.45 79.84375 63.2490234375 82.15 43.95 84.5021484375 24.650390625 71.35 13.1 58.2 1.65 39.8 1.65 Z"/>
</g>

<g id="Symbol_29_0_Layer1_0_FILL">
<path fill="#000000" stroke="none" d="
M 25.9 71.7
Q 52.7134765625 78.3599609375 66.05 57.65 79.42890625 36.92890625 61.85 14.75 44.2712890625 -7.3716796875 8.25 9.2 -0.1 19.9 -0.3 33.25 -0.8541015625 65.1 25.9 71.7
M 47.4 7.1
Q 48.75 7.55 50.1 8.05 55.85 10.4 60.3 14.7 61.55 16.5 62.75 18.4 74.15 36.35 64.7 54.95
L 65.05 56.25 62.4 58.95
Q 61.65 60 60.8 60.9 46.55 76.25 26.05 69.4 26.25 68.85 26.3 67.7
L 26.3 66.6 23.1 69.05
Q 21.7 68.55 20.4 67.9 13.1 64.45 8.95 57.55 4.65 49.7 3.25 40.65
L 7.55 39.2 2.9 37.3
Q 2.9 35.4 2.95 33.5 3.2 22.45 9.45 13.5
L 14.8 16.7
Q 15.55 14.45 16.45 12.15 18.2 7.5 18.9 7.25 33.15 2.7 47.4 7.1 Z"/>

<path fill="#6D695F" stroke="none" d="
M 26.3 67.7
Q 26.25 68.85 26.05 69.4 46.55 76.25 60.8 60.9 61.65 60 62.4 58.95 57.35 64.1 50.85 66.95 40.45 71.6 29.25 69.2
L 29.1 60.75 23.1 69.05 26.3 66.6 26.3 67.7
M 18.9 7.25
Q 18.2 7.5 16.45 12.15 15.55 14.45 14.8 16.7
L 9.45 13.5
Q 3.2 22.45 2.95 33.5 2.9 35.4 2.9 37.3
L 7.55 39.2 3.25 40.65
Q 4.65 49.7 8.95 57.55
L 8.6 48.2 15.25 41.65 22.45 42.25 6 36.05
Q 11.55 20.7 12.6 18.55 20.75 22.1 21.4 22.1
L 18.8 13.15
Q 18.95 13.05 19.15 13 33.1 8.85 47.4 7.1 33.15 2.7 18.9 7.25
M 8.6 40.55
L 13.15 41.6 8.75 44.85
Q 8.65 43.85 8.55 42.8 8.4 40.7 8.6 40.55
M 60.3 14.7
Q 59.3 15.65 58.2 16.55 54.95 19.15 54.65 23.05
L 60.85 20
Q 65.3 26.05 64.8 38.15 64.55 44.25 63.35 49.05 52.35 41.45 38.9 38.7
L 46.45 45.7 64.7 54.95
Q 74.15 36.35 62.75 18.4 61.55 16.5 60.3 14.7 Z"/>

<path fill="#B89A80" stroke="none" d="
M 13.15 41.6
L 8.6 40.55
Q 8.4 40.7 8.55 42.8 8.65 43.85 8.75 44.85
L 13.15 41.6
M 50.1 8.05
Q 48.75 7.55 47.4 7.1 33.1 8.85 19.15 13 18.95 13.05 18.8 13.15
L 21.4 22.1
Q 20.75 22.1 12.6 18.55 11.55 20.7 6 36.05
L 22.45 42.25 15.25 41.65 8.6 48.2 8.95 57.55
Q 13.1 64.45 20.4 67.9 21.7 68.55 23.1 69.05
L 29.1 60.75 29.25 69.2
Q 40.45 71.6 50.85 66.95 57.35 64.1 62.4 58.95
L 65.05 56.25 64.7 54.95 46.45 45.7 38.9 38.7
Q 52.35 41.45 63.35 49.05 64.55 44.25 64.8 38.15 65.3 26.05 60.85 20
L 54.65 23.05
Q 54.95 19.15 58.2 16.55 59.3 15.65 60.3 14.7 55.85 10.4 50.1 8.05 Z"/>
</g>

<g id="Symbol_29_0_Layer0_0_FILL">
<path fill="#000000" stroke="none" d="
M 23.5 38.25
Q 25.9 51.65 39.65 49.6 46.6 48.5 45.05 41.55 39.4 16.2 23.5 38.25
M 34.35 30.45
Q 39.6 30.1 39.65 33.85 40 56.6 27.35 37.15
L 34.35 30.45 Z"/>

<path fill="#E2C6AA" stroke="none" d="
M 39.65 33.85
Q 39.6 30.1 34.35 30.45
L 27.35 37.15
Q 40 56.6 39.65 33.85 Z"/>
</g>
</defs>

<g transform="matrix( 0.9910125732421875, 0, 0, 0.9910125732421875, 311.25,307.95) ">
<g transform="matrix( 1.3134765625, 0, 0, 1.3134765625, 3.85,-203.25) ">
<g transform="matrix( 0.99407958984375, 0.1085052490234375, -0.1085052490234375, 0.99407958984375, 130.8,218) ">
<g transform="matrix( 1, 0, 0, 1, 0,0) ">
<use xlink:href="#Symbol_28_0_Layer2_0_FILL"/>
</g>

<g transform="matrix( 1, 0, 0, 1, 9.1,-5.2) ">
<g transform="matrix( 1, 0, 0, 1, 0,0) ">
<use filter="url(#Filter_1)" xlink:href="#Symbol_29_0_Layer1_0_FILL"/>
</g>

<g transform="matrix( 1, 0, 0, 1, 0,0) ">
<use filter="url(#Filter_1)" xlink:href="#Symbol_29_0_Layer0_0_FILL"/>
</g>
</g>

<g transform="matrix( 1, 0, 0, 1, 0,0) ">
<g transform="matrix( 1, 0, 0, 1, 0,0) ">
<use xlink:href="#Symbol_29_0_Layer1_0_FILL"/>
</g>

<g transform="matrix( 1, 0, 0, 1, 0,0) ">
<use xlink:href="#Symbol_29_0_Layer0_0_FILL"/>
</g>
</g>
</g>
</g>
</g>
</svg>
