
<svg xmlns="http://www.w3.org/2000/svg" version="1.1" xmlns:xlink="http://www.w3.org/1999/xlink" preserveAspectRatio="none" x="0px" y="0px" width="345px" height="325px" viewBox="0 0 345 325">
<defs>
<g id="Bone_Archer_42_Layer1_0_FILL">
<path fill="#000000" stroke="none" d="
M 80.8 122.25
L 80.75 122.25
Q 80.75 122.2 80.75 122.15 80.7 122.1 80.7 122.05 80.55 121.85 80.35 121.7 80.1 121.5 79.7 121.35 79.25 121.1 78.35 120.85 69.35 119.05 60.65 114.9 58.25 113.75 53 110.85 48.05 108.1 45.3 106.85 42.8 105.65 41.55 105.1 39.45 104.05 38.05 103.1 37.1 102.4 35.3 101 33.6 99.8 32.4 99.2 29.25 97.9 24.4 98.8 21.05 99.5 17.2 101.2 14.9 102.25 10.3 104.6 6.45 106.8 6.7 108.95 6.95 110.4 9.3 111.45 10.5 111.85 11.1 112.15 12.15 112.55 12.8 113.05 13.4 113.4 14.65 114.8 15.7 116 16.6 116.4 17.7 116.9 19.2 116.75 20.05 116.75 21.9 116.35 27.7 115.15 31.4 115.35 39.5 115.65 47.5 121.1 51.9 124.1 55.05 127.8 58.45 131.75 59.95 136.2 60.25 136.9 60.7 138.3 61.05 139.5 61.55 140.35 62.95 142.65 65.05 143.1 67.75 143.7 70.85 141.2
L 73.05 139.15
Q 74.45 137.95 75.5 137.4 77.1 136.5 79.35 136.25 81.85 136.75 83.45 137.8 84.45 138.55 85.6 139.85
L 87.5 142.05
Q 90.1 144.8 92.85 144.55 95.05 144.3 96.8 142.15 97.45 141.4 98 140.2 98.7 138.9 99.05 138.2 101.3 133.95 105.35 130.35 109.1 127 114 124.5 122.75 119.85 130.85 120.3 134.55 120.55 140.1 122.3 141.85 122.85 142.65 122.95 144.15 123.2 145.35 122.8 146.25 122.5 147.5 121.45 149 120.2 149.65 119.85 150.35 119.5 151.5 119.15 152.1 119 153.4 118.65 155.85 117.9 156.35 116.4 157 114.35 153.5 111.75 149.4 108.95 147.25 107.7 143.7 105.65 140.5 104.65 135.85 103.3 132.5 104.25 131.15 104.65 129.35 105.7 127.3 107 126.3 107.55 124.7 108.35 122.4 109.15 121.1 109.65 118.4 110.55 115.45 111.55 110.15 113.75 104.45 116.1 101.9 117.05 92.55 120.25 83.35 121.2 82.4 121.35 81.95 121.5 81.5 121.6 81.2 121.85 81 121.95 80.85 122.1 80.85 122.2 80.8 122.25 Z"/>
</g>

<g id="Bone_Archer_Bow_0_Layer0_0_FILL">
<path fill="#000000" stroke="none" d="
M 33.25 -33.6
Q 26.7 -40.25 22.2 -38.5 18.9 -37.15 17.75 -32 17.3 -29.25 17.05 -27.95 16.6 -25.55 15.9 -24.05 15.3 -22.65 12.85 -19.4 10.7 -16.6 10.2 -14.6 9.65 -12.2 10.55 -9.2 11 -7.5 12.65 -4 17.9 6.9 19.25 14.4 22.2 30.85 13.8 49.75 9.25 60.25 2.5 68.6 -4.7 77.5 -13.7 83 -15.15 83.9 -18.05 85.55 -20.55 87.05 -22.1 88.45 -26.6 92.5 -26.6 97 -26.6 102.65 -19.75 107.45
L -14.25 110.85
Q -11 112.9 -9.25 114.8 -6.3529296875 117.8708984375 -4.8 122.8 -4.815625 127.3880859375 -6.4 130.9 -7.4 133.25 -9.8 136.3
L -13.85 141.3
Q -18.75 148.05 -16.85 153.4 -15.4 157.65 -9.8 160 -7.9 160.8 -5.05 161.4 -1.75 162 -0.1 162.35 10.2 164.6 19.9 170.65 29.05 176.3 36.85 184.7 50.95 199.8 53.6 216.3 54.8 223.85 53.4 235.9 53 239.75 53.15 241.5 53.25 244.55 54.6 246.7 55.7 248.45 58.7 250.3 62.05 252.6 63.05 253.7 64.25 254.95 65.45 257.05 66.15 258.15 67.45 260.6 70.25 265.15 73.75 265.3 78.6 265.45 82.6 257.05 86.95 247.3 88.7 242.35 91.65 234.05 92.35 227.1 93.35 217.05 89.7 210.9 88.1 208.45 85 205.3 81.3 201.95 79.6 200.15 77.1 197.5 74.25 193.4 72.65 191 69.55 186.1 65.95 180.75 58.7 171.3 50.95 161.2 47.75 156.5 36.4 139.65 30.15 121.7 29.4 119.8 28.85 118.95 28.4 118.2 27.8 117.7 27.5 117.35 27 117.15 26.9 117.1 26.75 117.05 26.6580078125 117.012109375 26.55 116.95
L 26.6 116.95
Q 26.700390625 116.8654296875 26.8 116.75 27.1369140625 116.4349609375 27.4 115.95 27.7443359375 115.3478515625 27.95 114.5 28.15 113.55 28.25 111.45 28.25 92.45 33.4 72.8 34.9 67.3 38.9 55.25 42.65 43.9 44.25 37.7 45.6 32.05 46.35 29.25 47.65 24.4 49.15 21.05 50.15 18.85 52.5 14.45 54.45 10.5 55.1 7.6 56.55 0.65 52.3 -8.55 49.35 -14.9 43.85 -21.75 40.55 -25.85 33.25 -33.6
M 25.6 -28.4
Q 25.714453125 -28.83515625 25.8 -29.3 32.8 -22.4 36.5 -18 42 -11.5 45.05 -5.25 46.95 -1.25 46.9 1.55 46.7 3.85 44.95 7.5 42.1 14.05 39.2 22.6 38.737890625 23.986328125 38.1 25.95 36.9990234375 29.3958984375 35.35 34.6 34.891796875 36.1953125 34.35 37.95 31.95 46.15 28.5 57.2 28.450390625 57.3650390625 28.4 57.5 27.9587890625 58.9951171875 27.55 60.35 26.0392578125 65.47734375 24.95 69.45 23.482421875 74.766015625 22.75 78.1 19.35 92.65 18.8 107.95 18.6736328125 111.1744140625 19.15 113.25 18.5421875 114.4861328125 18.45 115.5 18.35 116.65 19.05 118.4 20 120.55 20.1 121.25 20.25 121.95 20.15 123.25 20.1 124.6 20.2 125.2 20.3 126.25 20.8 127.1 21.35 128.1 22.2 128.25 22.303125 128.263671875 22.4 128.25 27.9470703125 142.4736328125 35.95 155 39.45 160.8 48.25 172.85 55.1 182.15 60.1 189.1 66.85 198.25 69.7 202 75.3 209.15 80.15 214.35 83 217.25 83.95 219.35 84.9 222 84.45 226.35 83.6 233.3 80.5 241.25 78.45 246.6 74.15 255.4 72.2013671875 251.961328125 69.75 249 67.9703125 246.7923828125 65.9 244.85 64.25 243.25 63.9 242.9 62.85 241.7 62.4 240.5 61.55 238.45 62.15 234.3 62.266796875 233.42734375 62.35 232.55 62.540625 231.1857421875 62.65 229.85 62.9197265625 227.2568359375 63 224.85 63.3318359375 217.478125 62.3 211.85 60.65 202.4 54.8 192.9 49.95 185.05 41.9 176.7 20.15 154.4 -1.95 153.4 -4.65 153.3 -6.4 152.5 -8.75 151.5 -8.7 149.6 -8.75 148.65 -8.05 147.55 -7.65 146.95 -6.55 145.75 -2.380859375 141.3724609375 0.15 135.75 1.287890625 135.712109375 2.45 134.55 6.45 130.8 3.9 122.55 3.71484375 121.9568359375 3.5 121.35 3.5361328125 120.317578125 3.5 119.25 3.2 110.65 -1.85 108.4 -3.492578125 107.5998046875 -4.65 108.05 -8.8955078125 103.6111328125 -14.35 100.8 -15.601953125 100.129296875 -16.2 99.7 -16.241796875 99.64765625 -16.3 99.6 -17.35 98.8 -17.65 97.9 -18.25 96.1 -16.4 94.4 -15 93.1 -12.5 92.1 8.05 83.85 21.25 55.65 26.1 45.1 28.1 36.1 30.5 25.2 28.95 15.75 27.55 6.75 21.4 -5.4 19.5 -9.1 19.6 -11.35 19.65 -12.6 20.25 -14.1 20.45 -14.55 21.5 -16.6 21.8796875 -17.3345703125 22.2 -18.1 24.5126953125 -22.9349609375 25.6 -28.4 Z"/>

<path fill="#CC66FF" stroke="none" d="
M 62.35 232.55
Q 62.266796875 233.42734375 62.15 234.3 61.55 238.45 62.4 240.5 62.85 241.7 63.9 242.9 64.25 243.25 65.9 244.85 67.9703125 246.7923828125 69.75 249 71.683984375 243.13671875 72.45 238 73.6 229 70 224.6 68.85 223.25 67.3 222.7 65.55 222.05 64.3 222.95 63.45 223.6 63.05 224.75 63.03203125 224.800390625 63 224.85 62.9197265625 227.2568359375 62.65 229.85 62.540625 231.1857421875 62.35 232.55
M 25.8 -29.05
L 25.75 -29.1
Q 25.7056640625 -28.7349609375 25.6 -28.4 24.5126953125 -22.9349609375 22.2 -18.1 21.8796875 -17.3345703125 21.5 -16.6 20.45 -14.55 20.25 -14.1 19.65 -12.6 19.6 -11.35 19.5 -9.1 21.4 -5.4 27.55 6.75 28.95 15.75 30.5 25.2 28.1 36.1 26.1 45.1 21.25 55.65 8.05 83.85 -12.5 92.1 -15 93.1 -16.4 94.4 -18.25 96.1 -17.65 97.9 -17.35 98.8 -16.3 99.6 -16.241796875 99.64765625 -16.2 99.7 -7.066796875 96.128515625 0 92.4 9.25 87.4 14.6 82.5 19.2376953125 78.2880859375 24.6 70.55 24.774609375 70.0291015625 24.95 69.45 26.0392578125 65.47734375 27.55 60.35 27.9587890625 58.9951171875 28.4 57.5 28.450390625 57.3650390625 28.5 57.2 31.95 46.15 34.35 37.95 34.891796875 36.1953125 35.35 34.6 36.9990234375 29.3958984375 38.1 25.95 37.9734375 1.5580078125 29.45 -21.4 27.7 -26.2 25.8 -29.05 Z"/>

<path fill="#71368A" stroke="none" d="
M 24.95 69.45
Q 24.774609375 70.0291015625 24.6 70.55 19.2376953125 78.2880859375 14.6 82.5 9.25 87.4 0 92.4 -7.066796875 96.128515625 -16.2 99.7 -15.601953125 100.129296875 -14.35 100.8 -8.8955078125 103.6111328125 -4.65 108.05 -3.492578125 107.5998046875 -1.85 108.4 3.2 110.65 3.5 119.25 3.5361328125 120.317578125 3.5 121.35 3.71484375 121.9568359375 3.9 122.55 6.45 130.8 2.45 134.55 1.287890625 135.712109375 0.15 135.75 -2.380859375 141.3724609375 -6.55 145.75 -7.65 146.95 -8.05 147.55 -8.75 148.65 -8.7 149.6 -8.75 151.5 -6.4 152.5 -4.65 153.3 -1.95 153.4 20.15 154.4 41.9 176.7 49.95 185.05 54.8 192.9 60.65 202.4 62.3 211.85 63.3318359375 217.478125 63 224.85 63.03203125 224.800390625 63.05 224.75 63.45 223.6 64.3 222.95 65.55 222.05 67.3 222.7 68.85 223.25 70 224.6 73.6 229 72.45 238 71.683984375 243.13671875 69.75 249 72.2013671875 251.961328125 74.15 255.4 78.45 246.6 80.5 241.25 83.6 233.3 84.45 226.35 84.9 222 83.95 219.35 83 217.25 80.15 214.35 75.3 209.15 69.7 202 66.85 198.25 60.1 189.1 55.1 182.15 48.25 172.85 39.45 160.8 35.95 155 27.9470703125 142.4736328125 22.4 128.25 22.303125 128.263671875 22.2 128.25 21.35 128.1 20.8 127.1 20.3 126.25 20.2 125.2 20.1 124.6 20.15 123.25 20.25 121.95 20.1 121.25 20 120.55 19.05 118.4 18.35 116.65 18.45 115.5 18.5421875 114.4861328125 19.15 113.25 18.6736328125 111.1744140625 18.8 107.95 19.35 92.65 22.75 78.1 23.482421875 74.766015625 24.95 69.45
M 25.8 -29.3
Q 25.714453125 -28.83515625 25.6 -28.4 25.7056640625 -28.7349609375 25.75 -29.1
L 25.8 -29.05
Q 27.7 -26.2 29.45 -21.4 37.9734375 1.5580078125 38.1 25.95 38.737890625 23.986328125 39.2 22.6 42.1 14.05 44.95 7.5 46.7 3.85 46.9 1.55 46.95 -1.25 45.05 -5.25 42 -11.5 36.5 -18 32.8 -22.4 25.8 -29.3 Z"/>
</g>
</defs>

<g transform="matrix( 1, 0, 0, 1, 122.3,96.95) ">
<g transform="matrix( 1, 0, 0, 1, 0,0) ">
<use xlink:href="#Bone_Archer_42_Layer1_0_FILL"/>
</g>

<g transform="matrix( -0.0333709716796875, -0.3077392578125, -0.380279541015625, 0.0412445068359375, 126.3,123.55) ">
<g transform="matrix( 1, 0, 0, 1, 0,0) ">
<use xlink:href="#Bone_Archer_Bow_0_Layer0_0_FILL"/>
</g>
</g>
</g>
</svg>
