
<svg xmlns="http://www.w3.org/2000/svg" version="1.1" xmlns:xlink="http://www.w3.org/1999/xlink" preserveAspectRatio="none" x="0px" y="0px" width="345px" height="325px" viewBox="0 0 345 325">
<defs>
<g id="Bone_Archer_4_Layer1_0_FILL">
<path fill="#000000" stroke="none" d="
M 59.55 -50.4
Q 53.65 -53.7 49.4 -51.55 47.55 -50.6 46.35 -48.6 46.324609375 -48.55625 46.3 -48.5 46.078515625 -48.6927734375 45.85 -48.75 45.3 -48.95 44.7 -48.55 44.2 -48.25 44 -47.7 43.7 -46.95 43.9 -45.25 44 -44.4 44.9 -36.45 45.35 -33.25 45.35 -31.7 45.583984375 -28.1435546875 44.9 -25.7
L 37.7 -34.45
Q 35.8 -36.8 35.25 -37.8 34.3 -39.65 34.25 -39.7 33.65 -40.6 32.8 -40.9 32.50546875 -41.0103515625 32.2 -41.05 32.1703125 -41.0728515625 32.15 -41.1 30.2 -43.8 27 -45.05 23.75 -46.35 20.5 -45.75 18.4 -45.3 17.3 -44.3 15.823046875 -43.0916015625 15.35 -41.05 14.6830078125 -40.9283203125 13.95 -40.55 12.95 -40.1 12.45 -39.3 12.2 -38.8 11.95 -37.4
L 11.35 -31.05
Q 11.215234375 -31.1 11.1 -31.1 10.6 -31.2 10.05 -30.9 9.5 -30.55 9.35 -30.05 9.322265625 -29.985546875 9.3 -29.95 6.115234375 -30.65 3.25 -30.65
L 0.5 -30.7
Q -1.45 -30.55 -2.05 -30.55 -3 -30.5 -3.55 -30.6 -3.8 -30.65 -4.3 -30.9 -4.75 -31.1 -5 -31.1 -5.5 -31.2 -6.05 -30.9 -6.6 -30.55 -6.75 -30.05 -7.2 -29 -6.35 -27.75 -5.4 -26.15 -3.5 -24.6 -3.2 -24.3 -0.25 -22
L 3.7 -18.7
Q 5.3 -17.4 6.1 -16.95 7 -16.45 7.45 -16.3 8.1 -15.9 8.55 -15.55 9.8 -14.8 11.15 -12.95 13 -10.5 13.55 -9.9 14.3 -9.25 14.9 -9.15 15.3 -9.1 16 -9.3 16.3 -9.45 17.05 -9.75 18.1 -10 19.45 -9.9 19.9 -9.95 21.95 -9.7 22.5 -9.6 22.8 -9.65 25.95 -4.7 29.9 -0.3 30.3 0.2 30.65 0.5 29.4068359375 1.4865234375 28.4 2.5 26.558984375 1.5765625 24.95 1.3 23.75 1.05 21.25 0.95 20.9 0.95 18.1 0.25 14.75 -0.8 13.55 -1.5 12.05 -2.4 11.15 -2.15 10.5 -1.9 10.05 -0.85 9.479296875 0.367578125 9.95 1.55 9.387890625 1.3923828125 8.85 1.3 7.65 1.05 5.15 0.95 4.8 0.95 2 0.25 -1.35 -0.8 -2.55 -1.5 -4.05 -2.4 -4.95 -2.15 -5.6 -1.9 -6.05 -0.85 -6.8 0.75 -5.75 2.3 -4.65 3.5 -4.35 4.25 -4.15 4.5 -3.65 5.95 -3.25 7 -2.85 7.45 -2.1 7.85 -1.9 8.15 -1.45 8.6 -1.7 9.6 -2.35 12.35 -4.9 14.35 -7.05 15.95 -10.3 16.85 -11.55 17.25 -12.1 17.55 -13.1 18.1 -13.3 18.95 -13.55 19.8 -12.85 20.55 -12.3 21.25 -11.4 21.55 -10.75 21.7 -9.65 21.75 -8.45 21.65 -7.85 21.6 -5.6 21.5 -1.2 22.15 3.25 22.75 5.45 22.75 6.1 22.75 6.35 22.7 7 22.65 7.35 22.9 7.7 22.95 8.1 23.25 8.6 23.6 8.7 23.7 10.15 24.4 12 23.7 13.0150390625 23.31328125 14.75 22.1 14.8388671875 22.141015625 14.9 22.15 19.35 22.75 21.55 22.75 22.2 22.75 22.45 22.7 23.1 22.65 23.45 22.9 23.8 22.95 24.2 23.25 24.7 23.6 24.8 23.7 25.20625 23.89609375 25.65 23.95 25.813671875 24.738671875 26 25.55
L 7.9 27.95
Q 4.2189453125 27.0076171875 1 26.65 -1.6 26.3 -2.5 25.95 -3.75 25.4 -6.1 23.8 -8.7 22.45 -11.55 22.6 -12.8 22.55 -14.6 22.95 -15.55 23.15 -17.7 23.7 -19.4765625 24.1396484375 -21.3 24.4 -21.72421875 24.1240234375 -22.2 23.8 -24.8 22.45 -27.65 22.6 -28.9 22.55 -30.7 22.95 -31.65 23.15 -33.8 23.7 -38.65 24.9 -43.8 24.8 -44.3 24.75 -45.15 24.85 -45.9 24.85 -46.5 25.1 -47.1 25.35 -47.5 25.9 -47.95 26.5 -47.8 27.1 -47.65 27.7 -46.75 28.5 -43.1 31.8 -40.55 34.15
L -38.25 36.2
Q -37 37.35 -37.1 38.3 -37.1 38.8 -37.6 39.3 -37.7 39.45 -38.65 40.1 -39.8 41 -41.75 43.1 -42.75 44.15 -44.5 45.1 -45.5 45.75 -47.5 46.95 -49.05 47.75 -49.2 48.7 -49.15 49.35 -48.8 49.9 -48.5 50.45 -47.85 50.7 -47 51.1 -45.25 50.95 -43.35 50.75 -38.3 49.6
L -33.05 48.4
Q -33.076953125 48.55390625 -33.1 48.7 -33.05 49.35 -32.7 49.9 -32.4 50.45 -31.75 50.7 -30.9 51.1 -29.15 50.95 -27.25 50.75 -22.2 49.6
L -14.65 47.9
Q -11.505078125 47.1716796875 -9.4 47 -8.6951171875 47.381640625 -8.2 47.7 -7.75 48.05 -7 48.65 -6.2 49.35 -5.75 49.6 -5.55 49.7 -4.5 50.3 -3.65 50.65 -3.2 51.1 -2.5 51.65 -2.1 52.65 -1.85 53.4 -1.95 53.8 -2.1 54.5 -2.9 55.45 -3.65 56.1 -5.05 57.55 -5.15 57.7 -6.1 58.8 -6.7 59.65 -7.25 60.05 -7.4 60.25 -7.8 60.6 -8.2 60.9 -8.35 61.25 -8.55 61.75 -8.35 62.85 -8 64 -7.45 64.5 -6.6 65.15 -5.3 64.8 -3.8 64.25 -3.05 64.05 -2.65 63.95 -1.85 63.95 -0.7 63.8 -0.55 63.85 0.25 63.7 1.65 63.05 3.25 62.4 3.95 62.2 4.4 62.1 5.35 61.95 6.4 61.9 6.85 61.75 7.2974609375 61.5884765625 7.7 61.45 7.690625 61.4919921875 7.65 61.5 5.4853515625 62.5201171875 4.95 64.25 4.65 65.55 5.25 66.5 5.5884765625 67.176953125 6.65 68 6.4474609375 68.00859375 6.2 68 6 68 2.95 68.05 1.55 68.05 -2.35 67.7 -4.45 67.4 -6.1 67.65 -7.2 67.85 -8.45 68.6 -8.95 68.8 -10.7 69.85
L -12.9 71.35
Q -15.1 72.75 -16.5 73.35 -17.15 73.55 -18.35 73.95 -19.4 74.35 -20.05 74.7 -20.7 75.2 -21.75 76.15 -22.4 76.5 -24 77.1 -25.45 77.55 -26.05 78.4 -26.4 78.95 -26.4 79.55 -26.45 80.3 -26.05 80.65 -25.5 81.2 -24.1 81.25
L -11.15 81.2
Q -10.25 81.15 -10.25 81.65 -10.15 81.9 -10.4 82.25 -10.6 82.4 -11 82.7 -11.2 83 -11.3 83.5 -11.4 83.75 -11.4 84.35 -11.6 85.3 -12.65 86.6 -15.15 90.3 -18.65 96.15 -19.2 97.2 -19.4 97.7 -19.6 98.7 -19 99.4 -18.3 99.9 -16.5 99.55 -14.25 98.9 -13.35 98.25 -12.5 97.4 -12.1 97.1 -11 96.85 -10.45 96.55 -10 96.3 -9.3 95.6 -8.5 94.7 -8.25 94.55 -7.65 94.25 -6.6 93.75 -5.35 93.3 -4.95 93 -3.75 92.15 -3.1 91.8 -2.05 91.05 -0.45 90.45 0.5484375 90.126171875 1.3 89.9 -0.44453125 92.630859375 -2.55 96.15 -3.1 97.2 -3.3 97.7 -3.5 98.7 -2.9 99.4 -2.2 99.9 -0.4 99.55 1.85 98.9 2.75 98.25 3.6 97.4 4 97.1 5.1 96.85 5.65 96.55 6.1 96.3 6.8 95.6 7.6 94.7 7.85 94.55 8.45 94.25 9.5 93.75 10.75 93.3 11.15 93 12.35 92.15 13 91.8 14.05 91.05 15.65 90.45 17.5 89.85 18.5 89.55 19.85 89 20.3 88.4 20.65 87.85 20.8 87.05 20.8015625 87.0177734375 20.8 86.95 21.2150390625 88.80703125 21.45 89.7 21.75 90.7 22.5 91.9 22.25 92.45 22.05 92.9 20.15 96.8 19.1 104.75 18.75 106.4 19.05 107.35 19.35 108.25 20.9 109.6
L 29.65 117.2
Q 31.6 118.9 32.9 118.6 33 118.5 33.1 118.55 34.95 121.45 37.55 122.8 38.97890625 123.59375 40.65 123.9 38.158203125 125.6296875 36.25 130.4 35.45 132.35 36.1 133.25 36.45 133.75 37.55 134.1 41.05 135.15 44.75 135.35 49.6 135.5 52.1 133.6 52.2171875 133.5009765625 52.3 133.4 52.719921875 133.8041015625 53.65 134.1 57.15 135.15 60.85 135.35 65.7 135.5 68.2 133.6 68.3966796875 133.43359375 68.55 133.25 68.55703125 133.5283203125 68.55 133.8 68.5 136.45 69.05 139.7 69.4 141.6 70.3 145.5 71.25 148.8 72.75 148.9 73.85 148.95 74.85 147.35 75.35 146.45 75.6 146.05 76.05 145.3 76.5 144.85 76.85 144.45 78 143.7 78.95 143.1 79.4 142.45 79.85 141.65 80.05 140.5 80.15 139.85 80.15 138.4 80.2181640625 135.2271484375 80.55 132.9 83.2421875 133.447265625 84.65 133.7 84.6509765625 133.763671875 84.65 133.8 84.6 136.45 85.15 139.7 85.5 141.6 86.4 145.5 87.35 148.8 88.85 148.9 89.95 148.95 90.95 147.35 91.45 146.45 91.7 146.05 92.15 145.3 92.6 144.85 92.95 144.45 94.1 143.7 95.05 143.1 95.5 142.45 95.95 141.65 96.15 140.5 96.25 139.85 96.25 138.4 96.3181640625 135.2271484375 96.65 132.9 102.2048828125 134.0025390625 102.3 134.05 106 134.5 108.65 133.85 110.9 133.35 111.8 132 112.4 131.2 112.45 129.95 112.5 128.85 112.05 127.8 111.45 126.4 109.35 124.5 106.4 122.1 103.9 121.85 103 121.7 102.1 121.9 102.262890625 121.3787109375 102.3 120.75 102.8486328125 120.09375 103.45 119.45 106.2 116.5 109.2 114.65 112.45 112.65 115.75 112.15 116.25 112.05 117.3 111.95 118.2 111.8 118.8 111.55 120.65 110.85 121.25 109.3 122 107.3 120.8 104.6
L 119.75 102.55
Q 119.41875 101.8875 119.2 101.3 119.222265625 101.2759765625 119.25 101.25 120.3 100.1 120.8 97.65 121.05 96.1 121.1 94.5 121.1154296875 94.096484375 121.1 93.75 121.560546875 93.39296875 122.15 93
L 124 91.9
Q 126.3 90.3 126.55 88.15 126.7 86.45 125.5 84.75 125.1 84.15 124.35 83.55 123.5 82.8 123.1 82.4 120.55 80.05 118.75 76.4 117.88203125 74.760546875 117.2 72.95 120.590234375 71.6359375 123.85 70.05 130.95 66.65 131.2 62.05 131.3 60.85 130.85 59.35 130.7 58.9 129.9 56.7 126.35 47.85 126.05 38.15 126 36.6 126.05 35.1
L 132.15 33.95
Q 132.17578125 33.9859375 132.2 34
L 134.75 34.7
Q 136.75 35.45 138.65 37 140.25 38.6 141.15 38.95 142.45 39.4 145.1 38.95 147.2 38.65 151.1 37.9 153.2486328125 37.4703125 155 37.25 156.4220703125 38.6279296875 157.25 38.95 158.55 39.4 161.2 38.95 163.3 38.65 167.2 37.9 170.7 37.2 173.15 37.05 175.75 37 176.35 35.9 176.55 35.4 176.35 34.8 176.3 34.15 175.8 33.8 175.45 33.35 173.9 32.45 171.8 31 169.4 27.4 168.75 26.65 168.5 25.9 167.9 23.9 171 20.8
L 178.3 13.55
Q 179.15 12.8 179.2 12.25 179.25 11.75 178.7 11.25 178.3 10.9 177.65 10.9 177 10.75 175.3 11.35 174.5 11.7 166.95 14.3 163.95 15.45 162.45 15.85 160.6349609375 16.3970703125 159.05 16.65
L 162.2 13.55
Q 163.05 12.8 163.1 12.25 163.15 11.75 162.6 11.25 162.2 10.9 161.55 10.9 160.9 10.75 159.2 11.35 158.4 11.7 150.85 14.3 147.85 15.45 146.35 15.85 142.7 16.95 140 16.95
L 138.55 16.9
Q 137.7 16.9 137.15 17.1 136.35 17.5 135.6 18.65 134.9 20 134.5 20.7 134.15 21.35 133.05 22.55 132.05 23.65 131.6 24.4 131.05 25.5 130.65 25.9 130.45 26.25 129.9 26.6 129.55 26.85 129.35 27.05
L 126.75 27.45
Q 127.409765625 23.2951171875 128.7 19.25 129.95 15.6 130.2 14.5 130.85 11.75 130.45 9.65 129.65 5.5 124.2 1.25 116.3 -4.9 106.75 -8.35 97.2 -11.9 87.2 -12.25 81.9716796875 -12.4607421875 76.8 -11.8 76.0958984375 -11.8748046875 75.35 -11.95 76.4138671875 -12.97265625 76.95 -13.55
L 78.45 -15.85
Q 79.8 -17.7 81.85 -19.1 84 -20.3 84.6 -21.05 85.45 -22.25 85.7 -24.95 85.876953125 -26.71953125 86.05 -30.15 86.3060546875 -30.637109375 86.55 -31.2 88.1 -34.95 88.25 -36.85 88.45 -40.35 86.4 -42.2 85.25 -43.25 83.55 -43.45 81.95 -43.7 80.35 -43.2 77.85 -42.45 74.95 -39.85 72.75 -37.95 71.25 -38.5 71.070703125 -38.5671875 70.9 -38.7 70.8482421875 -39.79140625 70.25 -40.3 69.8814453125 -40.5580078125 69.4 -40.6 66.3552734375 -45.4435546875 62.45 -48.5 62.3634765625 -48.5421875 62.25 -48.6 60.9626953125 -49.603125 59.55 -50.4
M 28.6 -8.35
Q 29.211328125 -8.961328125 29.65 -9.9 30.4 -9.25 31 -9.15 31.4 -9.1 32.1 -9.3 32.4 -9.45 33.15 -9.75 34.2 -10 35.55 -9.9 36 -9.95 38.05 -9.7 38.6 -9.6 38.9 -9.65 40.076953125 -7.8005859375 41.35 -6.05 37.172265625 -4.0392578125 33.3 -1.45 33 -1.25 32.65 -1.05 32.6 -1.55 32.25 -2.1 31.2 -4.4 28.6 -8.35
M 52.5 -13.15
Q 52.65 -12.7 52.8 -12.45
L 52.65 -10.1
Q 51.95 -10 51.35 -9.8 48.1669921875 -8.8859375 45.15 -7.7 44.925 -8.0080078125 44.7 -8.35 45.9 -9.55 46.4 -12.05 46.5 -12.85 46.75 -14.6 46.95 -16.1 47.3 -17.05 47.5703125 -17.5455078125 47.95 -18.45 48.40703125 -17.9287109375 48.95 -17.1 49.85 -15.95 50.55 -15.35 51.5 -14.5 51.9 -14.05 52.2 -13.7 52.5 -13.15
M 68.6 -13.15
Q 68.75 -12.7 68.9 -12.45
L 68.9 -12.3
Q 63.8115234375 -12.321484375 58.8 -11.5 60.2 -12.85 60.85 -13.55
L 62.35 -15.85
Q 63.2208984375 -17.043359375 64.35 -18.05 64.695703125 -17.6408203125 65.05 -17.1 65.95 -15.95 66.65 -15.35 67.6 -14.5 68 -14.05 68.3 -13.7 68.6 -13.15
M 109.4 84.75
Q 109.2330078125 84.4994140625 109 84.25 109.21171875 84.1388671875 109.4 84 109.4046875 84.3880859375 109.4 84.75
M 109.1 91.1
Q 109.01640625 91.1140625 108.9 91.1 109.03046875 90.973046875 109.15 90.85 109.137890625 90.984375 109.1 91.1
M 8.55 34.8
L 8.85 34.8
Q 18.214453125 33.6962890625 27.4 32.05 27.86953125 34.1162109375 28.4 36.35 28.9134765625 38.9958984375 29.2 41.35 28.698828125 41.262890625 28.25 41.3 27.5298828125 40.5537109375 26.7 39.9 25.9 39.2 25.05 38.9 24.15 38.65 23.2 39.05 22.5453125 39.2912109375 22.1 39.75 21.036328125 39.4302734375 19.95 39.4 18.6 39.35 15.45 40.3 14.098046875 40.8408203125 12.75 41.3 12.4005859375 41.2666015625 12.1 41.3 11.458203125 41.4603515625 11 41.85 10.46015625 41.9814453125 10.05 42 9.6220703125 41.8482421875 9.3 41.65 8.05 40.75 7.4 40.35 5.809375 39.53203125 4.15 39.4 7.283984375 36.6990234375 8.55 34.8
M 64.9 123.1
Q 65.230859375 123.2705078125 65.5 123.45 65.85 123.25 66.2 123 66.55 122.7724609375 66.85 122.45 67.641015625 122.1935546875 68.5 121.85 72.485546875 120.146484375 74.3 118 74.6537109375 118.54375 75.05 118.85 75.724609375 119.3712890625 76.8 119.6 75.9802734375 120.8595703125 75.5 121.5 74.4 123.05 73.55 123.95 72.95 124.55 71.7 125.7 70.65 126.8 70.05 127.65 69.7521484375 128.128515625 69.5 128.65 69.1916015625 127.864453125 68.6 126.95 66.7880859375 124.09609375 64.9 123.1
M 50.1 123
Q 50.45 122.7724609375 50.75 122.45 51.4673828125 122.2197265625 52.25 121.9 52.91484375 122.4181640625 53.65 122.8 55.07890625 123.59375 56.75 123.9 54.8376953125 125.2306640625 53.25 128.35 52.9705078125 127.6771484375 52.5 126.95 50.6880859375 124.09609375 48.8 123.1 49.130859375 123.2705078125 49.4 123.45 49.75 123.25 50.1 123
M 104.1 99.6
Q 105.05234375 99.716015625 105.95 99.8 106.087109375 99.815234375 106.2 99.8 105.2794921875 101.761328125 104.2 103.65
L 103.7 102.65
Q 103.79765625 102.401171875 103.85 102.15 104.051953125 101.2841796875 103.75 100.4 103.9548828125 100.039453125 104.1 99.6
M 86.2 120.75
Q 86.7486328125 120.09375 87.35 119.45 90.1 116.5 93.1 114.65 93.5439453125 114.3767578125 94 114.1 94.333203125 114.278515625 94.65 114.35 95.309375 114.51484375 96.25 114.4 96.1580078125 114.5068359375 96.05 114.6 95.55 115.05 95.25 115.65 94.7 116.5 94.7 117
L 94.7 117
Q 93.903125 118.1203125 93.35 118.95 92.2 120.7 91.6 121.5 91.1052734375 122.1970703125 90.65 122.75 89.1638671875 121.986328125 87.8 121.85 86.9 121.7 86 121.9 86.162890625 121.3787109375 86.2 120.75 Z"/>
</g>

<g id="Duplicate_Items_Folder_Bone_Crossbow_cape_copy_4_Layer1_0_FILL">
<path fill="#000000" stroke="none" d="
M 39.3 -37.45
Q 38.3 -37.8 37.15 -37.35 36.1 -36.95 35.35 -36.05 34.2 -34.75 33.65 -32 33.1 -28.75 32.7 -27.7 29.9 -29.35 27.95 -28.45 26.75 -27.85 26.4 -26.75 26.1 -25.95 26.2 -24.15 26.3 -22.45 26.6 -21.6 26.8 -21 27.7 -19.3
L 29.7 -16
Q 30.05 -15.3 30.05 -15.05 30.05 -14.75 29.7 -13.95 26.85 -8.9 26.15 -7 26.1212890625 -6.910546875 26.1 -6.85 25.044921875 -6.8830078125 24.3 -6.5 23.3 -5.95 22.55 -4.4 21.8 -2.6 21.3 -1.75 20.1 -0.1 19.55 0.75 19 1.65 18.5 3.1 17.95 4.75 17.65 5.55 16.85 7.65 14.75 11.3
L 9.2 20.65
Q 6.7 24.8 5.8 27.4 4.35 31.35 5.1 34.65 5.85 38.15 9.1 41.05 11.25 43 15.6 45.2 21.65 48.15 25.1 46.5 26.7 45.7 28 43.9 28.7 42.8 29.95 40.35 32.05 36.2 38.4 25.5
L 48.15 9.3
Q 49 7.85 49.3 6.95 49.75 5.55 49.35 4.5 49.054296875 3.736328125 48.2 3.05
L 54.75 -4.65
Q 55.5 -5.6 56.15 -5.9 56.55 -6.1 57.9 -6.2 61.7 -6.4 65.25 -8.05 66.7 -8.7 67.2 -9.45 67.65 -10.15 67.85 -11.55 68.15 -12.9 67.85 -13.75 67.4 -14.8 65.55 -15.6 67.25 -18.3 67.3 -19.9 67.45 -21.55 66.25 -23.45 65.45 -24.6 64.65 -24.8 64.3 -24.85 63.2 -24.65
L 60.3 -23.85
Q 60.7 -25.95 60.6 -28.05 60.6 -29.1 60.25 -29.95 59.85 -30.8 58.95 -31.25 58.05 -31.7 57.1 -31.6 55.35 -31.55 53.8 -30 53.05 -29.3 51.55 -27.05 51 -28.25 49.45 -28.15 49.3150390625 -28.1357421875 49.15 -28.1 49.89375 -29.36953125 50.55 -30.7 51.15 -32 51.3 -32.75 51.65 -34.4 51.1 -36.2 50.65 -37.55 49.95 -38.15 48.8 -39 47.3 -38.45 46.3 -38.1 44.95 -36.95 43.55 -35.7 42.2 -34.1 41.15 -36.9 39.3 -37.45
M 36.85 -24.85
Q 36.995703125 -29.3689453125 39.05 -33.3 39.3658203125 -32.6025390625 39.45 -31.55 39.5361328125 -30.4744140625 39.8 -29.8 39.8513671875 -29.220703125 39.95 -28.9 40.15 -28.3 40.65 -27.95 41.2 -27.6 41.75 -27.8 42.2 -27.9 42.7 -28.6
L 47.15 -34.2
Q 47.65 -29.9 44.05 -24.25 42.8 -22.4 43.75 -21.65 44.45 -21 45.55 -21.8 46.05 -22.2 46.9 -23.2 47.7 -23.9 48.9 -24 48.15 -22.55 48.65 -20.85 49.05 -19.7 49.8 -19.7 50.35 -19.65 50.95 -20.25 51.7 -20.95 52.35 -22.15 52.75 -22.85 53.45 -24.3 54.9 -27 56.8 -27.5 56.9 -24.45 55.45 -21.9 54.6 -20.35 54.5 -19.75 54.4 -19.15 54.7 -18.55 55 -17.95 55.6 -17.85 56.15 -17.7 57.45 -18.65 59.6 -20.2 62.25 -20.2
L 62.8 -19.2
Q 61.35 -17.4 59.35 -16.15 58.25 -15.5 57.9 -15.05 57.15 -14.2 57.6 -13.35 58.1 -12.45 59.5 -12.75 59.7947265625 -12.8130859375 60.2 -12.95 60.33984375 -12.63125 60.6 -12.4 61.05 -12 61.65 -12 62 -12 62.5 -12.2 62.75 -12.3 63.3 -12.55
L 63.3 -12.55 63.35 -12.5
Q 60.4 -10.75 56.65 -9.7 54.65 -9.15 54.4 -9.1 53.15 -8.65 52.35 -8.05 51.636328125 -7.52421875 50.5 -5.9 50.395703125 -5.94453125 50.25 -6 50.75 -6.65 50.4 -7.45 50.1 -8.3 49.3 -8.45 48.85 -8.55 47.25 -8.1 45.85 -7.75 45.4 -8.7 45.25 -9.05 45.45 -10.15 45.6 -11.05 45.2 -11.35 44.8 -11.55 44.05 -11.25
L 39.65 -9.5
Q 38.35 -11.4 38.6 -13.65 38.7 -14.7 38.4 -15 38.15 -15.25 37.35 -15.25 35.841015625 -15.19296875 34.45 -14.8 34.5353515625 -15.1087890625 34.55 -15.4 34.55 -16.4 33.8 -17.9
L 31.15 -23.45
Q 30.587890625 -24.5341796875 30.95 -25.05 31.39140625 -24.7251953125 32.1 -24.1 33.071875 -23.4318359375 33.85 -23.5 33.9859375 -23.3369140625 34.1 -23.2 35.3 -22.2 36.2 -22.9 36.75 -23.3 36.85 -24.85
M 33.6 -12.9
Q 33.935546875 -12.7796875 34.35 -12.75 35.25 -12.75 36.55 -13.4 36.58359375 -13.0087890625 36.65 -12.65 36.8462890625 -11.3046875 37.35 -9.95 37.380078125 -9.901171875 37.4 -9.85 37.712109375 -9.0697265625 38.1 -8.6 38.5904296875 -7.9662109375 39.2 -7.8 39.5638671875 -7.7271484375 40 -7.8 40.446484375 -7.8765625 40.95 -8.1 41.0205078125 -8.1154296875 41.1 -8.15 42.55 -8.85 43.05 -8.9 42.79375 -8.0029296875 43.35 -7.25 43.4240234375 -7.188671875 43.45 -7.15 43.536328125 -7.063671875 43.6 -7 44.1 -6.5 45.4 -6 47.31953125 -5.405859375 48 -6.15 47.601171875 -5.5421875 48 -4.7 48.377734375 -3.94453125 49.05 -3.65 47.6642578125 -1.5642578125 45.9 0.2 45.3041015625 0.7958984375 45 1.25
L 45.35 1.4 37.25 -2.3 35.05 -3.3 31.9 -4.75 29.5 -5.85 29.55 -5.85 33.6 -12.9
M 25.85 -3.6
Q 27.0390625 -3.122265625 28.5 -2.5 30.425 -1.6962890625 32.8 -0.65 37.3328125 1.3373046875 43.6 4.2 44.8 4.8 45.25 5.25 45.9017578125 5.983203125 45.7 6.75 45.6833984375 6.9240234375 45.6 7.1 45 8.2 42.8 7.75
L 24.75 4.25 21.9 3.7 25.85 -3.6
M 43.55 10.55
L 40.55 15.55
Q 39.85 16.75 39.95 17.45 39.15 17.85 38.4 19.15
L 31.85 29.95
Q 31.05 31.35 28.65 36.1 26.75 39.95 25.3 42.1 24.4 43.35 23.65 43.7 22.9 44.05 21.45 43.75 17.35 42.9 12.65 39.45 10.9427734375 38.17734375 9.95 37 9.3412109375 36.2826171875 9 35.6 7.7 32.95 8.65 29.55 9.2 27.65 11.15 23.9
L 17.25 12.75
Q 18.4 10.6 18.7 9.55 18.9 8.45 19.05 7.85 19.3 6.9 19.7 6.3 22.0541015625 6.8322265625 24.5 7.3
L 31.3 8.6
Q 31.5837890625 8.654296875 31.85 8.7
L 43.55 10.55 Z"/>

<path fill="#999999" stroke="none" d="
M 22.9 8.45
Q 23.2421875 7.7810546875 23.55 7.15 24.0435546875 7.2455078125 24.5 7.3 22.0541015625 6.8322265625 19.7 6.3 19.3 6.9 19.05 7.85 18.9 8.45 18.7 9.55 18.4 10.6 17.25 12.75
L 11.15 23.9
Q 9.2 27.65 8.65 29.55 7.7 32.95 9 35.6 9.3412109375 36.2826171875 9.95 37 10.8939453125 34.6552734375 11.95 32.2 14.15 27.1 19.1 16.3 21.6 10.9 22.9 8.45 Z"/>

<path fill="#666666" stroke="none" d="
M 40.55 15.55
L 43.55 10.55 31.85 8.7
Q 31.5837890625 8.654296875 31.3 8.6
L 24.5 7.3
Q 24.0435546875 7.2455078125 23.55 7.15 23.2421875 7.7810546875 22.9 8.45 21.6 10.9 19.1 16.3 14.15 27.1 11.95 32.2 10.8939453125 34.6552734375 9.95 37 10.9427734375 38.17734375 12.65 39.45 17.35 42.9 21.45 43.75 22.9 44.05 23.65 43.7 24.4 43.35 25.3 42.1 26.75 39.95 28.65 36.1 31.05 31.35 31.85 29.95
L 38.4 19.15
Q 39.15 17.85 39.95 17.45 39.85 16.75 40.55 15.55
M 40 -7.8
Q 39.5638671875 -7.7271484375 39.2 -7.8 38.5904296875 -7.9662109375 38.1 -8.6
L 37.85 -8.15
Q 36.3109375 -5.54765625 35.05 -3.3
L 37.25 -2.3 38.65 -5.15
Q 39.48125 -6.9046875 40 -7.8
M 34.35 -12.75
Q 33.935546875 -12.7796875 33.6 -12.9
L 29.55 -5.85 29.5 -5.85 31.9 -4.75
Q 32.80390625 -6.423828125 34.3 -8.85
L 36.65 -12.65
Q 36.58359375 -13.0087890625 36.55 -13.4 35.25 -12.75 34.35 -12.75 Z"/>

<path fill="#71368A" stroke="none" d="
M 45.6 7.1
Q 45.6833984375 6.9240234375 45.7 6.75 41.040234375 5.1642578125 38.15 4.25 32.2626953125 2.392578125 27.15 1.1
L 27.1 1.1
Q 27.053125 1.1017578125 26.95 1.05
L 26.95 1.05
Q 25.8984375 2.7103515625 24.75 4.25
L 42.8 7.75
Q 45 8.2 45.6 7.1 Z"/>

<path fill="#CC66FF" stroke="none" d="
M 32.8 -0.65
Q 32.9642578125 -0.571484375 33.1 -0.5 32.5080078125 -0.3232421875 31.85 -0.15
L 27.55 1
Q 27.340234375 1.0576171875 27.15 1.1 32.2626953125 2.392578125 38.15 4.25 41.040234375 5.1642578125 45.7 6.75 45.9017578125 5.983203125 45.25 5.25 44.8 4.8 43.6 4.2 37.3328125 1.3373046875 32.8 -0.65
M 39.05 -33.3
Q 36.995703125 -29.3689453125 36.85 -24.85 36.75 -23.3 36.2 -22.9 35.3 -22.2 34.1 -23.2 33.9859375 -23.3369140625 33.85 -23.5 33.071875 -23.4318359375 32.1 -24.1 31.39140625 -24.7251953125 30.95 -25.05 30.587890625 -24.5341796875 31.15 -23.45
L 33.8 -17.9
Q 34.55 -16.4 34.55 -15.4 34.5353515625 -15.1087890625 34.45 -14.8 35.841015625 -15.19296875 37.35 -15.25 38.15 -15.25 38.4 -15 38.7 -14.7 38.6 -13.65 38.35 -11.4 39.65 -9.5
L 44.05 -11.25
Q 44.8 -11.55 45.2 -11.35 45.6 -11.05 45.45 -10.15 45.25 -9.05 45.4 -8.7 45.85 -7.75 47.25 -8.1 48.85 -8.55 49.3 -8.45 50.1 -8.3 50.4 -7.45 50.75 -6.65 50.25 -6 50.395703125 -5.94453125 50.5 -5.9 51.636328125 -7.52421875 52.35 -8.05 53.15 -8.65 54.4 -9.1 54.65 -9.15 56.65 -9.7 60.4 -10.75 63.35 -12.5
L 63.3 -12.55 63.3 -12.55
Q 62.75 -12.3 62.5 -12.2 62 -12 61.65 -12 61.05 -12 60.6 -12.4 60.33984375 -12.63125 60.2 -12.95 59.7947265625 -12.8130859375 59.5 -12.75 58.1 -12.45 57.6 -13.35 57.15 -14.2 57.9 -15.05 58.25 -15.5 59.35 -16.15 61.35 -17.4 62.8 -19.2
L 62.25 -20.2
Q 59.6 -20.2 57.45 -18.65 56.15 -17.7 55.6 -17.85 55 -17.95 54.7 -18.55 54.4 -19.15 54.5 -19.75 54.6 -20.35 55.45 -21.9 56.9 -24.45 56.8 -27.5 54.9 -27 53.45 -24.3 52.75 -22.85 52.35 -22.15 51.7 -20.95 50.95 -20.25 50.35 -19.65 49.8 -19.7 49.05 -19.7 48.65 -20.85 48.15 -22.55 48.9 -24 47.7 -23.9 46.9 -23.2 46.05 -22.2 45.55 -21.8 44.45 -21 43.75 -21.65 42.8 -22.4 44.05 -24.25 47.65 -29.9 47.15 -34.2
L 42.7 -28.6
Q 42.2 -27.9 41.75 -27.8 41.2 -27.6 40.65 -27.95 40.15 -28.3 39.95 -28.9 39.8513671875 -29.220703125 39.8 -29.8 39.5361328125 -30.4744140625 39.45 -31.55 39.3658203125 -32.6025390625 39.05 -33.3 Z"/>

<path fill="#FFFFFF" stroke="none" d="
M 28.5 -2.5
Q 27.0390625 -3.122265625 25.85 -3.6
L 21.9 3.7 24.75 4.25
Q 25.8984375 2.7103515625 26.95 1.05
L 26.95 1.05
Q 27.053125 1.1017578125 27.1 1.1
L 27.15 1.1
Q 27.340234375 1.0576171875 27.55 1
L 31.85 -0.15
Q 32.5080078125 -0.3232421875 33.1 -0.5 32.9642578125 -0.571484375 32.8 -0.65 30.425 -1.6962890625 28.5 -2.5 Z"/>

<path fill="#793C00" stroke="none" d="
M 43.45 -7.15
Q 43.4240234375 -7.188671875 43.35 -7.25
L 42.85 -6.5
Q 43.1703125 -6.8203125 43.45 -7.15 Z"/>

<path fill="#333333" stroke="none" d="
M 38.65 -5.15
L 37.25 -2.3 45.35 1.4 45 1.25
Q 45.3041015625 0.7958984375 45.9 0.2 47.6642578125 -1.5642578125 49.05 -3.65 48.377734375 -3.94453125 48 -4.7 47.601171875 -5.5421875 48 -6.15 47.31953125 -5.405859375 45.4 -6 44.1 -6.5 43.6 -7 43.536328125 -7.063671875 43.45 -7.15 43.1703125 -6.8203125 42.85 -6.5
L 43.35 -7.25
Q 42.79375 -8.0029296875 43.05 -8.9 42.55 -8.85 41.1 -8.15 41.0205078125 -8.1154296875 40.95 -8.1 40.446484375 -7.8765625 40 -7.8 39.48125 -6.9046875 38.65 -5.15
M 38.1 -8.6
Q 37.712109375 -9.0697265625 37.4 -9.85 37.380078125 -9.901171875 37.35 -9.95 36.8462890625 -11.3046875 36.65 -12.65
L 34.3 -8.85
Q 32.80390625 -6.423828125 31.9 -4.75
L 35.05 -3.3
Q 36.3109375 -5.54765625 37.85 -8.15
L 38.1 -8.6 Z"/>
</g>

<g id="Duplicate_Items_Folder_Bone_Crossbow_cape_copy_4_Layer0_0_FILL">
<path fill="#000000" stroke="none" d="
M 55.7 9.8
Q 57.35 7.45 57 5.3 56.8 4.3 56.1 4.15 56 4.1 55.15 4.25 54.1 4.55 52.7 4.3 52 4.15 50.25 3.6 44.95 2 38.15 1.8 33.65 1.6 25.8 2.1 20.15 2.5 17.55 3.25 13.35 4.4 6.6 8.8 5.15 9.65 4.65 10.5 4.15 11.35 4.15 13.4
L 4.15 25.05
Q 4.15 27.6 5.25 28.35 6.25 29.05 7.75 28.4 8.05 28.25 9.9 26.95 11.8 25.55 15.05 23.95 21.7 20.7 25.75 19.65 28.4 18.95 33.55 18.3 38.9 17.65 41.35 17.05 43.5 16.55 46.45 15.5 50.75 14.1 52.65 12.8 54.35 11.6 55.7 9.8
M 53.15 6.25
L 54.5 6.45
Q 54.15 7.3 53.6 8.15 52.95 9.35 52 10.15 51.15 10.85 49.25 11.5 40.5 14.9 34.3 15.6
L 29.75 16
Q 24.25 16.7 17.85 19.6 14.1 21.35 6.75 25.6
L 6.7 22.15 6.7 13.9
Q 6.7 12.8 6.9 12.3 7.2 11.6 8.55 10.75 13.7 7.55 17.35 6.3 19.55 5.5 22.15 5.2
L 29 4.75
Q 34.35 4.5 37.95 4.6 41.3 4.7 49.35 5.75
L 53.15 6.25 Z"/>

<path fill="#71368A" stroke="none" d="
M 53.15 6.25
Q 52.6615234375 6.278125 52.05 6.35
L 33.4 7.8
Q 29.25 8.1 25.1 8.7 25.85 10.15 28.55 9.95 30.5 9.9 30.55 9.9 31.65 9.9 32.35 10.4 29.7 10.2 25.9 11.3 21.55 12.5 18.45 13.85 11.75 16.85 6.8 22.1 6.767578125 22.1349609375 6.7 22.15
L 6.75 25.6
Q 14.1 21.35 17.85 19.6 24.25 16.7 29.75 16
L 34.3 15.6
Q 40.5 14.9 49.25 11.5 51.15 10.85 52 10.15 52.95 9.35 53.6 8.15 54.15 7.3 54.5 6.45
L 53.15 6.25 Z"/>

<path fill="#CC66FF" stroke="none" d="
M 52.05 6.35
Q 52.6615234375 6.278125 53.15 6.25
L 49.35 5.75
Q 41.3 4.7 37.95 4.6 34.35 4.5 29 4.75
L 22.15 5.2
Q 19.55 5.5 17.35 6.3 13.7 7.55 8.55 10.75 7.2 11.6 6.9 12.3 6.7 12.8 6.7 13.9
L 6.7 22.15
Q 6.767578125 22.1349609375 6.8 22.1 11.75 16.85 18.45 13.85 21.55 12.5 25.9 11.3 29.7 10.2 32.35 10.4 31.65 9.9 30.55 9.9 30.5 9.9 28.55 9.95 25.85 10.15 25.1 8.7 29.25 8.1 33.4 7.8
L 52.05 6.35 Z"/>
</g>

<g id="Skeleton_Archer_archerSkeleton_body_0_Layer0_0_FILL">
<path fill="#000000" stroke="none" d="
M 13.25 35.55
Q 12.65 34.65 11.45 34.35 10.35 34.05 9.25 34.45 7.9 34.9 6.95 36.1 6 37.25 5.75 38.7 5.5 40 5.4 40.2 5.25 40.6 4.75 41.35 4.25 42.2 4.25 43.1 4.25 44.1 4.85 44.7 5.0486328125 44.8986328125 5.3 45.05 2.9673828125 45.2978515625 1.75 45.95 -1.2 47.45 -3.4 52.9 -4.2 54.85 -3.5 55.85 -3.15 56.35 -1.95 56.75 1.8 57.9 5.75 58.2 10.9 58.5 13.5 56.55 14.9 55.45 15.2 54.25 15.65 52.35 13.9 49.7 11.696875 46.3494140625 9.5 45.45 10.0291015625 45.6466796875 10.5 45.95 10.9162109375 45.82421875 11.3 45.55 12.3 44.85 12.85 43.7 13.5 42.25 13.7 39.05 13.9 36.55 13.25 35.55
M 7.3 43.1
L 6.85 42.9
Q 6.55 42.65 6.75 41.9 7.05 40.85 7.4 40.45
L 8.3 39.7
Q 8.55 39.45 8.75 38.95 9.05 38.3 9.15 38.15 9.85 37.15 10.65 37.5 10.95 39.75 10.65 42 10.55 42.9 10.15 43.25 9.55 43.75 8.3 43.35
L 7.3 43.1
M 5.6 48.15
Q 7.7 48.15 8.65 48.45 10.35 48.95 10.95 50.35 11.05 50.65 11.2 51.55 11.3 52.3 11.5 52.7 11.85 53.25 11.8 53.5 11.75 54.1 10.75 54.2 6.9 54.95 4.45 55.05 1.45 55.15 -1.35 54.45 -0.45 51.95 0.25 50.85 1.55 48.95 3.3 48.4 4.25 48.15 5.6 48.15
M 49.65 43.3
Q 49.55 41.05 48.95 39.7 48.15 37.8 46.45 37.05 44.45 36.25 42.95 37.5 42.45 37.95 42.1 38.6 41.55 39.45 41.55 40 41.55 40.45 41.9 41.3 42.05 41.75 42.15 43.9 42.25 45.55 43.05 46.3 43.4 46.6 44.5 47.05 44.7865234375 47.154296875 45.05 47.2 44.6984375 47.5310546875 44.35 47.9 43.8 48.6 42.65 50.45 41.35 52.75 41.15 54.1 41.05 55 41.35 55.45 41.7 56.05 43.15 56.35 49.75 57.75 49.9 57.8 53.8 58.4 56.65 57.75 59 57.3 59.95 55.95 60.6 55.1 60.65 53.85 60.65 52.7 60.15 51.6 59.5 50.1 57.25 48.15 54.1 45.55 51.45 45.2 50.4306640625 45.0640625 49.45 45.15 49.71484375 44.401171875 49.65 43.3
M 46.6 41.95
Q 46.65 42.2 46.6 43 46.6 43.65 46.75 44 46.55 44.4 46 44.5 45.5 44.6 45.1 44.45
L 44.5 44.2
Q 44.05 43.8 43.95 42.95 43.75 41.35 44.5 40.45 44.8 40.15 45 40.1 45.2 40.05 45.85 40.2 45.95 40.45 46.25 41.05 46.5 41.6 46.6 41.95
M 51.35 48.25
Q 52.1 48.4 53.4 49.2 56.25 51 57.1 52.25 57.75 53.2 57.3 53.75 57.05 54.15 56.2 54.25 50.8 55.05 44.7 53.75 44.05 53.65 43.8 53.3 43.65 53 43.85 52.35 44.3 51.4 46.1 50 49.3 47.75 51.35 48.25 Z"/>

<path fill="#D7D7C5" stroke="none" d="
M 8.65 48.45
Q 7.7 48.15 5.6 48.15 4.25 48.15 3.3 48.4 1.55 48.95 0.25 50.85 -0.45 51.95 -1.35 54.45 1.45 55.15 4.45 55.05 6.9 54.95 10.75 54.2 11.75 54.1 11.8 53.5 11.85 53.25 11.5 52.7 11.3 52.3 11.2 51.55 11.05 50.65 10.95 50.35 10.35 48.95 8.65 48.45
M 6.85 42.9
L 7.3 43.1 8.3 43.35
Q 9.55 43.75 10.15 43.25 10.55 42.9 10.65 42 10.95 39.75 10.65 37.5 9.85 37.15 9.15 38.15 9.05 38.3 8.75 38.95 8.55 39.45 8.3 39.7
L 7.4 40.45
Q 7.05 40.85 6.75 41.9 6.55 42.65 6.85 42.9
M 53.4 49.2
Q 52.1 48.4 51.35 48.25 49.3 47.75 46.1 50 44.3 51.4 43.85 52.35 43.65 53 43.8 53.3 44.05 53.65 44.7 53.75 50.8 55.05 56.2 54.25 57.05 54.15 57.3 53.75 57.75 53.2 57.1 52.25 56.25 51 53.4 49.2
M 46.6 43
Q 46.65 42.2 46.6 41.95 46.5 41.6 46.25 41.05 45.95 40.45 45.85 40.2 45.2 40.05 45 40.1 44.8 40.15 44.5 40.45 43.75 41.35 43.95 42.95 44.05 43.8 44.5 44.2
L 45.1 44.45
Q 45.5 44.6 46 44.5 46.55 44.4 46.75 44 46.6 43.65 46.6 43 Z"/>
</g>

<g id="Bone_Archer_Body_0_Layer0_0_FILL">
<path fill="#000000" stroke="none" d="
M 49.2 6.4
Q 48.6 4.6 47.45 3.6 46.3 2.5 43.8 1.75 40.1 0.65 32.6 0.65 25.1 0.65 17.7 0.8
L 2.7 1.05
Q 1.25 1.05 0.35 1.55 -0.2 1.95 -0.45 2.75 -0.65 3.15 -0.9 4.1 -1.25 5 -2.5 6.35 -3.8 7.8 -4.15 8.6 -4.8 9.9 -4.4 11.35 -4 12.8 -2.8 13.7 -2.05 14.25 -0.5 15.15 0.1 15.6 0.9 16.35 0.1 16.8 -0.65 17.35 -2.05 18.4 -2.7 19.55 -3.35 21 -2.85 23.85 -2.6 25.15 -2.1 25.55 -1.3 26.25 0.55 26.15 4 26 8.25 25.25 9.05 25.1 10.2 24.8
L 10.4 25.4
Q 10.45 25.65 10.6 26.05 9.05 26.35 8.1 26.55 5.5 27.1 3.7 27.75 0.55 28.8 -0.7 30.55 -1.45 31.6 -1.4 32.85 -1.3 34.15 -0.3 34.95 0.8 35.8 3.65 36 8.1 36.25 10.45 36.1 12.7 35.95 14.6 35.45 15.35 38.1 16.9 39.1 18.35 40 21.25 40.2 24.1 40.3 26.5 40 30.05 39.55 31.1 38.05 31.55 37.35 31.65 36.1 31.8 34.5 31.9 34.1 32.35 32.75 33.85 31.65 34.9 30.9 36.25 30.5 36.75 31.1 37.7 31.85 40.65 34.25 42.7 34.7 44.55 35.05 48.2 34.3 51.3 33.65 51.7 32.25 52 31.15 50.95 30.2 50.4 29.7 48.9 28.95 47.85 28.45 47.1 28.05 47.45 27.8 47.45 27.45
L 47.35 26.85 47.35 26.8
Q 49.1 26.75 50.2 26.25 51.4 25.75 52.8 24.35 54.35 22.95 54.65 21.65 55.05 20 53.5 18.25 52.45 16.95 50.1 15.75 49.7 15.55 49.2 15.3 51 11 49.2 6.4
M 41.75 4.75
Q 42.8 5.1 43.5 5.4 41.05 7.95 37.5 9.8 36.45 10.4 35.4 10.85 33.15 11.75 30.8 12.35 26.7 13.25 22.25 12.9
L 16.85 12.3
Q 16.35 12.2 16 12.2 14.05 12 13.75 11.9 12.3 11.4 11.6 11.25 10.95 11.1 10.05 11.1 8.8 11.1 8.4 11.05 7.55 10.95 6.95 10.6 6.25 10.1 6.2 9.5 5.8 9.55 5.05 9.55
L 6.75 11.6
Q 7.1 12.15 7.55 12.45 8.1 12.75 9.35 12.8 10.65 12.85 11.15 13.1 11.35 13.2 11.6 13.4 11.9 13.55 12.25 13.85 12.2919921875 13.8919921875 12.35 13.9
L 12.4 13.9
Q 12.95 14.1 13.75 14.2 14.45 14.25 16.6 14.7 17.7 14.85 19.2 15.1 24.35 16 28.2 15.85 27.95 15.9 27.7 15.95 25.55 16.55 23.65 17 19.9 17.85 17.1 18.15 16.3 18.2 15.6 18.25 13.7 18.35 12.55 18 11.5 17.5 10.9 17.35 10.4 17.2 9.55 17.15 9.05 17.1 8.5 17.05 7.5 17 6.8 16.9 6.35 16.8 6.05 16.7 5.05 16.2 4.5 16.15 4.25 16.1 4.1 16.2 3.95 16.1 3.9 16.05 3.65 15.85 3.1 15.2 2.65 14.8 2.15 14.2 1.1 13 0.3 12.45 -1.05 11.4 -1.25 11.05 -1.6 10.35 -1.2 9.3 -0.8 8.5 -0.25 8.25 0.05 8.1 0.85 8.05 1.6 7.9 1.9 7.7 2.55 7.35 2.55 6.2 2.45 4.8 2.8 4.4 13.15 4.8 22.85 4.35
L 26.15 4.1
Q 27.9 3.9 28.7 3.9 29.1 3.9 31.3 4.15 32.55 4.3 36.55 4.3 37.1 4.3 37.6 4.35 39.9 4.4 41.4 4.7 41.6 4.7 41.75 4.75
M 44.6 9.95
Q 44.35 9.75 44.15 9.65 44.85 8.9 45.6 8.15 46.1 9.5 46.1 10.6 46.05 11.9 44.85 13.8 44.7 14 44.5 14.25 43.5 15.55 42.9 16.3 42.6 16.65 42.35 16.9 40.15 19.05 36.95 20.35 36.7 20.45 36.3 20.6 35.5 20.85 34.25 21.2 32.9 21.55 31.05 22 29.95 22.2 29.05 22.35 27.95 22.55 27.15 22.65 25.65 22.95 25.1 22.95
L 25.05 22.95
Q 23.75 23.05 22.3 22.95 20.3 22.8 18.1 22.45 18.05 22.4 17.9 22.4 15.25 21.8 14.45 21.5 13.75 21.3 12.9 20.95 11.9 20.55 10.65 20 10.1 19.75 9.45 19.4 9.25 19.3 9.05 19.2 8.4 18.9 7.85 18.6 8.5 18.7 9.1 18.8 9.95 18.9 10.9 19.1
L 13.15 19.75
Q 13.8 19.85 15.85 20.05 16.5 20.1 17.2 20.15 19.5 20.25 20.55 20.05 20.7 20.05 20.8 20
L 20.75 20
Q 21 19.95 21.25 19.9
L 22 19.75
Q 22.75 19.65 24.25 19.6 25.1 19.45 26.7 18.95 26.9 18.9 27.5 18.85 28.05 18.75 29.1 18.55 29.6 18.45 30.35 18.2 31.25 17.95 32.35 17.45 35.7 16.1 38.25 14.95 40.55 13.85 42.2 12.95 42.8 12.6 43.4 12.3 44.35 11.7 44.6 11.35 45.2 10.55 44.6 9.95
M 47.7 17.85
Q 48.05 17.95 48.3 18.05 49.65 18.6 50.45 19.25
L 50.5 19.3
Q 51.4 20.15 51.5 20.8 51.65 21.7 50.75 22.5 49.2 24.1 45.25 23.65 44.75 23.6 44.25 23.5 43 23.3 41.75 23.1
L 41.7 23.1 41.65 23.05
Q 41.626953125 23.05 41.6 23.05 41.45 23 41.35 23 41.4 22.95 41.45 22.95 41.7 22.75 41.95 22.6 44.6 20.95 46 19.65 47 18.85 47.7 17.85
M 45.75 30.3
Q 45.9 30.5 46.1 30.7 46.35 30.95 46.6 31.25 46.6 31.3 46.65 31.3
L 46.65 31.35
Q 46.05 31.8 44.3 31.9 43.65 31.9 43.25 31.85 42.7 31.6 42.35 31.45 42.25 31.35 42.2 31.35
L 40.4 30.2
Q 38.5 28.9 38.1 28 38.5 27.85 39 28 39.3 28.05 39.9 28.35
L 42.75 29
Q 44.15 29.4 44.8 29.75 45.3 30 45.75 30.3
M 42.65 26.35
Q 42.65 26.5 42.65 26.65 42.15 26.55 41.65 26.45 39.3 25.9 38 25.35 37.25 25.05 36.75 24.95 36.95 24.9 37.2 24.85 38.15 25.15 38.4 25.25 40.7 25.9 42.65 26.35
M 8.3 22.35
Q 7.35 22.6 6.7 22.75 3.15 23.55 0.25 23.4 -0.3 22.5 -0.15 21.4 0.05 20.3 0.85 19.45 1.55 18.75 2.6 18.2 4.4 19.95 8.3 22.35
M 17.55 27.3
Q 18.65 26.9 19.6 26.6 20.8 26.75 21.8 26.85 20.3 28.6 19.15 29.65 18.05 30.65 16.85 31.3 15.8 31.95 14.75 32.3 14.7 32.3 14.6 32.3 14.55 32.3 14.45 32.35 12.9 32.85 10.9 32.9 9.65 32.95 7.2 32.85
L 3.2 32.7
Q 2.9 32.7 2.6 32.55 2.3 32.15 2.85 31.7 4 30.6 6.35 29.9 8.3 29.35 12.3 28.85 12.55 28.8 12.9 28.75 14.55 28.35 17.55 27.3
M 18.35 36.1
Q 17.85 35.6 17.65 34.8 17.6 34.5 17.6 34.3 20.4 32.8 22.6 29.9 23.5 28.8 24.55 27 27.1 27 30.1 26.5 32 26.15 35.65 25.25 35.3 25.5 35.45 26.05 35.45 26.45 35.55 27.05
L 35.55 27.1
Q 32 27.75 29.6 30.5 27.15 33.25 27.5 36.5 24.35 37.15 21.05 37 19.1 36.9 18.35 36.1 Z"/>

<path fill="#929274" stroke="none" d="
M 17.65 34.8
Q 17.85 35.6 18.35 36.1 19.1 36.9 21.05 37 24.35 37.15 27.5 36.5 27.15 33.25 29.6 30.5 32 27.75 35.55 27.1
L 35.55 27.05
Q 35.45 26.45 35.45 26.05 35.3 25.5 35.65 25.25 32 26.15 30.1 26.5 27.1 27 24.55 27 23.5 28.8 22.6 29.9 20.4 32.8 17.6 34.3 17.6 34.5 17.65 34.8
M 12.9 28.75
Q 12.55 28.8 12.3 28.85 8.3 29.35 6.35 29.9 4 30.6 2.85 31.7 2.3 32.15 2.6 32.55 2.9 32.7 3.2 32.7
L 7.2 32.85
Q 9.65 32.95 10.9 32.9 12.9 32.85 14.45 32.35 14.55 32.3 14.6 32.3 14.7 32.3 14.75 32.3 15.8 31.95 16.85 31.3 17.1 31.15 17.35 31 14.6 30.95 11.95 30.1
L 12.9 28.75
M 6.7 22.75
Q 7.35 22.6 8.3 22.35 4.4 19.95 2.6 18.2 1.55 18.75 0.85 19.45 0.05 20.3 -0.15 21.4 -0.3 22.5 0.25 23.4 3.15 23.55 6.7 22.75
M 42.65 26.65
Q 42.65 26.5 42.65 26.35 40.7 25.9 38.4 25.25 38.15 25.15 37.2 24.85 36.95 24.9 36.75 24.95 37.25 25.05 38 25.35 39.3 25.9 41.65 26.45 42.15 26.55 42.65 26.65
M 46.1 30.7
Q 45.9 30.5 45.75 30.3 45.3 30.25 45.05 30.2 43.7 30 43.25 30.1 42.7 30.3 42.45 30.9 42.35 31.15 42.35 31.45 42.7 31.6 43.25 31.85 43.65 31.9 44.3 31.9 46.05 31.8 46.65 31.35
L 46.65 31.3
Q 46.6 31.3 46.6 31.25 46.35 30.95 46.1 30.7
M 50.5 19.3
L 50.45 19.25
Q 49.65 18.6 48.3 18.05 47.8 21.05 45.25 23.65 49.2 24.1 50.75 22.5 51.65 21.7 51.5 20.8 51.4 20.15 50.5 19.3
M 41.6 23.05
Q 41.626953125 23.05 41.65 23.05
L 41.45 22.95
Q 41.4 22.95 41.35 23 41.45 23 41.6 23.05 Z"/>

<path fill="#D7D7C5" stroke="none" d="
M 19.6 26.6
Q 18.65 26.9 17.55 27.3 14.55 28.35 12.9 28.75
L 11.95 30.1
Q 14.6 30.95 17.35 31 17.1 31.15 16.85 31.3 18.05 30.65 19.15 29.65 20.3 28.6 21.8 26.85 20.8 26.75 19.6 26.6
M 43.25 30.1
Q 43.7 30 45.05 30.2 45.3 30.25 45.75 30.3 45.3 30 44.8 29.75 44.15 29.4 42.75 29
L 39.9 28.35
Q 39.3 28.05 39 28 38.5 27.85 38.1 28 38.5 28.9 40.4 30.2
L 42.2 31.35
Q 42.25 31.35 42.35 31.45 42.35 31.15 42.45 30.9 42.7 30.3 43.25 30.1
M 48.3 18.05
Q 48.05 17.95 47.7 17.85 47 18.85 46 19.65 44.6 20.95 41.95 22.6 41.7 22.75 41.45 22.95
L 41.65 23.05 41.7 23.1 41.75 23.1
Q 43 23.3 44.25 23.5 44.75 23.6 45.25 23.65 47.8 21.05 48.3 18.05 Z"/>

<path fill="#CC66FF" stroke="none" d="
M 22.3 20
Q 21.5 20.05 20.8 20 20.7 20.05 20.55 20.05 19.5 20.25 17.2 20.15 16.5 20.1 15.85 20.05 13.8 19.85 13.15 19.75
L 10.9 19.1
Q 9.95 18.9 9.1 18.8 8.5 18.7 7.85 18.6 8.4 18.9 9.05 19.2 9.25 19.3 9.45 19.4 10.1 19.75 10.65 20 11.9 20.55 12.9 20.95 13.75 21.3 14.45 21.5 15.25 21.8 17.9 22.4 18.05 22.4 18.1 22.45 20.3 22.8 22.3 22.95 23.75 23.05 25.05 22.95
L 25.1 22.95
Q 25.65 22.95 27.15 22.65 27.75 22.45 28.45 22.2 30.05 21.5 32.15 20.45 32.95 20.05 33.9 19.55 34.2 19.4 34.5 19.25
L 22.3 20
M 27.7 15.95
Q 27.95 15.9 28.2 15.85 24.35 16 19.2 15.1 17.7 14.85 16.6 14.7 14.45 14.25 13.75 14.2 12.95 14.1 12.4 13.9
L 12.35 13.9
Q 11.1828125 13.846875 9.85 13.6 6.6 12.9 2.4 11 0.25 10.1 -1.2 9.3 -1.6 10.35 -1.25 11.05 -1.05 11.4 0.3 12.45 1.1 13 2.15 14.2 2.65 14.8 3.1 15.2 3.65 15.85 3.9 16.05 3.95 16.1 4.1 16.2 4.25 16.1 4.5 16.15 5.05 16.2 6.05 16.7 6.35 16.8 6.8 16.9 7.5 17 8.5 17.05 9.05 17.1 9.55 17.15 10.4 17.2 10.9 17.35 11.5 17.5 12.55 18 13.7 18.35 15.6 18.25 16.3 18.2 17.1 18.15 19.9 17.85 23.65 17 25.55 16.55 27.7 15.95
M 40.7 5.1
Q 40.9 5 41.4 4.7 39.9 4.4 37.6 4.35 32.95 6.1 28.15 7.5 25.3 8.35 23.8 8.6 20.7 9.3 16.75 9.5 14.3 9.6 9.55 9.6 11.1 10.2 13.8 10.25 17.85 10.35 18.3 10.4 18.5 10.45 19.9 10.7 20.4 10.75 21 10.85 22.6 11.15 23.75 11.1 25.65 11.05 29.1 9.75
L 35.95 7.15
Q 39.4 5.75 40.7 5.1 Z"/>

<path fill="#71368A" stroke="none" d="
M 44.15 9.65
Q 44.35 9.75 44.6 9.95 45.2 10.55 44.6 11.35 44.35 11.7 43.4 12.3 42.8 12.6 42.2 12.95 40.55 13.85 38.25 14.95 35.7 16.1 32.35 17.45 31.25 17.95 30.35 18.2 29.6 18.45 29.1 18.55 28.05 18.75 27.5 18.85 26.9 18.9 26.7 18.95 25.1 19.45 24.25 19.6 22.75 19.65 22 19.75
L 21.25 19.9
Q 21 19.95 20.75 20
L 20.8 20
Q 21.5 20.05 22.3 20
L 34.5 19.25
Q 34.2 19.4 33.9 19.55 32.95 20.05 32.15 20.45 30.05 21.5 28.45 22.2 27.75 22.45 27.15 22.65 27.95 22.55 29.05 22.35 29.95 22.2 31.05 22 32.9 21.55 34.25 21.2 35.5 20.85 36.3 20.6 36.7 20.45 36.95 20.35 40.15 19.05 42.35 16.9 42.6 16.65 42.9 16.3 43.5 15.55 44.5 14.25 44.7 14 44.85 13.8 46.05 11.9 46.1 10.6 46.1 9.5 45.6 8.15 44.85 8.9 44.15 9.65
M 43.5 5.4
Q 42.8 5.1 41.75 4.75 41.6 4.7 41.4 4.7 40.9 5 40.7 5.1 39.4 5.75 35.95 7.15
L 29.1 9.75
Q 25.65 11.05 23.75 11.1 22.6 11.15 21 10.85 20.4 10.75 19.9 10.7 18.5 10.45 18.3 10.4 17.85 10.35 13.8 10.25 11.1 10.2 9.55 9.6 14.3 9.6 16.75 9.5 20.7 9.3 23.8 8.6 25.3 8.35 28.15 7.5 32.95 6.1 37.6 4.35 37.1 4.3 36.55 4.3 32.55 4.3 31.3 4.15 29.1 3.9 28.7 3.9 27.9 3.9 26.15 4.1
L 22.85 4.35
Q 13.15 4.8 2.8 4.4 2.45 4.8 2.55 6.2 2.55 7.35 1.9 7.7 1.6 7.9 0.85 8.05 0.05 8.1 -0.25 8.25 -0.8 8.5 -1.2 9.3 0.25 10.1 2.4 11 6.6 12.9 9.85 13.6 11.1828125 13.846875 12.35 13.9 12.2919921875 13.8919921875 12.25 13.85 11.9 13.55 11.6 13.4 11.35 13.2 11.15 13.1 10.65 12.85 9.35 12.8 8.1 12.75 7.55 12.45 7.1 12.15 6.75 11.6
L 5.05 9.55
Q 5.8 9.55 6.2 9.5 6.25 10.1 6.95 10.6 7.55 10.95 8.4 11.05 8.8 11.1 10.05 11.1 10.95 11.1 11.6 11.25 12.3 11.4 13.75 11.9 14.05 12 16 12.2 16.35 12.2 16.85 12.3
L 22.25 12.9
Q 26.7 13.25 30.8 12.35 33.15 11.75 35.4 10.85 36.45 10.4 37.5 9.8 41.05 7.95 43.5 5.4 Z"/>
</g>

<g id="Bone_Archer_Head_0_Layer3_0_FILL">
<path fill="#000000" stroke="none" d="
M 25.35 52.45
Q 24.35 52.05 22.9 53.1
L 12.7 60.2
Q 12.15 60.45 11 61
L 2.35 67.2
Q 0.7 68.35 -0.1 69.05 -0.55 69.35 -1 69.8 -1.9 69.2 -3.35 69.2 -3.55 69.2 -6.6 69.35 -8 69.4 -11.9 69.15 -14.05 68.95 -15.65 69.25 -16.75 69.5 -18 70.25 -18.5 70.5 -20.2 71.6
L -22.35 73.15
Q -24.5 74.6 -25.9 75.25 -26.5 75.5 -27.7 75.9 -28.75 76.35 -29.4 76.75 -30 77.25 -31.05 78.25 -31.65 78.6 -33.25 79.25 -34.7 79.75 -35.25 80.6 -35.6 81.15 -35.6 81.75 -35.6 82.5 -35.2 82.85 -34.6 83.4 -33.2 83.4
L -20.3 82.95
Q -19.4 82.85 -19.35 83.35 -19.25 83.6 -19.5 83.95 -19.7 84.1 -20.1 84.45 -20.3 84.75 -20.35 85.25 -20.45 85.5 -20.45 86.1 -20.6 87.05 -21.6 88.4 -24 92.15 -27.3 98.1 -27.85 99.2 -28 99.7 -28.2 100.7 -27.55 101.35 -26.85 101.85 -25.05 101.45 -22.85 100.7 -21.95 100.05 -21.15 99.15 -20.75 98.85 -19.65 98.55 -19.1 98.25 -18.65 98 -18 97.25 -17.2 96.35 -16.95 96.2 -16.4 95.85 -15.35 95.35 -14.1 94.85 -13.7 94.55 -12.55 93.65 -11.9 93.25 -10.9 92.5 -9.3 91.85 -7.5 91.2 -6.5 90.85 -5.15 90.25 -4.75 89.65 -4.4 89.1 -4.25 88.3 -4.25 87.3 -4.2 86.75 -4.05 85.45 -2.6 82.5 -1.25 79.85 -1.3 78.2 -0.55 77.9 -0.1 76.45 0.25 75.5 0.45 74.75 1 74.4 1.85 73.6 2.95 72.75 3.4 72.45
L 5.35 71.35
Q 6.85 70.5 9.45 68.4 12.2 66.25 13.65 65.4 15.45 64.45 16.2 63.95 17.2 63.35 19.05 62.1
L 24.95 57.75
Q 27.05 55.8 26.5 53.8 26.25 52.7 25.35 52.45
M -15.5 73.9
Q -14.5 73.6 -11.95 73.6
L -4.35 73.75
Q -4.35 73.8 -4.35 73.9 -4.4 74.6 -4.75 74.95 -4.7 75.1 -4.55 75.3
L -7.95 85.5
Q -8.6 87.35 -9.35 88 -9.95 88.5 -11.75 89.1 -13.15 89.6 -16.45 91.65
L -18.1 92.75 -20.6 94.4
Q -17.6 88.35 -15.3 83.5 -14.85 82.3 -15 81.8 -15.35 80.95 -16.75 80.6 -20.35 79.65 -27.05 79.85 -22.75 78.6 -19.2 76.15 -18.95 76 -18.75 75.9 -17.7 75.1 -17.2 74.75 -16.25 74.15 -15.5 73.9
M 2.55 43.75
Q 2.2 43.7 0.7 43.35 -0.45 43.15 -1.1 42.8 -2.4 41.95 -3.05 41.55 -4.8 40.65 -6.6 40.65 -7.95 40.65 -11.1 41.75 -12.55 42.4 -14.05 42.95 -15.7 43.6 -16.55 43.6 -17.35 43.7 -18.9 43.55 -20.15 43.5 -21.5 44 -22.35 44.3 -22.95 44.95 -23.55 45.9 -23.15 46.6 -22.85 47.25 -21.9 47.7 -20.75 48.25 -20.2 48.45 -19.1 48.95 -18.4 49.4 -17.95 49.7 -17.15 50.3 -16.35 50.95 -15.9 51.2 -15.7 51.3 -14.6 51.85 -13.75 52.2 -13.3 52.6 -12.6 53.15 -12.15 54.15 -11.85 54.85 -11.95 55.3 -12.1 56 -12.85 56.95 -13.6 57.65 -14.95 59.1 -15.05 59.25 -15.95 60.4 -16.5 61.25 -17.05 61.7 -17.2 61.9 -17.6 62.25 -18 62.55 -18.1 62.9 -18.3 63.45 -18.05 64.5 -17.7 65.65 -17.1 66.15 -16.25 66.75 -14.95 66.35 -13.5 65.8 -12.75 65.55 -12.35 65.45 -11.55 65.4 -10.4 65.25 -10.25 65.25 -9.45 65.1 -8.05 64.4 -6.5 63.7 -5.8 63.5 -5.35 63.35 -4.4 63.2 -3.35 63.1 -2.9 62.95 -1.15 62.25 -0.25 62.05 -0.2 62 1.8 61.75 3 61.6 3.65 61.15 4.75 60.4 5.15 58.5 5.5 56.4 5.7 55.4 5.8 54.95 6.85 52.45 7.3 51.5 7.45 50.7 8.95 50.55 9.95 50.35 11.7 49.75 12.55 49.55 14.3 49.15 15.15 48.95 16.65 48.55 18.7 47.45 20.05 46.9 20.75 46.25 21.5 45.5 21.55 44.85 21.55 44.25 21.05 43.7 20.6 43.2 19.95 43.15 18.9 42.95 17.35 43.45
L 9.2 45.8
Q 8.75 45.55 8.1 45.35 6.65 45.2 5.95 45.05 5.25 44.95 4.3 44.5 2.85 43.85 2.55 43.75
M 4.3 49.55
L 4.3 49.6
Q 4.15 50 3.8 50.45 1.65 53.85 0.85 57.75 -4.95 59.05 -10.15 61.05 -11.05 61.45 -11.4 61.05 -11.45 60.95 -11.5 60.9 -9.7 58.9 -8.95 57.45 -7.85 55.35 -8.25 53.5 -8.75 51.45 -11.25 49.65 -14.1 47.85 -15.35 46.8 -15.2 46.85 -15.05 46.8 -13.55 46.95 -10.55 45.8 -7.5 44.6 -5.85 45.05 -5.3 45.25 -4.6 45.65 -4.25 45.9 -3.45 46.3 -2.4 46.95 -0.1 47.7 3 48.6 4.15 48.85 4.15 49.2 4.3 49.55
M 13.75 30.15
Q 15.5 29.65 16.5 29.35 18.5 28.65 18.9 27.4 18.5 26.3 17.2 26.05 16.65 25.95 15.1 26.15
L -14.7 31.05
Q -15.55 31.3 -16.3 31.35 -16.3 30.95 -16.5 30.6 -17 29.95 -18.1 29.8 -22.35 28.8 -25.95 28.5 -28.55 28.25 -29.45 27.95 -30.75 27.4 -33.15 25.9 -35.75 24.65 -38.6 24.85 -39.85 24.85 -41.7 25.3 -42.65 25.55 -44.8 26.15 -49.6 27.5 -54.75 27.55 -55.25 27.55 -56.1 27.65 -56.85 27.7 -57.4 27.95 -58 28.25 -58.4 28.8 -58.8 29.4 -58.65 30 -58.5 30.6 -57.55 31.35 -53.8 34.55 -51.2 36.8
L -48.85 38.8
Q -47.55 39.9 -47.6 40.85 -47.6 41.4 -48.1 41.9 -48.2 42.05 -49.1 42.75 -50.2 43.7 -52.1 45.85 -53.05 46.9 -54.8 47.95 -55.75 48.6 -57.75 49.85 -59.25 50.7 -59.35 51.65 -59.3 52.3 -58.95 52.85 -58.6 53.4 -57.95 53.65 -57.1 54 -55.35 53.8 -53.45 53.55 -48.45 52.25
L -40.9 50.3
Q -36.2 49.05 -33.8 49.15 -32.3 49.35 -31.55 49.35 -30.25 49.35 -29.4 48.75 -29 48.4 -28.15 47.25 -26.75 45.3 -23.05 41.85 -19.5 38.55 -18.15 36.4
L -17.85 36.4
Q -4.75 34.45 7.95 31.5
L 13.75 30.15
M -30.1 36.35
Q -30.25 36.5 -30.25 36.75 -30.3 37 -30.3 37.25 -29.95 37.3 -29.65 37.35
L -29.6 37.3
Q -29.1 37.35 -28.65 37.4 -27.25 37.5 -25.8 37.4 -25.6 37.4 -25.45 37.35 -24.2 37.25 -22.8 37.05
L -30.95 44.45
Q -31.65 45.15 -32.1 45.3 -32.35 45.4 -33.55 45.6 -36.6 45.75 -39.65 46.4 -42.3 47 -45.1 47.7
L -47.2 48.35 -50.3 49.1 -45.95 45.05
Q -44.35 43.55 -43.95 42.7 -43.5 41.65 -43.4 40.5 -43.45 39.4 -44.05 38.45 -44.65 37.3 -46.75 35.7 -48.05 34.75 -50.75 32.65 -52.15 31.65 -52.1 30.8 -49.65 31.15 -44.4 29.7 -39.75 28.4 -37.15 28.8 -36.95 28.8 -36.7 28.85
L -36.65 28.85
Q -35.4 29.1 -33.4 30.05 -31.1 31.15 -30.15 31.4 -28.85 31.8 -26.05 31.9 -23.2 32.1 -21.85 32.5 -21.85 32.55 -21.7 32.6 -22.5 32.8 -23.65 33.15 -24.1 33.25 -25.8 33.6 -27.1 33.8 -27.8 34.15 -28.9 34.5 -29.55 35.35 -30 35.85 -30.1 36.35
M 6.75 7.5
Q 5.85 6.6 4.6 5.85 0.4 2.9 -2.8 2.45 -4.05 2.25 -6.55 2.2 -6.9 2.2 -9.7 1.6 -13.1 0.65 -14.3 0 -15.85 -0.85 -16.7 -0.55 -17.35 -0.3 -17.8 0.75 -18.45 2.4 -17.4 3.9 -16.25 5.05 -15.9 5.8 -15.7 6.05 -15.15 7.5 -14.75 8.5 -14.3 8.95 -13.55 9.35 -13.35 9.6 -12.9 10.05 -13.1 11.05 -13.65 13.85 -16.15 15.9 -18.25 17.55 -21.45 18.6 -22.7 19 -23.25 19.35 -24.2 19.9 -24.4 20.75 -24.6 21.6 -23.9 22.35 -23.3 23.05 -22.4 23.3 -21.75 23.45 -20.65 23.45 -19.45 23.3 -18.85 23.25 -16.6 23.05 -12.2 23.6 -7.75 24.05 -5.55 23.95 -4.9 23.95 -4.65 23.9 -4 23.85 -3.65 24.05 -3.3 24.1 -2.9 24.4 -2.35 24.7 -2.25 24.8 -0.8 25.5 1.05 24.7 2.05 24.3 3.85 23
L 6 21.45
Q 6.85 20.85 7.45 20.3 8.05 19.7 8.65 19.15
L 18.8 20.35
Q 19.55 20.55 19.9 20.15 20.25 19.7 19.6 18.85 18.35 17.5 16.3 16.75 14.95 16.2 12.35 15.75
L 12.15 15.7
Q 12.15 15.6 12.15 15.4 12.1 14.7 11.55 13.95 11.2 13.15 10.35 12.15 9.15 10.65 8.95 10.45 7.55 8.4 6.75 7.5
M 3.65 18.45
Q 3.95 18.5 4.2 18.55 3.8 18.8 3.45 19.1 3.300390625 19.1998046875 3.15 19.3 2.2576171875 19.92109375 1.4 20.65 0.55 21.35 -0.05 21.5 -0.6 21.6 -1.85 21.2 -3.85 20.55 -8.8 20.5 -13.4 20.45 -15.65 19.55 -12.2 17.3 -10.35 13.45 -8.9 10.3 -10 8.35 -10.25 7.95 -11.75 6.15 -12.85 4.95 -12.7 3.9 -12.2 4.2 -11.5 4.35 -9.7 4.9 -6.75 5.2 -2.5 5.6 -0.7 6.45 1.7 7.35 4.35 10.15 6.45 12.55 8 14.9
L 3.2 13.95
Q 1.7 13.6 0.9 14.05 0.65 14.3 0.5 14.55 0.2 15 0.25 15.65 0.25 16.75 1 17.4 1.85 18.05 3.65 18.45
M 5.2 -38.8
Q 4.55 -39.7 3.7 -39.95 2.5 -40.4 0.95 -39.55 -0.05 -39.05 -0.5 -38.25 -0.75 -37.75 -0.95 -36.3
L -1.35 -29.7
Q -1.55 -29 -1.6 -28.9 -1.95 -28.55 -3.05 -28.7 -6.45 -29.4 -9.4 -29.3
L -12.15 -29.25
Q -14.1 -29.05 -14.7 -29.05 -15.65 -28.95 -16.2 -29.05 -16.45 -29.1 -16.95 -29.3 -17.45 -29.5 -17.7 -29.5 -18.2 -29.6 -18.7 -29.25 -19.25 -28.9 -19.4 -28.4 -19.8 -27.35 -18.9 -26.1 -17.9 -24.55 -16 -23.05 -15.65 -22.75 -12.65 -20.55
L -8.6 -17.4
Q -6.95 -16.15 -6.15 -15.7 -5.25 -15.25 -4.8 -15.1 -4.1 -14.7 -3.65 -14.4 -2.4 -13.65 -0.95 -11.85 0.95 -9.5 1.5 -8.9 2.3 -8.25 2.9 -8.2 3.3 -8.15 4 -8.4 4.3 -8.55 5 -8.85 6.05 -9.15 7.4 -9.1 7.85 -9.15 9.9 -8.95 10.45 -8.9 10.75 -8.95 14.05 -4.1 18.15 0.2 19.25 1.5 20.15 1.15 20.55 1.05 20.75 0.65 20.95 0.3 20.9 -0.2 20.95 -0.85 20.45 -1.7 19.35 -3.95 16.6 -7.8 17.75 -9.05 18.2 -11.55 18.25 -12.35 18.45 -14.15 18.6 -15.65 18.95 -16.6 19.2 -17.15 19.65 -18.2 20.1 -19.1 20.05 -19.85 19.9 -20.85 18.55 -22.55
L 8.8 -33.7
Q 6.8 -35.95 6.25 -36.95 5.25 -38.75 5.2 -38.8
M 3.1 -34.3
Q 3.65 -33.45 4.65 -32.45 5.85 -31.3 6.3 -30.75
L 7.25 -29.8 7.4 -29.65
Q 7.45 -29.6 7.5 -29.55 7.6 -29.45 7.7 -29.35 9.3 -27.7 10.9 -25.7 13.4 -22.55 14.9 -21.1 15.9 -20 15.85 -19.35 15.85 -19.15 15.65 -18.7 15.5 -18.35 15.35 -18.15 14.9 -17.3 14.85 -15.95 14.9 -14.35 14.8 -13.6 14.35 -12.2 14.2 -11.2 12.55 -13.65 11.75 -15.35 10.95 -16.95 10.9 -17.1 10.35 -18.05 9.65 -18.65
L 9.6 -18.7
Q 9.25 -18.95 8.8 -19.05 8.25 -19.2 7.7 -19.1 6.5 -19 6.2 -18.1 5.9 -17.2 6.75 -15.6 7.3 -14.6 7.85 -13.6 8.2 -12.95 8.55 -12.4 7.35 -12.7 6.05 -12.65 4.5 -12.5 4.1 -12.7 3.2 -13 2.35 -14.05 1.85 -14.6 0.95 -15.85 0.1 -16.85 -1.75 -17.95 -4.1 -19.35 -4.65 -19.75
L -5.7 -20.65
Q -6.3 -21.15 -6.8 -21.4 -7.4 -21.85 -8.75 -22.45 -9.35 -22.8 -10.65 -24.05 -11.8 -25.2 -12.65 -25.6 -10.45 -26.1 -6.4 -25.55 -1.85 -24.9 0 -25.1 1.25 -25.2 1.7 -25.8 2.25 -26.3 2.35 -27.3 2.35 -27.8 2.25 -29.1 2 -31.8 3.1 -34.3
M 30.75 -47.65
Q 30.45 -46.9 30.75 -45.2 30.85 -44.35 32 -36.4 32.55 -33.25 32.6 -31.7 32.95 -27.9 32.25 -25.3
L 31.9 -23.9
Q 31.75 -23.05 31.85 -22.45 32.05 -21.5 33.1 -20.6 34.45 -19.65 35 -19.1 35.65 -18.6 36.65 -17.2 37.6 -16.1 38.3 -15.5 39.3 -14.7 39.7 -14.25 40 -13.9 40.35 -13.35 40.5 -12.95 40.65 -12.7
L 40.45 -8.55 40.7 -5.65
Q 40.8 -4.2 40.75 -0.3
L 40.7 2.8
Q 40.45 11.3 40.15 14.65 39.9 18.1 39.9 19.5 39.95 22.15 40.8 24.1 41.3 25.2 41.95 25.15 42.55 25 42.95 23.95 43.3 23.1 43.65 21.3 44.25 18.35 44.55 14.7 44.7 12.3 44.8 7.95
L 45.1 -0.85
Q 45.25 -2.45 45.1 -4.1
L 45.05 -7.6
Q 44.9 -8.85 44.9 -10.3 45.55 -10.75 46.3 -11.45 48 -13.15 48.7 -14.05
L 50.15 -16.4
Q 51.45 -18.25 53.45 -19.75 55.55 -21 56.1 -21.75 56.95 -23 57.1 -25.7 57.25 -27.7 57.3 -31.8 57.35 -35.25 57.8 -37.7 58.3 -40.25 57.25 -41.1 56.75 -41.45 56.1 -41.35 55.4 -41.35 54.85 -41 54.35 -40.7 52.95 -39.35 51 -37.65 46.55 -36.05 45.65 -35.6 44.8 -35.55 42.45 -35.35 39.85 -39
L 33.75 -47.65
Q 33.15 -48.65 32.55 -48.8 32 -48.95 31.4 -48.55 30.95 -48.2 30.75 -47.65
M 34.7 -40.9
Q 35.55 -40 36.8 -38.2 38.15 -36.3 38.9 -35.5 41.7 -32.3 44.8 -32.4 46.15 -32.45 48.5 -33.65
L 50.55 -34.65 50.55 -34.65 54.45 -36.55 54.35 -28.35
Q 54.35 -27 54.2 -26.3 54.05 -25.15 53.6 -24.35 53.05 -23.5 52.15 -22.75 50.95 -21.95 50.4 -21.6 48.15 -19.95 45.95 -17.1 45.45 -16.4 44.95 -15.65
L 45 -16.8
Q 44.9 -18.5 44.65 -19.2 44.35 -19.75 44 -20.1 43.9 -20.2 43.8 -20.2 43.3 -20.55 42.75 -20.5 42.155859375 -20.462890625 41.7 -20.05
L 41.75 -20.05
Q 41.6986328125 -20.02421875 41.65 -20 41.5408203125 -19.8771484375 41.45 -19.75
L 41.2 -19.3
Q 40.95 -18.75 40.85 -17.75 40.45 -18.2 39.95 -18.7 37.5 -21.15 37.15 -21.65 37 -21.75 36.85 -21.95 36.85 -22 36.85 -22.05 36.75 -22.05 36.75 -22.1 36.7 -22.15 36.7 -22.2
L 35.7 -24.05
Q 35.6498046875 -24.1669921875 35.6 -24.3
L 35.6 -24.35
Q 35.48671875 -24.6830078125 35.45 -25.05 35.3 -26.1 35.6 -27.7 36 -29.8 36.05 -30.3 36.1 -31.9 35.15 -35.55 34.4 -39 34.7 -40.9 Z"/>

<path fill="#CC66FF" stroke="none" d="
M -16.75 80.6
Q -15.35 80.95 -15 81.8 -14.85 82.3 -15.3 83.5 -17.6 88.35 -20.6 94.4
L -18.1 92.75
Q -16.75 90.05 -15.95 88.5 -14.15 84.95 -9.35 78 -14.25 77.3 -19.2 76.15 -22.75 78.6 -27.05 79.85 -20.35 79.65 -16.75 80.6
M -15.05 46.8
Q -15.2 46.85 -15.35 46.8 -14.1 47.85 -11.25 49.65 -8.75 51.45 -8.25 53.5 -7.85 55.35 -8.95 57.45 -9.7 58.9 -11.5 60.9 -11.45 60.95 -11.4 61.05 -11.2 60.9 -11 60.8 -7.05 57.8 -5.95 56.75 -3.1 53.9 -1.65 52.6 -4.3 50.85 -8.15 49.3 -9.4 48.8 -15.05 46.8
M -36.7 29.55
Q -36.95 29.1 -37.15 28.8 -39.75 28.4 -44.4 29.7 -49.65 31.15 -52.1 30.8 -52.15 31.65 -50.75 32.65 -48.05 34.75 -46.75 35.7 -44.65 37.3 -44.05 38.45 -43.45 39.4 -43.4 40.5 -43.5 41.65 -43.95 42.7 -44.35 43.55 -45.95 45.05
L -50.3 49.1 -47.2 48.35 -29.65 37.35
Q -29.95 37.3 -30.3 37.25 -30.3 37 -30.25 36.75 -34 33.7 -36.7 29.55
M 0.25 15.65
Q 0.2 15 0.5 14.55 -0.2 14.05 -0.9 13.5 -2.9 11.6 -3.95 10.8 -7.1 8.65 -8.55 7.4 -10.05 6.1 -11.5 4.35 -12.2 4.2 -12.7 3.9 -12.85 4.95 -11.75 6.15 -10.25 7.95 -10 8.35 -8.9 10.3 -10.35 13.45 -12.2 17.3 -15.65 19.55 -13.4 20.45 -8.8 20.5 -3.85 20.55 -1.85 21.2 -0.6 21.6 -0.05 21.5 0.55 21.35 1.4 20.65 2.2576171875 19.92109375 3.15 19.3 3.3 19 3.5 18.65 3.55 18.55 3.65 18.45 1.85 18.05 1 17.4 0.25 16.75 0.25 15.65
M 4.65 -32.45
Q 3.65 -33.45 3.1 -34.3 2 -31.8 2.25 -29.1 2.35 -27.8 2.35 -27.3 2.25 -26.3 1.7 -25.8 1.25 -25.2 0 -25.1 -1.85 -24.9 -6.4 -25.55 -10.45 -26.1 -12.65 -25.6 -11.8 -25.2 -10.65 -24.05 -9.35 -22.8 -8.75 -22.45 -7.4 -21.85 -6.8 -21.4 -6.3 -21.15 -5.7 -20.65
L -4.65 -19.75
Q -4.1 -19.35 -1.75 -17.95 0.1 -16.85 0.95 -15.85 1.85 -14.6 2.35 -14.05 2.35 -14.1 2.3 -14.15 2.9 -14.1 3.55 -14 6.2 -13.6 7.85 -13.6 7.3 -14.6 6.75 -15.6 5.9 -17.2 6.2 -18.1 6.5 -19 7.7 -19.1 8.25 -19.2 8.8 -19.05 8.2 -24.5 7.25 -29.8
L 6.3 -30.75
Q 5.85 -31.3 4.65 -32.45
M 36.8 -38.2
Q 35.55 -40 34.7 -40.9 34.4 -39 35.15 -35.55 36.1 -31.9 36.05 -30.3 36 -29.8 35.6 -27.7 35.3 -26.1 35.45 -25.05 35.48671875 -24.6830078125 35.6 -24.35 35.55 -24.5171875 35.55 -24.7 36 -24.5 36.7 -24.15 37.9 -23.5 38.65 -22.95 39 -22.7 40.9 -20.85 41.2927734375 -20.358984375 41.7 -20.05 42.155859375 -20.462890625 42.75 -20.5 43.3 -20.55 43.8 -20.2 43.9 -20.2 44 -20.1 45.05 -21.75 46.05 -24 46.8 -25.65 48.15 -29.05
L 50 -33.4
Q 50.2451171875 -34.086328125 50.55 -34.65
L 48.5 -33.65
Q 46.15 -32.45 44.8 -32.4 41.7 -32.3 38.9 -35.5 38.15 -36.3 36.8 -38.2 Z"/>

<path fill="#71368A" stroke="none" d="
M -11.95 73.6
Q -14.5 73.6 -15.5 73.9 -16.25 74.15 -17.2 74.75 -17.7 75.1 -18.75 75.9 -18.95 76 -19.2 76.15 -14.25 77.3 -9.35 78 -14.15 84.95 -15.95 88.5 -16.75 90.05 -18.1 92.75
L -16.45 91.65
Q -13.15 89.6 -11.75 89.1 -9.95 88.5 -9.35 88 -8.6 87.35 -7.95 85.5
L -4.55 75.3
Q -4.7 75.1 -4.75 74.95 -4.4 74.6 -4.35 73.9 -4.35 73.8 -4.35 73.75
L -11.95 73.6
M 4.3 49.6
L 4.3 49.55
Q 4.15 49.2 4.15 48.85 3 48.6 -0.1 47.7 -2.4 46.95 -3.45 46.3 -4.25 45.9 -4.6 45.65 -5.3 45.25 -5.85 45.05 -7.5 44.6 -10.55 45.8 -13.55 46.95 -15.05 46.8 -9.4 48.8 -8.15 49.3 -4.3 50.85 -1.65 52.6 -3.1 53.9 -5.95 56.75 -7.05 57.8 -11 60.8 -11.2 60.9 -11.4 61.05 -11.05 61.45 -10.15 61.05 -4.95 59.05 0.85 57.75 1.65 53.85 3.8 50.45 4.15 50 4.3 49.6
M -39.65 46.4
Q -36.6 45.75 -33.55 45.6 -32.35 45.4 -32.1 45.3 -31.65 45.15 -30.95 44.45
L -22.8 37.05
Q -24.2 37.25 -25.45 37.35 -25.6 37.4 -25.8 37.4 -27.25 37.5 -28.65 37.4 -29.1 37.35 -29.6 37.3
L -29.65 37.35 -47.2 48.35 -45.1 47.7
Q -42.3 47 -39.65 46.4
M -30.25 36.75
Q -30.25 36.5 -30.1 36.35 -30 35.85 -29.55 35.35 -28.9 34.5 -27.8 34.15 -27.1 33.8 -25.8 33.6 -24.1 33.25 -23.65 33.15 -22.5 32.8 -21.7 32.6 -21.85 32.55 -21.85 32.5 -23.2 32.1 -26.05 31.9 -28.85 31.8 -30.15 31.4 -31.1 31.15 -33.4 30.05 -35.4 29.1 -36.65 28.85
L -36.7 28.85
Q -36.95 28.8 -37.15 28.8 -36.95 29.1 -36.7 29.55 -34 33.7 -30.25 36.75
M 0.5 14.55
Q 0.65 14.3 0.9 14.05 1.7 13.6 3.2 13.95
L 8 14.9
Q 6.45 12.55 4.35 10.15 1.7 7.35 -0.7 6.45 -2.5 5.6 -6.75 5.2 -9.7 4.9 -11.5 4.35 -10.05 6.1 -8.55 7.4 -7.1 8.65 -3.95 10.8 -2.9 11.6 -0.9 13.5 -0.2 14.05 0.5 14.55
M 4.2 18.55
Q 3.95 18.5 3.65 18.45 3.55 18.55 3.5 18.65 3.3 19 3.15 19.3 3.300390625 19.1998046875 3.45 19.1 3.8 18.8 4.2 18.55
M 2.35 -14.05
Q 3.2 -13 4.1 -12.7 4.5 -12.5 6.05 -12.65 7.35 -12.7 8.55 -12.4 8.2 -12.95 7.85 -13.6 6.2 -13.6 3.55 -14 2.9 -14.1 2.3 -14.15 2.35 -14.1 2.35 -14.05
M 7.7 -29.35
Q 7.6 -29.45 7.5 -29.55 7.45 -29.6 7.4 -29.65
L 7.25 -29.8
Q 8.2 -24.5 8.8 -19.05 9.25 -18.95 9.6 -18.7
L 9.65 -18.65
Q 10.35 -18.05 10.9 -17.1 10.95 -16.95 11.75 -15.35 12.55 -13.65 14.2 -11.2 14.35 -12.2 14.8 -13.6 14.9 -14.35 14.85 -15.95 14.9 -17.3 15.35 -18.15 15.5 -18.35 15.65 -18.7 15.85 -19.15 15.85 -19.35 15.9 -20 14.9 -21.1 13.4 -22.55 10.9 -25.7 9.3 -27.7 7.7 -29.35
M 50 -33.4
L 48.15 -29.05
Q 46.8 -25.65 46.05 -24 45.05 -21.75 44 -20.1 44.35 -19.75 44.65 -19.2 44.9 -18.5 45 -16.8
L 44.95 -15.65
Q 45.45 -16.4 45.95 -17.1 48.15 -19.95 50.4 -21.6 50.95 -21.95 52.15 -22.75 53.05 -23.5 53.6 -24.35 54.05 -25.15 54.2 -26.3 54.35 -27 54.35 -28.35
L 54.45 -36.55 50.55 -34.65 50.55 -34.65
Q 50.2451171875 -34.086328125 50 -33.4
M 35.6 -24.35
L 35.6 -24.3
Q 35.6498046875 -24.1669921875 35.7 -24.05
L 36.7 -22.2
Q 36.7 -22.15 36.75 -22.1 36.75 -22.05 36.85 -22.05 36.85 -22 36.85 -21.95 37 -21.75 37.15 -21.65 37.5 -21.15 39.95 -18.7 40.45 -18.2 40.85 -17.75 40.95 -18.75 41.2 -19.3
L 41.45 -19.75
Q 41.5408203125 -19.8771484375 41.65 -20 41.6986328125 -20.02421875 41.75 -20.05
L 41.7 -20.05
Q 41.2927734375 -20.358984375 40.9 -20.85 39 -22.7 38.65 -22.95 37.9 -23.5 36.7 -24.15 36 -24.5 35.55 -24.7 35.55 -24.5171875 35.6 -24.35 Z"/>
</g>

<g id="Bone_Archer_Head_0_Layer2_0_FILL">
<path fill="#000000" stroke="none" d="
M 86.9 64.75
Q 86.75 63.75 86.5 63.25 85.8 61.4 84.15 60.1 82.65 58.8 80.75 58.45 78.8 58.1 76.9 58.75 74.95 59.4 73.75 60.8 70.85 58.2 66.2 57.5 63.3 57 58.1 57.3 55.5 57.4 54.5 58.35 54.25 58.7 53.95 58.85 53.7 59.1 53.4 59.15 53 59.2 52.3 58.8 46.7 55.6 40.4 56.45 36.8 56.9 34.75 58.7 32.7 60.65 32 64.05
L 32 74.4
Q 32.0046875 74.24375 32.15 74.05
L 32.15 74.85
Q 32.3 76.8 32.4 77.7 32.7 79.25 33.5 80.2 34.2 81.3 36.4 82.3 40.95 84.25 48.05 84.45 52.05 84.6 60.15 84.6 61.25 84.65 64.7 84.95 67.4 85.2 69.2 85.25 73.3 85.3 78.55 84.4 82.65 83.7 84.7 82.15 86.1 81.05 86.75 79.4 86.89765625 79.44921875 86.9 79.55
L 86.9 64.75
M 84.3 65.1
Q 84.3 65.85 84.3 66.9 84.3 68.55 84.45 71.9 84.6 74.8 83.75 76.7 83.2 78.2 82.25 78.8 81.4 79.3 79.2 79.4 78.4 79.5 76.5 79.75 74.7 80.05 73.75 80.1 71.25 80.3 67.55 79.8 63.3 79.15 61.25 78.95 60.85 78.9 60.15 78.9 59.3 78.85 58.5 78.85 57.7 78.85 56.7 78.85 54.1 78.8 50 78.85 43 78.95 38.75 77.8 36.7 77.3 35.85 76.2 35.05 75.05 35.3 73.1 35.85 70.95 36 69.9 36.25 68.9 36.25 65.75 36.4 64.35 36.8 63.6 37.35 62.55 39.3 61.75 42.85 60.5 46.4 60.55 49.05 60.55 49.45 60.45 51.1 60 51.5 60.7 51.75 61.15 51.5 62.05 51.2 63.8 51.5 65.6 51.9 67.45 52.85 68.9 53.3 69.35 53.4 69.4 53.95 69.4 54.25 68.7 55.05 67.2 55.5 65.45 55.6 64.2 55.9 63.85 56.45 63.15 58.1 62.85
L 62.9 62.2 63.3 62.15 63.15 62.15 64.15 62.05
Q 64.4 62 64.8 61.95 67.15 61.6 69.5 61.3 70.7 61.1 71.4 61.55 71.8 61.95 72.1 63.05 72.65 65.35 72.65 67.35 72.5 67.9 72.75 68.3 73.05 68.8 73.3 68.75 73.75 68.7 74 68.05 74.55 67.95 74.95 67.15 75.25 66.1 75.4 65.6 76.2 63.95 78.65 63.55 79.2 63.5 79.65 63.5 81.15 63.45 82.65 64 83.35 64.25 83.9 64.65 84.15 64.85 84.3 65.05
L 84.3 65.1 Z"/>

<path fill="#D7D7C5" stroke="none" d="
M 66.75 62.45
Q 64.4 62.05 63.3 62.15
L 62.9 62.2
Q 60.95 62.5 60 63.75 58.9 65 58.75 68 58.65 69.8 58.5 71.35 58.65 71.7 58.65 72.1 59.3 75.2 60.55 76.3 61.95 77.65 64.95 77.45 67.15 77.3 68.5 76.45 68.5 76.25 68.5 76.05
L 68.5 64.4
Q 68.5 63.45 68.25 63.05 67.85 62.55 66.75 62.45
M 83.6 73.5
Q 83.75 72.45 83.9 68.65
L 83.9 64.65
Q 83.35 64.25 82.65 64 81.15 63.45 79.65 63.5 79.1 63.85 78.65 64.4 76.75 66.55 76.6 70.2 76.5 72.3 77.05 76.5 77.05 77.4 77.45 77.75 77.7 78 78.25 78.2 79.35 78.55 80.2 78.5 81.55 78.35 82.65 76.65 83.35 75.5 83.6 73.5
M 40.95 66.1
L 40.95 73.45
Q 40.95 74.3 41.05 74.65 41.35 75.3 42.6 75.7 45.2 76.45 47.8 76.45 48.9 76.45 49.3 76 49.6 75.6 49.45 74.6 49.3 72.25 49.7 68.25 50.4 63.55 50.4 61.9 46.7 61.5 43.15 62.8 41.75 63.3 41.35 64.05 40.95 64.65 40.95 66.1 Z"/>

<path fill="#929274" stroke="none" d="
M 84.3 66.9
Q 84.3 65.85 84.3 65.1
L 84.3 65.05
Q 84.15 64.85 83.9 64.65
L 83.9 68.65
Q 83.75 72.45 83.6 73.5 83.35 75.5 82.65 76.65 81.55 78.35 80.2 78.5 79.35 78.55 78.25 78.2 77.7 78 77.45 77.75 77.05 77.4 77.05 76.5 76.5 72.3 76.6 70.2 76.75 66.55 78.65 64.4 79.1 63.85 79.65 63.5 79.2 63.5 78.65 63.55 76.2 63.95 75.4 65.6 75.25 66.1 74.95 67.15 74.55 67.95 74 68.05 73.75 68.7 73.3 68.75 73.05 68.8 72.75 68.3 72.5 67.9 72.65 67.35 72.65 65.35 72.1 63.05 71.8 61.95 71.4 61.55 70.7 61.1 69.5 61.3 67.15 61.6 64.8 61.95 64.4 62 64.15 62.05
L 63.15 62.15 63.3 62.15
Q 64.4 62.05 66.75 62.45 67.85 62.55 68.25 63.05 68.5 63.45 68.5 64.4
L 68.5 76.05
Q 68.5 76.25 68.5 76.45 67.15 77.3 64.95 77.45 61.95 77.65 60.55 76.3 59.3 75.2 58.65 72.1 58.65 71.7 58.5 71.35 58.65 69.8 58.75 68 58.9 65 60 63.75 60.95 62.5 62.9 62.2
L 58.1 62.85
Q 56.45 63.15 55.9 63.85 55.6 64.2 55.5 65.45 55.05 67.2 54.25 68.7 53.95 69.4 53.4 69.4 53.3 69.35 52.85 68.9 51.9 67.45 51.5 65.6 51.2 63.8 51.5 62.05 51.75 61.15 51.5 60.7 51.1 60 49.45 60.45 49.05 60.55 46.4 60.55 42.85 60.5 39.3 61.75 37.35 62.55 36.8 63.6 36.4 64.35 36.25 65.75 36.25 68.9 36 69.9 35.85 70.95 35.3 73.1 35.05 75.05 35.85 76.2 36.7 77.3 38.75 77.8 43 78.95 50 78.85 54.1 78.8 56.7 78.85 57.7 78.85 58.5 78.85 59.3 78.85 60.15 78.9 60.85 78.9 61.25 78.95 63.3 79.15 67.55 79.8 71.25 80.3 73.75 80.1 74.7 80.05 76.5 79.75 78.4 79.5 79.2 79.4 81.4 79.3 82.25 78.8 83.2 78.2 83.75 76.7 84.6 74.8 84.45 71.9 84.3 68.55 84.3 66.9
M 40.95 73.45
L 40.95 66.1
Q 40.95 64.65 41.35 64.05 41.75 63.3 43.15 62.8 46.7 61.5 50.4 61.9 50.4 63.55 49.7 68.25 49.3 72.25 49.45 74.6 49.6 75.6 49.3 76 48.9 76.45 47.8 76.45 45.2 76.45 42.6 75.7 41.35 75.3 41.05 74.65 40.95 74.3 40.95 73.45 Z"/>
</g>

<g id="Bone_Archer_Head_0_Layer1_0_FILL">
<path fill="#000000" stroke="none" d="
M 39.3 -10
Q 29.65 -6.9 21.5 -1.1 14.8 3.7 13.2 8.8 12 12.9 13.55 19.9 14.8 25.55 17.8 36.85 20 46.75 19.3 53.95 19.1 55.8 19.1 56.2 19.1 57.45 19.4 58.4 19.75 59.5 20.75 60.2 21.75 60.9 22.8 60.6 22.05 63.3 22 65 21.9 67.45 23.1 69 24.25 70.45 27.2 71.4 35.2 74.15 43.65 73.15 54.3 77.6 65.7 76.05 67.55 75.8 68.8 75 70.3 74 70.15 72.55 71.4 75.05 74.7 75.5 76.8 75.8 80.3 74.9 89.7 72.6 98.2 68.05 105.2 64.45 105.3 59.85 105.35 58.65 104.85 57.15 104.7 56.7 103.8 54.55 100 45.8 99.4 36.05 98.8 26.3 101.45 17.1 102.55 13.4 102.8 12.3 103.35 9.55 102.9 7.45 101.95 3.35 96.4 -0.75 88.3 -6.65 78.65 -9.8 69 -13 59 -13.05 49 -13.1 39.3 -10
M 56.2 -7.85
Q 57.25 -7.9 58.25 -7.9 62.5 -7.9 66.8 -7.3 66.2 -6 65.45 -4.5 64.55 -2.7 63.45 -0.65 62.85 0.5 62.2 0.9 61.55 1.3 59.75 1.2 57 1.05 54.8 1.3 52.65 1.5 51.75 2.35 51.25 2.85 50.45 4.8 49.7 6.75 48.4 8.45 48.2 8.65 48.05 8.9 47.8 9.2 47.5 9.5 46.95 10.1 46.6 10.55 45.6 10 44.15 9.7
L 40.15 8.75
Q 37.05 8.1 35.5 8.65 35.4 8.65 35.3 8.7 34.3 9.15 32.8 10.75
L 30.75 12.9
Q 30.2 13.6 30.15 13.85 30.1 14.15 30.3 14.4 30.45 14.65 30.75 14.6
L 33.2 12.45
Q 34.9 11.1 35.8 10.85 37.5 10.45 39.85 11.65 41.6 12.55 41.7 12.6 42.8 13.1 43.7 13.2 44.45 13.25 45.45 13.1 45.35 13.8 45.4 14.65 45.45 15.65 45.45 17 44.8 17.05 44.45 17.15 43.35 17.45 41.45 18.85 39.45 20.35 38.25 21.65 36.8 23.45 35.8 26 33.6 31.35 33.75 36.2 33.8 37.15 33.9 38.05 33.95 38.35 34 38.6 33.95 38.6 33.9 38.6 32.65 38.55 30.45 37.1 29.9 36.65 29.55 36.55
L 29.5 36.55
Q 29.25 36.5 29.1 36.55 28.9 36.6 28.8 36.7 28.65 36.75 28.6 36.9 28.25 37.4 28.85 38.15 28.95 38.25 29.05 38.4 30 39.7 31.8 40.65 32.15 40.85 32.55 41 33.55 41.5 35.05 42 35 41.9 35 41.85 35.05 41.95 35.1 42.05 35.25 42.35 35.4 42.65 36.85 45.3 39.75 47.1
L 39.8 47.15
Q 41.45 48.15 43.35 48.8 43.5 48.85 43.65 48.9 44.55 49.2 45.5 49.4 45.65 49.4 45.8 49.45 52.45 50.7 59.3 48.25 59.65 48.1 60.05 48 60.1 47.95 60.2 47.9 63.35 46.7 65.3 45.05 67.75 42.95 70 38.75 71.3 36.35 71.65 34.6 72 33 71.8 30.3 71.7 27.6 71.15 25.8 70.95 25.1 70.65 24.4 69.25 21.35 66 19 62.8 16.65 58 15.75 54.15 15 51.3 15.75 51.05 15.8 50.85 15.85 48.9 16.55 47.85 16.8 47.85 16.75 47.9 16.75 47.9 16.05 47.85 15.5 47.75 13.45 48 12.65 48.2 12 48.8 11.35 49.5 10.6 49.8 10.2 52.05 7.65 53.05 4.3 56 4.1 59 4.7 61.15 5.15 61.75 5.25 63.3 5.45 64.4 5 65.5 4.55 66.45 3.3 67 2.55 67.85 0.95
L 71.65 -6.45
Q 73 -6.15 74.4 -5.8 75.15 -5.6 75.85 -5.4 84 -3.05 91.3 1.25 91.5 1.35 91.7 1.5 97.35 5 98.2 8.75 98.6 10.45 98.25 12.7 98.2 12.9 98.15 13.1 98 13.95 96.95 17.4 94.85 24.5 94.75 31.95 94.7 34.3 94.9 36.75 94.95 37.75 95.1 38.75 95.1 38.9 95.15 39.15 95.15 39.55 95.25 39.95 95.3 40.55 95.4 41.15 95.4 41.25 95.45 41.35 95.45 41.5 95.5 41.65 95.5 41.8 95.55 41.95 96.3 46.4 97.8 50.6 98.7 53.15 99.85 55.65 100.7 57.4 100.95 58.25 101.45 59.75 101.3 60.95 101.1 62.45 99.8 63.9 98.95 64.9 97.15 66.25 94.9 63.25 94.75 59.45 94.75 58.2 94.7 57.6 94.6 56.55 94.25 55.85 94.15 55.65 94 55.5 93.55 54.95 92.85 54.7 91.85 54.35 91.25 55 90.75 55.55 90.75 56.9 90.8 58.65 91 60.4 91.15 61.55 91.4 62.7 91.8 64.4 92.35 66.05 92.4 66.1 92.4 66.15 92.45 66.25 92.5 66.4 83.65 70.55 73.8 71.75
L 73.35 68.35 72.45 61.45
Q 72 58.4 70.4 58.3 68.65 58.15 67.9 61 67.25 63.3 66.85 65.7 66.4 68.5 66.3 71.35 57.55 72.4 48.95 71.3 48.4 71.25 48 71.1 47.25 70.9 46.9 70.55 46.15 69.8 46.45 67.45
L 48 58.45
Q 48.35 57.15 47.55 56.85 46.75 56.6 46.2 57.95
L 44.65 61.6 42.65 66.2
Q 41.9 67.75 41.3 68.1 40.5 68.6 38.55 68.4
L 31.85 67.5
Q 30.05 67.25 29.15 66.95 27.7 66.5 26.85 65.65 25.05 63.85 25.7 58.85 25.7 58.7 25.75 58.6
L 25.75 58.55
Q 26.35 53.45 25.05 51.6
L 23.1 57.2
Q 24.15 48.7 21.9 36.95 18.8 23.55 17.45 16.85 16.6 12.8 17.25 10.45 18.1 7.55 22.15 4.35 29.35 -1.25 38.2 -4.4 46.95 -7.5 56.2 -7.85
M 61.8 21.1
Q 63.3 22.25 64.1 23.65 64.75 24.2 65.25 24.85 66.8 26.9 67.25 30.7 67.45 32.85 67.2 33.95 66.95 35.25 65.65 37.3 63.55 40.7 61.9 41.95 60.85 42.7 58.45 43.6 56.2 44.5 54.9 44.7 53.85 44.9 51.7 45 47.3 45.2 44.85 44.6 41 43.75 39.35 40.85 38.6 39.7 38.35 38 37.35 32.7 40.05 26.25 41.3 22.95 43.35 22.1 43.35 22.15 43.4 22.2 43.5 22.05 43.65 21.95 45.15 20.6 49 19.7 53.65 18.6 56.05 18.85 59.25 19.15 61.8 21.1
M 93.9 34
Q 94.05 32.3 93.35 30.65 93.05 29.9 92.65 29.3 92.15 28.5 91.45 27.85 91.1 27.5 90.75 27.25 88.55 25.5 85.3 25.15 82 24.85 80.8 26.7
L 80.55 27.35 80.45 27.6
Q 80.4 27.75 80.35 27.9 80.3 27.95 80.3 28 80.2 28.3 80.05 28.65 80 28.7 78.95 30.55 76.55 34.25 77.4 37.3 78.2 40.45 81.85 41.85 84.05 42.7 86.35 42.45 87.15 42.35 88 42.15 89.95 41.55 90.95 40.45 91.7 39.7 92.45 38.2
L 92.45 38.15
Q 92.5 38.1 92.5 38.05 93.75 35.6 93.9 34
M 81.8 30.15
Q 82.4 30.25 83.3 30.1
L 84.8 29.85
Q 87.25 29.7 88.85 31.45 89.9 32.6 89.85 33.8 89.8 34.25 89.6 34.85 89.45 35.2 89.15 35.9 88.5 37.35 88.35 37.5 87.7 38.15 86.7 38.4 84.75 38.85 83.35 38.3 81.6 37.65 80.9 36.05 80.65 35.4 80.55 33.95 80.55 31.35 81.8 30.15 Z"/>

<path fill="#CC66FF" stroke="none" d="
M 64.1 23.65
Q 63.3 22.25 61.8 21.1 59.25 19.15 56.05 18.85 53.65 18.6 49 19.7 45.15 20.6 43.65 21.95 43.5 22.05 43.4 22.2 43.35 22.15 43.35 22.1 41.3 22.95 40.05 26.25 37.35 32.7 38.35 38 38.6 39.7 39.35 40.85 41 43.75 44.85 44.6 47.3 45.2 51.7 45 53.85 44.9 54.9 44.7 56.2 44.5 58.45 43.6 60.85 42.7 61.9 41.95 63.55 40.7 65.65 37.3 66.95 35.25 67.2 33.95 67.45 32.85 67.25 30.7 66.8 26.9 65.25 24.85 64.75 24.2 64.1 23.65 Z"/>

<path fill="#929274" stroke="none" d="
M 54.65 56.6
Q 53.55 56.05 51.6 54.8 49.5 53.4 48.15 52.95 47.75 52.85 47.4 52.8 47.6 52.8 47.85 52.8 46.9 52.75 46.05 52.7 45.1 52.85 43.4 53.95 42.45 54.55 41.6 55 42.7 55.65 43.15 56.15 44.1 57.25 44.4 59.4 44.55 60.5 44.65 61.6
L 46.2 57.95
Q 46.75 56.6 47.55 56.85 48.35 57.15 48 58.45
L 46.45 67.45
Q 46.15 69.8 46.9 70.55 47.25 70.9 48 71.1 47.9 70.45 47.9 69.4 47.9 67.9 48.15 67.2
L 48.7 65.85
Q 48.9 65.35 48.95 64.55 49.05 63.35 49.1 63.2 49.35 61.5 50.85 59.35 51.6 58.25 52.3 57.7 52.9 57.2 54.3 56.7 54.5 56.65 54.65 56.6
M 43.65 48.9
Q 43.5 48.85 43.35 48.8 41.45 48.15 39.8 47.15
L 39.75 47.1
Q 36.85 45.3 35.4 42.65 35.25 42.35 35.1 42.05 35.05 41.95 35 41.85 35 41.9 35.05 42 33.55 41.5 32.55 41 32.55 41.2 32.6 41.4 33.9 47.2 38.2 49.4 39.6 50.15 42.25 50.7
L 49.25 52.4
Q 52.5 53.25 54.5 53.2 57.35 53.2 60.85 51.45 64.9 49.4 67.55 46.5 70.15 43.6 71.35 39.7 72.55 35.9 72.2 31.9 71.8 29.2 71.75 27.85 71.65 26.1 71.45 25.6 71.15 24.75 70.65 24.4 70.95 25.1 71.15 25.8 71.7 27.6 71.8 30.3 72 33 71.65 34.6 71.3 36.35 70 38.75 67.75 42.95 65.3 45.05 63.35 46.7 60.2 47.9 60.1 47.95 60.05 48 59.65 48.1 59.3 48.25 52.45 50.7 45.8 49.45 45.65 49.4 45.5 49.4 44.55 49.2 43.65 48.9
M 43.9 7.25
Q 41.05 6.9 40.65 6.8 38.7 6.35 38.65 6.35 37.45 6.2 36.6 6.4 35.6 6.6 34.15 7.85 30.55 11.05 29.15 15.8 29.05 16.25 29.15 16.45 29.3 16.85 29.8 16.65 30.25 16.5 30.6 16.1 32.2 13.9 33.1 12.85 34.45 11.45 35.8 10.85 34.9 11.1 33.2 12.45
L 30.75 14.6
Q 30.45 14.65 30.3 14.4 30.1 14.15 30.15 13.85 30.2 13.6 30.75 12.9
L 32.8 10.75
Q 34.3 9.15 35.3 8.7 35.4 8.65 35.5 8.65 37.05 8.1 40.15 8.75
L 44.15 9.7
Q 45.6 10 46.6 10.55 46.95 10.1 47.5 9.5 47.8 9.2 48.05 8.9 48.2 8.65 48.4 8.45 47.65 8.1 47.1 7.9 45.9 7.5 43.9 7.25
M 95.4 52.25
Q 93.95 52.95 92.3 53 90.25 53.1 87.35 51.9 86.35 51.5 85.65 51.05 85.55 51.35 85.45 51.7 85.4 51.9 85.35 52.05 84.8 53.7 84.1 54.5 83.3 55.45 81.85 56 81 56.35 79.1 56.75 76 57.35 74.35 57.45 71.7 57.6 69.75 56.85 68.9 56.55 67.6 55.8 66.7 55.25 66.1 54.95 65.8 54.8 65.6 54.7
L 65.45 54.8
Q 63.65 56.5 61.15 57.1 61.8 57.5 62.45 58.15 65.7 61.3 66.85 65.7 67.25 63.3 67.9 61 68.65 58.15 70.4 58.3 72 58.4 72.45 61.45
L 73.35 68.35
Q 73.7 65.45 74.55 63.05 74.95 61.9 75.35 61.25 76.4 59.5 78.7 58 80.55 56.9 82 56.7 83 56.6 85 57 87.45 57.55 88.75 58.35 89.85 59.05 91 60.4 90.8 58.65 90.75 56.9 90.75 55.55 91.25 55 91.85 54.35 92.85 54.7 93.55 54.95 94 55.5 94.5 53.4 95.4 52.25
M 93.35 30.65
Q 94.05 32.3 93.9 34 93.75 35.6 92.5 38.05 92.5 38.1 92.45 38.15
L 92.45 38.2
Q 91.7 39.7 90.95 40.45 89.95 41.55 88 42.15 87.15 42.35 86.35 42.45 84.05 42.7 81.85 41.85 78.2 40.45 77.4 37.3 76.55 34.25 78.95 30.55 80 28.7 80.05 28.65 80.2 28.3 80.3 28 80.3 27.95 80.35 27.9 80.4 27.75 80.45 27.6
L 80.55 27.35
Q 80 27.55 79.65 27.8 78.25 28.65 77.1 31.2 75.7 34.25 75.65 36.7 75.55 39.9 77.4 41.95 79.7 44.55 84.95 44.75 91.6 45.05 94.3 41.55 94.85 40.8 95.25 39.95 95.15 39.55 95.15 39.15 95.1 38.9 95.1 38.75 94.95 37.75 94.9 36.75 94.7 34.3 94.75 31.95 94.15 30.45 93.15 29.25 92.05 27.95 90.75 27.25 91.1 27.5 91.45 27.85 92.15 28.5 92.65 29.3 93.05 29.9 93.35 30.65
M 72.05 -0.5
Q 74.15 -3.3 75.3 -4.7 75.6 -5.05 75.85 -5.4 75.15 -5.6 74.4 -5.8 73 -6.15 71.65 -6.45
L 67.85 0.95
Q 67 2.55 66.45 3.3 65.5 4.55 64.4 5 63.3 5.45 61.75 5.25 61.15 5.15 59 4.7 56 4.1 53.05 4.3 52.05 7.65 49.8 10.2 49.5 10.6 48.8 11.35 48.2 12 48 12.65 47.75 13.45 47.85 15.5 47.9 16.05 47.9 16.75 47.85 16.75 47.85 16.8 48.9 16.55 50.85 15.85 51.05 15.8 51.3 15.75 51.35 15.1 51.4 14.4 51.5 13.3 51.75 12.85 52 12.3 52.65 11.65
L 53.7 10.6
Q 53.95 10.35 54.75 9.05 55.3 8.1 55.9 7.7 56.8 7.1 58.3 7.25 58.95 7.35 60.8 7.85 64.25 8.9 66.2 7.65 67 7.15 67.65 6.2 67.95 5.75 68.75 4.35 69.4 3.2 72.05 -0.5
M 58.25 -7.9
Q 57.25 -7.9 56.2 -7.85 46.95 -7.5 38.2 -4.4 29.35 -1.25 22.15 4.35 18.1 7.55 17.25 10.45 16.6 12.8 17.45 16.85 18.8 23.55 21.9 36.95 24.15 48.7 23.1 57.2
L 25.05 51.6
Q 26.35 53.45 25.75 58.55 25.85 58.45 25.95 58.3 26.95 57.05 27.35 56.35 28.7 54.4 29.2 54.05 29.8 53.7 31.65 53.35 32.15 53.25 32.85 53.05 30.8 50.95 30.2 49.4 29.9 48.6 29.7 46.9
L 29.25 42.8
Q 28.95 40.35 29.05 38.65
L 29.15 39.1 29.05 38.4
Q 28.95 38.25 28.85 38.15 28.25 37.4 28.6 36.9 28.65 36.75 28.8 36.7
L 28.25 33.05
Q 27.2 26.1 27.2 22.15 27.2 20.05 27.2 19 27.15 17.2 26.85 15.95 26.5 14.65 26.35 14 26.1 12.85 26.2 12.05 26.35 10.8 27.3 9.6 27.9 8.8 29.25 7.6 34.35 3.1 37.25 1.3 39.75 -0.3 43.5 -1.9 45.65 -2.8 50 -4.55 56.7 -7.4 58.25 -7.9 Z"/>

<path fill="#D7D7C5" stroke="none" d="
M 85 57
Q 83 56.6 82 56.7 80.55 56.9 78.7 58 76.4 59.5 75.35 61.25 74.95 61.9 74.55 63.05 73.7 65.45 73.35 68.35
L 73.8 71.75
Q 83.65 70.55 92.5 66.4 92.45 66.25 92.4 66.15 92.4 66.1 92.35 66.05 91.8 64.4 91.4 62.7 91.15 61.55 91 60.4 89.85 59.05 88.75 58.35 87.45 57.55 85 57
M 75.3 -4.7
Q 74.15 -3.3 72.05 -0.5 69.4 3.2 68.75 4.35 67.95 5.75 67.65 6.2 67 7.15 66.2 7.65 64.25 8.9 60.8 7.85 58.95 7.35 58.3 7.25 56.8 7.1 55.9 7.7 55.3 8.1 54.75 9.05 53.95 10.35 53.7 10.6
L 52.65 11.65
Q 52 12.3 51.75 12.85 51.5 13.3 51.4 14.4 51.35 15.1 51.3 15.75 54.15 15 58 15.75 62.8 16.65 66 19 69.25 21.35 70.65 24.4 71.15 24.75 71.45 25.6 71.65 26.1 71.75 27.85 71.8 29.2 72.2 31.9 72.55 35.9 71.35 39.7 70.15 43.6 67.55 46.5 64.9 49.4 60.85 51.45 57.35 53.2 54.5 53.2 52.5 53.25 49.25 52.4
L 42.25 50.7
Q 39.6 50.15 38.2 49.4 33.9 47.2 32.6 41.4 32.55 41.2 32.55 41 32.15 40.85 31.8 40.65 30 39.7 29.05 38.4
L 29.15 39.1 29.05 38.65
Q 28.95 40.35 29.25 42.8
L 29.7 46.9
Q 29.9 48.6 30.2 49.4 30.8 50.95 32.85 53.05 32.15 53.25 31.65 53.35 29.8 53.7 29.2 54.05 28.7 54.4 27.35 56.35 26.95 57.05 25.95 58.3 25.85 58.45 25.75 58.55
L 25.75 58.6
Q 25.7 58.7 25.7 58.85 25.05 63.85 26.85 65.65 27.7 66.5 29.15 66.95 30.05 67.25 31.85 67.5
L 38.55 68.4
Q 40.5 68.6 41.3 68.1 41.9 67.75 42.65 66.2
L 44.65 61.6
Q 44.55 60.5 44.4 59.4 44.1 57.25 43.15 56.15 42.7 55.65 41.6 55 42.45 54.55 43.4 53.95 45.1 52.85 46.05 52.7 46.9 52.75 47.85 52.8 47.6 52.8 47.4 52.8 47.75 52.85 48.15 52.95 49.5 53.4 51.6 54.8 53.55 56.05 54.65 56.6 54.5 56.65 54.3 56.7 52.9 57.2 52.3 57.7 51.6 58.25 50.85 59.35 49.35 61.5 49.1 63.2 49.05 63.35 48.95 64.55 48.9 65.35 48.7 65.85
L 48.15 67.2
Q 47.9 67.9 47.9 69.4 47.9 70.45 48 71.1 48.4 71.25 48.95 71.3 57.55 72.4 66.3 71.35 66.4 68.5 66.85 65.7 65.7 61.3 62.45 58.15 61.8 57.5 61.15 57.1 63.65 56.5 65.45 54.8
L 65.6 54.7
Q 65.8 54.8 66.1 54.95 66.7 55.25 67.6 55.8 68.9 56.55 69.75 56.85 71.7 57.6 74.35 57.45 76 57.35 79.1 56.75 81 56.35 81.85 56 83.3 55.45 84.1 54.5 84.8 53.7 85.35 52.05 85.4 51.9 85.45 51.7 85.55 51.35 85.65 51.05 86.35 51.5 87.35 51.9 90.25 53.1 92.3 53 93.95 52.95 95.4 52.25 94.5 53.4 94 55.5 94.15 55.65 94.25 55.85 94.6 56.55 94.7 57.6 94.75 58.2 94.75 59.45 94.9 63.25 97.15 66.25 98.95 64.9 99.8 63.9 101.1 62.45 101.3 60.95 101.45 59.75 100.95 58.25 100.7 57.4 99.85 55.65 98.7 53.15 97.8 50.6 96.3 46.4 95.55 41.95 95.5 41.8 95.5 41.65 95.45 41.5 95.45 41.35 95.4 41.25 95.4 41.15 95.3 40.55 95.25 39.95 94.85 40.8 94.3 41.55 91.6 45.05 84.95 44.75 79.7 44.55 77.4 41.95 75.55 39.9 75.65 36.7 75.7 34.25 77.1 31.2 78.25 28.65 79.65 27.8 80 27.55 80.55 27.35
L 80.8 26.7
Q 82 24.85 85.3 25.15 88.55 25.5 90.75 27.25 92.05 27.95 93.15 29.25 94.15 30.45 94.75 31.95 94.85 24.5 96.95 17.4 98 13.95 98.15 13.1 98.2 12.9 98.25 12.7 97.9 11.85 97.45 10.95 96.55 9 94.5 5.75 92.85 3.05 91.9 1.75 91.8 1.6 91.7 1.5 91.5 1.35 91.3 1.25 84 -3.05 75.85 -5.4 75.6 -5.05 75.3 -4.7
M 50 -4.55
Q 45.65 -2.8 43.5 -1.9 39.75 -0.3 37.25 1.3 34.35 3.1 29.25 7.6 27.9 8.8 27.3 9.6 26.35 10.8 26.2 12.05 26.1 12.85 26.35 14 26.5 14.65 26.85 15.95 27.15 17.2 27.2 19 27.2 20.05 27.2 22.15 27.2 26.1 28.25 33.05
L 28.8 36.7
Q 28.9 36.6 29.1 36.55 29.25 36.5 29.5 36.55
L 29.55 36.55
Q 29.9 36.65 30.45 37.1 32.65 38.55 33.9 38.6 33.95 38.6 34 38.6 33.95 38.35 33.9 38.05 33.8 37.15 33.75 36.2 33.6 31.35 35.8 26 36.8 23.45 38.25 21.65 39.45 20.35 41.45 18.85 43.35 17.45 44.45 17.15 44.8 17.05 45.45 17 45.45 15.65 45.4 14.65 45.35 13.8 45.45 13.1 44.45 13.25 43.7 13.2 42.8 13.1 41.7 12.6 41.6 12.55 39.85 11.65 37.5 10.45 35.8 10.85 34.45 11.45 33.1 12.85 32.2 13.9 30.6 16.1 30.25 16.5 29.8 16.65 29.3 16.85 29.15 16.45 29.05 16.25 29.15 15.8 30.55 11.05 34.15 7.85 35.6 6.6 36.6 6.4 37.45 6.2 38.65 6.35 38.7 6.35 40.65 6.8 41.05 6.9 43.9 7.25 45.9 7.5 47.1 7.9 47.65 8.1 48.4 8.45 49.7 6.75 50.45 4.8 51.25 2.85 51.75 2.35 52.65 1.5 54.8 1.3 57 1.05 59.75 1.2 61.55 1.3 62.2 0.9 62.85 0.5 63.45 -0.65 64.55 -2.7 65.45 -4.5 66.2 -6 66.8 -7.3 62.5 -7.9 58.25 -7.9 56.7 -7.4 50 -4.55 Z"/>

<path fill="#666666" stroke="none" d="
M 83.3 30.1
Q 82.4 30.25 81.8 30.15 80.55 31.35 80.55 33.95 80.65 35.4 80.9 36.05 81.6 37.65 83.35 38.3 84.75 38.85 86.7 38.4 87.7 38.15 88.35 37.5 88.5 37.35 89.15 35.9 89.45 35.2 89.6 34.85 89.8 34.25 89.85 33.8 89.9 32.6 88.85 31.45 87.25 29.7 84.8 29.85
L 83.3 30.1 Z"/>

<path fill="#CCCC99" stroke="none" d="
M 94.5 5.75
Q 96.55 9 97.45 10.95 97.9 11.85 98.25 12.7 98.6 10.45 98.2 8.75 97.35 5 91.7 1.5 91.8 1.6 91.9 1.75 92.85 3.05 94.5 5.75 Z"/>
</g>

<g id="Bone_Archer_Head_0_Layer0_0_FILL">
<path fill="#000000" stroke="none" d="
M 150.15 7.2
Q 149.45 7.1 147.8 7.75 147 8.1 139.55 10.95 136.6 12.2 135.1 12.65 131.5 13.85 128.8 13.95
L 127.35 13.95
Q 126.5 13.95 125.95 14.2 125.15 14.6 124.45 15.8 123.8 17.15 123.4 17.85 123.1 18.5 121.95 19.75 121 20.9 120.6 21.65 120.05 22.75 119.7 23.2 119.5 23.55 118.95 23.9 118.6 24.15 118.4 24.35
L 114.35 25.15 111.55 26.15
Q 110.2 26.6 106.4 27.45
L 103.45 28.1
Q 95.15 29.95 91.75 30.5 88.4 31.1 87.05 31.5 84.45 32.2 82.8 33.4 81.8 34.1 82 34.65 82.25 35.25 83.4 35.2 84.3 35.3 86.1 35.2 89.1 35.1 92.7 34.45 95.05 34 99.3 33
L 107.9 31.15
Q 109.5 30.9 111.05 30.35
L 114.4 29.45
Q 115.6 29.1 117.05 28.7 117.6 29.25 118.4 29.7 120.5 30.7 121.5 31.2
L 124.1 31.85
Q 126.15 32.55 128.05 34 129.7 35.55 130.65 35.9 131.95 36.3 134.6 35.75 136.65 35.4 140.55 34.5 144 33.7 146.45 33.5 149.05 33.35 149.6 32.25 149.8 31.75 149.6 31.15 149.5 30.5 149 30.15 148.65 29.7 147.05 28.85 144.9 27.5 142.4 23.95 141.75 23.25 141.45 22.5 140.8 20.5 143.8 17.3
L 150.85 9.85
Q 151.7 9.05 151.7 8.5 151.75 8 151.2 7.55 150.8 7.2 150.15 7.2
M 144.55 12.3
Q 143.8 13.3 142.35 14.8 140.8 16.45 140.2 17.3 137.65 20.6 138.45 23.25 138.526171875 23.5109375 138.65 23.8 139.15859375 24.8412109375 140.45 26.25
L 144.55 30.85 136.7 32.75
Q 135.3 33.05 134.6 33.05 133.4 33.25 132.55 33 131.65 32.7 130.7 32.1 129.65 31.25 129.2 30.9 127.1 29.3 123.85 28 123.15 27.75 122.25 27.45
L 123.35 27.2
Q 124.95 26.75 125.6 26.3 126.2 25.9 126.45 25.35 126.4650390625 25.3083984375 126.45 25.25 126.638671875 24.7623046875 126.5 24.3 126.15 23.4 124.95 23.2 124.35 23.15 123.4 23.35 123.75 22.85 124.15 22.3 125.95 19.6 126.35 19.1 127.65 17.4 129.3 16.75 130.25 16.45 131.85 16.25 134.05 16.1 134.45 16.05 136.1 15.7 139.45 14 142.6 12.5 144.55 12.3 Z"/>

<path fill="#71368A" stroke="none" d="
M 138.65 23.8
Q 135.10390625 23.8361328125 133.7 23.95 132.4 24.05 127.3 24.9 126.912109375 24.9646484375 126.55 25 126.5203125 25.144140625 126.45 25.25 126.4650390625 25.3083984375 126.45 25.35 126.2 25.9 125.6 26.3 124.95 26.75 123.35 27.2
L 122.25 27.45
Q 123.15 27.75 123.85 28 127.1 29.3 129.2 30.9 129.65 31.25 130.7 32.1 131.65 32.7 132.55 33 133.4 33.25 134.6 33.05 135.3 33.05 136.7 32.75
L 144.55 30.85 140.45 26.25
Q 139.15859375 24.8412109375 138.65 23.8 Z"/>

<path fill="#CC66FF" stroke="none" d="
M 142.35 14.8
Q 143.8 13.3 144.55 12.3 142.6 12.5 139.45 14 136.1 15.7 134.45 16.05 134.05 16.1 131.85 16.25 130.25 16.45 129.3 16.75 127.65 17.4 126.35 19.1 125.95 19.6 124.15 22.3 123.75 22.85 123.4 23.35 124.35 23.15 124.95 23.2 126.15 23.4 126.5 24.3 126.638671875 24.7623046875 126.45 25.25 126.5203125 25.144140625 126.55 25 126.912109375 24.9646484375 127.3 24.9 132.4 24.05 133.7 23.95 135.10390625 23.8361328125 138.65 23.8 138.526171875 23.5109375 138.45 23.25 137.65 20.6 140.2 17.3 140.8 16.45 142.35 14.8 Z"/>
</g>

<g id="Bone_Archer_Bow_shooot_8_Layer4_0_FILL">
<path fill="#000000" stroke="none" d="
M 34.05 95.35
Q 34.0876953125 95.415234375 34.1 95.45
L 34.35 95.4
Q 33.6796875 95.993359375 33.15 96.75 32.6 97.6 32.75 98.45 32.9 99.05 33.6 99.35 33.7603515625 99.4234375 33.9 99.5 32.8853515625 99.1353515625 32.4 99.4 31.5 99.8 31.8 100.95 32.1 101.85 32.9 102.3 34.15 103.25 36.05 103.6 37.35 103.8 39.55 103.8 46.05 103.85 53.75 103.05
L 53.8 103.05
Q 53.9859375 103.52421875 54.4 103.75 55.15 103.55 55.55 102.8 55.95 102.05 55.85 101.25 55.75 99.95 54.4 98.55 50.634375 94.4078125 43.65 92.75 42.9171875 92.23671875 42.5 91.9 42.427734375 91.925390625 42.35 91.95 41.7166015625 92.15 41.15 92.3 40.9900390625 92.278125 40.8 92.25 39.1 92.05 38.2 92.4 37.7748046875 92.5771484375 37.45 92.9 36.2662109375 92.9396484375 35.6 93.15 35.38203125 93.22265625 35.15 93.3
L 31.9 93.8
Q 31.2 93.95 31.1 94.5 31.05 94.95 31.35 95.25 31.6 95.55 32 95.6 33.065625 95.7470703125 34.05 95.35
M 34.1 97.75
Q 34.176171875 97.6880859375 34.25 97.6 35.776171875 96.421484375 37.3 95.85 37.71796875 95.7169921875 38 95.5 38.33828125 95.69609375 38.8 95.85 39.9 96.25 42.15 96.85 44.4 97.4 45.5 97.8 45.5619140625 97.8240234375 45.6 97.85
L 45.65 97.85
Q 45.919921875 97.959375 46.2 98.05
L 48.9 99.5
Q 49.0478515625 99.5740234375 49.15 99.65 49.2359375 99.686328125 49.3 99.7 49.3935546875 99.784765625 49.5 99.85 49.5974609375 99.9111328125 49.7 99.95 49.3091796875 100.0076171875 48.9 100.05
L 47.4 100.15
Q 45.95 100.25 43.05 100
L 41.7 99.85
Q 37.65 99.35 34.1 97.75 Z"/>

<path fill="#FFFFFF" stroke="none" d="
M 38 95.5
Q 37.71796875 95.7169921875 37.3 95.85 35.776171875 96.421484375 34.25 97.6 39.8400390625 97.5544921875 45.6 97.85 45.5619140625 97.8240234375 45.5 97.8 44.4 97.4 42.15 96.85 39.9 96.25 38.8 95.85 38.33828125 95.69609375 38 95.5 Z"/>

<path fill="#CCCC99" stroke="none" d="
M 34.25 97.6
Q 34.176171875 97.6880859375 34.1 97.75 37.65 99.35 41.7 99.85
L 43.05 100
Q 45.95 100.25 47.4 100.15
L 48.9 100.05
Q 49.3091796875 100.0076171875 49.7 99.95 49.5974609375 99.9111328125 49.5 99.85 49.3935546875 99.784765625 49.3 99.7 49.2359375 99.686328125 49.15 99.65 49.0478515625 99.5740234375 48.9 99.5
L 46.2 98.05
Q 45.919921875 97.959375 45.65 97.85
L 45.6 97.85
Q 39.8400390625 97.5544921875 34.25 97.6 Z"/>
</g>

<g id="Bone_Archer_Bow_0_Layer0_0_FILL">
<path fill="#000000" stroke="none" d="
M 33.25 -33.6
Q 26.7 -40.25 22.2 -38.5 18.9 -37.15 17.75 -32 17.3 -29.25 17.05 -27.95 16.6 -25.55 15.9 -24.05 15.3 -22.65 12.85 -19.4 10.7 -16.6 10.2 -14.6 9.65 -12.2 10.55 -9.2 11 -7.5 12.65 -4 17.9 6.9 19.25 14.4 22.2 30.85 13.8 49.75 9.25 60.25 2.5 68.6 -4.7 77.5 -13.7 83 -15.15 83.9 -18.05 85.55 -20.55 87.05 -22.1 88.45 -26.6 92.5 -26.6 97 -26.6 102.65 -19.75 107.45
L -14.25 110.85
Q -11 112.9 -9.25 114.8 -6.3529296875 117.8708984375 -4.8 122.8 -4.815625 127.3880859375 -6.4 130.9 -7.4 133.25 -9.8 136.3
L -13.85 141.3
Q -18.75 148.05 -16.85 153.4 -15.4 157.65 -9.8 160 -7.9 160.8 -5.05 161.4 -1.75 162 -0.1 162.35 10.2 164.6 19.9 170.65 29.05 176.3 36.85 184.7 50.95 199.8 53.6 216.3 54.8 223.85 53.4 235.9 53 239.75 53.15 241.5 53.25 244.55 54.6 246.7 55.7 248.45 58.7 250.3 62.05 252.6 63.05 253.7 64.25 254.95 65.45 257.05 66.15 258.15 67.45 260.6 70.25 265.15 73.75 265.3 78.6 265.45 82.6 257.05 86.95 247.3 88.7 242.35 91.65 234.05 92.35 227.1 93.35 217.05 89.7 210.9 88.1 208.45 85 205.3 81.3 201.95 79.6 200.15 77.1 197.5 74.25 193.4 72.65 191 69.55 186.1 65.95 180.75 58.7 171.3 50.95 161.2 47.75 156.5 36.4 139.65 30.15 121.7 29.4 119.8 28.85 118.95 28.4 118.2 27.8 117.7 27.5 117.35 27 117.15 26.9 117.1 26.75 117.05 26.6580078125 117.012109375 26.55 116.95
L 26.6 116.95
Q 26.700390625 116.8654296875 26.8 116.75 27.1369140625 116.4349609375 27.4 115.95 27.7443359375 115.3478515625 27.95 114.5 28.15 113.55 28.25 111.45 28.25 92.45 33.4 72.8 34.9 67.3 38.9 55.25 42.65 43.9 44.25 37.7 45.6 32.05 46.35 29.25 47.65 24.4 49.15 21.05 50.15 18.85 52.5 14.45 54.45 10.5 55.1 7.6 56.55 0.65 52.3 -8.55 49.35 -14.9 43.85 -21.75 40.55 -25.85 33.25 -33.6
M 25.6 -28.4
Q 25.714453125 -28.83515625 25.8 -29.3 32.8 -22.4 36.5 -18 42 -11.5 45.05 -5.25 46.95 -1.25 46.9 1.55 46.7 3.85 44.95 7.5 42.1 14.05 39.2 22.6 38.737890625 23.986328125 38.1 25.95 36.9990234375 29.3958984375 35.35 34.6 34.891796875 36.1953125 34.35 37.95 31.95 46.15 28.5 57.2 28.450390625 57.3650390625 28.4 57.5 27.9587890625 58.9951171875 27.55 60.35 26.0392578125 65.47734375 24.95 69.45 23.482421875 74.766015625 22.75 78.1 19.35 92.65 18.8 107.95 18.6736328125 111.1744140625 19.15 113.25 18.5421875 114.4861328125 18.45 115.5 18.35 116.65 19.05 118.4 20 120.55 20.1 121.25 20.25 121.95 20.15 123.25 20.1 124.6 20.2 125.2 20.3 126.25 20.8 127.1 21.35 128.1 22.2 128.25 22.303125 128.263671875 22.4 128.25 27.9470703125 142.4736328125 35.95 155 39.45 160.8 48.25 172.85 55.1 182.15 60.1 189.1 66.85 198.25 69.7 202 75.3 209.15 80.15 214.35 83 217.25 83.95 219.35 84.9 222 84.45 226.35 83.6 233.3 80.5 241.25 78.45 246.6 74.15 255.4 72.2013671875 251.961328125 69.75 249 67.9703125 246.7923828125 65.9 244.85 64.25 243.25 63.9 242.9 62.85 241.7 62.4 240.5 61.55 238.45 62.15 234.3 62.266796875 233.42734375 62.35 232.55 62.540625 231.1857421875 62.65 229.85 62.9197265625 227.2568359375 63 224.85 63.3318359375 217.478125 62.3 211.85 60.65 202.4 54.8 192.9 49.95 185.05 41.9 176.7 20.15 154.4 -1.95 153.4 -4.65 153.3 -6.4 152.5 -8.75 151.5 -8.7 149.6 -8.75 148.65 -8.05 147.55 -7.65 146.95 -6.55 145.75 -2.380859375 141.3724609375 0.15 135.75 1.287890625 135.712109375 2.45 134.55 6.45 130.8 3.9 122.55 3.71484375 121.9568359375 3.5 121.35 3.5361328125 120.317578125 3.5 119.25 3.2 110.65 -1.85 108.4 -3.492578125 107.5998046875 -4.65 108.05 -8.8955078125 103.6111328125 -14.35 100.8 -15.601953125 100.129296875 -16.2 99.7 -16.241796875 99.64765625 -16.3 99.6 -17.35 98.8 -17.65 97.9 -18.25 96.1 -16.4 94.4 -15 93.1 -12.5 92.1 8.05 83.85 21.25 55.65 26.1 45.1 28.1 36.1 30.5 25.2 28.95 15.75 27.55 6.75 21.4 -5.4 19.5 -9.1 19.6 -11.35 19.65 -12.6 20.25 -14.1 20.45 -14.55 21.5 -16.6 21.8796875 -17.3345703125 22.2 -18.1 24.5126953125 -22.9349609375 25.6 -28.4 Z"/>

<path fill="#CC66FF" stroke="none" d="
M 62.35 232.55
Q 62.266796875 233.42734375 62.15 234.3 61.55 238.45 62.4 240.5 62.85 241.7 63.9 242.9 64.25 243.25 65.9 244.85 67.9703125 246.7923828125 69.75 249 71.683984375 243.13671875 72.45 238 73.6 229 70 224.6 68.85 223.25 67.3 222.7 65.55 222.05 64.3 222.95 63.45 223.6 63.05 224.75 63.03203125 224.800390625 63 224.85 62.9197265625 227.2568359375 62.65 229.85 62.540625 231.1857421875 62.35 232.55
M 25.8 -29.05
L 25.75 -29.1
Q 25.7056640625 -28.7349609375 25.6 -28.4 24.5126953125 -22.9349609375 22.2 -18.1 21.8796875 -17.3345703125 21.5 -16.6 20.45 -14.55 20.25 -14.1 19.65 -12.6 19.6 -11.35 19.5 -9.1 21.4 -5.4 27.55 6.75 28.95 15.75 30.5 25.2 28.1 36.1 26.1 45.1 21.25 55.65 8.05 83.85 -12.5 92.1 -15 93.1 -16.4 94.4 -18.25 96.1 -17.65 97.9 -17.35 98.8 -16.3 99.6 -16.241796875 99.64765625 -16.2 99.7 -7.066796875 96.128515625 0 92.4 9.25 87.4 14.6 82.5 19.2376953125 78.2880859375 24.6 70.55 24.774609375 70.0291015625 24.95 69.45 26.0392578125 65.47734375 27.55 60.35 27.9587890625 58.9951171875 28.4 57.5 28.450390625 57.3650390625 28.5 57.2 31.95 46.15 34.35 37.95 34.891796875 36.1953125 35.35 34.6 36.9990234375 29.3958984375 38.1 25.95 37.9734375 1.5580078125 29.45 -21.4 27.7 -26.2 25.8 -29.05 Z"/>

<path fill="#71368A" stroke="none" d="
M 24.95 69.45
Q 24.774609375 70.0291015625 24.6 70.55 19.2376953125 78.2880859375 14.6 82.5 9.25 87.4 0 92.4 -7.066796875 96.128515625 -16.2 99.7 -15.601953125 100.129296875 -14.35 100.8 -8.8955078125 103.6111328125 -4.65 108.05 -3.492578125 107.5998046875 -1.85 108.4 3.2 110.65 3.5 119.25 3.5361328125 120.317578125 3.5 121.35 3.71484375 121.9568359375 3.9 122.55 6.45 130.8 2.45 134.55 1.287890625 135.712109375 0.15 135.75 -2.380859375 141.3724609375 -6.55 145.75 -7.65 146.95 -8.05 147.55 -8.75 148.65 -8.7 149.6 -8.75 151.5 -6.4 152.5 -4.65 153.3 -1.95 153.4 20.15 154.4 41.9 176.7 49.95 185.05 54.8 192.9 60.65 202.4 62.3 211.85 63.3318359375 217.478125 63 224.85 63.03203125 224.800390625 63.05 224.75 63.45 223.6 64.3 222.95 65.55 222.05 67.3 222.7 68.85 223.25 70 224.6 73.6 229 72.45 238 71.683984375 243.13671875 69.75 249 72.2013671875 251.961328125 74.15 255.4 78.45 246.6 80.5 241.25 83.6 233.3 84.45 226.35 84.9 222 83.95 219.35 83 217.25 80.15 214.35 75.3 209.15 69.7 202 66.85 198.25 60.1 189.1 55.1 182.15 48.25 172.85 39.45 160.8 35.95 155 27.9470703125 142.4736328125 22.4 128.25 22.303125 128.263671875 22.2 128.25 21.35 128.1 20.8 127.1 20.3 126.25 20.2 125.2 20.1 124.6 20.15 123.25 20.25 121.95 20.1 121.25 20 120.55 19.05 118.4 18.35 116.65 18.45 115.5 18.5421875 114.4861328125 19.15 113.25 18.6736328125 111.1744140625 18.8 107.95 19.35 92.65 22.75 78.1 23.482421875 74.766015625 24.95 69.45
M 25.8 -29.3
Q 25.714453125 -28.83515625 25.6 -28.4 25.7056640625 -28.7349609375 25.75 -29.1
L 25.8 -29.05
Q 27.7 -26.2 29.45 -21.4 37.9734375 1.5580078125 38.1 25.95 38.737890625 23.986328125 39.2 22.6 42.1 14.05 44.95 7.5 46.7 3.85 46.9 1.55 46.95 -1.25 45.05 -5.25 42 -11.5 36.5 -18 32.8 -22.4 25.8 -29.3 Z"/>
</g>

<g id="Bone_Archer_Bow_shooot_8_Layer2_0_FILL">
<path fill="#000000" stroke="none" d="
M 29.35 91.15
Q 27.9796875 91.1 27.95 91.1 23.65 91.1 22.5 93.3 22.1 93.95 22 95.45 21.85 97.4 22 99.25 22.2 102.35 23.4 103.85 25 105.8 27.85 105.8 27.89296875 105.8009765625 27.9 105.8 29.384375 106.3869140625 30.95 106.3 32.15 106.25 33 105.85 34.25 105.3 35.4 103.7 36.75 101.8 37.1 99.45 37.5 97.05 36.75 94.9 35.85 92.45 34.2 91.6 32.9 90.95 30.9 91 30.09453125 91.0287109375 29.35 91.15
M 25.8 96.2
Q 26.6845703125 94.74921875 27.8 94.25
L 30.9 94.25
Q 31.8 94.35 32.05 94.6 32.3 94.85 32.55 95.7 32.6 95.8 33.5 96.7 34.1 97.45 34.1 98.5 34.1 99.5 33.55 100.35 32.65 101.8 30.35 102.5 28.87734375 102.944140625 27.7 102.85 27.5501953125 102.7501953125 27.4 102.65 25.9244140625 101.628515625 25.3 100.45
L 25.1 97.5
Q 25.3451171875 96.8689453125 25.8 96.2 Z"/>

<path fill="#FFFFFF" stroke="none" d="
M 27.8 94.25
Q 26.6845703125 94.74921875 25.8 96.2 25.3451171875 96.8689453125 25.1 97.5
L 25.3 100.45
Q 25.9244140625 101.628515625 27.4 102.65 27.5501953125 102.7501953125 27.7 102.85 28.87734375 102.944140625 30.35 102.5 32.65 101.8 33.55 100.35 34.1 99.5 34.1 98.5 34.1 97.45 33.5 96.7 32.6 95.8 32.55 95.7 32.3 94.85 32.05 94.6 31.8 94.35 30.9 94.25
L 27.8 94.25 Z"/>
</g>

<g id="Bone_Archer_Bow_shooot_8_Layer0_0_FILL">
<path fill="#000000" stroke="none" d="
M 94.95 90.75
Q 93.4 91.3 90.85 91.9 87.6 92.6 86.7 92.85 85 93.2 84.5 94.2 83.95 95.15 84.65 96.95 85.2583984375 98.680078125 86 100 86.16796875 101.190234375 86.9 101.75 87.1193359375 101.91875 87.4 102 88.011328125 102.7220703125 88.7 103.2 89.9 104 90.75 103.55 90.5 103.1 90.55 102.65 91.4 103.25 92.7 102.95 93.45 102.8 94.85 102.35 96.4 101.95 99.55 101.85 100.75 101.7 103.05 100.9
L 106.8 99.65
Q 107.95 99.35 108.9 98.75 109.45 98.45 110.05 97.8 110.4 97.45 111.1 96.7 111.9 96 112.35 95.35 112.55 95 112.8 94.2
L 112.9 93.65
Q 113.2087890625 93.282421875 113.4 92.9 114.1 91.55 114.05 89.1 114 85.15 112.7 82.85 111.85 81.35 110.5 80.5 109.05 79.55 107.45 79.6 106.6609375 79.64921875 105.95 80 105.5361328125 80.030859375 105 80.15 103.9 80.35 103.4 80.75 102.9 81.15 102.55 82.1 101.95 83.6 102.05 85.35 102.25 86.2 102 86.65 101.9 86.85 101.4 87.2 97.55 89.75 94.95 90.75
M 98.75 98.3
Q 98.5 98.3 95.8 98.5 92.5953125 98.7564453125 89.15 99.5
L 89.15 99.45
Q 88.3990234375 97.9041015625 88 96.45 87.9466796875 96.2865234375 87.9 96.1 94.4 95.05 100.3 92.2 103.95 90.5 104.85 88.25 104.8689453125 88.199609375 104.85 88.15 105.6095703125 87.20234375 105.85 86 106.134765625 84.480859375 105.35 83.35 105.5076171875 83.0439453125 105.75 82.85 106.25 82.6 107 83.05 109.7 84.65 110 89.6 110.019921875 90.2197265625 110 90.75 109.9013671875 92.8056640625 109.2 93.95 109.16953125 94.0189453125 109.15 94.05 109.101953125 94.12578125 109.05 94.2 109.0279296875 94.23203125 109 94.25 107.5890625 94.70390625 106.9 94.95 106 95.3 104.25 96.35 102.55 97.35 101.6 97.7 100.45 98.1 98.75 98.3 Z"/>

<path fill="#FFFFFF" stroke="none" d="
M 87.9 96.1
Q 87.9466796875 96.2865234375 88 96.45 99.4892578125 95.7556640625 110 90.75 110.019921875 90.2197265625 110 89.6 109.7 84.65 107 83.05 106.25 82.6 105.75 82.85 105.5076171875 83.0439453125 105.35 83.35 106.134765625 84.480859375 105.85 86 105.6095703125 87.20234375 104.85 88.15 104.8689453125 88.199609375 104.85 88.25 103.95 90.5 100.3 92.2 94.4 95.05 87.9 96.1 Z"/>

<path fill="#CCCC99" stroke="none" d="
M 95.8 98.5
Q 98.5 98.3 98.75 98.3 100.45 98.1 101.6 97.7 102.55 97.35 104.25 96.35 106 95.3 106.9 94.95 107.5890625 94.70390625 109 94.25 109.0279296875 94.23203125 109.05 94.2 109.101953125 94.12578125 109.15 94.05 109.16953125 94.0189453125 109.2 93.95 109.9013671875 92.8056640625 110 90.75 99.4892578125 95.7556640625 88 96.45 88.3990234375 97.9041015625 89.15 99.45
L 89.15 99.5
Q 92.5953125 98.7564453125 95.8 98.5 Z"/>
</g>
</defs>

<g transform="matrix( 1, 0, 0, 1, 122.3,96.95) ">
<g transform="matrix( 1, 0, 0, 1, 0,0) ">
<use xlink:href="#Bone_Archer_4_Layer1_0_FILL"/>
</g>

<g transform="matrix( 1, 0, 0, 1, 18.2,-1.35) ">
<g transform="matrix( 1, 0, 0, 1, 10.75,53.7) ">
<g transform="matrix( 0.65557861328125, -0.75347900390625, 0.75347900390625, 0.65557861328125, -11.65,51.6) ">
<g transform="matrix( 1, 0, 0, 1, 0,0) ">
<use xlink:href="#Duplicate_Items_Folder_Bone_Crossbow_cape_copy_4_Layer1_0_FILL"/>
</g>

<g transform="matrix( 1, 0, 0, 1, 0,0) ">
<use xlink:href="#Duplicate_Items_Folder_Bone_Crossbow_cape_copy_4_Layer0_0_FILL"/>
</g>
</g>
</g>

<g transform="matrix( 0.7575531005859375, -0.01727294921875, -0.0111541748046875, 0.9197540283203125, 37.6,84.55) ">
<g transform="matrix( 1.23980712890625, 0, 0, 1.04937744140625, -8.7,-4.35) ">
<g transform="matrix( 1, 0, 0, 1, 0,0) ">
<use xlink:href="#Skeleton_Archer_archerSkeleton_body_0_Layer0_0_FILL"/>
</g>
</g>

<g transform="matrix( 1, 0, 0, 1, 0,0) ">
<use xlink:href="#Bone_Archer_Body_0_Layer0_0_FILL"/>
</g>
</g>

<g transform="matrix( 0.9993896484375, 0.031494140625, -0.031494140625, 0.9993896484375, 2.75,0.3) ">
<g transform="matrix( 1, 0, 0, 1, 0,0) ">
<use xlink:href="#Bone_Archer_Head_0_Layer3_0_FILL"/>
</g>

<g transform="matrix( 1, 0, 0, 1, 0,0) ">
<use xlink:href="#Bone_Archer_Head_0_Layer2_0_FILL"/>
</g>

<g transform="matrix( 1, 0, 0, 1, 0,0) ">
<use xlink:href="#Bone_Archer_Head_0_Layer1_0_FILL"/>
</g>

<g transform="matrix( 1, 0, 0, 1, 0,0) ">
<use xlink:href="#Bone_Archer_Head_0_Layer0_0_FILL"/>
</g>
</g>

<g transform="matrix( -0.8214111328125, -0.08721923828125, -0.08721923828125, 0.8214111328125, 122.25,19.35) ">
<g transform="matrix( 1, 0, 0, 1, 0,0) ">
<use xlink:href="#Bone_Archer_Bow_shooot_8_Layer4_0_FILL"/>
</g>

<g transform="matrix( 0.3747406005859375, 0, 0, 0.4630889892578125, 26.25,42.25) ">
<g transform="matrix( 1, 0, 0, 1, 0,0) ">
<use xlink:href="#Bone_Archer_Bow_0_Layer0_0_FILL"/>
</g>
</g>

<g transform="matrix( 1, 0, 0, 1, 0,0) ">
<use xlink:href="#Bone_Archer_Bow_shooot_8_Layer2_0_FILL"/>
</g>

<g transform="matrix( 1, 0, 0, 1, 0,0) ">
<use xlink:href="#Bone_Archer_Bow_shooot_8_Layer0_0_FILL"/>
</g>
</g>
</g>
</g>
</svg>
