
<svg xmlns="http://www.w3.org/2000/svg" version="1.1" xmlns:xlink="http://www.w3.org/1999/xlink" preserveAspectRatio="none" x="0px" y="0px" width="1000px" height="1000px" viewBox="0 0 1000 1000">
<defs>
<linearGradient id="Gradient_1" gradientUnits="userSpaceOnUse" x1="107.275" y1="114.5125" x2="98.225" y2="59.3875" spreadMethod="pad">
<stop  offset="6.2745098039215685%" stop-color="#66FFFF"/>

<stop  offset="39.6078431372549%" stop-color="#0033CC"/>

<stop  offset="100%" stop-color="#333333"/>
</linearGradient>

<g id="jelly_att_2_Layer6_0_FILL">
<path fill="#00FFFF" stroke="none" d="
M -3.1 -48.25
Q -4 -44.8 -0.1 -29.75 3.3 -16.55 0.55 -15.2 -7.9 -11.05 -58 -17.9 -83.05 -21.35 -106.75 -25.15 -107.1 -24.7 -80.4 3.2 -53.05 31.8 -52.4 35.7 -51.45 41.7 -54.85 48.25 -56.95 52.3 -62.85 59.7 -69 67.4 -71.15 71.15 -74.85 77.75 -74.35 83.75 -73.75 91.85 -49.5 105.15 -43.4 108.45 -32.75 113.9 -25.15 117.95 -24.95 119.1 -24.05 124.35 -27.45 141.85 -30.65 158.25 -29.8 159.85 -27.45 164.1 -18.8 162.85 -12.45 161.9 -11.6 161.85 -7.5 161.55 -4.9 162.7 -0.25 164.75 0.25 170.85 0.75 176.75 -2.75 180.95 -5.85 184.65 -11.4 187 -14.95 188.5 -21.75 190.15 -30.75 178.4 -38.25 180.85 -41.1 181.75 -43.85 185.1 -45.45 187 -48.45 191 -54.1 197.7 -64.05 199.5 -73 201.15 -82.7 198.55 -86.8 197.45 -107.55 189.3 -123.75 182.95 -124.5 184.45 -124.8 185.05 -121.8 188.75 -119.95 191.05 -114.8 197.25 -104.25 210.5 -103.6 217.05 -102.9 224.2 -115.35 240.85 -118.45 245 -123.95 252.05 -127.8 257.25 -127.65 258.55 -127.45 260.05 -127.85 277.45 -127.6 295.5 -124.15 302.1 -122.15 306 -94.85 318.55 -67.9 331 -65.45 329.9 -63.1 328.85 -61.25 325.55 -59.4 321.6 -58.2 319.85 -54.85 314.65 -36.65 308.8 -27.7 306.05 -24.35 304.9 -18.7 302.95 -18.1 301.7 -15.75 296.9 -19.2 287.45 -22.95 277.15 -21.9 272.65 -5.8 265.2 5.95 252.75 11.5 268.2 15.2 285 16.6 291.75 9.05 311.6 4.45 323.65 4.05 324.9 1.95 331.1 2.65 332.65 3.35 334.2 28.65 354.05 55.2 376.4 62 390.25 64.55 378.05 87.75 350.55 98.9 337.55 102.85 332.6 109.35 324.45 108.85 322.5 103.8 305.55 99.55 289.85 91.15 258.85 92.8 255.05 95.7 248.45 102.7 243.95 109 239.9 117.1 238.45 112 247.35 115.35 259.85 117.75 268.8 125.2 281.2 129.55 288.45 129.75 314.05 129.8 329.9 129.85 331.2 130.15 339.05 131.55 340.45 133.5 342.5 155.9 355.95 177.1 368.6 182.4 371.25 185.35 372.7 211.6 367.2 237.45 361.75 238.6 360.2 240.2 358 239.1 354.95 238.45 353.1 235.9 349.25 233.35 345.45 232.7 343.6 231.65 340.5 233.3 338.35 241.35 334.5 245.7 329.95 251.5 324 250 317.65 249.2 314.25 246.15 311.05 244.5 309.3 239.95 305.75 231.4 299.1 230.85 293.7 235.15 291 240.2 289.9 245.2 288.8 250.3 289.35 256.45 301.05 256 314.15 273.85 312.5 315.6 324.25 325.8 327.15 341.95 331.95 353.15 335.15 353.75 334.2 354 333.75 349.95 326.15 341.6 310.45 340.95 309.25 327.9 283.95 329.25 278.4 331.2 270.5 346.25 256.3 349.95 252.8 356.05 247.25 360.3 243.3 359.95 242.6 359.05 240.85 339.25 245.6 324.95 249 308.9 253.7 310.85 245.6 274.75 196.9 252.8 167.3 250.25 163.7 239.45 148.35 240.6 146.35 246.05 149.85 253.5 148.6 260.15 147.5 266.05 143.05 277.4 134.45 300.9 114.6 330.1 90 328.75 88.15 327.35 86.2 263.4 93.65 265.15 88.55 264.35 81.65 263.95 78.05 261.95 69.25 260.1 61.35 259.9 57.05 259.6 50.45 262.1 45.6 265.45 39.05 298.05 32.45 300.1 32.05 320.6 28.2 331.15 26.25 332 25.45 335.05 22.6 346.65 5.65 358.75 -12 358.15 -13.85 357.2 -16.9 301.15 -21 244.95 -25.15 243.85 -27.9 242.05 -32.35 248.75 -48.95 252.3 -57.9 253.1 -60.25 254.85 -65.6 253.9 -67.05 252.25 -69.5 213.6 -96.3 174.6 -123.35 171.75 -123.55 168.85 -123.8 148.55 -105.55 128.5 -87.5 126.7 -88.05 124.95 -88.6 104.95 -126.85 85.4 -164.15 83.1 -162.8 82.55 -162.5 82.85 -154.3 83.5 -135.4 83.55 -135.05 84.2 -104.85 79.95 -92.6 76.65 -95.9 71.3 -95.65 66.25 -95.45 62.2 -92.4 58.75 -89.75 55.95 -85.15 54 -82 51.65 -76.45 39.05 -85.85 30.4 -99.45 21.75 -113.05 18.6 -128.5 15.75 -127.65 16.3 -110.3 16.6 -102.5 18.05 -85.2 18.6 -78.85 8.25 -64.45 2.95 -57.3 0.8 -54.45 -2.75 -49.6 -3.1 -48.25
M -42 -9.35
Q -6.65 -3.45 -0.75 -5.4 2.1 -6.35 4.55 -12.15 6.75 -17.5 7.85 -24.8 8.9 -32.15 8.25 -37.65 7.5 -43.75 4.8 -45.2 16.9 -52.05 22.3 -65.85 27.7 -79.7 23.35 -92.9 33.3 -79.2 47.2 -69.8 50.25 -67.75 52.6 -66.85 55.65 -65.65 58.4 -66.1 61.5 -66.6 63.25 -69.5 65.1 -72.5 63.45 -74.95 62.05 -74.45 60.5 -74.7 58.95 -74.95 57.75 -75.9 61.65 -80.9 69.35 -91.1 73.8 -87.7 79.95 -90.05 85.85 -92.35 88.5 -97.75 90.85 -102.4 90.85 -108.85 90.85 -113.3 89.55 -120.55 88.05 -128.8 87.75 -132.1 87.2 -138.6 88.7 -143.5 91.6 -129.55 106.7 -103.65 121.75 -77.85 127.3 -77 131.85 -76.3 149.35 -89.4 167.55 -103.1 172 -112.1 184.8 -92.95 204.05 -79.55 223.35 -66.15 245.65 -60.85 237.9 -51.65 235.8 -40.65 233.45 -28.55 239.4 -19.75 241.05 -17.3 253.1 -13.35 265.35 -9.3 281 -6.1 321.35 2.05 339.05 -3.6 336.75 2.8 308.65 12.8 277.65 22.85 270.65 25.8 262.2 29.4 257.25 60.05 255.5 71.15 254.8 81.8 254.2 91.65 254.95 93.45 256.75 97.9 275.7 99.15 280.65 99.45 290.05 99.9 297.55 100.3 299.9 101.05 286.25 104.8 258.45 123.65 248.45 130.4 240.05 136.8 232.35 142.7 231.85 143.7 229.25 148.9 264.55 194.25 286.25 222.1 289.45 226.4 300.95 241.8 301.05 244.9 301.15 248.3 308.35 254.1 315.95 260.2 320.15 258.3 327.15 255.05 329.55 254.4 335.05 252.8 338.95 254.65 328.55 259.15 323.55 270.4 318.55 281.65 322.2 292.4 324.25 298.5 331.45 308.15 339.1 318.35 341.3 323.65 322.1 314.45 300.95 310.65 279.7 306.8 258.55 308.8 258.15 306 258.5 301.45 259 296.45 259.1 294 259.45 285.4 254.85 282.15 252.1 280.1 236.55 286.65 220.95 293.25 221.7 296.75 222.25 299.2 233.25 309.85 243.4 319.65 242.15 322.6 241.15 324.9 238.05 326.95 236.35 328.1 232.75 330.3 226.9 334.55 226.35 342.55 225.8 350.55 230.9 355.55 191.6 364.85 188.85 363.9 187.15 363.35 177.05 351.25 166.55 338.7 162.35 336.45 156.3 333.3 149.65 333 142.65 332.65 136.95 335.6 143.1 324.7 143.45 311.55 143.8 298.5 138.4 287.15 136.65 283.55 132.85 277.3 128.65 270.3 127.15 267.45 121.05 255.85 123 247 124.7 240.9 125 237.95 125.55 232.75 122.45 230.65 121.4 229.9 115.6 232.25 109.55 234.7 102.95 238.75 85.3 249.45 83.65 258.55 82.75 263.6 84.9 281.45 87 299.1 89.1 305.5 91.25 312.25 95.8 316.9 100.85 322.1 107.05 322.7 88.25 335.55 79.1 344.65 65.15 358.45 61.05 373.6 55.6 364.4 37.15 347.75 17 329.5 8.8 329.25 18.1 321.8 20.65 307.75 22.8 296.15 20.2 281.75 16.9 263.25 8.35 245.35 -5.6 254 -12.5 258.55 -26.95 268.15 -28.1 270.8 -30.1 275.55 -27.5 283.8 -24.3 294.05 -24.3 297.25 -28.25 299.55 -49.65 307.7 -69.15 316 -69.6 321.55 -114.5 302.3 -116.65 298.2 -117.8 295.9 -117.6 277.7 -117.4 259.65 -119.7 255.55 -111.6 248.3 -107.8 244.1 -101.65 237.3 -98.7 230.65 -95.15 222.75 -96 214.5 -96.95 205.6 -102.75 200.35 -92.1 205 -84.8 207.05 -74.65 209.85 -66 209.35 -56 208.85 -47.75 203.55 -39 197.95 -36.25 189.2 -34.2 192.1 -27 192 -20.5 191.9 -12.05 189.5 -3.7 187.1 2.45 183.65 9.1 179.9 10.25 176.5 12.75 168.85 10.7 163.4 6.05 150.6 -18.7 151.7 -15.9 141.4 -14.95 135.8 -13.45 126.85 -14.4 119.7 -15.15 113.85 -37.45 103.15 -51 96.65 -53.9 95.05 -62.05 90.7 -64 87.65 -67.05 82.95 -56 62.7 -48.65 49.1 -48 47.8 -44.2 40.25 -44.45 37.4 -45.2 28.65 -89.55 -16.3 -82.3 -16.15 -42 -9.35 Z"/>

<path fill="#FFFFFF" stroke="none" d="
M -0.75 -5.4
Q -6.65 -3.45 -42 -9.35 -82.3 -16.15 -89.55 -16.3 -45.2 28.65 -44.45 37.4 -44.2 40.25 -48 47.8 -48.65 49.1 -56 62.7 -67.05 82.95 -64 87.65 -62.05 90.7 -53.9 95.05 -51 96.65 -37.45 103.15 -15.15 113.85 -14.4 119.7 -13.45 126.85 -14.95 135.8 -15.9 141.4 -18.7 151.7 6.05 150.6 10.7 163.4 12.75 168.85 10.25 176.5 9.1 179.9 2.45 183.65 -3.7 187.1 -12.05 189.5 -20.5 191.9 -27 192 -34.2 192.1 -36.25 189.2 -39 197.95 -47.75 203.55 -56 208.85 -66 209.35 -74.65 209.85 -84.8 207.05 -92.1 205 -102.75 200.35 -96.95 205.6 -96 214.5 -95.15 222.75 -98.7 230.65 -101.65 237.3 -107.8 244.1 -111.6 248.3 -119.7 255.55 -117.4 259.65 -117.6 277.7 -117.8 295.9 -116.65 298.2 -114.5 302.3 -69.6 321.55 -69.15 316 -49.65 307.7 -28.25 299.55 -24.3 297.25 -24.3 294.05 -27.5 283.8 -30.1 275.55 -28.1 270.8 -26.95 268.15 -12.5 258.55 -5.6 254 8.35 245.35 16.9 263.25 20.2 281.75 22.8 296.15 20.65 307.75 18.1 321.8 8.8 329.25 17 329.5 37.15 347.75 55.6 364.4 61.05 373.6 65.15 358.45 79.1 344.65 88.25 335.55 107.05 322.7 100.85 322.1 95.8 316.9 91.25 312.25 89.1 305.5 87 299.1 84.9 281.45 82.75 263.6 83.65 258.55 85.3 249.45 102.95 238.75 109.55 234.7 115.6 232.25 121.4 229.9 122.45 230.65 125.55 232.75 125 237.95 124.7 240.9 123 247 121.05 255.85 127.15 267.45 128.65 270.3 132.85 277.3 136.65 283.55 138.4 287.15 143.8 298.5 143.45 311.55 143.1 324.7 136.95 335.6 142.65 332.65 149.65 333 156.3 333.3 162.35 336.45 166.55 338.7 177.05 351.25 187.15 363.35 188.85 363.9 191.6 364.85 230.9 355.55 225.8 350.55 226.35 342.55 226.9 334.55 232.75 330.3 236.35 328.1 238.05 326.95 241.15 324.9 242.15 322.6 243.4 319.65 233.25 309.85 222.25 299.2 221.7 296.75 220.95 293.25 236.55 286.65 252.1 280.1 254.85 282.15 259.45 285.4 259.1 294 259 296.45 258.5 301.45 258.15 306 258.55 308.8 279.7 306.8 300.95 310.65 322.1 314.45 341.3 323.65 339.1 318.35 331.45 308.15 324.25 298.5 322.2 292.4 318.55 281.65 323.55 270.4 328.55 259.15 338.95 254.65 335.05 252.8 329.55 254.4 327.15 255.05 320.15 258.3 315.95 260.2 308.35 254.1 301.15 248.3 301.05 244.9 300.95 241.8 289.45 226.4 286.25 222.1 264.55 194.25 229.25 148.9 231.85 143.7 232.35 142.7 240.05 136.8 248.45 130.4 258.45 123.65 286.25 104.8 299.9 101.05 297.55 100.3 290.05 99.9 280.65 99.45 275.7 99.15 256.75 97.9 254.95 93.45 254.2 91.65 254.8 81.8 255.5 71.15 257.25 60.05 262.2 29.4 270.65 25.8 277.65 22.85 308.65 12.8 336.75 2.8 339.05 -3.6 321.35 2.05 281 -6.1 265.35 -9.3 253.1 -13.35 241.05 -17.3 239.4 -19.75 233.45 -28.55 235.8 -40.65 237.9 -51.65 245.65 -60.85 223.35 -66.15 204.05 -79.55 184.8 -92.95 172 -112.1 167.55 -103.1 149.35 -89.4 131.85 -76.3 127.3 -77 121.75 -77.85 106.7 -103.65 91.6 -129.55 88.7 -143.5 87.2 -138.6 87.75 -132.1 88.05 -128.8 89.55 -120.55 90.85 -113.3 90.85 -108.85 90.85 -102.4 88.5 -97.75 85.85 -92.35 79.95 -90.05 73.8 -87.7 69.35 -91.1 61.65 -80.9 57.75 -75.9 58.95 -74.95 60.5 -74.7 62.05 -74.45 63.45 -74.95 65.1 -72.5 63.25 -69.5 61.5 -66.6 58.4 -66.1 55.65 -65.65 52.6 -66.85 50.25 -67.75 47.2 -69.8 33.3 -79.2 23.35 -92.9 27.7 -79.7 22.3 -65.85 16.9 -52.05 4.8 -45.2 7.5 -43.75 8.25 -37.65 8.9 -32.15 7.85 -24.8 6.75 -17.5 4.55 -12.15 2.1 -6.35 -0.75 -5.4 Z"/>
</g>

<g id="Symbol_89_0_Layer0_0_FILL">
<path fill="#1DA4FE" fill-opacity="0.4980392156862745" stroke="none" d="
M 109.95 -53.8
Q 63.4 -53.8 30.5 -23 -2.35 7.8 -2.35 51.45 -2.35 95.1 30.5 125.9 63.4 156.7 109.95 156.7 156.55 156.7 189.4 125.9 222.25 95.1 222.25 51.45 222.25 7.8 189.4 -23 156.55 -53.8 109.95 -53.8 Z"/>
</g>

<g id="Symbol_87_0_Layer0_0_FILL">
<path fill="#1DA4FE" stroke="none" d="
M 84.95 87.65
Q 89.8 81.35 91.05 74.2 92.75 64.95 88.4 54.95 84.6 46.15 76.95 38.4 74.25 35.75 72.9 34.4 70.55 32.05 69.15 30.15 65.2 24.8 65.6 19.65 65.65 18.8 66.35 15.35 66.9 12.75 66.65 11.1 65.8 6.25 58.6 3.15 54.1 1.15 41 3.95 27.55 6.8 25.55 10.8 25.05 11.75 25.25 14.8 25.45 17.45 25.75 18.5 27.25 23.25 21.8 29.2 20.3 30.85 14.95 36 10.55 40.15 8.35 43.1 4.25 48.45 2.1 55.45 0.05 62.05 0 69.3 -0.1 78.8 3.35 87 7.1 95.85 14.2 100.75 25.1 108.2 45.1 106.1 62.7 104.25 73.7 97.65 80.4 93.6 84.95 87.65
M 41 6.35
Q 47.45 5.2 56.8 8.7 57.65 9 58.85 11.65 60.1 14.3 59.85 15.5 58.2 22.45 59.65 27.7 60.9 32.55 65.6 37.95 68.25 41.05 73.8 47 75.95 49.6 79.5 57.5 82.95 65.25 83.1 67.55 83.55 74.5 79.25 81.1 75.25 87.2 68.6 90.9 62.3 94.4 43.35 95.8 24.5 97.15 19.9 94.5 15.75 92.05 12.85 87.65 10.2 83.6 8.9 78.5 6.7 70.15 8.45 61.4 10.2 52.6 15.45 45.75 21.7 37.65 23.45 35.2 29.5 26.7 29.7 23.9 29.75 23.2 29.6 20.25 29.5 17.95 29.75 16.55 30.35 12.7 33.7 9.85 36.8 7.15 41 6.35 Z"/>

<path fill="#1DA4FE" fill-opacity="0.4980392156862745" stroke="none" d="
M 56.8 8.7
Q 47.45 5.2 41 6.35 36.8 7.15 33.7 9.85 30.35 12.7 29.75 16.55 29.5 17.95 29.6 20.25 29.75 23.2 29.7 23.9 29.5 26.7 23.45 35.2 21.7 37.65 15.45 45.75 10.2 52.6 8.45 61.4 6.7 70.15 8.9 78.5 10.2 83.6 12.85 87.65 15.75 92.05 19.9 94.5 24.5 97.15 43.35 95.8 62.3 94.4 68.6 90.9 75.25 87.2 79.25 81.1 83.55 74.5 83.1 67.55 82.95 65.25 79.5 57.5 75.95 49.6 73.8 47 68.25 41.05 65.6 37.95 60.9 32.55 59.65 27.7 58.2 22.45 59.85 15.5 60.1 14.3 58.85 11.65 57.65 9 56.8 8.7
M 63.6 44.8
Q 68.6 47.55 69.95 48.8 70.65 49.4 72.95 53.25 75.2 56.95 75.65 58.15 76 59.1 76.35 62.85 76.65 66.55 76.5 67.95 76.3 69.4 73.65 74.25 71.1 78.85 70.25 79.6 69.05 80.8 63.05 83.95 57.1 87.15 56.75 86.75 56.55 86.55 60.4 79.25 64.55 71.5 64.8 70.75 65.4 69.15 65.8 64.6 66.1 60.4 65.9 59.2 65.65 57.45 63.15 47.7 63.1 47.45 61.35 45.45 59.5 43.25 58.95 42.4 58.7 42.05 63.6 44.8 Z"/>

<path fill="#FFFFFF" stroke="none" d="
M 69.95 48.8
Q 68.6 47.55 63.6 44.8 58.7 42.05 58.95 42.4 59.5 43.25 61.35 45.45 63.1 47.45 63.15 47.7 65.65 57.45 65.9 59.2 66.1 60.4 65.8 64.6 65.4 69.15 64.8 70.75 64.55 71.5 60.4 79.25 56.55 86.55 56.75 86.75 57.1 87.15 63.05 83.95 69.05 80.8 70.25 79.6 71.1 78.85 73.65 74.25 76.3 69.4 76.5 67.95 76.65 66.55 76.35 62.85 76 59.1 75.65 58.15 75.2 56.95 72.95 53.25 70.65 49.4 69.95 48.8 Z"/>
</g>

<g id="Symbol_90_0_Layer0_0_FILL">
<path fill="#000000" stroke="none" d="
M 114.75 12.55
Q 99 5.5 81.8 6.05 52.5 6.95 35 30.4 33.25 32.75 30.1 40.05 27.2 46.8 26.7 49 25.8 52.85 22.15 54.5 21 55.05 17.7 61.2 14.25 67.6 13.5 71.05 12.7 74.75 17.4 85.15 22.1 95.5 25.6 97.9 24.8 99.5 22.05 103.45 19.5 107.1 19.45 107.3 18.3 111.25 23.65 122 28.5 131.9 31.85 134.85 38.05 140.25 56.6 149.4 74.75 158.3 80.2 158.95 86.2 159.45 100.85 158.3 116.75 157.05 121.2 155.25 132.95 150.55 139.55 140 140.45 138.5 143.05 123.8 143.1 123.55 149.9 113.65 157.1 103.15 159 98.2 160.1 95.35 159.65 76.15 159.2 57.3 158.15 53.9 157.4 51.35 139.85 33.9 121.3 15.45 114.75 12.55
M 134.55 48.75
L 128.8 46.55
Q 114.45 41.35 99.5 43.85 98.35 44.1 97.25 44.4 82.25 50.45 73.9 64.25 65 78.95 66.95 96.2 67.15 97.8 67.4 99.4 71.8 117.05 88.3 124.65 103.35 131.55 118.95 126.2 124.35 124.25 129.75 122.3
L 128.4 128.85
Q 129.5 132.4 125.95 139.45 120.3 144.2 113.05 145.35 110.6 145.9 108.15 146.5 93.8 149.7 79.55 146.35 78.05 146 76.6 145.65
L 65.15 142
Q 68.55 130.6 62.5 120.25 56.15 109.4 49.8 98.6 48.4 96.2 47.4 93.55 53.9 86.05 54.25 84.4 54.45 83.4 54.7 82.4
L 54.15 71.9
Q 52.7 63.3 46 57.6 45 56.75 44 55.9 47.05 34.4 65.6 23 69.1 20.85 73.1 19.65 85 15.85 97.45 17.6
L 106.55 20.2
Q 122.65 26.45 131.25 41.4 133.2 44.8 134.55 48.75
M 108.7 46.95
L 112.4 47.05 119.3 56.05
Q 126.7 66.15 128.9 71.9 130.25 74.7 131.3 81.95 132.05 87.15 132.15 89.75 132.35 103.9 125.95 116.65 125.4 117.7 124.9 118.75
L 116.9 120.95
Q 123.3 102.95 120.85 84.05 119.4 72.8 114.8 62.35 111.25 54.25 105.85 47.25
L 108.7 46.95
M 99.45 49.05
L 102.75 47.95
Q 114.95 68.1 116.85 91.8 117.85 104.55 114.8 116.9 114.2 119.25 113.55 121.6
L 106.4 122.8
Q 114.9 107.65 113.6 90.25 112.5 75 105.55 61.25 102.5 55.15 99.45 49.05
M 85.4 58.45
L 87.45 56.6 95.45 50.85
Q 102.1 61.45 105.8 73.4 109.05 84 108.55 95.1 108.6 96.95 108.6 98.8 108.55 111.55 102.95 123
L 92.95 120.7
Q 99.5 105.35 97.95 88.9 96.35 71.85 85.4 58.45
M 85.8 94.3
Q 85.85 96.35 85.95 98.4
L 84.15 115.5 76.5 107.2
Q 77.35 102 77.95 96.8 79.15 86.6 73.9 77.7
L 74.8 74.95 77.65 68.8
Q 85.4 80.4 85.8 94.3
M 82.6 61.5
Q 92.95 74.3 94.25 90.9 95.45 105.7 90.85 119.7
L 87.05 117.45
Q 92.7 101.4 89.2 84.6 87 73.9 80.2 65.3
L 82.6 61.5
M 147.75 58.15
Q 147.9 59.05 148.05 59.95
L 140.6 50.55 140.65 48.4
Q 146.55 51.7 147.75 58.15
M 140 67.45
Q 136.3 57.85 128.95 50.65
L 130.3 51.2
Q 143.9 57.35 147.7 71.55 148.1 73.05 148.5 74.6
L 149.55 87.5
Q 149.6 100.65 139.95 109.45 138.75 110.55 137.55 111.7 148.75 90.1 140 67.45
M 135.55 90.55
Q 135.55 77.85 130.3 66.55 125.2 55.4 116 47.5
L 123.7 49.2
Q 133.25 58.75 137.7 71.55 143.5 88.35 137.4 105.1 135 111.7 130.1 116.6 135.5 104.25 135.55 90.55
M 51 28.25
L 46.2 36.95 41.4 54.1 36.25 53.45 34.2 53.6
Q 39.55 39 51 28.25
M 27.35 62.95
Q 31.1 58.3 36.2 60.8 39.45 62.3 40.7 65.65 45.8 79.5 36.75 90.7
L 35.35 90.85
Q 23.65 84.4 25.05 70.95 25.45 66.85 27.35 62.95
M 35.85 96.55
L 38.5 96.7 43.6 95.6
Q 48.25 109.85 58.85 120.35 62.1 123.5 61.9 127.95 61.6 134.2 61.3 140.45
L 40.8 127.85 31.8 118.35
Q 27.55 112.35 32.15 106.4 35.55 101.95 35.85 96.55
M 46.9 72.5
Q 47 68.8 46.8 66.9 52.65 78.05 44.9 87.8 42.3 91.15 38.15 91.3 40 90.5 42.9 86.2 45.6 82.25 45.8 80.7 46.8 78.2 46.9 72.5
M 72.4 85.25
Q 73.15 88.7 73.9 92.2 74.9 96.85 74.05 101.7
L 72.6 95.35 72.4 85.25 Z"/>

<path fill="url(#Gradient_1)" stroke="none" d="
M 73.9 92.2
Q 73.15 88.7 72.4 85.25
L 72.6 95.35 74.05 101.7
Q 74.9 96.85 73.9 92.2
M 130.3 66.55
Q 135.55 77.85 135.55 90.55 135.5 104.25 130.1 116.6 135 111.7 137.4 105.1 143.5 88.35 137.7 71.55 133.25 58.75 123.7 49.2
L 116 47.5
Q 125.2 55.4 130.3 66.55
M 94.25 90.9
Q 92.95 74.3 82.6 61.5
L 80.2 65.3
Q 87 73.9 89.2 84.6 92.7 101.4 87.05 117.45
L 90.85 119.7
Q 95.45 105.7 94.25 90.9
M 102.75 47.95
L 99.45 49.05
Q 102.5 55.15 105.55 61.25 112.5 75 113.6 90.25 114.9 107.65 106.4 122.8
L 113.55 121.6
Q 114.2 119.25 114.8 116.9 117.85 104.55 116.85 91.8 114.95 68.1 102.75 47.95 Z"/>

<path fill="#333333" stroke="none" d="
M 46.8 66.9
Q 47 68.8 46.9 72.5 46.8 78.2 45.8 80.7 45.6 82.25 42.9 86.2 40 90.5 38.15 91.3 42.3 91.15 44.9 87.8 52.65 78.05 46.8 66.9
M 36.85 70.55
Q 33.75 64.9 27.35 62.95 25.45 66.85 25.05 70.95 23.65 84.4 35.35 90.85 42.8 81.4 36.85 70.55
M 148.05 59.95
Q 147.9 59.05 147.75 58.15 146.55 51.7 140.65 48.4
L 140.6 50.55 148.05 59.95 Z"/>

<path fill="#33CCFF" stroke="none" d="
M 40.8 127.85
Q 42.55 124.55 43.55 121 46.95 109.05 38.3 100.65 38.05 104.55 34.95 111.75 33.4 115.35 31.8 118.35
L 40.8 127.85
M 46.2 36.95
L 51 28.25
Q 39.55 39 34.2 53.6
L 36.25 53.45
Q 36.25 53.35 36.25 53.3 39.45 44.05 46.2 36.95
M 128.4 128.85
L 126.6 130.35 125.95 139.45
Q 129.5 132.4 128.4 128.85
M 60.6 38.95
L 58.3 46.35 63.05 52.2 57.7 48.95 54.7 64.3 62.7 56.9 64.35 56.95 54.35 68.2 54.15 71.9 54.7 82.4
Q 55.15 84.4 56.3 88.05 57.5 92 57.9 92.75 62.2 100.1 68.75 116.05 74.8 130.8 74.95 132.8
L 85.5 140.45 75.45 135.85 76.6 145.65
Q 78.05 146 79.55 146.35 93.8 149.7 108.15 146.5
L 107.4 137.45
Q 92.45 136.1 81.05 126.3 68.65 115.7 67.4 99.4 67.15 97.8 66.95 96.2 65 78.95 73.9 64.25 82.25 50.45 97.25 44.4 84.15 26.6 77 20.8
L 65.5 25.1 61.7 37.75 63.15 38.9 66.4 35 64.55 39.8 65.2 41.65 63.5 41.1 59.8 44.8 62.3 40.2 60.6 38.95
M 86.45 34.65
Q 87.9 35.9 87.9 37.6 87.9 39.3 86.45 40.5 85 41.75 82.95 41.75 80.9 41.75 79.45 40.5 78 39.3 78 37.6 78 35.9 79.45 34.65 80.9 33.45 82.95 33.45 85 33.45 86.45 34.65
M 128.8 46.55
L 134.55 48.75
Q 133.2 44.8 131.25 41.4 122.65 26.45 106.55 20.2 108.55 22 116 30.4 125.35 41 128.8 46.55 Z"/>

<path fill="#1471F2" stroke="none" d="
M 43.6 95.6
L 38.5 96.7 38.3 100.65
Q 46.95 109.05 43.55 121 42.55 124.55 40.8 127.85
L 61.3 140.45
Q 61.6 134.2 61.9 127.95 62.1 123.5 58.85 120.35 48.25 109.85 43.6 95.6
M 36.25 53.3
Q 36.25 53.35 36.25 53.45
L 41.4 54.1 46.2 36.95
Q 39.45 44.05 36.25 53.3
M 126.6 130.35
L 128.4 128.85 129.75 122.3
Q 124.35 124.25 118.95 126.2 103.35 131.55 88.3 124.65 71.8 117.05 67.4 99.4 68.65 115.7 81.05 126.3 92.45 136.1 107.4 137.45 111.45 137.55 119.15 134.15 124.7 131.65 126.6 130.35
M 56.3 88.05
Q 55.15 84.4 54.7 82.4 54.45 83.4 54.25 84.4 53.9 86.05 47.4 93.55 48.4 96.2 49.8 98.6 56.15 109.4 62.5 120.25 68.55 130.6 65.15 142
L 76.6 145.65 75.45 135.85 85.5 140.45 74.95 132.8
Q 74.8 130.8 68.75 116.05 62.2 100.1 57.9 92.75 57.5 92 56.3 88.05
M 73.1 19.65
Q 69.1 20.85 65.6 23 47.05 34.4 44 55.9 45 56.75 46 57.6 52.7 63.3 54.15 71.9
L 54.35 68.2 64.35 56.95 62.7 56.9 54.7 64.3 57.7 48.95 63.05 52.2 58.3 46.35 60.6 38.95 62.3 40.2 59.8 44.8 63.5 41.1 65.2 41.65 64.55 39.8 66.4 35 63.15 38.9 61.7 37.75 65.5 25.1 77 20.8 97.45 17.6
Q 85 15.85 73.1 19.65 Z"/>

<path fill="#FFFFFF" stroke="none" d="
M 38.5 96.7
L 35.85 96.55
Q 35.55 101.95 32.15 106.4 27.55 112.35 31.8 118.35 33.4 115.35 34.95 111.75 38.05 104.55 38.3 100.65
L 38.5 96.7
M 130.3 51.2
Q 130.75 51.55 131.2 51.95 139.75 59.5 144 70
L 148.5 74.6
Q 148.1 73.05 147.7 71.55 143.9 57.35 130.3 51.2
M 112.4 47.05
L 108.7 46.95 117.8 64.5 128.9 71.9
Q 126.7 66.15 119.3 56.05
L 112.4 47.05
M 125.95 139.45
L 126.6 130.35
Q 124.7 131.65 119.15 134.15 111.45 137.55 107.4 137.45
L 108.15 146.5
Q 110.6 145.9 113.05 145.35 120.3 144.2 125.95 139.45
M 87.9 37.6
Q 87.9 35.9 86.45 34.65 85 33.45 82.95 33.45 80.9 33.45 79.45 34.65 78 35.9 78 37.6 78 39.3 79.45 40.5 80.9 41.75 82.95 41.75 85 41.75 86.45 40.5 87.9 39.3 87.9 37.6
M 97.25 44.4
Q 98.35 44.1 99.5 43.85 114.45 41.35 128.8 46.55 125.35 41 116 30.4 108.55 22 106.55 20.2
L 97.45 17.6 77 20.8
Q 84.15 26.6 97.25 44.4 Z"/>

<path fill="#666666" stroke="none" d="
M 36.2 60.8
Q 31.1 58.3 27.35 62.95 33.75 64.9 36.85 70.55 42.8 81.4 35.35 90.85
L 36.75 90.7
Q 45.8 79.5 40.7 65.65 39.45 62.3 36.2 60.8 Z"/>

<path fill="#CCCCCC" stroke="none" d="
M 149.55 87.5
L 148.5 74.6 144 70 148.45 88.2 149.55 87.5
M 85.95 98.4
Q 85.85 96.35 85.8 94.3 85.4 80.4 77.65 68.8
L 74.8 74.95
Q 75.95 77.05 78.5 85.05 81.75 95.35 81.55 100.35
L 85.95 98.4
M 95.45 50.85
L 87.45 56.6
Q 93.65 64.85 97.05 74.4 101.4 86.75 100.85 99.7
L 108.55 95.1
Q 109.05 84 105.8 73.4 102.1 61.45 95.45 50.85
M 117.8 64.5
Q 119 68.35 120.2 72.2 123.85 83.75 123.7 95.75
L 132.15 89.75
Q 132.05 87.15 131.3 81.95 130.25 74.7 128.9 71.9
L 117.8 64.5 Z"/>

<path fill="#999999" stroke="none" d="
M 131.2 51.95
Q 130.75 51.55 130.3 51.2
L 128.95 50.65
Q 136.3 57.85 140 67.45 148.75 90.1 137.55 111.7 138.75 110.55 139.95 109.45 149.6 100.65 149.55 87.5
L 148.45 88.2 144 70
Q 139.75 59.5 131.2 51.95
M 74.8 74.95
L 73.9 77.7
Q 79.15 86.6 77.95 96.8 77.35 102 76.5 107.2
L 84.15 115.5 85.95 98.4 81.55 100.35
Q 81.75 95.35 78.5 85.05 75.95 77.05 74.8 74.95
M 87.45 56.6
L 85.4 58.45
Q 96.35 71.85 97.95 88.9 99.5 105.35 92.95 120.7
L 102.95 123
Q 108.55 111.55 108.6 98.8 108.6 96.95 108.55 95.1
L 100.85 99.7
Q 101.4 86.75 97.05 74.4 93.65 64.85 87.45 56.6
M 108.7 46.95
L 105.85 47.25
Q 111.25 54.25 114.8 62.35 119.4 72.8 120.85 84.05 123.3 102.95 116.9 120.95
L 124.9 118.75
Q 125.4 117.7 125.95 116.65 132.35 103.9 132.15 89.75
L 123.7 95.75
Q 123.85 83.75 120.2 72.2 119 68.35 117.8 64.5
L 108.7 46.95 Z"/>
</g>

<g id="Symbol_86_2_Layer0_0_FILL">
<path fill="#1DA4FE" stroke="none" d="
M 42.95 12.6
Q 44.3 8.65 42.9 5.8 42.3 4.55 38.75 4.3 35.3 4.05 34.35 4.85 21.05 16.4 15.7 35.05 10.7 52.75 14.25 71.2 14.7 73.6 20.45 94.4 24.3 108.35 23.95 117.75 23.55 129.9 15.45 148.25 13.25 153.15 8.8 163.05 5.15 171.65 3.5 178.25 1.95 184.35 2.8 199.05 3.6 213.35 5.35 216.1 7.1 218.9 9.65 220.65 12.45 222.55 15.45 222.7 19.95 222.9 23.75 219.35 27.25 216.15 28.65 211.35 28.9 210.45 32.7 179.45 36.4 149.35 39.85 139.05 44.15 126.05 45.3 120 47.4 109.15 45.25 100.8 44.15 96.6 41.3 90.75 36.5 81.1 36.45 81 29.8 66.35 30.65 49.75 31.5 33.15 39.6 19.25 42.2 14.75 42.95 12.6
M 23.1 33
Q 27.3 18.6 36.25 6.85 39.25 9.25 35.5 15.65 26.6 30.6 25.4 48.65 24.25 66.65 31.1 82.7 32.65 86.25 36.1 93.25 38.41953125 98.3861328125 39.35 102.5
L 39.85 105.35
Q 40.8984375 112.834375 38.3 122.3 37.85 124 32.2 140 21.35 171.15 23.4 203.75 23.7 208.15 23.1 210.8 22.25 214.6 19.55 216 18.6 216.45 15.8 216 13.25 215.6 12.6 215.2 12.05 214.8 10 211.05 7.85 206.95 7.5 204.85 5.5 191.75 16.2 160.95 19.25 152.1 24 140.1 28 130.05 28.2 129.15 31.25 116.2 26.8 95.85 24.15 84.65 22.9 79.05 20.7 69.1 20.1 62.1 18.85 47.45 23.1 33 Z"/>

<path fill="#FFFFFF" stroke="none" d="
M 39.85 105.35
Q 39.092578125 104.0380859375 38.15 102.8 38 102.65 38.2 107.65 38.4 113.55 38.15 115.6 37.8 118.9 36.45 122.85 35.7 125.1 33.75 129.8
L 26.05 148.5
Q 20.85 160.9 19.2 167.85 16.45 179.7 17.3 196.5 17.55 200.85 17.55 202.55 17.55 205.9 16.8 208.45 15.95 211.55 14.05 213.8 13.3697265625 214.59375 12.6 215.2 13.25 215.6 15.8 216 18.6 216.45 19.55 216 22.25 214.6 23.1 210.8 23.7 208.15 23.4 203.75 21.35 171.15 32.2 140 37.85 124 38.3 122.3 40.8984375 112.834375 39.85 105.35 Z"/>

<path fill="#00F8FF" fill-opacity="0.24705882352941178" stroke="none" d="
M 39.85 105.35
L 39.35 102.5 38.15 102.8
Q 39.092578125 104.0380859375 39.85 105.35 Z"/>

<path fill="#1DA4FE" fill-opacity="0.4980392156862745" stroke="none" d="
M 36.25 6.85
Q 27.3 18.6 23.1 33 18.85 47.45 20.1 62.1 20.7 69.1 22.9 79.05 24.15 84.65 26.8 95.85 31.25 116.2 28.2 129.15 28 130.05 24 140.1 19.25 152.1 16.2 160.95 5.5 191.75 7.5 204.85 7.85 206.95 10 211.05 12.05 214.8 12.6 215.2 13.3697265625 214.59375 14.05 213.8 15.95 211.55 16.8 208.45 17.55 205.9 17.55 202.55 17.55 200.85 17.3 196.5 16.45 179.7 19.2 167.85 20.85 160.9 26.05 148.5
L 33.75 129.8
Q 35.7 125.1 36.45 122.85 37.8 118.9 38.15 115.6 38.4 113.55 38.2 107.65 38 102.65 38.15 102.8
L 39.35 102.5
Q 38.41953125 98.3861328125 36.1 93.25 32.65 86.25 31.1 82.7 24.25 66.65 25.4 48.65 26.6 30.6 35.5 15.65 39.25 9.25 36.25 6.85 Z"/>
</g>

<g id="Symbol_86_3_Layer0_0_FILL">
<path fill="#1DA4FE" stroke="none" d="
M 35.85 24.75
Q 37.95 21.1 40.1 13.35 42.2 5.75 41.4 5.1 40.15 4.15 38.35 4.75 36.95 5.2 35.4 6.5 21.75 17.9 13 34.7 4.6 50.75 1.9 69.2 -0.6 86.55 1.75 105.35 3.95 122.8 10.25 140.65 16.9 159.7 17.6 162.15 20.9 174.6 19.05 184.1 18.25 188.25 14.9 196.8 11.7 204.9 11 209.55 10 215.5 12.15 219.2 14.55 223.25 19.9 224 25.05 224.7 29.3 222 36.1 217.8 39.7 206.1 43.7 192.95 36.65 159.35 31.6 135.4 27 122.95 18.25 99.05 20.65 72.85 23 46.7 35.85 24.75
M 25.15 23.15
Q 27.85 18.6 30.4 16.05 33.75 12.6 37.65 11.6 21.1 34.15 16.05 62.6 11 91.05 18.7 117.9 18.8935546875 118.5580078125 19.65 120.8
L 19.7 120.8
Q 19.8173828125 121.1634765625 19.95 121.55
L 28.65 145.7
Q 29.35 147.25 32.25 158.1 35.85 171.2 36.15 176.25 36.85 187.95 33.35 203.7 32.45 207.8 31.5 210.25 30.1 213.75 27.95 215.9 26.5 217.3 22.35 217.35 18.65 217.35 18.2 216.8 17.6 216.15 17.15 212.4 16.7 208.6 17.1 206.95 17.9 203.8 20.15 197.1 22.3 190.75 23.1 187.25 26.3 172.8 20.75 152.8 19.35 147.8 15.55 136.1 12.05 125.5 10.5 119.4 4.5 95.15 8.35 69.85 12.2 44.5 25.15 23.15 Z"/>

<path fill="#FFFFFF" stroke="none" d="
M 19.65 120.8
Q 19.5 120.6 24.15 138.9 26.45 148.05 28.8 157.25 33.15 175.35 28.4 196.6 27.25 201.85 18.2 216.8 18.65 217.35 22.35 217.35 26.5 217.3 27.95 215.9 30.1 213.75 31.5 210.25 32.45 207.8 33.35 203.7 36.85 187.95 36.15 176.25 35.85 171.2 32.25 158.1 29.35 147.25 28.65 145.7
L 19.95 121.55
Q 19.8173828125 121.1634765625 19.7 120.8
L 19.65 120.8 Z"/>

<path fill="#1DA4FE" fill-opacity="0.4980392156862745" stroke="none" d="
M 30.4 16.05
Q 27.85 18.6 25.15 23.15 12.2 44.5 8.35 69.85 4.5 95.15 10.5 119.4 12.05 125.5 15.55 136.1 19.35 147.8 20.75 152.8 26.3 172.8 23.1 187.25 22.3 190.75 20.15 197.1 17.9 203.8 17.1 206.95 16.7 208.6 17.15 212.4 17.6 216.15 18.2 216.8 27.25 201.85 28.4 196.6 33.15 175.35 28.8 157.25 26.45 148.05 24.15 138.9 19.5 120.6 19.65 120.8 18.8935546875 118.5580078125 18.7 117.9 11 91.05 16.05 62.6 21.1 34.15 37.65 11.6 33.75 12.6 30.4 16.05 Z"/>
</g>

<g id="Symbol_86_1_Layer0_0_FILL">
<path fill="#1DA4FE" stroke="none" d="
M 49.25 43.8
Q 46.9 31.5 47 24.4 47.35 18 47.35 14.8 47.4 9.25 46 5.5 45.15 3.1 43.3 1.65 41.2 0 39.15 0.7 37.2 1.45 35.8 4.9 31.3 16.25 31.9 35 32.05 40.15 32.65 50.6 33.1 59.9 32.7 66.15 31.9 78.25 27.55 92.25 24.4 102.45 18.05 117.3 9.1 138.4 7.7 141.95 2.2 156.1 -0.1 167.4 -3.05 181.4 -1.9 194.15 -0.6 208.3 5.7 219.35 9.1 225.3 14 228.6 19.65 232.5 25.2 231.1 30.55 229.65 33.45 223.85 36.1 218.5 35.4 212.3 34.9 207.7 32.4 201.05 28.7 191.2 28.35 190.05 23.95 175.85 27.05 157.95 29.3 144.9 36.45 126.25 45.65 102.4 47.8 95.25 53.1 77.45 52.25 63.15 51.9 57.55 49.25 43.8
M 41.15 7.1
Q 39.95 24.65 42.75 42.25 43.3 45.8 44.55 52.8 45.65 59.1 45.9 63.45 46.6474609375 75.860546875 42.6 90.55 42.6146484375 90.589453125 42.6 90.6
L 42.6 90.65
Q 40.05 100.1 33.15 117.15 25.8 135.4 23.25 143.6 18.7 158.55 18.75 170.9 18.85 184.2 23.7 196.25 25.1 199.75 28 206.75 30.1 212.9 29.5 217.65 28.95 222.25 26.05 224.1 24.7484375 224.9443359375 23.15 225.1 22.476171875 225.159375 21.75 225.1 19.5 224.85 17.55 223.5 14.65 221.55 12.1 216.4 4.4 200.95 5.65 180.65 6.6 165.15 13.5 144.9 16.5 136.05 19.7 129.2 24.3 120.15 26.2 115.5 28 111 30.7 100.55 34.3 86.4 35.65 79.45 38 67.65 38.35 58.05 37.9 40.8 37.75 32.2 37.55 16.85 41.15 7.1 Z"/>

<path fill="#FFFFFF" stroke="none" d="
M 42.6 90.55
L 42.6 90.5
Q 42.7130859375 89.24375 42.75 88 40.75 87.95 39.7 91.6 34.75 110.35 27.35 127.65 18.6 148.2 17.8 150.45 13.05 163.65 13.05 174.2 13.05 179.85 14.85 189.25 16.95 199.35 19.65 207.6 22.3 216.05 22.85 219.65 23.2927734375 222.5599609375 23.15 225.1 24.7484375 224.9443359375 26.05 224.1 28.95 222.25 29.5 217.65 30.1 212.9 28 206.75 25.1 199.75 23.7 196.25 18.85 184.2 18.75 170.9 18.7 158.55 23.25 143.6 25.8 135.4 33.15 117.15 40.05 100.1 42.6 90.65
L 42.6 90.6
Q 42.6146484375 90.589453125 42.6 90.55 Z"/>

<path fill="#1DA4FE" fill-opacity="0.4980392156862745" stroke="none" d="
M 42.75 42.25
Q 39.95 24.65 41.15 7.1 37.55 16.85 37.75 32.2 37.9 40.8 38.35 58.05 38 67.65 35.65 79.45 34.3 86.4 30.7 100.55 28 111 26.2 115.5 24.3 120.15 19.7 129.2 16.5 136.05 13.5 144.9 6.6 165.15 5.65 180.65 4.4 200.95 12.1 216.4 14.65 221.55 17.55 223.5 19.5 224.85 21.75 225.1 22.476171875 225.159375 23.15 225.1 23.2927734375 222.5599609375 22.85 219.65 22.3 216.05 19.65 207.6 16.95 199.35 14.85 189.25 13.05 179.85 13.05 174.2 13.05 163.65 17.8 150.45 18.6 148.2 27.35 127.65 34.75 110.35 39.7 91.6 40.75 87.95 42.75 88 42.7130859375 89.24375 42.6 90.5
L 42.6 90.55
Q 46.6474609375 75.860546875 45.9 63.45 45.65 59.1 44.55 52.8 43.3 45.8 42.75 42.25 Z"/>
</g>

<g id="Symbol_88_0_Layer1_0_FILL">
<path fill="#1471F2" stroke="none" d="
M 211.05 89.4
Q 210.95 70.85 210.5 66 209.2017578125 107.7548828125 183.9 137.7 157.3 169.35 119.6 169.35 81.85 169.35 55.15 137.7 31.9373046875 110.17578125 28.9 72.65 27.0826171875 91.3693359375 28.8 110.5 29.85 122.25 32.1 130.4 32.4931640625 131.8716796875 32.95 133.35 38.1826171875 141.9546875 44.85 149.85 57.75 165.15 90.4 177.4 106.7 183.5 120.4 186.55 123.5513671875 186.519921875 126.6 186.3 165.825 183.54609375 194.15 149.85 202.2833984375 140.203125 208.25 129.5 208.9828125 126.1841796875 209.55 122.75 211.1 113.25 211.05 89.4 Z"/>

<path fill="#1DA4FE" stroke="none" d="
M 55.05 -15
Q 81.75 -46.65 119.45 -46.65 157.2 -46.65 183.8 -15 210.55 16.6 210.6 61.35 210.6 63.6935546875 210.5 66 210.95 70.85 211.05 89.4 211.1 113.25 209.55 122.75 208.9828125 126.1841796875 208.25 129.5 225.05 99.5392578125 225.05 61.3 225.05 9.4 194.05 -27.25 193.432421875 -27.982421875 192.8 -28.7 190.1759765625 -31.734375 187.45 -34.5 158.5771484375 -63.9 119.4 -63.9 75.65 -63.9 44.75 -27.25 13.85 9.4 13.85 61.3 13.8892578125 102.01953125 32.95 133.35 32.4931640625 131.8716796875 32.1 130.4 29.85 122.25 28.8 110.5 27.0826171875 91.3693359375 28.9 72.65 28.4564453125 67.121875 28.45 61.35 28.45 16.6 55.05 -15 Z"/>
</g>

<g id="Symbol_88_0_Layer0_0_FILL">
<path fill="#FFFFFF" stroke="none" d="
M 131.6 -35.15
Q 128.4 -35.7 125.05 -36 92.75 -38.55 67.8 -13.6 42.9 11.3 39.9 49.1 36.95 86.85 57.65 115.35 63.85 123.75 71.05 130 56.45 100.7 59.35 63.4 62.8 19.9 88 -9.1 107.7 -31.7 131.6 -35.15 Z"/>
</g>

<g id="jelly_att_2_Layer0_0_FILL">
<path fill="#000000" stroke="none" d="
M 38.2 -33
Q 26.591796875 -18.8560546875 19.35 -2.5 0.55 23.87578125 0.55 57.8 0.55 91.516796875 19.1 117.75 22.319921875 125.1037109375 26.4 132 30.1556640625 138.3310546875 34.6 144.3 23.0568359375 153.42421875 15.4 166.55 14.2 168.65 4.8 188.15 -1.45 201.15 -7.9 208.05 -16.15 216.95 -34.35 225.45 -39.2 227.65 -49.05 232.25 -57.45 236.3 -63.05 240.2 -74 247.8 -81.45 258.7 -85.7 264.9 -86.5 269.9 -87.05 273.15 -86.3 276.2 -85.4 279.45 -83.25 281.55 -80 284.65 -74.8 284.45 -70.05 284.35 -65.85 281.7 -62.5 279.5 -58.95 275.4 -55 270.5 -53 268.05 -45 258.4 -32.95 249.55 -24.1 242.85 -9.9 234.55 1.85 227.55 6.75 223.75 15.4 216.95 19.3 209.25 21.2 205.35 22.95 199.1 25.65 188.65 25.65 188.55 30.3 173.15 41.85 161.2 43.7806640625 159.2025390625 45.8 157.4 52.2595703125 163.98046875 59.2 169.05 57.04765625 173.0498046875 55.2 177.25 48.15 193.35 45.45 212.05 42.9 229.5 44.25 248.35 45.6 268.5 45.6 271.05 45.5 283.95 41.2 292.6 39.35 296.4 33.8 303.75 28.6 310.7 26.7 315 24.15 320.45 25.25 324.6 26.5 329.15 31.45 331.3 36.2 333.35 41.05 331.9 48.7 329.65 55.3 319.3 63.55 306.25 66.6 289.45 69.35 274.1 67.7 257.15 67.4 254.15 66.35 246.5 65.45 239.65 65.1 235.75 63 210.4 72.25 185.8 72.53515625 185.0361328125 72.8 184.25 76.563671875 192.7474609375 83.45 197.5 94.35 204.95 114.35 202.85 131.95 201 142.95 194.4 148.766015625 190.884375 152.95 185.9 153.111328125 186.4005859375 153.25 186.85 156.95 198.4 157.9 213 158.7 223.65 158.15 239.8 157.5 262.7 157.5 266.55 157.45 281.7 159.4 293.1 161.75 307.2 167.45 318.65 173.8 331.35 183.65 339.4 189 343.7 194.75 345 201.45 346.55 206.15 343.25 210.55 339.95 211.15 333.5 211.7 327.55 208.8 322.05 206.65 317.95 201.95 312.65 194.9 304.8 194.15 303.85 184.9 292.2 181.3 274.45 178.65 261.45 178.55 241.5 178.5 215.9 177.9 208.45 176.4 189.95 170.4 176.95 169.126953125 174.1873046875 166.35 169.45 166.9306640625 169.0271484375 167.5 168.6 168.243359375 170.95390625 169.1 173.3 175.35 190.3 187.15 204.75 198.3 218.25 213.8 229.15 228.15 239.3 245.6 246.65 264.2 254.55 266.45 255.7 277.85 261.65 283.65 269.4 286.2 272.8 290.25 281.05 294.1 288.85 297.05 292.45 300.8 297.2 305 298.1 309.6 299.1 313.75 295.65 317.7 292.3 318.55 287.35 320.05 279.45 313.85 268.95 305.9 255.65 292.35 245.35 279.9 235.9 264 229.7 261.15 228.65 253.9 226.1 247.45 223.85 243.8 222.35 220.25 212.75 202.45 193.35 187.696875 177.221484375 179.95 157.65 183.9251953125 153.6068359375 187.7 149 195.85 139.05 201.85 128.05 204.772265625 122.68515625 207.15 117.05 225.25 91.0658203125 225.25 57.8 225.25 24.0228515625 206.6 -2.3 199.3271484375 -18.7572265625 187.6 -33 156.65 -70.65 112.9 -70.65 69.15 -70.65 38.2 -33
M 145.3 -46.1
Q 130.0287109375 -50.35 112.9 -50.35 95.9197265625 -50.35 80.75 -46.15 95.70390625 -52.95 112.95 -52.95 130.30078125 -52.95 145.3 -46.1 Z"/>
</g>
</defs>

<g transform="matrix( 0.5844268798828125, 0, 0, 0.5844268798828125, 422.65,249.95) ">
<g transform="matrix( 1, 0, 0, 1, 55,32.7) ">
<g transform="matrix( 1, 0, 0, 1, 0,0) ">
<use xlink:href="#jelly_att_2_Layer6_0_FILL"/>
</g>

<g transform="matrix( 1.00042724609375, 0, 0, 1.027557373046875, 2.9,4.95) ">
<g transform="matrix( 1, 0, 0, 1, 0,0) ">
<use xlink:href="#Symbol_89_0_Layer0_0_FILL"/>
</g>
</g>

<g transform="matrix( 1, 0, 0, 1, 69.25,96.75) ">
<g transform="matrix( 1, 0, 0, 1, 0,0) ">
<use xlink:href="#Symbol_87_0_Layer0_0_FILL"/>
</g>
</g>

<g transform="matrix( 0.99725341796875, 0.070709228515625, -0.070709228515625, 0.99725341796875, 37.85,-30.8) ">
<g transform="matrix( 1, 0, 0, 1, 0,0) ">
<use xlink:href="#Symbol_90_0_Layer0_0_FILL"/>
</g>
</g>

<g transform="matrix( 0.7536468505859375, 0.657196044921875, -0.657196044921875, 0.7536468505859375, 51.45,103.55) ">
<g transform="matrix( 1, 0, 0, 1, 0,0) ">
<use xlink:href="#Symbol_86_2_Layer0_0_FILL"/>
</g>
</g>

<g transform="matrix( 0.9641265869140625, 0.265380859375, -0.265380859375, 0.9641265869140625, 71.7,110.05) ">
<g transform="matrix( 1, 0, 0, 1, 0,0) ">
<use xlink:href="#Symbol_86_3_Layer0_0_FILL"/>
</g>
</g>

<g transform="matrix( 0.9318695068359375, -0.36273193359375, 0.36273193359375, 0.9318695068359375, 98.8,137.05) ">
<g transform="matrix( 1, 0, 0, 1, 0,0) ">
<use xlink:href="#Symbol_86_1_Layer0_0_FILL"/>
</g>
</g>

<g transform="matrix( 0.673187255859375, -0.73944091796875, 0.73944091796875, 0.673187255859375, 134.7,159.55) ">
<g transform="matrix( 1, 0, 0, 1, 0,0) ">
<use xlink:href="#Symbol_86_3_Layer0_0_FILL"/>
</g>
</g>

<g transform="matrix( 1.00042724609375, 0, 0, 1.027557373046875, -6.55,-5) ">
<g transform="matrix( 1, 0, 0, 1, 0,0) ">
<use xlink:href="#Symbol_88_0_Layer1_0_FILL"/>
</g>

<g transform="matrix( 1, 0, 0, 1, 0,0) ">
<use xlink:href="#Symbol_88_0_Layer0_0_FILL"/>
</g>
</g>

<g transform="matrix( 1, 0, 0, 1, 0,0) ">
<use xlink:href="#jelly_att_2_Layer0_0_FILL"/>
</g>
</g>
</g>
</svg>
