
<svg xmlns="http://www.w3.org/2000/svg" version="1.1" xmlns:xlink="http://www.w3.org/1999/xlink" preserveAspectRatio="none" x="0px" y="0px" width="1000px" height="1000px" viewBox="0 0 1000 1000">
<defs>
<linearGradient id="Gradient_1" gradientUnits="userSpaceOnUse" x1="107.275" y1="114.5125" x2="98.225" y2="59.3875" spreadMethod="pad">
<stop  offset="6.2745098039215685%" stop-color="#66FFFF"/>

<stop  offset="39.6078431372549%" stop-color="#0033CC"/>

<stop  offset="100%" stop-color="#333333"/>
</linearGradient>

<g id="Symbol_89_0_Layer0_0_FILL">
<path fill="#1DA4FE" fill-opacity="0.4980392156862745" stroke="none" d="
M 109.95 -53.8
Q 63.4 -53.8 30.5 -23 -2.35 7.8 -2.35 51.45 -2.35 95.1 30.5 125.9 63.4 156.7 109.95 156.7 156.55 156.7 189.4 125.9 222.25 95.1 222.25 51.45 222.25 7.8 189.4 -23 156.55 -53.8 109.95 -53.8 Z"/>
</g>

<g id="Symbol_87_0_Layer0_0_FILL">
<path fill="#1DA4FE" stroke="none" d="
M 84.95 87.65
Q 89.8 81.35 91.05 74.2 92.75 64.95 88.4 54.95 84.6 46.15 76.95 38.4 74.25 35.75 72.9 34.4 70.55 32.05 69.15 30.15 65.2 24.8 65.6 19.65 65.65 18.8 66.35 15.35 66.9 12.75 66.65 11.1 65.8 6.25 58.6 3.15 54.1 1.15 41 3.95 27.55 6.8 25.55 10.8 25.05 11.75 25.25 14.8 25.45 17.45 25.75 18.5 27.25 23.25 21.8 29.2 20.3 30.85 14.95 36 10.55 40.15 8.35 43.1 4.25 48.45 2.1 55.45 0.05 62.05 0 69.3 -0.1 78.8 3.35 87 7.1 95.85 14.2 100.75 25.1 108.2 45.1 106.1 62.7 104.25 73.7 97.65 80.4 93.6 84.95 87.65
M 41 6.35
Q 47.45 5.2 56.8 8.7 57.65 9 58.85 11.65 60.1 14.3 59.85 15.5 58.2 22.45 59.65 27.7 60.9 32.55 65.6 37.95 68.25 41.05 73.8 47 75.95 49.6 79.5 57.5 82.95 65.25 83.1 67.55 83.55 74.5 79.25 81.1 75.25 87.2 68.6 90.9 62.3 94.4 43.35 95.8 24.5 97.15 19.9 94.5 15.75 92.05 12.85 87.65 10.2 83.6 8.9 78.5 6.7 70.15 8.45 61.4 10.2 52.6 15.45 45.75 21.7 37.65 23.45 35.2 29.5 26.7 29.7 23.9 29.75 23.2 29.6 20.25 29.5 17.95 29.75 16.55 30.35 12.7 33.7 9.85 36.8 7.15 41 6.35 Z"/>

<path fill="#1DA4FE" fill-opacity="0.4980392156862745" stroke="none" d="
M 56.8 8.7
Q 47.45 5.2 41 6.35 36.8 7.15 33.7 9.85 30.35 12.7 29.75 16.55 29.5 17.95 29.6 20.25 29.75 23.2 29.7 23.9 29.5 26.7 23.45 35.2 21.7 37.65 15.45 45.75 10.2 52.6 8.45 61.4 6.7 70.15 8.9 78.5 10.2 83.6 12.85 87.65 15.75 92.05 19.9 94.5 24.5 97.15 43.35 95.8 62.3 94.4 68.6 90.9 75.25 87.2 79.25 81.1 83.55 74.5 83.1 67.55 82.95 65.25 79.5 57.5 75.95 49.6 73.8 47 68.25 41.05 65.6 37.95 60.9 32.55 59.65 27.7 58.2 22.45 59.85 15.5 60.1 14.3 58.85 11.65 57.65 9 56.8 8.7
M 63.6 44.8
Q 68.6 47.55 69.95 48.8 70.65 49.4 72.95 53.25 75.2 56.95 75.65 58.15 76 59.1 76.35 62.85 76.65 66.55 76.5 67.95 76.3 69.4 73.65 74.25 71.1 78.85 70.25 79.6 69.05 80.8 63.05 83.95 57.1 87.15 56.75 86.75 56.55 86.55 60.4 79.25 64.55 71.5 64.8 70.75 65.4 69.15 65.8 64.6 66.1 60.4 65.9 59.2 65.65 57.45 63.15 47.7 63.1 47.45 61.35 45.45 59.5 43.25 58.95 42.4 58.7 42.05 63.6 44.8 Z"/>

<path fill="#FFFFFF" stroke="none" d="
M 69.95 48.8
Q 68.6 47.55 63.6 44.8 58.7 42.05 58.95 42.4 59.5 43.25 61.35 45.45 63.1 47.45 63.15 47.7 65.65 57.45 65.9 59.2 66.1 60.4 65.8 64.6 65.4 69.15 64.8 70.75 64.55 71.5 60.4 79.25 56.55 86.55 56.75 86.75 57.1 87.15 63.05 83.95 69.05 80.8 70.25 79.6 71.1 78.85 73.65 74.25 76.3 69.4 76.5 67.95 76.65 66.55 76.35 62.85 76 59.1 75.65 58.15 75.2 56.95 72.95 53.25 70.65 49.4 69.95 48.8 Z"/>
</g>

<g id="Symbol_90_0_Layer0_0_FILL">
<path fill="#000000" stroke="none" d="
M 114.75 12.55
Q 99 5.5 81.8 6.05 52.5 6.95 35 30.4 33.25 32.75 30.1 40.05 27.2 46.8 26.7 49 25.8 52.85 22.15 54.5 21 55.05 17.7 61.2 14.25 67.6 13.5 71.05 12.7 74.75 17.4 85.15 22.1 95.5 25.6 97.9 24.8 99.5 22.05 103.45 19.5 107.1 19.45 107.3 18.3 111.25 23.65 122 28.5 131.9 31.85 134.85 38.05 140.25 56.6 149.4 74.75 158.3 80.2 158.95 86.2 159.45 100.85 158.3 116.75 157.05 121.2 155.25 132.95 150.55 139.55 140 140.45 138.5 143.05 123.8 143.1 123.55 149.9 113.65 157.1 103.15 159 98.2 160.1 95.35 159.65 76.15 159.2 57.3 158.15 53.9 157.4 51.35 139.85 33.9 121.3 15.45 114.75 12.55
M 134.55 48.75
L 128.8 46.55
Q 114.45 41.35 99.5 43.85 98.35 44.1 97.25 44.4 82.25 50.45 73.9 64.25 65 78.95 66.95 96.2 67.15 97.8 67.4 99.4 71.8 117.05 88.3 124.65 103.35 131.55 118.95 126.2 124.35 124.25 129.75 122.3
L 128.4 128.85
Q 129.5 132.4 125.95 139.45 120.3 144.2 113.05 145.35 110.6 145.9 108.15 146.5 93.8 149.7 79.55 146.35 78.05 146 76.6 145.65
L 65.15 142
Q 68.55 130.6 62.5 120.25 56.15 109.4 49.8 98.6 48.4 96.2 47.4 93.55 53.9 86.05 54.25 84.4 54.45 83.4 54.7 82.4
L 54.15 71.9
Q 52.7 63.3 46 57.6 45 56.75 44 55.9 47.05 34.4 65.6 23 69.1 20.85 73.1 19.65 85 15.85 97.45 17.6
L 106.55 20.2
Q 122.65 26.45 131.25 41.4 133.2 44.8 134.55 48.75
M 108.7 46.95
L 112.4 47.05 119.3 56.05
Q 126.7 66.15 128.9 71.9 130.25 74.7 131.3 81.95 132.05 87.15 132.15 89.75 132.35 103.9 125.95 116.65 125.4 117.7 124.9 118.75
L 116.9 120.95
Q 123.3 102.95 120.85 84.05 119.4 72.8 114.8 62.35 111.25 54.25 105.85 47.25
L 108.7 46.95
M 99.45 49.05
L 102.75 47.95
Q 114.95 68.1 116.85 91.8 117.85 104.55 114.8 116.9 114.2 119.25 113.55 121.6
L 106.4 122.8
Q 114.9 107.65 113.6 90.25 112.5 75 105.55 61.25 102.5 55.15 99.45 49.05
M 85.4 58.45
L 87.45 56.6 95.45 50.85
Q 102.1 61.45 105.8 73.4 109.05 84 108.55 95.1 108.6 96.95 108.6 98.8 108.55 111.55 102.95 123
L 92.95 120.7
Q 99.5 105.35 97.95 88.9 96.35 71.85 85.4 58.45
M 85.8 94.3
Q 85.85 96.35 85.95 98.4
L 84.15 115.5 76.5 107.2
Q 77.35 102 77.95 96.8 79.15 86.6 73.9 77.7
L 74.8 74.95 77.65 68.8
Q 85.4 80.4 85.8 94.3
M 82.6 61.5
Q 92.95 74.3 94.25 90.9 95.45 105.7 90.85 119.7
L 87.05 117.45
Q 92.7 101.4 89.2 84.6 87 73.9 80.2 65.3
L 82.6 61.5
M 147.75 58.15
Q 147.9 59.05 148.05 59.95
L 140.6 50.55 140.65 48.4
Q 146.55 51.7 147.75 58.15
M 140 67.45
Q 136.3 57.85 128.95 50.65
L 130.3 51.2
Q 143.9 57.35 147.7 71.55 148.1 73.05 148.5 74.6
L 149.55 87.5
Q 149.6 100.65 139.95 109.45 138.75 110.55 137.55 111.7 148.75 90.1 140 67.45
M 135.55 90.55
Q 135.55 77.85 130.3 66.55 125.2 55.4 116 47.5
L 123.7 49.2
Q 133.25 58.75 137.7 71.55 143.5 88.35 137.4 105.1 135 111.7 130.1 116.6 135.5 104.25 135.55 90.55
M 51 28.25
L 46.2 36.95 41.4 54.1 36.25 53.45 34.2 53.6
Q 39.55 39 51 28.25
M 27.35 62.95
Q 31.1 58.3 36.2 60.8 39.45 62.3 40.7 65.65 45.8 79.5 36.75 90.7
L 35.35 90.85
Q 23.65 84.4 25.05 70.95 25.45 66.85 27.35 62.95
M 35.85 96.55
L 38.5 96.7 43.6 95.6
Q 48.25 109.85 58.85 120.35 62.1 123.5 61.9 127.95 61.6 134.2 61.3 140.45
L 40.8 127.85 31.8 118.35
Q 27.55 112.35 32.15 106.4 35.55 101.95 35.85 96.55
M 46.9 72.5
Q 47 68.8 46.8 66.9 52.65 78.05 44.9 87.8 42.3 91.15 38.15 91.3 40 90.5 42.9 86.2 45.6 82.25 45.8 80.7 46.8 78.2 46.9 72.5
M 72.4 85.25
Q 73.15 88.7 73.9 92.2 74.9 96.85 74.05 101.7
L 72.6 95.35 72.4 85.25 Z"/>

<path fill="url(#Gradient_1)" stroke="none" d="
M 73.9 92.2
Q 73.15 88.7 72.4 85.25
L 72.6 95.35 74.05 101.7
Q 74.9 96.85 73.9 92.2
M 130.3 66.55
Q 135.55 77.85 135.55 90.55 135.5 104.25 130.1 116.6 135 111.7 137.4 105.1 143.5 88.35 137.7 71.55 133.25 58.75 123.7 49.2
L 116 47.5
Q 125.2 55.4 130.3 66.55
M 94.25 90.9
Q 92.95 74.3 82.6 61.5
L 80.2 65.3
Q 87 73.9 89.2 84.6 92.7 101.4 87.05 117.45
L 90.85 119.7
Q 95.45 105.7 94.25 90.9
M 102.75 47.95
L 99.45 49.05
Q 102.5 55.15 105.55 61.25 112.5 75 113.6 90.25 114.9 107.65 106.4 122.8
L 113.55 121.6
Q 114.2 119.25 114.8 116.9 117.85 104.55 116.85 91.8 114.95 68.1 102.75 47.95 Z"/>

<path fill="#333333" stroke="none" d="
M 46.8 66.9
Q 47 68.8 46.9 72.5 46.8 78.2 45.8 80.7 45.6 82.25 42.9 86.2 40 90.5 38.15 91.3 42.3 91.15 44.9 87.8 52.65 78.05 46.8 66.9
M 36.85 70.55
Q 33.75 64.9 27.35 62.95 25.45 66.85 25.05 70.95 23.65 84.4 35.35 90.85 42.8 81.4 36.85 70.55
M 148.05 59.95
Q 147.9 59.05 147.75 58.15 146.55 51.7 140.65 48.4
L 140.6 50.55 148.05 59.95 Z"/>

<path fill="#33CCFF" stroke="none" d="
M 40.8 127.85
Q 42.55 124.55 43.55 121 46.95 109.05 38.3 100.65 38.05 104.55 34.95 111.75 33.4 115.35 31.8 118.35
L 40.8 127.85
M 46.2 36.95
L 51 28.25
Q 39.55 39 34.2 53.6
L 36.25 53.45
Q 36.25 53.35 36.25 53.3 39.45 44.05 46.2 36.95
M 128.4 128.85
L 126.6 130.35 125.95 139.45
Q 129.5 132.4 128.4 128.85
M 60.6 38.95
L 58.3 46.35 63.05 52.2 57.7 48.95 54.7 64.3 62.7 56.9 64.35 56.95 54.35 68.2 54.15 71.9 54.7 82.4
Q 55.15 84.4 56.3 88.05 57.5 92 57.9 92.75 62.2 100.1 68.75 116.05 74.8 130.8 74.95 132.8
L 85.5 140.45 75.45 135.85 76.6 145.65
Q 78.05 146 79.55 146.35 93.8 149.7 108.15 146.5
L 107.4 137.45
Q 92.45 136.1 81.05 126.3 68.65 115.7 67.4 99.4 67.15 97.8 66.95 96.2 65 78.95 73.9 64.25 82.25 50.45 97.25 44.4 84.15 26.6 77 20.8
L 65.5 25.1 61.7 37.75 63.15 38.9 66.4 35 64.55 39.8 65.2 41.65 63.5 41.1 59.8 44.8 62.3 40.2 60.6 38.95
M 86.45 34.65
Q 87.9 35.9 87.9 37.6 87.9 39.3 86.45 40.5 85 41.75 82.95 41.75 80.9 41.75 79.45 40.5 78 39.3 78 37.6 78 35.9 79.45 34.65 80.9 33.45 82.95 33.45 85 33.45 86.45 34.65
M 128.8 46.55
L 134.55 48.75
Q 133.2 44.8 131.25 41.4 122.65 26.45 106.55 20.2 108.55 22 116 30.4 125.35 41 128.8 46.55 Z"/>

<path fill="#1471F2" stroke="none" d="
M 43.6 95.6
L 38.5 96.7 38.3 100.65
Q 46.95 109.05 43.55 121 42.55 124.55 40.8 127.85
L 61.3 140.45
Q 61.6 134.2 61.9 127.95 62.1 123.5 58.85 120.35 48.25 109.85 43.6 95.6
M 36.25 53.3
Q 36.25 53.35 36.25 53.45
L 41.4 54.1 46.2 36.95
Q 39.45 44.05 36.25 53.3
M 126.6 130.35
L 128.4 128.85 129.75 122.3
Q 124.35 124.25 118.95 126.2 103.35 131.55 88.3 124.65 71.8 117.05 67.4 99.4 68.65 115.7 81.05 126.3 92.45 136.1 107.4 137.45 111.45 137.55 119.15 134.15 124.7 131.65 126.6 130.35
M 56.3 88.05
Q 55.15 84.4 54.7 82.4 54.45 83.4 54.25 84.4 53.9 86.05 47.4 93.55 48.4 96.2 49.8 98.6 56.15 109.4 62.5 120.25 68.55 130.6 65.15 142
L 76.6 145.65 75.45 135.85 85.5 140.45 74.95 132.8
Q 74.8 130.8 68.75 116.05 62.2 100.1 57.9 92.75 57.5 92 56.3 88.05
M 73.1 19.65
Q 69.1 20.85 65.6 23 47.05 34.4 44 55.9 45 56.75 46 57.6 52.7 63.3 54.15 71.9
L 54.35 68.2 64.35 56.95 62.7 56.9 54.7 64.3 57.7 48.95 63.05 52.2 58.3 46.35 60.6 38.95 62.3 40.2 59.8 44.8 63.5 41.1 65.2 41.65 64.55 39.8 66.4 35 63.15 38.9 61.7 37.75 65.5 25.1 77 20.8 97.45 17.6
Q 85 15.85 73.1 19.65 Z"/>

<path fill="#FFFFFF" stroke="none" d="
M 38.5 96.7
L 35.85 96.55
Q 35.55 101.95 32.15 106.4 27.55 112.35 31.8 118.35 33.4 115.35 34.95 111.75 38.05 104.55 38.3 100.65
L 38.5 96.7
M 130.3 51.2
Q 130.75 51.55 131.2 51.95 139.75 59.5 144 70
L 148.5 74.6
Q 148.1 73.05 147.7 71.55 143.9 57.35 130.3 51.2
M 112.4 47.05
L 108.7 46.95 117.8 64.5 128.9 71.9
Q 126.7 66.15 119.3 56.05
L 112.4 47.05
M 125.95 139.45
L 126.6 130.35
Q 124.7 131.65 119.15 134.15 111.45 137.55 107.4 137.45
L 108.15 146.5
Q 110.6 145.9 113.05 145.35 120.3 144.2 125.95 139.45
M 87.9 37.6
Q 87.9 35.9 86.45 34.65 85 33.45 82.95 33.45 80.9 33.45 79.45 34.65 78 35.9 78 37.6 78 39.3 79.45 40.5 80.9 41.75 82.95 41.75 85 41.75 86.45 40.5 87.9 39.3 87.9 37.6
M 97.25 44.4
Q 98.35 44.1 99.5 43.85 114.45 41.35 128.8 46.55 125.35 41 116 30.4 108.55 22 106.55 20.2
L 97.45 17.6 77 20.8
Q 84.15 26.6 97.25 44.4 Z"/>

<path fill="#666666" stroke="none" d="
M 36.2 60.8
Q 31.1 58.3 27.35 62.95 33.75 64.9 36.85 70.55 42.8 81.4 35.35 90.85
L 36.75 90.7
Q 45.8 79.5 40.7 65.65 39.45 62.3 36.2 60.8 Z"/>

<path fill="#CCCCCC" stroke="none" d="
M 149.55 87.5
L 148.5 74.6 144 70 148.45 88.2 149.55 87.5
M 85.95 98.4
Q 85.85 96.35 85.8 94.3 85.4 80.4 77.65 68.8
L 74.8 74.95
Q 75.95 77.05 78.5 85.05 81.75 95.35 81.55 100.35
L 85.95 98.4
M 95.45 50.85
L 87.45 56.6
Q 93.65 64.85 97.05 74.4 101.4 86.75 100.85 99.7
L 108.55 95.1
Q 109.05 84 105.8 73.4 102.1 61.45 95.45 50.85
M 117.8 64.5
Q 119 68.35 120.2 72.2 123.85 83.75 123.7 95.75
L 132.15 89.75
Q 132.05 87.15 131.3 81.95 130.25 74.7 128.9 71.9
L 117.8 64.5 Z"/>

<path fill="#999999" stroke="none" d="
M 131.2 51.95
Q 130.75 51.55 130.3 51.2
L 128.95 50.65
Q 136.3 57.85 140 67.45 148.75 90.1 137.55 111.7 138.75 110.55 139.95 109.45 149.6 100.65 149.55 87.5
L 148.45 88.2 144 70
Q 139.75 59.5 131.2 51.95
M 74.8 74.95
L 73.9 77.7
Q 79.15 86.6 77.95 96.8 77.35 102 76.5 107.2
L 84.15 115.5 85.95 98.4 81.55 100.35
Q 81.75 95.35 78.5 85.05 75.95 77.05 74.8 74.95
M 87.45 56.6
L 85.4 58.45
Q 96.35 71.85 97.95 88.9 99.5 105.35 92.95 120.7
L 102.95 123
Q 108.55 111.55 108.6 98.8 108.6 96.95 108.55 95.1
L 100.85 99.7
Q 101.4 86.75 97.05 74.4 93.65 64.85 87.45 56.6
M 108.7 46.95
L 105.85 47.25
Q 111.25 54.25 114.8 62.35 119.4 72.8 120.85 84.05 123.3 102.95 116.9 120.95
L 124.9 118.75
Q 125.4 117.7 125.95 116.65 132.35 103.9 132.15 89.75
L 123.7 95.75
Q 123.85 83.75 120.2 72.2 119 68.35 117.8 64.5
L 108.7 46.95 Z"/>
</g>

<g id="Symbol_86_1_Layer0_0_FILL">
<path fill="#1DA4FE" stroke="none" d="
M 49.25 43.8
Q 46.9 31.5 47 24.4 47.35 18 47.35 14.8 47.4 9.25 46 5.5 45.15 3.1 43.3 1.65 41.2 0 39.15 0.7 37.2 1.45 35.8 4.9 31.3 16.25 31.9 35 32.05 40.15 32.65 50.6 33.1 59.9 32.7 66.15 31.9 78.25 27.55 92.25 24.4 102.45 18.05 117.3 9.1 138.4 7.7 141.95 2.2 156.1 -0.1 167.4 -3.05 181.4 -1.9 194.15 -0.6 208.3 5.7 219.35 9.1 225.3 14 228.6 19.65 232.5 25.2 231.1 30.55 229.65 33.45 223.85 36.1 218.5 35.4 212.3 34.9 207.7 32.4 201.05 28.7 191.2 28.35 190.05 23.95 175.85 27.05 157.95 29.3 144.9 36.45 126.25 45.65 102.4 47.8 95.25 53.1 77.45 52.25 63.15 51.9 57.55 49.25 43.8
M 41.15 7.1
Q 39.95 24.65 42.75 42.25 43.3 45.8 44.55 52.8 45.65 59.1 45.9 63.45 46.6474609375 75.860546875 42.6 90.55 42.6146484375 90.589453125 42.6 90.6
L 42.6 90.65
Q 40.05 100.1 33.15 117.15 25.8 135.4 23.25 143.6 18.7 158.55 18.75 170.9 18.85 184.2 23.7 196.25 25.1 199.75 28 206.75 30.1 212.9 29.5 217.65 28.95 222.25 26.05 224.1 24.7484375 224.9443359375 23.15 225.1 22.476171875 225.159375 21.75 225.1 19.5 224.85 17.55 223.5 14.65 221.55 12.1 216.4 4.4 200.95 5.65 180.65 6.6 165.15 13.5 144.9 16.5 136.05 19.7 129.2 24.3 120.15 26.2 115.5 28 111 30.7 100.55 34.3 86.4 35.65 79.45 38 67.65 38.35 58.05 37.9 40.8 37.75 32.2 37.55 16.85 41.15 7.1 Z"/>

<path fill="#FFFFFF" stroke="none" d="
M 42.6 90.55
L 42.6 90.5
Q 42.7130859375 89.24375 42.75 88 40.75 87.95 39.7 91.6 34.75 110.35 27.35 127.65 18.6 148.2 17.8 150.45 13.05 163.65 13.05 174.2 13.05 179.85 14.85 189.25 16.95 199.35 19.65 207.6 22.3 216.05 22.85 219.65 23.2927734375 222.5599609375 23.15 225.1 24.7484375 224.9443359375 26.05 224.1 28.95 222.25 29.5 217.65 30.1 212.9 28 206.75 25.1 199.75 23.7 196.25 18.85 184.2 18.75 170.9 18.7 158.55 23.25 143.6 25.8 135.4 33.15 117.15 40.05 100.1 42.6 90.65
L 42.6 90.6
Q 42.6146484375 90.589453125 42.6 90.55 Z"/>

<path fill="#1DA4FE" fill-opacity="0.4980392156862745" stroke="none" d="
M 42.75 42.25
Q 39.95 24.65 41.15 7.1 37.55 16.85 37.75 32.2 37.9 40.8 38.35 58.05 38 67.65 35.65 79.45 34.3 86.4 30.7 100.55 28 111 26.2 115.5 24.3 120.15 19.7 129.2 16.5 136.05 13.5 144.9 6.6 165.15 5.65 180.65 4.4 200.95 12.1 216.4 14.65 221.55 17.55 223.5 19.5 224.85 21.75 225.1 22.476171875 225.159375 23.15 225.1 23.2927734375 222.5599609375 22.85 219.65 22.3 216.05 19.65 207.6 16.95 199.35 14.85 189.25 13.05 179.85 13.05 174.2 13.05 163.65 17.8 150.45 18.6 148.2 27.35 127.65 34.75 110.35 39.7 91.6 40.75 87.95 42.75 88 42.7130859375 89.24375 42.6 90.5
L 42.6 90.55
Q 46.6474609375 75.860546875 45.9 63.45 45.65 59.1 44.55 52.8 43.3 45.8 42.75 42.25 Z"/>
</g>

<g id="Symbol_86_4_Layer0_0_FILL">
<path fill="#1DA4FE" stroke="none" d="
M 39.35 4.25
L 31.9 22
Q 27.85 31.6 25.95 35.8 22.45 43.45 19.25 49.25 17.95 51.6 5.7 71.35 -2.6 84.7 -6.25 94.25 -13.25 112.75 -10.75 133.1 -8.25 153.45 3.05 169.65 5.95 173.9 12.3 181.95 17.7 189.3 19.9 195.15 20.3 196.25 22 201.95 23.25 206.1 24.55 208.5 26.4 211.9 29.25 213.9 32.45 216.15 35.8 215.7 40 215.15 42.75 210.7 45.05 206.9 45.6 201.7 46.45 193.9 44.55 186 42.6 178.15 38.25 171.45 35.65 167.55 28.45 159.55 21.7 152.1 18.9 147.35 13.15 137.4 13.05 124.15 12.95 112.6 17.05 99.9 19.85 91.4 26.45 77.35 33.95 61.3 36.4 54.95 39.8 46.15 40.6 24.75 41.35 4.1 39.35 4.25
M 40 9.95
Q 39.6 26.35 33.75 44.6 29 59.4 20 77.35 18.7 79.95 16.1 85.1 13.85 89.55 12.45 92.95 5.05 111.15 7.2 129.2 8.35 138.55 12.15 147.05 13.018359375 148.9869140625 14 150.8 15.4 153.4 23.15 162.2 32.65 173.05 32.85 173.3 37.45 179.1 39.45 186.7 41.35 194.05 40.5 201.7 40.1 205.15 38.6 207.55 36.75 210.4 34.05 210.25
L 33.85 210.25 31.75 209.55
Q 30.49609375 208.7087890625 29.55 206.9 28.5 204.8 27.6 200.55 25.6 190.8 17.3 177.9 12.6 170.85 10.3 167.3 6.15 161 3.8 156.4 -3.8 141.5 -4.25 124.2 -4.65 106.9 2.2 91.55 11.85 72.15 20.05 55.25 36.15 22.3 40 9.95 Z"/>

<path fill="#FFFFFF" stroke="none" d="
M 39.45 186.7
Q 37.45 179.1 32.85 173.3 32.65 173.05 23.15 162.2 15.4 153.4 14 150.8 12.05 148.45 11.45 147.4 10.9 146.55 15.6 156.2 20.2 165.7 20.9 167 22.1 169 26.95 175.05 31.6 180.8 31.95 181.5 32.9 183.5 33.6 192.1 34.35 201.35 33.3 204.9 33.2 205.25 32.25 207.85 31.65 209.45 31.75 209.55
L 33.85 210.25 34.05 210.25
Q 36.75 210.4 38.6 207.55 40.1 205.15 40.5 201.7 41.35 194.05 39.45 186.7 Z"/>

<path fill="#00F8FF" fill-opacity="0.24705882352941178" stroke="none" d="
M 12.15 147.05
L 11.45 147.4
Q 12.05 148.45 14 150.8 13.018359375 148.9869140625 12.15 147.05 Z"/>

<path fill="#1DA4FE" fill-opacity="0.4980392156862745" stroke="none" d="
M 33.75 44.6
Q 39.6 26.35 40 9.95 36.15 22.3 20.05 55.25 11.85 72.15 2.2 91.55 -4.65 106.9 -4.25 124.2 -3.8 141.5 3.8 156.4 6.15 161 10.3 167.3 12.6 170.85 17.3 177.9 25.6 190.8 27.6 200.55 28.5 204.8 29.55 206.9 30.49609375 208.7087890625 31.75 209.55 31.65 209.45 32.25 207.85 33.2 205.25 33.3 204.9 34.35 201.35 33.6 192.1 32.9 183.5 31.95 181.5 31.6 180.8 26.95 175.05 22.1 169 20.9 167 20.2 165.7 15.6 156.2 10.9 146.55 11.45 147.4
L 12.15 147.05
Q 8.35 138.55 7.2 129.2 5.05 111.15 12.45 92.95 13.85 89.55 16.1 85.1 18.7 79.95 20 77.35 29 59.4 33.75 44.6 Z"/>
</g>

<g id="Symbol_86_0_Layer0_0_FILL">
<path fill="#1DA4FE" stroke="none" d="
M 50.4 19.8
Q 49.8 12.1 47.5 6.25 45.95 2.4 44 1 42.65 0.05 41.05 0 39.3 -0.1 38.1 0.9 36.9 1.95 36.6 4 36.45 5.2 36.6 7.7 36.9 13.15 35.8 19.7 35 24.35 33.05 31.5 27.4 52.3 13.6 93.35 2.2 130.15 0.4 156.2 -0.7 173.35 1.15 193.25 1.75 200.4 2.6 205.25 3.7 211.75 5.55 216.95 8.15 224.15 12 227.75 14.4 230 17.35 231.05 20.55 232.2 23.55 231.6 28.6 230.55 31.8 225.65 35.1 220.6 35.15 213.05 35.2 207.95 33.5 199.4 27.7 169.75 26.25 156.55 23.65 132.45 27.1 113.65 28.95 103.6 33.6 90.1 39.25 74.6 41.95 66.9 51.95 38.5 50.4 19.8
M 41.9 6.2
Q 44.8 11.25 45.35 19.4 46.2 30.9 43.25 44.3 41.1927734375 53.7171875 36.65 66.1 36.31796875 67.065234375 35.95 68.05
L 35.95 68.05 35.8 68.45
Q 32.85 76.3 26.75 92 21.7 105.7 19.7 116.1 16.25 134.05 18.5 156.2 20.1 172.05 25.55 196.15 27.4 204.05 27.75 208.2 28.35 215 26.5 220.1 25.35 223.7 22.85 224.3 21.2796875 224.69921875 19.7 223.75 18.35625 222.920703125 17 221.05 13.6 216.45 11.75 209.75 10.4 204.95 9.5 197.25 5.65 163.25 11.8 129.4 14.25 115.95 19.2 98.5 20 95.75 28.35 68 39.9 29.7 41.9 6.2 Z"/>

<path fill="#00F8FF" stroke="none" d="
M 35.8 68.35
L 35.8 68.45 35.95 68.05
Q 35.8912109375 68.21328125 35.8 68.35 Z"/>

<path fill="#FFFFFF" stroke="none" d="
M 35.95 68.05
Q 35.8580078125 66.868359375 35.7 65.75 33.6 67.8 31.95 71.05 30.95 73 29.4 77.1 24.55 90.1 22.55 96.3 19.1 107.15 17.75 116.1 16.5 124.15 16.05 138 15.4 152.4 15.45 160.35 15.55 172.7 16.9 182.65 17.6 187.6 19.35 197.5 20.8 206.35 20.8 212.4 20.7556640625 217.6673828125 19.7 223.75 21.2796875 224.69921875 22.85 224.3 25.35 223.7 26.5 220.1 28.35 215 27.75 208.2 27.4 204.05 25.55 196.15 20.1 172.05 18.5 156.2 16.25 134.05 19.7 116.1 21.7 105.7 26.75 92 32.85 76.3 35.8 68.45
L 35.8 68.35
Q 35.8912109375 68.21328125 35.95 68.05
L 35.95 68.05 Z"/>

<path fill="#00F8FF" fill-opacity="0.24705882352941178" stroke="none" d="
M 35.7 65.75
Q 35.8580078125 66.868359375 35.95 68.05 36.31796875 67.065234375 36.65 66.1
L 35.7 65.75 Z"/>

<path fill="#1DA4FE" fill-opacity="0.4980392156862745" stroke="none" d="
M 45.35 19.4
Q 44.8 11.25 41.9 6.2 39.9 29.7 28.35 68 20 95.75 19.2 98.5 14.25 115.95 11.8 129.4 5.65 163.25 9.5 197.25 10.4 204.95 11.75 209.75 13.6 216.45 17 221.05 18.35625 222.920703125 19.7 223.75 20.7556640625 217.6673828125 20.8 212.4 20.8 206.35 19.35 197.5 17.6 187.6 16.9 182.65 15.55 172.7 15.45 160.35 15.4 152.4 16.05 138 16.5 124.15 17.75 116.1 19.1 107.15 22.55 96.3 24.55 90.1 29.4 77.1 30.95 73 31.95 71.05 33.6 67.8 35.7 65.75
L 36.65 66.1
Q 41.1927734375 53.7171875 43.25 44.3 46.2 30.9 45.35 19.4 Z"/>
</g>

<g id="Symbol_86_2_Layer0_0_FILL">
<path fill="#1DA4FE" stroke="none" d="
M 42.95 12.6
Q 44.3 8.65 42.9 5.8 42.3 4.55 38.75 4.3 35.3 4.05 34.35 4.85 21.05 16.4 15.7 35.05 10.7 52.75 14.25 71.2 14.7 73.6 20.45 94.4 24.3 108.35 23.95 117.75 23.55 129.9 15.45 148.25 13.25 153.15 8.8 163.05 5.15 171.65 3.5 178.25 1.95 184.35 2.8 199.05 3.6 213.35 5.35 216.1 7.1 218.9 9.65 220.65 12.45 222.55 15.45 222.7 19.95 222.9 23.75 219.35 27.25 216.15 28.65 211.35 28.9 210.45 32.7 179.45 36.4 149.35 39.85 139.05 44.15 126.05 45.3 120 47.4 109.15 45.25 100.8 44.15 96.6 41.3 90.75 36.5 81.1 36.45 81 29.8 66.35 30.65 49.75 31.5 33.15 39.6 19.25 42.2 14.75 42.95 12.6
M 23.1 33
Q 27.3 18.6 36.25 6.85 39.25 9.25 35.5 15.65 26.6 30.6 25.4 48.65 24.25 66.65 31.1 82.7 32.65 86.25 36.1 93.25 38.41953125 98.3861328125 39.35 102.5
L 39.85 105.35
Q 40.8984375 112.834375 38.3 122.3 37.85 124 32.2 140 21.35 171.15 23.4 203.75 23.7 208.15 23.1 210.8 22.25 214.6 19.55 216 18.6 216.45 15.8 216 13.25 215.6 12.6 215.2 12.05 214.8 10 211.05 7.85 206.95 7.5 204.85 5.5 191.75 16.2 160.95 19.25 152.1 24 140.1 28 130.05 28.2 129.15 31.25 116.2 26.8 95.85 24.15 84.65 22.9 79.05 20.7 69.1 20.1 62.1 18.85 47.45 23.1 33 Z"/>

<path fill="#FFFFFF" stroke="none" d="
M 39.85 105.35
Q 39.092578125 104.0380859375 38.15 102.8 38 102.65 38.2 107.65 38.4 113.55 38.15 115.6 37.8 118.9 36.45 122.85 35.7 125.1 33.75 129.8
L 26.05 148.5
Q 20.85 160.9 19.2 167.85 16.45 179.7 17.3 196.5 17.55 200.85 17.55 202.55 17.55 205.9 16.8 208.45 15.95 211.55 14.05 213.8 13.3697265625 214.59375 12.6 215.2 13.25 215.6 15.8 216 18.6 216.45 19.55 216 22.25 214.6 23.1 210.8 23.7 208.15 23.4 203.75 21.35 171.15 32.2 140 37.85 124 38.3 122.3 40.8984375 112.834375 39.85 105.35 Z"/>

<path fill="#00F8FF" fill-opacity="0.24705882352941178" stroke="none" d="
M 39.85 105.35
L 39.35 102.5 38.15 102.8
Q 39.092578125 104.0380859375 39.85 105.35 Z"/>

<path fill="#1DA4FE" fill-opacity="0.4980392156862745" stroke="none" d="
M 36.25 6.85
Q 27.3 18.6 23.1 33 18.85 47.45 20.1 62.1 20.7 69.1 22.9 79.05 24.15 84.65 26.8 95.85 31.25 116.2 28.2 129.15 28 130.05 24 140.1 19.25 152.1 16.2 160.95 5.5 191.75 7.5 204.85 7.85 206.95 10 211.05 12.05 214.8 12.6 215.2 13.3697265625 214.59375 14.05 213.8 15.95 211.55 16.8 208.45 17.55 205.9 17.55 202.55 17.55 200.85 17.3 196.5 16.45 179.7 19.2 167.85 20.85 160.9 26.05 148.5
L 33.75 129.8
Q 35.7 125.1 36.45 122.85 37.8 118.9 38.15 115.6 38.4 113.55 38.2 107.65 38 102.65 38.15 102.8
L 39.35 102.5
Q 38.41953125 98.3861328125 36.1 93.25 32.65 86.25 31.1 82.7 24.25 66.65 25.4 48.65 26.6 30.6 35.5 15.65 39.25 9.25 36.25 6.85 Z"/>
</g>

<g id="Symbol_88_0_Layer1_0_FILL">
<path fill="#1471F2" stroke="none" d="
M 211.05 89.4
Q 210.95 70.85 210.5 66 209.2017578125 107.7548828125 183.9 137.7 157.3 169.35 119.6 169.35 81.85 169.35 55.15 137.7 31.9373046875 110.17578125 28.9 72.65 27.0826171875 91.3693359375 28.8 110.5 29.85 122.25 32.1 130.4 32.4931640625 131.8716796875 32.95 133.35 38.1826171875 141.9546875 44.85 149.85 57.75 165.15 90.4 177.4 106.7 183.5 120.4 186.55 123.5513671875 186.519921875 126.6 186.3 165.825 183.54609375 194.15 149.85 202.2833984375 140.203125 208.25 129.5 208.9828125 126.1841796875 209.55 122.75 211.1 113.25 211.05 89.4 Z"/>

<path fill="#1DA4FE" stroke="none" d="
M 55.05 -15
Q 81.75 -46.65 119.45 -46.65 157.2 -46.65 183.8 -15 210.55 16.6 210.6 61.35 210.6 63.6935546875 210.5 66 210.95 70.85 211.05 89.4 211.1 113.25 209.55 122.75 208.9828125 126.1841796875 208.25 129.5 225.05 99.5392578125 225.05 61.3 225.05 9.4 194.05 -27.25 193.432421875 -27.982421875 192.8 -28.7 190.1759765625 -31.734375 187.45 -34.5 158.5771484375 -63.9 119.4 -63.9 75.65 -63.9 44.75 -27.25 13.85 9.4 13.85 61.3 13.8892578125 102.01953125 32.95 133.35 32.4931640625 131.8716796875 32.1 130.4 29.85 122.25 28.8 110.5 27.0826171875 91.3693359375 28.9 72.65 28.4564453125 67.121875 28.45 61.35 28.45 16.6 55.05 -15 Z"/>
</g>

<g id="Symbol_88_0_Layer0_0_FILL">
<path fill="#FFFFFF" stroke="none" d="
M 131.6 -35.15
Q 128.4 -35.7 125.05 -36 92.75 -38.55 67.8 -13.6 42.9 11.3 39.9 49.1 36.95 86.85 57.65 115.35 63.85 123.75 71.05 130 56.45 100.7 59.35 63.4 62.8 19.9 88 -9.1 107.7 -31.7 131.6 -35.15 Z"/>
</g>
</defs>

<g transform="matrix( 0.5844268798828125, 0, 0, 0.5844268798828125, 422.65,249.95) ">
<g transform="matrix( 1, 0, 0, 1, 55,32.7) ">
<g transform="matrix( 0.97900390625, 0, 0, 1, 4.85,6.25) ">
<g transform="matrix( 1, 0, 0, 1, 0,0) ">
<use xlink:href="#Symbol_89_0_Layer0_0_FILL"/>
</g>
</g>

<g transform="matrix( 0.9670257568359375, 0, 0.08154296875, 1.0316314697265625, 66.15,102.6) ">
<g transform="matrix( 1, 0, 0, 1, 0,0) ">
<use xlink:href="#Symbol_87_0_Layer0_0_FILL"/>
</g>
</g>

<g transform="matrix( 0.9992218017578125, 0.0353851318359375, -0.0353851318359375, 0.9992218017578125, 34.9,-28.9) ">
<g transform="matrix( 1, 0, 0, 1, 0,0) ">
<use xlink:href="#Symbol_90_0_Layer0_0_FILL"/>
</g>
</g>

<g transform="matrix( 0.93231201171875, 0.3585205078125, -0.3585205078125, 0.93231201171875, 45.85,120.7) ">
<g transform="matrix( 1, 0, 0, 1, 0,0) ">
<use xlink:href="#Symbol_86_1_Layer0_0_FILL"/>
</g>
</g>

<g transform="matrix( 0.988433837890625, 0.1483306884765625, -0.1483306884765625, 0.988433837890625, 72.25,123.25) ">
<g transform="matrix( 1, 0, 0, 1, 0,0) ">
<use xlink:href="#Symbol_86_4_Layer0_0_FILL"/>
</g>
</g>

<g transform="matrix( 0.999847412109375, 0.0141143798828125, -0.0141143798828125, 0.999847412109375, 103.4,129.75) ">
<g transform="matrix( 1, 0, 0, 1, 0,0) ">
<use xlink:href="#Symbol_86_0_Layer0_0_FILL"/>
</g>
</g>

<g transform="matrix( 0.9946136474609375, -0.1003570556640625, 0.1003570556640625, 0.9946136474609375, 127.1,139.1) ">
<g transform="matrix( 1, 0, 0, 1, 0,0) ">
<use xlink:href="#Symbol_86_2_Layer0_0_FILL"/>
</g>
</g>

<g transform="matrix( 1.00970458984375, 0, -0.0214996337890625, 0.95587158203125, -6.7,-0.35) ">
<g transform="matrix( 1, 0, 0, 1, 0,0) ">
<use xlink:href="#Symbol_88_0_Layer1_0_FILL"/>
</g>

<g transform="matrix( 1, 0, 0, 1, 0,0) ">
<use xlink:href="#Symbol_88_0_Layer0_0_FILL"/>
</g>
</g>
</g>
</g>
</svg>
