
<svg xmlns="http://www.w3.org/2000/svg" version="1.1" xmlns:xlink="http://www.w3.org/1999/xlink" preserveAspectRatio="none" x="0px" y="0px" width="1000px" height="1000px" viewBox="0 0 1000 1000">
<defs>
<linearGradient id="Gradient_1" gradientUnits="userSpaceOnUse" x1="107.275" y1="114.5125" x2="98.225" y2="59.3875" spreadMethod="pad">
<stop  offset="6.2745098039215685%" stop-color="#66FFFF"/>

<stop  offset="39.6078431372549%" stop-color="#0033CC"/>

<stop  offset="100%" stop-color="#333333"/>
</linearGradient>

<g id="Symbol_90_0_Layer0_0_FILL">
<path fill="#000000" stroke="none" d="
M 114.75 12.55
Q 99 5.5 81.8 6.05 52.5 6.95 35 30.4 33.25 32.75 30.1 40.05 27.2 46.8 26.7 49 25.8 52.85 22.15 54.5 21 55.05 17.7 61.2 14.25 67.6 13.5 71.05 12.7 74.75 17.4 85.15 22.1 95.5 25.6 97.9 24.8 99.5 22.05 103.45 19.5 107.1 19.45 107.3 18.3 111.25 23.65 122 28.5 131.9 31.85 134.85 38.05 140.25 56.6 149.4 74.75 158.3 80.2 158.95 86.2 159.45 100.85 158.3 116.75 157.05 121.2 155.25 132.95 150.55 139.55 140 140.45 138.5 143.05 123.8 143.1 123.55 149.9 113.65 157.1 103.15 159 98.2 160.1 95.35 159.65 76.15 159.2 57.3 158.15 53.9 157.4 51.35 139.85 33.9 121.3 15.45 114.75 12.55
M 134.55 48.75
L 128.8 46.55
Q 114.45 41.35 99.5 43.85 98.35 44.1 97.25 44.4 82.25 50.45 73.9 64.25 65 78.95 66.95 96.2 67.15 97.8 67.4 99.4 71.8 117.05 88.3 124.65 103.35 131.55 118.95 126.2 124.35 124.25 129.75 122.3
L 128.4 128.85
Q 129.5 132.4 125.95 139.45 120.3 144.2 113.05 145.35 110.6 145.9 108.15 146.5 93.8 149.7 79.55 146.35 78.05 146 76.6 145.65
L 65.15 142
Q 68.55 130.6 62.5 120.25 56.15 109.4 49.8 98.6 48.4 96.2 47.4 93.55 53.9 86.05 54.25 84.4 54.45 83.4 54.7 82.4
L 54.15 71.9
Q 52.7 63.3 46 57.6 45 56.75 44 55.9 47.05 34.4 65.6 23 69.1 20.85 73.1 19.65 85 15.85 97.45 17.6
L 106.55 20.2
Q 122.65 26.45 131.25 41.4 133.2 44.8 134.55 48.75
M 108.7 46.95
L 112.4 47.05 119.3 56.05
Q 126.7 66.15 128.9 71.9 130.25 74.7 131.3 81.95 132.05 87.15 132.15 89.75 132.35 103.9 125.95 116.65 125.4 117.7 124.9 118.75
L 116.9 120.95
Q 123.3 102.95 120.85 84.05 119.4 72.8 114.8 62.35 111.25 54.25 105.85 47.25
L 108.7 46.95
M 99.45 49.05
L 102.75 47.95
Q 114.95 68.1 116.85 91.8 117.85 104.55 114.8 116.9 114.2 119.25 113.55 121.6
L 106.4 122.8
Q 114.9 107.65 113.6 90.25 112.5 75 105.55 61.25 102.5 55.15 99.45 49.05
M 85.4 58.45
L 87.45 56.6 95.45 50.85
Q 102.1 61.45 105.8 73.4 109.05 84 108.55 95.1 108.6 96.95 108.6 98.8 108.55 111.55 102.95 123
L 92.95 120.7
Q 99.5 105.35 97.95 88.9 96.35 71.85 85.4 58.45
M 85.8 94.3
Q 85.85 96.35 85.95 98.4
L 84.15 115.5 76.5 107.2
Q 77.35 102 77.95 96.8 79.15 86.6 73.9 77.7
L 74.8 74.95 77.65 68.8
Q 85.4 80.4 85.8 94.3
M 82.6 61.5
Q 92.95 74.3 94.25 90.9 95.45 105.7 90.85 119.7
L 87.05 117.45
Q 92.7 101.4 89.2 84.6 87 73.9 80.2 65.3
L 82.6 61.5
M 147.75 58.15
Q 147.9 59.05 148.05 59.95
L 140.6 50.55 140.65 48.4
Q 146.55 51.7 147.75 58.15
M 140 67.45
Q 136.3 57.85 128.95 50.65
L 130.3 51.2
Q 143.9 57.35 147.7 71.55 148.1 73.05 148.5 74.6
L 149.55 87.5
Q 149.6 100.65 139.95 109.45 138.75 110.55 137.55 111.7 148.75 90.1 140 67.45
M 135.55 90.55
Q 135.55 77.85 130.3 66.55 125.2 55.4 116 47.5
L 123.7 49.2
Q 133.25 58.75 137.7 71.55 143.5 88.35 137.4 105.1 135 111.7 130.1 116.6 135.5 104.25 135.55 90.55
M 51 28.25
L 46.2 36.95 41.4 54.1 36.25 53.45 34.2 53.6
Q 39.55 39 51 28.25
M 27.35 62.95
Q 31.1 58.3 36.2 60.8 39.45 62.3 40.7 65.65 45.8 79.5 36.75 90.7
L 35.35 90.85
Q 23.65 84.4 25.05 70.95 25.45 66.85 27.35 62.95
M 35.85 96.55
L 38.5 96.7 43.6 95.6
Q 48.25 109.85 58.85 120.35 62.1 123.5 61.9 127.95 61.6 134.2 61.3 140.45
L 40.8 127.85 31.8 118.35
Q 27.55 112.35 32.15 106.4 35.55 101.95 35.85 96.55
M 46.9 72.5
Q 47 68.8 46.8 66.9 52.65 78.05 44.9 87.8 42.3 91.15 38.15 91.3 40 90.5 42.9 86.2 45.6 82.25 45.8 80.7 46.8 78.2 46.9 72.5
M 72.4 85.25
Q 73.15 88.7 73.9 92.2 74.9 96.85 74.05 101.7
L 72.6 95.35 72.4 85.25 Z"/>

<path fill="url(#Gradient_1)" stroke="none" d="
M 73.9 92.2
Q 73.15 88.7 72.4 85.25
L 72.6 95.35 74.05 101.7
Q 74.9 96.85 73.9 92.2
M 130.3 66.55
Q 135.55 77.85 135.55 90.55 135.5 104.25 130.1 116.6 135 111.7 137.4 105.1 143.5 88.35 137.7 71.55 133.25 58.75 123.7 49.2
L 116 47.5
Q 125.2 55.4 130.3 66.55
M 94.25 90.9
Q 92.95 74.3 82.6 61.5
L 80.2 65.3
Q 87 73.9 89.2 84.6 92.7 101.4 87.05 117.45
L 90.85 119.7
Q 95.45 105.7 94.25 90.9
M 102.75 47.95
L 99.45 49.05
Q 102.5 55.15 105.55 61.25 112.5 75 113.6 90.25 114.9 107.65 106.4 122.8
L 113.55 121.6
Q 114.2 119.25 114.8 116.9 117.85 104.55 116.85 91.8 114.95 68.1 102.75 47.95 Z"/>

<path fill="#333333" stroke="none" d="
M 46.8 66.9
Q 47 68.8 46.9 72.5 46.8 78.2 45.8 80.7 45.6 82.25 42.9 86.2 40 90.5 38.15 91.3 42.3 91.15 44.9 87.8 52.65 78.05 46.8 66.9
M 36.85 70.55
Q 33.75 64.9 27.35 62.95 25.45 66.85 25.05 70.95 23.65 84.4 35.35 90.85 42.8 81.4 36.85 70.55
M 148.05 59.95
Q 147.9 59.05 147.75 58.15 146.55 51.7 140.65 48.4
L 140.6 50.55 148.05 59.95 Z"/>

<path fill="#33CCFF" stroke="none" d="
M 40.8 127.85
Q 42.55 124.55 43.55 121 46.95 109.05 38.3 100.65 38.05 104.55 34.95 111.75 33.4 115.35 31.8 118.35
L 40.8 127.85
M 46.2 36.95
L 51 28.25
Q 39.55 39 34.2 53.6
L 36.25 53.45
Q 36.25 53.35 36.25 53.3 39.45 44.05 46.2 36.95
M 128.4 128.85
L 126.6 130.35 125.95 139.45
Q 129.5 132.4 128.4 128.85
M 60.6 38.95
L 58.3 46.35 63.05 52.2 57.7 48.95 54.7 64.3 62.7 56.9 64.35 56.95 54.35 68.2 54.15 71.9 54.7 82.4
Q 55.15 84.4 56.3 88.05 57.5 92 57.9 92.75 62.2 100.1 68.75 116.05 74.8 130.8 74.95 132.8
L 85.5 140.45 75.45 135.85 76.6 145.65
Q 78.05 146 79.55 146.35 93.8 149.7 108.15 146.5
L 107.4 137.45
Q 92.45 136.1 81.05 126.3 68.65 115.7 67.4 99.4 67.15 97.8 66.95 96.2 65 78.95 73.9 64.25 82.25 50.45 97.25 44.4 84.15 26.6 77 20.8
L 65.5 25.1 61.7 37.75 63.15 38.9 66.4 35 64.55 39.8 65.2 41.65 63.5 41.1 59.8 44.8 62.3 40.2 60.6 38.95
M 86.45 34.65
Q 87.9 35.9 87.9 37.6 87.9 39.3 86.45 40.5 85 41.75 82.95 41.75 80.9 41.75 79.45 40.5 78 39.3 78 37.6 78 35.9 79.45 34.65 80.9 33.45 82.95 33.45 85 33.45 86.45 34.65
M 128.8 46.55
L 134.55 48.75
Q 133.2 44.8 131.25 41.4 122.65 26.45 106.55 20.2 108.55 22 116 30.4 125.35 41 128.8 46.55 Z"/>

<path fill="#1471F2" stroke="none" d="
M 43.6 95.6
L 38.5 96.7 38.3 100.65
Q 46.95 109.05 43.55 121 42.55 124.55 40.8 127.85
L 61.3 140.45
Q 61.6 134.2 61.9 127.95 62.1 123.5 58.85 120.35 48.25 109.85 43.6 95.6
M 36.25 53.3
Q 36.25 53.35 36.25 53.45
L 41.4 54.1 46.2 36.95
Q 39.45 44.05 36.25 53.3
M 126.6 130.35
L 128.4 128.85 129.75 122.3
Q 124.35 124.25 118.95 126.2 103.35 131.55 88.3 124.65 71.8 117.05 67.4 99.4 68.65 115.7 81.05 126.3 92.45 136.1 107.4 137.45 111.45 137.55 119.15 134.15 124.7 131.65 126.6 130.35
M 56.3 88.05
Q 55.15 84.4 54.7 82.4 54.45 83.4 54.25 84.4 53.9 86.05 47.4 93.55 48.4 96.2 49.8 98.6 56.15 109.4 62.5 120.25 68.55 130.6 65.15 142
L 76.6 145.65 75.45 135.85 85.5 140.45 74.95 132.8
Q 74.8 130.8 68.75 116.05 62.2 100.1 57.9 92.75 57.5 92 56.3 88.05
M 73.1 19.65
Q 69.1 20.85 65.6 23 47.05 34.4 44 55.9 45 56.75 46 57.6 52.7 63.3 54.15 71.9
L 54.35 68.2 64.35 56.95 62.7 56.9 54.7 64.3 57.7 48.95 63.05 52.2 58.3 46.35 60.6 38.95 62.3 40.2 59.8 44.8 63.5 41.1 65.2 41.65 64.55 39.8 66.4 35 63.15 38.9 61.7 37.75 65.5 25.1 77 20.8 97.45 17.6
Q 85 15.85 73.1 19.65 Z"/>

<path fill="#FFFFFF" stroke="none" d="
M 38.5 96.7
L 35.85 96.55
Q 35.55 101.95 32.15 106.4 27.55 112.35 31.8 118.35 33.4 115.35 34.95 111.75 38.05 104.55 38.3 100.65
L 38.5 96.7
M 130.3 51.2
Q 130.75 51.55 131.2 51.95 139.75 59.5 144 70
L 148.5 74.6
Q 148.1 73.05 147.7 71.55 143.9 57.35 130.3 51.2
M 112.4 47.05
L 108.7 46.95 117.8 64.5 128.9 71.9
Q 126.7 66.15 119.3 56.05
L 112.4 47.05
M 125.95 139.45
L 126.6 130.35
Q 124.7 131.65 119.15 134.15 111.45 137.55 107.4 137.45
L 108.15 146.5
Q 110.6 145.9 113.05 145.35 120.3 144.2 125.95 139.45
M 87.9 37.6
Q 87.9 35.9 86.45 34.65 85 33.45 82.95 33.45 80.9 33.45 79.45 34.65 78 35.9 78 37.6 78 39.3 79.45 40.5 80.9 41.75 82.95 41.75 85 41.75 86.45 40.5 87.9 39.3 87.9 37.6
M 97.25 44.4
Q 98.35 44.1 99.5 43.85 114.45 41.35 128.8 46.55 125.35 41 116 30.4 108.55 22 106.55 20.2
L 97.45 17.6 77 20.8
Q 84.15 26.6 97.25 44.4 Z"/>

<path fill="#666666" stroke="none" d="
M 36.2 60.8
Q 31.1 58.3 27.35 62.95 33.75 64.9 36.85 70.55 42.8 81.4 35.35 90.85
L 36.75 90.7
Q 45.8 79.5 40.7 65.65 39.45 62.3 36.2 60.8 Z"/>

<path fill="#CCCCCC" stroke="none" d="
M 149.55 87.5
L 148.5 74.6 144 70 148.45 88.2 149.55 87.5
M 85.95 98.4
Q 85.85 96.35 85.8 94.3 85.4 80.4 77.65 68.8
L 74.8 74.95
Q 75.95 77.05 78.5 85.05 81.75 95.35 81.55 100.35
L 85.95 98.4
M 95.45 50.85
L 87.45 56.6
Q 93.65 64.85 97.05 74.4 101.4 86.75 100.85 99.7
L 108.55 95.1
Q 109.05 84 105.8 73.4 102.1 61.45 95.45 50.85
M 117.8 64.5
Q 119 68.35 120.2 72.2 123.85 83.75 123.7 95.75
L 132.15 89.75
Q 132.05 87.15 131.3 81.95 130.25 74.7 128.9 71.9
L 117.8 64.5 Z"/>

<path fill="#999999" stroke="none" d="
M 131.2 51.95
Q 130.75 51.55 130.3 51.2
L 128.95 50.65
Q 136.3 57.85 140 67.45 148.75 90.1 137.55 111.7 138.75 110.55 139.95 109.45 149.6 100.65 149.55 87.5
L 148.45 88.2 144 70
Q 139.75 59.5 131.2 51.95
M 74.8 74.95
L 73.9 77.7
Q 79.15 86.6 77.95 96.8 77.35 102 76.5 107.2
L 84.15 115.5 85.95 98.4 81.55 100.35
Q 81.75 95.35 78.5 85.05 75.95 77.05 74.8 74.95
M 87.45 56.6
L 85.4 58.45
Q 96.35 71.85 97.95 88.9 99.5 105.35 92.95 120.7
L 102.95 123
Q 108.55 111.55 108.6 98.8 108.6 96.95 108.55 95.1
L 100.85 99.7
Q 101.4 86.75 97.05 74.4 93.65 64.85 87.45 56.6
M 108.7 46.95
L 105.85 47.25
Q 111.25 54.25 114.8 62.35 119.4 72.8 120.85 84.05 123.3 102.95 116.9 120.95
L 124.9 118.75
Q 125.4 117.7 125.95 116.65 132.35 103.9 132.15 89.75
L 123.7 95.75
Q 123.85 83.75 120.2 72.2 119 68.35 117.8 64.5
L 108.7 46.95 Z"/>
</g>
</defs>

<g transform="matrix( 0.5844268798828125, 0, 0, 0.5844268798828125, 422.65,249.95) ">
<g transform="matrix( 1, 0, 0, 1, 55,32.7) ">
<g transform="matrix( 0.986328125, -0.1629638671875, 0.1629638671875, 0.986328125, 18.85,270.6) ">
<g transform="matrix( 1, 0, 0, 1, 0,0) ">
<use xlink:href="#Symbol_90_0_Layer0_0_FILL"/>
</g>
</g>

<g transform="matrix( -0.81854248046875, 0, 0, 0.86761474609375, 169.4,154.45) "/>

<g transform="matrix( 0.6796875, 0, 0, 0.64404296875, 77,121.4) "/>

<g transform="matrix( 0.95880126953125, 0, 0, 0.98358154296875, 82.2,167.15) "/>

<g transform="matrix( -0.6689453125, 0, 0, 0.7414398193359375, 85.6,165.45) "/>

<g transform="matrix( 0.5660400390625, 0, 0, 0.57257080078125, 131.65,207.1) "/>

<g transform="matrix( -1.198974609375, 0, 0, 1.2388763427734375, 194.25,111.5) "/>

<g transform="matrix( 0.9955902099609375, 0, 0, 0.91961669921875, 58.9,64.3) "/>

<g transform="matrix( 1.404449462890625, 0, 0, 1.404449462890625, 66.5,129.65) "/>

<g transform="matrix( -0.9798431396484375, 0, 0, 1.058685302734375, 71.5,127.2) "/>

<g transform="matrix( 0.829132080078125, 0, 0, 0.8175811767578125, 138.95,186.7) "/>

<g transform="matrix( 1.198974609375, 0, 0, 1.2388763427734375, 110.25,132) "/>

<g transform="matrix( 0.9955902099609375, 0, 0, 0.91961669921875, 78,90.2) "/>

<g transform="matrix( -1.4044189453125, 0, 0, 1.404449462890625, 180.2,77.8) "/>

<g transform="matrix( 0.9798431396484375, 0, 0, 1.058685302734375, 59.55,125.8) "/>

<g transform="matrix( -0.829132080078125, 0, 0, 0.8175811767578125, 134,151.2) "/>
</g>
</g>
</svg>
