
<svg xmlns="http://www.w3.org/2000/svg" version="1.1" xmlns:xlink="http://www.w3.org/1999/xlink" preserveAspectRatio="none" x="0px" y="0px" width="1000px" height="800px" viewBox="0 0 1000 800">
<defs>
<g id="barren_prop_20_Layer1_0_FILL">
<path fill="#666666" stroke="none" d="
M 172.3 339.15
L 178.25 336.65 172.3 328.2 164.8 329.5 160.9 327.1 162.7 330.25 156.85 337.75 171.8 339 172.3 339.15
M 65.6 321.3
L 65.55 318.3 54.7 322.75 58.7 312.35 49.2 322
Q 48.15 321.95 47.15 321.95 39.85 321.1 36 314.7
L 36.2 321.3 37.5 322.25
Q 50 328.65 62.65 322.7 64.1 322 65.6 321.3
M 180.9 302.55
L 178.45 299.7 177.05 299.3 169.7 304.25 180.9 302.55
M 192 307.9
L 184.4 308.45 181.85 306.45 181.8 306.4 181.8 306.45 183.55 312.55 167.6 313.45
Q 180.5 317.95 194.15 316.45 198 316.35 198.65 312.55
L 192 307.9
M 181.35 321.85
Q 177.3 323.8 173.2 321.75
L 171.15 322.55 175.15 325.7 182.5 321.4
Q 181.9 321.6 181.35 321.85
M 118.65 345.6
Q 118.2 345.8 117.75 346 113.25 348 109.1 345.1
L 106.4 347
Q 109.2 352.2 115.15 351.6 116.25 351.4 117.35 351.2
L 119.85 347.55 118.65 345.6
M 160.35 344.7
L 154.45 341.5 149.5 346.35 150.55 347.2 160.35 344.7
M 144.75 355.8
Q 145.8 355.4 146.85 355
L 128.45 346.1 135.45 351.2 119.95 355.4
Q 132.3 361.15 144.75 355.8
M 147.1 348.35
L 146.1 347.5 142.75 351.5 147.1 348.35
M 98.25 349.3
Q 99.15 349 100.05 348.7
L 98.55 342.2 88.75 349.25 89 339.35 86.8 348.75 74.45 344.25
Q 84.7 354.15 98.25 349.3
M 76.2 339.15
L 70.3 329.1 58.4 337.5 74.2 339.95 76.2 339.15
M 51.55 331.4
L 53.85 332.65 61.1 327.85 56.85 328.15 51.55 331.4
M 63.45 304.5
L 60.9 307.9 64.65 311.3 70.55 309.45 63.45 304.5
M 187.25 295.95
Q 186.45 295.7 185.65 295.45 169.65 290.05 154.25 297.4
L 181.75 298.75 187.25 295.95
M 175.25 288.35
L 173.5 287.65 169.45 291.3 175.25 288.35
M 155.3 290.25
L 154.1 291.3 163.1 292 155.3 290.25
M 148.8 288.25
L 146.4 289.2 150.2 291.25 152.05 289.8 148.8 288.25
M 91.4 289.6
L 98.05 285.35 94.3 283.4 90.45 288.5 91.4 289.6
M 89.4 292.5
L 87.4 290.65 69.65 298 82.3 286.8 79.3 287 64.95 299.15 56.95 295.2
Q 60.45 302.4 68.3 300.6 79.4 297.85 89.4 292.5 Z"/>

<path fill="#CCCCCC" stroke="none" d="
M 161.75 324.4
Q 160.8 324.6 159.9 324.85
L 153.1 331.8 156.85 337.75 162.7 330.25 160.9 327.1 164.8 329.5 172.3 328.2
Q 168.05 323.6 161.75 324.4
M 47.15 321.95
Q 48.15 321.95 49.2 322
L 58.7 312.35 54.7 322.75 65.55 318.3
Q 59.7 307.75 47.85 310.8 41.75 312.45 36 314.7 39.85 321.1 47.15 321.95
M 166.8 302.85
L 169.7 304.25 177.05 299.3 166.8 302.85
M 168.65 312.4
Q 168.1 312.9 167.6 313.45
L 183.55 312.55 181.8 306.45
Q 174.75 307 168.65 312.4
M 184.4 308.45
L 192 307.9
Q 186.7 306 181.85 306.45
L 184.4 308.45
M 182.5 321.4
L 183.55 320.75 182.6 319.6 173.2 321.75
Q 177.3 323.8 181.35 321.85 181.9 321.6 182.5 321.4
M 117.75 346
Q 118.2 345.8 118.65 345.6
L 109.1 345.1
Q 113.25 348 117.75 346
M 143.35 342.8
L 149.5 346.35 154.45 341.5 160.35 344.7 154.05 338.15 143.35 342.8
M 128.45 346.1
L 119.95 355.4 135.45 351.2 128.45 346.1
M 130.55 345.35
Q 129.5 345.7 128.45 346.1
L 146.85 355 148.15 350.2 147.1 348.35 142.75 351.5 146.1 347.5
Q 138.85 342.7 130.55 345.35
M 77.95 341.65
Q 76.2 342.95 74.45 344.25
L 86.8 348.75 89 339.35 88.75 349.25 98.55 342.2
Q 88.6 333.95 77.95 341.65
M 56.65 333.9
L 58.4 337.5 70.3 329.1 56.65 333.9
M 51.55 331.4
L 56.85 328.15 49.9 329.75 51.55 331.4
M 60.9 307.9
L 63.45 304.5 58.65 305.05 57.95 306.65 60.9 307.9
M 156.45 289.65
Q 155.85 289.95 155.3 290.25
L 163.1 292 154.1 291.3 154.25 297.4
Q 169.65 290.05 185.65 295.45 186.45 295.7 187.25 295.95
L 175.25 288.35 169.45 291.3 173.5 287.65
Q 164.65 286.15 156.45 289.65
M 155.15 287.5
L 152.75 286.7 148.8 288.25 152.05 289.8 155.15 287.5
M 142.85 289.9
L 142.95 289.9 144.7 286.2 143.15 284.35 138.8 284.75 142.85 289.9
M 88.05 286.65
L 90.45 288.5 94.3 283.4 88.05 286.65
M 79.3 287
Q 68.8 288.55 59.5 293.65 58.2 294.4 56.95 295.2
L 64.95 299.15 79.3 287
M 87.4 290.65
Q 87.4 289.05 85.9 287.95 84.4 286.8 82.3 286.8
L 69.65 298 87.4 290.65 Z"/>

<path fill="#000000" stroke="none" d="
M 88.75 282.4
Q 86.9 283.3 85.15 284.4 73.55 284.3 63.3 289.6 61.25 290.7 59.35 291.95 57.4 293.3 55.55 294.75
L 55.65 296.4 54.25 298.6 57.75 301.7 34.6 313.4 33.95 317.1 36.2 321.3 36 314.7
Q 41.75 312.45 47.85 310.8 59.7 307.75 65.55 318.3
L 65.6 321.3
Q 64.1 322 62.65 322.7 50 328.65 37.5 322.25
L 47.3 327.8 46.5 330.25 53.9 334.9 56.25 340.95 72.6 340.95 70.45 343.7
Q 74.7 350.95 82.55 353.6 94.95 357.95 103.75 348.1
L 104.25 350.7 117.45 353.25 116.85 357.1
Q 119.35 358.2 121.95 359.25 129.6 362.15 137.6 361.3 149.75 361.25 151.9 349.25
L 164.1 347.7 160.9 340.55
Q 161.65 340.75 162.45 340.95 167.6 342.25 171.8 339
L 156.85 337.75 153.1 331.8 159.9 324.85
Q 160.8 324.6 161.75 324.4 168.05 323.6 172.3 328.2
L 178.25 336.65 172.3 339.15 180.85 336.75 176.55 327.65
Q 178.35 327.55 180.15 327.45 183.65 326.85 186.4 324.55 186.8 324.2 187.15 323.8 187.9 322.95 188.6 322.1 189.55 322 190.5 321.95 195 321.05 198.4 317.75 199.1 317.1 199.65 316.3 200.75 314.75 201.8 313.1 200.9 312 200.1 310.95 195.55 305.1 188.65 303.2 187.8 302.95 187 302.75 185.25 302.5 183.55 302.25 182.95 301 183 299.8 183 299.7 183.6 299.7 184.15 299.6 184.75 299.5 186.2 299.25 187.35 298.65 188.05 298.35 188.5 297.65 188.85 297.2 189.1 296.7 189.25 296.5 189.3 296.2 189.35 295.95 189.35 295.7 189.4 295.4 189.45 295.15 183.7 289.5 176.05 286.9 173.1 285.95 170.15 286.35 158.3 286.65 147.6 284.2 147.15 283.75 146.75 283.35 144.9 281.3 142.1 280.9 141.25 280.85 140.4 280.8 138.7 281.2 137.05 281.65
L 126.45 268.75 111.4 269.55 97.5 281.3
Q 94 280.3 90.6 281.5 89.6 281.85 88.75 282.4
M 85.9 287.95
Q 87.4 289.05 87.4 290.65
L 89.4 292.5
Q 79.4 297.85 68.3 300.6 60.45 302.4 56.95 295.2 58.2 294.4 59.5 293.65 68.8 288.55 79.3 287
L 82.3 286.8
Q 84.4 286.8 85.9 287.95
M 90.45 288.5
L 88.05 286.65 94.3 283.4 98.05 285.35 91.4 289.6 90.45 288.5
M 96.45 290.35
Q 98.6 287.9 100 285.05 104.7 275.35 115.1 273.3 116.3 272.9 117.55 272.75
L 116.45 278.7 112.3 275.15 84.35 303.6 83.4 299.8
Q 91.1 296.45 96.45 290.35
M 120.45 280.9
L 119.1 277.15 125.6 270.75 124.5 277.35 120.45 280.9
M 116.45 282.7
L 118.5 283.85 118.25 294.05 111.7 318.5 104.35 332.85 101.95 330.15 97.2 328.5 100.25 321.4
Q 100.95 320.15 101.65 318.9 106.75 310.15 105.6 300.15
L 90.4 333.2 78.8 337.1 72.1 327 63.6 327 63.3 325.4 69.1 322 66.2 313.4 74.45 309.55 69.75 303.55 80.85 300.55 82.1 306.5 71.6 314.25 70.9 319.8
Q 72.9 322.25 75.9 323.2 79 324.1 81.85 323 98.2 316.5 105.6 300 105.8 298.7 106.1 297.4 108.1 288 116.45 282.7
M 106.65 288.95
L 107.05 291.95 86.7 317
Q 86.7 317.4 86.25 317.7 85.75 318 85.1 318
L 74.9 320.35 73.45 319.25
Q 76.55 315.35 79.75 311.5 92.95 295.15 109.6 282.5
L 106.65 288.95
M 122.5 281.1
L 128.8 279.85 131.6 295.65 135.25 297 145.55 323.9 142.65 323.45 141.45 323.95 138.65 326.4 136.4 327.45 124.8 298.5 124.75 298.45 121.6 282.35 122.5 281.1
M 128.8 277.1
Q 128.25 276.9 127.7 276.7 127 276.65 126.35 276.6
L 127.95 273.9 156.55 312 154.55 312.8
Q 148.7 312.8 144.55 310.05 140.4 307.25 140.4 303.35 139.7 303.35 139.2 302.35 138.65 301.35 138.65 299.9
L 136.05 294.7 133.65 294.25 132.95 288.55
Q 132.25 284.15 131.2 279.85 130.75 277.95 128.8 277.1
M 144.7 286.2
L 142.95 289.9 150.6 294.5 150.8 298.4
Q 154.9 301.6 160.05 302.3 161.8 302.3 163.55 302.3
L 163.95 304.1 170.25 307.65 165.4 315.2 173.45 318.35 160.6 322.65 159 321.85 150.4 333.05 153.1 336.65 141.05 341.8
Q 131.3 338 122.35 343.55 121.95 343.8 121.6 344.05 112.9 339.1 104.35 344.45 103.85 344.75 103.3 344.95
L 100.95 339.35 103 338.7
Q 106.5 334.55 109.3 329.9 118.85 313.85 120.9 295.2 122.95 303.3 125.55 311.2 130 324.65 138.9 335.75
L 147.85 329.9
Q 149.25 321.25 144.9 313.65 144.3 312.55 143.7 311.5 149.95 317.25 157.85 314 158.3 313.85 158.75 313.7
L 142.85 289.9 138.8 284.75 143.15 284.35 144.7 286.2
M 146.4 289.2
L 148.8 288.25 152.75 286.7 155.15 287.5 152.05 289.8 150.2 291.25 146.4 289.2
M 154.1 291.3
L 155.3 290.25
Q 155.85 289.95 156.45 289.65 164.65 286.15 173.5 287.65
L 175.25 288.35 187.25 295.95 181.75 298.75 154.25 297.4 154.1 291.3
M 70.55 309.45
L 64.65 311.3 60.9 307.9 57.95 306.65 56 306.35 58.65 305.05 63.45 304.5 70.55 309.45
M 53.85 332.65
L 51.55 331.4 49.9 329.75 56.85 328.15 61.1 327.85 53.85 332.65
M 58.4 337.5
L 56.65 333.9 70.3 329.1 76.2 339.15 74.2 339.95 58.4 337.5
M 74.45 344.25
Q 76.2 342.95 77.95 341.65 88.6 333.95 98.55 342.2
L 100.05 348.7
Q 99.15 349 98.25 349.3 84.7 354.15 74.45 344.25
M 128.45 346.1
Q 129.5 345.7 130.55 345.35 138.85 342.7 146.1 347.5
L 147.1 348.35 148.15 350.2 146.85 355
Q 145.8 355.4 144.75 355.8 132.3 361.15 119.95 355.4
L 128.45 346.1
M 140.75 331.8
L 138.25 331.8 144.7 326.55 140.75 331.8
M 149.5 346.35
L 143.35 342.8 154.05 338.15 160.35 344.7 150.55 347.2 149.5 346.35
M 95.1 335.25
L 93.4 333.2 96.45 331.05 98.75 331.15 100.35 332.5 102.3 335.7 95.1 335.25
M 109.1 345.1
L 118.65 345.6 119.85 347.55 117.35 351.2
Q 116.25 351.4 115.15 351.6 109.2 352.2 106.4 347
L 109.1 345.1
M 183.55 320.75
L 182.5 321.4 175.15 325.7 171.15 322.55 173.2 321.75 182.6 319.6 183.55 320.75
M 198.65 312.55
Q 198 316.35 194.15 316.45 180.5 317.95 167.6 313.45 168.1 312.9 168.65 312.4 174.75 307 181.8 306.45
L 181.8 306.4 181.85 306.45
Q 186.7 306 192 307.9
L 198.65 312.55
M 178.45 299.7
L 180.9 302.55 169.7 304.25 166.8 302.85 177.05 299.3 178.45 299.7 Z"/>

<path fill="#7E7356" stroke="none" d="
M 96.65 333.3
Q 95.1 334.1 95.1 335.25
L 102.3 335.7 100.35 332.5
Q 98.2 332.5 96.65 333.3
M 138.25 331.8
L 140.75 331.8 144.7 326.55 138.25 331.8 Z"/>

<path fill="#CDC2A6" stroke="none" d="
M 93.4 333.2
L 95.1 335.25
Q 95.1 334.1 96.65 333.3 98.2 332.5 100.35 332.5
L 98.75 331.15 96.45 331.05 93.4 333.2
M 119.1 277.15
L 120.45 280.9 124.5 277.35 125.6 270.75 119.1 277.15 Z"/>

<path fill="#382D26" fill-opacity="0.5490196078431373" stroke="none" d="
M 142.95 289.9
L 142.85 289.9 158.75 313.7
Q 158.3 313.85 157.85 314 149.95 317.25 143.7 311.5 144.3 312.55 144.9 313.65 149.25 321.25 147.85 329.9
L 138.9 335.75
Q 130 324.65 125.55 311.2 122.95 303.3 120.9 295.2 118.85 313.85 109.3 329.9 106.5 334.55 103 338.7
L 100.95 339.35 103.3 344.95
Q 103.85 344.75 104.35 344.45 112.9 339.1 121.6 344.05 121.95 343.8 122.35 343.55 131.3 338 141.05 341.8
L 153.1 336.65 150.4 333.05 159 321.85 160.6 322.65 173.45 318.35 165.4 315.2 170.25 307.65 163.95 304.1 163.55 302.3
Q 161.8 302.3 160.05 302.3 154.9 301.6 150.8 298.4
L 150.6 294.5 142.95 289.9
M 70.9 319.8
L 71.6 314.25 82.1 306.5 80.85 300.55 69.75 303.55 74.45 309.55 66.2 313.4 69.1 322 63.3 325.4 63.6 327 72.1 327 78.8 337.1 90.4 333.2 105.6 300.15 106.2 298.8 105.6 300
Q 98.2 316.5 81.85 323 79 324.1 75.9 323.2 72.9 322.25 70.9 319.8 Z"/>

<path fill="#AF8362" stroke="none" d="
M 138.65 299.9
Q 138.65 301.35 139.2 302.35 139.7 303.35 140.4 303.35
L 143.4 305.1 138.65 299.9
M 127.7 276.7
Q 128.25 276.9 128.8 277.1 130.75 277.95 131.2 279.85 132.25 284.15 132.95 288.55 141.1 302.4 153.8 312.3 154.15 312.55 154.55 312.8
L 156.55 312 127.95 273.9 126.35 276.6
Q 127 276.65 127.7 276.7
M 128.8 279.85
L 122.5 281.1 121.6 282.35
Q 125.75 288.25 125.75 295.45 125.75 296.4 125.75 297.4
L 124.75 298.45 124.8 298.5 131.85 309.95 131.8 298.35 138.65 326.4 141.45 323.95 137.75 316.2 142.65 323.45 145.55 323.9 135.25 297 131.6 295.65 128.8 279.85
M 106.65 288.95
L 109.6 282.5
Q 92.95 295.15 79.75 311.5 76.55 315.35 73.45 319.25
L 87 310.35 76 318.75 85.1 318
Q 85.75 318 86.25 317.7 86.7 317.4 86.7 317
L 99.65 298 93.35 303.5 106.65 288.95
M 118.25 294.05
L 116.45 282.7
Q 108.1 288 106.1 297.4 105.8 298.7 105.6 300
L 106.2 298.8 105.6 300.15
Q 106.75 310.15 101.65 318.9 100.95 320.15 100.25 321.4
L 102.65 317.6 97.2 328.5 101.95 330.15 108.3 324.5 115.85 291.15 111.7 318.5 118.25 294.05
M 100 285.05
Q 98.6 287.9 96.45 290.35 91.1 296.45 83.4 299.8
L 84.35 303.6 112.3 275.15 116.45 278.7 117.55 272.75
Q 116.3 272.9 115.1 273.3 104.7 275.35 100 285.05 Z"/>

<path fill="#70513A" stroke="none" d="
M 133.65 294.25
L 136.05 294.7 138.65 299.9 143.4 305.1 140.4 303.35
Q 140.4 307.25 144.55 310.05 148.7 312.8 154.55 312.8 154.15 312.55 153.8 312.3 141.1 302.4 132.95 288.55
L 133.65 294.25
M 142.65 323.45
L 137.75 316.2 141.45 323.95 142.65 323.45
M 131.85 309.95
L 124.8 298.5 136.4 327.45 138.65 326.4 131.8 298.35 131.85 309.95
M 125.75 295.45
Q 125.75 288.25 121.6 282.35
L 124.75 298.45 125.75 297.4
Q 125.75 296.4 125.75 295.45
M 73.45 319.25
L 74.9 320.35 85.1 318 76 318.75 87 310.35 73.45 319.25
M 107.05 291.95
L 106.65 288.95 93.35 303.5 99.65 298 86.7 317 107.05 291.95
M 100.25 321.4
L 97.2 328.5 102.65 317.6 100.25 321.4
M 108.3 324.5
L 101.95 330.15 104.35 332.85 111.7 318.5 115.85 291.15 108.3 324.5
M 118.5 283.85
L 116.45 282.7 118.25 294.05 118.5 283.85 Z"/>
</g>

<g id="barren_prop_20_Layer1_1_FILL">
<path fill="#7E7356" stroke="none" d="
M 115.35 301.9
L 113.5 307.1 116.25 307 116.35 302.7 114.6 306.1 115.35 301.9 Z"/>
</g>
</defs>

<g transform="matrix( 1, 0, 0, 1, 374.95,127.8) ">
<g transform="matrix( 1, 0, 0, 1, 0,0) ">
<use xlink:href="#barren_prop_20_Layer1_0_FILL"/>
</g>

<g transform="matrix( 1, 0, 0, 1, 6.3,-28) ">
<use xlink:href="#barren_prop_20_Layer1_1_FILL"/>
</g>
</g>
</svg>
