
<svg xmlns="http://www.w3.org/2000/svg" version="1.1" xmlns:xlink="http://www.w3.org/1999/xlink" preserveAspectRatio="none" x="0px" y="0px" width="400px" height="1400px" viewBox="0 0 400 1400">
<defs>
<g id="Barren_ground_3_Layer1_0_FILL">
<path fill="#E6A025" stroke="none" d="
M 143.6 -4.95
Q 143.35 -4.85 143.15 -4.75 142 -3.9 140.95 -3 138.85 -1.15 136.95 0.85 135.65 2.15 134.55 3.65 132.4 6.7 130.5 9.85 129.55 11.45 128.7 13.15
L 117.25 3.5 120.8 18.5
Q 116.05 19.8 111.3 21.15 108.9 21.75 106.55 22.4 92.3 26.25 78.15 28 75.9 28.15 73.6 27.45
L 75.9 15.2 65.5 27.25 37.9 30.95 26.35 20.65 19.55 28.5 8.75 27.5 7.2 23.25 0.75 23.55 0 1124 400.1 1124 402.5 23.55 395.5 24.45 393.9 14.4 392.35 26.2 380.15 25.1 375.2 28.45 369.3 25.3 359.6 33.1 365.1 10 351.85 30 347.15 14.45 340.75 30.95 307.7 32.4 305.65 29.6 285.9 24.4
Q 285.9 24.2 285.95 24.05 286.2 22.65 286.55 21.3 287.2 18.9 288 16.5 288.35 15.45 288.8 14.45 289.75 12.55 290.9 10.7 292 8.9 293.35 7.25 294.05 6.35 294.8 5.6 295.55 4.75 296.35 4
L 277.5 15 272.5 13.65 268.65 6.55 268.6 13.25 265.2 14.9
Q 265.25 15.1 265.25 15.3 265.25 15.55 265.15 15.8 264 18.9 260.85 20.25 259.3 20.95 257.45 20.95 255.85 20.75 254.35 20.2 244.35 17.4 233.7 18.35 230.25 18.5 226.95 17 223.7 15.45 221.1 12.95
L 220.35 3.05 213.95 7.7
Q 213.85 8.05 213.8 8.4 213.75 8.75 213.75 9.15 213.75 9.95 213.7 10.75 213.7 11.5 213.65 12.3 213.65 12.8 213.55 13.3 213.5 13.7 213.35 14.15 213.25 14.55 213.05 14.95 212.9 15.3 212.65 15.6 212.45 15.95 212.15 16.2 211.9 16.55 211.6 16.8 211.25 17 210.85 17.15 210.45 17.4 210.05 17.55 209.75 17.55 209.45 17.55 209.15 17.55 208.85 17.55
L 205.55 8.45 205.5 8.1
Q 205.3 8.5 205.1 9.2 204.8 10.15 204.3 11.05 204 11.65 203.6 12.2 202.95 13.05 202.15 13.7 201.35 14.3 200.4 14.6 199.75 14.9 199.1 15.1 198.4 15.05 197.7 15.1 197.05 14.85 196.45 14.6 193.25 13.15 191.15 10.4 191 10.8 190.9 11.25 190.8 11.65 190.7 12.1 190.35 14.2 189.7 16.1 189.05 17.95 187.85 19.7 187.5 20.3 187.05 20.85 186.6 21.35 186.1 21.9 185.45 22.65 184.7 23.35 184.4 23.65 184 23.9 178.55 26.95 174.55 22.1 173.2 20.4 172.05 18.25 171.7 17.65 171.2 17.15 171 17.45 170.8 17.75 170.6 18.05 170.45 18.4 170.15 19.1 169.8 19.8 169.45 20.45 169.05 21.05 168.7 21.65 168.3 22.2 167.85 22.75 167.35 23.25 166.65 24 165.85 24.6 165.5 24.95 165.05 25.2 164.65 25.45 164.2 25.65 163.75 25.8 163.35 26 162.85 26.05 162.4 26.15 161.9 26.15 161.4 26.2
L 156.35 20.05 153.8 20 151.4 25.85 142.7 24.9 143.6 -4.95
M 394.45 141.9
L 392.55 142.9 387.8 160.8
Q 383.45 160.5 379.45 158.7 376.75 157.4 373.6 156.95 364.9 155.35 360.1 162.3 359.7 162.9 359.35 163.55 352.65 163.25 346.55 160.55 339.8 157.5 332.85 160 331.85 160.4 330.85 160.8
L 343.95 169.75 341.5 179.2
Q 335.85 184.35 328.4 185.6 320.8 187 313.8 190.15 303.2 195 297.8 204.3 296.45 203.75 295.1 203.4 293 202.8 290.9 202.35 281.55 203.35 272.2 203.35 249.15 204.95 231.2 218.7 249.6 216.75 265.25 226.35 266.1 226.9 267.05 227.35 270.65 227.15 274.15 227.55 281.6 227.95 282.95 235.4 278.3 238.55 273.05 240.1 265.3 242.3 257.2 241.2 256.15 241 255.1 240.8
L 248.6 247.6 252 249.6 242.55 248.5 237.8 241.85
Q 235.35 241.65 233 241.95 230.5 242.15 228.25 243.2 217.8 248.1 206.5 246.55 205.7 246.4 204.95 246.25
L 203.1 249.6 194 248.6 190.5 241.75
Q 179.95 243.05 169.3 243.95 164.15 244.35 159.25 243.6 149.7 241.95 148.35 231.8 141.7 232.65 135.75 230.55 135.3 230.4 134.95 230.05 134.6 229.7 134.3 229.35
L 134.85 223.25 146.4 220.15 144.2 210.5 149.55 217.25 155.25 208.65 153.25 218.45 157.8 216.35 157.65 222.3 167.95 220.9 169.25 219.5 177 218.15 177.15 213.7 189.25 209.55 184.9 201.45 190.05 204.2 191.65 201.45 192.85 205.55 206.65 200.5 199.1 196.35 178.15 197 179.15 185.5 193.15 179.2 205.75 182.4 219.1 175.4
Q 214.5 172.1 210 168.7 207.85 167.1 207.7 164.5 207.7 164.05 207.7 163.6 207.7 163.1 207.75 162.65
L 231.7 161.7 232.9 152
Q 250.85 150.4 268.9 154.1 285.6 157.65 301.45 164.45 297.8 165.05 294.15 165.7 286.75 166.7 279.45 166.15 266.25 166.05 263.85 177.45
L 253.35 189.8
Q 260.65 187.35 268.25 188.7 273.6 189.9 278.35 192.35 279.3 192.85 280.25 193.4 278.7 187.7 282.95 184.1 283.35 183.75 283.85 183.45 284.3 183.2 284.8 182.95
L 288.2 184.95 310.6 179.8 319 170.2 315.85 161.95 298.05 157.7 306.75 151.8 302.45 147.8 296.05 142.75 312.95 134.8 309.45 131.9 334.05 131.3 334.5 134.25 329.3 134.35 341.7 137.05 335.1 139.8
Q 340.15 141.15 345.25 142.55 349.8 143.65 354.1 142.95 367.95 140.75 381.15 144.65 385 138.75 391.95 138.15 393.05 138.15 394.2 138.15 395.3 138.25 396.4 138.4
L 394.45 141.9
M 326.75 249.6
L 330.8 249.1 335.55 249.6 326.75 249.6
M 167.7 117.35
Q 168.75 119.9 171.1 120.8 183.9 126 194.5 134.5
L 190.85 142.65 207.1 148.95
Q 202.75 149.85 198.4 149.95 165.8 150.75 133.25 147.3
L 148.05 138.3
Q 141.15 128.8 129.5 127.75 128.5 123.9 125.8 121.2 123.05 118.45 119.15 117.85 100.4 116.6 82.55 124.6
L 80.2 130.8
Q 74.25 129.95 68.35 129.1 55.15 127.85 45.8 118.2
L 85.8 106.95 85.6 102.85
Q 71.35 102.45 57.9 95.6 56.5 94.9 55 94.5 32.7 95.85 11.7 88.7
L 33.55 73.15 31.6 69.35
Q 32.75 69.35 33.95 69.4 42 68.85 47.35 62.7
L 38.2 59.1
Q 49.05 55.25 60.6 55 68.65 54.1 76.7 52.15 91.65 48.9 102.3 56.85 103.45 64.1 110.25 66.65 110.8 66.85 111.45 67 112.25 67.05 113.05 67.1 113.2 67.25 113.35 67.4
L 115 71.25 141 79.35 130.05 87.6 124.1 87.5 105.2 103.5
Q 107.7 104.85 110.7 104.7 121.75 104.45 132.7 102.55 139.45 101.45 146.2 100.35 158.7 98.6 168.35 104.35 164.9 110.7 167.7 117.35
M 6.75 241.65
L 4.55 238.65 7.1 238.5 6.75 241.65
M 4.45 293.85
Q 2.15 292.05 4.7 290.3
L 7.65 288.85 5.15 294.25
Q 4.8 294.05 4.45 293.85
M 54 374.55
L 60.65 372
Q 63.05 373.5 65.6 373.9 79.2 375.8 92.95 376.65 89.8 378.7 86.15 379.9 80 381.65 73.6 381.65 65.8 381.6 58 381.8
L 54 374.55
M 139.9 390.55
L 137.8 394.9 148.9 396.4 132.6 401.3 131.2 397 129.3 399.85 123.2 397.75 128.35 405.55 113.8 409.9 113.4 414.7 104.3 416 102.75 417.45 89.4 418.9 90.4 412.45 84.25 414.6 87.5 404.6 79.9 415.1 74.2 407.45 76.85 416.7 63.8 419.1 62.2 420.9 55.6 420.45 50 414.3 49.85 409 37.7 399.1 66.85 394.05 62.2 398.9
Q 68.75 400 75.7 399.85 79.75 399.8 83.8 399.75 88.2 399.7 92.35 400.5 99.65 401.65 106.5 398.9
L 99.85 393.2 139.9 390.55
M 312.05 430.3
Q 308 430.9 303.95 430.85 301.65 430.8 299.85 429.2
L 308.2 421.8
Q 307.25 419.2 304.8 418.55 295.1 415.65 285 416.5 254.3 418.75 223.65 422.4
L 219.15 411.2 227.75 417.45 229.75 413.45 249 411.65 249.05 408.85
Q 250.3 407.45 251.7 406.2 255.75 402.45 261.4 401.7 266.75 401.25 271.9 400.85 272.9 400.1 273.95 399.5 275.55 398.6 277.25 398.05 278.3 397.75 279.45 397.65 280.6 397.9 281.8 398.2 282.35 398.45 282.85 398.8 283.9 399.45 284.95 400.2
L 319.85 391.2
Q 324.25 393.6 328.45 396.35 340.5 404.4 353.9 409.8 372.95 417.55 393.3 415.15
L 352.8 429.2 380.85 438.55
Q 366.85 439.3 353 438.5 346.75 438.05 340.7 438.9 327.35 440.35 315.7 434.9
L 318.55 429.2
Q 315.3 429.75 312.05 430.3
M 276 468.2
Q 277.65 469 279.35 469.65 300.4 476.9 321.65 483.7
L 306.25 490.85
Q 298.45 490.05 290.3 490.05 277.9 490.05 265.6 493.05
L 265.8 485.1 254.7 489.95 253 477.7 242.25 488.35 236.45 480.6
Q 236.3 481.25 236.2 481.95 235.65 485.1 236.9 488.05 237.15 488.65 237.5 489.25 237.95 490.05 238.55 490.8 239.2 491.6 239.95 492.3 240.3 492.7 240.7 493.05 219.4 496.25 197.8 496.65 195.7 496.7 193.9 495.75 177.95 486.85 160.6 493.35
L 158.6 496.1
Q 153.75 495.95 150.1 492.6 139.15 482.9 127 474.35
L 133.55 467.3 137.1 465.6 155.3 478.9 173.8 473.9 176.35 466.55
Q 183.7 470.3 191.55 472.9 208.75 478.55 223.1 467.4 226.15 457.65 236.5 458.95 240.25 459.6 244 460.3 261.05 460.6 276 468.2
M 179.55 539.55
Q 180.1 539.8 180.7 540.1
L 189.1 533.75
Q 214.15 535.1 239.3 536.35 246.05 536.7 252.5 534.25
L 251.85 528.3 297.5 536.1
Q 301.55 538.15 305.75 536.45 312.2 534.1 315.3 527.85
L 314.8 532.8 325.55 525.9 325.95 539.75 329.9 536.9 333.95 537 332 541.35 339 542.6 329.65 555.45
Q 308.85 543.9 287.85 555.15
L 282.75 566.15 307.6 584.5 312 592.4
Q 310.75 593.25 309.55 594.15 301.75 599.95 292.2 597.25
L 283.65 602.8 289.75 612.45
Q 293.8 615.3 296.95 618.95 299.05 621.45 300.4 624.5 302.7 629.6 301.5 633.25 291.95 637.4 282 641.25 262.2 648.85 241.1 647.9
L 276.7 663.8 272.6 674.85 265.9 678.55 268.5 682.75
Q 263 685.45 257.9 688.7 248.6 694.65 238.6 693.05 237.25 692.7 235.95 692.4 216.8 689.4 196.5 688.6
L 198 692.55 135.3 686.8 134.1 688.85 136.5 691.6 162.95 704.7 156.45 707.75
Q 161 708.45 165.6 709.15 172.35 710.55 179.15 711.65 189.6 713 197.4 718.9 213.6 731.2 225 747.6 229.15 753.6 228.35 758.55
L 221.25 758.05 216.85 761.45 185.45 761.25 185.9 759 189.35 750.2 184.6 750.85 183.1 752.4
Q 180.85 753.3 178.1 752.95 176.8 752.65 175.6 752.2 174 751.65 172.6 750.7 170.6 749.45 168.75 747.95
L 170 762.9
Q 169.1 763.1 168.2 763.35 164.5 764 160.8 763.15 159.7 763 158.7 762.5 157.65 762 156.7 761.35 155.75 760.65 154.9 759.85 154.1 759.8 153.45 759.5 132.3 751.2 109.5 750.45
L 99.8 754.1
Q 106.9 759.85 109.5 768.65 110.9 773.35 109.8 778.1 107.85 786.7 113.45 793.2 118.05 798.5 121.55 804.6 122.7 806.6 123.8 808.7 120.05 807.1 116.15 806.35 107.4 804.85 101.1 799.55 100.6 799.15 100.3 798.6 100 797.95 99.75 797.25 99.55 796.8 99.45 796.35 99.2 795.35 99 794.35 73.75 783.1 48.5 771.9
L 71.1 763.3 61.2 755.8 21.35 720.15
Q 23.25 716.05 27.7 716 29.45 716 30.7 714.65 57 685.6 94.45 675.15 94.95 674.3 95.55 673.5 106.15 659.4 123.2 664.25
L 141.3 662.05 143.1 655.75 145.85 654.45 148.55 649.95 171.5 639.45
Q 164.65 631.35 171.45 623.15
L 178.7 639.9 187.9 629.95 185.5 647.8 203.5 645.25
Q 204.35 644.55 205.25 643.95 211.2 639.45 217.95 642.5 225.7 644.35 233.35 642.95 247.3 640.5 244.9 626.2
L 250.55 619.8 245.5 609.55 250.3 604.6 247.3 588.6
Q 245.8 588.15 244.4 588.4 239.4 589.15 235.35 586.8 224.95 580.95 230.45 570
L 218.15 566.15
Q 214.85 566.3 212.2 568.4 210.1 570.1 209.5 572.7
L 212.15 576.2
Q 197.25 582.35 182.4 588.55
L 178.15 585.65 169.45 587.15 163.05 593.35 125.25 590.3
Q 125.05 590.6 124.8 590.85 124.7 591 124.55 591.1 124.4 591.25 124.2 591.35 115.55 597.8 106.6 595.3
L 105.1 593.7 94.5 593.15 90.8 596.9 93.15 600.45 63.95 609.5 71.95 613.5 71.35 616.8 76.9 617.9 74.3 619.95 74.55 622.6 61.3 619.25 59.5 620.4 33.7 619.3 37.5 612 3.9 607.95 9 594.35 2 593.1
Q 12.2 591.75 22.35 591.9 29 592.3 35.65 594.2
L 48.65 588.05 40.1 583.1 89.7 575.2 93.4 566.7 91.9 564.85 71.4 558.15 76.45 549.25 72.95 547.65 74.85 542.7 49.3 540.6 64.55 531.2 60.8 529.15 61.15 523.3 70.3 524.15 73.4 527.4 90.75 527.65 90.9 531.9
Q 114.1 524.65 138.55 523.75
L 142.35 527.05
Q 142.75 527 143.15 527 143.55 526.95 143.9 526.8 153.9 522.9 162.6 528.8
L 138.05 533.9 135.85 542.55 122.1 549.4 138.4 552.75
Q 139.1 553.65 139.9 554.5 145.25 560.05 152.55 557.05 153.15 552.85 149.2 549.8 145 546.6 142 542.45 141.95 542.35 141.95 542.2 142.05 541.95 142.2 541.75 144.05 539.65 146.85 539.05 150.9 539.45 154.4 537.4 163.6 532 172 525.05 172.35 524.8 172.75 524.7
L 175.35 525.65
Q 174.25 530.45 175.7 535.15 176.65 538.1 179.55 539.55
M 350.25 864.65
Q 354.05 864.55 357.65 864.1
L 353.4 859.35 383.75 864.85 370.45 874.3 370.25 879.6 364.75 885.75 343.4 882 346.05 872.75 340.35 880.4 332.75 869.9 336 879.9 329.75 877.95 330.85 884.2 317.5 882.75 315.95 881.3 306.65 879.85 306.5 875.2 291.9 870.85 297.05 863.05 290.95 865.15 289.05 862.3 287.4 866.75 271.9 861.95 282.45 860.2 280.4 855.85 320.4 858.5 313.75 864.2
Q 315.15 864.6 316.6 865.05 320.9 866.2 325.1 866.4 329.5 866.8 333.85 866.25 342.05 864.85 350.25 864.65
M 349.35 921.75
L 351.2 925.8 360 920.1 355.5 931.3
Q 327.4 927.5 299 926.4 287.4 925.75 275.9 927.4 274.1 927.45 272.65 928.9 271.2 930.25 269.95 931.85
L 278.95 938.6 260.6 938.1 263.7 944.3
Q 255.65 947.9 246.8 947.4 237.75 946.4 228.55 947.3 213.4 948.15 198.3 947.45 199.9 945.35 202.1 944.15 205.5 942.45 209.35 943 214.45 943.1 219 941.5 221.65 940.5 224.2 939.2 225.3 938.75 226.35 938.1
L 185.85 924.05
Q 200.8 925.9 215.3 922 232.05 917.55 246.6 908.25 252.9 904.1 259.3 900.1
L 294.2 909.1
Q 296.15 907 298.85 906.5 301.55 906.25 303.95 907.95 309.4 911.7 316.05 910.75 319.55 911.35 323.05 912 328.3 913.25 330.05 918.25
L 349.35 921.75
M 93.5 545.55
L 91.5 546.05 90.6 551.7 103.9 549.95 93.5 545.55
M 167.5 565.95
L 165.6 568.6 168.2 569.25 132.5 573.05
Q 133.7 573.45 134.9 573.85 136.05 574.15 137.2 574.5 144.35 577.05 151 574
L 154.5 575.05 166.3 571.2 162.95 577.2 183.25 574.8 181.9 569.9 184.85 572.35 193.1 567.65 167.5 565.95 Z"/>

<path fill="#E68025" stroke="none" d="
M 351.2 925.8
L 349.35 921.75 330.05 918.25
Q 328.3 913.25 323.05 912 319.55 911.35 316.05 910.75 309.4 911.7 303.95 907.95 301.55 906.25 298.85 906.5 296.15 907 294.2 909.1
L 259.3 900.1
Q 252.9 904.1 246.6 908.25 232.05 917.55 215.3 922 200.8 925.9 185.85 924.05
L 226.35 938.1
Q 225.3 938.75 224.2 939.2 221.65 940.5 219 941.5 214.45 943.1 209.35 943 205.5 942.45 202.1 944.15 199.9 945.35 198.3 947.45 213.4 948.15 228.55 947.3 237.75 946.4 246.8 947.4 255.65 947.9 263.7 944.3
L 260.6 938.1 278.95 938.6 269.95 931.85
Q 271.2 930.25 272.65 928.9 274.1 927.45 275.9 927.4 287.4 925.75 299 926.4 327.4 927.5 355.5 931.3
L 360 920.1 351.2 925.8
M 357.65 864.1
Q 354.05 864.55 350.25 864.65 342.05 864.85 333.85 866.25 329.5 866.8 325.1 866.4 320.9 866.2 316.6 865.05 315.15 864.6 313.75 864.2
L 320.4 858.5 280.4 855.85 282.45 860.2 271.9 861.95 287.4 866.75 289.05 862.3 290.95 865.15 297.05 863.05 291.9 870.85 306.5 875.2 306.65 879.85 315.95 881.3 317.5 882.75 330.85 884.2 329.75 877.95 336 879.9 332.75 869.9 340.35 880.4 346.05 872.75 343.4 882 364.75 885.75 370.25 879.6 370.45 874.3 383.75 864.85 353.4 859.35 357.65 864.1
M 148.55 649.95
L 145.85 654.45
Q 159.15 651.95 168.8 662.15 170.45 663.9 173.1 664.55 187.85 668.8 203.25 667.4 215.8 665.9 228.45 664.85
L 229.7 654.75
Q 221.55 650.9 217.95 642.5 211.2 639.45 205.25 643.95 204.35 644.55 203.5 645.25
L 185.5 647.8 187.9 629.95 178.7 639.9 171.45 623.15
Q 164.65 631.35 171.5 639.45
L 148.55 649.95
M 95.55 673.5
Q 94.95 674.3 94.45 675.15 57 685.6 30.7 714.65 29.45 716 27.7 716 23.25 716.05 21.35 720.15
L 61.2 755.8 54.9 740.85 57.15 739.55
Q 61.35 741.6 64.95 744.75 70.8 749.9 74.3 756.85 80.95 753 88.65 752.55 94.3 752.35 99.8 754.1
L 109.5 750.45
Q 134.8 742.95 160 750.05 161.05 750.35 162.1 750.7 160.85 748.35 160.75 745.65 160.65 742.1 162.55 739.1 167.2 731.9 175.8 729.8
L 136.5 691.6 134.1 688.85
Q 124.75 678.45 123.15 664.35 123.15 664.3 123.2 664.25 106.15 659.4 95.55 673.5
M 180.7 540.1
Q 180.1 539.8 179.55 539.55 176.65 538.1 175.7 535.15 174.25 530.45 175.35 525.65
L 172.75 524.7
Q 172.35 524.8 172 525.05 163.6 532 154.4 537.4 150.9 539.45 146.85 539.05 144.05 539.65 142.2 541.75 142.05 541.95 141.95 542.2 141.95 542.35 142 542.45 145 546.6 149.2 549.8 153.15 552.85 152.55 557.05
L 168.3 551.85 218.15 566.15 230.45 570
Q 224.95 580.95 235.35 586.8 239.4 589.15 244.4 588.4 245.8 588.15 247.3 588.6
L 250.3 604.6 245.5 609.55 250.55 619.8 244.9 626.2
Q 259.7 617.95 276.5 616.6 280.35 616.85 284.15 615.2 286.95 613.85 289.75 612.45
L 283.65 602.8 292.2 597.25
Q 296.95 582.45 282.3 575 279.7 573.7 278.45 570.85 276.25 565.75 277.95 560.3
L 293.45 550.1
Q 291.1 541.85 297.5 536.1
L 251.85 528.3 252.5 534.25
Q 246.05 536.7 239.3 536.35 214.15 535.1 189.1 533.75
L 180.7 540.1
M 279.35 469.65
Q 277.65 469 276 468.2 261.05 460.6 244 460.3 240.25 459.6 236.5 458.95 226.15 457.65 223.1 467.4 208.75 478.55 191.55 472.9 183.7 470.3 176.35 466.55
L 173.8 473.9 155.3 478.9 137.1 465.6 133.55 467.3 127 474.35
Q 139.15 482.9 150.1 492.6 153.75 495.95 158.6 496.1
L 160.6 493.35
Q 177.95 486.85 193.9 495.75 195.7 496.7 197.8 496.65 219.4 496.25 240.7 493.05 240.3 492.7 239.95 492.3 239.2 491.6 238.55 490.8 237.95 490.05 237.5 489.25 237.15 488.65 236.9 488.05 235.65 485.1 236.2 481.95 236.3 481.25 236.45 480.6
L 242.25 488.35 253 477.7 254.7 489.95 265.8 485.1 265.6 493.05
Q 277.9 490.05 290.3 490.05 298.45 490.05 306.25 490.85
L 321.65 483.7
Q 300.4 476.9 279.35 469.65
M 303.95 430.85
Q 308 430.9 312.05 430.3 315.3 429.75 318.55 429.2
L 315.7 434.9
Q 327.35 440.35 340.7 438.9 346.75 438.05 353 438.5 366.85 439.3 380.85 438.55
L 352.8 429.2 393.3 415.15
Q 372.95 417.55 353.9 409.8 340.5 404.4 328.45 396.35 324.25 393.6 319.85 391.2
L 284.95 400.2
Q 283.9 399.45 282.85 398.8 282.35 398.45 281.8 398.2 280.6 397.9 279.45 397.65 278.3 397.75 277.25 398.05 275.55 398.6 273.95 399.5 272.9 400.1 271.9 400.85 266.75 401.25 261.4 401.7 255.75 402.45 251.7 406.2 250.3 407.45 249.05 408.85
L 249 411.65 229.75 413.45 227.75 417.45 219.15 411.2 223.65 422.4
Q 254.3 418.75 285 416.5 295.1 415.65 304.8 418.55 307.25 419.2 308.2 421.8
L 299.85 429.2
Q 301.65 430.8 303.95 430.85
M 137.8 394.9
L 139.9 390.55 99.85 393.2 106.5 398.9
Q 99.65 401.65 92.35 400.5 88.2 399.7 83.8 399.75 79.75 399.8 75.7 399.85 68.75 400 62.2 398.9
L 66.85 394.05 37.7 399.1 49.85 409 50 414.3 55.6 420.45 62.2 420.9 63.8 419.1 76.85 416.7 74.2 407.45 79.9 415.1 87.5 404.6 84.25 414.6 90.4 412.45 89.4 418.9 102.75 417.45 104.3 416 113.4 414.7 113.8 409.9 128.35 405.55 123.2 397.75 129.3 399.85 131.2 397 132.6 401.3 148.9 396.4 137.8 394.9
M 60.65 372
L 54 374.55 58 381.8
Q 65.8 381.6 73.6 381.65 80 381.65 86.15 379.9 89.8 378.7 92.95 376.65 79.2 375.8 65.6 373.9 63.05 373.5 60.65 372
M 4.7 290.3
Q 2.15 292.05 4.45 293.85 4.8 294.05 5.15 294.25
L 7.65 288.85 4.7 290.3
M 4.55 238.65
L 6.75 241.65 7.1 238.5 4.55 238.65
M 171.1 120.8
Q 168.75 119.9 167.7 117.35 164.9 110.7 168.35 104.35 158.7 98.6 146.2 100.35 139.45 101.45 132.7 102.55 121.75 104.45 110.7 104.7 107.7 104.85 105.2 103.5
L 124.1 87.5
Q 114.25 90 105.1 85.85 75.9 91.45 51.5 76.15 51.6 75.2 51.65 74.25 52.05 67.5 47.35 62.7 42 68.85 33.95 69.4 32.75 69.35 31.6 69.35
L 33.55 73.15 11.7 88.7
Q 32.7 95.85 55 94.5 56.5 94.9 57.9 95.6 71.35 102.45 85.6 102.85
L 85.8 106.95 45.8 118.2
Q 55.15 127.85 68.35 129.1 74.25 129.95 80.2 130.8
L 82.55 124.6
Q 100.4 116.6 119.15 117.85 123.05 118.45 125.8 121.2 128.5 123.9 129.5 127.75 141.15 128.8 148.05 138.3
L 133.25 147.3
Q 165.8 150.75 198.4 149.95 202.75 149.85 207.1 148.95
L 190.85 142.65 194.5 134.5
Q 183.9 126 171.1 120.8
M 330.8 249.1
L 326.75 249.6 335.55 249.6 330.8 249.1
M 392.55 142.9
L 394.45 141.9 396.4 138.4
Q 395.3 138.25 394.2 138.15 393.05 138.15 391.95 138.15 385 138.75 381.15 144.65 367.95 140.75 354.1 142.95 349.8 143.65 345.25 142.55 340.15 141.15 335.1 139.8
L 341.7 137.05 329.3 134.35 334.5 134.25 334.05 131.3 309.45 131.9 312.95 134.8 296.05 142.75 302.45 147.8 306.75 151.8 298.05 157.7 315.85 161.95 319 170.2 310.6 179.8 288.2 184.95 284.8 182.95
Q 284.3 183.2 283.85 183.45 283.35 183.75 282.95 184.1 278.7 187.7 280.25 193.4 279.3 192.85 278.35 192.35 273.6 189.9 268.25 188.7 260.65 187.35 253.35 189.8
L 263.85 177.45
Q 266.25 166.05 279.45 166.15 286.75 166.7 294.15 165.7 297.8 165.05 301.45 164.45 285.6 157.65 268.9 154.1 250.85 150.4 232.9 152
L 231.7 161.7 207.75 162.65
Q 207.7 163.1 207.7 163.6 207.7 164.05 207.7 164.5 207.85 167.1 210 168.7 214.5 172.1 219.1 175.4
L 205.75 182.4 193.15 179.2 179.15 185.5 178.15 197 199.1 196.35 206.65 200.5 192.85 205.55 191.65 201.45 190.05 204.2 184.9 201.45 189.25 209.55 177.15 213.7 177 218.15 169.25 219.5 167.95 220.9 157.65 222.3 157.8 216.35 153.25 218.45 155.25 208.65 149.55 217.25 144.2 210.5 146.4 220.15 134.85 223.25 134.3 229.35
Q 134.6 229.7 134.95 230.05 135.3 230.4 135.75 230.55 141.7 232.65 148.35 231.8 149.7 241.95 159.25 243.6 164.15 244.35 169.3 243.95 179.95 243.05 190.5 241.75
L 194 248.6 203.1 249.6 204.95 246.25
Q 205.7 246.4 206.5 246.55 217.8 248.1 228.25 243.2 230.5 242.15 233 241.95 235.35 241.65 237.8 241.85
L 242.55 248.5 252 249.6 248.6 247.6 255.1 240.8
Q 256.15 241 257.2 241.2 265.3 242.3 273.05 240.1 278.3 238.55 282.95 235.4 281.6 227.95 274.15 227.55 270.65 227.15 267.05 227.35 266.1 226.9 265.25 226.35 249.6 216.75 231.2 218.7 249.15 204.95 272.2 203.35 281.55 203.35 290.9 202.35 293 202.8 295.1 203.4 296.45 203.75 297.8 204.3 303.2 195 313.8 190.15 320.8 187 328.4 185.6 335.85 184.35 341.5 179.2
L 343.95 169.75 330.85 160.8
Q 331.85 160.4 332.85 160 339.8 157.5 346.55 160.55 352.65 163.25 359.35 163.55 359.7 162.9 360.1 162.3 364.9 155.35 373.6 156.95 376.75 157.4 379.45 158.7 383.45 160.5 387.8 160.8
L 392.55 142.9 Z"/>

<path fill="#E6BF25" stroke="none" d="
M 153.45 759.5
Q 154.1 759.8 154.9 759.85 155.75 760.65 156.7 761.35 157.65 762 158.7 762.5 159.7 763 160.8 763.15 164.5 764 168.2 763.35 169.1 763.1 170 762.9
L 168.75 747.95
Q 170.6 749.45 172.6 750.7 174 751.65 175.6 752.2 176.8 752.65 178.1 752.95 180.85 753.3 183.1 752.4
L 184.6 750.85 189.35 750.2 185.9 759 185.45 761.25 216.85 761.45 221.25 758.05 228.35 758.55
Q 229.15 753.6 225 747.6 213.6 731.2 197.4 718.9 189.6 713 179.15 711.65 172.35 710.55 165.6 709.15 161 708.45 156.45 707.75
L 162.95 704.7 136.5 691.6 175.8 729.8
Q 167.2 731.9 162.55 739.1 160.65 742.1 160.75 745.65 160.85 748.35 162.1 750.7 161.05 750.35 160 750.05 134.8 742.95 109.5 750.45 132.3 751.2 153.45 759.5
M 57.15 739.55
L 54.9 740.85 61.2 755.8 71.1 763.3 48.5 771.9
Q 73.75 783.1 99 794.35 99.2 795.35 99.45 796.35 99.55 796.8 99.75 797.25 100 797.95 100.3 798.6 100.6 799.15 101.1 799.55 107.4 804.85 116.15 806.35 120.05 807.1 123.8 808.7 122.7 806.6 121.55 804.6 118.05 798.5 113.45 793.2 107.85 786.7 109.8 778.1 110.9 773.35 109.5 768.65 106.9 759.85 99.8 754.1 94.3 752.35 88.65 752.55 80.95 753 74.3 756.85 70.8 749.9 64.95 744.75 61.35 741.6 57.15 739.55
M 145.85 654.45
L 143.1 655.75 141.3 662.05 123.2 664.25
Q 123.15 664.3 123.15 664.35 124.75 678.45 134.1 688.85
L 135.3 686.8 198 692.55 196.5 688.6
Q 216.8 689.4 235.95 692.4 237.25 692.7 238.6 693.05 248.6 694.65 257.9 688.7 263 685.45 268.5 682.75
L 265.9 678.55 272.6 674.85 276.7 663.8 241.1 647.9
Q 262.2 648.85 282 641.25 291.95 637.4 301.5 633.25 302.7 629.6 300.4 624.5 299.05 621.45 296.95 618.95 293.8 615.3 289.75 612.45 286.95 613.85 284.15 615.2 280.35 616.85 276.5 616.6 259.7 617.95 244.9 626.2 247.3 640.5 233.35 642.95 225.7 644.35 217.95 642.5 221.55 650.9 229.7 654.75
L 228.45 664.85
Q 215.8 665.9 203.25 667.4 187.85 668.8 173.1 664.55 170.45 663.9 168.8 662.15 159.15 651.95 145.85 654.45
M 314.8 532.8
L 315.3 527.85
Q 312.2 534.1 305.75 536.45 301.55 538.15 297.5 536.1 291.1 541.85 293.45 550.1
L 277.95 560.3
Q 276.25 565.75 278.45 570.85 279.7 573.7 282.3 575 296.95 582.45 292.2 597.25 301.75 599.95 309.55 594.15 310.75 593.25 312 592.4
L 307.6 584.5 282.75 566.15 287.85 555.15
Q 308.85 543.9 329.65 555.45
L 339 542.6 332 541.35 333.95 537 329.9 536.9 325.95 539.75 325.55 525.9 314.8 532.8
M 163.05 593.35
L 169.45 587.15 178.15 585.65 182.4 588.55
Q 197.25 582.35 212.15 576.2
L 209.5 572.7
Q 210.1 570.1 212.2 568.4 214.85 566.3 218.15 566.15
L 168.3 551.85 152.55 557.05
Q 145.25 560.05 139.9 554.5 139.1 553.65 138.4 552.75
L 122.1 549.4 135.85 542.55 138.05 533.9 162.6 528.8
Q 153.9 522.9 143.9 526.8 143.55 526.95 143.15 527 142.75 527 142.35 527.05
L 138.55 523.75
Q 114.1 524.65 90.9 531.9
L 90.75 527.65 73.4 527.4 70.3 524.15 61.15 523.3 60.8 529.15 64.55 531.2 49.3 540.6 74.85 542.7 72.95 547.65 76.45 549.25 71.4 558.15 91.9 564.85 93.4 566.7 89.7 575.2 40.1 583.1 48.65 588.05 35.65 594.2
Q 29 592.3 22.35 591.9 12.2 591.75 2 593.1
L 9 594.35 3.9 607.95 37.5 612 33.7 619.3 59.5 620.4 61.3 619.25 74.55 622.6 74.3 619.95 76.9 617.9 71.35 616.8 71.95 613.5 63.95 609.5 93.15 600.45 90.8 596.9 94.5 593.15 105.1 593.7 106.6 595.3
Q 115.55 597.8 124.2 591.35 124.4 591.25 124.55 591.1 124.7 591 124.8 590.85 125.05 590.6 125.25 590.3
L 163.05 593.35
M 165.6 568.6
L 167.5 565.95 193.1 567.65 184.85 572.35 181.9 569.9 183.25 574.8 162.95 577.2 166.3 571.2 154.5 575.05 151 574
Q 144.35 577.05 137.2 574.5 136.05 574.15 134.9 573.85 133.7 573.45 132.5 573.05
L 168.2 569.25 165.6 568.6
M 91.5 546.05
L 93.5 545.55 103.9 549.95 90.6 551.7 91.5 546.05
M 115 71.25
L 113.35 67.4
Q 113.2 67.25 113.05 67.1 112.25 67.05 111.45 67 110.8 66.85 110.25 66.65 103.45 64.1 102.3 56.85 91.65 48.9 76.7 52.15 68.65 54.1 60.6 55 49.05 55.25 38.2 59.1
L 47.35 62.7
Q 52.05 67.5 51.65 74.25 51.6 75.2 51.5 76.15 75.9 91.45 105.1 85.85 114.25 90 124.1 87.5
L 130.05 87.6 141 79.35 115 71.25 Z"/>
</g>
</defs>

<g transform="matrix( 1, 0, 0, 1, 0.15,276.8) ">
<g transform="matrix( 1, 0, 0, 1, 0,0) ">
<use xlink:href="#Barren_ground_3_Layer1_0_FILL"/>
</g>
</g>
</svg>
