
<svg xmlns="http://www.w3.org/2000/svg" version="1.1" xmlns:xlink="http://www.w3.org/1999/xlink" preserveAspectRatio="none" x="0px" y="0px" width="1000px" height="800px" viewBox="0 0 1000 800">
<defs>
<g id="Spiked_Berricade_1_Layer0_0_FILL">
<path fill="#000000" stroke="none" d="
M 194.5 70.35
Q 194.9 65.85 193.7 61.6 190.05 48.9 177.15 44.65 165.55 48.8 160.55 60.1 157.4 53.65 151.7 49.3 148.85 47.2 145.95 44.75 137.65 37.5 133.2 27.05 130.75 21.35 126 17.6 108.6 4.2 86.7 4.6 72.5 13.15 62.15 26 47.25 44.45 55.65 66.75 49.65 74 47.85 83.2 45.75 93.95 54.45 100.8 52.75 102.75 51.2 104.85 40.3 119.2 44.75 136.85 21.35 149.95 13.15 175.5 16.5 181.9 20.85 187.6 27 195.65 37.3 195.9 33.75 220.15 41.25 243.5 27.3 258.25 22.4 278.05 16.5 301.9 34.95 317.9 27.75 309.8 28.65 298.95 30.75 273 50.4 256.4 63 245.7 79.45 243.9 80.85 245.2 82.3 246.5 93.05 256.75 100.25 269.9
L 104.2 277.15 77.2 323.2
Q 73.05 323.85 68.9 324.5 51.05 326.1 35.05 318 52.45 332.7 75.15 328.85 74.75 329.95 74.4 331.1 69.5 347.55 81 359.9 84.74375 363.4025390625 89.9 365.1 126.101171875 376.7142578125 158.4 359.9
L 167.45 354.6
Q 188.35 361.65 210.2 358.25 217.6 357.15 221.45 350.7 227.4 340.65 223.1 329.4 218.7 317.8 209.25 309.65 203.3 304.5 196.9 299.7 186.8 292.1 177.6 300.25
L 164.9 287.25
Q 169.6 283.65 172.35 278.45 179.6 264.7 176.15 249.55 172 231.55 157.2 220.35 140 207.25 120.2 216
L 118.15 206.2
Q 129.4 207.25 138.85 201.35 152.85 192.6 148.35 176.6 154.25 176.8 159.3 173.85 166.35 169.85 168.45 162.15 159.3 145.25 144.25 133.3 158.75 129.4 170.15 119.35 176.55 96.35 166.95 74.65 172 77 177.65 77.35 187.45 77.5 194.5 70.35
M 164.95 66.95
Q 165.6 65.2 166.3 63.5 169.9 54.5 179.3 56.35 186.95 60.75 190.15 68.85 176.8 76.9 164.95 66.95
M 167.25 114.75
Q 166.3 115.7 165.45 116.7 159.1 123.75 149.85 126.05
L 140.75 128.9
Q 131.75 117.2 121.45 106.7 110.9 96.05 96.3 92.65
L 103.75 75.7
Q 114.65 58.15 134.65 54.1 137.2 56.55 139.6 59.2 161.2 83 167.25 114.75
M 130.95 47.75
L 125.45 49.35
Q 110.75 51.45 103.05 64.3 101.25 61.5 98.5 59.75 83.2 50.2 68.05 60.15
L 62.25 63.95 58.7 62.15
Q 57.7 44.75 69.7 32 86.8 13.8 111.95 13.8 114.4 15.25 116.3 17.5 127.4 30.8 130.95 47.75
M 98.8 66.5
Q 99.75 67.35 100.7 68.2
L 89.1 91.75 70.1 87.3 57.45 96.2 51.7 87.25
Q 52.4 86.05 53.1 84.9 64.25 67.15 83.7 59.7 91.25 59.95 96.8 64.75 97.8 65.6 98.8 66.5
M 73.45 99.05
Q 76.55 100.35 79.8 101.35 88 103.75 95.95 106.8 115.85 114.35 131.65 128.75 148.55 144.15 162.25 162.4
L 160.55 166.65 146.4 172.8 126.6 160.85
Q 116.7 162.15 109.4 168.85 108.4 169.75 107.5 170.8 100.8 159.2 87.35 158.8 83 158.7 78.65 158.85
L 61.35 140.25 51.2 134.85
Q 51.4 130.9 51.7 127 52.05 122.25 54.5 118.1 61.55 106.25 73.45 99.05
M 38.2 190.75
Q 35.95 190.55 33.7 190.4 25.45 189.8 23 182.1
L 17.85 174.35
Q 18.9 173.05 20 171.75 33.8 155.5 53.4 147.15
L 73.7 159.85
Q 48.75 167 38.2 190.75
M 88.6 171.7
Q 90.55 171.7 92.5 171.75
L 111.75 215 113.35 219.1
Q 105.9 222.55 99.65 228 93.5 233.3 89.75 240.45 89.2 240.15 88.6 239.95 70.85 231.3 51.8 235.95
L 46.2 237.7 40.9 210.45 53.45 178.85
Q 70.25 171.85 88.6 171.7
M 113.15 185.6
L 111.6 178.8 120.8 169.6
Q 126.7 169.6 131.95 171.9 146.45 178.25 143.5 193.7 140.2 199.3 133.7 199.35 125.7 199.75 117.75 200.2
L 113.15 185.6
M 124.6 226.75
Q 142.4 219.5 156.65 232.2 175.45 248.9 169.45 273.05
L 161.25 283.45
Q 153.35 273.75 141.55 269.85 137.2 268.5 132.55 268.4 120.1 268.1 108.35 271.85
L 97.9 250.7
Q 106.95 233.9 124.6 226.75
M 107.8 293.2
Q 120.25 277.9 139.5 281.55
L 172.75 312.35 170.35 327.5 173.55 320.35 185.15 306.8 204.4 320.75 222 331.35 218.8 347.4
Q 210.65 353.25 200.7 354.35 196.15 355.05 191.85 353.6 183.8 351 175.55 350.35 170.9 350.5 166.4 351.4 151.9 354.3 138 359.9 123.7953125 364.0337890625 108.75 364.1 103.4 363.15 98.25 361.6 95.87421875 360.8080078125 93.55 359.9 91.6 359.15 89.6 358.05 77.95 351.8 74.95 339 76.85 333.6 80.25 328.9 93.55 310.75 107.8 293.2 Z"/>

<path fill="#6D6251" stroke="none" d="
M 135.65 288.3
Q 134.95 290.05 135.05 291.75 136.45 310.85 142.8 329.2 138.35 331.2 133.9 333.25 116.3 341.6 109.95 359.9 109.2689453125 361.9388671875 108.75 364.1 123.7953125 364.0337890625 138 359.9 151.9 354.3 166.4 351.4 170.9 350.5 175.55 350.35 183.8 351 191.85 353.6 196.15 355.05 200.7 354.35 210.65 353.25 218.8 347.4
L 222 331.35 204.4 320.75
Q 202.5 319.55 200.55 318.6 195.8 316.2 190.85 318.6 191.85 330.25 194.65 341.75 196.7 350.1 188.35 352.45 187 351.9 185.7 351.3 176.25 347.1 172.75 337.5 173.1 336.4 173.45 335.35 176.05 327.85 173.55 320.35
L 170.35 327.5 172.75 312.35 139.5 281.55
Q 137.15 284.65 135.65 288.3
M 145.5 234.25
L 127.95 243.9
Q 127.85 253.55 121.15 260.5 120.5 261.15 119.85 261.85
L 97.9 250.7 108.35 271.85
Q 120.1 268.1 132.55 268.4 137.2 268.5 141.55 269.85 153.35 273.75 161.25 283.45
L 169.45 273.05
Q 168.65 269.5 167.6 266 161.85 246.45 145.5 234.25
M 143.5 193.7
Q 141.45 188.55 137.2 184.95 124.85 174.55 113.15 185.6
L 117.75 200.2
Q 125.7 199.75 133.7 199.35 140.2 199.3 143.5 193.7
M 102.2 196.45
Q 98.7 189.15 91.1 186.85 76.6 182.35 67 194.25 52.4 212.45 51.8 235.95 70.85 231.3 88.6 239.95 89.2 240.15 89.75 240.45 93.5 233.3 99.65 228 105.9 222.55 113.35 219.1
L 111.75 215
Q 110.3 213.4 109.45 211.5 105.9 204 102.2 196.45
M 33.7 190.4
Q 35.95 190.55 38.2 190.75 48.75 167 73.7 159.85
L 53.4 147.15 53.2 155.9 23 182.1
Q 25.45 189.8 33.7 190.4
M 77.15 113.9
Q 59.95 121.5 61.35 140.25
L 78.65 158.85
Q 83 158.7 87.35 158.8 100.8 159.2 107.5 170.8 108.4 169.75 109.4 168.85 116.7 162.15 126.6 160.85
L 146.4 172.8 160.55 166.65
Q 143.35 145.35 122.2 127.85 118.2 124.55 113.65 126.9 103 124 94.85 116.75 86.8 109.6 77.15 113.9
M 83.7 59.7
Q 83.7 60.05 83.7 60.4 83.3 77.2 70.1 87.3
L 89.1 91.75 100.7 68.2
Q 99.75 67.35 98.8 66.5 97.8 65.6 96.8 64.75 91.25 59.95 83.7 59.7
M 125.45 49.35
Q 123.55 44.4 121.75 39.4 119.45 33.05 113.95 29.2 99.5 19.2 84.15 28.4 66.2 39.3 68.05 60.15 83.2 50.2 98.5 59.75 101.25 61.5 103.05 64.3 110.75 51.45 125.45 49.35
M 103.75 75.7
L 96.3 92.65
Q 110.9 96.05 121.45 106.7 131.75 117.2 140.75 128.9
L 149.85 126.05
Q 162.05 113.65 156.95 96.85 150.75 76.35 133.05 64.3 131 64.45 129 64.65 115 67.1 103.75 75.7
M 104.2 277.15
L 100.25 269.9
Q 92 259.95 80.35 254.15
L 56.7 267.8
Q 54.05 284.6 48.95 300.65 45.35 311.9 35 317.95
L 35.05 318
Q 51.05 326.1 68.9 324.5 73.05 323.85 77.2 323.2
L 104.2 277.15 Z"/>

<path fill="#B4ACA0" stroke="none" d="
M 135.05 291.75
Q 134.95 290.05 135.65 288.3 137.15 284.65 139.5 281.55 120.25 277.9 107.8 293.2 93.55 310.75 80.25 328.9 76.85 333.6 74.95 339 77.95 351.8 89.6 358.05 91.6 359.15 93.55 359.9 95.87421875 360.8080078125 98.25 361.6 103.4 363.15 108.75 364.1 109.2689453125 361.9388671875 109.95 359.9 116.3 341.6 133.9 333.25 138.35 331.2 142.8 329.2 136.45 310.85 135.05 291.75
M 190.85 318.6
Q 195.8 316.2 200.55 318.6 202.5 319.55 204.4 320.75
L 185.15 306.8 173.55 320.35
Q 176.05 327.85 173.45 335.35 173.1 336.4 172.75 337.5 176.25 347.1 185.7 351.3 187 351.9 188.35 352.45 196.7 350.1 194.65 341.75 191.85 330.25 190.85 318.6
M 156.65 232.2
Q 142.4 219.5 124.6 226.75 106.95 233.9 97.9 250.7
L 119.85 261.85
Q 120.5 261.15 121.15 260.5 127.85 253.55 127.95 243.9
L 145.5 234.25
Q 161.85 246.45 167.6 266 168.65 269.5 169.45 273.05 175.45 248.9 156.65 232.2
M 111.6 178.8
L 113.15 185.6
Q 124.85 174.55 137.2 184.95 141.45 188.55 143.5 193.7 146.45 178.25 131.95 171.9 126.7 169.6 120.8 169.6
L 111.6 178.8
M 92.5 171.75
Q 90.55 171.7 88.6 171.7 70.25 171.85 53.45 178.85
L 40.9 210.45 46.2 237.7 51.8 235.95
Q 52.4 212.45 67 194.25 76.6 182.35 91.1 186.85 98.7 189.15 102.2 196.45 105.9 204 109.45 211.5 110.3 213.4 111.75 215
L 92.5 171.75
M 20 171.75
Q 18.9 173.05 17.85 174.35
L 23 182.1 53.2 155.9 53.4 147.15
Q 33.8 155.5 20 171.75
M 79.8 101.35
Q 76.55 100.35 73.45 99.05 61.55 106.25 54.5 118.1 52.05 122.25 51.7 127 51.4 130.9 51.2 134.85
L 61.35 140.25
Q 59.95 121.5 77.15 113.9 86.8 109.6 94.85 116.75 103 124 113.65 126.9 118.2 124.55 122.2 127.85 143.35 145.35 160.55 166.65
L 162.25 162.4
Q 148.55 144.15 131.65 128.75 115.85 114.35 95.95 106.8 88 103.75 79.8 101.35
M 83.7 60.4
Q 83.7 60.05 83.7 59.7 64.25 67.15 53.1 84.9 52.4 86.05 51.7 87.25
L 57.45 96.2 70.1 87.3
Q 83.3 77.2 83.7 60.4
M 125.45 49.35
L 130.95 47.75
Q 127.4 30.8 116.3 17.5 114.4 15.25 111.95 13.8 86.8 13.8 69.7 32 57.7 44.75 58.7 62.15
L 62.25 63.95 68.05 60.15
Q 66.2 39.3 84.15 28.4 99.5 19.2 113.95 29.2 119.45 33.05 121.75 39.4 123.55 44.4 125.45 49.35
M 165.45 116.7
Q 166.3 115.7 167.25 114.75 161.2 83 139.6 59.2 137.2 56.55 134.65 54.1 114.65 58.15 103.75 75.7 115 67.1 129 64.65 131 64.45 133.05 64.3 150.75 76.35 156.95 96.85 162.05 113.65 149.85 126.05 159.1 123.75 165.45 116.7
M 166.3 63.5
Q 165.6 65.2 164.95 66.95 176.8 76.9 190.15 68.85 186.95 60.75 179.3 56.35 169.9 54.5 166.3 63.5
M 100.25 269.9
Q 93.05 256.75 82.3 246.5 80.85 245.2 79.45 243.9 63 245.7 50.4 256.4 30.75 273 28.65 298.95 27.75 309.8 34.95 317.9
L 35 317.95
Q 45.35 311.9 48.95 300.65 54.05 284.6 56.7 267.8
L 80.35 254.15
Q 92 259.95 100.25 269.9 Z"/>
</g>
</defs>

<g transform="matrix( 1, 0, 0, 1, 374.95,127.8) ">
<g transform="matrix( 1, 0, 0, 1, -1.25,125.35) ">
<g transform="matrix( 1, 0, 0, 1, 0,0) ">
<use xlink:href="#Spiked_Berricade_1_Layer0_0_FILL"/>
</g>
</g>
</g>
</svg>
