
<svg xmlns="http://www.w3.org/2000/svg" version="1.1" xmlns:xlink="http://www.w3.org/1999/xlink" preserveAspectRatio="none" x="0px" y="0px" width="1000px" height="800px" viewBox="0 0 1000 800">
<defs>
<g id="barren_prop_13_Layer1_0_FILL">
<path fill="#0099CC" stroke="none" d="
M 171.7 308.25
Q 170.55 309.7 169.45 311.15
L 196.5 295.2
Q 181.15 296.2 171.7 308.25
M 170.3 280.85
L 168.25 286.65 180.45 297.25 175.7 280.2 170.3 280.85 Z"/>

<path fill="#000000" stroke="none" d="
M 196.5 295.2
L 196.85 292.3 184.85 294.55 175.7 276.45
Q 167.15 275.9 164.75 284.35 164.6 284.9 164.55 285.55 164.5 286.5 164.5 287.5
L 174.6 301.35 165.85 312.3
Q 170.4 318.25 177.2 315 177.45 314.9 177.65 314.75 177.9 314.7 178.15 314.55
L 193.2 340.7 220.45 338.25 195.7 302 196.5 295.2 169.45 311.15
Q 170.55 309.7 171.7 308.25 181.15 296.2 196.5 295.2
M 168.25 286.65
L 170.3 280.85 175.7 280.2 180.45 297.25 168.25 286.65
M 217.05 337.75
L 203.1 338.45 195.05 338.7 188.95 325.45 182.05 310.55 191.55 304.9 217.05 337.75
M 33.85 295.25
L 28.4 293.55 10.1 307.95 20.15 326.55 25.4 327.75
Q 26.6 333.95 31.1 338.15 58.4 363.3 93.9 351.8 112.05 345.85 114.05 326.85 117.35 295.15 88.1 283.8 57.55 273.65 33.85 295.25
M 79.8 287.85
Q 78.7 288.9 77.6 289.95 62.4 304.9 59.35 326.1
L 66.3 347.35 44.95 343.45
Q 37.25 339.75 33.65 332 25.2 313.75 38.65 299.15 56.1 280.05 79.8 287.85
M 70.45 340.8
Q 63.65 332.75 63.65 321.4 63.65 310.05 70.45 302 77.3 293.95 86.95 293.95 96.6 293.95 103.4 302 110.25 310.05 110.25 321.4 110.25 332.75 103.4 340.8 96.6 348.85 86.95 348.85 77.3 348.85 70.45 340.8
M 30.4 299
L 25.7 310.85 23 322.9 13.85 309.4
Q 15 303.2 20.8 301.05 25.4 299.4 30.4 299 Z"/>

<path fill="#FFFFFF" stroke="none" d="
M 188.95 325.45
L 195.05 338.7 203.1 338.45
Q 201.85 333.8 200.65 329.2 198 318.9 187.8 315.3
L 188.95 325.45
M 25.7 310.85
L 30.4 299
Q 25.4 299.4 20.8 301.05 15 303.2 13.85 309.4
L 25.7 310.85 Z"/>

<path fill="#CCCCCC" stroke="none" d="
M 203.1 338.45
L 217.05 337.75 191.55 304.9 182.05 310.55 188.95 325.45 187.8 315.3
Q 198 318.9 200.65 329.2 201.85 333.8 203.1 338.45
M 25.7 310.85
L 13.85 309.4 23 322.9 25.7 310.85 Z"/>

<path fill="#333333" stroke="none" d="
M 63.65 321.4
Q 63.65 332.75 70.45 340.8 77.3 348.85 86.95 348.85 96.6 348.85 103.4 340.8 110.25 332.75 110.25 321.4 110.25 310.05 103.4 302 96.6 293.95 86.95 293.95 77.3 293.95 70.45 302 63.65 310.05 63.65 321.4 Z"/>

<path fill="#666666" stroke="none" d="
M 59.35 326.1
Q 51.9 326.15 44.45 326.25 36.55 326.4 31.55 320.4 31.6 321.35 31.7 322.35 32.8 336.45 44.95 343.45
L 66.3 347.35 59.35 326.1 Z"/>

<path fill="#999999" stroke="none" d="
M 77.6 289.95
Q 78.7 288.9 79.8 287.85 56.1 280.05 38.65 299.15 25.2 313.75 33.65 332 37.25 339.75 44.95 343.45 32.8 336.45 31.7 322.35 31.6 321.35 31.55 320.4 36.55 326.4 44.45 326.25 51.9 326.15 59.35 326.1 62.4 304.9 77.6 289.95 Z"/>
</g>
</defs>

<g transform="matrix( 1, 0, 0, 1, 374.95,127.8) ">
<g transform="matrix( 1, 0, 0, 1, 0,0) ">
<use xlink:href="#barren_prop_13_Layer1_0_FILL"/>
</g>
</g>
</svg>
