
<svg xmlns="http://www.w3.org/2000/svg" version="1.1" xmlns:xlink="http://www.w3.org/1999/xlink" preserveAspectRatio="none" x="0px" y="0px" width="1000px" height="800px" viewBox="0 0 1000 800">
<defs>
<g id="barren_prop_31_Layer2_0_FILL">
<path fill="#000000" stroke="none" d="
M -27.65 446.05
Q -18.15 447.95 -8.65 449.9 11.95 454.2 33.05 454.4
L -26.2 446.1 -27.65 446.05
M -13.15 400.85
L -18.3 412.15
Q -23.45 416.25 -27.05 421.35 -33.15 430 -34.9 440.45
L -18.35 420.3 -16.55 424.6 -16.3 424.95 -14.3 426.05 -13.15 400.85
M -10.65 392.95
L -10.55 380 -34.95 374.9 -11.95 381.25 -10.65 392.95
M -15.55 309.65
L -15.2 310.85 19.9 311.75 -14.4 309.6 -15.55 309.65
M -10.85 292.6
L -13.5 291.7 -21.2 294.1 -13.4 293.55 -17.05 302.6
Q -13.35 301.85 -11.9 298.2 -10.8 295.45 -10.85 292.6
M -18.1 55.65
L -10.45 58.05 -7.8 57.15
Q -8.2 54.85 -8.8 52.6 -9.95 48.3 -14.2 47.1
L -10.35 56.2 -18.1 55.65
M -7.5 -30.25
L -7.6 -43.2 -8.9 -31.5 -31.95 -25.1 -7.5 -30.25
M -24.5 -96.35
L -23.15 -96.35 36.1 -104.65
Q 12.65 -106 -10.15 -100.15 -14.2 -99.05 -18.25 -98 -21.4 -97.15 -24.5 -96.35
M -13.25 -75.2
L -13.5 -74.85 -15.65 -70.6 -25.6 -74.75 -31.85 -90.7 -29.5 -73 -15.2 -62.35 -10.1 -51.1 -11.25 -76.3 -13.25 -75.2
M 98 449.55
Q 102.9 450.8 107.75 452.2 133 460.1 159.4 458.8
L 100.15 449.7 98 449.55
M 104.4 416.05
Q 103.55 416.95 102.75 417.95 95.65 426.5 92.65 437.8 92.6 437.95 92.6 438.1 91.9 440.7 91.45 443.45
L 108 421.3 109.8 426 110.05 426.4 112.05 427.6 113.2 399.85 108 412.5
Q 106.1 414.2 104.4 416.05
M 176.85 459.5
L 168.55 460.3 178.75 465 207.1 449.25 179.25 459.65 179.2 459.65
Q 179.2 459.6 179.2 459.55
L 174.05 437.7 174.25 449.8 175.65 451.6 176.85 459.5
M 189.8 377
Q 189 377.5 188.2 378.05
L 229.35 365.7
Q 229.35 364.6 228.55 363.85 227.75 363.1 226.6 363.1 207 366.3 189.8 377
M 177.2 382.15
L 174.6 392.2 176.25 393.45 176.8 389.5
Q 177.2 388.95 177.65 388.4 180.6 384.35 177.9 380.2
L 156.35 382.05
Q 159.45 389.85 166.5 393.05 167.6 393.5 168.7 393.95
L 170.35 415.45 170.65 416.85 166.3 415.85 158.95 416.35 155.35 418.55 173.5 418.5
Q 175.85 404.1 171.35 390.3
L 160.9 384 177.2 382.15
M 115.7 391.2
L 115.8 376.95 91.35 371.35 114.4 378.3 115.7 391.2
M 104.8 361.7
L 108.95 365.1 151.1 374.9
Q 152.5 375.05 153.95 375.25 188.9 377.65 217.75 356.35
L 214.95 355.25 197.6 359.55 197.2 356.6
Q 195.8 359.4 193 360.45 149.1 376.6 104.8 361.7
M 114.95 299.7
L 110.9 299.9 132.55 301 114.95 299.7
M 30 384.65
Q 32.7 392.1 40.15 394.75 41.25 395.1 42.35 395.45
L 44 415 44.3 416.25 39.95 415.35 32.6 415.8 29 417.8 47.15 417.7 45 392.15 34.55 386.55 50.85 384.75 49.65 394.55
Q 49.8 394.35 50 394.15 50.35 393.7 50.7 393.25 51.1 392.65 51.5 392.1 51.65 391.8 51.8 391.5 51.9 391.15 52.05 390.85 52.85 389.3 52.7 387.55 52.45 385.25 51.55 382.95
L 30 384.65
M 12.2 375.95
Q 14.6 376.25 17 376.55 56.5 380.1 91.4 361.3
L 88.6 360.3 71.25 364.2 71.3 361.25
Q 70.25 363.45 67.85 364.35 23.5 381.95 -21.55 366.15
L -17.4 369.25 12.2 375.95
M 22.85 385.5
Q 23.5 385.25 24.2 385.05
L -0.8 380.7 -2.25 382.4 -10.95 396.95 0.15 382.25
Q 10.6 385.6 21.45 385.5 22.15 385.5 22.85 385.5
M 8.15 266.5
L 0.45 264.85 -16.1 263.3 -17.35 261.6 -34.55 259.45 -36.05 259.25 -28.65 265.4 -25.8 307.8 -32.8 312.15 -33.4 366.05 -42.4 370 -45.3 441.2 -35.1 444.05 -40.05 437.3
Q -40.8 428.8 -41.45 420.35 -43.3 396.95 -34.95 374.9
L -28.35 369.95 -21.2 294.1 -24.25 266.55 -19.5 267.15 8.15 266.5
M 35.55 214.95
L 31.75 215.7 31.5 242.95 32 245.7 33.65 245.65 33.1 243.85 35.35 231.45 36.35 219.75 35.55 214.95
M 24.05 204.1
Q 22.95 204.75 21.9 205.45 5.7 215.05 -13.3 216.45
L -35.15 230.5
Q -40.65 244.1 -37.65 258.5
L -36.05 259.2 -34.35 257.35 -33.35 232.55 -20.2 228.95 -17.4 228.25
Q -15.55 228.25 -14.25 226.35 -12.95 224.4 -12.95 221.7
L 32.25 205.85 29.8 199.35 23.55 193.65 22.65 198.7 7.85 202.15 24.05 204.1
M 125.55 377.7
L 124.1 379.6 115.4 395.6 126.5 379.4
Q 136.95 382.7 147.8 383.25 148.5 383.1 149.2 383 149.85 382.7 150.55 382.5
L 125.55 377.7
M 112.95 281.8
L 106.95 291.9
Q 111.2 292.55 113.85 288.9 115.4 286.7 115.25 283.8 115.2 283.35 115.25 282.9 115.35 281.8 115.5 280.75
L 112.85 279.75 105.15 282.4 112.95 281.8
M 159.05 211
L 158.1 212 157.85 226.1 158.35 229.15 160 229.1 159.45 227.1 161.7 213.45 162.7 200.6 162 198.65 162.5 196.75 160.25 194.85 159.05 211
M 11.95 145.3
L 13.2 144.25 -29.6 136.65 -29.55 120.55 -21.7 120.55 -27.05 116.95 -27.15 116.85 -30.05 99.25 -31.3 92.4 -33 90.55 -34.55 91.2 -33.25 139.1 -21.3 141.85 -26.7 147.5 -22.6 184.1
Q -18.2 185.65 -13.75 187.05 -4.35 190 5.25 192.4
L -12.2 215.05 6.7 200.1
Q 7.8 196.55 9.65 193.4 10.65 191.65 11.9 190 13.05 188.45 14.4 187.05 15.35 186.1 16.4 185.2 18.65 183.25 21.35 181.75
L 22.3 193.95 24.7 191.45 26.35 181.8
Q 27.1 181.55 27.85 181.3 34 179.45 37.5 175.3 40.7 171.35 41.55 165.35
L 37.15 166.6 34.15 167.45 33.45 171.8 18.8 177.7 19 174.45 11.5 184.25 -19.15 178.05 -22.85 146.45 -15.4 142.75 11.95 145.3
M 35.05 104.05
L 34.55 106.8 34.8 119.65 35.75 120.55 36.95 135.2 39.2 133.5 38.7 131.75 39.4 130 38.4 118.3 36.15 105.9 36.7 104.1 35.05 104.05
M 45.75 144.05
Q 46.9 144.25 48.05 144.45 49.2 144.5 50.35 144.5 68.45 143.65 86 139.85
L 85 169.15
Q 93 151.8 90.85 132.55 90.7 131.4 90.95 130.2
L 88.05 131.95 85.25 134.95 45.75 144.05
M 3.5 84.9
L 11.2 83.25 -16.45 82.6 -21 83.55 -18.1 55.65 -25.3 -20.2 -31.95 -25.1
Q -39.2 -40.95 -38.4 -58.4 -37.75 -73 -37 -87.55
L -32.05 -94.3 -42.25 -91.45
Q -43.5 -59.25 -40.05 -27.2 -39.6 -23.2 -39.1 -19.2
L -30.35 -16.3 -29.15 37.6
Q -27 37.75 -25.35 39.15 -22.95 41.05 -22 44.15 -21.85 44.55 -21.8 44.95 -21.6 47.4 -21.5 49.85 -20.8 67.4 -25.6 84.35
L -33 90.5 -31.5 90.3 -14.3 88.15 -13.05 86.45 3.5 84.9
M 28.15 37.65
Q 25.95 37.45 23.85 36.95 5.45 33.85 -12.4 39.75
L -8.35 39.95 28.15 37.65
M 105.2 56.45
L 112.9 59.05 115.55 58.1
Q 115.6 54.95 114.5 51.9 113.05 47.9 109.35 47.1
L 113 57.05 105.2 56.45
M 110.85 39.3
L 112 39.35 146.3 37 111.2 38 110.85 39.3
M 151.25 350.7
L 149 350.5 152.05 348.9 166.9 342.95 168.45 318.85 167.25 316.65 168.35 310.6 167.8 307.5 165.35 303.15 156.95 302.6 164.25 307.5 163.7 340.85 145.85 351.95 151.8 352.7 159.2 352.2 151.25 350.7
M 161.7 353.5
L 161.3 359.05 162.55 360.6 162.45 363.9 164.35 365.35
Q 164.5 364.45 164.7 363.65 166.05 357.65 161.7 353.5
M 158.3 238.6
L 159.05 241.25 156.8 251 158.25 252.4
Q 176.45 256.65 194.75 253.45 196.9 252.95 199.05 252.25 200.95 251.75 202.35 251
L 159.8 248.95 167.4 232.35 158.3 238.6
M 228.6 -25
Q 229.4 -25.75 229.4 -26.85
L 189.25 -38.35 226.65 -24.25
Q 227.8 -24.25 228.6 -25
M 222.05 -81.85
L 233.55 -69.95 233.35 -59.8 231.3 -23.75 222.3 -20 220 -18.6 216.45 -15.75 214.5 34.35 213.05 34.35 195.85 18.65
Q 195.95 15 196.1 11.35 196.5 0.6 201.3 -9 200.8 -8.2 200.35 -7.45 192.75 4.55 194.25 19.15
L 210.25 33.95 208.85 38
Q 202.1 36.35 195.25 36.15 184.6 35.85 174.2 39
L 207.15 42.15 209.8 42 208.7 78.1 212.05 86.05 214.9 87.35 215.7 109.35 215.85 114.2 216.65 136.95 211.4 140.4 208.6 143.7 202.9 145.15
Q 185 133.3 163.2 133.4 162.8 133.4 162.4 133.4
L 161.75 125.4 159.5 111.75 160.05 109.75 158.4 109.7 157.9 112.7 158.1 133.5
Q 137.55 133.95 117.3 137.6
L 113.45 136.1
Q 113.45 133.15 112.15 131 110.85 128.9 109 128.9
L 106.2 128.15 93.05 124.15 92.05 96.85 90.35 94.85 88.75 95.6
Q 86.1 109.65 90.1 123 90.65 124.7 91.25 126.4
L 93.35 127.9 109.2 139.15
Q 104.95 140 100.7 141.05
L 96.6 181.35 102 187.55 90.05 190.5 89.5 215.45
Q 88.1 213.35 86.55 211.3 86.9 209.65 87.25 208.05 89.65 197 85.7 187.05 84.4 183.8 82.4 180.65 82.75 182.45 83.15 184.25 83.45 185.65 83.7 187.05 85.6 198.55 82.95 209.9 66.65 207.45 50.35 205 49.55 204.9 48.8 204.85 45.75 205.25 42.7 205.7
L 82.2 214.8 85 217.8 89.35 220.4 88.9 238.75 88.8 243.35 89.4 243.6 89.3 246 88.5 266 85.65 267.2 82.3 274.4 83.4 307.2 80.75 307.1 47.8 309.95
Q 58.2 312.8 68.85 312.55 75.7 312.35 82.45 310.85
L 83.85 314.55 67.85 328
Q 66.35 341.25 73.95 352.15 74.4 352.85 74.9 353.55 70.1 344.85 69.7 335.05 69.55 331.75 69.45 328.45
L 86.65 314.15 88.1 314.15 90.05 359.7 92.75 361.7 92.5 361.8 83.4 365.45 83.2 373.3 62.85 380.25 83.15 375 81.05 444.15 52.9 455.15 52.85 455.15
Q 52.85 455.1 52.85 455.05
L 47.7 435.2 47.9 446.2 49.3 447.85 50.5 455 42.2 455.75 52.4 460 81.15 444.35 89.4 447 86.3 440
Q 85.3 431.05 84.4 422.05 81.8 396.6 90.7 373 91 372.2 91.35 371.35
L 98 365.9 101.85 304.5 103.35 302.95
Q 103.5 301.8 103.65 300.7 106.6 276.25 102.1 252.1
L 106.85 252.75 134.5 252.05 126.8 250.2 110.25 248.5 109 246.65 91.8 244.3 90.3 244.05 90.3 244 92 241.95
Q 92.6 232.85 93.2 223.75 93.25 223 93.35 222.3 93.95 218.3 96.15 215
L 96.15 214.95 96.2 214.95 101.9 211 93.75 211 93.7 193.25 135.7 183.75 107.9 186.55 100.45 182.5 104.15 147.7
Q 109.45 145.95 114.75 144.2 114.85 144.15 115 144.1 117.2 143.4 119.35 142.65 122.35 141.65 125.3 140.7 129.95 139.15 134.6 137.6 135.4 137.3 136.25 137.05 147.15 136.2 158.1 135.3 159.7 135.2 161.35 135.05
L 162.9 133.9 206.5 148.7
Q 206.55 148.95 206.6 149.15 206.65 149.35 206.7 149.55 206.9 150.25 207.05 150.95 209.8 162.65 210.05 174.5 210.1 176.75 210.05 179 209.95 184.35 209.3 189.75
L 169.05 185.15 208.55 195.15 211.35 198.45 216.65 201.9 215.95 221 215.7 228.5 214.85 251.5 212 252.8 208.65 260.75 209.75 296.85 207.1 296.7 174.25 299.9 191.05 303.6 192.15 316.55 192.95 307.55 191.1 303.6 208.7 300.9 210.2 304.9 194.2 319.35
Q 192.6 334 200.2 346.25 200.7 347 201.25 347.85 196.35 338.45 196 327.5 195.9 323.85 195.8 320.2
L 213 304.5 214.45 304.5 216.4 354.6 219.95 357.45 222.25 358.85 230.9 362.2 233.3 398.6 233.5 408.8 222 420.7 229.9 416.95 233.9 415.35
Q 234.25 416.55 234.65 417.8 237.45 426.45 231.05 432.3
L 216.45 443.35 238.9 428.85
Q 239.2 422.9 239.4 417 240.1 395.8 236.45 375 235.5 369.5 234 364.4 232.9 360.6 230.95 357.35
L 220.7 353.25
Q 223.65 343.15 223.85 332.55 223.95 325.15 222.55 318.2 221.85 314.5 220.8 311 219.95 308.35 218.6 305.9 216.35 301.75 213.85 297.7
L 214.8 274.05 212.9 270.2 216.15 257.4 217.7 256.1
Q 224.35 239.5 223.85 221.3 223.5 208.95 218.4 197.9 217.5 195.95 216.1 194.25 214.75 192.6 212.9 191.3 213.7 188.15 214.3 184.95 214.95 181.7 215.3 178.45 215.55 176.25 215.6 174.15 215.6 173.15 215.5 172.2 214.95 167.95 214.45 163.7 214.95 157.6 213.65 151.15 213.3 149.35 212.95 147.55 234.8 115.75 217.15 80.2 214.5 74.75 212.95 68.65
L 214.85 64.8 213.35 41.5 215.8 40.65
Q 225.15 13.9 220.75 -14.4 239.1 -24.8 239.15 -47.75 239.15 -68.85 238.95 -90
L 215.65 -104 231.1 -93.45
Q 237.3 -87.6 234.7 -79.1 234.3 -77.8 233.95 -76.55
L 229.95 -78.1 222.05 -81.85
M 208.55 149.25
Q 208.95 149.15 209.35 149.1 209.45 149.6 209.55 150.1 209.2 149.8 208.85 149.5 208.7 149.35 208.55 149.25
M 88.45 286.5
L 86.55 283
Q 88.1 277.45 90.75 272.5 96.5 261.95 98.05 251.8 105.45 271.4 100.05 291.95 99.65 293.35 99.2 294.8 98.7 296.3 98.1 297.75 97.55 299.25 96.95 300.8 96.9 300.95 96.85 301.2
L 93.55 302.3 93.35 321.3
Q 91.85 314.8 89.4 308.45
L 86.95 307.65 88.45 286.5
M 178.8 -126.15
L 168.6 -121.45 176.9 -120.65 175.7 -112.75 174.3 -110.95 174.1 -98.85 179.25 -120.7
Q 179.25 -120.75 179.25 -120.8
L 179.3 -120.8 208.95 -108.05 178.8 -126.15
M 91.45 -32.5
L 115.85 -38.1 115.75 -52.35 114.45 -39.45 91.45 -32.5
M 202.15 87.85
Q 199.4 86.4 196.3 85.85 189.45 84.95 182.6 84.65 169.45 83.25 156.85 87.85
L 159.1 97.6 158.35 100.25 167.45 106.5 159.7 88.85 202.15 87.85
M 191.1 35.3
L 193 31.3 192.2 22.3 191.1 35.3
M 161.35 -20.2
L 161.75 -14.65
Q 166.05 -19.55 164.5 -26.1 164.35 -26.85 164.2 -27.65
L 162.5 -25.05 162.6 -21.75 161.35 -20.2
M 152.1 -10.05
L 149.05 -11.65 151.3 -11.85 159.25 -13.35 151.85 -13.85 145.9 -13.1 163.75 -2 164.3 31.35 157.15 36.25 165.4 35.7 167.85 31.35 168.4 28.25 167.3 22.2 168.5 20 166.95 -4.1 152.1 -10.05
M 106.5 -23.45
Q 107.45 -23.85 108.45 -24.15 110.1 -24.75 111.8 -25.3 153.35 -38.75 194.25 -20.9 196.65 -19.9 197.7 -17.45
L 197.65 -20.7 215 -16.4 217.8 -17.5
Q 182.9 -38.2 143.4 -34.3 141 -33.95 138.6 -33.65
L 109 -26.25 104.85 -22.85
Q 105.65 -23.15 106.5 -23.45
M 110.1 -87.55
L 109.85 -87.2 108.05 -82.45 91.5 -104.6
Q 92.7 -96.85 95.85 -90 96.2 -89.15 96.65 -88.3 97.85 -85.9 99.35 -83.6 102.5 -78.7 106.85 -74.65 107.45 -74.05 108.1 -73.5
L 113.25 -61.05 112.1 -88.75 110.1 -87.55
M 155.4 -79.7
L 159 -77.5 166.35 -77 170.7 -78 170.4 -76.6 168.75 -55.1
Q 167.65 -54.7 166.55 -54.35 159.1 -51.4 156.4 -43.2
L 177.95 -41.35
Q 178.85 -43.9 179.1 -46.4 179.25 -48.35 178.45 -50.05 178.3 -50.35 178.2 -50.75 178.05 -51.1 177.9 -51.4 177.5 -52 177.1 -52.7 176.75 -53.15 176.4 -53.65 176.2 -53.9 176.05 -54.1
L 177.25 -43.35 160.95 -45.3 171.4 -51.45 173.55 -79.6 155.4 -79.7
M 34.95 363.75
L 36.2 365.15 36.1 368.15 37.8 370.5
Q 37.95 369.8 38.1 369.1 39.65 363.15 35.35 358.7
L 34.95 363.75
M 42 319.7
L 41.45 316.9 39 312.95 30.75 312.45 37.9 316.9 37.35 347.2 19.5 357.3 25.45 357.95 32.85 357.5 24.9 356.15 22.65 355.95 25.7 354.5 40.55 349.1 42.1 327.2 40.9 325.2 42 319.7
M 66.6 316.95
L 64.7 313.3 65.8 325.1 66.6 316.95
M 31.95 254.3
L 32.7 256.7 30.45 265.55
Q 43.05 269.75 56.2 268.45 63.05 268.2 69.9 267.35 73 266.85 75.75 265.55
L 33.3 264.65 41.05 248.6 31.95 254.3
M 41.7 165.35
L 75.95 171.1
Q 75.25 170.4 74.45 169.9 59.45 159.3 41.7 165.35
M 34.9 82.9
L 33.5 84.2 35.75 93.05 35 95.45 44.1 101.15 36.35 85.1 77.3 83.75
Q 72.05 82.55 66.75 81.95 64.1 81.65 61.45 81.35 48.1 80.5 34.9 82.9
M 28.5 -8.2
L 22.55 -7.55 40.4 2.55 40.95 32.85 31.3 37.45 42.05 36.8 44.5 32.85 45.05 30.05 43.95 24.55 45.15 22.55 43.6 0.65 28.75 -4.75 25.7 -6.2 27.95 -6.4 35.9 -7.75 28.5 -8.2
M 39.25 -15.4
L 38 -14 38.4 -8.95
Q 41.6 -10.7 41.35 -14.3 41.1 -17.5 40.85 -20.75
L 39.15 -18.4 39.25 -15.4
M 43 -65.6
L 47.35 -66.5 47.05 -65.25 45.4 -45.7
Q 44.3 -45.35 43.2 -45 36 -42.05 33.05 -34.9
L 54.6 -33.2 55.05 -41.6 53.15 -45.1 50.65 -44.65 53.9 -35 37.6 -36.8 48.05 -42.4
Q 51.45 -52.35 51.95 -62.8 52.1 -65.8 50.2 -68
L 32.05 -68.05 35.65 -66.05 43 -65.6
M 27.25 -35.3
Q 25.85 -35.65 24.45 -36 23.75 -36 23.05 -36 12.85 -36 3.2 -32.5
L -7.9 -47.2 0.8 -32.65 2.25 -30.95 27.25 -35.3
M 150.6 -43.65
Q 149.9 -43.9 149.25 -44.15 148.55 -44.15 147.85 -44.15 137 -44.25 126.55 -40.55
L 115.45 -56.75 124.15 -40.75 125.6 -38.85 150.6 -43.65
M 86.35 -101.15
L 91.3 -108.6 81.1 -105.45 81.4 -98.05
Q 68.7 -104.7 55.45 -110.25
L 45.25 -106 53.55 -105.25 52.35 -98.1 50.95 -96.45 50.75 -85.45 55.9 -105.3
Q 55.9 -105.35 55.9 -105.4
L 55.95 -105.4
Q 68.5 -103.15 79.85 -98 80.65 -97.65 81.4 -97.25
L 84 -27.1 89 -24.7 64.9 -31.25
Q 66.2 -30.45 67.6 -29.8 79.85 -23.5 93.05 -19.95
L 93.1 -12.3
Q 65.1 -28.3 32.75 -28.8 31.4 -28.8 30.05 -28.8
L -14.35 -19.5 -18.5 -16.4
Q 25.75 -32.25 68.8 -13.75 71.35 -12.6 73.9 -11.45
L 74.3 -14.45 91.65 -10.55 93.15 -11.05 93.15 -9.95 93.1 -9.95 91.15 35.6 89.7 35.6 72.5 21.3 77.25 -2.2
Q 76.6 -0.8 76 0.55 75.35 1.9 74.75 3.25 70.6 12.5 71.2 22.85
L 86.9 35.2 85.3 38.85 67.8 36.35 69.65 32.8 68.85 24.65 67.75 36.35 51.2 39.6 83.8 42.65 86.45 42.55 85.35 75.35 88.7 82.55 91.55 83.75 91.95 93.35 90.7 94.5 90.35 94.8 91.85 94.55 109.05 92.2 110.3 90.35 126.85 88.6 134.55 86.8 106.9 86.1 102.15 86.75 105.2 56.45 99.2 -13.9 99.2 -14 98.05 -27.05 91.45 -32.5
Q 83.1 -56.75 84.95 -82.5 85.4 -88.75 85.9 -95 85.9 -95.3 85.95 -95.6 86.15 -98.4 86.35 -101.15
M 95.35 37.75
L 100.6 41.35 97.75 88 94.9 90.65
Q 94.3 79.75 91.25 68.95 91.1 68.45 90.85 68
L 90 42.1 95 39.6
Q 95.15 38.65 95.35 37.75
M 117.75 -115
Q 108.25 -112.85 98.75 -110.8
L 100.2 -110.85 159.45 -119.95
Q 138.35 -119.75 117.75 -115 Z"/>

<path fill="#564A44" stroke="none" d="
M -30.95 439.7
Q -30.75 438.95 -30.5 438.25 -26.65 428.3 -17.8 422.8
L -16.55 424.6 -18.35 420.3 -34.9 440.45
Q -33.15 430 -27.05 421.35 -23.45 416.25 -18.3 412.15
L -35.4 423.35 -40.05 437.3 -35.1 444.05 -27.65 446.05 -26.2 446.1 -30.95 439.7
M -10.65 398.4
L -13.15 400.85 -14.3 426.05 -16.3 424.95 -8.4 436.25 -10.65 398.4
M -20.2 228.95
L -33.35 232.55 -34.35 257.35 -36.05 259.2 -36.05 259.25 -34.55 259.45 -30.2 232.8 -20.2 228.95
M -17.4 228.25
Q -15.55 228.9 -13.5 229.25 -5 230.15 0.9 223.95 -0.05 224.2 -1 224.5 -7.75 226.5 -12.95 221.7 -12.95 224.4 -14.25 226.35 -15.55 228.25 -17.4 228.25
M -27.05 116.95
L -21.7 120.55 -18.75 120.55 -27.05 116.95
M -33 90.5
L -33 90.55 -31.3 92.4 -30.05 99.25 -31.5 90.3 -33 90.5
M -23.15 -96.35
L -24.5 -96.35 -32.05 -94.3 -37 -87.55 -32.4 -73.6 -15.2 -62.35 -29.5 -73 -31.85 -90.7 -25.6 -74.75 -15.65 -70.6 -13.5 -74.85 -14.75 -73.05
Q -23.5 -78.9 -27.3 -88.6 -27.6 -89.4 -27.85 -90.2
L -23.15 -96.35
M -5.35 -86.5
L -13.25 -75.2 -11.25 -76.3 -10.1 -51.1 -7.65 -48.65 -5.35 -86.5
M 44.3 416.25
L 44 415 39.95 415.35 44.3 416.25
M 115.6 397.2
L 113.2 399.85 112.05 427.6 110.05 426.4 117.95 438.85 115.6 397.2
M 102.75 417.95
Q 103.55 416.95 104.4 416.05 106.1 414.2 108 412.5
L 90.9 424.65 86.3 440 89.4 447 98 449.55 100.15 449.7 96.2 441.1
Q 96.4 440.35 96.65 439.6 97.6 436.95 98.9 434.65 99.2 434.05 99.55 433.5 101.55 430.2 104.25 427.55 106.2 425.6 108.55 424.05
L 109.8 426 108 421.3 91.45 443.45
Q 91.9 440.7 92.6 438.1 92.6 437.95 92.65 437.8 95.65 426.5 102.75 417.95
M 170.35 415.45
L 166.3 415.85 170.65 416.85 170.35 415.45
M 153.95 375.25
Q 152.5 375.05 151.1 374.9
L 177.9 380.2
Q 180.6 384.35 177.65 388.4 177.2 388.95 176.8 389.5
L 176.25 393.45 174.6 392.2 177.2 382.15 160.9 384 171.35 390.3
Q 175.85 404.1 173.5 418.5
L 155.35 418.55 158.95 416.35 148.3 420.45 173.1 422.1 174.05 437.7 179.2 459.55 179.25 459.65 207.1 449.25 216.45 443.35 231.05 432.3 229 417.95 229.9 416.95 222 420.7 233.5 408.8 233.3 398.6 229.35 365.7 188.2 378.05
Q 189 377.5 189.8 377 207 366.3 226.6 363.1
L 222.25 358.85 219.95 357.45 217.75 356.35
Q 188.9 377.65 153.95 375.25
M 17 376.55
Q 14.6 376.25 12.2 375.95
L 51.55 382.95
Q 52.45 385.25 52.7 387.55 52.85 389.3 52.05 390.85 51.9 391.15 51.8 391.5 51.65 391.8 51.5 392.1 51.1 392.65 50.7 393.25 50.35 393.7 50 394.15 49.8 394.35 49.65 394.55
L 50.85 384.75 34.55 386.55 45 392.15 47.15 417.7 29 417.8 32.6 415.8 21.95 419.55 46.75 421.05 47.7 435.2 52.85 455.05 52.9 455.15 81.05 444.15 83.15 375 62.85 380.25 83.2 373.3 83.4 365.45 92.5 361.8 91.4 361.3
Q 56.5 380.1 17 376.55
M 18 243.2
L 15.3 242.9 5.3 248.1 9.4 248.65 18 243.2
M 96.15 215
Q 93.95 218.3 93.35 222.3 93.25 223 93.2 223.75 92.6 232.85 92 241.95
L 90.3 244 90.3 244.05 91.8 244.3 96.15 215
M 104.55 211
L 101.9 211 96.2 214.95 104.55 211
M 125.4 133
Q 126.35 133.35 127.3 133.65 121.4 126.8 112.9 127.8 110.85 128.2 109 128.9 110.85 128.9 112.15 131 113.45 133.15 113.45 136.1 118.65 130.8 125.4 133
M 8.35 101.65
L 18.35 106.85 21.05 106.55 12.45 101.1 8.35 101.65
M 131.7 107.05
L 141.7 112.8 144.4 112.45 135.8 106.45 131.7 107.05
M 166.05 191
L 166.15 191.05 162.7 200.6 161.7 213.45 160.85 227.95 159.45 227.1 160 229.1 158.35 229.15 157.85 226.1 141.8 218.9
Q 146.45 228.7 156.05 231.9 156.5 232 156.95 232.2 157.35 232.45 157.75 232.75
L 139.25 250.4 126.8 250.2 134.5 252.05 106.85 252.75
Q 127.4 278.75 158.45 284.05 160.95 284.35 163.45 284.65
L 164.6 296.85 114.95 299.7 132.55 301 110.9 299.9 106.3 300.45
Q 126.25 309.2 147.8 307.35 139.95 328.75 126.65 347 122.9 352.2 120.6 358.1
L 101.05 361.35 108.95 365.1 104.8 361.7
Q 149.1 376.6 193 360.45 195.8 359.4 197.2 356.6
L 197.6 359.55 214.95 355.25 213 304.5 195.8 320.2
Q 195.9 323.85 196 327.5 196.35 338.45 201.25 347.85 200.7 347 200.2 346.25 192.6 334 194.2 319.35
L 210.2 304.9 208.7 300.9 191.1 303.6 192.95 307.55 192.15 316.55 191.05 303.6 174.25 299.9 207.1 296.7 205.2 262.45 208.65 260.75 212 252.8 215.7 228.5 215.95 221 211.35 198.45 208.55 195.15 169.05 185.15 209.3 189.75 204.85 186.25 206.5 148.7 162.9 133.9 161.35 135.05 159.9 174.55 181.75 183.7 159.05 184.6 166.05 191
M 159.05 241.25
L 158.3 238.6 167.4 232.35 159.8 248.95 202.35 251
Q 200.95 251.75 199.05 252.25 196.9 252.95 194.75 253.45 176.45 256.65 158.25 252.4
L 156.8 251 143.8 249.35
Q 144.7 248.45 145.65 247.7 151.7 242.5 159.05 241.25
M 144.15 321.8
L 149.55 307.35 164.25 307.5 156.95 302.6 165.35 303.15 167.8 307.5 169.05 307.5 168.35 310.6 167.25 316.65 168.45 318.85 166.9 342.95 152.05 348.9 151.25 350.7 159.2 352.2 151.8 352.7 161.7 353.5
Q 166.05 357.65 164.7 363.65 164.5 364.45 164.35 365.35
L 162.45 363.9 133.25 360.25 143.4 352.25 128.55 358.85
Q 128.3 338.75 143.65 326.3 152.7 318.95 162.3 312.35
L 144.15 321.8
M 131.65 231.8
L 135.75 232.4 144.35 226.4 141.65 226.05 131.65 231.8
M 170.4 -76.6
L 170.7 -78 166.35 -77 170.4 -76.6
M 86.55 283
L 88.45 286.5 86.95 307.65 89.4 308.45
Q 91.85 314.8 93.35 321.3
L 93.55 302.3 96.85 301.2
Q 96.9 300.95 96.95 300.8 97.55 299.25 98.1 297.75 98.7 296.3 99.2 294.8 99.65 293.35 100.05 291.95 105.45 271.4 98.05 251.8 96.5 261.95 90.75 272.5 88.1 277.45 86.55 283
M 209.35 149.1
Q 208.95 149.15 208.55 149.25 208.7 149.35 208.85 149.5
L 209.35 149.1
M 108.45 -24.15
Q 107.45 -23.85 106.5 -23.45 105.65 -23.15 104.85 -22.85
L 109 -26.25 100.85 -22 120.65 -19.3 123.55 -2.2
Q 126.55 0.15 129.5 2.5 143.05 13.6 147.85 31.5 146.35 31.1 144.85 30.7 124.1 25.05 106.9 39.15
L 110.85 39.3 111.2 38 146.3 37 112 39.35 164.65 42 164.6 53.75 107.7 82.95 106.9 86.1 134.55 86.8 126.85 88.6 139.3 88.45 157.75 106.05
Q 156.5 106.6 155.3 107.15 154 107.65 152.7 108.15 144.85 111.05 141.65 119.25
L 157.9 112.7 158.4 109.7 160.05 109.75 159.5 111.75 160.9 110.9 161.75 125.4 162.4 133.4
Q 162.8 133.4 163.2 133.4 185 133.3 202.9 145.15
L 208.6 143.7 211.4 140.4 215.85 114.2 215.7 109.35 212.05 86.05 208.7 78.1 205.25 76.4
Q 202.85 59.95 206.75 43.7 206.95 42.95 207.15 42.15
L 174.2 39
Q 184.6 35.85 195.25 36.15 202.1 36.35 208.85 38
L 210.25 33.95 194.25 19.15
Q 192.75 4.55 200.35 -7.45 200.8 -8.2 201.3 -9 196.5 0.6 196.1 11.35 195.95 15 195.85 18.65
L 213.05 34.35 215 -16.4 197.65 -20.7 197.7 -17.45
Q 196.65 -19.9 194.25 -20.9 153.35 -38.75 111.8 -25.3 110.1 -24.75 108.45 -24.15
M 161.75 -14.65
L 151.85 -13.85 159.25 -13.35 151.3 -11.85 152.1 -10.05 166.95 -4.1 168.5 20 167.3 22.2 168.4 28.25 169.1 31.35 167.85 31.35 165.4 35.7 157.15 36.25 164.3 31.35 149.6 31.5 144.25 17.1 162.35 26.5
Q 148.9 15.35 136.6 2.75 127.5 -6.6 128.95 -20.25
L 143.45 -13.4 133.3 -21.45 162.5 -25.05 164.2 -27.65
Q 164.35 -26.85 164.5 -26.1 166.05 -19.55 161.75 -14.65
M 193 31.3
L 191.1 35.3 192.2 22.3 193 31.3
M 196.3 85.85
Q 199.4 86.4 202.15 87.85
L 159.7 88.85 167.45 106.5 158.35 100.25 159.1 97.6
Q 151.6 96.2 145.65 91.2 144.7 90.4 143.8 89.5
L 156.85 87.85
Q 169.45 83.25 182.6 84.65 189.45 84.95 196.3 85.85
M 110.1 -87.55
L 112.1 -88.75 113.25 -61.05 115.75 -58.35 118 -100 110.1 -87.55
M 159 -77.5
L 155.4 -79.7 173.55 -79.6 171.4 -51.45 160.95 -45.3 177.25 -43.35 176.05 -54.1
Q 176.2 -53.9 176.4 -53.65 176.75 -53.15 177.1 -52.7 177.5 -52 177.9 -51.4 178.05 -51.1 178.2 -50.75 178.3 -50.35 178.45 -50.05 179.25 -48.35 179.1 -46.4 178.85 -43.9 177.95 -41.35
L 138.6 -33.65
Q 141 -33.95 143.4 -34.3 182.9 -38.2 217.8 -17.5
L 220 -18.6 222.3 -20 226.65 -24.25 189.25 -38.35 229.4 -26.85 233.35 -59.8 233.55 -69.95 222.05 -81.85 229.95 -78.1 229.05 -79.1 231.1 -93.45 215.65 -104 208.95 -108.05 179.3 -120.8 179.25 -120.7 174.1 -98.85 173.15 -83.25 148.35 -81.6 159 -77.5
M 74.3 -14.45
L 73.9 -11.45
Q 71.35 -12.6 68.8 -13.75 25.75 -32.25 -18.5 -16.4
L -14.35 -19.5 -22.15 -16.65 -22.6 -14.4 -2.7 -13.15
Q 1.75 -8.05 5.6 -2.55 17.15 14.1 24.5 33 2.85 30.1 -17 39.25
L -12.4 39.75
Q 5.45 33.85 23.85 36.95 25.95 37.45 28.15 37.65
L -8.35 39.95 41.3 42.55 41.25 53.2
Q 38.65 53.55 36.05 53.85 4.6 58.8 -16.45 82.6
L 11.2 83.25 3.5 84.9 15.95 84.75 34.35 100.85
Q 34.05 101.1 33.8 101.3 33.4 101.5 33 101.7 23.5 103.2 19 111.7
L 34.55 106.8 35.05 104.05 36.7 104.1 36.15 105.9 37.55 105.15 38.4 118.3 39.4 130 42.85 138.65 35.75 144.55 58.45 145.35 36.6 153.65 37.15 166.6 41.55 165.35
Q 40.7 171.35 37.5 175.3 34 179.45 27.85 181.3 27.1 181.55 26.35 181.8
L 24.7 191.45 29.8 199.35 32.25 205.85 39.8 211.1 36.35 219.75 35.35 231.45 34.5 244.6 33.1 243.85 33.65 245.65 32 245.7 31.5 242.95 15.25 237
Q 18.45 244.45 26.3 247.1 27.6 247.55 28.9 248 30.1 248.5 31.35 249
L 12.9 265 0.45 264.85 8.15 266.5 -19.5 267.15 -18.7 270 38.2 296.55 38.25 307.2 -14.4 309.6 19.9 311.75 -15.2 310.85 -15.55 309.65 -19.5 309.8
Q -2.3 322.6 18.45 317.5 19.95 317.1 21.45 316.75 16.65 333 3.1 343.1 0.15 345.25 -2.85 347.4
L -5.75 362.9 -25.55 365.35 -17.4 369.25 -21.55 366.15
Q 23.5 381.95 67.85 364.35 70.25 363.45 71.3 361.25
L 71.25 364.2 88.6 360.3 86.65 314.15 69.45 328.45
Q 69.55 331.75 69.7 335.05 70.1 344.85 74.9 353.55 74.4 352.85 73.95 352.15 66.35 341.25 67.85 328
L 83.85 314.55 82.45 310.85
Q 75.7 312.35 68.85 312.55 58.2 312.8 47.8 309.95
L 80.75 307.1
Q 80.55 306.35 80.35 305.65 76.45 290.9 78.85 275.95
L 82.3 274.4 85.65 267.2 89.3 246 89.4 243.6 88.8 243.35 88.9 238.75 85 217.8 82.2 214.8 42.7 205.7
Q 45.75 205.25 48.8 204.85 49.55 204.9 50.35 205 66.65 207.45 82.95 209.9
L 79.45 207.35 80.15 172.6 82.4 180.65
Q 84.4 183.8 85.7 187.05 89.65 197 87.25 208.05 86.9 209.65 86.55 211.3 88.1 213.35 89.5 215.45
L 90.05 190.5 102 187.55 96.6 181.35 100.7 141.05
Q 104.95 140 109.2 139.15
L 93.35 127.9 93.35 128.8 90.95 130.2
Q 90.7 131.4 90.85 132.55 93 151.8 85 169.15
L 84.8 175.2 83.2 177.15 82.35 142.35 86 139.85
Q 68.45 143.65 50.35 144.5 49.2 144.5 48.05 144.45 46.9 144.25 45.75 144.05
L 85.25 134.95 88.05 131.95 90.1 123
Q 86.1 109.65 88.75 95.6
L 90.35 94.85 92.05 96.85 93.05 124.15 106.2 128.15 96.2 123.9 91.85 94.55 90.35 94.8 90.7 94.5 88.7 82.55 85.35 75.35 81.9 73.8 83.8 42.65 51.2 39.6 67.75 36.35 68.85 24.65 69.65 32.8 67.8 36.35 85.3 38.85 86.9 35.2 71.2 22.85
Q 70.6 12.5 74.75 3.25 75.35 1.9 76 0.55 76.6 -0.8 77.25 -2.2
L 72.5 21.3 89.7 35.6 91.65 -10.55 74.3 -14.45
M 5.6 -14.05
L 20.1 -7.8 9.95 -15.1 39.15 -18.4 40.85 -20.75
Q 41.1 -17.5 41.35 -14.3 41.6 -10.7 38.4 -8.95
L 28.5 -8.2 35.9 -7.75 27.95 -6.4 28.75 -4.75 43.6 0.65 45.15 22.55 43.95 24.55 45.05 30.05 45.75 32.85 44.5 32.85 42.05 36.8 31.3 37.45 40.95 32.85 26.25 33 20.95 19.9 39 28.45
Q 26.8 20.1 16.4 10.4 5.8 0.55 5.6 -14.05
M 35.75 93.05
L 20.55 85.7 33.5 84.2 34.9 82.9
Q 48.1 80.5 61.45 81.35 64.1 81.65 66.75 81.95 72.05 82.55 77.3 83.75
L 36.35 85.1 44.1 101.15 35 95.45 35.75 93.05
M 75.95 171.1
L 41.7 165.35
Q 59.45 159.3 74.45 169.9 75.25 170.4 75.95 171.1
M 32.7 256.7
L 31.95 254.3 41.05 248.6 33.3 264.65 75.75 265.55
Q 73 266.85 69.9 267.35 63.05 268.2 56.2 268.45 43.05 269.75 30.45 265.55
L 17.4 264.05
Q 18.3 263.25 19.25 262.5 25.2 257.95 32.7 256.7
M 64.7 313.3
L 66.6 316.95 65.8 325.1 64.7 313.3
M 42.7 316.9
L 42 319.7 40.9 325.2 42.1 327.2 40.55 349.1 25.7 354.5 24.9 356.15 32.85 357.5 25.45 357.95 35.35 358.7
Q 39.65 363.15 38.1 369.1 37.95 369.8 37.8 370.5
L 36.1 368.15 6.9 364.85 17.05 357.55 2.55 363.8
Q 1.1 351.4 10.2 342.9 22.5 331.45 35.95 321.3
L 17.85 329.85 23.2 316.75 37.9 316.9 30.75 312.45 39 312.95 41.45 316.9 42.7 316.9
M 47.35 -66.5
L 43 -65.6 47.05 -65.25 47.35 -66.5
M 55.95 -105.4
L 55.9 -105.3 50.75 -85.45 49.8 -71.3 25 -69.8 35.65 -66.05 32.05 -68.05 50.2 -68
Q 52.1 -65.8 51.95 -62.8 51.45 -52.35 48.05 -42.4
L 37.6 -36.8 53.9 -35 50.65 -44.65 53.15 -45.1 55.05 -41.6 54.6 -33.2 30.05 -28.8
Q 31.4 -28.8 32.75 -28.8 65.1 -28.3 93.1 -12.3
L 93.05 -19.95
Q 79.85 -23.5 67.6 -29.8 66.2 -30.45 64.9 -31.25
L 89 -24.7 84 -27.1 81.4 -97.25
Q 80.65 -97.65 79.85 -98 68.5 -103.15 55.95 -105.4
M 91.3 -108.6
L 86.35 -101.15 91 -85.8 108.1 -73.5
Q 107.45 -74.05 106.85 -74.65 102.5 -78.7 99.35 -83.6 97.85 -85.9 96.65 -88.3 96.2 -89.15 95.85 -90 92.7 -96.85 91.5 -104.6
L 108.05 -82.45 109.85 -87.2 108.6 -85.2
Q 99.75 -91.25 95.9 -102.2 95.65 -102.95 95.45 -103.8
L 100.2 -110.85 98.75 -110.8 91.3 -108.6
M 100.6 41.35
L 95.35 37.75
Q 95.15 38.65 95 39.6
L 90 42.1 90.85 68
Q 91.1 68.45 91.25 68.95 94.3 79.75 94.9 90.65
L 97.75 88 100.6 41.35 Z"/>

<path fill="#837A75" stroke="none" d="
M 229.9 416.95
L 229 417.95 231.05 432.3
Q 237.45 426.45 234.65 417.8 234.25 416.55 233.9 415.35
L 229.9 416.95
M 226.6 363.1
Q 227.75 363.1 228.55 363.85 229.35 364.6 229.35 365.7
L 233.3 398.6 230.9 362.2 222.25 358.85 226.6 363.1
M 214.45 304.5
L 213 304.5 214.95 355.25 217.75 356.35 219.95 357.45 216.4 354.6 214.45 304.5
M 212 252.8
L 214.85 251.5 215.7 228.5 212 252.8
M 208.65 260.75
L 205.2 262.45 207.1 296.7 209.75 296.85 208.65 260.75
M 216.65 201.9
L 211.35 198.45 215.95 221 216.65 201.9
M 88.1 314.15
L 86.65 314.15 88.6 360.3 91.4 361.3 92.5 361.8 92.75 361.7 90.05 359.7 88.1 314.15
M 3.1 343.1
Q 16.65 333 21.45 316.75 19.95 317.1 18.45 317.5 -2.3 322.6 -19.5 309.8
L -15.55 309.65 -14.4 309.6 38.25 307.2 38.2 296.55 -18.7 270 -19.5 267.15 -24.25 266.55 -21.2 294.1 -13.5 291.7 -10.85 292.6
Q -10.8 295.45 -11.9 298.2 -13.35 301.85 -17.05 302.6
L -13.4 293.55 -21.2 294.1 -28.35 369.95 -34.95 374.9 -10.55 380 -10.65 392.95 -11.95 381.25 -34.95 374.9
Q -43.3 396.95 -41.45 420.35 -40.8 428.8 -40.05 437.3
L -35.4 423.35 -18.3 412.15 -13.15 400.85 -10.65 398.4 -8.4 436.25 -16.3 424.95 -16.55 424.6 -17.8 422.8
Q -26.65 428.3 -30.5 438.25 -30.75 438.95 -30.95 439.7
L -26.2 446.1 33.05 454.4 42.2 455.75 50.5 455 49.3 447.85 47.9 446.2 47.7 435.2 46.75 421.05 21.95 419.55 32.6 415.8 39.95 415.35 44 415 42.35 395.45
Q 41.25 395.1 40.15 394.75 32.7 392.1 30 384.65
L 51.55 382.95 12.2 375.95 -17.4 369.25 -25.55 365.35 -5.75 362.9 -2.85 347.4
Q 0.15 345.25 3.1 343.1
M 24.2 385.05
Q 23.5 385.25 22.85 385.5 22.15 385.5 21.45 385.5 10.6 385.6 0.15 382.25
L -10.95 396.95 -2.25 382.4 -0.8 380.7 24.2 385.05
M 80.35 305.65
Q 80.55 306.35 80.75 307.1
L 83.4 307.2 82.3 274.4 78.85 275.95
Q 76.45 290.9 80.35 305.65
M 34.5 244.6
L 35.35 231.45 33.1 243.85 34.5 244.6
M 31.75 215.7
L 35.55 214.95 36.35 219.75 39.8 211.1 32.25 205.85 -12.95 221.7
Q -7.75 226.5 -1 224.5 -0.05 224.2 0.9 223.95 -5 230.15 -13.5 229.25 -15.55 228.9 -17.4 228.25
L -20.2 228.95 -30.2 232.8 -34.55 259.45 -17.35 261.6 -16.1 263.3 0.45 264.85 12.9 265 31.35 249
Q 30.1 248.5 28.9 248 27.6 247.55 26.3 247.1 18.45 244.45 15.25 237
L 31.5 242.95 31.75 215.7
M 15.3 242.9
L 18 243.2 9.4 248.65 5.3 248.1 15.3 242.9
M 85.65 267.2
L 88.5 266 89.3 246 85.65 267.2
M 106.85 252.75
L 102.1 252.1
Q 106.6 276.25 103.65 300.7 103.5 301.8 103.35 302.95
L 101.85 304.5 98 365.9 91.35 371.35 115.8 376.95 115.7 391.2 114.4 378.3 91.35 371.35
Q 91 372.2 90.7 373 81.8 396.6 84.4 422.05 85.3 431.05 86.3 440
L 90.9 424.65 108 412.5 113.2 399.85 115.6 397.2 117.95 438.85 110.05 426.4 109.8 426 108.55 424.05
Q 106.2 425.6 104.25 427.55 101.55 430.2 99.55 433.5 99.2 434.05 98.9 434.65 97.6 436.95 96.65 439.6 96.4 440.35 96.2 441.1
L 100.15 449.7 159.4 458.8 168.55 460.3 176.85 459.5 175.65 451.6 174.25 449.8 174.05 437.7 173.1 422.1 148.3 420.45 158.95 416.35 166.3 415.85 170.35 415.45 168.7 393.95
Q 167.6 393.5 166.5 393.05 159.45 389.85 156.35 382.05
L 177.9 380.2 151.1 374.9 108.95 365.1 101.05 361.35 120.6 358.1
Q 122.9 352.2 126.65 347 139.95 328.75 147.8 307.35 126.25 309.2 106.3 300.45
L 110.9 299.9 114.95 299.7 164.6 296.85 163.45 284.65
Q 160.95 284.35 158.45 284.05 127.4 278.75 106.85 252.75
M 106.95 291.9
L 112.95 281.8 105.15 282.4 112.85 279.75 115.5 280.75
Q 115.35 281.8 115.25 282.9 115.2 283.35 115.25 283.8 115.4 286.7 113.85 288.9 111.2 292.55 106.95 291.9
M 124.1 379.6
L 125.55 377.7 150.55 382.5
Q 149.85 382.7 149.2 383 148.5 383.1 147.8 383.25 136.95 382.7 126.5 379.4
L 115.4 395.6 124.1 379.6
M 89.35 220.4
L 85 217.8 88.9 238.75 89.35 220.4
M 159.45 227.1
L 160.85 227.95 161.7 213.45 159.45 227.1
M 83.15 184.25
Q 82.75 182.45 82.4 180.65
L 80.15 172.6 79.45 207.35 82.95 209.9
Q 85.6 198.55 83.7 187.05 83.45 185.65 83.15 184.25
M 86 139.85
L 82.35 142.35 83.2 177.15 84.8 175.2 85 169.15 86 139.85
M 93.35 128.8
L 93.35 127.9 91.25 126.4
Q 90.65 124.7 90.1 123
L 88.05 131.95 90.95 130.2 93.35 128.8
M 160.9 110.9
L 159.5 111.75 161.75 125.4 160.9 110.9
M 11.9 190
Q 10.65 191.65 9.65 193.4 7.8 196.55 6.7 200.1
L -12.2 215.05 -13.3 216.45
Q 5.7 215.05 21.9 205.45 22.95 204.75 24.05 204.1
L 7.85 202.15 22.65 198.7 23.55 193.65 29.8 199.35 24.7 191.45 22.3 193.95 21.35 181.75
Q 18.65 183.25 16.4 185.2 15.35 186.1 14.4 187.05 13.05 188.45 11.9 190
M 37.55 105.15
L 36.15 105.9 38.4 118.3 37.55 105.15
M 15.95 84.75
L 3.5 84.9 -13.05 86.45 -14.3 88.15 -31.5 90.3 -30.05 99.25 -27.15 116.85 -27.05 116.95 -18.75 120.55 -21.7 120.55 -29.55 120.55 -29.6 136.65 13.2 144.25 11.95 145.3 -15.4 142.75 -22.85 146.45 -19.15 178.05 11.5 184.25 19 174.45 18.8 177.7 33.45 171.8 34.15 167.45 37.15 166.6 36.6 153.65 58.45 145.35 35.75 144.55 42.85 138.65 39.4 130 38.7 131.75 39.2 133.5 36.95 135.2 35.75 120.55 34.8 119.65 34.55 106.8 19 111.7
Q 23.5 103.2 33 101.7 33.4 101.5 33.8 101.3 34.05 101.1 34.35 100.85
L 15.95 84.75
M 18.35 106.85
L 8.35 101.65 12.45 101.1 21.05 106.55 18.35 106.85
M 110.3 90.35
L 109.05 92.2 91.85 94.55 96.2 123.9 106.2 128.15 109 128.9
Q 110.85 128.2 112.9 127.8 121.4 126.8 127.3 133.65 126.35 133.35 125.4 133 118.65 130.8 113.45 136.1
L 117.3 137.6
Q 137.55 133.95 158.1 133.5
L 157.9 112.7 141.65 119.25
Q 144.85 111.05 152.7 108.15 154 107.65 155.3 107.15 156.5 106.6 157.75 106.05
L 139.3 88.45 126.85 88.6 110.3 90.35
M 141.7 112.8
L 131.7 107.05 135.8 106.45 144.4 112.45 141.7 112.8
M 90.7 94.5
L 91.95 93.35 91.55 83.75 88.7 82.55 90.7 94.5
M 86.45 42.55
L 83.8 42.65 81.9 73.8 85.35 75.35 86.45 42.55
M 206.7 149.55
Q 206.65 149.35 206.6 149.15 206.55 148.95 206.5 148.7
L 204.85 186.25 209.3 189.75
Q 209.95 184.35 210.05 179 210.1 176.75 210.05 174.5 209.8 162.65 207.05 150.95 206.9 150.25 206.7 149.55
M 167.8 307.5
L 168.35 310.6 169.05 307.5 167.8 307.5
M 149 350.5
L 151.25 350.7 152.05 348.9 149 350.5
M 149.55 307.35
L 144.15 321.8 162.3 312.35
Q 152.7 318.95 143.65 326.3 128.3 338.75 128.55 358.85
L 143.4 352.25 133.25 360.25 162.45 363.9 162.55 360.6 161.3 359.05 161.7 353.5 151.8 352.7 145.85 351.95 163.7 340.85 164.25 307.5 149.55 307.35
M 143.8 249.35
L 156.8 251 159.05 241.25
Q 151.7 242.5 145.65 247.7 144.7 248.45 143.8 249.35
M 166.15 191.05
L 166.05 191 159.05 184.6 181.75 183.7 159.9 174.55 161.35 135.05
Q 159.7 135.2 158.1 135.3 147.15 136.2 136.25 137.05 135.4 137.3 134.6 137.6 129.95 139.15 125.3 140.7 122.35 141.65 119.35 142.65 117.2 143.4 115 144.1 114.85 144.15 114.75 144.2 109.45 145.95 104.15 147.7
L 100.45 182.5 107.9 186.55 135.7 183.75 93.7 193.25 93.75 211 101.9 211 104.55 211 96.2 214.95 96.15 214.95 96.15 215 91.8 244.3 109 246.65 110.25 248.5 126.8 250.2 139.25 250.4 157.75 232.75
Q 157.35 232.45 156.95 232.2 156.5 232 156.05 231.9 146.45 228.7 141.8 218.9
L 157.85 226.1 158.1 212 159.05 211 160.25 194.85 162.5 196.75 162 198.65 162.7 200.6 166.15 191.05
M 135.75 232.4
L 131.65 231.8 141.65 226.05 144.35 226.4 135.75 232.4
M 216.65 136.95
L 215.85 114.2 211.4 140.4 216.65 136.95
M 214.9 87.35
L 212.05 86.05 215.7 109.35 214.9 87.35
M 207.15 42.15
Q 206.95 42.95 206.75 43.7 202.85 59.95 205.25 76.4
L 208.7 78.1 209.8 42 207.15 42.15
M 216.45 -15.75
L 220 -18.6 217.8 -17.5 215 -16.4 213.05 34.35 214.5 34.35 216.45 -15.75
M 229.4 -26.85
Q 229.4 -25.75 228.6 -25 227.8 -24.25 226.65 -24.25
L 222.3 -20 231.3 -23.75 233.35 -59.8 229.4 -26.85
M 231.1 -93.45
L 229.05 -79.1 229.95 -78.1 233.95 -76.55
Q 234.3 -77.8 234.7 -79.1 237.3 -87.6 231.1 -93.45
M 209.55 150.1
Q 209.45 149.6 209.35 149.1
L 208.85 149.5
Q 209.2 149.8 209.55 150.1
M 145.65 91.2
Q 151.6 96.2 159.1 97.6
L 156.85 87.85 143.8 89.5
Q 144.7 90.4 145.65 91.2
M 167.85 31.35
L 169.1 31.35 168.4 28.25 167.85 31.35
M 151.85 -13.85
L 161.75 -14.65 161.35 -20.2 162.6 -21.75 162.5 -25.05 133.3 -21.45 143.45 -13.4 128.95 -20.25
Q 127.5 -6.6 136.6 2.75 148.9 15.35 162.35 26.5
L 144.25 17.1 149.6 31.5 164.3 31.35 163.75 -2 145.9 -13.1 151.85 -13.85
M 149.05 -11.65
L 152.1 -10.05 151.3 -11.85 149.05 -11.65
M 93.15 -9.95
L 93.15 -11.05 91.65 -10.55 89.7 35.6 91.15 35.6 93.1 -9.95 93.15 -9.95
M 25.7 354.5
L 22.65 355.95 24.9 356.15 25.7 354.5
M 35.95 321.3
Q 22.5 331.45 10.2 342.9 1.1 351.4 2.55 363.8
L 17.05 357.55 6.9 364.85 36.1 368.15 36.2 365.15 34.95 363.75 35.35 358.7 25.45 357.95 19.5 357.3 37.35 347.2 37.9 316.9 23.2 316.75 17.85 329.85 35.95 321.3
M 42 319.7
L 42.7 316.9 41.45 316.9 42 319.7
M 30.45 265.55
L 32.7 256.7
Q 25.2 257.95 19.25 262.5 18.3 263.25 17.4 264.05
L 30.45 265.55
M 20.55 85.7
L 35.75 93.05 33.5 84.2 20.55 85.7
M 45.05 30.05
L 44.5 32.85 45.75 32.85 45.05 30.05
M 28.75 -4.75
L 27.95 -6.4 25.7 -6.2 28.75 -4.75
M 20.1 -7.8
L 5.6 -14.05
Q 5.8 0.55 16.4 10.4 26.8 20.1 39 28.45
L 20.95 19.9 26.25 33 40.95 32.85 40.4 2.55 22.55 -7.55 28.5 -8.2 38.4 -8.95 38 -14 39.25 -15.4 39.15 -18.4 9.95 -15.1 20.1 -7.8
M 53.55 -105.25
L 45.25 -106 36.1 -104.65 -23.15 -96.35 -27.85 -90.2
Q -27.6 -89.4 -27.3 -88.6 -23.5 -78.9 -14.75 -73.05
L -13.5 -74.85 -13.25 -75.2 -5.35 -86.5 -7.65 -48.65 -10.1 -51.1 -15.2 -62.35 -32.4 -73.6 -37 -87.55
Q -37.75 -73 -38.4 -58.4 -39.2 -40.95 -31.95 -25.1
L -8.9 -31.5 -7.6 -43.2 -7.5 -30.25 -31.95 -25.1 -25.3 -20.2 -18.1 55.65 -10.35 56.2 -14.2 47.1
Q -9.95 48.3 -8.8 52.6 -8.2 54.85 -7.8 57.15
L -10.45 58.05 -18.1 55.65 -21 83.55 -16.45 82.6
Q 4.6 58.8 36.05 53.85 38.65 53.55 41.25 53.2
L 41.3 42.55 -8.35 39.95 -12.4 39.75 -17 39.25
Q 2.85 30.1 24.5 33 17.15 14.1 5.6 -2.55 1.75 -8.05 -2.7 -13.15
L -22.6 -14.4 -22.15 -16.65 -14.35 -19.5 30.05 -28.8 54.6 -33.2 33.05 -34.9
Q 36 -42.05 43.2 -45 44.3 -45.35 45.4 -45.7
L 47.05 -65.25 43 -65.6 35.65 -66.05 25 -69.8 49.8 -71.3 50.75 -85.45 50.95 -96.45 52.35 -98.1 53.55 -105.25
M 24.45 -36
Q 25.85 -35.65 27.25 -35.3
L 2.25 -30.95 0.8 -32.65 -7.9 -47.2 3.2 -32.5
Q 12.85 -36 23.05 -36 23.75 -36 24.45 -36
M 100.2 -110.85
L 95.45 -103.8
Q 95.65 -102.95 95.9 -102.2 99.75 -91.25 108.6 -85.2
L 109.85 -87.2 110.1 -87.55 118 -100 115.75 -58.35 113.25 -61.05 108.1 -73.5 91 -85.8 86.35 -101.15
Q 86.15 -98.4 85.95 -95.6 85.9 -95.3 85.9 -95 85.4 -88.75 84.95 -82.5 83.1 -56.75 91.45 -32.5
L 114.45 -39.45 115.75 -52.35 115.85 -38.1 91.45 -32.5 98.05 -27.05 99.2 -14 99.2 -13.9 105.2 56.45 113 57.05 109.35 47.1
Q 113.05 47.9 114.5 51.9 115.6 54.95 115.55 58.1
L 112.9 59.05 105.2 56.45 102.15 86.75 106.9 86.1 107.7 82.95 164.6 53.75 164.65 42 112 39.35 110.85 39.3 106.9 39.15
Q 124.1 25.05 144.85 30.7 146.35 31.1 147.85 31.5 143.05 13.6 129.5 2.5 126.55 0.15 123.55 -2.2
L 120.65 -19.3 100.85 -22 109 -26.25 138.6 -33.65 177.95 -41.35 156.4 -43.2
Q 159.1 -51.4 166.55 -54.35 167.65 -54.7 168.75 -55.1
L 170.4 -76.6 166.35 -77 159 -77.5 148.35 -81.6 173.15 -83.25 174.1 -98.85 174.3 -110.95 175.7 -112.75 176.9 -120.65 168.6 -121.45 159.45 -119.95 100.2 -110.85
M 149.25 -44.15
Q 149.9 -43.9 150.6 -43.65
L 125.6 -38.85 124.15 -40.75 115.45 -56.75 126.55 -40.55
Q 137 -44.25 147.85 -44.15 148.55 -44.15 149.25 -44.15 Z"/>
</g>
</defs>

<g transform="matrix( 1, 0, 0, 1, 374.95,127.8) ">
<g transform="matrix( 1, 0, 0, 1, 0,0) ">
<use xlink:href="#barren_prop_31_Layer2_0_FILL"/>
</g>
</g>
</svg>
