
<svg xmlns="http://www.w3.org/2000/svg" version="1.1" xmlns:xlink="http://www.w3.org/1999/xlink" preserveAspectRatio="none" x="0px" y="0px" width="1000px" height="800px" viewBox="0 0 1000 800">
<defs>
<g id="barren_prop_34_Layer1_0_FILL">
<path fill="#000000" stroke="none" d="
M 131.15 349.5
Q 130.7 350.05 130.7 350.85
L 130.8 351.45
Q 130.8 350.4 131.2 349.65 131.586328125 348.9740234375 132.05 348.9 131.5375 348.9671875 131.15 349.5
M 140.25 111.55
Q 135.75 129.75 129.9 147.35 122.5 169.85 120 193.4 117.5 217.05 119.3 240.75
L 127.55 342 128.9 341.7 137.3 348.4 140.45 346.55
Q 139.1 345.05 138.5 343.35 131.1 323.1 127.65 301.65 124 278.85 122.5 255.8 121 232.8 122.65 209.75 124.25 187.2 129.85 165.4 133.05 152.8 137.8 140.8 146 120.15 142.95 97.95 141.9 104.95 140.25 111.55
M 134.15 -6.9
Q 133.85 -5.35 133.65 -3.8 131.7 11.15 137.7 25.35
L 134.15 -6.9
M 126.45 -49.75
Q 124.6 -52.1 122.3 -53.6
L 123 -11.7 121.4 -10.5 120.7 40
Q 118 30.4 114.35 21.05 108.15 5.35 99.5 -9 105.9 21.7 115.3 51.6 117.35 58.2 124.8 78.95 132.2 99.7 126.25 117.25 120.3 134.75 113.75 154.9 107.15 175 98.6 195.9
L 65.75 157.7
Q 71.7 165.55 76.65 174 87.7 192.85 93.35 213.85 99.1 235.25 100.6 257.45 102.1 279.65 100 301.6 97.85 323.9 91.8 345.6
L 99.2 331.75 98.8 337.55
Q 100.3 330.15 101.9 322.75 106.65 300.85 104.2 278.5
L 102 221.15
Q 104.75 202.65 108.7 184.35 113.25 163.4 119.2 142.95 125.15 122.5 132.55 102.25 132.7 100.9 132.85 99.6 133.75 92.25 130.5 85.55
L 121.05 54.5 106.15 10.75 123.25 50.5 124.35 -46.4 133 -17.2 138.25 -22.2 144.45 -35.2 133.5 -20.25
Q 134.2 -23.7 134.1 -27.45 134 -33.6 132.05 -39.45 130.15 -45 126.45 -49.75
M 99.1 200.2
L 98.65 204.2 87.65 187.9 99.1 200.2 Z"/>

<path fill="#CDC2A6" stroke="none" d="
M 119.3 240.75
Q 118.3 250.25 116.5 259.6 112.1 283 115.9 306.6 119.6 329.8 130.7 350.85 130.7 350.05 131.15 349.5 131.5375 348.9671875 132.05 348.9
L 132.15 348.9 137.3 348.4 128.9 341.7 127.55 342 119.3 240.75
M 112.7 293.7
L 104.2 278.5
Q 106.65 300.85 101.9 322.75 100.3 330.15 98.8 337.55
L 99.2 331.75 91.8 345.6 105.85 353.55 112.7 293.7
M 124.55 147.5
Q 130.85 127.8 139.2 109.15
L 132.55 102.25
Q 125.15 122.5 119.2 142.95 113.25 163.4 108.7 184.35 104.75 202.65 102 221.15 102.7 220.95 103.4 220.8 103.9 220.7 104.4 220.65 104.8 220.6 105.25 220.6 105.65 220.6 106.1 220.65 106.45 220.75 106.85 220.9 107.15 221.05 107.5 221.2 107.85 221.35 108.2 221.55 108.45 221.8 108.75 222.05 109 222.35 109.25 222.65 110.45 208 113.05 193.6 117.3 170.1 124.55 147.5
M 138.25 86.3
Q 132.6 71.4 123.65 58.25 122.35 56.35 121.05 54.5
L 130.5 85.55 138.25 86.3 Z"/>

<path fill="#7B7567" stroke="none" d="
M 138.25 -22.2
L 133 -17.2 124.35 -46.4 123.25 50.5 106.15 10.75 121.05 54.5
Q 122.35 56.35 123.65 58.25 132.6 71.4 138.25 86.3
L 130.5 85.55
Q 133.75 92.25 132.85 99.6 132.7 100.9 132.55 102.25
L 139.2 109.15
Q 130.85 127.8 124.55 147.5 117.3 170.1 113.05 193.6 110.45 208 109.25 222.65 109 222.35 108.75 222.05 108.45 221.8 108.2 221.55 107.85 221.35 107.5 221.2 107.15 221.05 106.85 220.9 106.45 220.75 106.1 220.65 105.65 220.6 105.25 220.6 104.8 220.6 104.4 220.65 103.9 220.7 103.4 220.8 102.7 220.95 102 221.15
L 104.2 278.5 112.7 293.7 105.85 353.55
Q 118.6 357.6 130.5 351.55 130.65 351.5 130.8 351.45
L 130.7 350.85
Q 119.6 329.8 115.9 306.6 112.1 283 116.5 259.6 118.3 250.25 119.3 240.75 117.5 217.05 120 193.4 122.5 169.85 129.9 147.35 135.75 129.75 140.25 111.55 141.9 104.95 142.95 97.95 136.65 46.55 136.85 35.85 137 25.15 137.7 25.35 131.7 11.15 133.65 -3.8 133.85 -5.35 134.15 -6.9
L 139.65 -23.6 138.25 -22.2
M 98.65 204.2
L 99.1 200.2 87.65 187.9 98.65 204.2 Z"/>
</g>

<g id="barren_prop_34_Layer0_0_FILL">
<path fill="#CC9900" stroke="none" d="
M 90.15 245.15
L 91.6 240.35 96.95 238.35 99.95 234.45 99.2 232.35 97.8 234.15 84.25 235.9 80.95 242.25 90.15 245.15
M 111.85 220.55
L 113.8 220.75 112.3 218.75 111.85 220.55
M 119.3 208.05
L 116.9 206.75 113 206.95 110.7 208.45 117.9 208.7 119.3 208.05
M 121.85 234.4
Q 123.45 235 125.1 235.65 131.7 233.45 138.5 234.1 143.15 234.5 147.65 236.05
L 147.95 235.15
Q 139.85 232.9 134.7 226.25 133.95 225.25 133.2 224.25
L 135 222 123.75 225.4 122.1 227 120.05 225.3 121.15 223 115.7 221.9 113.6 224.15 111.85 222.85 108.15 229.05 112.55 236.45
Q 114.35 234.6 116.8 234 119.4 233.55 121.85 234.4
M 146.65 213.15
L 143.3 214.8 141.1 213.3 137.3 216.8 135.65 216.9 124.45 207.6 123.1 207.9
Q 126.7 210.8 125.55 215.05 125.55 215.15 125.55 215.25
L 134.4 218.1 138.55 217.15 142.45 221.05 141.8 223.15 139.15 224.3 142.45 229.5 150.5 228.95 151.75 223.25 149.5 221.7 146.65 213.15
M 157.45 207.9
L 151.6 209.85 152.6 212.3 151.35 215.65 161.65 218.3 166.3 215.55 167.65 213.1 166.6 211.1 157.45 207.9
M 110.8 149.6
Q 110.4 149.65 110 149.7
L 107.3 157
Q 116.75 161.95 126.2 157 129.45 155.35 131.4 152.25 121.45 148.1 110.8 149.6
M 17.25 141.9
Q 17.25 142.85 18.35 143.5 19.4 144.15 20.9 144.15
L 17.25 141.9
M 82.55 143.1
L 83.35 139.15 77.25 139.45 82.55 143.1
M 57.55 140.45
L 53.45 138.75 50.95 144.6 56.65 149.35
Q 59.9 147.6 63.5 148.9 67.15 150.25 67.7 154.05 67.1 155.3 66 156.05 61.7 158.85 58.1 155.1
L 39.8 155 41.2 164.2
Q 39.65 165.5 37.7 165.2 32.75 164.35 31.1 159.65
L 29.45 159.05 26.3 158.05 21 157.85 20.75 158.2 25.05 161.45 22.85 166.55 20 166.65 16.45 163.1 16.65 159.8 12.5 156.95 9.45 160 3.8 156.55 4.75 151.2 11.5 152.8 15 149.3 13.65 147.6 -1.45 149.4
Q -0.15 150.3 0.25 152.05 2.85 162.95 -5.2 170.55
L 6.3 164.35 10.55 172.55 16.05 175.9
Q 30.6 166.9 47.9 166.55
L 50.2 169.55 46 178.1 57.85 174.2
Q 62.1 174.05 66.35 173.9 67.6 170.7 68.95 167.55 70.05 164.95 72.35 163.8 74.85 162.55 76.95 160.6
L 97.45 164.95 100.1 152.75 104.45 151.9 106.95 148.1
Q 102.1 141.05 94.1 144.3 92.5 145 90.95 145.75
L 87.75 142.6
Q 84.05 147.85 78.7 144.1 77.85 143.45 77.05 142.85
L 76.2 138.75 68.05 139.9 65.45 145.7
Q 59.35 144.9 59.1 138.8
L 57.55 140.45
M 72.2 146.85
Q 73.7 146.85 74.8 147.95 75.85 149 75.85 150.5 75.85 152 74.8 153.1 73.7 154.15 72.2 154.15 70.7 154.15 69.65 153.1 68.55 152 68.55 150.5 68.55 149 69.65 147.95 70.7 146.85 72.2 146.85
M 80 154.15
L 78.9 152.15 81.25 149.2 82.9 149.5 83.6 146.2 88.4 145.5 90.8 151.6 85.7 152.7 84.3 154.1 80 154.15
M 55.45 160.75
Q 55.45 160 56 159.45 56.55 158.9 57.3 158.9 58.05 158.9 58.6 159.45 59.15 160 59.15 160.75 59.15 161.5 58.6 162.05 58.05 162.6 57.3 162.6 56.55 162.6 56 162.05 55.45 161.5 55.45 160.75
M 179.5 85.95
L 179.8 84.45 178.3 81.25
Q 174.1 83.7 170.4 80.3 170.05 80 169.7 79.7 162 85.5 155.45 78.15 154.75 77.4 154.1 76.6
L 142.05 79.05 141.95 79.4
Q 145.8 80.3 149.25 82.55 154.45 85.9 157.8 91.1 158.35 90.65 158.95 90.2 168.25 83.2 179.5 85.95
M 190.65 73.8
L 186.6 71.7 184.55 71.6 180.9 77.25 183.75 80.85 188.3 75.95 189.45 76.45 190.65 73.8
M 109.4 -14.35
L 103.35 -15.25 102.35 -8.7 93.05 -5.65 95.45 0.4 98.9 -0.05 99.9 1.3 103.25 0.9 105 -4 109.9 -5.1 112.85 -8.3 109.4 -14.35
M 66.6 -7.7
L 64.7 -10.05 64.9 -7.8 66.6 -7.7
M 74.25 -21.3
L 71.5 -20.15
Q 69.75 -12.3 74.9 -6 75.15 -5.7 75.3 -5.35
L 70.9 -2.2 74.45 3.1 63.3 4.9 69.3 12.15
Q 74.2 8.5 80.2 7.45 84.3 6.8 88.45 6.15
L 90.6 -3.6 83.05 -9.25 90.25 -8.05 98.65 -12.25 98.2 -16.4 96.75 -12.8 81.2 -11.7 77.3 -8.6
Q 77.1 -8.7 76.95 -8.85 76.6 -9.05 76.3 -9.3 70.9 -14.5 74.25 -21.3
M 141.1 10.55
L 139.45 5.6 128.75 7.75 130.75 11.3 138.85 13.9 141.1 10.55
M 172.7 -29.05
L 174.85 -28.15 175.6 -30.9 172.7 -29.05
M 164.95 -29.4
L 166.15 -25.3 167.55 -26 168 -27.15 171.65 -28.7 164.95 -29.4
M 114.3 -50.55
L 113.4 -52.7 111.2 -52.45
Q 103.2 -42.15 90.9 -46.25 90.05 -46.6 89.25 -46.95
L 81.75 -43.75
Q 91.8 -43.4 100.1 -37.8 101.25 -37 102.4 -36.2
L 107.3 -40.05 108.5 -38.2 110 -41.25 114.3 -50.55
M 130.3 -70.75
L 130 -61.75 115.8 -64.85 113.25 -64.55
Q 109.75 -58.4 103.45 -61.4 103 -61.6 102.6 -61.8 99.35 -61.65 95.85 -62.45 92.35 -63.25 91.75 -64.55 91.1 -65.85 93.75 -66.9 96.35 -68 101.7 -68.2
L 102.7 -71.05 102.3 -71.5 96.9 -71.85 96.2 -69.95 94.3 -71.4 96.55 -72.25 95.8 -76.6
Q 90.35 -71.75 83.25 -73.25 82.4 -73.35 81.55 -73.4 94.35 -56.65 115.5 -55.6 117.55 -52.25 116.25 -48.55 115.6 -46.6 114.9 -44.65
L 120.15 -41.15
Q 136.35 -48.2 151.9 -39.25
L 157.85 -41.35
Q 155.45 -45.3 158 -49.3 158.85 -50.6 159.85 -51.85 163.7 -51.3 165.55 -47.85 167 -45.25 166.15 -42.55 175.05 -34.4 184.25 -43.1 184.85 -43.65 185.35 -44.3
L 185.45 -49.6 187.15 -40.75 197.9 -37.4 199.6 -39.55
Q 200.35 -39.55 201.1 -39.5 204.75 -39.15 206 -35.7 206.2 -35.1 206.45 -34.5
L 204.6 -32.3 199.9 -33.4 200.15 -28.75 188.8 -29.9
Q 189.55 -26.9 188 -24 184.75 -18.1 178.3 -20.35
L 173.15 -18.9 170.2 -19.75 170.9 -12.75 175.65 -9 175.4 -5.95 171.75 5.45
Q 171.45 5.4 171.2 5.4 166.6 6.35 164.65 2
L 158.8 -0.5 150.1 4.15 155.85 11.8 158.55 7.05
Q 158.55 4.85 159.2 3.3 159.8 1.7 160.65 1.7 161.5 1.7 162.15 3.3 162.75 4.85 162.75 7.05
L 180.3 11.1 184.1 5.7 183.4 1.6 189.25 -6.35 187.9 -0.9 190.85 -1.2 193.4 1.6
Q 194.85 1.75 196.35 1.95 199.4 2.4 202.15 3.6 207.45 5.9 211 10.6 211.5 11.25 211.95 11.95
L 215.25 6.95
Q 214.5 6.05 214.55 4.8 215.1 -8.4 227.05 -13.6 232.65 -16.05 238.75 -16.5
L 241.2 -31.3 269 -35.15 266.8 -39.25
Q 259.2 -42.45 250.85 -42.4 249 -42.4 247.15 -42.4
L 239.4 -36.5 234.5 -42.65 232.8 -40.65 230.45 -37.6
Q 210.5 -41.55 198.8 -58.15 197.7 -59.75 196.65 -61.35 210.4 -55.65 223.8 -62.1
L 222.8 -66.35
Q 214 -68.3 205.25 -66.1 203.95 -65.7 202.7 -65.25
L 199.15 -67.45 191.25 -58.85
Q 188.55 -59.85 187.4 -62.45 186.65 -64.25 186.6 -66.45 186.6 -67.2 186.7 -67.9 186.8 -68.55 186.9 -69.15
L 177 -71.45 189.5 -74.6
Q 182.85 -83.1 173.3 -77.8 172.25 -77.2 171.25 -76.6
L 157.5 -67.85 152 -68.2 149.6 -67 140.9 -72.2 138.15 -74.7 130.3 -70.75
M 135.5 -66.35
Q 134.5 -67.3 134.5 -68.65 134.5 -70 135.5 -70.95 136.45 -71.9 137.8 -71.9 139.15 -71.9 140.15 -70.95 141.1 -70 141.1 -68.65 141.1 -67.3 140.15 -66.35 139.15 -65.4 137.8 -65.4 136.45 -65.4 135.5 -66.35
M 147.95 -57.35
Q 149 -58.4 150.45 -58.4 151.9 -58.4 152.95 -57.35 154 -56.3 154 -54.8 154 -53.3 152.95 -52.25 151.9 -51.2 150.45 -51.2 149 -51.2 147.95 -52.25 146.9 -53.3 146.9 -54.8 146.9 -56.3 147.95 -57.35
M 173.45 -51.7
Q 173.95 -51.2 173.95 -50.5 173.95 -49.8 173.45 -49.3 172.95 -48.8 172.25 -48.8 171.55 -48.8 171.05 -49.3 170.55 -49.8 170.55 -50.5 170.55 -51.2 171.05 -51.7 171.55 -52.2 172.25 -52.2 172.95 -52.2 173.45 -51.7
M 189.75 -20.3
L 194.35 -15.05 209.95 -25.75 209.55 -34.55 214.45 -35.55 217 -28.45 221.2 -28.45 225.4 -21.55 223.55 -18.85 211.7 -18.95 194.5 -12.9 189.75 -20.3
M 228.3 -33.2
Q 229.3 -33.2 230.05 -32.45 230.75 -31.75 230.75 -30.7 230.75 -29.65 230.05 -28.9 229.3 -28.2 228.3 -28.2 227.3 -28.2 226.6 -28.9 225.85 -29.65 225.85 -30.7 225.85 -31.75 226.6 -32.45 227.3 -33.2 228.3 -33.2
M 158.8 -90.45
L 151.25 -81.7
Q 151.25 -77.3 149.25 -74.2 147.25 -71.1 144.45 -71.1
L 147.3 -68.7 164.75 -83.9 158.8 -90.45
M 126.6 -88.8
L 125.6 -96.9 118.7 -96.5 121.95 -93.5 118.8 -87.6 122.85 -86.25 126.6 -88.8 Z"/>

<path fill="#CC6500" stroke="none" d="
M 122.1 227
L 123.75 225.4
Q 123.75 224.4 123 223.7 122.25 223 121.15 223
L 120.05 225.3 122.1 227
M 124.45 240.15
L 128.4 244.55 146.55 243.25 147.65 236.05
Q 143.15 234.5 138.5 234.1 131.7 233.45 125.1 235.65 123.45 235 121.85 234.4 119.4 233.55 116.8 234 114.35 234.6 112.55 236.45
L 108.15 229.05 111.85 222.85 113.6 224.15 115.7 221.9 116.45 214.5 113.8 220.75 111.85 220.55 107.7 224.85 104.1 224.45 97.75 214.75 89.9 218.5 99.2 232.35 99.95 234.45 96.95 238.35 91.6 240.35 90.15 245.15 80.95 242.25 93.55 251.45 100.6 240.5 103 240.2 114.85 246.6 118.5 240.15 124.45 240.15
M 124.65 216.55
L 125.55 215.25
Q 125.55 215.15 125.55 215.05 126.7 210.8 123.1 207.9
L 119.3 208.05 117.9 208.7
Q 117.85 209.1 117.85 209.5 118.2 216.3 124.65 216.55
M 152.6 212.3
L 151.6 209.85 141.1 213.3 143.3 214.8 146.65 213.15 149.5 221.7 151.75 223.25 150.5 228.95 142.45 229.5 139.15 224.3 135 222 133.2 224.25
Q 133.95 225.25 134.7 226.25 139.85 232.9 147.95 235.15 156.6 225.25 168.5 219.5 169.95 218.85 171.4 218.2
L 170 213.45 167.3 211.4 166.6 211.1 167.65 213.1 166.3 215.55 161.65 218.3 151.35 215.65 152.6 212.3
M 26.3 158.05
L 29.45 159.05 27.8 152.35 26.3 158.05
M 58.15 131.6
L 59.1 138.8
Q 59.35 144.9 65.45 145.7
L 68.05 139.9 76.2 138.75 77.05 142.85
Q 77.85 143.45 78.7 144.1 84.05 147.85 87.75 142.6 79.3 132.85 67.5 138.05 66.3 138.65 65.1 139.25
L 61.6 137.75 61.65 135.35 58.15 131.6
M 83.35 139.15
L 82.55 143.1 77.25 139.45 83.35 139.15
M 56 159.45
Q 55.45 160 55.45 160.75 55.45 161.5 56 162.05 56.55 162.6 57.3 162.6 58.05 162.6 58.6 162.05 59.15 161.5 59.15 160.75 59.15 160 58.6 159.45 58.05 158.9 57.3 158.9 56.55 158.9 56 159.45
M 55.7 129.85
L 53.35 130.75 50.6 137.45 37.55 132.2 27.6 138.3 27.35 145.05 20.9 144.15
Q 19.4 144.15 18.35 143.5 17.25 142.85 17.25 141.9 5.8 141.65 -2.65 149.15 -3.9 150.2 -5.05 151.35
L -5.9 153.55 -0.55 158.85
Q -1.75 162.85 -5.9 164.25 -9.25 165.45 -12.8 165.35 -8.45 175.25 2.25 178.3
L 4.1 177.3 4.8 178.6 17.05 181.4
Q 19.45 175.65 25.45 173.95 31.55 172.35 36.4 176.35
L 36.65 177.75 43.7 185.8 54.25 177.95 64.15 179.5 70.85 171.7
Q 72.3 172.2 73.45 173.2 78.5 177.6 79.65 184.25
L 86.6 179.45
Q 91.05 180.35 94.85 177.7 100.2 174.05 100.3 167.5 117.3 166.5 132.7 159.6
L 131.4 152.25
Q 129.45 155.35 126.2 157 116.75 161.95 107.3 157
L 110 149.7 106.95 148.1 104.45 151.9 100.1 152.75 97.45 164.95 76.95 160.6
Q 74.85 162.55 72.35 163.8 70.05 164.95 68.95 167.55 67.6 170.7 66.35 173.9 62.1 174.05 57.85 174.2
L 46 178.1 50.2 169.55 47.9 166.55
Q 30.6 166.9 16.05 175.9
L 10.55 172.55 6.3 164.35 -5.2 170.55
Q 2.85 162.95 0.25 152.05 -0.15 150.3 -1.45 149.4
L 13.65 147.6 15 149.3 11.5 152.8 12.5 156.95 16.65 159.8 20.75 158.2 21 157.85 21.65 151.65
Q 25.65 151.85 28.55 149.1 33.1 144.7 29.95 139.2
L 39.7 136.05
Q 40.15 136.95 40.65 137.9 43.9 144.15 50.95 144.6
L 53.45 138.75 53.95 130.7 55.7 129.85
M 166.05 77
L 164 80.95 161.55 81 156.55 75.55 143.8 74.3 143.7 74.35 142.05 79.05 154.1 76.6
Q 154.75 77.4 155.45 78.15 162 85.5 169.7 79.7
L 173.5 75.15 167.6 78.7 166.05 77
M 179.8 84.45
L 179.5 85.95
Q 168.25 83.2 158.95 90.2 158.35 90.65 157.8 91.1 154.45 85.9 149.25 82.55 145.8 80.3 141.95 79.4 141.75 84.95 136.3 86.05 135.6 86.25 134.9 86.45
L 135.6 90.25 142.4 91.75 146.9 84.5 148.55 85.45
Q 148.5 94.05 155.75 98.9
L 164.15 96.35 165.6 94.55 173.1 100.2
Q 184.15 96.5 184.4 84.7 184.45 83.4 184.35 82.15
L 192 76.9 190.65 73.8 189.45 76.45 188.3 75.95 183.75 80.85 180.9 77.25 177.15 76.25 178.9 79.1 178.3 81.25 179.8 84.45
M 184.55 71.6
L 186.6 71.7 181.9 70.4 184.55 71.6
M 83.05 -9.25
L 90.6 -3.6 88.45 6.15
Q 84.3 6.8 80.2 7.45 74.2 8.5 69.3 12.15
L 63.3 4.9 58.1 2.85 62.15 -0.65 53.75 3.5
Q 54.85 11.25 61.8 14.95 65.45 16.95 69.75 16.25
L 71 12.8 86.7 13.15 95.45 0.4 93.05 -5.65 102.35 -8.7 103.35 -15.25
Q 103.35 -17.95 99.55 -19.85 95.75 -21.8 90.35 -21.8
L 98.2 -16.4 98.65 -12.25 90.25 -8.05 83.05 -9.25
M 62.75 -16.8
L 62.6 -16.6 64.7 -10.05 66.6 -7.7 64.9 -7.8 65.45 -6.2 68.05 -5.6 69.6 -1.9 70.9 -2.2 75.3 -5.35
Q 75.15 -5.7 74.9 -6 69.75 -12.3 71.5 -20.15
L 62.75 -16.8
M 236.15 -41.75
Q 235.35 -42.25 234.5 -42.65
L 239.4 -36.5 247.15 -42.4
Q 241.85 -38.65 236.15 -41.75
M 189.5 -74.6
L 177 -71.45 186.9 -69.15 189.5 -74.6
M 231.75 -59.55
L 222.8 -66.35 223.8 -62.1
Q 210.4 -55.65 196.65 -61.35 197.7 -59.75 198.8 -58.15 210.5 -41.55 230.45 -37.6
L 232.8 -40.65
Q 226.3 -38.65 221.25 -43.3 220.5 -44 219.8 -44.65 220.55 -56.3 231.75 -59.55
M 144.65 -1.25
L 146.9 -7
Q 149.7 -7.75 152.5 -7.2 162.1 -5.05 170.5 -10.05
L 175.4 -5.95 175.65 -9 170.9 -12.75 170.2 -19.75 169.9 -24.15 167.55 -26 166.15 -25.3 164.7 -11.25
Q 162.45 -9.35 159.75 -8.9 152.5 -8.1 146.55 -12.3
L 145.5 -13 143.55 -12.35 137.8 -4.05 139.45 5.6 141.1 10.55 138.85 13.9 130.75 11.3 128.75 7.75 116.75 9.05 114.05 5.35 111.45 12.3 122 12.8 126.4 20.75 138.85 23 142.95 13.3 154.55 21.55 185.5 12.55 186.35 7.85 188.3 6.65
Q 196.15 9.15 204.05 11.65 204.4 11.85 204.8 12.15 205.15 12.35 205.45 12.65 206.75 13.85 208 15.15
L 206.75 20.1 213.25 20.7
Q 214.4 20.05 215.6 19.45 215.9 19.25 216.25 19.1 216.55 18.85 216.85 18.6 217.4 18.1 217.95 17.65 218.45 17.15 218.95 16.7 219.4 16.2 219.85 15.65 220.2 15.25 220.45 14.8 221.5 12.95 222.45 11 222.7 10.4 222.85 9.75
L 219.1 3.95 219.55 1.55 226.05 -1.25 228.65 -2.3
Q 241.85 -5.25 245.9 -18.2 246.15 -19 246.45 -19.8
L 274.75 -34.65 266.8 -39.25 269 -35.15 241.2 -31.3 238.75 -16.5
Q 232.65 -16.05 227.05 -13.6 215.1 -8.4 214.55 4.8 214.5 6.05 215.25 6.95
L 211.95 11.95
Q 211.5 11.25 211 10.6 207.45 5.9 202.15 3.6 199.4 2.4 196.35 1.95 194.85 1.75 193.4 1.6
L 190.85 -1.2 187.9 -0.9 189.25 -6.35 183.4 1.6 184.1 5.7 180.3 11.1 162.75 7.05 158.55 7.05 155.85 11.8 150.1 4.15 144.65 -1.25
M 113.25 -64.55
L 115.8 -64.85 116.6 -66.95 114.6 -69.4 111.35 -67.85 113.25 -64.55
M 91.75 -64.55
Q 92.35 -63.25 95.85 -62.45 99.35 -61.65 102.6 -61.8
L 103.6 -63 103.95 -65.25 101.7 -68.2
Q 96.35 -68 93.75 -66.9 91.1 -65.85 91.75 -64.55
M 96.55 -72.25
L 94.3 -71.4 96.2 -69.95 96.9 -71.85 96.55 -72.25
M 230.05 -32.45
Q 229.3 -33.2 228.3 -33.2 227.3 -33.2 226.6 -32.45 225.85 -31.75 225.85 -30.7 225.85 -29.65 226.6 -28.9 227.3 -28.2 228.3 -28.2 229.3 -28.2 230.05 -28.9 230.75 -29.65 230.75 -30.7 230.75 -31.75 230.05 -32.45
M 194.35 -15.05
L 189.75 -20.3 194.5 -12.9 211.7 -18.95 223.55 -18.85 225.4 -21.55 221.2 -28.45 217 -28.45 214.45 -35.55 209.55 -34.55 209.95 -25.75 194.35 -15.05
M 173.95 -50.5
Q 173.95 -51.2 173.45 -51.7 172.95 -52.2 172.25 -52.2 171.55 -52.2 171.05 -51.7 170.55 -51.2 170.55 -50.5 170.55 -49.8 171.05 -49.3 171.55 -48.8 172.25 -48.8 172.95 -48.8 173.45 -49.3 173.95 -49.8 173.95 -50.5
M 150.45 -58.4
Q 149 -58.4 147.95 -57.35 146.9 -56.3 146.9 -54.8 146.9 -53.3 147.95 -52.25 149 -51.2 150.45 -51.2 151.9 -51.2 152.95 -52.25 154 -53.3 154 -54.8 154 -56.3 152.95 -57.35 151.9 -58.4 150.45 -58.4
M 76.9 -46.35
Q 74.9 -48.95 74.9 -52.65
L 66.1 -48.3 86.75 -34.65 90.15 -36.6 96.3 -30.5
Q 101.35 -30.5 104.95 -32.75 108.5 -35 108.5 -38.2
L 107.3 -40.05 102.4 -36.2
Q 101.25 -37 100.1 -37.8 91.8 -43.4 81.75 -43.75 78.9 -43.75 76.9 -46.35
M 126.45 -109.5
L 123.1 -101.45 113.4 -99.65 106.25 -86.1 108.3 -80.15
Q 97.6 -78.95 87.4 -75.55 81.15 -73.5 75.3 -70.65
L 83.1 -57.35 93.8 -57.2 94.65 -54.9 111.2 -52.45 113.4 -52.7 114.3 -50.55 110 -41.25 113.1 -40.2 113.85 -32.95
Q 135.6 -40.15 157.75 -34.3 162.25 -33.1 164.95 -29.4
L 171.65 -28.7 172.7 -29.05 175.6 -30.9
Q 180.4 -30.9 183.8 -33.75 187.15 -36.65 187.15 -40.75
L 185.45 -49.6 185.35 -44.3
Q 184.85 -43.65 184.25 -43.1 175.05 -34.4 166.15 -42.55 167 -45.25 165.55 -47.85 163.7 -51.3 159.85 -51.85 158.85 -50.6 158 -49.3 155.45 -45.3 157.85 -41.35
L 151.9 -39.25
Q 136.35 -48.2 120.15 -41.15
L 114.9 -44.65
Q 115.6 -46.6 116.25 -48.55 117.55 -52.25 115.5 -55.6 94.35 -56.65 81.55 -73.4 82.4 -73.35 83.25 -73.25 90.35 -71.75 95.8 -76.6
L 100.35 -76.8 102.3 -71.5 102.7 -71.05 109.9 -70.55 112.75 -78.3
Q 113.15 -78.2 113.6 -78.1 132.9 -74.3 151.25 -81.7
L 158.8 -90.45 164.75 -83.9 147.3 -68.7 144.45 -71.1 140.9 -72.2 149.6 -67 152 -68.2 157.5 -67.85 171.25 -76.6 172.6 -85.25 156.7 -94.75 149.8 -86.4 129.7 -85.05
Q 129.85 -85.6 130.05 -86.1 130.2 -86.65 130.35 -87.15 130.45 -87.7 130.6 -88.2 130.7 -88.75 130.8 -89.25 132 -94.55 129.1 -99
L 126.45 -109.5
M 125.6 -96.9
L 126.6 -88.8 122.85 -86.25 118.8 -87.6 114.35 -89.15 118.7 -96.5 125.6 -96.9 Z"/>

<path fill="#000000" stroke="none" d="
M 128.4 244.55
L 124.45 240.15 118.5 240.15 114.85 246.6 103 240.2 100.6 240.5 93.55 251.45 80.95 242.25 84.25 235.9 97.8 234.15 99.2 232.35 89.9 218.5 97.75 214.75 110.7 208.45 113 206.95
Q 98.6 209.2 86.05 216.65
L 94.85 230.5
Q 88.35 231.05 83.6 235.4 78.7 239.75 77.35 246.1 83.25 251.8 91.15 252.8 101.3 253.75 103.55 244.55
L 118.3 248.2 124.2 243.05 126.8 249.1
Q 130.75 252 135.5 250.9 138.1 250.45 139.65 248.35 140.05 247.8 140.45 247.25
L 148.9 246.7 155.25 233.35
Q 160.7 232 163.05 226.75 163.2 226.45 163.3 226.15 163.45 225.45 163.6 224.75
L 174.7 221.05 170 213.45 171.4 218.2
Q 169.95 218.85 168.5 219.5 156.6 225.25 147.95 235.15
L 147.65 236.05 146.55 243.25 128.4 244.55
M 151.6 209.85
L 157.45 207.9 166.6 211.1 167.3 211.4
Q 165.3 210.4 163.3 209.5 149 203.45 136 212.35 134.9 211.55 133.8 210.75 126.1 205.5 116.9 206.75
L 119.3 208.05 123.1 207.9 124.45 207.6 135.65 216.9 137.3 216.8 141.1 213.3 151.6 209.85
M -5.9 153.55
L -7.4 159.25 -17.45 163.75
Q -17.05 165.2 -16.6 166.65 -12.3 180.75 2.25 178.3 -8.45 175.25 -12.8 165.35 -9.25 165.45 -5.9 164.25 -1.75 162.85 -0.55 158.85
L -5.9 153.55
M 53.35 130.75
L 55.7 129.85 58.15 131.6 61.65 135.35 61.6 137.75 65.1 139.25
Q 66.3 138.65 67.5 138.05 79.3 132.85 87.75 142.6
L 90.95 145.75
Q 92.5 145 94.1 144.3 102.1 141.05 106.95 148.1
L 110 149.7
Q 110.4 149.65 110.8 149.6 121.45 148.1 131.4 152.25
L 132.7 159.6
Q 117.3 166.5 100.3 167.5 100.2 174.05 94.85 177.7 91.05 180.35 86.6 179.45
L 79.65 184.25
Q 78.5 177.6 73.45 173.2 72.3 172.2 70.85 171.7
L 64.15 179.5 54.25 177.95 43.7 185.8 36.65 177.75 36.4 176.35
Q 31.55 172.35 25.45 173.95 19.45 175.65 17.05 181.4
L 4.8 178.6
Q 6.8 181.75 10 183.45 12.9 184.95 16.05 184.6 20.8 183.75 21.2 178.55
L 32.15 176.8 31.9 179.15
Q 36.5 187.1 45.4 189.05
L 55 182.5
Q 58.85 184.1 63.05 183.15 68.25 182.2 71.15 177.65 72 179.3 72.95 180.85 74.75 183.8 77.8 185.4 83.95 188.55 88.65 183
L 98.2 182.1
Q 98.9 181.5 99.55 180.9 104.2 176.35 103.8 169.85 126.95 174.2 140 155.25 126.95 144.15 109.8 143.05 101.75 135.5 91.1 138.5 85.7 133.9 79.3 130.7 62.3 122.3 46.65 133.1
L 37.9 128.05
Q 26.8 130.1 23.6 140.95 22.3 140.65 21 140.4 3.3 136.15 -5.05 151.35 -3.9 150.2 -2.65 149.15 5.8 141.65 17.25 141.9
L 20.9 144.15 27.35 145.05 27.6 138.3 37.55 132.2 50.6 137.45 53.35 130.75
M 186.6 71.7
L 190.65 73.8 192 76.9 184.35 82.15
Q 184.45 83.4 184.4 84.7 184.15 96.5 173.1 100.2
L 165.6 94.55 164.15 96.35 155.75 98.9
Q 148.5 94.05 148.55 85.45
L 146.9 84.5 142.4 91.75 135.6 90.25 134.9 86.45
Q 135.6 86.25 136.3 86.05 141.75 84.95 141.95 79.4
L 142.05 79.05 143.7 74.35
Q 135.35 79.35 131.5 87.75 133.75 92.9 139.15 94.95 142.5 96.15 145.85 94.8
L 158.05 102.35 160.25 100.5
Q 164.05 102.15 168.2 101.8 185.45 99.65 190.1 83 191.65 82.05 193.15 81 194.85 79.75 195.6 77.85 196.25 76.25 195.75 74.55 191.7 70.35 186.35 68.45 175.45 64.45 167.95 73.5 166.45 73.05 164.9 72.8 154.1 70.25 143.8 74.3
L 156.55 75.55
Q 156.8 75.35 157.05 75.2 162.15 73.35 166.05 77
L 167.6 78.7 173.5 75.15 178.15 69.1 181.9 70.4 186.6 71.7
M 79.1 -21.7
Q 79.85 -21.1 80.65 -20.5 86.15 -16.65 90.35 -21.8 95.75 -21.8 99.55 -19.85 103.35 -17.95 103.35 -15.25
L 109.4 -14.35 112.85 -8.3 109.9 -5.1 105 -4 103.25 0.9 99.9 1.3 98.9 -0.05 95.45 0.4 86.7 13.15 71 12.8 69.75 16.25
Q 65.45 16.95 61.8 14.95 54.85 11.25 53.75 3.5
L 62.15 -0.65
Q 62.65 -0.35 63.2 -0.05 67.4 2.1 69.6 -1.9
L 68.05 -5.6 65.45 -6.2 64.9 -7.8 64.7 -10.05 62.6 -16.6 62.4 -4.1
Q 58.55 -3.25 55.1 -1.15 52.4 0.45 51.25 3.1 51 3.65 50.8 4.25 53.95 8.6 57.4 12.75 62.55 19.05 70.75 18.9 71.65 18.7 72.55 18.55
L 74.3 15.5 80.9 14.1
Q 84.05 16.5 88 16.3 88.65 16.2 89.3 16.1 89.9 15.85 90.5 15.65
L 99.05 4.25 105.65 3.2 109.4 -1.7
Q 116.05 -4.2 113.6 -11.1 111.8 -16.25 106.4 -16.95 105.85 -17 105.35 -17.05 104.4 -19.1 102.6 -20.65 96.85 -25.6 89.3 -24.2 88.1 -23.9 86.9 -23.55
L 80.05 -27.25 62.75 -16.8 71.5 -20.15 74.25 -21.3 79.1 -21.7
M 135.3 -7.45
L 137.8 -4.05 143.55 -12.35
Q 131.15 -12.05 126.45 -0.9 110.3 1.1 110.7 17
L 122.75 18.85
Q 124.55 20.95 126.75 22.35 138.1 29.45 144.75 18.05
L 148.25 21.4
Q 172.05 26.7 189.9 10.2
L 204.35 15.1 203.85 20.35
Q 211.15 23.45 218.75 20.4 220.2 19.75 221.25 18.4 226.95 11.05 222 2.2
L 226.05 -1.25 219.55 1.55 219.1 3.95 222.85 9.75
Q 222.7 10.4 222.45 11 221.5 12.95 220.45 14.8 220.2 15.25 219.85 15.65 219.4 16.2 218.95 16.7 218.45 17.15 217.95 17.65 217.4 18.1 216.85 18.6 216.55 18.85 216.25 19.1 215.9 19.25 215.6 19.45 214.4 20.05 213.25 20.7
L 206.75 20.1 208 15.15
Q 206.75 13.85 205.45 12.65 205.15 12.35 204.8 12.15 204.4 11.85 204.05 11.65 196.15 9.15 188.3 6.65
L 186.35 7.85 185.5 12.55 154.55 21.55 142.95 13.3 138.85 23 126.4 20.75 122 12.8 111.45 12.3 114.05 5.35 119.15 1.25 129.2 0.8 135.3 -7.45
M 110 -41.25
L 108.5 -38.2
Q 108.5 -35 104.95 -32.75 101.35 -30.5 96.3 -30.5 98.6 -28.8 101.25 -28.3 103.95 -27.95 106.6 -28.9 107.4 -29.2 108.25 -29.45 109.15 -29.75 110.05 -30.05 110.85 -30.5 111.7 -30.95 112.9 -30.35 114.15 -29.8 115.25 -29.45 116.3 -29.8 124.15 -31.8 132.25 -31.8 134.05 -31.8 135.9 -31.35 148.45 -30.95 161.05 -30.55
L 161.8 -12.95 146.55 -12.3
Q 152.5 -8.1 159.75 -8.9 162.45 -9.35 164.7 -11.25
L 166.15 -25.3 164.95 -29.4
Q 162.25 -33.1 157.75 -34.3 135.6 -40.15 113.85 -32.95
L 113.1 -40.2 110 -41.25
M 149.8 -86.4
L 156.7 -94.75 172.6 -85.25 171.25 -76.6
Q 172.25 -77.2 173.3 -77.8 182.85 -83.1 189.5 -74.6
L 186.9 -69.15
Q 186.8 -68.55 186.7 -67.9 186.6 -67.2 186.6 -66.45 186.65 -64.25 187.4 -62.45 188.55 -59.85 191.25 -58.85
L 199.15 -67.45 202.7 -65.25
Q 203.95 -65.7 205.25 -66.1 214 -68.3 222.8 -66.35
L 231.75 -59.55
Q 220.55 -56.3 219.8 -44.65 220.5 -44 221.25 -43.3 226.3 -38.65 232.8 -40.65
L 234.5 -42.65
Q 235.35 -42.25 236.15 -41.75 241.85 -38.65 247.15 -42.4 249 -42.4 250.85 -42.4 259.2 -42.45 266.8 -39.25
L 274.75 -34.65 246.45 -19.8
Q 246.15 -19 245.9 -18.2 241.85 -5.25 228.65 -2.3 231.5 -1.9 234.35 -1.9 241.15 -1.95 246.05 -7.15 251 -12.3 250.05 -19.45 258.85 -18.95 266.8 -22.55 275.45 -26.5 280.5 -34.55 276.1 -37.85 271.25 -40.25 250.05 -50.45 227.7 -42.65
L 224.85 -49.05
Q 233.45 -50.55 235.45 -58.9
L 224.85 -69 192.75 -68.5 191.7 -63.85 190.45 -64.7
Q 192.85 -69.45 192.1 -74.75 191.45 -79.2 187.85 -81.95 182.5 -86.05 176.35 -83.2
L 177.2 -86.75
Q 168.75 -95.65 156.8 -98.55
L 149.35 -90.05 133.3 -88.75
Q 133.45 -89.65 133.6 -90.5 134.5 -96.3 129.1 -99 132 -94.55 130.8 -89.25 130.7 -88.75 130.6 -88.2 130.45 -87.7 130.35 -87.15 130.2 -86.65 130.05 -86.1 129.85 -85.6 129.7 -85.05
L 149.8 -86.4
M 71.4 -72.1
Q 72.45 -63.65 79.7 -59.35
L 62.6 -47.8
Q 63.05 -46.95 63.55 -46.1 71.45 -32.7 86.75 -34.65
L 66.1 -48.3 74.9 -52.65 83.1 -57.35 75.3 -70.65
Q 81.15 -73.5 87.4 -75.55 97.6 -78.95 108.3 -80.15
L 106.25 -86.1 113.4 -99.65
Q 104.3 -93.65 103.9 -82.85
L 86.55 -82.55 71.4 -72.1 Z"/>

<path fill="#FFCD38" stroke="none" d="
M 125.55 215.25
L 124.65 216.55
Q 118.2 216.3 117.85 209.5 117.85 209.1 117.9 208.7
L 110.7 208.45 97.75 214.75 104.1 224.45 107.7 224.85 111.85 220.55 112.3 218.75 113.8 220.75 116.45 214.5 115.7 221.9 121.15 223
Q 122.25 223 123 223.7 123.75 224.4 123.75 225.4
L 135 222 139.15 224.3 141.8 223.15 142.45 221.05 138.55 217.15 134.4 218.1 125.55 215.25
M 12.5 156.95
L 11.5 152.8 4.75 151.2 3.8 156.55 9.45 160 12.5 156.95
M 22.85 166.55
L 25.05 161.45 20.75 158.2 16.65 159.8 16.45 163.1 20 166.65 22.85 166.55
M 50.95 144.6
Q 43.9 144.15 40.65 137.9 40.15 136.95 39.7 136.05
L 29.95 139.2
Q 33.1 144.7 28.55 149.1 25.65 151.85 21.65 151.65
L 21 157.85 26.3 158.05 27.8 152.35 29.45 159.05 31.1 159.65
Q 32.75 164.35 37.7 165.2 39.65 165.5 41.2 164.2
L 39.8 155 58.1 155.1
Q 61.7 158.85 66 156.05 67.1 155.3 67.7 154.05 67.15 150.25 63.5 148.9 59.9 147.6 56.65 149.35
L 50.95 144.6
M 78.9 152.15
L 80 154.15 84.3 154.1 85.7 152.7 90.8 151.6 88.4 145.5 83.6 146.2 82.9 149.5 81.25 149.2 78.9 152.15
M 74.8 147.95
Q 73.7 146.85 72.2 146.85 70.7 146.85 69.65 147.95 68.55 149 68.55 150.5 68.55 152 69.65 153.1 70.7 154.15 72.2 154.15 73.7 154.15 74.8 153.1 75.85 152 75.85 150.5 75.85 149 74.8 147.95
M 55.7 129.85
L 53.95 130.7 53.45 138.75 57.55 140.45 59.1 138.8 58.15 131.6 55.7 129.85
M 164 80.95
L 166.05 77
Q 162.15 73.35 157.05 75.2 156.8 75.35 156.55 75.55
L 161.55 81 164 80.95
M 181.9 70.4
L 178.15 69.1 173.5 75.15 169.7 79.7
Q 170.05 80 170.4 80.3 174.1 83.7 178.3 81.25
L 178.9 79.1 177.15 76.25 180.9 77.25 184.55 71.6 181.9 70.4
M 63.2 -0.05
Q 62.65 -0.35 62.15 -0.65
L 58.1 2.85 63.3 4.9 74.45 3.1 70.9 -2.2 69.6 -1.9
Q 67.4 2.1 63.2 -0.05
M 80.65 -20.5
Q 79.85 -21.1 79.1 -21.7
L 74.25 -21.3
Q 70.9 -14.5 76.3 -9.3 76.6 -9.05 76.95 -8.85 77.1 -8.7 77.3 -8.6
L 81.2 -11.7 96.75 -12.8 98.2 -16.4 90.35 -21.8
Q 86.15 -16.65 80.65 -20.5
M 162.75 7.05
Q 162.75 4.85 162.15 3.3 161.5 1.7 160.65 1.7 159.8 1.7 159.2 3.3 158.55 4.85 158.55 7.05
L 162.75 7.05
M 201.1 -39.5
Q 200.35 -39.55 199.6 -39.55
L 197.9 -37.4 187.15 -40.75
Q 187.15 -36.65 183.8 -33.75 180.4 -30.9 175.6 -30.9
L 174.85 -28.15 172.7 -29.05 171.65 -28.7 168 -27.15 167.55 -26 169.9 -24.15 170.2 -19.75 173.15 -18.9 178.3 -20.35
Q 184.75 -18.1 188 -24 189.55 -26.9 188.8 -29.9
L 200.15 -28.75 199.9 -33.4 204.6 -32.3 206.45 -34.5
Q 206.2 -35.1 206 -35.7 204.75 -39.15 201.1 -39.5
M 146.9 -7
L 144.65 -1.25 150.1 4.15 158.8 -0.5 164.65 2
Q 166.6 6.35 171.2 5.4 171.45 5.4 171.75 5.45
L 175.4 -5.95 170.5 -10.05
Q 162.1 -5.05 152.5 -7.2 149.7 -7.75 146.9 -7
M 137.8 -4.05
L 135.3 -7.45 129.2 0.8 119.15 1.25 114.05 5.35 116.75 9.05 128.75 7.75 139.45 5.6 137.8 -4.05
M 100.35 -76.8
L 95.8 -76.6 96.55 -72.25 96.9 -71.85 102.3 -71.5 100.35 -76.8
M 130 -61.75
L 130.3 -70.75 138.15 -74.7 140.9 -72.2 144.45 -71.1
Q 147.25 -71.1 149.25 -74.2 151.25 -77.3 151.25 -81.7 132.9 -74.3 113.6 -78.1 113.15 -78.2 112.75 -78.3
L 109.9 -70.55 102.7 -71.05 101.7 -68.2 103.95 -65.25 103.6 -63 102.6 -61.8
Q 103 -61.6 103.45 -61.4 109.75 -58.4 113.25 -64.55
L 111.35 -67.85 114.6 -69.4 116.6 -66.95 115.8 -64.85 130 -61.75
M 134.5 -68.65
Q 134.5 -67.3 135.5 -66.35 136.45 -65.4 137.8 -65.4 139.15 -65.4 140.15 -66.35 141.1 -67.3 141.1 -68.65 141.1 -70 140.15 -70.95 139.15 -71.9 137.8 -71.9 136.45 -71.9 135.5 -70.95 134.5 -70 134.5 -68.65
M 74.9 -52.65
Q 74.9 -48.95 76.9 -46.35 78.9 -43.75 81.75 -43.75
L 89.25 -46.95
Q 90.05 -46.6 90.9 -46.25 103.2 -42.15 111.2 -52.45
L 94.65 -54.9 93.8 -57.2 83.1 -57.35 74.9 -52.65
M 114.35 -89.15
L 118.8 -87.6 121.95 -93.5 118.7 -96.5 114.35 -89.15 Z"/>
</g>
</defs>

<g transform="matrix( 1, 0, 0, 1, 374.95,127.8) ">
<g transform="matrix( 1, 0, 0, 1, 0,0) ">
<use xlink:href="#barren_prop_34_Layer1_0_FILL"/>
</g>

<g transform="matrix( 1, 0, 0, 1, 0,0) ">
<use xlink:href="#barren_prop_34_Layer0_0_FILL"/>
</g>
</g>
</svg>
