
<svg xmlns="http://www.w3.org/2000/svg" version="1.1" xmlns:xlink="http://www.w3.org/1999/xlink" preserveAspectRatio="none" x="0px" y="0px" width="1000px" height="800px" viewBox="0 0 1000 800">
<defs>
<g id="barren_prop_14_Layer1_0_FILL">
<path fill="#CCCCCC" stroke="none" d="
M 79.6 338.85
L 74.6 346.1 80.4 347.05 82.25 347.1 85.4 344.5 79.6 338.85
M 142.05 339.9
L 149.45 339.9 146.9 333.7 138.8 336.9 142.05 339.9
M 111.55 346.1
Q 113 345 113 343.4 113 341.8 111.55 340.65 110.15 339.55 108.1 339.55 106.05 339.55 104.6 340.65 103.2 341.8 103.2 343.4 103.2 345 104.6 346.1 106.05 347.25 108.1 347.25 110.15 347.25 111.55 346.1 Z"/>

<path fill="#000000" stroke="none" d="
M 75.35 339.15
Q 66 329.15 55.3 320.8 50 316.6 48.85 310 45.7 292.35 28.85 287.4
L 30.75 298.35 21.5 296.45
Q 22.3 302.85 26.75 307.65 27.4 308.4 28.3 308.75 54.65 319.75 73 341.5
L 69.6 347 80.4 347.05 74.6 346.1 79.6 338.85 85.4 344.5 82.25 347.1 87.2 347.15 88.8 344.15 81.35 334.3 75.35 339.15
M 30.7 290.05
Q 34.3 292.55 38 295 42.2 297.9 41.85 302.95
L 43.25 307.4 30.7 290.05
M 33.45 310
Q 27.5 306.15 24.1 299.85
L 33.1 303 42.15 313.35
Q 37.35 312.6 33.45 310
M 114.95 273.2
L 113.55 282.25 103.95 278.65
Q 104.25 280.65 104.6 282.7 105.25 286.7 108.15 289.35 128.3 307.95 138.35 333.2
L 133 336.3 135.9 339.9 142.05 339.9 138.8 336.9 146.9 333.7 149.45 339.9 148.8 331.25 142.15 332.2
Q 132.25 316.3 125.55 298.8 125 297.45 125.4 296.1 129.8 279.95 114.95 273.2
M 116.25 284.35
L 116.65 276.3 122.8 284.55 122.15 294.45 116.25 284.35
M 106.7 280.55
L 114.1 286.8 120.45 299.45
Q 116.45 297.25 113.25 293.75 108.2 288.1 106.7 280.55
M 97.6 296.1
Q 102.4 280.35 91 269.85
L 87.35 280.35 80.65 274.65
Q 78.55 277 78.45 280.2 78.4 282.5 79.6 284.3 81.40625 287.001171875 83.1 289.75 80.686328125 284.4734375 80.8 278.45
L 87.1 285.55 91.3 300
Q 88.244921875 297.658984375 86 294.65 97.7732421875 315.2869140625 103.35 338.55
L 99.05 345.35
Q 101.7 348.7 105.65 350.05 109.95 351.45 114.2 349.75 114.65 349.6 115.05 349.35
L 113.75 336 106.55 337.65
Q 100.85 319.7 97.35 301.35 96.85 298.65 97.6 296.1
M 96.15 282.55
L 94.8 289.75 93.4 293.85 91.45 273.55 96.15 282.55
M 113 343.4
Q 113 345 111.55 346.1 110.15 347.25 108.1 347.25 106.05 347.25 104.6 346.1 103.2 345 103.2 343.4 103.2 341.8 104.6 340.65 106.05 339.55 108.1 339.55 110.15 339.55 111.55 340.65 113 341.8 113 343.4 Z"/>

<path fill="#006699" stroke="none" d="
M 24.1 299.85
Q 27.5 306.15 33.45 310 37.35 312.6 42.15 313.35
L 33.1 303 24.1 299.85
M 38 295
Q 34.3 292.55 30.7 290.05
L 43.25 307.4 41.85 302.95
Q 42.2 297.9 38 295
M 114.1 286.8
L 106.7 280.55
Q 108.2 288.1 113.25 293.75 116.45 297.25 120.45 299.45
L 114.1 286.8
M 116.65 276.3
L 116.25 284.35 122.15 294.45 122.8 284.55 116.65 276.3
M 94.8 289.75
L 96.15 282.55 91.45 273.55 93.4 293.85 94.8 289.75
M 83.1 289.75
Q 83.8701171875 291.4384765625 84.9 293.05 85.4265625 293.87578125 86 294.65 88.244921875 297.658984375 91.3 300
L 87.1 285.55 80.8 278.45
Q 80.686328125 284.4734375 83.1 289.75 Z"/>
</g>
</defs>

<g transform="matrix( 1, 0, 0, 1, 374.95,127.8) ">
<g transform="matrix( 1, 0, 0, 1, 0,0) ">
<use xlink:href="#barren_prop_14_Layer1_0_FILL"/>
</g>
</g>
</svg>
