
<svg xmlns="http://www.w3.org/2000/svg" version="1.1" xmlns:xlink="http://www.w3.org/1999/xlink" preserveAspectRatio="none" x="0px" y="0px" width="1000px" height="800px" viewBox="0 0 1000 800">
<defs>
<g id="barren_prop_26_Layer2_0_FILL">
<path fill="#000000" stroke="none" d="
M 71.55 321.15
Q 75.5 314.85 70.7 308.95 60.55 296.45 43.85 298 37.15 298.35 30.45 298.1 7.3 302.9 -13.15 315.1 -23.05 321 -20.75 331.75 -19.2 338.95 -12.25 341.15 10.1 348.05 33.2 345.3 58.2 342.5 71.55 321.15
M 70.9 312.95
L 71.3 315 70.45 317.4 38.75 321.25 49.65 328.8 44.05 331.05 29.45 320.65 14.15 334.75 9.95 334.5 21 320.6 -13.2 323.55 -12.9 319.9 12.6 319.05 13.15 317.9 70.9 312.95
M 66.35 306.3
L 70.8 311.4 53.45 306.85 55.45 305.1 30.25 313.9 39.75 307.7 41.45 307.65 44.2 304.95 4.75 309.25 20.15 314.65 -4.65 312.25 -12.4 318.35
Q -8.35 313.3 -2.7 310.05 -1.5 309.45 -0.25 308.95 3.45 307.35 7.25 306 32.95 296.4 59.3 304.05 62.85 305.1 66.35 306.3
M 64.95 319.15
L 67.35 320.6 53.15 327.6 43.2 321.8 64.95 319.15
M 47.4 309.5
L 58.65 311.4 40.85 313.15 47.4 309.5
M 36.5 307.45
L 25.7 314.3 15.5 310.25 36.5 307.45
M 7.65 333.9
L 1.6 333.7
Q -6.85 333.7 -12 327.1 -12.4 326.5 -12.8 325.9
L 16.6 322.75 7.65 333.9
M 17.65 334.85
L 29.5 323.15 41.2 331.45 36.35 332.55 17.65 334.85
M 37.85 340.9
Q 21.25 342.25 4.6 341.8 -4.1 341.05 -12.45 338.3 -22.75 330.5 -16.45 319.1 -15.8 317.95 -15.1 316.8 -17.75 327.2 -8.15 331.7 14.45 342.4 39 336.25 57.55 331.6 72.3 319.6 60.95 339.85 37.85 340.9
M -7.2 317.75
L -1.4 314.4 4.25 316.45 -7.2 317.75 Z"/>

<path fill="#CDC2A6" stroke="none" d="
M 4.6 341.8
Q 21.25 342.25 37.85 340.9 60.95 339.85 72.3 319.6 57.55 331.6 39 336.25 14.45 342.4 -8.15 331.7 -17.75 327.2 -15.1 316.8 -15.8 317.95 -16.45 319.1 -22.75 330.5 -12.45 338.3 -4.1 341.05 4.6 341.8
M 44.2 304.95
L 41.45 307.65 39.75 307.7 30.25 313.9 55.45 305.1 66.35 306.3
Q 62.85 305.1 59.3 304.05 32.95 296.4 7.25 306 3.45 307.35 -0.25 308.95 -1.5 309.45 -2.7 310.05 -8.35 313.3 -12.4 318.35
L -4.65 312.25 20.15 314.65 4.75 309.25 44.2 304.95
M 71.3 315
L 70.9 312.95 13.15 317.9 12.6 319.05 -12.9 319.9 -13.2 323.55 21 320.6 9.95 334.5 14.15 334.75 29.45 320.65 44.05 331.05 49.65 328.8 38.75 321.25 36.9 319.55 71.3 315 Z"/>

<path fill="#5B564B" stroke="none" d="
M 70.8 311.4
L 66.35 306.3 55.45 305.1 53.45 306.85 70.8 311.4
M 70.45 317.4
L 71.3 315 36.9 319.55 38.75 321.25 70.45 317.4 Z"/>
</g>

<g id="barren_prop_26_Layer1_0_FILL">
<path fill="#CDC2A6" stroke="none" d="
M 52.55 341
Q 63.25 342.6 74 343.85 83.2 345.05 92.45 345.85 98.5 346 104.55 346.1 105.9 346.1 107.3 346.05 115.65 345.35 123.25 341.9 126.55 335.95 130 330.1 134.4 322.65 139.1 315.35 142.45 310.1 146.05 305 147.15 303.5 148.4 302.15 155.7 293.8 165.5 288.4 183.2 278.45 200.65 267.8 218.05 257.2 235.45 246.55
L 233.15 246.5 221.55 250.85 138 297.45 145.35 298.8 136.1 298.75 120.4 338.5
Q 112.05 338.95 103.75 339.4 97.05 339.4 90.35 339.25 82.65 339.05 75 338.7 70.65 338.35 66.35 338 57.75 336.95 49.15 335.9
L 26.95 308.6 21.65 310.95 52.55 341 Z"/>

<path fill="#000000" stroke="none" d="
M 106.85 257.9
Q 100.65 259.6 94.85 262.6 70.45 275.2 47.1 289.5 31.2 299.2 16.95 311.2 19.35 313.75 21.95 316.15 27.55 321.2 32.05 327.2 43.7 342.95 63.2 347.55 70 349.05 77.15 349.1 95.1 349.15 113.2 349.1 120.1 349.05 125.45 344.85
L 127.1 345.25
Q 131.55 343.85 135.6 341.55 154.55 330.6 173.15 318.9 203.05 300.1 231.25 278.75
L 239.45 244.85 233.15 246.5 235.45 246.55
Q 218.05 257.2 200.65 267.8 183.2 278.45 165.5 288.4 155.7 293.8 148.4 302.15 147.15 303.5 146.05 305 142.45 310.1 139.1 315.35 134.4 322.65 130 330.1 126.55 335.95 123.25 341.9 115.65 345.35 107.3 346.05 105.9 346.1 104.55 346.1 98.5 346 92.45 345.85 83.2 345.05 74 343.85 63.25 342.6 52.55 341
L 21.65 310.95 26.95 308.6 49.15 335.9
Q 57.75 336.95 66.35 338 70.65 338.35 75 338.7 82.65 339.05 90.35 339.25 97.05 339.4 103.75 339.4 112.05 338.95 120.4 338.5
L 136.1 298.75 145.35 298.8 138 297.45 221.55 250.85
Q 199.55 259.4 178.15 269.3 170.9 272.75 163.2 274.95 149.9 278.85 136.25 279.4 135.5 277.8 134.7 276.2 133.05 273.05 131.3 270 130.45 268.5 129.45 267.05 125.35 261 119.65 256.05 113.05 256.4 106.85 257.9
M 97.2 263.85
L 116 258
Q 117.4 258.9 118.8 259.85 121.15 261.6 123.45 263.4 130.05 268.85 132.85 276.85 133.5 278.75 134.25 280.65 129.25 283.4 124.2 285.95 92.55 301.65 64.3 322.6 63.15 323.5 62 324.45 71.35 319.5 80.75 314.65 87.8 310.9 94.55 306.8 96.85 305.5 99.15 304.2 101 303.05 102.95 301.95 133.15 285.35 166.95 278.7 167.95 278.5 169 278.35
L 137 295.35 118.7 336.3 49.6 332.35
Q 42.8 318.5 31.05 308.25 29.75 307.15 28.5 306.1
L 97.2 263.85
M 153.3 328.1
Q 140.5 335 127.7 341.9 134.3 330.05 141 318.3 152.05 298.8 171.25 287.4 191.5 275.4 211.8 263.5
L 210.1 263.55 237.55 248.7 228.75 277.75
Q 225.75 280.1 222.7 282.4 216.65 287 210.6 291.55 183.35 312 153.3 328.1 Z"/>

<path fill="#5B564B" stroke="none" d="
M 127.7 341.9
Q 140.5 335 153.3 328.1 183.35 312 210.6 291.55 216.65 287 222.7 282.4 225.75 280.1 228.75 277.75
L 237.55 248.7 210.1 263.55 211.8 263.5
Q 191.5 275.4 171.25 287.4 152.05 298.8 141 318.3 134.3 330.05 127.7 341.9
M 116 258
L 97.2 263.85 28.5 306.1
Q 29.75 307.15 31.05 308.25 42.8 318.5 49.6 332.35
L 118.7 336.3 137 295.35 169 278.35
Q 167.95 278.5 166.95 278.7 133.15 285.35 102.95 301.95 101 303.05 99.15 304.2 96.85 305.5 94.55 306.8 87.8 310.9 80.75 314.65 71.35 319.5 62 324.45 63.15 323.5 64.3 322.6 92.55 301.65 124.2 285.95 129.25 283.4 134.25 280.65 133.5 278.75 132.85 276.85 130.05 268.85 123.45 263.4 121.15 261.6 118.8 259.85 117.4 258.9 116 258 Z"/>
</g>

<g id="barren_prop_26_Layer0_0_FILL">
<path fill="#000000" stroke="none" d="
M 67.8 338.75
L 63.95 335.55
Q 59.25 336.65 54.7 338.85 33.4 349.45 12.25 360.4 -0.15 366.8 -1.65 380.55 -1.75 381.9 -1.7 383.3 1.55 385.9 5.55 387.2 7.75 388.05 9.55 386.9 14.3 383.75 19.1 380.55 41.05 366.05 62.4 350.55 68.35 346.25 67.8 338.75
M 62.45 337.95
L 64.9 339.5 48.35 349.4 10.15 373.1 9.95 379.7
Q 15.5 373.65 22.3 369.05 41.45 355.9 61.25 343.85 63.45 342.5 65.65 341.2
L 11.5 384.55 9.95 384.45 0.85 381.35 1.6 372.15 8 372.95 6.35 371.5 2.1 370.95 60.85 337.55 62.45 337.95
M 181.55 216.8
L 179.85 209.25 178.05 215.55 179.5 223.7 179.85 225.05 180.35 226.65 182.1 232.8
Q 183.4 233.35 182.45 234.15 182.4 234.2 182.35 234.25
L 185.4 244.2 182.45 221.9 181.55 216.8
M 14.85 271.3
L 17.05 265.25 20.6 255.6 26.45 241
Q 16.85 248.85 15.15 261.25 14.35 267.15 12.65 272.85
L 20.75 279.55 11.6 281.9 22.35 284.35 17.75 293.6 27.65 289.4
Q 37.7 306.15 54.75 315.9
L 53.25 326.8
Q 76.95 338.55 103.1 335.5 73.25 355.25 47.85 380.55 47 381.4 46.15 382.3 44.65 389.65 50.9 393.35 53.9 395.15 57.35 394.8 63.6 394.25 68.2 389.5 72.5 385.05 76.8 380.55
L 110.5 342.5 107.25 336.35
Q 108.3 336.35 109.35 336.4 125.2 334.65 129.75 319.25 131.1 314.75 133.1 310.35 135.9 304.2 140.15 298.8 127.7 310.75 121 326.75 120.65 327.6 120.3 328.45
L 118.75 329.6 55.7 326.05 59.3 314.85 56.95 313.2 58.3 309.75 56.65 292.3 57.2 309.15 54.4 312.25 31.65 291.1 31.45 287.6 31.7 286.35 29.75 284.55 22.9 288.9 24.55 285 25.5 282.9 21 281.8 23.3 278.35 14.65 271.8 14.85 271.3
M 57.4 316.1
L 57 315.4 57.8 315.4 57.4 316.1
M 57.8 381.5
Q 57.6 382.3 57.45 383.15 56.85 386.85 60.25 388.35
L 60.6 382.6 108.05 342.4 60.85 392.05 50.1 390.7 49.5 381.65 55.35 380.8 49.55 379.95 103.95 338.55 106.45 339.3 57.8 381.5
M 104.95 283.4
Q 103.2 283.75 101.5 284.1
L 119.4 287.65 118.9 289.15 119.7 293.4 119.45 309.4 121.1 313.75
Q 121.35 312.9 121.6 312.05 125.2 299.25 122.25 286.25
L 120.1 284.65
Q 113.7 282.65 107.15 283.25 106.05 283.3 104.95 283.4
M 178.75 158.75
L 176.9 160.25 181.35 190.05 183.8 194.35 189.3 197.55
Q 198.6 201.5 207.15 206.75 214.45 211.35 220.2 217.7
L 226.45 218.7 225.85 238.85 222.6 238.5
Q 204.6 237.8 195.75 253.3 192.15 259.65 189.45 266.5 164.15 278 142.9 296.25
L 189.7 270.6
Q 189.65 273.9 189.65 277.2 189.6 299.95 200.15 319.95 209.35 337.4 228.95 335.15 242.65 333.75 248.6 320.85 258.9 298.8 250.55 275.4 245.45 261.05 236.1 248.85 232.95 244.8 229.05 241.55
L 229.95 217 228.1 213.85 224.75 214.8 184.35 190.15 179.55 160.95 184.3 156.4 177.6 156.2 179.4 151.05
Q 175.25 150.9 171.15 150.8 156.95 151.95 142.6 152.4 135.45 152.95 128.6 151.3 125.55 150.65 122.65 149.6
L 88.25 187.85 91.7 199.85 69.35 207.95 69.45 209.8 65.85 209.1 66.25 229.1 56.45 227.35 54.8 230.6 27.9 240.15 56.4 233.9 58 232 59.05 232.7 66.05 231.35 67.25 242.35 62.1 247.15 66.6 249.85 66.45 251.55 68.45 252.95 64.1 258.4 63.9 261 79.25 266.15
Q 79.4 266.25 79.5 266.4 80.1 267.3 78.8 266.85
L 62.35 270.15 60.85 277 57.3 276.15 57.65 285.35 59.55 279.8 61.8 280.1 63.45 279.25 64.3 273.35
Q 69.05 272.75 73.85 272.15 96.25 270.85 118.05 275.7
L 146.55 265.5 149.3 268.5 181.25 250.7 152.45 261.85 150.55 263.5 148.4 265.75 147 262.9
Q 130.8 270.6 112.8 270.3 88.45 269.85 67.65 257.35
L 71.35 253.15 70.65 251.1 65.25 246.45 70.35 242.65 68.9 233.1 70.85 232.2 68.6 228.25 69.9 217.45 73.05 210.45
Q 77.5 209.45 81.95 208.5 89.45 206.8 96.2 203.35 102.5 200.1 108.8 196.75
L 94.25 198.7 91.15 188.95 105.6 172.8 108.75 168.9 122.4 153.2 133.85 155.3 173.25 154.35 175.8 154.6 178.75 158.75
M 247.85 274.25
Q 249.15 280.85 249.9 287.35 251.55 301.65 247.05 315.15 245.35 320.25 242.6 324.8 239.45 329.9 233.8 331.95
L 240.15 314.6 243.1 315
Q 242.25 303.9 233.25 297.45 232.35 296.8 231.5 296.15
L 231.5 291.05 244.1 303.9
Q 244.45 283.6 238.95 264
L 236.7 264.35 230.6 280.75 228.6 269.55 235.1 255.3 232.85 256.45 226.45 248.95
Q 244.15 255.25 247.85 274.25
M 226.85 244.45
Q 227.65 244.75 228.45 245.1 212.6 243.5 205.95 257.85 193.35 284.95 205.9 312.25 211.8 325.15 222.25 334.7 199 325.7 195.2 300.95 191.3 275.65 198.6 251.15 210.9 240.55 226.85 244.45
M 228.35 264.85
L 226.9 253.35 231.4 258.75 228.35 264.85
M 204.65 264.8
L 207.5 256.1 210.8 257.15 216.3 252.15 219.5 278.4 203.6 270.5 204.65 264.8
M 218.2 287.65
L 202.85 277.8 203.35 273.5 218.7 281.9 222.25 282.6 219 248.1 224.05 247.85 227.5 315.65 228.65 330.35 232 332.65 228.85 332.9 225.15 332.35
Q 224.2 317.5 223.2 302.7 223.05 300.75 220.9 300.75
L 219.55 302.05 209.6 314.15 207.25 307.7 218.25 297.2 221.95 291.15 218.2 287.65
M 202.8 281.45
L 218.45 291.55 206.75 304.8 205.45 300.05 202.8 281.45
M 236.7 275.2
L 239.95 296.3 230.95 286.4 236.7 275.2
M 232.05 301.75
L 237 307.75 233.9 319.5 232.05 301.75
M 211.2 316.85
L 220.05 305.35 222.35 327.15 221.1 329.9 211.2 316.85 Z"/>

<path fill="#CDC2A6" stroke="none" d="
M 62.45 337.95
L 60.85 337.55 2.1 370.95 6.35 371.5 8 372.95 1.6 372.15 0.85 381.35 9.95 384.45 9.95 379.7 10.15 373.1 48.35 349.4 62.45 337.95
M 57.45 383.15
Q 57.6 382.3 57.8 381.5
L 106.45 339.3 103.95 338.55 49.55 379.95 55.35 380.8 49.5 381.65 50.1 390.7 60.85 392.05 60.25 388.35
Q 56.85 386.85 57.45 383.15
M 228.65 330.35
L 228.85 332.9 232 332.65 228.65 330.35
M 222.25 282.6
L 218.7 281.9 218.2 287.65 221.95 291.15 218.25 297.2 219.55 302.05 220.9 300.75 223.8 298.4 226.25 300.05 227.5 315.65 224.05 247.85 219 248.1 222.25 282.6
M 228.45 245.1
Q 227.65 244.75 226.85 244.45 210.9 240.55 198.6 251.15 191.3 275.65 195.2 300.95 199 325.7 222.25 334.7 211.8 325.15 205.9 312.25 193.35 284.95 205.95 257.85 212.6 243.5 228.45 245.1 Z"/>

<path fill="#5B564B" stroke="none" d="
M 65.65 341.2
Q 63.45 342.5 61.25 343.85 41.45 355.9 22.3 369.05 15.5 373.65 9.95 379.7
L 9.95 384.45 11.5 384.55 65.65 341.2
M 64.9 339.5
L 62.45 337.95 48.35 349.4 64.9 339.5
M 60.6 382.6
L 60.25 388.35 60.85 392.05 108.05 342.4 60.6 382.6
M 218.25 297.2
L 207.25 307.7 209.6 314.15 219.55 302.05 218.25 297.2
M 227.5 315.65
L 226.25 300.05 223.8 298.4 220.9 300.75
Q 223.05 300.75 223.2 302.7 224.2 317.5 225.15 332.35
L 228.85 332.9 228.65 330.35 227.5 315.65
M 202.85 277.8
L 218.2 287.65 218.7 281.9 203.35 273.5 202.85 277.8
M 249.9 287.35
Q 249.15 280.85 247.85 274.25 244.15 255.25 226.45 248.95
L 232.85 256.45 235.1 255.3 228.6 269.55 230.6 280.75 236.7 264.35 238.95 264
Q 244.45 283.6 244.1 303.9
L 231.5 291.05 231.5 296.15
Q 232.35 296.8 233.25 297.45 242.25 303.9 243.1 315
L 240.15 314.6 233.8 331.95
Q 239.45 329.9 242.6 324.8 245.35 320.25 247.05 315.15 251.55 301.65 249.9 287.35 Z"/>

<path fill="#FFEEAD" stroke="none" d="
M 182.35 234.25
Q 182.4 234.2 182.45 234.15 183.4 233.35 182.1 232.8
L 182.35 234.25
M 180.35 226.65
L 179.85 225.05 173.05 227.75 180.35 226.65
M 188.5 220.8
Q 190.35 219.95 189.8 218.9 189.2 217.85 186.5 217.25 183.8 216.65 181.55 216.8
L 182.45 221.9
Q 186.6 221.65 188.5 220.8
M 214 216
Q 215.9 217 217.85 218 220.75 221.6 221.75 226.6 222.95 232.45 222.6 238.5
L 225.85 238.85 226.45 218.7 220.2 217.7
Q 214.45 211.35 207.15 206.75 198.6 201.5 189.3 197.55 200.4 208.5 214 216
M 79.25 266.15
L 78.8 266.85
Q 80.1 267.3 79.5 266.4 79.4 266.25 79.25 266.15
M 31.45 287.6
L 31.65 291.1 36.75 283.2 31.45 287.6
M 51.9 261.1
L 54.25 262.5 65.95 263 51.9 261.1
M 58 232
L 56.4 233.9 27.9 240.15 26.45 241 20.6 255.6 23 254.3 23.75 249.35 28.75 250.2 25.45 251.65 25.15 257.3 21.85 258.35 23.3 261.1 17.05 265.25 14.85 271.3
Q 16.05 271.2 14.95 271.6 14.8 271.7 14.65 271.8
L 23.3 278.35 21 281.8 25.5 282.9 24.55 285 41.7 277.55 34.75 292.2 40.55 292.6 52.65 306.95 56 274.75 47.6 267.2 47.4 262.7 32.35 259.5 44 257.7 31.35 243.25 47.5 257.55 57.4 254.3 50.3 246.45 63.35 256.25 62.2 257.6 64.1 258.4 68.45 252.95 66.45 251.55 66.6 249.85 62.1 247.15 67.25 242.35 66.05 231.35 59.05 232.7 58 232
M 44.3 245.65
L 45.4 244.7 50.6 253.65 44.3 245.65
M 119.45 277.45
L 118.05 275.7
Q 96.25 270.85 73.85 272.15 69.05 272.75 64.3 273.35
L 63.45 279.25 61.8 280.1 58.3 309.75 56.95 313.2 59.3 314.85 55.7 326.05 118.75 329.6 120.3 328.45 120.05 315.05 118.55 313.35 119.45 309.4 119.7 293.4 117.6 295.15 118.05 292.55 111.85 288.5 118.9 289.15 119.4 287.65 101.5 284.1
Q 103.2 283.75 104.95 283.4 106.05 283.3 107.15 283.25 113.7 282.65 120.1 284.65
L 146.1 273.5 119.45 277.45
M 95.25 280.55
L 91.15 287.1 99.8 285.9 87.9 290.65 91.05 283.25 83.85 284.65 83.6 282.55 69.65 283.25 73.1 279.4 77.85 281.25 87.65 278.6 89 280.5 95.25 280.55
M 73.5 300.45
L 75.15 300.85 66.3 308 64.85 304.8 69.6 297.85 66.05 306.45 73.5 300.45
M 75.8 312.95
Q 73.9 314.6 71.3 315.05
L 69.75 311.95 75.7 305.65 72.8 312.45 78.75 308.65
Q 77.95 309.9 77.2 311.15 77 311.45 76.8 311.8 76.35 312.4 75.8 312.95
M 77.95 323.85
L 79.65 322.75 82.3 316.15 83.1 323.25 77.05 325.95 76.35 320.05 61.95 323.35 77.55 318.1 77.95 323.85
M 110.45 320.3
L 111.15 317.25 115.3 325.1 106.3 323.25 101.15 326.75 97.1 320.35 110.45 320.3
M 81.45 313.05
L 81.5 309.5 84.75 308.7 81.45 313.05
M 112.65 326.65
L 116.6 326.45 115.1 326.75 112.65 326.65
M 108.75 168.9
L 113.9 167.05 104.45 176.5 105.6 172.8 91.15 188.95 94.25 198.7 108.8 196.75
Q 102.5 200.1 96.2 203.35 89.45 206.8 81.95 208.5 77.5 209.45 73.05 210.45
L 83.65 214.3 71.75 214.2 75.95 219.8 73.15 221.2 69.9 217.45 68.6 228.25 70.85 232.2 68.9 233.1 70.35 242.65 65.25 246.45 79.15 248.55 70.65 251.1 71.35 253.15 67.65 257.35
Q 88.45 269.85 112.8 270.3 130.8 270.6 147 262.9
L 150.55 263.5 152.45 261.85
Q 141.5 260.45 131.75 265.55 131.5 265.7 131.3 265.85
L 129.7 265.65 123.05 269.25
Q 116.9 244.6 122.25 219.8
L 111.25 219.85 109.2 217.95 101.3 222.05 100.4 220.05 94.6 218.4 96.65 213.65 88.15 212.7 102 212.7 98.55 216.35 121.85 216.85 123 213.4 170.9 208.25 168.9 210.7 175.55 207.45 174 209.9 176.85 210 172.2 216.4 179.5 223.7 178.05 215.55 175.55 215 179.65 208.3 178.9 204.55 174.55 205.95 174.35 198.45 165.4 197.75 163.8 199.9 164.2 197.55 157 200.55 156.75 197.55 146.2 200.3 144.75 198.7 128.7 194.55 127 181.05 125.05 155.75 133.85 155.3 122.4 153.2 108.75 168.9
M 112.2 197.35
L 118.65 193.2 126.3 195.95 119.6 196.25 117.55 195.55 116.85 199.05 115.65 199.95 114.15 198.65 112.9 199.2 112.2 197.35
M 118.15 179.75
L 119.85 176.15 110.5 180.95 110.15 178.1 119.5 170.3 114.55 177.15 121.8 173.65 120.35 178.15 120.95 179.7 118.15 179.75
M 115.3 189.3
Q 115.9 186.15 118.7 184.75 122.1 183.15 125.55 181.6
L 121.9 185.8 115.3 189.3
M 83 235.2
L 81.8 235.8 104.35 264.35 100.9 265.95 85.45 261.6 83.55 259.45 77.75 260.6 77.3 258.55 80.25 255.75 85.5 255.15 87.05 257.65 98.75 261.25 79.15 232 83 235.2
M 91.9 241.35
L 99.4 247.45 97.1 246.7 91.9 241.35
M 101.65 243.3
L 106.85 237.55 110.3 237.25 105.1 241.25 109.75 242.3 102.65 253.4 107.6 244.7 101.65 243.3
M 105.15 233.65
Q 104.65 233.85 104.15 234.05 95.1 235.4 88.75 228.8
L 105.15 233.65
M 181.3 236.45
L 179.15 239.5 181.65 244.95 178.4 246.6 183.3 246.05 182.4 242.25 182.9 240.6 181.3 236.45
M 171.85 235.2
L 162 239 161.55 240.45 172.6 237.1 171.85 235.2
M 166.2 233.8
L 168.75 231.35 162.8 233.9 166.2 233.8
M 216.45 222.7
L 203.2 219.6 211.95 222.6 204.85 233.05 209.95 231.15 208.65 229.35 212.65 225.05 216.45 222.7
M 155.2 272.75
L 155.55 274.5 164.8 270.5 167.7 272.55 170.4 270.45 169.8 268.25 170.85 265.5 157.95 271.65 166.1 264.6 155.2 272.75
M 154.8 229.8
L 157.65 229.15 166.1 223.8 154.8 229.8
M 145.9 242.2
L 153.4 241.95 138.75 250.15 156.45 241.05 149.8 240.9 156.9 234.8 145.9 242.2
M 135.4 180.9
L 136.85 177.5 140.85 173.55 138.8 166.7 135.4 180.9
M 171.25 182.85
L 171.1 181.6 169.15 182.5 173.7 188.25 174.65 190.4 177.1 188.7 171.25 182.85
M 170.25 161.4
L 164.8 160.95 166.95 157.15 158.3 159.95 156.35 162.65 162.3 161.4 163.6 163.15 170.25 161.4
M 176.9 160.25
L 178.75 158.75 175.8 154.6 173.25 154.35 181.35 190.05 176.9 160.25 Z"/>

<path fill="#AD9B57" stroke="none" d="
M 70.65 251.1
L 79.15 248.55 65.25 246.45 70.65 251.1
M 24.55 285
L 22.9 288.9 29.75 284.55 31.7 286.35 31.45 287.6 36.75 283.2 31.65 291.1 54.4 312.25 57.2 309.15 56.65 292.3 58.3 309.75 61.8 280.1 59.55 279.8 57.65 285.35 57.3 276.15 60.85 277 62.35 270.15 78.8 266.85 79.25 266.15 63.9 261 64.1 258.4 62.2 257.6 63.35 256.25 50.3 246.45 57.4 254.3 47.5 257.55 31.35 243.25 44 257.7 32.35 259.5 47.4 262.7 47.6 267.2 56 274.75 52.65 306.95 40.55 292.6 34.75 292.2 41.7 277.55 24.55 285
M 54.25 262.5
L 51.9 261.1 65.95 263 54.25 262.5
M 14.65 271.8
Q 14.8 271.7 14.95 271.6 16.05 271.2 14.85 271.3
L 14.65 271.8
M 23.75 249.35
L 23 254.3 20.6 255.6 17.05 265.25 23.3 261.1 21.85 258.35 25.15 257.3 25.45 251.65 28.75 250.2 23.75 249.35
M 45.4 244.7
L 44.3 245.65 50.6 253.65 45.4 244.7
M 73.05 210.45
L 69.9 217.45 73.15 221.2 75.95 219.8 71.75 214.2 83.65 214.3 73.05 210.45
M 148.4 265.75
L 150.55 263.5 147 262.9 148.4 265.75
M 117.6 295.15
L 119.7 293.4 118.9 289.15 111.85 288.5 118.05 292.55 117.6 295.15
M 81.5 309.5
L 81.45 313.05 84.75 308.7 81.5 309.5
M 111.15 317.25
L 110.45 320.3 97.1 320.35 101.15 326.75 106.3 323.25 115.3 325.1 111.15 317.25
M 79.65 322.75
L 77.95 323.85 77.55 318.1 61.95 323.35 76.35 320.05 77.05 325.95 83.1 323.25 82.3 316.15 79.65 322.75
M 71.3 315.05
Q 73.9 314.6 75.8 312.95 76.35 312.4 76.8 311.8 77 311.45 77.2 311.15 77.95 309.9 78.75 308.65
L 72.8 312.45 75.7 305.65 69.75 311.95 71.3 315.05
M 75.15 300.85
L 73.5 300.45 66.05 306.45 69.6 297.85 64.85 304.8 66.3 308 75.15 300.85
M 91.15 287.1
L 95.25 280.55 89 280.5 87.65 278.6 77.85 281.25 73.1 279.4 69.65 283.25 83.6 282.55 83.85 284.65 91.05 283.25 87.9 290.65 99.8 285.9 91.15 287.1
M 104.15 234.05
Q 104.65 233.85 105.15 233.65
L 88.75 228.8
Q 95.1 235.4 104.15 234.05
M 106.85 237.55
L 101.65 243.3 107.6 244.7 102.65 253.4 109.75 242.3 105.1 241.25 110.3 237.25 106.85 237.55
M 99.4 247.45
L 91.9 241.35 97.1 246.7 99.4 247.45
M 81.8 235.8
L 83 235.2 79.15 232 98.75 261.25 87.05 257.65 85.5 255.15 80.25 255.75 77.3 258.55 77.75 260.6 83.55 259.45 85.45 261.6 100.9 265.95 104.35 264.35 81.8 235.8
M 118.7 184.75
Q 115.9 186.15 115.3 189.3
L 121.9 185.8 125.55 181.6
Q 122.1 183.15 118.7 184.75
M 119.85 176.15
L 118.15 179.75 120.95 179.7 120.35 178.15 121.8 173.65 114.55 177.15 119.5 170.3 110.15 178.1 110.5 180.95 119.85 176.15
M 118.65 193.2
L 112.2 197.35 112.9 199.2 114.15 198.65 115.65 199.95 116.85 199.05 117.55 195.55 119.6 196.25 126.3 195.95 118.65 193.2
M 108.75 168.9
L 105.6 172.8 104.45 176.5 113.9 167.05 108.75 168.9
M 189.3 197.55
L 183.8 194.35 181.35 190.05 173.25 154.35 133.85 155.3 125.05 155.75 127 181.05 128.7 194.55 144.75 198.7 146.2 200.3 156.75 197.55 157 200.55 164.2 197.55 163.8 199.9 165.4 197.75 174.35 198.45 174.55 205.95 178.9 204.55 179.65 208.3 175.55 215 178.05 215.55 179.85 209.25 181.55 216.8
Q 183.8 216.65 186.5 217.25 189.2 217.85 189.8 218.9 190.35 219.95 188.5 220.8 186.6 221.65 182.45 221.9
L 185.4 244.2 182.35 234.25 182.1 232.8 180.35 226.65 173.05 227.75 179.85 225.05 179.5 223.7 172.2 216.4 176.85 210 174 209.9 175.55 207.45 168.9 210.7 170.9 208.25 123 213.4 121.85 216.85 98.55 216.35 102 212.7 88.15 212.7 96.65 213.65 94.6 218.4 100.4 220.05 101.3 222.05 109.2 217.95 111.25 219.85 122.25 219.8
Q 116.9 244.6 123.05 269.25
L 129.7 265.65 131.3 265.85
Q 131.5 265.7 131.75 265.55 141.5 260.45 152.45 261.85
L 181.25 250.7 149.3 268.5 146.55 265.5 118.05 275.7 119.45 277.45 146.1 273.5 120.1 284.65 122.25 286.25
Q 125.2 299.25 121.6 312.05 121.35 312.9 121.1 313.75
L 119.45 309.4 118.55 313.35 120.05 315.05 120.3 328.45
Q 120.65 327.6 121 326.75 127.7 310.75 140.15 298.8
L 142.9 296.25
Q 164.15 278 189.45 266.5 192.15 259.65 195.75 253.3 204.6 237.8 222.6 238.5 222.95 232.45 221.75 226.6 220.75 221.6 217.85 218 215.9 217 214 216 200.4 208.5 189.3 197.55
M 164.8 160.95
L 170.25 161.4 163.6 163.15 162.3 161.4 156.35 162.65 158.3 159.95 166.95 157.15 164.8 160.95
M 171.1 181.6
L 171.25 182.85 177.1 188.7 174.65 190.4 173.7 188.25 169.15 182.5 171.1 181.6
M 136.85 177.5
L 135.4 180.9 138.8 166.7 140.85 173.55 136.85 177.5
M 153.4 241.95
L 145.9 242.2 156.9 234.8 149.8 240.9 156.45 241.05 138.75 250.15 153.4 241.95
M 157.65 229.15
L 154.8 229.8 166.1 223.8 157.65 229.15
M 155.55 274.5
L 155.2 272.75 166.1 264.6 157.95 271.65 170.85 265.5 169.8 268.25 170.4 270.45 167.7 272.55 164.8 270.5 155.55 274.5
M 203.2 219.6
L 216.45 222.7 212.65 225.05 208.65 229.35 209.95 231.15 204.85 233.05 211.95 222.6 203.2 219.6
M 168.75 231.35
L 166.2 233.8 162.8 233.9 168.75 231.35
M 162 239
L 171.85 235.2 172.6 237.1 161.55 240.45 162 239
M 179.15 239.5
L 181.3 236.45 182.9 240.6 182.4 242.25 183.3 246.05 178.4 246.6 181.65 244.95 179.15 239.5 Z"/>

<path fill="#70513A" stroke="none" d="
M 116.6 326.45
L 112.65 326.65 115.1 326.75 116.6 326.45 Z"/>
</g>
</defs>

<g transform="matrix( 1, 0, 0, 1, 374.95,127.8) ">
<g transform="matrix( 1, 0, 0, 1, 0,0) ">
<use xlink:href="#barren_prop_26_Layer2_0_FILL"/>
</g>

<g transform="matrix( 1, 0, 0, 1, 0,0) ">
<use xlink:href="#barren_prop_26_Layer1_0_FILL"/>
</g>

<g transform="matrix( 1, 0, 0, 1, 0,0) ">
<use xlink:href="#barren_prop_26_Layer0_0_FILL"/>
</g>
</g>
</svg>
