
<svg xmlns="http://www.w3.org/2000/svg" version="1.1" xmlns:xlink="http://www.w3.org/1999/xlink" preserveAspectRatio="none" x="0px" y="0px" width="600px" height="1400px" viewBox="0 0 600 1400">
<defs>
<linearGradient id="Gradient_1" gradientUnits="userSpaceOnUse" x1="300.35" y1="114.80000000000001" x2="300.35" y2="-16.500000000000007" spreadMethod="pad">
<stop  offset="0%" stop-color="#AD7036"/>

<stop  offset="100%" stop-color="#E7C661"/>
</linearGradient>

<g id="bg_grass_hills_2_Layer1_0_FILL">
<path fill="#874300" stroke="none" d="
M 599.15 106.35
L -2.25 106.35 -2.25 1238.05 599.15 1238.05 599.15 106.35 Z"/>
</g>

<g id="bg_grass_hills_2_Layer0_0_FILL">
<path fill="#CC9900" stroke="none" d="
M 160.65 73.2
Q 159.65 72.15 158.15 72.15 156.7 72.15 155.7 73.2 154.65 74.2 154.65 75.65
L 158.8 79.1 164.5 76.95 161.7 75.65
Q 161.7 74.2 160.65 73.2
M 117.5 68.75
L 111.75 71.75 112.7 75.15 121.65 75.8 123.4 74.7 136.2 77.9 138.9 76.45
Q 140.05 77.05 141.2 77.65 148.65 81.5 154.2 75.65
L 147.75 67.25
Q 146.4 67.7 145.2 68.15 136.5 70.95 128.15 67.4
L 125.6 68.2 123.75 70.65 117.5 68.75
M 95.55 46.1
L 93.35 48.35 93.85 52.6 109.95 58.7 112.35 57.55 113.7 54.2 110.25 49.1 95.55 46.1
M 424.35 77.15
Q 423.6 78.25 423.6 79.8
L 427 79.55 426.15 76.05
Q 425.1 76.05 424.35 77.15
M 408.95 58.3
L 405.55 55.5 401.9 58.3 401.65 54.15 398.35 50.95
Q 397.6 44.05 390.6 43.6 387.65 43.35 385.3 45.2 383.5 46.6 382.6 48.65 382.4 50.05 382.9 51.3 383.55 52.95 384.55 54.35 385.5 55.85 386.9 56.95 388.15 57.85 389.6 58.6
L 393.3 58.4 395.65 61.6 399.65 61.35 403.65 63.95 405.5 60.85 408.8 60.15 407.75 67.3 410.45 68.75 412.55 68.45 417.25 76 422.6 75.95 424.35 71.45
Q 424.35 69.5 424.1 67.6 423.15 61 416.2 61.9
L 415.9 57.55 412.7 55.7 410.6 56.35 408.95 58.3
M 592.4 -14.7
L 591.6 -8.75
Q 592.85 -8.75 594.1 -8.75 597 -8.65 599.15 -7.55
L 599.15 -12.35
Q 596.2 -14.7 592.4 -14.7
M 570.15 -31.8
L 573.3 -27.85
Q 570.75 -19.45 574.9 -11.95 575.75 -10.4 577.05 -9.1
L 581.55 -9.05 584.35 -16.2 591.95 -15.35
Q 591.95 -18.95 590 -21.5 588 -24.05 585.2 -24.05
L 583.5 -20 574.5 -34.3 570.15 -31.8
M 582.5 -51.45
Q 579.25 -54.6 574.65 -55.45
L 569.8 -48.55 576.9 -45.5 578.85 -40.65 580.85 -39.8 583.55 -34.8 586.4 -34.65 588.65 -41.55 586.25 -43.8
Q 585.75 -48.2 582.5 -51.45
M 502.35 -56.05
L 503.15 -62.7 500.55 -58.8 502.35 -56.05
M 551.6 -75.35
Q 533.8 -72.35 527.2 -54.95 526.05 -51.85 524.1 -49.05 523 -58.65 513.4 -58.3 508 -57.7 502.55 -55.7
L 494.6 -62.5 489.3 -56.25 497.9 -39.6 501.55 -38.65 507.95 -49.75
Q 510.4 -50.1 512.95 -50.45 514.45 -50.4 516 -50.1 517.9 -49.7 519.8 -49.05 521.85 -48.4 523.65 -46.65
L 520.75 -44.6 521.6 -37.45 529.05 -38.85 527.7 -45.65 529.35 -48.55 531.65 -44.3 534.8 -47.1 532.2 -51.8 534.6 -52.9 535.8 -56.05 539.35 -54.95 543.1 -61 561.8 -62.65 564.9 -66.8 565.4 -60.5 569.35 -58.6 572.65 -61.15 574.1 -59.15
Q 571.55 -78.55 551.6 -75.35
M 429.15 -107
Q 422 -105.15 415.55 -101.65 409.05 -98.2 403.3 -93.65 391.55 -107.8 377.3 -95 369.7 -88.1 368.55 -77.9
L 366.7 -76.7 368.4 -68.05 374.05 -70.35 373.6 -75.8 376.8 -76.9 378.9 -81.25 377.65 -86.7 383.25 -83.4 389.5 -87.1 405.65 -81.1 409.5 -81.8 417.85 -92.8 420.2 -90.65 446.85 -98.05 453.45 -95.05 445.35 -84.95 448.65 -82.4 463.6 -91.9 466.7 -91.9
Q 468.35 -89.35 471.4 -88.7 478.85 -87.7 481.95 -94.25
L 480.6 -90.9 487.7 -86.8
Q 488.55 -86.95 489.4 -87.1 501 -87.45 505.9 -77.2 506.3 -94.6 488.6 -96.55 487.65 -96.4 486.7 -96.2
L 480.15 -101.1 479.75 -101.4 460.4 -102.2
Q 445.4 -111.05 429.15 -107
M 102.7 -13.3
Q 92.75 -7.05 82.1 -1.85
L 82.1 3.5 92.7 -0.15 96.15 6.05 108.75 5.6 111.3 3.45 144.6 9.2 146.1 4.35 140.5 2.5 136.25 -2.3 132.6 -1.9 127.3 -7.1
Q 129.1 -10.35 131.05 -13.55 135.4 -20.55 143.5 -19.65
L 138.95 -27.2
Q 130 -21.75 125.85 -12.35 125.2 -11 124.65 -9.6
L 121 -9.4
Q 113 -19.85 102.7 -13.3
M 150.65 -53.6
L 153.9 -56.15 156.95 -53.8
Q 157 -50.25 158.9 -47.3 159.85 -45.9 161.15 -45.2 164.15 -43.75 167.4 -44.35 170.2 -45 172.1 -47.05 173.15 -48.1 173.3 -49.6 173.6 -52.65 172.3 -55.35
L 179.25 -56.9 184.05 -53.25 187.45 -43.25 191.8 -44.2 188.7 -49.35 191.65 -62.15
Q 192.75 -62.8 193.95 -63.4 198.5 -65.8 203.8 -66.55 207 -66.75 210.1 -66.95 212.2 -66.9 213.95 -66.05
L 213.65 -59.3 221.45 -55.9 224.4 -58.95 227.25 -57.55 245.05 -62.45 241 -58.25 243.75 -52.65 252.55 -54.8 255.3 -58.9 261.1 -61.15 269 -55.6 270.6 -50.8 277.15 -48.5 274.8 -43.5 271 -42.6 281.15 -31.3 286.8 -31.1 293.35 -24.05 298.25 -26.45 299.15 -30.75 305.75 -33.35 307.45 -28.3 323.9 -23.25 325.3 -24.8
Q 330.4 -26.25 335.3 -27.7 335.75 -27.8 336.15 -28.1 336.55 -28.35 336.8 -28.75 337.7 -29.8 338.45 -30.95 338.9 -31.7 339.3 -32.5
L 349.2 -29.85 343.1 -21.15 347.2 -19.6 352.7 -21.4 356.8 -27.2 360.65 -27.05 367.35 -38.2 374.75 -41.7 371.15 -44.45 378.15 -45.35 372.55 -53.25
Q 368.55 -51 364.7 -48.65 364.05 -48.35 363.5 -47.9 362.95 -47.45 362.4 -46.95 361.9 -46.45 361.45 -45.9 360.95 -45.35 360.55 -44.75 357.95 -41.15 355.4 -37.5
L 319.15 -34.75 317.9 -39.3 289.55 -39.05 280.15 -50 282.55 -55.6 278.85 -60.65 278.8 -62.15
Q 276.75 -72.25 265.35 -72.35 258.45 -72.4 251.3 -72.4
L 249.1 -77.65
Q 229.8 -87.85 218.05 -81.55 206.3 -75.3 196.65 -72.5 191.45 -70.95 184.5 -57.95 166.45 -73.65 146.9 -64.65
L 138.8 -34.3 143.15 -39.8 145.2 -37.65 149.85 -43.9 150.65 -53.6
M 224.1 -63.15
L 223.25 -64.85 225 -64.85 224.1 -63.15
M 283.35 -39.8
Q 283.3 -38 283.3 -39.95 283.35 -39.9 283.35 -39.8
M 276.55 -42.45
L 276.25 -42.7 276.85 -42.7 276.55 -42.45
M 317.9 -32.3
Q 317.85 -32.15 317.8 -32 317.2 -30.75 317.9 -32.3
M 365.25 -40.6
Q 363.85 -41.25 365.25 -40.7 365.25 -40.65 365.25 -40.6
M 21.2 -3.65
Q 27.6 -10.6 37.35 -10.35
L 35.75 -5.5 41 -1.05 44.4 -2.5 45.85 -8.25 54.75 -13.2
Q 58.5 -12.2 61.4 -9.6 68.7 -3 76.15 -9.2
L 81.9 -3.25
Q 76.5 -24.75 53.75 -21.2 46.1 -19.95 40.1 -14.95 26.65 -17.75 18.65 -6.5 16.9 -4 15.25 -1.3 3.45 -0.25 -2.25 9.6
L -2.25 18.35 1.2 17.5 4.2 13.8 9 15.35 11.4 9.85 2.8 7 16 5.3
Q 17.55 0.25 21.2 -3.65
M 62.75 16.15
Q 63.75 15.15 63.75 13.75 63.75 12.35 62.75 11.35 61.7 10.35 60.25 10.35 58.8 10.35 57.75 11.35 56.75 12.35 56.75 13.75 56.75 15.15 57.75 16.15 58.8 17.15 60.25 17.15 61.7 17.15 62.75 16.15
M 80.4 4.3
Q 78.3 3.05 75.45 3.05 72.55 3.05 70.45 4.3 68.45 5.5 68.45 7.25 68.45 9 70.45 10.25 72.55 11.45 75.45 11.45 78.3 11.45 80.4 10.25 82.4 9 82.4 7.25 82.4 5.5 80.4 4.3
M 103.3 77.4
L 103.3 71.65 86.15 71.65 86.15 77.4 103.3 77.4
M 86.85 49
L 81.15 49 81.15 54.7 86.85 54.7 86.85 49
M 84.15 6.7
Q 82.75 8.05 82.75 9.95 82.75 11.85 84.15 13.2 85.5 14.55 87.5 14.55 89.5 14.55 90.85 13.2 92.25 11.85 92.25 9.95 92.25 8.05 90.85 6.7 89.5 5.35 87.5 5.35 85.5 5.35 84.15 6.7
M 171.25 14.45
L 167.65 16.25 161.45 17.9 156.9 15.6 152.7 17.75 151.85 20.6 155.35 23.5 161.45 21.15 163.9 23.05 174 21.1 175.3 17.05 171.25 14.45
M 196.55 10
Q 194.5 8.35 191.95 8.8 189.85 9.05 187.8 9.7
L 184.35 7.4 177.15 12.2 179.95 18.75 178.3 21.05 179.3 24.3 185.5 23.05 184.75 19.75 201.85 25 204 21.7
Q 202.15 14.45 196.55 10
M 226.85 30.6
Q 226.5 30.9 226.5 31.4 226.5 31.9 226.85 32.25 227.15 32.55 227.7 32.55 228.2 32.55 228.55 32.25 228.85 31.9 228.85 31.4 228.85 30.9 228.55 30.6 228.2 30.25 227.7 30.25 227.15 30.25 226.85 30.6
M 206.3 33.55
L 203.6 30.35 203.6 30.4 203.55 30.3 201.7 34.65 206.3 33.55
M 227.75 4.6
Q 226.85 4.6 226.3 5.2 225.7 5.75 225.7 6.6 225.7 7.45 226.3 8.05 226.85 8.6 227.75 8.6 228.6 8.6 229.25 8.05 229.8 7.45 229.8 6.6 229.8 5.75 229.25 5.2 228.6 4.6 227.75 4.6
M 247 31.35
Q 248 30.3 248 28.85 248 27.4 247 26.4 245.95 25.35 244.5 25.35 242.95 25.35 241.95 26.4 240.9 27.4 240.9 28.85 240.9 30.3 241.95 31.35 242.95 32.35 244.5 32.35 245.95 32.35 247 31.35
M 261.5 35.15
L 260.5 31.45 255.8 27.15 250.6 29.95 254.35 36.85 257.05 38.2 261.5 35.15
M 250.25 6.1
Q 250.25 4.65 249.25 3.65 248.15 2.6 246.7 2.6 245.25 2.6 244.15 3.65 243.1 4.65 243.1 6.1 243.1 7.55 244.15 8.6 245.25 9.6 246.7 9.6 248.15 9.6 249.25 8.6 250.25 7.55 250.25 6.1
M 365.9 55.55
L 380.15 55.55 380.15 49.85 365.9 49.85 365.9 55.55
M 343.75 34.2
Q 342.95 33.4 341.75 33.4 340.55 33.4 339.75 34.2 338.95 35 338.95 36.15 338.95 37.3 339.75 38.1 340.55 38.9 341.75 38.9 342.95 38.9 343.75 38.1 344.55 37.3 344.55 36.15 344.55 35 343.75 34.2
M 404.25 41.95
Q 404.25 40.95 403.55 40.25 402.85 39.55 401.8 39.55 400.75 39.55 400.05 40.25 399.35 40.95 399.35 41.95 399.35 42.95 400.05 43.65 400.75 44.35 401.8 44.35 402.85 44.35 403.55 43.65 404.25 42.95 404.25 41.95
M 365.95 39.35
L 367.85 29.3 360.35 22.45 351 22.45
Q 348 24.4 346.65 27.45 346.1 28.65 346.15 29.95 346.15 31.25 346.6 32.6 346.85 33.3 347.3 33.95 347.75 34.65 348.3 35.3
L 351.7 36.8 359.95 33.25 361.6 38.8 365.95 39.35
M 368.9 29.05
L 372.75 33.9 393.7 38.4 396.4 35
Q 391.15 31.05 385.8 27.25 377.85 21.65 368.8 25.15
L 368.9 29.05
M 407.8 45.55
Q 407.2 44.95 406.35 44.95 405.5 44.95 404.9 45.55 404.3 46.15 404.3 47 404.3 47.85 404.9 48.45 405.5 49.05 406.35 49.05 407.2 49.05 407.8 48.45 408.35 47.85 408.35 47 408.35 46.15 407.8 45.55
M 521.3 28.35
Q 519.85 28.35 518.8 29.4 517.75 30.4 517.75 31.85 517.75 33.3 518.8 34.35 519.85 35.35 521.3 35.35 522.8 35.35 523.85 34.35 524.9 33.3 524.9 31.85 524.9 30.4 523.85 29.4 522.8 28.35 521.3 28.35
M 521.95 24.45
Q 521.95 22.55 520.6 21.2 519.2 19.85 517.25 19.85 515.25 19.85 513.85 21.2 512.5 22.55 512.5 24.45 512.5 26.35 513.85 27.7 515.25 29.05 517.25 29.05 519.2 29.05 520.6 27.7 521.95 26.35 521.95 24.45
M 579.55 -5.2
Q 580 -5.7 580 -6.4 580 -7.1 579.55 -7.55 579.05 -8.05 578.35 -8.05 577.7 -8.05 577.25 -7.55 576.75 -7.1 576.75 -6.4 576.75 -5.7 577.25 -5.2 577.7 -4.75 578.35 -4.75 579.05 -4.75 579.55 -5.2
M 574.9 -1.8
Q 574 -2.65 572.85 -2.65 571.7 -2.65 570.9 -1.8 570.05 -1 570.05 0.15 570.05 1.3 570.9 2.15 571.7 2.95 572.85 2.95 574 2.95 574.9 2.15 575.7 1.3 575.7 0.15 575.7 -1 574.9 -1.8
M 566.35 -37.6
Q 565.3 -37.6 564.6 -36.85 563.9 -36.15 563.9 -35.15 563.9 -34.15 564.6 -33.4 565.3 -32.7 566.35 -32.7 567.4 -32.7 568.1 -33.4 568.8 -34.15 568.8 -35.15 568.8 -36.15 568.1 -36.85 567.4 -37.6 566.35 -37.6
M 511.7 -37.35
Q 510.35 -38.1 508.5 -38.1 506.55 -38.1 505.25 -37.35 503.95 -36.6 503.95 -35.5 503.95 -34.4 505.25 -33.65 506.55 -32.9 508.5 -32.9 510.35 -32.9 511.7 -33.65 513 -34.4 513 -35.5 513 -36.6 511.7 -37.35
M 463.75 -5.25
L 458.85 -3.75 459.1 1.35 462.3 3.05 466.9 1.45 473.8 5.35 485.45 -4.25 491.2 -2.15 495.7 6.05 499.2 7.45 499.6 11.3 497.35 14.35 497.5 17.25 503.3 21.75 509 19.7 509 15.15
Q 507.75 12.4 506.25 9.85 504.3 6.4 504.05 2.3 503.95 0.2 502.4 -1.4 501.2 -2.7 499.4 -3.3 500.35 -6.9 499.05 -10.55 497.8 -14.05 495.1 -16.7 493.15 -18.55 490.4 -18.55 485.35 -18.3 481.55 -15.25
L 472.75 -11.1 471.9 -6.25 466.95 -2.15 463.75 -5.25
M 453.1 -6.5
Q 453.1 -7.6 452.3 -8.35 451.45 -9.15 450.35 -9.15 449.25 -9.15 448.45 -8.35 447.6 -7.6 447.6 -6.5 447.6 -5.4 448.45 -4.6 449.25 -3.85 450.35 -3.85 451.45 -3.85 452.3 -4.6 453.1 -5.4 453.1 -6.5
M 459.35 -13.6
Q 458.6 -14.35 457.55 -14.35 456.5 -14.35 455.7 -13.6 454.95 -12.85 454.95 -11.8 454.95 -10.75 455.7 -10 456.5 -9.25 457.55 -9.25 458.6 -9.25 459.35 -10 460.1 -10.75 460.1 -11.8 460.1 -12.85 459.35 -13.6
M 445.4 -8.85
Q 445 -8.65 445 -8.3 445 -7.95 445.4 -7.7 445.75 -7.5 446.25 -7.5 446.75 -7.5 447.2 -7.7 447.55 -7.95 447.55 -8.3 447.55 -8.65 447.2 -8.85 446.75 -9.1 446.25 -9.1 445.75 -9.1 445.4 -8.85
M 441.8 -13.8
Q 439.85 -14.8 437 -14.8 434.2 -14.8 432.25 -13.8 430.2 -12.8 430.2 -11.35 430.2 -9.9 432.25 -8.9 434.2 -7.9 437 -7.9 439.85 -7.9 441.8 -8.9 443.8 -9.9 443.8 -11.35 443.8 -12.8 441.8 -13.8
M 419.65 -3.05
Q 418.65 -2.05 418.65 -0.65 418.65 0.75 419.65 1.75 420.65 2.75 422.05 2.75 423.5 2.75 424.5 1.75 425.55 0.75 425.55 -0.65 425.55 -2.05 424.5 -3.05 423.5 -4.05 422.05 -4.05 420.65 -4.05 419.65 -3.05
M 431.45 -89.75
L 431.45 -84.05 442.95 -84.05 442.95 -89.75 431.45 -89.75
M 471.9 -60.7
Q 473 -61.85 473 -63.45 473 -65.05 471.9 -66.15 470.75 -67.3 469.1 -67.3 467.45 -67.3 466.35 -66.15 465.2 -65.05 465.2 -63.45 465.2 -61.85 466.35 -60.7 467.45 -59.6 469.1 -59.6 470.75 -59.6 471.9 -60.7
M 475.9 -64.4
L 475.9 -60 486.2 -60 486.2 -64.4 475.9 -64.4
M 398.15 -10.15
Q 397.75 -10.55 397.2 -10.55 396.6 -10.55 396.2 -10.15 395.8 -9.8 395.8 -9.25 395.8 -8.7 396.2 -8.3 396.6 -7.95 397.2 -7.95 397.75 -7.95 398.15 -8.3 398.55 -8.7 398.55 -9.25 398.55 -9.8 398.15 -10.15
M 389.4 -15.95
Q 388.2 -15.95 387.4 -15.1 386.5 -14.3 386.5 -13.15 386.5 -12 387.4 -11.15 388.2 -10.35 389.4 -10.35 390.55 -10.35 391.4 -11.15 392.2 -12 392.2 -13.15 392.2 -14.3 391.4 -15.1 390.55 -15.95 389.4 -15.95
M 377.25 -42.45
Q 376.55 -41.75 376.55 -40.75 376.55 -39.75 377.25 -39.05 377.95 -38.35 378.95 -38.35 380.05 -38.35 380.75 -39.05 381.45 -39.75 381.45 -40.75 381.45 -41.75 380.75 -42.45 380.05 -43.15 378.95 -43.15 377.95 -43.15 377.25 -42.45
M 339.25 -25.05
Q 338.2 -26.1 336.7 -26.1 335.25 -26.1 334.2 -25.05 333.1 -24.05 333.1 -22.6 333.1 -21.15 334.2 -20.1 335.25 -19.1 336.7 -19.1 338.2 -19.1 339.25 -20.1 340.25 -21.15 340.25 -22.6 340.25 -24.05 339.25 -25.05
M 287.9 -12.1
Q 285.9 -12.1 284.5 -10.7 283.1 -9.3 283.1 -7.35 283.1 -5.4 284.5 -4 285.9 -2.6 287.9 -2.6 289.9 -2.6 291.35 -4 292.75 -5.4 292.75 -7.35 292.75 -9.3 291.35 -10.7 289.9 -12.1 287.9 -12.1
M 275.55 -14.45
Q 273.95 -15.95 271.75 -15.95 269.55 -15.95 268.05 -14.45 266.45 -12.95 266.45 -10.8 266.45 -8.65 268.05 -7.15 269.55 -5.65 271.75 -5.65 273.95 -5.65 275.55 -7.15 277.05 -8.65 277.05 -10.8 277.05 -12.95 275.55 -14.45
M 261.45 -8.75
Q 258.95 -10.45 255.5 -10.45 252.05 -10.45 249.65 -8.75 247.2 -7.1 247.2 -4.75 247.2 -2.4 249.65 -0.7 252.05 0.95 255.5 0.95 258.95 0.95 261.45 -0.7 263.8 -2.4 263.8 -4.75 263.8 -7.1 261.45 -8.75
M 269.95 -38.45
L 269.95 -43.9 257.35 -43.9 257.35 -38.45 269.95 -38.45
M 230.95 -4.05
L 230.95 -0.1 240.35 -0.1 240.35 -4.05 230.95 -4.05
M 239.4 -16.75
Q 240.65 -16.75 241.55 -17.6 242.4 -18.5 242.4 -19.75 242.4 -21 241.55 -21.85 240.65 -22.75 239.4 -22.75 238.2 -22.75 237.35 -21.85 236.4 -21 236.4 -19.75 236.4 -18.5 237.35 -17.6 238.2 -16.75 239.4 -16.75
M 241.35 -34.75
Q 241.35 -33.6 242.15 -32.8 242.95 -32 244.1 -32 245.35 -32 246.15 -32.8 246.95 -33.6 246.95 -34.75 246.95 -35.9 246.15 -36.7 245.35 -37.5 244.1 -37.5 242.95 -37.5 242.15 -36.7 241.35 -35.9 241.35 -34.75
M 236.95 -30.55
L 228.65 -29.1 228.8 -26.1 236.95 -30.55
M 79.65 -1.45
Q 79.15 -1.45 78.7 -1 78.35 -0.55 78.35 0.1 78.35 0.75 78.7 1.2 79.15 1.65 79.65 1.65 80.15 1.65 80.5 1.2 80.85 0.75 80.85 0.1 80.85 -0.55 80.5 -1 80.15 -1.45 79.65 -1.45
M 76.25 -7.45
Q 77.25 -4.75 76.3 -7.55 76.25 -7.5 76.25 -7.45
M 29.15 -1.2
L 30.8 -4.7 23.9 -4.5 17.95 1.3 29.15 -1.2 Z"/>

<path fill="#874300" stroke="none" d="
M 578.9 38.25
L 576.8 35.75 562.3 32.1 566.95 27.9 562.6 22.9 572.35 8.2 560.75 16.85 553 12.7 550.4 16.5 530.35 7.35 511.6 14.7
Q 516.9 16.7 520.85 20.55 525.6 25.15 527.75 31.4 528.8 34.25 529.65 37.2
L 535.7 40.9
Q 533.95 43.05 532.05 45.2 531.3 46 530.45 46.7 528.9 47.85 527.3 48.55 525.75 49.15 523.85 49.5 523 49.6 522.15 49.75 521 49.8 519.85 49.85
L 520.4 47.2
Q 519.75 45.85 519.05 44.55 518.9 44.2 518.7 43.95 517.85 42.7 516.35 42.15 515.2 41.95 514.05 41.75 510.8 42.05 507.65 42.4
L 484.5 30.75 481.3 32 479.7 35.15 484.9 41.85 487.35 41.3 491.2 45.45
Q 485.55 48.45 484.95 54.7 484.8 56.55 483.4 58.25 480.8 61.25 477.25 62.75 474.7 63.9 471.65 64.1 461.75 65.5 452 65.1
L 445.65 55.5
Q 443.1 57.65 439.8 57.95 434.25 58.95 429.05 57.2 425.5 56.05 422.05 54.2 419.85 53 417.7 51.75 416.5 51.05 415.45 50.35
L 415.9 57.55 416.2 61.9
Q 423.15 61 424.1 67.6 424.35 69.5 424.35 71.45
L 426.15 76.05 427 79.55 423.6 79.8
Q 417.85 82.45 411.65 83.15 381.7 86.2 351.8 80.5 343.65 79.1 338.2 72.7
L 336.35 62.7 346.7 59.95 349.2 55.2 358.7 54.6 358.75 48.75 353.1 48.4 349.2 51.1 340 48.2 336.45 51.5 324.4 48.35 323.95 45.05 344.05 30
Q 323.45 41.5 300.3 36.8 291.25 34.95 283.1 30.65 280.35 36.05 275.2 39.15 272.8 40.55 270 40.5 267 40.45 264.65 38.65 264.15 38.3 263.65 37.95
L 250.95 45 247.85 44.15
Q 247.1 44.25 246.4 44.4 244.45 45.1 243.05 46.9 242.25 47.95 241.8 49.15 240.7 52.25 238.95 55.15 238.6 55.7 238.25 56.3
L 234.1 56.15 232.15 58.4 229.25 58.85 222.8 56.2 219.8 59.05 196.45 50.7
Q 195.15 46.6 190.7 45.3 187.95 44.45 185.3 45.3 182.7 46 180.6 47.6 180.5 47.7 180.15 47.45 179.75 47.2 179.35 47 177.7 46.4 175.9 46.7 174.05 47.15 172.3 47.95 171.7 48.25 171.2 48.7 169.75 50.1 169.15 51.95 168.85 52.6 168.7 53.35
L 164.45 51.75 163.4 46.4 161.3 45.15 156.45 45.7 153.85 50.15 145.75 47.5 146.5 41.2 142.55 38.9 139.8 39.8 138.8 35.1 113.7 54.2 112.35 57.55 115.6 63.65 119.7 65.25 123.75 70.65 125.6 68.2 128.15 67.4
Q 136.5 70.95 145.2 68.15 146.4 67.7 147.75 67.25
L 154.2 75.65 154.65 75.65
Q 154.65 74.2 155.7 73.2 156.7 72.15 158.15 72.15 159.65 72.15 160.65 73.2 161.7 74.2 161.7 75.65
L 183.35 73.35
Q 183.3 85.25 171.55 88.3 135.55 97.95 98.35 97.3 86.3 96.3 80.55 85.85 77.5 80.4 70.5 80.6 70.35 80 70.2 79.4 69.4 75.75 65.6 75.1 64.15 74.95 62.65 74.85
L 59.4 66.95 53.1 66.55 68.7 47.85 50.95 53.8 40.2 48.8 39.2 46.2 35.65 44.55 33.3 45.2 30.9 49.15 15.05 48.85 13.35 52 -2.25 50.65 -2.25 116.45 599.15 116.55 599.15 50.75 596.6 47.25 587.8 53.15 583.45 47.9 581.05 49.15 581.6 45.2 586.5 41.85 582.3 37 578.9 38.25
M 532.4 47.2
Q 537.95 45.45 541.8 49.4 543.75 51.35 543.15 54.1
L 546.9 58.6 543.75 59.65 541.45 57.35
Q 536.75 61.2 532.15 57.15 529.95 55.15 529.05 52.3
L 532.4 47.2
M 555 28.2
L 559.4 25 558.95 30.35 555 28.2
M 525.15 71.7
Q 524.15 70.7 524.15 69.3 524.15 67.9 525.15 66.9 526.15 65.9 527.55 65.9 529 65.9 530.05 66.9 531.05 67.9 531.05 69.3 531.05 70.7 530.05 71.7 529 72.7 527.55 72.7 526.15 72.7 525.15 71.7
M 507.45 71.95
Q 508.75 71.95 509.7 72.9 510.6 73.8 510.6 75.15 510.6 76.5 509.7 77.45 508.75 78.35 507.45 78.35 506.05 78.35 505.15 77.45 504.2 76.5 504.2 75.15 504.2 73.8 505.15 72.9 506.05 71.95 507.45 71.95
M 496.5 76.1
Q 498.3 76.1 499.65 76.95 501 77.8 501 79 501 80.2 499.65 81.05 498.3 81.9 496.5 81.9 494.7 81.9 493.35 81.05 492 80.2 492 79 492 77.8 493.35 76.95 494.7 76.1 496.5 76.1
M 560.75 60
Q 559.85 60.85 558.55 60.85 557.25 60.85 556.35 60 555.45 59.1 555.45 57.85 555.45 56.6 556.35 55.75 557.25 54.85 558.55 54.85 559.85 54.85 560.75 55.75 561.65 56.6 561.65 57.85 561.65 59.1 560.75 60
M 551.85 53.9
Q 553.15 53.9 554.1 54.8 554.95 55.7 554.95 56.95 554.95 58.2 554.1 59.1 553.15 60 551.85 60 550.6 60 549.75 59.1 548.8 58.2 548.8 56.95 548.8 55.7 549.75 54.8 550.6 53.9 551.85 53.9
M 541.3 66.65
Q 541.3 66 541.8 65.55 542.25 65.05 542.95 65.05 543.65 65.05 544.15 65.55 544.6 66 544.6 66.65 544.6 67.3 544.15 67.8 543.65 68.25 542.95 68.25 542.25 68.25 541.8 67.8 541.3 67.3 541.3 66.65
M 324.2 69.55
Q 332.25 67.75 334.7 75.4
L 333.55 78.05
Q 330.15 82.45 325 80.25 324.3 80 323.7 79.75
L 321.55 80.4 314.75 78.7 316.1 76.35 318.2 76.45 324.2 69.55
M 262.85 82.8
Q 261.65 82.8 260.8 81.95 259.95 81.1 259.95 79.9 259.95 78.7 260.8 77.85 261.65 77 262.85 77 264.05 77 264.9 77.85 265.75 78.7 265.75 79.9 265.75 81.1 264.9 81.95 264.05 82.8 262.85 82.8
M 274.6 80.6
Q 275.9 80.6 276.85 81.5 277.75 82.4 277.75 83.7 277.75 85 276.85 85.9 275.9 86.8 274.6 86.8 273.2 86.8 272.3 85.9 271.35 85 271.35 83.7 271.35 82.4 272.3 81.5 273.2 80.6 274.6 80.6
M 281.55 84.3
Q 281.55 82.5 282.95 81.25 284.2 79.95 286 79.95 287.85 79.95 289.15 81.25 290.45 82.5 290.45 84.3 290.45 86.1 289.15 87.4 287.85 88.65 286 88.65 284.2 88.65 282.95 87.4 281.55 86.1 281.55 84.3
M 270.3 82.95
Q 270.7 83.15 270.7 83.5 270.7 83.85 270.3 84.1 269.9 84.3 269.3 84.3 268.75 84.3 268.35 84.1 267.95 83.85 267.95 83.5 267.95 83.15 268.35 82.95 268.75 82.7 269.3 82.7 269.9 82.7 270.3 82.95
M 294.65 76.85
Q 296.35 75.2 298.7 75.2 301.05 75.2 302.7 76.85 304.45 78.5 304.45 80.8 304.45 83.1 302.7 84.75 301.05 86.4 298.7 86.4 296.35 86.4 294.65 84.75 293 83.1 293 80.8 293 78.5 294.65 76.85
M 314.85 79.8
Q 315.25 80.2 315.25 80.75 315.25 81.3 314.85 81.7 314.45 82.1 313.9 82.1 313.35 82.1 312.95 81.7 312.55 81.3 312.55 80.75 312.55 80.2 312.95 79.8 313.35 79.4 313.9 79.4 314.45 79.4 314.85 79.8
M 37.9 43.3
Q 39.15 42.05 39.15 40.25 39.15 38.45 37.9 37.2 36.6 35.95 34.8 35.95 32.95 35.95 31.65 37.2 30.4 38.45 30.4 40.25 30.4 42.05 31.65 43.3 32.95 44.55 34.8 44.55 36.6 44.55 37.9 43.3
M 10.4 43
Q 9.35 41.9 7.85 41.9 6.3 41.9 5.25 43 4.2 44.05 4.2 45.55 4.2 47.05 5.25 48.15 6.3 49.2 7.85 49.2 9.35 49.2 10.4 48.15 11.55 47.05 11.55 45.55 11.55 44.05 10.4 43
M 52.45 38.4
Q 50.95 36.9 48.75 36.9 46.65 36.9 45.1 38.4 43.6 39.9 43.6 42 43.6 44.1 45.1 45.6 46.65 47.1 48.75 47.1 50.95 47.1 52.45 45.6 54 44.1 54 42 54 39.9 52.45 38.4 Z"/>

<path fill="#CC6600" stroke="none" d="
M 315.25 80.75
Q 315.25 80.2 314.85 79.8 314.45 79.4 313.9 79.4 313.35 79.4 312.95 79.8 312.55 80.2 312.55 80.75 312.55 81.3 312.95 81.7 313.35 82.1 313.9 82.1 314.45 82.1 314.85 81.7 315.25 81.3 315.25 80.75
M 298.7 75.2
Q 296.35 75.2 294.65 76.85 293 78.5 293 80.8 293 83.1 294.65 84.75 296.35 86.4 298.7 86.4 301.05 86.4 302.7 84.75 304.45 83.1 304.45 80.8 304.45 78.5 302.7 76.85 301.05 75.2 298.7 75.2
M 270.7 83.5
Q 270.7 83.15 270.3 82.95 269.9 82.7 269.3 82.7 268.75 82.7 268.35 82.95 267.95 83.15 267.95 83.5 267.95 83.85 268.35 84.1 268.75 84.3 269.3 84.3 269.9 84.3 270.3 84.1 270.7 83.85 270.7 83.5
M 282.95 81.25
Q 281.55 82.5 281.55 84.3 281.55 86.1 282.95 87.4 284.2 88.65 286 88.65 287.85 88.65 289.15 87.4 290.45 86.1 290.45 84.3 290.45 82.5 289.15 81.25 287.85 79.95 286 79.95 284.2 79.95 282.95 81.25
M 276.85 81.5
Q 275.9 80.6 274.6 80.6 273.2 80.6 272.3 81.5 271.35 82.4 271.35 83.7 271.35 85 272.3 85.9 273.2 86.8 274.6 86.8 275.9 86.8 276.85 85.9 277.75 85 277.75 83.7 277.75 82.4 276.85 81.5
M 260.8 81.95
Q 261.65 82.8 262.85 82.8 264.05 82.8 264.9 81.95 265.75 81.1 265.75 79.9 265.75 78.7 264.9 77.85 264.05 77 262.85 77 261.65 77 260.8 77.85 259.95 78.7 259.95 79.9 259.95 81.1 260.8 81.95
M 334.7 75.4
Q 332.25 67.75 324.2 69.55
L 318.2 76.45 316.1 76.35 314.75 78.7 321.55 80.4 323.7 79.75
Q 324.3 80 325 80.25 330.15 82.45 333.55 78.05
L 334.7 75.4
M 541.8 65.55
Q 541.3 66 541.3 66.65 541.3 67.3 541.8 67.8 542.25 68.25 542.95 68.25 543.65 68.25 544.15 67.8 544.6 67.3 544.6 66.65 544.6 66 544.15 65.55 543.65 65.05 542.95 65.05 542.25 65.05 541.8 65.55
M 554.1 54.8
Q 553.15 53.9 551.85 53.9 550.6 53.9 549.75 54.8 548.8 55.7 548.8 56.95 548.8 58.2 549.75 59.1 550.6 60 551.85 60 553.15 60 554.1 59.1 554.95 58.2 554.95 56.95 554.95 55.7 554.1 54.8
M 558.55 60.85
Q 559.85 60.85 560.75 60 561.65 59.1 561.65 57.85 561.65 56.6 560.75 55.75 559.85 54.85 558.55 54.85 557.25 54.85 556.35 55.75 555.45 56.6 555.45 57.85 555.45 59.1 556.35 60 557.25 60.85 558.55 60.85
M 499.65 76.95
Q 498.3 76.1 496.5 76.1 494.7 76.1 493.35 76.95 492 77.8 492 79 492 80.2 493.35 81.05 494.7 81.9 496.5 81.9 498.3 81.9 499.65 81.05 501 80.2 501 79 501 77.8 499.65 76.95
M 509.7 72.9
Q 508.75 71.95 507.45 71.95 506.05 71.95 505.15 72.9 504.2 73.8 504.2 75.15 504.2 76.5 505.15 77.45 506.05 78.35 507.45 78.35 508.75 78.35 509.7 77.45 510.6 76.5 510.6 75.15 510.6 73.8 509.7 72.9
M 524.15 69.3
Q 524.15 70.7 525.15 71.7 526.15 72.7 527.55 72.7 529 72.7 530.05 71.7 531.05 70.7 531.05 69.3 531.05 67.9 530.05 66.9 529 65.9 527.55 65.9 526.15 65.9 525.15 66.9 524.15 67.9 524.15 69.3
M 559.4 25
L 555 28.2 558.95 30.35 559.4 25
M 541.8 49.4
Q 537.95 45.45 532.4 47.2
L 529.05 52.3
Q 529.95 55.15 532.15 57.15 536.75 61.2 541.45 57.35
L 543.75 59.65 546.9 58.6 543.15 54.1
Q 543.75 51.35 541.8 49.4
M 365.25 -40.7
Q 363.85 -41.25 365.25 -40.6 365.25 -40.65 365.25 -40.7
M 317.8 -32
Q 317.85 -32.15 317.9 -32.3 317.2 -30.75 317.8 -32
M 276.25 -42.7
L 276.55 -42.45 276.85 -42.7 276.25 -42.7
M 283.3 -39.95
Q 283.3 -38 283.35 -39.8 283.35 -39.9 283.3 -39.95
M 223.25 -64.85
L 224.1 -63.15 225 -64.85 223.25 -64.85
M 37.35 -10.35
Q 27.6 -10.6 21.2 -3.65 17.55 0.25 16 5.3
L 2.8 7 11.4 9.85 9 15.35 4.2 13.8 1.2 17.5 -2.25 18.35 -2.25 50.65 13.35 52 15.05 48.85 30.9 49.15 33.3 45.2 35.65 44.55 39.2 46.2 40.2 48.8 50.95 53.8 68.7 47.85 53.1 66.55 59.4 66.95 62.65 74.85
Q 64.15 74.95 65.6 75.1 69.4 75.75 70.2 79.4 70.35 80 70.5 80.6 77.5 80.4 80.55 85.85 86.3 96.3 98.35 97.3 135.55 97.95 171.55 88.3 183.3 85.25 183.35 73.35
L 161.7 75.65 164.5 76.95 158.8 79.1 154.65 75.65 154.2 75.65
Q 148.65 81.5 141.2 77.65 140.05 77.05 138.9 76.45
L 136.2 77.9 123.4 74.7 121.65 75.8 112.7 75.15 111.75 71.75 117.5 68.75 123.75 70.65 119.7 65.25 115.6 63.65 112.35 57.55 109.95 58.7 93.85 52.6 93.35 48.35 95.55 46.1 110.25 49.1 113.7 54.2 138.8 35.1 139.8 39.8 142.55 38.9 146.5 41.2 145.75 47.5 153.85 50.15 156.45 45.7 161.3 45.15 163.4 46.4 164.45 51.75 168.7 53.35
Q 168.85 52.6 169.15 51.95 169.75 50.1 171.2 48.7 171.7 48.25 172.3 47.95 174.05 47.15 175.9 46.7 177.7 46.4 179.35 47 179.75 47.2 180.15 47.45 180.5 47.7 180.6 47.6 182.7 46 185.3 45.3 187.95 44.45 190.7 45.3 195.15 46.6 196.45 50.7
L 219.8 59.05 222.8 56.2 229.25 58.85 232.15 58.4 234.1 56.15 238.25 56.3
Q 238.6 55.7 238.95 55.15 240.7 52.25 241.8 49.15 242.25 47.95 243.05 46.9 244.45 45.1 246.4 44.4 247.1 44.25 247.85 44.15
L 250.95 45 263.65 37.95
Q 264.15 38.3 264.65 38.65 267 40.45 270 40.5 272.8 40.55 275.2 39.15 280.35 36.05 283.1 30.65 291.25 34.95 300.3 36.8 323.45 41.5 344.05 30
L 323.95 45.05 324.4 48.35 336.45 51.5 340 48.2 349.2 51.1 353.1 48.4 358.75 48.75 358.7 54.6 349.2 55.2 346.7 59.95 336.35 62.7 338.2 72.7
Q 343.65 79.1 351.8 80.5 381.7 86.2 411.65 83.15 417.85 82.45 423.6 79.8 423.6 78.25 424.35 77.15 425.1 76.05 426.15 76.05
L 424.35 71.45 422.6 75.95 417.25 76 412.55 68.45 410.45 68.75 407.75 67.3 408.8 60.15 405.5 60.85 403.65 63.95 399.65 61.35 395.65 61.6 393.3 58.4 389.6 58.6
Q 388.15 57.85 386.9 56.95 385.5 55.85 384.55 54.35 383.55 52.95 382.9 51.3 382.4 50.05 382.6 48.65 383.5 46.6 385.3 45.2 387.65 43.35 390.6 43.6 397.6 44.05 398.35 50.95
L 401.65 54.15 401.9 58.3 405.55 55.5 408.95 58.3 410.6 56.35 412.7 55.7 415.9 57.55 415.45 50.35
Q 416.5 51.05 417.7 51.75 419.85 53 422.05 54.2 425.5 56.05 429.05 57.2 434.25 58.95 439.8 57.95 443.1 57.65 445.65 55.5
L 452 65.1
Q 461.75 65.5 471.65 64.1 474.7 63.9 477.25 62.75 480.8 61.25 483.4 58.25 484.8 56.55 484.95 54.7 485.55 48.45 491.2 45.45
L 487.35 41.3 484.9 41.85 479.7 35.15 481.3 32 484.5 30.75 507.65 42.4
Q 510.8 42.05 514.05 41.75 515.2 41.95 516.35 42.15 517.85 42.7 518.7 43.95 518.9 44.2 519.05 44.55 519.75 45.85 520.4 47.2
L 519.85 49.85
Q 521 49.8 522.15 49.75 523 49.6 523.85 49.5 525.75 49.15 527.3 48.55 528.9 47.85 530.45 46.7 531.3 46 532.05 45.2 533.95 43.05 535.7 40.9
L 529.65 37.2
Q 528.8 34.25 527.75 31.4 525.6 25.15 520.85 20.55 516.9 16.7 511.6 14.7
L 530.35 7.35 550.4 16.5 553 12.7 560.75 16.85 572.35 8.2 562.6 22.9 566.95 27.9 562.3 32.1 576.8 35.75 578.9 38.25 582.3 37 586.5 41.85 581.6 45.2 581.05 49.15 583.45 47.9 587.8 53.15 596.6 47.25 599.15 50.75 599.15 -7.55
Q 597 -8.65 594.1 -8.75 592.85 -8.75 591.6 -8.75
L 592.4 -14.7 591.95 -15.35 584.35 -16.2 581.55 -9.05 577.05 -9.1
Q 575.75 -10.4 574.9 -11.95 570.75 -19.45 573.3 -27.85
L 570.15 -31.8 574.5 -34.3 583.5 -20 585.2 -24.05 586.4 -34.65 583.55 -34.8 580.85 -39.8 578.85 -40.65 576.9 -45.5 569.8 -48.55 574.65 -55.45 574.1 -59.15 572.65 -61.15 569.35 -58.6 565.4 -60.5 564.9 -66.8 561.8 -62.65 543.1 -61 539.35 -54.95 535.8 -56.05 534.6 -52.9 532.2 -51.8 534.8 -47.1 531.65 -44.3 529.35 -48.55 527.7 -45.65 529.05 -38.85 521.6 -37.45 520.75 -44.6 523.65 -46.65
Q 521.85 -48.4 519.8 -49.05 517.9 -49.7 516 -50.1 514.45 -50.4 512.95 -50.45 510.4 -50.1 507.95 -49.75
L 501.55 -38.65 497.9 -39.6 489.3 -56.25 494.6 -62.5 502.55 -55.7 502.35 -56.05 500.55 -58.8 503.15 -62.7
Q 508.65 -68.85 505.95 -76.85 505.9 -77.05 505.9 -77.2 501 -87.45 489.4 -87.1 488.55 -86.95 487.7 -86.8
L 480.6 -90.9 481.95 -94.25
Q 478.85 -87.7 471.4 -88.7 468.35 -89.35 466.7 -91.9
L 463.6 -91.9 448.65 -82.4 445.35 -84.95 453.45 -95.05 446.85 -98.05 420.2 -90.65 417.85 -92.8 409.5 -81.8 405.65 -81.1 389.5 -87.1 383.25 -83.4 377.65 -86.7 378.9 -81.25 376.8 -76.9 373.6 -75.8 374.05 -70.35 368.4 -68.05 372.55 -53.25 378.15 -45.35 371.15 -44.45 374.75 -41.7 367.35 -38.2 360.65 -27.05 356.8 -27.2 352.7 -21.4 347.2 -19.6 343.1 -21.15 349.2 -29.85 339.3 -32.5
Q 338.9 -31.7 338.45 -30.95 337.7 -29.8 336.8 -28.75 336.55 -28.35 336.15 -28.1 335.75 -27.8 335.3 -27.7 330.4 -26.25 325.3 -24.8
L 323.9 -23.25 307.45 -28.3 305.75 -33.35 299.15 -30.75 298.25 -26.45 293.35 -24.05 286.8 -31.1 281.15 -31.3 271 -42.6 274.8 -43.5 277.15 -48.5 270.6 -50.8 269 -55.6 261.1 -61.15 255.3 -58.9 252.55 -54.8 243.75 -52.65 241 -58.25 245.05 -62.45 227.25 -57.55 224.4 -58.95 221.45 -55.9 213.65 -59.3 213.95 -66.05
Q 212.2 -66.9 210.1 -66.95 207 -66.75 203.8 -66.55 198.5 -65.8 193.95 -63.4 192.75 -62.8 191.65 -62.15
L 188.7 -49.35 191.8 -44.2 187.45 -43.25 184.05 -53.25 179.25 -56.9 172.3 -55.35
Q 173.6 -52.65 173.3 -49.6 173.15 -48.1 172.1 -47.05 170.2 -45 167.4 -44.35 164.15 -43.75 161.15 -45.2 159.85 -45.9 158.9 -47.3 157 -50.25 156.95 -53.8
L 153.9 -56.15 150.65 -53.6 149.85 -43.9 145.2 -37.65 143.15 -39.8 138.8 -34.3 138.95 -27.2 143.5 -19.65
Q 135.4 -20.55 131.05 -13.55 129.1 -10.35 127.3 -7.1
L 132.6 -1.9 136.25 -2.3 140.5 2.5 146.1 4.35 144.6 9.2 111.3 3.45 108.75 5.6 96.15 6.05 92.7 -0.15 82.1 3.5 82.1 -1.85 81.9 -3.25 76.15 -9.2
Q 68.7 -3 61.4 -9.6 58.5 -12.2 54.75 -13.2
L 45.85 -8.25 44.4 -2.5 41 -1.05 35.75 -5.5 37.35 -10.35
M 30.8 -4.7
L 29.15 -1.2 17.95 1.3 23.9 -4.5 30.8 -4.7
M 76.3 -7.55
Q 77.25 -4.75 76.25 -7.45 76.25 -7.5 76.3 -7.55
M 78.7 -1
Q 79.15 -1.45 79.65 -1.45 80.15 -1.45 80.5 -1 80.85 -0.55 80.85 0.1 80.85 0.75 80.5 1.2 80.15 1.65 79.65 1.65 79.15 1.65 78.7 1.2 78.35 0.75 78.35 0.1 78.35 -0.55 78.7 -1
M 228.65 -29.1
L 236.95 -30.55 228.8 -26.1 228.65 -29.1
M 242.15 -32.8
Q 241.35 -33.6 241.35 -34.75 241.35 -35.9 242.15 -36.7 242.95 -37.5 244.1 -37.5 245.35 -37.5 246.15 -36.7 246.95 -35.9 246.95 -34.75 246.95 -33.6 246.15 -32.8 245.35 -32 244.1 -32 242.95 -32 242.15 -32.8
M 241.55 -17.6
Q 240.65 -16.75 239.4 -16.75 238.2 -16.75 237.35 -17.6 236.4 -18.5 236.4 -19.75 236.4 -21 237.35 -21.85 238.2 -22.75 239.4 -22.75 240.65 -22.75 241.55 -21.85 242.4 -21 242.4 -19.75 242.4 -18.5 241.55 -17.6
M 230.95 -0.1
L 230.95 -4.05 240.35 -4.05 240.35 -0.1 230.95 -0.1
M 269.95 -43.9
L 269.95 -38.45 257.35 -38.45 257.35 -43.9 269.95 -43.9
M 255.5 -10.45
Q 258.95 -10.45 261.45 -8.75 263.8 -7.1 263.8 -4.75 263.8 -2.4 261.45 -0.7 258.95 0.95 255.5 0.95 252.05 0.95 249.65 -0.7 247.2 -2.4 247.2 -4.75 247.2 -7.1 249.65 -8.75 252.05 -10.45 255.5 -10.45
M 271.75 -15.95
Q 273.95 -15.95 275.55 -14.45 277.05 -12.95 277.05 -10.8 277.05 -8.65 275.55 -7.15 273.95 -5.65 271.75 -5.65 269.55 -5.65 268.05 -7.15 266.45 -8.65 266.45 -10.8 266.45 -12.95 268.05 -14.45 269.55 -15.95 271.75 -15.95
M 284.5 -10.7
Q 285.9 -12.1 287.9 -12.1 289.9 -12.1 291.35 -10.7 292.75 -9.3 292.75 -7.35 292.75 -5.4 291.35 -4 289.9 -2.6 287.9 -2.6 285.9 -2.6 284.5 -4 283.1 -5.4 283.1 -7.35 283.1 -9.3 284.5 -10.7
M 336.7 -26.1
Q 338.2 -26.1 339.25 -25.05 340.25 -24.05 340.25 -22.6 340.25 -21.15 339.25 -20.1 338.2 -19.1 336.7 -19.1 335.25 -19.1 334.2 -20.1 333.1 -21.15 333.1 -22.6 333.1 -24.05 334.2 -25.05 335.25 -26.1 336.7 -26.1
M 376.55 -40.75
Q 376.55 -41.75 377.25 -42.45 377.95 -43.15 378.95 -43.15 380.05 -43.15 380.75 -42.45 381.45 -41.75 381.45 -40.75 381.45 -39.75 380.75 -39.05 380.05 -38.35 378.95 -38.35 377.95 -38.35 377.25 -39.05 376.55 -39.75 376.55 -40.75
M 387.4 -15.1
Q 388.2 -15.95 389.4 -15.95 390.55 -15.95 391.4 -15.1 392.2 -14.3 392.2 -13.15 392.2 -12 391.4 -11.15 390.55 -10.35 389.4 -10.35 388.2 -10.35 387.4 -11.15 386.5 -12 386.5 -13.15 386.5 -14.3 387.4 -15.1
M 397.2 -10.55
Q 397.75 -10.55 398.15 -10.15 398.55 -9.8 398.55 -9.25 398.55 -8.7 398.15 -8.3 397.75 -7.95 397.2 -7.95 396.6 -7.95 396.2 -8.3 395.8 -8.7 395.8 -9.25 395.8 -9.8 396.2 -10.15 396.6 -10.55 397.2 -10.55
M 475.9 -60
L 475.9 -64.4 486.2 -64.4 486.2 -60 475.9 -60
M 473 -63.45
Q 473 -61.85 471.9 -60.7 470.75 -59.6 469.1 -59.6 467.45 -59.6 466.35 -60.7 465.2 -61.85 465.2 -63.45 465.2 -65.05 466.35 -66.15 467.45 -67.3 469.1 -67.3 470.75 -67.3 471.9 -66.15 473 -65.05 473 -63.45
M 431.45 -84.05
L 431.45 -89.75 442.95 -89.75 442.95 -84.05 431.45 -84.05
M 418.65 -0.65
Q 418.65 -2.05 419.65 -3.05 420.65 -4.05 422.05 -4.05 423.5 -4.05 424.5 -3.05 425.55 -2.05 425.55 -0.65 425.55 0.75 424.5 1.75 423.5 2.75 422.05 2.75 420.65 2.75 419.65 1.75 418.65 0.75 418.65 -0.65
M 437 -14.8
Q 439.85 -14.8 441.8 -13.8 443.8 -12.8 443.8 -11.35 443.8 -9.9 441.8 -8.9 439.85 -7.9 437 -7.9 434.2 -7.9 432.25 -8.9 430.2 -9.9 430.2 -11.35 430.2 -12.8 432.25 -13.8 434.2 -14.8 437 -14.8
M 445 -8.3
Q 445 -8.65 445.4 -8.85 445.75 -9.1 446.25 -9.1 446.75 -9.1 447.2 -8.85 447.55 -8.65 447.55 -8.3 447.55 -7.95 447.2 -7.7 446.75 -7.5 446.25 -7.5 445.75 -7.5 445.4 -7.7 445 -7.95 445 -8.3
M 457.55 -14.35
Q 458.6 -14.35 459.35 -13.6 460.1 -12.85 460.1 -11.8 460.1 -10.75 459.35 -10 458.6 -9.25 457.55 -9.25 456.5 -9.25 455.7 -10 454.95 -10.75 454.95 -11.8 454.95 -12.85 455.7 -13.6 456.5 -14.35 457.55 -14.35
M 452.3 -8.35
Q 453.1 -7.6 453.1 -6.5 453.1 -5.4 452.3 -4.6 451.45 -3.85 450.35 -3.85 449.25 -3.85 448.45 -4.6 447.6 -5.4 447.6 -6.5 447.6 -7.6 448.45 -8.35 449.25 -9.15 450.35 -9.15 451.45 -9.15 452.3 -8.35
M 458.85 -3.75
L 463.75 -5.25 466.95 -2.15 471.9 -6.25 472.75 -11.1 481.55 -15.25
Q 485.35 -18.3 490.4 -18.55 493.15 -18.55 495.1 -16.7 497.8 -14.05 499.05 -10.55 500.35 -6.9 499.4 -3.3 501.2 -2.7 502.4 -1.4 503.95 0.2 504.05 2.3 504.3 6.4 506.25 9.85 507.75 12.4 509 15.15
L 509 19.7 503.3 21.75 497.5 17.25 497.35 14.35 499.6 11.3 499.2 7.45 495.7 6.05 491.2 -2.15 485.45 -4.25 473.8 5.35 466.9 1.45 462.3 3.05 459.1 1.35 458.85 -3.75
M 508.5 -38.1
Q 510.35 -38.1 511.7 -37.35 513 -36.6 513 -35.5 513 -34.4 511.7 -33.65 510.35 -32.9 508.5 -32.9 506.55 -32.9 505.25 -33.65 503.95 -34.4 503.95 -35.5 503.95 -36.6 505.25 -37.35 506.55 -38.1 508.5 -38.1
M 564.6 -36.85
Q 565.3 -37.6 566.35 -37.6 567.4 -37.6 568.1 -36.85 568.8 -36.15 568.8 -35.15 568.8 -34.15 568.1 -33.4 567.4 -32.7 566.35 -32.7 565.3 -32.7 564.6 -33.4 563.9 -34.15 563.9 -35.15 563.9 -36.15 564.6 -36.85
M 572.85 -2.65
Q 574 -2.65 574.9 -1.8 575.7 -1 575.7 0.15 575.7 1.3 574.9 2.15 574 2.95 572.85 2.95 571.7 2.95 570.9 2.15 570.05 1.3 570.05 0.15 570.05 -1 570.9 -1.8 571.7 -2.65 572.85 -2.65
M 580 -6.4
Q 580 -5.7 579.55 -5.2 579.05 -4.75 578.35 -4.75 577.7 -4.75 577.25 -5.2 576.75 -5.7 576.75 -6.4 576.75 -7.1 577.25 -7.55 577.7 -8.05 578.35 -8.05 579.05 -8.05 579.55 -7.55 580 -7.1 580 -6.4
M 520.6 21.2
Q 521.95 22.55 521.95 24.45 521.95 26.35 520.6 27.7 519.2 29.05 517.25 29.05 515.25 29.05 513.85 27.7 512.5 26.35 512.5 24.45 512.5 22.55 513.85 21.2 515.25 19.85 517.25 19.85 519.2 19.85 520.6 21.2
M 518.8 29.4
Q 519.85 28.35 521.3 28.35 522.8 28.35 523.85 29.4 524.9 30.4 524.9 31.85 524.9 33.3 523.85 34.35 522.8 35.35 521.3 35.35 519.85 35.35 518.8 34.35 517.75 33.3 517.75 31.85 517.75 30.4 518.8 29.4
M 406.35 44.95
Q 407.2 44.95 407.8 45.55 408.35 46.15 408.35 47 408.35 47.85 407.8 48.45 407.2 49.05 406.35 49.05 405.5 49.05 404.9 48.45 404.3 47.85 404.3 47 404.3 46.15 404.9 45.55 405.5 44.95 406.35 44.95
M 372.75 33.9
L 368.9 29.05 368.8 25.15
Q 377.85 21.65 385.8 27.25 391.15 31.05 396.4 35
L 393.7 38.4 372.75 33.9
M 367.85 29.3
L 365.95 39.35 361.6 38.8 359.95 33.25 351.7 36.8 348.3 35.3
Q 347.75 34.65 347.3 33.95 346.85 33.3 346.6 32.6 346.15 31.25 346.15 29.95 346.1 28.65 346.65 27.45 348 24.4 351 22.45
L 360.35 22.45 367.85 29.3
M 403.55 40.25
Q 404.25 40.95 404.25 41.95 404.25 42.95 403.55 43.65 402.85 44.35 401.8 44.35 400.75 44.35 400.05 43.65 399.35 42.95 399.35 41.95 399.35 40.95 400.05 40.25 400.75 39.55 401.8 39.55 402.85 39.55 403.55 40.25
M 341.75 33.4
Q 342.95 33.4 343.75 34.2 344.55 35 344.55 36.15 344.55 37.3 343.75 38.1 342.95 38.9 341.75 38.9 340.55 38.9 339.75 38.1 338.95 37.3 338.95 36.15 338.95 35 339.75 34.2 340.55 33.4 341.75 33.4
M 380.15 55.55
L 365.9 55.55 365.9 49.85 380.15 49.85 380.15 55.55
M 249.25 3.65
Q 250.25 4.65 250.25 6.1 250.25 7.55 249.25 8.6 248.15 9.6 246.7 9.6 245.25 9.6 244.15 8.6 243.1 7.55 243.1 6.1 243.1 4.65 244.15 3.65 245.25 2.6 246.7 2.6 248.15 2.6 249.25 3.65
M 260.5 31.45
L 261.5 35.15 257.05 38.2 254.35 36.85 250.6 29.95 255.8 27.15 260.5 31.45
M 248 28.85
Q 248 30.3 247 31.35 245.95 32.35 244.5 32.35 242.95 32.35 241.95 31.35 240.9 30.3 240.9 28.85 240.9 27.4 241.95 26.4 242.95 25.35 244.5 25.35 245.95 25.35 247 26.4 248 27.4 248 28.85
M 226.3 5.2
Q 226.85 4.6 227.75 4.6 228.6 4.6 229.25 5.2 229.8 5.75 229.8 6.6 229.8 7.45 229.25 8.05 228.6 8.6 227.75 8.6 226.85 8.6 226.3 8.05 225.7 7.45 225.7 6.6 225.7 5.75 226.3 5.2
M 203.6 30.35
L 206.3 33.55 201.7 34.65 203.55 30.3 203.6 30.4 203.6 30.35
M 226.5 31.4
Q 226.5 30.9 226.85 30.6 227.15 30.25 227.7 30.25 228.2 30.25 228.55 30.6 228.85 30.9 228.85 31.4 228.85 31.9 228.55 32.25 228.2 32.55 227.7 32.55 227.15 32.55 226.85 32.25 226.5 31.9 226.5 31.4
M 191.95 8.8
Q 194.5 8.35 196.55 10 202.15 14.45 204 21.7
L 201.85 25 184.75 19.75 185.5 23.05 179.3 24.3 178.3 21.05 179.95 18.75 177.15 12.2 184.35 7.4 187.8 9.7
Q 189.85 9.05 191.95 8.8
M 167.65 16.25
L 171.25 14.45 175.3 17.05 174 21.1 163.9 23.05 161.45 21.15 155.35 23.5 151.85 20.6 152.7 17.75 156.9 15.6 161.45 17.9 167.65 16.25
M 82.75 9.95
Q 82.75 8.05 84.15 6.7 85.5 5.35 87.5 5.35 89.5 5.35 90.85 6.7 92.25 8.05 92.25 9.95 92.25 11.85 90.85 13.2 89.5 14.55 87.5 14.55 85.5 14.55 84.15 13.2 82.75 11.85 82.75 9.95
M 81.15 49
L 86.85 49 86.85 54.7 81.15 54.7 81.15 49
M 103.3 71.65
L 103.3 77.4 86.15 77.4 86.15 71.65 103.3 71.65
M 75.45 3.05
Q 78.3 3.05 80.4 4.3 82.4 5.5 82.4 7.25 82.4 9 80.4 10.25 78.3 11.45 75.45 11.45 72.55 11.45 70.45 10.25 68.45 9 68.45 7.25 68.45 5.5 70.45 4.3 72.55 3.05 75.45 3.05
M 63.75 13.75
Q 63.75 15.15 62.75 16.15 61.7 17.15 60.25 17.15 58.8 17.15 57.75 16.15 56.75 15.15 56.75 13.75 56.75 12.35 57.75 11.35 58.8 10.35 60.25 10.35 61.7 10.35 62.75 11.35 63.75 12.35 63.75 13.75
M 48.75 36.9
Q 50.95 36.9 52.45 38.4 54 39.9 54 42 54 44.1 52.45 45.6 50.95 47.1 48.75 47.1 46.65 47.1 45.1 45.6 43.6 44.1 43.6 42 43.6 39.9 45.1 38.4 46.65 36.9 48.75 36.9
M 7.85 41.9
Q 9.35 41.9 10.4 43 11.55 44.05 11.55 45.55 11.55 47.05 10.4 48.15 9.35 49.2 7.85 49.2 6.3 49.2 5.25 48.15 4.2 47.05 4.2 45.55 4.2 44.05 5.25 43 6.3 41.9 7.85 41.9
M 39.15 40.25
Q 39.15 42.05 37.9 43.3 36.6 44.55 34.8 44.55 32.95 44.55 31.65 43.3 30.4 42.05 30.4 40.25 30.4 38.45 31.65 37.2 32.95 35.95 34.8 35.95 36.6 35.95 37.9 37.2 39.15 38.45 39.15 40.25 Z"/>

<path fill="url(#Gradient_1)" stroke="none" d="
M 479.75 -101.4
L 480.15 -101.1 482.5 -105.75 479.75 -101.4
M 280.25 -63.35
L 278.8 -62.15 278.85 -60.65 280.25 -63.35 Z"/>
</g>
</defs>

<g transform="matrix( 1, 0, 0, 1, 2.25,166.75) ">
<g transform="matrix( 1, 0, 0, 1, 0,0) ">
<use xlink:href="#bg_grass_hills_2_Layer1_0_FILL"/>
</g>

<g transform="matrix( 1, 0, 0, 1, 0,0) ">
<use xlink:href="#bg_grass_hills_2_Layer0_0_FILL"/>
</g>
</g>
</svg>
