
<svg xmlns="http://www.w3.org/2000/svg" version="1.1" xmlns:xlink="http://www.w3.org/1999/xlink" preserveAspectRatio="none" x="0px" y="0px" width="1000px" height="800px" viewBox="0 0 1000 800">
<defs>
<g id="Spiked_Berricade_0_Layer0_0_FILL">
<path fill="#B4ACA0" stroke="none" d="
M 189.05 305.2
Q 188.7 305.35 188.4 305.5 187.9767578125 305.7083984375 187.55 305.9 178.2416015625 310.8244140625 173.55 320.35 175.8 327.9 173.45 335.35 173.1 336.4 172.75 337.5 175.95 346.45 184.45 350.65 186.35 351.6 188.35 352.4 196.9 350.25 194.6 341.6 191.4 329.8 191.4 317.5
L 217.3 327.65 189.05 305.2
M 133.85 292.8
Q 135.383984375 286.328515625 139.65 281.15 137.1025390625 280.4759765625 134.5 279.75 120.1685546875 278.415625 109.6 289.7 101.35 298.45 94.1 308.2 84.5 321.15 75.9 334.75 75.05 336.1 75.1 337.85 75.4 348.55 84.65 354.4 86.75 355.7 89.05 356.65 98.85 360.45 108.75 364.1 113.65 342.45 133.85 333.15 138.3 331.15 142.8 329.2 136.7 312.85 133.75 295.55 133.5 294.2 133.85 292.8
M 56.7 267.8
L 70.15 260
Q 62.3853515625 256.1953125 55.1 251.55 51.5173828125 253.970703125 48.25 257.25 30.5 275.15 28.7 300.35 27.95 310.5 35 317.95 44.05 312.55 49.8 303.85 50.6 302.65 51.45 301.45 51.65 284.2 56.7 267.8
M 165.35 259
Q 165.93984375 260.359765625 166.45 261.75 167.3234375 262.0603515625 168.2 262.35 167.162109375 254.497265625 166.5 246.6 159.878515625 243.8392578125 153.25 240.95 160.8482421875 248.76875 165.35 259
M 134.9 232.8
Q 128.35 229.8 121.65 227.2 120.967578125 226.9326171875 120.3 226.65 120.741015625 232.1826171875 121.2 237.7 121.54140625 241.7962890625 121.8 245.9 124.6791015625 246.8998046875 127.5 247.9 127.8744140625 245.960546875 127.95 243.9
L 142.15 236.1
Q 138.5240234375 234.460546875 134.9 232.8
M 116.1 174.95
Q 116.50546875 179.7916015625 116.9 184.6 121.22265625 181.3912109375 128.6 181.6 136.15 181.8 140.2 188.1 141.95 190.85 143.5 193.7 146.6 178.4 132.4 171.65 125.5 168.45 119.2 172.8 117.66328125 173.866015625 116.1 174.95
M 98.55 183.1
Q 98.4615234375 181.69140625 98.35 180.25
L 94.85 171.2 77.1 171.95
Q 87.8470703125 177.503125 98.55 183.1
M 123.75 128.05
Q 133.735546875 136.912109375 142.9 146.55 147.5103515625 148.3873046875 152.1 150.2 143.516796875 140.19765625 134.4 130.55 127.89453125 123.6873046875 120.7 117.6 116.770703125 115.9513671875 112.8 114.35 112.1529296875 114.0833984375 111.5 113.8 111.9642578125 120.146484375 112.4 126.45 113.0359375 126.6953125 113.65 126.9 119.1 123.85 123.75 128.05
M 51.55 189.45
Q 49.7943359375 187.8640625 48.1 186.2 40.88515625 201.7294921875 42.25 218.45 47.6935546875 220.3103515625 53.1 222.15 55.3662109375 210.3666015625 62.75 199.85 63.1318359375 199.3103515625 63.5 198.75 57.143359375 194.6017578125 51.55 189.45
M 32.75 169.2
Q 30.00546875 165.64765625 27.25 162.1 23.267578125 166.257421875 19.95 171.35 18.9 173 17.85 174.7
L 23 182.1 34.8 171.75
Q 33.75859375 170.501171875 32.75 169.2
M 53.4 146.5
Q 53.0310546875 146.63203125 52.65 146.75 45.3978515625 148.9462890625 39.2 152.6 44.75859375 155.4140625 50.3 158.2
L 53.4 155.5 53.4 146.5
M 71.1 118
Q 72.587109375 116.9029296875 74.25 115.9 83.5833984375 110.3 92.9 114.95 92.808984375 113.7912109375 92.7 112.6 92.3984375 109.2830078125 92.45 105.95 83.4052734375 102.234375 74.35 98.5 70.058203125 99.6736328125 66.35 102.15 64.394921875 103.4712890625 62.6 105.15 59.0296875 108.534765625 56.55 112.25 63.8392578125 115.117578125 71.1 118
M 52.15 87.9
L 59.7 97.15
Q 61.1873046875 95.2818359375 62.65 93.4 57.3138671875 90.85859375 52.15 87.9
M 70 43.7
Q 66.7529296875 41.8140625 63.45 39.9 61.4201171875 44.406640625 60.3 49.6 59.573828125 52.9080078125 59.15 56.3 63.2861328125 58.433984375 67.4 60.55
L 68.05 60.15
Q 67.1173828125 50.975390625 70 43.7
M 82.35 68.4
Q 83.7939453125 64.1134765625 83.7 59.7 78.7005859375 61.5828125 74.25 64.15 78.3146484375 66.26328125 82.35 68.4
M 157.25 92.45
Q 155.0419921875 91.2630859375 152.8 90.05 156.4009765625 98.601171875 157.05 107.9 157.862109375 108.3197265625 158.65 108.7 158.0388671875 100.634375 157.4 92.55 157.3396484375 92.4994140625 157.25 92.45
M 108.35 69.7
Q 108.437890625 70.9826171875 108.5 72.25 111.6048828125 70.3279296875 114.75 69.2 112.81171875 68.09765625 110.85 67 109.5708984375 68.29921875 108.35 69.7
M 130.95 47.75
Q 130.5828125 45.7517578125 130.1 43.8 127.055078125 31.863671875 119.25 22.25 118.8033203125 21.7095703125 118.3 21.15 117.32734375 19.9873046875 116.25 18.85 114.2 16.75 112.15 14.65 108.484765625 14.2109375 104.95 14.25 97.434375 14.38125 90.45 16.7 87.2669921875 17.765234375 84.15 19.3 88.2416015625 21.86953125 92.3 24.45 103.4697265625 21.3955078125 114.35 28.6 117.05 30.4 118.35 33.1 121.05234375 38.7154296875 123.45 44.45 126.3873046875 46.355859375 129.3 48.25
L 130.95 47.75
M 190.15 68.85
Q 188.5396484375 64.709375 185.75 61.5 183.063671875 58.50078125 179.3 56.35 170.05 53.85 166.35 62.85 166.2208984375 63.154296875 166.1 63.45 166.3015625 65.72109375 166.5 68 172.88828125 74.80625 182.3 71.55 186.25 70.25 190.15 68.85 Z"/>

<path fill="#6D6251" stroke="none" d="
M 139.65 281.15
Q 135.383984375 286.328515625 133.85 292.8 133.5 294.2 133.75 295.55 136.7 312.85 142.8 329.2 138.3 331.15 133.85 333.15 113.65 342.45 108.75 364.1 131.5 363.75 152.4 354.6 162.3 350.1 172.85 348.25 189.75 357.35 208.3 352.2 213.85 350.7 218.75 347.4
L 222.35 331.85 222.15 331.45 217.3 327.65 191.4 317.5
Q 191.4 329.8 194.6 341.6 196.9 350.25 188.35 352.4 186.35 351.6 184.45 350.65 175.95 346.45 172.75 337.5 173.1 336.4 173.45 335.35 175.8 327.9 173.55 320.35
L 170.35 327.5
Q 168.8 321.8 172.15 316.8 174.15 313.85 176.25 311 160.6884765625 294.233984375 141.5 281.65 140.590234375 281.422265625 139.65 281.15
M 155.6 285.45
Q 156.5083984375 286.5064453125 157.35 287.65
L 158.5 286.2
Q 157.0810546875 285.8373046875 155.6 285.45
M 100.4 270.25
Q 93.4419921875 268.259765625 86.5 266.25 78.4 263.95 70.85 260.35 70.51328125 260.1865234375 70.15 260
L 56.7 267.8
Q 51.65 284.2 51.45 301.45 50.6 302.65 49.8 303.85 44.05 312.55 35 317.95 54.45 328.4 75.95 323.5 77.05 323.25 78.2 323
L 105 280.35 100.4 270.25
M 153.25 240.95
Q 147.690625 238.5794921875 142.15 236.1
L 127.95 243.9
Q 127.8744140625 245.960546875 127.5 247.9 147.007421875 254.765625 166.45 261.75 165.93984375 260.359765625 165.35 259 160.8482421875 248.76875 153.25 240.95
M 116.9 184.6
Q 117.2380859375 188.912109375 117.55 193.2 122.164453125 195.6421875 126.75 198.1 131.9103515625 197.0267578125 137.35 197.05 138.5 197.6 139.65 196.95 141.95 195.8 143.5 193.7 141.95 190.85 140.2 188.1 136.15 181.8 128.6 181.6 121.22265625 181.3912109375 116.9 184.6
M 118.9 165.55
Q 117.5109375 165.187890625 116.1 164.8 115.714453125 164.696484375 115.3 164.6 115.4263671875 165.8583984375 115.5 167.1 117.165234375 166.2396484375 118.9 165.55
M 142.9 146.55
Q 133.735546875 136.912109375 123.75 128.05 119.1 123.85 113.65 126.9 113.0359375 126.6953125 112.4 126.45 112.7294921875 130.5564453125 113.05 134.6 127.9849609375 140.5775390625 142.9 146.55
M 137.6 124.8
Q 139.2103515625 126.8353515625 140.75 128.9
L 144.25 127.8
Q 140.9515625 126.2986328125 137.6 124.8
M 101.15 219.7
Q 101.1099609375 219.096484375 101.05 218.5 84.254296875 210.8150390625 68.2 201.65 65.810546875 200.276953125 63.5 198.75 63.1318359375 199.3103515625 62.75 199.85 55.3662109375 210.3666015625 53.1 222.15 74.639453125 229.481640625 96.15 236.95 98.713671875 233.1912109375 101.7 229.8 101.4875 224.745703125 101.15 219.7
M 76 152.9
Q 72.340625 151.67734375 68.75 150.25
L 82.6 163.35
Q 84.3 163.4 86.05 163.45 92.5626953125 163.8646484375 97.3 166.9 97.0267578125 163.13046875 96.7 159.35 86.2955078125 156.2537109375 76 152.9
M 36.1 190.55
Q 37.25 190.65 38.4 190.8 40.3130859375 185.51015625 43.1 181.25 38.7640625 176.687109375 34.8 171.75
L 23 182.1
Q 26.45 191.2 36.1 190.55
M 65.3 165.85
Q 66.1994140625 165.6513671875 67.1 165.45 72.15 164.25 77.3 164 67.45 152.5 53.4 146.5
L 53.4 155.5 50.3 158.2
Q 57.820703125 162.0353515625 65.3 165.85
M 74.25 115.9
Q 72.587109375 116.9029296875 71.1 118 82.569140625 122.526171875 94 127.05 93.467578125 121.03203125 92.9 114.95 83.5833984375 110.3 74.25 115.9
M 65.3 94.65
Q 63.991015625 94.0552734375 62.65 93.4 61.1873046875 95.2818359375 59.7 97.15 62.473828125 95.721484375 65.3 94.65
M 70 43.7
Q 67.1173828125 50.975390625 68.05 60.15 79.6080078125 52.08984375 91.25 55.95 80.6333984375 49.8759765625 70 43.7
M 83.7 59.7
Q 83.7939453125 64.1134765625 82.35 68.4 88.294921875 71.51640625 94.2 74.65 94.23515625 72.301171875 94.25 69.95 94.2662109375 66.45078125 94.25 62.95 90.9962890625 61.18203125 87.1 60.45 85.4 60.1 83.7 59.7
M 114.75 69.2
Q 111.6048828125 70.3279296875 108.5 72.25 108.8916015625 77.47265625 109.25 82.7 125.01953125 91.1689453125 140.7 99.8 146.5 103 152.55 105.8 154.8138671875 106.8474609375 157.05 107.9 156.4009765625 98.601171875 152.8 90.05 133.730859375 79.764453125 114.75 69.2
M 102.1 24
Q 102.5 23.95 102.9 23.95 105.35 25.55 105.55 28.4 105.7064453125 30.7564453125 105.85 33.1 114.680859375 38.7724609375 123.45 44.45 121.05234375 38.7154296875 118.35 33.1 117.05 30.4 114.35 28.6 103.4697265625 21.3955078125 92.3 24.45 94.2306640625 25.6783203125 96.15 26.9 98.30546875 24.446484375 102.1 24 Z"/>

<path fill="#000000" stroke="none" d="
M 16.45 -28.95
Q 12.45 -31.7 9.45 -35.4 -0.25 -47.5 -15.35 -44.75 -12 -33.35 -7.4 -22.3 10.45 20.6 53.4 38.5
L 50.65 46.4 -10.85 12.85 -11.45 16.45
Q -10.0595703125 19.3244140625 -8.65 22.15 -10.8330078125 21.0828125 -13.05 20 -8.101171875 26.3236328125 -3.1 32.6 8.92265625 54.437890625 24.05 74.4 27.6 79.15 30.55 84.2 39.1884765625 99.112890625 55 104.1 53.5662109375 105.874609375 52.3 107.7 28.1123046875 96.3990234375 3.9 85.1 -4.1 81.35 -12.65 83.8 6.6 116.3 36.4 140.55 38.35 142.1 37.8 144.3
L 9.25 131.8 5.4 134.85 19.35 160.75
Q 17.5 163 15.8 165.4 9.65 173.8 17.05 181.6
L 17.35 181.1
Q 21.99765625 194.7810546875 37.2 195.9 33.9296875 203.3951171875 34.3 211.8 30.75 210.9 27.2 210 25.45 209.45 24.15 208.35 13.6 200 1.65 205.55 2.3 207.15 3 208.75 7.75 219.55 16.5 227.8
L 37.25 252.2
Q 22.1677734375 267.375390625 23.65 288.2 21.7251953125 298.885546875 24.85 309.95 25.65 312.85 27.8 314.95 47.95 334.15 75.15 328.85 72.8 333.2 72.3 337.95 70.95 350.35 80 359.1 88.1 367 99.1 369.45 103.25 370.45 107.45 370.35 141.4 369.65 171.15 353.75 184.85 359.85 199.7 360.05 208.45 360.2 215.45 355.55 228.9 346.7 222.35 331.85
L 218.75 347.4
Q 213.85 350.7 208.3 352.2 189.75 357.35 172.85 348.25 162.3 350.1 152.4 354.6 131.5 363.75 108.75 364.1 98.85 360.45 89.05 356.65 86.75 355.7 84.65 354.4 75.4 348.55 75.1 337.85 75.05 336.1 75.9 334.75 84.5 321.15 94.1 308.2 101.35 298.45 109.6 289.7 120.1685546875 278.415625 134.5 279.75 137.1025390625 280.4759765625 139.65 281.15 140.590234375 281.422265625 141.5 281.65 160.6884765625 294.233984375 176.25 311 174.15 313.85 172.15 316.8 168.8 321.8 170.35 327.5
L 173.55 320.35
Q 178.2416015625 310.8244140625 187.55 305.9 187.9767578125 305.7083984375 188.4 305.5 188.7 305.35 189.05 305.2
L 217.3 327.65 222.15 331.45
Q 222.066015625 331.2203125 221.95 330.95
L 223.7 329.2
Q 220.9 324.6 217.9 320.15 207.95 305.5 192.5 296.7 203.95 300.35 215.3 304.3 221.3 306.5 227.7 306.7 233.6 306.15 235.9 300.75 235.8869140625 300.7119140625 235.85 300.65 239.4177734375 295.9962890625 234.35 290.3 233.15 289.2 231.95 288.15 230.7 287.15 229.35 286.35 228.1767578125 285.6611328125 227 285 218.593359375 275.41171875 204.75 271.75 201.85 271.05 199.15 269.9 192.45 266.9 191.85 259.45 197.15 261.5 202.35 263.8 209.877734375 267.0908203125 217.75 266 219.3962890625 266.5861328125 221.05 267.15 221.6 266.9 222.15 266.55 226.930859375 263.84765625 227 259.95 227.4 258.601171875 227.4 256.9 222.8 250.45 217.3 244.9 204.9 232.55 188.85 225.45
L 187.6 190.75
Q 193.15 192.2 198.1 194.85 208.05 200.2 217.7 194.45 216.5037109375 193.89140625 215.3 193.3 216.601171875 192.84296875 217.85 192.1 225.4 187.65 219.8 180.6 215.25 174.5 208 171.95 191.777734375 166.0283203125 175.75 159.7 175.5822265625 158.1943359375 175.4 156.7 174.6140625 149.5974609375 173.85 142.5
L 187.4 147.3
Q 191.3599609375 149.0341796875 195.35 150.7 197 151.45 198.75 150.75 203.355859375 148.94765625 204.85 146
L 205.95 145.7
Q 207.95 142.2 206.5 138.4 197.65 115.45 173.7 109.6 172.60625 109.304296875 171.5 109.1 170.8130859375 104.9736328125 169.8 100.85 170.46015625 101.2173828125 171.1 101.5 180.002734375 111.4833984375 193.05 107.15 193.7 106.2 194.05 105.15 194.7943359375 102.9890625 195.2 100.85 196.2400390625 98.5904296875 195.65 96.35 195.8125 88.8208984375 191.7 81.45 189.6138671875 77.6787109375 186.15 75.6 190.6099609375 73.6888671875 194.4 69.4 194.0984375 68.761328125 193.8 68.1
L 194.7 67.55
Q 195.6 59.75 190.1 54.3 179.5 43.6 166.8 51.75 158.85 50.6 152.8 55.75 148.8 48.7 140.8 47.15 137.85 38.4 133.75 29.9 130.75 23.55 127.9 17.25 125.55 11.95 120.3 9.65 99.05 0.35 78.4 10.95 46.5 -7.7 16.45 -28.95
M 10.75 -21.15
Q 14.0482421875 -18.8109375 17.4 -16.55
L 19.6 -15.05
Q 25.8970703125 -10.652734375 32.45 -6.65
L 34.2 -5.6
Q 39.491796875 -2.28125 44.85 0.85 45.09453125 1.0009765625 45.35 1.15 61.55 10.65 76.75 21.35 77.618359375 21.9669921875 78.45 22.55 81.87578125 24.98515625 85.25 27.35 89.2349609375 30.1806640625 93.2 32.95 93.521875 38.18984375 93.75 43.4 93.9390625 47.8630859375 94.05 52.3 82.889453125 46.35703125 71.9 39.9 68.67890625 38.0267578125 65.45 36.1 64.8109375 35.6994140625 64.15 35.3 61.8279296875 33.8830078125 59.55 32.4 44.48203125 22.6173828125 31.45 10.15 12.3 -7.8 -1.45 -30.05 4.6 -25.55 10.75 -21.15
M 185.75 61.5
Q 188.5396484375 64.709375 190.15 68.85 186.25 70.25 182.3 71.55 172.88828125 74.80625 166.5 68 166.3015625 65.72109375 166.1 63.45 166.2208984375 63.154296875 166.35 62.85 170.05 53.85 179.3 56.35 183.063671875 58.50078125 185.75 61.5
M 162 62
Q 163.7783203125 67.094140625 164.8 72.3 165.56875 76.2814453125 165.9 80.3 166.29609375 85.2013671875 166.05 90.15 166.0548828125 90.278515625 166.05 90.35 166.1 96.6 166.35 102.75 166.5376953125 107.843359375 166.85 112.9 166.9435546875 114.4755859375 167.05 116 167.308984375 119.8865234375 167.65 123.75 168.0166015625 128.116015625 168.45 132.45 168.9193359375 136.703515625 169.45 140.9 169.5966796875 142.0837890625 169.75 143.25 170.7009765625 150.646875 171.6 158.05 171.8443359375 159.8322265625 172.05 161.6 172.4953125 165.2255859375 172.9 168.8 173.4451171875 173.0857421875 173.95 177.35 173.9984375 177.7859375 174.05 178.2
L 179.8 230.05
Q 179.858203125 230.30234375 179.9 230.55 180.4001953125 234.375390625 180.9 238.2 181.496484375 242.6552734375 182.1 247.1 182.510546875 250.1548828125 182.9 253.2 183.0908203125 254.3443359375 183.25 255.5 183.3119140625 255.946484375 183.35 256.4 183.9365234375 260.763671875 184.1 265.1 184.18203125 266.594921875 184.2 268.05 184.2328125 270.58671875 184.15 273.1 184.020703125 276.2630859375 183.7 279.4 183.2927734375 283.33515625 182.55 287.2 182.203515625 289.24296875 181.75 291.25
L 175.4 281.25
Q 175.0505859375 279.171484375 174.75 277.05 174.4080078125 274.3490234375 174.2 271.6 173.956640625 268.6677734375 173.9 265.7 173.75 258.25 173.7 250.85 173.6736328125 247.1298828125 173.6 243.4 173.5181640625 240.1064453125 173.4 236.8 173.3708984375 235.99921875 173.3 235.2 173.15703125 231.7306640625 172.75 228.3 172.6552734375 227.0982421875 172.5 225.9 169.2896484375 200.520703125 166.7 175.1 166.2994140625 171.0078125 165.9 166.9 165.576953125 163.6951171875 165.25 160.5 165.030859375 157.9029296875 164.8 155.3 164.3013671875 149.8583984375 163.8 144.4 163.2064453125 137.2396484375 162.6 130.05 162.2896484375 125.73671875 161.95 121.4 161.69140625 117.6990234375 161.4 113.95 161.2888671875 111.9609375 161.15 109.95 160.6078125 102.08203125 160.1 94.2 159.8931640625 90.508984375 159.65 86.8 159.3873046875 81.89765625 159.1 76.95 158.92109375 72.9876953125 158.7 69 158.6578125 67.798828125 158.6 66.6 158.5857421875 66.2794921875 158.55 65.95 158.57578125 65.76875 158.55 65.55 158.6544921875 61.6314453125 160.6 58.05 161.3 60 162 62
M 180.15 97.7
Q 174.41875 94.639453125 168.7 91.55 168.202734375 86.3986328125 167.7 81.2 167.3685546875 77.4615234375 167 73.7 168.4947265625 74.640234375 169.9 75.65 178.5412109375 81.7388671875 185.55 90.05
L 189.75 100.2
Q 189.3044921875 100.1869140625 188.85 100.15 184.25703125 99.8447265625 180.15 97.7
M 174.9 76.9
Q 177.062890625 77.240625 179.1 77.15 181.654296875 80.231640625 183.55 83.55 179.296875 80.135546875 174.9 76.9
M 171.25 117.85
Q 171.6140625 118.0380859375 171.95 118.2 178.4908203125 121.349609375 184.4 125.6 190.123046875 129.6703125 195.25 134.75
L 199.95 144.45
Q 195.35 143.65 190.9 141.8 185.3123046875 139.4763671875 179.7 137.15 176.353515625 135.749609375 172.95 134.35 172.5138671875 129.937890625 172.05 125.5 171.6646484375 121.700390625 171.25 117.85
M 162.15 151.9
Q 162.2345703125 152.696484375 162.3 153.45 161.8416015625 152.782421875 161.35 152.1
L 162.15 151.9
M 177 169.95
Q 176.558203125 166.1765625 176.1 162.4 195.479296875 166.64296875 211.15 179.3
L 217.2 188.55
Q 209.45 188.45 201.85 186 189.9580078125 182.2998046875 178.05 178.6 177.5455078125 174.28828125 177 169.95
M 162.85 160
Q 163.110546875 163.111328125 163.35 166.2 163.719921875 170.251171875 164.05 174.3 162.3595703125 173.776171875 160.65 173.25
L 160.6 173.2
Q 160.1796875 173.0826171875 159.75 172.95 156.1119140625 171.83828125 152.45 170.7 143.596484375 168.0123046875 134.7 165.3 132.1142578125 164.5 129.5 163.7 124.845703125 162.273046875 120.2 160.85 117.55234375 160.0625 114.9 159.25 114.566796875 154.655078125 114.2 150.05 113.9037109375 145.9376953125 113.6 141.8 122.08671875 145.7265625 130.6 149.6 141.544921875 154.56171875 153.05 157.7 156.3931640625 158.6119140625 159.75 159.35 161.308203125 159.7134765625 162.85 160
M 179.3 188.75
Q 179.1150390625 187.226953125 178.9 185.7 180.026953125 186.0546875 181.1 186.4
L 181.25 204.4
Q 180.273046875 196.5876953125 179.3 188.75
M 130.1 43.8
Q 130.5828125 45.7517578125 130.95 47.75
L 129.3 48.25
Q 126.3873046875 46.355859375 123.45 44.45 114.680859375 38.7724609375 105.85 33.1 105.7064453125 30.7564453125 105.55 28.4 105.35 25.55 102.9 23.95 102.5 23.95 102.1 24 98.30546875 24.446484375 96.15 26.9 94.2306640625 25.6783203125 92.3 24.45 88.2416015625 21.86953125 84.15 19.3 87.2669921875 17.765234375 90.45 16.7 97.434375 14.38125 104.95 14.25 108.484765625 14.2109375 112.15 14.65 114.2 16.75 116.25 18.85 117.32734375 19.9873046875 118.3 21.15 118.8033203125 21.7095703125 119.25 22.25 127.055078125 31.863671875 130.1 43.8
M 97.1 45.3
Q 97.175 42.765625 97.25 40.2 97.3009765625 38.1134765625 97.65 36.1 98.287890625 32.5642578125 99.85 29.25 100.0361328125 28.9662109375 100.2 28.65
L 102.5 36.85
Q 102.5841796875 38.234375 102.65 39.6 102.841015625 44.130078125 103 48.6 103.2162109375 52.9423828125 103.4 57.25 103.525 60.0943359375 103.65 62.95 103.64453125 63.0865234375 103.65 63.2 103.8810546875 68.1833984375 104.1 73.15 104.1416015625 74.1166015625 104.15 75.05 104.1935546875 75.21484375 104.2 75.35 104.30390625 77.72109375 104.4 80.1 104.6216796875 84.6068359375 104.85 89.1 105.048046875 93.1296875 105.25 97.15 105.5080078125 101.7541015625 105.75 106.35 105.8837890625 108.3361328125 106 110.3 106.0369140625 110.9392578125 106.05 111.55 106.4361328125 117.646875 106.9 123.7 107.224609375 128.09609375 107.6 132.45 107.896875 135.9083984375 108.2 139.35 108.407421875 141.28046875 108.6 143.2 108.8453125 145.6974609375 109.05 148.2 109.54921875 152.948046875 110 157.7 110.2693359375 160.492578125 110.5 163.25 110.8578125 166.680078125 111.15 170.05 111.4896484375 173.43671875 111.8 176.8 111.8509765625 177.357421875 111.9 177.9 112.4265625 183.6771484375 112.95 189.4 113.012890625 190.1099609375 113.05 190.8 113.45390625 194.935546875 113.8 199.05 114.3177734375 204.4005859375 114.8 209.7 115.004296875 211.8583984375 115.2 214 115.4322265625 216.56484375 115.65 219.1 115.978125 222.953515625 116.25 226.75 116.9736328125 235.583984375 117.5 244.4 117.784375 248.46640625 118 252.5 118.248046875 256.7412109375 118.45 260.95 118.669140625 265.533203125 118.85 270.1 118.8755859375 270.76171875 118.9 271.4 119.05 275.45 116.1 278.1
L 108.9 269.7
Q 108.78984375 268.37890625 108.65 267 108.2326171875 262.352734375 107.9 257.65 107.5521484375 252.789453125 107.3 247.9 107.1546875 244.311328125 107.05 240.7 106.9876953125 238.9650390625 106.95 237.2 106.9205078125 235.9443359375 106.9 234.7 106.77265625 229.705859375 106.6 224.7 106.566796875 222.821875 106.5 220.9 106.4064453125 217.83203125 106.3 214.75 106.1330078125 210.1037109375 105.95 205.45 105.7314453125 199.776953125 105.45 194.05 105.3833984375 192.3142578125 105.3 190.55 105 184.05 104.25 177.55 104.001953125 175.480078125 103.75 173.4 102.96328125 167.1529296875 102.05 160.9 101.6357421875 157.835546875 101.15 154.75 100.42265625 149.7583984375 99.6 144.7 98.7892578125 139.659765625 97.9 134.6 97.8478515625 134.320703125 97.8 134.05 97.276171875 131.1333984375 96.85 128.2 96.1109375 122.4525390625 95.85 116.65 95.670703125 113.0619140625 95.7 109.45 95.70859375 108.3833984375 95.7 107.3 95.74765625 104.6662109375 95.75 102 95.8373046875 97.2640625 95.9 92.5 96.0056640625 88.6318359375 96.1 84.75 96.1078125 84.4009765625 96.1 84.05 96.2140625 79.91171875 96.3 75.75 96.4369140625 70.0984375 96.55 64.4 96.71640625 59.1267578125 96.85 53.8 96.9796875 49.5775390625 97.1 45.3
M 106.45 42.3
Q 108.4140625 43.65 110.35 45 114.626953125 48.00703125 119.05 50.7 123.5619140625 53.462109375 128.2 55.9 136.0478515625 59.989453125 144.3 63.2 146.519140625 64.0576171875 148.75 64.85 152.257421875 66.06953125 155.55 67.55 155.862890625 71.520703125 156.15 75.5 156.5123046875 80.4205078125 156.85 85.35 152.3169921875 82.924609375 147.75 80.5 144.07890625 78.5818359375 140.4 76.65 131.7306640625 72.112109375 123.05 67.55 118.9947265625 65.43515625 114.9 63.3 111.287890625 61.3958984375 107.65 59.45 107.35 55.145703125 107.05 50.8 106.7625 46.558203125 106.45 42.3
M 108.5 72.25
Q 108.437890625 70.9826171875 108.35 69.7 109.5708984375 68.29921875 110.85 67 112.81171875 68.09765625 114.75 69.2 133.730859375 79.764453125 152.8 90.05 155.0419921875 91.2630859375 157.25 92.45 157.3396484375 92.4994140625 157.4 92.55 158.0388671875 100.634375 158.65 108.7 157.862109375 108.3197265625 157.05 107.9 154.8138671875 106.8474609375 152.55 105.8 146.5 103 140.7 99.8 125.01953125 91.1689453125 109.25 82.7 108.8916015625 77.47265625 108.5 72.25
M 83.7 59.7
Q 85.4 60.1 87.1 60.45 90.9962890625 61.18203125 94.25 62.95 94.2662109375 66.45078125 94.25 69.95 94.23515625 72.301171875 94.2 74.65 88.294921875 71.51640625 82.35 68.4 78.3146484375 66.26328125 74.25 64.15 78.7005859375 61.5828125 83.7 59.7
M 85.05 77.45
Q 89.3181640625 80.0443359375 93.6 82.55 93.7865234375 82.6712890625 93.95 82.75 93.7748046875 87.040234375 93.5 91.3 93.2025390625 95.9783203125 92.75 100.65 91.9927734375 100.2900390625 91.2 99.9 83.0556640625 96.1845703125 74.95 92.15 72.46484375 90.8896484375 69.95 89.6 68.4759765625 88.844921875 67 88.05 61.1189453125 84.923828125 55.45 81.4 53.5703125 80.2052734375 51.7 78.95 44.405859375 74.2033203125 37.55 68.75 36.49453125 67.94921875 35.45 67.1 14.8 50.9 -0.55 29.6 3.55 32.15 7.7 34.75 10.98125 36.791015625 14.3 38.75 23.03515625 44.001171875 31.95 48.8 39.2666015625 52.7171875 46.7 56.35 47.8689453125 56.92265625 49 57.5 50.946484375 58.45390625 52.85 59.4 60.8177734375 63.473046875 68.6 67.8 73.80625 70.718359375 78.9 73.75 82.0044921875 75.5802734375 85.05 77.45
M 109.9 92
Q 115.5392578125 95.172265625 121.2 98.25 138.35 107.55 157.05 112.65 157.1220703125 112.6697265625 157.2 112.7 158.1177734375 112.95078125 159 113.2 159.3109375 116.83515625 159.6 120.45 159.9423828125 124.763671875 160.3 129.05 159.144921875 128.6005859375 158 128.1 157.86953125 128.074609375 157.75 128 154.7125 126.76875 151.65 125.5 151.3658203125 125.3810546875 151.05 125.25 150.201171875 124.902734375 149.35 124.55 140.099609375 120.687890625 130.85 116.8 120.983984375 112.71953125 111.1 108.6 110.796875 104.115625 110.45 99.6 110.197265625 95.803515625 109.9 92
M 63.45 39.9
Q 66.7529296875 41.8140625 70 43.7 80.6333984375 49.8759765625 91.25 55.95 79.6080078125 52.08984375 68.05 60.15
L 67.4 60.55
Q 63.2861328125 58.433984375 59.15 56.3 59.573828125 52.9080078125 60.3 49.6 61.4201171875 44.406640625 63.45 39.9
M 8.75 98.7
Q 7.076171875 96.9470703125 5.45 95.15 7 95.9 8.55 96.8 27.65 107.2 48.15 114.1 51.2109375 115.139453125 54.25 116.2 60.9361328125 118.6126953125 67.5 121.2 78.6994140625 125.6630859375 89.6 130.75 92.05859375 131.8921875 94.5 133 94.96328125 138.087890625 95.4 143.15 95.8130859375 148.112890625 96.2 153.05 88.9427734375 150.520703125 81.75 147.75 71.1265625 143.6978515625 61.15 138.35 55.994140625 135.60859375 51 132.5 48.0384765625 130.6564453125 45.15 128.7
L 45.1 128.65
Q 25.081640625 115.891015625 8.75 98.7
M 59.7 97.15
L 52.15 87.9
Q 57.3138671875 90.85859375 62.65 93.4 63.991015625 94.0552734375 65.3 94.65 62.473828125 95.721484375 59.7 97.15
M 62.6 105.15
Q 64.394921875 103.4712890625 66.35 102.15 70.058203125 99.6736328125 74.35 98.5 83.4052734375 102.234375 92.45 105.95 92.3984375 109.2830078125 92.7 112.6 92.808984375 113.7912109375 92.9 114.95 93.467578125 121.03203125 94 127.05 82.569140625 122.526171875 71.1 118 63.8392578125 115.117578125 56.55 112.25 59.0296875 108.534765625 62.6 105.15
M 52.65 146.75
Q 53.0310546875 146.63203125 53.4 146.5 67.45 152.5 77.3 164 72.15 164.25 67.1 165.45 66.1994140625 165.6513671875 65.3 165.85 57.820703125 162.0353515625 50.3 158.2 44.75859375 155.4140625 39.2 152.6 45.3978515625 148.9462890625 52.65 146.75
M 27.25 162.1
Q 30.00546875 165.64765625 32.75 169.2 33.75859375 170.501171875 34.8 171.75 38.7640625 176.687109375 43.1 181.25 40.3130859375 185.51015625 38.4 190.8 37.25 190.65 36.1 190.55 26.45 191.2 23 182.1
L 17.85 174.7
Q 18.9 173 19.95 171.35 23.267578125 166.257421875 27.25 162.1
M 24.6 149.35
Q 29.6166015625 152.556640625 34.7 155.55 40.3091796875 158.88125 46 161.95 52.11328125 165.28515625 58.35 168.35 59.647265625 168.974609375 60.95 169.6 63.8041015625 170.97421875 66.6 172.35 77.4056640625 177.7505859375 87.85 183.65 91.659765625 185.80703125 95.4 188 97.25234375 189.0990234375 99.1 190.2 99.54453125 196.314453125 99.95 202.4 100.303515625 207.1888671875 100.6 211.95 95.812109375 209.535546875 91.05 207 79.1712890625 200.67109375 68.2 193 62.2994140625 188.8439453125 56.65 184.3 53.9548828125 182.1673828125 51.35 179.95 49.2091796875 178.1296875 47.1 176.25 42.837109375 172.38203125 38.8 168.25 34.440625 163.8275390625 30.35 159.1 28.6880859375 157.13828125 27.05 155.1 24.4642578125 151.9451171875 22 148.65 21.32265625 147.7259765625 20.65 146.8 22.6 148.05 24.6 149.35
M 68.75 150.25
Q 72.340625 151.67734375 76 152.9 86.2955078125 156.2537109375 96.7 159.35 97.0267578125 163.13046875 97.3 166.9 92.5626953125 163.8646484375 86.05 163.45 84.3 163.4 82.6 163.35
L 68.75 150.25
M 48.1 186.2
Q 49.7943359375 187.8640625 51.55 189.45 57.143359375 194.6017578125 63.5 198.75 65.810546875 200.276953125 68.2 201.65 84.254296875 210.8150390625 101.05 218.5 101.1099609375 219.096484375 101.15 219.7 101.4875 224.745703125 101.7 229.8 98.713671875 233.1912109375 96.15 236.95 74.639453125 229.481640625 53.1 222.15 47.6935546875 220.3103515625 42.25 218.45 40.88515625 201.7294921875 48.1 186.2
M 140.75 128.9
Q 139.2103515625 126.8353515625 137.6 124.8 140.9515625 126.2986328125 144.25 127.8
L 140.75 128.9
M 149.15 131.8
Q 150.326171875 133.553515625 151.5 135.3 154.7095703125 140.2435546875 156.65 145.8 151.13125 139.053515625 144.25 133.3 146.76015625 132.6556640625 149.15 131.8
M 111.5 113.8
Q 112.1529296875 114.0833984375 112.8 114.35 116.770703125 115.9513671875 120.7 117.6 127.89453125 123.6873046875 134.4 130.55 143.516796875 140.19765625 152.1 150.2 147.5103515625 148.3873046875 142.9 146.55 127.9849609375 140.5775390625 113.05 134.6 112.7294921875 130.5564453125 112.4 126.45 111.9642578125 120.146484375 111.5 113.8
M 116.1 164.8
Q 117.5109375 165.187890625 118.9 165.55 117.165234375 166.2396484375 115.5 167.1 115.4263671875 165.8583984375 115.3 164.6 115.714453125 164.696484375 116.1 164.8
M 98.35 180.25
Q 98.4615234375 181.69140625 98.55 183.1 87.8470703125 177.503125 77.1 171.95
L 94.85 171.2 98.35 180.25
M 116.9 184.6
Q 116.50546875 179.7916015625 116.1 174.95 117.66328125 173.866015625 119.2 172.8 125.5 168.45 132.4 171.65 146.6 178.4 143.5 193.7 141.95 195.8 139.65 196.95 138.5 197.6 137.35 197.05 131.9103515625 197.0267578125 126.75 198.1 122.164453125 195.6421875 117.55 193.2 117.2380859375 188.912109375 116.9 184.6
M 148.4 176.7
Q 151.0271484375 178.942578125 154.15 180.4 154.75 180.6 155.4 180.85 158.2 181.95 161.2 181.8
L 161.3 212.1
Q 152.8 205.9 142.7 203.7 141.2 203.4 139.7 203.15 138.665625 202.9408203125 137.65 202.8 138.512109375 202.383203125 139.35 201.85 153.59609375 192.883984375 148.4 176.7
M 138.05 212.9
Q 138.7361328125 213.2853515625 139.4 213.65 149.72578125 219.31328125 160.55 223.75 163.0552734375 224.77265625 165.55 225.7 165.6169921875 228.911328125 165.7 232.1 165.8587890625 236.17578125 166.1 240.25 165.5958984375 240.0326171875 165.1 239.8 147.7990234375 232.5763671875 130.45 225.55 127.433984375 224.3078125 124.45 223 122.129296875 222.0283203125 119.8 221 119.4421875 216.3296875 119.05 211.65 118.665625 206.6646484375 118.25 201.65 121.7916015625 203.7396484375 125.35 205.75 131.671484375 209.394140625 138.05 212.9
M 121.65 227.2
Q 128.35 229.8 134.9 232.8 138.5240234375 234.460546875 142.15 236.1 147.690625 238.5794921875 153.25 240.95 159.878515625 243.8392578125 166.5 246.6 167.162109375 254.497265625 168.2 262.35 167.3234375 262.0603515625 166.45 261.75 147.007421875 254.765625 127.5 247.9 124.6791015625 246.8998046875 121.8 245.9 121.54140625 241.7962890625 121.2 237.7 120.741015625 232.1826171875 120.3 226.65 120.967578125 226.9326171875 121.65 227.2
M 93.05 241.9
Q 96.7486328125 243.3595703125 100.4 244.9 101.217578125 245.2341796875 102 245.55 102.0091796875 246.8859375 102 248.2 101.962109375 252.0162109375 102.2 255.8 102.573828125 260.596484375 103.4 265.35 100.01015625 264.235546875 96.6 263.05 95.9115234375 262.8439453125 95.2 262.6 93.36015625 261.96953125 91.5 261.3 84.52890625 258.742578125 77.75 255.65 69.8689453125 252.0369140625 62.3 247.7 60.0869140625 246.4306640625 57.9 245.1 55.1015625 243.4072265625 52.35 241.65 50.085546875 240.1703125 47.85 238.65 42.796875 235.2052734375 37.95 231.5 29.7396484375 225.1955078125 22.1 218.1 19.477734375 215.65703125 16.9 213.1 21.4 215.15 25.95 217.2 34.41171875 220.96796875 43 224.3 47.643359375 226.0888671875 52.3 227.75 59.1498046875 230.21328125 66.1 232.4 79.7869140625 236.6357421875 93.05 241.9
M 86.5 266.25
Q 93.4419921875 268.259765625 100.4 270.25
L 105 280.35 78.2 323
Q 77.05 323.25 75.95 323.5 54.45 328.4 35 317.95 27.95 310.5 28.7 300.35 30.5 275.15 48.25 257.25 51.5173828125 253.970703125 55.1 251.55 62.3853515625 256.1953125 70.15 260 70.51328125 260.1865234375 70.85 260.35 78.4 263.95 86.5 266.25
M 122.35 254.35
Q 123.6181640625 254.872265625 124.85 255.35 137.1775390625 260.4169921875 149.7 264.9 159.25390625 268.4095703125 169 270.55 169.2125 270.61484375 169.4 270.65 169.8119140625 273.2384765625 170.25 275.8 171.0205078125 280.0814453125 171.9 284.3 167.060546875 283.0494140625 162.2 281.75 154.35234375 279.6939453125 146.45 277.6 140.2599609375 275.980078125 134.05 274.35 131.4068359375 273.65546875 128.75 272.9 125.846875 272.127734375 122.9 271.3 123 270.567578125 123 269.85 122.967578125 266.02890625 122.8 262.25 122.7232421875 260.19375 122.6 258.15 122.4982421875 256.2552734375 122.35 254.35
M 157.35 287.65
Q 156.5083984375 286.5064453125 155.6 285.45 157.0810546875 285.8373046875 158.5 286.2
L 157.35 287.65
M 185.75 240.05
Q 185.3548828125 236.56171875 184.9 233.05 184.8388671875 232.5748046875 184.75 232.1 185.480078125 232.3443359375 186.15 232.6 202.4833984375 238.5990234375 215.15 250.65 215.8064453125 251.310546875 216.45 251.95
L 221.35 261.6
Q 216.35 262.05 211.7 260.1 199.5451171875 254.701171875 187.35 249.4 187.0658203125 249.2755859375 186.75 249.15 186.30546875 244.610546875 185.75 240.05
M 171.1 293.3
L 173.3 291.3 177.15 297.6 175.35 297.8 171.1 293.3
M 187.75 288.65
Q 188.9689453125 284.8642578125 189.15 280.8 189.215625 279.0259765625 189.1 277.2 188.9951171875 275.47890625 188.85 273.75 190.1091796875 273.9638671875 191.3 274.2 210.03984375 277.90078125 225.65 289.3
L 231.95 298.3
Q 229.6697265625 298.4169921875 227.4 298.3 226.105078125 298.26484375 224.8 298.1 220.675 297.710546875 216.6 296.55 202.1859375 292.5912109375 187.75 288.65 Z"/>

<path fill="#66523E" stroke="none" d="
M 196.3 282.55
Q 192.716015625 281.69140625 189.15 280.8 188.9689453125 284.8642578125 187.75 288.65 202.1859375 292.5912109375 216.6 296.55 220.675 297.710546875 224.8 298.1 226.105078125 298.26484375 227.4 298.3 229.6697265625 298.4169921875 231.95 298.3
L 225.65 289.3
Q 224.3271484375 288.9939453125 223 288.7 209.631640625 285.5984375 196.3 282.55
M 186.75 249.15
Q 187.0658203125 249.2755859375 187.35 249.4 199.5451171875 254.701171875 211.7 260.1 216.35 262.05 221.35 261.6
L 216.45 251.95
Q 201.1099609375 246.01328125 185.75 240.05 186.30546875 244.610546875 186.75 249.15
M 124 262.6
Q 123.40390625 262.426171875 122.8 262.25 122.967578125 266.02890625 123 269.85 123 270.567578125 122.9 271.3 125.846875 272.127734375 128.75 272.9 131.4068359375 273.65546875 134.05 274.35 140.2599609375 275.980078125 146.45 277.6 154.35234375 279.6939453125 162.2 281.75 167.060546875 283.0494140625 171.9 284.3 171.0205078125 280.0814453125 170.25 275.8 169.0212890625 275.475390625 167.75 275.1 164.130078125 274.1076171875 160.5 273.05 142.2 267.9 124 262.6
M 103.4 265.35
Q 102.573828125 260.596484375 102.2 255.8 101.116796875 255.448828125 100 255.05 93.57734375 252.9232421875 87.15 250.6 84.12890625 249.5234375 81.1 248.4 76.530859375 246.730859375 71.9 245.15 64.2423828125 242.4796875 56.45 240 54.4125 239.382421875 52.35 238.75 50.3748046875 238.140625 48.4 237.55
L 57.9 245.1
Q 60.0869140625 246.4306640625 62.3 247.7 69.8689453125 252.0369140625 77.75 255.65 84.52890625 258.742578125 91.5 261.3 93.36015625 261.96953125 95.2 262.6 95.9115234375 262.8439453125 96.6 263.05 100.01015625 264.235546875 103.4 265.35
M 124.55 214.05
Q 124.0904296875 213.85625 123.6 213.65 121.3224609375 212.6716796875 119.05 211.65 119.4421875 216.3296875 119.8 221 122.129296875 222.0283203125 124.45 223 127.433984375 224.3078125 130.45 225.55 147.7990234375 232.5763671875 165.1 239.8 165.5958984375 240.0326171875 166.1 240.25 165.8587890625 236.17578125 165.7 232.1 154.258984375 227.3341796875 143 222.2 133.8353515625 217.973828125 124.55 214.05
M 52.8 177.3
Q 50.624609375 176.4107421875 48.4 175.55
L 56.65 184.3
Q 62.2994140625 188.8439453125 68.2 193 79.1712890625 200.67109375 91.05 207 95.812109375 209.535546875 100.6 211.95 100.303515625 207.1888671875 99.95 202.4 90.0689453125 197.23359375 80.5 191.4 77.1568359375 189.3568359375 73.75 187.45 63.598828125 181.7861328125 52.8 177.3
M 51.15 126.55
Q 48.369140625 125.5107421875 45.55 124.45 40.7828125 122.63984375 36 120.85
L 45.1 128.65 45.15 128.7
Q 48.0384765625 130.6564453125 51 132.5 55.994140625 135.60859375 61.15 138.35 71.1265625 143.6978515625 81.75 147.75 88.9427734375 150.520703125 96.2 153.05 95.8130859375 148.112890625 95.4 143.15 81.9470703125 138.2732421875 68.55 133.2 65.31875 131.9572265625 62.05 130.7 56.6353515625 128.6390625 51.15 126.55
M 159.6 120.45
Q 158.0330078125 119.8158203125 156.45 119.15 141.4462890625 113.002734375 126.5 106.7 120.292578125 104.103125 114.15 101.3 112.309375 100.46328125 110.45 99.6 110.796875 104.115625 111.1 108.6 120.983984375 112.71953125 130.85 116.8 140.099609375 120.687890625 149.35 124.55 150.201171875 124.902734375 151.05 125.25 151.3658203125 125.3810546875 151.65 125.5 154.7125 126.76875 157.75 128 157.86953125 128.074609375 158 128.1 159.144921875 128.6005859375 160.3 129.05 159.9423828125 124.763671875 159.6 120.45
M 93.5 91.3
Q 91.826953125 90.4609375 90.15 89.6 81.5056640625 85.2873046875 72.85 80.95 67.6091796875 78.3296875 62.35 75.7 61.5361328125 75.2931640625 60.7 74.85 58.4724609375 73.7580078125 56.2 72.6 43.3951171875 66.2173828125 30.6 59.8 29.0974609375 59.0509765625 27.6 58.3
L 35.45 67.1
Q 36.49453125 67.94921875 37.55 68.75 44.405859375 74.2033203125 51.7 78.95 53.5703125 80.2052734375 55.45 81.4 61.1189453125 84.923828125 67 88.05 68.4759765625 88.844921875 69.95 89.6 72.46484375 90.8896484375 74.95 92.15 83.0556640625 96.1845703125 91.2 99.9 91.9927734375 100.2900390625 92.75 100.65 93.2025390625 95.9783203125 93.5 91.3
M 120.8 57.95
Q 116.6482421875 55.87421875 112.55 53.7 109.7927734375 52.28671875 107.05 50.8 107.35 55.145703125 107.65 59.45 111.287890625 61.3958984375 114.9 63.3 118.9947265625 65.43515625 123.05 67.55 131.7306640625 72.112109375 140.4 76.65 144.07890625 78.5818359375 147.75 80.5 152.3169921875 82.924609375 156.85 85.35 156.5123046875 80.4205078125 156.15 75.5 153.462890625 74.156640625 150.75 72.8 136.4318359375 65.691796875 122.1 58.6 121.4466796875 58.2701171875 120.8 57.95
M 102.5 36.85
Q 102.5234375 38.1921875 102.5 39.5 102.5138671875 43.93828125 102.5 48.35 102.4923828125 52.5611328125 102.45 56.75 102.469140625 59.527734375 102.45 62.25 102.44921875 62.7814453125 102.45 63.3 102.4365234375 70.8921875 102.4 78.5 102.39921875 78.6537109375 102.4 78.8 102.399609375 78.907421875 102.4 79 102.38359375 83.404296875 102.5 87.75 102.6166015625 91.87890625 102.85 95.95 103.1095703125 100.7009765625 103.5 105.4 103.7646484375 108.084375 104.05 110.75 104.2861328125 112.8716796875 104.55 115 105.024609375 118.89140625 105.45 122.75 105.9935546875 127.40390625 106.45 132 106.82265625 135.43984375 107.15 138.85 107.5685546875 143.31484375 107.95 147.75 108.345703125 152.5306640625 108.7 157.25 108.8 158.690625 108.9 160.1 108.9982421875 161.4900390625 109.1 162.85 109.4025390625 167.1150390625 109.7 171.35 110.003515625 175.2025390625 110.3 179.05 110.700390625 184.415625 111.1 189.75 111.4505859375 193.8177734375 111.75 197.85 112.03984375 200.955859375 112.3 204.05 112.4953125 206.39296875 112.7 208.7 113.10078125 213.438671875 113.5 218.15 113.9623046875 223.063671875 114.4 227.95 115.03984375 234.612109375 115.7 241.25 115.8296875 242.546875 115.9 243.8 116.083203125 247.75234375 115.6 251.5 115.1107421875 255.6236328125 113.8 259.5 112.4673828125 263.6365234375 110.25 267.5 109.6236328125 268.6361328125 108.9 269.7
L 116.1 278.1
Q 119.05 275.45 118.9 271.4 118.8755859375 270.76171875 118.85 270.1 118.669140625 265.533203125 118.45 260.95 118.248046875 256.7412109375 118 252.5 117.784375 248.46640625 117.5 244.4 116.9736328125 235.583984375 116.25 226.75 115.978125 222.953515625 115.65 219.1 115.4322265625 216.56484375 115.2 214 115.004296875 211.8583984375 114.8 209.7 114.3177734375 204.4005859375 113.8 199.05 113.45390625 194.935546875 113.05 190.8 113.012890625 190.1099609375 112.95 189.4 112.4265625 183.6771484375 111.9 177.9 111.8509765625 177.357421875 111.8 176.8 111.4896484375 173.43671875 111.15 170.05 110.8578125 166.680078125 110.5 163.25 110.2693359375 160.492578125 110 157.7 109.54921875 152.948046875 109.05 148.2 108.8453125 145.6974609375 108.6 143.2 108.407421875 141.28046875 108.2 139.35 107.896875 135.9083984375 107.6 132.45 107.224609375 128.09609375 106.9 123.7 106.4361328125 117.646875 106.05 111.55 106.0369140625 110.9392578125 106 110.3 105.8837890625 108.3361328125 105.75 106.35 105.5080078125 101.7541015625 105.25 97.15 105.048046875 93.1296875 104.85 89.1 104.6216796875 84.6068359375 104.4 80.1 104.30390625 77.72109375 104.2 75.35 104.1935546875 75.21484375 104.15 75.05 104.1416015625 74.1166015625 104.1 73.15 103.8810546875 68.1833984375 103.65 63.2 103.64453125 63.0865234375 103.65 62.95 103.525 60.0943359375 103.4 57.25 103.2162109375 52.9423828125 103 48.6 102.841015625 44.130078125 102.65 39.6 102.5841796875 38.234375 102.5 36.85
M 163.35 166.2
Q 163.1095703125 166.121875 162.85 166.05 161.9232421875 165.805078125 161 165.55 160.1232421875 165.3171875 159.25 165.05 147.09609375 161.7267578125 135.2 157.5 124.6822265625 153.8345703125 114.2 150.05 114.566796875 154.655078125 114.9 159.25 117.55234375 160.0625 120.2 160.85 124.845703125 162.273046875 129.5 163.7 132.1142578125 164.5 134.7 165.3 143.596484375 168.0123046875 152.45 170.7 156.1119140625 171.83828125 159.75 172.95 160.1796875 173.0826171875 160.6 173.2
L 160.65 173.25
Q 162.3595703125 173.776171875 164.05 174.3 163.719921875 170.251171875 163.35 166.2
M 178.05 178.6
Q 189.9580078125 182.2998046875 201.85 186 209.45 188.45 217.2 188.55
L 211.15 179.3
Q 194.03359375 174.6416015625 177 169.95 177.5455078125 174.28828125 178.05 178.6
M 172.95 134.35
Q 176.353515625 135.749609375 179.7 137.15 185.3123046875 139.4763671875 190.9 141.8 195.35 143.65 199.95 144.45
L 195.25 134.75
Q 183.61796875 130.17421875 172.05 125.5 172.5138671875 129.937890625 172.95 134.35
M 168.7 91.55
Q 174.41875 94.639453125 180.15 97.7 184.25703125 99.8447265625 188.85 100.15 189.3044921875 100.1869140625 189.75 100.2
L 185.55 90.05
Q 176.623828125 85.623828125 167.7 81.2 168.202734375 86.3986328125 168.7 91.55
M 179.9 230.55
Q 179.858203125 230.30234375 179.8 230.05 179.850390625 230.2974609375 179.85 230.55 180.2626953125 234.3208984375 180.65 238.1 181.0748046875 242.1232421875 181.5 246.15 181.5390625 246.511328125 181.55 246.85 181.86640625 249.8583984375 181.9 252.8 181.9658203125 259.9283203125 180.45 266.75 179.86171875 269.6248046875 178.95 272.4 178.1322265625 275.06796875 177.05 277.65 176.2958984375 279.48203125 175.4 281.25
L 181.75 291.25
Q 182.203515625 289.24296875 182.55 287.2 183.2927734375 283.33515625 183.7 279.4 184.020703125 276.2630859375 184.15 273.1 184.2328125 270.58671875 184.2 268.05 184.18203125 266.594921875 184.1 265.1 183.9365234375 260.763671875 183.35 256.4 183.3119140625 255.946484375 183.25 255.5 183.0908203125 254.3443359375 182.9 253.2 182.510546875 250.1548828125 182.1 247.1 181.496484375 242.6552734375 180.9 238.2 180.4001953125 234.375390625 179.9 230.55
M 166.05 90.35
L 164.55 82.95
Q 164.4619140625 86.13515625 164.4 89.3 164.3703125 95.18515625 164.5 101.05 164.537890625 102.5720703125 164.6 104.1 164.734765625 108.021484375 164.95 111.9 165.0791015625 113.6140625 165.2 115.3 165.487109375 119.1697265625 165.85 123 166.3205078125 127.4310546875 166.9 131.8 167.4720703125 136.155859375 168.15 140.45 168.2146484375 140.684765625 168.25 140.9 169.6294921875 149.334765625 170.95 157.75 171.24296875 159.6541015625 171.5 161.5 172.08515625 165.13515625 172.6 168.75 173.284375 173.0435546875 173.9 177.35 173.9849609375 177.7828125 174.05 178.2 173.9984375 177.7859375 173.95 177.35 173.4451171875 173.0857421875 172.9 168.8 172.4953125 165.2255859375 172.05 161.6 171.8443359375 159.8322265625 171.6 158.05 170.7009765625 150.646875 169.75 143.25 169.5966796875 142.0837890625 169.45 140.9 168.9193359375 136.703515625 168.45 132.45 168.0166015625 128.116015625 167.65 123.75 167.308984375 119.8865234375 167.05 116 166.9435546875 114.4755859375 166.85 112.9 166.5376953125 107.843359375 166.35 102.75 166.1 96.6 166.05 90.35
M 93.75 43.4
Q 91.1130859375 41.8962890625 88.5 40.35 82.731640625 36.9490234375 77 33.45 73.725 31.427734375 70.45 29.35 67.5591796875 27.566796875 64.65 25.7 59.5421875 22.424609375 54.45 19.05 39.6 9.15 23.85 0.75
L 31.45 10.15
Q 44.48203125 22.6173828125 59.55 32.4 61.8279296875 33.8830078125 64.15 35.3 64.8109375 35.6994140625 65.45 36.1 68.67890625 38.0267578125 71.9 39.9 82.889453125 46.35703125 94.05 52.3 93.9390625 47.8630859375 93.75 43.4 Z"/>

<path fill="#CC9966" stroke="none" d="
M 189.15 280.8
Q 192.716015625 281.69140625 196.3 282.55 209.631640625 285.5984375 223 288.7 224.3271484375 288.9939453125 225.65 289.3 210.03984375 277.90078125 191.3 274.2 190.1091796875 273.9638671875 188.85 273.75 188.9951171875 275.47890625 189.1 277.2 189.215625 279.0259765625 189.15 280.8
M 184.9 233.05
Q 185.3548828125 236.56171875 185.75 240.05 201.1099609375 246.01328125 216.45 251.95 215.8064453125 251.310546875 215.15 250.65 202.4833984375 238.5990234375 186.15 232.6 185.480078125 232.3443359375 184.75 232.1 184.8388671875 232.5748046875 184.9 233.05
M 122.8 262.25
Q 123.40390625 262.426171875 124 262.6 142.2 267.9 160.5 273.05 164.130078125 274.1076171875 167.75 275.1 169.0212890625 275.475390625 170.25 275.8 169.8119140625 273.2384765625 169.4 270.65 169.2125 270.61484375 169 270.55 159.25390625 268.4095703125 149.7 264.9 137.1775390625 260.4169921875 124.85 255.35 123.6181640625 254.872265625 122.35 254.35 122.4982421875 256.2552734375 122.6 258.15 122.7232421875 260.19375 122.8 262.25
M 100.4 244.9
Q 96.7486328125 243.3595703125 93.05 241.9 79.7869140625 236.6357421875 66.1 232.4 59.1498046875 230.21328125 52.3 227.75 47.643359375 226.0888671875 43 224.3 34.41171875 220.96796875 25.95 217.2 21.4 215.15 16.9 213.1 19.477734375 215.65703125 22.1 218.1 29.7396484375 225.1955078125 37.95 231.5 42.796875 235.2052734375 47.85 238.65 50.085546875 240.1703125 52.35 241.65 55.1015625 243.4072265625 57.9 245.1
L 48.4 237.55
Q 50.3748046875 238.140625 52.35 238.75 54.4125 239.382421875 56.45 240 64.2423828125 242.4796875 71.9 245.15 76.530859375 246.730859375 81.1 248.4 84.12890625 249.5234375 87.15 250.6 93.57734375 252.9232421875 100 255.05 101.116796875 255.448828125 102.2 255.8 101.962109375 252.0162109375 102 248.2 102.0091796875 246.8859375 102 245.55 101.217578125 245.2341796875 100.4 244.9
M 123.6 213.65
Q 124.0904296875 213.85625 124.55 214.05 133.8353515625 217.973828125 143 222.2 154.258984375 227.3341796875 165.7 232.1 165.6169921875 228.911328125 165.55 225.7 163.0552734375 224.77265625 160.55 223.75 149.72578125 219.31328125 139.4 213.65 138.7361328125 213.2853515625 138.05 212.9 131.671484375 209.394140625 125.35 205.75 121.7916015625 203.7396484375 118.25 201.65 118.665625 206.6646484375 119.05 211.65 121.3224609375 212.6716796875 123.6 213.65
M 34.7 155.55
Q 29.6166015625 152.556640625 24.6 149.35 22.6 148.05 20.65 146.8 21.32265625 147.7259765625 22 148.65 24.4642578125 151.9451171875 27.05 155.1 28.6880859375 157.13828125 30.35 159.1 34.440625 163.8275390625 38.8 168.25 42.837109375 172.38203125 47.1 176.25 49.2091796875 178.1296875 51.35 179.95 53.9548828125 182.1673828125 56.65 184.3
L 48.4 175.55
Q 50.624609375 176.4107421875 52.8 177.3 63.598828125 181.7861328125 73.75 187.45 77.1568359375 189.3568359375 80.5 191.4 90.0689453125 197.23359375 99.95 202.4 99.54453125 196.314453125 99.1 190.2 97.25234375 189.0990234375 95.4 188 91.659765625 185.80703125 87.85 183.65 77.4056640625 177.7505859375 66.6 172.35 63.8041015625 170.97421875 60.95 169.6 59.647265625 168.974609375 58.35 168.35 52.11328125 165.28515625 46 161.95 40.3091796875 158.88125 34.7 155.55
M 5.45 95.15
Q 7.076171875 96.9470703125 8.75 98.7 25.081640625 115.891015625 45.1 128.65
L 36 120.85
Q 40.7828125 122.63984375 45.55 124.45 48.369140625 125.5107421875 51.15 126.55 56.6353515625 128.6390625 62.05 130.7 65.31875 131.9572265625 68.55 133.2 81.9470703125 138.2732421875 95.4 143.15 94.96328125 138.087890625 94.5 133 92.05859375 131.8921875 89.6 130.75 78.6994140625 125.6630859375 67.5 121.2 60.9361328125 118.6126953125 54.25 116.2 51.2109375 115.139453125 48.15 114.1 27.65 107.2 8.55 96.8 7 95.9 5.45 95.15
M 121.2 98.25
Q 115.5392578125 95.172265625 109.9 92 110.197265625 95.803515625 110.45 99.6 112.309375 100.46328125 114.15 101.3 120.292578125 104.103125 126.5 106.7 141.4462890625 113.002734375 156.45 119.15 158.0330078125 119.8158203125 159.6 120.45 159.3109375 116.83515625 159 113.2 158.1177734375 112.95078125 157.2 112.7 157.1220703125 112.6697265625 157.05 112.65 138.35 107.55 121.2 98.25
M 90.15 89.6
Q 91.826953125 90.4609375 93.5 91.3 93.7748046875 87.040234375 93.95 82.75 93.7865234375 82.6712890625 93.6 82.55 89.3181640625 80.0443359375 85.05 77.45 82.0044921875 75.5802734375 78.9 73.75 73.80625 70.718359375 68.6 67.8 60.8177734375 63.473046875 52.85 59.4 50.946484375 58.45390625 49 57.5 47.8689453125 56.92265625 46.7 56.35 39.2666015625 52.7171875 31.95 48.8 23.03515625 44.001171875 14.3 38.75 10.98125 36.791015625 7.7 34.75 3.55 32.15 -0.55 29.6 14.8 50.9 35.45 67.1
L 27.6 58.3
Q 29.0974609375 59.0509765625 30.6 59.8 43.3951171875 66.2173828125 56.2 72.6 58.4724609375 73.7580078125 60.7 74.85 61.5361328125 75.2931640625 62.35 75.7 67.6091796875 78.3296875 72.85 80.95 81.5056640625 85.2873046875 90.15 89.6
M 110.35 45
Q 108.4140625 43.65 106.45 42.3 106.7625 46.558203125 107.05 50.8 109.7927734375 52.28671875 112.55 53.7 116.6482421875 55.87421875 120.8 57.95 121.4466796875 58.2701171875 122.1 58.6 136.4318359375 65.691796875 150.75 72.8 153.462890625 74.156640625 156.15 75.5 155.862890625 71.520703125 155.55 67.55 152.257421875 66.06953125 148.75 64.85 146.519140625 64.0576171875 144.3 63.2 136.0478515625 59.989453125 128.2 55.9 123.5619140625 53.462109375 119.05 50.7 114.626953125 48.00703125 110.35 45
M 97.25 40.2
Q 97.175 42.765625 97.1 45.3 96.9796875 49.5775390625 96.85 53.8 96.71640625 59.1267578125 96.55 64.4 96.4369140625 70.0984375 96.3 75.75 96.2140625 79.91171875 96.1 84.05 96.1078125 84.4009765625 96.1 84.75 96.0056640625 88.6318359375 95.9 92.5 95.8373046875 97.2640625 95.75 102 95.74765625 104.6662109375 95.7 107.3 95.70859375 108.3833984375 95.7 109.45 95.670703125 113.0619140625 95.85 116.65 96.1109375 122.4525390625 96.85 128.2 97.276171875 131.1333984375 97.8 134.05 97.8478515625 134.320703125 97.9 134.6 98.7892578125 139.659765625 99.6 144.7 100.42265625 149.7583984375 101.15 154.75 101.6357421875 157.835546875 102.05 160.9 102.96328125 167.1529296875 103.75 173.4 104.001953125 175.480078125 104.25 177.55 105 184.05 105.3 190.55 105.3833984375 192.3142578125 105.45 194.05 105.7314453125 199.776953125 105.95 205.45 106.1330078125 210.1037109375 106.3 214.75 106.4064453125 217.83203125 106.5 220.9 106.566796875 222.821875 106.6 224.7 106.77265625 229.705859375 106.9 234.7 106.9205078125 235.9443359375 106.95 237.2 106.9876953125 238.9650390625 107.05 240.7 107.1546875 244.311328125 107.3 247.9 107.5521484375 252.789453125 107.9 257.65 108.2326171875 262.352734375 108.65 267 108.78984375 268.37890625 108.9 269.7 109.6236328125 268.6361328125 110.25 267.5 112.4673828125 263.6365234375 113.8 259.5 115.1107421875 255.6236328125 115.6 251.5 116.083203125 247.75234375 115.9 243.8 115.8296875 242.546875 115.7 241.25 115.03984375 234.612109375 114.4 227.95 113.9623046875 223.063671875 113.5 218.15 113.10078125 213.438671875 112.7 208.7 112.4953125 206.39296875 112.3 204.05 112.03984375 200.955859375 111.75 197.85 111.4505859375 193.8177734375 111.1 189.75 110.700390625 184.415625 110.3 179.05 110.003515625 175.2025390625 109.7 171.35 109.4025390625 167.1150390625 109.1 162.85 108.9982421875 161.4900390625 108.9 160.1 108.8 158.690625 108.7 157.25 108.345703125 152.5306640625 107.95 147.75 107.5685546875 143.31484375 107.15 138.85 106.82265625 135.43984375 106.45 132 105.9935546875 127.40390625 105.45 122.75 105.024609375 118.89140625 104.55 115 104.2861328125 112.8716796875 104.05 110.75 103.7646484375 108.084375 103.5 105.4 103.1095703125 100.7009765625 102.85 95.95 102.6166015625 91.87890625 102.5 87.75 102.38359375 83.404296875 102.4 79 102.399609375 78.907421875 102.4 78.8 102.39921875 78.6537109375 102.4 78.5 102.4365234375 70.8921875 102.45 63.3 102.44921875 62.7814453125 102.45 62.25 102.469140625 59.527734375 102.45 56.75 102.4923828125 52.5611328125 102.5 48.35 102.5138671875 43.93828125 102.5 39.5 102.5234375 38.1921875 102.5 36.85
L 100.2 28.65
Q 100.0361328125 28.9662109375 99.85 29.25 98.287890625 32.5642578125 97.65 36.1 97.3009765625 38.1134765625 97.25 40.2
M 162.85 166.05
Q 163.1095703125 166.121875 163.35 166.2 163.110546875 163.111328125 162.85 160 161.308203125 159.7134765625 159.75 159.35 156.3931640625 158.6119140625 153.05 157.7 141.544921875 154.56171875 130.6 149.6 122.08671875 145.7265625 113.6 141.8 113.9037109375 145.9376953125 114.2 150.05 124.6822265625 153.8345703125 135.2 157.5 147.09609375 161.7267578125 159.25 165.05 160.1232421875 165.3171875 161 165.55 161.9232421875 165.805078125 162.85 166.05
M 176.1 162.4
Q 176.558203125 166.1765625 177 169.95 194.03359375 174.6416015625 211.15 179.3 195.479296875 166.64296875 176.1 162.4
M 171.95 118.2
Q 171.6140625 118.0380859375 171.25 117.85 171.6646484375 121.700390625 172.05 125.5 183.61796875 130.17421875 195.25 134.75 190.123046875 129.6703125 184.4 125.6 178.4908203125 121.349609375 171.95 118.2
M 167.7 81.2
Q 176.623828125 85.623828125 185.55 90.05 178.5412109375 81.7388671875 169.9 75.65 168.4947265625 74.640234375 167 73.7 167.3685546875 77.4615234375 167.7 81.2
M 164.8 72.3
Q 163.7783203125 67.094140625 162 62 161.3 60 160.6 58.05 158.6544921875 61.6314453125 158.55 65.55 158.57578125 65.76875 158.55 65.95 158.5857421875 66.2794921875 158.6 66.6 158.6578125 67.798828125 158.7 69 158.92109375 72.9876953125 159.1 76.95 159.3873046875 81.89765625 159.65 86.8 159.8931640625 90.508984375 160.1 94.2 160.6078125 102.08203125 161.15 109.95 161.2888671875 111.9609375 161.4 113.95 161.69140625 117.6990234375 161.95 121.4 162.2896484375 125.73671875 162.6 130.05 163.2064453125 137.2396484375 163.8 144.4 164.3013671875 149.8583984375 164.8 155.3 165.030859375 157.9029296875 165.25 160.5 165.576953125 163.6951171875 165.9 166.9 166.2994140625 171.0078125 166.7 175.1 169.2896484375 200.520703125 172.5 225.9 172.6552734375 227.0982421875 172.75 228.3 173.15703125 231.7306640625 173.3 235.2 173.3708984375 235.99921875 173.4 236.8 173.5181640625 240.1064453125 173.6 243.4 173.6736328125 247.1298828125 173.7 250.85 173.75 258.25 173.9 265.7 173.956640625 268.6677734375 174.2 271.6 174.4080078125 274.3490234375 174.75 277.05 175.0505859375 279.171484375 175.4 281.25 176.2958984375 279.48203125 177.05 277.65 178.1322265625 275.06796875 178.95 272.4 179.86171875 269.6248046875 180.45 266.75 181.9658203125 259.9283203125 181.9 252.8 181.86640625 249.8583984375 181.55 246.85 181.5390625 246.511328125 181.5 246.15 181.0748046875 242.1232421875 180.65 238.1 180.2626953125 234.3208984375 179.85 230.55 179.850390625 230.2974609375 179.8 230.05
L 174.05 178.2
Q 173.9849609375 177.7828125 173.9 177.35 173.284375 173.0435546875 172.6 168.75 172.08515625 165.13515625 171.5 161.5 171.24296875 159.6541015625 170.95 157.75 169.6294921875 149.334765625 168.25 140.9 168.2146484375 140.684765625 168.15 140.45 167.4720703125 136.155859375 166.9 131.8 166.3205078125 127.4310546875 165.85 123 165.487109375 119.1697265625 165.2 115.3 165.0791015625 113.6140625 164.95 111.9 164.734765625 108.021484375 164.6 104.1 164.537890625 102.5720703125 164.5 101.05 164.3703125 95.18515625 164.4 89.3 164.4619140625 86.13515625 164.55 82.95
L 166.05 90.35
Q 166.0548828125 90.278515625 166.05 90.15 166.29609375 85.2013671875 165.9 80.3 165.56875 76.2814453125 164.8 72.3
M 17.4 -16.55
Q 14.0482421875 -18.8109375 10.75 -21.15 4.6 -25.55 -1.45 -30.05 12.3 -7.8 31.45 10.15
L 23.85 0.75
Q 39.6 9.15 54.45 19.05 59.5421875 22.424609375 64.65 25.7 67.5591796875 27.566796875 70.45 29.35 73.725 31.427734375 77 33.45 82.731640625 36.9490234375 88.5 40.35 91.1130859375 41.8962890625 93.75 43.4 93.521875 38.18984375 93.2 32.95 89.2349609375 30.1806640625 85.25 27.35 81.87578125 24.98515625 78.45 22.55 77.618359375 21.9669921875 76.75 21.35 61.55 10.65 45.35 1.15 45.09453125 1.0009765625 44.85 0.85 39.491796875 -2.28125 34.2 -5.6
L 32.45 -6.65
Q 25.8970703125 -10.652734375 19.6 -15.05
L 17.4 -16.55 Z"/>
</g>
</defs>

<g transform="matrix( 1, 0, 0, 1, 374.95,127.8) ">
<g transform="matrix( 1, 0, 0, 1, -1.25,125.35) ">
<g transform="matrix( 1, 0, 0, 1, 0,0) ">
<use xlink:href="#Spiked_Berricade_0_Layer0_0_FILL"/>
</g>
</g>
</g>
</svg>
