
<svg xmlns="http://www.w3.org/2000/svg" version="1.1" xmlns:xlink="http://www.w3.org/1999/xlink" preserveAspectRatio="none" x="0px" y="0px" width="125px" height="100px" viewBox="0 0 125 100">
<defs>
<linearGradient id="Gradient_1" gradientUnits="userSpaceOnUse" x1="35.125" y1="103.13749999999999" x2="27.674999999999997" y2="134.0625" spreadMethod="pad">
<stop  offset="6.2745098039215685%" stop-color="#EF66FF"/>

<stop  offset="25.88235294117647%" stop-color="#CC66FF"/>

<stop  offset="100%" stop-color="#FFFFFF"/>
</linearGradient>

<linearGradient id="Gradient_2" gradientUnits="userSpaceOnUse" x1="-7.237499999999997" y1="49.474999999999994" x2="-51.2625" y2="103.625" spreadMethod="pad">
<stop  offset="6.2745098039215685%" stop-color="#EF66FF"/>

<stop  offset="25.88235294117647%" stop-color="#CC66FF"/>

<stop  offset="100%" stop-color="#FFFFFF"/>
</linearGradient>

<linearGradient id="Gradient_3" gradientUnits="userSpaceOnUse" x1="55.637499999999996" y1="58.087500000000006" x2="40.9625" y2="83.7125" spreadMethod="pad">
<stop  offset="0%" stop-color="#CC66FF"/>

<stop  offset="100%" stop-color="#FFFFFF"/>
</linearGradient>

<linearGradient id="Gradient_4" gradientUnits="userSpaceOnUse" x1="115.28750000000001" y1="102.9875" x2="87.6125" y2="132.0125" spreadMethod="pad">
<stop  offset="6.2745098039215685%" stop-color="#EF66FF"/>

<stop  offset="25.88235294117647%" stop-color="#CC66FF"/>

<stop  offset="100%" stop-color="#FFFFFF"/>
</linearGradient>

<g id="firey_Burst_5_Layer0_0_FILL">
<path fill="#CC66FF" stroke="none" d="
M -0.2 140.2
Q -3.566015625 141.385546875 -12 145.1 -22.3 148.9 -32 148.9 -38.15 148.9 -42.25 146.95 -46.094140625 145.17578125 -46.7 142.3 -47.45 146.185546875 -47.45 146.95 -47.45 152 -42.25 154.05 -39 155.35 -34.25 155.35 -20.95 155.35 -10.45 149.05 -3.983203125 145.16015625 -0.2 140.2
M -131.4 76.6
Q -131.45 77.379296875 -131.45 78 -131.45 96.3 -121.85 104 -115.35 109.2 -104.8 109.2 -98.85 109.2 -87.1 98.75 -77.85 90.55 -73 84.05 -76.35 84.9 -91.45 91.3 -103.15 96.25 -111.2 96.25 -120.4 96.25 -125.05 92.45 -130.765625 87.761328125 -131.4 76.6
M -62.15 -1.75
L -70.7 -1.75
Q -78.1880859375 2.9458984375 -78.65 3.55 -78.7 3.65 -78.4 4.1 -78.15 4.5 -79.5 5.85 -78.15 5.85 -70.3 2.4 -62.5 -1.1 -62.15 -1.1
L -62.15 -1.75 Z"/>

<path fill="url(#Gradient_1)" stroke="none" d="
M 33.35 94.95
Q 33.35 94.8 34.3 91.5 34.9642578125 89.1578125 35.15 88.05 34.1703125 89.0234375 31.3 90.65 28.8 92.45 28.8 94.65 28.8 96.9 33.35 102.05 37.85 107.25 37.85 109.75 37.85 113.3 31.6 119.8 24.96875 126.701953125 10.75 137.55 16.637109375 134.6505859375 22.35 132.55 26.55 131 37.1 128.05 43.2 126.4 45.1 124.35 47.45 121.85 47.45 115.5 47.45 109.15 40.4 103.5 36.25 100.2 35.55 99.5 33.35 97.25 33.35 94.95 Z"/>

<path fill="url(#Gradient_2)" stroke="none" d="
M 26.5 34.1
Q 22.4044921875 34.7447265625 7.5 39.8 -9.9 45.65 -11.5 47.5 -13.95 50.25 -16.8 58.6 -17.35703125 60.2015625 -17.85 61.55 -42.70390625 89.7611328125 -57.75 100.85 -64.1 105.6 -70.25 108.35 -73.6216796875 109.9171875 -79.55 112.1 -68.501171875 109.991796875 -58.65 107.15 -38.35 101.35 -32.65 94.4 -28.5 89.35 -24.2 81.75 -19.55 73.65 -17.85 68.05 -14.55 57.1 4.05 45.35 17.6947265625 36.71171875 26.5 34.1 Z"/>

<path fill="url(#Gradient_3)" stroke="none" d="
M 61.05 28.7
Q 61.38046875 37.4421875 60.1 40.2 59.35 41.7 57.65 42.55 55.2 43.7 54.5 44.35 50.8 47.7 49.2 49.05 46.5 51.4 44.25 52.7 41 54.6 37.35 57.15 35.2392578125 58.425390625 33.75 58 36.1041015625 58.950390625 37.95 61.35 39.1 62.9 41.3 66.3 45.95 72.55 55.8 72.55 59.45 72.55 65.25 71.6 68.1 71.15 70.5 70.65
L 70.5 70
Q 63.05 72.35 57.45 68 52 63.75 52 56.2 52 47.9 62.55 43.65 69.7 40.8 69.8 40.75 73.1 39.05 73.1 36.6 73.1 35.1 66.15 31.45 63.4337890625 30.0306640625 61.05 28.7 Z"/>

<path fill="url(#Gradient_4)" stroke="none" d="
M 194.65 62.9
Q 195.056640625 62.2263671875 195.4 61.55 184.6732421875 76.4513671875 152.5 92.2 135.35 100.55 117.35 106.55 101.1 111.95 96.2 111.7 104.2 106.75 107.25 99.5 110.08046875 92.922265625 110.35 83 108.92890625 85.120703125 106.95 87.4 100.65 94.65 90.4 101.95 80.95 108.7 72.2 112.65 63.35 116.65 60.25 115.5
L 59.6 115.5
Q 63.15 117.85 74.25 119.3 84.85 120.7 97.15 120.7 110.4 120.7 140.15 106 166.05 93.2 175.15 85.35 187.45 74.8 194.65 62.9 Z"/>
</g>
</defs>

<g transform="matrix( -0.361663818359375, 0, 0, -0.47125244140625, 71.15,83.35) ">
<g transform="matrix( 1, 0, 0, 1, 0,0) ">
<use xlink:href="#firey_Burst_5_Layer0_0_FILL"/>
</g>
</g>
</svg>
