
<svg xmlns="http://www.w3.org/2000/svg" version="1.1" xmlns:xlink="http://www.w3.org/1999/xlink" preserveAspectRatio="none" x="0px" y="0px" width="125px" height="100px" viewBox="0 0 125 100">
<defs>
<linearGradient id="Gradient_1" gradientUnits="userSpaceOnUse" x1="-105.925" y1="94.1125" x2="-126.075" y2="112.4875" spreadMethod="pad">
<stop  offset="6.2745098039215685%" stop-color="#EF66FF"/>

<stop  offset="25.88235294117647%" stop-color="#CC66FF"/>

<stop  offset="100%" stop-color="#FFFFFF"/>
</linearGradient>

<linearGradient id="Gradient_2" gradientUnits="userSpaceOnUse" x1="95.375" y1="131.17499999999998" x2="76.525" y2="148.525" spreadMethod="pad">
<stop  offset="6.2745098039215685%" stop-color="#EF66FF"/>

<stop  offset="25.88235294117647%" stop-color="#CC66FF"/>

<stop  offset="100%" stop-color="#FFFFFF"/>
</linearGradient>

<g id="firey_Burst_6_Layer0_0_FILL">
<path fill="#CC66FF" stroke="none" d="
M -51.3 139.6
Q -51.50625 140.6599609375 -52.5 145.35 -53.75 151.25 -53.75 152.4 -53.75 157.3 -49.95 158.6 -48.05 159.25 -41.65 159.25 -36.9412109375 159.25 -30.85 157.15 -32.3908203125 157.3 -34.9 157.3 -44.15 157.3 -48.65 150.7 -52.25625 145.43671875 -51.3 139.6
M -31.8 74
Q -34.8046875 77.556640625 -35.9 80.4 -36.65 82.35 -37.55 86.25 -38.65 90.05 -41 93.75 -43.2 97.2 -53.35 105.65 -62.55 113.25 -67.25 116.15
L -67.25 116.8
Q -53.75 111.35 -46.45 104.3 -40.7 98.7 -37.35 90.35 -34.05 80.3 -32.1 74.9 -31.9396484375 74.453515625 -31.8 74
M 43.7 116.95
Q 43.182421875 115.7529296875 43.55 114.45 37.9455078125 126.240234375 34.55 129.4 33.55 130.35 31.95 131.2 30.35 132 29.45 132.9
L 29.45 133.45
Q 36.55 130.45 39.6 128.55 44.9 125.25 44.9 120.65 44.9 119.7 43.7 116.95
M 5.1 41.15
L 5.1 40.5
Q 2.990625 40.0646484375 -1.4 39.9 -10.5701171875 49.4646484375 -10.65 51.9 -10.65 52.45 -9.85 52.8 -9.7845703125 52.8326171875 -9.8 52.85 -7.9056640625 50.425 -3.6 46.55 2.8 40.85 5.1 41.15 Z"/>

<path fill="url(#Gradient_1)" stroke="none" d="
M -100.95 111.85
Q -95.45 107 -94.9 103.35 -94.491796875 101.057421875 -92.05 98.25 -96.585546875 102.3373046875 -101.75 105 -108.65 108.55 -113.15 108.55 -120.35 108.55 -125.65 105.65 -131.25 102.6 -133.4 96.9 -130.2 106.35 -127.95 110.2 -123.35 118.1 -117.05 118.1 -108.05 118.1 -100.95 111.85 Z"/>

<path fill="url(#Gradient_2)" stroke="none" d="
M 175.15 95.4
Q 186.25 89.1 191.15 84.7 161.5 104 130.55 112.15 110.35 117.45 92.35 117.45 91 117.45 86.4 117.05 81.35 116.6 78.2 116.15 85.2408203125 114.81171875 92.55 105.9 86.69765625 110.115234375 80.45 113.3 74.6 116.3 67.4 118.75 61.55 120.8 60.9 121.35 63.3 121.35 73.35 122.3 83.45 123.25 88.8 123.25 113.55 123.25 149.15 108.1 163.1 102.2 175.15 95.4 Z"/>
</g>
</defs>

<g transform="matrix( -0.361663818359375, 0, 0, -0.47125244140625, 71.15,83.35) ">
<g transform="matrix( 1, 0, 0, 1, 0,0) ">
<use xlink:href="#firey_Burst_6_Layer0_0_FILL"/>
</g>
</g>
</svg>
