
<svg xmlns="http://www.w3.org/2000/svg" version="1.1" xmlns:xlink="http://www.w3.org/1999/xlink" preserveAspectRatio="none" x="0px" y="0px" width="1000px" height="1000px" viewBox="0 0 1000 1000">
<defs>
<g id="effect_slow_11_Layer1_0_FILL">
<path fill="#004FFF" stroke="none" d="
M 66 -18.9
Q 66 -34.25 55.15 -45.15 44.35 -55.95 28.95 -55.95 13.65 -55.95 2.7 -45.15 -8.1 -34.25 -8.1 -18.9 -8.1 -3.5 2.7 7.3 13.65 18.2 28.95 18.2 44.35 18.2 55.15 7.3 66 -3.5 66 -18.9 Z"/>
</g>

<g id="effect_slow_11_Layer0_0_FILL">
<path fill="#0099FF" stroke="none" d="
M 114.15 -19.1
Q 114.15 -54.4 89.3 -79.45 64.4 -104.15 29.1 -104.15 -6 -104.15 -31.15 -79.45 -55.95 -54.4 -55.95 -19.1 -55.95 16.15 -31.15 40.95 -6 66.05 29.1 66.05 64.4 66.05 89.3 40.95 114.15 16.15 114.15 -19.1
M 85.95 -76.25
Q 109.7 -52.5 109.7 -19 109.7 14.5 85.95 38.05 62.4 61.8 28.9 61.8 -4.6 61.8 -28.35 38.05 -51.9 14.5 -51.9 -19 -51.9 -52.5 -28.35 -76.25 -4.6 -99.8 28.9 -99.8 62.4 -99.8 85.95 -76.25 Z"/>
</g>
</defs>

<g transform="matrix( 1, 0, 0, 1, 470.9,519.45) ">
<g transform="matrix( 1, 0, 0, 1, 0,0) ">
<use xlink:href="#effect_slow_11_Layer1_0_FILL"/>
</g>

<g transform="matrix( 1, 0, 0, 1, 0,0) ">
<use xlink:href="#effect_slow_11_Layer0_0_FILL"/>
</g>
</g>
</svg>
