
<svg xmlns="http://www.w3.org/2000/svg" version="1.1" xmlns:xlink="http://www.w3.org/1999/xlink" preserveAspectRatio="none" x="0px" y="0px" width="1000px" height="1000px" viewBox="0 0 1000 1000">
<defs>
<g id="effect_slow_21_Layer1_0_FILL">
<path fill="#004FFF" stroke="none" d="
M 114.15 -19.1
Q 114.15 -54.4 89.3 -79.45 64.4 -104.15 29.1 -104.15 -6 -104.15 -31.15 -79.45 -55.95 -54.4 -55.95 -19.1 -55.95 16.15 -31.15 40.95 -6 66.05 29.1 66.05 64.4 66.05 89.3 40.95 114.15 16.15 114.15 -19.1
M 86.8 -77
Q 110.85 -52.95 110.85 -19 110.85 15 86.8 38.9 62.85 62.95 28.9 62.95 -5.05 62.95 -29.1 38.9 -53.05 15 -53.05 -19 -53.05 -52.95 -29.1 -77 -5.05 -100.9 28.9 -100.9 62.85 -100.9 86.8 -77 Z"/>
</g>
</defs>

<g transform="matrix( 1, 0, 0, 1, 470.9,519.45) ">
<g transform="matrix( 1, 0, 0, 1, 0,0) ">
<use xlink:href="#effect_slow_21_Layer1_0_FILL"/>
</g>
</g>
</svg>
