
<svg xmlns="http://www.w3.org/2000/svg" version="1.1" xmlns:xlink="http://www.w3.org/1999/xlink" preserveAspectRatio="none" x="0px" y="0px" width="1000px" height="1000px" viewBox="0 0 1000 1000">
<defs>
<g id="impact_0_Layer0_0_FILL">
<path fill="#000000" stroke="none" d="
M 415.7 426.95
Q 417.25 425.95 422.45 421.45 428.9 415.85 432.4 411.85 431.7 412.5 426.9 414.9 423.75 416.4 421.8 417.25 421.25 416.65 409.9 406.5 399.9333984375 397.5779296875 399.15 397.25 399.059375 397.207421875 399.15 397.35 404.75 405.4 416.45 421.9 414.9373046875 424.4822265625 415.7 426.95
M 62.55 70.85
Q 64.1 68.3 63.35 65.85 61.8 66.85 56.6 71.35 50.15 76.95 46.65 80.95 47.35 80.3 52.15 77.9 55.3 76.4 57.25 75.5 57.8 76.15 69.15 86.3 79.1181640625 95.2234375 79.85 95.55 79.990625 95.5923828125 79.9 95.45 74.3 87.4 62.55 70.85
M 198.2 488.2
Q 195.96015625 487.487890625 192.75 486.4 188.75 485.05 177.2 481.75 166.4 478.7 165.45 478.55 161.4625 477.82734375 159.5 477.6 158.45 477.55 173.75 483.4 189.05 489.25 191 489.65 191.65 489.75 197.2 489.9 202.8 490 203.15 489.85 203.4021484375 489.7775390625 203.3 489.65 202.3029296875 489.5212890625 198.2 488.2
M 248.5 420.8
Q 254.75 420 254.7 419.85 252.25 419.55 248.5 419.45 245.2 419.35 240.9 419.5 240.3 419.5 239.7 419.5 230.15 419.75 229.05 420.35 227.5 421.1 221.8 430.6 221.5 431.15 221.15 431.7 215.05 442 214.7 444.15 214.4 445.75 216.65 452.7 219.6 461.85 219.8 462.75 219.15 480.45 218.75 481.2 218.65 481.45 217.25 483.65 215.9 485.75 215.95 485.9 216.2 485.65 219.55 484.7 222.85 483.75 223.2 483.45 223.3 483.35 226.7 467.7 226.7212890625 467.4119140625 226.55 466.7 226.08515625 464.1734375 223.45 456.15 220.1 445.85 220.1 445.55 220.1 444.55 224.75 434.2 225.65 432.2 226.4 430.6 229.65 423.65 230.3 423.2 230.75 422.9 240.9 421.7 241.9 421.55 242.95 421.45 246.15 421.05 248.5 420.8
M 258.25 419.95
Q 256.85 436.85 256.35 439.25 256 440.8 265.35 445.85 274.45 450.75 278.4 451.5 278.496484375 453.7830078125 280.9 462.25 282.2158203125 466.9478515625 284.25 473.55 290.15 492.65 291.8 492.7 293.15 492.7 308.9 488.25 325.25 483.65 326.1 483.5 329.75 482.85 343.95 477.6 359.05 472.05 364.85 468.85 366 468.25 397.15 442.95 396.45 443.4 388 446.2 379.2 449.1 378.1 449.6 377.95 449.05 368.9 436.2 363.849609375 429.02890625 361.6 425.7 359.8220703125 423.1267578125 359.8 422.95 359.75 422.65 365.4 413.1 371.2 403.3 371.5 401.95 371.8603515625 400.284375 362.2 393.05 364.9798828125 400.9806640625 364.85 401.5 364.85 401.6 358.65 412.75 352.9 423.1 353.55 424.55 353.6919921875 424.8623046875 356.8 429.2 359.167578125 432.540625 363.25 438.2 372.85 451.4 373.2 452.05 369.75 453.95 365.8 456.4 356.25 462.5 341.95 471.3 324.35 482.15 323.6 482.25 322 482.55 310.05 483.3 299.1 483.95 294.25 484.1 291.35 474.35 288.5 465.4 287.738671875 462.978515625 287.05 460.85 282.7580078125 447.5990234375 281.55 446.65 280.85 446.1 274.1 444.15 267.15 442.15 263.5 441.55 264 436.7 262.2 419.75 260.55 403.1 259.85 403.8 259.55 404.15 258.25 419.95
M 71.55 307.6
Q 68.3 308.5 62.95 310.05 58.25 311.15 49.45 319.3 44.95 323.45 41.05 327.7 40.71875 327.9943359375 33.35 330.3 31.65 330.9 13.65 336.55 13.5 336.2 3 329.8 -7.45 323.4 -7.65 322.9 -7.7 322.8 -7.65 309.6 -7.65 296.3 -8.4 293.1 -9.8 294.9 -11.95 304.8 -13.9 313.9 -13.95 316.5 -14 318.3 -1.35 329.6 10.9 340.6 12.05 340.8 12.3 340.85 12.6 340.8 13.05 341.1 35.85 336.45 45.703515625 334.0314453125 46.85 332.35 51.05 326.1 51.4 325.6 55.25 320.15 56.95 319.25 58.75 318.25 65.1 316.75 71.55 315.3 72.6 315.05 74.15 314.6 76.6 311.1 79.05 307.55 78.25 306.7 77.5 305.95 71.55 307.6
M 19.65 267.8
Q 5.647265625 268.984375 4.75 269.8 3.55 270.85 -2.45 278.9 -8.75 287.35 -8 287.8 -7.55 288.1 0.25 280.95 8.45 273.55 8.7 273.45 34.55 272.7 37.5 272.45 40.15 272.25 44.5 285.55 48.55 297.95 48.55 302.45 48.9 302.35 49.25 288.1 49.65 272.45 49.7 272.05 55.95 273.5 61.15 274.65 71.35 277 71.3 276.55 71.25 275.65 59.5 270.65 48 265.8 47.4 265.85
L 19.65 267.8
M 150.65 258.8
Q 152.65 260.45 154.2 261.6 154.55 261.85 161.85 267.05 162.8255859375 267.5376953125 168.1 264.25 169.3505859375 263.50390625 170.8 262.55 178.45 257.25 178.85 257.05 179.35 256.7 200.45 255.3 206.55 265.7 206.75 265.9 207.35 267.15 211.25 270.3 215 273.35 215.55 273.35 208.7 283.6 207.25 286.65 206.85 287.4 207.65 305.25 208.5 323.3 209.4 322.85 210.3 322.4 217.3 315 224.25 307.75 224.45 307.15 228.2 285.45 228.9 284.9 231.75 284.05 234.5 283.2 239.9 281.5 240.35 280.3 240.1 279.95 233.45 279.35 226.9 278.75 226.65 278.3 226.1 277.3 223.1 273.7 220.4 270.4 220.5 270.3 222.4 267.9 227 254.65 224.9 256.55 224.75 256.65 224.2 257 219.85 262.85 215.6 268.6 215.4 268.65 210 261.7 210.2 260.85 210.3 260.3 217.65 255.75 214.7 256.75 212.05 257 207.2 257.45 206.05 255.1 205.05 252.95 204.8 251.9 204.3 250.15 206.5 245.35 207.65 242.95 208.9 240.65 200.05 248.3 199.8 249.35 199.75 249.35 199.65 249.3 198.65 248.95 188.45 248.9 178.15 248.9 177.05 249.3 175.9 249.7 169.75 256.25 163.6 262.8 162.75 263.05 158.3 260.75 155.05 259.15 148.9 256.1 147.95 256.2 147.75 256.4 150.65 258.8
M 219.85 276.1
Q 220.7 276.35 222.7 281.9 224.75 287.55 224.4 289.25 221.3 304.8 219.9 306.9 218.6 309 214.8 311.95 210.95 315 209.65 316.95 209.4 311.6 209.8 298.65 210.2 286.5 210.45 285.8 210.9 284.65 215 280.35 219.15 275.9 219.85 276.1
M 106.7 291.65
Q 104.5 275.8 103.1 275.85 101.75 275.9 100.6 294.75 99.4 313.75 100.65 315.4 101.25 316.15 110.9 322.15 121.05 328.5 123.85 331.25 123.8 334 129.2 347.05 134.35 359.35 135.1 360.2 125.8 372.05 125.5 373.45 125.5 373.55 125.5 373.8 121.15 371.75 104.65 364.9 104.05 364.6 85.9 373.9 67.95 383.1 65.3 384.9 62.9626953125 386.536328125 62.5 387.35 61.9 388.5 59.9 396.3 57.8 404.1 57.55 404.6 56.95 405.35 47.35 407.45 37.8 409.5 37.45 408.9 35.95 406.35 26.05 393.2 17.6 382 17.85 380.75 18.55 378.2 20.75 374.45 23.75 369.3 24.25 368.2 25.05 366.5 25.2 358.55 25.45 350.7 24.85 350.65 24.2 354.35 17.6 369.4 11.15 383.8 11.1 384.25 10.95 385.55 48.8 425.25 55.95 432.5 73.05 443.55 89.1 453.85 91.25 453.6 92.6 453.5 102.3 444.7 112 436 111.2 435.65 100.5 440.5 91.05 448.35 90.8 448.05 71.3 436.05 52.05 424.15 46.8 419.6 52.4 415.2 57.75 410.25 62.7 405.7 61.8 405.95 61.9357421875 405.7580078125 62 405.6 62.3 404.6 63.7 398.45 65 392.65 65.2 392.2 65.3 392.05 83.7 380.55 102.2 369 102.7 368.9 102.95 368.85 113.55 371.95 119 373.55 125.5 375.5 125.5 379.05 125.95 388.75 126.5 403.3 126.85 405.3 126.5 406.3 112.25 416.5 107.800390625 419.66484375 103.55 422.65 101.0451171875 424.4642578125 98.6 426.2 101.4345703125 424.7296875 104.25 423.2 109.45 420.5 118.9 415.25 130.95 408.55 131.1 408.2 131.55 407.1 131.9 377.35 132.95 377.65 137.15 371.15 141.1 364.6 141.15 364.5 141.75 364.85 155.55 371.05 168.65 376.95 172.25 378.45 171.15 381.75 164.2 411.8 163.9 412.95 158.65 419.05 152.8 425.85 151.65 427.65 151.3 428.2 150.9 430.6 150.4 433.7 149 451.05 147.55 469.2 147.95 470.5 148.35 472 154.15 473.8 157.956640625 474.96875 159.8 475.1 160.7181640625 475.14921875 161.15 474.95 161.95 474.6 162.95 467.3 163.95 460 163.4 458.8 163.05 458.95 158.3 465.3 153.55 471.3 152.65 470.6 152.1 470.15 153.7 452.3 155.25 434.55 155.9 432.8 155.9 432.75 162.55 425.75 169.1 418.8 169.3 418.1 169.45 417.5 172.65 397.35 175.4 379.85 176 380.1 206.8 393.4 209.45 393.9 209.6529296875 393.932421875 209.85 393.95 220.65 413.25 220.85 413.1 220.95 413.05 217.8 404.25 214.7 395.65 213.85 393.6 216.654296875 392.983984375 220.35 391.35 222.7529296875 390.3240234375 225.55 388.85 234.55 384.15 236.1 382.55 237.35 381.1 237.05 373.8 237 373.15 236.95 372.35 236.45 364.05 235.85 364 234.9 365.9 232.75 372.7 232.7 372.85 232.65 373 230.8 378.85 230.55 379 227.75 380.85 222.6 383.8 215.2 388 213.7 388 209.7 388 181.45 376.45 176.85 374.55 160.9 367.2 145.95 360.3 145.2 359.9 144.6 359.55 137.3 344.7 130.4 330.7 128.2 325.75 133.25 321.1 134.25 321.15 143.1 321.75 144.2 321.2 145.7 320.55 148.35 314.6 149.75 311.5 151.65 307.1
L 151.7 307.1
Q 153.65 309.3 163.6 319.65 174.6 331.05 176 332 177.1 332.8 188.7 335.55 199.85 338.2 199.8 338.25 192.75 345.5 192.5 346.8 192.35 347.6 193.3 357.65 193.3 357.85 193.35 358.05 194.3 367.75 194.6 367.65 194.85 367.6 195.7 358.05 195.7 357.6 195.75 357.1 196.65 346.45 196.75 346.3 196.85 346.1 202.45 339.05 208.1 331.95 208.45 331.35 207.2998046875 330.8982421875 202.2 335.85 184.3 330 182.45 328.7 180.15 327.1 169.9 316.15 159.8 305.35 159.7 305.25 159.6 305.2 162.5 298.05 165.5 290.8 165.55 290.6 165.65 289.55 165.55 286 165.55 281.75 165.2 281.55 165.55 281.1 168.55 276.15 171.7 271.05 173.45 269.8 173.4875 269.65 172 270.55 152.1 283.5 152.05 283.55 150.35 268.45 149.3 268.35 147.65 295.25 147.7 296.75 147.85 299.95 149.45 302.6 149.6 302.8 146.05 308.7 142.55 314.45 142.2 314.85 142 315.1 135.25 316 128.4 316.95 127.6 317.6 126.3 318.75 125 321.55 124.55 321.1 117.1 315.55 116.9375 315.4255859375 116.75 315.3 109.6369140625 309.82265625 109.05 308.6 108.75 307.85 106.7 291.65
M 153.45 296
Q 152.65 291.75 152.75 289.95 159.1 286.6 161.2 285.4 161.55 285.15 158.55 293.6 155.55 302.05 155.4 302.05 154.35 301.1 153.45 296
M 110.65 256.75
Q 105.784765625 258.248828125 103.15 259.2 100.123046875 260.3458984375 100.15 260.75 100.1830078125 261.2771484375 103.25 261.85 104.8791015625 262.176171875 107.3 262.5 114.3 263.45 115.05 263.05 116 262.55 118.8 258.55 121.6 254.5 121.35 253.95 121.15 253.55 110.65 256.75
M 121.5 176.2
Q 122.3958984375 174.876171875 123.15 173.75 110.615625 188.5498046875 97.55 201.5 97.8849609375 207.68984375 97.95 218.45 98.1529296875 253.1052734375 98.55 252.05 100 248.15 100.5 228.5 101.3240234375 228.4283203125 105.65 226.55 107.3826171875 225.85625 109.65 224.85 117.7 221.3 117.75 220.75 117.8 220.3 111.7 215.35 110.1662109375 214.1072265625 108.95 213.15 105.648828125 210.5177734375 104.95 210.15 106.55 207.65 107.9 205.6 110.5 201.55 110.9 200.65 111.55 199.25 114.7 187.95 115.5 185.1 121.5 176.2
M 108.3 222.5
Q 107.39765625 222.5876953125 106.45 222.65 103.7349609375 222.9376953125 100.85 223.2 101.5 217 103.25 213.25
L 103.25 213.2
Q 104.3130859375 213.933203125 108.1 216.15 109.4654296875 216.9859375 111.2 218 116 220.75 115.95 221.35 115.5 221.8 108.3 222.5
M 138.25 178.85
Q 138.05 177.3 137.8 176.85 131.45 172.05 131.2 172 131.05 172.4 134.5 176.95 138 181.55 138.25 181 138.45 180.5 138.25 178.85
M 41.7 91.55
Q 44.75 83.2 45.25 82.5 19 112.85 18.35 114 15 119.7 8.95 134.6 3.25 148.6 2.5 152.25 2.35 153.1 -2.8 169.3 -7.7 184.9 -7.75 186.25 -7.75 187.9 11.15 194.4 19.715625 197.348828125 25.05 198.95 31.11171875 200.8169921875 33 200.95 33.6 204.9 38.2 214.15 42.95 223.65 44.55 223.35 47 222.95 63.9 222.05 79.75 221.25 80.1 220.95 80.85 220.3 64.25 218.1 47.35 215.8 42.45 216.15 41.95 212.45 40.2 205.45 38.45 198.65 37.95 197.95 37.10390625 196.834765625 26.55 192.95 23.428125 191.8080078125 19.4 190.4 10.55 187.3 0.9 184.1 1.2 179.25 2.2 168.35 3.35 156.4 3.7 154.75 3.8 154.05 15.2 136.8 24.45 122.75 30.8 113.4 33.4 109.55 35.4 106.15 36.05 106.55 49 116.55 56.5212890625 122.360546875 59.8 124.8 62.0744140625 126.5474609375 62.3 126.65 63.75 127.35 74.25 121.95 85.6 116.1 85.7 116.1 86.3 115.95 96.6 120.05 107.3 124.25 109.7 124.3 109 129.6 109.15 140.75 109.3 153.5 110.85 156.9 111.15 157.55 113.2 139.5 115.2 121.6 114.1 120.4 112.95 119.1 100.4 114.15 87.55 109.05 85.45 109.45 84.1 109.7 74.1 115.2 64.4 120.5 64.1 120.45 64.01953125 120.43984375 63.45 120.05 61.173828125 118.4978515625 51.15 110.95 38.55 101.5 38 101.35 38.55 100.25 41.7 91.55
M 117.9 88.7
Q 118.1 88.45 110.05 75.1 105.0416015625 67.0435546875 104.65 67 108.45 75.85 108.6 76.15 111.88671875 83.43984375 112.45 84.05 114.65 86.8 117.9 88.7
M 103.05 43
Q 101.7 42.2 96.3 44.95 91.05 47.7 90.5 49.05 90.2 49.9 94.6 55.8 98.95 61.7 100.2 62.15 100.35 61.8 99.3 53.95 98.5 46.35 99.65 46.2 100.25 46.15 108.9 57.25 116.05 66.45 118.2 69.45 118.77578125 70.22578125 118.8 70.25 119.7 71.05 121.6 72.65 123.2 74.1 123.75 75.5 124.15 76.3 123.7 84.85 123.3 93.25 124.5 95.35 127.9 100.9 134.25 109.35 144.4 122.95 150.65 127 150.75 125.5 132.55 96.3 131.95 95.25 131.45 87.2 130.9 78.25 130.4 76.15 130.25 75.55 122.15 65 114.65 55.3 112.8 53.15 105.2169921875 44.178515625 103.05 43
M 260.9 10.55
Q 261.14609375 10.1927734375 261.45 9.75 263.15 7.3 263.1 6.9 262.15 7.8 259.5 8.15 256.8 8.5 255.85 9.35 255.45 9.7 253.95 16.9 252.5 23.65 252.35 25.1 252.3474609375 25.1345703125 252.35 25.15 252.3359375 26.7115234375 255.6 36.65 255.6173828125 36.7033203125 255.6 36.75 258.95 46.9515625 258.95 47.25 258.95 48.25 254.3 58.6 249.55 69.05 248.75 69.6 248.25 69.95 236.1 71.35 224.25 72.75 224.35 72.95 229.3 73.6 239.35 73.3 248.9 73.05 250 72.45 251.65 71.65 257.9 61.1 264 50.8 264.35 48.65 264.65 47.05 262.4 40.1 261.921875 38.6169921875 261.5 37.35 259.417578125 30.8041015625 259.25 30.05 259.1 29.5 259.65 13.2 259.69140625 12.45625 260.9 10.55
M 310.45 13.65
Q 317.1865234375 14.9431640625 319.8 15.15 321.5296875 15.348828125 321.45 15.05 303.05 10.6 300.6 9.1 298.65 7.9 294.7 5.95 289.8 3.5 288.05 3.15 286.50625 2.853125 284.1 2.7 282.4515625 2.65 280.4 2.65 275.35 2.65 275.75 3.15 276.6193359375 3.262109375 279.8 4.25 282.34765625 5.060546875 286.3 6.4 295.3 9.5 297.8 10.7 299.4 11.5 310.45 13.65
M 380.5 240.75
Q 380.0982421875 241.8302734375 379.75 244.1 378.9044921875 250.0931640625 378.5 264.3 377.4 264.4 369.4 267.95 361.35 271.5 361.3 272.05 361.25 272.5 367.35 277.45 373.15 282.15 374.1 282.65 372.75 284.75 371.05 287.9 368.8 292 368.95 292.6 369.3900390625 293.9330078125 370.5 301.6 371.6599609375 309.3169921875 361.8 317.05 353.253125 323.804296875 352.35 324.9 352.217578125 325.0609375 352.25 325.1 354.7 325.2 361.45 321.15 363.015625 320.212890625 364.3 319.35 368.44140625 316.61875 369.7 314.75 372.7 310.45 379.45 295.65 386.15 281.05 387.7 275.65 388.7 272.1 389.45 259.6 389.55 257.95 385.2 248.85 380.9 239.7 380.5 240.75
M 370.75 270.3
Q 374.35 269.95 378.2 269.55 377.5494140625 275.8099609375 375.8 279.55
L 375.75 279.6
Q 374.35 278.6 367.85 274.8 363.05 272.05 363.1 271.45 363.55 271 370.75 270.3
M 378.4 231.6
Q 377.0169921875 231.0046875 371.75 230.3 364.75 229.35 364 229.75 363.05 230.25 360.25 234.25 357.45 238.3 357.7 238.85 357.9 239.25 368.4 236.05 376.9181640625 233.4259765625 378.5 232.4 378.9095703125 232.19453125 378.9 232.05 378.887109375 231.8435546875 378.4 231.6
M 373.75 220.9
Q 374.3923828125 220.9 375.1 216.25 373.11640625 208.9861328125 370.3 202 370.43984375 203.4673828125 370.6 205.05 372.4 220.95 373.75 220.9
M 440.85 278.65
Q 436.1 269.15 434.5 269.45 432.05 269.85 415.15 270.75 399.3 271.55 398.95 271.85 398.2 272.5 414.8 274.7 431.7 277 436.6 276.65 437.1 280.35 438.85 287.35 440.6 294.15 441.1 294.85 441.60703125 295.518359375 445.6 297.15 450.243359375 299.11171875 459.65 302.4 468.5 305.5 478.15 308.7 477.85 313.55 476.85 324.45 475.7 336.4 475.35 338.05 475.25 338.75 463.85 356 454.6 370.05 448.25 379.4 445.64375 383.2408203125 443.65 386.6 443 386.25 430.05 376.25 419.373828125 368.0021484375 417.25 366.45 416.839453125 366.190625 416.75 366.15 415.3 365.45 404.8 370.85 393.45 376.7 393.35 376.7 392.75 376.85 382.45 372.75 371.75 368.55 369.35 368.5 370.05 363.2 369.9 352.05 369.75 339.3 368.2 335.9 367.9 335.25 365.85 353.3 363.85 371.2 364.95 372.4 366.1 373.7 378.65 378.65 391.5 383.75 393.6 383.35 394.95 383.1 404.95 377.6 409.9673828125 374.85859375 412.45 373.55 414.8052734375 372.32578125 414.95 372.35 415.35 372.4 427.9 381.85 440.5 391.3 441 391.45 440.5 392.55 437.35 401.25 434.3 409.6 433.75 410.25 460.05 379.95 460.7 378.8 464.05 373.1 470.1 358.2 475.8 344.2 476.55 340.55 476.7 339.7 481.85 323.5 486.75 307.9 486.8 306.55 486.8 304.9 467.9 298.4 450.84453125 292.528515625 446.6 291.9 446.29140625 291.8669921875 446.05 291.85 445.45 287.9 440.85 278.65
M 425.3 182.35
Q 424.95 182.45 424.65 196.7 424.2 212.35 424.2 212.75 417.9 211.3 412.65 210.15 402.45 207.8 402.5 208.25 402.55 209.15 414.35 214.15 425.85 219 426.5 218.95 426.65 218.95 447.3 217.55 447.5 217.53515625 447.7 217.5 468.210546875 215.9904296875 469.3 215 470.5 213.95 476.5 205.9 482.8 197.45 482.1 197 481.65 196.7 473.75 203.85 465.6 211.25 465.3 211.35 464.95 211.5 453.7 211.75 449.8818359375 211.824609375 446.8 211.9 439.5576171875 212.1044921875 436.4 212.35 433.75 212.55 429.4 199.25 425.3 186.85 425.3 182.35
M 254.4 340.8
Q 254.35 342 257.1 345.65 260.25 349.9 260.4 350.25 261.1 351.55 261.65 365.85 262.45 365.05 264.1 359.4 265.75 353.6 265.85 350.85 265.9 350.05 263.6 344.2 261.4 338.6 261.5 338.55 264 337.3 268.5 331.5 272.85 326 272.5 325.2 272.1 324.45 263.25 332.2 254.45 339.95 254.4 340.8
M 257.45 278.6
Q 248.6 280.65 247.9 280.95 250.35 281.95 258.85 281.2 268.2 280.3 270.75 277.65 272.15 281 274.95 283.5 277.75 285.9 281.25 286.9 280.85 289.1 277.8 292.85 274.9 296.45 274.7 298.85 274.6 300.15 277.65 310.5 279.68203125 317.3580078125 281.3 322 282.2787109375 324.6654296875 283.1 326.6 283.4 327.2 287.95 328.5 290.45 329.2 295 330.4 302.45 347.35 303.45 346.8 304.5 346.25 301.3 337.3 298.15 328.4 296.9 327.6 295.4 326.55 292.35 326.65 288.55 326.7 287.5 326.45 285.35 320.35 282.45 310.5 279.5 300.3 279.7 299.45 279.9 298.7 282.35 294.8 284.9 290.9 285.05 290.6 285.15 290.7 285.25 290.75 286.4 291.5 288.9 292.25 291.6 293.05 292.7 293.7 293.1 293.95 304.25 306.45 315.1 318.65 316.7 319.05 317.45 317.3 308.6 302.7 300.15 288.75 298.7 287.6 297.75 286.9 292.8 286.1 287.85 285.3 286.5 285.65 286.45 285.45 276.9 276.4 267.25 267.2 266.6 266.9 265.3 266.15 248.2 271.2 260.7 271.55 265.4 270.05 265.45 270.45 266.55 272.3 267.5 273.95 267.25 274.45 266.2 276.3 257.45 278.6
M 221.95 147.15
Q 218.8 142.9 218.65 142.55 217.95 141.25 217.4 126.95 216.6 127.75 214.95 133.4 213.3 139.2 213.2 141.95 213.15 142.75 215.45 148.6 217.65 154.2 217.55 154.25 215.05 155.5 210.55 161.3 206.2 166.8 206.55 167.6 206.95 168.35 215.8 160.6 224.6 152.85 224.65 152 224.7 150.8 221.95 147.15
M 347.85 320.8
Q 348 320.4 344.55 315.85 341.05 311.25 340.8 311.8 340.6 312.3 340.8 313.95 341 315.5 341.25 315.95 347.6 320.75 347.85 320.8
M 200.1 163.3
Q 197.6 162.6 193.05 161.4 185.6 144.45 184.6 145 183.55 145.55 186.75 154.5 189.9 163.4 191.15 164.2 192.65 165.25 195.7 165.15 199.5 165.1 200.55 165.35 201.65 168.45 205.05 180.15 208.45 191.95 208.35 192.35 208.15 193.1 205.7 197 203.15 200.9 203 201.2 202.9 201.1 202.8 201.05 201.65 200.3 199.15 199.55 196.45 198.75 195.35 198.1 189.45 191.75 183.6 185.45 171.85 172.85 171.35 172.75 171.1 173.3 179.85 188.5 188.55 203.6 189.35 204.2 190.3 204.9 195.25 205.7 200.2 206.5 201.55 206.15 201.6 206.35 211.15 215.4 220.8 224.6 221.45 224.9 222.5775390625 225.5373046875 235.65 221.8 236.0796875 220.55 235.95 220.55 226.55390625 220.512109375 222.65 221.75 222.6 221.35 221.5 219.5 220.55 217.85 220.8 217.35 221.25 216.6 230.6 213.7 235.3 212.25 240.15 210.85 237.7 209.85 229.2 210.6 219.85 211.5 217.3 214.15 215.9 210.8 213.1 208.3 210.3 205.9 206.8 204.9 207.2 202.7 210.25 198.95 213.15 195.35 213.35 192.95 213.4 192.1 204.95 165.2 204.65 164.6 200.1 163.3
M 330.15 233.95
Q 330.85 234.25 332.05 235.1 333.2 235.7 334.1 235.6 334.3 235.35 334.2 234.95 334.15 234.55 333.85 234.3 333.45 233.95 332.55 233.55 332.1 233.35 326.75 229.4 326.390234375 229.130078125 326.05 228.85 321.2734375 225.3099609375 320.2 224.75 319 224.15 311.25 229.25 303.6 234.55 303.2 234.75 302.7 235.1 281.6 236.5 281.2 235.7 274.1 227.1 266.9 218.45 266.5 218.45 273.35 208.2 274.8 205.15 275.2 204.4 274.4 186.55 273.55 168.5 272.65 168.95 271.75 169.4 264.75 176.8 257.8 184.05 257.6 184.65 253.85 206.35 253.15 206.9 250.3 207.75 247.55 208.6 242.15 210.3 241.7 211.5 241.95 211.85 248.6 212.45 255.15 213.05 255.4 213.5 255.95 214.5 258.95 218.1 261.65 221.4 261.55 221.5 258.95 224.75 254.25 232 253.95 231.95 253.65 231.95 243.65 233.9 241.2 235.6 240.45 236.1 236.65 234.15 233 232.25 231.9 231.05 232.45 230.35 235.1 223.45 230.807421875 230.4099609375 230.05 230.9 229.7 231.1 233.1 238.95 236.7 247.25 236.7 247.3 236.1 247.45 230.65 250.35 225.15 253.25 225.35 253.5 225.7392578125 253.29921875 226.35 253.1 226.4224609375 253.0828125 226.45 253.05 226.4982421875 253.058203125 226.5 253.05 228.4140625 252.43359375 232.3 251.75 238.2 250.7 238.5 250.6 238.8 250.9 247.65 251 256.55 251.05 256.9 250.5 257.1 250.2 257.25 247.3 257.35 244.65 257.3 243.05 257.75 243.2 264.3 239.9 269.9 237.05 274.45 234.5 274.85 234.35 276 236.7 277 238.85 277.25 239.9 277.75 241.65 275.55 246.45 274.4 248.85 273.15 251.15 282 243.5 282.25 242.45 282.3 242.45 282.4 242.5 283.4 242.85 293.6 242.9 303.9 242.9 305 242.5 306.15 242.1 312.3 235.55 318.45 229 319.3 228.75
L 330.15 233.95
M 267.25 179.85
Q 271.1 176.8 272.4 174.85 272.65 180.2 272.25 193.15 271.85 205.3 271.6 206 271.15 207.15 267.05 211.45 262.9 215.9 262.2 215.7 261.35 215.45 259.35 209.9 257.3 204.25 257.65 202.55 260.75 187 262.15 184.9 263.45 182.8 267.25 179.85
M 247.45 236.7
L 247.55 236.65
Q 250.05 235.35 252.7 235.85 252.4 236.8 252.85 241.65 253.3 246.7 254.05 248.85 253.8 248.8 251.55 248.9 249.55 248.95 249.2 248.65 248.9 248.5 247.45 236.7
M 257.2 240.5
Q 257 237.95 256.65 235.5 257 235.35 257.3 235.15 257.85 234.8 262.2 228.95 266.45 223.2 266.65 223.15 272.05 230.1 271.85 230.95 271.7 231.7 257.2 240.5
M 245.7 248.4
Q 245.15 248.3 243.3 248.55 241.75 248.7 241 248.25 240.95 248.2 240.9 248.15 239.1 245 239.05 243.95 239.6 243.6 244.25 239.55 244.3 240 245.7 248.4
M 366.15 81.5
Q 366.5302734375 81.2498046875 366.9 81 367.5568359375 80.566015625 368.25 80.1 375.45 75.2 382.15 70.7 374.05 74.65 365.85 78.8 365.3087890625 79.0740234375 364.75 79.35 349.5384765625 87.0765625 349.2 87.85 349 88.45 348.35 103 347.8 117.85 347.6 118.6 346.95 121.5 342.55 126.45 338.2 131.05 338.05 131.25 334.9359375 129.4603515625 318.6 121.75 312.1515625 118.7275390625 303.6 114.75 273.2 100.7 270.55 100.15 270.35 100.1 268.55 97.15 266.8 94.25 265.2 91.45 258.5 79.5 258.2 79.7 258 79.8 261.25 88.75 262.7 92.75 263.85 96.7 265.05 100.55 264.8 100.6 260.4759765625 101.678515625 254.25 104.75 249.75 106.95 246.15 110.4 242.6 113.75 242.45 115.85 242.4 117.15 242.75 123.1 243.1 129.25 243.35 129.3 244 128.05 248.4 116 248.7 115.15 256.5 110.55 264.5 105.85 266.15 105.9 270.1 106 298.05 118.3 299.788671875 119.0640625 301.45 119.8 309.8611328125 123.530859375 316.25 126.55 329.058203125 132.5826171875 333.9 135.8 335.3 136.7 342.75 153.6 345.431640625 159.6068359375 347.95 165.6 349.002734375 167.9708984375 350 170.35 344.75 174.9 343.8 174.8 335 174 333.85 174.45 332.35 175.15 329.55 181 328.1 184.05 326.05 188.4
L 326 188.4
Q 321.3 182.9 316 177 305.45 165.15 302.4 162.85 299.6 160.8 286.85 158.25 283.75 157.6 281.2 156.35 278.7 155.1 279.25 154.55 286.3 147.3 286.55 146 286.7 145.2 285.75 135.15 284.75 125.05 284.45 125.15 284.2 125.2 283.3 135.7 282.4 146.35 282.3 146.5 282 147.2 277 153.1 276.2 154 273.55 157.75 270.9 161.5 271 161.45 271.35 161.3 272.6 160.5 274.35 159.25 275.65 158.1 278.1345703125 159.05390625 283 160.65 293.1 163.95 295.85 165.95 298.1 167.65 308.1 178.9 317.9 189.95 318 190 318.05 190.1 314.95 197.15 311.8 204.4 311.75 204.6 311.65 205.55 311.6 209.15 311.5 213.4 311.8 213.65 311.45 214.05 308.4 218.9 305.1 223.9 303.25 225.1 303.21875 225.3498046875 307.4 222.8 309.915625 221.314453125 313.95 218.8 324.95 211.95 325 211.95 326.35 227.05 327.35 227.15 329.75 200.35 329.7 198.9 329.65 195.7 328.1 192.95 328 192.75 331.65 186.95 335.35 181.25 335.75 180.85 335.95 180.65 342.65 179.95 349.5 179.2 350.3 178.55 351.65 177.4 353.05 174.6 353.3927734375 174.980859375 357.7 178.4 359.059375 179.4791015625 360.8 180.85 368.1 186.75 368.65 188
L 377.7 187.95
Q 377.8576171875 182.320703125 377.2 181.4 376.65 180.65 367.2 174.4 357.2 167.8 354.45 165 354.55 162.2 349.5 149.05 344.75 136.6 343.95 135.75 346 133.25 349.45 128.8 353.8 123.15 353.9 122.7 354.05 121.7 353.9 107.45 353.7 92.9 353.35 90.9 353.7201171875 89.9283203125 366.15 81.5
M 314.95 210.45
Q 315 209.9 318.4 201.65 321.95 193.35 322.1 193.3 323.2 194.35 323.95 199.45 324.6 203.7 324.5 205.5 315.7 209.9 314.95 210.45
M 166.85 443.65
Q 169.95 435 170 434.6 170.1 433.65 169.85 430.9 169.6 428.3 169.35 427.45 163.5 452.05 163.65 452.25 163.7 452.3 166.85 443.65
M 340.9 377.25
Q 343.25 377.35 350.45 374.95 359.9111328125 371.8580078125 342.05 373.3 324.24609375 374.747265625 324.9 375.05 328.2 376.7 340.9 377.25
M 315.4 40.55
Q 315.25 40.5 312.2 48.85 312.080859375 49.175 311.95 49.5 309.098046875 57.3345703125 309.05 58.2 308.7 61.7 309.7 65.35 310.15 65.3 312.9 53.1 313.265625 51.5068359375 313.55 50.1 315.6607421875 40.854296875 315.4 40.55
M 330.2 44.7
Q 332.05 25.4 331.1 22.3 330.7 20.8 324.9 19 321.34296875 17.9078125 319.5 17.7 318.388671875 17.6244140625 317.9 17.85 317.1 18.2 316.1 25.5 315.1 32.8 315.65 34 316 33.85 320.75 27.5 325.5 21.5 326.4 22.2 328.3 23.75 323.15 60 322.85 60.85 316.55 66.65 310.35 72.35 309.75 74.7 308.3 81.05 306.9 91.55 304.65 108.35 306.25 115.6 307.35 114.6 314.85 81 315.15 79.85 320.4 73.75 326.25 66.95 327.4 65.15 328.006640625 64.1794921875 328.9 56.85 329.4919921875 52.1150390625 330.2 44.7
M 405.65 94.15
Q 419.6 76.75 419.9 73.85 420.05 72.45 418.75 64.55 417.45 56.6 417.5 56.05 418.4 52.9 419 50.4 420.25 45.45 419.4 45.15 418.5 44.85 415.75 50.2 413 55.45 413.1 56.9 413.2 57.95 414.35 64.1 415.5 69.95 415.45 70.4 415.4 71.1 403.45 88.65 395.4404296875 100.3640625 392.35 104.55 390.84921875 106.6337890625 390.55 106.85 390 107.25 373.6 109.2 357.6 111.1 357.85 111.35 363.35 111.7 377.2 111.5 384.1 111.4 390.35 111.3 391.065625 111.3494140625 394.8 107.15 398.6353515625 102.8865234375 405.65 94.15
M 486.05 180
Q 488 170.9 488.05 168.3 488.1 166.5 475.4 155.2 463.1 144.2 461.95 144 461.7 143.95 461.4 144 460.7 143.55 444.9 146.8 428.55 150.25 427.05 152.45 426.9650390625 152.5763671875 426.85 152.7 422.8419921875 158.71015625 422.45 159.2 418.6 164.65 416.85 165.55 415.05 166.55 408.7 168.05 402.25 169.5 401.2 169.75 399.6 170.2 397.15 173.7 394.7 177.25 395.55 178.1 396.25 178.85 402.25 177.2 405.5 176.3 410.85 174.75 415.55 173.65 424.45 165.5 427.52578125 162.631640625 430.35 159.7 431.630078125 158.4125 432.85 157.1 433.3 156.7 446.75 152.55 460.2 148.4 460.35 148.25 460.5 148.6 471.05 155 481.55 161.4 481.7 161.9 481.75 162 481.7 175.2 481.7 188.5 482.45 191.7 483.85 189.9 486.05 180
M 232.9 -5.95
Q 231.9 -6.9 177.45 -0.5 167.35 0.8 148.2 7.85 130.3 14.5 129.25 16.25 128.55 17.45 129.7 30.45 129.954296875 33.4673828125 130.2 35.75 130.9734375 43.384375 131.55 43 132.6998046875 37.93671875 133.2 32.7 133.884765625 26.1548828125 133.55 19.35 133.95 19.3 155.25 10.95 176.35 2.7 183.2 1.3 183.3 9.05 183.85 16.3 184.25 23.6 184.65 23.4 184.15 22.2 190 11.15 195.9 0.1 197.25 0.25 200.25 0.6 216.75 0.6 230.75 0.6 231.55 1.55 233.25 3.65 234.9 7.65 237.25 13.15 237.8 14.3 238.65 15.85 244.9 20.85 251.05 25.75 251.45 25.25 248.9 22.5 240.8 8.15 233.2 -5.6 232.9 -5.95 Z"/>

<path fill="#483828" stroke="none" d="
M 161.85 267.05
Q 154.55 261.85 154.2 261.6
L 149.3 268.35
Q 150.35 268.45 152.05 283.55 152.1 283.5 172 270.55
L 168.1 264.25
Q 162.8255859375 267.5376953125 161.85 267.05
M 222.7 281.9
Q 220.7 276.35 219.85 276.1 219.15 275.9 215 280.35 210.9 284.65 210.45 285.8 210.2 286.5 209.8 298.65 209.4 311.6 209.65 316.95 210.95 315 214.8 311.95 218.6 309 219.9 306.9 221.3 304.8 224.4 289.25 224.75 287.55 222.7 281.9
M 152.75 289.95
Q 152.65 291.75 153.45 296 154.35 301.1 155.4 302.05 155.55 302.05 158.55 293.6 161.55 285.15 161.2 285.4 159.1 286.6 152.75 289.95
M 378.2 269.55
Q 374.35 269.95 370.75 270.3 363.55 271 363.1 271.45 363.05 272.05 367.85 274.8 374.35 278.6 375.75 279.6
L 375.8 279.55
Q 377.5494140625 275.8099609375 378.2 269.55
M 247.9 280.95
Q 248.6 280.65 257.45 278.6 266.2 276.3 267.25 274.45 267.5 273.95 266.55 272.3 265.45 270.45 265.4 270.05 260.7 271.55 248.2 271.2
L 247.9 280.95
M 255.4 213.5
Q 255.15 213.05 248.6 212.45 241.95 211.85 241.7 211.5
L 240.15 210.85
Q 235.3 212.25 230.6 213.7 221.25 216.6 220.8 217.35 220.55 217.85 221.5 219.5 222.6 221.35 222.65 221.75 226.55390625 220.512109375 235.95 220.55 236.0796875 220.55 235.65 221.8 235.9337890625 221.7263671875 236.2 221.65 235.62265625 222.5978515625 235.1 223.45 232.45 230.35 231.9 231.05 233 232.25 236.65 234.15 240.45 236.1 241.2 235.6 243.65 233.9 253.65 231.95 253.95 231.95 254.25 232 258.95 224.75 261.55 221.5 261.65 221.4 258.95 218.1 255.95 214.5 255.4 213.5
M 243.3 248.55
Q 245.15 248.3 245.7 248.4 244.3 240 244.25 239.55 239.6 243.6 239.05 243.95 239.1 245 240.9 248.15 240.95 248.2 241 248.25 241.75 248.7 243.3 248.55
M 256.65 235.5
Q 257 237.95 257.2 240.5 271.7 231.7 271.85 230.95 272.05 230.1 266.65 223.15 266.45 223.2 262.2 228.95 257.85 234.8 257.3 235.15 257 235.35 256.65 235.5
M 247.55 236.65
L 247.45 236.7
Q 248.9 248.5 249.2 248.65 249.55 248.95 251.55 248.9 253.8 248.8 254.05 248.85 253.3 246.7 252.85 241.65 252.4 236.8 252.7 235.85 250.05 235.35 247.55 236.65
M 272.4 174.85
Q 271.1 176.8 267.25 179.85 263.45 182.8 262.15 184.9 260.75 187 257.65 202.55 257.3 204.25 259.35 209.9 261.35 215.45 262.2 215.7 262.9 215.9 267.05 211.45 271.15 207.15 271.6 206 271.85 205.3 272.25 193.15 272.65 180.2 272.4 174.85
M 350 170.35
Q 349.002734375 167.9708984375 347.95 165.6 345.431640625 159.6068359375 342.75 153.6 335.3 136.7 333.9 135.8 329.058203125 132.5826171875 316.25 126.55 309.8611328125 123.530859375 301.45 119.8 299.788671875 119.0640625 298.05 118.3 270.1 106 266.15 105.9 264.5 105.85 256.5 110.55 248.7 115.15 248.4 116 267.8505859375 116.8349609375 285.3 122.5
L 284.45 125.15
Q 284.75 125.05 285.75 135.15 286.7 145.2 286.55 146 286.3 147.3 279.25 154.55 278.7 155.1 281.2 156.35 283.75 157.6 286.85 158.25 299.6 160.8 302.4 162.85 305.45 165.15 316 177 321.3 182.9 326 188.4
L 326.05 188.4
Q 328.1 184.05 329.55 181 332.35 175.15 333.85 174.45 335 174 343.8 174.8 344.75 174.9 350 170.35
M 318.4 201.65
Q 315 209.9 314.95 210.45 315.7 209.9 324.5 205.5 324.6 203.7 323.95 199.45 323.2 194.35 322.1 193.3 321.95 193.35 318.4 201.65
M 366.9 81
Q 366.5302734375 81.2498046875 366.15 81.5 353.7201171875 89.9283203125 353.35 90.9 353.7 92.9 353.9 107.45 354.05 121.7 353.9 122.7 353.8 123.15 349.45 128.8 346 133.25 343.95 135.75 344.75 136.6 349.5 149.05 354.55 162.2 354.45 165 357.2 167.8 367.2 174.4 376.65 180.65 377.2 181.4 377.8576171875 182.320703125 377.7 187.95 377.5556640625 193.0673828125 376.75 202 375.8900390625 211.56015625 375.1 216.25 377.196484375 223.7775390625 378.4 231.6 378.887109375 231.8435546875 378.9 232.05 378.9095703125 232.19453125 378.5 232.4 379.3765625 238.17890625 379.75 244.1 380.0982421875 241.8302734375 380.5 240.75 380.9 239.7 385.2 248.85 389.55 257.95 389.45 259.6 388.7 272.1 387.7 275.65 386.15 281.05 379.45 295.65 372.7 310.45 369.7 314.75 368.44140625 316.61875 364.3 319.35 354.774609375 336.9943359375 339.5 352.25 298.95 392.85 241.6 392.85 230.6671875 392.85 220.35 391.35 216.654296875 392.983984375 213.85 393.6 214.7 395.65 217.8 404.25 220.95 413.05 220.85 413.1 220.65 413.25 209.85 393.95 209.6529296875 393.932421875 209.45 393.9 206.8 393.4 176 380.1 175.4 379.85 172.65 397.35 169.45 417.5 169.3 418.1 169.1 418.8 162.55 425.75 155.9 432.75 155.9 432.8 155.25 434.55 153.7 452.3 152.1 470.15 152.65 470.6 153.55 471.3 158.3 465.3 163.05 458.95 163.4 458.8 163.95 460 162.95 467.3 161.95 474.6 161.15 474.95 160.7181640625 475.14921875 159.8 475.1
L 159.5 477.6
Q 161.4625 477.82734375 165.45 478.55 166.4 478.7 177.2 481.75 188.75 485.05 192.75 486.4 195.96015625 487.487890625 198.2 488.2 203.35 486.05 218.75 481.2 219.15 480.45 219.8 462.75 219.6 461.85 216.65 452.7 214.4 445.75 214.7 444.15 215.05 442 221.15 431.7 221.5 431.15 221.8 430.6 227.5 421.1 229.05 420.35 230.15 419.75 239.7 419.5 240.3 419.5 240.9 419.5 245.2 419.35 248.5 419.45 252.25 419.55 254.7 419.85 254.75 420 248.5 420.8 246.15 421.05 242.95 421.45 241.9 421.55 240.9 421.7 230.75 422.9 230.3 423.2 229.65 423.65 226.4 430.6 225.65 432.2 224.75 434.2 220.1 444.55 220.1 445.55 220.1 445.85 223.45 456.15 226.08515625 464.1734375 226.55 466.7 229.7 466.8 251.65 465.15 275.55 463.35 280.9 462.25 278.496484375 453.7830078125 278.4 451.5 274.45 450.75 265.35 445.85 256 440.8 256.35 439.25 256.85 436.85 258.25 419.95 259.55 404.15 259.85 403.8 260.55 403.1 262.2 419.75 264 436.7 263.5 441.55 267.15 442.15 274.1 444.15 280.85 446.1 281.55 446.65 282.7580078125 447.5990234375 287.05 460.85 287.17421875 460.8453125 287.3 460.8
L 288.5 465.4
Q 291.35 474.35 294.25 484.1 299.1 483.95 310.05 483.3 322 482.55 323.6 482.25 324.35 482.15 341.95 471.3 356.25 462.5 365.8 456.4 369.75 453.95 373.2 452.05 372.85 451.4 363.25 438.2 359.167578125 432.540625 356.8 429.2 353.6919921875 424.8623046875 353.55 424.55 352.9 423.1 358.65 412.75 364.85 401.6 364.85 401.5 364.9798828125 400.9806640625 362.2 393.05 371.8603515625 400.284375 371.5 401.95 371.2 403.3 365.4 413.1 359.75 422.65 359.8 422.95 359.8220703125 423.1267578125 361.6 425.7 367.95 421 388.45 399.9 408.55 379.15 412.45 373.55 409.9673828125 374.85859375 404.95 377.6 394.95 383.1 393.6 383.35 391.5 383.75 378.65 378.65 366.1 373.7 364.95 372.4 363.85 371.2 365.85 353.3 367.9 335.25 368.2 335.9 369.75 339.3 369.9 352.05 370.05 363.2 369.35 368.5 371.75 368.55 382.45 372.75 392.75 376.85 393.35 376.7 393.45 376.7 404.8 370.85 415.3 365.45 416.75 366.15 416.839453125 366.190625 417.25 366.45 419.373828125 368.0021484375 430.05 376.25 443 386.25 443.65 386.6 445.64375 383.2408203125 448.25 379.4 454.6 370.05 463.85 356 475.25 338.75 475.35 338.05 475.7 336.4 476.85 324.45 477.85 313.55 478.15 308.7 468.5 305.5 459.65 302.4 450.243359375 299.11171875 445.6 297.15 441.60703125 295.518359375 441.1 294.85 440.6 294.15 438.85 287.35 437.1 280.35 436.6 276.65 431.7 277 414.8 274.7 398.2 272.5 398.95 271.85 399.3 271.55 415.15 270.75 432.05 269.85 434.5 269.45 436.1 269.15 440.85 278.65 445.45 287.9 446.05 291.85 446.29140625 291.8669921875 446.6 291.9 448.3 282.45 448.65 253.95 448.95 226.15 447.7 217.5 447.5 217.53515625 447.3 217.55 426.65 218.95 426.5 218.95 425.85 219 414.35 214.15 402.55 209.15 402.5 208.25 402.45 207.8 412.65 210.15 417.9 211.3 424.2 212.75 424.2 212.35 424.65 196.7 424.95 182.45 425.3 182.35 425.3 186.85 429.4 199.25 433.75 212.55 436.4 212.35 439.5576171875 212.1044921875 446.8 211.9 449.8818359375 211.824609375 453.7 211.75 464.95 211.5 465.3 211.35 465.6 211.25 473.75 203.85 481.65 196.7 482.1 197
L 482.45 191.7
Q 481.7 188.5 481.7 175.2 481.75 162 481.7 161.9 481.55 161.4 471.05 155 460.5 148.6 460.35 148.25 460.2 148.4 446.75 152.55 433.3 156.7 432.85 157.1 431.630078125 158.4125 430.35 159.7 427.52578125 162.631640625 424.45 165.5 415.55 173.65 410.85 174.75 405.5 176.3 402.25 177.2 396.25 178.85 395.55 178.1 394.7 177.25 397.15 173.7 399.6 170.2 401.2 169.75 402.25 169.5 408.7 168.05 415.05 166.55 416.85 165.55 418.6 164.65 422.45 159.2 422.8419921875 158.71015625 426.85 152.7 414.262109375 128.5189453125 394.8 107.15 391.065625 111.3494140625 390.35 111.3 384.1 111.4 377.2 111.5 363.35 111.7 357.85 111.35 357.6 111.1 373.6 109.2 390 107.25 390.55 106.85 390.84921875 106.6337890625 392.35 104.55 389.72421875 101.72421875 386.95 98.95 377.233203125 89.233203125 366.9 81
M 350.45 374.95
Q 343.25 377.35 340.9 377.25 328.2 376.7 324.9 375.05 324.24609375 374.747265625 342.05 373.3 359.9111328125 371.8580078125 350.45 374.95
M 170 434.6
Q 169.95 435 166.85 443.65 163.7 452.3 163.65 452.25 163.5 452.05 169.35 427.45 169.6 428.3 169.85 430.9 170.1 433.65 170 434.6
M 328.9 56.85
Q 328.006640625 64.1794921875 327.4 65.15 326.25 66.95 320.4 73.75 315.15 79.85 314.85 81 307.35 114.6 306.25 115.6 304.65 108.35 306.9 91.55 308.3 81.05 309.75 74.7 310.35 72.35 316.55 66.65 322.85 60.85 323.15 60 328.3 23.75 326.4 22.2 325.5 21.5 320.75 27.5 316 33.85 315.65 34 315.1 32.8 316.1 25.5 317.1 18.2 317.9 17.85 318.388671875 17.6244140625 319.5 17.7
L 319.8 15.15
Q 317.1865234375 14.9431640625 310.45 13.65 299.4 11.5 297.8 10.7 295.3 9.5 286.3 6.4 282.34765625 5.060546875 279.8 4.25
L 260.9 10.55
Q 259.69140625 12.45625 259.65 13.2 259.1 29.5 259.25 30.05 259.417578125 30.8041015625 261.5 37.35 261.921875 38.6169921875 262.4 40.1 264.65 47.05 264.35 48.65 264 50.8 257.9 61.1 251.65 71.65 250 72.45 248.9 73.05 239.35 73.3 229.3 73.6 224.35 72.95 224.25 72.75 236.1 71.35 248.25 69.95 248.75 69.6 249.55 69.05 254.3 58.6 258.95 48.25 258.95 47.25 258.95 46.9515625 255.6 36.75 255.6173828125 36.7033203125 255.6 36.65 252.3359375 26.7115234375 252.35 25.15
L 251.45 25.25
Q 251.05 25.75 244.9 20.85 238.65 15.85 237.8 14.3 237.25 13.15 234.9 7.65 233.25 3.65 231.55 1.55 230.75 0.6 216.75 0.6 200.25 0.6 197.25 0.25 195.9 0.1 190 11.15 184.15 22.2 184.65 23.4 184.25 23.6 183.85 16.3 183.3 9.05 183.2 1.3 176.35 2.7 155.25 10.95 133.95 19.3 133.55 19.35 133.884765625 26.1548828125 133.2 32.7 132.6998046875 37.93671875 131.55 43 130.9734375 43.384375 130.2 35.75
L 112.8 53.15
Q 114.65 55.3 122.15 65 130.25 75.55 130.4 76.15 130.9 78.25 131.45 87.2 131.95 95.25 132.55 96.3 150.75 125.5 150.65 127 144.4 122.95 134.25 109.35 127.9 100.9 124.5 95.35 123.3 93.25 123.7 84.85 124.15 76.3 123.75 75.5 123.2 74.1 121.6 72.65 119.7 71.05 118.8 70.25 118.77578125 70.22578125 118.2 69.45 114.090234375 72.1849609375 110.05 75.1 118.1 88.45 117.9 88.7 114.65 86.8 112.45 84.05 111.88671875 83.43984375 108.6 76.15 102.1 81 84.8 97.9 67.9 114.35 63.45 120.05 64.01953125 120.43984375 64.1 120.45 64.4 120.5 74.1 115.2 84.1 109.7 85.45 109.45 87.55 109.05 100.4 114.15 112.95 119.1 114.1 120.4 115.2 121.6 113.2 139.5 111.15 157.55 110.85 156.9 109.3 153.5 109.15 140.75 109 129.6 109.7 124.3 107.3 124.25 96.6 120.05 86.3 115.95 85.7 116.1 85.6 116.1 74.25 121.95 63.75 127.35 62.3 126.65 62.0744140625 126.5474609375 59.8 124.8 56.5212890625 122.360546875 49 116.55 36.05 106.55 35.4 106.15 33.4 109.55 30.8 113.4 24.45 122.75 15.2 136.8 3.8 154.05 3.7 154.75 3.35 156.4 2.2 168.35 1.2 179.25 0.9 184.1 10.55 187.3 19.4 190.4 23.428125 191.8080078125 26.55 192.95 37.10390625 196.834765625 37.95 197.95 38.45 198.65 40.2 205.45 41.95 212.45 42.45 216.15 47.35 215.8 64.25 218.1 80.85 220.3 80.1 220.95 79.75 221.25 63.9 222.05 47 222.95 44.55 223.35 42.95 223.65 38.2 214.15 33.6 204.9 33 200.95 31.11171875 200.8169921875 25.05 198.95 22.45 209.9 20.75 237.6 19.25 261.55 19.65 267.8
L 47.4 265.85
Q 48 265.8 59.5 270.65 71.25 275.65 71.3 276.55 71.35 277 61.15 274.65 55.95 273.5 49.7 272.05 49.65 272.45 49.25 288.1 48.9 302.35 48.55 302.45 48.55 297.95 44.5 285.55 40.15 272.25 37.5 272.45 34.55 272.7 8.7 273.45 8.45 273.55 0.25 280.95 -7.55 288.1 -8 287.8
L -8.4 293.1
Q -7.65 296.3 -7.65 309.6 -7.7 322.8 -7.65 322.9 -7.45 323.4 3 329.8 13.5 336.2 13.65 336.55 31.65 330.9 33.35 330.3 40.71875 327.9943359375 41.05 327.7 44.95 323.45 49.45 319.3 58.25 311.15 62.95 310.05 68.3 308.5 71.55 307.6 77.5 305.95 78.25 306.7 79.05 307.55 76.6 311.1 74.15 314.6 72.6 315.05 71.55 315.3 65.1 316.75 58.75 318.25 56.95 319.25 55.25 320.15 51.4 325.6 51.05 326.1 46.85 332.35 45.703515625 334.0314453125 35.85 336.45 46.9376953125 362.1982421875 65.3 384.9 67.95 383.1 85.9 373.9 104.05 364.6 104.65 364.9 121.15 371.75 125.5 373.8 125.5 373.55 125.5 373.45 125.8 372.05 135.1 360.2 134.35 359.35 129.2 347.05 123.8 334 123.85 331.25 121.05 328.5 110.9 322.15 101.25 316.15 100.65 315.4 99.4 313.75 100.6 294.75 101.75 275.9 103.1 275.85 104.5 275.8 106.7 291.65 108.75 307.85 109.05 308.6 109.6369140625 309.82265625 116.75 315.3 104.65625 290.812109375 103.25 261.85 100.1830078125 261.2771484375 100.15 260.75 100.123046875 260.3458984375 103.15 259.2 103.1 256.7984375 103.1 254.35 103.1 239.9376953125 105.65 226.55 101.3240234375 228.4283203125 100.5 228.5 100 248.15 98.55 252.05 98.1529296875 253.1052734375 97.95 218.45 97.8849609375 207.68984375 97.55 201.5 110.615625 188.5498046875 123.15 173.75 122.3958984375 174.876171875 121.5 176.2 115.5 185.1 114.7 187.95 111.55 199.25 110.9 200.65 110.5 201.55 107.9 205.6 106.55 207.65 104.95 210.15 105.648828125 210.5177734375 108.95 213.15 115.7666015625 190.6728515625 130.45 171.45
L 131.2 172 130.45 171.4
Q 136.4140625 163.644921875 143.65 156.4 174.8056640625 125.2828125 215.8 118.05 215.8755859375 118.041015625 215.9 118 221.15 117.15 232.2 116.4 237.8 116.05 242.45 115.85 242.6 113.75 246.15 110.4 249.75 106.95 254.25 104.75 260.4759765625 101.678515625 264.8 100.6 265.05 100.55 263.85 96.7 262.7 92.75 261.25 88.75 258 79.8 258.2 79.7 258.5 79.5 265.2 91.45 266.8 94.25 268.55 97.15 270.35 100.1 270.55 100.15 273.2 100.7 303.6 114.75 312.1515625 118.7275390625 318.6 121.75 334.9359375 129.4603515625 338.05 131.25 338.2 131.05 342.55 126.45 346.95 121.5 347.6 118.6 347.8 117.85 348.35 103 349 88.45 349.2 87.85 349.5384765625 87.0765625 364.75 79.35 347.684375 66.0779296875 328.9 56.85
M 312.2 48.85
Q 315.25 40.5 315.4 40.55 315.6607421875 40.854296875 313.55 50.1 313.265625 51.5068359375 312.9 53.1 310.15 65.3 309.7 65.35 308.7 61.7 309.05 58.2 309.098046875 57.3345703125 311.95 49.5 312.080859375 49.175 312.2 48.85 Z"/>

<path fill="#31271E" stroke="none" d="
M 106.45 222.65
Q 107.39765625 222.5876953125 108.3 222.5 115.5 221.8 115.95 221.35 116 220.75 111.2 218 109.4654296875 216.9859375 108.1 216.15 104.3130859375 213.933203125 103.25 213.2
L 103.25 213.25
Q 101.5 217 100.85 223.2 103.7349609375 222.9376953125 106.45 222.65
M 331.65 186.95
Q 328 192.75 328.1 192.95 329.65 195.7 329.7 198.9 329.75 200.35 327.35 227.15 326.35 227.05 325 211.95 324.95 211.95 313.95 218.8 309.915625 221.314453125 307.4 222.8 303.21875 225.3498046875 303.25 225.1 305.1 223.9 308.4 218.9 311.45 214.05 311.8 213.65 311.5 213.4 311.6 209.15 311.65 205.55 311.75 204.6 311.8 204.4 314.95 197.15 318.05 190.1 318 190 317.9 189.95 308.1 178.9 298.1 167.65 295.85 165.95 293.1 163.95 283 160.65 278.1345703125 159.05390625 275.65 158.1 274.35 159.25 272.6 160.5 271.35 161.3 271 161.45 270.9 161.5 273.55 157.75 276.2 154 277 153.1 282 147.2 282.3 146.5 282.4 146.35 283.3 135.7 284.2 125.2 284.45 125.15
L 285.3 122.5
Q 267.8505859375 116.8349609375 248.4 116 244 128.05 243.35 129.3 243.1 129.25 242.75 123.1 242.4 117.15 242.45 115.85 237.8 116.05 232.2 116.4 221.15 117.15 215.9 118 215.8755859375 118.041015625 215.8 118.05 174.8056640625 125.2828125 143.65 156.4 136.4140625 163.644921875 130.45 171.4
L 131.2 172
Q 131.45 172.05 137.8 176.85 138.05 177.3 138.25 178.85 138.45 180.5 138.25 181 138 181.55 134.5 176.95 131.05 172.4 131.2 172
L 130.45 171.45
Q 115.7666015625 190.6728515625 108.95 213.15 110.1662109375 214.1072265625 111.7 215.35 117.8 220.3 117.75 220.75 117.7 221.3 109.65 224.85 107.3826171875 225.85625 105.65 226.55 103.1 239.9376953125 103.1 254.35 103.1 256.7984375 103.15 259.2 105.784765625 258.248828125 110.65 256.75 121.15 253.55 121.35 253.95 121.6 254.5 118.8 258.55 116 262.55 115.05 263.05 114.3 263.45 107.3 262.5 104.8791015625 262.176171875 103.25 261.85 104.65625 290.812109375 116.75 315.3 116.9375 315.4255859375 117.1 315.55 124.55 321.1 125 321.55 126.3 318.75 127.6 317.6 128.4 316.95 135.25 316 142 315.1 142.2 314.85 142.55 314.45 146.05 308.7 149.6 302.8 149.45 302.6 147.85 299.95 147.7 296.75 147.65 295.25 149.3 268.35
L 154.2 261.6
Q 152.65 260.45 150.65 258.8 147.75 256.4 147.95 256.2 148.9 256.1 155.05 259.15 158.3 260.75 162.75 263.05 163.6 262.8 169.75 256.25 175.9 249.7 177.05 249.3 178.15 248.9 188.45 248.9 198.65 248.95 199.65 249.3 199.75 249.35 199.8 249.35 200.05 248.3 208.9 240.65 207.65 242.95 206.5 245.35 204.3 250.15 204.8 251.9 205.05 252.95 206.05 255.1 207.2 257.45 212.05 257 214.7 256.75 217.65 255.75 210.3 260.3 210.2 260.85 210 261.7 215.4 268.65 215.6 268.6 219.85 262.85 224.2 257 224.75 256.65 224.9 256.55 227 254.65 222.4 267.9 220.5 270.3 220.4 270.4 223.1 273.7 226.1 277.3 226.65 278.3 226.9 278.75 233.45 279.35 240.1 279.95 240.35 280.3 239.9 281.5 234.5 283.2 231.75 284.05 228.9 284.9 228.2 285.45 224.45 307.15 224.25 307.75 217.3 315 210.3 322.4 209.4 322.85 208.5 323.3 207.65 305.25 206.85 287.4 207.25 286.65 208.7 283.6 215.55 273.35 215 273.35 211.25 270.3 207.35 267.15 206.75 265.9 206.55 265.7 200.45 255.3 179.35 256.7 178.85 257.05 178.45 257.25 170.8 262.55 169.3505859375 263.50390625 168.1 264.25
L 172 270.55
Q 173.4875 269.65 173.45 269.8 171.7 271.05 168.55 276.15 165.55 281.1 165.2 281.55 165.55 281.75 165.55 286 165.65 289.55 165.55 290.6 165.5 290.8 162.5 298.05 159.6 305.2 159.7 305.25 159.8 305.35 169.9 316.15 180.15 327.1 182.45 328.7 184.3 330 202.2 335.85 207.2998046875 330.8982421875 208.45 331.35 208.1 331.95 202.45 339.05 196.85 346.1 196.75 346.3 196.65 346.45 195.75 357.1 195.7 357.6 195.7 358.05 194.85 367.6 194.6 367.65 194.3 367.75 193.35 358.05 193.3 357.85 193.3 357.65 192.35 347.6 192.5 346.8 192.75 345.5 199.8 338.25 199.85 338.2 188.7 335.55 177.1 332.8 176 332 174.6 331.05 163.6 319.65 153.65 309.3 151.7 307.1
L 151.65 307.1
Q 149.75 311.5 148.35 314.6 145.7 320.55 144.2 321.2 143.1 321.75 134.25 321.15 133.25 321.1 128.2 325.75 130.4 330.7 137.3 344.7 144.6 359.55 145.2 359.9 145.95 360.3 160.9 367.2 176.85 374.55 181.45 376.45 209.7 388 213.7 388 215.2 388 222.6 383.8 227.75 380.85 230.55 379 230.8 378.85 232.65 373 232.7 372.85 232.75 372.7 234.9 365.9 235.85 364 236.45 364.05 236.95 372.35 237 373.15 237.05 373.8 237.35 381.1 236.1 382.55 234.55 384.15 225.55 388.85 222.7529296875 390.3240234375 220.35 391.35 230.6671875 392.85 241.6 392.85 298.95 392.85 339.5 352.25 354.774609375 336.9943359375 364.3 319.35 363.015625 320.212890625 361.45 321.15 354.7 325.2 352.25 325.1 352.217578125 325.0609375 352.35 324.9 353.253125 323.804296875 361.8 317.05 371.6599609375 309.3169921875 370.5 301.6 369.3900390625 293.9330078125 368.95 292.6 368.8 292 371.05 287.9 372.75 284.75 374.1 282.65 373.15 282.15 367.35 277.45 361.25 272.5 361.3 272.05 361.35 271.5 369.4 267.95 377.4 264.4 378.5 264.3 378.9044921875 250.0931640625 379.75 244.1 379.3765625 238.17890625 378.5 232.4 376.9181640625 233.4259765625 368.4 236.05 357.9 239.25 357.7 238.85 357.45 238.3 360.25 234.25 363.05 230.25 364 229.75 364.75 229.35 371.75 230.3 377.0169921875 231.0046875 378.4 231.6 377.196484375 223.7775390625 375.1 216.25 374.3923828125 220.9 373.75 220.9 372.4 220.95 370.6 205.05 370.43984375 203.4673828125 370.3 202 373.11640625 208.9861328125 375.1 216.25 375.8900390625 211.56015625 376.75 202 377.5556640625 193.0673828125 377.7 187.95
L 368.65 188
Q 368.1 186.75 360.8 180.85 359.059375 179.4791015625 357.7 178.4 353.3927734375 174.980859375 353.05 174.6 351.65 177.4 350.3 178.55 349.5 179.2 342.65 179.95 335.95 180.65 335.75 180.85 335.35 181.25 331.65 186.95
M 332.05 235.1
Q 330.85 234.25 330.15 233.95
L 319.3 228.75
Q 318.45 229 312.3 235.55 306.15 242.1 305 242.5 303.9 242.9 293.6 242.9 283.4 242.85 282.4 242.5 282.3 242.45 282.25 242.45 282 243.5 273.15 251.15 274.4 248.85 275.55 246.45 277.75 241.65 277.25 239.9 277 238.85 276 236.7 274.85 234.35 274.45 234.5 269.9 237.05 264.3 239.9 257.75 243.2 257.3 243.05 257.35 244.65 257.25 247.3 257.1 250.2 256.9 250.5 256.55 251.05 247.65 251 238.8 250.9 238.5 250.6 238.2 250.7 232.3 251.75 228.4140625 252.43359375 226.5 253.05 226.4982421875 253.058203125 226.45 253.05 226.4224609375 253.0828125 226.35 253.1 225.7392578125 253.29921875 225.35 253.5 225.15 253.25 230.65 250.35 236.1 247.45 236.7 247.3 236.7 247.25 233.1 238.95 229.7 231.1 230.05 230.9 230.807421875 230.4099609375 235.1 223.45 235.62265625 222.5978515625 236.2 221.65 235.9337890625 221.7263671875 235.65 221.8 222.5775390625 225.5373046875 221.45 224.9 220.8 224.6 211.15 215.4 201.6 206.35 201.55 206.15 200.2 206.5 195.25 205.7 190.3 204.9 189.35 204.2 188.55 203.6 179.85 188.5 171.1 173.3 171.35 172.75 171.85 172.85 183.6 185.45 189.45 191.75 195.35 198.1 196.45 198.75 199.15 199.55 201.65 200.3 202.8 201.05 202.9 201.1 203 201.2 203.15 200.9 205.7 197 208.15 193.1 208.35 192.35 208.45 191.95 205.05 180.15 201.65 168.45 200.55 165.35 199.5 165.1 195.7 165.15 192.65 165.25 191.15 164.2 189.9 163.4 186.75 154.5 183.55 145.55 184.6 145 185.6 144.45 193.05 161.4 197.6 162.6 200.1 163.3 204.65 164.6 204.95 165.2 213.4 192.1 213.35 192.95 213.15 195.35 210.25 198.95 207.2 202.7 206.8 204.9 210.3 205.9 213.1 208.3 215.9 210.8 217.3 214.15 219.85 211.5 229.2 210.6 237.7 209.85 240.15 210.85
L 241.7 211.5
Q 242.15 210.3 247.55 208.6 250.3 207.75 253.15 206.9 253.85 206.35 257.6 184.65 257.8 184.05 264.75 176.8 271.75 169.4 272.65 168.95 273.55 168.5 274.4 186.55 275.2 204.4 274.8 205.15 273.35 208.2 266.5 218.45 266.9 218.45 274.1 227.1 281.2 235.7 281.6 236.5 302.7 235.1 303.2 234.75 303.6 234.55 311.25 229.25 319 224.15 320.2 224.75 321.2734375 225.3099609375 326.05 228.85 326.390234375 229.130078125 326.75 229.4 332.1 233.35 332.55 233.55 333.45 233.95 333.85 234.3 334.15 234.55 334.2 234.95 334.3 235.35 334.1 235.6 333.2 235.7 332.05 235.1
M 344.55 315.85
Q 348 320.4 347.85 320.8 347.6 320.75 341.25 315.95 341 315.5 340.8 313.95 340.6 312.3 340.8 311.8 341.05 311.25 344.55 315.85
M 218.65 142.55
Q 218.8 142.9 221.95 147.15 224.7 150.8 224.65 152 224.6 152.85 215.8 160.6 206.95 168.35 206.55 167.6 206.2 166.8 210.55 161.3 215.05 155.5 217.55 154.25 217.65 154.2 215.45 148.6 213.15 142.75 213.2 141.95 213.3 139.2 214.95 133.4 216.6 127.75 217.4 126.95 217.95 141.25 218.65 142.55
M 258.85 281.2
Q 250.35 281.95 247.9 280.95
L 248.2 271.2
Q 265.3 266.15 266.6 266.9 267.25 267.2 276.9 276.4 286.45 285.45 286.5 285.65 287.85 285.3 292.8 286.1 297.75 286.9 298.7 287.6 300.15 288.75 308.6 302.7 317.45 317.3 316.7 319.05 315.1 318.65 304.25 306.45 293.1 293.95 292.7 293.7 291.6 293.05 288.9 292.25 286.4 291.5 285.25 290.75 285.15 290.7 285.05 290.6 284.9 290.9 282.35 294.8 279.9 298.7 279.7 299.45 279.5 300.3 282.45 310.5 285.35 320.35 287.5 326.45 288.55 326.7 292.35 326.65 295.4 326.55 296.9 327.6 298.15 328.4 301.3 337.3 304.5 346.25 303.45 346.8 302.45 347.35 295 330.4 290.45 329.2 287.95 328.5 283.4 327.2 283.1 326.6 282.2787109375 324.6654296875 281.3 322 279.68203125 317.3580078125 277.65 310.5 274.6 300.15 274.7 298.85 274.9 296.45 277.8 292.85 280.85 289.1 281.25 286.9 277.75 285.9 274.95 283.5 272.15 281 270.75 277.65 268.2 280.3 258.85 281.2
M 257.1 345.65
Q 254.35 342 254.4 340.8 254.45 339.95 263.25 332.2 272.1 324.45 272.5 325.2 272.85 326 268.5 331.5 264 337.3 261.5 338.55 261.4 338.6 263.6 344.2 265.9 350.05 265.85 350.85 265.75 353.6 264.1 359.4 262.45 365.05 261.65 365.85 261.1 351.55 260.4 350.25 260.25 349.9 257.1 345.65 Z"/>
</g>
</defs>

<g transform="matrix( 1, 0, 0, 1, 251.95,261.1) ">
<g transform="matrix( 1, 0, 0, 1, 0,0) ">
<use xlink:href="#impact_0_Layer0_0_FILL"/>
</g>
</g>
</svg>
