
<svg xmlns="http://www.w3.org/2000/svg" version="1.1" xmlns:xlink="http://www.w3.org/1999/xlink" preserveAspectRatio="none" x="0px" y="0px" width="200px" height="200px" viewBox="0 0 200 200">
<defs>
<g id="Symbol_45_copy_6_Layer3_0_FILL">
<path fill="#3B2D2D" stroke="none" d="
M -35.3 32.4
Q -35.45 33 -35.55 33.65 -35.65 35.3 -34.7 36.35 -34.55 36.55 -34.3 36.7 -31.9 37.05 -31.3 34.65 -30.8 32.6 -31.5 30.45 -31.9 29.3 -33.05 29 -34.8 30.15 -35.3 32.4
M -25.65 21.1
Q -28.55 17.15 -29.85 12.65
L -29.95 13.2
Q -29.95 14.45 -30 15.7 -30.15 19.15 -27.7 21.7 -26.7 22.75 -25.2 22.95 -24.65 23.2 -24 23.25 -24.85 22.15 -25.65 21.1
M -38.8 12.05
Q -39.25 11.55 -39.75 11.1 -40.6 10.55 -41.45 10.05 -42.2 10.15 -42.5 11 -42.85 11.85 -43 12.8 -42.85 14.4 -41.4 14.95 -39.5 15.45 -38.35 14.1 -38.05 12.9 -38.8 12.05
M -33.9 -36
Q -37.65 -32.35 -39.05 -27.15 -40.75 -20.8 -38.6 -14.8
L -38.5 -16.05
Q -38.4 -20.8 -36.65 -24.95 -34.85 -29.35 -31.65 -33 -30.25 -34.65 -28.75 -36.15 -27.4 -37.4 -26.05 -38.25 -27.7 -38.45 -29.45 -38.4 -32 -37.9 -33.9 -36
M -2.65 -43.5
Q -5.8 -46.05 -9.85 -46.4 -12.8 -46.3 -15.05 -44.55 -17.45 -42.7 -19.05 -40
L -15.1 -41.85
Q -10.3 -43.35 -5.35 -42.85 -4.1 -42.85 -3.1 -42.05 -2.6 -41.7 -2 -41.45 -1.9 -41.35 -1.75 -41.35 -1.6 -42.65 -2.65 -43.5
M 15.85 44.65
Q 16.4 44.25 16.4 43.65 16.4 43.05 15.85 42.6 15.35 42.2 14.65 42.2 13.95 42.2 13.4 42.6 12.9 43.05 12.9 43.65 12.9 44.25 13.4 44.65 13.95 45.1 14.65 45.1 15.35 45.1 15.85 44.65
M 3.3 43.7
Q 2.8 41.9 1.05 41.15
L -0.7 42
Q -1.4 43 -1.15 44.1 -0.75 45.85 1 46.2 2.15 46.55 3.15 45.95 3.7 45 3.3 43.7
M 43.7 22.35
Q 45.2 19.75 45.85 17.05 47 12.05 45.2 7.35
L 43.95 7.7
Q 44.05 10.5 44 13.15 43.85 18.15 41.4 22.65 37.75 29.25 30.8 32.1 32.45 32.05 33.75 31.4 36.9 30 39.4 27.75 41.95 25.4 43.7 22.35
M 16.05 -39.5
L 14.35 -38.45 14.55 -36.75
Q 15.65 -36.15 17.15 -36.4 18 -36.5 18.35 -37.05
L 18.45 -38 16.05 -39.5
M 21.1 -35.1
Q 20.1 -33.8 20.5 -32.35 20.85 -31.1 22.15 -30.6 23.9 -29.9 25.95 -30.05 26.3 -30.2 26.65 -30.3 26.75 -30.4 26.9 -30.45 27.6 -32.6 25.65 -34.05 24.7 -34.85 23.4 -35.4 22.75 -35.7 22.1 -35.85
L 21.1 -35.1 Z"/>
</g>
</defs>

<g transform="matrix( 1.84967041015625, 0, 0, 1.84967041015625, 101.55,99.8) ">
<g transform="matrix( 1, 0, 0, 1, 0,0) ">
<use xlink:href="#Symbol_45_copy_6_Layer3_0_FILL"/>
</g>
</g>
</svg>
