
<svg xmlns="http://www.w3.org/2000/svg" version="1.1" xmlns:xlink="http://www.w3.org/1999/xlink" preserveAspectRatio="none" x="0px" y="0px" width="200px" height="200px" viewBox="0 0 200 200">
<defs>
<g id="Symbol_45_copy_4_Layer3_0_FILL">
<path fill="#4F4040" stroke="none" d="
M -2.65 29.55
Q -3.05 28.45 -3.85 27.75 -4.25 27.45 -6.05 27.95 -7.9 28.55 -8.3 29.35 -8.5 29.9 -8.45 30.5 -8.45 31.1 -8.1 31.65 -7.65 32.25 -7 32.7 -5.3 34 -3.2 33.2 -2.25 32.2 -2.4 30.9 -2.45 30.2 -2.65 29.55
M -33.55 7
Q -34 4.05 -36.9 3.5 -39.6 2.6 -41.6 4.5 -43.35 6.25 -43.7 8.7 -44.1 11.65 -41.85 13.4 -39.4 15.3 -36.35 14.55 -35.45 14.3 -34.95 13.75 -33.2 11.95 -33.3 9.25 -33.35 8.1 -33.55 7
M -21.2 -0.8
Q -23.45 -1.4 -25.65 -0.45 -26.85 0.15 -27.4 1.45 -27.7 2.2 -27.65 3.05 -27.6 4.7 -26.35 6.05 -27.35 6.6 -28.65 9.25 -29.9 11.8 -29.8 12.8 -29.75 13.55 -29.6 14.5 -31.1 15 -32.35 15.85 -33.95 17 -35.15 18.65 -37.7 22.05 -38 26.25 -38.15 28.75 -37.25 31.1 -36.05 34.2 -33.3 36.15 -32.1 37 -30.65 37.4 -28.2 37.95 -25.9 37.7 -24.45 37.3 -23.05 36.8 -20.75 35.9 -19.8 33.75 -19.25 32.4 -19.65 31.15 -20.35 28.7 -21.9 26.9 -21.75 26.75 -21.2 25.65 -20.6 24.5 -20.55 24.25 -19.8 26.55 -18.05 28.35 -16.65 29.9 -14.3 29.45 -13.75 29.25 -13.15 29.1 -12.05 28.75 -11.35 27.65 -10.8 26.75 -10.25 25.85 -9.2 26.2 -8.25 26.2 -6.35 26.1 -4.65 25.2 -2.2 23.85 -0.5 21.65 -1.15 21.95 -1.85 22.05 -2.75 22.3 -3.65 22.4 -6.35 22.7 -7.9 20.75 -8.8 19.65 -8.6 18.05 -8.5 17.2 -8.1 16.35 -11.3 17.55 -14.55 16.1 -17.95 14.75 -19.85 11.45 -20.75 9.95 -20.9 8.05 -21 6.9 -20.95 5.75 -20.8 2.85 -18.65 1 -19.5 -0.45 -21.2 -0.8
M 12.2 35.3
Q 11.35 36.05 11 37 9.25 35.65 7.35 36.5 6.8 36.7 6.3 36.95
L 4.3 35.35 2.95 34.6
Q 0.75 34.95 -0.75 36.75 -1.65 37.9 -2.4 39.1 -3.6 41 -2.35 42.85 -1.8 43.65 -0.95 44.25 1.25 45.7 3.75 45.1 4.15 45.05 5.35 44.6 6.5 44.15 6.9 43.9 7 43.85 9.9 44.25 13.1 44.55 14.55 43.85 15.05 43.6 15.45 43.2 17.3 41.25 17.15 38.9 17.1 37.65 16.6 36.65 15.45 34.45 13.15 34.95 12.6 34.95 12.2 35.3
M 36.6 -13
Q 35.7 -14.85 34.15 -15.75 32.9 -16.5 29.9 -16.9 27.45 -17.2 26.8 -17.1 27.75 -17.05 29.9 -15.3 32 -13.55 32.4 -12.5 33.4 -9.85 33.15 -7 33.1 -6.1 32.7 -5.35 32.1 -4.2 31.25 -3.15 30.55 -2.35 29.8 -1.5 32.55 0.5 33.1 3.9 33.6 7.2 33.2 10.6 33.05 12.1 32.5 13.55 31.95 15 31.05 16.35 30.05 17.85 28.85 19.15 27.6 20.45 26.25 21.7 23.4 24.3 19.65 25.05 19.15 25.2 15.8 24 18.5 22.35 19.7 19.35 20.2 18.1 20.4 16.8 20.75 14.2 20.1 11.6 19.95 10.95 19.8 10.3 19.6 10.6 19.05 12.45 18.45 14.45 18.3 14.75 17.25 17.05 15.4 18.8 13.35 20.75 10.75 21.55 9.35 21.9 7.9 22.15 6.3 22.35 4.8 21.65
L 2.9 21.1
Q 5.6 25.4 7.7 26.15 8.9 26.7 10.4 26.65 11.25 26.5 12.15 26.1 13.1 28.9 14.75 31.15 15.6 32.25 17 32.45 21.35 33.1 25.8 32.4 32.05 31.1 36.45 26.5 38.35 24.55 39.8 22 40.65 20.6 41.3 19.1 43.25 14.35 42.9 9.1 42.75 7.25 42.3 5.6 41.25 1.95 39.2 -1.35 37.9 -3.45 35.55 -4.3 35.5 -4.55 36.8 -6.75 38.2 -9.85 36.6 -13
M 2.5 -31.25
Q 2.05 -33.9 1.05 -36.35 0.55 -37.5 -0.15 -38.5 -2.9 -42.65 -7.7 -44.15 -11.5 -45.35 -15.4 -44.15 -16.9 -43.55 -18.35 -42.8 -19 -42.45 -20.7 -41.7 -22.4 -40.95 -22.9 -40.85 -28.95 -40.35 -32.75 -35.35 -34.6 -32.9 -35.95 -30.05 -39.15 -23.45 -38.7 -16.35 -38.45 -12.55 -36.25 -9.35 -34.95 -7.45 -33.15 -6.3 -29.7 -4.15 -25.95 -5.5 -25.2 -5.7 -24.4 -5.85 -23.1 -4.55 -21.35 -3.85 -20.4 -3.6 -19.4 -3.35
L -19.75 -6.15
Q -19.6 -11 -16.05 -14.25 -15.05 -15.15 -13.85 -15.25 -12.65 -15.35 -11.55 -15 -12.6 -16.7 -13.95 -18.25 -15.8 -20.4 -16.55 -23.3 -17 -25.05 -16.5 -26.85 -15.65 -29.75 -12.95 -31.35 -11.55 -32.15 -10.1 -32.9 -7.5 -34.25 -4.45 -33.85 -1.6 -33.45 0.6 -31.4 2.15 -30 2.6 -28.15 2.75 -29.75 2.5 -31.25
M 26.9 -37.1
Q 25.4 -39 22.95 -39.25 21.35 -41.6 18.55 -41.6 16.55 -41.45 15.6 -39.75
L 14.5 -39.75
Q 9.8 -37.65 9.3 -32.55 9.05 -29.75 11.55 -28.9 13.3 -28.45 14.85 -28.95 16.3 -29.55 17.45 -30.6 17.55 -28.4 18.8 -26.6 19.3 -25.95 20.05 -25.5 20.7 -25.1 21.5 -24.85 22.95 -24.55 26.05 -27.75 29.2 -30.95 28.9 -32.8 28.7 -34.1 28.1 -35.25 27.6 -36.25 26.9 -37.1 Z"/>

<path fill="#E2DBD0" stroke="none" d="
M 12.65 -26.85
L 12.1 -25.65 13.15 -24.25 15.05 -24.35
Q 15.7 -26.1 14 -26.7 13.3 -26.8 12.65 -26.85 Z"/>
</g>

<g id="Symbol_45_copy_4_Layer1_0_FILL">
<path fill="#543333" stroke="none" d="
M -27.3 18.2
Q -25.95 21 -24.6 23.85 -24 25.1 -23.35 26.4 -21.9 29.45 -23.5 32.1 -23.85 32.75 -24.55 33.05 -25.4 33.45 -26.35 33.7 -29.35 34.05 -31.7 32.4 -32.75 31.65 -33.45 30.45 -34.55 28.5 -35 26.35 -35.4 24.4 -35.8 22.4 -37.15 26.35 -36.2 30.45 -35.7 32.6 -34.35 34.35 -32.75 36.4 -30.2 37.2 -27 38 -24 36.75 -22.85 36.25 -21.9 35.15 -20.85 33.85 -20.65 32.25 -20.25 28.9 -21.75 25.85
L -21.3 25.85 -21.05 23.25
Q -20.05 26.05 -17.75 27.7 -16.55 28.55 -15.15 28.2 -14.4 28.15 -13.4 28 -13.7 27.9 -14 27.8 -15.8 27.55 -16.9 26.25 -17.45 25.5 -17.85 24.75 -18.95 22.55 -20.2 20.55 -20.45 20.25 -20.75 19.95
L -21.5 21.5
Q -23.2 21.9 -24.65 20.75 -26.15 19.65 -27.3 18.2
M -3.9 24.55
L -11.3 24.2 -10.55 25.55
Q -9.25 26.4 -7.55 26 -5.6 25.55 -3.9 24.55
M 4.2 44.7
Q 5.85 44.2 7.4 43.55 9.25 44.1 11.2 44.85 11.75 45.1 12.4 45.1 14.3 44.95 15.35 43.35 15.65 42.85 15.65 42.25 15.65 41.4 15.55 40.55
L 13.9 42.15
Q 12.5 43.35 10.75 43.3 9.95 43.1 9.4 42.6 8.6 41.9 7.9 41.15 6.05 43.55 3.1 42.95 2.35 42.95 1.75 42.6 0 41.45 -0.5 39.3
L -1.4 40.25
Q -1.55 41.45 -0.95 42.5 -0.55 43.2 0.05 43.8 1.9 45.35 4.2 44.7
M 15.6 31.3
Q 17.3 33 19.95 33 23.55 33.3 26.8 32 29.3 31.05 31.2 28.95
L 27.8 29.75
Q 23.3 30.95 18.9 29.6 17.65 29.15 16.5 28.6 14.85 27.75 13.25 26.9
L 13.25 28.25
Q 14.2 29.9 15.6 31.3
M 35.3 -2.6
Q 37.35 -5.15 36.9 -8.35 35.85 -6.1 34.35 -4.2 33.7 -3.4 32.95 -2.65 32.35 -2.15 31.65 -1.75 32.6 -0.85 34.2 -1.7 34.8 -2.05 35.3 -2.6 Z"/>
</g>

<g id="Symbol_45_copy_4_Layer0_0_FILL">
<path fill="#543333" stroke="none" d="
M 40 -5.4
Q 39.85 -4.8 39.9 -4.25 40 -3.75 40.2 -3.4 40.8 -2.45 41.85 -2.55 42.8 -2.65 43.25 -3.3 43.55 -3.65 43.65 -4.4 43.65 -4.9 43.5 -5.35 43.05 -6.6 41.75 -6.6 40.5 -6.6 40 -5.4 Z"/>
</g>
</defs>

<g transform="matrix( 1.84967041015625, 0, 0, 1.84967041015625, 101.55,99.8) ">
<g transform="matrix( 1, 0, 0, 1, 0,0) ">
<use xlink:href="#Symbol_45_copy_4_Layer3_0_FILL"/>
</g>

<g transform="matrix( 1, 0, 0, 1, 0,0) ">
<use xlink:href="#Symbol_45_copy_4_Layer1_0_FILL"/>
</g>

<g transform="matrix( 1, 0, 0, 1, 0,0) ">
<use xlink:href="#Symbol_45_copy_4_Layer0_0_FILL"/>
</g>
</g>
</svg>
