
<svg xmlns="http://www.w3.org/2000/svg" version="1.1" xmlns:xlink="http://www.w3.org/1999/xlink" preserveAspectRatio="none" x="0px" y="0px" width="200px" height="200px" viewBox="0 0 200 200">
<defs>
<g id="Symbol_45_copy_2_Layer3_0_FILL">
<path fill="#827171" stroke="none" d="
M 27.35 -30.3
Q 26.7 -34.9 22.5 -37.15 19.9 -38.55 17.25 -38.6 14.35 -38.65 12.55 -36.4 12 -35.65 11.75 -34.65 11.6 -34.15 11.55 -33.6 10.95 -32.8 10.1 -32 9.7 -31.65 9.5 -31 8.9 -29.3 9.85 -27.75 7.45 -28.1 5.15 -27.7 4.3 -27.65 3.65 -27.1
L 3.65 -30.6
Q 1.25 -33.95 -1.75 -36.5 -3 -37.55 -4.7 -38.15 -7.25 -39.05 -9.9 -39.2 -16.9 -39.6 -23.55 -37.25 -29.85 -34.9 -33.8 -29.6 -37.2 -25.05 -38.2 -19.4 -39.05 -14.4 -37.65 -9.6 -36.55 -5.85 -34.15 -2.75 -32.8 -1.05 -30.9 -0.35 -30.1 0 -29.25 0.25 -29.2 0.35 -29.15 0.45 -29.9 0.95 -30.5 2.4 -31.05 3.65 -31.35 5 -32.05 2.85 -34.35 2.3 -36.35 1.75 -38.2 2.9 -40.45 4.4 -41.05 7.25 -41.5 9.3 -41.3 11.4 -41.05 14.3 -38.6 15.4 -37.15 15.95 -35.4 15.85 -34.2 15.75 -33.1 15.2 -32.05 14.65 -31.65 13.65 -31.55 13.3 -31.35 13.05 -30.9 14.1 -29.75 14.75 -29.4 14.9 -29 15.05 -31 15.15 -32.15 16.35 -35.25 19.5 -35.25 24 -35.2 30.25 -30.6 34.6 -27.65 37.4 -23.65 38.45 -20.2 39.4 -16.65 38.9 -14.1 38.65 -12.1 37 -11.05 36.1 -10.2 35.05 -9.3 33.9 -8.75 32.55 -8.5 31.85 -8.4 31.15 -7.55 31.8 -6.55 32.3 -2.8 33.8 0.6 31.75 0.55 31.95 0.1 33 -0.4 34 -0.25 35.15 -0.15 36.2 0.1 37.35 0.4 38.6 1.15 39.7 1.95 40.85 3.1 41.65 4.15 42.35 5.4 42.7 6.5 42.95 7.7 42.95 10 42.95 11.75 41.3 14.1 39.25 14.5 36.25 14.9 33.45 13.2 31.1 12.5 30.15 11.45 29.75 10.55 29.25 9.6 28.85 10.95 28.2 11.7 26.8 12 26.2 12.3 25.65 13.45 26.9 15 27.85 15.2 27.95 15.45 28.1 18.4 28.95 21.3 28.75 23.15 28.65 25.05 28.55 30.15 27.75 33.9 24.3 37.5 20.95 39.35 16.3 41 12.15 41 7.8 41 4.05 39.5 0.6 37.75 -3.5 34.05 -6 34.75 -8.05 34.65 -10.1 34.6 -11.65 34.15 -12.95 33.5 -14.6 31.75 -15.6 30.9 -16.15 29.85 -16.25 28.6 -16.45 27.3 -16.55 25.3 -16.7 23.85 -15.65 23.6 -15.5 23.4 -15.3 22.25 -18.8 19.75 -21.3 22.05 -21.7 23.9 -23.05 25.75 -24.45 26.75 -26.55 27.6 -28.4 27.35 -30.3 Z"/>
</g>

<g id="Symbol_45_copy_2_Layer2_0_FILL">
<path fill="#FFCC00" stroke="none" d="
M 4.2 -14.55
L 4.2 -14.85
Q 4 -13.45 2 -10.55 0.4 -8.25 -0.9 -6.9 -1.5 -7.5 -1.85 -9.4 -2.1 -10.8 -2.1 -11.85 -2.2 -10.75 -2.7 -10.05 -3.15 -9.35 -3.75 -9.35 -5.3 -9.35 -11.9 -17.85 -12.1884765625 -18.2197265625 -12.5 -18.6
L -12.25 -18.15
Q -7.55 -8.9 -7.55 -7.35 -7.55 -6.45 -8.45 -6 -9.1 -5.7 -9.9 -5.7 -10.75 -5.7 -13.35 -6.6
L -13.95 -6.6
Q -12.5 -5.1 -11.85 -4.35 -10.65 -3 -10.65 -2.25 -10.65 -0.75 -21.3 2.15 -27.3890625 3.819140625 -30.6 4.45 -28.6482421875 4.2833984375 -25.75 4.05 -17.8 3.35 -15.8 3.35 -13.35 3.35 -9.75 3.95 -9.75 4.05 -9.6 4.15 -9.45 4.25 -9.45 4.7 -9.45 5.45 -12.45 7.35
L -12.6 7.4
Q -12.75 7.45 -12.75 7.65 -12.6 7.55 -11.4 7.2 -10.6 6.9 -10.05 6.45
L -8.45 6.45
Q -8.45 6.55 -8.3 7.05 -8.15 7.5 -8.15 7.95 -8.15 9.8 -13.1 19.2 -15.8 24.3 -20.7 33.2
L -20.7 33.5
Q -16.65 28.65 -12.1 23.55 -3 13.45 0 12.15 0 12.55 0.45 14.8 0.8890625 16.9466796875 0.9 17.65 0.90625 17.1140625 1.1 16 1.4 14.45 1.8 14 2.2 14.45 3.15 14.85 4 15.35 4.2 16.8 4.2 16.25 3.75 14.75 3.3 13.25 3.3 12.45 3.3 11.15 4.5 10.65 5.35 10.35 7.3 10.35 10.8 10.35 18.4 15.7 19.48828125 16.4732421875 20.55 17.25 17.836328125 15.0611328125 15.75 13.3 8.55 7.1 8.55 5.35 8.55 4.7 9.8 3.65 10.61953125 2.9794921875 11.5 2.45
L 10.05 2.45
Q 10.05 2.1 9.75 2.1 10 1.45 12.25 -0.45 14.2115234375 -2.0845703125 15.85 -3.15 13.2248046875 -2.41875 11.95 -2.1 9.6 -1.5 8.2 -1.5
L 6.95 -1.5
Q 6.35 -1.65 6.35 -2.4 6.35 -3.45 14.75 -12.2 20.85 -18.55 25.25 -22.8
L 25.25 -23.1
Q 5.05 -7.3 2.1 -6.3
L 2.1 -8.45
Q 2.55 -9.4 4.2 -14.55 Z"/>
</g>

<g id="Symbol_45_copy_2_Layer1_0_FILL">
<path fill="#2F2117" stroke="none" d="
M -2.45 20.95
Q -1.35 20.2 -0.5 19.2 0.5 18.1 1.4 16.9
L -1.75 18.45
Q -4.65 19.6 -7.75 19.5 -10.9 19 -13.4 17.15 -13.2 17.7 -12.9 18.2 -11.1 21.4 -7.5 22.05 -4.7 22.45 -2.45 20.95
M 9.75 39.1
Q 6.4 41.8 2.3 40.4 1.9 40.25 1.55 40.1 1.65 40.2 1.8 40.3 3.25 41.35 4.95 42.05 7.3 43.2 9.8 42.25 10.85 41.8 11.8 41.1 13.25 40.15 13.55 38.35 13.95 36.1 12.65 34.25 12.45 36.9 10.45 38.6 10.1 38.85 9.75 39.1
M 25.45 -12.4
Q 24 -14.85 21.55 -16.25
L 23 -9.05
Q 22.95 -4.7 20.05 -1.15 18.05 1.3 15.6 3.45 14.3 4.5 12.85 5.15 11.75 5.7 10.55 5.6 15 6.3 19.05 4.3 22.45 2.6 24.5 -0.3 25.15 -1.25 25.65 -2.3 25.65 -2.35 25.75 -2.35 26.25 -1.95 26.75 -1.45 29.35 1.65 29.3 5.85 29.25 7.65 29.15 9.5 29 13.35 26.6 16.4 24.65 18.95 21.8 20.3 18.4 21.95 14.7 21.05 12.5 20.6 10.55 19.8 9.15 21.8 6.9 22.9 4.45 24.05 1.9 25.2 -0.4 26.3 -3 26.65 -4.9 26.65 -6.5 26.25 -7.7 25.85 -8.7 25.15 -9.55 24.65 -10.25 24 -12.6 25.45 -15.5 25.3 -16.65 25.15 -17.75 24.8 -19 24.5 -20.1 23.9 -22.05 22.8 -24.25 21.9 -23.35 24.75 -21.05 26.9 -18.1 29.65 -14.45 31.45 -13.6 31.8 -12.85 31.65 -13.3 33.05 -14.8 33 -19.35 33.35 -23.55 31.5 -26.05 30.35 -28.1 28.2 -31.25 24.8 -31.85 20.05 -32.55 22 -32.75 24 -33.3 28.9 -30.4 32.85 -29.5 34.1 -28.25 35.05 -26.8 36.2 -25.05 37 -23.1 37.8 -21 38.05 -18.9 38.4 -16.75 38.4 -12.9 37.95 -10.3 35.05 -8.85 33.4 -8.7 31 -6.05 32.65 -2.85 32.25 0.85 32.35 4.5 31.2 7.55 30.15 10 27.9 11.9 26.1 13.75 24.25 13.85 24.2 13.95 24.2 14.05 24.2 14.5 25 15.6 26.75 17.35 27.1 19.6 27.8 21.9 27.75 24.65 27.95 27.25 26.95 30.55 25.75 32.85 23.15 37.2 18.3 38.1 11.75 38.5 8.55 38.1 5.5 37.85 3.3 36.8 1.5 35.3 -1 33 -2.95 34.65 -5.95 34.2 -9.4 34.05 -10.7 33.75 -11.9 33.2 -14.3 30.85 -15.25 31.25 -13.75 31.6 -12.1 31.8 -10.95 31.3 -9.9 30.5 -8.15 29.45 -6.85
L 26.65 -8.1
Q 26.6 -10.4 25.45 -12.4
M 24.55 -30.55
Q 24.65 -28.65 23.8 -27 23.3 -26 22.65 -25.05 21.75 -23.7 20.85 -22.35 21.85 -21.7 23.4 -22.7 24.4 -23.4 25.2 -24.3 25.85 -24.95 26.2 -25.85 26.5 -26.65 26.6 -27.55 26.85 -30.4 24.5 -31.65
L 24.55 -30.55 Z"/>
</g>

<g id="Symbol_45_copy_2_Layer0_0_FILL">
<path fill="#FF6500" stroke="none" d="
M -4 39.25
Q -2.85 39.5 -2.15 38.45 -1.55 37.55 -2.05 36.6 -2.55 35.65 -3.65 35.65
L -3.85 35.7
Q -4.75 35.7 -5.15 36.45 -5.6 37.15 -5.35 38 -5.3 38.35 -5.05 38.65 -4.7 39.15 -4 39.25
M -39.65 23.45
Q -38.6 23.55 -37.7 22.85 -36.8 22.15 -36.6 21.1 -36.4 20.1 -37.05 19.15 -37.7 18.2 -38.7 17.95 -39.55 17.7 -40.4 18.05 -41.45 18.45 -42 19.35 -42.3 19.95 -42.3 20.65 -42.25 21.7 -41.5 22.5 -40.7 23.35 -39.65 23.45
M -29.5 7.1
Q -28.75 7.45 -28.15 6.85 -27.55 6.25 -28 5.5 -28.2 5.05 -28.95 4.85
L -28.95 4.95
Q -29.3 4.9 -29.65 5.15 -30 5.4 -30.1 5.8 -30.25 6.65 -29.5 7.1
M -24.6 -0.35
Q -24.35 -1.3 -24.7 -2.05 -25.05 -2.85 -26 -3.2 -27.1 -3.6 -28.05 -3.25 -29 -2.85 -29.4 -1.9 -29.9 -0.5 -28.95 0.6 -27.95 1.7 -26.5 1.35 -25.1 1.05 -24.6 -0.35
M -35.95 -10.1
Q -36.8 -10.1 -37.35 -9.5 -37.9 -8.85 -37.85 -8 -37.75 -6.7 -36.45 -6.15 -35.9 -5.95 -35.25 -6.1 -34.6 -6.25 -34.2 -6.7 -33.25 -7.75 -33.85 -9 -34.45 -10.25 -35.85 -10.15
L -35.95 -10.1
M 26.8 -14.25
Q 26.05 -14.4 25.45 -13.5 25.15 -12.9 25.2 -12.25 25.2 -11.55 25.65 -11.1 26.25 -10.5 27.2 -10.65 28 -10.7 28.45 -11.55 28.7 -12 28.7 -12.7 28.6 -13.4 28.2 -13.8 27.8 -14.25 26.95 -14.35 27.05 -14.25 26.8 -14.25
M 3.95 -34.35
Q 4.75 -33.3 6.1 -33.15 7.45 -33 8.45 -33.75 9.55 -34.65 9.65 -35.9 9.75 -37.3 8.75 -38.3 7.75 -39.3 6.3 -39.2 5.25 -39.15 4.4 -38.45 3.55 -37.75 3.35 -36.7 3.1 -35.45 3.95 -34.35 Z"/>
</g>
</defs>

<g transform="matrix( 1.84967041015625, 0, 0, 1.84967041015625, 101.55,99.8) ">
<g transform="matrix( 1, 0, 0, 1, 0,0) ">
<use xlink:href="#Symbol_45_copy_2_Layer3_0_FILL"/>
</g>

<g transform="matrix( 1, 0, 0, 1, 0,0) ">
<use xlink:href="#Symbol_45_copy_2_Layer2_0_FILL"/>
</g>

<g transform="matrix( 1, 0, 0, 1, 0,0) ">
<use xlink:href="#Symbol_45_copy_2_Layer1_0_FILL"/>
</g>

<g transform="matrix( 1, 0, 0, 1, 0,0) ">
<use xlink:href="#Symbol_45_copy_2_Layer0_0_FILL"/>
</g>
</g>
</svg>
