
<svg xmlns="http://www.w3.org/2000/svg" version="1.1" xmlns:xlink="http://www.w3.org/1999/xlink" preserveAspectRatio="none" x="0px" y="0px" width="1000px" height="1000px" viewBox="0 0 1000 1000">
<defs>
<g id="Symbol_141_3_Layer0_0_FILL">
<path fill="#FFFFFF" stroke="none" d="
M -23.4 118.75
Q -23.4 117.3 -24.15 116.3 -24.9 115.3 -26 115.3 -27.1 115.3 -27.85 116.3 -28.6 117.3 -28.6 118.75 -28.6 120.2 -27.85 121.2 -27.1 122.2 -26 122.2 -24.9 122.2 -24.15 121.2 -23.4 120.2 -23.4 118.75
M -88.05 74.65
L -92.65 73.9 -92.65 77.75
Q -87.95 79.55 -83.2 77.2 -78 74.8 -79.85 69.2
L -88.05 74.65
M -103.5 38.9
Q -103.5 36.8 -104.75 35.3 -105.95 33.8 -107.7 33.8 -109.45 33.8 -110.7 35.3 -111.9 36.8 -111.9 38.9 -111.9 41 -110.7 42.5 -109.45 44 -107.7 44 -105.95 44 -104.75 42.5 -103.5 41 -103.5 38.9
M -32.1 95.4
Q -32.1 93.5 -33.15 92.15 -34.15 90.8 -35.6 90.8 -37.05 90.8 -38.1 92.15 -39.1 93.5 -39.1 95.4 -39.1 97.3 -38.1 98.65 -37.05 100 -35.6 100 -34.15 100 -33.15 98.65 -32.1 97.3 -32.1 95.4
M -61 98.4
Q -61 95.65 -62.65 93.7 -64.25 91.75 -66.55 91.75 -68.85 91.75 -70.5 93.7 -72.1 95.65 -72.1 98.4 -72.1 101.15 -70.5 103.1 -68.85 105.05 -66.55 105.05 -64.25 105.05 -62.65 103.1 -61 101.15 -61 98.4
M -70.8 48.45
Q -70.520703125 48.421484375 -70.25 48.45 -69.2 48.7 -67.3 54.05 -65.4 59.4 -65.5 61.8 -65 61.55 -65 61.35 -66.4548828125 41.522265625 -70.8 48.45
M -48.75 70.9
Q -49.35 71.75 -49.35 72.9 -49.35 74.05 -48.75 74.85 -48.15 75.7 -47.3 75.7 -46.45 75.7 -45.85 74.85 -45.25 74.05 -45.25 72.9 -45.25 71.75 -45.85 70.9 -46.45 70.1 -47.3 70.1 -48.15 70.1 -48.75 70.9
M -10.9 -34.85
Q -9.8 -36.4 -9.8 -38.55 -9.8 -40.7 -10.9 -42.25 -11.95 -43.8 -13.45 -43.8 -14.95 -43.8 -16.05 -42.25 -17.1 -40.7 -17.1 -38.55 -17.1 -36.4 -16.05 -34.85 -14.95 -33.3 -13.45 -33.3 -11.95 -33.3 -10.9 -34.85
M -60.15 -11.55
Q -59.75 -11.7 -59.25 -11.75 -52.75 -7.1 -53.45 1.9
L -49.9 -1.5 -41.4 13.2
Q -40.1 10.5 -39.3 7.4 -38.1 2.5 -42.05 -5.15 -44.05 -8.95 -46.4 -12 -61.45 -30.45 -67 -4.8 -64.5 -9.3 -60.15 -11.55
M -58.05 -75.05
L -54.6 -80.7
Q -55.45 -95.6 -70.6 -95.4
L -71.85 -90.2 -68.15 -90.15 -64.2 -76.4
Q -67.1 -73.2 -65.65 -69.05 -64.5 -65.85 -61.25 -65.8 -58.55 -66.9 -57.65 -69.5 -56.7 -72.4 -58.05 -75.05
M -32.5 -45.25
Q -32.85 -44.4 -33.25 -43.6 -32.9 -43.55 -32.75 -43.65 -16.8 -61.3 -37.75 -63.3 -28 -56.35 -32.5 -45.25
M -31.85 -77.9
Q -30.7 -79.55 -30.7 -81.85 -30.7 -84.15 -31.85 -85.8 -33 -87.45 -34.65 -87.45 -36.3 -87.45 -37.45 -85.8 -38.6 -84.15 -38.6 -81.85 -38.6 -79.55 -37.45 -77.9 -36.3 -76.25 -34.65 -76.25 -33 -76.25 -31.85 -77.9
M -81.2 -7.95
Q -81.2 -10.95 -82.85 -13.1 -84.5 -15.2 -86.85 -15.2 -89.2 -15.2 -90.85 -13.1 -92.5 -10.95 -92.5 -7.95 -92.5 -4.95 -90.85 -2.85 -89.2 -0.7 -86.85 -0.7 -84.5 -0.7 -82.85 -2.85 -81.2 -4.95 -81.2 -7.95
M -96 -48.2
Q -95.8 -48.25 -95.65 -48.35 -76 -56.85 -92.9 -70.85 -88.2 -53.4 -106.1 -47.7 -106.55 -47.55 -106.95 -47.2 -108.75 -34.2 -100.8 -28.45 -104.65 -39.3 -98.3 -49.2
L -96 -48.2
M 36.85 105.3
Q 36.85 103.55 35.9 102.3 35 101.1 33.7 101.1 32.4 101.1 31.45 102.3 30.55 103.55 30.55 105.3 30.55 107.05 31.45 108.25 32.4 109.5 33.7 109.5 35 109.5 35.9 108.25 36.85 107.05 36.85 105.3
M 59.6 89.25
Q 59.6 87.45 58.6 86.15 57.65 84.85 56.25 84.85 54.85 84.85 53.85 86.15 52.9 87.45 52.9 89.25 52.9 91.05 53.85 92.35 54.85 93.65 56.25 93.65 57.65 93.65 58.6 92.35 59.6 91.05 59.6 89.25
M 71.15 47.2
Q 71.15 44.6 68.8 42.75 66.45 40.95 63.15 40.95 59.85 40.95 57.5 42.75 55.15 44.6 55.15 47.2 55.15 49.8 57.5 51.6 59.85 53.45 63.15 53.45 66.45 53.45 68.8 51.6 71.15 49.8 71.15 47.2
M 81.3 69.45
Q 83.9 70.25 86.35 69.15 89.55 67.8 88.15 63.9 87.65 62.65 86.8 61.4 86.05 60.3 85.9 60.4 81 63.6 81.3 69.45
M 107.75 36.55
Q 107.75 34.6 106.7 33.25 105.65 31.9 104.2 31.9 102.75 31.9 101.7 33.25 100.65 34.6 100.65 36.55 100.65 38.5 101.7 39.85 102.75 41.2 104.2 41.2 105.65 41.2 106.7 39.85 107.75 38.5 107.75 36.55
M 101.1 -31.55
L 90.3 -2.9
Q 90.6 -2.9 90.85 -3.1 106.2 -7.75 105.4 -24.05 107.3 -42.25 97.45 -57.35
L 101.1 -31.55
M 90 -2.25
Q 85.65 -1.8 84.6 -0.85 74.05 8.45 81.9 19.8
L 84.3 18.45 87.5 20.7
Q 87.55 15 89.65 10.95 91.75 6.9 94.65 6.85 93.7 5.7 90.1 5 86.8 4.35 85.85 4.7
L 90 -2.25
M 58.65 -25.6
Q 57.2 -27.5 55.15 -27.5 53.1 -27.5 51.6 -25.6 50.15 -23.7 50.15 -21.05 50.15 -18.4 51.6 -16.5 53.1 -14.6 55.15 -14.6 57.2 -14.6 58.65 -16.5 60.15 -18.4 60.15 -21.05 60.15 -23.7 58.65 -25.6
M 76.1 -45.6
L 75.3 -40
Q 81.7 -26.4 76.2 -12.5 77.2 -13.75 78.2 -15 91.5 -31.85 76.1 -45.6
M 69.6 -64.4
Q 71.1 -66.4 71.1 -69.25 71.1 -72.1 69.6 -74.1 68.1 -76.1 65.95 -76.1 63.8 -76.1 62.3 -74.1 60.8 -72.1 60.8 -69.25 60.8 -66.4 62.3 -64.4 63.8 -62.4 65.95 -62.4 68.1 -62.4 69.6 -64.4
M 79.7 -100.7
Q 79.15 -101.3 78.5 -101.8
L 76 -101.9 78.3 -94.25 80.85 -93.7
Q 82.7 -97.4 79.7 -100.7
M 23.35 -109.45
Q 23.35 -112.3 21.75 -114.3 20.2 -116.3 18 -116.3 15.8 -116.3 14.2 -114.3 12.65 -112.3 12.65 -109.45 12.65 -106.6 14.2 -104.6 15.8 -102.6 18 -102.6 20.2 -102.6 21.75 -104.6 23.35 -106.6 23.35 -109.45 Z"/>

<path fill="#FCEFB2" stroke="none" d="
M -70.25 48.45
Q -70.520703125 48.421484375 -70.8 48.45 -71.7 48.55 -73.6 53.4 -75.55 58.4 -75.65 61.15 -68.45 63.4 -65.5 61.8 -65.4 59.4 -67.3 54.05 -69.2 48.7 -70.25 48.45
M -67 -4.8
Q -66.75 -3.35 -62.65 -0.05 -57.65 4.05 -53.45 1.9 -52.75 -7.1 -59.25 -11.75 -59.75 -11.7 -60.15 -11.55 -64.5 -9.3 -67 -4.8
M -37.75 -63.3
Q -38.15 -62.7 -38.5 -62.05 -46.15 -49.4 -33.25 -43.6 -32.85 -44.4 -32.5 -45.25 -28 -56.35 -37.75 -63.3
M -92.9 -70.85
Q -93.15 -70.75 -93.35 -70.65 -106.75 -62.85 -106.95 -47.2 -106.55 -47.55 -106.1 -47.7 -88.2 -53.4 -92.9 -70.85
M 88.35 20.65
Q 99.5 17.45 94.65 6.85 91.75 6.9 89.65 10.95 87.55 15 87.5 20.7 87.95 20.75 88.35 20.65 Z"/>
</g>
</defs>

<g transform="matrix( 1.0804443359375, 0, 0, 1.0804443359375, 329.7,85.2) ">
<g transform="matrix( 1, 0, 0, 1, 31.75,-80.95) ">
<g transform="matrix( 2.0740966796875, 0.0090484619140625, 0.0012054443359375, -0.2815704345703125, 105.3,452.7) ">
<g transform="matrix( 1, 0, 0, 1, 0,0) ">
<use xlink:href="#Symbol_141_3_Layer0_0_FILL"/>
</g>
</g>

<g transform="matrix( 1.794952392578125, 0.007843017578125, -0.0046234130859375, 1.0771484375, 114.7,345.1) ">
<g transform="matrix( 1, 0, 0, 1, 0,0) ">
<use xlink:href="#Symbol_141_3_Layer0_0_FILL"/>
</g>
</g>
</g>
</g>
</svg>
