
<svg xmlns="http://www.w3.org/2000/svg" version="1.1" xmlns:xlink="http://www.w3.org/1999/xlink" preserveAspectRatio="none" x="0px" y="0px" width="1000px" height="1000px" viewBox="0 0 1000 1000">
<defs>
<g id="Symbol_141_0_Layer0_0_FILL">
<path fill="#FCEFB2" stroke="none" d="
M 47.3 -26.65
L 40.5 -26.5
Q 70.2 24.2 44.8 77.25
L 40.35 73.2
Q 40.2 73.85 40.05 74.5 31.65 110.25 -3.7 120.2 9.65 121.85 21.95 116.5 46.1 105.7 46.5 78.75 47.35 77.45 48.2 76.2 83.4 24.5 47.3 -26.65
M -39.75 -33
Q -42.15 -30.05 -44.5 -27.05 -69.5 4.65 -58.5 43.4
L -47.95 53.5
Q -48.3 52.1 -48.7 42.75 -49.25 30.85 -48.95 19.1 -48 -16.8 -39.75 -33 Z"/>

<path fill="#FFFFFF" stroke="none" d="
M 47.3 -26.65
Q 44.9 -28.45 42.5 -30.2 2.5 -59.5 -39.75 -33 -48 -16.8 -48.95 19.1 -49.25 30.85 -48.7 42.75 -48.3 52.1 -47.95 53.5
L -58.5 43.4 -57.55 47.05 -60.8 48.3 -82.45 37.8
Q -78.9 47.65 -71.65 55.1 -44.4 82.85 -28.1 118.2
L -3.7 120.2
Q 31.65 110.25 40.05 74.5 40.2 73.85 40.35 73.2
L 44.8 77.25
Q 70.2 24.2 40.5 -26.5
L 47.3 -26.65 Z"/>
</g>
</defs>

<g transform="matrix( 1.0804443359375, 0, 0, 1.0804443359375, 329.7,85.2) ">
<g transform="matrix( 1, 0, 0, 1, 31.75,-80.95) ">
<g transform="matrix( 2.0740966796875, 0.0090484619140625, 0.0012054443359375, -0.2815704345703125, 105.3,452.7) ">
<g transform="matrix( 1, 0, 0, 1, 0,0) ">
<use xlink:href="#Symbol_141_0_Layer0_0_FILL"/>
</g>
</g>

<g transform="matrix( 1.794952392578125, 0.007843017578125, -0.0046234130859375, 1.0771484375, 114.7,345.1) ">
<g transform="matrix( 1, 0, 0, 1, 0,0) ">
<use xlink:href="#Symbol_141_0_Layer0_0_FILL"/>
</g>
</g>
</g>
</g>
</svg>
