
<svg xmlns="http://www.w3.org/2000/svg" version="1.1" xmlns:xlink="http://www.w3.org/1999/xlink" preserveAspectRatio="none" x="0px" y="0px" width="1000px" height="1000px" viewBox="0 0 1000 1000">
<defs>
<g id="Duplicate_Items_Folder_bowboi_49_Layer0_0_FILL">
<path fill="#FFF2B8" stroke="none" d="
M 150.7 393.45
Q 149.3 392.2 148 380.1 146.95 370.45 146.95 367.4 145.95 368.3 145 368.95 139.05 374.85 139.05 382.85 139.05 391 145 396.7 151 402.45 159.4 402.45 167.8 402.45 173.8 396.7 179.75 391 179.75 382.85 179.75 374.85 173.95 369.3 175.25 374 175.7 380.95 172.5 388.55 162.4 392.4 153.3 395.85 150.7 393.45 Z"/>

<path fill="#FFFFFF" stroke="none" d="
M 159.4 363.25
Q 152.3 363.25 146.95 367.4 146.95 370.45 148 380.1 149.3 392.2 150.7 393.45 153.3 395.85 162.4 392.4 172.5 388.55 175.7 380.95 175.25 374 173.95 369.3 165.05 363.25 159.4 363.25 Z"/>
</g>
</defs>

<g transform="matrix( 1.0804443359375, 0, 0, 1.0804443359375, 329.7,85.2) ">
<g transform="matrix( 1, 0, 0, 1, 0,0) ">
<use xlink:href="#Duplicate_Items_Folder_bowboi_49_Layer0_0_FILL"/>
</g>
</g>
</svg>
