
<svg xmlns="http://www.w3.org/2000/svg" version="1.1" xmlns:xlink="http://www.w3.org/1999/xlink" preserveAspectRatio="none" x="0px" y="0px" width="1000px" height="1000px" viewBox="0 0 1000 1000">
<defs>
<g id="Symbol_141_2_Layer0_0_FILL">
<path fill="#FFFFFF" stroke="none" d="
M -24.3 123.6
Q -22.35 123.6 -20.95 121.75 -19.55 119.95 -19.55 117.35 -19.55 114.75 -20.95 112.9 -22.35 111.1 -24.3 111.1 -26.25 111.1 -27.65 112.9 -29.05 114.75 -29.05 117.35 -29.05 119.95 -27.65 121.75 -26.25 123.6 -24.3 123.6
M -104.3 34.85
Q -102.6 34.85 -101.4 33.15 -100.15 31.45 -100.15 29.05 -100.15 26.65 -101.4 24.95 -102.6 23.25 -104.3 23.25 -106 23.25 -107.25 24.95 -108.45 26.65 -108.45 29.05 -108.45 31.45 -107.25 33.15 -106 34.85 -104.3 34.85
M -30.25 90.65
Q -30.75 90.6 -33.15 92.15 -35.65 93.75 -35.7 94.35
L -27.3 107.75
Q -25.3 104.85 -25.25 104.1 -24.35 96.1 -30.25 90.65
M -60.95 88.1
Q -63.1 88.1 -64.65 90.05 -66.2 92 -66.2 94.8 -66.2 97.6 -64.65 99.55 -63.1 101.5 -60.95 101.5 -58.8 101.5 -57.25 99.55 -55.7 97.6 -55.7 94.8 -55.7 92 -57.25 90.05 -58.8 88.1 -60.95 88.1
M -48.05 67
Q -49.35 68.7 -49.35 71.1 -49.35 73.5 -48.05 75.15 -46.75 76.85 -44.9 76.85 -43.05 76.85 -41.75 75.15 -40.45 73.5 -40.45 71.1 -40.45 68.7 -41.75 67 -43.05 65.35 -44.9 65.35 -46.75 65.35 -48.05 67
M -57.6 63.15
Q -55.85 59.75 -55.55 56 -54.85 48.05 -61.45 45.55 -79.55 38.6 -82.45 61.55 -84.55 62.75 -86.7 62.6 -99.55 61.7 -101.6 46.5 -101.5 47.9 -101.3 49.3 -97.1 80.05 -73.75 66.45 -70.15 43.3 -58.1 61.65 -57.65 62.3 -57.6 63.15
M -7.4 -32.65
Q -5.8 -34.65 -5.8 -37.5 -5.8 -40.35 -7.4 -42.4 -8.95 -44.4 -11.2 -44.4 -13.45 -44.4 -15.05 -42.4 -16.6 -40.35 -16.6 -37.5 -16.6 -34.65 -15.05 -32.65 -13.45 -30.6 -11.2 -30.6 -8.95 -30.6 -7.4 -32.65
M -24.05 -35.5
Q -23.45 -35.1 -22.75 -34.8 -17.8 -39.45 -16.95 -46.3 -13.9 -70.75 -34.8 -63.2 -38.5 -44.45 -24.05 -35.5
M -37 -82.6
Q -38.9 -80.15 -38.9 -76.7 -38.9 -73.25 -37 -70.8 -35.1 -68.35 -32.45 -68.35 -29.8 -68.35 -27.9 -70.8 -26 -73.25 -26 -76.7 -26 -80.15 -27.9 -82.6 -29.8 -85.05 -32.45 -85.05 -35.1 -85.05 -37 -82.6
M -84.25 -69.05
Q -84.75 -69.55 -85.25 -70.05 -89.4 -74.35 -95.35 -73.95 -89.55 -55.35 -94.75 -36.45 -95.1 -35.2 -95.3 -28.7 -95.55 -22.05 -95.8 -20.95
L -90.95 -12.6
Q -91.4 -11.9 -91.55 -11.15 -97.4 17.45 -70.95 5.55 -64.85 -17.75 -56 1.8 -52.85 8.55 -50.7 13.35 -46.6 22.45 -46.1 25.15 -46.05 25.2 -44.7 32.9 -42.85 41.15 -40.25 43.75 -38.65 28.85 -39.25 14.05 -40.7 -21.65 -68.55 -11.7
L -79.8 -15.05
Q -81.9 -20.05 -83.9 -25.05 -85.1 -28 -84.7 -30.7 -82.1 -47.25 -80.65 -64.15 -79.25 -65.4 -78.25 -66.95 -73.15 -74.4 -63.75 -70.7 -65.85 -67.2 -65.05 -63.1 -64.2 -58.75 -60.3 -59.4 -47.75 -61.65 -57.15 -72.45 -56.6 -72.9 -56.05 -73.35 -50.65 -78.05 -50.8 -85.05 -49.25 -85.85 -46.95 -88.2 -44.55 -90.6 -44.75 -91.35
L -49.15 -91
Q -77.1 -101.25 -84.25 -69.05
M -41.3 -108.25
Q -42.15 -108.25 -42.75 -107.3 -43.3 -106.3 -43.3 -104.9 -43.3 -103.5 -42.75 -102.55 -42.15 -101.55 -41.3 -101.55 -40.45 -101.55 -39.9 -102.55 -39.3 -103.5 -39.3 -104.9 -39.3 -106.3 -39.9 -107.3 -40.45 -108.25 -41.3 -108.25
M 36.8 102.15
L 35.75 101.55
Q 31.9 101.35 28.4 102.75 18.65 106.6 17.05 116.05 18.05 115.7 19.05 115.4 32.7 112.75 36.8 102.15
M 63.85 83.15
Q 63.85 82.1 63.35 81.35 62.85 80.6 62.15 80.6 61.45 80.6 60.95 81.35 60.45 82.1 60.45 83.15 60.45 84.2 60.95 84.95 61.45 85.7 62.15 85.7 62.85 85.7 63.35 84.95 63.85 84.2 63.85 83.15
M 50.05 96.85
L 54.95 93.35 58.05 90.05 57.25 87.2 55.55 86.5
Q 52.65 87.55 50.7 90.1 48.85 92.5 48.7 95.45
L 50.05 96.85
M 78.15 63.6
L 78.5 66.45
Q 69.1 71.25 68.3 79.25 85.8 69.15 85.85 69 88.1 52.3 78.15 63.6
M 19.95 17.5
Q 19.95 14.55 18.3 12.45 16.7 10.35 14.4 10.35 12.1 10.35 10.45 12.45 8.85 14.55 8.85 17.5 8.85 20.45 10.45 22.55 12.1 24.65 14.4 24.65 16.7 24.65 18.3 22.55 19.95 20.45 19.95 17.5
M 64 39.35
Q 63.8 39.3 63.65 39.3 35.45 49.1 35.9 80.25 43.7 71.9 51.15 62.6 65.95 44 64 39.35
M 101.05 31.25
Q 99.65 29.45 97.65 29.45 95.65 29.45 94.2 31.25 92.8 33.1 92.8 35.7 92.8 38.3 94.2 40.1 95.65 41.95 97.65 41.95 99.65 41.95 101.05 40.1 102.5 38.3 102.5 35.7 102.5 33.1 101.05 31.25
M 85.35 -73.75
L 83.8 -74
Q 84.8 -68.15 85.6 -62.25 91.7 -16.8 74.95 25.5 78.6 19.5 85.95 18.1 86.45 18.05 86.95 17.75 85.5 3.3 96.5 3.35 97.2 2.8 98 3.4
L 93.9 -4.95
Q 93.76171875 -4.856640625 93.75 -4.8 96.148046875 -40.6060546875 85.35 -73.75
M 51.7 -28.45
Q 48.9 -28.45 46.9 -26 44.9 -23.55 44.9 -20.1 44.9 -16.65 46.9 -14.2 48.9 -11.75 51.7 -11.75 54.5 -11.75 56.5 -14.2 58.5 -16.65 58.5 -20.1 58.5 -23.55 56.5 -26 54.5 -28.45 51.7 -28.45
M 55.55 -46.8
L 52.4 -38.85
Q 55.55 -38.5 58.1 -36.95 78.75 -23.85 68.1 0.2 84.85 -9.4 80.7 -30.5 75.8 -55.45 55.55 -46.8
M 68.7 -70.95
Q 68.7 -74 67 -76.2 65.35 -78.35 63 -78.35 60.65 -78.35 58.95 -76.2 57.3 -74 57.3 -70.95 57.3 -67.9 58.95 -65.75 60.65 -63.55 63 -63.55 65.35 -63.55 67 -65.75 68.7 -67.9 68.7 -70.95
M 77.45 -100.8
Q 77.95 -103.1 77.25 -105.3 76.35 -108.35 73.4 -109.7 73.15 -109.85 66.85 -106.85
L 76 -99.05 77.45 -100.8
M 25.55 -109.1
Q 25.55 -113.25 22.95 -116.2 20.4 -119.15 16.8 -119.15 13.2 -119.15 10.6 -116.2 8.05 -113.25 8.05 -109.1 8.05 -104.95 10.6 -102 13.2 -99.05 16.8 -99.05 20.4 -99.05 22.95 -102 25.55 -104.95 25.55 -109.1 Z"/>

<path fill="#FCEFB2" stroke="none" d="
M -57.6 63.15
Q -57.65 62.3 -58.1 61.65 -70.15 43.3 -73.75 66.45
L -72.4 65.6
Q -71 66.3 -66.1 66.2 -59.8 66.1 -57.6 63.15
M -34.8 -63.2
Q -37.6 -60.45 -38.7 -56.8 -47.5 -28.45 -22.75 -34.8 -23.45 -35.1 -24.05 -35.5 -38.5 -44.45 -34.8 -63.2
M -46.1 25.15
Q -46.6 22.45 -50.7 13.35 -52.85 8.55 -56 1.8 -64.85 -17.75 -70.95 5.55
L -68.7 4.6
Q -53.55 19.55 -46.1 25.15
M -95.35 -73.95
Q -96.05 -73.55 -96.5 -73 -116.6 -49.65 -95.8 -20.95 -95.55 -22.05 -95.3 -28.7 -95.1 -35.2 -94.75 -36.45 -89.55 -55.35 -95.35 -73.95
M 86.95 17.75
Q 86.45 18.05 85.95 18.1 78.6 19.5 74.95 25.5
L 79.15 21.8
Q 80.05 21.95 80.95 22.1 98.65 20.9 98 3.4 97.2 2.8 96.5 3.35 85.5 3.3 86.95 17.75
M 93.75 -4.8
Q 93.76171875 -4.856640625 93.9 -4.95 93.8 -5.1 93.85 -5.2 107.45 -43.45 85.35 -73.75 96.148046875 -40.6060546875 93.75 -4.8 Z"/>
</g>
</defs>

<g transform="matrix( 1.0804443359375, 0, 0, 1.0804443359375, 329.7,85.2) ">
<g transform="matrix( 1, 0, 0, 1, 31.75,-80.95) ">
<g transform="matrix( 2.0740966796875, 0.0090484619140625, 0.0012054443359375, -0.2815704345703125, 105.3,452.7) ">
<g transform="matrix( 1, 0, 0, 1, 0,0) ">
<use xlink:href="#Symbol_141_2_Layer0_0_FILL"/>
</g>
</g>

<g transform="matrix( 1.794952392578125, 0.007843017578125, -0.0046234130859375, 1.0771484375, 114.7,345.1) ">
<g transform="matrix( 1, 0, 0, 1, 0,0) ">
<use xlink:href="#Symbol_141_2_Layer0_0_FILL"/>
</g>
</g>
</g>
</g>
</svg>
