
<svg xmlns="http://www.w3.org/2000/svg" version="1.1" xmlns:xlink="http://www.w3.org/1999/xlink" preserveAspectRatio="none" x="0px" y="0px" width="1000px" height="1000px" viewBox="0 0 1000 1000">
<defs>
<g id="Duplicate_Items_Folder_Symbol_1_copy_2_0_Layer0_0_FILL">
<path fill="#FFFFFF" stroke="none" d="
M 9.3 20.85
Q 9.4 19.8 9 19.6 7.230078125 22.6638671875 6.05 25.95 5.6529296875 27.9091796875 5.35 29.8 4.1 37.55 6.95 42.85 7.85 51.05 13.25 55.75 15.015234375 57.34296875 17.15 58.05 14.955859375 54.7236328125 13.5 51.75 9.95 44.65 8.85 36.65 7.75 28.6 9.3 20.85 Z"/>

<path fill="#FF9C9C" stroke="none" d="
M 28.55 22.2
Q 26.45 16.7 24.25 8.35 23.95 7.2 25 3.35
L 11.75 3.35
Q 13.15 4 9.9 13.05 7.4 19.83046875 6.05 25.95 7.230078125 22.6638671875 9 19.6 9.4 19.8 9.3 20.85 7.75 28.6 8.85 36.65 9.95 44.65 13.5 51.75 14.955859375 54.7236328125 17.15 58.05 17.4958984375 58.159765625 17.85 58.25 20.65 58.7 22.95 57.5 25.95 55.75 28.2 51.55 31.3 45.5 31.15 37.25 31.1 31.05 28.55 22.2 Z"/>

<path fill="#000000" stroke="none" d="
M 42.7 38.6
Q 42.95 34.25 42.45 30.8 41.95 24.8 34.15 15 31.35 11.15 27.65 3.35
L 25 3.35
Q 23.95 7.2 24.25 8.35 26.45 16.7 28.55 22.2 31.1 31.05 31.15 37.25 31.3 45.5 28.2 51.55 25.95 55.75 22.95 57.5 20.65 58.7 17.85 58.25 17.4958984375 58.159765625 17.15 58.05 15.015234375 57.34296875 13.25 55.75 7.85 51.05 6.95 42.85 4.1 37.55 5.35 29.8 5.6529296875 27.9091796875 6.05 25.95 7.4 19.83046875 9.9 13.05 13.15 4 11.75 3.35
L 10.35 3.35
Q 9.6 4.9 9.3 5.4 5.3 11.2 1.75 17 -1.3 22.15 -1.8 23.5 -3.55 27.05 -4.25 32.45 -5.55 42 -3.35 49.9 -0.8 59.3 6.3 64.65 10.05 67.6 14.35 68.65 18.95 69.85 23.5 68.85 28.35 67.6 32.2 64.45 35.8 61.25 38.35 57.05 42.1 49.75 42.7 38.6 Z"/>
</g>

<g id="Duplicate_Items_Folder_Symbol_2_copy_0_Layer0_0_FILL">
<path fill="#000000" stroke="none" d="
M 125.4 84.85
Q 132.2 70.3 130.1 53.25 127.95 36.2 122.8 28.5 117.9 21.2 110.6 15.7 98.05 6.2 78.1 1.95 64.6 -0.95 53.85 0.5 41.65 2.15 29.25 9.4 18.4 15.8 12.5 24 7.55 30.85 3.7 43.05 1.4 50.05 0.6 55.05 -1.35 67.4 3.1 79.75 7.4 91.7 16.45 100.45 25.1 108.85 37.25 113.5 48.75 118 61.7 118.5 76.45 119.1 89.75 114.15 104.05 108.95 111.3 104.2 118.55 99.4 125.4 84.85
M 102.1 21.55
Q 109.1 26.1 113.8 32.4 118.85 39.15 121.45 51 123 58.1 121.55 66.4 120.6 71.9 118.35 77.9 112.65 92.95 105.65 97.25 98.6 101.5 85.55 105.9 73.95 109.8 60.4 109.25 59.65 109.2 58.95 109.2 55.65 109 52.55 108.6 52.225 108.5072265625 51.9 108.5 39.05 106.6 29.5 100.65 22.95 96.6 18 90.5 13.05 84.35 10.35 77.1 7.7 69.8 7.45 61.8 7.2 53.75 9.45 46.1 10.95 41.05 13.2 37.15 17 30.55 24.95 24.05 32.4 17.9 40.2 14.35 48.9 10.35 57.35 9.85 63.45 9.5 71.95 10.95 90.7 14.15 102.1 21.55 Z"/>

<path fill="#FFFFFF" stroke="none" d="
M 105.65 97.25
Q 112.65 92.95 118.35 77.9 120.6 71.9 121.55 66.4 122.15 59.9 120.55 54.1 120.45 53.55 119.9 53.25 119.3 52.9 119.2 53.4 118.7 64.6 113.9 74.45 108.9 84.75 100.35 91.1 96 94.35 88.05 98.05 69.1 106.9 54.25 108.3 53.2 108.4 51.9 108.5 52.225 108.5072265625 52.55 108.6 55.65 109 58.95 109.2 59.65 109.2 60.4 109.25 73.95 109.8 85.55 105.9 98.6 101.5 105.65 97.25 Z"/>

<path fill="#FF9C9C" stroke="none" d="
M 113.8 32.4
Q 109.1 26.1 102.1 21.55 90.7 14.15 71.95 10.95 63.45 9.5 57.35 9.85 48.9 10.35 40.2 14.35 32.4 17.9 24.95 24.05 17 30.55 13.2 37.15 10.95 41.05 9.45 46.1 7.2 53.75 7.45 61.8 7.7 69.8 10.35 77.1 13.05 84.35 18 90.5 22.95 96.6 29.5 100.65 39.05 106.6 51.9 108.5 53.2 108.4 54.25 108.3 69.1 106.9 88.05 98.05 96 94.35 100.35 91.1 108.9 84.75 113.9 74.45 118.7 64.6 119.2 53.4 119.3 52.9 119.9 53.25 120.45 53.55 120.55 54.1 122.15 59.9 121.55 66.4 123 58.1 121.45 51 118.85 39.15 113.8 32.4 Z"/>
</g>

<g id="Duplicate_Items_Folder_cow_leg_0_Layer0_0_FILL">
<path fill="#000000" stroke="none" d="
M 27.6 -6.2
Q 25 -7.5 19.7 -7.7 17.2 -7.75 11.2 -6.5 5.5 -5.35 4.2 -4.65 1.1 -3.05 -0.4 -2.05 -2.8 -0.45 -4.15 1.5 -6.6 5 -6.8 12.15 -6.85 18.05 -0.55 29.3 1.75 32.6 5.5 34.2 8.6 35.5 12.75 35.5 19.15 35.65 27.25 33.05 29.3 32.4 33.3 28.8 37.1 25.3 37.6 23.95 38.65 21.35 39.05 14.15 39.45 6.55 38.35 4.45 37.65 3.2 33 -1.35 28.45 -5.7 27.6 -6.2
M 7.1 -1.05
Q 7.95 -1.45 17.5 -1.9 27 -2.35 27.35 -2 36.05 7.25 36.2 8.65 36.3 9.35 35.35 13.45 34.35 17.75 33.6 19.7 33 18.3 30.05 14.95 27.35 11.8 26.5 11.15 18.55 8.35 14.75 8.2 13.6 8.15 10.35 8.7 7.1 9.25 6.15 9.65 1.2 11.95 -2.45 15.9 -2.4 15 -2.5 11.95 -2.55 9.5 -2.25 8.1 -1.9 6.8 -1 5 -0.7 4.4 2.75 1.85 6.05 -0.55 7.1 -1.05
M 27.4 16.05
Q 29.2453125 17.6984375 30.6 20.45 32.0140625 23.2046875 28.65 26.5 28.288671875 26.85390625 27.95 27.15 27.9259765625 27.1712890625 27.85 27.2 22.8 29.35 16.8 30.15 10.5 30.9 6.75 29 4.35 27.8 2.95 25.5 1.5 23.1 1.95 20.65 2.4 18.05 4.85 16.1 6.85 14.45 9.95 13.45 14.65 12 19.15 12.55 24.1 13.15 27.4 16.05 Z"/>

<path fill="#0033FF" stroke="none" d="
M 30.6 20.45
Q 29.2453125 17.6984375 27.4 16.05 24.1 13.15 19.15 12.55 14.65 12 9.95 13.45 6.85 14.45 4.85 16.1 2.4 18.05 1.95 20.65 1.5 23.1 2.95 25.5 4.35 27.8 6.75 29 10.5 30.9 16.8 30.15 22.8 29.35 27.85 27.2 27.9259765625 27.1712890625 27.95 27.15 28.288671875 26.85390625 28.65 26.5 32.0140625 23.2046875 30.6 20.45
M 35.35 13.45
Q 36.3 9.35 36.2 8.65 36.05 7.25 27.35 -2 26.6869140625 5.7609375 26.5 11.15 27.35 11.8 30.05 14.95 33 18.3 33.6 19.7 34.35 17.75 35.35 13.45 Z"/>

<path fill="#0099FF" stroke="none" d="
M 17.5 -1.9
Q 7.95 -1.45 7.1 -1.05 6.05 -0.55 2.75 1.85 -0.7 4.4 -1 5 -1.9 6.8 -2.25 8.1 -2.55 9.5 -2.5 11.95 -2.4 15 -2.45 15.9 1.2 11.95 6.15 9.65 7.1 9.25 10.35 8.7 13.6 8.15 14.75 8.2 18.55 8.35 26.5 11.15 26.6869140625 5.7609375 27.35 -2 27 -2.35 17.5 -1.9 Z"/>
</g>

<g id="Duplicate_Items_Folder_cow_leg_1_Layer0_0_FILL">
<path fill="#000000" stroke="none" d="
M 12.8 42.25
Q 13.75 41.8 20.2 33.1 26.65 24.5 26.55 23.95 26.4 23.35 11.3 12.15 -3.8 0.95 -4.2 1.15 -18.95 20.8 -18.5 22.85 -18.1 24.5 -16.8 26.35 -10.95 34.9 -1.25 39.1 2.4 40.7 8.6 42.2 11.5 42.95 12.8 42.25
M 9.25 14.7
Q 9.35 14.8 9.45 14.85 20.95 23.65 20.9 23.9 18.7 25.6 13.95 29.05 8.9 32.7 7.6 33.45 7.1 33.75 2.8 32.05 2.25 31.85 1.75 31.65 1.2 31.45 0.7 31.25 -1.3 30.4 -2.6 29.7 -3 29.45 -3.35 29.25 -4.1 28.85 -7.3 26.15 -10.75 23.2 -12.1 21.7 -3.2 5.8 -2.65 5.8 -2.4 5.8 9.25 14.7 Z"/>

<path fill="#0033FF" stroke="none" d="
M 0.7 31.25
Q 1.2 31.45 1.75 31.65 2.25 31.85 2.8 32.05 7.1 33.75 7.6 33.45 8.9 32.7 13.95 29.05 18.7 25.6 20.9 23.9 20.95 23.65 9.45 14.85 5.65 19 0.7 25.4 -1.1 27.75 -2.6 29.7 -1.3 30.4 0.7 31.25 Z"/>

<path fill="#0099FF" stroke="none" d="
M 9.45 14.85
Q 9.35 14.8 9.25 14.7 -2.4 5.8 -2.65 5.8 -3.2 5.8 -12.1 21.7 -10.75 23.2 -7.3 26.15 -4.1 28.85 -3.35 29.25 -3 29.45 -2.6 29.7 -1.1 27.75 0.7 25.4 5.65 19 9.45 14.85 Z"/>
</g>

<g id="Duplicate_Items_Folder_cow_body_0_Layer0_0_FILL">
<path fill="#CC6600" stroke="none" d="
M 61.75 28.7
Q 52.1 24.15 41.4 26.15 37.85 26.85 34.5 28.4 11.5 45.95 5.45 88.35 5.1 90.6 4.75 92.8 5.9 104.35 13 113.8 18.2 120.6 26.35 121.8 34.45 123.15 40.75 117.65 42.6 115.7 43.8 113.1 46.85 104.7 46.3 95.55 45.6 88.5 47.7 77.15 49.1 69.3 53.9 65.1 59.1 60 64.7 55.95 68.05 53.35 69.35 49.45 72.6 39.55 66.4 32.25 64.4 29.9 61.75 28.7
M 59.95 76.6
Q 57.5 78.9 56.2 82.65 51.65 93 54.85 100.65 55.7 102.95 58.1 103.6 60.5 104.2 62.85 103.35 68 100.95 69.5 95.3 70.8 90 68.85 81.2 67.7 77.75 65.3 76.45 64.4 75.9 62.3 76.1 60.25 76.15 59.95 76.6 Z"/>

<path fill="#C2B6AC" stroke="none" d="
M 190.2 160.75
Q 209.4 139.55 212.35 111.15 194.3 130.35 168.25 139.2 150.95 145.15 130.65 148.45 110.15 151.6 91.8 151.45 50.3 151.1 21.55 128.75 12.1 121.3 4.2 111.95 6.25 137.15 21.85 158.6 33.6 174.9 49.7 182.35 53.9 184.3 58.85 185.8 66.15 187.95 74.45 188.65 105.95 191.05 137 188.2 168.8 184.75 190.2 160.75 Z"/>

<path fill="#F0E8E1" stroke="none" d="
M 212.35 111.15
Q 212.7 105.4 212.45 99.8 210.65 55.35 190.85 33.05 170.8 9.75 138.5 3 105.8 -4.05 74.65 7.05 52.3 14.75 34.5 28.4 37.85 26.85 41.4 26.15 52.1 24.15 61.75 28.7 64.4 29.9 66.4 32.25 72.6 39.55 69.35 49.45 68.05 53.35 64.7 55.95 59.1 60 53.9 65.1 49.1 69.3 47.7 77.15 45.6 88.5 46.3 95.55 46.85 104.7 43.8 113.1 42.6 115.7 40.75 117.65 34.45 123.15 26.35 121.8 18.2 120.6 13 113.8 5.9 104.35 4.75 92.8 3.3 102.3 4.2 111.95 12.1 121.3 21.55 128.75 50.3 151.1 91.8 151.45 110.15 151.6 130.65 148.45 150.95 145.15 168.25 139.2 194.3 130.35 212.35 111.15
M 56.2 82.65
Q 57.5 78.9 59.95 76.6 60.25 76.15 62.3 76.1 64.4 75.9 65.3 76.45 67.7 77.75 68.85 81.2 70.8 90 69.5 95.3 68 100.95 62.85 103.35 60.5 104.2 58.1 103.6 55.7 102.95 54.85 100.65 51.65 93 56.2 82.65 Z"/>

<path fill="#000000" stroke="none" d="
M 142.15 -4.45
Q 114.15 -10.5 109.95 -8.95 77 -6.45 48.35 8.2 20.1076171875 23.2736328125 9.7 45.8 -1.5 64.05 -4.5 90.1 -7.1533203125 110.3001953125 1.7 138.15 10.609765625 165.99921875 32.15 181.4 53.7369140625 196.8009765625 49.7 182.35 33.6 174.9 21.85 158.6 6.25 137.15 4.2 111.95 3.3 102.3 4.75 92.8 5.1 90.6 5.45 88.35 11.5 45.95 34.5 28.4 52.3 14.75 74.65 7.05 105.8 -4.05 138.5 3 170.8 9.75 190.85 33.05 210.65 55.35 212.45 99.8 212.7 105.4 212.35 111.15 209.4 139.55 190.2 160.75 168.8 184.75 137 188.2 105.95 191.05 74.45 188.65 66.15 187.95 58.85 185.8 80 192.9 102.7 193.2 135.15 193.65 164.55 184.65 193.25 175.65 206.5 151.55 220.5 127.2 220.9 109.8 220.85 95.8 214.55 65.35 207.65 41.5 191.7 21.9 182.7 9.6248046875 174.2 4.3 169.65 1.45 142.15 -4.45 Z"/>
</g>

<g id="Duplicate_Items_Folder_cow_head_0_Layer3_0_FILL">
<path fill="#000000" stroke="none" d="
M 70.5 153
Q 64.25 159.25 64.25 168.05 64.25 176.85 70.5 183.1 76.75 189.35 85.55 189.35 94.35 189.35 100.6 183.1 106.85 176.85 106.85 168.05 106.85 159.25 100.6 153 94.35 146.75 85.55 146.75 76.75 146.75 70.5 153
M 67.35 168.1
Q 67.35 160.6 72.7 155.25 78.05 149.95 85.55 149.95 93.05 149.95 98.4 155.25 101.95 158.85 103.15 163.45 103.2 163.6 103.25 163.85
L 103.7 167.8
Q 103.7 167.9 103.7 168 103.7 168.05 103.7 168.1 103.7 175.6 98.4 180.95 93.45 185.9 86.65 186.3 86.1 186.3 85.55 186.3 78.05 186.3 72.7 180.95 67.35 175.6 67.35 168.1
M 76.8 159.4
Q 73.15 163.05 73.15 168.15 73.15 173.25 76.8 176.9 80.45 180.55 85.55 180.55 89.25 180.55 92.15 178.65 93.3 177.9 94.3 176.9 95.1 176.1 95.7 175.25
L 97.45 171.7
Q 97.5 171.5 97.55 171.3 97.9 169.75 97.9 168.15 97.9 163.05 94.3 159.4 90.65 155.75 85.55 155.75 80.45 155.75 76.8 159.4
M 75.05 168.15
Q 75.05 163.8 78.15 160.75 81.2 157.7 85.55 157.7 89.85 157.7 92.9 160.75 95.95 163.8 95.95 168.15 95.95 172.45 92.9 175.5 89.85 178.6 85.55 178.6 81.2 178.6 78.15 175.5 75.05 172.45 75.05 168.15 Z"/>

<path fill="#FFFFFF" stroke="none" d="
M 103.7 168.1
Q 103.7 168.05 103.7 168 103.7 167.9 103.7 167.8
L 103.25 163.85
Q 103.2 163.6 103.15 163.45 101.15 166.15 98.85 169.35
L 97.6 171.15
Q 97.6 171.2 97.55 171.3 97.5 171.5 97.45 171.7
L 95.7 175.25
Q 95.1 176.1 94.3 176.9 93.3 177.9 92.15 178.65
L 86.65 186.3
Q 93.45 185.9 98.4 180.95 103.7 175.6 103.7 168.1 Z"/>

<path fill="#CC9900" stroke="none" d="
M 72.7 155.25
Q 67.35 160.6 67.35 168.1 67.35 175.6 72.7 180.95 78.05 186.3 85.55 186.3 86.1 186.3 86.65 186.3
L 92.15 178.65
Q 89.25 180.55 85.55 180.55 80.45 180.55 76.8 176.9 73.15 173.25 73.15 168.15 73.15 163.05 76.8 159.4 80.45 155.75 85.55 155.75 90.65 155.75 94.3 159.4 97.9 163.05 97.9 168.15 97.9 169.75 97.55 171.3 97.6 171.2 97.6 171.15
L 98.85 169.35
Q 101.15 166.15 103.15 163.45 101.95 158.85 98.4 155.25 93.05 149.95 85.55 149.95 78.05 149.95 72.7 155.25 Z"/>
</g>

<g id="Duplicate_Items_Folder_cow_head_0_Layer2_0_FILL">
<path fill="#000000" stroke="none" d="
M 91.25 -0.6
Q 78.45 -2.35 71.65 -2.5 63.25 -2.55 43.45 2 24.524609375 6.3490234375 17.45 9.75 12.1318359375 14.45 4.25 22.7 4.3228515625 22.9880859375 4.4 23.15 2.25 32.95 1.5 43.1 1.15 47.6 0.55 84 0 117.2 0 124.55 -0.1 133.65 3.2 142.35 6.89921875 152.0958984375 13.85 159.5 20.80234375 166.9123046875 64.6 167.55 65.4140625 167.5873046875 66.2 167.6 66.048046875 167.408984375 65.9 167.2 65.05 166 65.15 164.4 65.25 162.85 66.2 161.75 67 160.9 68.15 160.5 69.35 160.1 70.55 160.25 71.8 160.4 72.85 161.15 74.1 162.1 74.5 163.75 74.85 165.35 74.15 166.75 73.88359375 167.26875 73.5 167.65 87.8169921875 167.800390625 97.05 167.5 96.1890625 166.288671875 96.1 164.15 96.1 161.85 97.15 160.55 98.45 158.9 100.65 159 102.7 159.1 104.15 160.55 105.05 161.45 105.45 162.6 105.85 163.8 105.6 164.95 105.4 165.9 104.7 166.95 104.61015625 167.06484375 104.5 167.15 111.57890625 166.6921875 113.4 165.8 117.6 163.8 126.15 158.5 136.55 152.05 137.65 149.8 143.6 145.25 146.7 133.5 149.55 121.45 148.8 106.95 148.45 100.75 143.35 68.5 138.95 40.5 137.5 32.85 136.8201171875 29.5970703125 135.4 26.05 135.3765625 19.56953125 122.7 10 110.0734375 0.48046875 105.6 1.4 97.85 0.25 91.25 -0.6
M 126.45 32.65
Q 129.2 39.15 130.75 46.2 131.3 49.35 131.8 52.65 133.1 62.45 134.35 72.25 135.25 79.5 136.35 87.5 137.2 94 138 101.65 138.1 103.1 138.2 104.5 138.9 115.65 137.6 127.2 135.8 140.75 127.8 148.65 120.25 155.5 109.1 156.55 97.95 157.55 86.55 157.3 75.8 156.95 66.25 157.55 56.15 158.05 46.25 158.1 36.2 158.05 26.35 156.55 21.5 155.8 17.45 153 8.5 146.55 5.75 135.85 5.15 131 4.7 126.35 3.55 116.8 3.55 107.05 3.45 97.4 3.55 87.95 3.55 79.1 3.7 70.2 3.75 62.15 3.95 54.1 4.05 43.95 7.1 34.2 10.2 23.6 19.25 16.95 19.55 16.75 19.8 16.55 27.75 10.5 37.5 8.25 47.75 5.85 58.35 5.8 67.9 6.35 77.6 7.1 85.35 7.75 93.45 8.75 102.95 9.9 111.25 15 111.95 15.45 112.65 15.9 122.05 22.1 126.45 32.65 Z"/>

<path fill="#C2B6AC" stroke="none" d="
M 9.45 49.35
Q 10.7 37.35 12.95 30.3 15.3 22.35 19.8 16.55 19.55 16.75 19.25 16.95 10.2 23.6 7.1 34.2 4.05 43.95 3.95 54.1 3.75 62.15 3.7 70.2 3.55 79.1 3.55 87.95 3.45 97.4 3.55 107.05 3.55 116.8 4.7 126.35 5.15 131 5.75 135.85 8.5 146.55 17.45 153 21.5 155.8 26.35 156.55 36.2 158.05 46.25 158.1 56.15 158.05 66.25 157.55 75.8 156.95 86.55 157.3 97.95 157.55 109.1 156.55 120.25 155.5 127.8 148.65 135.8 140.75 137.6 127.2 138.9 115.65 138.2 104.5 138.1 103.1 138 101.65 137.85 107.05 137.65 111.2 136.75 127.65 131 135.65 124.85 143.65 110.9 144.05 97.1 143.7 73.85 140.55 51.7 139.15 38.3 136.35 25.2 133.3 18.3 126.25 11.9 119.85 9.5 108.6 7.4 99.5 7.5 83.15 7.45 81.15 8.4 66.15 9.25 52.05 9.45 49.35 Z"/>

<path fill="#F0E8E1" stroke="none" d="
M 130.75 46.2
Q 129.45 46.75 127.55 46.65 123.05 46.5 120.15 42.9 117.5 39.45 117.65 35.75 110.6 34.4 108.15 33.25 103.3 30.6 103.4 25.15 103.4 22 105.8 18.85 108.05 15.85 111.25 15 102.95 9.9 93.45 8.75 85.35 7.75 77.6 7.1 67.9 6.35 58.35 5.8 47.75 5.85 37.5 8.25 27.75 10.5 19.8 16.55 15.3 22.35 12.95 30.3 10.7 37.35 9.45 49.35 9.25 52.05 8.4 66.15 7.45 81.15 7.5 83.15 7.4 99.5 9.5 108.6 11.9 119.85 18.3 126.25 25.2 133.3 38.3 136.35 51.7 139.15 73.85 140.55 97.1 143.7 110.9 144.05 124.85 143.65 131 135.65 136.75 127.65 137.65 111.2 137.85 107.05 138 101.65 137.2 94 136.35 87.5 135.25 79.5 134.35 72.25 133.1 62.45 131.8 52.65 131.3 49.35 130.75 46.2 Z"/>

<path fill="#CC6600" stroke="none" d="
M 130.75 46.2
Q 129.2 39.15 126.45 32.65 122.05 22.1 112.65 15.9 111.95 15.45 111.25 15 108.05 15.85 105.8 18.85 103.4 22 103.4 25.15 103.3 30.6 108.15 33.25 110.6 34.4 117.65 35.75 117.5 39.45 120.15 42.9 123.05 46.5 127.55 46.65 129.45 46.75 130.75 46.2 Z"/>
</g>

<g id="Symbol_22_0_Layer0_0_FILL">
<path fill="#000000" stroke="none" d="
M 29.55 23.75
Q 29.15 11.5 23.25 6.45 16.3 0.45 15.6 0.05 14.85 -0.4 7.15 5.95 -0.55 12.25 0.05 17.65 0.55 23.05 7.85 29.45 20.65 32.35 29.55 23.75
M 22.3 15.25
Q 25.95 22.35 24.35 23.95 23.05 25.2 20.3 26.15 16.9 27.25 13.15 26.85 9.1 26.45 6.9 24.65 4.35 22.65 4.85 19.75 5.2 18.2 9.1 13.2 13.45 7.55 16.55 5.95 19.3 9.1 22.3 15.25 Z"/>

<path fill="#0099FF" stroke="none" d="
M 24.35 23.95
Q 25.95 22.35 22.3 15.25 19.3 9.1 16.55 5.95 13.45 7.55 9.1 13.2 5.2 18.2 4.85 19.75 4.35 22.65 6.9 24.65 9.1 26.45 13.15 26.85 16.9 27.25 20.3 26.15 23.05 25.2 24.35 23.95 Z"/>
</g>

<g id="Duplicate_Items_Folder_cow_head_0_Layer0_0_FILL">
<path fill="#000000" stroke="none" d="
M 72.8 135.95
Q 73.75 135.8 76.25 134.55 78.65 133.4 79.3 132.85 81.25 131.3 82.25 130.25 83.6361328125 128.771484375 84.2 127.25 86.51953125 127.25 88.8 127.25 89 127.75 90.8 128.8 92.65 129.85 93.65 129.95 96.45 130.35 98.05 130 100.6 129.45 101.55 127.45 101.5927734375 127.350390625 101.6 127.25 103.65 127.25 118.6 126.2 133.45 125.1 133.5 125 133.5 124.75 133.5 124.5 133.45 124.35 18.95 124.85 19.1 124.95 42.3 126 53.95 126.5 66.25 127.05
L 66.25 127.1
Q 66.15 127.75 68 129.55 69.85 131.4 70.95 131.65 73.7 132.25 76.25 131.85 74 132.7 71.6 133.65 66.85 135.5 66.9 135.75 69 136.75 72.8 135.95
M 66.25 115.8
L 70.95 116.45
Q 72.8 116.5 85.9 116.5 99 116.5 99.4 116.45 99.75 116.4 105.2 116.2 111 116 113.6 115.95 113.7 115.9 113.75 115.8 113.75 115.65 113.75 115.5 109.8 115.35 97 115 82.55 114.65 78.2 114.65 78.2 114.75 78.2 114.85 76.6 114.85 71.35 115.15 66.3 115.45 66.25 115.5 66.25 115.65 66.25 115.8 Z"/>
</g>
</defs>

<g transform="matrix( 1.0804443359375, 0, 0, 1.0804443359375, 329.7,85.2) ">
<g transform="matrix( 1, 0, 0, 1, 49.9,-35.6) ">
<g transform="matrix( 1, 0, 0, 1, 23.45,198.85) ">
<g transform="matrix( -0.9986114501953125, 0.0520172119140625, 0.0520172119140625, 0.9986114501953125, 108.7,48.05) ">
<g transform="matrix( 1, 0, 0, 1, 0,0) ">
<use xlink:href="#Duplicate_Items_Folder_Symbol_1_copy_2_0_Layer0_0_FILL"/>
</g>
</g>

<g transform="matrix( -0.9839630126953125, -0.178131103515625, -0.178131103515625, 0.9839630126953125, 69.05,58.05) ">
<g transform="matrix( 1, 0, 0, 1, 0,0) ">
<use xlink:href="#Duplicate_Items_Folder_Symbol_1_copy_2_0_Layer0_0_FILL"/>
</g>
</g>

<g transform="matrix( -0.957916259765625, 0.286956787109375, 0.286956787109375, 0.957916259765625, 131.75,51.9) ">
<g transform="matrix( 1, 0, 0, 1, 0,0) ">
<use xlink:href="#Duplicate_Items_Folder_Symbol_1_copy_2_0_Layer0_0_FILL"/>
</g>
</g>

<g transform="matrix( 1, 0, 0, 1, 20.3,-36.15) ">
<g transform="matrix( 1, 0, 0, 1, 0,0) ">
<use xlink:href="#Duplicate_Items_Folder_Symbol_2_copy_0_Layer0_0_FILL"/>
</g>
</g>

<g transform="matrix( 0.99993896484375, 0.00921630859375, -0.00921630859375, 0.99993896484375, 58.95,65.7) ">
<g transform="matrix( 1, 0, 0, 1, 0,0) ">
<use xlink:href="#Duplicate_Items_Folder_Symbol_1_copy_2_0_Layer0_0_FILL"/>
</g>
</g>
</g>

<g transform="matrix( -0.1435546875, -0.989532470703125, 2.179931640625, -0.3162384033203125, 223.4,167.95) ">
<g transform="matrix( 1, 0, 0, 1, 0,0) ">
<use xlink:href="#Duplicate_Items_Folder_cow_leg_0_Layer0_0_FILL"/>
</g>
</g>

<g transform="matrix( 0.729278564453125, 0.684173583984375, -0.684173583984375, 0.729278564453125, 27.3,185.95) ">
<g transform="matrix( 1, 0, 0, 1, 0,0) ">
<use xlink:href="#Duplicate_Items_Folder_cow_leg_1_Layer0_0_FILL"/>
</g>
</g>

<g transform="matrix( 0.9965972900390625, 0.082275390625, -0.082275390625, 0.9965972900390625, 19.9,41.3) ">
<g transform="matrix( 1, 0, 0, 1, 0,0) ">
<use xlink:href="#Duplicate_Items_Folder_cow_body_0_Layer0_0_FILL"/>
</g>
</g>

<g transform="matrix( 0.78570556640625, 0.6185760498046875, -0.6185760498046875, 0.78570556640625, 43.25,207.25) ">
<g transform="matrix( 1, 0, 0, 1, 0,0) ">
<use xlink:href="#Duplicate_Items_Folder_cow_leg_0_Layer0_0_FILL"/>
</g>
</g>

<g transform="matrix( 0.9965972900390625, 0.082275390625, -0.082275390625, 0.9965972900390625, 108.2,-1.25) "/>

<g transform="matrix( 0.993072509765625, 0.117401123046875, -0.117401123046875, 0.993072509765625, 102.6,62.1) ">
<g transform="matrix( 1, 0, 0, 1, 0,0) ">
<use xlink:href="#Duplicate_Items_Folder_cow_head_0_Layer3_0_FILL"/>
</g>

<g transform="matrix( 1, 0, 0, 1, 0,0) ">
<use xlink:href="#Duplicate_Items_Folder_cow_head_0_Layer2_0_FILL"/>
</g>

<g transform="matrix( 0.866485595703125, 0.4991912841796875, -0.4991912841796875, 0.866485595703125, 114.05,-4.95) ">
<g transform="matrix( 1, 0, 0, 1, 0,0) ">
<use xlink:href="#Symbol_22_0_Layer0_0_FILL"/>
</g>
</g>

<g transform="matrix( 0.8830413818359375, -0.4691925048828125, 0.4691925048828125, 0.8830413818359375, 4.45,8.4) ">
<g transform="matrix( 1, 0, 0, 1, 0,0) ">
<use xlink:href="#Symbol_22_0_Layer0_0_FILL"/>
</g>
</g>

<g transform="matrix( 1, 0, 0, 1, 0,0) ">
<use xlink:href="#Duplicate_Items_Folder_cow_head_0_Layer0_0_FILL"/>
</g>
</g>
</g>
</g>
</svg>
