
<svg xmlns="http://www.w3.org/2000/svg" version="1.1" xmlns:xlink="http://www.w3.org/1999/xlink" preserveAspectRatio="none" x="0px" y="0px" width="1000px" height="1000px" viewBox="0 0 1000 1000">
<defs>
<g id="stumper_legs_0_Layer0_0_FILL">
<path fill="#000000" stroke="none" d="
M 58.25 40.55
Q 73.59765625 36.2076171875 75.35 26.15 60.4 2.85 35.25 1.15 12.710546875 2.3103515625 1.05 33.15 -10.565234375 64.0017578125 14.35 73.55 42.9421875 44.93203125 58.25 40.55
M 54.9 33.75
Q 52.5 34.4 44.7 37.3 37.4 40.05 37.3 40.15 36.1 40.7 35 41.25
L 12 65.6
Q 8.55 60.150390625 8.6 48.8 8.650390625 37.5 11.75 33.9 11.5 32.9 12.9 28.45 14.3 23.9 16.8 20.95 17.5 18.85 26.4 12.55 35.3 6.15 43.6 8.25 43.9 8.2 47.1 9.45 51.2 11.05 55.2 13.15 67.7 19.65 73.8 28 75.65 28.45 54.9 33.75 Z"/>

<path fill="#66CC66" stroke="none" d="
M 12.9 28.45
Q 11.5 32.9 11.75 33.9 11.8 33.75 23.4 37.45 29.2 39.35 35 41.25 36.1 40.7 37.3 40.15 38 35.4 36.2 30.9 30.1 15.15 16.8 20.95 14.3 23.9 12.9 28.45
M 43.6 8.25
Q 55.75 15.8 54.9 33.75 75.65 28.45 73.8 28 67.7 19.65 55.2 13.15 51.2 11.05 47.1 9.45 43.9 8.2 43.6 8.25 Z"/>

<path fill="#3D8E3D" stroke="none" d="
M 11.75 33.9
Q 8.650390625 37.5 8.6 48.8 8.55 60.150390625 12 65.6
L 35 41.25
Q 29.2 39.35 23.4 37.45 11.8 33.75 11.75 33.9
M 54.9 33.75
Q 55.75 15.8 43.6 8.25 35.3 6.15 26.4 12.55 17.5 18.85 16.8 20.95 30.1 15.15 36.2 30.9 38 35.4 37.3 40.15 37.4 40.05 44.7 37.3 52.5 34.4 54.9 33.75 Z"/>
</g>

<g id="stumper_legs_1_Layer0_0_FILL">
<path fill="#000000" stroke="none" d="
M 41.2 5.2
Q 35.151171875 16.117578125 33.85 30.35 32.5380859375 44.6294921875 52.4 62.8 72.5033203125 39.55078125 79.55 30.05 86.5966796875 20.600390625 86.35 8.75 86.153515625 -3.05 65.6 -8.75 47.303515625 -5.716015625 41.2 5.2
M 42.3 13.35
Q 44.02734375 5.629296875 45.9 5.1 51.6677734375 -3.5986328125 65 -4.9 73.55 -4.6 79.25 1.4 90.528125 13.3240234375 79.5 23.95 69.5587890625 33.6763671875 64.25 39.2
L 63.1 40.45
Q 63 40.55 57.25 46.4 56.8 46.85 54.8 48.7 52.4 50.9 52.35 50.8
L 47.5 43.6
Q 47.448828125 43.514453125 47.4 43.4
L 43.4 34.6
Q 42.1916015625 30.7869140625 41.75 26.8 41.766796875 26.72109375 41.15 23.9 40.576171875 21.1234375 42.3 13.35 Z"/>

<path fill="#66CC66" stroke="none" d="
M 57.25 46.4
Q 56.612890625 45.1259765625 52.6 43.65 48.1 42 47.5 43.6
L 52.35 50.8
Q 52.4 50.9 54.8 48.7 56.8 46.85 57.25 46.4
M 50.7 21.55
Q 47.25 19.75 46.3 20.75 43.3703125 23.7912109375 41.75 26.8 42.1916015625 30.7869140625 43.4 34.6 46.28671875 32.503125 50.7 30.6 57.25 31.3 61.05 36.8 62.0619140625 38.23984375 63.1 40.45
L 64.25 39.2
Q 65.056640625 33.5595703125 57.6 26.6 54.15 23.35 50.7 21.55
M 80.05 23.35
Q 79.7953125 23.669921875 79.5 23.95 90.528125 13.3240234375 79.25 1.4 73.55 -4.6 65 -4.9 51.6677734375 -3.5986328125 45.9 5.1 48.969140625 3.5990234375 52.55 2.3 72.3662109375 5.1712890625 80.05 23.35 Z"/>

<path fill="#3D8E3D" stroke="none" d="
M 50.7 30.6
Q 46.28671875 32.503125 43.4 34.6
L 47.4 43.4
Q 47.448828125 43.514453125 47.5 43.6 48.1 42 52.6 43.65 56.612890625 45.1259765625 57.25 46.4 63 40.55 63.1 40.45 62.0619140625 38.23984375 61.05 36.8 57.25 31.3 50.7 30.6
M 79.5 23.95
Q 79.7953125 23.669921875 80.05 23.35 72.3662109375 5.1712890625 52.55 2.3 48.969140625 3.5990234375 45.9 5.1 44.02734375 5.629296875 42.3 13.35 40.576171875 21.1234375 41.15 23.9 41.766796875 26.72109375 41.75 26.8 43.3703125 23.7912109375 46.3 20.75 47.25 19.75 50.7 21.55 54.15 23.35 57.6 26.6 65.056640625 33.5595703125 64.25 39.2 69.5587890625 33.6763671875 79.5 23.95 Z"/>
</g>

<g id="stumper_leaves_0_Layer0_0_FILL">
<path fill="#000000" stroke="none" d="
M 116.4 46.1
Q 116.803515625 30.87109375 110 17.5 103.9083984375 5.4732421875 92 -5.05 75.5357421875 3.3994140625 68 20.75 63.5 31.2 59.3 42.45 47.6458984375 22.055078125 33.75 25.5 31 27.55 24.8 38.1 19.6 46.95 18.45 49.7 10.63984375 68.41328125 14.85 87.5 19.0654296875 106.637890625 25 112.15 15.5638671875 106.3912109375 0.1 105.45 -2.4453125 109.823828125 6.35 137.55 15.1583984375 165.3279296875 37.95 172.5 53.2 177.25 71.2 178.75 83.65 169.15 87.6 166.05 105.05 151.6 109.6 143.65 118.8 127.55 131.9 84.2 137.22265625 57.6869140625 131.3 54.5 130.35 54.05 124.1 56.85 117.05 60 114.95 63.55 115.3 61.8 115.85 55 116.35 48.65 116.4 46.1
M 91.55 9.5
Q 91.6015625 9.5484375 91.65 9.6 98.9203125 16.5107421875 102.25 30.95 102.38671875 31.463671875 102.5 31.95 103.05 34.5 104.15 42.4 105.0505859375 50.234375 105.05 58.3
L 105.05 58.3
Q 105.0728515625 63.1189453125 104.75 68 104.40625 74.22265625 103.5 80.55
L 100.65 96.75
Q 101.7 94.3 106.5 86.5 110.65 79.75 111.5 78.55 111.6 78.35 116.35 73.5 121.35 68.4 122.85 67.25
L 127.25 64.35
Q 125.32734375 74.330859375 123.45 82.75 123.0826171875 84.53203125 122.7 86.25 121.5 91.25 118.55 102.75 116.482421875 110.21953125 114.5 115.5 112.15 121.8 105.05 134.6 101.5 141 98.35 146.2 96.6556640625 148.7662109375 94.8 151.3 90.25 157.55 72.85 177.1
L 44.6 163.65
Q 44.3 163.5 35.45 157.3 31.5177734375 153.9740234375 27.9 149.75 27.45 149.2 24.35 145 21.15 140.6 20.25 139.25 20.0537109375 138.9 19.8 138.5
L 19.85 138.5
Q 12.1287109375 124.162109375 9.35 116.85 10.8 117.2 16.25 119.3 22.15 121.6 24.6 122.85
L 48.85 134.9
Q 43.2298828125 128.178125 39 120.9 33.3890625 111.1166015625 30.3 100.3 29.6103515625 97.9259765625 29.05 95.45 27.2642578125 87.71796875 26.75 79.45 26.2990234375 72.130078125 27.1 65.6 27.7388671875 60.5107421875 29.15 55.9 31.9359375 46.8568359375 37.7 39.75 38.9609375 38.094921875 40.45 38.2 41.8076171875 38.333984375 43.35 39.9 48.75 45.3 58.15 59.3 58.35 59.55 61.65 66.9 65.35 75 66.35 78.1
L 70.8 92.05
Q 72.9240234375 98.676953125 74.9 105 75 104.85 74.35 95.9 73.7 86.95 73.4 84.6 71.4951171875 68.0232421875 67.65 58.75
L 67.65 58.7
Q 67.55 58.4 72.7 42.25 77.9 25.9 78.7 24 83.191796875 14.651953125 90.5 8.55 91.038671875 9.0005859375 91.55 9.5 Z"/>

<path fill="#3D8E3D" stroke="none" d="
M 29.05 95.45
Q 44.5451171875 80.0044921875 27.1 65.6 26.2990234375 72.130078125 26.75 79.45 27.2642578125 87.71796875 29.05 95.45
M 100 41.5
Q 97 41.15 96.25 41.55 71.45 55.4 77.5 82.7 75.1138671875 83.2837890625 73.4 84.6 73.7 86.95 74.35 95.9 75 104.85 74.9 105 72.9240234375 98.676953125 70.8 92.05
L 66.35 78.1
Q 65.35 75 61.65 66.9 58.35 59.55 58.15 59.3 57.4458984375 59.68359375 56.6 60.25 35.4 74.3 53.85 91.5 51.6 93.3 50.55 95.8 41.7 117.1 63.3 118.6 61.15 120.55 60.5 123.25 59.65 126.7 62.75 133.1 65.25 138.25 66.65 139.45 62.6123046875 144.185546875 61.7 151.55 50.55 149.55 41.8 155.15 41.7 149.95 39.2 145.55 36.55 140.95 27.95 139.3 20.4546875 138.6017578125 19.85 138.5
L 19.8 138.5
Q 20.0537109375 138.9 20.25 139.25 21.15 140.6 24.35 145 27.45 149.2 27.9 149.75 31.5177734375 153.9740234375 35.45 157.3 44.3 163.5 44.6 163.65
L 72.85 177.1
Q 90.25 157.55 94.8 151.3 96.6556640625 148.7662109375 98.35 146.2 101.5 141 105.05 134.6 112.15 121.8 114.5 115.5 116.482421875 110.21953125 118.55 102.75 117.85 103.2 116.15 103.3 113.95 103.4 113.25 102.3 105.75 90.75 119.25 83.85 121.2328125 85.04453125 122.7 86.25 123.0826171875 84.53203125 123.45 82.75 125.32734375 74.330859375 127.25 64.35
L 122.85 67.25
Q 124.499609375 75.6755859375 111.5 78.55 110.65 79.75 106.5 86.5 101.7 94.3 100.65 96.75
L 103.5 80.55
Q 104.40625 74.22265625 104.75 68 105.0728515625 63.1189453125 105.05 58.3
L 105.05 58.3
Q 105.0505859375 50.234375 104.15 42.4 103 41.8 100 41.5
M 91.65 9.6
Q 90.018359375 10.88515625 89.05 13.05 84 24.3 94.9 29.1 99.6341796875 31.20703125 102.5 31.95 102.38671875 31.463671875 102.25 30.95 98.9203125 16.5107421875 91.65 9.6 Z"/>

<path fill="#66CC66" stroke="none" d="
M 40.45 38.2
Q 38.9609375 38.094921875 37.7 39.75 31.9359375 46.8568359375 29.15 55.9 27.7388671875 60.5107421875 27.1 65.6 44.5451171875 80.0044921875 29.05 95.45 29.6103515625 97.9259765625 30.3 100.3 33.3890625 111.1166015625 39 120.9 43.2298828125 128.178125 48.85 134.9
L 24.6 122.85
Q 22.15 121.6 16.25 119.3 10.8 117.2 9.35 116.85 12.1287109375 124.162109375 19.85 138.5 20.4546875 138.6017578125 27.95 139.3 36.55 140.95 39.2 145.55 41.7 149.95 41.8 155.15 50.55 149.55 61.7 151.55 62.6123046875 144.185546875 66.65 139.45 65.25 138.25 62.75 133.1 59.65 126.7 60.5 123.25 61.15 120.55 63.3 118.6 41.7 117.1 50.55 95.8 51.6 93.3 53.85 91.5 35.4 74.3 56.6 60.25 57.4458984375 59.68359375 58.15 59.3 48.75 45.3 43.35 39.9 41.8076171875 38.333984375 40.45 38.2
M 122.7 86.25
Q 121.2328125 85.04453125 119.25 83.85 105.75 90.75 113.25 102.3 113.95 103.4 116.15 103.3 117.85 103.2 118.55 102.75 121.5 91.25 122.7 86.25
M 116.35 73.5
Q 111.6 78.35 111.5 78.55 124.499609375 75.6755859375 122.85 67.25 121.35 68.4 116.35 73.5
M 89.05 13.05
Q 90.018359375 10.88515625 91.65 9.6 91.6015625 9.5484375 91.55 9.5 91.038671875 9.0005859375 90.5 8.55 83.191796875 14.651953125 78.7 24 77.9 25.9 72.7 42.25 67.55 58.4 67.65 58.7
L 67.65 58.75
Q 71.4951171875 68.0232421875 73.4 84.6 75.1138671875 83.2837890625 77.5 82.7 71.45 55.4 96.25 41.55 97 41.15 100 41.5 103 41.8 104.15 42.4 103.05 34.5 102.5 31.95 99.6341796875 31.20703125 94.9 29.1 84 24.3 89.05 13.05 Z"/>
</g>

<g id="stumper_stump_2_Layer1_0_FILL">
<path fill="#000000" stroke="none" d="
M 144.35 27
Q 140.7826171875 20.81640625 133.1 14.85 123.522265625 7.37421875 107.55 0.25 104.5732421875 -1.047265625 101.6 -2 75.830859375 -9.9013671875 49.95 12.45 21.1279296875 37.4318359375 14 56.55 6.9392578125 64.03203125 0.25 74.7 -6.4392578125 85.41796875 4.15 91.2
L 10.65 93.2
Q 11.9109375 109.70859375 21.55 119.05 31.1873046875 128.44296875 34.25 131.9 37.311328125 135.4009765625 40.9 133.65 44.492578125 131.9544921875 44.75 131.9 45.0515625 131.89765625 45.65 133.3 46.3046875 134.69375 47 137.4 47.6826171875 140.163671875 54.9 141.45 62.17109375 142.7986328125 74 144.1 85.8345703125 145.4435546875 86.75 142 87.704296875 138.603125 88.75 140 89.95 141.4 90.2 141.55 111.455078125 147.110546875 123.95 135.15 136.451171875 123.18515625 149.7 104.95 162.99140625 86.7142578125 161.55 69 161.4482421875 67.4427734375 161.3 65.95 159.8138671875 50.87890625 156.3 46.15 152.45390625 40.9994140625 144.35 27
M 126 21.6
Q 132.3376953125 27.0685546875 137.15 34.05 149.75 57.25 149.85 57.25 152.203515625 68.1759765625 150.1 79.25 149.45 82.85 144.6 93.8 139.7 104.85 137.05 108.65 128.26796875 121.171875 115.95 129.45 114.4 130.5 92.1 138.85
L 90.75 133.8
Q 90.05 134.8 82.95 137.5 74.3 140.7 69.1 139.25 64.3 137.95 55.85 134.65 48.15 131.65 48.1 131.5 48.1 131.3 47.65 129.35 47.25 127.3 47.05 127.35 46.7 127.3 45 128.1 43.05 128.95 43 129 26.2166015625 116.181640625 21.25 99.75 19.5 94.05 20.7 79.75 21.65 68.4 22.45 65.5 30.6568359375 38.2802734375 52.1 20.1 53.35 19.15 56.45 16.9 61.05 13.55 63.25 12.3 77.688671875 4.262109375 93.05 6.25 102.1484375 7.4095703125 111.55 12.05 119.551171875 16.01640625 126 21.6
M 19.2 62.65
Q 18.35 64.8 16.8 72.1 14.95 80.65 14.9 84.15 13.55 83.5 9.8 83.4 6.15 83.5 5.95 83.5 5.8 71.2 19.2 62.65
M 83.45 40.95
Q 85.15 41.45 90.8 43.75 97.3 46.35 99.55 47.65 102.05 49.2 107.8 54.6 113.55 60 114.9 62.1 123.60546875 75.2240234375 123.75 95.15
L 123.75 95.2
Q 123.7748046875 101.237890625 121.9 106.35 121.559375 107.387890625 121.1 108.35 119.308203125 112.40703125 116.25 115.85 115.0265625 117.1802734375 113.75 118.35 112.4263671875 119.619921875 111.05 120.7 107.6775390625 123.4181640625 103.95 125.25 101.7833984375 126.339453125 99.45 127.1 95.9017578125 128.351171875 92.05 128.85 91.9189453125 128.7873046875 91.6 128.7 90.8439453125 128.47890625 89 128.1 59.65 122.55 56.3 121.2 55.7419921875 120.9759765625 55.3 120.75 54.91015625 120.5509765625 54.5 120.35 29.6142578125 107.2427734375 27.3 80.85 25.9 65.15 35.3 51.9 39.66953125 45.6248046875 45.05 41 53.714453125 33.6751953125 65 30.6 65.2 31.4 70.35 34.5 76.55 37.7 80.95 35.5 83.45 41.05 83.45 40.95 84.45 39.55 81.2 30.65 76.9970703125 36.5166015625 70.05 33 69.8 32.85 68.45 29.65 67 26.4 66.9 26.3 58.9171875 28.4908203125 51.45 32.4 46.4875 34.991796875 41.75 38.35 37.3 41.5 29.9 54.9 23.15 67.1 23 69.45 23.016796875 72.9212890625 23.3 79.15 24.05 93 26.8 98.25 38.05 120.05 59.5 128.05 75.2291015625 136.1728515625 90.45 132.75 90.85 132.7 100.05 130.4 109.75 127.7 113.15 125.35 121.2755859375 119.7984375 125 109.9 125.9966796875 107.256640625 126.65 102.25 127.53828125 95.7400390625 127.85 85.2 126.9703125 68.3392578125 115.8 56.7 111.55 52.65 109.3 50.85 106 48.2681640625 102.45 46.35 95.8921875 42.768359375 88.6 41.5 86.075390625 41.0970703125 83.45 40.95 Z"/>

<path fill="#835324" stroke="none" d="
M 16.8 72.1
Q 18.35 64.8 19.2 62.65 5.8 71.2 5.95 83.5 6.15 83.5 9.8 83.4 13.55 83.5 14.9 84.15 14.95 80.65 16.8 72.1
M 111.75 42.15
L 102.45 46.35
Q 106 48.2681640625 109.3 50.85
L 111.75 42.15
M 88.2 10.95
L 81.55 10.95 74.95 19.4 77.65 24.1 70.05 33
Q 76.9970703125 36.5166015625 81.2 30.65 84.45 39.55 83.45 40.95 86.075390625 41.0970703125 88.6 41.5
L 99.5 29.9 109.45 29.9 113.8 24.9
Q 120.74609375 24.484375 126 21.6 119.551171875 16.01640625 111.55 12.05 102.1484375 7.4095703125 93.05 6.25
L 88.2 10.95
M 131.5 40.45
L 131.5 35.1 118.35 41.95 115.8 56.7
Q 126.9703125 68.3392578125 127.85 85.2 127.53828125 95.7400390625 126.65 102.25
L 133.85 94.3 136.2 97.85 144.35 89.35 144.35 86.35 150.1 79.25
Q 152.203515625 68.1759765625 149.85 57.25 149.75 57.25 137.15 34.05
L 131.5 40.45 Z"/>

<path fill="#412A13" stroke="none" d="
M 89 128.1
Q 90.8439453125 128.47890625 91.6 128.7 96.118359375 123.876171875 99.15 119.35 93.2880859375 122.83046875 89 128.1
M 44.1 91.8
Q 42.6 93.55 43 96.55 43.4 99.4 41.8 100.75 39.0001953125 103.0728515625 36.35 105.45 37.974609375 107.573828125 39.85 109.5 44.3970703125 101.5568359375 44.1 91.8
M 90.8 43.75
Q 85.15 41.45 83.45 40.95 83.45 41.05 80.95 35.5 76.55 37.7 70.35 34.5 65.2 31.4 65 30.6 55.3 34.1 51.7 36.25 47.1396484375 44.7767578125 46.3 55.4 38.1447265625 61.84453125 31.1 69.3 31.4 69.45 31.55 69.35 35.35 66.9 40.7 64.9 46.15 62.9 46.2 64 46.6951171875 73.6767578125 49.9 81.55 46.9466796875 83.786328125 44.1 86.15 41.6 82.55 38.4 80.95 38.05 81.15 36.15 83.8 34.2 86.55 33.35 88.15 33.6 88.05 33.7 87.9 34.5 86.5 38.85 87.25 40.8 87.6 45.45 88.9
L 51.4 84.85
Q 58.188671875 98.3712890625 73.7 106.05 68.0818359375 110.1658203125 60.3 108.95 60 109.25 57.85 113.55 55.6 117.95 54.5 120.35 54.91015625 120.5509765625 55.3 120.75 55.7419921875 120.9759765625 56.3 121.2 59.49765625 116.535546875 62.3 111.55 65.45 113.9 71.75 111.5 76.7 109.6 78 108 77.95 107.95 88.45 110.55 100.15 112.95 105.7 112.1 101.487109375 119.0396484375 99.45 127.1 101.7833984375 126.339453125 103.95 125.25 107.6775390625 123.4181640625 111.05 120.7 112.4263671875 119.619921875 113.75 118.35 114.2921875 116.82265625 114.85 115.25 115.994921875 112.0216796875 117.15 108.8 119.57578125 107.7306640625 121.9 106.35 123.7748046875 101.237890625 123.75 95.2
L 123.75 95.15
Q 123.60546875 75.2240234375 114.9 62.1 113.55 60 107.8 54.6 102.05 49.2 99.55 47.65 97.3 46.35 90.8 43.75 Z"/>

<path fill="#2C1A08" stroke="none" d="
M 113.75 118.35
Q 115.0265625 117.1802734375 116.25 115.85 119.308203125 112.40703125 121.1 108.35 121.559375 107.387890625 121.9 106.35 119.57578125 107.7306640625 117.15 108.8 115.994921875 112.0216796875 114.85 115.25 114.2921875 116.82265625 113.75 118.35
M 71.75 111.5
Q 65.45 113.9 62.3 111.55 59.49765625 116.535546875 56.3 121.2 59.65 122.55 89 128.1 93.2880859375 122.83046875 99.15 119.35 96.118359375 123.876171875 91.6 128.7 91.9189453125 128.7873046875 92.05 128.85 95.9017578125 128.351171875 99.45 127.1 101.487109375 119.0396484375 105.7 112.1 100.15 112.95 88.45 110.55 77.95 107.95 78 108 76.7 109.6 71.75 111.5
M 65 30.6
Q 53.714453125 33.6751953125 45.05 41 39.66953125 45.6248046875 35.3 51.9 25.9 65.15 27.3 80.85 29.6142578125 107.2427734375 54.5 120.35 55.6 117.95 57.85 113.55 60 109.25 60.3 108.95 68.0818359375 110.1658203125 73.7 106.05 58.188671875 98.3712890625 51.4 84.85
L 45.45 88.9
Q 40.8 87.6 38.85 87.25 34.5 86.5 33.7 87.9 33.6 88.05 33.35 88.15 34.2 86.55 36.15 83.8 38.05 81.15 38.4 80.95 41.6 82.55 44.1 86.15 46.9466796875 83.786328125 49.9 81.55 46.6951171875 73.6767578125 46.2 64 46.15 62.9 40.7 64.9 35.35 66.9 31.55 69.35 31.4 69.45 31.1 69.3 38.1447265625 61.84453125 46.3 55.4 47.1396484375 44.7767578125 51.7 36.25 55.3 34.1 65 30.6
M 43 96.55
Q 42.6 93.55 44.1 91.8 44.3970703125 101.5568359375 39.85 109.5 37.974609375 107.573828125 36.35 105.45 39.0001953125 103.0728515625 41.8 100.75 43.4 99.4 43 96.55 Z"/>

<path fill="#5F3B18" stroke="none" d="
M 144.6 93.8
Q 149.45 82.85 150.1 79.25
L 144.35 86.35 144.35 89.35 136.2 97.85 133.85 94.3 126.65 102.25
Q 125.9966796875 107.256640625 125 109.9 121.2755859375 119.7984375 113.15 125.35 109.75 127.7 100.05 130.4 90.85 132.7 90.45 132.75 75.2291015625 136.1728515625 59.5 128.05 38.05 120.05 26.8 98.25 24.05 93 23.3 79.15 23.016796875 72.9212890625 23 69.45 23.15 67.1 29.9 54.9 37.3 41.5 41.75 38.35 46.4875 34.991796875 51.45 32.4
L 59.15 21.95 55.4 21.95 63.25 12.3
Q 61.05 13.55 56.45 16.9 53.35 19.15 52.1 20.1 30.6568359375 38.2802734375 22.45 65.5 21.65 68.4 20.7 79.75 19.5 94.05 21.25 99.75 26.2166015625 116.181640625 43 129 43.05 128.95 45 128.1 46.7 127.3 47.05 127.35 47.25 127.3 47.65 129.35 48.1 131.3 48.1 131.5 48.15 131.65 55.85 134.65 64.3 137.95 69.1 139.25 74.3 140.7 82.95 137.5 90.05 134.8 90.75 133.8
L 92.1 138.85
Q 114.4 130.5 115.95 129.45 128.26796875 121.171875 137.05 108.65 139.7 104.85 144.6 93.8 Z"/>

<path fill="#986533" stroke="none" d="
M 81.55 10.95
L 88.2 10.95 93.05 6.25
Q 77.688671875 4.262109375 63.25 12.3
L 55.4 21.95 59.15 21.95 51.45 32.4
Q 58.9171875 28.4908203125 66.9 26.3 67 26.4 68.45 29.65 69.8 32.85 70.05 33
L 77.65 24.1 74.95 19.4 81.55 10.95
M 131.5 35.1
L 131.5 40.45 137.15 34.05
Q 132.3376953125 27.0685546875 126 21.6 120.74609375 24.484375 113.8 24.9
L 109.45 29.9 99.5 29.9 88.6 41.5
Q 95.8921875 42.768359375 102.45 46.35
L 111.75 42.15 109.3 50.85
Q 111.55 52.65 115.8 56.7
L 118.35 41.95 131.5 35.1 Z"/>
</g>

<g id="stumper_hat_1_Layer0_0_FILL">
<path fill="#000000" stroke="none" d="
M 26.35 -2.85
Q 23.397265625 -1.8595703125 21.2 -1.25 17.3294921875 -0.176171875 13.55 1.6 9.804296875 3.3970703125 6.15 5.9 -1.1 10.8 -1.9 13.4 -1.7 14.05 -2.2 26.4 -2.7 38.65 -2.35 39.45 -2 40.2 1.65 43.7 5.35 47.65 5.8 48.15 38.45 54.35 70.2 52.9 83.75 52.35 107.9 44.1 129.45 36.7 130.15 35.15 133.55 15.8 132.3 12.85 130.45 8.3 128.95 4.25 127.4 0.25 115.9 -7.8 104.35 -15.9 83.8 -16.3 63.2 -16.8 46.1 -10.1 33.812109375 -5.2994140625 26.35 -2.85
M 41.05 -1.3
Q 56.5115234375 -5.2173828125 76.85 -3.2 85.88359375 -2.3046875 95.85 -0.25 95.75 -0.15 95.65 0 97.68203125 0.477734375 99.55 1 113.12734375 4.7482421875 118.05 10.55 124.35 17.85 123.15 23.85 117.7265625 22.23984375 106.45 20 104.419921875 19.61953125 102.2 19.2 90.6 17 88.5 16.75 88.75 16.75 88.15 11.85 87.55 6.65 86.75 3.7 86.25 3.6 86.2 3.8 83.95 9.8 82.35 16.1 78.392578125 15.7091796875 74.9 15.4 67.67578125 14.8185546875 62.45 14.65 43.2580078125 14.0640625 26.35 20.9 21.141796875 23.00234375 16.15 25.8 9.6939453125 29.440234375 3.6 34.25 3.45 34.35 3.35 34.4 3.8 32.2 3.25 25.2 2.7 18.15 1.95 16.25 4.219140625 14.629296875 6.55 13.1 8.896484375 11.65703125 11.3 10.3 18.4126953125 6.303125 26.35 3.25 33.37421875 0.6103515625 41.05 -1.3
M 85.5 11.85
Q 85.8 11.05 86.5 11.45 86.35 15.7 86.55 20.1 96.758984375 20.844921875 106.45 23.35 114.3208984375 25.4232421875 121.85 28.65 103.35 42.6 76.9 44.4 54.7 45.85 32.9 43.4 19.3 41.95 6.15 37.75 8.3173828125 29.82578125 16.15 25.95 19.8818359375 24.153515625 24.9 23.25 25.6251953125 23.118359375 26.35 23 50.2814453125 18.7923828125 74.45 19.45 78.7892578125 19.577734375 83.1 19.85 84.2 15.8 85.5 11.85 Z"/>

<path fill="#D9BCA3" stroke="none" d="
M 86.5 11.45
Q 85.8 11.05 85.5 11.85 84.2 15.8 83.1 19.85 78.7892578125 19.577734375 74.45 19.45 50.2814453125 18.7923828125 26.35 23 25.6251953125 23.118359375 24.9 23.25 19.8818359375 24.153515625 16.15 25.95 8.3173828125 29.82578125 6.15 37.75 19.3 41.95 32.9 43.4 54.7 45.85 76.9 44.4 103.35 42.6 121.85 28.65 114.3208984375 25.4232421875 106.45 23.35 96.758984375 20.844921875 86.55 20.1 86.35 15.7 86.5 11.45
M 89.75 33.55
Q 100.35 29.45 101 29 97.5 29.25 81.3 28.35 76.9388671875 28.12421875 73.6 28 65.073828125 27.648828125 63.1 27.9 52.6 29.4 45.1 33.85 55.05 36.35 64.2 34.8 66.75 34.35 69.9 33.5 73.05 32.55 72.65 32.35 71.3 31.75 67.35 32.2 64.35 32.55 62.95 32.95 62.75 33 63.5 33.3 63.85 33.5 64.25 33.6 64 34 61.6 34.1 59.25 34.25 59.2 34.05 59.05 33.75 60.55 32.2 62.1 30.5 63.25 30.15 66.15 29.2 72.15 30.7 72.7390625 30.8447265625 73.25 31 77.87578125 32.2291015625 78.1 33.35 78.1 34.1 66.6 36.55 54.8 38.95 52 38.15 42.9 35.65 42.4 35.35 41.8 35 43.8 31.65 45.95 28.15 47.9 27.2 51.45 25.6 73.7 25.5 73.7771484375 25.4994140625 73.85 25.5 96.71640625 25.3599609375 106.45 27.5 106.62734375 27.5599609375 106.8 27.6 106.7283203125 27.8150390625 106.45 28.1 104.594921875 29.908203125 93.55 34.3 80.55 39.45 78.15 38.45 79.2 37.6 89.75 33.55
M 23.65 37.6
Q 22.95 37.4 22.35 36.05 21.8 34.75 21.95 34.5 23.25 32.35 31.6 29.6 39.55 27 42.9 27.15 41.6 28.6 35.95 31.65 32 33.65 28.45 35.35 28.5 35.35 33.6 37 38.45 38.65 39.2 39.25 38.95 39.3 23.65 37.6 Z"/>

<path fill="#A38464" stroke="none" d="
M 22.35 36.05
Q 22.95 37.4 23.65 37.6 38.95 39.3 39.2 39.25 38.45 38.65 33.6 37 28.5 35.35 28.45 35.35 32 33.65 35.95 31.65 41.6 28.6 42.9 27.15 39.55 27 31.6 29.6 23.25 32.35 21.95 34.5 21.8 34.75 22.35 36.05
M 101 29
Q 100.35 29.45 89.75 33.55 79.2 37.6 78.15 38.45 80.55 39.45 93.55 34.3 104.594921875 29.908203125 106.45 28.1 106.7283203125 27.8150390625 106.8 27.6 106.62734375 27.5599609375 106.45 27.5 96.71640625 25.3599609375 73.85 25.5 73.7771484375 25.4994140625 73.7 25.5 51.45 25.6 47.9 27.2 45.95 28.15 43.8 31.65 41.8 35 42.4 35.35 42.9 35.65 52 38.15 54.8 38.95 66.6 36.55 78.1 34.1 78.1 33.35 77.87578125 32.2291015625 73.25 31 72.7390625 30.8447265625 72.15 30.7 66.15 29.2 63.25 30.15 62.1 30.5 60.55 32.2 59.05 33.75 59.2 34.05 59.25 34.25 61.6 34.1 64 34 64.25 33.6 63.85 33.5 63.5 33.3 62.75 33 62.95 32.95 64.35 32.55 67.35 32.2 71.3 31.75 72.65 32.35 73.05 32.55 69.9 33.5 66.75 34.35 64.2 34.8 55.05 36.35 45.1 33.85 52.6 29.4 63.1 27.9 65.073828125 27.648828125 73.6 28 76.9388671875 28.12421875 81.3 28.35 97.5 29.25 101 29 Z"/>

<path fill="#5F3B18" stroke="none" d="
M 14.5 20.9
L 9.75 16.25 11.3 10.3
Q 8.896484375 11.65703125 6.55 13.1 4.219140625 14.629296875 1.95 16.25 2.7 18.15 3.25 25.2 3.8 32.2 3.35 34.4 3.45 34.35 3.6 34.25 9.6939453125 29.440234375 16.15 25.8
L 16.15 25.35
Q 15.75 24.5 14.5 20.9 Z"/>

<path fill="#986533" stroke="none" d="
M 26.35 20.9
L 26.35 3.25
Q 18.4126953125 6.303125 11.3 10.3
L 9.75 16.25 14.5 20.9
Q 15.75 24.5 16.15 25.35
L 16.15 25.8
Q 21.141796875 23.00234375 26.35 20.9
M 95.85 -0.25
Q 85.88359375 -2.3046875 76.85 -3.2
L 74.9 15.4
Q 78.392578125 15.7091796875 82.35 16.1 83.95 9.8 86.2 3.8 86.25 3.6 86.75 3.7 87.55 6.65 88.15 11.85 88.75 16.75 88.5 16.75 90.6 17 102.2 19.2 104.419921875 19.61953125 106.45 20
L 106.45 10 99.55 10 99.55 1
Q 97.68203125 0.477734375 95.65 0 95.75 -0.15 95.85 -0.25 Z"/>

<path fill="#835324" stroke="none" d="
M 106.45 10
L 106.45 20
Q 117.7265625 22.23984375 123.15 23.85 124.35 17.85 118.05 10.55 113.12734375 4.7482421875 99.55 1
L 99.55 10 106.45 10
M 76.85 -3.2
Q 56.5115234375 -5.2173828125 41.05 -1.3 33.37421875 0.6103515625 26.35 3.25
L 26.35 20.9
Q 43.2580078125 14.0640625 62.45 14.65 67.67578125 14.8185546875 74.9 15.4
L 76.85 -3.2 Z"/>
</g>
</defs>

<g transform="matrix( 1, 0, 0, 1, 134.2,227.4) ">
<g transform="matrix( 1, 0, 0, 1, 239.85,-17.8) ">
<g transform="matrix( -0.8164520263671875, 0.31256103515625, 0.31256103515625, 0.8164520263671875, 231.45,212.2) ">
<g transform="matrix( 1, 0, 0, 1, 0,0) ">
<use xlink:href="#stumper_legs_0_Layer0_0_FILL"/>
</g>
</g>

<g transform="matrix( -0.2911834716796875, -0.9566192626953125, 0.9566192626953125, -0.2911834716796875, 183.1,339.5) ">
<g transform="matrix( 1, 0, 0, 1, 0,0) ">
<use xlink:href="#stumper_legs_1_Layer0_0_FILL"/>
</g>
</g>

<g transform="matrix( 0.9442596435546875, 0.329193115234375, -0.329193115234375, 0.9442596435546875, 3.05,215.9) ">
<g transform="matrix( 1, 0, 0, 1, 0,0) ">
<use xlink:href="#stumper_legs_0_Layer0_0_FILL"/>
</g>
</g>

<g transform="matrix( -0.0773162841796875, -0.4809722900390625, 0.987274169921875, -0.1587066650390625, -88.75,324.05) ">
<g transform="matrix( 1, 0, 0, 1, 0,0) ">
<use xlink:href="#stumper_leaves_0_Layer0_0_FILL"/>
</g>
</g>

<g transform="matrix( 1, 0, 0, 1, 36.75,152.15) ">
<g transform="matrix( 1, 0, 0, 1, 0,0) ">
<use xlink:href="#stumper_stump_2_Layer1_0_FILL"/>
</g>
</g>

<g transform="matrix( -0.999725341796875, -0.0180206298828125, 0.0180206298828125, -0.999725341796875, -89.1,308.1) ">
<g transform="matrix( 1, 0, 0, 1, 0,0) ">
<use xlink:href="#stumper_hat_1_Layer0_0_FILL"/>
</g>
</g>
</g>
</g>
</svg>
