
<svg xmlns="http://www.w3.org/2000/svg" version="1.1" xmlns:xlink="http://www.w3.org/1999/xlink" preserveAspectRatio="none" x="0px" y="0px" width="1000px" height="1000px" viewBox="0 0 1000 1000">
<defs>
<g id="stumper_legs_1_Layer0_0_FILL">
<path fill="#000000" stroke="none" d="
M 41.2 5.2
Q 35.151171875 16.117578125 33.85 30.35 32.5380859375 44.6294921875 52.4 62.8 72.5033203125 39.55078125 79.55 30.05 86.5966796875 20.600390625 86.35 8.75 86.153515625 -3.05 65.6 -8.75 47.303515625 -5.716015625 41.2 5.2
M 42.3 13.35
Q 44.02734375 5.629296875 45.9 5.1 51.6677734375 -3.5986328125 65 -4.9 73.55 -4.6 79.25 1.4 90.528125 13.3240234375 79.5 23.95 69.5587890625 33.6763671875 64.25 39.2
L 63.1 40.45
Q 63 40.55 57.25 46.4 56.8 46.85 54.8 48.7 52.4 50.9 52.35 50.8
L 47.5 43.6
Q 47.448828125 43.514453125 47.4 43.4
L 43.4 34.6
Q 42.1916015625 30.7869140625 41.75 26.8 41.766796875 26.72109375 41.15 23.9 40.576171875 21.1234375 42.3 13.35 Z"/>

<path fill="#66CC66" stroke="none" d="
M 57.25 46.4
Q 56.612890625 45.1259765625 52.6 43.65 48.1 42 47.5 43.6
L 52.35 50.8
Q 52.4 50.9 54.8 48.7 56.8 46.85 57.25 46.4
M 50.7 21.55
Q 47.25 19.75 46.3 20.75 43.3703125 23.7912109375 41.75 26.8 42.1916015625 30.7869140625 43.4 34.6 46.28671875 32.503125 50.7 30.6 57.25 31.3 61.05 36.8 62.0619140625 38.23984375 63.1 40.45
L 64.25 39.2
Q 65.056640625 33.5595703125 57.6 26.6 54.15 23.35 50.7 21.55
M 80.05 23.35
Q 79.7953125 23.669921875 79.5 23.95 90.528125 13.3240234375 79.25 1.4 73.55 -4.6 65 -4.9 51.6677734375 -3.5986328125 45.9 5.1 48.969140625 3.5990234375 52.55 2.3 72.3662109375 5.1712890625 80.05 23.35 Z"/>

<path fill="#3D8E3D" stroke="none" d="
M 50.7 30.6
Q 46.28671875 32.503125 43.4 34.6
L 47.4 43.4
Q 47.448828125 43.514453125 47.5 43.6 48.1 42 52.6 43.65 56.612890625 45.1259765625 57.25 46.4 63 40.55 63.1 40.45 62.0619140625 38.23984375 61.05 36.8 57.25 31.3 50.7 30.6
M 79.5 23.95
Q 79.7953125 23.669921875 80.05 23.35 72.3662109375 5.1712890625 52.55 2.3 48.969140625 3.5990234375 45.9 5.1 44.02734375 5.629296875 42.3 13.35 40.576171875 21.1234375 41.15 23.9 41.766796875 26.72109375 41.75 26.8 43.3703125 23.7912109375 46.3 20.75 47.25 19.75 50.7 21.55 54.15 23.35 57.6 26.6 65.056640625 33.5595703125 64.25 39.2 69.5587890625 33.6763671875 79.5 23.95 Z"/>
</g>
</defs>

<g transform="matrix( 1, 0, 0, 1, 134.2,227.4) ">
<g transform="matrix( -0.6386260986328125, 0.76904296875, 0.76904296875, 0.6386260986328125, 381.75,193.95) ">
<g transform="matrix( 1, 0, 0, 1, 0,0) ">
<use xlink:href="#stumper_legs_1_Layer0_0_FILL"/>
</g>
</g>
</g>
</svg>
