
<svg xmlns="http://www.w3.org/2000/svg" version="1.1" xmlns:xlink="http://www.w3.org/1999/xlink" preserveAspectRatio="none" x="0px" y="0px" width="1000px" height="1000px" viewBox="0 0 1000 1000">
<defs>
<linearGradient id="Gradient_1" gradientUnits="userSpaceOnUse" x1="59.6375" y1="37.15" x2="50.2625" y2="108.25" spreadMethod="pad">
<stop  offset="0%" stop-color="#484848"/>

<stop  offset="100%" stop-color="#0F0F0F"/>
</linearGradient>

<linearGradient id="Gradient_2" gradientUnits="userSpaceOnUse" x1="82.0625" y1="27.537499999999994" x2="47.9375" y2="57.5625" spreadMethod="pad">
<stop  offset="17.647058823529413%" stop-color="#1B3500"/>

<stop  offset="49.80392156862745%" stop-color="#236600"/>

<stop  offset="100%" stop-color="#12FF00"/>
</linearGradient>

<g id="stumper_leaves_0_Layer0_0_FILL">
<path fill="#000000" stroke="none" d="
M 116.4 46.1
Q 116.803515625 30.87109375 110 17.5 103.9083984375 5.4732421875 92 -5.05 75.5357421875 3.3994140625 68 20.75 63.5 31.2 59.3 42.45 47.6458984375 22.055078125 33.75 25.5 31 27.55 24.8 38.1 19.6 46.95 18.45 49.7 10.63984375 68.41328125 14.85 87.5 19.0654296875 106.637890625 25 112.15 15.5638671875 106.3912109375 0.1 105.45 -2.4453125 109.823828125 6.35 137.55 15.1583984375 165.3279296875 37.95 172.5 53.2 177.25 71.2 178.75 83.65 169.15 87.6 166.05 105.05 151.6 109.6 143.65 118.8 127.55 131.9 84.2 137.22265625 57.6869140625 131.3 54.5 130.35 54.05 124.1 56.85 117.05 60 114.95 63.55 115.3 61.8 115.85 55 116.35 48.65 116.4 46.1
M 91.55 9.5
Q 91.6015625 9.5484375 91.65 9.6 98.9203125 16.5107421875 102.25 30.95 102.38671875 31.463671875 102.5 31.95 103.05 34.5 104.15 42.4 105.0505859375 50.234375 105.05 58.3
L 105.05 58.3
Q 105.0728515625 63.1189453125 104.75 68 104.40625 74.22265625 103.5 80.55
L 100.65 96.75
Q 101.7 94.3 106.5 86.5 110.65 79.75 111.5 78.55 111.6 78.35 116.35 73.5 121.35 68.4 122.85 67.25
L 127.25 64.35
Q 125.32734375 74.330859375 123.45 82.75 123.0826171875 84.53203125 122.7 86.25 121.5 91.25 118.55 102.75 116.482421875 110.21953125 114.5 115.5 112.15 121.8 105.05 134.6 101.5 141 98.35 146.2 96.6556640625 148.7662109375 94.8 151.3 90.25 157.55 72.85 177.1
L 44.6 163.65
Q 44.3 163.5 35.45 157.3 31.5177734375 153.9740234375 27.9 149.75 27.45 149.2 24.35 145 21.15 140.6 20.25 139.25 20.0537109375 138.9 19.8 138.5
L 19.85 138.5
Q 12.1287109375 124.162109375 9.35 116.85 10.8 117.2 16.25 119.3 22.15 121.6 24.6 122.85
L 48.85 134.9
Q 43.2298828125 128.178125 39 120.9 33.3890625 111.1166015625 30.3 100.3 29.6103515625 97.9259765625 29.05 95.45 27.2642578125 87.71796875 26.75 79.45 26.2990234375 72.130078125 27.1 65.6 27.7388671875 60.5107421875 29.15 55.9 31.9359375 46.8568359375 37.7 39.75 38.9609375 38.094921875 40.45 38.2 41.8076171875 38.333984375 43.35 39.9 48.75 45.3 58.15 59.3 58.35 59.55 61.65 66.9 65.35 75 66.35 78.1
L 70.8 92.05
Q 72.9240234375 98.676953125 74.9 105 75 104.85 74.35 95.9 73.7 86.95 73.4 84.6 71.4951171875 68.0232421875 67.65 58.75
L 67.65 58.7
Q 67.55 58.4 72.7 42.25 77.9 25.9 78.7 24 83.191796875 14.651953125 90.5 8.55 91.038671875 9.0005859375 91.55 9.5 Z"/>

<path fill="#3D8E3D" stroke="none" d="
M 29.05 95.45
Q 44.5451171875 80.0044921875 27.1 65.6 26.2990234375 72.130078125 26.75 79.45 27.2642578125 87.71796875 29.05 95.45
M 100 41.5
Q 97 41.15 96.25 41.55 71.45 55.4 77.5 82.7 75.1138671875 83.2837890625 73.4 84.6 73.7 86.95 74.35 95.9 75 104.85 74.9 105 72.9240234375 98.676953125 70.8 92.05
L 66.35 78.1
Q 65.35 75 61.65 66.9 58.35 59.55 58.15 59.3 57.4458984375 59.68359375 56.6 60.25 35.4 74.3 53.85 91.5 51.6 93.3 50.55 95.8 41.7 117.1 63.3 118.6 61.15 120.55 60.5 123.25 59.65 126.7 62.75 133.1 65.25 138.25 66.65 139.45 62.6123046875 144.185546875 61.7 151.55 50.55 149.55 41.8 155.15 41.7 149.95 39.2 145.55 36.55 140.95 27.95 139.3 20.4546875 138.6017578125 19.85 138.5
L 19.8 138.5
Q 20.0537109375 138.9 20.25 139.25 21.15 140.6 24.35 145 27.45 149.2 27.9 149.75 31.5177734375 153.9740234375 35.45 157.3 44.3 163.5 44.6 163.65
L 72.85 177.1
Q 90.25 157.55 94.8 151.3 96.6556640625 148.7662109375 98.35 146.2 101.5 141 105.05 134.6 112.15 121.8 114.5 115.5 116.482421875 110.21953125 118.55 102.75 117.85 103.2 116.15 103.3 113.95 103.4 113.25 102.3 105.75 90.75 119.25 83.85 121.2328125 85.04453125 122.7 86.25 123.0826171875 84.53203125 123.45 82.75 125.32734375 74.330859375 127.25 64.35
L 122.85 67.25
Q 124.499609375 75.6755859375 111.5 78.55 110.65 79.75 106.5 86.5 101.7 94.3 100.65 96.75
L 103.5 80.55
Q 104.40625 74.22265625 104.75 68 105.0728515625 63.1189453125 105.05 58.3
L 105.05 58.3
Q 105.0505859375 50.234375 104.15 42.4 103 41.8 100 41.5
M 91.65 9.6
Q 90.018359375 10.88515625 89.05 13.05 84 24.3 94.9 29.1 99.6341796875 31.20703125 102.5 31.95 102.38671875 31.463671875 102.25 30.95 98.9203125 16.5107421875 91.65 9.6 Z"/>

<path fill="#66CC66" stroke="none" d="
M 40.45 38.2
Q 38.9609375 38.094921875 37.7 39.75 31.9359375 46.8568359375 29.15 55.9 27.7388671875 60.5107421875 27.1 65.6 44.5451171875 80.0044921875 29.05 95.45 29.6103515625 97.9259765625 30.3 100.3 33.3890625 111.1166015625 39 120.9 43.2298828125 128.178125 48.85 134.9
L 24.6 122.85
Q 22.15 121.6 16.25 119.3 10.8 117.2 9.35 116.85 12.1287109375 124.162109375 19.85 138.5 20.4546875 138.6017578125 27.95 139.3 36.55 140.95 39.2 145.55 41.7 149.95 41.8 155.15 50.55 149.55 61.7 151.55 62.6123046875 144.185546875 66.65 139.45 65.25 138.25 62.75 133.1 59.65 126.7 60.5 123.25 61.15 120.55 63.3 118.6 41.7 117.1 50.55 95.8 51.6 93.3 53.85 91.5 35.4 74.3 56.6 60.25 57.4458984375 59.68359375 58.15 59.3 48.75 45.3 43.35 39.9 41.8076171875 38.333984375 40.45 38.2
M 122.7 86.25
Q 121.2328125 85.04453125 119.25 83.85 105.75 90.75 113.25 102.3 113.95 103.4 116.15 103.3 117.85 103.2 118.55 102.75 121.5 91.25 122.7 86.25
M 116.35 73.5
Q 111.6 78.35 111.5 78.55 124.499609375 75.6755859375 122.85 67.25 121.35 68.4 116.35 73.5
M 89.05 13.05
Q 90.018359375 10.88515625 91.65 9.6 91.6015625 9.5484375 91.55 9.5 91.038671875 9.0005859375 90.5 8.55 83.191796875 14.651953125 78.7 24 77.9 25.9 72.7 42.25 67.55 58.4 67.65 58.7
L 67.65 58.75
Q 71.4951171875 68.0232421875 73.4 84.6 75.1138671875 83.2837890625 77.5 82.7 71.45 55.4 96.25 41.55 97 41.15 100 41.5 103 41.8 104.15 42.4 103.05 34.5 102.5 31.95 99.6341796875 31.20703125 94.9 29.1 84 24.3 89.05 13.05 Z"/>
</g>

<g id="stumper_hat_1_Layer0_0_FILL">
<path fill="#000000" stroke="none" d="
M 26.35 -2.85
Q 23.397265625 -1.8595703125 21.2 -1.25 17.3294921875 -0.176171875 13.55 1.6 9.804296875 3.3970703125 6.15 5.9 -1.1 10.8 -1.9 13.4 -1.7 14.05 -2.2 26.4 -2.7 38.65 -2.35 39.45 -2 40.2 1.65 43.7 5.35 47.65 5.8 48.15 38.45 54.35 70.2 52.9 83.75 52.35 107.9 44.1 129.45 36.7 130.15 35.15 133.55 15.8 132.3 12.85 130.45 8.3 128.95 4.25 127.4 0.25 115.9 -7.8 104.35 -15.9 83.8 -16.3 63.2 -16.8 46.1 -10.1 33.812109375 -5.2994140625 26.35 -2.85
M 41.05 -1.3
Q 56.5115234375 -5.2173828125 76.85 -3.2 85.88359375 -2.3046875 95.85 -0.25 95.75 -0.15 95.65 0 97.68203125 0.477734375 99.55 1 113.12734375 4.7482421875 118.05 10.55 124.35 17.85 123.15 23.85 117.7265625 22.23984375 106.45 20 104.419921875 19.61953125 102.2 19.2 90.6 17 88.5 16.75 88.75 16.75 88.15 11.85 87.55 6.65 86.75 3.7 86.25 3.6 86.2 3.8 83.95 9.8 82.35 16.1 78.392578125 15.7091796875 74.9 15.4 67.67578125 14.8185546875 62.45 14.65 43.2580078125 14.0640625 26.35 20.9 21.141796875 23.00234375 16.15 25.8 9.6939453125 29.440234375 3.6 34.25 3.45 34.35 3.35 34.4 3.8 32.2 3.25 25.2 2.7 18.15 1.95 16.25 4.219140625 14.629296875 6.55 13.1 8.896484375 11.65703125 11.3 10.3 18.4126953125 6.303125 26.35 3.25 33.37421875 0.6103515625 41.05 -1.3
M 85.5 11.85
Q 85.8 11.05 86.5 11.45 86.35 15.7 86.55 20.1 96.758984375 20.844921875 106.45 23.35 114.3208984375 25.4232421875 121.85 28.65 103.35 42.6 76.9 44.4 54.7 45.85 32.9 43.4 19.3 41.95 6.15 37.75 8.3173828125 29.82578125 16.15 25.95 19.8818359375 24.153515625 24.9 23.25 25.6251953125 23.118359375 26.35 23 50.2814453125 18.7923828125 74.45 19.45 78.7892578125 19.577734375 83.1 19.85 84.2 15.8 85.5 11.85 Z"/>

<path fill="#D9BCA3" stroke="none" d="
M 86.5 11.45
Q 85.8 11.05 85.5 11.85 84.2 15.8 83.1 19.85 78.7892578125 19.577734375 74.45 19.45 50.2814453125 18.7923828125 26.35 23 25.6251953125 23.118359375 24.9 23.25 19.8818359375 24.153515625 16.15 25.95 8.3173828125 29.82578125 6.15 37.75 19.3 41.95 32.9 43.4 54.7 45.85 76.9 44.4 103.35 42.6 121.85 28.65 114.3208984375 25.4232421875 106.45 23.35 96.758984375 20.844921875 86.55 20.1 86.35 15.7 86.5 11.45
M 89.75 33.55
Q 100.35 29.45 101 29 97.5 29.25 81.3 28.35 76.9388671875 28.12421875 73.6 28 65.073828125 27.648828125 63.1 27.9 52.6 29.4 45.1 33.85 55.05 36.35 64.2 34.8 66.75 34.35 69.9 33.5 73.05 32.55 72.65 32.35 71.3 31.75 67.35 32.2 64.35 32.55 62.95 32.95 62.75 33 63.5 33.3 63.85 33.5 64.25 33.6 64 34 61.6 34.1 59.25 34.25 59.2 34.05 59.05 33.75 60.55 32.2 62.1 30.5 63.25 30.15 66.15 29.2 72.15 30.7 72.7390625 30.8447265625 73.25 31 77.87578125 32.2291015625 78.1 33.35 78.1 34.1 66.6 36.55 54.8 38.95 52 38.15 42.9 35.65 42.4 35.35 41.8 35 43.8 31.65 45.95 28.15 47.9 27.2 51.45 25.6 73.7 25.5 73.7771484375 25.4994140625 73.85 25.5 96.71640625 25.3599609375 106.45 27.5 106.62734375 27.5599609375 106.8 27.6 106.7283203125 27.8150390625 106.45 28.1 104.594921875 29.908203125 93.55 34.3 80.55 39.45 78.15 38.45 79.2 37.6 89.75 33.55
M 23.65 37.6
Q 22.95 37.4 22.35 36.05 21.8 34.75 21.95 34.5 23.25 32.35 31.6 29.6 39.55 27 42.9 27.15 41.6 28.6 35.95 31.65 32 33.65 28.45 35.35 28.5 35.35 33.6 37 38.45 38.65 39.2 39.25 38.95 39.3 23.65 37.6 Z"/>

<path fill="#A38464" stroke="none" d="
M 22.35 36.05
Q 22.95 37.4 23.65 37.6 38.95 39.3 39.2 39.25 38.45 38.65 33.6 37 28.5 35.35 28.45 35.35 32 33.65 35.95 31.65 41.6 28.6 42.9 27.15 39.55 27 31.6 29.6 23.25 32.35 21.95 34.5 21.8 34.75 22.35 36.05
M 101 29
Q 100.35 29.45 89.75 33.55 79.2 37.6 78.15 38.45 80.55 39.45 93.55 34.3 104.594921875 29.908203125 106.45 28.1 106.7283203125 27.8150390625 106.8 27.6 106.62734375 27.5599609375 106.45 27.5 96.71640625 25.3599609375 73.85 25.5 73.7771484375 25.4994140625 73.7 25.5 51.45 25.6 47.9 27.2 45.95 28.15 43.8 31.65 41.8 35 42.4 35.35 42.9 35.65 52 38.15 54.8 38.95 66.6 36.55 78.1 34.1 78.1 33.35 77.87578125 32.2291015625 73.25 31 72.7390625 30.8447265625 72.15 30.7 66.15 29.2 63.25 30.15 62.1 30.5 60.55 32.2 59.05 33.75 59.2 34.05 59.25 34.25 61.6 34.1 64 34 64.25 33.6 63.85 33.5 63.5 33.3 62.75 33 62.95 32.95 64.35 32.55 67.35 32.2 71.3 31.75 72.65 32.35 73.05 32.55 69.9 33.5 66.75 34.35 64.2 34.8 55.05 36.35 45.1 33.85 52.6 29.4 63.1 27.9 65.073828125 27.648828125 73.6 28 76.9388671875 28.12421875 81.3 28.35 97.5 29.25 101 29 Z"/>

<path fill="#5F3B18" stroke="none" d="
M 14.5 20.9
L 9.75 16.25 11.3 10.3
Q 8.896484375 11.65703125 6.55 13.1 4.219140625 14.629296875 1.95 16.25 2.7 18.15 3.25 25.2 3.8 32.2 3.35 34.4 3.45 34.35 3.6 34.25 9.6939453125 29.440234375 16.15 25.8
L 16.15 25.35
Q 15.75 24.5 14.5 20.9 Z"/>

<path fill="#986533" stroke="none" d="
M 26.35 20.9
L 26.35 3.25
Q 18.4126953125 6.303125 11.3 10.3
L 9.75 16.25 14.5 20.9
Q 15.75 24.5 16.15 25.35
L 16.15 25.8
Q 21.141796875 23.00234375 26.35 20.9
M 95.85 -0.25
Q 85.88359375 -2.3046875 76.85 -3.2
L 74.9 15.4
Q 78.392578125 15.7091796875 82.35 16.1 83.95 9.8 86.2 3.8 86.25 3.6 86.75 3.7 87.55 6.65 88.15 11.85 88.75 16.75 88.5 16.75 90.6 17 102.2 19.2 104.419921875 19.61953125 106.45 20
L 106.45 10 99.55 10 99.55 1
Q 97.68203125 0.477734375 95.65 0 95.75 -0.15 95.85 -0.25 Z"/>

<path fill="#835324" stroke="none" d="
M 106.45 10
L 106.45 20
Q 117.7265625 22.23984375 123.15 23.85 124.35 17.85 118.05 10.55 113.12734375 4.7482421875 99.55 1
L 99.55 10 106.45 10
M 76.85 -3.2
Q 56.5115234375 -5.2173828125 41.05 -1.3 33.37421875 0.6103515625 26.35 3.25
L 26.35 20.9
Q 43.2580078125 14.0640625 62.45 14.65 67.67578125 14.8185546875 74.9 15.4
L 76.85 -3.2 Z"/>
</g>

<g id="stumper_body_1_Layer1_0_FILL">
<path fill="#000000" stroke="none" d="
M 114.85 89.9
Q 120.00390625 82.3326171875 113.25 50.75 106.5478515625 19.2171875 100.8 4.95 95.100390625 -9.305859375 65.6 -11.7 40.2 -6.15 18.25 9.05 6.95 16.9 3.15 28.95 14.5107421875 49.8662109375 14.65 63.75 14.791796875 77.6376953125 15 86.3 15.2525390625 94.95390625 29.2 99.45 66.1515625 111.5 87.9 104.5 109.6951171875 97.5056640625 114.85 89.9
M 105.65 83.5
Q 105.65 87.8 102.3 89.5 92.45 94.4 81.85 97.7 43.25 109.6 16.7 86.35 22.805859375 61.10546875 14.35 45.15 5.8978515625 29.198046875 10.1 24.05 30.1 -0.45 62 -3.75 78.8 -5.45 86.1 7.9 105.65 43.6 105.65 83.5 Z"/>

<path fill="url(#Gradient_1)" stroke="none" d="
M 102.3 89.5
Q 105.65 87.8 105.65 83.5 105.65 43.6 86.1 7.9 78.8 -5.45 62 -3.75 30.1 -0.45 10.1 24.05 5.8978515625 29.198046875 14.35 45.15 22.805859375 61.10546875 16.7 86.35 43.25 109.6 81.85 97.7 92.45 94.4 102.3 89.5 Z"/>
</g>

<g id="stumper_body_1_Layer0_0_FILL">
<path fill="#66FF00" stroke="none" d="
M 66.85 18.95
Q 62.9 20.7 64.75 24.45 66.6 28.45 69.65 25.55 75.45 20.05 66.85 18.95
M 84.85 21.7
Q 90.25 17.5 85.2 12.4 83.25 14.55 81.15 16.6 81.05 18.55 81.75 20.65 82.6 23.4 84.85 21.7 Z"/>

<path fill="#000000" stroke="none" d="
M 93.1 30.55
Q 90.3 29.1 87.3 27.65 81.35 24.65 80.35 24.75 80 26 76.2 31.85 72.35 37.75 71.55 38.2 58.95 32.1 57.45 31.3 56.2 34.1 53.35 39.2 50.15 44.95 49.5 45.3 39.505859375 33.153515625 38.05 30.7 34.15 30.15 27.6 30.25 21.3 30.3 21.3 30.75 21.3 32.4 30.4 49.5 40.5107421875 65.31171875 60.55 72.75 69.2451171875 76 76.7 76 88.734765625 75.996484375 97.4 67.45 99.220703125 65.657421875 100.55 63.5 104.3513671875 57.4810546875 104.35 48.85 104.3447265625 36.7125 96.85 19.85 96.75 19.8 95 25.1 93.15 30.55 93.1 30.55
M 82.35 26.5
Q 94.296875 32.6802734375 94.35 32.5 94.7 31.9 95.85 29.15 97 26.25 97 25.8 99.5482421875 32.0216796875 100.95 39.4 102.3466796875 47.13046875 99.35 54.35 97.4333984375 59.006640625 94.8 62.35 85.61015625 74.075 67.95 70.15 46.710546875 65.5126953125 34 50.25 27.716015625 42.673046875 23.5 32.5 29.6189453125 32.0728515625 37 34.1 40.4171875 40.560546875 45.45 46.25 50.524609375 51.9984375 53.95 47.45 57.3587890625 42.862109375 58.7 34.35 60.9486328125 36.6009765625 66.35 40.5 71.8439453125 44.444921875 75.65 38.95 79.49296875 33.39921875 82.35 26.5
M 81.15 16.6
Q 83.25 14.55 85.2 12.4 86.25 11.3 93.15 3 100.1 -5.25 102.8 -7.6 90.55 1.25 85.3 6.45 80.15 11.55 78.9 18 79.4 18.1 81.15 16.6
M 54.7 -1.35
Q 49.65 -4.9 48.95 -4.5 48.6 -4.3 47.25 1.25 45.9 6.85 45.9 7.95 46.9 7.5 48.85 3.9 49.95 2.05 51.2 -0.2 55.05 5.4 59.75 10.2 66.05 16.65 73.65 18.7 75 16.05 74.95 15.9 74.85 15.7 73.9 15.95 72.9 16.25 72.85 16.3 66.75 13.75 62.25 6 60.3 2.5 54.7 -1.35 Z"/>

<path fill="#006600" stroke="none" d="
M 34 50.25
Q 46.710546875 65.5126953125 67.95 70.15 85.61015625 74.075 94.8 62.35 66.678125 49.5728515625 34 50.25 Z"/>

<path fill="url(#Gradient_2)" stroke="none" d="
M 94.35 32.5
Q 94.296875 32.6802734375 82.35 26.5 79.49296875 33.39921875 75.65 38.95 71.8439453125 44.444921875 66.35 40.5 60.9486328125 36.6009765625 58.7 34.35 57.3587890625 42.862109375 53.95 47.45 50.524609375 51.9984375 45.45 46.25 40.4171875 40.560546875 37 34.1 29.6189453125 32.0728515625 23.5 32.5 27.716015625 42.673046875 34 50.25 66.678125 49.5728515625 94.8 62.35 97.4333984375 59.006640625 99.35 54.35 102.3466796875 47.13046875 100.95 39.4 99.5482421875 32.0216796875 97 25.8 97 26.25 95.85 29.15 94.7 31.9 94.35 32.5 Z"/>
</g>

<g id="stumper_arm_0_Layer0_0_FILL">
<path fill="#000000" stroke="none" d="
M 34.25 9.25
Q 35.1 1.25 22.9 0.15 10.7 -0.95 0.55 6.25 -1.15 8.85 2.35 16.2 5.75 23.45 16.05 23.75 26.25 23.95 33.35 17.8 33.4 17.25 34.25 9.25
M 31.05 16.85
Q 29.8 17.75 28.5 18.2 21.45 20.7 13.85 18.7 3.75 15.8 2.6 8.3 11.6 2.95 22.4 4.65 32.7 6.3 31.05 16.85 Z"/>

<path fill="#333333" stroke="none" d="
M 28.5 18.2
Q 29.8 17.75 31.05 16.85 32.7 6.3 22.4 4.65 11.6 2.95 2.6 8.3 3.75 15.8 13.85 18.7 21.45 20.7 28.5 18.2 Z"/>
</g>

<g id="stumper_leaf_blade_0_Layer0_0_FILL">
<path fill="#66FF00" stroke="none" d="
M 2 0
L 0.95 0.3
Q 9.7 10.55 13.1 21.4 16.5 32.2 2.75 58.85 -11.05 85.5 44.4 103.7 38.7 71.05 53.95 55.5 69.15 39.95 58.65 21.4 48.15 2.9 2 0
M 20.05 47.5
Q 37.5 28.9 6.25 4.2 23.4 7.45 41.2 19.25 58.95 31 45.1 53.45 31.2 75.85 34.35 94.35 33.05 93.55 17.8 79.85 2.55 66.1 20.05 47.5 Z"/>

<path fill="#E5FFD4" stroke="none" d="
M 6.25 4.2
Q 37.5 28.9 20.05 47.5 2.55 66.1 17.8 79.85 33.05 93.55 34.35 94.35 31.2 75.85 45.1 53.45 58.95 31 41.2 19.25 23.4 7.45 6.25 4.2 Z"/>
</g>

<g id="stumper_stump_1_Layer1_0_FILL">
<path fill="#000000" stroke="none" d="
M 160.1 13.05
Q 156.75 14.15 145.5 19.95 137.45 24.1 133.85 26.05 133.6373046875 26.1892578125 133.6 26.2 128.1 28.05 111.2 30.45 94.3 32.8 88.5 32.55 86.9 35.05 86.75 35.3 86.25 34.5 84.05 32.4 81.85 30.3 80.9 29.7 78.95 28.6 73.85 27.95 69.85 27.45 68.7 27.55 68.4 27.65 66.35 30 64.25 32.4 63.95 33 63.85 33.15 63.8 33.25 62.45 29 60.35 24.85 60 24.1 33 3.55 33.15 19.15 30.75 17.3 29.2748046875 16.1158203125 28.35 15.15 28.57109375 19.0994140625 27.65 28.95 17.7 23.65 15.4 19.8 13.65 19.7 6.65 27 -0.3 34.35 0.1 35.85 2.45 37.55 14.5 49.7 20.4 55.65 24.8 60.2 26.05 72.15 25.3 81.2 24.571484375 89.4751953125 36.8 95.2 38.25 95.9 46.2 97.95 56.2 100.5 62.5 101 64.85 101.25 81.55 101.45 98 101.7 100.9 101.6 102.9 101.55 115.6 100.65 129.75 99.6 132.8 99.15 163.6 91.35 163.6 88.05 163.7 86.5 159.6 63.75 155.4 40.4 155.25 38.2 156.2 36.5 158.35 27.1 160.75 16.45 160.1 13.05
M 134.4 28.4
Q 137.4814453125 27.3724609375 138.85 26.35 138.75 27.45 138.9 30.1 139.1 33.3 139.55 33.4 142.35 29.45 144.9 26.5 149.95 20.65 152.65 20.15 152.65 20.6 151.15 27.7 149.4 35.9 148.15 39.9 146.6 44.85 150.5 64.7 152.5 74.65 154.9 84.5 149.096484375 88.1013671875 141.05 90.6 140.875 90.6638671875 140.65 90.7 137.6236328125 91.6623046875 134.25 92.45 132.5 92.85 126.3 93.9 120.1 94.9 117.7 95.1 107.5 95.95 107.3 95.95 103.9939453125 96.1333984375 100.75 96.25 86.7462890625 96.7216796875 74.1 95.8 67.9515625 95.393359375 62.1 94.6 58.0240234375 94.0962890625 54.1 93.4 43.6609375 91.551171875 38.75 88.55 32.2076171875 84.5654296875 35.4 78.55 35.55 75.5 33.95 49.9 32.45 25.7 32.2 23.5 32.05 22.5 34 23.85 36.15 25.35 36.2 25.3 36.75 13.15 36.7 11.9 36.95 12 45.35 16.2 45.3751953125 16.214453125 45.4 16.2 49.05 18.35 56.8 27.3 60.7 31.8 64.05 36.15 64.5 36.35 67.05 34.25 69.65 32.15 69.7 32.1 72.3 32.4 76.4 33.15 80.6 33.9 80.9 34.25 81.8 35.2 84.1 37.35 86.85 39.9 87.25 39.95 87.7 39.65 90.9 36 91.7193359375 35.9517578125 111.4 33.25 112.55 33.15 121.4 31.4 131.6 29.4 134.4 28.4
M 17.6 40.9
Q 10.75 34.45 7.6 31.55 7.65 31.5 7.7 31.4 8.1 30.75 9.75 29.1 11.45 27.4 11.7 27.45 12.7 27.8 21.4 31.9 29.85 35.9 30.2 35.9 30.25 39.35 30.55 45.1 30.9 52.4 31.25 54.4 30.3318359375 53.0994140625 24.9 47.8 23.9 46.85 17.6 40.9 Z"/>

<path fill="#5F3B18" stroke="none" d="
M 30.2 35.9
Q 29.85 35.9 21.4 31.9 12.7 27.8 11.7 27.45
L 22.55 40.35 24.9 47.8
Q 30.3318359375 53.0994140625 31.25 54.4 30.9 52.4 30.55 45.1 30.25 39.35 30.2 35.9
M 45.4 37.95
L 41.25 41.25 39.75 35.1 38.3 45.05 41.3 65.35 38.25 70.8 41.05 80.6 38.75 88.55
Q 43.6609375 91.551171875 54.1 93.4 58.0240234375 94.0962890625 62.1 94.6
L 61.65 87.85 55.6 81.8 56.45 60.7 60.3 51.2 63.45 60.3 67.2 53.65 69.7 32.1
Q 69.65 32.15 67.05 34.25 64.5 36.35 64.05 36.15 60.7 31.8 56.8 27.3 49.05 18.35 45.4 16.2
L 45.4 37.95 Z"/>

<path fill="#835324" stroke="none" d="
M 7.6 31.55
Q 10.75 34.45 17.6 40.9 23.9 46.85 24.9 47.8
L 22.55 40.35 11.7 27.45
Q 11.45 27.4 9.75 29.1 8.1 30.75 7.7 31.4 7.65 31.5 7.6 31.55
M 45.4 16.2
Q 45.3751953125 16.214453125 45.35 16.2 36.95 12 36.7 11.9 36.75 13.15 36.2 25.3 36.15 25.35 34 23.85 32.05 22.5 32.2 23.5 32.45 25.7 33.95 49.9 35.55 75.5 35.4 78.55 32.2076171875 84.5654296875 38.75 88.55
L 41.05 80.6 38.25 70.8 41.3 65.35 38.3 45.05 39.75 35.1 41.25 41.25 45.4 37.95 45.4 16.2
M 134.25 92.45
Q 137.6236328125 91.6623046875 140.65 90.7
L 136.35 82.6 134.25 92.45
M 87.25 39.95
Q 86.85 39.9 84.1 37.35 81.8 35.2 80.9 34.25
L 80.9 58.4 70.45 72.75 71.55 87.35 75.3 90.45 74.1 95.8
Q 86.7462890625 96.7216796875 100.75 96.25
L 100.7 93.85 95.85 89.35 94.4 73.25 96.75 61.55 100.8 75.95 107.3 70.35 107.3 95.95
Q 107.5 95.95 117.7 95.1
L 118.95 83.6 123 88.9 128.1 72.05 123.4 51.35 120.15 66.15 110.65 52.3 111.4 33.25
Q 91.7193359375 35.9517578125 90.9 36 87.7 39.65 87.25 39.95
M 134.4 28.4
L 138.3 45.7 135.1 59.25 142.95 77.55 141.05 90.6
Q 149.096484375 88.1013671875 154.9 84.5 152.5 74.65 150.5 64.7 146.6 44.85 148.15 39.9 149.4 35.9 151.15 27.7 152.65 20.6 152.65 20.15 149.95 20.65 144.9 26.5 142.35 29.45 139.55 33.4 139.1 33.3 138.9 30.1 138.75 27.45 138.85 26.35 137.4814453125 27.3724609375 134.4 28.4 Z"/>

<path fill="#986533" stroke="none" d="
M 80.9 34.25
Q 80.6 33.9 76.4 33.15 72.3 32.4 69.7 32.1
L 67.2 53.65 63.45 60.3 60.3 51.2 56.45 60.7 55.6 81.8 61.65 87.85 62.1 94.6
Q 67.9515625 95.393359375 74.1 95.8
L 75.3 90.45 71.55 87.35 70.45 72.75 80.9 58.4 80.9 34.25
M 96.75 61.55
L 94.4 73.25 95.85 89.35 100.7 93.85 100.75 96.25
Q 103.9939453125 96.1333984375 107.3 95.95
L 107.3 70.35 100.8 75.95 96.75 61.55
M 138.3 45.7
L 134.4 28.4
Q 131.6 29.4 121.4 31.4 112.55 33.15 111.4 33.25
L 110.65 52.3 120.15 66.15 123.4 51.35 128.1 72.05 123 88.9 118.95 83.6 117.7 95.1
Q 120.1 94.9 126.3 93.9 132.5 92.85 134.25 92.45
L 136.35 82.6 140.65 90.7
Q 140.875 90.6638671875 141.05 90.6
L 142.95 77.55 135.1 59.25 138.3 45.7 Z"/>
</g>
</defs>

<g transform="matrix( 1, 0, 0, 1, 134.2,227.4) ">
<g transform="matrix( 1, 0, 0, 1, 234.6,10.15) ">
<g transform="matrix( 0.8664703369140625, -0.4991607666015625, 0.4991607666015625, 0.8664703369140625, -77.15,66.45) ">
<g transform="matrix( 1, 0, 0, 1, 0,0) ">
<use xlink:href="#stumper_leaves_0_Layer0_0_FILL"/>
</g>
</g>

<g transform="matrix( 0.9188690185546875, -0.3943939208984375, 0.3943939208984375, 0.9188690185546875, 33.05,86.7) ">
<g transform="matrix( 1, 0, 0, 1, 0,0) ">
<use xlink:href="#stumper_hat_1_Layer0_0_FILL"/>
</g>
</g>

<g transform="matrix( 0.97039794921875, -0.0714569091796875, 0.0830841064453125, 1.12823486328125, 61,88.35) ">
<g transform="matrix( 1, 0, 0, 1, 0,0) ">
<use xlink:href="#stumper_body_1_Layer1_0_FILL"/>
</g>

<g transform="matrix( 1, 0, 0, 1, 0,0) ">
<use xlink:href="#stumper_body_1_Layer0_0_FILL"/>
</g>
</g>

<g transform="matrix( 0.92901611328125, 0.0697479248046875, -0.074859619140625, 0.997161865234375, 51.9,123.2) ">
<g transform="matrix( 1, 0, 0, 1, 0,0) ">
<use xlink:href="#stumper_arm_0_Layer0_0_FILL"/>
</g>
</g>

<g transform="matrix( 0.6596527099609375, -0.75146484375, -0.75146484375, -0.6596527099609375, 97.1,231.5) ">
<g transform="matrix( 1, 0, 0, 1, 0,0) ">
<use xlink:href="#stumper_leaf_blade_0_Layer0_0_FILL"/>
</g>
</g>

<g transform="matrix( 0.9992218017578125, 0.0385284423828125, -0.0385284423828125, 0.9992218017578125, 44.8,148.7) ">
<g transform="matrix( 1, 0, 0, 1, 0,0) ">
<use xlink:href="#stumper_stump_1_Layer1_0_FILL"/>
</g>
</g>
</g>
</g>
</svg>
