
<svg xmlns="http://www.w3.org/2000/svg" version="1.1" xmlns:xlink="http://www.w3.org/1999/xlink" preserveAspectRatio="none" x="0px" y="0px" width="1000px" height="1000px" viewBox="0 0 1000 1000">
<defs>
<linearGradient id="Gradient_1" gradientUnits="userSpaceOnUse" x1="49.2625" y1="65.4375" x2="49.7375" y2="115.86250000000001" spreadMethod="pad">
<stop  offset="0.39215686274509803%" stop-color="#FF9900"/>

<stop  offset="49.411764705882355%" stop-color="#FFD100"/>

<stop  offset="100%" stop-color="#FFFFFF"/>
</linearGradient>

<linearGradient id="Gradient_2" gradientUnits="userSpaceOnUse" x1="49.15" y1="48.974999999999994" x2="51.65" y2="142.625" spreadMethod="pad">
<stop  offset="0.39215686274509803%" stop-color="#FF3300"/>

<stop  offset="49.411764705882355%" stop-color="#FFD100"/>

<stop  offset="100%" stop-color="#FFFFFF"/>
</linearGradient>

<linearGradient id="Gradient_3" gradientUnits="userSpaceOnUse" x1="46.4" y1="44.325" x2="48.9" y2="137.97500000000002" spreadMethod="pad">
<stop  offset="0.39215686274509803%" stop-color="#FF3300"/>

<stop  offset="49.411764705882355%" stop-color="#FFD100"/>

<stop  offset="100%" stop-color="#FFFFFF"/>
</linearGradient>

<g id="Flame_tail_4_Layer0_0_FILL">
<path fill="#FFFFFF" stroke="none" d="
M 58.5 96.7
Q 57.95 92.65 57.95 91.85 54.8 93.85 48.5 95.1 41.1 96.35 37.4 97.2 35.9 97.55 30.55 103.45 25.5 109.1 22.8 109.1 21.4 109.1 20.55 107.9 19.6 106.5 20.1 104.25 18.15 107.05 17 109.9 15.8 112.894921875 17.7 114.4 19.6017578125 115.92109375 19.85 118.05 19.95 119 19.6 120.3 19.3 121.5 19 121.55 32.95 122.7 42.75 124.1 44.97265625 123.796875 48 123.25 51.9 122.5 55.55 121.8 55.65 121.8 61.3 123.45 67.4 125.1 69.45 125.1 73.7 125.1 79.25 123.1 80.6 120.75 81.65 118.55 83.7 114.25 83.7 111.7 83.8517578125 105.65625 76.85 97.8 72.8 93.25 72.05 92.1 69.85 88.9 69.85 85.55 69.85 84.25 70.95 80.95 66.15 82.65 63.7 87.8 60.25 94.9 58.5 96.7
M 67 64.25
Q 64.616015625 63.9931640625 64.25 65.5 63.8939453125 67.050390625 66 69.5
L 71.65 75.55
Q 68.827734375 71.1314453125 70.7 70.15 72.6193359375 69.2326171875 73.4 65.95 73.8 64.55 71.2 61.05 68.9 58.05 67.95 57.5 69.431640625 64.5677734375 67 64.25 Z"/>

<path fill="url(#Gradient_1)" stroke="none" d="
M 82 74.55
Q 83.35 69.25 83.35 64.55 83.35 55.45 79.9 48.45 75 40.5 72.05 35.65 61.95 59.55 49.25 61.05 50.9 65.8 45.75 69.95 41.35 73.45 37.65 73.45 35 73.45 31.65 71.2 28.45 69 27.15 66.45 25.1 67.15 23.95 69.25 22.85 71.35 22.85 74.25 22.85 76.75 23.95 78.9 25 81 25 82.6 25 84.4 22.4 87.65 20.8 89.55 16.65 94.2 8.25 104 8.25 111.5 8.25 111.6 8.55 116.4 8.8 121.4 8.65 122.15 10.5 121.9 19 121.55 19.3 121.5 19.6 120.3 19.95 119 19.85 118.05 19.6017578125 115.92109375 17.7 114.4 15.8 112.894921875 17 109.9 18.15 107.05 20.1 104.25 19.6 106.5 20.55 107.9 21.4 109.1 22.8 109.1 25.5 109.1 30.55 103.45 35.9 97.55 37.4 97.2 41.1 96.35 48.5 95.1 54.8 93.85 57.95 91.85 57.95 92.65 58.5 96.7 60.25 94.9 63.7 87.8 66.15 82.65 70.95 80.95 69.85 84.25 69.85 85.55 69.85 88.9 72.05 92.1 72.8 93.25 76.85 97.8 83.8517578125 105.65625 83.7 111.7 83.7 114.25 81.65 118.55 80.6 120.75 79.25 123.1 79.4 122.95 82.15 122.45 85.5 121.8 87.9 121.8 88.85 121.8 91.1 121.65 91.2322265625 120.1763671875 91.25 118.35 91.3955078125 113.4033203125 86 101.5 80.6 89.6 80.6 83.9 80.6 79.85 82 74.55
M 64.25 65.5
Q 64.616015625 63.9931640625 67 64.25 69.431640625 64.5677734375 67.95 57.5 68.9 58.05 71.2 61.05 73.8 64.55 73.4 65.95 72.6193359375 69.2326171875 70.7 70.15 68.827734375 71.1314453125 71.65 75.55
L 66 69.5
Q 63.8939453125 67.050390625 64.25 65.5 Z"/>

<path fill="url(#Gradient_2)" stroke="none" d="
M 83.35 64.55
Q 83.35 69.25 82 74.55 80.6 79.85 80.6 83.9 80.6 89.6 86 101.5 91.3955078125 113.4033203125 91.25 118.35 91.2322265625 120.1763671875 91.1 121.65 92.25 121.55 95.1 121.05 97.4 120.65 98.1 120.5 98.6 120.35 99.55 114.5 94.45 114.3 93.3 92.9 93.05 88.7 93.05 64 93.05 52.5 87.25 41.8 82.5 33 74.15 25.35 63.15 32.05 55.3 36.9 40.15 46.2 40.15 49.9 40.15 50.55 40.7 53.55 41.25 56.55 41.25 57.25 41.25 60.75 39.6 63.25 37.8 65.9 34.95 65.9 31.5 65.9 30.7 63.25 30 58.8 28.7 55.1 24.35 55.75 17.5 61.3 9.9 67.45 9.9 72.3 9.9 75.2 12.6 78.3 15.25 81.4 15.25 84.55 15.25 88.3 13.15 90.95 12.05 92.3 8.5 94.95 5.25 97.45 3.85 99.5 1.75 102.7 1.75 107.45 1.75 108.85 2.6 117.7 2.7732421875 119.6052734375 2.9 121.25 3.15 121.3 4.85 121 6.75 120.65 7.55 120.35
L 8.65 122.15
Q 8.8 121.4 8.55 116.4 8.25 111.6 8.25 111.5 8.25 104 16.65 94.2 20.8 89.55 22.4 87.65 25 84.4 25 82.6 25 81 23.95 78.9 22.85 76.75 22.85 74.25 22.85 71.35 23.95 69.25 25.1 67.15 27.15 66.45 28.45 69 31.65 71.2 35 73.45 37.65 73.45 41.35 73.45 45.75 69.95 50.9 65.8 49.25 61.05 61.95 59.55 72.05 35.65 75 40.5 79.9 48.45 83.35 55.45 83.35 64.55 Z"/>

<path fill="url(#Gradient_3)" stroke="none" d="
M 3.7 55.25
Q -6.1421875 43.51875 13.6 38.45 1.7 33.85 -4.35 44.7 -10.4521484375 55.551953125 -4 57.6 2.50625 59.6439453125 3.7 55.25 Z"/>
</g>
</defs>

<g transform="matrix( 0.9992523193359375, 0, 0, 0.830047607421875, 452.4,396.4) ">
<g transform="matrix( 1, 0, 0, 1, 0,0) ">
<use xlink:href="#Flame_tail_4_Layer0_0_FILL"/>
</g>
</g>
</svg>
