
<svg xmlns="http://www.w3.org/2000/svg" version="1.1" xmlns:xlink="http://www.w3.org/1999/xlink" preserveAspectRatio="none" x="0px" y="0px" width="1000px" height="1000px" viewBox="0 0 1000 1000">
<defs>
<linearGradient id="Gradient_1" gradientUnits="userSpaceOnUse" x1="49.2625" y1="65.4375" x2="49.7375" y2="115.86250000000001" spreadMethod="pad">
<stop  offset="0.39215686274509803%" stop-color="#FF9900"/>

<stop  offset="49.411764705882355%" stop-color="#FFD100"/>

<stop  offset="100%" stop-color="#FFFFFF"/>
</linearGradient>

<linearGradient id="Gradient_2" gradientUnits="userSpaceOnUse" x1="49.15" y1="48.974999999999994" x2="51.65" y2="142.625" spreadMethod="pad">
<stop  offset="0.39215686274509803%" stop-color="#FF3300"/>

<stop  offset="49.411764705882355%" stop-color="#FFD100"/>

<stop  offset="100%" stop-color="#FFFFFF"/>
</linearGradient>

<linearGradient id="Gradient_3" gradientUnits="userSpaceOnUse" x1="50.5375" y1="60.725" x2="54.9625" y2="151.175" spreadMethod="pad">
<stop  offset="0.39215686274509803%" stop-color="#FF3300"/>

<stop  offset="49.411764705882355%" stop-color="#FFD100"/>

<stop  offset="100%" stop-color="#FFFFFF"/>
</linearGradient>

<linearGradient id="Gradient_4" gradientUnits="userSpaceOnUse" x1="33.575" y1="1.5250000000000004" x2="33.325" y2="10.875" spreadMethod="pad">
<stop  offset="0.39215686274509803%" stop-color="#FF3300"/>

<stop  offset="49.411764705882355%" stop-color="#FFD100"/>

<stop  offset="100%" stop-color="#FFFFFF"/>
</linearGradient>

<linearGradient id="Gradient_5" gradientUnits="userSpaceOnUse" x1="44.5625" y1="-14.1375" x2="44.9375" y2="-2.062499999999999" spreadMethod="pad">
<stop  offset="0.39215686274509803%" stop-color="#FF3300"/>

<stop  offset="49.411764705882355%" stop-color="#FFD100"/>

<stop  offset="100%" stop-color="#FFFFFF"/>
</linearGradient>

<g id="Flame_tail_3_Layer0_0_FILL">
<path fill="url(#Gradient_1)" stroke="none" d="
M 88.8 87.15
Q 91.866015625 85.3921875 96.45 80.35 101.0345703125 75.3037109375 79.3 57.5 77.3734375 56.255078125 76.45 54.45 69.53359375 83.1849609375 61.3 82.65 60.5017578125 84.0576171875 59.15 85.6 49.2828125 97.1029296875 42.05 92.15 34.8703125 87.203125 31.4 81.8 27.9830078125 76.4412109375 31.15 70.75 25.8443359375 75.0591796875 19.85 73.7 13.901953125 72.38984375 11.95 75.7 10.0529296875 79.01640625 16.5 85 22.941796875 90.9763671875 29.05 94.7 35.1708984375 98.4826171875 26.45 96.55 17.7203125 94.61796875 10.6 100 3.5357421875 105.431640625 4.25 110.1 4.55 112.05 6.2 116.3 7.25 118.9 8.1 120.75 8.15 120.8 8.65 122.15 11.39921875 121.814453125 16.4 121.8 17.70390625 121.6412109375 19 121.55 19.3 121.5 19.6 120.3 19.95 119 19.85 118.05 19.6017578125 115.92109375 17.7 114.4 15.8 112.894921875 17 109.9 18.15 107.05 20.1 104.25 19.594921875 106.498828125 21.35 111.35 23.1666015625 116.250390625 29.9 118.1 36.6302734375 120.01015625 35.85 115.15 35.1150390625 110.3259765625 37.6 107.6 40.08984375 104.8845703125 47.3 106.05 52.8609375 106.990234375 56.15 98 56.4609375 97.942578125 56.55 97.75 55.05234375 106.66171875 59.1 106 62.4912109375 104.4431640625 62.35 96.05 62.2984375 90.6837890625 72.25 95.5 59.000390625 95.26328125 75.5 110.7 77.1095703125 99.8146484375 84.3 108.1 91.5458984375 116.372265625 87.55 117.05 83.59609375 117.7345703125 80.95 120.5 79.9060546875 121.593359375 79.25 123.1 79.4 122.95 82.15 122.45 85.5 121.8 87.9 121.8 88.85 121.8 91.1 121.65 91.6892578125 120.683984375 94.2 120.45 96.7146484375 120.27109375 87.35 108.65 78.032421875 97.030078125 81.9 92.95 85.777734375 88.920703125 88.8 87.15
M 73.4 79.8
Q 73.9587890625 81.768359375 74.85 84.3 78.443359375 94.13125 65.15 90.05 69.3388671875 83.474609375 73.4 79.8 Z"/>

<path fill="#FFFFFF" stroke="none" d="
M 74.85 84.3
Q 73.9587890625 81.768359375 73.4 79.8 69.3388671875 83.474609375 65.15 90.05 78.443359375 94.13125 74.85 84.3
M 56.55 97.75
Q 56.4609375 97.942578125 56.15 98 52.8609375 106.990234375 47.3 106.05 40.08984375 104.8845703125 37.6 107.6 35.1150390625 110.3259765625 35.85 115.15 36.6302734375 120.01015625 29.9 118.1 23.1666015625 116.250390625 21.35 111.35 19.594921875 106.498828125 20.1 104.25 18.15 107.05 17 109.9 15.8 112.894921875 17.7 114.4 19.6017578125 115.92109375 19.85 118.05 19.95 119 19.6 120.3 19.3 121.5 19 121.55 32.95 122.7 42.75 124.1
L 55.55 121.8
Q 55.65 121.8 61.3 123.45 67.4 125.1 69.45 125.1 73.7 125.1 79.25 123.1 79.9060546875 121.593359375 80.95 120.5 83.59609375 117.7345703125 87.55 117.05 91.5458984375 116.372265625 84.3 108.1 77.1095703125 99.8146484375 75.5 110.7 59.000390625 95.26328125 72.25 95.5 62.2984375 90.6837890625 62.35 96.05 62.4912109375 104.4431640625 59.1 106 55.05234375 106.66171875 56.55 97.75 Z"/>

<path fill="url(#Gradient_2)" stroke="none" d="
M 90.85 44.2
Q 85.1345703125 36.54609375 88 34.9 66.9587890625 36.664453125 69.7 56.2 72.0962890625 72.9939453125 63.6 68.95 63.8009765625 73.32734375 56.35 81.85 48.892578125 90.42421875 40.9 80.75 32.9185546875 71.0806640625 34.05 67.55 22.4236328125 71.67421875 17.65 67.25 16.5328125 66.2095703125 15.8 64.7 12.603125 58.2150390625 16.35 43.05 4.4501953125 38.48515625 -1.65 49.35 -7.7091796875 60.2158203125 0.45 63.45 1.2 63.75 3.4 65.55 5.75 67.45 6.4 68.55 8.9669921875 72.7236328125 9.35 79.7 10.1341796875 92.719140625 13.45 92.2 16.8048828125 91.74375 16.65 93.35 16.4923828125 94.9958984375 10.85 96.2 5.2537109375 97.451953125 3.85 99.5 1.75 102.7 1.75 107.45 1.75 108.85 2.6 117.7 2.7732421875 119.6052734375 2.9 121.25 3.15 121.3 8.1 120.75 7.25 118.9 6.2 116.3 4.55 112.05 4.25 110.1 3.5357421875 105.431640625 10.6 100 17.7203125 94.61796875 26.45 96.55 35.1708984375 98.4826171875 29.05 94.7 22.941796875 90.9763671875 16.5 85 10.0529296875 79.01640625 11.95 75.7 13.901953125 72.38984375 19.85 73.7 25.8443359375 75.0591796875 31.15 70.75 27.9830078125 76.4412109375 31.4 81.8 34.8703125 87.203125 42.05 92.15 49.2828125 97.1029296875 59.15 85.6 60.5017578125 84.0576171875 61.3 82.65 69.53359375 83.1849609375 76.45 54.45 77.3734375 56.255078125 79.3 57.5 101.0345703125 75.3037109375 96.45 80.35 91.866015625 85.3921875 88.8 87.15 85.777734375 88.920703125 81.9 92.95 78.032421875 97.030078125 87.35 108.65 96.7146484375 120.27109375 94.2 120.45 91.6892578125 120.683984375 91.1 121.65 92.25 121.55 95.1 121.05 97.4 120.65 98.1 120.5 98.45 120.4 99.2 119.7 99.95 118.95 99.95 118.7 100.05 118.15 99.8 116.4 99.55 114.55 99.55 114.5 94.2546875 114.244140625 90.4 109.7 86.5279296875 105.1689453125 89.35 99.8 92.2326171875 94.476953125 100.05 90.35 107.9072265625 86.269921875 103.55 70.85 99.2029296875 55.4373046875 90.85 44.2 Z"/>

<path fill="url(#Gradient_3)" stroke="none" d="
M 33.6 30.65
Q 34.75 30.6 36.75 31.8 36 29.85 36.4 27.55 37.2 22.25 41.5 18.75 38 18.35 35.55 24.25 34.2 27.4 33.6 30.65 Z"/>

<path fill="url(#Gradient_4)" stroke="none" d="
M 34.65 5.8
Q 35.9 6.05 36.8 6.95 35.3318359375 3.5537109375 34.75 2.2 30.5970703125 4.5439453125 28.75 12.9
L 28.85 12.9
Q 31.573046875 5.1373046875 34.65 5.8 Z"/>

<path fill="url(#Gradient_5)" stroke="none" d="
M 45.2 -18.5
Q 44.9 -18.3 43.75 -14.15 43.059375 -11.63125 42.6 -9.65 43.72421875 -13.9982421875 45.5 -15 46.1 -15.3 48.7 -15.1 45.6 -18.7 45.2 -18.5 Z"/>
</g>
</defs>

<g transform="matrix( 0.9992523193359375, 0, 0, 0.830047607421875, 452.4,396.4) ">
<g transform="matrix( 1, 0, 0, 1, 0,0) ">
<use xlink:href="#Flame_tail_3_Layer0_0_FILL"/>
</g>
</g>
</svg>
