
<svg xmlns="http://www.w3.org/2000/svg" version="1.1" xmlns:xlink="http://www.w3.org/1999/xlink" preserveAspectRatio="none" x="0px" y="0px" width="400px" height="1400px" viewBox="0 0 400 1400">
<defs>
<g id="Barren_ground_2_Layer1_0_FILL">
<path fill="#E6A025" stroke="none" d="
M 157.15 -3.9
Q 155.05 -2.7 153.5 -1.05 151.4 1.2 149.55 3.45 145.1 9.05 138.3 11.8 133.1 13.95 128.25 16.8 127.9 17 127.65 17.35 120.95 19.5 113.8 20.25 100.1 22.15 87 25.65 84.85 26.2 83.65 28.4 82.2 31.05 82.45 34.2
L 62.15 33.95 74.9 41.05
Q 68.55 42.9 62 41.75 46.75 39.15 35.55 28.25
L 40.35 12.9 26.8 23.7 21.2 15.95 12.9 28 10.1 16.95 9.4 21.3 0.75 23.55 0 1124 400.1 1124 402.5 20.35 395.5 24.45 393.9 14.4 388.5 18.2 387 13.75 381.45 25.3 369.9 16.4
Q 370.1 16.95 370.35 17.55 370.55 18.05 370.8 18.55 371.15 19.25 371.45 20 371.75 20.7 371.95 21.45 372.15 22.1 372.3 22.85 372.4 23.55 372.4 24.3 372.35 26.75 371 28.6
L 371.75 32.2
Q 367.4 33.1 363.45 34.45 355.5 36.95 349.15 42.05 345.4 45.1 341.45 48 338.35 50.35 334.75 51.5 332.3 50.9 329.9 50.3 329.4 50.3 328.9 50.35 328.4 50.4 327.95 50.6 326.95 50.8 326.1 51.25 324.45 52.05 322.65 53.25 321.35 54.15 319.9 54.9 319.4 54.45 319 53.95 318.55 53.5 318.25 53 317.95 52.5 317.8 51.95 317.5 51.15 317.4 50.25 317.3 49.4 317.4 48.6 317.65 46.15 318.85 44 319.75 42.45 320.45 40.8 298.85 49.6 277.25 58.4 262.3 55.2 250 64.2 249.65 64.5 249.2 64.7
L 241.95 58.95 208.25 54.25
Q 199.5 55.55 190.75 56.85 181.4 58.25 172.15 57.7 163.2 57.35 154.2 59.25 143.55 53.9 133.55 60.35 131.5 61.75 129.4 60.5 112.5 50.75 93 50.2 89.4 50.1 87.1 47.1
L 117.9 40.3 121.4 42.45 132.3 34.65 133.9 46.8 146.3 36.2 147.85 42.35 152.5 40.9 153.75 46.65 159.85 44.55 156.95 43.45
Q 168.55 34.55 180.95 42.95 181.2 43.1 181.5 43.3 193 34.95 207.45 34.95 229.3 34.9 250.85 31.1
L 255.3 37.75 262 31.4 267.5 32.75 278.75 34.4 279.2 29.95 267.3 20.95 272.4 9.75 263.05 17.5 258.4 6.6
Q 257 10.95 253.25 13 244.45 17.8 234.15 18 220.55 18.3 207 17.5
L 209.45 7.5
Q 207.25 6 204.6 6.3 197.7 7.25 190.65 8.5 185.75 9.55 180.7 9 173.65 8.2 166.9 5.6
L 163.4 11.3
Q 162.1 10.65 160.85 9.9 160.4 9.7 160 9.4 159.6 9 159.25 8.65 158.95 8.25 158.7 7.8 157.55 6.05 157.7 4.05 158.05 0 157.15 -3.9
M 350.3 68.9
L 358 58 358.6 66.35 388.7 72.75 389.2 76.95 358.45 88.4
Q 358.8 88.9 359.25 89.3 360 90.1 360.95 89.65 377.15 90.8 389.95 100.75 374.65 108.25 357.55 105.8 354.5 105.25 351.45 105.3 334.7 105.65 319.15 100.05
L 331.9 90.7 288 79.8
Q 311.1 77.8 332.8 69.75 334.05 69.3 335.35 69.8 345.4 74.25 348.7 64.25
L 350.3 68.9
M 390.95 104
Q 391.55 104.55 391.55 105.35 391.55 106.15 390.95 106.7 390.4 107.25 389.6 107.25 388.8 107.25 388.2 106.7 387.65 106.15 387.65 105.35 387.65 104.55 388.2 104 388.8 103.45 389.6 103.45 390.4 103.45 390.95 104
M 389.25 124.25
Q 391.7 125.5 389.15 126.45
L 387.65 127.55 387.65 123.45
Q 388.45 123.8 389.25 124.25
M 332.8 182.8
L 333.3 187.25 346 190.75
Q 348.55 191 351.1 191.25 356 191.8 359.05 188.1 359.6 187.45 360.1 186.8 360.6 186.1 361 185.35 361.85 183.8 362.4 182.2 363.05 180.35 363.5 178.5
L 365.1 183.4 372.1 174.05 378.3 187.3 383.05 182.75 384.55 187.3 392.3 187.3 388.35 201.8
Q 377.95 198.6 367.5 201.1 366.6 201.35 365.7 201.65 363.9 202.3 362.2 203.05 354.95 206.35 349.5 212.2
L 349.55 223.75 387.65 241.8 379.8 250.1
Q 375.6 250.3 371.75 251.75 370.95 251.95 370.2 252.3 369.55 252.75 369 253.3 367.9 254.4 367 255.7 366.55 256.35 366.25 257.15 365.9 257.9 365.65 258.7 366.7 260.25 368.15 261.25 376.8 267.1 386.1 272.1 387.35 272.8 388.45 273.8 389.6 274.8 390.7 275.85 394.75 279.55 395.25 283.6 387.8 288.5 381.1 294.85 371.85 303.55 360.2 308.65 353.2 311.8 345.6 313.45
L 384.6 319.2 386 331.5 381.4 336.8 385.45 340.65 371.35 354.45 371.8 356.65 377.85 361.15
Q 374.4 366.05 369.05 367.7 340.2 376.2 312.9 388.2
L 322.35 391.05
Q 328.1 390.75 333.65 392.4 361.8 401.3 381.3 422.7
L 372.15 426 371.1 429.4
Q 357.2 437.45 341.9 437.25
L 341.85 426.65 337.1 427.95
Q 330.8 433.8 321.9 429.25
L 327.65 443.4
Q 320.5 447.8 313.25 443.65 310.05 444.75 306.65 445.1 304.35 445.15 302.3 444.55 278.8 437.4 259.95 452.05 273.25 457.75 279.05 470.95 286.9 488.9 305.1 498.75 303.45 498.95 301.8 498.95 300.1 499 298.45 499.15 284.9 501.4 276.1 491.2
L 247.7 492.4 219.45 481.65 238.15 467.6 173.25 440.35 174.25 435.65
Q 184.8 427.2 187.65 414.1 188.25 411.45 189.5 409.2 200.45 388.85 221.4 377.65 221.8 374.6 222.7 371.85 223.45 369.45 225.45 368.1 240.7 357.05 259.4 352.5
L 261 338.95 277.5 323.3
Q 276.85 322.8 276.2 322.35 267.6 316.9 270.85 307.2
L 284.65 321.6 288.9 309.6 295.05 326.5 309.15 320.95
Q 311.1 318.35 313.35 316.3 316.8 313.1 321.15 314.35 328.95 316.3 337.35 313.1 342.1 311.2 343 306.35 343.2 305.3 342.8 304.55 337.65 294 342.5 283.85
L 333.45 274.6 335.8 269.25
Q 334.6 266.55 333.65 263.85 329.5 252 318.35 256.25 317.25 256.6 316.25 256.6 302.6 254.65 302.9 240.8 293.65 240.85 284.45 242 267.45 244.5 250.75 248.3 244.3 249.7 241.1 256.3
L 224.55 256.25
Q 225.9 251.85 225.2 247.25 225 246.1 224 245.75 215.8 242.25 209.6 235.9
L 211.5 232.8
Q 212.1 232.75 212.75 232.75 221.55 231.65 222.55 223
L 193 213.75 249 200.15 251.4 193.2
Q 257.05 192 261.5 188.95 271.5 182.05 280.25 173.3
L 283.35 187.3 332.8 182.8
M 269.75 107.45
L 276.6 110.6
Q 260.85 115.05 244.5 116 235.85 116.45 227.25 115.65
L 259.6 101 268.5 104 269.75 107.45
M 67.7 242.7
Q 63.55 243.15 59.4 243.55 48.15 244.65 40.95 253 30.65 252.4 20.55 249.6 11.25 246.85 5.5 239.25
L 8.35 237.6 15.85 224.55 31.8 229.3 40.05 222.4 43.45 224.65 50.85 218.2 51.25 226.1
Q 60.25 225.1 69.25 225.95 85.55 227.9 99.8 236.4 84 240.95 67.7 242.7
M 4.7 290.3
L 12.25 287.45 37.3 307.7
Q 25.2 306.95 14.4 301.45 12.25 300.4 10.15 299.5 3.5 296.7 4.7 290.3
M 276.75 538.6
Q 277.9 538.6 279.1 538.6 287.1 538 292.5 531.9
L 283.35 528.35
Q 304.7 524.3 326.1 520.95 338.75 519.2 347.45 526.1 348.65 533.4 355.45 535.9 356 536.1 356.6 536.25 357.4 536.3 358.2 536.35 358.35 536.45 358.5 536.6
L 359.75 540.05 386.15 548.6 375.2 556.85 369.2 556.7
Q 368.65 557.45 368 558.15 365.55 560.8 362.75 563 358.4 566.3 353.6 569.05 344.65 574 336.3 574.1 334.75 572.55 332.9 571.8 330.15 570.85 327.35 570.85 314.7 570.95 303.15 564.9 301.75 564.2 300.25 563.85 277.9 565.1 256.85 557.95
L 278.7 542.4 276.75 538.6
M 216.95 790.05
L 219.8 790.65 222.7 799.5 252.2 805.6
Q 247.45 805.7 242.75 805.75 237.95 805.8 233.25 806.45 205.8 810.75 182.1 796.25
L 194.6 790.75 214.75 791.3 216.95 790.05
M 327.1 801.55
L 333.65 804.3 349.95 786.65
Q 348.1 790.5 345.75 794.05 340.05 802.75 343.7 811.7 344.3 813.2 345.4 814.45 346.55 815.8 347.9 817
L 373.65 818 325.55 839.6 334.35 853.45
Q 350.1 860.45 365.2 869.05 366.45 869.7 367.2 871.15 368 872.7 368.25 874.15
L 386.1 885
Q 365.7 887.15 345.3 884.95 338.5 884 331.65 883.75 323.75 882.95 316.15 881.85 312.7 881.25 310.1 878.9
L 321.8 866.55 316.3 853.9
Q 308.1 852.7 300.1 853.3 278.45 855.25 257.55 849.85 253.75 848.8 249.9 848.25 245.3 847.5 240.6 847.45 230.15 847.35 219.95 845.65
L 223.75 837.15 211.85 833.15
Q 218.05 831.8 224.3 831.1 240.9 830.05 257.25 826.85 264 825.55 270.15 823 272 818.55 276.65 817.3 277.25 817.2 277.9 817.1 278.55 817.1 279.25 817.1 280.55 817.15 281.9 817.2 282.5 817.1 283.15 817
L 287 812.05 297.05 813.25 299.2 811.75
Q 304.05 813.45 309.15 813.1 310.15 812.95 311.15 812.8 312.15 812.6 313.15 812.4 315.4 811.65 317.7 810.9 318.85 810.4 320.05 809.95
L 319.15 790 322.95 806.35 327.1 801.55
M 206.3 934.85
Q 214.35 936.3 222.3 937.3 231.6 938.6 240.3 942.65 239.45 942.85 238.6 943.05 238.2 943.15 237.85 943.3 236.8 943.75 235.8 944.25 235.15 944.6 234.55 945.1 234 945.45 233.65 946.05 232.5 947.8 231.5 949.7
L 234.15 953.2
Q 227.7 956.95 220.8 959.55 216.75 961.15 212.45 962.25 208.15 963.15 204.4 965.55
L 200.15 962.65 191.45 964.15 185.05 970.35 147.35 966.8
Q 147.25 966.95 147.1 967.05 146.35 967.6 145.5 968.05 144.7 968.6 143.85 969.1 142.05 969.9 140.2 970.6 139.3 971 138.4 971.35 135.5 972.2 132.5 972.55 131.7 972.7 130.9 972.85 130.05 972.85 129.2 972.9 128.75 972.75 128.35 972.6 128.25 972.5 128.2 972.4 128 971.95 128.05 971.5 128.15 971 128.55 970.55 128.65 970.45 128.75 970.35
L 116.5 970.15 112.8 973.9 115.15 977.45 85.95 986.5 93.95 990.5 93.35 993.8 98.9 994.9 96.45 999.35 83.3 996.25 81.5 997.4 55.7 996.3 59.5 989
Q 57.85 988.35 56.15 987.9 52.75 986.9 49.25 986.75 41.6 986.1 33.9 986.3 29.8 986.4 25.9 984.95
L 31 971.35 24 970.1
Q 34.8 969.25 45.55 969.9 51.6 969.8 57.65 971.2
L 70.65 965.05 62.1 960.1 111.7 952.2 115.4 943.7 113.9 941.85 93.4 935.15 98.45 926.25 94.95 924.65 96.85 919.7 71.3 917.6 86.55 908.2 82.8 906.15 82.85 901.35 92.3 901.15 95.4 904.4 112.75 904.65 112.9 908.9
Q 124.45 905.3 136.65 903.1 148.5 901.1 160.55 900.75
L 163.5 903.95
Q 164.65 904.1 165.8 904.3 166.35 904.3 166.95 904.3 167.5 904.3 168.05 904.25 169.15 904.05 170.25 903.7 171.4 903.5 172.5 903.15 174.55 902.4 176.75 902.4 177.45 902.45 178.15 902.5 179 902.7 179.85 903.05 182.25 904.35 184.6 905.8
L 160.05 910.9 157.85 919.55 144.1 926.4
Q 145.45 926.6 146.85 926.8 153.75 927 159.65 930.25 162.9 932.1 166.15 933.15 172.7 935.25 178.8 931.85 183.05 929.55 187.8 929.55 193.4 929.55 198.85 932.5 202.3 934.35 206.3 934.85
M 115.5 922.55
L 113.5 923.05 112.6 928.7 125.9 926.95 115.5 922.55
M 183 950.6
L 188.3 948.2 184.95 954.2 205.25 951.8 203.9 946.9 206.85 949.35 215.1 944.65 182.85 944.3 190.2 946.25 154.5 950.05
Q 155.7 950.45 156.9 950.85 165.1 954.05 173.05 951.05
L 177.1 952.05 181.4 949.65 183 950.6 Z"/>

<path fill="#E68025" stroke="none" d="
M 222.3 937.3
Q 214.35 936.3 206.3 934.85 202.3 934.35 198.85 932.5 193.4 929.55 187.8 929.55 183.05 929.55 178.8 931.85 172.7 935.25 166.15 933.15 162.9 932.1 159.65 930.25 153.75 927 146.85 926.8 145.45 926.6 144.1 926.4
L 157.85 919.55 160.05 910.9 184.6 905.8
Q 182.25 904.35 179.85 903.05 179 902.7 178.15 902.5 177.45 902.45 176.75 902.4 174.55 902.4 172.5 903.15 171.4 903.5 170.25 903.7 169.15 904.05 168.05 904.25 167.5 904.3 166.95 904.3 166.35 904.3 165.8 904.3 164.65 904.1 163.5 903.95
L 160.55 900.75
Q 148.5 901.1 136.65 903.1 124.45 905.3 112.9 908.9
L 112.75 904.65 95.4 904.4 92.3 901.15 82.85 901.35 82.8 906.15 86.55 908.2 71.3 917.6 96.85 919.7 94.95 924.65 98.45 926.25 93.4 935.15 113.9 941.85 115.4 943.7 111.7 952.2 62.1 960.1 70.65 965.05 57.65 971.2
Q 51.6 969.8 45.55 969.9 34.8 969.25 24 970.1
L 31 971.35 25.9 984.95
Q 29.8 986.4 33.9 986.3 41.6 986.1 49.25 986.75 52.75 986.9 56.15 987.9 57.85 988.35 59.5 989
L 55.7 996.3 81.5 997.4 83.3 996.25 96.45 999.35 98.9 994.9 93.35 993.8 93.95 990.5 85.95 986.5 115.15 977.45 112.8 973.9 116.5 970.15 128.75 970.35
Q 128.65 970.45 128.55 970.55 128.15 971 128.05 971.5 128 971.95 128.2 972.4 128.25 972.5 128.35 972.6 128.75 972.75 129.2 972.9 130.05 972.85 130.9 972.85 131.7 972.7 132.5 972.55 135.5 972.2 138.4 971.35 139.3 971 140.2 970.6 142.05 969.9 143.85 969.1 144.7 968.6 145.5 968.05 146.35 967.6 147.1 967.05 147.25 966.95 147.35 966.8
L 185.05 970.35 191.45 964.15 200.15 962.65 204.4 965.55
Q 208.15 963.15 212.45 962.25 216.75 961.15 220.8 959.55 227.7 956.95 234.15 953.2
L 231.5 949.7
Q 232.5 947.8 233.65 946.05 234 945.45 234.55 945.1 235.15 944.6 235.8 944.25 236.8 943.75 237.85 943.3 238.2 943.15 238.6 943.05 239.45 942.85 240.3 942.65 231.6 938.6 222.3 937.3
M 188.3 948.2
L 183 950.6 181.4 949.65 177.1 952.05 173.05 951.05
Q 165.1 954.05 156.9 950.85 155.7 950.45 154.5 950.05
L 190.2 946.25 182.85 944.3 215.1 944.65 206.85 949.35 203.9 946.9 205.25 951.8 184.95 954.2 188.3 948.2
M 113.5 923.05
L 115.5 922.55 125.9 926.95 112.6 928.7 113.5 923.05
M 333.65 804.3
L 327.1 801.55 322.95 806.35 319.15 790 320.05 809.95
Q 318.85 810.4 317.7 810.9 315.4 811.65 313.15 812.4 312.15 812.6 311.15 812.8 310.15 812.95 309.15 813.1 304.05 813.45 299.2 811.75
L 297.05 813.25 287 812.05 283.15 817
Q 282.5 817.1 281.9 817.2 280.55 817.15 279.25 817.1 278.55 817.1 277.9 817.1 277.25 817.2 276.65 817.3 272 818.55 270.15 823 264 825.55 257.25 826.85 240.9 830.05 224.3 831.1 218.05 831.8 211.85 833.15
L 223.75 837.15 219.95 845.65
Q 230.15 847.35 240.6 847.45 245.3 847.5 249.9 848.25 253.75 848.8 257.55 849.85 278.45 855.25 300.1 853.3 308.1 852.7 316.3 853.9
L 321.8 866.55 310.1 878.9
Q 312.7 881.25 316.15 881.85 323.75 882.95 331.65 883.75 338.5 884 345.3 884.95 365.7 887.15 386.1 885
L 368.25 874.15
Q 368 872.7 367.2 871.15 366.45 869.7 365.2 869.05 350.1 860.45 334.35 853.45
L 325.55 839.6 373.65 818 347.9 817
Q 346.55 815.8 345.4 814.45 344.3 813.2 343.7 811.7 340.05 802.75 345.75 794.05 348.1 790.5 349.95 786.65
L 333.65 804.3
M 219.8 790.65
L 216.95 790.05 214.75 791.3 194.6 790.75 182.1 796.25
Q 205.8 810.75 233.25 806.45 237.95 805.8 242.75 805.75 247.45 805.7 252.2 805.6
L 222.7 799.5 219.8 790.65
M 296.9 543.55
Q 297.2 536.8 292.5 531.9 287.1 538 279.1 538.6 277.9 538.6 276.75 538.6
L 278.7 542.4 256.85 557.95
Q 277.9 565.1 300.25 563.85 301.75 564.2 303.15 564.9 314.7 570.95 327.35 570.85 330.15 570.85 332.9 571.8 334.75 572.55 336.3 574.1 344.65 574 353.6 569.05 358.4 566.3 362.75 563 365.55 560.8 368 558.15 368.65 557.45 369.2 556.7 366.9 557.05 364.55 557.1 360.4 557.2 356.3 556.65 344.8 555.55 333.25 556.1 312.4 557.6 296.75 545.45 296.85 544.5 296.9 543.55
M 12.25 287.45
L 4.7 290.3
Q 3.5 296.7 10.15 299.5 12.25 300.4 14.4 301.45 25.2 306.95 37.3 307.7
L 12.25 287.45
M 59.4 243.55
Q 63.55 243.15 67.7 242.7 84 240.95 99.8 236.4 85.55 227.9 69.25 225.95 60.25 225.1 51.25 226.1
L 50.85 218.2 43.45 224.65 40.05 222.4 31.8 229.3 15.85 224.55 8.35 237.6 5.5 239.25
Q 11.25 246.85 20.55 249.6 30.65 252.4 40.95 253 48.15 244.65 59.4 243.55
M 276.6 110.6
L 269.75 107.45 268.5 104 259.6 101 227.25 115.65
Q 235.85 116.45 244.5 116 260.85 115.05 276.6 110.6
M 369.05 367.7
Q 374.4 366.05 377.85 361.15
L 371.8 356.65
Q 348.8 358 326.55 363.2 324.05 363.75 321.55 364.1
L 324.8 367.6 263.95 378.2
Q 264.75 381.3 270.6 383.2 283.55 387.4 297.35 388.2
L 293.05 391.95 322.35 391.05 312.9 388.2
Q 340.2 376.2 369.05 367.7
M 333.3 187.25
L 332.8 182.8 283.35 187.3 280.25 173.3
Q 271.5 182.05 261.5 188.95 257.05 192 251.4 193.2
L 249 200.15 193 213.75 222.55 223 230.35 210.65 233.85 213.65
Q 234.25 215.25 234.85 216.85 236.45 221 240.45 223.2 241.1 223.55 241.85 223.85 242.6 224.05 243.35 224.3 243.6 224.4 243.85 224.5
L 249.45 216.3 308.2 201.3 305.1 195.05 346 190.75 333.3 187.25
M 389.15 126.45
Q 391.7 125.5 389.25 124.25 388.45 123.8 387.65 123.45
L 387.65 127.55 389.15 126.45
M 358 58
L 350.3 68.9 348.7 64.25
Q 345.4 74.25 335.35 69.8 334.05 69.3 332.8 69.75 311.1 77.8 288 79.8
L 331.9 90.7 319.15 100.05
Q 334.7 105.65 351.45 105.3 354.5 105.25 357.55 105.8 374.65 108.25 389.95 100.75 377.15 90.8 360.95 89.65 360 90.1 359.25 89.3 358.8 88.9 358.45 88.4
L 389.2 76.95 388.7 72.75 358.6 66.35 358 58
M 172.15 57.7
Q 181.4 58.25 190.75 56.85 199.5 55.55 208.25 54.25 185.9 51.25 163.95 46.7 161.7 46.25 159.85 44.55
L 153.75 46.65 152.5 40.9 147.85 42.35 146.3 36.2 133.9 46.8 132.3 34.65 121.4 42.45 117.9 40.3 87.1 47.1
Q 89.4 50.1 93 50.2 112.5 50.75 129.4 60.5 131.5 61.75 133.55 60.35 143.55 53.9 154.2 59.25 163.2 57.35 172.15 57.7 Z"/>

<path fill="#E6BF25" stroke="none" d="
M 292.5 531.9
Q 297.2 536.8 296.9 543.55 296.85 544.5 296.75 545.45 312.4 557.6 333.25 556.1 344.8 555.55 356.3 556.65 360.4 557.2 364.55 557.1 366.9 557.05 369.2 556.7
L 375.2 556.85 386.15 548.6 359.75 540.05 358.5 536.6
Q 358.35 536.45 358.2 536.35 357.4 536.3 356.6 536.25 356 536.1 355.45 535.9 348.65 533.4 347.45 526.1 338.75 519.2 326.1 520.95 304.7 524.3 283.35 528.35
L 292.5 531.9
M 363.5 178.5
Q 363.05 180.35 362.4 182.2 361.85 183.8 361 185.35 360.6 186.1 360.1 186.8 359.6 187.45 359.05 188.1 356 191.8 351.1 191.25 348.55 191 346 190.75
L 305.1 195.05 308.2 201.3 249.45 216.3 243.85 224.5
Q 243.6 224.4 243.35 224.3 242.6 224.05 241.85 223.85 241.1 223.55 240.45 223.2 236.45 221 234.85 216.85 234.25 215.25 233.85 213.65
L 230.35 210.65 222.55 223
Q 221.55 231.65 212.75 232.75 212.1 232.75 211.5 232.8
L 209.6 235.9
Q 215.8 242.25 224 245.75 225 246.1 225.2 247.25 225.9 251.85 224.55 256.25
L 241.1 256.3
Q 244.3 249.7 250.75 248.3 267.45 244.5 284.45 242 293.65 240.85 302.9 240.8 302.6 254.65 316.25 256.6 317.25 256.6 318.35 256.25 329.5 252 333.65 263.85 334.6 266.55 335.8 269.25
L 333.45 274.6 342.5 283.85
Q 337.65 294 342.8 304.55 343.2 305.3 343 306.35 342.1 311.2 337.35 313.1 328.95 316.3 321.15 314.35 316.8 313.1 313.35 316.3 311.1 318.35 309.15 320.95
L 295.05 326.5 288.9 309.6 284.65 321.6 270.85 307.2
Q 267.6 316.9 276.2 322.35 276.85 322.8 277.5 323.3
L 261 338.95 259.4 352.5
Q 240.7 357.05 225.45 368.1 223.45 369.45 222.7 371.85 221.8 374.6 221.4 377.65 200.45 388.85 189.5 409.2 188.25 411.45 187.65 414.1 184.8 427.2 174.25 435.65
L 173.25 440.35 238.15 467.6 219.45 481.65 247.7 492.4 276.1 491.2
Q 284.9 501.4 298.45 499.15 300.1 499 301.8 498.95 303.45 498.95 305.1 498.75 286.9 488.9 279.05 470.95 273.25 457.75 259.95 452.05 278.8 437.4 302.3 444.55 304.35 445.15 306.65 445.1 310.05 444.75 313.25 443.65 320.5 447.8 327.65 443.4
L 321.9 429.25
Q 330.8 433.8 337.1 427.95
L 341.85 426.65 341.9 437.25
Q 357.2 437.45 371.1 429.4
L 372.15 426 381.3 422.7
Q 361.8 401.3 333.65 392.4 328.1 390.75 322.35 391.05
L 293.05 391.95 297.35 388.2
Q 283.55 387.4 270.6 383.2 264.75 381.3 263.95 378.2
L 324.8 367.6 321.55 364.1
Q 324.05 363.75 326.55 363.2 348.8 358 371.8 356.65
L 371.35 354.45 385.45 340.65 381.4 336.8 386 331.5 384.6 319.2 345.6 313.45
Q 353.2 311.8 360.2 308.65 371.85 303.55 381.1 294.85 387.8 288.5 395.25 283.6 394.75 279.55 390.7 275.85 389.6 274.8 388.45 273.8 387.35 272.8 386.1 272.1 376.8 267.1 368.15 261.25 366.7 260.25 365.65 258.7 365.9 257.9 366.25 257.15 366.55 256.35 367 255.7 367.9 254.4 369 253.3 369.55 252.75 370.2 252.3 370.95 251.95 371.75 251.75 375.6 250.3 379.8 250.1
L 387.65 241.8 349.55 223.75 349.5 212.2
Q 354.95 206.35 362.2 203.05 363.9 202.3 365.7 201.65 366.6 201.35 367.5 201.1 377.95 198.6 388.35 201.8
L 392.3 187.3 384.55 187.3 383.05 182.75 378.3 187.3 372.1 174.05 365.1 183.4 363.5 178.5
M 391.55 105.35
Q 391.55 104.55 390.95 104 390.4 103.45 389.6 103.45 388.8 103.45 388.2 104 387.65 104.55 387.65 105.35 387.65 106.15 388.2 106.7 388.8 107.25 389.6 107.25 390.4 107.25 390.95 106.7 391.55 106.15 391.55 105.35 Z"/>

<path fill="#837A75" stroke="none" d="
M 255.3 37.75
L 250.85 31.1
Q 229.3 34.9 207.45 34.95 193 34.95 181.5 43.3 181.2 43.1 180.95 42.95 168.55 34.55 156.95 43.45
L 159.85 44.55
Q 161.7 46.25 163.95 46.7 185.9 51.25 208.25 54.25
L 241.95 58.95 249.2 64.7
Q 249.65 64.5 250 64.2 262.3 55.2 277.25 58.4 278.2 52.55 274.1 48.25 270.9 44.95 266.45 44.1
L 267.5 32.75 262 31.4 255.3 37.75 Z"/>
</g>
</defs>

<g transform="matrix( 1, 0, 0, 1, 0.15,276.8) ">
<g transform="matrix( 1, 0, 0, 1, 0,0) ">
<use xlink:href="#Barren_ground_2_Layer1_0_FILL"/>
</g>
</g>
</svg>
