
<svg xmlns="http://www.w3.org/2000/svg" version="1.1" xmlns:xlink="http://www.w3.org/1999/xlink" preserveAspectRatio="none" x="0px" y="0px" width="1000px" height="800px" viewBox="0 0 1000 800">
<defs>
<g id="barren_prop_8_Layer1_0_FILL">
<path fill="#837A75" stroke="none" d="
M 184.35 221.35
Q 184.3 221.35 184.3 221.4
L 184.35 221.4 184.35 221.35
M 62.45 216
L 70.85 209.3 73.45 196.2 62.45 216
M 148.75 218.3
L 146.1 230.35 164.45 232.3 165.55 220.25 164 218.5 141.5 211.35 134.9 227.05 143.65 228.3 148.75 218.3
M 137.05 210.55
L 133.45 211.8 130.95 219.15 133.25 222.25 137.8 210.65 137.05 210.55
M 127.9 221.15
Q 127.65 219.3 127.75 217.5 128 213.4 129.5 209.5 93.4 207.9 60.9 223.45 59.25 224.2 57.65 225
L 61.55 234.6 68.85 234.25 60.25 237.05 54.05 228.25 50.15 231.4 52.75 239.45 57.9 245.15 47.9 242.15 45.9 233.8 45.65 233.4 41.65 316.2 41.2 325.3 45.55 331.35 46.7 330.25 62.75 315.2 64.45 303.3 66.5 317.1 75.05 315.6 53.15 339.1 100.65 354.7 103.45 344.65 104.35 353 108.4 355.65 112.1 355.95 117.7 347.4 116.8 356.15 126.4 356.3 160.95 347.95
Q 161.25 347.3 161.55 346.7 168 334.3 160.5 322.2 160.65 322.35 160.8 322.55 168.95 331.9 166.75 344 166.95 343.85 167.15 343.7 176.5 337.85 178 326.95 178.35 324.3 178.1 321.8 166.9 304.8 172 284.55 174.1 276.25 178.1 268.65
L 173.1 243.25 164.5 245.85 155.05 240.3 72.7 240.3 80.1 237.25
Q 100.55 222.75 125.3 225.65 127.7 225.95 130.1 226.25 129 224.95 128.45 223.45 128.05 222.3 127.9 221.15
M 105.8 278.6
Q 105.95 277.55 106.1 276.5
L 119.05 263.05 122.9 265.2 123.7 280.15 118.9 272 111.95 281.8 120.5 292.4 135.1 277.15 118.9 256 95.3 282.7
Q 98.8 288.95 102.55 295.1 104.05 297.65 105.95 300 107.7 302.25 109.7 304.35 110.15 304.85 110.7 305.3 113.45 307.45 116.25 309.65
L 133.45 301.2
Q 129.7 305.85 125.8 310.4 124.5 311.95 123 313.35 122.45 313.95 121.8 314.35 121.2 314.85 120.6 315.3 119.3 316.15 118 317 116.65 317.8 115.3 318.65 106.25 313.7 99.6 305.65 96.75 302.25 95.75 298.05 87.7 264.7 118.4 244.8 121.45 246.2 124.2 248.25 127.3 250.65 129.7 253.55 130.25 254.25 130.8 255 133.05 258.05 135.2 261.1 135.9 262.15 136.6 263.2 141.2 270.45 142.95 278.85 140.35 282.75 137.65 286.55 135.8 289.15 133.75 291.55 131.7 293.9 129.45 296.05 128.55 296.85 127.55 297.5 126.85 298.1 126.1 298.65 124.55 299.7 123.05 300.75 120.5 300.2 118.05 299.5 116.35 298.9 114.85 298 113.85 297.55 113.05 296.9 112.25 296.25 111.55 295.5 110.75 294.75 110.1 293.95 109.4 293.15 108.85 292.25 104.75 286.05 105.8 278.6
M 65.55 160.9
L 61.2 156.1 70.8 160.15 53.45 208.55 48.8 221.55 46.9 226.85 55.1 220.15
Q 59.25 208 67.25 198.2 70.15 194.6 73.15 191.05
L 76.8 193.25 81.75 201.1 103.65 201.1 96.45 192.25
Q 95.55 192.55 94.65 192.85 93.7 193 92.75 193.2 86.5 194.35 80.85 191.7 77.4 189.95 76.85 186.1
L 77.5 183.15 78.65 177.85 77.65 180.5 80.1 171.25 83.35 168.65 80.95 171.9 83.35 184.05 90.8 177.75 88.7 172.75 90.8 170.65 92.7 170.05 96.55 171.5 101.5 163.55 100.3 181.6 100.35 181.85 106.4 200.85
Q 119.4 198.85 132.25 201 142.35 202.45 149.95 209.15
L 163 213.1
Q 164.8 200.2 157.4 189.35 157.2 189 157.05 188.7
L 155.05 201.3 156.3 187.3 155.8 185.7 145.1 185.8 137.9 183.9 136.7 181.65 140.35 168.85 139.85 172.4 143.9 176.5 152.4 173.5 145.55 165.85 153.55 169.3 143.15 153.5
Q 119.7 149.5 96.1 153.05 92.7 153.7 89.35 154.4 72.7 136.2 53.35 152.55 38.95 164.75 42.05 183.75
L 48.1 187.65 65.55 160.9
M 179.6 294.75
L 178.15 274.8 171.5 302.8 178.85 311.45 179.6 294.75
M 173.4 141.8
L 167.75 144.9 156.6 139.6
Q 155.65 139.9 154.7 140.25 154.25 140.5 153.85 140.8 150.9 142.85 148.35 145.7 145.75 148.55 145.75 152.4 155.7 156.5 164.4 150.55 165.6 149.75 166.85 148.95 183.5 157.05 184.65 175.65
L 181.2 181.6 196.35 173.5 173.4 141.8 Z"/>

<path fill="#564A44" stroke="none" d="
M 116.8 356.15
L 117.7 347.4 112.1 355.95 116.8 356.15
M 64.45 303.3
L 62.75 315.2 46.7 330.25
Q 47.9501953125 333.2642578125 49.35 336.25 56.45 351.4 73.6 353.45 90.9 355.75 108.4 355.65
L 104.35 353 103.45 344.65 100.65 354.7 53.15 339.1 75.05 315.6 66.5 317.1 64.45 303.3
M 57.9 245.15
L 52.75 239.45 50.05 241.65 45.9 233.8 47.9 242.15 57.9 245.15
M 45.65 233.4
L 46.9 226.85 48.8 221.55
Q 27.631640625 269.7279296875 41.65 316.2
L 45.65 233.4
M 57.65 225
L 54.05 228.25 60.25 237.05 68.85 234.25 61.55 234.6 57.65 225
M 157.05 188.7
Q 157.2 189 157.4 189.35 164.8 200.2 163 213.1
L 167.9 215.8 163.75 194.05 157.05 188.7
M 156.9 178.8
L 152.4 173.5 143.9 176.5 139.85 172.4 137.95 179.95 156.9 178.8
M 136.7 181.65
L 137.9 183.9 145.1 185.8 136.7 181.65
M 96.55 171.5
L 92.7 170.05 100.3 181.6 101.5 163.55 96.55 171.5
M 78.65 177.85
L 77.5 183.15
Q 83.9 187 91 184.65 92 184.3 93 184
L 90.8 170.65 88.7 172.75 90.8 177.75 83.35 184.05 80.95 171.9 78.65 177.85
M 79.25 187.3
Q 78.05 186.7 76.85 186.1 77.4 189.95 80.85 191.7 86.5 194.35 92.75 193.2 93.7 193 94.65 192.85 95.55 192.55 96.45 192.25
L 103.65 201.1 81.75 201.1 76.8 193.25 77.7 205.7 73.45 196.2 70.85 209.3 62.45 216
Q 102.45 200.6 144.7 208.2 147.3 208.65 149.95 209.15 142.35 202.45 132.25 201 119.4 198.85 106.4 200.85
L 100.35 181.85
Q 92.2 193.8 79.25 187.3
M 61.2 156.1
L 65.55 160.9 48.1 187.65
Q 53.9 195.95 53.55 205.95 53.5 207.25 53.45 208.55
L 70.8 160.15 61.2 156.1
M 196.35 173.5
L 181.2 181.6 184.65 175.65
Q 183.5 157.05 166.85 148.95 165.6 149.75 164.4 150.55 155.7 156.5 145.75 152.4
L 143.15 153.5 153.55 169.3 161.75 180.95 155.8 185.7 156.3 187.3 156.85 185.35
Q 170.15 198.05 171.1 216.5 177.05 221.9 177.9 229.95 178.15 232.2 177.6 234.3
L 165.55 220.25 164.45 232.3 146.1 230.35 148.75 218.3 143.65 228.3 134.9 227.05 141.5 211.35 137.8 210.65 133.25 222.25 130.95 219.15 133.45 211.8 137.05 210.55 129.5 209.5
Q 128 213.4 127.75 217.5 127.65 219.3 127.9 221.15 128.05 222.3 128.45 223.45 129 224.95 130.1 226.25 127.7 225.95 125.3 225.65 100.55 222.75 80.1 237.25 116.35 227.35 151.65 239.15 153.35 239.7 155.05 240.3
L 164.5 245.85 173.1 243.25 178.1 268.65
Q 174.1 276.25 172 284.55 166.9 304.8 178.1 321.8 178.35 324.3 178 326.95 176.5 337.85 167.15 343.7 166.95 343.85 166.75 344 168.95 331.9 160.8 322.55 160.65 322.35 160.5 322.2 168 334.3 161.55 346.7 161.25 347.3 160.95 347.95
L 126.4 356.3
Q 158.65 356.4 187.1 341.2 187.7521484375 340.8376953125 188.4 340.45 189.9876953125 339.5732421875 191.55 338.65 194.24140625 323.6134765625 195.1 308.7 197.6890625 264.5556640625 184.35 221.4
L 184.3 221.4
Q 184.3 221.35 184.35 221.35
L 181.1 194.65 198.35 177.35 196.35 173.5
M 178.15 274.8
L 179.6 294.75 178.85 311.45 171.5 302.8 178.15 274.8 Z"/>

<path fill="#000000" stroke="none" d="
M 155.05 240.3
Q 153.35 239.7 151.65 239.15 116.35 227.35 80.1 237.25
L 72.7 240.3 155.05 240.3
M 153.55 169.3
L 145.55 165.85 152.4 173.5 156.9 178.8 137.95 179.95 139.85 172.4 140.35 168.85 136.7 181.65 145.1 185.8 155.8 185.7 161.75 180.95 153.55 169.3
M 76.8 193.25
L 73.15 191.05
Q 70.15 194.6 67.25 198.2 59.25 208 55.1 220.15
L 46.9 226.85 45.65 233.4 45.9 233.8 50.05 241.65 52.75 239.45 50.15 231.4 54.05 228.25 57.65 225
Q 59.25 224.2 60.9 223.45 93.4 207.9 129.5 209.5
L 137.05 210.55 137.8 210.65 141.5 211.35 164 218.5 165.55 220.25 177.6 234.3
Q 178.15 232.2 177.9 229.95 177.05 221.9 171.1 216.5 170.15 198.05 156.85 185.35
L 156.3 187.3 155.05 201.3 157.05 188.7 163.75 194.05 167.9 215.8 163 213.1 149.95 209.15
Q 147.3 208.65 144.7 208.2 102.45 200.6 62.45 216
L 73.45 196.2 77.7 205.7 76.8 193.25
M 77.65 180.5
L 78.65 177.85 80.95 171.9 83.35 168.65 80.1 171.25 77.65 180.5
M 76.85 186.1
Q 78.05 186.7 79.25 187.3 92.2 193.8 100.35 181.85
L 100.3 181.6 92.7 170.05 90.8 170.65 93 184
Q 92 184.3 91 184.65 83.9 187 77.5 183.15
L 76.85 186.1
M 167.75 144.9
L 173.4 141.8 196.35 173.5 198.35 177.35 181.1 194.65 184.35 221.35 184.35 221.4
Q 197.6890625 264.5556640625 195.1 308.7 203.111328125 252.8171875 184.25 197.4 187.9 196 190.25 193.25 211.05 169.3 186.2 148.9 161.15 128.3 140.5 147.9 106.7 152.3 75.85 137.75 65.8 139.4 57 144.6 38.3 155.6 32.5 176.45
L 46.4 194.6
Q 22.75 267.2 38.1 340.85 107 382.45 179.5 350.3 186.55 347.1 188.35 340.65 188.375 340.5609375 188.4 340.45 187.7521484375 340.8376953125 187.1 341.2 158.65 356.4 126.4 356.3
L 116.8 356.15 112.1 355.95 108.4 355.65
Q 90.9 355.75 73.6 353.45 56.45 351.4 49.35 336.25 47.9501953125 333.2642578125 46.7 330.25
L 45.55 331.35 41.2 325.3 41.65 316.2
Q 27.631640625 269.7279296875 48.8 221.55
L 53.45 208.55
Q 53.5 207.25 53.55 205.95 53.9 195.95 48.1 187.65
L 42.05 183.75
Q 38.95 164.75 53.35 152.55 72.7 136.2 89.35 154.4 92.7 153.7 96.1 153.05 119.7 149.5 143.15 153.5
L 145.75 152.4
Q 145.75 148.55 148.35 145.7 150.9 142.85 153.85 140.8 154.25 140.5 154.7 140.25 155.65 139.9 156.6 139.6
L 167.75 144.9 Z"/>

<path fill="#FF9900" stroke="none" d="
M 106.1 276.5
Q 105.95 277.55 105.8 278.6 104.75 286.05 108.85 292.25 109.4 293.15 110.1 293.95 110.75 294.75 111.55 295.5 112.25 296.25 113.05 296.9 113.85 297.55 114.85 298 116.35 298.9 118.05 299.5 120.5 300.2 123.05 300.75 124.55 299.7 126.1 298.65 126.85 298.1 127.55 297.5 128.55 296.85 129.45 296.05 131.7 293.9 133.75 291.55 135.8 289.15 137.65 286.55 140.35 282.75 142.95 278.85 141.2 270.45 136.6 263.2 135.9 262.15 135.2 261.1 133.05 258.05 130.8 255 130.25 254.25 129.7 253.55 127.3 250.65 124.2 248.25 121.45 246.2 118.4 244.8 87.7 264.7 95.75 298.05 96.75 302.25 99.6 305.65 106.25 313.7 115.3 318.65 116.65 317.8 118 317 119.3 316.15 120.6 315.3 121.2 314.85 121.8 314.35 122.45 313.95 123 313.35 124.5 311.95 125.8 310.4 129.7 305.85 133.45 301.2
L 116.25 309.65
Q 113.45 307.45 110.7 305.3 110.15 304.85 109.7 304.35 107.7 302.25 105.95 300 104.05 297.65 102.55 295.1 98.8 288.95 95.3 282.7
L 118.9 256 135.1 277.15 120.5 292.4 111.95 281.8 118.9 272 123.7 280.15 122.9 265.2 119.05 263.05 106.1 276.5 Z"/>
</g>
</defs>

<g transform="matrix( 1, 0, 0, 1, 374.95,127.8) ">
<g transform="matrix( 1, 0, 0, 1, 0,0) ">
<use xlink:href="#barren_prop_8_Layer1_0_FILL"/>
</g>
</g>
</svg>
