
<svg xmlns="http://www.w3.org/2000/svg" version="1.1" xmlns:xlink="http://www.w3.org/1999/xlink" preserveAspectRatio="none" x="0px" y="0px" width="1000px" height="800px" viewBox="0 0 1000 800">
<defs>
<g id="barren_prop_35_Layer1_0_FILL">
<path fill="#000000" stroke="none" d="
M 99.05 268.4
Q 98.8 267.5 98.55 266.6 102 305.35 86.15 341.65 110.65 309.95 99.05 268.4
M 127.35 195.15
Q 138.15 183.95 144.15 169.45
L 156.8 130.4
Q 141.05 172.9 110.5 207.4 108.55 167.85 107.55 141.1 100.75 179.6 110 214.45
L 123.05 199.85
Q 125.15 197.45 127.35 195.15
M 72.7 32.05
L 75.6 5.35 76.7 -6.65
Q 72.75 5.25 69.95 17.6 59.6 63.4 82.3 104.4
L 83.5 104.65
Q 95.7 136.3 89.65 169.4 83.8 201.3 91.9 232.15 87.35 192.85 96.5 153.3 96.55 152.05 96.6 150.85 97.4 137.2 93.35 124.05
L 83.65 92.8 71.85 68.9
Q 71.6 68.05 71.4 67.25 67.15 49.6 72.7 32.05
M 115.2 64.1
Q 115.15 64.15 115.1 64.25 112.3 67.9 108.95 71 96.9 82.2 99.05 97.8
L 105.85 120.1
Q 98.95 95.55 109.5 76.55 112.55 71.05 115.2 64.1
M 168.5 87.3
Q 166.4 98.7 163.45 109.6
L 159.45 128.35
Q 158.85 131.45 158.9 134.6 159.3 159.1 147.15 179.4
L 145.2 181.9
Q 125.05 206.9 118.15 237.7 105 296.7 133.45 345.45
L 134.2 346.65
Q 114.9 300.95 119.15 250.2 120.1 238.55 125.85 228.9 164.8 163.65 168.5 87.3
M 116.95 -75.7
Q 116.45 -73.55 115.6 -71.5 101.25 -36.85 77.05 -7.5 106.5 -32.15 115.35 -67.9 116 -59.5 111.85 -52.55 92.55 -20.25 85.15 15.75
L 80.2 44.1
Q 79.85 45.35 79.55 46.65 77.75 55.25 82.2 62.65
L 94.85 79.15
Q 95.75 78.65 96.6 78.1 109.55 70.5 115.45 56.75
L 122.4 40
Q 123.25 36.2 124.1 32.2 116.65 59.25 94.75 77.2 76 52.4 85.25 20.55 88.15 10.65 93.4 2.1 115.8 -34.5 116.95 -75.7 Z"/>

<path fill="#CDC2A6" stroke="none" d="
M 147.15 179.4
L 144.15 169.45
Q 138.15 183.95 127.35 195.15 125.15 197.45 123.05 199.85
L 145.2 181.9 147.15 179.4
M 103 163.7
L 96.5 153.3
Q 87.35 192.85 91.9 232.15 92.25 233.4 92.6 234.7 97.15 250.85 98.55 266.6 98.8 267.5 99.05 268.4 110.65 309.95 86.15 341.65 86.15 346.4 90.6 349.75 95 353.1 101.3 353.1 117.6 295.15 102.75 236.25 93.6 200.05 103 163.7
M 101.15 199.15
L 101.2 215 102.7 190.9 101.15 199.15
M 79.55 46.65
Q 79.85 45.35 80.2 44.1
L 72.7 32.05
Q 67.15 49.6 71.4 67.25 71.6 68.05 71.85 68.9
L 82.2 62.65
Q 77.75 55.25 79.55 46.65
M 99.05 97.8
Q 91 98.6 84.65 93.6 84.15 93.15 83.65 92.8
L 93.35 124.05 106.35 121.9 106.4 121.9 105.85 120.1 99.05 97.8
M 123.05 38.4
L 122.4 40 115.45 56.75 115.1 64.25
Q 115.15 64.15 115.2 64.1 126.05 53.7 124 38.65 124 38.5 124 38.4
L 123.05 38.4
M 163.45 109.6
L 163.55 109 157.85 127.1 159.45 128.35 163.45 109.6
M 77.05 -7.5
L 76.7 -6.65 75.6 5.35
Q 82.4 8.35 85 15.35 85.05 15.55 85.15 15.75 92.55 -20.25 111.85 -52.55 116 -59.5 115.35 -67.9 106.5 -32.15 77.05 -7.5 Z"/>

<path fill="#7B7567" stroke="none" d="
M 106.35 121.9
L 93.35 124.05
Q 97.4 137.2 96.6 150.85 96.55 152.05 96.5 153.3
L 103 163.7
Q 93.6 200.05 102.75 236.25 117.6 295.15 101.3 353.1 115 357.15 122.5 345.75 123.2 346.1 123.85 346.55 129.15 350 133.45 345.45 105 296.7 118.15 237.7 125.05 206.9 145.2 181.9
L 123.05 199.85 110 214.45
Q 100.75 179.6 107.55 141.1 107.15 132.25 106.95 124.8 106.9 124.2 106.9 123.65 106.65 122.75 106.4 121.9
L 106.35 121.9
M 101.2 215
L 101.15 199.15 102.7 190.9 101.2 215
M 159.45 128.35
L 157.85 127.1 156.8 130.4 144.15 169.45 147.15 179.4
Q 159.3 159.1 158.9 134.6 158.85 131.45 159.45 128.35
M 108.95 71
Q 112.3 67.9 115.1 64.25
L 115.45 56.75
Q 109.55 70.5 96.6 78.1 95.75 78.65 94.85 79.15
L 82.2 62.65 71.85 68.9 83.65 92.8
Q 84.15 93.15 84.65 93.6 91 98.6 99.05 97.8 96.9 82.2 108.95 71
M 85.15 15.75
Q 85.05 15.55 85 15.35 82.4 8.35 75.6 5.35
L 72.7 32.05 80.2 44.1 85.15 15.75 Z"/>
</g>

<g id="barren_prop_35_Layer0_0_FILL">
<path fill="#000000" stroke="none" d="
M 160.05 196.3
Q 145.15 174.05 121.05 191.25 97.05 173.75 70.95 196.5
L 77.9 209.85
Q 60.5 210.75 59 226.15 65.95 233.9 76.35 233.2
L 77.35 231.7
Q 78.1 231.45 78.8 231.15 83.7 229.1 84.45 223.9 90.05 229.35 97.85 228.65 98.45 227.5 99.15 226.45 101.3 223.45 104.85 223.05
L 106.95 229.2
Q 107.95 229.6 109 230 116.3 232.65 120.95 226.6
L 129.8 224.9
Q 141.55 207.7 160.05 196.3
M 83.15 194.1
L 97.05 187.8 103.35 185.2 105.7 187.4 109.55 187.25 111.95 187.5 121.3 196.3 126.7 192.65 137.75 189.2 143.9 187.25 152.55 190.45 154.75 191.35 156.55 197.3 143.25 201.9 141.15 207.1
Q 140.25 207.2 139.35 207.35 133.4 208.95 130.25 214.5
L 129.85 215.4 127.65 222.6 109.6 227.25 106.35 219
Q 104.35 219.1 102.4 219.9 98.7 221.35 96.2 224.3 95.6 225 95 225.7 94.9 225.85 94.8 226 91.3 222.05 86.4 220.6 84.95 220.2 83.55 219.85 82.85 219.85 82.15 219.85
L 73.4 230.8 62.2 221.6 67.7 216.15
Q 68.7 216.15 69.7 216.15 76.6 216 81.95 211.7
L 74.75 197.85 83.15 194.1
M 188.85 96.5
L 186.9 92.7
Q 186.65 92.5 186.45 92.35 169.4 90.7 155.25 83.55
L 144.25 90.85 136 85.85
Q 135.15 86.05 134.3 86.3 122.85 87.7 120.5 98.8 117.65 97.15 114.35 96.5 93.8 92.6 85.2 111.5
L 87.15 116.6 76.1 122.6
Q 74.4 132.8 84.35 135.8 90 137.4 95.9 136.2 97.3 139.75 100.6 141.6 104.8 144.05 109.2 142.05 112.65 140.55 112.4 136.4
L 123.35 136.75
Q 123.85 137.75 124.35 138.75 127.75 145.75 135.3 146.7
L 144.05 141.45
Q 146.05 141.6 148.05 141.75 158.15 143.4 162.75 134.6
L 167.45 145.65
Q 168.85 146 170.25 146.35 175.95 145.7 179.65 141.4 182.3 142.05 184.75 140.8 192.95 136.65 197 128.15 224.1 133.05 234.75 113.1 223.95 99.5 206 99.15 205.45 98.45 204.75 98 197.15 92.85 188.85 96.5
M 169.55 93.2
Q 177.6 91.7 184.15 96.4
L 184.4 100.45 186.5 103.65 188.8 103.4
Q 190.75 101.6 193.15 100.65 197.15 99.25 200.9 100.9
L 202.75 105.95 205.55 107.55
Q 205.8 107.55 206.05 107.55 216.8 105.05 226.6 110.1
L 227.15 117.45
Q 208.4 120.35 192.3 127.5 185.35 139.05 169.6 141.9 169.35 138.05 167.95 134.4 166.9 131.7 164.45 129.9
L 154.55 137.65 146.25 135.5 133.8 143.65 125.95 130.5
Q 123.9 130.2 121.85 130.2 111.6 130.25 106.75 139.45
L 96.8 131.45 83.5 132.75
Q 81.6 131.25 80.8 128.95 79.75 126.1 80.4 123.2 86.35 122.45 91.65 119.6 93.95 118.3 93.8 115.6
L 88.65 110.85
Q 89.1 110.25 89.6 109.7 99.4 98.75 114 99.75
L 117.3 102 123.1 103.2 125 96.2 135.75 90.05 147.45 95.95 151.9 89.25 153.9 88.4 158.85 91.4 159.2 96.05 161.7 97.2 166.1 93.4
Q 167.85 93.4 169.55 93.2
M 132.55 -85
L 122.45 -77.25
Q 121.65 -77.85 120.9 -78.45 115.1 -82.65 109.05 -78.8
L 97.5 -79.05
Q 93.55 -70.15 84.5 -67
L 84.95 -59.5
Q 89.9 -53.65 97.35 -56
L 108.3 -48.55 118.35 -51.7 123.85 -47.35
Q 128.95 -48 132.85 -51.25 140.5 -57.55 140.45 -67.4 141.7 -67.75 142.95 -68.05 143.5 -68.3 144.1 -68.5 144.65 -68.85 145.2 -69.15 149.5 -71.45 150.2 -76.35 143.35 -84.5 132.55 -85
M 145.2 -77.1
L 146.45 -74.9 137.65 -68.75
Q 137.55 -63.9 135.45 -59.7 131.8 -52.5 123.95 -50.45
L 118.9 -56.4 106.5 -52
Q 99.75 -57 101.3 -65.45
L 99.8 -66.4 94.25 -59.15 87.7 -60.65 89 -64.8
Q 89.6 -65.05 90.25 -65.25 94.8 -66.85 95.65 -71.5
L 95.8 -71.9 98.2 -76.6 110.85 -75.35 117.65 -76.85 120.1 -73.9 121.4 -72.2 127.85 -75.75 133.75 -81.75 136.95 -80.5 141.45 -79.2 145.2 -77.1
M 18.35 -14.8
L 22.25 -2.1 7 2.8
Q 3.45 10.3 8.55 17 14 24.2 22.75 23.2 27.1 23.05 30.3 20.5 18.05 16.5 8.5 8.4
L 17.95 4.05 26.85 -0.65 21.05 -13.95
Q 37.45 -21.55 55.55 -23.45
L 54.35 -29.4
Q 55.8 -33.4 58.4 -36.95 59.3 -38.1 60.4 -39.15 61.4 -40.15 62.5 -41 69.5 -46.2 78.1 -44.45
L 80.15 -40.95 78.65 -27.8 97.1 -29.2 107 -38.1 120.95 -28.85 117.9 -19.9
Q 118.6 -20.4 119.25 -20.9 130.1 -28.75 135.85 -17.9
L 132.45 -12.45
Q 131.2 -9.8 131.6 -6.95 132.05 -3.6 135.25 -2.15
L 144.45 -10.75 148.9 -8.65
Q 150.05 -9.15 151.3 -9.5 159.6 -12.5 167.9 -9.65
L 175.85 -2.85
Q 175 -2.7 174.2 -2.55 162 -0.25 161.8 12 162.45 12.75 163.15 13.45 167.85 18.35 174.05 16.05
L 176.05 14.05
Q 176.05 13.95 176.1 13.9 182.25 18.3 188.65 14.3
L 203.55 14.6 206.25 16.35 214.95 21.85
Q 213.3 23.1 211.65 24.3 209.95 25.45 208.2 26.55 197.8 33.1 185.55 35 185.1 40.95 181.2 45.3 174.4 53.05 164.15 53.25 156.85 53.35 153.65 60.65
L 156.95 64.05
Q 155.6 68.8 152.5 72.6 152.15 73.05 151.75 73.4 150.4 74.75 148.85 75.8 144.05 78.95 138.8 76.8
L 140.9 70
Q 140.35 69.45 139.75 69.05 138.55 68 137.3 67.15 128.75 61.8 119.3 65.3
L 119.2 69.15 100.05 71.15
Q 99.25 72.1 98.5 73.1 97.35 74.5 95.8 75.7 91.4 79.1 85.95 78.35
L 76.5 69.8 69.05 79.95 57.75 77.95 55.6 69.3
Q 52.55 71.15 49.05 70.55 46.6 70.35 44.7 69
L 49.2 63.15 50.85 60.35 64.25 57.4
Q 64.55 56.3 64.95 55.2 66.55 50.45 71.5 49.25
L 73 51.8 82.3 43.85
Q 88.4 48.15 95.8 47.45 98.9 47.05 101.5 45.45
L 105.05 31.4 104.5 27.3 99.65 22.45 83.2 23.8 75.4 19.3
Q 72.45 20.4 69.45 21.4 61.8 24 53.75 23.35
L 54.4 17.05 51.3 15.45 49.35 18.5
Q 48.55 24.2 42.45 23.3 36.6 22.45 31.25 20.8 32.55 22.5 34.1 24.2 36.95 27.4 41.05 28.15 44.3 28.95 47.45 27.85 49.75 27.1 51.5 25.75
L 53.9 26.75 76.6 22.1 85.55 28.9 100.1 26.55 97.25 43.35
Q 94.25 41.6 90.9 41.3 84.95 40.4 79.45 43.1 75.9 44.85 72.7 47
L 69.95 46.9 60.8 54.2
Q 60.95 52.2 60.1 50.25 59.05 47.85 56.85 46.2 55.4 45.05 53.5 44.9 52.8 44.9 52.15 44.9 51.4 44.95 50.7 45 44.7 34.15 30.3 35.5 17.05 37 6.25 45.3
L 9.1 59.05
Q 5.75 58.25 2.45 58.85 -1.55 59.5 -4.4 62.3 -5.1 63.05 -5.75 63.85 -6.5 64.65 -7.15 65.5 -6.25 72.45 -1 76.7 5.35 82 13.3 79.75 17.8 78.5 20.95 75.45
L 26.95 78.55
Q 29.05 77.4 31.05 76.15 35.05 73.8 38.25 70.15 39.05 69.25 39.75 68.3 40.5 67.3 41.2 66.3
L 43.45 66.5 43.95 71.1 54.6 73.35
Q 54.85 74.4 55.4 75.4 58.95 81.9 66.55 82.25 72 82.7 75.4 78.8 76.95 77.05 77.1 74.75 77.5 75.4 77.9 76.1 79.2 78.15 80.95 79.4 82.4 80.45 83.95 81.3 84.7 81.7 85.55 82 86.4 82.15 87.3 82.3
L 107.6 74.3
Q 109.45 74.5 111.35 74.75 114.85 74.65 117.8 73.1 120.4 71.8 122 69.55 122.4 68.9 122.75 68.3 123.1 67.6 123.45 66.9
L 137.1 71.4 135.8 77.55
Q 140.55 83.1 147.55 80.7 155.45 77.95 158.6 70.45 160.55 65.9 160 60.9
L 156.75 58.9 163.25 53.95
Q 170.6 57.35 177.8 53.6 183.65 50.6 186.25 44.65 187.75 41.1 188.1 37.25 191.6 37.15 194.9 36.55 204.4 34.85 212.4 29.65 217 26.7 220.7 22.85
L 220.65 21.35
Q 213.35 13.1 202.8 10.55 185.4 6.15 169.25 14.05
L 163.95 8.1
Q 165.2 6.35 166.85 5.2 173 0.8 179.55 -2.95
L 177.7 -6.85
Q 173.65 -11.15 168.15 -13.4 162.05 -15.9 155.7 -14.6 152.7 -14.15 149.85 -12.9
L 139.3 -15.5
Q 140.5 -20.15 137.6 -24.25 134.8 -28.35 130.1 -29.4 128.1 -29.85 126.05 -30.1 122.6 -35.9 116.25 -38.6 109 -41.75 102.4 -37.5 99.65 -35.65 97.55 -33.15
L 84.55 -30.85
Q 87.15 -55.5 62.5 -45.05 51.65 -40.35 48.4 -28.7 36.45 -28.4 26.55 -21.8 21.95 -18.8 18.35 -14.8
M 134.35 -5.95
L 135.3 -11.65 137.85 -13.8 134.35 -5.95
M 45.35 42.2
Q 48.45 44.1 48.45 46.8
L 54.35 47.7 56.35 54.8 45.9 62.95 42.5 63.35 40.95 61.65 38.2 62.45 26.35 74.85
Q 21.65 72.15 16.65 73.2 14.3 73.85 12.6 75.55 12.15 75.95 11.7 76.4 10.9 77.35 10.1 78.3
L -1.45 74.05 -4 65.55 5.25 61.5
Q 5.75 61.65 6.25 61.85 10.15 63.55 12.7 60.15
L 12.15 56.75 8.85 54.25 9 52 7.85 45.3 17.35 41.9 20.25 40.75 24.9 40.05 28.15 43 37.9 40.25
Q 37.95 40.25 38 40.25
L 38.25 40.25
Q 42.3978515625 40.3302734375 45.35 42.2 Z"/>

<path fill="#CC9900" stroke="none" d="
M 81.2 216.1
Q 82.6 214.15 81.95 211.7 76.6 216 69.7 216.15 68.7 216.15 67.7 216.15
L 62.2 221.6 70.95 224.5 73.6 219.4
Q 74.05 219.4 74.55 219.4 78.85 219.55 81.2 216.1
M 97.45 198.6
Q 97.05 198.55 96.75 198.95 96.4 199.3 96.35 199.9
L 98.3 200.1
Q 98.4 199.55 98.15 199.1 97.85 198.65 97.45 198.6
M 137.75 189.2
L 138.4 191.65 136.6 195 146.55 197.65 151.9 194.7 152.55 190.45 143.9 187.25 137.75 189.2
M 104.2 188.05
L 105.7 187.4 103.35 185.2 97.05 187.8 104.2 188.05
M 110.95 194.4
Q 110.9 194.5 110.85 194.6
L 115.45 197.7
Q 116.85 202.4 112.6 204.7 110.05 206 107.55 204.75
L 105.75 206.35 103.85 204.65 105.3 202.35 100 201.25 97.6 203.5 96 202.2 91.3 208.75 94.65 215.8
Q 96.4 214.55 98.2 213.45 98.7 213.2 99.3 213.05 100.45 212.95 101.6 212.95 103.75 213 105.65 214
L 113.75 211.55 129.85 215.4 130.25 214.5 123.3 212.7
Q 122.7 209.6 120.85 207.05 119 204.5 116.3 202.75
L 119.3 201.35 120.25 197.45 123.6 196.5 126.9 200.4 123.1 203.65 125.6 208.85 133.95 208.05 132.3 192.5 127.85 193.85 126.7 192.65 121.3 196.3 111.95 187.5 109.55 187.25
Q 112.7 190.35 110.95 194.4
M 1.15 48.6
Q 3.35 49.35 1.25 47.75
L 1.15 48.6
M 114 99.75
Q 114 100.7 115 101.35 115.95 102 117.3 102
L 114 99.75
M 188.8 103.4
L 186.5 103.65 184.4 100.45 181.55 103.05 186 104.1 186.75 108.5 177.95 112.9 174.9 112 174.1 110 176.9 107.05 178.5 107.35 180.35 103.75
Q 175.25 104.8 173.7 99.85 173.45 99.05 173.25 98.3
L 178.4 101.1 180.5 97
Q 168.5 94.6 160.5 103.9 157.75 103.55 157.1 100.95 156.6 99.1 156.25 97.2
L 154 98.35 150.7 96.6 147.3 102.45 151.4 105.75 161.5 106.55
Q 161.7 106.9 161.9 107.3 162.1 107.6 162.2 107.95 163.4 111.3 161.05 113.85 160.85 114 160.65 114.1 160.45 114.3 160.2 114.45 156.1 115.7 152.85 112.95 152.2 113.2 151.6 113.45 151.3 113.55 151 113.7 147.35 114.7 144.25 112.65
L 134.55 112.85
Q 134.85 113.3 135.15 113.75 136.2 115.2 136.1 116.9 135.7 122.2 130.3 122.4
L 123.6 116.9 120.6 115.9 115.35 115.7 115.05 116.05 118.75 119.3 115.1 124.65
Q 114.7 124.65 114.35 124.65 111.7 124.7 110.5 122.25 109.4 119.9 110.7 117.65
L 107 114.8 103.5 117.85 97.85 113.55 101.6 108.65 106.6 110.65 110.7 107.2 109.55 105.45 94.15 107.25
Q 97.45 110.95 95.05 115.15 91.25 121.8 86.7 127.85
L 99.85 121.35 102.7 130.4 107.65 133.75
Q 119.55 126.6 133.5 126.4 134.65 124.4 136.7 123.35 138.3 122.5 140.05 122.85 142.4 123.35 143.9 125.15 144.5 126.15 144.45 127.4 144.4 128.6 143.85 129.55 142.85 131.3 141 132.1 139.9 132.5 138.8 132.8
L 137.3 135.95
Q 141.1 136.35 143.95 134.15 149.6 129.8 156.55 130.6 161.6 127.25 165.05 122.3 167.85 118.35 172.55 117.05
L 174 118.95 190.7 122.8 195.05 110.7 200.7 108.85 202.75 105.95 200.9 100.9
Q 197.15 99.25 193.15 100.65 190.75 101.6 188.8 103.4
M 163.95 108.35
Q 163.95 106.85 165.05 105.8 166.1 104.75 167.6 104.75 169.1 104.75 170.2 105.8 171.25 106.85 171.25 108.35 171.25 109.85 170.2 110.9 169.1 111.95 167.6 111.95 166.1 111.95 165.05 110.9 163.95 109.85 163.95 108.35
M 149.9 119.9
Q 149.35 119.35 149.35 118.6 149.35 117.85 149.9 117.3 150.4 116.75 151.15 116.75 151.9 116.75 152.45 117.3 152.95 117.85 152.95 118.6 152.95 119.35 152.45 119.9 151.9 120.45 151.15 120.45 150.4 120.45 149.9 119.9
M 226.6 110.1
Q 216.8 105.05 206.05 107.55 205.8 107.55 205.55 107.55
L 201.75 114.85
Q 211.15 118.85 220.35 114.45 223.75 112.9 226.6 110.1
M 132.75 -66.45
L 131.7 -69.65
Q 127.5 -67.4 123.95 -70.6 123.65 -70.9 123.35 -71.2 115.15 -64.45 109.1 -72.95 108.65 -73.65 108.2 -74.3 101.5 -75.35 95.8 -71.9
L 95.65 -71.5
Q 99.55 -70.6 102.05 -67.65 105.55 -63.5 110 -60.55 110.65 -61.15 111.35 -61.75 120.95 -69.55 132.1 -64.5
L 132.75 -66.45
M 141.45 -79.2
L 139.4 -79.3 134.9 -73.65 137.25 -70.05 145.2 -77.1 141.45 -79.2
M 73.7 62.3
L 62.65 64.45 64.15 68 71.85 70.6 74.6 67.25 73.7 62.3
M 57.05 6.15
L 56.45 4 54.2 4.25
Q 46 14.35 33.55 10.5 32.7 10.2 31.85 9.9
L 23.7 12.85
Q 32.65 12.6 39.5 18.25 40.45 19.05 41.4 19.85
L 48.55 16.2 49.35 18.5 51.3 15.45 57.05 6.15
M 105.05 31.4
L 106.55 30.7
Q 106.55 29.8 107.35 29.15 108.1 28.5 109.2 28.5
L 104.5 27.3 105.05 31.4
M 111.75 27.75
L 114.2 28.55 115.35 25.8 111.75 27.75
M 48.2 -14.75
L 45 -13.95 42.85 -15.15
Q 42 -12.3 40.7 -14.25 40.55 -14.45 40.45 -14.6
L 42.55 -15.55 42.45 -19.9 27.75 -16.7 41.15 -0.4 59 1.1
Q 59.2 1.95 59.35 2.85 59.45 3.4 59.5 3.95 59.55 4.4 59.55 4.9 59.45 8.6 57.35 11.6
L 61.45 15.55
Q 62.6 14.85 63.75 14.15 64.3 13.85 64.85 13.6 75.7 9.55 86.4 14.1 89.85 15.5 92.9 17.45
L 99.2 15.35
Q 98.95 14.85 98.75 14.4 98.5 13.85 98.35 13.3 98.2 12.7 98.2 12.15 98.35 5.95 104.45 4.9 104.7 4.95 105 5.05 105.65 5.4 106.25 5.85 106.55 6 106.75 6.3 110.65 11.65 105.75 16.35 106.25 16.65 106.75 16.95 107.2 17.2 107.7 17.45 109.55 17.95 111.5 17.75 119.45 16.75 126.4 13.45
L 127.8 7.85 128.4 15.95 138.55 19.8 141.05 17.3 147.05 20.6 144.55 24.4 140.05 23.3 139.4 27.85 129.5 26.75
Q 126.95 30.4 124.3 33.95 123.3 35.25 121.8 35.65 120.2 36.15 118.6 36.5 117 36.05 115.4 35.6
L 111.1 37.8 108.25 36.95 107 43.75
Q 107.65 43.85 108.3 43.95 112.45 44.9 112.9 49.1
L 111.4 50.75 107.3 56.25 106.95 61.65 103.8 62.7 94.45 55.1
Q 94.25 55.4 94 55.75 93.8 56.05 93.55 56.3 93.3 56.6 93.05 56.85 92.75 57.1 92.45 57.35 90.2 59.05 87.6 58.1
L 84.55 60.85 89.15 68.5 92.6 63.75
Q 92.6 61.5 93.25 59.9 93.85 58.3 94.7 58.3 95.55 58.3 96.2 59.9 96.8 61.5 96.8 63.75
L 111.95 66.35 113.95 68.2 119.15 61.8 118.25 58.3 125.3 50.35 123.15 55.8 126.1 55.5 128.25 58.3
Q 129.05 58.25 129.9 58.25 132.1 58.45 134.15 59 135.75 59.4 137.35 60 141.35 61.4 141.9 65.4
L 145.25 68.65 150 64.5
Q 146.75 62.15 148.2 59.15 156.55 42.1 176.55 40.45 176.65 40.2 176.8 39.95 176.8 39.7 176.8 39.45 176.7 35.35 176.95 31.3 177.1 29.45 177.75 27.75 178.15 26.75 178.7 25.8 178.9 25.65 179.15 25.5 182.3 25.1 185.45 24.75 186.25 24.95 187 25.35 189.2 26.25 191.4 27.35
L 209.4 21.55 206.25 16.35 203.55 14.6 188.65 14.3 180.35 20.25 176.05 14.05 174.05 16.05 168.85 19.35 163.8 15.9
Q 151.75 17.3 145.55 6.85 142.8 2.2 140.35 -2.6
L 141.4 -6.25 144.45 -3.2
Q 156.7 -0.35 168.25 -5.4
L 167.9 -9.65
Q 159.6 -12.5 151.3 -9.5 150.05 -9.15 148.9 -8.65
L 144.45 -10.75 135.25 -2.15
Q 132.05 -3.6 131.6 -6.95 131.2 -9.8 132.45 -12.45
L 125.25 -13.7 126.35 -15.7 135.85 -17.9
Q 130.1 -28.75 119.25 -20.9 118.6 -20.4 117.9 -19.9 110.1 -18.35 104.35 -12.8 103.5 -12 102.75 -11.15
L 97.4 -11.5 95.3 -10.4 92.3 -12.2
Q 98.7 -12.45 103 -17.35 105.25 -19.85 106.25 -23.15
L 113.4 -27.45 107.55 -33.75 98.7 -25
Q 98.7 -20.6 96.25 -17.5 93.8 -14.4 90.3 -14.4
L 91.8 -12.5 86.9 -15.5 84.55 -18 76.1 -14.05 75 -11.3 76.1 -5.5 70.2 -2.95 67.4 -6.3 60.7 -8.15 58.1 -7.85
Q 54.3 -1.6 47.45 -4.95 47.25 -5.05 47.05 -5.1 44.6 -5.1 42.85 -6.05 41.1 -7 41.1 -8.3 41.1 -9.65 42.9 -10.55 44.7 -11.5 47.1 -11.5
L 48.5 -14.35 48.2 -14.75
M 83.3 -15.2
Q 84.65 -15.2 85.65 -14.25 86.6 -13.3 86.6 -11.95 86.6 -10.6 85.65 -9.65 84.65 -8.7 83.3 -8.7 81.95 -8.7 81 -9.65 80 -10.6 80 -11.95 80 -13.3 81 -14.25 81.95 -15.2 83.3 -15.2
M 93.8 -1.65
Q 95.25 -1.65 96.3 -0.6 97.3 0.45 97.3 1.9 97.3 3.35 96.3 4.4 95.25 5.45 93.8 5.45 92.35 5.45 91.35 4.4 90.3 3.35 90.3 1.9 90.3 0.45 91.35 -0.6 92.35 -1.65 93.8 -1.65
M 168.05 23.5
Q 169.1 23.5 169.85 24.25 170.55 24.95 170.55 26 170.55 27.05 169.85 27.8 169.1 28.5 168.05 28.5 167 28.5 166.3 27.8 165.55 27.05 165.55 26 165.55 24.95 166.3 24.25 167 23.5 168.05 23.5
M 151.05 21.8
L 155.7 21.75 156.65 27.35
Q 156.8 27.4 157 27.5 158.4 27.8 159.8 28.15 160.15 28.3 160.5 28.5 163.2 30.1 162.65 32.8 160.95 41.05 153.5 36.35
L 130.3 43.55 127.45 36.2 131.7 41.65 149.2 30.45 151.05 21.8
M 116.65 6.2
Q 116.65 6.9 116.15 7.4 115.65 7.9 114.95 7.9 114.25 7.9 113.75 7.4 113.25 6.9 113.25 6.2 113.25 5.5 113.75 5 114.25 4.5 114.95 4.5 115.65 4.5 116.15 5 116.65 5.5 116.65 6.2
M 70.95 -29.55
L 75.1 -32.1 75.35 -40.2 68.35 -39.8 71.15 -36.8 67.15 -30.9 70.95 -29.55
M 23.05 53.25
L 21.05 53.55 16.15 48.55 15.65 51.25 19.6 55.95 14 59.85 17.2 63.55 15.4 67.55 5.2 66.9 10.3 74.2
Q 14.95 70.3 20.9 68.45 25.15 67.15 29.5 67.9
L 33.75 57.45 27.3 52.4 32.55 53.95 42.45 50.55 43.45 45.65 40.65 49.8 25.75 50.35 23.05 53.25
M 17.35 41.9
L 16.7 45.6 20.25 40.75 17.35 41.9
M 54.35 47.7
L 48.45 46.8
Q 47.75 55.65 38.9 56.25 38.25 56.25 37.6 56.25
L 38.2 62.45 40.95 61.65 42.5 63.35 45.9 62.95 56.35 54.8 54.35 47.7 Z"/>

<path fill="#CC6500" stroke="none" d="
M 105.3 202.35
L 103.85 204.65 105.75 206.35 107.55 204.75
Q 107.55 203.75 106.9 203.05 106.25 202.35 105.3 202.35
M 83.15 194.1
L 74.75 197.85 81.95 211.7
Q 82.6 214.15 81.2 216.1 78.85 219.55 74.55 219.4 74.05 219.4 73.6 219.4
L 70.95 224.5 62.2 221.6 73.4 230.8 82.15 219.85
Q 82.85 219.85 83.55 219.85 84.95 220.2 86.4 220.6 91.3 222.05 94.8 226 94.9 225.85 95 225.7 95.6 225 96.2 224.3 98.7 221.35 102.4 219.9 104.35 219.1 106.35 219
L 109.6 227.25 127.65 222.6 129.85 215.4 113.75 211.55 105.65 214
Q 103.75 213 101.6 212.95 100.45 212.95 99.3 213.05 98.7 213.2 98.2 213.45 96.4 214.55 94.65 215.8
L 91.3 208.75 96 202.2 97.6 203.5 100 201.25 101.9 193.85 98.3 200.1 96.35 199.9 92.7 201.5 91.55 204.2 88.05 203.8 83.15 194.1
M 126.7 192.65
L 127.85 193.85 132.3 192.5 133.95 208.05 125.6 208.85 123.1 203.65 119.3 201.35 116.3 202.75
Q 119 204.5 120.85 207.05 122.7 209.6 123.3 212.7
L 130.25 214.5
Q 133.4 208.95 139.35 207.35 140.25 207.2 141.15 207.1
L 143.25 201.9 156.55 197.3 154.75 191.35 152.55 190.45 151.9 194.7 146.55 197.65 136.6 195 138.4 191.65 137.75 189.2 126.7 192.65
M 109.55 187.25
L 105.7 187.4 104.2 188.05
Q 103.7 190 103.85 192 104.1 195.25 107.15 196.55
L 110.85 194.6
Q 110.9 194.5 110.95 194.4 112.7 190.35 109.55 187.25
M 125.05 114.6
L 124.1 112.7 120.35 113.8 120.6 115.9 123.6 116.9 125.05 114.6
M 149.35 118.6
Q 149.35 119.35 149.9 119.9 150.4 120.45 151.15 120.45 151.9 120.45 152.45 119.9 152.95 119.35 152.95 118.6 152.95 117.85 152.45 117.3 151.9 116.75 151.15 116.75 150.4 116.75 149.9 117.3 149.35 117.85 149.35 118.6
M 227.15 117.45
L 226.6 110.1
Q 223.75 112.9 220.35 114.45 211.15 118.85 201.75 114.85
L 205.55 107.55 202.75 105.95 200.7 108.85 195.05 110.7 190.7 122.8 174 118.95 172.55 117.05
Q 167.85 118.35 165.05 122.3 161.6 127.25 156.55 130.6 149.6 129.8 143.95 134.15 141.1 136.35 137.3 135.95
L 138.8 132.8
Q 139.9 132.5 141 132.1 142.85 131.3 143.85 129.55 144.4 128.6 144.45 127.4 144.5 126.15 143.9 125.15 142.4 123.35 140.05 122.85 138.3 122.5 136.7 123.35 134.65 124.4 133.5 126.4 119.55 126.6 107.65 133.75
L 102.7 130.4 99.85 121.35 86.7 127.85
Q 91.25 121.8 95.05 115.15 97.45 110.95 94.15 107.25
L 109.55 105.45 110.7 107.2 106.6 110.65 107 114.8 110.7 117.65 115.05 116.05 115.35 115.7 119.1 109.35
Q 123.5 108.65 126.35 105.45 127.7 103.85 127.5 102 127.25 99.55 127.1 97.05
L 137.5 93.45 144.15 103.05 147.3 102.45 150.7 96.6 151.9 89.25 147.45 95.95 135.75 90.05 125 96.2 123.1 103.2 117.3 102
Q 115.95 102 115 101.35 114 100.7 114 99.75 99.4 98.75 89.6 109.7 89.1 110.25 88.65 110.85
L 93.8 115.6
Q 93.95 118.3 91.65 119.6 86.35 122.45 80.4 123.2 79.75 126.1 80.8 128.95 81.6 131.25 83.5 132.75
L 96.8 131.45 106.75 139.45
Q 111.6 130.25 121.85 130.2 123.9 130.2 125.95 130.5
L 133.8 143.65 146.25 135.5 154.55 137.65 164.45 129.9
Q 166.9 131.7 167.95 134.4 169.35 138.05 169.6 141.9 185.35 139.05 192.3 127.5 208.4 120.35 227.15 117.45
M 184.15 96.4
Q 177.6 91.7 169.55 93.2 167.85 93.4 166.1 93.4
L 161.7 97.2 159.2 96.05 158.85 91.4 153.9 88.4 156.25 97.2
Q 156.6 99.1 157.1 100.95 157.75 103.55 160.5 103.9 168.5 94.6 180.5 97
L 178.4 101.1 173.25 98.3
Q 173.45 99.05 173.7 99.85 175.25 104.8 180.35 103.75
L 181.55 103.05 184.4 100.45 184.15 96.4
M 123.35 -71.2
L 127.85 -75.75 121.4 -72.2 120.1 -73.9 117.45 -69.95 115 -69.9 110.85 -75.35 98.2 -76.6 95.8 -71.9
Q 101.5 -75.35 108.2 -74.3 108.65 -73.65 109.1 -72.95 115.15 -64.45 123.35 -71.2
M 136.95 -80.5
L 139.4 -79.3 141.45 -79.2 136.95 -80.5
M 146.45 -74.9
L 145.2 -77.1 137.25 -70.05 134.9 -73.65 131.3 -74.65 132.65 -71.8 131.7 -69.65 132.75 -66.45 132.1 -64.5
Q 120.95 -69.55 111.35 -61.75 110.65 -61.15 110 -60.55 105.55 -63.5 102.05 -67.65 99.55 -70.6 95.65 -71.5 94.8 -66.85 90.25 -65.25 89.6 -65.05 89 -64.8
L 87.7 -60.65 94.25 -59.15 99.8 -66.4 101.3 -65.45
Q 99.75 -57 106.5 -52
L 118.9 -56.4 123.95 -50.45
Q 131.8 -52.5 135.45 -59.7 137.55 -63.9 137.65 -68.75
L 146.45 -74.9
M 42.45 23.3
Q 48.55 24.2 49.35 18.5
L 48.55 16.2 41.4 19.85
Q 40.45 19.05 39.5 18.25 32.65 12.6 23.7 12.85 21.3 12.85 19.65 10.3 17.95 7.7 17.95 4.05
L 8.5 8.4
Q 18.05 16.5 30.3 20.5 30.55 20.3 30.75 20.1 31 20.45 31.25 20.8 36.6 22.45 42.45 23.3
M 176.05 14.05
L 180.35 20.25 188.65 14.3
Q 182.25 18.3 176.1 13.9 176.05 13.95 176.05 14.05
M 208.2 26.55
Q 209.95 25.45 211.65 24.3 213.3 23.1 214.95 21.85
L 206.25 16.35 209.4 21.55 191.4 27.35
Q 189.2 26.25 187 25.35 186.25 24.95 185.45 24.75 182.3 25.1 179.15 25.5 178.9 25.65 178.7 25.8 178.15 26.75 177.75 27.75 177.1 29.45 176.95 31.3 176.7 35.35 176.8 39.45 176.8 39.7 176.8 39.95 176.65 40.2 176.55 40.45 156.55 42.1 148.2 59.15 146.75 62.15 150 64.5
L 145.25 68.65 141.9 65.4
Q 141.35 61.4 137.35 60 135.75 59.4 134.15 59 132.1 58.45 129.9 58.25 129.05 58.25 128.25 58.3
L 126.1 55.5 123.15 55.8 125.3 50.35 118.25 58.3 119.15 61.8 113.95 68.2 111.95 66.35 96.8 63.75 92.6 63.75 89.15 68.5 84.55 60.85 79.8 55.4 83.2 50.3
Q 85.05 50.3 86.9 50.35 97.45 50.6 107.1 46.65
L 111.4 50.75 112.9 49.1
Q 112.45 44.9 108.3 43.95 107.65 43.85 107 43.75
L 108.25 36.95 108.35 32 106.55 30.7 105.05 31.4 101.5 45.45
Q 98.9 47.05 95.8 47.45 88.4 48.15 82.3 43.85
L 73 51.8 73.7 62.3 74.6 67.25 71.85 70.6 64.15 68 62.65 64.45 50.45 65.75 49.2 63.15 44.7 69
Q 46.6 70.35 49.05 70.55 52.55 71.15 55.6 69.3
L 57.75 77.95 69.05 79.95 76.5 69.8 85.95 78.35
Q 91.4 79.1 95.8 75.7 97.35 74.5 98.5 73.1 99.25 72.1 100.05 71.15
L 119.2 69.15 119.3 65.3
Q 128.75 61.8 137.3 67.15 138.55 68 139.75 69.05 140.35 69.45 140.9 70
L 138.8 76.8
Q 144.05 78.95 148.85 75.8 150.4 74.75 151.75 73.4 152.15 73.05 152.5 72.6 155.6 68.8 156.95 64.05
L 153.65 60.65
Q 156.85 53.35 164.15 53.25 174.4 53.05 181.2 45.3 185.1 40.95 185.55 35 197.8 33.1 208.2 26.55
M 141.4 -6.25
L 140.35 -2.6
Q 142.8 2.2 145.55 6.85 151.75 17.3 163.8 15.9
L 168.85 19.35 174.05 16.05
Q 167.85 18.35 163.15 13.45 162.45 12.75 161.8 12 162 -0.25 174.2 -2.55 175 -2.7 175.85 -2.85
L 167.9 -9.65 168.25 -5.4
Q 156.7 -0.35 144.45 -3.2
L 141.4 -6.25
M 132.45 -12.45
L 135.85 -17.9 126.35 -15.7 125.25 -13.7 132.45 -12.45
M 89.3 -15.6
Q 88.15 -16.95 86.9 -15.5
L 91.8 -12.5 90.3 -14.4
Q 89.8 -15.05 89.3 -15.6
M 56.7 -11.15
L 58.1 -7.85 60.7 -8.15 61.8 -10.25 60.65 -12.45 56.7 -11.15
M 48.7 -9.7
L 47.1 -11.5
Q 44.7 -11.5 42.9 -10.55 41.1 -9.65 41.1 -8.3 41.1 -7 42.85 -6.05 44.6 -5.1 47.05 -5.1
L 48.7 -9.7
M 40.7 -14.25
Q 42 -12.3 42.85 -15.15
L 42.55 -15.55 40.45 -14.6
Q 40.55 -14.45 40.7 -14.25
M 116.15 7.4
Q 116.65 6.9 116.65 6.2 116.65 5.5 116.15 5 115.65 4.5 114.95 4.5 114.25 4.5 113.75 5 113.25 5.5 113.25 6.2 113.25 6.9 113.75 7.4 114.25 7.9 114.95 7.9 115.65 7.9 116.15 7.4
M 155.7 21.75
L 151.05 21.8 149.2 30.45 131.7 41.65 127.45 36.2 130.3 43.55 153.5 36.35
Q 160.95 41.05 162.65 32.8 163.2 30.1 160.5 28.5 160.15 28.3 159.8 28.15 158.4 27.8 157 27.5 156.8 27.4 156.65 27.35
L 155.7 21.75
M 169.85 24.25
Q 169.1 23.5 168.05 23.5 167 23.5 166.3 24.25 165.55 24.95 165.55 26 165.55 27.05 166.3 27.8 167 28.5 168.05 28.5 169.1 28.5 169.85 27.8 170.55 27.05 170.55 26 170.55 24.95 169.85 24.25
M 96.3 -0.6
Q 95.25 -1.65 93.8 -1.65 92.35 -1.65 91.35 -0.6 90.3 0.45 90.3 1.9 90.3 3.35 91.35 4.4 92.35 5.45 93.8 5.45 95.25 5.45 96.3 4.4 97.3 3.35 97.3 1.9 97.3 0.45 96.3 -0.6
M 21.05 -13.95
L 26.85 -0.65 54.2 4.25 56.45 4 57.05 6.15 51.3 15.45 54.4 17.05 53.75 23.35
Q 61.8 24 69.45 21.4 72.45 20.4 75.4 19.3
L 83.2 23.8 99.65 22.45 104.5 27.3 109.2 28.5 111.75 27.75 115.35 25.8 128.4 15.95 127.8 7.85 126.4 13.45
Q 119.45 16.75 111.5 17.75 109.55 17.95 107.7 17.45 107.2 17.2 106.75 16.95 106.25 16.65 105.75 16.35 110.65 11.65 106.75 6.3 106.55 6 106.25 5.85 105.65 5.4 105 5.05 104.7 4.95 104.45 4.9 98.35 5.95 98.2 12.15 98.2 12.7 98.35 13.3 98.5 13.85 98.75 14.4 98.95 14.85 99.2 15.35
L 92.9 17.45
Q 89.85 15.5 86.4 14.1 75.7 9.55 64.85 13.6 64.3 13.85 63.75 14.15 62.6 14.85 61.45 15.55
L 57.35 11.6
Q 59.45 8.6 59.55 4.9 59.55 4.4 59.5 3.95 59.45 3.4 59.35 2.85 59.2 1.95 59 1.1
L 41.15 -0.4 27.75 -16.7 42.45 -19.9 47.05 -20.1 48.2 -14.75 48.5 -14.35
Q 50.4 -12.4 53.05 -13 54.9 -13.45 56.05 -14.85 56.85 -15.8 57.2 -17.2 57.7 -19.1 56.7 -20.8
L 61.55 -22.8
Q 62.25 -22.65 63 -22.5 81.15 -19.9 98.7 -25
L 107.55 -33.75 113.4 -27.45 106.25 -23.15
Q 105.25 -19.85 103 -17.35 98.7 -12.45 92.3 -12.2
L 95.3 -10.4 97.4 -11.5 102.75 -11.15
Q 103.5 -12 104.35 -12.8 110.1 -18.35 117.9 -19.9
L 120.95 -28.85 107 -38.1 97.1 -29.2 78.65 -27.8 80.15 -40.95 78.1 -44.45
Q 69.5 -46.2 62.5 -41 61.4 -40.15 60.4 -39.15 59.3 -38.1 58.4 -36.95 55.8 -33.4 54.35 -29.4
L 55.55 -23.45
Q 37.45 -21.55 21.05 -13.95
M 67.15 -30.9
L 62.9 -32.45 68.35 -39.8 75.35 -40.2 75.1 -32.1 70.95 -29.55 67.15 -30.9
M 17.35 41.9
L 7.85 45.3 9 52 10.55 54.35 8.85 54.25 12.15 56.75 12.7 60.15 14 59.85 19.6 55.95 15.65 51.25 16.15 48.55 16.7 45.6 17.35 41.9
M 48.45 46.8
Q 48.45 44.1 45.35 42.2 42.3978515625 40.3302734375 38.25 40.25 40.3484375 40.3484375 41.85 41.85 43.45 43.4 43.45 45.65
L 42.45 50.55 32.55 53.95 27.3 52.4 33.75 57.45 29.5 67.9
Q 25.15 67.15 20.9 68.45 14.95 70.3 10.3 74.2
L 5.2 66.9 0.45 64.9 5.25 61.5 -4 65.55 -1.45 74.05 10.1 78.3
Q 10.9 77.35 11.7 76.4 12.15 75.95 12.6 75.55 14.3 73.85 16.65 73.2 21.65 72.15 26.35 74.85
L 38.2 62.45 37.6 56.25
Q 38.25 56.25 38.9 56.25 47.75 55.65 48.45 46.8 Z"/>

<path fill="#FFCD38" stroke="none" d="
M 123.6 196.5
L 120.25 197.45 119.3 201.35 123.1 203.65 126.9 200.4 123.6 196.5
M 97.05 187.8
L 83.15 194.1 88.05 203.8 91.55 204.2 92.7 201.5 96.35 199.9
Q 96.4 199.3 96.75 198.95 97.05 198.55 97.45 198.6 97.85 198.65 98.15 199.1 98.4 199.55 98.3 200.1
L 101.9 193.85 100 201.25 105.3 202.35
Q 106.25 202.35 106.9 203.05 107.55 203.75 107.55 204.75 110.05 206 112.6 204.7 116.85 202.4 115.45 197.7
L 110.85 194.6 107.15 196.55
Q 104.1 195.25 103.85 192 103.7 190 104.2 188.05
L 97.05 187.8
M 110.7 117.65
Q 109.4 119.9 110.5 122.25 111.7 124.7 114.35 124.65 114.7 124.65 115.1 124.65
L 118.75 119.3 115.05 116.05 110.7 117.65
M 106.6 110.65
L 101.6 108.65 97.85 113.55 103.5 117.85 107 114.8 106.6 110.65
M 153.9 88.4
L 151.9 89.25 150.7 96.6 154 98.35 156.25 97.2 153.9 88.4
M 137.5 93.45
L 127.1 97.05
Q 127.25 99.55 127.5 102 127.7 103.85 126.35 105.45 123.5 108.65 119.1 109.35
L 115.35 115.7 120.6 115.9 120.35 113.8 124.1 112.7 125.05 114.6 123.6 116.9 130.3 122.4
Q 135.7 122.2 136.1 116.9 136.2 115.2 135.15 113.75 134.85 113.3 134.55 112.85
L 144.25 112.65
Q 147.35 114.7 151 113.7 151.3 113.55 151.6 113.45 152.2 113.2 152.85 112.95 156.1 115.7 160.2 114.45 160.45 114.3 160.65 114.1 160.85 114 161.05 113.85 163.4 111.3 162.2 107.95 162.1 107.6 161.9 107.3 161.7 106.9 161.5 106.55
L 151.4 105.75 147.3 102.45 144.15 103.05 137.5 93.45
M 186.75 108.5
L 186 104.1 181.55 103.05 180.35 103.75 178.5 107.35 176.9 107.05 174.1 110 174.9 112 177.95 112.9 186.75 108.5
M 165.05 105.8
Q 163.95 106.85 163.95 108.35 163.95 109.85 165.05 110.9 166.1 111.95 167.6 111.95 169.1 111.95 170.2 110.9 171.25 109.85 171.25 108.35 171.25 106.85 170.2 105.8 169.1 104.75 167.6 104.75 166.1 104.75 165.05 105.8
M 117.65 -76.85
L 110.85 -75.35 115 -69.9 117.45 -69.95 120.1 -73.9 117.65 -76.85
M 133.75 -81.75
L 127.85 -75.75 123.35 -71.2
Q 123.65 -70.9 123.95 -70.6 127.5 -67.4 131.7 -69.65
L 132.65 -71.8 131.3 -74.65 134.9 -73.65 139.4 -79.3 136.95 -80.5 133.75 -81.75
M 62.65 64.45
L 73.7 62.3 73 51.8 71.5 49.25
Q 66.55 50.45 64.95 55.2 64.55 56.3 64.25 57.4
L 50.85 60.35 49.2 63.15 50.45 65.75 62.65 64.45
M 31.85 9.9
Q 32.7 10.2 33.55 10.5 46 14.35 54.2 4.25
L 26.85 -0.65 17.95 4.05
Q 17.95 7.7 19.65 10.3 21.3 12.85 23.7 12.85
L 31.85 9.9
M 94.7 58.3
Q 93.85 58.3 93.25 59.9 92.6 61.5 92.6 63.75
L 96.8 63.75
Q 96.8 61.5 96.2 59.9 95.55 58.3 94.7 58.3
M 106.95 61.65
L 107.3 56.25 111.4 50.75 107.1 46.65
Q 97.45 50.6 86.9 50.35 85.05 50.3 83.2 50.3
L 79.8 55.4 84.55 60.85 87.6 58.1
Q 90.2 59.05 92.45 57.35 92.75 57.1 93.05 56.85 93.3 56.6 93.55 56.3 93.8 56.05 94 55.75 94.25 55.4 94.45 55.1
L 103.8 62.7 106.95 61.65
M 144.55 24.4
L 147.05 20.6 141.05 17.3 138.55 19.8 128.4 15.95 115.35 25.8 114.2 28.55 111.75 27.75 109.2 28.5
Q 108.1 28.5 107.35 29.15 106.55 29.8 106.55 30.7
L 108.35 32 108.25 36.95 111.1 37.8 115.4 35.6
Q 117 36.05 118.6 36.5 120.2 36.15 121.8 35.65 123.3 35.25 124.3 33.95 126.95 30.4 129.5 26.75
L 139.4 27.85 140.05 23.3 144.55 24.4
M 45 -13.95
L 48.2 -14.75 47.05 -20.1 42.45 -19.9 42.55 -15.55 42.85 -15.15 45 -13.95
M 85.65 -14.25
Q 84.65 -15.2 83.3 -15.2 81.95 -15.2 81 -14.25 80 -13.3 80 -11.95 80 -10.6 81 -9.65 81.95 -8.7 83.3 -8.7 84.65 -8.7 85.65 -9.65 86.6 -10.6 86.6 -11.95 86.6 -13.3 85.65 -14.25
M 57.2 -17.2
Q 56.85 -15.8 56.05 -14.85 54.9 -13.45 53.05 -13 50.4 -12.4 48.5 -14.35
L 47.1 -11.5 48.7 -9.7 47.05 -5.1
Q 47.25 -5.05 47.45 -4.95 54.3 -1.6 58.1 -7.85
L 56.7 -11.15 60.65 -12.45 61.8 -10.25 60.7 -8.15 67.4 -6.3 70.2 -2.95 76.1 -5.5 75 -11.3 76.1 -14.05 84.55 -18 86.9 -15.5
Q 88.15 -16.95 89.3 -15.6 89.8 -15.05 90.3 -14.4 93.8 -14.4 96.25 -17.5 98.7 -20.6 98.7 -25 81.15 -19.9 63 -22.5 62.25 -22.65 61.55 -22.8
L 56.7 -20.8
Q 57.7 -19.1 57.2 -17.2
M 62.9 -32.45
L 67.15 -30.9 71.15 -36.8 68.35 -39.8 62.9 -32.45
M 14 59.85
L 12.7 60.15
Q 10.15 63.55 6.25 61.85 5.75 61.65 5.25 61.5
L 0.45 64.9 5.2 66.9 15.4 67.55 17.2 63.55 14 59.85
M 43.45 45.65
Q 43.45 43.4 41.85 41.85 40.3484375 40.3484375 38.25 40.25
L 38 40.25
Q 37.95 40.25 37.9 40.25
L 28.15 43 24.9 40.05 20.25 40.75 16.7 45.6 16.15 48.55 21.05 53.55 23.05 53.25 25.75 50.35 40.65 49.8 43.45 45.65 Z"/>
</g>
</defs>

<g transform="matrix( 1, 0, 0, 1, 374.95,127.8) ">
<g transform="matrix( 1, 0, 0, 1, 0,0) ">
<use xlink:href="#barren_prop_35_Layer1_0_FILL"/>
</g>

<g transform="matrix( 1, 0, 0, 1, 0,0) ">
<use xlink:href="#barren_prop_35_Layer0_0_FILL"/>
</g>
</g>
</svg>
