
<svg xmlns="http://www.w3.org/2000/svg" version="1.1" xmlns:xlink="http://www.w3.org/1999/xlink" preserveAspectRatio="none" x="0px" y="0px" width="1000px" height="800px" viewBox="0 0 1000 800">
<defs>
<g id="barren_prop_1_Layer1_0_FILL">
<path fill="#837A75" stroke="none" d="
M 190.05 266.75
Q 190.05 266.85 190.05 267
L 192.25 299.95 193.45 265.5 182.3 262.5 179.85 264.3 189.6 266.45
Q 190.15 266.4 190.05 266.75
M 175.15 222.25
Q 174.75 221.45 174.3 220.75
L 172 224.85
Q 181.1 240.65 176.95 258.4 176.6 260 176.35 261.6 185.15 241.6 175.15 222.25
M 90.15 276.25
L 88.85 278.7 77.65 273.6 73.55 265.5 46.85 277.25 45.15 337 50.65 345.55 60.55 346.4
Q 50.65 321.15 53.55 294.1 53.9 290.7 54.05 287.3
L 51.35 283.65 52.85 279.8 55.65 283.7 57 282.3
Q 57 281.75 57.55 281.35 58.15 280.95 59 280.95 82.85 278.6 105.8 285.35 107.4 285.8 109 286.25
L 116.75 288.3 124.8 289.45
Q 115.5 295.95 104.8 291.9 100.75 290.4 96.8 289.5
L 90.95 288.9 59.9 289.05 56.95 301.25 65.45 315.65 71.95 311.85 72.3 314.25 65.15 322.25 69 345.1
Q 71.8 346.35 74.95 346.85 83.45 347.95 90.75 344 98.15 339.95 106.6 340.75
L 87.05 351.1
Q 91.8509765625 353.2578125 96.7 354.8 114.478515625 360.441796875 133.3 358.05 134.85 357.8 136.4 357.55
L 136.2 356.2 134.45 342.3 120.1 356.45 133.85 331.5 133.05 315.4 108.2 310.85 133.9 307.25 131.9 287.3 138.1 283.65 125.75 276.8 125.8 276.4 127.7 274.3 127.2 271 126.05 274.15 126.1 231.5 114.35 218 55.1 222.7
Q 54.9 224.35 54.75 226.05 54.65 227.65 54.6 229.3 54.55 230.9 54.6 232.55 54.65 234.2 54.85 235.85 55.6 242.75 58.4 249 59.8 249 61.2 249.05 62.55 249.15 63.9 249.25 65.2 249.45 66.55 249.65 67.8 250 69.05 250.4 79.4 254.3 88.85 260.05
L 85.4 269.65 124.25 278.05 90.15 276.25
M 187.85 332.7
L 185.3 319.6 181.7 337.1 187.85 332.7
M 60.45 363.85
L 59.95 363.4 61.65 369.35
Q 66.7 371.2 68.9 376.15 70.25 379.1 69.95 382.15
L 72.1 377.7 60.45 363.85
M 14.15 333.25
Q 12.15 332.95 10.2 332.65
L -3.1 370.75 28.2 390.1 34.8 373.2
Q 19.35 358.95 12.25 339.05 12.15 338.7 12 338.35
L 22.7 347.15 38.15 344.6
Q 27.45 336.15 14.15 333.25
M 74.4 264.8
Q 74.35 264.8 74.35 264.85
L 74.4 264.85 74.4 264.8
M 118.2 214.7
L 119 214.1
Q 118.65 214.1 118.4 214.25 118.2 214.45 118.2 214.7
M 120.1 187.5
Q 118.75 187.8 117.4 188.15 115.95 198.25 106.55 202.45 97.5 206.55 88.5 210.65
L 88.45 214.8
Q 119.35 215.9 139.5 192.65
L 158.75 207.35
Q 145.1 186.4 120.1 187.5 Z"/>

<path fill="#564A44" stroke="none" d="
M 134.45 342.3
L 133.85 331.5 120.1 356.45 134.45 342.3
M 133.05 315.4
L 133.9 307.25 108.2 310.85 133.05 315.4
M 138.95 286.95
Q 137.15 287.15 135.4 287.4
L 189.6 266.45 179.85 264.3 125.75 276.8 138.1 283.65 131.9 287.3
Q 144.25 318.85 137.95 353.1 137.698046875 354.5751953125 137.5 356.05 137.4560546875 356.6251953125 137.4 357.2
L 140.75 355.6 178.8 337.6
Q 179.8 319.55 189.45 304.25 190.85 302.1 192.25 299.95
L 190.05 267
Q 167.1 283.45 138.95 286.95
M 127.2 271
L 127.7 274.3 125.8 276.4 176.35 261.6
Q 176.6 260 176.95 258.4 181.1 240.65 172 224.85
L 174.3 220.75 173.05 213.9 134.85 213.9 127.2 271
M 96.8 289.5
Q 100.75 290.4 104.8 291.9 115.5 295.95 124.8 289.45
L 116.75 288.3 96.8 289.5
M 109 286.25
Q 107.4 285.8 105.8 285.35 82.85 278.6 59 280.95
L 62.8 281.55 57 282.3 55.65 283.7 57.1 286.2 54.05 287.3
Q 53.9 290.7 53.55 294.1 50.65 321.15 60.55 346.4
L 87.05 351.1 106.6 340.75
Q 98.15 339.95 90.75 344 83.45 347.95 74.95 346.85 71.8 346.35 69 345.1
L 65.15 322.25 72.3 314.25 71.95 311.85 65.45 315.65
Q 61.5 327.55 64.1 339.75 64.5 341.5 64.95 343.25 57.5 331.65 62.4 318.5 63.05 316.7 63.8 314.9
L 55.05 302.65 55.55 292.65 56.95 301.25 59.9 289.05 90.95 288.9 73.9 284.7 109 286.25
M 224.95 316.75
L 207.25 316.65 194.9 328.35 201.3 333.3 217.4 328 231.3 316.75 205 327.85 224.95 316.75
M 32.55 388
L 34.8 373.2 28.2 390.1 31.35 392 69 386.3 69.95 382.15
Q 70.25 379.1 68.9 376.15 66.7 371.2 61.65 369.35
L 59.95 363.4 59.85 363.25
Q 54.05 370.65 44.75 371.6 43.4 371.7 42.05 371.8
L 55.75 361.3 51.75 360.4 38.15 344.6 22.7 347.15
Q 24.95 358.9 33.8 367 35 368.1 36.25 369.2
L 32.55 388
M 67.3 381.6
L 56.3 381.85 37.95 377 67.3 381.6
M 74.4 264.8
L 74.4 264.85 80.65 269.75 84.9 262.4 73.15 256.5 74.4 264.8
M 125.2 225.45
L 129.45 216.25 119 214.1 118.2 214.7 125.2 225.45
M 138.2 211.5
Q 148.95 211.65 158.75 207.35
L 139.5 192.65 125.45 210.15
Q 131.8 211.4 138.2 211.5 Z"/>

<path fill="#000000" stroke="none" d="
M 133.9 307.25
L 133.05 315.4 133.85 331.5 134.45 342.3 136.2 356.2
Q 136.8771484375 356.1275390625 137.5 356.05 137.698046875 354.5751953125 137.95 353.1 144.25 318.85 131.9 287.3
L 133.9 307.25
M 63.8 314.9
Q 63.05 316.7 62.4 318.5 57.5 331.65 64.95 343.25 64.5 341.5 64.1 339.75 61.5 327.55 65.45 315.65
L 56.95 301.25 55.55 292.65 55.05 302.65 63.8 314.9
M 57.55 281.35
Q 57 281.75 57 282.3
L 62.8 281.55 59 280.95
Q 58.15 280.95 57.55 281.35
M 52.85 279.8
L 51.35 283.65 54.05 287.3 57.1 286.2 55.65 283.7 52.85 279.8
M 135.4 287.4
Q 137.15 287.15 138.95 286.95 167.1 283.45 190.05 267 190.05 266.85 190.05 266.75 190.15 266.4 189.6 266.45
L 135.4 287.4
M 90.95 288.9
L 96.8 289.5 116.75 288.3 109 286.25 73.9 284.7 90.95 288.9
M 141.9 184.6
Q 136.75 184.15 131.7 183.45 113.65 180.35 103.6 196.9 97.35 207.1 85.7 209.55
L 84.6 214.95 52 218.1
Q 51.3 221.7 50.7 225.35 49.1 234.95 52.25 244 53.75 248.2 55.35 252.4
L 68.9 254.25 70 262.6 54.3 267.55 42.4 273.4 42.5 342.5
Q 31.9 331.5 16.8 331.45 11.9 331.45 7.05 331.85 0.55 347.9 -4.65 364.5 -5.85 368.45 -5.4 372.65 10.45 388.3 31.9 393.5 53.95 398.7 74.1 388.55
L 76.55 375.85 44 344.45
Q 70.0783203125 351.6734375 96.7 354.8 91.8509765625 353.2578125 87.05 351.1
L 60.55 346.4 50.65 345.55 45.15 337 46.85 277.25 73.55 265.5 77.65 273.6 88.85 278.7 90.15 276.25 124.25 278.05 85.4 269.65 88.85 260.05
Q 79.4 254.3 69.05 250.4 67.8 250 66.55 249.65 65.2 249.45 63.9 249.25 62.55 249.15 61.2 249.05 59.8 249 58.4 249 55.6 242.75 54.85 235.85 54.65 234.2 54.6 232.55 54.55 230.9 54.6 229.3 54.65 227.65 54.75 226.05 54.9 224.35 55.1 222.7
L 114.35 218 126.1 231.5 126.05 274.15 127.2 271 134.85 213.9 173.05 213.9 174.3 220.75
Q 174.75 221.45 175.15 222.25 185.15 241.6 176.35 261.6
L 125.8 276.4 125.75 276.8 179.85 264.3 182.3 262.5 193.45 265.5 192.25 299.95
Q 190.85 302.1 189.45 304.25 179.8 319.55 178.8 337.6
L 140.75 355.6
Q 168.5630859375 351.4259765625 192.6 332.8 199.65 336.75 207.65 335.3 217.6 333.65 225.05 327.05 230.9 321.8 234.75 314.9 231.2 314.25 227.65 313.65 213.9 312.05 201.4 318.15 194.4 321.7 188.8 327.4
L 187.2 312.45
Q 189.65 310.05 191.4 306.95 196.7 297.6 198.15 286.95 200.05 272.75 196.85 258.75
L 183.9 255.85
Q 182.25 240.75 180.7 225.65 179.9 217.6 176.45 210.3
L 164.85 208.7 166.3 206.75 141.9 184.6
M 117.4 188.15
Q 118.75 187.8 120.1 187.5 145.1 186.4 158.75 207.35 148.95 211.65 138.2 211.5 131.8 211.4 125.45 210.15
L 139.5 192.65
Q 119.35 215.9 88.45 214.8
L 88.5 210.65
Q 97.5 206.55 106.55 202.45 115.95 198.25 117.4 188.15
M 129.45 216.25
L 125.2 225.45 118.2 214.7
Q 118.2 214.45 118.4 214.25 118.65 214.1 119 214.1
L 129.45 216.25
M 74.35 264.85
Q 74.35 264.8 74.4 264.8
L 73.15 256.5 84.9 262.4 80.65 269.75 74.4 264.85 74.35 264.85
M 10.2 332.65
Q 12.15 332.95 14.15 333.25 27.45 336.15 38.15 344.6
L 51.75 360.4 55.75 361.3 42.05 371.8
Q 43.4 371.7 44.75 371.6 54.05 370.65 59.85 363.25
L 60.45 363.85 72.1 377.7 69.95 382.15 69 386.3 31.35 392 28.2 390.1 -3.1 370.75 10.2 332.65
M 207.25 316.65
L 224.95 316.75 205 327.85 231.3 316.75 217.4 328 201.3 333.3 194.9 328.35 207.25 316.65
M 185.3 319.6
L 187.85 332.7 181.7 337.1 185.3 319.6
M 56.3 381.85
L 67.3 381.6 37.95 377 56.3 381.85
M 12 338.35
Q 12.15 338.7 12.25 339.05 19.35 358.95 34.8 373.2
L 32.55 388 36.25 369.2
Q 35 368.1 33.8 367 24.95 358.9 22.7 347.15
L 12 338.35 Z"/>
</g>
</defs>

<g transform="matrix( 1, 0, 0, 1, 374.95,127.8) ">
<g transform="matrix( 1, 0, 0, 1, 0,0) ">
<use xlink:href="#barren_prop_1_Layer1_0_FILL"/>
</g>
</g>
</svg>
