
<svg xmlns="http://www.w3.org/2000/svg" version="1.1" xmlns:xlink="http://www.w3.org/1999/xlink" preserveAspectRatio="none" x="0px" y="0px" width="1000px" height="800px" viewBox="0 0 1000 800">
<defs>
<g id="barren_prop_19_Layer1_0_FILL">
<path fill="#AF8362" stroke="none" d="
M 75 328.8
L 73.05 326.6 74.7 334.7 75 328.8
M 73.95 302.85
Q 73.716796875 302.691796875 73.45 302.55 72.5349609375 303.047265625 71.6 303.5 69.6 304.45 67.55 305.55 67.402734375 305.6275390625 67.25 305.7 65.7189453125 308.5376953125 64.9 313.7
L 73.8 318 74.9 324 82.15 326.9 78.9 318.05
Q 79.45 314.55 78.1 309.55 76.75 304.55 73.95 302.85
M 149.5 303.95
L 142.05 299.7 129.5 305.65 124.95 309.15 127.1 302.15
Q 123.35 306.3 118.9 309.4 111.1 314.9 102.55 319.3
L 112.1 320.95 120.95 318 114 322.55 117.45 327.15 139.5 311.85 128.1 324.05
Q 129 324 129.9 323.95 136 323.35 141.65 321 147.4 318.6 152.05 314.8
L 138.05 318.85 147.9 310.3 149.5 303.95
M 159.55 292.85
L 151.1 291.2 145.6 297.7 154.45 301.95 158.4 302.35 159.55 292.85
M 119 293.45
L 111.65 292.85 129.3 287.3 129.9 280.75 120.7 285.55 130.55 277.9 133.45 271.25 78.35 304.8 78.35 308.25 104.5 299.6 85.2 311.2
Q 87.45 310.65 89.75 310.1 98.9 307.6 107 302.65 113.4 298.7 119 293.45
M 83.4 292.25
L 83.3 293 87.8 294.6 107.5 283.7
Q 104.9 283.3 102.3 282.9 91.45 281.65 84 289.85
L 93.05 289.95 83.4 292.25 Z"/>

<path fill="#70513A" stroke="none" d="
M 73.8 318
L 64.9 313.7 73.05 326.6 75 328.8 74.7 334.7 77.35 327.15 83.45 328.4 84.5 322.05 88.05 331.1 93.4 330.35 94.05 326.45 78.9 318.05 82.15 326.9 74.9 324 73.8 318
M 120.95 318
L 112.1 320.95 114 322.55 120.95 318
M 127.8 304.6
Q 127.1 303.6 127.1 302.15
L 124.95 309.15 129.5 305.65
Q 128.5 305.65 127.8 304.6
M 156.35 317.3
Q 154.1 314.25 152.4 311 150.65 307.6 149.5 303.95
L 147.9 310.3 138.05 318.85 152.05 314.8
Q 147.4 318.6 141.65 321 136 323.35 129.9 323.95 129 324 128.1 324.05
L 139.5 311.85 117.45 327.15 117.25 335.85
Q 129.25 333.25 140.35 328.25 144.75 326.25 149.3 324.55 154.95 322.6 156.35 317.3
M 159.75 307.5
L 158.4 302.35 154.45 301.95 155.75 310.65 161.25 311.05 159.75 307.5
M 130.5 278.1
L 130.55 277.9 120.7 285.55 129.9 280.75 130.5 278.1
M 111.65 292.85
L 119 293.45
Q 113.4 298.7 107 302.65 98.9 307.6 89.75 310.1 87.45 310.65 85.2 311.2
L 104.5 299.6 78.35 308.25 79.85 314.15
Q 92.3 317.45 103.8 311.75 106.35 310.5 109.2 310.2
L 127.85 295.7 131.7 298.8 139.15 297.3 129.3 287.3 111.65 292.85
M 84 289.85
L 83.4 292.25 93.05 289.95 84 289.85
M 83.3 293
Q 83.1 294 83.5 295.35 83.9 296.75 84.75 297.25 85.65 297.75 86.5 297.1 87.35 296.45 87.8 294.6
L 83.3 293 Z"/>

<path fill="#000000" stroke="none" d="
M 111.35 281
Q 100.4 280.2 89.75 282.8 77.35 286 80.85 298.3 77.2359375 300.6291015625 73.45 302.55 73.716796875 302.691796875 73.95 302.85 76.75 304.55 78.1 309.55 79.45 314.55 78.9 318.05
L 94.05 326.45 93.4 330.35 88.05 331.1 84.5 322.05 83.45 328.4 77.35 327.15 74.7 334.7 73.05 326.6 64.9 313.7
Q 65.7189453125 308.5376953125 67.25 305.7 62.710546875 308.2732421875 63.05 313.8 64.05 328.6 75.5 338.7
L 79.65 335.75 79.95 332.2 95.1 336 97.3 339.7
Q 107.1 343.6 117.25 340.55 122.35 339.05 127.7 338.05 148.35 333.8 158.9 315.8 168.25 314.2 169.95 305.15 170.5 302.1 169.3 299.3 164.85 289 152.7 286.1 153.15 282.7 152.6 279.55 151.65 274.35 147.35 271.4
L 143.75 271.45 136.9 265.05 111.35 281
M 83.3 293
L 83.4 292.25 84 289.85
Q 91.45 281.65 102.3 282.9 104.9 283.3 107.5 283.7
L 87.8 294.6
Q 87.35 296.45 86.5 297.1 85.65 297.75 84.75 297.25 83.9 296.75 83.5 295.35 83.1 294 83.3 293
M 133.45 271.25
L 139.05 269.4 141.1 277.25 147.75 278.45
Q 149.4 283.35 147.8 288.1 146.1 293.25 140.6 294.15 140.2 293.95 139.85 293.8 130.3 289 130.5 278.1
L 129.9 280.75 129.3 287.3 139.15 297.3 131.7 298.8 127.85 295.7 109.2 310.2
Q 106.35 310.5 103.8 311.75 92.3 317.45 79.85 314.15
L 78.35 308.25 78.35 304.8 133.45 271.25
M 151.1 291.2
L 159.55 292.85 158.4 302.35 159.75 307.5 162.4 309.75 162.15 302.55 162.05 300.05 163.3 295.45 165 310.05 161.25 311.05 155.75 310.65 154.45 301.95 145.6 297.7 151.1 291.2
M 142.05 299.7
L 149.5 303.95
Q 150.65 307.6 152.4 311 154.1 314.25 156.35 317.3 154.95 322.6 149.3 324.55 144.75 326.25 140.35 328.25 129.25 333.25 117.25 335.85
L 117.45 327.15 114 322.55 112.1 320.95 102.55 319.3
Q 111.1 314.9 118.9 309.4 123.35 306.3 127.1 302.15 127.1 303.6 127.8 304.6 128.5 305.65 129.5 305.65
L 142.05 299.7
M 100.15 336.8
Q 97.55 334.2 97.55 330.45 97.55 326.7 100.15 324.05 102.8 321.45 106.55 321.45 110.3 321.45 112.9 324.05 115.55 326.7 115.55 330.45 115.55 334.2 112.9 336.8 110.3 339.45 106.55 339.45 102.8 339.45 100.15 336.8 Z"/>

<path fill="#CDC2A6" stroke="none" d="
M 97.55 330.45
Q 97.55 334.2 100.15 336.8 102.8 339.45 106.55 339.45 110.3 339.45 112.9 336.8 115.55 334.2 115.55 330.45 115.55 326.7 112.9 324.05 110.3 321.45 106.55 321.45 102.8 321.45 100.15 324.05 97.55 326.7 97.55 330.45
M 104.9 331.7
L 108.65 326.4 112.3 330.6 107.1 337.65 100.8 331.7 103.3 328.3 101.9 332.05 106.95 335.1 108.3 329.65 104.9 331.7
M 159.75 307.5
L 161.25 311.05 165 310.05 163.3 295.45 162.05 300.05 164.1 306.15 162.15 302.55 162.4 309.75 159.75 307.5
M 139.05 269.4
L 133.45 271.25 130.55 277.9 130.5 278.1
Q 130.3 289 139.85 293.8 140.2 293.95 140.6 294.15 146.1 293.25 147.8 288.1 149.4 283.35 147.75 278.45
L 141.1 277.25 137 282.05 140.25 289.1 142.85 286.5 140.1 282.25 145.45 286.75 140.05 291.8 133 281.5 139.05 269.4 Z"/>

<path fill="#7E7356" stroke="none" d="
M 108.65 326.4
L 104.9 331.7 108.3 329.65 106.95 335.1 101.9 332.05 103.3 328.3 100.8 331.7 107.1 337.65 112.3 330.6 108.65 326.4
M 162.05 300.05
L 162.15 302.55 164.1 306.15 162.05 300.05
M 133 281.5
L 140.05 291.8 145.45 286.75 140.1 282.25 142.85 286.5 140.25 289.1 137 282.05 141.1 277.25 139.05 269.4 133 281.5 Z"/>
</g>
</defs>

<g transform="matrix( 1, 0, 0, 1, 374.95,127.8) ">
<g transform="matrix( 1, 0, 0, 1, 0,0) ">
<use xlink:href="#barren_prop_19_Layer1_0_FILL"/>
</g>
</g>
</svg>
