
<svg xmlns="http://www.w3.org/2000/svg" version="1.1" xmlns:xlink="http://www.w3.org/1999/xlink" preserveAspectRatio="none" x="0px" y="0px" width="1000px" height="800px" viewBox="0 0 1000 800">
<defs>
<g id="barren_prop_12_Layer1_0_FILL">
<path fill="#000000" stroke="none" d="
M 117.55 257.7
L 118.05 271.8 95.55 274.2 79.55 312 76.9 328.05
Q 87.7 342.6 105.3 346.4 139.15 353.35 153.5 322.35 156.35 316.25 157.25 309.5 157.8 305.2 158.25 300.95 159.1 293.1 159.8 285.3
L 143.3 277.3 151.8 271.9 144.5 239.55 117.55 257.7
M 141.45 246
Q 143.6 244.65 143.8 247.1
L 146.7 269.45 137.95 275.6 123.35 271.15 120.1 262.65
Q 130.1 253.4 141.45 246
M 94.75 284
Q 95.65 282.6 97.05 282.05 127.85 270.85 156.3 288.5 155.9 291.65 155.55 294.8 153.25 316.85 143.1 336.6 142.7 336.85 142.25 337.1 125.25 346.75 106 342.6 104.4 342.25 102.8 341.9 97.2 340.55 91.85 338.3 87.05 336.25 84.1 331.9 80.95 306 94.75 284
M 132.8 304.3
Q 135.65 302.35 132.15 301.65
L 123.05 303.8 115.5 293.7 118.1 309.25 111.15 317.95 119.95 313.85 123.65 320.9 128.15 330.6 125.75 317.05 128.7 306.85 130.55 306
Q 131.65 305.15 132.8 304.3
M 106.75 292.7
L 100.3 294.15 98.7 287.65 92.95 304.5 97.65 302.2 101.4 313.85 101.4 299.5 106.75 292.7 Z"/>

<path fill="#999999" stroke="none" d="
M 130.55 306
L 128.7 306.85 125.75 317.05 130.55 306
M 97.05 282.05
Q 95.65 282.6 94.75 284 80.95 306 84.1 331.9 87.05 336.25 91.85 338.3 97.2 340.55 102.8 341.9 104.4 342.25 106 342.6
L 123.65 320.9 119.95 313.85 111.15 317.95 118.1 309.25 115.5 293.7 123.05 303.8 132.15 301.65 134.2 286.1 149.65 289.6 143.1 336.6
Q 153.25 316.85 155.55 294.8 155.9 291.65 156.3 288.5 127.85 270.85 97.05 282.05
M 100.3 294.15
L 106.75 292.7 101.4 299.5 101.4 313.85 97.65 302.2 92.95 304.5 98.7 287.65 100.3 294.15 Z"/>

<path fill="#666666" stroke="none" d="
M 149.65 289.6
L 134.2 286.1 132.15 301.65
Q 135.65 302.35 132.8 304.3 131.65 305.15 130.55 306
L 125.75 317.05 128.15 330.6 123.65 320.9 106 342.6
Q 125.25 346.75 142.25 337.1 142.7 336.85 143.1 336.6
L 149.65 289.6 Z"/>

<path fill="#CCCCCC" stroke="none" d="
M 137.95 275.6
L 146.7 269.45 143.8 247.1
Q 143.85 253.55 136.9 258.1 129.95 262.7 120.1 262.65
L 123.35 271.15 137.95 275.6 Z"/>

<path fill="#FFFFFF" stroke="none" d="
M 143.8 247.1
Q 143.6 244.65 141.45 246 130.1 253.4 120.1 262.65 129.95 262.7 136.9 258.1 143.85 253.55 143.8 247.1 Z"/>
</g>
</defs>

<g transform="matrix( 1, 0, 0, 1, 374.95,127.8) ">
<g transform="matrix( 1, 0, 0, 1, 0,0) ">
<use xlink:href="#barren_prop_12_Layer1_0_FILL"/>
</g>
</g>
</svg>
