
<svg xmlns="http://www.w3.org/2000/svg" version="1.1" xmlns:xlink="http://www.w3.org/1999/xlink" preserveAspectRatio="none" x="0px" y="0px" width="600px" height="1400px" viewBox="0 0 600 1400">
<defs>
<g id="bg_grass_hills_1_Layer1_0_FILL">
<path fill="#874300" stroke="none" d="
M 599.15 106.35
L -2.25 106.35 -2.25 1238.05 599.15 1238.05 599.15 106.35 Z"/>
</g>

<g id="bg_grass_hills_1_Layer0_0_FILL">
<path fill="#CC9900" stroke="none" d="
M 179.35 42.7
L 181.35 46.5 193.35 49.8 193.2 42.95
Q 193.2 41.5 191.85 40.5 190.45 39.5 188.45 39.5
L 183.6 38.6 179.35 42.7
M 173.05 40.4
L 168.15 37.45 165.3 31.3 154.95 21.85 147.5 25.6 143.65 24.85 128.4 30.3 126.2 33.25 129.45 38 149.1 32.2 156.15 39.85 161.65 40 170.5 46 173.05 40.4
M 599.15 -3.25
L 596.05 -4.05 595.25 0.5 596.65 0.95 599.15 1.35 599.15 -3.25
M 555.9 -4.45
L 563 -1.45 564.6 -4.25 573.1 -5.75 574.5 -13.1 576.4 -8.8 585.7 -9.75 585.55 -15.75 596 -8.25
Q 589.5 -24.9 572.15 -17.5 562.2 -13.25 552.9 -7.55
L 549.4 -8.25 538.9 6.15 534.45 4.8 524.2 12.95 501.8 10.2 501.4 14.3 524.2 16.75 534.45 8.9 538.9 10.2 547.15 2.5 555.9 6.35 555.9 -4.45
M 499.75 -2.45
Q 497.45 -5.7 494.4 -5.7
L 490.3 -1.25 501.25 1.9 501.9 5.3
Q 501.9 0.75 499.75 -2.45
M 477.45 -22.9
Q 478.7 -22.95 480 -22.95 490.85 -23.05 495.25 -13.45 495.25 -19.7 490.7 -24.1 486.2 -28.55 479.75 -28.55
L 477.45 -22.9
M 316.55 -33.1
L 321.95 -35.35
Q 332.7 -34.45 337.7 -25.25
L 382.3 -35.1 384.85 -28.9 382 -26.65 383.6 -21.4 389.65 -22.7 392.95 -37.55 396.65 -40.2 403.1 -38.9 404.05 -36.95 407.75 -35.1 412.05 -37.15 412.2 -41.4 415.5 -41.7 421.05 -53.1
Q 425.7 -53.1 430.2 -54.1 440.95 -56.05 436.7 -66.25
L 454.15 -69.7 456.4 -64.7 460 -63.8 461.2 -54.75 458.55 -51.1 462.1 -49.5 464.25 -50.7 468.9 -47.25 474.75 -53 477.05 -42.75
Q 476.2 -43.3 475.35 -43.75 468.95 -46.95 464.15 -41.4
L 463.9 -35.55 461.75 -34.1 460.15 -30.75 462 -27.95 466.45 -28.35 464.4 -24.9 466.9 -21.2 471.75 -22.65 470.55 -28.2
Q 469.85 -28.75 472.6 -29.95 479.15 -32.8 478.7 -39.8
L 479.9 -35.5
Q 481.45 -49.85 472.7 -61.25 457.75 -80.7 433.65 -72.3 430.5 -71.15 427.45 -71.35 412.85 -70.55 410.05 -56.85
L 406.1 -53 372.55 -46.6
Q 367.2 -49.45 362.65 -45.4 362.4 -45.1 362.15 -44.8 361.9 -44.5 361.75 -44.15 360.85 -42 360 -39.85
L 343.4 -32.6 339.95 -33.9 335.1 -43.5 331 -45.95
Q 325.3 -44.8 319.65 -44.65 314.85 -44.55 312.45 -40.35
L 316.55 -33.1
M 322.1 -72.95
L 315.35 -64.9 311.3 -67 307.35 -64.9 309.2 -59 313.45 -59.1 316 -63.05 332.95 -61 335 -57.95
Q 335 -64.15 331.2 -68.55 327.45 -72.95 322.1 -72.95
M 195.65 -30.25
Q 195.6 -30.2 195.6 -30.15 194.95 -28.2 193.4 -29.5
L 187.2 -28.15 185.4 -20.05 201 -21.3 205 -28.95 200.3 -32.15 195.65 -30.25
M 269.85 -110.05
Q 266.4 -110.1 264.1 -107.75 262.35 -103.9 264.5 -100.05 266.2 -97.15 269.6 -96.65
L 274.85 -98.15 272.1 -90.9
Q 277.15 -90.15 281.1 -87.35 285.55 -84.25 285.45 -78.95 285.8 -79.25 286.2 -79.5 305.85 -89.15 321.7 -74.25 322.55 -85.4 311.3 -88.35 298.4 -91.75 285.3 -88.7
L 275.5 -98.85 275.75 -107.2
Q 275.05 -107.9 274.3 -108.5 272.35 -110 269.85 -110.05
M 8.6 -5.25
L 10.3 -0.8 17.25 3.6 20.3 3.6 23.35 1.1 31.95 2.05 33.5 3.45 41.65 2.4 44.1 -0.45 51.95 7.7 56.05 7.15
Q 61.15 13.55 66.5 19.6 66.8 20 67.35 20.3 68.3 20.7 69.45 20.7
L 72.5 23.25 75.55 20.2 74.05 17.45 74.4 14.85 54.65 -11.35
Q 49.9 -11.7 47 -8.15 46.65 -7.7 46.55 -7.15 46.15 -5.45 45.55 -3.85 45 -2.6 44.2 -1.45
L 28.3 -8.2 29.1 -11.05 38.3 -11.05 33.75 -16.5 29.1 -15.9 25.25 -6.7 6.25 -9.9 -2.25 10.3 -2.25 10.55 8.6 -5.25
M 59.25 -54.9
Q 58.55 -54.85 57.9 -54.8 35.1 -50.65 31.05 -28.3
L 40.4 -40.6 45.85 -39.7 48.55 -46.35 54.5 -44.65 58 -47.45 59.6 -43.6 70.45 -45.4
Q 70.95 -47.95 71.55 -50.5 71.8 -51.5 72.25 -52.4 73.05 -53.9 74.45 -54.95 75.95 -56 77.45 -56.95
L 76.65 -62.2 88 -60.05 89.1 -49.15 96.45 -49.5 97.05 -56.85 99.9 -59.45 98.95 -63.7 94.65 -63.05 103.95 -67.2 104.9 -65.15 110.15 -62.45 112.9 -65.8 116.95 -65.7 115.1 -71.95 111 -73.85
Q 103.5 -73.95 97.05 -70.35 94.9 -69.1 92.2 -68.75 71.55 -69.95 59.25 -54.9
M 91.8 -130.1
L 86.25 -130.25 83.5 -134.55
Q 78.6 -134.55 75.25 -128.5 71.8 -122.45 71.8 -113.9
L 77.5 -111.85 80.85 -115.9 76.7 -119.4 79.85 -121.7 84 -119.55 92.5 -126.15 98.25 -125.35 98.25 -131.9 93.05 -131.4 91.8 -130.1
M 72.9 28.75
Q 72.9 28.2 72.5 27.8 72.1 27.4 71.55 27.4 70.95 27.4 70.5 27.8 70.1 28.2 70.1 28.75 70.1 29.3 70.5 29.7 70.95 30.1 71.55 30.1 72.1 30.1 72.5 29.7 72.9 29.3 72.9 28.75
M 118.8 54.75
Q 118.8 56 119.7 56.9 120.6 57.8 121.9 57.8 123.15 57.8 124.1 56.9 125 56 125 54.75 125 53.5 124.1 52.6 123.15 51.7 121.9 51.7 120.6 51.7 119.7 52.6 118.8 53.5 118.8 54.75
M 116.05 35.9
L 116.95 32.35 112.2 33.2 110.65 35.85 104.4 39.15
Q 107.15 46.05 114.6 46.05 115.2 45.45 115.8 44.8 120.1 40.5 116.05 35.9
M 89.45 41.95
Q 89.45 42.8 90.05 43.4 90.6 43.95 91.4 43.95 92.25 43.95 92.85 43.4 93.4 42.8 93.4 41.95 93.4 41.1 92.85 40.55 92.25 39.95 91.4 39.95 90.6 39.95 90.05 40.55 89.45 41.1 89.45 41.95
M 98.1 34.75
Q 96.8 34.75 95.85 35.7 94.95 36.6 94.95 37.9 94.95 39.2 95.85 40.15 96.8 41.05 98.1 41.05 99.4 41.05 100.35 40.15 101.25 39.2 101.25 37.9 101.25 36.6 100.35 35.7 99.4 34.75 98.1 34.75
M 123.2 36.3
Q 124.15 35.35 124.15 34.05 124.15 32.75 123.2 31.85 122.25 30.9 120.9 30.9 119.6 30.9 118.7 31.85 117.75 32.75 117.75 34.05 117.75 35.35 118.7 36.3 119.6 37.2 120.9 37.2 122.25 37.2 123.2 36.3
M 543.05 11.9
Q 541.85 10.7 540.15 10.7 538.5 10.7 537.35 11.9 536.05 13.05 536.05 14.7 536.05 16.35 537.35 17.55 538.5 18.7 540.15 18.7 541.85 18.7 543.05 17.55 544.2 16.35 544.2 14.7 544.2 13.05 543.05 11.9
M 452.2 -54.65
Q 453.25 -55.75 453.25 -57.3 453.25 -58.85 452.2 -59.95 451.05 -61.05 449.5 -61.05 447.95 -61.05 446.8 -59.95 445.7 -58.85 445.7 -57.3 445.7 -55.75 446.8 -54.65 447.95 -53.55 449.5 -53.55 451.05 -53.55 452.2 -54.65
M 340.85 -21.4
Q 339.45 -21.4 338.45 -20.4 337.4 -19.4 337.4 -17.95 337.4 -16.5 338.45 -15.5 339.45 -14.5 340.85 -14.5 342.35 -14.5 343.35 -15.5 344.35 -16.5 344.35 -17.95 344.35 -19.4 343.35 -20.4 342.35 -21.4 340.85 -21.4
M 293.4 -9.4
Q 292.35 -8.35 292.35 -6.85 292.35 -5.35 293.4 -4.25 294.45 -3.2 296 -3.2 297.55 -3.2 298.6 -4.25 299.7 -5.35 299.7 -6.85 299.7 -8.35 298.6 -9.4 297.55 -10.5 296 -10.5 294.45 -10.5 293.4 -9.4
M 290.65 -10
Q 290.65 -10.45 289.75 -10.75 288.75 -11.1 287.4 -11.1 286 -11.1 285.1 -10.75 284.15 -10.45 284.15 -10 284.15 -9.55 285.1 -9.2 286 -8.9 287.4 -8.9 288.75 -8.9 289.75 -9.2 290.65 -9.55 290.65 -10
M 283 -13.8
Q 283 -14.75 282.25 -15.45 281.5 -16.15 280.55 -16.15 279.6 -16.15 278.9 -15.45 278.2 -14.75 278.2 -13.8 278.2 -12.85 278.9 -12.15 279.6 -11.45 280.55 -11.45 281.5 -11.45 282.25 -12.15 283 -12.85 283 -13.8
M 251.95 -10.1
L 251.6 -7.05 254.85 -4.25
Q 258.8 -3.55 262.2 -5.85 262.6 -6.05 262.95 -6.35 263.4 -6.8 263.85 -7.25 264.25 -7.75 264.5 -8.25 265 -9.5 265.5 -10.7
L 276.9 -15.75 265.05 -19.3 251.95 -10.1
M 263.2 -23.2
Q 263.2 -23.75 262.8 -24.15 262.4 -24.55 261.85 -24.55 261.3 -24.55 260.85 -24.15 260.45 -23.75 260.45 -23.2 260.45 -22.65 260.85 -22.25 261.3 -21.85 261.85 -21.85 262.4 -21.85 262.8 -22.25 263.2 -22.65 263.2 -23.2
M 257.35 -32.7
Q 256.25 -32.7 255.5 -31.95 254.75 -31.25 254.75 -30.2 254.75 -29.15 255.5 -28.4 256.25 -27.7 257.35 -27.7 258.4 -27.7 259.15 -28.4 259.95 -29.15 259.95 -30.2 259.95 -31.25 259.15 -31.95 258.4 -32.7 257.35 -32.7
M 252.85 -35.35
Q 251.7 -35.35 250.95 -34.6 250.2 -33.85 250.2 -32.8 250.2 -31.75 250.95 -31 251.7 -30.25 252.85 -30.25 253.9 -30.25 254.65 -31 255.4 -31.75 255.4 -32.8 255.4 -33.85 254.65 -34.6 253.9 -35.35 252.85 -35.35
M 244.85 -40.05
Q 243.95 -40.05 243.4 -39.45 242.85 -38.9 242.85 -38.1 242.85 -37.3 243.4 -36.7 243.95 -36.15 244.85 -36.15 245.65 -36.15 246.2 -36.7 246.75 -37.3 246.75 -38.1 246.75 -38.9 246.2 -39.45 245.65 -40.05 244.85 -40.05
M 247.75 -76.8
Q 247.1 -76.15 247.1 -75.25 247.1 -74.35 247.75 -73.7 248.35 -73.05 249.3 -73.05 250.2 -73.05 250.85 -73.7 251.45 -74.35 251.45 -75.25 251.45 -76.15 250.85 -76.8 250.2 -77.45 249.3 -77.45 248.35 -77.45 247.75 -76.8
M 264.05 -82.7
Q 264.9 -83.6 264.9 -84.85 264.9 -86.1 264.05 -87 263.15 -87.9 261.9 -87.9 260.6 -87.9 259.75 -87 258.8 -86.1 258.8 -84.85 258.8 -83.6 259.75 -82.7 260.6 -81.8 261.9 -81.8 263.15 -81.8 264.05 -82.7
M 267.65 -90.5
Q 267.65 -91.75 266.8 -92.65 265.85 -93.55 264.55 -93.55 263.3 -93.55 262.45 -92.65 261.55 -91.75 261.55 -90.5 261.55 -89.25 262.45 -88.35 263.3 -87.45 264.55 -87.45 265.85 -87.45 266.8 -88.35 267.65 -89.25 267.65 -90.5
M 287.05 -75
Q 286.35 -75 285.9 -74.5 285.4 -74.05 285.4 -73.4 285.4 -72.75 285.9 -72.25 286.35 -71.8 287.05 -71.8 287.7 -71.8 288.2 -72.25 288.65 -72.75 288.65 -73.4 288.65 -74.05 288.2 -74.5 287.7 -75 287.05 -75
M 230 -37.15
L 230 -32.5 239.35 -32.5 239.35 -37.15 230 -37.15
M 226.8 -30.25
L 229.45 -33.5 224.7 -41.6 220.4 -43.2 206.2 -33.95 204.75 -29.85 207.6 -27.7 219.45 -28.2 222.05 -30.4 226.8 -30.25
M 176.05 -95.95
Q 176.05 -95 176.85 -94.3 177.5 -93.6 178.45 -93.6 179.4 -93.6 180.1 -94.3 180.8 -95 180.8 -95.95 180.8 -96.9 180.1 -97.6 179.4 -98.3 178.45 -98.3 177.5 -98.3 176.85 -97.6 176.05 -96.9 176.05 -95.95
M 219.7 -80.5
Q 220.05 -80.9 220.05 -81.45 220.05 -82 219.7 -82.35 219.3 -82.75 218.7 -82.75 218.15 -82.75 217.8 -82.35 217.4 -82 217.4 -81.45 217.4 -80.9 217.8 -80.5 218.15 -80.15 218.7 -80.15 219.3 -80.15 219.7 -80.5
M 208.6 -88.65
Q 208.7 -88.95 208.75 -89.25 207.9 -95.55 201.05 -96.05 199.95 -95.9 198.8 -95.7
L 194.7 -91.25 187.4 -92.7 178.95 -86.35 183.95 -78.25 199.3 -85.15
Q 203.35 -83.65 206.8 -86.3 208.1 -87.25 208.6 -88.65
M 211.35 -91.3
L 209.25 -87.8 213 -84.7 215.1 -82.5 218.25 -85.2 211.35 -91.3
M 169.85 -103.65
Q 168.85 -102.7 168.85 -101.35 168.85 -100 169.85 -99.05 170.75 -98.1 172.1 -98.1 173.5 -98.1 174.45 -99.05 175.35 -100 175.35 -101.35 175.35 -102.7 174.45 -103.65 173.5 -104.6 172.1 -104.6 170.75 -104.6 169.85 -103.65
M 129.5 -120.2
Q 129.5 -122 128.25 -123.25 126.95 -124.5 125.1 -124.5 123.25 -124.5 122 -123.25 120.65 -122 120.65 -120.2 120.65 -118.4 122 -117.15 123.25 -115.9 125.1 -115.9 126.95 -115.9 128.25 -117.15 129.5 -118.4 129.5 -120.2
M 130.1 -137.65
Q 130.1 -139.15 129 -140.2 127.9 -141.3 126.35 -141.3 124.75 -141.3 123.65 -140.2 122.55 -139.15 122.55 -137.65 122.55 -136.15 123.65 -135.05 124.75 -134 126.35 -134 127.9 -134 129 -135.05 130.1 -136.15 130.1 -137.65
M 157.45 -129
Q 156.6 -129.4 155.8 -129.75 147.3 -132.85 139.05 -129.15
L 135.5 -127.6 136.65 -123.75 143.05 -124.1
Q 151.95 -118.4 162.45 -120.45
L 157.45 -129
M 111.1 -138.75
Q 109.05 -138.75 107.5 -137.25 106.05 -135.8 106.05 -133.75 106.05 -131.7 107.5 -130.2 109.05 -128.75 111.1 -128.75 113.2 -128.75 114.65 -130.2 116.1 -131.7 116.1 -133.75 116.1 -135.8 114.65 -137.25 113.2 -138.75 111.1 -138.75
M 158.85 -161
Q 150.15 -162.5 142.45 -158.45 111.85 -170.2 88.95 -147.15 85.15 -143.4 84.85 -138.1
L 104.15 -148.55 107.7 -147.35 111.2 -151.1 134.5 -143.3 131 -141.35 133.3 -135.65 138.6 -136.95 139.2 -138.75 150.7 -145.8 150.05 -151.15 155.05 -151.75 157.55 -146.25 160.55 -149 165.45 -146.55 168.55 -148.25 177.4 -146.45 184.7 -143.55 195.6 -138.05 200.1 -139.45
Q 202.3 -138.35 204.65 -138.45 206.05 -138.65 207.15 -139.1 211.8 -140.8 211.55 -145.65
L 221.55 -137.85 224.3 -124.7 227.45 -123.85 229.8 -124.95 229.1 -132.85 231.9 -125.25 228.95 -122.2 232.1 -116.25 242.25 -120.1 242.7 -124.7 250.75 -123.25 253.05 -127.2 256.35 -125.25
Q 256.5 -124.45 256.65 -123.6 258.05 -116.95 264.8 -115.6
L 265.95 -112.1 268.05 -110.75 272.75 -112.85 272.2 -118.1 270.3 -119.5 268 -126.75
Q 268.9 -126.3 269.85 -125.8 275.9 -122.1 276.4 -115.1 276.7 -132.85 258.8 -135.25 245.9 -136.7 234.7 -129.95 228.15 -153.6 203.45 -155.65 196.75 -156.4 191 -153.65 181.7 -164.75 167.45 -161.1 163.2 -160.05 158.85 -161
M 223.05 -137.3
Q 223 -137.35 223 -137.4 225.05 -135.45 223.05 -137.3 Z"/>

<path fill="#874300" stroke="none" d="
M 597.65 7.65
L 598.25 2.55 596.65 0.95 595.25 0.5 591.55 2.75 595.6 11.35 599.15 11.5 599.15 10.05 597.65 7.65
M 132.4 -61.35
L 124.45 -61.7 122.05 -57.25 145.75 -39.05
Q 141.25 -30 131.1 -28.55 130 -28.35 128.85 -28.15 130.35 -17.55 138.95 -11.25 144.65 -7.1 149.65 -2 145.6 0.4 141.05 1.9 135.5 3.7 129.6 3.7 116.85 3.7 105.05 5.45 107.5 15.25 118.55 13.25 119 13.1 119.45 12.95
L 143.65 24.85 147.5 25.6 154.95 21.85 165.3 31.3 187.15 36.4 188.45 39.5
Q 190.45 39.5 191.85 40.5 193.2 41.5 193.2 42.95
L 199.9 45.3 174.55 78.9 172.45 77.05
Q 172.3 76.4 172.1 75.85 172.05 75.5 171.9 75.25 165.5 65.45 156.15 72.5 153.05 74.75 149.6 76.5
L 150.35 72.1 146.05 69.2 142.65 70.75 142.3 76.4 146.8 78.2 136.25 80.4 125.4 75.45 121.8 76.1 120.05 68.85
Q 119.7 69.45 119.3 70.05 118.95 70.6 118.55 71.1 109.3 82.3 94.6 83.75
L 94.45 77.7 90.45 76.2 85.65 81.1 80.1 78.05
Q 80 77.55 79.85 77.1 79.7 76.65 79.4 76.4 71.6 69.25 61.7 65.55
L 57.65 65.75 69.6 47.85 73.7 48.6 80.15 39.9 71 33.55 57.55 51.4 47.9 55.2 40.1 46.15 40.25 39.45 31.15 35.55 19.7 42.55 13.8 39.9 -2.25 42.05 -2.25 116.55 599.15 116.6 599.15 46.8 596.7 45.95 591.2 52.1 585.7 52.5 581 62.45
Q 575.25 66 568.45 67.5 557.65 69.8 547.05 66.7
L 548.2 61.5 545.15 59.65 549 53.05 545.35 50.4 546.35 43.4 542.9 43.4 540.4 46.95 540.2 50.1 530.65 59.75 521.55 58.15 517.65 64.6 502.5 63.85 499.1 49.75 489.9 55.05 489.3 45.65 484.1 42.55
Q 484.35 42.95 484.6 43.35 484.85 43.75 485.05 44.15 485.25 44.5 485.4 44.9 485.5 45.3 485.6 45.75 485.85 46.9 485.5 48.1 485.15 49.35 483.95 50.35 483.6 50.7 483.25 51.05
L 488.05 56.4 484.45 62.15 477.95 59.65 479.85 52.45 477.5 51.45
Q 476 52.55 474.5 53.45 473.25 54.15 471.85 54.45 470.05 54.85 468.15 54.6 466.3 54.45 464.45 53.9
L 461.15 47.5
Q 463.95 45.1 466.95 42.9 467.9 42.2 469.15 41.85 472.6 40.7 475.75 42.75 479.9 42.3 483.3 40.35 494.45 34 499.35 22.55
L 487.35 25.8 484.45 14.65
Q 485.1 13.3 485.6 11.95 486 11 486.1 10 486.3 8.55 486.25 7.1 486.15 3.8 483.5 1.2 481.1 -0.6 477.95 0.1 472.85 1.2 470.55 5.65 468.9 8.65 469.75 12.15
L 466.5 17.7 462.05 13.3 457.3 15.1 456.2 17.5 456.6 20.85 451.15 23.2 433.9 16.4 431.8 11
Q 437.3 10.25 442.3 7.95 453.05 2.75 460.4 -6.35
L 468.55 -8.9 469 -12.15 473.95 -13.35 471.05 -17.45 467.95 -14.45 465.1 -14.15 461.75 -11.45 460.25 -6.85 456.75 -6.4
Q 456.5 -6.6 456.25 -6.8 455.4 -7.35 454.55 -7.9 453.7 -8.35 452.9 -8.8 452.4 -9 451.9 -9.05 449 -9.95 446.05 -8.85 445.2 -8.55 444.4 -8.1 442.15 -8.9 439.95 -9.45 438.2 -10 436.35 -9.65 430.35 -8.25 425.3 -4.95
L 423.75 -1.35 420.8 -4.65 414.8 -1.2 395.7 -1.75 393.7 1.2 394.6 3.85 401.25 3.65 419.25 14.65
Q 419.05 17.9 418.4 21.1 418.05 22.75 417.1 24.25 416.25 25.55 415.2 26.65 414.1 27.7 412.85 28.65
L 409 38
Q 404.85 39.4 400.95 41.55 394.55 45.15 390 51.1
L 343.35 55.4
Q 346.4 57.95 349.9 59.8 356.9 63.45 364.95 63.8 366.75 63.9 368.4 63.5
L 370 64.4
Q 366.35 69 361.1 71.75 349 78.05 335.95 74.55
L 328.75 78.1 314.7 64.5 308.35 63.1 309.7 56.4 313.35 51.3
Q 313.3 50.7 313.15 50.1 312.95 49.45 312.6 48.85 312.35 48.35 312 48 311.65 47.55 311.3 47.2 309.95 45.6 308 45.3 306.6 45.05 305.2 45
L 300.5 41.45 296.7 43.65 308.8 30.4 307.6 26.8 304.2 25.9 301.1 30.05 285.45 29.9 283.55 24.4 274.35 25.65 273.25 32.15 257.1 37.35 253.25 29.8 253.75 25.05 247.7 22.15
Q 245.85 25.4 242.55 27.65 231.45 35.4 218.35 31.1
L 240.65 1.9
Q 242.25 1.3 243.8 0.55 244.75 0.25 245.45 -0.3 247.15 -1.8 247.15 -4.15 247.1 -6.95 245.35 -8.8 244.35 -9.8 242.65 -10.25
L 234.95 -3.4 228 -3.1 225.75 5.35 220.2 3.3 216.25 7.4
Q 210.65 5.2 206.4 1 204.1 -1.2 200.9 -1.45 198.85 -1.5 196.85 -1.3
L 195.45 -2.4
Q 195.05 -2.15 194.65 -1.95 194.05 -1.6 193.35 -1.3 192.65 -1.05 192 -0.8 191.4 -0.7 190.85 -0.6 188.85 -0.65 187.3 -1.8 186.2 -2.6 185.7 -3.9
L 156.55 -14.9
Q 161.05 -15.3 165.3 -16.55 176.3 -20 184.6 -27.85
L 187.2 -28.15 193.4 -29.5 195.65 -30.25 200.3 -32.15 216.15 -43.1
Q 216.65 -43.1 217.15 -43.05 224.4 -43.7 224.85 -50.9 224.85 -51.3 224.9 -51.7
L 233.4 -54.55 231.45 -59.95 223.65 -56.55 223.2 -54.35
Q 221.4 -55.9 219.05 -56.3 206.85 -56.4 203.95 -45.75 203.7 -44.85 203.7 -43.85
L 197.7 -43.35 194.6 -44.85 190.5 -41.75 166.2 -45.65 165 -52.9 167.15 -55.8 169.45 -56.55 171.25 -61.4 162.7 -59 161 -55.55 150 -55.1 145.65 -59.55 141.4 -59.1 138.5 -53 134.05 -55.55 132.4 -61.35
M 173.3 -1
Q 174.1 -1 174.65 -0.45 175.2 0.1 175.2 0.9 175.2 1.7 174.65 2.25 174.1 2.8 173.3 2.8 172.5 2.8 171.9 2.25 171.35 1.7 171.35 0.9 171.35 0.1 171.9 -0.45 172.5 -1 173.3 -1
M 180.45 -3.25
Q 181.35 -3.25 181.95 -2.65 182.55 -2.05 182.55 -1.2 182.55 -0.35 181.95 0.25 181.35 0.85 180.45 0.85 179.6 0.85 179 0.25 178.4 -0.35 178.4 -1.2 178.4 -2.05 179 -2.65 179.6 -3.25 180.45 -3.25
M 592.3 70.85
Q 593.4 71.95 593.4 73.5 593.4 75.05 592.3 76.15 591.15 77.25 589.55 77.25 588 77.25 586.85 76.15 585.75 75.05 585.75 73.5 585.75 71.95 586.85 70.85 588 69.75 589.55 69.75 591.15 69.75 592.3 70.85
M 580.55 70.2
Q 582 71.65 582 73.7 582 75.75 580.55 77.25 579.1 78.7 577 78.7 574.95 78.7 573.4 77.25 571.95 75.75 571.95 73.7 571.95 71.65 573.4 70.2 574.95 68.7 577 68.7 579.1 68.7 580.55 70.2
M 554.95 71.15
Q 556.15 72.35 556.15 74.1 556.15 75.85 554.95 77.1 553.7 78.3 551.85 78.3 550.1 78.3 548.85 77.1 547.6 75.85 547.6 74.1 547.6 72.35 548.85 71.15 550.1 69.9 551.85 69.9 553.7 69.9 554.95 71.15
M 536.1 71.95
Q 536.1 70.3 537.4 69.15 538.55 67.95 540.25 67.95 542 67.95 543.2 69.15 544.35 70.3 544.35 71.95 544.35 73.6 543.2 74.8 542 75.95 540.25 75.95 538.55 75.95 537.4 74.8 536.1 73.6 536.1 71.95
M 533.8 69.3
Q 535.25 70.75 535.25 72.8 535.25 74.85 533.8 76.35 532.3 77.8 530.25 77.8 528.15 77.8 526.65 76.35 525.2 74.85 525.2 72.8 525.2 70.75 526.65 69.3 528.15 67.8 530.25 67.8 532.3 67.8 533.8 69.3
M 476.3 29.4
Q 478 30.95 478 33.2 478 35.45 476.3 37.05 474.7 38.6 472.4 38.6 470.15 38.6 468.45 37.05 466.85 35.45 466.85 33.2 466.85 30.95 468.45 29.4 470.15 27.8 472.4 27.8 474.7 27.8 476.3 29.4
M 415.1 70.65
Q 413.85 69.4 413.85 67.65 413.85 65.9 415.1 64.65 416.35 63.4 418.2 63.4 419.95 63.4 421.2 64.65 422.5 65.9 422.5 67.65 422.5 69.4 421.2 70.65 419.95 71.9 418.2 71.9 416.35 71.9 415.1 70.65
M 406.75 70.45
Q 407.7 71.4 407.7 72.75 407.7 74.1 406.75 75.05 405.75 76 404.35 76 403 76 402.05 75.05 400.95 74.1 400.95 72.75 400.95 71.4 402.05 70.45 403 69.5 404.35 69.5 405.75 69.5 406.75 70.45
M 455 50.9
Q 456.05 49.8 457.6 49.8 459.1 49.8 460.2 50.9 461.3 51.95 461.3 53.45 461.3 54.95 460.2 56.05 459.1 57.1 457.6 57.1 456.05 57.1 455 56.05 453.85 54.95 453.85 53.45 453.85 51.95 455 50.9
M 389.05 71.95
Q 389.05 70.35 390.2 69.25 391.3 68.1 392.95 68.1 394.6 68.1 395.75 69.25 396.9 70.35 396.9 71.95 396.9 73.55 395.75 74.7 394.6 75.8 392.95 75.8 391.3 75.8 390.2 74.7 389.05 73.55 389.05 71.95
M 387.4 68.45
Q 387.4 71.35 385.3 73.45 383.15 75.5 380.25 75.5 377.25 75.5 375.15 73.45 373.05 71.35 373.05 68.45 373.05 65.55 375.15 63.5 377.25 61.4 380.25 61.4 383.15 61.4 385.3 63.5 387.4 65.55 387.4 68.45
M 253.15 49.75
Q 253.95 50.55 253.95 51.7 253.95 52.85 253.15 53.7 252.25 54.5 251.05 54.5 249.9 54.5 249.1 53.7 248.2 52.85 248.2 51.7 248.2 50.55 249.1 49.75 249.9 48.9 251.05 48.9 252.25 48.9 253.15 49.75
M 260.65 49.8
Q 261.45 50.55 261.45 51.65 261.45 52.75 260.65 53.5 259.85 54.25 258.7 54.25 257.6 54.25 256.8 53.5 256 52.75 256 51.65 256 50.55 256.8 49.8 257.6 49.05 258.7 49.05 259.85 49.05 260.65 49.8
M 246.15 50.6
Q 246.95 50.6 247.55 51.2 248.1 51.75 248.1 52.55 248.1 53.35 247.55 53.95 246.95 54.5 246.15 54.5 245.35 54.5 244.8 53.95 244.1 53.35 244.1 52.55 244.1 51.75 244.8 51.2 245.35 50.6 246.15 50.6
M 211.3 46.65
Q 211.9 47.25 211.9 48.15 211.9 49.05 211.3 49.7 210.65 50.3 209.75 50.3 208.9 50.3 208.3 49.7 207.65 49.05 207.65 48.15 207.65 47.25 208.3 46.65 208.9 46 209.75 46 210.65 46 211.3 46.65
M 221.9 59.3
Q 216.1 56.1 213.7 50.15 223.65 45.3 233.55 49.45 234.15 49.75 234.8 49.9
L 239.45 55.25 236.3 59.1 231.45 57.75
Q 227.2 62.3 221.9 59.3
M 119.65 -101.85
Q 113.85 -105.35 108.2 -101.55 103.4 -98.3 98 -96.5
L 97.75 -90.9 105 -90.75 105.4 -86 105.75 -85.65 111.6 -87.7 115.25 -86.9 119.65 -101.85
M 51.4 38.65
Q 49.55 38.65 48.15 39.95 46.85 41.25 46.85 43.05 46.85 44.85 48.15 46.15 49.55 47.45 51.4 47.45 53.25 47.45 54.6 46.15 55.9 44.85 55.9 43.05 55.9 41.25 54.6 39.95 53.25 38.65 51.4 38.65
M 328.35 43.95
L 325.85 49.4 334.8 51.45 339.2 55.65 341.15 51.5 328.35 43.95
M 374.4 31.4
L 374.35 34.75 383.6 32.35 385.05 30.2 384.8 22.7 381.95 20.85 374.4 31.4
M 371.75 30.5
Q 371.75 29.25 370.85 28.4 369.95 27.5 368.7 27.5 367.45 27.5 366.55 28.4 365.65 29.25 365.65 30.5 365.65 31.75 366.55 32.65 367.45 33.5 368.7 33.5 369.95 33.5 370.85 32.65 371.75 31.75 371.75 30.5
M 400.7 22.6
Q 400.7 20.95 399.15 19.8 397.6 18.65 395.35 18.65 393.1 18.65 391.5 19.8 389.95 20.95 389.95 22.6 389.95 24.25 391.5 25.4 393.1 26.55 395.35 26.55 397.6 26.55 399.15 25.4 400.7 24.25 400.7 22.6
M 555.4 30.45
Q 554.65 29.7 553.6 29.7 552.5 29.7 551.75 30.45 551 31.2 551 32.25 551 33.3 551.75 34.05 552.5 34.8 553.6 34.8 554.65 34.8 555.4 34.05 556.1 33.3 556.1 32.25 556.1 31.2 555.4 30.45
M 594.95 21.7
L 593.95 16.4 584.35 20.9
Q 582 19.5 579.25 20.1 571.25 22.05 564.05 26.25
L 563.6 31.7
Q 565.05 34.2 567.9 34.35 575.55 35.5 582.9 33.1 587.8 31.4 587.8 25.95
L 594.95 21.7
M 395.05 -4.4
Q 395.05 -5.65 394.15 -6.55 393.25 -7.45 391.95 -7.45 390.7 -7.45 389.85 -6.55 388.95 -5.65 388.95 -4.4 388.95 -3.15 389.85 -2.25 390.7 -1.35 391.95 -1.35 393.25 -1.35 394.15 -2.25 395.05 -3.15 395.05 -4.4
M 262.05 -71.5
Q 261.35 -70.8 261.35 -69.85 261.35 -68.9 262.05 -68.2 262.7 -67.5 263.65 -67.5 264.6 -67.5 265.3 -68.2 266 -68.9 266 -69.85 266 -70.8 265.3 -71.5 264.6 -72.2 263.65 -72.2 262.7 -72.2 262.05 -71.5
M 181.1 -70.3
L 179.3 -66.6 191.8 -68.2 190.65 -74.25 186.85 -74.8 181.1 -70.3
M 173.8 -62.65
Q 174.55 -61.9 175.65 -61.9 176.85 -61.9 177.6 -62.65 178.35 -63.4 178.35 -64.5 178.35 -65.6 177.6 -66.35 176.85 -67.1 175.65 -67.1 174.55 -67.1 173.8 -66.35 173.05 -65.6 173.05 -64.5 173.05 -63.4 173.8 -62.65
M 238.8 -65.8
L 242.05 -59.6 244.25 -59.7 248.9 -57.1 253 -60.35
Q 256.65 -59.6 259.55 -62.2 261.1 -63.55 261 -65.7 261 -66.25 261.05 -66.75
L 253.95 -70.65 249.8 -65.7 243 -69.15 238.8 -65.8
M 100.9 -2.25
Q 99.9 -3.25 98.55 -3.25 97.2 -3.25 96.25 -2.25 95.25 -1.3 95.25 0.05 95.25 1.4 96.25 2.4 97.2 3.35 98.55 3.35 99.9 3.35 100.9 2.4 101.9 1.4 101.9 0.05 101.9 -1.3 100.9 -2.25
M 122.55 -60.95
Q 123.6 -62 123.6 -63.45 123.6 -64.9 122.55 -65.95 121.5 -67 120 -67 118.55 -67 117.5 -65.95 116.35 -64.9 116.35 -63.45 116.35 -62 117.5 -60.95 118.55 -59.9 120 -59.9 121.5 -59.9 122.55 -60.95
M 126.45 -99.8
Q 126.45 -100.6 125.9 -101.15 125.3 -101.75 124.5 -101.75 123.65 -101.75 123.1 -101.15 122.55 -100.6 122.55 -99.8 122.55 -99 123.1 -98.4 123.65 -97.85 124.5 -97.85 125.3 -97.85 125.9 -98.4 126.45 -99 126.45 -99.8
M 130.05 -101.55
Q 130.05 -100.6 130.7 -99.95 131.35 -99.3 132.35 -99.3 133.3 -99.3 133.95 -99.95 134.65 -100.6 134.65 -101.55 134.65 -102.5 133.95 -103.15 133.3 -103.8 132.35 -103.8 131.35 -103.8 130.7 -103.15 130.05 -102.5 130.05 -101.55 Z"/>

<path fill="#CC6600" stroke="none" d="
M 598.25 2.55
L 597.65 7.65 599.15 10.05 599.15 1.35 596.65 0.95 598.25 2.55
M 195.6 -30.15
Q 195.6 -30.2 195.65 -30.25
L 193.4 -29.5
Q 194.95 -28.2 195.6 -30.15
M 213.7 50.15
Q 216.1 56.1 221.9 59.3 227.2 62.3 231.45 57.75
L 236.3 59.1 239.45 55.25 234.8 49.9
Q 234.15 49.75 233.55 49.45 223.65 45.3 213.7 50.15
M 211.9 48.15
Q 211.9 47.25 211.3 46.65 210.65 46 209.75 46 208.9 46 208.3 46.65 207.65 47.25 207.65 48.15 207.65 49.05 208.3 49.7 208.9 50.3 209.75 50.3 210.65 50.3 211.3 49.7 211.9 49.05 211.9 48.15
M 247.55 51.2
Q 246.95 50.6 246.15 50.6 245.35 50.6 244.8 51.2 244.1 51.75 244.1 52.55 244.1 53.35 244.8 53.95 245.35 54.5 246.15 54.5 246.95 54.5 247.55 53.95 248.1 53.35 248.1 52.55 248.1 51.75 247.55 51.2
M 261.45 51.65
Q 261.45 50.55 260.65 49.8 259.85 49.05 258.7 49.05 257.6 49.05 256.8 49.8 256 50.55 256 51.65 256 52.75 256.8 53.5 257.6 54.25 258.7 54.25 259.85 54.25 260.65 53.5 261.45 52.75 261.45 51.65
M 253.95 51.7
Q 253.95 50.55 253.15 49.75 252.25 48.9 251.05 48.9 249.9 48.9 249.1 49.75 248.2 50.55 248.2 51.7 248.2 52.85 249.1 53.7 249.9 54.5 251.05 54.5 252.25 54.5 253.15 53.7 253.95 52.85 253.95 51.7
M 385.3 73.45
Q 387.4 71.35 387.4 68.45 387.4 65.55 385.3 63.5 383.15 61.4 380.25 61.4 377.25 61.4 375.15 63.5 373.05 65.55 373.05 68.45 373.05 71.35 375.15 73.45 377.25 75.5 380.25 75.5 383.15 75.5 385.3 73.45
M 390.2 69.25
Q 389.05 70.35 389.05 71.95 389.05 73.55 390.2 74.7 391.3 75.8 392.95 75.8 394.6 75.8 395.75 74.7 396.9 73.55 396.9 71.95 396.9 70.35 395.75 69.25 394.6 68.1 392.95 68.1 391.3 68.1 390.2 69.25
M 457.6 49.8
Q 456.05 49.8 455 50.9 453.85 51.95 453.85 53.45 453.85 54.95 455 56.05 456.05 57.1 457.6 57.1 459.1 57.1 460.2 56.05 461.3 54.95 461.3 53.45 461.3 51.95 460.2 50.9 459.1 49.8 457.6 49.8
M 407.7 72.75
Q 407.7 71.4 406.75 70.45 405.75 69.5 404.35 69.5 403 69.5 402.05 70.45 400.95 71.4 400.95 72.75 400.95 74.1 402.05 75.05 403 76 404.35 76 405.75 76 406.75 75.05 407.7 74.1 407.7 72.75
M 413.85 67.65
Q 413.85 69.4 415.1 70.65 416.35 71.9 418.2 71.9 419.95 71.9 421.2 70.65 422.5 69.4 422.5 67.65 422.5 65.9 421.2 64.65 419.95 63.4 418.2 63.4 416.35 63.4 415.1 64.65 413.85 65.9 413.85 67.65
M 478 33.2
Q 478 30.95 476.3 29.4 474.7 27.8 472.4 27.8 470.15 27.8 468.45 29.4 466.85 30.95 466.85 33.2 466.85 35.45 468.45 37.05 470.15 38.6 472.4 38.6 474.7 38.6 476.3 37.05 478 35.45 478 33.2
M 535.25 72.8
Q 535.25 70.75 533.8 69.3 532.3 67.8 530.25 67.8 528.15 67.8 526.65 69.3 525.2 70.75 525.2 72.8 525.2 74.85 526.65 76.35 528.15 77.8 530.25 77.8 532.3 77.8 533.8 76.35 535.25 74.85 535.25 72.8
M 537.4 69.15
Q 536.1 70.3 536.1 71.95 536.1 73.6 537.4 74.8 538.55 75.95 540.25 75.95 542 75.95 543.2 74.8 544.35 73.6 544.35 71.95 544.35 70.3 543.2 69.15 542 67.95 540.25 67.95 538.55 67.95 537.4 69.15
M 556.15 74.1
Q 556.15 72.35 554.95 71.15 553.7 69.9 551.85 69.9 550.1 69.9 548.85 71.15 547.6 72.35 547.6 74.1 547.6 75.85 548.85 77.1 550.1 78.3 551.85 78.3 553.7 78.3 554.95 77.1 556.15 75.85 556.15 74.1
M 582 73.7
Q 582 71.65 580.55 70.2 579.1 68.7 577 68.7 574.95 68.7 573.4 70.2 571.95 71.65 571.95 73.7 571.95 75.75 573.4 77.25 574.95 78.7 577 78.7 579.1 78.7 580.55 77.25 582 75.75 582 73.7
M 593.4 73.5
Q 593.4 71.95 592.3 70.85 591.15 69.75 589.55 69.75 588 69.75 586.85 70.85 585.75 71.95 585.75 73.5 585.75 75.05 586.85 76.15 588 77.25 589.55 77.25 591.15 77.25 592.3 76.15 593.4 75.05 593.4 73.5
M 181.95 -2.65
Q 181.35 -3.25 180.45 -3.25 179.6 -3.25 179 -2.65 178.4 -2.05 178.4 -1.2 178.4 -0.35 179 0.25 179.6 0.85 180.45 0.85 181.35 0.85 181.95 0.25 182.55 -0.35 182.55 -1.2 182.55 -2.05 181.95 -2.65
M 174.65 -0.45
Q 174.1 -1 173.3 -1 172.5 -1 171.9 -0.45 171.35 0.1 171.35 0.9 171.35 1.7 171.9 2.25 172.5 2.8 173.3 2.8 174.1 2.8 174.65 2.25 175.2 1.7 175.2 0.9 175.2 0.1 174.65 -0.45
M 155.05 -151.75
L 150.05 -151.15 150.7 -145.8 139.2 -138.75 138.6 -136.95 133.3 -135.65 131 -141.35 134.5 -143.3 111.2 -151.1 107.7 -147.35 104.15 -148.55 84.85 -138.1 83.5 -134.55 86.25 -130.25 91.8 -130.1 93.05 -131.4 98.25 -131.9 98.25 -125.35 92.5 -126.15 84 -119.55 79.85 -121.7 76.7 -119.4 80.85 -115.9 77.5 -111.85 71.8 -113.9
Q 71.8 -102.35 81.65 -94.15 91.45 -86 105.4 -86
L 105 -90.75 97.75 -90.9 98 -96.5
Q 103.4 -98.3 108.2 -101.55 113.85 -105.35 119.65 -101.85
L 115.25 -86.9 111.6 -87.7 105.75 -85.65 111 -73.85 115.1 -71.95 116.95 -65.7 112.9 -65.8 110.15 -62.45 104.9 -65.15 103.95 -67.2 94.65 -63.05 98.95 -63.7 99.9 -59.45 97.05 -56.85 96.45 -49.5 89.1 -49.15 88 -60.05 76.65 -62.2 77.45 -56.95
Q 75.95 -56 74.45 -54.95 73.05 -53.9 72.25 -52.4 71.8 -51.5 71.55 -50.5 70.95 -47.95 70.45 -45.4
L 59.6 -43.6 58 -47.45 54.5 -44.65 48.55 -46.35 45.85 -39.7 40.4 -40.6 31.05 -28.3 33.75 -16.5 38.3 -11.05 29.1 -11.05 28.3 -8.2 44.2 -1.45
Q 45 -2.6 45.55 -3.85 46.15 -5.45 46.55 -7.15 46.65 -7.7 47 -8.15 49.9 -11.7 54.65 -11.35
L 74.4 14.85 74.05 17.45 75.55 20.2 72.5 23.25 69.45 20.7
Q 68.3 20.7 67.35 20.3 66.8 20 66.5 19.6 61.15 13.55 56.05 7.15
L 51.95 7.7 44.1 -0.45 41.65 2.4 33.5 3.45 31.95 2.05 23.35 1.1 20.3 3.6 17.25 3.6 10.3 -0.8 8.6 -5.25 -2.25 10.55 -2.25 42.05 13.8 39.9 19.7 42.55 31.15 35.55 40.25 39.45 40.1 46.15 47.9 55.2 57.55 51.4 71 33.55 80.15 39.9 73.7 48.6 69.6 47.85 57.65 65.75 61.7 65.55
Q 71.6 69.25 79.4 76.4 79.7 76.65 79.85 77.1 80 77.55 80.1 78.05
L 85.65 81.1 90.45 76.2 94.45 77.7 94.6 83.75
Q 109.3 82.3 118.55 71.1 118.95 70.6 119.3 70.05 119.7 69.45 120.05 68.85
L 121.8 76.1 125.4 75.45 136.25 80.4 146.8 78.2 142.3 76.4 142.65 70.75 146.05 69.2 150.35 72.1 149.6 76.5
Q 153.05 74.75 156.15 72.5 165.5 65.45 171.9 75.25 172.05 75.5 172.1 75.85 172.3 76.4 172.45 77.05
L 174.55 78.9 199.9 45.3 193.2 42.95 193.35 49.8 181.35 46.5 179.35 42.7 183.6 38.6 188.45 39.5 187.15 36.4 165.3 31.3 168.15 37.45 173.05 40.4 170.5 46 161.65 40 156.15 39.85 149.1 32.2 129.45 38 126.2 33.25 128.4 30.3 143.65 24.85 119.45 12.95
Q 119 13.1 118.55 13.25 107.5 15.25 105.05 5.45 116.85 3.7 129.6 3.7 135.5 3.7 141.05 1.9 145.6 0.4 149.65 -2 144.65 -7.1 138.95 -11.25 130.35 -17.55 128.85 -28.15 130 -28.35 131.1 -28.55 141.25 -30 145.75 -39.05
L 122.05 -57.25 124.45 -61.7 132.4 -61.35 134.05 -55.55 138.5 -53 141.4 -59.1 145.65 -59.55 150 -55.1 161 -55.55 162.7 -59 171.25 -61.4 169.45 -56.55 167.15 -55.8 165 -52.9 166.2 -45.65 190.5 -41.75 194.6 -44.85 197.7 -43.35 203.7 -43.85
Q 203.7 -44.85 203.95 -45.75 206.85 -56.4 219.05 -56.3 221.4 -55.9 223.2 -54.35
L 223.65 -56.55 231.45 -59.95 233.4 -54.55 224.9 -51.7
Q 224.85 -51.3 224.85 -50.9 224.4 -43.7 217.15 -43.05 216.65 -43.1 216.15 -43.1
L 200.3 -32.15 205 -28.95 201 -21.3 185.4 -20.05 187.2 -28.15 184.6 -27.85
Q 176.3 -20 165.3 -16.55 161.05 -15.3 156.55 -14.9
L 185.7 -3.9
Q 186.2 -2.6 187.3 -1.8 188.85 -0.65 190.85 -0.6 191.4 -0.7 192 -0.8 192.65 -1.05 193.35 -1.3 194.05 -1.6 194.65 -1.95 195.05 -2.15 195.45 -2.4
L 196.85 -1.3
Q 198.85 -1.5 200.9 -1.45 204.1 -1.2 206.4 1 210.65 5.2 216.25 7.4
L 220.2 3.3 225.75 5.35 228 -3.1 234.95 -3.4 242.65 -10.25
Q 244.35 -9.8 245.35 -8.8 247.1 -6.95 247.15 -4.15 247.15 -1.8 245.45 -0.3 244.75 0.25 243.8 0.55 242.25 1.3 240.65 1.9
L 218.35 31.1
Q 231.45 35.4 242.55 27.65 245.85 25.4 247.7 22.15
L 253.75 25.05 253.25 29.8 257.1 37.35 273.25 32.15 274.35 25.65 283.55 24.4 285.45 29.9 301.1 30.05 304.2 25.9 307.6 26.8 308.8 30.4 296.7 43.65 300.5 41.45 305.2 45
Q 306.6 45.05 308 45.3 309.95 45.6 311.3 47.2 311.65 47.55 312 48 312.35 48.35 312.6 48.85 312.95 49.45 313.15 50.1 313.3 50.7 313.35 51.3
L 309.7 56.4 308.35 63.1 314.7 64.5 328.75 78.1 335.95 74.55
Q 349 78.05 361.1 71.75 366.35 69 370 64.4
L 368.4 63.5
Q 366.75 63.9 364.95 63.8 356.9 63.45 349.9 59.8 346.4 57.95 343.35 55.4
L 390 51.1
Q 394.55 45.15 400.95 41.55 404.85 39.4 409 38
L 412.85 28.65
Q 414.1 27.7 415.2 26.65 416.25 25.55 417.1 24.25 418.05 22.75 418.4 21.1 419.05 17.9 419.25 14.65
L 401.25 3.65 394.6 3.85 393.7 1.2 395.7 -1.75 414.8 -1.2 420.8 -4.65 423.75 -1.35 425.3 -4.95
Q 430.35 -8.25 436.35 -9.65 438.2 -10 439.95 -9.45 442.15 -8.9 444.4 -8.1 445.2 -8.55 446.05 -8.85 449 -9.95 451.9 -9.05 452.4 -9 452.9 -8.8 453.7 -8.35 454.55 -7.9 455.4 -7.35 456.25 -6.8 456.5 -6.6 456.75 -6.4
L 460.25 -6.85 461.75 -11.45 465.1 -14.15 467.95 -14.45 471.05 -17.45 473.95 -13.35 469 -12.15 468.55 -8.9 460.4 -6.35
Q 453.05 2.75 442.3 7.95 437.3 10.25 431.8 11
L 433.9 16.4 451.15 23.2 456.6 20.85 456.2 17.5 457.3 15.1 462.05 13.3 466.5 17.7 469.75 12.15
Q 468.9 8.65 470.55 5.65 472.85 1.2 477.95 0.1 481.1 -0.6 483.5 1.2 486.15 3.8 486.25 7.1 486.3 8.55 486.1 10 486 11 485.6 11.95 485.1 13.3 484.45 14.65
L 487.35 25.8 499.35 22.55
Q 494.45 34 483.3 40.35 479.9 42.3 475.75 42.75 472.6 40.7 469.15 41.85 467.9 42.2 466.95 42.9 463.95 45.1 461.15 47.5
L 464.45 53.9
Q 466.3 54.45 468.15 54.6 470.05 54.85 471.85 54.45 473.25 54.15 474.5 53.45 476 52.55 477.5 51.45
L 479.85 52.45 477.95 59.65 484.45 62.15 488.05 56.4 483.25 51.05
Q 483.6 50.7 483.95 50.35 485.15 49.35 485.5 48.1 485.85 46.9 485.6 45.75 485.5 45.3 485.4 44.9 485.25 44.5 485.05 44.15 484.85 43.75 484.6 43.35 484.35 42.95 484.1 42.55
L 489.3 45.65 489.9 55.05 499.1 49.75 502.5 63.85 517.65 64.6 521.55 58.15 530.65 59.75 540.2 50.1 540.4 46.95 542.9 43.4 546.35 43.4 545.35 50.4 549 53.05 545.15 59.65 548.2 61.5 547.05 66.7
Q 557.65 69.8 568.45 67.5 575.25 66 581 62.45
L 585.7 52.5 591.2 52.1 596.7 45.95 599.15 46.8 599.15 11.5 595.6 11.35 591.55 2.75 595.25 0.5 596.05 -4.05 596 -8.25 585.55 -15.75 585.7 -9.75 576.4 -8.8 574.5 -13.1 573.1 -5.75 564.6 -4.25 563 -1.45 555.9 -4.45 555.9 6.35 547.15 2.5 538.9 10.2 534.45 8.9 524.2 16.75 501.4 14.3 501.8 10.2 501.9 5.3 501.25 1.9 490.3 -1.25 494.4 -5.7 495.25 -13.45
Q 490.85 -23.05 480 -22.95 478.7 -22.95 477.45 -22.9
L 479.75 -28.55 479.9 -35.5 478.7 -39.8
Q 479.15 -32.8 472.6 -29.95 469.85 -28.75 470.55 -28.2
L 471.75 -22.65 466.9 -21.2 464.4 -24.9 466.45 -28.35 462 -27.95 460.15 -30.75 461.75 -34.1 463.9 -35.55 464.15 -41.4
Q 468.95 -46.95 475.35 -43.75 476.2 -43.3 477.05 -42.75
L 474.75 -53 468.9 -47.25 464.25 -50.7 462.1 -49.5 458.55 -51.1 461.2 -54.75 460 -63.8 456.4 -64.7 454.15 -69.7 436.7 -66.25
Q 440.95 -56.05 430.2 -54.1 425.7 -53.1 421.05 -53.1
L 415.5 -41.7 412.2 -41.4 412.05 -37.15 407.75 -35.1 404.05 -36.95 403.1 -38.9 396.65 -40.2 392.95 -37.55 389.65 -22.7 383.6 -21.4 382 -26.65 384.85 -28.9 382.3 -35.1 337.7 -25.25
Q 332.7 -34.45 321.95 -35.35
L 316.55 -33.1 312.45 -40.35
Q 314.85 -44.55 319.65 -44.65 325.3 -44.8 331 -45.95 337 -49.7 335.35 -56.4 335.15 -57.2 335 -57.95
L 332.95 -61 316 -63.05 313.45 -59.1 309.2 -59 307.35 -64.9 311.3 -67 315.35 -64.9 322.1 -72.95 321.7 -74.25
Q 305.85 -89.15 286.2 -79.5 285.8 -79.25 285.45 -78.95 285.55 -84.25 281.1 -87.35 277.15 -90.15 272.1 -90.9
L 274.85 -98.15 269.6 -96.65
Q 266.2 -97.15 264.5 -100.05 262.35 -103.9 264.1 -107.75 266.4 -110.1 269.85 -110.05 272.35 -110 274.3 -108.5 275.05 -107.9 275.75 -107.2
L 276.4 -115.1
Q 275.9 -122.1 269.85 -125.8 268.9 -126.3 268 -126.75
L 270.3 -119.5 272.2 -118.1 272.75 -112.85 268.05 -110.75 265.95 -112.1 264.8 -115.6
Q 258.05 -116.95 256.65 -123.6 256.5 -124.45 256.35 -125.25
L 253.05 -127.2 250.75 -123.25 242.7 -124.7 242.25 -120.1 232.1 -116.25 228.95 -122.2 231.9 -125.25 229.1 -132.85 229.8 -124.95 227.45 -123.85 224.3 -124.7 221.55 -137.85 211.55 -145.65
Q 211.8 -140.8 207.15 -139.1 206.05 -138.65 204.65 -138.45 202.3 -138.35 200.1 -139.45
L 195.6 -138.05 184.7 -143.55 177.4 -146.45 168.55 -148.25 165.45 -146.55 160.55 -149 157.55 -146.25 155.05 -151.75
M 107.5 -137.25
Q 109.05 -138.75 111.1 -138.75 113.2 -138.75 114.65 -137.25 116.1 -135.8 116.1 -133.75 116.1 -131.7 114.65 -130.2 113.2 -128.75 111.1 -128.75 109.05 -128.75 107.5 -130.2 106.05 -131.7 106.05 -133.75 106.05 -135.8 107.5 -137.25
M 155.8 -129.75
Q 156.6 -129.4 157.45 -129
L 162.45 -120.45
Q 151.95 -118.4 143.05 -124.1
L 136.65 -123.75 135.5 -127.6 139.05 -129.15
Q 147.3 -132.85 155.8 -129.75
M 129 -140.2
Q 130.1 -139.15 130.1 -137.65 130.1 -136.15 129 -135.05 127.9 -134 126.35 -134 124.75 -134 123.65 -135.05 122.55 -136.15 122.55 -137.65 122.55 -139.15 123.65 -140.2 124.75 -141.3 126.35 -141.3 127.9 -141.3 129 -140.2
M 128.25 -123.25
Q 129.5 -122 129.5 -120.2 129.5 -118.4 128.25 -117.15 126.95 -115.9 125.1 -115.9 123.25 -115.9 122 -117.15 120.65 -118.4 120.65 -120.2 120.65 -122 122 -123.25 123.25 -124.5 125.1 -124.5 126.95 -124.5 128.25 -123.25
M 130.7 -99.95
Q 130.05 -100.6 130.05 -101.55 130.05 -102.5 130.7 -103.15 131.35 -103.8 132.35 -103.8 133.3 -103.8 133.95 -103.15 134.65 -102.5 134.65 -101.55 134.65 -100.6 133.95 -99.95 133.3 -99.3 132.35 -99.3 131.35 -99.3 130.7 -99.95
M 125.9 -101.15
Q 126.45 -100.6 126.45 -99.8 126.45 -99 125.9 -98.4 125.3 -97.85 124.5 -97.85 123.65 -97.85 123.1 -98.4 122.55 -99 122.55 -99.8 122.55 -100.6 123.1 -101.15 123.65 -101.75 124.5 -101.75 125.3 -101.75 125.9 -101.15
M 123.6 -63.45
Q 123.6 -62 122.55 -60.95 121.5 -59.9 120 -59.9 118.55 -59.9 117.5 -60.95 116.35 -62 116.35 -63.45 116.35 -64.9 117.5 -65.95 118.55 -67 120 -67 121.5 -67 122.55 -65.95 123.6 -64.9 123.6 -63.45
M 98.55 -3.25
Q 99.9 -3.25 100.9 -2.25 101.9 -1.3 101.9 0.05 101.9 1.4 100.9 2.4 99.9 3.35 98.55 3.35 97.2 3.35 96.25 2.4 95.25 1.4 95.25 0.05 95.25 -1.3 96.25 -2.25 97.2 -3.25 98.55 -3.25
M 168.85 -101.35
Q 168.85 -102.7 169.85 -103.65 170.75 -104.6 172.1 -104.6 173.5 -104.6 174.45 -103.65 175.35 -102.7 175.35 -101.35 175.35 -100 174.45 -99.05 173.5 -98.1 172.1 -98.1 170.75 -98.1 169.85 -99.05 168.85 -100 168.85 -101.35
M 209.25 -87.8
L 211.35 -91.3 218.25 -85.2 215.1 -82.5 213 -84.7 209.25 -87.8
M 208.75 -89.25
Q 208.7 -88.95 208.6 -88.65 208.1 -87.25 206.8 -86.3 203.35 -83.65 199.3 -85.15
L 183.95 -78.25 178.95 -86.35 187.4 -92.7 194.7 -91.25 198.8 -95.7
Q 199.95 -95.9 201.05 -96.05 207.9 -95.55 208.75 -89.25
M 220.05 -81.45
Q 220.05 -80.9 219.7 -80.5 219.3 -80.15 218.7 -80.15 218.15 -80.15 217.8 -80.5 217.4 -80.9 217.4 -81.45 217.4 -82 217.8 -82.35 218.15 -82.75 218.7 -82.75 219.3 -82.75 219.7 -82.35 220.05 -82 220.05 -81.45
M 242.05 -59.6
L 238.8 -65.8 243 -69.15 249.8 -65.7 253.95 -70.65 261.05 -66.75
Q 261 -66.25 261 -65.7 261.1 -63.55 259.55 -62.2 256.65 -59.6 253 -60.35
L 248.9 -57.1 244.25 -59.7 242.05 -59.6
M 176.85 -94.3
Q 176.05 -95 176.05 -95.95 176.05 -96.9 176.85 -97.6 177.5 -98.3 178.45 -98.3 179.4 -98.3 180.1 -97.6 180.8 -96.9 180.8 -95.95 180.8 -95 180.1 -94.3 179.4 -93.6 178.45 -93.6 177.5 -93.6 176.85 -94.3
M 175.65 -61.9
Q 174.55 -61.9 173.8 -62.65 173.05 -63.4 173.05 -64.5 173.05 -65.6 173.8 -66.35 174.55 -67.1 175.65 -67.1 176.85 -67.1 177.6 -66.35 178.35 -65.6 178.35 -64.5 178.35 -63.4 177.6 -62.65 176.85 -61.9 175.65 -61.9
M 179.3 -66.6
L 181.1 -70.3 186.85 -74.8 190.65 -74.25 191.8 -68.2 179.3 -66.6
M 229.45 -33.5
L 226.8 -30.25 222.05 -30.4 219.45 -28.2 207.6 -27.7 204.75 -29.85 206.2 -33.95 220.4 -43.2 224.7 -41.6 229.45 -33.5
M 230 -32.5
L 230 -37.15 239.35 -37.15 239.35 -32.5 230 -32.5
M 285.9 -74.5
Q 286.35 -75 287.05 -75 287.7 -75 288.2 -74.5 288.65 -74.05 288.65 -73.4 288.65 -72.75 288.2 -72.25 287.7 -71.8 287.05 -71.8 286.35 -71.8 285.9 -72.25 285.4 -72.75 285.4 -73.4 285.4 -74.05 285.9 -74.5
M 266.8 -92.65
Q 267.65 -91.75 267.65 -90.5 267.65 -89.25 266.8 -88.35 265.85 -87.45 264.55 -87.45 263.3 -87.45 262.45 -88.35 261.55 -89.25 261.55 -90.5 261.55 -91.75 262.45 -92.65 263.3 -93.55 264.55 -93.55 265.85 -93.55 266.8 -92.65
M 264.9 -84.85
Q 264.9 -83.6 264.05 -82.7 263.15 -81.8 261.9 -81.8 260.6 -81.8 259.75 -82.7 258.8 -83.6 258.8 -84.85 258.8 -86.1 259.75 -87 260.6 -87.9 261.9 -87.9 263.15 -87.9 264.05 -87 264.9 -86.1 264.9 -84.85
M 247.1 -75.25
Q 247.1 -76.15 247.75 -76.8 248.35 -77.45 249.3 -77.45 250.2 -77.45 250.85 -76.8 251.45 -76.15 251.45 -75.25 251.45 -74.35 250.85 -73.7 250.2 -73.05 249.3 -73.05 248.35 -73.05 247.75 -73.7 247.1 -74.35 247.1 -75.25
M 261.35 -69.85
Q 261.35 -70.8 262.05 -71.5 262.7 -72.2 263.65 -72.2 264.6 -72.2 265.3 -71.5 266 -70.8 266 -69.85 266 -68.9 265.3 -68.2 264.6 -67.5 263.65 -67.5 262.7 -67.5 262.05 -68.2 261.35 -68.9 261.35 -69.85
M 243.4 -39.45
Q 243.95 -40.05 244.85 -40.05 245.65 -40.05 246.2 -39.45 246.75 -38.9 246.75 -38.1 246.75 -37.3 246.2 -36.7 245.65 -36.15 244.85 -36.15 243.95 -36.15 243.4 -36.7 242.85 -37.3 242.85 -38.1 242.85 -38.9 243.4 -39.45
M 250.95 -34.6
Q 251.7 -35.35 252.85 -35.35 253.9 -35.35 254.65 -34.6 255.4 -33.85 255.4 -32.8 255.4 -31.75 254.65 -31 253.9 -30.25 252.85 -30.25 251.7 -30.25 250.95 -31 250.2 -31.75 250.2 -32.8 250.2 -33.85 250.95 -34.6
M 255.5 -31.95
Q 256.25 -32.7 257.35 -32.7 258.4 -32.7 259.15 -31.95 259.95 -31.25 259.95 -30.2 259.95 -29.15 259.15 -28.4 258.4 -27.7 257.35 -27.7 256.25 -27.7 255.5 -28.4 254.75 -29.15 254.75 -30.2 254.75 -31.25 255.5 -31.95
M 262.8 -24.15
Q 263.2 -23.75 263.2 -23.2 263.2 -22.65 262.8 -22.25 262.4 -21.85 261.85 -21.85 261.3 -21.85 260.85 -22.25 260.45 -22.65 260.45 -23.2 260.45 -23.75 260.85 -24.15 261.3 -24.55 261.85 -24.55 262.4 -24.55 262.8 -24.15
M 251.6 -7.05
L 251.95 -10.1 265.05 -19.3 276.9 -15.75 265.5 -10.7
Q 265 -9.5 264.5 -8.25 264.25 -7.75 263.85 -7.25 263.4 -6.8 262.95 -6.35 262.6 -6.05 262.2 -5.85 258.8 -3.55 254.85 -4.25
L 251.6 -7.05
M 282.25 -15.45
Q 283 -14.75 283 -13.8 283 -12.85 282.25 -12.15 281.5 -11.45 280.55 -11.45 279.6 -11.45 278.9 -12.15 278.2 -12.85 278.2 -13.8 278.2 -14.75 278.9 -15.45 279.6 -16.15 280.55 -16.15 281.5 -16.15 282.25 -15.45
M 289.75 -10.75
Q 290.65 -10.45 290.65 -10 290.65 -9.55 289.75 -9.2 288.75 -8.9 287.4 -8.9 286 -8.9 285.1 -9.2 284.15 -9.55 284.15 -10 284.15 -10.45 285.1 -10.75 286 -11.1 287.4 -11.1 288.75 -11.1 289.75 -10.75
M 292.35 -6.85
Q 292.35 -8.35 293.4 -9.4 294.45 -10.5 296 -10.5 297.55 -10.5 298.6 -9.4 299.7 -8.35 299.7 -6.85 299.7 -5.35 298.6 -4.25 297.55 -3.2 296 -3.2 294.45 -3.2 293.4 -4.25 292.35 -5.35 292.35 -6.85
M 338.45 -20.4
Q 339.45 -21.4 340.85 -21.4 342.35 -21.4 343.35 -20.4 344.35 -19.4 344.35 -17.95 344.35 -16.5 343.35 -15.5 342.35 -14.5 340.85 -14.5 339.45 -14.5 338.45 -15.5 337.4 -16.5 337.4 -17.95 337.4 -19.4 338.45 -20.4
M 394.15 -6.55
Q 395.05 -5.65 395.05 -4.4 395.05 -3.15 394.15 -2.25 393.25 -1.35 391.95 -1.35 390.7 -1.35 389.85 -2.25 388.95 -3.15 388.95 -4.4 388.95 -5.65 389.85 -6.55 390.7 -7.45 391.95 -7.45 393.25 -7.45 394.15 -6.55
M 453.25 -57.3
Q 453.25 -55.75 452.2 -54.65 451.05 -53.55 449.5 -53.55 447.95 -53.55 446.8 -54.65 445.7 -55.75 445.7 -57.3 445.7 -58.85 446.8 -59.95 447.95 -61.05 449.5 -61.05 451.05 -61.05 452.2 -59.95 453.25 -58.85 453.25 -57.3
M 593.95 16.4
L 594.95 21.7 587.8 25.95
Q 587.8 31.4 582.9 33.1 575.55 35.5 567.9 34.35 565.05 34.2 563.6 31.7
L 564.05 26.25
Q 571.25 22.05 579.25 20.1 582 19.5 584.35 20.9
L 593.95 16.4
M 540.15 10.7
Q 541.85 10.7 543.05 11.9 544.2 13.05 544.2 14.7 544.2 16.35 543.05 17.55 541.85 18.7 540.15 18.7 538.5 18.7 537.35 17.55 536.05 16.35 536.05 14.7 536.05 13.05 537.35 11.9 538.5 10.7 540.15 10.7
M 553.6 29.7
Q 554.65 29.7 555.4 30.45 556.1 31.2 556.1 32.25 556.1 33.3 555.4 34.05 554.65 34.8 553.6 34.8 552.5 34.8 551.75 34.05 551 33.3 551 32.25 551 31.2 551.75 30.45 552.5 29.7 553.6 29.7
M 399.15 19.8
Q 400.7 20.95 400.7 22.6 400.7 24.25 399.15 25.4 397.6 26.55 395.35 26.55 393.1 26.55 391.5 25.4 389.95 24.25 389.95 22.6 389.95 20.95 391.5 19.8 393.1 18.65 395.35 18.65 397.6 18.65 399.15 19.8
M 370.85 28.4
Q 371.75 29.25 371.75 30.5 371.75 31.75 370.85 32.65 369.95 33.5 368.7 33.5 367.45 33.5 366.55 32.65 365.65 31.75 365.65 30.5 365.65 29.25 366.55 28.4 367.45 27.5 368.7 27.5 369.95 27.5 370.85 28.4
M 374.35 34.75
L 374.4 31.4 381.95 20.85 384.8 22.7 385.05 30.2 383.6 32.35 374.35 34.75
M 325.85 49.4
L 328.35 43.95 341.15 51.5 339.2 55.65 334.8 51.45 325.85 49.4
M 124.15 34.05
Q 124.15 35.35 123.2 36.3 122.25 37.2 120.9 37.2 119.6 37.2 118.7 36.3 117.75 35.35 117.75 34.05 117.75 32.75 118.7 31.85 119.6 30.9 120.9 30.9 122.25 30.9 123.2 31.85 124.15 32.75 124.15 34.05
M 95.85 35.7
Q 96.8 34.75 98.1 34.75 99.4 34.75 100.35 35.7 101.25 36.6 101.25 37.9 101.25 39.2 100.35 40.15 99.4 41.05 98.1 41.05 96.8 41.05 95.85 40.15 94.95 39.2 94.95 37.9 94.95 36.6 95.85 35.7
M 90.05 43.4
Q 89.45 42.8 89.45 41.95 89.45 41.1 90.05 40.55 90.6 39.95 91.4 39.95 92.25 39.95 92.85 40.55 93.4 41.1 93.4 41.95 93.4 42.8 92.85 43.4 92.25 43.95 91.4 43.95 90.6 43.95 90.05 43.4
M 116.95 32.35
L 116.05 35.9
Q 120.1 40.5 115.8 44.8 115.2 45.45 114.6 46.05 107.15 46.05 104.4 39.15
L 110.65 35.85 112.2 33.2 116.95 32.35
M 119.7 56.9
Q 118.8 56 118.8 54.75 118.8 53.5 119.7 52.6 120.6 51.7 121.9 51.7 123.15 51.7 124.1 52.6 125 53.5 125 54.75 125 56 124.1 56.9 123.15 57.8 121.9 57.8 120.6 57.8 119.7 56.9
M 48.15 39.95
Q 49.55 38.65 51.4 38.65 53.25 38.65 54.6 39.95 55.9 41.25 55.9 43.05 55.9 44.85 54.6 46.15 53.25 47.45 51.4 47.45 49.55 47.45 48.15 46.15 46.85 44.85 46.85 43.05 46.85 41.25 48.15 39.95
M 72.5 27.8
Q 72.9 28.2 72.9 28.75 72.9 29.3 72.5 29.7 72.1 30.1 71.55 30.1 70.95 30.1 70.5 29.7 70.1 29.3 70.1 28.75 70.1 28.2 70.5 27.8 70.95 27.4 71.55 27.4 72.1 27.4 72.5 27.8
M 223 -137.4
Q 223 -137.35 223.05 -137.3 225.05 -135.45 223 -137.4 Z"/>
</g>
</defs>

<g transform="matrix( 1, 0, 0, 1, 2.25,166.75) ">
<g transform="matrix( 1, 0, 0, 1, 0,0) ">
<use xlink:href="#bg_grass_hills_1_Layer1_0_FILL"/>
</g>

<g transform="matrix( 1, 0, 0, 1, 0,0) ">
<use xlink:href="#bg_grass_hills_1_Layer0_0_FILL"/>
</g>
</g>
</svg>
