
<svg xmlns="http://www.w3.org/2000/svg" version="1.1" xmlns:xlink="http://www.w3.org/1999/xlink" preserveAspectRatio="none" x="0px" y="0px" width="1000px" height="800px" viewBox="0 0 1000 800">
<defs>
<g id="barren_prop_18_Layer1_0_FILL">
<path fill="#000000" stroke="none" d="
M 176.95 325.25
Q 178.1 323.8 178.1 321.75 176.55 321.75 175.4 323.2 174.3 324.7 174.3 326.75 175.85 326.75 176.95 325.25
M 110.3 305.3
L 103.35 303.7 114.75 308.45 110.3 305.3
M 123.5 304.15
L 127.7 304.4
Q 118.2 299.4 107.45 300.5 104.05 300.95 100.65 301.4
L 123.5 304.15
M 115.65 333.95
L 119.5 336.05
Q 119.4 335.55 119.25 335.1 118.35 332.25 115.65 333.95
M 92.05 292.95
L 88.3 285.35 92.95 287.3
Q 97.65 286.2 102.45 285.35 107.2 284.35 111.9 284.75 136.55 286.9 161.45 287.15
L 157.1 292.9
Q 157.7 296.85 156.8 300.75 150.2 328.3 125 341.1
L 123 346.4 116.85 345.1 119.6 348.05 127.45 349.25 128.3 343.6 142.5 334.55 175.35 341.2
Q 176.3 339.3 177.65 337.85 184.35 330.85 189.7 323.05 198.1 310.8 205.05 297.7
L 180.5 291.6 195 301 202.5 298.35
Q 196.9 308.05 191.35 317.8 186.5 326.25 177.65 330.4
L 172.8 338.4 172.5 338.85 144.95 331.6
Q 145.65 330.6 146.35 329.55 157.05 314.35 160.15 296.05
L 163.75 293.1 165.25 288.45 169.25 288.8 143.35 282.4 145.1 266.45
Q 110.4 263.1 75.75 268.25 76.2 280.15 76.4 292.05 76.45 294.7 75.2 297 68.1 310.3 57.3 320.75 51.75 326.05 52.5 328.95 53.2 329.3 53.95 329.7 80.9 345.1 111.9 344.05
L 75.2 336.3 54.8 325.7
Q 55.45 324.8 56.15 323.95 66.85 311.2 82.75 306.6
L 96.05 303.35 88.65 300.45 92.05 292.95
M 84.3 270.7
Q 87.85 270.05 91.4 269.4 116.15 265.35 141 268.65
L 140.95 281.45 129.7 279.35 86 283.9 88.15 292.8 85.5 301.35 77.1 301.9 80.4 269.25 84.3 270.7
M 92.1 275.35
L 89.75 273.65 84.55 273.5 92.1 275.35 Z"/>

<path fill="#7E7356" stroke="none" d="
M 174.3 326.75
L 172.8 338.4 177.65 330.4
Q 186.5 326.25 191.35 317.8 196.9 308.05 202.5 298.35
L 178.1 321.75
Q 178.1 323.8 176.95 325.25 175.85 326.75 174.3 326.75
M 146.35 329.55
Q 145.65 330.6 144.95 331.6
L 172.5 338.85 160.6 323
Q 163.25 316.9 163.75 310.2 164.25 303.55 170.1 300.5
L 171.1 296.65 160.15 296.05
Q 157.05 314.35 146.35 329.55
M 157.1 292.9
L 161.45 287.15
Q 157.9 288.05 154.9 290.15 151.1 292.9 149.4 297.4 148.65 299.5 147.45 301 147.25 301.3 146.95 301.55
L 131.4 306.6 142.4 311.7 132.7 316.4
Q 133.05 316.8 133.25 317.3 135.8 323.2 131 328.65 126.9 333.3 122.9 337.95 122.1 338.95 121.45 340.05
L 123 345.3 113.3 340.7
Q 107.7 341.9 102.05 340.7 82 336.4 63.15 327.85
L 75.2 336.3 111.9 344.05 116.85 345.1 123 346.4 125 341.1
Q 150.2 328.3 156.8 300.75 157.7 296.85 157.1 292.9
M 141 268.65
Q 136.35 268.65 133 271.75 129.7 274.9 129.7 279.35
L 140.95 281.45 141 268.65
M 88.3 285.35
L 92.05 292.95 88.65 300.45 96.05 303.35 82.75 306.6 117.75 309.45 110.3 305.3 114.75 308.45 103.35 303.7 123.5 304.15 100.65 301.4
Q 104.05 300.95 107.45 300.5 118.2 299.4 127.7 304.4
L 128.2 304.45
Q 125.85 301.6 121.4 300.65 106.7 297.15 91.7 299.3
L 93.25 291.5 88.3 285.35 Z"/>

<path fill="#CDC2A6" stroke="none" d="
M 165.25 288.45
L 163.75 293.1 160.15 296.05 171.1 296.65 170.1 300.5
Q 164.25 303.55 163.75 310.2 163.25 316.9 160.6 323
L 172.5 338.85 172.8 338.4 174.3 326.75
Q 174.3 324.7 175.4 323.2 176.55 321.75 178.1 321.75
L 202.5 298.35 195 301 180.5 291.6 169.25 288.8 165.25 288.45
M 88.3 285.35
L 93.25 291.5 91.7 299.3
Q 106.7 297.15 121.4 300.65 125.85 301.6 128.2 304.45
L 127.7 304.4 123.5 304.15 103.35 303.7 110.3 305.3 117.75 309.45 82.75 306.6
Q 66.85 311.2 56.15 323.95 55.45 324.8 54.8 325.7
L 75.2 336.3 63.15 327.85
Q 82 336.4 102.05 340.7 107.7 341.9 113.3 340.7
L 123 345.3 121.45 340.05
Q 122.1 338.95 122.9 337.95 126.9 333.3 131 328.65 135.8 323.2 133.25 317.3 133.05 316.8 132.7 316.4
L 142.4 311.7 131.4 306.6 146.95 301.55
Q 147.25 301.3 147.45 301 148.65 299.5 149.4 297.4 151.1 292.9 154.9 290.15 157.9 288.05 161.45 287.15 136.55 286.9 111.9 284.75 107.2 284.35 102.45 285.35 97.65 286.2 92.95 287.3
L 88.3 285.35
M 119.5 336.05
L 115.65 333.95
Q 118.35 332.25 119.25 335.1 119.4 335.55 119.5 336.05
M 91.4 269.4
Q 87.85 270.05 84.3 270.7
L 80.4 269.25 77.1 301.9 85.5 301.35 88.15 292.8 86 283.9 129.7 279.35
Q 129.7 274.9 133 271.75 136.35 268.65 141 268.65 116.15 265.35 91.4 269.4
M 89.75 273.65
L 92.1 275.35 84.55 273.5 89.75 273.65 Z"/>
</g>
</defs>

<g transform="matrix( 1, 0, 0, 1, 374.95,127.8) ">
<g transform="matrix( 1, 0, 0, 1, 0,0) ">
<use xlink:href="#barren_prop_18_Layer1_0_FILL"/>
</g>
</g>
</svg>
