
<svg xmlns="http://www.w3.org/2000/svg" version="1.1" xmlns:xlink="http://www.w3.org/1999/xlink" preserveAspectRatio="none" x="0px" y="0px" width="1000px" height="800px" viewBox="0 0 1000 800">
<defs>
<g id="barren_prop_3_Layer1_0_FILL">
<path fill="#837A75" stroke="none" d="
M 185.65 309.45
L 192.2 314.6 192.3 360.7 196.65 299.75 185.65 309.45
M 132.8 315.6
Q 132.7 315.55 132.6 315.45
L 133.85 318.6
Q 135.85 316.35 132.8 315.6
M 126.95 311.95
Q 127.55 312.4 128.15 312.9
L 126.95 309.5
Q 125.25 310.7 126.95 311.95
M 138 289.55
L 144.3 268.7
Q 130.85 266.6 117.4 267.8 95.1 270.15 76 282.15 73.5 283.75 72.5 286.75 72.15 287.85 71.55 288.9
L 80.1 282.6
Q 77.8 297.7 64.85 306 63.9 306.6 63.35 307.65 60.8 312.6 57.25 316.9
L 55.35 321.4 49 348.05 60.75 353.55 61.45 353.7
Q 66.1 345.2 63.95 336.45 63.35 334.05 61.55 331.95
L 58.9 329.85 57.65 319.15 61.55 320.75
Q 62.5 325.25 64.75 329.2 67.7 334.45 72.75 337.7
L 76.45 347.1 67.8 356.75 108.55 372.9 109.25 371.55 115 360.7 113.05 374 112.75 376.3 133.25 322.55 117.35 351.55 129.35 317
Q 119.35 318.5 111.7 312 110.6 311.05 109.5 310.1
L 101.55 309.4 106 306.05 109.15 287.7 113.6 303.55 122.85 308.05 132.85 298.8 138 289.55
M 109 287.5
L 98.25 281.15
Q 104.45 281.45 108.15 286.25 108.6 286.85 109 287.5
M 152.85 267
L 147.9 271.75
Q 152.95 267.95 158.8 270.5 178.95 279.15 197.3 291.15
L 193.7 281.9 189.2 278.3 152.85 267 Z"/>

<path fill="#000000" stroke="none" d="
M 156.4 381.95
L 154.2 381.55 135.15 389.9
Q 146.75 392.05 155.9 384.4 171.6 371.3 190.7 364.45 191.85 364.05 193.1 363.85 194.35 363.75 195.6 363.7
L 201.7 290.15 193.7 281.9 197.3 291.15 198.5 294.2 185.3 307.7 172.75 309.1 185.65 309.45 196.65 299.75 192.3 360.7 156.4 381.95
M 109.25 371.55
L 113.05 374 115 360.7 109.25 371.55
M 128.15 312.9
Q 127.55 312.4 126.95 311.95 125.25 310.7 126.95 309.5
L 132.85 298.8 122.85 308.05 118.8 311.45 129.35 317 117.35 351.55 133.25 322.55 133.85 318.6 132.6 315.45 128.15 312.9
M 61.55 331.95
Q 63.35 334.05 63.95 336.45 66.1 345.2 61.45 353.7
L 65.95 354.6 68.05 340.15 59.5 324.7 61.55 331.95
M 140.6 318.15
L 158.1 309.95 134.3 304.05 150.6 311 140.6 318.15
M 112.95 262.55
Q 100.6 262.3 89 266.45 86.15 267.5 84.1 269.45 73.9 279.2 66.45 291.5 49.55 319.25 37.6 348
L 60.75 353.55 49 348.05 43.35 345.4 55.35 321.4 57.25 316.9 71.55 288.9
Q 72.15 287.85 72.5 286.75 73.5 283.75 76 282.15 95.1 270.15 117.4 267.8 130.85 266.6 144.3 268.7
L 138 289.55 147.9 271.75 152.85 267 189.2 278.3
Q 181.85 273 173.55 269.4 166.8 266.4 159.35 265.5 136.3 263.05 112.95 262.55 Z"/>

<path fill="#564A44" stroke="none" d="
M 106 306.05
L 101.55 309.4 109.5 310.1
Q 110.6 311.05 111.7 312 119.35 318.5 129.35 317
L 118.8 311.45 122.85 308.05 113.6 303.55 109.15 287.7 106 306.05
M 55.35 321.4
L 43.35 345.4 49 348.05 55.35 321.4
M 72.75 337.7
Q 67.7 334.45 64.75 329.2 62.5 325.25 61.55 320.75
L 57.65 319.15 58.9 329.85 61.55 331.95 59.5 324.7 68.05 340.15 65.95 354.6
Q 65.9 355.2 66.15 355.45 66.8 356.25 67.8 356.75
L 76.45 347.1 72.75 337.7
M 80.1 282.6
L 71.55 288.9 57.25 316.9
Q 60.8 312.6 63.35 307.65 63.9 306.6 64.85 306 77.8 297.7 80.1 282.6
M 98.25 281.15
L 109 287.5
Q 108.6 286.85 108.15 286.25 104.45 281.45 98.25 281.15
M 158.8 270.5
Q 152.95 267.95 147.9 271.75
L 138 289.55 132.85 298.8 126.95 309.5 128.15 312.9 132.6 315.45
Q 132.7 315.55 132.8 315.6 135.85 316.35 133.85 318.6
L 133.25 322.55 112.75 376.3 135.15 389.9 154.2 381.55 156.4 381.95 192.3 360.7 192.2 314.6 185.65 309.45 172.75 309.1 185.3 307.7 198.5 294.2 197.3 291.15
Q 178.95 279.15 158.8 270.5
M 158.1 309.95
L 140.6 318.15 150.6 311 134.3 304.05 158.1 309.95 Z"/>
</g>
</defs>

<g transform="matrix( 1, 0, 0, 1, 374.95,127.8) ">
<g transform="matrix( 1, 0, 0, 1, 0,0) ">
<use xlink:href="#barren_prop_3_Layer1_0_FILL"/>
</g>
</g>
</svg>
