
<svg xmlns="http://www.w3.org/2000/svg" version="1.1" xmlns:xlink="http://www.w3.org/1999/xlink" preserveAspectRatio="none" x="0px" y="0px" width="1000px" height="800px" viewBox="0 0 1000 800">
<defs>
<g id="barren_prop_24_Layer1_0_FILL">
<path fill="#CDC2A6" stroke="none" d="
M -14.75 317.05
Q -14.75 313.4 -16.35 310.8 -17.9 308.2 -20.1 308.2 -20.1 311.85 -18.55 314.45 -16.95 317.05 -14.75 317.05
M -17.55 301.85
L -19.4 303.8 -20.1 305.8 -13.75 308.15 -15.65 302 -17.55 301.85
M 185.3 344
L 181.45 345.8 181.65 355.5 186.5 347.1 185.3 344
M 259.05 297.9
L 259.8 302.35 263.3 298.15 259.05 297.9
M 45 257.4
L 45.6 256 5.95 302.9 15.75 307.75 13.7 313.1 23.65 315.5 25.95 312.6 44.6 315.8 43.6 321.25 51.35 322.8 54 318.9 65.4 319.5 95.1 263.5 45 257.4
M 158.7 273.25
L 158.2 271.55 103.85 264.35 104.8 322.8 119.2 328.35 119.15 332.7 126.55 334.7 128.7 329.75 147.85 335 148.3 336.6 154.5 339.15 156.2 333.85 173.3 338.2 170.65 326.25 158.7 273.25
M 109.2 217.45
L 103.45 222.2 104.8 224.95 97.4 226.25 91.5 245.65 113.1 248.7 117.6 230.35 110.3 226.3 114.2 224.45 109.2 217.45
M 98.95 238.7
L 99.05 233.35 103.7 232.95 104.55 235.35 107.1 233.15 110.55 233.6 110.8 240.5 106.4 241.6 103.5 238.95 98.95 238.7
M 134.2 150.7
L 127.35 160.95 132.35 146.85
Q 121.65 167.2 106.65 184.8 96.8 196.4 85.65 206.95
L 146.5 213.75 146.4 212.7 136.75 150.75 134.35 157.45 134.2 150.7
M 110.9 185.45
L 116.85 190.3 125.7 185.8 119.6 193.7 123.75 197.75 126.05 198.25 123.9 201.8 124.6 205.85 122.55 205.95 120.85 203.95 117.2 204.8 116.75 202.45 117.6 201.45 115.8 197.45 112.6 202.4 105.9 203.45 104.6 201.1 107.35 195.05 109.7 196.1 113.6 193.2 110.9 185.45 Z"/>

<path fill="#7E7356" stroke="none" d="
M -20.1 305.8
L -20.1 308.2
Q -17.9 308.2 -16.35 310.8 -14.75 313.4 -14.75 317.05
L -12.65 316.45 -13.75 308.15 -20.1 305.8
M 187.2 355.15
L 186.5 347.1 181.65 355.5
Q 181.65 357.15 182.55 358.3 183.5 359.45 184.85 359.4
L 187.2 355.15
M 265.75 299.05
L 263.3 298.15 259.8 302.35 260.05 307.25 264.4 306.55 265.75 299.05
M 102.6 295.25
L 100.95 257.8 79.6 299.4 102.6 295.25
M 212.1 245.75
L 168 268.35 188.1 338.5 195 335.25 193.3 329.55 208.75 320.3 212.45 323.8 220 320.9 217.85 314.95 234.85 305.65 236.8 308.6 243.1 305.75 240.7 300.55 248.85 294.1 212.1 245.75
M 153.15 166.6
Q 146.1 155.35 139.05 144.1
L 153.4 211.15 179.6 202.65
Q 165.05 185.7 153.15 166.6
M 161.8 281.6
L 158.7 273.25 170.65 326.25 164 291.75 175.7 336.85 183.4 332.45 165.2 269.45 160.3 271.3 161.8 281.6
M 136.15 141.65
L 132.35 146.85 127.35 160.95 134.2 150.7 134.35 157.45 136.75 150.75 146.4 212.7 142.25 181.4 148.75 213.45 151.05 212.9 136.15 141.65 Z"/>

<path fill="#000000" fill-opacity="0.4980392156862745" stroke="none" d="
M 78.2 302.15
L 60.2 333.05 102 330.8 102.65 298.3 78.2 302.15 Z"/>

<path fill="#000000" stroke="none" d="
M 111.25 134
L 120.1 120.1 121.75 109.75 111.25 134
M 127.45 117.35
Q 127.65 118.8 127.85 120.3 130.05 136.9 114.6 143.25
L 103.25 146.6 108.75 137.9 99.8 149.8
Q 105.35 151.35 110.9 150.05 126.25 146.3 130.8 131.3 130.9 130.9 131 130.5 131.25 129.6 131.45 128.7
L 136.05 126 135.8 138.7 -13.4 300.95 -15.65 302 -13.75 308.15 -12.65 316.45 -14.75 317.05
Q -16.95 317.05 -18.55 314.45 -20.1 311.85 -20.1 308.2
L -20.1 305.8 -19.4 303.8 -22.7 305.4 -17.7 319.45
Q -1.1 319.65 14.15 326.05 36.35 335.4 60.2 333.05
L 78.2 302.15 102.65 298.3 102 330.8 100.55 339.7 177.5 357.65 177.4 360.4 178.35 362 183.25 362.3 184.85 359.4
Q 183.5 359.45 182.55 358.3 181.65 357.15 181.65 355.5
L 181.45 345.8 185.3 344 186.5 347.1 187.2 355.15
Q 220.6 329.15 258 308.75
L 260.95 309.85
Q 261.25 309.75 261.55 309.7 262.15 309.6 262.8 309.5 263.3 309.3 263.8 309.1 264.3 308.85 264.8 308.6 269.1 306.05 269.2 300.95 269.25 299 269.3 297.05 261.75 286.7 254.15 276.5 200.5 204.3 139.25 138.65 140.2 119.25 142.4 99.9 142.85 95.75 139.5 93.25
L 128.15 104.7 139.05 96.7 138.4 101.45 135.5 123.45 130.75 126.1 127.45 117.35
M 132.35 146.85
L 136.15 141.65 151.05 212.9 165.2 269.45 183.4 332.45 184.8 340.6 178.9 343.1 178.2 347.35 175.7 336.85 164 291.75 170.65 326.25 173.3 338.2 175.95 349.9 177.8 353.1 170.15 351.85 105.05 337.1 104.8 322.8 103.85 264.35
Q 105.55 258.65 101.6 254.2 101.4 253.95 101.2 253.7
L 95.1 263.5 65.4 319.5 58.3 329.95
Q 50.15 331.05 42.05 328.8 19.85 322.5 -2.35 316.25
L -6.85 316.2 -2.05 311.25 5.95 302.9 45.6 256 85.65 206.95
Q 96.8 196.4 106.65 184.8 121.65 167.2 132.35 146.85
M 152.85 160.8
L 147.25 151.2 263.95 295 256.5 295.65 255.95 299.7
Q 253.85 296.45 251.75 293.25 240.55 276.15 228.3 259.85 216.35 243.9 204.45 227.95 193.4 213.15 181.45 199.05 166 180.85 152.85 160.8
M 139.05 144.1
Q 146.1 155.35 153.15 166.6 165.05 185.7 179.6 202.65
L 212.1 245.75 248.85 294.1 254.3 305.65 191.1 344.2 188.75 342.2 188.1 338.5 168 268.35 153.4 211.15 139.05 144.1
M 125.3 153.2
Q 114.75 169.6 102.4 184.85 87.65 203.2 71.65 220.5 56.3 237.2 43.35 256.05 30.05 275.5 12.15 290.9
L -10.5 314 -12.15 303.4 125.3 153.2
M 100.95 257.8
L 102.6 295.25 79.6 299.4 100.95 257.8
M 263.3 298.15
L 265.75 299.05 264.4 306.55 260.05 307.25 259.8 302.35 259.05 297.9 263.3 298.15
M 146.4 212.7
L 146.5 213.75 158.2 271.55 158.7 273.25 161.8 281.6 160.3 271.3 148.75 213.45 142.25 181.4 146.4 212.7 Z"/>

<path fill="#0099CC" stroke="none" d="
M 120.2 122.5
Q 120.15 121.3 120.1 120.1
L 111.25 134 108.75 137.9 103.25 146.6 114.6 143.25
Q 120.9 133.8 120.2 122.5
M 156.2 333.85
L 154.5 339.15 148.3 336.6 147.85 335 128.7 329.75 126.55 334.7 119.15 332.7 119.2 328.35 104.8 322.8 105.05 337.1 170.15 351.85 167.05 348.85 173.9 352.2 167.55 340.6 175.95 349.9 173.3 338.2 156.2 333.85
M 65.4 319.5
L 54 318.9 51.35 322.8 43.6 321.25 44.6 315.8 25.95 312.6 23.65 315.5 13.7 313.1 15.75 307.75 5.95 302.9 -2.05 311.25 6.3 307.15 -1.05 313.9 3.25 313.8 -2.35 316.25
Q 19.85 322.5 42.05 328.8 50.15 331.05 58.3 329.95
L 65.4 319.5
M 101.6 254.2
Q 105.55 258.65 103.85 264.35
L 158.2 271.55 146.5 213.75 85.65 206.95 45.6 256 45 257.4 95.1 263.5 101.2 253.7
Q 101.4 253.95 101.6 254.2
M 103.45 222.2
L 109.2 217.45 114.2 224.45 110.3 226.3 117.6 230.35 113.1 248.7 91.5 245.65 97.4 226.25 104.8 224.95 103.45 222.2
M 99.05 233.35
L 98.95 238.7 103.5 238.95 106.4 241.6 110.8 240.5 110.55 233.6 107.1 233.15 104.55 235.35 103.7 232.95 99.05 233.35
M 116.85 190.3
L 110.9 185.45 113.6 193.2 109.7 196.1 107.35 195.05 104.6 201.1 105.9 203.45 112.6 202.4 115.8 197.45 117.6 201.45 116.75 202.45 117.2 204.8 120.85 203.95 122.55 205.95 124.6 205.85 123.9 201.8 126.05 198.25 123.75 197.75 119.6 193.7 125.7 185.8 116.85 190.3
M 124.6 108.55
Q 132.8 108.1 138.1 101.95 138.3 101.7 138.4 101.45
L 139.05 96.7 128.15 104.7 124.6 108.55 Z"/>

<path fill="#005572" stroke="none" d="
M 236.8 308.6
L 234.85 305.65 217.85 314.95 220 320.9 212.45 323.8 208.75 320.3 193.3 329.55 195 335.25 188.1 338.5 188.75 342.2 191.1 344.2 254.3 305.65 248.85 294.1 240.7 300.55 243.1 305.75 236.8 308.6
M 212.1 245.75
L 179.6 202.65 153.4 211.15 168 268.35 212.1 245.75
M -6.85 316.2
L -2.35 316.25 3.25 313.8 -1.05 313.9 6.3 307.15 -2.05 311.25 -6.85 316.2
M 177.8 353.1
L 175.95 349.9 167.55 340.6 173.9 352.2 167.05 348.85 170.15 351.85 177.8 353.1
M 184.8 340.6
L 183.4 332.45 175.7 336.85 178.2 347.35 178.9 343.1 184.8 340.6
M 151.05 212.9
L 148.75 213.45 160.3 271.3 165.2 269.45 151.05 212.9
M 138.1 101.95
Q 132.8 108.1 124.6 108.55
L 121.75 109.75 120.1 120.1
Q 120.15 121.3 120.2 122.5 120.9 133.8 114.6 143.25 130.05 136.9 127.85 120.3 127.65 118.8 127.45 117.35
L 130.75 126.1 135.5 123.45 138.4 101.45
Q 138.3 101.7 138.1 101.95 Z"/>
</g>
</defs>

<g transform="matrix( 1, 0, 0, 1, 374.95,127.8) ">
<g transform="matrix( 1, 0, 0, 1, 0,0) ">
<use xlink:href="#barren_prop_24_Layer1_0_FILL"/>
</g>
</g>
</svg>
