
<svg xmlns="http://www.w3.org/2000/svg" version="1.1" xmlns:xlink="http://www.w3.org/1999/xlink" preserveAspectRatio="none" x="0px" y="0px" width="1000px" height="800px" viewBox="0 0 1000 800">
<defs>
<g id="barren_prop_37_Layer2_0_FILL">
<path fill="#806C63" fill-opacity="0.4980392156862745" stroke="none" d="
M 104.65 254.2
L 81.8 261.1 73.6 258.3 71.55 262.45 56.5 264 28.65 254.55 36.75 269.05 20.95 269.8 23.65 272.85 -22.7 268.35 -5.6 282.1 -16.25 280.35 -12 285.55 -21.7 285.05 -27.1 296.35 -68.15 292.8 -42.35 305.2 -63.4 304.45 -46.2 311.4 -69.8 314.75 -58.9 318.65 -61.6 320.5 -58.05 321.65 -62 324.05 -59.55 329.65
Q -60.1 331.6 -62.3 332.7 -64.9 333.8 -67.8 334.25 -94.45 334.85 -121.05 335.45
L -74.55 341.95 -104 349.25 -85.15 354.85 -95.45 359.55 -71.15 361.55 -76.35 365.5 -71 368 -76.9 369.85 -71.9 369.9 -86.9 380.2 -56.95 376.8 -63.65 383.75 -52.5 384.9 -90 403.35 -24.85 387.15 -46 398.85 -20.6 395.75 -30.15 403.55 -14.35 399.55 -13.5 401.9 -7.7 404.2 -9.8 419.35 18.25 417.7 22.85 422.35 30.2 419.25 36.75 423.05 40.15 420.15 40.4 426.45 34.2 435.05 54.25 424.95 54.85 431.5 67.55 426.9 69.2 430.65 79.45 431.1 79.95 435.35 86.15 431.5 88.55 459.45 108.85 433.85 110.95 440.45 118.5 431.9 123.6 441.95 133.45 433.65 139.6 438.2 146.3 431.9 151.65 434.5 161.55 428.25 163.75 421.65 169.35 428.05 173.55 423.4 180.5 430.2 182.55 426.35 189.05 426.7 197.6 420.8 225.9 435.8 221.8 414.15 240.05 419.65 237.4 416.1 250.25 418.3 255.4 416.4 251.1 411.25 259.45 412.05 258.45 402.35 276.55 400.05 273.8 396.95 279.45 395.85 274.6 388.85 330.35 386.9 297.45 377.9 313.15 376.8 306.7 371.6 319.15 370.7 306.7 366.5 307.8 356.15 323.45 351.95 315.4 347.6 354.45 332.35 323.8 330.3 373.05 318.25 301.4 314.05 308.85 305.05 302.5 304.45 304.65 298.35 287.5 295.9 295.4 291.2 276.75 290.65 293.4 277.85 260.2 281.65 259.45 278.1 242.25 273.45 242.65 265.75 223.3 271.8 231.85 263.15 218.4 267.3 212.9 253.5 193.35 263.15 191.4 259.35 183.75 260.35 184.35 257.15 173.15 257.8 171.1 254.9 160.15 258.2 157 251.1 146.3 258 137.75 239.05 124.1 255.1 121.75 252 112.1 258 104.65 254.2
M 110.85 285.15
L 116.2 273.65 123.65 283.65 126.95 281 132.5 284.45 176.5 285.1 184.1 281.55 180.8 289.9 218.05 288 207.5 296.5 212.95 295.3 239.15 303.55 230.6 309.75 243.85 308.85 234.6 312.8 246.5 316 240.4 317.2 242.95 320.75 240.05 323.7 280.45 326.25 247.95 330.35 269.25 335.45 256.75 338.95 263.75 341.6 247.95 342.7 250.9 346.65 250.5 348.85 258.8 353.7 239.8 352.25 243.9 356.35 236.95 357.25 259.1 366.95 219.4 359.05 232.4 365.7 216.65 364.3 222.8 368.8 212.85 366.75 208.55 369.6 210.6 380.8 203.6 377.5 201.7 378.7 192.1 378.25 189.15 381.15 183.65 379.65 178.05 381.1 181.9 388.9 168.65 383.9 168.65 386.9 160.8 384.75 159.65 387.8 153.2 387.55 152.95 390.1 149 387.65 147.45 404.65 134.8 389.8 133.35 393.75 128.45 388.75 124.9 394.85 118.95 390.1 115.1 392.85 110 389.5 107.45 390.95 101.75 388.85 98.95 381.85 90.8 387.45 79.25 385.5 77.2 383.6 60.35 393.2 62.9 380.15 49.8 386.15 50.6 382.8 41.3 379.6 39.5 374 25.4 370.1 27.15 367.9 -7.25 366.15 15.35 359.6 4.9 359.6 9 356.35 1.15 356.1 7.75 353.75 8.35 347.1 -1.5 344.95 4.15 342.1 -26.3 336.85 -1.85 331.95 -33.1 325.7 12.8 321.8 9.45 318.15 11.7 316.05 10.45 312.45 21.2 310.6 16.2 308 28 307.3 17.15 299.4 43.2 299.25 49.7 291.7 61.95 294.95 57.55 291.05 65.8 291.7 68.6 283.8 81.95 287.65 96.05 283.9 101.5 285.6 105.6 281.4 110.85 285.15 Z"/>
</g>

<g id="barren_prop_37_Layer1_0_FILL">
<path fill="#2A221E" stroke="none" d="
M 108.15 263.75
L 111.25 284.9 106.2 281.25 102.2 285.35 97 283.7 83.35 287.3 70.45 283.6 67.75 291.2 59.8 290.55 64 294.35 52.2 291.2 45.9 298.55 0 288.65 31.2 306.3 19.8 307 24.65 309.5 14.2 311.3 15.45 314.75 13.3 316.8 16.5 320.35 -34.05 329.05 2.35 330.15 -48.15 338.25 8.15 340 2.65 342.7 12.2 344.8 11.65 351.3 5.25 353.45 12.85 353.75 8.9 356.9 19 356.9 -31.85 369.95 30.35 364.9 28.65 367.1 42.35 370.85 44.05 376.25 53 379.3 17.2 400.9 64.95 376.75 25.85 417.2 25.3 417.7 25.95 417.25 78.75 380.15 80.7 381.95 91.9 383.9 99.75 378.35 102.45 385.15 107.95 387.25 110.45 385.8 115.35 389.1 119.1 386.35 124.85 390.95 128.25 385.1 133 389.9 134.4 386.1 154.9 413.75 148.15 384.05 151.9 386.35 152.25 383.9 158.45 384.15 159.55 381.2 167.15 383.3 167.15 380.4 184.1 388.65 176.2 377.7 181.65 376.3 186.95 377.7 189.8 374.95 199.1 375.4 200.9 374.2 249.05 389.05 205.7 366.65 209.8 363.85 219.45 365.8 213.55 361.5 249.4 374.45 216.2 356.4 281.45 370.7 233.15 354.6 239.85 353.8 235.85 349.8 254.25 351.2 246.25 346.5 246.6 344.35 243.75 340.55 259 339.5 252.3 336.9 264.35 333.6 243.75 328.6 306.2 321.3 236.15 322.2 265.8 317.65 236.5 315.95 242.4 314.75 230.9 311.65 239.8 307.8 226.95 308.65 235.25 302.65 209.95 294.75 204.7 295.9 239.7 281 178.9 289.45 182.05 281.4 174.7 284.85 132.2 284.25 126.85 280.9 123.65 283.4 108.15 263.75
M 61.5 309.35
L 73.85 309.85 84.85 303.75 88.45 303.8 91.3 299.6 98.55 302.75 99.8 301.25 111.8 298.45 116.75 299.9 119.3 293.6 121.9 297.65 129.55 299.5 131.8 298.6 142.35 299.65 144.05 301.35 160 297.75 158.95 303.2 179.15 302.05 173.2 306.85 178.55 307.7 178.65 310.65 196.75 309.95 186.55 314.85 194.35 314.3 187.95 316.95 196.75 317.85 192.8 320.35 193.2 322.45 215.2 325.05 196.75 326.95 209.25 330.05 202.35 331.85 205.7 333.8 199.05 335.45 203.1 340.7 194.95 340.55 190.3 342.8 203.3 348.55 179.95 343.9 187.85 347.8 178.35 347 181.5 349.4 175.85 348.5 173.25 350.7 174.8 356.7 170.65 354.7 155.65 357.5 157.5 361.5 151.7 359.3
Q 150.8 359.25 149.95 359.25 149.95 359.3 149.95 359.45 149.95 359.65 149.95 359.85
L 145.9 359.05 140.3 361.3 137.65 370.65 126.45 361.35 123.95 364.8 121.55 363.05
Q 121.3 362.95 121.1 362.85 120.85 362.75 120.6 362.65 120.55 362.65 120.5 362.7 120.3 362.9 120.15 363.1 120 363.25 119.85 363.45
L 116.7 362.1 114.1 362.65 109.9 358 86.5 363.95 87.9 356.65 76.65 358 74.85 355.8 74.6 352.65 67.3 350.5 66.7 346.95 64.15 345.5 46.7 348.1 59.55 343.95 53.85 344.2 56.25 342.3 51.65 342.1 56.25 340.45 55.85 336.85 50.3 334.95 52.65 333.85 36.15 330.05 49.9 327.95 32.8 323.3 59.45 321.55 55.75 319.65 57.55 316.2 62.6 315.85 60.55 313.85 67.45 313.4 61.5 309.35 Z"/>

<path fill="#1C1714" stroke="none" d="
M 73.85 309.85
L 61.5 309.35 67.45 313.4 60.55 313.85 62.6 315.85 57.55 316.2 55.75 319.65 59.45 321.55 32.8 323.3 49.9 327.95 36.15 330.05 52.65 333.85 50.3 334.95 55.85 336.85 56.25 340.45 51.65 342.1 56.25 342.3 53.85 344.2 59.55 343.95 46.7 348.1 64.15 345.5 66.7 346.95 67.3 350.5 74.6 352.65 74.85 355.8 76.65 358 87.9 356.65 86.5 363.95 109.9 358 114.1 362.65 116.7 362.1 119.85 363.45
Q 120 363.25 120.15 363.1 120.3 362.9 120.5 362.7 120.55 362.65 120.6 362.65 120.85 362.75 121.1 362.85 121.3 362.95 121.55 363.05
L 123.95 364.8 126.45 361.35 137.65 370.65 140.3 361.3 145.9 359.05 149.95 359.85
Q 149.95 359.65 149.95 359.45 149.95 359.3 149.95 359.25 150.8 359.25 151.7 359.3
L 157.5 361.5 155.65 357.5 170.65 354.7 174.8 356.7 173.25 350.7 175.85 348.5 181.5 349.4 178.35 347 187.85 347.8 179.95 343.9 203.3 348.55 190.3 342.8 194.95 340.55 203.1 340.7 199.05 335.45 205.7 333.8 202.35 331.85 209.25 330.05 196.75 326.95 215.2 325.05 193.2 322.45 192.8 320.35 196.75 317.85 187.95 316.95 194.35 314.3 186.55 314.85 196.75 309.95 178.65 310.65 178.55 307.7 173.2 306.85 179.15 302.05 158.95 303.2 160 297.75 144.05 301.35 142.35 299.65 131.8 298.6 129.55 299.5 121.9 297.65 119.3 293.6 116.75 299.9 111.8 298.45 99.8 301.25 98.55 302.75 91.3 299.6 88.45 303.8 84.85 303.75 73.85 309.85 Z"/>

<path fill="#3F342E" stroke="none" d="
M 111.25 284.9
L 108.15 263.75 123.65 283.4 126.85 280.9 132.2 284.25 174.7 284.85 182.05 281.4 178.9 289.45 239.7 281 204.7 295.9 209.95 294.75 235.25 302.65 226.95 308.65 239.8 307.8 230.9 311.65 242.4 314.75 236.5 315.95 265.8 317.65 236.15 322.2 306.2 321.3 243.75 328.6 264.35 333.6 252.3 336.9 259 339.5 243.75 340.55 246.6 344.35 246.25 346.5 254.25 351.2 235.85 349.8 239.85 353.8 233.15 354.6 281.45 370.7 216.2 356.4 249.4 374.45 213.55 361.5 219.45 365.8 209.8 363.85 205.7 366.65 249.05 389.05 200.9 374.2 199.1 375.4 189.8 374.95 186.95 377.7 181.65 376.3 176.2 377.7 184.1 388.65 167.15 380.4 167.15 383.3 159.55 381.2 158.45 384.15 152.25 383.9 151.9 386.35 148.15 384.05 154.9 413.75 134.4 386.1 133 389.9 128.25 385.1 124.85 390.95 119.1 386.35 115.35 389.1 110.45 385.8 107.95 387.25 102.45 385.15 99.75 378.35 91.9 383.9 80.7 381.95 78.75 380.15 25.95 417.25 26.25 417.6 39.55 407.95 39.65 418.3 42.95 415.45 43.15 421.55 37.2 429.85 56.6 420.15 57.15 426.4 69.4 422 71.05 425.6 80.9 426.05 81.4 430.15 87.4 426.4 89.7 453.45 109.35 428.7 111.35 435.1 118.65 426.8 123.6 436.55 133.1 428.45 139.05 432.85 145.5 426.8 150.7 429.3 160.25 423.25 162.4 416.9 167.8 423.05 171.85 418.6 178.6 425.15 180.55 421.4 186.85 421.8 195.1 416.05 222.45 430.6 218.45 409.65 236.15 415 233.55 411.55 246 413.7 250.95 411.85 246.8 406.85 254.9 407.65 253.9 398.2 271.4 396.05 268.75 393.05 274.2 391.95 269.55 385.15 323.4 383.3 291.6 374.6 306.75 373.55 300.55 368.55 312.6 367.65 300.55 363.55 301.6 353.55 316.7 349.5 308.95 345.3 346.65 330.5 317.1 328.55 364.65 316.9 295.45 312.8 302.65 304.15 296.45 303.55 298.6 297.65 281.95 295.25 289.65 290.75 271.6 290.25 287.65 277.8 255.6 281.5 254.9 278.1 238.25 273.55 238.6 266.1 219.95 271.95 228.2 263.6 215.2 267.6 209.9 254.3 191 263.6 189.1 259.9 181.75 260.9 182.3 257.8 171.45 258.4 169.5 255.6 158.9 258.8 155.85 251.95 145.5 258.6 137.25 240.3 124.05 255.8 121.8 252.8 112.45 258.6 105.25 254.95 83.2 261.6 75.3 258.9 73.25 262.9 58.7 264.45 31.8 255.3 39.65 269.3 24.4 270.05 27 273 -17.8 268.6 -1.25 281.95 -11.6 280.25 -7.45 285.25 -16.85 284.75 -22.05 295.7 -61.7 292.25 -36.75 304.3 -57.1 303.55 -40.55 310.25 -63.3 313.55 -52.8 317.3 -55.4 319.1 -51.95 320.15 -55.8 322.45 -53.4 328
Q -53.95 329.85 -56.05 330.85 -58.6 331.95 -61.4 332.4 -87.15 332.95 -112.9 333.55
L -67.9 339.8 -96.35 346.85 -78.2 352.25 -88.1 356.85 -64.6 358.75 -69.7 362.6 -64.5 365.05 -70.2 366.75 -65.35 366.85 -79.85 376.85 -50.9 373.55 -57.35 380.2 -46.6 381.4 -82.85 399.2 -19.9 383.5 -40.3 394.9 -15.75 391.85 -25 399.4 -9.7 395.55 -8.95 397.8 -3.3 400.05 -5.35 414.7 21.8 413.1 25.85 417.2 64.95 376.75 17.2 400.9 53 379.3 44.05 376.25 42.35 370.85 28.65 367.1 30.35 364.9 -31.85 369.95 19 356.9 8.9 356.9 12.85 353.75 5.25 353.45 11.65 351.3 12.2 344.8 2.65 342.7 8.15 340 -48.15 338.25 2.35 330.15 -34.05 329.05 16.5 320.35 13.3 316.8 15.45 314.75 14.2 311.3 24.65 309.5 19.8 307 31.2 306.3 0 288.65 45.9 298.55 52.2 291.2 64 294.35 59.8 290.55 67.75 291.2 70.45 283.6 83.35 287.3 97 283.7 102.2 285.35 106.2 281.25 111.25 284.9 Z"/>
</g>
</defs>

<g transform="matrix( 1, 0, 0, 1, 374.95,127.8) ">
<g transform="matrix( 1, 0, 0, 1, 0,0) ">
<use xlink:href="#barren_prop_37_Layer2_0_FILL"/>
</g>

<g transform="matrix( 1, 0, 0, 1, 0,0) ">
<use xlink:href="#barren_prop_37_Layer1_0_FILL"/>
</g>
</g>
</svg>
