
<svg xmlns="http://www.w3.org/2000/svg" version="1.1" xmlns:xlink="http://www.w3.org/1999/xlink" preserveAspectRatio="none" x="0px" y="0px" width="1000px" height="800px" viewBox="0 0 1000 800">
<defs>
<g id="barren_prop_21_Layer1_0_FILL">
<path fill="#000000" stroke="none" d="
M 114.6 267.6
Q 111.65 267.55 109 266.65 87.35 259 69.2 272
L 69.8 274.8
Q 56.85 276.95 50.5 288.65 47.7 293.9 47.4 300.1 47.1 305.55 48.85 310.8 51.45 318.75 58.65 322.9 70.85 329.8 84 333.95 109.85 342.1 136.65 346.6 155.4 349.55 173.95 346.15 190.55 343.25 193.6 327 197 325.85 199.05 322.85 204.55 315 197.9 307.2 196.6 305.65 195.4 304.05
L 197.15 300.65 184.55 281.95
Q 180.9 280.55 177.2 279.65 165.25 277.15 153.15 276.05 149.4 275.55 149.05 272 150.8 269.6 150.65 266.5 150.4 261.85 146.4 259.6 146 259.45 145.65 259.3 131.55 268.05 114.6 267.6
M 93.7 268.15
Q 96.1 268.4 98.2 269.35 111.25 275 125.15 271.65 127.25 271.15 128.5 269.75 136.8 260.4 148.3 263.95
L 147.9 268.1 144.75 275.4 176.4 282.75 167.6 288.65 165.45 290.75 163.55 293.45 162.9 296.45 161.85 302.1 147.05 306.85 149.95 313 151.45 317.1 138.7 316.55 137.25 316.9 130.45 324.95 148.45 343.75
Q 145.1 343.1 141.8 342.5 119.35 338.15 96.9 333.8 79.6 330.55 63.35 323.7 48.8 317.65 50.1 301.8
L 50.4 299.05 52.35 289.65 57.15 281 73.8 277.7 74.2 275.4 72.95 272.4
Q 82.85 267.85 93.7 268.15
M 153.05 319
L 152.05 310.7 151.75 309.2 164.25 303.9 170.55 289.7 178.15 284.85 182.9 285.35 199.5 318.95 189.9 324.75
Q 189.75 326.1 189.65 327.45 189 336.7 180.9 340.8 180.3 341 179.8 341.3 173.7 344.4 167.35 341.9
L 166.05 341.5
Q 145.55 342 135.1 324.4 135.75 323.8 136.5 323.25 143.8 317.5 153.05 319 Z"/>

<path fill="#7E7356" stroke="none" d="
M 179.8 341.3
Q 180.3 341 180.9 340.8
L 184.35 335.65
Q 183.4 336.5 182.55 337.4 176.25 343.65 167.35 341.9 173.7 344.4 179.8 341.3
M 149.7 321.1
L 153.05 319
Q 143.8 317.5 136.5 323.25 135.75 323.8 135.1 324.4 145.55 342 166.05 341.5 157.95 339.2 153.3 332.1 152.6 330.95 152.1 329.75 151.55 328.55 151.1 327.3
L 160.35 331.9 161.2 334.5
Q 164.35 335.5 167.5 336.5 170.1 337.25 172.85 336.9 186.45 335.25 190.2 321.4 192.65 312.4 187.7 304.3 192.2 319.65 181.5 331.3 178.85 334.15 175.1 335.35
L 150.05 323.8 149.7 321.1
M 151.75 309.2
L 152.05 310.7 162.6 309.9 164.1 311.05
Q 165.85 305.35 169.65 300.55 171.85 297.85 175.15 296.65 183.35 301.7 183.5 311.4 183.6 321 175.3 325.65 172.65 322.15 172.55 317.65 172.5 313.7 174.15 310
L 176.55 313.75 177.45 307.05 174.25 305.35
Q 170.4 308.55 169.6 313.4 168 322.75 175.6 328.1 178.2 327 179.8 324.65 190.8 308.45 177 294.45 171.4 295.2 167.85 299.6 167.35 300.2 166.9 300.9
L 170.55 289.7 164.25 303.9 151.75 309.2
M 154.55 321.35
Q 159.5 318.95 158.45 313.5
L 153.4 321.9
Q 153.95 321.6 154.55 321.35 Z"/>

<path fill="#CDC2A6" stroke="none" d="
M 152.05 310.7
L 153.05 319 149.7 321.1 150.05 323.8 175.1 335.35
Q 178.85 334.15 181.5 331.3 192.2 319.65 187.7 304.3 192.65 312.4 190.2 321.4 186.45 335.25 172.85 336.9 170.1 337.25 167.5 336.5 164.35 335.5 161.2 334.5
L 160.35 331.9 151.1 327.3
Q 151.55 328.55 152.1 329.75 152.6 330.95 153.3 332.1 157.95 339.2 166.05 341.5
L 167.35 341.9
Q 176.25 343.65 182.55 337.4 183.4 336.5 184.35 335.65
L 180.9 340.8
Q 189 336.7 189.65 327.45 189.75 326.1 189.9 324.75
L 199.5 318.95 182.9 285.35 178.15 284.85 170.55 289.7 166.9 300.9
Q 167.35 300.2 167.85 299.6 171.4 295.2 177 294.45 190.8 308.45 179.8 324.65 178.2 327 175.6 328.1 168 322.75 169.6 313.4 170.4 308.55 174.25 305.35
L 177.45 307.05 176.55 313.75 174.15 310
Q 172.5 313.7 172.55 317.65 172.65 322.15 175.3 325.65 183.6 321 183.5 311.4 183.35 301.7 175.15 296.65 171.85 297.85 169.65 300.55 165.85 305.35 164.1 311.05
L 162.6 309.9 152.05 310.7
M 158.45 313.5
Q 159.5 318.95 154.55 321.35 153.95 321.6 153.4 321.9
L 158.45 313.5 Z"/>

<path fill="#70513A" stroke="none" d="
M 165.45 290.75
L 167.6 288.65 151.95 288.9 165.45 290.75
M 151.45 317.1
L 149.95 313 138.7 316.55 151.45 317.1
M 50.4 299.05
L 69.55 308.45
Q 68.5 308.4 67.5 308.4 57.55 308.35 50.1 301.8 48.8 317.65 63.35 323.7 79.6 330.55 96.9 333.8 119.35 338.15 141.8 342.5 145.1 343.1 148.45 343.75
L 130.45 324.95 137.25 316.9
Q 127.35 319.3 117.05 317.9 109.1 316.9 101.75 313.75
L 102.35 310.7 103.55 309.7
Q 101.6 309.95 99.65 310.25 96.75 310.55 93.95 309.7 71.85 303 52.35 289.65
L 50.4 299.05
M 135.5 289.2
Q 135.85 289.35 136.25 289.55 148.5 297.3 162.9 296.45
L 163.55 293.45
Q 153.25 289.5 142.15 288.9 136.45 288.5 135.5 289.2
M 129.15 276.1
Q 131.95 279.05 136 279.1 141.2 279.2 144.75 275.4
L 147.9 268.1
Q 140.6 275.15 130.5 276.05 129.8 276.05 129.15 276.1
M 89.7 280
Q 88.8 279.35 87.9 278.75 81.6 274.7 74.2 275.4
L 73.8 277.7 57.15 281 89.7 280
M 137.4 305.45
Q 134.75 305.4 132.15 304.95 121.25 303.95 111.15 307.15
L 107.5 308.65 137.4 305.45 Z"/>

<path fill="#AF8362" stroke="none" d="
M 69.55 308.45
L 50.4 299.05 50.1 301.8
Q 57.55 308.35 67.5 308.4 68.5 308.4 69.55 308.45
M 98.2 269.35
Q 96.1 268.4 93.7 268.15 82.85 267.85 72.95 272.4
L 74.2 275.4
Q 81.6 274.7 87.9 278.75 88.8 279.35 89.7 280
L 57.15 281 52.35 289.65
Q 71.85 303 93.95 309.7 96.75 310.55 99.65 310.25 101.6 309.95 103.55 309.7
L 102.35 310.7 101.75 313.75
Q 109.1 316.9 117.05 317.9 127.35 319.3 137.25 316.9
L 138.7 316.55 149.95 313 147.05 306.85 161.85 302.1 162.9 296.45
Q 148.5 297.3 136.25 289.55 135.85 289.35 135.5 289.2 136.45 288.5 142.15 288.9 153.25 289.5 163.55 293.45
L 165.45 290.75 151.95 288.9 167.6 288.65 176.4 282.75 144.75 275.4
Q 141.2 279.2 136 279.1 131.95 279.05 129.15 276.1 129.8 276.05 130.5 276.05 140.6 275.15 147.9 268.1
L 148.3 263.95
Q 136.8 260.4 128.5 269.75 127.25 271.15 125.15 271.65 111.25 275 98.2 269.35
M 132.15 304.95
Q 134.75 305.4 137.4 305.45
L 107.5 308.65 111.15 307.15
Q 121.25 303.95 132.15 304.95 Z"/>
</g>
</defs>

<g transform="matrix( 1, 0, 0, 1, 374.95,127.8) ">
<g transform="matrix( 1, 0, 0, 1, 0,0) ">
<use xlink:href="#barren_prop_21_Layer1_0_FILL"/>
</g>
</g>
</svg>
