
<svg xmlns="http://www.w3.org/2000/svg" version="1.1" xmlns:xlink="http://www.w3.org/1999/xlink" preserveAspectRatio="none" x="0px" y="0px" width="1000px" height="1000px" viewBox="0 0 1000 1000">
<defs>
<linearGradient id="Gradient_1" gradientUnits="userSpaceOnUse" x1="51.2" y1="71.7" x2="51.2" y2="117.3" spreadMethod="pad">
<stop  offset="0.39215686274509803%" stop-color="#FF9900"/>

<stop  offset="49.411764705882355%" stop-color="#FFD100"/>

<stop  offset="100%" stop-color="#FFFFFF"/>
</linearGradient>

<linearGradient id="Gradient_2" gradientUnits="userSpaceOnUse" x1="51.5375" y1="63.12499999999999" x2="55.9625" y2="153.575" spreadMethod="pad">
<stop  offset="0.39215686274509803%" stop-color="#FF3300"/>

<stop  offset="49.411764705882355%" stop-color="#FFD100"/>

<stop  offset="100%" stop-color="#FFFFFF"/>
</linearGradient>

<linearGradient id="Gradient_3" gradientUnits="userSpaceOnUse" x1="42.324999999999996" y1="-3.8" x2="50.975" y2="18.7" spreadMethod="pad">
<stop  offset="0.39215686274509803%" stop-color="#FF3300"/>

<stop  offset="49.411764705882355%" stop-color="#FFD100"/>

<stop  offset="100%" stop-color="#FFFFFF"/>
</linearGradient>

<g id="Flame_tail_1_Layer0_0_FILL">
<path fill="#FFFFFF" stroke="none" d="
M 44.4 86
Q 41.362890625 90.8826171875 41 96.4 30.5953125 104.7087890625 32.8 90.1 15.4744140625 92.7591796875 15.6 99.05 15.76875 105.3470703125 18.9 109.95 22.0931640625 114.543359375 21.1 117.15 20.16015625 119.7576171875 20.15 121 20.6517578125 121 21.15 121 34.42421875 121 49.6 122.9 52.669921875 122.35234375 55.55 121.8 55.65 121.8 61.3 123.45 67.4 125.1 69.45 125.1 75.7453125 125.1 78.5 123.45 78.55 123.15 79.15 121.35 79.80234375 119.1998046875 80.5 117.5 81.19140625 115.8490234375 82.15 110.55 83.1017578125 105.3109375 86.85 92.8 90.6099609375 80.2806640625 75.65 71.95 78.5158203125 85.0796875 76.6 90.05 74.7365234375 95.0216796875 70.65 101.7 51.3943359375 110.968359375 57.75 75.8 48.2203125 79.944140625 44.4 86 Z"/>

<path fill="url(#Gradient_1)" stroke="none" d="
M 96.3 74.5
Q 96.3 67.1 88.75 58 82.4 50.3 77.4 48.05 77.4 49.5 78.2 51.55 78.95 53.6 78.95 54.5 78.95 62.35 74.7 65.95 70.95 69.15 63.55 69.15 59.1 69.15 52.95 66.2
L 47.7 63.25
Q 47.7 69 44.1 76.4 39.25 86.4 31.45 86.4 27.15 86.4 23.35 79.9 20.1 74.35 20.1 70.7 20.1 70.15 20.65 67.8 21.2 65.45 21.2 64.25 17.9 68.3 11.15 74.8 6.1 80.45 6.1 85.85 6.1 87.9 8.85 94.25 11.550390625 100.5513671875 11.1 105.95 10.9 108.3 9.8 114.75 8.9 120.2 8.5 122 13.976953125 121.0416015625 20.15 121 20.16015625 119.7576171875 21.1 117.15 22.0931640625 114.543359375 18.9 109.95 15.76875 105.3470703125 15.6 99.05 15.4744140625 92.7591796875 32.8 90.1 30.5953125 104.7087890625 41 96.4 41.362890625 90.8826171875 44.4 86 48.2203125 79.944140625 57.75 75.8 51.3943359375 110.968359375 70.65 101.7 74.7365234375 95.0216796875 76.6 90.05 78.5158203125 85.0796875 75.65 71.95 90.6099609375 80.2806640625 86.85 92.8 83.1017578125 105.3109375 82.15 110.55 81.19140625 115.8490234375 80.5 117.5 79.80234375 119.1998046875 79.15 121.35 78.55 123.15 78.5 123.45 88.55 121.8 88.9 121.75 88.2 108.12578125 88.2 106.95 88.2 100.05 92.25 89.85 96.3 79.7 96.3 74.5 Z"/>

<path fill="url(#Gradient_2)" stroke="none" d="
M 103.3 75.9
Q 103.3 62.35 94.05 51.9 86.55 43.4 72.05 36.15 72.05 37.1 72.85 41.5 73.6 45.95 73.6 48.05 73.6 62.7 60.05 62.7 51.45 62.7 46.6 53.5 42.25 45.25 42.25 32.65 42.25 29.55 43.1 26.55 43.9 23.55 43.9 21.55 43.15 24.55 38.55 33.1 36.3 37.35 34.15 41.3 34.15 41.85 38 46.1 41.8 51.4 41.8 57.5 41.8 62.25 39.6 66.45 37.05 71.25 33.3 71.25 29.7 71.25 28.25 63.85 27.05 57.85 27.7 54.55 15.25 58.25 7.9 68.2 1.75 76.6 1.75 85 1.75 88.35 3.65 94.1 5.55 99.9 5.55 106.05 5.55 107.3 4.55 113.75 3.55 120.1 3.2 121.25 3.45 121.3 5 121 6.75 120.65 7.55 120.35 8.35 121.95 8.5 122 8.9 120.2 9.8 114.75 10.9 108.3 11.1 105.95 11.550390625 100.5513671875 8.85 94.25 6.1 87.9 6.1 85.85 6.1 80.45 11.15 74.8 17.9 68.3 21.2 64.25 21.2 65.45 20.65 67.8 20.1 70.15 20.1 70.7 20.1 74.35 23.35 79.9 27.15 86.4 31.45 86.4 39.25 86.4 44.1 76.4 47.7 69 47.7 63.25
L 52.95 66.2
Q 59.1 69.15 63.55 69.15 70.95 69.15 74.7 65.95 78.95 62.35 78.95 54.5 78.95 53.6 78.2 51.55 77.4 49.5 77.4 48.05 82.4 50.3 88.75 58 96.3 67.1 96.3 74.5 96.3 79.7 92.25 89.85 88.2 100.05 88.2 106.95 88.2 108.12578125 88.9 121.75 93.55 121.45 95.7 121 94.15 109.15 94.15 107.7 94.15 100.25 98.75 91.85 103.3 83.45 103.3 75.9 Z"/>

<path fill="url(#Gradient_3)" stroke="none" d="
M 57.45 -3.75
Q 68.05 -4.5 71.2 -3.3 70.1 -4.4 61.1 -7.5 51.75 -10.75 49.45 -10.55 45.9 -10.2 41.6 -8.85 39.75 -4.7 25.3 24.35 30.4 16.75 35.1 17.2 39.75 17.7 42.35 20.75 40.85 16.7 40 12.1 38.4 2.85 41.85 0.1 45.6 -2.95 57.45 -3.75 Z"/>
</g>
</defs>

<g transform="matrix( 0.9992523193359375, 0, 0, 0.830047607421875, 452.4,396.4) ">
<g transform="matrix( 1, 0, 0, 1, 0,0) ">
<use xlink:href="#Flame_tail_1_Layer0_0_FILL"/>
</g>
</g>
</svg>
