
<svg xmlns="http://www.w3.org/2000/svg" version="1.1" xmlns:xlink="http://www.w3.org/1999/xlink" preserveAspectRatio="none" x="0px" y="0px" width="1000px" height="1000px" viewBox="0 0 1000 1000">
<defs>
<linearGradient id="Gradient_1" gradientUnits="userSpaceOnUse" x1="52.4" y1="47.225" x2="52.4" y2="117.275" spreadMethod="pad">
<stop  offset="0.39215686274509803%" stop-color="#FF9900"/>

<stop  offset="49.411764705882355%" stop-color="#FFD100"/>

<stop  offset="100%" stop-color="#FFFFFF"/>
</linearGradient>

<linearGradient id="Gradient_2" gradientUnits="userSpaceOnUse" x1="43.9875" y1="45.36249999999999" x2="52.5125" y2="137.3375" spreadMethod="pad">
<stop  offset="0.39215686274509803%" stop-color="#FF3300"/>

<stop  offset="49.411764705882355%" stop-color="#FFD100"/>

<stop  offset="100%" stop-color="#FFFFFF"/>
</linearGradient>

<linearGradient id="Gradient_3" gradientUnits="userSpaceOnUse" x1="55.95" y1="36.725" x2="80.85000000000001" y2="139.175" spreadMethod="pad">
<stop  offset="0.39215686274509803%" stop-color="#FF3300"/>

<stop  offset="49.411764705882355%" stop-color="#FFD100"/>

<stop  offset="100%" stop-color="#FFFFFF"/>
</linearGradient>

<g id="Flame_tail_5_Layer0_0_FILL">
<path fill="#FFFFFF" stroke="none" d="
M 36.85 84
Q 35.25 85.75 34.9 88.9 34.7 90.7 34.7 98 34.7 101.65 25 108.05 15.25625 114.45625 16.55 116.25 17.8873046875 118.028515625 18.8 120.05 19.2517578125 121.01796875 19.45 121.95 19.5974609375 121.9603515625 19.7 121.95 21.5169921875 122.1830078125 23.55 122.6 24.7853515625 122.896875 26.1 123.25 26.25546875 123.290625 26.4 123.3 32.2517578125 122.65 32.75 122.65 38.1130859375 123.45703125 42.65 124.15 44.91640625 123.80703125 48 123.25 51.9 122.5 55.55 121.8 55.65 121.8 61.3 123.45 67.4 125.1 69.45 125.1 72.05 125.1 77.05 123.75 79.6 123.05 82.25 122.2
L 82.25 121
Q 78.95 122.1 76.85 122.1 64.85 122.1 57.95 108.55 52.55 98 52.55 86.4 52.55 85.7 53.1 81.4 53.6 77.1 53.6 76.45
L 53.6 74
Q 48.75 76.8 42.4 80.15 38.25 82.45 36.85 84
M 65.5 44.15
Q 65.7857421875 44.0724609375 66.05 44 64.6267578125 43.269140625 63.55 42.9 61.8548828125 44.690234375 61.45 45.5 61.15 46.1 61.15 48.85 61.15 49.6 61.45 50.7 61.684375 51.778125 61.7 52.25 61.693359375 45.18203125 65.5 44.15 Z"/>

<path fill="url(#Gradient_1)" stroke="none" d="
M 76.85 49.15
Q 76.25 47.2 73.35 39.7 70.7 32.75 69.85 29.7 62.35 32 52.6 40.5 41.8 49.95 41.8 56.7 41.8 58.3 43.4 60.35 44.95 62.45 44.95 66.1 44.95 68.9 43.35 71.25 41.55 74 38.75 74 36.2 74 32.05 69.4 28.35 65.35 27.7 63.25 26.45 65.75 26.2 67.85 26.05 68.8 26.05 72.1 26.05 74.65 27.15 77.9 28.25 81.1 28.25 82.05 28.25 85.4 25.3 88.4 23.55 90.2 18.8 94.25 9.20859375 103.4421875 8.85 112.7 8.6208984375 118.60546875 8.45 122.15 8.539453125 122.1591796875 8.6 122.15 11.440625 121.8 16.85 121.8 18.0849609375 121.8 19.45 121.95 19.2517578125 121.01796875 18.8 120.05 17.8873046875 118.028515625 16.55 116.25 15.25625 114.45625 25 108.05 34.7 101.65 34.7 98 34.7 90.7 34.9 88.9 35.25 85.75 36.85 84 38.25 82.45 42.4 80.15 48.75 76.8 53.6 74
L 53.6 76.45
Q 53.6 77.1 53.1 81.4 52.55 85.7 52.55 86.4 52.55 98 57.95 108.55 64.85 122.1 76.85 122.1 78.95 122.1 82.25 121
L 82.25 122.2
Q 84.592578125 121.8 87.9 121.8 89.2978515625 121.8 90.8 121.65 91.109765625 121.65078125 91.4 121.6 91.7654296875 120.7068359375 92.2 119.8 96.3 111.25 96.3 106.4
L 96.3 103.15
Q 94.1 107.5 92.3 108.85 90.55 110.2 87.1 110.2 75.15 110.2 68.15 94.05 62.8 81.7 62.8 69.35 62.8 64.9 69.3 57 74.3 50.9 76.85 49.15
M 66.05 44
Q 65.7857421875 44.0724609375 65.5 44.15 61.693359375 45.18203125 61.7 52.25 61.684375 51.778125 61.45 50.7 61.15 49.6 61.15 48.85 61.15 46.1 61.45 45.5 61.8548828125 44.690234375 63.55 42.9 64.6267578125 43.269140625 66.05 44 Z"/>

<path fill="url(#Gradient_2)" stroke="none" d="
M 97.9 96.7
Q 97.4 97.4 96.1 98.3 94.5 99.4 93.55 99.4 85.85 99.4 76.9 85.4 73.35 79.9 71 74.2 68.75 68.7 68.75 65.9 68.75 61.1 72.3 56.1 76.25 50.55 80.6 52.35
L 80.65 52.1
Q 80.8 51.8 81.15 51.8 79.1 42.45 76.55 33.85 71.5 16.75 67.9 16.75 67.2 16.75 57.2 21.8 46.1 27.4 43.35 30.25 38.2 35.5 35.5 42.65 33.1 48.95 33.1 55.3 33.1 56.75 35.55 57.7 37.95 58.6 37.95 61.3 37.95 64.8 34.95 64.8 31.9 64.8 30.45 60.55 30.27578125 60.0474609375 30.15 59.5 29.1302734375 48.0166015625 21.3 58.4 19.7765625 60.4244140625 18.5 61.85 21.0203125 61.840234375 22.25 64 24.7365234375 68.3572265625 21.6 74.8 18.454296875 81.2974609375 15.35 86.25 13.4 89.35 8.55 94.3 3.5 99.4 1.7 102.1 -1.4 106.85 -1.4 112.05 -1.4 116.25 0.75 119.6 1.076171875 120.095703125 1.35 120.6 1.848828125 120.83359375 2.15 120.95 2.5318359375 121.1369140625 2.7 121.2 3.1 121.3 3.95 121.3 5 121.3 7.55 120.35
L 7.8 120.6
Q 8.1 120.8 8.35 120.8 8.35 121.3 7.95 121.3
L 7.95 122.25
Q 8.19921875 122.210546875 8.45 122.15 8.6208984375 118.60546875 8.85 112.7 9.20859375 103.4421875 18.8 94.25 23.55 90.2 25.3 88.4 28.25 85.4 28.25 82.05 28.25 81.1 27.15 77.9 26.05 74.65 26.05 72.1 26.05 68.8 26.2 67.85 26.45 65.75 27.7 63.25 28.35 65.35 32.05 69.4 36.2 74 38.75 74 41.55 74 43.35 71.25 44.95 68.9 44.95 66.1 44.95 62.45 43.4 60.35 41.8 58.3 41.8 56.7 41.8 49.95 52.6 40.5 62.35 32 69.85 29.7 70.7 32.75 73.35 39.7 76.25 47.2 76.85 49.15 74.3 50.9 69.3 57 62.8 64.9 62.8 69.35 62.8 81.7 68.15 94.05 75.15 110.2 87.1 110.2 90.55 110.2 92.3 108.85 94.1 107.5 96.3 103.15
L 96.3 106.4
Q 96.3 111.25 92.2 119.8 91.7654296875 120.7068359375 91.4 121.6 93.9033203125 121.3751953125 96.75 120.8 97.4365234375 120.65078125 98.1 120.5 98.4689453125 120.4111328125 98.8 120.3 101.755078125 116.4408203125 101.75 112.3 100.7 99.4 97.9 96.7 Z"/>

<path fill="url(#Gradient_3)" stroke="none" d="
M -8.15 50.65
Q -5.7177734375 48.3236328125 -3.2 53.3 -9.81328125 33.1828125 12.55 38.1 -5.9705078125 30.5490234375 -8.25 41.75 -10.534765625 53.009375 -8.15 50.65 Z"/>
</g>
</defs>

<g transform="matrix( 0.9992523193359375, 0, 0, 0.830047607421875, 452.4,396.4) ">
<g transform="matrix( 1, 0, 0, 1, 0,0) ">
<use xlink:href="#Flame_tail_5_Layer0_0_FILL"/>
</g>
</g>
</svg>
