
<svg xmlns="http://www.w3.org/2000/svg" version="1.1" xmlns:xlink="http://www.w3.org/1999/xlink" preserveAspectRatio="none" x="0px" y="0px" width="1000px" height="1000px" viewBox="0 0 1000 1000">
<defs>
<linearGradient id="Gradient_1" gradientUnits="userSpaceOnUse" x1="50.1875" y1="56.9375" x2="52.1125" y2="118.86250000000001" spreadMethod="pad">
<stop  offset="0.39215686274509803%" stop-color="#FF9900"/>

<stop  offset="49.411764705882355%" stop-color="#FFD100"/>

<stop  offset="100%" stop-color="#FFFFFF"/>
</linearGradient>

<linearGradient id="Gradient_2" gradientUnits="userSpaceOnUse" x1="50.7125" y1="44" x2="51.2875" y2="167.8" spreadMethod="pad">
<stop  offset="0.39215686274509803%" stop-color="#FF3300"/>

<stop  offset="49.411764705882355%" stop-color="#FFD100"/>

<stop  offset="100%" stop-color="#FFFFFF"/>
</linearGradient>

<g id="Flame_tail_0_Layer0_0_FILL">
<path fill="#FFFFFF" stroke="none" d="
M 46.85 89.35
Q 44.18125 93.6408203125 39.15 98.5 33.878125 103.63125 33.65 109.55 31.1 107.5 29.95 105.55 28.9 103.8 28.25 100.95 25.4 104.95 21.5 110.15 19.682421875 113.7470703125 19.8 117.1 19.9013671875 120.0341796875 19.7 121.95 19.7083984375 122.288671875 19.65 122.55 19.727734375 122.55 19.85 122.55 21.5703125 122.55 23.55 122.6 30.8396484375 122.91796875 41.75 124.25 44.2712890625 123.9236328125 48 123.25 51.9 122.5 55.55 121.8 55.65 121.8 61.3 123.45 67.4 125.1 69.45 125.1 73.7 125.1 79.35 123.05 80.08828125 120.0611328125 81.7 117.6 83.3685546875 115.1970703125 81.95 109.3 80.56953125 103.4408203125 73.95 101.5
L 70.4 109
Q 44.402734375 112.3236328125 46.85 89.35 Z"/>

<path fill="url(#Gradient_1)" stroke="none" d="
M 84 72.45
Q 84.4 75.6 84.4 76.1 84.4 83.6 79.55 89.1 75.2 93.95 70.65 93.95 61.55 93.95 55.25 77.2 50.35 64.05 50.35 53.95 50.35 41.6 51.95 35.35 54.2 26.6 60.6 22.1 60 20.45 56.9 17.95 53.5 15.4 52.55 14.55 50.15 21.25 44.7 28.25 41.75 32 36.85 37.7 41.25 39.9 43.95 50.8 46.05 59.4 46.05 66.95 46.0560546875 74.8015625 43.4 84.45 40.7818359375 94.1435546875 30.7 97.8 20.62734375 101.4626953125 20.9 95.25 21.2111328125 89.1287109375 23.55 87.75 14.9958984375 92.477734375 12.55 98.45 10.0900390625 104.451953125 9.55 111.15 9.0029296875 117.9013671875 8.6 122.15 11.440625 121.8 16.85 121.8 18.1974609375 121.8 19.7 121.95 19.9013671875 120.0341796875 19.8 117.1 19.682421875 113.7470703125 21.5 110.15 25.4 104.95 28.25 100.95 28.9 103.8 29.95 105.55 31.1 107.5 33.65 109.55 33.878125 103.63125 39.15 98.5 44.18125 93.6408203125 46.85 89.35 44.402734375 112.3236328125 70.4 109
L 73.95 101.5
Q 80.56953125 103.4408203125 81.95 109.3 83.3685546875 115.1970703125 81.7 117.6 80.08828125 120.0611328125 79.35 123.05 82.1830078125 121.8 87.9 121.8 89.2978515625 121.8 90.8 121.65 91.898046875 116.761328125 93.1 114.45 93.75 113.15 94.45 109.35 95.2 105.4 95.2 102.55 95.2 92.45 91.8 82.85 88.49609375 73.62890625 83.5 68.65 83.65 69.6 84 72.45 Z"/>

<path fill="url(#Gradient_2)" stroke="none" d="
M 84.4 76.1
Q 84.4 75.6 84 72.45 83.65 69.6 83.5 68.65 88.49609375 73.62890625 91.8 82.85 95.2 92.45 95.2 102.55 95.2 105.4 94.45 109.35 93.75 113.15 93.1 114.45 91.898046875 116.761328125 90.8 121.65 93.57421875 121.4416015625 96.75 120.8 97.05 120.75 98 119.85 99.05 118.9 99.2 118.7 101.1943359375 117.001171875 101.35 100.6 101.5 84.2 93.8 73 90.55 68.3 83.5 59.45 79.1 53.9 76.35 50.6 76.75 51.65 77.8 57.4 78.95 63.55 79 65.95 79.15 73.85 77.05 77.4 75.3 80.5 71.6 80.5 67.2 80.5 62.7 72.95 58.85 66.25 54.7 53.15 50.5 40.05 56.45 28.85 62.4 17.65 70.65 28.25 68.95 21.8 58.2 10.25 52.85 4.5 47.8 0 51.5 5.4 41.6 19.75 35.8 27.6 33.1 31.3 28.4 37.9 27 41.55 34.9 42.15 37.9 45.6 39.55 47.45 40.8 60.85 41.95 73 41.65 79.05 41.1779296875 89.096875 35.6 92.5 30.0216796875 95.94375 28.5 91.7 27.025 87.4603515625 36.3 81 -2.8998046875 84.3275390625 -0.55 96.05 1.7888671875 107.829296875 2.15 120.95 2.45 121.1 8.35 120.8 8.35 122.2 8.6 122.15 9.0029296875 117.9013671875 9.55 111.15 10.0900390625 104.451953125 12.55 98.45 14.9958984375 92.477734375 23.55 87.75 21.2111328125 89.1287109375 20.9 95.25 20.62734375 101.4626953125 30.7 97.8 40.7818359375 94.1435546875 43.4 84.45 46.0560546875 74.8015625 46.05 66.95 46.05 59.4 43.95 50.8 41.25 39.9 36.85 37.7 41.75 32 44.7 28.25 50.15 21.25 52.55 14.55 53.5 15.4 56.9 17.95 60 20.45 60.6 22.1 54.2 26.6 51.95 35.35 50.35 41.6 50.35 53.95 50.35 64.05 55.25 77.2 61.55 93.95 70.65 93.95 75.2 93.95 79.55 89.1 84.4 83.6 84.4 76.1 Z"/>
</g>
</defs>

<g transform="matrix( 0.9992523193359375, 0, 0, 0.830047607421875, 452.4,396.4) ">
<g transform="matrix( 1, 0, 0, 1, 0,0) ">
<use xlink:href="#Flame_tail_0_Layer0_0_FILL"/>
</g>
</g>
</svg>
