
<svg xmlns="http://www.w3.org/2000/svg" version="1.1" xmlns:xlink="http://www.w3.org/1999/xlink" preserveAspectRatio="none" x="0px" y="0px" width="1000px" height="1000px" viewBox="0 0 1000 1000">
<defs>
<g id="Symbol_30_0_Layer0_0_FILL">
<path fill="#FFFFFF" fill-opacity="0.4980392156862745" stroke="none" d="
M 84.2 93.1
Q 87.4 84.1 88.5 79.75 90.85 70.2 90.85 56.85 90.85 35.35 79.8 19 67 0 45.35 0 23.05 0 10.95 17 0 32.4 0 57.35 0 73.6 4.05 87.3 5.55 92.3 8.3 99.5 9.6267578125 99.75625 10.8 100.65 12.0302734375 101.5453125 15.85 98.7 19.659765625 95.9015625 20.2 96.55 21 97.6 22.7 100.35 26.55 105.85 33.5 105.85 39.25 105.85 45.15 100.85 48.85 97.75 49.3 97.4 51.5 95.85 53.35 95.85 56.95 95.85 60.8 98.85 64.7 101.85 68.85 101.85 73.7 101.85 79.95 96.25 82.55 93.9 84.2 93.1 Z"/>
</g>

<g id="Symbol_31_0_Layer0_0_FILL">
<path fill="#000000" stroke="none" d="
M 14.25 10.3
Q 14.25 6.35 12.8 3.5 11.3 0.6 8.3 0.1 5.25 -0.4 2.75 1.9 0.25 4.2 0.05 8.3 -0.2 12.35 1.25 15.2 2.75 18.05 6.25 18.55 9.7 19 12 16.55 14.25 14.05 14.25 10.3
M 11.3 5.1
Q 12.35 7.2 11.85 9.9 11.45 12.65 9.7 14.45 7.95 16.25 5.95 16 3.95 15.8 2.8 13.7 1.75 11.55 2.2 8.85 2.7 6.1 4.45 4.3 6.15 2.55 8.15 2.75 10.15 2.95 11.3 5.1
M 22.05 5
Q 21.15 7.1 21.1 10 21.1 12.85 22.55 14.65 24.05 16.45 26.2 16.15 28.4 15.75 29.4 13.7 30.3 11.6 30.15 8.6 30.05 5.55 28.45 3.85 26.85 2.15 24.95 2.55 23 2.9 22.05 5
M 22.65 9.75
Q 22.35 7.75 23 6.15 23.7 4.65 25 4.5 26.3 4.3 27.4 5.6 28.5 6.9 28.8 8.95 29.1 11 28.4 12.55 27.65 14.1 26.45 14.25 25.15 14.4 24.05 13.15 22.9 11.8 22.65 9.75 Z"/>

<path fill="#CC33FF" stroke="none" d="
M 11.85 9.9
Q 12.35 7.2 11.3 5.1 10.15 2.95 8.15 2.75 6.15 2.55 4.45 4.3 2.7 6.1 2.2 8.85 1.75 11.55 2.8 13.7 3.95 15.8 5.95 16 7.95 16.25 9.7 14.45 11.45 12.65 11.85 9.9
M 23 6.15
Q 22.35 7.75 22.65 9.75 22.9 11.8 24.05 13.15 25.15 14.4 26.45 14.25 27.65 14.1 28.4 12.55 29.1 11 28.8 8.95 28.5 6.9 27.4 5.6 26.3 4.3 25 4.5 23.7 4.65 23 6.15 Z"/>
</g>
</defs>

<g transform="matrix( 1, 0, 0, 1, 457.75,373.85) ">
<g transform="matrix( 1, 0, 0, 1, 47.85,37.5) ">
<g transform="matrix( 1.0932769775390625, 0, 0, 1.0332794189453125, -53.1,-40.55) ">
<g transform="matrix( 1, 0, 0, 1, 0,0) ">
<use xlink:href="#Symbol_30_0_Layer0_0_FILL"/>
</g>
</g>

<g transform="matrix( 1.016357421875, 0, 0, 0.8545379638671875, -48.4,-32.35) ">
<g transform="matrix( 1, 0, 0, 1, 0,0) ">
<use xlink:href="#Symbol_30_0_Layer0_0_FILL"/>
</g>
</g>

<g transform="matrix( 0.9042205810546875, 0, 0, 1.2478790283203125, -4.8,-17.25) ">
<g transform="matrix( 1, 0, 0, 1, 0,0) ">
<use xlink:href="#Symbol_31_0_Layer0_0_FILL"/>
</g>
</g>
</g>
</g>
</svg>
