
<svg xmlns="http://www.w3.org/2000/svg" version="1.1" xmlns:xlink="http://www.w3.org/1999/xlink" preserveAspectRatio="none" x="0px" y="0px" width="1000px" height="1000px" viewBox="0 0 1000 1000">
<defs>
<g id="Symbol_30_2_Layer0_0_FILL">
<path fill="#FFFFFF" fill-opacity="0.4980392156862745" stroke="none" d="
M 84.65 91.05
Q 87.85 82.5 89 78.4 91.35 69.3 91.35 56.65 91.35 36.25 80.2 20.75 67.25 2.7 45.4 2.7 22.9 2.7 10.65 18.85 -0.4 33.45 -0.4 57.15 -0.4 72.55 3.7 85.55 5.2 90.3 8 97.15 9.35 97.35 10.55 98.2 11.75 99.05 15.6 96.4 19.45 93.7 20 94.35 20.8 95.3 22.5 97.95 26.4 103.15 33.45 103.15 39.25 103.15 45.2 98.4 48.95 95.45 49.4 95.15 51.6 93.65 53.5 93.65 57.1 93.65 61 96.5 64.95 99.35 69.15 99.35 74.05 99.35 80.35 94.05 82.95 91.8 84.65 91.05 Z"/>
</g>
</defs>

<g transform="matrix( 1, 0, 0, 1, 457.75,373.85) ">
<g transform="matrix( 1, 0, 0, 1, 47.85,37.5) ">
<g transform="matrix( 0.4883575439453125, 0, 0, 1.26416015625, -24.55,-73.05) ">
<g transform="matrix( 1.0098114013671875, 0, 0, 0.9741363525390625, -0.4,1.4) ">
<use xlink:href="#Symbol_30_2_Layer0_0_FILL"/>
</g>
</g>
</g>
</g>
</svg>
