
<svg xmlns="http://www.w3.org/2000/svg" version="1.1" xmlns:xlink="http://www.w3.org/1999/xlink" preserveAspectRatio="none" x="0px" y="0px" width="1000px" height="1000px" viewBox="0 0 1000 1000">
<defs>
<g id="Symbol_30_3_Layer0_0_FILL">
<path fill="#FFFFFF" fill-opacity="0.4980392156862745" stroke="none" d="
M 83.65 92.15
Q 86.7 83.35 87.8 79.15 90.15 69.8 90.15 56.8 90.15 35.8 79.3 19.9 66.7 1.35 45.5 1.35 23.6 1.35 11.7 17.95 1 33 1 57.3 1 73.1 4.95 86.5 6.4 91.4 9.15 98.45 10.45 98.65 11.6 99.5 12.75 100.4 16.5 97.65 20.25 94.9 20.8 95.55 21.55 96.55 23.2 99.25 27 104.6 33.9 104.6 39.5 104.6 45.3 99.7 48.95 96.7 49.4 96.4 51.5 94.85 53.35 94.85 56.85 94.85 60.65 97.75 64.5 100.7 68.6 100.7 73.35 100.7 79.45 95.25 81.95 92.95 83.65 92.15 Z"/>
</g>
</defs>

<g transform="matrix( 1, 0, 0, 1, 457.75,373.85) ">
<g transform="matrix( 1, 0, 0, 1, 47.85,37.5) ">
<g transform="matrix( 0.2319183349609375, 0, 0, 2.008209228515625, -12.9,-140.95) ">
<g transform="matrix( 1, 0, 0, 1, 0,0) ">
<use xlink:href="#Symbol_30_3_Layer0_0_FILL"/>
</g>
</g>
</g>
</g>
</svg>
