
<svg xmlns="http://www.w3.org/2000/svg" version="1.1" xmlns:xlink="http://www.w3.org/1999/xlink" preserveAspectRatio="none" x="0px" y="0px" width="300px" height="300px" viewBox="0 0 300 300">
<defs>
<g id="E_ball_3_Layer0_0_FILL">
<path fill="#7F00FF" stroke="none" d="
M 149.2 76.2
Q 149.2 45.95 127.85 24.55 106.45 3.2 76.2 3.2 45.95 3.2 24.55 24.55 3.2 45.95 3.2 76.2 3.2 106.45 24.55 127.85 45.95 149.2 76.2 149.2 106.45 149.2 127.85 127.85 149.2 106.45 149.2 76.2
M 120.85 31.55
Q 139.35 50.05 139.35 76.2 139.35 102.4 120.85 120.85 102.35 139.35 76.2 139.35 50 139.35 31.55 120.85 13.05 102.4 13.05 76.2 13.05 50.05 31.55 31.55 50 13.05 76.2 13.05 102.35 13.05 120.85 31.55 Z"/>

<path fill="#972EFC" stroke="none" d="
M 139.35 76.2
Q 139.35 50.05 120.85 31.55 102.35 13.05 76.2 13.05 50 13.05 31.55 31.55 13.05 50.05 13.05 76.2 13.05 102.4 31.55 120.85 50 139.35 76.2 139.35 102.35 139.35 120.85 120.85 139.35 102.4 139.35 76.2
M 115.55 37
Q 131.85 53.35 131.85 76.45 131.85 99.6 115.55 115.85 99.2 132.2 76.1 132.2 52.95 132.2 36.7 115.85 20.35 99.6 20.35 76.45 20.35 53.35 36.7 37 52.95 20.7 76.1 20.7 99.2 20.7 115.55 37 Z"/>

<path fill="#BA4AFF" stroke="none" d="
M 131.85 76.45
Q 131.85 53.35 115.55 37 99.2 20.7 76.1 20.7 52.95 20.7 36.7 37 20.35 53.35 20.35 76.45 20.35 99.6 36.7 115.85 52.95 132.2 76.1 132.2 99.2 132.2 115.55 115.85 131.85 99.6 131.85 76.45
M 112.05 40.7
Q 126.8 55.45 126.8 76.35 126.8 97.25 112.05 112.05 97.25 126.8 76.4 126.8 55.45 126.8 40.7 112.05 25.95 97.25 25.95 76.35 25.95 55.45 40.7 40.7 55.45 25.95 76.4 25.95 97.25 25.95 112.05 40.7 Z"/>

<path fill="#DE66FF" stroke="none" d="
M 126.8 76.35
Q 126.8 55.45 112.05 40.7 97.25 25.95 76.4 25.95 55.45 25.95 40.7 40.7 25.95 55.45 25.95 76.35 25.95 97.25 40.7 112.05 55.45 126.8 76.4 126.8 97.25 126.8 112.05 112.05 126.8 97.25 126.8 76.35
M 104.4 48.25
Q 116.05 59.85 116.05 76.35 116.05 92.75 104.4 104.35 92.75 116 76.35 116 59.85 116 48.35 104.35 36.65 92.75 36.65 76.35 36.65 59.85 48.35 48.25 59.85 36.65 76.35 36.65 92.75 36.65 104.4 48.25 Z"/>

<path fill="#FFFFFF" stroke="none" d="
M 116.05 76.35
Q 116.05 59.85 104.4 48.25 92.75 36.65 76.35 36.65 59.85 36.65 48.35 48.25 36.65 59.85 36.65 76.35 36.65 92.75 48.35 104.35 59.85 116 76.35 116 92.75 116 104.4 104.35 116.05 92.75 116.05 76.35 Z"/>
</g>
</defs>

<g transform="matrix( 1.76611328125, 0, 0, 1.76611328125, 16.1,16.1) ">
<g transform="matrix( 1, 0, 0, 1, 0,0) ">
<use xlink:href="#E_ball_3_Layer0_0_FILL"/>
</g>
</g>
</svg>
