
<svg xmlns="http://www.w3.org/2000/svg" version="1.1" xmlns:xlink="http://www.w3.org/1999/xlink" preserveAspectRatio="none" x="0px" y="0px" width="1000px" height="1000px" viewBox="0 0 1000 1000">
<defs>
<g id="stumper_hat_2_Layer0_0_FILL">
<path fill="#000000" stroke="none" d="
M 91.85 -1.2
Q 55.3666015625 -7.2349609375 41.6 -5.5 27.840234375 -3.7642578125 11.15 5.25 4.668359375 4.476953125 1 7.6 -2.65 10.45 -3 11.05 -3.35 11.7 -2.85 21.55 -2.35 31.5 -2.55 32.05 -1.75 34.15 5.5 38.1 8.9158203125 39.9716796875 11.85 41.2 15.186328125 42.59140625 17.9 43.15 19.1505859375 43.4048828125 20.45 43.65 30.1486328125 45.474609375 44.25 47.1 56.9865234375 48.5373046875 75.75 47.1 80.482421875 46.783984375 85.6 46.25 85.9 45.05 86.65 41.9 87.2 39.55 87.35 39.65 87.55 40.75 88.55 43.25 89.75 46.5 90.5 46.9 95.2486328125 47.759765625 104.9 45.5 107.0255859375 45.0025390625 109.4 44.35 122.3 40.7 126.15 38.4 129.8 36.15 131.65 32.5 132.9 30.1 129.5 14.5 128.3734375 4.8798828125 91.85 -1.2
M 121.2 19.75
Q 115.7111328125 21.6373046875 110.05 23 105.2875 24.1966796875 100.4 25 92.6087890625 26.3287109375 84.5 26.75 83.197265625 26.8251953125 81.9 26.9 54.301171875 28.24140625 27.05 24.5 25.6638671875 24.3080078125 24.25 24.1 17.1880859375 23.078125 12.65 20.55 7.2466796875 17.5583984375 5.5 12.4 18.65 9.05 32.25 7.85 54.05 5.9 76.25 7.05 102.7 8.5 121.2 19.75
M 89.55 29.2
Q 89.75 29.15 89.95 29.15 90.1 29.1 90.3 29.1 95.420703125 28.5376953125 100.4 27.8 104.8951171875 27.1470703125 109.25 26.35 116.025390625 25.1396484375 122.5 23.6 123.7 28.45 117.4 34.35 113.9220703125 37.6314453125 106.1 40.1 100.0373046875 42.051171875 91.3 43.5 90.15 36.5 89.45 32.95 88.25 37.4 83.55 42.15 82.9123046875 42.43984375 77.15 42.5 72.97265625 42.5630859375 66.1 42.5 48.7 42.3 39.55 41.45 30.518359375 40.5869140625 22.3 38.35 16.8974609375 36.919140625 11.85 34.85 6.365234375 32.6595703125 1.3 29.75 2.05 28.2 2.6 22.55 3.15 16.9 2.7 15.1 2.8 15.15 2.95 15.25 7.6544921875 18.2421875 12.55 20.65 19.321875 23.991796875 26.45 26.25 43.047265625 31.5080078125 61.8 31.05 69.3318359375 30.864453125 80.95 29.9 85.01015625 29.6126953125 89.55 29.2 Z"/>

<path fill="#986533" stroke="none" d="
M 11.85 34.2
L 11.85 34.85
Q 16.8974609375 36.919140625 22.3 38.35
L 26.45 26.25
Q 19.321875 23.991796875 12.55 20.65
L 8.1 25.4 11.85 34.2
M 100.4 36.55
L 100.4 27.8
Q 95.420703125 28.5376953125 90.3 29.1 90.1 29.1 89.95 29.15 89.75 29.15 89.55 29.2 85.01015625 29.6126953125 80.95 29.9
L 77.15 42.5
Q 82.9123046875 42.43984375 83.55 42.15 88.25 37.4 89.45 32.95 90.15 36.5 91.3 43.5 100.0373046875 42.051171875 106.1 40.1
L 107.65 33.45 100.4 36.55 Z"/>

<path fill="#5F3B18" stroke="none" d="
M 2.7 15.1
Q 3.15 16.9 2.6 22.55 2.05 28.2 1.3 29.75 6.365234375 32.6595703125 11.85 34.85
L 11.85 34.2 8.1 25.4 12.55 20.65
Q 7.6544921875 18.2421875 2.95 15.25 2.8 15.15 2.7 15.1 Z"/>

<path fill="#835324" stroke="none" d="
M 66.1 42.5
Q 72.97265625 42.5630859375 77.15 42.5
L 80.95 29.9
Q 69.3318359375 30.864453125 61.8 31.05 43.047265625 31.5080078125 26.45 26.25
L 22.3 38.35
Q 30.518359375 40.5869140625 39.55 41.45 48.7 42.3 66.1 42.5
M 100.4 27.8
L 100.4 36.55 107.65 33.45 106.1 40.1
Q 113.9220703125 37.6314453125 117.4 34.35 123.7 28.45 122.5 23.6 116.025390625 25.1396484375 109.25 26.35 104.8951171875 27.1470703125 100.4 27.8 Z"/>

<path fill="#D9BCA3" stroke="none" d="
M 110.05 23
Q 115.7111328125 21.6373046875 121.2 19.75 102.7 8.5 76.25 7.05 54.05 5.9 32.25 7.85 18.65 9.05 5.5 12.4 7.2466796875 17.5583984375 12.65 20.55 17.1880859375 23.078125 24.25 24.1 25.6638671875 24.3080078125 27.05 24.5 54.301171875 28.24140625 81.9 26.9 83.197265625 26.8251953125 84.5 26.75 92.6087890625 26.3287109375 100.4 25 105.2875 24.1966796875 110.05 23
M 100.4 21.35
Q 93.656640625 22.06015625 83.3 22.25 78.559375 22.3234375 73.05 22.3 50.8 22.2 47.25 20.9 45.3 20.15 43.15 17.35 41.15 14.65 41.75 14.35 42.25 14.1 51.35 12.1 54.15 11.45 65.95 13.4 77.45 15.35 77.45 15.95 77.2 16.95 71.5 18.1 65.5 19.3 62.6 18.55 61.45 18.25 59.9 16.9 58.4 15.65 58.55 15.4 58.6 15.25 60.95 15.35 63.35 15.45 63.6 15.75 63.2 15.85 62.85 16 62.1 16.25 62.3 16.3 63.7 16.6 66.7 16.9 70.65 17.25 72 16.75 72.4 16.6 69.25 15.85 66.1 15.15 63.55 14.8 54.4 13.55 44.45 15.55 51.95 19.15 62.45 20.35 65.2 20.65 80.65 20 82.4166015625 19.9181640625 84 19.85 97.231640625 19.271875 100.35 19.45 99.7 19.1 89.1 15.8 78.55 12.55 77.5 11.85 79.9 11.05 92.9 15.2 97.41953125 16.6412109375 100.4 17.75 105.795703125 19.73046875 106.15 20.6 103.7087890625 21.0529296875 100.4 21.35
M 21.7 13.8
Q 22.3 12.7 23 12.55 38.3 11.15 38.55 11.2 37.8 11.7 32.95 13 31.7599609375 13.3150390625 30.85 13.55 27.83828125 14.35 27.8 14.35 29.0017578125 14.80703125 30.25 15.3 32.6873046875 16.25859375 35.3 17.35 40.95 19.8 42.25 20.95 38.9 21.1 30.95 19 30.0021484375 18.74453125 29.15 18.5 22.45234375 16.55703125 21.3 15.05 21.15 14.85 21.7 13.8 Z"/>

<path fill="#A38464" stroke="none" d="
M 23 12.55
Q 22.3 12.7 21.7 13.8 21.15 14.85 21.3 15.05 22.45234375 16.55703125 29.15 18.5 30.0021484375 18.74453125 30.95 19 38.9 21.1 42.25 20.95 40.95 19.8 35.3 17.35 32.6873046875 16.25859375 30.25 15.3 29.0017578125 14.80703125 27.8 14.35 27.83828125 14.35 30.85 13.55 31.7599609375 13.3150390625 32.95 13 37.8 11.7 38.55 11.2 38.3 11.15 23 12.55
M 83.3 22.25
Q 93.656640625 22.06015625 100.4 21.35 103.7087890625 21.0529296875 106.15 20.6 105.795703125 19.73046875 100.4 17.75 97.41953125 16.6412109375 92.9 15.2 79.9 11.05 77.5 11.85 78.55 12.55 89.1 15.8 99.7 19.1 100.35 19.45 97.231640625 19.271875 84 19.85 82.4166015625 19.9181640625 80.65 20 65.2 20.65 62.45 20.35 51.95 19.15 44.45 15.55 54.4 13.55 63.55 14.8 66.1 15.15 69.25 15.85 72.4 16.6 72 16.75 70.65 17.25 66.7 16.9 63.7 16.6 62.3 16.3 62.1 16.25 62.85 16 63.2 15.85 63.6 15.75 63.35 15.45 60.95 15.35 58.6 15.25 58.55 15.4 58.4 15.65 59.9 16.9 61.45 18.25 62.6 18.55 65.5 19.3 71.5 18.1 77.2 16.95 77.45 15.95 77.45 15.35 65.95 13.4 54.15 11.45 51.35 12.1 42.25 14.1 41.75 14.35 41.15 14.65 43.15 17.35 45.3 20.15 47.25 20.9 50.8 22.2 73.05 22.3 78.559375 22.3234375 83.3 22.25 Z"/>
</g>
</defs>

<g transform="matrix( 1, 0, 0, 1, 134.2,227.4) ">
<g transform="matrix( 0.9993743896484375, -0.011810302734375, 0.011810302734375, 0.9993743896484375, 302.2,226.75) ">
<g transform="matrix( 1, 0, 0, 1, 0,0) ">
<use xlink:href="#stumper_hat_2_Layer0_0_FILL"/>
</g>
</g>
</g>
</svg>
