
<svg xmlns="http://www.w3.org/2000/svg" version="1.1" xmlns:xlink="http://www.w3.org/1999/xlink" preserveAspectRatio="none" x="0px" y="0px" width="1000px" height="1000px" viewBox="0 0 1000 1000">
<defs>
<linearGradient id="Gradient_1" gradientUnits="userSpaceOnUse" x1="56.9625" y1="24.4875" x2="57.5375" y2="56.91250000000001" spreadMethod="pad">
<stop  offset="0%" stop-color="#484848"/>

<stop  offset="100%" stop-color="#0F0F0F"/>
</linearGradient>

<g id="stumper_legs_0_Layer0_0_FILL">
<path fill="#000000" stroke="none" d="
M 58.25 40.55
Q 73.59765625 36.2076171875 75.35 26.15 60.4 2.85 35.25 1.15 12.710546875 2.3103515625 1.05 33.15 -10.565234375 64.0017578125 14.35 73.55 42.9421875 44.93203125 58.25 40.55
M 54.9 33.75
Q 52.5 34.4 44.7 37.3 37.4 40.05 37.3 40.15 36.1 40.7 35 41.25
L 12 65.6
Q 8.55 60.150390625 8.6 48.8 8.650390625 37.5 11.75 33.9 11.5 32.9 12.9 28.45 14.3 23.9 16.8 20.95 17.5 18.85 26.4 12.55 35.3 6.15 43.6 8.25 43.9 8.2 47.1 9.45 51.2 11.05 55.2 13.15 67.7 19.65 73.8 28 75.65 28.45 54.9 33.75 Z"/>

<path fill="#66CC66" stroke="none" d="
M 12.9 28.45
Q 11.5 32.9 11.75 33.9 11.8 33.75 23.4 37.45 29.2 39.35 35 41.25 36.1 40.7 37.3 40.15 38 35.4 36.2 30.9 30.1 15.15 16.8 20.95 14.3 23.9 12.9 28.45
M 43.6 8.25
Q 55.75 15.8 54.9 33.75 75.65 28.45 73.8 28 67.7 19.65 55.2 13.15 51.2 11.05 47.1 9.45 43.9 8.2 43.6 8.25 Z"/>

<path fill="#3D8E3D" stroke="none" d="
M 11.75 33.9
Q 8.650390625 37.5 8.6 48.8 8.55 60.150390625 12 65.6
L 35 41.25
Q 29.2 39.35 23.4 37.45 11.8 33.75 11.75 33.9
M 54.9 33.75
Q 55.75 15.8 43.6 8.25 35.3 6.15 26.4 12.55 17.5 18.85 16.8 20.95 30.1 15.15 36.2 30.9 38 35.4 37.3 40.15 37.4 40.05 44.7 37.3 52.5 34.4 54.9 33.75 Z"/>
</g>

<g id="stumper_leaves_0_Layer0_0_FILL">
<path fill="#000000" stroke="none" d="
M 116.4 46.1
Q 116.803515625 30.87109375 110 17.5 103.9083984375 5.4732421875 92 -5.05 75.5357421875 3.3994140625 68 20.75 63.5 31.2 59.3 42.45 47.6458984375 22.055078125 33.75 25.5 31 27.55 24.8 38.1 19.6 46.95 18.45 49.7 10.63984375 68.41328125 14.85 87.5 19.0654296875 106.637890625 25 112.15 15.5638671875 106.3912109375 0.1 105.45 -2.4453125 109.823828125 6.35 137.55 15.1583984375 165.3279296875 37.95 172.5 53.2 177.25 71.2 178.75 83.65 169.15 87.6 166.05 105.05 151.6 109.6 143.65 118.8 127.55 131.9 84.2 137.22265625 57.6869140625 131.3 54.5 130.35 54.05 124.1 56.85 117.05 60 114.95 63.55 115.3 61.8 115.85 55 116.35 48.65 116.4 46.1
M 91.55 9.5
Q 91.6015625 9.5484375 91.65 9.6 98.9203125 16.5107421875 102.25 30.95 102.38671875 31.463671875 102.5 31.95 103.05 34.5 104.15 42.4 105.0505859375 50.234375 105.05 58.3
L 105.05 58.3
Q 105.0728515625 63.1189453125 104.75 68 104.40625 74.22265625 103.5 80.55
L 100.65 96.75
Q 101.7 94.3 106.5 86.5 110.65 79.75 111.5 78.55 111.6 78.35 116.35 73.5 121.35 68.4 122.85 67.25
L 127.25 64.35
Q 125.32734375 74.330859375 123.45 82.75 123.0826171875 84.53203125 122.7 86.25 121.5 91.25 118.55 102.75 116.482421875 110.21953125 114.5 115.5 112.15 121.8 105.05 134.6 101.5 141 98.35 146.2 96.6556640625 148.7662109375 94.8 151.3 90.25 157.55 72.85 177.1
L 44.6 163.65
Q 44.3 163.5 35.45 157.3 31.5177734375 153.9740234375 27.9 149.75 27.45 149.2 24.35 145 21.15 140.6 20.25 139.25 20.0537109375 138.9 19.8 138.5
L 19.85 138.5
Q 12.1287109375 124.162109375 9.35 116.85 10.8 117.2 16.25 119.3 22.15 121.6 24.6 122.85
L 48.85 134.9
Q 43.2298828125 128.178125 39 120.9 33.3890625 111.1166015625 30.3 100.3 29.6103515625 97.9259765625 29.05 95.45 27.2642578125 87.71796875 26.75 79.45 26.2990234375 72.130078125 27.1 65.6 27.7388671875 60.5107421875 29.15 55.9 31.9359375 46.8568359375 37.7 39.75 38.9609375 38.094921875 40.45 38.2 41.8076171875 38.333984375 43.35 39.9 48.75 45.3 58.15 59.3 58.35 59.55 61.65 66.9 65.35 75 66.35 78.1
L 70.8 92.05
Q 72.9240234375 98.676953125 74.9 105 75 104.85 74.35 95.9 73.7 86.95 73.4 84.6 71.4951171875 68.0232421875 67.65 58.75
L 67.65 58.7
Q 67.55 58.4 72.7 42.25 77.9 25.9 78.7 24 83.191796875 14.651953125 90.5 8.55 91.038671875 9.0005859375 91.55 9.5 Z"/>

<path fill="#3D8E3D" stroke="none" d="
M 29.05 95.45
Q 44.5451171875 80.0044921875 27.1 65.6 26.2990234375 72.130078125 26.75 79.45 27.2642578125 87.71796875 29.05 95.45
M 100 41.5
Q 97 41.15 96.25 41.55 71.45 55.4 77.5 82.7 75.1138671875 83.2837890625 73.4 84.6 73.7 86.95 74.35 95.9 75 104.85 74.9 105 72.9240234375 98.676953125 70.8 92.05
L 66.35 78.1
Q 65.35 75 61.65 66.9 58.35 59.55 58.15 59.3 57.4458984375 59.68359375 56.6 60.25 35.4 74.3 53.85 91.5 51.6 93.3 50.55 95.8 41.7 117.1 63.3 118.6 61.15 120.55 60.5 123.25 59.65 126.7 62.75 133.1 65.25 138.25 66.65 139.45 62.6123046875 144.185546875 61.7 151.55 50.55 149.55 41.8 155.15 41.7 149.95 39.2 145.55 36.55 140.95 27.95 139.3 20.4546875 138.6017578125 19.85 138.5
L 19.8 138.5
Q 20.0537109375 138.9 20.25 139.25 21.15 140.6 24.35 145 27.45 149.2 27.9 149.75 31.5177734375 153.9740234375 35.45 157.3 44.3 163.5 44.6 163.65
L 72.85 177.1
Q 90.25 157.55 94.8 151.3 96.6556640625 148.7662109375 98.35 146.2 101.5 141 105.05 134.6 112.15 121.8 114.5 115.5 116.482421875 110.21953125 118.55 102.75 117.85 103.2 116.15 103.3 113.95 103.4 113.25 102.3 105.75 90.75 119.25 83.85 121.2328125 85.04453125 122.7 86.25 123.0826171875 84.53203125 123.45 82.75 125.32734375 74.330859375 127.25 64.35
L 122.85 67.25
Q 124.499609375 75.6755859375 111.5 78.55 110.65 79.75 106.5 86.5 101.7 94.3 100.65 96.75
L 103.5 80.55
Q 104.40625 74.22265625 104.75 68 105.0728515625 63.1189453125 105.05 58.3
L 105.05 58.3
Q 105.0505859375 50.234375 104.15 42.4 103 41.8 100 41.5
M 91.65 9.6
Q 90.018359375 10.88515625 89.05 13.05 84 24.3 94.9 29.1 99.6341796875 31.20703125 102.5 31.95 102.38671875 31.463671875 102.25 30.95 98.9203125 16.5107421875 91.65 9.6 Z"/>

<path fill="#66CC66" stroke="none" d="
M 40.45 38.2
Q 38.9609375 38.094921875 37.7 39.75 31.9359375 46.8568359375 29.15 55.9 27.7388671875 60.5107421875 27.1 65.6 44.5451171875 80.0044921875 29.05 95.45 29.6103515625 97.9259765625 30.3 100.3 33.3890625 111.1166015625 39 120.9 43.2298828125 128.178125 48.85 134.9
L 24.6 122.85
Q 22.15 121.6 16.25 119.3 10.8 117.2 9.35 116.85 12.1287109375 124.162109375 19.85 138.5 20.4546875 138.6017578125 27.95 139.3 36.55 140.95 39.2 145.55 41.7 149.95 41.8 155.15 50.55 149.55 61.7 151.55 62.6123046875 144.185546875 66.65 139.45 65.25 138.25 62.75 133.1 59.65 126.7 60.5 123.25 61.15 120.55 63.3 118.6 41.7 117.1 50.55 95.8 51.6 93.3 53.85 91.5 35.4 74.3 56.6 60.25 57.4458984375 59.68359375 58.15 59.3 48.75 45.3 43.35 39.9 41.8076171875 38.333984375 40.45 38.2
M 122.7 86.25
Q 121.2328125 85.04453125 119.25 83.85 105.75 90.75 113.25 102.3 113.95 103.4 116.15 103.3 117.85 103.2 118.55 102.75 121.5 91.25 122.7 86.25
M 116.35 73.5
Q 111.6 78.35 111.5 78.55 124.499609375 75.6755859375 122.85 67.25 121.35 68.4 116.35 73.5
M 89.05 13.05
Q 90.018359375 10.88515625 91.65 9.6 91.6015625 9.5484375 91.55 9.5 91.038671875 9.0005859375 90.5 8.55 83.191796875 14.651953125 78.7 24 77.9 25.9 72.7 42.25 67.55 58.4 67.65 58.7
L 67.65 58.75
Q 71.4951171875 68.0232421875 73.4 84.6 75.1138671875 83.2837890625 77.5 82.7 71.45 55.4 96.25 41.55 97 41.15 100 41.5 103 41.8 104.15 42.4 103.05 34.5 102.5 31.95 99.6341796875 31.20703125 94.9 29.1 84 24.3 89.05 13.05 Z"/>
</g>

<g id="stumper_body_0_Layer1_0_FILL">
<path fill="#000000" stroke="none" d="
M 111.2 44.75
Q 115.7923828125 29.5599609375 108.85 18.05 101.95234375 6.546484375 81.55 2.95 73 1.4 46.05 0.7 32.5 0.35 20.45 0.3 14.544921875 0.1986328125 12.1 7.4 9.7150390625 14.65390625 10.05 29.2 10.434765625 43.7458984375 9.8 51.4 9.2048828125 59.051171875 19.6 60.9 31.25 63 44.55 64.05 82.5974609375 67.0533203125 94.6 63.5 106.607421875 59.93984375 111.2 44.75
M 95.7 11.25
Q 96.85 30.1 99.95 48.6 100.45 51.65 98.35 52.7 60.4 70.65 20.3 55.25 18.55 54.55 18.25 53.35 13.35 32.55 14.55 10.05 14.95 9.85 17.9 9 20.8 8.2 21.55 8.1 59.5 7.4 95.7 11.25 Z"/>

<path fill="url(#Gradient_1)" stroke="none" d="
M 99.95 48.6
Q 96.85 30.1 95.7 11.25 59.5 7.4 21.55 8.1 20.8 8.2 17.9 9 14.95 9.85 14.55 10.05 13.35 32.55 18.25 53.35 18.55 54.55 20.3 55.25 60.4 70.65 98.35 52.7 100.45 51.65 99.95 48.6 Z"/>
</g>

<g id="stumper_body_0_Layer0_0_FILL">
<path fill="#66FF00" stroke="none" d="
M 73.95 42.15
Q 74.65 46.5 78.4 44.55 85.45 40.85 77.5 37.45 73.25 38 73.95 42.15
M 91.9 39.1
Q 91.25 40.95 91.35 43.15 91.45 46.05 94.05 45.05 100.4 42.5 96.95 36.2 94.45 37.7 91.9 39.1 Z"/>

<path fill="#000000" stroke="none" d="
M 98.65 30.5
Q 92.3 33.95 89.35 39.85 89.8 40.05 91.9 39.1 94.45 37.7 96.95 36.2 98.25 35.4 107.15 29.35 116.15 23.3 119.35 21.8 105.15 26.95 98.65 30.5
M 86.15 36.7
Q 86.1 36.5 85.1 36.45 84.05 36.5 84 36.5 78.85 32.4 76.65 23.7 75.7 19.8 71.4 14.55 67.5 9.8 66.75 9.95 66.35 10.05 63.5 15.05 60.7 20 60.4 21.05 61.45 20.9 64.35 18 65.9 16.55 67.7 14.7 69.9 21.15 73.05 27.05 77.35 35 84.1 39.05 86.15 36.85 86.15 36.7 Z"/>
</g>

<g id="stumper_hat_0_Layer0_0_FILL">
<path fill="#000000" stroke="none" d="
M 96.85 -2.05
Q 65.3216796875 -8.9708984375 54.25 -7.7 43.183984375 -6.4330078125 45.55 0.1 4.668359375 4.476953125 1 7.6 -2.65 10.45 -3 11.05 -3.35 11.7 -2.85 21.55 -2.35 31.5 -2.55 32.05 -1.75 34.15 5.5 38.1 12.5443359375 41.9599609375 17.55 43.05 17.7212890625 43.11328125 17.9 43.15 23.84296875 44.36171875 31.7 45.5 37.460546875 46.3173828125 44.25 47.1 58.567578125 48.7158203125 80.5 46.75 83.0005859375 46.5212890625 85.6 46.25 85.9 45.05 86.65 41.9 87.2 39.55 87.35 39.65 87.55 40.75 88.55 43.25 89.75 46.5 90.5 46.9 95.777734375 47.85546875 107.1 44.95 108.2205078125 44.67421875 109.4 44.35 122.3 40.7 126.15 38.4 129.8 36.15 131.65 32.5 132.9 30.1 129.5 14.5 128.3693359375 4.8771484375 96.85 -2.05
M 121.2 19.75
Q 112.1810546875 22.851171875 102.65 24.6 95.587109375 25.930078125 88.2 26.5 86.3712890625 26.652734375 84.5 26.75 57.9275390625 28.2822265625 31.7 25.1 27.971484375 24.64765625 24.25 24.1 16.8142578125 23.0240234375 12.2 20.3 7.169921875 17.33125 5.5 12.4 18.65 9.05 32.25 7.85 54.05 5.9 76.25 7.05 102.7 8.5 121.2 19.75
M 89.95 29.15
Q 90.1 29.1 90.3 29.1 96.258984375 28.445703125 102 27.55 112.578515625 25.9591796875 122.5 23.6 123.7 28.45 117.4 34.35 114.141796875 37.42421875 107.1 39.8 100.7423828125 41.9341796875 91.3 43.5 90.15 36.5 89.45 32.95 88.25 37.4 83.55 42.15 83.2306640625 42.2951171875 81.6 42.35 77.7033203125 42.6064453125 66.1 42.5 48.7 42.3 39.55 41.45 35.544140625 41.0671875 31.7 40.4 22.19140625 38.81875 13.65 35.6 7.2005859375 33.1392578125 1.3 29.75 2.05 28.2 2.6 22.55 3.15 16.9 2.7 15.1 2.8 15.15 2.95 15.25 7.4427734375 18.107421875 12.1 20.45 21.5181640625 25.138671875 31.7 27.75 45.9748046875 31.4365234375 61.8 31.05 71.205859375 30.818359375 87 29.4 88.2595703125 29.3173828125 89.55 29.2 89.75 29.15 89.95 29.15 Z"/>

<path fill="#986533" stroke="none" d="
M 9.2 26.95
L 13.65 35.6
Q 22.19140625 38.81875 31.7 40.4
L 31.7 27.75
Q 21.5181640625 25.138671875 12.1 20.45
L 9.2 26.95
M 90.3 29.1
Q 90.1 29.1 89.95 29.15 89.75 29.15 89.55 29.2 88.2595703125 29.3173828125 87 29.4
L 81.6 42.35
Q 83.2306640625 42.2951171875 83.55 42.15 88.25 37.4 89.45 32.95 90.15 36.5 91.3 43.5 100.7423828125 41.9341796875 107.1 39.8
L 107.1 33.75 100.65 33.75 102 27.55
Q 96.258984375 28.445703125 90.3 29.1 Z"/>

<path fill="#5F3B18" stroke="none" d="
M 2.7 15.1
Q 3.15 16.9 2.6 22.55 2.05 28.2 1.3 29.75 7.2005859375 33.1392578125 13.65 35.6
L 9.2 26.95 12.1 20.45
Q 7.4427734375 18.107421875 2.95 15.25 2.8 15.15 2.7 15.1 Z"/>

<path fill="#835324" stroke="none" d="
M 107.1 39.8
Q 114.141796875 37.42421875 117.4 34.35 123.7 28.45 122.5 23.6 112.578515625 25.9591796875 102 27.55
L 100.65 33.75 107.1 33.75 107.1 39.8
M 81.6 42.35
L 87 29.4
Q 71.205859375 30.818359375 61.8 31.05 45.9748046875 31.4365234375 31.7 27.75
L 31.7 40.4
Q 35.544140625 41.0671875 39.55 41.45 48.7 42.3 66.1 42.5 77.7033203125 42.6064453125 81.6 42.35 Z"/>

<path fill="#D9BCA3" stroke="none" d="
M 102.65 24.6
Q 112.1810546875 22.851171875 121.2 19.75 102.7 8.5 76.25 7.05 54.05 5.9 32.25 7.85 18.65 9.05 5.5 12.4 7.169921875 17.33125 12.2 20.3 16.8142578125 23.0240234375 24.25 24.1 27.971484375 24.64765625 31.7 25.1 57.9275390625 28.2822265625 84.5 26.75 86.3712890625 26.652734375 88.2 26.5 95.587109375 25.930078125 102.65 24.6
M 106.15 20.6
Q 104.917578125 20.8287109375 103.45 21 93.4767578125 22.3873046875 73.05 22.3 50.8 22.2 47.25 20.9 45.3 20.15 43.15 17.35 41.15 14.65 41.75 14.35 42.25 14.1 51.35 12.1 54.15 11.45 65.95 13.4 77.45 15.35 77.45 15.95 77.2 16.95 71.5 18.1 65.5 19.3 62.6 18.55 61.45 18.25 59.9 16.9 58.4 15.65 58.55 15.4 58.6 15.25 60.95 15.35 63.35 15.45 63.6 15.75 63.2 15.85 62.85 16 62.1 16.25 62.3 16.3 63.7 16.6 66.7 16.9 70.65 17.25 72 16.75 72.4 16.6 69.25 15.85 66.1 15.15 63.55 14.8 54.4 13.55 44.45 15.55 51.95 19.15 62.45 20.35 65.2 20.65 80.65 20 96.85 19.25 100.35 19.45 99.7 19.1 89.1 15.8 78.55 12.55 77.5 11.85 79.9 11.05 92.9 15.2 100.658203125 17.6740234375 103.85 19.15 105.9359375 20.074609375 106.15 20.6
M 21.7 13.8
Q 22.3 12.7 23 12.55 38.3 11.15 38.55 11.2 37.8 11.7 32.95 13 27.85 14.35 27.8 14.35 31.35 15.7 35.3 17.35 40.95 19.8 42.25 20.95 39.06015625 21.0927734375 31.7 19.2 31.3302734375 19.100390625 30.95 19 22.6 16.75 21.3 15.05 21.15 14.85 21.7 13.8 Z"/>

<path fill="#A38464" stroke="none" d="
M 23 12.55
Q 22.3 12.7 21.7 13.8 21.15 14.85 21.3 15.05 22.6 16.75 30.95 19 31.3302734375 19.100390625 31.7 19.2 39.06015625 21.0927734375 42.25 20.95 40.95 19.8 35.3 17.35 31.35 15.7 27.8 14.35 27.85 14.35 32.95 13 37.8 11.7 38.55 11.2 38.3 11.15 23 12.55
M 103.45 21
Q 104.917578125 20.8287109375 106.15 20.6 105.9359375 20.074609375 103.85 19.15 100.658203125 17.6740234375 92.9 15.2 79.9 11.05 77.5 11.85 78.55 12.55 89.1 15.8 99.7 19.1 100.35 19.45 96.85 19.25 80.65 20 65.2 20.65 62.45 20.35 51.95 19.15 44.45 15.55 54.4 13.55 63.55 14.8 66.1 15.15 69.25 15.85 72.4 16.6 72 16.75 70.65 17.25 66.7 16.9 63.7 16.6 62.3 16.3 62.1 16.25 62.85 16 63.2 15.85 63.6 15.75 63.35 15.45 60.95 15.35 58.6 15.25 58.55 15.4 58.4 15.65 59.9 16.9 61.45 18.25 62.6 18.55 65.5 19.3 71.5 18.1 77.2 16.95 77.45 15.95 77.45 15.35 65.95 13.4 54.15 11.45 51.35 12.1 42.25 14.1 41.75 14.35 41.15 14.65 43.15 17.35 45.3 20.15 47.25 20.9 50.8 22.2 73.05 22.3 93.4767578125 22.3873046875 103.45 21 Z"/>
</g>

<g id="stumper_stump_0_Layer1_0_FILL">
<path fill="#000000" stroke="none" d="
M 160.1 13.05
Q 156.75 14.15 145.5 19.95 137.45 24.1 133.85 26.05 133.6375 26.1892578125 133.6 26.2 128.1 28.05 111.2 30.45 94.3 32.8 88.5 32.55 86.9 35.05 86.75 35.3 86.25 34.45 84.1 32.4 81.9 30.3 80.9 29.7 78.95 28.6 73.85 27.95 69.85 27.45 68.7 27.55 68.4 27.65 66.35 30 64.25 32.4 63.95 33 63.85 33.15 63.8 33.25 62.45 29 60.35 24.85 60 24.1 33 3.55 33.15 19.15 30.75 17.3 29.2748046875 16.1158203125 28.35 15.15 28.57109375 19.0994140625 27.65 28.95 17.7 23.65 15.4 19.8 13.65 19.7 6.65 27 -0.3 34.35 0.1 35.85 5.8 39.95 16.6 51.4 27.2 62.7 24.8 60.2 26.05 72.15 25.3 81.2 24.575 89.466796875 35.85 98.4 37.4 99.6 45.7 103.45 56.25 108.35 63.1 109.8 65.2 110.3 73.7 111.55 82.55 112.85 86.4 113.2 89.7 113.5 114.6 109.8 139.8 106.1 142.3 104.7 151.6 99.6 158.45 92.2 163.8 86.4 164.2 83.8 158.43828125 80.87890625 156.45 73.4 154.464453125 65.9677734375 158.15 55.8 155.3720703125 39.991015625 155.25 38.2 156.2 36.5 158.35 27.1 160.75 16.45 160.1 13.05
M 134.4 28.4
Q 137.481640625 27.372265625 138.85 26.35 138.75 27.45 138.9 30.1 139.1 33.3 139.55 33.4 142.35 29.45 144.9 26.5 149.95 20.65 152.65 20.15 152.65 20.6 151.15 27.7 149.4 35.9 148.15 39.9 146.6 44.85 150.5 64.7 152.5 74.65 154.9 84.5 152.5 86.85 143.75 91.75 135.7 96.2 133.25 97 125.9486328125 99.4890625 117.05 100.95 115.6 101.25 110.25 101.85 105.55 102.45 104.35 102.5 102.6306640625 102.6517578125 100.9 102.75 86.30546875 103.5982421875 72.9 101.5 67.564453125 100.7005859375 62.4 99.4 58.6853515625 98.479296875 55.05 97.3 43.6052734375 93.5833984375 38.5 89.35 32.3361328125 84.318359375 35.4 78.55 35.75 71.5 34.15 48.75 32.5 25.95 32.2 23.5 32.05 22.5 34 23.85 36.15 25.35 36.2 25.3 36.75 13.15 36.7 11.9 36.95 12 45.35 16.2 45.3751953125 16.214453125 45.4 16.2 49.05 18.35 56.8 27.3 60.7 31.8 64.05 36.15 64.5 36.35 67.05 34.25 69.65 32.15 69.65 32.1 72.3 32.4 76.4 33.15 80.6 33.9 80.9 34.25 81.8 35.2 84.1 37.35 86.85 39.9 87.25 39.95 87.7 39.65 90.9 36 91.719140625 35.9517578125 111.4 33.25 112.45 33.15 121.45 31.4 131.6 29.35 134.4 28.4
M 7.6 31.55
Q 7.65 31.5 7.7 31.4 8.15 30.65 10.7 27.2 11.110546875 27.271484375 11.7 27.45 14.4544921875 28.340625 21.15 31.75 29.1 35.8 30.2 35.9 30.25 39.35 30.55 45.1 30.9 52.4 31.25 54.4 30.3328125 53.1005859375 24.9 47.8 23.2470703125 46.202734375 21.15 44.2 14.55 37.9 7.6 31.55 Z"/>

<path fill="#5F3B18" stroke="none" d="
M 30.2 35.9
Q 29.1 35.8 21.15 31.75 14.4544921875 28.340625 11.7 27.45
L 22.55 40.35 24.9 47.8
Q 30.3328125 53.1005859375 31.25 54.4 30.9 52.4 30.55 45.1 30.25 39.35 30.2 35.9
M 45.4 37.95
L 41.25 41.25 39.75 35.1 38.3 45.05 41.3 65.35 38.25 70.8 41.05 80.6 38.5 89.35
Q 43.6052734375 93.5833984375 55.05 97.3 58.6853515625 98.479296875 62.4 99.4
L 61.65 87.85 55.6 81.8 56.45 60.7 60.3 51.2 63.45 60.3 67.2 53.65 69.65 32.1
Q 69.65 32.15 67.05 34.25 64.5 36.35 64.05 36.15 60.7 31.8 56.8 27.3 49.05 18.35 45.4 16.2
L 45.4 37.95 Z"/>

<path fill="#835324" stroke="none" d="
M 7.7 31.4
Q 7.65 31.5 7.6 31.55 14.55 37.9 21.15 44.2 23.2470703125 46.202734375 24.9 47.8
L 22.55 40.35 11.7 27.45
Q 11.110546875 27.271484375 10.7 27.2 8.15 30.65 7.7 31.4
M 45.4 16.2
Q 45.3751953125 16.214453125 45.35 16.2 36.95 12 36.7 11.9 36.75 13.15 36.2 25.3 36.15 25.35 34 23.85 32.05 22.5 32.2 23.5 32.5 25.95 34.15 48.75 35.75 71.5 35.4 78.55 32.3361328125 84.318359375 38.5 89.35
L 41.05 80.6 38.25 70.8 41.3 65.35 38.3 45.05 39.75 35.1 41.25 41.25 45.4 37.95 45.4 16.2
M 87.25 39.95
Q 86.85 39.9 84.1 37.35 81.8 35.2 80.9 34.25
L 80.9 58.4 70.45 72.75 71.55 87.35 75.3 90.45 72.9 101.5
Q 86.30546875 103.5982421875 100.9 102.75
L 100.7 93.85 95.85 89.35 94.4 73.25 96.75 61.55 100.8 75.95 107.3 70.35 107.3 97.05 104.35 102.5
Q 105.55 102.45 110.25 101.85 115.6 101.25 117.05 100.95
L 118.95 83.6 123 88.9 128.1 72.05 123.4 51.35 120.15 66.15 110.65 52.3 111.4 33.25
Q 91.719140625 35.9517578125 90.9 36 87.7 39.65 87.25 39.95
M 138.85 26.35
Q 137.481640625 27.372265625 134.4 28.4
L 138.3 45.7 135.1 59.25 142.95 77.55 140.95 91.25 136.35 82.6 133.25 97
Q 135.7 96.2 143.75 91.75 152.5 86.85 154.9 84.5 152.5 74.65 150.5 64.7 146.6 44.85 148.15 39.9 149.4 35.9 151.15 27.7 152.65 20.6 152.65 20.15 149.95 20.65 144.9 26.5 142.35 29.45 139.55 33.4 139.1 33.3 138.9 30.1 138.75 27.45 138.85 26.35 Z"/>

<path fill="#986533" stroke="none" d="
M 80.9 34.25
Q 80.6 33.9 76.4 33.15 72.3 32.4 69.65 32.1
L 67.2 53.65 63.45 60.3 60.3 51.2 56.45 60.7 55.6 81.8 61.65 87.85 62.4 99.4
Q 67.564453125 100.7005859375 72.9 101.5
L 75.3 90.45 71.55 87.35 70.45 72.75 80.9 58.4 80.9 34.25
M 95.85 89.35
L 100.7 93.85 100.9 102.75
Q 102.6306640625 102.6517578125 104.35 102.5
L 107.3 97.05 107.3 70.35 100.8 75.95 96.75 61.55 94.4 73.25 95.85 89.35
M 138.3 45.7
L 134.4 28.4
Q 131.6 29.35 121.45 31.4 112.45 33.15 111.4 33.25
L 110.65 52.3 120.15 66.15 123.4 51.35 128.1 72.05 123 88.9 118.95 83.6 117.05 100.95
Q 125.9486328125 99.4890625 133.25 97
L 136.35 82.6 140.95 91.25 142.95 77.55 135.1 59.25 138.3 45.7 Z"/>
</g>

<g id="stumper_lil_lieg_0_Layer0_0_FILL">
<path fill="#000000" stroke="none" d="
M 18.25 0
Q 13.15 0.8 5.3 8.1 -2.6 15.4 1.25 27.4 5.05 39.4 13.15 45.55 23.05 35.3 31.25 30.2 39.45 25.05 38.4 14.2 37.3 3.3 18.25 0
M 26 19.85
Q 22.45 22.75 21.8 23.3 17.03359375 27.9666015625 12.8 35.9 11.75 32.6 10.75 29.05 8.65 21.9 8.5 18.25 8.95 15.5 9.85 12.45 11.65 6.4 13.9 5.25 15.8291015625 4.2572265625 18.4 3.85 20.65 3.95 25.15 6.2 30.05 8.65 31 10.7 32.3046875 13.563671875 29.85 16.55 29.35 17.15 26 19.85 Z"/>

<path fill="#55D455" stroke="none" d="
M 13.7 18.8
Q 8.55 18.45 8.5 18.25 8.65 21.9 10.75 29.05 11.75 32.6 12.8 35.9 17.03359375 27.9666015625 21.8 23.3 19.4 19.85 13.7 18.8
M 29.85 16.55
Q 32.3046875 13.563671875 31 10.7 30.05 8.65 25.15 6.2 20.65 3.95 18.4 3.85 15.8291015625 4.2572265625 13.9 5.25 28.46875 8.069921875 29.85 16.55 Z"/>

<path fill="#3D8E3D" stroke="none" d="
M 21.8 23.3
Q 22.45 22.75 26 19.85 29.35 17.15 29.85 16.55 28.46875 8.069921875 13.9 5.25 11.65 6.4 9.85 12.45 8.95 15.5 8.5 18.25 8.55 18.45 13.7 18.8 19.4 19.85 21.8 23.3 Z"/>
</g>

<g id="stumper_legs_1_Layer0_0_FILL">
<path fill="#000000" stroke="none" d="
M 41.2 5.2
Q 35.151171875 16.117578125 33.85 30.35 32.5380859375 44.6294921875 52.4 62.8 72.5033203125 39.55078125 79.55 30.05 86.5966796875 20.600390625 86.35 8.75 86.153515625 -3.05 65.6 -8.75 47.303515625 -5.716015625 41.2 5.2
M 42.3 13.35
Q 44.02734375 5.629296875 45.9 5.1 51.6677734375 -3.5986328125 65 -4.9 73.55 -4.6 79.25 1.4 90.528125 13.3240234375 79.5 23.95 69.5587890625 33.6763671875 64.25 39.2
L 63.1 40.45
Q 63 40.55 57.25 46.4 56.8 46.85 54.8 48.7 52.4 50.9 52.35 50.8
L 47.5 43.6
Q 47.448828125 43.514453125 47.4 43.4
L 43.4 34.6
Q 42.1916015625 30.7869140625 41.75 26.8 41.766796875 26.72109375 41.15 23.9 40.576171875 21.1234375 42.3 13.35 Z"/>

<path fill="#66CC66" stroke="none" d="
M 57.25 46.4
Q 56.612890625 45.1259765625 52.6 43.65 48.1 42 47.5 43.6
L 52.35 50.8
Q 52.4 50.9 54.8 48.7 56.8 46.85 57.25 46.4
M 50.7 21.55
Q 47.25 19.75 46.3 20.75 43.3703125 23.7912109375 41.75 26.8 42.1916015625 30.7869140625 43.4 34.6 46.28671875 32.503125 50.7 30.6 57.25 31.3 61.05 36.8 62.0619140625 38.23984375 63.1 40.45
L 64.25 39.2
Q 65.056640625 33.5595703125 57.6 26.6 54.15 23.35 50.7 21.55
M 80.05 23.35
Q 79.7953125 23.669921875 79.5 23.95 90.528125 13.3240234375 79.25 1.4 73.55 -4.6 65 -4.9 51.6677734375 -3.5986328125 45.9 5.1 48.969140625 3.5990234375 52.55 2.3 72.3662109375 5.1712890625 80.05 23.35 Z"/>

<path fill="#3D8E3D" stroke="none" d="
M 50.7 30.6
Q 46.28671875 32.503125 43.4 34.6
L 47.4 43.4
Q 47.448828125 43.514453125 47.5 43.6 48.1 42 52.6 43.65 56.612890625 45.1259765625 57.25 46.4 63 40.55 63.1 40.45 62.0619140625 38.23984375 61.05 36.8 57.25 31.3 50.7 30.6
M 79.5 23.95
Q 79.7953125 23.669921875 80.05 23.35 72.3662109375 5.1712890625 52.55 2.3 48.969140625 3.5990234375 45.9 5.1 44.02734375 5.629296875 42.3 13.35 40.576171875 21.1234375 41.15 23.9 41.766796875 26.72109375 41.75 26.8 43.3703125 23.7912109375 46.3 20.75 47.25 19.75 50.7 21.55 54.15 23.35 57.6 26.6 65.056640625 33.5595703125 64.25 39.2 69.5587890625 33.6763671875 79.5 23.95 Z"/>
</g>
</defs>

<g transform="matrix( 1, 0, 0, 1, 134.2,227.4) ">
<g transform="matrix( 1, 0, 0, 1, 234.6,10.15) ">
<g transform="matrix( -0.9004974365234375, 0.0932769775390625, -0.2459716796875, 0.8742523193359375, 257.2,173.35) ">
<g transform="matrix( 1, 0, 0, 1, 0,0) ">
<use xlink:href="#stumper_legs_0_Layer0_0_FILL"/>
</g>
</g>

<g transform="matrix( 1, 0, 0, 1, 6.2,-12.1) ">
<g transform="matrix( 1, 0, 0, 1, 0,0) ">
<use xlink:href="#stumper_leaves_0_Layer0_0_FILL"/>
</g>
</g>

<g transform="matrix( 1, 0, 0, 1, 78.25,116) ">
<g transform="matrix( 1, 0, 0, 1, 0,0) ">
<use xlink:href="#stumper_body_0_Layer1_0_FILL"/>
</g>

<g transform="matrix( 1, 0, 0, 1, 0,0) ">
<use xlink:href="#stumper_body_0_Layer0_0_FILL"/>
</g>
</g>

<g transform="matrix( 0.98797607421875, -0.150909423828125, 0.150909423828125, 0.98797607421875, 74.85,57.6) ">
<g transform="matrix( 1, 0, 0, 1, 0,0) ">
<use xlink:href="#stumper_hat_0_Layer0_0_FILL"/>
</g>
</g>

<g transform="matrix( 1, 0, 0, 1, 42.5,135) ">
<g transform="matrix( 1, 0, 0, 1, 0,0) ">
<use xlink:href="#stumper_stump_0_Layer1_0_FILL"/>
</g>
</g>

<g transform="matrix( 0.9660491943359375, 0.2583465576171875, 0, 1.0777587890625, 12.15,171.2) ">
<g transform="matrix( 1, 0, 0, 1, 0,0) ">
<use xlink:href="#stumper_legs_0_Layer0_0_FILL"/>
</g>
</g>

<g transform="matrix( 1.1260223388671875, 0, 0, 0.8699951171875, 85.6,222.15) ">
<g transform="matrix( 1, 0, 0, 1, 0,0) ">
<use xlink:href="#stumper_lil_lieg_0_Layer0_0_FILL"/>
</g>
</g>

<g transform="matrix( -1.04443359375, 0.1062164306640625, -0.04296875, 0.8905029296875, 234.35,204.05) ">
<g transform="matrix( 1, 0, 0, 1, 0,0) ">
<use xlink:href="#stumper_legs_1_Layer0_0_FILL"/>
</g>
</g>
</g>
</g>
</svg>
