
<svg xmlns="http://www.w3.org/2000/svg" version="1.1" xmlns:xlink="http://www.w3.org/1999/xlink" preserveAspectRatio="none" x="0px" y="0px" width="1000px" height="1000px" viewBox="0 0 1000 1000">
<defs>
<g id="stumper_stump_0_Layer1_0_FILL">
<path fill="#000000" stroke="none" d="
M 160.1 13.05
Q 156.75 14.15 145.5 19.95 137.45 24.1 133.85 26.05 133.6375 26.1892578125 133.6 26.2 128.1 28.05 111.2 30.45 94.3 32.8 88.5 32.55 86.9 35.05 86.75 35.3 86.25 34.45 84.1 32.4 81.9 30.3 80.9 29.7 78.95 28.6 73.85 27.95 69.85 27.45 68.7 27.55 68.4 27.65 66.35 30 64.25 32.4 63.95 33 63.85 33.15 63.8 33.25 62.45 29 60.35 24.85 60 24.1 33 3.55 33.15 19.15 30.75 17.3 29.2748046875 16.1158203125 28.35 15.15 28.57109375 19.0994140625 27.65 28.95 17.7 23.65 15.4 19.8 13.65 19.7 6.65 27 -0.3 34.35 0.1 35.85 5.8 39.95 16.6 51.4 27.2 62.7 24.8 60.2 26.05 72.15 25.3 81.2 24.575 89.466796875 35.85 98.4 37.4 99.6 45.7 103.45 56.25 108.35 63.1 109.8 65.2 110.3 73.7 111.55 82.55 112.85 86.4 113.2 89.7 113.5 114.6 109.8 139.8 106.1 142.3 104.7 151.6 99.6 158.45 92.2 163.8 86.4 164.2 83.8 158.43828125 80.87890625 156.45 73.4 154.464453125 65.9677734375 158.15 55.8 155.3720703125 39.991015625 155.25 38.2 156.2 36.5 158.35 27.1 160.75 16.45 160.1 13.05
M 134.4 28.4
Q 137.481640625 27.372265625 138.85 26.35 138.75 27.45 138.9 30.1 139.1 33.3 139.55 33.4 142.35 29.45 144.9 26.5 149.95 20.65 152.65 20.15 152.65 20.6 151.15 27.7 149.4 35.9 148.15 39.9 146.6 44.85 150.5 64.7 152.5 74.65 154.9 84.5 152.5 86.85 143.75 91.75 135.7 96.2 133.25 97 125.9486328125 99.4890625 117.05 100.95 115.6 101.25 110.25 101.85 105.55 102.45 104.35 102.5 102.6306640625 102.6517578125 100.9 102.75 86.30546875 103.5982421875 72.9 101.5 67.564453125 100.7005859375 62.4 99.4 58.6853515625 98.479296875 55.05 97.3 43.6052734375 93.5833984375 38.5 89.35 32.3361328125 84.318359375 35.4 78.55 35.75 71.5 34.15 48.75 32.5 25.95 32.2 23.5 32.05 22.5 34 23.85 36.15 25.35 36.2 25.3 36.75 13.15 36.7 11.9 36.95 12 45.35 16.2 45.3751953125 16.214453125 45.4 16.2 49.05 18.35 56.8 27.3 60.7 31.8 64.05 36.15 64.5 36.35 67.05 34.25 69.65 32.15 69.65 32.1 72.3 32.4 76.4 33.15 80.6 33.9 80.9 34.25 81.8 35.2 84.1 37.35 86.85 39.9 87.25 39.95 87.7 39.65 90.9 36 91.719140625 35.9517578125 111.4 33.25 112.45 33.15 121.45 31.4 131.6 29.35 134.4 28.4
M 7.6 31.55
Q 7.65 31.5 7.7 31.4 8.15 30.65 10.7 27.2 11.110546875 27.271484375 11.7 27.45 14.4544921875 28.340625 21.15 31.75 29.1 35.8 30.2 35.9 30.25 39.35 30.55 45.1 30.9 52.4 31.25 54.4 30.3328125 53.1005859375 24.9 47.8 23.2470703125 46.202734375 21.15 44.2 14.55 37.9 7.6 31.55 Z"/>

<path fill="#5F3B18" stroke="none" d="
M 30.2 35.9
Q 29.1 35.8 21.15 31.75 14.4544921875 28.340625 11.7 27.45
L 22.55 40.35 24.9 47.8
Q 30.3328125 53.1005859375 31.25 54.4 30.9 52.4 30.55 45.1 30.25 39.35 30.2 35.9
M 45.4 37.95
L 41.25 41.25 39.75 35.1 38.3 45.05 41.3 65.35 38.25 70.8 41.05 80.6 38.5 89.35
Q 43.6052734375 93.5833984375 55.05 97.3 58.6853515625 98.479296875 62.4 99.4
L 61.65 87.85 55.6 81.8 56.45 60.7 60.3 51.2 63.45 60.3 67.2 53.65 69.65 32.1
Q 69.65 32.15 67.05 34.25 64.5 36.35 64.05 36.15 60.7 31.8 56.8 27.3 49.05 18.35 45.4 16.2
L 45.4 37.95 Z"/>

<path fill="#835324" stroke="none" d="
M 7.7 31.4
Q 7.65 31.5 7.6 31.55 14.55 37.9 21.15 44.2 23.2470703125 46.202734375 24.9 47.8
L 22.55 40.35 11.7 27.45
Q 11.110546875 27.271484375 10.7 27.2 8.15 30.65 7.7 31.4
M 45.4 16.2
Q 45.3751953125 16.214453125 45.35 16.2 36.95 12 36.7 11.9 36.75 13.15 36.2 25.3 36.15 25.35 34 23.85 32.05 22.5 32.2 23.5 32.5 25.95 34.15 48.75 35.75 71.5 35.4 78.55 32.3361328125 84.318359375 38.5 89.35
L 41.05 80.6 38.25 70.8 41.3 65.35 38.3 45.05 39.75 35.1 41.25 41.25 45.4 37.95 45.4 16.2
M 87.25 39.95
Q 86.85 39.9 84.1 37.35 81.8 35.2 80.9 34.25
L 80.9 58.4 70.45 72.75 71.55 87.35 75.3 90.45 72.9 101.5
Q 86.30546875 103.5982421875 100.9 102.75
L 100.7 93.85 95.85 89.35 94.4 73.25 96.75 61.55 100.8 75.95 107.3 70.35 107.3 97.05 104.35 102.5
Q 105.55 102.45 110.25 101.85 115.6 101.25 117.05 100.95
L 118.95 83.6 123 88.9 128.1 72.05 123.4 51.35 120.15 66.15 110.65 52.3 111.4 33.25
Q 91.719140625 35.9517578125 90.9 36 87.7 39.65 87.25 39.95
M 138.85 26.35
Q 137.481640625 27.372265625 134.4 28.4
L 138.3 45.7 135.1 59.25 142.95 77.55 140.95 91.25 136.35 82.6 133.25 97
Q 135.7 96.2 143.75 91.75 152.5 86.85 154.9 84.5 152.5 74.65 150.5 64.7 146.6 44.85 148.15 39.9 149.4 35.9 151.15 27.7 152.65 20.6 152.65 20.15 149.95 20.65 144.9 26.5 142.35 29.45 139.55 33.4 139.1 33.3 138.9 30.1 138.75 27.45 138.85 26.35 Z"/>

<path fill="#986533" stroke="none" d="
M 80.9 34.25
Q 80.6 33.9 76.4 33.15 72.3 32.4 69.65 32.1
L 67.2 53.65 63.45 60.3 60.3 51.2 56.45 60.7 55.6 81.8 61.65 87.85 62.4 99.4
Q 67.564453125 100.7005859375 72.9 101.5
L 75.3 90.45 71.55 87.35 70.45 72.75 80.9 58.4 80.9 34.25
M 95.85 89.35
L 100.7 93.85 100.9 102.75
Q 102.6306640625 102.6517578125 104.35 102.5
L 107.3 97.05 107.3 70.35 100.8 75.95 96.75 61.55 94.4 73.25 95.85 89.35
M 138.3 45.7
L 134.4 28.4
Q 131.6 29.35 121.45 31.4 112.45 33.15 111.4 33.25
L 110.65 52.3 120.15 66.15 123.4 51.35 128.1 72.05 123 88.9 118.95 83.6 117.05 100.95
Q 125.9486328125 99.4890625 133.25 97
L 136.35 82.6 140.95 91.25 142.95 77.55 135.1 59.25 138.3 45.7 Z"/>
</g>
</defs>

<g transform="matrix( 1, 0, 0, 1, 134.2,227.4) ">
<g transform="matrix( 1, 0, 0, 1, 272.6,163.35) ">
<g transform="matrix( 1, 0, 0, 1, 0,0) ">
<use xlink:href="#stumper_stump_0_Layer1_0_FILL"/>
</g>
</g>
</g>
</svg>
