
<svg xmlns="http://www.w3.org/2000/svg" version="1.1" xmlns:xlink="http://www.w3.org/1999/xlink" preserveAspectRatio="none" x="0px" y="0px" width="100px" height="100px" viewBox="0 0 100 100">
<defs>
<g id="Layer0_0_FILL">
<path fill="#000000" fill-opacity="0.4" stroke="none" d="
M 84.6 84.5
Q 99 70.15 99 49.8 99 29.45 84.6 15.05 70.25 0.7 49.9 0.7 29.55 0.7 15.15 15.05 0.8 29.45 0.8 49.8 0.8 70.15 15.15 84.5 29.55 98.9 49.9 98.9 70.25 98.9 84.6 84.5
M 50 12.25
Q 65.6 12.25 76.6 23.25 87.6 34.25 87.6 49.85 87.6 65.45 76.6 76.45 65.6 87.45 50 87.45 34.4 87.45 23.4 76.45 12.4 65.45 12.4 49.85 12.4 34.25 23.4 23.25 34.4 12.25 50 12.25 Z"/>

<path fill="#000000" fill-opacity="0.6980392156862745" stroke="none" d="
M 76.6 23.25
Q 65.6 12.25 50 12.25 34.4 12.25 23.4 23.25 12.4 34.25 12.4 49.85 12.4 65.45 23.4 76.45 34.4 87.45 50 87.45 65.6 87.45 76.6 76.45 87.6 65.45 87.6 49.85 87.6 34.25 76.6 23.25 Z"/>
</g>
</defs>

<g transform="matrix( 1, 0, 0, 1, 0,0) ">
<use xlink:href="#Layer0_0_FILL"/>
</g>
</svg>
