
<svg xmlns="http://www.w3.org/2000/svg" version="1.1" xmlns:xlink="http://www.w3.org/1999/xlink" preserveAspectRatio="none" x="0px" y="0px" width="1000px" height="1000px" viewBox="0 0 1000 1000">
<defs>
<linearGradient id="Gradient_1" gradientUnits="userSpaceOnUse" x1="254.47499999999997" y1="43.14999999999998" x2="269.325" y2="268.75" spreadMethod="pad">
<stop  offset="0%" stop-color="#FFFFFF"/>

<stop  offset="53.333333333333336%" stop-color="#9C9C9C"/>

<stop  offset="100%" stop-color="#4D4D4D"/>
</linearGradient>

<g id="Symbol_105_1_Layer0_0_FILL">
<path fill="#000000" stroke="none" d="
M 329.75 79.4
Q 349.5791015625 80.1970703125 336.75 51.55 323.983984375 22.8998046875 300.7 24.95 283.65 29.6 269.8 40.75 235.45 68.2 266.55 99.9 288.95 122.7 291.85 153.2 297.75 215.8 253 263.25
L 242.15 261.05
Q 225.4 273.1 214.75 281.2 194.85 296.3 194.6 301.35 194.5 304.35 198.35 311.95 202.25 319.5 210.55 335.55 219.05 351.5 226.55 347.15 234.05 342.9 255.8 324.8 277.55 306.65 282.75 300.95 281.75 299.65 280.6 293.85 279.5 287.85 310.65 285.2 327.7625 281.80703125 336.95 221.65 339.12265625 209.3826171875 336.9 165.5 334.687890625 121.6076171875 302.1 87.2 309.961328125 78.652734375 329.75 79.4
M 320 36.9
Q 318.2296875 35.1837890625 322.8 39.15 327.4203125 43.1162109375 337.55 69.15 316.634375 66.875 302.45 72.75 288.327734375 78.6783203125 292.8 85.9 297.2689453125 93.117578125 314.8 122.7 332.3669921875 152.2814453125 328.4 205.15 324.43984375 258.01484375 298.75 270.5 273.1134765625 282.9919921875 270.7 286.2
L 270.7 286.25 269.7 294.65
Q 269.4 296.25 252.8 311.85 234.2 329.3 223.85 333.85 223 334.15 222.15 334.5 221.35 333.75 220.55 332.8 219.05 331.05 212.05 319.4
L 205.5 308.2 204.3 301.35
Q 204.35 300.3 221.15 287.1 238.35 273.55 244.5 270.05 246.55 271.1 247.9 271.75 251.35 273.4 251.55 273.15 251.8 272.95 252.1 272.7 286.55 247.35 298.55 205.2 307.55 173.65 298.85 142.05 290.25 110.9 266.95 85.9 264.1 83 264 74.3 263.9 67.05 264.85 64.45 266.65 59.65 277.35 48.9 288.25 37.8 293.85 35.75 300.8 33.05 309.2 31.75 309.5 31.8 320 36.9 Z"/>

<path fill="#999999" stroke="none" d="
M 212.55 301.65
Q 212.05 302.2 209.8 304.35 206.9 307.2 205.5 308.2
L 212.05 319.4
Q 219.05 331.05 220.55 332.8 221.35 333.75 222.15 334.5 223 334.15 223.85 333.85 218.7 318 212.55 301.65 Z"/>

<path fill="#333333" stroke="none" d="
M 260.65 288.35
Q 253.85 283.1 246.35 279.45 245.55 279.05 237.6 283.2 229.15 287.65 225.2 291.15 220.2 295.6 214.5 299.15
L 213.5 300.3
Q 212.5 301.5 212.55 301.65 218.7 318 223.85 333.85 234.2 329.3 252.8 311.85 269.4 296.25 269.7 294.65 265.3 291.9 260.65 288.35
M 258 299.65
Q 254.5 307.85 243.7 312.25 232.85 316.7 227.35 307.45 221.85 298.25 230.1 291.8 238.2 285.3 244.45 283.75 261.55 291.5 258 299.65
M 322.8 39.15
Q 318.2296875 35.1837890625 320 36.9 301.3 41.45 288.35 53.3 275.25 65.1 276.45 71.65 277.55 78.15 287.95 90.3 298.35 102.4 308.3 125.3 318.2 148.25 314.8 193.25 311.35 238.3 262.8 276.65 264.7 278.6 267.75 282.25 270.6904296875 285.8765625 270.7 286.2 273.1134765625 282.9919921875 298.75 270.5 324.43984375 258.01484375 328.4 205.15 332.3669921875 152.2814453125 314.8 122.7 297.2689453125 93.117578125 292.8 85.9 288.327734375 78.6783203125 302.45 72.75 316.634375 66.875 337.55 69.15 327.4203125 43.1162109375 322.8 39.15 Z"/>

<path fill="#FF3300" stroke="none" d="
M 243.7 312.25
Q 254.5 307.85 258 299.65 261.55 291.5 244.45 283.75 238.2 285.3 230.1 291.8 221.85 298.25 227.35 307.45 232.85 316.7 243.7 312.25
M 243.6 290.6
Q 244.15 290.85 247.8 294 251.4 297.1 251.45 297.55 249.35 299.15 245.1 302 239.95 305.4 238.2 305.95
L 232.75 299.6
Q 232.8 299.45 237.45 295.6 242.25 291.6 243.45 290.75 243.55 290.7 243.6 290.6 Z"/>

<path fill="#FF9900" stroke="none" d="
M 247.8 294
Q 244.15 290.85 243.6 290.6 243.55 290.7 243.45 290.75 242.25 291.6 237.45 295.6 232.8 299.45 232.75 299.6
L 238.2 305.95
Q 239.95 305.4 245.1 302 249.35 299.15 251.45 297.55 251.4 297.1 247.8 294 Z"/>

<path fill="#FFFFFF" stroke="none" d="
M 247.9 271.75
Q 246.55 271.1 244.5 270.05 238.35 273.55 221.15 287.1 204.35 300.3 204.3 301.35
L 205.5 308.2
Q 206.9 307.2 209.8 304.35 212.05 302.2 212.55 301.65 212.5 301.5 213.5 300.3
L 214.5 299.15
Q 219 295.1 224.35 290.4 235.2 281.05 241.05 277.3 245.35 274.55 247.9 271.75
M 276.85 86
Q 263.45 68.85 278.65 53.05 286.7 44.65 293.85 35.75 288.25 37.8 277.35 48.9 266.65 59.65 264.85 64.45 263.9 67.05 264 74.3 264.1 83 266.95 85.9 290.25 110.9 298.85 142.05 307.55 173.65 298.55 205.2 286.55 247.35 252.1 272.7 252.4 274.1 252.95 273.9 290.2 259.15 301.95 214.6 320.95 142.65 276.85 86 Z"/>

<path fill="url(#Gradient_1)" stroke="none" d="
M 309.2 31.75
Q 300.8 33.05 293.85 35.75 286.7 44.65 278.65 53.05 263.45 68.85 276.85 86 320.95 142.65 301.95 214.6 290.2 259.15 252.95 273.9 252.4 274.1 252.1 272.7 251.8 272.95 251.55 273.15 251.35 273.4 247.9 271.75 245.35 274.55 241.05 277.3 235.2 281.05 224.35 290.4 219 295.1 214.5 299.15 220.2 295.6 225.2 291.15 229.15 287.65 237.6 283.2 245.55 279.05 246.35 279.45 253.85 283.1 260.65 288.35 265.3 291.9 269.7 294.65
L 270.7 286.25 270.7 286.2
Q 270.6904296875 285.8765625 267.75 282.25 264.7 278.6 262.8 276.65 311.35 238.3 314.8 193.25 318.2 148.25 308.3 125.3 298.35 102.4 287.95 90.3 277.55 78.15 276.45 71.65 275.25 65.1 288.35 53.3 301.3 41.45 320 36.9 309.5 31.8 309.2 31.75 Z"/>
</g>
</defs>

<g transform="matrix( 1, 0, 0, 1, 314.1,173.5) ">
<g transform="matrix( -0.003997802734375, 0.75927734375, -0.75927734375, -0.003997802734375, 318.75,53.2) ">
<g transform="matrix( 1, 0, 0, 1, 0,0) ">
<use xlink:href="#Symbol_105_1_Layer0_0_FILL"/>
</g>
</g>
</g>
</svg>
