
<svg xmlns="http://www.w3.org/2000/svg" version="1.1" xmlns:xlink="http://www.w3.org/1999/xlink" preserveAspectRatio="none" x="0px" y="0px" width="1000px" height="1000px" viewBox="0 0 1000 1000">
<defs>
<radialGradient id="Gradient_1" gradientUnits="userSpaceOnUse" cx="0" cy="0" r="421.6251158093526" fx="0" fy="0" gradientTransform="matrix( 0.9999997253262477, -0.000741179754911242, 0.00038541347255384586, 0.5382150908263476, 47.05,-46.15) " spreadMethod="pad">
<stop  offset="11.372549019607844%" stop-color="#FFFFFF"/>

<stop  offset="25.88235294117647%" stop-color="#FFC400"/>

<stop  offset="72.15686274509804%" stop-color="#FF0000"/>
</radialGradient>

<g id="Symbol_6_12_Layer1_0_FILL">
<path fill="url(#Gradient_1)" stroke="none" d="
M -1.2 -46.25
Q -3.7416015625 -39.458984375 -7.15 -24.4 -10.515625 -9.291796875 -4.6 -4.65 -17.2404296875 2.1978515625 -20.7 -34.15 -24.17890625 1.1533203125 -6.3 23.45 11.62578125 45.794140625 4.05 49.5 9.8427734375 55.025390625 19.8 59.2 31.6 64 45.85 64 52.65 63.95 60.15 62.85 82.9490234375 59.343359375 87.2 55.2 91.5056640625 51.115234375 87.85 49.55 84.238671875 47.976171875 101.4 23.5 118.5634765625 -0.92734375 119.15 -14.05 119.7908203125 -27.1625 117.1 -56.1 116.515234375 -53.6646484375 114.65 -33 112.7962890625 -12.5587890625 75.65 19.6 77.0986328125 14.175390625 80.1 14.5 83.1037109375 14.880859375 87.95 1.8 92.7927734375 -11.287109375 91.5 -29.95 77.4736328125 19.757421875 62.25 29.8 47.029296875 39.889453125 32.4 35.15 17.7638671875 30.4494140625 4.2 -2.45 -6.8189453125 -29.2498046875 -1.2 -46.25 Z"/>
</g>

<g id="Symbol_6_12_Layer0_0_FILL">
<path fill="#FF9900" stroke="none" d="
M -20.3 -87.55
Q -25.1 -87.1 -24.9 -82.15 -24.65 -76.75 -19.85 -79.1 -11.1 -83.45 -20.3 -87.55
M 141.65 -72.65
Q 141.1 -72.45 140.15 -72.05 139 -71.6 138.35 -70.6 138.05 -70.1 137.95 -69.55 137.65 -67.15 140.1 -66.05 141.7 -65.35 143.35 -65.85 144.65 -66.35 145.3 -67.6 145.8 -68.7 145.55 -69.9 145.4 -70.5 145.1 -71.1 144.45 -71.65 143.7 -72.1 143.1 -72.45 142.4 -72.55 142 -72.65 141.65 -72.65
M 68 -56.95
L 68 -56.85
Q 67.25 -56.65 66.5 -56.45 66.1 -56.35 65.75 -56.1 65.4 -55.9 65.1 -55.6 64.8 -55.3 64.6 -54.95 64.15 -54.15 64.15 -53.25 64.15 -52.7 64.15 -52.1 64.15 -51.8 64.15 -51.5 65.35 -49.15 68.05 -48.9 69.25 -48.8 70.15 -49.6 71.35 -50.45 71.75 -51.95 72 -53.1 71.65 -54.2 71.4 -54.8 71.1 -55.4 70.85 -55.7 70.5 -55.95 70.05 -56.25 69.55 -56.45 68.8 -56.75 68 -56.95
M 34.7 -183.05
Q 29.45 -182.45 29.8 -177.25 30.15 -171.8 35.15 -174.25 44.25 -178.75 34.7 -183.05
M 119.95 -146.45
Q 118.15 -146.4 116.8 -144.75 115.55 -143.2 115.5 -141.2 115.5 -140.65 115.65 -140.05 115.95 -139.75 116.3 -139.55 120.1 -137.25 124 -139.7 125.3 -140.5 125.75 -142 125.75 -142.55 125.75 -143.15 125.75 -143.45 125.65 -143.7 125.55 -144 125.4 -144.35 125.25 -144.6 125.15 -144.9 124.85 -145.2 124.55 -145.35 123.4 -145.95 122.2 -146.2 121.1 -146.45 119.95 -146.45 Z"/>
</g>
</defs>

<g transform="matrix( 1, 0, 0, 1, 314.1,173.5) ">
<g transform="matrix( 0.719146728515625, 0, 0, 0.719146728515625, 153.9,281.35) ">
<g transform="matrix( 1, 0, 0, 1, 0,0) ">
<use xlink:href="#Symbol_6_12_Layer1_0_FILL"/>
</g>

<g transform="matrix( 1, 0, 0, 1, 0,0) ">
<use xlink:href="#Symbol_6_12_Layer0_0_FILL"/>
</g>
</g>
</g>
</svg>
