
<svg xmlns="http://www.w3.org/2000/svg" version="1.1" xmlns:xlink="http://www.w3.org/1999/xlink" preserveAspectRatio="none" x="0px" y="0px" width="1000px" height="1000px" viewBox="0 0 1000 1000">
<defs>
<radialGradient id="Gradient_1" gradientUnits="userSpaceOnUse" cx="0" cy="0" r="362.67510425999745" fx="0" fy="0" gradientTransform="matrix( 0.9999997125250777, -0.0007582544177139212, 0.0004135933187530479, 0.5382227721372996, 46.85,-31) " spreadMethod="pad">
<stop  offset="11.372549019607844%" stop-color="#FFFFFF"/>

<stop  offset="25.88235294117647%" stop-color="#FFC400"/>

<stop  offset="72.15686274509804%" stop-color="#FF0000"/>
</radialGradient>

<g id="Symbol_6_9_Layer1_0_FILL">
<path fill="url(#Gradient_1)" stroke="none" d="
M 39.45 -49.7
Q 23.13125 -48.0208984375 7.9 -33.6 -7.33203125 -19.1265625 -6.45 -7.55 -5.51171875 4.0310546875 0.25 17.55 6.0587890625 31.0568359375 1.45 36.75 1.29921875 36.67421875 1.2 36.6 1.155078125 36.6712890625 4.3 43.35 8.1751953125 53.3205078125 23.35 59.6 33.5513671875 63.8046875 45.8 63.8 51.6490234375 63.749609375 58.05 62.8 77.6865234375 59.8162109375 85.6 50 93.4865234375 40.1056640625 90.9 37.5 88.2140625 34.7865234375 94.85 20.2 101.497265625 5.67265625 102.4 -5.7 103.3478515625 -17.0669921875 91.6 -32.35 79.909765625 -47.578515625 67.85 -49.5 55.7806640625 -51.3845703125 39.45 -49.7 Z"/>
</g>
</defs>

<g transform="matrix( 1, 0, 0, 1, 314.1,173.5) ">
<g transform="matrix( 0.719146728515625, 0, 0, 0.719146728515625, 153.9,281.35) ">
<g transform="matrix( 1, 0, 0, 1, 0,0) ">
<use xlink:href="#Symbol_6_9_Layer1_0_FILL"/>
</g>
</g>
</g>
</svg>
