
<svg xmlns="http://www.w3.org/2000/svg" version="1.1" xmlns:xlink="http://www.w3.org/1999/xlink" preserveAspectRatio="none" x="0px" y="0px" width="1000px" height="1000px" viewBox="0 0 1000 1000">
<defs>
<linearGradient id="Gradient_1" gradientUnits="userSpaceOnUse" x1="47.300000000000004" y1="105.57499999999996" x2="47.6" y2="578.725" spreadMethod="pad">
<stop  offset="0.7843137254901961%" stop-color="#FF5D00" stop-opacity="0"/>

<stop  offset="41.96078431372549%" stop-color="#FF5D00" stop-opacity="0.8666666666666667"/>

<stop  offset="100%" stop-color="#FFC400"/>
</linearGradient>

<filter id="Filter_1" x="-20%" y="-20%" width="140%" height="140%" color-interpolation-filters="sRGB">
<feColorMatrix in="SourceGraphic" type="matrix" values="1 0 0 0 0 0 1 0 0 0 0 0 1 0 0 0 0 0 0.5 0" result="result1"/>
</filter>

<g id="Symbol_7_0_Layer0_0_FILL">
<path fill="url(#Gradient_1)" stroke="none" d="
M 48 29.9
Q 49.8 1.45 48.4 0 46.65 3.05 23.55 124.45 23.45 130.8 26.35 135.45 27.6 137.4 32.9 142.9 37.45 147.6 39.4 152.05 42.3 158.6 42.1 168.15 41.9 177.8 36.7 182.6 34.1 185 25.4 188.65 17.5 191.9 14.1 196.1 8.85 202.5 8.6 214.95 8.35 225.55 11.95 240.45 15.5 255.35 15.35 261.95 17.5 257.8 18.95 252.85 19.75 250.15 20.85 245.9 21.9 242.75 23.4 241.45 25.25 239.85 28.85 239.85 34.95 239.85 39.1 246.3 42.9 252.25 42.7 259.35 42.45 272.1 39.65 282.7 34.8 301.1 24.25 301.1 22.25 301.1 19.9 297.85 17.45 294.6 14.65 294.6 10 294.6 5.5 298.5 0.15 303.15 0 310.2 -0.05 313.15 3.75 319.3 7.75 325.8 10.7 325.8 14.5 325.8 16.7 323.75 17.85 322.75 19.8 319.3 21.65 316.15 23.45 314.85 26.3 312.8 31.15 312.8 38.45 312.8 49.15 321.9 60.65 331.75 60.45 340.75 60.25 349.8 50.95 360 45.75 365.65 44.5 367.45 41.6 371.55 41.5 375.35 41.45 377 42.7 379.25 43.95 381.55 43.9 383.15 43.8 389.3 38.5 393 35.75 394.9 34.9 396 33.2 398.05 33.15 401.35 32.95 409.55 37.75 414.45 39.55 416.35 48.3 421.75 55.55 426.25 58.8 431.5 63.5 439.15 63.2 452 62.75 473.3 47.95 493.9 43.5 500.05 37.85 506 36.4 507.45 35.45 508.45 35.7 508.25 36 508.1 39.8 511.3 40.6 518.5 40.9 521 40.75 528.9 40.55 537.85 37.7 549.55 34.85 561.25 34.8 564.15 34.7 568 37.3 582.95 40.05 598.95 41.8 600.7 44.4 598.55 46.2 594.55 48 589.85 48.95 587.7 52.35 579.75 60.45 579.75 63.3 579.75 67.35 582.95 70.55 585.5 73.4 589
L 74.05 558.95
Q 74.35 545.7 80.65 524.05 83.85 513.6 84.95 509.35 87 502.2 87.05 499 87.1 496.6 82.75 457.45 82.8 458.7 81.1 461.8 79.5 464.9 77.35 467.8 72.45 465.9 71.4 461.4 71 459.75 71.15 453.3 71.3 446.15 77.6 426.4 83.85 406.7 83.85 406.05 83.9 403.9 83.6 403.15 82.65 401 78.85 398.9 77.35 401.45 75.95 404.1 73.2 409.4 73.4 410.6
L 68.05 410.6
Q 64.1 408.7 63.3 404.2 63 402.6 63.15 396.15 63.15 395.95 66 383.8 68.85 371.65 68.9 370.8 69 366.5 68.2 356.75 67.7 350.3 68.8 346.75 70.3 341.85 75.95 336.2 81.85 330.25 94.85 320.6 91.3 305 73.55 217.55 71.3 224.65 68.8 231.45 63.8 244.95 58.6 247.65 56.3 245.3 54.25 237.2 52.45 229.9 52.55 226 52.6 223.3 58.2 204.6 63.8 185.95 63.9 182.45 63.95 180.35 63 177.05 62.45 175.05 60.9 170 57.9 158.8 58.25 144.6 54.6 144.85 51.95 141.65 49.25 138.35 49.35 133.55 49.35 133.3 52.2 123.3 55.95 113.4 60.85 113.4 62.35 113.4 65.6 116.4 67.35 118.05 70.45 121.2
L 70.6 114.7
Q 70.45 105.05 66.4 100.25 64.45 97.9 57.7 94.15 51.65 90.75 49.1 86.4 45.35 79.85 45.6 67.1 45.6 66.95 48 29.9 Z"/>
</g>
</defs>

<g transform="matrix( 1, 0, 0, 1, 314.1,173.5) ">
<g transform="matrix( 1, 0, 0, 1, 170.65,170.1) "/>

<g transform="matrix( 1, 0, 0, 1, 132.6,221.25) "/>

<g transform="matrix( 1, 0, 0, 1, 289.9,240.6) "/>

<g transform="matrix( 0.7633819580078125, 0, 0, 0.7633819580078125, 147.75,-129.15) ">
<g transform="matrix( 1, 0, 0, 1, 0,0) ">
<use filter="url(#Filter_1)" xlink:href="#Symbol_7_0_Layer0_0_FILL"/>
</g>
</g>
</g>
</svg>
