
<svg xmlns="http://www.w3.org/2000/svg" version="1.1" xmlns:xlink="http://www.w3.org/1999/xlink" preserveAspectRatio="none" x="0px" y="0px" width="1000px" height="1000px" viewBox="0 0 1000 1000">
<defs>
<linearGradient id="Gradient_1" gradientUnits="userSpaceOnUse" x1="48.9" y1="35.1875" x2="44.9" y2="449.6125" spreadMethod="pad">
<stop  offset="0.7843137254901961%" stop-color="#FF5D00" stop-opacity="0"/>

<stop  offset="41.96078431372549%" stop-color="#FF5D00" stop-opacity="0.8666666666666667"/>

<stop  offset="100%" stop-color="#FFC400"/>
</linearGradient>

<filter id="Filter_1" x="-20%" y="-20%" width="140%" height="140%" color-interpolation-filters="sRGB">
<feColorMatrix in="SourceGraphic" type="matrix" values="1 0 0 0 0 0 1 0 0 0 0 0 1 0 0 0 0 0 0.5 0" result="result1"/>
</filter>

<g id="Symbol_7_2_Layer0_0_FILL">
<path fill="#FF9900" stroke="none" d="
M 48 491.3
Q 49.8 462.85 48.4 461.4 47.05 463.75 33.2 535.65 28.95 557.55 23.55 585.85 23.45 592.2 26.35 596.85 27.6 598.8 32.9 604.3 33.1 604.5 33.3 604.7
L 53.7 604.7
Q 52.75 604.05 51.95 603.05 49.25 599.75 49.35 594.95 49.35 594.7 52.2 584.7 55.95 574.8 60.85 574.8 62.35 574.8 65.6 577.8 67.35 579.45 70.45 582.6
L 70.6 576.1
Q 70.45 566.45 66.4 561.65 64.45 559.3 57.7 555.55 51.65 552.15 49.1 547.8 46.5 543.25 45.85 535.65 45.5 532.35 45.6 528.5 45.6 528.35 48 491.3 Z"/>

<path fill="url(#Gradient_1)" stroke="none" d="
M 63 45.4
Q 62.45 43.4 60.9 38.35 57.9 27.15 58.25 12.95 55.7294921875 13.12265625 53.65 11.65
L 33.25 11.65
Q 37.5330078125 16.1396484375 39.4 20.4 42.3 26.95 42.1 36.5 41.9 46.15 36.7 50.95 34.1 53.35 25.4 57 17.5 60.25 14.1 64.45 8.85 70.85 8.6 83.3 8.35 93.9 11.95 108.8 15.5 123.7 15.35 130.3 17.5 126.15 18.95 121.2 19.75 118.5 20.85 114.25 21.9 111.1 23.4 109.8 25.25 108.2 28.85 108.2 34.95 108.2 39.1 114.65 42.9 120.6 42.7 127.7 42.45 140.45 39.65 151.05 34.8 169.45 24.25 169.45 22.25 169.45 19.9 166.2 17.45 162.95 14.65 162.95 10 162.95 5.5 166.85 0.15 171.5 0 178.55 -0.05 181.5 3.75 187.65 7.75 194.15 10.7 194.15 14.5 194.15 16.7 192.1 17.85 191.1 19.8 187.65 21.65 184.5 23.45 183.2 26.3 181.15 31.15 181.15 38.45 181.15 49.15 190.25 60.65 200.1 60.45 209.1 60.25 218.15 50.95 228.35 45.75 234 44.5 235.8 41.6 239.9 41.5 243.7 41.45 245.35 42.7 247.6 43.95 249.9 43.9 251.5 43.8 257.65 38.5 261.35 35.75 263.25 34.9 264.35 33.2 266.4 33.15 269.7 32.95 277.9 37.75 282.8 39.55 284.7 48.3 290.1 55.55 294.6 58.8 299.85 63.5 307.5 63.2 320.35 62.75 341.65 47.95 362.25 43.5 368.4 37.85 374.35 36.4 375.8 35.45 376.8 35.7 376.6 36 376.45 39.8 379.65 40.6 386.85 40.9 389.35 40.75 397.25 40.55 406.2 37.7 417.9 34.85 429.6 34.8 432.5 34.7 436.35 37.3 451.3 40.05 467.3 41.8 469.05 44.4 466.9 46.2 462.9 48 458.2 48.95 456.05 52.35 448.1 60.45 448.1 63.3 448.1 67.35 451.3 70.55 453.85 73.4 457.35
L 74.05 427.3
Q 74.35 414.05 80.65 392.4 83.85 381.95 84.95 377.7 87 370.55 87.05 367.35 87.1 364.95 82.75 325.8 82.8 327.05 81.1 330.15 79.5 333.25 77.35 336.15 72.45 334.25 71.4 329.75 71 328.1 71.15 321.65 71.3 314.5 77.6 294.75 83.85 275.05 83.85 274.4 83.9 272.25 83.6 271.5 82.65 269.35 78.85 267.25 77.35 269.8 75.95 272.45 73.2 277.75 73.4 278.95
L 68.05 278.95
Q 64.1 277.05 63.3 272.55 63 270.95 63.15 264.5 63.15 264.3 66 252.15 68.85 240 68.9 239.15 69 234.85 68.2 225.1 67.7 218.65 68.8 215.1 70.3 210.2 75.95 204.55 81.85 198.6 94.85 188.95 91.3 173.35 73.55 85.9 71.3 93 68.8 99.8 63.8 113.3 58.6 116 56.3 113.65 54.25 105.55 52.45 98.25 52.55 94.35 52.6 91.65 58.2 72.95 63.8 54.3 63.9 50.8 63.95 48.7 63 45.4 Z"/>
</g>
</defs>

<g transform="matrix( 1, 0, 0, 1, 314.1,173.5) ">
<g transform="matrix( 1, 0, 0, 1, 170.65,170.1) "/>

<g transform="matrix( 1, 0, 0, 1, 132.6,221.25) "/>

<g transform="matrix( 1, 0, 0, 1, 289.9,240.6) "/>

<g transform="matrix( 0.7633819580078125, 0, 0, 0.7633819580078125, 147.75,-129.15) ">
<g transform="matrix( 1, 0, 0, 1, 0,0) ">
<use filter="url(#Filter_1)" xlink:href="#Symbol_7_2_Layer0_0_FILL"/>
</g>
</g>
</g>
</svg>
