
<svg xmlns="http://www.w3.org/2000/svg" version="1.1" xmlns:xlink="http://www.w3.org/1999/xlink" preserveAspectRatio="none" x="0px" y="0px" width="1000px" height="1000px" viewBox="0 0 1000 1000">
<defs>
<g id="Symbol_6_15_Layer0_0_FILL">
<path fill="#FF9900" stroke="none" d="
M 29.45 -138.3
Q 29.3 -138.3 29.25 -138.25 27.7 -132.65 25.9 -127.15 23.45 -119.6 28.5 -115.45 29 -115.55 29.2 -115.85 32.9 -120.55 32.35 -126.85 31.85 -132.5 29.45 -138.3
M 142.8 -125.15
Q 142.2 -125.15 141.65 -125 140.25 -124.6 140.25 -123 140.25 -122.15 140.65 -121.25 141.05 -120.2 142.05 -119.55 143.2 -118.75 144.35 -119.5 144.45 -119.7 144.55 -119.9 145.45 -121.3 144.55 -122.7 143.75 -123.95 142.8 -125.15 Z"/>
</g>
</defs>

<g transform="matrix( 1, 0, 0, 1, 314.1,173.5) ">
<g transform="matrix( 0.719146728515625, 0, 0, 0.719146728515625, 153.9,281.35) ">
<g transform="matrix( 1, 0, 0, 1, 0,0) ">
<use xlink:href="#Symbol_6_15_Layer0_0_FILL"/>
</g>
</g>
</g>
</svg>
