
<svg xmlns="http://www.w3.org/2000/svg" version="1.1" xmlns:xlink="http://www.w3.org/1999/xlink" preserveAspectRatio="none" x="0px" y="0px" width="1000px" height="1000px" viewBox="0 0 1000 1000">
<defs>
<g id="Symbol_20_0_Layer0_0_FILL">
<path fill="#000000" stroke="none" d="
M 69.45 38.65
Q 60.4 30.75 56.05 30.2
L 63 18.1 41.3 0 26.7 3.45
Q 11.15 27.65 0 51.1
L 45.25 92.6
Q 53.05 88.95 59.15 83 71.55 70.95 79.8 58.05 78.45 46.5 69.45 38.65
M 53.65 34.75
Q 54.15 35.1 56.15 38.1 58.7 41.85 60.6 45.75 66.4 57.65 63.6 64.75
L 48.2 83.8 45.75 85.7
Q 40.1 79.35 23.75 65.1 8.45 51.8 3.85 48.75
L 28.5 20.2 30.55 19.2 34.05 10.8 54.15 24.15 31.9 57.35 53.65 34.75 Z"/>

<path fill="#666666" stroke="none" d="
M 28.5 20.2
L 14.65 48.85 48.2 83.8 63.6 64.75 54.95 53.75 31.8 60.45 23.35 54.05 45.5 28.75 30.55 19.2 28.5 20.2 Z"/>

<path fill="#FFFFFF" stroke="none" d="
M 28.5 20.2
L 3.85 48.75
Q 8.45 51.8 23.75 65.1 40.1 79.35 45.75 85.7
L 48.2 83.8 14.65 48.85 28.5 20.2 Z"/>

<path fill="#333333" stroke="none" d="
M 56.15 38.1
Q 54.15 35.1 53.65 34.75
L 31.9 57.35 54.15 24.15 34.05 10.8 30.55 19.2 45.5 28.75 23.35 54.05 31.8 60.45 54.95 53.75 63.6 64.75
Q 66.4 57.65 60.6 45.75 58.7 41.85 56.15 38.1 Z"/>
</g>

<g id="Symbol_21_0_Layer0_0_FILL">
<path fill="#FF3300" stroke="none" d="
M 37.4 60.75
Q 60.35 36.15 52.9 23.1 45.35 10.05 34.15 4.05
L -1.15 33.65
Q 35.25 56.5 37.4 60.75
M 31.9 17.3
Q 32.55 18.2 33.25 19.15 43.1 34 33.2 49.4
L 31.35 50.75 6.35 33.95 28.8 13.05 31.9 17.3 Z"/>

<path fill="#FFFFFF" stroke="none" d="
M 33.2 49.4
L 13.25 32.65 31.9 17.3 28.8 13.05 6.35 33.95 31.35 50.75 33.2 49.4 Z"/>

<path fill="#FF9900" stroke="none" d="
M 33.25 19.15
Q 32.55 18.2 31.9 17.3
L 13.25 32.65 33.2 49.4
Q 43.1 34 33.25 19.15 Z"/>
</g>
</defs>

<g transform="matrix( 1, 0, 0, 1, 314.1,173.5) ">
<g transform="matrix( 0.546722412109375, -0.4920196533203125, 0.4920196533203125, 0.546722412109375, 122.2,296.5) ">
<g transform="matrix( 1, 0, 0, 1, 0,0) ">
<g transform="matrix( 1, 0, 0, 1, 0,0) ">
<use xlink:href="#Symbol_20_0_Layer0_0_FILL"/>
</g>
</g>

<g transform="matrix( 1, 0, 0, 1, 51.2,68.05) ">
<g transform="matrix( 1, 0, 0, 1, 0,0) ">
<use xlink:href="#Symbol_21_0_Layer0_0_FILL"/>
</g>
</g>
</g>
</g>
</svg>
