
<svg xmlns="http://www.w3.org/2000/svg" version="1.1" xmlns:xlink="http://www.w3.org/1999/xlink" preserveAspectRatio="none" x="0px" y="0px" width="230px" height="230px" viewBox="0 0 230 230">
<defs>
<linearGradient id="Gradient_1" gradientUnits="userSpaceOnUse" x1="65.4375" y1="29.787499999999994" x2="70.5625" y2="98.8125" spreadMethod="pad">
<stop  offset="0%" stop-color="#FFFFFF"/>

<stop  offset="100%" stop-color="#353535"/>
</linearGradient>

<g id="dog_chain_link_2_0_Layer0_0_FILL">
<path fill="#000000" stroke="none" d="
M 33.3 19.9
Q 34.522265625 14.899609375 36.15 6.9 37.8228515625 -1.0482421875 25.8 -5.35 5.1287109375 -5.2748046875 -3.45 -3.95 -7.146875 4.23671875 -4.95 14.75 -2.7087890625 25.300390625 2.15 25.35 7.062109375 25.45625 19.6 25.2 32.1326171875 24.944140625 33.3 19.9
M 23.25 4.4
Q 27.577734375 8.6443359375 22.75 14.9
L 4.7 14.1
Q 2.79609375 9.0005859375 4.3 5.7 4.9 5.45 11.9 4.9 19.5 4.25 23.25 4.4
M 8.2 7.65
Q 6.6 9.3 7.85 11 8.6 11.95 20.15 10.8
L 20.9 8.3
Q 14.6 6.05 8.2 7.65 Z"/>

<path fill="#999999" stroke="none" d="
M 22.75 14.9
Q 27.577734375 8.6443359375 23.25 4.4 19.5 4.25 11.9 4.9 4.9 5.45 4.3 5.7 2.79609375 9.0005859375 4.7 14.1
L 22.75 14.9
M 7.85 11
Q 6.6 9.3 8.2 7.65 14.6 6.05 20.9 8.3
L 20.15 10.8
Q 8.6 11.95 7.85 11 Z"/>
</g>

<g id="dog_chain_link_1_0_Layer0_0_FILL">
<path fill="#000000" stroke="none" d="
M 24.85 0.15
Q 23.3 -0.15 20.95 0.15 13.7 0.75 5 1.05 2.2 1.15 1.1 2 0 3 0 4.75 0.05 6.45 1.15 7.65 3.55 10.55 8.55 10.1 10 9.95 12.6 9.5 15.3 9 16.6 8.95 17.5 8.85 19.25 8.9 21 8.95 21.9 8.85 25.05 8.6 26.75 7.05 27.75 6.1 28.15 4.8 28.5 3.45 27.9 2.3 27.1 0.65 24.85 0.15
M 22.9 3.15
Q 24.9 3 25.05 4.1 24.2 4.85 22.85 5.3 22.05 5.55 20.3 5.9 17.9 6.3 16.45 6.3 15.2 6.4 12.45 6.3 9.9 6.15 8.55 6.25 6.75 6.45 5.9 6.35 4.5 6.25 3.75 5.4 3.55 5.2 3.9 4.95 4.15 4.7 4.5 4.7 13.55 3.8 22.9 3.15 Z"/>

<path fill="#999999" stroke="none" d="
M 25.05 4.1
Q 24.9 3 22.9 3.15 13.55 3.8 4.5 4.7 4.15 4.7 3.9 4.95 3.55 5.2 3.75 5.4 4.5 6.25 5.9 6.35 6.75 6.45 8.55 6.25 9.9 6.15 12.45 6.3 15.2 6.4 16.45 6.3 17.9 6.3 20.3 5.9 22.05 5.55 22.85 5.3 24.2 4.85 25.05 4.1 Z"/>
</g>

<g id="Symbol_42_2_Layer0_0_FILL">
<path fill="#000000" stroke="none" d="
M 72.45 22
Q 69.1642578125 14.0626953125 62.6 8.2 56.026953125 2.3939453125 45.65 -2.1 21.46171875 -2.8037109375 11.3 2.5 1.1361328125 7.8560546875 -5.3 20.4 -5.806640625 22.159375 -11.65 29 -17.5001953125 35.84765625 -5.65 38.2 6.201953125 40.549609375 15.55 42.55 24.9029296875 44.5490234375 35.15 45.35 45.4333984375 46.1966796875 46.6 46.55 49.3197265625 44.5814453125 50.1 44.25 56.0111328125 41.7279296875 53.45 39.8 61.8775390625 38.9966796875 68.05 41.25 74.3248046875 43.5462890625 75 36.75 75.7345703125 29.9412109375 72.45 22
M 61.05 18.4
Q 62.3 21.55 64.8 23.75 71.45 29.45 68.2 35.3 62.1 35.15 56.2 32.55 56.9 32 57.7 31.5 59.4 30.45 60.2 28.65 57.65 29.95 54.35 31.25 47.8 33.9 44 34.05 42.75 30.8 39.65 29.55 39.1 31.65 40.9 35.2 41.8 37 42.8 38.35 41.2828125 39.8671875 40.2 40.3
L 40.2 40.35
Q 34.1 39.75 31.55 38.75 25 36.4 18 36.05 6.35 35.6 -2.65 30 -2.65 29.8 -2.6 29.65 -1.7 26.3 1.8 25.05 4.65 22 7.95 18.55 14.6 11.6 18.05 8.9 19.45 8.55 20.75 8.05 31.95 4.4 43.5 5.45 56.4 6.5 61.05 18.4 Z"/>

<path fill="#FF7D3C" stroke="none" d="
M 1.35 27.9
L 1.8 25.05
Q -1.7 26.3 -2.6 29.65 -2.65 29.8 -2.65 30
L 1.35 27.9
M 64.8 23.75
Q 62.3 21.55 61.05 18.4 56.4 6.5 43.5 5.45 31.95 4.4 20.75 8.05 19.45 8.55 18.05 8.9 29.3 11.9 32.15 23.5 34.45 32.8 40.05 39.3 40.3400390625 39.5900390625 40.2 40.3 41.2828125 39.8671875 42.8 38.35 41.8 37 40.9 35.2 39.1 31.65 39.65 29.55 42.75 30.8 44 34.05 47.8 33.9 54.35 31.25 57.65 29.95 60.2 28.65 64.4 31 67.45 34.5 67.85 34.9 68.2 35.3 71.45 29.45 64.8 23.75 Z"/>

<path fill="#993300" stroke="none" d="
M 18.05 8.9
Q 14.6 11.6 7.95 18.55 4.65 22 1.8 25.05
L 1.35 27.9 -2.65 30
Q 6.35 35.6 18 36.05 25 36.4 31.55 38.75 34.1 39.75 40.2 40.35
L 40.2 40.3
Q 40.3400390625 39.5900390625 40.05 39.3 34.45 32.8 32.15 23.5 29.3 11.9 18.05 8.9
M 57.7 31.5
Q 56.9 32 56.2 32.55 62.1 35.15 68.2 35.3 67.85 34.9 67.45 34.5 64.4 31 60.2 28.65 59.4 30.45 57.7 31.5 Z"/>
</g>

<g id="Symbol_40_0_Layer0_0_FILL">
<path fill="#000000" stroke="none" d="
M 50.65 -0.95
L 48.55 -5.95
Q 26.65 -1.05 19.4 1.2 5.9 5.6 2.15 18.8 -1.15 30.25 2.85 40.95 8.05 54.8 22.55 57.1 32.696875 58.8517578125 45.65 52.15 58.613671875 45.494140625 59.45 35.3 60.326953125 25.106640625 57.25 11.15 54.7603515625 11.7158203125 52.3 12.5 49.8396484375 13.3341796875 49.3 14.2
L 49.2 7.65 50.65 -0.95
M 47.4 1.2
Q 47.15 4.5 47.6 10.75 48 16.55 48.25 16.65 50.4 16.55 52.6 16.5
L 53.5 25.3 47.55 23.2
Q 46.698046875 25.286328125 41.85 29.6 38.38125 28.7130859375 35.3 27.5 32.2740234375 26.3421875 28.85 24.35 25.49375 28.250390625 22.55 32.65 15.15 30.1 13.05 28.55
L 11.55 30.7 4.4 18.15
Q 8.55 10.7 16.4 6.3 30.9 -2.05 47.4 1.2
M 49.9 37.65
Q 47.3 42.75 42.45 46.25 32.35 53.4 20.75 48.7 10.4 41.65 7.75 36.8 8.05 36.75 3.4 20.45
L 11.1 34.7 13.3 32.25
Q 17.85 35.3 23.15 35.75
L 29.75 27.85
Q 36.85 30.15 42.1 32.2 45.443359375 30.413671875 47.6 26.2 50.65 27 53.2 28.9 53.05 29.7 52.9 30.5 52.25 34.45 49.9 37.65
M 2.15 33.25
L 2.8 28.9
Q 3.3 30.1 5.05 32.55 9.3 50.6 27.5 52.15 34.25 52.95 40.3 50.05 46.3 47.35 50.05 41.65 45.95 52.7 34.3 54.85 22.75 57.05 12.6 50.95 2.6 45 2.15 33.25 Z"/>

<path fill="#0099FF" stroke="none" d="
M 2.8 28.9
L 2.15 33.25
Q 2.6 45 12.6 50.95 22.75 57.05 34.3 54.85 45.95 52.7 50.05 41.65 46.3 47.35 40.3 50.05 34.25 52.95 27.5 52.15 9.3 50.6 5.05 32.55 3.3 30.1 2.8 28.9 Z"/>

<path fill="#993300" stroke="none" d="
M 47.6 26.2
Q 45.443359375 30.413671875 42.1 32.2 36.85 30.15 29.75 27.85
L 23.15 35.75
Q 17.85 35.3 13.3 32.25
L 11.1 34.7 3.4 20.45
Q 8.05 36.75 7.75 36.8 10.4 41.65 20.75 48.7
L 29.3 39.4
Q 34.35 41.6 34.5 41.5 41.25 35.3 49.9 37.65 52.25 34.45 52.9 30.5 53.05 29.7 53.2 28.9 50.65 27 47.6 26.2 Z"/>

<path fill="#FF7D3C" stroke="none" d="
M 42.45 46.25
Q 47.3 42.75 49.9 37.65 41.25 35.3 34.5 41.5 34.35 41.6 29.3 39.4
L 20.75 48.7
Q 32.35 53.4 42.45 46.25 Z"/>

<path fill="#660000" stroke="none" d="
M 47.6 10.75
Q 47.15 4.5 47.4 1.2 30.9 -2.05 16.4 6.3 8.55 10.7 4.4 18.15
L 11.55 30.7 13.05 28.55
Q 15.15 30.1 22.55 32.65 25.49375 28.250390625 28.85 24.35 32.2740234375 26.3421875 35.3 27.5 38.38125 28.7130859375 41.85 29.6 46.698046875 25.286328125 47.55 23.2
L 53.5 25.3 52.6 16.5
Q 50.4 16.55 48.25 16.65 48 16.55 47.6 10.75 Z"/>
</g>

<g id="Symbol_41_1_Layer2_0_FILL">
<path fill="#660000" stroke="none" d="
M 90.95 78.6
L 99.2 57.95 92.2 48.8 44.45 54.15 45.7 71.7 90.95 78.6 Z"/>

<path fill="#000000" stroke="none" d="
M 103.5 63.55
L 99.2 57.95 90.95 78.6 89.65 81.9 103.5 63.55 Z"/>
</g>

<g id="Symbol_41_1_Layer1_0_FILL">
<path fill="#666666" stroke="none" d="
M 51 77.7
Q 50.8365234375 77.810546875 50.65 77.9
L 51.15 78.25
Q 51.0919921875 78.040625 51 77.7
M 44.15 34.1
Q 44.2412109375 32.47265625 44.05 31.15 38.9296875 31.8736328125 38.35 32.05
L 38.3 32.1
Q 33.45 34.95 33.4 35 33.25 35.1 32.6 37.35 31.85 39.65 31.9 40.05 32.1 42.25 33.5 50.1 35 58.35 35.8 61.35
L 40.25 74.7
Q 40.1375 69.9375 41.15 68.25 41.884375 67.09609375 47.9 69.25 48.3283203125 68.1505859375 48.75 67.1 48.035546875 63.50546875 47.1 58.8 43.850390625 42.19453125 44.15 34.1 Z"/>

<path fill="#000000" stroke="none" d="
M 102.5 -18
Q 101.2275390625 -14.0984375 100.95 -0.05 100.7224609375 14.0484375 98.25 12.95 63.285546875 4.7029296875 26.1 26.25 25.2236328125 21.171875 24.45 16.1 22.4759765625 2.65 19.25 -3.1 7.3431640625 11.0240234375 0.8 24.3 -5.7013671875 37.634375 -6.6 47.05 -7.489453125 56.4578125 -4.05 60.85 -2.6 62.7 14.85 66.6 23.65 68.55 33.05 70.6 33.05 69.95 36.2 75.55 39.5 81.4 39.55 81.4 39.7 81.45 42.35 77.7 45.15 73.75 45.65 73.25 46.7033203125 72.294921875 52.65 73.75
L 61.35 56.2 77.9 69.05 85.35 56.35
Q 100.5091796875 62.4931640625 109.1 66.75 111.8421875 56.4126953125 111.45 54.15 112.35 53.8 119.45 49.15 127.2 43.95 130.3 41.35 137.4255859375 35.4333984375 132.4 24.1 127.383203125 12.825390625 102.5 -18
M 124.15 29.85
Q 124.6 31.7 124.35 32.85 123.95 34.55 121.75 36.6 121.25 37.05 120.75 37.5 119.05 39 111.85 43 104.5 47.1 103.7 47.7 103.65 47.75 102.9 42.55 102.2640625 38.4298828125 101.45 33.45 101.15 31.55 100.15 27.75 99.25 24.1 99 23.6 106.85 20.55 107.75 19 107.95 18.65 108.35 11.8 108.75 5.3 109 5.6 110.45 7.1 116.75 16.85 123.65 27.45 124.15 29.85
M 82 22.25
Q 85.45 22.15 87.65 22.55 95.85 25.65 96.05 25.45 99.4 40.3 100.7 50.2 101.2833984375 54.92578125 98.85 58.2 98.8271484375 58.087109375 98.75 57.95 86.803515625 50.8037109375 83.75 47.6
L 76.95 60.8
Q 65.5833984375 53.1443359375 59.5 48.95
L 48.75 67.1
Q 48.3283203125 68.1505859375 47.9 69.25 41.884375 67.09609375 41.15 68.25 40.1375 69.9375 40.25 74.7
L 35.8 61.35
Q 35 58.35 33.5 50.1 32.1 42.25 31.9 40.05 31.85 39.65 32.6 37.35 33.25 35.1 33.4 35 33.45 34.95 38.3 32.1
L 38.35 32.05
Q 41.0001953125 30.75625 43.75 29.6 60.822265625 22.68046875 82 22.25
M 11.2 24.6
Q 14.65 17.3 15.25 16.45
L 16.5 26.85
Q 17.7 37.05 18.05 37.3 18.55 37.7 23.35 37.3 25.7 37.05 27.95 36.8 27.85 37.6 28 39.6
L 31.65 59.95
Q 31.2 59.9 12.75 58.9 6 56.6 4.7 54.5 4.6244140625 54.3810546875 4.55 54.25 3.0548828125 51.4931640625 3.75 46.65 5.45 38.4 6.85 34.25 7.6 32.2 11.2 24.6 Z"/>

<path fill="#3333CC" stroke="none" d="
M 15.95 53.7
Q 14.35 53.5 11.5 53.8 8.4 54.15 8.4 54.8 8.35 55.25 10.05 56.8 11.7 58.3 12.75 58.9 31.2 59.9 31.65 59.95
L 28 39.6 24.45 54.2
Q 20.2 54.25 15.95 53.7
M 121.65 35.6
Q 122.15 34.2 121.95 33.85 121.4 33.1 102.9 42.55 103.65 47.75 103.7 47.7 104.5 47.1 111.85 43 119.05 39 120.75 37.5 121.2 36.95 121.65 35.6 Z"/>

<path fill="#0099FF" stroke="none" d="
M 15.25 16.45
Q 14.65 17.3 11.2 24.6 7.6 32.2 6.85 34.25 5.45 38.4 3.75 46.65 3.0548828125 51.4931640625 4.55 54.25 4.6244140625 54.3810546875 4.7 54.5 6 56.6 12.75 58.9 11.7 58.3 10.05 56.8 8.35 55.25 8.4 54.8 8.4 54.15 11.5 53.8 14.35 53.5 15.95 53.7 20.2 54.25 24.45 54.2
L 28 39.6
Q 27.85 37.6 27.95 36.8 25.7 37.05 23.35 37.3 18.55 37.7 18.05 37.3 17.7 37.05 16.5 26.85
L 15.25 16.45
M 121.95 33.85
Q 122.15 34.2 121.65 35.6 121.2 36.95 120.75 37.5 121.25 37.05 121.75 36.6 123.95 34.55 124.35 32.85 124.6 31.7 124.15 29.85 123.65 27.45 116.75 16.85 110.45 7.1 109 5.6 108.75 5.3 108.35 11.8 107.95 18.65 107.75 19 106.85 20.55 99 23.6 99.25 24.1 100.15 27.75 101.15 31.55 101.45 33.45 102.2640625 38.4298828125 102.9 42.55 121.4 33.1 121.95 33.85 Z"/>

<path fill="url(#Gradient_1)" stroke="none" d="
M 87.55 30.75
Q 86.9 29.8 85.5 28.8 82.6 26.85 78.75 26.8 77.35 26.85 58.6 29.25 49.128125 30.4650390625 44.05 31.15 44.2412109375 32.47265625 44.15 34.1 43.850390625 42.19453125 47.1 58.8 48.035546875 63.50546875 48.75 67.1
L 59.5 48.95
Q 65.5833984375 53.1443359375 76.95 60.8
L 83.75 47.6
Q 86.803515625 50.8037109375 98.75 57.95 94.2611328125 46.0333984375 92.45 41.45 91.55 39.2 89.5 34.8 87.65 30.85 87.55 30.75 Z"/>

<path fill="#FFFFFF" stroke="none" d="
M 87.65 22.55
Q 85.45 22.15 82 22.25 60.822265625 22.68046875 43.75 29.6 41.0001953125 30.75625 38.35 32.05 38.9296875 31.8736328125 44.05 31.15 49.128125 30.4650390625 58.6 29.25 77.35 26.85 78.75 26.8 82.6 26.85 85.5 28.8 86.9 29.8 87.55 30.75 87.65 30.85 89.5 34.8 91.55 39.2 92.45 41.45 94.2611328125 46.0333984375 98.75 57.95 98.8271484375 58.087109375 98.85 58.2 101.2833984375 54.92578125 100.7 50.2 99.4 40.3 96.05 25.45 95.85 25.65 87.65 22.55 Z"/>
</g>

<g id="Symbol_41_1_Layer0_0_FILL">
<path fill="#000000" stroke="none" d="
M 52.7 33.7
Q 51.4 33.4 46.8 34.15 42.35 34.85 42.2 35.15 42.9 35.6 49 37.2 55.25 38.75 56.3 39.35 55.85 39.55 51.05 42.5 46.05 45.55 45.95 45.8 51.8 44.55 57.15 43.2 64.35 41.45 64.25 41.05 62.65 34.35 52.7 33.7
M 87.25 29.95
Q 86.55 29.8 82.8 30.9 78.6 32.15 77.05 33.5 73.85 36.3 73.5 40 73.75 40.35 74.1 40.65 74.4 40.85 81.1 39.45 88.15 38 89.85 37.1 89.1 36.8 85 37 80.65 37.2 80 37.05 80.05 37.05 83.8 34.1 87.55 31 87.25 29.95 Z"/>
</g>
</defs>

<g transform="matrix( 0.761688232421875, 0, 0, 0.761688232421875, 38.15,62.65) ">
<g transform="matrix( 1, 0, 0, 1, 6.25,84.35) ">
<g transform="matrix( 1, 0, 0, 1, 18.7,2.4) ">
<g transform="matrix( -0.610198974609375, 0.0335693359375, 0.0335693359375, 0.610198974609375, 92.4,-31.35) ">
<g transform="matrix( 1, 0, 0, 1, 0,0) ">
<use xlink:href="#dog_chain_link_2_0_Layer0_0_FILL"/>
</g>
</g>

<g transform="matrix( -0.1932525634765625, 0.5797119140625, 0.5797119140625, 0.1932525634765625, 94.75,-49.55) ">
<g transform="matrix( 1, 0, 0, 1, 0,0) ">
<use xlink:href="#dog_chain_link_2_0_Layer0_0_FILL"/>
</g>
</g>

<g transform="matrix( -0.55657958984375, 0.25213623046875, 0.25213623046875, 0.55657958984375, 115.85,-61.2) ">
<g transform="matrix( 1, 0, 0, 1, 0,0) ">
<use xlink:href="#dog_chain_link_2_0_Layer0_0_FILL"/>
</g>
</g>

<g transform="matrix( -0.2368621826171875, -0.5632171630859375, -0.5632171630859375, 0.2368621826171875, 133,-39.95) ">
<g transform="matrix( 1, 0, 0, 1, 0,0) ">
<use xlink:href="#dog_chain_link_2_0_Layer0_0_FILL"/>
</g>
</g>

<g transform="matrix( -0.59649658203125, -0.132415771484375, -0.132415771484375, 0.59649658203125, 128.65,-53.5) ">
<g transform="matrix( 1, 0, 0, 1, 0,0) ">
<use xlink:href="#dog_chain_link_1_0_Layer0_0_FILL"/>
</g>
</g>

<g transform="matrix( -0.3582000732421875, 0.495025634765625, 0.495025634765625, 0.3582000732421875, 104.95,-56.95) ">
<g transform="matrix( 1, 0, 0, 1, 0,0) ">
<use xlink:href="#dog_chain_link_1_0_Layer0_0_FILL"/>
</g>
</g>

<g transform="matrix( -0.3711090087890625, 0.4854736328125, 0.4854736328125, 0.3711090087890625, 95.55,-40.3) ">
<g transform="matrix( 1, 0, 0, 1, 0,0) ">
<use xlink:href="#dog_chain_link_1_0_Layer0_0_FILL"/>
</g>
</g>

<g transform="matrix( -0.7750244140625, -0.6317596435546875, 0.6317596435546875, -0.7750244140625, 73.95,6.45) ">
<g transform="matrix( 1, 0, 0, 1, 0,0) ">
<use xlink:href="#Symbol_42_2_Layer0_0_FILL"/>
</g>
</g>

<g transform="matrix( 0.4080963134765625, -0.9129180908203125, 0.9129180908203125, 0.4080963134765625, 13.65,-28.05) ">
<g transform="matrix( 1, 0, 0, 1, 0,0) ">
<use xlink:href="#Symbol_40_0_Layer0_0_FILL"/>
</g>
</g>

<g transform="matrix( 0.1677398681640625, -0.98577880859375, 0.98577880859375, 0.1677398681640625, -48.05,4.6) ">
<g transform="matrix( 1, 0, 0, 1, 0,0) ">
<use xlink:href="#Symbol_41_1_Layer2_0_FILL"/>
</g>

<g transform="matrix( 1, 0, 0, 1, 0,0) ">
<use xlink:href="#Symbol_41_1_Layer1_0_FILL"/>
</g>

<g transform="matrix( 1, 0, 0, 1, 0,0) ">
<use xlink:href="#Symbol_41_1_Layer0_0_FILL"/>
</g>
</g>
</g>
</g>
</g>
</svg>
