
<svg xmlns="http://www.w3.org/2000/svg" version="1.1" xmlns:xlink="http://www.w3.org/1999/xlink" preserveAspectRatio="none" x="0px" y="0px" width="230px" height="230px" viewBox="0 0 230 230">
<defs>
<g id="dog_chain_link_2_0_Layer0_0_FILL">
<path fill="#000000" stroke="none" d="
M 33.3 19.9
Q 34.522265625 14.899609375 36.15 6.9 37.8228515625 -1.0482421875 25.8 -5.35 5.1287109375 -5.2748046875 -3.45 -3.95 -7.146875 4.23671875 -4.95 14.75 -2.7087890625 25.300390625 2.15 25.35 7.062109375 25.45625 19.6 25.2 32.1326171875 24.944140625 33.3 19.9
M 23.25 4.4
Q 27.577734375 8.6443359375 22.75 14.9
L 4.7 14.1
Q 2.79609375 9.0005859375 4.3 5.7 4.9 5.45 11.9 4.9 19.5 4.25 23.25 4.4
M 8.2 7.65
Q 6.6 9.3 7.85 11 8.6 11.95 20.15 10.8
L 20.9 8.3
Q 14.6 6.05 8.2 7.65 Z"/>

<path fill="#999999" stroke="none" d="
M 22.75 14.9
Q 27.577734375 8.6443359375 23.25 4.4 19.5 4.25 11.9 4.9 4.9 5.45 4.3 5.7 2.79609375 9.0005859375 4.7 14.1
L 22.75 14.9
M 7.85 11
Q 6.6 9.3 8.2 7.65 14.6 6.05 20.9 8.3
L 20.15 10.8
Q 8.6 11.95 7.85 11 Z"/>
</g>

<g id="dog_chain_link_1_0_Layer0_0_FILL">
<path fill="#000000" stroke="none" d="
M 24.85 0.15
Q 23.3 -0.15 20.95 0.15 13.7 0.75 5 1.05 2.2 1.15 1.1 2 0 3 0 4.75 0.05 6.45 1.15 7.65 3.55 10.55 8.55 10.1 10 9.95 12.6 9.5 15.3 9 16.6 8.95 17.5 8.85 19.25 8.9 21 8.95 21.9 8.85 25.05 8.6 26.75 7.05 27.75 6.1 28.15 4.8 28.5 3.45 27.9 2.3 27.1 0.65 24.85 0.15
M 22.9 3.15
Q 24.9 3 25.05 4.1 24.2 4.85 22.85 5.3 22.05 5.55 20.3 5.9 17.9 6.3 16.45 6.3 15.2 6.4 12.45 6.3 9.9 6.15 8.55 6.25 6.75 6.45 5.9 6.35 4.5 6.25 3.75 5.4 3.55 5.2 3.9 4.95 4.15 4.7 4.5 4.7 13.55 3.8 22.9 3.15 Z"/>

<path fill="#999999" stroke="none" d="
M 25.05 4.1
Q 24.9 3 22.9 3.15 13.55 3.8 4.5 4.7 4.15 4.7 3.9 4.95 3.55 5.2 3.75 5.4 4.5 6.25 5.9 6.35 6.75 6.45 8.55 6.25 9.9 6.15 12.45 6.3 15.2 6.4 16.45 6.3 17.9 6.3 20.3 5.9 22.05 5.55 22.85 5.3 24.2 4.85 25.05 4.1 Z"/>
</g>
</defs>

<g transform="matrix( 0.761688232421875, 0, 0, 0.761688232421875, 38.15,62.65) ">
<g transform="matrix( 1, 0, 0, 1, 6.25,84.35) ">
<g transform="matrix( -0.567596435546875, -0.22650146484375, -0.22650146484375, 0.567596435546875, 71.75,75.25) ">
<g transform="matrix( 1, 0, 0, 1, 0,0) ">
<use xlink:href="#dog_chain_link_2_0_Layer0_0_FILL"/>
</g>
</g>

<g transform="matrix( -0.2998809814453125, 0.5324249267578125, 0.5324249267578125, 0.2998809814453125, 76.6,55.4) ">
<g transform="matrix( 1, 0, 0, 1, 0,0) ">
<use xlink:href="#dog_chain_link_2_0_Layer0_0_FILL"/>
</g>
</g>

<g transform="matrix( -0.580169677734375, -0.1916656494140625, -0.1916656494140625, 0.580169677734375, 102.8,61.35) ">
<g transform="matrix( 1, 0, 0, 1, 0,0) ">
<use xlink:href="#dog_chain_link_2_0_Layer0_0_FILL"/>
</g>
</g>

<g transform="matrix( 0.32904052734375, -0.5147552490234375, -0.5147552490234375, -0.32904052734375, 95.8,88.65) ">
<g transform="matrix( 1, 0, 0, 1, 0,0) ">
<use xlink:href="#dog_chain_link_2_0_Layer0_0_FILL"/>
</g>
</g>

<g transform="matrix( -0.22967529296875, -0.5661773681640625, -0.5661773681640625, 0.22967529296875, 104.45,77.4) ">
<g transform="matrix( 1, 0, 0, 1, 0,0) ">
<use xlink:href="#dog_chain_link_1_0_Layer0_0_FILL"/>
</g>
</g>

<g transform="matrix( -0.5988311767578125, 0.121337890625, 0.121337890625, 0.5988311767578125, 91.9,57.05) ">
<g transform="matrix( 1, 0, 0, 1, 0,0) ">
<use xlink:href="#dog_chain_link_1_0_Layer0_0_FILL"/>
</g>
</g>

<g transform="matrix( -0.45660400390625, 0.406097412109375, 0.406097412109375, 0.45660400390625, 75.65,64.6) ">
<g transform="matrix( 1, 0, 0, 1, 0,0) ">
<use xlink:href="#dog_chain_link_1_0_Layer0_0_FILL"/>
</g>
</g>
</g>
</g>
</svg>
