
<svg xmlns="http://www.w3.org/2000/svg" version="1.1" xmlns:xlink="http://www.w3.org/1999/xlink" preserveAspectRatio="none" x="0px" y="0px" width="550px" height="250px" viewBox="0 0 550 250">
<defs>
<g id="clouds_3_Layer0_0_FILL">
<path fill="#FFFFFF" stroke="none" d="
M 330.4 144.95
Q 330.4 137.8 325.35 132.75 322.5978515625 129.9978515625 319.2 128.75 322.25 122.2984375 322.25 114.6 322.25 100.75 312.45 90.95 302.65 81.15 288.8 81.15 274.95 81.15 265.15 90.95 255.35 100.75 255.35 114.6 255.35 115.541015625 255.4 116.45 252.0283203125 115.6 248.3 115.6 246.675390625 115.6 245.1 115.75 243.8568359375 97.2568359375 230.4 83.8 215.6 69 194.6 69 173.6 69 158.75 83.8 153.0541015625 89.5150390625 149.55 96.15 145.887890625 95.35 141.9 95.35 127.65 95.35 117.55 105.45 110.9984375 112.0015625 108.7 120.3 106.1859375 119.65 103.4 119.65 95 119.65 89.05 125.55 83.15 131.5 83.15 139.9 83.15 148.3 89.05 154.2 95 160.15 103.4 160.15 111.76484375 160.15 117.65 154.25 127.720703125 164.25 141.9 164.25 153.0095703125 164.25 161.6 158.1 175.574609375 170.3 194.6 170.3 212.7423828125 170.3 226.25 159.2 227.4658203125 160.8158203125 228.95 162.3 236.95 170.3 248.3 170.3 259.65 170.3 267.65 162.3 274.762890625 155.1873046875 275.55 145.4 281.63359375 148.05 288.8 148.05 292.5736328125 148.05 296.05 147.3 296.7591796875 152.9591796875 300.95 157.15 306 162.2 313.15 162.2 320.3 162.2 325.35 157.15 330.4 152.1 330.4 144.95 Z"/>
</g>
</defs>

<g transform="matrix( 1, 0, 0, 1, 44.45,24.7) ">
<g transform="matrix( 1, 0, 0, 1, 0,0) ">
<use xlink:href="#clouds_3_Layer0_0_FILL"/>
</g>
</g>
</svg>
