
<svg xmlns="http://www.w3.org/2000/svg" version="1.1" xmlns:xlink="http://www.w3.org/1999/xlink" preserveAspectRatio="none" x="0px" y="0px" width="150px" height="300px" viewBox="0 0 150 300">
<defs>
<g id="Duplicate_Items_Folder_Hero_Undead_Gravestone_copy_14_Layer0_0_FILL">
<path fill="#DC30FC" stroke="none" d="
M 126.75 -310.5
Q 127.45 -315.95 130.05 -318.7 130.1701171875 -318.80078125 130.3 -318.95 107.2900390625 -318.7142578125 121.5 -293.65
L 126.75 -310.5
M 139.15 -318.3
Q 140.019140625 -317.228515625 140.7 -315.75 141.7806640625 -313.338671875 142.05 -310.95
L 142.05 -317.6
Q 141.75 -317.95 141.4 -317.95 140.2478515625 -318.1349609375 139.15 -318.3
M 139.55 -303.6
L 140.85 -305.2 139.45 -303.7 139.55 -303.6 Z"/>

<path fill="#EF66FF" stroke="none" d="
M 140.7 -315.75
Q 140.019140625 -317.228515625 139.15 -318.3 137.71796875 -320.021484375 135.75 -320.55 132.7943359375 -321.3607421875 130.3 -318.95 130.1701171875 -318.80078125 130.05 -318.7 127.45 -315.95 126.75 -310.5 126.75 -307.4 130.2 -305.2 133.7 -303 138.65 -303
L 139.45 -303.7 140.85 -305.2 142.05 -307.7 142.05 -310.95
Q 141.7806640625 -313.338671875 140.7 -315.75 Z"/>

<path fill="#9933FF" stroke="none" d="
M 139.45 -303.7
L 138.65 -303 139.55 -303.6 139.45 -303.7 Z"/>
</g>
</defs>

<g transform="matrix( 0.4565277099609375, 0, 0, 0.4565277099609375, 14.5,168.65) ">
<g transform="matrix( 1, 0, 0, 1, 0,0) ">
<use xlink:href="#Duplicate_Items_Folder_Hero_Undead_Gravestone_copy_14_Layer0_0_FILL"/>
</g>
</g>
</svg>
