
<svg xmlns="http://www.w3.org/2000/svg" version="1.1" xmlns:xlink="http://www.w3.org/1999/xlink" preserveAspectRatio="none" x="0px" y="0px" width="150px" height="300px" viewBox="0 0 150 300">
<defs>
<g id="Duplicate_Items_Folder_Hero_Undead_Gravestone_copy_3_Layer2_0_FILL">
<path fill="#FFFFFF" fill-opacity="0.25882352941176473" stroke="none" d="
M 259.4 193.45
Q 266.7 172.75 266.7 149.15 266.7 94.25 227.45 55.25 188.35 16.3 133 16.3 77.65 16.3 38.4 55.25 -0.65 94.25 -0.65 149.15 -0.65 172.75 6.5 193.45
L 7.7 193.45
Q 17.5 208 38.4 219.7 77.65 241.65 133 241.65 188.35 241.65 227.45 219.7 248.5 208 258.35 193.45
L 259.4 193.45 Z"/>
</g>

<g id="Duplicate_Items_Folder_Hero_Undead_Gravestone_copy_3_Layer1_0_FILL">
<path fill="#EF66FF" stroke="none" d="
M 114.2 35
Q 132.3337890625 33.5958984375 152.35 38.8 257.92109375 66.462109375 247.2 168.5 245.6818359375 183.0177734375 241.8 199.05 289.6 105.6 202.5 45.8 146.9 7.55 86.8 36.75 -25.830078125 91.6775390625 24.2 199.55 9.7029296875 166.630078125 13.2 136.65 17.5845703125 99.664453125 49.4 67.15 51.483984375 65.0173828125 53.6 63 80.6541015625 37.6548828125 114.2 35 Z"/>

<path fill="#FFFFFF" stroke="none" d="
M 237.85 187.65
Q 243.5005859375 177.8978515625 247.2 168.5 257.92109375 66.462109375 152.35 38.8 132.3337890625 33.5958984375 114.2 35 101.262109375 37.92890625 87.95 43.85 68.1607421875 52.6287109375 53.6 63 51.483984375 65.0173828125 49.4 67.15 17.5845703125 99.664453125 13.2 136.65 14.2974609375 164.11171875 32.75 196.95 -7.3 122.45 56.35 65.9 95.75 30.85 149.45 43.1 267.5 70.35 237.85 187.65 Z"/>
</g>

<g id="Duplicate_Items_Folder_Hero_Undead_Gravestone_copy_3_Layer0_0_FILL">
<path fill="#9933FF" stroke="none" d="
M 143 33.45
L 146.2 173.35
Q 155.644140625 88.7662109375 161.25 -0.65
L 143 33.45
M 144.85 185.25
L 131.85 181.95 120.55 46.1 93.6 -15.65
Q 118.3 88.1 128.35 194.15
L 134.65 191.8
Q 143.85 194.35 144.7 186.75 144.7873046875 185.994921875 144.85 185.25 Z"/>

<path fill="#FFFFFF" stroke="none" d="
M 134.8 -140.55
Q 131.15 -143.15 126.4 -138.65 83.8 -97.65 106.1 -34
L 120.55 46.1 131.85 181.95 144.85 185.25 146.5 185.65 146.2 173.35 143 33.45
Q 143.8 1.65 154.8 -28.3 155.2 -29.45 155.65 -30.55 192.1 -99.7 134.8 -140.55 Z"/>

<path fill="#DC30FC" stroke="none" d="
M 155.65 -30.55
Q 155.2 -29.45 154.8 -28.3 143.8 1.65 143 33.45
L 161.25 -0.65 175.05 -39.15 155.65 -30.55
M 106.1 -34
L 89 -43.95 93.6 -15.65 120.55 46.1 106.1 -34 Z"/>

<path fill="#EF66FF" stroke="none" d="
M 126.4 -138.65
Q 131.15 -143.15 134.8 -140.55 192.1 -99.7 155.65 -30.55
L 175.05 -39.15
Q 205.8 -101.9 170.15 -156.45 164.3 -165.35 155.7 -163.25 66.3 -141.05 89 -43.95
L 106.1 -34
Q 83.8 -97.65 126.4 -138.65 Z"/>
</g>
</defs>

<g transform="matrix( 0.4565277099609375, 0, 0, 0.4565277099609375, 14.5,168.65) ">
<g transform="matrix( 1, 0, 0, 1, 0,0) ">
<use xlink:href="#Duplicate_Items_Folder_Hero_Undead_Gravestone_copy_3_Layer2_0_FILL"/>
</g>

<g transform="matrix( 1, 0, 0, 1, 0,0) ">
<use xlink:href="#Duplicate_Items_Folder_Hero_Undead_Gravestone_copy_3_Layer1_0_FILL"/>
</g>

<g transform="matrix( 1, 0, 0, 1, 0,0) ">
<use xlink:href="#Duplicate_Items_Folder_Hero_Undead_Gravestone_copy_3_Layer0_0_FILL"/>
</g>
</g>
</svg>
