
<svg xmlns="http://www.w3.org/2000/svg" version="1.1" xmlns:xlink="http://www.w3.org/1999/xlink" preserveAspectRatio="none" x="0px" y="0px" width="150px" height="300px" viewBox="0 0 150 300">
<defs>
<g id="Duplicate_Items_Folder_Hero_Undead_Gravestone_copy_4_Layer2_0_FILL">
<path fill="#FFFFFF" fill-opacity="0.09803921568627451" stroke="none" d="
M 251.15 197.95
Q 258 179.25 258 158 258 108.5 221.3 73.35 184.75 38.25 133.05 38.25 81.3 38.25 44.65 73.35 8.15 108.5 8.15 158 8.15 179.25 14.8 197.95
L 15.95 197.95
Q 25.1 211.05 44.65 221.6 81.3 241.4 133.05 241.4 184.75 241.4 221.3 221.6 241 211.05 250.2 197.95
L 251.15 197.95 Z"/>
</g>

<g id="Duplicate_Items_Folder_Hero_Undead_Gravestone_copy_4_Layer1_0_FILL">
<path fill="#FFFFFF" stroke="none" d="
M 10.15 156.5
Q 9.92421875 153.4818359375 9.8 150.5 8.814453125 171.766015625 12.5 196.65
L 17.85 211.85
Q 8.9578125 184.5259765625 10.15 156.5
M 256.8 132.65
Q 254.91171875 118.551171875 250.55 106.15 205.4892578125 17.877734375 101.75 38 88.89453125 40.5072265625 77.85 44.55 28.328515625 66.9779296875 14.7 117.45 12.581640625 127.5673828125 11.85 138.9 12.53671875 134.542578125 13.45 130.15 22.35 87.35 56.4 66.1 188 -16.45 256.8 132.65 Z"/>

<path fill="#EF66FF" stroke="none" d="
M 250.55 106.15
Q 253.748046875 112.4390625 256.65 119.25 254.9 101.5 245.45 86.5 202.3 18.05 121.7 29.95 5.387109375 46.7318359375 9.8 150.5 9.92421875 153.4818359375 10.15 156.5 10.86328125 166.2638671875 12.6 176.75
L 19.5 194.4
Q 10.65 169.5 11.65 143.15 11.73359375 141.0134765625 11.85 138.9 12.581640625 127.5673828125 14.7 117.45 26.1376953125 63.7193359375 77.85 44.55 88.89453125 40.5072265625 101.75 38 205.4892578125 17.877734375 250.55 106.15 Z"/>
</g>

<g id="Duplicate_Items_Folder_Hero_Undead_Gravestone_copy_4_Layer0_0_FILL">
<path fill="#DC30FC" stroke="none" d="
M 148.05 -72.55
L 136.75 -46.6 152.3 -55.85 162.85 -70 148.05 -72.55
M 75.6 -110.65
Q 75.05 -113.05 74.55 -115.45
L 76.4 -73.9
Q 76.85 -72.15 77.25 -70.4 84.35 -38.9 104.55 -13.75
L 95 -72.15
Q 80.5 -88.95 75.6 -110.65 Z"/>

<path fill="#9933FF" stroke="none" d="
M 77.25 -70.4
Q 76.85 -72.15 76.4 -73.9 98.45 29.25 148.85 122.65 149.3 120.3 149.05 118 139.2 30.6 152.3 -55.85
L 136.75 -46.6
Q 132.3 4.6 142.25 55.75 145.25 71.05 142.85 86.6
L 104.55 -13.75
Q 84.35 -38.9 77.25 -70.4 Z"/>

<path fill="#EF66FF" stroke="none" d="
M 135.9 -178.15
Q 146.15 -184.7 154.75 -177.35 217.25 -124.4 148.05 -72.55
L 162.85 -70
Q 220.85 -102.2 200 -165 196.4 -175.9 187.1 -180.05 90.4 -224.1 74.55 -115.45 75.05 -113.05 75.6 -110.65 80.5 -88.95 95 -72.15 78.65 -142.15 135.9 -178.15 Z"/>

<path fill="#FFFFFF" stroke="none" d="
M 154.75 -177.35
Q 146.15 -184.7 135.9 -178.15 78.65 -142.15 95 -72.15
L 104.55 -13.75 142.85 86.6
Q 145.25 71.05 142.25 55.75 132.3 4.6 136.75 -46.6
L 148.05 -72.55
Q 217.25 -124.4 154.75 -177.35 Z"/>
</g>
</defs>

<g transform="matrix( 0.4565277099609375, 0, 0, 0.4565277099609375, 14.5,168.65) ">
<g transform="matrix( 1, 0, 0, 1, 0,0) ">
<use xlink:href="#Duplicate_Items_Folder_Hero_Undead_Gravestone_copy_4_Layer2_0_FILL"/>
</g>

<g transform="matrix( 1, 0, 0, 1, 0,0) ">
<use xlink:href="#Duplicate_Items_Folder_Hero_Undead_Gravestone_copy_4_Layer1_0_FILL"/>
</g>

<g transform="matrix( 1, 0, 0, 1, 0,0) ">
<use xlink:href="#Duplicate_Items_Folder_Hero_Undead_Gravestone_copy_4_Layer0_0_FILL"/>
</g>
</g>
</svg>
