
<svg xmlns="http://www.w3.org/2000/svg" version="1.1" xmlns:xlink="http://www.w3.org/1999/xlink" preserveAspectRatio="none" x="0px" y="0px" width="100px" height="100px" viewBox="0 0 100 100">
<defs>
<g id="little_star_1_Layer1_0_FILL">
<path fill="#00CCFF" stroke="none" d="
M 112.95 35.35
Q 110 29.8 90.25 23.8 75.7 17.4 68.6 8.1 59.15 -6.4 51.4 -3.8 44.65 3.2 32.1 16.35 24.15 22.1 12.7 26.1 -1.2 30.2 -6.6 34.2 -9.15 37.55 1.75 40.9 11.8 44.05 21.35 47.8 35.35 54.1 43.85 66.3 55.95 85.3 67.7 63.6 75 53.3 87.05 47.4 94.05 44.1 102.25 41.2 110.7 38.05 112.95 35.35 Z"/>
</g>

<g id="little_star_1_Layer0_0_FILL">
<path fill="#FFFFFF" stroke="none" d="
M 83.05 36.6
Q 85.15 33.95 83.35 31.65 80.9 28.55 75.7 25.25 71.05 21.8 67 18.55 58.1 9.35 51 12.3 44.4 15.3 36.35 23.05 31.2 26.55 27.5 30.25 23.55 33.75 25.3 36.95 27.5 39.9 33.75 43.95 38.6 47.3 43.9 51.75 55.35 63.75 65.4 52.6 71.2 46.9 77.75 41.7 81.1 38.95 83.05 36.6 Z"/>
</g>
</defs>

<g transform="matrix( 0.683990478515625, 0, 0, 0.683990478515625, 15.6,29.75) ">
<g transform="matrix( 1, 0, 0, 1, 0,0) ">
<use xlink:href="#little_star_1_Layer1_0_FILL"/>
</g>

<g transform="matrix( 1, 0, 0, 1, 0,0) ">
<use xlink:href="#little_star_1_Layer0_0_FILL"/>
</g>
</g>
</svg>
