
<svg xmlns="http://www.w3.org/2000/svg" version="1.1" xmlns:xlink="http://www.w3.org/1999/xlink" preserveAspectRatio="none" x="0px" y="0px" width="100px" height="100px" viewBox="0 0 100 100">
<defs>
<g id="little_star_2_Layer1_0_FILL">
<path fill="#00CCFF" stroke="none" d="
M 106.6 35.85
Q 104.35 30.45 87.15 23.75 74.55 16.55 68.2 5.8 59.35 -10.7 51.4 -7.8 44.35 0.2 33 14.95 25.8 21.5 15.75 25.85 3.45 30.2 -1.15 34.05 -3.4 37.35 6.2 40.8 15.05 44.05 23.5 48.4 35.75 55.5 43.95 69.3 56.1 90.7 67.35 66.1 73.8 54.5 84.1 48.2 90.15 44.6 97.25 41.7 104.6 38.6 106.6 35.85 Z"/>
</g>

<g id="little_star_2_Layer0_0_FILL">
<path fill="#FFFFFF" stroke="none" d="
M 84.65 36.85
Q 87 34.2 84.95 31.9 82.1 28.75 76.3 25.5 71.2 22.15 67.05 19.1 58.1 10.8 51 13.5 44.6 15.9 35.45 23.45 29.65 26.95 25.1 30.8 20.3 34.45 22.65 37.55 25.45 40.45 32.65 44.05 38.1 46.95 43.65 50.75 55.15 60.9 65.25 51.4 71.2 46.55 78.55 41.8 82.4 39.2 84.65 36.85 Z"/>
</g>
</defs>

<g transform="matrix( 0.683990478515625, 0, 0, 0.683990478515625, 15.6,29.75) ">
<g transform="matrix( 1, 0, 0, 1, 0,0) ">
<use xlink:href="#little_star_2_Layer1_0_FILL"/>
</g>

<g transform="matrix( 1, 0, 0, 1, 0,0) ">
<use xlink:href="#little_star_2_Layer0_0_FILL"/>
</g>
</g>
</svg>
