
<svg xmlns="http://www.w3.org/2000/svg" version="1.1" xmlns:xlink="http://www.w3.org/1999/xlink" preserveAspectRatio="none" x="0px" y="0px" width="100px" height="100px" viewBox="0 0 100 100">
<defs>
<g id="little_star_5_Layer1_0_FILL">
<path fill="#00CCFF" stroke="none" d="
M 101.35 36.2
Q 99.7 30.85 84.55 23.6 73.7 15.85 67.9 4.25 59.55 -13.6 51.4 -10.45 44.1 -1.75 33.8 13.7 27.25 20.65 18.35 25.05 7.4 29.4 3.5 33 1.45 36.25 10 39.95 17.9 43.35 25.4 48.25 36.15 56.05 44.1 71.25 56.25 94.35 67.05 67.7 72.85 55.1 81.65 48.65 86.9 44.85 93.15 42 99.45 38.95 101.35 36.2 Z"/>
</g>

<g id="little_star_5_Layer0_0_FILL">
<path fill="#FFFFFF" stroke="none" d="
M 85.65 37
Q 88.25 34.35 86 32.05 82.85 28.9 76.75 25.6 71.35 22.2 67.2 19.2 58.4 11.2 51.2 13.8 44.9 15.95 34.95 23.55 28.6 27.15 23.5 31.1 18.15 34.9 20.85 37.9 24.05 40.8 31.9 44.05 37.9 46.65 43.6 49.85 55.35 58.5 65.35 50.35 71.3 46.2 79.05 41.75 83.25 39.35 85.65 37 Z"/>
</g>
</defs>

<g transform="matrix( 0.683990478515625, 0, 0, 0.683990478515625, 15.6,29.75) ">
<g transform="matrix( 1, 0, 0, 1, 0,0) ">
<use xlink:href="#little_star_5_Layer1_0_FILL"/>
</g>

<g transform="matrix( 1, 0, 0, 1, 0,0) ">
<use xlink:href="#little_star_5_Layer0_0_FILL"/>
</g>
</g>
</svg>
