
<svg xmlns="http://www.w3.org/2000/svg" version="1.1" xmlns:xlink="http://www.w3.org/1999/xlink" preserveAspectRatio="none" x="0px" y="0px" width="100px" height="100px" viewBox="0 0 100 100">
<defs>
<g id="little_star_4_Layer1_0_FILL">
<path fill="#00CCFF" stroke="none" d="
M 87.25 42.7
Q 92.3 39.6 93.95 36.9 93 31.75 80.85 23.6 72.3 14.75 67.35 1.25 59.8 -19.4 51.4 -15.85 43.8 -5.85 34.75 12.15 29.15 20.3 21.75 25.25 12.65 30.2 9.7 33.7 8.1 36.9 15.05 40.65 21.55 44.1 27.8 49.55 36.6 58.2 44.15 75.25 56.4 101.5 66.6 71.1 71.3 56.95 78.15 49.8 82.3 45.65 87.25 42.7 Z"/>
</g>

<g id="little_star_4_Layer0_0_FILL">
<path fill="#FFFFFF" stroke="none" d="
M 87.75 37.35
Q 90.75 34.7 88.15 32.4 84.45 29.2 77.55 26 71.45 22.75 67.1 20.25 58.05 13.75 50.95 15.8 44.95 17.1 33.7 24.2 26.5 27.65 20.25 31.85 13.85 35.8 17.25 38.7 21.3 41.45 30.35 44.2 37.15 46.3 43.1 48.75 54.75 55.1 65 49.05 71.25 45.9 80.05 41.9 84.9 39.65 87.75 37.35 Z"/>
</g>
</defs>

<g transform="matrix( 0.683990478515625, 0, 0, 0.683990478515625, 15.6,29.75) ">
<g transform="matrix( 1, 0, 0, 1, 0,0) ">
<use xlink:href="#little_star_4_Layer1_0_FILL"/>
</g>

<g transform="matrix( 1, 0, 0, 1, 0,0) ">
<use xlink:href="#little_star_4_Layer0_0_FILL"/>
</g>
</g>
</svg>
