
<svg xmlns="http://www.w3.org/2000/svg" version="1.1" xmlns:xlink="http://www.w3.org/1999/xlink" preserveAspectRatio="none" x="0px" y="0px" width="1000px" height="1000px" viewBox="0 0 1000 1000">
<defs>
<linearGradient id="Gradient_1" gradientUnits="userSpaceOnUse" x1="44.9" y1="204.775" x2="44.9" y2="120.92499999999998" spreadMethod="pad">
<stop  offset="0%" stop-color="#FFBF20"/>

<stop  offset="17.254901960784313%" stop-color="#FF2020"/>

<stop  offset="44.705882352941174%" stop-color="#3F3F3F"/>

<stop  offset="100%" stop-color="#D4D4D4"/>
</linearGradient>

<linearGradient id="Gradient_2" gradientUnits="userSpaceOnUse" x1="45.65" y1="221.025" x2="45.65" y2="211.275" spreadMethod="pad">
<stop  offset="0%" stop-color="#FFBF20"/>

<stop  offset="17.254901960784313%" stop-color="#FF2020"/>

<stop  offset="44.705882352941174%" stop-color="#3F3F3F"/>

<stop  offset="100%" stop-color="#D4D4D4"/>
</linearGradient>

<radialGradient id="Gradient_3" gradientUnits="userSpaceOnUse" cx="0" cy="0" r="527.0202943198677" fx="0" fy="0" gradientTransform="matrix( 0.9999614923370382, 0.008775753134836436, -0.0017788688786830615, 0.20293336168016365, 46.2,199.55) " spreadMethod="pad">
<stop  offset="0%" stop-color="#FFBF20"/>

<stop  offset="16.470588235294116%" stop-color="#FF2020"/>

<stop  offset="44.705882352941174%" stop-color="#3F3F3F"/>

<stop  offset="100%" stop-color="#D4D4D4"/>
</radialGradient>

<linearGradient id="Gradient_4" gradientUnits="userSpaceOnUse" x1="46.449999999999996" y1="132.28750000000002" x2="44.85" y2="18.612499999999997" spreadMethod="pad">
<stop  offset="14.509803921568627%" stop-color="#2C2623"/>

<stop  offset="100%" stop-color="#79725F"/>
</linearGradient>

<linearGradient id="Gradient_5" gradientUnits="userSpaceOnUse" x1="11.825" y1="36.7" x2="19.175" y2="36.7" spreadMethod="pad">
<stop  offset="0%" stop-color="#999999"/>

<stop  offset="100%" stop-color="#D4D4D4"/>
</linearGradient>

<linearGradient id="Gradient_6" gradientUnits="userSpaceOnUse" x1="42.25" y1="36.45" x2="51.05" y2="36.45" spreadMethod="pad">
<stop  offset="0%" stop-color="#999999"/>

<stop  offset="100%" stop-color="#D4D4D4"/>
</linearGradient>

<linearGradient id="Gradient_7" gradientUnits="userSpaceOnUse" x1="40" y1="28.6" x2="40" y2="49.4" spreadMethod="pad">
<stop  offset="0%" stop-color="#999999"/>

<stop  offset="100%" stop-color="#D4D4D4"/>
</linearGradient>

<linearGradient id="Gradient_8" gradientUnits="userSpaceOnUse" x1="68.625" y1="35.75" x2="75.475" y2="35.75" spreadMethod="pad">
<stop  offset="0%" stop-color="#999999"/>

<stop  offset="100%" stop-color="#D4D4D4"/>
</linearGradient>

<g id="cast_iron_copy_0_Layer1_0_FILL">
<path fill="#000000" stroke="none" d="
M 46.15 -0.75
L 46.15 -1
Q 45.55 -1.05 44.85 -0.95 44.25 -1 43.75 -1
L 43.75 -0.8
Q 42.05 -0.5 39.95 0.25 32.1 2.95 28.3 5.45 24.45 7.9 25.05 16.9
L 34.45 138.85
Q 25.55 139.7 17.4 140.55 1.2 142.2 -1.6 143.3 -3.2 144 -6.2 172.95 -9.3 203 -7.7 212.55 -7.65 212.9 -4.8 214.95 -1.85 217.05 -0.9 217.25
L 33.2 217.5 32.55 227.8
Q 47.959765625 235.5890625 59.55 227.8
L 58.05 217.55 90.8 217.25
Q 91.75 217.05 94.7 214.95 97.55 212.9 97.6 212.55 99.2 203 96.1 172.95 95.0453125 162.7732421875 94.15 156.05 92.5375 143.75390625 91.5 143.3 88.7 142.2 72.5 140.55 64.35 139.7 55.45 138.85
L 64.85 16.9
Q 65.45 7.9 61.6 5.45 57.8 2.95 49.95 0.25 47.85 -0.5 46.15 -0.75
M 44.95 12.6
Q 48.9 12.6 50.3 13.3 56.15 16.2 55.1 27.6 54.1 39 50.55 91.55 48.2 136.1 50.9 147.25
L 39.75 147.25
Q 41.7 136.1 39.35 91.55 35.8 39 34.8 27.6 33.75 16.2 39.6 13.3 41 12.6 44.95 12.6
M 2.85 192.4
Q 3.85 193.7 4.45 196.55 5.1 199.4 4.55 200.25
L 1.95 204.15
Q -3.6728515625 200.1517578125 -1.55 179.6 0.68671875 158.4841796875 4.1 156.7 7.554296875 154.955078125 26.9 151.65 32.7 150.65 44.95 150.65 57.2 150.65 63 151.65 70.05 152.85 79.45 155 86.95 156.7 87.15 156.6 87.394140625 156.567578125 87.6 156.75 89.1689453125 157.8552734375 90.5 168.45 89.45 168.2 88.25 168.05 85.9 167.65 85.65 167.95 85.25 168.35 81.55 171.15 78.45 173.45 78.4 174.15 79.5 173.95 85.35 172.6 90.65 171.4 90.9 171.55 91.168359375 173.9275390625 91.4 176.65 92.7298828125 190.4740234375 90.55 198.2 88.3 198.05 85.95 197.95 81.25 197.75 80.7 198.2 79.75 198.95 79.5 201.35 79.15 203.85 78.4 204.65 77.2 203.7 74.55 197.45 71.95 191.35 72.05 190.1 71.45 190.25 73.95 198.5 75.2 202.6 76.5 206.65 72.3119140625 207.0720703125 66.6 207.3 63.3615234375 207.4494140625 45.8 207.45 45.25 206.7 38.05 197.95 46.75 191.3 47.65 189.75 48.5 188.35 49.8 176.35 51.1 164.4 51.35 164 50.65 164.45 48 175.7 45.3 187.2 45.2 187.35 44.75 188 35.55 194.15 26.4 200.25 26.1 200.2 25.75 200.15 24.15 196.9 22.55 193.8 22.45 193.25 22.55 190.6 22.6 188.45 22.7 184.2 22.35 184.3 22 184.4 20.8 187.45 19.65 190.55 19.3 192.3 18.95 194.1 19.95 197.4 21.05 201 21 202.6 20.95 204.05 19.9 207.15 10.0921875 206.6244140625 5.5 205.5 6.05 204.35 6.95 200.4 8 195.9 7.5 195.35 6.6 194.45 5.8 189.8 5.15 185.35 5 185.3 4.1 186.35 3.25 189.45 2.45 192.45 2.85 192.4
M 89.85 200.3
Q 88.9357421875 202.6998046875 87.6 204.35 86.1533203125 205.2935546875 82.2 205.95
L 89.85 200.3
M 52.35 217.4
L 53.45 224
Q 46.40546875 226.9119140625 39.45 224.4
L 40.05 217.35
Q 42.45 217.25 52.35 217.4
M 34.5 200.75
Q 34.65 200.95 36.85 203.3 39.15 205.95 40.2 207.45 31.5490234375 207.465625 27.05 207.4 27.533984375 207.3955078125 28.05 207.4 28.7 206.55 31.1 204.05 33.45 201.65 34.5 200.75 Z"/>

<path fill="url(#Gradient_1)" stroke="none" d="
M 36.85 203.3
Q 34.65 200.95 34.5 200.75 33.45 201.65 31.1 204.05 28.7 206.55 28.05 207.4 27.533984375 207.3955078125 27.05 207.4 31.5490234375 207.465625 40.2 207.45 39.15 205.95 36.85 203.3
M 87.6 204.35
Q 88.9357421875 202.6998046875 89.85 200.3
L 82.2 205.95
Q 86.1533203125 205.2935546875 87.6 204.35 Z"/>

<path fill="url(#Gradient_2)" stroke="none" d="
M 53.45 224
L 52.35 217.4
Q 42.45 217.25 40.05 217.35
L 39.45 224.4
Q 46.40546875 226.9119140625 53.45 224 Z"/>

<path fill="url(#Gradient_3)" stroke="none" d="
M 4.45 196.55
Q 3.85 193.7 2.85 192.4 2.45 192.45 3.25 189.45 4.1 186.35 5 185.3 5.15 185.35 5.8 189.8 6.6 194.45 7.5 195.35 8 195.9 6.95 200.4 6.05 204.35 5.5 205.5 10.0921875 206.6244140625 19.9 207.15 20.95 204.05 21 202.6 21.05 201 19.95 197.4 18.95 194.1 19.3 192.3 19.65 190.55 20.8 187.45 22 184.4 22.35 184.3 22.7 184.2 22.6 188.45 22.55 190.6 22.45 193.25 22.55 193.8 24.15 196.9 25.75 200.15 26.1 200.2 26.4 200.25 35.55 194.15 44.75 188 45.2 187.35 45.3 187.2 48 175.7 50.65 164.45 51.35 164 51.1 164.4 49.8 176.35 48.5 188.35 47.65 189.75 46.75 191.3 38.05 197.95 45.25 206.7 45.8 207.45 63.3615234375 207.4494140625 66.6 207.3 72.3119140625 207.0720703125 76.5 206.65 75.2 202.6 73.95 198.5 71.45 190.25 72.05 190.1 71.95 191.35 74.55 197.45 77.2 203.7 78.4 204.65 79.15 203.85 79.5 201.35 79.75 198.95 80.7 198.2 81.25 197.75 85.95 197.95 88.3 198.05 90.55 198.2 92.7298828125 190.4740234375 91.4 176.65 91.168359375 173.9275390625 90.9 171.55 90.65 171.4 85.35 172.6 79.5 173.95 78.4 174.15 78.45 173.45 81.55 171.15 85.25 168.35 85.65 167.95 85.9 167.65 88.25 168.05 89.45 168.2 90.5 168.45 89.1689453125 157.8552734375 87.6 156.75 87.394140625 156.567578125 87.15 156.6 86.95 156.7 79.45 155 70.05 152.85 63 151.65 57.2 150.65 44.95 150.65 32.7 150.65 26.9 151.65 7.554296875 154.955078125 4.1 156.7 0.68671875 158.4841796875 -1.55 179.6 -3.6728515625 200.1517578125 1.95 204.15
L 4.55 200.25
Q 5.1 199.4 4.45 196.55 Z"/>

<path fill="url(#Gradient_4)" stroke="none" d="
M 50.3 13.3
Q 48.9 12.6 44.95 12.6 41 12.6 39.6 13.3 33.75 16.2 34.8 27.6 35.8 39 39.35 91.55 41.7 136.1 39.75 147.25
L 50.9 147.25
Q 48.2 136.1 50.55 91.55 54.1 39 55.1 27.6 56.15 16.2 50.3 13.3 Z"/>
</g>

<g id="cast_iron_copy_0_Layer0_0_FILL">
<path fill="#000000" stroke="none" d="
M 73.25 41.9
Q 74.35 41.75 76.35 38.7 78.45 35.5 77.9 34 77.6 33.1 75.55 31.6 73.6 30.15 72.9 30.05 72.2181640625 25.2162109375 70.7 20.1
L 20.7 20.1
Q 18.45 25.0689453125 17.55 30.05 16.6 29.95 14.15 30.9 11.7 31.85 11.15 32.45 9.8 33.95 9.5 36.05 9.25 38.15 10.1 40 10.95 41.85 12.75 42.95 14.55 44.1 16.6 44.1 16.95 44.1 20.7 53.45
L 70.7 53.45
Q 72.7236328125 47.9337890625 73.25 41.9
M 68.65 36.4
Q 68.55 32.75 72 32.35 78.85 35.5 72.3 38.65 68.8 40.4 68.65 36.4
M 47.75 23.05
L 60.9 23.05
Q 68.6490234375 34.81328125 60.9 50.5
L 44.85 50.5 34.1 50.5 29.5 50.5
Q 19.86953125 36.775 29.5 23.05
L 35.65 23.05 47.75 23.05
M 14.7 33.65
Q 15.35 33.35 16.1 33.2 21.25 34.65 17.9 38.55 14.75 42.2 12.3 37.85 12.05 37.4 11.85 36.9 12.05 36.4 12.25 35.95 13.05 34.35 14.7 33.65
M 48.05 29.9
Q 47.0138671875 29.6869140625 45.95 29.8 43.6 30.05 41.75 31.8 39.95 33.55 39.6 35.9 39.3 37.75 40 39.6 40.75 41.45 42.2 42.65 44.0408203125 44.142578125 46.5 44.2
L 46.55 44.2
Q 49.1 44.25 51 42.85 52.9 41.45 53.65 39.05 54.35 36.6 53.5 34.4 52.65 32.2 50.5 30.85 50.33828125 30.7544921875 50.15 30.65 49.746875 30.4435546875 49.3 30.25 48.6931640625 30.0234375 48.05 29.9
M 47.25 40.1
Q 43.1 42.45 42.35 37.65 41.6 32.75 46.65 32.05 55.1 35.7 47.25 40.1 Z"/>

<path fill="url(#Gradient_5)" stroke="none" d="
M 16.1 33.2
Q 15.35 33.35 14.7 33.65 13.05 34.35 12.25 35.95 12.05 36.4 11.85 36.9 12.05 37.4 12.3 37.85 14.75 42.2 17.9 38.55 21.25 34.65 16.1 33.2 Z"/>

<path fill="#FFFFFF" stroke="none" d="
M 35.65 23.05
L 29.5 23.05
Q 19.86953125 36.775 29.5 50.5
L 34.1 50.5
Q 33.8162109375 49.6259765625 33.5 48.75 30.6 40.6 33 32 34.2517578125 27.4521484375 35.65 23.05 Z"/>

<path fill="#666666" stroke="none" d="
M 50.15 30.65
Q 50.33828125 30.7544921875 50.5 30.85 52.65 32.2 53.5 34.4 54.35 36.6 53.65 39.05 52.9 41.45 51 42.85 49.1 44.25 46.55 44.2
L 46.5 44.2
Q 45.844921875 47.3724609375 44.85 50.5
L 60.9 50.5
Q 68.6490234375 34.81328125 60.9 23.05
L 47.75 23.05
Q 48.0765625 26.496875 48.05 29.9 48.6931640625 30.0234375 49.3 30.25 49.746875 30.4435546875 50.15 30.65 Z"/>

<path fill="url(#Gradient_6)" stroke="none" d="
M 42.35 37.65
Q 43.1 42.45 47.25 40.1 55.1 35.7 46.65 32.05 41.6 32.75 42.35 37.65 Z"/>

<path fill="url(#Gradient_7)" stroke="none" d="
M 45.95 29.8
Q 47.0138671875 29.6869140625 48.05 29.9 48.0765625 26.496875 47.75 23.05
L 35.65 23.05
Q 34.2517578125 27.4521484375 33 32 30.6 40.6 33.5 48.75 33.8162109375 49.6259765625 34.1 50.5
L 44.85 50.5
Q 45.844921875 47.3724609375 46.5 44.2 44.0408203125 44.142578125 42.2 42.65 40.75 41.45 40 39.6 39.3 37.75 39.6 35.9 39.95 33.55 41.75 31.8 43.6 30.05 45.95 29.8 Z"/>

<path fill="url(#Gradient_8)" stroke="none" d="
M 72 32.35
Q 68.55 32.75 68.65 36.4 68.8 40.4 72.3 38.65 78.85 35.5 72 32.35 Z"/>
</g>
</defs>

<g transform="matrix( 0.774139404296875, 0, 0, 0.774139404296875, 469.95,333.5) ">
<g transform="matrix( 1, 0, 0, 1, 0,0) ">
<use xlink:href="#cast_iron_copy_0_Layer1_0_FILL"/>
</g>

<g transform="matrix( 1, 0, 0, 1, 0,0) ">
<use xlink:href="#cast_iron_copy_0_Layer0_0_FILL"/>
</g>
</g>
</svg>
