
<svg xmlns="http://www.w3.org/2000/svg" version="1.1" xmlns:xlink="http://www.w3.org/1999/xlink" preserveAspectRatio="none" x="0px" y="0px" width="1000px" height="1000px" viewBox="0 0 1000 1000">
<defs>
<g id="rag_fire_1_Layer0_0_FILL">
<path fill="#FF6600" stroke="none" d="
M -63.7 88.6
Q -63.25 81.65 -63.3 77.95 -63.55 69.4 -66.7 64.45 -67.7 62.85 -72.25 57.9 -75.85 54.05 -76.8 50.95 -77.7 47.25 -78.35 45.55 -79.4 42.6 -81.55 42.15 -83.4 41.7 -85.05 43.2 -86.6 44.65 -87.05 46.8 -87.4 48.35 -87.2 50.7 -87.1 52.05 -86.85 54.75 -86.85 57.45 -87.8 60.95 -87.85 61.25 -89.65 67.05 -92.25 75.3 -92.8 84.6 -93 91.15 -91.35 94.6 -90.25 96.95 -86.95 100.45 -79.5 108.45 -64.65 124.5 -62.75 126.5 -60.75 127.3 -58.3 128.3 -56.9 126.75 -55.8 125.35 -56.65 123.15 -57.1 121.9 -58.8 119.45 -64.2 112.25 -64.2 99.2 -64.2 95.85 -63.7 88.6
M 79.5 -218
Q 77.95 -214.8 77.9 -214.65 77.1 -212.75 77.15 -211.15 77.2 -209.05 79.05 -206.4 81.3 -203.45 82.2 -201.9 83.75 -198.55 84.7 -197.05 86.35 -194.35 88.5 -194.15 90.95 -193.95 93.2 -196.65 94.45 -198.15 96.85 -201.6 99.2 -204.2 103.65 -205.4 104.4 -205.6 111.7 -206.85 116.3 -207.55 119.5 -209.45 123.35 -211.8 124.05 -215.4 124.45 -217.4 123.8 -220.25 122.7 -225.05 122.7 -225.1 121.5 -232.25 126.75 -242.4 128.45 -245.8 128.95 -247.85 129.65 -251 128.25 -253.1 127.2 -254.55 125.3 -255.2 123.6 -255.75 121.7 -255.6 120.1 -255.45 118.15 -254.75 118 -254.7 114.6 -253.45 113.65 -253.05 108.65 -251.3 104.95 -250 102.8 -248.85 100.35 -247.4 97.7 -245.1 96.1 -243.7 93.15 -240.75 89.85 -237.45 88.3 -235.7 85.8 -232.75 84.35 -230.05 83.35 -228.1 81.9 -224 80.45 -219.9 79.5 -218
M 323.35 -270.75
Q 322.3 -271.55 318.15 -274.25 312.45 -277.85 309.85 -279.2 305.05 -281.7 300.9 -282.6 295.7 -283.65 289.15 -282.75 284.75 -282.15 277.5 -280.2 272.8 -279.15 270.2 -277.4 268.5 -276.15 267.55 -274.4 266.55 -272.5 266.85 -270.65 267.2 -267.8 270.35 -266.55 273.55 -265.35 275.7 -267.3 283.15 -263.5 291.55 -253.4 303.05 -239.55 305.65 -237.15 308.7 -234.2 311.15 -234.3 313.4 -234.4 315.4 -236.7 316.55 -238 318.6 -241.05 319.65 -242.45 325.65 -247.55 330.1 -251.4 331.05 -254.9 331.95 -257.8 330.95 -261.05 330.05 -264 327.9 -266.6 326.25 -268.65 323.35 -270.75
M -24.95 -38.7
Q -30 -31.25 -32.65 -26 -36.35 -18.7 -37.35 -12.15 -39.55 1.9 -30.25 20.95 -29 23.5 -21.8 36.9 -16.55 46.65 -14.05 53.1 -8.5 67.2 -7.45 85.1 -6.7 98.05 -8.35 118.45 -10.75 149.05 -10.9 152.25 -11.75 171.5 -9.45 185.7 -11.9 186.5 -15.05 184.95 -16.2 184.35 -20.25 181.45 -23 179.45 -26.05 179.15 -29.5 178.8 -30.8 181.2 -31.95 183.25 -30.7 185.95 -29.85 187.8 -27.65 190.35 -14.6 205.05 -10.9 225.4 -7.25 245.7 -14.25 264.15 -17.15 271.9 -24.95 287.05 -31.1 300.65 -30.45 310.7 -30 319.15 -25 328.3 -21.45 334.85 -14.15 343.8 -7.35 352.15 -2.4 356.7 4.7 363.1 12 365.85 16.5 367.5 26.1 369.55 34.5 371.75 38.7 375.75 41.7 378.55 44.95 385.05 48.6 392.25 50.7 394.75 54.2 398.75 60.05 401.6 63.8 403.45 71.2 405.9 108.65 418.1 140.4 428.6 177.85 440.8 200 443.6 233.8 447.8 258.3 436.35 264.5 433.45 284.2 420.55 299.95 410.25 311.05 407.35 318.75 405.3 333.45 404.8 349.05 404.2 355.95 402.75 365.85 400.65 377.05 394.65 384 390.95 396.55 382.6
L 436.15 356.25
Q 444.95 350.45 449.5 346.9 456.65 341.4 461.25 335.9 468.5 327.3 473 315 476.4 305.9 479.3 291.35 482.35 274.95 484.2 266.8 487.35 252.85 491.7 243.3 496.2 233.55 504.1 223.4 510.1 215.7 519.75 205.75 522.65 202.8 523.95 200.55 525.75 197.3 525 194.5 523.75 190.3 518.25 189.6 513.75 189.05 508.15 190.8 503.7 183.95 503.15 174.7 502.75 167.85 504.6 157.05 506.95 144.85 507.75 138.7 509.15 128.15 507.9 120.6 506.6 112.3 500.4 100.4 492.15 84.55 490.7 80.75 483.85 62.45 489.15 42.45 494.45 22.5 509.5 10 511.75 8.1 512.6 7.2 514.15 5.5 514.65 3.8 515.4 1.3 514 -1.8 513.25 -3.35 510.75 -6.95 503.2 -18.2 498.65 -38.8 497.4 -44.45 495.05 -55.9 492.9 -65.9 490.6 -72.65 489.85 -74.9 489.05 -76.05 487.9 -77.8 486.2 -78.15 483.5 -78.85 481.2 -75.8 480.25 -74.6 477.9 -69.85 474.95 -64.15 468.55 -61.15 462.4 -58.25 455.6 -58.95 449.35 -59.6 443.25 -63.1 437.75 -66.3 433.1 -71.4 425.15 -80.2 420.6 -92.55 416.55 -103.65 415.55 -116.75 414.85 -127.6 415.95 -141.5 416.4 -147.15 418.6 -166.15 419.4 -173.1 416.1 -174.9 413.4 -176.3 408.9 -174 378.9 -160.35 353.7 -138.7 345.9 -145.55 329.2 -166.6 314.55 -185.05 303.4 -192.7 295.3 -198.3 282.5 -203.4 267.5 -208.9 260.1 -211.7 247.05 -216.65 239.25 -221.55 228.9 -228 222.95 -236.8 221.4 -239.05 220.5 -240 218.9 -241.6 217.2 -241.75 215.85 -241.95 212.95 -240.75
L 165.6 -219.7
Q 160.4 -217.45 157.55 -215.8 153.2 -213.4 150.5 -210.6 147.2 -207.2 146 -202.9 144.65 -198.25 146.25 -194.25 149.05 -187.45 160 -185.35 161.15 -185.15 169.6 -183.95 175.55 -183.15 178.95 -182 186.4 -179.55 191.75 -172.85 196.8 -166.55 198.55 -158.4 201.55 -144.4 194.6 -127 186.35 -106.4 168.55 -91.7 150.8 -76.95 129 -72.65 123.7 -71.65 119.95 -71.85 115 -72.15 111.6 -74.35 108.1 -76.65 105.6 -81.45 104.35 -83.95 102 -90.45 95.45 -109 84.6 -125.65 73.75 -142.3 59.4 -155.9 55.7 -159.6 52.75 -158.85 49.4 -157.95 49.85 -153.25 50.15 -150.25 52.2 -145 54.45 -139.15 53.1 -132.2 51.95 -125.9 48.15 -120 45 -115.25 39.65 -110.1 38.2 -108.65 29.9 -101.25 -0.95 -73.65 -24.95 -38.7
M 238.75 -199.5
Q 238.5 -204.9 241.85 -207.3 242.646484375 -207.857421875 243.55 -208.2 245.5763671875 -208.8587890625 248.2 -208.45 250.9 -208.05 254.8 -206.3 269.4203125 -199.57265625 281.95 -191.75 307.0759765625 -176.008984375 323.85 -155.8 338.1 -138.65 345.95 -118.75 354.15 -97.7 353.9 -76.7
L 383.25 -122.4
Q 386.65 -127.8 390 -127.8 393.8 -127.85 395.2 -123.1 396.25 -119.35 395.65 -114.05 393.3 -92.75 405.5 -69.05 414 -52.55 433.2 -29.45 436.85 -25 439.3 -22.65 442.95 -19.15 446.6 -17.4 450.95 -15.35 455.6 -15.9 460.65 -16.5 463.35 -19.9 464.65 -21.45 467.2 -25.15 469.55 -27.9 472.05 -27.2 474.65 -26.5 475.95 -22.35 479.8 -11.1 478 2.85 476.6 14.05 471.35 27.9 464.9 43.9 461.85 51.95 456.45 66.15 454.95 76.7 451.95 97.1 460.3 129.2 462.6 137.9 467.35 155.35 471.2 170.55 472.35 181.8 475.25 209 466.35 236.6 457.75 263.3 439.75 285.4 436.2 289.8 428.3 298.5 420.55 307.05 416.8 311.7 409.7 321.3 406.05 326 399.65 334.3 394.05 339.05 380.5 350.5 356.3 355.05 348.6 356.5 335 358.05 319.35 359.9 313.75 360.75 306.7 361.85 301.55 363.45 295.1 365.5 290.45 368.75 286.15 371.75 280.6 378.35 273.75 386.4 271.35 388.65 259.3 400.05 238.65 403.65 224.95 406.1 200.9 405.45 176.05 404.85 162.45 402.3 141.45 398.3 128.1 387.75 121.5 382.05 118.1 379.35 112.1 374.55 106.95 373.15 103.2 372.2 97.35 372.35 87.8 372.6 87.6 372.6 78.2 372.15 67.65 367 61 363.75 49.5 356.05 34.95 346.3 28 340.6 16.65 331.3 10.2 321.5 -0.95 304.35 -2.25 279.7 -2.837890625 268.7828125 -1.5 255.95 -0.7693359375 249.3376953125 0.45 242.2 1.1083984375 238.4544921875 1.9 234.55 8.85 205.25 11.5 190.5 16.15 164.95 13.7 146.1 11.75 134.95 10.95 129.35 9.5 119.45 10.55 112.5 11.65 105.1 16.75 94.75 24.15 79.55 24.95 77.5 29.45 65.9 29.65 53.25 29.85 40.5 25.65 28.9 24.85 26.6 16 7.6 10.05 -5.15 9.45 -14.15 8.6 -27.15 16.75 -41.45 22.05 -50.75 34.5 -65.25 40 -71.6 43.1 -74.55 48.1 -79.4 53.1 -82.1 58.9 -85.25 65.2 -85.45 72 -85.7 76.95 -82.35 82.75 -78.45 87.9 -65.55 90.55 -58.85 92.15 -56 94.9 -51 98.55 -48.25 102.45 -45.35 108.4 -44.15 112.25 -43.4 119.25 -43.05 133.05 -42.4 140.35 -43.2 151.95 -44.4 159.75 -49.35 165.8 -53.2 173 -62.1 182.45 -73.8 185.05 -76.35 191.55 -82.65 207.05 -91.55 222.8 -100.5 229.25 -106.65 244.6 -121.3 247.25 -145.6 249.6 -167.75 241.05 -190 238.95 -195.8 238.75 -199.5 Z"/>

<path fill="#FFCC00" stroke="none" d="
M 241.85 -207.3
Q 238.5 -204.9 238.75 -199.5 238.95 -195.8 241.05 -190 249.6 -167.75 247.25 -145.6 244.6 -121.3 229.25 -106.65 222.8 -100.5 207.05 -91.55 191.55 -82.65 185.05 -76.35 182.45 -73.8 173 -62.1 165.8 -53.2 159.75 -49.35 151.95 -44.4 140.35 -43.2 133.05 -42.4 119.25 -43.05 112.25 -43.4 108.4 -44.15 102.45 -45.35 98.55 -48.25 94.9 -51 92.15 -56 90.55 -58.85 87.9 -65.55 82.75 -78.45 76.95 -82.35 72 -85.7 65.2 -85.45 58.9 -85.25 53.1 -82.1 48.1 -79.4 43.1 -74.55 40 -71.6 34.5 -65.25 22.05 -50.75 16.75 -41.45 8.6 -27.15 9.45 -14.15 10.05 -5.15 16 7.6 24.85 26.6 25.65 28.9 29.85 40.5 29.65 53.25 29.45 65.9 24.95 77.5 24.15 79.55 16.75 94.75 11.65 105.1 10.55 112.5 9.5 119.45 10.95 129.35 11.75 134.95 13.7 146.1 16.15 164.95 11.5 190.5 8.85 205.25 1.9 234.55 1.1083984375 238.4544921875 0.45 242.2 -0.7693359375 249.3376953125 -1.5 255.95 -2.837890625 268.7828125 -2.25 279.7 -0.95 304.35 10.2 321.5 16.65 331.3 28 340.6 34.95 346.3 49.5 356.05 61 363.75 67.65 367 78.2 372.15 87.6 372.6 87.8 372.6 97.35 372.35 103.2 372.2 106.95 373.15 112.1 374.55 118.1 379.35 121.5 382.05 128.1 387.75 141.45 398.3 162.45 402.3 176.05 404.85 200.9 405.45 224.95 406.1 238.65 403.65 259.3 400.05 271.35 388.65 273.75 386.4 280.6 378.35 286.15 371.75 290.45 368.75 295.1 365.5 301.55 363.45 306.7 361.85 313.75 360.75 319.35 359.9 335 358.05 348.6 356.5 356.3 355.05 380.5 350.5 394.05 339.05 399.65 334.3 406.05 326 409.7 321.3 416.8 311.7 420.55 307.05 428.3 298.5 436.2 289.8 439.75 285.4 457.75 263.3 466.35 236.6 475.25 209 472.35 181.8 471.2 170.55 467.35 155.35 462.6 137.9 460.3 129.2 451.95 97.1 454.95 76.7 456.45 66.15 461.85 51.95 464.9 43.9 471.35 27.9 476.6 14.05 478 2.85 479.8 -11.1 475.95 -22.35 474.65 -26.5 472.05 -27.2 469.55 -27.9 467.2 -25.15 464.65 -21.45 463.35 -19.9 460.65 -16.5 455.6 -15.9 450.95 -15.35 446.6 -17.4 442.95 -19.15 439.3 -22.65 436.85 -25 433.2 -29.45 414 -52.55 405.5 -69.05 393.3 -92.75 395.65 -114.05 396.25 -119.35 395.2 -123.1 393.8 -127.85 390 -127.8 386.65 -127.8 383.25 -122.4
L 353.9 -76.7
Q 354.15 -97.7 345.95 -118.75 338.1 -138.65 323.85 -155.8 307.0759765625 -176.008984375 281.95 -191.75 269.4203125 -199.57265625 254.8 -206.3 250.9 -208.05 248.2 -208.45 245.5763671875 -208.8587890625 243.55 -208.2 242.646484375 -207.857421875 241.85 -207.3
M 70.4 -51.45
Q 74.05 -53 76.95 -51.6 79.8 -50.2 81.4 -45.8 82.85 -40.5 83.9 -38.1 86.15 -33.1 93.4 -28.35 103.7 -21.55 105.15 -20.25 107.5 -18.1 111.8 -13.3 115.75 -9.45 119.55 -8.75 122.55 -8.2 126.25 -9.55 128.55 -10.35 132.6 -12.6 162.35 -29.15 177.15 -39.95 200.55 -57.05 213.3 -76.5 218.7 -84.6 223.7 -88.4 230.65 -93.7 236.35 -90.3 240.2 -88.05 241.45 -82.5 242.3 -78.55 241.85 -72.2 242.75 -81.85 252.95 -91.25 255.6 -93.7 262.25 -99 268.35 -103.95 271.35 -106.85 280.8 -116.25 284.9 -129.4 288.95 -142.6 286.4 -155.7 285.9 -158.2 285.85 -159.35 285.65 -161.45 286.2 -163 286.9 -164.85 288.75 -165.7 290.65 -166.6 292.05 -165.45 292.85 -164.8 293.25 -163.5 293.5 -162.7 293.7 -161.1 295 -151.6 300.35 -140.8 303.4 -134.7 311.4 -121.9 319.05 -109.7 322.2 -102.95 327.3 -92.2 328.15 -82.55 328.45 -76.35 328.85 -73.3 329.55 -68 331.75 -64.8 335.2 -59.9 342.05 -58.85 348.2 -57.9 354.6 -60.3 358.85 -61.9 365.65 -66 373.3 -70.65 376.5 -72.1 379.2 -73.3 381.5 -73.4 384.35 -73.5 385.95 -71.85 388.25 -69.5 386.85 -63.75 386.1 -60.7 383.6 -53.8 381.25 -47.45 380.55 -43.85 379.45 -38.2 380.35 -33.3 381.4 -27.7 384.95 -24.3 388.9 -20.45 395.8 -19.6 399.75 -19.1 408.8 -19.55 417.5 -20.05 421.6 -19.4 428.2 -18.35 431.85 -14.15 436.6 -8.75 435.35 1.35 432.8 13.2 432 18.9 430.95 27.1 433 38.4 434.2 44.85 437.15 57.8 447.15 109.35 417.45 176.05 410.15 192.85 409 196 404.7 207.55 403.95 216.9 403.3 225.35 406.15 243.65 408.9 261.05 407.7 270.3 406.25 282.15 398.8 294.65 393.45 303.7 382.95 316 369.5 331.8 358.15 340.25 342.9 351.6 327.35 353.35 320.45 354.2 307.85 352.95 294.25 351.65 288.3 352 277.45 352.55 263.2 357.7 247 364.2 238.8 367.2 220.8 373.8 201.75 376.6 182.55 379.4 163.55 378.2 130.85 376.3 116.65 359.85 112.95 355.45 106.1 342.3 100.1 330.75 94.5 325.8 90.15 322 82.05 318.3 70.15 312.85 68.7 312.05 57.1 305.6 48.55 293.45 40.75 282.45 36.45 268.3 32.85 256.45 31.25 240.95 30.25 231.75 29.45 213.05 28.45 187.2 28.5 174.15 28.55 152.5 30.7 135.3 32.5 120.75 36.75 103.05 39.5 91.5 45.2 71.3 46.05 68.3 47 66.65 48.35 64.3 50.4 63.55 53.9 62.25 57.1 65.7 59.85 68.75 60.75 73.2 62.05 79.4 62.8 81.25 64.45 85.6 67.7 86.85 73.85 71.5 73.85 54.55 73.9 37.6 67.8 22.15 62.4 10.25 59.7 4.35 54.95 -6.25 54 -14.05 52.9 -22.95 55.75 -31.75 58.55 -40.5 64.65 -47.1 67.35 -50.1 70.4 -51.45 Z"/>

<path fill="#FFFFFF" stroke="none" d="
M 76.95 -51.6
Q 74.05 -53 70.4 -51.45 67.35 -50.1 64.65 -47.1 58.55 -40.5 55.75 -31.75 52.9 -22.95 54 -14.05 54.95 -6.25 59.7 4.35 62.4 10.25 67.8 22.15 73.9 37.6 73.85 54.55 73.85 71.5 67.7 86.85 64.45 85.6 62.8 81.25 62.05 79.4 60.75 73.2 59.85 68.75 57.1 65.7 53.9 62.25 50.4 63.55 48.35 64.3 47 66.65 46.05 68.3 45.2 71.3 39.5 91.5 36.75 103.05 32.5 120.75 30.7 135.3 28.55 152.5 28.5 174.15 28.45 187.2 29.45 213.05 30.25 231.75 31.25 240.95 32.85 256.45 36.45 268.3 40.75 282.45 48.55 293.45 57.1 305.6 68.7 312.05 70.15 312.85 82.05 318.3 90.15 322 94.5 325.8 100.1 330.75 106.1 342.3 112.95 355.45 116.65 359.85 130.85 376.3 163.55 378.2 182.55 379.4 201.75 376.6 220.8 373.8 238.8 367.2 247 364.2 263.2 357.7 277.45 352.55 288.3 352 294.25 351.65 307.85 352.95 320.45 354.2 327.35 353.35 342.9 351.6 358.15 340.25 369.5 331.8 382.95 316 393.45 303.7 398.8 294.65 406.25 282.15 407.7 270.3 408.9 261.05 406.15 243.65 403.3 225.35 403.95 216.9 404.7 207.55 409 196 410.15 192.85 417.45 176.05 447.15 109.35 437.15 57.8 434.2 44.85 433 38.4 430.95 27.1 432 18.9 432.8 13.2 435.35 1.35 436.6 -8.75 431.85 -14.15 428.2 -18.35 421.6 -19.4 417.5 -20.05 408.8 -19.55 399.75 -19.1 395.8 -19.6 388.9 -20.45 384.95 -24.3 381.4 -27.7 380.35 -33.3 379.45 -38.2 380.55 -43.85 381.25 -47.45 383.6 -53.8 386.1 -60.7 386.85 -63.75 388.25 -69.5 385.95 -71.85 384.35 -73.5 381.5 -73.4 379.2 -73.3 376.5 -72.1 373.3 -70.65 365.65 -66 358.85 -61.9 354.6 -60.3 348.2 -57.9 342.05 -58.85 335.2 -59.9 331.75 -64.8 329.55 -68 328.85 -73.3 328.45 -76.35 328.15 -82.55 327.3 -92.2 322.2 -102.95 319.05 -109.7 311.4 -121.9 303.4 -134.7 300.35 -140.8 295 -151.6 293.7 -161.1 293.5 -162.7 293.25 -163.5 292.85 -164.8 292.05 -165.45 290.65 -166.6 288.75 -165.7 286.9 -164.85 286.2 -163 285.65 -161.45 285.85 -159.35 285.9 -158.2 286.4 -155.7 288.95 -142.6 284.9 -129.4 280.8 -116.25 271.35 -106.85 268.35 -103.95 262.25 -99 255.6 -93.7 252.95 -91.25 242.75 -81.85 241.85 -72.2 242.3 -78.55 241.45 -82.5 240.2 -88.05 236.35 -90.3 230.65 -93.7 223.7 -88.4 218.7 -84.6 213.3 -76.5 200.55 -57.05 177.15 -39.95 162.35 -29.15 132.6 -12.6 128.55 -10.35 126.25 -9.55 122.55 -8.2 119.55 -8.75 115.75 -9.45 111.8 -13.3 107.5 -18.1 105.15 -20.25 103.7 -21.55 93.4 -28.35 86.15 -33.1 83.9 -38.1 82.85 -40.5 81.4 -45.8 79.8 -50.2 76.95 -51.6 Z"/>
</g>
</defs>

<g transform="matrix( 0, 0.2122802734375, 0.2408905029296875, 0, 448.2,447.35) ">
<g transform="matrix( 1, 0, 0, 1, 0,0) ">
<use xlink:href="#rag_fire_1_Layer0_0_FILL"/>
</g>
</g>
</svg>
