
<svg xmlns="http://www.w3.org/2000/svg" version="1.1" xmlns:xlink="http://www.w3.org/1999/xlink" preserveAspectRatio="none" x="0px" y="0px" width="1000px" height="1000px" viewBox="0 0 1000 1000">
<defs>
<g id="rag_fire_3_Layer0_0_FILL">
<path fill="#FFCC00" stroke="none" d="
M 398 2.8
Q 399.45703125 4.6705078125 400.9 6.2 400.177734375 5.0978515625 399.35 3.9 393.688671875 -4.292578125 389.85 -10.4 393.2009765625 -3.3736328125 398 2.8
M 84.4 -32.55
Q 83.25 -29.35 83.25 -24.75 83.15 -14.5 85.5 11.15 87.65 33.9 86.7 47 85.25 66.5 76.65 81.85 67 99.1 51.15 105.15 47 106.75 46.3 107.1 43.65 108.45 42.5 110.35 41.1 112.4 41 116.25 40.9 121.7 40.7 122.6 39.5 128.3 32.6 132.7 28.65 135.2 20 139.6 9.75 145.95 5.55 158.15 1.35 170.35 5.5 181.65 8.2 188.65 12.9 189.1 15.15 189.3 20.8 186.35 25.6 183.9 28.1 185.5 32.75 192.75 32.1 204.15 31.85 208.3 29 224.2 24.45 249.65 28.6 275.55 32.8 301.55 45.1 324.2 57.5 346.9 77.05 364.5 96.6 382.05 120.45 392.05 122.8 393.05 124.8 393 127.25 392.9 128 391.15 128.35 390.25 128.15 389.1 128.05 388.45 127.55 387.1 121.65 370.65 117.3 359.2 126.8 376.2 133.1 384.4 143.2 397.45 154.9 403.4 163.6 407.75 176.3 409.65 179.2 410.1 198.9 411.85 207.1 412.65 223.45 414.7 238.05 416.3 248.15 416 280.4 415 308.55 396.05 336.65 377.15 349.75 347.6 361.35 353.45 374.95 346.05 387.5 339.3 394.3 326.1 398.5 318 403.7 300.3 405.0447265625 295.748828125 406.3 291.8 405.771484375 292.94921875 405.2 294.05 401.05 302.05 396.8 307.05 391.3 313.5 384.75 316.1 379.95 318.05 371.7 318.6 360.85 319.3 358.3 319.8 341.55 322.9 324.75 341.8 322.05 344.85 310.95 358.55 302.55 368.95 296.65 374.6 273.4 396.95 237.95 400.25 203.85 403.4 173.7 387.9 145.5 373.35 124.65 345.2 105.35 319.05 95.7 285.95 94.5 305.85 91.9 345.7 91.7 350.65 88.95 351.75 86.9 352.55 83.55 349.95 72.45 341.25 65.7 326.55 59.85 313.75 57.7 297.55 56.2 285.95 56.25 267.65 56.3 242.3 56.1 237.6 55.75 229.25 54.25 212.3 52.7 195.45 52.4 187 51.25 157.55 59.05 138.15 64.3 125 78.05 107.1 85.65 97.45 89.4 92.55 95.85 84.05 99.9 77.5 106.4 67.05 115.2 46.6 124.75 24.4 129.9 15.3 131.6 12.35 133 10.75 134.95 8.45 137.25 7.65 141.35 6.15 145.9 8.95 149.65 11.25 152.75 15.75 157.55 22.45 158.4 23.45 162 27.5 165.9 28.45 169.75 29.45 174.25 27.65 177.5 26.4 182 23.25 206.35 5.95 223.65 -16.95 226.5 -20.65 228.45 -22.2 231.5 -24.7 234.55 -24.4 236.65 -24.25 238.8 -22.65 240.2 -21.65 242.4 -19.35 259.25 -1.5 266.8 9.85 278.45 27.35 279.9 44.1 306.05 38.85 323.3 15.7 340.55 -7.5 338.05 -33.95 337.7 -37.9 338.45 -40.5 339.4 -44.05 342.2 -44.4 344.65 -44.65 346.55 -42.05 348.05 -40 348.85 -36.75 358.3 -1.45 374.75 31.6 391.2 64.65 413.75 93.6 420.85 102.55 422.95 105.6 427.8 112.55 430.05 118.65 433.35 127.45 433.4 139.35 433.4 145.8 432 160.65 430.85 172 428.8 194.95 426.9 215.4 424.75 229.15 421.0712890625 253.0771484375 414.45 272.2 420.49140625 261.98046875 434.85 246.5 451.4 228.75 457.05 218.7 465.6 203.75 466.6 185.9 467.6 168.05 460.8 152.2 459.7 149.75 450 132.1 443.35 120 441.75 111.25 439.75 100.15 443.5 88.05 446.9 77.15 454.35 66.9 457.45 62.8 458.3 58.9 459.3 54.05 455.95 52.3 453.6 51.15 450.45 52.55 449.7 52.9 445.05 55.8 436.95 60.75 426.9 57.5 416.8 54.25 413.1 45.45 411.45 41.45 410.75 34.25 410.0818359375 27.489453125 409.45 24.25 405.921875 23.969140625 402.35 22.75 400.05546875 21.971484375 398 20.9 392.5431640625 18.0833984375 388.8 13.25 386.25 9.9 385.85 6.05 385.703515625 4.7904296875 385.85 3.7 386.184765625 1.17890625 388.2 -0.2 378.5 -14.1 375.5 -31.45 372.45 -48.8 376.85 -65.25 381.3 -81.7 392.65 -95.15 396.30078125 -99.4953125 400.35 -103.2 400.745703125 -104.9755859375 400.6 -106.65 400.3 -109.8 397.9 -113.5 394.85 -117.65 393.4 -119.7 387.45 -127.5 384.95 -137.25 384.1 -140.25 383.45 -141.5 382.35 -143.7 380.55 -144.3 378.85 -144.9 376.75 -143.9 375.4 -143.3 373.25 -141.6 362.7 -132.65 357.9 -127.7 349.85 -119.4 345.7 -111.25 340.8 -101.7 338.25 -85 334.75 -61.9 333.65 -57.7 328.95 -38.95 316.45 -23.6 303.95 -8.2 286.65 0.1 288.75 -8.15 284.4 -16.5 280 -24.85 271.9 -27.9 265.15 -29.8 262 -31 256.45 -33.1 254.9 -37 253.9 -39.35 254.4 -45.7 254.85 -51.4 252.9 -53.85 250.9 -56.5 246.5 -56.8 244.4 -57 238.6 -56.35 237.4 -56.2 228.55 -55.8 222.5 -55.5 218.7 -54.3 213.35 -52.65 207.7 -48 206.6640625 -47.13671875 203.65 -44.35 202.55703125 -42.4333984375 201.3 -40.2 196.5 -31.7 193.05 -27.65 182.35 -15.3 162.55 -10.45 146.65 -6.6 131.1 -9.25 114.6 -12.1 102.6 -21.6 94.0556640625 -28.3544921875 88.95 -37.7 85.84375 -36.496484375 84.4 -32.55 Z"/>

<path fill="#FF6600" stroke="none" d="
M 52.75 -66.25
Q 49.2 -63.2 47.45 -61.15 44.85 -58.05 44.1 -54.9 43.1 -50.8 45.1 -45.75 46.15 -43.15 49.6 -37.2 59.15 -20.95 63.9 -2.7 68.7 15.6 68.25 34.3 68.1 43.05 66.65 49.7 64.9 57.9 61.05 64 56.8 70.8 50 74.65 42.7 78.8 35.3 77.7 29.95 76.65 27.35 76.5 22.75 76.2 20.55 78.6 18.75 80.65 18.8 84.6 18.85 86.8 19.35 91.45 19.5 96.9 16 101.7 12.5 106.5 7.2 108.1 5.45 108.65 -1.35 109.45 -6.6 110.1 -9.3 111.9 -12 113.7 -13.85 117.3 -15.1 119.8 -16.4 124.2 -19.8 136 -22.5 150.85 -24.25 160.5 -26.75 177.95 -31.05 206.15 -34.05 227.25 -34.6 230.25 -34 232.6 -33.25 235.45 -31.05 236 -28.95 236.5 -26.75 234.45 -24.3 231.75 -23.15 230.5 -17.55 224.7 -8.65 228.6 -0.05 232.35 2.45 240.6 4.6 247.35 3.45 256.95 2.8 262.5 0.65 273.6 -3.8 304.45 11.35 335.65 25.7 365 52.5 385.2 68.7 397.35 92.55 408.4 102.15 412.85 135.65 426.45 163.35 437.7 169.9 440.15 189.45 447.45 205.05 450.9 224.5 455.05 241.85 454.45 261.45 453.75 277.65 447.05 289.7 442.05 312.2 426.15 334.1 410.75 347.05 405.75 347.55 405.55 364.95 400.15 375.7 396.8 382.05 392.85 389.5 388.1 397.9 377.95 402.55 372.3 411.95 360.9 417.85 354.55 431.15 343.7 444.6 332.7 450.45 326.45 460.15 316.25 466.55 303.5 472.95 290.8 475.4 276.95 476.6 268.2 477.35 263.9 478.6 256.3 480.8 251.3 483.15 245.85 489.8 237.35 496.95 228.2 499.25 223.65 508.5 205.95 501.15 179.4 498.85 171.1 493.5 158.2 486.7 141.8 485.1 137.25 476.05 111.45 476.2 83.9 476.2 76.45 477.1 70.9 478.15 63.95 480.8 58.5 483.85 52.35 488.9 48.35 494.35 44 500.6 43.4 506.25 42.9 506.95 42.75 510.45 42 511.5 39.6 513.1 36 508.25 30.7 499.35 20.45 494.45 15.65 486.3 7.75 478.45 3.25 469.05 -2 459.05 -3 448.15 -4.1 439.5 0.3 430.9 6.2 426.6 9 419 13.9 412.95 13.15 406.8865234375 12.4673828125 400.9 6.2 399.45703125 4.6705078125 398 2.8 393.2009765625 -3.3736328125 389.85 -10.4 386.313671875 -17.9341796875 384.45 -26.45 380.85 -42.9 384.5 -58.8 388.15 -74.75 398.55 -88.05 408.95 -101.3 423.55 -108.75 426.2 -110.1 427.2 -110.85 429.05 -112.25 429.5 -114.05 430.15 -116.5 428.3 -119.15 427.1 -120.9 424.1 -123.4 409.35 -135.6 403.85 -155.2 398.4 -174.75 404.75 -192.8 406.25 -197.15 406.4 -199.6 406.65 -203.45 404.3 -205.3 402 -207 398.35 -206 396.3 -205.45 392.15 -203.25 386.25 -200.15 379.55 -199 372.85 -197.9 366.3 -199 359.55 -200.45 356.25 -200.75 350.5 -201.2 347.05 -198.75 344.65 -197.2 343 -194 342.05 -192.1 340.65 -187.95 332 -161.8 309.8 -94.15 306.35 -83.8 303.7 -78.65 299.45 -70.5 293.5 -66.15 286.55 -61.1 277.65 -62.65 268.35 -64.25 265.8 -71.85 264.85 -74.8 265.1 -80.65 265.4 -86.85 264.7 -89.65 243.25 -84.5 232.2 -79.95 214.8 -72.75 204.95 -61.4 202.35 -58.35 192.9 -43.8 185.8 -32.8 179.1 -28 173.95 -24.35 166.75 -22.2 161.1 -20.55 153.1 -19.55 137.3 -17.7 124.7 -20.6 109.55 -24.05 101.25 -34.05 92.65 -44.35 91.85 -60.8 91.25 -73.45 95.4 -90.55 96.85 -96.5 93.9 -98.1 91.4 -99.3 87.5 -95.95
L 52.75 -66.25
M 83.25 -24.75
Q 83.25 -29.35 84.4 -32.55 85.84375 -36.496484375 88.95 -37.7 94.0556640625 -28.3544921875 102.6 -21.6 114.6 -12.1 131.1 -9.25 146.65 -6.6 162.55 -10.45 182.35 -15.3 193.05 -27.65 196.5 -31.7 201.3 -40.2 202.55703125 -42.4333984375 203.65 -44.35 206.6640625 -47.13671875 207.7 -48 213.35 -52.65 218.7 -54.3 222.5 -55.5 228.55 -55.8 237.4 -56.2 238.6 -56.35 244.4 -57 246.5 -56.8 250.9 -56.5 252.9 -53.85 254.85 -51.4 254.4 -45.7 253.9 -39.35 254.9 -37 256.45 -33.1 262 -31 265.15 -29.8 271.9 -27.9 280 -24.85 284.4 -16.5 288.75 -8.15 286.65 0.1 303.95 -8.2 316.45 -23.6 328.95 -38.95 333.65 -57.7 334.75 -61.9 338.25 -85 340.8 -101.7 345.7 -111.25 349.85 -119.4 357.9 -127.7 362.7 -132.65 373.25 -141.6 375.4 -143.3 376.75 -143.9 378.85 -144.9 380.55 -144.3 382.35 -143.7 383.45 -141.5 384.1 -140.25 384.95 -137.25 387.45 -127.5 393.4 -119.7 394.85 -117.65 397.9 -113.5 400.3 -109.8 400.6 -106.65 400.745703125 -104.9755859375 400.35 -103.2 396.30078125 -99.4953125 392.65 -95.15 381.3 -81.7 376.85 -65.25 372.45 -48.8 375.5 -31.45 378.5 -14.1 388.2 -0.2 386.184765625 1.17890625 385.85 3.7 385.703515625 4.7904296875 385.85 6.05 386.25 9.9 388.8 13.25 392.5431640625 18.0833984375 398 20.9 400.05546875 21.971484375 402.35 22.75 405.921875 23.969140625 409.45 24.25 410.0818359375 27.489453125 410.75 34.25 411.45 41.45 413.1 45.45 416.8 54.25 426.9 57.5 436.95 60.75 445.05 55.8 449.7 52.9 450.45 52.55 453.6 51.15 455.95 52.3 459.3 54.05 458.3 58.9 457.45 62.8 454.35 66.9 446.9 77.15 443.5 88.05 439.75 100.15 441.75 111.25 443.35 120 450 132.1 459.7 149.75 460.8 152.2 467.6 168.05 466.6 185.9 465.6 203.75 457.05 218.7 451.4 228.75 434.85 246.5 420.49140625 261.98046875 414.45 272.2 410.841015625 282.747265625 406.3 291.8 405.0447265625 295.748828125 403.7 300.3 398.5 318 394.3 326.1 387.5 339.3 374.95 346.05 361.35 353.45 349.75 347.6 336.65 377.15 308.55 396.05 280.4 415 248.15 416 238.05 416.3 223.45 414.7 207.1 412.65 198.9 411.85 179.2 410.1 176.3 409.65 163.6 407.75 154.9 403.4 143.2 397.45 133.1 384.4 126.8 376.2 117.3 359.2 121.65 370.65 127.55 387.1 128.05 388.45 128.15 389.1 128.35 390.25 128 391.15 127.25 392.9 124.8 393 122.8 393.05 120.45 392.05 96.6 382.05 77.05 364.5 57.5 346.9 45.1 324.2 32.8 301.55 28.6 275.55 24.45 249.65 29 224.2 31.85 208.3 32.1 204.15 32.75 192.75 28.1 185.5 25.6 183.9 20.8 186.35 15.15 189.3 12.9 189.1 8.2 188.65 5.5 181.65 1.35 170.35 5.55 158.15 9.75 145.95 20 139.6 28.65 135.2 32.6 132.7 39.5 128.3 40.7 122.6 40.9 121.7 41 116.25 41.1 112.4 42.5 110.35 43.65 108.45 46.3 107.1 47 106.75 51.15 105.15 67 99.1 76.65 81.85 85.25 66.5 86.7 47 87.65 33.9 85.5 11.15 83.15 -14.5 83.25 -24.75 Z"/>

<path fill="#FFFFFF" stroke="none" d="
M 242.4 -19.35
Q 240.2 -21.65 238.8 -22.65 236.65 -24.25 234.55 -24.4 231.5 -24.7 228.45 -22.2 226.5 -20.65 223.65 -16.95 206.35 5.95 182 23.25 177.5 26.4 174.25 27.65 169.75 29.45 165.9 28.45 162 27.5 158.4 23.45 157.55 22.45 152.75 15.75 149.65 11.25 145.9 8.95 141.35 6.15 137.25 7.65 134.95 8.45 133 10.75 131.6 12.35 129.9 15.3 124.75 24.4 115.2 46.6 106.4 67.05 99.9 77.5 95.85 84.05 89.4 92.55 85.65 97.45 78.05 107.1 64.3 125 59.05 138.15 51.25 157.55 52.4 187 52.7 195.45 54.25 212.3 55.75 229.25 56.1 237.6 56.3 242.3 56.25 267.65 56.2 285.95 57.7 297.55 59.85 313.75 65.7 326.55 72.45 341.25 83.55 349.95 86.9 352.55 88.95 351.75 91.7 350.65 91.9 345.7 94.5 305.85 95.7 285.95 105.35 319.05 124.65 345.2 145.5 373.35 173.7 387.9 203.85 403.4 237.95 400.25 273.4 396.95 296.65 374.6 302.55 368.95 310.95 358.55 322.05 344.85 324.75 341.8 341.55 322.9 358.3 319.8 360.85 319.3 371.7 318.6 379.95 318.05 384.75 316.1 391.3 313.5 396.8 307.05 401.05 302.05 405.2 294.05 405.771484375 292.94921875 406.3 291.8 410.841015625 282.747265625 414.45 272.2 421.0712890625 253.0771484375 424.75 229.15 426.9 215.4 428.8 194.95 430.85 172 432 160.65 433.4 145.8 433.4 139.35 433.35 127.45 430.05 118.65 427.8 112.55 422.95 105.6 420.85 102.55 413.75 93.6 391.2 64.65 374.75 31.6 358.3 -1.45 348.85 -36.75 348.05 -40 346.55 -42.05 344.65 -44.65 342.2 -44.4 339.4 -44.05 338.45 -40.5 337.7 -37.9 338.05 -33.95 340.55 -7.5 323.3 15.7 306.05 38.85 279.9 44.1 278.45 27.35 266.8 9.85 259.25 -1.5 242.4 -19.35 Z"/>
</g>
</defs>

<g transform="matrix( 0, 0.2122802734375, 0.2408905029296875, 0, 448.2,447.35) ">
<g transform="matrix( 1, 0, 0, 1, 0,0) ">
<use xlink:href="#rag_fire_3_Layer0_0_FILL"/>
</g>
</g>
</svg>
