
<svg xmlns="http://www.w3.org/2000/svg" version="1.1" xmlns:xlink="http://www.w3.org/1999/xlink" preserveAspectRatio="none" x="0px" y="0px" width="1000px" height="1000px" viewBox="0 0 1000 1000">
<defs>
<linearGradient id="Gradient_1" gradientUnits="userSpaceOnUse" x1="43.5125" y1="51.1375" x2="41.3875" y2="204.16250000000002" spreadMethod="pad">
<stop  offset="0.39215686274509803%" stop-color="#000000"/>

<stop  offset="17.647058823529413%" stop-color="#2A2A2A"/>

<stop  offset="39.6078431372549%" stop-color="#FF0000"/>

<stop  offset="60%" stop-color="#FF6000"/>

<stop  offset="77.25490196078431%" stop-color="#FFC400"/>

<stop  offset="100%" stop-color="#FFFFFF"/>
</linearGradient>

<linearGradient id="Gradient_2" gradientUnits="userSpaceOnUse" x1="43.15" y1="32.075" x2="43.15" y2="61.825" spreadMethod="pad">
<stop  offset="16.470588235294116%" stop-color="#2C2623"/>

<stop  offset="100%" stop-color="#79725F"/>
</linearGradient>

<linearGradient id="Gradient_3" gradientUnits="userSpaceOnUse" x1="17.7875" y1="3.5" x2="23.4125" y2="3.5" spreadMethod="pad">
<stop  offset="0%" stop-color="#999999"/>

<stop  offset="100%" stop-color="#D4D4D4"/>
</linearGradient>

<linearGradient id="Gradient_4" gradientUnits="userSpaceOnUse" x1="61.425" y1="2.55" x2="66.675" y2="2.55" spreadMethod="pad">
<stop  offset="0%" stop-color="#999999"/>

<stop  offset="100%" stop-color="#D4D4D4"/>
</linearGradient>

<linearGradient id="Gradient_5" gradientUnits="userSpaceOnUse" x1="41.125" y1="3.25" x2="47.875" y2="3.25" spreadMethod="pad">
<stop  offset="0%" stop-color="#999999"/>

<stop  offset="100%" stop-color="#D4D4D4"/>
</linearGradient>

<linearGradient id="Gradient_6" gradientUnits="userSpaceOnUse" x1="39.4" y1="-4.6000000000000005" x2="39.4" y2="16.2" spreadMethod="pad">
<stop  offset="0%" stop-color="#999999"/>

<stop  offset="100%" stop-color="#D4D4D4"/>
</linearGradient>

<g id="Symbol_4_0_Layer2_0_FILL">
<path fill="#000000" stroke="none" d="
M 47.95 2.25
Q 45.2 0.45 43.15 0 41.1 0.45 38.35 2.25 31.8 6.55 29.1 11.35 26.4 16.1 31.9 22.05 37.45 28 35.7 36.75 34 45.5 30.45 48.55 26.9 51.65 11.65 60.25 -3.6 68.85 1.1 84.65 5.85 100.45 11.6 94.1 17.3 87.75 20.6 85 23.9 82.3 28.15 86.85 32.35 91.4 25.85 94.1 19.3 96.75 19.05 108.45 18.8 120.15 18.2 147.95 17.6 175.75 16.25 184.8 14.95 193.8 20.85 203.75 26.7 213.65 33.8 223.4 40.25 232.35 43.15 233.8 46.05 232.35 52.5 223.4 59.6 213.65 65.5 203.75 71.35 193.8 70.05 184.8 68.7 175.75 68.1 147.95 67.5 120.15 67.25 108.45 67 96.75 60.45 94.1 53.95 91.4 58.15 86.85 62.4 82.3 65.7 85 69 87.75 74.7 94.1 80.45 100.45 85.2 84.65 89.9 68.85 74.65 60.25 59.4 51.65 55.85 48.55 52.3 45.5 50.6 36.75 48.85 28 54.4 22.05 59.9 16.1 57.2 11.35 54.5 6.55 47.95 2.25
M 43.15 10.65
Q 43.1970703125 10.66171875 43.25 10.65 43.3087890625 10.697265625 43.35 10.7 43.4423828125 10.755078125 43.5 10.8
L 45.35 11.85
Q 45.780078125 12.1103515625 46.25 12.4
L 46.25 12.4
Q 46.49765625 12.5859375 46.75 12.75 50 14.9 50.5 15.55 44.6 20 46 31.3 47.4 42.55 47.4 47.55 47.4 52.55 53.9 55.95 59.5619140625 58.9552734375 68.4 64.8 69.7205078125 65.6716796875 71.1 66.6 82.1 74.1 77.2 87.1 72.794140625 79.2546875 68.55 75.1 66.4365234375 73.0580078125 60.4 72.05 54.322265625 71.017578125 44.3 71.05 43.8716796875 71.0513671875 43.45 71.05 34.744140625 71.118359375 28.9 71.95 21.7892578125 72.9955078125 18.9 75.15 14.2322265625 78.696875 10.3 85.05 9.693359375 86.0419921875 9.1 87.1 4.2 74.1 15.2 66.6 25.9 59.4 32.4 55.95 38.9 52.55 38.9 47.55 38.9 47.3109375 38.9 47.05 38.90546875 46.64140625 38.9 46.2 39.0625 41.502734375 40.1 32.65 40.2134765625 31.9947265625 40.3 31.3 41.35625 22.7740234375 38.3 18.15
L 38.25 18.15
Q 37.8263671875 17.4666015625 37.3 16.85
L 36.1 15.75
Q 35.98515625 15.6529296875 35.85 15.55 36.3 14.9 39.55 12.75 42.55 10.8 43.15 10.65
M 34.8 79.65
Q 34.2736328125 78.2859375 33.45 77.3 33.5890625 77.25859375 33.7 77.2 38.75234375 75.7625 43.45 75.75 48.339453125 75.7431640625 52.85 77.3 52.0263671875 78.2859375 51.5 79.65 51.37421875 79.9693359375 51.25 80.25 45.4634765625 95.7748046875 58.4 101.9 57.75 109.45 59.15 146.65 60.55 183.1 59.75 190.2 59.65 191.15 51.4 208.1 45.8677734375 219.5365234375 43.5 225.85 43.3115234375 226.35078125 43.15 226.8 43.040234375 226.4947265625 42.9 226.15 40.5662109375 219.81328125 34.9 208.1 26.65 191.15 26.55 190.2 25.8 183.1 27.15 146.65 28.55 109.45 27.9 101.9 41.1 95.65 34.8 79.65 Z"/>

<path fill="url(#Gradient_1)" stroke="none" d="
M 43.15 226.8
Q 43.3115234375 226.35078125 43.5 225.85
L 42.9 226.15
Q 43.040234375 226.4947265625 43.15 226.8
M 51.25 80.25
L 43.45 87.3
Q 43.45 91.0888671875 43.45 94.85 43.45 102.65 43.45 110.5 43.45 118.15 43.45 125.75 43.45 132.85 43.45 139.9 43.45 147.3 43.45 154.75 43.45 162.4 43.45 170.05 43.45 177.45 43.45 184.9 43.45 192.35 43.45 199.8 43.45 207.25 43.5 214.7 43.5373046875 220.383984375 43.5 225.85 45.8677734375 219.5365234375 51.4 208.1 59.65 191.15 59.75 190.2 60.55 183.1 59.15 146.65 57.75 109.45 58.4 101.9 45.4634765625 95.7748046875 51.25 80.25
M 34.8 79.65
L 35.45 79 43.45 87.1
Q 43.45 87.219921875 43.45 87.3
L 51.25 80.25
Q 51.37421875 79.9693359375 51.5 79.65 52.0263671875 78.2859375 52.85 77.3 48.339453125 75.7431640625 43.45 75.75 38.75234375 75.7625 33.7 77.2 33.5890625 77.25859375 33.45 77.3 34.2736328125 78.2859375 34.8 79.65 Z"/>

<path fill="#FFFFFF" stroke="none" d="
M 35.45 79
L 34.8 79.65
Q 41.1 95.65 27.9 101.9 28.55 109.45 27.15 146.65 25.8 183.1 26.55 190.2 26.65 191.15 34.9 208.1 40.5662109375 219.81328125 42.9 226.15
L 43.5 225.85
Q 43.5373046875 220.383984375 43.5 214.7 43.45 207.25 43.45 199.8 43.45 192.35 43.45 184.9 43.45 177.45 43.45 170.05 43.45 162.4 43.45 154.75 43.45 147.3 43.45 139.9 43.45 132.85 43.45 125.75 43.45 118.15 43.45 110.5 43.45 102.65 43.45 94.85 43.45 91.0888671875 43.45 87.3 43.45 87.219921875 43.45 87.1
L 35.45 79
M 38.9 47.05
Q 38.9 47.3109375 38.9 47.55 38.9 52.55 32.4 55.95 25.9 59.4 15.2 66.6 4.2 74.1 9.1 87.1 9.693359375 86.0419921875 10.3 85.05 9.101171875 84.66015625 10.05 78.15 10.98671875 71.630078125 26.4 63.85 41.8640625 56.078125 41.2 45.35 40.59609375 34.618359375 40.1 32.65 39.0625 41.502734375 38.9 46.2 38.90546875 46.64140625 38.9 47.05
M 43.25 10.65
Q 43.1970703125 10.66171875 43.15 10.65 42.55 10.8 39.55 12.75 36.3 14.9 35.85 15.55 35.98515625 15.6529296875 36.1 15.75
L 37.3 16.85
Q 37.8263671875 17.4666015625 38.25 18.15
L 38.3 18.15
Q 40.8724609375 16.733984375 43.4 14.7 44.8138671875 13.5587890625 46.25 12.4
L 46.25 12.4
Q 45.780078125 12.1103515625 45.35 11.85
L 43.5 10.8
Q 43.4423828125 10.755078125 43.35 10.7 43.3087890625 10.697265625 43.25 10.65 Z"/>

<path fill="url(#Gradient_2)" stroke="none" d="
M 46.75 12.75
Q 46.49765625 12.5859375 46.25 12.4 44.8138671875 13.5587890625 43.4 14.7 40.8724609375 16.733984375 38.3 18.15 41.35625 22.7740234375 40.3 31.3 40.2134765625 31.9947265625 40.1 32.65 40.59609375 34.618359375 41.2 45.35 41.8640625 56.078125 26.4 63.85 10.98671875 71.630078125 10.05 78.15 9.101171875 84.66015625 10.3 85.05 14.2322265625 78.696875 18.9 75.15 21.7892578125 72.9955078125 28.9 71.95 34.744140625 71.118359375 43.45 71.05 43.8716796875 71.0513671875 44.3 71.05 54.322265625 71.017578125 60.4 72.05 66.4365234375 73.0580078125 68.55 75.1 72.794140625 79.2546875 77.2 87.1 82.1 74.1 71.1 66.6 69.7205078125 65.6716796875 68.4 64.8 59.5619140625 58.9552734375 53.9 55.95 47.4 52.55 47.4 47.55 47.4 42.55 46 31.3 44.6 20 50.5 15.55 50 14.9 46.75 12.75 Z"/>
</g>

<g id="Symbol_4_0_Layer1_0_FILL">
<path fill="#000000" stroke="none" d="
M 31.35 198.05
Q 27.45 197.95 24.85 200.7 23.35 202.25 27.5 203.9 31.6 205.55 33.25 203.95 35.65 201.65 36.85 198.8 36.8 198.65 34.4 198.35 32.1 198.05 31.35 198.05
M 43.5 211.5
Q 45.9 215.9 46.55 217.2 45.95 218.35 45.2 219.45 44.7 220.2 47.35 218.55 49.9 216.95 50 216.05 49.25 215.25 46.35 210.55 43.15 205.4 42.55 204.6 46.4 197 45.95 195.45 45.65 195.4 43.2 199.9 40.95 204.1 40.25 205.75 41 206.95 43.5 211.5
M 59.8 185.95
Q 56.55 186.35 55.7 186.95 57.7 189.55 60.75 190.55 61.8 190.9 62.8 188.4 63.85 185.9 63.3 185.6 61.5 185.75 59.8 185.95
M 44.25 166.6
Q 42.75 163.5 41.25 160.45 39.65 157.1 38.05 153.5
L 42.8 166.85
Q 43.6 169.5 50.75 169.25 51.2 170.8 52.15 175.45 51.6 175.8 48.75 178.3 45.55 181.1 44.2 182.45 42.65 181.45 41.55 180.8 39.4 179.5 39.3 179.75 39.85 180.9 44.95 184.8 50.25 182.2 55.65 179.1 63.3 174.55 64 172.75 59 171.6 54 174.3 53.7 168.9 54.15 166.9 52.5 166.35 50.4 166.8 49.45 167.05 46.9 166.9 45.35 166.8 44.25 166.6
M 40.4 136.3
L 24.75 147.55 24.5 152.7
Q 24.45 153.45 25.85 153.75 27.2 154 27.25 153.3
L 27.05 148.15
Q 33.15 143.95 37.05 140.7 40.9 137.45 40.4 136.3 Z"/>
</g>

<g id="Symbol_4_0_Layer0_0_FILL">
<path fill="#000000" stroke="none" d="
M 25.7 -15.85
Q 22.85 -8.15 22.2 -3.15 21.45 -3.25 19.55 -2.3 17.7 -1.35 17.25 -0.75 16.25 0.75 16 2.85 15.8 4.95 16.45 6.8 17.1 8.65 18.5 9.75 19.9 10.9 21.45 10.9 21.7 10.9 24.6 20.25
L 63 20.25
Q 64.55 14.75 64.95 8.75 65.8 8.55 67.35 5.5 68.95 2.3 68.55 0.8 68.3 -0.1 66.75 -1.6 65.25 -3.05 64.7 -3.15 64.15 -8 62.45 -14.75 43.8 -18.496875 25.7 -15.85
M 31.35 -10.15
L 36.1 -10.15 45.4 -10.15 55.5 -10.15
Q 61.45 1.6 55.5 17.3
L 43.2 17.3 34.95 17.3 31.35 17.3
Q 23.95 3.6 31.35 -10.15
M 64.25 5.45
Q 61.55 7.2 61.45 3.2 61.35 -0.45 64 -0.85 69.25 2.3 64.25 5.45
M 21.05 0
Q 25 1.45 22.45 5.35 20.05 9 18.15 4.65 17.95 4.2 17.8 3.7 17.95 3.2 18.1 2.75 18.75 1.15 20 0.45 20.5 0.15 21.05 0
M 46.6 -2.9
Q 46.1 -3.2 45.6 -3.3 44.8 -3.5 44 -3.4 42.2 -3.15 40.75 -1.4 39.4 0.35 39.1 2.7 38.9 4.55 39.45 6.4 40 8.25 41.1 9.45 42.55 10.95 44.45 11 46.4 11.05 47.9 9.65 49.35 8.25 49.9 5.85 50.45 3.4 49.8 1.2 49.15 -1 47.5 -2.35 47.4 -2.45 47.25 -2.5 46.9 -2.75 46.6 -2.9
M 45 6.9
Q 41.8 9.25 41.25 4.45 40.65 -0.45 44.55 -1.15 51.05 2.5 45 6.9 Z"/>

<path fill="url(#Gradient_3)" stroke="none" d="
M 22.45 5.35
Q 25 1.45 21.05 0 20.5 0.15 20 0.45 18.75 1.15 18.1 2.75 17.95 3.2 17.8 3.7 17.95 4.2 18.15 4.65 20.05 9 22.45 5.35 Z"/>

<path fill="url(#Gradient_4)" stroke="none" d="
M 61.45 3.2
Q 61.55 7.2 64.25 5.45 69.25 2.3 64 -0.85 61.35 -0.45 61.45 3.2 Z"/>

<path fill="url(#Gradient_5)" stroke="none" d="
M 41.25 4.45
Q 41.8 9.25 45 6.9 51.05 2.5 44.55 -1.15 40.65 -0.45 41.25 4.45 Z"/>

<path fill="#666666" stroke="none" d="
M 55.5 -10.15
L 45.4 -10.15
Q 45.65 -6.7 45.6 -3.3 46.1 -3.2 46.6 -2.9 46.9 -2.75 47.25 -2.5 47.4 -2.45 47.5 -2.35 49.15 -1 49.8 1.2 50.45 3.4 49.9 5.85 49.35 8.25 47.9 9.65 46.4 11.05 44.45 11 43.9 14.15 43.2 17.3
L 55.5 17.3
Q 61.45 1.6 55.5 -10.15 Z"/>

<path fill="url(#Gradient_6)" stroke="none" d="
M 36.1 -10.15
Q 35 -5.75 34.05 -1.2 32.2 7.4 34.45 15.55 34.65 16.45 34.95 17.3
L 43.2 17.3
Q 43.9 14.15 44.45 11 42.55 10.95 41.1 9.45 40 8.25 39.45 6.4 38.9 4.55 39.1 2.7 39.4 0.35 40.75 -1.4 42.2 -3.15 44 -3.4 44.8 -3.5 45.6 -3.3 45.65 -6.7 45.4 -10.15
L 36.1 -10.15 Z"/>

<path fill="#FFFFFF" stroke="none" d="
M 36.1 -10.15
L 31.35 -10.15
Q 23.95 3.6 31.35 17.3
L 34.95 17.3
Q 34.65 16.45 34.45 15.55 32.2 7.4 34.05 -1.2 35 -5.75 36.1 -10.15 Z"/>
</g>
</defs>

<g transform="matrix( 0.774139404296875, 0, 0, 0.774139404296875, 471.2,348.9) ">
<g transform="matrix( 1, 0, 0, 1, 0,0) ">
<use xlink:href="#Symbol_4_0_Layer2_0_FILL"/>
</g>

<g transform="matrix( 1, 0, 0, 1, 0,0) ">
<use xlink:href="#Symbol_4_0_Layer1_0_FILL"/>
</g>

<g transform="matrix( 1, 0, 0, 1, 0,0) ">
<use xlink:href="#Symbol_4_0_Layer0_0_FILL"/>
</g>
</g>
</svg>
