
<svg xmlns="http://www.w3.org/2000/svg" version="1.1" xmlns:xlink="http://www.w3.org/1999/xlink" preserveAspectRatio="none" x="0px" y="0px" width="1000px" height="1000px" viewBox="0 0 1000 1000">
<defs>
<g id="rag_fire_2_Layer0_0_FILL">
<path fill="#FF6600" stroke="none" d="
M -78.4 42.75
Q -75.45 41.7 -74.9 36.2 -73.85 24.05 -79.65 18.55 -80.45 17.75 -81.55 17.2 -83.5 16.6 -86.05 18.1 -90.15 20.55 -90.75 24.05 -91.2 26.15 -90.1 28.65 -88.75 32 -85.05 33.5 -85.6 37.75 -84.25 40.25 -83.35 41.85 -81.7 42.6 -79.95 43.4 -78.4 42.75
M 101.1 -149.25
Q 99.3 -149.95 96.95 -149.2 95.4 -148.7 92.9 -147.25 85.6 -142.95 71.2 -134.65 62.35 -129.45 58.2 -126.15 51.55 -120.75 48.7 -114.5 45.05 -106.8 46.4 -96 47.2 -89.4 51.05 -77.05 57.1 -57.65 57.3 -43.85 57.65 -25.25 47.8 -14.05 43.4 -9.05 33.55 -3 22.4 3.9 18.65 7.3 -3.65 27.7 4.5 76.8 5.55 82.9 7.85 95.2 9.75 106.15 10.45 113.8 12.4 134.9 6.75 149.85 3.8 157.5 -1.85 165.75 -5.65 171.25 -13.05 180.2
L -37.9 210.8
Q -40.9 214.3 -42.25 216.65 -44.25 220.15 -44.4 223.4 -44.7 228 -41.2 233.35 -39.2 236.45 -34.65 242.4 -30.1 249.3 -28 259.65 -26.9 265 -25.6 278.6 -24.4 290.8 -22.7 297.2 -20.1 307 -14.6 313.3 -9.45 319.1 0.8 324.4 18.05 333.25 18.1 333.3 29 340.05 38.7 352.6 44.75 360.4 54.65 376.95 64.95 394.15 70.45 401.5 80.05 414.4 90.65 421.5 105.55 431.6 127.9 434.45 142.2 436.25 168.5 435.35 284.3 431.5 308.35 430.75 321.1 430.3 327.35 429.55 337.9 428.25 345.7 425 360.45 419.1 375.4 402 379.25 397.6 387.75 386.85 395.6 376.95 400.15 371.9 411.1 359.8 435.65 340.4 460.95 320.4 471.45 309.25 491.35 288.15 492.05 268.3 492.3 260.2 488.8 247.3 484.5 231.55 483.85 226.45 482 212.65 486.8 198.95 491.6 185.35 501.75 175.6 503.5 173.9 513.35 165.9 520.5 160.05 523.9 155.25 528.5 148.65 528.5 140.8 528.5 132.25 522.65 128.1 519.6 125.9 512.75 124.55 505.35 123.05 502.5 121.5 498.75 119.35 495.7 114.6 494.1 112.15 490.95 105.75 477.45 79.25 471.2 65.85 460.3 42.35 457.4 24.15 453.65 1.05 462.55 -19.75 472.2 -42.25 492.15 -49.35 495 -50.5 496.05 -51.15 498 -52.4 498.45 -54.2 498.85 -56.1 497.3 -58.25 497.2 -58.35 494.2 -61.75 487.9 -68.75 489.55 -81.5 490.1 -85.95 491.85 -92.7 492.85 -96.45 494.75 -103.7 497.05 -112.5 493.2 -116.55 491.3 -118.5 487.95 -119.15 485.85 -119.55 481.95 -119.55 461.25 -119.8 443.8 -122.15 438.9 -122.8 435.95 -123.8 431.75 -125.25 429.4 -127.9 427.3 -130.5 426 -135.5 424.15 -142.55 423.65 -143.75 421.3 -149.2 413.95 -155.3 404.35 -163.25 402.3 -165.7 397.15 -171.9 392.85 -186.75 388.3 -202.4 383.95 -208.45 380.95 -212.6 377.85 -212.5 375.85 -212.5 374.1 -210.75 372.65 -209.35 371.55 -207 367.1 -198.3 366.1 -188.3 365.1 -178.35 367.75 -168.95 368.35 -166.8 374.15 -152.15 378.2 -142 378.3 -135 378.5 -125.9 373.4 -117.4 368.6 -109.35 360.55 -103.95 352.55 -98.6 343.5 -97.7 333.6 -96.65 326.55 -101.55 321.1 -105.35 317.3 -113.1 315.35 -117 311.6 -127.8 308.3 -137.3 305.55 -141.8 301.4 -148.65 295.2 -151.3 291.65 -152.85 287.95 -151.95 283.95 -150.95 283.25 -147.7 282.6 -144.6 285.5 -141.6 286.8 -140.25 291.35 -137 299.7 -131.05 303.3 -120.25 306.7 -110.15 304.95 -99.3 303.3 -89.55 297.85 -79.6 293.3 -71.4 285.75 -62.3 264.95 -37.5 240.95 -28.45 225.45 -22.55 202 -21.65 175.15 -21.6 161.85 -21 148.15 -20.35 147.45 -20.35 139.2 -20.2 133.2 -21.45 125.7 -23 119.95 -27.1 113.55 -31.6 111.15 -38 108.4 -45.25 110.9 -54.85 112.25 -60.15 117.6 -72 122.55 -83.1 123.75 -88.95 125.65 -98.1 121.95 -105.05 120.4 -108 115.5 -113.3 110.85 -118.3 109.35 -121.6 107.65 -125.25 107.2 -131.65 106.55 -140.25 106.2 -142.05 104.8 -148.1 101.1 -149.25
M 102.5 -101.6
Q 103.6 -104.4 105.4 -105.95 106.351953125 -106.833984375 107.45 -107.3 110.5015625 -101.7533203125 111.75 -98.5 112.820703125 -95.7357421875 113.4 -93.15 114.2859375 -89.00546875 113.95 -85.25 113.35 -78.8 107.4 -68.45 106.5728515625 -66.9974609375 105.8 -65.65 100.9001953125 -56.5900390625 99.9 -51.85 99.303125 -49.083984375 99.25 -46.35 99.2166015625 -37.171875 105.65 -28.35 113.45 -17.7 126.2 -13.05 136.65 -9.15 151.15 -8.8 156.8 -8.7 176.95 -9.75 205.65 -11.1 206.25 -11.1 216.493359375 -11.894921875 225 -13.55 230.399609375 -14.5708984375 235.1 -15.95 261.75 -23.75 283.25 -46.25 296.5875 -60.1306640625 306.25 -77.7 307.4744140625 -77.010546875 308.65 -75.7 311.1 -72.85 312.4 -68.4 318.3 -48.45 318.3 -27.45 318.25 -6.45 312.3 13.35 331 15.85 351 -9.3 365.55 -27.9 376.4 -48.95 387.3 -70.1 393.95 -92.7 397.05 -89.8 398 -84.55 398.7 -80.9 398.45 -74.8
L 396.55 -19.8
Q 409.55 -25.45 418.6 -37 427.65 -48.6 429.95 -62.55 430.65 -66.65 431.45 -75 432.5 -82.25 435 -86.7 444.3 -74.1 447.45 -58.1 450.55 -42.2 446.85 -26.85 444.75 -18.2 438.3 -4.05 431.05 11.9 428.95 18.55 422.8 37.55 425.45 58.05 428.1 78.5 438.85 95.4 441.45 99.5 452.7 114.2 461.45 125.6 465.15 133.75 471.65 148.05 469.9 164.45 468.1 180.8 458.65 193.35 457.65 194.65 448.7 204.9 442.6 211.8 440.1 217.2 437.45 222.95 436.5 231.65 435.9 236.65 435.25 246.7 433.15 269.85 421.85 290.9 410.55 311.8 392.4 326.35 384.35 332.35 380.35 335.35 373.25 340.7 369.1 345.15 364.8 349.75 359.35 358.25 352.2 369.4 350.3 372 343.15 381.8 331.75 391.75 324.65 398 310.35 408.7 303.140234375 414.0962890625 298.95 416.85 276.5033203125 417.6615234375 256.75 418.35 237.7822265625 419.0267578125 221.3 419.6 201.7359375 420.3310546875 185.7 420.9 183.2193359375 419.230859375 181 417.25 178.1 414.65 170 404.8 163.45 396.8 158.15 393.5 151.4 389.4 140.15 388.1 127.15 387.25 120.8 386.4 100.15 383.65 80.6 369.95 63.5 357.95 48.9 338.85 42.8 330.85 39.45 324.3 35.1 315.9 34.05 308 33.75 305.45 33.65 296.9 33.6 289.95 32.5 285.85 31 280 26.35 273.25 25.25 271.65 17.5 261.75 12.1 254.9 9.85 250.2 6.8 243.6 7.5 237.35 8.1 232.2 13.6 222.25 18.85 212.7 19.1 207.1 19.1 203.65 19.1 201.95 19.1 198.9 20 197.1 21.85 193.5 27.1 192.35 29.35 191.85 36.65 191.55 44.4 191.2 51 188 58.05 184.6 61.95 178.65 67.3 170.5 65.95 159.05 64.75 149.15 58.95 139.05 57.65 136.8 47.5 121.55 40.45 110.95 37.65 103.25 32.75 89.45 35.2 71.35 36.8 59.55 43.05 39.25 44.1 36.15 45 34.5 46.45 32 48.45 31.05 51.6 29.65 56.9 32.2 63.4 35.3 65.8 35.4 71.95 35.7 74.95 28.8 77.7 22.35 75.8 15.6 75.55 14.65 70.9 3.4 67.9 -3.85 68.25 -9 68.7 -14.85 73.4 -21.8 76.05 -25.75 81.9 -33.5 85.8 -39.45 88.6 -47.85 90.3 -52.9 92.8 -63.3
L 100.9 -96.4
Q 101.85 -100.05 102.5 -101.6
M 75.45 -237.7
Q 77.65 -237.4 80.05 -238.9 81.45 -239.75 84 -242.1 91.5 -249.2 100.8 -254.9 103.3 -256.5 104 -257.05 105.7 -258.4 106.4 -259.85 107.65 -262.15 106.8 -265 106 -267.7 103.8 -269.55 100.35 -272.55 93.7 -272.55 90.35 -272.55 88.4 -271.8 86 -270.95 82.65 -267.6 74.85 -259.6 71.55 -251.3 69.7 -246.75 70.3 -243.3 70.65 -241.2 72.05 -239.65 73.5 -238.05 75.45 -237.7 Z"/>

<path fill="#FFCC00" stroke="none" d="
M 105.4 -105.95
Q 103.6 -104.4 102.5 -101.6 101.85 -100.05 100.9 -96.4
L 92.8 -63.3
Q 90.3 -52.9 88.6 -47.85 85.8 -39.45 81.9 -33.5 76.05 -25.75 73.4 -21.8 68.7 -14.85 68.25 -9 67.9 -3.85 70.9 3.4 75.55 14.65 75.8 15.6 77.7 22.35 74.95 28.8 71.95 35.7 65.8 35.4 63.4 35.3 56.9 32.2 51.6 29.65 48.45 31.05 46.45 32 45 34.5 44.1 36.15 43.05 39.25 36.8 59.55 35.2 71.35 32.75 89.45 37.65 103.25 40.45 110.95 47.5 121.55 57.65 136.8 58.95 139.05 64.75 149.15 65.95 159.05 67.3 170.5 61.95 178.65 58.05 184.6 51 188 44.4 191.2 36.65 191.55 29.35 191.85 27.1 192.35 21.85 193.5 20 197.1 19.1 198.9 19.1 201.95 19.1 203.65 19.1 207.1 18.85 212.7 13.6 222.25 8.1 232.2 7.5 237.35 6.8 243.6 9.85 250.2 12.1 254.9 17.5 261.75 25.25 271.65 26.35 273.25 31 280 32.5 285.85 33.6 289.95 33.65 296.9 33.75 305.45 34.05 308 35.1 315.9 39.45 324.3 42.8 330.85 48.9 338.85 63.5 357.95 80.6 369.95 100.15 383.65 120.8 386.4 127.15 387.25 140.15 388.1 151.4 389.4 158.15 393.5 163.45 396.8 170 404.8 178.1 414.65 181 417.25 183.2193359375 419.230859375 185.7 420.9 201.7359375 420.3310546875 221.3 419.6 237.7822265625 419.0267578125 256.75 418.35 276.5033203125 417.6615234375 298.95 416.85 303.140234375 414.0962890625 310.35 408.7 324.65 398 331.75 391.75 343.15 381.8 350.3 372 352.2 369.4 359.35 358.25 364.8 349.75 369.1 345.15 373.25 340.7 380.35 335.35 384.35 332.35 392.4 326.35 410.55 311.8 421.85 290.9 433.15 269.85 435.25 246.7 435.9 236.65 436.5 231.65 437.45 222.95 440.1 217.2 442.6 211.8 448.7 204.9 457.65 194.65 458.65 193.35 468.1 180.8 469.9 164.45 471.65 148.05 465.15 133.75 461.45 125.6 452.7 114.2 441.45 99.5 438.85 95.4 428.1 78.5 425.45 58.05 422.8 37.55 428.95 18.55 431.05 11.9 438.3 -4.05 444.75 -18.2 446.85 -26.85 450.55 -42.2 447.45 -58.1 444.3 -74.1 435 -86.7 432.5 -82.25 431.45 -75 430.65 -66.65 429.95 -62.55 427.65 -48.6 418.6 -37 409.55 -25.45 396.55 -19.8
L 398.45 -74.8
Q 398.7 -80.9 398 -84.55 397.05 -89.8 393.95 -92.7 387.3 -70.1 376.4 -48.95 365.55 -27.9 351 -9.3 331 15.85 312.3 13.35 318.25 -6.45 318.3 -27.45 318.3 -48.45 312.4 -68.4 311.1 -72.85 308.65 -75.7 307.4744140625 -77.010546875 306.25 -77.7 296.5875 -60.1306640625 283.25 -46.25 261.75 -23.75 235.1 -15.95 230.399609375 -14.5708984375 225 -13.55 216.493359375 -11.894921875 206.25 -11.1 205.65 -11.1 176.95 -9.75 156.8 -8.7 151.15 -8.8 136.65 -9.15 126.2 -13.05 113.45 -17.7 105.65 -28.35 99.2166015625 -37.171875 99.25 -46.35 99.303125 -49.083984375 99.9 -51.85 100.9001953125 -56.5900390625 105.8 -65.65 108.987890625 -76.2310546875 113.4 -93.15 112.820703125 -95.7357421875 111.75 -98.5 110.5015625 -101.7533203125 107.45 -107.3 106.351953125 -106.833984375 105.4 -105.95
M 94.85 -2.2
Q 98.1 -3.3 101.9 -2.55 121.05 0.95 173.7 10.8 183.006640625 12.476953125 189.55 13.45 189.3662109375 12.6998046875 189.2 11.9 187.95 6.5 188.85 3.15 189.45 0.85 191.1 -0.65 192.8 -2.3 194.95 -2.35 197.05 -2.45 199.6 -1 201.05 -0.15 203.95 1.8 207.65 4 215.55 4.7 226.55 5.4 237 4.05 238.5 5.55 237.8 7.95 237.15 10.2 235.2 11.35 232.4 12.95 226.8 12.45 228.8068359375 12.9041015625 230.5 13.35 239.6095703125 11.430078125 249.65 7.4 258.95 3.65 275.05 -4.6 279.8 -6.95 282.35 -7.8 286.55 -9.15 289.9 -8.55 296.55 -7.3 299.85 0.3 302.7 7 301.8 15.05 301.3 19.9 299.8 29.75 299.05 38.2 301.6 43.75 326.4 42.2 348.75 29.65 371.1 17.05 385.05 -3.35 386.4 -5.25 387.45 -6.1 389 -7.45 390.6 -7.4 392.8 -7.25 393.95 -4.7 394.85 -2.7 394.95 0.1 395.95 19.8 396.55 35.85 397.7 32.55 401.85 32.3 405.85 32 408.45 34.65 410.7 36.9 411.85 40.7 412.5 43 413.1 47.8 424.2 146.45 425.8 161.1 428.9 187.7 428.6 202.4 428.2 225.35 420.95 242.2 411.95 263 385.6 286.15 370.75 298.7 363.35 305.05 350.2 316.35 342.3 325.1 339.2 328.5 324.8 346.6 314.2 359.9 306 366.85 286.6 383.05 259.9 385.55 233.25 388.05 211.15 375.75 208.55 374.3 198.7 367.9 191.15 363 185.95 360.65 176.9 356.65 161.8 354.55 139.15 351.35 136.8 350.85 104 343.85 78.2 316.2 54.35 290.7 43.3 255.6 41.75 250.85 41.4 247.55 40.9 243.05 42.3 239.7 43.85 235.75 48 234.1 52.3 232.4 55.35 235 51.95 228.9 55.05 221.65 58.05 214.7 64.65 211.7 70.9 209 78.35 210.25 85.15 211.4 91.45 215.55 94.6 199.6 91.55 183.4 88.5 167.05 79.75 153.45 78.3 151.2 65 133.65 55.95 121.75 52.75 112.6 49.2 102.2 50.1 88.5 50.65 79.85 53.85 63.9 54.4 60.85 55.15 59.05 56.2 56.5 58.05 55.2 60.7 53.4 64.45 54.5 67.7 55.45 70.4 58.05 72.1 59.7 75.15 63.55 78.05 67.3 79.85 68.95 82.8 71.6 86.2 72.6 90.1 73.65 93 72 95.95 70.3 97.4 66.25 98.4 63.35 98.75 58.7 100.05 41.4 100.2 22.35 100.2 17.15 99.55 14.15 98.6 9.7 95.95 7.2 94.15 5.6 93.3 4.8 91.85 3.4 91.55 2 91.1 -0.95 94.85 -2.2 Z"/>

<path fill="#FFFFFF" stroke="none" d="
M 101.9 -2.55
Q 98.1 -3.3 94.85 -2.2 91.1 -0.95 91.55 2 91.85 3.4 93.3 4.8 94.15 5.6 95.95 7.2 98.6 9.7 99.55 14.15 100.2 17.15 100.2 22.35 100.05 41.4 98.75 58.7 98.4 63.35 97.4 66.25 95.95 70.3 93 72 90.1 73.65 86.2 72.6 82.8 71.6 79.85 68.95 78.05 67.3 75.15 63.55 72.1 59.7 70.4 58.05 67.7 55.45 64.45 54.5 60.7 53.4 58.05 55.2 56.2 56.5 55.15 59.05 54.4 60.85 53.85 63.9 50.65 79.85 50.1 88.5 49.2 102.2 52.75 112.6 55.95 121.75 65 133.65 78.3 151.2 79.75 153.45 88.5 167.05 91.55 183.4 94.6 199.6 91.45 215.55 85.15 211.4 78.35 210.25 70.9 209 64.65 211.7 58.05 214.7 55.05 221.65 51.95 228.9 55.35 235 52.3 232.4 48 234.1 43.85 235.75 42.3 239.7 40.9 243.05 41.4 247.55 41.75 250.85 43.3 255.6 54.35 290.7 78.2 316.2 104 343.85 136.8 350.85 139.15 351.35 161.8 354.55 176.9 356.65 185.95 360.65 191.15 363 198.7 367.9 208.55 374.3 211.15 375.75 233.25 388.05 259.9 385.55 286.6 383.05 306 366.85 314.2 359.9 324.8 346.6 339.2 328.5 342.3 325.1 350.2 316.35 363.35 305.05 370.75 298.7 385.6 286.15 411.95 263 420.95 242.2 428.2 225.35 428.6 202.4 428.9 187.7 425.8 161.1 424.2 146.45 413.1 47.8 412.5 43 411.85 40.7 410.7 36.9 408.45 34.65 405.85 32 401.85 32.3 397.7 32.55 396.55 35.85 395.95 19.8 394.95 0.1 394.85 -2.7 393.95 -4.7 392.8 -7.25 390.6 -7.4 389 -7.45 387.45 -6.1 386.4 -5.25 385.05 -3.35 371.1 17.05 348.75 29.65 326.4 42.2 301.6 43.75 299.05 38.2 299.8 29.75 301.3 19.9 301.8 15.05 302.7 7 299.85 0.3 296.55 -7.3 289.9 -8.55 286.55 -9.15 282.35 -7.8 279.8 -6.95 275.05 -4.6 258.95 3.65 249.65 7.4 239.6095703125 11.430078125 230.5 13.35 228.8068359375 12.9041015625 226.8 12.45 232.4 12.95 235.2 11.35 237.15 10.2 237.8 7.95 238.5 5.55 237 4.05 226.55 5.4 215.55 4.7 207.65 4 203.95 1.8 201.05 -0.15 199.6 -1 197.05 -2.45 194.95 -2.35 192.8 -2.3 191.1 -0.65 189.45 0.85 188.85 3.15 187.95 6.5 189.2 11.9 189.3662109375 12.6998046875 189.55 13.45 183.006640625 12.476953125 173.7 10.8 121.05 0.95 101.9 -2.55 Z"/>
</g>
</defs>

<g transform="matrix( 0, 0.2122802734375, 0.2408905029296875, 0, 448.2,447.35) ">
<g transform="matrix( 1, 0, 0, 1, 0,0) ">
<use xlink:href="#rag_fire_2_Layer0_0_FILL"/>
</g>
</g>
</svg>
