
<svg xmlns="http://www.w3.org/2000/svg" version="1.1" xmlns:xlink="http://www.w3.org/1999/xlink" preserveAspectRatio="none" x="0px" y="0px" width="1000px" height="1000px" viewBox="0 0 1000 1000">
<defs>
<g id="Symbol_141_4_Layer0_0_FILL">
<path fill="#FFFFFF" stroke="none" d="
M -66.45 109
Q -66.45 107.2 -67.35 105.9 -68.25 104.65 -69.55 104.65 -70.85 104.65 -71.75 105.9 -72.65 107.2 -72.65 109 -72.65 110.8 -71.75 112.05 -70.85 113.35 -69.55 113.35 -68.25 113.35 -67.35 112.05 -66.45 110.8 -66.45 109
M -67.2 63.05
Q -67.2 60.15 -68.65 58.1 -70.05 56.1 -72.1 56.1 -74.15 56.1 -75.6 58.1 -77 60.15 -77 63.05 -77 65.95 -75.6 67.95 -74.15 70 -72.1 70 -70.05 70 -68.65 67.95 -67.2 65.95 -67.2 63.05
M -56.8 -7.65
Q -56.8 -10.45 -58.35 -12.45 -59.85 -14.45 -62 -14.45 -64.15 -14.45 -65.7 -12.45 -67.2 -10.45 -67.2 -7.65 -67.2 -4.85 -65.7 -2.85 -64.15 -0.85 -62 -0.85 -59.85 -0.85 -58.35 -2.85 -56.8 -4.85 -56.8 -7.65
M -33.85 -55.15
Q -33.85 -57.85 -35.35 -59.8 -36.85 -61.7 -38.95 -61.7 -41.05 -61.7 -42.55 -59.8 -44.05 -57.85 -44.05 -55.15 -44.05 -52.45 -42.55 -50.55 -41.05 -48.6 -38.95 -48.6 -36.85 -48.6 -35.35 -50.55 -33.85 -52.45 -33.85 -55.15
M -83.9 -54.05
Q -83.9 -56.6 -85.25 -58.4 -86.6 -60.15 -88.55 -60.15 -90.5 -60.15 -91.85 -58.4 -93.2 -56.6 -93.2 -54.05 -93.2 -51.5 -91.85 -49.75 -90.5 -47.95 -88.55 -47.95 -86.6 -47.95 -85.25 -49.75 -83.9 -51.5 -83.9 -54.05
M 66.55 52.6
Q 66.9 57.05 69.35 60.1 72.15 63.6 75.15 60.05 75.35 59.6 75.4 59.2 75.95 49.5 67.15 51.1
L 66.55 52.6
M 97.15 17.8
Q 97.15 15.3 95.8 13.5 94.45 11.75 92.5 11.75 90.55 11.75 89.2 13.5 87.85 15.3 87.85 17.8 87.85 20.3 89.2 22.05 90.55 23.85 92.5 23.85 94.45 23.85 95.8 22.05 97.15 20.3 97.15 17.8
M 103.65 -0.15
Q 109.75 -6.25 104.25 -10.4
L 100.75 1.05
Q 102.4 1.15 103.65 -0.15
M 62.95 -15.5
Q 62.95 -17.35 61.95 -18.65 60.95 -19.95 59.55 -19.95 58.15 -19.95 57.15 -18.65 56.15 -17.35 56.15 -15.5 56.15 -13.65 57.15 -12.35 58.15 -11.05 59.55 -11.05 60.95 -11.05 61.95 -12.35 62.95 -13.65 62.95 -15.5
M 71.85 -60.25
Q 71.85 -62.25 70.85 -63.7 69.9 -65.1 68.55 -65.1 67.2 -65.1 66.2 -63.7 65.25 -62.25 65.25 -60.25 65.25 -58.25 66.2 -56.85 67.2 -55.4 68.55 -55.4 69.9 -55.4 70.85 -56.85 71.85 -58.25 71.85 -60.25
M 24.65 -104
Q 24.65 -106.55 23.35 -108.4 22.05 -110.2 20.2 -110.2 18.35 -110.2 17.05 -108.4 15.75 -106.55 15.75 -104 15.75 -101.45 17.05 -99.65 18.35 -97.8 20.2 -97.8 22.05 -97.8 23.35 -99.65 24.65 -101.45 24.65 -104 Z"/>
</g>
</defs>

<g transform="matrix( 1.0804443359375, 0, 0, 1.0804443359375, 329.7,85.2) ">
<g transform="matrix( 1, 0, 0, 1, 31.75,-80.95) ">
<g transform="matrix( 2.0740966796875, 0.0090484619140625, 0.0012054443359375, -0.2815704345703125, 105.3,452.7) ">
<g transform="matrix( 1, 0, 0, 1, 0,0) ">
<use xlink:href="#Symbol_141_4_Layer0_0_FILL"/>
</g>
</g>

<g transform="matrix( 1.794952392578125, 0.007843017578125, -0.0046234130859375, 1.0771484375, 114.7,345.1) ">
<g transform="matrix( 1, 0, 0, 1, 0,0) ">
<use xlink:href="#Symbol_141_4_Layer0_0_FILL"/>
</g>
</g>
</g>
</g>
</svg>
