
<svg xmlns="http://www.w3.org/2000/svg" version="1.1" xmlns:xlink="http://www.w3.org/1999/xlink" preserveAspectRatio="none" x="0px" y="0px" width="1000px" height="1000px" viewBox="0 0 1000 1000">
<defs>
<g id="Symbol_141_2_Layer0_0_FILL">
<path fill="#FFFFFF" stroke="none" d="
M -24.3 123.6
Q -22.35 123.6 -20.95 121.75 -19.55 119.95 -19.55 117.35 -19.55 114.75 -20.95 112.9 -22.35 111.1 -24.3 111.1 -26.25 111.1 -27.65 112.9 -29.05 114.75 -29.05 117.35 -29.05 119.95 -27.65 121.75 -26.25 123.6 -24.3 123.6
M -104.3 34.85
Q -102.6 34.85 -101.4 33.15 -100.15 31.45 -100.15 29.05 -100.15 26.65 -101.4 24.95 -102.6 23.25 -104.3 23.25 -106 23.25 -107.25 24.95 -108.45 26.65 -108.45 29.05 -108.45 31.45 -107.25 33.15 -106 34.85 -104.3 34.85
M -30.25 90.65
Q -30.75 90.6 -33.15 92.15 -35.65 93.75 -35.7 94.35
L -27.3 107.75
Q -25.3 104.85 -25.25 104.1 -24.35 96.1 -30.25 90.65
M -60.95 88.1
Q -63.1 88.1 -64.65 90.05 -66.2 92 -66.2 94.8 -66.2 97.6 -64.65 99.55 -63.1 101.5 -60.95 101.5 -58.8 101.5 -57.25 99.55 -55.7 97.6 -55.7 94.8 -55.7 92 -57.25 90.05 -58.8 88.1 -60.95 88.1
M -48.05 67
Q -49.35 68.7 -49.35 71.1 -49.35 73.5 -48.05 75.15 -46.75 76.85 -44.9 76.85 -43.05 76.85 -41.75 75.15 -40.45 73.5 -40.45 71.1 -40.45 68.7 -41.75 67 -43.05 65.35 -44.9 65.35 -46.75 65.35 -48.05 67
M -57.6 63.15
Q -55.85 59.75 -55.55 56 -54.85 48.05 -61.45 45.55 -79.55 38.6 -82.45 61.55 -84.55 62.75 -86.7 62.6 -99.55 61.7 -101.6 46.5 -101.5 47.9 -101.3 49.3 -97.1 80.05 -73.75 66.45 -70.15 43.3 -58.1 61.65 -57.65 62.3 -57.6 63.15
M -7.4 -32.65
Q -5.8 -34.65 -5.8 -37.5 -5.8 -40.35 -7.4 -42.4 -8.95 -44.4 -11.2 -44.4 -13.45 -44.4 -15.05 -42.4 -16.6 -40.35 -16.6 -37.5 -16.6 -34.65 -15.05 -32.65 -13.45 -30.6 -11.2 -30.6 -8.95 -30.6 -7.4 -32.65
M -24.05 -35.5
Q -23.45 -35.1 -22.75 -34.8 -17.8 -39.45 -16.95 -46.3 -13.9 -70.75 -34.8 -63.2 -38.5 -44.45 -24.05 -35.5
M -37 -82.6
Q -38.9 -80.15 -38.9 -76.7 -38.9 -73.25 -37 -70.8 -35.1 -68.35 -32.45 -68.35 -29.8 -68.35 -27.9 -70.8 -26 -73.25 -26 -76.7 -26 -80.15 -27.9 -82.6 -29.8 -85.05 -32.45 -85.05 -35.1 -85.05 -37 -82.6
M -84.25 -69.05
Q -84.75 -69.55 -85.25 -70.05 -89.4 -74.35 -95.35 -73.95 -89.55 -55.35 -94.75 -36.45 -95.1 -35.2 -95.3 -28.7 -95.55 -22.05 -95.8 -20.95
L -90.95 -12.6
Q -91.4 -11.9 -91.55 -11.15 -97.4 17.45 -70.95 5.55 -64.85 -17.75 -56 1.8 -52.85 8.55 -50.7 13.35 -46.6 22.45 -46.1 25.15 -46.05 25.2 -44.7 32.9 -42.85 41.15 -40.25 43.75 -38.65 28.85 -39.25 14.05 -40.7 -21.65 -68.55 -11.7
L -79.8 -15.05
Q -81.9 -20.05 -83.9 -25.05 -85.1 -28 -84.7 -30.7 -82.1 -47.25 -80.65 -64.15 -79.25 -65.4 -78.25 -66.95 -73.15 -74.4 -63.75 -70.7 -65.85 -67.2 -65.05 -63.1 -64.2 -58.75 -60.3 -59.4 -47.75 -61.65 -57.15 -72.45 -56.6 -72.9 -56.05 -73.35 -50.65 -78.05 -50.8 -85.05 -49.25 -85.85 -46.95 -88.2 -44.55 -90.6 -44.75 -91.35
L -49.15 -91
Q -77.1 -101.25 -84.25 -69.05
M -41.3 -108.25
Q -42.15 -108.25 -42.75 -107.3 -43.3 -106.3 -43.3 -104.9 -43.3 -103.5 -42.75 -102.55 -42.15 -101.55 -41.3 -101.55 -40.45 -101.55 -39.9 -102.55 -39.3 -103.5 -39.3 -104.9 -39.3 -106.3 -39.9 -107.3 -40.45 -108.25 -41.3 -108.25
M 36.8 102.15
L 35.75 101.55
Q 31.9 101.35 28.4 102.75 18.65 106.6 17.05 116.05 18.05 115.7 19.05 115.4 32.7 112.75 36.8 102.15
M 63.85 83.15
Q 63.85 82.1 63.35 81.35 62.85 80.6 62.15 80.6 61.45 80.6 60.95 81.35 60.45 82.1 60.45 83.15 60.45 84.2 60.95 84.95 61.45 85.7 62.15 85.7 62.85 85.7 63.35 84.95 63.85 84.2 63.85 83.15
M 50.05 96.85
L 54.95 93.35 58.05 90.05 57.25 87.2 55.55 86.5
Q 52.65 87.55 50.7 90.1 48.85 92.5 48.7 95.45
L 50.05 96.85
M 78.15 63.6
L 78.5 66.45
Q 69.1 71.25 68.3 79.25 85.8 69.15 85.85 69 88.1 52.3 78.15 63.6
M 19.95 17.5
Q 19.95 14.55 18.3 12.45 16.7 10.35 14.4 10.35 12.1 10.35 10.45 12.45 8.85 14.55 8.85 17.5 8.85 20.45 10.45 22.55 12.1 24.65 14.4 24.65 16.7 24.65 18.3 22.55 19.95 20.45 19.95 17.5
M 64 39.35
Q 63.8 39.3 63.65 39.3 35.45 49.1 35.9 80.25 43.7 71.9 51.15 62.6 65.95 44 64 39.35
M 101.05 31.25
Q 99.65 29.45 97.65 29.45 95.65 29.45 94.2 31.25 92.8 33.1 92.8 35.7 92.8 38.3 94.2 40.1 95.65 41.95 97.65 41.95 99.65 41.95 101.05 40.1 102.5 38.3 102.5 35.7 102.5 33.1 101.05 31.25
M 85.35 -73.75
L 83.8 -74
Q 84.8 -68.15 85.6 -62.25 91.7 -16.8 74.95 25.5 78.6 19.5 85.95 18.1 86.45 18.05 86.95 17.75 85.5 3.3 96.5 3.35 97.2 2.8 98 3.4
L 93.9 -4.95
Q 93.76171875 -4.856640625 93.75 -4.8 96.148046875 -40.6060546875 85.35 -73.75
M 51.7 -28.45
Q 48.9 -28.45 46.9 -26 44.9 -23.55 44.9 -20.1 44.9 -16.65 46.9 -14.2 48.9 -11.75 51.7 -11.75 54.5 -11.75 56.5 -14.2 58.5 -16.65 58.5 -20.1 58.5 -23.55 56.5 -26 54.5 -28.45 51.7 -28.45
M 55.55 -46.8
L 52.4 -38.85
Q 55.55 -38.5 58.1 -36.95 78.75 -23.85 68.1 0.2 84.85 -9.4 80.7 -30.5 75.8 -55.45 55.55 -46.8
M 68.7 -70.95
Q 68.7 -74 67 -76.2 65.35 -78.35 63 -78.35 60.65 -78.35 58.95 -76.2 57.3 -74 57.3 -70.95 57.3 -67.9 58.95 -65.75 60.65 -63.55 63 -63.55 65.35 -63.55 67 -65.75 68.7 -67.9 68.7 -70.95
M 77.45 -100.8
Q 77.95 -103.1 77.25 -105.3 76.35 -108.35 73.4 -109.7 73.15 -109.85 66.85 -106.85
L 76 -99.05 77.45 -100.8
M 25.55 -109.1
Q 25.55 -113.25 22.95 -116.2 20.4 -119.15 16.8 -119.15 13.2 -119.15 10.6 -116.2 8.05 -113.25 8.05 -109.1 8.05 -104.95 10.6 -102 13.2 -99.05 16.8 -99.05 20.4 -99.05 22.95 -102 25.55 -104.95 25.55 -109.1 Z"/>

<path fill="#FCEFB2" stroke="none" d="
M -57.6 63.15
Q -57.65 62.3 -58.1 61.65 -70.15 43.3 -73.75 66.45
L -72.4 65.6
Q -71 66.3 -66.1 66.2 -59.8 66.1 -57.6 63.15
M -34.8 -63.2
Q -37.6 -60.45 -38.7 -56.8 -47.5 -28.45 -22.75 -34.8 -23.45 -35.1 -24.05 -35.5 -38.5 -44.45 -34.8 -63.2
M -46.1 25.15
Q -46.6 22.45 -50.7 13.35 -52.85 8.55 -56 1.8 -64.85 -17.75 -70.95 5.55
L -68.7 4.6
Q -53.55 19.55 -46.1 25.15
M -95.35 -73.95
Q -96.05 -73.55 -96.5 -73 -116.6 -49.65 -95.8 -20.95 -95.55 -22.05 -95.3 -28.7 -95.1 -35.2 -94.75 -36.45 -89.55 -55.35 -95.35 -73.95
M 86.95 17.75
Q 86.45 18.05 85.95 18.1 78.6 19.5 74.95 25.5
L 79.15 21.8
Q 80.05 21.95 80.95 22.1 98.65 20.9 98 3.4 97.2 2.8 96.5 3.35 85.5 3.3 86.95 17.75
M 93.75 -4.8
Q 93.76171875 -4.856640625 93.9 -4.95 93.8 -5.1 93.85 -5.2 107.45 -43.45 85.35 -73.75 96.148046875 -40.6060546875 93.75 -4.8 Z"/>
</g>

<g id="Duplicate_Items_Folder_cow_leg_0_Layer0_0_FILL">
<path fill="#000000" stroke="none" d="
M 27.6 -6.2
Q 25 -7.5 19.7 -7.7 17.2 -7.75 11.2 -6.5 5.5 -5.35 4.2 -4.65 1.1 -3.05 -0.4 -2.05 -2.8 -0.45 -4.15 1.5 -6.6 5 -6.8 12.15 -6.85 18.05 -0.55 29.3 1.75 32.6 5.5 34.2 8.6 35.5 12.75 35.5 19.15 35.65 27.25 33.05 29.3 32.4 33.3 28.8 37.1 25.3 37.6 23.95 38.65 21.35 39.05 14.15 39.45 6.55 38.35 4.45 37.65 3.2 33 -1.35 28.45 -5.7 27.6 -6.2
M 7.1 -1.05
Q 7.95 -1.45 17.5 -1.9 27 -2.35 27.35 -2 36.05 7.25 36.2 8.65 36.3 9.35 35.35 13.45 34.35 17.75 33.6 19.7 33 18.3 30.05 14.95 27.35 11.8 26.5 11.15 18.55 8.35 14.75 8.2 13.6 8.15 10.35 8.7 7.1 9.25 6.15 9.65 1.2 11.95 -2.45 15.9 -2.4 15 -2.5 11.95 -2.55 9.5 -2.25 8.1 -1.9 6.8 -1 5 -0.7 4.4 2.75 1.85 6.05 -0.55 7.1 -1.05
M 27.4 16.05
Q 29.2453125 17.6984375 30.6 20.45 32.0140625 23.2046875 28.65 26.5 28.288671875 26.85390625 27.95 27.15 27.9259765625 27.1712890625 27.85 27.2 22.8 29.35 16.8 30.15 10.5 30.9 6.75 29 4.35 27.8 2.95 25.5 1.5 23.1 1.95 20.65 2.4 18.05 4.85 16.1 6.85 14.45 9.95 13.45 14.65 12 19.15 12.55 24.1 13.15 27.4 16.05 Z"/>

<path fill="#0033FF" stroke="none" d="
M 30.6 20.45
Q 29.2453125 17.6984375 27.4 16.05 24.1 13.15 19.15 12.55 14.65 12 9.95 13.45 6.85 14.45 4.85 16.1 2.4 18.05 1.95 20.65 1.5 23.1 2.95 25.5 4.35 27.8 6.75 29 10.5 30.9 16.8 30.15 22.8 29.35 27.85 27.2 27.9259765625 27.1712890625 27.95 27.15 28.288671875 26.85390625 28.65 26.5 32.0140625 23.2046875 30.6 20.45
M 35.35 13.45
Q 36.3 9.35 36.2 8.65 36.05 7.25 27.35 -2 26.6869140625 5.7609375 26.5 11.15 27.35 11.8 30.05 14.95 33 18.3 33.6 19.7 34.35 17.75 35.35 13.45 Z"/>

<path fill="#0099FF" stroke="none" d="
M 17.5 -1.9
Q 7.95 -1.45 7.1 -1.05 6.05 -0.55 2.75 1.85 -0.7 4.4 -1 5 -1.9 6.8 -2.25 8.1 -2.55 9.5 -2.5 11.95 -2.4 15 -2.45 15.9 1.2 11.95 6.15 9.65 7.1 9.25 10.35 8.7 13.6 8.15 14.75 8.2 18.55 8.35 26.5 11.15 26.6869140625 5.7609375 27.35 -2 27 -2.35 17.5 -1.9 Z"/>
</g>

<g id="Duplicate_Items_Folder_cow_body_0_Layer0_0_FILL">
<path fill="#CC6600" stroke="none" d="
M 61.75 28.7
Q 52.1 24.15 41.4 26.15 37.85 26.85 34.5 28.4 11.5 45.95 5.45 88.35 5.1 90.6 4.75 92.8 5.9 104.35 13 113.8 18.2 120.6 26.35 121.8 34.45 123.15 40.75 117.65 42.6 115.7 43.8 113.1 46.85 104.7 46.3 95.55 45.6 88.5 47.7 77.15 49.1 69.3 53.9 65.1 59.1 60 64.7 55.95 68.05 53.35 69.35 49.45 72.6 39.55 66.4 32.25 64.4 29.9 61.75 28.7
M 59.95 76.6
Q 57.5 78.9 56.2 82.65 51.65 93 54.85 100.65 55.7 102.95 58.1 103.6 60.5 104.2 62.85 103.35 68 100.95 69.5 95.3 70.8 90 68.85 81.2 67.7 77.75 65.3 76.45 64.4 75.9 62.3 76.1 60.25 76.15 59.95 76.6 Z"/>

<path fill="#C2B6AC" stroke="none" d="
M 190.2 160.75
Q 209.4 139.55 212.35 111.15 194.3 130.35 168.25 139.2 150.95 145.15 130.65 148.45 110.15 151.6 91.8 151.45 50.3 151.1 21.55 128.75 12.1 121.3 4.2 111.95 6.25 137.15 21.85 158.6 33.6 174.9 49.7 182.35 53.9 184.3 58.85 185.8 66.15 187.95 74.45 188.65 105.95 191.05 137 188.2 168.8 184.75 190.2 160.75 Z"/>

<path fill="#F0E8E1" stroke="none" d="
M 212.35 111.15
Q 212.7 105.4 212.45 99.8 210.65 55.35 190.85 33.05 170.8 9.75 138.5 3 105.8 -4.05 74.65 7.05 52.3 14.75 34.5 28.4 37.85 26.85 41.4 26.15 52.1 24.15 61.75 28.7 64.4 29.9 66.4 32.25 72.6 39.55 69.35 49.45 68.05 53.35 64.7 55.95 59.1 60 53.9 65.1 49.1 69.3 47.7 77.15 45.6 88.5 46.3 95.55 46.85 104.7 43.8 113.1 42.6 115.7 40.75 117.65 34.45 123.15 26.35 121.8 18.2 120.6 13 113.8 5.9 104.35 4.75 92.8 3.3 102.3 4.2 111.95 12.1 121.3 21.55 128.75 50.3 151.1 91.8 151.45 110.15 151.6 130.65 148.45 150.95 145.15 168.25 139.2 194.3 130.35 212.35 111.15
M 56.2 82.65
Q 57.5 78.9 59.95 76.6 60.25 76.15 62.3 76.1 64.4 75.9 65.3 76.45 67.7 77.75 68.85 81.2 70.8 90 69.5 95.3 68 100.95 62.85 103.35 60.5 104.2 58.1 103.6 55.7 102.95 54.85 100.65 51.65 93 56.2 82.65 Z"/>

<path fill="#000000" stroke="none" d="
M 142.15 -4.45
Q 114.15 -10.5 109.95 -8.95 77 -6.45 48.35 8.2 20.1076171875 23.2736328125 9.7 45.8 -1.5 64.05 -4.5 90.1 -7.1533203125 110.3001953125 1.7 138.15 10.609765625 165.99921875 32.15 181.4 53.7369140625 196.8009765625 49.7 182.35 33.6 174.9 21.85 158.6 6.25 137.15 4.2 111.95 3.3 102.3 4.75 92.8 5.1 90.6 5.45 88.35 11.5 45.95 34.5 28.4 52.3 14.75 74.65 7.05 105.8 -4.05 138.5 3 170.8 9.75 190.85 33.05 210.65 55.35 212.45 99.8 212.7 105.4 212.35 111.15 209.4 139.55 190.2 160.75 168.8 184.75 137 188.2 105.95 191.05 74.45 188.65 66.15 187.95 58.85 185.8 80 192.9 102.7 193.2 135.15 193.65 164.55 184.65 193.25 175.65 206.5 151.55 220.5 127.2 220.9 109.8 220.85 95.8 214.55 65.35 207.65 41.5 191.7 21.9 182.7 9.6248046875 174.2 4.3 169.65 1.45 142.15 -4.45 Z"/>
</g>

<g id="Duplicate_Items_Folder_cow_head_1_Layer3_0_FILL">
<path fill="#000000" stroke="none" d="
M 70.5 153
Q 64.25 159.25 64.25 168.05 64.25 176.85 70.5 183.1 76.75 189.35 85.55 189.35 94.35 189.35 100.6 183.1 106.85 176.85 106.85 168.05 106.85 159.25 100.6 153 94.35 146.75 85.55 146.75 76.75 146.75 70.5 153
M 67.35 168.1
Q 67.35 160.6 72.7 155.25 78.05 149.95 85.55 149.95 93.05 149.95 98.4 155.25 101.95 158.85 103.15 163.45 103.2 163.6 103.25 163.85
L 103.7 167.8
Q 103.7 167.9 103.7 168 103.7 168.05 103.7 168.1 103.7 175.6 98.4 180.95 93.45 185.9 86.65 186.3 86.1 186.3 85.55 186.3 78.05 186.3 72.7 180.95 67.35 175.6 67.35 168.1
M 76.8 159.4
Q 73.15 163.05 73.15 168.15 73.15 173.25 76.8 176.9 80.45 180.55 85.55 180.55 89.25 180.55 92.15 178.65 93.3 177.9 94.3 176.9 95.1 176.1 95.7 175.25
L 97.45 171.7
Q 97.5 171.5 97.55 171.3 97.9 169.75 97.9 168.15 97.9 163.05 94.3 159.4 90.65 155.75 85.55 155.75 80.45 155.75 76.8 159.4
M 75.05 168.15
Q 75.05 163.8 78.15 160.75 81.2 157.7 85.55 157.7 89.85 157.7 92.9 160.75 95.95 163.8 95.95 168.15 95.95 172.45 92.9 175.5 89.85 178.6 85.55 178.6 81.2 178.6 78.15 175.5 75.05 172.45 75.05 168.15 Z"/>

<path fill="#FFFFFF" stroke="none" d="
M 103.7 168.1
Q 103.7 168.05 103.7 168 103.7 167.9 103.7 167.8
L 103.25 163.85
Q 103.2 163.6 103.15 163.45 101.15 166.15 98.85 169.35
L 97.6 171.15
Q 97.6 171.2 97.55 171.3 97.5 171.5 97.45 171.7
L 95.7 175.25
Q 95.1 176.1 94.3 176.9 93.3 177.9 92.15 178.65
L 86.65 186.3
Q 93.45 185.9 98.4 180.95 103.7 175.6 103.7 168.1 Z"/>

<path fill="#CC9900" stroke="none" d="
M 72.7 155.25
Q 67.35 160.6 67.35 168.1 67.35 175.6 72.7 180.95 78.05 186.3 85.55 186.3 86.1 186.3 86.65 186.3
L 92.15 178.65
Q 89.25 180.55 85.55 180.55 80.45 180.55 76.8 176.9 73.15 173.25 73.15 168.15 73.15 163.05 76.8 159.4 80.45 155.75 85.55 155.75 90.65 155.75 94.3 159.4 97.9 163.05 97.9 168.15 97.9 169.75 97.55 171.3 97.6 171.2 97.6 171.15
L 98.85 169.35
Q 101.15 166.15 103.15 163.45 101.95 158.85 98.4 155.25 93.05 149.95 85.55 149.95 78.05 149.95 72.7 155.25 Z"/>
</g>

<g id="Duplicate_Items_Folder_cow_head_1_Layer2_0_FILL">
<path fill="#000000" stroke="none" d="
M 91.25 -0.6
Q 78.45 -2.35 71.65 -2.5 63.25 -2.55 43.45 2 24.524609375 6.3490234375 17.45 9.75 12.1318359375 14.45 4.25 22.7 4.3228515625 22.9880859375 4.4 23.15 2.25 32.95 1.5 43.1 1.15 47.6 0.55 84 0 117.2 0 124.55 -0.1 133.65 3.2 142.35 6.89921875 152.0958984375 13.85 159.5 20.80234375 166.9123046875 64.6 167.55 65.4140625 167.5873046875 66.2 167.6 66.048046875 167.408984375 65.9 167.2 65.05 166 65.15 164.4 65.25 162.85 66.2 161.75 67 160.9 68.15 160.5 69.35 160.1 70.55 160.25 71.8 160.4 72.85 161.15 74.1 162.1 74.5 163.75 74.85 165.35 74.15 166.75 73.88359375 167.26875 73.5 167.65 87.8169921875 167.800390625 97.05 167.5 96.1890625 166.288671875 96.1 164.15 96.1 161.85 97.15 160.55 98.45 158.9 100.65 159 102.7 159.1 104.15 160.55 105.05 161.45 105.45 162.6 105.85 163.8 105.6 164.95 105.4 165.9 104.7 166.95 104.61015625 167.06484375 104.5 167.15 111.57890625 166.6921875 113.4 165.8 117.6 163.8 126.15 158.5 136.55 152.05 137.65 149.8 143.6 145.25 146.7 133.5 149.55 121.45 148.8 106.95 148.45 100.75 143.35 68.5 138.95 40.5 137.5 32.85 136.8201171875 29.5970703125 135.4 26.05 135.3765625 19.56953125 122.7 10 110.0734375 0.48046875 105.6 1.4 97.85 0.25 91.25 -0.6
M 126.45 32.65
Q 129.2 39.15 130.75 46.2 131.3 49.35 131.8 52.65 133.1 62.45 134.35 72.25 135.25 79.5 136.35 87.5 137.2 94 138 101.65 138.1 103.1 138.2 104.5 138.9 115.65 137.6 127.2 135.8 140.75 127.8 148.65 120.25 155.5 109.1 156.55 97.95 157.55 86.55 157.3 75.8 156.95 66.25 157.55 56.15 158.05 46.25 158.1 36.2 158.05 26.35 156.55 21.5 155.8 17.45 153 8.5 146.55 5.75 135.85 5.15 131 4.7 126.35 3.55 116.8 3.55 107.05 3.45 97.4 3.55 87.95 3.55 79.1 3.7 70.2 3.75 62.15 3.95 54.1 4.05 43.95 7.1 34.2 10.2 23.6 19.25 16.95 19.55 16.75 19.8 16.55 27.75 10.5 37.5 8.25 47.75 5.85 58.35 5.8 67.9 6.35 77.6 7.1 85.35 7.75 93.45 8.75 102.95 9.9 111.25 15 111.95 15.45 112.65 15.9 122.05 22.1 126.45 32.65 Z"/>

<path fill="#C2B6AC" stroke="none" d="
M 9.45 49.35
Q 10.7 37.35 12.95 30.3 15.3 22.35 19.8 16.55 19.55 16.75 19.25 16.95 10.2 23.6 7.1 34.2 4.05 43.95 3.95 54.1 3.75 62.15 3.7 70.2 3.55 79.1 3.55 87.95 3.45 97.4 3.55 107.05 3.55 116.8 4.7 126.35 5.15 131 5.75 135.85 8.5 146.55 17.45 153 21.5 155.8 26.35 156.55 36.2 158.05 46.25 158.1 56.15 158.05 66.25 157.55 75.8 156.95 86.55 157.3 97.95 157.55 109.1 156.55 120.25 155.5 127.8 148.65 135.8 140.75 137.6 127.2 138.9 115.65 138.2 104.5 138.1 103.1 138 101.65 137.85 107.05 137.65 111.2 136.75 127.65 131 135.65 124.85 143.65 110.9 144.05 97.1 143.7 73.85 140.55 51.7 139.15 38.3 136.35 25.2 133.3 18.3 126.25 11.9 119.85 9.5 108.6 7.4 99.5 7.5 83.15 7.45 81.15 8.4 66.15 9.25 52.05 9.45 49.35 Z"/>

<path fill="#F0E8E1" stroke="none" d="
M 130.75 46.2
Q 129.45 46.75 127.55 46.65 123.05 46.5 120.15 42.9 117.5 39.45 117.65 35.75 110.6 34.4 108.15 33.25 103.3 30.6 103.4 25.15 103.4 22 105.8 18.85 108.05 15.85 111.25 15 102.95 9.9 93.45 8.75 85.35 7.75 77.6 7.1 67.9 6.35 58.35 5.8 47.75 5.85 37.5 8.25 27.75 10.5 19.8 16.55 15.3 22.35 12.95 30.3 10.7 37.35 9.45 49.35 9.25 52.05 8.4 66.15 7.45 81.15 7.5 83.15 7.4 99.5 9.5 108.6 11.9 119.85 18.3 126.25 25.2 133.3 38.3 136.35 51.7 139.15 73.85 140.55 97.1 143.7 110.9 144.05 124.85 143.65 131 135.65 136.75 127.65 137.65 111.2 137.85 107.05 138 101.65 137.2 94 136.35 87.5 135.25 79.5 134.35 72.25 133.1 62.45 131.8 52.65 131.3 49.35 130.75 46.2 Z"/>

<path fill="#CC6600" stroke="none" d="
M 130.75 46.2
Q 129.2 39.15 126.45 32.65 122.05 22.1 112.65 15.9 111.95 15.45 111.25 15 108.05 15.85 105.8 18.85 103.4 22 103.4 25.15 103.3 30.6 108.15 33.25 110.6 34.4 117.65 35.75 117.5 39.45 120.15 42.9 123.05 46.5 127.55 46.65 129.45 46.75 130.75 46.2 Z"/>
</g>

<g id="Symbol_22_0_Layer0_0_FILL">
<path fill="#000000" stroke="none" d="
M 29.55 23.75
Q 29.15 11.5 23.25 6.45 16.3 0.45 15.6 0.05 14.85 -0.4 7.15 5.95 -0.55 12.25 0.05 17.65 0.55 23.05 7.85 29.45 20.65 32.35 29.55 23.75
M 22.3 15.25
Q 25.95 22.35 24.35 23.95 23.05 25.2 20.3 26.15 16.9 27.25 13.15 26.85 9.1 26.45 6.9 24.65 4.35 22.65 4.85 19.75 5.2 18.2 9.1 13.2 13.45 7.55 16.55 5.95 19.3 9.1 22.3 15.25 Z"/>

<path fill="#0099FF" stroke="none" d="
M 24.35 23.95
Q 25.95 22.35 22.3 15.25 19.3 9.1 16.55 5.95 13.45 7.55 9.1 13.2 5.2 18.2 4.85 19.75 4.35 22.65 6.9 24.65 9.1 26.45 13.15 26.85 16.9 27.25 20.3 26.15 23.05 25.2 24.35 23.95 Z"/>
</g>

<g id="Duplicate_Items_Folder_cow_head_1_Layer0_0_FILL">
<path fill="#000000" stroke="none" d="
M 73.5 102.6
Q 66.3 102.6 61.2 107.95 60.25 108.9 58.4 111.6 56.1 115.6 56.1 120.65 56.1 128.15 61.2 133.45 61.3 133.45 61.45 133.7 66.45 138.7 73.5 138.7 80.65 138.7 85.75 133.45 89.05 130 90.2 125.75 90.25 125.5 90.35 125.3 90.4 125.45 90.45 125.65 91.2 128.05 93.05 129.9 96.2 133.25 100.65 133.25 105.1 133.25 108.35 129.9 109.65 128.45 110.4 126.85 111.5 124.45 111.5 121.75 111.5 116.95 108.35 113.6 105.1 110.2 100.65 110.2 96.2 110.2 93.05 113.6 91.4 115.25 90.6 117.3 89.65 111.95 85.75 107.95 80.65 102.6 73.5 102.6
M 62.8 110.75
Q 66.75 106.7 72.4 106.7 78.05 106.7 82.1 110.75 86.05 114.8 86.05 120.6 86.05 125.35 83.35 129.05 82.8 129.65 82.1 130.4 78.05 134.4 72.4 134.4 69.8 134.4 67.5 133.5 64.9 132.5 62.8 130.4 58.75 126.35 58.75 120.6 58.75 114.8 62.8 110.75
M 105.65 116.65
Q 107.95 119.05 107.95 122.55 107.95 126.05 105.65 128.45 105 129.05 104.15 129.75 102.35 130.75 100.05 130.75 97.25 130.75 95.3 129.05 94.75 128.85 94.45 128.45 92.1 126.05 92.1 122.55 92.1 119.05 94.45 116.65 96.75 114.25 100.05 114.25 103.3 114.25 105.65 116.65 Z"/>

<path fill="#FFFFFF" stroke="none" d="
M 107.95 122.55
Q 107.95 119.05 105.65 116.65 103.3 114.25 100.05 114.25 96.75 114.25 94.45 116.65 92.1 119.05 92.1 122.55 92.1 126.05 94.45 128.45 94.75 128.85 95.3 129.05 97.25 130.75 100.05 130.75 102.35 130.75 104.15 129.75 105 129.05 105.65 128.45 107.95 126.05 107.95 122.55
M 72.4 106.7
Q 66.75 106.7 62.8 110.75 58.75 114.8 58.75 120.6 58.75 126.35 62.8 130.4 64.9 132.5 67.5 133.5 69.8 134.4 72.4 134.4 78.05 134.4 82.1 130.4 82.8 129.65 83.35 129.05 86.05 125.35 86.05 120.6 86.05 114.8 82.1 110.75 78.05 106.7 72.4 106.7 Z"/>
</g>
</defs>

<g transform="matrix( 1.0804443359375, 0, 0, 1.0804443359375, 329.7,85.2) ">
<g transform="matrix( 1, 0, 0, 1, 31.75,-80.95) ">
<g transform="matrix( -0.9676055908203125, -0.0042266845703125, 0.0033111572265625, -0.771453857421875, 120.8,315.35) ">
<g transform="matrix( 1, 0, 0, 1, 0,0) ">
<use xlink:href="#Symbol_141_2_Layer0_0_FILL"/>
</g>
</g>

<g transform="matrix( 0.3799896240234375, -0.9249420166015625, 0.9249420166015625, 0.3799896240234375, 200.9,220.75) ">
<g transform="matrix( 1, 0, 0, 1, 0,0) ">
<use xlink:href="#Duplicate_Items_Folder_cow_leg_0_Layer0_0_FILL"/>
</g>
</g>

<g transform="matrix( 0.649383544921875, 0.7604217529296875, -0.7604217529296875, 0.649383544921875, 39.8,189.35) ">
<g transform="matrix( 1, 0, 0, 1, 0,0) ">
<use xlink:href="#Duplicate_Items_Folder_cow_leg_0_Layer0_0_FILL"/>
</g>
</g>

<g transform="matrix( 0.83001708984375, 0.069427490234375, 0.0371246337890625, 1.107696533203125, 28,43.4) ">
<g transform="matrix( 1, 0, 0, 1, 0,0) ">
<use xlink:href="#Duplicate_Items_Folder_cow_body_0_Layer0_0_FILL"/>
</g>
</g>

<g transform="matrix( 0.898712158203125, 0.4384765625, -0.4384765625, 0.898712158203125, 66.5,220.65) ">
<g transform="matrix( 1, 0, 0, 1, 0,0) ">
<use xlink:href="#Duplicate_Items_Folder_cow_leg_0_Layer0_0_FILL"/>
</g>
</g>

<g transform="matrix( 0.9999542236328125, -0.0073394775390625, 0.0073394775390625, 0.9999542236328125, 82.4,51.95) ">
<g transform="matrix( 1, 0, 0, 1, 0,0) ">
<use xlink:href="#Duplicate_Items_Folder_cow_head_1_Layer3_0_FILL"/>
</g>

<g transform="matrix( 1, 0, 0, 1, 0,0) ">
<use xlink:href="#Duplicate_Items_Folder_cow_head_1_Layer2_0_FILL"/>
</g>

<g transform="matrix( 0.866485595703125, 0.4991912841796875, -0.4991912841796875, 0.866485595703125, 114.05,-4.95) ">
<g transform="matrix( 1, 0, 0, 1, 0,0) ">
<use xlink:href="#Symbol_22_0_Layer0_0_FILL"/>
</g>
</g>

<g transform="matrix( 0.8830413818359375, -0.4691925048828125, 0.4691925048828125, 0.8830413818359375, 4.45,8.4) ">
<g transform="matrix( 1, 0, 0, 1, 0,0) ">
<use xlink:href="#Symbol_22_0_Layer0_0_FILL"/>
</g>
</g>

<g transform="matrix( 1, 0, 0, 1, 0,6) ">
<use xlink:href="#Duplicate_Items_Folder_cow_head_1_Layer0_0_FILL"/>
</g>
</g>
</g>
</g>
</svg>
