
<svg xmlns="http://www.w3.org/2000/svg" version="1.1" xmlns:xlink="http://www.w3.org/1999/xlink" preserveAspectRatio="none" x="0px" y="0px" width="1000px" height="1000px" viewBox="0 0 1000 1000">
<defs>
<g id="Symbol_26_0_Layer0_0_FILL">
<path fill="#FCEFB2" stroke="none" d="
M 40.4 79.1
Q 39.45 79.3 38.15 79.4 36.9 79.45 35.25 79.45 31.75 79.45 30.45 79.4 27.8 79.3 25.85 78.8
L 25.8 78.8
Q 25.9 77.9 27.4 76.65 28.9 75.45 29.1 74.5 29.2 74 29.1 73.6 27.25 73.85 25.75 74.25 21.7 75.35 21.7 76.95 21.7 78.45 25.55 79.55 25.6 79.6 25.75 79.6 27.8 80.2 30.4 80.5 32.65 80.75 35.35 80.75 36.95 80.75 38.35 80.7 42.15 80.45 45.05 79.6 49 78.5 49 76.95 49 75.35 45.05 74.25 43.1 73.7 40.7 73.45 40.7 74 41 74.5 41.4 75.25 42.85 75.9 44.45 76.65 44.85 77.1 43.2 78.6 40.4 79.1
M 254.2 73.5
Q 256.45 73.55 258.8 73.55 281.2 73.55 297.05 69.1 312.85 64.75 312.85 58.5 312.85 56.35 310.95 54.45 306.05 60.65 296.95 64.2 289.8 66.95 278.6 68.45 264.8 70.15 254.2 69.75 251.5 69.6 249.05 69.4 247.35 69.2 245.8 69 240.7 68.2 238.15 67.85 235.9 67.5 233.95 67.35 232 67.15 230.4 67.15 227.05 67.15 222.65 67.9 222.35 67.95 214.85 69.35 193.2 73.45 165.6 73 148.9 72.65 116.1 69.8 102.35 68.55 95.55 67.7 84.15 66.3 75.15 64.2 52.35 58.95 32.1 46.55 29.35 44.85 27.95 43.5 25.85 41.45 25.3 39.25 25.25 38.9 24.95 36.15 24.85 35.35 24.65 34.7 24.4 33.8 24 33.2 23.1 31.8 21.05 31.2 20.65 31.1 20.2 31 16.9 30.75 15.3 30.55 10.7 30.2 6.85 27.25 4.4 25.4 2.85 23 1.85 23.65 0.85 25.2 0 26.5 0 26.9 0 30.7 9.85 33.45 14.45 34.7 19.95 35.4 19.6 36.85 19.6 38.4 19.6 54.3 60.1 65.5 100.7 76.8 158 76.8 198.15 76.8 230.05 71.25 240.9 73.2 254.2 73.5
M 291.1 27.5
Q 293.3 31.35 293.55 34.5 293.7 35.95 294.15 42.2 294.6 47.65 295.15 47.45 294.8 47.4 295.55 44 296.45 39.9 296.45 38.4 296.45 32.65 291.1 27.5
M 325.55 42.45
Q 333.95 42.45 339.95 40.8 345.9 39.15 345.9 36.8 345.9 34.5 340.1 32.9 341.4 34.25 341.85 36.25 338.65 38.45 328.55 39.55 319.45 40.55 316.85 39.85 315.8 39.65 313.6 38.75 311.55 38.05 310.3 37.8 310.55 36.75 311.85 34.55 313.1 32.4 313.1 32.35 312.1 32.6 311.15 32.8 305.2 34.5 305.2 36.8 305.2 39.15 311.15 40.8 317.15 42.45 325.55 42.45 Z"/>

<path fill="#FFFFFF" stroke="none" d="
M 35.35 73.15
Q 31.9 73.15 29.1 73.6 29.2 74 29.1 74.5 28.9 75.45 27.4 76.65 25.9 77.9 25.8 78.8
L 25.85 78.8
Q 27.8 79.3 30.45 79.4 31.75 79.45 35.25 79.45 36.9 79.45 38.15 79.4 39.45 79.3 40.4 79.1 43.2 78.6 44.85 77.1 44.45 76.65 42.85 75.9 41.4 75.25 41 74.5 40.7 74 40.7 73.45 38.25 73.15 35.35 73.15
M 136.05 21.7
Q 151.65 16.95 151.65 10.25 151.65 9.75 151.55 9.3 150.7 4.2 140.5 0.3 94.35 1.75 60.1 11.25 53.35 13.15 47.7 15.2
L 47.65 15.2
Q 49.3 16.8 52.05 18.25 55 19.8 59.25 21.2 58.75 21.3 58.3 21.4 55.45 22.05 52.9 22.95 43.5 26.3 43.5 31 43.5 35.7 52.9 39 62.35 42.35 75.7 42.35 89.05 42.35 98.45 39 107.6 35.8 107.9 31.3 107.9 31.15 107.9 31 107.9 28.45 105.2 26.35 122.9 25.7 136.05 21.7
M 228.95 65.45
Q 220 61.45 219.45 55.9 187.85 63.15 147.55 63.15 92.75 63.15 53.95 49.7 34.35 42.9 24.65 34.7 24.85 35.35 24.95 36.15 25.25 38.9 25.3 39.25 25.85 41.45 27.95 43.5 29.35 44.85 32.1 46.55 52.35 58.95 75.15 64.2 84.15 66.3 95.55 67.7 102.35 68.55 116.1 69.8 148.9 72.65 165.6 73 193.2 73.45 214.85 69.35 222.35 67.95 222.65 67.9 227.05 67.15 230.4 67.15 232 67.15 233.95 67.35 231.35 66.5 228.95 65.45
M 297.65 48.15
Q 291.4 47.05 284.15 47.05 281.75 47.05 279.5 47.2 284.6 50.65 284.6 55.1 284.6 61.15 275.05 65.45 266.3 69.4 254.2 69.75 264.8 70.15 278.6 68.45 289.8 66.95 296.95 64.2 306.05 60.65 310.95 54.45 307.5 50.9 297.65 48.15
M 253.45 21.05
Q 253.45 19.7 250.65 18.7 247.9 17.75 244 17.75 240.1 17.75 237.3 18.7 234.55 19.7 234.55 21.05 234.55 22.4 237.3 23.35 240.1 24.35 244 24.35 247.9 24.35 250.65 23.35 253.45 22.4 253.45 21.05
M 341.85 36.25
Q 341.4 34.25 340.1 32.9 331.2 31.15 325.55 31.15 318.45 31.15 313.1 32.35 313.1 32.4 311.85 34.55 310.55 36.75 310.3 37.8 311.55 38.05 313.6 38.75 315.8 39.65 316.85 39.85 319.45 40.55 328.55 39.55 338.65 38.45 341.85 36.25 Z"/>

<path fill="#FFFFFF" fill-opacity="0.6980392156862745" stroke="none" d="
M 293.55 34.5
Q 293.3 31.35 291.1 27.5 287 23.5 279.75 19.9 270.4 15.25 255.85 11.25 251.4 10 246.7 8.9 209 0 158 0 149.05 0 140.5 0.3 150.7 4.2 151.55 9.3 151.65 9.75 151.65 10.25 151.65 16.95 136.05 21.7 122.9 25.7 105.2 26.35 107.9 28.45 107.9 31 107.9 31.15 107.9 31.3 107.6 35.8 98.45 39 89.05 42.35 75.7 42.35 62.35 42.35 52.9 39 43.5 35.7 43.5 31 43.5 26.3 52.9 22.95 55.45 22.05 58.3 21.4 58.75 21.3 59.25 21.2 55 19.8 52.05 18.25 49.3 16.8 47.65 15.2 44.15 16.45 41.1 17.75 37.55 17.5 33.7 17.5 23.4 17.5 15.3 19 12.45 19.55 9.85 20.25 5.3 21.55 2.85 23 4.4 25.4 6.85 27.25 10.7 30.2 15.3 30.55 16.9 30.75 20.2 31 20.65 31.1 21.05 31.2 23.1 31.8 24 33.2 24.4 33.8 24.65 34.7 34.35 42.9 53.95 49.7 92.75 63.15 147.55 63.15 187.85 63.15 219.45 55.9 220 61.45 228.95 65.45 231.35 66.5 233.95 67.35 235.9 67.5 238.15 67.85 240.7 68.2 245.8 69 247.35 69.2 249.05 69.4 251.5 69.6 254.2 69.75 266.3 69.4 275.05 65.45 284.6 61.15 284.6 55.1 284.6 50.65 279.5 47.2 281.75 47.05 284.15 47.05 291.4 47.05 297.65 48.15 297.35 48.05 297.05 47.95 296.1 47.7 295.15 47.45 294.6 47.65 294.15 42.2 293.7 35.95 293.55 34.5
M 250.65 18.7
Q 253.45 19.7 253.45 21.05 253.45 22.4 250.65 23.35 247.9 24.35 244 24.35 240.1 24.35 237.3 23.35 234.55 22.4 234.55 21.05 234.55 19.7 237.3 18.7 240.1 17.75 244 17.75 247.9 17.75 250.65 18.7 Z"/>
</g>
</defs>

<g transform="matrix( 1.0804443359375, 0, 0, 1.0804443359375, 329.7,85.2) ">
<g transform="matrix( 1, 0, 0, 1, -10,309.4) ">
<g transform="matrix( 1, 0, 0, 1, 0,0) ">
<use xlink:href="#Symbol_26_0_Layer0_0_FILL"/>
</g>
</g>
</g>
</svg>
