
<svg xmlns="http://www.w3.org/2000/svg" version="1.1" xmlns:xlink="http://www.w3.org/1999/xlink" preserveAspectRatio="none" x="0px" y="0px" width="1000px" height="1000px" viewBox="0 0 1000 1000">
<defs>
<g id="Symbol_141_1_Layer0_0_FILL">
<path fill="#FCEFB2" stroke="none" d="
M -22.05 96
Q -22 96.6 -21.95 97.25 -20.55 109.15 -23.9 120.5 -23.2 119.9 -22.6 119.25 -12.95 108.65 -20.25 95.9
L -22.05 96
M -46.85 69.6
Q -47.55 65.9 -48.3 63.2 -49.85 64.6 -51.9 65.5 -62.95 70.65 -74.6 67.95 -78.55 66.9 -81.4 64 -92.15 53.35 -93.9 37.75 -94.45 45.85 -92.5 53.65 -87.95 71.65 -69.8 75 -65.8 75.8 -62.15 77.35 -58.3 78.95 -54.9 76.7 -50 77.2 -46.45 74.05 -46.05 73.75 -46.85 69.6
M -79 16.95
Q -76.2 18.35 -73.05 17.55 -69.3 23.8 -64.75 29.25 -53.25 43.2 -39.2 54.55
L -38.45 48.45
Q -38.85 48.05 -51.5 31.2 -63.8 14.8 -64.25 14.55 -77.35 7.3 -87.2 -3.95 -88.45 0.65 -87.6 5.25 -86.15 13.2 -79 16.95
M -14.55 -8.15
Q -14.55 -7.8 -14.7 -7.6 -14.85 -7.35 -15.1 -7.35
L -31.3 -1.15
Q -28.6 1.35 -22.2 4 -16.2 6.5 -15.65 5.95 -9.9 0.5 -6.5 -6.7 -2.05 -16.05 -3.05 -26.35 -4.9 -44.9 -18.2 -58.45 -15.35 -51.85 -13.3 -45.05 -7.6 -26.15 -14.55 -8.15
M -95.1 -55.65
Q -95.35 -52.7 -95.45 -49.75 -96.15 -29.85 -81.45 -16.1
L -81.3 -18.5
Q -81.25 -21.05 -81.65 -21.5 -93 -36.8 -95.1 -55.65
M 77.7 -4.8
Q 72.9 -8.05 72.25 -7.4 73.45 -4.2 74.4 -0.9 78.2 12.2 68.9 21.2 55.7 33.9 49.05 50.95 42.15 68.55 43 87.4 45.55 82.8 48 78.2 55.5 64.2 62.05 49.85 62.9 48 64.25 46.5 69.9 40.5 74.7 33.75 85.6 18.5 82.9 -0.3 82.45 -1.55 77.7 -4.8
M 56.5 -64.5
Q 55.95 -64.5 55.45 -64.5 47 -65.7 45.3 -74.5 43.95 -70.3 44.85 -65.15 45.1 -63.8 45.95 -62.8 50.75 -56.95 58.5 -59.5
L 56.5 -64.5
M 14.65 -116.25
Q 17.25 -113.5 18.9 -110.1 20.35 -107.15 19.7 -101.65 19.1 -96.95 18.55 -96.6 12.6 -97.2 7.55 -100.8 7.45 -96.15 10.2 -92.4 12.05 -89.9 14.8 -91 16.6 -91.75 18.3 -92.8 24.35 -96.45 26.25 -103.05 26.65 -104.5 26.1 -105.85 22.85 -113.45 14.65 -116.25 Z"/>

<path fill="#FFFFFF" stroke="none" d="
M -21.95 97.25
Q -22 96.6 -22.05 96
L -26.45 104.9
Q -27.15 103.8 -27.75 102.7 -31.55 95.4 -39 92.6 -41.1 91.75 -43.05 91.9
L -23.9 120.5
Q -20.55 109.15 -21.95 97.25
M -43.85 95.45
Q -43.85 93.2 -45.15 91.6 -46.45 90.05 -48.3 90.05 -49.25 90.05 -51 92.2 -52.75 94.3 -52.75 95.45 -52.75 97.7 -51.45 99.25 -50.15 100.85 -48.3 100.85 -46.45 100.85 -45.15 99.25 -43.85 97.7 -43.85 95.45
M -44.25 75.8
Q -44.25 78.1 -42.95 79.7 -41.6 81.35 -39.7 81.35 -37.8 81.35 -36.5 79.7 -35.15 78.1 -35.15 75.8 -35.15 73.5 -36.5 71.85 -37.8 70.25 -39.7 70.25 -41.6 70.25 -42.95 71.85 -44.25 73.5 -44.25 75.8
M -60.85 49.15
Q -62 48.85 -62.9 49.4 -69.25 53.65 -69.85 61.8 -72.35 60.95 -74.7 59.85 -91.3 52.5 -91.65 34.2 -87.6 35.55 -85.35 31.8 -80.8 24.2 -88.9 20.4 -91.55 21.05 -92.95 23.5 -95.5 28.1 -92.8 32.45
L -93.9 37.75
Q -92.15 53.35 -81.4 64 -78.55 66.9 -74.6 67.95 -62.95 70.65 -51.9 65.5 -49.85 64.6 -48.3 63.2 -48.7 58.9 -51.45 55.35 -55.15 50.7 -60.85 49.15
M -85 -65.25
Q -93.15 -64.4 -95.1 -55.65 -93 -36.8 -81.65 -21.5 -81.25 -21.05 -81.3 -18.5
L -81.45 -16.1 -87.2 -3.95
Q -77.35 7.3 -64.25 14.55 -63.8 14.8 -51.5 31.2 -38.85 48.05 -38.45 48.45
L -46.5 6.75 -31.3 -1.15 -15.1 -7.35
Q -15.6 -7.25 -14.55 -8.15 -7.6 -26.15 -13.3 -45.05 -15.35 -51.85 -18.2 -58.45
L -25.4 -62.2
Q -25.2 -64.15 -25.2 -66.85 -25.2 -70.1 -25.6 -70.65 -28.05 -74.3 -32.35 -75.7 -34 -76.2 -37.6 -75.45 -41 -74.75 -41.4 -74.1 -46.4 -66.2 -44.1 -56.4 -62.75 -33.25 -60.3 -3.65
L -62.1 -3.3
Q -71.3 -29.8 -57.55 -54.15 -54.25 -51.75 -50.75 -54.5 -49.2 -55.7 -48.45 -57.35 -45.2 -64.2 -51.65 -69.55 -46.7 -80.2 -53.55 -89.35
L -47.55 -99.75
Q -68.6 -85.3 -75.9 -60.7 -77.4 -62.55 -79.45 -63.65 -82.15 -64.95 -85 -65.25
M 11.2 19.2
Q 8.65 19.2 6.85 21.45 5.1 23.7 5.1 26.85 5.1 30 6.85 32.25 8.65 34.5 11.2 34.5 13.75 34.5 15.5 32.25 17.3 30 17.3 26.85 17.3 23.7 15.5 21.45 13.75 19.2 11.2 19.2
M 87.6 47
Q 87.6 44.6 86.3 42.9 85 41.2 83.15 41.2 81.3 41.2 80 42.9 78.7 44.6 78.7 47 78.7 49.4 80 51.1 81.3 52.8 83.15 52.8 85 52.8 86.3 51.1 87.6 49.4 87.6 47
M 49.65 -79.7
L 45.3 -74.5
Q 47 -65.7 55.45 -64.5 55.95 -64.5 56.5 -64.5
L 58.5 -59.5 61.25 -50
Q 58.85 -49.65 56.45 -48.95 49 -46.65 46.65 -39.2 43.1 -27.75 44.1 -15.85 45.2 -3.3 49.8 8.4 51 11.45 52.25 14.45 50.35 13.45 48.15 13.05 45.5 12.7 42.75 16.8 40.4 20.3 40.5 21.25 27.75 26.25 21 37.8 18.2 42.6 17.6 48.3 16.05 63.5 15.3 78.8 14.5 94.4 15.95 109.75 16.2 112.1 16.45 114.5 20.5 113.5 24.55 112.35 51.55 104.25 66.75 80.8 68.5 78.05 70.65 72.45 72.7 67 72 67.85 70.8 66.7 67.2 65.85 64 65.1 63.6 65.25 60.05 69.75 61.05 75.95 61.25 76.85 61.9 78.05
L 37 96.35 43 87.4
Q 42.15 68.55 49.05 50.95 55.7 33.9 68.9 21.2 78.2 12.2 74.4 -0.9 73.45 -4.2 72.25 -7.4 72.9 -8.05 77.7 -4.8 82.45 -1.55 82.9 -0.3 82.75 -1.7 82.1 -2.95 81.4 -4.4 76.5 -9.5 77.15 -14.45 77.45 -19.75 78.45 -38.7 71.6 -56.3 64.95 -73.25 51.55 -85.8 45.5 -91.4 38.6 -95.85
L 49.65 -79.7
M 14.65 -116.25
Q 14.25 -116 13.85 -115.7 5.9 -110.25 7.55 -100.8 12.6 -97.2 18.55 -96.6 19.1 -96.95 19.7 -101.65 20.35 -107.15 18.9 -110.1 17.25 -113.5 14.65 -116.25 Z"/>
</g>
</defs>

<g transform="matrix( 1.0804443359375, 0, 0, 1.0804443359375, 329.7,85.2) ">
<g transform="matrix( 1, 0, 0, 1, 31.75,-80.95) ">
<g transform="matrix( 2.0740966796875, 0.0090484619140625, 0.0012054443359375, -0.2815704345703125, 105.3,452.7) ">
<g transform="matrix( 1, 0, 0, 1, 0,0) ">
<use xlink:href="#Symbol_141_1_Layer0_0_FILL"/>
</g>
</g>

<g transform="matrix( 1.794952392578125, 0.007843017578125, -0.0046234130859375, 1.0771484375, 114.7,345.1) ">
<g transform="matrix( 1, 0, 0, 1, 0,0) ">
<use xlink:href="#Symbol_141_1_Layer0_0_FILL"/>
</g>
</g>
</g>
</g>
</svg>
