
<svg xmlns="http://www.w3.org/2000/svg" version="1.1" xmlns:xlink="http://www.w3.org/1999/xlink" preserveAspectRatio="none" x="0px" y="0px" width="1000px" height="1000px" viewBox="0 0 1000 1000">
<defs>
<g id="Necro_Skeleton_Head_1_Layer0_0_FILL">
<path fill="#000000" stroke="none" d="
M 28.55 -2.7
Q 21.75 -4.25 14.9 -2.7 5.6 -0.7 0.05 7.15 -2.497265625 10.6970703125 -3.05 14.6 -3.5587890625 18.508203125 -2.45 24.95 -1.2875 31.3890625 0.4 34.15 1.8 33.4 5.25 30.65
L 8.55 28
Q 9.2 28.75 11.7 31.2 14.15 33.6 14.8 34.1
L 21.6 27.95
Q 22.6 29.1 26.15 31.25 29.4 33.2 30.25 33.45
L 36.15 26.25 47 30.7
Q 48.45 18.3 48.3 16.55 47.65 10.7 43.6 6.2 37.5 -0.45 28.55 -2.7
M 40.5 12.5
Q 43.6 19.05 41.45 26
L 33.5 21.45 28.7 27.9
Q 25.3 26.15 21.55 25.55 17.5 25.1 14.8 28.2
L 13.9 29.5
Q 13.6140625 28.683203125 12.1 26.5
L 11.35 25.45
Q 9.5 22.9 8.9 22.65
L 4.05 26.95
Q 3.7 24 3.45 21.1 2.7 13.15 8.1 7.25 8.9 6.85 9.75 6.4 17.1 2.4 25.5 3.9 30.7 4.65 35.4 7.1 38.75 8.9 40.5 12.5
M 20.8 19.45
Q 23.5 16.7 23 12.7 22.6 9.45 19.85 7.9 13.5 4.4 8.05 9.1 7.7 10.1 7.45 11.2 6.05 17.35 11.2 20.75 16.5 23.8 20.8 19.45
M 14.9 7.9
Q 17.2 7.9 18.8 9.55 20.45 11.25 20.45 13.65 20.45 16.05 18.8 17.7 17.2 19.4 14.9 19.4 12.6 19.4 10.95 17.7 9.35 16.05 9.35 13.65 9.35 11.25 10.95 9.55 12.6 7.9 14.9 7.9
M 34.3 10.2
Q 33.4 10.35 32.6 10.65 30.1 11.6 28.35 13.45 27.9 17.8 32 18.95 35.85 19.95 36.95 16.2 38.1 12.2 34.3 10.2
M 34.95 14.25
Q 35.5 16.25 33.65 16.9 31.45 17.6 30.2 15.65
L 32.2 11.6
Q 34.4 12.1 34.95 14.25 Z"/>

<path fill="#9999FF" stroke="none" d="
M 7.45 11.2
Q 7.7 10.1 8.05 9.1
L 8.1 7.25
Q 2.7 13.15 3.45 21.1 3.7 24 4.05 26.95
L 8.9 22.65
Q 9.5 22.9 11.35 25.45
L 12.1 26.5
Q 13.578125 28.528125 13.7 28.65
L 14.8 28.2 11.2 20.75
Q 6.05 17.35 7.45 11.2 Z"/>

<path fill="#333333" stroke="none" d="
M 18.8 9.55
Q 17.2 7.9 14.9 7.9 12.6 7.9 10.95 9.55 9.35 11.25 9.35 13.65 9.35 16.05 10.95 17.7 12.6 19.4 14.9 19.4 17.2 19.4 18.8 17.7 20.45 16.05 20.45 13.65 20.45 11.25 18.8 9.55
M 33.65 16.9
Q 35.5 16.25 34.95 14.25 34.4 12.1 32.2 11.6
L 30.2 15.65
Q 31.45 17.6 33.65 16.9 Z"/>

<path fill="#FFFFFF" stroke="none" d="
M 41.45 26
Q 43.6 19.05 40.5 12.5 38.75 8.9 35.4 7.1 30.7 4.65 25.5 3.9 17.1 2.4 9.75 6.4 8.9 6.85 8.1 7.25
L 8.05 9.1
Q 13.5 4.4 19.85 7.9 22.6 9.45 23 12.7 23.5 16.7 20.8 19.45 16.5 23.8 11.2 20.75
L 14.8 28.2
Q 17.5 25.1 21.55 25.55 25.3 26.15 28.7 27.9
L 33.5 21.45 41.45 26
M 32.6 10.65
Q 33.4 10.35 34.3 10.2 38.1 12.2 36.95 16.2 35.85 19.95 32 18.95 27.9 17.8 28.35 13.45 30.1 11.6 32.6 10.65 Z"/>
</g>

<g id="Necro_Hand_1_Layer1_0_FILL">
<path fill="#000000" stroke="none" d="
M 27.3 23.75
Q 31.3 20.1 31.6 19.2 32.55 16.75 32 13.65 31.1 9.15 27.55 5.8 25.9 4.25 19.65 2.85 13.45 1.5 11.55 2.3 9.75 3.1 5.25 7.35 0.25 12.05 -0.5 14.55 -0.85 15.85 0.25 19.9 1.3 23.85 2.2 24.95 2.7 25.55 6.3 27.7 9.85 29.85 10.7 30.1 15.45 31.4 22.35 27.8 23.45 27.2 27.3 23.75
M 25.1 10.1
Q 26.7357421875 12.0828125 27.25 14.55
L 27.25 14.6
Q 27.5 15.8 27.3 16.65 27.15 17.7 26.1 18.95 24.5 20.9 15 24.5 11.55 25.6 8.3 23.95 5 22.25 4.1 18.75 3.7 17.55 3.9 16.65 3.9365234375 16.322265625 4.1 15.85 4.25 15.45 5.15 14 6.1 12.45 6.45 12.05 8 10.75 9.7 9.4 13.05 6.7 13.75 6.45 14.75 6.05 17.65 6.4 20.3 6.7 21.1 7.1 23.45 8.1 25.1 10.1 Z"/>

<path fill="#4B286D" stroke="none" d="
M 27.25 14.6
L 27.25 14.55
Q 26.75 14.95 18.25 16.5 9.6 18.05 8.6 17.8 7.8 17.6 5.9 16.75
L 4.1 15.85
Q 3.9365234375 16.322265625 3.9 16.65 3.7 17.55 4.1 18.75 5 22.25 8.3 23.95 11.55 25.6 15 24.5 24.5 20.9 26.1 18.95 27.15 17.7 27.3 16.65 27.5 15.8 27.25 14.6 Z"/>

<path fill="#AC52D7" stroke="none" d="
M 27.25 14.55
Q 26.7357421875 12.0828125 25.1 10.1 23.45 8.1 21.1 7.1 20.3 6.7 17.65 6.4 14.75 6.05 13.75 6.45 13.05 6.7 9.7 9.4 8 10.75 6.45 12.05 6.1 12.45 5.15 14 4.25 15.45 4.1 15.85
L 5.9 16.75
Q 7.8 17.6 8.6 17.8 9.6 18.05 18.25 16.5 26.75 14.95 27.25 14.55 Z"/>
</g>

<g id="Necro_Hand_1_Layer0_0_FILL">
<path fill="#000000" stroke="none" d="
M 22.65 20.8
Q 24.1 21.55 24.3 21.85 23.7 23.8 23.5 24.95 23.2 26.75 23.65 28.1 23.8 28.55 25.85 29.75 27.9 30.95 28.65 31 29.4 31 31.25 28.85 33 26.8 33.15 26.2 33.5 24.45 33.45 23.2 34.8 23.85 36.35 23.45 37.35 23.1 38.05 22.4 38.95 21.55 39.15 20.55 39.6 18.75 38.4 17.1 37.8 16.35 34.9 15.05 32 13.8 31.6 14.05 31.15 14.3 30.45 17.05 29.85 16.55 28.4 15.75 27 14.9 26.45 14.7 23.8 13.8 21.35 14.3 18.55 15 17.2 17.1 16 19.1 17 20.4 17.5 21.15 20.95 20.1 21.25 20.1 22.65 20.8
M 36.1 -2.3
Q 33.15 -2.25 32.1 -1.65 31.3 -1.2 28.05 2.15 24.9 5.45 24.45 6.2 23.9 7.4 23.35 8.6 22.3 11.1 22.5 11.45 22.75 11.75 25.6 11.75 28.55 11.75 29.1 11.2 30.25 10.05 32.55 7.95 34.7 6.05 34.85 6 35 6 36.5 6.6 38.15 7.2 38.85 7.15 39.45 7.05 41 5.4 42.6 3.6 42.65 2.65 42.65 1.7 41.3 -0.15 40.1 -1.8 39.55 -2.05 38.85 -2.4 36.1 -2.3 Z"/>
</g>

<g id="Necro_Robe_0_Layer1_0_FILL">
<path fill="#000000" stroke="none" d="
M 53.05 -5.9
Q 48.35 -8.9 42.15 -7.85 36.75 -6.8 32.15 -2.8 26.75 1.8 24.45 8.75 14 48.2 14.95 49.5 15.5 50.2 19.75 52.65 24 55.1 26.25 55.95 34.8 59.2 48.85 57.9 50.55 57.75 54.6 56.65 58.5 55.55 59.55 54.95 61 54.35 64.9 51.35 68.95 48.25 69.1 47.5 69.2 46.9 66.35 34.4 63.15 20.2 62.35 15 61.6 10.25 61.4 9.15 60.8 5.85 59.95 3.4 57.6 -3 53.05 -5.9
M 53.7 8.7
L 53.7 8.65 54.45 11.35
Q 54.1 11.85 50.85 16.6 47.3 21.8 47 22.4 46.4458984375 23.6666015625 46.6 32.3 46.633203125 32.8947265625 46.65 33.5 46.65859375 34.014453125 46.65 34.5
L 46.75 38.1
Q 47.1619140625 50.1373046875 47.55 51.35 47.6 51.4 47.6 51.5 42.85 51.75 42 51.75 41.883984375 46.4490234375 41.75 42.3 41.6986328125 39.247265625 41.6 36.8 41.554296875 34.514453125 41.5 32.8
L 41.3 29.3
Q 41.3080078125 29.0939453125 41.3 28.9
L 40.85 26.75
Q 39.789453125 23.74296875 36.05 18.5 35.540234375 17.7849609375 35.05 17.15 31.8 12.8 30.9 11.9 33 6.75 36.5 3.65 38.65 1.75 41.15 0.95 43.95 0 46.4 0.7 50.172265625 1.690234375 52.5 5.9 52.6 6.1 53.7 8.7
M 51.8 20.75
Q 54.1 17.05 55.3 15.45 57 24.6 58.2 29.6 60.2 37.65 62.85 43.8 63.05 44.3 59.15 47.05 55.05 49.95 52.8 50.6 51.2 51.05 49.25 51.3 49.2 45.05 49.2 38.65 49.15 25.9 49.3 25.25 49.5 24.55 51.8 20.75
M 29.8 15.2
L 29.8 15.25
Q 29.9107421875 15.34921875 30 15.45
L 30 15.45
Q 31.3 17 33.85 20.85 37.55 26.4 37.95 28.75 38.05 29.25 38.7 38.3 39.45 48.05 39.85 51.8 37.7671875 51.750390625 36.25 51.55
L 36.25 51.55
Q 34.1 51.3 31.35 50.65 30.4 50.4 26.6 49.3 23.7 48.4 22.65 47.2 23.8 44.6 26.8 29.95 28.35 22.55 29.8 15.2 Z"/>

<path fill="#CC33FF" stroke="none" d="
M 33.85 20.85
Q 31.3 17 30 15.45 30.1 17.15 31.5 28.85 32.9 40.5 33.2 42 33.8 44.55 36.25 51.55 37.7671875 51.750390625 39.85 51.8 39.45 48.05 38.7 38.3 38.05 29.25 37.95 28.75 37.55 26.4 33.85 20.85
M 55.3 15.45
Q 54.1 17.05 51.8 20.75 49.5 24.55 49.3 25.25 49.15 25.9 49.2 38.65 49.2 45.05 49.25 51.3 51.2 51.05 52.8 50.6 55.05 49.95 59.15 47.05 63.05 44.3 62.85 43.8 60.2 37.65 58.2 29.6 57 24.6 55.3 15.45 Z"/>

<path fill="#4B286D" stroke="none" d="
M 29.8 15.25
L 29.8 15.2
Q 28.35 22.55 26.8 29.95 23.8 44.6 22.65 47.2 23.7 48.4 26.6 49.3 30.4 50.4 31.35 50.65 34.1 51.3 36.25 51.55
L 36.25 51.55
Q 33.8 44.55 33.2 42 32.9 40.5 31.5 28.85 30.1 17.15 30 15.45
L 30 15.45
Q 29.9107421875 15.34921875 29.8 15.25 Z"/>

<path fill="#FFFFFF" stroke="none" d="
M 46.95 43.2
Q 43 42.8 41.75 42.3 41.883984375 46.4490234375 42 51.75 42.85 51.75 47.6 51.5 47.6 51.4 47.55 51.35 47.1619140625 50.1373046875 46.75 38.1 43.25 39.65 42.35 39.65 42.8 40.15 44.3 40.35 45.6888671875 40.44921875 46.85 40.5 46.9029296875 41.9541015625 46.95 43.2
M 42.9 33.35
Q 42.166015625 33.142578125 41.5 32.8 41.554296875 34.514453125 41.6 36.8 46.35 34.9 46.65 34.5 46.65859375 34.014453125 46.65 33.5 44.7865234375 33.9275390625 42.9 33.35
M 52.2 12.05
L 53.7 8.7
Q 52.6 6.1 52.5 5.9 50.7787109375 7.684375 47.85 8.5 45.4 9.2 40.9 9.3 36.65 9.5 34.4 8.55 34.95 9.6 36.75 10.55 38.9 11.6 39.45 12.2 36.4 13 33.8 11.15 34.75 12.95 38.7 15.6 40.65 16.9 42.5 18.15 42.65 18.6 39.4 18.2 36.05 17.8 35.05 17.15 35.540234375 17.7849609375 36.05 18.5 39.789453125 23.74296875 40.85 26.75 40.7435546875 26.426171875 40.6 26.05 40.9 26.2 43.4 26 45.8 25.85 45.85 25.95 46 26.1 41.3 28.9 41.3080078125 29.0939453125 41.3 29.3 42.10703125 30.073046875 43.2 30.45 44.65 30.95 46.05 30.65 46.249609375 30.61015625 46.55 30.5 46.5873046875 31.3681640625 46.6 32.3 46.4458984375 23.6666015625 47 22.4 47.3 21.8 50.85 16.6
L 50.8 16.65
Q 50.45 16.9 48.25 17.95 45.95 19 45.95 18.85 45.95 18.75 49.75 15.8 50.05 15.5 51 14.1 51.9 12.65 52.2 12.05 Z"/>

<path fill="#9999FF" stroke="none" d="
M 46.65 34.5
Q 46.35 34.9 41.6 36.8 41.6986328125 39.247265625 41.75 42.3 43 42.8 46.95 43.2 46.9029296875 41.9541015625 46.85 40.5 45.6888671875 40.44921875 44.3 40.35 42.8 40.15 42.35 39.65 43.25 39.65 46.75 38.1
L 46.65 34.5
M 43.4 26
Q 40.9 26.2 40.6 26.05 40.7435546875 26.426171875 40.85 26.75
L 41.3 28.9
Q 46 26.1 45.85 25.95 45.8 25.85 43.4 26
M 46.55 30.5
Q 46.249609375 30.61015625 46.05 30.65 44.65 30.95 43.2 30.45 42.10703125 30.073046875 41.3 29.3
L 41.5 32.8
Q 42.166015625 33.142578125 42.9 33.35 44.7865234375 33.9275390625 46.65 33.5 46.633203125 32.8947265625 46.6 32.3 46.5873046875 31.3681640625 46.55 30.5
M 40.9 9.3
Q 45.4 9.2 47.85 8.5 50.7787109375 7.684375 52.5 5.9 50.172265625 1.690234375 46.4 0.7 43.95 0 41.15 0.95 38.65 1.75 36.5 3.65 33 6.75 30.9 11.9 31.8 12.8 35.05 17.15 36.05 17.8 39.4 18.2 42.65 18.6 42.5 18.15 40.65 16.9 38.7 15.6 34.75 12.95 33.8 11.15 36.4 13 39.45 12.2 38.9 11.6 36.75 10.55 34.95 9.6 34.4 8.55 36.65 9.5 40.9 9.3
M 53.7 8.7
L 52.2 12.05
Q 51.9 12.65 51 14.1 50.05 15.5 49.75 15.8 45.95 18.75 45.95 18.85 45.95 19 48.25 17.95 50.45 16.9 50.8 16.65
L 50.85 16.6
Q 54.1 11.85 54.45 11.35
L 53.7 8.65 53.7 8.7 Z"/>
</g>

<g id="Necro_Robe_0_Layer0_0_FILL">
<path fill="#000000" stroke="none" d="
M 33.95 -13.25
Q 32.05 -14.95 31.15 -15.05 29.85 -15.25 25.95 -13.75 21.75 -12.15 21 -10.75 20.45 -9.65 20.6 -6.55 20.7 -5 20.8 -3.35 20.25 -1.9 19.8 -0.55 18.85 2.2 18.9 3.4 19 5.2 19.7 6.65 20.45 8.3 21.8 9.15 22.85 9.8 26.95 9.55 31.2 9.25 32.4 8.3 32.8 7.95 34.35 6.3 35.5 5.05 36.45 4.6 37.75 3.9 53.75 3.2 54.85 5.55 58.2 7.05 60.7 8.15 62.75 7.9 64.75 7.7 66.35 6.25 67.9 4.85 68.45 2.85 68.9 1.25 67.3 -2.2 66.5 -3.95 65.5 -5.65 64.95 -8.1 64 -10.35 62.2 -14.9 60 -15.55 57.35 -16.35 54.7 -15 52.05 -13.6 51.25 -11 48.05 -10.7 42.15 -10.85 36.45 -11 36.05 -11.3 34.95 -12.35 33.95 -13.25
M 24.85 -1.2
Q 25.15 -1.4 27.1 -3 28.85 -4.5 28.65 -4.8 27.4 -5.4 26.75 -5.8 25.5 -6.55 25.9 -7.05 27.044140625 -8.271875 27.95 -9.85 28.896875 -11.383984375 30.5 -10.25 32.15703125 -9.112890625 33 -7.05 33.8974609375 -4.9958984375 44 -4.45 54.20234375 -3.846484375 54 -4.65 53.8427734375 -5.4607421875 54.35 -7.2 54.8595703125 -8.8857421875 57.75 -9.5 58.1 -9.65 60.2 -8.4 60.8 -8.05 59.55 -4.35
L 61.95 -2.85
Q 64.546875 -1.2068359375 62.65 0.6 60.8921875 2.8533203125 58.8 2.4 56.705859375 1.9474609375 55.7 1.25 54.748046875 0.55078125 44.1 0.1 33.144921875 -0.3521484375 33.1 0.35 33.0650390625 1.105859375 30.9 3.65 28.7787109375 6.2388671875 26.7 5.45 25.75 5.1 24.6 3 23.45 0.9 23.8 0.15 24.1623046875 -0.4986328125 24.85 -1.2 Z"/>

<path fill="#9999FF" stroke="none" d="
M 56.3 -1.75
Q 57.25 -2.9 57 -2.85 53.5 -2.35 43.05 -2.6 33.7 -2.8 33.15 -2.45 32.25 -1.85 30.95 0.4 29.75 2.45 28.55 2.9 27.6 3.35 26.8 2.85 26.3 2.5 25.6 0.75 24.95 -1.05 24.85 -1.2 24.1623046875 -0.4986328125 23.8 0.15 23.45 0.9 24.6 3 25.75 5.1 26.7 5.45 28.7787109375 6.2388671875 30.9 3.65 33.0650390625 1.105859375 33.1 0.35 33.144921875 -0.3521484375 44.1 0.1 54.748046875 0.55078125 55.7 1.25 56.705859375 1.9474609375 58.8 2.4 60.8921875 2.8533203125 62.65 0.6 64.546875 -1.2068359375 61.95 -2.85
L 61.45 -3.15
Q 61.35 -2.8 61.3 -1.3 61.25 0.05 61.15 0.2 60.95 0.6 58.5 0.5 55.9 0.35 55 -0.4 55.35 -0.65 56.3 -1.75 Z"/>

<path fill="#FFFFFF" stroke="none" d="
M 27.1 -3
Q 25.15 -1.4 24.85 -1.2 24.95 -1.05 25.6 0.75 26.3 2.5 26.8 2.85 27.6 3.35 28.55 2.9 29.75 2.45 30.95 0.4 32.25 -1.85 33.15 -2.45 33.7 -2.8 43.05 -2.6 53.5 -2.35 57 -2.85 57.25 -2.9 56.3 -1.75 55.35 -0.65 55 -0.4 55.9 0.35 58.5 0.5 60.95 0.6 61.15 0.2 61.25 0.05 61.3 -1.3 61.35 -2.8 61.45 -3.15
L 61.95 -2.85 59.55 -4.35
Q 60.8 -8.05 60.2 -8.4 58.1 -9.65 57.75 -9.5 54.8595703125 -8.8857421875 54.35 -7.2 53.8427734375 -5.4607421875 54 -4.65 54.20234375 -3.846484375 44 -4.45 33.8974609375 -4.9958984375 33 -7.05 32.15703125 -9.112890625 30.5 -10.25 28.896875 -11.383984375 27.95 -9.85 27.044140625 -8.271875 25.9 -7.05 25.5 -6.55 26.75 -5.8 27.4 -5.4 28.65 -4.8 28.85 -4.5 27.1 -3 Z"/>
</g>

<g id="Necro_Head_0_Layer1_0_FILL">
<path fill="#000000" stroke="none" d="
M 43.95 -86.1
Q 40.15 -81.7 44.1 -76.95 41 -76.5 36.2 -73.15 32 -69.85 31.75 -69.8 24.405859375 -68.912890625 18.5 -69.4 18.65 -69.9 18.8 -72.05 19 -74.5 18.9 -74.75 18.7 -75.5 10.6 -78.85 12.55 -81.4 14.9 -88.15 14.85 -89.1 11.95 -92.3 8.9 -95.65 7.9 -95.45 7.7 -95.15 8.55 -93.2 9.45 -91.2 10.15 -90.35 11.55 -88.8 10.1 -84.6 8.3 -80.35 8.05 -79.8 7.25 -77.6 10.8 -74.65 14.55 -72 14.55 -71.8 14.85 -67.9 13.4 -68.15
L -2.65 -63.2
Q -2.8 -63.2 -6.2 -65.5 -9.45 -67.65 -10.45 -67.45 -12.9 -66.05 -15.55 -64.8 -20.85 -62.2 -22.45 -62.35 -22.9 -62.75 -24.65 -66.1 -24.9 -65.15 -24.55 -62.65 -24.15 -60.35 -23.85 -60 -23.25 -59.25 -17.7 -59.75 -11.8 -60.3 -9.35 -61.9
L -10.15 -55.8 -6.5 -31.85
Q -6.9 -31.3 -13.3 -34.4 -19.55 -37.45 -21.45 -37.25 -24.35 -34.05 -27.45 -31.05 -33.7 -25.1 -34.85 -26.2 -45.65 -26.15 -46.1 -24.5 -45.1 -24.5 -36.65 -23.7 -28.6 -22.9 -28.5 -23 -27.5 -23.4 -24.2 -27.6 -20.35 -32.45 -19.7 -33.05 -17.7 -31.8 -11.95 -29 -5.7 -25.95 -5.15 -26.2 -5.1 -24.55 -4.15 -19.5 -3.25 -14.55 -3.05 -14.45 -2.9 -14.4 -8.8 -7.5 -14.85 -0.5 -14.9 -0.4 -17.15 5.5 -11.15 8
L -23.95 18.35
Q -22.7 18.4 -16.6 14.3 -10.3 10.05 -9.4 8.15
L -14.35 3.05
Q -14.2 2.45 -9.3 -1.85 -4.05 -6.45 -1.35 -7.9 -0.155859375 0.0111328125 0.85 6.95 1.06484375 8.2392578125 1.25 9.45 2.7060546875 19.1923828125 3.85 26.95 4.4 30.7103515625 4.85 34 6.312109375 43.8576171875 7.1 49.7 8 56.35 13.8 58.85 44.1 50.4 45.85 49.2 53.7 43.85 51.8 34.05
L 43.55 -15.6
Q 45.4 -13.8 46 -13.85 49.05 -14.5 52.2 -15.25 52.8 -14.65 55.95 -10.4 58.5 -7 59.1 -7.2 59.45 -7.3 55.25 -15.5 51.55 -19.7 46.8 -16.7
L 42.75 -21.5 40.4 -43.2
Q 39.35 -43.35 45.55 -45 51.6 -46.65 52.4 -46.1 58.3 -41.85 63.05 -47.45 71.95 -54.85 71.5 -55.85 70.7 -56.2 63.6 -52.7 56.6 -49.2 55.8 -49.6 52.25 -51.45 48.7 -52.5 39.85 -47.3 39.6 -46.4
L 39.05 -67.05
Q 37.65 -67.25 41.8 -70.5 43.9 -72.15 46.4 -73.85 47.1 -74.05 47.2 -77.25 47.35 -80.75 45.55 -82.15 47.8 -83.8 50.1 -88.75 51.2 -91.2 51.9 -93.35 51.6 -93.3 48.6 -90.65 45.4 -87.8 43.95 -86.1
M 1.25 -55.1
Q 4.35 -57.5 6.55 -57.5
L 31.45 -63.4
Q 33.8921875 -41.4197265625 40.55 16.1 40.945703125 19.536328125 41.35 23.1 41.6740234375 25.836328125 42 28.65
L 19 36.95 11.95 39.95
Q 11.671484375 37.6443359375 11.15 33.85 10.7408203125 30.8130859375 10.15 26.8 9.16015625 19.630859375 7.65 9.35 7.4619140625 8.1166015625 7.25 6.85 3.94921875 -15.7431640625 -1.6 -52.25 -1.55 -53 1.25 -55.1
M 44.3 40.6
Q 44.35 41.1 44.2 42.15 44 43.35 43.7 43.6 31.4 51.3 16.7 52.95 15.05 53.05 14.3 51.8 12.05 48.05 12.35 43.15
L 42.55 32.15 42.75 33.15 44.3 40.6
M 29.3 -31.75
Q 28.8 -29.05 28.7 -27.55 28.55 -25.45 26.85 -24.55
L 23.05 -28.15
Q 22 -28.05 20.15 -23.95 18.1 -19.45 17.25 -18.8 16.55 -18.3 15.75 -18.3 9.65 -18.45 8.25 -24.7 6.7 -28.05 6.65 -27.7 5.5 -22.05 8.9 -17.15 11.95 -13.6 16.8 -14.1 18.35 -13.95 19.5 -14.75 22.9 -17.15 24.25 -21.55 27.2 -19.85 29.75 -22.35 32.25 -24.9 32.05 -28.6 31.85 -32.45 29.95 -34.6 29.8 -34.4 29.3 -31.75 Z"/>

<path fill="#CCCCFF" stroke="none" d="
M 44.3 40.6
L 42.75 33.15 20.5 43.85
Q 20.75 47.65 24.3 48.25 26 48.1 33.65 45.05 40.15 42.5 44.3 40.6
M 31.45 -63.4
L 6.55 -57.5 8.25 -24.7
Q 9.65 -18.45 15.75 -18.3 16.55 -18.3 17.25 -18.8 18.1 -19.45 20.15 -23.95 22 -28.05 23.05 -28.15
L 26.85 -24.55
Q 28.55 -25.45 28.7 -27.55 28.8 -29.05 29.3 -31.75 29.8 -34.4 29.95 -34.6 31.85 -32.45 32.05 -28.6 32.25 -24.9 29.75 -22.35 27.2 -19.85 24.25 -21.55 22.9 -17.15 19.5 -14.75 18.35 -13.95 16.8 -14.1 11.95 -13.6 8.9 -17.15 9.55 -10.3 12.65 7.65 15.85 26.75 17.55 32.55 18.2 34.75 19 36.95
L 42 28.65
Q 41.6740234375 25.836328125 41.35 23.1 40.945703125 19.536328125 40.55 16.1 33.8921875 -41.4197265625 31.45 -63.4 Z"/>

<path fill="#6A6A9C" stroke="none" d="
M 44.2 42.15
Q 44.35 41.1 44.3 40.6 40.15 42.5 33.65 45.05 26 48.1 24.3 48.25 20.75 47.65 20.5 43.85
L 42.75 33.15 42.55 32.15 12.35 43.15
Q 12.05 48.05 14.3 51.8 15.05 53.05 16.7 52.95 31.4 51.3 43.7 43.6 44 43.35 44.2 42.15
M 6.55 -57.5
Q 4.35 -57.5 1.25 -55.1 -1.55 -53 -1.6 -52.25 3.94921875 -15.7431640625 7.25 6.85 7.4619140625 8.1166015625 7.65 9.35 9.16015625 19.630859375 10.15 26.8 10.7408203125 30.8130859375 11.15 33.85 11.671484375 37.6443359375 11.95 39.95
L 19 36.95
Q 18.2 34.75 17.55 32.55 15.85 26.75 12.65 7.65 9.55 -10.3 8.9 -17.15 5.5 -22.05 6.65 -27.7 6.7 -28.05 8.25 -24.7
L 6.55 -57.5 Z"/>
</g>
</defs>

<g transform="matrix( 1.030609130859375, 0, 0, 1.030609130859375, 459.8,308.8) ">
<g transform="matrix( 1, 0, 0, 1, -12.15,-1.35) ">
<g transform="matrix( 0.9510345458984375, 0.3056640625, -0.3056640625, 0.9510345458984375, -44,51.45) ">
<g transform="matrix( 1, 0, 0, 1, 0,0) ">
<use xlink:href="#Necro_Skeleton_Head_1_Layer0_0_FILL"/>
</g>
</g>

<g transform="matrix( 0.9924163818359375, -0.1185455322265625, 0.1185455322265625, 0.9924163818359375, 95.8,45.3) ">
<g transform="matrix( 1, 0, 0, 1, 0,0) ">
<use xlink:href="#Necro_Skeleton_Head_1_Layer0_0_FILL"/>
</g>
</g>

<g transform="matrix( 0.85260009765625, 0.5194854736328125, -0.5194854736328125, 0.85260009765625, 115.8,-32.75) ">
<g transform="matrix( 1, 0, 0, 1, 0,0) ">
<use xlink:href="#Necro_Skeleton_Head_1_Layer0_0_FILL"/>
</g>
</g>

<g transform="matrix( 0.8481903076171875, -0.526641845703125, 0.526641845703125, 0.8481903076171875, -58,-5.6) ">
<g transform="matrix( 1, 0, 0, 1, 0,0) ">
<use xlink:href="#Necro_Skeleton_Head_1_Layer0_0_FILL"/>
</g>
</g>

<g transform="matrix( 0.9957427978515625, -0.087371826171875, 0.087371826171875, 0.9957427978515625, 18.25,-66.3) ">
<g transform="matrix( 1, 0, 0, 1, 0,0) ">
<use xlink:href="#Necro_Skeleton_Head_1_Layer0_0_FILL"/>
</g>
</g>

<g transform="matrix( 0.5648956298828125, 0.8197479248046875, -0.8197479248046875, 0.5648956298828125, 102.95,125.5) ">
<g transform="matrix( 1, 0, 0, 1, 0,0) ">
<use xlink:href="#Necro_Hand_1_Layer1_0_FILL"/>
</g>

<g transform="matrix( 1, 0, 0, 1, 0,0) ">
<use xlink:href="#Necro_Hand_1_Layer0_0_FILL"/>
</g>
</g>

<g transform="matrix( 1, 0, -0.0171051025390625, 0.9732513427734375, 12.6,132.8) ">
<g transform="matrix( 1, 0, 0, 1, 0,0) ">
<use xlink:href="#Necro_Robe_0_Layer1_0_FILL"/>
</g>

<g transform="matrix( 1, 0, 0, 1, 0,0) ">
<use xlink:href="#Necro_Robe_0_Layer0_0_FILL"/>
</g>
</g>

<g transform="matrix( 0.9997711181640625, 0.0181121826171875, -0.0181121826171875, 0.9997711181640625, 28.3,63.2) ">
<g transform="matrix( 1, 0, 0, 1, 0,0) ">
<use xlink:href="#Necro_Head_0_Layer1_0_FILL"/>
</g>
</g>

<g transform="matrix( -0.98638916015625, 0.1611175537109375, -0.1611175537109375, -0.98638916015625, 25.9,167.75) ">
<g transform="matrix( 1, 0, 0, 1, 0,0) ">
<use xlink:href="#Necro_Hand_1_Layer1_0_FILL"/>
</g>

<g transform="matrix( 1, 0, 0, 1, 0,0) ">
<use xlink:href="#Necro_Hand_1_Layer0_0_FILL"/>
</g>
</g>
</g>
</g>
</svg>
