
<svg xmlns="http://www.w3.org/2000/svg" version="1.1" xmlns:xlink="http://www.w3.org/1999/xlink" preserveAspectRatio="none" x="0px" y="0px" width="1000px" height="1000px" viewBox="0 0 1000 1000">
<defs>
<g id="Gargantuan_arm_3_Layer0_0_FILL">
<path fill="#000000" stroke="none" d="
M 47.95 147.35
Q 57.2341796875 139.8626953125 57.2 138.7
L 62.7 147.55
Q 107.4021484375 156.8966796875 103.05 143.5
L 105.3 143.05
Q 108.0732421875 152.3796875 113 151.3 116.25 150.6 125.55 146.1 146.8576171875 118.848828125 106.45 118.4 103.25 120.65 103.15 124.55
L 96.65 114.45
Q 84.8 109.8 62.6 114.3
L 54.35 119.2
Q 42.95 103.05 26.95 111.4 25.65 109.4 22.5 107.2 16.25 102.8 7.25 101.85 -11.084765625 130.66875 3.7 133.85 18.53671875 137.0421875 18.7 133.7
L 22.05 135.75
Q 37.992578125 155.429296875 47.95 147.35
M 44.85 130.85
L 45.5 133.15 49.35 137.05 48.35 139
Q 40.1 139.95 32.65 136.45 30.9 135.65 30.15 133.9
L 34.85 131.8 42.65 132.3 44.85 130.85
M 52.55 133
Q 50.5 132.35 49.6 130.25 57.15 129 64.6 129.35
L 69.3 132.3
Q 61.1 136.05 52.55 133
M 48.15 125.3
L 45 128.65
Q 44.05 127.55 40 126.7 36.7 126 35 126
L 29.45 119.55
Q 40.25 117.9 50.45 122.1
L 50.9 124.6 48.15 125.3
M 73.9 129.7
L 66.55 124.9 66.65 123.15
Q 79.45 121.9 92.15 124.2
L 93.15 126.45 91.7 127.1
Q 89.1 128.5 87.25 131.05 86.75 131.8 86.3 132.6 80.9 127.85 73.9 129.7
M 68.3 140.1
L 68.35 138.15 85.25 135.1 85.85 134.65 86.4 135.15
Q 87.25 136.7 88.8 137.75 91 139.25 93.55 139.25
L 93.1 140.95 68.3 140.1
M 6.5 121.5
L 8.45 122.1 8.75 124 13.15 128.5
Q 9.55 130.3 7.1 127.05 5.3 124.6 6.5 121.5
M 7.7 115.95
Q 7.8 115.35 7.95 114.75 8.35 112.85 9.55 111.7 10.05 111.25 10.6 110.9
L 19.35 114.1 18.95 115.7 16.25 115 10.65 117.35 7.7 115.95
M 13.05 122.3
L 15.75 120.2 31.45 128.8
Q 28.95 128.95 26.4 128.8 18.6 127.8 13.05 122.3
M 121.85 131.05
Q 122 131.3 122.1 131.6
L 115.55 130.85 114.7 129
Q 112.5 126.5 109.2 125.6 108.45 125.35 107.7 125.15
L 108.5 123.2
Q 116.9 124.3 121.85 131.05
M 93.3 134
Q 92.95 133.85 95.45 131.7
L 98 129.6
Q 100.8 128.9 106.05 130.4 110.1 131.6 110.9 132.2 103 139.1 93.3 134
M 108.65 140.05
Q 109.1 140 109.55 139.95 110.3 139.7 111.05 139.35 111.8 139 112.4 138.5 113.9 137.25 114.95 135.7
L 121.65 138.15 120.35 142.35
Q 119.25 142.5 118.15 142.65 113.1 142.3 108.6 140.1
L 108.5 140.05 108.65 140.05 Z"/>

<path fill="#6C5477" stroke="none" d="
M 108.65 140.05
L 108.6 140.1
Q 113.1 142.3 118.15 142.65 119.25 142.5 120.35 142.35
L 121.65 138.15 114.95 135.7
Q 113.9 137.25 112.4 138.5 111.8 139 111.05 139.35 110.3 139.7 109.55 139.95 109.1 140 108.65 140.05
M 8.45 122.1
L 6.5 121.5
Q 5.3 124.6 7.1 127.05 9.55 130.3 13.15 128.5
L 8.75 124 8.45 122.1
M 68.35 138.15
L 68.3 140.1 93.1 140.95 93.55 139.25
Q 91 139.25 88.8 137.75 87.25 136.7 86.4 135.15
L 85.25 135.1 68.35 138.15
M 45.5 133.15
L 44.85 130.85 42.65 132.3 34.85 131.8 30.15 133.9
Q 30.9 135.65 32.65 136.45 40.1 139.95 48.35 139
L 49.35 137.05 45.5 133.15 Z"/>

<path fill="#9999FF" stroke="none" d="
M 108.6 140.1
L 108.65 140.05 108.5 140.05 108.6 140.1 Z"/>

<path fill="#B78DCB" stroke="none" d="
M 95.45 131.7
Q 92.95 133.85 93.3 134 103 139.1 110.9 132.2 110.1 131.6 106.05 130.4 100.8 128.9 98 129.6
L 95.45 131.7
M 122.1 131.6
Q 122 131.3 121.85 131.05 116.9 124.3 108.5 123.2
L 107.7 125.15
Q 108.45 125.35 109.2 125.6 112.5 126.5 114.7 129
L 115.55 130.85 122.1 131.6
M 15.75 120.2
L 13.05 122.3
Q 18.6 127.8 26.4 128.8 28.95 128.95 31.45 128.8
L 15.75 120.2
M 7.95 114.75
Q 7.8 115.35 7.7 115.95
L 10.65 117.35 16.25 115 18.95 115.7 19.35 114.1 10.6 110.9
Q 10.05 111.25 9.55 111.7 8.35 112.85 7.95 114.75
M 85.25 135.1
L 86.4 135.15 85.85 134.65 85.25 135.1
M 66.55 124.9
L 73.9 129.7
Q 80.9 127.85 86.3 132.6 86.75 131.8 87.25 131.05 89.1 128.5 91.7 127.1
L 93.15 126.45 92.15 124.2
Q 79.45 121.9 66.65 123.15
L 66.55 124.9
M 45 128.65
L 48.15 125.3 50.9 124.6 50.45 122.1
Q 40.25 117.9 29.45 119.55
L 35 126
Q 36.7 126 40 126.7 44.05 127.55 45 128.65
M 49.6 130.25
Q 50.5 132.35 52.55 133 61.1 136.05 69.3 132.3
L 64.6 129.35
Q 57.15 129 49.6 130.25 Z"/>
</g>
</defs>

<g transform="matrix( 0.662353515625, 0, 0, 0.662353515625, 419.05,465.2) ">
<g transform="matrix( 0.9990997314453125, -0.02459716796875, 0.02459716796875, 0.9990997314453125, 37.15,-143.85) ">
<g transform="matrix( 1, 0, 0, 1, 0,0) ">
<use xlink:href="#Gargantuan_arm_3_Layer0_0_FILL"/>
</g>
</g>
</g>
</svg>
