
<svg xmlns="http://www.w3.org/2000/svg" version="1.1" xmlns:xlink="http://www.w3.org/1999/xlink" preserveAspectRatio="none" x="0px" y="0px" width="1000px" height="1000px" viewBox="0 0 1000 1000">
<defs>
<linearGradient id="Gradient_1" gradientUnits="userSpaceOnUse" x1="95.8625" y1="285.54999999999995" x2="95.6375" y2="-11.150000000000006" spreadMethod="pad">
<stop  offset="17.647058823529413%" stop-color="#FF66FF"/>

<stop  offset="48.23529411764706%" stop-color="#CB5FFF"/>

<stop  offset="100%" stop-color="#271B1B"/>
</linearGradient>

<linearGradient id="Gradient_2" gradientUnits="userSpaceOnUse" x1="53.3" y1="270.4125" x2="59.8" y2="22.1875" spreadMethod="pad">
<stop  offset="0%" stop-color="#FF66FF"/>

<stop  offset="100%" stop-color="#271B1B"/>
</linearGradient>

<linearGradient id="Gradient_3" gradientUnits="userSpaceOnUse" x1="30.2375" y1="259.2875" x2="81.4625" y2="57.8125" spreadMethod="pad">
<stop  offset="17.647058823529413%" stop-color="#FF66FF"/>

<stop  offset="48.23529411764706%" stop-color="#CB5FFF"/>

<stop  offset="100%" stop-color="#271B1B"/>
</linearGradient>

<g id="Gargantuan_arm_1_Layer0_0_FILL">
<path fill="#000000" stroke="none" d="
M 102.45 11.4
Q 90.8744140625 4.7259765625 82.2 7.25 73.5328125 9.83359375 65.4 17.55 57.2560546875 25.3056640625 56.4 28.15 46 63.65 49.25 100.7 52.7521484375 141.105078125 60 165.35 67.2427734375 189.636328125 72.95 194.45 78.655859375 199.259375 81.7 201.1 82.8 201.85 89.35 215.7 96.4 230.8 97.75 232.8 110.7453125 214.073046875 111.1 211.1
L 129.05 237.05
Q 133.1 230.9 136.45 209.8 139.6 190.15 138.55 184.65 141.855078125 174.7533203125 143.1 150.75 144.391015625 126.7888671875 139.4 112 134.4099609375 97.2205078125 127.3 82.65 123 73.75234375 123.15 74 130.5869140625 70.561328125 128.65 65.85 127.75 63.55 122.55 47.05 117.35 30.6 116.2 26.35 114.01875 18.0640625 102.45 11.4
M 85.6 16.55
L 95.05 19.9
Q 90.65 28.2 95.1 36.35 97 39.8 103.75 42.25 109.2 44.25 110.6 44 111.3 45 114.3 56.65 117.25 68 118.1 68.65
L 114.55 71.05
Q 107.3 55.05 96.4 41.25 87.15 29.45 75.3 20.1
L 85.6 16.55
M 105.25 27.4
Q 107.85 30.3 107.85 34.35
L 109.6 39.25
Q 98.95 39.4 98.9 28.6 98.9 26.55 99 24.55 102.65 24.55 105.25 27.4
M 94.6 44.15
Q 104.55 58.6 110.75 75 115.4 87.35 119.6 99.45 126.55 119.2 127.65 125.2 130.75 141.4 130.55 158.05 130.4 171.1 126.25 183.35 122.3 189.05 110 193.6 99.65 197.4 97.8 196.9 80.7 190.3 72.55 174.1 65.3 159.7 63 143.65 60.5 125.65 53.85 75.1 52.9 68 55.15 52.25 57.25 37.35 58.9 34.75 62.6 29.1 68.15 25.3 84.85 29.9 94.6 44.15
M 104 204.95
L 97.1 215.8 93.15 204.8 104 204.95
M 124.65 217.35
L 117.1 201.3 127.7 194.2 124.65 217.35 Z"/>

<path fill="#B78DCB" stroke="none" d="
M 117.1 201.3
L 124.65 217.35 127.7 194.2 117.1 201.3
M 97.1 215.8
L 104 204.95 93.15 204.8 97.1 215.8
M 95.05 19.9
L 85.6 16.55 75.3 20.1
Q 87.15 29.45 96.4 41.25 107.3 55.05 114.55 71.05
L 118.1 68.65
Q 117.25 68 114.3 56.65 111.3 45 110.6 44 109.2 44.25 103.75 42.25 97 39.8 95.1 36.35 90.65 28.2 95.05 19.9 Z"/>

<path fill="#5151D2" stroke="none" d="
M 68.15 25.3
Q 62.6 29.1 58.9 34.75 57.25 37.35 55.15 52.25 52.9 68 53.85 75.1 60.5 125.65 63 143.65 65.3 159.7 72.55 174.1 80.7 190.3 97.8 196.9 99.65 197.4 110 193.6 122.3 189.05 126.25 183.35 119.1 185.3 106.1 174.6 101.05 170.45 97.15 165.95 93.35 161.55 92.8 159.4 90.95 152.15 79.8 90.5 69.95 36.1 68.15 25.3 Z"/>

<path fill="#9999FF" stroke="none" d="
M 110.75 75
Q 104.55 58.6 94.6 44.15 84.85 29.9 68.15 25.3 69.95 36.1 79.8 90.5 90.95 152.15 92.8 159.4 93.35 161.55 97.15 165.95 101.05 170.45 106.1 174.6 119.1 185.3 126.25 183.35 130.4 171.1 130.55 158.05 130.75 141.4 127.65 125.2 126.55 119.2 119.6 99.45 115.4 87.35 110.75 75 Z"/>

<path fill="#CC33FF" stroke="none" d="
M 107.85 34.35
Q 107.85 30.3 105.25 27.4 102.65 24.55 99 24.55 98.9 26.55 98.9 28.6 98.95 39.4 109.6 39.25
L 107.85 34.35 Z"/>
</g>

<g id="Gargantuan_body_0_Layer0_0_FILL">
<path fill="#000000" stroke="none" d="
M 190.55 20.35
Q 175.8541015625 40.1974609375 173.35 45.85 170.8984375 51.50078125 161.25 70.85 151.55 90.25 148.85 97.95 146.75 94.6 141.6 87.6 136.15 80.15 135.2 79.65 132.55 82.75 125.25 93.5 117.4 105.1 115.15 109.8
L 108.25 111.6
Q 102.25 103.85 62.1 44 20.5 -18.05 18.15 -23.8 11.1701171875 0.2873046875 10.85 41.6 10.584765625 82.909375 14.8 92.95 19.0048828125 103.0466796875 23.15 117.95 2.4 97.5 -1.75 96.55 -11.15 119.15 -5.4 143.2 -4.65 146.35 5.2 166.85 15.45 188.3 18.2 191.25 17.95 198.1 18.75 204.9 18.95 206.45 54.95 282.5 91.4 359.55 94.75 364.45
L 100.7 358.75 104.7 377.4 118.05 366.2
Q 118 367.95 120.7 378.25 123.4 388.6 124 388.9
L 133.6 379.8
Q 139.8 388.25 140.55 388.45 140.85 388.4 143.8 386.8 146.9 385.15 147.7 384.5 148.25 385.8 152.7 393.2 157.6 401.45 158.85 402.35 159.65 402.9 164.05 397.9
L 168.3 392.8
Q 169.4 396.35 173.2 402.25 176.85 407.9 177.6 407.9 178.9 407.65 186.55 400.2 194.45 392.5 194.75 390.5 199.9 396.7 200.6 396.2 207.25 391.4 229.1 319.35 237.4 291.95 243.9 267.85 250.3 244 250.45 240.1 255.3 205.35 246.15 171.4 245.55 169 243.4 162.8 241.3 156.65 240.55 154.95 239.3 152.1 232.45 142.85 225.2 133.05 221.6 129.9 221 125 221.05 60.45 221.15 -5.15 222 -14.1 205.2943359375 0.5033203125 190.55 20.35
M 205.1 21.3
L 210.35 15.8
Q 208.75 24.4 205.95 50.65 203.15 76.85 202.9 85.7
L 202.15 118
Q 200.8 117.5 181.25 112.3 161.6 107.1 160.6 107 173.1 76.25 179.65 64.1 191.45 42.15 205.1 21.3
M 219.75 138.7
Q 231.95 150.15 237.75 165.75 243.5 181.45 244.8 198.15 246.1 214.75 244.95 231.25 243.8 248.15 239.85 264.35 237.1 275.45 200.45 372
L 199.1 378.55 195.55 373.85 179.2 391.95 166.9 378.9 161.5 388.3 150.5 379.5
Q 149.75 379.2 147.25 378.9 144.1 378.5 142.8 378.9
L 131.9 365.3 127.2 374.2 115.75 353.75 107.75 361.75 105.05 350.2
Q 105.05 349.45 102.75 348 100.45 346.55 99.25 346.55 99.1 346.55 78.4 305.6 56.75 262.85 53.25 257.1 49 250.15 41.4 226.05 34.25 203.6 32.95 195 43.3 163.25 45.5 158.65 56.9 146.45 70.45 136.75 77 132.05 99.55 123.75 121.9 115.5 129.8 114.8 137.65 114 161.05 116.45 183.5 118.75 191 120.75 207.2 126.95 219.75 138.7
M 133.3 96.55
L 134.45 94.7 138.2 106.5 128.25 107.45 133.3 96.55
M 24.25 27.05
Q 24.8 17.35 25.4 7.7
L 54.5 64.35
Q 63.55 79.55 74 93.65 82.65 105.25 91.35 116.85
L 75.5 125.4 49.6 144.25 29.35 87.7
Q 27.5 79.7 25.65 56.55 23.85 34.1 24.25 27.05
M 6.7 139.15
L 4.25 116.45 22 134.9 39.75 153.35 35.6 159.7
Q 32.4 165.15 28.55 179.35
L 27.9 183.6 24.25 177.35 6.7 139.15
M 181.7 395.2
L 181.5 394.65 181.9 394.65 181.7 395.2 Z"/>

<path fill="#B78DCB" stroke="none" d="
M 28.55 179.35
L 24.25 177.35 27.9 183.6 28.55 179.35
M 4.25 116.45
L 6.7 139.15 35.6 159.7 39.75 153.35 22 134.9 29.45 150.7
Q 26.15 147.2 17.75 136.25 7.3 122.7 4.25 116.45
M 34.2 39.1
Q 28.95 23.75 25.4 7.7 24.8 17.35 24.25 27.05 23.85 34.1 25.65 56.55 27.5 79.7 29.35 87.7 34.75 93.1 51.35 106.8 69.05 121.45 75.5 125.4
L 91.35 116.85
Q 82.65 105.25 74 93.65 63.55 79.55 54.5 64.35
L 74.7 107.6
Q 69.75 103.45 65.75 98.25 55.15 84.6 47 69.05 39.5 54.65 34.2 39.1
M 134.45 94.7
L 133.3 96.55 128.25 107.45 138.2 106.5 134.45 94.7
M 205.1 21.3
Q 191.45 42.15 179.65 64.1 173.1 76.25 160.6 107 161.6 107.1 181.25 112.3 200.8 117.5 202.15 118
L 202.9 85.7 199.8 87.8 205.1 21.3 Z"/>

<path fill="#6C5477" stroke="none" d="
M 28.55 179.35
Q 32.4 165.15 35.6 159.7
L 6.7 139.15 24.25 177.35 28.55 179.35
M 49.6 144.25
L 75.5 125.4
Q 69.05 121.45 51.35 106.8 34.75 93.1 29.35 87.7
L 49.6 144.25 Z"/>

<path fill="#FFFFFF" stroke="none" d="
M 22 134.9
L 4.25 116.45
Q 7.3 122.7 17.75 136.25 26.15 147.2 29.45 150.7
L 22 134.9
M 25.4 7.7
Q 28.95 23.75 34.2 39.1 39.5 54.65 47 69.05 55.15 84.6 65.75 98.25 69.75 103.45 74.7 107.6
L 54.5 64.35 25.4 7.7
M 210.35 15.8
L 205.1 21.3 199.8 87.8 202.9 85.7
Q 203.15 76.85 205.95 50.65 208.75 24.4 210.35 15.8 Z"/>

<path fill="#CC33FF" stroke="none" d="
M 108.65 347.45
Q 105.25 349.65 105.05 350.2
L 107.75 361.75 115.75 353.75 127.2 374.2 131.9 365.3 142.8 378.9
Q 144.1 378.5 147.25 378.9 149.75 379.2 150.5 379.5
L 161.5 388.3 166.9 378.9 179.2 391.95 195.55 373.85 199.1 378.55 200.45 372
Q 194.9 370.7 186.2 375.7 179.35 379.65 178.25 381.4
L 163.1 372.45
Q 161.9 372.95 159.25 376.4 156.5 380.05 156.3 381.85
L 112.85 345.45
Q 112.1 345.25 108.65 347.45
M 215.45 139.55
Q 215.7 139 203.2 129.95 190.8 120.9 191 120.75 183.5 118.75 161.05 116.45 137.65 114 129.8 114.8 121.9 115.5 99.55 123.75 77 132.05 70.45 136.75 56.9 146.45 45.5 158.65 44.7 162 47.2 168 49.15 172.65 50.05 173.55 53.25 173.85 62.9 168.75 70.6 164.7 75 161.5 71.6 170.15 77.7 186.65 80 193 82.75 197.5 85.45 201.95 86.8 201.75 87.45 201.65 90.15 199.25 92.35 197.35 94.05 195.65 96.6 200.1 101.65 201.1 102.8 201.25 106.4 197.55
L 109.8 193.8 115.25 198.1
Q 121.3 202.3 124.4 201.7 130 200.8 139.55 191.9 143.15 202.25 153.9 202.6 160.75 202 194.65 189.35 228.4 176.7 228.5 174.75 225 169.5 210.25 161.25 198.3 154.5 192.4 152.5 208.7 154.2 215.45 139.55 Z"/>

<path fill="#4B286D" stroke="none" d="
M 203.2 129.95
Q 215.7 139 215.45 139.55 208.7 154.2 192.4 152.5 198.3 154.5 210.25 161.25 225 169.5 228.5 174.75 228.4 176.7 194.65 189.35 160.75 202 153.9 202.6 143.15 202.25 139.55 191.9 130 200.8 124.4 201.7 121.3 202.3 115.25 198.1
L 109.8 193.8 106.4 197.55
Q 102.8 201.25 101.65 201.1 96.6 200.1 94.05 195.65 92.35 197.35 90.15 199.25 87.45 201.65 86.8 201.75 85.45 201.95 82.75 197.5 80 193 77.7 186.65 71.6 170.15 75 161.5 70.6 164.7 62.9 168.75 53.25 173.85 50.05 173.55 49.15 172.65 47.2 168 44.7 162 45.5 158.65 43.3 163.25 32.95 195 34.25 203.6 41.4 226.05 49 250.15 53.25 257.1 56.75 262.85 78.4 305.6 99.1 346.55 99.25 346.55 100.45 346.55 102.75 348 105.05 349.45 105.05 350.2 105.25 349.65 108.65 347.45 112.1 345.25 112.85 345.45
L 156.3 381.85
Q 156.5 380.05 159.25 376.4 161.9 372.95 163.1 372.45
L 178.25 381.4
Q 179.35 379.65 186.2 375.7 194.9 370.7 200.45 372 237.1 275.45 239.85 264.35 243.8 248.15 244.95 231.25 246.1 214.75 244.8 198.15 243.5 181.45 237.75 165.75 231.95 150.15 219.75 138.7 207.2 126.95 191 120.75 190.8 120.9 203.2 129.95 Z"/>
</g>

<g id="Gargantuan_casket2_0_Layer0_0_FILL">
<path fill="url(#Gradient_1)" stroke="none" d="
M 111 89.65
L 112.1 97.7 136.45 99.1 136.95 83.9 121.55 60.9 100.1 67.6 102.5 71.95 108 81.8 110.2 87.1 120.65 86.6 111 89.65
M 104.45 269.2
L 110.9 281.75
Q 104.8 281.3 80.9 285.55 57.7 289.7 55.15 291.25
L 60.75 296.45
Q 67.05 302.05 70.8 304.1
L 123.9 286.3 124.7 273.9
Q 110.1 271.85 104.45 269.2
M 110.4 215.4
L 107.85 245.85 126.75 252.7 129.45 221.3
Q 128.6 221.25 110.4 215.4
M 110.95 121.6
L 110.75 124.3 111.2 192.5 131.3 196.8 135.65 119.6 110.95 121.6
M 87.4 43.45
L 110.3 43.2 90.75 15 73.5 17.85 87.4 43.45 Z"/>

<path fill="#271B1B" stroke="none" d="
M 111 89.65
Q 110.75 89.7 111.25 93.65 111.7 97.65 112.1 97.7
L 111 89.65 Z"/>

<path fill="url(#Gradient_2)" stroke="none" d="
M 106.7 83.1
L 108 81.8 102.5 71.95 106.7 83.1 Z"/>

<path fill="url(#Gradient_3)" stroke="none" d="
M 86.45 64.9
Q 85.3 64.15 82.6 60.7 79.5 56.85 79.05 54.9 77.2 47.1 82.9 41.6
L 70.6 18.15
Q 65.45 18.2 57.1 18.05 47.85 17.9 46.35 17.65 43.8 17.1 43.2 14.6 39.7 15 33 16.5 25.85 18.05 24.5 18.8 23.45 19.45 18.45 30.4 13.55 41.15 12.85 44.1 12.25 46.65 9.95 61.7 7.75 76.2 7.5 78.65 7.25859375 81.962890625 7.05 85.3 6.55 93.15 6.6 101.05 6.65 109.6 7.3 118.1 8.05 128.45 9.35 138.75 10.75 149.75 12.5 160.65 12.929296875 163.3896484375 13.4 166.1 16.1939453125 182.5111328125 20.35 198.75 32 244.35 52.1 286.95 62.85 284.9 73.7 282.75 95.4 278.45 99.65 276.65 99.79140625 276.680859375 99.9 276.65 100.2 276.55 100.55 272.55 100.95 268.35 100.7 266.7 100.05 263 99.65 259.25 98.7 249.8 105.2 243.05 105.45 238.05 104.9 224.2 104.3 210.45 104.2 208.75 103.9 200.55 108.35 193.5
L 107.9 121.65 96.95 120.55
Q 91.6 112.5 95.65 103.85 99.15 96.4 107.4 96.85 107.4 95.2 108.15 91.95 109.1 88 110.2 87.1
L 108 81.8 106.7 83.1
Q 104.75 80.8 99.4 73.4 94.85 67.2 94.45 67.05 93.25 67 90.2 66.15 87.25 65.35 86.45 64.9 Z"/>

<path fill="#000000" stroke="none" d="
M 103.9 -5.75
L 85.5 -3.75 45.15 0.9 41.7 10.05
Q 37.9240234375 10.6853515625 30.4 12.5 21.85 14.6 20.7 15.3 20.05 15.75 15.9 23.35 11.65 31.05 11.05 33.15 9.75 37.55 8.5 51.45 7.1 67.15 7.5 78.65 7.75 76.2 9.95 61.7 12.25 46.65 12.85 44.1 13.55 41.15 18.45 30.4 23.45 19.45 24.5 18.8 25.85 18.05 33 16.5 39.7 15 43.2 14.6 43.8 17.1 46.35 17.65 47.85 17.9 57.1 18.05 65.45 18.2 70.6 18.15
L 82.9 41.6
Q 77.2 47.1 79.05 54.9 79.5 56.85 82.6 60.7 85.3 64.15 86.45 64.9 87.25 65.35 90.2 66.15 93.25 67 94.45 67.05 94.85 67.2 99.4 73.4 104.75 80.8 106.7 83.1
L 102.5 71.95 100.1 67.6 121.55 60.9 136.95 83.9 136.45 99.1 112.1 97.7
Q 111.7 97.65 111.25 93.65 110.75 89.7 111 89.65
L 120.65 86.6 110.2 87.1
Q 109.1 88 108.15 91.95 107.4 95.2 107.4 96.85 99.15 96.4 95.65 103.85 91.6 112.5 96.95 120.55
L 107.9 121.65 108.35 193.5
Q 103.9 200.55 104.2 208.75 104.3 210.45 104.9 224.2 105.45 238.05 105.2 243.05 98.7 249.8 99.65 259.25 100.05 263 100.7 266.7 100.95 268.35 100.55 272.55 100.2 276.55 99.9 276.65 99.79140625 276.680859375 99.65 276.65 95.4 278.45 73.7 282.75 62.85 284.9 52.1 286.95 32 244.35 20.35 198.75 16.1939453125 182.5111328125 13.4 166.1 14.8 181.7 28.9 230.4 42.4 276.95 47.2 285.9 54.95 300.5 69.6 308.05 74.4 310.55 79.9 311.75 94.6 314.7 90 315.95 105.95 312.7 126.35 306.7 149.9 299.75 149.65 297.1 149.1611328125 291.3470703125 151.3 278.75 155.4529296875 278.2779296875 161.1 276.85 169.95 274.6 170.05 273.1 170.1 272.85 151.75 257.95
L 155.4 228.25
Q 182.2326171875 218.06484375 193.6 216.5 179.75 207.1 172.25 201.95 158.45 192.55 157.8 191.3 157.9927734375 189.55546875 158.7 153 159.295703125 122.2138671875 159.5 122.05 195.7 108.45 191.9 108.1 186.212109375 107.5556640625 159.45 99.25 159.3341796875 88.8962890625 158.15 81.35 157.65 78.25 150.9 68.4 144.1 59 143.8 58.5 149.55 56.6 158.95 49.15 163.65 45.45 167.3 42 161.45 40.15 146.9 38.8 133.3 37.8 132.8 37.75 117.3333984375 12.6798828125 103.9 -5.75
M 110.3 43.2
L 87.4 43.45 73.5 17.85 90.75 15 110.3 43.2
M 103.85 27.4
Q 93.75 13.95 89.9 11.6 89.75 11.5 70.45 13.2 50.35 14.95 48.05 15
L 47 10.9 97.9 5 122.7 43.55 115.15 43.3
Q 110.8 36.65 103.85 27.4
M 86.25 57.9
Q 83.75 56.25 82.8 53.4
L 83.1 47.65 139.6 49.5 130.55 52.9
Q 119.65 56.85 108.8 60.85 96.75 65.25 86.25 57.9
M 131.95 57.55
L 148.9 85.1 147.75 101.15 141.35 99.95 141.7 84.7 125.75 59.55 131.95 57.55
M 140.7 118.95
L 147.65 118.15 144.1 199.7 136.45 197.95 140.7 118.95
M 158.75 111.55
Q 146.85 112.95 131 114.5 108.25 116.8 103.7 116.55 101.95 116.4 100.25 116.25
L 98.4 107.95
Q 99.75 103.7 104.2 103.15 109.05 102.65 135.65 105.4 159.65 107.85 166.65 109.05
L 158.75 111.55
M 110.75 124.3
L 110.95 121.6 135.65 119.6 131.3 196.8 111.2 192.5 110.75 124.3
M 134.65 221.5
L 141.7 221.2 138.35 257.35 131.7 254.6 134.65 221.5
M 107.85 245.85
L 110.4 215.4
Q 128.6 221.25 129.45 221.3
L 126.75 252.7 107.85 245.85
M 108.85 206.15
L 118.6 198.85
Q 178.202734375 213.41875 178.05 213.6 177.897265625 213.78125 167.7 214 148 215.5 132.85 216.9 129.35 216.8 120.3 212.75 111.1 208.7 108.85 206.15
M 110.9 281.75
L 104.45 269.2
Q 110.1 271.85 124.7 273.9
L 123.9 286.3 70.8 304.1
Q 67.05 302.05 60.75 296.45
L 55.15 291.25
Q 57.7 289.7 80.9 285.55 104.8 281.3 110.9 281.75
M 104.95 263.5
L 104.1 255.4 105.25 249.35 156.2 270.55 144.45 270.05
Q 133.55 269.3 122.65 268.6 113.1 268.55 104.95 263.5
M 135.75 274.75
L 134.05 292.65
Q 125.75 298.05 105.1 305.1
L 86.1 311.05
Q 83.35 309.4 80.5 307.65 74.9 304.2 74.75 304 84.95 299.9 108.1 294 119.65 291.05 129.15 288.9
L 129.7 274.3 135.75 274.75 Z"/>

<path fill="#663333" stroke="none" d="
M 134.05 292.65
L 135.75 274.75 129.7 274.3 129.15 288.9
Q 119.65 291.05 108.1 294 84.95 299.9 74.75 304 74.9 304.2 80.5 307.65 83.35 309.4 86.1 311.05
L 105.1 305.1
Q 125.75 298.05 134.05 292.65
M 141.7 221.2
L 134.65 221.5 131.7 254.6 138.35 257.35 141.7 221.2
M 147.65 118.15
L 140.7 118.95 136.45 197.95 144.1 199.7 147.65 118.15
M 148.9 85.1
L 131.95 57.55 125.75 59.55 141.7 84.7 141.35 99.95 147.75 101.15 148.9 85.1
M 89.9 11.6
Q 93.75 13.95 103.85 27.4 110.8 36.65 115.15 43.3
L 122.7 43.55 97.9 5 47 10.9 48.05 15
Q 50.35 14.95 70.45 13.2 89.75 11.5 89.9 11.6 Z"/>

<path fill="#FFFFFF" stroke="none" d="
M 105.25 249.35
L 104.1 255.4 144.45 270.05 156.2 270.55 105.25 249.35
M 167.7 214
Q 177.897265625 213.78125 178.05 213.6 178.202734375 213.41875 118.6 198.85
L 167.7 214
M 104.2 103.15
Q 99.75 103.7 98.4 107.95
L 158.75 111.55 166.65 109.05
Q 159.65 107.85 135.65 105.4 109.05 102.65 104.2 103.15
M 82.8 53.4
Q 88.8 53.6 108.3 53.4 128.15 53.25 130.55 52.9
L 139.6 49.5 83.1 47.65 82.8 53.4 Z"/>

<path fill="#B78DCB" stroke="none" d="
M 104.1 255.4
L 104.95 263.5
Q 113.1 268.55 122.65 268.6 133.55 269.3 144.45 270.05
L 104.1 255.4
M 118.6 198.85
L 108.85 206.15
Q 111.1 208.7 120.3 212.75 129.35 216.8 132.85 216.9 148 215.5 167.7 214
L 118.6 198.85
M 131 114.5
Q 146.85 112.95 158.75 111.55
L 98.4 107.95 100.25 116.25
Q 101.95 116.4 103.7 116.55 108.25 116.8 131 114.5
M 82.8 53.4
Q 83.75 56.25 86.25 57.9 96.75 65.25 108.8 60.85 119.65 56.85 130.55 52.9 128.15 53.25 108.3 53.4 88.8 53.6 82.8 53.4 Z"/>
</g>

<g id="Gargantuan_head_1_Layer2_0_FILL">
<path fill="#000000" stroke="none" d="
M 97.6 97.7
Q 94.8 79.55 92.4 70.1 90.55 62.45 83.75 43.75 83.3 42.55 74.85 24.85 67.35 9.15 67.3 6.75 62.95 6.05 39.85 6.45 16.65 6.8 15.3 7.6 6.2 13 4.5 23.55 1.3 43.65 1.05 64.2 0.75 88 4.75 111.4 7.75 129.15 13.35 146.25 43.6546875 163.60078125 71.55 152.9 99.4376953125 142.2466796875 100.35 125.8 100.8 118.45 97.6 97.7
M 73.75 29.1
L 74.15 29.8
Q 81.95 52.1 85.7 75.25 88.95 95.35 91.55 115.15 91.6 118.6 88.85 128.75 87.45 133.8 86.05 138.15 80.365234375 146.3435546875 68.1 148.3 47.0013671875 151.7482421875 37.2 149.6 27.44921875 147.4498046875 17.95 142.05 3.1 112.45 5.7 79.4 8.1 48.35 11.65 17.4 20.1 11.05 41 8.95 47.9 8.2 55 8.1 60.65 8 61.65 8.25 70.0658203125 17.1486328125 73.75 29.1 Z"/>

<path fill="#9999FF" stroke="none" d="
M 73.75 29.1
Q 63.9583984375 13.1419921875 45 12.75 32.5 11.9 26.7 22.9 21.7 32.35 20.25 69.35 19.5 88.45 19.2 112.4
L 19.55 121.75
Q 18.95 129.95 31.85 137.45 38.3 141.15 44.9 143.25 72.0546875 147.7349609375 86.05 138.15 87.45 133.8 88.85 128.75 91.6 118.6 91.55 115.15 88.95 95.35 85.7 75.25 81.95 52.1 74.15 29.8
L 73.75 29.1 Z"/>

<path fill="#5151D2" stroke="none" d="
M 45 12.75
Q 63.9583984375 13.1419921875 73.75 29.1 70.0658203125 17.1486328125 61.65 8.25 60.65 8 55 8.1 47.9 8.2 41 8.95 20.1 11.05 11.65 17.4 8.1 48.35 5.7 79.4 3.1 112.45 17.95 142.05 27.44921875 147.4498046875 37.2 149.6 47.0013671875 151.7482421875 68.1 148.3 80.365234375 146.3435546875 86.05 138.15 72.0546875 147.7349609375 44.9 143.25 38.3 141.15 31.85 137.45 18.95 129.95 19.55 121.75
L 19.2 112.4
Q 19.5 88.45 20.25 69.35 21.7 32.35 26.7 22.9 32.5 11.9 45 12.75 Z"/>
</g>

<g id="Gargantuan_head_1_Layer1_0_FILL">
<path fill="#CC33FF" stroke="none" d="
M 83 59.3
Q 82.227734375 66.6404296875 81.3 70.55
L 66.8 59.2 56.5 73.45 40.15 52.45 22.9 75.9 13.7 64.15 10.25 71.7 22.8 89.2 32 77.45 49.25 100.9 65.6 79.9 75.9 94.15 80.05 78.7
Q 85.3728515625 83.230078125 88.2 86.7
L 83 59.3 Z"/>

<path fill="#000000" stroke="none" d="
M 83 59.3
Q 83.177734375 57.8896484375 83.3 56.35 83.5693359375 53.8232421875 83.8 50.95
L 81 64.75 65.7 49.9 57.25 65.5 40.05 46.4 23.3 68.9 12.95 55.6 9.9 72.45 22.05 97.75 32.4 84.45 49.15 106.95 66.35 87.85 74.8 103.45 84.6 89.55 91.5 93.55
Q 91.541015625 92.8853515625 91.35 92.1
L 91.45 92.1 83 59.3 88.2 86.7
Q 85.3728515625 83.230078125 80.05 78.7
L 75.9 94.15 65.6 79.9 49.25 100.9 32 77.45 22.8 89.2 10.25 71.7 13.7 64.15 22.9 75.9 40.15 52.45 56.5 73.45 66.8 59.2 81.3 70.55
Q 82.227734375 66.6404296875 83 59.3 Z"/>
</g>

<g id="Gargantuan_head_1_Layer0_0_FILL">
<path fill="#000000" stroke="none" d="
M 57.45 40.3
Q 57.65 40.45 57.9 40.6 60.05 42.2 63.2 42.2 66.15 42.2 68.25 40.6 70.45 39.15 70.45 36.9 70.45 35.95 68.95 33.85 67.3 31.7 66.95 31.1
L 57.45 40.3
M 68.15 37.65
Q 68.15 39.1 66.7 40.05 65.35 41.1 63.4 41.1 61.4 41.1 60 40.05
L 66.4 34.9
Q 66.7 35.1 67.3 35.9 68.15 37 68.15 37.65
M 49.4 42.5
Q 51.4 41 52.35 39.25
L 38.6 26.45
Q 36.45 27.8 33.25 31.05 29.45 34.8 29.45 36.35 29.45 39.95 32.95 42.5 36.45 45.05 41.25 45.05 46.05 45.05 49.4 42.5
M 51.85 39.9
Q 51.45 39.9 47.75 41.4 44.1 42.85 42.35 42.75 37.7 42.5 35.25 40.7 32.8 38.9 32.8 36.35 32.8 35.2 35.45 32.9 38 30.65 39.25 30.45
L 51.85 39.9 Z"/>

<path fill="#CC33FF" stroke="none" d="
M 66.7 40.05
Q 68.15 39.1 68.15 37.65 68.15 37 67.3 35.9 66.7 35.1 66.4 34.9
L 60 40.05
Q 61.4 41.1 63.4 41.1 65.35 41.1 66.7 40.05
M 47.75 41.4
Q 51.45 39.9 51.85 39.9
L 39.25 30.45
Q 38 30.65 35.45 32.9 32.8 35.2 32.8 36.35 32.8 38.9 35.25 40.7 37.7 42.5 42.35 42.75 44.1 42.85 47.75 41.4 Z"/>
</g>

<g id="Gargantuan_casket1_0_Layer0_0_FILL">
<path fill="#000000" stroke="none" d="
M 75.65 120
Q 75.15 123.5 75.95 125.05 78.3 129.7 83.35 131.4 86.45 132.4 89.45 131.35 97.6 128.65 105.9 126.25 116.45 125.05 125.95 120.45 128.95 118.95 132 117.45
L 132 116.1
Q 118.45 111.05 103.95 110.7 89.7 110.4 76.85 116.3 76.1 116.65 75.65 120
M 97.85 113.15
Q 109.45 115.05 121.05 117
L 124.05 117.9
Q 119.3 120.15 103.2 122.7 87.05 125.3 81.4 124.7 80.45 124.55 77.2 120.1 85.6 111 97.85 113.15
M 107.55 66.65
Q 108.1 67.25 110.15 69.5 112.5 72.05 112.9 72.25 106.1 72.7 99.25 73.75 87.65 75.5 76.95 80.35 71.9 82.6 71.6 88 71.45 90.55 74.8 95.7
L 62.1 96 62.1 98.05 97.25 101.25 88.45 102.85 65.7 109.3 63.65 102.45 62.1 98.05
Q 62.15 99.7 62.75 106.85 63.4 114.2 63.8 117.4 63.95 118.8 91.25 205.05 118.55 291.35 118.95 291.7 120.35 292.85 122.85 296.85
L 124.65 296.65 118.3 275.35
Q 120.45 274.75 126.75 271.05 132.25 267.85 133.45 266.9 133.45 266.2 123.65 263 113.6 259.85 112.95 259.65
L 94.1 203.05
Q 96.4 202.75 111.3 196.8 126.6 190.7 128.85 188.9 125.85 188.05 122.05 187.15 114.45 185.45 110.55 185.4 106.45 185.35 98.05 186.95 90.6 188.35 89.75 188.8
L 82.45 164.65
Q 85.5 165.05 95.55 164.65 105.6 164.2 109.05 163.5 115.65 162.15 127.05 155.55 132.75 152.25 137.1 149.2 129.65 147.35 122.2 146.3 106.75 144.3 91.65 146.95 84.8 148.1 78.1 150.2
L 76.45 144.75
Q 78.5 144.65 84.65 140.25 91.15 135.55 90.7 133.35
L 73.25 134.2 66.85 113.1
Q 69.8 112.9 88.65 107.15 107.95 101.25 111.8 99.15
L 93 96.2
Q 96.3 95.35 119.2 86.15 141.5 77.2 144.3 75.75
L 119.9 72.1
Q 121.8 71.65 129.55 65.55 137.5 59.25 138.25 57.3 136.2 56.35 122.6 57.4 108.35 58.5 105.95 60.55 105.473828125 60.983203125 106 64.2 106.85 62.9 110.25 61.45 112.8 60.35 114.1 60.1
L 131.3 59.35 126.35 62.8
Q 123.75 64.5 115.15 65.75
L 107.55 66.65
M 114.3 84.55
Q 99.5 89.2 93.85 90.4 86 91.85 78.1 91.9 77.85 91.6 76.95 88.85 76.05 86.15 76.05 85.95 83.2 79 93.15 76.85 99.8 75.6 131.35 77.55
L 134.4 77.5
Q 129.85 79.65 114.3 84.55
M 73.8 136.05
L 74.5 136 85.05 137 75.8 142.7 73.8 136.05
M 81.35 155.5
Q 81.2 150.75 86 150 89.05 149.85 121.7 150.65 122.15 150.75 109.75 155.1 97.25 159.5 95.75 159.65 87.85 159.9 81.35 155.5
M 91.6 194.8
L 94.8 189.1
Q 102.35 188.55 117.95 190.25
L 112.9 192.65
Q 109.1 195.85 100.2 195.7 93.25 195.6 91.6 194.8
M 114.55 264.25
L 117.85 265.65 126.9 267.15 122.45 269.3 117 271.3 114.55 264.25
M 92.55 7.2
L 98.5 0
Q 92.01484375 -2.5693359375 87.7 -3.3 85.796875 -3.6 56.6 2.25 27.409375 8.1 30.3 8 33.190625 7.95 17.7 56.3 2.253125 104.7 2.3 107.85 2.35 110.2 40.95 201.5 79.95 293.85 83.1 296.3 101.35 310.85 124.65 308.6
L 123.65 303.3
Q 123.5 303.6 119.35 303.1 115.25 302.6 114.85 302.3 107.75 285.75 76.05 187.2 60.2 137.9 45.8 91.95 47.05 89.8 70.4 47.25 92.45 7.15 92.55 7.2
M 49.95 13.3
Q 50.4 13.35 65.4 10.7 80.6 8 83.75 7.3 82.95 9 61.8 51.4 41.05 92.95 41.05 93.1 41.05 93.55 62.55 162.55 73.25 197.05 84 231.45 85.7 236.25 97.65 267 109.6 297.55 111.45 301.95
L 110.65 304.55 86.25 297.8
Q 82.85 291.35 6.4 106.05 18 81.5 28.55 59.15 49.35 15 49.95 13.3
M 98.5 15.15
L 95.25 12
Q 94.7 13.55 66.95 76.15 63.05 85.05 62.15 94.6
L 77.6 64.5
Q 79.95 64.35 87.05 62.4 96.6 59.75 100.35 56.75 102.8 54.75 106.6 49.55 108.5 46.9 109.9 44.7 93.5 43.65 86.65 44.3
L 90.35 36.1
Q 90.65 36.05 97.9 33.6 105.6 30.7 108.7 28.25 111.25 26.25 115.25 19.65
L 96.75 19.45
Q 96.95 18.6 97.75 16.8
L 98.5 15.15
M 95.65 23.15
L 97.75 23.3 105.85 23.55 101.95 26.2 92.95 31.45 95.65 23.15
M 85.35 48.6
L 86.15 46.95 101.85 47.6 97.15 51.4
Q 94.95 53.8 87.35 56.9
L 80.25 59.55 85.35 48.6 Z"/>

<path fill="#B78DCB" stroke="none" d="
M 121.05 117
Q 115.75 118.65 99.35 119.85 82.7 121.05 77.2 120.1 80.45 124.55 81.4 124.7 87.05 125.3 103.2 122.7 119.3 120.15 124.05 117.9
L 121.05 117
M 63.65 102.45
L 65.7 109.3 88.45 102.85 63.65 102.45
M 106 64.2
Q 105.974609375 64.2609375 105.95 64.3
L 107.55 66.65 115.15 65.75
Q 123.75 64.5 126.35 62.8 124 63.45 119.05 63.65 112.45 63.95 110.05 62.45
L 114.1 60.1
Q 112.8 60.35 110.25 61.45 106.85 62.9 106 64.2
M 117.35 268
L 117.85 265.65 114.55 264.25 117 271.3 122.45 269.3 117.35 268
M 94.8 189.1
L 91.6 194.8
Q 93.25 195.6 100.2 195.7 109.1 195.85 112.9 192.65
L 94.7 190.65 94.8 189.1
M 81.35 155.5
Q 87.85 159.9 95.75 159.65 97.25 159.5 109.75 155.1 122.15 150.75 121.7 150.65 112.85 152.55 103.95 154.2 92.7 156.3 81.35 155.5
M 74.5 136
L 73.8 136.05 75.8 142.7 85.05 137 74.5 136
M 93.85 90.4
Q 99.5 89.2 114.3 84.55 129.85 79.65 134.4 77.5
L 131.35 77.55
Q 126.7 78.95 122.05 80.2 110.8 83.45 99.2 84.8 87.6 86.2 76.05 85.95 76.05 86.15 76.95 88.85 77.85 91.6 78.1 91.9 86 91.85 93.85 90.4
M 87.35 56.9
Q 94.95 53.8 97.15 51.4 88.25 51.25 85.35 48.6
L 80.25 59.55 87.35 56.9
M 97.75 23.3
L 95.65 23.15 92.95 31.45 101.95 26.2
Q 101.4 26.35 99.5 24.85
L 97.75 23.3 Z"/>

<path fill="#FFFFFF" stroke="none" d="
M 121.05 117
Q 109.45 115.05 97.85 113.15 85.6 111 77.2 120.1 82.7 121.05 99.35 119.85 115.75 118.65 121.05 117
M 62.1 98.05
L 62.1 98.05 63.65 102.45 88.45 102.85 97.25 101.25 62.1 98.05
M 110.05 62.45
Q 112.45 63.95 119.05 63.65 124 63.45 126.35 62.8
L 131.3 59.35 114.1 60.1 110.05 62.45
M 117.85 265.65
L 117.35 268 122.45 269.3 126.9 267.15 117.85 265.65
M 94.8 189.1
L 94.7 190.65 112.9 192.65 117.95 190.25
Q 102.35 188.55 94.8 189.1
M 86 150
Q 81.2 150.75 81.35 155.5 92.7 156.3 103.95 154.2 112.85 152.55 121.7 150.65 89.05 149.85 86 150
M 122.05 80.2
Q 126.7 78.95 131.35 77.55 99.8 75.6 93.15 76.85 83.2 79 76.05 85.95 87.6 86.2 99.2 84.8 110.8 83.45 122.05 80.2
M 86.15 46.95
L 85.35 48.6
Q 88.25 51.25 97.15 51.4
L 101.85 47.6 86.15 46.95
M 101.95 26.2
L 105.85 23.55 97.75 23.3 99.5 24.85
Q 101.4 26.35 101.95 26.2 Z"/>

<path fill="#271B1B" stroke="none" d="
M 20.35 102.25
Q 9.05 105.05 6.4 106.05 82.85 291.35 86.25 297.8
L 110.65 304.55 111.45 301.95
Q 109.6 297.55 97.65 267 85.7 236.25 84 231.45 82.4 228.75 48.05 169.75 14.5 112 13.65 110.7
L 33.85 99.5
Q 32.25 99.35 20.35 102.25 Z"/>

<path fill="#382626" stroke="none" d="
M 65.4 10.7
Q 50.4 13.35 49.95 13.3 49.35 15 28.55 59.15 18 81.5 6.4 106.05 9.05 105.05 20.35 102.25 32.25 99.35 33.85 99.5
L 13.65 110.7
Q 14.5 112 48.05 169.75 82.4 228.75 84 231.45 73.25 197.05 62.55 162.55 41.05 93.55 41.05 93.1 41.05 92.95 61.8 51.4 82.95 9 83.75 7.3 80.6 8 65.4 10.7 Z"/>

<path fill="#663333" stroke="none" d="
M 95.25 12
Q 95.35 11.45 92.55 7.2 92.45 7.15 70.4 47.25 47.05 89.8 45.8 91.95 60.2 137.9 76.05 187.2 107.75 285.75 114.85 302.3 115.25 302.6 119.35 303.1 123.5 303.6 123.65 303.3 124.1 302.7 122.85 296.85 120.35 292.85 118.95 291.7 118.55 291.35 91.25 205.05 63.95 118.8 63.8 117.4 63.4 114.2 62.75 106.85 62.15 99.7 62.1 98.05
L 62.1 98.05 62.1 96 62.15 94.6
Q 63.05 85.05 66.95 76.15 94.7 13.55 95.25 12 Z"/>
</g>

<g id="Gargantuan_arm_0_Layer0_0_FILL">
<path fill="#000000" stroke="none" d="
M 110.4 59.35
Q 108.7 53.9 104.3 50.1
L 103.25 37.4
Q 97.6224609375 12.0359375 76.3 1.1 55.02109375 -9.8318359375 36.1 4.2 17.22578125 18.276171875 16.9 41.55 16.5826171875 64.876953125 10.5 77.8 4.4169921875 90.7759765625 0.8 99.9 -0.8 104.15 -2.35 114.95 -3.85 125.1 -3.5 126.75 -3.05 128.75 1.55 161.7 6.35 195.85 6.8 201.35 7.9060546875 213.8951171875 14.1 238.65 17.85 237.25 31.85 226.95 29.146484375 244.701953125 42.7 267.1 47.55 264.15 67.1 245.45 69.43984375 254.7859375 84.95 270 88.5 267 95.1 254.4 101.5 242.15 101.15 240.05
L 114.2 231.85
Q 122.008984375 237.246875 135.5 240.35 137 234.95 134.8 211.65 132.05 186.4 131.45 180.05 129.8560546875 161.2189453125 129.65 126.3
L 122.85 123.25 121.25 98.15
Q 128.8 95.05 129.15 86.85 129.65 74.15 119.45 66.8
L 112.25 69.85 109.9 67.25
Q 111.65 63.5 110.4 59.35
M 101.95 54.95
L 103.4 56.45
Q 106.6 59.05 106.4 63.3 106.35 63.9 106.3 64.5
L 101.25 63.85 99.15 73 96.95 74.6 89.75 68.95
Q 96.8 66.2 99.85 59.4 100.9 57.15 101.95 54.95
M 105.55 68.65
L 107.7 70.6 113.15 78.9
Q 110.4 78.2 108.35 76.25 104.95 73.05 102.65 68.7
L 105.55 68.65
M 91.25 77.05
Q 94.55 78.6 98.35 78.55
L 101.35 76.35 103 78.25 106.9 92.45 114.8 99.1
Q 115.25 119.25 114.9 119.1 104.95 117.6 98.2 124.95 97.85 123.7 95.3 121.3 92.8 118.95 91.8 118.65 77.9 118.6 64.05 118.55
L 62.5 124.85 56.15 124.8
Q 56.1 124.35 55.3 122.75 54.35 120.8 53.6 120.2 43.7 112.25 30.85 113.55
L 25.75 120.05 22.45 118.9
Q 25 116.25 23.25 113.05 20.5 108 14.85 106.5 19.45 84.15 28.85 63.25
L 37.75 62.65
Q 41.05 67.5 53.9 69.2 56.1 72.75 60.05 73.45 65 74 68.8 71
L 84.75 70.8
Q 86.9 75.15 91.25 77.05
M 120.45 84.75
L 117.65 81.8 117.9 72.05 123.5 80.85
Q 125.55 84.55 123.95 88.4 123.7 88.95 123.35 89.45 123 90 122.5 90.4 120.15 92.3 117.65 94
L 109.2 84.5 114.1 85.7 117.55 90.65 120.45 84.75
M 94.75 29.2
Q 101.15 44.65 91.2 57.75 87 63.25 80.6 63.7 80.25 63.85 75.75 62.65 71.75 61.65 68.75 60.7
L 63.05 69.65 59.3 68.3 58.5 58.75 56.1 58.65 49.8 65 44.75 63.5 38.25 54.45
Q 35.85 60.4 30.05 57 30 56.95 29.95 56.9
L 32.7 48.65
Q 30.3 41.8 32.15 34.85 33.1 31.4 34.1 28 35.05 33.35 40.25 33.6 49.95 32.9 47.9 23.25
L 37.85 20.4
Q 53.8 5.7 74.35 12.2 88.1 16.5 94.75 29.2
M 44.2 24.05
Q 45.35 25.35 45.35 27.15 45.35 28.95 44.2 30.25 43.1 31.55 41.55 31.55 40 31.55 38.85 30.25 37.75 28.95 37.75 27.15 37.75 25.35 38.85 24.05 40 22.75 41.55 22.75 43.1 22.75 44.2 24.05
M 52.1 132.15
Q 50.95 131.45 49.8 130.8
L 65.75 129.85 68.4 132.6
Q 60.15 136.9 52.1 132.15
M 45.5 133.15
L 49.2 137.8
Q 41.95 142.2 34.8 137.55 32.65 136.2 30.55 134.9
L 34.85 131.8 42.65 132.3 44.5 131.35 45.5 133.15
M 50.9 124.6
L 48.15 125.3 45 128.65 29.25 120.45 31.25 118.5 50.45 122.1 50.9 124.6
M 80.3 141.5
Q 74.25 141.2 68.4 139.45
L 73.85 135.55 85.25 135.1 93.35 140.05
Q 87.05 142.25 80.3 141.5
M 62.75 139.15
Q 65.85 145.35 72.7 146.25 83.5 147.85 93.95 145.35
L 95 144.8 97 140 107.4 140.25 108.65 140.05 114.95 135.7 121.55 138.1 120.35 142.35 108.6 140.1 107.5 140.45 106.7 143.85
Q 108.3 145.75 113.8 147.1 117.9 148.1 119.9 148.1
L 120.4 151.5
Q 120.7 174.2 121.15 196.95 121.5 216.3 104.95 226.15 100.95 228.6 96.6 229.6 73.6 235.55 51.95 226.05 31.6 217.15 21.4 197.25 12.75 180.35 10.85 161.35 9.45 147.75 8.1 134.2
L 25.15 133.25
Q 29.25 146.55 43.9 144.5 53.55 142.9 62.75 139.15
M 73.9 129.7
L 66.7 124.05
Q 79.65 121.75 92.5 124.85
L 91.7 127.1 86.3 132.6
Q 84.05 130.2 80.85 129.85 77.35 129.75 73.9 129.7
M 13.05 122.3
L 15.1 120.35 31.45 128.8
Q 30.15 128.8 28.85 128.8 27.55 128.75 26.3 128.75 18.5 127.8 13.05 122.3
M 18.95 115.7
L 16.25 115 10.65 117.35 7.7 115.95 9.2 111.35 19.35 114.1 18.95 115.7
M 12.85 128.75
L 6.35 126.9 6.5 121.5 12.85 128.75
M 91.75 133.25
L 98 129.6 110.6 131.9 109.9 134.5
Q 107.75 135.7 105.3 135.6 98.25 136.15 91.75 133.25
M 116.3 125.45
Q 119.35 126.45 121.4 128.85
L 114.7 129 108.55 123.95
Q 112.65 124.05 116.3 125.45
M 126.1 212.7
L 130.05 230.3 119.45 224.1 126.1 212.7
M 88.25 238.35
L 91.95 237.8 85.9 257.7 76.1 239.15 88.25 238.35
M 40.9 227.9
L 42.05 228.45 59.75 235.45
Q 59.15 237.05 58.65 238.7 55.9 247.2 47.8 251.1
L 40.9 227.9
M 18.05 205.3
L 22.1 211.9 27.55 218.7 21 225.1 18.05 205.3
M 85.9 50.4
Q 95.25 39.15 86.85 27.15 78.15 14.7 64 20.2 53.15 24.35 55.35 35.9 57.7 48.15 69.1 52.9 78.4 56.7 85.9 50.4
M 63.65 40.9
Q 57.4 30.8 65.8 23.7 80.35 21.05 83.3 36.5 84.55 43.05 78.35 45.75 69.1 49.7 63.65 40.9 Z"/>

<path fill="#B78DCB" stroke="none" d="
M 22.1 211.9
L 18.05 205.3 21 225.1 27.55 218.7 22.1 211.9
M 42.05 228.45
L 40.9 227.9 47.8 251.1
Q 55.9 247.2 58.65 238.7 59.15 237.05 59.75 235.45
L 42.05 228.45
M 91.95 237.8
L 88.25 238.35 76.1 239.15 85.9 257.7 91.95 237.8
M 130.05 230.3
L 126.1 212.7 119.45 224.1 130.05 230.3
M 121.4 128.85
Q 119.35 126.45 116.3 125.45 112.65 124.05 108.55 123.95
L 114.7 129 121.4 128.85
M 98 129.6
L 91.75 133.25
Q 98.25 136.15 105.3 135.6 107.75 135.7 109.9 134.5
L 110.6 131.9 98 129.6
M 16.25 115
L 18.95 115.7 19.35 114.1 9.2 111.35 7.7 115.95 10.65 117.35 16.25 115
M 15.1 120.35
L 13.05 122.3
Q 18.5 127.8 26.3 128.75 27.55 128.75 28.85 128.8 30.15 128.8 31.45 128.8
L 15.1 120.35
M 66.7 124.05
L 73.9 129.7
Q 77.35 129.75 80.85 129.85 84.05 130.2 86.3 132.6
L 91.7 127.1 92.5 124.85
Q 79.65 121.75 66.7 124.05
M 48.15 125.3
L 50.9 124.6 50.45 122.1 31.25 118.5 29.25 120.45 45 128.65 48.15 125.3
M 42.65 132.3
L 45.5 133.15 44.5 131.35 42.65 132.3
M 49.8 130.8
Q 50.95 131.45 52.1 132.15 60.15 136.9 68.4 132.6
L 65.75 129.85 49.8 130.8
M 40.25 33.6
Q 35.05 33.35 34.1 28 33.1 31.4 32.15 34.85 30.3 41.8 32.7 48.65
L 29.95 56.9 36.1 52.2 38.25 54.45 44.75 63.5 53.45 57.4 56.1 58.65 58.5 58.75 59.3 68.3 67.3 60.3
Q 74.2 60.75 80.1 57.35 96.4 48 94.75 29.2 88.1 16.5 74.35 12.2 53.8 5.7 37.85 20.4
L 47.9 23.25
Q 49.95 32.9 40.25 33.6
M 86.85 27.15
Q 95.25 39.15 85.9 50.4 78.4 56.7 69.1 52.9 57.7 48.15 55.35 35.9 53.15 24.35 64 20.2 78.15 14.7 86.85 27.15
M 117.65 81.8
L 120.45 84.75 123.5 80.85 117.9 72.05 117.65 81.8
M 107.7 70.6
L 105.55 68.65 102.65 68.7
Q 104.95 73.05 108.35 76.25 110.4 78.2 113.15 78.9
L 107.7 70.6
M 106.3 64.5
Q 106.35 63.9 106.4 63.3 106.6 59.05 103.4 56.45
L 101.25 63.85 106.3 64.5 Z"/>

<path fill="#6C5477" stroke="none" d="
M 6.35 126.9
L 12.85 128.75 6.5 121.5 6.35 126.9
M 108.65 140.05
L 108.6 140.1 120.35 142.35 121.55 138.1 114.95 135.7 108.65 140.05
M 68.4 139.45
Q 74.25 141.2 80.3 141.5 87.05 142.25 93.35 140.05
L 85.25 135.1 73.85 135.55 68.4 139.45
M 49.2 137.8
L 45.5 133.15 42.65 132.3 34.85 131.8 30.55 134.9
Q 32.65 136.2 34.8 137.55 41.95 142.2 49.2 137.8
M 44.75 63.5
L 49.8 65 56.1 58.65 53.45 57.4 44.75 63.5
M 29.95 56.9
Q 30 56.95 30.05 57 35.85 60.4 38.25 54.45
L 36.1 52.2 29.95 56.9
M 91.2 57.75
Q 101.15 44.65 94.75 29.2 96.4 48 80.1 57.35 74.2 60.75 67.3 60.3
L 59.3 68.3 63.05 69.65 68.75 60.7
Q 71.75 61.65 75.75 62.65 80.25 63.85 80.6 63.7 87 63.25 91.2 57.75
M 109.2 84.5
L 117.65 94
Q 120.15 92.3 122.5 90.4 123 90 123.35 89.45 123.7 88.95 123.95 88.4 125.55 84.55 123.5 80.85
L 120.45 84.75 117.55 90.65 114.1 85.7 109.2 84.5
M 103.4 56.45
L 101.95 54.95
Q 100.9 57.15 99.85 59.4 96.8 66.2 89.75 68.95
L 96.95 74.6 99.15 73 101.25 63.85 103.4 56.45 Z"/>

<path fill="#9999FF" stroke="none" d="
M 108.6 140.1
L 108.65 140.05 107.4 140.25 107.5 140.45 108.6 140.1
M 36.5 152.55
Q 32.3 152.05 28.6 149.85 30.85 171.55 35.8 192.85 39.5 208.65 53.75 216.2 74 227 96.6 229.6 100.95 228.6 104.95 226.15 121.5 216.3 121.15 196.95 120.7 174.2 120.4 151.5 119.4 151.65 118.4 151.85 105.3 152.95 95 144.8
L 93.95 145.35
Q 91.6 150.5 91.05 150.8 79.35 158 67.1 151.7 62.7 149.4 60.3 145 49.75 151.6 47 152.2 41.75 153.15 36.5 152.55
M 102 77.5
Q 102.65 78.25 103 78.25
L 101.35 76.35
Q 101.35 76.75 102 77.5
M 99.3 87.9
Q 94.1 85.1 91.2 80 91.1 79.85 91.05 79.75 86.6 80.25 77.3 78.25 70.2 76.7 68.15 75.85 55.9 85.6 40.5 83.95 38.4 83.9 36.35 83.9
L 30.85 113.55
Q 43.7 112.25 53.6 120.2 54.35 120.8 55.3 122.75 56.1 124.35 56.15 124.8
L 62.5 124.85 64.05 118.55
Q 77.9 118.6 91.8 118.65 92.8 118.95 95.3 121.3 97.85 123.7 98.2 124.95 104.95 117.6 114.9 119.1 115.25 119.25 114.8 99.1
L 106.9 92.45
Q 103.2 89.95 99.3 87.9 Z"/>

<path fill="#5151D2" stroke="none" d="
M 97 140
L 95 144.8
Q 105.3 152.95 118.4 151.85 119.4 151.65 120.4 151.5
L 119.9 148.1
Q 117.9 148.1 113.8 147.1 108.3 145.75 106.7 143.85
L 107.5 140.45 107.4 140.25 97 140
M 72.7 146.25
Q 65.85 145.35 62.75 139.15 53.55 142.9 43.9 144.5 29.25 146.55 25.15 133.25
L 8.1 134.2
Q 9.45 147.75 10.85 161.35 12.75 180.35 21.4 197.25 31.6 217.15 51.95 226.05 73.6 235.55 96.6 229.6 74 227 53.75 216.2 39.5 208.65 35.8 192.85 30.85 171.55 28.6 149.85 32.3 152.05 36.5 152.55 41.75 153.15 47 152.2 49.75 151.6 60.3 145 62.7 149.4 67.1 151.7 79.35 158 91.05 150.8 91.6 150.5 93.95 145.35 83.5 147.85 72.7 146.25
M 91.2 80
Q 94.1 85.1 99.3 87.9 103.2 89.95 106.9 92.45
L 103 78.25
Q 102.65 78.25 102 77.5 101.35 76.75 101.35 76.35
L 98.35 78.55
Q 94.55 78.6 91.25 77.05 86.9 75.15 84.75 70.8
L 68.8 71
Q 65 74 60.05 73.45 56.1 72.75 53.9 69.2 41.05 67.5 37.75 62.65
L 28.85 63.25
Q 19.45 84.15 14.85 106.5 20.5 108 23.25 113.05 25 116.25 22.45 118.9
L 25.75 120.05 30.85 113.55 36.35 83.9
Q 38.4 83.9 40.5 83.95 55.9 85.6 68.15 75.85 70.2 76.7 77.3 78.25 86.6 80.25 91.05 79.75 91.1 79.85 91.2 80 Z"/>

<path fill="#CC33FF" stroke="none" d="
M 45.35 27.15
Q 45.35 25.35 44.2 24.05 43.1 22.75 41.55 22.75 40 22.75 38.85 24.05 37.75 25.35 37.75 27.15 37.75 28.95 38.85 30.25 40 31.55 41.55 31.55 43.1 31.55 44.2 30.25 45.35 28.95 45.35 27.15
M 65.8 23.7
Q 57.4 30.8 63.65 40.9 69.1 49.7 78.35 45.75 84.55 43.05 83.3 36.5 80.35 21.05 65.8 23.7 Z"/>
</g>
</defs>

<g transform="matrix( 0.662353515625, 0, 0, 0.662353515625, 419.05,465.2) ">
<g transform="matrix( 1, 0, 0, 1, -71.25,-395.45) ">
<g transform="matrix( 0.8636474609375, -0.5030364990234375, 0.5030364990234375, 0.8636474609375, 154.85,143.8) ">
<g transform="matrix( 1, 0, 0, 1, 0,0) ">
<use xlink:href="#Gargantuan_arm_1_Layer0_0_FILL"/>
</g>
</g>

<g transform="matrix( 0.9786834716796875, -0.2052001953125, 0.2052001953125, 0.9786834716796875, -52.45,34.95) ">
<g transform="matrix( 1, 0, 0, 1, 0,0) ">
<use xlink:href="#Gargantuan_body_0_Layer0_0_FILL"/>
</g>
</g>

<g transform="matrix( 0.9984130859375, 0.056182861328125, -0.056182861328125, 0.9984130859375, 105.35,36.05) ">
<g transform="matrix( 1, 0, 0, 1, 0,0) ">
<use xlink:href="#Gargantuan_casket2_0_Layer0_0_FILL"/>
</g>
</g>

<g transform="matrix( 0.9984130859375, 0.056182861328125, -0.056182861328125, 0.9984130859375, 144.95,147.65) ">
<g transform="matrix( 1, 0, 0, 1, 0,0) ">
<use xlink:href="#Gargantuan_head_1_Layer2_0_FILL"/>
</g>

<g transform="matrix( 1, 0, 0, 1, 0,0) ">
<use xlink:href="#Gargantuan_head_1_Layer1_0_FILL"/>
</g>

<g transform="matrix( 1, 0, 0, 1, 0,0) ">
<use xlink:href="#Gargantuan_head_1_Layer0_0_FILL"/>
</g>
</g>

<g transform="matrix( 0.9984130859375, 0.056182861328125, -0.056182861328125, 0.9984130859375, 67.85,37.65) ">
<g transform="matrix( 1, 0, 0, 1, 0,0) ">
<use xlink:href="#Gargantuan_casket1_0_Layer0_0_FILL"/>
</g>
</g>

<g transform="matrix( 0.57769775390625, -0.8154754638671875, -0.8154754638671875, -0.57769775390625, 36.85,282.15) ">
<g transform="matrix( 1, 0, 0, 1, 0,0) ">
<use xlink:href="#Gargantuan_arm_0_Layer0_0_FILL"/>
</g>
</g>
</g>
</g>
</svg>
