
<svg xmlns="http://www.w3.org/2000/svg" version="1.1" xmlns:xlink="http://www.w3.org/1999/xlink" preserveAspectRatio="none" x="0px" y="0px" width="1000px" height="1000px" viewBox="0 0 1000 1000">
<defs>
<linearGradient id="Gradient_1" gradientUnits="userSpaceOnUse" x1="95.8625" y1="285.54999999999995" x2="95.6375" y2="-11.150000000000006" spreadMethod="pad">
<stop  offset="17.647058823529413%" stop-color="#FF66FF"/>

<stop  offset="48.23529411764706%" stop-color="#CB5FFF"/>

<stop  offset="100%" stop-color="#271B1B"/>
</linearGradient>

<linearGradient id="Gradient_2" gradientUnits="userSpaceOnUse" x1="53.3" y1="270.4125" x2="59.8" y2="22.1875" spreadMethod="pad">
<stop  offset="0%" stop-color="#FF66FF"/>

<stop  offset="100%" stop-color="#271B1B"/>
</linearGradient>

<linearGradient id="Gradient_3" gradientUnits="userSpaceOnUse" x1="30.2375" y1="259.2875" x2="81.4625" y2="57.8125" spreadMethod="pad">
<stop  offset="17.647058823529413%" stop-color="#FF66FF"/>

<stop  offset="48.23529411764706%" stop-color="#CB5FFF"/>

<stop  offset="100%" stop-color="#271B1B"/>
</linearGradient>

<g id="Gargantuan_casket2_0_Layer0_0_FILL">
<path fill="url(#Gradient_1)" stroke="none" d="
M 111 89.65
L 112.1 97.7 136.45 99.1 136.95 83.9 121.55 60.9 100.1 67.6 102.5 71.95 108 81.8 110.2 87.1 120.65 86.6 111 89.65
M 104.45 269.2
L 110.9 281.75
Q 104.8 281.3 80.9 285.55 57.7 289.7 55.15 291.25
L 60.75 296.45
Q 67.05 302.05 70.8 304.1
L 123.9 286.3 124.7 273.9
Q 110.1 271.85 104.45 269.2
M 110.4 215.4
L 107.85 245.85 126.75 252.7 129.45 221.3
Q 128.6 221.25 110.4 215.4
M 110.95 121.6
L 110.75 124.3 111.2 192.5 131.3 196.8 135.65 119.6 110.95 121.6
M 87.4 43.45
L 110.3 43.2 90.75 15 73.5 17.85 87.4 43.45 Z"/>

<path fill="#271B1B" stroke="none" d="
M 111 89.65
Q 110.75 89.7 111.25 93.65 111.7 97.65 112.1 97.7
L 111 89.65 Z"/>

<path fill="url(#Gradient_2)" stroke="none" d="
M 106.7 83.1
L 108 81.8 102.5 71.95 106.7 83.1 Z"/>

<path fill="url(#Gradient_3)" stroke="none" d="
M 86.45 64.9
Q 85.3 64.15 82.6 60.7 79.5 56.85 79.05 54.9 77.2 47.1 82.9 41.6
L 70.6 18.15
Q 65.45 18.2 57.1 18.05 47.85 17.9 46.35 17.65 43.8 17.1 43.2 14.6 39.7 15 33 16.5 25.85 18.05 24.5 18.8 23.45 19.45 18.45 30.4 13.55 41.15 12.85 44.1 12.25 46.65 9.95 61.7 7.75 76.2 7.5 78.65 7.25859375 81.962890625 7.05 85.3 6.55 93.15 6.6 101.05 6.65 109.6 7.3 118.1 8.05 128.45 9.35 138.75 10.75 149.75 12.5 160.65 12.929296875 163.3896484375 13.4 166.1 16.1939453125 182.5111328125 20.35 198.75 32 244.35 52.1 286.95 62.85 284.9 73.7 282.75 95.4 278.45 99.65 276.65 99.79140625 276.680859375 99.9 276.65 100.2 276.55 100.55 272.55 100.95 268.35 100.7 266.7 100.05 263 99.65 259.25 98.7 249.8 105.2 243.05 105.45 238.05 104.9 224.2 104.3 210.45 104.2 208.75 103.9 200.55 108.35 193.5
L 107.9 121.65 96.95 120.55
Q 91.6 112.5 95.65 103.85 99.15 96.4 107.4 96.85 107.4 95.2 108.15 91.95 109.1 88 110.2 87.1
L 108 81.8 106.7 83.1
Q 104.75 80.8 99.4 73.4 94.85 67.2 94.45 67.05 93.25 67 90.2 66.15 87.25 65.35 86.45 64.9 Z"/>

<path fill="#000000" stroke="none" d="
M 103.9 -5.75
L 85.5 -3.75 45.15 0.9 41.7 10.05
Q 37.9240234375 10.6853515625 30.4 12.5 21.85 14.6 20.7 15.3 20.05 15.75 15.9 23.35 11.65 31.05 11.05 33.15 9.75 37.55 8.5 51.45 7.1 67.15 7.5 78.65 7.75 76.2 9.95 61.7 12.25 46.65 12.85 44.1 13.55 41.15 18.45 30.4 23.45 19.45 24.5 18.8 25.85 18.05 33 16.5 39.7 15 43.2 14.6 43.8 17.1 46.35 17.65 47.85 17.9 57.1 18.05 65.45 18.2 70.6 18.15
L 82.9 41.6
Q 77.2 47.1 79.05 54.9 79.5 56.85 82.6 60.7 85.3 64.15 86.45 64.9 87.25 65.35 90.2 66.15 93.25 67 94.45 67.05 94.85 67.2 99.4 73.4 104.75 80.8 106.7 83.1
L 102.5 71.95 100.1 67.6 121.55 60.9 136.95 83.9 136.45 99.1 112.1 97.7
Q 111.7 97.65 111.25 93.65 110.75 89.7 111 89.65
L 120.65 86.6 110.2 87.1
Q 109.1 88 108.15 91.95 107.4 95.2 107.4 96.85 99.15 96.4 95.65 103.85 91.6 112.5 96.95 120.55
L 107.9 121.65 108.35 193.5
Q 103.9 200.55 104.2 208.75 104.3 210.45 104.9 224.2 105.45 238.05 105.2 243.05 98.7 249.8 99.65 259.25 100.05 263 100.7 266.7 100.95 268.35 100.55 272.55 100.2 276.55 99.9 276.65 99.79140625 276.680859375 99.65 276.65 95.4 278.45 73.7 282.75 62.85 284.9 52.1 286.95 32 244.35 20.35 198.75 16.1939453125 182.5111328125 13.4 166.1 14.8 181.7 28.9 230.4 42.4 276.95 47.2 285.9 54.95 300.5 69.6 308.05 74.4 310.55 79.9 311.75 94.6 314.7 90 315.95 105.95 312.7 126.35 306.7 149.9 299.75 149.65 297.1 149.1611328125 291.3470703125 151.3 278.75 155.4529296875 278.2779296875 161.1 276.85 169.95 274.6 170.05 273.1 170.1 272.85 151.75 257.95
L 155.4 228.25
Q 182.2326171875 218.06484375 193.6 216.5 179.75 207.1 172.25 201.95 158.45 192.55 157.8 191.3 157.9927734375 189.55546875 158.7 153 159.295703125 122.2138671875 159.5 122.05 195.7 108.45 191.9 108.1 186.212109375 107.5556640625 159.45 99.25 159.3341796875 88.8962890625 158.15 81.35 157.65 78.25 150.9 68.4 144.1 59 143.8 58.5 149.55 56.6 158.95 49.15 163.65 45.45 167.3 42 161.45 40.15 146.9 38.8 133.3 37.8 132.8 37.75 117.3333984375 12.6798828125 103.9 -5.75
M 110.3 43.2
L 87.4 43.45 73.5 17.85 90.75 15 110.3 43.2
M 103.85 27.4
Q 93.75 13.95 89.9 11.6 89.75 11.5 70.45 13.2 50.35 14.95 48.05 15
L 47 10.9 97.9 5 122.7 43.55 115.15 43.3
Q 110.8 36.65 103.85 27.4
M 86.25 57.9
Q 83.75 56.25 82.8 53.4
L 83.1 47.65 139.6 49.5 130.55 52.9
Q 119.65 56.85 108.8 60.85 96.75 65.25 86.25 57.9
M 131.95 57.55
L 148.9 85.1 147.75 101.15 141.35 99.95 141.7 84.7 125.75 59.55 131.95 57.55
M 140.7 118.95
L 147.65 118.15 144.1 199.7 136.45 197.95 140.7 118.95
M 158.75 111.55
Q 146.85 112.95 131 114.5 108.25 116.8 103.7 116.55 101.95 116.4 100.25 116.25
L 98.4 107.95
Q 99.75 103.7 104.2 103.15 109.05 102.65 135.65 105.4 159.65 107.85 166.65 109.05
L 158.75 111.55
M 110.75 124.3
L 110.95 121.6 135.65 119.6 131.3 196.8 111.2 192.5 110.75 124.3
M 134.65 221.5
L 141.7 221.2 138.35 257.35 131.7 254.6 134.65 221.5
M 107.85 245.85
L 110.4 215.4
Q 128.6 221.25 129.45 221.3
L 126.75 252.7 107.85 245.85
M 108.85 206.15
L 118.6 198.85
Q 178.202734375 213.41875 178.05 213.6 177.897265625 213.78125 167.7 214 148 215.5 132.85 216.9 129.35 216.8 120.3 212.75 111.1 208.7 108.85 206.15
M 110.9 281.75
L 104.45 269.2
Q 110.1 271.85 124.7 273.9
L 123.9 286.3 70.8 304.1
Q 67.05 302.05 60.75 296.45
L 55.15 291.25
Q 57.7 289.7 80.9 285.55 104.8 281.3 110.9 281.75
M 104.95 263.5
L 104.1 255.4 105.25 249.35 156.2 270.55 144.45 270.05
Q 133.55 269.3 122.65 268.6 113.1 268.55 104.95 263.5
M 135.75 274.75
L 134.05 292.65
Q 125.75 298.05 105.1 305.1
L 86.1 311.05
Q 83.35 309.4 80.5 307.65 74.9 304.2 74.75 304 84.95 299.9 108.1 294 119.65 291.05 129.15 288.9
L 129.7 274.3 135.75 274.75 Z"/>

<path fill="#663333" stroke="none" d="
M 134.05 292.65
L 135.75 274.75 129.7 274.3 129.15 288.9
Q 119.65 291.05 108.1 294 84.95 299.9 74.75 304 74.9 304.2 80.5 307.65 83.35 309.4 86.1 311.05
L 105.1 305.1
Q 125.75 298.05 134.05 292.65
M 141.7 221.2
L 134.65 221.5 131.7 254.6 138.35 257.35 141.7 221.2
M 147.65 118.15
L 140.7 118.95 136.45 197.95 144.1 199.7 147.65 118.15
M 148.9 85.1
L 131.95 57.55 125.75 59.55 141.7 84.7 141.35 99.95 147.75 101.15 148.9 85.1
M 89.9 11.6
Q 93.75 13.95 103.85 27.4 110.8 36.65 115.15 43.3
L 122.7 43.55 97.9 5 47 10.9 48.05 15
Q 50.35 14.95 70.45 13.2 89.75 11.5 89.9 11.6 Z"/>

<path fill="#FFFFFF" stroke="none" d="
M 105.25 249.35
L 104.1 255.4 144.45 270.05 156.2 270.55 105.25 249.35
M 167.7 214
Q 177.897265625 213.78125 178.05 213.6 178.202734375 213.41875 118.6 198.85
L 167.7 214
M 104.2 103.15
Q 99.75 103.7 98.4 107.95
L 158.75 111.55 166.65 109.05
Q 159.65 107.85 135.65 105.4 109.05 102.65 104.2 103.15
M 82.8 53.4
Q 88.8 53.6 108.3 53.4 128.15 53.25 130.55 52.9
L 139.6 49.5 83.1 47.65 82.8 53.4 Z"/>

<path fill="#B78DCB" stroke="none" d="
M 104.1 255.4
L 104.95 263.5
Q 113.1 268.55 122.65 268.6 133.55 269.3 144.45 270.05
L 104.1 255.4
M 118.6 198.85
L 108.85 206.15
Q 111.1 208.7 120.3 212.75 129.35 216.8 132.85 216.9 148 215.5 167.7 214
L 118.6 198.85
M 131 114.5
Q 146.85 112.95 158.75 111.55
L 98.4 107.95 100.25 116.25
Q 101.95 116.4 103.7 116.55 108.25 116.8 131 114.5
M 82.8 53.4
Q 83.75 56.25 86.25 57.9 96.75 65.25 108.8 60.85 119.65 56.85 130.55 52.9 128.15 53.25 108.3 53.4 88.8 53.6 82.8 53.4 Z"/>
</g>

<g id="Gargantuan_casket1_0_Layer0_0_FILL">
<path fill="#000000" stroke="none" d="
M 75.65 120
Q 75.15 123.5 75.95 125.05 78.3 129.7 83.35 131.4 86.45 132.4 89.45 131.35 97.6 128.65 105.9 126.25 116.45 125.05 125.95 120.45 128.95 118.95 132 117.45
L 132 116.1
Q 118.45 111.05 103.95 110.7 89.7 110.4 76.85 116.3 76.1 116.65 75.65 120
M 97.85 113.15
Q 109.45 115.05 121.05 117
L 124.05 117.9
Q 119.3 120.15 103.2 122.7 87.05 125.3 81.4 124.7 80.45 124.55 77.2 120.1 85.6 111 97.85 113.15
M 107.55 66.65
Q 108.1 67.25 110.15 69.5 112.5 72.05 112.9 72.25 106.1 72.7 99.25 73.75 87.65 75.5 76.95 80.35 71.9 82.6 71.6 88 71.45 90.55 74.8 95.7
L 62.1 96 62.1 98.05 97.25 101.25 88.45 102.85 65.7 109.3 63.65 102.45 62.1 98.05
Q 62.15 99.7 62.75 106.85 63.4 114.2 63.8 117.4 63.95 118.8 91.25 205.05 118.55 291.35 118.95 291.7 120.35 292.85 122.85 296.85
L 124.65 296.65 118.3 275.35
Q 120.45 274.75 126.75 271.05 132.25 267.85 133.45 266.9 133.45 266.2 123.65 263 113.6 259.85 112.95 259.65
L 94.1 203.05
Q 96.4 202.75 111.3 196.8 126.6 190.7 128.85 188.9 125.85 188.05 122.05 187.15 114.45 185.45 110.55 185.4 106.45 185.35 98.05 186.95 90.6 188.35 89.75 188.8
L 82.45 164.65
Q 85.5 165.05 95.55 164.65 105.6 164.2 109.05 163.5 115.65 162.15 127.05 155.55 132.75 152.25 137.1 149.2 129.65 147.35 122.2 146.3 106.75 144.3 91.65 146.95 84.8 148.1 78.1 150.2
L 76.45 144.75
Q 78.5 144.65 84.65 140.25 91.15 135.55 90.7 133.35
L 73.25 134.2 66.85 113.1
Q 69.8 112.9 88.65 107.15 107.95 101.25 111.8 99.15
L 93 96.2
Q 96.3 95.35 119.2 86.15 141.5 77.2 144.3 75.75
L 119.9 72.1
Q 121.8 71.65 129.55 65.55 137.5 59.25 138.25 57.3 136.2 56.35 122.6 57.4 108.35 58.5 105.95 60.55 105.473828125 60.983203125 106 64.2 106.85 62.9 110.25 61.45 112.8 60.35 114.1 60.1
L 131.3 59.35 126.35 62.8
Q 123.75 64.5 115.15 65.75
L 107.55 66.65
M 114.3 84.55
Q 99.5 89.2 93.85 90.4 86 91.85 78.1 91.9 77.85 91.6 76.95 88.85 76.05 86.15 76.05 85.95 83.2 79 93.15 76.85 99.8 75.6 131.35 77.55
L 134.4 77.5
Q 129.85 79.65 114.3 84.55
M 73.8 136.05
L 74.5 136 85.05 137 75.8 142.7 73.8 136.05
M 81.35 155.5
Q 81.2 150.75 86 150 89.05 149.85 121.7 150.65 122.15 150.75 109.75 155.1 97.25 159.5 95.75 159.65 87.85 159.9 81.35 155.5
M 91.6 194.8
L 94.8 189.1
Q 102.35 188.55 117.95 190.25
L 112.9 192.65
Q 109.1 195.85 100.2 195.7 93.25 195.6 91.6 194.8
M 114.55 264.25
L 117.85 265.65 126.9 267.15 122.45 269.3 117 271.3 114.55 264.25
M 92.55 7.2
L 98.5 0
Q 92.01484375 -2.5693359375 87.7 -3.3 85.796875 -3.6 56.6 2.25 27.409375 8.1 30.3 8 33.190625 7.95 17.7 56.3 2.253125 104.7 2.3 107.85 2.35 110.2 40.95 201.5 79.95 293.85 83.1 296.3 101.35 310.85 124.65 308.6
L 123.65 303.3
Q 123.5 303.6 119.35 303.1 115.25 302.6 114.85 302.3 107.75 285.75 76.05 187.2 60.2 137.9 45.8 91.95 47.05 89.8 70.4 47.25 92.45 7.15 92.55 7.2
M 49.95 13.3
Q 50.4 13.35 65.4 10.7 80.6 8 83.75 7.3 82.95 9 61.8 51.4 41.05 92.95 41.05 93.1 41.05 93.55 62.55 162.55 73.25 197.05 84 231.45 85.7 236.25 97.65 267 109.6 297.55 111.45 301.95
L 110.65 304.55 86.25 297.8
Q 82.85 291.35 6.4 106.05 18 81.5 28.55 59.15 49.35 15 49.95 13.3
M 98.5 15.15
L 95.25 12
Q 94.7 13.55 66.95 76.15 63.05 85.05 62.15 94.6
L 77.6 64.5
Q 79.95 64.35 87.05 62.4 96.6 59.75 100.35 56.75 102.8 54.75 106.6 49.55 108.5 46.9 109.9 44.7 93.5 43.65 86.65 44.3
L 90.35 36.1
Q 90.65 36.05 97.9 33.6 105.6 30.7 108.7 28.25 111.25 26.25 115.25 19.65
L 96.75 19.45
Q 96.95 18.6 97.75 16.8
L 98.5 15.15
M 95.65 23.15
L 97.75 23.3 105.85 23.55 101.95 26.2 92.95 31.45 95.65 23.15
M 85.35 48.6
L 86.15 46.95 101.85 47.6 97.15 51.4
Q 94.95 53.8 87.35 56.9
L 80.25 59.55 85.35 48.6 Z"/>

<path fill="#B78DCB" stroke="none" d="
M 121.05 117
Q 115.75 118.65 99.35 119.85 82.7 121.05 77.2 120.1 80.45 124.55 81.4 124.7 87.05 125.3 103.2 122.7 119.3 120.15 124.05 117.9
L 121.05 117
M 63.65 102.45
L 65.7 109.3 88.45 102.85 63.65 102.45
M 106 64.2
Q 105.974609375 64.2609375 105.95 64.3
L 107.55 66.65 115.15 65.75
Q 123.75 64.5 126.35 62.8 124 63.45 119.05 63.65 112.45 63.95 110.05 62.45
L 114.1 60.1
Q 112.8 60.35 110.25 61.45 106.85 62.9 106 64.2
M 117.35 268
L 117.85 265.65 114.55 264.25 117 271.3 122.45 269.3 117.35 268
M 94.8 189.1
L 91.6 194.8
Q 93.25 195.6 100.2 195.7 109.1 195.85 112.9 192.65
L 94.7 190.65 94.8 189.1
M 81.35 155.5
Q 87.85 159.9 95.75 159.65 97.25 159.5 109.75 155.1 122.15 150.75 121.7 150.65 112.85 152.55 103.95 154.2 92.7 156.3 81.35 155.5
M 74.5 136
L 73.8 136.05 75.8 142.7 85.05 137 74.5 136
M 93.85 90.4
Q 99.5 89.2 114.3 84.55 129.85 79.65 134.4 77.5
L 131.35 77.55
Q 126.7 78.95 122.05 80.2 110.8 83.45 99.2 84.8 87.6 86.2 76.05 85.95 76.05 86.15 76.95 88.85 77.85 91.6 78.1 91.9 86 91.85 93.85 90.4
M 87.35 56.9
Q 94.95 53.8 97.15 51.4 88.25 51.25 85.35 48.6
L 80.25 59.55 87.35 56.9
M 97.75 23.3
L 95.65 23.15 92.95 31.45 101.95 26.2
Q 101.4 26.35 99.5 24.85
L 97.75 23.3 Z"/>

<path fill="#FFFFFF" stroke="none" d="
M 121.05 117
Q 109.45 115.05 97.85 113.15 85.6 111 77.2 120.1 82.7 121.05 99.35 119.85 115.75 118.65 121.05 117
M 62.1 98.05
L 62.1 98.05 63.65 102.45 88.45 102.85 97.25 101.25 62.1 98.05
M 110.05 62.45
Q 112.45 63.95 119.05 63.65 124 63.45 126.35 62.8
L 131.3 59.35 114.1 60.1 110.05 62.45
M 117.85 265.65
L 117.35 268 122.45 269.3 126.9 267.15 117.85 265.65
M 94.8 189.1
L 94.7 190.65 112.9 192.65 117.95 190.25
Q 102.35 188.55 94.8 189.1
M 86 150
Q 81.2 150.75 81.35 155.5 92.7 156.3 103.95 154.2 112.85 152.55 121.7 150.65 89.05 149.85 86 150
M 122.05 80.2
Q 126.7 78.95 131.35 77.55 99.8 75.6 93.15 76.85 83.2 79 76.05 85.95 87.6 86.2 99.2 84.8 110.8 83.45 122.05 80.2
M 86.15 46.95
L 85.35 48.6
Q 88.25 51.25 97.15 51.4
L 101.85 47.6 86.15 46.95
M 101.95 26.2
L 105.85 23.55 97.75 23.3 99.5 24.85
Q 101.4 26.35 101.95 26.2 Z"/>

<path fill="#271B1B" stroke="none" d="
M 20.35 102.25
Q 9.05 105.05 6.4 106.05 82.85 291.35 86.25 297.8
L 110.65 304.55 111.45 301.95
Q 109.6 297.55 97.65 267 85.7 236.25 84 231.45 82.4 228.75 48.05 169.75 14.5 112 13.65 110.7
L 33.85 99.5
Q 32.25 99.35 20.35 102.25 Z"/>

<path fill="#382626" stroke="none" d="
M 65.4 10.7
Q 50.4 13.35 49.95 13.3 49.35 15 28.55 59.15 18 81.5 6.4 106.05 9.05 105.05 20.35 102.25 32.25 99.35 33.85 99.5
L 13.65 110.7
Q 14.5 112 48.05 169.75 82.4 228.75 84 231.45 73.25 197.05 62.55 162.55 41.05 93.55 41.05 93.1 41.05 92.95 61.8 51.4 82.95 9 83.75 7.3 80.6 8 65.4 10.7 Z"/>

<path fill="#663333" stroke="none" d="
M 95.25 12
Q 95.35 11.45 92.55 7.2 92.45 7.15 70.4 47.25 47.05 89.8 45.8 91.95 60.2 137.9 76.05 187.2 107.75 285.75 114.85 302.3 115.25 302.6 119.35 303.1 123.5 303.6 123.65 303.3 124.1 302.7 122.85 296.85 120.35 292.85 118.95 291.7 118.55 291.35 91.25 205.05 63.95 118.8 63.8 117.4 63.4 114.2 62.75 106.85 62.15 99.7 62.1 98.05
L 62.1 98.05 62.1 96 62.15 94.6
Q 63.05 85.05 66.95 76.15 94.7 13.55 95.25 12 Z"/>
</g>
</defs>

<g transform="matrix( 0.662353515625, 0, 0, 0.662353515625, 419.05,465.2) ">
<g transform="matrix( 0.1505279541015625, -0.9885101318359375, 0.9885101318359375, 0.1505279541015625, -30.25,20.6) ">
<g transform="matrix( 1, 0, 0, 1, 0,0) ">
<use xlink:href="#Gargantuan_casket2_0_Layer0_0_FILL"/>
</g>
</g>

<g transform="matrix( 0.1505279541015625, -0.9885101318359375, 0.9885101318359375, 0.1505279541015625, -32.25,58.05) ">
<g transform="matrix( 1, 0, 0, 1, 0,0) ">
<use xlink:href="#Gargantuan_casket1_0_Layer0_0_FILL"/>
</g>
</g>
</g>
</svg>
