
<svg xmlns="http://www.w3.org/2000/svg" version="1.1" xmlns:xlink="http://www.w3.org/1999/xlink" preserveAspectRatio="none" x="0px" y="0px" width="1000px" height="1000px" viewBox="0 0 1000 1000">
<defs>
<linearGradient id="Gradient_1" gradientUnits="userSpaceOnUse" x1="262.8" y1="-26.92500000000001" x2="262.8" y2="143.525" spreadMethod="pad">
<stop  offset="0%" stop-color="#000000"/>

<stop  offset="46.666666666666664%" stop-color="#FF0000"/>

<stop  offset="77.25490196078431%" stop-color="#FFB600"/>

<stop  offset="100%" stop-color="#FFFFFF"/>
</linearGradient>

<linearGradient id="Gradient_2" gradientUnits="userSpaceOnUse" x1="82.9875" y1="44.975" x2="80.91250000000001" y2="18.924999999999997" spreadMethod="pad">
<stop  offset="0%" stop-color="#838383"/>

<stop  offset="100%" stop-color="#BDBDBD"/>
</linearGradient>

<linearGradient id="Gradient_3" gradientUnits="userSpaceOnUse" x1="206.0375" y1="202.075" x2="273.1625" y2="212.125" spreadMethod="pad">
<stop  offset="0%" stop-color="#838383"/>

<stop  offset="100%" stop-color="#515151"/>
</linearGradient>

<linearGradient id="Gradient_4" gradientUnits="userSpaceOnUse" x1="416.9" y1="159.4625" x2="263.5" y2="168.23749999999998" spreadMethod="pad">
<stop  offset="0%" stop-color="#838383"/>

<stop  offset="100%" stop-color="#515151"/>
</linearGradient>

<linearGradient id="Gradient_5" gradientUnits="userSpaceOnUse" x1="326.425" y1="96.51249999999999" x2="324.97499999999997" y2="42.18749999999999" spreadMethod="pad">
<stop  offset="0%" stop-color="#838383"/>

<stop  offset="100%" stop-color="#515151"/>
</linearGradient>

<linearGradient id="Gradient_6" gradientUnits="userSpaceOnUse" x1="333.85" y1="-11.637500000000001" x2="324.35" y2="29.3375" spreadMethod="pad">
<stop  offset="0%" stop-color="#838383"/>

<stop  offset="100%" stop-color="#BDBDBD"/>
</linearGradient>

<g id="Anvil_6_Layer0_0_FILL">
<path fill="url(#Gradient_1)" stroke="none" d="
M 165.6 -28.35
Q 165.794921875 -27.270703125 148.35 -1.8 109.65859375 3.8435546875 70.6 20.2 53.3 27.5 27.35 40.7 3.55 52.85 3.65 53.5 3.85 54.4 30.95 70.95 61 89.3 78.65 97.75 119.8599609375 117.525 153.5 120.55 159.0548828125 139.38515625 159.35 141.55 159.5 142.4 179.25 144.4 198.65 146.35 198.5 146.5
L 174.2 183
Q 193.5 240.85 194 240.9 197.45 241.2 224.45 241.95 258.85 242.9 292.95 243.25 398.15 244.3 449.2 239.3 464.9 184.85 462.4 181.05 461.8 180.1 451.45 158.6 442 138.95 441 139.05 438.3728515625 139.270703125 425 137.8 433.927734375 113.112890625 517.9 80.4
L 521.9 27.9
Q 522 25.85 508.2 5.2 494.45 -15.4 493.95 -14.7 493.95 -14.55 329.7 -21.6 165.55 -28.7 165.6 -28.35
M 162.65 -0.7
L 173.15 -14.4 254.9 -12 490.5 -5.9 511.15 22.75
Q 514.4689453125 26.4537109375 473.45 28.6
L 479.45 28.5 513.1 27.7 509.45 55 507.75 67.65
Q 506.7802734375 68.11953125 505.8 68.6 420.7607421875 110.1078125 416.05 141.7
L 416 141.8 416 141.85
Q 415.9 142 415.9 145.7 415.9 149.9 416.4 151.95 418.541015625 160.8220703125 427.5 168.75 400.6234375 171.622265625 373.05 172.95 369.5 173.15 401.8 173.45 417.95 173.65 434.8 173.75
L 428.9 164.7
Q 422.3 154.65 421.25 150.75 420.555078125 147.8162109375 420.7 144.75
L 430.85 145.05 435.1 152.45 451.5 180.95
Q 415.2369140625 185.47578125 377.05 187.25 374.832421875 187.3796875 372.6 187.45 342.25 187.55 304.4 186.8 228.8 185.25 189 181.05
L 209.5 145.7
Q 213.67578125 148.7517578125 214.9 152.15 215.8 155.15 210.45 164.45 207.8 169.1 205.25 173.3 205.5021484375 173.4681640625 286.55 173.6 277.6099609375 173.2990234375 268.6 172.85 231 170.5 213.2 168.75 222.8595703125 158.9134765625 219.65 150.55 219 148.3 214.75 144.15 210.65 140.4 210.5 140.35 197.846484375 132.1603515625 166.65 126.5 166.05 126.4 157.6 103.5
L 136.35 36.15
Q 220.4349609375 37.5046875 295.95 36.3 412.75 32 409.5 32 232.294921875 31.7765625 138.2 31.1
L 162.65 -0.7
M 366.65 190.6
Q 408.9041015625 189.356640625 452.35 185.95
L 446.7 234.5
Q 332.733984375 245.5236328125 220.35 237.9 208.3609375 237.0982421875 196.4 236.05
L 194.7 226.05 187.85 185.95
Q 203.8 187.34453125 219.9 188.35 230.85 189.1 279.35 190.15 338.8 191.5 366.65 190.6
M 150.15 8.35
L 140.5 20.4 130.65 32.6 141.3 65.45 155.15 108.2
Q 75.5931640625 89.7828125 14.45 53.05 14.2 52.9 19 50.45 23.8 47.95 27.15 46.55 85.872265625 21.861328125 150.15 8.35 Z"/>

<path fill="#333333" stroke="none" d="
M 141.3 65.45
Q 89.6744140625 68.137890625 14.45 53.05 75.5931640625 89.7828125 155.15 108.2
L 141.3 65.45
M 452.35 185.95
Q 408.9041015625 189.356640625 366.65 190.6 316.4005859375 228.871484375 220.35 237.9 332.733984375 245.5236328125 446.7 234.5
L 452.35 185.95
M 416 141.8
L 416.05 141.7
Q 420.7607421875 110.1078125 505.8 68.6 283.6478515625 67.0095703125 166.65 126.5 197.846484375 132.1603515625 210.5 140.35 210.65 140.4 214.75 144.15 219 148.3 219.65 150.55 222.8595703125 158.9134765625 213.2 168.75 231 170.5 268.6 172.85
L 373.05 172.95
Q 400.6234375 171.622265625 427.5 168.75 418.541015625 160.8220703125 416.4 151.95 415.9 149.9 415.9 145.7 415.9 142 416 141.85
L 416 141.8 Z"/>

<path fill="url(#Gradient_2)" stroke="none" d="
M 130.65 32.6
L 140.5 20.4
Q 87.6220703125 24.3044921875 27.15 46.55 23.8 47.95 19 50.45 14.2 52.9 14.45 53.05 89.6744140625 68.137890625 141.3 65.45
L 130.65 32.6 Z"/>

<path fill="#FFFFFF" stroke="none" d="
M 140.5 20.4
L 150.15 8.35
Q 85.872265625 21.861328125 27.15 46.55 87.6220703125 24.3044921875 140.5 20.4
M 194.7 193.95
Q 194.9837890625 187.8064453125 219.9 188.35 203.8 187.34453125 187.85 185.95
L 194.7 226.05
Q 191.576171875 197.380859375 194.7 193.95
M 136.35 36.15
L 157.6 103.5
Q 147.0421875 66.5515625 154.65 54.75 159.1767578125 41.6453125 295.95 36.3 220.4349609375 37.5046875 136.35 36.15
M 372.6 187.45
Q 374.832421875 187.3796875 377.05 187.25 415.2369140625 185.47578125 451.5 180.95
L 435.1 152.45
Q 447.2189453125 176.55078125 441.85 177.7 440.04609375 183.2646484375 372.6 187.45
M 507.25 34.9
Q 510.2140625 37.33046875 509.45 55
L 513.1 27.7 479.45 28.5 451.3 30
Q 500.792578125 28.846875 507.25 34.9
M 162.65 -0.7
Q 171.046484375 -9.459765625 177.7 -10.75 184.0052734375 -12.62578125 254.9 -12
L 173.15 -14.4 162.65 -0.7 Z"/>

<path fill="url(#Gradient_3)" stroke="none" d="
M 219.9 188.35
Q 194.9837890625 187.8064453125 194.7 193.95 191.576171875 197.380859375 194.7 226.05
L 196.4 236.05
Q 208.3609375 237.0982421875 220.35 237.9 316.4005859375 228.871484375 366.65 190.6 338.8 191.5 279.35 190.15 230.85 189.1 219.9 188.35 Z"/>

<path fill="url(#Gradient_4)" stroke="none" d="
M 401.8 173.45
Q 369.5 173.15 373.05 172.95
L 268.6 172.85
Q 277.6099609375 173.2990234375 286.55 173.6 205.5021484375 173.4681640625 205.25 173.3 207.8 169.1 210.45 164.45 215.8 155.15 214.9 152.15 213.67578125 148.7517578125 209.5 145.7
L 189 181.05
Q 228.8 185.25 304.4 186.8 342.25 187.55 372.6 187.45 440.04609375 183.2646484375 441.85 177.7 447.2189453125 176.55078125 435.1 152.45
L 430.85 145.05 420.7 144.75
Q 420.555078125 147.8162109375 421.25 150.75 422.3 154.65 428.9 164.7
L 434.8 173.75
Q 417.95 173.65 401.8 173.45 Z"/>

<path fill="url(#Gradient_5)" stroke="none" d="
M 507.75 67.65
L 509.45 55
Q 510.2140625 37.33046875 507.25 34.9 500.792578125 28.846875 451.3 30 448.25 30.1 409.5 32 412.75 32 295.95 36.3 159.1767578125 41.6453125 154.65 54.75 147.0421875 66.5515625 157.6 103.5 166.05 126.4 166.65 126.5 283.6478515625 67.0095703125 505.8 68.6 506.7802734375 68.11953125 507.75 67.65 Z"/>

<path fill="url(#Gradient_6)" stroke="none" d="
M 177.7 -10.75
Q 171.046484375 -9.459765625 162.65 -0.7
L 138.2 31.1
Q 232.294921875 31.7765625 409.5 32 448.25 30.1 451.3 30
L 479.45 28.5 473.45 28.6
Q 514.4689453125 26.4537109375 511.15 22.75
L 490.5 -5.9 254.9 -12
Q 184.0052734375 -12.62578125 177.7 -10.75 Z"/>
</g>
</defs>

<g transform="matrix( 0.500823974609375, 0, 0, 0.500823974609375, 352.4,379.55) ">
<g transform="matrix( 1, 0, 0, 1, 0,0) ">
<use xlink:href="#Anvil_6_Layer0_0_FILL"/>
</g>
</g>
</svg>
