
<svg xmlns="http://www.w3.org/2000/svg" version="1.1" xmlns:xlink="http://www.w3.org/1999/xlink" preserveAspectRatio="none" x="0px" y="0px" width="1000px" height="1000px" viewBox="0 0 1000 1000">
<defs>
<linearGradient id="Gradient_1" gradientUnits="userSpaceOnUse" x1="79.85" y1="3.3999999999999986" x2="79.85" y2="93.4" spreadMethod="pad">
<stop  offset="0%" stop-color="#000000"/>

<stop  offset="20.784313725490197%" stop-color="#FF0000"/>

<stop  offset="39.6078431372549%" stop-color="#FF7000"/>

<stop  offset="74.11764705882354%" stop-color="#FFE000"/>

<stop  offset="100%" stop-color="#FFFFFF"/>
</linearGradient>

<linearGradient id="Gradient_2" gradientUnits="userSpaceOnUse" x1="81.425" y1="116.11250000000001" x2="99.075" y2="155.6875" spreadMethod="pad">
<stop  offset="0%" stop-color="#1E1E1E"/>

<stop  offset="53.333333333333336%" stop-color="#FF4F2C"/>

<stop  offset="84.31372549019608%" stop-color="#FFB600"/>

<stop  offset="100%" stop-color="#FFFFFF"/>
</linearGradient>

<linearGradient id="Gradient_3" gradientUnits="userSpaceOnUse" x1="29.9875" y1="41.7" x2="12.6125" y2="41.7" spreadMethod="pad">
<stop  offset="0%" stop-color="#000000"/>

<stop  offset="20.784313725490197%" stop-color="#FF0000"/>

<stop  offset="39.6078431372549%" stop-color="#FF7000"/>

<stop  offset="74.11764705882354%" stop-color="#FFE000"/>

<stop  offset="100%" stop-color="#FFFFFF"/>
</linearGradient>

<linearGradient id="Gradient_4" gradientUnits="userSpaceOnUse" x1="53.9375" y1="59.3" x2="138.5625" y2="122.7" spreadMethod="pad">
<stop  offset="0%" stop-color="#333333"/>

<stop  offset="83.52941176470588%" stop-color="#FF4F2C"/>

<stop  offset="100%" stop-color="#FFB72C"/>
</linearGradient>

<linearGradient id="Gradient_5" gradientUnits="userSpaceOnUse" x1="35.3625" y1="43.85" x2="97.03750000000001" y2="43.85" spreadMethod="pad">
<stop  offset="0%" stop-color="#000000"/>

<stop  offset="20.784313725490197%" stop-color="#FF0000"/>

<stop  offset="39.6078431372549%" stop-color="#FF7000"/>

<stop  offset="74.11764705882354%" stop-color="#FFE000"/>

<stop  offset="100%" stop-color="#FFFFFF"/>
</linearGradient>

<linearGradient id="Gradient_6" gradientUnits="userSpaceOnUse" x1="81.8375" y1="8.5" x2="81.6625" y2="15.2" spreadMethod="pad">
<stop  offset="0%" stop-color="#000000"/>

<stop  offset="20.784313725490197%" stop-color="#FF0000"/>

<stop  offset="39.6078431372549%" stop-color="#FF7000"/>

<stop  offset="74.11764705882354%" stop-color="#FFE000"/>

<stop  offset="100%" stop-color="#FFFFFF"/>
</linearGradient>

<radialGradient id="Gradient_7" gradientUnits="userSpaceOnUse" cx="0" cy="0" r="30.876632041885653" fx="0" fy="0" gradientTransform="matrix( 0.940840955729636, -0.33884848534668904, 0.33884848534668904, 0.940840955729636, 34.75,35.7) " spreadMethod="pad">
<stop  offset="12.549019607843137%" stop-color="#FFFFFF"/>

<stop  offset="56.86274509803921%" stop-color="#FFFD2C"/>
</radialGradient>

<linearGradient id="Gradient_8" gradientUnits="userSpaceOnUse" x1="38.775" y1="58.9125" x2="32.725" y2="72.4875" spreadMethod="pad">
<stop  offset="0%" stop-color="#999999"/>

<stop  offset="100%" stop-color="#666666"/>
</linearGradient>

<linearGradient id="Gradient_9" gradientUnits="userSpaceOnUse" x1="36.7125" y1="58" x2="35.7875" y2="70.5" spreadMethod="pad">
<stop  offset="0%" stop-color="#999999"/>

<stop  offset="100%" stop-color="#666666"/>
</linearGradient>

<linearGradient id="Gradient_10" gradientUnits="userSpaceOnUse" x1="47.6625" y1="54.9875" x2="49.237500000000004" y2="114.91250000000001" spreadMethod="pad">
<stop  offset="0%" stop-color="#000000"/>

<stop  offset="100%" stop-color="#3C3C3C"/>
</linearGradient>

<linearGradient id="Gradient_11" gradientUnits="userSpaceOnUse" x1="-59.025000000000006" y1="447.42499999999995" x2="-5.474999999999998" y2="476.875" spreadMethod="pad">
<stop  offset="0%" stop-color="#FF6600"/>

<stop  offset="50.98039215686274%" stop-color="#FFCC00"/>

<stop  offset="100%" stop-color="#FFFF99"/>
</linearGradient>

<linearGradient id="Gradient_12" gradientUnits="userSpaceOnUse" x1="-67.575" y1="351.1625" x2="-32.925" y2="423.5375" spreadMethod="pad">
<stop  offset="0%" stop-color="#FF6600"/>

<stop  offset="50.98039215686274%" stop-color="#FFCC00"/>

<stop  offset="100%" stop-color="#FFFF99"/>
</linearGradient>

<linearGradient id="Gradient_13" gradientUnits="userSpaceOnUse" x1="18.924999999999997" y1="416.4625" x2="56.375" y2="448.5375" spreadMethod="pad">
<stop  offset="0%" stop-color="#FF6600"/>

<stop  offset="50.98039215686274%" stop-color="#FFCC00"/>

<stop  offset="100%" stop-color="#FFFF99"/>
</linearGradient>

<linearGradient id="Gradient_14" gradientUnits="userSpaceOnUse" x1="-69.675" y1="278.5625" x2="-17.424999999999997" y2="358.8375" spreadMethod="pad">
<stop  offset="0%" stop-color="#FF6600"/>

<stop  offset="50.98039215686274%" stop-color="#FFCC00"/>

<stop  offset="100%" stop-color="#FFFF99"/>
</linearGradient>

<linearGradient id="Gradient_15" gradientUnits="userSpaceOnUse" x1="170" y1="266.6375" x2="58.800000000000004" y2="303.96250000000003" spreadMethod="pad">
<stop  offset="0%" stop-color="#FF6600"/>

<stop  offset="50.98039215686274%" stop-color="#FFCC00"/>

<stop  offset="100%" stop-color="#FFFF99"/>
</linearGradient>

<g id="Symbol_13_2_Layer1_0_FILL">
<path fill="url(#Gradient_1)" stroke="none" d="
M 18.65 153.35
Q 28.75 158.1 38.95 161.25 89.4 176.85 143.7 153.35 186.85 76.2 143.7 4.9 81.25 -21.7 18.65 4.9 -29.9 73.2 18.65 153.35
M 137.75 14.8
Q 138.35 17.6 126.8 22.15 99.5 29.25 72.7 28.3 72.55 28.25 72.4 28.25 55 27 46.25 25.35
L 46.25 25.3
Q 42.05 24.55 35.7 23 22.25 17.15 24.65 13.5
L 24.75 13.4
Q 24.9 13.05 26.05 12.55 42.05 5.7 58.15 2.9 84.15 0.85 85.15 0.9 111 1.7 137.05 12.8
L 137.35 13.1 137.3 13.2
Q 137.7 13.8 137.75 14.8
M 147.9 34.5
L 149.95 40.1
Q 163.55 79.8 148.25 121.5
L 147.05 124.55
Q 146.4 126.2 143 133.5 139.1 141.95 137.05 145.6 83.65 168.65 34.5 149.65 29.8 147.8 25.15 145.6 18.55 134.75 14 124.1 13.7 123.5 13.45 122.9 -4.95 79.3 10.4 39.75
L 12.75 34.15
Q 18.3 23.15 21.65 18 21 21.45 33.55 26.65 37.25 27.55 41 28.3 84.4 36.9 129.05 25.85 139.4 21.9 140.65 19.05 144.8 26.75 147.9 34.5 Z"/>

<path fill="url(#Gradient_2)" stroke="none" d="
M 28.35 131.3
L 29.5 135.7 34.5 149.65
Q 83.65 168.65 137.05 145.6 139.1 141.95 143 133.5 146.4 126.2 147.05 124.55 146.6 125 142.65 126.85 138.05 129.1 134.95 130.15 80.8 142.05 28.35 131.3 Z"/>

<path fill="#666666" stroke="none" d="
M 29.5 135.7
L 28.35 131.3
Q 28.3 131.05 28.25 130.85 15.45 126.05 14 124.1 18.55 134.75 25.15 145.6 29.8 147.8 34.5 149.65
L 29.5 135.7
M 126.8 22.15
Q 138.35 17.6 137.75 14.8 137.7 13.8 137.3 13.2 137.15 13 137.05 12.8 111 1.7 85.15 0.9 84.85 0.9 84.5 0.95 63.95 2.85 47.55 9.95 46.35 10.45 44.1 12.7 41.7 15.05 41.75 16.1 41.9 18.5 45.05 20.9 48.45 23.3 59.05 25.85 67.6 27.8 72.4 28.25 72.55 28.25 72.7 28.3 99.5 29.25 126.8 22.15
M 81.8 3.5
Q 90.5 3.5 96.6 5.7 102.75 7.85 102.75 10.85 102.75 14 96.6 16.1 90.5 18.3 81.8 18.3 73.15 18.3 67 16.1 60.9 14 60.9 10.85 60.9 7.85 67 5.7 73.15 3.5 81.8 3.5
M 97.6 12
Q 97.45 11.5 94.45 10.15 91.55 8.95 90.7 8.8 87.2 8.4 85.2 8.4 82.2 8.45 79.9 9.25 78.7 9.7 76.55 10.85 74.75 11.95 74.15 12.9 73.95 13.3 74.25 14.35 74.5 15.45 74.8 15.6 78.05 16.1 81.8 16.1 89.05 16.1 94.15 14.35 97.1 13.45 98.35 12.25 98.25 12.3 97.9 12.2
L 97.6 12 Z"/>

<path fill="#999999" stroke="none" d="
M 30.1 49
Q 27.25 48.45 24.4 47.85 10.85 43.1 10.4 39.75 -4.95 79.3 13.45 122.9 13.7 123.5 14 124.1 15.45 126.05 28.25 130.85 15.75 85.25 28.35 53.35 29.15 51.25 30.1 49.25
L 30.1 49
M 84.5 0.95
Q 84.85 0.9 85.15 0.9 84.15 0.85 58.15 2.9 42.05 5.7 26.05 12.55 24.9 13.05 24.75 13.4
L 24.65 13.5
Q 22.25 17.15 35.7 23 42.05 24.55 46.25 25.3
L 46.25 25.35
Q 55 27 72.4 28.25 67.6 27.8 59.05 25.85 48.45 23.3 45.05 20.9 41.9 18.5 41.75 16.1 41.7 15.05 44.1 12.7 46.35 10.45 47.55 9.95 63.95 2.85 84.5 0.95
M 98.35 12.25
L 98.4 12.2
Q 99.2 10.95 99.25 10.6
L 99.25 10.4
Q 99.25 8 94.15 6.35 89.05 4.65 81.8 4.65 74.6 4.65 69.5 6.35 64.4 8 64.4 10.4 64.4 12.75 69.5 14.35
L 74.35 15.55
Q 74.55 15.55 74.8 15.6 74.5 15.45 74.25 14.35 73.95 13.3 74.15 12.9 74.75 11.95 76.55 10.85 78.7 9.7 79.9 9.25 82.2 8.45 85.2 8.4 87.2 8.4 90.7 8.8 91.55 8.95 94.45 10.15 97.45 11.5 97.6 12
L 97.9 12.2
Q 98.25 12.3 98.35 12.25 Z"/>

<path fill="#FF9900" stroke="none" d="
M 26.5 43.2
Q 29.55 43.85 32.55 44.45
L 41 28.3
Q 37.25 27.55 33.55 26.65 21 21.45 21.65 18 18.3 23.15 12.75 34.15 11.75 37.85 26.5 43.2 Z"/>

<path fill="url(#Gradient_3)" stroke="none" d="
M 12.75 34.15
L 10.4 39.75
Q 10.85 43.1 24.4 47.85 27.25 48.45 30.1 49
L 30.1 49.25 30.2 49 32.55 44.45
Q 29.55 43.85 26.5 43.2 11.75 37.85 12.75 34.15 Z"/>

<path fill="url(#Gradient_4)" stroke="none" d="
M 149.95 40.1
Q 148.75 43 136.3 47.05 82.45 58.45 30.2 49
L 30.1 49.25
Q 29.15 51.25 28.35 53.35 15.75 85.25 28.25 130.85 28.3 131.05 28.35 131.3 80.8 142.05 134.95 130.15 138.05 129.1 142.65 126.85 146.6 125 147.05 124.55
L 148.25 121.5
Q 163.55 79.8 149.95 40.1 Z"/>

<path fill="url(#Gradient_5)" stroke="none" d="
M 147.9 34.5
L 147.35 34.7
Q 147.65 37.85 134.05 42.4 82.5 53.75 32.55 44.45
L 30.2 49
Q 82.45 58.45 136.3 47.05 148.75 43 149.95 40.1
L 147.9 34.5 Z"/>

<path fill="#FF3300" stroke="none" d="
M 147.35 34.7
L 147.9 34.5
Q 144.8 26.75 140.65 19.05 139.4 21.9 129.05 25.85 84.4 36.9 41 28.3
L 32.55 44.45
Q 82.5 53.75 134.05 42.4 147.65 37.85 147.35 34.7 Z"/>

<path fill="url(#Gradient_6)" stroke="none" d="
M 96.6 5.7
Q 90.5 3.5 81.8 3.5 73.15 3.5 67 5.7 60.9 7.85 60.9 10.85 60.9 14 67 16.1 73.15 18.3 81.8 18.3 90.5 18.3 96.6 16.1 102.75 14 102.75 10.85 102.75 7.85 96.6 5.7
M 98.4 12.2
L 98.35 12.25
Q 97.1 13.45 94.15 14.35 89.05 16.1 81.8 16.1 78.05 16.1 74.8 15.6 74.55 15.55 74.35 15.55
L 69.5 14.35
Q 64.4 12.75 64.4 10.4 64.4 8 69.5 6.35 74.6 4.65 81.8 4.65 89.05 4.65 94.15 6.35 99.25 8 99.25 10.4
L 99.25 10.6
Q 99.2 10.95 98.4 12.2 Z"/>
</g>

<g id="Symbol_13_2_Layer0_0_FILL">
<path fill="#FF3300" stroke="none" d="
M 117.05 98.45
Q 117.3 83.7 107.1 73.25 96.9 62.85 82.25 62.6 68.3 62.4 58.05 71.85
L 57.85 71.95
Q 57.15 72.5 56.55 73.1 46.1 83.35 45.9 98 45.7 112.7 55.2 115.15 62.1 116.9 70.95 126.5 75.5 118.15 79.7 127.7 85.05 118.8 89.65 126.5 98.4 118.2 105.15 116.45 109.2 115.45 111.75 113 117 108.35 117.05 98.45
M 97.5 82.5
Q 97.7244140625 82.5 97.95 82.5 101.5 82.55 103.9 85 106.4 87.75 106.4 91.3 106.4 94.85 103.7 97.35
L 103.65 97.4
Q 103.098046875 97.8580078125 102.5 98.2 102.9923828125 97.9298828125 103.45 97.55 103.66328125 111.9458984375 85.85 115.6 63.05 120.3 59.15 98.2 59.108984375 97.962890625 59.05 97.7 57.7376953125 97.0283203125 56.6 95.85 53.9 93.15 54 89.1 54.05 85.15 56.75 82.4
L 56.75 82.3
Q 59.45 80.15 63.05 80.15 63.1126953125 80.1515625 63.15 80.15 64.41015625 78.472265625 66 76.9 70.55 72.45 76.4 71.2 77.597265625 71.967578125 78.45 72.75 80.6560546875 71.9333984375 83.15 71.4 94.2044921875 76.0390625 97.5 82.5 Z"/>

<path fill="#FF9900" stroke="none" d="
M 95.45 98.85
Q 93.6013671875 98.21015625 92.1 96.65 89.65 94.05 89.7 90.5 89.7 87.05 92.15 84.4
L 97.1 82.5
Q 97.3140625 82.508203125 97.5 82.5 94.2044921875 76.0390625 83.15 71.4 80.6560546875 71.9333984375 78.45 72.75 77.597265625 71.967578125 76.4 71.2 70.55 72.45 66 76.9 64.41015625 78.472265625 63.15 80.15 65.5634765625 80.237890625 67.45 81.25 68.7423828125 81.953125 69.8 83.05 72.5 86 72.45 89.9 72.4 93.9 69.6 96.65 69.55 96.7 69.55 96.75 69.2537109375 96.98046875 68.95 97.15 68.879296875 97.2224609375 68.8 97.25
L 64.75 98.7
Q 64.0994140625 98.7703125 63.4 98.75 61.025390625 98.75 59.05 97.7 59.108984375 97.962890625 59.15 98.2 63.05 120.3 85.85 115.6 103.66328125 111.9458984375 103.45 97.55 102.9923828125 97.9298828125 102.5 98.2
L 99.35 99.25
Q 98.7912109375 99.3095703125 98.2 99.3 96.7400390625 99.3 95.45 98.85 Z"/>
</g>

<g id="spark_2_Layer0_0_FILL">
<path fill="url(#Gradient_7)" stroke="none" d="
M 44 36.85
Q 47.5 35.8 55.55 35.5 43.3 33.9 40.4 32.1 45.05 23.4 49.9 9.95 40.4 21.1 33.95 30.2 31.55 28.2 24.75 26.25
L 27.8 33.6
Q 22.35 35.05 -2.9 44.85 20.3 42.1 29.25 38.9 29.15 45.5 28.3 50.25 31 46.45 33.7 42.7 34.55 41.5 35.05 40.3 42.15 51.55 53.15 60.35 53.35 60.05 48 51.5 42.5 42.7 38.85 37.75 40.35 37.95 44 36.85 Z"/>

<path fill="#FFFF00" stroke="none" d="
M 70.9 6.9
Q 71.7 6.95 72.3 6.25 73.4 5.05 72.25 4.7 66.55 3 70.9 6.9 Z"/>
</g>

<g id="fdudearm_2_Layer1_0_FILL">
<path fill="#FF3300" stroke="none" d="
M 48.75 31.6
Q 48.8 31.45 48.75 31.35 43.85 24.55 34 25.65 22.5 25.95 11.7 30.2 11.6392578125 30.223828125 11.55 30.25 12.08515625 34.53515625 12.45 38.8 28.496875 30.5626953125 48.75 31.6
M 44.25 3.65
Q 44.25 3.5 44.15 3.45 40.4 0.45 35.3 0.45 23.9078125 1.3322265625 13.2 5.3 10.9830078125 9.7263671875 10.4 14.65 25.9478515625 5.9876953125 44.25 3.65
M 46.1 17.8
Q 46.1 17.65 46 17.55 41.75 11.7 33.35 13.45 21.45 14.3 10.3 18.9 10.2765625 18.9095703125 10.25 18.9 10.3 19.95 10.7 23.2 11.05 26.35 11.2 27.4 11.2666015625 27.6681640625 11.3 27.9 26.9962890625 19.28671875 46.1 17.8
M 25.65 90.45
Q 27.6515625 90.771875 29.5 90.9 29.4759765625 90.849609375 29.45 90.8 25.5458984375 82.603125 24.65 73.7 17.853125 72.823046875 10.45 73.25 8.9033203125 87.7568359375 25.65 90.45 Z"/>

<path fill="#54433B" stroke="none" d="
M 46 17.55
Q 46.1 17.65 46.1 17.8 26.9962890625 19.28671875 11.3 27.9 11.2666015625 27.6681640625 11.2 27.4 11.40859375 28.8322265625 11.55 30.25 11.6392578125 30.223828125 11.7 30.2 22.5 25.95 34 25.65 43.85 24.55 48.75 31.35 48.8 31.45 48.75 31.6 28.496875 30.5626953125 12.45 38.8 12.746484375 42.1814453125 12.95 45.55 20.05625 44.236328125 37.5 41.8 50.5169921875 41.837109375 56.85 43.6 61.5232421875 24.6677734375 64.1 5.5 42.9904296875 -12.18203125 15.65 1.2 14.248046875 3.19296875 13.2 5.3 23.9078125 1.3322265625 35.3 0.45 40.4 0.45 44.15 3.45 44.25 3.5 44.25 3.65 25.9478515625 5.9876953125 10.4 14.65 10.1876953125 16.742578125 10.25 18.9 10.2765625 18.9095703125 10.3 18.9 21.45 14.3 33.35 13.45 41.75 11.7 46 17.55 Z"/>

<path fill="#000000" stroke="none" d="
M 64.45 3.1
Q 64.29453125 4.3017578125 64.1 5.5 61.5232421875 24.6677734375 56.85 43.6 50.5169921875 41.837109375 37.5 41.8 20.05625 44.236328125 12.95 45.55 12.746484375 42.1814453125 12.45 38.8 12.08515625 34.53515625 11.55 30.25 11.40859375 28.8322265625 11.2 27.4 11.05 26.35 10.7 23.2 10.3 19.95 10.25 18.9 10.1876953125 16.742578125 10.4 14.65 10.9830078125 9.7263671875 13.2 5.3 14.248046875 3.19296875 15.65 1.2 15.95 0.8 15.7 0.8 15.4 0.75 14.9 1.1 -0.1759765625 13.2396484375 2.6 33.8 4.95 51.15 5.05 68.65 5.0578125 70.1189453125 5.2 71.5 5.2228515625 71.5375 5.2 71.55 4.8765625 77.73984375 4.95 81.85 5.3642578125 95.5396484375 20.6 97.9 35.8841796875 100.264453125 47.55 92.7 59.27265625 85.1462890625 59.75 81.8 60.85 73.45 62.55 51.8 64.8771484375 22.3857421875 64.5 5.5 64.49140625 4.2828125 64.45 3.1
M 47.25 45.7
L 47.3 45.7
Q 50.8798828125 46.2138671875 54.45 46.95 55.250390625 55.5166015625 54.3 61 50.9287109375 58.308203125 47 56.85 46.98828125 56.86171875 46.95 56.85 44.10234375 55.8486328125 36.7 55.75 31.3 55.65 29 55.85 19.4212890625 56.7017578125 11.55 61.2 11.775 55.4001953125 11.5 49.35 11.9 49.2 12.3 49.1 24.2 45.5 36.8 44.8 40.2251953125 44.88359375 43.65 45.25
L 47.25 45.7
M 18 72.25
Q 10.8 72.5 10.55 72.6 11.248828125 67.411328125 11.5 62.05 27 58.55 27 58.5 37.6765625 57.3763671875 47.95 59.85 51.091015625 60.633984375 54.15 61.7 53.6 64.95 50.7 77.85 49.6859375 79.8552734375 48.5 81.7 48.2740234375 81.53046875 48 81.35
L 42.3 77.6
Q 34.3720703125 73.17421875 25.1 72 21.55 72.1 18 72.25
M 29.5 90.9
Q 27.6515625 90.771875 25.65 90.45 8.9033203125 87.7568359375 10.45 73.25 17.853125 72.823046875 24.65 73.7 33.61484375 74.9294921875 41.6 78.45 45.2107421875 80.072265625 48.6 82.15 42.7224609375 91.723046875 29.5 90.9
M 37.7 79.45
Q 33.6 80.25 33.8 84.55 33.8533203125 85.6943359375 34.35 86.2 34.8314453125 86.6466796875 35.65 86.6 44.956640625 86.0853515625 39.8 81.2 38.9517578125 80.381640625 37.7 79.45
M 45.9 66.6
Q 45.65 66.4 44 67.4 42.15 68.45 41.85 69.8 41.324609375 72.331640625 43.4 72.45 49.75 71.75 49.35 70.25 48.9755859375 68.876171875 45.9 66.6
M 47.05 49.45
L 47 49.45
Q 46.95703125 49.4908203125 46.9 49.5 45.06171875 50.300390625 44.75 52.6 44.6 53.6 46.15 54.35 46.7791015625 54.6162109375 47.25 54.7
L 48.1 54.8 48.15 54.8 50.7 51.25
Q 50.6486328125 51.196484375 50.6 51.15
L 47.05 49.45 Z"/>

<path fill="#FF9900" stroke="none" d="
M 29.45 90.8
Q 29.4759765625 90.849609375 29.5 90.9 42.7224609375 91.723046875 48.6 82.15 45.2107421875 80.072265625 41.6 78.45 33.61484375 74.9294921875 24.65 73.7 25.5458984375 82.603125 29.45 90.8
M 33.8 84.55
Q 33.6 80.25 37.7 79.45 38.9517578125 80.381640625 39.8 81.2 44.956640625 86.0853515625 35.65 86.6 34.8314453125 86.6466796875 34.35 86.2 33.8533203125 85.6943359375 33.8 84.55 Z"/>

<path fill="#FFFFFF" stroke="none" d="
M 49.35 70.25
Q 49.75 71.75 43.4 72.45 42.27890625 74.7068359375 40.95 76.85 41.66015625 77.230859375 42.3 77.6
L 48 81.35
Q 48.2740234375 81.53046875 48.5 81.7 49.6859375 79.8552734375 50.7 77.85 53.6 64.95 54.15 61.7 51.091015625 60.633984375 47.95 59.85 47.1314453125 63.3158203125 45.9 66.6 48.9755859375 68.876171875 49.35 70.25
M 47 49.45
L 47.05 49.45 50.6 51.15
Q 50.6486328125 51.196484375 50.7 51.25
L 48.15 54.8 48.1 54.8 47.25 54.7
Q 47.06875 54.6939453125 46.85 54.6 46.883203125 55.721484375 46.95 56.85 46.98828125 56.86171875 47 56.85 50.9287109375 58.308203125 54.3 61 55.250390625 55.5166015625 54.45 46.95 50.8798828125 46.2138671875 47.3 45.7 47.041796875 47.55703125 46.9 49.5 46.95703125 49.4908203125 47 49.45 Z"/>

<path fill="#333333" stroke="none" d="
M 25.75 66.95
Q 26.35 61.1 27 58.5 27 58.55 11.5 62.05 11.248828125 67.411328125 10.55 72.6 10.8 72.5 18 72.25 21.55 72.1 25.1 72 25.2 72 25.75 66.95
M 12.3 49.1
Q 11.9 49.2 11.5 49.35 11.775 55.4001953125 11.55 61.2 19.4212890625 56.7017578125 29 55.85 29.390625 52.0787109375 30.05 48.3 36.92578125 46.9716796875 43.65 45.25 40.2251953125 44.88359375 36.8 44.8 24.2 45.5 12.3 49.1 Z"/>

<path fill="url(#Gradient_8)" stroke="none" d="
M 27 58.5
Q 26.35 61.1 25.75 66.95 25.2 72 25.1 72 34.3720703125 73.17421875 42.3 77.6 41.66015625 77.230859375 40.95 76.85 42.27890625 74.7068359375 43.4 72.45 41.324609375 72.331640625 41.85 69.8 42.15 68.45 44 67.4 45.65 66.4 45.9 66.6 47.1314453125 63.3158203125 47.95 59.85 37.6765625 57.3763671875 27 58.5 Z"/>

<path fill="url(#Gradient_9)" stroke="none" d="
M 47.3 45.7
L 47.25 45.7 43.65 45.25
Q 36.92578125 46.9716796875 30.05 48.3 29.390625 52.0787109375 29 55.85 31.3 55.65 36.7 55.75 44.10234375 55.8486328125 46.95 56.85 46.883203125 55.721484375 46.85 54.6 47.06875 54.6939453125 47.25 54.7 46.7791015625 54.6162109375 46.15 54.35 44.6 53.6 44.75 52.6 45.06171875 50.300390625 46.9 49.5 47.041796875 47.55703125 47.3 45.7 Z"/>
</g>

<g id="fdudebody_0_Layer1_0_FILL">
<path fill="#000000" stroke="none" d="
M 121.25 29.25
Q 100.3 12.5 92.8 9.95 86.35 7.7 80.05 7.4 73.2 7.1 67.3 9.1 18.4 46.25 9.6 57.35 7.311328125 62.9015625 8.35 68.05 8.7 70.05 20.2 90.35 26 100.65 32.35 111.9
L 35.25 127.75
Q 38.5 143.85 40.3 145.4 41.697265625 146.5537109375 79.9 146.35 118.1580078125 146.1888671875 118.25 143.6 118.391796875 141.0111328125 135.55 109.35 152.7025390625 77.6962890625 152.55 75.15 152.85 73.6 151.65 67.05 150.4 60.1 149.05 57.4 144.05 47.5 121.25 29.25
M 90.35 20.3
Q 99.4 25.45 109.35 32.1 136.35 50.05 142.3 59.9 146.1015625 66.0220703125 146.2 70.8
L 146.2 70.95
Q 146.2173828125 71.4888671875 145.95 72.5 145.502734375 74.4466796875 144.1 78.1 143.6052734375 79.4068359375 143.15 80.5 141.8708984375 83.73203125 141.05 85.15
L 109.3 138.75
Q 106.75 138.3 77.4 137.7 48.9 137.1 48.5 136.8 47.75 136.25 45.85 129.7 43.5 121.55 43 120.25 42.95 120.05 42.85 119.85 41.3 115.7 33.25 101.65 25.25 87.65 17 74.7 15.8 72.85 15.8 66.8 15.8 60.65 17.05 58.8 22.3 51.25 30.75 43.55 36.15 38.6 46.7 30.45 56.35 22.95 62.5 19.75 71.85 14.9 80.2 15.35 80.3 15.35 80.4 15.35 81.9 15.45 90.35 20.3 Z"/>

<path fill="#54433B" stroke="none" d="
M 42.85 119.85
Q 42.95 120.05 43 120.25
L 43 119.8
Q 42.95 119.8 42.85 119.85
M 109.35 32.1
Q 99.4 25.45 90.35 20.3 81.9 15.45 80.4 15.35 78 17 54.75 37.25 30.4 58.4 28.1 61.45 27.25 62.6 26.95 66.25 26.65 69.85 27.25 70.85
L 35.25 80.9
Q 43.749609375 91.1529296875 46.65 97.15 49.5564453125 103.2013671875 60.5 106.55 71.4408203125 109.9423828125 84.75 106.35 98.0625 102.759765625 97.65 98.05 98.59765625 105.2572265625 112.75 105.4 126.90234375 105.5998046875 133.8 95.35 140.743359375 85.1521484375 143.15 80.5 143.6052734375 79.4068359375 144.1 78.1 145.502734375 74.4466796875 145.95 72.5 146.1365234375 71.46328125 146.15 70.45 146.191796875 70.6431640625 146.2 70.8 146.1015625 66.0220703125 142.3 59.9 136.35 50.05 109.35 32.1 Z"/>

<path fill="#2E2724" stroke="none" d="
M 143.15 80.5
Q 140.743359375 85.1521484375 133.8 95.35 126.90234375 105.5998046875 112.75 105.4 98.59765625 105.2572265625 97.65 98.05 98.0625 102.759765625 84.75 106.35 71.4408203125 109.9423828125 60.5 106.55 49.5564453125 103.2013671875 46.65 97.15 43.749609375 91.1529296875 35.25 80.9
L 27.25 70.85
Q 26.65 69.85 26.95 66.25 27.25 62.6 28.1 61.45 30.4 58.4 54.75 37.25 78 17 80.4 15.35 80.3 15.35 80.2 15.35 71.85 14.9 62.5 19.75 56.35 22.95 46.7 30.45 36.15 38.6 30.75 43.55 22.3 51.25 17.05 58.8 15.8 60.65 15.8 66.8 15.8 72.85 17 74.7 25.25 87.65 33.25 101.65 41.3 115.7 42.85 119.85 42.95 119.8 43 119.8
L 43 120.25
Q 43.5 121.55 45.85 129.7 47.75 136.25 48.5 136.8 48.9 137.1 77.4 137.7 106.75 138.3 109.3 138.75
L 141.05 85.15
Q 141.8708984375 83.73203125 143.15 80.5
M 146.2 70.8
Q 146.191796875 70.6431640625 146.15 70.45 146.1365234375 71.46328125 145.95 72.5 146.2173828125 71.4888671875 146.2 70.95
L 146.2 70.8 Z"/>
</g>

<g id="fdudebody_0_Layer0_0_FILL">
<path fill="#000000" stroke="none" d="
M 47.7 144.95
Q 48 144.75 75.9 145.65 104.1 146.55 104.7 146.45 104.8 146.95 105.15 150.9 105.55 154.75 105.8 155.4 106.2 156.4 106.95 156.95 107.8 157.6 108.65 157.3 108.95 157.2 109.9 155.2 110.85 153.25 110.95 152.55 111.45 150.5 112 146.5 112.6 142.25 112.4 141.45 112.35 141 81.15 139.2 48.55 137.4 45.7 137.2 44.6 137.15 42.25 138.5 39.85 139.85 39.65 140.65 39.5 141.4 39 147.6 38.4 154.55 38.65 155.6 39 156.85 39.8 157.7 40.7 158.65 41.8 158.6 43.65 158.5 44.7 155.55 45 154.8 46.1 149.75 47.05 145.45 47.7 144.95 Z"/>
</g>

<g id="fdudehelm_1_Layer0_0_FILL">
<path fill="#000000" stroke="none" d="
M 99.45 79.65
Q 97.4537109375 67.869140625 92.45 58.15 87.4990234375 48.4263671875 76.1 41.6 71.35 38.8 62.4 36.7 54.45 35.15 54.35 35.1 49.6 31.2 38.35 23.8 28.25 17.3 28.25 17.15 10.05 50.65 9.6 52.6 8.15 54.05 4.75 59.85 0.3 67.4 0.3 71.25 -7.9453125 74.56328125 -16.1 78.5 -18.3 79.55 -19.6 81.4 -27.7 93.1 -20.65 107.15 -19.4513671875 109.555078125 -12.25 119 -4.992578125 128.48671875 12.5 134.25 30.03828125 140.01328125 33.9 138.5 37.8126953125 136.9822265625 43.95 126.15 55.9427734375 128.7232421875 66.35 126.55 68.469140625 127.1376953125 74.4 132.05 80.3330078125 136.97734375 86.25 133.6 92.20625 130.2060546875 96.95 127.2 114.6 115.95 100.15 102 101.494921875 91.4330078125 99.45 79.65
M 84 61.35
Q 91.135546875 75.7896484375 92.45 86.45 93.8478515625 97.7552734375 93.2 103.55 91.1720703125 107.6439453125 87.9 110.85 85.0123046875 113.7408203125 81.15 115.95 59.55 128.35 35.35 119.05 15.50390625 111.448828125 7.7 96.75 8.7318359375 85.7580078125 11.55 75 6.7763671875 81.679296875 6.45 90.6 6.4513671875 90.7248046875 6.45 90.8 6.45 91.85 4.55 85.75 2.7 79.6 2.65 75.15 5.1552734375 69.3083984375 9 63.9 13.628125 57.380078125 20.2 51.5 25.438671875 46.8572265625 32.45 44.5 26.9939453125 48.9373046875 25 53.75 30.2072265625 48.375390625 36.05 43.5 43.2638671875 41.84609375 52.1 42.3 60.0201171875 45.779296875 67.4 50.05 83.3 60.75 84 61.35
M 41.45 32.4
Q 48.9 37.9 46.95 37.5 45.6505859375 37.2912109375 44.2 37.25 44.35703125 37.1517578125 44.5 37.05 44.45 37.05 44.4 37.05 44.2064453125 37.14375 44 37.25 43.700390625 37.2412109375 43.35 37.25 41.65 37.2466796875 39.7 37.5 39.668359375 37.5154296875 39.6 37.5 39.1841796875 37.5787109375 38.75 37.65 38.6576171875 37.6611328125 38.55 37.65 36.9177734375 37.9474609375 35.1 38.4 32.729296875 39.00546875 30.65 40
L 24.35 44.85
Q 24.2720703125 44.9388671875 24.2 45 24.1251953125 45.108203125 24.05 45.2 31.1 26.7 31.05 24.75 31.3412109375 24.9970703125 31.85 25.4 34.24453125 27.2533203125 41.45 32.4
M 0.15 81.4
Q 0.25 82.25 0.75 84.85 1.2 87.25 1.35 87.7 4.71328125 100.788671875 12.85 109.7 12.9783203125 109.8404296875 13.1 109.95
L 37.65 124.55 40.9 125.45
Q 38.993359375 127.305078125 37.65 130.15 34.21796875 137.3623046875 26.6 134.8
L 26.55 134.8
Q 2.75 126.7 2.1 126.35 0.75 125.75 -2.35 123.8 -5.2 122 -5.95 121.4 -6.35 121.1 -17.7 105.2 -17.7166015625 105.1421875 -17.75 105.05 -18.5337890625 102.9201171875 -19.1 100.6
L -20.2 94.75
Q -20.15 92.6 -19.65 91.8 -13.8 82.45 -2.15 77.5 -0.7181640625 76.891796875 0.3 76.25 0.15 81.3 0.15 81.4
M 75.8 129.55
Q 69.35 126.6 68.25 126.15 71.5330078125 125.3173828125 74.65 124
L 92.85 110.75
Q 92.9529296875 110.704296875 93 110.6 93.79609375 109.784765625 94.55 108.9 94.75 108.7 96.95 110.65 98.25 111.75 100.85 114.2 99.6427734375 115.5083984375 98.4 116.8 94 121.5 81.7 131.8 81.5291015625 131.865234375 81.3 131.85 80.9 131.95 75.8 129.55
M 55.9 42.6
Q 75.0625 44.751953125 82.7 58.7 71.1869140625 47.8662109375 55.9 42.6 Z"/>

<path fill="#666666" stroke="none" d="
M 82.7 58.7
Q 75.0625 44.751953125 55.9 42.6 71.1869140625 47.8662109375 82.7 58.7
M 74.65 124
Q 74.35 124.15 76.9 127.05 79.05 129.6 81.3 131.85 81.5291015625 131.865234375 81.7 131.8 94 121.5 98.4 116.8 95.8544921875 113.4994140625 93 110.6 92.9529296875 110.704296875 92.85 110.75
L 74.65 124
M 13.1 109.95
Q 12.9783203125 109.8404296875 12.85 109.7 4.71328125 100.788671875 1.35 87.7 -9.5341796875 94.896875 -17.75 105.05 -17.7166015625 105.1421875 -17.7 105.2 -6.35 121.1 -5.95 121.4 -5.2 122 -2.35 123.8 0.75 125.75 2.1 126.35 2.75 126.7 26.55 134.8
L 26.6 134.8
Q 26.7158203125 134.8533203125 26.8 134.85 28.75 132.9 33.55 128.45 37.7 124.6 37.65 124.55
L 13.1 109.95
M 39.6 37.5
Q 39.668359375 37.5154296875 39.7 37.5 41.65 37.2466796875 43.35 37.25 41.1470703125 34.5470703125 37.8 32.35 37.7048828125 35.2173828125 38.55 37.65 38.6576171875 37.6611328125 38.75 37.65 39.1841796875 37.5787109375 39.6 37.5
M 24.75 54.3
Q 24.5189453125 54.4107421875 24.25 54.5 24.6373046875 54.1203125 25 53.75 26.9939453125 48.9373046875 32.45 44.5 25.438671875 46.8572265625 20.2 51.5 13.628125 57.380078125 9 63.9 7.5740234375 69.9759765625 7.1 76.35 6.5529296875 83.5423828125 6.45 90.6 6.7763671875 81.679296875 11.55 75 11.648046875 74.8884765625 11.75 74.75 11.7298828125 74.5796875 11.7 74.4 10.2693359375 60.920703125 24.7 54.5 24.730859375 54.4134765625 24.75 54.3
M 82.75 72.8
Q 86.3498046875 80.4578125 88.55 89 91.4513671875 100.2591796875 87.9 110.85 91.1720703125 107.6439453125 93.2 103.55 93.8478515625 97.7552734375 92.45 86.45 91.135546875 75.7896484375 84 61.35 83.3 60.75 67.4 50.05 67.25 50 69.55 52.8 72.5 56.35 73.6 57.75 85.5431640625 61.3044921875 82.75 72.8 Z"/>

<path fill="#999999" stroke="none" d="
M 93 110.6
Q 95.8544921875 113.4994140625 98.4 116.8 99.6427734375 115.5083984375 100.85 114.2 98.25 111.75 96.95 110.65 94.75 108.7 94.55 108.9 93.79609375 109.784765625 93 110.6
M 76.9 127.05
Q 74.35 124.15 74.65 124 71.5330078125 125.3173828125 68.25 126.15 69.35 126.6 75.8 129.55 80.9 131.95 81.3 131.85 79.05 129.6 76.9 127.05
M 26.6 134.8
Q 34.21796875 137.3623046875 37.65 130.15 38.993359375 127.305078125 40.9 125.45
L 37.65 124.55
Q 37.7 124.6 33.55 128.45 28.75 132.9 26.8 134.85 26.7158203125 134.8533203125 26.6 134.8
M 0.75 84.85
Q 0.25 82.25 0.15 81.4 -19.05 100.9 -19.1 100.6 -18.5337890625 102.9201171875 -17.75 105.05 -9.5341796875 94.896875 1.35 87.7 1.2 87.25 0.75 84.85
M 46.95 37.5
Q 48.9 37.9 41.45 32.4 34.24453125 27.2533203125 31.85 25.4 32.034765625 31.628125 31.45 38.15 31.3810546875 38.9310546875 31.3 39.7 30.97890625 39.8431640625 30.65 40 32.729296875 39.00546875 35.1 38.4 36.9177734375 37.9474609375 38.55 37.65 37.7048828125 35.2173828125 37.8 32.35 41.1470703125 34.5470703125 43.35 37.25 43.700390625 37.2412109375 44 37.25 44.2064453125 37.14375 44.4 37.05 44.45 37.05 44.5 37.05 44.35703125 37.1517578125 44.2 37.25 45.6505859375 37.2912109375 46.95 37.5
M 2.65 75.15
Q 2.7 79.6 4.55 85.75 6.45 91.85 6.45 90.8 6.4513671875 90.7248046875 6.45 90.6 6.5529296875 83.5423828125 7.1 76.35 7.5740234375 69.9759765625 9 63.9 5.1552734375 69.3083984375 2.65 75.15 Z"/>

<path fill="#FFFFFF" stroke="none" d="
M 0.15 81.4
Q 0.15 81.3 0.3 76.25 -0.7181640625 76.891796875 -2.15 77.5 -13.8 82.45 -19.65 91.8 -20.15 92.6 -20.2 94.75
L -19.1 100.6
Q -19.05 100.9 0.15 81.4
M 31.85 25.4
Q 31.3412109375 24.9970703125 31.05 24.75 31.1 26.7 24.05 45.2 24.1251953125 45.108203125 24.2 45 24.2720703125 44.9388671875 24.35 44.85
L 30.65 40
Q 30.97890625 39.8431640625 31.3 39.7 31.3810546875 38.9310546875 31.45 38.15 32.034765625 31.628125 31.85 25.4 Z"/>

<path fill="#FF3300" stroke="none" d="
M 28.6 53.35
Q 26.6716796875 53.6712890625 24.75 54.3 24.730859375 54.4134765625 24.7 54.5 10.2693359375 60.920703125 11.7 74.4 11.7431640625 74.29296875 11.75 74.15 12.1546875 76.25078125 12.9 78.5 18.05 93.9 33.65 88.2 42.65 84.95 44.15 75.9 47.15 57.25 28.6 53.35
M 29.4 58.85
Q 41.5 60.5 38.4 73.4 36.3 82.2 26.25 82 14.4 81.8 17.6 70.3 20.1 61.5 29.4 58.85
M 81.55 76.55
Q 82.325390625 74.5939453125 82.75 72.8 85.5431640625 61.3044921875 73.6 57.75 71.77265625 57.2072265625 69.6 56.85 62.7 61.1 63.9 69.7 65.5 80.8 76.85 79.9 80.35 79.6 81.55 76.55
M 69.25 73.15
Q 66.15 66.4 71.3 62.7 84.6 64.6 75.3 74 71.45 77.85 69.25 73.15 Z"/>

<path fill="#FF9900" stroke="none" d="
M 38.4 73.4
Q 41.5 60.5 29.4 58.85 20.1 61.5 17.6 70.3 14.4 81.8 26.25 82 36.3 82.2 38.4 73.4
M 71.3 62.7
Q 66.15 66.4 69.25 73.15 71.45 77.85 75.3 74 84.6 64.6 71.3 62.7 Z"/>

<path fill="url(#Gradient_10)" stroke="none" d="
M 88.55 89
Q 86.3498046875 80.4578125 82.75 72.8 82.325390625 74.5939453125 81.55 76.55 80.35 79.6 76.85 79.9 65.5 80.8 63.9 69.7 62.7 61.1 69.6 56.85 71.77265625 57.2072265625 73.6 57.75 72.5 56.35 69.55 52.8 67.25 50 67.4 50.05 60.0201171875 45.779296875 52.1 42.3 43.2638671875 41.84609375 36.05 43.5 30.2072265625 48.375390625 25 53.75 24.6373046875 54.1203125 24.25 54.5 24.5189453125 54.4107421875 24.75 54.3 26.6716796875 53.6712890625 28.6 53.35 47.15 57.25 44.15 75.9 42.65 84.95 33.65 88.2 18.05 93.9 12.9 78.5 12.1546875 76.25078125 11.75 74.15 11.7431640625 74.29296875 11.7 74.4 11.7298828125 74.5796875 11.75 74.75 11.648046875 74.8884765625 11.55 75 8.7318359375 85.7580078125 7.7 96.75 15.50390625 111.448828125 35.35 119.05 59.55 128.35 81.15 115.95 85.0123046875 113.7408203125 87.9 110.85 91.4513671875 100.2591796875 88.55 89 Z"/>
</g>

<g id="Symbol_24_2_Layer0_0_FILL">
<path fill="url(#Gradient_11)" stroke="none" d="
M -67.65 473.75
Q -67.542578125 473.9865234375 -65.1 478.9 -65.003515625 472.3251953125 -62.45 467.7 -58.85 461.1 -58.55 460 -58.55 461.05 -54.95 470.85 -51.05 481.45 -49.1 484.1
L -49.1 482.75
Q -50.1 479.05 -49.35 473.6 -48.5 467 -45.25 461.55 -36.4 446.5 -14.3 446.5 -13.35 446.5 -0.5 450.05 3.5830078125 451.16484375 6.8 452.1 -7.76796875 440.6625 -13.35 437.8 -24.9 431.8 -41.15 431.8 -73.2 431.8 -73.2 455.1 -73.2 461.55 -67.65 473.75 Z"/>

<path fill="url(#Gradient_12)" stroke="none" d="
M -47.15 346.25
Q -48.8380859375 345.701953125 -50.65 344.9 -56.8 342.2 -59.9 342.2 -69.1 342.2 -73.2 346.25 -78.6 351.55 -78.6 365.5 -78.6 377.65 -70.15 393.35 -61.8 408.85 -51.8 415.8 -57.35 405.6 -58.2 403.35 -61.05 395.8 -61.05 384.9 -61.2 380.4 -61.15 378 -61.1 373.85 -60.2 370.9 -59.790234375 369.52578125 -59.15 368.25 -59.7 366.39375 -59.7 365.5 -59.7 357.7 -57.2 352.85 -54.0203125 346.585546875 -47.15 346.25 Z"/>

<path fill="url(#Gradient_13)" stroke="none" d="
M 53.95 440.6
Q 50.65 436.75 48.4 433.15
L 56.5 433.15
Q 58.53671875 433.3591796875 62.2 434.75 40.0521484375 422.29140625 26.5 413.1
L 21.6 413.1
Q 9.2 413.6 -12.7 401.85 -19.8 398.05 -28.35 392.7 -36.4 387.5 -38.45 386.25 -28.5 393.3 6.55 414.7 50.8 441.75 60.4 447.85 55.9 442.9 53.95 440.6 Z"/>

<path fill="url(#Gradient_14)" stroke="none" d="
M 5.55 372.9
Q 5.55 372.05 4.9 371.7
L 4.2 371.55
Q -9.65 354.55 -21.9 339.3 -23.0755859375 337.8431640625 -24.2 336.4 -47.921875 322.0689453125 -61.45 296 -67.5 284.25 -69.6 273.15 -71.65 261.9 -69.15 253.8 -69.8 255.65 -74.45 265.35 -77.25 271.15 -77.25 275.9 -77.25 284.4 -71.9 297.25 -66.1 311.2 -56.1 324.9 -30.85 359.35 5.55 372.9 Z"/>

<path fill="url(#Gradient_15)" stroke="none" d="
M 83.15 287.35
L 83.15 286
Q 78.15 281.95 79.1 277.9 79.5 277.9 80.7 277.25 81.9 276.55 83.85 276.55 89.55 276.55 108.8 285.1 128.15 293.7 153.1 307.4 214.2 340.9 253.25 372.9 237.15 355.7 221.55 339.9 191 308.95 175.65 298 163.0888671875 289.0775390625 150.45 281.55 141.9984375 272.237890625 127.15 260.85 107.2 245.6 83.35 232.7 23.45 200.3 -25.8 200.3 -28.45 200.3 -33.05 201.15 -37.85 202.05 -39.8 203 -33.9 205.9 -15.05 213.35 3.45 220.65 8.25 223.05
L 6.9 223.05
Q 2.2 222.1 -5.25 221.2 -12.3 220.35 -15 220.35 -26.9 220.35 -37.15 227.15 -50.45 235.9 -50.45 251.75 -50.45 288 -17.75 323.9 -7.15 335.55 5.5 345.55 11.8515625 350.6103515625 15.25 352.8 13.5259765625 350.74921875 9.3 346.35 2.3 339.1 -1.95 333.55 -17 314.05 -17 293.95 -17 278.9 -11.6 267.35 -4.05 251.1 11.6 251.1 13.55 251.1 14.05 251.8 14.6 252.45 15 252.45 15 256.5 15.15 258.2 15.45 261 16.35 261.9 19.2 260.9 24.25 260.05 29.1 259.2 31.7 259.2 34.4 259.2 39.8 260.05 45.5 260.95 48.4 261.9 47.65 264.45 43.15 269.85 38.6 275.3 37.8 277.9
L 39.15 277.9
Q 45.15 273.85 53.15 273.85 58.55 273.85 67.25 278.5 72.3 281.2 83.15 287.35 Z"/>
</g>
</defs>

<g id="Layer_2">
<g transform="matrix( 0.8203582763671875, 0, 0, 0.8203582763671875, 455.25,327.1) ">
<g transform="matrix( 1, 0, 0, 1, -2.7,-14.25) ">
<g id="Layer_1">
<g transform="matrix( 0.9792022705078125, -0.202880859375, 0.202880859375, 0.9792022705078125, -66.8,48.35) ">
<g transform="matrix( 1, 0, 0, 1, 0,0) ">
<use xlink:href="#Symbol_13_2_Layer1_0_FILL"/>
</g>

<g id="Layer_3">
<g transform="matrix( 1, 0, 0, 1, 0,0) ">
<use xlink:href="#Symbol_13_2_Layer0_0_FILL"/>
</g>
</g>
</g>

<g transform="matrix( -1.27618408203125, 0.264404296875, -0.264404296875, -1.27618408203125, 69.75,72.6) ">
<g transform="matrix( 1, 0, 0, 1, 0,0) ">
<use xlink:href="#spark_2_Layer0_0_FILL"/>
</g>
</g>
</g>

<g id="Symbol_84">
<g transform="matrix( 0.6385040283203125, 0.7695770263671875, 0.7695770263671875, -0.6385040283203125, 92.65,95.8) ">
<g transform="matrix( 1, 0, 0, 1, 0,0) ">
<use xlink:href="#fdudearm_2_Layer1_0_FILL"/>
</g>
</g>
</g>

<g id="Symbol_85">
<g transform="matrix( 1, 0, 0.1150360107421875, 1, -14.65,54.2) ">
<g transform="matrix( 1, 0, 0, 1, 0,0) ">
<use xlink:href="#fdudebody_0_Layer1_0_FILL"/>
</g>

<g transform="matrix( 1, 0, 0, 1, 0,0) ">
<use xlink:href="#fdudebody_0_Layer0_0_FILL"/>
</g>
</g>
</g>

<g transform="matrix( -0.5901031494140625, 0.3126220703125, -0.1888427734375, -0.356475830078125, 49.4,103.35) ">
<g transform="matrix( 1, 0, 0, 1, 0,0) ">
<use xlink:href="#fdudearm_2_Layer1_0_FILL"/>
</g>
</g>

<g id="Symbol_83">
<g transform="matrix( 0.9981536865234375, -0.0606231689453125, 0.0606231689453125, 0.9981536865234375, 27.2,-4) ">
<g id="Layer_4">
<g transform="matrix( 1, 0, 0, 1, 0,0) ">
<use xlink:href="#fdudehelm_1_Layer0_0_FILL"/>
</g>
</g>
</g>
</g>

<g transform="matrix( 0.411102294921875, 0, 0, 0.411102294921875, -21.05,-7.75) ">
<g transform="matrix( 1, 0, 0, 1, 0,0) ">
<use xlink:href="#Symbol_24_2_Layer0_0_FILL"/>
</g>
</g>
</g>
</g>
</g>
</svg>
