
<svg xmlns="http://www.w3.org/2000/svg" version="1.1" xmlns:xlink="http://www.w3.org/1999/xlink" preserveAspectRatio="none" x="0px" y="0px" width="1000px" height="1000px" viewBox="0 0 1000 1000">
<defs>
<radialGradient id="Gradient_1" gradientUnits="userSpaceOnUse" cx="0" cy="0" r="270.75" fx="0" fy="0" gradientTransform="matrix( 1, 0, 0, 0.9764081255771008, 155.55,262.45) " spreadMethod="pad">
<stop  offset="43.529411764705884%" stop-color="#FFFFFF"/>

<stop  offset="72.94117647058823%" stop-color="#FFCC00"/>

<stop  offset="99.2156862745098%" stop-color="#FF5400"/>
</radialGradient>

<radialGradient id="Gradient_2" gradientUnits="userSpaceOnUse" cx="0" cy="0" r="267.75" fx="0" fy="0" gradientTransform="matrix( 1, 0, 0, 1, 44.35,226.5) " spreadMethod="pad">
<stop  offset="21.96078431372549%" stop-color="#FFFFFF"/>

<stop  offset="40.3921568627451%" stop-color="#FFC400"/>

<stop  offset="55.294117647058826%" stop-color="#FF9800"/>

<stop  offset="71.37254901960785%" stop-color="#FF0000"/>

<stop  offset="95.68627450980392%" stop-color="#564942"/>
</radialGradient>

<linearGradient id="Gradient_3" gradientUnits="userSpaceOnUse" x1="236.96249999999998" y1="34.57499999999999" x2="85.93749999999999" y2="173.525" spreadMethod="pad">
<stop  offset="0.7843137254901961%" stop-color="#FF4600"/>

<stop  offset="49.80392156862745%" stop-color="#FFCC00"/>

<stop  offset="100%" stop-color="#FFFFFF"/>
</linearGradient>

<linearGradient id="Gradient_4" gradientUnits="userSpaceOnUse" x1="236.96249999999998" y1="34.57499999999999" x2="85.93749999999999" y2="173.525" spreadMethod="pad">
<stop  offset="0%" stop-color="#FFCC00"/>

<stop  offset="100%" stop-color="#FFFFFF"/>
</linearGradient>

<filter id="Filter_1" x="-20%" y="-20%" width="140%" height="140%" color-interpolation-filters="sRGB">
<feColorMatrix in="SourceGraphic" type="matrix" values="1 0 0 0 0 0 1 0 0 0 0 0 1 0 0 0 0 0 0.37 0" result="result1"/>
</filter>

<filter id="Filter_2" x="-20%" y="-20%" width="140%" height="140%" color-interpolation-filters="sRGB">
<feColorMatrix in="SourceGraphic" type="matrix" values="0.94 0 0 0 0 0 0.94 0 0 0 0 0 0.94 0 0 0 0 0 1 0" result="result1"/>
</filter>

<filter id="Filter_3" x="-20%" y="-20%" width="140%" height="140%" color-interpolation-filters="sRGB">
<feColorMatrix in="SourceGraphic" type="matrix" values="1 0 0 0 0 0 1 0 0 0 0 0 1 0 0 0 0 0 0.89 0" result="result1"/>
</filter>

<filter id="Filter_4" x="-20%" y="-20%" width="140%" height="140%" color-interpolation-filters="sRGB">
<feColorMatrix in="SourceGraphic" type="matrix" values="0.95 0 0 0 0 0 0.95 0 0 0 0 0 0.95 0 0 0 0 0 1 0" result="result1"/>
</filter>

<g id="exploscircle01_0_Layer0_0_FILL">
<path fill="url(#Gradient_1)" stroke="none" d="
M 286.8 48.75
Q 237.55 0 168 0 98.4 0 49.2 48.75 0 97.55 0 166.5 0.00390625 235.4486328125 41.6 252.75 83.1880859375 270.053515625 152.95 270.95 222.76171875 271.8462890625 279.35 253.65 335.9958984375 235.451171875 336 166.5 336 97.55 286.8 48.75 Z"/>
</g>

<g id="explo01_1_Layer1_0_FILL">
<path fill="url(#Gradient_2)" stroke="none" d="
M 233.4 77.1
Q 233.45 55.3 220.35 52.55 207.2 49.8 210.15 31.95 213.05 14 194.4 6.85 175.75 -0.4 158.55 -0.2 141.35 0 137.1 13.85 132.625 19.05 128.15 24.25 121.4 27.85 110 28
L 110 27.95
Q 110.233984375 21.538671875 105.8 17.4
L 103.6 15.6
Q 103.553125 15.56015625 103.5 15.5 103.45390625 15.48515625 103.4 15.45 96.45 11 82.5 11 45.65 11 35.75 34.65 25.8 58.3 17.65 72.95 9.5 87.6 6.25 93.75 3 99.85 3 101.5 3 104.85 3.5 107.95 4.05 111.7 5.3 115.15 6.85 119.35 8.25 123.05 9.8 127.3 10.9 130.2 11.75 132.5 11.65 134.4 5.25 140 2.7 146.3 0 152.9 0 165.5 0 192.3 12 212.3 19.3 224.4 31 234 44.25 244.8 61.3 250.6 68.05 252.85 74.95 254.15
L 82.85 255.4
Q 88.4 256 94 256 111.85 256 126.05 251.9 133.4 249.75 139 247 139.65 247.65 140.2 248.2 143.25 251.25 143.55 251.5 146.7 254 150 254 150.7 254 151.75 253.85 152.9 253.65 154.45 253.3 154.75 253.25 155.4 253.2 156.65 253.5 158.05 253.7 158.5 253.75 159.05 253.8 160.9 254 163 254 163.3 254 163.55 254 165.55 254.2 167.75 254.2 172.85 254.2 178.9 253.95 188.5 251.45 198.45 244.6 208.35 237.75 221.75 231.45 235.1 225.15 252.4 207.05 269.65 188.9 269.25 165.25 268.85 141.6 251.8 139.65 234.7 137.6 230.85 128.35 227 119.1 227 117.5 223.4 109.9 228.4 104.4 233.35 98.85 233.4 77.1 Z"/>

<path fill="#69503E" fill-opacity="0.5686274509803921" stroke="none" d="
M 108.8 -8.35
Q 97 -11.5 63.3 -4.65 29.6 2.2 18.4 28.9 7.15 55.6 -0.8 71.75 -8.75 87.85 -0.85 99.8 1.85 95.25 1.85 96.1 1.85 102.4 3.5 107.95 3 104.85 3 101.5 3 99.85 6.25 93.75 9.5 87.6 17.65 72.95 25.8 58.3 35.75 34.65 45.65 11 82.5 11 96.45 11 103.4 15.45 103.45390625 15.48515625 103.5 15.5 103.553125 15.56015625 103.6 15.6
L 105.8 17.4
Q 110.233984375 21.538671875 110 27.95
L 110 28
Q 121.4 27.85 128.15 24.25 132.625 19.05 137.1 13.85 141.35 0 158.55 -0.2 175.75 -0.4 194.4 6.85 213.05 14 210.15 31.95 207.2 49.8 220.35 52.55 233.45 55.3 233.4 77.1 233.35 98.85 228.4 104.4 223.4 109.9 227 117.5 227 119.1 230.85 128.35 234.7 137.6 251.8 139.65 268.85 141.6 269.25 165.25 269.65 188.9 252.4 207.05 235.1 225.15 221.75 231.45 208.35 237.75 198.45 244.6 188.5 251.45 178.9 253.95 172.85 254.2 167.75 254.2 165.55 254.2 163.55 254 163.3 254 163 254 160.9 254 159.05 253.8 167.2 256.75 178.9 255.95 190.55 255.15 208.65 255.7 226.7 256.25 243.75 240.2 260.8 224.2 269.05 207.5 277.25 190.75 283.35 172.45 289.4 154.15 288.35 142.35 287.3 130.5 264.75 121.95 242.15 113.35 238.3 112.25 248.5 113.25 257.5 92.6 266.45 71.95 253.65 68.75 240.85 65.5 237 43.9 233.15 22.25 222.35 8.2 211.45 -5.85 195.65 -8.85 179.8 -11.85 163 -16.9 146.2 -21.95 135.4 -18.7 125.45 -15.75 115.65 10.25 120.55 -5.2 108.8 -8.35
M 112.8 19.95
L 111.75 19.95
Q 115.4296875 16.1828125 118.35 12.95 115.55625 16.1875 112.8 19.95 Z"/>

<path fill="#624D3C" fill-opacity="0.24705882352941178" stroke="none" d="
M 111.75 19.95
L 112.8 19.95
Q 115.55625 16.1875 118.35 12.95 115.4296875 16.1828125 111.75 19.95 Z"/>
</g>

<g id="explo01_1_Layer0_0_FILL">
<path fill="#FFCC00" stroke="none" d="
M 71.1 176.95
L 69.2 175.9 66.8 175.15 71.1 176.95
M 70.95 195.5
Q 71.45 195.45 71.9 195.25 90.55 188.3 87.9 167.95 68.55 140.9 39.85 158.25 41.25 158.15 42.7 158.05 84.1 156.3 70.95 195.5
M 51.75 186.75
L 52.3 190.25
Q 60.05 194.45 68.75 195.4 58.85 193.95 51.75 186.75
M 60.35 174.1
Q 50.45 175.05 51.65 185.65
L 61.6 174.1
Q 60.95 174.05 60.35 174.1
M 114.15 89.8
L 114.2 90.4
Q 116.75 89.95 119.15 90.1 121.5 90.5 123.45 91.65 122.35 97.35 116.7 100.35 113.5 101.9 112.65 99.9 104 79.5 125.1 75.9 134.85 74.15 137.95 82.5 155.6 130.4 104.55 129.85
L 103.85 130.25
Q 114.7 136.15 127 134.75 153.75 131.6 154.55 106.1 155.8 67.9 118.7 64.55 97.25 62.55 99 82.1 102.6 121.7 132.3 99.05 131.45 96.05 129.45 93.3 123.5 85.1 114.15 89.8
M 186.55 147.55
Q 185.9 147.3 185.25 147.25 175.3 144.95 175.55 155.65
L 175.95 153.9
Q 178.05 145.35 186.55 147.55
M 197.2 50.6
Q 196.9 47.8 195.15 45.6 159.95 1.85 122.35 43.9 121.2 42.95 120 42.05 85.9 15.3 51.05 41.9 0.95 80.1 40.2 126.2 19.2 134.8 12.65 156.9 3 189.45 27.05 213.85 79 266.55 135.35 222.8 144.1 234.8 158.65 238.6 192 247.4 215.15 220.4 261.8 166.05 213.3 112.85 236.65 75.7 199.75 53.35 219.6 78.9 205.8 108.2 183.7 104.6 165.35 117.35 140.45 134.8 157.25 157.85 181.3 190.85 194.5 155.8
L 190.4 151.1
Q 191.4 158.1 187.6 163.85 182.3 171.85 175.95 166.75 150.7 146.55 175.8 130.95 202.05 114.8 219.1 139.05 243.35 173.5 216.05 205.8 177.9 250.95 135.95 209.55
L 134.8 209.7
Q 127.45 218.6 117 223.2 80.15 239.55 45.3 218.55 9.4 196.95 27.05 161 49.55 115.2 90.85 145.75 81.35 117.95 52.1 122.6 22.55 103.7 41 73.6 73.25 20.85 125.15 54.7 158.5 13.4 197.2 50.6 Z"/>
</g>

<g id="explosline01_0_Layer0_0_FILL">
<path fill="url(#Gradient_3)" stroke="none" d="
M 5 222.15
L 89.15 175.05 271.8 0 5 222.15 Z"/>
</g>

<g id="explosline01_1_Layer0_0_FILL">
<path fill="url(#Gradient_4)" stroke="none" d="
M 5 222.15
L 89.15 175.05 271.8 0 5 222.15 Z"/>
</g>

<g id="Mask_Explosion01_2_2_MASK_0_FILL">
<path fill="#FFFFFF" stroke="none" d="
M 314.15 -287.35
Q 286.5 -290.95 231.1 -297.25
L 117.95 -310.1
Q 68.85 -315.7 43.9 -317.55 16.93359375 -319.5439453125 -6.5 -319.65 -4.9169921875 -320.452734375 -4 -321.7 -8.8 -324.35 -15.9 -323.95 -19.15 -323.75 -28.55 -322 -49.05 -318.1 -77.5 -319.8 -93.95 -320.75 -126.85 -324.05 -144.05 -325.4 -175.3 -326.35 -223.1 -327.9 -247 -328.55 -286.85 -329.6 -318.75 -329.9 -330.9 -330 -337.45 -329.8 -347.85 -329.5 -356.1 -328.4 -363.95 -327.35 -384.25 -322.85 -391.1923828125 -321.30078125 -397.05 -320.25 -401.9744140625 -320.320703125 -407.2 -320.1
L -422.45 -319.95 -411.7 -319.85
Q -418.6974609375 -319.3193359375 -426.2 -318.25 -429.0724609375 -317.83828125 -432.4 -317.3 -432.7412109375 -317.2603515625 -433.1 -317.25 -441.8771484375 -316.54921875 -448.35 -314.2 -456.7806640625 -312.403515625 -467 -310 -493.45 -303.7 -507.6 -298.85 -529.65 -291.25 -545.05 -280.55 -565.65 -266.15 -580.3 -242.6 -593.7 -221 -600.6 -194.25 -606.6 -171.2 -608.3 -142.6 -609.55 -121.5 -608.6 -90.15 -607.55 -54.5 -604.65 -28.75 -598.3 28.2 -579.55 78.95 -559.65 132.95 -527.2 175.75 -520.25 184.9 -514.35 191.3 -506.95 199.25 -499.55 204.85 -475.7 222.9 -437.35 228 -423.2 229.85 -403.9 230.25 -381.447265625 230.359765625 -340.55 232.4 -299.603125 234.4322265625 -273.45 249.15 -247.246875 263.92109375 -191.55 268.1 -135.8087890625 272.28046875 -97.2 270.55 -58.5794921875 268.8712890625 -42.9 271 -27.1794921875 273.1265625 -1.85 265.8 81.503125 277.8271484375 176.3 248.8 192.857421875 251.6125 211.3 250.75 229.7419921875 249.936328125 244.7 244.6 259.71015625 239.309765625 268.85 237.7 278.0390625 236.086328125 289.25 234.1 300.515234375 232.118359375 316.7 221.2 332.8771484375 210.2818359375 345 208.5 357.13515625 206.7578125 377.3 205.8 397.455078125 204.8984375 402.5 204.35 410.3 203.55 420.15 201.95 425.45 201.05 437.65 198.8 454.15 195.75 462.65 193.2 476.2 189.1 485.5 182.6 495.35 175.7 503.4 164.2 509.95 154.75 515.8 141.3 523.5 123.7 529.1 102.5 533.85 84.65 537.55 62.3 550.65 -16.3 540.65 -80.9 534.95 -117.65 521.7 -150.25 507.6 -184.85 485.95 -212.35 472.05 -230.05 457.15 -241.65 438.8 -255.9 412.15 -266 390.9 -274 363.85 -279.45 344.8 -283.3 314.15 -287.35 Z"/>
</g>

<g id="explo01_0_Layer1_0_FILL">
<path fill="url(#Gradient_2)" stroke="none" d="
M 233.4 77.05
Q 233.431640625 55.2841796875 220.3 52.55 207.2248046875 49.82265625 210.15 31.9 213.06796875 14.0240234375 194.4 6.8 175.735546875 -0.383984375 158.55 -0.2 141.3611328125 -0.0046875 137.05 13.85 132.7775390625 27.70546875 110 28
L 109 28
Q 110.3 19.95 103.4 15.45 96.45 11 82.5 11 45.650390625 11.0025390625 35.7 34.65 25.8001953125 58.2951171875 17.65 72.95 9.498046875 87.6048828125 6.25 93.7 3.001171875 99.8404296875 3 101.5 3 104.8302734375 3.45 107.9 4.03515625 111.7126953125 5.3 115.15 6.85390625 119.337890625 8.1 122.65 8.1625 122.8568359375 8.2 123 9.809375 127.3142578125 10.85 130.2 11.7298828125 132.4927734375 12.25 133.9 11.951953125 134.1505859375 11.65 134.4 5.235546875 139.98515625 2.7 146.3 0 152.9 0 165.5 0 192.3244140625 12 212.3 19.2935546875 224.4083984375 31 234 44.25 244.8 61.3 250.6 68.069921875 252.870703125 74.9 254.15
L 82.85 255.4
Q 88.4064453125 256 94 256 111.85 256 126.05 251.9 133.4 249.75 139 247 139.637890625 247.637890625 140.15 248.15 143.253125 251.2455078125 143.55 251.5 146.7 254 150 254 150.719921875 254 151.7 253.85 152.8923828125 253.6740234375 154.4 253.3 154.7365234375 253.2294921875 155.05 253.15 155.2 253.15 155.4 253.2 156.6515625 253.498828125 158 253.65 158.523828125 253.7451171875 159.05 253.8 160.9119140625 254 163 254 163.276171875 254 163.55 254 165.5380859375 254.2 167.75 254.2 172.8693359375 254.2005859375 178.85 253.95 188.509375 251.453515625 198.4 244.6 208.3484375 237.751171875 221.7 231.45 235.0994140625 225.1482421875 252.35 207 269.64765625 188.88984375 269.25 165.25 268.84765625 141.6212890625 251.75 139.6 234.7115234375 137.619140625 230.85 128.35 226.9953125 119.0951171875 227 117.5 223.4244140625 109.875 228.4 104.35 233.36796875 98.8671875 233.4 77.05 Z"/>

<path fill="#69503E" fill-opacity="0.5686274509803921" stroke="none" d="
M 191.35 -1.95
Q 179.5373046875 -9.75390625 165.8 -13.95 152.055859375 -18.1048828125 138.45 -6.3 124.85 5.5669921875 119.1 12.05 115.9681640625 15.6427734375 112.8 19.95
L 111.75 19.95
Q 112.10625 17.7462890625 111.85 15.8 107.918359375 8.1939453125 105.95 6.9 98.7591796875 2.3015625 77.6 -0.45 56.4865234375 -3.1458984375 44.15 16.7 31.8078125 36.53984375 17.6 51.3 3.403125 66.0677734375 -0.85 99.8 1.85 95.2705078125 1.85 96.1 1.85 102.417578125 3.45 107.9 3 104.8302734375 3 101.5 3.001171875 99.8404296875 6.25 93.7 9.498046875 87.6048828125 17.65 72.95 25.8001953125 58.2951171875 35.7 34.65 45.650390625 11.0025390625 82.5 11 96.45 11 103.4 15.45 110.3 19.95 109 28
L 110 28
Q 132.7775390625 27.70546875 137.05 13.85 141.3611328125 -0.0046875 158.55 -0.2 175.735546875 -0.383984375 194.4 6.8 213.06796875 14.0240234375 210.15 31.9 207.2248046875 49.82265625 220.3 52.55 233.431640625 55.2841796875 233.4 77.05 233.36796875 98.8671875 228.4 104.35 223.4244140625 109.875 227 117.5 226.9953125 119.0951171875 230.85 128.35 234.7115234375 137.619140625 251.75 139.6 268.84765625 141.6212890625 269.25 165.25 269.64765625 188.88984375 252.35 207 235.0994140625 225.1482421875 221.7 231.45 208.3484375 237.751171875 198.4 244.6 188.509375 251.453515625 178.85 253.95 189.85859375 253.459765625 203.8 252.1 225.34453125 249.99296875 241 235.4 256.65234375 220.8123046875 268.05 203.75 279.4556640625 186.6841796875 275.6 167.55 271.7298828125 148.4228515625 264.65 134.45 257.6248046875 120.480078125 246.65 116.05 235.725390625 111.669140625 231.2 115.15 235.10390625 109.79375 239.2 99.75 243.2861328125 89.7166015625 239.3 75.65 235.3203125 61.625 229.05 44.5 222.77734375 27.4390625 212.95 16.65 203.1716796875 5.853515625 191.35 -1.95 Z"/>

<path fill="#624D3C" fill-opacity="0.24705882352941178" stroke="none" d="
M 108.75 -8.35
Q 96.9837890625 -11.4822265625 63.3 -4.65 29.609765625 2.1796875 18.35 28.9 7.144140625 55.613671875 -0.8 71.7 -8.7412109375 87.8455078125 -0.85 99.8 3.403125 66.0677734375 17.6 51.3 31.8078125 36.53984375 44.15 16.7 56.4865234375 -3.1458984375 77.6 -0.45 98.7591796875 2.3015625 105.95 6.9 107.918359375 8.1939453125 111.85 15.8 112.10625 17.7462890625 111.75 19.95
L 112.8 19.95
Q 115.9681640625 15.6427734375 119.1 12.05 124.85 5.5669921875 138.45 -6.3 152.055859375 -18.1048828125 165.8 -13.95 179.5373046875 -9.75390625 191.35 -1.95 203.1716796875 5.853515625 212.95 16.65 222.77734375 27.4390625 229.05 44.5 235.3203125 61.625 239.3 75.65 243.2861328125 89.7166015625 239.2 99.75 235.10390625 109.79375 231.2 115.15 235.725390625 111.669140625 246.65 116.05 257.6248046875 120.480078125 264.65 134.45 271.7298828125 148.4228515625 275.6 167.55 279.4556640625 186.6841796875 268.05 203.75 256.65234375 220.8123046875 241 235.4 225.34453125 249.99296875 203.8 252.1 189.85859375 253.459765625 178.85 253.95 172.8693359375 254.2005859375 167.75 254.2 165.5380859375 254.2 163.55 254 163.276171875 254 163 254 160.9119140625 254 159.05 253.8 167.1939453125 256.7251953125 178.85 255.95 190.541796875 255.171875 208.6 255.7 226.7060546875 256.2265625 243.75 240.2 260.792578125 224.18046875 269 207.45 277.2611328125 190.761328125 283.3 172.45 289.4029296875 154.1533203125 288.35 142.3 287.2896484375 130.493359375 264.7 121.9 242.1603515625 113.3662109375 238.3 112.25 248.4900390625 113.2560546875 257.45 92.6 266.452734375 71.9498046875 253.65 68.7 240.8365234375 65.49921875 237 43.85 233.1736328125 22.24609375 222.3 8.2 211.4734375 -5.8482421875 195.6 -8.85 179.77578125 -11.8494140625 162.95 -16.9 146.1755859375 -21.9388671875 135.35 -18.7 125.4439453125 -15.7294921875 115.6 10.25 120.5494140625 -5.198046875 108.75 -8.35 Z"/>
</g>

<g id="explo01_0_Layer0_0_FILL">
<path fill="#FFCC00" stroke="none" d="
M 71.1 176.95
L 69.2 175.9 66.8 175.15 71.1 176.95
M 70.95 195.5
Q 71.45 195.45 71.9 195.25 90.55 188.3 87.9 167.95 68.55 140.9 39.85 158.25 41.25 158.15 42.7 158.05 84.1 156.3 70.95 195.5
M 51.75 186.75
L 52.3 190.25
Q 60.05 194.45 68.75 195.4 58.85 193.95 51.75 186.75
M 60.35 174.1
Q 50.45 175.05 51.65 185.65
L 61.6 174.1
Q 60.95 174.05 60.35 174.1
M 114.15 89.8
L 114.2 90.4
Q 116.75 89.95 119.15 90.1 121.5 90.5 123.45 91.65 122.35 97.35 116.7 100.35 113.5 101.9 112.65 99.9 104 79.5 125.1 75.9 134.85 74.15 137.95 82.5 155.6 130.4 104.55 129.85
L 103.85 130.25
Q 114.7 136.15 127 134.75 153.75 131.6 154.55 106.1 155.8 67.9 118.7 64.55 97.25 62.55 99 82.1 102.6 121.7 132.3 99.05 131.45 96.05 129.45 93.3 123.5 85.1 114.15 89.8
M 186.55 147.55
Q 185.9 147.3 185.25 147.25 175.3 144.95 175.55 155.65
L 175.95 153.9
Q 178.05 145.35 186.55 147.55
M 197.2 50.6
Q 196.9 47.8 195.15 45.6 159.95 1.85 122.35 43.9 121.2 42.95 120 42.05 85.9 15.3 51.05 41.9 0.95 80.1 40.2 126.2 19.2 134.8 12.65 156.9 3 189.45 27.05 213.85 79 266.55 135.35 222.8 144.1 234.8 158.65 238.6 192 247.4 215.15 220.4 261.8 166.05 213.3 112.85 236.65 75.7 199.75 53.35 219.6 78.9 205.8 108.2 183.7 104.6 165.35 117.35 140.45 134.8 157.25 157.85 181.3 190.85 194.5 155.8
L 190.4 151.1
Q 191.4 158.1 187.6 163.85 182.3 171.85 175.95 166.75 150.7 146.55 175.8 130.95 202.05 114.8 219.1 139.05 243.35 173.5 216.05 205.8 177.9 250.95 135.95 209.55
L 134.8 209.7
Q 127.45 218.6 117 223.2 80.15 239.55 45.3 218.55 9.4 196.95 27.05 161 49.55 115.2 90.85 145.75 81.35 117.95 52.1 122.6 22.55 103.7 41 73.6 73.25 20.85 125.15 54.7 158.5 13.4 197.2 50.6 Z"/>
</g>
</defs>

<g id="Layer_2">
<g transform="matrix( 0.8203582763671875, 0, 0, 0.8203582763671875, 455.25,327.1) ">
<g transform="matrix( 1, 0, 0, 1, 56.65,2.1) ">
<g id="Layer_11">
<g transform="matrix( 1.643829345703125, 0, 0, 1.643829345703125, -284.8,-142.85) ">
<g id="Layer_1">
<g transform="matrix( 1, 0, 0, 1, 0,0) ">
<use filter="url(#Filter_1)" xlink:href="#exploscircle01_0_Layer0_0_FILL"/>
</g>
</g>
</g>
</g>

<g id="Layer_7">
<g transform="matrix( 0.9736328125, 0.2197265625, -0.158477783203125, 0.7022552490234375, 78.15,31.5) ">
<g transform="matrix( 0.6903533935546875, -0.2184295654296875, 0.2184295654296875, 0.6903533935546875, -21.85,82.2) ">
<g transform="matrix( 1, 0, 0, 1, 0,0) ">
<use filter="url(#Filter_2)" xlink:href="#explo01_1_Layer1_0_FILL"/>
</g>

<g transform="matrix( 1, 0, 0, 1, 0,0) ">
<use filter="url(#Filter_2)" xlink:href="#explo01_1_Layer0_0_FILL"/>
</g>
</g>
</g>

<g transform="matrix( -0.99749755859375, -0.0349273681640625, -0.0251922607421875, 0.7194671630859375, -49.45,77.9) ">
<g transform="matrix( 0.6903533935546875, -0.2184295654296875, 0.2184295654296875, 0.6903533935546875, -21.85,82.2) ">
<g transform="matrix( 1, 0, 0, 1, 0,0) ">
<use filter="url(#Filter_2)" xlink:href="#explo01_1_Layer1_0_FILL"/>
</g>

<g transform="matrix( 1, 0, 0, 1, 0,0) ">
<use filter="url(#Filter_2)" xlink:href="#explo01_1_Layer0_0_FILL"/>
</g>
</g>
</g>

<g transform="matrix( 1.13885498046875, 0.2570037841796875, -0.18536376953125, 0.8214263916015625, -166.45,29.9) ">
<g transform="matrix( 0.6903533935546875, -0.2184295654296875, 0.2184295654296875, 0.6903533935546875, -21.85,82.2) ">
<g transform="matrix( 1, 0, 0, 1, 0,0) ">
<use filter="url(#Filter_2)" xlink:href="#explo01_1_Layer1_0_FILL"/>
</g>

<g transform="matrix( 1, 0, 0, 1, 0,0) ">
<use filter="url(#Filter_2)" xlink:href="#explo01_1_Layer0_0_FILL"/>
</g>
</g>
</g>
</g>

<g id="Layer_4">
<g transform="matrix( 0.9557647705078125, 0, 0, 1.182525634765625, 38.75,-66.05) ">
<g transform="matrix( 0.6903533935546875, -0.2184295654296875, 0.2184295654296875, 0.6903533935546875, -21.85,82.2) ">
<g transform="matrix( 1, 0, 0, 1, 0,0) ">
<use xlink:href="#explo01_1_Layer1_0_FILL"/>
</g>

<g transform="matrix( 1, 0, 0, 1, 0,0) ">
<use xlink:href="#explo01_1_Layer0_0_FILL"/>
</g>
</g>
</g>
</g>

<g id="Layer_8">
<g transform="matrix( 1.3519287109375, 0, 0, 1.3519287109375, 60.4,-138.5) ">
<g transform="matrix( 1, 0, 0, 1, 0,0) ">
<use xlink:href="#explosline01_0_Layer0_0_FILL"/>
</g>
</g>

<g transform="matrix( -0.905303955078125, -0.1016998291015625, -0.1016998291015625, 0.905303955078125, -20.55,-110.85) ">
<g transform="matrix( 1, 0, 0, 1, 0,0) ">
<use xlink:href="#explosline01_0_Layer0_0_FILL"/>
</g>
</g>

<g transform="matrix( -1.31878662109375, 0.29736328125, 0.29736328125, 1.31878662109375, -116.65,-196.15) ">
<g transform="matrix( 1, 0, 0, 1, 0,0) ">
<use xlink:href="#explosline01_0_Layer0_0_FILL"/>
</g>
</g>

<g transform="matrix( 0.6592864990234375, 0.16363525390625, -0.16363525390625, 0.6592864990234375, 151.65,-21.35) ">
<g transform="matrix( 1, 0, 0, 1, 0,0) ">
<use xlink:href="#explosline01_0_Layer0_0_FILL"/>
</g>
</g>

<g transform="matrix( 0.523101806640625, -0.254730224609375, 0.254730224609375, 0.523101806640625, 57.6,-58.55) ">
<g transform="matrix( 1, 0, 0, 1, 0,0) ">
<use xlink:href="#explosline01_0_Layer0_0_FILL"/>
</g>
</g>
</g>

<g id="Layer_3">
<g transform="matrix( -1.2397918701171875, 0, 0, 1.344482421875, 126.15,-151.65) ">
<g transform="matrix( 0.6903533935546875, -0.2184295654296875, 0.2184295654296875, 0.6903533935546875, -21.85,82.2) ">
<g transform="matrix( 1, 0, 0, 1, 0,0) ">
<use xlink:href="#explo01_1_Layer1_0_FILL"/>
</g>

<g transform="matrix( 1, 0, 0, 1, 0,0) ">
<use xlink:href="#explo01_1_Layer0_0_FILL"/>
</g>
</g>
</g>
</g>

<g id="Layer_10">
<g transform="matrix( 1.1177978515625, 0, 0, 1.1177978515625, -202.2,-44.55) ">
<g transform="matrix( 1, 0, 0, 1, 0,0) ">
<use filter="url(#Filter_3)" xlink:href="#exploscircle01_0_Layer0_0_FILL"/>
</g>
</g>
</g>

<g transform="matrix( 1, 0, 0, 1, 0,0) ">
<g transform="matrix( 0.6903533935546875, -0.2184295654296875, 0.2184295654296875, 0.6903533935546875, -21.85,82.2) ">
<g transform="matrix( 1, 0, 0, 1, 0,0) ">
<use xlink:href="#explo01_1_Layer1_0_FILL"/>
</g>

<g transform="matrix( 1, 0, 0, 1, 0,0) ">
<use xlink:href="#explo01_1_Layer0_0_FILL"/>
</g>
</g>
</g>

<g transform="matrix( -1, 0, 0, 1, -24.5,-16) ">
<g transform="matrix( 0.6903533935546875, -0.2184295654296875, 0.2184295654296875, 0.6903533935546875, -21.85,82.2) ">
<g transform="matrix( 1, 0, 0, 1, 0,0) ">
<use xlink:href="#explo01_1_Layer1_0_FILL"/>
</g>

<g transform="matrix( 1, 0, 0, 1, 0,0) ">
<use xlink:href="#explo01_1_Layer0_0_FILL"/>
</g>
</g>
</g>

<g transform="matrix( 1, 0, 0, 1, -69.2,0.5) ">
<g transform="matrix( 0.6903533935546875, -0.2184295654296875, 0.2184295654296875, 0.6903533935546875, -21.85,82.2) ">
<g transform="matrix( 1, 0, 0, 1, 0,0) ">
<use xlink:href="#explo01_1_Layer1_0_FILL"/>
</g>

<g transform="matrix( 1, 0, 0, 1, 0,0) ">
<use xlink:href="#explo01_1_Layer0_0_FILL"/>
</g>
</g>
</g>

<g id="Layer_9">
<g transform="matrix( 1.3223876953125, -0.280853271484375, 0.280853271484375, 1.3223876953125, -80.35,-44.2) ">
<g transform="matrix( 0.711517333984375, 0, 0, 0.7027740478515625, 42.45,31.05) ">
<use xlink:href="#explosline01_1_Layer0_0_FILL"/>
</g>
</g>

<g transform="matrix( -1.33612060546875, -0.205902099609375, -0.205902099609375, 1.33612060546875, 61.05,-55.85) ">
<g transform="matrix( 0.711517333984375, 0, 0, 0.7027740478515625, 42.45,31.05) ">
<use xlink:href="#explosline01_1_Layer0_0_FILL"/>
</g>
</g>

<g transform="matrix( -0.7978515625, 0.027191162109375, 0.027191162109375, 0.7978515625, -20.7,40.45) ">
<g transform="matrix( 0.711517333984375, 0, 0, 0.7027740478515625, 42.45,31.05) ">
<use xlink:href="#explosline01_1_Layer0_0_FILL"/>
</g>
</g>

<g transform="matrix( 0.54302978515625, 0.1003265380859375, -0.1003265380859375, 0.54302978515625, 85.65,91) ">
<g transform="matrix( 0.711517333984375, 0, 0, 0.7027740478515625, 42.45,31.05) ">
<use xlink:href="#explosline01_1_Layer0_0_FILL"/>
</g>
</g>

<g transform="matrix( -0.39385986328125, 0.1367950439453125, 0.1367950439453125, 0.39385986328125, -162.5,105.3) ">
<g transform="matrix( 0.711517333984375, 0, 0, 0.7027740478515625, 42.45,31.05) ">
<use xlink:href="#explosline01_1_Layer0_0_FILL"/>
</g>
</g>

<g transform="matrix( -0.4780120849609375, -0.639373779296875, -0.639373779296875, 0.4780120849609375, 149.1,8.15) ">
<g transform="matrix( 0.711517333984375, 0, 0, 0.7027740478515625, 42.45,31.05) ">
<use xlink:href="#explosline01_1_Layer0_0_FILL"/>
</g>
</g>
</g>

<mask id="Mask_Mask_1">
<g transform="matrix( 1, 0, 0, 1, 0,0) ">
<use xlink:href="#Mask_Explosion01_2_2_MASK_0_FILL"/>
</g>
</mask>

<g mask="url(#Mask_Mask_1)">
<g transform="matrix( 0.7104034423828125, 0.160308837890625, -0.158477783203125, 0.7022552490234375, 92.7,79.25) ">
<g transform="matrix( 0.4296875, 0, 0, 0.4296875, 0,126) ">
<g transform="matrix( 1, 0, 0, 1, 0,0) ">
<use xlink:href="#explo01_0_Layer1_0_FILL"/>
</g>

<g transform="matrix( 1, 0, 0, 1, 0,0) ">
<use xlink:href="#explo01_0_Layer0_0_FILL"/>
</g>
</g>
</g>

<g transform="matrix( -0.725311279296875, 0.1636810302734375, 0.158477783203125, 0.7022552490234375, -88.65,96) ">
<g transform="matrix( 0.4296875, 0, 0, 0.4296875, 0,126) ">
<g transform="matrix( 1, 0, 0, 1, 0,0) ">
<use xlink:href="#explo01_0_Layer1_0_FILL"/>
</g>

<g transform="matrix( 1, 0, 0, 1, 0,0) ">
<use xlink:href="#explo01_0_Layer0_0_FILL"/>
</g>
</g>
</g>

<g transform="matrix( 0.8589019775390625, 0.193817138671875, -0.18536376953125, 0.8214263916015625, -76.95,116.55) ">
<g transform="matrix( 0.4296875, 0, 0, 0.4296875, 0,126) ">
<g transform="matrix( 1, 0, 0, 1, 0,0) ">
<use xlink:href="#explo01_0_Layer1_0_FILL"/>
</g>

<g transform="matrix( 1, 0, 0, 1, 0,0) ">
<use xlink:href="#explo01_0_Layer0_0_FILL"/>
</g>
</g>
</g>
</g>

<g id="Layer_12">
<g transform="matrix( -0.3167877197265625, 0.093597412109375, 0.0675048828125, 0.228485107421875, 29.1,260.65) ">
<g transform="matrix( 0.4296875, 0, 0, 0.4296875, 0,126) ">
<g transform="matrix( 1, 0, 0, 1, 0,0) ">
<use filter="url(#Filter_4)" xlink:href="#explo01_0_Layer1_0_FILL"/>
</g>

<g transform="matrix( 1, 0, 0, 1, 0,0) ">
<use filter="url(#Filter_4)" xlink:href="#explo01_0_Layer0_0_FILL"/>
</g>
</g>
</g>

<g transform="matrix( -0.295379638671875, 0.0466156005859375, 0.037139892578125, 0.2353363037109375, -142.45,243.7) ">
<g transform="matrix( 0.4296875, 0, 0, 0.4296875, 0,126) ">
<g transform="matrix( 1, 0, 0, 1, 0,0) ">
<use filter="url(#Filter_4)" xlink:href="#explo01_0_Layer1_0_FILL"/>
</g>

<g transform="matrix( 1, 0, 0, 1, 0,0) ">
<use filter="url(#Filter_4)" xlink:href="#explo01_0_Layer0_0_FILL"/>
</g>
</g>
</g>

<g transform="matrix( -0.3128509521484375, 0.041290283203125, 0.036468505859375, 0.276275634765625, -50.45,254.4) ">
<g transform="matrix( 0.4296875, 0, 0, 0.4296875, 0,126) ">
<g transform="matrix( 1, 0, 0, 1, 0,0) ">
<use filter="url(#Filter_4)" xlink:href="#explo01_0_Layer1_0_FILL"/>
</g>

<g transform="matrix( 1, 0, 0, 1, 0,0) ">
<use filter="url(#Filter_4)" xlink:href="#explo01_0_Layer0_0_FILL"/>
</g>
</g>
</g>

<g transform="matrix( -0.3167877197265625, 0.093597412109375, 0.0675048828125, 0.228485107421875, 67.05,246.05) ">
<g transform="matrix( 0.4296875, 0, 0, 0.4296875, 0,126) ">
<g transform="matrix( 1, 0, 0, 1, 0,0) ">
<use filter="url(#Filter_4)" xlink:href="#explo01_0_Layer1_0_FILL"/>
</g>

<g transform="matrix( 1, 0, 0, 1, 0,0) ">
<use filter="url(#Filter_4)" xlink:href="#explo01_0_Layer0_0_FILL"/>
</g>
</g>
</g>

<g transform="matrix( 0.3262939453125, 0.0514984130859375, -0.037139892578125, 0.2353363037109375, 123.25,244.9) ">
<g transform="matrix( 0.4296875, 0, 0, 0.4296875, 0,126) ">
<g transform="matrix( 1, 0, 0, 1, 0,0) ">
<use filter="url(#Filter_4)" xlink:href="#explo01_0_Layer1_0_FILL"/>
</g>

<g transform="matrix( 1, 0, 0, 1, 0,0) ">
<use filter="url(#Filter_4)" xlink:href="#explo01_0_Layer0_0_FILL"/>
</g>
</g>
</g>

<g transform="matrix( -0.3705596923828125, 0.1094818115234375, 0.0789642333984375, 0.2672576904296875, 90.4,242.65) ">
<g transform="matrix( 0.4296875, 0, 0, 0.4296875, 0,126) ">
<g transform="matrix( 1, 0, 0, 1, 0,0) ">
<use filter="url(#Filter_4)" xlink:href="#explo01_0_Layer1_0_FILL"/>
</g>

<g transform="matrix( 1, 0, 0, 1, 0,0) ">
<use filter="url(#Filter_4)" xlink:href="#explo01_0_Layer0_0_FILL"/>
</g>
</g>
</g>

<g transform="matrix( -0.25604248046875, 0.075653076171875, 0.0675048828125, 0.228485107421875, 166.1,237.4) ">
<g transform="matrix( 0.4296875, 0, 0, 0.4296875, 0,126) ">
<g transform="matrix( 1, 0, 0, 1, 0,0) ">
<use filter="url(#Filter_4)" xlink:href="#explo01_0_Layer1_0_FILL"/>
</g>

<g transform="matrix( 1, 0, 0, 1, 0,0) ">
<use filter="url(#Filter_4)" xlink:href="#explo01_0_Layer0_0_FILL"/>
</g>
</g>
</g>

<g transform="matrix( 0.27081298828125, 0.0427398681640625, -0.037139892578125, 0.2353363037109375, 239.15,185.65) ">
<g transform="matrix( 0.4296875, 0, 0, 0.4296875, 0,126) ">
<g transform="matrix( 1, 0, 0, 1, 0,0) ">
<use filter="url(#Filter_4)" xlink:href="#explo01_0_Layer1_0_FILL"/>
</g>

<g transform="matrix( 1, 0, 0, 1, 0,0) ">
<use filter="url(#Filter_4)" xlink:href="#explo01_0_Layer0_0_FILL"/>
</g>
</g>
</g>

<g transform="matrix( -0.252166748046875, 0.074493408203125, 0.0789642333984375, 0.2672576904296875, 241.9,189.9) ">
<g transform="matrix( 0.4296875, 0, 0, 0.4296875, 0,126) ">
<g transform="matrix( 1, 0, 0, 1, 0,0) ">
<use filter="url(#Filter_4)" xlink:href="#explo01_0_Layer1_0_FILL"/>
</g>

<g transform="matrix( 1, 0, 0, 1, 0,0) ">
<use filter="url(#Filter_4)" xlink:href="#explo01_0_Layer0_0_FILL"/>
</g>
</g>
</g>

<g transform="matrix( -0.3055419921875, -0.089263916015625, -0.0781402587890625, 0.267486572265625, -191.25,216.05) ">
<g transform="matrix( 0.4296875, 0, 0, 0.4296875, 0,126) ">
<g transform="matrix( 1, 0, 0, 1, 0,0) ">
<use filter="url(#Filter_4)" xlink:href="#explo01_0_Layer1_0_FILL"/>
</g>

<g transform="matrix( 1, 0, 0, 1, 0,0) ">
<use filter="url(#Filter_4)" xlink:href="#explo01_0_Layer0_0_FILL"/>
</g>
</g>
</g>
</g>
</g>
</g>
</g>
</svg>
