
<svg xmlns="http://www.w3.org/2000/svg" version="1.1" xmlns:xlink="http://www.w3.org/1999/xlink" preserveAspectRatio="none" x="0px" y="0px" width="1000px" height="1000px" viewBox="0 0 1000 1000">
<defs>
<linearGradient id="Gradient_1" gradientUnits="userSpaceOnUse" x1="90.35000000000001" y1="75.76249999999999" x2="80.55" y2="145.4375" spreadMethod="pad">
<stop  offset="0%" stop-color="#333333"/>

<stop  offset="100%" stop-color="#666666"/>
</linearGradient>

<radialGradient id="Gradient_2" gradientUnits="userSpaceOnUse" cx="0" cy="0" r="30.879630219612412" fx="0" fy="0" gradientTransform="matrix( 0.48454271937806265, -0.8747675994786912, 0.8747675994786912, 0.48454271937806265, 34.85,35.05) " spreadMethod="pad">
<stop  offset="12.549019607843137%" stop-color="#FFFFFF"/>

<stop  offset="56.86274509803921%" stop-color="#FFFD2C"/>
</radialGradient>

<linearGradient id="Gradient_3" gradientUnits="userSpaceOnUse" x1="-2.8625000000000007" y1="281.95" x2="-19.9375" y2="255.45" spreadMethod="pad">
<stop  offset="0%" stop-color="#FF6600"/>

<stop  offset="50.98039215686274%" stop-color="#FFCC00"/>

<stop  offset="100%" stop-color="#FFFF99"/>
</linearGradient>

<linearGradient id="Gradient_4" gradientUnits="userSpaceOnUse" x1="-47.7125" y1="74.975" x2="-59.7875" y2="56.224999999999994" spreadMethod="pad">
<stop  offset="0%" stop-color="#FF6600"/>

<stop  offset="50.98039215686274%" stop-color="#FFCC00"/>

<stop  offset="100%" stop-color="#FFFF99"/>
</linearGradient>

<linearGradient id="Gradient_5" gradientUnits="userSpaceOnUse" x1="295.02500000000003" y1="148.28750000000002" x2="343.175" y2="84.0125" spreadMethod="pad">
<stop  offset="0%" stop-color="#FF6600"/>

<stop  offset="50.98039215686274%" stop-color="#FFCC00"/>

<stop  offset="100%" stop-color="#FFFF99"/>
</linearGradient>

<linearGradient id="Gradient_6" gradientUnits="userSpaceOnUse" x1="262.7" y1="72.11250000000001" x2="269.3" y2="30.5875" spreadMethod="pad">
<stop  offset="0%" stop-color="#FF6600"/>

<stop  offset="50.98039215686274%" stop-color="#FFCC00"/>

<stop  offset="100%" stop-color="#FFFF99"/>
</linearGradient>

<linearGradient id="Gradient_7" gradientUnits="userSpaceOnUse" x1="441.5875" y1="39.825" x2="426.9125" y2="17.075" spreadMethod="pad">
<stop  offset="0%" stop-color="#FF6600"/>

<stop  offset="50.98039215686274%" stop-color="#FFCC00"/>

<stop  offset="100%" stop-color="#FFFF99"/>
</linearGradient>

<linearGradient id="Gradient_8" gradientUnits="userSpaceOnUse" x1="345.5125" y1="-34.787499999999994" x2="329.8875" y2="-59.0125" spreadMethod="pad">
<stop  offset="0%" stop-color="#FF6600"/>

<stop  offset="50.98039215686274%" stop-color="#FFCC00"/>

<stop  offset="100%" stop-color="#FFFF99"/>
</linearGradient>

<linearGradient id="Gradient_9" gradientUnits="userSpaceOnUse" x1="228.675" y1="13.162500000000001" x2="219.325" y2="-8.2625" spreadMethod="pad">
<stop  offset="0%" stop-color="#FF6600"/>

<stop  offset="50.98039215686274%" stop-color="#FFCC00"/>

<stop  offset="100%" stop-color="#FFFF99"/>
</linearGradient>

<linearGradient id="Gradient_10" gradientUnits="userSpaceOnUse" x1="145.4125" y1="-59.362500000000004" x2="136.2875" y2="-73.53750000000001" spreadMethod="pad">
<stop  offset="0%" stop-color="#FF6600"/>

<stop  offset="50.98039215686274%" stop-color="#FFCC00"/>

<stop  offset="100%" stop-color="#FFFF99"/>
</linearGradient>

<linearGradient id="Gradient_11" gradientUnits="userSpaceOnUse" x1="45.4125" y1="22.3375" x2="8.6875" y2="-34.6375" spreadMethod="pad">
<stop  offset="0%" stop-color="#FF6600"/>

<stop  offset="50.98039215686274%" stop-color="#FFCC00"/>

<stop  offset="100%" stop-color="#FFFF99"/>
</linearGradient>

<g id="Symbol_13_0_Layer1_0_FILL">
<path fill="#000000" stroke="none" d="
M 23.15 152.75
Q 32.5005859375 157.1697265625 42 160.1 88.8271484375 174.533203125 139.3 152.75 179.372265625 81.115625 139.3 14.85 81.2251953125 -9.8263671875 23.15 14.85 -21.946875 78.305078125 23.15 152.75
M 133.3 22.55
Q 133.688671875 23.155859375 133.75 24.05 134.3216796875 26.632421875 123.6 30.9 98.220703125 37.5076171875 73.3 36.55 73.1900390625 36.56328125 73.05 36.55 56.880859375 35.38671875 48.75 33.8
L 48.7 33.8
Q 44.85 33.1 38.95 31.65 26.435546875 26.24765625 28.7 22.8
L 28.75 22.7
Q 28.9640625 22.4615234375 30 21.95 44.850390625 15.60625 59.75 12.95 83.9431640625 11.1044921875 84.9 11.15 108.91328125 11.9107421875 133.1 22.2
L 133.35 22.5 133.3 22.55
M 125.65 34.3
Q 135.27890625 30.64609375 136.45 28 140.32421875 35.141015625 143.15 42.35
L 145.05 47.55
Q 157.6771484375 84.4369140625 143.5 123.1
L 142.4 126
Q 141.8 127.55 138.65 134.3 135 142.15 133.1 145.55 83.4919921875 166.95390625 37.85 149.25 33.4775390625 147.59609375 29.15 145.55 23.0322265625 135.45234375 18.75 125.55 18.528515625 125.0044921875 18.3 124.4 1.20703125 83.933203125 15.45 47.25
L 17.65 42
Q 22.8 31.8 25.85 27 25.28984375 30.2435546875 36.95 35.05 40.41484375 35.8794921875 43.9 36.55 84.1759765625 44.6109375 125.65 34.3
M 95.55 15.6
Q 89.85 13.55 81.8 13.55 73.75 13.55 68.05 15.6 62.35 17.6 62.35 20.4 62.35 23.3 68.05 25.25 73.75 27.3 81.8 27.3 89.85 27.3 95.55 25.25 101.25 23.3 101.25 20.4 101.25 17.6 95.55 15.6
M 97.2 21.65
Q 97.17421875 21.675 97.15 21.7 95.9814453125 22.7875 93.25 23.65 88.5 25.25 81.8 25.25 78.281640625 25.25 75.3 24.8 75.0740234375 24.7671875 74.85 24.7
L 70.35 23.65
Q 65.6 22.15 65.6 19.95 65.6 17.75 70.35 16.2 75.1 14.65 81.8 14.65 88.5 14.65 93.25 16.2 98 17.75 98 19.95
L 98 20.15
Q 97.95 20.5 97.2 21.65 Z"/>

<path fill="#1E1E1E" stroke="none" d="
M 32.15 132.25
L 33.2 136.35 37.85 149.25
Q 83.4919921875 166.95390625 133.1 145.55 135 142.15 138.65 134.3 141.8 127.55 142.4 126 141.95 126.4 138.3 128.15 134.05 130.2 131.15 131.2 80.83828125 142.248828125 32.15 132.25
M 145.05 47.55
L 143.15 42.35 142.65 42.55
Q 142.95 45.45 130.3 49.7 82.4671875 60.25625 36.05 51.55
L 33.85 55.8
Q 82.3779296875 64.6107421875 132.4 54 143.9439453125 50.2548828125 145.05 47.55 Z"/>

<path fill="#666666" stroke="none" d="
M 32.15 132.25
Q 32.0951171875 132.0509765625 32.05 131.85 20.15 127.4 18.75 125.55 23.0322265625 135.45234375 29.15 145.55 33.4775390625 147.59609375 37.85 149.25
L 33.2 136.35 32.15 132.25
M 17.65 42
L 15.45 47.25
Q 15.8974609375 50.3341796875 28.45 54.75 31.0826171875 55.287890625 33.7 55.75
L 33.7 56.05 33.85 55.8 36.05 51.55
Q 33.2251953125 51.0505859375 30.4 50.45 16.705859375 45.453515625 17.65 42
M 133.75 24.05
Q 133.688671875 23.155859375 133.3 22.55 133.2076171875 22.378125 133.1 22.2 108.91328125 11.9107421875 84.9 11.15 84.59296875 11.1734375 84.3 11.2 65.2 12.95 49.95 19.55 48.85 20 46.75 22.1 44.55 24.3 44.6 25.25 44.7 27.5 47.65 29.7 50.8 31.95 60.65 34.3 68.6 36.15 73.05 36.55 73.1900390625 36.56328125 73.3 36.55 98.220703125 37.5076171875 123.6 30.9 134.3216796875 26.632421875 133.75 24.05
M 81.8 13.55
Q 89.85 13.55 95.55 15.6 101.25 17.6 101.25 20.4 101.25 23.3 95.55 25.25 89.85 27.3 81.8 27.3 73.75 27.3 68.05 25.25 62.35 23.3 62.35 20.4 62.35 17.6 68.05 15.6 73.75 13.55 81.8 13.55
M 90.05 18.5
Q 86.8 18.1 84.95 18.1 82.15 18.15 80 18.9 78.9 19.3 76.9 20.4 75.25 21.4 74.7 22.3 74.5 22.65 74.75 23.65 75 24.65 75.3 24.8 78.281640625 25.25 81.8 25.25 88.5 25.25 93.25 23.65 95.9814453125 22.7875 97.15 21.7 97.026953125 21.76875 96.75 21.65
L 96.45 21.45
Q 96.3 21 93.55 19.75 90.85 18.6 90.05 18.5 Z"/>

<path fill="#999999" stroke="none" d="
M 32.1 59.8
Q 32.875390625 57.91171875 33.7 56.05
L 33.7 55.75
Q 31.0826171875 55.287890625 28.45 54.75 15.8974609375 50.3341796875 15.45 47.25 1.20703125 83.933203125 18.3 124.4 18.528515625 125.0044921875 18.75 125.55 20.15 127.4 32.05 131.85 20.45546875 89.4978515625 32.1 59.8
M 84.3 11.2
Q 84.59296875 11.1734375 84.9 11.15 83.9431640625 11.1044921875 59.75 12.95 44.850390625 15.60625 30 21.95 28.9640625 22.4615234375 28.75 22.7
L 28.7 22.8
Q 26.435546875 26.24765625 38.95 31.65 44.85 33.1 48.7 33.8
L 48.75 33.8
Q 56.880859375 35.38671875 73.05 36.55 68.6 36.15 60.65 34.3 50.8 31.95 47.65 29.7 44.7 27.5 44.6 25.25 44.55 24.3 46.75 22.1 48.85 20 49.95 19.55 65.2 12.95 84.3 11.2
M 84.95 18.1
Q 86.8 18.1 90.05 18.5 90.85 18.6 93.55 19.75 96.3 21 96.45 21.45
L 96.75 21.65
Q 97.026953125 21.76875 97.15 21.7 97.17421875 21.675 97.2 21.65 97.95 20.5 98 20.15
L 98 19.95
Q 98 17.75 93.25 16.2 88.5 14.65 81.8 14.65 75.1 14.65 70.35 16.2 65.6 17.75 65.6 19.95 65.6 22.15 70.35 23.65
L 74.85 24.7
Q 75.0740234375 24.7671875 75.3 24.8 75 24.65 74.75 23.65 74.5 22.65 74.7 22.3 75.25 21.4 76.9 20.4 78.9 19.3 80 18.9 82.15 18.15 84.95 18.1 Z"/>

<path fill="#FF9900" stroke="none" d="
M 36.95 35.05
Q 25.28984375 30.2435546875 25.85 27 22.8 31.8 17.65 42 16.705859375 45.453515625 30.4 50.45 33.2251953125 51.0505859375 36.05 51.55
L 43.9 36.55
Q 40.41484375 35.8794921875 36.95 35.05 Z"/>

<path fill="url(#Gradient_1)" stroke="none" d="
M 145.05 47.55
Q 143.9439453125 50.2548828125 132.4 54 82.3779296875 64.6107421875 33.85 55.8
L 33.7 56.05
Q 32.875390625 57.91171875 32.1 59.8 20.45546875 89.4978515625 32.05 131.85 32.0951171875 132.0509765625 32.15 132.25 80.83828125 142.248828125 131.15 131.2 134.05 130.2 138.3 128.15 141.95 126.4 142.4 126
L 143.5 123.1
Q 157.6771484375 84.4369140625 145.05 47.55 Z"/>

<path fill="#FF3300" stroke="none" d="
M 136.45 28
Q 135.27890625 30.64609375 125.65 34.3 84.1759765625 44.6109375 43.9 36.55
L 36.05 51.55
Q 82.4671875 60.25625 130.3 49.7 142.95 45.45 142.65 42.55
L 143.15 42.35
Q 140.32421875 35.141015625 136.45 28 Z"/>
</g>

<g id="Symbol_13_0_Layer0_0_FILL">
<path fill="#FF3300" stroke="none" d="
M 105.4 97.25
Q 105.55 87.35 98.65 80.3 91.8 73.25 81.9 73.1 72.45 72.95 65.55 79.35
L 65.4 79.45
Q 64.95 79.8 64.55 80.2 57.5 87.1 57.35 97 57.2 106.9 63.6 108.55 68.3 109.75 74.25 116.25 77.35 110.6 80.2 117.05 83.8 111.05 86.85 116.25 92.8 110.65 97.35 109.45 100.05 108.8 101.8 107.1 105.35 104 105.4 97.25
M 96.35 96.6
Q 95.57109375 97.2328125 94.65 97.55 93.2453125 101.258984375 89.75 105.6 85.2 111.35 77.9 108.7 67.0083984375 104.790234375 66.75 97.05 65.560546875 96.5625 64.6 95.55 62.75 93.7 62.8 91 62.85 88.35 64.7 86.45
L 64.7 86.4
Q 66.5 84.95 68.95 84.95 70.016015625 84.989453125 70.95 85.3 74.3490234375 80.4603515625 80.25 79.4 89.9134765625 82.086328125 93.5 86.6 95.2302734375 86.941796875 96.5 88.25 98.2 90.05 98.2 92.45 98.2 94.85 96.4 96.55
L 96.35 96.6 Z"/>

<path fill="#FF9900" stroke="none" d="
M 93.05 86.5
Q 93.286328125 86.5591796875 93.5 86.6 89.9134765625 82.086328125 80.25 79.4 74.3490234375 80.4603515625 70.95 85.3 72.38046875 85.78046875 73.5 86.9 75.3 88.85 75.25 91.55 75.2 94.25 73.35 96.05 73.3 96.1 73.3 96.15 71.5 97.6 69.15 97.5 67.851953125 97.5 66.75 97.05 67.0083984375 104.790234375 77.9 108.7 85.2 111.35 89.75 105.6 93.2453125 101.258984375 94.65 97.55 93.727734375 97.8755859375 92.65 97.85 90.25 97.85 88.55 96.05 86.85 94.35 86.9 91.95 86.9 89.6 88.6 87.85 90.3 86.5 92.45 86.5
L 93.05 86.5 Z"/>
</g>

<g id="spark_1_Layer0_0_FILL">
<path fill="#FFFF00" stroke="none" d="
M 44.25 1.7
Q 47 0.8 47.55 -0.7 42.45 0.15 44.25 1.7
M -2.5 11.1
Q -2 10.95 -2.45 9.85 -2.9 8.75 -3.3 8.75 -6.35 8.7 -2.5 11.1
M 47.3 74.8
Q 47.3 74.75 47.3 74.7 49.4 68.85 43.75 63.65 43.65 63.7 43.6 63.8 41.8 70.75 47.3 74.8
M 17.9 72.05
Q 18.4 72.05 20.2 69.85 22.15 67.45 22.3 66.15 22.15 66.1 22.05 66.15 14.6 68.9 17.9 72.05
M 60.05 15.75
Q 60.15 15.75 60.3 15.7 68 14.5 70.1 7.8 70 7.7 69.95 7.7 61.45 8.65 60.05 15.75 Z"/>

<path fill="url(#Gradient_2)" stroke="none" d="
M 64.9 41.5
Q 64.85 41.15 55.15 38.2 45.25 35.25 39.25 33.9 40.5 33 42.55 29.8 44.45 26.7 50.3 21.2 40.05 28.05 36.7 28.6 34.45 19 29.25 5.7 29.45 20.35 30.55 31.45 27.45 31.5 21.1 34.5
L 28.15 38.05
Q 25.05 42.75 12.5 66.7 28.15 49.4 32.75 41.05 37.05 46.1 39.55 50.25 39.05 45.6 38.6 41 38.45 39.55 38.1 38.3 50.85 42.1 64.9 41.5 Z"/>
</g>

<g id="Symbol_24_10_Layer0_0_FILL">
<path fill="url(#Gradient_3)" stroke="none" d="
M -14.15 254.05
Q -13.8849609375 252.989453125 -13.6 251.65 -13.757421875 251.7169921875 -13.85 251.75 -19.7 253.9 -19.7 265.25 -19.7 272.1 -13 278 -9.15 281.35 -4.85 283.3 -4.85 282.45 -4.15 282.1
L -3.5 281.95
Q -3.5 278.55 -8.9 267.65 -14.3 257.4 -14.3 257.15 -14.3 255 -14.15 254.05 Z"/>

<path fill="url(#Gradient_4)" stroke="none" d="
M -54.6 58.05
Q -54.3970703125 55.1650390625 -53.6 52.15 -61.05 59.622265625 -61.05 64.45 -61.05 67.2 -58.5 71.9 -55.85 76.75 -53.15 78.45 -53.15 75.55 -54.05 68.4 -54.9 62.1 -54.6 58.05 Z"/>

<path fill="url(#Gradient_5)" stroke="none" d="
M 384.2 63.8
Q 379.825 59.41796875 375.8 55.55 375.3171875 57.530078125 374.45 59.85 372.4 65.2 372.4 67.15 372.4 67.65 377.8 73.35 383.2 80.2 383.2 86.4 383.2 94 373.8 99.95 363.15 106.65 346.25 106.65 329.3 106.65 314.1 98.65 309.85 96.4 303.7 92.35 298.1 88.65 296.15 87.75 298.2 93.85 296.15 99.9 272.5 89.75 260.9 80.9 257.55 78.35 255.55 77.8 253 77.1 245.85 77.1 234.15 77.1 226.5 81.2 215.8 86.95 215.8 99.9 215.8 116.45 230.2 127 236.1 131.25 245.9 135.85 250.1 137.75 265.25 144.1 282.1 151.2 293.55 158.6 299.65 162.55 307.3 168.05 313.5 171.85 322.5 173.25 332.7 174.8 355.05 174.8 380.3 174.8 391.75 171.8 401.1 169.4 404.85 163.75 407.1 160.3 410.7 151.8 412.6771484375 148.4078125 415.65 145.3 410.174609375 146.8 401.1 146.8 393.45 146.8 384.25 141.85 375 136.85 373.75 131.95 381.85 127.9 385.55 120.85 386.85 118.4 388 114.8 389.15 110.95 389.75 109.15 391.9 102.95 396.3 100.85 402.2 98.05 415.25 99.9 414.55 97.1 405.4 86.5 396.45 76.1 384.2 63.8 Z"/>

<path fill="url(#Gradient_6)" stroke="none" d="
M 324.15 66.5
Q 333.6 57.8 333.6 50.25 333.6 42.5 322.45 32.2 319.35859375 29.3294921875 315.95 26.75 316.562890625 27.5060546875 317.15 28.2 318.9 30.25 318.9 32.9 318.9 44.1 294.8 50.3 273.8 55.65 242.45 55.65 235.35 55.65 222.25 54.15 210.4 52.75 205 51.6
L 198.45 51.6 198.45 54.3
Q 202.45 55.6 217.95 66.65 232.55 77.1 234.55 77.1 236.05 77.1 239.1 75.25 241 74.1 245.9 71.1 256.7 65.1 268.65 65.1 285.1 65.1 298.4 69.75 301.2 70.75 306.3 72.95 309.7 74.4 310.8 74.4 315.6 74.4 324.15 66.5 Z"/>

<path fill="url(#Gradient_7)" stroke="none" d="
M 447.35 45.65
Q 452.75 37.4 452.75 30.85 452.75 26.4 437.95 16.05 433.1791015625 12.7369140625 427.6 9.35 431.4375 14.4005859375 436.2 31.45 440.75 47.6 440.75 52.3 440.75 53 439.95 54.8 438.75 57.3 436.7 59.7
L 438.05 59.7
Q 440.7 54.85 447.35 45.65 Z"/>

<path fill="url(#Gradient_8)" stroke="none" d="
M 332.8 -61
Q 332.584375 -60.1916015625 332.25 -59.3 330.9 -55.65 330.9 -54 330.9 -49.05 334.1 -44.55 336.5 -41.2 342 -36.6 343.119921875 -35.6607421875 344.75 -34.3 342.8744140625 -38.5603515625 341.55 -44.55 339.0572265625 -55.1693359375 332.8 -61 Z"/>

<path fill="url(#Gradient_9)" stroke="none" d="
M 190.9 -36.55
Q 181.95 -37.8 178.35 -37.8 189.1 -37.5 200.85 -29.15 214.45 -19.45 214.45 -7.05 214.45 -3.4 212.45 0.45 210.4 4.3 210.4 4.85 210.4 5.5 215.3 8.3 218.25 10 226.2 14.55 239.044921875 22.2013671875 242.55 27.55 243.348046875 26.955859375 244.35 26.25 246.15 25 246.95 23.9 249.2 20.7 249.2 10.1 249.2 5.15 248.65 3.8 248.1447265625 2.5505859375 247.1 1.05 247.85 -0.8771484375 247.85 -3.2 247.85 -21.8 214.6 -31.55 203.85 -34.75 190.9 -36.55 Z"/>

<path fill="url(#Gradient_10)" stroke="none" d="
M 132.45 -65.95
Q 136.25 -67.3 138 -67.3 139.6 -67.3 146.55 -66.6 153.45 -65.95 155.55 -65.95
L 155.55 -68.65
Q 153.75 -68.85 146.45 -73.75 143.94921875 -75.407421875 141.5 -76.8 139.4888671875 -75.670703125 137.2 -74.2 127.75 -68.15 126.05 -64.6
L 127.4 -64.6
Q 128.65 -64.6 132.45 -65.95 Z"/>

<path fill="url(#Gradient_11)" stroke="none" d="
M -4.85 -21.75
Q -11.55 -21.75 -18.4 -17.15 -19.5060546875 -16.4154296875 -20.5 -15.7 -18.8982421875 -16.35 -16.35 -16.35 -12.75 -16.35 -11.1 -12.85 -9.6 -7.9 -8.7 -5.05 -7.05 0.15 -4.1 2.7 0 6.2 7.75 6.2 13.9 5.6 19.3 5.15 29.9 4.25 36.45 4.85 41 5.3 45.05 10.5 49 15.5 51.8 15.5 58.45 15.5 60.7 11.6 61.4 10.35 63.2 2.45 64.541015625 -3.53984375 67.7 -7.3 56.951171875 -9.75 47.75 -9.75 40.05 -9.75 34.7 -7.05 32.35 -5.7 31.45 -5.2 29.95 -4.35 29 -4.35 24 -4.35 9.25 -13.05 1.85 -17.4 -4.85 -21.75 Z"/>
</g>
</defs>

<g id="Layer_2">
<g transform="matrix( 0.8203582763671875, 0, 0, 0.8203582763671875, 455.25,327.1) ">
<g transform="matrix( 1, 0, 0, 1, -2.7,-14.25) ">
<g id="Layer_1">
<g transform="matrix( 0.9107208251953125, -0.4129791259765625, 0.4129791259765625, 0.9107208251953125, -77.8,-4.35) ">
<g transform="matrix( 1, 0, 0, 1, 0,0) ">
<use xlink:href="#Symbol_13_0_Layer1_0_FILL"/>
</g>

<g id="Layer_3">
<g transform="matrix( 1, 0, 0, 1, 0,0) ">
<use xlink:href="#Symbol_13_0_Layer0_0_FILL"/>
</g>
</g>
</g>

<g transform="matrix( -1.1869354248046875, 0.538238525390625, -0.538238525390625, -1.1869354248046875, 60.65,-10.75) ">
<g transform="matrix( 1, 0, 0, 1, 0,0) ">
<use xlink:href="#spark_1_Layer0_0_FILL"/>
</g>
</g>
</g>

<g id="Symbol_84"/>

<g id="Symbol_85"/>

<g id="Symbol_83"/>

<g transform="matrix( 0.411102294921875, 0, 0, 0.411102294921875, -21.05,-7.75) ">
<g transform="matrix( 1, 0, 0, 1, 0,0) ">
<use xlink:href="#Symbol_24_10_Layer0_0_FILL"/>
</g>
</g>
</g>
</g>
</g>
</svg>
