
<svg xmlns="http://www.w3.org/2000/svg" version="1.1" xmlns:xlink="http://www.w3.org/1999/xlink" preserveAspectRatio="none" x="0px" y="0px" width="250px" height="250px" viewBox="0 0 250 250">
<defs>
<g id="bolt_0_Layer0_0_FILL">
<path fill="#000000" stroke="none" d="
M 178.3 44.1
Q 178.75 44.1 179.2 44.1 182.9 48.45 191.55 56.1 215.15 40.05 234.95 32.65 207.95 21.95 194.55 11.25 184.1 18.15 176.05 26.3 154.5 22.8 135.75 28.35 135.5 28.35 135.35 28.75
L 105.1 28.55
Q 102.65 25.35 46.85 27.45 46.6 27.05 46.3 26.55 44.45 23.65 43.6 20.15 43.35 18.95 43.15 18.35 42.85 17.3 42.4 16.65 41.6 15.4 39.9 14.6 38.85 14.1 36.7 13.5 32.6 12.35 29.95 11.05 28.05 10.1 25.1 8.2
L 21.55 6
Q 18.55 4.1 17.3 2.75 16.55 1.95 16.15 1.55 15.45 0.8 14.85 0.45 14.05 0 13.2 0 12.25 0.05 11.75 0.65 11.2 1.3 11.2 2.95
L 11.25 13.7
Q 11.25 17.3 11.45 19.05 11.5 19.75 12 23.65 12.5 26.7 12.1 28.2 11.8 29.15 10.95 30.9 10.15 33.25 10.9 36.85 11 37.35 11.1 37.8 10.95 39.5 11.75 40.75 11.1 41.5 10.05 42.45 9.4 43 8.1 44.1 6.2 45.85 4.2 48.45 3.1 49.9 0.9 53.25 -0.3 55.05 0.1 56.25 0.7 57.85 3.55 57.65 5.15 57.6 7.6 57.05 9.65 56.6 13.85 55.6 18.4 54.75 27.75 54.85
L 32.35 54.85
Q 34.85 54.85 35.85 54.1 36.5 53.65 37.45 52.05 40.35 46.7 43.45 44.55 45.55 43.05 45.9 42.7 47.05 41.55 46.95 40.4
L 158.1 41.2
Q 166.15 46.8 178.3 44.1
M 217.85 34.15
L 209.65 38.8 193.1 48.15
Q 192.45 47.95 191.95 47.65 186.5 44.45 182.8 39.35
L 182.6 35.9 182.15 29.55 194.55 20.15
Q 205.25 28.9 217.85 34.15
M 178.7 33
L 178.6 36.65 15.45 37.4
Q 15.45 37.15 15.45 36.85 15.45 34.25 16.2 33.1 16.3 32.9 16.6 32.65 47.55 33.3 78.45 33.55 119.85 33.85 161.3 32.7 166.45 32.55 171.6 32.35
L 172.15 33.1 178.7 33
M 23.1 12.65
Q 27.6 15.9 30.1 16.9 30.6 17.1 32.25 17.6 32.35 17.65 32.5 17.7 34 18.2 34.85 18.6 37.65 19.75 38.65 21.6 39.05 22.4 39.55 24.05 40.15 25.65 41.85 27.65 38.35 27.8 34.75 27.95 34.5 27.95 34.25 28 33.25 28 32.2 28.1 29.95 28.15 27.65 28.3 26.5 28.3 25.4 28.4 21.95 28.55 18.3 28.7 18.25 28.2 18.2 27.65
L 15.15 6.95 19.55 10.1 22.15 12 23.1 12.65
M 15.6 41.5
Q 15.9 40.95 16.4 40.7
L 16.1 40.6
Q 16.15 40.4 16.15 40.15
L 17.55 40.15 27.35 40.25 29.9 40.25 36.85 40.3 40.1 40.35
Q 39.85 40.55 39.55 40.8 37.8 42.3 37 43.15 35.8 44.35 34.75 46.25 34.2 47.1 32.95 49.65 31.48984375 49.7267578125 30 49.8 29.55 49.8 29.1 49.85
L 22.8 50.05
Q 21.75 50.05 20.7 50.1
L 19 50.2 16.55 50.35
Q 11.55 50.8 6.95 52.45
L 7.2 52.1
Q 7.297265625 51.954296875 7.4 51.8 10.61640625 47.0306640625 14.45 43.1 14.55 43 14.65 42.95 14.75 43 14.9 43.05 15.1 43.1 15.35 43.2 15.3 42.95 15.3 42.7 15.25 42.05 15.6 41.5 Z"/>

<path fill="#3333CC" stroke="none" d="
M 36.85 40.3
L 29.9 40.25
Q 25.55 46.1 22.85 49.95 22.8 50 22.8 50.05
L 29.1 49.85
Q 29.55 49.8 30 49.8 34.85 42.85 36.85 40.3
M 17.55 40.15
Q 17.2 40.5 16.85 40.85
L 16.4 40.7
Q 15.9 40.95 15.6 41.5 15.25 42.05 15.3 42.7 15.3 42.95 15.35 43.2 15.1 43.1 14.9 43.05
L 14.55 43.5
Q 14.3 43.7 14.15 43.95 14.05 44.05 13.95 44.15
L 7.45 51.75
Q 7.421484375 51.778515625 7.4 51.8 7.297265625 51.954296875 7.2 52.1
L 6.95 52.45
Q 11.55 50.8 16.55 50.35
L 19 50.2
Q 20.4 48.45 22.1 46.4 23.2 45.05 24.5 43.6 25.85 42 27.35 40.25
L 17.55 40.15
M 30.1 16.9
Q 27.6 15.9 23.1 12.65
L 22.15 12
Q 22.35 12.5 22.55 13.1 23.1 14.8 24.1 18.2 25.5 22.6 27.65 28.3 29.95 28.15 32.2 28.1 33.25 28 34.25 28 34.5 27.95 34.75 27.95 34.2 26.35 33.85 25.2 33.1 22.55 32.25 17.8 32.25 17.7 32.25 17.6 30.6 17.1 30.1 16.9
M 23.6 22.15
Q 23.25 21.25 21.2 15.2
L 19.55 10.1 15.15 6.95 18.2 27.65
Q 18.25 28.2 18.3 28.7 21.95 28.55 25.4 28.4 24.95 26.2 23.6 22.15 Z"/>

<path fill="#0099FF" stroke="none" d="
M 40.1 40.35
L 36.85 40.3
Q 34.85 42.85 30 49.8 31.48984375 49.7267578125 32.95 49.65 34.2 47.1 34.75 46.25 35.8 44.35 37 43.15 37.8 42.3 39.55 40.8 39.85 40.55 40.1 40.35
M 27.35 40.25
Q 25.85 42 24.5 43.6 23.2 45.05 22.1 46.4 20.4 48.45 19 50.2
L 20.7 50.1
Q 21.75 50.05 22.8 50.05 22.8 50 22.85 49.95 25.55 46.1 29.9 40.25
L 27.35 40.25
M 14.65 42.95
Q 14.55 43 14.45 43.1 10.61640625 47.0306640625 7.4 51.8 7.421484375 51.778515625 7.45 51.75
L 13.95 44.15
Q 14.05 44.05 14.15 43.95 14.3 43.7 14.55 43.5
L 14.9 43.05
Q 14.75 43 14.65 42.95
M 16.85 40.85
Q 17.2 40.5 17.55 40.15
L 16.15 40.15
Q 16.15 40.4 16.1 40.6
L 16.4 40.7 16.85 40.85
M 32.25 17.6
Q 32.25 17.7 32.25 17.8 33.1 22.55 33.85 25.2 34.2 26.35 34.75 27.95 38.35 27.8 41.85 27.65 40.15 25.65 39.55 24.05 39.05 22.4 38.65 21.6 37.65 19.75 34.85 18.6 34 18.2 32.5 17.7 32.35 17.65 32.25 17.6
M 21.2 15.2
Q 23.25 21.25 23.6 22.15 24.95 26.2 25.4 28.4 26.5 28.3 27.65 28.3 25.5 22.6 24.1 18.2 23.1 14.8 22.55 13.1 22.35 12.5 22.15 12
L 19.55 10.1 21.2 15.2 Z"/>

<path fill="#CC6600" stroke="none" d="
M 178.6 36.65
L 178.7 33 172.15 33.1 171.6 32.35
Q 166.45 32.55 161.3 32.7 119.85 33.85 78.45 33.55 47.55 33.3 16.6 32.65 16.3 32.9 16.2 33.1 15.45 34.25 15.45 36.85 15.45 37.15 15.45 37.4
L 178.6 36.65 Z"/>

<path fill="#CCCCCC" stroke="none" d="
M 184.9 34.5
L 182.6 35.9 182.8 39.35
Q 186.5 44.45 191.95 47.65 192.45 47.95 193.1 48.15
L 209.65 38.8
Q 202.05 35.7 195 31.1 193.25 29.95 192.25 30.1 191.55 30.15 190.35 31.05 188.6 32.3 184.9 34.5 Z"/>

<path fill="#FFFFFF" stroke="none" d="
M 209.65 38.8
L 217.85 34.15
Q 205.25 28.9 194.55 20.15
L 182.15 29.55 182.6 35.9 184.9 34.5
Q 188.6 32.3 190.35 31.05 191.55 30.15 192.25 30.1 193.25 29.95 195 31.1 202.05 35.7 209.65 38.8 Z"/>
</g>

<g id="Symbol_11_0_Layer0_0_FILL">
<path fill="#000000" stroke="none" d="
M 19.3 124.25
Q 16.35 125.95 16.85 128.5 22.65 158.3 25.95 189.3 23.85 209.8 27.5 229.75 33.75 263.95 67.2 260.5 92.8 257.6 101.3 234.25 106.2 220.85 102.7 206.45 91.55 160.45 82.2 114.35 81.4 110.4 77.9 110.3 48.3 107.65 19.3 124.25
M 79.15 126.95
L 79.9 131.9
Q 84.9 162.85 89.4 193.9 91.35 207.55 93.25 220.95 97.4 250.5 61.35 249.6 52.65 250.45 45.8 245.1 39.406640625 240.0705078125 39.05 232.5 41.3546875 235.4861328125 50.15 235.45 50.6 235.05 50.9 234.55 56.9 224.85 47.1 219.25 44.7 218.8 43.35 220.4 40.6916015625 223.499609375 39.4 225.95 42.584375 183.5755859375 33.4 142.15 54.35 128.55 79.15 126.95
M 69.4 111.65
L 77 113.4 78.3 121.7 69.95 122.1
Q 69.1 122.2 68.3 122.35 53.1 125.7 39.65 133.55
L 32.15 138.3 29 128.9 39.9 123.05 69.4 111.65
M 46.65 224.25
L 48.65 228.75 46.85 232.55 43.25 231.7
Q 41.2 230.55 41.05 228.05 41 227.3 41.15 226.5 41.25 226.1 41.4 225.7
L 46.65 224.25 Z"/>

<path fill="#666666" stroke="none" d="
M 44.8 229.6
Q 43.25 230.5 43.25 231.7
L 46.85 232.55 48.65 228.75
Q 46.4 228.75 44.8 229.6
M 68.3 122.35
Q 69.1 122.2 69.95 122.1
L 69.4 111.65 39.9 123.05 39.65 133.55
Q 53.1 125.7 68.3 122.35 Z"/>

<path fill="#CCCCCC" stroke="none" d="
M 48.65 228.75
L 46.65 224.25 41.4 225.7
Q 41.25 226.1 41.15 226.5 41 227.3 41.05 228.05 41.2 230.55 43.25 231.7 43.25 230.5 44.8 229.6 46.4 228.75 48.65 228.75
M 39.65 133.55
L 39.9 123.05 29 128.9 32.15 138.3 39.65 133.55
M 77 113.4
L 69.4 111.65 69.95 122.1 78.3 121.7 77 113.4 Z"/>

<path fill="#0099FF" stroke="none" d="
M 51 237.2
Q 50.55 236.35 50.15 235.45 41.3546875 235.4861328125 39.05 232.5 39.406640625 240.0705078125 45.8 245.1 52.65 250.45 61.35 249.6 54.75 244.65 51 237.2
M 79.9 131.9
L 79.15 126.95
Q 54.35 128.55 33.4 142.15 42.584375 183.5755859375 39.4 225.95 40.6916015625 223.499609375 43.35 220.4 44.7 218.8 47.1 219.25 57.35 180.8 43.9 143.75 43.8 143.45 43.85 143.1 59.45 129.65 79.9 131.9 Z"/>

<path fill="#3333CC" stroke="none" d="
M 79.9 131.9
Q 59.45 129.65 43.85 143.1 43.8 143.45 43.9 143.75 57.35 180.8 47.1 219.25 56.9 224.85 50.9 234.55 50.6 235.05 50.15 235.45 50.55 236.35 51 237.2 54.75 244.65 61.35 249.6 97.4 250.5 93.25 220.95 91.35 207.55 89.4 193.9 84.9 162.85 79.9 131.9 Z"/>
</g>

<g id="Duplicate_Items_Folder_Crossbow_weap_1_Layer1_0_FILL">
<path fill="#000000" stroke="none" d="
M 105.55 -56.2
Q 104.9 -57.5 104.75 -58.9 104.3 -63 101.9 -65.5 100.15 -66 98.95 -64.85 96.2 -62.25 95 -58.65 90.3 -44.4 90.6 -29.2 90.6498046875 -26.3017578125 92.7 -21.85 94.750390625 -17.3947265625 98.25 -12.3 101.7494140625 -7.2052734375 102.45 3.95 103.15 15.1517578125 102 21.3 101.25 22 100.45 22.6 93.8 27.85 86.1 23.8 85.5974609375 23.5259765625 85.1 23.25 80.15234375 20.4482421875 75.7 16.95 74.7 16.15 73.55 15.6 43.6 17.4 13.65 18.9 3.6 29.65 -3.3 42.85 -2.7 44.8 -1 45.6 3.55 47.55 8.65 46.85 16.4 39.9 26.5 42.05 28.8 47.4 34.05 50.05 35.2 50.6 36.45 50.55 60.7318359375 53.0162109375 85.1 53.2 92.8455078125 53.3068359375 100.6 53.15
L 100.5 56 101.85 56
Q 102.75 68.9 97.4 80.45 94.8 86.1 93.15 92.1 90 103.4 94.6 114.25 97.85 122 102.55 128.85 103.7 130.5 105.7 130.15 107.3 129.5 107.2 127.9 106.6 115.4 113.9 105.75 115.95 103 118.4 100.4 122.35 96.2 125.65 91.55 126.55 90.3 127.25 88.95 135.3 73.55 136.25 56 139.2 56 141.45 55.95 149.5 55.85 154.45 49.55 157.8 45.6 159.65 40.9 164.35 29.05 167.7 16.95 168 15.8 167.35 15.2 164.4 12.65 160.35 12.5 150.45 11.5 142 10.65 142.6376953125 2.795703125 141.45 -5.05 140.8689453125 -8.837109375 139.85 -12.65 138.6 -17.4 135.65 -21.25 129.1 -29.85 120.75 -37.05 111.3 -45.2 105.55 -56.2
M 104.95 -39.3
Q 108.35 -33.25 113.75 -29.15 124.3 -21.2 129.85 -9.8 132.25 -3.05 132.3 4 132.3 9.3 131.55 14
L 130.35 56 129.65 56
Q 129.15 59.55 128.65 63.15 127.85 68.75 126.55 74.5 124.6 83.2 118.55 89.45 113.2 94.95 108.45 100.8 106 103.75 105.1 107.25 104.1 111.2 102.6 114.95
L 102.05 112.8
Q 101.15 108.5 100.45 104.25 98.7 93.9 103.65 84.7 108.8 75 110.5 64.15 111.15 60.05 111.1 43.05
L 110 56 111.7 23.7
Q 111.6 18.75 111.65 13.75 111.8 5.2 110.2 -4
L 109.65 -7.2
Q 109.4 -8.45 109.1 -9.75 108.6 -11.75 107.35 -13.55 102.4 -20.8 99 -29 95.45 -40.85 99.15 -52.7 101.4 -45.65 104.95 -39.3
M 152.3 20.25
L 158.3 20.5
Q 153.95 31.9 149.55 43.25 149.2 44.2 148.7 45.05 148.15 45.85 147.5 46.6
L 136.75 45.35 137.1 27.55 137.95 19.75 152.3 20.25
M 85.1 34.2
Q 86.9283203125 34.6375 88.9 34.8 90.95 34.65 92.95 34.3 98.85 33.05 103.85 29.75 104.9 29 106 28.3
L 105.2 45.2 32.75 43
Q 32.35 42.6 32.1 42.15 31.45 41.25 30.7 40.55 23.65 34 14.75 37.9 10.9 39.5 7.65 41.8
L 2.05 41.3 12.2 28.35 15.8 23.8 72.25 25.9
Q 72.95 26.75 73.75 27.55 78.4892578125 32.641796875 85.1 34.2 Z"/>

<path fill="#793C00" stroke="none" d="
M 92.95 34.3
Q 90.95 34.65 88.9 34.8
L 78.55 40.2
Q 72.2 36.3 67.05 30.1 65.75 28.55 63.95 28.55 51.05 28.35 38.15 28.35 25.2 28.35 12.2 28.35
L 2.05 41.3 7.65 41.8
Q 10.9 39.5 14.75 37.9 23.65 34 30.7 40.55 31.45 41.25 32.1 42.15 32.35 42.6 32.75 43
L 105.2 45.2 106 28.3
Q 104.9 29 103.85 29.75 98.85 33.05 92.95 34.3
M 158.3 20.5
L 152.3 20.25
Q 151.75 22.7 150.95 25 150.65 25.8 149.95 26.05 145.80078125 26.953515625 141.45 27.3 139.299609375 27.500390625 137.1 27.55
L 136.75 45.35 147.5 46.6
Q 148.15 45.85 148.7 45.05 149.2 44.2 149.55 43.25 153.95 31.9 158.3 20.5 Z"/>

<path fill="#CC6600" stroke="none" d="
M 88.9 34.8
Q 86.9283203125 34.6375 85.1 34.2 78.4892578125 32.641796875 73.75 27.55 72.95 26.75 72.25 25.9
L 15.8 23.8 12.2 28.35
Q 25.2 28.35 38.15 28.35 51.05 28.35 63.95 28.55 65.75 28.55 67.05 30.1 72.2 36.3 78.55 40.2
L 88.9 34.8
M 137.1 27.55
Q 139.299609375 27.500390625 141.45 27.3 145.80078125 26.953515625 149.95 26.05 150.65 25.8 150.95 25 151.75 22.7 152.3 20.25
L 137.95 19.75 137.1 27.55 Z"/>

<path fill="#3333CC" stroke="none" d="
M 129.85 -9.8
Q 129 -7.7 128.35 -5.5 127.15 -1.35 126.85 2.9 126.4 8.85 126.2 14.9 122.1 14.9 119.05 17.2 117.6 18.3 117.55 20.25 117.25 33.6 116.85 46.95 116.8 47.85 117.2 48.65 119.25 52.6 124.15 51.95 123.8 53.55 123.7 55.2 123.45 59.15 123.8 63.2 124.85 76.1 117.1 86.35 115.35 88.6 113.1 90.4 102 98.9 102.05 112.8
L 102.6 114.95
Q 104.1 111.2 105.1 107.25 106 103.75 108.45 100.8 113.2 94.95 118.55 89.45 124.6 83.2 126.55 74.5 127.85 68.75 128.65 63.15 129.15 59.55 129.65 56
L 130.35 56 131.55 14
Q 132.3 9.3 132.3 4 132.25 -3.05 129.85 -9.8
M 107.35 -13.55
Q 108.6 -11.75 109.1 -9.75 109.4 -8.45 109.65 -7.2
L 110.2 -4
Q 111.8 5.2 111.65 13.75 111.6 18.75 111.7 23.7 112.85 24.25 113.25 23.25 114.5 20.4 114.75 17.05 115.75 4.7 114.4 -7.6 113.95 -11.8 111.65 -15.4 106.55 -23.3 99 -29 102.4 -20.8 107.35 -13.55 Z"/>

<path fill="#0099FF" stroke="none" d="
M 113.75 -29.15
Q 108.35 -33.25 104.95 -39.3 101.4 -45.65 99.15 -52.7 95.45 -40.85 99 -29 106.55 -23.3 111.65 -15.4 113.95 -11.8 114.4 -7.6 115.75 4.7 114.75 17.05 114.5 20.4 113.25 23.25 112.85 24.25 111.7 23.7
L 110 56 111.1 43.05
Q 111.15 60.05 110.5 64.15 108.8 75 103.65 84.7 98.7 93.9 100.45 104.25 101.15 108.5 102.05 112.8 102 98.9 113.1 90.4 115.35 88.6 117.1 86.35 124.85 76.1 123.8 63.2 123.45 59.15 123.7 55.2 123.8 53.55 124.15 51.95 119.25 52.6 117.2 48.65 116.8 47.85 116.85 46.95 117.25 33.6 117.55 20.25 117.6 18.3 119.05 17.2 122.1 14.9 126.2 14.9 126.4 8.85 126.85 2.9 127.15 -1.35 128.35 -5.5 129 -7.7 129.85 -9.8 124.3 -21.2 113.75 -29.15 Z"/>
</g>

<g id="Duplicate_Items_Folder_Crossbow_cape_2_Layer1_0_FILL">
<path fill="#000000" stroke="none" d="
M 15.85 -3.1
Q 13.95 -4.25 12.75 -4.75 10.95 -5.45 9.45 -5.2 6.55 -4.7 3.65 -0.05 -1.9 8.65 -3.9 15.6 -4.85 18.55 -4.3 20.5 -3.8 22.15 -2 23.95 0.05 26 2.65 27.45 4.5 28.35 5.85 28.7 7.9 29.2 11.35 29.3 16.5 29.4 19 28.95 21.1583984375 28.6115234375 23.45 27.6 27.2791015625 27.8837890625 32.8 27.75 36.4 27.65 37.8 27.3 40.3 26.65 42.85 24.65 44.5 23.4 47.15 20.7 49.95 17.9 51.25 16.4 53.4 13.9 54.6 11.55 55.8 9.25 56 8.9 56.9 7.45 58 6.85 58.75 6.4 58.85 6.05 58.95 5.55 58.35 5.3 57.85 5.1 57.2 5.15
L 48.95 6.2
Q 44.6 6.8 42.7 7.7 42.5970703125 7.7642578125 42.5 7.8 41.858203125 7.4166015625 40.75 7.1 39.45 6.7 34.1 5.75 29.95 5.05 27.6 3.9 26.25 3.25 24.65 2.25
L 15.85 -3.1
M 41.85 11.95
L 43.4 11.15
Q 44.8 10.35 45.55 10.05 47.9 9.1 53 9.1 51.85 10.95 48.95 14.45 46.25 17.6 44.25 19.6
L 42.2 21.5
Q 40.65 22.9 39.5 23.45 37.9 24.3 35.6 24.6 34.25 24.75 31.5 24.75
L 27.65 24.7
Q 24.5 24.7 22.9 24.55 19.05 24.2 14.5 22.8 11.5 21.85 6.35 19.8 6.6447265625 18.62109375 6.95 17.45 8.8609375 10.93125 12 4.95
L 15.95 8.6
Q 18.5 10.8 19 11.15 20.7 12.4 23.25 13.5 28.0921875 15.6474609375 32.2 15.45 33 15.418359375 33.75 15.3 36.8 14.8 41.85 11.95
M 39.05 9.95
Q 35.85 11.85 31.95 12.1 28.05 12.3 24.6 10.75 22.1 9.65 19.35 7.3 19.26015625 7.2251953125 19.15 7.1 19.451171875 7.2677734375 19.75 7.4 21.4 8.15 22.75 8.55 24.3 9 26.3 9.25 33.5912109375 10.0654296875 40.45 9.05 39.6333984375 9.6 39.05 9.95
M 4.25 15.2
Q 4.4953125 14.6076171875 4.75 14 3.8271484375 16.519921875 3.5 18.1 3.5419921875 16.885546875 4.25 15.2 Z"/>

<path fill="#0099FF" stroke="none" d="
M 21 23.75
Q 23.45 24.65 26.05 24.35 30.5 23.85 34.3 20.15 30.25 21.3 26.05 20.8 21.75 20.3 18.15 18.25 16.1 17.1 16.15 15.75 16.2 15.4 16.65 15.45 17.05 15.5 17.4 15.75 18.8 16.7 21.1 17.05 25.8052734375 17.7517578125 32.2 15.45 28.0921875 15.6474609375 23.25 13.5 20.7 12.4 19 11.15 18.5 10.8 15.95 8.6
L 12 4.95
Q 8.8609375 10.93125 6.95 17.45 7.9123046875 17.7763671875 8.75 18.15
L 12.65 19.95
Q 14 20.55 16.7 21.5 17.35 21.8 18.85 22.65 20.2 23.4 21 23.75 Z"/>

<path fill="#3333CC" stroke="none" d="
M 43.4 11.15
L 41.85 11.95
Q 36.8 14.8 33.75 15.3 33 15.418359375 32.2 15.45 25.8052734375 17.7517578125 21.1 17.05 18.8 16.7 17.4 15.75 17.05 15.5 16.65 15.45 16.2 15.4 16.15 15.75 16.1 17.1 18.15 18.25 21.75 20.3 26.05 20.8 30.25 21.3 34.3 20.15 30.5 23.85 26.05 24.35 23.45 24.65 21 23.75 20.2 23.4 18.85 22.65 17.35 21.8 16.7 21.5 14 20.55 12.65 19.95
L 8.75 18.15
Q 7.9123046875 17.7763671875 6.95 17.45 6.6447265625 18.62109375 6.35 19.8 11.5 21.85 14.5 22.8 19.05 24.2 22.9 24.55 24.5 24.7 27.65 24.7
L 31.5 24.75
Q 34.25 24.75 35.6 24.6 37.9 24.3 39.5 23.45 40.65 22.9 42.2 21.5
L 44.25 19.6
Q 46.25 17.6 48.95 14.45 51.85 10.95 53 9.1 47.9 9.1 45.55 10.05 44.8 10.35 43.4 11.15 Z"/>
</g>

<g id="Duplicate_Items_Folder_Crossbow_cape_2_Layer0_0_FILL">
<path fill="#000000" stroke="none" d="
M 38.55 -43.1
Q 36.1 -43.3 34.25 -42 32.45 -40.65 30.65 -36.9
L 29.25 -33.95
Q 28.8 -33.15 28.45 -32.85 27.95 -32.5 26.7 -32.5 23 -32.3 21.6 -30.15 20.5 -28.55 20.95 -25.85 21.25 -23.9 22.35 -21.25 23.7 -18.35 24.3 -16.85 25.15 -14.7 25.15 -13.3 25.05 -11.1 23.5 -10.2 22.25 -9.75 21.7 -9.4 20.15 -8.5 19.95 -5.75 20.05 -2.9 19.7 -1.5 19.55 -0.8 19 0.2 18.35 1.45 18.2 1.85 17.43828125 3.6142578125 17.9 4.85 17.7580078125 5.262109375 17.65 5.55 16.85 7.65 14.75 11.3
L 9.2 20.65
Q 6.7 24.8 5.8 27.4 4.35 31.35 5.1 34.65 5.85 38.15 9.1 41.05 11.25 43 15.6 45.2 21.65 48.15 25.1 46.5 26.7 45.7 28 43.9 28.7 42.8 29.95 40.35 32.05 36.2 38.4 25.5
L 48.15 9.3
Q 49 7.85 49.3 6.95 49.75 5.55 49.35 4.5 49.054296875 3.736328125 48.2 3.05
L 54.75 -4.65
Q 54.911328125 -4.854296875 55.05 -5.05 55.1294921875 -4.9880859375 55.2 -4.95 55.8 -4.6 56.5 -4.65 58.1 -4.8 60.3 -5.65 61.55 -6.15 64 -7.15 65.7 -7.75 65.9 -7.85 66.95 -8.35 67.4 -9.1 68.0212890625 -10.0318359375 67.8 -11.4 67.83984375 -11.479296875 67.85 -11.55 68.15 -12.9 67.85 -13.75 67.732421875 -14.024609375 67.5 -14.3 70.5947265625 -17.534375 71.2 -20.7 71.6 -22.8 70.9 -24.75 70.15 -26.85 68.45 -27.9 67.15 -28.55 66.85 -29 66.55 -29.4 66.4 -30.1 66.3 -30.45 66.2 -31.25 65.95 -32.95 64.9 -34.45 63.85 -35.9 62.35 -36.65 60.8 -37.45 59.05 -37.45 57.25 -37.5 55.7 -36.7 55.85 -39.1 55 -41.1 54.05 -43.35 52.15 -44.2 49.9 -45.25 47 -44.1 45.45 -43.45 42.55 -41.3 41 -42.9 38.55 -43.1
M 36.85 -24.85
Q 36.9869140625 -29.0958984375 38.8 -32.8 38.8650390625 -32.776171875 38.9 -32.75 39.0966796875 -32.64453125 39.3 -32.6 39.405078125 -32.1107421875 39.45 -31.55 39.5361328125 -30.4744140625 39.8 -29.8 39.8513671875 -29.220703125 39.95 -28.9 40.15 -28.3 40.65 -27.95 41.2 -27.6 41.75 -27.8 42.2 -27.9 42.7 -28.6
L 47.15 -34.2
Q 47.192578125 -33.83359375 47.2 -33.45 47.003515625 -32.3701171875 47.05 -31.65 47.0580078125 -31.546484375 47.05 -31.45 46.5509765625 -28.1751953125 44.05 -24.25 42.8 -22.4 43.75 -21.65 44.45 -21 45.55 -21.8 46.05 -22.2 46.9 -23.2 47.7 -23.9 48.9 -24 48.15 -22.55 48.65 -20.85 49.05 -19.7 49.8 -19.7 50.35 -19.65 50.95 -20.25 51.7 -20.95 52.35 -22.15 52.75 -22.85 53.45 -24.3 54.9 -27 56.8 -27.5 56.9 -24.45 55.45 -21.9 54.6 -20.35 54.5 -19.75 54.4 -19.15 54.7 -18.55 55 -17.95 55.6 -17.85 56.15 -17.7 57.45 -18.65 59.6 -20.2 62.25 -20.2
L 62.8 -19.2
Q 61.35 -17.4 59.35 -16.15 58.25 -15.5 57.9 -15.05 57.15 -14.2 57.6 -13.35 58.1 -12.45 59.5 -12.75 59.7947265625 -12.8130859375 60.2 -12.95 60.33984375 -12.63125 60.6 -12.4 61.05 -12 61.65 -12 61.722265625 -12 61.8 -12 61.8716796875 -11.8671875 61.95 -11.75 59.5453125 -10.5107421875 56.65 -9.7 54.65 -9.15 54.4 -9.1 53.15 -8.65 52.35 -8.05 51.636328125 -7.52421875 50.5 -5.9 50.395703125 -5.94453125 50.25 -6 50.75 -6.65 50.4 -7.45 50.1 -8.3 49.3 -8.45 48.85 -8.55 47.25 -8.1 45.85 -7.75 45.4 -8.7 45.25 -9.05 45.45 -10.15 45.6 -11.05 45.2 -11.35 44.8 -11.55 44.05 -11.25
L 39.65 -9.5
Q 38.35 -11.4 38.6 -13.65 38.7 -14.7 38.4 -15 38.15 -15.25 37.35 -15.25 35.841015625 -15.19296875 34.45 -14.8 34.5353515625 -15.1087890625 34.55 -15.4 34.55 -16.4 33.8 -17.9
L 31.15 -23.45
Q 30.9498046875 -23.836328125 30.85 -24.15 31.3640625 -24.176171875 31.85 -24.35 31.973046875 -24.212109375 32.1 -24.1 33.071875 -23.4318359375 33.85 -23.5 33.9859375 -23.3369140625 34.1 -23.2 35.3 -22.2 36.2 -22.9 36.75 -23.3 36.85 -24.85
M 33.6 -12.9
Q 33.935546875 -12.7796875 34.35 -12.75 35.25 -12.75 36.55 -13.4 36.58359375 -13.0087890625 36.65 -12.65 36.8462890625 -11.3046875 37.35 -9.95 37.380078125 -9.901171875 37.4 -9.85 37.712109375 -9.0697265625 38.1 -8.6 38.5904296875 -7.9662109375 39.2 -7.8 39.5638671875 -7.7271484375 40 -7.8 40.446484375 -7.8765625 40.95 -8.1 41.0205078125 -8.1154296875 41.1 -8.15 42.55 -8.85 43.05 -8.9 42.79375 -8.0029296875 43.35 -7.25 43.4240234375 -7.188671875 43.45 -7.15 43.536328125 -7.063671875 43.6 -7 44.1 -6.5 45.4 -6 47.31953125 -5.405859375 48 -6.15 47.601171875 -5.5421875 48 -4.7 48.377734375 -3.94453125 49.05 -3.65 47.6642578125 -1.5642578125 45.9 0.2 45.3041015625 0.7958984375 45 1.25
L 45.35 1.4 37.25 -2.3 35.05 -3.3 31.9 -4.75 29.5 -5.85 29.55 -5.85 33.6 -12.9
M 25.85 -3.6
Q 27.0390625 -3.122265625 28.5 -2.5 30.425 -1.6962890625 32.8 -0.65 37.3328125 1.3373046875 43.6 4.2 44.8 4.8 45.25 5.25 45.9017578125 5.983203125 45.7 6.75 45.6833984375 6.9240234375 45.6 7.1 45 8.2 42.8 7.75
L 24.75 4.25 21.9 3.7 25.85 -3.6
M 51.55 -27.05
Q 51.3767578125 -27.428125 51.1 -27.7 51.5796875 -27.72890625 52.1 -27.9 51.8466796875 -27.4951171875 51.55 -27.05
M 43.55 10.55
L 40.55 15.55
Q 39.85 16.75 39.95 17.45 39.15 17.85 38.4 19.15
L 31.85 29.95
Q 31.05 31.35 28.65 36.1 26.75 39.95 25.3 42.1 24.4 43.35 23.65 43.7 22.9 44.05 21.45 43.75 17.35 42.9 12.65 39.45 10.9427734375 38.17734375 9.95 37 9.3412109375 36.2826171875 9 35.6 7.7 32.95 8.65 29.55 9.2 27.65 11.15 23.9
L 17.25 12.75
Q 18.4 10.6 18.7 9.55 18.9 8.45 19.05 7.85 19.3 6.9 19.7 6.3 22.0541015625 6.8322265625 24.5 7.3
L 31.3 8.6
Q 31.5837890625 8.654296875 31.85 8.7
L 43.55 10.55 Z"/>

<path fill="#CC6600" stroke="none" d="
M 23.55 7.15
Q 24.0435546875 7.2455078125 24.5 7.3 22.0541015625 6.8322265625 19.7 6.3 19.3 6.9 19.05 7.85 18.9 8.45 18.7 9.55 18.4 10.6 17.25 12.75
L 11.15 23.9
Q 9.2 27.65 8.65 29.55 7.7 32.95 9 35.6 9.3412109375 36.2826171875 9.95 37 10.8939453125 34.6552734375 11.95 32.2 14.15 27.1 19.1 16.3 21.6 10.9 22.9 8.45 23.2421875 7.7810546875 23.55 7.15
M 45.6 7.1
Q 45.6833984375 6.9240234375 45.7 6.75 41.040234375 5.1642578125 38.15 4.25 32.2626953125 2.392578125 27.15 1.1
L 27.1 1.1
Q 27.053125 1.1017578125 26.95 1.05
L 26.95 1.05
Q 25.8984375 2.7103515625 24.75 4.25
L 42.8 7.75
Q 45 8.2 45.6 7.1
M 38.65 -5.15
L 37.25 -2.3 45.35 1.4 45 1.25
Q 45.3041015625 0.7958984375 45.9 0.2 47.6642578125 -1.5642578125 49.05 -3.65 48.377734375 -3.94453125 48 -4.7 47.601171875 -5.5421875 48 -6.15 47.31953125 -5.405859375 45.4 -6 44.1 -6.5 43.6 -7 43.536328125 -7.063671875 43.45 -7.15 43.1703125 -6.8203125 42.85 -6.5
L 43.35 -7.25
Q 42.79375 -8.0029296875 43.05 -8.9 42.55 -8.85 41.1 -8.15 41.0205078125 -8.1154296875 40.95 -8.1 40.446484375 -7.8765625 40 -7.8 39.48125 -6.9046875 38.65 -5.15
M 38.1 -8.6
Q 37.712109375 -9.0697265625 37.4 -9.85 37.380078125 -9.901171875 37.35 -9.95 36.8462890625 -11.3046875 36.65 -12.65
L 34.3 -8.85
Q 32.80390625 -6.423828125 31.9 -4.75
L 35.05 -3.3
Q 36.3109375 -5.54765625 37.85 -8.15
L 38.1 -8.6 Z"/>

<path fill="#793C00" stroke="none" d="
M 40.55 15.55
L 43.55 10.55 31.85 8.7
Q 31.5837890625 8.654296875 31.3 8.6
L 24.5 7.3
Q 24.0435546875 7.2455078125 23.55 7.15 23.2421875 7.7810546875 22.9 8.45 21.6 10.9 19.1 16.3 14.15 27.1 11.95 32.2 10.8939453125 34.6552734375 9.95 37 10.9427734375 38.17734375 12.65 39.45 17.35 42.9 21.45 43.75 22.9 44.05 23.65 43.7 24.4 43.35 25.3 42.1 26.75 39.95 28.65 36.1 31.05 31.35 31.85 29.95
L 38.4 19.15
Q 39.15 17.85 39.95 17.45 39.85 16.75 40.55 15.55
M 43.45 -7.15
Q 43.4240234375 -7.188671875 43.35 -7.25
L 42.85 -6.5
Q 43.1703125 -6.8203125 43.45 -7.15
M 40 -7.8
Q 39.5638671875 -7.7271484375 39.2 -7.8 38.5904296875 -7.9662109375 38.1 -8.6
L 37.85 -8.15
Q 36.3109375 -5.54765625 35.05 -3.3
L 37.25 -2.3 38.65 -5.15
Q 39.48125 -6.9046875 40 -7.8
M 34.35 -12.75
Q 33.935546875 -12.7796875 33.6 -12.9
L 29.55 -5.85 29.5 -5.85 31.9 -4.75
Q 32.80390625 -6.423828125 34.3 -8.85
L 36.65 -12.65
Q 36.58359375 -13.0087890625 36.55 -13.4 35.25 -12.75 34.35 -12.75 Z"/>

<path fill="#FFCC00" stroke="none" d="
M 32.8 -0.65
Q 32.9642578125 -0.571484375 33.1 -0.5 32.5080078125 -0.3232421875 31.85 -0.15
L 27.55 1
Q 27.340234375 1.0576171875 27.15 1.1 32.2626953125 2.392578125 38.15 4.25 41.040234375 5.1642578125 45.7 6.75 45.9017578125 5.983203125 45.25 5.25 44.8 4.8 43.6 4.2 37.3328125 1.3373046875 32.8 -0.65 Z"/>

<path fill="#FFFFFF" stroke="none" d="
M 28.5 -2.5
Q 27.0390625 -3.122265625 25.85 -3.6
L 21.9 3.7 24.75 4.25
Q 25.8984375 2.7103515625 26.95 1.05
L 26.95 1.05
Q 27.053125 1.1017578125 27.1 1.1
L 27.15 1.1
Q 27.340234375 1.0576171875 27.55 1
L 31.85 -0.15
Q 32.5080078125 -0.3232421875 33.1 -0.5 32.9642578125 -0.571484375 32.8 -0.65 30.425 -1.6962890625 28.5 -2.5 Z"/>

<path fill="#0099FF" stroke="none" d="
M 38.8 -32.8
Q 36.9869140625 -29.0958984375 36.85 -24.85 36.75 -23.3 36.2 -22.9 35.3 -22.2 34.1 -23.2 33.9859375 -23.3369140625 33.85 -23.5 33.071875 -23.4318359375 32.1 -24.1 31.973046875 -24.212109375 31.85 -24.35 31.3640625 -24.176171875 30.85 -24.15 30.9498046875 -23.836328125 31.15 -23.45
L 33.8 -17.9
Q 34.55 -16.4 34.55 -15.4 34.5353515625 -15.1087890625 34.45 -14.8 35.841015625 -15.19296875 37.35 -15.25 38.15 -15.25 38.4 -15 38.7 -14.7 38.6 -13.65 38.35 -11.4 39.65 -9.5
L 44.05 -11.25
Q 44.8 -11.55 45.2 -11.35 45.6 -11.05 45.45 -10.15 45.25 -9.05 45.4 -8.7 45.85 -7.75 47.25 -8.1 48.85 -8.55 49.3 -8.45 50.1 -8.3 50.4 -7.45 50.75 -6.65 50.25 -6 50.395703125 -5.94453125 50.5 -5.9 51.636328125 -7.52421875 52.35 -8.05 53.15 -8.65 54.4 -9.1 54.65 -9.15 56.65 -9.7 59.5453125 -10.5107421875 61.95 -11.75 61.8716796875 -11.8671875 61.8 -12 61.722265625 -12 61.65 -12 61.05 -12 60.6 -12.4 60.33984375 -12.63125 60.2 -12.95 59.7947265625 -12.8130859375 59.5 -12.75 58.1 -12.45 57.6 -13.35 57.15 -14.2 57.9 -15.05 58.25 -15.5 59.35 -16.15 61.35 -17.4 62.8 -19.2
L 62.25 -20.2
Q 59.6 -20.2 57.45 -18.65 56.15 -17.7 55.6 -17.85 55 -17.95 54.7 -18.55 54.4 -19.15 54.5 -19.75 54.6 -20.35 55.45 -21.9 56.9 -24.45 56.8 -27.5 54.9 -27 53.45 -24.3 52.75 -22.85 52.35 -22.15 51.7 -20.95 50.95 -20.25 50.35 -19.65 49.8 -19.7 49.05 -19.7 48.65 -20.85 48.15 -22.55 48.9 -24 47.7 -23.9 46.9 -23.2 46.05 -22.2 45.55 -21.8 44.45 -21 43.75 -21.65 42.8 -22.4 44.05 -24.25 46.5509765625 -28.1751953125 47.05 -31.45 47.0580078125 -31.546484375 47.05 -31.65 47.003515625 -32.3701171875 47.2 -33.45 47.192578125 -33.83359375 47.15 -34.2
L 42.7 -28.6
Q 42.2 -27.9 41.75 -27.8 41.2 -27.6 40.65 -27.95 40.15 -28.3 39.95 -28.9 39.8513671875 -29.220703125 39.8 -29.8 39.5361328125 -30.4744140625 39.45 -31.55 39.405078125 -32.1107421875 39.3 -32.6 39.0966796875 -32.64453125 38.9 -32.75 38.8650390625 -32.776171875 38.8 -32.8 Z"/>
</g>

<g id="Duplicate_Items_Folder_Crossbow_body_5_Layer0_0_FILL">
<path fill="#000000" stroke="none" d="
M 46.5 19.5
Q 45.6 15 45.5 12.75 45.5 9.4 45.35 7.75 45.1 4.95 43.8 3.35 42.4 1.65 39.7 1 37.9 0.6 34.7 0.6
L 26.75 0.6
Q 19.85 0.6 16.4 0.9 13.65 1.1 12.65 2.2 11.9 2.95 11.4 4.9 8.1 17.9 6.95 24.5 6 29.55 6.25 32.75 6.5 35.55 8.2 40.85
L 9.4 44.55
Q 9.75 45.65 10.15 46.6 10.2 47.7 10.55 49.65 10.55 49.8 11 52.4 11.3 54.5 11.7 55.85 12.2 57.2 12.8 57.65 13.4 58.15 14.95 58.35 21.3 59.35 22.65 59.4 24.3 59.4 24.9 58.9 25.9 58.25 26 56.65 25.95 54.9 25.95 54.05 26.1 52 27.5 49.5 28.85 47 30.65 44.9 31.45 45.5 32.9 45.25 33.45 45.15 34.25 44.9 34.65 44.75 35.55 44.4 36.75 44 38.95 43.7 41.4 43.35 42.35 43.1 46.35 42.05 48.7 38.9 49.85 37.35 50.35 35.4 50.8 33.4 50.45 31.55 50.25 30.2 49.4 28.35 48.45 26.35 48.05 25.3 47.25 23.1 46.5 19.5
M 42.25 10.65
Q 42.225390625 12.68671875 42.55 15.35 42.887109375 18.112890625 43.6 21.55 44.45 25.3 45.3 27.35 45.8 28.45 46.85 30.7 47.65 32.65 47.5 34.15 47.3953125 35.3369140625 46.75 36.4 46.512109375 36.8623046875 46.15 37.3 45.05 38.65 43.4 39.5 42.05 40.2 40.1 40.75 39.65 40.9 36.65 41.6 34 42.25 32.25 43.2 33.55 41.9 35.1 40.75 35.85 40.15 36.75 39.7 38.05 39.05 38.2 38.95 38.95 38.3 38.95 37.6 38.85 36.75 38 36.4 37.4 36.15 36.45 36.35 35.25 36.65 33.35 38.15 29.55 41.2 27.95 43.3 27.6 43.75 25.75 46.95 25.672265625 47.0900390625 25.6 47.2 24.484375 49.2466796875 24.25 49.95
L 23.75 51.7
Q 23.3 54.15 23.35 56.5
L 23.3 56.5
Q 19.0712890625 56.3439453125 14.2 55.3 13.5 54.25 13.1 51.55
L 12.75 48.9
Q 12.8 48.75 12.85 48.6 13.1 47.9 12.95 47 12.5 43.95 11.5 40.75 10.6 38.1 10.15 36.75 9.35 34.4 9.15 32.65 8.843359375 29.671875 9.9 24.4 10.05 23.791015625 10.2 23.1 10.2234375 23.0166015625 10.25 22.9
L 14.05 6
Q 14.25 5.05 14.7 4.6 15.05 4.25 16.35 4.05 20.85 3.65 26.55 3.75 29.55 3.8 36.75 4.1 38.35 4.2 39.1 4.4 40.35 4.65 41.1 5.4 41.95 6.3 42.15 7.85 42.25 8.5 42.25 10.65 Z"/>

<path fill="#333333" stroke="none" d="
M 43.4 39.5
Q 45.05 38.65 46.15 37.3 46.512109375 36.8623046875 46.75 36.4 44.0794921875 37.0931640625 41.05 37.2 41.4 36.7 41.2 36.05 40.95 35.4 40.4 35.2 39.85 35 38.75 35.4 35.8 36.2 34.35 36.7 31.85 37.5 30.3 38.6 30.1 38.75 28.05 40.65 26.7 42 26.15 42.85 25.3 44.2 25.35 45.45 25.35 46.1166015625 25.6 47.2 25.672265625 47.0900390625 25.75 46.95 27.6 43.75 27.95 43.3 29.55 41.2 33.35 38.15 35.25 36.65 36.45 36.35 37.4 36.15 38 36.4 38.85 36.75 38.95 37.6 38.95 38.3 38.2 38.95 38.05 39.05 36.75 39.7 35.85 40.15 35.1 40.75 33.55 41.9 32.25 43.2 34 42.25 36.65 41.6 39.65 40.9 40.1 40.75 42.05 40.2 43.4 39.5
M 42.55 15.35
Q 42.225390625 12.68671875 42.25 10.65 42.25 8.5 42.15 7.85 41.95 6.3 41.1 5.4 40.35 4.65 39.1 4.4 38.35 4.2 36.75 4.1 29.55 3.8 26.55 3.75 20.85 3.65 16.35 4.05 15.05 4.25 14.7 4.6 14.25 5.05 14.05 6
L 10.25 22.9
Q 10.2234375 23.0166015625 10.2 23.1 10.05 23.791015625 9.9 24.4 8.843359375 29.671875 9.15 32.65 9.35 34.4 10.15 36.75 10.6 38.1 11.5 40.75 12.5 43.95 12.95 47 13.1 47.9 12.85 48.6 12.8 48.75 12.75 48.9
L 13.1 51.55
Q 13.5 54.25 14.2 55.3 19.0712890625 56.3439453125 23.3 56.5 22.55 56.0755859375 21.55 55.75 19.05 55.1 17.85 54.6 16.85 54.05 16.55 53.6 16.15 53 16.25 51.2 16.4 48.85 15.75 46.65 15 44.45 14.65 43.3 14.15 40.75 13.65 39.6 12.75 37.85 12.45 36.95 12 35.5 12.3 32.75 12.4 31.45 12.6 30.2
L 13.2 25.1
Q 13.3439453125 23.99609375 13.3 23.2 14.9505859375 22.5833984375 15.45 22.5 15.95 22.4 16.85 22.4 17.8 22.4 18.2 22.35 19.6 22.25 22.8 21.3
L 38 16.75
Q 40.3875 16.0416015625 42.55 15.35 Z"/>

<path fill="#666666" stroke="none" d="
M 43.6 21.55
Q 42.887109375 18.112890625 42.55 15.35 40.3875 16.0416015625 38 16.75
L 22.8 21.3
Q 19.6 22.25 18.2 22.35 17.8 22.4 16.85 22.4 15.95 22.4 15.45 22.5 14.9505859375 22.5833984375 13.3 23.2 13.3439453125 23.99609375 13.2 25.1
L 12.6 30.2
Q 12.4 31.45 12.3 32.75 12 35.5 12.45 36.95 12.75 37.85 13.65 39.6 14.15 40.75 14.65 43.3 15 44.45 15.75 46.65 16.4 48.85 16.25 51.2 16.15 53 16.55 53.6 16.85 54.05 17.85 54.6 19.05 55.1 21.55 55.75 22.55 56.0755859375 23.3 56.5
L 23.35 56.5
Q 23.3 54.15 23.75 51.7
L 24.25 49.95
Q 24.484375 49.2466796875 25.6 47.2 25.35 46.1166015625 25.35 45.45 25.3 44.2 26.15 42.85 26.7 42 28.05 40.65 30.1 38.75 30.3 38.6 31.85 37.5 34.35 36.7 35.8 36.2 38.75 35.4 39.85 35 40.4 35.2 40.95 35.4 41.2 36.05 41.4 36.7 41.05 37.2 44.0794921875 37.0931640625 46.75 36.4 47.3953125 35.3369140625 47.5 34.15 47.65 32.65 46.85 30.7 45.8 28.45 45.3 27.35 44.45 25.3 43.6 21.55 Z"/>
</g>

<g id="Duplicate_Items_Folder_Crossbow_head_top_1_Layer1_0_FILL">
<path fill="#000000" stroke="none" d="
M 39.7 -40.15
Q 31.7 -30.55 24.15 -20.55 18.6 -13.25 15.5 -4.55 14.5 -1.8 16.15 0.45 20.05 6 25.55 10.9 21.15 14.45 17.6 18.8 6.75 32.1 -3 46.15 -6.9 51.75 -5.5 58.45 -0.05 84.5 -0.6 111.05 -0.65 113.6 -1.2 116.1 -2.25 121 -1.35 125.5 -1.45 126.2 -1.25 126.85 1.35 134.35 9.65 134.25 11.65 134.7 13.6 135.4 24.55 139.5 36.4 139.55 48.7 140.25 60.95 139.3 61.1 139.3 61.3 139.3 62.2 139.6 63.2 139.65 66.35 140.25 69.55 139.75 77.75 139.15 85.05 135.75 87.7 134.45 88.35 131.85 88.75 130.15 88.55 128.45 85.35 98.65 91.9 69.45 94.35 58.4 90.85 47.8 90.1 45.45 88.35 43.6 80.45 35.3 72.9 26.8 65.25 18.3 57.9 9.7 62.25 4.75 66.75 -0.25 68 -1.55 68.5 -3.1 68.9 -4.4 68.4 -5.5 64.95 -13.1 61.1 -20.4 54.45 -32.85 44.55 -42.7 43.8 -43.45 42.6 -43.4 42.1 -43.05 41.75 -42.6 40.65 -41.3 39.7 -40.15
M 24.9 -4.2
Q 27.3 -8.65 29.85 -12.95 31.4 -15.55 33.25 -17.85 37.9 -23.85 42.1 -30.6
L 42.25 -30.75
Q 43.6 -28.25 45.6 -25.2 46.8 -23.35 47.9 -21.25 52.4 -12.5 58.25 -4.7
L 57.35 -3.65 49.2 5.8 42.4 -6.25 38.95 -3.05 33.9 5.6 24.55 -3.4 24.9 -4.2
M 83.25 53.25
Q 83.2 54.7 82.9 56.1 81.3 63.15 80.25 70.3 78.8 80 76.95 89.55 76 94.6 75.4 99.75 73.95 112.6 74 125.55
L 74.15 131.25
Q 73.65 131.45 73.15 131.6 65.15 135.15 56.55 134.85 55.45 134.85 54.3 134.85 49.65 134.7 44.8 134.8 32.45 135.55 20.55 132.5 20.8 131 20.95 129.5 21.75 120.2 21 110.85 20.15 99.65 19.1 88.5 17.95 76.6 16.75 64.8 16.4 61.25 15.55 57.9 14.2 52.8 18.75 50.95 20.15 50.45 21.5 49.95 28.55 47.3 35.95 46.75 37.95 46.55 39.95 46.4 47.65 45.7 55.4 45.7 57.55 45.7 59.7 46.1 65.5 46.85 70.95 46.6
L 83.25 53.25
M 41.1 0.05
L 41.6 1.1 56.05 23.65 76 44.35
Q 75.1 43.95 74.25 43.55 69.6 41.8 64.4 41.85
L 63.7 41.75 52.9 41.15
Q 50 41.3 47.15 41.35 35.3 41.5 23.9 44.25 19.6 45.8 15.35 47.45 13.35 48.25 12.1 50.05 10.65 52.15 10.95 54.7 13.25 75.05 15.65 95.4 16.15 99.75 16.4 103.85
L 18.75 131.9 13.2 129.25
Q 11.15 128.2 10 126.4 9.7 125.85 9.65 125.3 9.4 120.95 9.7 115.95 10.55 100.65 8.75 85.3 7.05 70.8 4.85 56
L 9.85 50.6 5.5 51.65
Q 6.1 50.3 6.8 49.05 9.95 43.2 13.75 37.75 21.65 26.6 29.8 15.5 31 13.9 32.3 12.5 37.45 6.8 41.1 0.05
M 79.85 128.7
L 76.1 130.4 77.75 111 79.85 128.7
M 53.3 121.85
Q 53.3 122.9 54.05 123.65 54.8 124.4 55.85 124.4 56.9 124.4 57.65 123.65 58.4 122.9 58.4 121.85 58.4 120.8 57.65 120.05 56.9 119.3 55.85 119.3 54.8 119.3 54.05 120.05 53.3 120.8 53.3 121.85
M 56.15 110.3
Q 55.05 110.3 54.25 111.1 53.45 111.9 53.45 113 53.45 114.1 54.25 114.9 55.05 115.7 56.15 115.7 57.25 115.7 58.05 114.9 58.85 114.1 58.85 113 58.85 111.9 58.05 111.1 57.25 110.3 56.15 110.3
M 64.15 117.8
Q 63.15 117.8 62.45 118.5 61.75 119.25 61.75 120.25 61.75 121.25 62.45 121.95 63.15 122.7 64.15 122.7 65.15 122.7 65.85 121.95 66.55 121.25 66.55 120.25 66.55 119.25 65.85 118.5 65.15 117.8 64.15 117.8
M 64.15 109.95
Q 63.15 109.95 62.45 110.65 61.75 111.4 61.75 112.4 61.75 113.4 62.45 114.1 63.15 114.85 64.15 114.85 65.15 114.85 65.85 114.1 66.55 113.4 66.55 112.4 66.55 111.4 65.85 110.65 65.15 109.95 64.15 109.95 Z"/>

<path fill="#333333" stroke="none" d="
M 76.1 130.4
L 79.85 128.7 77.75 111 76.1 130.4
M 74.25 43.55
Q 75.1 43.95 76 44.35
L 56.05 23.65 56.75 24.9 64.4 41.85
Q 69.6 41.8 74.25 43.55
M 41.6 1.1
L 41.1 0.05
Q 37.45 6.8 32.3 12.5 31 13.9 29.8 15.5 21.65 26.6 13.75 37.75 9.95 43.2 6.8 49.05 6.1 50.3 5.5 51.65
L 9.85 50.6 4.85 56
Q 7.05 70.8 8.75 85.3 10.55 100.65 9.7 115.95 9.4 120.95 9.65 125.3 9.7 125.85 10 126.4 11.15 128.2 13.2 129.25 16.35 119.35 16.3 109 16.3 106.45 16.4 103.85 16.15 99.75 15.65 95.4 13.25 75.05 10.95 54.7 10.65 52.15 12.1 50.05 13.35 48.25 15.35 47.45 19.6 45.8 23.9 44.25 28.7 33.05 33.8 21.9 38.2 12.2 41.35 1.85
L 41.6 1.1 Z"/>

<path fill="#666666" stroke="none" d="
M 16.4 103.85
Q 16.3 106.45 16.3 109 16.35 119.35 13.2 129.25
L 18.75 131.9 16.4 103.85
M 45.2 18.05
Q 43.25 9.9 41.35 1.85 38.2 12.2 33.8 21.9 28.7 33.05 23.9 44.25 35.3 41.5 47.15 41.35 50 41.3 52.9 41.15 48 29.95 45.2 18.05 Z"/>

<path fill="#CCCCCC" stroke="none" d="
M 63.7 41.75
L 64.4 41.85 56.75 24.9 63.7 41.75
M 29.85 -12.95
Q 27.3 -8.65 24.9 -4.2
L 37.4 -5.25 38.95 -3.05 42.4 -6.25 49.2 5.8 57.35 -3.65
Q 49.8 -3.9 44.4 -9.05 42.2 -11.2 42 -14.6 41.5 -22.7 42.1 -30.6 37.9 -23.85 33.25 -17.85 31.4 -15.55 29.85 -12.95 Z"/>

<path fill="#FFFFFF" stroke="none" d="
M 41.6 1.1
L 41.35 1.85
Q 43.25 9.9 45.2 18.05 48 29.95 52.9 41.15
L 63.7 41.75 56.75 24.9 56.05 23.65 41.6 1.1
M 82.9 56.1
Q 83.2 54.7 83.25 53.25
L 70.95 46.6
Q 65.5 46.85 59.7 46.1 57.55 45.7 55.4 45.7 47.65 45.7 39.95 46.4 37.95 46.55 35.95 46.75 43.65 47.35 51.1 47.65 62.4 48.25 72.4 53.1 75.15 54.5 74.7 57.35 73.3 65.8 72.75 74.55 71.9 87.45 72.4 100.4 72.9 112.95 74 125.55 73.95 112.6 75.4 99.75 76 94.6 76.95 89.55 78.8 80 80.25 70.3 81.3 63.15 82.9 56.1
M 42.25 -30.75
L 42.1 -30.6
Q 41.5 -22.7 42 -14.6 42.2 -11.2 44.4 -9.05 49.8 -3.9 57.35 -3.65
L 58.25 -4.7
Q 52.4 -12.5 47.9 -21.25 46.8 -23.35 45.6 -25.2 43.6 -28.25 42.25 -30.75 Z"/>

<path fill="#0099FF" stroke="none" d="
M 21.5 49.95
Q 20.15 50.45 18.75 50.95
L 25.65 127.2
Q 26 127.35 26.35 127.5 27.6 128 28.85 128.5 35.5 130.8 42.45 132.6 49.4 134.25 56.55 134.85 65.15 135.15 73.15 131.6 73.65 131.45 74.15 131.25
L 74 125.55
Q 72.9 112.95 72.4 100.4 71.9 87.45 72.75 74.55 73.3 65.8 74.7 57.35 75.15 54.5 72.4 53.1 62.4 48.25 51.1 47.65 43.65 47.35 35.95 46.75 28.55 47.3 21.5 49.95
M 62.45 110.65
Q 63.15 109.95 64.15 109.95 65.15 109.95 65.85 110.65 66.55 111.4 66.55 112.4 66.55 113.4 65.85 114.1 65.15 114.85 64.15 114.85 63.15 114.85 62.45 114.1 61.75 113.4 61.75 112.4 61.75 111.4 62.45 110.65
M 62.45 118.5
Q 63.15 117.8 64.15 117.8 65.15 117.8 65.85 118.5 66.55 119.25 66.55 120.25 66.55 121.25 65.85 121.95 65.15 122.7 64.15 122.7 63.15 122.7 62.45 121.95 61.75 121.25 61.75 120.25 61.75 119.25 62.45 118.5
M 54.25 111.1
Q 55.05 110.3 56.15 110.3 57.25 110.3 58.05 111.1 58.85 111.9 58.85 113 58.85 114.1 58.05 114.9 57.25 115.7 56.15 115.7 55.05 115.7 54.25 114.9 53.45 114.1 53.45 113 53.45 111.9 54.25 111.1
M 54.05 123.65
Q 53.3 122.9 53.3 121.85 53.3 120.8 54.05 120.05 54.8 119.3 55.85 119.3 56.9 119.3 57.65 120.05 58.4 120.8 58.4 121.85 58.4 122.9 57.65 123.65 56.9 124.4 55.85 124.4 54.8 124.4 54.05 123.65 Z"/>

<path fill="#3333CC" stroke="none" d="
M 18.75 50.95
Q 14.2 52.8 15.55 57.9 16.4 61.25 16.75 64.8 17.95 76.6 19.1 88.5 20.15 99.65 21 110.85 21.75 120.2 20.95 129.5 20.8 131 20.55 132.5 32.45 135.55 44.8 134.8 49.65 134.7 54.3 134.85 55.45 134.85 56.55 134.85 49.4 134.25 42.45 132.6 35.5 130.8 28.85 128.5 27.6 128 26.35 127.5 26 127.35 25.65 127.2
L 18.75 50.95 Z"/>

<path fill="#999999" stroke="none" d="
M 38.95 -3.05
L 37.4 -5.25 24.9 -4.2 24.55 -3.4 33.9 5.6 38.95 -3.05 Z"/>
</g>

<g id="Duplicate_Items_Folder_Crossbow_head_top_1_Layer0_0_FILL">
<path fill="#000000" stroke="none" d="
M 71.6 81.2
L 71.6 81.2
Q 71.2529296875 81.5345703125 70.8 82.35
L 68.55 86.6 68.4 86.5
Q 68.25 86.4 67.8 85.85 67.45 85.2 66.9 84.95 66.2 84.55 65.7 85.05 65 85.7 65.75 86.85 66.15 87.65 67.1 88.55 67.2310546875 88.6810546875 67.4 88.85
L 65.25 93
Q 64.9 93.9 65.25 94.15 66.9 93.55 68.85 91.2 69.04609375 90.942578125 69.25 90.65 69.9189453125 91.34140625 70.1 91.45 71.1 92.1 72 91.65 72.17890625 91.53984375 72.3 91.4 72.6087890625 91.1123046875 72.5 90.75 72.4642578125 90.4634765625 72.2 90.15 72.127734375 90.027734375 72 89.9
L 70.7 88.55
Q 71.3650390625 87.4912109375 71.95 86.35
L 71.95 86.35
Q 72.1158203125 86.0953125 72.25 85.85
L 73.05 84.25
Q 73.5 83.15 73.4 82.75 73.2 82.15 73.1 81.8 72.95 81.25 73.15 80.95 72.45 80.55 71.7 81.15 71.6591796875 81.1818359375 71.6 81.2
M 25.25 70.5
Q 25.75 71.35 27.05 72.75 29.25 74.85 30.45 75.8 31.75 76.9 32.4 77.6
L 37.25 84.65 27.9 96.85
Q 27.55 97.2 27.5 97.7 27.45 98.25 27.85 98.3
L 36 91.65
Q 38.3642578125 89.698046875 40.05 88.1 40.353125 88.4412109375 40.7 88.8 41.4 89.55 42.75 91.2 43.55 92.05 45.45 93.45 46.55 94.4 48.6 97.25 50.4 99.8 51.85 100.8 52.6 101.35 53.4 101.45 54.35 101.55 54.75 100.95 54.25 100.8 53.95 100.15 53.65 99.35 53.5 98.95 53.35 98.5 52.85 97.75 52.35 96.9 52.2 96.55 51.95 96.05 51.7 95.1 51.35 93.95 51.25 93.65 50.45 91.6 47.8 89.35 43.75 85.95 43.4 85.55 43.307421875 85.457421875 42.95 85.05 44.5552734375 83.0966796875 46.1 80.55 47.3 78.45 49.1 74.8 49.65 73.7 49.2 73.2 48.8 72.85 48.05 73.05 45.7 73.6 42.9 77.3
L 39.9 81.2
Q 39.3392578125 80.5712890625 38.6 79.75 35.5 76.2 33.9 74.95 33.05 74.25 31.25 73 29.45 71.75 28.6 71.05 26.95 69.7 25.8 68.45
L 24.9 68.15
Q 24.9 68.45 24.65 68.55 24.85 69.75 25.25 70.5 Z"/>
</g>

<g id="bannerman_warrior_head_topbannerman_1_Layer1_0_FILL">
<path fill="#000000" stroke="none" d="
M 51.3 -6.35
Q 49.9 -8.65 48.5 -9.2 45.55 -10.35 42 -5.9 30.25 8.15 19.85 24.3 17.85 27.35 17.4 29.4 16.9 31.5 17.45 34.15 17.85 35.9 18.95 38.8
L 1.95 46.25
Q -1.7 47.85 -3.6 49.1 -6.45 51 -7.8 53.4 -9.2 56 -9.2 59.65 -9.15 62.05 -8.4 66.2 -2.7 96.6 0.05 111.8 0.202734375 112.5638671875 0.4 113.1 0.3958984375 113.6134765625 0.7 114.1 1 114.55 2.15 115.2
L 3.8 115.8 6.7 115.8
Q 7.3283203125 116.0919921875 8.25 116.25 9.95 116.55 12.05 116.65 13.55 117.45 15.45 118.05 19 119.2 26.3 120.1
L 34.75 121.1
Q 37.9 121.55 41.25 121.85 54.9 123 68.25 119.4 73.8 118 74.6 117.85 77.1392578125 117.466796875 78.1 116.7 79.1177734375 117.08046875 80.5 116.85 82.1 116.8 83.75 116.3 85.15 116 85.8 115.3 86.35 114.75 86.75 113.5 87.85 109.65 87.75 105.7 87.65 101.85 87.75 100.9 88.2 98.8 88.35 97.7 88.5 96.55 88.35 94.65 88.2 92.35 88.2 91.6 88.2 90.3 88.6 87.8 88.773828125 85.6703125 88.65 81.65 89.4283203125 78.1666015625 90.55 72 91.6671875 65.825390625 91.3 61.55 90.938671875 57.28359375 90.8 53 90.6537109375 48.7052734375 84.55 45.1 80.45 42.7 72.6 40.2 74.25 39.6 75.1 37.8 75.9 36.1 75.6 34.15 75.45 32.55 74.55 30.7 74 29.6 72.7 27.55 58.4 4.9 51.3 -6.35
M 43.95 7.8
Q 44.928515625 5.231640625 45.75 2.55 47.071484375 7.7970703125 49.45 12.8 49.65390625 13.7099609375 50.05 14.15 50.1095703125 14.21796875 50.15 14.3 50.2640625 14.46796875 50.35 14.6
L 50.9 15.65
Q 51.9 17.5 54.15 21.1
L 56.2 24.4
Q 60.05 30.55 61.95 32.75 62.75 33.65 62.8 34.35 62.8353515625 34.77421875 62.6 35.35 62.496484375 35.586328125 62.35 35.85 60.1 40.05 56.45 43.5 54.65 45.3 54.3 46.2 53.620703125 46.1341796875 53 46.1 52.2240234375 46.028125 51.55 46 49.6935546875 45.9083984375 47.9 45.85 42.9595703125 45.7416015625 38.75 46 38.484375 46.0126953125 38.2 46 37.4216796875 46.087890625 36.6 46.2 34.05390625 41.064453125 30.65 36.6 30.111328125 35.8912109375 29.55 35.2 28.9 34.35 28.9 33.85 28.934375 33.43671875 29.25 32.95 29.39765625 32.7333984375 29.6 32.5 38.8703125 21.3419921875 43.95 7.8
M 32.05 51
Q 35.482421875 50.5408203125 38.6 50.35 45.7 49.9 54.55 50.55 55.7435546875 50.62734375 56.95 50.7 62.8419921875 51.1671875 68.9 51.95 69.1125 51.9787109375 69.3 52
L 73.45 52.6
Q 75.9 53 76.85 53.9 78 54.95 78.3 57.7 78.75 61.7 78.6 66.85 78.5 69.6 78.1 76 78.05859375 76.586328125 78 77.15
L 77.55 84.45
Q 77.537890625 84.6755859375 77.5 84.9 77.5060546875 85.23671875 77.5 85.55
L 77.3 89.2
Q 77.2107421875 90.969921875 77.15 92.55 77.1423828125 92.85703125 77.1 93.1
L 77.1 94.35
Q 77.1029296875 94.4447265625 77.1 94.55
L 77.05 96.65
Q 76.928125 105.56953125 77.6 113.05 77.469921875 113.0326171875 77.3 113 76.6591796875 113.0107421875 75.75 113.3 74.5400390625 113.655859375 73.4 113.95 68.1404296875 115.4779296875 64.4 116.3 57.1 117.85 51.4 118.15 45.6 118.5 38.25 117.95 34.1 117.65 25.15 116.55 23.6615234375 116.371484375 22.4 116.2 19.420703125 115.816015625 17.7 115.5 13.6 114.7 10.55 113.4 10.35 113.3 10.15 113.25 9.55 112.8 9.4 112.5 8.85 111.6 8.85 109.75 8.7111328125 103.5625 8.3 97.4 7.0373046875 79.251953125 3.3 61.5 2.8 59.3 3.4 58.3 4 57.45 6.1 56.8 14.4677734375 54.5736328125 19.45 53.35 20.9919921875 53.0171875 22.2 52.75 27.4115234375 51.6271484375 32.05 51 Z"/>

<path fill="#FFFFFF" stroke="none" d="
M 78.3 57.7
Q 78 54.95 76.85 53.9 75.9 53 73.45 52.6
L 69.3 52
Q 69.1125 51.9787109375 68.9 51.95 62.8419921875 51.1671875 56.95 50.7 55.7435546875 50.62734375 54.55 50.55
L 54.05 50.5
Q 53.9052734375 50.50859375 53.7 50.5 54.642578125 50.98046875 59.7 53.7 63.4 55.65 65.75 57.05
L 69.05 59.2
Q 69.3759765625 59.42265625 69.8 59.7 70.1228515625 62.8197265625 70.4 66.1 70.425 67.0880859375 70.55 68.4
L 71.3 77.75
Q 71.31171875 77.94375 71.3 78.15 71.25 79.3 71.55 81.5
L 72.05 86.15
Q 72.028515625 86.253125 71.95 86.35
L 71.95 86.35
Q 72.1134765625 88.3669921875 72.2 90.15 72.3287109375 90.2859375 72.4 90.4 72.4 90.6748046875 72.4 90.9
L 72.35 91.3
Q 72.3478515625 91.3765625 72.3 91.4 72.32421875 91.8447265625 72.35 92.25
L 72.3 93.8
Q 72.25 95.6 72.3 97.3
L 72.35 99.6
Q 72.45 103.05 72.65 104.2 72.71875 104.612109375 72.8 104.95 72.9037109375 109.0681640625 73.05 110.75
L 73.4 113.95
Q 74.5400390625 113.655859375 75.75 113.3 76.6591796875 113.0107421875 77.3 113 77.469921875 113.0326171875 77.6 113.05 76.928125 105.56953125 77.05 96.65
L 77.1 94.55
Q 77.1029296875 94.4447265625 77.1 94.35
L 77.1 93.1
Q 77.1423828125 92.85703125 77.15 92.55 77.2107421875 90.969921875 77.3 89.2
L 77.5 85.55
Q 77.5060546875 85.23671875 77.5 84.9 77.537890625 84.6755859375 77.55 84.45
L 78 77.15
Q 78.05859375 76.586328125 78.1 76 78.5 69.6 78.6 66.85 78.75 61.7 78.3 57.7
M 38.45 34.25
Q 38.45 33.6 37.4 33.6
L 29.25 32.95
Q 28.934375 33.43671875 28.9 33.85 28.9 34.35 29.55 35.2 30.111328125 35.8912109375 30.65 36.6 31.9947265625 36.4544921875 32.9 36.3 34.4990234375 36.0001953125 36.1 35.45 36.8990234375 35.2169921875 37.7 34.9 38.4 34.7 38.45 34.25
M 45.75 2.55
Q 44.928515625 5.231640625 43.95 7.8 44.038671875 10.48671875 44.1 12.65 44.45 22.8826171875 44.45 23.05 44.65 28.05 45.05 30 45.55 31.9 46.25 32.85 47.35 34.15 49.35 34.5 50.1 34.65 51.15 34.7 51.75 34.75 52.95 34.75 54.570703125 34.75 58.2 35 54.8390625 39.0123046875 52 41.7 49.1 44.5 48.55 45.1 48.236328125 45.4572265625 47.9 45.85 49.6935546875 45.9083984375 51.55 46 52.2240234375 46.028125 53 46.1 53.620703125 46.1341796875 54.3 46.2 54.65 45.3 56.45 43.5 60.1 40.05 62.35 35.85 62.496484375 35.586328125 62.6 35.35 62.8353515625 34.77421875 62.8 34.35 62.75 33.65 61.95 32.75 60.05 30.55 56.2 24.4
L 54.15 21.1
Q 51.9 17.5 50.9 15.65
L 50.35 14.6
Q 50.2640625 14.46796875 50.15 14.3 50.1095703125 14.21796875 50.05 14.15 49.65390625 13.7099609375 49.45 12.8 47.071484375 7.7970703125 45.75 2.55 Z"/>

<path fill="#666666" stroke="none" d="
M 20.55 65.7
Q 20.565234375 65.466015625 20.55 65.25 19.961328125 58.9103515625 19.65 55.45 19.6283203125 55.125390625 19.6 54.8 19.5310546875 54.076171875 19.45 53.35 14.4677734375 54.5736328125 6.1 56.8 4 57.45 3.4 58.3 2.8 59.3 3.3 61.5 7.0373046875 79.251953125 8.3 97.4 8.7111328125 103.5625 8.85 109.75 8.85 111.6 9.4 112.5 9.55 112.8 10.15 113.25 10.35 113.3 10.55 113.4 13.6 114.7 17.7 115.5 19.420703125 115.816015625 22.4 116.2
L 22.25 114.55
Q 22.0478515625 112.270703125 21.85 110.2 22.0103515625 110.2708984375 22.15 110.35
L 21.95 109.65
Q 21.5818359375 108.2697265625 21.55 106 21.1794921875 105.6236328125 20.8 105.25 20.98828125 105.405859375 21.15 105.55
L 20.45 75.45
Q 20.3642578125 69.91953125 19.95 66.3 20.269140625 65.9916015625 20.55 65.7 Z"/>

<path fill="#999999" stroke="none" d="
M 38.6 50.35
Q 35.482421875 50.5408203125 32.05 51 27.4115234375 51.6271484375 22.2 52.75 20.9919921875 53.0171875 19.45 53.35 19.5310546875 54.076171875 19.6 54.8 19.6283203125 55.125390625 19.65 55.45 19.961328125 58.9103515625 20.55 65.25 20.565234375 65.466015625 20.55 65.7 20.269140625 65.9916015625 19.95 66.3 20.3642578125 69.91953125 20.45 75.45
L 21.15 105.55
Q 20.98828125 105.405859375 20.8 105.25 21.1794921875 105.6236328125 21.55 106 21.5818359375 108.2697265625 21.95 109.65
L 22.15 110.35
Q 22.0103515625 110.2708984375 21.85 110.2 22.0478515625 112.270703125 22.25 114.55
L 22.4 116.2
Q 23.6615234375 116.371484375 25.15 116.55 34.1 117.65 38.25 117.95 45.6 118.5 51.4 118.15 57.1 117.85 64.4 116.3 68.1404296875 115.4779296875 73.4 113.95
L 73.05 110.75
Q 72.9037109375 109.0681640625 72.8 104.95 72.71875 104.612109375 72.65 104.2 72.45 103.05 72.35 99.6
L 72.3 97.3
Q 72.25 95.6 72.3 93.8
L 72.35 92.25
Q 72.32421875 91.8447265625 72.3 91.4 72.3478515625 91.3765625 72.35 91.3
L 72.4 90.9
Q 72.4 90.6748046875 72.4 90.4 72.3287109375 90.2859375 72.2 90.15 72.1134765625 88.3669921875 71.95 86.35
L 71.95 86.35
Q 72.028515625 86.253125 72.05 86.15
L 71.55 81.5
Q 71.25 79.3 71.3 78.15 71.31171875 77.94375 71.3 77.75
L 70.55 68.4
Q 70.425 67.0880859375 70.4 66.1 70.1228515625 62.8197265625 69.8 59.7 69.3759765625 59.42265625 69.05 59.2
L 65.75 57.05
Q 63.4 55.65 59.7 53.7 54.642578125 50.98046875 53.7 50.5 53.9052734375 50.50859375 54.05 50.5
L 54.55 50.55
Q 45.7 49.9 38.6 50.35 Z"/>

<path fill="#CCCCCC" stroke="none" d="
M 44.45 23.05
Q 44.45 22.8826171875 44.1 12.65 44.038671875 10.48671875 43.95 7.8 38.8703125 21.3419921875 29.6 32.5 29.39765625 32.7333984375 29.25 32.95
L 37.4 33.6
Q 38.45 33.6 38.45 34.25 38.4 34.7 37.7 34.9 36.8990234375 35.2169921875 36.1 35.45 34.4990234375 36.0001953125 32.9 36.3 31.9947265625 36.4544921875 30.65 36.6 34.05390625 41.064453125 36.6 46.2 37.4216796875 46.087890625 38.2 46 38.484375 46.0126953125 38.75 46 42.9595703125 45.7416015625 47.9 45.85 48.236328125 45.4572265625 48.55 45.1 49.1 44.5 52 41.7 54.8390625 39.0123046875 58.2 35 54.570703125 34.75 52.95 34.75 51.75 34.75 51.15 34.7 50.1 34.65 49.35 34.5 47.35 34.15 46.25 32.85 45.55 31.9 45.05 30 44.65 28.05 44.45 23.05 Z"/>
</g>

<g id="bannerman_warrior_head_topbannerman_1_Layer0_0_FILL">
<path fill="#000000" stroke="none" d="
M 71.6 81.2
L 71.6 81.2
Q 71.2529296875 81.5345703125 70.8 82.35
L 68.55 86.6 68.4 86.5
Q 68.25 86.4 67.8 85.85 67.45 85.2 66.9 84.95 66.2 84.55 65.7 85.05 65 85.7 65.75 86.85 66.15 87.65 67.1 88.55 67.2310546875 88.6810546875 67.4 88.85
L 65.25 93
Q 64.9 93.9 65.25 94.15 66.9 93.55 68.85 91.2 69.04609375 90.942578125 69.25 90.65 69.9189453125 91.34140625 70.1 91.45 71.1 92.1 72 91.65 72.17890625 91.53984375 72.3 91.4 72.6087890625 91.1123046875 72.5 90.75 72.4642578125 90.4634765625 72.2 90.15 72.127734375 90.027734375 72 89.9
L 70.7 88.55
Q 71.3650390625 87.4912109375 71.95 86.35
L 71.95 86.35
Q 72.1158203125 86.0953125 72.25 85.85
L 73.05 84.25
Q 73.5 83.15 73.4 82.75 73.2 82.15 73.1 81.8 72.95 81.25 73.15 80.95 72.45 80.55 71.7 81.15 71.6591796875 81.1818359375 71.6 81.2
M 25.25 70.5
Q 25.75 71.35 27.05 72.75 29.25 74.85 30.45 75.8 31.75 76.9 32.4 77.6
L 37.25 84.65 27.9 96.85
Q 27.55 97.2 27.5 97.7 27.45 98.25 27.85 98.3
L 36 91.65
Q 38.3642578125 89.698046875 40.05 88.1 40.353125 88.4412109375 40.7 88.8 41.4 89.55 42.75 91.2 43.55 92.05 45.45 93.45 46.55 94.4 48.6 97.25 50.4 99.8 51.85 100.8 52.6 101.35 53.4 101.45 54.35 101.55 54.75 100.95 54.25 100.8 53.95 100.15 53.65 99.35 53.5 98.95 53.35 98.5 52.85 97.75 52.35 96.9 52.2 96.55 51.95 96.05 51.7 95.1 51.35 93.95 51.25 93.65 50.45 91.6 47.8 89.35 43.75 85.95 43.4 85.55 43.307421875 85.457421875 42.95 85.05 44.5552734375 83.0966796875 46.1 80.55 47.3 78.45 49.1 74.8 49.65 73.7 49.2 73.2 48.8 72.85 48.05 73.05 45.7 73.6 42.9 77.3
L 39.9 81.2
Q 39.3392578125 80.5712890625 38.6 79.75 35.5 76.2 33.9 74.95 33.05 74.25 31.25 73 29.45 71.75 28.6 71.05 26.95 69.7 25.8 68.45
L 24.9 68.15
Q 24.9 68.45 24.65 68.55 24.85 69.75 25.25 70.5 Z"/>
</g>

<g id="bannerman_warrior_capebannerman_2_Layer0_0_FILL">
<path fill="#000000" stroke="none" d="
M 14.1 -4.5
Q 12.85 -5.8 12.65 -6 11.8 -6.75 10.9 -7 9.8 -7.25 8.15 -6.65 6.75 -6.05 6 -5.1 5.25 -4.15 5.3 -2.5 5.45 -0.55 5.5 0.35 5.65 3.1 4.25 6.6 3.45 8.65 1.6 12.6 0.3 15.85 0.25 18.1 0.15 21.35 1.95 23.35 3 24.55 5.35 25.7 8.75 27.4 11.85 28.5 13.85 29.2 17.95 30.3 25.7 32.3 30.55 31.6 33.85 31.2 38.55 29.25 44.85 26.75 47.8 24.15 51.65 20.85 54.15 14.7 55.05546875 12.625 54.75 11.2 55.8142578125 9.2251953125 56 8.9 56.9 7.45 58 6.85 58.75 6.4 58.85 6.05 58.95 5.55 58.35 5.3 57.85 5.1 57.2 5.15
L 53.25 5.65
Q 53.2546875 5.4978515625 53.2 5.35 52.9 4.5 51.9 4.2 51.05 3.95 50 4.15 48.3 4.45 44.8 5.95 41.5 7.35 39.6 7.6 36.85 7.95 33.7 6.95 31.85 6.3 31.25 6 29.55 5.15 28.7 4.75 26.45 3.75 25.3 3.2 23.55 2.35 20.8 0.55 16.2 -2.2 14.1 -4.5
M 41.85 11.95
L 43.4 11.15
Q 44.8 10.35 45.55 10.05 47.9 9.1 53 9.1 51.85 10.95 48.95 14.45 46.25 17.6 44.25 19.6
L 42.2 21.5
Q 40.65 22.9 39.5 23.45 37.9 24.3 35.6 24.6 34.25 24.75 31.5 24.75
L 27.65 24.7
Q 24.5 24.7 22.9 24.55 19.05 24.2 14.5 22.8 11.5 21.85 6.35 19.8 6.6447265625 18.62109375 6.95 17.45 8.8609375 10.93125 12 4.95
L 15.95 8.6
Q 18.5 10.8 19 11.15 20.7 12.4 23.25 13.5 28.0921875 15.6474609375 32.2 15.45 33 15.418359375 33.75 15.3 35.7064453125 14.979296875 38.45 13.7 40.0392578125 12.971875 41.85 11.95 Z"/>

<path fill="#0099FF" stroke="none" d="
M 26.05 24.35
Q 28.1083984375 24.11875 30 23.2 32.2576171875 22.138671875 34.3 20.15 30.25 21.3 26.05 20.8 21.75 20.3 18.15 18.25 16.1 17.1 16.15 15.75 16.2 15.4 16.65 15.45 17.05 15.5 17.4 15.75 18.8 16.7 21.1 17.05 25.8052734375 17.7517578125 32.2 15.45 28.0921875 15.6474609375 23.25 13.5 20.7 12.4 19 11.15 18.5 10.8 15.95 8.6
L 12 4.95
Q 8.8609375 10.93125 6.95 17.45 7.9123046875 17.7763671875 8.75 18.15
L 12.65 19.95
Q 13.6478515625 20.3935546875 15.35 21 15.9958984375 21.2521484375 16.7 21.5 17.35 21.8 18.85 22.65 20.2 23.4 21 23.75 23.45 24.65 26.05 24.35 Z"/>

<path fill="#3333CC" stroke="none" d="
M 43.4 11.15
L 41.85 11.95
Q 40.0392578125 12.971875 38.45 13.7 35.7064453125 14.979296875 33.75 15.3 33 15.418359375 32.2 15.45 25.8052734375 17.7517578125 21.1 17.05 18.8 16.7 17.4 15.75 17.05 15.5 16.65 15.45 16.2 15.4 16.15 15.75 16.1 17.1 18.15 18.25 21.75 20.3 26.05 20.8 30.25 21.3 34.3 20.15 32.2576171875 22.138671875 30 23.2 28.1083984375 24.11875 26.05 24.35 23.45 24.65 21 23.75 20.2 23.4 18.85 22.65 17.35 21.8 16.7 21.5 15.9958984375 21.2521484375 15.35 21 13.6478515625 20.3935546875 12.65 19.95
L 8.75 18.15
Q 7.9123046875 17.7763671875 6.95 17.45 6.6447265625 18.62109375 6.35 19.8 11.5 21.85 14.5 22.8 19.05 24.2 22.9 24.55 24.5 24.7 27.65 24.7
L 31.5 24.75
Q 34.25 24.75 35.6 24.6 37.9 24.3 39.5 23.45 40.65 22.9 42.2 21.5
L 44.25 19.6
Q 46.25 17.6 48.95 14.45 51.85 10.95 53 9.1 47.9 9.1 45.55 10.05 44.8 10.35 43.4 11.15 Z"/>
</g>

<g id="bannerman_Warrior_bodybannerman_5_Layer0_0_FILL">
<path fill="#000000" stroke="none" d="
M 48.05 9.2
Q 47.55 7.7 47.3 7 46.8 5.7 46.2 4.9 45.2720703125 3.676953125 43.7 3.2 42.3087890625 1.628125 39.7 1 37.9 0.6 34.7 0.6
L 26.75 0.6
Q 19.85 0.6 16.4 0.9 13.65 1.1 12.65 2.2 11.9 2.95 11.4 4.9 11.124609375 5.98515625 10.85 7 10.0609375 8.1296875 9.3 9.7 6.1 16.25 4.9 20.05 3.05 26 3.6 30.9 3.85 33.15 5.3 38.2 7.5 45.75 9.05 53.15 9.95 57 11.95 57.45 12.3021484375 57.526953125 12.6 57.5 12.7166015625 57.5875 12.8 57.65 13.4 58.15 14.95 58.35 21.3 59.35 22.65 59.4 24.3 59.4 24.9 58.9 25.9 58.25 26 56.65 25.974609375 55.7607421875 25.95 55.1 26.2017578125 54.8310546875 26.45 54.5
L 28.95 51.35
Q 30.9 48.9 32.25 48.2 33.45 47.55 36.15 46.95 37.1 46.65 38.9 45.85 39.05 45.8 41.25 45.25 42.85 44.8 44.85 43.95 47.4 42.9 48.9 42.1 51 40.85 52.3 39.35 53.9 37.45 54.65 34.4 55.15 32.25 55.35 28.8 55.55 24.65 55 22.45 54.35 19.8 51.75 15.75 48.8 11.25 48.05 9.2
M 42.15 7.85
Q 42.25 8.5 42.25 10.65 42.225390625 12.68671875 42.55 15.35 42.775390625 17.196484375 43.15 19.35 43.3634765625 20.4099609375 43.6 21.55 44.45 25.3 45.3 27.35 45.8 28.45 46.85 30.7 47.062890625 31.2189453125 47.2 31.7 47.61015625 33.04921875 47.5 34.15 47.3953125 35.3369140625 46.75 36.4 46.512109375 36.8623046875 46.15 37.3 45.05 38.65 43.4 39.5 42.05 40.2 40.1 40.75 39.65 40.9 36.65 41.6 34 42.25 32.25 43.2 33.55 41.9 35.1 40.75 35.1341796875 40.72265625 35.15 40.7 35.891015625 40.1294921875 36.75 39.7 38.05 39.05 38.2 38.95 38.95 38.3 38.95 37.6 38.85 36.75 38 36.4 37.4 36.15 36.45 36.35 35.25 36.65 33.35 38.15 29.55 41.2 27.95 43.3 27.6 43.75 25.75 46.95 25.672265625 47.0900390625 25.6 47.2 24.52421875 49.1744140625 24.25 49.9 24.2583984375 49.9248046875 24.25 49.95
L 23.75 51.7
Q 23.3171875 54.055859375 23.35 56.3 23.348046875 56.409765625 23.35 56.5
L 23.3 56.5
Q 19.49140625 56.359375 15.15 55.5 14.683984375 55.4037109375 14.2 55.3 13.5 54.25 13.1 51.55
L 12.75 48.9
Q 12.8 48.75 12.85 48.6 13.1 47.9 12.95 47 12.5 43.95 11.5 40.75 10.6 38.1 10.15 36.75 9.35 34.4 9.15 32.65 8.843359375 29.671875 9.9 24.4 10.05 23.791015625 10.2 23.1 10.2234375 23.0166015625 10.25 22.9
L 14.05 6
Q 14.25 5.05 14.7 4.6 14.797265625 4.502734375 14.95 4.4 15.4111328125 4.1943359375 16.35 4.05 20.85 3.65 26.55 3.75 29.55 3.8 36.75 4.1 37.9740234375 4.1765625 38.7 4.3 38.923828125 4.3529296875 39.1 4.4 40.35 4.65 41.1 5.4 41.95 6.3 42.15 7.85 Z"/>

<path fill="#666666" stroke="none" d="
M 46.75 36.4
Q 45.148046875 36.818359375 43.4 37 42.2509765625 37.1576171875 41.05 37.2 41.4 36.7 41.2 36.05 40.95 35.4 40.4 35.2 39.85 35 38.75 35.4 35.8 36.2 34.35 36.7 31.85 37.5 30.3 38.6 30.1 38.75 28.05 40.65 26.7 42 26.15 42.85 25.3 44.2 25.35 45.45 25.35 46.1166015625 25.6 47.2 25.672265625 47.0900390625 25.75 46.95 27.6 43.75 27.95 43.3 29.55 41.2 33.35 38.15 35.25 36.65 36.45 36.35 37.4 36.15 38 36.4 38.85 36.75 38.95 37.6 38.95 38.3 38.2 38.95 38.05 39.05 36.75 39.7 35.891015625 40.1294921875 35.15 40.7 35.1341796875 40.72265625 35.1 40.75 33.55 41.9 32.25 43.2 34 42.25 36.65 41.6 39.65 40.9 40.1 40.75 42.05 40.2 43.4 39.5 45.05 38.65 46.15 37.3 46.512109375 36.8623046875 46.75 36.4
M 42.25 10.65
Q 42.25 8.5 42.15 7.85 41.95 6.3 41.1 5.4 40.35 4.65 39.1 4.4 38.923828125 4.3529296875 38.7 4.3 37.9740234375 4.1765625 36.75 4.1 29.55 3.8 26.55 3.75 20.85 3.65 16.35 4.05 15.4111328125 4.1943359375 14.95 4.4 14.797265625 4.502734375 14.7 4.6 14.25 5.05 14.05 6
L 10.25 22.9
Q 10.2234375 23.0166015625 10.2 23.1 10.05 23.791015625 9.9 24.4 8.843359375 29.671875 9.15 32.65 9.35 34.4 10.15 36.75 10.6 38.1 11.5 40.75 12.5 43.95 12.95 47 13.1 47.9 12.85 48.6 12.8 48.75 12.75 48.9
L 13.1 51.55
Q 13.5 54.25 14.2 55.3 14.683984375 55.4037109375 15.15 55.5 19.49140625 56.359375 23.3 56.5 22.55 56.0755859375 21.55 55.75 19.05 55.1 17.85 54.6 16.85 54.05 16.55 53.6 16.15 53 16.25 51.2 16.4 48.85 15.75 46.65 15 44.45 14.65 43.3 14.15 40.75 13.65 39.6 12.75 37.85 12.45 36.95 12 35.5 12.3 32.75 12.4 31.45 12.6 30.2
L 13.2 25.1
Q 13.3439453125 23.99609375 13.3 23.2 14.9505859375 22.5833984375 15.45 22.5 15.95 22.4 16.85 22.4 17.8 22.4 18.2 22.35 19.6 22.25 22.8 21.3
L 38 16.75
Q 39.6724609375 16.2537109375 41.2 15.75 41.90234375 15.5572265625 42.55 15.35 42.225390625 12.68671875 42.25 10.65 Z"/>

<path fill="#CCCCCC" stroke="none" d="
M 43.15 19.35
Q 42.775390625 17.196484375 42.55 15.35 41.90234375 15.5572265625 41.2 15.75 39.6724609375 16.2537109375 38 16.75
L 22.8 21.3
Q 19.6 22.25 18.2 22.35 17.8 22.4 16.85 22.4 15.95 22.4 15.45 22.5 14.9505859375 22.5833984375 13.3 23.2 13.3439453125 23.99609375 13.2 25.1
L 12.6 30.2
Q 12.4 31.45 12.3 32.75 12 35.5 12.45 36.95 12.75 37.85 13.65 39.6 14.15 40.75 14.65 43.3 15 44.45 15.75 46.65 16.4 48.85 16.25 51.2 16.15 53 16.55 53.6 16.85 54.05 17.85 54.6 19.05 55.1 21.55 55.75 22.55 56.0755859375 23.3 56.5
L 23.35 56.5
Q 23.348046875 56.409765625 23.35 56.3 23.3171875 54.055859375 23.75 51.7
L 24.25 49.95
Q 24.2583984375 49.9248046875 24.25 49.9 24.52421875 49.1744140625 25.6 47.2 25.35 46.1166015625 25.35 45.45 25.3 44.2 26.15 42.85 26.7 42 28.05 40.65 30.1 38.75 30.3 38.6 31.85 37.5 34.35 36.7 35.8 36.2 38.75 35.4 39.85 35 40.4 35.2 40.95 35.4 41.2 36.05 41.4 36.7 41.05 37.2 42.2509765625 37.1576171875 43.4 37 45.148046875 36.818359375 46.75 36.4 47.3953125 35.3369140625 47.5 34.15 47.61015625 33.04921875 47.2 31.7 47.062890625 31.2189453125 46.85 30.7 45.8 28.45 45.3 27.35 44.45 25.3 43.6 21.55 43.3634765625 20.4099609375 43.15 19.35 Z"/>
</g>

<g id="bannerman_warrior_chest_armorbannerman_0_Layer0_0_FILL">
<path fill="#000000" stroke="none" d="
M 33.6 -2.8
Q 31.2 -2.65 29.1 -1.45 27.994140625 -0.81796875 27.15 0 22.514453125 0.0349609375 17.95 0.15
L 13.75 0.2 13.75 0.2
Q 13.25 -1.05 10.6 -0.85 7.65 -0.6 4.8 -0.85 3.5255859375 -0.9541015625 2.55 -1 -0.130859375 -1.3646484375 -3.4 1.15 -5.75 2.95 -6.7 5.05 -7.3 6.65 -7.4 9.1 -7.4 15 -4.6 17.75 -3 19.25 -0.55 19.9 1.9 20.55 3.55 19.95 4.3798828125 19.5765625 4.9 18.9 6.24140625 19.0990234375 7.85 18.95 7.956640625 18.9396484375 8.05 18.9 9.4865234375 20.109765625 11.5 21.5 13.45 22.8 14.15 23.15 15.9 24 19.2 24.7 21.8 25.1 23.05 25.15 25.25 25.2 27.95 24.65 29.55 24.3 32.75 23.35 34.3 22.9 35.35 22.4 35.85 22.15 37.5 20.95 39.65 19.35 40.75 18.15 41.1056640625 17.783203125 41.4 17.4 42.0703125 17.3173828125 42.8 17 45.316015625 17.742578125 47.9 16.55 50.4 15.4 51.8 13.05 52.55 11.7 52.95 10.05 53.35 8.1 52.9 6.15 52.45 4.15 51.2 2.75 49.65 1.05 45.9 -0.25 43.36015625 -1.2724609375 41.75 -0.95 37.531640625 -3.07421875 33.6 -2.8
M 40.55 7.6
Q 40.85 8.6392578125 40.85 9.5 40.8 10.9 39.55 13 39.2787109375 13.4193359375 39 13.75 38.734375 14.2328125 38.45 14.6 38.09296875 15.1392578125 37.8 15.5 36.05 17.55 33.45 18.8 32.3 19.35 28.7 20.35 26.75546875 20.779296875 25.55 21 24.3701171875 21.2251953125 23.9 21.25 21.4 21.45 18.1 20.75 15.95 20.2 15.3 19.9 13.9 19.4 11.3 17.9 10.8671875 17.652734375 10.45 17.4 10.22890625 17.28359375 10 17.15 10.2607421875 17.1716796875 10.5 17.2 11.471484375 17.3259765625 12.45 17.6
L 14.25 18.2
Q 15 18.35 17.55 18.6 19.4 18.7 20.25 18.5 20.33671875 18.4783203125 20.45 18.45
L 20.4 18.45
Q 20.5798828125 18.409765625 20.8 18.35
L 21.4 18.2
Q 22 18.15 23.2 18.1 23.9 17.95 25.2 17.45 25.5 17.35 27.15 17.1 28.05 16.85 29.75 16.05 35.85 13.05 38.65 11.1 39.45 10.55 39.65 10.2 40.1 9.45 39.65 8.9 39.45 8.7 39.25 8.6 39.7615234375 8.003125 40.25 7.35 40.3615234375 7.260546875 40.45 7.15 40.5220703125 7.3841796875 40.55 7.6
M 37.05 3.85
Q 37.2046875 3.9125 37.35 3.95 38.2 4.25 38.75 4.55 38.1658203125 5.265625 37.5 5.9 35.917578125 7.5111328125 33.9 8.75 28.2 12.3 21.6 11.7
L 17.25 11.1
Q 15.05 10.85 14.75 10.75 13.6 10.25 13 10.1 12.5 10 11.75 10 10.75 10 10.45 9.95 9.75 9.85 9.25 9.5 8.7 9.05 8.65 8.45 8.35 8.5 7.75 8.5
L 9.1 10.45
Q 9.4 11 9.75 11.25 10.2 11.55 11.2 11.6 12.25 11.65 12.65 11.9 13 12.1 13.55 12.6 13.5978515625 12.6265625 13.65 12.65 14.0796875 12.860546875 14.75 12.95 15.55 13.05 19.15 13.8 23.3 14.65 26.4 14.5 26.2 14.55 26 14.6 19.95 16.55 16.25 16.8 14.7 16.9 13.8 16.55 12.95 16.1 12.45 15.95 11.85 15.75 10.5 15.65 10.334765625 15.6435546875 10.15 15.6 9.1173828125 15.5619140625 8.55 15.3 7.75 14.85 7.3 14.8 7.1 14.75 6.95 14.85 6.85 14.75 6.8 14.7 6.45 14.35 5.4 12.95 4.55 11.8 3.9 11.25 2.8 10.25 2.65 9.95 2.35 9.25 2.7 8.25
L 2.7 8.2
Q 2.9962890625 7.5177734375 3.4 7.25
L 3.45 7.25
Q 3.7 7.1 4.35 7.05 4.95 6.95 5.2 6.75 5.7 6.4 5.7 5.3 5.6759765625 4.6767578125 5.7 4.25 5.769921875 3.808203125 5.9 3.6 7.579296875 3.68046875 9.25 3.7 15.8287109375 3.9095703125 22.1 3.55
L 24.75 3.3
Q 25.925390625 3.13203125 26.55 3.1 26.695703125 3.1 26.8 3.1 27.15 3.1 28.9 3.35 29.9 3.5 33.15 3.5 33.5904296875 3.5083984375 34 3.5 35.8263671875 3.605859375 37.05 3.85 Z"/>

<path fill="#0099FF" stroke="none" d="
M 26 14.6
Q 26.2 14.55 26.4 14.5 23.3 14.65 19.15 13.8 15.55 13.05 14.75 12.95 14.0796875 12.860546875 13.65 12.65 10.5015625 12.425 5.6 9.9 4.41640625 9.330078125 3.5 8.75 3.0724609375 8.4947265625 2.7 8.2
L 2.7 8.25
Q 2.35 9.25 2.65 9.95 2.8 10.25 3.9 11.25 4.55 11.8 5.4 12.95 6.45 14.35 6.8 14.7 6.85 14.75 6.95 14.85 7.1 14.75 7.3 14.8 7.75 14.85 8.55 15.3 9.1173828125 15.5619140625 10.15 15.6 10.334765625 15.6435546875 10.5 15.65 11.85 15.75 12.45 15.95 12.95 16.1 13.8 16.55 14.7 16.9 16.25 16.8 19.95 16.55 26 14.6
M 36.5 4.25
Q 36.6630859375 4.148046875 37.05 3.85 35.8263671875 3.605859375 34 3.5 32.3638671875 4.2611328125 30.7 4.9 28.546875 5.7974609375 26.35 6.55 24.05 7.35 22.85 7.6 20.35 8.25 17.15 8.45 15.2 8.55 11.35 8.55 12.6 9.1 14.8 9.15 18.05 9.25 18.4 9.3 18.7 9.35 20.6 9.75 21.9 10.05 22.8 10 24.35 9.95 27.15 8.7
L 32.65 6.2
Q 33.8453125 5.6451171875 34.7 5.2 35.8982421875 4.6224609375 36.5 4.25
M 20.45 18.45
Q 20.33671875 18.4783203125 20.25 18.5 19.4 18.7 17.55 18.6 15 18.35 14.25 18.2
L 12.45 17.6
Q 11.471484375 17.3259765625 10.5 17.2 10.2607421875 17.1716796875 10 17.15 10.22890625 17.28359375 10.45 17.4 10.8671875 17.652734375 11.3 17.9 13.9 19.4 15.3 19.9 15.95 20.2 18.1 20.75 21.4 21.45 23.9 21.25 24.3701171875 21.2251953125 25.55 21 27.8478515625 20.0494140625 31.5 17.75
L 21.65 18.45
Q 20.998046875 18.4791015625 20.45 18.45 Z"/>

<path fill="#3333CC" stroke="none" d="
M 37.35 3.95
Q 37.2046875 3.9125 37.05 3.85 36.6630859375 4.148046875 36.5 4.25 35.8982421875 4.6224609375 34.7 5.2 33.8453125 5.6451171875 32.65 6.2
L 27.15 8.7
Q 24.35 9.95 22.8 10 21.9 10.05 20.6 9.75 18.7 9.35 18.4 9.3 18.05 9.25 14.8 9.15 12.6 9.1 11.35 8.55 15.2 8.55 17.15 8.45 20.35 8.25 22.85 7.6 24.05 7.35 26.35 6.55 28.546875 5.7974609375 30.7 4.9 32.3638671875 4.2611328125 34 3.5 33.5904296875 3.5083984375 33.15 3.5 29.9 3.5 28.9 3.35 27.15 3.1 26.8 3.1 26.695703125 3.1 26.55 3.1 25.925390625 3.13203125 24.75 3.3
L 22.1 3.55
Q 15.8287109375 3.9095703125 9.25 3.7 7.579296875 3.68046875 5.9 3.6 5.769921875 3.808203125 5.7 4.25 5.6759765625 4.6767578125 5.7 5.3 5.7 6.4 5.2 6.75 4.95 6.95 4.35 7.05 3.7 7.1 3.45 7.25
L 3.4 7.25
Q 2.9962890625 7.5177734375 2.7 8.2 3.0724609375 8.4947265625 3.5 8.75 4.41640625 9.330078125 5.6 9.9 10.5015625 12.425 13.65 12.65 13.5978515625 12.6265625 13.55 12.6 13 12.1 12.65 11.9 12.25 11.65 11.2 11.6 10.2 11.55 9.75 11.25 9.4 11 9.1 10.45
L 7.75 8.5
Q 8.35 8.5 8.65 8.45 8.7 9.05 9.25 9.5 9.75 9.85 10.45 9.95 10.75 10 11.75 10 12.5 10 13 10.1 13.6 10.25 14.75 10.75 15.05 10.85 17.25 11.1
L 21.6 11.7
Q 28.2 12.3 33.9 8.75 35.917578125 7.5111328125 37.5 5.9 38.1658203125 5.265625 38.75 4.55 38.2 4.25 37.35 3.95
M 40.85 9.5
Q 40.85 8.6392578125 40.55 7.6 40.5220703125 7.3841796875 40.45 7.15 40.3615234375 7.260546875 40.25 7.35 39.7615234375 8.003125 39.25 8.6 39.45 8.7 39.65 8.9 40.1 9.45 39.65 10.2 39.45 10.55 38.65 11.1 35.85 13.05 29.75 16.05 28.05 16.85 27.15 17.1 25.5 17.35 25.2 17.45 23.9 17.95 23.2 18.1 22 18.15 21.4 18.2
L 20.8 18.35
Q 20.5798828125 18.409765625 20.4 18.45
L 20.45 18.45
Q 20.998046875 18.4791015625 21.65 18.45
L 31.5 17.75
Q 27.8478515625 20.0494140625 25.55 21 26.75546875 20.779296875 28.7 20.35 32.3 19.35 33.45 18.8 36.05 17.55 37.8 15.5 38.09296875 15.1392578125 38.45 14.6 38.734375 14.2328125 39 13.75 39.2787109375 13.4193359375 39.55 13 40.8 10.9 40.85 9.5 Z"/>
</g>

<g id="bannerman_warrior_head_bottombannerman_0_Layer0_0_FILL">
<path fill="#000000" stroke="none" d="
M 42.7 -7.2
Q 25.35 -8.4 9.25 -4.1 2 -2.15 -0.7 1.15 -2.1 2.95 -2.95 5.6 -2.9708984375 5.6734375 -3 5.75
L -5 10.1
Q -6.75 14 -6.7 16.1 -6.65 18.85 -4.4 21.45 -2.75 23.35 0.3 25.4 6 29.15 10.75 30.1 13.4 30.65 15 29.9 15.909765625 29.466796875 16.45 28.65 17.6044921875 28.8890625 18.9 29.1 27.9 30.6 33.8 31.3 42 32.25 48.8 32.3 57.3787109375 32.35078125 64.85 31.1 64.85 31.2474609375 64.85 31.4 64.85 32.75 65.8 33.35 66.9 34.15 69.4 33.3
L 77.15 30.8
Q 80.7 29.6 82.4 28.65 85.1 27.1 86.25 24.85 87.8 21.85 86.6 17.35 86.3 16.1 85.5 13.65 84.7 11.2 84.4 10 84.1 8.55 83.95 7.8 83.6 6.55 83.15 5.75 82.55 4.75 81.5 4.2 81.3560546875 4.128125 81.2 4.05 81.036328125 3.787109375 80.85 3.55 79.35 1.65 75.6 0.2 59.6 -6.05 42.7 -7.2
M 71.4 7.95
Q 69.5365234375 8.3955078125 67.7 8.75 53.743359375 11.7248046875 41.85 11.15 37.85 10.95 30 9.95
L 8.75 7.15
Q 7.7 7.05 7.05 6.7 6.7 6.45 6.55 6.05 6.35 5.6 6.5 5.25 6.8 4.75 7.85 4.55 13.65 3.25 21.05 2.95 26 2.7 34.5 2.95 41.2 3.15 44.45 3.4 50.5 3.9 58 5.25 62.55 6.05 71.4 7.95
M 72.85 10.65
Q 74.15 15.75 75.55 20.05 66.6 24.45 54.1 25.55 45.85 26.25 31.5 25.6 26.55 25.3 24.15 24.95 20 24.25 15.25 22.4 14.955078125 22.2880859375 14.6 22.15
L 14.6 22.15
Q 13.9109375 21.889453125 13.05 21.5
L 6.7 18.7
Q 4.2 17.55 3.7 16.25 3.35 15.15 3.95 13.1
L 5.45 8.6
Q 7.8 9.9 12.7 10.5
L 28.3 12.55
Q 37.1974609375 13.704296875 41.8 13.9 41.9791015625 13.942578125 42.15 13.95 55.7763671875 14.6265625 71.75 10.9 72.292578125 10.784375 72.85 10.65 Z"/>

<path fill="#666666" stroke="none" d="
M 21.05 16.25
Q 24.8 15.9 32.25 15.05
L 41.8 13.9
Q 37.1974609375 13.704296875 28.3 12.55
L 12.7 10.5
Q 7.8 9.9 5.45 8.6
L 3.95 13.1
Q 3.35 15.15 3.7 16.25 4.2 17.55 6.7 18.7
L 13.05 21.5
Q 13.9109375 21.889453125 14.6 22.15
L 14.6 22.15
Q 15.19453125 20.896875 15.8 19.65 16.1060546875 19.0548828125 16.4 18.6 16.9890625 17.6958984375 17.55 17.3 18.45 16.55 21.05 16.25 Z"/>

<path fill="#999999" stroke="none" d="
M 75.55 20.05
Q 74.15 15.75 72.85 10.65 72.292578125 10.784375 71.75 10.9 55.7763671875 14.6265625 42.15 13.95 41.9791015625 13.942578125 41.8 13.9
L 32.25 15.05
Q 24.8 15.9 21.05 16.25 18.45 16.55 17.55 17.3 16.9890625 17.6958984375 16.4 18.6 16.1060546875 19.0548828125 15.8 19.65 15.19453125 20.896875 14.6 22.15 14.955078125 22.2880859375 15.25 22.4 20 24.25 24.15 24.95 26.55 25.3 31.5 25.6 45.85 26.25 54.1 25.55 66.6 24.45 75.55 20.05 Z"/>

<path fill="#333333" stroke="none" d="
M 67.7 8.75
Q 69.5365234375 8.3955078125 71.4 7.95 62.55 6.05 58 5.25 50.5 3.9 44.45 3.4 41.2 3.15 34.5 2.95 26 2.7 21.05 2.95 13.65 3.25 7.85 4.55 6.8 4.75 6.5 5.25 6.35 5.6 6.55 6.05 6.7 6.45 7.05 6.7 7.7 7.05 8.75 7.15
L 30 9.95
Q 37.85 10.95 41.85 11.15 53.743359375 11.7248046875 67.7 8.75 Z"/>
</g>
</defs>

<g transform="matrix( 0.5274505615234375, 0, 0, 0.5274505615234375, 73.95,11.7) ">
<g transform="matrix( 1.01605224609375, 0, 0, 1.01605224609375, -75.15,41.3) ">
<g transform="matrix( 1, 0, 0, 1, 1.4,-5.6) ">
<g transform="matrix( -0.024627685546875, 0.9996185302734375, -0.9996185302734375, -0.024627685546875, 296.55,243) ">
<g transform="matrix( 0.128021240234375, 0.9916839599609375, 0.9916839599609375, -0.128021240234375, 0.05,-10.9) ">
<g transform="matrix( 1, 0, 0, 1, 0,0) ">
<use xlink:href="#bolt_0_Layer0_0_FILL"/>
</g>
</g>

<g transform="matrix( 0.1158447265625, 0.9932403564453125, -0.9932403564453125, 0.1158447265625, 83.85,16.2) ">
<g transform="matrix( 1, 0, 0, 1, 0,0) ">
<use xlink:href="#bolt_0_Layer0_0_FILL"/>
</g>
</g>

<g transform="matrix( 0.3405914306640625, 0.9401397705078125, 0.9401397705078125, -0.3405914306640625, -24.2,33.95) ">
<g transform="matrix( 1, 0, 0, 1, 0,0) ">
<use xlink:href="#bolt_0_Layer0_0_FILL"/>
</g>
</g>

<g transform="matrix( 1, 0, 0, 1, 0,0) ">
<use xlink:href="#Symbol_11_0_Layer0_0_FILL"/>
</g>
</g>

<g transform="matrix( 0.9622039794921875, 0.271759033203125, -0.271759033203125, 0.9622039794921875, 137.85,254.3) ">
<g transform="matrix( 1, 0, 0, 1, 0,0) ">
<use xlink:href="#Duplicate_Items_Folder_Crossbow_weap_1_Layer1_0_FILL"/>
</g>
</g>

<g transform="matrix( -0.998138427734375, -0.0596160888671875, -0.0596160888671875, 0.998138427734375, 140.55,280.35) ">
<g transform="matrix( 1, 0, 0, 1, 0,0) ">
<use xlink:href="#Duplicate_Items_Folder_Crossbow_cape_2_Layer1_0_FILL"/>
</g>

<g transform="matrix( 1, 0, 0, 1, 0,0) ">
<use xlink:href="#Duplicate_Items_Folder_Crossbow_cape_2_Layer0_0_FILL"/>
</g>
</g>

<g transform="matrix( 0.023223876953125, -0.9996490478515625, 0.9996490478515625, 0.023223876953125, 75.9,319.9) ">
<g transform="matrix( 1, 0, 0, 1, 0,0) ">
<use xlink:href="#Duplicate_Items_Folder_Crossbow_body_5_Layer0_0_FILL"/>
</g>
</g>

<g transform="matrix( -0.019439697265625, 0.999725341796875, -0.999725341796875, -0.019439697265625, 156.1,249.2) ">
<g transform="matrix( 1, 0, 0, 1, 0,0) ">
<use xlink:href="#Duplicate_Items_Folder_Crossbow_head_top_1_Layer1_0_FILL"/>
</g>

<g transform="matrix( 1, 0, 0, 1, 0,0) ">
<use xlink:href="#Duplicate_Items_Folder_Crossbow_head_top_1_Layer0_0_FILL"/>
</g>
</g>

<g transform="matrix( -1, 0, 0, 1, 164,134.2) ">
<g transform="matrix( -0.3796844482421875, 0.9250335693359375, -0.9250335693359375, -0.3796844482421875, 164.8,139.15) ">
<g transform="matrix( 1, 0, 0, 1, 0,0) ">
<use xlink:href="#bannerman_warrior_head_topbannerman_1_Layer1_0_FILL"/>
</g>

<g transform="matrix( 1, 0, 0, 1, 0,0) ">
<use xlink:href="#bannerman_warrior_head_topbannerman_1_Layer0_0_FILL"/>
</g>
</g>

<g transform="matrix( -0.998138427734375, -0.0596160888671875, -0.0596160888671875, 0.998138427734375, 140.55,165.6) ">
<g transform="matrix( 1, 0, 0, 1, 0,0) ">
<use xlink:href="#bannerman_warrior_capebannerman_2_Layer0_0_FILL"/>
</g>
</g>

<g transform="matrix( 0.023223876953125, -0.9996490478515625, 0.9996490478515625, 0.023223876953125, 75.9,205.15) ">
<g transform="matrix( 1, 0, 0, 1, 0,0) ">
<use xlink:href="#bannerman_Warrior_bodybannerman_5_Layer0_0_FILL"/>
</g>
</g>

<g transform="matrix( 0.0765380859375, -0.99700927734375, 0.99700927734375, 0.0765380859375, 63.4,199.05) ">
<g transform="matrix( 1, 0, 0, 1, 0,0) ">
<use xlink:href="#bannerman_warrior_chest_armorbannerman_0_Layer0_0_FILL"/>
</g>
</g>

<g transform="matrix( -0.1844329833984375, -0.982757568359375, 0.982757568359375, -0.1844329833984375, 45.1,206.6) ">
<g transform="matrix( 1, 0, 0, 1, 0,0) ">
<use xlink:href="#bannerman_warrior_head_bottombannerman_0_Layer0_0_FILL"/>
</g>
</g>
</g>
</g>
</g>
</g>
</svg>
