
<svg xmlns="http://www.w3.org/2000/svg" version="1.1" xmlns:xlink="http://www.w3.org/1999/xlink" preserveAspectRatio="none" x="0px" y="0px" width="1000px" height="1000px" viewBox="0 0 1000 1000">
<defs>
<linearGradient id="Gradient_1" gradientUnits="userSpaceOnUse" x1="82.125" y1="23.9875" x2="79.875" y2="56.212500000000006" spreadMethod="pad">
<stop  offset="0%" stop-color="#333333"/>

<stop  offset="100%" stop-color="#666666"/>
</linearGradient>

<linearGradient id="Gradient_2" gradientUnits="userSpaceOnUse" x1="40.2125" y1="11.637499999999996" x2="44.487500000000004" y2="86.86250000000001" spreadMethod="pad">
<stop  offset="0%" stop-color="#666666"/>

<stop  offset="100%" stop-color="#E7E7E7"/>
</linearGradient>

<linearGradient id="Gradient_3" gradientUnits="userSpaceOnUse" x1="68.225" y1="45.3125" x2="67.775" y2="78.4875" spreadMethod="pad">
<stop  offset="0%" stop-color="#CCCCCC"/>

<stop  offset="100%" stop-color="#FFFFFF"/>
</linearGradient>

<linearGradient id="Gradient_4" gradientUnits="userSpaceOnUse" x1="38.0625" y1="53.6875" x2="41.4375" y2="85.7125" spreadMethod="pad">
<stop  offset="0%" stop-color="#CCCCCC"/>

<stop  offset="100%" stop-color="#FFFFFF"/>
</linearGradient>

<linearGradient id="Gradient_5" gradientUnits="userSpaceOnUse" x1="-4.25" y1="124.41250000000001" x2="-108.15" y2="139.88750000000002" spreadMethod="pad">
<stop  offset="9.019607843137255%" stop-color="#FF4F2C"/>

<stop  offset="64.70588235294117%" stop-color="#FFB600"/>

<stop  offset="100%" stop-color="#FFFFFF"/>
</linearGradient>

<linearGradient id="Gradient_6" gradientUnits="userSpaceOnUse" x1="10" y1="127.81250000000001" x2="-93.9" y2="143.28750000000002" spreadMethod="pad">
<stop  offset="9.019607843137255%" stop-color="#FF4F2C"/>

<stop  offset="64.70588235294117%" stop-color="#FFB600"/>

<stop  offset="100%" stop-color="#FFFFFF"/>
</linearGradient>

<g id="smith_anvil_0_Layer0_0_FILL">
<path fill="#000000" stroke="none" d="
M 41.4 -2.5
Q 38.6927734375 -2.3669921875 36.15 -2.25
L 33.85 0.4
Q 31.688671875 0.9357421875 29.6 1.45 13.123828125 5.784765625 3.1 10.25 -1.308984375 12.215625 -3.15 14.2 -5.64921875 16.9466796875 -5.3 19 -4.9470703125 21.053125 -3.4 24.5 -1.856640625 27.9462890625 17.8 33.7 37.45859375 39.501953125 38.3 38.2 38.3544921875 38.669140625 38.4 39.2 38.47734375 40.2828125 41 41.1 41.7486328125 41.3734375 42.7 41.6
L 47.4 42.65
Q 48.1 43.1 45.5 47.2 42.65 51.7 38.85 54.8 40.2 56.6 49.7 60.3 58.75 63.85 59.3 63.55 59.7 63.3 65.85 61.35 72.6 59.2 77.75 57.7 82.3 56.4 94.35 59.45 106.05 62.4 106.25 62.3 107.6 61.6 112.35 58.25 117.5 54.6 118.3 53.5 118.85 52.7 115.45 48.55 112.2431640625 44.71953125 112.3 43 112.33984375 42.8248046875 112.4 42.65 112.9 40.85 117.1 35.35 117.5279296875 34.789453125 117.95 34.25 119.3220703125 32.5603515625 120.55 31.3 123.24609375 28.615234375 125.2 28.3 128.2 27.85 134.4 27.25 134.99375 21.037890625 135.25 15.95 135.9998046875 3.5380859375 134.9 -2.05 127.683984375 -2.2546875 120.8 -2.45 71.57109375 -3.574609375 41.4 -2.5
M 125.35 16.75
Q 125.3123046875 19.03984375 125.25 19.6 122.7669921875 21.0658203125 120.6 22.45 110.810546875 28.896875 107.8 34.15 107.0724609375 35.5029296875 106.75 36.75 105.9216796875 39.9212890625 105.8 42.65
L 105.85 42.65
Q 105.85 43 105.95 44 106.05 45.35 106.25 45.9 107.5572265625 49.92734375 112.95 52.15
L 109.75 54.2 109.7 54.2
Q 104.55 57.75 104.2 57.85 84.4 50 79.85 49.95 77.75 50.05 67.7 54.35 57.95 58.55 57.55 59.2
L 46.9 54.65
Q 50.1 53.15 52.35 48.15 54.2 43.9 53.85 42.65 53.83359375 42.575390625 53.8 42.5 51.9919921875 34.601953125 41.75 33.9
L 39.25 25
Q 39.05 24.65 38.8 24.3 38.25 23.55 38.2 23.6 36.8453125 25.96484375 36.8 29 21.789453125 25.9328125 8.55 18.15
L 6.7 17.05
Q 6.627734375 16.9982421875 6.55 16.95 7.45 16.5 21.65 12.8 25.5712890625 11.7853515625 29.55 10.75 32.803515625 9.9353515625 36.1 9.1
L 36.9 12.65
Q 36.9267578125 12.7431640625 36.95 12.8 37.25 13.8 37.9 14.95 37.9357421875 15.016015625 37.95 15.05 38.558203125 16.128125 38.7 15.75 38.739453125 15.658203125 38.9 15.05 39.38828125 13.4703125 40.9 8.05
L 125.7 7.55
Q 125.6525390625 7.787109375 125.35 15.85 125.3654296875 16.3119140625 125.35 16.75 Z"/>

<path fill="#666666" stroke="none" d="
M 36.3 15.05
Q 36.8251953125 14.060546875 36.95 12.8 36.9267578125 12.7431640625 36.9 12.65
L 36.1 9.1
Q 32.803515625 9.9353515625 29.55 10.75 25.5712890625 11.7853515625 21.65 12.8 7.45 16.5 6.55 16.95 6.627734375 16.9982421875 6.7 17.05
L 8.55 18.15
Q 17.78515625 20.1025390625 28.1 19.2 34.5703125 18.6384765625 36.3 15.05
M 106.25 45.9
Q 103.25 42.9 103.25 42.95 103.3451171875 51.7255859375 109.7 54.2
L 109.75 54.2 112.95 52.15
Q 107.5572265625 49.92734375 106.25 45.9
M 125.35 15.85
Q 125.6525390625 7.787109375 125.7 7.55
L 40.9 8.05
Q 39.38828125 13.4703125 38.9 15.05 38.739453125 15.658203125 38.7 15.75 38.2927734375 19.5150390625 38.2 23.6 38.25 23.55 38.8 24.3 39.05 24.65 39.25 25 40.212890625 24.9322265625 41.15 24.85 56.7791015625 23.2943359375 74.6 21.55 106.7587890625 18.321484375 120.65 17.15 123.3482421875 16.9244140625 125.35 16.75 125.3654296875 16.3119140625 125.35 15.85 Z"/>

<path fill="#333333" stroke="none" d="
M 36.95 12.8
Q 36.8251953125 14.060546875 36.3 15.05 34.5703125 18.6384765625 28.1 19.2 17.78515625 20.1025390625 8.55 18.15 21.789453125 25.9328125 36.8 29 36.8453125 25.96484375 38.2 23.6 38.2927734375 19.5150390625 38.7 15.75 38.558203125 16.128125 37.95 15.05 37.9357421875 15.016015625 37.9 14.95 37.25 13.8 36.95 12.8 Z"/>

<path fill="url(#Gradient_1)" stroke="none" d="
M 125.25 19.6
Q 125.3123046875 19.03984375 125.35 16.75 123.3482421875 16.9244140625 120.65 17.15 106.7587890625 18.321484375 74.6 21.55 56.7791015625 23.2943359375 41.15 24.85 40.212890625 24.9322265625 39.25 25
L 41.75 33.9
Q 51.9919921875 34.601953125 53.8 42.5 53.83359375 42.575390625 53.85 42.65 54.2 43.9 52.35 48.15 50.1 53.15 46.9 54.65
L 57.55 59.2
Q 57.95 58.55 67.7 54.35 77.75 50.05 79.85 49.95 84.4 50 104.2 57.85 104.55 57.75 109.7 54.2 103.3451171875 51.7255859375 103.25 42.95 103.25 42.9 106.25 45.9 106.05 45.35 105.95 44 105.85 43 105.85 42.65
L 105.8 42.65
Q 105.9216796875 39.9212890625 106.75 36.75 107.0724609375 35.5029296875 107.8 34.15 110.810546875 28.896875 120.6 22.45 122.7669921875 21.0658203125 125.25 19.6 Z"/>
</g>

<g id="smithbody_1_Layer0_0_FILL">
<path fill="#000000" stroke="none" d="
M 44.4 18
Q 47.630078125 12.5111328125 45.15 9.3 42.681640625 6.143359375 34.3 6.7 25.9048828125 7.2494140625 18.4 7.3 14.14609375 8.0001953125 10.05 10.05 6.95 11.65 -0.45 20.9 -8.75 31.4 -8 35.95 -6.237890625 46.5326171875 1.95 49.85 10.1337890625 53.2177734375 16.45 51.95 18.2 51.6 29.75 50.1 40.75 48.65 43 48 49.2529296875 46.414453125 52.25 44.8 55.2494140625 43.2451171875 56.8 33.05 58.35 23 49.25 22.65 49.05 22.25 47.2 20.35 45.3 18.35 44.8 18.15 44.6048828125 18.074609375 44.4 18
M 45.25 31.3
Q 44.15 29.95 42.75 28.25 39.95 24.85 39.2 23.05 43.55 22.55 46.05 26.65 47.35 29.05 47.25 30 47.5 30 49.6 27.6 49.9 27.65 50.45 28.05 50.95 28.4 51 28.55 51.25 29.9 50.35 33.8 49.45 37.7 48.65 38.75 48.55 38.75 48.5 38.8 47.4494140625 38.5640625 46.4 38.4 40.7169921875 37.51640625 35.8 39 36.8087890625 38.076171875 37.8 37.15
L 45.25 31.3
M 37.05 12.35
Q 37.2 13.65 36.8 14.95 35.2 20 36.95 24.9 32.55 27.15 31.55 27.55 25.6763671875 29.8681640625 19.2 29.5 17.45 26.85 12.1 26 10.25 26.8 8.95 27.9 10.1017578125 23.2453125 11.25 18.15 11.45 17.55 12.4 16.2 13.75 14.3 14.95 14 26.35 11.55 37.05 12.35
M 19.65 33.9
Q 19.65 34.65 19.35 36.3 19.05 37.7 18.85 38.35 17.2 42.5 15.65 43.45 15.05 43.85 12.2 43.65 9.5 43.45 9.1 43.15 8.75 42.85 7.9 41.6 6.9 40.1 6.75 39.35 6.6 38.8 6.6 37.2 6.6 35.65 6.7 35.2 6.8 34.85 8.25 32.65 9.7 30.45 9.75 30.35 11.35 28.6 13.15 28.05 15.35 27.35 17.2 28.4 19.65 29.9 19.65 33.9
M 1.55 36.3
Q 2.2267578125 33.326171875 3.15 30.45
L 3.15 30.45 6.45 22.6
Q 6.3 24.05 6.6 27 6.9 29.7 7.05 29.95 6.6 30.65 5.25 35.05 3.85 39.5 3.9 40.15 1.05 38.45 1.55 36.3
M 37.35 26
L 38.6 28.15
Q 40.184765625 30.3921875 42.7 31.05 39.2 32.85 38 33.75 35.4103515625 35.7498046875 33.45 38.5 31.9 40.7 29.4 40.95 24.35 41.4 19.9 41.2 20.45 40.55 20.85 37.6 21.2 34.75 21 33.8
L 19.55 30.3
Q 25.05 30.95 30.65 30 35.65 29.2 37.35 26 Z"/>

<path fill="#FF9900" stroke="none" d="
M 38 33.75
Q 37.3009765625 32.8158203125 36.8 31.5 35.2185546875 33.6365234375 32.35 35.8 28.9 38.4 25.55 39.45 26.75 35.5 30.5 33.25 25.098828125 34.6853515625 21.05 34 21.0271484375 33.9177734375 21 33.8 21.2 34.75 20.85 37.6 20.45 40.55 19.9 41.2 24.35 41.4 29.4 40.95 31.9 40.7 33.45 38.5 35.4103515625 35.7498046875 38 33.75
M 12.1 26
Q 17.45 26.85 19.2 29.5 25.6763671875 29.8681640625 31.55 27.55 31.348046875 26.2134765625 31.45 24.65 17.3890625 26.4890625 11.25 18.15 10.1017578125 23.2453125 8.95 27.9 10.25 26.8 12.1 26 Z"/>

<path fill="#FF3300" stroke="none" d="
M 38.6 28.15
L 37.35 26
Q 35.65 29.2 30.65 30 25.05 30.95 19.55 30.3
L 21 33.8
Q 21.0271484375 33.9177734375 21.05 34 25.098828125 34.6853515625 30.5 33.25 26.75 35.5 25.55 39.45 28.9 38.4 32.35 35.8 35.2185546875 33.6365234375 36.8 31.5 37.3009765625 32.8158203125 38 33.75 39.2 32.85 42.7 31.05 40.184765625 30.3921875 38.6 28.15
M 36.8 14.95
Q 37.2 13.65 37.05 12.35 26.35 11.55 14.95 14 13.75 14.3 12.4 16.2 11.45 17.55 11.25 18.15 17.3890625 26.4890625 31.45 24.65 31.348046875 26.2134765625 31.55 27.55 32.55 27.15 36.95 24.9 35.2 20 36.8 14.95 Z"/>

<path fill="#666666" stroke="none" d="
M 3.15 30.45
Q 3.15 31.75 3.3 34.95 3.5 38.95 3.9 40.15 3.85 39.5 5.25 35.05 6.6 30.65 7.05 29.95 6.9 29.7 6.6 27 6.3 24.05 6.45 22.6
L 3.15 30.45 3.15 30.45
M 17.35 36.5
Q 15.5 34.7 13.7 33.95 6.6984375 36.983984375 9.1 43.15 9.5 43.45 12.2 43.65 15.05 43.85 15.65 43.45 17.2 42.5 18.85 38.35 18.9 38.05 17.35 36.5
M 47.15 29.95
Q 45.35 31.4 45.25 31.3
L 37.8 37.15
Q 36.8087890625 38.076171875 35.8 39 40.7169921875 37.51640625 46.4 38.4 47.894921875 34.9162109375 47.15 29.95 Z"/>

<path fill="#CCCCCC" stroke="none" d="
M 3.15 30.45
Q 2.2267578125 33.326171875 1.55 36.3 1.05 38.45 3.9 40.15 3.5 38.95 3.3 34.95 3.15 31.75 3.15 30.45
M 13.7 33.95
Q 15.5 34.7 17.35 36.5 18.9 38.05 18.85 38.35 19.05 37.7 19.35 36.3 19.65 34.65 19.65 33.9 19.65 29.9 17.2 28.4 15.35 27.35 13.15 28.05 11.35 28.6 9.75 30.35 9.7 30.45 8.25 32.65 6.8 34.85 6.7 35.2 6.6 35.65 6.6 37.2 6.6 38.8 6.75 39.35 6.9 40.1 7.9 41.6 8.75 42.85 9.1 43.15 6.6984375 36.983984375 13.7 33.95
M 42.75 28.25
Q 44.15 29.95 45.25 31.3 45.35 31.4 47.15 29.95 47.894921875 34.9162109375 46.4 38.4 47.4494140625 38.5640625 48.5 38.8 48.55 38.75 48.65 38.75 49.45 37.7 50.35 33.8 51.25 29.9 51 28.55 50.95 28.4 50.45 28.05 49.9 27.65 49.6 27.6 47.5 30 47.25 30 47.35 29.05 46.05 26.65 43.55 22.55 39.2 23.05 39.95 24.85 42.75 28.25 Z"/>
</g>

<g id="smithhead_0_Layer0_0_FILL">
<path fill="#000000" stroke="none" d="
M 80.75 32.6
Q 79.0015625 13.95 74.35 1.95 73.2466796875 -0.881640625 61.55 -0.9 49.853125 -0.868359375 45.35 0 35.901171875 0.8478515625 18.25 5.05 0.59609375 9.30625 -1.2 9.15 -2.990625 9.0466796875 5.45 58.45 8.885546875 78.6140625 9.25 91 33.7388671875 91.81953125 45.35 90.2 56.951171875 88.5736328125 70.7 85.55 84.45546875 82.5193359375 83.45 66.85 82.494140625 51.2453125 80.75 32.6
M 68.8 7.65
Q 68.857421875 7.7658203125 68.9 7.85 72.35 21.6 73.4 30.6 74.45 39.5 75.7 55.1 77.15 73.25 76.75 76.45 76.95 76.85 72.85 79.25 68.5 81.85 65.7 82.75 46.4529296875 89.025390625 28.35 87.45
L 28.35 87.45
Q 20.05 85.85 19.3 85.5 14.9 67.35 12.9 49.05 10.95 31.55 6.75 15.15 29.45 9 37 8.1 53.75 6 68.8 7.65
M 46.2 47.9
Q 49.61171875 47.2396484375 52.55 46.1 58.9291015625 43.661328125 63.2 39 67.416015625 34.5068359375 69.65 27.9 69.75 27.55 69.7 26.95 69.6 26.3 69.4 26.2 69.2 26.15 66 25.6 62.7 25.05 61.75 24.95 55.3396484375 24.6986328125 49.2 25.15 32.746484375 26.3615234375 18.6 32.85 17.3921875 33.406640625 16.2 34 16.15 34.7 17.55 36.95 18.8 38.95 19.4 39.55 30.1138671875 50.9640625 46.2 47.9
M 56.8 39.25
Q 53.034765625 44.1990234375 44.05 44.95 35.061328125 45.7505859375 31.25 43.1 29.4 41.85 25.65 38.65 22 35.55 21.7 35.05 23.3068359375 34.41875 24.95 33.9 26.5 33.5 42.95 31.55 60.2 29.55 61.15 29.35 61.4134765625 29.6099609375 61.6 29.85 62.4 30.9 59.7 35.2 58.35 37.35 56.8 39.25 Z"/>

<path fill="url(#Gradient_2)" stroke="none" d="
M 68.9 7.85
Q 68.857421875 7.7658203125 68.8 7.65 53.75 6 37 8.1 29.45 9 6.75 15.15 10.95 31.55 12.9 49.05 14.9 67.35 19.3 85.5 20.05 85.85 28.35 87.45
L 28.35 87.45
Q 46.4529296875 89.025390625 65.7 82.75 68.5 81.85 72.85 79.25 76.95 76.85 76.75 76.45 77.15 73.25 75.7 55.1 74.45 39.5 73.4 30.6 72.35 21.6 68.9 7.85
M 47.8 12.5
L 59.95 12.4
Q 66.6 12.8 66.9 12.75 68.380078125 19.47265625 69.4 26.2 69.6 26.3 69.7 26.95 69.75 27.55 69.65 27.9 70.65 34.65 71.65 55.65 72.65 76.2 72.9 77.7 69.6404296875 78.6767578125 66.3 79.45
L 58.6 80.95
Q 58.30546875 81.02734375 58 81.05
L 58 81.05
Q 55.45 81.35 41.7 81.8 28.45 82.2 25.9 82.1 22.13125 60.91796875 19.4 39.55 18.8 38.95 17.55 36.95 16.15 34.7 16.2 34 17.3921875 33.406640625 18.6 32.85 17.45 23.15 16.35 17.85 16.95 17.85 29.95 15.35 43.1 12.8 47.8 12.5
L 47.8 12.5 Z"/>

<path fill="#FFFFFF" stroke="none" d="
M 63.2 39
Q 58.9291015625 43.661328125 52.55 46.1 55.0439453125 63.63671875 58 81.05
L 58 81.05
Q 58.30546875 81.02734375 58.6 80.95
L 66.3 79.45
Q 66.2 73.9 64.95 58.35 63.8 43.6 63.2 39
M 59.95 12.4
L 47.8 12.5 47.8 12.5
Q 47.8 13.6 48.35 18.45 48.85 22.9 49.2 25.15 55.3396484375 24.6986328125 61.75 24.95 60.9873046875 18.73671875 59.95 12.4 Z"/>

<path fill="#CCCCCC" stroke="none" d="
M 66 25.6
Q 69.2 26.15 69.4 26.2 68.380078125 19.47265625 66.9 12.75 66.6 12.8 59.95 12.4 60.9873046875 18.73671875 61.75 24.95 62.7 25.05 66 25.6
M 48.35 18.45
Q 47.8 13.6 47.8 12.5 43.1 12.8 29.95 15.35 16.95 17.85 16.35 17.85 17.45 23.15 18.6 32.85 32.746484375 26.3615234375 49.2 25.15 48.85 22.9 48.35 18.45 Z"/>

<path fill="url(#Gradient_3)" stroke="none" d="
M 69.65 27.9
Q 67.416015625 34.5068359375 63.2 39 63.8 43.6 64.95 58.35 66.2 73.9 66.3 79.45 69.6404296875 78.6767578125 72.9 77.7 72.65 76.2 71.65 55.65 70.65 34.65 69.65 27.9 Z"/>

<path fill="#FF9900" stroke="none" d="
M 61.6 29.85
Q 61.4134765625 29.6099609375 61.15 29.35 60.2 29.55 42.95 31.55 26.5 33.5 24.95 33.9 26.270703125 34.51640625 27.65 35.1 47.8099609375 43.7400390625 61.6 29.85 Z"/>

<path fill="#FF3300" stroke="none" d="
M 44.05 44.95
Q 53.034765625 44.1990234375 56.8 39.25 58.35 37.35 59.7 35.2 62.4 30.9 61.6 29.85 47.8099609375 43.7400390625 27.65 35.1 26.270703125 34.51640625 24.95 33.9 23.3068359375 34.41875 21.7 35.05 22 35.55 25.65 38.65 29.4 41.85 31.25 43.1 35.061328125 45.7505859375 44.05 44.95 Z"/>

<path fill="url(#Gradient_4)" stroke="none" d="
M 52.55 46.1
Q 49.61171875 47.2396484375 46.2 47.9 30.1138671875 50.9640625 19.4 39.55 22.13125 60.91796875 25.9 82.1 28.45 82.2 41.7 81.8 55.45 81.35 58 81.05 55.0439453125 63.63671875 52.55 46.1 Z"/>
</g>

<g id="Symbol_14_0_Layer0_0_FILL">
<path fill="url(#Gradient_5)" stroke="none" d="
M -84.4 106.2
L -120.2 124.65 -98.75 98 -130.15 131.4 -60.4 160.6 -88 144.15 -10.1 156.2 -49.1 145.15 -34.3 142.85 -51.05 141.85 21.2 125.25 -68.3 127.9 -37.7 114.7 -50.5 116.35 -36.2 107.95 -94.05 116.95 -84.4 106.2 Z"/>
</g>

<g id="smithhammer_1_Layer1_0_FILL">
<path fill="#000000" stroke="none" d="
M 56.35 -1.3
Q 54.2859375 -2.005078125 50.85 -2.2 47.4607421875 -2.4015625 38.35 -0.15 29.2466796875 2.151171875 28.9 2.35 28.35 3.2 28.1 7.85 27.9 11.85 28.05 14.2 28.05 14.4 25.65 14.65 23.25 14.9 21.65 14.85 2.4474609375 11.4337890625 0.65 25.2 -1.1513671875 39.0041015625 -0.9 51.95 -0.639453125 64.9046875 6 66.1 12.6384765625 67.3056640625 19.95 67.75 20.95 70.95 18.55 83.3 16.15 95.65 15.5 107.55 35.15 113.9 35.75 95.85 36.35 77.8 38.75 69 43.2064453125 79.7427734375 53.7 82.1 64.191796875 84.456640625 69.5 74.15 74.2853515625 53.372265625 74.55 37.55 74.808203125 21.786328125 75.9 13.75 72.678515625 11.23359375 70.7 11.05 62.975 10.4455078125 59.9 13.3 60.3205078125 12.6435546875 60.8 11.7 62.4505859375 8.404296875 64.05 4.55 65.64375 0.6830078125 62.05 0.05 58.459765625 -0.5365234375 56.35 -1.3
M 69.5 15.55
Q 70.236328125 15.990234375 70.7 16.6
L 71.6 18.6
Q 71.7294921875 19.16640625 71.75 19.75 71.74921875 19.8125 71.75 19.85 70.898828125 29.102734375 69.25 42.55 67.6103515625 56.05625 67.3 63.05 67.173828125 63.7615234375 67 64.4 66.0033203125 68.65703125 64.7 71.6
L 63.35 74.15
Q 63.122265625 74.573046875 62.85 74.9
L 62.85 74.9
Q 58.721484375 80.7921875 52.35 76.6 50.4650390625 75.3703125 48.95 74.15 45.28671875 71.2259765625 43.9 68.5 43.8302734375 68.4146484375 43.75 68.3 43.7482421875 68.249609375 43.7 68.2 43.7 68.1552734375 43.65 68.1 43.6509765625 68.034765625 43.6 67.95 43.596484375 67.9263671875 43.55 67.85 42.753515625 65.9251953125 43.15 64.1 42.5818359375 63.9580078125 42.05 63.8 34.35 61.887109375 34.35 61.7 34.05 61.85 33.85 62.05 19.8 61.1 5.85 58.65
L 4.85 56.5
Q 4.5703125 55.8857421875 4.35 55.2
L 4.35 55.2
Q 3.0103515625 51.0841796875 3.55 46.45 3.57734375 46.2716796875 3.6 46.1 4.8 37.1 6 28.35 6.4 25.35 7.4 22.5 8.1359375 22.0970703125 8.95 21.8 10.463671875 21.2623046875 12.25 21.1 16.5 20.75 20.75 20.35 21.3 20.3 21.85 20.1 37.5544921875 20.066796875 45.55 21.75 51.394140625 22.9759765625 55.55 19.35 57.153515625 17.97109375 58.5 15.9 66.3130859375 13.7626953125 69.5 15.55
M 57.55 4.5
Q 57.68125 4.543359375 57.8 4.55 57.3578125 11.1447265625 53.5 15.2 50.0953125 18.8208984375 48.3 18.8 48.06171875 18.815625 47.85 18.75 46.06171875 18.201953125 42.6 18.3 39.1404296875 18.3919921875 32.45 17.7 32.5904296875 16.74765625 32.65 16.05 32.9 14.4939453125 32.9 14.15 32.9 11.9 32.85 9.55 32.8 8.9 32.8 8.25 32.8 7.9 32.8 7.6 32.8 7.25 32.8 6.95 40.8 5.85 48.85 4.85 51.0544921875 4.58046875 53.25 4.5 55.416796875 4.4205078125 57.55 4.5
M 30.45 64.15
L 32.95 64.3
Q 29.58515625 73.56484375 29.15 81.95 29.115625 82.69296875 29.1 83.4 28.85 94.15 27.35 104.45 26.8794921875 104.7162109375 26.4 104.9 22.1005859375 106.9220703125 19.25 103.8 19.45 103.15 19.6 102.45 21.2498046875 95.0078125 22.75 87.5
L 22.75 87.5
Q 22.8931640625 86.832421875 23.05 86.15
L 23.85 82.05
Q 25.55 73.5 25.45 63.85
L 30.45 64.15 Z"/>

<path fill="#FF9900" stroke="none" d="
M 25.4 85.25
Q 24.0791015625 86.3666015625 22.75 87.5 21.2498046875 95.0078125 19.6 102.45 19.45 103.15 19.25 103.8 22.1005859375 106.9220703125 26.4 104.9 25.08125 94.962890625 25.4 85.25
M 51.8 6.85
Q 52.5205078125 5.65390625 53.25 4.5 51.0544921875 4.58046875 48.85 4.85 40.8 5.85 32.8 6.95 32.8 7.25 32.8 7.6 32.8 7.9 32.8 8.25 32.8 8.9 32.85 9.55 32.9 11.9 32.9 14.15 32.9 14.4939453125 32.65 16.05 33.4974609375 15.639453125 34.35 15.25 43.153125 11.2642578125 51.8 6.85 Z"/>

<path fill="#FF3300" stroke="none" d="
M 30.45 64.15
L 25.45 63.85
Q 25.55 73.5 23.85 82.05
L 23.05 86.15
Q 22.8931640625 86.832421875 22.75 87.5
L 22.75 87.5
Q 24.0791015625 86.3666015625 25.4 85.25 25.5857421875 85.0853515625 25.75 84.9 25.496875 81.56953125 26.05 77.6 27.10234375 70.26484375 30.45 64.15
M 53.75 5.85
Q 52.8005859375 6.35234375 51.8 6.85 43.153125 11.2642578125 34.35 15.25 33.4974609375 15.639453125 32.65 16.05 32.5904296875 16.74765625 32.45 17.7 39.1404296875 18.3919921875 42.6 18.3 46.06171875 18.201953125 47.85 18.75 48.06171875 18.815625 48.3 18.8 50.1150390625 11.88515625 53.75 5.85 Z"/>

<path fill="#FFFFFF" stroke="none" d="
M 32.95 64.3
L 30.45 64.15
Q 27.10234375 70.26484375 26.05 77.6 25.496875 81.56953125 25.75 84.9 25.5857421875 85.0853515625 25.4 85.25 25.08125 94.962890625 26.4 104.9 26.8794921875 104.7162109375 27.35 104.45 28.85 94.15 29.1 83.4 29.115625 82.69296875 29.15 81.95 29.58515625 73.56484375 32.95 64.3
M 53.25 4.5
Q 52.5205078125 5.65390625 51.8 6.85 52.8005859375 6.35234375 53.75 5.85 50.1150390625 11.88515625 48.3 18.8 50.0953125 18.8208984375 53.5 15.2 57.3578125 11.1447265625 57.8 4.55 57.68125 4.543359375 57.55 4.5 55.416796875 4.4205078125 53.25 4.5
M 71.75 19.85
Q 71.74921875 19.8125 71.75 19.75 61.666015625 46.6318359375 62.85 74.9
L 62.85 74.9
Q 63.122265625 74.573046875 63.35 74.15
L 64.7 71.6
Q 66.0033203125 68.65703125 67 64.4 67.173828125 63.7615234375 67.3 63.05 67.6103515625 56.05625 69.25 42.55 70.898828125 29.102734375 71.75 19.85
M 70.7 16.6
Q 70.236328125 15.990234375 69.5 15.55 60.6328125 26.2044921875 55.4 39.95 48.7453125 57.351171875 54.4 71.8 54.54921875 71.9888671875 54.7 72.15 49.6 45.25 68.35 24.05 70.5279296875 21.56953125 71.7 19.45 71.6962890625 19.03359375 71.6 18.6
L 70.7 16.6 Z"/>

<path fill="#333333" stroke="none" d="
M 43.55 67.85
Q 43.576171875 65.78125 43.8 63.55 42.9509765625 63.710546875 42.05 63.8 42.5818359375 63.9580078125 43.15 64.1 42.753515625 65.9251953125 43.55 67.85
M 55.55 19.35
Q 51.394140625 22.9759765625 45.55 21.75 37.5544921875 20.066796875 21.85 20.1 21.3 20.3 20.75 20.35 16.5 20.75 12.25 21.1 10.463671875 21.2623046875 8.95 21.8 30.6705078125 23.590625 51.55 25.75 53.2736328125 22.3970703125 55.55 19.35
M 71.75 19.75
Q 71.7294921875 19.16640625 71.6 18.6 71.6962890625 19.03359375 71.7 19.45 70.5279296875 21.56953125 68.35 24.05 49.6 45.25 54.7 72.15 54.54921875 71.9888671875 54.4 71.8 48.0759765625 64.7958984375 47.05 51.8 46.696484375 47.328125 46.95 43.15 45.334375 43.480859375 43.6 43.65 24.9 45.6 6.05 46.55 4.680859375 46.61953125 3.55 46.45 3.0103515625 51.0841796875 4.35 55.2 25.2708984375 56.88984375 43.95 62.35 44.1595703125 61.2013671875 44.4 60 44.4 59.9 44.65 59.85 45.0515625 61.3390625 45.45 62.8 45.60703125 62.8564453125 45.75 62.9 45.9 62.95 45.95 63.25 45.7794921875 63.280078125 45.6 63.3 47.1615234375 68.7716796875 48.95 74.15 50.4650390625 75.3703125 52.35 76.6 58.721484375 80.7921875 62.85 74.9 61.666015625 46.6318359375 71.75 19.75 Z"/>

<path fill="#666666" stroke="none" d="
M 33.85 62.05
Q 34.05 61.85 34.35 61.7 34.35 61.887109375 42.05 63.8 42.9509765625 63.710546875 43.8 63.55 43.576171875 65.78125 43.55 67.85 43.596484375 67.9263671875 43.6 67.95 43.6509765625 68.034765625 43.65 68.1 43.7 68.1552734375 43.7 68.2 43.7482421875 68.249609375 43.75 68.3 43.8302734375 68.4146484375 43.9 68.5 45.28671875 71.2259765625 48.95 74.15 47.1615234375 68.7716796875 45.6 63.3 45.7794921875 63.280078125 45.95 63.25 45.9 62.95 45.75 62.9 45.60703125 62.8564453125 45.45 62.8 45.0515625 61.3390625 44.65 59.85 44.4 59.9 44.4 60 44.1595703125 61.2013671875 43.95 62.35 25.2708984375 56.88984375 4.35 55.2
L 4.35 55.2
Q 4.5703125 55.8857421875 4.85 56.5
L 5.85 58.65
Q 19.8 61.1 33.85 62.05
M 58.5 15.9
Q 57.153515625 17.97109375 55.55 19.35 53.2736328125 22.3970703125 51.55 25.75 30.6705078125 23.590625 8.95 21.8 8.1359375 22.0970703125 7.4 22.5 6.4 25.35 6 28.35 4.8 37.1 3.6 46.1 3.57734375 46.2716796875 3.55 46.45 4.680859375 46.61953125 6.05 46.55 24.9 45.6 43.6 43.65 45.334375 43.480859375 46.95 43.15 46.696484375 47.328125 47.05 51.8 48.0759765625 64.7958984375 54.4 71.8 48.7453125 57.351171875 55.4 39.95 60.6328125 26.2044921875 69.5 15.55 66.3130859375 13.7626953125 58.5 15.9 Z"/>
</g>

<g id="smithhammer_1_Layer0_0_FILL">
<path fill="#FF9900" stroke="none" d="
M 58.8 19.75
Q 58.28125 20.48984375 53.55 26.6 54.0439453125 27.3646484375 54.9 27.65 55.35078125 27.8060546875 57.35 23.4 59.397265625 19.0310546875 58.8 19.75
M 45.45 37.35
Q 48.0244140625 36.35546875 53 32.7 52.973046875 32.05625 52.55 31.4 43.3201171875 35.500390625 43.1 36.95 42.924609375 38.4017578125 45.45 37.35 Z"/>
</g>

<g id="smithhand_2_Layer0_0_FILL">
<path fill="#000000" stroke="none" d="
M 9 9.6
Q 4.25 8.5 3.4 8.7 -0.1 9.75 -2 13.1 -6.2 20.75 0.3 25.9 6 30.45 10.2 27.65 14.4 24.8 15.25 17.5 13.65 10.7 9 9.6
M 7.2 13.9
Q 8.35 14.3 9.1 15.2 10.6 16.95 10.35 19.55 10.1 21.25 9.05 22.15 8.2 22.9 5.45 23.05 3.1587890625 22.9220703125 1.95 21.4 1.15 20.3 1.15 18.8 1.15 17.4 1.85 16.1 2.5294921875 14.83828125 3.6 14.2 4.2265625 13.8587890625 4.95 13.7 6.05 13.45 7.2 13.9 Z"/>

<path fill="#666666" stroke="none" d="
M 6.35 16.55
Q 6.5 16.3 5.45 15.3 4.4 14.3 3.6 14.2 2.5294921875 14.83828125 1.85 16.1 1.15 17.4 1.15 18.8 1.15 20.3 1.95 21.4 3.1587890625 22.9220703125 5.45 23.05 4.5126953125 19.866796875 6.35 16.55 Z"/>

<path fill="#CCCCCC" stroke="none" d="
M 9.1 15.2
Q 8.35 14.3 7.2 13.9 6.05 13.45 4.95 13.7 4.2265625 13.8587890625 3.6 14.2 4.4 14.3 5.45 15.3 6.5 16.3 6.35 16.55 4.5126953125 19.866796875 5.45 23.05 8.2 22.9 9.05 22.15 10.1 21.25 10.35 19.55 10.6 16.95 9.1 15.2 Z"/>
</g>

<g id="smithhand_1_Layer0_0_FILL">
<path fill="#000000" stroke="none" d="
M 23.1 7.45
Q 22.5041015625 1.5498046875 22 1.7 21.6 1.75 19.8 1.3 17.9 0.85 17.5 0.75 12.5 1.45 8.35 4.55 6.6935546875 5.813671875 5.3 7.2
L 2.9 6.75
Q -1.2544921875 7.9970703125 -6.25 15.65 -11.187109375 23.3640625 -3.45 29.25 4.3380859375 35.126953125 9.9 30.85 15.46015625 26.6240234375 16.55 24.15 19.2013671875 23.18359375 21.45 18.25 23.742578125 13.3556640625 23.1 7.45
M 7.45 12.95
Q 8.8 13.45 9.7 14.5 10.843359375 15.833984375 11.1 17.55 11.277734375 18.5373046875 11.15 19.65 10.9 21.7 9.65 22.8 8.25 24 6 23.9 4.2796875 23.9 3 23.3 2.046875 22.8443359375 1.35 22 1.272265625 21.9427734375 1.2 21.85 0.25 20.6 0.25 18.8 0.25 17.1 1.05 15.6 2.3 13.25 4.75 12.7 6.05 12.4 7.45 12.95
M 17.5 13.25
Q 17.0876953125 13.887890625 16.1 15.25 14.55 17.35 13.85 18.25 14.0595703125 14.90234375 12.3 12.65 11.1888671875 11.22421875 9.2 10.25 15.375 7.089453125 21.15 3.55 21.1 4.05 17.5 13.25 Z"/>

<path fill="#CCCCCC" stroke="none" d="
M 16 11.55
Q 15.2 10.4 15.3 10.3 13.8681640625 11.52421875 12.3 12.65 14.0595703125 14.90234375 13.85 18.25 14.55 17.35 16.1 15.25 17.0876953125 13.887890625 17.5 13.25 16.85 12.75 16 11.55
M 6 23.9
Q 8.25 24 9.65 22.8 10.9 21.7 11.15 19.65 11.277734375 18.5373046875 11.1 17.55 8.85 17.15 6.75 17.7 2.6 18.8 3 23.3 4.2796875 23.9 6 23.9 Z"/>

<path fill="#666666" stroke="none" d="
M 15.3 10.3
Q 15.2 10.4 16 11.55 16.85 12.75 17.5 13.25 21.1 4.05 21.15 3.55 15.375 7.089453125 9.2 10.25 11.1888671875 11.22421875 12.3 12.65 13.8681640625 11.52421875 15.3 10.3
M 9.7 14.5
Q 8.8 13.45 7.45 12.95 6.05 12.4 4.75 12.7 2.3 13.25 1.05 15.6 0.25 17.1 0.25 18.8 0.25 20.6 1.2 21.85 1.272265625 21.9427734375 1.35 22 2.046875 22.8443359375 3 23.3 2.6 18.8 6.75 17.7 8.85 17.15 11.1 17.55 10.843359375 15.833984375 9.7 14.5 Z"/>
</g>

<g id="smith_attack_7_Layer0_0_FILL">
<path fill="#000000" stroke="none" d="
M -57.3 151.6
Q -57.2931640625 150.83515625 -57.3 150.1
L -69.7 148.15
Q -70.3935546875 148.66875 -71.1 149.15
L -63.85 153.45
Q -61.0291015625 152.91875 -57.3 151.6
M -79.95 94.65
Q -80.25 92.55 -80.2 91.15 -76.8 74.1 -92.1 72.8 -98.3357421875 72.287109375 -104.45 72.05 -94.4126953125 64.1958984375 -89.95 57.25 -91.8 51.25 -94.7 44.75 -97.8 38 -101.6 31.55 -113.5 14.9 -130.25 3 -130.55 2.8 -130.9 2.65 -130.7 2.5 -130.65 2.35 -131.15 2.3 -132.05 1.5 -132.85 0.7 -137.1 0.8 -141.4 0.8 -152.95 11.75 -164.55 22.7 -180.55 36.55 -181.35 37.25 -182.25 37.8 -184.7625 39.5111328125 -186.85 41.15 -192.02578125 40.2529296875 -197.3 40.85 -202.25 41.45 -206.55 43.25 -219.15 48.75 -212.05 61.8 -210.2 65.3 -208.1 68.5 -204.5 73.85 -199.8 78.4 -197.7 80.5 -195.2 82.1 -191 85.05 -188.25 89.45 -186.8392578125 91.6611328125 -185.15 92.95 -184.8494140625 93.6189453125 -184.45 94.35 -185.312890625 105.2814453125 -169.55 105.4 -161.8916015625 105.43828125 -155.75 105.75 -154.1876953125 107.39609375 -152.25 108.2 -148.638671875 109.621484375 -145.1 106.6 -142.119921875 106.978515625 -139.75 107.45 -151.6 111.65 -154 120.95 -155.213671875 125.58203125 -153 129
L -153.45 130.7
Q -174.25 133.85 -182 137.25 -193.65 142.25 -187.65 148.6 -185.15 151.2 -170 155.9 -162.1 158.3 -151.75 161.05 -151.45 161.7 -151.1 165.2 -151 166.6 -146.8 167.55 -144.6 168.05 -142.05 168.6 -141.35 169 -143.95 173.15 -146.75 177.65 -150.5 180.8 -149.15 182.6 -139.6 186.2 -130.55 189.7 -130 189.35 -129.6 189.1 -123.45 187.1 -116.7 184.9 -111.6 183.35 -107.05 182 -94.95 184.95 -83.25 187.8 -83.05 187.7 -81.7 187 -77 183.6 -71.85 179.9 -71.05 178.8 -70.55 178 -73.95 173.85 -77.6 169.6 -77.05 168 -76.6 166.2 -72.45 160.65 -69.624609375 156.8830078125 -67.4 155.1
L -74.85 152
Q -81.6296875 157.575390625 -82.75 162.15 -82.7873046875 162.28828125 -82.85 162.4 -83.6 165.420703125 -83.6 168.05 -83.7 169.8 -83.2 171.3 -81.85 175.35 -76.45 177.5 -76.5 177.5 -76.6 177.6
L -78.5 178.85
Q -79 179.15 -79.6 179.6 -80.1 179.9 -80.7 180.35 -84.65 183.1 -85.15 183.25 -85.4 183.15 -85.6 183 -88.229296875 181.5041015625 -95.65 179.1 -96.387890625 178.856640625 -97.2 178.6 -106.35 175.6 -109.55 175.6 -111.65 175.7 -121.65 180.1 -131.4 184.4 -131.75 185.05
L -142.45 180.6
Q -139.3 179.05 -137.05 174.05 -135.25 169.75 -135.6 168.5 -137.45 160.5 -147.8 159.9 -147.9 159.65 -147.95 159.35 -148.3 157.65 -149.35 154.15 -149.8548828125 152.4056640625 -150.3 151.25
L -150.3 151.2 -150.3 151.15
Q -150.3291015625 151.105859375 -150.35 151.05
L -151.1 149.2
Q -151.15 149.2 -151.15 149.15 -151.3 149.4 -151.45 149.65 -152.75 151.95 -152.8 155 -167.8 152.1 -181.15 144.4 -181.3 144.35 -181.5 144.25
L -183 143.35
Q -183.05 143.3 -183.15 143.25 -181.3 142.3 -172.2 139.85 -170.95 139.5 -169.55 139.1 -164.2 137.7 -156.2 135.75 -154.95 135.45 -153.65 135.15
L -152.85 138.65
Q -152.8 138.75 -152.8 138.85 -152.25 140.5 -151.5 142.9 -151.3 142.65 -151 141.75 -150.8 141.2 -150.55 140.45 -150.4 139.65 -150.1 138.65 -150.05 138.35 -149.95 138.05 -148.95 134.05 -148.9 134.05 -148.7 134.05 -148.55 134.05 -147.55703125 134.0357421875 -146.6 134 -145.801171875 134.3744140625 -144.95 134.7 -123.734375 138.1900390625 -107.35 138.4 -105.8693359375 138.408203125 -104.45 138.4 -87 138.3 -78.1 139.1 -75.4 136.2 -75.2 134.45 -74.65 127.65 -77.9 125 -77.15 125.3 -76.1 125.7 -72.4 127.1 -70.55 127 -68.55 126.9 -65.8 124 -65.45 123.6 -65.2 123.25 -63.2 120.9 -63.25 119.5 -63.2796875 119.026171875 -63.45 117.8 -63.7498046875 114.8939453125 -64.7 107.75 -66.1 97.6 -66.3 97.3 -67.25 96.8 -72.4 96.7 -76.8 96.6 -79.4 96.8 -79.6 96.8 -79.95 94.65
M -133.65 6.4
Q -130.6 9 -127.7 11.8 -119.75 19.35 -112.8 28.45 -102.5 41.85 -96.3 55.6 -96.4 55.7 -96.45 55.9
L -98.8 58.65
Q -102.95 63.05 -113.8 71.2 -114.2712890625 71.55625 -114.75 71.9 -117.58515625 71.9255859375 -120.4 72 -120.9962890625 72.02890625 -121.6 72.05 -135.95 72.55 -137.15 78.45 -137.6990234375 81.041015625 -138.1 83.75 -138.473828125 86.6451171875 -138.7 89.65 -139.748828125 90.4234375 -140.8 91.1 -141.98671875 91.1826171875 -143.65 91.1 -145.0826171875 89.6177734375 -146.85 88.9 -148.1095703125 88.368359375 -149.55 88.25 -150.397265625 88.25 -154.35 90.1 -155.130078125 90.0107421875 -155.95 89.9 -157.4697265625 89.6939453125 -159 89.5 -159.432421875 89.452734375 -159.9 89.4 -161.91015625 89.1560546875 -163.95 88.95 -163.9431640625 87.1291015625 -164.45 85.05 -164.6259765625 84.3970703125 -164.85 83.8 -164.9375 83.5685546875 -165.05 83.35 -166.27578125 80.4033203125 -168.85 78.6 -169.05625 78.453515625 -169.3 78.3 -170.35 78.25 -171.45 78.15 -171.65 78.2 -171.75 78.2 -172.75 76.45 -174 74.8 -177.0431640625 71.0078125 -181.35 69.05 -181.6619140625 68.4923828125 -182 67.9 -183.3953125 65.57734375 -184.65 63.15 -185.1251953125 62.1921875 -185.6 61.2
L -185.6 61.15
Q -185.9 60.45 -186.2 59.8 -187.18671875 57.60234375 -188 55.4 -188.1072265625 55.15234375 -188.2 54.9 -188.35 53.6 -188.45 52.3 -188.382421875 52.2349609375 -188.35 52.15 -185.6470703125 49.6041015625 -182.95 47.1 -180.9529296875 45.2990234375 -178.95 43.5 -169.8927734375 35.5283203125 -160.3 28.35 -146.15 17.85 -134.15 5.9 -133.9 6.2 -133.65 6.4
M -158.75 95.3
Q -158.846484375 95.639453125 -158.95 96 -159.245703125 97.4373046875 -159.3 99.2 -161.1400390625 99.171875 -163 99.1 -166.7099609375 99.031640625 -170.4 98.8 -168.1517578125 97.72421875 -166.7 96.2 -165.3498046875 94.853515625 -164.7 93.15 -162.583984375 93.450390625 -160.5 93.75
L -160.55 93.7
Q -159.8 93.85 -159 93.95
L -159 93.95 -158.35 94.05
Q -158.5642578125 94.6345703125 -158.75 95.3
M -154 96.2
Q -153.9072265625 96.0041015625 -153.8 95.8 -153.4736328125 95.22890625 -153.05 94.8 -152.6560546875 94.4236328125 -152.2 94.15 -151.15 93.45 -150.05 93.5 -149.3 93.5 -148.65 93.65 -147.45 94.1 -146.5 95.2 -146.403515625 95.3060546875 -146.35 95.4 -145.726953125 96.12890625 -145.45 96.95 -145.3171875 97.2869140625 -145.25 97.65 -144.94921875 98.9392578125 -145.35 100 -145.4158203125 100.1814453125 -145.5 100.35 -146.35 102.05 -148.55 102.75 -148.8 102.8 -149.1 102.85 -150.9 103.35 -152.3 102.6 -153.45 101.9 -154.05 100.3 -154.2216796875 99.763671875 -154.3 99.25 -154.584765625 97.61796875 -154 96.2
M -125.15 76.75
L -125.15 76.8
Q -122.6568359375 76.0521484375 -120 75.85 -117.796875 75.6716796875 -115.5 75.85 -115.25 75.9 -115.1 75.9 -112.6083984375 76.11171875 -110.15 76.3 -102.6955078125 76.96171875 -95.45 77.6 -92.1 77.9 -88.9 78.75 -88.5 79.4 -88.15 80.1 -87.5 81.4 -87.3 83 -86.85 86.75 -86.35 90.5 -86.3 90.95 -86 91.45 -85.856640625 98.096484375 -86.2 103.2 -86.18515625 103.3548828125 -86.2 103.5 -86.5623046875 108.8484375 -87.45 112.45 -88.226171875 115.6478515625 -86.95 118.25 -86.18515625 119.86640625 -84.65 121.25 -83.05 122.6 -80.75 123.75 -78.25 130.6 -80.25 133.5 -80.7 134.15 -81.3 134.55
L -83.55 135.4
Q -84.1 135.5 -84.85 135.55
L -84.9 135.55
Q -95.1 135 -110.1 133.85 -112.4767578125 133.6580078125 -114.7 133.5 -126.2064453125 132.633984375 -132.8 132.55 -133.5 132.45 -134.3 132.35 -138.95 131.55 -142.2 130.45
L -145.1 129.3
Q -145.5 129.05 -145.95 128.95
L -145.9 128.95
Q -147.6759765625 127.98125 -148.65 126.85 -151.2892578125 123.8162109375 -148 119.65 -146.6 117.95 -145.3 116.55 -142.15 113.3 -139.2 112 -139.05 111.95 -138.95 111.9 -138.9 111.85 -138.85 111.85 -138.75 111.8 -138.7 111.8 -138.65 111.8 -138.6 111.8 -138.55 111.75 -138.5 111.75 -136.35 110.95 -134.3 111.25 -134.15 110.75 -134 110.25 -132 103.4 -131.8 103.4 -131.95 103.15 -132.2 102.95 -131.7685546875 96.2611328125 -130.85 89.55 -130.4021484375 86.3845703125 -129.85 83.2 -129.4099609375 80.6796875 -128.9 78.15
L -126.6 77.25
Q -125.9 76.9 -125.15 76.75
M -140.4 98
Q -140.421484375 96.8333984375 -140.85 95.6 -137.624609375 95.693359375 -134.3 95.6
L -134.55 100 -134.7 102.2
Q -137.8091796875 101.369921875 -140.85 100.75 -140.3650390625 99.4091796875 -140.4 98
M -83.2 100.8
Q -82.15 100.85 -81.4 100.95 -79.7 101.1 -79.3 101.1 -76.8 101.05 -74.2 100.95 -73.5 100.9 -72.75 100.9 -72.4 100.85 -72.05 100.85 -71.65 100.85 -71.35 100.85 -69.95 107.9 -68.7 114.95 -68.42265625 116.7529296875 -68.25 118.55 -68.2150390625 118.7029296875 -68.2 118.85 -68.1 120.75 -68.25 122.7 -68.25 122.8 -68.25 122.9 -74.5064453125 122.6841796875 -78.8 120.2 -79.072265625 120.026953125 -79.35 119.85 -79.735546875 119.6115234375 -80.1 119.35 -82.391796875 117.6806640625 -83.4 116.45 -84.1783203125 115.49453125 -84.2 114.8 -84.15 114.55 -84.05 114.4 -83.5 112.8 -83.7 109.75 -83.85 106.7 -83.2 100.8
M -194.1 45.8
Q -193.9 45.75 -193.85 45.75 -196.65 47.35 -199.05 49.8 -199.35 50.1 -199.5 50.4 -201.1 50.4 -202.55 51 -204.8 51.3 -207.05 52.15 -208.65 52.75 -209.7 53.6 -209.9 53.75 -210.05 53.95 -210.1 53.85 -210.1 53.75 -210.95 50.75 -207.85 49.5 -205 48.4 -202.2 47.6
L -202.15 47.55
Q -201.9 47.45 -201.7 47.45
L -195.15 45.95
Q -194.65 45.8 -194.1 45.8
M -207.4 55.5
Q -206.95 54.95 -205.6 54.05 -204.65 53.35 -204.05 53.1 -203.35 52.85 -202.3 52.75 -200.85 52.55 -200.05 52.65 -199.95 52.65 -199.6 52.7 -199.55 52.75 -199.5 52.75 -199.15 52.75 -198.85 52.85 -198.6 52.9 -198.3 52.85 -195.95 53.2 -194.5 54.35 -192.65 55.75 -192.45 57.9 -192.35 60.75 -195.6 63 -197 63.95 -198 64.25 -198.46953125 64.469140625 -199.05 64.65
L -199.05 64.7
Q -199.3125 64.775 -199.6 64.85
L -200.45 65.1
Q -203.75 66.05 -205.7 65.15 -207.05 64.6 -208.15 63.15 -208.9 62.1 -209.1 61.2 -209.25 60.4 -209.25 59.65 -209.2 59.05 -209 58.45 -208.6 56.7 -207.4 55.5
M -203.85 67
Q -203.9 66.9 -203.95 66.85 -203.9 66.85 -203.85 66.85 -203.85 66.9 -203.85 67
M -193.4 52.35
Q -195.1 51.3 -196.75 50.8 -195.559375 50.3501953125 -194.35 49.85 -193.0775390625 52.6396484375 -191.55 56.25 -189.1009765625 61.892578125 -186.6 66.9 -189.873828125 64.0287109375 -192.25 60.15 -191.05 57.2 -193.4 52.35
M -193.15 61.55
L -193.1 61.5
Q -192.85 61.2 -192.7 60.85 -190.4435546875 65.1458984375 -187.2 68.75 -188.2732421875 70.052734375 -189.05 71.45 -189.061328125 71.499609375 -189.1 71.5 -189.817578125 72.9234375 -190.25 74.45 -190.5748046875 75.695703125 -190.7 77 -191.1283203125 77 -191.55 77 -194.2 77 -195.85 75.05 -199.1 71.15 -201.45 67.35 -199.65 67.45 -197.65 66.35 -196.0556640625 65.458984375 -194.95 64.25 -194.871484375 64.180859375 -194.8 64.1
L -193.4 62.2
Q -193.25 61.9 -193.15 61.55
M -186.15 70.6
Q -184.5484375 72.2703125 -182.9 73.9 -179.7263671875 77.0515625 -176.35 80.1 -178.45 80.5 -180 81.65 -180.29296875 81.8763671875 -180.55 82.1 -182.2865234375 83.789453125 -182.85 86.65 -183.8 84.45 -184.7 82.1 -184.91328125 81.4955078125 -185.15 80.9
L -185.15 80.9
Q -185.169921875 80.8009765625 -185.2 80.7
L -185.25 80.65
Q -185.258203125 80.518359375 -185.3 80.4
L -186.3 73.25
Q -186.3 72.6 -186.3 72.05 -186.25 71.35 -186.15 70.6
M -179.45 85.6
Q -178.8009765625 84.733984375 -177.85 84.1 -177.4158203125 83.7841796875 -176.95 83.55 -176.177734375 83.2408203125 -175.3 83.15 -173.8 83 -172.65 83.6 -170.4 84.75 -169.8 87.35 -169.4 89 -169.85 90.65 -170.08671875 91.570703125 -170.55 92.25 -170.93125 92.8998046875 -171.5 93.35 -171.6 93.45 -171.7 93.5 -172.65 94.15 -173.7 94.25 -175.05 94.55 -176.7 94.1 -178.79453125 93.6615234375 -179.85 92.2 -179.8728515625 92.188671875 -179.9 92.15 -180.9 90.7 -180.55 88.7 -180.5099609375 88.238671875 -180.45 87.8 -180.289453125 87.1888671875 -180.05 86.65 -179.79375 86.0826171875 -179.45 85.6
M -147.65 25.9
Q -148.3 27.55 -148.8 29.2 -153.25 44.15 -142.45 56.5 -140.2 59.1 -137.65 61.1 -132.35 65.35 -126.2 66.75 -120.2 68 -113.35 66.6 -112.6 66.45 -111.9 66.3 -111.95 65.9 -112.05 65.55 -112.05 65.1 -112.2 64.65 -112.25 64 -112.5 63.35 -112.75 62.5 -113.15 61.7 -113.95 59.95 -114.8 58.4 -117.8 52.7 -121.3 47.6 -130.65 34 -143.45 25.1 -144.5 24.35 -145.6 23.6 -147.05 24.4 -147.65 25.9
M -145.5 37.95
Q -145.5 35.45 -145.15 33 -144.8 30.7 -143.75 28.85 -142.35 29.95 -141.15 31.1 -138 34.05 -135.55 37.55 -130.05 45.35 -124.5 53.05 -121.85 56.65 -118.9 60.05 -118.95 60.35 -119.15 60.7 -120.3 63.5 -124.8 62.7 -124.95 62.7 -125.15 62.7
L -125.2 62.65
Q -125.35 62.6 -125.55 62.65 -125.6 62.65 -125.65 62.6 -126.4 62.45 -127.25 62.2 -127.25 62.15 -127.35 62.1 -127.4 62.1 -127.55 62.1
L -127.65 62.05
Q -128.15 61.9 -128.55 61.75 -128.75 61.6 -129.05 61.55 -129.2 61.45 -129.25 61.5 -129.45 61.4 -129.65 61.3 -129.9 61.2 -130.15 61.1 -145.4 54.8 -145.5 37.95 Z"/>

<path fill="#333333" stroke="none" d="
M -69.7 148.15
L -73.75 147.55 -71.1 149.15
Q -70.3935546875 148.66875 -69.7 148.15
M -150.2 151.4
Q -150.238671875 151.3228515625 -150.3 151.25 -149.8548828125 152.4056640625 -149.35 154.15 -148.3 157.65 -147.95 159.35 -147.9 159.65 -147.8 159.9 -137.45 160.5 -135.6 168.5 -135.25 169.75 -137.05 174.05 -139.3 179.05 -142.45 180.6
L -131.75 185.05
Q -131.4 184.4 -121.65 180.1 -111.65 175.7 -109.55 175.6 -106.35 175.6 -97.2 178.6 -96.387890625 178.856640625 -95.65 179.1 -99.6271484375 172.585546875 -103.8 166.15 -106.5611328125 161.8873046875 -107.45 158.2 -124.3908203125 154.958984375 -140.95 150.8 -145.6568359375 151.205078125 -150.2 151.4
M -152.8 138.85
Q -153.3 144.55 -161.6 145.3 -171.85 146.3 -181.15 144.4 -167.8 152.1 -152.8 155 -152.75 151.95 -151.45 149.65 -151.4 145.5 -151 141.75 -151.3 142.65 -151.5 142.9 -152.25 140.5 -152.8 138.85
M -134 110.25
Q -134.15 110.75 -134.3 111.25 -136.35 110.95 -138.5 111.75 -136.2 111.7 -133.75 111.85 -133.85 111.05 -134 110.25 Z"/>

<path fill="#FFFFFF" stroke="none" d="
M -83.2 171.3
Q -84.8 169.75 -86.2 168.05 -86.2 177.15 -79.6 179.6 -79 179.15 -78.5 178.85
L -76.6 177.6
Q -76.5 177.5 -76.45 177.5 -81.85 175.35 -83.2 171.3
M -92.2 144.7
L -107.35 138.4
Q -123.734375 138.1900390625 -144.95 134.7 -145.801171875 134.3744140625 -146.6 134 -147.55703125 134.0357421875 -148.55 134.05 -148.7 134.05 -148.9 134.05 -148.95 134.05 -149.95 138.05 -150.05 138.35 -150.1 138.65 -150.4 139.65 -150.55 140.45 -150.8 141.2 -151 141.75 -151.4 145.5 -151.45 149.65 -151.3 149.4 -151.15 149.15 -151.15 149.2 -151.1 149.2
L -150.35 151.05
Q -150.3291015625 151.105859375 -150.3 151.15
L -150.3 151.2 -150.3 151.25
Q -150.238671875 151.3228515625 -150.2 151.4 -145.6568359375 151.205078125 -140.95 150.8 -133.8546875 150.2046875 -126.4 149.15 -126.0416015625 149.09921875 -125.7 149.05 -109.0220703125 146.5853515625 -92.2 144.7
M -81.4 115.4
Q -82.7666015625 115.069921875 -84.2 114.8 -84.1783203125 115.49453125 -83.4 116.45 -82.391796875 117.6806640625 -80.1 119.35 -79.735546875 119.6115234375 -79.35 119.85 -79.072265625 120.026953125 -78.8 120.2 -74.5064453125 122.6841796875 -68.25 122.9 -68.25 122.8 -68.25 122.7 -68.1 120.75 -68.2 118.85 -68.4419921875 118.73359375 -68.7 118.6 -69.7830078125 118.1013671875 -70.85 117.65 -70.472265625 118.2337890625 -70.1 118.85 -69.887890625 119.1181640625 -69.7 119.4 -70.1982421875 119.169140625 -70.7 118.95 -73.54765625 117.692578125 -76.55 116.7 -78.9091796875 115.9724609375 -81.4 115.4
M -134.7 102.2
L -134.55 100
Q -137.3669921875 98.8486328125 -140.4 98 -140.3650390625 99.4091796875 -140.85 100.75 -137.8091796875 101.369921875 -134.7 102.2
M -114.7 133.5
Q -112.4767578125 133.6580078125 -110.1 133.85 -95.1 135 -84.9 135.55
L -84.85 135.55
Q -98.0533203125 131.856640625 -111.55 130.15 -128.500390625 127.9740234375 -145.9 128.95
L -145.95 128.95
Q -145.5 129.05 -145.1 129.3
L -142.2 130.45
Q -138.95 131.55 -134.3 132.35 -133.5 132.45 -132.8 132.55 -126.2064453125 132.633984375 -114.7 133.5
M -115.1 75.9
Q -115.25 75.9 -115.5 75.85 -115.6 76.85 -115.55 78.05 -115.4724609375 78.9732421875 -115.4 79.9 -114.0140625 95.61484375 -111.7 111.2 -111.5 112.75 -111.15 114.2 -115.75 114 -120.65 114.45 -134.95 115.6 -142.65 121.35 -142.85 121.45 -143 121.6 -123.18515625 118.2251953125 -106 124.25 -104.7990234375 124.6978515625 -103.65 125.15 -102.70234375 125.5328125 -101.8 125.9 -95.513671875 128.603515625 -89.6 132.6 -86.75 134.5 -84.5 135.5 -84 135.45 -83.55 135.4
L -81.3 134.55
Q -80.7 134.15 -80.25 133.5 -78.25 130.6 -80.75 123.75 -83.05 122.6 -84.65 121.25 -86.5794921875 120.098046875 -88.65 119.15 -90.1599609375 118.4435546875 -91.75 117.85 -91.290234375 113.586328125 -90.85 109.3 -90.78515625 108.6634765625 -90.75 108 -89.327734375 94.2341796875 -88.15 80.1 -88.5 79.4 -88.9 78.75 -92.1 77.9 -95.45 77.6 -102.6955078125 76.96171875 -110.15 76.3 -112.6083984375 76.11171875 -115.1 75.9
M -92.7 119.65
Q -91.9423828125 120.0923828125 -91.25 120.5 -85.7615234375 123.7052734375 -85.05 124.15 -84.2 124.6 -89.1 122.95 -91.879296875 121.957421875 -93.05 121.4 -93.8865234375 120.973046875 -93.8 120.8 -93.5 120.05 -92.7 119.65
M -99.5 119.25
Q -99.9611328125 118.7546875 -100.4 118.3 -103.6865234375 114.649609375 -104.75 112.7 -105.9 110.45 -104.3 110.65 -102.898828125 110.69375 -99.2 117 -98.7349609375 117.7181640625 -98.3 118.5 -98.1595703125 118.70703125 -98.05 118.9 -98.3890625 119.0564453125 -98.8 119.15 -99.1173828125 119.226171875 -99.5 119.25
M -159.3 99.2
Q -159.245703125 97.4373046875 -158.95 96 -162.6580078125 96.005859375 -166.45 96.2 -166.5552734375 96.20625 -166.7 96.2 -168.1517578125 97.72421875 -170.4 98.8 -166.7099609375 99.031640625 -163 99.1 -161.1400390625 99.171875 -159.3 99.2
M -126.2 66.75
Q -132.35 65.35 -137.65 61.1 -140.2 59.1 -142.45 56.5 -153.25 44.15 -148.8 29.2 -161.1404296875 38.745703125 -173.2 48.75 -175.318359375 50.5302734375 -177.45 52.3 -179.831640625 54.3283203125 -182.2 56.35 -180.1 60.2 -178 64.15 -176.6896484375 66.57734375 -175.3 68.9 -172.268359375 73.981640625 -168.85 78.6 -166.27578125 80.4033203125 -165.05 83.35 -164.9375 83.5685546875 -164.85 83.8 -164.3919921875 84.3203125 -163.9 84.85
L -160.35 88.85
Q -160.1236328125 89.1330078125 -159.9 89.4 -159.432421875 89.452734375 -159 89.5 -157.4697265625 89.6939453125 -155.95 89.9 -155.130078125 90.0107421875 -154.35 90.1 -150.397265625 88.25 -149.55 88.25 -148.1095703125 88.368359375 -146.85 88.9 -145.1525390625 87.8220703125 -143.35 86.8 -140.686328125 85.308984375 -138.1 83.75 -137.6990234375 81.041015625 -137.15 78.45 -135.95 72.55 -121.6 72.05 -120.9962890625 72.02890625 -120.4 72 -116.8162109375 69.3779296875 -113.35 66.6 -120.2 68 -126.2 66.75
M -109.55 42.45
Q -109.9875 42.66875 -110.5 43 -109.99375 42.65625 -109.6 42.35
L -110.35 41.2
Q -110.7 40.6 -111.1 40
L -111.1 40.05
Q -117.95 29.85 -126.85 21.35 -129.85 18.5 -131.6 15.6 -135.15 18.85 -139.3 21.95 -141.4 23.55 -143.45 25.1 -130.65 34 -121.3 47.6 -117.8 52.7 -114.8 58.4 -113.95 59.95 -113.15 61.7 -112.75 62.5 -112.5 63.35 -112.25 64 -112.2 64.65 -112.05 65.1 -112.05 65.55 -106.65 61.3 -101.7 56.65 -102.7 54.85 -103.6 52.95 -104.3 51.65 -104.95 50.45 -105.7 48.95 -106.55 47.5 -106.75 47 -106.95 46.65 -107.1 46.4 -107.2 46.2 -107.35 45.95 -107.5 45.7 -107.7 45.45 -107.85 45.15 -108.55 43.95 -109.25 42.85 -109.4 42.65 -109.55 42.45 Z"/>

<path fill="#FFCC00" stroke="none" d="
M -126.4 149.15
Q -133.8546875 150.2046875 -140.95 150.8 -124.3908203125 154.958984375 -107.45 158.2 -106.5611328125 161.8873046875 -103.8 166.15 -99.6271484375 172.585546875 -95.65 179.1 -88.229296875 181.5041015625 -85.6 183 -85.4 183.15 -85.15 183.25 -84.65 183.1 -80.7 180.35 -80.1 179.9 -79.6 179.6 -86.2 177.15 -86.2 168.05 -84.8 169.75 -83.2 171.3 -83.7 169.8 -83.6 168.05 -83.6 165.420703125 -82.85 162.4 -82.7873046875 162.28828125 -82.75 162.15 -81.6296875 157.575390625 -74.85 152
L -92.2 144.7
Q -109.0220703125 146.5853515625 -125.7 149.05 -126.0416015625 149.09921875 -126.4 149.15
M -175.1 86.2
Q -176.7275390625 85.8568359375 -179.5 86.55 -179.8 86.6 -180.05 86.65 -180.289453125 87.1888671875 -180.45 87.8 -180.5099609375 88.238671875 -180.55 88.7 -180.9 90.7 -179.9 92.15 -179.8728515625 92.188671875 -179.85 92.2 -178.79453125 93.6615234375 -176.7 94.1 -175.05 94.55 -173.7 94.25 -173.218359375 92.969921875 -172.95 91.9 -171.7228515625 86.91640625 -175.1 86.2
M -185.15 80.9
Q -184.91328125 81.4955078125 -184.7 82.1 -183.8 84.45 -182.85 86.65 -182.2865234375 83.789453125 -180.55 82.1 -180.29296875 81.8763671875 -180 81.65 -180.8220703125 80.5421875 -181.65 79.45 -181.8365234375 79.2189453125 -182.05 78.95 -182.1337890625 79.0787109375 -182.25 79.15 -183.3673828125 80.175 -184.9 80.8 -184.9986328125 80.851171875 -185.15 80.9
M -205.6 54.05
Q -206.95 54.95 -207.4 55.5 -208.6 56.7 -209 58.45 -209.2 59.05 -209.25 59.65 -205.5 54.15 -199 58.15 -198.1560546875 62.5181640625 -199.05 64.65 -198.46953125 64.469140625 -198 64.25 -197 63.95 -195.6 63 -192.35 60.75 -192.45 57.9 -192.65 55.75 -194.5 54.35 -195.95 53.2 -198.3 52.85 -198.6 52.9 -198.85 52.85 -199.15 52.75 -199.5 52.75 -199.55 52.75 -199.6 52.7 -199.95 52.65 -200.05 52.65 -200.85 52.55 -202.3 52.75 -203.35 52.85 -204.05 53.1 -204.65 53.35 -205.6 54.05
M -207.85 49.5
Q -210.95 50.75 -210.1 53.75 -210.1 53.85 -210.05 53.95 -209.9 53.75 -209.7 53.6 -207.95 51.25 -204.45 48.95 -203.35 48.25 -202.2 47.6 -205 48.4 -207.85 49.5
M -81.4 100.95
Q -82.15 100.85 -83.2 100.8 -83.85 106.7 -83.7 109.75 -83.5 112.8 -84.05 114.4 -84.15 114.55 -84.2 114.8 -82.7666015625 115.069921875 -81.4 115.4 -78.9091796875 115.9724609375 -76.55 116.7 -73.54765625 117.692578125 -70.7 118.95 -70.1982421875 119.169140625 -69.7 119.4 -69.887890625 119.1181640625 -70.1 118.85 -70.472265625 118.2337890625 -70.85 117.65 -72.24921875 115.558203125 -73.6 113.45 -74.103125 112.6751953125 -74.6 111.9 -77.625390625 107.1798828125 -80.45 102.4 -80.9 101.65 -81.4 100.95
M -87.3 83
Q -87.5 81.4 -88.15 80.1 -89.327734375 94.2341796875 -90.75 108 -90.78515625 108.6634765625 -90.85 109.3 -91.290234375 113.586328125 -91.75 117.85 -90.1599609375 118.4435546875 -88.65 119.15 -86.5794921875 120.098046875 -84.65 121.25 -86.18515625 119.86640625 -86.95 118.25 -88.226171875 115.6478515625 -87.45 112.45 -86.5623046875 108.8484375 -86.2 103.5 -86.18515625 103.3548828125 -86.2 103.2 -85.856640625 98.096484375 -86 91.45 -86.3 90.95 -86.35 90.5 -86.85 86.75 -87.3 83
M -125.15 76.8
Q -125.277734375 78.371875 -125.45 79.9 -125.7908203125 83.3861328125 -126.3 86.75 -128.2265625 99.8287109375 -132.4 111.95 -131.1 112.05 -129.75 112.25 -129.65 112.25 -129.55 112.45 -131.2 112.85 -132.85 113.25 -132.85 113.35 -132.9 113.5 -133 113.6 -133.3 113.7 -133.35 113.6 -133.35 113.4 -139.4 114.85 -145.3 116.55 -146.6 117.95 -148 119.65 -151.2892578125 123.8162109375 -148.65 126.85 -147.6759765625 127.98125 -145.9 128.95 -128.500390625 127.9740234375 -111.55 130.15 -98.0533203125 131.856640625 -84.85 135.55 -84.1 135.5 -83.55 135.4 -84 135.45 -84.5 135.5 -86.75 134.5 -89.6 132.6 -95.513671875 128.603515625 -101.8 125.9 -102.70234375 125.5328125 -103.65 125.15 -104.7990234375 124.6978515625 -106 124.25 -123.18515625 118.2251953125 -143 121.6 -142.85 121.45 -142.65 121.35 -134.95 115.6 -120.65 114.45 -115.75 114 -111.15 114.2 -111.5 112.75 -111.7 111.2 -114.0140625 95.61484375 -115.4 79.9 -115.4724609375 78.9732421875 -115.55 78.05 -115.6 76.85 -115.5 75.85 -117.796875 75.6716796875 -120 75.85 -122.6568359375 76.0521484375 -125.15 76.8
M -151.1 96.25
Q -150.9216796875 96.395703125 -150.8 96.5 -149.5248046875 97.979296875 -149 99.55 -148.4275390625 101.1087890625 -148.55 102.75 -146.35 102.05 -145.5 100.35 -145.4158203125 100.1814453125 -145.35 100 -144.94921875 98.9392578125 -145.25 97.65 -145.3171875 97.2869140625 -145.45 96.95 -145.726953125 96.12890625 -146.35 95.4 -146.403515625 95.3060546875 -146.5 95.2 -147.45 94.1 -148.65 93.65 -149.726953125 94.080859375 -151 95 -151.478125 95.3986328125 -152 95.85 -151.4453125 96.0783203125 -151.1 96.25
M -135.55 37.55
Q -138 34.05 -141.15 31.1 -141 32.55 -140.75 34.05 -138.05 55.75 -119.15 60.7 -118.95 60.35 -118.9 60.05 -121.85 56.65 -124.5 53.05 -130.05 45.35 -135.55 37.55 Z"/>

<path fill="#666666" stroke="none" d="
M -153.65 135.15
Q -154.95 135.45 -156.2 135.75 -164.2 137.7 -169.55 139.1 -170.95 139.5 -172.2 139.85 -181.3 142.3 -183.15 143.25 -183.05 143.3 -183 143.35
L -181.5 144.25
Q -181.3 144.35 -181.15 144.4 -171.85 146.3 -161.6 145.3 -153.3 144.55 -152.8 138.85 -152.8 138.75 -152.85 138.65
L -153.65 135.15 Z"/>

<path fill="url(#Gradient_6)" stroke="none" d="
M -104.45 138.4
Q -105.8693359375 138.408203125 -107.35 138.4
L -92.2 144.7 -74.85 152 -67.4 155.1 -46.15 164 -63.85 153.45 -71.1 149.15 -73.75 147.55 -69.7 148.15 -57.3 150.1 4.15 159.6 -34.85 148.55 -20.05 146.25 -36.8 145.25 35.45 128.65 -54.05 131.3 -23.45 118.1 -36.25 119.75 -21.95 111.35 -63.45 117.8
Q -63.2796875 119.026171875 -63.25 119.5 -63.2 120.9 -65.2 123.25 -65.45 123.6 -65.8 124 -68.55 126.9 -70.55 127 -72.4 127.1 -76.1 125.7 -77.15 125.3 -77.9 125 -74.65 127.65 -75.2 134.45 -75.4 136.2 -78.1 139.1 -87 138.3 -104.45 138.4 Z"/>

<path fill="#FF6600" stroke="none" d="
M -177.85 84.1
Q -178.8009765625 84.733984375 -179.45 85.6 -179.79375 86.0826171875 -180.05 86.65 -179.8 86.6 -179.5 86.55 -176.7275390625 85.8568359375 -175.1 86.2 -171.7228515625 86.91640625 -172.95 91.9 -173.218359375 92.969921875 -173.7 94.25 -172.65 94.15 -171.7 93.5 -171.6 93.45 -171.5 93.35 -170.93125 92.8998046875 -170.55 92.25 -170.08671875 91.570703125 -169.85 90.65 -169.4 89 -169.8 87.35 -170.4 84.75 -172.65 83.6 -173.8 83 -175.3 83.15 -176.177734375 83.2408203125 -176.95 83.55 -177.4158203125 83.7841796875 -177.85 84.1
M -182.9 73.9
Q -184.5484375 72.2703125 -186.15 70.6 -186.25 71.35 -186.3 72.05 -186.3 72.6 -186.3 73.25
L -185.3 80.4
Q -185.258203125 80.518359375 -185.25 80.65
L -185.2 80.7
Q -185.169921875 80.8009765625 -185.15 80.9
L -185.15 80.9
Q -184.9986328125 80.851171875 -184.9 80.8 -183.3673828125 80.175 -182.25 79.15 -182.1337890625 79.0787109375 -182.05 78.95 -181.8365234375 79.2189453125 -181.65 79.45 -180.8220703125 80.5421875 -180 81.65 -178.45 80.5 -176.35 80.1 -179.7263671875 77.0515625 -182.9 73.9
M -209.25 59.65
Q -209.25 60.4 -209.1 61.2 -208.9 62.1 -208.15 63.15 -207.05 64.6 -205.7 65.15 -203.75 66.05 -200.45 65.1
L -199.6 64.85
Q -199.3125 64.775 -199.05 64.7
L -199.05 64.65
Q -198.1560546875 62.5181640625 -199 58.15 -205.5 54.15 -209.25 59.65
M -193.85 45.75
Q -193.9 45.75 -194.1 45.8 -194.65 45.8 -195.15 45.95
L -201.7 47.45
Q -201.9 47.45 -202.15 47.55
L -202.2 47.6
Q -203.35 48.25 -204.45 48.95 -207.95 51.25 -209.7 53.6 -208.65 52.75 -207.05 52.15 -204.8 51.3 -202.55 51 -201.1 50.4 -199.5 50.4 -199.35 50.1 -199.05 49.8 -196.65 47.35 -193.85 45.75
M -74.2 100.95
Q -76.8 101.05 -79.3 101.1 -79.7 101.1 -81.4 100.95 -80.9 101.65 -80.45 102.4 -77.625390625 107.1798828125 -74.6 111.9 -74.103125 112.6751953125 -73.6 113.45 -72.24921875 115.558203125 -70.85 117.65 -69.7830078125 118.1013671875 -68.7 118.6 -68.4419921875 118.73359375 -68.2 118.85 -68.2150390625 118.7029296875 -68.25 118.55 -68.42265625 116.7529296875 -68.7 114.95 -69.95 107.9 -71.35 100.85 -71.65 100.85 -72.05 100.85 -72.4 100.85 -72.75 100.9 -73.5 100.9 -74.2 100.95
M -140.85 95.6
Q -140.421484375 96.8333984375 -140.4 98 -137.3669921875 98.8486328125 -134.55 100
L -134.3 95.6
Q -137.624609375 95.693359375 -140.85 95.6
M -125.15 76.8
L -125.15 76.75
Q -125.9 76.9 -126.6 77.25
L -128.9 78.15
Q -129.4099609375 80.6796875 -129.85 83.2 -130.4021484375 86.3845703125 -130.85 89.55 -131.7685546875 96.2611328125 -132.2 102.95 -131.95 103.15 -131.8 103.4 -132 103.4 -134 110.25 -133.85 111.05 -133.75 111.85 -136.2 111.7 -138.5 111.75 -138.55 111.75 -138.6 111.8 -138.65 111.8 -138.7 111.8 -138.75 111.8 -138.85 111.85 -138.9 111.85 -138.95 111.9 -139.05 111.95 -139.2 112 -142.15 113.3 -145.3 116.55 -139.4 114.85 -133.35 113.4 -133.35 113.6 -133.3 113.7 -133 113.6 -132.9 113.5 -132.85 113.35 -132.85 113.25 -131.2 112.85 -129.55 112.45 -129.65 112.25 -129.75 112.25 -131.1 112.05 -132.4 111.95 -128.2265625 99.8287109375 -126.3 86.75 -125.7908203125 83.3861328125 -125.45 79.9 -125.277734375 78.371875 -125.15 76.8
M -153.8 95.8
Q -153.9072265625 96.0041015625 -154 96.2 -154.584765625 97.61796875 -154.3 99.25 -154.2216796875 99.763671875 -154.05 100.3 -153.45 101.9 -152.3 102.6 -150.9 103.35 -149.1 102.85 -148.8 102.8 -148.55 102.75 -148.4275390625 101.1087890625 -149 99.55 -149.5248046875 97.979296875 -150.8 96.5 -150.9216796875 96.395703125 -151.1 96.25 -151.4453125 96.0783203125 -152 95.85 -151.478125 95.3986328125 -151 95 -149.726953125 94.080859375 -148.65 93.65 -149.3 93.5 -150.05 93.5 -151.15 93.45 -152.2 94.15 -152.6560546875 94.4236328125 -153.05 94.8 -153.4736328125 95.22890625 -153.8 95.8
M -158.75 95.3
Q -159.641015625 94.540234375 -160.5 93.75 -162.583984375 93.450390625 -164.7 93.15 -165.3498046875 94.853515625 -166.7 96.2 -166.5552734375 96.20625 -166.45 96.2 -162.6580078125 96.005859375 -158.95 96 -158.846484375 95.639453125 -158.75 95.3
M -143.35 86.8
Q -145.1525390625 87.8220703125 -146.85 88.9 -145.0826171875 89.6177734375 -143.65 91.1 -141.98671875 91.1826171875 -140.8 91.1 -139.748828125 90.4234375 -138.7 89.65 -138.473828125 86.6451171875 -138.1 83.75 -140.686328125 85.308984375 -143.35 86.8
M -159.9 89.4
Q -160.1236328125 89.1330078125 -160.35 88.85
L -163.9 84.85
Q -164.3919921875 84.3203125 -164.85 83.8 -164.6259765625 84.3970703125 -164.45 85.05 -163.9431640625 87.1291015625 -163.95 88.95 -161.91015625 89.1560546875 -159.9 89.4
M -145.15 33
Q -145.5 35.45 -145.5 37.95 -145.4 54.8 -130.15 61.1 -129.9 61.2 -129.65 61.3 -129.45 61.4 -129.25 61.5 -129.2 61.45 -129.05 61.55 -128.75 61.6 -128.55 61.75 -128.15 61.9 -127.65 62.05
L -127.55 62.1
Q -127.4 62.1 -127.35 62.1 -127.25 62.15 -127.25 62.2 -126.4 62.45 -125.65 62.6 -125.6 62.65 -125.55 62.65 -125.35 62.6 -125.2 62.65
L -125.15 62.7
Q -124.95 62.7 -124.8 62.7 -120.3 63.5 -119.15 60.7 -138.05 55.75 -140.75 34.05 -141 32.55 -141.15 31.1 -142.35 29.95 -143.75 28.85 -144.8 30.7 -145.15 33
M -109.6 42.35
Q -109.55 42.4 -109.55 42.45 -109.4 42.65 -109.25 42.85 -108.55 43.95 -107.85 45.15 -107.7 45.45 -107.5 45.7 -107.35 45.95 -107.2 46.2 -107.1 46.4 -106.95 46.65 -106.75 47 -106.55 47.5 -105.7 48.95 -104.95 50.45 -104.3 51.65 -103.6 52.95 -102.7 54.85 -101.7 56.65 -106.65 61.3 -112.05 65.55 -111.95 65.9 -111.9 66.3 -112.6 66.45 -113.35 66.6 -116.8162109375 69.3779296875 -120.4 72 -117.58515625 71.9255859375 -114.75 71.9 -114.2712890625 71.55625 -113.8 71.2 -102.95 63.05 -98.8 58.65
L -96.45 55.9
Q -96.4 55.7 -96.3 55.6 -102.5 41.85 -112.8 28.45 -119.75 19.35 -127.7 11.8 -130.6 9 -133.65 6.4 -133.9 6.2 -134.15 5.9 -146.15 17.85 -160.3 28.35 -169.8927734375 35.5283203125 -178.95 43.5 -180.9529296875 45.2990234375 -182.95 47.1 -185.6470703125 49.6041015625 -188.35 52.15 -188.382421875 52.2349609375 -188.45 52.3 -188.35 53.6 -188.2 54.9 -188.1072265625 55.15234375 -188 55.4 -187.18671875 57.60234375 -186.2 59.8 -185.9 60.45 -185.6 61.15
L -185.6 61.2
Q -185.1251953125 62.1921875 -184.65 63.15 -183.3953125 65.57734375 -182 67.9 -181.6619140625 68.4923828125 -181.35 69.05 -177.0431640625 71.0078125 -174 74.8 -172.75 76.45 -171.75 78.2 -171.65 78.2 -171.45 78.15 -170.35 78.25 -169.3 78.3 -169.05625 78.453515625 -168.85 78.6 -172.268359375 73.981640625 -175.3 68.9 -176.6896484375 66.57734375 -178 64.15 -180.1 60.2 -182.2 56.35 -179.831640625 54.3283203125 -177.45 52.3 -175.318359375 50.5302734375 -173.2 48.75 -161.1404296875 38.745703125 -148.8 29.2 -148.3 27.55 -147.65 25.9 -147.05 24.4 -145.6 23.6 -144.5 24.35 -143.45 25.1 -141.4 23.55 -139.3 21.95 -135.15 18.85 -131.6 15.6 -129.85 18.5 -126.85 21.35 -117.95 29.85 -111.1 40.05
L -111.1 40
Q -110.7 40.6 -110.35 41.2
L -109.6 42.35 Z"/>

<path fill="#FF3300" stroke="none" d="
M -189.1 71.5
Q -192.981640625 69.8248046875 -196.85 71 -194.1009765625 73.1220703125 -190.25 74.45 -189.817578125 72.9234375 -189.1 71.5
M -193.1 61.5
L -193.15 61.55
Q -193.25 61.9 -193.4 62.2
L -194.8 64.1
Q -194.871484375 64.180859375 -194.95 64.25 -193.230078125 67.886328125 -189.05 71.45 -188.2732421875 70.052734375 -187.2 68.75 -190.4435546875 65.1458984375 -192.7 60.85 -192.85 61.2 -193.1 61.5
M -160.5 93.75
Q -159.641015625 94.540234375 -158.75 95.3 -158.5642578125 94.6345703125 -158.35 94.05
L -159 93.95 -159 93.95
Q -159.8 93.85 -160.55 93.7
L -160.5 93.75 Z"/>

<path fill="#FF9900" stroke="none" d="
M -197.65 66.35
Q -199.65 67.45 -201.45 67.35 -199.1 71.15 -195.85 75.05 -194.2 77 -191.55 77 -191.1283203125 77 -190.7 77 -190.5748046875 75.695703125 -190.25 74.45 -194.1009765625 73.1220703125 -196.85 71 -192.981640625 69.8248046875 -189.1 71.5 -189.061328125 71.499609375 -189.05 71.45 -193.230078125 67.886328125 -194.95 64.25 -196.0556640625 65.458984375 -197.65 66.35
M -196.75 50.8
Q -195.1 51.3 -193.4 52.35 -191.05 57.2 -192.25 60.15 -189.873828125 64.0287109375 -186.6 66.9 -189.1009765625 61.892578125 -191.55 56.25 -193.0775390625 52.6396484375 -194.35 49.85 -195.559375 50.3501953125 -196.75 50.8
M -100.4 118.3
Q -99.9611328125 118.7546875 -99.5 119.25 -99.1173828125 119.226171875 -98.8 119.15 -98.3890625 119.0564453125 -98.05 118.9 -98.1595703125 118.70703125 -98.3 118.5 -98.7349609375 117.7181640625 -99.2 117 -102.898828125 110.69375 -104.3 110.65 -105.9 110.45 -104.75 112.7 -103.6865234375 114.649609375 -100.4 118.3
M -91.25 120.5
Q -91.9423828125 120.0923828125 -92.7 119.65 -93.5 120.05 -93.8 120.8 -93.8865234375 120.973046875 -93.05 121.4 -91.879296875 121.957421875 -89.1 122.95 -84.2 124.6 -85.05 124.15 -85.7615234375 123.7052734375 -91.25 120.5
M -30 7.55
Q -29.05 17.55 -29.6 27.3 -31.8 68 -58.15 97.55 -42.8552734375 88.7458984375 -30.65 77.85 -18.384765625 67.0123046875 -9.9 35.4 -1.3705078125 3.83359375 -42.85 -50.25 -32.8 -23.05 -30 7.55
M -104 -89.1
Q -105.25 -88.85 -103.6 -87.75 -83.3 -73.95 -69.45 -54.1 -47.45 -22.5 -46.55 15.95 -45.55 58.55 -72.85 90.7 -63.103125 85.1048828125 -45.4 60.7 -27.69375 36.353125 -40.3 -21.9 -52.859765625 -80.1607421875 -104 -89.1 Z"/>

<path fill="#CCCCCC" stroke="none" d="
M -109.55 42.45
Q -109.55 42.4 -109.6 42.35 -109.99375 42.65625 -110.5 43 -109.9875 42.66875 -109.55 42.45 Z"/>
</g>
</defs>

<g transform="matrix( 0.825531005859375, 0, 0, 0.825531005859375, 453.45,330.95) ">
<g transform="matrix( 1, 0, 0, 1, 169.35,18.4) ">
<g transform="matrix( 0.9998779296875, -0.0089263916015625, 0.0089263916015625, 0.9998779296875, -189.85,126.35) ">
<g transform="matrix( 1, 0, 0, 1, 0,0) ">
<use xlink:href="#smith_anvil_0_Layer0_0_FILL"/>
</g>
</g>

<g transform="matrix( 0.56842041015625, 0.8221588134765625, -0.8221588134765625, 0.56842041015625, -178.9,27.6) ">
<g transform="matrix( 1, 0, 0, 1, 0,0) ">
<use xlink:href="#smithbody_1_Layer0_0_FILL"/>
</g>
</g>

<g transform="matrix( 0.5055084228515625, 0.862274169921875, -0.862274169921875, 0.5055084228515625, -124.5,-7.55) ">
<g transform="matrix( 1, 0, 0, 1, 0,0) ">
<use xlink:href="#smithhead_0_Layer0_0_FILL"/>
</g>
</g>

<g transform="matrix( 1, 0, 0, 1, 14.25,3.4) ">
<g transform="matrix( 1, 0, 0, 1, 0,0) ">
<use xlink:href="#Symbol_14_0_Layer0_0_FILL"/>
</g>
</g>

<g transform="matrix( 0.017425537109375, 0.8837432861328125, -1.105255126953125, 0.02178955078125, -64.2,71.7) ">
<g transform="matrix( 1, 0, 0, 1, 0,0) ">
<use xlink:href="#smithhammer_1_Layer1_0_FILL"/>
</g>

<g transform="matrix( 1, 0, 0, 1, 0,0) ">
<use xlink:href="#smithhammer_1_Layer0_0_FILL"/>
</g>
</g>

<g transform="matrix( -0.9767303466796875, 0.2086181640625, 0.2086181640625, 0.9767303466796875, -148.05,79.05) ">
<g transform="matrix( 1, 0, 0, 1, 0,0) ">
<use xlink:href="#smithhand_2_Layer0_0_FILL"/>
</g>
</g>

<g transform="matrix( -0.966217041015625, -0.2550811767578125, -0.2550811767578125, 0.966217041015625, -164.8,72.55) ">
<g transform="matrix( 1, 0, 0, 1, 0,0) ">
<use xlink:href="#smithhand_1_Layer0_0_FILL"/>
</g>
</g>

<g transform="matrix( 1, 0, 0, 1, 0,0) ">
<use xlink:href="#smith_attack_7_Layer0_0_FILL"/>
</g>
</g>
</g>
</svg>
