
<svg xmlns="http://www.w3.org/2000/svg" version="1.1" xmlns:xlink="http://www.w3.org/1999/xlink" preserveAspectRatio="none" x="0px" y="0px" width="1000px" height="1000px" viewBox="0 0 1000 1000">
<defs>
<linearGradient id="Gradient_1" gradientUnits="userSpaceOnUse" x1="82.125" y1="23.9875" x2="79.875" y2="56.212500000000006" spreadMethod="pad">
<stop  offset="0%" stop-color="#333333"/>

<stop  offset="100%" stop-color="#666666"/>
</linearGradient>

<linearGradient id="Gradient_2" gradientUnits="userSpaceOnUse" x1="40.2125" y1="11.637499999999996" x2="44.487500000000004" y2="86.86250000000001" spreadMethod="pad">
<stop  offset="0%" stop-color="#666666"/>

<stop  offset="100%" stop-color="#E7E7E7"/>
</linearGradient>

<linearGradient id="Gradient_3" gradientUnits="userSpaceOnUse" x1="68.225" y1="45.3125" x2="67.775" y2="78.4875" spreadMethod="pad">
<stop  offset="0%" stop-color="#CCCCCC"/>

<stop  offset="100%" stop-color="#FFFFFF"/>
</linearGradient>

<linearGradient id="Gradient_4" gradientUnits="userSpaceOnUse" x1="38.0625" y1="53.6875" x2="41.4375" y2="85.7125" spreadMethod="pad">
<stop  offset="0%" stop-color="#CCCCCC"/>

<stop  offset="100%" stop-color="#FFFFFF"/>
</linearGradient>

<linearGradient id="Gradient_5" gradientUnits="userSpaceOnUse" x1="68.8875" y1="118.0375" x2="-96.3875" y2="149.4625" spreadMethod="pad">
<stop  offset="9.019607843137255%" stop-color="#FF4F2C"/>

<stop  offset="64.70588235294117%" stop-color="#FFB600"/>

<stop  offset="100%" stop-color="#FFFFFF"/>
</linearGradient>

<g id="smith_anvil_0_Layer0_0_FILL">
<path fill="#000000" stroke="none" d="
M 41.4 -2.5
Q 38.6927734375 -2.3669921875 36.15 -2.25
L 33.85 0.4
Q 31.688671875 0.9357421875 29.6 1.45 13.123828125 5.784765625 3.1 10.25 -1.308984375 12.215625 -3.15 14.2 -5.64921875 16.9466796875 -5.3 19 -4.9470703125 21.053125 -3.4 24.5 -1.856640625 27.9462890625 17.8 33.7 37.45859375 39.501953125 38.3 38.2 38.3544921875 38.669140625 38.4 39.2 38.47734375 40.2828125 41 41.1 41.7486328125 41.3734375 42.7 41.6
L 47.4 42.65
Q 48.1 43.1 45.5 47.2 42.65 51.7 38.85 54.8 40.2 56.6 49.7 60.3 58.75 63.85 59.3 63.55 59.7 63.3 65.85 61.35 72.6 59.2 77.75 57.7 82.3 56.4 94.35 59.45 106.05 62.4 106.25 62.3 107.6 61.6 112.35 58.25 117.5 54.6 118.3 53.5 118.85 52.7 115.45 48.55 112.2431640625 44.71953125 112.3 43 112.33984375 42.8248046875 112.4 42.65 112.9 40.85 117.1 35.35 117.5279296875 34.789453125 117.95 34.25 119.3220703125 32.5603515625 120.55 31.3 123.24609375 28.615234375 125.2 28.3 128.2 27.85 134.4 27.25 134.99375 21.037890625 135.25 15.95 135.9998046875 3.5380859375 134.9 -2.05 127.683984375 -2.2546875 120.8 -2.45 71.57109375 -3.574609375 41.4 -2.5
M 125.35 16.75
Q 125.3123046875 19.03984375 125.25 19.6 122.7669921875 21.0658203125 120.6 22.45 110.810546875 28.896875 107.8 34.15 107.0724609375 35.5029296875 106.75 36.75 105.9216796875 39.9212890625 105.8 42.65
L 105.85 42.65
Q 105.85 43 105.95 44 106.05 45.35 106.25 45.9 107.5572265625 49.92734375 112.95 52.15
L 109.75 54.2 109.7 54.2
Q 104.55 57.75 104.2 57.85 84.4 50 79.85 49.95 77.75 50.05 67.7 54.35 57.95 58.55 57.55 59.2
L 46.9 54.65
Q 50.1 53.15 52.35 48.15 54.2 43.9 53.85 42.65 53.83359375 42.575390625 53.8 42.5 51.9919921875 34.601953125 41.75 33.9
L 39.25 25
Q 39.05 24.65 38.8 24.3 38.25 23.55 38.2 23.6 36.8453125 25.96484375 36.8 29 21.789453125 25.9328125 8.55 18.15
L 6.7 17.05
Q 6.627734375 16.9982421875 6.55 16.95 7.45 16.5 21.65 12.8 25.5712890625 11.7853515625 29.55 10.75 32.803515625 9.9353515625 36.1 9.1
L 36.9 12.65
Q 36.9267578125 12.7431640625 36.95 12.8 37.25 13.8 37.9 14.95 37.9357421875 15.016015625 37.95 15.05 38.558203125 16.128125 38.7 15.75 38.739453125 15.658203125 38.9 15.05 39.38828125 13.4703125 40.9 8.05
L 125.7 7.55
Q 125.6525390625 7.787109375 125.35 15.85 125.3654296875 16.3119140625 125.35 16.75 Z"/>

<path fill="#666666" stroke="none" d="
M 36.3 15.05
Q 36.8251953125 14.060546875 36.95 12.8 36.9267578125 12.7431640625 36.9 12.65
L 36.1 9.1
Q 32.803515625 9.9353515625 29.55 10.75 25.5712890625 11.7853515625 21.65 12.8 7.45 16.5 6.55 16.95 6.627734375 16.9982421875 6.7 17.05
L 8.55 18.15
Q 17.78515625 20.1025390625 28.1 19.2 34.5703125 18.6384765625 36.3 15.05
M 106.25 45.9
Q 103.25 42.9 103.25 42.95 103.3451171875 51.7255859375 109.7 54.2
L 109.75 54.2 112.95 52.15
Q 107.5572265625 49.92734375 106.25 45.9
M 125.35 15.85
Q 125.6525390625 7.787109375 125.7 7.55
L 40.9 8.05
Q 39.38828125 13.4703125 38.9 15.05 38.739453125 15.658203125 38.7 15.75 38.2927734375 19.5150390625 38.2 23.6 38.25 23.55 38.8 24.3 39.05 24.65 39.25 25 40.212890625 24.9322265625 41.15 24.85 56.7791015625 23.2943359375 74.6 21.55 106.7587890625 18.321484375 120.65 17.15 123.3482421875 16.9244140625 125.35 16.75 125.3654296875 16.3119140625 125.35 15.85 Z"/>

<path fill="#333333" stroke="none" d="
M 36.95 12.8
Q 36.8251953125 14.060546875 36.3 15.05 34.5703125 18.6384765625 28.1 19.2 17.78515625 20.1025390625 8.55 18.15 21.789453125 25.9328125 36.8 29 36.8453125 25.96484375 38.2 23.6 38.2927734375 19.5150390625 38.7 15.75 38.558203125 16.128125 37.95 15.05 37.9357421875 15.016015625 37.9 14.95 37.25 13.8 36.95 12.8 Z"/>

<path fill="url(#Gradient_1)" stroke="none" d="
M 125.25 19.6
Q 125.3123046875 19.03984375 125.35 16.75 123.3482421875 16.9244140625 120.65 17.15 106.7587890625 18.321484375 74.6 21.55 56.7791015625 23.2943359375 41.15 24.85 40.212890625 24.9322265625 39.25 25
L 41.75 33.9
Q 51.9919921875 34.601953125 53.8 42.5 53.83359375 42.575390625 53.85 42.65 54.2 43.9 52.35 48.15 50.1 53.15 46.9 54.65
L 57.55 59.2
Q 57.95 58.55 67.7 54.35 77.75 50.05 79.85 49.95 84.4 50 104.2 57.85 104.55 57.75 109.7 54.2 103.3451171875 51.7255859375 103.25 42.95 103.25 42.9 106.25 45.9 106.05 45.35 105.95 44 105.85 43 105.85 42.65
L 105.8 42.65
Q 105.9216796875 39.9212890625 106.75 36.75 107.0724609375 35.5029296875 107.8 34.15 110.810546875 28.896875 120.6 22.45 122.7669921875 21.0658203125 125.25 19.6 Z"/>
</g>

<g id="smithbody_1_Layer0_0_FILL">
<path fill="#000000" stroke="none" d="
M 44.4 18
Q 47.630078125 12.5111328125 45.15 9.3 42.681640625 6.143359375 34.3 6.7 25.9048828125 7.2494140625 18.4 7.3 14.14609375 8.0001953125 10.05 10.05 6.95 11.65 -0.45 20.9 -8.75 31.4 -8 35.95 -6.237890625 46.5326171875 1.95 49.85 10.1337890625 53.2177734375 16.45 51.95 18.2 51.6 29.75 50.1 40.75 48.65 43 48 49.2529296875 46.414453125 52.25 44.8 55.2494140625 43.2451171875 56.8 33.05 58.35 23 49.25 22.65 49.05 22.25 47.2 20.35 45.3 18.35 44.8 18.15 44.6048828125 18.074609375 44.4 18
M 45.25 31.3
Q 44.15 29.95 42.75 28.25 39.95 24.85 39.2 23.05 43.55 22.55 46.05 26.65 47.35 29.05 47.25 30 47.5 30 49.6 27.6 49.9 27.65 50.45 28.05 50.95 28.4 51 28.55 51.25 29.9 50.35 33.8 49.45 37.7 48.65 38.75 48.55 38.75 48.5 38.8 47.4494140625 38.5640625 46.4 38.4 40.7169921875 37.51640625 35.8 39 36.8087890625 38.076171875 37.8 37.15
L 45.25 31.3
M 37.05 12.35
Q 37.2 13.65 36.8 14.95 35.2 20 36.95 24.9 32.55 27.15 31.55 27.55 25.6763671875 29.8681640625 19.2 29.5 17.45 26.85 12.1 26 10.25 26.8 8.95 27.9 10.1017578125 23.2453125 11.25 18.15 11.45 17.55 12.4 16.2 13.75 14.3 14.95 14 26.35 11.55 37.05 12.35
M 19.65 33.9
Q 19.65 34.65 19.35 36.3 19.05 37.7 18.85 38.35 17.2 42.5 15.65 43.45 15.05 43.85 12.2 43.65 9.5 43.45 9.1 43.15 8.75 42.85 7.9 41.6 6.9 40.1 6.75 39.35 6.6 38.8 6.6 37.2 6.6 35.65 6.7 35.2 6.8 34.85 8.25 32.65 9.7 30.45 9.75 30.35 11.35 28.6 13.15 28.05 15.35 27.35 17.2 28.4 19.65 29.9 19.65 33.9
M 1.55 36.3
Q 2.2267578125 33.326171875 3.15 30.45
L 3.15 30.45 6.45 22.6
Q 6.3 24.05 6.6 27 6.9 29.7 7.05 29.95 6.6 30.65 5.25 35.05 3.85 39.5 3.9 40.15 1.05 38.45 1.55 36.3
M 37.35 26
L 38.6 28.15
Q 40.184765625 30.3921875 42.7 31.05 39.2 32.85 38 33.75 35.4103515625 35.7498046875 33.45 38.5 31.9 40.7 29.4 40.95 24.35 41.4 19.9 41.2 20.45 40.55 20.85 37.6 21.2 34.75 21 33.8
L 19.55 30.3
Q 25.05 30.95 30.65 30 35.65 29.2 37.35 26 Z"/>

<path fill="#FF9900" stroke="none" d="
M 38 33.75
Q 37.3009765625 32.8158203125 36.8 31.5 35.2185546875 33.6365234375 32.35 35.8 28.9 38.4 25.55 39.45 26.75 35.5 30.5 33.25 25.098828125 34.6853515625 21.05 34 21.0271484375 33.9177734375 21 33.8 21.2 34.75 20.85 37.6 20.45 40.55 19.9 41.2 24.35 41.4 29.4 40.95 31.9 40.7 33.45 38.5 35.4103515625 35.7498046875 38 33.75
M 12.1 26
Q 17.45 26.85 19.2 29.5 25.6763671875 29.8681640625 31.55 27.55 31.348046875 26.2134765625 31.45 24.65 17.3890625 26.4890625 11.25 18.15 10.1017578125 23.2453125 8.95 27.9 10.25 26.8 12.1 26 Z"/>

<path fill="#FF3300" stroke="none" d="
M 38.6 28.15
L 37.35 26
Q 35.65 29.2 30.65 30 25.05 30.95 19.55 30.3
L 21 33.8
Q 21.0271484375 33.9177734375 21.05 34 25.098828125 34.6853515625 30.5 33.25 26.75 35.5 25.55 39.45 28.9 38.4 32.35 35.8 35.2185546875 33.6365234375 36.8 31.5 37.3009765625 32.8158203125 38 33.75 39.2 32.85 42.7 31.05 40.184765625 30.3921875 38.6 28.15
M 36.8 14.95
Q 37.2 13.65 37.05 12.35 26.35 11.55 14.95 14 13.75 14.3 12.4 16.2 11.45 17.55 11.25 18.15 17.3890625 26.4890625 31.45 24.65 31.348046875 26.2134765625 31.55 27.55 32.55 27.15 36.95 24.9 35.2 20 36.8 14.95 Z"/>

<path fill="#666666" stroke="none" d="
M 3.15 30.45
Q 3.15 31.75 3.3 34.95 3.5 38.95 3.9 40.15 3.85 39.5 5.25 35.05 6.6 30.65 7.05 29.95 6.9 29.7 6.6 27 6.3 24.05 6.45 22.6
L 3.15 30.45 3.15 30.45
M 17.35 36.5
Q 15.5 34.7 13.7 33.95 6.6984375 36.983984375 9.1 43.15 9.5 43.45 12.2 43.65 15.05 43.85 15.65 43.45 17.2 42.5 18.85 38.35 18.9 38.05 17.35 36.5
M 47.15 29.95
Q 45.35 31.4 45.25 31.3
L 37.8 37.15
Q 36.8087890625 38.076171875 35.8 39 40.7169921875 37.51640625 46.4 38.4 47.894921875 34.9162109375 47.15 29.95 Z"/>

<path fill="#CCCCCC" stroke="none" d="
M 3.15 30.45
Q 2.2267578125 33.326171875 1.55 36.3 1.05 38.45 3.9 40.15 3.5 38.95 3.3 34.95 3.15 31.75 3.15 30.45
M 13.7 33.95
Q 15.5 34.7 17.35 36.5 18.9 38.05 18.85 38.35 19.05 37.7 19.35 36.3 19.65 34.65 19.65 33.9 19.65 29.9 17.2 28.4 15.35 27.35 13.15 28.05 11.35 28.6 9.75 30.35 9.7 30.45 8.25 32.65 6.8 34.85 6.7 35.2 6.6 35.65 6.6 37.2 6.6 38.8 6.75 39.35 6.9 40.1 7.9 41.6 8.75 42.85 9.1 43.15 6.6984375 36.983984375 13.7 33.95
M 42.75 28.25
Q 44.15 29.95 45.25 31.3 45.35 31.4 47.15 29.95 47.894921875 34.9162109375 46.4 38.4 47.4494140625 38.5640625 48.5 38.8 48.55 38.75 48.65 38.75 49.45 37.7 50.35 33.8 51.25 29.9 51 28.55 50.95 28.4 50.45 28.05 49.9 27.65 49.6 27.6 47.5 30 47.25 30 47.35 29.05 46.05 26.65 43.55 22.55 39.2 23.05 39.95 24.85 42.75 28.25 Z"/>
</g>

<g id="smithhead_0_Layer0_0_FILL">
<path fill="#000000" stroke="none" d="
M 80.75 32.6
Q 79.0015625 13.95 74.35 1.95 73.2466796875 -0.881640625 61.55 -0.9 49.853125 -0.868359375 45.35 0 35.901171875 0.8478515625 18.25 5.05 0.59609375 9.30625 -1.2 9.15 -2.990625 9.0466796875 5.45 58.45 8.885546875 78.6140625 9.25 91 33.7388671875 91.81953125 45.35 90.2 56.951171875 88.5736328125 70.7 85.55 84.45546875 82.5193359375 83.45 66.85 82.494140625 51.2453125 80.75 32.6
M 68.8 7.65
Q 68.857421875 7.7658203125 68.9 7.85 72.35 21.6 73.4 30.6 74.45 39.5 75.7 55.1 77.15 73.25 76.75 76.45 76.95 76.85 72.85 79.25 68.5 81.85 65.7 82.75 46.4529296875 89.025390625 28.35 87.45
L 28.35 87.45
Q 20.05 85.85 19.3 85.5 14.9 67.35 12.9 49.05 10.95 31.55 6.75 15.15 29.45 9 37 8.1 53.75 6 68.8 7.65
M 46.2 47.9
Q 49.61171875 47.2396484375 52.55 46.1 58.9291015625 43.661328125 63.2 39 67.416015625 34.5068359375 69.65 27.9 69.75 27.55 69.7 26.95 69.6 26.3 69.4 26.2 69.2 26.15 66 25.6 62.7 25.05 61.75 24.95 55.3396484375 24.6986328125 49.2 25.15 32.746484375 26.3615234375 18.6 32.85 17.3921875 33.406640625 16.2 34 16.15 34.7 17.55 36.95 18.8 38.95 19.4 39.55 30.1138671875 50.9640625 46.2 47.9
M 56.8 39.25
Q 53.034765625 44.1990234375 44.05 44.95 35.061328125 45.7505859375 31.25 43.1 29.4 41.85 25.65 38.65 22 35.55 21.7 35.05 23.3068359375 34.41875 24.95 33.9 26.5 33.5 42.95 31.55 60.2 29.55 61.15 29.35 61.4134765625 29.6099609375 61.6 29.85 62.4 30.9 59.7 35.2 58.35 37.35 56.8 39.25 Z"/>

<path fill="url(#Gradient_2)" stroke="none" d="
M 68.9 7.85
Q 68.857421875 7.7658203125 68.8 7.65 53.75 6 37 8.1 29.45 9 6.75 15.15 10.95 31.55 12.9 49.05 14.9 67.35 19.3 85.5 20.05 85.85 28.35 87.45
L 28.35 87.45
Q 46.4529296875 89.025390625 65.7 82.75 68.5 81.85 72.85 79.25 76.95 76.85 76.75 76.45 77.15 73.25 75.7 55.1 74.45 39.5 73.4 30.6 72.35 21.6 68.9 7.85
M 47.8 12.5
L 59.95 12.4
Q 66.6 12.8 66.9 12.75 68.380078125 19.47265625 69.4 26.2 69.6 26.3 69.7 26.95 69.75 27.55 69.65 27.9 70.65 34.65 71.65 55.65 72.65 76.2 72.9 77.7 69.6404296875 78.6767578125 66.3 79.45
L 58.6 80.95
Q 58.30546875 81.02734375 58 81.05
L 58 81.05
Q 55.45 81.35 41.7 81.8 28.45 82.2 25.9 82.1 22.13125 60.91796875 19.4 39.55 18.8 38.95 17.55 36.95 16.15 34.7 16.2 34 17.3921875 33.406640625 18.6 32.85 17.45 23.15 16.35 17.85 16.95 17.85 29.95 15.35 43.1 12.8 47.8 12.5
L 47.8 12.5 Z"/>

<path fill="#FFFFFF" stroke="none" d="
M 63.2 39
Q 58.9291015625 43.661328125 52.55 46.1 55.0439453125 63.63671875 58 81.05
L 58 81.05
Q 58.30546875 81.02734375 58.6 80.95
L 66.3 79.45
Q 66.2 73.9 64.95 58.35 63.8 43.6 63.2 39
M 59.95 12.4
L 47.8 12.5 47.8 12.5
Q 47.8 13.6 48.35 18.45 48.85 22.9 49.2 25.15 55.3396484375 24.6986328125 61.75 24.95 60.9873046875 18.73671875 59.95 12.4 Z"/>

<path fill="#CCCCCC" stroke="none" d="
M 66 25.6
Q 69.2 26.15 69.4 26.2 68.380078125 19.47265625 66.9 12.75 66.6 12.8 59.95 12.4 60.9873046875 18.73671875 61.75 24.95 62.7 25.05 66 25.6
M 48.35 18.45
Q 47.8 13.6 47.8 12.5 43.1 12.8 29.95 15.35 16.95 17.85 16.35 17.85 17.45 23.15 18.6 32.85 32.746484375 26.3615234375 49.2 25.15 48.85 22.9 48.35 18.45 Z"/>

<path fill="url(#Gradient_3)" stroke="none" d="
M 69.65 27.9
Q 67.416015625 34.5068359375 63.2 39 63.8 43.6 64.95 58.35 66.2 73.9 66.3 79.45 69.6404296875 78.6767578125 72.9 77.7 72.65 76.2 71.65 55.65 70.65 34.65 69.65 27.9 Z"/>

<path fill="#FF9900" stroke="none" d="
M 61.6 29.85
Q 61.4134765625 29.6099609375 61.15 29.35 60.2 29.55 42.95 31.55 26.5 33.5 24.95 33.9 26.270703125 34.51640625 27.65 35.1 47.8099609375 43.7400390625 61.6 29.85 Z"/>

<path fill="#FF3300" stroke="none" d="
M 44.05 44.95
Q 53.034765625 44.1990234375 56.8 39.25 58.35 37.35 59.7 35.2 62.4 30.9 61.6 29.85 47.8099609375 43.7400390625 27.65 35.1 26.270703125 34.51640625 24.95 33.9 23.3068359375 34.41875 21.7 35.05 22 35.55 25.65 38.65 29.4 41.85 31.25 43.1 35.061328125 45.7505859375 44.05 44.95 Z"/>

<path fill="url(#Gradient_4)" stroke="none" d="
M 52.55 46.1
Q 49.61171875 47.2396484375 46.2 47.9 30.1138671875 50.9640625 19.4 39.55 22.13125 60.91796875 25.9 82.1 28.45 82.2 41.7 81.8 55.45 81.35 58 81.05 55.0439453125 63.63671875 52.55 46.1 Z"/>
</g>

<g id="Symbol_14_1_Layer0_0_FILL">
<path fill="url(#Gradient_5)" stroke="none" d="
M -20.35 191.5
L -64.25 158.1 59.65 182.6 -2.4 160.1 21.15 155.4 -5.5 153.4 109.45 119.7 -32.95 125.1 15.75 98.25 -4.65 101.6 18.15 84.55 -73.85 102.85 -58.55 81 -115.45 118.45 -81.35 64.4 -131.3 132.2 -20.35 191.5 Z"/>
</g>

<g id="smithhammer_1_Layer1_0_FILL">
<path fill="#000000" stroke="none" d="
M 56.35 -1.3
Q 54.2859375 -2.005078125 50.85 -2.2 47.4607421875 -2.4015625 38.35 -0.15 29.2466796875 2.151171875 28.9 2.35 28.35 3.2 28.1 7.85 27.9 11.85 28.05 14.2 28.05 14.4 25.65 14.65 23.25 14.9 21.65 14.85 2.4474609375 11.4337890625 0.65 25.2 -1.1513671875 39.0041015625 -0.9 51.95 -0.639453125 64.9046875 6 66.1 12.6384765625 67.3056640625 19.95 67.75 20.95 70.95 18.55 83.3 16.15 95.65 15.5 107.55 35.15 113.9 35.75 95.85 36.35 77.8 38.75 69 43.2064453125 79.7427734375 53.7 82.1 64.191796875 84.456640625 69.5 74.15 74.2853515625 53.372265625 74.55 37.55 74.808203125 21.786328125 75.9 13.75 72.678515625 11.23359375 70.7 11.05 62.975 10.4455078125 59.9 13.3 60.3205078125 12.6435546875 60.8 11.7 62.4505859375 8.404296875 64.05 4.55 65.64375 0.6830078125 62.05 0.05 58.459765625 -0.5365234375 56.35 -1.3
M 69.5 15.55
Q 70.236328125 15.990234375 70.7 16.6
L 71.6 18.6
Q 71.7294921875 19.16640625 71.75 19.75 71.74921875 19.8125 71.75 19.85 70.898828125 29.102734375 69.25 42.55 67.6103515625 56.05625 67.3 63.05 67.173828125 63.7615234375 67 64.4 66.0033203125 68.65703125 64.7 71.6
L 63.35 74.15
Q 63.122265625 74.573046875 62.85 74.9
L 62.85 74.9
Q 58.721484375 80.7921875 52.35 76.6 50.4650390625 75.3703125 48.95 74.15 45.28671875 71.2259765625 43.9 68.5 43.8302734375 68.4146484375 43.75 68.3 43.7482421875 68.249609375 43.7 68.2 43.7 68.1552734375 43.65 68.1 43.6509765625 68.034765625 43.6 67.95 43.596484375 67.9263671875 43.55 67.85 42.753515625 65.9251953125 43.15 64.1 42.5818359375 63.9580078125 42.05 63.8 34.35 61.887109375 34.35 61.7 34.05 61.85 33.85 62.05 19.8 61.1 5.85 58.65
L 4.85 56.5
Q 4.5703125 55.8857421875 4.35 55.2
L 4.35 55.2
Q 3.0103515625 51.0841796875 3.55 46.45 3.57734375 46.2716796875 3.6 46.1 4.8 37.1 6 28.35 6.4 25.35 7.4 22.5 8.1359375 22.0970703125 8.95 21.8 10.463671875 21.2623046875 12.25 21.1 16.5 20.75 20.75 20.35 21.3 20.3 21.85 20.1 37.5544921875 20.066796875 45.55 21.75 51.394140625 22.9759765625 55.55 19.35 57.153515625 17.97109375 58.5 15.9 66.3130859375 13.7626953125 69.5 15.55
M 57.55 4.5
Q 57.68125 4.543359375 57.8 4.55 57.3578125 11.1447265625 53.5 15.2 50.0953125 18.8208984375 48.3 18.8 48.06171875 18.815625 47.85 18.75 46.06171875 18.201953125 42.6 18.3 39.1404296875 18.3919921875 32.45 17.7 32.5904296875 16.74765625 32.65 16.05 32.9 14.4939453125 32.9 14.15 32.9 11.9 32.85 9.55 32.8 8.9 32.8 8.25 32.8 7.9 32.8 7.6 32.8 7.25 32.8 6.95 40.8 5.85 48.85 4.85 51.0544921875 4.58046875 53.25 4.5 55.416796875 4.4205078125 57.55 4.5
M 30.45 64.15
L 32.95 64.3
Q 29.58515625 73.56484375 29.15 81.95 29.115625 82.69296875 29.1 83.4 28.85 94.15 27.35 104.45 26.8794921875 104.7162109375 26.4 104.9 22.1005859375 106.9220703125 19.25 103.8 19.45 103.15 19.6 102.45 21.2498046875 95.0078125 22.75 87.5
L 22.75 87.5
Q 22.8931640625 86.832421875 23.05 86.15
L 23.85 82.05
Q 25.55 73.5 25.45 63.85
L 30.45 64.15 Z"/>

<path fill="#FF9900" stroke="none" d="
M 25.4 85.25
Q 24.0791015625 86.3666015625 22.75 87.5 21.2498046875 95.0078125 19.6 102.45 19.45 103.15 19.25 103.8 22.1005859375 106.9220703125 26.4 104.9 25.08125 94.962890625 25.4 85.25
M 51.8 6.85
Q 52.5205078125 5.65390625 53.25 4.5 51.0544921875 4.58046875 48.85 4.85 40.8 5.85 32.8 6.95 32.8 7.25 32.8 7.6 32.8 7.9 32.8 8.25 32.8 8.9 32.85 9.55 32.9 11.9 32.9 14.15 32.9 14.4939453125 32.65 16.05 33.4974609375 15.639453125 34.35 15.25 43.153125 11.2642578125 51.8 6.85 Z"/>

<path fill="#FF3300" stroke="none" d="
M 30.45 64.15
L 25.45 63.85
Q 25.55 73.5 23.85 82.05
L 23.05 86.15
Q 22.8931640625 86.832421875 22.75 87.5
L 22.75 87.5
Q 24.0791015625 86.3666015625 25.4 85.25 25.5857421875 85.0853515625 25.75 84.9 25.496875 81.56953125 26.05 77.6 27.10234375 70.26484375 30.45 64.15
M 53.75 5.85
Q 52.8005859375 6.35234375 51.8 6.85 43.153125 11.2642578125 34.35 15.25 33.4974609375 15.639453125 32.65 16.05 32.5904296875 16.74765625 32.45 17.7 39.1404296875 18.3919921875 42.6 18.3 46.06171875 18.201953125 47.85 18.75 48.06171875 18.815625 48.3 18.8 50.1150390625 11.88515625 53.75 5.85 Z"/>

<path fill="#FFFFFF" stroke="none" d="
M 32.95 64.3
L 30.45 64.15
Q 27.10234375 70.26484375 26.05 77.6 25.496875 81.56953125 25.75 84.9 25.5857421875 85.0853515625 25.4 85.25 25.08125 94.962890625 26.4 104.9 26.8794921875 104.7162109375 27.35 104.45 28.85 94.15 29.1 83.4 29.115625 82.69296875 29.15 81.95 29.58515625 73.56484375 32.95 64.3
M 53.25 4.5
Q 52.5205078125 5.65390625 51.8 6.85 52.8005859375 6.35234375 53.75 5.85 50.1150390625 11.88515625 48.3 18.8 50.0953125 18.8208984375 53.5 15.2 57.3578125 11.1447265625 57.8 4.55 57.68125 4.543359375 57.55 4.5 55.416796875 4.4205078125 53.25 4.5
M 71.75 19.85
Q 71.74921875 19.8125 71.75 19.75 61.666015625 46.6318359375 62.85 74.9
L 62.85 74.9
Q 63.122265625 74.573046875 63.35 74.15
L 64.7 71.6
Q 66.0033203125 68.65703125 67 64.4 67.173828125 63.7615234375 67.3 63.05 67.6103515625 56.05625 69.25 42.55 70.898828125 29.102734375 71.75 19.85
M 70.7 16.6
Q 70.236328125 15.990234375 69.5 15.55 60.6328125 26.2044921875 55.4 39.95 48.7453125 57.351171875 54.4 71.8 54.54921875 71.9888671875 54.7 72.15 49.6 45.25 68.35 24.05 70.5279296875 21.56953125 71.7 19.45 71.6962890625 19.03359375 71.6 18.6
L 70.7 16.6 Z"/>

<path fill="#333333" stroke="none" d="
M 43.55 67.85
Q 43.576171875 65.78125 43.8 63.55 42.9509765625 63.710546875 42.05 63.8 42.5818359375 63.9580078125 43.15 64.1 42.753515625 65.9251953125 43.55 67.85
M 55.55 19.35
Q 51.394140625 22.9759765625 45.55 21.75 37.5544921875 20.066796875 21.85 20.1 21.3 20.3 20.75 20.35 16.5 20.75 12.25 21.1 10.463671875 21.2623046875 8.95 21.8 30.6705078125 23.590625 51.55 25.75 53.2736328125 22.3970703125 55.55 19.35
M 71.75 19.75
Q 71.7294921875 19.16640625 71.6 18.6 71.6962890625 19.03359375 71.7 19.45 70.5279296875 21.56953125 68.35 24.05 49.6 45.25 54.7 72.15 54.54921875 71.9888671875 54.4 71.8 48.0759765625 64.7958984375 47.05 51.8 46.696484375 47.328125 46.95 43.15 45.334375 43.480859375 43.6 43.65 24.9 45.6 6.05 46.55 4.680859375 46.61953125 3.55 46.45 3.0103515625 51.0841796875 4.35 55.2 25.2708984375 56.88984375 43.95 62.35 44.1595703125 61.2013671875 44.4 60 44.4 59.9 44.65 59.85 45.0515625 61.3390625 45.45 62.8 45.60703125 62.8564453125 45.75 62.9 45.9 62.95 45.95 63.25 45.7794921875 63.280078125 45.6 63.3 47.1615234375 68.7716796875 48.95 74.15 50.4650390625 75.3703125 52.35 76.6 58.721484375 80.7921875 62.85 74.9 61.666015625 46.6318359375 71.75 19.75 Z"/>

<path fill="#666666" stroke="none" d="
M 33.85 62.05
Q 34.05 61.85 34.35 61.7 34.35 61.887109375 42.05 63.8 42.9509765625 63.710546875 43.8 63.55 43.576171875 65.78125 43.55 67.85 43.596484375 67.9263671875 43.6 67.95 43.6509765625 68.034765625 43.65 68.1 43.7 68.1552734375 43.7 68.2 43.7482421875 68.249609375 43.75 68.3 43.8302734375 68.4146484375 43.9 68.5 45.28671875 71.2259765625 48.95 74.15 47.1615234375 68.7716796875 45.6 63.3 45.7794921875 63.280078125 45.95 63.25 45.9 62.95 45.75 62.9 45.60703125 62.8564453125 45.45 62.8 45.0515625 61.3390625 44.65 59.85 44.4 59.9 44.4 60 44.1595703125 61.2013671875 43.95 62.35 25.2708984375 56.88984375 4.35 55.2
L 4.35 55.2
Q 4.5703125 55.8857421875 4.85 56.5
L 5.85 58.65
Q 19.8 61.1 33.85 62.05
M 58.5 15.9
Q 57.153515625 17.97109375 55.55 19.35 53.2736328125 22.3970703125 51.55 25.75 30.6705078125 23.590625 8.95 21.8 8.1359375 22.0970703125 7.4 22.5 6.4 25.35 6 28.35 4.8 37.1 3.6 46.1 3.57734375 46.2716796875 3.55 46.45 4.680859375 46.61953125 6.05 46.55 24.9 45.6 43.6 43.65 45.334375 43.480859375 46.95 43.15 46.696484375 47.328125 47.05 51.8 48.0759765625 64.7958984375 54.4 71.8 48.7453125 57.351171875 55.4 39.95 60.6328125 26.2044921875 69.5 15.55 66.3130859375 13.7626953125 58.5 15.9 Z"/>
</g>

<g id="smithhammer_1_Layer0_0_FILL">
<path fill="#FF9900" stroke="none" d="
M 58.8 19.75
Q 58.28125 20.48984375 53.55 26.6 54.0439453125 27.3646484375 54.9 27.65 55.35078125 27.8060546875 57.35 23.4 59.397265625 19.0310546875 58.8 19.75
M 45.45 37.35
Q 48.0244140625 36.35546875 53 32.7 52.973046875 32.05625 52.55 31.4 43.3201171875 35.500390625 43.1 36.95 42.924609375 38.4017578125 45.45 37.35 Z"/>
</g>

<g id="smithhand_2_Layer0_0_FILL">
<path fill="#000000" stroke="none" d="
M 9 9.6
Q 4.25 8.5 3.4 8.7 -0.1 9.75 -2 13.1 -6.2 20.75 0.3 25.9 6 30.45 10.2 27.65 14.4 24.8 15.25 17.5 13.65 10.7 9 9.6
M 7.2 13.9
Q 8.35 14.3 9.1 15.2 10.6 16.95 10.35 19.55 10.1 21.25 9.05 22.15 8.2 22.9 5.45 23.05 3.1587890625 22.9220703125 1.95 21.4 1.15 20.3 1.15 18.8 1.15 17.4 1.85 16.1 2.5294921875 14.83828125 3.6 14.2 4.2265625 13.8587890625 4.95 13.7 6.05 13.45 7.2 13.9 Z"/>

<path fill="#666666" stroke="none" d="
M 6.35 16.55
Q 6.5 16.3 5.45 15.3 4.4 14.3 3.6 14.2 2.5294921875 14.83828125 1.85 16.1 1.15 17.4 1.15 18.8 1.15 20.3 1.95 21.4 3.1587890625 22.9220703125 5.45 23.05 4.5126953125 19.866796875 6.35 16.55 Z"/>

<path fill="#CCCCCC" stroke="none" d="
M 9.1 15.2
Q 8.35 14.3 7.2 13.9 6.05 13.45 4.95 13.7 4.2265625 13.8587890625 3.6 14.2 4.4 14.3 5.45 15.3 6.5 16.3 6.35 16.55 4.5126953125 19.866796875 5.45 23.05 8.2 22.9 9.05 22.15 10.1 21.25 10.35 19.55 10.6 16.95 9.1 15.2 Z"/>
</g>

<g id="smithhand_1_Layer0_0_FILL">
<path fill="#000000" stroke="none" d="
M 23.1 7.45
Q 22.5041015625 1.5498046875 22 1.7 21.6 1.75 19.8 1.3 17.9 0.85 17.5 0.75 12.5 1.45 8.35 4.55 6.6935546875 5.813671875 5.3 7.2
L 2.9 6.75
Q -1.2544921875 7.9970703125 -6.25 15.65 -11.187109375 23.3640625 -3.45 29.25 4.3380859375 35.126953125 9.9 30.85 15.46015625 26.6240234375 16.55 24.15 19.2013671875 23.18359375 21.45 18.25 23.742578125 13.3556640625 23.1 7.45
M 7.45 12.95
Q 8.8 13.45 9.7 14.5 10.843359375 15.833984375 11.1 17.55 11.277734375 18.5373046875 11.15 19.65 10.9 21.7 9.65 22.8 8.25 24 6 23.9 4.2796875 23.9 3 23.3 2.046875 22.8443359375 1.35 22 1.272265625 21.9427734375 1.2 21.85 0.25 20.6 0.25 18.8 0.25 17.1 1.05 15.6 2.3 13.25 4.75 12.7 6.05 12.4 7.45 12.95
M 17.5 13.25
Q 17.0876953125 13.887890625 16.1 15.25 14.55 17.35 13.85 18.25 14.0595703125 14.90234375 12.3 12.65 11.1888671875 11.22421875 9.2 10.25 15.375 7.089453125 21.15 3.55 21.1 4.05 17.5 13.25 Z"/>

<path fill="#CCCCCC" stroke="none" d="
M 16 11.55
Q 15.2 10.4 15.3 10.3 13.8681640625 11.52421875 12.3 12.65 14.0595703125 14.90234375 13.85 18.25 14.55 17.35 16.1 15.25 17.0876953125 13.887890625 17.5 13.25 16.85 12.75 16 11.55
M 6 23.9
Q 8.25 24 9.65 22.8 10.9 21.7 11.15 19.65 11.277734375 18.5373046875 11.1 17.55 8.85 17.15 6.75 17.7 2.6 18.8 3 23.3 4.2796875 23.9 6 23.9 Z"/>

<path fill="#666666" stroke="none" d="
M 15.3 10.3
Q 15.2 10.4 16 11.55 16.85 12.75 17.5 13.25 21.1 4.05 21.15 3.55 15.375 7.089453125 9.2 10.25 11.1888671875 11.22421875 12.3 12.65 13.8681640625 11.52421875 15.3 10.3
M 9.7 14.5
Q 8.8 13.45 7.45 12.95 6.05 12.4 4.75 12.7 2.3 13.25 1.05 15.6 0.25 17.1 0.25 18.8 0.25 20.6 1.2 21.85 1.272265625 21.9427734375 1.35 22 2.046875 22.8443359375 3 23.3 2.6 18.8 6.75 17.7 8.85 17.15 11.1 17.55 10.843359375 15.833984375 9.7 14.5 Z"/>
</g>

<g id="smith_attack_8_Layer0_0_FILL">
<path fill="#FF9900" stroke="none" d="
M -64.8 94.35
Q -42.9130859375 86.16875 -43.3 30.65 -67.11640625 88.526171875 -86.9 102.6 -86.6453125 102.5876953125 -64.8 94.35
M -31.65 50.5
Q -46 85.5 -46.05 85.55 -56.15 95.95 -66.7 106.35
L -66.75 106.5
Q -26.277734375 106.4912109375 -31.65 50.5 Z"/>
</g>
</defs>

<g transform="matrix( 0.825531005859375, 0, 0, 0.825531005859375, 453.45,330.95) ">
<g transform="matrix( 1, 0, 0, 1, 169.35,18.4) ">
<g transform="matrix( 0.909515380859375, -0.00811767578125, 0.009857177734375, 1.10443115234375, -182.45,120.35) ">
<g transform="matrix( 1, 0, 0, 1, 0,0) ">
<use xlink:href="#smith_anvil_0_Layer0_0_FILL"/>
</g>
</g>

<g transform="matrix( 0.7384796142578125, 0.673553466796875, -0.673553466796875, 0.7384796142578125, -181.05,40.55) ">
<g transform="matrix( 1, 0, 0, 1, 0,0) ">
<use xlink:href="#smithbody_1_Layer0_0_FILL"/>
</g>
</g>

<g transform="matrix( 0.2190093994140625, 0.975250244140625, -0.975250244140625, 0.2190093994140625, -105,12.15) ">
<g transform="matrix( 1, 0, 0, 1, 0,0) ">
<use xlink:href="#smithhead_0_Layer0_0_FILL"/>
</g>
</g>

<g transform="matrix( 1, 0, 0, 1, 14.25,3.4) ">
<g transform="matrix( 1, 0, 0, 1, 0,0) ">
<use xlink:href="#Symbol_14_1_Layer0_0_FILL"/>
</g>
</g>

<g transform="matrix( 0.0196990966796875, 0.9990234375, -0.9990234375, 0.0196990966796875, -69.1,64) ">
<g transform="matrix( 1, 0, 0, 1, 0,0) ">
<use xlink:href="#smithhammer_1_Layer1_0_FILL"/>
</g>

<g transform="matrix( 1, 0, 0, 1, 0,0) ">
<use xlink:href="#smithhammer_1_Layer0_0_FILL"/>
</g>
</g>

<g transform="matrix( -0.9767303466796875, 0.2086181640625, 0.2086181640625, 0.9767303466796875, -146.95,73.05) ">
<g transform="matrix( 1, 0, 0, 1, 0,0) ">
<use xlink:href="#smithhand_2_Layer0_0_FILL"/>
</g>
</g>

<g transform="matrix( -0.9923095703125, -0.11822509765625, -0.11822509765625, 0.9923095703125, -164.55,69.8) ">
<g transform="matrix( 1, 0, 0, 1, 0,0) ">
<use xlink:href="#smithhand_1_Layer0_0_FILL"/>
</g>
</g>

<g transform="matrix( 1, 0, 0, 1, 0,0) ">
<use xlink:href="#smith_attack_8_Layer0_0_FILL"/>
</g>
</g>
</g>
</svg>
