
<svg xmlns="http://www.w3.org/2000/svg" version="1.1" xmlns:xlink="http://www.w3.org/1999/xlink" preserveAspectRatio="none" x="0px" y="0px" width="1000px" height="1000px" viewBox="0 0 1000 1000">
<defs>
<linearGradient id="Gradient_1" gradientUnits="userSpaceOnUse" x1="82.125" y1="23.9875" x2="79.875" y2="56.212500000000006" spreadMethod="pad">
<stop  offset="0%" stop-color="#333333"/>

<stop  offset="100%" stop-color="#666666"/>
</linearGradient>

<linearGradient id="Gradient_2" gradientUnits="userSpaceOnUse" x1="81.80000000000001" y1="30.837500000000002" x2="79.5" y2="74.0625" spreadMethod="pad">
<stop  offset="0%" stop-color="#333333"/>

<stop  offset="100%" stop-color="#666666"/>
</linearGradient>

<linearGradient id="Gradient_3" gradientUnits="userSpaceOnUse" x1="40.4875" y1="28.7625" x2="41.1125" y2="17.537499999999998" spreadMethod="pad">
<stop  offset="0%" stop-color="#666666"/>

<stop  offset="100%" stop-color="#FFFFFF"/>
</linearGradient>

<linearGradient id="Gradient_4" gradientUnits="userSpaceOnUse" x1="40.2125" y1="11.637499999999996" x2="44.487500000000004" y2="86.86250000000001" spreadMethod="pad">
<stop  offset="0%" stop-color="#666666"/>

<stop  offset="100%" stop-color="#E7E7E7"/>
</linearGradient>

<linearGradient id="Gradient_5" gradientUnits="userSpaceOnUse" x1="68.225" y1="45.3125" x2="67.775" y2="78.4875" spreadMethod="pad">
<stop  offset="0%" stop-color="#CCCCCC"/>

<stop  offset="100%" stop-color="#FFFFFF"/>
</linearGradient>

<linearGradient id="Gradient_6" gradientUnits="userSpaceOnUse" x1="38.0625" y1="53.6875" x2="41.4375" y2="85.7125" spreadMethod="pad">
<stop  offset="0%" stop-color="#CCCCCC"/>

<stop  offset="100%" stop-color="#FFFFFF"/>
</linearGradient>

<g id="smith_anvil_3_Layer0_0_FILL">
<path fill="#000000" stroke="none" d="
M 36.55 -2.3
Q 36.3677734375 -2.2599609375 36.15 -2.25
L 33.85 0.4
Q 31.6869140625 0.9361328125 29.6 1.45 13.12265625 5.78515625 3.1 10.25 -1.308984375 12.215625 -3.15 14.2 -5.64921875 16.9466796875 -5.3 19 -4.9470703125 21.053125 -3.4 24.5 -1.856640625 27.9462890625 17.8 33.7 37.45859375 39.501953125 38.3 38.2 38.312109375 38.3048828125 38.3 38.4
L 38.4 39.2
Q 38.47734375 40.2828125 41 41.1
L 41 41
Q 41.6458984375 41.337890625 42.45 41.75 47 44.05 48.05 44.95 49.55 46.35 54.3 55.1 58.85 63.55 59.65 66.05 61.1396484375 70.660546875 69.7 70.75 71.55 70.75 80.75 69.95 88.5 69.25 91.8 69.75 100.526171875 70.96796875 100.6 68.4 100.65 67.05 107.8 52.6 115.05 38 117.1 35.35 117.5271484375 34.7904296875 117.95 34.25 119.326953125 32.5541015625 120.55 31.3 123.2490234375 28.6146484375 125.2 28.3
L 125.55 28.25
Q 128.580078125 27.81328125 134.4 27.25 134.484375 26.366796875 134.55 25.5
L 135.2 17.05
Q 135.278515625 16.1572265625 135.3 15.25
L 135.1 -0.9
Q 135.0818359375 -0.955859375 135.05 -1 135.0689453125 -1.1314453125 135.05 -1.25 134.975 -1.6685546875 134.9 -2.05 134.224609375 -2.069140625 133.55 -2.1 127.0357421875 -2.2806640625 120.8 -2.45 71.5849609375 -3.5734375 41.4 -2.5 38.924609375 -2.376171875 36.55 -2.3
M 125.35 16.4
L 125.35 16.75
Q 125.3123046875 19.03984375 125.25 19.6 122.772265625 21.0626953125 120.6 22.45 110.8205078125 28.8900390625 107.8 34.15 107.0736328125 35.4978515625 106.75 36.75 105.9216796875 39.9212890625 105.8 42.65
L 105.85 42.65
Q 105.6560546875 46.8208984375 98.4 61.6 97.2837890625 63.8744140625 96 66.4 94.6412109375 66.5291015625 92.55 66.75 92.4494140625 66.78671875 92.35 66.8 82.3416015625 67.9333984375 84.25 63.9 86.1662109375 59.87578125 83.45 55.25 80.791015625 50.6298828125 80.25 52.5 79.9451171875 53.532421875 79.85 56.55 79.7859375 58.974609375 79.85 62.6 79.9470703125 68.582421875 71.9 67.85 70.7 67.75 66.55 66.85
L 62.65 65.95
Q 62.4970703125 58.262109375 59.85 53.85 57.242578125 49.444921875 54.1 42.35 50.9630859375 35.2482421875 41.75 33.9 41.6888671875 33.747265625 41.65 33.55
L 41.65 33.55
Q 41.61640625 33.4482421875 41.6 33.35 41.50859375 32.8927734375 41.1 31.4
L 41.1 31.5 39.25 25
Q 39.05 24.65 38.8 24.3 38.25 23.55 38.2 23.6 36.8453125 25.96484375 36.8 29 21.787890625 25.932421875 8.55 18.15
L 6.7 17.05
Q 6.6638671875 17.02421875 6.6 17
L 6.55 16.95
Q 7.45 16.5 21.65 12.8 22.4828125 12.5845703125 23.3 12.35 26.421875 11.571875 29.55 10.75 32.8080078125 9.934375 36.1 9.1 36.1298828125 9.9068359375 36.85 12.5
L 36.9 12.65
Q 36.9267578125 12.7431640625 36.95 12.8
L 36.95 12.95
Q 37.0400390625 13.1146484375 37.1 13.3 37.1896484375 13.528125 37.3 13.75
L 37.9 14.95
Q 37.9359375 15.01640625 37.95 15.05 38.558203125 16.1279296875 38.7 15.75 38.739453125 15.658203125 38.9 15.05 39.0220703125 14.673828125 39.2 14
L 40.9 8.05
Q 41.075 8.0490234375 41.25 8.05 125.2509765625 7.5998046875 125.7 7.55 125.6525390625 7.787109375 125.35 15.85 125.3689453125 16.148046875 125.35 16.4 Z"/>

<path fill="#666666" stroke="none" d="
M 77.55 53.05
L 75.8 50.9
Q 78.3 58.25 73.85 64.85 72.8591796875 66.3361328125 71.9 67.85 79.9470703125 68.582421875 79.85 62.6 79.7859375 58.974609375 79.85 56.55 79.35 55.45 77.55 53.05
M 28.9 19.1
Q 29.2982421875 19.078515625 29.65 19
L 35.9 15.8
Q 36.133203125 15.4421875 36.3 15.05 36.5458984375 14.61328125 36.7 14.1
L 36.9 13.1
Q 36.9353515625 12.96953125 36.95 12.8 36.9267578125 12.7431640625 36.9 12.65
L 36.85 12.5
Q 36.1298828125 9.9068359375 36.1 9.1 32.8080078125 9.934375 29.55 10.75 26.421875 11.571875 23.3 12.35 22.4828125 12.5845703125 21.65 12.8 7.45 16.5 6.55 16.95
L 6.6 17
Q 6.6638671875 17.02421875 6.7 17.05
L 8.55 18.15
Q 17.78515625 20.1025390625 28.1 19.2 28.5216796875 19.1634765625 28.9 19.1
M 98.4 61.6
Q 98.5369140625 60.38046875 98.6 59.15 95.7 60.2 94.15 62.95 93.0337890625 64.965625 92.35 66.8 92.4494140625 66.78671875 92.55 66.75 94.6412109375 66.5291015625 96 66.4 97.2837890625 63.8744140625 98.4 61.6
M 125.35 16.75
L 125.35 16.4
Q 125.3689453125 16.148046875 125.35 15.85 125.6525390625 7.787109375 125.7 7.55 125.2509765625 7.5998046875 41.25 8.05 41.075 8.0490234375 40.9 8.05
L 39.2 14
Q 39.0220703125 14.673828125 38.9 15.05 38.739453125 15.658203125 38.7 15.75 38.2927734375 19.5150390625 38.2 23.6 38.25 23.55 38.8 24.3 39.05 24.65 39.25 25
L 40.2 24.9
Q 40.6814453125 24.8912109375 41.15 24.85 41.5953125 24.8056640625 42.05 24.75
L 71.45 21.85
Q 72.3033203125 21.7802734375 73.1 21.7 73.494921875 21.662109375 73.85 21.6 74.2310546875 21.5861328125 74.6 21.55 106.765234375 18.3208984375 120.65 17.15 123.3501953125 16.92421875 125.35 16.75 Z"/>

<path fill="#333333" stroke="none" d="
M 29.65 19
Q 29.2982421875 19.078515625 28.9 19.1 28.5216796875 19.1634765625 28.1 19.2 17.78515625 20.1025390625 8.55 18.15 21.787890625 25.932421875 36.8 29 36.8453125 25.96484375 38.2 23.6 38.2927734375 19.5150390625 38.7 15.75 38.558203125 16.1279296875 37.95 15.05 37.9359375 15.01640625 37.9 14.95
L 37.3 13.75
Q 37.1896484375 13.528125 37.1 13.3 37.0400390625 13.1146484375 36.95 12.95
L 36.95 12.8
Q 36.9353515625 12.96953125 36.9 13.1
L 36.7 14.1
Q 36.5458984375 14.61328125 36.3 15.05 36.133203125 15.4421875 35.9 15.8
L 29.65 19 Z"/>

<path fill="url(#Gradient_1)" stroke="none" d="
M 41.1 31.4
L 41.15 24.85
Q 40.6814453125 24.8912109375 40.2 24.9
L 39.25 25 41.1 31.5 41.1 31.4 Z"/>

<path fill="url(#Gradient_2)" stroke="none" d="
M 125.25 19.6
Q 125.3123046875 19.03984375 125.35 16.75 123.3501953125 16.92421875 120.65 17.15 106.765234375 18.3208984375 74.6 21.55 74.2310546875 21.5861328125 73.85 21.6 73.494921875 21.662109375 73.1 21.7 72.3033203125 21.7802734375 71.45 21.85
L 42.05 24.75
Q 41.5953125 24.8056640625 41.15 24.85
L 41.1 31.4
Q 41.50859375 32.8927734375 41.6 33.35 41.61640625 33.4482421875 41.65 33.55
L 41.65 33.55
Q 41.6888671875 33.747265625 41.75 33.9 50.9630859375 35.2482421875 54.1 42.35 57.242578125 49.444921875 59.85 53.85 62.4970703125 58.262109375 62.65 65.95
L 66.55 66.85
Q 70.7 67.75 71.9 67.85 72.8591796875 66.3361328125 73.85 64.85 78.3 58.25 75.8 50.9
L 77.55 53.05
Q 79.35 55.45 79.85 56.55 79.9451171875 53.532421875 80.25 52.5 80.791015625 50.6298828125 83.45 55.25 86.1662109375 59.87578125 84.25 63.9 82.3416015625 67.9333984375 92.35 66.8 93.0337890625 64.965625 94.15 62.95 95.7 60.2 98.6 59.15 98.5369140625 60.38046875 98.4 61.6 105.6560546875 46.8208984375 105.85 42.65
L 105.8 42.65
Q 105.9216796875 39.9212890625 106.75 36.75 107.0736328125 35.4978515625 107.8 34.15 110.8205078125 28.8900390625 120.6 22.45 122.772265625 21.0626953125 125.25 19.6 Z"/>
</g>

<g id="smithbody_1_Layer0_0_FILL">
<path fill="#000000" stroke="none" d="
M 44.4 18
Q 47.630078125 12.5111328125 45.15 9.3 42.681640625 6.143359375 34.3 6.7 25.9048828125 7.2494140625 18.4 7.3 14.14609375 8.0001953125 10.05 10.05 6.95 11.65 -0.45 20.9 -8.75 31.4 -8 35.95 -6.237890625 46.5326171875 1.95 49.85 10.1337890625 53.2177734375 16.45 51.95 18.2 51.6 29.75 50.1 40.75 48.65 43 48 49.2529296875 46.414453125 52.25 44.8 55.2494140625 43.2451171875 56.8 33.05 58.35 23 49.25 22.65 49.05 22.25 47.2 20.35 45.3 18.35 44.8 18.15 44.6048828125 18.074609375 44.4 18
M 45.25 31.3
Q 44.15 29.95 42.75 28.25 39.95 24.85 39.2 23.05 43.55 22.55 46.05 26.65 47.35 29.05 47.25 30 47.5 30 49.6 27.6 49.9 27.65 50.45 28.05 50.95 28.4 51 28.55 51.25 29.9 50.35 33.8 49.45 37.7 48.65 38.75 48.55 38.75 48.5 38.8 47.4494140625 38.5640625 46.4 38.4 40.7169921875 37.51640625 35.8 39 36.8087890625 38.076171875 37.8 37.15
L 45.25 31.3
M 37.05 12.35
Q 37.2 13.65 36.8 14.95 35.2 20 36.95 24.9 32.55 27.15 31.55 27.55 25.6763671875 29.8681640625 19.2 29.5 17.45 26.85 12.1 26 10.25 26.8 8.95 27.9 10.1017578125 23.2453125 11.25 18.15 11.45 17.55 12.4 16.2 13.75 14.3 14.95 14 26.35 11.55 37.05 12.35
M 19.65 33.9
Q 19.65 34.65 19.35 36.3 19.05 37.7 18.85 38.35 17.2 42.5 15.65 43.45 15.05 43.85 12.2 43.65 9.5 43.45 9.1 43.15 8.75 42.85 7.9 41.6 6.9 40.1 6.75 39.35 6.6 38.8 6.6 37.2 6.6 35.65 6.7 35.2 6.8 34.85 8.25 32.65 9.7 30.45 9.75 30.35 11.35 28.6 13.15 28.05 15.35 27.35 17.2 28.4 19.65 29.9 19.65 33.9
M 1.55 36.3
Q 2.2267578125 33.326171875 3.15 30.45
L 3.15 30.45 6.45 22.6
Q 6.3 24.05 6.6 27 6.9 29.7 7.05 29.95 6.6 30.65 5.25 35.05 3.85 39.5 3.9 40.15 1.05 38.45 1.55 36.3
M 37.35 26
L 38.6 28.15
Q 40.184765625 30.3921875 42.7 31.05 39.2 32.85 38 33.75 35.4103515625 35.7498046875 33.45 38.5 31.9 40.7 29.4 40.95 24.35 41.4 19.9 41.2 20.45 40.55 20.85 37.6 21.2 34.75 21 33.8
L 19.55 30.3
Q 25.05 30.95 30.65 30 35.65 29.2 37.35 26 Z"/>

<path fill="#FF9900" stroke="none" d="
M 38 33.75
Q 37.3009765625 32.8158203125 36.8 31.5 35.2185546875 33.6365234375 32.35 35.8 28.9 38.4 25.55 39.45 26.75 35.5 30.5 33.25 25.098828125 34.6853515625 21.05 34 21.0271484375 33.9177734375 21 33.8 21.2 34.75 20.85 37.6 20.45 40.55 19.9 41.2 24.35 41.4 29.4 40.95 31.9 40.7 33.45 38.5 35.4103515625 35.7498046875 38 33.75
M 12.1 26
Q 17.45 26.85 19.2 29.5 25.6763671875 29.8681640625 31.55 27.55 31.348046875 26.2134765625 31.45 24.65 17.3890625 26.4890625 11.25 18.15 10.1017578125 23.2453125 8.95 27.9 10.25 26.8 12.1 26 Z"/>

<path fill="#FF3300" stroke="none" d="
M 38.6 28.15
L 37.35 26
Q 35.65 29.2 30.65 30 25.05 30.95 19.55 30.3
L 21 33.8
Q 21.0271484375 33.9177734375 21.05 34 25.098828125 34.6853515625 30.5 33.25 26.75 35.5 25.55 39.45 28.9 38.4 32.35 35.8 35.2185546875 33.6365234375 36.8 31.5 37.3009765625 32.8158203125 38 33.75 39.2 32.85 42.7 31.05 40.184765625 30.3921875 38.6 28.15
M 36.8 14.95
Q 37.2 13.65 37.05 12.35 26.35 11.55 14.95 14 13.75 14.3 12.4 16.2 11.45 17.55 11.25 18.15 17.3890625 26.4890625 31.45 24.65 31.348046875 26.2134765625 31.55 27.55 32.55 27.15 36.95 24.9 35.2 20 36.8 14.95 Z"/>

<path fill="#666666" stroke="none" d="
M 3.15 30.45
Q 3.15 31.75 3.3 34.95 3.5 38.95 3.9 40.15 3.85 39.5 5.25 35.05 6.6 30.65 7.05 29.95 6.9 29.7 6.6 27 6.3 24.05 6.45 22.6
L 3.15 30.45 3.15 30.45
M 17.35 36.5
Q 15.5 34.7 13.7 33.95 6.6984375 36.983984375 9.1 43.15 9.5 43.45 12.2 43.65 15.05 43.85 15.65 43.45 17.2 42.5 18.85 38.35 18.9 38.05 17.35 36.5
M 47.15 29.95
Q 45.35 31.4 45.25 31.3
L 37.8 37.15
Q 36.8087890625 38.076171875 35.8 39 40.7169921875 37.51640625 46.4 38.4 47.894921875 34.9162109375 47.15 29.95 Z"/>

<path fill="#CCCCCC" stroke="none" d="
M 3.15 30.45
Q 2.2267578125 33.326171875 1.55 36.3 1.05 38.45 3.9 40.15 3.5 38.95 3.3 34.95 3.15 31.75 3.15 30.45
M 13.7 33.95
Q 15.5 34.7 17.35 36.5 18.9 38.05 18.85 38.35 19.05 37.7 19.35 36.3 19.65 34.65 19.65 33.9 19.65 29.9 17.2 28.4 15.35 27.35 13.15 28.05 11.35 28.6 9.75 30.35 9.7 30.45 8.25 32.65 6.8 34.85 6.7 35.2 6.6 35.65 6.6 37.2 6.6 38.8 6.75 39.35 6.9 40.1 7.9 41.6 8.75 42.85 9.1 43.15 6.6984375 36.983984375 13.7 33.95
M 42.75 28.25
Q 44.15 29.95 45.25 31.3 45.35 31.4 47.15 29.95 47.894921875 34.9162109375 46.4 38.4 47.4494140625 38.5640625 48.5 38.8 48.55 38.75 48.65 38.75 49.45 37.7 50.35 33.8 51.25 29.9 51 28.55 50.95 28.4 50.45 28.05 49.9 27.65 49.6 27.6 47.5 30 47.25 30 47.35 29.05 46.05 26.65 43.55 22.55 39.2 23.05 39.95 24.85 42.75 28.25 Z"/>
</g>

<g id="smithhand_2_Layer0_0_FILL">
<path fill="#000000" stroke="none" d="
M 9 9.6
Q 4.25 8.5 3.4 8.7 -0.1 9.75 -2 13.1 -6.2 20.75 0.3 25.9 6 30.45 10.2 27.65 14.4 24.8 15.25 17.5 13.65 10.7 9 9.6
M 7.2 13.9
Q 8.35 14.3 9.1 15.2 10.6 16.95 10.35 19.55 10.1 21.25 9.05 22.15 8.2 22.9 5.45 23.05 3.1587890625 22.9220703125 1.95 21.4 1.15 20.3 1.15 18.8 1.15 17.4 1.85 16.1 2.5294921875 14.83828125 3.6 14.2 4.2265625 13.8587890625 4.95 13.7 6.05 13.45 7.2 13.9 Z"/>

<path fill="#666666" stroke="none" d="
M 6.35 16.55
Q 6.5 16.3 5.45 15.3 4.4 14.3 3.6 14.2 2.5294921875 14.83828125 1.85 16.1 1.15 17.4 1.15 18.8 1.15 20.3 1.95 21.4 3.1587890625 22.9220703125 5.45 23.05 4.5126953125 19.866796875 6.35 16.55 Z"/>

<path fill="#CCCCCC" stroke="none" d="
M 9.1 15.2
Q 8.35 14.3 7.2 13.9 6.05 13.45 4.95 13.7 4.2265625 13.8587890625 3.6 14.2 4.4 14.3 5.45 15.3 6.5 16.3 6.35 16.55 4.5126953125 19.866796875 5.45 23.05 8.2 22.9 9.05 22.15 10.1 21.25 10.35 19.55 10.6 16.95 9.1 15.2 Z"/>
</g>

<g id="smithhammer_0_Layer1_0_FILL">
<path fill="#000000" stroke="none" d="
M 54 -0.95
Q 52.0525390625 -1.83359375 40.5 -0.8 28.9970703125 0.227734375 27.55 0.75 26.4421875 2.9701171875 25.85 7.9 25.253125 12.8763671875 25.95 13.55 26.698046875 14.2197265625 25 14.55 23.35390625 14.887890625 0.65 13.55 -0.0576171875 17.5662109375 -1.8 24.3 -5.2041015625 37.508203125 -5.95 50.55 -6.6458984375 63.6564453125 2.35 65.35 11.344921875 67.037109375 19.95 67.75 20.95 70.95 18.55 83.3 16.15 95.65 15.5 107.55 35.15 113.9 35.75 95.85 36.35 77.8 39.4 70.05 55.75 71.18125 79.15 71.95 80.09375 68.223828125 81.7 66.95 83.365625 65.6724609375 92.05 64.35 97.5591796875 48.2923828125 97.4 23.75
L 85.5 23.6
Q 83.9830078125 19.62265625 83.75 15.25 80.4341796875 13.279296875 70.55 13.5 60.88515625 13.76640625 58.75 14.95 59.44453125 14.5033203125 62.65 10.4 66.0962890625 6.05234375 66.05 4.3 66.003515625 2.5974609375 60.95 1.25 55.9482421875 -0.055078125 54 -0.95
M 89 30.6
L 87.7 43.2 86.5 55.25 86.5 55.5 86.5 56.55 79.7 58.3 79.8 56.25 80.3 44.55 80.95 30.6 89 30.6
M 75.7 22.75
Q 77.1755859375 22.9603515625 78.65 23.15 78.7822265625 24.756640625 78.35 30.6 77.6203125 40.21484375 75.35 61.3 74.2125 61.41328125 73.05 61.5 64.4 62.3 42.7 61.7 23.1 61.15 17.95 60.5 11.903515625 59.7130859375 5.85 58.65 5.257421875 57.568359375 4.8 56.45
L 3.85 53.35
Q 3.5 51.85 3.9 46.1 4.25 41.25 4.6 38.6 6.75 24.4 7.4 22.5 9.5 21.35 12.25 21.1 14.1 20.95 44.8 21.8 74.95 22.7 75.7 22.75
M 45 5.45
Q 53.25 4.5 54.45 4.45 56.128515625 4.4560546875 57.8 4.55 57.3578125 11.1447265625 53.5 15.2 49.6380859375 19.30390625 47.85 18.75 46.65 18.4 32.45 17.5 32.65 16.35 32.75 11.6 32.8 9.2 32.8 6.95 37.1 6.35 45 5.45
M 25.45 63.85
L 32.95 64.3
Q 29.591015625 73.5486328125 29.15 81.95 29.15 82.2 28.6 90.8 27.95 100.2 27.35 104.45 22.4 107.25 19.25 103.8 19.8 102.15 22.3 89.8 23 86.55 24.1 78.25 25.5 68.05 25.45 63.85 Z"/>

<path fill="#FF9900" stroke="none" d="
M 29.15 81.95
Q 25.77578125 86.071484375 22.3 89.8 19.8 102.15 19.25 103.8 22.4 107.25 27.35 104.45 27.95 100.2 28.6 90.8 29.15 82.2 29.15 81.95
M 54.45 4.45
Q 53.25 4.5 45 5.45 37.1 6.35 32.8 6.95 32.8 9.2 32.75 11.6 32.65 16.35 32.45 17.5 43.5462890625 11.0216796875 54.45 4.45
M 86.5 56.55
L 86.5 55.5
Q 86.059375 55.555859375 85.6 55.6 82.7068359375 55.8462890625 79.8 56.25
L 79.7 58.3 86.5 56.55
M 87.7 43.2
L 89 30.6 80.95 30.6 80.3 44.55
Q 84.0484375 43.5724609375 87.75 42.6
L 87.7 43.2 Z"/>

<path fill="#FF3300" stroke="none" d="
M 32.95 64.3
L 25.45 63.85
Q 25.5 68.05 24.1 78.25 23 86.55 22.3 89.8 25.77578125 86.071484375 29.15 81.95 29.591015625 73.5486328125 32.95 64.3
M 57.8 4.55
Q 56.128515625 4.4560546875 54.45 4.45 43.5462890625 11.0216796875 32.45 17.5 46.65 18.4 47.85 18.75 49.6380859375 19.30390625 53.5 15.2 57.3578125 11.1447265625 57.8 4.55
M 87.7 43.2
L 87.75 42.6
Q 84.0484375 43.5724609375 80.3 44.55
L 79.8 56.25
Q 82.7068359375 55.8462890625 85.6 55.6 86.059375 55.555859375 86.5 55.5
L 86.5 55.25 87.7 43.2 Z"/>

<path fill="#333333" stroke="none" d="
M 5.85 58.65
Q 11.903515625 59.7130859375 17.95 60.5 15 59.9 9.85 58.3 4.95 56.75 4.8 56.45 5.257421875 57.568359375 5.85 58.65
M 78.65 23.15
Q 77.1755859375 22.9603515625 75.7 22.75 76.505859375 28.8923828125 74.2 36.15 71.65 44.4 60.85 42.9 50.65 41.45 40.25 41.15 22.03203125 40.574609375 4.6 38.6 4.25 41.25 3.9 46.1 3.5 51.85 3.85 53.35 37.8962890625 59.6462890625 72.15 59 72.55 58.95 72.85 60.15 73.1 61.05 73.05 61.5 74.2125 61.41328125 75.35 61.3 77.6203125 40.21484375 78.35 30.6 78.7822265625 24.756640625 78.65 23.15 Z"/>

<path fill="#666666" stroke="none" d="
M 3.85 53.35
L 4.8 56.45
Q 4.95 56.75 9.85 58.3 15 59.9 17.95 60.5 23.1 61.15 42.7 61.7 64.4 62.3 73.05 61.5 73.1 61.05 72.85 60.15 72.55 58.95 72.15 59 37.8962890625 59.6462890625 3.85 53.35 Z"/>

<path fill="url(#Gradient_3)" stroke="none" d="
M 60.85 42.9
Q 71.65 44.4 74.2 36.15 76.505859375 28.8923828125 75.7 22.75 74.95 22.7 44.8 21.8 14.1 20.95 12.25 21.1 9.5 21.35 7.4 22.5 6.75 24.4 4.6 38.6 22.03203125 40.574609375 40.25 41.15 50.65 41.45 60.85 42.9 Z"/>
</g>

<g id="smithhammer_0_Layer0_0_FILL">
<path fill="#FF9900" stroke="none" d="
M 52.55 31.4
Q 52.4 31.15 52.25 30.85 51.5 29.9 50.25 29.75 48.95 29.65 47.65 29.65 46.9 30.25 46.35 30.9 46 31.3 45.8 31.85 45.65 32.2 45.65 32.6 45.55 33.6 46 34.55 46.45 35.55 47.3 36 48.2 36.45 49.05 36.75 52.15 36.5 52.9 33.5 53.2 32.4 52.55 31.4
M 58.8 24.3
Q 58.25 20.9 54.75 22.15 54.1 22.7 53.7 23.3 52.7 24.75 53.4 26.25 53.85 27.3 54.9 27.65 55.35 27.8 55.8 27.8 59.3 27.65 58.8 24.3 Z"/>
</g>

<g id="smithhand_1_Layer0_0_FILL">
<path fill="#000000" stroke="none" d="
M 23.1 7.45
Q 22.5041015625 1.5498046875 22 1.7 21.6 1.75 19.8 1.3 17.9 0.85 17.5 0.75 12.5 1.45 8.35 4.55 6.6935546875 5.813671875 5.3 7.2
L 2.9 6.75
Q -1.2544921875 7.9970703125 -6.25 15.65 -11.187109375 23.3640625 -3.45 29.25 4.3380859375 35.126953125 9.9 30.85 15.46015625 26.6240234375 16.55 24.15 19.2013671875 23.18359375 21.45 18.25 23.742578125 13.3556640625 23.1 7.45
M 7.45 12.95
Q 8.8 13.45 9.7 14.5 10.843359375 15.833984375 11.1 17.55 11.277734375 18.5373046875 11.15 19.65 10.9 21.7 9.65 22.8 8.25 24 6 23.9 4.2796875 23.9 3 23.3 2.046875 22.8443359375 1.35 22 1.272265625 21.9427734375 1.2 21.85 0.25 20.6 0.25 18.8 0.25 17.1 1.05 15.6 2.3 13.25 4.75 12.7 6.05 12.4 7.45 12.95
M 17.5 13.25
Q 17.0876953125 13.887890625 16.1 15.25 14.55 17.35 13.85 18.25 14.0595703125 14.90234375 12.3 12.65 11.1888671875 11.22421875 9.2 10.25 15.375 7.089453125 21.15 3.55 21.1 4.05 17.5 13.25 Z"/>

<path fill="#CCCCCC" stroke="none" d="
M 16 11.55
Q 15.2 10.4 15.3 10.3 13.8681640625 11.52421875 12.3 12.65 14.0595703125 14.90234375 13.85 18.25 14.55 17.35 16.1 15.25 17.0876953125 13.887890625 17.5 13.25 16.85 12.75 16 11.55
M 6 23.9
Q 8.25 24 9.65 22.8 10.9 21.7 11.15 19.65 11.277734375 18.5373046875 11.1 17.55 8.85 17.15 6.75 17.7 2.6 18.8 3 23.3 4.2796875 23.9 6 23.9 Z"/>

<path fill="#666666" stroke="none" d="
M 15.3 10.3
Q 15.2 10.4 16 11.55 16.85 12.75 17.5 13.25 21.1 4.05 21.15 3.55 15.375 7.089453125 9.2 10.25 11.1888671875 11.22421875 12.3 12.65 13.8681640625 11.52421875 15.3 10.3
M 9.7 14.5
Q 8.8 13.45 7.45 12.95 6.05 12.4 4.75 12.7 2.3 13.25 1.05 15.6 0.25 17.1 0.25 18.8 0.25 20.6 1.2 21.85 1.272265625 21.9427734375 1.35 22 2.046875 22.8443359375 3 23.3 2.6 18.8 6.75 17.7 8.85 17.15 11.1 17.55 10.843359375 15.833984375 9.7 14.5 Z"/>
</g>

<g id="smithhead_0_Layer0_0_FILL">
<path fill="#000000" stroke="none" d="
M 80.75 32.6
Q 79.0015625 13.95 74.35 1.95 73.2466796875 -0.881640625 61.55 -0.9 49.853125 -0.868359375 45.35 0 35.901171875 0.8478515625 18.25 5.05 0.59609375 9.30625 -1.2 9.15 -2.990625 9.0466796875 5.45 58.45 8.885546875 78.6140625 9.25 91 33.7388671875 91.81953125 45.35 90.2 56.951171875 88.5736328125 70.7 85.55 84.45546875 82.5193359375 83.45 66.85 82.494140625 51.2453125 80.75 32.6
M 68.8 7.65
Q 68.857421875 7.7658203125 68.9 7.85 72.35 21.6 73.4 30.6 74.45 39.5 75.7 55.1 77.15 73.25 76.75 76.45 76.95 76.85 72.85 79.25 68.5 81.85 65.7 82.75 46.4529296875 89.025390625 28.35 87.45
L 28.35 87.45
Q 20.05 85.85 19.3 85.5 14.9 67.35 12.9 49.05 10.95 31.55 6.75 15.15 29.45 9 37 8.1 53.75 6 68.8 7.65
M 46.2 47.9
Q 49.61171875 47.2396484375 52.55 46.1 58.9291015625 43.661328125 63.2 39 67.416015625 34.5068359375 69.65 27.9 69.75 27.55 69.7 26.95 69.6 26.3 69.4 26.2 69.2 26.15 66 25.6 62.7 25.05 61.75 24.95 55.3396484375 24.6986328125 49.2 25.15 32.746484375 26.3615234375 18.6 32.85 17.3921875 33.406640625 16.2 34 16.15 34.7 17.55 36.95 18.8 38.95 19.4 39.55 30.1138671875 50.9640625 46.2 47.9
M 56.8 39.25
Q 53.034765625 44.1990234375 44.05 44.95 35.061328125 45.7505859375 31.25 43.1 29.4 41.85 25.65 38.65 22 35.55 21.7 35.05 23.3068359375 34.41875 24.95 33.9 26.5 33.5 42.95 31.55 60.2 29.55 61.15 29.35 61.4134765625 29.6099609375 61.6 29.85 62.4 30.9 59.7 35.2 58.35 37.35 56.8 39.25 Z"/>

<path fill="url(#Gradient_4)" stroke="none" d="
M 68.9 7.85
Q 68.857421875 7.7658203125 68.8 7.65 53.75 6 37 8.1 29.45 9 6.75 15.15 10.95 31.55 12.9 49.05 14.9 67.35 19.3 85.5 20.05 85.85 28.35 87.45
L 28.35 87.45
Q 46.4529296875 89.025390625 65.7 82.75 68.5 81.85 72.85 79.25 76.95 76.85 76.75 76.45 77.15 73.25 75.7 55.1 74.45 39.5 73.4 30.6 72.35 21.6 68.9 7.85
M 47.8 12.5
L 59.95 12.4
Q 66.6 12.8 66.9 12.75 68.380078125 19.47265625 69.4 26.2 69.6 26.3 69.7 26.95 69.75 27.55 69.65 27.9 70.65 34.65 71.65 55.65 72.65 76.2 72.9 77.7 69.6404296875 78.6767578125 66.3 79.45
L 58.6 80.95
Q 58.30546875 81.02734375 58 81.05
L 58 81.05
Q 55.45 81.35 41.7 81.8 28.45 82.2 25.9 82.1 22.13125 60.91796875 19.4 39.55 18.8 38.95 17.55 36.95 16.15 34.7 16.2 34 17.3921875 33.406640625 18.6 32.85 17.45 23.15 16.35 17.85 16.95 17.85 29.95 15.35 43.1 12.8 47.8 12.5
L 47.8 12.5 Z"/>

<path fill="#FFFFFF" stroke="none" d="
M 63.2 39
Q 58.9291015625 43.661328125 52.55 46.1 55.0439453125 63.63671875 58 81.05
L 58 81.05
Q 58.30546875 81.02734375 58.6 80.95
L 66.3 79.45
Q 66.2 73.9 64.95 58.35 63.8 43.6 63.2 39
M 59.95 12.4
L 47.8 12.5 47.8 12.5
Q 47.8 13.6 48.35 18.45 48.85 22.9 49.2 25.15 55.3396484375 24.6986328125 61.75 24.95 60.9873046875 18.73671875 59.95 12.4 Z"/>

<path fill="#CCCCCC" stroke="none" d="
M 66 25.6
Q 69.2 26.15 69.4 26.2 68.380078125 19.47265625 66.9 12.75 66.6 12.8 59.95 12.4 60.9873046875 18.73671875 61.75 24.95 62.7 25.05 66 25.6
M 48.35 18.45
Q 47.8 13.6 47.8 12.5 43.1 12.8 29.95 15.35 16.95 17.85 16.35 17.85 17.45 23.15 18.6 32.85 32.746484375 26.3615234375 49.2 25.15 48.85 22.9 48.35 18.45 Z"/>

<path fill="url(#Gradient_5)" stroke="none" d="
M 69.65 27.9
Q 67.416015625 34.5068359375 63.2 39 63.8 43.6 64.95 58.35 66.2 73.9 66.3 79.45 69.6404296875 78.6767578125 72.9 77.7 72.65 76.2 71.65 55.65 70.65 34.65 69.65 27.9 Z"/>

<path fill="#FF9900" stroke="none" d="
M 61.6 29.85
Q 61.4134765625 29.6099609375 61.15 29.35 60.2 29.55 42.95 31.55 26.5 33.5 24.95 33.9 26.270703125 34.51640625 27.65 35.1 47.8099609375 43.7400390625 61.6 29.85 Z"/>

<path fill="#FF3300" stroke="none" d="
M 44.05 44.95
Q 53.034765625 44.1990234375 56.8 39.25 58.35 37.35 59.7 35.2 62.4 30.9 61.6 29.85 47.8099609375 43.7400390625 27.65 35.1 26.270703125 34.51640625 24.95 33.9 23.3068359375 34.41875 21.7 35.05 22 35.55 25.65 38.65 29.4 41.85 31.25 43.1 35.061328125 45.7505859375 44.05 44.95 Z"/>

<path fill="url(#Gradient_6)" stroke="none" d="
M 52.55 46.1
Q 49.61171875 47.2396484375 46.2 47.9 30.1138671875 50.9640625 19.4 39.55 22.13125 60.91796875 25.9 82.1 28.45 82.2 41.7 81.8 55.45 81.35 58 81.05 55.0439453125 63.63671875 52.55 46.1 Z"/>
</g>
</defs>

<g transform="matrix( 0.825531005859375, 0, 0, 0.825531005859375, 453.45,330.95) ">
<g transform="matrix( 1, 0, 0, 1, 169.35,18.4) ">
<g transform="matrix( 0.99786376953125, -0.064849853515625, 0.064849853515625, 0.99786376953125, -206.55,122.95) ">
<g transform="matrix( 1, 0, 0, 1, 0,0) ">
<use xlink:href="#smith_anvil_3_Layer0_0_FILL"/>
</g>
</g>

<g transform="matrix( 0.999969482421875, -0.0002288818359375, 0.0002288818359375, 0.999969482421875, -143.35,81.55) ">
<g transform="matrix( 1, 0, 0, 1, 0,0) ">
<use xlink:href="#smithbody_1_Layer0_0_FILL"/>
</g>
</g>

<g transform="matrix( -0.9332122802734375, 0.3590545654296875, 0.3590545654296875, 0.9332122802734375, -93.55,85.05) ">
<g transform="matrix( 1, 0, 0, 1, 0,0) ">
<use xlink:href="#smithhand_2_Layer0_0_FILL"/>
</g>
</g>

<g transform="matrix( 0.709503173828125, 0.7045440673828125, -0.7045440673828125, 0.709503173828125, -57.7,33.55) ">
<g transform="matrix( 1, 0, 0, 1, 0,0) ">
<use xlink:href="#smithhammer_0_Layer1_0_FILL"/>
</g>

<g transform="matrix( 1, 0, 0, 1, 0,0) ">
<use xlink:href="#smithhammer_0_Layer0_0_FILL"/>
</g>
</g>

<g transform="matrix( -0.9332122802734375, 0.3590545654296875, 0.3590545654296875, 0.9332122802734375, -106.2,89.9) ">
<g transform="matrix( 1, 0, 0, 1, 0,0) ">
<use xlink:href="#smithhand_1_Layer0_0_FILL"/>
</g>
</g>

<g transform="matrix( 0.982513427734375, 0.185760498046875, -0.2595977783203125, 0.968536376953125, -135,3.55) ">
<g transform="matrix( 1, 0, 0, 1, 0,0) ">
<use xlink:href="#smithhead_0_Layer0_0_FILL"/>
</g>
</g>
</g>
</g>
</svg>
