
<svg xmlns="http://www.w3.org/2000/svg" version="1.1" xmlns:xlink="http://www.w3.org/1999/xlink" preserveAspectRatio="none" x="0px" y="0px" width="1000px" height="1000px" viewBox="0 0 1000 1000">
<defs>
<linearGradient id="Gradient_1" gradientUnits="userSpaceOnUse" x1="82.125" y1="23.9875" x2="79.875" y2="56.212500000000006" spreadMethod="pad">
<stop  offset="0%" stop-color="#333333"/>

<stop  offset="100%" stop-color="#666666"/>
</linearGradient>

<linearGradient id="Gradient_2" gradientUnits="userSpaceOnUse" x1="40.4875" y1="28.7625" x2="41.1125" y2="17.537499999999998" spreadMethod="pad">
<stop  offset="0%" stop-color="#666666"/>

<stop  offset="100%" stop-color="#FFFFFF"/>
</linearGradient>

<linearGradient id="Gradient_3" gradientUnits="userSpaceOnUse" x1="29.599999999999998" y1="44.8375" x2="38.699999999999996" y2="69.4625" spreadMethod="pad">
<stop  offset="0%" stop-color="#CCCCCC"/>

<stop  offset="100%" stop-color="#FFFFFF"/>
</linearGradient>

<linearGradient id="Gradient_4" gradientUnits="userSpaceOnUse" x1="66.97500000000001" y1="45.287499999999994" x2="67.925" y2="67.3125" spreadMethod="pad">
<stop  offset="0%" stop-color="#CCCCCC"/>

<stop  offset="100%" stop-color="#FFFFFF"/>
</linearGradient>

<linearGradient id="Gradient_5" gradientUnits="userSpaceOnUse" x1="39.45" y1="38.625" x2="44.75" y2="68.575" spreadMethod="pad">
<stop  offset="0%" stop-color="#666666"/>

<stop  offset="100%" stop-color="#E7E7E7"/>
</linearGradient>

<g id="smith_anvil_0_Layer0_0_FILL">
<path fill="#000000" stroke="none" d="
M 41.4 -2.5
Q 38.6927734375 -2.3669921875 36.15 -2.25
L 33.85 0.4
Q 31.688671875 0.9357421875 29.6 1.45 13.123828125 5.784765625 3.1 10.25 -1.308984375 12.215625 -3.15 14.2 -5.64921875 16.9466796875 -5.3 19 -4.9470703125 21.053125 -3.4 24.5 -1.856640625 27.9462890625 17.8 33.7 37.45859375 39.501953125 38.3 38.2 38.3544921875 38.669140625 38.4 39.2 38.47734375 40.2828125 41 41.1 41.7486328125 41.3734375 42.7 41.6
L 47.4 42.65
Q 48.1 43.1 45.5 47.2 42.65 51.7 38.85 54.8 40.2 56.6 49.7 60.3 58.75 63.85 59.3 63.55 59.7 63.3 65.85 61.35 72.6 59.2 77.75 57.7 82.3 56.4 94.35 59.45 106.05 62.4 106.25 62.3 107.6 61.6 112.35 58.25 117.5 54.6 118.3 53.5 118.85 52.7 115.45 48.55 112.2431640625 44.71953125 112.3 43 112.33984375 42.8248046875 112.4 42.65 112.9 40.85 117.1 35.35 117.5279296875 34.789453125 117.95 34.25 119.3220703125 32.5603515625 120.55 31.3 123.24609375 28.615234375 125.2 28.3 128.2 27.85 134.4 27.25 134.99375 21.037890625 135.25 15.95 135.9998046875 3.5380859375 134.9 -2.05 127.683984375 -2.2546875 120.8 -2.45 71.57109375 -3.574609375 41.4 -2.5
M 125.35 16.75
Q 125.3123046875 19.03984375 125.25 19.6 122.7669921875 21.0658203125 120.6 22.45 110.810546875 28.896875 107.8 34.15 107.0724609375 35.5029296875 106.75 36.75 105.9216796875 39.9212890625 105.8 42.65
L 105.85 42.65
Q 105.85 43 105.95 44 106.05 45.35 106.25 45.9 107.5572265625 49.92734375 112.95 52.15
L 109.75 54.2 109.7 54.2
Q 104.55 57.75 104.2 57.85 84.4 50 79.85 49.95 77.75 50.05 67.7 54.35 57.95 58.55 57.55 59.2
L 46.9 54.65
Q 50.1 53.15 52.35 48.15 54.2 43.9 53.85 42.65 53.83359375 42.575390625 53.8 42.5 51.9919921875 34.601953125 41.75 33.9
L 39.25 25
Q 39.05 24.65 38.8 24.3 38.25 23.55 38.2 23.6 36.8453125 25.96484375 36.8 29 21.789453125 25.9328125 8.55 18.15
L 6.7 17.05
Q 6.627734375 16.9982421875 6.55 16.95 7.45 16.5 21.65 12.8 25.5712890625 11.7853515625 29.55 10.75 32.803515625 9.9353515625 36.1 9.1
L 36.9 12.65
Q 36.9267578125 12.7431640625 36.95 12.8 37.25 13.8 37.9 14.95 37.9357421875 15.016015625 37.95 15.05 38.558203125 16.128125 38.7 15.75 38.739453125 15.658203125 38.9 15.05 39.38828125 13.4703125 40.9 8.05
L 125.7 7.55
Q 125.6525390625 7.787109375 125.35 15.85 125.3654296875 16.3119140625 125.35 16.75 Z"/>

<path fill="#666666" stroke="none" d="
M 36.3 15.05
Q 36.8251953125 14.060546875 36.95 12.8 36.9267578125 12.7431640625 36.9 12.65
L 36.1 9.1
Q 32.803515625 9.9353515625 29.55 10.75 25.5712890625 11.7853515625 21.65 12.8 7.45 16.5 6.55 16.95 6.627734375 16.9982421875 6.7 17.05
L 8.55 18.15
Q 17.78515625 20.1025390625 28.1 19.2 34.5703125 18.6384765625 36.3 15.05
M 106.25 45.9
Q 103.25 42.9 103.25 42.95 103.3451171875 51.7255859375 109.7 54.2
L 109.75 54.2 112.95 52.15
Q 107.5572265625 49.92734375 106.25 45.9
M 125.35 15.85
Q 125.6525390625 7.787109375 125.7 7.55
L 40.9 8.05
Q 39.38828125 13.4703125 38.9 15.05 38.739453125 15.658203125 38.7 15.75 38.2927734375 19.5150390625 38.2 23.6 38.25 23.55 38.8 24.3 39.05 24.65 39.25 25 40.212890625 24.9322265625 41.15 24.85 56.7791015625 23.2943359375 74.6 21.55 106.7587890625 18.321484375 120.65 17.15 123.3482421875 16.9244140625 125.35 16.75 125.3654296875 16.3119140625 125.35 15.85 Z"/>

<path fill="#333333" stroke="none" d="
M 36.95 12.8
Q 36.8251953125 14.060546875 36.3 15.05 34.5703125 18.6384765625 28.1 19.2 17.78515625 20.1025390625 8.55 18.15 21.789453125 25.9328125 36.8 29 36.8453125 25.96484375 38.2 23.6 38.2927734375 19.5150390625 38.7 15.75 38.558203125 16.128125 37.95 15.05 37.9357421875 15.016015625 37.9 14.95 37.25 13.8 36.95 12.8 Z"/>

<path fill="url(#Gradient_1)" stroke="none" d="
M 125.25 19.6
Q 125.3123046875 19.03984375 125.35 16.75 123.3482421875 16.9244140625 120.65 17.15 106.7587890625 18.321484375 74.6 21.55 56.7791015625 23.2943359375 41.15 24.85 40.212890625 24.9322265625 39.25 25
L 41.75 33.9
Q 51.9919921875 34.601953125 53.8 42.5 53.83359375 42.575390625 53.85 42.65 54.2 43.9 52.35 48.15 50.1 53.15 46.9 54.65
L 57.55 59.2
Q 57.95 58.55 67.7 54.35 77.75 50.05 79.85 49.95 84.4 50 104.2 57.85 104.55 57.75 109.7 54.2 103.3451171875 51.7255859375 103.25 42.95 103.25 42.9 106.25 45.9 106.05 45.35 105.95 44 105.85 43 105.85 42.65
L 105.8 42.65
Q 105.9216796875 39.9212890625 106.75 36.75 107.0724609375 35.5029296875 107.8 34.15 110.810546875 28.896875 120.6 22.45 122.7669921875 21.0658203125 125.25 19.6 Z"/>
</g>

<g id="smithbody_1_Layer0_0_FILL">
<path fill="#000000" stroke="none" d="
M 44.4 18
Q 47.630078125 12.5111328125 45.15 9.3 42.681640625 6.143359375 34.3 6.7 25.9048828125 7.2494140625 18.4 7.3 14.14609375 8.0001953125 10.05 10.05 6.95 11.65 -0.45 20.9 -8.75 31.4 -8 35.95 -6.237890625 46.5326171875 1.95 49.85 10.1337890625 53.2177734375 16.45 51.95 18.2 51.6 29.75 50.1 40.75 48.65 43 48 49.2529296875 46.414453125 52.25 44.8 55.2494140625 43.2451171875 56.8 33.05 58.35 23 49.25 22.65 49.05 22.25 47.2 20.35 45.3 18.35 44.8 18.15 44.6048828125 18.074609375 44.4 18
M 45.25 31.3
Q 44.15 29.95 42.75 28.25 39.95 24.85 39.2 23.05 43.55 22.55 46.05 26.65 47.35 29.05 47.25 30 47.5 30 49.6 27.6 49.9 27.65 50.45 28.05 50.95 28.4 51 28.55 51.25 29.9 50.35 33.8 49.45 37.7 48.65 38.75 48.55 38.75 48.5 38.8 47.4494140625 38.5640625 46.4 38.4 40.7169921875 37.51640625 35.8 39 36.8087890625 38.076171875 37.8 37.15
L 45.25 31.3
M 37.05 12.35
Q 37.2 13.65 36.8 14.95 35.2 20 36.95 24.9 32.55 27.15 31.55 27.55 25.6763671875 29.8681640625 19.2 29.5 17.45 26.85 12.1 26 10.25 26.8 8.95 27.9 10.1017578125 23.2453125 11.25 18.15 11.45 17.55 12.4 16.2 13.75 14.3 14.95 14 26.35 11.55 37.05 12.35
M 19.65 33.9
Q 19.65 34.65 19.35 36.3 19.05 37.7 18.85 38.35 17.2 42.5 15.65 43.45 15.05 43.85 12.2 43.65 9.5 43.45 9.1 43.15 8.75 42.85 7.9 41.6 6.9 40.1 6.75 39.35 6.6 38.8 6.6 37.2 6.6 35.65 6.7 35.2 6.8 34.85 8.25 32.65 9.7 30.45 9.75 30.35 11.35 28.6 13.15 28.05 15.35 27.35 17.2 28.4 19.65 29.9 19.65 33.9
M 1.55 36.3
Q 2.2267578125 33.326171875 3.15 30.45
L 3.15 30.45 6.45 22.6
Q 6.3 24.05 6.6 27 6.9 29.7 7.05 29.95 6.6 30.65 5.25 35.05 3.85 39.5 3.9 40.15 1.05 38.45 1.55 36.3
M 37.35 26
L 38.6 28.15
Q 40.184765625 30.3921875 42.7 31.05 39.2 32.85 38 33.75 35.4103515625 35.7498046875 33.45 38.5 31.9 40.7 29.4 40.95 24.35 41.4 19.9 41.2 20.45 40.55 20.85 37.6 21.2 34.75 21 33.8
L 19.55 30.3
Q 25.05 30.95 30.65 30 35.65 29.2 37.35 26 Z"/>

<path fill="#FF9900" stroke="none" d="
M 38 33.75
Q 37.3009765625 32.8158203125 36.8 31.5 35.2185546875 33.6365234375 32.35 35.8 28.9 38.4 25.55 39.45 26.75 35.5 30.5 33.25 25.098828125 34.6853515625 21.05 34 21.0271484375 33.9177734375 21 33.8 21.2 34.75 20.85 37.6 20.45 40.55 19.9 41.2 24.35 41.4 29.4 40.95 31.9 40.7 33.45 38.5 35.4103515625 35.7498046875 38 33.75
M 12.1 26
Q 17.45 26.85 19.2 29.5 25.6763671875 29.8681640625 31.55 27.55 31.348046875 26.2134765625 31.45 24.65 17.3890625 26.4890625 11.25 18.15 10.1017578125 23.2453125 8.95 27.9 10.25 26.8 12.1 26 Z"/>

<path fill="#FF3300" stroke="none" d="
M 38.6 28.15
L 37.35 26
Q 35.65 29.2 30.65 30 25.05 30.95 19.55 30.3
L 21 33.8
Q 21.0271484375 33.9177734375 21.05 34 25.098828125 34.6853515625 30.5 33.25 26.75 35.5 25.55 39.45 28.9 38.4 32.35 35.8 35.2185546875 33.6365234375 36.8 31.5 37.3009765625 32.8158203125 38 33.75 39.2 32.85 42.7 31.05 40.184765625 30.3921875 38.6 28.15
M 36.8 14.95
Q 37.2 13.65 37.05 12.35 26.35 11.55 14.95 14 13.75 14.3 12.4 16.2 11.45 17.55 11.25 18.15 17.3890625 26.4890625 31.45 24.65 31.348046875 26.2134765625 31.55 27.55 32.55 27.15 36.95 24.9 35.2 20 36.8 14.95 Z"/>

<path fill="#666666" stroke="none" d="
M 3.15 30.45
Q 3.15 31.75 3.3 34.95 3.5 38.95 3.9 40.15 3.85 39.5 5.25 35.05 6.6 30.65 7.05 29.95 6.9 29.7 6.6 27 6.3 24.05 6.45 22.6
L 3.15 30.45 3.15 30.45
M 17.35 36.5
Q 15.5 34.7 13.7 33.95 6.6984375 36.983984375 9.1 43.15 9.5 43.45 12.2 43.65 15.05 43.85 15.65 43.45 17.2 42.5 18.85 38.35 18.9 38.05 17.35 36.5
M 47.15 29.95
Q 45.35 31.4 45.25 31.3
L 37.8 37.15
Q 36.8087890625 38.076171875 35.8 39 40.7169921875 37.51640625 46.4 38.4 47.894921875 34.9162109375 47.15 29.95 Z"/>

<path fill="#CCCCCC" stroke="none" d="
M 3.15 30.45
Q 2.2267578125 33.326171875 1.55 36.3 1.05 38.45 3.9 40.15 3.5 38.95 3.3 34.95 3.15 31.75 3.15 30.45
M 13.7 33.95
Q 15.5 34.7 17.35 36.5 18.9 38.05 18.85 38.35 19.05 37.7 19.35 36.3 19.65 34.65 19.65 33.9 19.65 29.9 17.2 28.4 15.35 27.35 13.15 28.05 11.35 28.6 9.75 30.35 9.7 30.45 8.25 32.65 6.8 34.85 6.7 35.2 6.6 35.65 6.6 37.2 6.6 38.8 6.75 39.35 6.9 40.1 7.9 41.6 8.75 42.85 9.1 43.15 6.6984375 36.983984375 13.7 33.95
M 42.75 28.25
Q 44.15 29.95 45.25 31.3 45.35 31.4 47.15 29.95 47.894921875 34.9162109375 46.4 38.4 47.4494140625 38.5640625 48.5 38.8 48.55 38.75 48.65 38.75 49.45 37.7 50.35 33.8 51.25 29.9 51 28.55 50.95 28.4 50.45 28.05 49.9 27.65 49.6 27.6 47.5 30 47.25 30 47.35 29.05 46.05 26.65 43.55 22.55 39.2 23.05 39.95 24.85 42.75 28.25 Z"/>
</g>

<g id="smithhammer_0_Layer1_0_FILL">
<path fill="#000000" stroke="none" d="
M 54 -0.95
Q 52.0525390625 -1.83359375 40.5 -0.8 28.9970703125 0.227734375 27.55 0.75 26.4421875 2.9701171875 25.85 7.9 25.253125 12.8763671875 25.95 13.55 26.698046875 14.2197265625 25 14.55 23.35390625 14.887890625 0.65 13.55 -0.0576171875 17.5662109375 -1.8 24.3 -5.2041015625 37.508203125 -5.95 50.55 -6.6458984375 63.6564453125 2.35 65.35 11.344921875 67.037109375 19.95 67.75 20.95 70.95 18.55 83.3 16.15 95.65 15.5 107.55 35.15 113.9 35.75 95.85 36.35 77.8 39.4 70.05 55.75 71.18125 79.15 71.95 80.09375 68.223828125 81.7 66.95 83.365625 65.6724609375 92.05 64.35 97.5591796875 48.2923828125 97.4 23.75
L 85.5 23.6
Q 83.9830078125 19.62265625 83.75 15.25 80.4341796875 13.279296875 70.55 13.5 60.88515625 13.76640625 58.75 14.95 59.44453125 14.5033203125 62.65 10.4 66.0962890625 6.05234375 66.05 4.3 66.003515625 2.5974609375 60.95 1.25 55.9482421875 -0.055078125 54 -0.95
M 89 30.6
L 87.7 43.2 86.5 55.25 86.5 55.5 86.5 56.55 79.7 58.3 79.8 56.25 80.3 44.55 80.95 30.6 89 30.6
M 75.7 22.75
Q 77.1755859375 22.9603515625 78.65 23.15 78.7822265625 24.756640625 78.35 30.6 77.6203125 40.21484375 75.35 61.3 74.2125 61.41328125 73.05 61.5 64.4 62.3 42.7 61.7 23.1 61.15 17.95 60.5 11.903515625 59.7130859375 5.85 58.65 5.257421875 57.568359375 4.8 56.45
L 3.85 53.35
Q 3.5 51.85 3.9 46.1 4.25 41.25 4.6 38.6 6.75 24.4 7.4 22.5 9.5 21.35 12.25 21.1 14.1 20.95 44.8 21.8 74.95 22.7 75.7 22.75
M 45 5.45
Q 53.25 4.5 54.45 4.45 56.128515625 4.4560546875 57.8 4.55 57.3578125 11.1447265625 53.5 15.2 49.6380859375 19.30390625 47.85 18.75 46.65 18.4 32.45 17.5 32.65 16.35 32.75 11.6 32.8 9.2 32.8 6.95 37.1 6.35 45 5.45
M 25.45 63.85
L 32.95 64.3
Q 29.591015625 73.5486328125 29.15 81.95 29.15 82.2 28.6 90.8 27.95 100.2 27.35 104.45 22.4 107.25 19.25 103.8 19.8 102.15 22.3 89.8 23 86.55 24.1 78.25 25.5 68.05 25.45 63.85 Z"/>

<path fill="#FF9900" stroke="none" d="
M 29.15 81.95
Q 25.77578125 86.071484375 22.3 89.8 19.8 102.15 19.25 103.8 22.4 107.25 27.35 104.45 27.95 100.2 28.6 90.8 29.15 82.2 29.15 81.95
M 54.45 4.45
Q 53.25 4.5 45 5.45 37.1 6.35 32.8 6.95 32.8 9.2 32.75 11.6 32.65 16.35 32.45 17.5 43.5462890625 11.0216796875 54.45 4.45
M 86.5 56.55
L 86.5 55.5
Q 86.059375 55.555859375 85.6 55.6 82.7068359375 55.8462890625 79.8 56.25
L 79.7 58.3 86.5 56.55
M 87.7 43.2
L 89 30.6 80.95 30.6 80.3 44.55
Q 84.0484375 43.5724609375 87.75 42.6
L 87.7 43.2 Z"/>

<path fill="#FF3300" stroke="none" d="
M 32.95 64.3
L 25.45 63.85
Q 25.5 68.05 24.1 78.25 23 86.55 22.3 89.8 25.77578125 86.071484375 29.15 81.95 29.591015625 73.5486328125 32.95 64.3
M 57.8 4.55
Q 56.128515625 4.4560546875 54.45 4.45 43.5462890625 11.0216796875 32.45 17.5 46.65 18.4 47.85 18.75 49.6380859375 19.30390625 53.5 15.2 57.3578125 11.1447265625 57.8 4.55
M 87.7 43.2
L 87.75 42.6
Q 84.0484375 43.5724609375 80.3 44.55
L 79.8 56.25
Q 82.7068359375 55.8462890625 85.6 55.6 86.059375 55.555859375 86.5 55.5
L 86.5 55.25 87.7 43.2 Z"/>

<path fill="#333333" stroke="none" d="
M 5.85 58.65
Q 11.903515625 59.7130859375 17.95 60.5 15 59.9 9.85 58.3 4.95 56.75 4.8 56.45 5.257421875 57.568359375 5.85 58.65
M 78.65 23.15
Q 77.1755859375 22.9603515625 75.7 22.75 76.505859375 28.8923828125 74.2 36.15 71.65 44.4 60.85 42.9 50.65 41.45 40.25 41.15 22.03203125 40.574609375 4.6 38.6 4.25 41.25 3.9 46.1 3.5 51.85 3.85 53.35 37.8962890625 59.6462890625 72.15 59 72.55 58.95 72.85 60.15 73.1 61.05 73.05 61.5 74.2125 61.41328125 75.35 61.3 77.6203125 40.21484375 78.35 30.6 78.7822265625 24.756640625 78.65 23.15 Z"/>

<path fill="#666666" stroke="none" d="
M 3.85 53.35
L 4.8 56.45
Q 4.95 56.75 9.85 58.3 15 59.9 17.95 60.5 23.1 61.15 42.7 61.7 64.4 62.3 73.05 61.5 73.1 61.05 72.85 60.15 72.55 58.95 72.15 59 37.8962890625 59.6462890625 3.85 53.35 Z"/>

<path fill="url(#Gradient_2)" stroke="none" d="
M 60.85 42.9
Q 71.65 44.4 74.2 36.15 76.505859375 28.8923828125 75.7 22.75 74.95 22.7 44.8 21.8 14.1 20.95 12.25 21.1 9.5 21.35 7.4 22.5 6.75 24.4 4.6 38.6 22.03203125 40.574609375 40.25 41.15 50.65 41.45 60.85 42.9 Z"/>
</g>

<g id="smithhammer_0_Layer0_0_FILL">
<path fill="#FF9900" stroke="none" d="
M 52.55 31.4
Q 52.4 31.15 52.25 30.85 51.5 29.9 50.25 29.75 48.95 29.65 47.65 29.65 46.9 30.25 46.35 30.9 46 31.3 45.8 31.85 45.65 32.2 45.65 32.6 45.55 33.6 46 34.55 46.45 35.55 47.3 36 48.2 36.45 49.05 36.75 52.15 36.5 52.9 33.5 53.2 32.4 52.55 31.4
M 58.8 24.3
Q 58.25 20.9 54.75 22.15 54.1 22.7 53.7 23.3 52.7 24.75 53.4 26.25 53.85 27.3 54.9 27.65 55.35 27.8 55.8 27.8 59.3 27.65 58.8 24.3 Z"/>
</g>

<g id="smithhand_1_Layer0_0_FILL">
<path fill="#000000" stroke="none" d="
M 23.1 7.45
Q 22.5041015625 1.5498046875 22 1.7 21.6 1.75 19.8 1.3 17.9 0.85 17.5 0.75 12.5 1.45 8.35 4.55 6.6935546875 5.813671875 5.3 7.2
L 2.9 6.75
Q -1.2544921875 7.9970703125 -6.25 15.65 -11.187109375 23.3640625 -3.45 29.25 4.3380859375 35.126953125 9.9 30.85 15.46015625 26.6240234375 16.55 24.15 19.2013671875 23.18359375 21.45 18.25 23.742578125 13.3556640625 23.1 7.45
M 7.45 12.95
Q 8.8 13.45 9.7 14.5 10.843359375 15.833984375 11.1 17.55 11.277734375 18.5373046875 11.15 19.65 10.9 21.7 9.65 22.8 8.25 24 6 23.9 4.2796875 23.9 3 23.3 2.046875 22.8443359375 1.35 22 1.272265625 21.9427734375 1.2 21.85 0.25 20.6 0.25 18.8 0.25 17.1 1.05 15.6 2.3 13.25 4.75 12.7 6.05 12.4 7.45 12.95
M 17.5 13.25
Q 17.0876953125 13.887890625 16.1 15.25 14.55 17.35 13.85 18.25 14.0595703125 14.90234375 12.3 12.65 11.1888671875 11.22421875 9.2 10.25 15.375 7.089453125 21.15 3.55 21.1 4.05 17.5 13.25 Z"/>

<path fill="#CCCCCC" stroke="none" d="
M 16 11.55
Q 15.2 10.4 15.3 10.3 13.8681640625 11.52421875 12.3 12.65 14.0595703125 14.90234375 13.85 18.25 14.55 17.35 16.1 15.25 17.0876953125 13.887890625 17.5 13.25 16.85 12.75 16 11.55
M 6 23.9
Q 8.25 24 9.65 22.8 10.9 21.7 11.15 19.65 11.277734375 18.5373046875 11.1 17.55 8.85 17.15 6.75 17.7 2.6 18.8 3 23.3 4.2796875 23.9 6 23.9 Z"/>

<path fill="#666666" stroke="none" d="
M 15.3 10.3
Q 15.2 10.4 16 11.55 16.85 12.75 17.5 13.25 21.1 4.05 21.15 3.55 15.375 7.089453125 9.2 10.25 11.1888671875 11.22421875 12.3 12.65 13.8681640625 11.52421875 15.3 10.3
M 9.7 14.5
Q 8.8 13.45 7.45 12.95 6.05 12.4 4.75 12.7 2.3 13.25 1.05 15.6 0.25 17.1 0.25 18.8 0.25 20.6 1.2 21.85 1.272265625 21.9427734375 1.35 22 2.046875 22.8443359375 3 23.3 2.6 18.8 6.75 17.7 8.85 17.15 11.1 17.55 10.843359375 15.833984375 9.7 14.5 Z"/>
</g>

<g id="smithhead_2_Layer0_0_FILL">
<path fill="#000000" stroke="none" d="
M 82.3 73.2
Q 83.6 60.7 82.6 48.45 79.05 4.9 32.55 5.05 11.8509765625 8.701953125 2.5 20.2 -6.8533203125 31.7435546875 -4.2 46.95 -3 53.6 4.8 72.2 12.3 89.95 12.8 89.55 16.3923828125 86.7748046875 20.3 84.45 34.22890625 95.9482421875 54.45 90.65 68.34609375 87.005078125 69 80.1 81.068359375 85.47265625 82.3 73.2
M 57.1 20.75
Q 48.25 19.75 44.4 20 41.5203125 20.1943359375 38.55 20.7 34.85 21.6 26.7 24.9 19.6 27.75 18.1 28.6 12.5259765625 31.862890625 8.3 36.2
L 12.6 37.2
Q 29.387109375 40.747265625 45.05 37.65 53.4572265625 35.9990234375 61.5 32.45 63.0185546875 31.79609375 64.5 31.05
L 64.5 31.05 70.5 27.85
Q 71.066015625 28.71484375 71.6 29.65 78.1734375 41.1892578125 77.35 77.2 45.15 59.2 15.9 81.85 9.3908203125 62.8482421875 6.7 52.8 4.01953125 42.7947265625 6.1 33.85 8.1734375 24.90625 26.55 16.55 42.3953125 12.62578125 53.7 15.35 62.1595703125 17.425 67.95 24.4 62.7498046875 21.893359375 57.1 20.75
M 66.4 27.05
Q 66.47109375 27.0703125 66.55 27.1 41.9 38.35 14.7 35.05
L 14.55 34.9
Q 19.57265625 31.07890625 25.15 28.45 31.22421875 25.65234375 37.95 24.25 48.88359375 22.5623046875 59.15 24.85 59.2 24.9 66.4 27.05
M 31 84.9
Q 26.97890625 84.3021484375 22.95 82.95 24.6615234375 75.841796875 43.75 73.15 62.8384765625 70.508203125 64 77.5 62.15 78.6 56.45 81.05 51.35 83.2 50.4 83.5 41.7875 87.3349609375 31 84.9 Z"/>

<path fill="#333333" stroke="none" d="
M 22.95 82.95
Q 26.97890625 84.3021484375 31 84.9 41.7875 87.3349609375 50.4 83.5 51.35 83.2 56.45 81.05 62.15 78.6 64 77.5 62.8384765625 70.508203125 43.75 73.15 24.6615234375 75.841796875 22.95 82.95 Z"/>

<path fill="#FF3300" stroke="none" d="
M 52.7 26.9
Q 45.6 29.2 42.55 29.8 33.5853515625 31.5431640625 25.15 28.45 19.57265625 31.07890625 14.55 34.9
L 14.7 35.05
Q 41.9 38.35 66.55 27.1 66.47109375 27.0703125 66.4 27.05 59.2 24.9 59.15 24.85 59 24.85 52.7 26.9 Z"/>

<path fill="#FF9900" stroke="none" d="
M 42.55 29.8
Q 45.6 29.2 52.7 26.9 59 24.85 59.15 24.85 48.88359375 22.5623046875 37.95 24.25 31.22421875 25.65234375 25.15 28.45 33.5853515625 31.5431640625 42.55 29.8 Z"/>

<path fill="#CCCCCC" stroke="none" d="
M 26.7 24.9
Q 34.85 21.6 38.55 20.7 41.5203125 20.1943359375 44.4 20 40.9435546875 19.942578125 37.5 20 24.13125 21.45234375 18.1 28.6 19.6 27.75 26.7 24.9 Z"/>

<path fill="url(#Gradient_3)" stroke="none" d="
M 12.6 37.2
Q 12.75 37.25 13.1 42.3 13.55 48.15 14.25 50.75 17.5 62.45 22.45 73.45 37.4955078125 65.81953125 52.9 66.5 52.45 61.7 48.95 49.95 45.4 38.7 45.05 37.65 29.387109375 40.747265625 12.6 37.2 Z"/>

<path fill="#FFFFFF" stroke="none" d="
M 61.5 32.45
Q 53.4572265625 35.9990234375 45.05 37.65 45.4 38.7 48.95 49.95 52.45 61.7 52.9 66.5 60.2345703125 66.854296875 67.65 69.05 67.875 50.0056640625 61.5 32.45 Z"/>

<path fill="url(#Gradient_4)" stroke="none" d="
M 64.5 31.05
Q 63.0185546875 31.79609375 61.5 32.45 67.875 50.0056640625 67.65 69.05 69.97109375 69.7697265625 72.3 70.65 74.1083984375 48.86875 64.5 31.05 Z"/>

<path fill="url(#Gradient_5)" stroke="none" d="
M 44.4 20
Q 48.25 19.75 57.1 20.75 62.7498046875 21.893359375 67.95 24.4 62.1595703125 17.425 53.7 15.35 42.3953125 12.62578125 26.55 16.55 8.1734375 24.90625 6.1 33.85 4.01953125 42.7947265625 6.7 52.8 9.3908203125 62.8482421875 15.9 81.85 45.15 59.2 77.35 77.2 78.1734375 41.1892578125 71.6 29.65 71.066015625 28.71484375 70.5 27.85
L 64.5 31.05 64.5 31.05
Q 74.1083984375 48.86875 72.3 70.65 69.97109375 69.7697265625 67.65 69.05 60.2345703125 66.854296875 52.9 66.5 37.4955078125 65.81953125 22.45 73.45 17.5 62.45 14.25 50.75 13.55 48.15 13.1 42.3 12.75 37.25 12.6 37.2
L 8.3 36.2
Q 12.5259765625 31.862890625 18.1 28.6 24.13125 21.45234375 37.5 20 40.9435546875 19.942578125 44.4 20 Z"/>
</g>
</defs>

<g transform="matrix( 0.825531005859375, 0, 0, 0.825531005859375, 453.45,330.95) ">
<g transform="matrix( 1, 0, 0, 1, 169.35,18.4) ">
<g transform="matrix( -0.3236541748046875, 0.00067138671875, -0.00067138671875, -0.3236541748046875, -43.1,189.2) ">
<g transform="matrix( 1, 0, 0, 1, 0,0) ">
<use xlink:href="#smith_anvil_0_Layer0_0_FILL"/>
</g>
</g>

<g transform="matrix( 0.0483245849609375, -0.1558837890625, 0.1558837890625, 0.0483245849609375, -85,187.3) ">
<g transform="matrix( 1, 0, 0, 1, 0,0) ">
<use xlink:href="#smithbody_1_Layer0_0_FILL"/>
</g>
</g>

<g transform="matrix( -0.1617431640625, 0.0544281005859375, -0.0544281005859375, -0.1617431640625, -29.75,188.3) ">
<g transform="matrix( 1, 0, 0, 1, 0,0) ">
<use xlink:href="#smithhammer_0_Layer1_0_FILL"/>
</g>

<g transform="matrix( 1, 0, 0, 1, 0,0) ">
<use xlink:href="#smithhammer_0_Layer0_0_FILL"/>
</g>
</g>

<g transform="matrix( 0.127471923828125, 0.101837158203125, 0.101837158203125, -0.127471923828125, -86.15,181.85) ">
<g transform="matrix( 1, 0, 0, 1, 0,0) ">
<use xlink:href="#smithhand_1_Layer0_0_FILL"/>
</g>
</g>

<g transform="matrix( 0.04095458984375, -0.1579742431640625, 0.1579742431640625, 0.04095458984375, -99.05,188.25) ">
<g transform="matrix( 1, 0, 0, 1, 0,0) ">
<use xlink:href="#smithhead_2_Layer0_0_FILL"/>
</g>
</g>
</g>
</g>
</svg>
