
<svg xmlns="http://www.w3.org/2000/svg" version="1.1" xmlns:xlink="http://www.w3.org/1999/xlink" preserveAspectRatio="none" x="0px" y="0px" width="1000px" height="1000px" viewBox="0 0 1000 1000">
<defs>
<g id="Necro_Skeleton_Head_1_Layer0_0_FILL">
<path fill="#000000" stroke="none" d="
M 28.55 -2.7
Q 21.75 -4.25 14.9 -2.7 5.6 -0.7 0.05 7.15 -2.5 10.7 -2.5 15.05 -2.45 18.6 0.3 25.7 2.6 31.7 3.55 32.9 4.15 32.5 6.3 30.35 8.3 28.35 8.55 28 9.2 28.75 11.7 31.2 14.15 33.6 14.8 34.1
L 21.6 27.95
Q 22.6 29.1 26.15 31.25 29.4 33.2 30.25 33.45
L 36.15 26.25 43.1 30.05 43.85 29.85
Q 45.2 28.2 46.85 23 48.45 18 48.3 16.55 47.65 10.7 43.6 6.2 37.5 -0.45 28.55 -2.7
M 40.5 12.5
Q 43.6 19.05 41.45 26
L 33.5 21.45 28.7 27.9
Q 25.3 26.15 21.55 25.55 17.5 25.1 14.8 28.2
L 13.7 28.65
Q 13.55 28.5 11.35 25.45 9.5 22.9 8.9 22.65
L 4.05 26.95
Q 3.7 24 3.45 21.1 2.7 13.15 8.1 7.25 8.9 6.85 9.75 6.4 17.1 2.4 25.5 3.9 30.7 4.65 35.4 7.1 38.75 8.9 40.5 12.5
M 20.8 19.45
Q 23.5 16.7 23 12.7 22.6 9.45 19.85 7.9 13.5 4.4 8.05 9.1 7.7 10.1 7.45 11.2 6.05 17.35 11.2 20.75 16.5 23.8 20.8 19.45
M 14.9 7.9
Q 17.2 7.9 18.8 9.55 20.45 11.25 20.45 13.65 20.45 16.05 18.8 17.7 17.2 19.4 14.9 19.4 12.6 19.4 10.95 17.7 9.35 16.05 9.35 13.65 9.35 11.25 10.95 9.55 12.6 7.9 14.9 7.9
M 34.3 10.2
Q 33.4 10.35 32.6 10.65 30.1 11.6 28.35 13.45 27.9 17.8 32 18.95 35.85 19.95 36.95 16.2 38.1 12.2 34.3 10.2
M 34.95 14.25
Q 35.5 16.25 33.65 16.9 31.45 17.6 30.2 15.65
L 32.2 11.6
Q 34.4 12.1 34.95 14.25 Z"/>

<path fill="#9999FF" stroke="none" d="
M 7.45 11.2
Q 7.7 10.1 8.05 9.1
L 8.1 7.25
Q 2.7 13.15 3.45 21.1 3.7 24 4.05 26.95
L 8.9 22.65
Q 9.5 22.9 11.35 25.45 13.55 28.5 13.7 28.65
L 14.8 28.2 11.2 20.75
Q 6.05 17.35 7.45 11.2 Z"/>

<path fill="#333333" stroke="none" d="
M 18.8 9.55
Q 17.2 7.9 14.9 7.9 12.6 7.9 10.95 9.55 9.35 11.25 9.35 13.65 9.35 16.05 10.95 17.7 12.6 19.4 14.9 19.4 17.2 19.4 18.8 17.7 20.45 16.05 20.45 13.65 20.45 11.25 18.8 9.55
M 33.65 16.9
Q 35.5 16.25 34.95 14.25 34.4 12.1 32.2 11.6
L 30.2 15.65
Q 31.45 17.6 33.65 16.9 Z"/>

<path fill="#FFFFFF" stroke="none" d="
M 41.45 26
Q 43.6 19.05 40.5 12.5 38.75 8.9 35.4 7.1 30.7 4.65 25.5 3.9 17.1 2.4 9.75 6.4 8.9 6.85 8.1 7.25
L 8.05 9.1
Q 13.5 4.4 19.85 7.9 22.6 9.45 23 12.7 23.5 16.7 20.8 19.45 16.5 23.8 11.2 20.75
L 14.8 28.2
Q 17.5 25.1 21.55 25.55 25.3 26.15 28.7 27.9
L 33.5 21.45 41.45 26
M 32.6 10.65
Q 33.4 10.35 34.3 10.2 38.1 12.2 36.95 16.2 35.85 19.95 32 18.95 27.9 17.8 28.35 13.45 30.1 11.6 32.6 10.65 Z"/>
</g>
</defs>

<g transform="matrix( 1.0281829833984375, 0, 0, 1.0281829833984375, 472.95,387.15) ">
<g transform="matrix( 0.99993896484375, -0.009063720703125, 0.009063720703125, 0.99993896484375, 16.35,77.75) ">
<g transform="matrix( 1, 0, 0, 1, 0,0) ">
<use xlink:href="#Necro_Skeleton_Head_1_Layer0_0_FILL"/>
</g>
</g>
</g>
</svg>
