
<svg xmlns="http://www.w3.org/2000/svg" version="1.1" xmlns:xlink="http://www.w3.org/1999/xlink" preserveAspectRatio="none" x="0px" y="0px" width="1000px" height="1000px" viewBox="0 0 1000 1000">
<defs>
<g id="Necro_Skeleton_Jaw_0_Layer0_0_FILL">
<path fill="#000000" stroke="none" d="
M 33.15 3.05
Q 31.6 1.6 30.7 1.5
L 25.55 5.55
Q 25 4.9 22.95 3.25 20.75 1.45 19.8 0.95
L 15.2 4.05
Q 14.35 3.45 12.55 2.35 10.7 1.2 10.3 1.05 9.8 0.9 8.1 1.8 6.25 2.75 5.7 3.6 5.05 2.8 3.65 1.85 1.75 0.6 0.8 1.1 -1.05 5.55 -1.9 12.1 -1.46640625 12.738671875 1 13.5 3.4705078125 14.2572265625 4.65 14.6 5.868359375 14.9498046875 13.35 16.25 20.881640625 17.5916015625 27.5 17.15 34.116796875 16.7611328125 44.7 12.15 43.25 11.3 38.2 2.55
L 34.8 5
Q 34.55 4.4 33.15 3.05
M 31.15 3.75
Q 32 4.85 33.2 6 34.75 7.5 35.3 7.45
L 38.2 5.55 39.8 8.7
Q 39 9.1 35.8 9.9 32.25 10.75 30.95 10.7 27.9994140625 10.6861328125 21.7 10.75 15.3951171875 10.862890625 9.4 10.25 4.758203125 9.985546875 3.75 9.1 2.74375 8.2607421875 2.5 6.05 2.251953125 3.8962890625 2.3 2.8 2.85 4.25 4.25 4.9 5 5.15 7.25 4.2 9.55 3.2 10.05 2.4 10.4 2.8 12.7 4.5 15 6.25 15.3 6.3 15.35 6.35 17.85 5 20.4 3.7 20.65 3.95 21.05 4.35 23.2 6.05 25.3 7.65 25.75 7.95
L 31.15 3.75 Z"/>

<path fill="#9999FF" stroke="none" d="
M 10.05 2.4
Q 9.55 3.2 7.25 4.2 5 5.15 4.25 4.9 2.85 4.25 2.3 2.8 2.251953125 3.8962890625 2.5 6.05 2.74375 8.2607421875 3.75 9.1 4.758203125 9.985546875 9.4 10.25
L 10.05 2.4 Z"/>

<path fill="#FFFFFF" stroke="none" d="
M 33.2 6
Q 32 4.85 31.15 3.75
L 25.75 7.95
Q 25.3 7.65 23.2 6.05 21.05 4.35 20.65 3.95 20.4 3.7 17.85 5 15.35 6.35 15.3 6.3 15 6.25 12.7 4.5 10.4 2.8 10.05 2.4
L 9.4 10.25
Q 15.3951171875 10.862890625 21.7 10.75 27.9994140625 10.6861328125 30.95 10.7 32.25 10.75 35.8 9.9 39 9.1 39.8 8.7
L 38.2 5.55 35.3 7.45
Q 34.75 7.5 33.2 6 Z"/>
</g>
</defs>

<g transform="matrix( 1.0281829833984375, 0, 0, 1.0281829833984375, 472.95,387.15) ">
<g transform="matrix( 0.9998626708984375, 0.0144805908203125, -0.0144805908203125, 0.9998626708984375, 20,90.1) ">
<g transform="matrix( 1, 0, 0, 1, 0,0) ">
<use xlink:href="#Necro_Skeleton_Jaw_0_Layer0_0_FILL"/>
</g>
</g>
</g>
</svg>
