
<svg xmlns="http://www.w3.org/2000/svg" version="1.1" xmlns:xlink="http://www.w3.org/1999/xlink" preserveAspectRatio="none" x="0px" y="0px" width="300px" height="300px" viewBox="0 0 300 300">
<defs>
<g id="triten_wJavalin_Character_29_Layer1_0_FILL">
<path fill="#000000" stroke="none" d="
M 50.3 -6.3
Q 48.15 -4.95 47 -0.35 44.25 10.8 43.4 22.25 43.25 24.5 42.5 25.45 41.7 26.4 39.65 27.1 30.4 30 19.75 32.3 16.3 32.95 14.7 33.45 12.05 34.25 10.2 35.65 8.05 37.25 7.25 39.8 6.3 42.45 7.55 44.55 8.3 45.95 10 46.95 11.1 47.6 13.25 48.45
L 31.9 55.9
Q 33.85 56.75 34.8 57.25 36.25 58.2 37.05 59.25 38.25 60.95 38.35 64.4 38.4 65.7 37.65 81.35 37.15 91.6 39.25 97.9 40.2 100.85 42.05 102.7 44.15 104.95 46.65 104.6 47.2 104.5 47.8 104.3 48.95 104.8 50.2 104.6 51.95 104.35 53.55 102.7 53.75 102.45 54 102.2 54.2 102.45 54.45 102.7 56.5 104.95 59.05 104.6 60.8 104.35 62.35 102.7 62.6 102.45 62.9 102.15
L 63.15 102.95
Q 64 105.5 64.35 107.1 62.4 107.1 61.15 108.1 60.05 109.15 59 111.4 58.2 113.55 58.35 115.05 58.65 117.35 60.85 119.7 60.8 120.15 60.9 120.55 61.35 123.05 65.85 125 66 125.05 66.1 125.1 66.45 125.35 66.8 125.55 68.35 126.5 71.7 127.6 73.35 128.05 74.6 128.4 77.8 129.6 80.75 130.4 78 132.55 76.45 134.2 75.25 135.3 75.25 136.25 75.1 137.3 76.15 138.3 77.15 139.3 78.65 139.8 79.15 140 79.95 140.25 82.5 147.15 83.95 154.3 84.4 156.9 84.4 158.5 84.25 160.85 82.95 162.35 81.95 163.6 80.45 164 79.6 164.2 77.65 164.2 74.25 164.25 70.15 164.9 67.75 165.25 62.85 166.2 60.55 166.65 60.15 167.4 59.4 168.4 60.4 170 61.4 171.55 63.65 172.8 65.05 173.65 67.9 174.75 73.2 177 76.05 177.9 80.7 179.5 84.65 179.9 86.3 180.1 86.9 180.5 87.5 180.95 87.95 182.05 89.45 185.25 91.9 188.2 92.7 189.1 93.75 189.55 94.65 190 95.35 189.8 96.3 191.05 97.85 191.75 99.8 192.6 101.9 192.45 104.25 192.35 105.55 191.05 106.15 190.5 106.55 189.75 107.4 190 108.1 189.6 108.75 189.3 108.95 188.1 109.2 186.4 109.25 183.6 109.25 181.5 109.25 180.45 109.35 178.6 109.9 177.4 110.4 176.4 111.4 175.5 113.35 175.15 115.55 174.1 115.6 174.05 115.65 174.05 116.2 174.95 117.5 175.25 118.65 175.55 120.05 175.5 122.1 175.2 124.4 174.1 125.7 173.4 128.15 171.75 132.65 168.75 134.45 166.95 135.45 165.95 137.2 163.7 138.85 161.6 139.95 160.5 143.35 156.85 148.4 155.6 151.05 154.95 156.3 154.85
L 177.7 154.85
Q 180.95 154.85 181.5 153.55 182.05 152.35 180.25 150.7 177.95 148.6 172.5 145.15 165.75 141.05 162.1 139.2 156.05 136.2 150.75 135.15 145.95 134.45 143.6 133.8 140.9 133.05 135.65 130.3
L 134.8 129.8
Q 135.05 127.25 134.65 123.95 134.5 122.55 134.25 121.25 134.85 120.9 135.4 120.6 143.25 116.15 148.95 111.8 154.25 107.85 153.3 104.2 152.8 102.15 150 100.35 146.1 97.95 145.4 97.2 143.5 95.2 142.6 90.2 141.45 83.15 141 77.1 140.95 76.15 140.75 75.45 142.05 71.4 141.85 67 141.75 64.15 140.25 63 139.7 62.5 138.9 62.4
L 132.8 41.5
Q 131.65 37.75 130.75 35.8 129.25 32.75 127.2 31 124.9 29.2 121.3 28.6 118.65 28.2 114.75 28.4 114.6 28.45 114.5 28.45 115.1 27.3 115.3 26.15 115.6 24.35 114.95 23 113.7 20.4 108.8 19.3 103 18.15 95.8 18.7 92.9 18.45 89.75 18.55 86.5 18.45 82.85 18.75 82.1 18.8 81.3 18.9 78.9 8.8 74 -0.05 71.75 -4.2 69.55 -5.75 68 -6.85 66.1 -7.05 64.15 -7.25 62.65 -6.3 62 -5.9 61.45 -5.15 61.05 -5.5 60.7 -5.75 59.15 -6.85 57.25 -7.05 56 -7.2 54.95 -6.8 54.35 -7 53.75 -7.05 51.75 -7.25 50.3 -6.3 Z"/>
</g>

<g id="triten_wJavalin_Arm_0_Layer0_0_FILL">
<path fill="#000000" stroke="none" d="
M 23.4 3.45
Q 22.55 3.15 20.9 2.8 19.1 2.4 18.35 2.2 15.55 1.2 14.1 0.85 12 0.3 8.35 0.1 4.1 -0.2 1.9 0.55 0.95 0.9 0.45 1.45 -0.25 2.25 0.1 3.05 0.25 3.45 0.75 3.7 0.9 4.4 2.1 5.05 4.65 6.5 10 9 14.6 11.4 17.15 13.9 18.1 14.85 18.7 15.1 18.8 15.15 18.9 15.2 19.35 15.95 20.25 16.65 23.35 19.35 26.45 19.1 27.75 18.95 29.15 18.3 31.15 17.4 31.85 16.05 32.4 14.9 32.25 13.5 32.05 10.1 29 7.05 27.45 5.5 25.65 4.5 24.9 4 23.4 3.45
M 22.05 7
Q 26.05 8.3 28.35 11.8 29.3 13.25 29.05 14.3 28.65 15.35 27.55 15.7 26.7 16 25.45 15.9 23.75 15.8 22.9 15.3 21.65 14.6 21.05 12.9 21.05 12.85 21 12.75
L 21 12.8
Q 20.95 12.6 20.9 12.35 20.7 11.7 20.5 10.5 20.45 10.3 20.4 10.15 20.35 10 20.35 9.9 20.1 9.05 19.75 8.95 19.25 8.75 18.85 9.25 18.6 9.65 18.5 10.3 18.4 10.85 18.35 11.35 12.8 7.5 6.35 4.65 5.45 4.25 4.65 4 10.35 3.8 13.75 4.65 13.95 4.7 14.15 4.75 14.8 4.95 15.8 5.25 16.8 5.55 18.1 6 18.45 6.1 20.1 6.45 21.3 6.75 22.05 7 Z"/>

<path fill="#2F7078" stroke="none" d="
M 20.5 10.5
Q 20.7 11.7 20.9 12.35 20.95 12.6 21 12.8
L 21 12.75
Q 21 10.65 20.35 9.3 19.65 7.8 17.65 6.35 17.05 5.9 16.45 5.5 16.1 5.35 15.8 5.25 14.8 4.95 14.15 4.75 13.95 4.7 13.75 4.65 10.35 3.8 4.65 4 5.45 4.25 6.35 4.65 12.8 7.5 18.35 11.35 18.4 10.85 18.5 10.3 18.6 9.65 18.85 9.25 19.25 8.75 19.75 8.95 20.1 9.05 20.35 9.9 20.35 10 20.4 10.15 20.45 10.3 20.5 10.5 Z"/>

<path fill="#9ECFD5" stroke="none" d="
M 28.35 11.8
Q 26.05 8.3 22.05 7 21.3 6.75 20.1 6.45 18.45 6.1 18.1 6 16.8 5.55 15.8 5.25 16.1 5.35 16.45 5.5 17.05 5.9 17.65 6.35 19.65 7.8 20.35 9.3 21 10.65 21 12.75 21.05 12.85 21.05 12.9 21.65 14.6 22.9 15.3 23.75 15.8 25.45 15.9 26.7 16 27.55 15.7 28.65 15.35 29.05 14.3 29.3 13.25 28.35 11.8 Z"/>
</g>

<g id="triten_wJavalin_Body_1_Layer2_0_FILL">
<path fill="#000000" stroke="none" d="
M 35.45 13.45
Q 34.55 11.45 33.6 10.2 31.9 7.95 28.1 5.9 23.65 3.5 19 2.8 13.95 2.05 9.55 3.4 9.75 2.75 9.05 2.3 8.35 1.9 7.7 2.2 6.75 2.55 6.05 4.4 2.3 13.1 -3 21.3 -4.55 23.6 -5.8 24.9 -7.6 26.7 -9.55 27.25 -11.2 27.75 -12.55 27.25 -13.3 26.95 -14.7 25.9 -17.1 24.1 -20.4 22.35 -22.3 21.35 -26.45 19.45 -28.4 18.6 -29.3 19 -30.55 19.4 -30.95 21.2 -31.4 23 -30.8 25.25 -30.4 26.75 -29.3 29.15 -27.15 33.85 -25.85 36.15 -23.75 39.95 -21.3 42.4 -20.25 43.45 -20.15 44.1 -20.05 44.75 -20.55 45.95 -21.9 49.35 -22.3 53.05 -22.45 54.25 -22.05 55.2 -21.65 56.25 -20.7 56.3 -20.05 56.35 -19 55.5 -17.55 54.25 -15.5 52.05 -13.95 50.3 -13.15 49.45 -11.75 48 -10.45 47.35 -8.25 46.25 -4.9 46.5 -4.55 46.5 0.85 47.3 9.3 48.45 17.65 45.45 26 42.45 31.75 36.1 36.75 30.7 37.55 24.85 38.2 19.65 35.45 13.45
M 31.65 16.35
Q 31.728125 16.522265625 31.8 16.7 32.5296875 18.3421875 32.9 19.7 33.096484375 20.3375 33.2 20.9 34.15 25.65 31 30.55 28.9 34 24 37.7 21.7 39.45 19.6 40.55 15.181640625 42.83359375 9.25 43.35 9.2388671875 43.3466796875 9.2 43.35 4.65 43.75 -1.7 43.15 -4.65 42.9 -5.8 42.9 -8.05 42.9 -9.75 43.55 -11.9 44.4 -14.85 47.55 -17.00234375 49.7408203125 -18.8 51.7 -19.3412109375 52.321875 -19.85 52.9 -19 48.9 -17.15 45.3 -16.4443359375 44.0810546875 -16.3 43.15 -16.1783203125 42.630078125 -16.25 42.2 -16.4 41.3 -17.85 39.85 -22.5982421875 35.1671875 -25.35 29.3 -26.8029296875 26.248828125 -27.7 22.85
L -21.3 25.5
Q -18.8 26.5 -17.7 27.2 -15.05 29.25 -13.55 29.9 -11.45 30.8 -9 30.35 -6.7 29.95 -4.7 28.5 -1.8 26.4 1.25 21.45 3.6 17.8 4.8 15.15 5.54375 13.51953125 5.95 12.6 6.3001953125 11.9568359375 6.45 11.7 7.5 9.8 8.85 8.9 10.15 8.1 11.8 7.8 16.35 6.9 23.8 9.4 28 10.75 29.6 12.65 30.65 13.85 31.65 16.35 Z"/>

<path fill="#00CCFF" stroke="none" d="
M -16.3 43.15
Q -16.4443359375 44.0810546875 -17.15 45.3 -19 48.9 -19.85 52.9 -19.3412109375 52.321875 -18.8 51.7 -16.6470703125 48.072265625 -14.15 44.4 -15.1341796875 43.8982421875 -16.3 43.15
M 4.8 15.15
Q 3.6 17.8 1.25 21.45 -1.8 26.4 -4.7 28.5 -6.7 29.95 -9 30.35 -11.45 30.8 -13.55 29.9 -15.05 29.25 -17.7 27.2 -18.8 26.5 -21.3 25.5
L -27.7 22.85
Q -26.8029296875 26.248828125 -25.35 29.3 -23.20703125 30.5521484375 -23 30.7 -18.9 34.2 -16.8 35.85 -13.1 38.85 -9.9 39.2 -8.7 39.35 -7.1 39.2 -5.2 39 -4.3 38.9 -1.5 38.55 -0.65 38.25 1 37.7 2.65 36.15 3.75 35.1 5.4 33.1
L 12.1 25.05
Q 7.9 21.8 6.45 15.55 6.1673828125 14.366796875 5.95 12.6 5.54375 13.51953125 4.8 15.15
M 33.2 20.9
Q 33.096484375 20.3375 32.9 19.7 32.2099609375 20.6658203125 31.15 21.95 28.95 24.55 28.95 26.5 29 26.95 29.1 27.85 29.2 28.7 29.05 29.2 28.7 30.4 26.6 31.65 17.4365234375 37.0197265625 9.25 43.35 15.181640625 42.83359375 19.6 40.55 21.7 39.45 24 37.7 28.9 34 31 30.55 34.15 25.65 33.2 20.9
M 25.05 14.5
Q 25.2 14.3 25.1 13.9
L 25.05 13.55 24.9 13.2 24.85 12.8 24.75 12.8 24.65 13.75
Q 24.65 14.25 25.05 14.5 Z"/>

<path fill="#0099FF" stroke="none" d="
M 31.8 16.7
Q 31.728125 16.522265625 31.65 16.35 30.65 13.85 29.6 12.65 28 10.75 23.8 9.4 16.35 6.9 11.8 7.8 10.15 8.1 8.85 8.9 7.5 9.8 6.45 11.7 6.3001953125 11.9568359375 5.95 12.6 6.1673828125 14.366796875 6.45 15.55 7.9 21.8 12.1 25.05
L 5.4 33.1
Q 3.75 35.1 2.65 36.15 1 37.7 -0.65 38.25 -1.5 38.55 -4.3 38.9 -5.2 39 -7.1 39.2 -8.7 39.35 -9.9 39.2 -13.1 38.85 -16.8 35.85 -18.9 34.2 -23 30.7 -23.20703125 30.5521484375 -25.35 29.3 -22.5982421875 35.1671875 -17.85 39.85 -16.4 41.3 -16.25 42.2 -16.1783203125 42.630078125 -16.3 43.15 -15.1341796875 43.8982421875 -14.15 44.4 -16.6470703125 48.072265625 -18.8 51.7 -17.00234375 49.7408203125 -14.85 47.55 -11.9 44.4 -9.75 43.55 -8.05 42.9 -5.8 42.9 -4.65 42.9 -1.7 43.15 4.65 43.75 9.2 43.35 9.2388671875 43.3466796875 9.25 43.35 17.4365234375 37.0197265625 26.6 31.65 28.7 30.4 29.05 29.2 29.2 28.7 29.1 27.85 29 26.95 28.95 26.5 28.95 24.55 31.15 21.95 32.2099609375 20.6658203125 32.9 19.7 32.5296875 18.3421875 31.8 16.7
M 25.1 13.9
Q 25.2 14.3 25.05 14.5 24.65 14.25 24.65 13.75
L 24.75 12.8 24.85 12.8 24.9 13.2 25.05 13.55 25.1 13.9 Z"/>
</g>

<g id="triten_wJavalin_Body_1_Layer1_0_FILL">
<path fill="#000000" stroke="none" d="
M 54.2 44.65
Q 52.15 38.95 49.2 35.2 46.35 32.05 45.2 30.25 43.85 28.2 42.2 23.1
L 36.25 4.3
Q 35.3 1.25 33.65 0.85 31.7 0.4 29.55 3.4 25.95 9 24.15 11.75 22.1 14.85 18.45 20
L 10.2 31.55
Q 8.2986328125 34.2314453125 6.8 36.2 6.5642578125 36.234375 6.3 36.35 5.45 36.65 5.2 37.4 5.0603515625 37.8392578125 5.1 38.4 4.5642578125 39.0619140625 4.1 39.6 1.2 43.05 -2 45.6 -3.7 46.75 -3.95 47.75 -4.2 48.75 -3.55 49.75 -2.95 50.6 -1.95 51.25 -0.3 52.2 2.1 52.5 3.5 52.7 6.45 52.7 11.8 52.7 14.4 52.2 15.8 51.9 18.7 51.05 21.45 50.2 22.95 49.9 28.05 48.85 32.55 50.55 35.2 51.55 39.7 55.05
L 53.55 65.75
Q 55.8 67.55 57.2 66.8 58.4 66.15 58.4 63.8 58.35 60.9 57.05 55.1 55.4 48.1 54.2 44.65
M 40.85 30
Q 42 32.55 43.4 34.35 44.45 35.7 46.8 38.15 49.9 41.95 51.8 49.4 54.5 60.05 55.1 61.65 54.2537109375 61.0740234375 53.45 60.5 47.4357421875 56.373828125 43.95 53.55 39.55 49.85 37.3 48.55 31.8 45.25 25.2 45.65 24.6638671875 45.6994140625 24.1 45.75
L 21.9 42.7
Q 19.4 39.2 18.5 37.3 17.5 35 17.1 32.3
L 16.75 29.15
Q 16.723046875 28.926953125 16.65 28.7 21.351171875 22.3513671875 26.15 15.6 28.45 12.4 29.35 10.6 29.85 9.7 30.8 7.75 31.7 6.15 32.85 5.5
L 34.05 9.4 38.1 22.25
Q 39.55 27.05 40.85 30
M 11.95 35.15
Q 12.8662109375 33.9173828125 13.75 32.65 14.1888671875 35.8931640625 16.05 39.25 16.6693359375 40.3509765625 17.6 41.65 19.0904296875 43.7130859375 21.35 46.25 19.24453125 46.75078125 16.95 47.55 16.610546875 47.6630859375 16.3 47.75 16.080859375 47.5427734375 15.75 47.3 14.9 46.75 13.5 45.45 12.6251953125 44.6546875 11.9 43.95 10.9265625 42.9802734375 10.3 42.2 10.278125 42.184765625 10.25 42.15 9.1908203125 40.7927734375 8.65 39.45 9.23125 38.7638671875 9.8 38.05
L 11.95 35.15
M 6.75 48.8
L 2.8 48.75
Q 1.15 48.75 0.5 48.1 3.57421875 45.2818359375 6.5 41.95 8.147265625 44.6958984375 10.55 46.75 10.717578125 46.891796875 10.95 47.1 11.6908203125 47.6599609375 13.1 48.7 12.9689453125 48.7283203125 12.85 48.75 11.85 48.85 9.85 48.85
L 6.75 48.8 Z"/>

<path fill="#9ECFD5" stroke="none" d="
M 7.7 48.4
Q 7.201171875 48.6046875 6.75 48.8
L 9.85 48.85
Q 11.85 48.85 12.85 48.75 12.9689453125 48.7283203125 13.1 48.7 11.6908203125 47.6599609375 10.95 47.1
L 10.95 47.1
Q 8.8 48 7.7 48.4
M 40.7 47.45
Q 41.6 48.15 42.7 49.35 43.35 50.05 44.6 51.4 46.3 53.2 49.95 56.6 52.0515625 58.6681640625 53.45 60.5 54.2537109375 61.0740234375 55.1 61.65 54.5 60.05 51.8 49.4 49.9 41.95 46.8 38.15 44.45 35.7 43.4 34.35 42 32.55 40.85 30 39.55 27.05 38.1 22.25
L 34.05 9.4 34.15 9.75
Q 33.797265625 12.2400390625 33.5 13.9 32.45 19.45 31.1 23.75 28.55 32 23.8 39.2 28 40.5 35.55 44.3 39 46.05 40.7 47.45 Z"/>

<path fill="#2F7078" stroke="none" d="
M 2.8 48.75
L 6.75 48.8
Q 7.201171875 48.6046875 7.7 48.4 8.8 48 10.95 47.1
L 10.95 47.1
Q 10.717578125 46.891796875 10.55 46.75 8.147265625 44.6958984375 6.5 41.95 3.57421875 45.2818359375 0.5 48.1 1.15 48.75 2.8 48.75
M 42.7 49.35
Q 41.6 48.15 40.7 47.45 39 46.05 35.55 44.3 28 40.5 23.8 39.2 28.55 32 31.1 23.75 32.45 19.45 33.5 13.9 33.797265625 12.2400390625 34.15 9.75
L 34.05 9.4 32.85 5.5
Q 31.7 6.15 30.8 7.75 29.85 9.7 29.35 10.6 28.45 12.4 26.15 15.6 21.351171875 22.3513671875 16.65 28.7 16.723046875 28.926953125 16.75 29.15
L 17.1 32.3
Q 17.5 35 18.5 37.3 19.4 39.2 21.9 42.7
L 24.1 45.75
Q 24.6638671875 45.6994140625 25.2 45.65 31.8 45.25 37.3 48.55 39.55 49.85 43.95 53.55 47.4357421875 56.373828125 53.45 60.5 52.0515625 58.6681640625 49.95 56.6 46.3 53.2 44.6 51.4 43.35 50.05 42.7 49.35 Z"/>

<path fill="#FF9999" stroke="none" d="
M 17.6 41.65
Q 17.25859375 41.9296875 16.8 42.3 15.85 43 14.9 43.45 14.2794921875 43.7912109375 12.65 44.65 12.271484375 44.2953125 11.9 43.95 12.6251953125 44.6546875 13.5 45.45 14.9 46.75 15.75 47.3 16.080859375 47.5427734375 16.3 47.75 16.610546875 47.6630859375 16.95 47.55 19.24453125 46.75078125 21.35 46.25 19.0904296875 43.7130859375 17.6 41.65 Z"/>

<path fill="#8E4A4A" stroke="none" d="
M 13.75 32.65
Q 12.8662109375 33.9173828125 11.95 35.15
L 9.8 38.05
Q 9.23125 38.7638671875 8.65 39.45 9.1908203125 40.7927734375 10.25 42.15 10.278125 42.184765625 10.3 42.2 10.9265625 42.9802734375 11.9 43.95 12.271484375 44.2953125 12.65 44.65 14.2794921875 43.7912109375 14.9 43.45 15.85 43 16.8 42.3 17.25859375 41.9296875 17.6 41.65 16.6693359375 40.3509765625 16.05 39.25 14.1888671875 35.8931640625 13.75 32.65 Z"/>
</g>

<g id="triten_wJavalin_Body_1_Layer0_0_FILL">
<path fill="#000000" stroke="none" d="
M 52.9 -0.6
Q 51.75 -2.25 47.85 -2.15 36.55 -1.8 14.2 0 9.45 0.3 6.6 0.85 4.95 1.15 4.25 1.85 3.35 2.65 3.35 4.05 3.35 5.35 4 6.55 4.3 7.3 5 8.25
L 7.3 11.9
Q 9.3 15 10.55 16.35 11.3 17.15 13 18.55 16.55 21.55 18.5 22.9 21.75 25.1 24.75 26 28.6 27.2 32.75 26.55 36.85 25.9 40.2 23.6 43.05 21.55 46.2 17.4 51.45 10.35 53.15 3.5 53.85 0.7 52.9 -0.6
M 41.3 6
Q 41.665234375 5.2544921875 41.9 4.5 42.2705078125 3.3228515625 42.3 2.1 42.0017578125 2.1408203125 41.65 2.15 46.622265625 1.8830078125 49.2 1.95 48.80546875 3.5873046875 48.25 5.15 46.0953125 11.502734375 41.6 16.6 39.5 19 37.2 20.55 35.3 21.8 33.65 22.15 32.4 22.45 30.5 22.45 27 22.55 24.7 21.8 23.25 21.3 20.9 19.95 17.1 17.8 15.4 16.6 13.130859375 15.023046875 11.55 13.3 11.10390625 12.8193359375 10.7 12.3 9.7 10.95 9.1 10.3 7.75 8.8 7.5 8.45 6.775390625 7.2271484375 6.7 5.35 6.7 5.15234375 6.7 4.95 7.624609375 4.84296875 8.55 4.75
L 8.6 4.7
Q 9.5296875 4.626953125 10.45 4.55
L 16.4 4
Q 16.6650390625 3.9693359375 16.9 3.95 17.006640625 4.43203125 17.35 5.05 18.7056640625 7.563671875 20 9.15 20.9927734375 10.3755859375 21.95 11.05 24.35 12.65 28.25 12.85 34.1 13 38.05 10 40.15 8.4 41.3 6
M 36.2 2.5
Q 37.9890625 2.3728515625 39.55 2.25 39.413671875 2.289453125 39.25 2.3 38.5880859375 5.5119140625 36.95 7.15 35.4 8.75 32.8 9.45 30.85 9.95 27.85 10.05 25.15 10.15 23.75 9.45 22.828515625 9.00625 22 8.05 21.6150390625 7.60546875 21.25 7.05 20.1 4.9 19.5 3.85 19.4720703125 3.79765625 19.45 3.75 22.2158203125 3.5361328125 25.15 3.35
L 36.2 2.5 Z"/>

<path fill="#8E4A4A" stroke="none" d="
M 39.55 2.25
Q 37.9890625 2.3728515625 36.2 2.5
L 25.15 3.35
Q 22.2158203125 3.5361328125 19.45 3.75 19.4720703125 3.79765625 19.5 3.85 20.1 4.9 21.25 7.05 21.6150390625 7.60546875 22 8.05 22.828515625 9.00625 23.75 9.45 25.15 10.15 27.85 10.05 30.85 9.95 32.8 9.45 35.4 8.75 36.95 7.15 38.5880859375 5.5119140625 39.25 2.3 39.413671875 2.289453125 39.55 2.25
M 18.3 10
Q 19.1912109375 9.5615234375 20 9.15 18.7056640625 7.563671875 17.35 5.05 17.006640625 4.43203125 16.9 3.95 16.6650390625 3.9693359375 16.4 4
L 10.45 4.55
Q 9.5296875 4.626953125 8.6 4.7
L 8.55 4.75
Q 8.4568359375 4.80546875 8.35 4.85 7.434375 5.1115234375 6.7 5.35 6.775390625 7.2271484375 7.5 8.45 7.75 8.8 9.1 10.3 9.7 10.95 10.7 12.3 11.10390625 12.8193359375 11.55 13.3 12.34609375 12.896875 13 12.55 14.75 11.65 18.3 10
M 42.3 2.1
Q 42.2705078125 3.3228515625 41.9 4.5 44.39921875 4.9669921875 48.15 5.15 48.209375 5.1529296875 48.25 5.15 48.80546875 3.5873046875 49.2 1.95 46.622265625 1.8830078125 41.65 2.15 42.0017578125 2.1408203125 42.3 2.1 Z"/>

<path fill="#FF9999" stroke="none" d="
M 6.7 4.95
Q 6.7 5.15234375 6.7 5.35 7.434375 5.1115234375 8.35 4.85 8.4568359375 4.80546875 8.55 4.75 7.624609375 4.84296875 6.7 4.95
M 41.9 4.5
Q 41.665234375 5.2544921875 41.3 6 40.15 8.4 38.05 10 34.1 13 28.25 12.85 24.35 12.65 21.95 11.05 20.9927734375 10.3755859375 20 9.15 19.1912109375 9.5615234375 18.3 10 14.75 11.65 13 12.55 12.34609375 12.896875 11.55 13.3 13.130859375 15.023046875 15.4 16.6 17.1 17.8 20.9 19.95 23.25 21.3 24.7 21.8 27 22.55 30.5 22.45 32.4 22.45 33.65 22.15 35.3 21.8 37.2 20.55 39.5 19 41.6 16.6 46.0953125 11.502734375 48.25 5.15 48.209375 5.1529296875 48.15 5.15 44.39921875 4.9669921875 41.9 4.5 Z"/>
</g>

<g id="triten_wJavalin_Head_1_Layer1_0_FILL">
<path fill="#333333" stroke="none" d="
M 40.45 47.8
Q 34.25 45.45 28.35 46.75 21.8 48.2 18.35 53.35 16.1 56.65 15.5 61.5 15.05 64.95 15.35 70.35 16 80.85 18.95 86.55 20.85 90.2 23.85 93 26.9 95.85 30.6 97.45 37.65 100.5 45.55 99 46.4755859375 98.8390625 47.15 98.55
L 48.5 97.65
Q 48.7673828125 97.62265625 49 97.55 50 97.3 50.95 96.4 51.45 95.95 52.55 94.7 54.275390625 92.5765625 55.45 91.05 56.1318359375 90.191796875 56.6 89.5 56.8556640625 89.419921875 57 89.3 57.00078125 89.26015625 56.95 89.2 56.9697265625 89.1703125 56.95 89.15
L 56.95 89.15
Q 59.3703125 89.6380859375 61.65 89.5 63.2658203125 89.77578125 64 89.15 65.0412109375 88.8478515625 65.55 88.3 66.15 87.55 65.8 86.5 65.553125 85.8830078125 65.1 85.55 65.21171875 85.3427734375 65.3 85.1 66 83.15 66.1 79.45
L 66.15 76.4
Q 66.35 71.8 66 69.05 65.85 67.95 65.35 65.25 64.85 62.8 64.75 61.4 64.6 59.6 64.45 58.7 64.2 57.25 63.55 56.3 61.95 56.65 60.5 59.7
L 58.85 63.45
Q 58.4 64.55 57.8 64.7 57.362109375 64.8458984375 56.85 64.5 56.689453125 64.633984375 56.45 64.65 55.85 64.35 55.65 63.4 55.55 62.25 55.45 61.7 55.25 60.5 53.55 58.35 49.65 53.7 47.1 51.6 44.05 49.15 40.45 47.8 Z"/>

<path fill="#000000" stroke="none" d="
M 62.65 48.75
Q 61.95 47.5 61.7 47.15 60.4 45.2 57.05 43.3 51.45 40.2 43.95 38.65 38.4 37.55 29.95 37 23.85 36.6 20.55 37.2 15.2 38.25 12.25 41.4 11.75 41.95 10.05 44.35
L 7.25 48.6
Q 5.6 51.25 6.7 52.45 7.15 52.95 8.1 53.1 9.6 53.4 9.7 53.45 10.5 53.7 11.9 54.65 12.4361328125 54.9912109375 13.05 55 12.3138671875 57.016015625 11.9 59.35 10.95 64.25 11.6 72 12.25 80.35 14.15 85.45 16.65 91.9 22.1 96.6 27.55 101.25 34.3 102.75 38 103.55 42.15 103.45 46.45 103.25 49.05 101.9 49.441015625 101.7044921875 49.8 101.45 49.966015625 101.55390625 50.15 101.6 51.1 101.8 51.85 100.75 52.1 100.4 52.65 98.9 52.9 98.25 54.05 96 54.95 94.2 55.1 93 55.1 92.1 55.25 91.7 55.280078125 91.519140625 55.45 91.05 54.275390625 92.5765625 52.55 94.7 51.45 95.95 50.95 96.4 50 97.3 49 97.55 48.7673828125 97.62265625 48.5 97.65
L 47.15 98.55
Q 46.4755859375 98.8390625 45.55 99 37.65 100.5 30.6 97.45 26.9 95.85 23.85 93 20.85 90.2 18.95 86.55 16 80.85 15.35 70.35 15.05 64.95 15.5 61.5 16.1 56.65 18.35 53.35 21.8 48.2 28.35 46.75 34.25 45.45 40.45 47.8 44.05 49.15 47.1 51.6 49.65 53.7 53.55 58.35 55.25 60.5 55.45 61.7 55.55 62.25 55.65 63.4 55.85 64.35 56.45 64.65 56.689453125 64.633984375 56.85 64.5 57.362109375 64.8458984375 57.8 64.7 58.4 64.55 58.85 63.45
L 60.5 59.7
Q 61.95 56.65 63.55 56.3 64.2 57.25 64.45 58.7 64.6 59.6 64.75 61.4 64.85 62.8 65.35 65.25 65.85 67.95 66 69.05 66.35 71.8 66.15 76.4
L 66.1 79.45
Q 66 83.15 65.3 85.1 65.21171875 85.3427734375 65.1 85.55 65.553125 85.8830078125 65.8 86.5 66.15 87.55 65.55 88.3 65.0412109375 88.8478515625 64 89.15 63.2658203125 89.77578125 61.65 89.5 59.3703125 89.6380859375 56.95 89.15
L 56.95 89.15
Q 56.9697265625 89.1703125 56.95 89.2 57.00078125 89.26015625 57 89.3 57.1228515625 89.523046875 57.25 89.75 58.4 91.6 60.6 92.35 62.85 93.1 64.75 92.2 66.55 91.35 68.3 88.6 69.5 86.7 69.95 85.1 70.2 84 70.3 81.7 70.7 73.55 70.3 69.5 70.2 68.1 69.8 65.55
L 69.3 61.85
Q 68.85 58.15 68.1 55.5 67.45 53.5 66.45 52.7 66.0146484375 52.363671875 65.45 52.15 65.197265625 51.747265625 64.7 51.25 64.05 50.65 63.7 50.3 63.25 49.75 62.65 48.75
M 40.85 42.15
Q 44.45 42.75 46.95 43.45 52.3 44.95 57.05 47.9 58.25 48.65 58.85 49.35 59.05 49.65 59.6 50.5 60 51.25 60.35 51.6 60.683203125 51.933203125 61.35 52.3 60.7923828125 52.5712890625 60.3 52.95 58.85 54.05 57.95 57.2
L 57.35 59
Q 57.1263671875 58.178515625 56.7 57.3 55.75 55.25 52.9 52.1 49.85 48.8 47.65 47.1 43.2 43.75 37.35 42.8 34.78984375 42.36953125 32.25 42.45 29.18515625 42.55234375 26.15 43.4 20.8 44.9 17.5 48.15 15.494921875 50.062890625 14.15 52.6 13.794921875 51.99140625 13.15 51.65 12.8 51.45 11.55 51.05 10.5 50.65 9.95 50.25 10.55 49.5 12.1 46.8 13.4 44.6 14.55 43.6 16.5 41.9 20.95 41.2 26.3671875 40.46875 33.35 41.1 36.91015625 41.4626953125 40.85 42.15 Z"/>

<path fill="#8E4A4A" stroke="none" d="
M 14.55 43.6
Q 13.4 44.6 12.1 46.8 10.55 49.5 9.95 50.25 10.5 50.65 11.55 51.05 12.8 51.45 13.15 51.65 13.794921875 51.99140625 14.15 52.6 15.494921875 50.062890625 17.5 48.15 20.8 44.9 26.15 43.4 29.18515625 42.55234375 32.25 42.45 32.6294921875 41.9119140625 33.35 41.1 26.3671875 40.46875 20.95 41.2 16.5 41.9 14.55 43.6 Z"/>

<path fill="#FF9999" stroke="none" d="
M 46.95 43.45
Q 44.45 42.75 40.85 42.15 36.91015625 41.4626953125 33.35 41.1 32.6294921875 41.9119140625 32.25 42.45 34.78984375 42.36953125 37.35 42.8 43.2 43.75 47.65 47.1 49.85 48.8 52.9 52.1 55.75 55.25 56.7 57.3 57.1263671875 58.178515625 57.35 59
L 57.95 57.2
Q 58.85 54.05 60.3 52.95 60.7923828125 52.5712890625 61.35 52.3 60.683203125 51.933203125 60.35 51.6 60 51.25 59.6 50.5 59.05 49.65 58.85 49.35 58.25 48.65 57.05 47.9 52.3 44.95 46.95 43.45 Z"/>
</g>

<g id="triten_wJavalin_Head_1_Layer0_0_FILL">
<path fill="#000000" stroke="none" d="
M 19.15 -0.7
Q 17.4 -5.05 15.4 -6.85 14 -8.1 12.2 -8.5 10.25 -8.95 8.7 -8.2 6.45 -7.1 4.8 -2.7 0.75 7.95 -1.4 19.1 -1.8 21.3 -2.65 22.15 -3.5 23 -5.65 23.4 -15.05 25.25 -25.85 26.2 -29.25 26.45 -30.9 26.75 -33.65 27.25 -35.6 28.4 -37.9 29.7 -39 32.1 -40.2 34.6 -39.25 36.85 -38.65 38.3 -37.1 39.5 -36.1 40.25 -34.1 41.35
L -16.6 50.85
Q -14.8 51.9 -13.95 52.5 -12.6 53.55 -11.95 54.75 -11 56.55 -11.3 59.9 -11.4 61.25 -13.95 76.55 -15.6 86.55 -14.3 93 -13.7 96 -12.1 98.1 -10.25 100.5 -7.75 100.45 -6 100.4 -4.3 99 -3.15 98.05 -1.65 96.1
L 5.55 86.8 8.6 100.75
Q 9.3 104.1 9.35 105.9 9.45 108.8 8.3 110.75 8.2 110.95 5.8 114.15 4.3 116.15 4.4 117.75 4.55 120.35 8.7 122.7 21.35 129.95 30.15 132.4 35.85 134 39.9 133.7 42.3 133.55 45.3 132.7 46.95 132.2 50.5 130.9 60.7 127.05 65.45 125.05 73.7 121.6 79.8 118 85.5 114.75 85 111 84.75 108.95 82.15 106.85 78.6 104.05 78 103.25 76.4 101.05 76.1 96 75.8 88.9 76.05 83 76.096875 82.017578125 76 81.25 77.7603515625 77.4962890625 78.05 73.15 78.3 70.3 76.95 69 76.4640625 68.4955078125 75.7 68.25
L 72.1 47.05
Q 71.4 43.15 70.75 41.15 69.65 37.95 67.8 36.05 65.75 34 62.3 33 59.75 32.25 55.9 32 55.7626953125 31.9908203125 55.6 31.95 56.36328125 30.972265625 56.7 29.85 57.2 28.15 56.7 26.7 55.85 24 51.05 22.35 45.35 20.5 37.8 20.25 33.3 20.05 24.25 20.5 23.2 9.35 19.15 -0.7
M 10.05 -4.3
Q 12.52421875 -4.533984375 14.4 -1.8 15.321484375 -0.437109375 16.1 1.65 19.3 10.7 21.55 20.65 22 22.65 22.45 23.65 23.1 25.25 24.2 26.1 25 25.6 24.9 24.65 29.3 24.9 38.15 24.45 46 24.35 50.9 26.3 53 27.15 53.1 28.4 53.15 29.55 51.8 30.6 51.230859375 31.095703125 50.2 31.75 43.645703125 31.69296875 36.35 32.35 28 33.1 16.9 35.1 12.1 35.9 9.25 36.95 5.2 38.5 2.95 41.15 0.3916015625 44.269140625 -0.2 49.55 -0.4197265625 51.803125 -0.3 54.45 -0.2939453125 54.6259765625 -0.3 54.8 -0.136328125 58.241015625 0.55 62.8 1.3322265625 67.79609375 2.75 74.1
L 4.45 81.95 -5.7 94.5
Q -7.05 96.05 -8.05 95.95 -8.9146484375 95.821875 -9.5 94.85 -9.784375 94.3408203125 -10 93.55 -11.6732421875 87.4615234375 -10.15 77.7 -10.0337890625 76.9609375 -9.9 76.2 -7.35 61.95 -7.3 58.55 -7.2 53.35 -9.3 50.75 -9.7888671875 50.1548828125 -10.7 49.45 -11.9376953125 48.563671875 -13.95 47.5
L -32.2 38.2
Q -36.25 36.05 -35.7 33.7 -35.508984375 32.808984375 -34.65 32.2 -33.4892578125 31.3666015625 -31.1 31.05
L -5.65 27.95
Q -3.5 27.7 -2.35 27.35 -0.6 26.8 0.35 25.75 0.9607421875 25.1033203125 1.4 24.15 1.5830078125 23.85390625 1.7 23.5 1.7314453125 23.448828125 1.75 23.4 2.05 22.5 2.4 20.7 5.55 5.25 10.05 -4.3
M 59.95 47.95
Q 57.8 44.95 56 44.4 55.15 44.2 53.45 44.35 52.4 44.55 51.9 44.9 51.2 45.45 50.85 46.7 50.15 49.2 49.9 54.3
L 49.2 72.25
Q 49.15 73.15 49.2 73.9 45.9 73.05 41.1 73.25 32 73.6 31.45 73.55 28.65 73.45 27.7 73.95 26.6 74.55 26.15 75.85 25.7 77.1 25.95 78.45 26.4 80.55 28.6 82.95 31.85 86.8 36.3 89.9 38.45 91.45 39 92 40.45 93.3 40.8 94.75 41.2 96.05 40.85 97.7 40.65 98.6 39.95 100.55 38.15 105.35 38.15 108.05 38.2 111.65 40.4 113.2 42.1 114.3 44.6 113.7 45.9 113.4 48.45 111.95 51.55 110.25 53.15 109.15 55.6 107.45 57.05 105.5 58.1 104 58.7 103.25 59.7 102.05 60.8 101.75
L 63.7 103.55
Q 65.75 104.65 66.75 104.8 68.3 105 69.7 104.05 71.05 103.2 71.8 101.75 72.569140625 100.33984375 72.75 98.2 72.9626953125 98.462890625 73.15 98.6 73.487109375 101.434375 74.1 103.3 74.9744140625 105.9234375 76.35 107.75 78.0904296875 110.001953125 80.6 111.05 74.05703125 115.981640625 64.7 120.1 64.476171875 120.2015625 64.25 120.3 61.553515625 121.475390625 57.55 122.95 52.91484375 124.73984375 46.5 126.95 44.256640625 127.72734375 42.5 128.2 40.36171875 128.7666015625 39 128.85 36.018359375 129.0853515625 32.15 128.15 31.119921875 127.89453125 30 127.55 28.7150390625 127.1673828125 27.45 126.75 17.681640625 123.4173828125 9.4 117.35 13.95 113.2 14.3 105.45 14.4 102.5 13.8 98.9 13.45 96.65 12.45 92.45
L 8.6 75.8
Q 8.30703125 74.543359375 8.05 73.4 6.9271484375 68.498046875 6.4 65.7 5.35 60.05 5 55.45 4.4 47.2 8.05 43.9 9.4 42.75 11.55 42 12.4826171875 41.7001953125 13.9 41.35 14.6486328125 41.2169921875 15.5 41.05 17.9626953125 40.580859375 20.25 40.15 29.790625 38.4740234375 36.75 37.75 48.4 36.55 58.15 37.25 62.65 37.55 64.65 39.25 65.9 40.35 66.65 42.25 67.1 43.55 67.55 45.85
L 72.1 68.2
Q 70.0634765625 68.5865234375 69.2 69.45
L 68.25 65.3
Q 67.95 63.9 67.65 63.2 66.85 61.6 66.55 60.85 66.1 59.95 65.6 58.5 65.1 56.95 64.85 56.1 63.7 53.2 59.95 47.95
M 55.25 48
Q 55.55 48.15 56.05 48.75
L 57.5 50.6
Q 59.2 52.85 59.9 54.05 61 55.85 62.45 59.75
L 63.8 63.15
Q 65 66.6 65.25 67.75
L 66.25 71.95
Q 66.25 72.55 66.1 73.8 66 74.9 66.7 75.4 67.55 76.05 68.45 75.4 68.487890625 75.3755859375 68.5 75.35 69.1689453125 74.8904296875 69.5 73.85 69.7 73.1 69.65 72.1 69.95 72.15 70.35 72.05 71.6216796875 71.874609375 73.95 71.4 74.070703125 71.4697265625 74.15 71.5 74.416796875 71.5671875 74.65 71.5 74.8890625 75.4328125 73.5 78.85 73.1814453125 78.9419921875 72.9 79.2 72.278125 79.7740234375 72.35 81.2 72.1083984375 81.6125 71.85 82 71.25 83 70 85 68.95 87.35 69.3 91.75 69.75 96.95 69.5 98.7 69.25 100.25 68.4 100.8 67.05 101.95 64.85 100.5 63.8 99.7 63.35 99.3 62.4 98.7 61.65 98.45 60.15 98 58.4 98.85 57 99.6 55.8 101.05 55.05 102 53.75 103.85 52.62578125 105.3490234375 51.55 106.15 51.4685546875 106.20234375 51.4 106.25 50.55 106.9 48.75 107.65 46.95 108.5 46.15 109 44.9 109.85 44.6 110 44.2912109375 110.1716796875 44 110.25 43.442578125 110.3970703125 42.95 110.2 42.15 109.95 41.85 109.05 41.55 108.3 41.65 107.3 41.75 105.55 43.35 101.45 44.75 97.75 44.6 95.65 44.25 90.9 37.8 86.15 34.2 83.4 33.05 82.35 30.65 80 29.7 77.5
L 36.35 77.1 39.9 76.85 49.4 76.3
Q 49.41640625 76.394140625 49.4 76.45 49.5896484375 77.2693359375 49.85 77.85 49.950390625 78.0728515625 50.05 78.25 50.2 78.65 50.55 78.6 50.75 78.6 50.9 78.1 50.98203125 77.7599609375 51.05 77.4 51.98125 73.3982421875 52.35 69.25
L 52.75 63.35
Q 53.15 56.7 53.65 51.35 53.95 48.95 54.2 48.1 54.455859375 47.8673828125 54.7 47.8 54.9826171875 47.7861328125 55.25 48 Z"/>

<path fill="#8E4A4A" stroke="none" d="
M 49.4 76.45
Q 49.41640625 76.394140625 49.4 76.3
L 39.9 76.85
Q 43.930859375 78.1603515625 48.2 78.05 49.1357421875 78.05 49.85 77.85 49.5896484375 77.2693359375 49.4 76.45
M 69.65 72.1
Q 69.7 73.1 69.5 73.85 69.1689453125 74.8904296875 68.5 75.35 68.6994140625 75.499609375 68.9 75.65 70.5 76.65 72.15 75.9 74 74.9 74.35 72.35 74.3939453125 71.99765625 74.4 71.55 74.2943359375 71.5369140625 74.15 71.5 74.070703125 71.4697265625 73.95 71.4 71.6216796875 71.874609375 70.35 72.05 69.95 72.15 69.65 72.1
M 33.05 82.35
Q 34.2 83.4 37.8 86.15 44.25 90.9 44.6 95.65 44.75 97.75 43.35 101.45 41.75 105.55 41.65 107.3 41.55 108.3 41.85 109.05 42.15 109.95 42.95 110.2 43.442578125 110.3970703125 44 110.25 44.2912109375 110.1716796875 44.6 110 44.9 109.85 46.15 109 46.95 108.5 48.75 107.65 50.55 106.9 51.4 106.25 51.4685546875 106.20234375 51.55 106.15 51.49453125 106.1009765625 51.45 106.05 49.8 104.6 49.15 103.8 48.85 103.45 47.95 102.05 47.5236328125 101.380078125 47.1 100.9 47.7552734375 98.82109375 47.95 97.75 48.25 95.9 47.85 94.45 47.2 91.95 44.9 90.65 43.75 90.15 43.2 89.85 42.3 89.35 41.9 88.7 41.65 88.25 41.45 86.9 41.25 85.7 40.8 85.2 40.35 84.7 39.25 84.45 37.95 84.15 37.55 83.9 36.65 83.4 35.85 81.2 35.05 79.1 34 78.65 35.05 78.35 35.9 77.6 36.14296875 77.35703125 36.35 77.1
L 29.7 77.5
Q 30.65 80 33.05 82.35
M 54.7 47.8
Q 54.455859375 47.8673828125 54.2 48.1 53.95 48.95 53.65 51.35 53.15 56.7 52.75 63.35
L 52.35 69.25
Q 51.98125 73.3982421875 51.05 77.4 51.3625 77.2375 51.6 77 52.15 76.35 52.45 75.1 52.85 73.45 53.05 73 53.35 72.45 54 71.7 54.85 70.75 55.05 70.45 56.35 68.7 57 65.1 57.9 60.6 57.55 58.35 57.25 56.55 56.35 55.2 55.3 53.7 53.75 53.1 54.94453125 50.6224609375 54.7 47.8
M 63.05 92.6
L 62.8 92.6
Q 62.1 92.5 61.55 93.15 60.65 94.15 60.95 95.45 61.3 96.8 62.55 97.1 63.3 97.25 64.1 97 64.75 96.8 65.15 96.4 65.85 95.8 65.85 94.75 65.75 93.75 65 93.15 64.5 92.75 63.15 92.45 63.25 92.6 63.05 92.6
M 56.35 73.3
Q 56.2 73.5 55.95 73.5 55.15 73.7 54.6 74.45 54.1 75.15 54.05 76 54.05 76.8 54.35 77.3 54.75 77.85 55.55 78.1 56.15 78.35 56.65 78.3 57.1 78.25 57.55 77.8 58.2 77.15 58.3 76.2 58.4 75.25 57.85 74.55 57.45 73.9 56.35 73.3
M -24.95 36.25
Q -26.55 35.3 -29.7 35.3 -31.25 35.3 -32.5 35.5 -33.2 35.5 -33.4 35.3 -33.55 35.2 -33.65 34.75 -34.0869140625 33.0693359375 -34.65 32.2 -35.508984375 32.808984375 -35.7 33.7 -36.25 36.05 -32.2 38.2
L -13.95 47.5
Q -11.9376953125 48.563671875 -10.7 49.45 -10.520703125 46.3662109375 -11.5 44.45 -11.85 43.8 -13 42.3 -14.6 40.45 -15.45 40.05 -16.5 39.65 -18.25 39.65 -20.6 39.7 -23.1 40.35 -22.75 39.2 -23.3 38 -23.85 36.85 -24.95 36.25
M 2.75 74.1
Q 1.3322265625 67.79609375 0.55 62.8 -0.136328125 58.241015625 -0.3 54.8 -0.2939453125 54.6259765625 -0.3 54.45 -0.4197265625 51.803125 -0.2 49.55 -1.72890625 51.8001953125 -2.5 56.2 -2.85 58.35 -3.35 62.7 -3.9 66.55 -4.7 69.05 -5.25 71 -5 71.7 -4.75 72.4 -4 72.65 -3.25 72.85 -2.9 72.35 -2.55 72.45 -2.5 72.9 -2.45 73.25 -2.7 73.55 -2.9 73.8 -3.9 74.35 -5.5 75.35 -5.8 77.9 -5.9 78.75 -5.8 79.95 -5.8 80.65 -5.7 82.05 -5.7 83.85 -6.3 85.25 -7.05 86.9 -8.45 87.35 -9.2 85.5 -9.35 83.3 -9.4 80.9 -9.55 79.7 -9.736328125 78.5291015625 -10.15 77.7 -11.6732421875 87.4615234375 -10 93.55 -9.784375 94.3408203125 -9.5 94.85 -8.9146484375 95.821875 -8.05 95.95 -7.05 96.05 -5.7 94.5
L 4.45 81.95 2.75 74.1
M -20.5 32.65
Q -21.2 33.7 -20.9 34.8 -20.65 35.65 -19.85 36.15 -19.1 36.7 -18.25 36.6 -17.4 36.55 -16.7 35.9 -16.05 35.3 -15.9 34.45 -15.75 33.35 -16.3 32.55 -16.95 31.65 -18 31.55 -18.15 31.7 -18.55 31.7 -19.8 31.7 -20.5 32.65
M 12.85 11.8
Q 13.25 11.2 13 10.45 12.75 9.75 11.9 9.15 11.3 8.75 10.9 8.7
L 10.9 8.85
Q 9.9 8.7 9.45 9.7 9.1 10.55 9.4 11.5 9.5 11.9 9.65 12.05 9.95 12.45 10.9 12.65 11.35 12.75 11.8 12.65 12.55 12.4 12.85 11.8
M 14.4 -1.8
Q 12.52421875 -4.533984375 10.05 -4.3 5.55 5.25 2.4 20.7 2.05 22.5 1.75 23.4 1.7314453125 23.448828125 1.7 23.5 1.5830078125 23.85390625 1.4 24.15 2.660546875 24.0533203125 4.15 22.75 6.7 20.45 7.6 17.65 8.1 16.15 8.15 14.65 8.45 11.65 7.3 10.2 9.05 7.95 10.8 6.15 12.05 4.8 12.45 4.25 13.25 3.1 13.35 2 13.4 1.7 13.4 0.6 13.4 -0.25 13.6 -0.7 13.8 -1.2 14.3 -1.7 14.344140625 -1.744140625 14.4 -1.8 Z"/>

<path fill="#FF9999" stroke="none" d="
M 56.05 48.75
Q 55.55 48.15 55.25 48 54.9826171875 47.7861328125 54.7 47.8 54.94453125 50.6224609375 53.75 53.1 55.3 53.7 56.35 55.2 57.25 56.55 57.55 58.35 57.9 60.6 57 65.1 56.35 68.7 55.05 70.45 54.85 70.75 54 71.7 53.35 72.45 53.05 73 52.85 73.45 52.45 75.1 52.15 76.35 51.6 77 51.3625 77.2375 51.05 77.4 50.98203125 77.7599609375 50.9 78.1 50.75 78.6 50.55 78.6 50.2 78.65 50.05 78.25 49.950390625 78.0728515625 49.85 77.85 49.1357421875 78.05 48.2 78.05 43.930859375 78.1603515625 39.9 76.85
L 36.35 77.1
Q 36.14296875 77.35703125 35.9 77.6 35.05 78.35 34 78.65 35.05 79.1 35.85 81.2 36.65 83.4 37.55 83.9 37.95 84.15 39.25 84.45 40.35 84.7 40.8 85.2 41.25 85.7 41.45 86.9 41.65 88.25 41.9 88.7 42.3 89.35 43.2 89.85 43.75 90.15 44.9 90.65 47.2 91.95 47.85 94.45 48.25 95.9 47.95 97.75 47.7552734375 98.82109375 47.1 100.9 47.5236328125 101.380078125 47.95 102.05 48.85 103.45 49.15 103.8 49.8 104.6 51.45 106.05 51.49453125 106.1009765625 51.55 106.15 52.62578125 105.3490234375 53.75 103.85 55.05 102 55.8 101.05 57 99.6 58.4 98.85 60.15 98 61.65 98.45 62.4 98.7 63.35 99.3 63.8 99.7 64.85 100.5 67.05 101.95 68.4 100.8 69.25 100.25 69.5 98.7 69.75 96.95 69.3 91.75 68.95 87.35 70 85 71.25 83 71.85 82 72.1083984375 81.6125 72.35 81.2 72.278125 79.7740234375 72.9 79.2 73.1814453125 78.9419921875 73.5 78.85 74.8890625 75.4328125 74.65 71.5 74.416796875 71.5671875 74.15 71.5 74.2943359375 71.5369140625 74.4 71.55 74.3939453125 71.99765625 74.35 72.35 74 74.9 72.15 75.9 70.5 76.65 68.9 75.65 68.6994140625 75.499609375 68.5 75.35 68.487890625 75.3755859375 68.45 75.4 67.55 76.05 66.7 75.4 66 74.9 66.1 73.8 66.25 72.55 66.25 71.95
L 65.25 67.75
Q 65 66.6 63.8 63.15
L 62.45 59.75
Q 61 55.85 59.9 54.05 59.2 52.85 57.5 50.6
L 56.05 48.75
M 55.95 73.5
Q 56.2 73.5 56.35 73.3 57.45 73.9 57.85 74.55 58.4 75.25 58.3 76.2 58.2 77.15 57.55 77.8 57.1 78.25 56.65 78.3 56.15 78.35 55.55 78.1 54.75 77.85 54.35 77.3 54.05 76.8 54.05 76 54.1 75.15 54.6 74.45 55.15 73.7 55.95 73.5
M 62.8 92.6
L 63.05 92.6
Q 63.25 92.6 63.15 92.45 64.5 92.75 65 93.15 65.75 93.75 65.85 94.75 65.85 95.8 65.15 96.4 64.75 96.8 64.1 97 63.3 97.25 62.55 97.1 61.3 96.8 60.95 95.45 60.65 94.15 61.55 93.15 62.1 92.5 62.8 92.6
M 14.3 -1.7
Q 13.8 -1.2 13.6 -0.7 13.4 -0.25 13.4 0.6 13.4 1.7 13.35 2 13.25 3.1 12.45 4.25 12.05 4.8 10.8 6.15 9.05 7.95 7.3 10.2 8.45 11.65 8.15 14.65 8.1 16.15 7.6 17.65 6.7 20.45 4.15 22.75 2.660546875 24.0533203125 1.4 24.15 0.9607421875 25.1033203125 0.35 25.75 -0.6 26.8 -2.35 27.35 -3.5 27.7 -5.65 27.95
L -31.1 31.05
Q -33.4892578125 31.3666015625 -34.65 32.2 -34.0869140625 33.0693359375 -33.65 34.75 -33.55 35.2 -33.4 35.3 -33.2 35.5 -32.5 35.5 -31.25 35.3 -29.7 35.3 -26.55 35.3 -24.95 36.25 -23.85 36.85 -23.3 38 -22.75 39.2 -23.1 40.35 -20.6 39.7 -18.25 39.65 -16.5 39.65 -15.45 40.05 -14.6 40.45 -13 42.3 -11.85 43.8 -11.5 44.45 -10.520703125 46.3662109375 -10.7 49.45 -9.7888671875 50.1548828125 -9.3 50.75 -7.2 53.35 -7.3 58.55 -7.35 61.95 -9.9 76.2 -10.0337890625 76.9609375 -10.15 77.7 -9.736328125 78.5291015625 -9.55 79.7 -9.4 80.9 -9.35 83.3 -9.2 85.5 -8.45 87.35 -7.05 86.9 -6.3 85.25 -5.7 83.85 -5.7 82.05 -5.8 80.65 -5.8 79.95 -5.9 78.75 -5.8 77.9 -5.5 75.35 -3.9 74.35 -2.9 73.8 -2.7 73.55 -2.45 73.25 -2.5 72.9 -2.55 72.45 -2.9 72.35 -3.25 72.85 -4 72.65 -4.75 72.4 -5 71.7 -5.25 71 -4.7 69.05 -3.9 66.55 -3.35 62.7 -2.85 58.35 -2.5 56.2 -1.72890625 51.8001953125 -0.2 49.55 0.3916015625 44.269140625 2.95 41.15 5.2 38.5 9.25 36.95 12.1 35.9 16.9 35.1 28 33.1 36.35 32.35 43.645703125 31.69296875 50.2 31.75 51.230859375 31.095703125 51.8 30.6 53.15 29.55 53.1 28.4 53 27.15 50.9 26.3 46 24.35 38.15 24.45 29.3 24.9 24.9 24.65 25 25.6 24.2 26.1 23.1 25.25 22.45 23.65 22 22.65 21.55 20.65 19.3 10.7 16.1 1.65 15.321484375 -0.437109375 14.4 -1.8 14.344140625 -1.744140625 14.3 -1.7
M 13 10.45
Q 13.25 11.2 12.85 11.8 12.55 12.4 11.8 12.65 11.35 12.75 10.9 12.65 9.95 12.45 9.65 12.05 9.5 11.9 9.4 11.5 9.1 10.55 9.45 9.7 9.9 8.7 10.9 8.85
L 10.9 8.7
Q 11.3 8.75 11.9 9.15 12.75 9.75 13 10.45
M -20.9 34.8
Q -21.2 33.7 -20.5 32.65 -19.8 31.7 -18.55 31.7 -18.15 31.7 -18 31.55 -16.95 31.65 -16.3 32.55 -15.75 33.35 -15.9 34.45 -16.05 35.3 -16.7 35.9 -17.4 36.55 -18.25 36.6 -19.1 36.7 -19.85 36.15 -20.65 35.65 -20.9 34.8 Z"/>

<path fill="#2F7078" stroke="none" d="
M 57.55 122.95
Q 54.986328125 120.64921875 52.05 120.5 49.8 120.4 47.55 121.8 45.6 123 44 125.1 42.9 126.5 42.65 127.6 42.56484375 127.9025390625 42.5 128.2 44.256640625 127.72734375 46.5 126.95 52.91484375 124.73984375 57.55 122.95
M 80.6 111.05
Q 78.0904296875 110.001953125 76.35 107.75 76.023046875 107.932421875 75.65 108.15 71.65 110.55 71.4 112.95 70.15 112.65 68.85 113.25 67.6 113.75 66.8 114.85 65.55 116.4 64.8 119.65 64.73828125 119.884375 64.7 120.1 74.05703125 115.981640625 80.6 111.05
M 11.55 42
Q 9.4 42.75 8.05 43.9 4.4 47.2 5 55.45 5.35 60.05 6.4 65.7 6.9271484375 68.498046875 8.05 73.4 8.30703125 74.543359375 8.6 75.8
L 12.45 92.45
Q 13.45 96.65 13.8 98.9 14.4 102.5 14.3 105.45 13.95 113.2 9.4 117.35 17.681640625 123.4173828125 27.45 126.75 28.7150390625 127.1673828125 30 127.55 31.119921875 127.89453125 32.15 128.15 32.2349609375 128.001171875 32.3 127.85 34.6 122.55 34.65 122.45 35.75 119.35 35.6 116.6 35.45 113.35 33.55 111.3 33 110.7 31.95 109.95 30.35 108.85 30.15 108.7 27.75 106.85 26.45 104.1 28.95 101 28.6 96.4 28.25 92.25 25.9 88.35 23.65 84.7 20.35 82.65 16.6 80.4 12.95 81.15 12.45 79.95 12.65 78.35 12.8 77.3 13.4 75.5
L 15.4 69.6
Q 16 68 16.5 67.3 16.9 66.75 17.8 66.2
L 19.2 65.2
Q 21.15 63.75 21.85 61.25 22.55 58.75 21.65 56.45 20.9 54.4 20.85 54.1 20.75 53.25 21.1 52.2 21.6 50.95 21.8 50.35 23.2 46.4 21.4 42.25 20.90859375 41.116796875 20.25 40.15 17.9626953125 40.580859375 15.5 41.05 14.6486328125 41.2169921875 13.9 41.35 12.4826171875 41.7001953125 11.55 42
M 70.4 110.45
Q 70.7 109.75 70.6 108.8 70.5 108.25 70.3 107.9 70.05 107.55 69.5 107.25 68.65 106.75 67.95 106.8 67.95 107 67.65 107 66.95 106.95 66.4 107.45 65.9 107.95 65.8 108.65 65.55 110 66.75 111.1 68 112.15 69.25 111.7 70.1 111.3 70.4 110.45
M 32.5 95.15
Q 30.9 95.9 31 97.55 31 98.3 31.45 98.95 31.9 99.6 32.6 99.85 33.3 100.15 34.1 100 34.85 99.85 35.4 99.3 35.95 98.75 36.1 97.95 36.25 97.15 35.95 96.45 35.35 94.95 33.6 94.85 33.75 95 33.6 95
L 33.4 95
Q 33.05 94.95 32.5 95.15
M 17.85 72.5
Q 17.25 73 17.1 73.8 16.95 74.65 17.4 75.4 17.8 76.2 18.6 76.45 19.6 76.8 20.45 76.3 21.4 75.7 21.55 74.8 21.95 73.35 20.8 72.45 20.3 72.05 19.4 71.85 19.5 72 19.25 72 18.5 71.95 17.85 72.5
M 33.55 56.8
Q 32.5 55.5 30.8 55.05 29.05 54.65 27.7 55.45 26.95 55.95 26.3 56.9 25.8 57.75 24.95 60.15 24.4 62.25 24.45 63.15 24.45 64.9 25.5 65.95 26.45 66.9 28.25 67.1 29.25 67.2 31.25 67.2
L 32.55 67.3
Q 33.25 67.3 33.75 67.05 34.55 66.7 35.2 65.55 36.4 63 34.75 59 34.25 57.7 33.55 56.8 Z"/>

<path fill="#9ECFD5" stroke="none" d="
M 56 44.4
Q 57.8 44.95 59.95 47.95 63.7 53.2 64.85 56.1 65.1 56.95 65.6 58.5 66.1 59.95 66.55 60.85 66.85 61.6 67.65 63.2 67.95 63.9 68.25 65.3
L 69.2 69.45
Q 70.0634765625 68.5865234375 72.1 68.2
L 67.55 45.85
Q 67.1 43.55 66.65 42.25 65.9 40.35 64.65 39.25 62.65 37.55 58.15 37.25 48.4 36.55 36.75 37.75 29.790625 38.4740234375 20.25 40.15 20.90859375 41.116796875 21.4 42.25 23.2 46.4 21.8 50.35 21.6 50.95 21.1 52.2 20.75 53.25 20.85 54.1 20.9 54.4 21.65 56.45 22.55 58.75 21.85 61.25 21.15 63.75 19.2 65.2
L 17.8 66.2
Q 16.9 66.75 16.5 67.3 16 68 15.4 69.6
L 13.4 75.5
Q 12.8 77.3 12.65 78.35 12.45 79.95 12.95 81.15 16.6 80.4 20.35 82.65 23.65 84.7 25.9 88.35 28.25 92.25 28.6 96.4 28.95 101 26.45 104.1 27.75 106.85 30.15 108.7 30.35 108.85 31.95 109.95 33 110.7 33.55 111.3 35.45 113.35 35.6 116.6 35.75 119.35 34.65 122.45 34.6 122.55 32.3 127.85 32.2349609375 128.001171875 32.15 128.15 36.018359375 129.0853515625 39 128.85 40.36171875 128.7666015625 42.5 128.2 42.56484375 127.9025390625 42.65 127.6 42.9 126.5 44 125.1 45.6 123 47.55 121.8 49.8 120.4 52.05 120.5 54.986328125 120.64921875 57.55 122.95 61.553515625 121.475390625 64.25 120.3 64.476171875 120.2015625 64.7 120.1 64.73828125 119.884375 64.8 119.65 65.55 116.4 66.8 114.85 67.6 113.75 68.85 113.25 70.15 112.65 71.4 112.95 71.65 110.55 75.65 108.15 76.023046875 107.932421875 76.35 107.75 74.9744140625 105.9234375 74.1 103.3 73.487109375 101.434375 73.15 98.6 72.9626953125 98.462890625 72.75 98.2 72.569140625 100.33984375 71.8 101.75 71.05 103.2 69.7 104.05 68.3 105 66.75 104.8 65.75 104.65 63.7 103.55
L 60.8 101.75
Q 59.7 102.05 58.7 103.25 58.1 104 57.05 105.5 55.6 107.45 53.15 109.15 51.55 110.25 48.45 111.95 45.9 113.4 44.6 113.7 42.1 114.3 40.4 113.2 38.2 111.65 38.15 108.05 38.15 105.35 39.95 100.55 40.65 98.6 40.85 97.7 41.2 96.05 40.8 94.75 40.45 93.3 39 92 38.45 91.45 36.3 89.9 31.85 86.8 28.6 82.95 26.4 80.55 25.95 78.45 25.7 77.1 26.15 75.85 26.6 74.55 27.7 73.95 28.65 73.45 31.45 73.55 32 73.6 41.1 73.25 45.9 73.05 49.2 73.9 49.15 73.15 49.2 72.25
L 49.9 54.3
Q 50.15 49.2 50.85 46.7 51.2 45.45 51.9 44.9 52.4 44.55 53.45 44.35 55.15 44.2 56 44.4
M 30.8 55.05
Q 32.5 55.5 33.55 56.8 34.25 57.7 34.75 59 36.4 63 35.2 65.55 34.55 66.7 33.75 67.05 33.25 67.3 32.55 67.3
L 31.25 67.2
Q 29.25 67.2 28.25 67.1 26.45 66.9 25.5 65.95 24.45 64.9 24.45 63.15 24.4 62.25 24.95 60.15 25.8 57.75 26.3 56.9 26.95 55.95 27.7 55.45 29.05 54.65 30.8 55.05
M 17.1 73.8
Q 17.25 73 17.85 72.5 18.5 71.95 19.25 72 19.5 72 19.4 71.85 20.3 72.05 20.8 72.45 21.95 73.35 21.55 74.8 21.4 75.7 20.45 76.3 19.6 76.8 18.6 76.45 17.8 76.2 17.4 75.4 16.95 74.65 17.1 73.8
M 31 97.55
Q 30.9 95.9 32.5 95.15 33.05 94.95 33.4 95
L 33.6 95
Q 33.75 95 33.6 94.85 35.35 94.95 35.95 96.45 36.25 97.15 36.1 97.95 35.95 98.75 35.4 99.3 34.85 99.85 34.1 100 33.3 100.15 32.6 99.85 31.9 99.6 31.45 98.95 31 98.3 31 97.55
M 70.6 108.8
Q 70.7 109.75 70.4 110.45 70.1 111.3 69.25 111.7 68 112.15 66.75 111.1 65.55 110 65.8 108.65 65.9 107.95 66.4 107.45 66.95 106.95 67.65 107 67.95 107 67.95 106.8 68.65 106.75 69.5 107.25 70.05 107.55 70.3 107.9 70.5 108.25 70.6 108.8 Z"/>
</g>

<g id="triten_wJavalin_Arm_1_Layer0_0_FILL">
<path fill="#000000" stroke="none" d="
M 22.5 -0.1
Q 21.45 -0.5 19.4 -1 15.4 -1.75 10 -1.65 5.85 -1.5 3.7 -0.6 3.1 -0.4 2.8 -0.1 2.5 0.35 2.65 0.8 1.25 0.95 -0.15 1.3 0.05 2.35 2.1 2.45 9.55 2.8 13.7 4.6
L 18.85 7
Q 19.85 7.45 21 8.35
L 23.65 10.05
Q 27.6 12.8 29.05 14.3 27.8 15.1 27 16.6 26 18.55 26.4 20.45 26.7 22.45 28.35 24.1 29.75 25.5 31.85 26.35 34.55 27.45 36.85 26.9 38.55 26.35 40.7 24.6 42.55 22.9 43 21.45 43.8 18.6 41.2 14.7 40.85 14.2 40.65 13.85 40.25 11.25 37.9 8.75 36.6 7.3 33.25 5.15 29.65 2.9 27.65 1.95 25.15 0.7 22.5 -0.1
M 34.85 9.55
Q 36.7 10.85 37.3 11.7 37.65 12.25 38.05 13.15 38.2 13.55 38.25 13.75 38.2 14 38.1 14.2 37.8 15.05 38.1 15.85 38.3 16.35 38.95 17.3 39.5 18.2 39.65 18.75 39.95 20.1 39.3 21.4 38.6 22.6 37.3 23.2 37.25 23.25 37.15 23.25 34.9 24.2 32.1 22.95 30.1 21.95 29.45 20.5 29.05 19.6 29.1 18.65 29.2 17.6 29.9 17 30.25 16.6 31.2 16 31.85 16.25 32.55 16.05 33.05 15.9 33.35 15.35 33.7 14.85 33.6 14.25 33.5 13.5 32.7 12.7 29.7 9.2 23.65 6.15 22.5 5.6 21.2 5 15.1 2.2 10.8 1.25 10.565625 1.15625 10.3 1.15 11.603515625 1.15 11.85 1.15 16.5 1.35 19.9 2.15 23.55 3 27.65 5.15 30.7 6.75 34.85 9.55 Z"/>

<path fill="#9ECFD5" stroke="none" d="
M 29.1 18.65
Q 29.05 19.6 29.45 20.5 30.1 21.95 32.1 22.95 34.9 24.2 37.15 23.25 36.75 22.6 36.55 21.7
L 34.85 15.35
Q 34.45 13.85 34 13.25 33.5 12.4 32.5 11.75 28.4 8.4 23.65 6.15 29.7 9.2 32.7 12.7 33.5 13.5 33.6 14.25 33.7 14.85 33.35 15.35 33.05 15.9 32.55 16.05 31.85 16.25 31.2 16 30.25 16.6 29.9 17 29.2 17.6 29.1 18.65 Z"/>

<path fill="#2F7078" stroke="none" d="
M 37.3 11.7
Q 36.7 10.85 34.85 9.55 30.7 6.75 27.65 5.15 23.55 3 19.9 2.15 16.5 1.35 11.85 1.15 11.603515625 1.15 10.3 1.15 10.565625 1.15625 10.8 1.25 15.1 2.2 21.2 5 22.5 5.6 23.65 6.15 28.4 8.4 32.5 11.75 33.5 12.4 34 13.25 34.45 13.85 34.85 15.35
L 36.55 21.7
Q 36.75 22.6 37.15 23.25 37.25 23.25 37.3 23.2 38.6 22.6 39.3 21.4 39.95 20.1 39.65 18.75 39.5 18.2 38.95 17.3 38.3 16.35 38.1 15.85 37.8 15.05 38.1 14.2 38.2 14 38.25 13.75 38.2 13.55 38.05 13.15 37.65 12.25 37.3 11.7 Z"/>
</g>
</defs>

<g transform="matrix( 1, 0, 0, 1, 42.15,63.15) ">
<g transform="matrix( 1, 0, 0, 1, 0,0) ">
<use xlink:href="#triten_wJavalin_Character_29_Layer1_0_FILL"/>
</g>

<g transform="matrix( 1, 0, 0, 1, 5.45,-1.55) ">
<g transform="matrix( 0.77508544921875, -0.631805419921875, 0.631805419921875, 0.77508544921875, 104.2,113) ">
<g transform="matrix( 1, 0, 0, 1, 0,0) ">
<use xlink:href="#triten_wJavalin_Arm_0_Layer0_0_FILL"/>
</g>
</g>

<g transform="matrix( 0.8315277099609375, -0.555450439453125, 0.7540283203125, 0.7167816162109375, 72.1,138.5) ">
<g transform="matrix( 1, 0, 0, 1, 0,0) ">
<use xlink:href="#triten_wJavalin_Body_1_Layer2_0_FILL"/>
</g>

<g transform="matrix( 1, 0, 0, 1, 0,0) ">
<use xlink:href="#triten_wJavalin_Body_1_Layer1_0_FILL"/>
</g>

<g transform="matrix( 1, 0, 0, 1, 0,0) ">
<use xlink:href="#triten_wJavalin_Body_1_Layer0_0_FILL"/>
</g>
</g>

<g transform="matrix( 0.9930419921875, -0.117645263671875, 0.117645263671875, 0.9930419921875, 44.65,5.5) ">
<g transform="matrix( 1, 0, 0, 1, 0,0) ">
<use xlink:href="#triten_wJavalin_Head_1_Layer1_0_FILL"/>
</g>

<g transform="matrix( 1, 0, 0, 1, 0,0) ">
<use xlink:href="#triten_wJavalin_Head_1_Layer0_0_FILL"/>
</g>
</g>

<g transform="matrix( -0.7678070068359375, 0.29010009765625, -0.35345458984375, -0.9354248046875, 100.9,124.1) ">
<g transform="matrix( 1, 0, 0, 1, 0,0) ">
<use xlink:href="#triten_wJavalin_Arm_1_Layer0_0_FILL"/>
</g>
</g>
</g>
</g>
</svg>
