
<svg xmlns="http://www.w3.org/2000/svg" version="1.1" xmlns:xlink="http://www.w3.org/1999/xlink" preserveAspectRatio="none" x="0px" y="0px" width="300px" height="300px" viewBox="0 0 300 300">
<defs>
<g id="Water_Death_copy_3_Layer0_0_FILL">
<path fill="#00CCFF" stroke="none" d="
M 159.15 228.95
Q 150.9 227 139.35 227 125.9 227.35 119.2 227.45 100.35 227.2 91 227.5 74.75 228 63.55 231.7 60.65 232.7 50.7 236.95 42.8 240.3 37.65 241.4 32.25 242.6 15.7 242.9 1.9 243.1 -5.55 246.45 -8.65 247.85 -10.5 249.95 -12.75 252.45 -12.4 255.2 -11.65 260.65 -1.6 262.4 -6.9 265.05 -10.45 269.9 -12.9 273.25 -12.8 275.8 -12.6 278.95 -9.25 281.2 -6.7 282.9 -2.55 283.85 12.65 287.3 35.3 288.1 41.8603515625 288.331640625 51.8 288.6 57.495703125 291.3021484375 62.75 292.7 67.55 293.95 73.7 294.6 77.6 294.95 84.85 295.25
L 97.1 295.75
Q 103.1 295.85 105.05 295.75 107.75 295.55 113.1 294.9 115.45 294.75 120.15 294.7 124.35 294.55 127.1 293.85 130.9 292.9 134.1 290.6 135.8630859375 289.3251953125 137.3 287.75 138.5240234375 287.3896484375 139.55 286.95 142.7 285.55 144.65 283.4 146.9 281 147.15 277.65 147.45 274.2 145.25 272.05 149.35 270.55 155.25 270.35 158.65 270.25 165.55 270.4 181.9 270.4 197.7 264.55 204.85 261.85 205.5 257.55 206.1 253.7 201.3 249.4 190.85 240.2 173.95 237.9 171.95 237.55 171.4 237.4 170 237 169.2 236.3 168.6 235.8 167.95 234.7 167.05 233.25 166.8 232.95 164.65 230.2 159.15 228.95 Z"/>
</g>

<g id="triten_wJavalin_Character_25_Layer1_0_FILL">
<path fill="#000000" stroke="none" d="
M 181.8 86.1
Q 181.8 84.85 181 84.35 180.4 84 179.2 84.3 177.6 84.85 175.1 86 173.75 86.65 172.95 87.1 173 86.6 172.95 86.1 172.95 84.85 172.15 84.35 171.55 84 170.4 84.3 169.75 84.5 169.05 84.8 168.9 84.5 168.6 84.35 168 84 166.85 84.3 165.45 84.8 163.35 85.75 162.15 84.85 159.25 82.6 158.8 82.2 158.25 81.85 158.95 81.45 159.2 80.45 159.4 79.8 159.25 78.5 159 76.8 158.5 75.75 158.3 75.25 157.45 74.15 156.75 73.2 156.45 72.5 155.95 70.9 155.9 70.75 155.75 70.4 155.3 70.05
L 154.7 69.55
Q 153.75 68.7 152.3 66.55 151.25 65.3 148.55 63.95 147.1 63.1 146.35 63.05
L 144.85 63.05
Q 144.05 63 142.5 62.5 140.95 62.3 140.6 63.55 140.5 63.8 140.5 64.05 140.05 63.4 139.6 63.35 139.35 62.95 139.1 62.45 138.45 61.25 137.4 58.6 136.55 56.85 134.85 54.5 132.7 51.45 132.15 50.55 131.95 50.2 130.05 46.75 128.75 44.5 127.7 43.25 127.35 42.8 126.6 42 125.95 41.3 125.6 40.7 125.15 40.05 124.4 38.55 123.6 37.35 122.75 37.25 122.55 37.15 122.4 37.25 121.3 35.6 120.8 35.2 119.35 34 116.4 34.1 112.2 34.1 110.65 36.35 110.4 36.7 110.25 37.25 109.15 37.15 108.6 38.55 108.3 39.35 108.25 41.15
L 108 53.2
Q 107.9 57.55 107.75 60.25 107.65 62 107.3 64.6 103.85 62.5 100.85 60.55 100.05 60.05 99.4 59.75 96.95 56.2 93.4 53.75 91.05 52 89.25 52.55 88.55 52.75 87.9 53.2
L 67.65 45.3
Q 64 43.9 61.85 43.4 58.55 42.7 55.95 43.3 55.2 43.5 54.5 43.8 53.7 43.55 53.05 43.4 50.25 42.8 48 43.15 45.55 42.85 43.6 43.3 40.7 44 38.1 46.45 36.85 47.6 35.55 49.3 34.5 48.35 33.25 48.05 31.9 47.75 30.4 48.3 30.05 48.15 29.7 48.05 26.85 47.35 23 50.65 18.4 54.65 14.25 61.05 12.45 63.85 9.65 68.9 4.3 67.15 -1.2 66.3 -5.9 65.55 -8.4 66.3 -8.7 66.4 -8.95 66.5 -9.5 66.4 -10.05 66.3 -13.5 65.75 -15.8 66.05 -18.95 65.75 -20.8 66.3 -22.65 66.9 -23.9 68.25 -25.3 69.7 -25.5 71.45 -25.75 73.95 -22.75 77.65 -15.65 86.7 -7.1 94.4 -5.45 95.85 -5.1 97 -4.85 98.2 -5.6 100.3 -8.9 109.4 -13.65 119.25 -15.25 122.25 -15.8 123.95 -16.85 126.55 -16.85 128.8 -16.9 131.5 -15.45 133.65 -13.9 136 -11.4 136.4 -10.25 136.55 -8.85 136.2 -8.35 136.3 -7.85 136.4 -6.35 136.6 -4.5 135.9 -3.6 135.55 -2.15 134.8 -0.85 136.1 0.95 136.4 2.5 136.6 4.35 135.9 5.5 135.45 7.55 134.25
L 23.8 124.75
Q 26.2 126.65 36.05 135.15 43.9 141.75 50.15 143.95 53.05 145.05 55.65 144.75 55.95 144.7 56.2 144.7 57.75 144.9 59.2 144.75 60.9 144.55 62 143.8 62.25 143.85 62.5 143.95 65.4 145.05 68.05 144.75 71.1 144.4 72.35 142.2 73.25 140.65 72.9 138.45 72.7 136.95 71.75 134.65
L 69.4 128.4
Q 72.15 129.45 73.6 130.25 76.15 131.65 77.25 133.65 77.35 133.8 78.95 137.6 79.85 139.95 81.25 140.7 82.75 141.45 85 140.8 87.35 141.8 91.35 139.55 91.7 139.35 92.05 139.1 92.75 140.25 93.65 140.7 96 141.9 100.2 139.55 105.1 136.8 109.1 134.2 109.55 136.05 110.85 137.05 111.7 137.7 112.95 138 114.8 138.55 116.15 137.95
L 116.2 137.95
Q 116.35 137.95 116.5 138 118.3 138.55 119.7 137.95 120.85 137.45 121.75 136.3 121.95 136.1 122.15 135.85 122.55 136.55 123.2 137.05 124.1 137.7 125.35 138 127.15 138.55 128.5 137.95 129.7 137.45 130.6 136.3 132.85 133.7 133.15 129.75 133.25 128.1 133.1 126.7 133.3 126.65 133.5 126.55 134.6 126.2 135.05 124.8 135.1 124.6 135.15 124.45 138 125.75 140 126.4 141.55 126.9 142.35 126.55 143.4 126.2 143.85 124.8 144.25 123.5 144.05 121.95 144 121.35 143.8 120.55 148.45 115.6 153.7 111.4 153.8 111.65 153.95 111.9 155.55 114.85 157.9 118.25 159.25 120.25 162.3 124.25 163.75 126.05 164.65 126.1 165.4 126.25 166 125.8 167.3 127.25 168.8 128 171 129.05 173.55 128.5 175.55 128.25 176.45 127.15 176.75 126.75 176.95 126.1 177 126.1 177.05 126.1 178.3 126.35 179.2 124.75 180.15 123.1 180.3 120.6 180.45 118.9 180.2 115.9 179.75 110.1 179.3 107.15 178.65 102.25 177.25 98.6 176.65 97 176.75 96.3 176.85 95.65 177.65 94.7 179.85 91.9 181.35 88.4 181.9 87.25 181.8 86.1 Z"/>
</g>

<g id="triten_wJavalin_Arm_0_Layer0_0_FILL">
<path fill="#000000" stroke="none" d="
M 23.4 3.45
Q 22.55 3.15 20.9 2.8 19.1 2.4 18.35 2.2 15.55 1.2 14.1 0.85 12 0.3 8.35 0.1 4.1 -0.2 1.9 0.55 0.95 0.9 0.45 1.45 -0.25 2.25 0.1 3.05 0.25 3.45 0.75 3.7 0.9 4.4 2.1 5.05 4.65 6.5 10 9 14.6 11.4 17.15 13.9 18.1 14.85 18.7 15.1 18.8 15.15 18.9 15.2 19.35 15.95 20.25 16.65 23.35 19.35 26.45 19.1 27.75 18.95 29.15 18.3 31.15 17.4 31.85 16.05 32.4 14.9 32.25 13.5 32.05 10.1 29 7.05 27.45 5.5 25.65 4.5 24.9 4 23.4 3.45
M 22.05 7
Q 26.05 8.3 28.35 11.8 29.3 13.25 29.05 14.3 28.65 15.35 27.55 15.7 26.7 16 25.45 15.9 23.75 15.8 22.9 15.3 21.65 14.6 21.05 12.9 21.05 12.85 21 12.75
L 21 12.8
Q 20.95 12.6 20.9 12.35 20.7 11.7 20.5 10.5 20.45 10.3 20.4 10.15 20.35 10 20.35 9.9 20.1 9.05 19.75 8.95 19.25 8.75 18.85 9.25 18.6 9.65 18.5 10.3 18.4 10.85 18.35 11.35 12.8 7.5 6.35 4.65 5.45 4.25 4.65 4 10.35 3.8 13.75 4.65 13.95 4.7 14.15 4.75 14.8 4.95 15.8 5.25 16.8 5.55 18.1 6 18.45 6.1 20.1 6.45 21.3 6.75 22.05 7 Z"/>

<path fill="#2F7078" stroke="none" d="
M 20.5 10.5
Q 20.7 11.7 20.9 12.35 20.95 12.6 21 12.8
L 21 12.75
Q 21 10.65 20.35 9.3 19.65 7.8 17.65 6.35 17.05 5.9 16.45 5.5 16.1 5.35 15.8 5.25 14.8 4.95 14.15 4.75 13.95 4.7 13.75 4.65 10.35 3.8 4.65 4 5.45 4.25 6.35 4.65 12.8 7.5 18.35 11.35 18.4 10.85 18.5 10.3 18.6 9.65 18.85 9.25 19.25 8.75 19.75 8.95 20.1 9.05 20.35 9.9 20.35 10 20.4 10.15 20.45 10.3 20.5 10.5 Z"/>

<path fill="#9ECFD5" stroke="none" d="
M 28.35 11.8
Q 26.05 8.3 22.05 7 21.3 6.75 20.1 6.45 18.45 6.1 18.1 6 16.8 5.55 15.8 5.25 16.1 5.35 16.45 5.5 17.05 5.9 17.65 6.35 19.65 7.8 20.35 9.3 21 10.65 21 12.75 21.05 12.85 21.05 12.9 21.65 14.6 22.9 15.3 23.75 15.8 25.45 15.9 26.7 16 27.55 15.7 28.65 15.35 29.05 14.3 29.3 13.25 28.35 11.8 Z"/>
</g>

<g id="triten_wJavalin_Body_4_Layer2_0_FILL">
<path fill="#000000" stroke="none" d="
M 35.45 13.45
Q 34.55 11.45 33.6 10.2 31.9 7.95 28.1 5.9 23.65 3.5 19 2.8 13.95 2.05 9.55 3.4 9.75 2.75 9.05 2.3 8.35 1.9 7.7 2.2 6.75 2.55 6.05 4.4 2.3 13.1 -3 21.3 -4.55 23.6 -5.8 24.9 -7.6 26.7 -9.55 27.25 -11.2 27.75 -12.55 27.25 -13.3 26.95 -14.7 25.9 -17.1 24.1 -20.4 22.35 -22.3 21.35 -26.45 19.45 -28.4 18.6 -29.3 19 -30.55 19.4 -30.95 21.2 -31.4 23 -30.8 25.25 -30.4 26.75 -29.3 29.15 -27.15 33.85 -25.85 36.15 -23.75 39.95 -21.3 42.4 -20.25 43.45 -20.15 44.1 -20.05 44.75 -20.55 45.95 -21.9 49.35 -22.3 53.05 -22.45 54.25 -22.05 55.2 -21.65 56.25 -20.7 56.3 -20.05 56.35 -19 55.5 -17.55 54.25 -15.5 52.05 -13.95 50.3 -13.15 49.45 -11.75 48 -10.45 47.35 -8.25 46.25 -4.9 46.5 -4.55 46.5 0.85 47.3 9.3 48.45 17.65 45.45 26 42.45 31.75 36.1 36.75 30.7 37.55 24.85 38.2 19.65 35.45 13.45
M 31.65 16.35
Q 31.728125 16.522265625 31.8 16.7 32.5296875 18.3421875 32.9 19.7 33.096484375 20.3375 33.2 20.9 34.15 25.65 31 30.55 28.9 34 24 37.7 21.7 39.45 19.6 40.55 15.181640625 42.83359375 9.25 43.35 9.2388671875 43.3466796875 9.2 43.35 4.65 43.75 -1.7 43.15 -4.65 42.9 -5.8 42.9 -8.05 42.9 -9.75 43.55 -11.9 44.4 -14.85 47.55 -17.00234375 49.7408203125 -18.8 51.7 -19.3412109375 52.321875 -19.85 52.9 -19 48.9 -17.15 45.3 -16.4443359375 44.0810546875 -16.3 43.15 -16.1783203125 42.630078125 -16.25 42.2 -16.4 41.3 -17.85 39.85 -22.5982421875 35.1671875 -25.35 29.3 -26.8029296875 26.248828125 -27.7 22.85
L -21.3 25.5
Q -18.8 26.5 -17.7 27.2 -15.05 29.25 -13.55 29.9 -11.45 30.8 -9 30.35 -6.7 29.95 -4.7 28.5 -1.8 26.4 1.25 21.45 3.6 17.8 4.8 15.15 5.54375 13.51953125 5.95 12.6 6.3001953125 11.9568359375 6.45 11.7 7.5 9.8 8.85 8.9 10.15 8.1 11.8 7.8 16.35 6.9 23.8 9.4 28 10.75 29.6 12.65 30.65 13.85 31.65 16.35 Z"/>

<path fill="#00CCFF" stroke="none" d="
M -16.3 43.15
Q -16.4443359375 44.0810546875 -17.15 45.3 -19 48.9 -19.85 52.9 -19.3412109375 52.321875 -18.8 51.7 -16.6470703125 48.072265625 -14.15 44.4 -15.1341796875 43.8982421875 -16.3 43.15
M 4.8 15.15
Q 3.6 17.8 1.25 21.45 -1.8 26.4 -4.7 28.5 -6.7 29.95 -9 30.35 -11.45 30.8 -13.55 29.9 -15.05 29.25 -17.7 27.2 -18.8 26.5 -21.3 25.5
L -27.7 22.85
Q -26.8029296875 26.248828125 -25.35 29.3 -23.20703125 30.5521484375 -23 30.7 -18.9 34.2 -16.8 35.85 -13.1 38.85 -9.9 39.2 -8.7 39.35 -7.1 39.2 -5.2 39 -4.3 38.9 -1.5 38.55 -0.65 38.25 1 37.7 2.65 36.15 3.75 35.1 5.4 33.1
L 12.1 25.05
Q 7.9 21.8 6.45 15.55 6.1673828125 14.366796875 5.95 12.6 5.54375 13.51953125 4.8 15.15
M 33.2 20.9
Q 33.096484375 20.3375 32.9 19.7 32.2099609375 20.6658203125 31.15 21.95 28.95 24.55 28.95 26.5 29 26.95 29.1 27.85 29.2 28.7 29.05 29.2 28.7 30.4 26.6 31.65 17.4365234375 37.0197265625 9.25 43.35 15.181640625 42.83359375 19.6 40.55 21.7 39.45 24 37.7 28.9 34 31 30.55 34.15 25.65 33.2 20.9
M 25.05 14.5
Q 25.2 14.3 25.1 13.9
L 25.05 13.55 24.9 13.2 24.85 12.8 24.75 12.8 24.65 13.75
Q 24.65 14.25 25.05 14.5 Z"/>

<path fill="#0099FF" stroke="none" d="
M 31.8 16.7
Q 31.728125 16.522265625 31.65 16.35 30.65 13.85 29.6 12.65 28 10.75 23.8 9.4 16.35 6.9 11.8 7.8 10.15 8.1 8.85 8.9 7.5 9.8 6.45 11.7 6.3001953125 11.9568359375 5.95 12.6 6.1673828125 14.366796875 6.45 15.55 7.9 21.8 12.1 25.05
L 5.4 33.1
Q 3.75 35.1 2.65 36.15 1 37.7 -0.65 38.25 -1.5 38.55 -4.3 38.9 -5.2 39 -7.1 39.2 -8.7 39.35 -9.9 39.2 -13.1 38.85 -16.8 35.85 -18.9 34.2 -23 30.7 -23.20703125 30.5521484375 -25.35 29.3 -22.5982421875 35.1671875 -17.85 39.85 -16.4 41.3 -16.25 42.2 -16.1783203125 42.630078125 -16.3 43.15 -15.1341796875 43.8982421875 -14.15 44.4 -16.6470703125 48.072265625 -18.8 51.7 -17.00234375 49.7408203125 -14.85 47.55 -11.9 44.4 -9.75 43.55 -8.05 42.9 -5.8 42.9 -4.65 42.9 -1.7 43.15 4.65 43.75 9.2 43.35 9.2388671875 43.3466796875 9.25 43.35 17.4365234375 37.0197265625 26.6 31.65 28.7 30.4 29.05 29.2 29.2 28.7 29.1 27.85 29 26.95 28.95 26.5 28.95 24.55 31.15 21.95 32.2099609375 20.6658203125 32.9 19.7 32.5296875 18.3421875 31.8 16.7
M 25.1 13.9
Q 25.2 14.3 25.05 14.5 24.65 14.25 24.65 13.75
L 24.75 12.8 24.85 12.8 24.9 13.2 25.05 13.55 25.1 13.9 Z"/>
</g>

<g id="triten_wJavalin_Body_4_Layer1_0_FILL">
<path fill="#000000" stroke="none" d="
M 45.5 47.3
Q 44.75 44.2 43.85 37.8
L 42.6 28.75
Q 41.7 22.2 41.05 19.05 39.95 13.65 38.3 9.6 36.6177734375 5.4626953125 34.2 3.9 34.2423828125 3.5134765625 34.1 3.3 33.85 2.95 33.35 2.95 32.9 3 32.6 3.35 32.5505859375 3.3994140625 32.5 3.45 32.44921875 3.4802734375 32.4 3.5 31.7615234375 3.8546875 31.95 4.8 31.9642578125 4.84296875 31.95 4.9 31.35 7.1 29.9 9.55 29.55 10.15 28.15 12.4 26.8 14.75 25.25 16.8
L 22.65 19.95
Q 19.55 23.6 17.05 25.9 14.15 28.55 13.5 29.45 12.15 31.35 10.8 35.3 10.3 36.95 10.15 37.8 9.95 39.2 10.35 40.25 10.55 41.05 11.45 42.1
L 11.45 42.1
Q 11.35859375 42.24921875 11.25 42.4 8.9 45.95 5.4 46.4 3.2 46.65 2.85 46.8 1.45 47.55 1.55 49.1 1.55 49.75 2.1 50.75 2.8 52.05 3.65 52.7 4 53 5.15 53.55 6.15 54.05 6.6 54.5 7.6 55.6 7.7 55.7 7.95 55.9 8.45 56
L 9.2 56.15
Q 10.35 56.4 12.4 57.5 13.8 58.05 16.8 57.95 18.5 57.95 19.25 57.6
L 20.7 56.9
Q 21.5 56.55 23.15 56.2 24.7 55.6 24.7 54.4 24.7 54.134765625 24.6 53.9 25.28046875 54.257421875 25.7 54.05 26.078125 54.3046875 26.45 54.6 27.4 55.35 29.25 57.05 30.55 58.1 32.9 59.3 35.9 60.8 36.7 61.3 37 61.5 39.9 63.5 41.8 64.85 43.2 65.4 43.7 65.6 44.65 65.9 45.5 66.15 46 66.5 46.65 66.85 47.85 67.75 48.95 68.4 49.8 68.1 51 67.65 51.1 66.15 51.15 65.3 50.65 63.7
L 47.35 53.4
Q 46.15 49.65 45.5 47.3
M 40.6 37.95
L 41.45 43.85
Q 41.67265625 45.107421875 41.9 46.3 41.5146484375 46.679296875 40.9 47.25 39.8 48.25 37.2 49.7
L 36.35 50.15 33.5 51.75
Q 31.3029296875 52.8892578125 30.45 54.1
L 29.55 53.55
Q 27.7 52.25 26.3 51.85 26.1005859375 51.790234375 25.9 51.75 25.7083984375 51.64921875 25.35 51.5 24.35 51.1 23.45 50.45
L 22.85 50.05
Q 23.009375 50.03515625 23.15 50 23.4 49.95 23.8 49.65
L 25.65 48.4
Q 29.398046875 45.820703125 32.6 43.5 33.403125 42.9431640625 34.15 42.4
L 36.65 40.5
Q 38.7 38.95 40.45 38.05 40.5296875 38.0068359375 40.6 37.95
M 33.35 7.7
Q 33.36015625 7.6677734375 33.35 7.6 33.7841796875 8.398828125 34.35 9.45 34.5400390625 9.809375 34.75 10.2 36.3 12.95 36.9 14.85 37.65 17 38.1 20.75
L 40.1 34.6
Q 39.779296875 34.797265625 39.4 35.05 37.6 36.25 34.65 38.65 32.848828125 40.1068359375 31.6 41.05 30.534765625 41.9296875 29.9 42.4 29.3982421875 42.7623046875 28.6 43.3 27.96875 43.774609375 27.15 44.35 26.45 44.85 24.3 46.8
L 22.5 48.55
Q 21.95 49.1 22 49.4
L 22 49.4
Q 22.0029296875 49.5197265625 22 49.6 21.56484375 49.5 21 49.5 20.4 49.5 20.1 49.6 19.55 49.8 19.55 50.2 19.65 50.7 20.3 51.2 20.6 51.45 21.3 52
L 22.15 52.7
Q 21.68359375 52.765234375 21.15 52.95 20.9427734375 53.0509765625 20.75 53.15 19.0875 53.9267578125 18.15 54.15 17.35 54.35 15.75 54.35 15.053125 54.35 14.55 54.3 14.226953125 54.29375 14 54.25
L 13.95 54.25
Q 13.6 54.2 11.7 53.55 11.32890625 53.44765625 11.05 53.35 10.198828125 53.1244140625 10.05 53.05 9.95 53 8.3 51.8 7.3 51 5.1 49.8 7.45 49.65 9.25 48.15 9.9 47.6 10.6 46.85 11.7876953125 45.5943359375 12.85 44.05
L 13.85 45.4
Q 14.7 46.55 15.35 46.9 15.85 47.15 16.45 47 16.8689453125 46.9302734375 17.1 46.7
L 17.25 46.45 17.3 46.45
Q 17.3638671875 46.322265625 17.4 46.15 17.51484375 45.6265625 17.2 44.8 16.45 42.65 14.75 40.85 13.7 39.8 13.5 39.15 13.2 38.45 13.65 36.75 14.45 34.15 15.15 32.95 15.55 32.2 17.45 30.1
L 21.15 26.3
Q 22.4826171875 24.893359375 23.55 23.7 23.9033203125 23.3376953125 24.2 22.95 25.1568359375 21.96015625 25.85 21.15 25.98671875 20.96640625 26.1 20.8 26.1314453125 20.77265625 26.15 20.75 26.28046875 20.5984375 26.4 20.45 28.5 17.85 30 15.15 32.25 11.4 33.35 7.7
M 38.5 52.25
Q 38.684375 52.2162109375 38.85 52.15 40.35 51.5 40.45 51.45 41.3783203125 50.9859375 42.75 49.8 43.2306640625 51.4095703125 43.75 52.95 44.35 54.7 45.65 58.15 46.7 61.2 47.05 63.5 46.23359375 63.2650390625 45.3 62.9
L 38.35 59.15
Q 38.242578125 59.0759765625 38.1 59 37.957421875 58.9025390625 37.8 58.8
L 32.45 55.4
Q 32.85234375 55.192578125 33.3 54.9 33.5 54.85 34.35 54.6 35 54.45 35.35 54.25 35.75 54.05 36.35 53.65 37.2 53 37.25 52.95 37.7515625 52.615625 38.5 52.25 Z"/>

<path fill="#2F7078" stroke="none" d="
M 40.2 55.1
Q 39.3294921875 53.496484375 38.5 52.25 37.7515625 52.615625 37.25 52.95 37.2 53 36.35 53.65 35.75 54.05 35.35 54.25 35 54.45 34.35 54.6 33.5 54.85 33.3 54.9 32.85234375 55.192578125 32.45 55.4
L 37.8 58.8
Q 37.957421875 58.9025390625 38.1 59 38.242578125 59.0759765625 38.35 59.15
L 45.3 62.9
Q 45.7466796875 63.06015625 46.15 63.2 44.4623046875 61.727734375 43.4 60.4 42.3 59 40.2 55.1
M 33.35 12.2
Q 33.9748046875 10.6380859375 34.35 9.45 33.7841796875 8.398828125 33.35 7.6 33.36015625 7.6677734375 33.35 7.7 32.25 11.4 30 15.15 28.5 17.85 26.4 20.45 26.28046875 20.5984375 26.15 20.75 26.1314453125 20.77265625 26.1 20.8 25.98671875 20.96640625 25.85 21.15 25.1568359375 21.96015625 24.2 22.95 23.9033203125 23.3376953125 23.55 23.7 22.4826171875 24.893359375 21.15 26.3
L 17.45 30.1
Q 15.55 32.2 15.15 32.95 14.45 34.15 13.65 36.75 13.2 38.45 13.5 39.15 13.7 39.8 14.75 40.85 16.45 42.65 17.2 44.8 17.51484375 45.6265625 17.4 46.15 17.3638671875 46.322265625 17.3 46.45
L 17.25 46.45 17.1 46.7
Q 16.8689453125 46.9302734375 16.45 47 15.85 47.15 15.35 46.9 14.7 46.55 13.85 45.4
L 12.85 44.05
Q 11.7876953125 45.5943359375 10.6 46.85 9.9 47.6 9.25 48.15 7.45 49.65 5.1 49.8 7.3 51 8.3 51.8 9.95 53 10.05 53.05 10.198828125 53.1244140625 11.05 53.35 11.32890625 53.44765625 11.7 53.55 13.6 54.2 13.95 54.25
L 14 54.25
Q 14.226953125 54.29375 14.55 54.3 14.8595703125 53.9994140625 15.2 53.65
L 18.15 50.6
Q 18.35 50.7 19.15 51.65 19.8439453125 52.5751953125 20.75 53.15 20.9427734375 53.0509765625 21.15 52.95 21.68359375 52.765234375 22.15 52.7
L 21.3 52
Q 20.6 51.45 20.3 51.2 19.65 50.7 19.55 50.2 19.55 49.8 20.1 49.6 20.4 49.5 21 49.5 21.56484375 49.5 22 49.6 22.0029296875 49.5197265625 22 49.4
L 22 49.4
Q 21.95 49.1 22.5 48.55
L 24.3 46.8
Q 26.45 44.85 27.15 44.35 27.96875 43.774609375 28.6 43.3 29.3982421875 42.7623046875 29.9 42.4 30.534765625 41.9296875 31.6 41.05 29.5763671875 37.190234375 27.25 33.5 26.5 32.2 26.45 31.6 26.4 30.9 27.05 29.5 29.6 24.55 30.5 21.4 31.3 17.9 31.8 16.2 32.15 15.1 33.35 12.2 Z"/>

<path fill="#9ECFD5" stroke="none" d="
M 38.5 52.25
Q 39.3294921875 53.496484375 40.2 55.1 42.3 59 43.4 60.4 44.4623046875 61.727734375 46.15 63.2 45.7466796875 63.06015625 45.3 62.9 46.23359375 63.2650390625 47.05 63.5 46.7 61.2 45.65 58.15 44.35 54.7 43.75 52.95 43.2306640625 51.4095703125 42.75 49.8 41.3783203125 50.9859375 40.45 51.45 40.35 51.5 38.85 52.15 38.684375 52.2162109375 38.5 52.25
M 18.15 50.6
L 15.2 53.65
Q 14.8595703125 53.9994140625 14.55 54.3 15.053125 54.35 15.75 54.35 17.35 54.35 18.15 54.15 19.0875 53.9267578125 20.75 53.15 19.8439453125 52.5751953125 19.15 51.65 18.35 50.7 18.15 50.6
M 34.35 9.45
Q 33.9748046875 10.6380859375 33.35 12.2 32.15 15.1 31.8 16.2 31.3 17.9 30.5 21.4 29.6 24.55 27.05 29.5 26.4 30.9 26.45 31.6 26.5 32.2 27.25 33.5 29.5763671875 37.190234375 31.6 41.05 32.848828125 40.1068359375 34.65 38.65 37.6 36.25 39.4 35.05 39.779296875 34.797265625 40.1 34.6
L 38.1 20.75
Q 37.65 17 36.9 14.85 36.3 12.95 34.75 10.2 34.5400390625 9.809375 34.35 9.45 Z"/>

<path fill="#8E4A4A" stroke="none" d="
M 33 44.05
Q 32.8052734375 43.7681640625 32.6 43.5 29.398046875 45.820703125 25.65 48.4
L 23.8 49.65
Q 23.4 49.95 23.15 50 23.009375 50.03515625 22.85 50.05
L 23.45 50.45
Q 24.35 51.1 25.35 51.5 25.7083984375 51.64921875 25.9 51.75 26.1005859375 51.790234375 26.3 51.85 27.7 52.25 29.55 53.55
L 30.45 54.1
Q 31.3029296875 52.8892578125 33.5 51.75
L 36.35 50.15 36.7 49.95 36.7 49.9 33 44.05 Z"/>

<path fill="#FF9999" stroke="none" d="
M 41.45 43.85
L 40.6 37.95
Q 40.5296875 38.0068359375 40.45 38.05 38.7 38.95 36.65 40.5
L 34.15 42.4
Q 33.403125 42.9431640625 32.6 43.5 32.8052734375 43.7681640625 33 44.05
L 36.7 49.9 36.7 49.95 36.35 50.15 37.2 49.7
Q 39.8 48.25 40.9 47.25 41.5146484375 46.679296875 41.9 46.3 41.67265625 45.107421875 41.45 43.85 Z"/>
</g>

<g id="triten_wJavalin_Body_4_Layer0_0_FILL">
<path fill="#000000" stroke="none" d="
M 52.9 -0.6
Q 51.75 -2.25 47.85 -2.15 36.55 -1.8 14.2 0 9.45 0.3 6.6 0.85 4.95 1.15 4.25 1.85 3.35 2.65 3.35 4.05 3.35 5.35 4 6.55 4.3 7.3 5 8.25
L 7.3 11.9
Q 9.3 15 10.55 16.35 11.3 17.15 13 18.55 16.55 21.55 18.5 22.9 21.75 25.1 24.75 26 28.6 27.2 32.75 26.55 36.85 25.9 40.2 23.6 43.05 21.55 46.2 17.4 51.45 10.35 53.15 3.5 53.85 0.7 52.9 -0.6
M 41.3 6
Q 41.665234375 5.2544921875 41.9 4.5 42.2705078125 3.3228515625 42.3 2.1 42.0017578125 2.1408203125 41.65 2.15 46.622265625 1.8830078125 49.2 1.95 48.80546875 3.5873046875 48.25 5.15 46.0953125 11.502734375 41.6 16.6 39.5 19 37.2 20.55 35.3 21.8 33.65 22.15 32.4 22.45 30.5 22.45 27 22.55 24.7 21.8 23.25 21.3 20.9 19.95 17.1 17.8 15.4 16.6 13.130859375 15.023046875 11.55 13.3 11.10390625 12.8193359375 10.7 12.3 9.7 10.95 9.1 10.3 7.75 8.8 7.5 8.45 6.775390625 7.2271484375 6.7 5.35 6.7 5.15234375 6.7 4.95 7.624609375 4.84296875 8.55 4.75
L 8.6 4.7
Q 9.5296875 4.626953125 10.45 4.55
L 16.4 4
Q 16.6650390625 3.9693359375 16.9 3.95 17.006640625 4.43203125 17.35 5.05 18.7056640625 7.563671875 20 9.15 20.9927734375 10.3755859375 21.95 11.05 24.35 12.65 28.25 12.85 34.1 13 38.05 10 40.15 8.4 41.3 6
M 36.2 2.5
Q 37.9890625 2.3728515625 39.55 2.25 39.413671875 2.289453125 39.25 2.3 38.5880859375 5.5119140625 36.95 7.15 35.4 8.75 32.8 9.45 30.85 9.95 27.85 10.05 25.15 10.15 23.75 9.45 22.828515625 9.00625 22 8.05 21.6150390625 7.60546875 21.25 7.05 20.1 4.9 19.5 3.85 19.4720703125 3.79765625 19.45 3.75 22.2158203125 3.5361328125 25.15 3.35
L 36.2 2.5 Z"/>

<path fill="#8E4A4A" stroke="none" d="
M 39.55 2.25
Q 37.9890625 2.3728515625 36.2 2.5
L 25.15 3.35
Q 22.2158203125 3.5361328125 19.45 3.75 19.4720703125 3.79765625 19.5 3.85 20.1 4.9 21.25 7.05 21.6150390625 7.60546875 22 8.05 22.828515625 9.00625 23.75 9.45 25.15 10.15 27.85 10.05 30.85 9.95 32.8 9.45 35.4 8.75 36.95 7.15 38.5880859375 5.5119140625 39.25 2.3 39.413671875 2.289453125 39.55 2.25
M 18.3 10
Q 19.1912109375 9.5615234375 20 9.15 18.7056640625 7.563671875 17.35 5.05 17.006640625 4.43203125 16.9 3.95 16.6650390625 3.9693359375 16.4 4
L 10.45 4.55
Q 9.5296875 4.626953125 8.6 4.7
L 8.55 4.75
Q 8.4568359375 4.80546875 8.35 4.85 7.434375 5.1115234375 6.7 5.35 6.775390625 7.2271484375 7.5 8.45 7.75 8.8 9.1 10.3 9.7 10.95 10.7 12.3 11.10390625 12.8193359375 11.55 13.3 12.34609375 12.896875 13 12.55 14.75 11.65 18.3 10
M 42.3 2.1
Q 42.2705078125 3.3228515625 41.9 4.5 44.39921875 4.9669921875 48.15 5.15 48.209375 5.1529296875 48.25 5.15 48.80546875 3.5873046875 49.2 1.95 46.622265625 1.8830078125 41.65 2.15 42.0017578125 2.1408203125 42.3 2.1 Z"/>

<path fill="#FF9999" stroke="none" d="
M 6.7 4.95
Q 6.7 5.15234375 6.7 5.35 7.434375 5.1115234375 8.35 4.85 8.4568359375 4.80546875 8.55 4.75 7.624609375 4.84296875 6.7 4.95
M 41.9 4.5
Q 41.665234375 5.2544921875 41.3 6 40.15 8.4 38.05 10 34.1 13 28.25 12.85 24.35 12.65 21.95 11.05 20.9927734375 10.3755859375 20 9.15 19.1912109375 9.5615234375 18.3 10 14.75 11.65 13 12.55 12.34609375 12.896875 11.55 13.3 13.130859375 15.023046875 15.4 16.6 17.1 17.8 20.9 19.95 23.25 21.3 24.7 21.8 27 22.55 30.5 22.45 32.4 22.45 33.65 22.15 35.3 21.8 37.2 20.55 39.5 19 41.6 16.6 46.0953125 11.502734375 48.25 5.15 48.209375 5.1529296875 48.15 5.15 44.39921875 4.9669921875 41.9 4.5 Z"/>
</g>

<g id="triten_wJavalin_Head_1_Layer1_0_FILL">
<path fill="#333333" stroke="none" d="
M 40.45 47.8
Q 34.25 45.45 28.35 46.75 21.8 48.2 18.35 53.35 16.1 56.65 15.5 61.5 15.05 64.95 15.35 70.35 16 80.85 18.95 86.55 20.85 90.2 23.85 93 26.9 95.85 30.6 97.45 37.65 100.5 45.55 99 46.4755859375 98.8390625 47.15 98.55
L 48.5 97.65
Q 48.7673828125 97.62265625 49 97.55 50 97.3 50.95 96.4 51.45 95.95 52.55 94.7 54.275390625 92.5765625 55.45 91.05 56.1318359375 90.191796875 56.6 89.5 56.8556640625 89.419921875 57 89.3 57.00078125 89.26015625 56.95 89.2 56.9697265625 89.1703125 56.95 89.15
L 56.95 89.15
Q 59.3703125 89.6380859375 61.65 89.5 63.2658203125 89.77578125 64 89.15 65.0412109375 88.8478515625 65.55 88.3 66.15 87.55 65.8 86.5 65.553125 85.8830078125 65.1 85.55 65.21171875 85.3427734375 65.3 85.1 66 83.15 66.1 79.45
L 66.15 76.4
Q 66.35 71.8 66 69.05 65.85 67.95 65.35 65.25 64.85 62.8 64.75 61.4 64.6 59.6 64.45 58.7 64.2 57.25 63.55 56.3 61.95 56.65 60.5 59.7
L 58.85 63.45
Q 58.4 64.55 57.8 64.7 57.362109375 64.8458984375 56.85 64.5 56.689453125 64.633984375 56.45 64.65 55.85 64.35 55.65 63.4 55.55 62.25 55.45 61.7 55.25 60.5 53.55 58.35 49.65 53.7 47.1 51.6 44.05 49.15 40.45 47.8 Z"/>

<path fill="#000000" stroke="none" d="
M 62.65 48.75
Q 61.95 47.5 61.7 47.15 60.4 45.2 57.05 43.3 51.45 40.2 43.95 38.65 38.4 37.55 29.95 37 23.85 36.6 20.55 37.2 15.2 38.25 12.25 41.4 11.75 41.95 10.05 44.35
L 7.25 48.6
Q 5.6 51.25 6.7 52.45 7.15 52.95 8.1 53.1 9.6 53.4 9.7 53.45 10.5 53.7 11.9 54.65 12.4361328125 54.9912109375 13.05 55 12.3138671875 57.016015625 11.9 59.35 10.95 64.25 11.6 72 12.25 80.35 14.15 85.45 16.65 91.9 22.1 96.6 27.55 101.25 34.3 102.75 38 103.55 42.15 103.45 46.45 103.25 49.05 101.9 49.441015625 101.7044921875 49.8 101.45 49.966015625 101.55390625 50.15 101.6 51.1 101.8 51.85 100.75 52.1 100.4 52.65 98.9 52.9 98.25 54.05 96 54.95 94.2 55.1 93 55.1 92.1 55.25 91.7 55.280078125 91.519140625 55.45 91.05 54.275390625 92.5765625 52.55 94.7 51.45 95.95 50.95 96.4 50 97.3 49 97.55 48.7673828125 97.62265625 48.5 97.65
L 47.15 98.55
Q 46.4755859375 98.8390625 45.55 99 37.65 100.5 30.6 97.45 26.9 95.85 23.85 93 20.85 90.2 18.95 86.55 16 80.85 15.35 70.35 15.05 64.95 15.5 61.5 16.1 56.65 18.35 53.35 21.8 48.2 28.35 46.75 34.25 45.45 40.45 47.8 44.05 49.15 47.1 51.6 49.65 53.7 53.55 58.35 55.25 60.5 55.45 61.7 55.55 62.25 55.65 63.4 55.85 64.35 56.45 64.65 56.689453125 64.633984375 56.85 64.5 57.362109375 64.8458984375 57.8 64.7 58.4 64.55 58.85 63.45
L 60.5 59.7
Q 61.95 56.65 63.55 56.3 64.2 57.25 64.45 58.7 64.6 59.6 64.75 61.4 64.85 62.8 65.35 65.25 65.85 67.95 66 69.05 66.35 71.8 66.15 76.4
L 66.1 79.45
Q 66 83.15 65.3 85.1 65.21171875 85.3427734375 65.1 85.55 65.553125 85.8830078125 65.8 86.5 66.15 87.55 65.55 88.3 65.0412109375 88.8478515625 64 89.15 63.2658203125 89.77578125 61.65 89.5 59.3703125 89.6380859375 56.95 89.15
L 56.95 89.15
Q 56.9697265625 89.1703125 56.95 89.2 57.00078125 89.26015625 57 89.3 57.1228515625 89.523046875 57.25 89.75 58.4 91.6 60.6 92.35 62.85 93.1 64.75 92.2 66.55 91.35 68.3 88.6 69.5 86.7 69.95 85.1 70.2 84 70.3 81.7 70.7 73.55 70.3 69.5 70.2 68.1 69.8 65.55
L 69.3 61.85
Q 68.85 58.15 68.1 55.5 67.45 53.5 66.45 52.7 66.0146484375 52.363671875 65.45 52.15 65.197265625 51.747265625 64.7 51.25 64.05 50.65 63.7 50.3 63.25 49.75 62.65 48.75
M 40.85 42.15
Q 44.45 42.75 46.95 43.45 52.3 44.95 57.05 47.9 58.25 48.65 58.85 49.35 59.05 49.65 59.6 50.5 60 51.25 60.35 51.6 60.683203125 51.933203125 61.35 52.3 60.7923828125 52.5712890625 60.3 52.95 58.85 54.05 57.95 57.2
L 57.35 59
Q 57.1263671875 58.178515625 56.7 57.3 55.75 55.25 52.9 52.1 49.85 48.8 47.65 47.1 43.2 43.75 37.35 42.8 34.78984375 42.36953125 32.25 42.45 29.18515625 42.55234375 26.15 43.4 20.8 44.9 17.5 48.15 15.494921875 50.062890625 14.15 52.6 13.794921875 51.99140625 13.15 51.65 12.8 51.45 11.55 51.05 10.5 50.65 9.95 50.25 10.55 49.5 12.1 46.8 13.4 44.6 14.55 43.6 16.5 41.9 20.95 41.2 26.3671875 40.46875 33.35 41.1 36.91015625 41.4626953125 40.85 42.15 Z"/>

<path fill="#8E4A4A" stroke="none" d="
M 14.55 43.6
Q 13.4 44.6 12.1 46.8 10.55 49.5 9.95 50.25 10.5 50.65 11.55 51.05 12.8 51.45 13.15 51.65 13.794921875 51.99140625 14.15 52.6 15.494921875 50.062890625 17.5 48.15 20.8 44.9 26.15 43.4 29.18515625 42.55234375 32.25 42.45 32.6294921875 41.9119140625 33.35 41.1 26.3671875 40.46875 20.95 41.2 16.5 41.9 14.55 43.6 Z"/>

<path fill="#FF9999" stroke="none" d="
M 46.95 43.45
Q 44.45 42.75 40.85 42.15 36.91015625 41.4626953125 33.35 41.1 32.6294921875 41.9119140625 32.25 42.45 34.78984375 42.36953125 37.35 42.8 43.2 43.75 47.65 47.1 49.85 48.8 52.9 52.1 55.75 55.25 56.7 57.3 57.1263671875 58.178515625 57.35 59
L 57.95 57.2
Q 58.85 54.05 60.3 52.95 60.7923828125 52.5712890625 61.35 52.3 60.683203125 51.933203125 60.35 51.6 60 51.25 59.6 50.5 59.05 49.65 58.85 49.35 58.25 48.65 57.05 47.9 52.3 44.95 46.95 43.45 Z"/>
</g>

<g id="triten_wJavalin_Head_1_Layer0_0_FILL">
<path fill="#000000" stroke="none" d="
M 19.15 -0.7
Q 17.4 -5.05 15.4 -6.85 14 -8.1 12.2 -8.5 10.25 -8.95 8.7 -8.2 6.45 -7.1 4.8 -2.7 0.75 7.95 -1.4 19.1 -1.8 21.3 -2.65 22.15 -3.5 23 -5.65 23.4 -15.05 25.25 -25.85 26.2 -29.25 26.45 -30.9 26.75 -33.65 27.25 -35.6 28.4 -37.9 29.7 -39 32.1 -40.2 34.6 -39.25 36.85 -38.65 38.3 -37.1 39.5 -36.1 40.25 -34.1 41.35
L -16.6 50.85
Q -14.8 51.9 -13.95 52.5 -12.6 53.55 -11.95 54.75 -11 56.55 -11.3 59.9 -11.4 61.25 -13.95 76.55 -15.6 86.55 -14.3 93 -13.7 96 -12.1 98.1 -10.25 100.5 -7.75 100.45 -6 100.4 -4.3 99 -3.15 98.05 -1.65 96.1
L 5.55 86.8 8.6 100.75
Q 9.3 104.1 9.35 105.9 9.45 108.8 8.3 110.75 8.2 110.95 5.8 114.15 4.3 116.15 4.4 117.75 4.55 120.35 8.7 122.7 21.35 129.95 30.15 132.4 35.85 134 39.9 133.7 42.3 133.55 45.3 132.7 46.95 132.2 50.5 130.9 60.7 127.05 65.45 125.05 73.7 121.6 79.8 118 85.5 114.75 85 111 84.75 108.95 82.15 106.85 78.6 104.05 78 103.25 76.4 101.05 76.1 96 75.8 88.9 76.05 83 76.096875 82.017578125 76 81.25 77.7603515625 77.4962890625 78.05 73.15 78.3 70.3 76.95 69 76.4640625 68.4955078125 75.7 68.25
L 72.1 47.05
Q 71.4 43.15 70.75 41.15 69.65 37.95 67.8 36.05 65.75 34 62.3 33 59.75 32.25 55.9 32 55.7626953125 31.9908203125 55.6 31.95 56.36328125 30.972265625 56.7 29.85 57.2 28.15 56.7 26.7 55.85 24 51.05 22.35 45.35 20.5 37.8 20.25 33.3 20.05 24.25 20.5 23.2 9.35 19.15 -0.7
M 10.05 -4.3
Q 12.52421875 -4.533984375 14.4 -1.8 15.321484375 -0.437109375 16.1 1.65 19.3 10.7 21.55 20.65 22 22.65 22.45 23.65 23.1 25.25 24.2 26.1 25 25.6 24.9 24.65 29.3 24.9 38.15 24.45 46 24.35 50.9 26.3 53 27.15 53.1 28.4 53.15 29.55 51.8 30.6 51.230859375 31.095703125 50.2 31.75 43.645703125 31.69296875 36.35 32.35 28 33.1 16.9 35.1 12.1 35.9 9.25 36.95 5.2 38.5 2.95 41.15 0.3916015625 44.269140625 -0.2 49.55 -0.4197265625 51.803125 -0.3 54.45 -0.2939453125 54.6259765625 -0.3 54.8 -0.136328125 58.241015625 0.55 62.8 1.3322265625 67.79609375 2.75 74.1
L 4.45 81.95 -5.7 94.5
Q -7.05 96.05 -8.05 95.95 -8.9146484375 95.821875 -9.5 94.85 -9.784375 94.3408203125 -10 93.55 -11.6732421875 87.4615234375 -10.15 77.7 -10.0337890625 76.9609375 -9.9 76.2 -7.35 61.95 -7.3 58.55 -7.2 53.35 -9.3 50.75 -9.7888671875 50.1548828125 -10.7 49.45 -11.9376953125 48.563671875 -13.95 47.5
L -32.2 38.2
Q -36.25 36.05 -35.7 33.7 -35.508984375 32.808984375 -34.65 32.2 -33.4892578125 31.3666015625 -31.1 31.05
L -5.65 27.95
Q -3.5 27.7 -2.35 27.35 -0.6 26.8 0.35 25.75 0.9607421875 25.1033203125 1.4 24.15 1.5830078125 23.85390625 1.7 23.5 1.7314453125 23.448828125 1.75 23.4 2.05 22.5 2.4 20.7 5.55 5.25 10.05 -4.3
M 59.95 47.95
Q 57.8 44.95 56 44.4 55.15 44.2 53.45 44.35 52.4 44.55 51.9 44.9 51.2 45.45 50.85 46.7 50.15 49.2 49.9 54.3
L 49.2 72.25
Q 49.15 73.15 49.2 73.9 45.9 73.05 41.1 73.25 32 73.6 31.45 73.55 28.65 73.45 27.7 73.95 26.6 74.55 26.15 75.85 25.7 77.1 25.95 78.45 26.4 80.55 28.6 82.95 31.85 86.8 36.3 89.9 38.45 91.45 39 92 40.45 93.3 40.8 94.75 41.2 96.05 40.85 97.7 40.65 98.6 39.95 100.55 38.15 105.35 38.15 108.05 38.2 111.65 40.4 113.2 42.1 114.3 44.6 113.7 45.9 113.4 48.45 111.95 51.55 110.25 53.15 109.15 55.6 107.45 57.05 105.5 58.1 104 58.7 103.25 59.7 102.05 60.8 101.75
L 63.7 103.55
Q 65.75 104.65 66.75 104.8 68.3 105 69.7 104.05 71.05 103.2 71.8 101.75 72.569140625 100.33984375 72.75 98.2 72.9626953125 98.462890625 73.15 98.6 73.487109375 101.434375 74.1 103.3 74.9744140625 105.9234375 76.35 107.75 78.0904296875 110.001953125 80.6 111.05 74.05703125 115.981640625 64.7 120.1 64.476171875 120.2015625 64.25 120.3 61.553515625 121.475390625 57.55 122.95 52.91484375 124.73984375 46.5 126.95 44.256640625 127.72734375 42.5 128.2 40.36171875 128.7666015625 39 128.85 36.018359375 129.0853515625 32.15 128.15 31.119921875 127.89453125 30 127.55 28.7150390625 127.1673828125 27.45 126.75 17.681640625 123.4173828125 9.4 117.35 13.95 113.2 14.3 105.45 14.4 102.5 13.8 98.9 13.45 96.65 12.45 92.45
L 8.6 75.8
Q 8.30703125 74.543359375 8.05 73.4 6.9271484375 68.498046875 6.4 65.7 5.35 60.05 5 55.45 4.4 47.2 8.05 43.9 9.4 42.75 11.55 42 12.4826171875 41.7001953125 13.9 41.35 14.6486328125 41.2169921875 15.5 41.05 17.9626953125 40.580859375 20.25 40.15 29.790625 38.4740234375 36.75 37.75 48.4 36.55 58.15 37.25 62.65 37.55 64.65 39.25 65.9 40.35 66.65 42.25 67.1 43.55 67.55 45.85
L 72.1 68.2
Q 70.0634765625 68.5865234375 69.2 69.45
L 68.25 65.3
Q 67.95 63.9 67.65 63.2 66.85 61.6 66.55 60.85 66.1 59.95 65.6 58.5 65.1 56.95 64.85 56.1 63.7 53.2 59.95 47.95
M 55.25 48
Q 55.55 48.15 56.05 48.75
L 57.5 50.6
Q 59.2 52.85 59.9 54.05 61 55.85 62.45 59.75
L 63.8 63.15
Q 65 66.6 65.25 67.75
L 66.25 71.95
Q 66.25 72.55 66.1 73.8 66 74.9 66.7 75.4 67.55 76.05 68.45 75.4 68.487890625 75.3755859375 68.5 75.35 69.1689453125 74.8904296875 69.5 73.85 69.7 73.1 69.65 72.1 69.95 72.15 70.35 72.05 71.6216796875 71.874609375 73.95 71.4 74.070703125 71.4697265625 74.15 71.5 74.416796875 71.5671875 74.65 71.5 74.8890625 75.4328125 73.5 78.85 73.1814453125 78.9419921875 72.9 79.2 72.278125 79.7740234375 72.35 81.2 72.1083984375 81.6125 71.85 82 71.25 83 70 85 68.95 87.35 69.3 91.75 69.75 96.95 69.5 98.7 69.25 100.25 68.4 100.8 67.05 101.95 64.85 100.5 63.8 99.7 63.35 99.3 62.4 98.7 61.65 98.45 60.15 98 58.4 98.85 57 99.6 55.8 101.05 55.05 102 53.75 103.85 52.62578125 105.3490234375 51.55 106.15 51.4685546875 106.20234375 51.4 106.25 50.55 106.9 48.75 107.65 46.95 108.5 46.15 109 44.9 109.85 44.6 110 44.2912109375 110.1716796875 44 110.25 43.442578125 110.3970703125 42.95 110.2 42.15 109.95 41.85 109.05 41.55 108.3 41.65 107.3 41.75 105.55 43.35 101.45 44.75 97.75 44.6 95.65 44.25 90.9 37.8 86.15 34.2 83.4 33.05 82.35 30.65 80 29.7 77.5
L 36.35 77.1 39.9 76.85 49.4 76.3
Q 49.41640625 76.394140625 49.4 76.45 49.5896484375 77.2693359375 49.85 77.85 49.950390625 78.0728515625 50.05 78.25 50.2 78.65 50.55 78.6 50.75 78.6 50.9 78.1 50.98203125 77.7599609375 51.05 77.4 51.98125 73.3982421875 52.35 69.25
L 52.75 63.35
Q 53.15 56.7 53.65 51.35 53.95 48.95 54.2 48.1 54.455859375 47.8673828125 54.7 47.8 54.9826171875 47.7861328125 55.25 48 Z"/>

<path fill="#8E4A4A" stroke="none" d="
M 49.4 76.45
Q 49.41640625 76.394140625 49.4 76.3
L 39.9 76.85
Q 43.930859375 78.1603515625 48.2 78.05 49.1357421875 78.05 49.85 77.85 49.5896484375 77.2693359375 49.4 76.45
M 69.65 72.1
Q 69.7 73.1 69.5 73.85 69.1689453125 74.8904296875 68.5 75.35 68.6994140625 75.499609375 68.9 75.65 70.5 76.65 72.15 75.9 74 74.9 74.35 72.35 74.3939453125 71.99765625 74.4 71.55 74.2943359375 71.5369140625 74.15 71.5 74.070703125 71.4697265625 73.95 71.4 71.6216796875 71.874609375 70.35 72.05 69.95 72.15 69.65 72.1
M 33.05 82.35
Q 34.2 83.4 37.8 86.15 44.25 90.9 44.6 95.65 44.75 97.75 43.35 101.45 41.75 105.55 41.65 107.3 41.55 108.3 41.85 109.05 42.15 109.95 42.95 110.2 43.442578125 110.3970703125 44 110.25 44.2912109375 110.1716796875 44.6 110 44.9 109.85 46.15 109 46.95 108.5 48.75 107.65 50.55 106.9 51.4 106.25 51.4685546875 106.20234375 51.55 106.15 51.49453125 106.1009765625 51.45 106.05 49.8 104.6 49.15 103.8 48.85 103.45 47.95 102.05 47.5236328125 101.380078125 47.1 100.9 47.7552734375 98.82109375 47.95 97.75 48.25 95.9 47.85 94.45 47.2 91.95 44.9 90.65 43.75 90.15 43.2 89.85 42.3 89.35 41.9 88.7 41.65 88.25 41.45 86.9 41.25 85.7 40.8 85.2 40.35 84.7 39.25 84.45 37.95 84.15 37.55 83.9 36.65 83.4 35.85 81.2 35.05 79.1 34 78.65 35.05 78.35 35.9 77.6 36.14296875 77.35703125 36.35 77.1
L 29.7 77.5
Q 30.65 80 33.05 82.35
M 54.7 47.8
Q 54.455859375 47.8673828125 54.2 48.1 53.95 48.95 53.65 51.35 53.15 56.7 52.75 63.35
L 52.35 69.25
Q 51.98125 73.3982421875 51.05 77.4 51.3625 77.2375 51.6 77 52.15 76.35 52.45 75.1 52.85 73.45 53.05 73 53.35 72.45 54 71.7 54.85 70.75 55.05 70.45 56.35 68.7 57 65.1 57.9 60.6 57.55 58.35 57.25 56.55 56.35 55.2 55.3 53.7 53.75 53.1 54.94453125 50.6224609375 54.7 47.8
M 63.05 92.6
L 62.8 92.6
Q 62.1 92.5 61.55 93.15 60.65 94.15 60.95 95.45 61.3 96.8 62.55 97.1 63.3 97.25 64.1 97 64.75 96.8 65.15 96.4 65.85 95.8 65.85 94.75 65.75 93.75 65 93.15 64.5 92.75 63.15 92.45 63.25 92.6 63.05 92.6
M 56.35 73.3
Q 56.2 73.5 55.95 73.5 55.15 73.7 54.6 74.45 54.1 75.15 54.05 76 54.05 76.8 54.35 77.3 54.75 77.85 55.55 78.1 56.15 78.35 56.65 78.3 57.1 78.25 57.55 77.8 58.2 77.15 58.3 76.2 58.4 75.25 57.85 74.55 57.45 73.9 56.35 73.3
M -24.95 36.25
Q -26.55 35.3 -29.7 35.3 -31.25 35.3 -32.5 35.5 -33.2 35.5 -33.4 35.3 -33.55 35.2 -33.65 34.75 -34.0869140625 33.0693359375 -34.65 32.2 -35.508984375 32.808984375 -35.7 33.7 -36.25 36.05 -32.2 38.2
L -13.95 47.5
Q -11.9376953125 48.563671875 -10.7 49.45 -10.520703125 46.3662109375 -11.5 44.45 -11.85 43.8 -13 42.3 -14.6 40.45 -15.45 40.05 -16.5 39.65 -18.25 39.65 -20.6 39.7 -23.1 40.35 -22.75 39.2 -23.3 38 -23.85 36.85 -24.95 36.25
M 2.75 74.1
Q 1.3322265625 67.79609375 0.55 62.8 -0.136328125 58.241015625 -0.3 54.8 -0.2939453125 54.6259765625 -0.3 54.45 -0.4197265625 51.803125 -0.2 49.55 -1.72890625 51.8001953125 -2.5 56.2 -2.85 58.35 -3.35 62.7 -3.9 66.55 -4.7 69.05 -5.25 71 -5 71.7 -4.75 72.4 -4 72.65 -3.25 72.85 -2.9 72.35 -2.55 72.45 -2.5 72.9 -2.45 73.25 -2.7 73.55 -2.9 73.8 -3.9 74.35 -5.5 75.35 -5.8 77.9 -5.9 78.75 -5.8 79.95 -5.8 80.65 -5.7 82.05 -5.7 83.85 -6.3 85.25 -7.05 86.9 -8.45 87.35 -9.2 85.5 -9.35 83.3 -9.4 80.9 -9.55 79.7 -9.736328125 78.5291015625 -10.15 77.7 -11.6732421875 87.4615234375 -10 93.55 -9.784375 94.3408203125 -9.5 94.85 -8.9146484375 95.821875 -8.05 95.95 -7.05 96.05 -5.7 94.5
L 4.45 81.95 2.75 74.1
M -20.5 32.65
Q -21.2 33.7 -20.9 34.8 -20.65 35.65 -19.85 36.15 -19.1 36.7 -18.25 36.6 -17.4 36.55 -16.7 35.9 -16.05 35.3 -15.9 34.45 -15.75 33.35 -16.3 32.55 -16.95 31.65 -18 31.55 -18.15 31.7 -18.55 31.7 -19.8 31.7 -20.5 32.65
M 12.85 11.8
Q 13.25 11.2 13 10.45 12.75 9.75 11.9 9.15 11.3 8.75 10.9 8.7
L 10.9 8.85
Q 9.9 8.7 9.45 9.7 9.1 10.55 9.4 11.5 9.5 11.9 9.65 12.05 9.95 12.45 10.9 12.65 11.35 12.75 11.8 12.65 12.55 12.4 12.85 11.8
M 14.4 -1.8
Q 12.52421875 -4.533984375 10.05 -4.3 5.55 5.25 2.4 20.7 2.05 22.5 1.75 23.4 1.7314453125 23.448828125 1.7 23.5 1.5830078125 23.85390625 1.4 24.15 2.660546875 24.0533203125 4.15 22.75 6.7 20.45 7.6 17.65 8.1 16.15 8.15 14.65 8.45 11.65 7.3 10.2 9.05 7.95 10.8 6.15 12.05 4.8 12.45 4.25 13.25 3.1 13.35 2 13.4 1.7 13.4 0.6 13.4 -0.25 13.6 -0.7 13.8 -1.2 14.3 -1.7 14.344140625 -1.744140625 14.4 -1.8 Z"/>

<path fill="#FF9999" stroke="none" d="
M 56.05 48.75
Q 55.55 48.15 55.25 48 54.9826171875 47.7861328125 54.7 47.8 54.94453125 50.6224609375 53.75 53.1 55.3 53.7 56.35 55.2 57.25 56.55 57.55 58.35 57.9 60.6 57 65.1 56.35 68.7 55.05 70.45 54.85 70.75 54 71.7 53.35 72.45 53.05 73 52.85 73.45 52.45 75.1 52.15 76.35 51.6 77 51.3625 77.2375 51.05 77.4 50.98203125 77.7599609375 50.9 78.1 50.75 78.6 50.55 78.6 50.2 78.65 50.05 78.25 49.950390625 78.0728515625 49.85 77.85 49.1357421875 78.05 48.2 78.05 43.930859375 78.1603515625 39.9 76.85
L 36.35 77.1
Q 36.14296875 77.35703125 35.9 77.6 35.05 78.35 34 78.65 35.05 79.1 35.85 81.2 36.65 83.4 37.55 83.9 37.95 84.15 39.25 84.45 40.35 84.7 40.8 85.2 41.25 85.7 41.45 86.9 41.65 88.25 41.9 88.7 42.3 89.35 43.2 89.85 43.75 90.15 44.9 90.65 47.2 91.95 47.85 94.45 48.25 95.9 47.95 97.75 47.7552734375 98.82109375 47.1 100.9 47.5236328125 101.380078125 47.95 102.05 48.85 103.45 49.15 103.8 49.8 104.6 51.45 106.05 51.49453125 106.1009765625 51.55 106.15 52.62578125 105.3490234375 53.75 103.85 55.05 102 55.8 101.05 57 99.6 58.4 98.85 60.15 98 61.65 98.45 62.4 98.7 63.35 99.3 63.8 99.7 64.85 100.5 67.05 101.95 68.4 100.8 69.25 100.25 69.5 98.7 69.75 96.95 69.3 91.75 68.95 87.35 70 85 71.25 83 71.85 82 72.1083984375 81.6125 72.35 81.2 72.278125 79.7740234375 72.9 79.2 73.1814453125 78.9419921875 73.5 78.85 74.8890625 75.4328125 74.65 71.5 74.416796875 71.5671875 74.15 71.5 74.2943359375 71.5369140625 74.4 71.55 74.3939453125 71.99765625 74.35 72.35 74 74.9 72.15 75.9 70.5 76.65 68.9 75.65 68.6994140625 75.499609375 68.5 75.35 68.487890625 75.3755859375 68.45 75.4 67.55 76.05 66.7 75.4 66 74.9 66.1 73.8 66.25 72.55 66.25 71.95
L 65.25 67.75
Q 65 66.6 63.8 63.15
L 62.45 59.75
Q 61 55.85 59.9 54.05 59.2 52.85 57.5 50.6
L 56.05 48.75
M 55.95 73.5
Q 56.2 73.5 56.35 73.3 57.45 73.9 57.85 74.55 58.4 75.25 58.3 76.2 58.2 77.15 57.55 77.8 57.1 78.25 56.65 78.3 56.15 78.35 55.55 78.1 54.75 77.85 54.35 77.3 54.05 76.8 54.05 76 54.1 75.15 54.6 74.45 55.15 73.7 55.95 73.5
M 62.8 92.6
L 63.05 92.6
Q 63.25 92.6 63.15 92.45 64.5 92.75 65 93.15 65.75 93.75 65.85 94.75 65.85 95.8 65.15 96.4 64.75 96.8 64.1 97 63.3 97.25 62.55 97.1 61.3 96.8 60.95 95.45 60.65 94.15 61.55 93.15 62.1 92.5 62.8 92.6
M 14.3 -1.7
Q 13.8 -1.2 13.6 -0.7 13.4 -0.25 13.4 0.6 13.4 1.7 13.35 2 13.25 3.1 12.45 4.25 12.05 4.8 10.8 6.15 9.05 7.95 7.3 10.2 8.45 11.65 8.15 14.65 8.1 16.15 7.6 17.65 6.7 20.45 4.15 22.75 2.660546875 24.0533203125 1.4 24.15 0.9607421875 25.1033203125 0.35 25.75 -0.6 26.8 -2.35 27.35 -3.5 27.7 -5.65 27.95
L -31.1 31.05
Q -33.4892578125 31.3666015625 -34.65 32.2 -34.0869140625 33.0693359375 -33.65 34.75 -33.55 35.2 -33.4 35.3 -33.2 35.5 -32.5 35.5 -31.25 35.3 -29.7 35.3 -26.55 35.3 -24.95 36.25 -23.85 36.85 -23.3 38 -22.75 39.2 -23.1 40.35 -20.6 39.7 -18.25 39.65 -16.5 39.65 -15.45 40.05 -14.6 40.45 -13 42.3 -11.85 43.8 -11.5 44.45 -10.520703125 46.3662109375 -10.7 49.45 -9.7888671875 50.1548828125 -9.3 50.75 -7.2 53.35 -7.3 58.55 -7.35 61.95 -9.9 76.2 -10.0337890625 76.9609375 -10.15 77.7 -9.736328125 78.5291015625 -9.55 79.7 -9.4 80.9 -9.35 83.3 -9.2 85.5 -8.45 87.35 -7.05 86.9 -6.3 85.25 -5.7 83.85 -5.7 82.05 -5.8 80.65 -5.8 79.95 -5.9 78.75 -5.8 77.9 -5.5 75.35 -3.9 74.35 -2.9 73.8 -2.7 73.55 -2.45 73.25 -2.5 72.9 -2.55 72.45 -2.9 72.35 -3.25 72.85 -4 72.65 -4.75 72.4 -5 71.7 -5.25 71 -4.7 69.05 -3.9 66.55 -3.35 62.7 -2.85 58.35 -2.5 56.2 -1.72890625 51.8001953125 -0.2 49.55 0.3916015625 44.269140625 2.95 41.15 5.2 38.5 9.25 36.95 12.1 35.9 16.9 35.1 28 33.1 36.35 32.35 43.645703125 31.69296875 50.2 31.75 51.230859375 31.095703125 51.8 30.6 53.15 29.55 53.1 28.4 53 27.15 50.9 26.3 46 24.35 38.15 24.45 29.3 24.9 24.9 24.65 25 25.6 24.2 26.1 23.1 25.25 22.45 23.65 22 22.65 21.55 20.65 19.3 10.7 16.1 1.65 15.321484375 -0.437109375 14.4 -1.8 14.344140625 -1.744140625 14.3 -1.7
M 13 10.45
Q 13.25 11.2 12.85 11.8 12.55 12.4 11.8 12.65 11.35 12.75 10.9 12.65 9.95 12.45 9.65 12.05 9.5 11.9 9.4 11.5 9.1 10.55 9.45 9.7 9.9 8.7 10.9 8.85
L 10.9 8.7
Q 11.3 8.75 11.9 9.15 12.75 9.75 13 10.45
M -20.9 34.8
Q -21.2 33.7 -20.5 32.65 -19.8 31.7 -18.55 31.7 -18.15 31.7 -18 31.55 -16.95 31.65 -16.3 32.55 -15.75 33.35 -15.9 34.45 -16.05 35.3 -16.7 35.9 -17.4 36.55 -18.25 36.6 -19.1 36.7 -19.85 36.15 -20.65 35.65 -20.9 34.8 Z"/>

<path fill="#2F7078" stroke="none" d="
M 57.55 122.95
Q 54.986328125 120.64921875 52.05 120.5 49.8 120.4 47.55 121.8 45.6 123 44 125.1 42.9 126.5 42.65 127.6 42.56484375 127.9025390625 42.5 128.2 44.256640625 127.72734375 46.5 126.95 52.91484375 124.73984375 57.55 122.95
M 80.6 111.05
Q 78.0904296875 110.001953125 76.35 107.75 76.023046875 107.932421875 75.65 108.15 71.65 110.55 71.4 112.95 70.15 112.65 68.85 113.25 67.6 113.75 66.8 114.85 65.55 116.4 64.8 119.65 64.73828125 119.884375 64.7 120.1 74.05703125 115.981640625 80.6 111.05
M 11.55 42
Q 9.4 42.75 8.05 43.9 4.4 47.2 5 55.45 5.35 60.05 6.4 65.7 6.9271484375 68.498046875 8.05 73.4 8.30703125 74.543359375 8.6 75.8
L 12.45 92.45
Q 13.45 96.65 13.8 98.9 14.4 102.5 14.3 105.45 13.95 113.2 9.4 117.35 17.681640625 123.4173828125 27.45 126.75 28.7150390625 127.1673828125 30 127.55 31.119921875 127.89453125 32.15 128.15 32.2349609375 128.001171875 32.3 127.85 34.6 122.55 34.65 122.45 35.75 119.35 35.6 116.6 35.45 113.35 33.55 111.3 33 110.7 31.95 109.95 30.35 108.85 30.15 108.7 27.75 106.85 26.45 104.1 28.95 101 28.6 96.4 28.25 92.25 25.9 88.35 23.65 84.7 20.35 82.65 16.6 80.4 12.95 81.15 12.45 79.95 12.65 78.35 12.8 77.3 13.4 75.5
L 15.4 69.6
Q 16 68 16.5 67.3 16.9 66.75 17.8 66.2
L 19.2 65.2
Q 21.15 63.75 21.85 61.25 22.55 58.75 21.65 56.45 20.9 54.4 20.85 54.1 20.75 53.25 21.1 52.2 21.6 50.95 21.8 50.35 23.2 46.4 21.4 42.25 20.90859375 41.116796875 20.25 40.15 17.9626953125 40.580859375 15.5 41.05 14.6486328125 41.2169921875 13.9 41.35 12.4826171875 41.7001953125 11.55 42
M 70.4 110.45
Q 70.7 109.75 70.6 108.8 70.5 108.25 70.3 107.9 70.05 107.55 69.5 107.25 68.65 106.75 67.95 106.8 67.95 107 67.65 107 66.95 106.95 66.4 107.45 65.9 107.95 65.8 108.65 65.55 110 66.75 111.1 68 112.15 69.25 111.7 70.1 111.3 70.4 110.45
M 32.5 95.15
Q 30.9 95.9 31 97.55 31 98.3 31.45 98.95 31.9 99.6 32.6 99.85 33.3 100.15 34.1 100 34.85 99.85 35.4 99.3 35.95 98.75 36.1 97.95 36.25 97.15 35.95 96.45 35.35 94.95 33.6 94.85 33.75 95 33.6 95
L 33.4 95
Q 33.05 94.95 32.5 95.15
M 17.85 72.5
Q 17.25 73 17.1 73.8 16.95 74.65 17.4 75.4 17.8 76.2 18.6 76.45 19.6 76.8 20.45 76.3 21.4 75.7 21.55 74.8 21.95 73.35 20.8 72.45 20.3 72.05 19.4 71.85 19.5 72 19.25 72 18.5 71.95 17.85 72.5
M 33.55 56.8
Q 32.5 55.5 30.8 55.05 29.05 54.65 27.7 55.45 26.95 55.95 26.3 56.9 25.8 57.75 24.95 60.15 24.4 62.25 24.45 63.15 24.45 64.9 25.5 65.95 26.45 66.9 28.25 67.1 29.25 67.2 31.25 67.2
L 32.55 67.3
Q 33.25 67.3 33.75 67.05 34.55 66.7 35.2 65.55 36.4 63 34.75 59 34.25 57.7 33.55 56.8 Z"/>

<path fill="#9ECFD5" stroke="none" d="
M 56 44.4
Q 57.8 44.95 59.95 47.95 63.7 53.2 64.85 56.1 65.1 56.95 65.6 58.5 66.1 59.95 66.55 60.85 66.85 61.6 67.65 63.2 67.95 63.9 68.25 65.3
L 69.2 69.45
Q 70.0634765625 68.5865234375 72.1 68.2
L 67.55 45.85
Q 67.1 43.55 66.65 42.25 65.9 40.35 64.65 39.25 62.65 37.55 58.15 37.25 48.4 36.55 36.75 37.75 29.790625 38.4740234375 20.25 40.15 20.90859375 41.116796875 21.4 42.25 23.2 46.4 21.8 50.35 21.6 50.95 21.1 52.2 20.75 53.25 20.85 54.1 20.9 54.4 21.65 56.45 22.55 58.75 21.85 61.25 21.15 63.75 19.2 65.2
L 17.8 66.2
Q 16.9 66.75 16.5 67.3 16 68 15.4 69.6
L 13.4 75.5
Q 12.8 77.3 12.65 78.35 12.45 79.95 12.95 81.15 16.6 80.4 20.35 82.65 23.65 84.7 25.9 88.35 28.25 92.25 28.6 96.4 28.95 101 26.45 104.1 27.75 106.85 30.15 108.7 30.35 108.85 31.95 109.95 33 110.7 33.55 111.3 35.45 113.35 35.6 116.6 35.75 119.35 34.65 122.45 34.6 122.55 32.3 127.85 32.2349609375 128.001171875 32.15 128.15 36.018359375 129.0853515625 39 128.85 40.36171875 128.7666015625 42.5 128.2 42.56484375 127.9025390625 42.65 127.6 42.9 126.5 44 125.1 45.6 123 47.55 121.8 49.8 120.4 52.05 120.5 54.986328125 120.64921875 57.55 122.95 61.553515625 121.475390625 64.25 120.3 64.476171875 120.2015625 64.7 120.1 64.73828125 119.884375 64.8 119.65 65.55 116.4 66.8 114.85 67.6 113.75 68.85 113.25 70.15 112.65 71.4 112.95 71.65 110.55 75.65 108.15 76.023046875 107.932421875 76.35 107.75 74.9744140625 105.9234375 74.1 103.3 73.487109375 101.434375 73.15 98.6 72.9626953125 98.462890625 72.75 98.2 72.569140625 100.33984375 71.8 101.75 71.05 103.2 69.7 104.05 68.3 105 66.75 104.8 65.75 104.65 63.7 103.55
L 60.8 101.75
Q 59.7 102.05 58.7 103.25 58.1 104 57.05 105.5 55.6 107.45 53.15 109.15 51.55 110.25 48.45 111.95 45.9 113.4 44.6 113.7 42.1 114.3 40.4 113.2 38.2 111.65 38.15 108.05 38.15 105.35 39.95 100.55 40.65 98.6 40.85 97.7 41.2 96.05 40.8 94.75 40.45 93.3 39 92 38.45 91.45 36.3 89.9 31.85 86.8 28.6 82.95 26.4 80.55 25.95 78.45 25.7 77.1 26.15 75.85 26.6 74.55 27.7 73.95 28.65 73.45 31.45 73.55 32 73.6 41.1 73.25 45.9 73.05 49.2 73.9 49.15 73.15 49.2 72.25
L 49.9 54.3
Q 50.15 49.2 50.85 46.7 51.2 45.45 51.9 44.9 52.4 44.55 53.45 44.35 55.15 44.2 56 44.4
M 30.8 55.05
Q 32.5 55.5 33.55 56.8 34.25 57.7 34.75 59 36.4 63 35.2 65.55 34.55 66.7 33.75 67.05 33.25 67.3 32.55 67.3
L 31.25 67.2
Q 29.25 67.2 28.25 67.1 26.45 66.9 25.5 65.95 24.45 64.9 24.45 63.15 24.4 62.25 24.95 60.15 25.8 57.75 26.3 56.9 26.95 55.95 27.7 55.45 29.05 54.65 30.8 55.05
M 17.1 73.8
Q 17.25 73 17.85 72.5 18.5 71.95 19.25 72 19.5 72 19.4 71.85 20.3 72.05 20.8 72.45 21.95 73.35 21.55 74.8 21.4 75.7 20.45 76.3 19.6 76.8 18.6 76.45 17.8 76.2 17.4 75.4 16.95 74.65 17.1 73.8
M 31 97.55
Q 30.9 95.9 32.5 95.15 33.05 94.95 33.4 95
L 33.6 95
Q 33.75 95 33.6 94.85 35.35 94.95 35.95 96.45 36.25 97.15 36.1 97.95 35.95 98.75 35.4 99.3 34.85 99.85 34.1 100 33.3 100.15 32.6 99.85 31.9 99.6 31.45 98.95 31 98.3 31 97.55
M 70.6 108.8
Q 70.7 109.75 70.4 110.45 70.1 111.3 69.25 111.7 68 112.15 66.75 111.1 65.55 110 65.8 108.65 65.9 107.95 66.4 107.45 66.95 106.95 67.65 107 67.95 107 67.95 106.8 68.65 106.75 69.5 107.25 70.05 107.55 70.3 107.9 70.5 108.25 70.6 108.8 Z"/>
</g>
</defs>

<g transform="matrix( 1, 0, 0, 1, 42.15,63.15) ">
<g transform="matrix( 0.6450958251953125, 0, 0, 0.7060546875, 44.9,15.45) ">
<g transform="matrix( 1, 0, 0, 1, 0,0) ">
<use xlink:href="#Water_Death_copy_3_Layer0_0_FILL"/>
</g>
</g>

<g transform="matrix( 1, 0, 0, 1, 0,0) ">
<use xlink:href="#triten_wJavalin_Character_25_Layer1_0_FILL"/>
</g>

<g transform="matrix( 1, 0, 0, 1, 5.45,-1.55) ">
<g transform="matrix( -0.72821044921875, -0.6851806640625, 0.6851806640625, -0.72821044921875, 102.2,99.95) ">
<g transform="matrix( 1, 0, 0, 1, 0,0) ">
<use xlink:href="#triten_wJavalin_Arm_0_Layer0_0_FILL"/>
</g>
</g>

<g transform="matrix( -0.8685760498046875, -0.4953460693359375, 0.30389404296875, -0.994903564453125, 134.4,131.85) ">
<g transform="matrix( 1, 0, 0, 1, 0,0) ">
<use xlink:href="#triten_wJavalin_Body_4_Layer2_0_FILL"/>
</g>

<g transform="matrix( 1, 0, 0, 1, 0,0) ">
<use xlink:href="#triten_wJavalin_Body_4_Layer1_0_FILL"/>
</g>

<g transform="matrix( 1, 0, 0, 1, 0,0) ">
<use xlink:href="#triten_wJavalin_Body_4_Layer0_0_FILL"/>
</g>
</g>

<g transform="matrix( 0.5151214599609375, -0.857025146484375, 0.857025146484375, 0.5151214599609375, -20.15,85) ">
<g transform="matrix( 1, 0, 0, 1, 0,0) ">
<use xlink:href="#triten_wJavalin_Head_1_Layer1_0_FILL"/>
</g>

<g transform="matrix( 1, 0, 0, 1, 0,0) ">
<use xlink:href="#triten_wJavalin_Head_1_Layer0_0_FILL"/>
</g>
</g>

<g transform="matrix( 0.5908203125, 0.56964111328125, -0.6940155029296875, 0.7198333740234375, 109.9,109.5) ">
<g transform="matrix( 1, 0, 0, 1, 0,0) ">
<use xlink:href="#triten_wJavalin_Arm_0_Layer0_0_FILL"/>
</g>
</g>
</g>
</g>
</svg>
