
<svg xmlns="http://www.w3.org/2000/svg" version="1.1" xmlns:xlink="http://www.w3.org/1999/xlink" preserveAspectRatio="none" x="0px" y="0px" width="300px" height="300px" viewBox="0 0 300 300">
<defs>
<g id="triten_wJavalin_Character_21_Layer1_0_FILL">
<path fill="#000000" stroke="none" d="
M 95.8 -11.65
Q 93.45 -10.75 91.35 -6.5 86.2 3.8 82.9 14.75 82.25 16.95 81.35 17.75 80.4 18.5 78.25 18.7 71.1 19.35 63.3 19.4 63.15 19.4 62.95 19.4 60.35 19.35 58.75 19.4 57.2 19.35 56.1 19.4 53.8 19.35 52.45 19.45 49.65 19.65 47.65 20.65 45.15 21.7 43.85 24.05 42.4 26.35 43.1 28.75 43.55 30.25 45 31.65 45.9 32.55 47.8 33.85
L 64.45 45.15
Q 66.1 46.35 66.9 47.05 68.15 48.3 68.7 49.5 69.45 51.4 68.85 54.75 68.6 56.1 64.45 71.2 61.8 81.1 62.4 87.7 62.7 90.75 64.15 93.05 65.75 95.65 68.3 95.85 68.9 95.9 69.55 95.8 69.8 95.85 70.05 95.85 71.1 95.95 72.15 95.55 72.8 95.8 73.6 95.85 75.35 96 77.15 94.75 77.35 94.6 77.6 94.45 78.95 95.7 80.65 95.85 82.4 96 84.25 94.75 84.3 94.7 84.35 94.7
L 84.7 97.8
Q 85.05 101.25 84.9 103.05 84.75 106 83.4 107.85 83.25 108 80.5 111 78.85 112.85 78.8 114.5 78.65 117.1 82.55 119.9 85.1 121.7 87.45 123.25 87.25 123.75 87.25 124.4 87.2 125.7 87.85 126.9 88.05 127.4 88.45 128 85 135.1 80.55 141.8 79.4 143.45 78.4 144.65 76.95 143.7 75.3 142.85 73.45 141.85 69.25 139.95 67.3 139.05 66.35 139.5 65.3 139.85 64.85 141.2 63.65 140.6 62.15 139.95 60.25 139.05 59.3 139.5 58.9 139.65 58.6 139.95 56.7 139.05 55.75 139.5 55.7 139.5 55.7 139.55 54.65 139.25 54 139.5 52.75 139.9 52.3 141.7 51.8 143.5 52.35 145.8 52.8 147.3 53.85 149.75 55.9 154.5 57.15 156.8 59.25 160.65 61.65 163.1 62.7 164.15 62.85 164.85 62.9 165.5 62.35 166.7 60.95 170.15 60.5 173.85 60.3 175.1 60.7 176.05 60.95 176.8 61.5 177.05 61.9 177.95 62.5 178.8 63.8 180.55 65.6 181.15 67.1 181.6 68.9 181.3 70.5 181 71.95 180.15 73.8 179 75.95 176.5 76.05 176.45 76.15 176.35 77.6 175.1 79.75 172.85 81.3 171.1 82.15 170.25 83.55 168.8 84.85 168.15 86.25 168.3 87.7 168.35 85.15 174.65 83.25 180.8 82.25 183.75 83.65 184.8 84.437890625 185.448828125 85.55 185.05 85.94296875 185.238671875 86.4 185.4 89.3 186.4 90.75 186.75 93.2 187.25 95.15 186.85 97.3306640625 186.4234375 98.2 184.95 98.2783203125 184.933203125 98.35 184.9 99.45 184.4 100.55 183.2 104.55 179.1 107.5 176.7 111.55 173.45 115.45 171.65 118.25 170.35 121.35 169.65 123.45 170.15 125.55 170.95 129.45 172.55 134.2 175.8 140.65 180.2 145.6 184.35 147.45 185.9 148.45 186.15 149.1203125 186.3361328125 149.8 186.25 150.7833984375 187.2896484375 152.9 187.85 154.45 188.2 156.2 188.3 158.85 188.4 160.45 187.35 161.1248046875 186.923828125 161.55 186.25 162.0951171875 186.2984375 162.6 186.15 163.5 185.9 163.95 185.2 164.75 183.85 163.5 181.45 160.25 175.1 147.25 156.5 143.25 150.8 140.25 145.75 141.4 146.2 142.6 146.35 143.45 146.4 144.4 146.35 145.75 146.45 147.2 146.25 147.55 146.3 147.9 146.35 149.55 146.45 151.3 146.15 152.1 146 152.8 145.85 153.85 146.2 155 146.35 156.6 146.45 158.35 146.15 160.95 145.75 162 144.55 162.85 143.5 162.95 142.1 163.35 138.65 160.35 134.95 158.7 133.05 156.8 131.65 156 131.05 154.3 130.15 153.35 129.65 151.45 128.85 150.8 128.6 150.3 128.4 151.05 128.15 151.7 127.95 160.4 125.4 166.85 122.35 172.9 119.7 172.75 115.9 172.7 113.8 170.35 111.4 167.05 108.2 166.55 107.4 165.15 105 165.35 99.9 165.75 92.7 166.6 86.85 166.75 85.85 166.75 85.15 168.85 81.45 169.6 77.15 170.2 74.3 168.9 72.85 168.45 72.3 167.75 71.95
L 166.35 50.3
Q 166 46.3 165.55 44.25 164.8 40.9 163.1 38.8 161.25 36.55 157.9 35.2 155.4 34.2 151.55 33.55 151.4 33.55 151.3 33.55 152.1 32.55 152.55 31.45 153.2 29.8 152.85 28.3 152.3 25.5 147.65 23.4 142.1 20.9 134.55 19.9 130.1 19.25 120.95 18.8 121 7.5 117.9 -3.05 116.6 -7.55 114.8 -9.6 113.5 -11 111.75 -11.6 110.589453125 -11.9666015625 109.5 -11.9 108.9994140625 -12.2033203125 108.45 -12.45 105.95 -13.6 103.35 -13.35 100.8841796875 -13.1287109375 98.65 -11.9 98.503515625 -11.8736328125 98.35 -11.85 97 -12.05 95.8 -11.65 Z"/>
</g>

<g id="triten_wJavalin_Arm_0_Layer0_0_FILL">
<path fill="#000000" stroke="none" d="
M 23.4 3.45
Q 22.55 3.15 20.9 2.8 19.1 2.4 18.35 2.2 15.55 1.2 14.1 0.85 12 0.3 8.35 0.1 4.1 -0.2 1.9 0.55 0.95 0.9 0.45 1.45 -0.25 2.25 0.1 3.05 0.25 3.45 0.75 3.7 0.9 4.4 2.1 5.05 4.65 6.5 10 9 14.6 11.4 17.15 13.9 18.1 14.85 18.7 15.1 18.8 15.15 18.9 15.2 19.35 15.95 20.25 16.65 23.35 19.35 26.45 19.1 27.75 18.95 29.15 18.3 31.15 17.4 31.85 16.05 32.4 14.9 32.25 13.5 32.05 10.1 29 7.05 27.45 5.5 25.65 4.5 24.9 4 23.4 3.45
M 22.05 7
Q 26.05 8.3 28.35 11.8 29.3 13.25 29.05 14.3 28.65 15.35 27.55 15.7 26.7 16 25.45 15.9 23.75 15.8 22.9 15.3 21.65 14.6 21.05 12.9 21.05 12.85 21 12.75
L 21 12.8
Q 20.95 12.6 20.9 12.35 20.7 11.7 20.5 10.5 20.45 10.3 20.4 10.15 20.35 10 20.35 9.9 20.1 9.05 19.75 8.95 19.25 8.75 18.85 9.25 18.6 9.65 18.5 10.3 18.4 10.85 18.35 11.35 12.8 7.5 6.35 4.65 5.45 4.25 4.65 4 10.35 3.8 13.75 4.65 13.95 4.7 14.15 4.75 14.8 4.95 15.8 5.25 16.8 5.55 18.1 6 18.45 6.1 20.1 6.45 21.3 6.75 22.05 7 Z"/>

<path fill="#2F7078" stroke="none" d="
M 20.5 10.5
Q 20.7 11.7 20.9 12.35 20.95 12.6 21 12.8
L 21 12.75
Q 21 10.65 20.35 9.3 19.65 7.8 17.65 6.35 17.05 5.9 16.45 5.5 16.1 5.35 15.8 5.25 14.8 4.95 14.15 4.75 13.95 4.7 13.75 4.65 10.35 3.8 4.65 4 5.45 4.25 6.35 4.65 12.8 7.5 18.35 11.35 18.4 10.85 18.5 10.3 18.6 9.65 18.85 9.25 19.25 8.75 19.75 8.95 20.1 9.05 20.35 9.9 20.35 10 20.4 10.15 20.45 10.3 20.5 10.5 Z"/>

<path fill="#9ECFD5" stroke="none" d="
M 28.35 11.8
Q 26.05 8.3 22.05 7 21.3 6.75 20.1 6.45 18.45 6.1 18.1 6 16.8 5.55 15.8 5.25 16.1 5.35 16.45 5.5 17.05 5.9 17.65 6.35 19.65 7.8 20.35 9.3 21 10.65 21 12.75 21.05 12.85 21.05 12.9 21.65 14.6 22.9 15.3 23.75 15.8 25.45 15.9 26.7 16 27.55 15.7 28.65 15.35 29.05 14.3 29.3 13.25 28.35 11.8 Z"/>
</g>

<g id="triten_wJavalin_Head_0_Layer0_0_FILL">
<path fill="#000000" stroke="none" d="
M 19.15 -0.7
Q 17.4 -5.05 15.4 -6.85 14 -8.1 12.2 -8.5 10.25 -8.95 8.7 -8.2 6.45 -7.1 4.8 -2.7 0.75 7.95 -1.4 19.1 -1.8 21.3 -2.65 22.15 -3.5 23 -5.65 23.4 -15.05 25.25 -25.85 26.2 -29.25 26.45 -30.9 26.75 -33.65 27.25 -35.6 28.4 -37.9 29.7 -39 32.1 -40.2 34.6 -39.25 36.85 -38.65 38.3 -37.1 39.5 -36.1 40.25 -34.1 41.35
L -16.6 50.85
Q -14.8 51.9 -13.95 52.5 -12.6 53.55 -11.95 54.75 -11 56.55 -11.3 59.9 -11.4 61.25 -13.95 76.55 -15.6 86.55 -14.3 93 -13.7 96 -12.1 98.1 -10.25 100.5 -7.75 100.45 -6 100.4 -4.3 99 -3.15 98.05 -1.65 96.1
L 5.55 86.8 8.6 100.75
Q 9.3 104.1 9.35 105.9 9.45 108.8 8.3 110.75 8.2 110.95 5.8 114.15 4.3 116.15 4.4 117.75 4.55 120.35 8.7 122.7 21.35 129.95 30.15 132.4 35.85 134 39.9 133.7 42.3 133.55 45.3 132.7 46.95 132.2 50.5 130.9 60.7 127.05 65.45 125.05 73.7 121.6 79.8 118 85.5 114.75 85 111 84.75 108.95 82.15 106.85 78.6 104.05 78 103.25 76.4 101.05 76.1 96 75.8 88.9 76.05 83 76.096875 82.017578125 76 81.25 77.7603515625 77.4962890625 78.05 73.15 78.3 70.3 76.95 69 76.4640625 68.4955078125 75.7 68.25
L 72.1 47.05
Q 71.4 43.15 70.75 41.15 69.65 37.95 67.8 36.05 65.75 34 62.3 33 59.75 32.25 55.9 32 55.7626953125 31.9908203125 55.6 31.95 56.36328125 30.972265625 56.7 29.85 57.2 28.15 56.7 26.7 55.85 24 51.05 22.35 45.35 20.5 37.8 20.25 33.3 20.05 24.25 20.5 23.2 9.35 19.15 -0.7
M 10.05 -4.3
Q 12.52421875 -4.533984375 14.4 -1.8 15.321484375 -0.437109375 16.1 1.65 19.3 10.7 21.55 20.65 22 22.65 22.45 23.65 23.1 25.25 24.2 26.1 25 25.6 24.9 24.65 29.3 24.9 38.15 24.45 46 24.35 50.9 26.3 53 27.15 53.1 28.4 53.15 29.55 51.8 30.6 51.230859375 31.095703125 50.2 31.75 43.645703125 31.69296875 36.35 32.35 28 33.1 16.9 35.1 12.1 35.9 9.25 36.95 5.2 38.5 2.95 41.15 0.3916015625 44.269140625 -0.2 49.55 -0.4197265625 51.803125 -0.3 54.45 -0.2939453125 54.6259765625 -0.3 54.8 -0.136328125 58.241015625 0.55 62.8 1.3322265625 67.79609375 2.75 74.1
L 4.45 81.95 -5.7 94.5
Q -7.05 96.05 -8.05 95.95 -8.9146484375 95.821875 -9.5 94.85 -9.784375 94.3408203125 -10 93.55 -11.6732421875 87.4615234375 -10.15 77.7 -10.0337890625 76.9609375 -9.9 76.2 -7.35 61.95 -7.3 58.55 -7.2 53.35 -9.3 50.75 -9.7888671875 50.1548828125 -10.7 49.45 -11.9376953125 48.563671875 -13.95 47.5
L -32.2 38.2
Q -36.25 36.05 -35.7 33.7 -35.508984375 32.808984375 -34.65 32.2 -33.4892578125 31.3666015625 -31.1 31.05
L -5.65 27.95
Q -3.5 27.7 -2.35 27.35 -0.6 26.8 0.35 25.75 0.9607421875 25.1033203125 1.4 24.15 1.5830078125 23.85390625 1.7 23.5 1.7314453125 23.448828125 1.75 23.4 2.05 22.5 2.4 20.7 5.55 5.25 10.05 -4.3
M 59.95 47.95
Q 57.8 44.95 56 44.4 55.15 44.2 53.45 44.35 52.4 44.55 51.9 44.9 51.2 45.45 50.85 46.7 50.15 49.2 49.9 54.3
L 49.2 72.25
Q 49.15 73.15 49.2 73.9 45.9 73.05 41.1 73.25 32 73.6 31.45 73.55 28.65 73.45 27.7 73.95 26.6 74.55 26.15 75.85 25.7 77.1 25.95 78.45 26.4 80.55 28.6 82.95 31.85 86.8 36.3 89.9 38.45 91.45 39 92 40.45 93.3 40.8 94.75 41.2 96.05 40.85 97.7 40.65 98.6 39.95 100.55 38.15 105.35 38.15 108.05 38.2 111.65 40.4 113.2 42.1 114.3 44.6 113.7 45.9 113.4 48.45 111.95 51.55 110.25 53.15 109.15 55.6 107.45 57.05 105.5 58.1 104 58.7 103.25 59.7 102.05 60.8 101.75
L 63.7 103.55
Q 65.75 104.65 66.75 104.8 68.3 105 69.7 104.05 71.05 103.2 71.8 101.75 72.569140625 100.33984375 72.75 98.2 72.9626953125 98.462890625 73.15 98.6 73.487109375 101.434375 74.1 103.3 74.9744140625 105.9234375 76.35 107.75 78.0904296875 110.001953125 80.6 111.05 74.05703125 115.981640625 64.7 120.1 64.476171875 120.2015625 64.25 120.3 61.553515625 121.475390625 57.55 122.95 52.91484375 124.73984375 46.5 126.95 44.256640625 127.72734375 42.5 128.2 40.36171875 128.7666015625 39 128.85 36.018359375 129.0853515625 32.15 128.15 31.119921875 127.89453125 30 127.55 28.7150390625 127.1673828125 27.45 126.75 17.681640625 123.4173828125 9.4 117.35 13.95 113.2 14.3 105.45 14.4 102.5 13.8 98.9 13.45 96.65 12.45 92.45
L 8.6 75.8
Q 8.30703125 74.543359375 8.05 73.4 6.9271484375 68.498046875 6.4 65.7 5.35 60.05 5 55.45 4.4 47.2 8.05 43.9 9.4 42.75 11.55 42 12.4826171875 41.7001953125 13.9 41.35 14.6486328125 41.2169921875 15.5 41.05 17.9626953125 40.580859375 20.25 40.15 29.790625 38.4740234375 36.75 37.75 48.4 36.55 58.15 37.25 62.65 37.55 64.65 39.25 65.9 40.35 66.65 42.25 67.1 43.55 67.55 45.85
L 72.1 68.2
Q 70.0634765625 68.5865234375 69.2 69.45
L 68.25 65.3
Q 67.95 63.9 67.65 63.2 66.85 61.6 66.55 60.85 66.1 59.95 65.6 58.5 65.1 56.95 64.85 56.1 63.7 53.2 59.95 47.95
M 55.25 48
Q 55.55 48.15 56.05 48.75
L 57.5 50.6
Q 59.2 52.85 59.9 54.05 61 55.85 62.45 59.75
L 63.8 63.15
Q 65 66.6 65.25 67.75
L 66.25 71.95
Q 66.25 72.55 66.1 73.8 66 74.9 66.7 75.4 67.55 76.05 68.45 75.4 68.487890625 75.3755859375 68.5 75.35 69.1689453125 74.8904296875 69.5 73.85 69.7 73.1 69.65 72.1 69.95 72.15 70.35 72.05 71.6216796875 71.874609375 73.95 71.4 74.070703125 71.4697265625 74.15 71.5 74.416796875 71.5671875 74.65 71.5 74.8890625 75.4328125 73.5 78.85 73.1814453125 78.9419921875 72.9 79.2 72.278125 79.7740234375 72.35 81.2 72.1083984375 81.6125 71.85 82 71.25 83 70 85 68.95 87.35 69.3 91.75 69.75 96.95 69.5 98.7 69.25 100.25 68.4 100.8 67.05 101.95 64.85 100.5 63.8 99.7 63.35 99.3 62.4 98.7 61.65 98.45 60.15 98 58.4 98.85 57 99.6 55.8 101.05 55.05 102 53.75 103.85 52.62578125 105.3490234375 51.55 106.15 51.4685546875 106.20234375 51.4 106.25 50.55 106.9 48.75 107.65 46.95 108.5 46.15 109 44.9 109.85 44.6 110 44.2912109375 110.1716796875 44 110.25 43.442578125 110.3970703125 42.95 110.2 42.15 109.95 41.85 109.05 41.55 108.3 41.65 107.3 41.75 105.55 43.35 101.45 44.75 97.75 44.6 95.65 44.25 90.9 37.8 86.15 34.2 83.4 33.05 82.35 30.65 80 29.7 77.5
L 36.35 77.1 39.9 76.85 49.4 76.3
Q 49.41640625 76.394140625 49.4 76.45 49.5896484375 77.2693359375 49.85 77.85 49.950390625 78.0728515625 50.05 78.25 50.2 78.65 50.55 78.6 50.75 78.6 50.9 78.1 50.98203125 77.7599609375 51.05 77.4 51.98125 73.3982421875 52.35 69.25
L 52.75 63.35
Q 53.15 56.7 53.65 51.35 53.95 48.95 54.2 48.1 54.455859375 47.8673828125 54.7 47.8 54.9826171875 47.7861328125 55.25 48 Z"/>

<path fill="#8E4A4A" stroke="none" d="
M 49.4 76.45
Q 49.41640625 76.394140625 49.4 76.3
L 39.9 76.85
Q 43.930859375 78.1603515625 48.2 78.05 49.1357421875 78.05 49.85 77.85 49.5896484375 77.2693359375 49.4 76.45
M 69.65 72.1
Q 69.7 73.1 69.5 73.85 69.1689453125 74.8904296875 68.5 75.35 68.6994140625 75.499609375 68.9 75.65 70.5 76.65 72.15 75.9 74 74.9 74.35 72.35 74.3939453125 71.99765625 74.4 71.55 74.2943359375 71.5369140625 74.15 71.5 74.070703125 71.4697265625 73.95 71.4 71.6216796875 71.874609375 70.35 72.05 69.95 72.15 69.65 72.1
M 33.05 82.35
Q 34.2 83.4 37.8 86.15 44.25 90.9 44.6 95.65 44.75 97.75 43.35 101.45 41.75 105.55 41.65 107.3 41.55 108.3 41.85 109.05 42.15 109.95 42.95 110.2 43.442578125 110.3970703125 44 110.25 44.2912109375 110.1716796875 44.6 110 44.9 109.85 46.15 109 46.95 108.5 48.75 107.65 50.55 106.9 51.4 106.25 51.4685546875 106.20234375 51.55 106.15 51.49453125 106.1009765625 51.45 106.05 49.8 104.6 49.15 103.8 48.85 103.45 47.95 102.05 47.5236328125 101.380078125 47.1 100.9 47.7552734375 98.82109375 47.95 97.75 48.25 95.9 47.85 94.45 47.2 91.95 44.9 90.65 43.75 90.15 43.2 89.85 42.3 89.35 41.9 88.7 41.65 88.25 41.45 86.9 41.25 85.7 40.8 85.2 40.35 84.7 39.25 84.45 37.95 84.15 37.55 83.9 36.65 83.4 35.85 81.2 35.05 79.1 34 78.65 35.05 78.35 35.9 77.6 36.14296875 77.35703125 36.35 77.1
L 29.7 77.5
Q 30.65 80 33.05 82.35
M 54.7 47.8
Q 54.455859375 47.8673828125 54.2 48.1 53.95 48.95 53.65 51.35 53.15 56.7 52.75 63.35
L 52.35 69.25
Q 51.98125 73.3982421875 51.05 77.4 51.3625 77.2375 51.6 77 52.15 76.35 52.45 75.1 52.85 73.45 53.05 73 53.35 72.45 54 71.7 54.85 70.75 55.05 70.45 56.35 68.7 57 65.1 57.9 60.6 57.55 58.35 57.25 56.55 56.35 55.2 55.3 53.7 53.75 53.1 54.94453125 50.6224609375 54.7 47.8
M 63.05 92.6
L 62.8 92.6
Q 62.1 92.5 61.55 93.15 60.65 94.15 60.95 95.45 61.3 96.8 62.55 97.1 63.3 97.25 64.1 97 64.75 96.8 65.15 96.4 65.85 95.8 65.85 94.75 65.75 93.75 65 93.15 64.5 92.75 63.15 92.45 63.25 92.6 63.05 92.6
M 56.35 73.3
Q 56.2 73.5 55.95 73.5 55.15 73.7 54.6 74.45 54.1 75.15 54.05 76 54.05 76.8 54.35 77.3 54.75 77.85 55.55 78.1 56.15 78.35 56.65 78.3 57.1 78.25 57.55 77.8 58.2 77.15 58.3 76.2 58.4 75.25 57.85 74.55 57.45 73.9 56.35 73.3
M -24.95 36.25
Q -26.55 35.3 -29.7 35.3 -31.25 35.3 -32.5 35.5 -33.2 35.5 -33.4 35.3 -33.55 35.2 -33.65 34.75 -34.0869140625 33.0693359375 -34.65 32.2 -35.508984375 32.808984375 -35.7 33.7 -36.25 36.05 -32.2 38.2
L -13.95 47.5
Q -11.9376953125 48.563671875 -10.7 49.45 -10.520703125 46.3662109375 -11.5 44.45 -11.85 43.8 -13 42.3 -14.6 40.45 -15.45 40.05 -16.5 39.65 -18.25 39.65 -20.6 39.7 -23.1 40.35 -22.75 39.2 -23.3 38 -23.85 36.85 -24.95 36.25
M 2.75 74.1
Q 1.3322265625 67.79609375 0.55 62.8 -0.136328125 58.241015625 -0.3 54.8 -0.2939453125 54.6259765625 -0.3 54.45 -0.4197265625 51.803125 -0.2 49.55 -1.72890625 51.8001953125 -2.5 56.2 -2.85 58.35 -3.35 62.7 -3.9 66.55 -4.7 69.05 -5.25 71 -5 71.7 -4.75 72.4 -4 72.65 -3.25 72.85 -2.9 72.35 -2.55 72.45 -2.5 72.9 -2.45 73.25 -2.7 73.55 -2.9 73.8 -3.9 74.35 -5.5 75.35 -5.8 77.9 -5.9 78.75 -5.8 79.95 -5.8 80.65 -5.7 82.05 -5.7 83.85 -6.3 85.25 -7.05 86.9 -8.45 87.35 -9.2 85.5 -9.35 83.3 -9.4 80.9 -9.55 79.7 -9.736328125 78.5291015625 -10.15 77.7 -11.6732421875 87.4615234375 -10 93.55 -9.784375 94.3408203125 -9.5 94.85 -8.9146484375 95.821875 -8.05 95.95 -7.05 96.05 -5.7 94.5
L 4.45 81.95 2.75 74.1
M -20.5 32.65
Q -21.2 33.7 -20.9 34.8 -20.65 35.65 -19.85 36.15 -19.1 36.7 -18.25 36.6 -17.4 36.55 -16.7 35.9 -16.05 35.3 -15.9 34.45 -15.75 33.35 -16.3 32.55 -16.95 31.65 -18 31.55 -18.15 31.7 -18.55 31.7 -19.8 31.7 -20.5 32.65
M 12.85 11.8
Q 13.25 11.2 13 10.45 12.75 9.75 11.9 9.15 11.3 8.75 10.9 8.7
L 10.9 8.85
Q 9.9 8.7 9.45 9.7 9.1 10.55 9.4 11.5 9.5 11.9 9.65 12.05 9.95 12.45 10.9 12.65 11.35 12.75 11.8 12.65 12.55 12.4 12.85 11.8
M 14.4 -1.8
Q 12.52421875 -4.533984375 10.05 -4.3 5.55 5.25 2.4 20.7 2.05 22.5 1.75 23.4 1.7314453125 23.448828125 1.7 23.5 1.5830078125 23.85390625 1.4 24.15 2.660546875 24.0533203125 4.15 22.75 6.7 20.45 7.6 17.65 8.1 16.15 8.15 14.65 8.45 11.65 7.3 10.2 9.05 7.95 10.8 6.15 12.05 4.8 12.45 4.25 13.25 3.1 13.35 2 13.4 1.7 13.4 0.6 13.4 -0.25 13.6 -0.7 13.8 -1.2 14.3 -1.7 14.344140625 -1.744140625 14.4 -1.8 Z"/>

<path fill="#FF9999" stroke="none" d="
M 56.05 48.75
Q 55.55 48.15 55.25 48 54.9826171875 47.7861328125 54.7 47.8 54.94453125 50.6224609375 53.75 53.1 55.3 53.7 56.35 55.2 57.25 56.55 57.55 58.35 57.9 60.6 57 65.1 56.35 68.7 55.05 70.45 54.85 70.75 54 71.7 53.35 72.45 53.05 73 52.85 73.45 52.45 75.1 52.15 76.35 51.6 77 51.3625 77.2375 51.05 77.4 50.98203125 77.7599609375 50.9 78.1 50.75 78.6 50.55 78.6 50.2 78.65 50.05 78.25 49.950390625 78.0728515625 49.85 77.85 49.1357421875 78.05 48.2 78.05 43.930859375 78.1603515625 39.9 76.85
L 36.35 77.1
Q 36.14296875 77.35703125 35.9 77.6 35.05 78.35 34 78.65 35.05 79.1 35.85 81.2 36.65 83.4 37.55 83.9 37.95 84.15 39.25 84.45 40.35 84.7 40.8 85.2 41.25 85.7 41.45 86.9 41.65 88.25 41.9 88.7 42.3 89.35 43.2 89.85 43.75 90.15 44.9 90.65 47.2 91.95 47.85 94.45 48.25 95.9 47.95 97.75 47.7552734375 98.82109375 47.1 100.9 47.5236328125 101.380078125 47.95 102.05 48.85 103.45 49.15 103.8 49.8 104.6 51.45 106.05 51.49453125 106.1009765625 51.55 106.15 52.62578125 105.3490234375 53.75 103.85 55.05 102 55.8 101.05 57 99.6 58.4 98.85 60.15 98 61.65 98.45 62.4 98.7 63.35 99.3 63.8 99.7 64.85 100.5 67.05 101.95 68.4 100.8 69.25 100.25 69.5 98.7 69.75 96.95 69.3 91.75 68.95 87.35 70 85 71.25 83 71.85 82 72.1083984375 81.6125 72.35 81.2 72.278125 79.7740234375 72.9 79.2 73.1814453125 78.9419921875 73.5 78.85 74.8890625 75.4328125 74.65 71.5 74.416796875 71.5671875 74.15 71.5 74.2943359375 71.5369140625 74.4 71.55 74.3939453125 71.99765625 74.35 72.35 74 74.9 72.15 75.9 70.5 76.65 68.9 75.65 68.6994140625 75.499609375 68.5 75.35 68.487890625 75.3755859375 68.45 75.4 67.55 76.05 66.7 75.4 66 74.9 66.1 73.8 66.25 72.55 66.25 71.95
L 65.25 67.75
Q 65 66.6 63.8 63.15
L 62.45 59.75
Q 61 55.85 59.9 54.05 59.2 52.85 57.5 50.6
L 56.05 48.75
M 55.95 73.5
Q 56.2 73.5 56.35 73.3 57.45 73.9 57.85 74.55 58.4 75.25 58.3 76.2 58.2 77.15 57.55 77.8 57.1 78.25 56.65 78.3 56.15 78.35 55.55 78.1 54.75 77.85 54.35 77.3 54.05 76.8 54.05 76 54.1 75.15 54.6 74.45 55.15 73.7 55.95 73.5
M 62.8 92.6
L 63.05 92.6
Q 63.25 92.6 63.15 92.45 64.5 92.75 65 93.15 65.75 93.75 65.85 94.75 65.85 95.8 65.15 96.4 64.75 96.8 64.1 97 63.3 97.25 62.55 97.1 61.3 96.8 60.95 95.45 60.65 94.15 61.55 93.15 62.1 92.5 62.8 92.6
M 14.3 -1.7
Q 13.8 -1.2 13.6 -0.7 13.4 -0.25 13.4 0.6 13.4 1.7 13.35 2 13.25 3.1 12.45 4.25 12.05 4.8 10.8 6.15 9.05 7.95 7.3 10.2 8.45 11.65 8.15 14.65 8.1 16.15 7.6 17.65 6.7 20.45 4.15 22.75 2.660546875 24.0533203125 1.4 24.15 0.9607421875 25.1033203125 0.35 25.75 -0.6 26.8 -2.35 27.35 -3.5 27.7 -5.65 27.95
L -31.1 31.05
Q -33.4892578125 31.3666015625 -34.65 32.2 -34.0869140625 33.0693359375 -33.65 34.75 -33.55 35.2 -33.4 35.3 -33.2 35.5 -32.5 35.5 -31.25 35.3 -29.7 35.3 -26.55 35.3 -24.95 36.25 -23.85 36.85 -23.3 38 -22.75 39.2 -23.1 40.35 -20.6 39.7 -18.25 39.65 -16.5 39.65 -15.45 40.05 -14.6 40.45 -13 42.3 -11.85 43.8 -11.5 44.45 -10.520703125 46.3662109375 -10.7 49.45 -9.7888671875 50.1548828125 -9.3 50.75 -7.2 53.35 -7.3 58.55 -7.35 61.95 -9.9 76.2 -10.0337890625 76.9609375 -10.15 77.7 -9.736328125 78.5291015625 -9.55 79.7 -9.4 80.9 -9.35 83.3 -9.2 85.5 -8.45 87.35 -7.05 86.9 -6.3 85.25 -5.7 83.85 -5.7 82.05 -5.8 80.65 -5.8 79.95 -5.9 78.75 -5.8 77.9 -5.5 75.35 -3.9 74.35 -2.9 73.8 -2.7 73.55 -2.45 73.25 -2.5 72.9 -2.55 72.45 -2.9 72.35 -3.25 72.85 -4 72.65 -4.75 72.4 -5 71.7 -5.25 71 -4.7 69.05 -3.9 66.55 -3.35 62.7 -2.85 58.35 -2.5 56.2 -1.72890625 51.8001953125 -0.2 49.55 0.3916015625 44.269140625 2.95 41.15 5.2 38.5 9.25 36.95 12.1 35.9 16.9 35.1 28 33.1 36.35 32.35 43.645703125 31.69296875 50.2 31.75 51.230859375 31.095703125 51.8 30.6 53.15 29.55 53.1 28.4 53 27.15 50.9 26.3 46 24.35 38.15 24.45 29.3 24.9 24.9 24.65 25 25.6 24.2 26.1 23.1 25.25 22.45 23.65 22 22.65 21.55 20.65 19.3 10.7 16.1 1.65 15.321484375 -0.437109375 14.4 -1.8 14.344140625 -1.744140625 14.3 -1.7
M 13 10.45
Q 13.25 11.2 12.85 11.8 12.55 12.4 11.8 12.65 11.35 12.75 10.9 12.65 9.95 12.45 9.65 12.05 9.5 11.9 9.4 11.5 9.1 10.55 9.45 9.7 9.9 8.7 10.9 8.85
L 10.9 8.7
Q 11.3 8.75 11.9 9.15 12.75 9.75 13 10.45
M -20.9 34.8
Q -21.2 33.7 -20.5 32.65 -19.8 31.7 -18.55 31.7 -18.15 31.7 -18 31.55 -16.95 31.65 -16.3 32.55 -15.75 33.35 -15.9 34.45 -16.05 35.3 -16.7 35.9 -17.4 36.55 -18.25 36.6 -19.1 36.7 -19.85 36.15 -20.65 35.65 -20.9 34.8 Z"/>

<path fill="#2F7078" stroke="none" d="
M 57.55 122.95
Q 54.986328125 120.64921875 52.05 120.5 49.8 120.4 47.55 121.8 45.6 123 44 125.1 42.9 126.5 42.65 127.6 42.56484375 127.9025390625 42.5 128.2 44.256640625 127.72734375 46.5 126.95 52.91484375 124.73984375 57.55 122.95
M 80.6 111.05
Q 78.0904296875 110.001953125 76.35 107.75 76.023046875 107.932421875 75.65 108.15 71.65 110.55 71.4 112.95 70.15 112.65 68.85 113.25 67.6 113.75 66.8 114.85 65.55 116.4 64.8 119.65 64.73828125 119.884375 64.7 120.1 74.05703125 115.981640625 80.6 111.05
M 11.55 42
Q 9.4 42.75 8.05 43.9 4.4 47.2 5 55.45 5.35 60.05 6.4 65.7 6.9271484375 68.498046875 8.05 73.4 8.30703125 74.543359375 8.6 75.8
L 12.45 92.45
Q 13.45 96.65 13.8 98.9 14.4 102.5 14.3 105.45 13.95 113.2 9.4 117.35 17.681640625 123.4173828125 27.45 126.75 28.7150390625 127.1673828125 30 127.55 31.119921875 127.89453125 32.15 128.15 32.2349609375 128.001171875 32.3 127.85 34.6 122.55 34.65 122.45 35.75 119.35 35.6 116.6 35.45 113.35 33.55 111.3 33 110.7 31.95 109.95 30.35 108.85 30.15 108.7 27.75 106.85 26.45 104.1 28.95 101 28.6 96.4 28.25 92.25 25.9 88.35 23.65 84.7 20.35 82.65 16.6 80.4 12.95 81.15 12.45 79.95 12.65 78.35 12.8 77.3 13.4 75.5
L 15.4 69.6
Q 16 68 16.5 67.3 16.9 66.75 17.8 66.2
L 19.2 65.2
Q 21.15 63.75 21.85 61.25 22.55 58.75 21.65 56.45 20.9 54.4 20.85 54.1 20.75 53.25 21.1 52.2 21.6 50.95 21.8 50.35 23.2 46.4 21.4 42.25 20.90859375 41.116796875 20.25 40.15 17.9626953125 40.580859375 15.5 41.05 14.6486328125 41.2169921875 13.9 41.35 12.4826171875 41.7001953125 11.55 42
M 70.4 110.45
Q 70.7 109.75 70.6 108.8 70.5 108.25 70.3 107.9 70.05 107.55 69.5 107.25 68.65 106.75 67.95 106.8 67.95 107 67.65 107 66.95 106.95 66.4 107.45 65.9 107.95 65.8 108.65 65.55 110 66.75 111.1 68 112.15 69.25 111.7 70.1 111.3 70.4 110.45
M 32.5 95.15
Q 30.9 95.9 31 97.55 31 98.3 31.45 98.95 31.9 99.6 32.6 99.85 33.3 100.15 34.1 100 34.85 99.85 35.4 99.3 35.95 98.75 36.1 97.95 36.25 97.15 35.95 96.45 35.35 94.95 33.6 94.85 33.75 95 33.6 95
L 33.4 95
Q 33.05 94.95 32.5 95.15
M 17.85 72.5
Q 17.25 73 17.1 73.8 16.95 74.65 17.4 75.4 17.8 76.2 18.6 76.45 19.6 76.8 20.45 76.3 21.4 75.7 21.55 74.8 21.95 73.35 20.8 72.45 20.3 72.05 19.4 71.85 19.5 72 19.25 72 18.5 71.95 17.85 72.5
M 33.55 56.8
Q 32.5 55.5 30.8 55.05 29.05 54.65 27.7 55.45 26.95 55.95 26.3 56.9 25.8 57.75 24.95 60.15 24.4 62.25 24.45 63.15 24.45 64.9 25.5 65.95 26.45 66.9 28.25 67.1 29.25 67.2 31.25 67.2
L 32.55 67.3
Q 33.25 67.3 33.75 67.05 34.55 66.7 35.2 65.55 36.4 63 34.75 59 34.25 57.7 33.55 56.8 Z"/>

<path fill="#9ECFD5" stroke="none" d="
M 56 44.4
Q 57.8 44.95 59.95 47.95 63.7 53.2 64.85 56.1 65.1 56.95 65.6 58.5 66.1 59.95 66.55 60.85 66.85 61.6 67.65 63.2 67.95 63.9 68.25 65.3
L 69.2 69.45
Q 70.0634765625 68.5865234375 72.1 68.2
L 67.55 45.85
Q 67.1 43.55 66.65 42.25 65.9 40.35 64.65 39.25 62.65 37.55 58.15 37.25 48.4 36.55 36.75 37.75 29.790625 38.4740234375 20.25 40.15 20.90859375 41.116796875 21.4 42.25 23.2 46.4 21.8 50.35 21.6 50.95 21.1 52.2 20.75 53.25 20.85 54.1 20.9 54.4 21.65 56.45 22.55 58.75 21.85 61.25 21.15 63.75 19.2 65.2
L 17.8 66.2
Q 16.9 66.75 16.5 67.3 16 68 15.4 69.6
L 13.4 75.5
Q 12.8 77.3 12.65 78.35 12.45 79.95 12.95 81.15 16.6 80.4 20.35 82.65 23.65 84.7 25.9 88.35 28.25 92.25 28.6 96.4 28.95 101 26.45 104.1 27.75 106.85 30.15 108.7 30.35 108.85 31.95 109.95 33 110.7 33.55 111.3 35.45 113.35 35.6 116.6 35.75 119.35 34.65 122.45 34.6 122.55 32.3 127.85 32.2349609375 128.001171875 32.15 128.15 36.018359375 129.0853515625 39 128.85 40.36171875 128.7666015625 42.5 128.2 42.56484375 127.9025390625 42.65 127.6 42.9 126.5 44 125.1 45.6 123 47.55 121.8 49.8 120.4 52.05 120.5 54.986328125 120.64921875 57.55 122.95 61.553515625 121.475390625 64.25 120.3 64.476171875 120.2015625 64.7 120.1 64.73828125 119.884375 64.8 119.65 65.55 116.4 66.8 114.85 67.6 113.75 68.85 113.25 70.15 112.65 71.4 112.95 71.65 110.55 75.65 108.15 76.023046875 107.932421875 76.35 107.75 74.9744140625 105.9234375 74.1 103.3 73.487109375 101.434375 73.15 98.6 72.9626953125 98.462890625 72.75 98.2 72.569140625 100.33984375 71.8 101.75 71.05 103.2 69.7 104.05 68.3 105 66.75 104.8 65.75 104.65 63.7 103.55
L 60.8 101.75
Q 59.7 102.05 58.7 103.25 58.1 104 57.05 105.5 55.6 107.45 53.15 109.15 51.55 110.25 48.45 111.95 45.9 113.4 44.6 113.7 42.1 114.3 40.4 113.2 38.2 111.65 38.15 108.05 38.15 105.35 39.95 100.55 40.65 98.6 40.85 97.7 41.2 96.05 40.8 94.75 40.45 93.3 39 92 38.45 91.45 36.3 89.9 31.85 86.8 28.6 82.95 26.4 80.55 25.95 78.45 25.7 77.1 26.15 75.85 26.6 74.55 27.7 73.95 28.65 73.45 31.45 73.55 32 73.6 41.1 73.25 45.9 73.05 49.2 73.9 49.15 73.15 49.2 72.25
L 49.9 54.3
Q 50.15 49.2 50.85 46.7 51.2 45.45 51.9 44.9 52.4 44.55 53.45 44.35 55.15 44.2 56 44.4
M 30.8 55.05
Q 32.5 55.5 33.55 56.8 34.25 57.7 34.75 59 36.4 63 35.2 65.55 34.55 66.7 33.75 67.05 33.25 67.3 32.55 67.3
L 31.25 67.2
Q 29.25 67.2 28.25 67.1 26.45 66.9 25.5 65.95 24.45 64.9 24.45 63.15 24.4 62.25 24.95 60.15 25.8 57.75 26.3 56.9 26.95 55.95 27.7 55.45 29.05 54.65 30.8 55.05
M 17.1 73.8
Q 17.25 73 17.85 72.5 18.5 71.95 19.25 72 19.5 72 19.4 71.85 20.3 72.05 20.8 72.45 21.95 73.35 21.55 74.8 21.4 75.7 20.45 76.3 19.6 76.8 18.6 76.45 17.8 76.2 17.4 75.4 16.95 74.65 17.1 73.8
M 31 97.55
Q 30.9 95.9 32.5 95.15 33.05 94.95 33.4 95
L 33.6 95
Q 33.75 95 33.6 94.85 35.35 94.95 35.95 96.45 36.25 97.15 36.1 97.95 35.95 98.75 35.4 99.3 34.85 99.85 34.1 100 33.3 100.15 32.6 99.85 31.9 99.6 31.45 98.95 31 98.3 31 97.55
M 70.6 108.8
Q 70.7 109.75 70.4 110.45 70.1 111.3 69.25 111.7 68 112.15 66.75 111.1 65.55 110 65.8 108.65 65.9 107.95 66.4 107.45 66.95 106.95 67.65 107 67.95 107 67.95 106.8 68.65 106.75 69.5 107.25 70.05 107.55 70.3 107.9 70.5 108.25 70.6 108.8 Z"/>
</g>

<g id="triten_wJavalin_Body_0_Layer2_0_FILL">
<path fill="#000000" stroke="none" d="
M 35.45 13.45
Q 34.55 11.45 33.6 10.2 31.9 7.95 28.1 5.9 23.65 3.5 19 2.8 13.95 2.05 9.55 3.4 9.75 2.75 9.05 2.3 8.35 1.9 7.7 2.2 6.75 2.55 6.05 4.4 2.3 13.1 -3 21.3 -4.55 23.6 -5.8 24.9 -7.6 26.7 -9.55 27.25 -11.2 27.75 -12.55 27.25 -13.3 26.95 -14.7 25.9 -17.1 24.1 -20.4 22.35 -22.3 21.35 -26.45 19.45 -28.4 18.6 -29.3 19 -30.55 19.4 -30.95 21.2 -31.4 23 -30.8 25.25 -30.4 26.75 -29.3 29.15 -27.15 33.85 -25.85 36.15 -23.75 39.95 -21.3 42.4 -20.25 43.45 -20.15 44.1 -20.05 44.75 -20.55 45.95 -21.9 49.35 -22.3 53.05 -22.45 54.25 -22.05 55.2 -21.65 56.25 -20.7 56.3 -20.05 56.35 -19 55.5 -17.55 54.25 -15.5 52.05 -13.95 50.3 -13.15 49.45 -11.75 48 -10.45 47.35 -8.25 46.25 -4.9 46.5 -4.55 46.5 0.85 47.3 9.3 48.45 17.65 45.45 26 42.45 31.75 36.1 36.75 30.7 37.55 24.85 38.2 19.65 35.45 13.45
M 31.65 16.35
Q 31.728125 16.522265625 31.8 16.7 32.5296875 18.3421875 32.9 19.7 33.096484375 20.3375 33.2 20.9 34.15 25.65 31 30.55 28.9 34 24 37.7 21.7 39.45 19.6 40.55 15.181640625 42.83359375 9.25 43.35 9.2388671875 43.3466796875 9.2 43.35 4.65 43.75 -1.7 43.15 -4.65 42.9 -5.8 42.9 -8.05 42.9 -9.75 43.55 -11.9 44.4 -14.85 47.55 -17.00234375 49.7408203125 -18.8 51.7 -19.3412109375 52.321875 -19.85 52.9 -19 48.9 -17.15 45.3 -16.4443359375 44.0810546875 -16.3 43.15 -16.1783203125 42.630078125 -16.25 42.2 -16.4 41.3 -17.85 39.85 -22.5982421875 35.1671875 -25.35 29.3 -26.8029296875 26.248828125 -27.7 22.85
L -21.3 25.5
Q -18.8 26.5 -17.7 27.2 -15.05 29.25 -13.55 29.9 -11.45 30.8 -9 30.35 -6.7 29.95 -4.7 28.5 -1.8 26.4 1.25 21.45 3.6 17.8 4.8 15.15 5.54375 13.51953125 5.95 12.6 6.3001953125 11.9568359375 6.45 11.7 7.5 9.8 8.85 8.9 10.15 8.1 11.8 7.8 16.35 6.9 23.8 9.4 28 10.75 29.6 12.65 30.65 13.85 31.65 16.35 Z"/>

<path fill="#00CCFF" stroke="none" d="
M -16.3 43.15
Q -16.4443359375 44.0810546875 -17.15 45.3 -19 48.9 -19.85 52.9 -19.3412109375 52.321875 -18.8 51.7 -16.6470703125 48.072265625 -14.15 44.4 -15.1341796875 43.8982421875 -16.3 43.15
M 4.8 15.15
Q 3.6 17.8 1.25 21.45 -1.8 26.4 -4.7 28.5 -6.7 29.95 -9 30.35 -11.45 30.8 -13.55 29.9 -15.05 29.25 -17.7 27.2 -18.8 26.5 -21.3 25.5
L -27.7 22.85
Q -26.8029296875 26.248828125 -25.35 29.3 -23.20703125 30.5521484375 -23 30.7 -18.9 34.2 -16.8 35.85 -13.1 38.85 -9.9 39.2 -8.7 39.35 -7.1 39.2 -5.2 39 -4.3 38.9 -1.5 38.55 -0.65 38.25 1 37.7 2.65 36.15 3.75 35.1 5.4 33.1
L 12.1 25.05
Q 7.9 21.8 6.45 15.55 6.1673828125 14.366796875 5.95 12.6 5.54375 13.51953125 4.8 15.15
M 33.2 20.9
Q 33.096484375 20.3375 32.9 19.7 32.2099609375 20.6658203125 31.15 21.95 28.95 24.55 28.95 26.5 29 26.95 29.1 27.85 29.2 28.7 29.05 29.2 28.7 30.4 26.6 31.65 17.4365234375 37.0197265625 9.25 43.35 15.181640625 42.83359375 19.6 40.55 21.7 39.45 24 37.7 28.9 34 31 30.55 34.15 25.65 33.2 20.9
M 25.05 14.5
Q 25.2 14.3 25.1 13.9
L 25.05 13.55 24.9 13.2 24.85 12.8 24.75 12.8 24.65 13.75
Q 24.65 14.25 25.05 14.5 Z"/>

<path fill="#0099FF" stroke="none" d="
M 31.8 16.7
Q 31.728125 16.522265625 31.65 16.35 30.65 13.85 29.6 12.65 28 10.75 23.8 9.4 16.35 6.9 11.8 7.8 10.15 8.1 8.85 8.9 7.5 9.8 6.45 11.7 6.3001953125 11.9568359375 5.95 12.6 6.1673828125 14.366796875 6.45 15.55 7.9 21.8 12.1 25.05
L 5.4 33.1
Q 3.75 35.1 2.65 36.15 1 37.7 -0.65 38.25 -1.5 38.55 -4.3 38.9 -5.2 39 -7.1 39.2 -8.7 39.35 -9.9 39.2 -13.1 38.85 -16.8 35.85 -18.9 34.2 -23 30.7 -23.20703125 30.5521484375 -25.35 29.3 -22.5982421875 35.1671875 -17.85 39.85 -16.4 41.3 -16.25 42.2 -16.1783203125 42.630078125 -16.3 43.15 -15.1341796875 43.8982421875 -14.15 44.4 -16.6470703125 48.072265625 -18.8 51.7 -17.00234375 49.7408203125 -14.85 47.55 -11.9 44.4 -9.75 43.55 -8.05 42.9 -5.8 42.9 -4.65 42.9 -1.7 43.15 4.65 43.75 9.2 43.35 9.2388671875 43.3466796875 9.25 43.35 17.4365234375 37.0197265625 26.6 31.65 28.7 30.4 29.05 29.2 29.2 28.7 29.1 27.85 29 26.95 28.95 26.5 28.95 24.55 31.15 21.95 32.2099609375 20.6658203125 32.9 19.7 32.5296875 18.3421875 31.8 16.7
M 25.1 13.9
Q 25.2 14.3 25.05 14.5 24.65 14.25 24.65 13.75
L 24.75 12.8 24.85 12.8 24.9 13.2 25.05 13.55 25.1 13.9 Z"/>
</g>

<g id="triten_wJavalin_Body_0_Layer1_0_FILL">
<path fill="#000000" stroke="none" d="
M 36.6 10.2
Q 35.4 6.7 34.65 3.05 34.2 1 33.45 0.45 32.85 -0.05 31.95 0 31.1 0.05 30.4 0.5 29.6 1 28.2 2.95 8.2 33.55 0.35 59.9 -0.55 62.85 0.8 63.9 1.75 64.6 3.15 64 4.2 63.5 5.3 62.3 9.15 58.25 12.05 55.85 16 52.65 19.85 50.85 25 48.45 30.9 48.25 36.7 48.1 42.05 50.15 45.95 51.75 50.7 54.95 57.2 59.3 62.15 63.45 64.05 64.95 65.05 65.2 65.95 65.45 66.8 65.2 67.7 64.95 68.1 64.25 68.85 62.95 67.6 60.55 64.25 54.25 51.05 35.85 40.2 20.8 36.6 10.2
M 45.3 47
Q 44.5 46.5875 43.75 46.25 41.5 45.2 39.6 44.75 35.15 43.65 28.3 44.3 26.6 44.45 25.15 44.75 24.85 44.45 24.55 44.15
L 22.9 42.65
Q 22.3 42 21.6 40.95 20.9 39.75 20.5 39.15 19.25 37.3 16.2 34.05 15.95 33.75 15.7 33.55 16.2 32.45 16.75 31.4 21.95 21.05 30.8 6.2 31.3 8.2 32 10.25 33.75 15.55 36.65 21.1 39.9 27.3 45.2 34.75 47.05 37.35 54.85 47.6 60.8 55.5 64.15 60.7 57 53.75 48.1 48.55 46.63125 47.675 45.3 47
M 9.7 46.9
Q 9.8 47 9.95 47.1
L 11.2 48 12.15 48.9
Q 12.65 49.3 13.85 49.9 14 50 14.3 50.15 14.25 50.15 14.2 50.2 8.1 55.25 5.7 57.95 7.4 52.55 9.7 46.9
M 18.7 42.6
Q 18.8 42.75 18.9 42.95 20.05 44.5 21.55 45.6 20.45 45.95 19.6 46.35 18.45 46.9 16.7 48.25 16.5 47.95 16.2 47.7 16 47.55 15.7 47.4 15.1 47 14 46.45 12.5 45.75 11.8 45.1 11.2 44.55 10.8 44.2 12.3 40.7 14 37.1 14.45 37.5 15.15 38.15 16.15 39.15 16.75 39.9 17.3 40.55 18.1 41.75 18.4 42.1 18.7 42.6 Z"/>

<path fill="#8E4A4A" stroke="none" d="
M 18.7 42.6
Q 18.4 42.1 18.1 41.75 17.3 40.55 16.75 39.9 16.15 39.15 15.15 38.15 14.45 37.5 14 37.1 12.3 40.7 10.8 44.2 11.2 44.55 11.8 45.1 12.5 45.75 14 46.45 15.1 47 15.7 47.4 17.1 44.95 18.7 42.6 Z"/>

<path fill="#FF9999" stroke="none" d="
M 18.9 42.95
Q 18.8 42.75 18.7 42.6 17.1 44.95 15.7 47.4 16 47.55 16.2 47.7 16.5 47.95 16.7 48.25 18.45 46.9 19.6 46.35 20.45 45.95 21.55 45.6 20.05 44.5 18.9 42.95 Z"/>

<path fill="#2F7078" stroke="none" d="
M 9.95 47.1
Q 9.8 47 9.7 46.9 7.4 52.55 5.7 57.95 8.1 55.25 14.2 50.2 14.25 50.15 14.3 50.15 14 50 13.85 49.9 12.65 49.3 12.15 48.9
L 11.2 48 9.95 47.1
M 43.75 46.25
Q 44.5 46.5875 45.3 47 42.5 44.9 40.6 43.8 37.05 41.8 33.8 41.35 33.3 41.3 29.4 41.1 26.75 41 25.15 40.35 30.15 25.7 32 10.25 31.3 8.2 30.8 6.2 21.95 21.05 16.75 31.4 16.2 32.45 15.7 33.55 15.95 33.75 16.2 34.05 19.25 37.3 20.5 39.15 20.9 39.75 21.6 40.95 22.3 42 22.9 42.65
L 24.55 44.15
Q 24.85 44.45 25.15 44.75 26.6 44.45 28.3 44.3 35.15 43.65 39.6 44.75 41.5 45.2 43.75 46.25 Z"/>

<path fill="#9ECFD5" stroke="none" d="
M 40.6 43.8
Q 42.5 44.9 45.3 47 46.63125 47.675 48.1 48.55 57 53.75 64.15 60.7 60.8 55.5 54.85 47.6 47.05 37.35 45.2 34.75 39.9 27.3 36.65 21.1 33.75 15.55 32 10.25 30.15 25.7 25.15 40.35 26.75 41 29.4 41.1 33.3 41.3 33.8 41.35 37.05 41.8 40.6 43.8 Z"/>
</g>

<g id="triten_wJavalin_Body_0_Layer0_0_FILL">
<path fill="#000000" stroke="none" d="
M 52.9 -0.6
Q 51.75 -2.25 47.85 -2.15 36.55 -1.8 14.2 0 9.45 0.3 6.6 0.85 4.95 1.15 4.25 1.85 3.35 2.65 3.35 4.05 3.35 5.35 4 6.55 4.3 7.3 5 8.25
L 7.3 11.9
Q 9.3 15 10.55 16.35 11.3 17.15 13 18.55 16.55 21.55 18.5 22.9 21.75 25.1 24.75 26 28.6 27.2 32.75 26.55 36.85 25.9 40.2 23.6 43.05 21.55 46.2 17.4 51.45 10.35 53.15 3.5 53.85 0.7 52.9 -0.6
M 41.3 6
Q 41.665234375 5.2544921875 41.9 4.5 42.2705078125 3.3228515625 42.3 2.1 42.0017578125 2.1408203125 41.65 2.15 46.622265625 1.8830078125 49.2 1.95 48.80546875 3.5873046875 48.25 5.15 46.0953125 11.502734375 41.6 16.6 39.5 19 37.2 20.55 35.3 21.8 33.65 22.15 32.4 22.45 30.5 22.45 27 22.55 24.7 21.8 23.25 21.3 20.9 19.95 17.1 17.8 15.4 16.6 13.130859375 15.023046875 11.55 13.3 11.10390625 12.8193359375 10.7 12.3 9.7 10.95 9.1 10.3 7.75 8.8 7.5 8.45 6.775390625 7.2271484375 6.7 5.35 6.7 5.15234375 6.7 4.95 7.624609375 4.84296875 8.55 4.75
L 8.6 4.7
Q 9.5296875 4.626953125 10.45 4.55
L 16.4 4
Q 16.6650390625 3.9693359375 16.9 3.95 17.006640625 4.43203125 17.35 5.05 18.7056640625 7.563671875 20 9.15 20.9927734375 10.3755859375 21.95 11.05 24.35 12.65 28.25 12.85 34.1 13 38.05 10 40.15 8.4 41.3 6
M 36.2 2.5
Q 37.9890625 2.3728515625 39.55 2.25 39.413671875 2.289453125 39.25 2.3 38.5880859375 5.5119140625 36.95 7.15 35.4 8.75 32.8 9.45 30.85 9.95 27.85 10.05 25.15 10.15 23.75 9.45 22.828515625 9.00625 22 8.05 21.6150390625 7.60546875 21.25 7.05 20.1 4.9 19.5 3.85 19.4720703125 3.79765625 19.45 3.75 22.2158203125 3.5361328125 25.15 3.35
L 36.2 2.5 Z"/>

<path fill="#8E4A4A" stroke="none" d="
M 39.55 2.25
Q 37.9890625 2.3728515625 36.2 2.5
L 25.15 3.35
Q 22.2158203125 3.5361328125 19.45 3.75 19.4720703125 3.79765625 19.5 3.85 20.1 4.9 21.25 7.05 21.6150390625 7.60546875 22 8.05 22.828515625 9.00625 23.75 9.45 25.15 10.15 27.85 10.05 30.85 9.95 32.8 9.45 35.4 8.75 36.95 7.15 38.5880859375 5.5119140625 39.25 2.3 39.413671875 2.289453125 39.55 2.25
M 18.3 10
Q 19.1912109375 9.5615234375 20 9.15 18.7056640625 7.563671875 17.35 5.05 17.006640625 4.43203125 16.9 3.95 16.6650390625 3.9693359375 16.4 4
L 10.45 4.55
Q 9.5296875 4.626953125 8.6 4.7
L 8.55 4.75
Q 8.4568359375 4.80546875 8.35 4.85 7.434375 5.1115234375 6.7 5.35 6.775390625 7.2271484375 7.5 8.45 7.75 8.8 9.1 10.3 9.7 10.95 10.7 12.3 11.10390625 12.8193359375 11.55 13.3 12.34609375 12.896875 13 12.55 14.75 11.65 18.3 10
M 42.3 2.1
Q 42.2705078125 3.3228515625 41.9 4.5 44.39921875 4.9669921875 48.15 5.15 48.209375 5.1529296875 48.25 5.15 48.80546875 3.5873046875 49.2 1.95 46.622265625 1.8830078125 41.65 2.15 42.0017578125 2.1408203125 42.3 2.1 Z"/>

<path fill="#FF9999" stroke="none" d="
M 6.7 4.95
Q 6.7 5.15234375 6.7 5.35 7.434375 5.1115234375 8.35 4.85 8.4568359375 4.80546875 8.55 4.75 7.624609375 4.84296875 6.7 4.95
M 41.9 4.5
Q 41.665234375 5.2544921875 41.3 6 40.15 8.4 38.05 10 34.1 13 28.25 12.85 24.35 12.65 21.95 11.05 20.9927734375 10.3755859375 20 9.15 19.1912109375 9.5615234375 18.3 10 14.75 11.65 13 12.55 12.34609375 12.896875 11.55 13.3 13.130859375 15.023046875 15.4 16.6 17.1 17.8 20.9 19.95 23.25 21.3 24.7 21.8 27 22.55 30.5 22.45 32.4 22.45 33.65 22.15 35.3 21.8 37.2 20.55 39.5 19 41.6 16.6 46.0953125 11.502734375 48.25 5.15 48.209375 5.1529296875 48.15 5.15 44.39921875 4.9669921875 41.9 4.5 Z"/>
</g>
</defs>

<g transform="matrix( 1, 0, 0, 1, 42.15,63.15) ">
<g transform="matrix( 1, 0, 0, 1, 0,0) ">
<use xlink:href="#triten_wJavalin_Character_21_Layer1_0_FILL"/>
</g>

<g transform="matrix( 1, 0, 0, 1, 5.45,-1.55) ">
<g transform="matrix( 0.6504974365234375, 0.46002197265625, -0.654632568359375, 0.92572021484375, 116.9,118.95) ">
<g transform="matrix( 1, 0, 0, 1, 0,0) ">
<use xlink:href="#triten_wJavalin_Arm_0_Layer0_0_FILL"/>
</g>
</g>

<g transform="matrix( 0.99493408203125, 0.10040283203125, -0.10040283203125, 0.99493408203125, 87.95,-1.65) ">
<g transform="matrix( 1, 0, 0, 1, 0,0) ">
<use xlink:href="#triten_wJavalin_Head_0_Layer0_0_FILL"/>
</g>
</g>

<g transform="matrix( 1, 0, -0.0174102783203125, 1, 85.65,121.7) ">
<g transform="matrix( 1, 0, 0, 1, 0,0) ">
<use xlink:href="#triten_wJavalin_Body_0_Layer2_0_FILL"/>
</g>

<g transform="matrix( 1, 0, 0, 1, 0,0) ">
<use xlink:href="#triten_wJavalin_Body_0_Layer1_0_FILL"/>
</g>

<g transform="matrix( 1, 0, 0, 1, 0,0) ">
<use xlink:href="#triten_wJavalin_Body_0_Layer0_0_FILL"/>
</g>
</g>

<g transform="matrix( 1.18109130859375, 0.22601318359375, -0.18792724609375, 0.9820404052734375, 116.1,122.75) ">
<g transform="matrix( 1, 0, 0, 1, 0,0) ">
<use xlink:href="#triten_wJavalin_Arm_0_Layer0_0_FILL"/>
</g>
</g>
</g>
</g>
</svg>
