
<svg xmlns="http://www.w3.org/2000/svg" version="1.1" xmlns:xlink="http://www.w3.org/1999/xlink" preserveAspectRatio="none" x="0px" y="0px" width="1000px" height="1000px" viewBox="0 0 1000 1000">
<defs>
<linearGradient id="Gradient_1" gradientUnits="userSpaceOnUse" x1="16.925" y1="42.5625" x2="21.474999999999998" y2="26.137500000000003" spreadMethod="pad">
<stop  offset="0%" stop-color="#877046"/>

<stop  offset="30.58823529411765%" stop-color="#CCCC99"/>

<stop  offset="100%" stop-color="#FFFFFF"/>
</linearGradient>

<linearGradient id="Gradient_2" gradientUnits="userSpaceOnUse" x1="10.762500000000001" y1="12.05" x2="26.4375" y2="-3.8500000000000005" spreadMethod="pad">
<stop  offset="0%" stop-color="#877046"/>

<stop  offset="30.58823529411765%" stop-color="#CCCC99"/>

<stop  offset="100%" stop-color="#FFFFFF"/>
</linearGradient>

<linearGradient id="Gradient_3" gradientUnits="userSpaceOnUse" x1="14.525" y1="-11.0125" x2="23.075000000000003" y2="-25.587500000000002" spreadMethod="pad">
<stop  offset="0%" stop-color="#877046"/>

<stop  offset="30.58823529411765%" stop-color="#CCCC99"/>

<stop  offset="100%" stop-color="#FFFFFF"/>
</linearGradient>

<filter id="Filter_1" x="-20%" y="-20%" width="140%" height="140%" color-interpolation-filters="sRGB">
<feColorMatrix in="SourceGraphic" type="matrix" values="1 0 0 0 0 0 1 0 0 0 0 0 1 0 0 0 0 0 0.5 0" result="result1"/>
</filter>

<g id="blanket_ghost_bottom_copy_5_Layer0_0_FILL">
<path fill="#4B286D" stroke="none" d="
M 92.55 95.15
Q 88.9 94.5 82.35 94.5 76.4 94.5 69.95 96.2 63.45 97.9 60.55 97.9 54.4 97.9 51.45 94.6 47.5 89 42.5 84.4 40.75 82.85 37.3 81.55 32.9 80.15 30.3 79.2 27.55 78.2 20.1 74.85 16.934765625 73.4021484375 14.15 72.15 18.8638671875 79.3466796875 31.6 86.6 36.25 89.25 47.4 96.2 57.55 101.85 64.05 101.85 66.6 101.85 78.95 100.85 92 99.85 95.2 99.25 103.95 97.7 110.4 95.9 117.65 93.9 124.4 90.95 125.4490234375 90.4923828125 126.45 89.95 123.127734375 91.4310546875 119.6 92.55 109.55 95.75 100.2 95.75 96.25 95.75 92.55 95.15 Z"/>

<path fill="#000000" stroke="none" d="
M 153.9 41.85
Q 153.7513671875 40.3611328125 153.6 39.15 150.8 57.25 146 68.05 139.0580078125 83.5537109375 126.45 89.95 125.4490234375 90.4923828125 124.4 90.95 117.65 93.9 110.4 95.9 103.95 97.7 95.2 99.25 92 99.85 78.95 100.85 66.6 101.85 64.05 101.85 57.55 101.85 47.4 96.2 36.25 89.25 31.6 86.6 18.8638671875 79.3466796875 14.15 72.15 11.583203125 68.23828125 11.35 64.35 45.1390625 54.6830078125 51.2 47.4 59.7 37.25 61 34.95 61.5072265625 34.0515625 61.9 33.1 63.1798828125 30.2291015625 63.65 26.8 63.3662109375 27.2234375 63.05 27.65 56.7419921875 35.9857421875 48.4 41 39.6 46.3 27.2 48.7 21.75 49.75 12.6 50.8 6.4 51.55 4.4 52.5 1.65 53.8 0.75 57.4 -0.1 60.7 -0.1 69.15 -0.1 80.35 9.65 86.75 11.7 88.1 18.15 91.4 23.45 94.1 25.9 96.2 34.4 103.55 43.15 107.1 52.8 111 64.25 111 67.3 111 79.1 108.9 91.1 106.75 94.75 106.65 114.3 106 125.3 99.7 134.55 94.45 137.85 91.7 143.15 87.25 146.7 80.1 150.75 71.8 152.45 65.6 154.5 58.15 154.5 49.3 154.5 48.4 154.2 45.1 154.0513671875 43.3416015625 153.9 41.85 Z"/>

<path fill="#CC33FF" stroke="none" d="
M 154.2 22.2
Q 153.45 15.45 150.55 10.8 142.7 -1.8 117.25 -1.8 78.6 -1.8 68.55 11.5 65.2 15.9 63.8 23.65 63.3994140625 25.8369140625 63.05 27.65 63.3662109375 27.2234375 63.65 26.8 63.1798828125 30.2291015625 61.9 33.1 61.5072265625 34.0515625 61 34.95 59.7 37.25 51.2 47.4 45.1390625 54.6830078125 11.35 64.35 11.583203125 68.23828125 14.15 72.15 16.934765625 73.4021484375 20.1 74.85 27.55 78.2 30.3 79.2 32.9 80.15 37.3 81.55 40.75 82.85 42.5 84.4 47.5 89 51.45 94.6 54.4 97.9 60.55 97.9 63.45 97.9 69.95 96.2 76.4 94.5 82.35 94.5 88.9 94.5 92.55 95.15 96.25 95.75 100.2 95.75 109.55 95.75 119.6 92.55 123.127734375 91.4310546875 126.45 89.95 139.0580078125 83.5537109375 146 68.05 150.8 57.25 153.6 39.15 153.7513671875 40.3611328125 153.9 41.85 154.5 35.779296875 154.5 33 154.5 25 154.2 22.2
M 65.85 45.55
Q 65.8 46.25 65.1 47.75 65.35 48.2 67.75 50.45 70.25 53 71.75 54.15 71.35 55.45 71.35 57.75 71.8 58 73 59 74.6 59.8 75.8 61 72.5 59.85 71.15 60.05 71 61.8 71 63.3 71.2 63.7 72.15 64.25 72.95 65.2 73.1 65.7 71.45 65.35 70.35 65.4 69.5 66.9 68.65 68.35 68.95 68.45 69.4 69.3 69.6 69.8 69.6 70.25 67.75 70.1 67.45 70.3 67.25 70.3 67.25 70.25 61.6 75.65 61.1 75.65 57.75 74.9 55.35 73.9 52.6 75.9 53 76.3 51.95 75.45 52.3 73.95 52.4 72.25 53.1 72.3 52 71.3 50.65 70.25 49.5 68.95 49.55 69.05 43.85 69.25 43.15 69.25 42.7 68.8 45.8 68.7 47.8 67.85 48.75 67.8 47.25 66.15 46.15 64.85 40.95 60.2 37.3 57.55 35.9 57.2 35.5 57.25 36.75 55.6 40.15 55.5 42.55 55.05 47.9 53.8 50 52.15 55.9 47.9 60.5 44.6 61.1 44.65 61.9 44.5 63.9 46.35 66 42.7 66.45 43 65.55 44.7 65.85 45.55 Z"/>

<path fill="#CC99FF" stroke="none" d="
M 65.1 47.75
Q 65.8 46.25 65.85 45.55 65.55 44.7 66.45 43 66 42.7 63.9 46.35 61.9 44.5 61.1 44.65 60.5 44.6 55.9 47.9 50 52.15 47.9 53.8 42.55 55.05 40.15 55.5 36.75 55.6 35.5 57.25 35.9 57.2 37.3 57.55 40.95 60.2 46.15 64.85 47.25 66.15 48.75 67.8 47.8 67.85 45.8 68.7 42.7 68.8 43.15 69.25 43.85 69.25 49.55 69.05 49.5 68.95 50.65 70.25 52 71.3 53.1 72.3 52.4 72.25 52.3 73.95 51.95 75.45 53 76.3 52.6 75.9 55.35 73.9 57.75 74.9 61.1 75.65 61.6 75.65 67.25 70.25 67.25 70.3 67.45 70.3 67.75 70.1 69.6 70.25 69.6 69.8 69.4 69.3 68.95 68.45 68.65 68.35 69.5 66.9 70.35 65.4 71.45 65.35 73.1 65.7 72.95 65.2 72.15 64.25 71.2 63.7 71 63.3 71 61.8 71.15 60.05 72.5 59.85 75.8 61 74.6 59.8 73 59 71.8 58 71.35 57.75 71.35 55.45 71.75 54.15 70.25 53 67.75 50.45 65.35 48.2 65.1 47.75 Z"/>
</g>

<g id="blanket_ghost_hood_copy_5_Layer0_0_FILL">
<path fill="#4B286D" stroke="none" d="
M 43.15 55.35
Q 43 55.4 43.1 55.95 42.8 57.1 46.75 58.55 48.15 58.65 51.6 59.85 50.15 60.9 48.55 62.6 47.2 63.4 46.25 63.6 46.4 63.6 47.05 64 57.25 63.95 62.55 51.3 59.7 52.55 55.6 53.7 47.75 55.1 43.15 55.35
M 52.35 43.75
Q 49.2 46 47.35 48.8 46.65 48.75 47.2 49.1 48.65 47.5 51.2 46.3 55.45 42.55 63.3 36.6 62.55 36.3 62.55 36.5 53.5 38.3 43.6 40.3 23.05 43.55 11.6 42.7 8.1 42.05 6.55 41.45 4.7 40.05 4.75 39.45 4.35 40.2 4.1 41.5 2.35 47.55 7.85 50.6 12.55 52.8 20.45 51 28.15 48.2 39.1 45.45 49.9 42.1 52.35 43.75
M 137.05 22.55
Q 134.15 18.1 129.45 15.4 119.65 5.75 105 9.15 90 12.05 79.35 14.75 79.75 14.9 82.7 16 85.05 16.5 86.65 17.1 78.85 20.55 76.1 24.15 73.85 25.7 71.5 30.7 76.7 24.85 89.8 18.95 101.45 12.05 110.1 11 117.7 9.85 123.7 13.45 129.1 16.4 136.75 22.6 136.9 22.6 137.05 22.55 Z"/>

<path fill="#CC99FF" stroke="none" d="
M 56.95 18.4
Q 56.1 17.1 55.95 16.55 52.95 16.3 51.25 17.25 39.5 18.4 29.8 22.55 29.35 21.9 29.75 22.6 29.7 24 30.35 26.7 30.65 28.15 31.4 30.3 33.3 29.15 36.35 28.45 36.6 29.25 37.25 30.6 38.3 32.95 38.75 33.35 38.6 29.7 38.95 27.8 40.15 27.2 42.15 27.1 41.85 27.35 43.25 30.7 43.3 30.65 43.7 30.9 43.3 29.15 43.8 26.75 44.85 26.7 53.4 25.35 58.85 23.9 59.35 23.9 59.25 22.9 58.25 20.85 58.4 20.45 60 20.75 61 20.4 62.25 20.85 61.25 19.5 59 18.85 57.55 18.15 56.95 18.4 Z"/>

<path fill="#000000" stroke="none" d="
M 157.2 35.5
Q 159.05 40.55 159.25 42.9 158.05 52 147.15 64.4 140.8 70.65 140.5 73.3 137.25 77.8 137.95 81.6 140.1 75.85 145.35 70.35 147.4 67 153.85 61.75 164.4 51.7 165.5 40.1 164.45 31.05 158.2 23 135.8 2.7 113.15 5 89.85 5.7 74.2 6.05 59.5 5.95 45.1 9 30.65 10.95 19.7 16.55 5.55 22.25 -0.8 29.6 -4.4 33.9 -6.1 43.05 -6.15 52.2 2.7 58.85 8.95 62.85 18.15 64.15 22.15 63.95 30 59.25 31.75 58.05 33.7 56.9 33.45 57.1 33.8 58.3 33.95 60.75 36.45 62.9 37.75 63.35 40.3 64.25 41.95 64.4 43.9 64.3 44.85 63.6 46.2 63.6
L 46.25 63.6
Q 47.2 63.4 48.55 62.6 50.15 60.9 51.6 59.85 48.15 58.65 46.75 58.55 42.8 57.1 43.1 55.95 43 55.4 43.15 55.35 43.6 52.8 47.2 49.1 46.65 48.75 47.35 48.8 49.2 46 52.35 43.75 49.9 42.1 39.1 45.45 28.15 48.2 20.45 51 12.55 52.8 7.85 50.6 2.35 47.55 4.1 41.5 4.35 40.2 4.75 39.45 6.7 34.2 12.75 30.9 19.5 26.1 29.75 22.6 29.35 21.9 29.8 22.55 39.5 18.4 51.25 17.25 52.95 16.3 55.95 16.55 63.95 15.25 71.75 14.95 74.4 14.25 79.35 14.75 90 12.05 105 9.15 119.65 5.75 129.45 15.4 141.2 18.45 152.95 27.85 153.1 27.9 153.5 28.45 154.7 30.45 157.2 35.5 Z"/>

<path fill="#CC33FF" stroke="none" d="
M 129.45 15.4
Q 134.15 18.1 137.05 22.55 136.9 22.6 136.75 22.6 129.1 16.4 123.7 13.45 117.7 9.85 110.1 11 101.45 12.05 89.8 18.95 76.7 24.85 71.5 30.7 73.85 25.7 76.1 24.15 78.85 20.55 86.65 17.1 85.05 16.5 82.7 16 79.75 14.9 79.35 14.75 74.4 14.25 71.75 14.95 63.95 15.25 55.95 16.55 56.1 17.1 56.95 18.4 57.55 18.15 59 18.85 61.25 19.5 62.25 20.85 61 20.4 60 20.75 58.4 20.45 58.25 20.85 59.25 22.9 59.35 23.9 58.85 23.9 53.4 25.35 44.85 26.7 43.8 26.75 43.3 29.15 43.7 30.9 43.3 30.65 43.25 30.7 41.85 27.35 42.15 27.1 40.15 27.2 38.95 27.8 38.6 29.7 38.75 33.35 38.3 32.95 37.25 30.6 36.6 29.25 36.35 28.45 33.3 29.15 31.4 30.3 30.65 28.15 30.35 26.7 29.7 24 29.75 22.6 19.5 26.1 12.75 30.9 6.7 34.2 4.75 39.45 4.7 40.05 6.55 41.45 8.1 42.05 11.6 42.7 23.05 43.55 43.6 40.3 53.5 38.3 62.55 36.5 62.55 36.3 63.3 36.6 55.45 42.55 51.2 46.3 48.65 47.5 47.2 49.1 43.6 52.8 43.15 55.35 47.75 55.1 55.6 53.7 59.7 52.55 62.55 51.3 57.25 63.95 47.05 64 46.4 63.6 46.25 63.6
L 46.2 63.6
Q 44.85 63.6 43.9 64.3 44.7 65.9 47.2 70.15 47.7 71.6 50.3 77.05 52 81.25 53.65 83.3 57 88.7 60.1 91.75 65.65 97.7 71.05 99.45 86.25 103.45 87.6 103.85 95.05 104.85 104.4 104.85 122.55 102.3 132.15 92.35 134.75 88.55 137.05 83.8 137.25 82.4 137.95 81.65
L 137.95 81.6
Q 137.25 77.8 140.5 73.3 140.8 70.65 147.15 64.4 158.05 52 159.25 42.9 159.05 40.55 157.2 35.5 154.7 30.45 153.5 28.45 153.1 27.9 152.95 27.85 141.2 18.45 129.45 15.4 Z"/>
</g>

<g id="blanket_ghost_arm_0_Layer0_0_FILL">
<path fill="#CC33FF" stroke="none" d="
M 38.55 21.85
Q 38.05 22.5 37.5 23.3 34.6 28.85 33.45 34.95 32.65 39.1 31.15 47.45 36.45 39.8 39.3 33.3 39.65 32.5 40 31.65 40.8 24.2 42.7 18.5 40.45 19.6 38.55 21.85
M 36.3 22.05
Q 36.95 20.65 37.7 19.6 28 22.5 19.55 29.85 21.9 29 24.95 28 31.9 25.7 36.3 22.05
M 70 20.35
Q 69.35 20.35 68.2 21 66.9 21.75 66.9 22.5 66.9 23.55 67.9 24 68.75 24.35 70.4 24.35 71.7 24.35 75.25 23.7 75.25 23.95 75.25 24.2 76.2 22.65 76.2 20.2 76.2 15.95 73.25 12.45 69.85 8.4 61.5 8.4 53.15 8.35 47.2 18 41.95 26.4 39.4 44.05 39.4 43.85 39.4 43.8 39.4 42.9 39.4 42 39.15 43.2 38.85 44.3 37.3 50.2 34.75 55.8
L 35.05 55.5
Q 40.3 52.85 43.25 46.35 44.5 43.65 47.25 34 49.5 26.2 52.1 22.6 55.95 17.4 62.85 16.35 60.9 15.35 59.9 14.95 58.25 14.35 56.15 14.7 58 13.65 59 13.45 59.55 13.35 62.35 13.35 65.85 13.35 68.85 15.05 72.2 16.95 72.2 19.85
L 72.2 21.35
Q 72.05 21.1 71.25 20.75 70.4 20.35 70 20.35 Z"/>

<path fill="#4B286D" stroke="none" d="
M 62.85 20.7
Q 64.05 18.75 65.8 18.75 66.85 18.75 67.65 19.4 67.45 19.35 67.2 19.35 66.25 19.35 65.5 20.4 64.85 21.4 64.85 22.6 64.85 24.6 66.15 25.7 67.45 26.75 69.85 26.75 72.95 26.75 74.6 25.05 74.95 24.65 75.25 24.2 75.25 23.95 75.25 23.7 71.7 24.35 70.4 24.35 68.75 24.35 67.9 24 66.9 23.55 66.9 22.5 66.9 21.75 68.2 21 69.35 20.35 70 20.35 70.4 20.35 71.25 20.75 72.05 21.1 72.2 21.35
L 72.2 19.85
Q 72.2 16.95 68.85 15.05 65.85 13.35 62.35 13.35 59.55 13.35 59 13.45 58 13.65 56.15 14.7 58.25 14.35 59.9 14.95 60.9 15.35 62.85 16.35 55.95 17.4 52.1 22.6 49.5 26.2 47.25 34 44.5 43.65 43.25 46.35 40.3 52.85 35.05 55.5
L 34.75 55.8
Q 37.3 50.2 38.85 44.3 39.15 43.2 39.4 42 39.5 36.45 40 31.65 39.65 32.5 39.3 33.3 36.45 39.8 31.15 47.45 32.65 39.1 33.45 34.95 34.6 28.85 37.5 23.3 35.9 25.6 34.05 29.4
L 33.7 29.4
Q 34.8 25.05 36.3 22.05 31.9 25.7 24.95 28 21.9 29 19.55 29.85 16.6 32.35 13.8 35.45 0 50.7 0 70.05 0 71.5 0.65 75.2 0.75 75.9 0.9 76.55 3.2 84.2 6.65 85.65 11.15 87.5 13.5 88.3 17.6 89.6 20.55 89.6 30.45 89.6 38.5 81.75 46.4 74.1 49.8 61.6 51.1 56.75 52.6 50.15 54.15 43.4 54.8 39.45 56.35 30.45 56.45 30.15 57.85 26 61.8 24.05 61.85 22.3 62.85 20.7 Z"/>

<path fill="#000000" stroke="none" d="
M 74.8 2.2
Q 73.3 1.2 71.9 0.55 70.7 0.1 69.65 0 67.2 0 66 0 50.75 0 44.25 14.4 40.6 15.85 38.3 18.75 38 19.15 37.7 19.6 36.95 20.65 36.3 22.05 34.8 25.05 33.7 29.4
L 34.05 29.4
Q 35.9 25.6 37.5 23.3 38.05 22.5 38.55 21.85 40.45 19.6 42.7 18.5 40.8 24.2 40 31.65 39.5 36.45 39.4 42 39.4 42.9 39.4 43.8 39.4 43.85 39.4 44.05 41.95 26.4 47.2 18 53.15 8.35 61.5 8.4 69.85 8.4 73.25 12.45 76.2 15.95 76.2 20.2 76.2 22.65 75.25 24.2 74.95 24.65 74.6 25.05 72.95 26.75 69.85 26.75 67.45 26.75 66.15 25.7 64.85 24.6 64.85 22.6 64.85 21.4 65.5 20.4 66.25 19.35 67.2 19.35 67.45 19.35 67.65 19.4 66.85 18.75 65.8 18.75 64.05 18.75 62.85 20.7 61.85 22.3 61.8 24.05 57.85 26 56.45 30.15 56.35 30.45 54.8 39.45 54.15 43.4 52.6 50.15 51.1 56.75 49.8 61.6 46.4 74.1 38.5 81.75 30.45 89.6 20.55 89.6 17.6 89.6 13.5 88.3 11.15 87.5 6.65 85.65 3.2 84.2 0.9 76.55 0.75 76.1 0.6 75.6
L 0.6 75.25
Q 0.5962890625 75.3587890625 0.45 75.7 0.25 76.1 0.25 76.6 0.25 84.95 5 91.05 5.35 91.5 5.7 91.9 6.15 92.45 6.65 92.95 7.5 93.85 8.35 94.6 13.95 99.4 21.15 99.4 34.65 99.4 42.2 92.35 48.55 86.45 54.8 70.85 56.4 66.85 57.65 59.65 58.75 53.4 59.15 47.8 59.75 45.65 59.75 41.9 59.6 37.65 59.65 35.7 59.8 29.8 63.2 28.65 65.05 30.8 69.35 30.8 76.55 30.8 80.3 25.4 83.3 21.05 83.3 14.85 83.3 8.9 77.25 4 76 3 74.8 2.2 Z"/>
</g>

<g id="blanket_ghost_face_0_Layer0_0_FILL">
<path fill="#000000" stroke="none" d="
M 58.55 9.05
Q 49.75 0 41.5 0 32.5 0 27.45 2.7 22.65 5.3 14.1 14.4 0 29.5 0 43.5 0 52.8 12.4 57.9 21.45 61.6 30.45 61.6 38.45 61.6 48.2 55.75 53.5 52.55 57.35 49.05 62.9 41.7 64.75 37.95 67.25 32.9 67.25 26.15 67.25 18.05 58.55 9.05
M 41.8 5
Q 50 5 57.2 12.05 64.25 18.95 64.25 26.45 64.25 34.3 59.9 41.2 55.45 48.3 47.55 52.45 44.35 55 42.4 55.95 37.75 58.25 30.6 58.25 22.45 58.25 15.45 55.3 4.4 50.6 4.4 40.3 4.4 28.15 17.15 16.45 29.6 5 41.8 5 Z"/>

<path fill="#333333" stroke="none" d="
M 57.2 12.05
Q 50 5 41.8 5 29.6 5 17.15 16.45 4.4 28.15 4.4 40.3 4.4 50.6 15.45 55.3 22.45 58.25 30.6 58.25 37.75 58.25 42.4 55.95 44.35 55 47.55 52.45 55.45 48.3 59.9 41.2 64.25 34.3 64.25 26.45 64.25 18.95 57.2 12.05
M 43.55 23.95
Q 43.55 23.05 44.2 22.4 44.85 21.75 45.75 21.75 46.7 21.75 47.35 22.4 48 23.05 48 24 48 24.9 47.35 25.55 46.7 26.2 45.75 26.2 44.85 26.2 44.2 25.55 43.55 24.9 43.55 23.95
M 32.9 23.15
Q 32.9 20.95 34.05 19.35 35.25 17.8 36.9 17.8 38.55 17.8 39.75 19.35 40.95 20.95 40.95 23.2 40.95 25.4 39.75 27 38.55 28.6 36.9 28.6 35.25 28.6 34.05 27 32.9 25.4 32.9 23.15 Z"/>

<path fill="#66CCFF" stroke="none" d="
M 34.05 19.35
Q 32.9 20.95 32.9 23.15 32.9 25.4 34.05 27 35.25 28.6 36.9 28.6 38.55 28.6 39.75 27 40.95 25.4 40.95 23.2 40.95 20.95 39.75 19.35 38.55 17.8 36.9 17.8 35.25 17.8 34.05 19.35
M 44.2 22.4
Q 43.55 23.05 43.55 23.95 43.55 24.9 44.2 25.55 44.85 26.2 45.75 26.2 46.7 26.2 47.35 25.55 48 24.9 48 24 48 23.05 47.35 22.4 46.7 21.75 45.75 21.75 44.85 21.75 44.2 22.4 Z"/>
</g>

<g id="lantern_glow_2_Layer0_0_FILL">
<path fill="#3399FF" stroke="none" d="
M 117.1 73.25
Q 131.8138671875 41.017578125 116.8 26.65 101.7921875 12.3333984375 77.45 -0.15 53.1001953125 -12.5759765625 24.7 9.6 -3.6408203125 31.8255859375 -10.05 46.1 -16.46640625 60.3669921875 4 82.85 24.522265625 105.331640625 53.35 116.75 82.171875 128.2279296875 92.3 116.85 102.430859375 105.4720703125 117.1 73.25
M 108.25 59.15
Q 109.604296875 77.2501953125 94.9 91.95 80.255859375 106.5984375 63.45 103.95 46.68203125 101.3044921875 29.65 88.15 12.6177734375 75.0453125 10.95 55.35 9.2939453125 35.7013671875 24 20.95 38.6955078125 6.249609375 57 11.1 75.362890625 15.9505859375 91.1 28.5 106.8869140625 41.09921875 108.25 59.15 Z"/>

<path fill="#00FFFF" stroke="none" d="
M 94.9 91.95
Q 109.604296875 77.2501953125 108.25 59.15 106.8869140625 41.09921875 91.1 28.5 75.362890625 15.9505859375 57 11.1 38.6955078125 6.249609375 24 20.95 9.2939453125 35.7013671875 10.95 55.35 12.6177734375 75.0453125 29.65 88.15 46.68203125 101.3044921875 63.45 103.95 80.255859375 106.5984375 94.9 91.95
M 59.2 24.1
Q 70.8953125 22.796875 80.5 32.4 90.2486328125 42.097265625 85.3 53.25 80.4041015625 64.4576171875 73 75.2 65.6458984375 85.9921875 54.65 87.3 43.6513671875 88.6025390625 33.9 79 24.3046875 69.353125 28.05 58.2 31.7859375 47.090625 39.65 36.25 47.5640625 25.409375 59.2 24.1 Z"/>

<path fill="#FFFFFF" stroke="none" d="
M 80.5 32.4
Q 70.8953125 22.796875 59.2 24.1 47.5640625 25.409375 39.65 36.25 31.7859375 47.090625 28.05 58.2 24.3046875 69.353125 33.9 79 43.6513671875 88.6025390625 54.65 87.3 65.6458984375 85.9921875 73 75.2 80.4041015625 64.4576171875 85.3 53.25 90.2486328125 42.097265625 80.5 32.4 Z"/>
</g>

<g id="lantern_Hand_copy_2_2_Layer1_0_FILL">
<path fill="#000000" stroke="none" d="
M 18.4 -22.8
Q 17.65 -22.9 16.85 -22.9 12.3 -22.9 9.05 -20.6 5.9 -18.25 5.9 -14.9 5.9 -11.6 8.95 -9.4
L 5.6 -9.4 -12.25 7.95 7.55 49.7 30.95 47.6 45.05 6 28.45 -9.4 24.75 -9.4
Q 27.9 -11.6 27.9 -14.9 27.9 -18.25 24.6 -20.6 22 -22.5 18.4 -22.8
M 16.85 -21.4
Q 17.95 -21.4 18.95 -21.2 21.2 -20.8 22.95 -19.5 25.55 -17.6 25.55 -14.85 25.55 -12.15 22.95 -10.3 22.85 -10.2 22.8 -10.1 21.65 -9.3 20.3 -8.85 18.7 -8.35 16.85 -8.35 15.05 -8.35 13.45 -8.85 11.95 -9.35 10.7 -10.3 8.2 -12.15 8.2 -14.85 8.2 -17.6 10.7 -19.5 13.25 -21.4 16.85 -21.4
M 22 -6.2
L 26 -6.2 35.65 8.1 27.65 8.1 -1.3 8.1 8.15 -6.2 22 -6.2
M 10.65 43.1
L 7.95 37.75 25.2 37.75 28.7 37.75 25.75 43.4 23.5 43.35 10.65 43.1
M 31.15 36.4
L 5.45 36.7 -4.6 9.75 39.2 9.75 31.15 36.4
M 13.95 -14.75
Q 13.95 -13.7 14.8 -13 15.65 -12.25 16.85 -12.25 18.1 -12.25 18.95 -13 19.8 -13.7 19.8 -14.75 19.8 -15.75 18.95 -16.5 18.1 -17.3 16.85 -17.3 15.65 -17.3 14.8 -16.5 13.95 -15.75 13.95 -14.75
M 15.65 -15.95
Q 16.2 -16.45 16.85 -16.45 17.6 -16.45 18.1 -15.95 18.65 -15.45 18.65 -14.8 18.65 -14.1 18.1 -13.65 17.6 -13.2 16.85 -13.2 16.2 -13.2 15.65 -13.65 15.15 -14.1 15.15 -14.8 15.15 -15.45 15.65 -15.95 Z"/>

<path fill="#FFFFFF" stroke="none" d="
M 23.5 43.35
L 25.75 43.4 28.7 37.75 25.2 37.75 23.5 43.35
M 26 -6.2
L 22 -6.2 27.65 8.1 35.65 8.1 26 -6.2
M 22.8 -10.1
Q 22.85 -10.2 22.95 -10.3 25.55 -12.15 25.55 -14.85 25.55 -17.6 22.95 -19.5 21.2 -20.8 18.95 -21.2 24.9 -17.1 22.8 -10.1 Z"/>

<path fill="url(#Gradient_1)" stroke="none" d="
M 7.95 37.75
L 10.65 43.1 23.5 43.35 25.2 37.75 7.95 37.75 Z"/>

<path fill="url(#Gradient_2)" stroke="none" d="
M 22 -6.2
L 8.15 -6.2 -1.3 8.1 27.65 8.1 22 -6.2 Z"/>

<path fill="url(#Gradient_3)" stroke="none" d="
M 18.95 -21.2
Q 17.95 -21.4 16.85 -21.4 13.25 -21.4 10.7 -19.5 8.2 -17.6 8.2 -14.85 8.2 -12.15 10.7 -10.3 11.95 -9.35 13.45 -8.85 15.05 -8.35 16.85 -8.35 18.7 -8.35 20.3 -8.85 21.65 -9.3 22.8 -10.1 24.9 -17.1 18.95 -21.2
M 14.8 -13
Q 13.95 -13.7 13.95 -14.75 13.95 -15.75 14.8 -16.5 15.65 -17.3 16.85 -17.3 18.1 -17.3 18.95 -16.5 19.8 -15.75 19.8 -14.75 19.8 -13.7 18.95 -13 18.1 -12.25 16.85 -12.25 15.65 -12.25 14.8 -13 Z"/>
</g>

<g id="lantern_Hand_copy_2_2_Layer0_0_FILL">
<path fill="#66CCFF" stroke="none" d="
M 24.75 23.5
Q 24.55 18.6 22.3 15.25 20.05 12.1 17 12.35 14 12.6 12 16.1 10 19.8 10.15 24.75 10.35 29.65 12.6 32.85 14.8 36.2 17.85 35.9 20.85 35.7 22.9 32 24.85 28.45 24.75 23.5
M 15.1 23.3
Q 15 21.3 15.6 19.85 16.15 18.4 17.05 18.35 17.95 18.25 18.65 19.6 19.3 20.95 19.45 22.95 19.5 24.9 18.95 26.4 18.35 27.85 17.5 27.95 16.55 28 15.9 26.6 15.15 25.25 15.1 23.3 Z"/>

<path fill="#FFFFFF" stroke="none" d="
M 15.6 19.85
Q 15 21.3 15.1 23.3 15.15 25.25 15.9 26.6 16.55 28 17.5 27.95 18.35 27.85 18.95 26.4 19.5 24.9 19.45 22.95 19.3 20.95 18.65 19.6 17.95 18.25 17.05 18.35 16.15 18.4 15.6 19.85 Z"/>
</g>

<g id="blanket_ghost_other_arm_0_Layer0_0_FILL">
<path fill="#4B286D" stroke="none" d="
M 51.3 9.95
Q 51.6 14.4 51.6 14.8 51.6 22.75 48.15 32.95 47.3 35.4 42.2 47.85
L 42.2 48.2
Q 43.75 47 46.2 43.6 48.45 40.5 49.2 38.75
L 49.85 38.75
Q 49.65 41.15 50 44.95 50.25 43.05 50.8 38.95 53.55 17.85 51.3 9.95
M 45.85 9.35
L 45.55 9.35
Q 37.05 17.5 32.7 20.4 22.55 27.15 6.95 31.8 10.1 32.45 11.55 32.45 17.75 32.45 25.25 29.5 33.15 26.4 37.1 22
L 37.1 22.35
Q 36.9 23.4 33.95 33.85 31.45 42.75 31.45 44.3 31.45 44.85 31.5 44.9 31.55 44.95 31.8 45.1 39.35 40.65 44.55 30.4 50.15 19.25 47.85 10.3
L 45.2 13.3
Q 45.2 12.4 45.85 11
L 45.85 9.35 Z"/>

<path fill="#CC33FF" stroke="none" d="
M 51.3 9.95
Q 50 5.55 47.25 5.2 43.15 4.65 37.95 7.75 30.7 11.95 28.65 12.6 23.95 14 17.9 15.25 13.25 16.15 10.25 16.75 7.65 17.65 6 18.6 0 22 0 30.25 0 36.55 13.7 47.5 26.7 57.85 31.65 57.85 33 57.85 38.9 55.75 44.7 53.6 45.55 52.85 48.05 50.55 49.05 48.55 49.25 48.15 49.55 47.55 49.65 46.9 49.75 46.25 49.85 45.85 50 44.95 49.65 41.15 49.85 38.75
L 49.2 38.75
Q 48.45 40.5 46.2 43.6 43.75 47 42.2 48.2
L 42.2 47.85
Q 47.3 35.4 48.15 32.95 51.6 22.75 51.6 14.8 51.6 14.4 51.3 9.95
M 45.55 9.35
L 45.85 9.35 45.85 11
Q 45.2 12.4 45.2 13.3
L 47.85 10.3
Q 50.15 19.25 44.55 30.4 39.35 40.65 31.8 45.1 31.55 44.95 31.5 44.9 31.45 44.85 31.45 44.3 31.45 42.75 33.95 33.85 36.9 23.4 37.1 22.35
L 37.1 22
Q 33.15 26.4 25.25 29.5 17.75 32.45 11.55 32.45 10.1 32.45 6.95 31.8 22.55 27.15 32.7 20.4 37.05 17.5 45.55 9.35 Z"/>

<path fill="#000000" stroke="none" d="
M 55.9 10.4
Q 54.65 0.8 49.1 0.1 44.55 -0.5 37.2 3.35 29.45 8 26.75 9.3 23.45 10.9 16.65 13.6 9.6 16.35 7.75 17.25 8.8 17.05 10.25 16.75 13.25 16.15 17.9 15.25 23.95 14 28.65 12.6 30.7 11.95 37.95 7.75 43.15 4.65 47.25 5.2 50 5.55 51.3 9.95 53.55 17.85 50.8 38.95 50.25 43.05 50 44.95 49.85 45.85 49.75 46.25 49.65 46.9 49.55 47.55 49.4 48.1 49.3 48.7 49.55 48.1 49.9 47.5 50 47.2 50.15 46.85 50.7 45.4 51.3 43.8 51.75 42.8 52.1 41.8 54.25 35.2 55.45 26.05 56.65 16.9 55.9 10.4 Z"/>
</g>

<g id="blanket_ghost_teddy_0_Layer0_0_FILL">
<path fill="#000000" stroke="none" d="
M 55.55 18.75
Q 55 18.75 53.6 19.15
L 52.25 19.5
Q 51.9 13.5 47.6 9.7 43.3 5.9 38.2 6.35 37.2 1.75 36.5 1 35.6 0 31.6 0 27.95 0 23.5 2.3 18.4 4.95 18.4 8.05 18.4 8.75 19.1 10.2 20 12.15 20.1 12.4 15.6 12.25 12.35 17.35 9.6876953125 21.49140625 9.5 25.95 9.5021484375 26.0365234375 9.5 26.1 5.9 26.55 3 29.5 0 32.5 0 35.75 0 38.180078125 1.2 40 2.03515625 41.2080078125 3.35 42.15 6.15 44.15 9.55 44.15 10.8 44.15 13.45 42.7 15.4 41.65 16.4 40.85 17.95 41.7 20.3 42 21.4 42.15 24.95 42.15 32.7 42.15 41.65 37.3 45.52734375 35.166015625 47.65 33.15 49.0619140625 31.8564453125 49.7 30.6 50.003515625 31.234765625 50.4 31.8 50.7744140625 32.301953125 51.2 32.75 53.7 35.45 57.2 35.45 60.35 35.45 62.3 33.1 63.4970703125 31.6265625 63.95 29.55 64.25 28.275 64.25 26.75 64.25 22.85 61.95 20.75 59.7 18.75 55.55 18.75
M 53.35 23.7
Q 53.5533203125 23.3759765625 53.75 23.05 55.070703125 21.09921875 55.9 20.75 61.6 20.75 61.6 27.1 61.6 28.6763671875 61.25 29.65 61.1203125 30.1197265625 60.9 30.45 60.05 31.85 57.75 31.85 55.55 31.85 53.9 30.85 53.2849609375 30.475 52.85 29.95 51.85 28.834765625 51.85 27.05 51.85 26.2 53.35 23.7
M 42.9 11.8
Q 49.5 12.85 49.85 20.1
L 48.85 26.85
Q 46.67421875 30.8251953125 41.85 34 40.9359375 34.6544921875 39.9 35.25 31.45 40.15 21.3 40.15 20.65 40.15 15.75 37.85 15.15 37.85 13.85 39.5 12.5 41.1 11.05 41.1 9.85 41.1 7.1 38.85 6.7779296875 38.5861328125 6.5 38.3 4.05 36.1494140625 4.05 34.45 4.05 34.05 5.7 31.4 7.55 28.45 8.55 28.45 9.05 28.45 9.6 28.6 10.05 31.25 10.3 31.95 10.5375 30.4365234375 10.9 28.85 11.1748046875 27.7974609375 11.5 26.7 12.7 22.5 14.1 20.4 16.1 17.4 16.15 17.35 16.361328125 17.0794921875 16.55 16.8 17.6875 15.5724609375 19.1 14.7 19.6 14.4 22.75 13.85 25.35 13.45 25.8 12.4 24.827734375 12.6916015625 23.3 10.9 23.29296875 10.852734375 23.25 10.8 21.65 8.9 21.75 7.7 22.25 7.6 26.95 5.55 31.25 3.7 33.15 3.7 34.45 3.7 35.3 5.25 36.45 7.4 36.8 7.7 36.3 8.35 34.9 9.75 33.65 11.05 32.9 12.05
L 33.15 12.05
Q 35.1 10.95 35.85 10.8 36.25 10.7 42.9 11.8
M 19.95 34.15
Q 19.15 34.8 19.15 35.7 19.15 36.65 19.95 37.3 20.75 37.95 21.8 37.95 22.9 37.95 23.7 37.3 24.5 36.65 24.5 35.7 24.5 34.8 23.7 34.15 22.9 33.5 21.8 33.5 20.75 33.5 19.95 34.15
M 43.95 22.2
Q 43.95 20.95 43.25 20.05 42.55 19.2 41.55 19.2 40.6 19.2 39.9 20.05 39.2 20.95 39.2 22.2 39.2 23.45 39.9 24.3 40.6 25.2 41.55 25.2 42.55 25.2 43.25 24.3 43.95 23.45 43.95 22.2 Z"/>

<path fill="#BD793E" stroke="none" d="
M 10.9 28.85
Q 10.5375 30.4365234375 10.3 31.95 10.05 31.25 9.6 28.6 9.05 28.45 8.55 28.45 7.55 28.45 5.7 31.4 4.05 34.05 4.05 34.45 4.05 36.1494140625 6.5 38.3 7.9642578125 37.463671875 9.05 36.2 11.15 33.8 11.15 31.45 11.15 29.9625 10.9 28.85
M 49.85 20.1
Q 49.5 12.85 42.9 11.8 36.25 10.7 35.85 10.8 35.1 10.95 33.15 12.05
L 32.9 12.05
Q 33.65 11.05 34.9 9.75 36.3 8.35 36.8 7.7 36.45 7.4 35.3 5.25 34.45 3.7 33.15 3.7 31.25 3.7 26.95 5.55 22.25 7.6 21.75 7.7 21.65 8.9 23.25 10.8 23.29296875 10.852734375 23.3 10.9 24.827734375 12.6916015625 25.8 12.4 25.35 13.45 22.75 13.85 19.6 14.4 19.1 14.7 17.6875 15.5724609375 16.55 16.8 16.35 18.3826171875 16.35 21.85 16.35 29.5 23.4 32.35 27.8 34.1 36.3 34.1 39.65703125 34.1 41.85 34 46.67421875 30.8251953125 48.85 26.85
L 49.85 20.1
M 43.25 20.05
Q 43.95 20.95 43.95 22.2 43.95 23.45 43.25 24.3 42.55 25.2 41.55 25.2 40.6 25.2 39.9 24.3 39.2 23.45 39.2 22.2 39.2 20.95 39.9 20.05 40.6 19.2 41.55 19.2 42.55 19.2 43.25 20.05
M 55.9 20.75
Q 55.070703125 21.09921875 53.75 23.05 54.5830078125 24.5279296875 56.35 26.35 59.130078125 29.2142578125 61.25 29.65 61.6 28.6763671875 61.6 27.1 61.6 20.75 55.9 20.75 Z"/>

<path fill="#53315F" stroke="none" d="
M 16.35 21.85
Q 16.35 18.3826171875 16.55 16.8 16.361328125 17.0794921875 16.15 17.35 16.1 17.4 14.1 20.4 12.7 22.5 11.5 26.7 11.1748046875 27.7974609375 10.9 28.85 11.15 29.9625 11.15 31.45 11.15 33.8 9.05 36.2 7.9642578125 37.463671875 6.5 38.3 6.7779296875 38.5861328125 7.1 38.85 9.85 41.1 11.05 41.1 12.5 41.1 13.85 39.5 15.15 37.85 15.75 37.85 20.65 40.15 21.3 40.15 31.45 40.15 39.9 35.25 40.9359375 34.6544921875 41.85 34 39.65703125 34.1 36.3 34.1 27.8 34.1 23.4 32.35 16.35 29.5 16.35 21.85
M 19.15 35.7
Q 19.15 34.8 19.95 34.15 20.75 33.5 21.8 33.5 22.9 33.5 23.7 34.15 24.5 34.8 24.5 35.7 24.5 36.65 23.7 37.3 22.9 37.95 21.8 37.95 20.75 37.95 19.95 37.3 19.15 36.65 19.15 35.7
M 53.75 23.05
Q 53.5533203125 23.3759765625 53.35 23.7 51.85 26.2 51.85 27.05 51.85 28.834765625 52.85 29.95 53.2849609375 30.475 53.9 30.85 55.55 31.85 57.75 31.85 60.05 31.85 60.9 30.45 61.1203125 30.1197265625 61.25 29.65 59.130078125 29.2142578125 56.35 26.35 54.5830078125 24.5279296875 53.75 23.05 Z"/>
</g>
</defs>

<g transform="matrix( 0.8803863525390625, 0, 0, 0.8803863525390625, 464.15,349.75) ">
<g transform="matrix( 1, 0, 0, 1, -76.9,6) ">
<g transform="matrix( 0.9998626708984375, 0.013214111328125, -0.008636474609375, 0.9997711181640625, 0.85,38.5) ">
<g transform="matrix( 1, 0, 0, 1, 0,0) ">
<use xlink:href="#blanket_ghost_bottom_copy_5_Layer0_0_FILL"/>
</g>
</g>

<g transform="matrix( 0.999114990234375, -0.03558349609375, 0.08880615234375, 0.9980621337890625, 7.35,3.45) ">
<g transform="matrix( 1, 0, 0, 1, 0,0) ">
<use xlink:href="#blanket_ghost_hood_copy_5_Layer0_0_FILL"/>
</g>
</g>

<g transform="matrix( 1, 0, -0.035003662109375, 1.000244140625, 126.75,19.3) ">
<g transform="matrix( 1, 0, 0, 1, 0,0) ">
<use xlink:href="#blanket_ghost_arm_0_Layer0_0_FILL"/>
</g>
</g>

<g transform="matrix( 1.000335693359375, 0.039459228515625, 0, 1, 85.3,17.45) ">
<g transform="matrix( 1, 0, 0, 1, 0,0) ">
<use xlink:href="#blanket_ghost_face_0_Layer0_0_FILL"/>
</g>
</g>

<g transform="matrix( 0.998382568359375, 0.0532379150390625, -0.0532379150390625, 0.998382568359375, 177.55,62.15) ">
<g transform="matrix( 0.74951171875, 0, 0, 0.74951171875, -26.55,-13.9) ">
<g transform="matrix( 1, 0, 0, 1, 0,0) ">
<use filter="url(#Filter_1)" xlink:href="#lantern_glow_2_Layer0_0_FILL"/>
</g>
</g>

<g transform="matrix( 1, 0, 0, 1, 0,0) ">
<use xlink:href="#lantern_Hand_copy_2_2_Layer1_0_FILL"/>
</g>

<g transform="matrix( 1, 0, 0, 1, 0,0) ">
<use xlink:href="#lantern_Hand_copy_2_2_Layer0_0_FILL"/>
</g>
</g>

<g transform="matrix( 0.9997711181640625, -0.01788330078125, 0.01788330078125, 0.9997711181640625, 88.95,70.3) ">
<g transform="matrix( 1, 0, 0, 1, 0,0) ">
<use xlink:href="#blanket_ghost_other_arm_0_Layer0_0_FILL"/>
</g>
</g>

<g transform="matrix( 0.999847412109375, -0.0137481689453125, 0.0137481689453125, 0.999847412109375, 69.25,49.15) ">
<g transform="matrix( 1, 0, 0, 1, 0,0) ">
<use xlink:href="#blanket_ghost_teddy_0_Layer0_0_FILL"/>
</g>
</g>
</g>
</g>
</svg>
