
<svg xmlns="http://www.w3.org/2000/svg" version="1.1" xmlns:xlink="http://www.w3.org/1999/xlink" preserveAspectRatio="none" x="0px" y="0px" width="1000px" height="1000px" viewBox="0 0 1000 1000">
<defs>
<linearGradient id="Gradient_1" gradientUnits="userSpaceOnUse" x1="16.925" y1="42.5625" x2="21.474999999999998" y2="26.137500000000003" spreadMethod="pad">
<stop  offset="0%" stop-color="#877046"/>

<stop  offset="30.58823529411765%" stop-color="#CCCC99"/>

<stop  offset="100%" stop-color="#FFFFFF"/>
</linearGradient>

<linearGradient id="Gradient_2" gradientUnits="userSpaceOnUse" x1="10.762500000000001" y1="12.05" x2="26.4375" y2="-3.8500000000000005" spreadMethod="pad">
<stop  offset="0%" stop-color="#877046"/>

<stop  offset="30.58823529411765%" stop-color="#CCCC99"/>

<stop  offset="100%" stop-color="#FFFFFF"/>
</linearGradient>

<linearGradient id="Gradient_3" gradientUnits="userSpaceOnUse" x1="14.525" y1="-11.0125" x2="23.075000000000003" y2="-25.587500000000002" spreadMethod="pad">
<stop  offset="0%" stop-color="#877046"/>

<stop  offset="30.58823529411765%" stop-color="#CCCC99"/>

<stop  offset="100%" stop-color="#FFFFFF"/>
</linearGradient>

<filter id="Filter_1" x="-20%" y="-20%" width="140%" height="140%" color-interpolation-filters="sRGB">
<feColorMatrix in="SourceGraphic" type="matrix" values="1 0 0 0 0 0 1 0 0 0 0 0 1 0 0 0 0 0 0.5 0" result="result1"/>
</filter>

<g id="blanket_ghost_bottom_copy_2_Layer0_0_FILL">
<path fill="#4B286D" stroke="none" d="
M 16.5 57.85
Q 13.76015625 58.917578125 11.55 59.95 18.628515625 63.0572265625 21.95 70.05 23.35 73.05 24.6 77.75 25.35 80.5 26.75 86.15 29.5529296875 96.4833984375 40.1 99.85 37.5189453125 96.8119140625 36.15 92.05 35.45 89.55 33.7 76.95 32.45 67.65 29.55 63.6 25.55 57.85 16.5 57.85
M 100.5 94.45
Q 93.55 86.6 88.9 86.6 84.55 86.6 80.9 88.4 78.5 89.55 74.25 92.9 71.0107421875 95.4396484375 67.8 97.55 77.4232421875 94.05 79.95 94.05 88.55 94.05 95.65 99.5 99.5 102.45 100.9 103.2 104.05 104.9 107.8 104.9 109.7013671875 104.9 111.7 104.25 114.4568359375 103.3744140625 117.4 101.25 114.0384765625 102.3 111.15 102.3 108.6 102.3 105.65 99.85 104.1 98.5 100.5 94.45 Z"/>

<path fill="#000000" stroke="none" d="
M 154.4 40.3
Q 154.412890625 39.20234375 154.4 38.3
L 153.55 38.2
Q 151.210546875 54.6400390625 139.65 73.1 131.2 86.65 126.95 91.95 121.951171875 98.05703125 117.4 101.25 114.4568359375 103.3744140625 111.7 104.25 109.7013671875 104.9 107.8 104.9 104.05 104.9 100.9 103.2 99.5 102.45 95.65 99.5 88.55 94.05 79.95 94.05 77.4232421875 94.05 67.8 97.55 67.5345703125 97.645703125 67.25 97.75 57.15 101.45 52.05 101.45 45.184375 101.45 40.1 99.85 29.5529296875 96.4833984375 26.75 86.15 25.35 80.5 24.6 77.75 23.35 73.05 21.95 70.05 18.628515625 63.0572265625 11.55 59.95 13.76015625 58.917578125 16.5 57.85 19.1845703125 56.816796875 22.4 55.75 37.85 50.65 41 49.35 51.4 45.05 57 39.35 60.5654296875 35.7591796875 62.6 31.25 63.917578125 28.3970703125 64.6 25.15 64.4841796875 25.3083984375 64.35 25.45 59.5779296875 31.8607421875 51.45 36.5 42.25 41.75 30.75 43.9 22.6 45.3 18.6 46.15 11.7 47.65 7.45 49.8 -2.4408203125 54.7671875 -3.55 66.1 -2.0544921875 65.7 -1 65.7 5.6 65.7 9.45 72.6 11.75 76.7 15.75 87.7 20.15 97.8 26.75 102.85 35.85 109.7 51.45 109.7 54.85 109.7 65.05 106.25 75.25 102.75 77.1 102.75 85.55 102.75 92.35 106.7 96.2 108.9 97.35 109.35 100.3 110.6 103.7 110.6 111.85 110.6 121.25 103.7 129.65 97.5 137.45 87 144.85 77.1 149.4 66.5 154.05 55.75 154.05 48.25 154.346875 43.462890625 154.4 40.3 Z"/>

<path fill="#CC33FF" stroke="none" d="
M 154.5 35.2
Q 154.5 15.95 144.85 8.6 135.7 1.6 112.2 1.6 102.15 1.6 89.45 4.6 77.75 7.8 75.6 8.2 69.6 9.35 66.55 18 65.75 20.15 64.45 25.15 64.4078125 25.3095703125 64.35 25.45 64.4841796875 25.3083984375 64.6 25.15 63.917578125 28.3970703125 62.6 31.25 60.5654296875 35.7591796875 57 39.35 51.4 45.05 41 49.35 37.85 50.65 22.4 55.75 19.1845703125 56.816796875 16.5 57.85 25.55 57.85 29.55 63.6 32.45 67.65 33.7 76.95 35.45 89.55 36.15 92.05 37.5189453125 96.8119140625 40.1 99.85 45.184375 101.45 52.05 101.45 57.15 101.45 67.25 97.75 67.5345703125 97.645703125 67.8 97.55 71.0107421875 95.4396484375 74.25 92.9 78.5 89.55 80.9 88.4 84.55 86.6 88.9 86.6 93.55 86.6 100.5 94.45 104.1 98.5 105.65 99.85 108.6 102.3 111.15 102.3 114.0384765625 102.3 117.4 101.25 121.951171875 98.05703125 126.95 91.95 131.2 86.65 139.65 73.1 151.210546875 54.6400390625 153.55 38.2
L 154.4 38.3
Q 154.412890625 39.20234375 154.4 40.3 154.5 39.35 154.5 35.2
M 55.25 46
Q 59.8 43.45 60.65 43.7 61.9 44.1 64.25 46.15 67.9 43.8 68.15 43.75 67.4 45.55 67.25 46.15 66.85 46.9 65.85 47.75 66.2 48.2 69.05 50.75 71.7 53.35 73.4 54.75 72.75 55.85 72.35 57.75 73.15 58.35 74.25 59.3 76 60.85 76.6 61.75 74.05 60.4 71.9 59.95 71.65 62 71.05 63.6 71.15 63.95 72.25 65.1 72.9 66.35 73 66.95 71.05 66.15 69.5 65.75 67.95 67.1 66 68.2 66.45 68.6 66.8 69.5 67.15 70.4 66.85 70.65 64.1 69.7 63.65 69.7 63.4 69.75 63.35 69.6 56.65 73.3 56.55 73.6 53.75 73.05 50.8 71.65 47.2 73.85 47.25 74.05 46.4 73.7 47.2 71.8 48 70.15 48.7 69.95 47.85 69.15 46.8 67.5 46.1 66 46.05 65.75 40.4 66.55 39.45 66.45 39.5 66.25 42.3 65.4 44.95 64.4 45.7 64.25 44.95 61.95 44.3 60.45 41.55 56.05 38.25 53.55 37.15 53.25 36.5 53 38.35 52.1 41.15 52 43.55 51.85 48.15 50.6 50 49.5 55.25 46 Z"/>

<path fill="#CC99FF" stroke="none" d="
M 60.65 43.7
Q 59.8 43.45 55.25 46 50 49.5 48.15 50.6 43.55 51.85 41.15 52 38.35 52.1 36.5 53 37.15 53.25 38.25 53.55 41.55 56.05 44.3 60.45 44.95 61.95 45.7 64.25 44.95 64.4 42.3 65.4 39.5 66.25 39.45 66.45 40.4 66.55 46.05 65.75 46.1 66 46.8 67.5 47.85 69.15 48.7 69.95 48 70.15 47.2 71.8 46.4 73.7 47.25 74.05 47.2 73.85 50.8 71.65 53.75 73.05 56.55 73.6 56.65 73.3 63.35 69.6 63.4 69.75 63.65 69.7 64.1 69.7 66.85 70.65 67.15 70.4 66.8 69.5 66.45 68.6 66 68.2 67.95 67.1 69.5 65.75 71.05 66.15 73 66.95 72.9 66.35 72.25 65.1 71.15 63.95 71.05 63.6 71.65 62 71.9 59.95 74.05 60.4 76.6 61.75 76 60.85 74.25 59.3 73.15 58.35 72.35 57.75 72.75 55.85 73.4 54.75 71.7 53.35 69.05 50.75 66.2 48.2 65.85 47.75 66.85 46.9 67.25 46.15 67.4 45.55 68.15 43.75 67.9 43.8 64.25 46.15 61.9 44.1 60.65 43.7 Z"/>
</g>

<g id="blanket_ghost_hood_copy_2_Layer0_0_FILL">
<path fill="#4B286D" stroke="none" d="
M 44.05 60.25
Q 43.85 60.35 44.05 60.85 44.1 62.15 47.9 62.85 49.45 62.95 52.85 63.2 51.45 64.85 49.8 66.5 48.75 67.5 47.6 67.95 47.85 68.1 48.45 68.2 59.25 66.5 63.05 52.65 60.5 54.45 56.3 56.2 48.65 59.3 44.05 60.25
M 62 37.45
Q 61.55 37.35 61.25 37.45 52.45 40.95 42.65 44.9 22.6 52.6 11.1 53.45 7.95 53.5 5.95 52.85 4.25 52.05 3.9 51.1 3.65 52.1 3.55 53.35 3.1 59.95 8.5 61.85 13.45 63.55 21.05 60.15 28.55 56.55 38.85 51.05 49.3 45.35 51.8 46.65 49.15 49.8 47.5 52.8 47.25 52.95 47.4 53.1 49 51.5 50.95 49.4 54.75 45.1 62 37.45
M 134.7 21
Q 131.8 17.25 127 14.9 117.3 6.4 102.35 9 87.5 11.4 77.05 13.9 77.55 14.3 80.25 15.1 83.05 15.85 84.2 16.15 77 19.75 74 23.35 71.9 25.5 69.8 30.4 75.3 23.85 87.35 17.9 98.9 11.45 107.3 10.7 115.3 10.15 121.2 13.2 126.55 15.9 134.35 21.05
L 134.7 21 Z"/>

<path fill="#CC99FF" stroke="none" d="
M 53.7 19.9
Q 52.7 18.8 52.5 18.2 49.7 18.6 47.55 19.75 35.7 23.25 26.15 29.7 25.9 29.55 26.1 29.75 26.25 31.4 27.25 33.75 27.85 35.35 28.85 37.3 30.75 35.7 33.65 34.3 34.1 35.25 34.75 36.2 36.5 38.6 36.7 38.75 36.25 35.4 36.1 33.05 37.35 32.4 39.2 31.7 39.2 31.95 40.9 35.2 40.9 35.25 41.25 35.2 41 33.8 40.85 31 42.05 30.5 50.6 27.45 56.4 25.4 56.5 25.05 56.55 24.25 55.05 22 55.4 21.9 56.85 21.7 58.1 21.5 59.3 21.5 58.55 20.5 55.8 20 54.55 19.75 53.7 19.9 Z"/>

<path fill="#CC33FF" stroke="none" d="
M 157.9 37.75
Q 157.6 35.95 155.2 31.4 152.85 27.3 151.3 25.4 150.95 25 150.8 25 139 17.75 127 14.9 131.8 17.25 134.7 21
L 134.35 21.05
Q 126.55 15.9 121.2 13.2 115.3 10.15 107.3 10.7 98.9 11.45 87.35 17.9 75.3 23.85 69.8 30.4 71.9 25.5 74 23.35 77 19.75 84.2 16.15 83.05 15.85 80.25 15.1 77.55 14.3 77.05 13.9 72.1 14 69.05 14.5 61.1 15.6 52.5 18.2 52.7 18.8 53.7 19.9 54.55 19.75 55.8 20 58.55 20.5 59.3 21.5 58.1 21.5 56.85 21.7 55.4 21.9 55.05 22 56.55 24.25 56.5 25.05 56.4 25.4 50.6 27.45 42.05 30.5 40.85 31 41 33.8 41.25 35.2 40.9 35.25 40.9 35.2 39.2 31.95 39.2 31.7 37.35 32.4 36.1 33.05 36.25 35.4 36.7 38.75 36.5 38.6 34.75 36.2 34.1 35.25 33.65 34.3 30.75 35.7 28.85 37.3 27.85 35.35 27.25 33.75 26.25 31.4 26.1 29.75 16.35 35.75 10.25 41.35 5.1 45.8 3.9 51.1 4.25 52.05 5.95 52.85 7.95 53.5 11.1 53.45 22.6 52.6 42.65 44.9 52.45 40.95 61.25 37.45 61.55 37.35 62 37.45 54.75 45.1 50.95 49.4 49 51.5 47.4 53.1 44.2 57.9 44.05 60.25 48.65 59.3 56.3 56.2 60.5 54.45 63.05 52.65 59.25 66.5 48.45 68.2 47.85 68.1 47.6 67.95 46.45 68.5 45.25 68.95 46.45 70.7 48.5 73.95 49.5 75.45 51.7 79.8 53.4 83.65 54.7 85.1 58.2 89.75 60.85 92.3 66.3 97.75 71.45 99.4 86.75 103.65 87.85 103.95 95.5 105.5 104.55 104.8 123.15 102.9 132.65 92 135.65 88.05 138.25 82.5 138.85 81.15 139.45 80.05 139.3 80 139.5 79.95 139.25 76 142.5 70.3 143.5 67.75 149.05 59.7 158.35 45.35 157.9 37.75 Z"/>

<path fill="#000000" stroke="none" d="
M 155.2 31.4
Q 157.6 35.95 157.9 37.75 158.35 45.35 149.05 59.7 143.5 67.75 142.5 70.3 139.25 76 139.5 79.95 142.4 73.4 147.5 66.7 150.05 62.85 155.7 56.25 164.2 44.85 163.6 34.5 162.45 26.95 156.05 20.5 133.75 5.05 110.5 5.55 87.3 5.3 71.65 5.9 56.05 6.75 40.95 12.75 26.05 18.25 15.1 25.5 1.65 33.95 -3.55 41.55 -6.85 46.8 -6.5 55.9 -5.4 65.5 3.9 70.5 10.15 73.65 19.4 73.1 23.55 72.55 31.1 66.7 32.9 65.25 34.8 63.65 34.75 63.85 34.95 65.05 35.3 67.7 37.75 68.9 39.15 69.4 41.6 69.6 43.55 69.35 45.25 68.95 46.45 68.5 47.6 67.95 48.75 67.5 49.8 66.5 51.45 64.85 52.85 63.2 49.45 62.95 47.9 62.85 44.1 62.15 44.05 60.85 43.85 60.35 44.05 60.25 44.2 57.9 47.4 53.1 47.25 52.95 47.5 52.8 49.15 49.8 51.8 46.65 49.3 45.35 38.85 51.05 28.55 56.55 21.05 60.15 13.45 63.55 8.5 61.85 3.1 59.95 3.55 53.35 3.65 52.1 3.9 51.1 5.1 45.8 10.25 41.35 16.35 35.75 26.1 29.75 25.9 29.55 26.15 29.7 35.7 23.25 47.55 19.75 49.7 18.6 52.5 18.2 61.1 15.6 69.05 14.5 72.1 14 77.05 13.9 87.5 11.4 102.35 9 117.3 6.4 127 14.9 139 17.75 150.8 25 150.95 25 151.3 25.4 152.85 27.3 155.2 31.4 Z"/>
</g>

<g id="blanket_ghost_arm_0_Layer0_0_FILL">
<path fill="#CC33FF" stroke="none" d="
M 38.55 21.85
Q 38.05 22.5 37.5 23.3 34.6 28.85 33.45 34.95 32.65 39.1 31.15 47.45 36.45 39.8 39.3 33.3 39.65 32.5 40 31.65 40.8 24.2 42.7 18.5 40.45 19.6 38.55 21.85
M 36.3 22.05
Q 36.95 20.65 37.7 19.6 28 22.5 19.55 29.85 21.9 29 24.95 28 31.9 25.7 36.3 22.05
M 70 20.35
Q 69.35 20.35 68.2 21 66.9 21.75 66.9 22.5 66.9 23.55 67.9 24 68.75 24.35 70.4 24.35 71.7 24.35 75.25 23.7 75.25 23.95 75.25 24.2 76.2 22.65 76.2 20.2 76.2 15.95 73.25 12.45 69.85 8.4 61.5 8.4 53.15 8.35 47.2 18 41.95 26.4 39.4 44.05 39.4 43.85 39.4 43.8 39.4 42.9 39.4 42 39.15 43.2 38.85 44.3 37.3 50.2 34.75 55.8
L 35.05 55.5
Q 40.3 52.85 43.25 46.35 44.5 43.65 47.25 34 49.5 26.2 52.1 22.6 55.95 17.4 62.85 16.35 60.9 15.35 59.9 14.95 58.25 14.35 56.15 14.7 58 13.65 59 13.45 59.55 13.35 62.35 13.35 65.85 13.35 68.85 15.05 72.2 16.95 72.2 19.85
L 72.2 21.35
Q 72.05 21.1 71.25 20.75 70.4 20.35 70 20.35 Z"/>

<path fill="#4B286D" stroke="none" d="
M 62.85 20.7
Q 64.05 18.75 65.8 18.75 66.85 18.75 67.65 19.4 67.45 19.35 67.2 19.35 66.25 19.35 65.5 20.4 64.85 21.4 64.85 22.6 64.85 24.6 66.15 25.7 67.45 26.75 69.85 26.75 72.95 26.75 74.6 25.05 74.95 24.65 75.25 24.2 75.25 23.95 75.25 23.7 71.7 24.35 70.4 24.35 68.75 24.35 67.9 24 66.9 23.55 66.9 22.5 66.9 21.75 68.2 21 69.35 20.35 70 20.35 70.4 20.35 71.25 20.75 72.05 21.1 72.2 21.35
L 72.2 19.85
Q 72.2 16.95 68.85 15.05 65.85 13.35 62.35 13.35 59.55 13.35 59 13.45 58 13.65 56.15 14.7 58.25 14.35 59.9 14.95 60.9 15.35 62.85 16.35 55.95 17.4 52.1 22.6 49.5 26.2 47.25 34 44.5 43.65 43.25 46.35 40.3 52.85 35.05 55.5
L 34.75 55.8
Q 37.3 50.2 38.85 44.3 39.15 43.2 39.4 42 39.5 36.45 40 31.65 39.65 32.5 39.3 33.3 36.45 39.8 31.15 47.45 32.65 39.1 33.45 34.95 34.6 28.85 37.5 23.3 35.9 25.6 34.05 29.4
L 33.7 29.4
Q 34.8 25.05 36.3 22.05 31.9 25.7 24.95 28 21.9 29 19.55 29.85 16.6 32.35 13.8 35.45 0 50.7 0 70.05 0 71.5 0.65 75.2 0.75 75.9 0.9 76.55 3.2 84.2 6.65 85.65 11.15 87.5 13.5 88.3 17.6 89.6 20.55 89.6 30.45 89.6 38.5 81.75 46.4 74.1 49.8 61.6 51.1 56.75 52.6 50.15 54.15 43.4 54.8 39.45 56.35 30.45 56.45 30.15 57.85 26 61.8 24.05 61.85 22.3 62.85 20.7 Z"/>

<path fill="#000000" stroke="none" d="
M 74.8 2.2
Q 73.3 1.2 71.9 0.55 70.7 0.1 69.65 0 67.2 0 66 0 50.75 0 44.25 14.4 40.6 15.85 38.3 18.75 38 19.15 37.7 19.6 36.95 20.65 36.3 22.05 34.8 25.05 33.7 29.4
L 34.05 29.4
Q 35.9 25.6 37.5 23.3 38.05 22.5 38.55 21.85 40.45 19.6 42.7 18.5 40.8 24.2 40 31.65 39.5 36.45 39.4 42 39.4 42.9 39.4 43.8 39.4 43.85 39.4 44.05 41.95 26.4 47.2 18 53.15 8.35 61.5 8.4 69.85 8.4 73.25 12.45 76.2 15.95 76.2 20.2 76.2 22.65 75.25 24.2 74.95 24.65 74.6 25.05 72.95 26.75 69.85 26.75 67.45 26.75 66.15 25.7 64.85 24.6 64.85 22.6 64.85 21.4 65.5 20.4 66.25 19.35 67.2 19.35 67.45 19.35 67.65 19.4 66.85 18.75 65.8 18.75 64.05 18.75 62.85 20.7 61.85 22.3 61.8 24.05 57.85 26 56.45 30.15 56.35 30.45 54.8 39.45 54.15 43.4 52.6 50.15 51.1 56.75 49.8 61.6 46.4 74.1 38.5 81.75 30.45 89.6 20.55 89.6 17.6 89.6 13.5 88.3 11.15 87.5 6.65 85.65 3.2 84.2 0.9 76.55 0.75 76.1 0.6 75.6
L 0.6 75.25
Q 0.5962890625 75.3587890625 0.45 75.7 0.25 76.1 0.25 76.6 0.25 84.95 5 91.05 5.35 91.5 5.7 91.9 6.15 92.45 6.65 92.95 7.5 93.85 8.35 94.6 13.95 99.4 21.15 99.4 34.65 99.4 42.2 92.35 48.55 86.45 54.8 70.85 56.4 66.85 57.65 59.65 58.75 53.4 59.15 47.8 59.75 45.65 59.75 41.9 59.6 37.65 59.65 35.7 59.8 29.8 63.2 28.65 65.05 30.8 69.35 30.8 76.55 30.8 80.3 25.4 83.3 21.05 83.3 14.85 83.3 8.9 77.25 4 76 3 74.8 2.2 Z"/>
</g>

<g id="blanket_ghost_face_0_Layer0_0_FILL">
<path fill="#000000" stroke="none" d="
M 58.55 9.05
Q 49.75 0 41.5 0 32.5 0 27.45 2.7 22.65 5.3 14.1 14.4 0 29.5 0 43.5 0 52.8 12.4 57.9 21.45 61.6 30.45 61.6 38.45 61.6 48.2 55.75 53.5 52.55 57.35 49.05 62.9 41.7 64.75 37.95 67.25 32.9 67.25 26.15 67.25 18.05 58.55 9.05
M 41.8 5
Q 50 5 57.2 12.05 64.25 18.95 64.25 26.45 64.25 34.3 59.9 41.2 55.45 48.3 47.55 52.45 44.35 55 42.4 55.95 37.75 58.25 30.6 58.25 22.45 58.25 15.45 55.3 4.4 50.6 4.4 40.3 4.4 28.15 17.15 16.45 29.6 5 41.8 5 Z"/>

<path fill="#333333" stroke="none" d="
M 57.2 12.05
Q 50 5 41.8 5 29.6 5 17.15 16.45 4.4 28.15 4.4 40.3 4.4 50.6 15.45 55.3 22.45 58.25 30.6 58.25 37.75 58.25 42.4 55.95 44.35 55 47.55 52.45 55.45 48.3 59.9 41.2 64.25 34.3 64.25 26.45 64.25 18.95 57.2 12.05
M 43.55 23.95
Q 43.55 23.05 44.2 22.4 44.85 21.75 45.75 21.75 46.7 21.75 47.35 22.4 48 23.05 48 24 48 24.9 47.35 25.55 46.7 26.2 45.75 26.2 44.85 26.2 44.2 25.55 43.55 24.9 43.55 23.95
M 32.9 23.15
Q 32.9 20.95 34.05 19.35 35.25 17.8 36.9 17.8 38.55 17.8 39.75 19.35 40.95 20.95 40.95 23.2 40.95 25.4 39.75 27 38.55 28.6 36.9 28.6 35.25 28.6 34.05 27 32.9 25.4 32.9 23.15 Z"/>

<path fill="#66CCFF" stroke="none" d="
M 34.05 19.35
Q 32.9 20.95 32.9 23.15 32.9 25.4 34.05 27 35.25 28.6 36.9 28.6 38.55 28.6 39.75 27 40.95 25.4 40.95 23.2 40.95 20.95 39.75 19.35 38.55 17.8 36.9 17.8 35.25 17.8 34.05 19.35
M 44.2 22.4
Q 43.55 23.05 43.55 23.95 43.55 24.9 44.2 25.55 44.85 26.2 45.75 26.2 46.7 26.2 47.35 25.55 48 24.9 48 24 48 23.05 47.35 22.4 46.7 21.75 45.75 21.75 44.85 21.75 44.2 22.4 Z"/>
</g>

<g id="lantern_glow_1_Layer0_0_FILL">
<path fill="#3399FF" stroke="none" d="
M 130.2 59.45
Q 130.2 30.15 109.45 9.4 88.75 -11.3 59.45 -11.3 30.15 -11.3 9.4 9.4 -11.3 30.15 -11.3 59.45 -11.3 88.75 9.4 109.45 30.15 130.2 59.45 130.2 88.75 130.2 109.45 109.45 130.2 88.75 130.2 59.45
M 113.95 56.15
Q 113.95 78.75 98 94.7 82.05 110.7 59.45 110.7 36.85 110.7 20.9 94.7 4.95 78.75 4.95 56.15 4.95 33.55 20.9 17.55 36.85 1.6 59.45 1.6 82.05 1.6 98 17.55 113.95 33.55 113.95 56.15 Z"/>

<path fill="#00FFFF" stroke="none" d="
M 98 94.7
Q 113.95 78.75 113.95 56.15 113.95 33.55 98 17.55 82.05 1.6 59.45 1.6 36.85 1.6 20.9 17.55 4.95 33.55 4.95 56.15 4.95 78.75 20.9 94.7 36.85 110.7 59.45 110.7 82.05 110.7 98 94.7
M 92.95 55.35
Q 92.95 70.2 82.45 80.65 71.95 91.15 57.1 91.15 42.25 91.15 31.75 80.65 21.25 70.2 21.25 55.35 21.25 40.5 31.75 30 42.25 19.55 57.1 19.55 71.95 19.55 82.45 30 92.95 40.5 92.95 55.35 Z"/>

<path fill="#FFFFFF" stroke="none" d="
M 82.45 80.65
Q 92.95 70.2 92.95 55.35 92.95 40.5 82.45 30 71.95 19.55 57.1 19.55 42.25 19.55 31.75 30 21.25 40.5 21.25 55.35 21.25 70.2 31.75 80.65 42.25 91.15 57.1 91.15 71.95 91.15 82.45 80.65 Z"/>
</g>

<g id="lantern_Hand_copy_2_1_Layer1_0_FILL">
<path fill="#000000" stroke="none" d="
M 18.4 -22.8
Q 17.65 -22.9 16.85 -22.9 12.3 -22.9 9.05 -20.6 5.9 -18.25 5.9 -14.9 5.9 -11.6 8.95 -9.4
L 5.6 -9.4 -12.25 7.95 7.55 49.7 30.95 47.6 45.05 6 28.45 -9.4 24.75 -9.4
Q 27.9 -11.6 27.9 -14.9 27.9 -18.25 24.6 -20.6 22 -22.5 18.4 -22.8
M 16.85 -21.4
Q 17.95 -21.4 18.95 -21.2 21.2 -20.8 22.95 -19.5 25.55 -17.6 25.55 -14.85 25.55 -12.15 22.95 -10.3 22.85 -10.2 22.8 -10.1 21.65 -9.3 20.3 -8.85 18.7 -8.35 16.85 -8.35 15.05 -8.35 13.45 -8.85 11.95 -9.35 10.7 -10.3 8.2 -12.15 8.2 -14.85 8.2 -17.6 10.7 -19.5 13.25 -21.4 16.85 -21.4
M 22 -6.2
L 26 -6.2 35.65 8.1 27.65 8.1 -1.3 8.1 8.15 -6.2 22 -6.2
M 10.65 43.1
L 7.95 37.75 25.2 37.75 28.7 37.75 25.75 43.4 23.5 43.35 10.65 43.1
M 31.15 36.4
L 5.45 36.7 -4.6 9.75 39.2 9.75 31.15 36.4
M 13.95 -14.75
Q 13.95 -13.7 14.8 -13 15.65 -12.25 16.85 -12.25 18.1 -12.25 18.95 -13 19.8 -13.7 19.8 -14.75 19.8 -15.75 18.95 -16.5 18.1 -17.3 16.85 -17.3 15.65 -17.3 14.8 -16.5 13.95 -15.75 13.95 -14.75
M 15.65 -15.95
Q 16.2 -16.45 16.85 -16.45 17.6 -16.45 18.1 -15.95 18.65 -15.45 18.65 -14.8 18.65 -14.1 18.1 -13.65 17.6 -13.2 16.85 -13.2 16.2 -13.2 15.65 -13.65 15.15 -14.1 15.15 -14.8 15.15 -15.45 15.65 -15.95 Z"/>

<path fill="#FFFFFF" stroke="none" d="
M 23.5 43.35
L 25.75 43.4 28.7 37.75 25.2 37.75 23.5 43.35
M 26 -6.2
L 22 -6.2 27.65 8.1 35.65 8.1 26 -6.2
M 22.8 -10.1
Q 22.85 -10.2 22.95 -10.3 25.55 -12.15 25.55 -14.85 25.55 -17.6 22.95 -19.5 21.2 -20.8 18.95 -21.2 24.9 -17.1 22.8 -10.1 Z"/>

<path fill="url(#Gradient_1)" stroke="none" d="
M 7.95 37.75
L 10.65 43.1 23.5 43.35 25.2 37.75 7.95 37.75 Z"/>

<path fill="url(#Gradient_2)" stroke="none" d="
M 22 -6.2
L 8.15 -6.2 -1.3 8.1 27.65 8.1 22 -6.2 Z"/>

<path fill="url(#Gradient_3)" stroke="none" d="
M 18.95 -21.2
Q 17.95 -21.4 16.85 -21.4 13.25 -21.4 10.7 -19.5 8.2 -17.6 8.2 -14.85 8.2 -12.15 10.7 -10.3 11.95 -9.35 13.45 -8.85 15.05 -8.35 16.85 -8.35 18.7 -8.35 20.3 -8.85 21.65 -9.3 22.8 -10.1 24.9 -17.1 18.95 -21.2
M 14.8 -13
Q 13.95 -13.7 13.95 -14.75 13.95 -15.75 14.8 -16.5 15.65 -17.3 16.85 -17.3 18.1 -17.3 18.95 -16.5 19.8 -15.75 19.8 -14.75 19.8 -13.7 18.95 -13 18.1 -12.25 16.85 -12.25 15.65 -12.25 14.8 -13 Z"/>
</g>

<g id="lantern_Hand_copy_2_1_Layer0_0_FILL">
<path fill="#66CCFF" stroke="none" d="
M 10.25 31.15
Q 10.25 33.05 12.35 34.45 14.5 35.85 17.55 35.85 20.6 35.85 22.7 34.45 24.85 33.05 24.85 31.15 24.85 29.2 22.7 27.8 20.6 26.45 17.55 26.45 14.5 26.45 12.35 27.8 10.25 29.2 10.25 31.15
M 19 29.4
Q 19.6 29.95 19.6 30.7 19.6 31.5 19 32.1 18.35 32.6 17.4 32.6 16.5 32.6 15.9 32.1 15.2 31.5 15.2 30.7 15.2 29.95 15.9 29.4 16.5 28.85 17.4 28.85 18.35 28.85 19 29.4 Z"/>

<path fill="#FFFFFF" stroke="none" d="
M 19.6 30.7
Q 19.6 29.95 19 29.4 18.35 28.85 17.4 28.85 16.5 28.85 15.9 29.4 15.2 29.95 15.2 30.7 15.2 31.5 15.9 32.1 16.5 32.6 17.4 32.6 18.35 32.6 19 32.1 19.6 31.5 19.6 30.7 Z"/>
</g>

<g id="blanket_ghost_other_arm_0_Layer0_0_FILL">
<path fill="#4B286D" stroke="none" d="
M 51.3 9.95
Q 51.6 14.4 51.6 14.8 51.6 22.75 48.15 32.95 47.3 35.4 42.2 47.85
L 42.2 48.2
Q 43.75 47 46.2 43.6 48.45 40.5 49.2 38.75
L 49.85 38.75
Q 49.65 41.15 50 44.95 50.25 43.05 50.8 38.95 53.55 17.85 51.3 9.95
M 45.85 9.35
L 45.55 9.35
Q 37.05 17.5 32.7 20.4 22.55 27.15 6.95 31.8 10.1 32.45 11.55 32.45 17.75 32.45 25.25 29.5 33.15 26.4 37.1 22
L 37.1 22.35
Q 36.9 23.4 33.95 33.85 31.45 42.75 31.45 44.3 31.45 44.85 31.5 44.9 31.55 44.95 31.8 45.1 39.35 40.65 44.55 30.4 50.15 19.25 47.85 10.3
L 45.2 13.3
Q 45.2 12.4 45.85 11
L 45.85 9.35 Z"/>

<path fill="#CC33FF" stroke="none" d="
M 51.3 9.95
Q 50 5.55 47.25 5.2 43.15 4.65 37.95 7.75 30.7 11.95 28.65 12.6 23.95 14 17.9 15.25 13.25 16.15 10.25 16.75 7.65 17.65 6 18.6 0 22 0 30.25 0 36.55 13.7 47.5 26.7 57.85 31.65 57.85 33 57.85 38.9 55.75 44.7 53.6 45.55 52.85 48.05 50.55 49.05 48.55 49.25 48.15 49.55 47.55 49.65 46.9 49.75 46.25 49.85 45.85 50 44.95 49.65 41.15 49.85 38.75
L 49.2 38.75
Q 48.45 40.5 46.2 43.6 43.75 47 42.2 48.2
L 42.2 47.85
Q 47.3 35.4 48.15 32.95 51.6 22.75 51.6 14.8 51.6 14.4 51.3 9.95
M 45.55 9.35
L 45.85 9.35 45.85 11
Q 45.2 12.4 45.2 13.3
L 47.85 10.3
Q 50.15 19.25 44.55 30.4 39.35 40.65 31.8 45.1 31.55 44.95 31.5 44.9 31.45 44.85 31.45 44.3 31.45 42.75 33.95 33.85 36.9 23.4 37.1 22.35
L 37.1 22
Q 33.15 26.4 25.25 29.5 17.75 32.45 11.55 32.45 10.1 32.45 6.95 31.8 22.55 27.15 32.7 20.4 37.05 17.5 45.55 9.35 Z"/>

<path fill="#000000" stroke="none" d="
M 55.9 10.4
Q 54.65 0.8 49.1 0.1 44.55 -0.5 37.2 3.35 29.45 8 26.75 9.3 23.45 10.9 16.65 13.6 9.6 16.35 7.75 17.25 8.8 17.05 10.25 16.75 13.25 16.15 17.9 15.25 23.95 14 28.65 12.6 30.7 11.95 37.95 7.75 43.15 4.65 47.25 5.2 50 5.55 51.3 9.95 53.55 17.85 50.8 38.95 50.25 43.05 50 44.95 49.85 45.85 49.75 46.25 49.65 46.9 49.55 47.55 49.4 48.1 49.3 48.7 49.55 48.1 49.9 47.5 50 47.2 50.15 46.85 50.7 45.4 51.3 43.8 51.75 42.8 52.1 41.8 54.25 35.2 55.45 26.05 56.65 16.9 55.9 10.4 Z"/>
</g>

<g id="blanket_ghost_teddy_0_Layer0_0_FILL">
<path fill="#000000" stroke="none" d="
M 55.55 18.75
Q 55 18.75 53.6 19.15
L 52.25 19.5
Q 51.9 13.5 47.6 9.7 43.3 5.9 38.2 6.35 37.2 1.75 36.5 1 35.6 0 31.6 0 27.95 0 23.5 2.3 18.4 4.95 18.4 8.05 18.4 8.75 19.1 10.2 20 12.15 20.1 12.4 15.6 12.25 12.35 17.35 9.6876953125 21.49140625 9.5 25.95 9.5021484375 26.0365234375 9.5 26.1 5.9 26.55 3 29.5 0 32.5 0 35.75 0 38.180078125 1.2 40 2.03515625 41.2080078125 3.35 42.15 6.15 44.15 9.55 44.15 10.8 44.15 13.45 42.7 15.4 41.65 16.4 40.85 17.95 41.7 20.3 42 21.4 42.15 24.95 42.15 32.7 42.15 41.65 37.3 45.52734375 35.166015625 47.65 33.15 49.0619140625 31.8564453125 49.7 30.6 50.003515625 31.234765625 50.4 31.8 50.7744140625 32.301953125 51.2 32.75 53.7 35.45 57.2 35.45 60.35 35.45 62.3 33.1 63.4970703125 31.6265625 63.95 29.55 64.25 28.275 64.25 26.75 64.25 22.85 61.95 20.75 59.7 18.75 55.55 18.75
M 53.35 23.7
Q 53.5533203125 23.3759765625 53.75 23.05 55.070703125 21.09921875 55.9 20.75 61.6 20.75 61.6 27.1 61.6 28.6763671875 61.25 29.65 61.1203125 30.1197265625 60.9 30.45 60.05 31.85 57.75 31.85 55.55 31.85 53.9 30.85 53.2849609375 30.475 52.85 29.95 51.85 28.834765625 51.85 27.05 51.85 26.2 53.35 23.7
M 42.9 11.8
Q 49.5 12.85 49.85 20.1
L 48.85 26.85
Q 46.67421875 30.8251953125 41.85 34 40.9359375 34.6544921875 39.9 35.25 31.45 40.15 21.3 40.15 20.65 40.15 15.75 37.85 15.15 37.85 13.85 39.5 12.5 41.1 11.05 41.1 9.85 41.1 7.1 38.85 6.7779296875 38.5861328125 6.5 38.3 4.05 36.1494140625 4.05 34.45 4.05 34.05 5.7 31.4 7.55 28.45 8.55 28.45 9.05 28.45 9.6 28.6 10.05 31.25 10.3 31.95 10.5375 30.4365234375 10.9 28.85 11.1748046875 27.7974609375 11.5 26.7 12.7 22.5 14.1 20.4 16.1 17.4 16.15 17.35 16.361328125 17.0794921875 16.55 16.8 17.6875 15.5724609375 19.1 14.7 19.6 14.4 22.75 13.85 25.35 13.45 25.8 12.4 24.827734375 12.6916015625 23.3 10.9 23.29296875 10.852734375 23.25 10.8 21.65 8.9 21.75 7.7 22.25 7.6 26.95 5.55 31.25 3.7 33.15 3.7 34.45 3.7 35.3 5.25 36.45 7.4 36.8 7.7 36.3 8.35 34.9 9.75 33.65 11.05 32.9 12.05
L 33.15 12.05
Q 35.1 10.95 35.85 10.8 36.25 10.7 42.9 11.8
M 19.95 34.15
Q 19.15 34.8 19.15 35.7 19.15 36.65 19.95 37.3 20.75 37.95 21.8 37.95 22.9 37.95 23.7 37.3 24.5 36.65 24.5 35.7 24.5 34.8 23.7 34.15 22.9 33.5 21.8 33.5 20.75 33.5 19.95 34.15
M 43.95 22.2
Q 43.95 20.95 43.25 20.05 42.55 19.2 41.55 19.2 40.6 19.2 39.9 20.05 39.2 20.95 39.2 22.2 39.2 23.45 39.9 24.3 40.6 25.2 41.55 25.2 42.55 25.2 43.25 24.3 43.95 23.45 43.95 22.2 Z"/>

<path fill="#BD793E" stroke="none" d="
M 10.9 28.85
Q 10.5375 30.4365234375 10.3 31.95 10.05 31.25 9.6 28.6 9.05 28.45 8.55 28.45 7.55 28.45 5.7 31.4 4.05 34.05 4.05 34.45 4.05 36.1494140625 6.5 38.3 7.9642578125 37.463671875 9.05 36.2 11.15 33.8 11.15 31.45 11.15 29.9625 10.9 28.85
M 49.85 20.1
Q 49.5 12.85 42.9 11.8 36.25 10.7 35.85 10.8 35.1 10.95 33.15 12.05
L 32.9 12.05
Q 33.65 11.05 34.9 9.75 36.3 8.35 36.8 7.7 36.45 7.4 35.3 5.25 34.45 3.7 33.15 3.7 31.25 3.7 26.95 5.55 22.25 7.6 21.75 7.7 21.65 8.9 23.25 10.8 23.29296875 10.852734375 23.3 10.9 24.827734375 12.6916015625 25.8 12.4 25.35 13.45 22.75 13.85 19.6 14.4 19.1 14.7 17.6875 15.5724609375 16.55 16.8 16.35 18.3826171875 16.35 21.85 16.35 29.5 23.4 32.35 27.8 34.1 36.3 34.1 39.65703125 34.1 41.85 34 46.67421875 30.8251953125 48.85 26.85
L 49.85 20.1
M 43.25 20.05
Q 43.95 20.95 43.95 22.2 43.95 23.45 43.25 24.3 42.55 25.2 41.55 25.2 40.6 25.2 39.9 24.3 39.2 23.45 39.2 22.2 39.2 20.95 39.9 20.05 40.6 19.2 41.55 19.2 42.55 19.2 43.25 20.05
M 55.9 20.75
Q 55.070703125 21.09921875 53.75 23.05 54.5830078125 24.5279296875 56.35 26.35 59.130078125 29.2142578125 61.25 29.65 61.6 28.6763671875 61.6 27.1 61.6 20.75 55.9 20.75 Z"/>

<path fill="#53315F" stroke="none" d="
M 16.35 21.85
Q 16.35 18.3826171875 16.55 16.8 16.361328125 17.0794921875 16.15 17.35 16.1 17.4 14.1 20.4 12.7 22.5 11.5 26.7 11.1748046875 27.7974609375 10.9 28.85 11.15 29.9625 11.15 31.45 11.15 33.8 9.05 36.2 7.9642578125 37.463671875 6.5 38.3 6.7779296875 38.5861328125 7.1 38.85 9.85 41.1 11.05 41.1 12.5 41.1 13.85 39.5 15.15 37.85 15.75 37.85 20.65 40.15 21.3 40.15 31.45 40.15 39.9 35.25 40.9359375 34.6544921875 41.85 34 39.65703125 34.1 36.3 34.1 27.8 34.1 23.4 32.35 16.35 29.5 16.35 21.85
M 19.15 35.7
Q 19.15 34.8 19.95 34.15 20.75 33.5 21.8 33.5 22.9 33.5 23.7 34.15 24.5 34.8 24.5 35.7 24.5 36.65 23.7 37.3 22.9 37.95 21.8 37.95 20.75 37.95 19.95 37.3 19.15 36.65 19.15 35.7
M 53.75 23.05
Q 53.5533203125 23.3759765625 53.35 23.7 51.85 26.2 51.85 27.05 51.85 28.834765625 52.85 29.95 53.2849609375 30.475 53.9 30.85 55.55 31.85 57.75 31.85 60.05 31.85 60.9 30.45 61.1203125 30.1197265625 61.25 29.65 59.130078125 29.2142578125 56.35 26.35 54.5830078125 24.5279296875 53.75 23.05 Z"/>
</g>
</defs>

<g transform="matrix( 0.8803863525390625, 0, 0, 0.8803863525390625, 464.15,349.75) ">
<g transform="matrix( 1, 0, 0, 1, -76.9,6) ">
<g transform="matrix( 0.999847412109375, 0.013702392578125, -0.008941650390625, 0.999755859375, 1.1,38.5) ">
<g transform="matrix( 1, 0, 0, 1, 0,0) ">
<use xlink:href="#blanket_ghost_bottom_copy_2_Layer0_0_FILL"/>
</g>
</g>

<g transform="matrix( 0.9989166259765625, -0.0402069091796875, 0.1019287109375, 0.9971160888671875, 6.4,4) ">
<g transform="matrix( 1, 0, 0, 1, 0,0) ">
<use xlink:href="#blanket_ghost_hood_copy_2_Layer0_0_FILL"/>
</g>
</g>

<g transform="matrix( 1, 0, -0.0395355224609375, 1.0001983642578125, 127.05,19.3) ">
<g transform="matrix( 1, 0, 0, 1, 0,0) ">
<use xlink:href="#blanket_ghost_arm_0_Layer0_0_FILL"/>
</g>
</g>

<g transform="matrix( 1.00030517578125, 0.044158935546875, 0, 1, 85.4,17.4) ">
<g transform="matrix( 1, 0, 0, 1, 0,0) ">
<use xlink:href="#blanket_ghost_face_0_Layer0_0_FILL"/>
</g>
</g>

<g transform="matrix( 0.999755859375, -0.018310546875, 0.018310546875, 0.999755859375, 177.95,63.45) ">
<g transform="matrix( 0.74951171875, 0, 0, 0.74951171875, -26.55,-13.9) ">
<g transform="matrix( 1, 0, 0, 1, 0,0) ">
<use filter="url(#Filter_1)" xlink:href="#lantern_glow_1_Layer0_0_FILL"/>
</g>
</g>

<g transform="matrix( 1, 0, 0, 1, 0,0) ">
<use xlink:href="#lantern_Hand_copy_2_1_Layer1_0_FILL"/>
</g>

<g transform="matrix( 1, 0, 0, 1, 0,0) ">
<use xlink:href="#lantern_Hand_copy_2_1_Layer0_0_FILL"/>
</g>
</g>

<g transform="matrix( 0.9996795654296875, -0.0218658447265625, 0.0218658447265625, 0.9996795654296875, 89,70.3) ">
<g transform="matrix( 1, 0, 0, 1, 0,0) ">
<use xlink:href="#blanket_ghost_other_arm_0_Layer0_0_FILL"/>
</g>
</g>

<g transform="matrix( 0.999786376953125, -0.017578125, 0.017578125, 0.999786376953125, 69.25,49.2) ">
<g transform="matrix( 1, 0, 0, 1, 0,0) ">
<use xlink:href="#blanket_ghost_teddy_0_Layer0_0_FILL"/>
</g>
</g>
</g>
</g>
</svg>
