
<svg xmlns="http://www.w3.org/2000/svg" version="1.1" xmlns:xlink="http://www.w3.org/1999/xlink" preserveAspectRatio="none" x="0px" y="0px" width="1000px" height="1000px" viewBox="0 0 1000 1000">
<defs>
<linearGradient id="Gradient_1" gradientUnits="userSpaceOnUse" x1="16.925" y1="42.5625" x2="21.474999999999998" y2="26.137500000000003" spreadMethod="pad">
<stop  offset="0%" stop-color="#877046"/>

<stop  offset="30.58823529411765%" stop-color="#CCCC99"/>

<stop  offset="100%" stop-color="#FFFFFF"/>
</linearGradient>

<linearGradient id="Gradient_2" gradientUnits="userSpaceOnUse" x1="10.762500000000001" y1="12.05" x2="26.4375" y2="-3.8500000000000005" spreadMethod="pad">
<stop  offset="0%" stop-color="#877046"/>

<stop  offset="30.58823529411765%" stop-color="#CCCC99"/>

<stop  offset="100%" stop-color="#FFFFFF"/>
</linearGradient>

<linearGradient id="Gradient_3" gradientUnits="userSpaceOnUse" x1="14.525" y1="-11.0125" x2="23.075000000000003" y2="-25.587500000000002" spreadMethod="pad">
<stop  offset="0%" stop-color="#877046"/>

<stop  offset="30.58823529411765%" stop-color="#CCCC99"/>

<stop  offset="100%" stop-color="#FFFFFF"/>
</linearGradient>

<filter id="Filter_1" x="-20%" y="-20%" width="140%" height="140%" color-interpolation-filters="sRGB">
<feColorMatrix in="SourceGraphic" type="matrix" values="1 0 0 0 0 0 1 0 0 0 0 0 1 0 0 0 0 0 0.5 0" result="result1"/>
</filter>

<g id="blanket_ghost_bottom_copy_0_Layer0_0_FILL">
<path fill="#4B286D" stroke="none" d="
M 97.8 84.45
Q 93.1 84.45 87.5 86.75 85.1 87.7 77.15 91.8 62.85 99.15 51.6 99.15 45.7 99.15 43 94 41.75 91.6 39.7 82.6 37.9 74.7 35.15 71.2 31.05 66.05 22.85 66.05 18.25 66.05 15.05 67.7 12.1 69.2 9.7 70.35 9.6 70.5 9.55 70.7
L 9.55 71.4
Q 10.15 71.45 11.85 70.95 13.65 70.45 14.4 70.45 19.65 70.45 23.25 75.8 23.3 75.9 29.25 87.5 33.25 95.4 38.2 99.2 45.15 104.55 56.05 104.55 62.75 104.55 78.1 96.9 93.45 89.25 101.45 89.25 105.05 89.25 110.7 92.45 116.4 95.65 120.7 95.65 122.75 95.65 124.7 95 119.35 94.15 111.6 89.85 101.9 84.45 97.8 84.45 Z"/>

<path fill="#000000" stroke="none" d="
M 153.9 46.45
Q 153.9 43.2 153.7 40.25 153.55 38.8 153.4 37.5 150.4 47.05 147.05 57.85 143.25 70.1 140 77.15 133.05 92.15 124.7 95 122.75 95.65 120.7 95.65 116.4 95.65 110.7 92.45 105.05 89.25 101.45 89.25 93.45 89.25 78.1 96.9 62.75 104.55 56.05 104.55 45.15 104.55 38.2 99.2 33.25 95.4 29.25 87.5 23.3 75.9 23.25 75.8 19.65 70.45 14.4 70.45 13.65 70.45 11.85 70.95 10.15 71.45 9.55 71.4
L 9.55 70.7
Q 9.6 70.5 9.7 70.35 12.6 63.15 19.9 59.45 21.8 58.45 35.25 54 51.05 48.7 58.6 41 65.15 34.3 65.15 26.15 65.15 24.95 65.05 24.6 64.9 24.2 64.4 23.55 63.75 24 63.15 24.45 62.75 24.7 62.4 25 57.95 33.65 48 39.45 42.2 42.85 26.85 48.45 13.4 53.3 8.1 57.5 0 63.85 0 74.3 0 76.45 0.5 78.5 0.85 79.85 1.75 82.15
L 1.9 82.2
Q 2.05 82.3 2.05 82.5 2.95 81.6 4.45 80.85 6.2 80 7.6 80 13.85 80 17.5 85.65 18 86.35 23.25 98 27.05 106.35 32.2 110.4 39.4 116 51.65 116 56.75 116 61.4 113.5 63.55 112.3 69.4 107.95 80.1 99.9 91.35 99.9 93.6 99.9 101 103.65 108.45 107.4 115.75 107.4 125.85 107.4 135.2 95.6 138.75 91.1 141.05 86.2 142.75 82.6 143.1 80.35 145.75 76.1 148.2 70.7 153.9 57.95 153.9 46.45 Z"/>

<path fill="#CC33FF" stroke="none" d="
M 148.25 9.15
Q 143.8 4.35 134.9 3.6 125 2.2 116.9 1.2 102.55 -0.55 101.25 0.3 101.44375 0.49375 101.75 0.5 101.4390625 0.5 101.1 0.5 87.2 0.65 77.2 5.65 73.95 7.3 71.4 9.3 69.45 11.05 69.3 11.2 65.05 14.65 63.75 21.15 63.5 22.5 63.15 24.45 63.75 24 64.4 23.55 64.9 24.2 65.05 24.6 65.15 24.95 65.15 26.15 65.15 34.3 58.6 41 51.05 48.7 35.25 54 21.8 58.45 19.9 59.45 12.6 63.15 9.7 70.35 12.1 69.2 15.05 67.7 18.25 66.05 22.85 66.05 31.05 66.05 35.15 71.2 37.9 74.7 39.7 82.6 41.75 91.6 43 94 45.7 99.15 51.6 99.15 62.85 99.15 77.15 91.8 85.1 87.7 87.5 86.75 93.1 84.45 97.8 84.45 101.9 84.45 111.6 89.85 119.35 94.15 124.7 95 133.05 92.15 140 77.15 143.25 70.1 147.05 57.85 150.4 47.05 153.4 37.5 153.55 38.8 153.7 40.25 154 36.95 154 34.65 154 32.8 152.8 25.25 151.6 17.55 151.6 16.95 151.45 12.65 148.25 9.15
M 54.75 48.15
Q 59.9 44.65 60.45 44.65 61.9 44.65 64 46.55 67.5 43.5 67.65 43.3 67.15 45.55 66.95 46.05 66.5 47.1 65.65 48.25 66.1 48.8 69.35 51.45 72.75 54.35 74.35 55.4 73.7 56.75 73.05 58.05 73.9 58.45 74.85 59.05 76.5 60 76.7 60.4
L 72.2 59.75
Q 71.45 61.1 70.8 62.4 71.25 62.6 72.45 63.45 73.9 64.5 74 65.05
L 69.75 64.4
Q 68.8 66.15 67.95 67.65 68.75 68.05 70.05 69 71.6 70.1 71.7 70.45 67.75 70.15 67.05 70 66.85 69.95 66.65 69.9 63.1 75.8 61.8 75.8 58.3 75.8 55.3 74.45 53 77.45 52.75 77.45 52.35 77.45 52.6 75.45 52.8 73.55 53.05 73.2 52.15 72.6 50.4 70.9 49 69.45 48.8 69.15 45.9 71.5 45.25 71.75 45.25 71.5 46.25 69.7 47.25 67.9 47.6 67.55 45.85 65.25 44.75 63.8 41.95 60.2 39.2 58.05
L 37.9 58.05
Q 39.15 56.3 41.1 55.35 42.8 54.55 46.95 53 48.9 52.05 54.75 48.15 Z"/>

<path fill="#CC99FF" stroke="none" d="
M 60.45 44.65
Q 59.9 44.65 54.75 48.15 48.9 52.05 46.95 53 42.8 54.55 41.1 55.35 39.15 56.3 37.9 58.05
L 39.2 58.05
Q 41.95 60.2 44.75 63.8 45.85 65.25 47.6 67.55 47.25 67.9 46.25 69.7 45.25 71.5 45.25 71.75 45.9 71.5 48.8 69.15 49 69.45 50.4 70.9 52.15 72.6 53.05 73.2 52.8 73.55 52.6 75.45 52.35 77.45 52.75 77.45 53 77.45 55.3 74.45 58.3 75.8 61.8 75.8 63.1 75.8 66.65 69.9 66.85 69.95 67.05 70 67.75 70.15 71.7 70.45 71.6 70.1 70.05 69 68.75 68.05 67.95 67.65 68.8 66.15 69.75 64.4
L 74 65.05
Q 73.9 64.5 72.45 63.45 71.25 62.6 70.8 62.4 71.45 61.1 72.2 59.75
L 76.7 60.4
Q 76.5 60 74.85 59.05 73.9 58.45 73.05 58.05 73.7 56.75 74.35 55.4 72.75 54.35 69.35 51.45 66.1 48.8 65.65 48.25 66.5 47.1 66.95 46.05 67.15 45.55 67.65 43.3 67.5 43.5 64 46.55 61.9 44.65 60.45 44.65 Z"/>
</g>

<g id="blanket_ghost_hood_copy_0_Layer0_0_FILL">
<path fill="#4B286D" stroke="none" d="
M 67.5 55
Q 64.95 56.95 60.75 59.1 53.05 62.95 48.4 63.8 48.35 64.15 48.35 64.45 48.5 65.9 52.05 66.15 53.75 66.25 56.95 66.2 55.65 68 53.7 69.55 52.55 70.4 51.35 71.1 51.75 71.15 52.2 71.2 63.45 69.3 67.5 55
M 66.25 38.6
L 65.45 38.65
Q 56.9 43.25 47.05 48 27.35 57.4 15.7 58.55 12.7 58.8 10.65 58.05 8.95 57.4 8.55 56.2 8.35 57.35 8.3 58.6 8.05 65.45 13.05 67.1 18 68.7 25.6 64.9 33.1 61.1 43.5 54.8 53.9 48.4 56.35 49.4 54 52.95 52.05 56.1 51.95 56.25 51.9 56.4 53.65 54.65 55.55 52.4 59.5 47.75 66.25 38.6
M 135.75 20.5
Q 132.9 16.45 128.4 13.7 119.05 3.95 104.8 5.75 90.55 7.6 80.25 11.1 80.95 11.45 83.5 12.15 86.1 12.9 87.3 13.1 80.5 17.6 77.5 21.9 75.65 24.55 73.65 30.05 79 22.1 90.4 15.05 101.75 7.9 109.6 7.9 117.3 7.85 122.65 11.35 128.1 14.8 135.4 20.55
L 135.75 20.5 Z"/>

<path fill="#CC99FF" stroke="none" d="
M 56.55 19.25
Q 55.8 18.25 55.35 17.5 52.8 18.35 50.25 19.4 38.15 24 28.75 31.4 28.7 31.4 28.7 31.45 29.15 33.4 30.4 36.05 31.3 38 32.4 40.1 34.2 38.3 37 36.4 37.6 37.65 38.35 38.55 40.55 41.3 40.6 41.4 39.95 37.85 39.5 34.9 40.9 34.1 42.5 33.3 42.7 33.6 44.6 37.2
L 44.95 37.2
Q 44.55 35.65 44.2 32.4 45.5 31.8 54.05 28 59.95 25.4 59.9 24.85 59.8 24.1 58.15 21.6 58.75 21.4 60.05 21.1 61.55 20.8 62.5 20.8 62 19.6 58.8 19.3 57.55 19.25 56.55 19.25 Z"/>

<path fill="#CC33FF" stroke="none" d="
M 158.15 38
Q 158 36.2 155.55 31.65 153.4 27.65 151.7 25.55 151.45 25.4 151.25 25.2 139.7 17.5 128.4 13.7 132.9 16.45 135.75 20.5
L 135.4 20.55
Q 128.1 14.8 122.65 11.35 117.3 7.85 109.6 7.9 101.75 7.9 90.4 15.05 79 22.1 73.65 30.05 75.65 24.55 77.5 21.9 80.5 17.6 87.3 13.1 86.1 12.9 83.5 12.15 80.95 11.45 80.25 11.1 75.5 11.6 72.25 12.4 64.4 14.2 55.35 17.5 55.8 18.25 56.55 19.25 57.55 19.25 58.8 19.3 62 19.6 62.5 20.8 61.55 20.8 60.05 21.1 58.75 21.4 58.15 21.6 59.8 24.1 59.9 24.85 59.95 25.4 54.05 28 45.5 31.8 44.2 32.4 44.55 35.65 44.95 37.2
L 44.6 37.2
Q 42.7 33.6 42.5 33.3 40.9 34.1 39.5 34.9 39.95 37.85 40.6 41.4 40.55 41.3 38.35 38.55 37.6 37.65 37 36.4 34.2 38.3 32.4 40.1 31.3 38 30.4 36.05 29.15 33.4 28.7 31.45 19.35 38.75 13.9 45.25 9.45 50.55 8.55 56.2 8.95 57.4 10.65 58.05 12.7 58.8 15.7 58.55 27.35 57.4 47.05 48 56.9 43.25 65.45 38.65
L 66.25 38.6
Q 59.5 47.75 55.55 52.4 53.65 54.65 51.9 56.4 48.65 61.6 48.4 63.8 53.05 62.95 60.75 59.1 64.95 56.95 67.5 55 63.45 69.3 52.2 71.2 51.75 71.15 51.35 71.1 50.15 71.65 49 72.05 50 73.75 51.7 76.6 52.65 78 54.25 81.75 55.8 85.3 56.65 86.5 59.8 90.7 62.05 93 67.05 98.15 72.05 99.55 87.1 103.8 88.1 104 95.95 105.65 104.65 104.8 123.55 103 133 92 136.3 88.15 138.9 82.7 139.45 81.55 140.05 80.25 140 80.2 140.05 80.15 140.2 76.2 143.25 70.6 144.5 68.3 149.75 60.1 158.9 45.9 158.15 38 Z"/>

<path fill="#000000" stroke="none" d="
M 155.55 31.65
Q 158 36.2 158.15 38 158.9 45.9 149.75 60.1 144.5 68.3 143.25 70.6 140.2 76.2 140.05 80.15 140 80.2 140.05 80.25 143.1 73.9 148.15 67.1 150.9 63.25 156.2 56.55 164.6 45.15 163.6 34.6 162.9 27.25 156.25 20.7 134.45 4.6 112.55 2.75 90.65 0.8 75.05 3.05 59.4 5.25 43.1 12.1 27.5 18.6 16.85 26.8 4.05 36.75 0.15 45.75 -2.55 52.05 -1.65 61.5 -0.7 71.55 7.85 75.25 14 77.9 23.05 77.05 27.25 76.65 35.15 70.65 37.25 69.1 39 67.55
L 39 67.6
Q 38.9 67.9 39 68.9 39.25 71.55 41.55 72.4 43.15 73.05 45.35 72.8 47.25 72.65 49 72.05 50.15 71.65 51.35 71.1 52.55 70.4 53.7 69.55 55.65 68 56.95 66.2 53.75 66.25 52.05 66.15 48.5 65.9 48.35 64.45 48.35 64.15 48.4 63.8 48.65 61.6 51.9 56.4 51.95 56.25 52.05 56.1 54 52.95 56.35 49.4 53.9 48.4 43.5 54.8 33.1 61.1 25.6 64.9 18 68.7 13.05 67.1 8.05 65.45 8.3 58.6 8.35 57.35 8.55 56.2 9.45 50.55 13.9 45.25 19.35 38.75 28.7 31.45 28.7 31.4 28.75 31.4 38.15 24 50.25 19.4 52.8 18.35 55.35 17.5 64.4 14.2 72.25 12.4 75.5 11.6 80.25 11.1 90.55 7.6 104.8 5.75 119.05 3.95 128.4 13.7 139.7 17.5 151.25 25.2 151.45 25.4 151.7 25.55 153.4 27.65 155.55 31.65 Z"/>
</g>

<g id="blanket_ghost_arm_0_Layer0_0_FILL">
<path fill="#CC33FF" stroke="none" d="
M 38.55 21.85
Q 38.05 22.5 37.5 23.3 34.6 28.85 33.45 34.95 32.65 39.1 31.15 47.45 36.45 39.8 39.3 33.3 39.65 32.5 40 31.65 40.8 24.2 42.7 18.5 40.45 19.6 38.55 21.85
M 36.3 22.05
Q 36.95 20.65 37.7 19.6 28 22.5 19.55 29.85 21.9 29 24.95 28 31.9 25.7 36.3 22.05
M 70 20.35
Q 69.35 20.35 68.2 21 66.9 21.75 66.9 22.5 66.9 23.55 67.9 24 68.75 24.35 70.4 24.35 71.7 24.35 75.25 23.7 75.25 23.95 75.25 24.2 76.2 22.65 76.2 20.2 76.2 15.95 73.25 12.45 69.85 8.4 61.5 8.4 53.15 8.35 47.2 18 41.95 26.4 39.4 44.05 39.4 43.85 39.4 43.8 39.4 42.9 39.4 42 39.15 43.2 38.85 44.3 37.3 50.2 34.75 55.8
L 35.05 55.5
Q 40.3 52.85 43.25 46.35 44.5 43.65 47.25 34 49.5 26.2 52.1 22.6 55.95 17.4 62.85 16.35 60.9 15.35 59.9 14.95 58.25 14.35 56.15 14.7 58 13.65 59 13.45 59.55 13.35 62.35 13.35 65.85 13.35 68.85 15.05 72.2 16.95 72.2 19.85
L 72.2 21.35
Q 72.05 21.1 71.25 20.75 70.4 20.35 70 20.35 Z"/>

<path fill="#4B286D" stroke="none" d="
M 62.85 20.7
Q 64.05 18.75 65.8 18.75 66.85 18.75 67.65 19.4 67.45 19.35 67.2 19.35 66.25 19.35 65.5 20.4 64.85 21.4 64.85 22.6 64.85 24.6 66.15 25.7 67.45 26.75 69.85 26.75 72.95 26.75 74.6 25.05 74.95 24.65 75.25 24.2 75.25 23.95 75.25 23.7 71.7 24.35 70.4 24.35 68.75 24.35 67.9 24 66.9 23.55 66.9 22.5 66.9 21.75 68.2 21 69.35 20.35 70 20.35 70.4 20.35 71.25 20.75 72.05 21.1 72.2 21.35
L 72.2 19.85
Q 72.2 16.95 68.85 15.05 65.85 13.35 62.35 13.35 59.55 13.35 59 13.45 58 13.65 56.15 14.7 58.25 14.35 59.9 14.95 60.9 15.35 62.85 16.35 55.95 17.4 52.1 22.6 49.5 26.2 47.25 34 44.5 43.65 43.25 46.35 40.3 52.85 35.05 55.5
L 34.75 55.8
Q 37.3 50.2 38.85 44.3 39.15 43.2 39.4 42 39.5 36.45 40 31.65 39.65 32.5 39.3 33.3 36.45 39.8 31.15 47.45 32.65 39.1 33.45 34.95 34.6 28.85 37.5 23.3 35.9 25.6 34.05 29.4
L 33.7 29.4
Q 34.8 25.05 36.3 22.05 31.9 25.7 24.95 28 21.9 29 19.55 29.85 16.6 32.35 13.8 35.45 0 50.7 0 70.05 0 71.5 0.65 75.2 0.75 75.9 0.9 76.55 3.2 84.2 6.65 85.65 11.15 87.5 13.5 88.3 17.6 89.6 20.55 89.6 30.45 89.6 38.5 81.75 46.4 74.1 49.8 61.6 51.1 56.75 52.6 50.15 54.15 43.4 54.8 39.45 56.35 30.45 56.45 30.15 57.85 26 61.8 24.05 61.85 22.3 62.85 20.7 Z"/>

<path fill="#000000" stroke="none" d="
M 74.8 2.2
Q 73.3 1.2 71.9 0.55 70.7 0.1 69.65 0 67.2 0 66 0 50.75 0 44.25 14.4 40.6 15.85 38.3 18.75 38 19.15 37.7 19.6 36.95 20.65 36.3 22.05 34.8 25.05 33.7 29.4
L 34.05 29.4
Q 35.9 25.6 37.5 23.3 38.05 22.5 38.55 21.85 40.45 19.6 42.7 18.5 40.8 24.2 40 31.65 39.5 36.45 39.4 42 39.4 42.9 39.4 43.8 39.4 43.85 39.4 44.05 41.95 26.4 47.2 18 53.15 8.35 61.5 8.4 69.85 8.4 73.25 12.45 76.2 15.95 76.2 20.2 76.2 22.65 75.25 24.2 74.95 24.65 74.6 25.05 72.95 26.75 69.85 26.75 67.45 26.75 66.15 25.7 64.85 24.6 64.85 22.6 64.85 21.4 65.5 20.4 66.25 19.35 67.2 19.35 67.45 19.35 67.65 19.4 66.85 18.75 65.8 18.75 64.05 18.75 62.85 20.7 61.85 22.3 61.8 24.05 57.85 26 56.45 30.15 56.35 30.45 54.8 39.45 54.15 43.4 52.6 50.15 51.1 56.75 49.8 61.6 46.4 74.1 38.5 81.75 30.45 89.6 20.55 89.6 17.6 89.6 13.5 88.3 11.15 87.5 6.65 85.65 3.2 84.2 0.9 76.55 0.75 76.1 0.6 75.6
L 0.6 75.25
Q 0.5962890625 75.3587890625 0.45 75.7 0.25 76.1 0.25 76.6 0.25 84.95 5 91.05 5.35 91.5 5.7 91.9 6.15 92.45 6.65 92.95 7.5 93.85 8.35 94.6 13.95 99.4 21.15 99.4 34.65 99.4 42.2 92.35 48.55 86.45 54.8 70.85 56.4 66.85 57.65 59.65 58.75 53.4 59.15 47.8 59.75 45.65 59.75 41.9 59.6 37.65 59.65 35.7 59.8 29.8 63.2 28.65 65.05 30.8 69.35 30.8 76.55 30.8 80.3 25.4 83.3 21.05 83.3 14.85 83.3 8.9 77.25 4 76 3 74.8 2.2 Z"/>
</g>

<g id="blanket_ghost_face_0_Layer0_0_FILL">
<path fill="#000000" stroke="none" d="
M 58.55 9.05
Q 49.75 0 41.5 0 32.5 0 27.45 2.7 22.65 5.3 14.1 14.4 0 29.5 0 43.5 0 52.8 12.4 57.9 21.45 61.6 30.45 61.6 38.45 61.6 48.2 55.75 53.5 52.55 57.35 49.05 62.9 41.7 64.75 37.95 67.25 32.9 67.25 26.15 67.25 18.05 58.55 9.05
M 41.8 5
Q 50 5 57.2 12.05 64.25 18.95 64.25 26.45 64.25 34.3 59.9 41.2 55.45 48.3 47.55 52.45 44.35 55 42.4 55.95 37.75 58.25 30.6 58.25 22.45 58.25 15.45 55.3 4.4 50.6 4.4 40.3 4.4 28.15 17.15 16.45 29.6 5 41.8 5 Z"/>

<path fill="#333333" stroke="none" d="
M 57.2 12.05
Q 50 5 41.8 5 29.6 5 17.15 16.45 4.4 28.15 4.4 40.3 4.4 50.6 15.45 55.3 22.45 58.25 30.6 58.25 37.75 58.25 42.4 55.95 44.35 55 47.55 52.45 55.45 48.3 59.9 41.2 64.25 34.3 64.25 26.45 64.25 18.95 57.2 12.05
M 43.55 23.95
Q 43.55 23.05 44.2 22.4 44.85 21.75 45.75 21.75 46.7 21.75 47.35 22.4 48 23.05 48 24 48 24.9 47.35 25.55 46.7 26.2 45.75 26.2 44.85 26.2 44.2 25.55 43.55 24.9 43.55 23.95
M 32.9 23.15
Q 32.9 20.95 34.05 19.35 35.25 17.8 36.9 17.8 38.55 17.8 39.75 19.35 40.95 20.95 40.95 23.2 40.95 25.4 39.75 27 38.55 28.6 36.9 28.6 35.25 28.6 34.05 27 32.9 25.4 32.9 23.15 Z"/>

<path fill="#66CCFF" stroke="none" d="
M 34.05 19.35
Q 32.9 20.95 32.9 23.15 32.9 25.4 34.05 27 35.25 28.6 36.9 28.6 38.55 28.6 39.75 27 40.95 25.4 40.95 23.2 40.95 20.95 39.75 19.35 38.55 17.8 36.9 17.8 35.25 17.8 34.05 19.35
M 44.2 22.4
Q 43.55 23.05 43.55 23.95 43.55 24.9 44.2 25.55 44.85 26.2 45.75 26.2 46.7 26.2 47.35 25.55 48 24.9 48 24 48 23.05 47.35 22.4 46.7 21.75 45.75 21.75 44.85 21.75 44.2 22.4 Z"/>
</g>

<g id="lantern_glow_2_Layer0_0_FILL">
<path fill="#3399FF" stroke="none" d="
M 117.1 73.25
Q 131.8138671875 41.017578125 116.8 26.65 101.7921875 12.3333984375 77.45 -0.15 53.1001953125 -12.5759765625 24.7 9.6 -3.6408203125 31.8255859375 -10.05 46.1 -16.46640625 60.3669921875 4 82.85 24.522265625 105.331640625 53.35 116.75 82.171875 128.2279296875 92.3 116.85 102.430859375 105.4720703125 117.1 73.25
M 108.25 59.15
Q 109.604296875 77.2501953125 94.9 91.95 80.255859375 106.5984375 63.45 103.95 46.68203125 101.3044921875 29.65 88.15 12.6177734375 75.0453125 10.95 55.35 9.2939453125 35.7013671875 24 20.95 38.6955078125 6.249609375 57 11.1 75.362890625 15.9505859375 91.1 28.5 106.8869140625 41.09921875 108.25 59.15 Z"/>

<path fill="#00FFFF" stroke="none" d="
M 94.9 91.95
Q 109.604296875 77.2501953125 108.25 59.15 106.8869140625 41.09921875 91.1 28.5 75.362890625 15.9505859375 57 11.1 38.6955078125 6.249609375 24 20.95 9.2939453125 35.7013671875 10.95 55.35 12.6177734375 75.0453125 29.65 88.15 46.68203125 101.3044921875 63.45 103.95 80.255859375 106.5984375 94.9 91.95
M 59.2 24.1
Q 70.8953125 22.796875 80.5 32.4 90.2486328125 42.097265625 85.3 53.25 80.4041015625 64.4576171875 73 75.2 65.6458984375 85.9921875 54.65 87.3 43.6513671875 88.6025390625 33.9 79 24.3046875 69.353125 28.05 58.2 31.7859375 47.090625 39.65 36.25 47.5640625 25.409375 59.2 24.1 Z"/>

<path fill="#FFFFFF" stroke="none" d="
M 80.5 32.4
Q 70.8953125 22.796875 59.2 24.1 47.5640625 25.409375 39.65 36.25 31.7859375 47.090625 28.05 58.2 24.3046875 69.353125 33.9 79 43.6513671875 88.6025390625 54.65 87.3 65.6458984375 85.9921875 73 75.2 80.4041015625 64.4576171875 85.3 53.25 90.2486328125 42.097265625 80.5 32.4 Z"/>
</g>

<g id="lantern_Hand_copy_2_2_Layer1_0_FILL">
<path fill="#000000" stroke="none" d="
M 18.4 -22.8
Q 17.65 -22.9 16.85 -22.9 12.3 -22.9 9.05 -20.6 5.9 -18.25 5.9 -14.9 5.9 -11.6 8.95 -9.4
L 5.6 -9.4 -12.25 7.95 7.55 49.7 30.95 47.6 45.05 6 28.45 -9.4 24.75 -9.4
Q 27.9 -11.6 27.9 -14.9 27.9 -18.25 24.6 -20.6 22 -22.5 18.4 -22.8
M 16.85 -21.4
Q 17.95 -21.4 18.95 -21.2 21.2 -20.8 22.95 -19.5 25.55 -17.6 25.55 -14.85 25.55 -12.15 22.95 -10.3 22.85 -10.2 22.8 -10.1 21.65 -9.3 20.3 -8.85 18.7 -8.35 16.85 -8.35 15.05 -8.35 13.45 -8.85 11.95 -9.35 10.7 -10.3 8.2 -12.15 8.2 -14.85 8.2 -17.6 10.7 -19.5 13.25 -21.4 16.85 -21.4
M 22 -6.2
L 26 -6.2 35.65 8.1 27.65 8.1 -1.3 8.1 8.15 -6.2 22 -6.2
M 10.65 43.1
L 7.95 37.75 25.2 37.75 28.7 37.75 25.75 43.4 23.5 43.35 10.65 43.1
M 31.15 36.4
L 5.45 36.7 -4.6 9.75 39.2 9.75 31.15 36.4
M 13.95 -14.75
Q 13.95 -13.7 14.8 -13 15.65 -12.25 16.85 -12.25 18.1 -12.25 18.95 -13 19.8 -13.7 19.8 -14.75 19.8 -15.75 18.95 -16.5 18.1 -17.3 16.85 -17.3 15.65 -17.3 14.8 -16.5 13.95 -15.75 13.95 -14.75
M 15.65 -15.95
Q 16.2 -16.45 16.85 -16.45 17.6 -16.45 18.1 -15.95 18.65 -15.45 18.65 -14.8 18.65 -14.1 18.1 -13.65 17.6 -13.2 16.85 -13.2 16.2 -13.2 15.65 -13.65 15.15 -14.1 15.15 -14.8 15.15 -15.45 15.65 -15.95 Z"/>

<path fill="#FFFFFF" stroke="none" d="
M 23.5 43.35
L 25.75 43.4 28.7 37.75 25.2 37.75 23.5 43.35
M 26 -6.2
L 22 -6.2 27.65 8.1 35.65 8.1 26 -6.2
M 22.8 -10.1
Q 22.85 -10.2 22.95 -10.3 25.55 -12.15 25.55 -14.85 25.55 -17.6 22.95 -19.5 21.2 -20.8 18.95 -21.2 24.9 -17.1 22.8 -10.1 Z"/>

<path fill="url(#Gradient_1)" stroke="none" d="
M 7.95 37.75
L 10.65 43.1 23.5 43.35 25.2 37.75 7.95 37.75 Z"/>

<path fill="url(#Gradient_2)" stroke="none" d="
M 22 -6.2
L 8.15 -6.2 -1.3 8.1 27.65 8.1 22 -6.2 Z"/>

<path fill="url(#Gradient_3)" stroke="none" d="
M 18.95 -21.2
Q 17.95 -21.4 16.85 -21.4 13.25 -21.4 10.7 -19.5 8.2 -17.6 8.2 -14.85 8.2 -12.15 10.7 -10.3 11.95 -9.35 13.45 -8.85 15.05 -8.35 16.85 -8.35 18.7 -8.35 20.3 -8.85 21.65 -9.3 22.8 -10.1 24.9 -17.1 18.95 -21.2
M 14.8 -13
Q 13.95 -13.7 13.95 -14.75 13.95 -15.75 14.8 -16.5 15.65 -17.3 16.85 -17.3 18.1 -17.3 18.95 -16.5 19.8 -15.75 19.8 -14.75 19.8 -13.7 18.95 -13 18.1 -12.25 16.85 -12.25 15.65 -12.25 14.8 -13 Z"/>
</g>

<g id="lantern_Hand_copy_2_2_Layer0_0_FILL">
<path fill="#66CCFF" stroke="none" d="
M 24.75 23.5
Q 24.55 18.6 22.3 15.25 20.05 12.1 17 12.35 14 12.6 12 16.1 10 19.8 10.15 24.75 10.35 29.65 12.6 32.85 14.8 36.2 17.85 35.9 20.85 35.7 22.9 32 24.85 28.45 24.75 23.5
M 15.1 23.3
Q 15 21.3 15.6 19.85 16.15 18.4 17.05 18.35 17.95 18.25 18.65 19.6 19.3 20.95 19.45 22.95 19.5 24.9 18.95 26.4 18.35 27.85 17.5 27.95 16.55 28 15.9 26.6 15.15 25.25 15.1 23.3 Z"/>

<path fill="#FFFFFF" stroke="none" d="
M 15.6 19.85
Q 15 21.3 15.1 23.3 15.15 25.25 15.9 26.6 16.55 28 17.5 27.95 18.35 27.85 18.95 26.4 19.5 24.9 19.45 22.95 19.3 20.95 18.65 19.6 17.95 18.25 17.05 18.35 16.15 18.4 15.6 19.85 Z"/>
</g>

<g id="blanket_ghost_other_arm_0_Layer0_0_FILL">
<path fill="#4B286D" stroke="none" d="
M 51.3 9.95
Q 51.6 14.4 51.6 14.8 51.6 22.75 48.15 32.95 47.3 35.4 42.2 47.85
L 42.2 48.2
Q 43.75 47 46.2 43.6 48.45 40.5 49.2 38.75
L 49.85 38.75
Q 49.65 41.15 50 44.95 50.25 43.05 50.8 38.95 53.55 17.85 51.3 9.95
M 45.85 9.35
L 45.55 9.35
Q 37.05 17.5 32.7 20.4 22.55 27.15 6.95 31.8 10.1 32.45 11.55 32.45 17.75 32.45 25.25 29.5 33.15 26.4 37.1 22
L 37.1 22.35
Q 36.9 23.4 33.95 33.85 31.45 42.75 31.45 44.3 31.45 44.85 31.5 44.9 31.55 44.95 31.8 45.1 39.35 40.65 44.55 30.4 50.15 19.25 47.85 10.3
L 45.2 13.3
Q 45.2 12.4 45.85 11
L 45.85 9.35 Z"/>

<path fill="#CC33FF" stroke="none" d="
M 51.3 9.95
Q 50 5.55 47.25 5.2 43.15 4.65 37.95 7.75 30.7 11.95 28.65 12.6 23.95 14 17.9 15.25 13.25 16.15 10.25 16.75 7.65 17.65 6 18.6 0 22 0 30.25 0 36.55 13.7 47.5 26.7 57.85 31.65 57.85 33 57.85 38.9 55.75 44.7 53.6 45.55 52.85 48.05 50.55 49.05 48.55 49.25 48.15 49.55 47.55 49.65 46.9 49.75 46.25 49.85 45.85 50 44.95 49.65 41.15 49.85 38.75
L 49.2 38.75
Q 48.45 40.5 46.2 43.6 43.75 47 42.2 48.2
L 42.2 47.85
Q 47.3 35.4 48.15 32.95 51.6 22.75 51.6 14.8 51.6 14.4 51.3 9.95
M 45.55 9.35
L 45.85 9.35 45.85 11
Q 45.2 12.4 45.2 13.3
L 47.85 10.3
Q 50.15 19.25 44.55 30.4 39.35 40.65 31.8 45.1 31.55 44.95 31.5 44.9 31.45 44.85 31.45 44.3 31.45 42.75 33.95 33.85 36.9 23.4 37.1 22.35
L 37.1 22
Q 33.15 26.4 25.25 29.5 17.75 32.45 11.55 32.45 10.1 32.45 6.95 31.8 22.55 27.15 32.7 20.4 37.05 17.5 45.55 9.35 Z"/>

<path fill="#000000" stroke="none" d="
M 55.9 10.4
Q 54.65 0.8 49.1 0.1 44.55 -0.5 37.2 3.35 29.45 8 26.75 9.3 23.45 10.9 16.65 13.6 9.6 16.35 7.75 17.25 8.8 17.05 10.25 16.75 13.25 16.15 17.9 15.25 23.95 14 28.65 12.6 30.7 11.95 37.95 7.75 43.15 4.65 47.25 5.2 50 5.55 51.3 9.95 53.55 17.85 50.8 38.95 50.25 43.05 50 44.95 49.85 45.85 49.75 46.25 49.65 46.9 49.55 47.55 49.4 48.1 49.3 48.7 49.55 48.1 49.9 47.5 50 47.2 50.15 46.85 50.7 45.4 51.3 43.8 51.75 42.8 52.1 41.8 54.25 35.2 55.45 26.05 56.65 16.9 55.9 10.4 Z"/>
</g>

<g id="blanket_ghost_teddy_0_Layer0_0_FILL">
<path fill="#000000" stroke="none" d="
M 55.55 18.75
Q 55 18.75 53.6 19.15
L 52.25 19.5
Q 51.9 13.5 47.6 9.7 43.3 5.9 38.2 6.35 37.2 1.75 36.5 1 35.6 0 31.6 0 27.95 0 23.5 2.3 18.4 4.95 18.4 8.05 18.4 8.75 19.1 10.2 20 12.15 20.1 12.4 15.6 12.25 12.35 17.35 9.6876953125 21.49140625 9.5 25.95 9.5021484375 26.0365234375 9.5 26.1 5.9 26.55 3 29.5 0 32.5 0 35.75 0 38.180078125 1.2 40 2.03515625 41.2080078125 3.35 42.15 6.15 44.15 9.55 44.15 10.8 44.15 13.45 42.7 15.4 41.65 16.4 40.85 17.95 41.7 20.3 42 21.4 42.15 24.95 42.15 32.7 42.15 41.65 37.3 45.52734375 35.166015625 47.65 33.15 49.0619140625 31.8564453125 49.7 30.6 50.003515625 31.234765625 50.4 31.8 50.7744140625 32.301953125 51.2 32.75 53.7 35.45 57.2 35.45 60.35 35.45 62.3 33.1 63.4970703125 31.6265625 63.95 29.55 64.25 28.275 64.25 26.75 64.25 22.85 61.95 20.75 59.7 18.75 55.55 18.75
M 53.35 23.7
Q 53.5533203125 23.3759765625 53.75 23.05 55.070703125 21.09921875 55.9 20.75 61.6 20.75 61.6 27.1 61.6 28.6763671875 61.25 29.65 61.1203125 30.1197265625 60.9 30.45 60.05 31.85 57.75 31.85 55.55 31.85 53.9 30.85 53.2849609375 30.475 52.85 29.95 51.85 28.834765625 51.85 27.05 51.85 26.2 53.35 23.7
M 42.9 11.8
Q 49.5 12.85 49.85 20.1
L 48.85 26.85
Q 46.67421875 30.8251953125 41.85 34 40.9359375 34.6544921875 39.9 35.25 31.45 40.15 21.3 40.15 20.65 40.15 15.75 37.85 15.15 37.85 13.85 39.5 12.5 41.1 11.05 41.1 9.85 41.1 7.1 38.85 6.7779296875 38.5861328125 6.5 38.3 4.05 36.1494140625 4.05 34.45 4.05 34.05 5.7 31.4 7.55 28.45 8.55 28.45 9.05 28.45 9.6 28.6 10.05 31.25 10.3 31.95 10.5375 30.4365234375 10.9 28.85 11.1748046875 27.7974609375 11.5 26.7 12.7 22.5 14.1 20.4 16.1 17.4 16.15 17.35 16.361328125 17.0794921875 16.55 16.8 17.6875 15.5724609375 19.1 14.7 19.6 14.4 22.75 13.85 25.35 13.45 25.8 12.4 24.827734375 12.6916015625 23.3 10.9 23.29296875 10.852734375 23.25 10.8 21.65 8.9 21.75 7.7 22.25 7.6 26.95 5.55 31.25 3.7 33.15 3.7 34.45 3.7 35.3 5.25 36.45 7.4 36.8 7.7 36.3 8.35 34.9 9.75 33.65 11.05 32.9 12.05
L 33.15 12.05
Q 35.1 10.95 35.85 10.8 36.25 10.7 42.9 11.8
M 19.95 34.15
Q 19.15 34.8 19.15 35.7 19.15 36.65 19.95 37.3 20.75 37.95 21.8 37.95 22.9 37.95 23.7 37.3 24.5 36.65 24.5 35.7 24.5 34.8 23.7 34.15 22.9 33.5 21.8 33.5 20.75 33.5 19.95 34.15
M 43.95 22.2
Q 43.95 20.95 43.25 20.05 42.55 19.2 41.55 19.2 40.6 19.2 39.9 20.05 39.2 20.95 39.2 22.2 39.2 23.45 39.9 24.3 40.6 25.2 41.55 25.2 42.55 25.2 43.25 24.3 43.95 23.45 43.95 22.2 Z"/>

<path fill="#BD793E" stroke="none" d="
M 10.9 28.85
Q 10.5375 30.4365234375 10.3 31.95 10.05 31.25 9.6 28.6 9.05 28.45 8.55 28.45 7.55 28.45 5.7 31.4 4.05 34.05 4.05 34.45 4.05 36.1494140625 6.5 38.3 7.9642578125 37.463671875 9.05 36.2 11.15 33.8 11.15 31.45 11.15 29.9625 10.9 28.85
M 49.85 20.1
Q 49.5 12.85 42.9 11.8 36.25 10.7 35.85 10.8 35.1 10.95 33.15 12.05
L 32.9 12.05
Q 33.65 11.05 34.9 9.75 36.3 8.35 36.8 7.7 36.45 7.4 35.3 5.25 34.45 3.7 33.15 3.7 31.25 3.7 26.95 5.55 22.25 7.6 21.75 7.7 21.65 8.9 23.25 10.8 23.29296875 10.852734375 23.3 10.9 24.827734375 12.6916015625 25.8 12.4 25.35 13.45 22.75 13.85 19.6 14.4 19.1 14.7 17.6875 15.5724609375 16.55 16.8 16.35 18.3826171875 16.35 21.85 16.35 29.5 23.4 32.35 27.8 34.1 36.3 34.1 39.65703125 34.1 41.85 34 46.67421875 30.8251953125 48.85 26.85
L 49.85 20.1
M 43.25 20.05
Q 43.95 20.95 43.95 22.2 43.95 23.45 43.25 24.3 42.55 25.2 41.55 25.2 40.6 25.2 39.9 24.3 39.2 23.45 39.2 22.2 39.2 20.95 39.9 20.05 40.6 19.2 41.55 19.2 42.55 19.2 43.25 20.05
M 55.9 20.75
Q 55.070703125 21.09921875 53.75 23.05 54.5830078125 24.5279296875 56.35 26.35 59.130078125 29.2142578125 61.25 29.65 61.6 28.6763671875 61.6 27.1 61.6 20.75 55.9 20.75 Z"/>

<path fill="#53315F" stroke="none" d="
M 16.35 21.85
Q 16.35 18.3826171875 16.55 16.8 16.361328125 17.0794921875 16.15 17.35 16.1 17.4 14.1 20.4 12.7 22.5 11.5 26.7 11.1748046875 27.7974609375 10.9 28.85 11.15 29.9625 11.15 31.45 11.15 33.8 9.05 36.2 7.9642578125 37.463671875 6.5 38.3 6.7779296875 38.5861328125 7.1 38.85 9.85 41.1 11.05 41.1 12.5 41.1 13.85 39.5 15.15 37.85 15.75 37.85 20.65 40.15 21.3 40.15 31.45 40.15 39.9 35.25 40.9359375 34.6544921875 41.85 34 39.65703125 34.1 36.3 34.1 27.8 34.1 23.4 32.35 16.35 29.5 16.35 21.85
M 19.15 35.7
Q 19.15 34.8 19.95 34.15 20.75 33.5 21.8 33.5 22.9 33.5 23.7 34.15 24.5 34.8 24.5 35.7 24.5 36.65 23.7 37.3 22.9 37.95 21.8 37.95 20.75 37.95 19.95 37.3 19.15 36.65 19.15 35.7
M 53.75 23.05
Q 53.5533203125 23.3759765625 53.35 23.7 51.85 26.2 51.85 27.05 51.85 28.834765625 52.85 29.95 53.2849609375 30.475 53.9 30.85 55.55 31.85 57.75 31.85 60.05 31.85 60.9 30.45 61.1203125 30.1197265625 61.25 29.65 59.130078125 29.2142578125 56.35 26.35 54.5830078125 24.5279296875 53.75 23.05 Z"/>
</g>
</defs>

<g transform="matrix( 0.8803863525390625, 0, 0, 0.8803863525390625, 464.15,349.75) ">
<g transform="matrix( 1, 0, 0, 1, -76.9,6) ">
<g transform="matrix( 0.999755859375, 0.021820068359375, -0.016448974609375, 0.999664306640625, 2.45,37.9) ">
<g transform="matrix( 1, 0, 0, 1, 0,0) ">
<use xlink:href="#blanket_ghost_bottom_copy_0_Layer0_0_FILL"/>
</g>
</g>

<g transform="matrix( 0.997955322265625, -0.057586669921875, 0.1452178955078125, 0.992645263671875, 3.45,6) ">
<g transform="matrix( 1, 0, 0, 1, 0,0) ">
<use xlink:href="#blanket_ghost_hood_copy_0_Layer0_0_FILL"/>
</g>
</g>

<g transform="matrix( 1, 0, -0.05340576171875, 0.999969482421875, 128.15,19.25) ">
<g transform="matrix( 1, 0, 0, 1, 0,0) ">
<use xlink:href="#blanket_ghost_arm_0_Layer0_0_FILL"/>
</g>
</g>

<g transform="matrix( 0.9998931884765625, 0.0618438720703125, 0, 1, 85.9,17.15) ">
<g transform="matrix( 1, 0, 0, 1, 0,0) ">
<use xlink:href="#blanket_ghost_face_0_Layer0_0_FILL"/>
</g>
</g>

<g transform="matrix( 0.9998321533203125, 0.0139007568359375, -0.0139007568359375, 0.9998321533203125, 179,62.85) ">
<g transform="matrix( 0.74951171875, 0, 0, 0.74951171875, -26.55,-13.9) ">
<g transform="matrix( 1, 0, 0, 1, 0,0) ">
<use filter="url(#Filter_1)" xlink:href="#lantern_glow_2_Layer0_0_FILL"/>
</g>
</g>

<g transform="matrix( 1, 0, 0, 1, 0,0) ">
<use xlink:href="#lantern_Hand_copy_2_2_Layer1_0_FILL"/>
</g>

<g transform="matrix( 1, 0, 0, 1, 0,0) ">
<use xlink:href="#lantern_Hand_copy_2_2_Layer0_0_FILL"/>
</g>
</g>

<g transform="matrix( 0.999420166015625, -0.0306243896484375, 0.0306243896484375, 0.999420166015625, 89.1,70.2) ">
<g transform="matrix( 1, 0, 0, 1, 0,0) ">
<use xlink:href="#blanket_ghost_other_arm_0_Layer0_0_FILL"/>
</g>
</g>

<g transform="matrix( 0.999664306640625, -0.0226898193359375, 0.0226898193359375, 0.999664306640625, 69.45,49.25) ">
<g transform="matrix( 1, 0, 0, 1, 0,0) ">
<use xlink:href="#blanket_ghost_teddy_0_Layer0_0_FILL"/>
</g>
</g>
</g>
</g>
</svg>
