
<svg xmlns="http://www.w3.org/2000/svg" version="1.1" xmlns:xlink="http://www.w3.org/1999/xlink" preserveAspectRatio="none" x="0px" y="0px" width="1000px" height="1000px" viewBox="0 0 1000 1000">
<defs>
<linearGradient id="Gradient_1" gradientUnits="userSpaceOnUse" x1="16.925" y1="42.5625" x2="21.474999999999998" y2="26.137500000000003" spreadMethod="pad">
<stop  offset="0%" stop-color="#877046"/>

<stop  offset="30.58823529411765%" stop-color="#CCCC99"/>

<stop  offset="100%" stop-color="#FFFFFF"/>
</linearGradient>

<linearGradient id="Gradient_2" gradientUnits="userSpaceOnUse" x1="10.762500000000001" y1="12.05" x2="26.4375" y2="-3.8500000000000005" spreadMethod="pad">
<stop  offset="0%" stop-color="#877046"/>

<stop  offset="30.58823529411765%" stop-color="#CCCC99"/>

<stop  offset="100%" stop-color="#FFFFFF"/>
</linearGradient>

<linearGradient id="Gradient_3" gradientUnits="userSpaceOnUse" x1="14.525" y1="-11.0125" x2="23.075000000000003" y2="-25.587500000000002" spreadMethod="pad">
<stop  offset="0%" stop-color="#877046"/>

<stop  offset="30.58823529411765%" stop-color="#CCCC99"/>

<stop  offset="100%" stop-color="#FFFFFF"/>
</linearGradient>

<filter id="Filter_1" x="-20%" y="-20%" width="140%" height="140%" color-interpolation-filters="sRGB">
<feColorMatrix in="SourceGraphic" type="matrix" values="1 0 0 0 0 0 1 0 0 0 0 0 1 0 0 0 0 0 0.5 0" result="result1"/>
</filter>

<g id="blanket_ghost_bottom_copy_7_Layer0_0_FILL">
<path fill="#4B286D" stroke="none" d="
M 117.05 96.6
Q 112.85 96.6 105.5 92.95 98.15 89.25 93 89.25 83.3 89.25 71.7 94.9 65.3 98 63.25 98.8 58.65 100.55 54.5 100.55 47.5 100.55 42.35 94.75 39.65 91.7 34.4 82.15 29.6 73.4 25.75 69.9 20.7099609375 65.3298828125 13.9 65.15 12.2119140625 67.0400390625 10.7 69.2 17.8 69.15 23.5 74.4 27.05 77.65 32.5 85.95 36.29921875 91.7166015625 38.95 94.95 40.237109375 96.519140625 41.25 97.5 46.7 102.75 53.35 102.75 63.6 102.75 74.4 98.2 80.8 95.5 82.1 95.05 86.3 93.6 90 93.6 91.05 93.6 103.15 96.45 115.25 99.25 118.5 99.25 124.1744140625 99.25 130.15 92.25 129.96875 92.43125 129.75 92.6 124.55 96.6 117.05 96.6 Z"/>

<path fill="#000000" stroke="none" d="
M 153.65 43.9
Q 153.2 43.35 153.2 42.8 153.2 42.6951171875 153.2 42.55 152.6140625 44.5287109375 151.9 46.75 148.05 58.85 143.45 69.25 136.624609375 84.7623046875 130.15 92.25 124.1744140625 99.25 118.5 99.25 115.25 99.25 103.15 96.45 91.05 93.6 90 93.6 86.3 93.6 82.1 95.05 80.8 95.5 74.4 98.2 63.6 102.75 53.35 102.75 46.7 102.75 41.25 97.5 40.237109375 96.519140625 38.95 94.95 36.29921875 91.7166015625 32.5 85.95 27.05 77.65 23.5 74.4 17.8 69.15 10.7 69.2 12.2119140625 67.0400390625 13.9 65.15 18.138671875 60.5625 23.55 57.75 33.95 53.45 41.2 50.45 52.95 45.55 57.5 41.3 63.7541015625 35.341796875 64 26.05 63.9732421875 26.087890625 63.95 26.1 59.4787109375 32.3912109375 49.75 38.15 38.9 44.6 27.65 46.9 22.4 47.95 17.45 50.65 14.25 52.4 9 56.15 8.1 56.85 3 64.4 -2.7 72.9 -2.7 75.45 -2.7 77.75 3.75 79.6 7.15 80.55 12 81.8 14.95 83.3 18.1 87.9 20.5 91.35 22.5 95.75 26.65 105.1 33.25 109.2 39.8 113.2 50.5 113.2 56.25 113.2 67.25 108 78.25 102.75 81.05 102.75 87.15 102.75 94.85 105.85 102.5 108.9 107.85 108.9 126.1 108.9 140.5 87.5 146.8 78.1 150.4 66.85 154.05 55.5 154.05 45 154.05 44.4 153.65 43.9 Z"/>

<path fill="#CC33FF" stroke="none" d="
M 154.05 20.3
Q 152.7 13.15 148.4 8.6 137.75 -2.6 103.7 -2.6 95.05 -2.6 83.1 3.65 71.35 9.75 69.1 15.1 67.75 18.25 64.3 25.4 64.1212890625 25.7638671875 63.95 26.1 63.9732421875 26.087890625 64 26.05 63.7541015625 35.341796875 57.5 41.3 52.95 45.55 41.2 50.45 33.95 53.45 23.55 57.75 18.138671875 60.5625 13.9 65.15 20.7099609375 65.3298828125 25.75 69.9 29.6 73.4 34.4 82.15 39.65 91.7 42.35 94.75 47.5 100.55 54.5 100.55 58.65 100.55 63.25 98.8 65.3 98 71.7 94.9 83.3 89.25 93 89.25 98.15 89.25 105.5 92.95 112.85 96.6 117.05 96.6 124.55 96.6 129.75 92.6 129.96875 92.43125 130.15 92.25 136.624609375 84.7623046875 143.45 69.25 148.05 58.85 151.9 46.75 152.6140625 44.5287109375 153.2 42.55 153.2 42.6951171875 153.2 42.8 153.2 43.35 153.65 43.9 153.8443359375 42.989453125 154.05 42 154.9 38 154.9 33.9 154.9 24.7 154.05 20.3
M 66.65 45.7
Q 66.5 46.2 66.1 47.7 66.15 48 68.8 49.7 71.2 51.55 72.8 52.2 72.5 53.05 72.75 55.25 73.05 55.2 74.3 56.15 75.7 56.6 77.1 57.8 73.65 56.9 72.6 57.4 72.35 59.15 72.85 60.5 72.8 60.8 74.15 61.25 75 61.95 75.45 62.4 73.55 62.25 72.65 62.65 72.05 64.3 71.65 65.95 71.95 65.9 72.65 66.65 72.85 67 73.05 67.55 70.95 68 70.8 68.25 70.4 68.15 70.55 68.25 65 75.65 64.2 75.6 60.35 75.35 57.9 74.1 54.6 76 55.3 76.65 53.85 75.6 54.35 74.1 54.4 72.05 55.25 72.35 53.85 71.05 52.4 70.15 51.8 69.45 51.2 68.9 44.8 69.2 44.15 69.3 43.55 68.65 47.1 68.6 49.2 67.55 50.3 67.65 48.55 66.05 47.6 64.85 42.25 60.6 38.7 58.15 37.2 57.8 37.1 58.05 37.75 55.95 41.35 55.85 43.5 55.05 49 53.6 50.85 51.7 56.1 47.75 61.5 44.75 62.05 44.95 62.95 44.7 64.85 46.45 66.75 42.75 67.2 43.2 66.15 44.85 66.65 45.7 Z"/>

<path fill="#CC99FF" stroke="none" d="
M 66.1 47.7
Q 66.5 46.2 66.65 45.7 66.15 44.85 67.2 43.2 66.75 42.75 64.85 46.45 62.95 44.7 62.05 44.95 61.5 44.75 56.1 47.75 50.85 51.7 49 53.6 43.5 55.05 41.35 55.85 37.75 55.95 37.1 58.05 37.2 57.8 38.7 58.15 42.25 60.6 47.6 64.85 48.55 66.05 50.3 67.65 49.2 67.55 47.1 68.6 43.55 68.65 44.15 69.3 44.8 69.2 51.2 68.9 51.8 69.45 52.4 70.15 53.85 71.05 55.25 72.35 54.4 72.05 54.35 74.1 53.85 75.6 55.3 76.65 54.6 76 57.9 74.1 60.35 75.35 64.2 75.6 65 75.65 70.55 68.25 70.4 68.15 70.8 68.25 70.95 68 73.05 67.55 72.85 67 72.65 66.65 71.95 65.9 71.65 65.95 72.05 64.3 72.65 62.65 73.55 62.25 75.45 62.4 75 61.95 74.15 61.25 72.8 60.8 72.85 60.5 72.35 59.15 72.6 57.4 73.65 56.9 77.1 57.8 75.7 56.6 74.3 56.15 73.05 55.2 72.75 55.25 72.5 53.05 72.8 52.2 71.2 51.55 68.8 49.7 66.15 48 66.1 47.7 Z"/>
</g>

<g id="blanket_ghost_hood_copy_7_Layer0_0_FILL">
<path fill="#4B286D" stroke="none" d="
M 45.95 66.15
Q 45.7 66 45.9 66.65 45.55 67.85 49.2 68.7 50.45 68.55 53.7 69.2 52.15 70.5 50.85 72.2 49.6 73 48.75 73.35 49 73.4 49.5 73.6 58.9 72.5 63.45 58.8 60.8 60.45 57.2 62.4 49.85 65.05 45.95 66.15
M 63 41.85
Q 62.2 41.65 62.35 41.9 54 45.3 45.45 49.2 27 55.65 15.4 53.9 11.8 52.65 10.25 51.8 7.9 49.65 8.15 49 7.55 49.8 7.65 51.6 5.9 59 12.1 63.2 16.95 66.1 24.7 63.8 31.9 60.4 41.75 55.9 51.2 50.25 53.7 51.95 50.8 55.15 49.35 58.5 48.6 58.45 49.25 58.8 50.5 56.75 52.75 55.15 56.35 49.95 63 41.85
M 136.35 22.35
Q 133.2 17.7 128.2 15 117.2 4.65 102.05 8.1 86.2 10.85 76.55 14.65 77.15 14.5 79.75 15.85 82 16.25 83.7 16.9 76 20.95 74.1 25.55 72.15 27.35 70.25 33.65 74.35 25.9 86.95 18.7 98.05 10.9 107.35 10.05 115.5 8.8 122 12.8 127.8 15.8 136.1 22.35
L 136.35 22.35 Z"/>

<path fill="#CC99FF" stroke="none" d="
M 55.75 21.2
Q 54.85 19.95 54.65 19.35 51.9 19.4 50.45 20.75 40.1 23.7 31.6 29.15 30.9 28.4 31.6 29.2 31.6 30.95 32.35 34.2 32.65 35.85 33.65 38.4 35.05 36.75 37.95 35.75 38.15 36.6 38.95 38.25 39.95 40.85 40.5 41.4 40 37.1 40.3 34.7 41.25 33.75 43.1 33.5 42.65 33.6 44.35 37.6 44.35 37.5 44.8 37.85 44.2 35.7 44.55 32.9 45.5 32.7 53 29.85 57.65 27.3 58.3 27.3 58 26 57.05 23.75 56.95 23.5 58.65 23.4 59.45 22.8 60.75 23.25 59.45 21.75 57.65 21.4 56 20.9 55.75 21.2 Z"/>

<path fill="#000000" stroke="none" d="
M 156.9 34.7
Q 158.4 39.4 158.9 41.95 158 51.05 147.4 64.3 140.9 70.8 140.9 73.45 137.5 77.8 138.45 81.65 140.3 76 145.75 70.3 147.7 66.95 153.95 61.25 163.8 50.15 164.95 38.8 163.85 29.6 157.9 22.45 135.1 2.55 110.5 3.9 85.5 4 71.15 5.7 56.8 7.2 44.6 12.85 32.05 16.75 21.9 22.65 8.1 27.55 1.2 34.95 -2.6 39.25 -3.5 51.15 -2.45 63.75 7 71.7 13.5 76.05 22.4 76.85 26.15 76.3 33.8 71.5 35.3419921875 70.206640625 37.25 68.9 36.812109375 69.2205078125 37.35 70.15 37.45 72.4 39.7 74.05 40.75 74.4 43.35 74.75 44.7 74.5 46.6 74.3 47.35 73.5 48.75 73.4
L 48.75 73.35
Q 49.6 73 50.85 72.2 52.15 70.5 53.7 69.2 50.45 68.55 49.2 68.7 45.55 67.85 45.9 66.65 45.7 66 45.95 66.15 46.2 63.35 49.25 58.8 48.6 58.45 49.35 58.5 50.8 55.15 53.7 51.95 51.2 50.25 41.75 55.9 31.9 60.4 24.7 63.8 16.95 66.1 12.1 63.2 5.9 59 7.65 51.6 7.55 49.8 8.15 49 9.75 42.3 15.85 39.15 22.3 33.85 31.6 29.2 30.9 28.4 31.6 29.15 40.1 23.7 50.45 20.75 51.9 19.4 54.65 19.35 61.5 16.55 69.3 15.45 71.7 14.25 76.45 14.65 76.5 14.65 76.55 14.65 86.2 10.85 102.05 8.1 117.2 4.65 128.2 15 140.7 18.25 152.65 27.35 152.85 27.15 153.3 27.95 154.45 29.8 156.9 34.7 Z"/>

<path fill="#CC33FF" stroke="none" d="
M 128.2 15
Q 133.2 17.7 136.35 22.35
L 136.1 22.35
Q 127.8 15.8 122 12.8 115.5 8.8 107.35 10.05 98.05 10.9 86.95 18.7 74.35 25.9 70.25 33.65 72.15 27.35 74.1 25.55 76 20.95 83.7 16.9 82 16.25 79.75 15.85 77.15 14.5 76.55 14.65 76.5 14.65 76.45 14.65 71.7 14.25 69.3 15.45 61.5 16.55 54.65 19.35 54.85 19.95 55.75 21.2 56 20.9 57.65 21.4 59.45 21.75 60.75 23.25 59.45 22.8 58.65 23.4 56.95 23.5 57.05 23.75 58 26 58.3 27.3 57.65 27.3 53 29.85 45.5 32.7 44.55 32.9 44.2 35.7 44.8 37.85 44.35 37.5 44.35 37.6 42.65 33.6 43.1 33.5 41.25 33.75 40.3 34.7 40 37.1 40.5 41.4 39.95 40.85 38.95 38.25 38.15 36.6 37.95 35.75 35.05 36.75 33.65 38.4 32.65 35.85 32.35 34.2 31.6 30.95 31.6 29.2 22.3 33.85 15.85 39.15 9.75 42.3 8.15 49 7.9 49.65 10.25 51.8 11.8 52.65 15.4 53.9 27 55.65 45.45 49.2 54 45.3 62.35 41.9 62.2 41.65 63 41.85 56.35 49.95 52.75 55.15 50.5 56.75 49.25 58.8 46.2 63.35 45.95 66.15 49.85 65.05 57.2 62.4 60.8 60.45 63.45 58.8 58.9 72.5 49.5 73.6 49 73.4 48.75 73.35
L 48.75 73.4
Q 47.35 73.5 46.6 74.3 47.25 75.7 49.45 78.7 49.75 79.85 52 83.7 53.15 86.75 54.75 88.1 57.6 91.8 60.45 94.1 65.5 98.4 70.95 99.95 85.9 103.05 87.5 103.8 94.75 104.65 104.55 104.75 122.95 101.9 132.9 92.25 135.1 88.4 137.65 83.85 137.75 82.25 138.5 81.7
L 138.45 81.65
Q 137.5 77.8 140.9 73.45 140.9 70.8 147.4 64.3 158 51.05 158.9 41.95 158.4 39.4 156.9 34.7 154.45 29.8 153.3 27.95 152.85 27.15 152.65 27.35 140.7 18.25 128.2 15 Z"/>
</g>

<g id="blanket_ghost_arm_0_Layer0_0_FILL">
<path fill="#CC33FF" stroke="none" d="
M 38.55 21.85
Q 38.05 22.5 37.5 23.3 34.6 28.85 33.45 34.95 32.65 39.1 31.15 47.45 36.45 39.8 39.3 33.3 39.65 32.5 40 31.65 40.8 24.2 42.7 18.5 40.45 19.6 38.55 21.85
M 36.3 22.05
Q 36.95 20.65 37.7 19.6 28 22.5 19.55 29.85 21.9 29 24.95 28 31.9 25.7 36.3 22.05
M 70 20.35
Q 69.35 20.35 68.2 21 66.9 21.75 66.9 22.5 66.9 23.55 67.9 24 68.75 24.35 70.4 24.35 71.7 24.35 75.25 23.7 75.25 23.95 75.25 24.2 76.2 22.65 76.2 20.2 76.2 15.95 73.25 12.45 69.85 8.4 61.5 8.4 53.15 8.35 47.2 18 41.95 26.4 39.4 44.05 39.4 43.85 39.4 43.8 39.4 42.9 39.4 42 39.15 43.2 38.85 44.3 37.3 50.2 34.75 55.8
L 35.05 55.5
Q 40.3 52.85 43.25 46.35 44.5 43.65 47.25 34 49.5 26.2 52.1 22.6 55.95 17.4 62.85 16.35 60.9 15.35 59.9 14.95 58.25 14.35 56.15 14.7 58 13.65 59 13.45 59.55 13.35 62.35 13.35 65.85 13.35 68.85 15.05 72.2 16.95 72.2 19.85
L 72.2 21.35
Q 72.05 21.1 71.25 20.75 70.4 20.35 70 20.35 Z"/>

<path fill="#4B286D" stroke="none" d="
M 62.85 20.7
Q 64.05 18.75 65.8 18.75 66.85 18.75 67.65 19.4 67.45 19.35 67.2 19.35 66.25 19.35 65.5 20.4 64.85 21.4 64.85 22.6 64.85 24.6 66.15 25.7 67.45 26.75 69.85 26.75 72.95 26.75 74.6 25.05 74.95 24.65 75.25 24.2 75.25 23.95 75.25 23.7 71.7 24.35 70.4 24.35 68.75 24.35 67.9 24 66.9 23.55 66.9 22.5 66.9 21.75 68.2 21 69.35 20.35 70 20.35 70.4 20.35 71.25 20.75 72.05 21.1 72.2 21.35
L 72.2 19.85
Q 72.2 16.95 68.85 15.05 65.85 13.35 62.35 13.35 59.55 13.35 59 13.45 58 13.65 56.15 14.7 58.25 14.35 59.9 14.95 60.9 15.35 62.85 16.35 55.95 17.4 52.1 22.6 49.5 26.2 47.25 34 44.5 43.65 43.25 46.35 40.3 52.85 35.05 55.5
L 34.75 55.8
Q 37.3 50.2 38.85 44.3 39.15 43.2 39.4 42 39.5 36.45 40 31.65 39.65 32.5 39.3 33.3 36.45 39.8 31.15 47.45 32.65 39.1 33.45 34.95 34.6 28.85 37.5 23.3 35.9 25.6 34.05 29.4
L 33.7 29.4
Q 34.8 25.05 36.3 22.05 31.9 25.7 24.95 28 21.9 29 19.55 29.85 16.6 32.35 13.8 35.45 0 50.7 0 70.05 0 71.5 0.65 75.2 0.75 75.9 0.9 76.55 3.2 84.2 6.65 85.65 11.15 87.5 13.5 88.3 17.6 89.6 20.55 89.6 30.45 89.6 38.5 81.75 46.4 74.1 49.8 61.6 51.1 56.75 52.6 50.15 54.15 43.4 54.8 39.45 56.35 30.45 56.45 30.15 57.85 26 61.8 24.05 61.85 22.3 62.85 20.7 Z"/>

<path fill="#000000" stroke="none" d="
M 74.8 2.2
Q 73.3 1.2 71.9 0.55 70.7 0.1 69.65 0 67.2 0 66 0 50.75 0 44.25 14.4 40.6 15.85 38.3 18.75 38 19.15 37.7 19.6 36.95 20.65 36.3 22.05 34.8 25.05 33.7 29.4
L 34.05 29.4
Q 35.9 25.6 37.5 23.3 38.05 22.5 38.55 21.85 40.45 19.6 42.7 18.5 40.8 24.2 40 31.65 39.5 36.45 39.4 42 39.4 42.9 39.4 43.8 39.4 43.85 39.4 44.05 41.95 26.4 47.2 18 53.15 8.35 61.5 8.4 69.85 8.4 73.25 12.45 76.2 15.95 76.2 20.2 76.2 22.65 75.25 24.2 74.95 24.65 74.6 25.05 72.95 26.75 69.85 26.75 67.45 26.75 66.15 25.7 64.85 24.6 64.85 22.6 64.85 21.4 65.5 20.4 66.25 19.35 67.2 19.35 67.45 19.35 67.65 19.4 66.85 18.75 65.8 18.75 64.05 18.75 62.85 20.7 61.85 22.3 61.8 24.05 57.85 26 56.45 30.15 56.35 30.45 54.8 39.45 54.15 43.4 52.6 50.15 51.1 56.75 49.8 61.6 46.4 74.1 38.5 81.75 30.45 89.6 20.55 89.6 17.6 89.6 13.5 88.3 11.15 87.5 6.65 85.65 3.2 84.2 0.9 76.55 0.75 76.1 0.6 75.6
L 0.6 75.25
Q 0.5962890625 75.3587890625 0.45 75.7 0.25 76.1 0.25 76.6 0.25 84.95 5 91.05 5.35 91.5 5.7 91.9 6.15 92.45 6.65 92.95 7.5 93.85 8.35 94.6 13.95 99.4 21.15 99.4 34.65 99.4 42.2 92.35 48.55 86.45 54.8 70.85 56.4 66.85 57.65 59.65 58.75 53.4 59.15 47.8 59.75 45.65 59.75 41.9 59.6 37.65 59.65 35.7 59.8 29.8 63.2 28.65 65.05 30.8 69.35 30.8 76.55 30.8 80.3 25.4 83.3 21.05 83.3 14.85 83.3 8.9 77.25 4 76 3 74.8 2.2 Z"/>
</g>

<g id="blanket_ghost_face_0_Layer0_0_FILL">
<path fill="#000000" stroke="none" d="
M 58.55 9.05
Q 49.75 0 41.5 0 32.5 0 27.45 2.7 22.65 5.3 14.1 14.4 0 29.5 0 43.5 0 52.8 12.4 57.9 21.45 61.6 30.45 61.6 38.45 61.6 48.2 55.75 53.5 52.55 57.35 49.05 62.9 41.7 64.75 37.95 67.25 32.9 67.25 26.15 67.25 18.05 58.55 9.05
M 41.8 5
Q 50 5 57.2 12.05 64.25 18.95 64.25 26.45 64.25 34.3 59.9 41.2 55.45 48.3 47.55 52.45 44.35 55 42.4 55.95 37.75 58.25 30.6 58.25 22.45 58.25 15.45 55.3 4.4 50.6 4.4 40.3 4.4 28.15 17.15 16.45 29.6 5 41.8 5 Z"/>

<path fill="#333333" stroke="none" d="
M 57.2 12.05
Q 50 5 41.8 5 29.6 5 17.15 16.45 4.4 28.15 4.4 40.3 4.4 50.6 15.45 55.3 22.45 58.25 30.6 58.25 37.75 58.25 42.4 55.95 44.35 55 47.55 52.45 55.45 48.3 59.9 41.2 64.25 34.3 64.25 26.45 64.25 18.95 57.2 12.05
M 43.55 23.95
Q 43.55 23.05 44.2 22.4 44.85 21.75 45.75 21.75 46.7 21.75 47.35 22.4 48 23.05 48 24 48 24.9 47.35 25.55 46.7 26.2 45.75 26.2 44.85 26.2 44.2 25.55 43.55 24.9 43.55 23.95
M 32.9 23.15
Q 32.9 20.95 34.05 19.35 35.25 17.8 36.9 17.8 38.55 17.8 39.75 19.35 40.95 20.95 40.95 23.2 40.95 25.4 39.75 27 38.55 28.6 36.9 28.6 35.25 28.6 34.05 27 32.9 25.4 32.9 23.15 Z"/>

<path fill="#66CCFF" stroke="none" d="
M 34.05 19.35
Q 32.9 20.95 32.9 23.15 32.9 25.4 34.05 27 35.25 28.6 36.9 28.6 38.55 28.6 39.75 27 40.95 25.4 40.95 23.2 40.95 20.95 39.75 19.35 38.55 17.8 36.9 17.8 35.25 17.8 34.05 19.35
M 44.2 22.4
Q 43.55 23.05 43.55 23.95 43.55 24.9 44.2 25.55 44.85 26.2 45.75 26.2 46.7 26.2 47.35 25.55 48 24.9 48 24 48 23.05 47.35 22.4 46.7 21.75 45.75 21.75 44.85 21.75 44.2 22.4 Z"/>
</g>

<g id="lantern_glow_1_Layer0_0_FILL">
<path fill="#3399FF" stroke="none" d="
M 130.2 59.45
Q 130.2 30.15 109.45 9.4 88.75 -11.3 59.45 -11.3 30.15 -11.3 9.4 9.4 -11.3 30.15 -11.3 59.45 -11.3 88.75 9.4 109.45 30.15 130.2 59.45 130.2 88.75 130.2 109.45 109.45 130.2 88.75 130.2 59.45
M 113.95 56.15
Q 113.95 78.75 98 94.7 82.05 110.7 59.45 110.7 36.85 110.7 20.9 94.7 4.95 78.75 4.95 56.15 4.95 33.55 20.9 17.55 36.85 1.6 59.45 1.6 82.05 1.6 98 17.55 113.95 33.55 113.95 56.15 Z"/>

<path fill="#00FFFF" stroke="none" d="
M 98 94.7
Q 113.95 78.75 113.95 56.15 113.95 33.55 98 17.55 82.05 1.6 59.45 1.6 36.85 1.6 20.9 17.55 4.95 33.55 4.95 56.15 4.95 78.75 20.9 94.7 36.85 110.7 59.45 110.7 82.05 110.7 98 94.7
M 92.95 55.35
Q 92.95 70.2 82.45 80.65 71.95 91.15 57.1 91.15 42.25 91.15 31.75 80.65 21.25 70.2 21.25 55.35 21.25 40.5 31.75 30 42.25 19.55 57.1 19.55 71.95 19.55 82.45 30 92.95 40.5 92.95 55.35 Z"/>

<path fill="#FFFFFF" stroke="none" d="
M 82.45 80.65
Q 92.95 70.2 92.95 55.35 92.95 40.5 82.45 30 71.95 19.55 57.1 19.55 42.25 19.55 31.75 30 21.25 40.5 21.25 55.35 21.25 70.2 31.75 80.65 42.25 91.15 57.1 91.15 71.95 91.15 82.45 80.65 Z"/>
</g>

<g id="lantern_Hand_copy_2_1_Layer1_0_FILL">
<path fill="#000000" stroke="none" d="
M 18.4 -22.8
Q 17.65 -22.9 16.85 -22.9 12.3 -22.9 9.05 -20.6 5.9 -18.25 5.9 -14.9 5.9 -11.6 8.95 -9.4
L 5.6 -9.4 -12.25 7.95 7.55 49.7 30.95 47.6 45.05 6 28.45 -9.4 24.75 -9.4
Q 27.9 -11.6 27.9 -14.9 27.9 -18.25 24.6 -20.6 22 -22.5 18.4 -22.8
M 16.85 -21.4
Q 17.95 -21.4 18.95 -21.2 21.2 -20.8 22.95 -19.5 25.55 -17.6 25.55 -14.85 25.55 -12.15 22.95 -10.3 22.85 -10.2 22.8 -10.1 21.65 -9.3 20.3 -8.85 18.7 -8.35 16.85 -8.35 15.05 -8.35 13.45 -8.85 11.95 -9.35 10.7 -10.3 8.2 -12.15 8.2 -14.85 8.2 -17.6 10.7 -19.5 13.25 -21.4 16.85 -21.4
M 22 -6.2
L 26 -6.2 35.65 8.1 27.65 8.1 -1.3 8.1 8.15 -6.2 22 -6.2
M 10.65 43.1
L 7.95 37.75 25.2 37.75 28.7 37.75 25.75 43.4 23.5 43.35 10.65 43.1
M 31.15 36.4
L 5.45 36.7 -4.6 9.75 39.2 9.75 31.15 36.4
M 13.95 -14.75
Q 13.95 -13.7 14.8 -13 15.65 -12.25 16.85 -12.25 18.1 -12.25 18.95 -13 19.8 -13.7 19.8 -14.75 19.8 -15.75 18.95 -16.5 18.1 -17.3 16.85 -17.3 15.65 -17.3 14.8 -16.5 13.95 -15.75 13.95 -14.75
M 15.65 -15.95
Q 16.2 -16.45 16.85 -16.45 17.6 -16.45 18.1 -15.95 18.65 -15.45 18.65 -14.8 18.65 -14.1 18.1 -13.65 17.6 -13.2 16.85 -13.2 16.2 -13.2 15.65 -13.65 15.15 -14.1 15.15 -14.8 15.15 -15.45 15.65 -15.95 Z"/>

<path fill="#FFFFFF" stroke="none" d="
M 23.5 43.35
L 25.75 43.4 28.7 37.75 25.2 37.75 23.5 43.35
M 26 -6.2
L 22 -6.2 27.65 8.1 35.65 8.1 26 -6.2
M 22.8 -10.1
Q 22.85 -10.2 22.95 -10.3 25.55 -12.15 25.55 -14.85 25.55 -17.6 22.95 -19.5 21.2 -20.8 18.95 -21.2 24.9 -17.1 22.8 -10.1 Z"/>

<path fill="url(#Gradient_1)" stroke="none" d="
M 7.95 37.75
L 10.65 43.1 23.5 43.35 25.2 37.75 7.95 37.75 Z"/>

<path fill="url(#Gradient_2)" stroke="none" d="
M 22 -6.2
L 8.15 -6.2 -1.3 8.1 27.65 8.1 22 -6.2 Z"/>

<path fill="url(#Gradient_3)" stroke="none" d="
M 18.95 -21.2
Q 17.95 -21.4 16.85 -21.4 13.25 -21.4 10.7 -19.5 8.2 -17.6 8.2 -14.85 8.2 -12.15 10.7 -10.3 11.95 -9.35 13.45 -8.85 15.05 -8.35 16.85 -8.35 18.7 -8.35 20.3 -8.85 21.65 -9.3 22.8 -10.1 24.9 -17.1 18.95 -21.2
M 14.8 -13
Q 13.95 -13.7 13.95 -14.75 13.95 -15.75 14.8 -16.5 15.65 -17.3 16.85 -17.3 18.1 -17.3 18.95 -16.5 19.8 -15.75 19.8 -14.75 19.8 -13.7 18.95 -13 18.1 -12.25 16.85 -12.25 15.65 -12.25 14.8 -13 Z"/>
</g>

<g id="lantern_Hand_copy_2_1_Layer0_0_FILL">
<path fill="#66CCFF" stroke="none" d="
M 10.25 31.15
Q 10.25 33.05 12.35 34.45 14.5 35.85 17.55 35.85 20.6 35.85 22.7 34.45 24.85 33.05 24.85 31.15 24.85 29.2 22.7 27.8 20.6 26.45 17.55 26.45 14.5 26.45 12.35 27.8 10.25 29.2 10.25 31.15
M 19 29.4
Q 19.6 29.95 19.6 30.7 19.6 31.5 19 32.1 18.35 32.6 17.4 32.6 16.5 32.6 15.9 32.1 15.2 31.5 15.2 30.7 15.2 29.95 15.9 29.4 16.5 28.85 17.4 28.85 18.35 28.85 19 29.4 Z"/>

<path fill="#FFFFFF" stroke="none" d="
M 19.6 30.7
Q 19.6 29.95 19 29.4 18.35 28.85 17.4 28.85 16.5 28.85 15.9 29.4 15.2 29.95 15.2 30.7 15.2 31.5 15.9 32.1 16.5 32.6 17.4 32.6 18.35 32.6 19 32.1 19.6 31.5 19.6 30.7 Z"/>
</g>

<g id="blanket_ghost_other_arm_0_Layer0_0_FILL">
<path fill="#4B286D" stroke="none" d="
M 51.3 9.95
Q 51.6 14.4 51.6 14.8 51.6 22.75 48.15 32.95 47.3 35.4 42.2 47.85
L 42.2 48.2
Q 43.75 47 46.2 43.6 48.45 40.5 49.2 38.75
L 49.85 38.75
Q 49.65 41.15 50 44.95 50.25 43.05 50.8 38.95 53.55 17.85 51.3 9.95
M 45.85 9.35
L 45.55 9.35
Q 37.05 17.5 32.7 20.4 22.55 27.15 6.95 31.8 10.1 32.45 11.55 32.45 17.75 32.45 25.25 29.5 33.15 26.4 37.1 22
L 37.1 22.35
Q 36.9 23.4 33.95 33.85 31.45 42.75 31.45 44.3 31.45 44.85 31.5 44.9 31.55 44.95 31.8 45.1 39.35 40.65 44.55 30.4 50.15 19.25 47.85 10.3
L 45.2 13.3
Q 45.2 12.4 45.85 11
L 45.85 9.35 Z"/>

<path fill="#CC33FF" stroke="none" d="
M 51.3 9.95
Q 50 5.55 47.25 5.2 43.15 4.65 37.95 7.75 30.7 11.95 28.65 12.6 23.95 14 17.9 15.25 13.25 16.15 10.25 16.75 7.65 17.65 6 18.6 0 22 0 30.25 0 36.55 13.7 47.5 26.7 57.85 31.65 57.85 33 57.85 38.9 55.75 44.7 53.6 45.55 52.85 48.05 50.55 49.05 48.55 49.25 48.15 49.55 47.55 49.65 46.9 49.75 46.25 49.85 45.85 50 44.95 49.65 41.15 49.85 38.75
L 49.2 38.75
Q 48.45 40.5 46.2 43.6 43.75 47 42.2 48.2
L 42.2 47.85
Q 47.3 35.4 48.15 32.95 51.6 22.75 51.6 14.8 51.6 14.4 51.3 9.95
M 45.55 9.35
L 45.85 9.35 45.85 11
Q 45.2 12.4 45.2 13.3
L 47.85 10.3
Q 50.15 19.25 44.55 30.4 39.35 40.65 31.8 45.1 31.55 44.95 31.5 44.9 31.45 44.85 31.45 44.3 31.45 42.75 33.95 33.85 36.9 23.4 37.1 22.35
L 37.1 22
Q 33.15 26.4 25.25 29.5 17.75 32.45 11.55 32.45 10.1 32.45 6.95 31.8 22.55 27.15 32.7 20.4 37.05 17.5 45.55 9.35 Z"/>

<path fill="#000000" stroke="none" d="
M 55.9 10.4
Q 54.65 0.8 49.1 0.1 44.55 -0.5 37.2 3.35 29.45 8 26.75 9.3 23.45 10.9 16.65 13.6 9.6 16.35 7.75 17.25 8.8 17.05 10.25 16.75 13.25 16.15 17.9 15.25 23.95 14 28.65 12.6 30.7 11.95 37.95 7.75 43.15 4.65 47.25 5.2 50 5.55 51.3 9.95 53.55 17.85 50.8 38.95 50.25 43.05 50 44.95 49.85 45.85 49.75 46.25 49.65 46.9 49.55 47.55 49.4 48.1 49.3 48.7 49.55 48.1 49.9 47.5 50 47.2 50.15 46.85 50.7 45.4 51.3 43.8 51.75 42.8 52.1 41.8 54.25 35.2 55.45 26.05 56.65 16.9 55.9 10.4 Z"/>
</g>

<g id="blanket_ghost_teddy_0_Layer0_0_FILL">
<path fill="#000000" stroke="none" d="
M 55.55 18.75
Q 55 18.75 53.6 19.15
L 52.25 19.5
Q 51.9 13.5 47.6 9.7 43.3 5.9 38.2 6.35 37.2 1.75 36.5 1 35.6 0 31.6 0 27.95 0 23.5 2.3 18.4 4.95 18.4 8.05 18.4 8.75 19.1 10.2 20 12.15 20.1 12.4 15.6 12.25 12.35 17.35 9.6876953125 21.49140625 9.5 25.95 9.5021484375 26.0365234375 9.5 26.1 5.9 26.55 3 29.5 0 32.5 0 35.75 0 38.180078125 1.2 40 2.03515625 41.2080078125 3.35 42.15 6.15 44.15 9.55 44.15 10.8 44.15 13.45 42.7 15.4 41.65 16.4 40.85 17.95 41.7 20.3 42 21.4 42.15 24.95 42.15 32.7 42.15 41.65 37.3 45.52734375 35.166015625 47.65 33.15 49.0619140625 31.8564453125 49.7 30.6 50.003515625 31.234765625 50.4 31.8 50.7744140625 32.301953125 51.2 32.75 53.7 35.45 57.2 35.45 60.35 35.45 62.3 33.1 63.4970703125 31.6265625 63.95 29.55 64.25 28.275 64.25 26.75 64.25 22.85 61.95 20.75 59.7 18.75 55.55 18.75
M 53.35 23.7
Q 53.5533203125 23.3759765625 53.75 23.05 55.070703125 21.09921875 55.9 20.75 61.6 20.75 61.6 27.1 61.6 28.6763671875 61.25 29.65 61.1203125 30.1197265625 60.9 30.45 60.05 31.85 57.75 31.85 55.55 31.85 53.9 30.85 53.2849609375 30.475 52.85 29.95 51.85 28.834765625 51.85 27.05 51.85 26.2 53.35 23.7
M 42.9 11.8
Q 49.5 12.85 49.85 20.1
L 48.85 26.85
Q 46.67421875 30.8251953125 41.85 34 40.9359375 34.6544921875 39.9 35.25 31.45 40.15 21.3 40.15 20.65 40.15 15.75 37.85 15.15 37.85 13.85 39.5 12.5 41.1 11.05 41.1 9.85 41.1 7.1 38.85 6.7779296875 38.5861328125 6.5 38.3 4.05 36.1494140625 4.05 34.45 4.05 34.05 5.7 31.4 7.55 28.45 8.55 28.45 9.05 28.45 9.6 28.6 10.05 31.25 10.3 31.95 10.5375 30.4365234375 10.9 28.85 11.1748046875 27.7974609375 11.5 26.7 12.7 22.5 14.1 20.4 16.1 17.4 16.15 17.35 16.361328125 17.0794921875 16.55 16.8 17.6875 15.5724609375 19.1 14.7 19.6 14.4 22.75 13.85 25.35 13.45 25.8 12.4 24.827734375 12.6916015625 23.3 10.9 23.29296875 10.852734375 23.25 10.8 21.65 8.9 21.75 7.7 22.25 7.6 26.95 5.55 31.25 3.7 33.15 3.7 34.45 3.7 35.3 5.25 36.45 7.4 36.8 7.7 36.3 8.35 34.9 9.75 33.65 11.05 32.9 12.05
L 33.15 12.05
Q 35.1 10.95 35.85 10.8 36.25 10.7 42.9 11.8
M 19.95 34.15
Q 19.15 34.8 19.15 35.7 19.15 36.65 19.95 37.3 20.75 37.95 21.8 37.95 22.9 37.95 23.7 37.3 24.5 36.65 24.5 35.7 24.5 34.8 23.7 34.15 22.9 33.5 21.8 33.5 20.75 33.5 19.95 34.15
M 43.95 22.2
Q 43.95 20.95 43.25 20.05 42.55 19.2 41.55 19.2 40.6 19.2 39.9 20.05 39.2 20.95 39.2 22.2 39.2 23.45 39.9 24.3 40.6 25.2 41.55 25.2 42.55 25.2 43.25 24.3 43.95 23.45 43.95 22.2 Z"/>

<path fill="#BD793E" stroke="none" d="
M 10.9 28.85
Q 10.5375 30.4365234375 10.3 31.95 10.05 31.25 9.6 28.6 9.05 28.45 8.55 28.45 7.55 28.45 5.7 31.4 4.05 34.05 4.05 34.45 4.05 36.1494140625 6.5 38.3 7.9642578125 37.463671875 9.05 36.2 11.15 33.8 11.15 31.45 11.15 29.9625 10.9 28.85
M 49.85 20.1
Q 49.5 12.85 42.9 11.8 36.25 10.7 35.85 10.8 35.1 10.95 33.15 12.05
L 32.9 12.05
Q 33.65 11.05 34.9 9.75 36.3 8.35 36.8 7.7 36.45 7.4 35.3 5.25 34.45 3.7 33.15 3.7 31.25 3.7 26.95 5.55 22.25 7.6 21.75 7.7 21.65 8.9 23.25 10.8 23.29296875 10.852734375 23.3 10.9 24.827734375 12.6916015625 25.8 12.4 25.35 13.45 22.75 13.85 19.6 14.4 19.1 14.7 17.6875 15.5724609375 16.55 16.8 16.35 18.3826171875 16.35 21.85 16.35 29.5 23.4 32.35 27.8 34.1 36.3 34.1 39.65703125 34.1 41.85 34 46.67421875 30.8251953125 48.85 26.85
L 49.85 20.1
M 43.25 20.05
Q 43.95 20.95 43.95 22.2 43.95 23.45 43.25 24.3 42.55 25.2 41.55 25.2 40.6 25.2 39.9 24.3 39.2 23.45 39.2 22.2 39.2 20.95 39.9 20.05 40.6 19.2 41.55 19.2 42.55 19.2 43.25 20.05
M 55.9 20.75
Q 55.070703125 21.09921875 53.75 23.05 54.5830078125 24.5279296875 56.35 26.35 59.130078125 29.2142578125 61.25 29.65 61.6 28.6763671875 61.6 27.1 61.6 20.75 55.9 20.75 Z"/>

<path fill="#53315F" stroke="none" d="
M 16.35 21.85
Q 16.35 18.3826171875 16.55 16.8 16.361328125 17.0794921875 16.15 17.35 16.1 17.4 14.1 20.4 12.7 22.5 11.5 26.7 11.1748046875 27.7974609375 10.9 28.85 11.15 29.9625 11.15 31.45 11.15 33.8 9.05 36.2 7.9642578125 37.463671875 6.5 38.3 6.7779296875 38.5861328125 7.1 38.85 9.85 41.1 11.05 41.1 12.5 41.1 13.85 39.5 15.15 37.85 15.75 37.85 20.65 40.15 21.3 40.15 31.45 40.15 39.9 35.25 40.9359375 34.6544921875 41.85 34 39.65703125 34.1 36.3 34.1 27.8 34.1 23.4 32.35 16.35 29.5 16.35 21.85
M 19.15 35.7
Q 19.15 34.8 19.95 34.15 20.75 33.5 21.8 33.5 22.9 33.5 23.7 34.15 24.5 34.8 24.5 35.7 24.5 36.65 23.7 37.3 22.9 37.95 21.8 37.95 20.75 37.95 19.95 37.3 19.15 36.65 19.15 35.7
M 53.75 23.05
Q 53.5533203125 23.3759765625 53.35 23.7 51.85 26.2 51.85 27.05 51.85 28.834765625 52.85 29.95 53.2849609375 30.475 53.9 30.85 55.55 31.85 57.75 31.85 60.05 31.85 60.9 30.45 61.1203125 30.1197265625 61.25 29.65 59.130078125 29.2142578125 56.35 26.35 54.5830078125 24.5279296875 53.75 23.05 Z"/>
</g>
</defs>

<g transform="matrix( 0.8803863525390625, 0, 0, 0.8803863525390625, 464.15,349.75) ">
<g transform="matrix( 1, 0, 0, 1, -76.9,6) ">
<g transform="matrix( 0.9997711181640625, 0.01788330078125, -0.0127716064453125, 0.9996795654296875, 1.8,38.15) ">
<g transform="matrix( 1, 0, 0, 1, 0,0) ">
<use xlink:href="#blanket_ghost_bottom_copy_7_Layer0_0_FILL"/>
</g>
</g>

<g transform="matrix( 0.9982757568359375, -0.0524444580078125, 0.1275482177734375, 0.99468994140625, 4.7,5.45) ">
<g transform="matrix( 1, 0, 0, 1, 0,0) ">
<use xlink:href="#blanket_ghost_hood_copy_7_Layer0_0_FILL"/>
</g>
</g>

<g transform="matrix( 1, 0, -0.0483551025390625, 1.0000457763671875, 127.7,19.25) ">
<g transform="matrix( 1, 0, 0, 1, 0,0) ">
<use xlink:href="#blanket_ghost_arm_0_Layer0_0_FILL"/>
</g>
</g>

<g transform="matrix( 1.000152587890625, 0.0532989501953125, 0, 1, 85.65,17.25) ">
<g transform="matrix( 1, 0, 0, 1, 0,0) ">
<use xlink:href="#blanket_ghost_face_0_Layer0_0_FILL"/>
</g>
</g>

<g transform="matrix( 0.9993896484375, 0.031219482421875, -0.031219482421875, 0.9993896484375, 178.35,62.55) ">
<g transform="matrix( 0.74951171875, 0, 0, 0.74951171875, -26.55,-13.9) ">
<g transform="matrix( 1, 0, 0, 1, 0,0) ">
<use filter="url(#Filter_1)" xlink:href="#lantern_glow_1_Layer0_0_FILL"/>
</g>
</g>

<g transform="matrix( 1, 0, 0, 1, 0,0) ">
<use xlink:href="#lantern_Hand_copy_2_1_Layer1_0_FILL"/>
</g>

<g transform="matrix( 1, 0, 0, 1, 0,0) ">
<use xlink:href="#lantern_Hand_copy_2_1_Layer0_0_FILL"/>
</g>
</g>

<g transform="matrix( 0.9995574951171875, -0.026397705078125, 0.026397705078125, 0.9995574951171875, 89.05,70.25) ">
<g transform="matrix( 1, 0, 0, 1, 0,0) ">
<use xlink:href="#blanket_ghost_other_arm_0_Layer0_0_FILL"/>
</g>
</g>

<g transform="matrix( 0.9996795654296875, -0.0218658447265625, 0.0218658447265625, 0.9996795654296875, 69.3,49.3) ">
<g transform="matrix( 1, 0, 0, 1, 0,0) ">
<use xlink:href="#blanket_ghost_teddy_0_Layer0_0_FILL"/>
</g>
</g>
</g>
</g>
</svg>
