
<svg xmlns="http://www.w3.org/2000/svg" version="1.1" xmlns:xlink="http://www.w3.org/1999/xlink" preserveAspectRatio="none" x="0px" y="0px" width="1000px" height="1000px" viewBox="0 0 1000 1000">
<defs>
<linearGradient id="Gradient_1" gradientUnits="userSpaceOnUse" x1="61.887499999999996" y1="26.637500000000003" x2="59.4125" y2="67.2625" spreadMethod="pad">
<stop  offset="6.2745098039215685%" stop-color="#4F71FF"/>

<stop  offset="25.88235294117647%" stop-color="#66D9FF"/>

<stop  offset="100%" stop-color="#FFFFFF"/>
</linearGradient>

<linearGradient id="Gradient_2" gradientUnits="userSpaceOnUse" x1="-88.4" y1="124.25" x2="-55.699999999999996" y2="124.25" spreadMethod="pad">
<stop  offset="6.2745098039215685%" stop-color="#4F71FF"/>

<stop  offset="25.88235294117647%" stop-color="#66D9FF"/>

<stop  offset="100%" stop-color="#FFFFFF"/>
</linearGradient>

<linearGradient id="Gradient_3" gradientUnits="userSpaceOnUse" x1="10.375" y1="117.1875" x2="16.825" y2="143.5125" spreadMethod="pad">
<stop  offset="6.2745098039215685%" stop-color="#4F71FF"/>

<stop  offset="25.88235294117647%" stop-color="#66D9FF"/>

<stop  offset="100%" stop-color="#FFFFFF"/>
</linearGradient>

<linearGradient id="Gradient_4" gradientUnits="userSpaceOnUse" x1="34.800000000000004" y1="45.324999999999996" x2="31.1" y2="115.875" spreadMethod="pad">
<stop  offset="6.2745098039215685%" stop-color="#4F71FF"/>

<stop  offset="25.88235294117647%" stop-color="#66D9FF"/>

<stop  offset="100%" stop-color="#FFFFFF"/>
</linearGradient>

<linearGradient id="Gradient_5" gradientUnits="userSpaceOnUse" x1="20.325" y1="-18.1" x2="54.474999999999994" y2="-18.1" spreadMethod="pad">
<stop  offset="6.2745098039215685%" stop-color="#4F71FF"/>

<stop  offset="25.88235294117647%" stop-color="#66D9FF"/>

<stop  offset="100%" stop-color="#FFFFFF"/>
</linearGradient>

<linearGradient id="Gradient_6" gradientUnits="userSpaceOnUse" x1="-83.375" y1="0.45" x2="-44.224999999999994" y2="0.45" spreadMethod="pad">
<stop  offset="6.2745098039215685%" stop-color="#4F71FF"/>

<stop  offset="25.88235294117647%" stop-color="#66D9FF"/>

<stop  offset="100%" stop-color="#FFFFFF"/>
</linearGradient>

<linearGradient id="Gradient_7" gradientUnits="userSpaceOnUse" x1="-53.775" y1="149.4" x2="-30.824999999999996" y2="149.4" spreadMethod="pad">
<stop  offset="6.2745098039215685%" stop-color="#4F71FF"/>

<stop  offset="25.88235294117647%" stop-color="#66D9FF"/>

<stop  offset="100%" stop-color="#FFFFFF"/>
</linearGradient>

<linearGradient id="Gradient_8" gradientUnits="userSpaceOnUse" x1="-105.925" y1="94.1125" x2="-126.075" y2="112.4875" spreadMethod="pad">
<stop  offset="6.2745098039215685%" stop-color="#4F71FF"/>

<stop  offset="25.88235294117647%" stop-color="#66D9FF"/>

<stop  offset="100%" stop-color="#FFFFFF"/>
</linearGradient>

<linearGradient id="Gradient_9" gradientUnits="userSpaceOnUse" x1="-67.25" y1="95.4" x2="-31.75" y2="95.4" spreadMethod="pad">
<stop  offset="6.2745098039215685%" stop-color="#4F71FF"/>

<stop  offset="25.88235294117647%" stop-color="#66D9FF"/>

<stop  offset="100%" stop-color="#FFFFFF"/>
</linearGradient>

<linearGradient id="Gradient_10" gradientUnits="userSpaceOnUse" x1="29.424999999999997" y1="123.95" x2="44.875" y2="123.95" spreadMethod="pad">
<stop  offset="6.2745098039215685%" stop-color="#4F71FF"/>

<stop  offset="25.88235294117647%" stop-color="#66D9FF"/>

<stop  offset="100%" stop-color="#FFFFFF"/>
</linearGradient>

<linearGradient id="Gradient_11" gradientUnits="userSpaceOnUse" x1="-10.675" y1="46.4" x2="5.075" y2="46.4" spreadMethod="pad">
<stop  offset="6.2745098039215685%" stop-color="#4F71FF"/>

<stop  offset="25.88235294117647%" stop-color="#66D9FF"/>

<stop  offset="100%" stop-color="#FFFFFF"/>
</linearGradient>

<linearGradient id="Gradient_12" gradientUnits="userSpaceOnUse" x1="95.375" y1="131.17499999999998" x2="76.525" y2="148.525" spreadMethod="pad">
<stop  offset="6.2745098039215685%" stop-color="#4F71FF"/>

<stop  offset="25.88235294117647%" stop-color="#66D9FF"/>

<stop  offset="100%" stop-color="#FFFFFF"/>
</linearGradient>

<g id="Blanket_Ghost_death_6_Layer6_0_FILL">
<path fill="#070707" stroke="none" d="
M 4.5 159.4
Q 14.65 158.25 18.9 158.25 23.05 158.25 30.95 159.75 35.25 160.55 42.95 162.05
L 42.95 163.55
Q 42.45 163.55 42.25 164 42.15 164.2 42.15 164.4 39.95 164.4 32.15 166.2 24.05 168 22.8 169 31.5 170.25 40.7 173.45 53 177.75 53 182.15
L 53 183.75
Q 42.3 185.2 35.65 186.15 23.55 187.95 15.15 189.9 11.25 190.8 -5.4 199 -21.5 207 -21.8 207 -24 207 -38.15 204.65 -52.25 202.3 -56.9 202.3 -73.75 202.3 -80.85 204.65
L -80.85 203.9
Q -77.8 202.3 -73.2 198.5 -65.95 192.6 -65.35 192.15 -64.95 191.85 -64.55 191.55 -66.5 191.5 -72.7 190.4 -79.05 189.25 -81.65 188.4 -83.6 187.8 -92.25 187.85 -98.65 187.9 -99.5 185.3 -99.45 185.25 -90.2 179.7 -83.6 175.7 -82.4 175.95
L -82.4 175.2
Q -87.35 176.35 -95.45 180.05 -106.2 184.95 -107.15 185.3 -118.6 189.75 -120.65 190.15 -123.5 190.7 -135.1 190.75 -135.15 191.05 -135.2 191.05 -135.35 191 -136.7 190.75 -135.9 190.75 -135.1 190.75 -135.1 190.45 -135.1 189.9 -135.1 189.8 -145.6 190.55 -157.45 190.5 -163.7 186.05 -143.8 180 -134.45 177.45 -116.6 172.6 -106.4 171.35
L -106.4 170.6
Q -108.55 170.25 -110.1 169.1 -111.85 167.85 -111.85 166.3 -111.85 164.6 -82.45 155.9 -53.4 147.35 -49.15 147.35 -47.85 147.35 -38.35 149.3 -28.95 151.25 -27.55 151.2 -22.65 151 -15.4 150.6 -10.55 151.1 -10.55 155.9
L -10.55 155.95
Q -9.95 156.05 -9.3 156.15 -7.9 156.4 -6.8 156.55 -9.05 152.35 -9.9 151.35 -12.55 148.2 -17.5 146.6 -24.3 144.4 -34.85 143.4 -42.4 142.65 -49.5 142.65 -54.6 142.65 -67.9 146.55 -75 148.65 -85.5 152.05 -89.75 153.35 -95.3 154.15 -98.4 154.55 -103.95 155.25 -113.15 156.6 -116.45 161.3 -121.2 168.15 -152.05 176.1 -159.7 178.1 -172.5 181.25 -181.5 183.65 -181.5 184.85 -181.5 188.5 -159.85 195.35 -140.15 201.55 -136.25 201.55 -132.05 201.55 -129.1 200.45 -127.65 199.85 -124.2 197.85 -117.35 193.8 -107.15 193 -96.75 192.25 -91.3 192.2 -85.95 192.25 -82.4 192.25
L -77.85 192.25
Q -79.4 193.8 -83.9 196.5 -88.4 199.25 -93.3 201.55 -88.8 206 -85.5 207.7 -79.65 210.8 -70.8 210.8 -67 210.8 -59.25 209.7 -51.55 208.55 -46.4 208.55 -41.3 208.55 -31.95 210.5 -22.65 212.4 -20.95 212.4 -15.95 212.4 -9.75 209.75 -6.5 208.3 1.7 203.75 17.85 194.7 29 193.85 49.15 192.4 53.25 191.7 68.45 189.1 68.45 182.5 68.45 178.1 56.95 172.25 48.35 167.85 43.7 166.75
L 43.7 165.9
Q 45.9 165.9 50.75 165.55 55.6 165.15 58.45 165.15 57.05 159.8 41.45 155.1 28.45 151.2 21.6 151.2 16.1 151.2 7.65 153.95 -0.8 156.65 -5.1 156.65 -5.8 156.65 -6.8 156.55 -6.75 156.65 -6.7 156.75 -5.35 159.25 -3.5 160.25 -0.45 159.95 4.5 159.4
M -72.85 160.3
Q -74.75 160.95 -76.55 161.6 -74 161.2 -71.75 160.85 -53.4 158.15 -35 158.25 -37.85 158.15 -42.65 157.1 -48 155.9 -51.5 155.9 -60.2 155.9 -72.85 160.3
M 10.35 174.45
L 10.35 175.2
Q -2.75 180.2 -16 187.3 -32.2 195.95 -35.9 201.55
L -35.9 204.65
Q -26.75 202.25 -22.1 201.05 -13.8 198.9 -8.95 198.45
L -8.95 197.7
Q -10.6 197.95 -16.6 196.7 -23.1 195.35 -25.2 195.35 -12.75 187 1 181.75 12.25 177.45 22.05 175.95 15.65 171.55 1.75 169.35 -9.65 167.5 -22.95 167.5 -30.4 167.5 -38.4 169.15 -36.9 169.15 -36.3 169.4 -36.15 169.25 -36 169.05 -35.9 168.9 -35.9 169.75 -20.45 169.85 -9.65 171.45 9.65 174.4 10.35 174.45 Z"/>

<path fill="#CC33FF" stroke="none" d="
M 18.9 158.25
Q 14.65 158.25 4.5 159.4 -0.45 159.95 -3.5 160.25 -5.35 159.25 -6.7 156.75 -6.75 156.65 -6.8 156.55 -7.9 156.4 -9.3 156.15 -9.95 156.05 -10.55 155.95
L -10.55 155.9
Q -10.55 151.1 -15.4 150.6 -22.65 151 -27.55 151.2 -28.95 151.25 -38.35 149.3 -47.85 147.35 -49.15 147.35 -53.4 147.35 -82.45 155.9 -111.85 164.6 -111.85 166.3 -111.85 167.85 -110.1 169.1 -108.55 170.25 -106.4 170.6
L -106.4 171.35
Q -116.6 172.6 -134.45 177.45 -143.8 180 -163.7 186.05 -157.45 190.5 -145.6 190.55 -135.1 189.8 -135.1 189.9 -135.1 190.45 -135.1 190.75 -123.5 190.7 -120.65 190.15 -118.6 189.75 -107.15 185.3 -106.2 184.95 -95.45 180.05 -87.35 176.35 -82.4 175.2
L -82.4 175.95
Q -83.6 175.7 -90.2 179.7 -99.45 185.25 -99.5 185.3 -98.65 187.9 -92.25 187.85 -83.6 187.8 -81.65 188.4 -79.05 189.25 -72.7 190.4 -66.5 191.5 -64.55 191.55 -64.95 191.85 -65.35 192.15 -65.95 192.6 -73.2 198.5 -77.8 202.3 -80.85 203.9
L -80.85 204.65
Q -73.75 202.3 -56.9 202.3 -52.25 202.3 -38.15 204.65 -24 207 -21.8 207 -21.5 207 -5.4 199 11.25 190.8 15.15 189.9 23.55 187.95 35.65 186.15 42.3 185.2 53 183.75
L 53 182.15
Q 53 177.75 40.7 173.45 31.5 170.25 22.8 169 24.05 168 32.15 166.2 39.95 164.4 42.15 164.4 42.15 164.2 42.25 164 42.45 163.55 42.95 163.55
L 42.95 162.05
Q 35.25 160.55 30.95 159.75 23.05 158.25 18.9 158.25
M 10.35 175.2
L 10.35 174.45
Q 9.65 174.4 -9.65 171.45 -20.45 169.85 -35.9 169.75 -35.9 168.9 -36 169.05 -36.15 169.25 -36.3 169.4 -36.9 169.15 -38.4 169.15 -30.4 167.5 -22.95 167.5 -9.65 167.5 1.75 169.35 15.65 171.55 22.05 175.95 12.25 177.45 1 181.75 -12.75 187 -25.2 195.35 -23.1 195.35 -16.6 196.7 -10.6 197.95 -8.95 197.7
L -8.95 198.45
Q -13.8 198.9 -22.1 201.05 -26.75 202.25 -35.9 204.65
L -35.9 201.55
Q -32.2 195.95 -16 187.3 -2.75 180.2 10.35 175.2
M -76.55 161.6
Q -74.75 160.95 -72.85 160.3 -60.2 155.9 -51.5 155.9 -48 155.9 -42.65 157.1 -37.85 158.15 -35 158.25 -53.4 158.15 -71.75 160.85 -74 161.2 -76.55 161.6 Z"/>
</g>

<g id="lantern_firey_Burst_copy_1_Layer0_0_FILL">
<path fill="url(#Gradient_1)" stroke="none" d="
M 90.7 81.75
Q 101.85 72.85 107 61.3 109.2 43.7 90 30.45 82.3 25.6 74.15 23.9 67.35 22.65 64.9 24 64.6 24.05 64.45 24.25 63.6 36.2 60.1 42.35 54.75 49.85 49 59.1 44.15 61.4 42.9 54.3 41.75 46.75 47.8 37.55 51 32.55 52.8 32.15 55.6 31.95 57.75 30.1 57.75 29.75 57.95 29.75 46.15 27.25 38.7 25.1 29.25 23.45 25.55 32.15 24.45 34.8 24.9 40.45 24.9 41.25 25.1 42.6 20.15 44.85 17.75 47.1 12.4 51.9 12.8 57.7 12.2 70.3 14.95 76.1 16.6 80.25 21.25 86.4 23.65 90.3 31.2 94.95 37.45 96.9 36.7 99.85 36.05 101.95 33 104.65 32.65 104.95 29.1 107.25 40.2 106.05 48.5 101.8 62 95.4 67.7 82.4 69.75 85.45 68.95 91.25 68.05 97.65 64.95 102.65 82.25 88.2 90.7 81.75 Z"/>
</g>

<g id="lantern_firey_Burst_copy_4_Layer0_0_FILL">
<path fill="url(#Gradient_2)" stroke="none" d="
M -88.4 130.95
Q -87.868359375 132.3619140625 -87.15 133.2 -85.8 134.8 -84.3 134.1 -76.5 134.1 -65.9 125.35 -56.9 117.9 -55.7 114.2 -61.75 120.25 -68.85 124.55 -79.2169921875 130.809375 -88.4 130.95 Z"/>

<path fill="url(#Gradient_3)" stroke="none" d="
M 31.4 94.95
Q 31.4 87.05 40.35 81.2 41.9 80.2 47.6 77.05 51.75 74.75 53.3 73.2 41.3 78.3 31.85 88.05 21.3 98.95 21.75 108.55 22.3 119.35 12.1 127.25 3.2 134.1 -5.75 134.1 -19.8 134.1 -26.75 132.2 -32.50546875 130.597265625 -35.9 127.5 -38.4 136.0142578125 -38.4 137.05 -38.4 140.9 -33.95 143.15 -30.35 145 -26 145 -2.3 145 18.6 131.6 26.65 126.45 31.75 120.75 36.55 115.45 36.55 112.35 36.55 109.5 34 103.75 31.4 97.95 31.4 94.95 Z"/>

<path fill="url(#Gradient_4)" stroke="none" d="
M 178.65 33.25
Q 179.6 35.5 179.6 36.3 179.6 57.3 159.05 73.85 151 80.3 141.8 84.25 133.2 87.95 127.3 87.95 120.05 87.95 114.3 81.95 107.9 73.5 103.8 68.7 96.3 59.9 86.7 55.45 79.1017578125 51.9296875 69.2 50.45 68.5009765625 48.1841796875 67.65 45.1 56.50625 32.839453125 54.4 22.5 53.8 19.55 53.8 15.15 53.8 11.25 53.3 9.75 50.6 14.45 35.95 21.25 15.65 30 3.25 35.95 -3.1 39.05 -16.3 46.85 -32.05 56.2 -38.7 59.8 -67.1 75.15 -85.3 75.15 -96.7 75.15 -101.95 67.45 -107.05 60.05 -107.05 44.65 -107.05 31.9419921875 -100.9 20.25 -113.072265625 30.7439453125 -117.45 43.2 -119.9 50.1 -119.9 59.7 -119.9 83.4 -105.15 91.15 -98.95 94.4 -88.15 94.4 -86.7765625 94.4 -85.35 94.2 -81.909765625 97.406640625 -79.05 98.85 -75.25 100.8 -68.55 100.8 -50.25 100.8 -35.3 89.55 -25.1 81.9 -12.35 64.85 2.6 44.8 7.3 40.15 18.6 28.9 30.7 28.9 40.9 28.9 45.9 38.3 48.7400390625 43.6458984375 49.05 49.7 49.0994140625 50.458203125 49.1 51.2 63.5453125 53.273828125 75.05 64.25 88.45 77.05 88.45 91.8 88.45 96.05 87.5 98.55 86.65 100.95 83.95 104.35 82.3017578125 106.3646484375 77.45 112.2 117.4818359375 106.1396484375 151.7 87.3 168.65 77.95 178.55 68 188.55 58 188.55 50.1 188.55 45.15 183.65 37.6 179.5515625 31.3287109375 177.7 30.2 177.86484375 31.5228515625 178.65 33.25 Z"/>

<path fill="url(#Gradient_5)" stroke="none" d="
M 20.35 -26.8
Q 27.701953125 -24.451953125 36.05 -20.1 40.3 -17.85 53.85 -9.4
L 54.5 -9.4
Q 52.85 -13.7 51.85 -15.75 50.1 -19.25 47.35 -21.3 40.2943359375 -26.6525390625 20.35 -26.8 Z"/>

<path fill="url(#Gradient_6)" stroke="none" d="
M -62.65 -4.95
Q -62.7404296875 -4.933203125 -62.85 -4.95 -75.9181640625 2.5806640625 -79.35 5.25 -80.2 5.85 -81.05 6.85 -81.6 7.45 -83.35 8.45 -82.2 7.95 -63.25 0.6 -44.85 -6.55 -44.2 -6.9 -44.85 -7.55 -49.05 -7.55 -49.9 -7.55 -62.65 -4.95 Z"/>
</g>

<g id="lantern_firey_Burst_copy_6_Layer0_0_FILL">
<path fill="url(#Gradient_7)" stroke="none" d="
M -51.3 139.6
Q -51.50625 140.6599609375 -52.5 145.35 -53.75 151.25 -53.75 152.4 -53.75 157.3 -49.95 158.6 -48.05 159.25 -41.65 159.25 -36.9412109375 159.25 -30.85 157.15 -32.3908203125 157.3 -34.9 157.3 -44.15 157.3 -48.65 150.7 -52.25625 145.43671875 -51.3 139.6 Z"/>

<path fill="url(#Gradient_8)" stroke="none" d="
M -100.95 111.85
Q -95.45 107 -94.9 103.35 -94.491796875 101.057421875 -92.05 98.25 -96.585546875 102.3373046875 -101.75 105 -108.65 108.55 -113.15 108.55 -120.35 108.55 -125.65 105.65 -131.25 102.6 -133.4 96.9 -130.2 106.35 -127.95 110.2 -123.35 118.1 -117.05 118.1 -108.05 118.1 -100.95 111.85 Z"/>

<path fill="url(#Gradient_9)" stroke="none" d="
M -31.8 74
Q -34.8046875 77.556640625 -35.9 80.4 -36.65 82.35 -37.55 86.25 -38.65 90.05 -41 93.75 -43.2 97.2 -53.35 105.65 -62.55 113.25 -67.25 116.15
L -67.25 116.8
Q -53.75 111.35 -46.45 104.3 -40.7 98.7 -37.35 90.35 -34.05 80.3 -32.1 74.9 -31.9396484375 74.453515625 -31.8 74 Z"/>

<path fill="url(#Gradient_10)" stroke="none" d="
M 43.7 116.95
Q 43.182421875 115.7529296875 43.55 114.45 37.9455078125 126.240234375 34.55 129.4 33.55 130.35 31.95 131.2 30.35 132 29.45 132.9
L 29.45 133.45
Q 36.55 130.45 39.6 128.55 44.9 125.25 44.9 120.65 44.9 119.7 43.7 116.95 Z"/>

<path fill="url(#Gradient_11)" stroke="none" d="
M 5.1 41.15
L 5.1 40.5
Q 2.990625 40.0646484375 -1.4 39.9 -10.5701171875 49.4646484375 -10.65 51.9 -10.65 52.45 -9.85 52.8 -9.7845703125 52.8326171875 -9.8 52.85 -7.9056640625 50.425 -3.6 46.55 2.8 40.85 5.1 41.15 Z"/>

<path fill="url(#Gradient_12)" stroke="none" d="
M 175.15 95.4
Q 186.25 89.1 191.15 84.7 161.5 104 130.55 112.15 110.35 117.45 92.35 117.45 91 117.45 86.4 117.05 81.35 116.6 78.2 116.15 85.2408203125 114.81171875 92.55 105.9 86.69765625 110.115234375 80.45 113.3 74.6 116.3 67.4 118.75 61.55 120.8 60.9 121.35 63.3 121.35 73.35 122.3 83.45 123.25 88.8 123.25 113.55 123.25 149.15 108.1 163.1 102.2 175.15 95.4 Z"/>
</g>
</defs>

<g transform="matrix( 0.8803863525390625, 0, 0, 0.8803863525390625, 464.15,349.75) ">
<g transform="matrix( 1, 0, 0, 1, -76.9,-20) ">
<g transform="matrix( 1, 0, 0, 1, 0,0) ">
<use xlink:href="#Blanket_Ghost_death_6_Layer6_0_FILL"/>
</g>

<g transform="matrix( 1, 0, 0, 1, 10.35,-20.2) ">
<g transform="matrix( -0.3151397705078125, 0, 0, -0.5994110107421875, -50.1,179.3) ">
<g transform="matrix( 1, 0, 0, 1, 0,0) ">
<use xlink:href="#lantern_firey_Burst_copy_1_Layer0_0_FILL"/>
</g>
</g>

<g transform="matrix( -0.3151397705078125, 0, 0, -0.5994110107421875, -16.85,154.3) ">
<g transform="matrix( 1, 0, 0, 1, 0,0) ">
<use xlink:href="#lantern_firey_Burst_copy_4_Layer0_0_FILL"/>
</g>
</g>

<g transform="matrix( 0.49627685546875, 0, 0, -0.5340423583984375, -9.45,122.05) ">
<g transform="matrix( 1, 0, 0, 1, 0,0) ">
<use xlink:href="#lantern_firey_Burst_copy_4_Layer0_0_FILL"/>
</g>
</g>

<g transform="matrix( 0.3151397705078125, 0, 0, -0.5994110107421875, 9.55,75.2) ">
<g transform="matrix( 1, 0, 0, 1, 0,0) ">
<use xlink:href="#lantern_firey_Burst_copy_6_Layer0_0_FILL"/>
</g>
</g>

<g transform="matrix( -0.3151397705078125, 0, 0, -0.5994110107421875, 66.55,191.65) ">
<g transform="matrix( 1, 0, 0, 1, 0,0) ">
<use xlink:href="#lantern_firey_Burst_copy_6_Layer0_0_FILL"/>
</g>
</g>

<g transform="matrix( 0.49627685546875, 0, 0, -0.5340423583984375, 60.45,113.4) ">
<g transform="matrix( 1, 0, 0, 1, 0,0) ">
<use xlink:href="#lantern_firey_Burst_copy_6_Layer0_0_FILL"/>
</g>
</g>
</g>
</g>
</g>
</svg>
