
<svg xmlns="http://www.w3.org/2000/svg" version="1.1" xmlns:xlink="http://www.w3.org/1999/xlink" preserveAspectRatio="none" x="0px" y="0px" width="1000px" height="1000px" viewBox="0 0 1000 1000">
<defs>
<linearGradient id="Gradient_1" gradientUnits="userSpaceOnUse" x1="61.887499999999996" y1="26.637500000000003" x2="59.4125" y2="67.2625" spreadMethod="pad">
<stop  offset="6.2745098039215685%" stop-color="#4F71FF"/>

<stop  offset="25.88235294117647%" stop-color="#66D9FF"/>

<stop  offset="100%" stop-color="#FFFFFF"/>
</linearGradient>

<linearGradient id="Gradient_2" gradientUnits="userSpaceOnUse" x1="56.2375" y1="32.412499999999994" x2="21.562499999999996" y2="222.9875" spreadMethod="pad">
<stop  offset="6.2745098039215685%" stop-color="#4F71FF"/>

<stop  offset="25.88235294117647%" stop-color="#66D9FF"/>

<stop  offset="100%" stop-color="#FFFFFF"/>
</linearGradient>

<linearGradient id="Gradient_3" gradientUnits="userSpaceOnUse" x1="-14.05" y1="-21.2" x2="54.45" y2="-21.2" spreadMethod="pad">
<stop  offset="6.2745098039215685%" stop-color="#4F71FF"/>

<stop  offset="25.88235294117647%" stop-color="#66D9FF"/>

<stop  offset="100%" stop-color="#FFFFFF"/>
</linearGradient>

<g id="Blanket_Ghost_death_3_Layer6_0_FILL">
<path fill="#CC33FF" stroke="none" d="
M 23.85 167.75
Q 30.95 166.15 32.9 166.15 32.9 166 33 165.8 33.2 165.45 33.65 165.45
L 33.65 164.15
Q 26.65 162.85 22.75 162.15 15.6 160.85 11.85 160.85 8 160.85 -1.2 161.85 -5.7 162.3 -8.45 162.55 -10.15 161.7 -11.4 159.55 -11.4 159.45 -11.45 159.35 -12.45 159.25 -13.75 159 -14.3 158.95 -14.85 158.85
L -14.85 158.8
Q -14.85 154.65 -19.25 154.2 -25.85 154.55 -30.3 154.75 -31.55 154.75 -40.1 153.1 -48.7 151.4 -49.85 151.4 -53.7 151.4 -80.05 158.8 -106.75 166.35 -106.75 167.8 -106.75 169.15 -105.15 170.25 -103.75 171.25 -101.8 171.55
L -101.8 172.2
Q -111.05 173.25 -127.2 177.45 -135.7 179.7 -153.75 184.95 -148.1 188.8 -137.35 188.85 -127.8 188.2 -127.8 188.25 -127.8 188.75 -127.8 189 -117.3 188.95 -114.7 188.5 -112.85 188.15 -102.45 184.3 -101.6 183.95 -91.85 179.75 -84.5 176.5 -80 175.5
L -80 176.15
Q -81.1 175.95 -87.1 179.4 -95.5 184.25 -95.55 184.3 -94.75 186.55 -88.95 186.5 -81.1 186.45 -79.35 186.95 -77 187.7 -71.2 188.7 -65.6 189.65 -63.85 189.7 -64.2 189.95 -64.55 190.2 -65.1 190.6 -71.7 195.7 -75.85 199 -78.6 200.4
L -78.6 201.05
Q -72.2 199 -56.9 199 -52.7 199 -39.9 201.05 -27.05 203.1 -25.05 203.1 -24.8 203.1 -10.2 196.15 4.9 189.05 8.45 188.25 16.05 186.55 27.05 185 33.05 184.2 42.75 182.95
L 42.75 181.55
Q 42.75 177.75 31.6 174 23.25 171.25 15.4 170.15 16.5 169.3 23.85 167.75
M 4.1 175.5
L 4.1 174.85
Q 3.45 174.85 -14.05 172.25 -23.85 170.9 -37.85 170.8 -37.85 170.05 -37.95 170.2 -38.1 170.35 -38.2 170.5 -38.75 170.3 -40.1 170.3 -32.85 168.85 -26.1 168.85 -14.05 168.85 -3.7 170.45 8.9 172.35 14.7 176.15 5.8 177.45 -4.4 181.2 -16.85 185.75 -28.15 193 -26.25 193 -20.35 194.15 -14.9 195.25 -13.4 195
L -13.4 195.65
Q -17.8 196.05 -25.35 197.95 -29.55 198.95 -37.85 201.05
L -37.85 198.35
Q -34.5 193.5 -19.8 186 -7.8 179.85 4.1 175.5
M -52 158.8
Q -48.85 158.8 -43.95 159.85 -39.6 160.75 -37.05 160.85 -53.7 160.75 -70.35 163.1 -72.4 163.4 -74.7 163.75 -73.1 163.2 -71.35 162.6 -59.9 158.8 -52 158.8 Z"/>

<path fill="#070707" stroke="none" d="
M -43.95 159.85
Q -48.85 158.8 -52 158.8 -59.9 158.8 -71.35 162.6 -73.1 163.2 -74.7 163.75 -72.4 163.4 -70.35 163.1 -53.7 160.75 -37.05 160.85 -39.6 160.75 -43.95 159.85
M 4.1 174.85
L 4.1 175.5
Q -7.8 179.85 -19.8 186 -34.5 193.5 -37.85 198.35
L -37.85 201.05
Q -29.55 198.95 -25.35 197.95 -17.8 196.05 -13.4 195.65
L -13.4 195
Q -14.9 195.25 -20.35 194.15 -26.25 193 -28.15 193 -16.85 185.75 -4.4 181.2 5.8 177.45 14.7 176.15 8.9 172.35 -3.7 170.45 -14.05 168.85 -26.1 168.85 -32.85 168.85 -40.1 170.3 -38.75 170.3 -38.2 170.5 -38.1 170.35 -37.95 170.2 -37.85 170.05 -37.85 170.8 -23.85 170.9 -14.05 172.25 3.45 174.85 4.1 174.85
M 34.35 168.2
L 34.35 167.45
Q 36.3 167.45 40.7 167.15 45.1 166.8 47.7 166.8 46.45 162.2 32.3 158.1 20.5 154.75 14.3 154.75 9.3 154.75 1.65 157.1 -6.05 159.45 -9.9 159.45 -10.55 159.45 -11.45 159.35 -11.4 159.45 -11.4 159.55 -10.15 161.7 -8.45 162.55 -5.7 162.3 -1.2 161.85 8 160.85 11.85 160.85 15.6 160.85 22.75 162.15 26.65 162.85 33.65 164.15
L 33.65 165.45
Q 33.2 165.45 33 165.8 32.9 166 32.9 166.15 30.95 166.15 23.85 167.75 16.5 169.3 15.4 170.15 23.25 171.25 31.6 174 42.75 177.75 42.75 181.55
L 42.75 182.95
Q 33.05 184.2 27.05 185 16.05 186.55 8.45 188.25 4.9 189.05 -10.2 196.15 -24.8 203.1 -25.05 203.1 -27.05 203.1 -39.9 201.05 -52.7 199 -56.9 199 -72.2 199 -78.6 201.05
L -78.6 200.4
Q -75.85 199 -71.7 195.7 -65.1 190.6 -64.55 190.2 -64.2 189.95 -63.85 189.7 -65.6 189.65 -71.2 188.7 -77 187.7 -79.35 186.95 -81.1 186.45 -88.95 186.5 -94.75 186.55 -95.55 184.3 -95.5 184.25 -87.1 179.4 -81.1 175.95 -80 176.15
L -80 175.5
Q -84.5 176.5 -91.85 179.75 -101.6 183.95 -102.45 184.3 -112.85 188.15 -114.7 188.5 -117.3 188.95 -127.8 189 -127.85 189.25 -127.9 189.25 -128.05 189.2 -129.25 189 -128.55 189 -127.8 189 -127.8 188.75 -127.8 188.25 -127.8 188.2 -137.35 188.85 -148.1 188.8 -153.75 184.95 -135.7 179.7 -127.2 177.45 -111.05 173.25 -101.8 172.2
L -101.8 171.55
Q -103.75 171.25 -105.15 170.25 -106.75 169.15 -106.75 167.8 -106.75 166.35 -80.05 158.8 -53.7 151.4 -49.85 151.4 -48.7 151.4 -40.1 153.1 -31.55 154.75 -30.3 154.75 -25.85 154.55 -19.25 154.2 -14.85 154.65 -14.85 158.8
L -14.85 158.85
Q -14.3 158.95 -13.75 159 -12.45 159.25 -11.45 159.35 -13.5 155.7 -14.3 154.85 -16.7 152.15 -21.15 150.75 -27.35 148.85 -36.9 147.95 -43.75 147.3 -50.2 147.3 -54.8 147.3 -66.85 150.7 -73.3 152.5 -82.85 155.45 -86.7 156.6 -91.7 157.3 -94.55 157.65 -99.55 158.25 -107.9 159.4 -110.9 163.5 -115.2 169.4 -143.2 176.3 -150.1 178.05 -161.7 180.75 -169.9 182.85 -169.9 183.9 -169.9 187.05 -150.25 193 -132.4 198.35 -128.85 198.35 -125.05 198.35 -122.35 197.4 -121.05 196.9 -117.9 195.15 -111.7 191.65 -102.45 190.95 -93.05 190.3 -88.1 190.25 -83.25 190.3 -80 190.3
L -75.9 190.3
Q -77.3 191.65 -81.4 194 -85.45 196.35 -89.9 198.35 -85.8 202.2 -82.85 203.7 -77.55 206.35 -69.5 206.35 -66.05 206.35 -59.05 205.4 -52.05 204.4 -47.4 204.4 -42.75 204.4 -34.25 206.1 -25.85 207.75 -24.3 207.75 -19.75 207.75 -14.15 205.45 -11.2 204.2 -3.75 200.25 10.9 192.4 21 191.7 39.25 190.45 43 189.8 56.75 187.55 56.75 181.85 56.75 178.05 46.35 172.95 38.55 169.15 34.35 168.2 Z"/>
</g>

<g id="blanket_ghost_bottom_copy_3_Layer0_0_FILL">
<path fill="#4B286D" stroke="none" d="
M 18.85 54.6
Q 15.900390625 55.3748046875 13.4 56 14.0724609375 57.45 15.1 59.55 17.1 63.65 17.6 66.6 18.65 72.7 21.15 80.55 23.4751953125 88.1189453125 29.2 92.2 27.4583984375 87.7666015625 25.85 78.25 23.8 66.2 22.35 61.85 20.92265625 57.4359375 18.85 54.6
M 83.5 95.75
Q 87.7 97.8 88.6 98.15 91.55 99.25 95 99.25 97.413671875 99.25 99.75 99.1 94.28671875 97.10078125 89 93.4 82.5 88.8 80.65 87.8 75.9 85.3 71 85.3 59 85.3 49.05 92.5 47.109375 93.897265625 44.45 96.1 48.1716796875 95.776171875 55.45 94.25 64.75 92.25 66.85 92.25 76.45 92.25 83.5 95.75 Z"/>

<path fill="#000000" stroke="none" d="
M 153.95 39.1
L 153.25 38.85
Q 150.7279296875 47.2798828125 147.1 56.35 144.65 62.5 137.9 77.5 133.15 88.1 120.7 93.95 111.258984375 98.35859375 99.75 99.1 97.413671875 99.25 95 99.25 91.55 99.25 88.6 98.15 87.7 97.8 83.5 95.75 76.45 92.25 66.85 92.25 64.75 92.25 55.45 94.25 48.1716796875 95.776171875 44.45 96.1 43.4107421875 96.2 42.65 96.2 34.9 96.2 29.35 92.3 29.2880859375 92.256640625 29.2 92.2 23.4751953125 88.1189453125 21.15 80.55 18.65 72.7 17.6 66.6 17.1 63.65 15.1 59.55 14.0724609375 57.45 13.4 56 15.900390625 55.3748046875 18.85 54.6 24.0234375 53.3130859375 30.65 51.7 41.6 48.8 47.65 45.75 61.1455078125 38.85234375 65.3 22.6 64.2583984375 24.0525390625 63.2 25.35 55.8388671875 34.9814453125 50.7 38.1 46.7 40.55 32.45 44.3 29.75 45 22.45 45.5 15.65 45.95 12.85 46.9 6.7 49 4.55 49.85 0.15 51.6 -2.7 53.55 2.8 57.8 7 69.85 9.3 76.5 13.3 88.8 16.6 96.4 26.75 101.55 36.75 106.65 48.15 106.65 51.35 106.65 58.8 104.5 66.25 102.3 70.1 102.3 75.6 102.3 82 105.6 88.4 108.9 93.25 108.9 120.4 108.9 138.4 88.35 146.3 79.35 150.65 67.85 154.9 56.5 154.9 45 154.9 43.6048828125 154.15 40.15 154.0716796875 39.6505859375 153.95 39.1 Z"/>

<path fill="#CC33FF" stroke="none" d="
M 144.9 5.6
Q 140.5 2.9 122.95 2 114.8 1.6 99.3 1.6 87.3 1.6 78.5 5.45 75.7 6.7 73 8.4 70.05 10.3 69.95 10.35 66.05 12.3 64.4 20.35 63.823046875 23.2515625 63.2 25.35 64.2583984375 24.0525390625 65.3 22.6 61.1455078125 38.85234375 47.65 45.75 41.6 48.8 30.65 51.7 24.0234375 53.3130859375 18.85 54.6 20.92265625 57.4359375 22.35 61.85 23.8 66.2 25.85 78.25 27.4583984375 87.7666015625 29.2 92.2 29.2880859375 92.256640625 29.35 92.3 34.9 96.2 42.65 96.2 43.4107421875 96.2 44.45 96.1 47.109375 93.897265625 49.05 92.5 59 85.3 71 85.3 75.9 85.3 80.65 87.8 82.5 88.8 89 93.4 94.28671875 97.10078125 99.75 99.1 111.258984375 98.35859375 120.7 93.95 133.15 88.1 137.9 77.5 144.65 62.5 147.1 56.35 150.7279296875 47.2798828125 153.25 38.85
L 153.95 39.1
Q 154.0716796875 39.6505859375 154.15 40.15 155.35 34.1703125 155.35 30.2 155.35 24.5 151.5 15.75 147.75 7.4 144.9 5.6
M 55 46.45
Q 59.85 43.55 60.55 43.6 61.5 43.65 63.15 45.2 65.85 41.95 66.05 42 65.3 43.75 65.3 44.5 65.1 45.35 64.3 46.5 64.55 46.85 66.9 49.1 69.45 51.75 71.2 53.05 70.75 54.3 70.7 56.55 71.35 57.05 72.65 58.05 74.5 59.2 75.3 60.2 72.55 59.1 70.4 58.95 70.25 61 69.9 62.8 70.1 63.1 71.35 64.35 72.25 65.65 72.45 66.35 70.25 65.55 68.5 65.05 66.95 66.6 64.75 67.5 65.15 67.75 65.75 68.85 66.05 69.85 65.9 70 62.4 68.65 61.95 68.7 61.7 68.7 61.65 68.5 53.2 71.3 53.25 71.7 50.4 71.4 47.8 69.95 44.15 71.2 44.45 71.5 43.55 70.75 44.45 69.35 45.3 68.1 45.95 68.15 45.15 67.3 44.35 65.95 43.75 64.85 43.75 64.65 38.1 64.25 37.25 64.15 37.1 63.9 40.1 63.85 42.6 63.5 43.5 63.55 42.8 61.9 42.15 60.6 39.1 56.25 35.35 53.9 34.15 53.7 33.55 53.6 35.2 52.4 38.3 52.3 40.9 52.05 46.4 51.2 48.75 50.15 55 46.45 Z"/>

<path fill="#CC99FF" stroke="none" d="
M 60.55 43.6
Q 59.85 43.55 55 46.45 48.75 50.15 46.4 51.2 40.9 52.05 38.3 52.3 35.2 52.4 33.55 53.6 34.15 53.7 35.35 53.9 39.1 56.25 42.15 60.6 42.8 61.9 43.5 63.55 42.6 63.5 40.1 63.85 37.1 63.9 37.25 64.15 38.1 64.25 43.75 64.65 43.75 64.85 44.35 65.95 45.15 67.3 45.95 68.15 45.3 68.1 44.45 69.35 43.55 70.75 44.45 71.5 44.15 71.2 47.8 69.95 50.4 71.4 53.25 71.7 53.2 71.3 61.65 68.5 61.7 68.7 61.95 68.7 62.4 68.65 65.9 70 66.05 69.85 65.75 68.85 65.15 67.75 64.75 67.5 66.95 66.6 68.5 65.05 70.25 65.55 72.45 66.35 72.25 65.65 71.35 64.35 70.1 63.1 69.9 62.8 70.25 61 70.4 58.95 72.55 59.1 75.3 60.2 74.5 59.2 72.65 58.05 71.35 57.05 70.7 56.55 70.75 54.3 71.2 53.05 69.45 51.75 66.9 49.1 64.55 46.85 64.3 46.5 65.1 45.35 65.3 44.5 65.3 43.75 66.05 42 65.85 41.95 63.15 45.2 61.5 43.65 60.55 43.6 Z"/>
</g>

<g id="lantern_firey_Burst_copy_1_Layer0_0_FILL">
<path fill="url(#Gradient_1)" stroke="none" d="
M 90.7 81.75
Q 101.85 72.85 107 61.3 109.2 43.7 90 30.45 82.3 25.6 74.15 23.9 67.35 22.65 64.9 24 64.6 24.05 64.45 24.25 63.6 36.2 60.1 42.35 54.75 49.85 49 59.1 44.15 61.4 42.9 54.3 41.75 46.75 47.8 37.55 51 32.55 52.8 32.15 55.6 31.95 57.75 30.1 57.75 29.75 57.95 29.75 46.15 27.25 38.7 25.1 29.25 23.45 25.55 32.15 24.45 34.8 24.9 40.45 24.9 41.25 25.1 42.6 20.15 44.85 17.75 47.1 12.4 51.9 12.8 57.7 12.2 70.3 14.95 76.1 16.6 80.25 21.25 86.4 23.65 90.3 31.2 94.95 37.45 96.9 36.7 99.85 36.05 101.95 33 104.65 32.65 104.95 29.1 107.25 40.2 106.05 48.5 101.8 62 95.4 67.7 82.4 69.75 85.45 68.95 91.25 68.05 97.65 64.95 102.65 82.25 88.2 90.7 81.75 Z"/>
</g>

<g id="lantern_firey_Burst_copy_3_Layer0_0_FILL">
<path fill="url(#Gradient_2)" stroke="none" d="
M -3.6 32.7
Q -11.55 28.85 -16.6 23.95 -28.0099609375 12.9626953125 -29.8 -7.7 -45.427734375 2.314453125 -50.95 14.75 -53.75 21.1 -53.75 31.1 -53.75 45 -45.45 48.85 -42.7 50.1 -39.1 50.2 -35.65 50.1 -34.9 50.1 -30.35 50.1 -14.7 47.55 0.95 45 5.4 45 10.5 45 13.5 48.15 16 50.85 16 54.25 16 62.55 0.75 70.95 -15 79.65 -36.45 82.2 -36.05 84.2 -33.4 88.3 -30.1 93.45 -25.5 97.8 -12.25 110.4 4.75 110.4 15 110.4 22.55 104 24.9 102 35 89.9 43.05 80.25 51.35 75.75 63.2 69.35 80.8 69.35 85.7 69.35 90.45 73.2 95.6 77.4 95.6 82.75 95.6 92.3 84.7 99.9 75.4 106.35 60.9 109.85
L 60.9 110.4
Q 61.5 110.4 63.5 110.75 65.5 111.05 66.35 111.05 74.25 111.05 87.65 108.85 105.3 106 119.9 100.8 162.3 85.75 162.3 57.85 162.3 39.3169921875 130.25 12.3 130.4421875 13.540234375 131.2 15.7 132.15 18.55 132.15 19.9 132.15 32.65 114.2 42.4 95.3 52.7 68 52.7 56.3 52.7 40.15 48.6 25.4 44.85 10.2 38.55 -1.25 33.85 -3.6 32.7 Z"/>

<path fill="url(#Gradient_3)" stroke="none" d="
M 31.55 -27.6
Q 28.1126953125 -29.558984375 24.95 -31.05 5.651171875 -29.9037109375 -5.05 -22.35 -11.2 -18.05 -14.05 -11.35 -6.3 -16.15 -0.35 -17.5 6.2 -19.05 20.8 -19.05 35.85 -19.05 44.5 -16.3 48.8486328125 -14.9287109375 54.45 -11.5 42.770703125 -21.2197265625 31.55 -27.6 Z"/>
</g>
</defs>

<g transform="matrix( 0.8803863525390625, 0, 0, 0.8803863525390625, 464.15,349.75) ">
<g transform="matrix( 1, 0, 0, 1, -76.9,-20) ">
<g transform="matrix( 1, 0, 0, 1, 0,0) ">
<use xlink:href="#Blanket_Ghost_death_3_Layer6_0_FILL"/>
</g>

<g transform="matrix( -0.851348876953125, 0.28582763671875, -0.138275146484375, -0.481719970703125, 18.9,148) ">
<g transform="matrix( 1, 0, 0, 1, 0,0) ">
<use xlink:href="#blanket_ghost_bottom_copy_3_Layer0_0_FILL"/>
</g>
</g>

<g transform="matrix( 1, 0, 0, 1, 10.35,-20.2) ">
<g transform="matrix( -0.3151397705078125, 0, 0, -0.5994110107421875, -16.85,154.3) ">
<g transform="matrix( 1, 0, 0, 1, 0,0) ">
<use xlink:href="#lantern_firey_Burst_copy_1_Layer0_0_FILL"/>
</g>
</g>

<g transform="matrix( 0.49627685546875, 0, 0, -0.5340423583984375, -9.45,122.05) ">
<g transform="matrix( 1, 0, 0, 1, 0,0) ">
<use xlink:href="#lantern_firey_Burst_copy_1_Layer0_0_FILL"/>
</g>
</g>

<g transform="matrix( 0.3151397705078125, 0, 0, -0.5994110107421875, 9.55,75.2) ">
<g transform="matrix( 1, 0, 0, 1, 0,0) ">
<use xlink:href="#lantern_firey_Burst_copy_3_Layer0_0_FILL"/>
</g>
</g>

<g transform="matrix( -0.3151397705078125, 0, 0, -0.5994110107421875, 66.55,191.65) ">
<g transform="matrix( 1, 0, 0, 1, 0,0) ">
<use xlink:href="#lantern_firey_Burst_copy_3_Layer0_0_FILL"/>
</g>
</g>

<g transform="matrix( 0.49627685546875, 0, 0, -0.5340423583984375, 60.45,113.4) ">
<g transform="matrix( 1, 0, 0, 1, 0,0) ">
<use xlink:href="#lantern_firey_Burst_copy_3_Layer0_0_FILL"/>
</g>
</g>
</g>
</g>
</g>
</svg>
