
<svg xmlns="http://www.w3.org/2000/svg" version="1.1" xmlns:xlink="http://www.w3.org/1999/xlink" preserveAspectRatio="none" x="0px" y="0px" width="1000px" height="1000px" viewBox="0 0 1000 1000">
<defs>
<linearGradient id="Gradient_1" gradientUnits="userSpaceOnUse" x1="16.925" y1="42.5625" x2="21.474999999999998" y2="26.137500000000003" spreadMethod="pad">
<stop  offset="0%" stop-color="#877046"/>

<stop  offset="30.58823529411765%" stop-color="#CCCC99"/>

<stop  offset="100%" stop-color="#FFFFFF"/>
</linearGradient>

<linearGradient id="Gradient_2" gradientUnits="userSpaceOnUse" x1="10.762500000000001" y1="12.05" x2="26.4375" y2="-3.8500000000000005" spreadMethod="pad">
<stop  offset="0%" stop-color="#877046"/>

<stop  offset="30.58823529411765%" stop-color="#CCCC99"/>

<stop  offset="100%" stop-color="#FFFFFF"/>
</linearGradient>

<linearGradient id="Gradient_3" gradientUnits="userSpaceOnUse" x1="14.525" y1="-11.0125" x2="23.075000000000003" y2="-25.587500000000002" spreadMethod="pad">
<stop  offset="0%" stop-color="#877046"/>

<stop  offset="30.58823529411765%" stop-color="#CCCC99"/>

<stop  offset="100%" stop-color="#FFFFFF"/>
</linearGradient>

<filter id="Filter_1" x="-20%" y="-20%" width="140%" height="140%" color-interpolation-filters="sRGB">
<feColorMatrix in="SourceGraphic" type="matrix" values="1 0 0 0 0 0 1 0 0 0 0 0 1 0 0 0 0 0 0.5 0" result="result1"/>
</filter>

<g id="blanket_ghost_bottom_copy_3_Layer0_0_FILL">
<path fill="#4B286D" stroke="none" d="
M 18.85 54.6
Q 15.900390625 55.3748046875 13.4 56 14.0724609375 57.45 15.1 59.55 17.1 63.65 17.6 66.6 18.65 72.7 21.15 80.55 23.4751953125 88.1189453125 29.2 92.2 27.4583984375 87.7666015625 25.85 78.25 23.8 66.2 22.35 61.85 20.92265625 57.4359375 18.85 54.6
M 83.5 95.75
Q 87.7 97.8 88.6 98.15 91.55 99.25 95 99.25 97.413671875 99.25 99.75 99.1 94.28671875 97.10078125 89 93.4 82.5 88.8 80.65 87.8 75.9 85.3 71 85.3 59 85.3 49.05 92.5 47.109375 93.897265625 44.45 96.1 48.1716796875 95.776171875 55.45 94.25 64.75 92.25 66.85 92.25 76.45 92.25 83.5 95.75 Z"/>

<path fill="#000000" stroke="none" d="
M 153.95 39.1
L 153.25 38.85
Q 150.7279296875 47.2798828125 147.1 56.35 144.65 62.5 137.9 77.5 133.15 88.1 120.7 93.95 111.258984375 98.35859375 99.75 99.1 97.413671875 99.25 95 99.25 91.55 99.25 88.6 98.15 87.7 97.8 83.5 95.75 76.45 92.25 66.85 92.25 64.75 92.25 55.45 94.25 48.1716796875 95.776171875 44.45 96.1 43.4107421875 96.2 42.65 96.2 34.9 96.2 29.35 92.3 29.2880859375 92.256640625 29.2 92.2 23.4751953125 88.1189453125 21.15 80.55 18.65 72.7 17.6 66.6 17.1 63.65 15.1 59.55 14.0724609375 57.45 13.4 56 15.900390625 55.3748046875 18.85 54.6 24.0234375 53.3130859375 30.65 51.7 41.6 48.8 47.65 45.75 61.1455078125 38.85234375 65.3 22.6 64.2583984375 24.0525390625 63.2 25.35 55.8388671875 34.9814453125 50.7 38.1 46.7 40.55 32.45 44.3 29.75 45 22.45 45.5 15.65 45.95 12.85 46.9 6.7 49 4.55 49.85 0.15 51.6 -2.7 53.55 2.8 57.8 7 69.85 9.3 76.5 13.3 88.8 16.6 96.4 26.75 101.55 36.75 106.65 48.15 106.65 51.35 106.65 58.8 104.5 66.25 102.3 70.1 102.3 75.6 102.3 82 105.6 88.4 108.9 93.25 108.9 120.4 108.9 138.4 88.35 146.3 79.35 150.65 67.85 154.9 56.5 154.9 45 154.9 43.6048828125 154.15 40.15 154.0716796875 39.6505859375 153.95 39.1 Z"/>

<path fill="#CC33FF" stroke="none" d="
M 144.9 5.6
Q 140.5 2.9 122.95 2 114.8 1.6 99.3 1.6 87.3 1.6 78.5 5.45 75.7 6.7 73 8.4 70.05 10.3 69.95 10.35 66.05 12.3 64.4 20.35 63.823046875 23.2515625 63.2 25.35 64.2583984375 24.0525390625 65.3 22.6 61.1455078125 38.85234375 47.65 45.75 41.6 48.8 30.65 51.7 24.0234375 53.3130859375 18.85 54.6 20.92265625 57.4359375 22.35 61.85 23.8 66.2 25.85 78.25 27.4583984375 87.7666015625 29.2 92.2 29.2880859375 92.256640625 29.35 92.3 34.9 96.2 42.65 96.2 43.4107421875 96.2 44.45 96.1 47.109375 93.897265625 49.05 92.5 59 85.3 71 85.3 75.9 85.3 80.65 87.8 82.5 88.8 89 93.4 94.28671875 97.10078125 99.75 99.1 111.258984375 98.35859375 120.7 93.95 133.15 88.1 137.9 77.5 144.65 62.5 147.1 56.35 150.7279296875 47.2798828125 153.25 38.85
L 153.95 39.1
Q 154.0716796875 39.6505859375 154.15 40.15 155.35 34.1703125 155.35 30.2 155.35 24.5 151.5 15.75 147.75 7.4 144.9 5.6
M 55 46.45
Q 59.85 43.55 60.55 43.6 61.5 43.65 63.15 45.2 65.85 41.95 66.05 42 65.3 43.75 65.3 44.5 65.1 45.35 64.3 46.5 64.55 46.85 66.9 49.1 69.45 51.75 71.2 53.05 70.75 54.3 70.7 56.55 71.35 57.05 72.65 58.05 74.5 59.2 75.3 60.2 72.55 59.1 70.4 58.95 70.25 61 69.9 62.8 70.1 63.1 71.35 64.35 72.25 65.65 72.45 66.35 70.25 65.55 68.5 65.05 66.95 66.6 64.75 67.5 65.15 67.75 65.75 68.85 66.05 69.85 65.9 70 62.4 68.65 61.95 68.7 61.7 68.7 61.65 68.5 53.2 71.3 53.25 71.7 50.4 71.4 47.8 69.95 44.15 71.2 44.45 71.5 43.55 70.75 44.45 69.35 45.3 68.1 45.95 68.15 45.15 67.3 44.35 65.95 43.75 64.85 43.75 64.65 38.1 64.25 37.25 64.15 37.1 63.9 40.1 63.85 42.6 63.5 43.5 63.55 42.8 61.9 42.15 60.6 39.1 56.25 35.35 53.9 34.15 53.7 33.55 53.6 35.2 52.4 38.3 52.3 40.9 52.05 46.4 51.2 48.75 50.15 55 46.45 Z"/>

<path fill="#CC99FF" stroke="none" d="
M 60.55 43.6
Q 59.85 43.55 55 46.45 48.75 50.15 46.4 51.2 40.9 52.05 38.3 52.3 35.2 52.4 33.55 53.6 34.15 53.7 35.35 53.9 39.1 56.25 42.15 60.6 42.8 61.9 43.5 63.55 42.6 63.5 40.1 63.85 37.1 63.9 37.25 64.15 38.1 64.25 43.75 64.65 43.75 64.85 44.35 65.95 45.15 67.3 45.95 68.15 45.3 68.1 44.45 69.35 43.55 70.75 44.45 71.5 44.15 71.2 47.8 69.95 50.4 71.4 53.25 71.7 53.2 71.3 61.65 68.5 61.7 68.7 61.95 68.7 62.4 68.65 65.9 70 66.05 69.85 65.75 68.85 65.15 67.75 64.75 67.5 66.95 66.6 68.5 65.05 70.25 65.55 72.45 66.35 72.25 65.65 71.35 64.35 70.1 63.1 69.9 62.8 70.25 61 70.4 58.95 72.55 59.1 75.3 60.2 74.5 59.2 72.65 58.05 71.35 57.05 70.7 56.55 70.75 54.3 71.2 53.05 69.45 51.75 66.9 49.1 64.55 46.85 64.3 46.5 65.1 45.35 65.3 44.5 65.3 43.75 66.05 42 65.85 41.95 63.15 45.2 61.5 43.65 60.55 43.6 Z"/>
</g>

<g id="blanket_ghost_hood_copy_3_Layer0_0_FILL">
<path fill="#4B286D" stroke="none" d="
M 44.35 58.05
Q 44.3 59.3 48.2 60.2 49.75 60.35 53.15 60.85 51.7 62.25 50.05 64.05 48.9 65.05 47.75 65.5 47.9 65.65 48.65 65.75 59.4 64.45 63.9 50.85 61.15 52.5 57 54.05 49.1 56.55 44.4 57.4 44.2 57.55 44.35 58.05
M 63.6 35.95
Q 63 35.75 62.8 35.95 53.7 38.75 43.6 42.25 22.8 48.95 11.25 49.5 8 49.4 6.05 48.85 4.35 48 4.05 47.15 3.75 48.1 3.7 49.25 3.1 55.65 8.6 57.8 13.45 59.55 21.2 56.5 28.8 53.05 39.5 48.1 50.4 43.05 52.85 44.4 50 47.25 48.15 50.2 47.85 50.4 48.05 50.5 49.65 48.95 51.85 47.05 55.9 42.95 63.6 35.95
M 136.65 20.25
Q 133.95 16.5 129.25 14.4 119.85 6.65 105.15 9.85 90.4 12.55 79.5 14.25 80.05 14.65 82.8 15.65 85.55 16.4 86.8 16.85 79.3 19.8 76.25 23.1 73.95 24.95 71.75 29.6 77.35 23.7 89.9 18.55 101.8 12.5 110.1 11.3 117.9 10.35 123.6 13 128.85 15.3 136.35 20.25 136.5 20.25 136.65 20.25 Z"/>

<path fill="#CC99FF" stroke="none" d="
M 55.7 18.5
Q 54.65 17.4 54.55 16.8 51.45 17 49.4 18.1 37.05 20.95 27.2 26.9 26.85 26.7 27.15 26.95 27.15 28.55 28.15 30.95 28.7 32.4 29.7 34.4 31.65 32.95 34.7 31.6 35.15 32.5 35.8 33.55 37.4 35.95 37.75 36 37.35 32.7 37.3 30.5 38.6 29.8 40.55 29.3 40.4 29.55 42.1 32.8 42.1 32.75 42.55 32.8 42.35 31.3 42.25 28.65 43.4 28.25 52.35 25.7 58.25 23.9 58.45 23.65 58.45 22.9 57.05 20.7 57.3 20.55 58.9 20.45 60.15 20.35 61.4 20.4 60.55 19.3 57.9 18.75 56.5 18.35 55.7 18.5 Z"/>

<path fill="#CC33FF" stroke="none" d="
M 158.7 37.1
Q 158.6 35.2 156.5 30.45 154.25 26.15 152.85 24.25 152.4 23.9 152.35 23.85 140.95 16.5 129.25 14.4 133.95 16.5 136.65 20.25 136.5 20.25 136.35 20.25 128.85 15.3 123.6 13 117.9 10.35 110.1 11.3 101.8 12.5 89.9 18.55 77.35 23.7 71.75 29.6 73.95 24.95 76.25 23.1 79.3 19.8 86.8 16.85 85.55 16.4 82.8 15.65 80.05 14.65 79.5 14.25 74.6 13.9 71.5 14.25 63.35 14.7 54.55 16.8 54.65 17.4 55.7 18.5 56.5 18.35 57.9 18.75 60.55 19.3 61.4 20.4 60.15 20.35 58.9 20.45 57.3 20.55 57.05 20.7 58.45 22.9 58.45 23.65 58.25 23.9 52.35 25.7 43.4 28.25 42.25 28.65 42.35 31.3 42.55 32.8 42.1 32.75 42.1 32.8 40.4 29.55 40.55 29.3 38.6 29.8 37.3 30.5 37.35 32.7 37.75 36 37.4 35.95 35.8 33.55 35.15 32.5 34.7 31.6 31.65 32.95 29.7 34.4 28.7 32.4 28.15 30.95 27.15 28.55 27.15 26.95 16.9 32.45 10.65 37.85 5.3 42.05 4.05 47.15 4.35 48 6.05 48.85 8 49.4 11.25 49.5 22.8 48.95 43.6 42.25 53.7 38.75 62.8 35.95 63 35.75 63.6 35.95 55.9 42.95 51.85 47.05 49.65 48.95 48.05 50.5 44.75 55.05 44.4 57.4 49.1 56.55 57 54.05 61.15 52.5 63.9 50.85 59.4 64.45 48.65 65.75 47.9 65.65 47.75 65.5 46.6 65.85 45.4 66.4 46.45 68.1 48.6 71.75 49.45 73.35 51.75 78.15 53.4 82.25 54.75 83.95 58.15 89 60.9 91.75 66.3 97.6 71.5 99.35 86.7 103.6 87.85 103.95 95.5 105.3 104.55 104.8 123.1 102.85 132.55 92.05 135.45 88.05 138 82.45 138.45 81.05 139.1 80.05 138.9 80 139.1 79.95 138.85 75.8 142 70.1 142.75 67.55 148.6 59.5 158.5 45.2 158.7 37.1 Z"/>

<path fill="#000000" stroke="none" d="
M 156.5 30.45
Q 158.6 35.2 158.7 37.1 158.5 45.2 148.6 59.5 142.75 67.55 142 70.1 138.85 75.8 139.1 79.95 141.8 73.3 146.9 66.55 149.25 62.55 155.2 56.05 164.5 44.6 164.6 33.85 163.9 25.8 157.6 19.1 135.9 3.5 113.3 6.1 90.35 7.25 74.25 6.15 58.45 5.6 42.8 11 27.3 15.7 16 22.7 2.05 30.65 -3.25 37.9 -6.45 42.7 -6.4 51.55 -5.25 60.85 3.85 66.55 10.1 70.05 19.4 69.8 23.4 69.3 31.2 63.4 33 62.05 34.95 60.45 34.9 60.65 35.1 61.85 35.35 64.6 37.8 66.05 39.3 66.6 41.75 66.95 43.7 66.75 45.4 66.4 46.6 65.85 47.75 65.5 48.9 65.05 50.05 64.05 51.7 62.25 53.15 60.85 49.75 60.35 48.2 60.2 44.3 59.3 44.35 58.05 44.2 57.55 44.4 57.4 44.75 55.05 48.05 50.5 47.85 50.4 48.15 50.2 50 47.25 52.85 44.4 50.4 43.05 39.5 48.1 28.8 53.05 21.2 56.5 13.45 59.55 8.6 57.8 3.1 55.65 3.7 49.25 3.75 48.1 4.05 47.15 5.3 42.05 10.65 37.85 16.9 32.45 27.15 26.95 26.85 26.7 27.2 26.9 37.05 20.95 49.4 18.1 51.45 17 54.55 16.8 63.35 14.7 71.5 14.25 74.6 13.9 79.5 14.25 90.4 12.55 105.15 9.85 119.85 6.65 129.25 14.4 140.95 16.5 152.35 23.85 152.4 23.9 152.85 24.25 154.25 26.15 156.5 30.45 Z"/>
</g>

<g id="blanket_ghost_arm_0_Layer0_0_FILL">
<path fill="#CC33FF" stroke="none" d="
M 38.55 21.85
Q 38.05 22.5 37.5 23.3 34.6 28.85 33.45 34.95 32.65 39.1 31.15 47.45 36.45 39.8 39.3 33.3 39.65 32.5 40 31.65 40.8 24.2 42.7 18.5 40.45 19.6 38.55 21.85
M 36.3 22.05
Q 36.95 20.65 37.7 19.6 28 22.5 19.55 29.85 21.9 29 24.95 28 31.9 25.7 36.3 22.05
M 70 20.35
Q 69.35 20.35 68.2 21 66.9 21.75 66.9 22.5 66.9 23.55 67.9 24 68.75 24.35 70.4 24.35 71.7 24.35 75.25 23.7 75.25 23.95 75.25 24.2 76.2 22.65 76.2 20.2 76.2 15.95 73.25 12.45 69.85 8.4 61.5 8.4 53.15 8.35 47.2 18 41.95 26.4 39.4 44.05 39.4 43.85 39.4 43.8 39.4 42.9 39.4 42 39.15 43.2 38.85 44.3 37.3 50.2 34.75 55.8
L 35.05 55.5
Q 40.3 52.85 43.25 46.35 44.5 43.65 47.25 34 49.5 26.2 52.1 22.6 55.95 17.4 62.85 16.35 60.9 15.35 59.9 14.95 58.25 14.35 56.15 14.7 58 13.65 59 13.45 59.55 13.35 62.35 13.35 65.85 13.35 68.85 15.05 72.2 16.95 72.2 19.85
L 72.2 21.35
Q 72.05 21.1 71.25 20.75 70.4 20.35 70 20.35 Z"/>

<path fill="#4B286D" stroke="none" d="
M 62.85 20.7
Q 64.05 18.75 65.8 18.75 66.85 18.75 67.65 19.4 67.45 19.35 67.2 19.35 66.25 19.35 65.5 20.4 64.85 21.4 64.85 22.6 64.85 24.6 66.15 25.7 67.45 26.75 69.85 26.75 72.95 26.75 74.6 25.05 74.95 24.65 75.25 24.2 75.25 23.95 75.25 23.7 71.7 24.35 70.4 24.35 68.75 24.35 67.9 24 66.9 23.55 66.9 22.5 66.9 21.75 68.2 21 69.35 20.35 70 20.35 70.4 20.35 71.25 20.75 72.05 21.1 72.2 21.35
L 72.2 19.85
Q 72.2 16.95 68.85 15.05 65.85 13.35 62.35 13.35 59.55 13.35 59 13.45 58 13.65 56.15 14.7 58.25 14.35 59.9 14.95 60.9 15.35 62.85 16.35 55.95 17.4 52.1 22.6 49.5 26.2 47.25 34 44.5 43.65 43.25 46.35 40.3 52.85 35.05 55.5
L 34.75 55.8
Q 37.3 50.2 38.85 44.3 39.15 43.2 39.4 42 39.5 36.45 40 31.65 39.65 32.5 39.3 33.3 36.45 39.8 31.15 47.45 32.65 39.1 33.45 34.95 34.6 28.85 37.5 23.3 35.9 25.6 34.05 29.4
L 33.7 29.4
Q 34.8 25.05 36.3 22.05 31.9 25.7 24.95 28 21.9 29 19.55 29.85 16.6 32.35 13.8 35.45 0 50.7 0 70.05 0 71.5 0.65 75.2 0.75 75.9 0.9 76.55 3.2 84.2 6.65 85.65 11.15 87.5 13.5 88.3 17.6 89.6 20.55 89.6 30.45 89.6 38.5 81.75 46.4 74.1 49.8 61.6 51.1 56.75 52.6 50.15 54.15 43.4 54.8 39.45 56.35 30.45 56.45 30.15 57.85 26 61.8 24.05 61.85 22.3 62.85 20.7 Z"/>

<path fill="#000000" stroke="none" d="
M 74.8 2.2
Q 73.3 1.2 71.9 0.55 70.7 0.1 69.65 0 67.2 0 66 0 50.75 0 44.25 14.4 40.6 15.85 38.3 18.75 38 19.15 37.7 19.6 36.95 20.65 36.3 22.05 34.8 25.05 33.7 29.4
L 34.05 29.4
Q 35.9 25.6 37.5 23.3 38.05 22.5 38.55 21.85 40.45 19.6 42.7 18.5 40.8 24.2 40 31.65 39.5 36.45 39.4 42 39.4 42.9 39.4 43.8 39.4 43.85 39.4 44.05 41.95 26.4 47.2 18 53.15 8.35 61.5 8.4 69.85 8.4 73.25 12.45 76.2 15.95 76.2 20.2 76.2 22.65 75.25 24.2 74.95 24.65 74.6 25.05 72.95 26.75 69.85 26.75 67.45 26.75 66.15 25.7 64.85 24.6 64.85 22.6 64.85 21.4 65.5 20.4 66.25 19.35 67.2 19.35 67.45 19.35 67.65 19.4 66.85 18.75 65.8 18.75 64.05 18.75 62.85 20.7 61.85 22.3 61.8 24.05 57.85 26 56.45 30.15 56.35 30.45 54.8 39.45 54.15 43.4 52.6 50.15 51.1 56.75 49.8 61.6 46.4 74.1 38.5 81.75 30.45 89.6 20.55 89.6 17.6 89.6 13.5 88.3 11.15 87.5 6.65 85.65 3.2 84.2 0.9 76.55 0.75 76.1 0.6 75.6
L 0.6 75.25
Q 0.5962890625 75.3587890625 0.45 75.7 0.25 76.1 0.25 76.6 0.25 84.95 5 91.05 5.35 91.5 5.7 91.9 6.15 92.45 6.65 92.95 7.5 93.85 8.35 94.6 13.95 99.4 21.15 99.4 34.65 99.4 42.2 92.35 48.55 86.45 54.8 70.85 56.4 66.85 57.65 59.65 58.75 53.4 59.15 47.8 59.75 45.65 59.75 41.9 59.6 37.65 59.65 35.7 59.8 29.8 63.2 28.65 65.05 30.8 69.35 30.8 76.55 30.8 80.3 25.4 83.3 21.05 83.3 14.85 83.3 8.9 77.25 4 76 3 74.8 2.2 Z"/>
</g>

<g id="blanket_ghost_face_0_Layer0_0_FILL">
<path fill="#000000" stroke="none" d="
M 58.55 9.05
Q 49.75 0 41.5 0 32.5 0 27.45 2.7 22.65 5.3 14.1 14.4 0 29.5 0 43.5 0 52.8 12.4 57.9 21.45 61.6 30.45 61.6 38.45 61.6 48.2 55.75 53.5 52.55 57.35 49.05 62.9 41.7 64.75 37.95 67.25 32.9 67.25 26.15 67.25 18.05 58.55 9.05
M 41.8 5
Q 50 5 57.2 12.05 64.25 18.95 64.25 26.45 64.25 34.3 59.9 41.2 55.45 48.3 47.55 52.45 44.35 55 42.4 55.95 37.75 58.25 30.6 58.25 22.45 58.25 15.45 55.3 4.4 50.6 4.4 40.3 4.4 28.15 17.15 16.45 29.6 5 41.8 5 Z"/>

<path fill="#333333" stroke="none" d="
M 57.2 12.05
Q 50 5 41.8 5 29.6 5 17.15 16.45 4.4 28.15 4.4 40.3 4.4 50.6 15.45 55.3 22.45 58.25 30.6 58.25 37.75 58.25 42.4 55.95 44.35 55 47.55 52.45 55.45 48.3 59.9 41.2 64.25 34.3 64.25 26.45 64.25 18.95 57.2 12.05
M 43.55 23.95
Q 43.55 23.05 44.2 22.4 44.85 21.75 45.75 21.75 46.7 21.75 47.35 22.4 48 23.05 48 24 48 24.9 47.35 25.55 46.7 26.2 45.75 26.2 44.85 26.2 44.2 25.55 43.55 24.9 43.55 23.95
M 32.9 23.15
Q 32.9 20.95 34.05 19.35 35.25 17.8 36.9 17.8 38.55 17.8 39.75 19.35 40.95 20.95 40.95 23.2 40.95 25.4 39.75 27 38.55 28.6 36.9 28.6 35.25 28.6 34.05 27 32.9 25.4 32.9 23.15 Z"/>

<path fill="#66CCFF" stroke="none" d="
M 34.05 19.35
Q 32.9 20.95 32.9 23.15 32.9 25.4 34.05 27 35.25 28.6 36.9 28.6 38.55 28.6 39.75 27 40.95 25.4 40.95 23.2 40.95 20.95 39.75 19.35 38.55 17.8 36.9 17.8 35.25 17.8 34.05 19.35
M 44.2 22.4
Q 43.55 23.05 43.55 23.95 43.55 24.9 44.2 25.55 44.85 26.2 45.75 26.2 46.7 26.2 47.35 25.55 48 24.9 48 24 48 23.05 47.35 22.4 46.7 21.75 45.75 21.75 44.85 21.75 44.2 22.4 Z"/>
</g>

<g id="lantern_glow_2_Layer0_0_FILL">
<path fill="#3399FF" stroke="none" d="
M 117.1 73.25
Q 131.8138671875 41.017578125 116.8 26.65 101.7921875 12.3333984375 77.45 -0.15 53.1001953125 -12.5759765625 24.7 9.6 -3.6408203125 31.8255859375 -10.05 46.1 -16.46640625 60.3669921875 4 82.85 24.522265625 105.331640625 53.35 116.75 82.171875 128.2279296875 92.3 116.85 102.430859375 105.4720703125 117.1 73.25
M 108.25 59.15
Q 109.604296875 77.2501953125 94.9 91.95 80.255859375 106.5984375 63.45 103.95 46.68203125 101.3044921875 29.65 88.15 12.6177734375 75.0453125 10.95 55.35 9.2939453125 35.7013671875 24 20.95 38.6955078125 6.249609375 57 11.1 75.362890625 15.9505859375 91.1 28.5 106.8869140625 41.09921875 108.25 59.15 Z"/>

<path fill="#00FFFF" stroke="none" d="
M 94.9 91.95
Q 109.604296875 77.2501953125 108.25 59.15 106.8869140625 41.09921875 91.1 28.5 75.362890625 15.9505859375 57 11.1 38.6955078125 6.249609375 24 20.95 9.2939453125 35.7013671875 10.95 55.35 12.6177734375 75.0453125 29.65 88.15 46.68203125 101.3044921875 63.45 103.95 80.255859375 106.5984375 94.9 91.95
M 59.2 24.1
Q 70.8953125 22.796875 80.5 32.4 90.2486328125 42.097265625 85.3 53.25 80.4041015625 64.4576171875 73 75.2 65.6458984375 85.9921875 54.65 87.3 43.6513671875 88.6025390625 33.9 79 24.3046875 69.353125 28.05 58.2 31.7859375 47.090625 39.65 36.25 47.5640625 25.409375 59.2 24.1 Z"/>

<path fill="#FFFFFF" stroke="none" d="
M 80.5 32.4
Q 70.8953125 22.796875 59.2 24.1 47.5640625 25.409375 39.65 36.25 31.7859375 47.090625 28.05 58.2 24.3046875 69.353125 33.9 79 43.6513671875 88.6025390625 54.65 87.3 65.6458984375 85.9921875 73 75.2 80.4041015625 64.4576171875 85.3 53.25 90.2486328125 42.097265625 80.5 32.4 Z"/>
</g>

<g id="lantern_Hand_copy_2_2_Layer1_0_FILL">
<path fill="#000000" stroke="none" d="
M 18.4 -22.8
Q 17.65 -22.9 16.85 -22.9 12.3 -22.9 9.05 -20.6 5.9 -18.25 5.9 -14.9 5.9 -11.6 8.95 -9.4
L 5.6 -9.4 -12.25 7.95 7.55 49.7 30.95 47.6 45.05 6 28.45 -9.4 24.75 -9.4
Q 27.9 -11.6 27.9 -14.9 27.9 -18.25 24.6 -20.6 22 -22.5 18.4 -22.8
M 16.85 -21.4
Q 17.95 -21.4 18.95 -21.2 21.2 -20.8 22.95 -19.5 25.55 -17.6 25.55 -14.85 25.55 -12.15 22.95 -10.3 22.85 -10.2 22.8 -10.1 21.65 -9.3 20.3 -8.85 18.7 -8.35 16.85 -8.35 15.05 -8.35 13.45 -8.85 11.95 -9.35 10.7 -10.3 8.2 -12.15 8.2 -14.85 8.2 -17.6 10.7 -19.5 13.25 -21.4 16.85 -21.4
M 22 -6.2
L 26 -6.2 35.65 8.1 27.65 8.1 -1.3 8.1 8.15 -6.2 22 -6.2
M 10.65 43.1
L 7.95 37.75 25.2 37.75 28.7 37.75 25.75 43.4 23.5 43.35 10.65 43.1
M 31.15 36.4
L 5.45 36.7 -4.6 9.75 39.2 9.75 31.15 36.4
M 13.95 -14.75
Q 13.95 -13.7 14.8 -13 15.65 -12.25 16.85 -12.25 18.1 -12.25 18.95 -13 19.8 -13.7 19.8 -14.75 19.8 -15.75 18.95 -16.5 18.1 -17.3 16.85 -17.3 15.65 -17.3 14.8 -16.5 13.95 -15.75 13.95 -14.75
M 15.65 -15.95
Q 16.2 -16.45 16.85 -16.45 17.6 -16.45 18.1 -15.95 18.65 -15.45 18.65 -14.8 18.65 -14.1 18.1 -13.65 17.6 -13.2 16.85 -13.2 16.2 -13.2 15.65 -13.65 15.15 -14.1 15.15 -14.8 15.15 -15.45 15.65 -15.95 Z"/>

<path fill="#FFFFFF" stroke="none" d="
M 23.5 43.35
L 25.75 43.4 28.7 37.75 25.2 37.75 23.5 43.35
M 26 -6.2
L 22 -6.2 27.65 8.1 35.65 8.1 26 -6.2
M 22.8 -10.1
Q 22.85 -10.2 22.95 -10.3 25.55 -12.15 25.55 -14.85 25.55 -17.6 22.95 -19.5 21.2 -20.8 18.95 -21.2 24.9 -17.1 22.8 -10.1 Z"/>

<path fill="url(#Gradient_1)" stroke="none" d="
M 7.95 37.75
L 10.65 43.1 23.5 43.35 25.2 37.75 7.95 37.75 Z"/>

<path fill="url(#Gradient_2)" stroke="none" d="
M 22 -6.2
L 8.15 -6.2 -1.3 8.1 27.65 8.1 22 -6.2 Z"/>

<path fill="url(#Gradient_3)" stroke="none" d="
M 18.95 -21.2
Q 17.95 -21.4 16.85 -21.4 13.25 -21.4 10.7 -19.5 8.2 -17.6 8.2 -14.85 8.2 -12.15 10.7 -10.3 11.95 -9.35 13.45 -8.85 15.05 -8.35 16.85 -8.35 18.7 -8.35 20.3 -8.85 21.65 -9.3 22.8 -10.1 24.9 -17.1 18.95 -21.2
M 14.8 -13
Q 13.95 -13.7 13.95 -14.75 13.95 -15.75 14.8 -16.5 15.65 -17.3 16.85 -17.3 18.1 -17.3 18.95 -16.5 19.8 -15.75 19.8 -14.75 19.8 -13.7 18.95 -13 18.1 -12.25 16.85 -12.25 15.65 -12.25 14.8 -13 Z"/>
</g>

<g id="lantern_Hand_copy_2_2_Layer0_0_FILL">
<path fill="#66CCFF" stroke="none" d="
M 24.75 23.5
Q 24.55 18.6 22.3 15.25 20.05 12.1 17 12.35 14 12.6 12 16.1 10 19.8 10.15 24.75 10.35 29.65 12.6 32.85 14.8 36.2 17.85 35.9 20.85 35.7 22.9 32 24.85 28.45 24.75 23.5
M 15.1 23.3
Q 15 21.3 15.6 19.85 16.15 18.4 17.05 18.35 17.95 18.25 18.65 19.6 19.3 20.95 19.45 22.95 19.5 24.9 18.95 26.4 18.35 27.85 17.5 27.95 16.55 28 15.9 26.6 15.15 25.25 15.1 23.3 Z"/>

<path fill="#FFFFFF" stroke="none" d="
M 15.6 19.85
Q 15 21.3 15.1 23.3 15.15 25.25 15.9 26.6 16.55 28 17.5 27.95 18.35 27.85 18.95 26.4 19.5 24.9 19.45 22.95 19.3 20.95 18.65 19.6 17.95 18.25 17.05 18.35 16.15 18.4 15.6 19.85 Z"/>
</g>

<g id="blanket_ghost_other_arm_0_Layer0_0_FILL">
<path fill="#4B286D" stroke="none" d="
M 51.3 9.95
Q 51.6 14.4 51.6 14.8 51.6 22.75 48.15 32.95 47.3 35.4 42.2 47.85
L 42.2 48.2
Q 43.75 47 46.2 43.6 48.45 40.5 49.2 38.75
L 49.85 38.75
Q 49.65 41.15 50 44.95 50.25 43.05 50.8 38.95 53.55 17.85 51.3 9.95
M 45.85 9.35
L 45.55 9.35
Q 37.05 17.5 32.7 20.4 22.55 27.15 6.95 31.8 10.1 32.45 11.55 32.45 17.75 32.45 25.25 29.5 33.15 26.4 37.1 22
L 37.1 22.35
Q 36.9 23.4 33.95 33.85 31.45 42.75 31.45 44.3 31.45 44.85 31.5 44.9 31.55 44.95 31.8 45.1 39.35 40.65 44.55 30.4 50.15 19.25 47.85 10.3
L 45.2 13.3
Q 45.2 12.4 45.85 11
L 45.85 9.35 Z"/>

<path fill="#CC33FF" stroke="none" d="
M 51.3 9.95
Q 50 5.55 47.25 5.2 43.15 4.65 37.95 7.75 30.7 11.95 28.65 12.6 23.95 14 17.9 15.25 13.25 16.15 10.25 16.75 7.65 17.65 6 18.6 0 22 0 30.25 0 36.55 13.7 47.5 26.7 57.85 31.65 57.85 33 57.85 38.9 55.75 44.7 53.6 45.55 52.85 48.05 50.55 49.05 48.55 49.25 48.15 49.55 47.55 49.65 46.9 49.75 46.25 49.85 45.85 50 44.95 49.65 41.15 49.85 38.75
L 49.2 38.75
Q 48.45 40.5 46.2 43.6 43.75 47 42.2 48.2
L 42.2 47.85
Q 47.3 35.4 48.15 32.95 51.6 22.75 51.6 14.8 51.6 14.4 51.3 9.95
M 45.55 9.35
L 45.85 9.35 45.85 11
Q 45.2 12.4 45.2 13.3
L 47.85 10.3
Q 50.15 19.25 44.55 30.4 39.35 40.65 31.8 45.1 31.55 44.95 31.5 44.9 31.45 44.85 31.45 44.3 31.45 42.75 33.95 33.85 36.9 23.4 37.1 22.35
L 37.1 22
Q 33.15 26.4 25.25 29.5 17.75 32.45 11.55 32.45 10.1 32.45 6.95 31.8 22.55 27.15 32.7 20.4 37.05 17.5 45.55 9.35 Z"/>

<path fill="#000000" stroke="none" d="
M 55.9 10.4
Q 54.65 0.8 49.1 0.1 44.55 -0.5 37.2 3.35 29.45 8 26.75 9.3 23.45 10.9 16.65 13.6 9.6 16.35 7.75 17.25 8.8 17.05 10.25 16.75 13.25 16.15 17.9 15.25 23.95 14 28.65 12.6 30.7 11.95 37.95 7.75 43.15 4.65 47.25 5.2 50 5.55 51.3 9.95 53.55 17.85 50.8 38.95 50.25 43.05 50 44.95 49.85 45.85 49.75 46.25 49.65 46.9 49.55 47.55 49.4 48.1 49.3 48.7 49.55 48.1 49.9 47.5 50 47.2 50.15 46.85 50.7 45.4 51.3 43.8 51.75 42.8 52.1 41.8 54.25 35.2 55.45 26.05 56.65 16.9 55.9 10.4 Z"/>
</g>

<g id="blanket_ghost_teddy_0_Layer0_0_FILL">
<path fill="#000000" stroke="none" d="
M 55.55 18.75
Q 55 18.75 53.6 19.15
L 52.25 19.5
Q 51.9 13.5 47.6 9.7 43.3 5.9 38.2 6.35 37.2 1.75 36.5 1 35.6 0 31.6 0 27.95 0 23.5 2.3 18.4 4.95 18.4 8.05 18.4 8.75 19.1 10.2 20 12.15 20.1 12.4 15.6 12.25 12.35 17.35 9.6876953125 21.49140625 9.5 25.95 9.5021484375 26.0365234375 9.5 26.1 5.9 26.55 3 29.5 0 32.5 0 35.75 0 38.180078125 1.2 40 2.03515625 41.2080078125 3.35 42.15 6.15 44.15 9.55 44.15 10.8 44.15 13.45 42.7 15.4 41.65 16.4 40.85 17.95 41.7 20.3 42 21.4 42.15 24.95 42.15 32.7 42.15 41.65 37.3 45.52734375 35.166015625 47.65 33.15 49.0619140625 31.8564453125 49.7 30.6 50.003515625 31.234765625 50.4 31.8 50.7744140625 32.301953125 51.2 32.75 53.7 35.45 57.2 35.45 60.35 35.45 62.3 33.1 63.4970703125 31.6265625 63.95 29.55 64.25 28.275 64.25 26.75 64.25 22.85 61.95 20.75 59.7 18.75 55.55 18.75
M 53.35 23.7
Q 53.5533203125 23.3759765625 53.75 23.05 55.070703125 21.09921875 55.9 20.75 61.6 20.75 61.6 27.1 61.6 28.6763671875 61.25 29.65 61.1203125 30.1197265625 60.9 30.45 60.05 31.85 57.75 31.85 55.55 31.85 53.9 30.85 53.2849609375 30.475 52.85 29.95 51.85 28.834765625 51.85 27.05 51.85 26.2 53.35 23.7
M 42.9 11.8
Q 49.5 12.85 49.85 20.1
L 48.85 26.85
Q 46.67421875 30.8251953125 41.85 34 40.9359375 34.6544921875 39.9 35.25 31.45 40.15 21.3 40.15 20.65 40.15 15.75 37.85 15.15 37.85 13.85 39.5 12.5 41.1 11.05 41.1 9.85 41.1 7.1 38.85 6.7779296875 38.5861328125 6.5 38.3 4.05 36.1494140625 4.05 34.45 4.05 34.05 5.7 31.4 7.55 28.45 8.55 28.45 9.05 28.45 9.6 28.6 10.05 31.25 10.3 31.95 10.5375 30.4365234375 10.9 28.85 11.1748046875 27.7974609375 11.5 26.7 12.7 22.5 14.1 20.4 16.1 17.4 16.15 17.35 16.361328125 17.0794921875 16.55 16.8 17.6875 15.5724609375 19.1 14.7 19.6 14.4 22.75 13.85 25.35 13.45 25.8 12.4 24.827734375 12.6916015625 23.3 10.9 23.29296875 10.852734375 23.25 10.8 21.65 8.9 21.75 7.7 22.25 7.6 26.95 5.55 31.25 3.7 33.15 3.7 34.45 3.7 35.3 5.25 36.45 7.4 36.8 7.7 36.3 8.35 34.9 9.75 33.65 11.05 32.9 12.05
L 33.15 12.05
Q 35.1 10.95 35.85 10.8 36.25 10.7 42.9 11.8
M 19.95 34.15
Q 19.15 34.8 19.15 35.7 19.15 36.65 19.95 37.3 20.75 37.95 21.8 37.95 22.9 37.95 23.7 37.3 24.5 36.65 24.5 35.7 24.5 34.8 23.7 34.15 22.9 33.5 21.8 33.5 20.75 33.5 19.95 34.15
M 43.95 22.2
Q 43.95 20.95 43.25 20.05 42.55 19.2 41.55 19.2 40.6 19.2 39.9 20.05 39.2 20.95 39.2 22.2 39.2 23.45 39.9 24.3 40.6 25.2 41.55 25.2 42.55 25.2 43.25 24.3 43.95 23.45 43.95 22.2 Z"/>

<path fill="#BD793E" stroke="none" d="
M 10.9 28.85
Q 10.5375 30.4365234375 10.3 31.95 10.05 31.25 9.6 28.6 9.05 28.45 8.55 28.45 7.55 28.45 5.7 31.4 4.05 34.05 4.05 34.45 4.05 36.1494140625 6.5 38.3 7.9642578125 37.463671875 9.05 36.2 11.15 33.8 11.15 31.45 11.15 29.9625 10.9 28.85
M 49.85 20.1
Q 49.5 12.85 42.9 11.8 36.25 10.7 35.85 10.8 35.1 10.95 33.15 12.05
L 32.9 12.05
Q 33.65 11.05 34.9 9.75 36.3 8.35 36.8 7.7 36.45 7.4 35.3 5.25 34.45 3.7 33.15 3.7 31.25 3.7 26.95 5.55 22.25 7.6 21.75 7.7 21.65 8.9 23.25 10.8 23.29296875 10.852734375 23.3 10.9 24.827734375 12.6916015625 25.8 12.4 25.35 13.45 22.75 13.85 19.6 14.4 19.1 14.7 17.6875 15.5724609375 16.55 16.8 16.35 18.3826171875 16.35 21.85 16.35 29.5 23.4 32.35 27.8 34.1 36.3 34.1 39.65703125 34.1 41.85 34 46.67421875 30.8251953125 48.85 26.85
L 49.85 20.1
M 43.25 20.05
Q 43.95 20.95 43.95 22.2 43.95 23.45 43.25 24.3 42.55 25.2 41.55 25.2 40.6 25.2 39.9 24.3 39.2 23.45 39.2 22.2 39.2 20.95 39.9 20.05 40.6 19.2 41.55 19.2 42.55 19.2 43.25 20.05
M 55.9 20.75
Q 55.070703125 21.09921875 53.75 23.05 54.5830078125 24.5279296875 56.35 26.35 59.130078125 29.2142578125 61.25 29.65 61.6 28.6763671875 61.6 27.1 61.6 20.75 55.9 20.75 Z"/>

<path fill="#53315F" stroke="none" d="
M 16.35 21.85
Q 16.35 18.3826171875 16.55 16.8 16.361328125 17.0794921875 16.15 17.35 16.1 17.4 14.1 20.4 12.7 22.5 11.5 26.7 11.1748046875 27.7974609375 10.9 28.85 11.15 29.9625 11.15 31.45 11.15 33.8 9.05 36.2 7.9642578125 37.463671875 6.5 38.3 6.7779296875 38.5861328125 7.1 38.85 9.85 41.1 11.05 41.1 12.5 41.1 13.85 39.5 15.15 37.85 15.75 37.85 20.65 40.15 21.3 40.15 31.45 40.15 39.9 35.25 40.9359375 34.6544921875 41.85 34 39.65703125 34.1 36.3 34.1 27.8 34.1 23.4 32.35 16.35 29.5 16.35 21.85
M 19.15 35.7
Q 19.15 34.8 19.95 34.15 20.75 33.5 21.8 33.5 22.9 33.5 23.7 34.15 24.5 34.8 24.5 35.7 24.5 36.65 23.7 37.3 22.9 37.95 21.8 37.95 20.75 37.95 19.95 37.3 19.15 36.65 19.15 35.7
M 53.75 23.05
Q 53.5533203125 23.3759765625 53.35 23.7 51.85 26.2 51.85 27.05 51.85 28.834765625 52.85 29.95 53.2849609375 30.475 53.9 30.85 55.55 31.85 57.75 31.85 60.05 31.85 60.9 30.45 61.1203125 30.1197265625 61.25 29.65 59.130078125 29.2142578125 56.35 26.35 54.5830078125 24.5279296875 53.75 23.05 Z"/>
</g>
</defs>

<g transform="matrix( 0.8803863525390625, 0, 0, 0.8803863525390625, 464.15,349.75) ">
<g transform="matrix( 1, 0, 0, 1, -76.9,6) ">
<g transform="matrix( 0.9999237060546875, 0.0096435546875, -0.0051727294921875, 0.9998321533203125, 0.5,38.85) ">
<g transform="matrix( 1, 0, 0, 1, 0,0) ">
<use xlink:href="#blanket_ghost_bottom_copy_3_Layer0_0_FILL"/>
</g>
</g>

<g transform="matrix( 0.9992828369140625, -0.031524658203125, 0.08026123046875, 0.998626708984375, 7.85,3) ">
<g transform="matrix( 1, 0, 0, 1, 0,0) ">
<use xlink:href="#blanket_ghost_hood_copy_3_Layer0_0_FILL"/>
</g>
</g>

<g transform="matrix( 1, 0, -0.0309600830078125, 1.00030517578125, 126.5,19.25) ">
<g transform="matrix( 1, 0, 0, 1, 0,0) ">
<use xlink:href="#blanket_ghost_arm_0_Layer0_0_FILL"/>
</g>
</g>

<g transform="matrix( 1.000396728515625, 0.0353240966796875, 0, 1, 85.2,17.55) ">
<g transform="matrix( 1, 0, 0, 1, 0,0) ">
<use xlink:href="#blanket_ghost_face_0_Layer0_0_FILL"/>
</g>
</g>

<g transform="matrix( 0.9995269775390625, -0.02642822265625, 0.02642822265625, 0.9995269775390625, 177.7,63.55) ">
<g transform="matrix( 0.74951171875, 0, 0, 0.74951171875, -26.55,-13.9) ">
<g transform="matrix( 1, 0, 0, 1, 0,0) ">
<use filter="url(#Filter_1)" xlink:href="#lantern_glow_2_Layer0_0_FILL"/>
</g>
</g>

<g transform="matrix( 1, 0, 0, 1, 0,0) ">
<use xlink:href="#lantern_Hand_copy_2_2_Layer1_0_FILL"/>
</g>

<g transform="matrix( 1, 0, 0, 1, 0,0) ">
<use xlink:href="#lantern_Hand_copy_2_2_Layer0_0_FILL"/>
</g>
</g>

<g transform="matrix( 0.999786376953125, -0.0175018310546875, 0.0175018310546875, 0.999786376953125, 88.95,70.35) ">
<g transform="matrix( 1, 0, 0, 1, 0,0) ">
<use xlink:href="#blanket_ghost_other_arm_0_Layer0_0_FILL"/>
</g>
</g>

<g transform="matrix( 0.9998626708984375, -0.013397216796875, 0.013397216796875, 0.9998626708984375, 69.2,49.2) ">
<g transform="matrix( 1, 0, 0, 1, 0,0) ">
<use xlink:href="#blanket_ghost_teddy_0_Layer0_0_FILL"/>
</g>
</g>
</g>
</g>
</svg>
