
<svg xmlns="http://www.w3.org/2000/svg" version="1.1" xmlns:xlink="http://www.w3.org/1999/xlink" preserveAspectRatio="none" x="0px" y="0px" width="1000px" height="1000px" viewBox="0 0 1000 1000">
<defs>
<g id="chink_0_Layer1_0_FILL">
<path fill="#FFFFFF" stroke="none" d="
M 18.9 62.45
L 7.35 53.8 16.35 72.85 0 86.85 16.95 85.9 28.05 139.3 34.15 86.05 44.2 93.1 37.95 81.25 59.9 55.9 34.1 66.6 25.45 0 18.9 62.45 Z"/>
</g>

<g id="chink_0_Layer0_0_FILL">
<path fill="#FFFFFF" stroke="none" d="
M 48.8 126.9
Q 58.3 120.45 63.7 111.3 60.15 114.9 55.8 117.9 38.25 129.85 17.4 125.9 -3.4 121.95 -15.35 104.45 -27.35 86.95 -23.4 66.1 -22.5 61.45 -20.95 57.25 -26.6 65.6 -28.6 76.25 -32.5 96.7 -20.8 113.85 -9.1 130.95 11.3 134.75 31.7 138.6 48.8 126.9
M 78.15 46.25
Q 69.05 27.6 49.45 20.8 29.8 14.05 11.15 23.05 0.85 28.1 -5.8 36.35 -1.8 33.35 2.95 31.05 22 21.75 42.05 28.65 62.05 35.65 71.4 54.7 80.65 73.75 73.7 93.8 72.15 98.25 70 102.2 76.85 94.85 80.4 84.55 87.2 64.9 78.15 46.25 Z"/>
</g>
</defs>

<g transform="matrix( 0.835113525390625, 0.3072052001953125, -0.3072052001953125, 0.835113525390625, 504,430) ">
<g transform="matrix( 1, 0, 0, 1, 0,0) ">
<use xlink:href="#chink_0_Layer1_0_FILL"/>
</g>

<g transform="matrix( 1, 0, 0, 1, 0,0) ">
<use xlink:href="#chink_0_Layer0_0_FILL"/>
</g>
</g>
</svg>
