
<svg xmlns="http://www.w3.org/2000/svg" version="1.1" xmlns:xlink="http://www.w3.org/1999/xlink" preserveAspectRatio="none" x="0px" y="0px" width="1000px" height="1000px" viewBox="0 0 1000 1000">
<defs>
<linearGradient id="Gradient_1" gradientUnits="userSpaceOnUse" x1="25.924999999999997" y1="72.0625" x2="74.375" y2="98.4375" spreadMethod="pad">
<stop  offset="0%" stop-color="#FFFFFF"/>

<stop  offset="100%" stop-color="#9C9C9C"/>
</linearGradient>

<linearGradient id="Gradient_2" gradientUnits="userSpaceOnUse" x1="56.68749999999999" y1="18.8625" x2="82.01249999999999" y2="50.837500000000006" spreadMethod="pad">
<stop  offset="0%" stop-color="#FFFFFF"/>

<stop  offset="100%" stop-color="#9C9C9C"/>
</linearGradient>

<linearGradient id="Gradient_3" gradientUnits="userSpaceOnUse" x1="67.15" y1="22.3" x2="52.85" y2="22.3" spreadMethod="pad">
<stop  offset="0%" stop-color="#FFFFFF"/>

<stop  offset="100%" stop-color="#9C9C9C"/>
</linearGradient>

<linearGradient id="Gradient_4" gradientUnits="userSpaceOnUse" x1="66.05" y1="47.25" x2="51.75" y2="47.25" spreadMethod="pad">
<stop  offset="0%" stop-color="#FFFFFF"/>

<stop  offset="100%" stop-color="#9C9C9C"/>
</linearGradient>

<g id="executioner_legs_2_Layer0_0_FILL">
<path fill="#000000" stroke="none" d="
M 84.7 14.25
Q 90.05 3.75 89.6 2.7 89 1.35 -0.05 3.15 -1.05 3.55 -0.2 10.05 0.65 16.55 2.1 19.55 3.05 21.4 7.95 25.15 13 29 15.2 29.4 16.4 29.55 22.35 28.55 28.25 27.5 28.7 27.05 30.1 25.5 28.3 22.05 43.7 20.7 59.1 21.6 58.55 22.35 59.25 23.35 59.95 24.25 61.05 24.65 63.3 25.55 70.55 25.65 77.25 25.7 78.1 25.3 79.35 24.75 84.7 14.25
M 63.25 21.8
Q 64.15 21.7 62.85 19.75 61.5 17.8 60.6 17.7 53.05 16.95 38.45 17.35 24.95 17.7 24.45 18.2 23.95 18.6 24.2 21.05 24.3 22.3 24.5 24.15
L 21.9 24.45
Q 21.7 24.5 20.3 24.4 18.75 24.3 18.2 24.1 17.6 23.9 15.2 22.4 12.8 21 11.85 20.25 10.9 19.55 9.4 18.15 7.65 16.55 7.5 16.05 7.4 15.85 7.15 12.25 6.9 8.5 6.6 7.4 11.8 7.45 37.4 5.45 37.45234375 5.44609375 37.5 5.45 37.7490234375 5.4234375 38 5.4 37.9771484375 5.415625 37.95 5.4 82.45 6.15 82.5 6.3 82.65 6.55 78.45 14.5 74.2 22.45 73.7 22.65
L 73.65 22.65
Q 65.9 23.1 63.25 21.8 Z"/>

<path fill="#3333CC" stroke="none" d="
M 37.5 5.45
Q 37.45234375 5.44609375 37.4 5.45 11.8 7.45 6.6 7.4 6.9 8.5 7.15 12.25 7.4 15.85 7.5 16.05 7.65 16.55 9.4 18.15 10.9 19.55 11.85 20.25 12.8 21 15.2 22.4 17.6 23.9 18.2 24.1 18.75 24.3 20.3 24.4 21.7 24.5 21.9 24.45
L 16.25 16.85
Q 16.1 16.65 24.95 12.35 35 7.45 37.95 5.4 37.9771484375 5.415625 38 5.4 37.7490234375 5.4234375 37.5 5.45 Z"/>

<path fill="#0099FF" stroke="none" d="
M 62.85 19.75
Q 64.15 21.7 63.25 21.8 65.9 23.1 73.65 22.65
L 73.7 22.65
Q 74.2 22.45 78.45 14.5 82.65 6.55 82.5 6.3 82.45 6.15 37.95 5.4 35 7.45 24.95 12.35 16.1 16.65 16.25 16.85
L 21.9 24.45 24.5 24.15
Q 24.3 22.3 24.2 21.05 23.95 18.6 24.45 18.2 24.95 17.7 38.45 17.35 53.05 16.95 60.6 17.7 61.5 17.8 62.85 19.75 Z"/>
</g>

<g id="executioner_arm_0_Layer0_0_FILL">
<path fill="#000000" stroke="none" d="
M 86.05 98
Q 90.6 76.15 100.7 56.05 112 33.75 97.6 14 82 -7.3 57.3 0.7 35.45 7.85 21.1 25.95 7.2 43.45 1 65.05 -5.1 86.25 -3.95 108.3 -2.7 132.6 14.65 149.5 34.55 168.8 57.5 153.95 78.1 140.75 81.65 116.5 84.1 107.4 86.05 98
M 91.55 23.35
Q 100.5 34.45 93.55 46.25 79.55 69.8 56.8 54.85 37.65 42.15 39.75 19.35 41.05 18.3 42.4 17.3 52.4 9.55 64.15 5.15 64.45 5.15 64.75 5.15 82.2 8.45 91.55 23.35
M 82.4 64.45
L 86.95 63.25 85.7 66.35
Q 75 69.65 64.2 66 37.5 56.9 35.6 28.75 37.8 37.85 43.1 45.55 57.45 66.2 82.4 64.45
M 32.45 27.05
Q 32.45 29.8 34.8 38.9 37.7 50.4 41.1 54.7 41.7 55.35 42.3 56.05 54.25 69.5 72.2 71
L 80.7 69.85 84.7 69.2
Q 82.05 92.55 59.85 100.05 36.75 108.05 13.55 100.15 12.1 98.9 9 94.2 5.85 89.4 5.3 87.6 6.45 81.8 7.8 76.05 14.4 48.7 32.45 27.05
M 66.3 110.3
Q 67.3 109.65 68.35 109 73.3 105.9 76.4 101
L 80.75 94.5
Q 80.6 98.8 76.85 113.6 71.9 133.25 66.1 141.35 50.9 162.55 26.55 154.15 5.85 134.25 4.95 105.7 5.15 105.9 16.85 112.8 29.95 119.5 37.85 118.6 38.75 118.5 39.65 118.4 53.55 116.4 66.3 110.3
M 47.1 114.05
Q 22 120.5 4.75 101.3
L 4.9 92.35
Q 14.95 109.05 34.65 109.05 59.3 109 76.9 92.1
L 81.1 88.3
Q 69.4 108.25 47.1 114.05 Z"/>

<path fill="#666666" stroke="none" d="
M 4.75 101.3
Q 22 120.5 47.1 114.05 69.4 108.25 81.1 88.3
L 76.9 92.1
Q 59.3 109 34.65 109.05 14.95 109.05 4.9 92.35
L 4.75 101.3
M 86.95 63.25
L 82.4 64.45
Q 57.45 66.2 43.1 45.55 37.8 37.85 35.6 28.75 37.5 56.9 64.2 66 75 69.65 85.7 66.35
L 86.95 63.25 Z"/>

<path fill="#3333CC" stroke="none" d="
M 14 117.55
Q 15.45 118.4 23.2 119.4 33.05 120.7 37.85 118.6 29.95 119.5 16.85 112.8 5.15 105.9 4.95 105.7 5.85 134.25 26.55 154.15 17.8 136.8 14 117.55 Z"/>

<path fill="#FFFFFF" stroke="none" d="
M 66.3 110.3
Q 66.25 112 63.4 123.35 60.9 134.75 62.25 138.6 66.25 132.65 69.9 125.1 77.2 110 76.4 101 73.3 105.9 68.35 109 67.3 109.65 66.3 110.3
M 72.2 71
Q 72.1 71.35 68.85 79.45 65.8 88.3 66.25 92.75 68 91.4 73.05 84.5 79.75 75.45 80.7 69.85
L 72.2 71
M 84.6 54.3
Q 84.8 54.15 85 53.95 100.85 41.4 91.55 23.35 82.2 8.45 64.75 5.15 64.45 5.15 64.15 5.15 77.1 12.8 82.15 34.3 84.65 45.05 84.6 54.3 Z"/>

<path fill="#0099FF" stroke="none" d="
M 63.4 123.35
Q 66.25 112 66.3 110.3 53.55 116.4 39.65 118.4 38.75 118.5 37.85 118.6 33.05 120.7 23.2 119.4 15.45 118.4 14 117.55 17.8 136.8 26.55 154.15 50.9 162.55 66.1 141.35 71.9 133.25 76.85 113.6 80.6 98.8 80.75 94.5
L 76.4 101
Q 77.2 110 69.9 125.1 66.25 132.65 62.25 138.6 60.9 134.75 63.4 123.35 Z"/>

<path fill="url(#Gradient_1)" stroke="none" d="
M 68.85 79.45
Q 72.1 71.35 72.2 71 54.25 69.5 42.3 56.05 41.7 55.35 41.1 54.7 38.8 53.75 34.7 49.85 31.5 46.8 30.55 45.55 14.85 70.55 13.55 100.15 36.75 108.05 59.85 100.05 82.05 92.55 84.7 69.2
L 80.7 69.85
Q 79.75 75.45 73.05 84.5 68 91.4 66.25 92.75 65.8 88.3 68.85 79.45 Z"/>

<path fill="#999999" stroke="none" d="
M 34.8 38.9
Q 32.45 29.8 32.45 27.05 14.4 48.7 7.8 76.05 6.45 81.8 5.3 87.6 5.85 89.4 9 94.2 12.1 98.9 13.55 100.15 14.85 70.55 30.55 45.55 31.5 46.8 34.7 49.85 38.8 53.75 41.1 54.7 37.7 50.4 34.8 38.9 Z"/>

<path fill="url(#Gradient_2)" stroke="none" d="
M 93.55 46.25
Q 100.5 34.45 91.55 23.35 100.85 41.4 85 53.95 84.8 54.15 84.6 54.3 84.65 45.05 82.15 34.3 77.1 12.8 64.15 5.15 52.4 9.55 42.4 17.3 41.05 18.3 39.75 19.35 37.65 42.15 56.8 54.85 79.55 69.8 93.55 46.25 Z"/>
</g>

<g id="executioner_body_0_Layer0_0_FILL">
<path fill="#000000" stroke="none" d="
M 108.45 -1.2
Q 94.35 -2.9 80.15 -2.15 66.55 -1.4 53.3 2.05 39.15 5.55 26.25 12.5 14.25 18.8 5.85 29.4 -3.45 41.2 -5.65 56.05 -7.6 69.35 -3.65 82.2 0.25 94.95 9 104.9 17.85 115.05 30.4 120.5 42.15 125.65 54.25 129.4 67.3 133.45 80.8 135.65 94.5 137.6 108.25 136.4 122.45 135.95 134.45 128.25 143.05 124.95 151.65 121.6 158.3 118.95 164.1 114.9 176.45 106.35 180.55 91.75 184.25 78.7 182.95 65 181.8 52.5 176.85 40.95 171.3 28.1 160.65 18.95 149.1 9 134.6 4.55 121.8 0.7 108.45 -1.2
M 174 58.25
Q 176.6 73.3 171.8 87.7 166.45 98.4 158.05 107 155.05 110 135 119.35 115 128.6 109.15 129.75 102.65 130.9 81.65 128.45 62.2 126.15 54.9 124.05 38.35 119.25 25.35 108.55 14.7 99.9 9.55 87.3 5.35 77.1 5.65 66.05 6 51 13.95 38.3 21.25 26.75 33.4 20.3 39.1 17.25 52.5 12 59.15 9.4 64.7 7.35
L 98.95 6.55 119.75 10
Q 128.4 11.85 136.75 14.2 150.9 18.25 161.4 28.6 163.35 31.75 167.5 40.65 173 52.55 174 58.25
M 123.15 98.9
Q 124.1 89 122.8 79.2
L 118.3 98.75
Q 81.9 103.65 81.85 103.6
L 65.95 111.2
Q 103.3 101.6 141.75 105.95 141.45 104.9 140.9 103.75 139.85 101.45 138.55 101.15
L 123.15 98.9 Z"/>

<path fill="#CC6600" stroke="none" d="
M 171.8 87.7
Q 168.85 91.25 164.95 93.8 152.85 101.65 138.55 101.15 139.85 101.45 140.9 103.75 141.45 104.9 141.75 105.95 103.3 101.6 65.95 111.2
L 81.85 103.6
Q 76.7271484375 105.69609375 71.2 105.65 55.3 105.5 45.8 92.7 37.6 81.6 39.1 68 41.45 46.15 55.8 29.35 54.7 32.75 54.3 36.2 53.25 45.4 61.85 64.7 68.1 78.8 72.2 84.6 80.6 96.45 93.85 95 100.2 94.25 102.45 88.35 104.3 89.6 106.45 89.15 111.8 87.75 121.6 73.45 131.75 58.65 131.15 51.45 130.3 41.4 124.15 33.35 129.3 31.2 134.5 29.1 147.9 23.85 161.4 28.6 150.9 18.25 136.75 14.2 128.4 11.85 119.75 10
L 98.95 6.55 64.7 7.35
Q 59.15 9.4 52.5 12 39.1 17.25 33.4 20.3 21.25 26.75 13.95 38.3 6 51 5.65 66.05 5.35 77.1 9.55 87.3 14.7 99.9 25.35 108.55 38.35 119.25 54.9 124.05 62.2 126.15 81.65 128.45 102.65 130.9 109.15 129.75 115 128.6 135 119.35 155.05 110 158.05 107 166.45 98.4 171.8 87.7 Z"/>

<path fill="#FFCC99" stroke="none" d="
M 171.8 87.7
Q 176.6 73.3 174 58.25 173 52.55 167.5 40.65 163.35 31.75 161.4 28.6 147.9 23.85 134.5 29.1 129.3 31.2 124.15 33.35 130.3 41.4 131.15 51.45 131.75 58.65 121.6 73.45 111.8 87.75 106.45 89.15 104.3 89.6 102.45 88.35 100.2 94.25 93.85 95 80.6 96.45 72.2 84.6 68.1 78.8 61.85 64.7 53.25 45.4 54.3 36.2 54.7 32.75 55.8 29.35 41.45 46.15 39.1 68 37.6 81.6 45.8 92.7 55.3 105.5 71.2 105.65 76.7271484375 105.69609375 81.85 103.6 81.9 103.65 118.3 98.75
L 122.8 79.2
Q 124.1 89 123.15 98.9
L 138.55 101.15
Q 152.85 101.65 164.95 93.8 168.85 91.25 171.8 87.7 Z"/>
</g>

<g id="executioner_belt_0_Layer0_0_FILL">
<path fill="#000000" stroke="none" d="
M 91.75 35.65
Q 91.8 35.6 93.65 33.3 95.45 30.7 95.1 29.15 89.1 3.1 60 0.35 57.25 0.2 55.35 1.9 31 23.85 -1.15 18.95 -1.5 19.9 -1.2 20.75 9.95 48.35 40.5 44.55 39.15 50.85 43.95 53.8 71.4 70.3 82.55 41.3 85 40.25 86.75 39.3 90.65 37.25 91.75 35.65
M 88.75 20.25
L 88.55 23.6 83.85 25.7
Q 82.55 9.15 65.7 10.35 44.9 10.8 42.9 31.6
L 28.9 30.8
Q 18.65 29.85 8.6 26.75
L 6.15 20.65
Q 9.9 21 13.65 21.4 35.9 24.1 51.6 8.35
L 54.5 5.25
Q 59.35 5.1 64.15 5.45 79.05 7.4 88.75 20.25
M 88.7 28.7
Q 86.6 36.1 83 36.55
L 82.3 36.85 83.15 31.25 88.7 28.7
M 42.3 36.15
L 42 41 38 40.4
Q 25 40.4 13.05 35 9.35 33.35 9.15 29.05 10.6 29.6 12.1 30.2 26.7 36 42.3 36.15
M 44.35 41.35
L 44.35 35.65
Q 50.2 36.05 60.1 35.25 73.8 34.15 81.7 31.7
L 80.75 38.5
Q 62.65 43.25 44.35 41.35
M 45.25 49.3
L 45.5 44.8
Q 61.85 47.45 78.1 43.2
L 78.2 46.4
Q 76.35 47.1 74.55 47.8 61.45 52.85 47.7 50.5
L 45.25 49.3
M 80.35 26.35
L 80.25 27.15
Q 63.7 31.3 46.6 31.35 47.75 26.05 51.15 22.25 69.25 2.25 80.35 26.35 Z"/>

<path fill="url(#Gradient_3)" stroke="none" d="
M 80.25 27.15
L 80.35 26.35
Q 69.25 2.25 51.15 22.25 47.75 26.05 46.6 31.35 63.7 31.3 80.25 27.15 Z"/>

<path fill="url(#Gradient_4)" stroke="none" d="
M 45.5 44.8
L 45.25 49.3 47.7 50.5
Q 61.45 52.85 74.55 47.8 76.35 47.1 78.2 46.4
L 78.1 43.2
Q 61.85 47.45 45.5 44.8 Z"/>

<path fill="#666666" stroke="none" d="
M 44.35 35.65
L 44.35 41.35
Q 62.65 43.25 80.75 38.5
L 81.7 31.7
Q 73.8 34.15 60.1 35.25 50.2 36.05 44.35 35.65
M 42 41
L 42.3 36.15
Q 26.7 36 12.1 30.2 10.6 29.6 9.15 29.05 9.35 33.35 13.05 35 25 40.4 38 40.4
L 42 41
M 83 36.55
Q 86.6 36.1 88.7 28.7
L 83.15 31.25 82.3 36.85 83 36.55 Z"/>

<path fill="#3333CC" stroke="none" d="
M 49.3 12.8
Q 50.65 10.6 51.6 8.35 35.9 24.1 13.65 21.4 9.9 21 6.15 20.65
L 8.6 26.75
Q 18.65 29.85 28.9 30.8
L 28.2 24.8
Q 42 24.5 49.3 12.8 Z"/>

<path fill="#0099FF" stroke="none" d="
M 88.55 23.6
L 88.75 20.25
Q 79.05 7.4 64.15 5.45 59.35 5.1 54.5 5.25
L 51.6 8.35
Q 50.65 10.6 49.3 12.8 42 24.5 28.2 24.8
L 28.9 30.8 42.9 31.6
Q 44.9 10.8 65.7 10.35 82.55 9.15 83.85 25.7
L 88.55 23.6 Z"/>
</g>

<g id="executioner_head_1_Layer0_0_FILL">
<path fill="#000000" stroke="none" d="
M 36.8 -2.2
Q 22.55 -2.15 21.35 -1.45 20.35 -0.8 15.5 6.35 11 13 8.45 17.45 7.35 19.35 4.25 29.35 1.05 39.7 0.6 43.2 -0.1 48.65 2.05 59.05 4.05 68.65 5.05 69.1 7.1 69.9 8.65 68.5 8.45 74.1 11.35 85.95 14.15 97.35 15.75 99.1 17.05 100.5 19.05 101.15 19.55 100.9 21.15 99.7 22.6 98.55 22.8 98.3 23.15 100.15 25 104.4 26.85 108.6 27.75 109.6 29.7 111.9 32.65 112.8 33.75 113.05 37.3 111.45 40.55 109.9 41 109.3 44.15 105.35 46.5 101 46.8 102.15 48.25 106.2 49.75 110.4 50 110.6 54.2 110.05 58.4 108.9 62.45 103.75 64.7 97.6 66 93.95 65.8 90.2 67.4 91.85 70.55 94.35 74.3 97.35 75.6 97.6 77.45 95.65 78.3 87.4 79.1 79.3 78 76.45
L 82.4 79.2
Q 83.15 77.5 83.6 68.6 84.1 60.1 83.75 57.35 83 50.85 77.9 31.55 72.45 10.95 69.3 4.15 69.05 3.7 64.75 1.6 60 -0.75 57.3 -1.25 51.6 -2.25 36.8 -2.2
M 48.3 4.85
Q 51.1 5.35 56.3 7.55 62.5 10.15 63.65 12.15 64.85 14.3 72.55 34.75 76.4 45 80 54.8
L 80.85 72.85 73.15 67.35 74.3 79.6
Q 74.55 82.7 74.45 85.75 74.4 86.7 74.05 89.1 73.75 91.2 73.6 91.85
L 65.6 86.55 60.25 94.25 60 95 58.35 104.15 50.95 105.95
Q 51.25 104.3 49.95 99.9 48.6 95.45 47.45 94.35
L 34.75 109.8
Q 29.55 107.05 28.35 101.1 27.15 95.35 24.1 90.3
L 21.85 89.9
Q 19 95.8 18.9 96.05 17.5 93.6 16.3 91.1 15.7 89.75 9.85 61.65
L 6.7 62.7
Q 6.4 59.65 6.25 56.6 6.15 54.55 6.7 47.7 7.25 40.7 7.7 38.15 7.95 36.85 14.45 21.3 20.6 6.8 21.5 4.9
L 48.3 4.85
M 20 40.85
L 18.55 46.05 15.6 60.45
Q 15.05 61.85 16.9 64.45 17.5 62.8 18.6 59.35 20.1 54.65 20.45 52.7 20.9 50.1 20.5 45.2
L 20 40.85
M 16 41.3
L 16 40.9 16.95 36.65 10.2 49.2 12.35 48.35
Q 15.75 43.7 16 41.3
M 42.4 32.25
Q 46.637890625 30.1365234375 49.95 32 53.25390625 33.904296875 55.2 34.4 52.75 31.7 50.35 29.15 50.45 29.1 50.55 29 55.15 25.4 58.15 20.8 55.55 22.2 51.25 25.35 47 28.45 46.4 27.7 40.25 21.2 30.65 16.45 30.6 16.9 35.5 21.3 40.7 25.95 43.75 28.4 36.1 31.2 29.55 35.4 38.166015625 34.4177734375 42.4 32.25 Z"/>

<path fill="#3333CC" stroke="none" d="
M 80 54.8
L 78.15 66.6
Q 72.25 64.95 71.35 65.1
L 73.5 87.5
Q 72 86.8 67.9 85.9 64.35 85.1 63.3 85.05 62.9 85.9 61.8 89.1 60.55 92.75 60.25 94.25
L 65.6 86.55 73.6 91.85
Q 73.75 91.2 74.05 89.1 74.4 86.7 74.45 85.75 74.55 82.7 74.3 79.6
L 73.15 67.35 80.85 72.85 80 54.8
M 31.05 95.25
Q 27.2 84.7 27.1 84.75 24.95 87.15 24.1 90.3 27.15 95.35 28.35 101.1 29.55 107.05 34.75 109.8
L 47.45 94.35
Q 48.6 95.45 49.95 99.9 51.25 104.3 50.95 105.95
L 58.35 104.15 60 95
Q 59.3 96.1 57.1 98.05 54.5 100.4 53.4 100.35
L 51.3 91
Q 50.2 91.4 46.1 93.85 42.05 96.2 41.7 96.55 37.4 100.6 34.85 105.8 32.95 100.5 31.05 95.25
M 32.85 13.65
L 39.9 19.25
Q 39.05 18.1 38.2 16.95 36.2 14.2 32.85 13.65
M 69.9 47.15
L 69.05 46.85
Q 75.85 58.45 76.1 58.4
L 69.9 47.15
M 68.55 35.1
Q 69.1 36.6 71 40.7 73 45 73.25 44.95
L 66 23.1
Q 65.75 23.15 66.7 27.7 67.65 32.5 68.55 35.1
M 45.25 6.05
Q 46.8 5.5 48.3 4.85
L 21.5 4.9
Q 20.6 6.8 14.45 21.3 7.95 36.85 7.7 38.15 7.25 40.7 6.7 47.7 6.15 54.55 6.25 56.6 6.4 59.65 6.7 62.7
L 9.85 61.65
Q 15.7 89.75 16.3 91.1 17.5 93.6 18.9 96.05 19 95.8 21.85 89.9 21.05 87.5 20.25 85.15 18.35 79.45 17.75 73.6 17.3 69 16.9 64.45 15.05 61.85 15.6 60.45 12 58.4 8.4 60.25 7.65 60.55 6.95 61
L 12.35 48.35 10.2 49.2 16.95 36.65 16 40.9 16 41.3
Q 15.95 42.85 16 45 16.05 48 16.4 48.95
L 18.55 46.05 20 40.85 23.9 7.3
Q 25.85 7.55 27.8 7.8 33.5 8.6 39.1 7.6 42.25 7.15 45.25 6.05 Z"/>

<path fill="#0099FF" stroke="none" d="
M 18.55 46.05
L 16.4 48.95
Q 16.05 48 16 45 15.95 42.85 16 41.3 15.75 43.7 12.35 48.35
L 6.95 61
Q 7.65 60.55 8.4 60.25 12 58.4 15.6 60.45
L 18.55 46.05
M 48.3 4.85
Q 46.8 5.5 45.25 6.05 42.25 7.15 39.1 7.6 33.5 8.6 27.8 7.8 25.85 7.55 23.9 7.3
L 20 40.85 20.5 45.2
Q 20.9 50.1 20.45 52.7 20.1 54.65 18.6 59.35 17.5 62.8 16.9 64.45 17.3 69 17.75 73.6 18.35 79.45 20.25 85.15 21.05 87.5 21.85 89.9
L 24.1 90.3
Q 24.95 87.15 27.1 84.75 27.2 84.7 31.05 95.25 32.95 100.5 34.85 105.8 37.4 100.6 41.7 96.55 42.05 96.2 46.1 93.85 50.2 91.4 51.3 91
L 53.4 100.35
Q 54.5 100.4 57.1 98.05 59.3 96.1 60 95
L 60.25 94.25
Q 60.55 92.75 61.8 89.1 62.9 85.9 63.3 85.05 64.35 85.1 67.9 85.9 72 86.8 73.5 87.5
L 71.35 65.1
Q 72.25 64.95 78.15 66.6
L 80 54.8
Q 76.4 45 72.55 34.75 64.85 14.3 63.65 12.15 62.5 10.15 56.3 7.55 51.1 5.35 48.3 4.85
M 49.95 32
Q 46.637890625 30.1365234375 42.4 32.25 38.166015625 34.4177734375 29.55 35.4 36.1 31.2 43.75 28.4 40.7 25.95 35.5 21.3 30.6 16.9 30.65 16.45 40.25 21.2 46.4 27.7 47 28.45 51.25 25.35 55.55 22.2 58.15 20.8 55.15 25.4 50.55 29 50.45 29.1 50.35 29.15 52.75 31.7 55.2 34.4 53.25390625 33.904296875 49.95 32
M 71 40.7
Q 69.1 36.6 68.55 35.1 67.65 32.5 66.7 27.7 65.75 23.15 66 23.1
L 73.25 44.95
Q 73 45 71 40.7
M 69.05 46.85
L 69.9 47.15 76.1 58.4
Q 75.85 58.45 69.05 46.85
M 39.9 19.25
L 32.85 13.65
Q 36.2 14.2 38.2 16.95 39.05 18.1 39.9 19.25 Z"/>
</g>
</defs>

<g id="Layer_2">
<g transform="matrix( 0.842193603515625, 0, 0, 0.842193603515625, 342.9,245.5) ">
<g id="Layer_4">
<g transform="matrix( 1, 0, 0, 1, -30.7,-73.7) ">
<g id="executioner_axe"/>

<g id="executioner_legs">
<g transform="matrix( 0.3664093017578125, -0.6284942626953125, 0.87078857421875, 0.2644500732421875, 222.5,394.9) ">
<g id="Layer_1">
<g transform="matrix( 1, 0, 0, 1, 0,0) ">
<use xlink:href="#executioner_legs_2_Layer0_0_FILL"/>
</g>
</g>
</g>
</g>

<g id="executioner_arm">
<g transform="matrix( -0.027313232421875, 0.610260009765625, 0.845550537109375, 0.01971435546875, 81.75,305.2) ">
<g transform="matrix( 1, 0, 0, 1, 0,0) ">
<use xlink:href="#executioner_arm_0_Layer0_0_FILL"/>
</g>
</g>
</g>

<g id="executioner_body">
<g transform="matrix( 0.0424652099609375, -0.54400634765625, 1.075408935546875, 0.0437469482421875, 97.3,395.95) ">
<g transform="matrix( 1, 0, 0, 1, 0,0) ">
<use xlink:href="#executioner_body_0_Layer0_0_FILL"/>
</g>
</g>
</g>

<g id="executioner_belt">
<g transform="matrix( 0.202239990234375, -0.66607666015625, 0.9228668212890625, 0.1459503173828125, 199.75,389.45) ">
<g transform="matrix( 1, 0, 0, 1, 0,0) ">
<use xlink:href="#executioner_belt_0_Layer0_0_FILL"/>
</g>
</g>
</g>

<g id="executioner_head">
<g transform="matrix( -0.6659088134765625, -0.483673095703125, 0.6701507568359375, -0.4806060791015625, 105.6,402.45) ">
<g transform="matrix( 1, 0, 0, 1, 0,0) ">
<use xlink:href="#executioner_head_1_Layer0_0_FILL"/>
</g>
</g>
</g>

<g transform="matrix( -0.4374237060546875, -0.6043701171875, 0.8373870849609375, -0.315704345703125, 44.9,448.75) ">
<g transform="matrix( 1, 0, 0, 1, 0,0) ">
<use xlink:href="#executioner_arm_0_Layer0_0_FILL"/>
</g>
</g>
</g>
</g>
</g>
</g>
</svg>
