
<svg xmlns="http://www.w3.org/2000/svg" version="1.1" xmlns:xlink="http://www.w3.org/1999/xlink" preserveAspectRatio="none" x="0px" y="0px" width="1000px" height="1000px" viewBox="0 0 1000 1000">
<defs>
<linearGradient id="Gradient_1" gradientUnits="userSpaceOnUse" x1="25.287499999999998" y1="61.12499999999999" x2="81.5125" y2="86.07499999999999" spreadMethod="pad">
<stop  offset="0%" stop-color="#FFFFFF"/>

<stop  offset="100%" stop-color="#9C9C9C"/>
</linearGradient>

<linearGradient id="Gradient_2" gradientUnits="userSpaceOnUse" x1="53.3125" y1="10.725000000000001" x2="84.6875" y2="40.975" spreadMethod="pad">
<stop  offset="0%" stop-color="#FFFFFF"/>

<stop  offset="100%" stop-color="#9C9C9C"/>
</linearGradient>

<linearGradient id="Gradient_3" gradientUnits="userSpaceOnUse" x1="67.15" y1="22.3" x2="52.85" y2="22.3" spreadMethod="pad">
<stop  offset="0%" stop-color="#FFFFFF"/>

<stop  offset="100%" stop-color="#9C9C9C"/>
</linearGradient>

<linearGradient id="Gradient_4" gradientUnits="userSpaceOnUse" x1="66.05" y1="47.25" x2="51.75" y2="47.25" spreadMethod="pad">
<stop  offset="0%" stop-color="#FFFFFF"/>

<stop  offset="100%" stop-color="#9C9C9C"/>
</linearGradient>

<linearGradient id="Gradient_5" gradientUnits="userSpaceOnUse" x1="124.9125" y1="45.775" x2="39.787499999999994" y2="45.025" spreadMethod="pad">
<stop  offset="0%" stop-color="#FFFFFF"/>

<stop  offset="100%" stop-color="#9C9C9C"/>
</linearGradient>

<linearGradient id="Gradient_6" gradientUnits="userSpaceOnUse" x1="182.0125" y1="8.149999999999991" x2="156.3875" y2="118.95" spreadMethod="pad">
<stop  offset="0%" stop-color="#FFFFFF"/>

<stop  offset="100%" stop-color="#9C9C9C"/>
</linearGradient>

<linearGradient id="Gradient_7" gradientUnits="userSpaceOnUse" x1="190.8625" y1="54.725" x2="137.2375" y2="54.275" spreadMethod="pad">
<stop  offset="0%" stop-color="#FFFFFF"/>

<stop  offset="100%" stop-color="#9C9C9C"/>
</linearGradient>

<linearGradient id="Gradient_8" gradientUnits="userSpaceOnUse" x1="158.26250000000002" y1="8.375" x2="159.0375" y2="17.725" spreadMethod="pad">
<stop  offset="0%" stop-color="#FFFFFF"/>

<stop  offset="100%" stop-color="#9C9C9C"/>
</linearGradient>

<g id="executioner_legs_0_Layer0_0_FILL">
<path fill="#000000" stroke="none" d="
M 82.4 24.85
Q 82.9 24.9 84.3 24.75 85.65 24.6 86 24.5 86.9 24.95 89.15 22.7 91.3 20.5 91.55 19 91.75 17.9 91.2 10.75 90.65 3.2 90 2.25 89.05 0.8 43.95 2.8 -0.95 4.8 -1.4 5.6 -2.2 7.2 -0.55 15.25 1 22.9 1.55 23.35 6.6 27 13.15 26.8 17.75 26.55 18.35 22.3 20.35 21.75 46.35 20.3 71.55 18.9 73.1 19 74.1 18.85 77.7 21.85 81.4 24.9 82.4 24.85
M 82.5 4.35
Q 84.95 14.25 84.75 19 84.75 19.25 82.55 19.85 80.35 20.45 80.3 20.2 80.15 19.4 77.95 17.5 75.5 15.35 73.8 15.4 70.15 15.15 46.9 16.25 24.25 17.3 19.8 17.85 14.75 18.35 14.25 23.2
L 10.45 23.1
Q 9.45 22.95 7.7 22.3 5.8 21.55 5.7 21.05 4.5 14.85 4.45 8.65
L 39.05 6
Q 43.65 5.65 62.65 4.9 82.1 4.1 82.5 4.35 Z"/>

<path fill="#3333CC" stroke="none" d="
M 30.25 11.6
Q 36.85 7.95 39.05 6
L 4.45 8.65
Q 4.5 14.85 5.7 21.05 5.8 21.55 7.7 22.3 9.45 22.95 10.45 23.1
L 11.15 16.1
Q 12.05 16.25 15.7 16.2 19.85 16.15 21.55 15.75 23.7 15.25 30.25 11.6 Z"/>

<path fill="#0099FF" stroke="none" d="
M 84.75 19
Q 84.95 14.25 82.5 4.35 82.1 4.1 62.65 4.9 43.65 5.65 39.05 6 36.85 7.95 30.25 11.6 23.7 15.25 21.55 15.75 19.85 16.15 15.7 16.2 12.05 16.25 11.15 16.1
L 10.45 23.1 14.25 23.2
Q 14.75 18.35 19.8 17.85 24.25 17.3 46.9 16.25 70.15 15.15 73.8 15.4 75.5 15.35 77.95 17.5 80.15 19.4 80.3 20.2 80.35 20.45 82.55 19.85 84.75 19.25 84.75 19 Z"/>
</g>

<g id="executioner_arm_2_Layer0_0_FILL">
<path fill="#000000" stroke="none" d="
M 82.3 -18.5
Q 59.7 -27.95 45.85 -20.35 25.9 -13.1 21.65 14.9 14.9 36.25 10.85 52.65 8.5 69.45 6.35 92.5 3.45 118.8 22 134.65 45 152.6 69.1 138.3 90.6 125.25 90.6 98.6 91.75 88.6 92.6 78.6 93.6 68.3 97.2 54.25 100.4 34.1 103 19.85 108.35 -10.65 82.3 -18.5
M 34.65 -2.5
Q 35.25 -4 36.3 -5.45 44.65 -14.75 53.15 -18.15 53.3 -18.2 53.7 -18.2 66.95 -19.3 81.6 -11.3 95 -5.55 92.85 8.9 87.25 41.05 62.65 26.05 38.85 14.65 34.65 -2.5
M 87.65 34.55
Q 89.4 33.3 91.4 32.15 91.05 34.5 90.8 37.05 81.85 43.25 71.75 39.25 42.75 27.25 33.95 7.65 38.2 13.65 45.6 18.9 67.55 38.4 87.65 34.55
M 86.8 43.15
Q 88.5 42.35 90.25 41.65 89.5 65.2 84.25 69 79.25 77 68.9 80.95 44.55 88.95 24.6 86.45 23.35 85.3 20.75 80.95 17.85 76.25 17.35 74.45 18.5 69.4 19.15 63.7 22.9 38.3 30.85 8.3 31.45 10.45 36.05 16.95 41.55 25.75 45.9 29.2 46.5 29.65 47.35 30.25 63.7 43.5 79.5 45.85 83.25 44.4 86.8 43.15
M 84.25 81.95
Q 85.9 78.35 87.65 75 87.75 79.25 85.7 95.45 82.9 116.8 77.45 125.45 62.55 146.95 35.1 138.9 12.05 120.45 15.9 91.8 16.05 92.45 26.75 98.6 38.5 103.4 46.6 101.6 47.5 101.3 48.35 101.15 63.15 98.1 75.45 92 76.35 91.2 77.25 90.55 81.85 87.2 84.25 81.95
M 84.15 72.55
Q 85.8 70.5 87.65 68.6 79.45 89.65 56 95.9 30.65 106.1 16.15 87.5 16.6 83.2 16.8 78.9 25.5 95.85 43.7 91.9 69.45 89.75 84.15 72.55 Z"/>

<path fill="#666666" stroke="none" d="
M 87.65 68.6
Q 85.8 70.5 84.15 72.55 69.45 89.75 43.7 91.9 25.5 95.85 16.8 78.9 16.6 83.2 16.15 87.5 30.65 106.1 56 95.9 79.45 89.65 87.65 68.6
M 91.4 32.15
Q 89.4 33.3 87.65 34.55 67.55 38.4 45.6 18.9 38.2 13.65 33.95 7.65 42.75 27.25 71.75 39.25 81.85 43.25 90.8 37.05 91.05 34.5 91.4 32.15 Z"/>

<path fill="#FFFFFF" stroke="none" d="
M 77.25 90.55
Q 76.35 91.2 75.45 92 75.55 93.8 73.4 106.15 71.45 118.45 73.15 122.55 77.05 116.25 79.95 108.05 85.75 91.45 84.25 81.95 81.85 87.2 77.25 90.55
M 76.8 60.05
Q 74.05 68.7 74.7 73.35 76.3 71.85 80.55 64.9 86.45 54.5 86.8 43.15 83.25 44.4 79.5 45.85 79.55 46 76.8 60.05
M 53.7 -18.2
Q 53.3 -18.2 53.15 -18.15 65.7 -16.2 78.7 -0.45 84.9 8.4 87.45 20.25 87.45 19.9 87.7 19.75 98.5 -0.05 81.6 -11.3 66.95 -19.3 53.7 -18.2 Z"/>

<path fill="#3333CC" stroke="none" d="
M 26.75 98.6
Q 16.05 92.45 15.9 91.8 12.05 120.45 35.1 138.9 24.75 122.3 23.45 103.45 24.7 104.3 32.25 104.35 41.7 104.3 46.6 101.6 38.5 103.4 26.75 98.6 Z"/>

<path fill="#0099FF" stroke="none" d="
M 87.65 75
Q 85.9 78.35 84.25 81.95 85.75 91.45 79.95 108.05 77.05 116.25 73.15 122.55 71.45 118.45 73.4 106.15 75.55 93.8 75.45 92 63.15 98.1 48.35 101.15 47.5 101.3 46.6 101.6 41.7 104.3 32.25 104.35 24.7 104.3 23.45 103.45 24.75 122.3 35.1 138.9 62.55 146.95 77.45 125.45 82.9 116.8 85.7 95.45 87.75 79.25 87.65 75 Z"/>

<path fill="#999999" stroke="none" d="
M 34.15 25.65
Q 35.25 26.25 38.8 27.4 43.3 29.05 45.9 29.2 41.55 25.75 36.05 16.95 31.45 10.45 30.85 8.3 22.9 38.3 19.15 63.7 18.5 69.4 17.35 74.45 17.85 76.25 20.75 80.95 23.35 85.3 24.6 86.45 27.4 59.3 34.15 25.65 Z"/>

<path fill="url(#Gradient_1)" stroke="none" d="
M 90.25 41.65
Q 88.5 42.35 86.8 43.15 86.45 54.5 80.55 64.9 76.3 71.85 74.7 73.35 74.05 68.7 76.8 60.05 79.55 46 79.5 45.85 63.7 43.5 47.35 30.25 46.5 29.65 45.9 29.2 43.3 29.05 38.8 27.4 35.25 26.25 34.15 25.65 27.4 59.3 24.6 86.45 44.55 88.95 68.9 80.95 79.25 77 84.25 69 89.5 65.2 90.25 41.65 Z"/>

<path fill="url(#Gradient_2)" stroke="none" d="
M 36.3 -5.45
Q 35.25 -4 34.65 -2.5 38.85 14.65 62.65 26.05 87.25 41.05 92.85 8.9 95 -5.55 81.6 -11.3 98.5 -0.05 87.7 19.75 87.45 19.9 87.45 20.25 84.9 8.4 78.7 -0.45 65.7 -16.2 53.15 -18.15 44.65 -14.75 36.3 -5.45 Z"/>
</g>

<g id="executioner_body_0_Layer0_0_FILL">
<path fill="#000000" stroke="none" d="
M 108.45 -1.2
Q 94.35 -2.9 80.15 -2.15 66.55 -1.4 53.3 2.05 39.15 5.55 26.25 12.5 14.25 18.8 5.85 29.4 -3.45 41.2 -5.65 56.05 -7.6 69.35 -3.65 82.2 0.25 94.95 9 104.9 17.85 115.05 30.4 120.5 42.15 125.65 54.25 129.4 67.3 133.45 80.8 135.65 94.5 137.6 108.25 136.4 122.45 135.95 134.45 128.25 143.05 124.95 151.65 121.6 158.3 118.95 164.1 114.9 176.45 106.35 180.55 91.75 184.25 78.7 182.95 65 181.8 52.5 176.85 40.95 171.3 28.1 160.65 18.95 149.1 9 134.6 4.55 121.8 0.7 108.45 -1.2
M 174 58.25
Q 176.6 73.3 171.8 87.7 166.45 98.4 158.05 107 155.05 110 135 119.35 115 128.6 109.15 129.75 102.65 130.9 81.65 128.45 62.2 126.15 54.9 124.05 38.35 119.25 25.35 108.55 14.7 99.9 9.55 87.3 5.35 77.1 5.65 66.05 6 51 13.95 38.3 21.25 26.75 33.4 20.3 39.1 17.25 52.5 12 59.15 9.4 64.7 7.35
L 98.95 6.55 119.75 10
Q 128.4 11.85 136.75 14.2 150.9 18.25 161.4 28.6 163.35 31.75 167.5 40.65 173 52.55 174 58.25
M 123.15 98.9
Q 124.1 89 122.8 79.2
L 118.3 98.75
Q 81.9 103.65 81.85 103.6
L 65.95 111.2
Q 103.3 101.6 141.75 105.95 141.45 104.9 140.9 103.75 139.85 101.45 138.55 101.15
L 123.15 98.9 Z"/>

<path fill="#CC6600" stroke="none" d="
M 171.8 87.7
Q 168.85 91.25 164.95 93.8 152.85 101.65 138.55 101.15 139.85 101.45 140.9 103.75 141.45 104.9 141.75 105.95 103.3 101.6 65.95 111.2
L 81.85 103.6
Q 76.7271484375 105.69609375 71.2 105.65 55.3 105.5 45.8 92.7 37.6 81.6 39.1 68 41.45 46.15 55.8 29.35 54.7 32.75 54.3 36.2 53.25 45.4 61.85 64.7 68.1 78.8 72.2 84.6 80.6 96.45 93.85 95 100.2 94.25 102.45 88.35 104.3 89.6 106.45 89.15 111.8 87.75 121.6 73.45 131.75 58.65 131.15 51.45 130.3 41.4 124.15 33.35 129.3 31.2 134.5 29.1 147.9 23.85 161.4 28.6 150.9 18.25 136.75 14.2 128.4 11.85 119.75 10
L 98.95 6.55 64.7 7.35
Q 59.15 9.4 52.5 12 39.1 17.25 33.4 20.3 21.25 26.75 13.95 38.3 6 51 5.65 66.05 5.35 77.1 9.55 87.3 14.7 99.9 25.35 108.55 38.35 119.25 54.9 124.05 62.2 126.15 81.65 128.45 102.65 130.9 109.15 129.75 115 128.6 135 119.35 155.05 110 158.05 107 166.45 98.4 171.8 87.7 Z"/>

<path fill="#FFCC99" stroke="none" d="
M 171.8 87.7
Q 176.6 73.3 174 58.25 173 52.55 167.5 40.65 163.35 31.75 161.4 28.6 147.9 23.85 134.5 29.1 129.3 31.2 124.15 33.35 130.3 41.4 131.15 51.45 131.75 58.65 121.6 73.45 111.8 87.75 106.45 89.15 104.3 89.6 102.45 88.35 100.2 94.25 93.85 95 80.6 96.45 72.2 84.6 68.1 78.8 61.85 64.7 53.25 45.4 54.3 36.2 54.7 32.75 55.8 29.35 41.45 46.15 39.1 68 37.6 81.6 45.8 92.7 55.3 105.5 71.2 105.65 76.7271484375 105.69609375 81.85 103.6 81.9 103.65 118.3 98.75
L 122.8 79.2
Q 124.1 89 123.15 98.9
L 138.55 101.15
Q 152.85 101.65 164.95 93.8 168.85 91.25 171.8 87.7 Z"/>
</g>

<g id="executioner_belt_0_Layer0_0_FILL">
<path fill="#000000" stroke="none" d="
M 91.75 35.65
Q 91.8 35.6 93.65 33.3 95.45 30.7 95.1 29.15 89.1 3.1 60 0.35 57.25 0.2 55.35 1.9 31 23.85 -1.15 18.95 -1.5 19.9 -1.2 20.75 9.95 48.35 40.5 44.55 39.15 50.85 43.95 53.8 71.4 70.3 82.55 41.3 85 40.25 86.75 39.3 90.65 37.25 91.75 35.65
M 88.75 20.25
L 88.55 23.6 83.85 25.7
Q 82.55 9.15 65.7 10.35 44.9 10.8 42.9 31.6
L 28.9 30.8
Q 18.65 29.85 8.6 26.75
L 6.15 20.65
Q 9.9 21 13.65 21.4 35.9 24.1 51.6 8.35
L 54.5 5.25
Q 59.35 5.1 64.15 5.45 79.05 7.4 88.75 20.25
M 88.7 28.7
Q 86.6 36.1 83 36.55
L 82.3 36.85 83.15 31.25 88.7 28.7
M 42.3 36.15
L 42 41 38 40.4
Q 25 40.4 13.05 35 9.35 33.35 9.15 29.05 10.6 29.6 12.1 30.2 26.7 36 42.3 36.15
M 44.35 41.35
L 44.35 35.65
Q 50.2 36.05 60.1 35.25 73.8 34.15 81.7 31.7
L 80.75 38.5
Q 62.65 43.25 44.35 41.35
M 45.25 49.3
L 45.5 44.8
Q 61.85 47.45 78.1 43.2
L 78.2 46.4
Q 76.35 47.1 74.55 47.8 61.45 52.85 47.7 50.5
L 45.25 49.3
M 80.35 26.35
L 80.25 27.15
Q 63.7 31.3 46.6 31.35 47.75 26.05 51.15 22.25 69.25 2.25 80.35 26.35 Z"/>

<path fill="url(#Gradient_3)" stroke="none" d="
M 80.25 27.15
L 80.35 26.35
Q 69.25 2.25 51.15 22.25 47.75 26.05 46.6 31.35 63.7 31.3 80.25 27.15 Z"/>

<path fill="url(#Gradient_4)" stroke="none" d="
M 45.5 44.8
L 45.25 49.3 47.7 50.5
Q 61.45 52.85 74.55 47.8 76.35 47.1 78.2 46.4
L 78.1 43.2
Q 61.85 47.45 45.5 44.8 Z"/>

<path fill="#666666" stroke="none" d="
M 44.35 35.65
L 44.35 41.35
Q 62.65 43.25 80.75 38.5
L 81.7 31.7
Q 73.8 34.15 60.1 35.25 50.2 36.05 44.35 35.65
M 42 41
L 42.3 36.15
Q 26.7 36 12.1 30.2 10.6 29.6 9.15 29.05 9.35 33.35 13.05 35 25 40.4 38 40.4
L 42 41
M 83 36.55
Q 86.6 36.1 88.7 28.7
L 83.15 31.25 82.3 36.85 83 36.55 Z"/>

<path fill="#3333CC" stroke="none" d="
M 49.3 12.8
Q 50.65 10.6 51.6 8.35 35.9 24.1 13.65 21.4 9.9 21 6.15 20.65
L 8.6 26.75
Q 18.65 29.85 28.9 30.8
L 28.2 24.8
Q 42 24.5 49.3 12.8 Z"/>

<path fill="#0099FF" stroke="none" d="
M 88.55 23.6
L 88.75 20.25
Q 79.05 7.4 64.15 5.45 59.35 5.1 54.5 5.25
L 51.6 8.35
Q 50.65 10.6 49.3 12.8 42 24.5 28.2 24.8
L 28.9 30.8 42.9 31.6
Q 44.9 10.8 65.7 10.35 82.55 9.15 83.85 25.7
L 88.55 23.6 Z"/>
</g>

<g id="executioner_head_1_Layer0_0_FILL">
<path fill="#000000" stroke="none" d="
M 36.8 -2.2
Q 22.55 -2.15 21.35 -1.45 20.35 -0.8 15.5 6.35 11 13 8.45 17.45 7.35 19.35 4.25 29.35 1.05 39.7 0.6 43.2 -0.1 48.65 2.05 59.05 4.05 68.65 5.05 69.1 7.1 69.9 8.65 68.5 8.45 74.1 11.35 85.95 14.15 97.35 15.75 99.1 17.05 100.5 19.05 101.15 19.55 100.9 21.15 99.7 22.6 98.55 22.8 98.3 23.15 100.15 25 104.4 26.85 108.6 27.75 109.6 29.7 111.9 32.65 112.8 33.75 113.05 37.3 111.45 40.55 109.9 41 109.3 44.15 105.35 46.5 101 46.8 102.15 48.25 106.2 49.75 110.4 50 110.6 54.2 110.05 58.4 108.9 62.45 103.75 64.7 97.6 66 93.95 65.8 90.2 67.4 91.85 70.55 94.35 74.3 97.35 75.6 97.6 77.45 95.65 78.3 87.4 79.1 79.3 78 76.45
L 82.4 79.2
Q 83.15 77.5 83.6 68.6 84.1 60.1 83.75 57.35 83 50.85 77.9 31.55 72.45 10.95 69.3 4.15 69.05 3.7 64.75 1.6 60 -0.75 57.3 -1.25 51.6 -2.25 36.8 -2.2
M 48.3 4.85
Q 51.1 5.35 56.3 7.55 62.5 10.15 63.65 12.15 64.85 14.3 72.55 34.75 76.4 45 80 54.8
L 80.85 72.85 73.15 67.35 74.3 79.6
Q 74.55 82.7 74.45 85.75 74.4 86.7 74.05 89.1 73.75 91.2 73.6 91.85
L 65.6 86.55 60.25 94.25 60 95 58.35 104.15 50.95 105.95
Q 51.25 104.3 49.95 99.9 48.6 95.45 47.45 94.35
L 34.75 109.8
Q 29.55 107.05 28.35 101.1 27.15 95.35 24.1 90.3
L 21.85 89.9
Q 19 95.8 18.9 96.05 17.5 93.6 16.3 91.1 15.7 89.75 9.85 61.65
L 6.7 62.7
Q 6.4 59.65 6.25 56.6 6.15 54.55 6.7 47.7 7.25 40.7 7.7 38.15 7.95 36.85 14.45 21.3 20.6 6.8 21.5 4.9
L 48.3 4.85
M 20 40.85
L 18.55 46.05 15.6 60.45
Q 15.05 61.85 16.9 64.45 17.5 62.8 18.6 59.35 20.1 54.65 20.45 52.7 20.9 50.1 20.5 45.2
L 20 40.85
M 16 41.3
L 16 40.9 16.95 36.65 10.2 49.2 12.35 48.35
Q 15.75 43.7 16 41.3
M 42.4 32.25
Q 46.637890625 30.1365234375 49.95 32 53.25390625 33.904296875 55.2 34.4 52.75 31.7 50.35 29.15 50.45 29.1 50.55 29 55.15 25.4 58.15 20.8 55.55 22.2 51.25 25.35 47 28.45 46.4 27.7 40.25 21.2 30.65 16.45 30.6 16.9 35.5 21.3 40.7 25.95 43.75 28.4 36.1 31.2 29.55 35.4 38.166015625 34.4177734375 42.4 32.25 Z"/>

<path fill="#3333CC" stroke="none" d="
M 80 54.8
L 78.15 66.6
Q 72.25 64.95 71.35 65.1
L 73.5 87.5
Q 72 86.8 67.9 85.9 64.35 85.1 63.3 85.05 62.9 85.9 61.8 89.1 60.55 92.75 60.25 94.25
L 65.6 86.55 73.6 91.85
Q 73.75 91.2 74.05 89.1 74.4 86.7 74.45 85.75 74.55 82.7 74.3 79.6
L 73.15 67.35 80.85 72.85 80 54.8
M 31.05 95.25
Q 27.2 84.7 27.1 84.75 24.95 87.15 24.1 90.3 27.15 95.35 28.35 101.1 29.55 107.05 34.75 109.8
L 47.45 94.35
Q 48.6 95.45 49.95 99.9 51.25 104.3 50.95 105.95
L 58.35 104.15 60 95
Q 59.3 96.1 57.1 98.05 54.5 100.4 53.4 100.35
L 51.3 91
Q 50.2 91.4 46.1 93.85 42.05 96.2 41.7 96.55 37.4 100.6 34.85 105.8 32.95 100.5 31.05 95.25
M 32.85 13.65
L 39.9 19.25
Q 39.05 18.1 38.2 16.95 36.2 14.2 32.85 13.65
M 69.9 47.15
L 69.05 46.85
Q 75.85 58.45 76.1 58.4
L 69.9 47.15
M 68.55 35.1
Q 69.1 36.6 71 40.7 73 45 73.25 44.95
L 66 23.1
Q 65.75 23.15 66.7 27.7 67.65 32.5 68.55 35.1
M 45.25 6.05
Q 46.8 5.5 48.3 4.85
L 21.5 4.9
Q 20.6 6.8 14.45 21.3 7.95 36.85 7.7 38.15 7.25 40.7 6.7 47.7 6.15 54.55 6.25 56.6 6.4 59.65 6.7 62.7
L 9.85 61.65
Q 15.7 89.75 16.3 91.1 17.5 93.6 18.9 96.05 19 95.8 21.85 89.9 21.05 87.5 20.25 85.15 18.35 79.45 17.75 73.6 17.3 69 16.9 64.45 15.05 61.85 15.6 60.45 12 58.4 8.4 60.25 7.65 60.55 6.95 61
L 12.35 48.35 10.2 49.2 16.95 36.65 16 40.9 16 41.3
Q 15.95 42.85 16 45 16.05 48 16.4 48.95
L 18.55 46.05 20 40.85 23.9 7.3
Q 25.85 7.55 27.8 7.8 33.5 8.6 39.1 7.6 42.25 7.15 45.25 6.05 Z"/>

<path fill="#0099FF" stroke="none" d="
M 18.55 46.05
L 16.4 48.95
Q 16.05 48 16 45 15.95 42.85 16 41.3 15.75 43.7 12.35 48.35
L 6.95 61
Q 7.65 60.55 8.4 60.25 12 58.4 15.6 60.45
L 18.55 46.05
M 48.3 4.85
Q 46.8 5.5 45.25 6.05 42.25 7.15 39.1 7.6 33.5 8.6 27.8 7.8 25.85 7.55 23.9 7.3
L 20 40.85 20.5 45.2
Q 20.9 50.1 20.45 52.7 20.1 54.65 18.6 59.35 17.5 62.8 16.9 64.45 17.3 69 17.75 73.6 18.35 79.45 20.25 85.15 21.05 87.5 21.85 89.9
L 24.1 90.3
Q 24.95 87.15 27.1 84.75 27.2 84.7 31.05 95.25 32.95 100.5 34.85 105.8 37.4 100.6 41.7 96.55 42.05 96.2 46.1 93.85 50.2 91.4 51.3 91
L 53.4 100.35
Q 54.5 100.4 57.1 98.05 59.3 96.1 60 95
L 60.25 94.25
Q 60.55 92.75 61.8 89.1 62.9 85.9 63.3 85.05 64.35 85.1 67.9 85.9 72 86.8 73.5 87.5
L 71.35 65.1
Q 72.25 64.95 78.15 66.6
L 80 54.8
Q 76.4 45 72.55 34.75 64.85 14.3 63.65 12.15 62.5 10.15 56.3 7.55 51.1 5.35 48.3 4.85
M 49.95 32
Q 46.637890625 30.1365234375 42.4 32.25 38.166015625 34.4177734375 29.55 35.4 36.1 31.2 43.75 28.4 40.7 25.95 35.5 21.3 30.6 16.9 30.65 16.45 40.25 21.2 46.4 27.7 47 28.45 51.25 25.35 55.55 22.2 58.15 20.8 55.15 25.4 50.55 29 50.45 29.1 50.35 29.15 52.75 31.7 55.2 34.4 53.25390625 33.904296875 49.95 32
M 71 40.7
Q 69.1 36.6 68.55 35.1 67.65 32.5 66.7 27.7 65.75 23.15 66 23.1
L 73.25 44.95
Q 73 45 71 40.7
M 69.05 46.85
L 69.9 47.15 76.1 58.4
Q 75.85 58.45 69.05 46.85
M 39.9 19.25
L 32.85 13.65
Q 36.2 14.2 38.2 16.95 39.05 18.1 39.9 19.25 Z"/>
</g>

<g id="executioner_axe_2_Layer0_0_FILL">
<path fill="url(#Gradient_5)" stroke="none" d="
M 156.25 5.65
L 153.9 9.4
Q 140.85 28.9 120.65 40.75 100.25 52.75 76.8 56.15 52.8 59.25 33.05 45.55 26.85 41.3 23.6 34.6 10.45 63.1 23.95 91 25.05 93.25 26.4 95.4 39.45 90.85 53.25 90.7
L 53.7 90.4
Q 88.25 89.9 118.4 106.4 122.8 108.8 136.6 120.8 146.543359375 114.5537109375 155.2 91.15 163.89765625 67.7431640625 161.45 43.95 159.0525390625 20.206640625 156.25 5.65 Z"/>

<path fill="url(#Gradient_6)" stroke="none" d="
M 162.9 44.8
L 162.9 44.85
Q 162.977734375 44.87421875 163.05 44.9 163.525390625 45.046484375 164 45.2 163.52734375 45.0349609375 163.05 44.85 162.97578125 44.8501953125 162.9 44.8 Z"/>

<path fill="#0099FF" stroke="none" d="
M 162.85 44.8
L 162.85 44.8 162.9 44.8
Q 162.97578125 44.8501953125 163.05 44.85 168.162109375 13.9048828125 166.35 -14.05
L 156.25 5.65
Q 159.0525390625 20.206640625 161.45 43.95 163.89765625 67.7431640625 155.2 91.15 146.543359375 114.5537109375 136.6 120.8 142.55 126.55 150.2 134.35 154.5208984375 132.3185546875 158.3 129.75 163.6537109375 83.8001953125 163.05 44.9 162.977734375 44.87421875 162.9 44.85
L 162.5 45.85 162.85 44.85 162.85 44.8 Z"/>

<path fill="url(#Gradient_7)" stroke="none" d="
M 162.85 44.85
L 162.85 44.8 162.85 44.8 162.85 44.85 162.5 45.85 162.85 44.85 Z"/>

<path fill="url(#Gradient_8)" stroke="none" d="
M 162.85 44.8
L 162.85 44.85 162.5 45.85 162.9 44.85 162.9 44.8 162.85 44.8 Z"/>

<path fill="#666666" stroke="none" d="
M 164.2 -10.35
Q 165.3955078125 -12.806640625 166.4 -15.35
L 164.05 -17.8
Q 163.9916015625 -17.6583984375 163.9 -17.55 161.00546875 -10.5958984375 154.35 -2.6 137.2482421875 18.0876953125 112.35 30.9 100.85 36.8 88.55 40.35 85.05 48 76.65 49.25 73.7 49.8 68.8 49.1
L 64.55 48.35 64.15 47.9
Q 63.35 46.35 62.55 44.65 60.9 41.25 60.9 40.6 43.6 42.05 27.35 36.5 44.35 52.15 67.45 50.75
L 95.3 48.2
Q 118.8 42.7 136.7 26.4 147.7759765625 16.3484375 155.95 4.1 160.5302734375 -2.7767578125 164.2 -10.35 Z"/>

<path fill="#000000" stroke="none" d="
M 151.75 -11.45
Q 149.9619140625 -9.4853515625 148.1 -7.65 135.81484375 4.8552734375 121.45 13.8 107.130078125 22.79296875 96.05 28.85 87.0203125 17.652734375 79.55 17.95 72.0744140625 18.2484375 65.45 26.9 58.833203125 35.59765625 43.05 27.45 27.323046875 19.308984375 19.8 23.75 12.27265625 28.1900390625 8.85 47.9 5.4740234375 67.6552734375 8.25 79.25 11.0810546875 90.90078125 16.95 98.85 22.8140625 106.7943359375 31.05 102.45 39.3390625 98.1595703125 48 99.05 55.95 123.3 53.05 151 52.9 152.5 51.35 164 49.75 177.05 49.1 188.25 47.05 223.55 54.35 236.85 56.65 241.05 64.65 237.8 67.75 236.5 70.1 234.65 72.5 232.7 72.65 231.35 73.35 224.4 75.4 165.7 77.55 104.6 83.35 104.7 97.85 102.2 114.95 112.8 129.012890625 121.5525390625 138.9 135.15 142.536328125 140.13125 145.6 145.75 150.94453125 144.795703125 157.7 140.6
L 158.3 129.75
Q 154.5208984375 132.3185546875 150.2 134.35 142.55 126.55 136.6 120.8 122.8 108.8 118.4 106.4 88.25 89.9 53.7 90.4
L 53.25 90.7
Q 39.45 90.85 26.4 95.4 25.05 93.25 23.95 91 10.45 63.1 23.6 34.6 26.85 41.3 33.05 45.55 52.8 59.25 76.8 56.15 100.25 52.75 120.65 40.75 140.85 28.9 153.9 9.4
L 156.25 5.65 166.35 -14.05 166.4 -15.35
Q 165.3955078125 -12.806640625 164.2 -10.35 160.5302734375 -2.7767578125 155.95 4.1 147.7759765625 16.3484375 136.7 26.4 118.8 42.7 95.3 48.2
L 67.45 50.75
Q 44.35 52.15 27.35 36.5 43.6 42.05 60.9 40.6 60.9 41.25 62.55 44.65 63.35 46.35 64.15 47.9
L 64.55 48.35 68.8 49.1
Q 73.7 49.8 76.65 49.25 85.05 48 88.55 40.35 100.85 36.8 112.35 30.9 137.2482421875 18.0876953125 154.35 -2.6 161.00546875 -10.5958984375 163.9 -17.55 155.834375 -15.994140625 151.75 -11.45
M 88.35 32.85
Q 88.2 33.5 88.05 34.15 84.25 50.2 67.8 47.9 66.7 47.05 65.6 46.05 63.4 44.1 63.45 43.9 70.45 20.5 88.35 32.85
M 66.1 95
L 71.95 94.6
Q 70.6455078125 120.0939453125 68.55 160.45 66.4630859375 200.8681640625 68.45 215.25 70.482421875 229.62578125 59.25 230.85 57.6 229.5 57.35 227.5 56.3 219.35 58.05 161.1 59.95 99.2 59.75 93.9
L 66.1 95 Z"/>

<path fill="#CC6600" stroke="none" d="
M 66.1 95
L 59.75 93.9
Q 59.95 99.2 58.05 161.1 56.3 219.35 57.35 227.5 57.6 229.5 59.25 230.85
L 66.1 95
M 85.05 33.5
Q 87.95 32.75 88.35 32.85 70.45 20.5 63.45 43.9 63.4 44.1 65.6 46.05 66.7 47.05 67.8 47.9 68.25 40.5 78.15 35.9 81.35 34.4 85.05 33.5 Z"/>

<path fill="#793C00" stroke="none" d="
M 71.95 94.6
L 66.1 95 59.25 230.85
Q 70.482421875 229.62578125 68.45 215.25 66.4630859375 200.8681640625 68.55 160.45 70.6455078125 120.0939453125 71.95 94.6
M 88.05 34.15
Q 88.2 33.5 88.35 32.85 87.95 32.75 85.05 33.5 81.35 34.4 78.15 35.9 68.25 40.5 67.8 47.9 84.25 50.2 88.05 34.15 Z"/>
</g>
</defs>

<g id="Layer_2">
<g transform="matrix( 0.842193603515625, 0, 0, 0.842193603515625, 342.9,245.5) ">
<g id="Layer_4">
<g transform="matrix( 1, 0, 0, 1, -30.7,-73.7) ">
<g id="executioner_legs">
<g transform="matrix( 1, 0, 0.1709747314453125, 1, 168.3,351.45) ">
<g id="Layer_1">
<g transform="matrix( 1, 0, 0, 1, 0,0) ">
<use xlink:href="#executioner_legs_0_Layer0_0_FILL"/>
</g>
</g>
</g>
</g>

<g id="executioner_arm">
<g transform="matrix( -0.1452484130859375, 0.86492919921875, -0.7266387939453125, -0.12200927734375, 322.75,224.9) ">
<g transform="matrix( 1, 0, 0, 1, 0,0) ">
<use xlink:href="#executioner_arm_2_Layer0_0_FILL"/>
</g>
</g>
</g>

<g id="executioner_body">
<g transform="matrix( 0.993682861328125, -0.1118621826171875, 0.1118621826171875, 0.993682861328125, 106.35,229.55) ">
<g transform="matrix( 1, 0, 0, 1, 0,0) ">
<use xlink:href="#executioner_body_0_Layer0_0_FILL"/>
</g>
</g>
</g>

<g id="executioner_belt">
<g transform="matrix( 1, 0, 0.2010040283203125, 1, 155.15,321.75) ">
<g transform="matrix( 1, 0, 0, 1, 0,0) ">
<use xlink:href="#executioner_belt_0_Layer0_0_FILL"/>
</g>
</g>
</g>

<g id="executioner_head">
<g transform="matrix( 0.9471893310546875, -0.3205108642578125, 0.3205108642578125, 0.9471893310546875, 117.95,194.3) ">
<g transform="matrix( 1, 0, 0, 1, 0,0) ">
<use xlink:href="#executioner_head_1_Layer0_0_FILL"/>
</g>
</g>
</g>

<g id="executioner_axe">
<g transform="matrix( 0.0566864013671875, 0.9983062744140625, -0.9983062744140625, 0.0566864013671875, 467.9,209.95) ">
<g transform="matrix( 1, 0, 0, 1, 0,0) ">
<use xlink:href="#executioner_axe_2_Layer0_0_FILL"/>
</g>
</g>
</g>

<g transform="matrix( 0.2642364501953125, -0.9644012451171875, -0.9449615478515625, -0.2588958740234375, 255.2,360.45) ">
<g transform="matrix( 1, 0, 0, 1, 0,0) ">
<use xlink:href="#executioner_arm_2_Layer0_0_FILL"/>
</g>
</g>
</g>
</g>
</g>
</g>
</svg>
