
<svg xmlns="http://www.w3.org/2000/svg" version="1.1" xmlns:xlink="http://www.w3.org/1999/xlink" preserveAspectRatio="none" x="0px" y="0px" width="1000px" height="1000px" viewBox="0 0 1000 1000">
<defs>
<linearGradient id="Gradient_1" gradientUnits="userSpaceOnUse" x1="92.4" y1="49" x2="5.399999999999999" y2="49" spreadMethod="pad">
<stop  offset="15.686274509803921%" stop-color="#FF3300"/>

<stop  offset="67.84313725490196%" stop-color="#FFD100"/>

<stop  offset="100%" stop-color="#FFFFFF"/>
</linearGradient>

<linearGradient id="Gradient_2" gradientUnits="userSpaceOnUse" x1="83.4" y1="49" x2="42.4" y2="49" spreadMethod="pad">
<stop  offset="19.607843137254903%" stop-color="#FFD100"/>

<stop  offset="100%" stop-color="#FFFFFF"/>
</linearGradient>

<linearGradient id="Gradient_3" gradientUnits="userSpaceOnUse" x1="50.7" y1="46.3625" x2="49.5" y2="180.7375" spreadMethod="pad">
<stop  offset="0.39215686274509803%" stop-color="#FF3300"/>

<stop  offset="49.411764705882355%" stop-color="#FFD100"/>

<stop  offset="100%" stop-color="#FFFFFF"/>
</linearGradient>

<linearGradient id="Gradient_4" gradientUnits="userSpaceOnUse" x1="50.725" y1="38.324999999999996" x2="53.275" y2="119.775" spreadMethod="pad">
<stop  offset="0.39215686274509803%" stop-color="#FF9900"/>

<stop  offset="49.411764705882355%" stop-color="#FFD100"/>

<stop  offset="100%" stop-color="#FFFFFF"/>
</linearGradient>

<g id="Fireball_6_Layer0_0_FILL">
<path fill="#FFFFFF" stroke="none" d="
M 118.65 28.45
Q 109.9 19.4 97.5 19.4 85.1 19.4 76.35 28.45 67.6 37.55 67.6 50.35 67.6 63.1 76.35 72.2 85.1 81.25 97.5 81.25 109.9 81.25 118.65 72.2 127.45 63.1 127.45 50.35 127.45 37.55 118.65 28.45 Z"/>
</g>

<g id="ball_of_fire_6_Layer0_0_FILL">
<path fill="url(#Gradient_1)" stroke="none" d="
M 80.9 14.3
Q 67 0 47.4 0 27.75 0 13.85 14.3 0 28.7 0 48.95 0 69.25 13.85 83.55 27.75 97.95 47.4 97.95 67 97.95 80.9 83.55 94.8 69.25 94.8 48.95 94.8 28.7 80.9 14.3
M 47.4 6.25
Q 64.5 6.25 76.6 18.75 88.75 31.3 88.75 48.95 88.75 66.65 76.6 79.2 64.5 91.75 47.4 91.75 30.25 91.75 18.15 79.2 6.05 66.65 6.05 48.95 6.05 31.3 18.15 18.75 30.25 6.25 47.4 6.25 Z"/>

<path fill="url(#Gradient_2)" stroke="none" d="
M 76.6 18.75
Q 64.5 6.25 47.4 6.25 30.25 6.25 18.15 18.75 6.05 31.3 6.05 48.95 6.05 66.65 18.15 79.2 30.25 91.75 47.4 91.75 64.5 91.75 76.6 79.2 88.75 66.65 88.75 48.95 88.75 31.3 76.6 18.75
M 47.4 18.1
Q 59.8 18.1 68.55 27.15 77.35 36.25 77.35 49.05 77.35 61.8 68.55 70.9 59.8 79.95 47.4 79.95 35 79.95 26.25 70.9 17.5 61.8 17.5 49.05 17.5 36.25 26.25 27.15 35 18.1 47.4 18.1 Z"/>
</g>

<g id="Flame_tail_6_Layer0_0_FILL">
<path fill="url(#Gradient_3)" stroke="none" d="
M 92.6 93
Q 93.05 91.7 94.65 83.7
L 96 90.5
Q 97.35 97.7 97.35 99.65 97.35 108.05 92.8 119.4 92.346875 120.523046875 91.95 121.55 94.95 121.2 98.1 120.5
L 98.1 120.5
Q 98.553125 119.1259765625 98.95 118.05 100.64765625 113.453515625 100.65 101.8 100.65 91.1 98.2 82.8 95.8466796875 74.6126953125 91.55 70.3 92.4828125 74.884375 89.1 79.75 85.25 85.35 79.25 85.35 72.5 85.35 64.95 77.25 56.85 68.55 56.85 58.9 56.85 49.35 62.4 42.3 67.9 35.4 73.6 37.25 75.05 29.2 68.05 18.9 62.55 10.75 55.8 5.9 53.35 12.75 51.55 15.9 49.1 20.25 44.45 24.85 31.45 37.85 31.45 45.35 31.45 45.75 33 47.7 34.4 49.5 35.55 50.75 39.626953125 55.646484375 43 66.2 46.3609375 76.75 42.4 83.7 38.4572265625 90.70234375 35.1 84.7 31.7830078125 78.701953125 36.75 73.1 17.1158203125 79.587109375 10.5 86.95 5 93.05 2.85 96.9 -0.3 102.65 -0.3 109.35 -0.3 114.2087890625 1.25 120.55 2.95 121.3 3.95 121.3 5 121.3 5.2 122.4 6.2640625 122.2986328125 6.55 122.65 9.2154296875 117.29140625 9.5 110.9 9.86796875 102.620703125 12.15 97.9 14.4212890625 93.1578125 23.7 85.55 33.0330078125 78.003125 29.95 83.65 26.875 89.289453125 35.1 93 43.3099609375 96.76015625 44.95 84.2 46.597265625 71.6466796875 46.6 66.95 46.6 62.75 42.85 55.65 39.05 49.25 39.05 48.6 39.05 46.7 47.05 34.9 54.05 24.55 57.4 20.45 59.5 23.6 61.9 28.2 64.35 32.8 65.5 34.55 59.15 35.1 54 45.15 49.25 54.5 49.25 63.7 49.25 77.2 61.15 88.55 72.55 99.4 84.7 99.4 90.1 99.4 92.6 93 Z"/>

<path fill="url(#Gradient_4)" stroke="none" d="
M 94.65 83.7
Q 93.05 91.7 92.6 93 90.1 99.4 84.7 99.4 72.55 99.4 61.15 88.55 49.25 77.2 49.25 63.7 49.25 54.5 54 45.15 59.15 35.1 65.5 34.55 64.35 32.8 61.9 28.2 59.5 23.6 57.4 20.45 54.05 24.55 47.05 34.9 39.05 46.7 39.05 48.6 39.05 49.25 42.85 55.65 46.6 62.75 46.6 66.95 46.597265625 71.6466796875 44.95 84.2 43.3099609375 96.76015625 35.1 93 26.875 89.289453125 29.95 83.65 33.0330078125 78.003125 23.7 85.55 14.4212890625 93.1578125 12.15 97.9 9.86796875 102.620703125 9.5 110.9 9.2154296875 117.29140625 6.55 122.65 7.15078125 123.316015625 8.1 125.7
L 16.9 122.1
Q 17.9181640625 122.1 19.65 121.95 19.7470703125 121.958203125 19.85 121.95 21.38828125 117.3880859375 18.1 115.95 14.8525390625 114.527734375 14.75 107.15 14.7005859375 99.75546875 27.7 94.5 27.95 98.7 29.7 99.55 30.3 99.85 34.15 99.85 38.236328125 99.85 41.15 98 38.027734375 107.615625 53.1 101.9 68.1794921875 96.1720703125 74.5 101.6 80.8619140625 107.0384765625 82.85 109.1 84.84609375 111.203515625 85.3 111.05 86.3 110.7 87.65 108.55 87.4953125 113.6041015625 82.9 117.1 80.03203125 119.2806640625 78.85 123.25 91.6 121.65 91.95 121.55 92.346875 120.523046875 92.8 119.4 97.35 108.05 97.35 99.65 97.35 97.7 96 90.5
L 94.65 83.7 Z"/>

<path fill="#FFFFFF" stroke="none" d="
M 69.45 125.1
Q 73.7 125.1 78.85 123.25 80.03203125 119.2806640625 82.9 117.1 87.4953125 113.6041015625 87.65 108.55 86.3 110.7 85.3 111.05 84.84609375 111.203515625 82.85 109.1 80.8619140625 107.0384765625 74.5 101.6 68.1794921875 96.1720703125 53.1 101.9 38.027734375 107.615625 41.15 98 38.236328125 99.85 34.15 99.85 30.3 99.85 29.7 99.55 27.95 98.7 27.7 94.5 14.7005859375 99.75546875 14.75 107.15 14.8525390625 114.527734375 18.1 115.95 21.38828125 117.3880859375 19.85 121.95 32.559375 122.1689453125 46.25 123.55 47.0916015625 123.4140625 48 123.25 51.9 122.5 55.55 121.8 55.65 121.8 61.3 123.45 67.4 125.1 69.45 125.1 Z"/>
</g>
</defs>

<g transform="matrix( 1, 0, 0, 1, 399.85,443.05) ">
<g transform="matrix( 1, 0, 0, 1, 0,0) ">
<use xlink:href="#Fireball_6_Layer0_0_FILL"/>
</g>

<g transform="matrix( 1, 0, 0, 1, 50.1,1.3) ">
<g transform="matrix( 1, 0, 0, 1, 0,0) ">
<use xlink:href="#ball_of_fire_6_Layer0_0_FILL"/>
</g>
</g>

<g transform="matrix( 0, -0.9992523193359375, 1.158599853515625, 0, -50.75,99.65) ">
<g transform="matrix( 1, 0, 0, 1, 0,0) ">
<use xlink:href="#Flame_tail_6_Layer0_0_FILL"/>
</g>
</g>
</g>
</svg>
