
<svg xmlns="http://www.w3.org/2000/svg" version="1.1" xmlns:xlink="http://www.w3.org/1999/xlink" preserveAspectRatio="none" x="0px" y="0px" width="1000px" height="1000px" viewBox="0 0 1000 1000">
<defs>
<linearGradient id="Gradient_1" gradientUnits="userSpaceOnUse" x1="137.0625" y1="128.5875" x2="25.237500000000004" y2="72.6125" spreadMethod="pad">
<stop  offset="0%" stop-color="#66FFFF"/>

<stop  offset="100%" stop-color="#0033CC"/>
</linearGradient>

<filter id="Filter_1" x="-20%" y="-20%" width="140%" height="140%" color-interpolation-filters="sRGB">
<feColorMatrix in="SourceGraphic" type="matrix" values="1 0 0 0 0 0 1 0 0 0 0 0 1 0 0 0 0 0 0.64 0" result="result1"/>
</filter>

<filter id="Filter_2" x="-20%" y="-20%" width="140%" height="140%" color-interpolation-filters="sRGB">
<feColorMatrix in="SourceGraphic" type="matrix" values="1 0 0 0 0 0 1 0 0 0 0 0 1 0 0 0 0 0 0.21120000000000003 0" result="result1"/>
</filter>

<g id="water_body_2_Layer4_0_FILL">
<path fill="url(#Gradient_1)" stroke="none" d="
M 66.35 186.55
L 66.15 186.55 66.15 186.6
Q 66.3 188.95 66.4 191.4 66.45 191.9 66.45 192.35 66.5 192.35 66.75 191.8 67.7 189.75 67.65 186.5
L 66.35 186.55
M 105.75 188.25
L 104.5 188.1
Q 104.75 189.65 105.15 191.1 105.6 189.9 105.75 188.25 Z"/>

<path fill="#00CCFF" stroke="none" d="
M 121.75 26.7
Q 120.75 25.25 119.7 23.9 103.4 2.95 78.45 0.5 70.15 -0.25 62.05 0.1 50.35 0.65 41.3 4.35 39.2 5.15 37.15 6.2 27.75 10.8 20.2 18.35 18.45 20.05 16.8 21.95 9.7 30.2 5.2 40.6 4.3 42.7 3.5 44.9 -1.1 57.45 -1.55 71.75
L -1.55 71.85
Q -2.05 91.1 5.8 107.1 6.75 109.15 7.95 111.1 14.8 122.55 31.45 132.4 31.95 132.7 32.5 133.05 49.65 143 56.55 152.45 56.95 153.05 57.35 153.6 65.65 166 66.15 186.45 66.25 186.5 66.35 186.55
L 67.65 186.5 67.85 186.6
Q 68.1 187.05 68.3 187.5 67.8 189.5 67.05 191.2 66.95 191.35 66.9 191.5 66.75 191.85 66.55 192.25
L 66.55 192.3
Q 66.35 192.65 66.15 193.05 61.55 202.05 54.85 206.5 54.2 206.95 53.5 207.35 47.5 211.05 39.55 214.55 37.25 215.55 34.65 216.6 29.95 218.5 19.05 221 18.4 221.2 17.75 221.35 -12.15 233.1 10.85 248.65 12.55 249.6 14.55 250.5 20.65 252.3 30.65 253.75 33.2 254.15 35.9 254.5 71.35 259.1 102.1 255.55 106.45 255.05 110.5 254.5 132.55 251.2 140.05 246.9 145.6 243.5 146.95 240 147.55 238.55 147.9 237.15 149.3 231.95 147.6 227.1 147.25 226.2 146.9 225.35 144.55 221.2 142.25 219.5 141.25 218.8 139.85 217.9 137.5 216.15 135.6 214.85 134.6 213.95 134.2 213.6 130.8 210.2 130 205 129.95 204.75 129.95 204.45 129.65 199.8 128.9 195.4 128.9 195.2 128.9 195 128.95 193.6 129.6 192.1 129.7 191.95 129.75 191.85 130.25 191.2 130.35 190.6 130.4 190.35 130.3 190.15 130.3 190.1 130.3 190.05 129.95 189.45 129.5 189
L 129.6 189
Q 129.8 189 129.95 188.95 131.75 186.25 132.7 180.4 137.35 162.7 140.65 144.5 140.75 143.8 140.9 143.1 143.45 127.3 142.7 103.3 142.5 96.5 141.95 89.75 138.9 50.9 121.75 26.7
M 104.5 188.1
L 105.75 188.25
Q 105.6 189.9 105.15 191.1 104.75 189.65 104.5 188.1 Z"/>
</g>

<g id="water_body_2_Layer3_0_FILL">
<path fill="#00CCFF" stroke="none" d="
M 78.45 179.2
Q 77.9232421875 178.748046875 77.25 178.5 76.2 178.15 75.3 178.5 74.85 178.65 74.15 179.15 73.3 179.75 73 179.9 72.7 180.05 71.45 180.5 70.5 180.85 70 181.25 69.35 181.85 68.75 183.45 66.65 188.95 68 192 68.542578125 193.2787109375 69.45 193.9 69.262109375 194.301171875 69.2 194.55 68.8 195.85 69.25 197.3 69.6 198.65 70.6 199.7 71.59453125 200.7359375 72.95 201.2 73.191015625 203.790234375 73.7 207.2 74 209.7 74.65 210.95 75.85 213.1 78.55 213.9 81 214.65 83.6 214 85.6244140625 213.4568359375 88.2 212 89.38359375 212.6349609375 90.85 212.6 92.95 212.55 94.35 211.2 94.819921875 210.7728515625 95.65 209.6 95.8873046875 209.8900390625 96.4 210.6 97.4138671875 211.794921875 98.7 212.3 98.1392578125 216.0064453125 97.7 220.65 97.1 226.55 97.25 229.4 97.5 232.05 97.9 234.05 98.45 236.25 99.7 236.3 101.1 236.35 101.55 233.9 102.25 230.35 102.65 224.1 103.1 216.95 103.45 214.3 103.60078125 213.275 103.9 211.7 105.1408203125 211.0361328125 106.4 209.85 108.0490234375 208.302734375 109.55 206.25 111.633203125 205.4197265625 114.55 203.45 117.75 201.3 118.8 199.8 119.3 199.15 119.8 198.1 120.35 196.9 120.65 196.3 122.4 192.85 122.7 191.85 123.6 189.1 122.3 187.15 121.25 185.5 118.2 184.6 117.9248046875 184.5140625 117.65 184.45 118.177734375 179.708984375 117.1 176.95 116.25 174.7 114.35 173.35 112.3 171.9 110.1 172.2 108.35 172.65 107.4 172.6 105.8 172.6 104.25 170.85 102.85 168.8 102 167.9 100.55 166.25 98.35 165.45 96.15 164.65 93.95 165 90.2 165.55 85.6 170.15 81.3583984375 174.466015625 78.45 179.2 Z"/>
</g>

<g id="water_body_2_Layer2_0_FILL">
<path fill="#00A3FF" stroke="none" d="
M 103.45 53.85
Q 101 49.75 98.1 46.1 83.5 21.4 59.2 19.3 55.55 19.15 51.75 19.7 44.05 21.15 35.95 25.95 32.7 27.85 29.6 30.1 21.6 35.85 16.4 43.5 14.4 46.45 13.05 49.55 9.55 57.55 11.95 66.1 12.65 68.6 13.75 71.1 16.35 83.2 25.65 93.5 27.4 95.5 29.3 97.35 45.95 119.4 60.75 127.1 63.75 128.6 66.65 129.9 71.85 136.35 74.8 146.1 75.45 148.85 75.95 151.6 77.25 164.2 76.1 171.6 75.85 173.55 75.5 175.35 73.55 187 68.95 199.45 68.7 200.1 68.2 201.1 67.4 202.6 66.35 204.4 66.2 204.7 66 205.1 65.15 206.25 64.2 207.4 59.7 213.05 56.3 215.5 55.85 215.85 55.35 216.2 50.25 219.85 41.05 223.25 40.6 223.4 40 223.6 37 224.65 28.15 225.9 27.55 226.05 26.95 226.15 -5.3 234.3 10.5 247.45 15.8 249.3 27 251 27.05 251 27.1 251 59.05 255.6 87 251.6 87.3 251.55 87.6 251.5 111.3 248.05 117.7 243.7 120.5 241.25 121.4 239 122 237.75 122.15 236.5 124.3 233.65 119.65 228.15 117.8 225.85 115.4 223.7 112.35 220.95 109.3 219.3 103.7 216.2 102.9 215.75 102.8 215.65 102.7 215.6 102.25 215.35 101.15 213.15 100.8 212.4 100.25 211.6 98.65 208.55 96.7 206.8
L 96.7 206.75
Q 93.85 204 93.3 201.55 93.05 200.9 92.95 200.3 92.85 200.1 92.85 199.85 92.8 199.5 92.75 199.15 92.75 199.05 92.7 199 92.45 196.75 91.95 193.45 90.95 186.65 91.6 178.25 92.55 172.4 94 166 100.2 154.3 103.5 140.8 104.6 135.45 105.15 130.05 122.55 84.2 103.45 53.85 Z"/>
</g>

<g id="water_body_2_Layer1_0_FILL">
<path fill="#FFFFFF" stroke="none" d="
M 8.85 236.7
Q 8.5 238.65 9.25 240.15 10.15 241.8 12.15 242.25 14.2 242.6 15.3 241.25 15.7 240.7 16.05 238.15 15.85 232.2 23.75 229.25 28.45 227.95 33 226.55 35.7 225.55 36.65 224.6 33 223.8 29.35 224.55 28.2 224.8 26.3 225.35 24.35 225.95 23.35 226.15 18.25 227.65 16 228.7 12 230.5 10.2 233.2 9.1 234.85 8.85 236.7
M 137.9 219.8
Q 137.25 220.25 137.25 221.05 137 222.1 138.5 223.65 140.15 224.65 141.65 226.65 143.25 228.7 143.15 230.25 143.15 230.75 143.65 232.6 144.3 233.4 144.75 233.4 145.05 233.25 145.25 232.7 145.4 232.25 145.85 230.45 145.95 229.15 146.05 227.8 146 226.2 144.8 224.15 144.15 222.45 140.45 219.5 139.35 219.2 137.9 219.8
M 33 14.6
Q 28.15 16.45 24.75 20.05 23.1 21.65 20.2 26 20.1 26.2 20 26.35
L 15.9 33.4
Q 15.8 33.5 15.75 33.6 13.85 36.75 15.05 38.3
L 15.1 38.35
Q 16.9 37.35 23.9 29 29.15 22.65 34.05 21.75 35.5 21.35 36.35 21.05 37.85 20.5 38.55 19.85 39.65 18.75 39.95 17.7 40.4 16.35 39.85 15.45 39.4 14.55 38.6 14.1 37.6 13.6 36.8 13.65 34.95 13.65 33 14.6
M 124.6 181.5
Q 125.05 181.2 125.15 180.45 125.2541015625 179.8607421875 125.3 179 124.834765625 180.880859375 124.6 181.5
M 127.15 171.85
Q 127.85 168.35 128.85 162.9 128.9009765625 162.573046875 128.95 162.2 128.876953125 162.5984375 128.8 162.95 127.45 168.75 126.6 172.4 125.85 175.55 125.4 178.25 125.3693359375 178.6640625 125.3 179 126.00390625 176.548828125 127.15 171.85
M 131.55 144.35
Q 131.4884765625 144.9916015625 131.4 145.65 130.85 149.9 130.2 153.95 129.513671875 158.616796875 128.95 162.2 130.358984375 155.5560546875 131.45 145.5 131.5271484375 144.9208984375 131.55 144.35
M 129.65 48.15
Q 129.45 46.85 129.05 45.75 128.2 43.35 128.35 44.35 128.55 45.35 128.9 50.85 129.1 52.75 129.35 55.05 130.15 64.9 131.2 72.6 131.6 75.85 131.95 79.3 133.2 91.1 133.45 107.55 133.45 108.5 133.4 109.4 133.1 124.9 131.6 144 131.588671875 144.1708984375 131.55 144.35 134.6041015625 121.4890625 134.75 108.8 134.7 90.8 134 79.95 133.75 76.75 133.45 73.75 132.65 65.65 132 61.3 131.4 56.8 130.75 52.6 130.5 50.6 129.65 48.15 Z"/>
</g>

<g id="Water_body_draw_0_Layer2_0_FILL">
<path fill="#0087FF" stroke="none" d="
M 86 10.3
Q 87.4 7.75 86.55 4.65 86.467578125 4.335546875 86.35 4 86.0291015625 4.27109375 85.65 4.5 79.9048828125 8.35546875 77.25 8.8 73.8 9.5 69.95 9.2 66.75 8.8 65.15 8.55 62.25 8.2 60.3 8.3 57 8.6 52.15 10.85 46.05 13.7 44.15 14.25 37.95 16.05 31.8 14.1 30.05 13.55 27.35 12.3 24.00625 10.75390625 17.4 8.8 10.83125 6.88828125 0.85 6.55 0.73125 6.5458984375 0.6 6.55 -0.1740234375 7.99296875 0.05 9.3 0.3 10.85 1.8 12 3.05 13 4.95 13.5 6.9 14.1 10.95 14.6 15.05 15.15 17 15.7 19.3 16.35 24.4 18.8 29.1 21.05 31.95 21.6 34.05 22.05 38.45 22.05 42.6 22.05 44.95 21.5 47.2 20.95 53.1 18 58.1 15.45 61.4 15.35 62.95 15.3 65.45 15.8 68.5 16.4 69.5 16.5 72.55 16.75 76.35 16 83.7 14.55 86 10.3 Z"/>
</g>

<g id="Water_body_draw_0_Layer1_0_FILL">
<path fill="#00A3FF" fill-opacity="0.9882352941176471" stroke="none" d="
M 0.4 -0.75
Q 1.65 -2.6 1.8 -3.5 1.45 -3.45 0.75 -3.45 -0.15 -2.15 -2.3 0.3 -3.9 2.5 -3.6 4.4 -3.35 6.1 -1.7 7.35 -0.4 8.45 1.65 9 3.75 9.65 8.1 10.2 12.45 10.8 14.55 11.4 17.05 12.1 22.5 14.75 27.55 17.2 30.6 17.8 32.85 18.3 37.55 18.3 42 18.3 44.5 17.7 46.9 17.1 53.25 13.9 58.6 11.1 62.15 11 63.8 10.95 66.45 11.5 69.75 12.15 70.8 12.25 74.1 12.5 78.15 11.7 86 10.1 88.5 5.5 90 2.7 89.1 -0.7 88.2 -4 78.8 -5 85.55 -3.1 85.2 -1.55 84.75 0.75 83.4 2 81.95 3.35 79.1 3.85 75.4 4.6 71.3 4.3 67.85 3.85 66.15 3.6 63.05 3.2 60.95 3.3 57.4 3.65 52.2 6.1 45.7 9.2 43.65 9.8 37 11.75 30.4 9.65 28.55 9.05 25.65 7.65 22.05 6 20.95 5.5 13.5 2.65 3.25 3.2 0.75 3.3 0.1 2.2 -0.6 1.2 0.4 -0.75 Z"/>
</g>

<g id="Water_body_draw_0_Layer0_0_FILL">
<path fill="#FFFFFF" fill-opacity="0.9882352941176471" stroke="none" d="
M 7.35 2.2
Q 6.05 1.8 5.3 1.85 4.15 2.05 3.6 2.05 3 2.05 2.2 1.7 1.55 1.4 1.25 1.25 0.65 1 0.2 1 -0.45 0.9 -0.85 1.45 -1.1 1.95 -0.8 2.5 -0.65 2.85 -0.05 3.35 0.25 3.8 1 4.25 1.8 4.75 3.4 4.95 7.05 5.3 9.4 3.8 9.35 3.2 8.65 2.7 8.15 2.35 7.35 2.2
M 83.75 -2.4
Q 83.25 -2.95 82.75 -3.15 82.1 -3.4 81.75 -3 82.45 -2.55 82.45 -1.5 82.45 -0.55 81.8 0.1 80.95 1.1 78.6 1.6 75.35 2.3 68.7 2.7 62 3.15 58.75 3.8 58.3 3.85 57.95 4.15 57.6 4.45 57.8 4.8 57.95 5.05 58.5 5.15
L 68.35 6.7
Q 71.55 7.2 73.15 7.2 74 7.2 78.1 6.55 80.1 6.2 80.75 6.05 82.25 5.7 83.25 5.1 84.5 4.4 85.2 3.25 85.95 2 85.75 0.75 85.55 -0.35 83.75 -2.4 Z"/>
</g>

<g id="Water_Body_Shell_0_Layer0_0_FILL">
<path fill="#000000" stroke="none" d="
M 100.9 -2.05
Q 99.65 -2.4 86.35 -2.65 70.35 -2.9 68.25 -3 60.1 -3.45 41.35 1.75 21.7 7.2 15.55 12.35 10.95 16.25 4.25 34.4 -2.8 53.5 -1.15 60.95 0.4 68.55 9.45 85.7 18.1 102.15 21.7 105.3 30.45 113 46.7 115 52.8 115.8 67.75 110.55 83.4 105.05 85.65 100.35 87.45 96.55 88.8 81.35 88.848046875 81.3494140625 88.9 81.35 91.2 81.4 99.6 76.35 108.3 71.1 111.15 67.6 112.6 65.85 116.6 53.3 121.1 39.2 121.35 32.35 121.4 29.65 120.2 22.75 119 16.1 118.25 14.4 117.1 11.9 111.15 5.8 104.45 -1.05 100.9 -2.05
M 92.45 6.4
Q 97.25 7.2 100.45 10.55 102.1 12.25 103.7 15.2 108.35 23.55 109.25 33.3 110.1 43.1 107 52.1 105.85 55.45 104.3 58.35 101.85 62.85 98.45 66.2 93.65 71.05 88.05 72.4 84.95 73.1 81.95 72.6 78.75 72 76.4 70.2 74.75 68.9 72.15 64.55 70.15 61.25 69.55 59.75 68.1 55.5 68.05 55.3 67.9 54.7 67.8 54.05 67.65 53.3 67.25 50.6 66.9 47.75 66.85 46.8 66.6 43.45 69.4 31.45 72.25 19 74.2 16.6 75.5 15 77.85 12.8 81.95 9 83.65 7.9 87.55 5.6 92.45 6.4
M 71.45 13.25
Q 67.95 18.9 66.25 24.7 65.65 26.65 64.4 34.9 62.95 44.5 63.2 48.35 63.25 49.15 56.45 44.3 55.4 43.55 52.25 41.75 49.25 40.15 47.6 39.7 47.4 39.65 47.2 39.6 45.45 39.15 41.85 38.95 37.05 38.75 35.05 39.65 33.25 40.45 30.6 43.3 28.4 45.65 27.35 47.05 25.7 49.25 25 51.3 24.05 53.85 24.05 59 24.05 62.65 24.45 64.4 24.75 66 25.75 68.25 27.6 72.45 29.6 74.65 31.75 77.05 34.4 77.8 35 81.5 35.25 81.6 35.55 81.2 36.05 79.65 36.5 78.2 36.5 78.15 37.45 78.2 38.35 78.05 39.15 77.85 39.95 77.6 40.8 77.3 43.25 74.6 45.9 71.7 46.4 70.15 48.1 64.85 46 59.7 45.7 59 45.35 58.4 44.15 56.2 42.3 55.2 40.9 54.5 39.4 54.6 37.8 54.7 36.75 55.7 35.8 56.6 36.9 59.35 38.1 62.4 38.2 61.55 38.85 60.65 39.6 59.8 41.05 58.15 41.55 58.55 42.4 59.3 43.1 61.3 44.6 66.1 43.25 68.7 42.85 69.4 41.65 70.9 40.35 72.55 39.85 72.9 38.9 73.5 36.55 73.1
L 34.1 71.45
Q 34 71.4 32.9 70 31.75 68.6 31.5 68.2 30.95 67.1 29.95 62.95
L 29.05 59.05
Q 29.05 59 29.05 58.95 29.05 58.8 29.05 58.7 29 57.9 30.1 54.5 31.05 51.4 31.35 50.9 32.35 49.25 36.15 46.6 39.75 44.05 40.95 43.9 42.35 43.7 45.3 43.85 48 43.95 48.35 44.1
L 48.35 44.05 49.15 44.45
Q 50.6837890625 45.1470703125 52.15 45.9 61.75 53.95 62 54.3 63.35 56.15 65 59.15
L 66.8 63.25
Q 68.95 67.75 70.4 69.8 71.25 71 74.1 73.35 76.75 75.55 77.5 75.85 77.7 79.95 76.5 84.15 75.2 88.6 72.6 92.35 71.95 93.25 69.4 95.8 66.65 98.55 65.45 99.4
L 59.65 102.45
Q 53.6 104.95 47.05 104.85 42.25 104.8 37.25 103.45 32.3 102.2 28.45 100.05 22.95 96.8 17.65 89.6 11.75 81.65 8.45 72.9 4.9 63.6 4.6 54.3 4.3 44.85 7.45 36.2 13.45 24 17.95 19.7 21.7 16.1 26.9 13 32.9 9.45 39.35 7.4 38.55 8.2 37.45 9.55 36.45 10.75 36.25 11.15 35.95 11.5 35.8 12.75 35.65 14 35.95 14.3 43.45 6.3 43.4 6.25
L 47.9 5.3
Q 50.05 4.95 52.3 4.75 51.95 5.1 48.95 11.45 46 17.8 45.9 18.3 45.85 18.65 45.85 18.95 45.9 18.95 45.9 19 46.15 19.05 51.75 12.2 57.4 5.3 57.4 4.65 57.4 4.6 57.4 4.55 60 4.5 64.2 4.5 59.7 7.35 57.75 10.25
L 55.75 14.45
Q 55.4326171875 15.3482421875 54.75 19.2 53.9 24 54.35 25.65 55.3 22.9 56.8 19.35 59.8 12.1 62.9 9.55 65.45 7.45 70.9 5.1 78.1 4.4 78.15 4.45 77.4 5.15 74.85 8.5 72.25 11.9 71.45 13.25
M 44.05 79.9
Q 42.05 76.7 42 76.85 41.85 77.1 43.35 80.75 44.85 84.35 45.2 84.3 45.85 84.2 46.25 83.6
L 46 83.1
Q 45.05 81.5 44.05 79.9 Z"/>

<path fill="#CD7171" fill-opacity="0.9882352941176471" stroke="none" d="
M 69.4 95.8
Q 71.95 93.25 72.6 92.35 63.05 96.75 63.1 96.8
L 64.05 97.85 64.1 97.85
Q 64.35 98.05 64.9 98.65 65.55 99.3 65.45 99.4 66.65 98.55 69.4 95.8
M 52.3 4.75
Q 50.05 4.95 47.9 5.3 45.95 11.95 45.9 18.3 46 17.8 48.95 11.45 51.95 5.1 52.3 4.75
M 57.4 4.55
Q 57.4 4.6 57.4 4.65 57.4 5.3 51.75 12.2 46.15 19.05 45.9 19
L 46.2 23.35
Q 46.35 23.35 50.1 19.85 54.15 16.05 55.5 15.15 55.640625 14.775 55.75 14.45
L 57.75 10.25
Q 59.7 7.35 64.2 4.5 60 4.5 57.4 4.55
M 71.45 13.25
Q 72.25 11.9 74.85 8.5 77.4 5.15 78.15 4.45 78.1 4.4 70.9 5.1 65.45 7.45 62.9 9.55 59.8 12.1 56.8 19.35 55.3 22.9 54.35 25.65 54 29.4 54.9 29.95 55.25 30.15 59.7 23.75 64.55 16.7 65.95 15.7 67.35 14.6 71.45 13.25
M 104.95 36.9
Q 104.55 36.95 103.05 43.45 102.3 46.8 101.35 50.9 101 52.2 99.05 55.6 97.2 58.75 96.4 59.65 95.45 60.75 91.35 63.1 87.15 65.45 85.55 65.7 83.65 66 78.95 64.45 74.4 62.95 74.75 62.8 79.6 61.5 81.95 57.5 81.2 56.9 74.8 56.15 68.15 55.35 68.05 55.3 68.1 55.5 69.55 59.75 70.15 61.25 72.15 64.55 74.75 68.9 76.4 70.2 78.75 72 81.95 72.6 84.95 73.1 88.05 72.4 93.65 71.05 98.45 66.2 101.85 62.85 104.3 58.35 106.6 39.85 104.95 36.9 Z"/>

<path fill="#7C5C8C" fill-opacity="0.9882352941176471" stroke="none" d="
M 45.35 58.4
Q 45.7 59 46 59.7 48.1 64.85 46.4 70.15 45.9 71.7 43.25 74.6 40.8 77.3 39.95 77.6 40.8 81.7 43.25 85.2 43.8 86 45.65 86.15 47.35 86.25 47.55 85.95 46.75 84.65 46.25 83.6 45.85 84.2 45.2 84.3 44.85 84.35 43.35 80.75 41.85 77.1 42 76.85 42.05 76.7 44.05 79.9 45.05 81.5 46 83.1 45.55 82.2 45.25 79.65 44.85 76.65 45.4 75.55 45.9 74.6 47.3 72.9 48.85 70.5 48.75 66.65 48.6 62.25 46.35 59.45 45.9 58.85 45.35 58.4
M 39.6 59.8
Q 38.85 60.65 38.2 61.55 38.4 61.95 39.1 64.6 39.9 67.65 39.7 68.3 39.45 69 37.2 70.3 34.9 71.6 34.1 71.45
L 36.55 73.1
Q 38.9 73.5 39.85 72.9 40.35 72.55 41.65 70.9 42.85 69.4 43.25 68.7 44.6 66.1 43.1 61.3 42.4 59.3 41.55 58.55 41.05 58.15 39.6 59.8
M 7.9 39.8
Q 7.8 37.45 7.45 36.2 4.3 44.85 4.6 54.3 4.9 63.6 8.45 72.9 11.75 81.65 17.65 89.6 22.95 96.8 28.45 100.05 32.3 102.2 37.25 103.45 42.25 104.8 47.05 104.85 53.6 104.95 59.65 102.45
L 65.45 99.4
Q 65.55 99.3 64.9 98.65 64.35 98.05 64.1 97.85
L 64.05 97.85
Q 53.1 100 42.3 96.9 30.3 93.45 23 84.6 19.3 80.05 16.1 72.9 9.05 57.2 7.9 39.8
M 48.35 44.1
L 49.15 44.45 48.35 44.05 48.35 44.1
M 49.05 36.65
Q 46.1 35.9 44.75 35.75 42.05 35.5 39.4 36
L 32.2 28.55
Q 31.5 28.8 32.05 33.15 32.65 37.3 33.25 38.3 28.15 41.15 25.55 46.05 23.8 49.2 23.05 53.6 22.3 58.55 22.8 63.3 23.3 68.35 25.15 71.7 26.5 74.3 31.9 77.7 31.55 78.4 32.05 83.65 32.65 89.2 33.65 90.05 34.2 89.4 36.25 83.85 38.25 78.35 38.35 78.05 37.45 78.2 36.5 78.15 36.5 78.2 36.05 79.65 35.55 81.2 35.25 81.6 35 81.5 34.4 77.8 31.75 77.05 29.6 74.65 27.6 72.45 25.75 68.25 24.75 66 24.45 64.4 24.05 62.65 24.05 59 24.05 53.85 25 51.3 25.7 49.25 27.35 47.05 28.4 45.65 30.6 43.3 33.25 40.45 35.05 39.65 37.05 38.75 41.85 38.95 45.45 39.15 47.2 39.6 47.4 39.65 47.6 39.7 49.25 40.15 52.25 41.75 55.4 43.55 56.45 44.3 63.25 49.15 63.2 48.35 53.3 39.25 52.05 37.55 51.35 37.3 49.05 36.65 Z"/>

<path fill="#FF7D7D" stroke="none" d="
M 65 59.15
Q 63.35 56.15 62 54.3 61.25 53.95 59.7 53.8 57.75 53.55 57.25 54.15 56.5 54.95 57.4 69.05 58.35 84.6 60.8 92 61.925390625 95.2353515625 63.1 96.8 63.05 96.75 72.6 92.35 75.2 88.6 76.5 84.15 77.7 79.95 77.5 75.85 76.75 75.55 74.1 73.35 71.25 71 70.4 69.8 68.95 67.75 66.8 63.25
L 65 59.15
M 66.25 24.7
Q 67.95 18.9 71.45 13.25 67.35 14.6 65.95 15.7 64.55 16.7 59.7 23.75 55.25 30.15 54.9 29.95 54 29.4 54.35 25.65 53.9 24 54.75 19.2 55.4326171875 15.3482421875 55.75 14.45 55.640625 14.775 55.5 15.15 54.15 16.05 50.1 19.85 46.35 23.35 46.2 23.35 46.5 25.7 48.85 31.15 51 36.15 52.05 37.55 53.3 39.25 63.2 48.35 62.95 44.5 64.4 34.9 65.65 26.65 66.25 24.7 Z"/>

<path fill="#B78DCB" stroke="none" d="
M 47.9 5.3
L 43.4 6.25
Q 43.45 6.3 35.95 14.3 35.65 14 35.8 12.75 35.95 11.5 36.25 11.15 36.45 10.75 37.45 9.55 38.55 8.2 39.35 7.4 32.9 9.45 26.9 13 21.7 16.1 17.95 19.7 13.45 24 7.45 36.2 7.8 37.45 7.9 39.8 9.05 57.2 16.1 72.9 19.3 80.05 23 84.6 30.3 93.45 42.3 96.9 53.1 100 64.05 97.85
L 63.1 96.8
Q 61.925390625 95.2353515625 60.8 92 58.35 84.6 57.4 69.05 56.5 54.95 57.25 54.15 57.75 53.55 59.7 53.8 61.25 53.95 62 54.3 61.75 53.95 52.15 45.9 50.6837890625 45.1470703125 49.15 44.45
L 48.35 44.1
Q 48 43.95 45.3 43.85 42.35 43.7 40.95 43.9 39.75 44.05 36.15 46.6 32.35 49.25 31.35 50.9 31.05 51.4 30.1 54.5 29 57.9 29.05 58.7 29.05 58.8 29.05 58.95 29.05 59 29.05 59.05
L 29.95 62.95
Q 30.95 67.1 31.5 68.2 31.75 68.6 32.9 70 34 71.4 34.1 71.45 34.9 71.6 37.2 70.3 39.45 69 39.7 68.3 39.9 67.65 39.1 64.6 38.4 61.95 38.2 61.55 38.1 62.4 36.9 59.35 35.8 56.6 36.75 55.7 37.8 54.7 39.4 54.6 40.9 54.5 42.3 55.2 44.15 56.2 45.35 58.4 45.9 58.85 46.35 59.45 48.6 62.25 48.75 66.65 48.85 70.5 47.3 72.9 45.9 74.6 45.4 75.55 44.85 76.65 45.25 79.65 45.55 82.2 46 83.1
L 46.25 83.6
Q 46.75 84.65 47.55 85.95 47.35 86.25 45.65 86.15 43.8 86 43.25 85.2 40.8 81.7 39.95 77.6 39.15 77.85 38.35 78.05 38.25 78.35 36.25 83.85 34.2 89.4 33.65 90.05 32.65 89.2 32.05 83.65 31.55 78.4 31.9 77.7 26.5 74.3 25.15 71.7 23.3 68.35 22.8 63.3 22.3 58.55 23.05 53.6 23.8 49.2 25.55 46.05 28.15 41.15 33.25 38.3 32.65 37.3 32.05 33.15 31.5 28.8 32.2 28.55
L 39.4 36
Q 42.05 35.5 44.75 35.75 46.1 35.9 49.05 36.65 51.35 37.3 52.05 37.55 51 36.15 48.85 31.15 46.5 25.7 46.2 23.35
L 45.9 19
Q 45.9 18.95 45.85 18.95 45.85 18.65 45.9 18.3 45.95 11.95 47.9 5.3 Z"/>

<path fill="#723B3B" fill-opacity="0.9882352941176471" stroke="none" d="
M 84.8 37.65
Q 87.2 28.6 86.75 26.3 86.5 24.9 82.25 18.8 78.35 13.2 77.85 12.8 75.5 15 74.2 16.6 72.25 19 69.4 31.45 66.6 43.45 66.85 46.8 66.9 47.75 67.25 50.6 67.65 53.3 67.8 54.05 68.45 54.1 72.9 52.95 77.6 51.75 78.45 51.1 82 48.1 84.8 37.65 Z"/>

<path fill="#B52E2E" stroke="none" d="
M 100.45 10.55
Q 97.25 7.2 92.45 6.4 87.55 5.6 83.65 7.9 81.95 9 77.85 12.8 78.35 13.2 82.25 18.8 86.5 24.9 86.75 26.3 87.2 28.6 84.8 37.65 82 48.1 78.45 51.1 77.6 51.75 72.9 52.95 68.45 54.1 67.8 54.05 67.9 54.7 68.05 55.3 68.15 55.35 74.8 56.15 81.2 56.9 81.95 57.5 79.6 61.5 74.75 62.8 74.4 62.95 78.95 64.45 83.65 66 85.55 65.7 87.15 65.45 91.35 63.1 95.45 60.75 96.4 59.65 97.2 58.75 99.05 55.6 101 52.2 101.35 50.9 102.3 46.8 103.05 43.45 104.55 36.95 104.95 36.9 106.6 39.85 104.3 58.35 105.85 55.45 107 52.1 110.1 43.1 109.25 33.3 108.35 23.55 103.7 15.2 102.1 12.25 100.45 10.55 Z"/>
</g>

<g id="Water_Body_Eyes_0_Layer0_0_FILL">
<path fill="#000000" fill-opacity="0.9882352941176471" stroke="none" d="
M 66.2 -3.95
Q 63.4 -7.75 59.4 -7.75 55.45 -7.75 52.65 -3.95 49.85 -0.15 49.85 5.15 49.85 10.45 52.65 14.25 55.45 18.05 59.4 18.05 63.4 18.05 66.2 14.25 69 10.45 69 5.15 69 -0.15 66.2 -3.95
M 64.1 0.85
Q 65.6 3.1 65.6 6.2 65.6 9.35 64.1 11.55 62.65 13.8 60.55 13.8 58.5 13.8 57 11.55 55.55 9.35 55.55 6.2 55.55 3.1 57 0.85 58.5 -1.4 60.55 -1.4 62.65 -1.4 64.1 0.85
M 21.05 -0.8
Q 16.95 -5.85 11.15 -5.85 5.4 -5.85 1.3 -0.8 -2.75 4.3 -2.75 11.4 -2.75 18.55 1.3 23.6 5.4 28.65 11.15 28.65 16.95 28.65 21.05 23.6 25.15 18.55 25.15 11.4 25.15 4.3 21.05 -0.8
M 12.5 0.35
Q 15.75 0.35 18.05 3.35 20.4 6.4 20.4 10.75 20.4 15.1 18.05 18.15 15.75 21.2 12.5 21.2 9.3 21.2 6.95 18.15 4.65 15.1 4.65 10.75 4.65 6.4 6.95 3.35 9.3 0.35 12.5 0.35 Z"/>

<path fill="#FFFFFF" fill-opacity="0.9882352941176471" stroke="none" d="
M 65.6 6.2
Q 65.6 3.1 64.1 0.85 62.65 -1.4 60.55 -1.4 58.5 -1.4 57 0.85 55.55 3.1 55.55 6.2 55.55 9.35 57 11.55 58.5 13.8 60.55 13.8 62.65 13.8 64.1 11.55 65.6 9.35 65.6 6.2
M 18.05 3.35
Q 15.75 0.35 12.5 0.35 9.3 0.35 6.95 3.35 4.65 6.4 4.65 10.75 4.65 15.1 6.95 18.15 9.3 21.2 12.5 21.2 15.75 21.2 18.05 18.15 20.4 15.1 20.4 10.75 20.4 6.4 18.05 3.35 Z"/>
</g>

<g id="Catapult_Shield_copy_0_Layer0_0_FILL">
<path fill="#000000" stroke="none" d="
M 78.15 28
Q 78 27.45 57.6 13.6 36.55 -0.7 34.15 -0.6 31.9 -0.55 14.85 12.9 -2.8953125 26.9470703125 -3.7 30.4 -4.4646484375 33.858203125 9.55 57.6 15.6 67.85 27.3 78 36.75 86.2 39.55 86.85 42.787109375 87.58984375 61.2 61.8 79.66875 36.0125 78.15 28
M 68.7 36.05
Q 66.85 40.65 65.35 43.5 58.75 56.5 49.75 67.9 47.5 70.8 42.8 75.15 37.75 79.8 36.55 79.75 36.15 79.7 29.3 73.5 22.2 67.1 20.85 65.35 15.75 58.9 11.95 50.05 9.85 45.15 7.8 38.45 7.15 36.35 6.5 33.65 5.6 29.9 5.85 28.95 6.15 28 19.75 16.2 33.45 4.25 34.55 4.3 35.4 4.4 52.85 16.75 70.4 29.2 70.55 30.05 70.75 30.85 68.7 36.05
M 64.2 33.55
Q 65.2 30.7 64.4 29.25 63.85 28.2 49.85 20.15 35.4 11.85 33.5 12.4 32 12.85 21.3 21.25 10.35 29.8 10.3 31 10.25 31.8 12.85 38.45 15.65 45.5 17.5 48.8 18.65 50.75 28.15 61.3 38.1 72.25 39.1 71.95 40.4 71.55 50.15 57.65 60.95 42.15 64.2 33.55
M 48 22.85
Q 61.5 30.3 61.45 30.35 60.1 37 57 43.4 55.1 47.35 48.7 56.6 48.05 57.5 43.3 63.95 38.8 69.95 38.55 70 37.8953125 70.235546875 36.2 68.3 36 68.2 26.3 54.5 16.3 40.5 15.75 39.1 13.4 33.7 13.1 29.5 19.1 26.55 31.25 17.55
L 34.2 15.55
Q 34.5 15.4 48 22.85 Z"/>

<path fill="#666666" stroke="none" d="
M 20.85 65.35
Q 22.2 67.1 29.3 73.5 36.15 79.7 36.55 79.75 37.75 79.8 42.8 75.15 47.5 70.8 49.75 67.9 58.75 56.5 65.35 43.5 38.8 75.95 38.1 75.85 37.65 75.8 27.3 65.35 16.6 54.6 15.7 52.75 11.95 45.35 7.8 38.45 9.85 45.15 11.95 50.05 15.75 58.9 20.85 65.35 Z"/>

<path fill="#CCCCCC" stroke="none" d="
M 65.35 43.5
Q 66.85 40.65 68.7 36.05 70.75 30.85 70.55 30.05 70.4 29.2 52.85 16.75 35.4 4.4 34.55 4.3 33.45 4.25 19.75 16.2 6.15 28 5.85 28.95 5.6 29.9 6.5 33.65 7.15 36.35 7.8 38.45 11.95 45.35 15.7 52.75 16.6 54.6 27.3 65.35 37.65 75.8 38.1 75.85 38.8 75.95 65.35 43.5
M 64.4 29.25
Q 65.2 30.7 64.2 33.55 60.95 42.15 50.15 57.65 40.4 71.55 39.1 71.95 38.1 72.25 28.15 61.3 18.65 50.75 17.5 48.8 15.65 45.5 12.85 38.45 10.25 31.8 10.3 31 10.35 29.8 21.3 21.25 32 12.85 33.5 12.4 35.4 11.85 49.85 20.15 63.85 28.2 64.4 29.25 Z"/>

<path fill="#3333CC" stroke="none" d="
M 25.35 24.05
Q 28.3 20.8 31.25 17.55 19.1 26.55 13.1 29.5 13.4 33.7 15.75 39.1 16.3 40.5 26.3 54.5 36 68.2 36.2 68.3 31.6 61.3 25.1 46.05 19.2 32.3 19.4 31.15 19.55 30.55 25.35 24.05 Z"/>

<path fill="#FFFFFF" stroke="none" d="
M 52.3 31.55
Q 52.5 32.05 50.75 44 49 55.65 48.7 56.6 55.1 47.35 57 43.4 60.1 37 61.45 30.35 61.5 30.3 48 22.85 34.5 15.4 34.2 15.55 34.65 21.7 38.8 57.65 41.55 41.55 40.55 25.35 43.5 26.65 47.55 28.7 52.05 31.05 52.3 31.55 Z"/>

<path fill="#0099FF" stroke="none" d="
M 50.75 44
Q 52.5 32.05 52.3 31.55 52.05 31.05 47.55 28.7 43.5 26.65 40.55 25.35 41.55 41.55 38.8 57.65 34.65 21.7 34.2 15.55
L 31.25 17.55
Q 28.3 20.8 25.35 24.05 19.55 30.55 19.4 31.15 19.2 32.3 25.1 46.05 31.6 61.3 36.2 68.3 37.8953125 70.235546875 38.55 70 38.8 69.95 43.3 63.95 48.05 57.5 48.7 56.6 49 55.65 50.75 44 Z"/>
</g>
</defs>

<g transform="matrix( 0.6446075439453125, 0, 0, 0.6446075439453125, 460.2,498.55) ">
<g transform="matrix( 1, 0, 0, 1, -18.95,-259.95) ">
<g transform="matrix( 1, 0, -0.02899169921875, 0.947479248046875, 8.75,20.4) ">
<g transform="matrix( 1, 0, 0, 1, 0,0) ">
<use xlink:href="#water_body_2_Layer4_0_FILL"/>
</g>

<g transform="matrix( 1, 0, 0, 1, 0,0) ">
<use xlink:href="#water_body_2_Layer3_0_FILL"/>
</g>

<g transform="matrix( 1, 0, 0, 1, 0,0) ">
<use xlink:href="#water_body_2_Layer2_0_FILL"/>
</g>

<g transform="matrix( 1, 0, 0, 1, 0,0) ">
<use xlink:href="#water_body_2_Layer1_0_FILL"/>
</g>

<g transform="matrix( 1, 0, 0, 1, 0.9,1.75) ">
<g transform="matrix( 1.3389892578125, -0.390167236328125, 0.390167236328125, 1.3389892578125, 0.75,60) ">
<g transform="matrix( 1, 0, 0, 1, 0,0) ">
<use filter="url(#Filter_1)" xlink:href="#Water_body_draw_0_Layer2_0_FILL"/>
</g>

<g transform="matrix( 1, 0, 0, 1, 0,0) ">
<use filter="url(#Filter_1)" xlink:href="#Water_body_draw_0_Layer1_0_FILL"/>
</g>

<g transform="matrix( 1, 0, 0, 1, 0,0) ">
<use filter="url(#Filter_1)" xlink:href="#Water_body_draw_0_Layer0_0_FILL"/>
</g>
</g>
</g>

<g transform="matrix( 1, 0, 0, 1, 0.9,1.75) ">
<g transform="matrix( 0.8483428955078125, -0.06640625, 0.06640625, 0.8483428955078125, 61.6,156.1) ">
<g transform="matrix( 1, 0, 0, 1, 0,0) ">
<use filter="url(#Filter_1)" xlink:href="#Water_body_draw_0_Layer2_0_FILL"/>
</g>

<g transform="matrix( 1, 0, 0, 1, 0,0) ">
<use filter="url(#Filter_1)" xlink:href="#Water_body_draw_0_Layer1_0_FILL"/>
</g>

<g transform="matrix( 1, 0, 0, 1, 0,0) ">
<use filter="url(#Filter_1)" xlink:href="#Water_body_draw_0_Layer0_0_FILL"/>
</g>
</g>
</g>

<g transform="matrix( 1, 0, 0, 1, 0.9,1.75) ">
<g transform="matrix( 1.64996337890625, 0.019134521484375, -0.0147552490234375, 1.27215576171875, 5.25,228.75) ">
<g transform="matrix( 1, 0, 0, 1, 0,0) ">
<use filter="url(#Filter_2)" xlink:href="#Water_body_draw_0_Layer2_0_FILL"/>
</g>

<g transform="matrix( 1, 0, 0, 1, 0,0) ">
<use filter="url(#Filter_2)" xlink:href="#Water_body_draw_0_Layer1_0_FILL"/>
</g>

<g transform="matrix( 1, 0, 0, 1, 0,0) ">
<use filter="url(#Filter_2)" xlink:href="#Water_body_draw_0_Layer0_0_FILL"/>
</g>
</g>
</g>
</g>

<g transform="matrix( 0.9998626708984375, -0.013214111328125, 0.013214111328125, 0.9998626708984375, 44.25,17.35) ">
<g transform="matrix( 1, 0, 0, 1, 0,0) ">
<use xlink:href="#Water_Body_Shell_0_Layer0_0_FILL"/>
</g>
</g>

<g transform="matrix( 1, 0, 0, 1, 42.5,1.6) ">
<g transform="matrix( 1, 0, 0, 1, 0,0) ">
<use xlink:href="#Water_Body_Eyes_0_Layer0_0_FILL"/>
</g>
</g>

<g transform="matrix( 0.9972686767578125, -0.0702056884765625, 0.0702056884765625, 0.9972686767578125, 74.15,111.15) ">
<g transform="matrix( 1, 0, 0, 1, 0,0) ">
<use xlink:href="#Catapult_Shield_copy_0_Layer0_0_FILL"/>
</g>
</g>
</g>
</g>
</svg>
