
<svg xmlns="http://www.w3.org/2000/svg" version="1.1" xmlns:xlink="http://www.w3.org/1999/xlink" preserveAspectRatio="none" x="0px" y="0px" width="1000px" height="1000px" viewBox="0 0 1000 1000">
<defs>
<g id="Bard_22_Layer0_0_FILL">
<path fill="#FA20F7" stroke="none" d="
M 94.55 85.1
Q 93.8 83.9 92.6 83.05 91.4 82.2 90.05 81.9 88.85 81.65 87.45 81.8 85.95 81.95 84.7 82.6 83.65 83.15 83.05 83.95 82.75 83 82.25 81.75 81.4 79.6 81.25 79.1 80.65 77.35 80 73.9 79.6 71.9 78.9 67.9 78.75 67.1 78.35 66.95 78.15 66.85 77.85 66.95 77.65 67 77.35 67.15 76.25 67.75 74.1 68.4 71.8 69.05 70.8 69.55 70.1 69.9 69.85 70.3 69.7 70.6 69.65 71.35 69.6 74.05 69.95 76.05 70.4 78.6 71.55 80.45 71.75 80.7 71.9 80.75 72.35 80.85 72.55 80 72.8 79.2 73.45 78.4 73.85 77.9 74.75 77.05 75.45 76.35 75.9 76 76.55 75.45 77.15 75.15
L 78.1 77.4
Q 78.6 78.5 78.85 79.2 78.9 79.35 79 79.5
L 78.95 79.5
Q 79.1 79.8 79.25 80.35 79.4 80.75 80.85 85.5 81.05 86.1 81.05 86.45 81.05 86.8 80.9 87.65 80.85 87.95 80.8 88.25 81.05 89.25 81.25 89.85 81.55 90.8 81.8 91.2 82.55 92.65 84.35 93.4 85.7 94 87.65 94.1 89.85 94.2 91.45 93.6 93.5 92.9 94.55 91.35 95.45 90.05 95.4 88.3 95.4 86.55 94.55 85.1
M 81.5 86.8
Q 81.55 86.85 81.6 87
L 81.55 87
Q 81.55 86.9 81.5 86.8 Z"/>
</g>
</defs>

<g transform="matrix( 1, 0, 0, 1, 413.85,304) ">
<g transform="matrix( 1, 0, 0, 1, 0,0) ">
<use xlink:href="#Bard_22_Layer0_0_FILL"/>
</g>
</g>
</svg>
