
<svg xmlns="http://www.w3.org/2000/svg" version="1.1" xmlns:xlink="http://www.w3.org/1999/xlink" preserveAspectRatio="none" x="0px" y="0px" width="1000px" height="1000px" viewBox="0 0 1000 1000">
<defs>
<g id="Bard_27_Layer0_0_FILL">
<path fill="#FFD200" stroke="none" d="
M 94.9 85.8
Q 94.9 84.05 94.05 82.6 93.3 81.4 92.1 80.55 90.9 79.7 89.55 79.4 88.35 79.15 86.95 79.3 85.45 79.45 84.2 80.1 83.15 80.65 82.55 81.45 82.25 80.5 81.75 79.25 80.9 77.1 80.75 76.6 80.15 74.85 79.5 71.4 79.1 69.4 78.4 65.4 78.25 64.6 77.85 64.45 77.65 64.35 77.35 64.45 77.15 64.5 76.85 64.65 75.75 65.25 73.6 65.9 71.3 66.55 70.3 67.05 69.6 67.4 69.35 67.8 69.2 68.1 69.15 68.85 69.1 71.55 69.45 73.55 69.9 76.1 71.05 77.95 71.25 78.2 71.4 78.25 71.85 78.35 72.05 77.5 72.3 76.7 72.95 75.9 73.35 75.4 74.25 74.55 74.95 73.85 75.4 73.5 76.05 72.95 76.65 72.65
L 77.6 74.9
Q 78.1 76 78.35 76.7 78.4 76.85 78.5 77
L 78.45 77
Q 78.6 77.3 78.75 77.85 78.9 78.25 80.35 83 80.55 83.6 80.55 83.95 80.55 84.3 80.4 85.15 80.35 85.45 80.3 85.75 80.55 86.75 80.75 87.35 81.05 88.3 81.3 88.7 82.05 90.15 83.85 90.9 85.2 91.5 87.15 91.6 89.35 91.7 90.95 91.1 93 90.4 94.05 88.85 94.95 87.55 94.9 85.8
M 81 84.3
Q 81.05 84.35 81.1 84.5
L 81.05 84.5
Q 81.05 84.4 81 84.3 Z"/>
</g>
</defs>

<g transform="matrix( 1, 0, 0, 1, 413.85,304) ">
<g transform="matrix( 1, 0, 0, 1, 0,0) ">
<use xlink:href="#Bard_27_Layer0_0_FILL"/>
</g>
</g>
</svg>
