
<svg xmlns="http://www.w3.org/2000/svg" version="1.1" xmlns:xlink="http://www.w3.org/1999/xlink" preserveAspectRatio="none" x="0px" y="0px" width="1000px" height="1000px" viewBox="0 0 1000 1000">
<defs>
<g id="Bard_25_Layer0_0_FILL">
<path fill="#00FF5D" stroke="none" d="
M 83.5 72.4
Q 83.1 70.4 82.4 66.4 82.25 65.6 81.85 65.45 81.65 65.35 81.35 65.45 81.15 65.5 80.85 65.65 79.75 66.25 77.6 66.9 75.3 67.55 74.3 68.05 73.6 68.4 73.35 68.8 73.2 69.1 73.15 69.85 73.1 72.55 73.45 74.55 73.9 77.1 75.05 78.95 75.25 79.2 75.4 79.25 75.85 79.35 76.05 78.5 76.3 77.7 76.95 76.9 77.35 76.4 78.25 75.55 78.95 74.85 79.4 74.5 80.05 73.95 80.65 73.65
L 81.6 75.9
Q 82.1 77 82.35 77.7 82.4 77.85 82.5 78
L 82.45 78
Q 82.6 78.3 82.75 78.85 82.9 79.25 84.35 84 84.55 84.6 84.55 84.95 84.55 85.3 84.4 86.15 84.35 86.45 84.3 86.75 84.55 87.75 84.75 88.35 85.05 89.3 85.3 89.7 86.05 91.15 87.85 91.9 89.2 92.5 91.15 92.6 93.35 92.7 94.95 92.1 97 91.4 98.05 89.85 98.95 88.55 98.9 86.8 98.9 85.05 98.05 83.6 97.3 82.4 96.1 81.55 94.9 80.7 93.55 80.4 92.35 80.15 90.95 80.3 89.45 80.45 88.2 81.1 87.15 81.65 86.55 82.45 86.25 81.5 85.75 80.25 84.9 78.1 84.75 77.6 84.15 75.85 83.5 72.4
M 85 85.3
Q 85.05 85.35 85.1 85.5
L 85.05 85.5
Q 85.05 85.4 85 85.3 Z"/>
</g>
</defs>

<g transform="matrix( 1, 0, 0, 1, 413.85,304) ">
<g transform="matrix( 1, 0, 0, 1, 0,0) ">
<use xlink:href="#Bard_25_Layer0_0_FILL"/>
</g>
</g>
</svg>
