
<svg xmlns="http://www.w3.org/2000/svg" version="1.1" xmlns:xlink="http://www.w3.org/1999/xlink" preserveAspectRatio="none" x="0px" y="0px" width="1500px" height="1500px" viewBox="0 0 1500 1500">
<defs>
<g id="Relic_Man_0_Layer0_0_FILL">
<path fill="#000000" stroke="none" d="
M 371.15 4.7
Q 375.95 4.7 376.95 2.25 375.25 0.95 373.2 0
L 248.35 0
Q 249.1 0.25 249.95 0.45 258.7 2.7 270.05 3.4 276.2 3.8 288.75 3.95 284 7.25 280.35 11.9 276.05 17.35 273.9 23.85 271.7 30.25 271.9 37.25 272.05 44.2 274.5 50.6 276 54.55 278.75 58.7 277.95 58.6 277.15 58.6 271.15 58.55 265.35 61.2 259.95 63.6 258.3 67.05 257.4 68.95 257.45 71.3 257.5 73.5 258.4 75.6 259.9 79.1 263.7 82.45 268 86.05 271.9 87.85 274.5 89.1 276.05 89.1 277.15 89.2 278.15 88.7 278.35 88.6 278.6 88.5 278.65 88.6 278.75 88.75 279.3 89.6 280.3 90 281.3 90.4 282.15 90 283.6 89.55 284.15 87.55 284.25 87.1 284.4 85.95 284.55 84.9 284.7 84.35 284.95 82.5 286.55 79.3 288.1 76.05 289 74.45 289.85 73 290.7 71.85 291.25 72.4 291.75 72.8 294.2 74.9 296.55 75.95 298.8 77 302.25 77.75 306.3 78.5 308.25 78.95 313.65 80.35 316.35 81 321.15 82.2 324.55 82.25 328.3 82.25 334 80.75 340.5 78.9 345.4 76.3 345.8 77.2 346.7 78.5 346.85 78.7 346.95 78.9 346 79 345.35 79.55 344.5 80.25 344.25 81.45 344 82.6 344.35 83.8 344.6 84.75 345.2 85.85 346 87.15 346.35 87.75 350.75 95.45 350.5 104.15 346.7 101.55 343.45 99.75 334.2 94.5 325.55 93.15 304.05 89.8 276.85 109 269.6 114.2 264.15 119.7 263.45 119.65 262.7 119.6 262.45 116.1 263.75 112.8 265.05 109.45 267.6 107.2 269 105.95 271.25 104.65 273.8 103.2 275.05 102.4 278.95 100.15 282.8 96.65 281.35 94.35 276.65 95.85 270.8 97.65 267.9 99.05 263.25 101.35 260.85 104.65 259.4 106.65 258.35 109.6 257.7 111.5 256.85 115 256.2 118.15 256.25 120.15 256.35 123 257.95 124.65 258.4 125.1 259 125.5 257.3 127.6 255.85 129.8 246.85 143.35 249.4 156.4 241.35 153.25 231.95 154 223.4 154.65 215.3 158.3 214.95 158.45 214.65 158.6 200.1 165.55 187.85 181.6 172.35 201.85 166.9 227.75 161.5 253.55 167.5 278.4 168.05 280.65 168.2 281.8 168.4 283.7 167.85 285.1 167.1 287.25 164.55 288.65 162.85 289.6 159.6 290.55 127.15 299.85 88.65 317.25 65.65 327.65 20.35 350.8 12.55 354.75 8.55 357.75 2.5 362.35 0 367.9 48.1 343.2 98 319.75 116.3 311.1 127.25 306.95 143.7 300.75 157.85 298.65 164.15 297.7 167.05 296.65 172 294.9 173.9 291.3 175.35 288.55 175 284.6 174.8 282.1 173.6 277.6 168.15 254.55 172.7 230.75 177.2 206.9 190.65 187.65 201.8 171.6 215.3 165.05 217.5 163.95 219.8 163.15 229.25 159.75 239 161.4 249.3 163.2 255.7 170 253.25 153.95 259.75 138.25 262.3 132.05 265.95 126.8 273.5 126.8 277.5 125.55 279.65 124.9 284.9 122.15 289.5 119.7 292.4 119.15 292.55 122 293.4 125.35 293.95 127.35 295.3 131.3 296.4 134.5 297.35 136.2 298.8 138.8 300.8 140.05 304.2 142.1 309.35 140.85 313.85 139.85 317.65 136.9 321.4 134 323.55 129.95 324.6 127.85 325.1 126.8 326.05 124.9 326.9 123.75 329.2 120.8 333.75 119.45 336.9 118.55 342.2 118.25 344.65 118.15 345.55 118.05 347.45 117.85 348.85 117.35 351.1 116.5 352.85 114.7 358.9 119.3 365.4 125.8 377.25 138.5 384.45 145.55 386 147.05 387.3 148.3 393.5 154.25 395.3 156.3 399.4 161.1 400.7 165.8 402.2 171.15 400.35 178.7 399.35 183 396.65 191.5 393 205.5 395.9 222.85 398.05 235.7 404.65 253.75 406.55 259.05 408.2 262 410.6 266.35 413.85 268.7 416.45 270.65 421.5 272.4 427.85 274.55 429.65 275.45 437.05 279.2 446.05 292.9 450.75 300 453.15 302.95 457.45 308.2 462.15 310.9 458.45 293.8 446.15 280.3 433.8 266.7 417.15 261.4 415.95 255.95 413.1 248.7 409.65 240.4 408 236.25 401.9 221 402.5 210.75 402.8 204.9 406.6 192.55 410.15 180.9 410.05 174.35 409.9 163.65 402.7 152.65 397.4 144.55 387 134.65 385.75 133.45 384.45 132.25 372.1 120.65 359.4 110.8 357.85 109.6 356.4 108.45 357.3 105.8 357.5 102.7 357.9 95.6 355.7 89.1 355.4 88.15 355.05 87.3
L 360.75 87.5
Q 364.95 87.6 367.2 87.05 371.4 85.8 374.7 81.1 376.7 77.95 376.95 75.6 377.15 72.3 375.05 68.75 372.7 64.7 369.3 62.65 365.1 60.15 359.95 60.95 359.85 60.95 359.8 61 360.1 60.1 360.35 59.2 361.8 54.35 361.25 47.35 360.45 36.15 356.75 25.45 353.05 14.75 346.8 5.5 346.45 4.95 346.1 4.45 360.65 4.6 371.15 4.7
M 335.7 5.65
Q 336.9 6.95 338.5 9.45 343.5 17.25 347.3 25.1 349.75 30.15 350.45 33.65 350.7 35 350.9 37.6 351.1 40.3 351.3 41.5 352.55 47.85 353 51.05 353.85 56.6 352.45 60.3 350.8 64.55 345.8 67.9 345.35 67.6 344.55 67.05 342.9 66.25 342.2 66.4 341.65 66.5 341.25 66.95 340.85 67.45 340.75 68.05 340.65 69.15 341.7 70.3 337.45 72.45 332.55 73.55 327.5 74.55 321.85 74.25 316.9 74.1 312.3 73.15 303.75 71.25 296.75 66.25 291.25 62.4 287.3 57.05 283.15 51.5 281.25 45.2 279.35 38.7 279.9 32 280.45 25.1 283.5 19.25 286.65 13.3 292 9.05 296.35 5.65 301.35 4.05 302.05 4.05 302.8 4.05 302.5 4.45 302.35 5 302 6.35 302.75 7.3 303.55 8.2 304.85 8.45 306.05 8.7 307.25 8.35 308.75 7.95 311.6 6.05 313.3 4.95 315.15 4.15 325.4 4.25 334.35 4.35 335.05 4.9 335.7 5.65
M 350.1 73.35
Q 351.05 72.65 351.9 71.95 352.8 72.15 354 71.75 354.7 71.5 356.85 70.3 358.9 69.05 361.15 68.75 363.6 68.4 365.6 69.2 367.75 70.15 368.7 72.45 369.7 74.85 368.55 76.75 367.55 78.55 365.1 79.25 363.45 79.75 360.55 79.85 355.35 80 355.25 80 354.45 80.05 353.8 80.15 353.25 78.95 352.25 77.75 351.65 76.95 350.35 75.4 349.75 74.6 349.3 73.95 349.7 73.65 350.1 73.35
M 344 110.95
Q 334.6 111.95 333.15 112.25 327.15 113.5 324 116.8 322.05 118.75 319.7 123.75 317.35 128.8 315.45 130.75 313.6 132.7 310.95 133.75 308.4 134.75 305.65 134.65 303.85 134.45 303.15 133.75 302.75 133.35 302.4 132.3 300.75 127.95 300.15 125.85 299.05 122.25 298.9 119.25 298.85 118.35 298.8 116.55 298.65 115 298.1 114.05 297.15 112.45 295.15 111.8 293.3 111.15 291.35 111.6 289.75 111.95 287.85 113 287.05 113.4 284.6 114.95 280.3 117.45 277.4 118.35 274.95 119.15 271.85 119.55 275.25 115.95 279.35 112.95 292.4 103.3 309.3 101.7 326.2 100.1 340.85 107.2 343.75 108.6 346.75 110.45 345.55 110.85 344 110.95
M 264.9 71.75
Q 265.05 70.7 266.75 69.55 271.2 66.65 276.65 65.8 281.05 65.35 283.1 64.9 283.4 64.85 283.7 64.75 285.4 66.6 287.55 68.75 287.65 68.85 287.75 68.95 286.5 69.9 285.65 70.75 284.2 72.2 282.5 74.5
L 280.55 77.5
Q 278 81.45 277.95 84.95 277.9 85.35 277.95 85.7
L 266.75 75.4
Q 264.45 73.3 264.9 71.75
M 295.85 27.65
Q 295.25 27.15 294.6 27 293.85 26.85 292.95 27.2 292.45 27.3 292.15 27.55 291.9 27.65 291.5 28.15 290.4 30.15 290.9 31.85 291.15 33 292.05 33.75 292.1 33.8 292.7 34.1 292.95 34.2 293.6 34.2 295.3 34.2 296.1 33.95 297.55 33.4 297.9 32.3 298.25 31.5 297.75 30.15 297.15 28.6 295.85 27.65
M 327 48.65
Q 326.65 48.55 326.3 48.5 326.05 48.35 325.8 48.25 323.85 47.35 319.4 47.15 311.45 46.65 307.25 47.45 302.9 48.4 299.15 50.75 299.3 51.45 299.7 52 298.9 51.95 298.25 52.3 296.2 53.2 296 57.5 295.95 60.25 296.25 61.75 296.7 64.1 298.1 65.35 299.3 66.4 301.35 66.8 302.65 67.05 305 67.05 313.4 67.4 319.7 68.3 324.8 69.05 326.9 68.85 331 68.5 333.1 65.6 334.35 63.75 334.55 60.55 334.8 55.4 332.75 52.4 330.85 49.8 327 48.65
M 324.35 54.8
Q 326.05 55.15 327.4 56.45 328.75 57.7 329.3 59.4 329.7 60.8 329.15 61.55 328.7 62.35 327 62.55 325.4 62.65 321.65 62 311.8 60.35 302.5 60.5 301.9 59.55 302.75 57.75 303.7 55.65 303.6 54.8 303.55 54.35 303.35 53.95 304.45 54.1 306 54 310.35 53.45 312.6 53.2 316.1 52.75 318.45 52.85
L 318.45 52.9
Q 319.15 54 321.05 54.35 323.3 54.6 324.35 54.8
M 326.55 25.2
Q 325.65 24.85 324.9 25.45 324.65 25.6 323.85 26.65 323.45 26.95 323.45 27.35 323.4 27.75 323.55 28.15 324.1 29.75 324.65 30.7 324.8 31.1 325.1 31.3 325.4 31.5 325.8 31.5 327.5 31.6 330.5 30.35 331.75 29.95 332 29.35 332.15 29.15 332.4 28.1 332.4 27.35 332.3 27 332.2 26.7 331.75 26.35 330.05 24.65 326.55 24.65
L 326.55 25.2 Z"/>
</g>
</defs>

<g transform="matrix( 1, 0, 0, 1, 501.15,1040.4) ">
<g transform="matrix( 1, 0, 0, 1, 0,0) ">
<use xlink:href="#Relic_Man_0_Layer0_0_FILL"/>
</g>
</g>
</svg>
