
<svg xmlns="http://www.w3.org/2000/svg" version="1.1" xmlns:xlink="http://www.w3.org/1999/xlink" preserveAspectRatio="none" x="0px" y="0px" width="1000px" height="800px" viewBox="0 0 1000 800">
<defs>
<g id="barren_prop_11_Layer1_0_FILL">
<path fill="#5B564B" stroke="none" d="
M 116.9 297.55
L 109.85 316.65 111.45 319.4 105.55 333.35 105.6 333.55 115.65 331 125.4 298.8 116.9 297.55
M 121.25 286.1
L 119.45 290.75 62.85 294.45 62.4 295.7 148.55 296.25 148.55 298.75 185.5 267.6 182.65 262.75 148.55 292.7 125.65 287.15 124.15 286.8 121.25 286.1
M 77.25 261.35
L 77.85 247.85 74.45 262.1 78.4 270.7 82.05 271.1 77.25 261.35
M 125 254.1
Q 120.1 260.8 124.1 267.95
L 126.2 252.55
Q 125.55 253.3 125 254.1
M 142.75 265.2
L 145.5 267.8 141.7 261.6 136.5 266.3 142.75 265.2
M 107.1 282.35
L 101.4 275.25 99.65 278.85 107.1 282.35
M 115.15 280.2
Q 116.15 279.85 116.15 279.35 116.15 278.85 115.15 278.45 114.2 278.1 112.8 278.1 111.4 278.1 110.4 278.45 109.45 278.85 109.45 279.35 109.45 279.85 110.4 280.2 111.4 280.6 112.8 280.6 114.2 280.6 115.15 280.2
M 90.2 277.7
L 91.5 282.95 96.7 281.4 90.2 277.7
M 102.35 257.5
L 101.5 263.2 96.3 260.5 97.2 257.2 91.55 262.9 104 265.5 108.1 259.4 102.35 257.5
M 132.05 233.15
L 138.85 233.5 134.1 230.15 132.05 233.15 Z"/>

<path fill="#CDC2A6" stroke="none" d="
M 114.55 298.35
L 104.05 297.3 92.7 332.2 105.6 333.55 105.55 333.35 109.9 319.25 104.55 315.8 110.1 313.55 114.55 298.35
M 106.1 244.4
Q 100.9 242.65 95.4 242.4 78.05 241 71.15 257 63.25 275.25 59 294.55
L 62.4 295.7 62.85 294.45 116.9 289.8 120.85 282.7 124.15 286.8 125.65 287.15 147.85 289.1 181.05 259.35 175.65 252.1 169.7 250.55 166.65 252.8 168.85 254.1
Q 170.15 253.3 170.1 254.5 170.1 254.7 170.1 254.85
L 172.65 261.1
Q 168.15 268.65 159.35 269.3 158.55 269.5 157.75 269.7 156.15 270.05 154.55 270.45
L 157.1 246.7 164.4 251.95 169.35 247.05 159.2 236.75 109.3 241.35 106.1 244.4
M 101.5 263.2
L 102.35 257.5 108.1 259.4 104 265.5 91.55 262.9 97.2 257.2 96.3 260.5 101.5 263.2
M 91.5 282.95
L 90.2 277.7 96.7 281.4 91.5 282.95
M 116.15 279.35
Q 116.15 279.85 115.15 280.2 114.2 280.6 112.8 280.6 111.4 280.6 110.4 280.2 109.45 279.85 109.45 279.35 109.45 278.85 110.4 278.45 111.4 278.1 112.8 278.1 114.2 278.1 115.15 278.45 116.15 278.85 116.15 279.35
M 101.4 275.25
L 107.1 282.35 99.65 278.85 101.4 275.25
M 145.5 267.8
L 142.75 265.2 136.5 266.3 141.7 261.6 145.5 267.8
M 124.1 267.95
Q 120.1 260.8 125 254.1 125.55 253.3 126.2 252.55
L 124.1 267.95
M 77.85 247.85
L 77.25 261.35 82.05 271.1 78.4 270.7 74.45 262.1 77.85 247.85
M 129.7 234.1
L 131.55 229.65 116.7 235.25 129.7 234.1 Z"/>

<path fill="#000000" stroke="none" d="
M 147.65 231.6
Q 145.65 231 143.65 230.4 141.3 229.75 139 229.1
L 136 225.55 114.55 230.2 113.4 235.5 104.55 240.05
Q 99.75 239.25 95 238.45 73.3 234.45 66.1 253.75 65.75 254.7 65.45 255.7 59.8 275.95 54.15 296.2
L 100.5 299.3 90.2 334.65 105.6 333.55 92.7 332.2 104.05 297.3 114.55 298.35 110.1 313.55 104.55 315.8 109.9 319.25 105.55 333.35 111.45 319.4 109.85 316.65 116.9 297.55 125.4 298.8 115.65 331 105.6 333.55 118.15 332.4 128.55 300.95 148.55 302.3
Q 161 294.95 171.9 285.35 173.45 283.95 174.85 282.4 182 274.55 189.05 266.65 188.1 261.75 185.05 257.9 170.1 239.25 147.65 231.6
M 138.85 233.5
L 132.05 233.15 134.1 230.15 138.85 233.5
M 131.55 229.65
L 129.7 234.1 116.7 235.25 131.55 229.65
M 95.4 242.4
Q 100.9 242.65 106.1 244.4
L 109.3 241.35 159.2 236.75 169.35 247.05 164.4 251.95 161.7 255.75 166.65 252.8 169.7 250.55 175.65 252.1 181.05 259.35 147.85 289.1 125.65 287.15 148.55 292.7 182.65 262.75 185.5 267.6 148.55 298.75 148.55 296.25 62.4 295.7 59 294.55
Q 63.25 275.25 71.15 257 78.05 241 95.4 242.4
M 170.1 254.5
Q 170.15 253.3 168.85 254.1
L 165.5 255.25 170.1 254.85
Q 170.1 254.7 170.1 254.5
M 119.45 290.75
L 121.25 286.1 124.15 286.8 120.85 282.7 116.9 289.8 62.85 294.45 119.45 290.75 Z"/>

<path fill="#2DBF3A" stroke="none" d="
M 154.55 270.45
Q 156.15 270.05 157.75 269.7 158.55 269.5 159.35 269.3 168.15 268.65 172.65 261.1
L 170.1 254.85 165.5 255.25 168.85 254.1 166.65 252.8 161.7 255.75 164.4 251.95 157.1 246.7 154.55 270.45 Z"/>
</g>
</defs>

<g transform="matrix( 1, 0, 0, 1, 374.95,127.8) ">
<g transform="matrix( 1, 0, 0, 1, 0,0) ">
<use xlink:href="#barren_prop_11_Layer1_0_FILL"/>
</g>
</g>
</svg>
