
<svg xmlns="http://www.w3.org/2000/svg" version="1.1" xmlns:xlink="http://www.w3.org/1999/xlink" preserveAspectRatio="none" x="0px" y="0px" width="1000px" height="800px" viewBox="0 0 1000 800">
<defs>
<g id="barren_prop_23_Layer1_0_FILL">
<path fill="#000000" stroke="none" d="
M 73.45 287.9
Q 49.2205078125 284.920703125 10.45 294.15 10.45 300.65 13.9 306.1 14.55 307.1 15.5 307.75 33.95 319.85 56.35 320.3 79.5 320.8 102.65 321.75 119.05 322.8 135.5 323.9 142.75 324.65 149.95 325.75 163.9 328.15 175.5 320.1 188.3 311.2 183.95 296.4
L 182.9 295.05
Q 177.75 292.95 172.35 291.95 168.75 291.5 165.2 291.75 138.35 293.65 111.6 291.5 97.7294921875 290.879296875 73.45 287.9
M 90.6 292.2
L 95.8 293.3 114.85 297.3 112.2 298.2 100.25 302.5 128.5 297.25 167.8 295.8 162.1 303.45 160.7 306.2 158.8 314.45 160.55 317.8 165.05 320.65 58.15 315.9 57.25 314.95
Q 39.45 316.25 22.55 310.55
L 22.65 308.15
Q 21.8 308.15 21 308.15 15.05 307.5 12.8 302.15
L 14.05 295.3 44.05 292.35 48.45 292.6 90.6 292.2
M 168.25 320.55
L 168.75 318.3 161.5 314.15 164.7 304.6
Q 167.15 299.1 173.2 298.15 178.3 297.2 182.5 300
L 177.35 310.9
Q 177.1 315 174.45 318.1 172.3 320.5 169.05 320.75 168.65 320.6 168.25 320.55
M 66.25 303.55
L 73.6 304.65 91.65 303.7
Q 87.5 303.7 83.65 302.85 70.35 300.4 57.1 303.2
L 66.25 303.55
M 68.3 297.8
L 68.1 297.85 66.45 299.25 69.95 298.35 68.3 297.8
M 90.25 293.7
L 88.2 293.5 79.75 295.55 74.7 297.1
Q 75.75 297.3 76.8 297.55 84.55 299.05 90.25 293.7 Z"/>

<path fill="#7E7356" stroke="none" d="
M 176.1 300.7
Q 175.15 300.65 174.2 300.65 168.3 301.55 166.1 307.1
L 164.7 304.6 161.5 314.15 168.75 318.3 168.25 320.55
Q 168.65 320.6 169.05 320.75 172.3 320.5 174.45 318.1 177.1 315 177.35 310.9
L 174.75 312.3 173.25 306.65 170.15 306.95 171.7 310.25 168.25 306.15
Q 169.45 304.2 171.45 303.35 173.6 302.3 175.8 303.4
L 177.25 305.7 176.1 300.7 Z"/>

<path fill="#CDC2A6" stroke="none" d="
M 174.2 300.65
Q 175.15 300.65 176.1 300.7
L 177.25 305.7 175.8 303.4
Q 173.6 302.3 171.45 303.35 169.45 304.2 168.25 306.15
L 171.7 310.25 170.15 306.95 173.25 306.65 174.75 312.3 177.35 310.9 182.5 300
Q 178.3 297.2 173.2 298.15 167.15 299.1 164.7 304.6
L 166.1 307.1
Q 168.3 301.55 174.2 300.65 Z"/>

<path fill="#AF8362" stroke="none" d="
M 84.6 300.75
Q 83.9 300.8 83.25 300.9 97.9841796875 302.89375 112.2 298.2
L 114.85 297.3 95.8 293.3
Q 92.2 299.95 84.6 300.75
M 88.2 293.5
L 90.6 292.2 48.45 292.6
Q 41.2 297.75 32.4 296.7 30.85 296.45 29.3 296.25
L 44.05 292.35 14.05 295.3 12.8 302.15
Q 36.05 308.15 60 306.55 62 306.6 64.05 306.65
L 51.85 308.35
Q 57.9 312.55 65.2 312.4 108.85 311.55 151.75 304.6
L 135.75 309.95
Q 137.65 311.7 140 312.85 143.55 314.65 147.35 315.2 153.15 316.1 158.8 314.45
L 160.7 306.2 156.1 305.3 162.1 303.45 167.8 295.8 128.5 297.25
Q 107.45 308.45 83.45 305.8 78.55 305.25 73.6 304.65
L 66.25 303.55 48.1 304.45 48.85 302.15 68.1 297.85 68.3 297.8 79.75 295.55 88.2 293.5 Z"/>

<path fill="#70513A" stroke="none" d="
M 156.1 305.3
L 160.7 306.2 162.1 303.45 156.1 305.3
M 57.25 314.95
L 58.15 315.9 165.05 320.65 160.55 317.8 158.8 314.45
Q 153.15 316.1 147.35 315.2 143.55 314.65 140 312.85 137.65 311.7 135.75 309.95
L 151.75 304.6
Q 108.85 311.55 65.2 312.4 57.9 312.55 51.85 308.35
L 64.05 306.65
Q 62 306.6 60 306.55 36.05 308.15 12.8 302.15 15.05 307.5 21 308.15 21.8 308.15 22.65 308.15
L 22.55 310.55
Q 39.45 316.25 57.25 314.95
M 29.3 296.25
Q 30.85 296.45 32.4 296.7 41.2 297.75 48.45 292.6
L 44.05 292.35 29.3 296.25
M 95.8 293.3
L 90.6 292.2 88.2 293.5 90.25 293.7
Q 84.55 299.05 76.8 297.55 75.75 297.3 74.7 297.1
L 79.75 295.55 68.3 297.8 69.95 298.35 66.45 299.25 68.1 297.85 48.85 302.15 48.1 304.45 66.25 303.55 57.1 303.2
Q 70.35 300.4 83.65 302.85 87.5 303.7 91.65 303.7
L 73.6 304.65
Q 78.55 305.25 83.45 305.8 107.45 308.45 128.5 297.25
L 100.25 302.5 112.2 298.2
Q 97.9841796875 302.89375 83.25 300.9 83.9 300.8 84.6 300.75 92.2 299.95 95.8 293.3 Z"/>
</g>
</defs>

<g transform="matrix( 1, 0, 0, 1, 374.95,127.8) ">
<g transform="matrix( 1, 0, 0, 1, 9,0) ">
<use xlink:href="#barren_prop_23_Layer1_0_FILL"/>
</g>
</g>
</svg>
