
<svg xmlns="http://www.w3.org/2000/svg" version="1.1" xmlns:xlink="http://www.w3.org/1999/xlink" preserveAspectRatio="none" x="0px" y="0px" width="1000px" height="800px" viewBox="0 0 1000 800">
<defs>
<g id="barren_prop_28_Layer1_0_FILL">
<path fill="#466A7E" stroke="none" d="
M 119.95 345.6
Q 117.8 346 115.75 345.2
L 111.05 351.3
Q 121.4 355.35 130.5 348.95 131.1 348.55 131.7 348.15
L 127.8 339.7
Q 125.45 344.8 119.95 345.6
M 110.05 341.3
Q 107.8 341.3 106.2 343.05 104.6 344.8 104.6 347.3
L 104.6 347.6 110.05 341.3
M 123.45 315.3
Q 123.1 314.6 122.8 313.95
L 121.45 341.95
Q 130.8 329.3 123.45 315.3
M 139.4 247
L 140.45 245.6
Q 122.35 236.7 103.55 244.15 102.25 244.6 101 245.2
L 103.3 248.7
Q 119.2 252.35 135 248.15 137.2 247.55 139.4 247 Z"/>

<path fill="#9EBAC9" stroke="none" d="
M 115.75 345.2
L 110.05 341.3 104.6 347.6 104.8 347.7 111.05 351.3 115.75 345.2
M 120.4 264.5
L 117.95 264.55
Q 121.05 288.3 117.8 312.1 115.65 327.65 120.1 342.4
L 121.45 341.95 122.8 313.95 120.4 264.5
M 108.65 253.7
L 116.15 261.65
Q 127.4 262.85 134.8 254.4 135.35 253.8 135.9 253.25
L 108.65 253.7
M 105.5 241.2
Q 100.9 243.15 96.85 245.95
L 103.3 248.7 101 245.2
Q 102.25 244.6 103.55 244.15 122.35 236.7 140.45 245.6 124.4 232.9 105.5 241.2 Z"/>

<path fill="#000000" stroke="none" d="
M 104.05 236.1
Q 96.5 238.55 93.4 246.2 94.1 247.55 94.9 248.9 95.7 250.25 96.6 251.55 103.2 261.4 114.65 264.3
L 108.7 336.55
Q 107.9 337.2 107.2 337.95 103.4 341.9 104.6 347.3 104.6 344.8 106.2 343.05 107.8 341.3 110.05 341.3
L 115.75 345.2
Q 117.8 346 119.95 345.6 125.45 344.8 127.8 339.7
L 131.7 348.15
Q 131.1 348.55 130.5 348.95 121.4 355.35 111.05 351.3
L 104.8 347.7
Q 106.6 351.7 110.4 353.9 121.45 360.2 130.5 351.2 130.8 350.95 131 350.6 136.2 341.5 127.75 335.3
L 122.15 264.3
Q 128.9 263.2 134.55 259.25 135.65 258.55 136.75 257.75 144.05 252.75 143.1 244.05 126.7 232.65 106.6 235.4 105.3 235.65 104.05 236.1
M 140.45 245.6
L 139.4 247
Q 137.2 247.55 135 248.15 119.2 252.35 103.3 248.7
L 96.85 245.95
Q 100.9 243.15 105.5 241.2 124.4 232.9 140.45 245.6
M 97.8 251.7
L 108.65 253.7 135.9 253.25
Q 135.35 253.8 134.8 254.4 127.4 262.85 116.15 261.65 111.05 261.1 106.65 258.35 101.85 255.35 97.8 251.7
M 117.95 264.55
L 120.4 264.5 122.8 313.95
Q 123.1 314.6 123.45 315.3 130.8 329.3 121.45 341.95
L 120.1 342.4 113.15 340.15
Q 113.9 326.2 115.7 312.6 118.85 288.5 115.95 264.4
L 117.95 264.55 Z"/>

<path fill="#FFFFFF" stroke="none" d="
M 117.95 264.55
L 115.95 264.4
Q 118.85 288.5 115.7 312.6 113.9 326.2 113.15 340.15
L 120.1 342.4
Q 115.65 327.65 117.8 312.1 121.05 288.3 117.95 264.55
M 108.65 253.7
L 97.8 251.7
Q 101.85 255.35 106.65 258.35 111.05 261.1 116.15 261.65
L 108.65 253.7 Z"/>
</g>
</defs>

<g transform="matrix( 1, 0, 0, 1, 374.95,127.8) ">
<g transform="matrix( 1, 0, 0, 1, 0,0) ">
<use xlink:href="#barren_prop_28_Layer1_0_FILL"/>
</g>
</g>
</svg>
