
<svg xmlns="http://www.w3.org/2000/svg" version="1.1" xmlns:xlink="http://www.w3.org/1999/xlink" preserveAspectRatio="none" x="0px" y="0px" width="1000px" height="800px" viewBox="0 0 1000 800">
<defs>
<g id="barren_prop_22_Layer1_0_FILL">
<path fill="#70513A" stroke="none" d="
M 168 283.45
L 162.05 286.5 169 284.75 168 283.45
M 155.85 303.8
L 158.05 302.25 149.6 306.25 148.7 312.55 143.1 314.05 148.45 310.9 148.25 308.2
Q 148.25 310.7 144.95 312.45 141.65 314.25 136.95 314.25
L 139.2 315.1
Q 132.8 319.1 125 319.1 123.95 319.1 122.9 319.1
L 135.4 314.65 104.6 319.35
Q 118.8 308.35 135.8 303.3 135.05 303.35 134.3 303.4 116.05 307.5 100.65 318.25 103.2 327.1 95.25 331.4 94.7 331.65 94.15 331.9
L 92.55 334.75 77.45 336.85
Q 85.05 340.55 93.25 338.3
L 94.55 339
Q 132.75 331.6 167.95 314.65 174.45 305.45 172.35 294.45 166.05 294.75 159.75 295.05 155.25 295.25 151.9 297.9 155.7 297.3 159.5 296.75 163.25 297.5 167 298.3
L 170.5 299.1 155.85 303.8
M 90.6 288.35
L 88.85 288.25 118.05 280.6 120.35 279.8
Q 120.35 278.7 118.85 277.95 117.4 277.2 115.3 277.2
L 85.35 288.1 90.6 288.35 Z"/>

<path fill="#000000" stroke="none" d="
M 135.4 314.65
L 122.9 319.1
Q 123.95 319.1 125 319.1 132.8 319.1 139.2 315.1
L 136.95 314.25 135.4 314.65
M 149.6 306.25
Q 149.05 306.25 148.65 306.8 148.25 307.4 148.25 308.2
L 148.45 310.9 143.1 314.05 148.7 312.55 149.6 306.25
M 158.05 302.25
L 155.85 303.8 170.5 299.1 167 298.3 158.05 302.25
M 118.85 277.95
Q 120.35 278.7 120.35 279.8
L 155.8 275.5
Q 141.3822265625 271.4333984375 125.7 276.5
L 123.7 274.15
Q 121.9 274.05 120.1 274.05 96.8 274.1 74 278.3 65.55 279.9 59.3 285.5 42.95 300.4 49.55 321.35 55.35 339.8 74.65 341.65 94.9 341.35 114.9 337.75 124.75 335.85 134.55 334.3 150.75 331.5 164.3 322.65 168.85 319.7 171.7 315.15 181.55 299.3 171.55 284 170.35 282.1 168.55 281.05 163.2462890625 277.91015625 157.75 276.1
L 168 283.45 169 284.75 172.35 294.45
Q 174.45 305.45 167.95 314.65 132.75 331.6 94.55 339
L 93.25 338.3
Q 85.05 340.55 77.45 336.85
L 92.55 334.75 94.15 331.9
Q 94.7 331.65 95.25 331.4 103.2 327.1 100.65 318.25 96.65 295.5 76 285.15 74.25 284.25 72.55 283.35
L 115.3 277.2
Q 117.4 277.2 118.85 277.95
M 61.45 290.3
L 66.25 286.5
Q 67.05 286.5 67.9 286.55 80.05 287.35 86.45 297.75 87.9 299.15 89.35 300.6 99.35 310.55 97.55 324.4
L 90.05 331.6 81.1 333.2 77.2 333.9 74.2 334.45 74.45 338.45
Q 59.45 337.35 54.2 323.05 47.3 304.3 61.45 290.3
M 88.85 288.25
L 90.6 288.35
Q 97.8 288.45 104.8 288.4 113.7 288.35 118.05 280.6
L 88.85 288.25 Z"/>

<path fill="#7E7356" stroke="none" d="
M 89.35 300.6
Q 87.9 299.15 86.45 297.75
L 75.85 289.1
Q 79.6 296.05 85.45 301.45 96.8 312 92.8 326.95 90.2 329.15 87.15 330.8 84.0982421875 332.4087890625 81.1 333.2
L 90.05 331.6 97.55 324.4
Q 99.35 310.55 89.35 300.6
M 74.2 334.45
L 77.2 333.9
Q 69.559765625 334.622265625 62.2 329.95 60.6 328.95 59.8 327.45 49.65 308.55 61.45 290.3 47.3 304.3 54.2 323.05 59.45 337.35 74.45 338.45
L 74.2 334.45
M 69.7 300.15
Q 65.1 303.35 63.1 308.55 59.15 318.7 67.7 324.9 75.0478515625 330.24375 81.8 324.9 79.68125 325.5828125 77.35 325.4 74.9 325.4 73.05 323.7 61.5 313.3 69.7 300.15
M 76.05 317.4
L 76 313.85 73.6 314.1 72.6 310
Q 74.75 308.75 77.25 308.2 81.1 307.4 84.15 309.8 84.4 310.8 84.6 311.8 85.9533203125 318.5181640625 82.45 324.35 90.55 317.25 84.45 308.6 81.95 305.05 78 306.1 67.7 308.6 72.2 317.55
L 76.05 317.4 Z"/>

<path fill="#CDC2A6" stroke="none" d="
M 66.25 286.5
L 61.45 290.3
Q 49.65 308.55 59.8 327.45 60.6 328.95 62.2 329.95 69.559765625 334.622265625 77.2 333.9
L 81.1 333.2
Q 84.0982421875 332.4087890625 87.15 330.8 90.2 329.15 92.8 326.95 96.8 312 85.45 301.45 79.6 296.05 75.85 289.1
L 86.45 297.75
Q 80.05 287.35 67.9 286.55 67.05 286.5 66.25 286.5
M 76 313.85
L 76.05 317.4 72.2 317.55
Q 67.7 308.6 78 306.1 81.95 305.05 84.45 308.6 90.55 317.25 82.45 324.35 85.9533203125 318.5181640625 84.6 311.8 84.4 310.8 84.15 309.8 81.1 307.4 77.25 308.2 74.75 308.75 72.6 310
L 73.6 314.1 76 313.85
M 63.1 308.55
Q 65.1 303.35 69.7 300.15 61.5 313.3 73.05 323.7 74.9 325.4 77.35 325.4 79.68125 325.5828125 81.8 324.9 75.0478515625 330.24375 67.7 324.9 59.15 318.7 63.1 308.55 Z"/>

<path fill="#AF8362" stroke="none" d="
M 90.6 288.35
L 85.35 288.1 115.3 277.2 72.55 283.35
Q 74.25 284.25 76 285.15 96.65 295.5 100.65 318.25 116.05 307.5 134.3 303.4 135.05 303.35 135.8 303.3 118.8 308.35 104.6 319.35
L 135.4 314.65 136.95 314.25
Q 141.65 314.25 144.95 312.45 148.25 310.7 148.25 308.2 148.25 307.4 148.65 306.8 149.05 306.25 149.6 306.25
L 158.05 302.25 167 298.3
Q 163.25 297.5 159.5 296.75 155.7 297.3 151.9 297.9 155.25 295.25 159.75 295.05 166.05 294.75 172.35 294.45
L 169 284.75 162.05 286.5 168 283.45 157.75 276.1 156.75 275.4 155.8 275.5 120.35 279.8 118.05 280.6
Q 113.7 288.35 104.8 288.4 97.8 288.45 90.6 288.35 Z"/>
</g>
</defs>

<g transform="matrix( 1, 0, 0, 1, 374.95,127.8) ">
<g transform="matrix( 1, 0, 0, 1, 0,0) ">
<use xlink:href="#barren_prop_22_Layer1_0_FILL"/>
</g>
</g>
</svg>
