
<svg xmlns="http://www.w3.org/2000/svg" version="1.1" xmlns:xlink="http://www.w3.org/1999/xlink" preserveAspectRatio="none" x="0px" y="0px" width="1000px" height="800px" viewBox="0 0 1000 800">
<defs>
<g id="Barrel_0_Layer0_0_FILL">
<path fill="#000000" stroke="none" d="
M 115.4 24.6
Q 115.05 22.6 114.2 20.75 112.75 17.5 109.05 14 104.25 9.55 97.85 6.4 91.95 3.6 85 2 78.8 0.6 71.5 0.2 65.55 -0.15 57.9 0.1 49.4 0.3 43.65 1.35 35.95 2.65 30.25 5.7 21.4 10.4 14.4 20.45 11.75 24.45 10.9 27.6 10.95 27.15 11.1 26.45 0.05 58 0 80.7 -0.05 95.5 4.2 108.85 8.8 123.05 17.65 133.65 22.65 139.6 27.95 142.7 31.2 144.65 35.55 146 38.85 147 43.7 148 59.45 151.2 72.55 150.75 88.15 150.2 100.35 144.55 106.15 141.8 109.45 138.45 111.6 136.3 113.45 133.2 114.8 130.85 116.35 127.35 127 103.15 126.75 76 126.5 48.75 115.45 24.75 115.4 24.7 115.4 24.6
M 104.15 19.05
Q 106.4 21.55 107.2 24.7 108.15 28.15 107.05 31.05 105.7 34.55 101.35 37.5 96.45 40.95 89.7 43.05 84.3 44.8 76.95 45.85 73.85 46.3 70.9 46.6
L 44.5 45.85
Q 44.0775390625 45.7560546875 43.7 45.7 38.8 44.75 34.25 43.25 31.15 42.25 29 41.1 26.35 39.75 24.6 37.85 21.75 34.95 21.05 30.65 20.45 26.55 21.95 23.1 22.05 22.85 22.15 22.65 24.7 17.35 31.8 13.9 37.85 10.9 45.9 9.65 51.8 8.8 60.7 8.75 70.15 8.6 77.1 9.3 77.35 9.3 77.6 9.35 79.75 9.6 81.8 9.9
L 81.85 9.9
Q 85.4 10.45 88.65 11.3 88.95 11.35 89.25 11.45 91.1 11.95 92.85 12.55 92.9 12.55 93 12.6 96.55 13.75 99.05 15.1 102.15 16.85 104.15 19.05
M 109.9 41.3
Q 110.2 40.9 110.55 40.55 111.65 39.2 112.55 37.75 112.95 37 113.3 36.3 114.6 39.8 115.7 43.35 115.85 43.65 116.05 44 116.65 45.15 116.7 46.55 116.7 48.7 115.75 50.8 114.9 52.75 113.4 54.5 113.2 54.8 112.95 55.05 110.9 57.45 107.95 59.5 104.75 61.9 99.8 64.2 95.2 66.4 90.9 67.8 83.4 70.3 74.8 71.1 69.75 71.55 64.3 71.4 52.4 71.1 37.45 67.85 35.6 67.45 34.6 67.05 34.35 67 34.1 66.85 32.65 66.5 31.35 66.05 29.05 65.25 26.15 63.8 24.8 63.15 23.35 62.35 18 59.45 14.5 56.9 11.7 54.8 9.5 52.55 10.15 49.4 10.95 46.3 11.9 42.7 13 39.2 14.95 42.55 18.2 45.3 19.35 46.3 20.6 47.25 21.15 47.65 21.8 48.05 21.95 48.2 22.2 48.35 26.05 50.9 30.95 52.75 32.45 53.35 34.05 53.85 41.5 56.2 52.15 57.25 56.75 57.75 60.05 57.8 64.35 57.85 67.95 57.25 69.8 56.95 72.5 56.3 73.1 56.15 73.75 55.95 78.35 54.8 79.5 54.5 81 54.2 85.1 53.5 88.5 52.85 90.55 52.35 98.2 50.4 104.4 46.15 104.45 46.1 104.55 46.1
L 109.9 41.3
M 114.35 61.3
Q 115.4 60.35 116.35 59.4 117.65 58.05 118.75 56.6 120.2 64.85 120.5 73.45 121.05 92.45 115.95 110.1
L 115.95 110.15
Q 115.9 110.15 115.9 110.2 114.45 111.25 113.45 112.2 112.45 113.1 110.6 115.15 108.75 117.25 107.75 118.2 104.95 120.75 99.65 123.1 93.95 125.65 87.8 127.35 87.9 126.85 87.85 126.15 87.8 125.5 87.8 125.15 87.8 124.5 87.85 124.1 87.85 123.75 88.05 123.25
L 88.3 122.45
Q 88.5 121.4 88.4 119.5 88.35 117.45 88.2 115.65 88.1 113.85 88.2 113.15 88.5 112.1 88.65 111.55 88.8 110.6 88.8 109.15 88.7 107.45 88.7 106.7 88.75 104.9 88.8 104.1 88.8 102.55 88.55 101.55 88.15 100.3 87.9 99.65 87.65 98.25 87.9 97.05 88.2 95.85 88.3 95.35 88.45 94.35 88.1 93.7 88 93.6 87.85 93.75 87.7 93.85 87.7 94.05 87.65 94.15 87.75 94.6 87.85 95.25 87.45 96.2 87 97.5 86.9 97.8 86.8 98.4 86.9 99.35 87 99.85 87.15 100.9 87.25 101.45 87.25 103.4
L 87.2 108.05
Q 87.1 110.5 87.05 111.1
L 86.6 113.25
Q 86.4 114.75 86.4 116.45 86.4 117.05 86.45 118.25 86.5 119.25 86.4 119.95 86.3 120.5 86.05 121.4 85.8 122.4 85.75 122.85 85.6 123.85 85.6 125.9 85.65 127.1 85.75 127.85 80.2 129.2 74.3 129.9 72.85 130.05 71.45 130.15 67.05 130.5 62.55 130.5 58.55 130.5 54.55 130.2
L 54.55 130.15
Q 48.45 129.7 42.2 128.55 40.1 128.15 38.15 127.7 37.8 127.65 37.45 127.55 37.55 127.2 37.55 126.95 37.55 126.75 37.55 126.6 37.45 126.05 37 125.5 36.5 124.85 36.25 124.6 35.7 123.75 34.95 121.85
L 33 116.7
Q 31.5 112.85 30.65 110.05 30.15 108.6 29.85 107.45 29.25 104.8 28.55 100.15 27.6 93.95 27.4 90.85 27.3 88.4 27.25 87.2 27 85.1 26.55 83.65 25.95 83.85 25.8 85.05 25.45 88.25 25.35 89.7 25.15 92.3 25.3 94.45 25.35 94.9 25.45 96.95 25.65 99.05 25.8 100.15 26 101.35 26.05 102.85 26.2 105.05 26.2 105.45 26.3 107.25 27 110.3 27.7 113.15 27.8 113.75 28.75 117.65 29.15 119.25 29.95 122.35 30.8 124.65 30.95 125.25 31.2 125.7 30.9 125.65 30.7 125.5 28.65 124.75 26.8 123.9 23.15 122.2 20.25 119.95 17.9 118 16.6 117.1 15 116 13.55 115.6 12.6 113.8 11.85 112.15 8.9 105.4 7.55 97.15 6.35 90.05 6.35 81.5 6.35 70.2455078125 8.2 59.15 8.208203125 59.025390625 8.25 58.9 8.4 57.95 8.55 57.1 8.55 56.9 8.6 56.75 14.75 62.9 21.75 67.05 29.55 71.65 37.7 73.25 41.1 73.9 45.4 74.15 45.6 74.2 45.85 74.25
L 47.1 74.55
Q 47.65 74.55 48.25 74.6 49.45 74.8 51.15 75.45 51.05 76.1 51.1 76.9
L 51.15 78.3
Q 51.2 79.1 51.15 79.65 51.1 80 50.85 80.85 50.65 81.55 50.65 81.95 50.5 82.8 50.75 83.9 50.9 84.55 51.3 85.8 51.5 86.95 51.6 89.65 51.7 93.45 52.45 97.25 52.6 97.95 52.8 99.4 53.05 100.8 53.1 102.65 53.25 105.4 53.4 106.35 53.55 106.95 53.75 108.05 54.05 109.05 54.05 109.8 54.05 110.3 53.9 111.5 53.8 112.5 54.1 113.1 54.2 113.25 54.35 113.6 54.55 113.9 54.6 114.1 54.7 114.4 54.7 114.95 54.7 115.5 54.75 115.75 54.85 116.05 55.05 116.6 55.3 117.1 55.35 117.4 55.4 117.7 55.35 118.25 55.35 118.7 55.35 118.95 55.4 119.35 55.65 119.7 55.95 120.1 56.3 120
L 55.65 116.9
Q 55 113.5 54.95 112.05 54.95 109.4 54.75 108.2 54.35 106.75 54.3 106 54.25 105.3 54.3 104.25 54.5 103.15 54.5 102.55 54.65 100.85 54.5 99.1 54.3 97.25 54.25 96.2 54.2 94.5 54.7 90.05 55.2 86.2 54.75 84.05 54.55 82.65 54.55 82.45 54.55 81.95 54.65 81.35 54.85 80.65 54.9 80.3 55.3 78.4 55.15 76.5 56.9 76.85 58.3 77 60.15 77.2 62.45 77.15 63.9 77.15 66.65 77.05 75 76.7 80.1 75.8 85.5 74.95 92.25 72.7 101.75 69.65 108.3 65.7 109.6 64.9 110.7 64.1 110.75 64.35 110.9 64.75 110.95 65 111.15 65.7 111.4 66.8 111.3 68.65 111.25 70.85 111.3 71.55 111.35 72.2 111.55 73.3 111.8 74.5 111.85 75.05 112 76.45 111.95 79.35 111.95 79.7 112.2 82.95 112.3 85.15 112.15 86.55 112 87.6 111.65 89.4 111.55 90.65 111.6 93.15 111.6 94.75 111.3 97.3 110.9 100.85 110.65 102.6 110.25 105.55 109.65 107.9 109.05 109.95 109.05 110.95 109.1 111.45 109.15 112.45 109.25 113.35 109 113.85 109.3 113.9 109.6 113.75 109.9 113.55 110.05 113.2 110.25 112.8 110.3 111.95 110.4 110.55 110.75 108.45 111.25 106.25 111.4 105.05 111.95 102.1 112.35 98.35 112.75 94.85 112.8 93.8 112.9 91 113 89.65
L 113.3 86.8
Q 113.85 82.45 113.65 76.4 113.6 74.45 113.4 70.65 113.25 68 113 66.4 112.75 64.55 112.15 63.05 112.65 62.7 113.15 62.3 113.75 61.8 114.35 61.3
M 47.6 142.15
Q 46.05 141.9 44.7 141.7 44.45 141.65 44.3 141.6
L 39.7 140.7
Q 35.35 139.55 32.2 137.7 29.1 135.95 26.05 132.85 23.75 130.5 20.9 126.85 18.4 123.55 16.45 120.5 17.4 121.5 18.5 122.45 21.85 125.4 26.2 127.65 31.9 130.55 40.05 132.5 41.9 132.9 43.95 133.3 57.0310546875 135.7869140625 69.45 135.25 69.534375 135.2529296875 69.6 135.25
L 71.9 135.15
Q 72.1 135.1 72.3 135.1 87.15 134.1 99.75 128.7 104.25 126.85 107.8 124.55 110.15 123.05 112.05 121.4 110.7 124.6 109.4 126.95 107.05 131.15 104.15 134 103.2 134.9 102.2 135.7 97.75 139.15 91.2 141.25 81.75 144.35 69.65 144.25
L 66.5 144.15
Q 66.0689453125 144.128125 65.6 144.1 65.5138671875 144.1 65.4 144.1
L 65.4 144.05
Q 57.89296875 143.6404296875 47.6 142.15 Z"/>

<path fill="#CCCCCC" stroke="none" d="
M 104.15 134
Q 107.05 131.15 109.4 126.95 110.7 124.6 112.05 121.4 110.15 123.05 107.8 124.55 105.4 129.85 102.2 135.7 103.2 134.9 104.15 134
M 44.7 141.7
Q 46.05 141.9 47.6 142.15 57.89296875 143.6404296875 65.4 144.05 66.752734375 141.24296875 67.95 138.2 68.6 136.75 69.2 135.3 69.334375 135.26640625 69.45 135.25 57.0310546875 135.7869140625 43.95 133.3 41.9 132.9 40.05 132.5 42.35 137.95 44.7 141.7
M 34.05 53.85
Q 32.45 53.35 30.95 52.75 30.45 53.7 29.9 54.75 27.2 59.95 26.15 63.8 29.05 65.25 31.35 66.05 32.65 66.5 34.1 66.85 34.35 67 34.6 67.05 35.6 67.45 37.45 67.85 52.4 71.1 64.3 71.4 69.75 71.55 74.8 71.1
L 74.75 70.4
Q 74.55 65.65 74.3 63.55 73.85 59.75 72.75 56.95 72.6 56.65 72.5 56.3 69.8 56.95 67.95 57.25 64.35 57.85 60.05 57.8 56.75 57.75 52.15 57.25 41.5 56.2 34.05 53.85
M 116.7 46.55
Q 116.65 45.15 116.05 44 115.85 43.65 115.7 43.35 114.6 39.8 113.3 36.3 112.95 37 112.55 37.75 111.65 39.2 110.55 40.55
L 111.8 47.45
Q 112.65 52.15 112.95 55.05 113.2 54.8 113.4 54.5 114.9 52.75 115.75 50.8 116.7 48.7 116.7 46.55 Z"/>

<path fill="#666666" stroke="none" d="
M 72.3 135.1
Q 72.1 135.1 71.9 135.15
L 69.6 135.25
Q 69.534375 135.2529296875 69.45 135.25 69.334375 135.26640625 69.2 135.3 68.6 136.75 67.95 138.2 66.752734375 141.24296875 65.4 144.05
L 65.4 144.1
Q 65.5138671875 144.1 65.6 144.1 66.0689453125 144.128125 66.5 144.15
L 69.65 144.25
Q 81.75 144.35 91.2 141.25 97.75 139.15 102.2 135.7 105.4 129.85 107.8 124.55 104.25 126.85 99.75 128.7 87.15 134.1 72.3 135.1
M 110.55 40.55
Q 110.2 40.9 109.9 41.3
L 104.55 46.1
Q 104.45 46.1 104.4 46.15 98.2 50.4 90.55 52.35 88.5 52.85 85.1 53.5 81 54.2 79.5 54.5 78.35 54.8 73.75 55.95 73.1 56.15 72.5 56.3 72.6 56.65 72.75 56.95 73.85 59.75 74.3 63.55 74.55 65.65 74.75 70.4
L 74.8 71.1
Q 83.4 70.3 90.9 67.8 95.2 66.4 99.8 64.2 104.75 61.9 107.95 59.5 110.9 57.45 112.95 55.05 112.65 52.15 111.8 47.45
L 110.55 40.55 Z"/>

<path fill="#FFFFFF" stroke="none" d="
M 44.3 141.6
Q 44.45 141.65 44.7 141.7 42.35 137.95 40.05 132.5 31.9 130.55 26.2 127.65 21.85 125.4 18.5 122.45 17.4 121.5 16.45 120.5 18.4 123.55 20.9 126.85 23.75 130.5 26.05 132.85 29.1 135.95 32.2 137.7 35.35 139.55 39.7 140.7
L 44.3 141.6
M 13 39.2
Q 11.9 42.7 10.95 46.3 10.15 49.4 9.5 52.55 11.7 54.8 14.5 56.9 18 59.45 23.35 62.35 24.8 63.15 26.15 63.8 27.2 59.95 29.9 54.75 30.45 53.7 30.95 52.75 26.05 50.9 22.2 48.35 21.95 48.2 21.8 48.05 21.15 47.65 20.6 47.25 19.35 46.3 18.2 45.3 14.95 42.55 13 39.2 Z"/>

<path fill="#66523E" stroke="none" d="
M 38.15 127.7
Q 37.85 127.3 37.55 126.95 37.55 127.2 37.45 127.55 37.8 127.65 38.15 127.7
M 27.25 87.2
Q 27.3 88.4 27.4 90.85 27.6 93.95 28.55 100.15 29.25 104.8 29.85 107.45 30.15 108.6 30.65 110.05 30.25 108.35 29.95 106.5 29.35 103 28.3 92.4 27.4 83.55 26.2 78.35 22.45 91.15 23.25 104.75 23.85 114.65 26.8 123.9 28.65 124.75 30.7 125.5 30.9 125.65 31.2 125.7 30.95 125.25 30.8 124.65 29.95 122.35 29.15 119.25 28.75 117.65 27.8 113.75 27.7 113.15 27 110.3 26.3 107.25 26.2 105.45 26.2 105.05 26.05 102.85 26 101.35 25.8 100.15 25.65 99.05 25.45 96.95 25.35 94.9 25.3 94.45 25.15 92.3 25.35 89.7 25.45 88.25 25.8 85.05 25.95 83.85 26.55 83.65 27 85.1 27.25 87.2
M 116.35 59.4
Q 115.4 60.35 114.35 61.3 113.75 61.8 113.15 62.3 112.65 62.7 112.15 63.05 112.75 64.55 113 66.4 113.25 68 113.4 70.65 113.6 74.45 113.65 76.4 113.85 82.45 113.3 86.8
L 113 89.65
Q 112.9 91 112.8 93.8 112.75 94.85 112.35 98.35 111.95 102.1 111.4 105.05 111.25 106.25 110.75 108.45 110.4 110.55 110.3 111.95 110.25 112.8 110.05 113.2 109.9 113.55 109.6 113.75 109.3 113.9 109 113.85 109.25 113.35 109.15 112.45 109.1 111.45 109.05 110.95 109.05 109.95 109.65 107.9 110.25 105.55 110.65 102.6 110.9 100.85 111.3 97.3 111.6 94.75 111.6 93.15 111.55 90.65 111.65 89.4 112 87.6 112.15 86.55 112.3 85.15 112.2 82.95 111.95 79.7 111.95 79.35 112 76.45 111.85 75.05 111.8 74.5 111.55 73.3 111.35 72.2 111.3 71.55 111.25 70.85 111.3 68.65 111.4 66.8 111.15 65.7 110.95 65 110.9 64.75 110.75 64.35 110.7 64.1 109.6 64.9 108.3 65.7 101.75 69.65 92.25 72.7 85.5 74.95 80.1 75.8 75 76.7 66.65 77.05 63.9 77.15 62.45 77.15 60.15 77.2 58.3 77 56.9 76.85 55.15 76.5 55.3 78.4 54.9 80.3 54.85 80.65 54.65 81.35 54.55 81.95 54.55 82.45 54.55 82.65 54.75 84.05 55.2 86.2 54.7 90.05 54.2 94.5 54.25 96.2 54.3 97.25 54.5 99.1 54.65 100.85 54.5 102.55 54.5 103.15 54.3 104.25 54.25 105.3 54.3 106 54.35 106.75 54.75 108.2 54.95 109.4 54.95 112.05 55 113.5 55.65 116.9
L 56.3 120
Q 55.95 120.1 55.65 119.7 55.4 119.35 55.35 118.95 55.35 118.7 55.35 118.25 55.4 117.7 55.35 117.4 55.3 117.1 55.05 116.6 54.85 116.05 54.75 115.75 54.7 115.5 54.7 114.95 54.7 114.4 54.6 114.1 54.55 113.9 54.35 113.6 54.2 113.25 54.1 113.1 53.8 112.5 53.9 111.5 54.05 110.3 54.05 109.8 54.05 109.05 53.75 108.05 53.55 106.95 53.4 106.35 53.25 105.4 53.1 102.65 53.05 100.8 52.8 99.4 52.6 97.95 52.45 97.25 51.7 93.45 51.6 89.65 51.5 86.95 51.3 85.8 50.9 84.55 50.75 83.9 50.5 82.8 50.65 81.95 50.65 81.55 50.85 80.85 51.1 80 51.15 79.65 51.2 79.1 51.15 78.3
L 51.1 76.9
Q 51.05 76.1 51.15 75.45 49.45 74.8 48.25 74.6 47.65 74.55 47.1 74.55
L 45.85 74.25
Q 45.6 74.2 45.4 74.15 41.1 73.9 37.7 73.25 29.55 71.65 21.75 67.05 14.75 62.9 8.6 56.75 8.55 56.9 8.55 57.1 8.4 57.95 8.25 58.9 8.208203125 59.025390625 8.2 59.15 8.2 59.2171875 8.2 59.25 9.25 60.2 10.65 61.35 20.8 69.6 26.45 73.15 35.75 79 44.3 80.7 45.9 81 46.45 81.15 47.65 81.5 48.35 82.15 49.35 83.05 49.8 84.65 50.1 85.75 50.25 87.7
L 52.1 112.2
Q 52.65 119.75 53.2 123.65 53.75 127.15 54.55 130.15
L 54.55 130.2
Q 58.55 130.5 62.55 130.5
L 62.5 130.45
Q 61.75 129.75 61.55 128.2 60.5 121.75 59.2 108.75 58.45 101.25 58.25 97.35 57.95 90.95 58.4 85.85 69.6 90.8 81.9 90.7 81.2 102.75 78.4 124.3 78.2 125.9 78 126.65 77.6 127.9 76.85 128.65 76.05 129.45 74.3 129.9 80.2 129.2 85.75 127.85 85.65 127.1 85.6 125.9 85.6 123.85 85.75 122.85 85.8 122.4 86.05 121.4 86.3 120.5 86.4 119.95 86.5 119.25 86.45 118.25 86.4 117.05 86.4 116.45 86.4 114.75 86.6 113.25
L 87.05 111.1
Q 87.1 110.5 87.2 108.05
L 87.25 103.4
Q 87.25 101.45 87.15 100.9 87 99.85 86.9 99.35 86.8 98.4 86.9 97.8 87 97.5 87.45 96.2 87.85 95.25 87.75 94.6 87.65 94.15 87.7 94.05 87.7 93.85 87.85 93.75 88 93.6 88.1 93.7 88.45 94.35 88.3 95.35 88.2 95.85 87.9 97.05 87.65 98.25 87.9 99.65 88.15 100.3 88.55 101.55 88.8 102.55 88.8 104.1 88.75 104.9 88.7 106.7 88.7 107.45 88.8 109.15 88.8 110.6 88.65 111.55 88.5 112.1 88.2 113.15 88.1 113.85 88.2 115.65 88.35 117.45 88.4 119.5 88.5 121.4 88.3 122.45
L 88.05 123.25
Q 87.85 123.75 87.85 124.1 87.8 124.5 87.8 125.15 87.8 125.5 87.85 126.15 87.9 126.85 87.8 127.35 93.95 125.65 99.65 123.1 104.95 120.75 107.75 118.2 108.75 117.25 110.6 115.15 112.45 113.1 113.45 112.2 114.45 111.25 115.9 110.2 115.9 110.15 115.95 110.15
L 115.95 110.1
Q 116.55 103.45 116.75 95.6 116.95 88.9 116.85 75.5 116.7 64.7 116.35 59.4
M 77.6 9.35
Q 77.35 9.3 77.1 9.3 70.15 8.6 60.7 8.75 51.8 8.8 45.9 9.65 37.85 10.9 31.8 13.9 24.7 17.35 22.15 22.65 22.05 22.85 21.95 23.1 23.3 22.9 25.05 22.35 29.3 21.2 33.4 20.75 36.05 20.4 41.3 20 46.6 19.5 56.75 17.4 57.05 17.35 57.3 17.15 57.6 16.9 57.4 16.65 54.35 15.1 48.45 15.8 41.65 16.55 39.15 16 52.35 12.1 66.15 11.25 68.4 11.1 72.8 10.9 77.3 10.6 81.8 9.9 79.75 9.6 77.6 9.35
M 107.2 24.7
Q 106.4 21.55 104.15 19.05 102.15 16.85 99.05 15.1 96.55 13.75 93 12.6 92.9 12.55 92.85 12.55 91.1 11.95 89.25 11.45 88.95 11.35 88.65 11.3 91.9 13.25 94.15 16 96.6 19.05 97.35 22.45
L 87.1 23.85
Q 71.5 26.1 62.9 27.05 49.45 28.55 38.5 28.8 37.85 28.8 37.35 29.1 36.8 29.45 36.95 29.95 41.4 30.8 46.95 30.9 50.55 31 57.05 30.75
L 95.55 29.25
Q 95.05 31.8 92.95 33.95 91.05 35.9 88.35 37.05 86.3 37.95 83.05 38.75 78.35 39.9 77.7 40.1 75.7 40.65 71.4 42.25 67.3 43.8 65.1 44.35 60.7 45.45 53.6 45.5 46.65 45.55 43.7 45.7 44.0775390625 45.7560546875 44.5 45.85
L 70.9 46.6
Q 73.85 46.3 76.95 45.85 84.3 44.8 89.7 43.05 96.45 40.95 101.35 37.5 105.7 34.55 107.05 31.05 108.15 28.15 107.2 24.7 Z"/>

<path fill="#CC9966" stroke="none" d="
M 58.4 85.85
Q 57.95 90.95 58.25 97.35 58.45 101.25 59.2 108.75 60.5 121.75 61.55 128.2 61.75 129.75 62.5 130.45
L 62.55 130.5
Q 67.05 130.5 71.45 130.15 72.85 130.05 74.3 129.9 76.05 129.45 76.85 128.65 77.6 127.9 78 126.65 78.2 125.9 78.4 124.3 81.2 102.75 81.9 90.7 69.6 90.8 58.4 85.85
M 8.2 59.25
Q 8.2 59.2171875 8.2 59.15 6.35 70.2455078125 6.35 81.5 6.35 90.05 7.55 97.15 8.9 105.4 11.85 112.15 12.6 113.8 13.55 115.6 15 116 16.6 117.1 17.9 118 20.25 119.95 23.15 122.2 26.8 123.9 23.85 114.65 23.25 104.75 22.45 91.15 26.2 78.35 27.4 83.55 28.3 92.4 29.35 103 29.95 106.5 30.25 108.35 30.65 110.05 31.5 112.85 33 116.7
L 34.95 121.85
Q 35.7 123.75 36.25 124.6 36.5 124.85 37 125.5 37.45 126.05 37.55 126.6 37.55 126.75 37.55 126.95 37.85 127.3 38.15 127.7 40.1 128.15 42.2 128.55 48.45 129.7 54.55 130.15 53.75 127.15 53.2 123.65 52.65 119.75 52.1 112.2
L 50.25 87.7
Q 50.1 85.75 49.8 84.65 49.35 83.05 48.35 82.15 47.65 81.5 46.45 81.15 45.9 81 44.3 80.7 35.75 79 26.45 73.15 20.8 69.6 10.65 61.35 9.25 60.2 8.2 59.25
M 118.75 56.6
Q 117.65 58.05 116.35 59.4 116.7 64.7 116.85 75.5 116.95 88.9 116.75 95.6 116.55 103.45 115.95 110.1 121.05 92.45 120.5 73.45 120.2 64.85 118.75 56.6
M 88.65 11.3
Q 85.4 10.45 81.85 9.9
L 81.8 9.9
Q 77.3 10.6 72.8 10.9 68.4 11.1 66.15 11.25 52.35 12.1 39.15 16 41.65 16.55 48.45 15.8 54.35 15.1 57.4 16.65 57.6 16.9 57.3 17.15 57.05 17.35 56.75 17.4 46.6 19.5 41.3 20 36.05 20.4 33.4 20.75 29.3 21.2 25.05 22.35 23.3 22.9 21.95 23.1 20.45 26.55 21.05 30.65 21.75 34.95 24.6 37.85 26.35 39.75 29 41.1 31.15 42.25 34.25 43.25 38.8 44.75 43.7 45.7 46.65 45.55 53.6 45.5 60.7 45.45 65.1 44.35 67.3 43.8 71.4 42.25 75.7 40.65 77.7 40.1 78.35 39.9 83.05 38.75 86.3 37.95 88.35 37.05 91.05 35.9 92.95 33.95 95.05 31.8 95.55 29.25
L 57.05 30.75
Q 50.55 31 46.95 30.9 41.4 30.8 36.95 29.95 36.8 29.45 37.35 29.1 37.85 28.8 38.5 28.8 49.45 28.55 62.9 27.05 71.5 26.1 87.1 23.85
L 97.35 22.45
Q 96.6 19.05 94.15 16 91.9 13.25 88.65 11.3 Z"/>
</g>
</defs>

<g transform="matrix( 1, 0, 0, 1, 374.95,127.8) ">
<g transform="matrix( 1, 0, 0, 1, 61.15,221.75) ">
<g transform="matrix( 1, 0, 0, 1, 0,0) ">
<use xlink:href="#Barrel_0_Layer0_0_FILL"/>
</g>
</g>
</g>
</svg>
