
<svg xmlns="http://www.w3.org/2000/svg" version="1.1" xmlns:xlink="http://www.w3.org/1999/xlink" preserveAspectRatio="none" x="0px" y="0px" width="1000px" height="800px" viewBox="0 0 1000 800">
<defs>
<g id="barren_prop_16_Layer1_0_FILL">
<path fill="#000000" stroke="none" d="
M 158 287.2
L 153.35 292.7 151.55 279.85 157.4 274.9
Q 152.85 272.75 148.1 271.55 113.15 261.85 78.75 274.35
L 77.05 283.95
Q 48.75 304.2 46.3 338.9 47.6 339.25 48.95 339.6 68.1 345.4 85.3 335.3
L 91.95 333.1
Q 128.25 347.35 164.25 332.6
L 158 287.2
M 93.5 279.3
L 85.75 276.05
Q 105.25 267.45 126.45 269.45 135.65 270.15 143.6 273.5
L 114.55 280.65 129.5 278.75 150.25 277.6 153.05 313.65 156.6 291.85 158.75 317.85 124.75 326.8 159.4 318.95 161 328.9
Q 146.2 334.65 130.6 336.95 115.8 338.9 101.65 334.55 98.55 333.6 96.2 331.35
L 107.4 321.4 111.15 332.5 109.6 320.7 112.4 317.75 118.1 333.85 114.65 315.05 117.2 312.8 120 326.35 116.85 305.5 112.65 283.85 115.1 304.8 104.15 284.35
Q 95.55 281 86.55 282.7 85.45 282.95 84.35 283.25 83.25 283.6 82.15 283.95
L 82.3 277.55 93.5 279.3
M 91.15 285.8
L 102.55 285.15 113.65 309.7
Q 107.95 316.25 101.35 321.6 78.45 339.95 49.45 335 51.85 325.7 54.95 316.7 61.0583984375 298.8869140625 75.7 291
L 66.7 305.45 76.95 292.75 94.05 291.95 99 306.9
Q 96.75 308.5 94.5 310.15 78.95 321.55 60.35 326.75
L 56.45 326.8 55.6 329.05
Q 60.5 328.6 65.1 327.2 78 323.45 88.85 315.7 94.8 311.45 100.7 307.2
L 94.85 289.45 75.9 290.9
Q 82.630078125 287.30078125 91.15 285.8
M 114.85 293
L 114.95 293.55 123.5 292.95 125.65 305.95 124.25 292.6 144.3 285.2 114.85 293
M 102.7 328.95
Q 102.7 328.1 102.45 327.45 102.2 326.85 101.85 326.85 101.5 326.85 101.25 327.45 101 328.1 101 328.95 101 329.8 101.25 330.4 101.5 331.05 101.85 331.05 102.2 331.05 102.45 330.4 102.7 329.8 102.7 328.95
M 115.15 275.3
L 118.95 275.45 108.35 273 115.15 275.3 Z"/>

<path fill="#CCCCCC" stroke="none" d="
M 94.5 310.15
Q 96.75 308.5 99 306.9
L 94.05 291.95 60.35 326.75
Q 78.95 321.55 94.5 310.15 Z"/>

<path fill="#FFFFFF" stroke="none" d="
M 56.45 326.8
L 60.35 326.75 94.05 291.95 76.95 292.75 66.7 305.45 56.45 326.8 Z"/>

<path fill="#006699" stroke="none" d="
M 102.55 285.15
L 91.15 285.8
Q 82.630078125 287.30078125 75.9 290.9
L 94.85 289.45 100.7 307.2
Q 94.8 311.45 88.85 315.7 78 323.45 65.1 327.2 60.5 328.6 55.6 329.05
L 56.45 326.8 66.7 305.45 75.7 291
Q 61.0583984375 298.8869140625 54.95 316.7 51.85 325.7 49.45 335 78.45 339.95 101.35 321.6 107.95 316.25 113.65 309.7
L 102.55 285.15 Z"/>

<path fill="#70513A" stroke="none" d="
M 114.15 283.25
L 114.85 293 144.3 285.2 124.25 292.6 125.65 305.95 123.5 292.95 114.95 293.55 116.85 305.5 120 326.35 117.2 312.8 114.65 315.05 118.1 333.85 112.4 317.75 109.6 320.7 111.15 332.5 107.4 321.4 96.2 331.35
Q 98.55 333.6 101.65 334.55 115.8 338.9 130.6 336.95 146.2 334.65 161 328.9
L 159.4 318.95 124.75 326.8 158.75 317.85 156.6 291.85 153.05 313.65 150.25 277.6 129.5 278.75 114.15 283.25
M 102.45 327.45
Q 102.7 328.1 102.7 328.95 102.7 329.8 102.45 330.4 102.2 331.05 101.85 331.05 101.5 331.05 101.25 330.4 101 329.8 101 328.95 101 328.1 101.25 327.45 101.5 326.85 101.85 326.85 102.2 326.85 102.45 327.45 Z"/>

<path fill="#AF8362" stroke="none" d="
M 85.75 276.05
L 93.5 279.3 82.3 277.55 82.15 283.95
Q 83.25 283.6 84.35 283.25 85.45 282.95 86.55 282.7 95.55 281 104.15 284.35
L 115.1 304.8 112.65 283.85 116.85 305.5 114.95 293.55 114.85 293 114.15 283.25 129.5 278.75 114.55 280.65 143.6 273.5
Q 135.65 270.15 126.45 269.45 105.25 267.45 85.75 276.05
M 118.95 275.45
L 115.15 275.3 108.35 273 118.95 275.45 Z"/>
</g>
</defs>

<g transform="matrix( 1, 0, 0, 1, 374.95,127.8) ">
<g transform="matrix( 1, 0, 0, 1, 0,0) ">
<use xlink:href="#barren_prop_16_Layer1_0_FILL"/>
</g>
</g>
</svg>
