
<svg xmlns="http://www.w3.org/2000/svg" version="1.1" xmlns:xlink="http://www.w3.org/1999/xlink" preserveAspectRatio="none" x="0px" y="0px" width="1000px" height="800px" viewBox="0 0 1000 800">
<defs>
<g id="barren_prop_0_Layer1_0_FILL">
<path fill="#837A75" stroke="none" d="
M 193.35 317.4
L 189.25 318.45 190.4 332.35
Q 195.65 326.9 193.85 319.5 193.6 318.45 193.35 317.4
M 174.3 262.4
L 177.1 263.4 179.3 264.4 176.25 262.2 172.35 216.25 174.3 262.4
M 185.95 269.5
Q 187.1 269.5 187.9 270.2 188.7 270.9 188.7 271.9
L 192.65 301.8 190.7 269 181.6 265.65 185.95 269.5
M 66.45 172
L 66.2 169.25 61.65 168.3 61.85 215.75 57.05 218.5 57.35 272.05
Q 55.45 272.5 53.9 273.75 40.75 284.7 42.55 303 44.3 321 45.65 339.4
L 52.2 324.35 67.55 313.95 70.65 304.8 73.75 300.35 76.75 338.25 67.95 325
Q 65.95 325.5 64 326.05 63.45 326.25 62.9 326.5 60.2 328.3 58.9 331.3 56.45 337 54.85 342.85
L 59.5 348.2 66.9 349.3 127.9 357.85 136.15 356.65 133.4 337.3 132.45 323.15 107.65 321.65 118.3 317.9 129.7 317.1 128.45 299.05 115.7 286.75 137.25 285.05 92.1 277 68.3 271.35 60.05 266.25 80.1 264.7 83.35 254.4 82.2 251.5 106.95 219.75 64.75 212.55 123.95 209.3 123.9 198.65 66.45 172
M 72.3 195.65
L 64.5 196.2 74.45 195.25
Q 74.25 196.15 74.1 197.05 74 197.45 74 197.85 73.9 199.55 72.9 201 70.5 204.4 66.3 204.8
L 72.3 195.65
M 83.45 284.5
L 85.45 282.55 109.9 287.15 85.85 284.35 74.75 299.05 83.45 284.5
M 69.7 280.5
Q 73.05 281.45 75.5 284.15
L 75.05 295.05 73.75 283.35 50.65 276.95
Q 59.65 278.6 68.7 280.3 69.2 280.4 69.7 280.5
M 69.75 130
L 65.5 131.05 55.5 134.9 51.15 161.55 86.15 166.95 98.6 167.1 115.75 149.5
Q 115.4 149.4 115.05 149.3 114.45 149.25 113.9 149.25 105.85 149.1 102 142
L 117.2 145.05 119 116.65 121.5 117.4 122.05 121.85 125.5 113.2 118 107.85
Q 98 120.1 74.75 123.2 73.75 123.5 72.75 123.8
L 81.5 127.15 69.75 130
M 101 145
L 103.7 145.3 94.95 151 91 150.2 101 145
M 110.4 93.55
L 107.85 95.65 107.3 84
Q 99.75 86.7 95.8 93.65 93 98.65 91.25 104
L 73.05 117.5 72.15 118.6 111.35 105.2 93.65 104.4 109 100.65 108.9 96.05 115.5 101.45 110.4 93.55
M 168 176.5
L 164.55 178.05 166.45 209.2 169.1 209.3 168 176.5
M 175.5 122.2
L 170.65 119.85
Q 175.35 140.9 172.35 162.2 171.85 165.75 171.35 169.3
L 174.2 168.1 175.5 122.2
M 110.6 258.25
L 111.4 256.6 108.35 258.05 110.6 258.25
M 108.9 218.85
Q 106.2 231.65 97.2 241.1 92.6 245.95 86.9 249.35
L 87.5 266.2 102.75 259.65 92.6 266.95 121.75 270.25 121.05 260.8 111.15 260.05 105.2 259.4 122.85 248.65 123.6 219 108.9 218.85
M 116.15 167.65
L 115.6 164.1 118.4 158.8 108.3 160.1 103.4 166.3 116.15 167.65
M 167.95 76.85
L 165.85 74.7 163.9 109.3 168.65 112 167.95 76.85
M 119.15 73.9
L 120.05 68.15 104.75 75.85 104.5 79.8 119.15 73.9 Z"/>

<path fill="#000000" stroke="none" d="
M 59.5 348.2
L 58 348.15 66.9 349.3 59.5 348.2
M 67.55 313.95
L 64.9 318.85 53.15 324.85 49.85 341.4 57.4 326.2 67.35 322.4 70.85 328.1 73.45 306.8 70.65 304.8 67.55 313.95
M 150.3 281.5
Q 148.9 282.3 147.55 283.1
L 188.7 271.9
Q 188.7 270.9 187.9 270.2 187.1 269.5 185.95 269.5 167.05 272.4 150.3 281.5
M 134.15 296.65
L 137.25 285.05 115.7 286.75 128.45 299.05 129.7 317.1 118.3 317.9 114.7 319.9 132.4 320.8 130.7 294.25 120.25 288.5 136.55 286.85 134.15 296.65
M 92.1 277
Q 94.7 277.35 97.3 277.75 141.1 284.9 177.1 263.4
L 174.3 262.4 156.95 266.3 157.2 262.65 152.85 268.15
Q 150.75 268.75 148.6 269.15 106.35 279.05 64.15 268.25
L 68.3 271.35 92.1 277
M 122.05 121.85
L 121.5 117.4 119 116.65 117.2 145.05 119.05 147.9 122.05 121.85
M 61.65 168.3
L 66.2 169.25 93.55 168.3 86.15 166.95 51.15 161.55 49.65 161.35 57.05 167.5 59.35 198.9 60.85 200.15 59.75 210.95 52.9 214.25 52.45 268.15 41.1 273.95 40.4 343.3 50.2 345.9 45.65 339.4
Q 44.3 321 42.55 303 40.75 284.7 53.9 273.75 55.45 272.5 57.35 272.05
L 57.05 218.5 61.85 215.75 61.65 168.3
M 75.5 284.15
Q 73.05 281.45 69.7 280.5 69.2 280.4 68.7 280.3 59.65 278.6 50.65 276.95
L 73.75 283.35 75.05 295.05 75.5 284.15
M 85.45 282.55
L 83.45 284.5 74.75 299.05 85.85 284.35 109.9 287.15 85.45 282.55
M 64.5 196.2
L 72.3 195.65 66.3 204.8
Q 70.5 204.4 72.9 201 73.9 199.55 74 197.85 74 197.45 74.1 197.05 74.25 196.15 74.45 195.25
L 64.5 196.2
M 65.5 131.05
L 69.75 130 72.75 123.8
Q 73.75 123.5 74.75 123.2 98 120.1 118 107.85
L 115.5 101.45 108.9 96.05 109 100.65 93.65 104.4 111.35 105.2 72.15 118.6 54.1 133.1 65.5 131.05
M 53.65 133.6
Q 52.8 134.6 52 135.65 42.9 147.85 49.65 161.3
L 53.65 133.6
M 121.75 270.25
Q 122.2 269.65 122.5 269.05 124.85 264.4 121.05 260.8
L 121.75 270.25
M 125.65 219.05
Q 125.05 217.05 124.65 215
L 113.45 214.6 123.6 219 122.85 248.65 105.2 259.4 111.15 260.05 118.55 259.6 110.6 258.25 108.35 258.05 111.4 256.6
Q 134.35 249.75 125.65 219.05
M 152.3 219.05
L 150.4 215.4 151.1 226.9 152.3 219.05
M 119.75 156.2
Q 119 157.45 118.4 158.8
L 115.6 164.1 116.15 167.65
Q 134.9 172.65 154.25 169.5 156.95 169.05 159.65 168.6
L 119 166.75 118.65 163.45 127.05 150.85
Q 125.15 151.6 123.3 152.5 122.2 153.15 121.35 154.05 120.4 155 119.75 156.2
M 174.3 83.85
Q 174.05 80.85 172.4 79.15 141.35 48.1 103 75.35 102.8 76.15 102.4 76.85 89.65 98.35 73.05 117.5
L 91.25 104
Q 93 98.65 95.8 93.65 99.75 86.7 107.3 84
L 107.85 95.65 110.4 93.55 112.9 82.55
Q 117.85 81.35 121.85 78.4 124.25 76.6 124.45 73.85 124.7 70.4 127.3 67.85 129.85 67.75 132.4 67.7 149.95 67.3 165.85 74.7
L 167.95 76.85 168.65 112 128.4 107.8 167.9 116.9 170.65 119.85 175.5 122.2 174.2 168.1 171.35 169.3 168 176.5 169.1 209.3 166.45 209.2 132.65 211.45
Q 134.1 211.95 135.6 212.45 142.9 214.65 150.45 215.1 159.05 215.55 167.35 213.2 167.6 213.2 167.9 213.25
L 153.1 232.3
Q 152.05 242.5 157.25 251.4 157.9 252.45 158.55 253.55 158.7 253.7 158.85 253.9
L 155.15 230.55 172.35 216.25 176.25 262.2 179.3 264.4 181.6 265.65 190.7 269 192.65 301.8 192.85 311.05 181.35 321.85 189.25 318.45 193.35 317.4
Q 193.6 318.45 193.85 319.5 195.65 326.9 190.4 332.35
L 138.6 357.25 138.55 357.25
Q 138.55 357.2 138.5 357.1
L 133.4 337.3 136.15 356.65 127.9 357.85 138.1 362.1 198.25 329.25
Q 198 304.15 196.9 279.2 196.15 261.65 180.05 260.55
L 177.95 211.65 172.65 209.75 173.5 174 178.65 170.65
Q 182.05 148.5 180.95 126.2 180.5 117.25 172.25 113.4 175.45 98.8 174.3 83.85
M 120.05 68.15
L 119.15 73.9 104.5 79.8 104.75 75.85 120.05 68.15 Z"/>

<path fill="#564A44" stroke="none" d="
M 64.9 318.85
L 67.55 313.95 52.2 324.35 45.65 339.4 50.2 345.9 58 348.15 59.5 348.2 54.85 342.85
Q 56.45 337 58.9 331.3 60.2 328.3 62.9 326.5 63.45 326.25 64 326.05 65.95 325.5 67.95 325
L 76.75 338.25 73.75 300.35 70.65 304.8 73.45 306.8 70.85 328.1 67.35 322.4 57.4 326.2 49.85 341.4 53.15 324.85 64.9 318.85
M 97.3 277.75
Q 94.7 277.35 92.1 277
L 137.25 285.05 134.15 296.65 136.55 286.85 120.25 288.5 130.7 294.25 132.4 320.8 114.7 319.9 118.3 317.9 107.65 321.65 132.45 323.15 133.4 337.3 138.5 357.1 138.6 357.25 190.4 332.35 189.25 318.45 181.35 321.85 192.85 311.05 192.65 301.8 188.7 271.9 147.55 283.1
Q 148.9 282.3 150.3 281.5 167.05 272.4 185.95 269.5
L 181.6 265.65 179.3 264.4 177.1 263.4
Q 141.1 284.9 97.3 277.75
M 72.75 123.8
L 69.75 130 81.5 127.15 72.75 123.8
M 103.7 145.3
L 101 145 91 150.2 94.95 151 103.7 145.3
M 54.1 133.1
Q 53.9 133.15 53.8 133.3 53.65 133.4 53.65 133.6
L 49.65 161.3 49.65 161.35 51.15 161.55 55.5 134.9 65.5 131.05 54.1 133.1
M 170.65 119.85
L 167.9 116.9 128.4 107.8 168.65 112 163.9 109.3 165.85 74.7
Q 149.95 67.3 132.4 67.7 129.85 67.75 127.3 67.85 124.7 70.4 124.45 73.85 124.25 76.6 121.85 78.4 117.85 81.35 112.9 82.55
L 110.4 93.55 115.5 101.45 118 107.85 125.5 113.2 122.05 121.85 119.05 147.9 117.2 145.05 102 142
Q 105.85 149.1 113.9 149.25 114.45 149.25 115.05 149.3 115.4 149.4 115.75 149.5
L 98.6 167.1 86.15 166.95 93.55 168.3 66.2 169.25 66.45 172 123.9 198.65 123.95 209.3 64.75 212.55 106.95 219.75 82.2 251.5 83.35 254.4 80.1 264.7 60.05 266.25 68.3 271.35 64.15 268.25
Q 106.35 279.05 148.6 269.15 150.75 268.75 152.85 268.15
L 157.2 262.65 156.95 266.3 174.3 262.4 172.35 216.25 155.15 230.55 158.85 253.9
Q 158.7 253.7 158.55 253.55 157.9 252.45 157.25 251.4 152.05 242.5 153.1 232.3
L 167.9 213.25
Q 167.6 213.2 167.35 213.2 159.05 215.55 150.45 215.1 142.9 214.65 135.6 212.45 134.1 211.95 132.65 211.45
L 166.45 209.2 164.55 178.05 168 176.5 171.35 169.3
Q 171.85 165.75 172.35 162.2 175.35 140.9 170.65 119.85
M 118.4 158.8
Q 119 157.45 119.75 156.2 120.4 155 121.35 154.05 122.2 153.15 123.3 152.5 125.15 151.6 127.05 150.85
L 118.65 163.45 119 166.75 159.65 168.6
Q 156.95 169.05 154.25 169.5 134.9 172.65 116.15 167.65
L 103.4 166.3 108.3 160.1 118.4 158.8
M 150.4 215.4
L 152.3 219.05 151.1 226.9 150.4 215.4
M 124.65 215
Q 125.05 217.05 125.65 219.05 134.35 249.75 111.4 256.6
L 110.6 258.25 118.55 259.6 111.15 260.05 121.05 260.8
Q 124.85 264.4 122.5 269.05 122.2 269.65 121.75 270.25
L 92.6 266.95 102.75 259.65 87.5 266.2 86.9 249.35
Q 92.6 245.95 97.2 241.1 106.2 231.65 108.9 218.85
L 123.6 219 113.45 214.6 124.65 215 Z"/>
</g>
</defs>

<g transform="matrix( 1, 0, 0, 1, 374.95,127.8) ">
<g transform="matrix( 1, 0, 0, 1, 0,0) ">
<use xlink:href="#barren_prop_0_Layer1_0_FILL"/>
</g>
</g>
</svg>
