
<svg xmlns="http://www.w3.org/2000/svg" version="1.1" xmlns:xlink="http://www.w3.org/1999/xlink" preserveAspectRatio="none" x="0px" y="0px" width="1000px" height="800px" viewBox="0 0 1000 800">
<defs>
<g id="barren_prop_33_Layer1_0_FILL">
<path fill="#000000" stroke="none" d="
M -230.9 549.6
Q -229.95 555.15 -228.85 560.7 -227.7 566.35 -222.15 567.75 -207.45 571.8 -199.2 559.15 -200.05 558.3 -200.9 557.5 -207.3 551.45 -215.9 549.9
L -230.9 549.6
M -203.5 559.8
Q -204.15 560.3 -204.8 560.8 -216.2 569.8 -228 561.25
L -227.1 550.9 -205.1 558.05 -203.5 559.8
M -160.85 524.3
Q -158.5 527.15 -158.5 531.15
L -172.5 542
Q -173.3 542.3 -174.05 542.65 -196.8 553.7 -220.35 545.15 -213.55 548.9 -206.05 550.2 -174.75 554.95 -153.2 532.2 -165.5 513.7 -186.85 508 -211.8 501.15 -230.15 518.85 -240.2 528.55 -231.2 539 -231.4 538.45 -231.55 537.95 -234.65 527.9 -228.65 519.05 -226.85 517.65 -225 516.35 -208.85 504.7 -190.7 512.6
L -172.65 518.65 -166.6 521.45
Q -163.25 521.45 -160.85 524.3
M -294.45 419.05
L -296.85 419.9 -317.9 429.85
Q -315.4 437.7 -307.85 440.95 -295.8 446.3 -287.3 436.2 -287.25 434.9 -287.2 433.6 -286.85 424.45 -294.45 419.05
M -304.35 439.7
Q -310.8 436.65 -314.5 430.5
L -311.75 429.85 -296.35 423.6 -290.5 433.95 -296.1 437.15 -302.1 440.75
Q -303.25 440.2 -304.35 439.7
M -3.6 567.15
Q -4.45 566.85 -5.3 566.6 -17.95 564.1 -25.35 574.85
L -23.8 576.95
Q -17 579.05 -10.45 576.4 -4.1 573.9 -3.6 567.15
M -15.35 568.7
Q -10.7 566 -5.75 567.9
L -8.1 570.45
Q -9.95 571.4 -11.75 572.35 -16.55 575.1 -21.85 573.75
L -17.9 570.35
Q -16.65 569.5 -15.35 568.7
M -329.65 361.05
L -328 360.9 -305.6 366.05 -286 402.55
Q -287.1 403.45 -288.2 404.4 -302.4 416.8 -321.25 415.05
L -322 414.95
Q -322.85 414.8 -323.65 414.7 -337.15 411.5 -343.7 399.2
L -345.85 391.1
Q -345.8 389.55 -345.75 388.05 -345.2 375.15 -337.15 365.1 -344.15 370.15 -347.75 377.9 -351.55 386 -348.7 394.2 -341.95 413.75 -321.45 417.2 -297.55 421.5 -280.95 403.75 -283.05 384.35 -296.35 370 -310.25 355 -329.65 361.05
M -209.55 190.3
L -213 186.1 -215.2 183.4 -196.8 169.8
Q -189.05 167.5 -182 171.4 -173.8 176 -171.1 184.9
L -182.65 196.45
Q -183.8 196.85 -184.95 197.3 -190.25 199.25 -194.85 198.95 -175.95 200.8 -166.9 182.75 -167.9 181.15 -168.9 179.6 -175.95 168.9 -187 162.65 -188.25 162.95 -189.45 163.3 -207.7 168.25 -218.45 184.05 -211.9 195.75 -198.7 198.4 -197.85625 198.540625 -197 198.65 -204.0931640625 197.3443359375 -209.55 190.3
M -97.45 134.1
L -89.1 148.4
Q -72.6 153.1 -57.05 146.1 -49 142.5 -47.6 133.9 -55.4 124.45 -67.75 124.15 -84.4 123.7 -97.45 134.1
M -88.6 141.45
L -92.55 133.8 -80.85 128.9
Q -77.85 128.25 -74.8 128.1 -61.8 127.55 -52.2 136.25 -53.2 136.9 -54.15 137.55 -70.15 149.05 -88.6 141.45
M -109.25 136
Q -114.7 136 -118.55 139.4 -122.4 142.75 -122.4 147.5 -122.4 152.25 -118.55 155.65 -114.7 159 -109.25 159 -103.8 159 -99.95 155.65 -96.1 152.25 -96.1 147.5 -96.1 142.75 -99.95 139.4 -103.8 136 -109.25 136
M -104.8 142.15
L -104.25 142.35 -100.4 150.45
Q -100.9 150.7 -101.4 150.9 -111.7 156.45 -118.8 147.05
L -118.25 145.3 -115.35 141.65 -104.8 142.15
M 373.55 565.45
L 375.35 553.2
Q 376.55 552.95 377.8 552.7 396.2 549.2 410.95 560.15
L 411.2 560.45
Q 410.45 558.1 408.65 556.55 391.85 542.5 371.7 551.4
L 369.8 569.9
Q 379.75 581.45 394.4 585.6 400.15 582.6 405.9 579.7 414.9 575.1 413 565.15
L 408.15 570.85 398.95 576.9
Q 398.6 577.2 398.3 577.55 393.45 582.25 387.85 578.75
L 373.35 568.1 373.55 565.45
M 517.45 487.5
L 502.25 488.25
Q 502.55 494.15 505 499.45 506.3 502.25 509 503.5 524.35 510.95 534.05 497 533.2 496.15 532.35 495.35 526.05 489.25 517.45 487.5
M 529.35 497.9
Q 528.5 498.5 527.7 499.1 516.4 507.15 505.35 498.85
L 506.25 488.5 528.25 495.65 529.35 497.9
M 498.65 467.35
Q 498.8 469.95 500.4 472 517.7 493.85 545.5 489.7 566.9 486.4 580.25 469.2 574.8 460.85 566.6 455.2 546.65 441.45 522.35 442.3 515.6 443.9 509.6 447.55 498 454.6 498.65 467.35
M 572.5 461.9
Q 574.85 464.75 574.85 468.75
L 560.85 479.6
Q 554.9 483.25 548.05 485.05 522.6 491.7 504.35 472.7
L 504.05 472.15
Q 503.7 471.3 503.45 470.45 501.05 463.25 504.7 456.65 506.35 455.3 508.1 454.1 524.3 442.65 542.65 450.2
L 561.05 456.35 566.75 459.05
Q 570.1 459.05 572.5 461.9
M 27.25 579.35
L 36.3 583.25 47.5 589.45
Q 36 577.6 19.45 575.15 -6.85 570.9 -28.65 585.9 -26.5 593.05 -21.35 598.25 -3.45 616.3 25.4 615.55 40.85 613.15 54.75 599.95
L 47.5 589.45 50.7 598.55 38.9 605.7
Q 33.8 607.75 28.35 608.95 22.05 610.2 15.55 609.4 -9.7 607.9 -25 587.55
L -23.4 586.25
Q -19.1 584.1 -14.8 582 5.6 572.2 27.25 579.35
M 285.4 572.95
L 301.75 571.75 305.75 571.9
Q 318.55 571.9 327.6 579.6 336.65 587.25 336.65 598.1
L 337.4 602.45
Q 327.05 606.1 316.15 607.7 299.25 610.45 282.25 608.45
L 282.8 604.15 264.7 597.5 263.25 595.15 269.45 581.75 261 594.4
Q 262.65 600.3 267 604.6 271.4 609.05 277.85 609
L 278.55 612.45
Q 286.75 614.05 294.9 614.45 313.4 615.85 331.1 610.7 341.45 607.55 341.4 596.65
L 343 596.75
Q 341.6 588.9 336.9 582.05 331.35 573.8 322.2 570.35 298.45 561.7 276.95 575.05
L 285.4 572.95
M 132.5 105.95
Q 130.95 105.3 129.4 104.7 118.9 100.95 107.8 102.9 107.2 103.35 106.55 103.75 97.5 110.3 86.25 110.9
L 84.5 117.6
Q 97.65 128.5 114.25 124.95 129.8 121.5 132.5 105.95
M 128.9 110.45
L 125.4 115.1
Q 122.55 119.85 117.5 121.5 100.65 127.3 88.35 114.45
L 91.55 113.25 101.8 110.9 107.05 108.7 109.1 106.8
Q 119.65 105.2 129.75 108.4
L 128.9 110.45
M 175.2 115
Q 171.95 112.6 167.35 112.6 162.75 112.6 159.5 115 156.25 117.35 156.25 120.75 156.25 124.15 159.5 126.55 162.75 128.9 167.35 128.9 171.95 128.9 175.2 126.55 178.45 124.15 178.45 120.75 178.45 117.35 175.2 115
M 168.55 116.3
L 173.7 120.7 164 124.3 161.2 119.6 168.55 116.3
M 583.95 327.2
Q 578.8 327.2 575.2 330.2 571.55 333.15 571.55 337.4 571.55 341.65 575.2 344.65 578.8 347.6 583.95 347.6 589.1 347.6 592.75 344.65 596.35 341.65 596.35 337.4 596.35 333.15 592.75 330.2 589.1 327.2 583.95 327.2
M 587.15 342.85
Q 586.7 343 586.3 343.2
L 576.7 338.75 577.2 335.85 588.55 332.4
Q 592.55 336.3 589.6 341.05 588.75 342.45 587.15 342.85
M 533.6 233.4
L 535.15 232.05 543.1 229.25
Q 559.9 233.65 562.25 250.3 560.6 251.5 558.95 252.75 547.1 262.05 532.15 260.85 536.5 261.4 540.9 261.95 548.15 262.35 554.8 260.15 563.55 257.35 569.2 250.2 567.55 246.9 565.7 243.8 557.4 229.85 542.4 224
L 518.5 237.75
Q 518.45 238.85 518.45 239.95 518.45 251.4 527.5 258.4
L 525.9 254.3 528.8 240.35 530.15 237.9 533.6 233.4
M 582.7 259.35
L 568.05 263.25
Q 564.95 264.5 562.05 266.15 544.25 276.25 544.8 296.8 545.25 312.3 558.35 320.1 574.95 330.05 589.45 317.65 603.85 305.35 599.45 287.15 595.45 270.6 582.7 259.35
M 579.25 263.3
L 581.25 264.65 594.25 286.2 594.9 287.3
Q 595.55 288.45 596.2 289.6 600.6 297.3 595.55 304.45
L 592.2 308.6 591.7 309.1
Q 577.75 323 559.3 315.15 546.95 310 546.45 296.65 546.3 292.55 546.3 288.45 546.8 287.45 547.35 286.55 558.1 267.65 579.25 263.3
M -51.25 446.7
Q -50.55 447.15 -49.85 447.65 -45 451.2 -39.5 448.9
L -52.8 443.05 -74.55 463.1 -89.45 481.4 -98.2 492.55 -89.55 485.95 -51.25 446.7
M -49.75 440.1
L -59.8 434.9 -62.65 436.3 -49.75 440.1
M -40.7 439
L -49.7 440.1 -43 440.5
Q -42.35 441.25 -41.65 441.95 -37 446.95 -30.2 447.1
L -40.7 439
M -149 325.1
L -142.55 324 -146.4 322.9 -146.35 309.35 -150.2 322.4 -151.45 323.3 -150.5 344.25 -149 325.1
M -113.05 267.95
L -104.25 256.95 -122.1 272.05 -117.4 270 -112.8 270.4 -113.05 267.95
M -102.4 212.45
L -81.05 225.4 -73.85 226.5
Q -90 216.55 -106.65 207.55 -116.1 202.35 -126.15 198.75
L -102.4 212.45
M -60.9 236.45
Q -64.9 235.35 -68.15 237.8
L -59.9 236.9
Q -60.4 236.65 -60.9 236.45
M -74.85 241.2
L -70.6 236 -92.15 247.95 -80.8 244.55 -74.85 241.2
M -32.4 221.45
Q -33.25 221.65 -34.05 221.85 -49.3 224.7 -59.65 236.4
L -50.3 229.9 -32.4 221.45
M -162.75 259.1
Q -168.1 258.1 -173.05 255.3 -187.05 247.55 -202.85 249.45
L -192.2 251.9 -131.6 270.45 -131.45 271.75 -142 288.65 -146.25 298.95 -147.3 303.2 -126.6 269.6 -128.95 267.6 -162.75 259.1
M -193.15 227.15
L -183.45 221.9 -156.15 208.35 -132.7 198.85 -133.8 197.6
Q -139.3 196.45 -144.6 198.4 -186.95 213.7 -218.55 246.05
L -222.1 246.35
Q -227.35 251.75 -232.5 257.2 -257.85 284.05 -268.2 319.6 -275.75 345.4 -269.75 371.9 -267.5 381.85 -263.65 391.2 -250.6 422.7 -224.55 444.7
L -222.4 444.7
Q -208.85 462.6 -189.6 474.15 -170.15 485.85 -152.3 499.95 -133 515.2 -109.45 508.1
L -125.85 504.3 -177 479.45 -194.9 467.25 -198.95 464
Q -203.3 462.05 -207 459.05 -216.2 451.7 -217.25 439.85
L -224.1 443.55 -229.15 438.45 -250.35 413.4
Q -261.95 392.35 -264.95 368.6 -266.65 355.25 -265.5 341.8
L -267.6 334.45 -263.7 333.7 -259.7 331.05 -267.4 327.95
Q -261.2 306.1 -249.45 286.75 -237.6 267.15 -221.55 250.75
L -213.75 249.05 -214.9 244 -193.15 227.15
M 424.65 459.75
L 425.95 457.65 359.55 428.65 350.4 425.25 342 424.4 370.5 437.75 424.65 459.75
M 68.5 541.5
Q 63.35 542.65 58.25 543.85 34.9 549.1 12.45 541.35
L 3.5 539.6 -106 508.9
Q -102.35 510.8 -98.7 512.7 -80.05 522.7 -59.8 529.35 -39.25 536.15 -18 539.45 5 542.8 27.05 550.05 50.25 557.55 68.5 541.5
M 72.3 461.7
L 72.45 461.1 72.45 461.05 72.4 461.1 71.95 461.2
Q 66.9 464.2 60.85 465.25 47.85 467 35.25 463.7
L 47.4 467.85 52 468.4
Q 53.4 468.45 54.8 468.55 65.1 468.85 72.3 461.7
M 85.5 482.3
L 87.9 471.5 153.35 468.55 154.4 468.4 157.65 467.55 155.05 467.4 158.1 466.5
Q 138 470 117.8 469.45 94.7 468.8 72.9 461.95
L 74.7 467 70.05 466.1 68.4 467.65
Q 69.55 467.5 70.7 467.35 78.6 467.1 85 471.45
L 68.4 526.8 69.65 531.95 85.5 482.3
M 83.5 426
Q 83.6 424.45 83.75 422.95
L 71.95 460.2
Q 82.5 444.75 83.5 426
M 210.6 547.05
L 175.15 551.55 160.35 552.95
Q 156.15 553.55 151.95 554.2 133.8 555.3 115.75 553.95 92.8 553.15 71.75 543.8
L 71.65 543.6 69.5 541.85
Q 71 550.15 79.1 552.45 101.4 558.65 124.65 558.3 146.5 557.95 168.1 555.45 189.65 552.7 210.6 547.05
M 235.35 453.3
L 229.3 453.9
Q 237.95 462.4 245.75 471.35 261.35 489.25 274.95 508.8
L 284.8 513.7 235.35 453.3
M 208.85 212.45
Q 208.25 212.25 207.7 212.1 185.5 205.3 162.15 204.15
L 148 203.95 208.85 212.45
M -176.6 322
Q -177.3 322.05 -177.95 322.1
L -155.95 323.8
Q -166.1 321.1 -176.6 322
M 152.8 161.9
Q 151.7 164.35 150.6 166.85 143.5 183.5 144.95 201.6
L 150.45 202.25 156.85 200.65 146.35 199.6 150.65 172.45 152.8 161.9
M 496.55 283.85
Q 497.85 285.9 499.25 287.95 508.7 302.2 510.65 319.15
L 511.85 322.4 510.95 320.25 512.75 326.7
Q 513.2 329.4 513.65 332.1 516.45 348.15 512.05 363.75
L 511.25 372 511.15 376.3 509.25 378.2 507.85 379.4 504 382.95 505.5 386.1
Q 502.65 392.4 499.85 398.75 490.45 420.15 474 436.8 457.8 453.3 436.6 462.2
L 427.95 462.3 434.5 468.25
Q 421.5 480 406.15 488.25 386.7 498.85 365.35 504.6 353.6 511.95 340.05 515.5 315.9 521.8 290.8 523.25
L 291.5 526.85 290 528.2
Q 271.7 534.65 253.05 539 231.1 544.25 208.5 545.45
L 210.6 546.35
Q 227.8 546.65 244.9 543.95 271.25 539.75 295.4 528.7
L 294.85 525.25
Q 309.1 524.9 323.3 522.15 349.7 516.9 374.4 506.45 419.8 487.2 457.3 455.2 473.4 441.45 486.55 424.8 501.85 405.35 510.2 382.2 515.8 379.05 517.1 372.75 521.9 349.5 517.15 326.3 512.25 302.45 496.55 283.85
M 417 361.35
L 439.1 368.3 493.9 378.75 427.85 362.75 417 361.35
M 366.45 326.05
L 368.5 331.15
Q 368.9 328.5 369.35 325.85 370.75 317.3 367.3 309.35 363.45 323.85 361.75 338.65 358.25 369.05 337.65 391.85 338.75 391.05 339.9 390.25 357.25 378.5 360.75 357.8
L 363.7 354.65 363.8 354.35 366.25 326.1 365.65 321.5 366.45 326.05
M 455.8 283.45
Q 440.75 286.35 425.7 289.25 400.25 294.55 375.05 301.5 371.1 302.65 368.65 306.2
L 392.7 299.7 399.55 297.9 455.8 283.45
M 452.65 234.15
L 466.25 246.35 487.1 267.3 490.9 274.15 487.9 279.25 485.25 280.3 494.4 281.3 491.85 278.4 494.8 274.45
Q 484.75 252.3 464.25 238.6 444.6 225.5 426 211.15 408.25 197.4 386 194.6 404.85 201.25 421.95 211.45 429.2 215.7 430.9 224.05
L 403.15 240.35 437.4 224.85 452.65 234.15
M -167.5 408.1
L -132 391.7 -123.15 396.65 -133.35 388.6 -167.5 408.1
M -198.95 420.35
L -190.7 418.8 -176.5 412.25 -198.95 420.35
M -107 387.25
L -92.8 385.85 -70.7 381.4 -52.65 376.55 -18.35 365.7
Q -17.7 359.9 -21 355.25 -26 348.25 -31.15 341.4 -31.3 341.25 -31.4 341.1
L -20.15 364.15 -66.25 377.5 -107 387.25
M -124.4 392.4
L -125.85 392.3 -118.1 399.5 -105.45 411.05 -114.95 399.8 -115.6 395.25 -119.3 397.6 -124.4 392.4
M -142.3 368.15
L -148.55 352.05 -143.8 368.1 -140.65 375.05 -142.3 368.15
M 93.3 397.85
L 95.1 398 88.8 395.45 93.3 397.85
M 227.6 451.15
L 234 449.75 217.5 449.05 218.25 452.2 227.6 451.15
M 289.9 309.65
L 296.45 308.65 285.4 309.85 289.9 309.65
M 315.3 413.95
L 311.7 413.9
Q 294.35 428.55 273.3 436.9 274.3 436.55 275.3 436.2 297.55 428.95 315.3 413.95
M 211.45 385.65
Q 211.1 385.4 210.75 385.2
L 227 404.1 256.35 439.25 258.3 439.15 256.65 433.7 255.65 432.7 227.35 401.6
Q 221.2 391.7 211.45 385.65
M 14.95 380.9
Q 18.85 382.1 23.05 381.95
L -11.2 359.45 -11.35 358.2 -14.6 356.25
Q -4.75 374.45 14.95 380.9
M 39.85 386.25
L 38.5 386.75 55.95 394.05
Q 56.85 394.35 57.75 394.7 67.9 398.7 78.5 396.4
L 87.45 395
Q 66.05 394.25 45.7 388.15 42.75 387.2 39.85 386.25
M 27.1 381
L 24.1 382.05 27.1 382.25 29.65 384.2 27.1 381
M 61.6 259.5
L 65.7 261.8 63.25 259.2 75.45 256.3 80.15 254.55 62.35 258.25 61.6 259.5
M -29 316.5
L -30.95 321.65 -28.55 319.4 -29 316.5
M -25 306.05
L -22.45 302.45 -24 303.4 -25 306.05
M -3.1 280.8
L -4.6 280.4 -16.85 289.8 -15.6 295.25
Q -6.1 290.75 -3.1 280.8
M -67.8 281.95
L -70.25 281.55 -34.55 291.35
Q -33.6 291.5 -32.65 291.7 -25.95 293.45 -20.4 289.4
L -21.2 289.2 -67.8 281.95
M 16.55 274.35
Q 16.7 274.35 16.85 274.35 18.5 274.95 17.65 273.6
L 13.95 274.1 15.1 274.85 16.55 274.35
M 33.75 265.5
L 25.7 267.1 17.85 273.55 33.75 265.5
M 39.1 232.7
Q 39.75 234 40.4 235.35 45.8 246.35 57.3 249.95
L 39.1 232.7
M 255 313.5
L 256 313.4 261.6 311.5 255 313.5
M 252.75 314.65
Q 250.8 316.75 248.95 319 245.05 323.85 244.35 329.85
L 245.2 326.4 245.3 328.6 248.8 325.3 252.75 314.65
M 271.9 309.7
L 267 311.1 276.8 310.05 271.9 309.7
M 220.5 365.15
L 215.1 366.15 208.35 372.05 201.45 378.2 218.1 368.3 218.05 366.95 220.5 365.15
M 174.35 387.25
L 165.85 387.85
Q 140.8 397.6 114.15 396.05
L 120.6 397.4 108.15 397.9
Q 115.6 398.9 123.2 398.9 146.65 398.9 167.6 388.6
L 174.35 387.25
M 231.4 292.1
L 233.3 295.55 236 300.55 234.6 302.8 234.65 302.8 237.15 302.85 240.5 307.05 236.9 301.85 237.25 300.55 235.2 297.6 231.4 292.1
M 185.8 265.2
L 182.85 257.8 197.6 243.3 179.1 256.45 179 258.45 185.8 265.2
M 160.7 380.8
L 157.85 375.7 145.85 368.2 159.45 380.6 160.7 380.8
M 226.35 360.75
L 224.75 360.95 222.3 363.8 226.35 360.75
M 240.5 338.75
L 238.95 346.15 241.8 337.5 240.5 338.75
M 116.35 254.8
L 116.2 254.8 118 256.05 116.35 254.8
M 175.7 258.6
Q 174.4 258.6 173.5 259.15 172.55 259.7 172.55 260.45 172.55 261.2 173.5 261.75 174.4 262.3 175.7 262.3 177 262.3 177.95 261.75 178.85 261.2 178.85 260.45 178.85 259.7 177.95 259.15 177 258.6 175.7 258.6
M 119.65 255
L 118 256.05 141.25 257.3 170.2 263.2 168.3 264.7 163.5 268.35 176.3 265.1
Q 197.15 270.95 215.45 282.8
L 214.25 283.55 204.9 288.55 215.1 283.95 220 283 219.8 282.85
Q 212.85 279.3 205.9 275.8 186.1 265.95 164.4 261 142.3 256.1 119.65 255
M 129.35 204.7
L 124.55 203.95 127.05 205.65 129.35 204.7
M 53.5 201.2
L 43.25 202.25 25.15 207.35 21.6 209.65 17.3 209 22.05 211.65 23.15 210.15 29.65 214.35 26.2 210.5 53.5 201.2
M 23.95 189.95
L 23.6 192.5 30.95 201.65 31.15 198.65 23.95 189.95
M 293.1 239.95
Q 301.55 243.55 308.8 249.3
L 297.3 238.9 279.75 234.5
Q 286.4 237.2 293.1 239.95
M 251.15 224.15
L 260.25 227.65 277.85 234
Q 275.4 232.75 273 231.55 255.85 223.05 237.4 218.35
L 227 217.15 214.65 225.25
Q 217.25 224.3 219.85 223.35 235.7 217.95 251.15 224.15
M 253.15 218.85
L 247.35 216.35 259.7 205.45 276.65 189.45
Q 267.55 194 259.85 200.85 251.1 208.5 245.3 218.9
L 253.15 218.85
M 358.95 311.15
L 354.75 305.15 312.9 307.2 358.95 311.15
M 363.55 260.5
L 390.85 247.45 380.4 250.85 363.55 260.5
M 340.3 271.15
L 338.6 269.5 348.8 286.7 347.4 289.9 351 289.45 351.3 286.9 340.3 271.15
M 349.05 180.95
Q 351.95 182.35 354.85 183.8 368.1 190.7 382.65 193.5 378.25 190.85 373.7 188.5 353 178.2 330.55 172.35 308.3 166.6 286.15 160.65 264.95 154.9 243.8 149.15 228.15 145 212.1 143.9 190.3 143.15 168.6 144.35 146.6 145.15 124.75 143.95 103.75 143.2 82.8 142.6 61.5 141.95 40.45 145.75 19.35 149.4 -1.65 153.35 -25.1 157.95 -48.45 162.85 -71.1 167.4 -93.1 174.3 -115.8 181.3 -133.6 197.2 -132.4 197.2 -131.5 196.7 -130.65 196.15 -130.65 195.45 -113.55 186.45 -95.5 179.65 -75.05 172.05 -53.7 167.4 -32.3 162.85 -10.55 159.55
L -8.15 159.5 -6.3 157.4 3 164.1 -3.35 156.1
Q 13.45 152.95 30.35 150.15 51.8 146.8 73.55 145.8
L 148.8 147.85 152.3 150.65 153.95 150.15 157.1 146.35 162.7 146.15 171.65 146.8 216.9 150.4 236.8 153.4 255.85 157.5 263.4 158.85 305.65 168.35 297.05 172.05 286.05 180.3
Q 286.9 179.7 287.8 179.15 301.4 170.6 317.5 172.2
L 335.8 176.9 349.05 180.95
M 354.2 150.05
L 369.25 144.8 362 134.35 365.15 143.4 354.2 150.05
M 361.9 134.3
Q 356.95 129.05 350.55 125.85 328.45 114.9 305 121.35 306.35 120.6 307.7 119.85 309.25 119.15 310.35 117.8 311.1 116.8 311.6 115.65 312.1 114.45 311.95 113.25 309.15 112.3 306.35 111.8 295.5 110.6 289.1 119.7
L 291.55 122.25 302.7 122.05 285.8 130.75
Q 287 133.25 296.75 144.05 306.5 154.85 327.2 159.45
L 350.6 151.3 344.55 152.95 342.6 153.35
Q 335.85 154.55 329.1 154.15 304.4 152.45 289.45 132.4
L 291.05 131.1
Q 295.35 128.9 299.75 126.8 320.25 116.7 341.7 124.2
L 350.75 128.1 361.9 134.3
M 308.7 112.75
L 306.35 115.3
Q 304 116.55 301.7 117.8 297.35 120.2 292.6 118.6
L 296.55 115.2
Q 298.05 114.35 299.65 113.65 304.1 111.6 308.7 112.75 Z"/>

<path fill="#837A75" stroke="none" d="
M -227.1 550.9
L -228 561.25 -205.1 558.05 -227.1 550.9
M -198.05 515.45
L -190.7 512.6
Q -208.85 504.7 -225 516.35 -226.85 517.65 -228.65 519.05
L -222.75 518.15 -229.95 532.45 -229.75 534.5 -212.4 539.05
Q -206.25 536.1 -199.95 533.6 -192.2 530.5 -184 528.9 -182.05 528.55 -180.1 528.2
L -208.1 540.3 -206.75 543.8 -172.5 542 -158.5 531.15
Q -161.85 531.15 -164.2 528.3 -166.6 525.45 -166.6 521.45
L -172.65 518.65 -198.05 515.45
M -290.5 433.95
L -296.35 423.6 -311.75 429.85 -299.6 435.1 -293.25 433.35 -296.1 437.15 -290.5 433.95
M -5.75 567.9
Q -10.7 566 -15.35 568.7 -16.65 569.5 -17.9 570.35
L -8.1 570.45 -5.75 567.9
M -319.65 388.5
Q -319.1 388.05 -318.5 387.65
L -316.2 388.75 -324.55 395.35 -314 400.9 -336.45 403.55 -322 414.95 -321.25 415.05 -305.5 409.5 -320.75 409.7 -298.1 405.15 -294.15 397 -305.6 366.05 -328 360.9 -344.3 381.95 -341.45 392.55 -345.85 391.1 -343.7 399.2
Q -330 397.5 -319.65 388.5
M -321.7 366.7
Q -320.95 367.45 -320.95 368.55 -320.95 369.65 -321.7 370.45 -322.5 371.2 -323.6 371.2 -324.7 371.2 -325.45 370.45 -326.25 369.65 -326.25 368.55 -326.25 367.45 -325.45 366.7 -324.7 365.9 -323.6 365.9 -322.5 365.9 -321.7 366.7
M -320.9 379.3
Q -322.65 377.75 -322.65 375.6 -322.65 373.45 -320.9 371.95 -319.2 370.4 -316.8 370.4 -314.4 370.4 -312.65 371.95 -310.95 373.45 -310.95 375.6 -310.95 377.75 -312.65 379.3 -314.4 380.8 -316.8 380.8 -319.2 380.8 -320.9 379.3
M -326.9 380.3
Q -327.6 381 -328.6 381 -329.6 381 -330.3 380.3 -331 379.6 -331 378.6 -331 377.6 -330.3 376.9 -329.6 376.2 -328.6 376.2 -327.6 376.2 -326.9 376.9 -326.2 377.6 -326.2 378.6 -326.2 379.6 -326.9 380.3
M -213 186.1
L -209.55 190.3 -185.3 192.75 -176.95 183.9 -176.2 186 -182.65 196.45 -171.1 184.9
Q -173.8 176 -182 171.4 -189.05 167.5 -196.8 169.8
L -212.8 183.15 -213 186.1
M -193.75 172.15
Q -193.35 171.7 -192.75 171.7 -192.15 171.7 -191.7 172.15 -191.3 172.6 -191.3 173.2 -191.3 173.8 -191.7 174.25 -192.15 174.7 -192.75 174.7 -193.35 174.7 -193.75 174.25 -194.2 173.8 -194.2 173.2 -194.2 172.6 -193.75 172.15
M -188.05 174.55
Q -186.25 174.55 -184.95 175.85 -183.65 177.15 -183.65 178.95 -183.65 180.75 -184.95 182.05 -186.25 183.35 -188.05 183.35 -189.85 183.35 -191.15 182.05 -192.45 180.75 -192.45 178.95 -192.45 177.15 -191.15 175.85 -189.85 174.55 -188.05 174.55
M -201.8 178.3
Q -201.1 177.55 -200.1 177.55 -199.1 177.55 -198.4 178.3 -197.7 179 -197.7 180 -197.7 181 -198.4 181.75 -199.1 182.45 -200.1 182.45 -201.1 182.45 -201.8 181.75 -202.5 181 -202.5 180 -202.5 179 -201.8 178.3
M -87.3 135.25
L -84.75 140.75
Q -74.45 142 -64.25 140.3 -59.65 139.5 -55.95 136.5 -56.9 134.25 -59 133.2 -66.2 129.6 -74.45 130.2 -78.4 130.3 -82.3 131.05
L -80.85 128.9 -92.55 133.8 -88.6 141.45 -87.3 135.25
M -116.6 149
L -100.4 150.45 -104.25 142.35 -116.6 149
M -115.35 141.65
L -118.25 145.3 -104.8 142.15 -115.35 141.65
M 398.95 576.9
L 387.85 578.75
Q 393.45 582.25 398.3 577.55 398.6 577.2 398.95 576.9
M 375.35 553.2
L 373.55 565.45 377.95 565.9
Q 389.25 575.4 403.8 571.85 405.95 571.35 408.15 570.85
L 413 565.15 413.85 564.15 387.85 568 410.95 560.15
Q 396.2 549.2 377.8 552.7 376.55 552.95 375.35 553.2
M 390.45 556.35
Q 390.45 558.15 389.2 559.45 387.95 560.7 386.15 560.7 384.35 560.7 383.1 559.45 381.85 558.15 381.85 556.35 381.85 554.55 383.1 553.3 384.35 552 386.15 552 387.95 552 389.2 553.3 390.45 554.55 390.45 556.35
M 505.35 498.85
L 528.25 495.65 506.25 488.5 505.35 498.85
M 574.85 468.75
Q 571.5 468.75 569.15 465.9 566.75 463.05 566.75 459.05
L 561.05 456.35 535.45 453.1 542.65 450.2
Q 524.3 442.65 508.1 454.1 506.35 455.3 504.7 456.65
L 510.6 455.75 504.05 472.15 504.35 472.7 520.95 476.65
Q 528.6 472.7 536.75 470.35 544.95 467.9 553.25 465.85
L 525.25 477.9 526.6 481.4
Q 534.25 483.9 542.15 483.85 545 483.85 547.75 483.15 554.35 481.55 560.85 479.6
L 574.85 468.75
M 21.25 584.45
L 27.25 579.35
Q 5.6 572.2 -14.8 582 -19.1 584.1 -23.4 586.25 -8.05 598.4 10.45 604.85 30.65 611.9 45.3 596.4
L 47.3 596.8 38.9 605.7 50.7 598.55 47.5 589.45 36.3 583.25 21.25 584.45
M 7 585.25
Q 7 583.4 8.35 582.1 9.65 580.75 11.55 580.75 13.45 580.75 14.8 582.1 16.1 583.4 16.1 585.25 16.1 587.1 14.8 588.45 13.45 589.75 11.55 589.75 9.65 589.75 8.35 588.45 7 587.1 7 585.25
M 2.8 584.15
Q 3.35 584.7 3.35 585.55 3.35 586.4 2.8 587 2.2 587.55 1.35 587.55 0.5 587.55 -0.05 587 -0.65 586.4 -0.65 585.55 -0.65 584.7 -0.05 584.15 0.5 583.55 1.35 583.55 2.2 583.55 2.8 584.15
M 4.4 591.2
Q 4.4 590.25 5.05 589.6 5.7 588.95 6.6 588.95 7.5 588.95 8.15 589.6 8.8 590.25 8.8 591.2 8.8 592.15 8.15 592.8 7.5 593.45 6.6 593.45 5.7 593.45 5.05 592.8 4.4 592.15 4.4 591.2
M 300.85 572.15
Q 301.3 571.95 301.75 571.75
L 285.4 572.95
Q 293.3 575.7 300.85 572.15
M 269.6 581.45
L 268.25 589.35 281.95 598.55 286.8 593.9 336.65 598.1
Q 336.65 587.25 327.6 579.6 318.55 571.9 305.75 571.9 292.15 580.8 276.7 575.25 276.55 575.2 276.4 575.15
L 269.6 581.45
M 299.15 578.8
Q 301.4 578.8 303 580.4 304.55 581.95 304.55 584.15 304.55 586.35 303 587.95 301.4 589.5 299.15 589.5 296.9 589.5 295.35 587.95 293.75 586.35 293.75 584.15 293.75 581.95 295.35 580.4 296.9 578.8 299.15 578.8
M 309.25 578.55
Q 310 579.3 310 580.35 310 581.4 309.25 582.15 308.5 582.9 307.4 582.9 306.3 582.9 305.55 582.15 304.8 581.4 304.8 580.35 304.8 579.3 305.55 578.55 306.3 577.8 307.4 577.8 308.5 577.8 309.25 578.55
M 309 583.9
Q 310.3 583.9 311.25 584.85 312.15 585.75 312.15 587.05 312.15 588.35 311.25 589.3 310.3 590.2 309 590.2 307.7 590.2 306.8 589.3 305.85 588.35 305.85 587.05 305.85 585.75 306.8 584.85 307.7 583.9 309 583.9
M 288.65 598.75
L 286.7 600.7 284.45 604 313.2 600.5 288.65 598.75
M 128.9 110.45
L 129.75 108.4
Q 119.65 105.2 109.1 106.8
L 107.05 108.7 128.9 110.45
M 124.25 115.7
Q 124.8 115.4 125.4 115.1
L 108.65 112.95 108.85 114.35 103.5 118 101.1 114.9 102.4 111.2 101.8 110.9 91.55 113.25
Q 107.15 124.95 124.25 115.7
M 173.7 120.7
L 168.55 116.3 161.2 119.6 164 124.3 173.7 120.7
M 586.3 343.2
Q 586.7 343 587.15 342.85 588.75 342.45 589.6 341.05 592.55 336.3 588.55 332.4
L 577.2 335.85 576.7 338.75 586.3 343.2
M 530.15 237.9
L 535.1 237.65 536.1 243.25 531.15 244.65 528.8 240.35 525.9 254.3 540.15 249 530.55 256.55 530.55 258.9
Q 534.75 259.45 538.95 259.1 550.4 258.35 559.35 251.3
L 559.3 244.4 543.1 229.25 535.15 232.05 537.15 233.4
Q 536.85 235.95 534.6 235.45
L 533.6 233.4 530.15 237.9
M 540.55 239.05
Q 539.9 239.05 539.45 238.6 539 238.15 539 237.5 539 236.85 539.45 236.4 539.9 235.95 540.55 235.95 541.2 235.95 541.65 236.4 542.1 236.85 542.1 237.5 542.1 238.15 541.65 238.6 541.2 239.05 540.55 239.05
M 557.05 308.45
L 565.2 313.4 570.45 303.75 559.9 306.95 557.05 308.45
M 594.9 287.3
L 594.25 286.2
Q 587.3 297.75 574.4 302.2 572.55 302.9 570.7 303.65
L 567 314.15
Q 577.75 317.2 587.6 312.05 589.85 310.85 591.7 309.1
L 592.2 308.6 595.55 304.45 594.9 287.3
M 581.25 264.65
L 579.25 263.3
Q 558.1 267.65 547.35 286.55 546.8 287.45 546.3 288.45
L 550.95 305.6
Q 566.35 303.75 577.7 293.35 583.9 287.7 590.15 282.15 587.3 281.45 584.4 281.05 575.2 279.35 566.3 281.85
L 568.65 283.6 566.1 286.15 564.35 284 565.7 282 564.15 282.35 578.6 273.85 581.25 264.65
M 567 289.75
Q 567 288.7 567.75 288 568.5 287.25 569.55 287.25 570.6 287.25 571.35 288 572.1 288.7 572.1 289.75 572.1 290.8 571.35 291.55 570.6 292.25 569.55 292.25 568.5 292.25 567.75 291.55 567 290.8 567 289.75
M 556.55 292.65
Q 555.2 291.3 555.2 289.35 555.2 287.4 556.55 286.05 557.9 284.7 559.8 284.7 561.7 284.7 563.05 286.05 564.4 287.4 564.4 289.35 564.4 291.3 563.05 292.65 561.7 294 559.8 294 557.9 294 556.55 292.65
M -193.15 227.15
Q -193.95 231.75 -198.55 232.85 -199.2 232.95 -199.85 233.05
L -204.3 242.85
Q -181.7 247.75 -161.45 258.75
L -162.75 259.1 -128.95 267.6 -68.15 232.5 -81.05 225.4 -102.4 212.45 -132.7 198.85 -156.15 208.35
Q -164 221.8 -179.5 221.85 -181.5 221.85 -183.45 221.9
L -193.15 227.15
M 51.2 450.4
L 41.45 459.9 54 460.9 60.85 460.9
Q 60.35 456.7 56.85 454.3 54 452.35 51.2 450.4
M 85.5 482.3
Q 93.3 483.1 97.6 476.45 98.2 475.55 98.8 474.7
L 87.9 471.5 85.5 482.3
M 168.5 192.65
L 169 188 157.85 191.9 167.1 193.75 168.5 192.65
M 349.05 180.95
L 335.8 176.9
Q 327.25 178.45 319.9 173.65 318.7 172.9 317.5 172.2 301.4 170.6 287.8 179.15 286.9 179.7 286.05 180.3
L 297.05 172.05 294.05 168.15
Q 280 166.65 267 160.5 265.2 159.65 263.4 158.85
L 255.85 157.5
Q 246.95 163.55 239.2 155.8 238 154.6 236.8 153.4
L 216.9 150.4
Q 194.25 154.7 172.55 146.95 172.1 146.85 171.65 146.8
L 162.7 146.15 157.65 147.1 152.8 161.9 150.65 172.45 149.3 191.6
Q 162.45 184.35 176.35 178.2 195.1 169.9 215.15 165.35 222.5 163.85 229.85 162.35 227.85 164.5 225.05 165.05 207.9 168.8 191.65 175.85 181.05 180.4 171.45 186.7
L 171.2 194.15 162.9 196.75 214.25 211.4 208.85 212.45 148 203.95 162.15 204.15 150.45 202.25 144.95 201.6 140.55 198.75 148.8 147.85 73.55 145.8 -0.1 159.25
Q 0.7 159.85 1.5 160.55 11.75 169.6 18.65 181.2 18.65 181.25 18.65 181.3 1.6 173.8 -10.55 159.55 -32.3 162.85 -53.7 167.4 -75.05 172.05 -95.5 179.65 -113.55 186.45 -130.65 195.45 -108.05 202.9 -85 208.5 -61.6 214.15 -37.55 210.7 -17.4 207.55 2.85 204.7 14.9 203 26.95 201.35
L -58.95 222.55 -60.6 229.3 -24.7 216.75 -26.6 218.8 -6.75 213.2 -50.3 229.9 -59.65 236.4 -59.9 236.9 -68.15 237.8 -74.85 241.2 -80.8 244.55 -113.05 267.95 -112.8 270.4 -117.4 270
Q -135.4 285.6 -145.35 307.05 -145.85 308.2 -146.35 309.35
L -146.4 322.9 -142.55 324 -149 325.1 -150.5 344.25 -151.45 323.3
Q -174.9 328.25 -198.05 322.4 -204.9 320.7 -211.75 319 -194.55 322.25 -177.35 319.7 -166.45 317.85 -157.3 311.55 -150.2 306.6 -146.25 298.95
L -142 288.65 -131.6 270.45 -192.2 251.9 -213.75 249.05 -221.55 250.75
Q -237.6 267.15 -249.45 286.75 -261.2 306.1 -267.4 327.95 -256.15 326.8 -245.1 329.1 -244 329.4 -242.9 329.75
L -263.7 333.7 -267.6 334.45 -265.5 341.8 -250.35 413.4 -229.15 438.45 -208.6 426.45 -218.25 436.45
Q -217.45 437.15 -216.65 437.85 -212.05 441.9 -210.1 447.75 -208.1 453.75 -202 455.2
L -198.95 464 -194.9 467.25
Q -173 467.85 -161.45 449.2 -160.55 447.75 -159.65 446.35
L -160.4 457.15
Q -144.15 462.8 -126.9 462
L -121.15 458
Q -124.05 467.4 -134.5 466.1 -156.75 463.95 -176.55 474.15
L -177 479.45 -125.85 504.3 -125.3 501
Q -104.9 498.35 -91.2 483.25 -90.35 482.3 -89.45 481.4
L -74.55 463.1 -56.6 444.1
Q -67.4 440.55 -75.7 432.7 -86.7 422.2 -99.25 413.65
L -59.8 434.9 -49.75 440.1 -49.7 440.1 -40.7 439 -30.2 447.1 -23.45 451.4 -39.5 448.9
Q -45 451.2 -49.85 447.65 -50.55 447.15 -51.25 446.7
L -89.55 485.95 -100.1 505.2
Q -79.2 511.5 -58.3 517.8 -37.15 524.2 -15.95 530.65 -5.6 533.7 3.5 539.6
L 12.45 541.35
Q 34.45 533.85 56.8 540.7 60.1 541.65 63.65 541.9
L 68.4 526.8 85 471.45 52 468.4 47.4 467.85 -12.45 453.55 32.7 458.75
Q 33.2 457.95 33.75 457.25 34.3 456.45 35 455.8 47.4 444.75 64.8 442.15
L 69.05 432.5
Q 69.1 433.15 69.15 433.8 69.15 434.45 69.2 435.15 69.4 440.6 66.15 444.95
L 56.05 448.85 64.75 459.95 71.95 461.2 72.4 461.1 71.95 460.2 83.75 422.95
Q 83.6 424.45 83.5 426 82.5 444.75 71.95 460.2
L 72.45 461.05 72.45 461.1 72.55 461.3
Q 94 465.5 115.75 466 122.1 466.4 128.45 466.55 152.05 467.05 175.4 463.85 183.5 463 191.65 462.2
L 154.4 468.4 153.35 468.55
Q 130.25 476.75 106.2 472.2 104.7 471.95 103.2 471.7 103.45 474.6 101.9 477.1 100.05 480.2 97.05 482.15 92.55 485 87.2 484.6
L 71.65 543.6 71.75 543.8
Q 93.45 551.3 114.9 542.95 116.3 542.35 117.7 541.75
L 109.05 530.1 127.75 522.25 123.8 515.8 129.55 521.1 128.75 522.1 150.8 522.25 113.25 529.6
Q 128.15 549.15 152.3 552.15 156.3 552.55 160.35 552.95
L 175.15 551.55 208.5 545.45
Q 231.1 544.25 253.05 539 271.7 534.65 290 528.2 286.7 515.85 275.65 509.3 275.3 509.05 274.95 508.8 261.35 489.25 245.75 471.35 237.95 462.4 229.3 453.9
L 235.35 453.3 234.55 451.1
Q 251.85 466.9 268.05 484.05 282.3 499.1 295.1 515.3 296.9 517.55 298.7 519.85
L 322.1 515.35 315.6 504.85 296.5 505.95 317.3 502.2 323.9 514.85 349.45 501.6 348.25 506.25 408.6 482.25 365.35 504.6
Q 386.7 498.85 406.15 488.25 421.5 480 434.5 468.25
L 427.95 462.3 436.6 462.2 425.95 457.65 424.65 459.75 370.5 437.75
Q 348.5 433.95 332.85 417.55 331.85 416.5 330.9 415.5
L 350.4 425.25 359.55 428.65
Q 381.6 437.3 404.75 442.8 427.95 448.4 451.75 448.4 452.5 448.4 453.25 448.45 464.75 440.9 473.7 430.55 484.8 417.65 493.35 403.15 499.15 393.25 503.9 382.8
L 439.1 368.3 417 361.35 427.85 362.75 393.6 352.3
Q 408.45 355.2 423.3 358.1 444.85 362.4 466.05 368 486.95 373.7 507.85 379.4
L 509.25 378.2 511.25 372 512.05 363.75 512.75 326.7 510.95 320.25 509.25 316.1 504.1 313.55 508.05 312.1 510.65 319.15
Q 508.7 302.2 499.25 287.95 497.85 285.9 496.55 283.85
L 494.4 281.3 485.25 280.3 399.55 297.9 392.7 299.7 371.2 306.8
Q 372.65 321.3 370.1 335.55 368.3 345.45 363.8 354.35
L 363.7 354.65
Q 357.6 378.3 340.45 395.5 330.85 405.15 318.4 410.55 345.05 386.25 354.5 351.35 361.15 326.6 361 300.8 425.3 288.55 487.1 267.3
L 466.25 246.35
Q 455.3 242 443.65 243.7 442.9 243.8 442.15 243.9
L 452.65 234.15 437.4 224.85 403.15 240.35 392.7 245.25 425.8 220.6
Q 424.65 218.9 423.4 217.3 421.55 214.95 419.35 213.05 400.1 196.05 374.5 200.15 373.15 200.3 371.85 200.5
L 369.65 199.15 371.95 195.95 349.05 180.95
M 336 195.4
Q 335.1 192.1 335.25 188.65 343 186.9 350.3 190.35 351.3 190.85 352.35 191.4 352.15 202.4 341.3 200.7 337.2 199.95 336 195.4
M 345.9 211.1
Q 345.9 213.25 344.4 214.75 342.85 216.25 340.7 216.25 338.55 216.25 337.05 214.75 335.5 213.25 335.5 211.1 335.5 208.95 337.05 207.45 338.55 205.95 340.7 205.95 342.85 205.95 344.4 207.45 345.9 208.95 345.9 211.1
M 332 199.05
Q 333.9 200.95 333.9 203.65 333.9 206.35 332 208.3 330.05 210.2 327.3 210.2 324.55 210.2 322.65 208.3 320.7 206.35 320.7 203.65 320.7 200.95 322.65 199.05 324.55 197.1 327.3 197.1 330.05 197.1 332 199.05
M 338.6 269.5
L 340.3 271.15 351.3 286.9 351 289.45 347.4 289.9 348.8 286.7 338.6 269.5
M 390.85 247.45
L 363.55 260.5 380.4 250.85 390.85 247.45
M 354.75 305.15
L 358.95 311.15 312.9 307.2 354.75 305.15
M 410.95 390.8
Q 409.7 389.55 409.7 387.8 409.7 386.05 410.95 384.85 412.2 383.6 413.95 383.6 415.7 383.6 416.95 384.85 418.2 386.05 418.2 387.8 418.2 389.55 416.95 390.8 415.7 392 413.95 392 412.2 392 410.95 390.8
M 418.3 394.75
Q 421 392 424.85 392 428.7 392 431.45 394.75 434.15 397.5 434.15 401.35 434.15 405.2 431.45 407.95 428.7 410.7 424.85 410.7 421 410.7 418.3 407.95 415.55 405.2 415.55 401.35 415.55 397.5 418.3 394.75
M 282.05 182
L 276.65 189.45 259.7 205.45 253.25 214.85
Q 270.9 221.6 286.85 232.05 292.05 235.45 297.3 238.9
L 308.8 249.3
Q 301.55 243.55 293.1 239.95 286.4 237.2 279.75 234.5
L 277.85 234 260.25 227.65 261.6 228.5 251.15 224.15
Q 235.7 217.95 219.85 223.35 217.25 224.3 214.65 225.25
L 227 217.15 237.4 218.35 282.05 182
M 23.6 192.5
L 23.95 189.95 31.15 198.65 30.95 201.65 23.6 192.5
M 74.7 153.45
Q 77.25 155.7 77.25 158.85 77.25 162 74.7 164.25 72.1 166.5 68.45 166.5 64.8 166.5 62.25 164.25 59.65 162 59.65 158.85 59.65 155.7 62.25 153.45 64.8 151.2 68.45 151.2 72.1 151.2 74.7 153.45
M 66.95 167.95
Q 68.15 169.15 68.15 170.85 68.15 172.55 66.95 173.8 65.7 175 64 175 62.3 175 61.1 173.8 59.85 172.55 59.85 170.85 59.85 169.15 61.1 167.95 62.3 166.7 64 166.7 65.7 166.7 66.95 167.95
M 74.2 169.8
Q 74.2 168.2 75.35 167.05 76.5 165.9 78.1 165.9 79.7 165.9 80.85 167.05 82 168.2 82 169.8 82 171.4 80.85 172.55 79.7 173.7 78.1 173.7 76.5 173.7 75.35 172.55 74.2 171.4 74.2 169.8
M 70.5 193.55
Q 75.8 193.35 81.1 193.2
L 43.25 202.25 53.5 201.2 26.2 210.5 29.65 214.35 23.15 210.15 22.05 211.65 17.3 209 21.6 209.65 25.15 207.35
Q 46.05 194.55 70.5 193.55
M 124.55 203.95
L 129.35 204.7 127.05 205.65 124.55 203.95
M 118 256.05
L 116.2 254.8 103.05 255.95
Q 121 253.3 139.4 253.85 159.25 255.1 179.1 256.45
L 197.6 243.3 182.85 257.8 219.8 282.85 220 283 233.3 295.55 231.4 292.1 235.2 297.6 244.4 308.05 279.35 307.4 271.9 309.7 276.8 310.05 267 311.1 256 313.4 255 313.5 252.75 314.65 248.8 325.3
Q 247.7 334.85 243.55 343.35 232.8 365.6 211.4 377.8 191.1 389.3 167.6 388.6 146.65 398.9 123.2 398.9 115.6 398.9 108.15 397.9
L 120.6 397.4 114.15 396.05
Q 140.8 397.6 165.85 387.85 156.9 377.35 144.8 370.6 143.05 369.65 141.3 368.75
L 145.85 368.2 157.85 375.7
Q 180.65 385.5 203.35 375.15 206 373.9 208.35 372.05
L 215.1 366.15
Q 234.9 351.3 241.45 327.7 243.1 321.9 242.75 315.7
L 240.9 313.65 240.8 311.6 234.65 302.8 234.6 302.8 215.1 283.95 204.9 288.55 214.25 283.55
Q 193.4 279.65 177.1 265.8 176.7 265.45 176.3 265.1
L 163.5 268.35 168.3 264.7 141.25 257.3 118 256.05
M 40.4 235.35
Q 39.75 234 39.1 232.7
L 57.3 249.95
Q 45.8 246.35 40.4 235.35
M 25.7 267.1
L 33.75 265.5 17.85 273.55 17.65 273.6
Q 18.5 274.95 16.85 274.35 16.7 274.35 16.55 274.35 -2.35 287 -16 305 -25.2 317.2 -32.05 330.75
L -30.95 321.65 -29 316.5 -25 306.05 -24 303.4 -21.05 296.05 -34.55 291.35 -70.25 281.55 -67.8 281.95 -77.7 279.45
Q -56.2 278.2 -35.6 284.7 -28.4 286.85 -21.2 289.2
L -20.4 289.4 -16.85 289.8 -4.6 280.4 25.7 267.1
M 65.7 261.8
L 61.6 259.5 62.35 258.25 80.15 254.55 75.45 256.3 63.25 259.2 65.7 261.8
M 68.05 342.7
Q 59.15 334.15 54.9 322.75 74.95 295.45 108.8 295.3 130.85 295.2 148.75 307.65 155.35 312.15 160.7 318.05 143.05 341.85 113.55 339.45 95.5 337.75 82.9 324.85
L 87.15 319.2
Q 99.15 308.75 114.85 309.05 117.1 309.35 119.4 309.7
L 119.45 312.85
Q 120.5 313.8 121.45 314.9 122.1 315.65 122.5 316.65 123.2 318.5 122.35 320.4 121.95 321.35 121.55 322.3
L 112.5 315.05 98.7 324.05
Q 115.4 338.25 135 328.25 140.95 325.2 144.6 319.8 129.3 301.35 105.75 305.2 83.45 308.8 66.5 324.1 85.55 346.9 115.2 347.75 130.25 348.35 143.2 341.15 119.5 361.95 88.9 354.25 77.05 351.25 68.05 342.7
M 24.1 382.05
L 27.1 381 29.65 384.2 27.1 382.25 24.1 382.05
M 38.5 386.75
L 39.85 386.25
Q 42.75 387.2 45.7 388.15 66.05 394.25 87.45 395
L 78.5 396.4
Q 72.85 402.3 65.3 398.55 64.7 398.25 64.1 398
L 36.1 421.15 44.75 437.25
Q 35.5 432.15 35.3 421.55 35.3 420.75 35.4 419.95 35.6 418.3 35.85 416.65
L 55.95 394.05 38.5 386.75
M 23.05 381.95
Q 18.85 382.1 14.95 380.9 -4.75 374.45 -14.6 356.25
L -11.35 358.2 -11.2 359.45 23.05 381.95
M 210.75 385.2
Q 211.1 385.4 211.45 385.65 221.2 391.7 227.35 401.6
L 230.9 394.95 218.5 379.75
Q 229.45 386.2 236.05 397 246.7 414.5 255.65 432.7
L 256.65 433.7 261.55 437.55 311.7 413.9 315.3 413.95 316.75 415.75
Q 297.45 432.15 273.9 440.9 255.25 447.8 235.35 450.05
L 254.5 441.8 225.85 410.15 227 404.1 210.75 385.2
M 296.45 308.65
L 289.9 309.65 285.4 309.85 296.45 308.65
M 234 449.75
L 227.6 451.15 218.25 452.2 217.5 449.05 234 449.75
M 95.1 398
L 93.3 397.85 88.8 395.45 95.1 398
M 2.1 486.9
Q 3.45 488.25 3.45 490.2 3.45 492.15 2.1 493.5 0.75 494.85 -1.2 494.85 -3.15 494.85 -4.5 493.5 -5.85 492.15 -5.85 490.2 -5.85 488.25 -4.5 486.9 -3.15 485.55 -1.2 485.55 0.75 485.55 2.1 486.9
M 121.1 515.1
Q 116.1 513.7 115.75 508.4
L 123.65 515.65
Q 122.35 515.35 121.1 515.1
M 409.75 396.5
Q 411.55 398.3 411.55 400.85 411.55 403.4 409.75 405.2 407.95 407 405.4 407 402.85 407 401.05 405.2 399.25 403.4 399.25 400.85 399.25 398.3 401.05 396.5 402.85 394.7 405.4 394.7 407.95 394.7 409.75 396.5
M -205.95 283.3
Q -203.45 285.8 -203.45 289.4 -203.45 293 -205.95 295.55 -208.5 298.05 -212.1 298.05 -215.7 298.05 -218.2 295.55 -220.75 293 -220.75 289.4 -220.75 285.8 -218.2 283.3 -215.7 280.75 -212.1 280.75 -208.5 280.75 -205.95 283.3
M -189.45 281.75
Q -188.4 282.8 -188.4 284.35 -188.4 285.9 -189.45 287 -190.55 288.05 -192.05 288.05 -193.55 288.05 -194.6 287 -195.7 285.9 -195.7 284.35 -195.7 282.8 -194.6 281.75 -193.55 280.65 -192.05 280.65 -190.55 280.65 -189.45 281.75
M -201.85 290.55
Q -200.3 288.95 -198.05 288.95 -195.8 288.95 -194.2 290.55 -192.65 292.1 -192.65 294.35 -192.65 296.6 -194.2 298.2 -195.8 299.75 -198.05 299.75 -200.3 299.75 -201.85 298.2 -203.45 296.6 -203.45 294.35 -203.45 292.1 -201.85 290.55
M -148.55 352.05
L -142.3 368.15 -129.55 383.45
Q -115.2 387.4 -100.75 384.45 -83.5 380.95 -66.25 377.5
L -20.15 364.15 -31.4 341.1
Q -31.3 341.25 -31.15 341.4 -26 348.25 -21 355.25 -17.7 359.9 -18.35 365.7
L -52.65 376.55 -50.3 384.6 -70.7 381.4 -92.8 385.85 -110.7 393.6 -111.85 397.8 -114.95 399.8 -105.45 411.05 -118.1 399.5 -123.15 396.65 -132 391.7 -167.5 408.1 -176.5 412.25 -190.7 418.8 -206.4 423.5 -137.85 386 -143.8 368.1 -148.55 352.05
M -22.25 487.25
Q -22.25 485 -20.65 483.45 -19.05 481.85 -16.8 481.85 -14.55 481.85 -12.95 483.45 -11.35 485 -11.35 487.25 -11.35 489.5 -12.95 491.1 -14.55 492.65 -16.8 492.65 -19.05 492.65 -20.65 491.1 -22.25 489.5 -22.25 487.25
M -2.9 502.25
Q -2.9 505.9 -5.5 508.5 -8.1 511.1 -11.75 511.1 -15.4 511.1 -18 508.5 -20.6 505.9 -20.6 502.25 -20.6 498.6 -18 496 -15.4 493.4 -11.75 493.4 -8.1 493.4 -5.5 496 -2.9 498.6 -2.9 502.25
M 118 256.05
L 119.65 255 116.35 254.8 118 256.05
M 306.35 115.3
L 308.7 112.75
Q 304.1 111.6 299.65 113.65 298.05 114.35 296.55 115.2
L 306.35 115.3
M 335.7 129.25
L 341.7 124.2
Q 320.25 116.7 299.75 126.8 295.35 128.9 291.05 131.1
L 300.3 140.65
Q 322 141.2 339.75 153.5
L 342.6 153.35 344.55 152.95
Q 349.8 151.4 353.95 147.7 357.2 144.75 359.75 141.25
L 361.75 141.65 353.35 150.55 354.2 150.05 365.15 143.4 362 134.35 361.9 134.3 350.75 128.1 335.7 129.25
M 329.25 126.95
Q 330.55 128.25 330.55 130.1 330.55 131.95 329.25 133.3 327.9 134.6 326 134.6 324.1 134.6 322.8 133.3 321.45 131.95 321.45 130.1 321.45 128.25 322.8 126.95 324.1 125.6 326 125.6 327.9 125.6 329.25 126.95
M 314.4 129
Q 314.95 128.4 315.8 128.4 316.65 128.4 317.25 129 317.8 129.55 317.8 130.4 317.8 131.25 317.25 131.85 316.65 132.4 315.8 132.4 314.95 132.4 314.4 131.85 313.8 131.25 313.8 130.4 313.8 129.55 314.4 129
M 321.05 133.8
Q 321.95 133.8 322.6 134.45 323.25 135.1 323.25 136.05 323.25 137 322.6 137.65 321.95 138.3 321.05 138.3 320.15 138.3 319.5 137.65 318.85 137 318.85 136.05 318.85 135.1 319.5 134.45 320.15 133.8 321.05 133.8 Z"/>

<path fill="#564A44" stroke="none" d="
M -204.8 560.8
Q -204.15 560.3 -203.5 559.8
L -205.1 558.05 -228 561.25
Q -216.2 569.8 -204.8 560.8
M -184 528.9
Q -192.2 530.5 -199.95 533.6 -206.25 536.1 -212.4 539.05
L -229.75 534.5 -229.95 532.45 -222.75 518.15 -228.65 519.05
Q -234.65 527.9 -231.55 537.95 -231.4 538.45 -231.2 539
L -220.35 545.15
Q -196.8 553.7 -174.05 542.65 -173.3 542.3 -172.5 542
L -206.75 543.8 -208.1 540.3 -180.1 528.2
Q -182.05 528.55 -184 528.9
M -190.7 512.6
L -198.05 515.45 -172.65 518.65 -190.7 512.6
M -158.5 531.15
Q -158.5 527.15 -160.85 524.3 -163.25 521.45 -166.6 521.45 -166.6 525.45 -164.2 528.3 -161.85 531.15 -158.5 531.15
M -314.5 430.5
Q -310.8 436.65 -304.35 439.7 -303.25 440.2 -302.1 440.75
L -296.1 437.15 -293.25 433.35 -299.6 435.1 -311.75 429.85 -314.5 430.5
M -11.75 572.35
Q -9.95 571.4 -8.1 570.45
L -17.9 570.35 -21.85 573.75
Q -16.55 575.1 -11.75 572.35
M -288.2 404.4
Q -287.1 403.45 -286 402.55
L -305.6 366.05 -294.15 397 -298.1 405.15 -320.75 409.7 -305.5 409.5 -321.25 415.05
Q -302.4 416.8 -288.2 404.4
M -329.65 361.05
L -337.15 365.1
Q -345.2 375.15 -345.75 388.05 -345.8 389.55 -345.85 391.1
L -341.45 392.55 -344.3 381.95 -328 360.9 -329.65 361.05
M -318.5 387.65
Q -319.1 388.05 -319.65 388.5 -330 397.5 -343.7 399.2 -337.15 411.5 -323.65 414.7 -322.85 414.8 -322 414.95
L -336.45 403.55 -314 400.9 -324.55 395.35 -316.2 388.75 -318.5 387.65
M -184.95 197.3
Q -183.8 196.85 -182.65 196.45
L -176.2 186 -176.95 183.9 -185.3 192.75 -209.55 190.3
Q -204.0931640625 197.3443359375 -197 198.65 -196.95 198.6875 -196.9 198.7 -195.9 198.9 -194.85 198.95 -190.25 199.25 -184.95 197.3
M -213 186.1
L -212.8 183.15 -196.8 169.8 -215.2 183.4 -213 186.1
M -84.75 140.75
L -87.3 135.25 -88.6 141.45
Q -70.15 149.05 -54.15 137.55 -53.2 136.9 -52.2 136.25 -61.8 127.55 -74.8 128.1 -77.85 128.25 -80.85 128.9
L -82.3 131.05
Q -78.4 130.3 -74.45 130.2 -66.2 129.6 -59 133.2 -56.9 134.25 -55.95 136.5 -59.65 139.5 -64.25 140.3 -74.45 142 -84.75 140.75
M -104.25 142.35
L -104.8 142.15 -118.25 145.3 -118.8 147.05
Q -111.7 156.45 -101.4 150.9 -100.9 150.7 -100.4 150.45
L -116.6 149 -104.25 142.35
M 413.85 564.15
L 411.2 560.45 410.95 560.15 387.85 568 413.85 564.15
M 377.95 565.9
L 373.55 565.45 373.35 568.1 387.85 578.75 398.95 576.9 408.15 570.85
Q 405.95 571.35 403.8 571.85 389.25 575.4 377.95 565.9
M 527.7 499.1
Q 528.5 498.5 529.35 497.9
L 528.25 495.65 505.35 498.85
Q 516.4 507.15 527.7 499.1
M 542.65 450.2
L 535.45 453.1 561.05 456.35 542.65 450.2
M 520.95 476.65
L 504.35 472.7
Q 522.6 491.7 548.05 485.05 554.9 483.25 560.85 479.6 554.35 481.55 547.75 483.15 545 483.85 542.15 483.85 534.25 483.9 526.6 481.4
L 525.25 477.9 553.25 465.85
Q 544.95 467.9 536.75 470.35 528.6 472.7 520.95 476.65
M 503.45 470.45
Q 503.7 471.3 504.05 472.15
L 510.6 455.75 504.7 456.65
Q 501.05 463.25 503.45 470.45
M 574.85 468.75
Q 574.85 464.75 572.5 461.9 570.1 459.05 566.75 459.05 566.75 463.05 569.15 465.9 571.5 468.75 574.85 468.75
M 47.3 596.8
L 45.3 596.4
Q 30.65 611.9 10.45 604.85 -8.05 598.4 -23.4 586.25
L -25 587.55
Q -9.7 607.9 15.55 609.4 22.05 610.2 28.35 608.95 33.8 607.75 38.9 605.7
L 47.3 596.8
M 36.3 583.25
L 27.25 579.35 21.25 584.45 36.3 583.25
M 276.95 575.05
L 276.4 575.15
Q 276.55 575.2 276.7 575.25 292.15 580.8 305.75 571.9
L 301.75 571.75
Q 301.3 571.95 300.85 572.15 293.3 575.7 285.4 572.95
L 276.95 575.05
M 268.25 589.35
L 269.6 581.45 269.45 581.75 263.25 595.15 264.7 597.5 282.8 604.15 282.25 608.45
Q 299.25 610.45 316.15 607.7 327.05 606.1 337.4 602.45
L 336.65 598.1 286.8 593.9 281.95 598.55 268.25 589.35
M 286.7 600.7
L 288.65 598.75 313.2 600.5 284.45 604 286.7 600.7
M 125.4 115.1
Q 124.8 115.4 124.25 115.7 107.15 124.95 91.55 113.25
L 88.35 114.45
Q 100.65 127.3 117.5 121.5 122.55 119.85 125.4 115.1
M 125.4 115.1
L 128.9 110.45 107.05 108.7 101.8 110.9 102.4 111.2 108.65 112.95 125.4 115.1
M 543.1 229.25
L 559.3 244.4 559.35 251.3
Q 550.4 258.35 538.95 259.1 534.75 259.45 530.55 258.9
L 530.55 256.55 540.15 249 525.9 254.3 527.5 258.4 528.45 260.95 532.15 260.85
Q 547.1 262.05 558.95 252.75 560.6 251.5 562.25 250.3 559.9 233.65 543.1 229.25
M 590.15 282.15
Q 583.9 287.7 577.7 293.35 566.35 303.75 550.95 305.6
L 546.3 288.45
Q 546.3 292.55 546.45 296.65 546.95 310 559.3 315.15 577.75 323 591.7 309.1 589.85 310.85 587.6 312.05 577.75 317.2 567 314.15
L 570.7 303.65
Q 572.55 302.9 574.4 302.2 587.3 297.75 594.25 286.2
L 581.25 264.65 578.6 273.85 564.15 282.35 565.7 282 566.3 281.85
Q 575.2 279.35 584.4 281.05 587.3 281.45 590.15 282.15
M 565.2 313.4
L 557.05 308.45 559.9 306.95 570.45 303.75 565.2 313.4
M 596.2 289.6
Q 595.55 288.45 594.9 287.3
L 595.55 304.45
Q 600.6 297.3 596.2 289.6
M -229.15 438.45
L -224.1 443.55 -217.25 439.85
Q -216.2 451.7 -207 459.05 -203.3 462.05 -198.95 464
L -202 455.2
Q -208.1 453.75 -210.1 447.75 -212.05 441.9 -216.65 437.85 -217.45 437.15 -218.25 436.45
L -208.6 426.45 -229.15 438.45
M -89.45 481.4
Q -90.35 482.3 -91.2 483.25 -104.9 498.35 -125.3 501
L -125.85 504.3 -109.45 508.1 -106 508.9 3.5 539.6
Q -5.6 533.7 -15.95 530.65 -37.15 524.2 -58.3 517.8 -79.2 511.5 -100.1 505.2
L -89.55 485.95 -98.2 492.55 -89.45 481.4
M -160.4 457.15
L -159.65 446.35
Q -160.55 447.75 -161.45 449.2 -173 467.85 -194.9 467.25
L -177 479.45 -176.55 474.15
Q -156.75 463.95 -134.5 466.1 -124.05 467.4 -121.15 458
L -126.9 462
Q -144.15 462.8 -160.4 457.15
M -41.65 441.95
Q -42.35 441.25 -43 440.5
L -49.7 440.1 -49.75 440.1 -62.65 436.3 -59.8 434.9 -99.25 413.65
Q -86.7 422.2 -75.7 432.7 -67.4 440.55 -56.6 444.1
L -74.55 463.1 -52.8 443.05 -39.5 448.9 -23.45 451.4 -30.2 447.1
Q -37 446.95 -41.65 441.95
M -131.45 271.75
L -131.6 270.45 -142 288.65 -131.45 271.75
M -265.5 341.8
Q -266.65 355.25 -264.95 368.6 -261.95 392.35 -250.35 413.4
L -265.5 341.8
M -245.1 329.1
Q -256.15 326.8 -267.4 327.95
L -259.7 331.05 -263.7 333.7 -242.9 329.75
Q -244 329.4 -245.1 329.1
M -183.45 221.9
Q -181.5 221.85 -179.5 221.85 -164 221.8 -156.15 208.35
L -183.45 221.9
M -198.55 232.85
Q -193.95 231.75 -193.15 227.15
L -214.9 244 -213.75 249.05 -192.2 251.9 -202.85 249.45
Q -187.05 247.55 -173.05 255.3 -168.1 258.1 -162.75 259.1
L -161.45 258.75
Q -181.7 247.75 -204.3 242.85
L -199.85 233.05
Q -199.2 232.95 -198.55 232.85
M 330.9 415.5
Q 331.85 416.5 332.85 417.55 348.5 433.95 370.5 437.75
L 342 424.4 350.4 425.25 330.9 415.5
M 128.75 522.1
L 129.55 521.1 123.8 515.8 127.75 522.25 109.05 530.1 117.7 541.75
Q 116.3 542.35 114.9 542.95 93.45 551.3 71.75 543.8 92.8 553.15 115.75 553.95 133.8 555.3 151.95 554.2 156.15 553.55 160.35 552.95 156.3 552.55 152.3 552.15 128.15 549.15 113.25 529.6
L 150.8 522.25 128.75 522.1
M 70.7 467.35
Q 69.55 467.5 68.4 467.65
L 70.05 466.1 74.7 467 72.9 461.95 72.3 461.7
Q 65.1 468.85 54.8 468.55 53.4 468.45 52 468.4
L 85 471.45
Q 78.6 467.1 70.7 467.35
M 69.15 433.8
Q 69.1 433.15 69.05 432.5
L 64.8 442.15
Q 47.4 444.75 35 455.8 34.3 456.45 33.75 457.25 33.2 457.95 32.7 458.75
L -12.45 453.55 47.4 467.85 35.25 463.7
Q 47.85 467 60.85 465.25 66.9 464.2 71.95 461.2
L 64.75 459.95 56.05 448.85 66.15 444.95
Q 69.4 440.6 69.2 435.15 69.15 434.45 69.15 433.8
M 41.45 459.9
L 51.2 450.4
Q 54 452.35 56.85 454.3 60.35 456.7 60.85 460.9
L 54 460.9 41.45 459.9
M 87.2 484.6
Q 92.55 485 97.05 482.15 100.05 480.2 101.9 477.1 103.45 474.6 103.2 471.7 104.7 471.95 106.2 472.2 130.25 476.75 153.35 468.55
L 87.9 471.5 98.8 474.7
Q 98.2 475.55 97.6 476.45 93.3 483.1 85.5 482.3
L 69.65 531.95 68.4 526.8 63.65 541.9
Q 60.1 541.65 56.8 540.7 34.45 533.85 12.45 541.35 34.9 549.1 58.25 543.85 63.35 542.65 68.5 541.5
L 69.5 541.85 71.65 543.6 87.2 484.6
M 210.6 546.35
L 208.5 545.45 175.15 551.55 210.6 547.05 210.6 546.35
M 234.55 451.1
L 235.35 453.3 284.8 513.7 274.95 508.8
Q 275.3 509.05 275.65 509.3 286.7 515.85 290 528.2
L 291.5 526.85 290.8 523.25
Q 315.9 521.8 340.05 515.5 353.6 511.95 365.35 504.6
L 408.6 482.25 348.25 506.25 349.45 501.6 323.9 514.85 317.3 502.2 296.5 505.95 315.6 504.85 322.1 515.35 298.7 519.85
Q 296.9 517.55 295.1 515.3 282.3 499.1 268.05 484.05 251.85 466.9 234.55 451.1
M 191.65 462.2
Q 183.5 463 175.4 463.85 152.05 467.05 128.45 466.55 122.1 466.4 115.75 466 94 465.5 72.55 461.3
L 72.9 461.95
Q 94.7 468.8 117.8 469.45 138 470 158.1 466.5
L 155.05 467.4 157.65 467.55 154.4 468.4 191.65 462.2
M 26.95 201.35
Q 14.9 203 2.85 204.7 -17.4 207.55 -37.55 210.7 -61.6 214.15 -85 208.5 -108.05 202.9 -130.65 195.45 -130.65 196.15 -131.5 196.7 -132.4 197.2 -133.6 197.2
L -133.8 197.6 -132.7 198.85 -102.4 212.45 -126.15 198.75
Q -116.1 202.35 -106.65 207.55 -90 216.55 -73.85 226.5
L -81.05 225.4 -68.15 232.5 -128.95 267.6 -126.6 269.6 -147.3 303.2 -146.25 298.95
Q -150.2 306.6 -157.3 311.55 -166.45 317.85 -177.35 319.7 -194.55 322.25 -211.75 319 -204.9 320.7 -198.05 322.4 -174.9 328.25 -151.45 323.3
L -150.2 322.4 -146.35 309.35
Q -145.85 308.2 -145.35 307.05 -135.4 285.6 -117.4 270
L -122.1 272.05 -104.25 256.95 -113.05 267.95 -80.8 244.55 -92.15 247.95 -70.6 236 -74.85 241.2 -68.15 237.8
Q -64.9 235.35 -60.9 236.45 -60.4 236.65 -59.9 236.9
L -59.65 236.4
Q -49.3 224.7 -34.05 221.85 -33.25 221.65 -32.4 221.45
L -50.3 229.9 -6.75 213.2 -26.6 218.8 -24.7 216.75 -60.6 229.3 -58.95 222.55 26.95 201.35
M -177.95 322.1
Q -177.3 322.05 -176.6 322 -166.1 321.1 -155.95 323.8
L -177.95 322.1
M 150.6 166.85
Q 151.7 164.35 152.8 161.9
L 157.65 147.1 162.7 146.15 157.1 146.35 153.95 150.15 152.3 150.65 148.8 147.85 140.55 198.75 144.95 201.6
Q 143.5 183.5 150.6 166.85
M 18.65 181.3
Q 18.65 181.25 18.65 181.2 11.75 169.6 1.5 160.55 0.7 159.85 -0.1 159.25
L 73.55 145.8
Q 51.8 146.8 30.35 150.15 13.45 152.95 -3.35 156.1
L 3 164.1 -6.3 157.4 -8.15 159.5 -10.55 159.55
Q 1.6 173.8 18.65 181.3
M 317.5 172.2
Q 318.7 172.9 319.9 173.65 327.25 178.45 335.8 176.9
L 317.5 172.2
M 263.4 158.85
Q 265.2 159.65 267 160.5 280 166.65 294.05 168.15
L 297.05 172.05 305.65 168.35 263.4 158.85
M 236.8 153.4
Q 238 154.6 239.2 155.8 246.95 163.55 255.85 157.5
L 236.8 153.4
M 171.2 194.15
L 171.45 186.7
Q 181.05 180.4 191.65 175.85 207.9 168.8 225.05 165.05 227.85 164.5 229.85 162.35 222.5 163.85 215.15 165.35 195.1 169.9 176.35 178.2 162.45 184.35 149.3 191.6
L 150.65 172.45 146.35 199.6 156.85 200.65 150.45 202.25 162.15 204.15
Q 185.5 205.3 207.7 212.1 208.25 212.25 208.85 212.45
L 214.25 211.4 162.9 196.75 171.2 194.15
M 169 188
L 168.5 192.65 167.1 193.75 157.85 191.9 169 188
M 171.65 146.8
Q 172.1 146.85 172.55 146.95 194.25 154.7 216.9 150.4
L 171.65 146.8
M 511.15 376.3
L 511.25 372 509.25 378.2 511.15 376.3
M 513.65 332.1
Q 513.2 329.4 512.75 326.7
L 512.05 363.75
Q 516.45 348.15 513.65 332.1
M 510.65 319.15
L 508.05 312.1 504.1 313.55 509.25 316.1 510.95 320.25 511.85 322.4 510.65 319.15
M 466.05 368
Q 444.85 362.4 423.3 358.1 408.45 355.2 393.6 352.3
L 427.85 362.75 493.9 378.75 439.1 368.3 503.9 382.8
Q 499.15 393.25 493.35 403.15 484.8 417.65 473.7 430.55 464.75 440.9 453.25 448.45 452.5 448.4 451.75 448.4 427.95 448.4 404.75 442.8 381.6 437.3 359.55 428.65
L 425.95 457.65 436.6 462.2
Q 457.8 453.3 474 436.8 490.45 420.15 499.85 398.75 502.65 392.4 505.5 386.1
L 504 382.95 507.85 379.4
Q 486.95 373.7 466.05 368
M 425.7 289.25
Q 440.75 286.35 455.8 283.45
L 399.55 297.9 485.25 280.3 487.9 279.25 490.9 274.15 487.1 267.3
Q 425.3 288.55 361 300.8 361.15 326.6 354.5 351.35 345.05 386.25 318.4 410.55 330.85 405.15 340.45 395.5 357.6 378.3 363.7 354.65
L 360.75 357.8
Q 357.25 378.5 339.9 390.25 338.75 391.05 337.65 391.85 358.25 369.05 361.75 338.65 363.45 323.85 367.3 309.35 370.75 317.3 369.35 325.85 368.9 328.5 368.5 331.15
L 366.45 326.05 366.25 326.1 363.8 354.35
Q 368.3 345.45 370.1 335.55 372.65 321.3 371.2 306.8
L 392.7 299.7 368.65 306.2
Q 371.1 302.65 375.05 301.5 400.25 294.55 425.7 289.25
M 466.25 246.35
L 452.65 234.15 442.15 243.9
Q 442.9 243.8 443.65 243.7 455.3 242 466.25 246.35
M -50.3 384.6
L -52.65 376.55 -70.7 381.4 -50.3 384.6
M -125.85 392.3
L -124.4 392.4 -119.3 397.6 -115.6 395.25 -114.95 399.8 -111.85 397.8 -110.7 393.6 -92.8 385.85 -107 387.25 -66.25 377.5
Q -83.5 380.95 -100.75 384.45 -115.2 387.4 -129.55 383.45
L -142.3 368.15 -140.65 375.05 -143.8 368.1 -137.85 386 -206.4 423.5 -190.7 418.8 -198.95 420.35 -176.5 412.25 -167.5 408.1 -133.35 388.6 -123.15 396.65 -118.1 399.5 -125.85 392.3
M 115.75 508.4
Q 116.1 513.7 121.1 515.1 122.35 515.35 123.65 515.65
L 115.75 508.4
M 316.75 415.75
L 315.3 413.95
Q 297.55 428.95 275.3 436.2 274.3 436.55 273.3 436.9 294.35 428.55 311.7 413.9
L 261.55 437.55 256.65 433.7 258.3 439.15 256.35 439.25 227 404.1 225.85 410.15 254.5 441.8 235.35 450.05
Q 255.25 447.8 273.9 440.9 297.45 432.15 316.75 415.75
M 218.5 379.75
L 230.9 394.95 227.35 401.6 255.65 432.7
Q 246.7 414.5 236.05 397 229.45 386.2 218.5 379.75
M 57.75 394.7
Q 56.85 394.35 55.95 394.05
L 35.85 416.65
Q 35.6 418.3 35.4 419.95 35.3 420.75 35.3 421.55 35.5 432.15 44.75 437.25
L 36.1 421.15 64.1 398
Q 64.7 398.25 65.3 398.55 72.85 402.3 78.5 396.4 67.9 398.7 57.75 394.7
M -77.7 279.45
L -67.8 281.95 -21.2 289.2
Q -28.4 286.85 -35.6 284.7 -56.2 278.2 -77.7 279.45
M 17.65 273.6
L 17.85 273.55 25.7 267.1 -4.6 280.4 -3.1 280.8
Q -6.1 290.75 -15.6 295.25
L -16.85 289.8 -20.4 289.4
Q -25.95 293.45 -32.65 291.7 -33.6 291.5 -34.55 291.35
L -21.05 296.05 -24 303.4 -22.45 302.45 -25 306.05 -29 316.5 -28.55 319.4 -30.95 321.65 -32.05 330.75
Q -25.2 317.2 -16 305 -2.35 287 16.55 274.35
L 15.1 274.85 13.95 274.1 17.65 273.6
M 220 283
L 215.1 283.95 234.6 302.8 236 300.55 233.3 295.55 220 283
M 176.3 265.1
Q 176.7 265.45 177.1 265.8 193.4 279.65 214.25 283.55
L 215.45 282.8
Q 197.15 270.95 176.3 265.1
M 168.3 264.7
L 170.2 263.2 141.25 257.3 168.3 264.7
M 157.85 375.7
L 160.7 380.8 159.45 380.6 145.85 368.2 141.3 368.75
Q 143.05 369.65 144.8 370.6 156.9 377.35 165.85 387.85
L 174.35 387.25 167.6 388.6
Q 191.1 389.3 211.4 377.8 232.8 365.6 243.55 343.35 247.7 334.85 248.8 325.3
L 245.3 328.6 245.2 326.4 244.35 329.85
Q 245.05 323.85 248.95 319 250.8 316.75 252.75 314.65
L 255 313.5 261.6 311.5 256 313.4 267 311.1 271.9 309.7 279.35 307.4 244.4 308.05 235.2 297.6 237.25 300.55 236.9 301.85 240.5 307.05 237.15 302.85 234.65 302.8 240.8 311.6 240.9 313.65 242.75 315.7
Q 243.1 321.9 241.45 327.7 234.9 351.3 215.1 366.15
L 220.5 365.15 218.05 366.95 218.1 368.3 201.45 378.2 208.35 372.05
Q 206 373.9 203.35 375.15 180.65 385.5 157.85 375.7
M 238.95 346.15
L 240.5 338.75 241.8 337.5 238.95 346.15
M 224.75 360.95
L 226.35 360.75 222.3 363.8 224.75 360.95
M 116.2 254.8
L 116.35 254.8 119.65 255
Q 142.3 256.1 164.4 261 186.1 265.95 205.9 275.8 212.85 279.3 219.8 282.85
L 182.85 257.8 185.8 265.2 179 258.45 179.1 256.45
Q 159.25 255.1 139.4 253.85 121 253.3 103.05 255.95
L 116.2 254.8
M 173.5 259.15
Q 174.4 258.6 175.7 258.6 177 258.6 177.95 259.15 178.85 259.7 178.85 260.45 178.85 261.2 177.95 261.75 177 262.3 175.7 262.3 174.4 262.3 173.5 261.75 172.55 261.2 172.55 260.45 172.55 259.7 173.5 259.15
M 81.1 193.2
Q 75.8 193.35 70.5 193.55 46.05 194.55 25.15 207.35
L 43.25 202.25 81.1 193.2
M 260.25 227.65
L 251.15 224.15 261.6 228.5 260.25 227.65
M 276.65 189.45
L 282.05 182 237.4 218.35
Q 255.85 223.05 273 231.55 275.4 232.75 277.85 234
L 279.75 234.5 297.3 238.9
Q 292.05 235.45 286.85 232.05 270.9 221.6 253.25 214.85
L 259.7 205.45 247.35 216.35 253.15 218.85 245.3 218.9
Q 251.1 208.5 259.85 200.85 267.55 194 276.65 189.45
M 354.85 183.8
Q 351.95 182.35 349.05 180.95
L 371.95 195.95 369.65 199.15 371.85 200.5
Q 373.15 200.3 374.5 200.15 400.1 196.05 419.35 213.05 421.55 214.95 423.4 217.3 424.65 218.9 425.8 220.6
L 392.7 245.25 403.15 240.35 430.9 224.05
Q 429.2 215.7 421.95 211.45 404.85 201.25 386 194.6
L 383.85 194.4 382.65 193.5
Q 368.1 190.7 354.85 183.8
M 329.1 154.15
Q 335.85 154.55 342.6 153.35
L 339.75 153.5
Q 322 141.2 300.3 140.65
L 291.05 131.1 289.45 132.4
Q 304.4 152.45 329.1 154.15
M 296.55 115.2
L 292.6 118.6
Q 297.35 120.2 301.7 117.8 304 116.55 306.35 115.3
L 296.55 115.2
M 359.75 141.25
Q 357.2 144.75 353.95 147.7 349.8 151.4 344.55 152.95
L 350.6 151.3 353.35 150.55 361.75 141.65 359.75 141.25
M 341.7 124.2
L 335.7 129.25 350.75 128.1 341.7 124.2 Z"/>

<path fill="#FF9900" stroke="none" d="
M -328.6 381
Q -327.6 381 -326.9 380.3 -326.2 379.6 -326.2 378.6 -326.2 377.6 -326.9 376.9 -327.6 376.2 -328.6 376.2 -329.6 376.2 -330.3 376.9 -331 377.6 -331 378.6 -331 379.6 -330.3 380.3 -329.6 381 -328.6 381
M -322.65 375.6
Q -322.65 377.75 -320.9 379.3 -319.2 380.8 -316.8 380.8 -314.4 380.8 -312.65 379.3 -310.95 377.75 -310.95 375.6 -310.95 373.45 -312.65 371.95 -314.4 370.4 -316.8 370.4 -319.2 370.4 -320.9 371.95 -322.65 373.45 -322.65 375.6
M -320.95 368.55
Q -320.95 367.45 -321.7 366.7 -322.5 365.9 -323.6 365.9 -324.7 365.9 -325.45 366.7 -326.25 367.45 -326.25 368.55 -326.25 369.65 -325.45 370.45 -324.7 371.2 -323.6 371.2 -322.5 371.2 -321.7 370.45 -320.95 369.65 -320.95 368.55
M -200.1 177.55
Q -201.1 177.55 -201.8 178.3 -202.5 179 -202.5 180 -202.5 181 -201.8 181.75 -201.1 182.45 -200.1 182.45 -199.1 182.45 -198.4 181.75 -197.7 181 -197.7 180 -197.7 179 -198.4 178.3 -199.1 177.55 -200.1 177.55
M -184.95 175.85
Q -186.25 174.55 -188.05 174.55 -189.85 174.55 -191.15 175.85 -192.45 177.15 -192.45 178.95 -192.45 180.75 -191.15 182.05 -189.85 183.35 -188.05 183.35 -186.25 183.35 -184.95 182.05 -183.65 180.75 -183.65 178.95 -183.65 177.15 -184.95 175.85
M -192.75 171.7
Q -193.35 171.7 -193.75 172.15 -194.2 172.6 -194.2 173.2 -194.2 173.8 -193.75 174.25 -193.35 174.7 -192.75 174.7 -192.15 174.7 -191.7 174.25 -191.3 173.8 -191.3 173.2 -191.3 172.6 -191.7 172.15 -192.15 171.7 -192.75 171.7
M 389.2 559.45
Q 390.45 558.15 390.45 556.35 390.45 554.55 389.2 553.3 387.95 552 386.15 552 384.35 552 383.1 553.3 381.85 554.55 381.85 556.35 381.85 558.15 383.1 559.45 384.35 560.7 386.15 560.7 387.95 560.7 389.2 559.45
M 5.05 589.6
Q 4.4 590.25 4.4 591.2 4.4 592.15 5.05 592.8 5.7 593.45 6.6 593.45 7.5 593.45 8.15 592.8 8.8 592.15 8.8 591.2 8.8 590.25 8.15 589.6 7.5 588.95 6.6 588.95 5.7 588.95 5.05 589.6
M 3.35 585.55
Q 3.35 584.7 2.8 584.15 2.2 583.55 1.35 583.55 0.5 583.55 -0.05 584.15 -0.65 584.7 -0.65 585.55 -0.65 586.4 -0.05 587 0.5 587.55 1.35 587.55 2.2 587.55 2.8 587 3.35 586.4 3.35 585.55
M 8.35 582.1
Q 7 583.4 7 585.25 7 587.1 8.35 588.45 9.65 589.75 11.55 589.75 13.45 589.75 14.8 588.45 16.1 587.1 16.1 585.25 16.1 583.4 14.8 582.1 13.45 580.75 11.55 580.75 9.65 580.75 8.35 582.1
M 311.25 584.85
Q 310.3 583.9 309 583.9 307.7 583.9 306.8 584.85 305.85 585.75 305.85 587.05 305.85 588.35 306.8 589.3 307.7 590.2 309 590.2 310.3 590.2 311.25 589.3 312.15 588.35 312.15 587.05 312.15 585.75 311.25 584.85
M 310 580.35
Q 310 579.3 309.25 578.55 308.5 577.8 307.4 577.8 306.3 577.8 305.55 578.55 304.8 579.3 304.8 580.35 304.8 581.4 305.55 582.15 306.3 582.9 307.4 582.9 308.5 582.9 309.25 582.15 310 581.4 310 580.35
M 303 580.4
Q 301.4 578.8 299.15 578.8 296.9 578.8 295.35 580.4 293.75 581.95 293.75 584.15 293.75 586.35 295.35 587.95 296.9 589.5 299.15 589.5 301.4 589.5 303 587.95 304.55 586.35 304.55 584.15 304.55 581.95 303 580.4
M 103.5 118
L 108.85 114.35 108.65 112.95 102.4 111.2 101.1 114.9 103.5 118
M 539.45 238.6
Q 539.9 239.05 540.55 239.05 541.2 239.05 541.65 238.6 542.1 238.15 542.1 237.5 542.1 236.85 541.65 236.4 541.2 235.95 540.55 235.95 539.9 235.95 539.45 236.4 539 236.85 539 237.5 539 238.15 539.45 238.6
M 530.15 237.9
L 528.8 240.35 531.15 244.65 536.1 243.25 535.1 237.65 530.15 237.9
M 535.15 232.05
L 533.6 233.4 534.6 235.45
Q 536.85 235.95 537.15 233.4
L 535.15 232.05
M 565.7 282
L 564.35 284 566.1 286.15 568.65 283.6 566.3 281.85 565.7 282
M 555.2 289.35
Q 555.2 291.3 556.55 292.65 557.9 294 559.8 294 561.7 294 563.05 292.65 564.4 291.3 564.4 289.35 564.4 287.4 563.05 286.05 561.7 284.7 559.8 284.7 557.9 284.7 556.55 286.05 555.2 287.4 555.2 289.35
M 567.75 288
Q 567 288.7 567 289.75 567 290.8 567.75 291.55 568.5 292.25 569.55 292.25 570.6 292.25 571.35 291.55 572.1 290.8 572.1 289.75 572.1 288.7 571.35 288 570.6 287.25 569.55 287.25 568.5 287.25 567.75 288
M -5.5 508.5
Q -2.9 505.9 -2.9 502.25 -2.9 498.6 -5.5 496 -8.1 493.4 -11.75 493.4 -15.4 493.4 -18 496 -20.6 498.6 -20.6 502.25 -20.6 505.9 -18 508.5 -15.4 511.1 -11.75 511.1 -8.1 511.1 -5.5 508.5
M -20.65 483.45
Q -22.25 485 -22.25 487.25 -22.25 489.5 -20.65 491.1 -19.05 492.65 -16.8 492.65 -14.55 492.65 -12.95 491.1 -11.35 489.5 -11.35 487.25 -11.35 485 -12.95 483.45 -14.55 481.85 -16.8 481.85 -19.05 481.85 -20.65 483.45
M -198.05 288.95
Q -200.3 288.95 -201.85 290.55 -203.45 292.1 -203.45 294.35 -203.45 296.6 -201.85 298.2 -200.3 299.75 -198.05 299.75 -195.8 299.75 -194.2 298.2 -192.65 296.6 -192.65 294.35 -192.65 292.1 -194.2 290.55 -195.8 288.95 -198.05 288.95
M -188.4 284.35
Q -188.4 282.8 -189.45 281.75 -190.55 280.65 -192.05 280.65 -193.55 280.65 -194.6 281.75 -195.7 282.8 -195.7 284.35 -195.7 285.9 -194.6 287 -193.55 288.05 -192.05 288.05 -190.55 288.05 -189.45 287 -188.4 285.9 -188.4 284.35
M -203.45 289.4
Q -203.45 285.8 -205.95 283.3 -208.5 280.75 -212.1 280.75 -215.7 280.75 -218.2 283.3 -220.75 285.8 -220.75 289.4 -220.75 293 -218.2 295.55 -215.7 298.05 -212.1 298.05 -208.5 298.05 -205.95 295.55 -203.45 293 -203.45 289.4
M 411.55 400.85
Q 411.55 398.3 409.75 396.5 407.95 394.7 405.4 394.7 402.85 394.7 401.05 396.5 399.25 398.3 399.25 400.85 399.25 403.4 401.05 405.2 402.85 407 405.4 407 407.95 407 409.75 405.2 411.55 403.4 411.55 400.85
M 3.45 490.2
Q 3.45 488.25 2.1 486.9 0.75 485.55 -1.2 485.55 -3.15 485.55 -4.5 486.9 -5.85 488.25 -5.85 490.2 -5.85 492.15 -4.5 493.5 -3.15 494.85 -1.2 494.85 0.75 494.85 2.1 493.5 3.45 492.15 3.45 490.2
M 54.9 322.75
Q 59.15 334.15 68.05 342.7 77.05 351.25 88.9 354.25 119.5 361.95 143.2 341.15 130.25 348.35 115.2 347.75 85.55 346.9 66.5 324.1 83.45 308.8 105.75 305.2 129.3 301.35 144.6 319.8 140.95 325.2 135 328.25 115.4 338.25 98.7 324.05
L 112.5 315.05 121.55 322.3
Q 121.95 321.35 122.35 320.4 123.2 318.5 122.5 316.65 122.1 315.65 121.45 314.9 120.5 313.8 119.45 312.85
L 119.4 309.7
Q 117.1 309.35 114.85 309.05 99.15 308.75 87.15 319.2
L 82.9 324.85
Q 95.5 337.75 113.55 339.45 143.05 341.85 160.7 318.05 155.35 312.15 148.75 307.65 130.85 295.2 108.8 295.3 74.95 295.45 54.9 322.75
M 75.35 167.05
Q 74.2 168.2 74.2 169.8 74.2 171.4 75.35 172.55 76.5 173.7 78.1 173.7 79.7 173.7 80.85 172.55 82 171.4 82 169.8 82 168.2 80.85 167.05 79.7 165.9 78.1 165.9 76.5 165.9 75.35 167.05
M 68.15 170.85
Q 68.15 169.15 66.95 167.95 65.7 166.7 64 166.7 62.3 166.7 61.1 167.95 59.85 169.15 59.85 170.85 59.85 172.55 61.1 173.8 62.3 175 64 175 65.7 175 66.95 173.8 68.15 172.55 68.15 170.85
M 77.25 158.85
Q 77.25 155.7 74.7 153.45 72.1 151.2 68.45 151.2 64.8 151.2 62.25 153.45 59.65 155.7 59.65 158.85 59.65 162 62.25 164.25 64.8 166.5 68.45 166.5 72.1 166.5 74.7 164.25 77.25 162 77.25 158.85
M 424.85 392
Q 421 392 418.3 394.75 415.55 397.5 415.55 401.35 415.55 405.2 418.3 407.95 421 410.7 424.85 410.7 428.7 410.7 431.45 407.95 434.15 405.2 434.15 401.35 434.15 397.5 431.45 394.75 428.7 392 424.85 392
M 409.7 387.8
Q 409.7 389.55 410.95 390.8 412.2 392 413.95 392 415.7 392 416.95 390.8 418.2 389.55 418.2 387.8 418.2 386.05 416.95 384.85 415.7 383.6 413.95 383.6 412.2 383.6 410.95 384.85 409.7 386.05 409.7 387.8
M 333.9 203.65
Q 333.9 200.95 332 199.05 330.05 197.1 327.3 197.1 324.55 197.1 322.65 199.05 320.7 200.95 320.7 203.65 320.7 206.35 322.65 208.3 324.55 210.2 327.3 210.2 330.05 210.2 332 208.3 333.9 206.35 333.9 203.65
M 344.4 214.75
Q 345.9 213.25 345.9 211.1 345.9 208.95 344.4 207.45 342.85 205.95 340.7 205.95 338.55 205.95 337.05 207.45 335.5 208.95 335.5 211.1 335.5 213.25 337.05 214.75 338.55 216.25 340.7 216.25 342.85 216.25 344.4 214.75
M 335.25 188.65
Q 335.1 192.1 336 195.4 337.2 199.95 341.3 200.7 352.15 202.4 352.35 191.4 351.3 190.85 350.3 190.35 343 186.9 335.25 188.65
M 322.6 134.45
Q 321.95 133.8 321.05 133.8 320.15 133.8 319.5 134.45 318.85 135.1 318.85 136.05 318.85 137 319.5 137.65 320.15 138.3 321.05 138.3 321.95 138.3 322.6 137.65 323.25 137 323.25 136.05 323.25 135.1 322.6 134.45
M 315.8 128.4
Q 314.95 128.4 314.4 129 313.8 129.55 313.8 130.4 313.8 131.25 314.4 131.85 314.95 132.4 315.8 132.4 316.65 132.4 317.25 131.85 317.8 131.25 317.8 130.4 317.8 129.55 317.25 129 316.65 128.4 315.8 128.4
M 330.55 130.1
Q 330.55 128.25 329.25 126.95 327.9 125.6 326 125.6 324.1 125.6 322.8 126.95 321.45 128.25 321.45 130.1 321.45 131.95 322.8 133.3 324.1 134.6 326 134.6 327.9 134.6 329.25 133.3 330.55 131.95 330.55 130.1 Z"/>
</g>

<path id="barren_prop_33_Layer2_0_1_STROKES" stroke="#000000" stroke-width="1" stroke-linejoin="round" stroke-linecap="round" fill="none" d="
M 339.95 294.75
Q 338.9 318.95 326.8 339.8 314.85 360.45 294.65 373.55 276 385.6 255.15 393.7 232.8 402.3 209.2 407.15 186.1 411.9 162.75 414.75 143.75 416.95 124.6 416.55 102.75 416.1 81.1 413.85 58.95 411.35 37.5 405.65 15.8 399.95 -4.6 390.75 -24.9 381.45 -43.2 368.7 -62.5 355.3 -75.1 335.4 -87.85 315.25 -85.1 291.45 -82.45 268.6 -69.6 249.6 -56.25 229.85 -36.1 217.1 -17.05 205.15 4 196.75 24.5 188.5 46 183.45 67.65 178.35 89.8 176.3 112.95 174.55 136.05 175.2 147.1 175.5 158.2 176.45 180.15 178.55 201.6 182.95 223.2 187.25 243.8 194.75 265.15 202.55 284.65 214.1 305 226.05 320.05 244.1 335.7 262.8 339.1 286.8 339.65 290.75 339.95 294.75 Z"/>
</defs>

<g transform="matrix( 1, 0, 0, 1, 374.95,127.8) ">
<g transform="matrix( 1, 0, 0, 1, 0,0) ">
<use xlink:href="#barren_prop_33_Layer2_0_1_STROKES"/>
</g>

<g transform="matrix( 1, 0, 0, 1, 0,0) ">
<use xlink:href="#barren_prop_33_Layer1_0_FILL"/>
</g>
</g>
</svg>
