
<svg xmlns="http://www.w3.org/2000/svg" version="1.1" xmlns:xlink="http://www.w3.org/1999/xlink" preserveAspectRatio="none" x="0px" y="0px" width="1000px" height="800px" viewBox="0 0 1000 800">
<defs>
<g id="barren_prop_2_Layer1_0_FILL">
<path fill="#837A75" stroke="none" d="
M 225.4 360.7
L 227.1 351.15 222.05 351.55 217.2 357.3 225.4 360.7
M 238.85 299.8
L 238.6 298.55 238.5 295.15 248.3 284.7
Q 233.5 291.45 223.35 304.2 223.1 304.5 222.9 304.8
L 237.65 301.5 222.6 313.55 234.8 318.3 238.8 311.8 238.85 299.8
M 124.9 371.75
L 140.85 377.25 147.9 374.65 136.45 365.45 124.9 371.75
M 199.75 321.55
Q 200.5 321.25 201.25 320.95
L 203.75 317.55 196.15 314.4
Q 175.75 328.25 167.75 351.45 167.3 352.85 166.9 354.25
L 172.6 343.4
Q 182.75 328.2 199.75 321.55
M 165.15 295.3
Q 164.95 295.3 164.8 295.35
L 160.6 315.4 181.45 310.55 193.55 303
Q 180.35 295.65 165.15 295.3
M 53.7 319.7
Q 53.45 319.7 53.15 319.7 39.094921875 326.6310546875 32.65 340.1 30.9640625 343.6193359375 29.8 347.6 29.6 348.3 29.45 349.05 30.9896484375 352.7734375 33.05 356 38.3794921875 364.4076171875 47.2 369.7 49.95 371.4 52.85 372.9 45.05 367.45 44.5 358 44.45 356.75 44.4 355.45
L 44.4 355.5
Q 44.4 355.45 44.4 355.4 44.45 353.9 45.95 352.75 47.45 351.65 49.6 351.65
L 66.85 348.1
Q 88.75 337.85 105.1 320.2 108.65 316.4 112.2 312.55
L 121.95 315.75 118.55 310.7
Q 108 306.8 97 309.3 95.4 309.7 93.8 310.15
L 91.15 311.95
Q 74.1 323.6 53.7 319.7
M 150.05 278.9
Q 150.7 277.75 151.35 276.6
L 154.4 275.45 149.25 266 132.2 266.55 127.05 278.55 139.7 271.35 147.45 269.5 146.35 273.8 121.05 300.5
Q 140.4 296.15 150.05 278.9
M 115.85 274.1
L 117.3 284 119.6 282.85 128.5 267 126.8 267.15 115.85 274.1
M 111.35 271.1
L 116.3 267.65
Q 81.45 270.4 61.15 300.7 59.7 302.8 57.8 304.65
L 77.95 308.2 88.95 303.65 77.6 312.3 87.5 309.95
Q 92.25 309.95 95.6 305.05 98.95 300.15 98.95 293.2
L 85.25 284.6 102.5 289.7 104.5 289.35 112.85 285.35 111.35 271.1 Z"/>

<path fill="#000000" stroke="none" d="
M 231.15 360.95
L 225.4 360.7 217.2 357.3
Q 218.25 360.65 221.05 362.5 224.75 365.05 229.05 364.85 232.35 364.4 235.7 364
L 233.1 352.95 226.8 347.5 222.05 351.55 227.1 351.15 231.15 360.95
M 207.55 314.25
Q 209.1 314.8 210.5 315.6 240.75 334.15 267.5 314.05 265.75 295.65 254.05 281.35 226.25 291.1 207.55 314.25
M 238.6 298.55
L 238.85 299.8 240.8 308.5 238.8 311.8 234.8 318.3 222.6 313.55 214.05 312.1 222.9 304.8
Q 223.1 304.5 223.35 304.2 233.5 291.45 248.3 284.7
L 240 295.35 253.8 284.85 262.9 312.45 239.9 318.2
Q 240.25 316.85 240.6 315.55 243.15 306.6 238.6 298.55
M 121.05 370.75
L 121 373 117.55 378.25
Q 125.35 387.25 137.25 387.45 151.25 387.65 154.2 374.2
L 136 361.35 121.05 370.75
M 140.85 377.25
L 131.2 376.8 144.4 382.1
Q 141.1 382.75 137.75 382.8 127.6 383.05 119.85 376.7
L 124.9 371.75 136.45 365.45 147.9 374.65 140.85 377.25
M 201.25 320.95
Q 200.5 321.25 199.75 321.55 182.75 328.2 172.6 343.4
L 167.95 361.3
Q 170.2 357.5 172.6 353.75 184.4 335.15 201.25 320.95
M 120.4 304.85
L 121.05 300.5 146.35 273.8 117.25 298.85 120.4 304.85
M 160.6 315.4
Q 158.95 318.15 157.45 321.05 155.7 324.35 155.4 328.25 155.3 329.8 155.25 331.4 155.25 332.95 155.3 334.5
L 151.3 339.35 159.3 362.1
Q 157.2 348.05 159.35 334 160.45 327 161.8 320.05
L 189.1 307.5 181.45 310.55 160.6 315.4
M 68.7 348.95
L 66.85 348.1 49.6 351.65 44.4 355.4
Q 44.4 355.45 44.4 355.5
L 44.4 355.45 68.7 348.95
M 87.8 371.05
L 90.95 371.5 73.15 348.4 87.8 371.05
M 77.4 347.35
Q 78.75 346.8 80.1 346.3 100.2 338.15 110.25 318.9
L 111.15 316.35 77.4 347.35
M 67.3 312.95
L 65.1 315.55 85.6 313.6 67.3 312.95
M 152.1 263.25
Q 148.3 263 144.5 262.8 83.35 257.7 49.95 311.15
L 53.1 314.45
Q 49.5 316.35 46.05 318.5 35.7 325 33.3 336.5 32.917578125 338.3306640625 32.65 340.1 39.094921875 326.6310546875 53.15 319.7
L 57.3 313.6 53.85 308.85 57.8 304.65
Q 59.7 302.8 61.15 300.7 81.45 270.4 116.3 267.65
L 126.8 267.15 128.5 267 132.2 266.55 149.25 266 154.4 275.45 162.6 290.5 140.5 328.25 132.4 330.2 133.85 324.2 113.55 303 118.55 310.7 121.95 315.75 129.1 325.9
Q 128.8 328 128.3 330.05 113.55 392.9 52.85 372.9 49.95 371.4 47.2 369.7 38.3794921875 364.4076171875 33.05 356 37.7060546875 374.76875 64.25 380.05 104.8 388.05 129.25 353.05
L 160.6 368.1 176.15 363
Q 168.05 364.45 159.8 362.8 145.85 360.35 134.55 351.35 132.1 349.4 129.75 347.1
L 132.3 334.1 142.9 329.3 147.65 318.95 156.4 317.8 150.65 315.45 164.8 295.35
Q 164.95 295.3 165.15 295.3 180.35 295.65 193.55 303
L 196.15 314.4 203.75 317.55 211.7 345 189.05 358.85 217 346.15 207.3 316.3 198.6 310
Q 197.35 305.2 194.4 301.25 189 294 180.15 292.85 176.6 292.3 173.1 291.8 170.55 291.4 168 291
L 152.1 263.25
M 100 290.75
Q 98.95 291.75 98.95 293.2 98.95 300.15 95.6 305.05 92.25 309.95 87.5 309.95
L 91.15 311.95 93.8 310.15 104.9 305.5 96.8 305.95 139.7 271.35 127.05 278.55 119.6 282.85 117.3 284 104.5 289.35 102.5 289.7
Q 101.05 289.75 100 290.75 Z"/>

<path fill="#564A44" stroke="none" d="
M 225.4 360.7
L 231.15 360.95 227.1 351.15 225.4 360.7
M 237.65 301.5
L 222.9 304.8 214.05 312.1 222.6 313.55 237.65 301.5
M 240.6 315.55
Q 240.25 316.85 239.9 318.2
L 262.9 312.45 253.8 284.85 240 295.35 248.3 284.7 238.5 295.15 238.6 298.55
Q 243.15 306.6 240.6 315.55
M 240.8 308.5
L 238.85 299.8 238.8 311.8 240.8 308.5
M 131.2 376.8
L 140.85 377.25 124.9 371.75 119.85 376.7
Q 127.6 383.05 137.75 382.8 141.1 382.75 144.4 382.1
L 131.2 376.8
M 157.45 321.05
Q 158.95 318.15 160.6 315.4
L 164.8 295.35 150.65 315.45 156.4 317.8 147.65 318.95 142.9 329.3 132.3 334.1 129.75 347.1
Q 132.1 349.4 134.55 351.35 145.85 360.35 159.8 362.8 168.05 364.45 176.15 363
L 189.05 358.85 211.7 345 203.75 317.55 201.25 320.95
Q 184.4 335.15 172.6 353.75 170.2 357.5 167.95 361.3
L 172.6 343.4 166.9 354.25
Q 167.3 352.85 167.75 351.45 175.75 328.25 196.15 314.4
L 193.55 303 181.45 310.55 189.1 307.5 161.8 320.05
Q 160.45 327 159.35 334 157.2 348.05 159.3 362.1
L 151.3 339.35 155.3 334.5
Q 155.25 332.95 155.25 331.4 155.3 329.8 155.4 328.25 155.7 324.35 157.45 321.05
M 45.95 352.75
Q 44.45 353.9 44.4 355.4
L 49.6 351.65
Q 47.45 351.65 45.95 352.75
M 66.85 348.1
L 68.7 348.95 44.4 355.45
Q 44.45 356.75 44.5 358 45.05 367.45 52.85 372.9 113.55 392.9 128.3 330.05 128.8 328 129.1 325.9
L 121.95 315.75 112.2 312.55
Q 108.65 316.4 105.1 320.2 88.75 337.85 66.85 348.1
M 80.1 346.3
Q 78.75 346.8 77.4 347.35
L 111.15 316.35 110.25 318.9
Q 100.2 338.15 80.1 346.3
M 90.95 371.5
L 87.8 371.05 73.15 348.4 90.95 371.5
M 57.8 304.65
L 53.85 308.85 57.3 313.6 53.15 319.7
Q 53.45 319.7 53.7 319.7 74.1 323.6 91.15 311.95
L 87.5 309.95 77.6 312.3 88.95 303.65 77.95 308.2 57.8 304.65
M 65.1 315.55
L 67.3 312.95 85.6 313.6 65.1 315.55
M 151.35 276.6
Q 150.7 277.75 150.05 278.9 140.4 296.15 121.05 300.5
L 120.4 304.85 117.25 298.85 146.35 273.8 147.45 269.5 139.7 271.35 96.8 305.95 104.9 305.5 93.8 310.15
Q 95.4 309.7 97 309.3 108 306.8 118.55 310.7
L 113.55 303 133.85 324.2 132.4 330.2 140.5 328.25 162.6 290.5 154.4 275.45 151.35 276.6
M 132.2 266.55
L 128.5 267 119.6 282.85 127.05 278.55 132.2 266.55
M 98.95 293.2
Q 98.95 291.75 100 290.75 101.05 289.75 102.5 289.7
L 85.25 284.6 98.95 293.2
M 116.3 267.65
L 111.35 271.1 112.85 285.35 104.5 289.35 117.3 284 115.85 274.1 126.8 267.15 116.3 267.65 Z"/>
</g>
</defs>

<g transform="matrix( 1, 0, 0, 1, 374.95,127.8) ">
<g transform="matrix( 1, 0, 0, 1, 0,0) ">
<use xlink:href="#barren_prop_2_Layer1_0_FILL"/>
</g>
</g>
</svg>
