
<svg xmlns="http://www.w3.org/2000/svg" version="1.1" xmlns:xlink="http://www.w3.org/1999/xlink" preserveAspectRatio="none" x="0px" y="0px" width="1000px" height="800px" viewBox="0 0 1000 800">
<defs>
<g id="barren_prop_32_Layer1_0_FILL">
<path fill="#CDC2A6" stroke="none" d="
M -48.8 315.75
L -46.9 314.7 -50.45 313.45 -48.8 315.75
M -49.2 122.5
L -50.45 122.05
Q -58.35 130.25 -62.7 140.6 -63.3 142.05 -63.95 143.5
L -67.45 156.8 -63.05 156.15
Q -59.3 139.25 -50.45 124.35 -49.85 123.4 -49.2 122.5
M 212.85 298.1
L 211.9 301.45 314.7 342.45 322.55 339.05 319.65 337.55 212.85 298.1
M 36.15 340.2
Q 58.5 344.75 80.65 350.45 85.2 351.65 89.8 352.85
L 87.8 328.35
Q 63 328.35 38.2 326.3 17.6 324.8 -3 321.8
L -9.1 332.55
Q 13.55 335.8 36.15 340.2
M 217.75 291.55
L 212.2 293.85 220.65 297.95 217.75 291.55
M 263.05 264.4
Q 259.9 256.5 253.9 250.7 245.3 242.5 234.65 237.35
L 234.15 238.8 248.1 246.9
Q 264.4 265.5 263 290.35 262.4 300.55 258.35 310
L 262.8 312.65
Q 272.7 288.25 263.05 264.4
M 107.95 360.6
L 108.5 364.9 130.25 352.35 125.2 351.3 107.95 360.6
M 231.9 255.55
L 227.95 257.3 225.65 281.9
Q 229.7 280.15 230.1 275.7 230.95 265.6 231.9 255.55
M 93.9 324.95
Q 93.45 325.4 93.45 326
L 95.05 324.45
Q 94.4 324.5 93.9 324.95
M 142.1 343.9
L 141.7 345.9 156.6 356.95 163.6 359.55 254.7 393.8 260.7 385.9
Q 242.2 378.1 223.15 371 204.25 363.8 184.75 357.5 163.4 350.7 142.1 343.9
M 206.6 307.1
L 203.2 306.4 172.6 325.1 206.6 307.1
M 61.5 348.95
L 41.05 361.4 43.45 364.25 65.45 349.7 61.5 348.95
M 31.65 244.2
L 28.3 246.15 34.45 259.1 38.05 258.7 31.65 244.2
M 86.85 253.7
Q 88.75 229.65 81.4 206.65 76.35 190.75 67.3 176.75 79.85 197.5 82.05 221.4 83.6 237.8 79.55 253.8
L 86.85 253.7
M 141.45 254.9
L 149.05 254.7
Q 153.85 232.8 151.85 210.25 150.35 192.9 145 176.35 152.05 199.65 149.4 223.75 147.6 240 141.45 254.9
M 99.9 90.6
L 96.75 91.3
Q 114.15 105 127.65 122.5 133.45 130.05 138.3 138.5 130.85 115.45 112.4 99.6 106.45 94.5 99.9 90.6
M 226.15 250.6
L 230.25 250.35 230.6 223.55 226.15 250.6
M 214 171.55
Q 217.8 182 220.2 193 217.1 169.7 208.4 147.9 202.4 132.8 194.05 118.95 180.4 103.35 160.35 97.25 159.45 96.95 158.6 96.7 180.45 113.35 195.9 136.2 207.15 152.8 214 171.55 Z"/>

<path fill="#5B564B" stroke="none" d="
M -37.85 327.45
L -25.25 330.6 -9.1 332.55 -3 321.8 -46.9 314.7 -48.8 315.75
Q -45.75 322.5 -39.45 326.45 -38.65 326.95 -37.85 327.45
M -45.2 123.65
L -49.2 122.5
Q -49.85 123.4 -50.45 124.35 -59.3 139.25 -63.05 156.15
L -59.25 156
Q -55.05 139.45 -46.05 125 -45.65 124.3 -45.2 123.65
M 104.9 369.35
Q 105 369.4 105.05 369.4
L 105.05 369.35 101.1 355.5
Q 100.6 355.8 100.2 356.15 95.8 359.65 90.25 358.5
L 104.9 369.35
M 265.65 389.9
Q 265.3 389.35 264.95 388.8 258.45 393.75 260.85 401.7
L 262.6 401.4
Q 270.2 397.3 265.65 389.9
M 252.8 327.55
L 250.35 325.65 242.75 333.7
Q 243.4 333.55 244.05 333.45 250.05 332.8 252.8 327.55
M 219.75 312.3
L 216.3 310.15 211.7 329.3
Q 203.4 329.15 199.8 321.65 198.95 319.9 198.15 318.15
L 193.7 321
Q 213.55 340.25 239.2 330.45 243.35 328.9 246.2 325.3
L 245.8 323.75
Q 234.85 334.1 219.75 331.75 218.75 331.55 217.75 331.35
L 219.75 312.3
M 251.8 261.35
L 249.65 255.85 234.5 270 233.8 273.1
Q 234.9 281.75 227 285.65 223.65 287.3 220.35 289
L 223.35 295.65 224.85 294.8 242.65 304.95 243.15 306.2 250.95 308.7 227.35 287.35 251.8 261.35
M 108.5 364.9
L 108.9 367.4 134.2 353.5 130.25 352.35 108.5 364.9
M 123.55 340.7
Q 141.35 332.8 158.35 323.05 184.6 308 210.15 291.75 217.9 286.9 225.65 281.9
L 227.95 257.3
Q 208.55 267.1 189.2 277.05 169.8 286.9 151 297.85 130.8 309.65 109.65 319.55 102.7 322.85 95.05 324.45
L 93.45 326 92.2 328.55 93.9 352.65
Q 109 347.2 123.55 340.7
M 97 327.3
Q 97.9 326.45 99.1 326.45 100.3 326.45 101.15 327.3 102.05 328.2 102.05 329.45 102.05 330.7 101.15 331.55 100.3 332.45 99.1 332.45 97.9 332.45 97 331.55 96.15 330.7 96.15 329.45 96.15 328.2 97 327.3
M 98.9 343.7
Q 99.6 343 100.6 343 101.6 343 102.3 343.7 103 344.4 103 345.4 103 346.4 102.3 347.1 101.6 347.8 100.6 347.8 99.6 347.8 98.9 347.1 98.2 346.4 98.2 345.4 98.2 344.4 98.9 343.7
M 163.6 359.55
Q 180.7 368.4 198.2 376.45 218.95 386.05 240.05 394.55 250.15 398.65 260.5 401.75 259.9 400.75 259.35 399.75 258.8 398.7 258.3 397.7 258.15 397.3 258.1 396.9 258 396.45 258 396 258 395.3 258.1 394.65 258.2 393.95 258.35 393.3 258.7 392.1 259.1 390.9 259.9 388.4 260.7 385.9
L 254.7 393.8 163.6 359.55
M 142.1 343.9
L 133.45 340.05 121.15 345.8 156.6 356.95 141.7 345.9 142.1 343.9
M 145.15 340.05
L 149.75 342.65 197 315.35 197.4 313.75 199.1 313.7 208.35 307.6 206.6 307.1 172.6 325.1 145.15 340.05
M 37.05 371.55
L 39.8 372.3 69.25 350.55 65.45 349.7 43.45 364.25 41.05 361.4 42.6 368.75 41.45 370.85 38.25 364.45 34.4 364.7 37.05 371.55
M 33.75 242.35
L 31.65 244.2 38.05 258.7 41.5 258.35 33.75 242.35
M 138.1 255.6
Q 114.1 254.85 90.25 258.75 71.5 261.75 53.3 267.3 52.2 267.7 51.1 268.1
L 56.55 278.1
Q 75.8 270.45 96.6 269.3 118.35 267.4 140.05 268.35 162.05 269.55 183.85 273.6
L 227.85 254.1
Q 223 254.45 218.15 254.8 198.8 256 179.35 256.1 158.7 256.2 138.1 255.6
M 39.35 150.4
L 38.55 152.4
Q 49.05 156.5 57.4 164.3 63.3 169.8 67.3 176.75 76.35 190.75 81.4 206.65 88.75 229.65 86.85 253.7 91.7 231.35 86.9 209 82.15 186.85 66.8 169.95 55.25 157.3 39.35 150.4
M 96.75 91.3
L 89.1 94
Q 107.4 104.4 119.8 121.35 133.7 140.3 140.5 162.6 142.6 169.55 145 176.35 150.35 192.9 151.85 210.25 153.85 232.8 149.05 254.7
L 150.7 254.7
Q 156.6 230.9 155.45 206.45 154.35 182.55 147.05 159.85 143.55 149 138.3 138.5 133.45 130.05 127.65 122.5 114.15 105 96.75 91.3
M 208.65 138.9
Q 202.25 128.3 194.05 118.95 202.4 132.8 208.4 147.9 217.1 169.7 220.2 193 229.15 215.35 225.3 239.25 224.35 245 222.25 250.3
L 226.15 250.6 230.6 223.55
Q 231.15 202.05 226 181.1 220.5 158.6 208.65 138.9
M 326.4 350.95
L 326.9 349.4 322.8 339.4 322.55 339.05 314.7 342.45 211.9 301.45 212.85 298.1 208.8 296.15 198.05 302.25
Q 217.9 305.7 235.65 314.7 240.3 317.1 245 319.55
L 246.9 319 317.65 353.8
Q 317 352.55 316.4 351.35 316.25 350.95 316.25 350.55 316.25 348.8 316.55 347.05 316.7 346.1 317.2 345.3 318.15 343.6 319.25 342
L 317.6 348.05 321.6 353.4 326.4 350.95 Z"/>

<path fill="#D7D5C7" stroke="none" d="
M 91.55 89.4
Q 93.05 88.7 94.55 87.95 61.25 77.5 26.6 82.85 20.4 83.75 14.25 84.95 11.15 85.7 8.1 86.5 -9.4 91.35 -25.35 100.15 -35.9 105.9 -44.95 113.85
L -50 118.85 -48.65 119.3
Q -37.3 123.35 -25.4 121 -24.65 120.75 -23.85 120.55
L -21.85 122.85 -23.1 123.75 8.35 127.85 7.7 130.85 -53.85 154.3 -53.85 158 -67 158.2
Q -75.8 191.2 -64.95 223.5 -61.5 233.75 -57.65 243.9 -76.05 211.2 -74.15 173.45 -90.6 191.45 -96.15 215.25 -97.1 219.45 -97.75 223.75 -98.1 225.9 -98.3 228.1 -99.7 241.95 -96.45 255.4 -93.65 266.95 -87.8 277.3 -82.4 286.8 -74.65 293.95 -65.1 302.7 -54.1 309.25
L -53.8 310.7 10.85 320.65 -19.35 291.55
Q -2.25 307.2 19.1 316.05 22.95 317.65 26.9 319.05 28.85 319.8 30.85 320.45 44.55 324.9 58.8 326.05 72.75 327.2 86.55 325.4 62.8 300.45 48.2 269.05
L 46.5 268.1 43.1 261.45 29.6 262.15 29.7 256.3
Q 26.5 258.35 22.55 258.05 16.45 257.25 11.15 254.55
L 30.5 241.1
Q 22.75 208.75 30.05 176.2 31.35 170.4 33 164.7 33.85 161.75 34.85 158.9 40.8 142.45 50.15 127.45 59.05 113.05 72.35 102.2 81.4 94.85 91.55 89.4
M 39.1 118.15
L 39.1 118.2
Q 30.95 132.05 15.8 125.85 11.1 123.8 7 120.7
L 6.75 118.65
Q 22.95 112.5 39.1 118.15 Z"/>

<path fill="#000000" stroke="none" d="
M 15.15 121.3
Q 13.4 120.4 11.7 119.55
L 39.1 118.15
Q 22.95 112.5 6.75 118.65
L 7 120.7
Q 11.1 123.8 15.8 125.85 30.95 132.05 39.1 118.2 28.05 127.65 15.15 121.3
M 233.65 197.2
Q 230.7 174.65 222.15 153.7 213.2 131.65 195.5 115.7 177.5 99.45 154.05 93.15 139.75 89.2 125.4 85.65 104.6 80.7 83.45 77.9 60.25 74.45 36.9 76.65 13.7 79.3 -8.5 86.4 -31.55 93.65 -44.95 113.85 -35.9 105.9 -25.35 100.15 -9.4 91.35 8.1 86.5 11.15 85.7 14.25 84.95 20.4 83.75 26.6 82.85 61.25 77.5 94.55 87.95 93.05 88.7 91.55 89.4 81.4 94.85 72.35 102.2 59.05 113.05 50.15 127.45 40.8 142.45 34.85 158.9 33.85 161.75 33 164.7 31.35 170.4 30.05 176.2 22.75 208.75 30.5 241.1
L 11.15 254.55
Q 16.45 257.25 22.55 258.05 26.5 258.35 29.7 256.3
L 29.6 262.15 43.1 261.45 46.5 268.1 48.2 269.05
Q 62.8 300.45 86.55 325.4 72.75 327.2 58.8 326.05 44.55 324.9 30.85 320.45 28.85 319.8 26.9 319.05 22.95 317.65 19.1 316.05 -2.25 307.2 -19.35 291.55
L 10.85 320.65 -53.8 310.7 -54.1 309.25
Q -65.1 302.7 -74.65 293.95 -82.4 286.8 -87.8 277.3 -93.65 266.95 -96.45 255.4 -99.7 241.95 -98.3 228.1 -98.1 225.9 -97.75 223.75 -97.1 219.45 -96.15 215.25 -90.6 191.45 -74.15 173.45 -76.05 211.2 -57.65 243.9 -61.5 233.75 -64.95 223.5 -75.8 191.2 -67 158.2
L -53.85 158 -53.85 154.3 7.7 130.85 8.35 127.85 -23.1 123.75 -21.85 122.85 -23.85 120.55
Q -24.65 120.75 -25.4 121 -37.3 123.35 -48.65 119.3
L -50.45 122.05 -49.2 122.5 -45.2 123.65
Q -45.65 124.3 -46.05 125 -55.05 139.45 -59.25 156
L -63.05 156.15 -67.45 156.8 -63.95 143.5
Q -68.85 152.15 -73.65 160.9 -83.4 178.55 -91.8 196.65 -96 205.7 -99.1 215.15 -106.2 236.75 -98.25 258.65 -90.25 280.55 -75.1 297.95 -59.2 316.15 -37.85 327.45 -38.65 326.95 -39.45 326.45 -45.75 322.5 -48.8 315.75
L -50.45 313.45 -46.9 314.7 -3 321.8
Q 17.6 324.8 38.2 326.3 63 328.35 87.8 328.35
L 89.8 352.85
Q 85.2 351.65 80.65 350.45 58.5 344.75 36.15 340.2 13.55 335.8 -9.1 332.55
L -25.25 330.6 54.35 347.8
Q 45.25 353.6 37.45 360.8 29.4 368.25 37.2 375.7
L 73.9 351.65 82.25 354.6
Q 82.75 355.55 83.25 356.55 89.8 370.55 104.9 369.35
L 90.25 358.5
Q 95.8 359.65 100.2 356.15 100.6 355.8 101.1 355.5
L 105.05 369.35
Q 123.85 367.45 138 354.7 198.7 384.55 263.25 404.65 271.45 398.15 268.4 388.05 211.9 362.6 152.9 343.6
L 190.65 323.5
Q 208.4 344.25 234.9 338
L 236.55 338.95
Q 248.65 338.5 255.75 328.85 260.25 330.55 264.75 332.3 271.4 335.1 277.55 338.75 293.85 348.3 310.95 356.05 321.1 360.55 326.4 350.95
L 321.6 353.4 317.6 348.05 319.25 342
Q 318.15 343.6 317.2 345.3 316.7 346.1 316.55 347.05 316.25 348.8 316.25 350.55 316.25 350.95 316.4 351.35 317 352.55 317.65 353.8
L 246.9 319 245 319.55
Q 240.3 317.1 235.65 314.7 217.9 305.7 198.05 302.25
L 208.8 296.15 212.85 298.1 319.65 337.55
Q 293.8 322.9 265.4 313.55 266 312.5 266.5 311.45 269.5 305.7 270.85 299.2 273.1 288.45 272.6 277.35 272.2 269 268.65 261.4 258.5 239.95 234.9 234.25 236.1 215.7 233.65 197.2
M 169.8 111.75
Q 187.4 125.55 199.35 144.35 210.2 161.5 215.95 180.85 221.8 200.4 221.8 220.85 221.8 236.15 218.1 251.15 185.75 254.35 153.4 253.75 154.8 248.9 156.05 244.05 161.6 222.5 160.1 200.25 158.65 178.1 151.4 157.2 143.75 135.2 130.15 116.2 119.65 101.55 106.05 89.75
L 118.8 89.55
Q 127.55 90.5 136.05 93.25 142.95 95.55 149.25 98.65 160.2 104.2 169.8 111.75
M 220.2 193
Q 217.8 182 214 171.55 207.15 152.8 195.9 136.2 180.45 113.35 158.6 96.7 159.45 96.95 160.35 97.25 180.4 103.35 194.05 118.95 202.25 128.3 208.65 138.9 220.5 158.6 226 181.1 231.15 202.05 230.6 223.55
L 230.25 250.35 226.15 250.6 222.25 250.3
Q 224.35 245 225.3 239.25 229.15 215.35 220.2 193
M 89.1 94
L 96.75 91.3 99.9 90.6
Q 106.45 94.5 112.4 99.6 130.85 115.45 138.3 138.5 143.55 149 147.05 159.85 154.35 182.55 155.45 206.45 156.6 230.9 150.7 254.7
L 149.05 254.7 141.45 254.9
Q 147.6 240 149.4 223.75 152.05 199.65 145 176.35 142.6 169.55 140.5 162.6 133.7 140.3 119.8 121.35 107.4 104.4 89.1 94
M 38.55 152.4
L 39.35 150.4
Q 55.25 157.3 66.8 169.95 82.15 186.85 86.9 209 91.7 231.35 86.85 253.7
L 79.55 253.8
Q 83.6 237.8 82.05 221.4 79.85 197.5 67.3 176.75 63.3 169.8 57.4 164.3 49.05 156.5 38.55 152.4
M 31.95 179
Q 33.95 166.8 37.65 154.85 40.65 156.75 43.65 158.8 61.05 170.95 69.75 190.45 79.1 211.3 78.65 234.05 78.45 244.4 76 254.5
L 49.9 265.85 45.3 258.6
Q 37.7 244.55 33.9 229 27.9 204.2 31.95 179
M 67.8 164.75
Q 55.8 153.6 40.4 147.9 44.9 140.9 49.5 133.95 62.65 114.1 80.95 98.9
L 84.55 96.75
Q 100.75 106.6 112.7 121.45 128.5 140.95 137.4 164.65 146.55 189 145.8 215.1 145.25 235.55 139.4 254.9
L 88.8 253.35
Q 89.95 245.45 90.9 237.5 93.65 214.65 86.1 192.85 80.45 176.4 67.8 164.75
M 90.25 258.75
Q 114.1 254.85 138.1 255.6 158.7 256.2 179.35 256.1 198.8 256 218.15 254.8 223 254.45 227.85 254.1
L 183.85 273.6 88.4 323.85
Q 84.95 319.6 81.5 315.35 67.45 297.85 56.55 278.1
L 51.1 268.1
Q 52.2 267.7 53.3 267.3 71.5 261.75 90.25 258.75
M 31.65 244.2
L 33.75 242.35 41.5 258.35 38.05 258.7 34.45 259.1 28.3 246.15 31.65 244.2
M 16 253.75
L 26.55 248.45 28.65 253.2 16 253.75
M 39.8 372.3
L 37.05 371.55 34.4 364.7 38.25 364.45 41.45 370.85 42.6 368.75 41.05 361.4 61.5 348.95 65.45 349.7 69.25 350.55 39.8 372.3
M 141.35 339.45
L 138.05 337.6 194.4 304.5 199.6 305.65 141.35 339.45
M 149.75 342.65
L 145.15 340.05 172.6 325.1 203.2 306.4 206.6 307.1 208.35 307.6 199.1 313.7 197.4 313.75 197 315.35 149.75 342.65
M 133.45 340.05
L 142.1 343.9
Q 163.4 350.7 184.75 357.5 204.25 363.8 223.15 371 242.2 378.1 260.7 385.9 259.9 388.4 259.1 390.9 258.7 392.1 258.35 393.3 258.2 393.95 258.1 394.65 258 395.3 258 396 258 396.45 258.1 396.9 258.15 397.3 258.3 397.7 258.8 398.7 259.35 399.75 259.9 400.75 260.5 401.75 250.15 398.65 240.05 394.55 218.95 386.05 198.2 376.45 180.7 368.4 163.6 359.55
L 156.6 356.95 121.15 345.8 133.45 340.05
M 158.35 323.05
Q 141.35 332.8 123.55 340.7 109 347.2 93.9 352.65
L 92.2 328.55 93.45 326
Q 93.45 325.4 93.9 324.95 94.4 324.5 95.05 324.45 102.7 322.85 109.65 319.55 130.8 309.65 151 297.85 169.8 286.9 189.2 277.05 208.55 267.1 227.95 257.3
L 231.9 255.55
Q 230.95 265.6 230.1 275.7 229.7 280.15 225.65 281.9 217.9 286.9 210.15 291.75 184.6 308 158.35 323.05
M 115.15 348.15
L 121.05 349.75 106.2 357.6 104.2 352.8 115.15 348.15
M 108.9 367.4
L 108.5 364.9 107.95 360.6 125.2 351.3 130.25 352.35 134.2 353.5 108.9 367.4
M 246.6 252.35
Q 246.85 252.7 247.1 253.1 247.3 253.5 247.5 253.9
L 234.2 265.85 234.75 255.45 233.7 243.15
Q 242 245.2 246.6 252.35
M 249.65 255.85
L 251.8 261.35 227.35 287.35 250.95 308.7 243.15 306.2 242.65 304.95 224.85 294.8 223.35 295.65 220.35 289
Q 223.65 287.3 227 285.65 234.9 281.75 233.8 273.1
L 234.5 270 249.65 255.85
M 253.9 250.7
Q 259.9 256.5 263.05 264.4 272.7 288.25 262.8 312.65
L 258.35 310
Q 262.4 300.55 263 290.35 264.4 265.5 248.1 246.9
L 234.15 238.8 234.65 237.35
Q 245.3 242.5 253.9 250.7
M 253.35 263.15
L 258.4 278.3
Q 260.35 288 258 297.6 257.55 299.45 257.2 301.35 256.85 303.25 256.5 305.15 256.1 307.05 255.7 308.95
L 230.85 287.95 253.35 263.15
M 212.2 293.85
L 217.75 291.55 220.65 297.95 212.2 293.85
M 234.95 303.5
L 225 299.8 223.9 298.85 226.95 297.75 234.95 303.5
M 216.3 310.15
L 219.75 312.3 217.75 331.35
Q 218.75 331.55 219.75 331.75 234.85 334.1 245.8 323.75
L 246.2 325.3
Q 243.35 328.9 239.2 330.45 213.55 340.25 193.7 321
L 198.15 318.15
Q 198.95 319.9 199.8 321.65 203.4 329.15 211.7 329.3
L 216.3 310.15
M 212.2 308.75
L 214.05 309.35 209.35 326.45
Q 203.95 325.15 202.1 319.85 201.5 318.1 200.95 316.4
L 210.3 310.4 212.2 308.75
M 221.6 329.4
Q 220.75 329.3 219.9 329.25
L 221.45 312.15 229.9 315.85 242.45 322.05
Q 237.95 327.85 230.75 329.35 226.1 330.25 221.6 329.4
M 250.35 325.65
L 252.8 327.55
Q 250.05 332.8 244.05 333.45 243.4 333.55 242.75 333.7
L 250.35 325.65
M 264.95 388.8
Q 265.3 389.35 265.65 389.9 270.2 397.3 262.6 401.4
L 260.85 401.7
Q 258.45 393.75 264.95 388.8
M -28.2 125.05
L -27.65 126.65 3.75 129.3 -53.15 150.3 -56.6 152.15 -42.45 124.6 -28.2 125.05
M 100.6 343
Q 99.6 343 98.9 343.7 98.2 344.4 98.2 345.4 98.2 346.4 98.9 347.1 99.6 347.8 100.6 347.8 101.6 347.8 102.3 347.1 103 346.4 103 345.4 103 344.4 102.3 343.7 101.6 343 100.6 343
M 99.1 326.45
Q 97.9 326.45 97 327.3 96.15 328.2 96.15 329.45 96.15 330.7 97 331.55 97.9 332.45 99.1 332.45 100.3 332.45 101.15 331.55 102.05 330.7 102.05 329.45 102.05 328.2 101.15 327.3 100.3 326.45 99.1 326.45
M 326.9 349.4
L 327.9 342.5 322.8 339.4 326.9 349.4 Z"/>

<path fill="#565553" stroke="none" d="
M 39.1 118.2
L 39.1 118.15 11.7 119.55
Q 13.4 120.4 15.15 121.3 28.05 127.65 39.1 118.2
M -27.65 126.65
L -28.2 125.05 -42.45 124.6 -56.6 152.15 -53.15 150.3 3.75 129.3 -27.65 126.65
M 40.4 147.9
Q 55.8 153.6 67.8 164.75 80.45 176.4 86.1 192.85 93.65 214.65 90.9 237.5 89.95 245.45 88.8 253.35
L 139.4 254.9
Q 145.25 235.55 145.8 215.1 146.55 189 137.4 164.65 128.5 140.95 112.7 121.45 100.75 106.6 84.55 96.75
L 80.95 98.9
Q 62.65 114.1 49.5 133.95 44.9 140.9 40.4 147.9
M 199.35 144.35
Q 187.4 125.55 169.8 111.75 160.2 104.2 149.25 98.65 142.95 95.55 136.05 93.25 127.55 90.5 118.8 89.55
L 106.05 89.75
Q 119.65 101.55 130.15 116.2 143.75 135.2 151.4 157.2 158.65 178.1 160.1 200.25 161.6 222.5 156.05 244.05 154.8 248.9 153.4 253.75 185.75 254.35 218.1 251.15 221.8 236.15 221.8 220.85 221.8 200.4 215.95 180.85 210.2 161.5 199.35 144.35 Z"/>

<path fill="#8C8A87" stroke="none" d="
M 140.05 268.35
Q 118.35 267.4 96.6 269.3 75.8 270.45 56.55 278.1 67.45 297.85 81.5 315.35 84.95 319.6 88.4 323.85
L 183.85 273.6
Q 162.05 269.55 140.05 268.35 Z"/>
</g>

<g id="barren_prop_32_Layer0_0_FILL">
<path fill="#000000" stroke="none" d="
M -61.85 360.4
Q -56.05 361.2 -50.6 359.45 -30.3 353.25 -19.95 334.2 -8.4 312.85 -10.2 288.6 -12.25 311.8 -25 331.15 -38.65 351.9 -61.85 360.4
M -26.85 267.45
Q -25.8 267.65 -24.7 267.85 -17.6 269.5 -13.15 275.25 -13.1 272.05 -17.15 269.75 -21.15 267.5 -26.85 267.45
M -46.25 291.35
Q -44.6 286.4 -47.75 282.3
L -72.7 321.7 -67.6 320.8 -67 319.25 -56.2 313.75
Q -58.15 316.65 -60.85 318.35 -70.75 324.5 -77.3 334.2
L -74.75 333.2 -78.95 355.25 -81.9 346.6
Q -80.1 333.65 -75.75 321.2 -68.3 299.85 -54.05 282.35 -71.5 297.25 -78.55 318.7 -82.8 331.6 -83.9 345.2 -84.55 353.2 -77.35 356.5
L -43.4 298.45 -41.95 298.7 -28.25 272.05 -24.85 275 -44.65 308.95 -25.1 307.65 -26.9 312.35 -49.05 319 -45.7 341.55 -50.85 346.55 -52.95 328.4 -70.8 355.6 -70.7 356.9 -71.75 358.45 -64.65 360.05
Q -42.7 349.8 -29.8 329.15 -18.4 310.9 -15.85 289.35 -15.85 280.3 -20.05 273.85 -24.0505859375 267.680078125 -29.7 267.4
L -29.9 267.4
Q -29.983984375 267.4255859375 -30.1 267.4
L -47.2 276.35 -30.6 272.15 -39.55 277.2 -40.7 275.05 -48.2 297.4
Q -47.25 294.375 -46.25 291.35
M -21.3 278.35
Q -20.85 279.6 -20.35 280.85 -17.05 289.75 -21.7 298.05
L -24.5 304.65 -40.3 305.8 -21.3 278.35
M -33.3 276.55
L -40.35 287.85 -39.6 280.2 -33.3 276.55
M -28.7 316.15
L -40.4 334.35 -43.85 338.75 -46.3 319.95 -28.7 316.15
M -72.8 342.3
L -69.1 328.75 -62.15 324.6 -72.8 342.3
M -53.4 309.15
L -65.6 315.55 -52.25 295.1 -53.4 309.15
M -67.95 358.6
L -67.9 355 -54.6 333.6 -53.5 349.35 -67.95 358.6 Z"/>

<path fill="#5B564B" stroke="none" d="
M -52.95 328.4
L -55 324.65 -75.2 358.7 -71.75 358.45 -70.7 356.9 -70.8 355.6 -52.95 328.4
M -74.75 333.2
L -77.3 334.2 -81.9 346.6 -78.95 355.25 -74.75 333.2
M -9.95 286.5
L -15.85 289.35
Q -18.4 310.9 -29.8 329.15 -42.7 349.8 -64.65 360.05
L -70.5 363.3 -61.85 360.4
Q -38.65 351.9 -25 331.15 -12.25 311.8 -10.2 288.6
L -9.95 286.5 Z"/>

<path fill="#CDC2A6" stroke="none" d="
M -24.85 275
L -28.25 272.05 -41.95 298.7 -43.4 298.45 -77.35 356.5 -75.2 358.7 -55 324.65 -52.95 328.4 -50.85 346.55 -45.7 341.55 -49.05 319 -26.9 312.35 -25.1 307.65 -44.65 308.95 -24.85 275
M -26.85 267.45
L -29.7 267.4
Q -24.0505859375 267.680078125 -20.05 273.85 -15.85 280.3 -15.85 289.35
L -9.95 286.5 -13.15 275.25
Q -17.6 269.5 -24.7 267.85 -25.8 267.65 -26.85 267.45
M -47.75 282.3
Q -44.6 286.4 -46.25 291.35 -47.25 294.375 -48.2 297.4
L -40.7 275.05 -39.55 277.2 -30.6 272.15 -47.2 276.35 -54.05 282.35
Q -68.3 299.85 -75.75 321.2 -80.1 333.65 -81.9 346.6
L -77.3 334.2
Q -70.75 324.5 -60.85 318.35 -58.15 316.65 -56.2 313.75
L -67 319.25 -67.6 320.8 -72.7 321.7 -47.75 282.3 Z"/>
</g>
</defs>

<g transform="matrix( 1, 0, 0, 1, 374.95,127.8) ">
<g transform="matrix( 1, 0, 0, 1, 0,0) ">
<use xlink:href="#barren_prop_32_Layer1_0_FILL"/>
</g>

<g transform="matrix( 1, 0, 0, 1, 0,0) ">
<use xlink:href="#barren_prop_32_Layer0_0_FILL"/>
</g>
</g>
</svg>
