
<svg xmlns="http://www.w3.org/2000/svg" version="1.1" xmlns:xlink="http://www.w3.org/1999/xlink" preserveAspectRatio="none" x="0px" y="0px" width="100px" height="100px" viewBox="0 0 100 100">
<defs>
<linearGradient id="Gradient_1" gradientUnits="userSpaceOnUse" x1="-0.2" y1="13.975" x2="-0.2" y2="-17.075" spreadMethod="pad">
<stop  offset="0%" stop-color="#FFFFFF"/>

<stop  offset="51.372549019607845%" stop-color="#00B3FF"/>

<stop  offset="98.43137254901961%" stop-color="#FFFFFF"/>
</linearGradient>

<g id="Symbol_38_0_Layer2_0_FILL">
<path fill="#333333" stroke="none" d="
M -25.55 -0.65
L -0.65 25.5 25.5 0.65 0.6 -25.5 -25.55 -0.65 Z"/>
</g>

<g id="Symbol_43_0_Layer1_0_FILL">
<path fill="url(#Gradient_1)" stroke="none" d="
M -20.3 -0.8
L -0.7 19.85 19.95 0.3 0.35 -20.35 -20.3 -0.8 Z"/>
</g>

<g id="Symbol_43_0_Layer0_0_FILL">
<path fill="#FFFFFF" fill-opacity="0.4980392156862745" stroke="none" d="
M 10.45 -0.15
L 0 -11.15 -11.2 -0.55 -0.55 10.65 -0.15 10.3 10.65 0.05 10.45 -0.15 Z"/>

<path fill="#B900FF" fill-opacity="0.34901960784313724" stroke="none" d="
M 20.35 -0.15
L 10.45 -0.15 10.65 0.05 -0.15 10.3 -0.15 20.35 20.35 -0.15 Z"/>
</g>
</defs>

<g transform="matrix( 1, 0, 0, 1, 122.8,66.45) ">
<g transform="matrix( 0.5966949462890625, 0, 0, 0.5966949462890625, -73.05,-15.8) ">
<g transform="matrix( 1, 0, 0, 1, 0,0) ">
<use xlink:href="#Symbol_38_0_Layer2_0_FILL"/>
</g>

<g transform="matrix( 1, 0, 0, 1, 0.15,0.25) ">
<g transform="matrix( 1, 0, 0, 1, 0,0) ">
<use xlink:href="#Symbol_43_0_Layer1_0_FILL"/>
</g>

<g transform="matrix( 1, 0, 0, 1, 0,0) ">
<use xlink:href="#Symbol_43_0_Layer0_0_FILL"/>
</g>
</g>
</g>
</g>
</svg>
