
<svg xmlns="http://www.w3.org/2000/svg" version="1.1" xmlns:xlink="http://www.w3.org/1999/xlink" preserveAspectRatio="none" x="0px" y="0px" width="100px" height="100px" viewBox="0 0 100 100">
<defs>
<g id="Symbol_36_6_Layer2_0_FILL">
<path fill="#333333" stroke="none" d="
M -1.9 -26.95
L -27.55 -1.5 -2.15 24.05 23.5 -1.4 -1.9 -26.95
M -22.15 -1.55
L -1.85 -21.55 18.1 -1.4 -2.15 18.65 -22.15 -1.55 Z"/>
</g>

<g id="Symbol_36_6_Layer1_0_FILL">
<path fill="#333333" stroke="none" d="
M 18.6 -1.2
Q 18.6 -9.7 12.6 -15.7 6.6 -21.7 -1.9 -21.7 -10.35 -21.7 -16.35 -15.7 -22.4 -9.7 -22.4 -1.2 -22.4 7.25 -16.35 13.25 -10.35 19.3 -1.9 19.3 6.6 19.3 12.6 13.25 18.6 7.25 18.6 -1.2
M 9.05 -12.15
Q 13.6 -7.6 13.6 -1.2 13.6 5.2 9.05 9.7 4.55 14.25 -1.85 14.25 -8.25 14.25 -12.8 9.7 -17.35 5.2 -17.35 -1.2 -17.35 -7.6 -12.8 -12.15 -8.25 -16.7 -1.85 -16.7 4.55 -16.7 9.05 -12.15 Z"/>

<path fill="#666666" stroke="none" d="
M 13.6 -1.2
Q 13.6 -7.6 9.05 -12.15 4.55 -16.7 -1.85 -16.7 -8.25 -16.7 -12.8 -12.15 -17.35 -7.6 -17.35 -1.2 -17.35 5.2 -12.8 9.7 -8.25 14.25 -1.85 14.25 4.55 14.25 9.05 9.7 13.6 5.2 13.6 -1.2 Z"/>
</g>
</defs>

<g transform="matrix( 1, 0, 0, 1, 122.8,66.45) ">
<g transform="matrix( 0.5966949462890625, 0, 0, 0.5966949462890625, -71.8,-14.85) ">
<g transform="matrix( 1, 0, 0, 1, 0,0) ">
<use xlink:href="#Symbol_36_6_Layer2_0_FILL"/>
</g>

<g transform="matrix( 1, 0, 0, 1, 0,0) ">
<use xlink:href="#Symbol_36_6_Layer1_0_FILL"/>
</g>
</g>
</g>
</svg>
