
<svg xmlns="http://www.w3.org/2000/svg" version="1.1" xmlns:xlink="http://www.w3.org/1999/xlink" preserveAspectRatio="none" x="0px" y="0px" width="1000px" height="1000px" viewBox="0 0 1000 1000">
<defs>
<g id="Necro_Hand_0_Layer1_0_FILL">
<path fill="#000000" stroke="none" d="
M 27.3 23.75
Q 31.3 20.1 31.6 19.2 32.55 16.75 32 13.65 31.1 9.15 27.55 5.8 25.9 4.25 19.65 2.85 13.45 1.5 11.55 2.3 9.75 3.1 5.25 7.35 0.25 12.05 -0.5 14.55 -0.85 15.85 0.25 19.9 1.3 23.85 2.2 24.95 2.7 25.55 6.3 27.7 9.85 29.85 10.7 30.1 15.45 31.4 22.35 27.8 23.45 27.2 27.3 23.75
M 25.1 10.1
Q 26.7357421875 12.0828125 27.25 14.55
L 27.25 14.6
Q 27.5 15.8 27.3 16.65 27.15 17.7 26.1 18.95 24.5 20.9 15 24.5 11.55 25.6 8.3 23.95 5 22.25 4.1 18.75 3.7 17.55 3.9 16.65 3.9365234375 16.322265625 4.1 15.85 4.25 15.45 5.15 14 6.1 12.45 6.45 12.05 8 10.75 9.7 9.4 13.05 6.7 13.75 6.45 14.75 6.05 17.65 6.4 20.3 6.7 21.1 7.1 23.45 8.1 25.1 10.1 Z"/>

<path fill="#4B286D" stroke="none" d="
M 27.25 14.6
L 27.25 14.55
Q 26.75 14.95 18.25 16.5 9.6 18.05 8.6 17.8 7.8 17.6 5.9 16.75
L 4.1 15.85
Q 3.9365234375 16.322265625 3.9 16.65 3.7 17.55 4.1 18.75 5 22.25 8.3 23.95 11.55 25.6 15 24.5 24.5 20.9 26.1 18.95 27.15 17.7 27.3 16.65 27.5 15.8 27.25 14.6 Z"/>

<path fill="#AC52D7" stroke="none" d="
M 27.25 14.55
Q 26.7357421875 12.0828125 25.1 10.1 23.45 8.1 21.1 7.1 20.3 6.7 17.65 6.4 14.75 6.05 13.75 6.45 13.05 6.7 9.7 9.4 8 10.75 6.45 12.05 6.1 12.45 5.15 14 4.25 15.45 4.1 15.85
L 5.9 16.75
Q 7.8 17.6 8.6 17.8 9.6 18.05 18.25 16.5 26.75 14.95 27.25 14.55 Z"/>
</g>

<g id="Necro_Hand_0_Layer0_0_FILL">
<path fill="#000000" stroke="none" d="
M 26.15 18.4
Q 25.5 18.15 20.5 17.15 19.95 17.1 18.55 17.75 16.9 18.5 16.85 19.2 16.7 19.8 19.1 21.55 20.3 22.45 21.6 23.4 21.7 23.55 22.1 26.3 22.45 29.15 22.7 29.7 23.7 31.85 26.55 32.45 28.35 32.7 29.6 32 30.05 31.65 30.95 30.6 31.95 29.45 32.15 28.95 33.1 26.95 32.15 24 32.05 23.6 31.15 22.4 30.35 21.3 29.95 20.95 27.75 19.1 26.15 18.4
M 28.95 15.5
Q 28.85 15.95 30.3 17.05 30.55 17.3 32.35 18.55 32.65 18.75 34.1 19.95 35.55 21.1 36.05 21.2 38.55 21.35 39.85 19.8 40.5 19 40.6 17.9 40.65 16.8 40.2 15.8 39.25 14 37.05 13.15 36.1 12.8 33.9 12.6 31.75 12.45 31.35 12.6 30.9 12.8 30 13.9 29.05 15 28.95 15.5
M 41.5 8.35
Q 41.5 5.85 40.95 5.05 39.75 3.45 37.65 2.6 37.3 2.35 35.3 2.05 33.25 1.75 32.35 1.85 31.75 1.95 29.7 2.9 27.4 3.95 26.65 4.7 25.8 5.65 24.55 8.35 23.3 11.15 23.5 11.85 23.8 12.85 24.65 13.4 24.95 13.55 28.85 11.55 32.75 9.45 32.85 9.5 33 9.5 34.8 11 36.65 12.5 37 12.65 38 13 39.1 12.6 40.25 12.2 40.95 11.35 41.45 10.85 41.5 8.35 Z"/>
</g>
</defs>

<g transform="matrix( 1.030609130859375, 0, 0, 1.030609130859375, 459.8,308.8) ">
<g transform="matrix( -0.0315093994140625, -0.9994964599609375, 0.9994964599609375, -0.0315093994140625, 17.25,169.8) ">
<g transform="matrix( 1, 0, 0, 1, 0,0) ">
<use xlink:href="#Necro_Hand_0_Layer1_0_FILL"/>
</g>

<g transform="matrix( 1, 0, 0, 1, 0,0) ">
<use xlink:href="#Necro_Hand_0_Layer0_0_FILL"/>
</g>
</g>
</g>
</svg>
