
<svg xmlns="http://www.w3.org/2000/svg" version="1.1" xmlns:xlink="http://www.w3.org/1999/xlink" preserveAspectRatio="none" x="0px" y="0px" width="1000px" height="1000px" viewBox="0 0 1000 1000">
<defs>
<g id="Necro_Head_1_Layer1_0_FILL">
<path fill="#000000" stroke="none" d="
M 43.95 -86.1
Q 40.15 -81.7 44.1 -76.95 41 -76.5 36.2 -73.15 32 -69.85 31.75 -69.8 24.405859375 -68.912890625 18.5 -69.4 18.65 -69.9 18.8 -72.05 19 -74.5 18.9 -74.75 18.7 -75.5 10.6 -78.85 12.55 -81.4 14.9 -88.15 14.85 -89.1 11.95 -92.3 8.9 -95.65 7.9 -95.45 7.7 -95.15 8.55 -93.2 9.45 -91.2 10.15 -90.35 11.55 -88.8 10.1 -84.6 8.3 -80.35 8.05 -79.8 7.25 -77.6 10.8 -74.65 14.55 -72 14.55 -71.8 14.85 -67.9 13.4 -68.15
L -2.65 -63.2
Q -2.8 -63.2 -6.2 -65.5 -9.45 -67.65 -10.45 -67.45 -12.9 -66.05 -15.55 -64.8 -20.85 -62.2 -22.45 -62.35 -22.9 -62.75 -24.65 -66.1 -24.9 -65.15 -24.55 -62.65 -24.15 -60.35 -23.85 -60 -23.25 -59.25 -17.7 -59.75 -11.8 -60.3 -9.35 -61.9
L -10.15 -55.8 -6.5 -31.85
Q -6.9 -31.3 -13.3 -34.4 -19.55 -37.45 -21.45 -37.25 -24.35 -34.05 -27.45 -31.05 -33.7 -25.1 -34.85 -26.2 -45.65 -26.15 -46.1 -24.5 -45.1 -24.5 -36.65 -23.7 -28.6 -22.9 -28.5 -23 -27.5 -23.4 -24.2 -27.6 -20.35 -32.45 -19.7 -33.05 -17.7 -31.8 -11.95 -29 -5.7 -25.95 -5.15 -26.2 -5.1 -24.55 -4.15 -19.5 -3.25 -14.55 -3.05 -14.45 -2.9 -14.4 -8.8 -7.5 -14.85 -0.5 -14.9 -0.4 -17.15 5.5 -11.15 8
L -23.95 18.35
Q -22.7 18.4 -16.6 14.3 -10.3 10.05 -9.4 8.15
L -14.35 3.05
Q -14.2 2.45 -9.3 -1.85 -4.05 -6.45 -1.35 -7.9 -0.155859375 0.0111328125 0.85 6.95 1.06484375 8.2392578125 1.25 9.45 2.7060546875 19.1923828125 3.85 26.95 4.4 30.7103515625 4.85 34 6.312109375 43.8576171875 7.1 49.7 8 56.35 13.8 58.85 44.1 50.4 45.85 49.2 53.7 43.85 51.8 34.05
L 43.55 -15.6
Q 45.4 -13.8 46 -13.85 49.05 -14.5 52.2 -15.25 52.8 -14.65 55.95 -10.4 58.5 -7 59.1 -7.2 59.45 -7.3 55.25 -15.5 51.55 -19.7 46.8 -16.7
L 42.75 -21.5 40.4 -43.2
Q 39.35 -43.35 45.55 -45 51.6 -46.65 52.4 -46.1 58.3 -41.85 63.05 -47.45 71.95 -54.85 71.5 -55.85 70.7 -56.2 63.6 -52.7 56.6 -49.2 55.8 -49.6 52.25 -51.45 48.7 -52.5 39.85 -47.3 39.6 -46.4
L 39.05 -67.05
Q 37.65 -67.25 41.8 -70.5 43.9 -72.15 46.4 -73.85 47.1 -74.05 47.2 -77.25 47.35 -80.75 45.55 -82.15 47.8 -83.8 50.1 -88.75 51.2 -91.2 51.9 -93.35 51.6 -93.3 48.6 -90.65 45.4 -87.8 43.95 -86.1
M 1.25 -55.1
Q 4.35 -57.5 6.55 -57.5
L 31.45 -63.4
Q 33.8921875 -41.4197265625 40.55 16.1 40.945703125 19.536328125 41.35 23.1 41.6740234375 25.836328125 42 28.65
L 19 36.95 11.95 39.95
Q 11.671484375 37.6443359375 11.15 33.85 10.7408203125 30.8130859375 10.15 26.8 9.16015625 19.630859375 7.65 9.35 7.4619140625 8.1166015625 7.25 6.85 3.94921875 -15.7431640625 -1.6 -52.25 -1.55 -53 1.25 -55.1
M 44.3 40.6
Q 44.35 41.1 44.2 42.15 44 43.35 43.7 43.6 31.4 51.3 16.7 52.95 15.05 53.05 14.3 51.8 12.05 48.05 12.35 43.15
L 42.55 32.15 42.75 33.15 44.3 40.6
M 29.3 -31.75
Q 28.8 -29.05 28.7 -27.55 28.55 -25.45 26.85 -24.55
L 23.05 -28.15
Q 22 -28.05 20.15 -23.95 18.1 -19.45 17.25 -18.8 16.55 -18.3 15.75 -18.3 9.65 -18.45 8.25 -24.7 6.7 -28.05 6.65 -27.7 5.5 -22.05 8.9 -17.15 11.95 -13.6 16.8 -14.1 18.35 -13.95 19.5 -14.75 22.9 -17.15 24.25 -21.55 27.2 -19.85 29.75 -22.35 32.25 -24.9 32.05 -28.6 31.85 -32.45 29.95 -34.6 29.8 -34.4 29.3 -31.75 Z"/>

<path fill="#CCCCFF" stroke="none" d="
M 44.3 40.6
L 42.75 33.15 20.5 43.85
Q 20.75 47.65 24.3 48.25 26 48.1 33.65 45.05 40.15 42.5 44.3 40.6
M 31.45 -63.4
L 6.55 -57.5 8.25 -24.7
Q 9.65 -18.45 15.75 -18.3 16.55 -18.3 17.25 -18.8 18.1 -19.45 20.15 -23.95 22 -28.05 23.05 -28.15
L 26.85 -24.55
Q 28.55 -25.45 28.7 -27.55 28.8 -29.05 29.3 -31.75 29.8 -34.4 29.95 -34.6 31.85 -32.45 32.05 -28.6 32.25 -24.9 29.75 -22.35 27.2 -19.85 24.25 -21.55 22.9 -17.15 19.5 -14.75 18.35 -13.95 16.8 -14.1 11.95 -13.6 8.9 -17.15 9.55 -10.3 12.65 7.65 15.85 26.75 17.55 32.55 18.2 34.75 19 36.95
L 42 28.65
Q 41.6740234375 25.836328125 41.35 23.1 40.945703125 19.536328125 40.55 16.1 33.8921875 -41.4197265625 31.45 -63.4 Z"/>

<path fill="#6A6A9C" stroke="none" d="
M 44.2 42.15
Q 44.35 41.1 44.3 40.6 40.15 42.5 33.65 45.05 26 48.1 24.3 48.25 20.75 47.65 20.5 43.85
L 42.75 33.15 42.55 32.15 12.35 43.15
Q 12.05 48.05 14.3 51.8 15.05 53.05 16.7 52.95 31.4 51.3 43.7 43.6 44 43.35 44.2 42.15
M 6.55 -57.5
Q 4.35 -57.5 1.25 -55.1 -1.55 -53 -1.6 -52.25 3.94921875 -15.7431640625 7.25 6.85 7.4619140625 8.1166015625 7.65 9.35 9.16015625 19.630859375 10.15 26.8 10.7408203125 30.8130859375 11.15 33.85 11.671484375 37.6443359375 11.95 39.95
L 19 36.95
Q 18.2 34.75 17.55 32.55 15.85 26.75 12.65 7.65 9.55 -10.3 8.9 -17.15 5.5 -22.05 6.65 -27.7 6.7 -28.05 8.25 -24.7
L 6.55 -57.5 Z"/>
</g>

<g id="Necro_Head_1_Layer0_0_FILL">
<path fill="#000000" stroke="none" d="
M 35.9 -3.3
Q 35.45 -3.8 26.7 -2.45 17.85 -1.05 17.15 -0.25 16.3 0.65 14.9 3.9 13.8 6.5 13.4 7.75 13.3 8.2 11.8 22.35 10.15 37.95 9.4 43.2 11.9 43 45.05 31.5 42.95 23 40.7 14.35 36.3 -2.85 35.9 -3.3
M 25.35 -0.7
Q 31.5 -2.25 34.1 -1.3 34.22578125 -0.2755859375 34.55 1.2 31.8 0.9 24.4 3.3 18.1 5.3 16.75 6.05 17 5.35 17.7 3.85 18.5 2.1 18.9 1.65 19.7 0.7 25.35 -0.7
M 35 3.15
L 35 3.15
Q 41.75 27.4 42 28.65
L 13.4 39.2
Q 15.65 10.15 15.95 8.75 19.3 7.3 23.25 5.9 31.05 3.1 35 3.15
M 22.45 -39.55
Q 21.35 -38.35 20.65 -38.6 20.65 -39.45 17.25 -41.2 13.75 -43 12.1 -42.7 10.9 -42.45 7.9 -39.55 5.1 -36.85 4.65 -35.95 4.05 -34.7 3.2 -31.3 2.3 -27.75 2.35 -26.65 2.55 -24.4 4.6 -18.75 7.1 -11.9 9.35 -10.25 9.5 -10.1 12.35 -8.7 15.5 -7.2 16.25 -7.15 16.8 -7.1 19.1 -7.7 21.55 -8.3 22.5 -8.75 23.25 -9.15 25 -10.65 26.6 -12.05 27 -12.6 27.3 -13.05 27.6 -14.5 27.9 -16 27.95 -16.1 28.05 -16.2 30.35 -16.45 32.65 -16.7 32.9 -16.9 33.25 -17.15 34.25 -19.1 35.3 -21.05 35.6 -22.1 35.7123046875 -22.481640625 37.2 -27.65 34.4943359375 -35.3048828125 34.45 -35.4 32.65 -39.25 29.4 -40.6 27.65 -41.35 25.75 -41.05 23.75 -40.8 22.45 -39.55
M 20.5 -35.9
Q 21.85 -33.85 22.05 -34.05 22.35 -34.35 22.85 -35.35 24.2 -37.6 25.85 -37.95 28.35 -38.45 30.8 -35.6 31.15 -35.3 32.05 -33.65 33.1 -31.8 33.25 -30.95 33.5 -29.75 33.5 -28 33.45 -26 33.45 -25 33.45 -24.6 32.75 -22.45 31.95 -20.1 31.85 -19.55 31.1 -19.35 29.15 -19.65 27.2 -20.05 27 -20.1 26.45 -20.15 25.55 -18.45 24.85 -17.2 24.55 -16.2 24.15 -15 21.35 -13.1 18.7 -11.35 17.7 -11.25 16.45 -11.1 13.65 -12.55 11.2 -13.75 10.6 -14.35 10.25 -14.7 9.2 -16.45 8.2 -18.05 7.9 -18.75 7.8109375 -18.958984375 7.7 -19.15 7.1 -20.75 6 -26.45 5.9384765625 -26.6541015625 5.85 -26.9 5.6 -28.15 7.65 -34.05 7.7 -34.25 8.8 -36 10 -37.85 10.35 -38.15 11.45 -39.05 14.9 -39.05 18.25 -39.1 18.9 -38.35 18.95 -38.3 20.5 -35.9 Z"/>

<path fill="#330033" stroke="none" d="
M 35 3.15
L 35 3.15
Q 31.05 3.1 23.25 5.9 19.3 7.3 15.95 8.75 15.65 10.15 13.4 39.2
L 42 28.65
Q 41.75 27.4 35 3.15 Z"/>

<path fill="#FFFFFF" stroke="none" d="
M 34.1 -1.3
Q 31.5 -2.25 25.35 -0.7 19.7 0.7 18.9 1.65 18.5 2.1 17.7 3.85 17 5.35 16.75 6.05 18.1 5.3 24.4 3.3 31.8 0.9 34.55 1.2 34.22578125 -0.2755859375 34.1 -1.3
M 18.15 -32.65
Q 16.1 -34.7 14.35 -34.4 13 -34.25 11.85 -32.65 10.45 -30.65 10.05 -26.4 9.65 -21.5 10.75 -18.75 11.5 -16.85 12.95 -15.55 14.5 -14.2 16.35 -14 18.65 -13.8 20.65 -15.4 22.6 -17 23.2 -19.4 24.25 -23.6 21.4 -28.45 20.1 -30.65 18.15 -32.65
M 24.85 -28.2
L 24.6 -25.4
Q 24.55 -24.9 25.25 -23.8 25.9 -22.75 26.35 -22.65 28.75 -22.05 29.95 -22.7 30.45 -23 31.1 -24.8 31.7 -26.55 31.65 -27.3 31.55 -28.65 31 -29.15 30.75 -29.45 28.95 -30.05 27.15 -30.65 26.75 -30.55 26.4 -30.45 25.65 -29.5 24.95 -28.6 24.85 -28.2 Z"/>

<path fill="#CC66FF" stroke="none" d="
M 22.05 -34.05
Q 21.85 -33.85 20.5 -35.9 18.95 -38.3 18.9 -38.35 18.25 -39.1 14.9 -39.05 11.45 -39.05 10.35 -38.15 10 -37.85 8.8 -36 7.7 -34.25 7.65 -34.05 5.6 -28.15 5.85 -26.9 5.9384765625 -26.6541015625 6 -26.45 7.1 -20.75 7.7 -19.15 7.8109375 -18.958984375 7.9 -18.75 8.2 -18.05 9.2 -16.45 10.25 -14.7 10.6 -14.35 11.2 -13.75 13.65 -12.55 16.45 -11.1 17.7 -11.25 18.7 -11.35 21.35 -13.1 24.15 -15 24.55 -16.2 24.85 -17.2 25.55 -18.45 26.45 -20.15 27 -20.1 27.2 -20.05 29.15 -19.65 31.1 -19.35 31.85 -19.55 31.95 -20.1 32.75 -22.45 33.45 -24.6 33.45 -25 33.45 -26 33.5 -28 33.5 -29.75 33.25 -30.95 33.1 -31.8 32.05 -33.65 31.15 -35.3 30.8 -35.6 28.35 -38.45 25.85 -37.95 24.2 -37.6 22.85 -35.35 22.35 -34.35 22.05 -34.05
M 24.6 -25.4
L 24.85 -28.2
Q 24.95 -28.6 25.65 -29.5 26.4 -30.45 26.75 -30.55 27.15 -30.65 28.95 -30.05 30.75 -29.45 31 -29.15 31.55 -28.65 31.65 -27.3 31.7 -26.55 31.1 -24.8 30.45 -23 29.95 -22.7 28.75 -22.05 26.35 -22.65 25.9 -22.75 25.25 -23.8 24.55 -24.9 24.6 -25.4
M 14.35 -34.4
Q 16.1 -34.7 18.15 -32.65 20.1 -30.65 21.4 -28.45 24.25 -23.6 23.2 -19.4 22.6 -17 20.65 -15.4 18.65 -13.8 16.35 -14 14.5 -14.2 12.95 -15.55 11.5 -16.85 10.75 -18.75 9.65 -21.5 10.05 -26.4 10.45 -30.65 11.85 -32.65 13 -34.25 14.35 -34.4 Z"/>
</g>
</defs>

<g transform="matrix( 1.030609130859375, 0, 0, 1.030609130859375, 459.8,308.8) ">
<g transform="matrix( 0.3672637939453125, -0.9300689697265625, 0.9300689697265625, 0.3672637939453125, 35.6,177.65) ">
<g transform="matrix( 1, 0, 0, 1, 0,0) ">
<use xlink:href="#Necro_Head_1_Layer1_0_FILL"/>
</g>

<g transform="matrix( 1, 0, 0, 1, 0,0) ">
<use xlink:href="#Necro_Head_1_Layer0_0_FILL"/>
</g>
</g>
</g>
</svg>
