
<svg xmlns="http://www.w3.org/2000/svg" version="1.1" xmlns:xlink="http://www.w3.org/1999/xlink" preserveAspectRatio="none" x="0px" y="0px" width="250px" height="250px" viewBox="0 0 250 250">
<defs>
<g id="bolt_0_Layer0_0_FILL">
<path fill="#000000" stroke="none" d="
M 178.3 44.1
Q 178.75 44.1 179.2 44.1 182.9 48.45 191.55 56.1 215.15 40.05 234.95 32.65 207.95 21.95 194.55 11.25 184.1 18.15 176.05 26.3 154.5 22.8 135.75 28.35 135.5 28.35 135.35 28.75
L 105.1 28.55
Q 102.65 25.35 46.85 27.45 46.6 27.05 46.3 26.55 44.45 23.65 43.6 20.15 43.35 18.95 43.15 18.35 42.85 17.3 42.4 16.65 41.6 15.4 39.9 14.6 38.85 14.1 36.7 13.5 32.6 12.35 29.95 11.05 28.05 10.1 25.1 8.2
L 21.55 6
Q 18.55 4.1 17.3 2.75 16.55 1.95 16.15 1.55 15.45 0.8 14.85 0.45 14.05 0 13.2 0 12.25 0.05 11.75 0.65 11.2 1.3 11.2 2.95
L 11.25 13.7
Q 11.25 17.3 11.45 19.05 11.5 19.75 12 23.65 12.5 26.7 12.1 28.2 11.8 29.15 10.95 30.9 10.15 33.25 10.9 36.85 11 37.35 11.1 37.8 10.95 39.5 11.75 40.75 11.1 41.5 10.05 42.45 9.4 43 8.1 44.1 6.2 45.85 4.2 48.45 3.1 49.9 0.9 53.25 -0.3 55.05 0.1 56.25 0.7 57.85 3.55 57.65 5.15 57.6 7.6 57.05 9.65 56.6 13.85 55.6 18.4 54.75 27.75 54.85
L 32.35 54.85
Q 34.85 54.85 35.85 54.1 36.5 53.65 37.45 52.05 40.35 46.7 43.45 44.55 45.55 43.05 45.9 42.7 47.05 41.55 46.95 40.4
L 158.1 41.2
Q 166.15 46.8 178.3 44.1
M 217.85 34.15
L 209.65 38.8 193.1 48.15
Q 192.45 47.95 191.95 47.65 186.5 44.45 182.8 39.35
L 182.6 35.9 182.15 29.55 194.55 20.15
Q 205.25 28.9 217.85 34.15
M 178.7 33
L 178.6 36.65 15.45 37.4
Q 15.45 37.15 15.45 36.85 15.45 34.25 16.2 33.1 16.3 32.9 16.6 32.65 47.55 33.3 78.45 33.55 119.85 33.85 161.3 32.7 166.45 32.55 171.6 32.35
L 172.15 33.1 178.7 33
M 23.1 12.65
Q 27.6 15.9 30.1 16.9 30.6 17.1 32.25 17.6 32.35 17.65 32.5 17.7 34 18.2 34.85 18.6 37.65 19.75 38.65 21.6 39.05 22.4 39.55 24.05 40.15 25.65 41.85 27.65 38.35 27.8 34.75 27.95 34.5 27.95 34.25 28 33.25 28 32.2 28.1 29.95 28.15 27.65 28.3 26.5 28.3 25.4 28.4 21.95 28.55 18.3 28.7 18.25 28.2 18.2 27.65
L 15.15 6.95 19.55 10.1 22.15 12 23.1 12.65
M 15.6 41.5
Q 15.9 40.95 16.4 40.7
L 16.1 40.6
Q 16.15 40.4 16.15 40.15
L 17.55 40.15 27.35 40.25 29.9 40.25 36.85 40.3 40.1 40.35
Q 39.85 40.55 39.55 40.8 37.8 42.3 37 43.15 35.8 44.35 34.75 46.25 34.2 47.1 32.95 49.65 31.48984375 49.7267578125 30 49.8 29.55 49.8 29.1 49.85
L 22.8 50.05
Q 21.75 50.05 20.7 50.1
L 19 50.2 16.55 50.35
Q 11.55 50.8 6.95 52.45
L 7.2 52.1
Q 7.297265625 51.954296875 7.4 51.8 10.61640625 47.0306640625 14.45 43.1 14.55 43 14.65 42.95 14.75 43 14.9 43.05 15.1 43.1 15.35 43.2 15.3 42.95 15.3 42.7 15.25 42.05 15.6 41.5 Z"/>

<path fill="#3333CC" stroke="none" d="
M 36.85 40.3
L 29.9 40.25
Q 25.55 46.1 22.85 49.95 22.8 50 22.8 50.05
L 29.1 49.85
Q 29.55 49.8 30 49.8 34.85 42.85 36.85 40.3
M 17.55 40.15
Q 17.2 40.5 16.85 40.85
L 16.4 40.7
Q 15.9 40.95 15.6 41.5 15.25 42.05 15.3 42.7 15.3 42.95 15.35 43.2 15.1 43.1 14.9 43.05
L 14.55 43.5
Q 14.3 43.7 14.15 43.95 14.05 44.05 13.95 44.15
L 7.45 51.75
Q 7.421484375 51.778515625 7.4 51.8 7.297265625 51.954296875 7.2 52.1
L 6.95 52.45
Q 11.55 50.8 16.55 50.35
L 19 50.2
Q 20.4 48.45 22.1 46.4 23.2 45.05 24.5 43.6 25.85 42 27.35 40.25
L 17.55 40.15
M 30.1 16.9
Q 27.6 15.9 23.1 12.65
L 22.15 12
Q 22.35 12.5 22.55 13.1 23.1 14.8 24.1 18.2 25.5 22.6 27.65 28.3 29.95 28.15 32.2 28.1 33.25 28 34.25 28 34.5 27.95 34.75 27.95 34.2 26.35 33.85 25.2 33.1 22.55 32.25 17.8 32.25 17.7 32.25 17.6 30.6 17.1 30.1 16.9
M 23.6 22.15
Q 23.25 21.25 21.2 15.2
L 19.55 10.1 15.15 6.95 18.2 27.65
Q 18.25 28.2 18.3 28.7 21.95 28.55 25.4 28.4 24.95 26.2 23.6 22.15 Z"/>

<path fill="#0099FF" stroke="none" d="
M 40.1 40.35
L 36.85 40.3
Q 34.85 42.85 30 49.8 31.48984375 49.7267578125 32.95 49.65 34.2 47.1 34.75 46.25 35.8 44.35 37 43.15 37.8 42.3 39.55 40.8 39.85 40.55 40.1 40.35
M 27.35 40.25
Q 25.85 42 24.5 43.6 23.2 45.05 22.1 46.4 20.4 48.45 19 50.2
L 20.7 50.1
Q 21.75 50.05 22.8 50.05 22.8 50 22.85 49.95 25.55 46.1 29.9 40.25
L 27.35 40.25
M 14.65 42.95
Q 14.55 43 14.45 43.1 10.61640625 47.0306640625 7.4 51.8 7.421484375 51.778515625 7.45 51.75
L 13.95 44.15
Q 14.05 44.05 14.15 43.95 14.3 43.7 14.55 43.5
L 14.9 43.05
Q 14.75 43 14.65 42.95
M 16.85 40.85
Q 17.2 40.5 17.55 40.15
L 16.15 40.15
Q 16.15 40.4 16.1 40.6
L 16.4 40.7 16.85 40.85
M 32.25 17.6
Q 32.25 17.7 32.25 17.8 33.1 22.55 33.85 25.2 34.2 26.35 34.75 27.95 38.35 27.8 41.85 27.65 40.15 25.65 39.55 24.05 39.05 22.4 38.65 21.6 37.65 19.75 34.85 18.6 34 18.2 32.5 17.7 32.35 17.65 32.25 17.6
M 21.2 15.2
Q 23.25 21.25 23.6 22.15 24.95 26.2 25.4 28.4 26.5 28.3 27.65 28.3 25.5 22.6 24.1 18.2 23.1 14.8 22.55 13.1 22.35 12.5 22.15 12
L 19.55 10.1 21.2 15.2 Z"/>

<path fill="#CC6600" stroke="none" d="
M 178.6 36.65
L 178.7 33 172.15 33.1 171.6 32.35
Q 166.45 32.55 161.3 32.7 119.85 33.85 78.45 33.55 47.55 33.3 16.6 32.65 16.3 32.9 16.2 33.1 15.45 34.25 15.45 36.85 15.45 37.15 15.45 37.4
L 178.6 36.65 Z"/>

<path fill="#CCCCCC" stroke="none" d="
M 184.9 34.5
L 182.6 35.9 182.8 39.35
Q 186.5 44.45 191.95 47.65 192.45 47.95 193.1 48.15
L 209.65 38.8
Q 202.05 35.7 195 31.1 193.25 29.95 192.25 30.1 191.55 30.15 190.35 31.05 188.6 32.3 184.9 34.5 Z"/>

<path fill="#FFFFFF" stroke="none" d="
M 209.65 38.8
L 217.85 34.15
Q 205.25 28.9 194.55 20.15
L 182.15 29.55 182.6 35.9 184.9 34.5
Q 188.6 32.3 190.35 31.05 191.55 30.15 192.25 30.1 193.25 29.95 195 31.1 202.05 35.7 209.65 38.8 Z"/>
</g>
</defs>

<g transform="matrix( 0.5274505615234375, 0, 0, 0.5274505615234375, 73.95,11.7) ">
<g transform="matrix( 1.01605224609375, 0, 0, 1.01605224609375, -75.15,41.3) ">
<g transform="matrix( 1, 0, 0, 1, 55.85,115.7) ">
<g transform="matrix( 1, 0, 0, 1, 0,0) ">
<use xlink:href="#bolt_0_Layer0_0_FILL"/>
</g>
</g>
</g>
</g>
</svg>
