
<svg xmlns="http://www.w3.org/2000/svg" version="1.1" xmlns:xlink="http://www.w3.org/1999/xlink" preserveAspectRatio="none" x="0px" y="0px" width="300px" height="300px" viewBox="0 0 300 300">
<defs>
<g id="E_ball_2_Layer0_0_FILL">
<path fill="#7F00FF" stroke="none" d="
M 148.55 76.2
Q 148.55 46.2 127.4 25 106.15 3.85 76.2 3.85 46.2 3.85 25 25 3.85 46.2 3.85 76.2 3.85 106.15 25 127.4 46.2 148.55 76.2 148.55 106.15 148.55 127.4 127.4 148.55 106.15 148.55 76.2
M 122.75 29.75
Q 142 49 142 76.25 142 103.55 122.75 122.75 103.45 142 76.25 142 48.95 142 29.75 122.75 10.5 103.55 10.5 76.25 10.5 49 29.75 29.75 48.95 10.5 76.25 10.5 103.45 10.5 122.75 29.75 Z"/>

<path fill="#972EFC" stroke="none" d="
M 142 76.25
Q 142 49 122.75 29.75 103.45 10.5 76.25 10.5 48.95 10.5 29.75 29.75 10.5 49 10.5 76.25 10.5 103.55 29.75 122.75 48.95 142 76.25 142 103.45 142 122.75 122.75 142 103.55 142 76.25
M 119.3 33.3
Q 137.1 51.15 137.1 76.45 137.1 101.75 119.3 119.55 101.4 137.45 76.1 137.45 50.85 137.45 33 119.55 15.1 101.75 15.1 76.45 15.1 51.15 33 33.3 50.85 15.45 76.1 15.45 101.4 15.45 119.3 33.3 Z"/>

<path fill="#BA4AFF" stroke="none" d="
M 137.1 76.45
Q 137.1 51.15 119.3 33.3 101.4 15.45 76.1 15.45 50.85 15.45 33 33.3 15.1 51.15 15.1 76.45 15.1 101.75 33 119.55 50.85 137.45 76.1 137.45 101.4 137.45 119.3 119.55 137.1 101.75 137.1 76.45
M 110.1 42.45
Q 124.15 56.4 124.15 76.25 124.15 96.1 110.1 110.1 96.1 124.15 76.3 124.15 56.4 124.15 42.45 110.1 28.4 96.1 28.4 76.25 28.4 56.4 42.45 42.45 56.4 28.4 76.3 28.4 96.1 28.4 110.1 42.45 Z"/>

<path fill="#DE66FF" stroke="none" d="
M 124.15 76.25
Q 124.15 56.4 110.1 42.45 96.1 28.4 76.3 28.4 56.4 28.4 42.45 42.45 28.4 56.4 28.4 76.25 28.4 96.1 42.45 110.1 56.4 124.15 76.3 124.15 96.1 124.15 110.1 110.1 124.15 96.1 124.15 76.25
M 106.85 45.75
Q 119.45 58.4 119.45 76.3 119.45 94.15 106.85 106.75 94.15 119.4 76.3 119.4 58.4 119.4 45.8 106.75 33.15 94.15 33.15 76.3 33.15 58.4 45.8 45.75 58.4 33.15 76.3 33.15 94.15 33.15 106.85 45.75 Z"/>

<path fill="#FFFFFF" stroke="none" d="
M 119.45 76.3
Q 119.45 58.4 106.85 45.75 94.15 33.15 76.3 33.15 58.4 33.15 45.8 45.75 33.15 58.4 33.15 76.3 33.15 94.15 45.8 106.75 58.4 119.4 76.3 119.4 94.15 119.4 106.85 106.75 119.45 94.15 119.45 76.3 Z"/>
</g>
</defs>

<g transform="matrix( 1.76611328125, 0, 0, 1.76611328125, 16.1,16.1) ">
<g transform="matrix( 1, 0, 0, 1, 0,0) ">
<use xlink:href="#E_ball_2_Layer0_0_FILL"/>
</g>
</g>
</svg>
