
<svg xmlns="http://www.w3.org/2000/svg" version="1.1" xmlns:xlink="http://www.w3.org/1999/xlink" preserveAspectRatio="none" x="0px" y="0px" width="300px" height="300px" viewBox="0 0 300 300">
<defs>
<g id="E_ball_0_Layer0_0_FILL">
<path fill="#7F00FF" stroke="none" d="
M 152.4 76.2
Q 152.4 44.6 130.1 22.3 107.75 0 76.2 0 44.6 0 22.3 22.3 0 44.6 0 76.2 0 107.75 22.3 130.1 44.6 152.4 76.2 152.4 107.75 152.4 130.1 130.1 152.4 107.75 152.4 76.2
M 120.55 31.95
Q 138.9 50.3 138.9 76.25 138.9 102.25 120.55 120.55 102.2 138.9 76.25 138.9 50.25 138.9 31.95 120.55 13.6 102.25 13.6 76.25 13.6 50.3 31.95 31.95 50.25 13.6 76.25 13.6 102.2 13.6 120.55 31.95 Z"/>

<path fill="#972EFC" stroke="none" d="
M 138.9 76.25
Q 138.9 50.3 120.55 31.95 102.2 13.6 76.25 13.6 50.25 13.6 31.95 31.95 13.6 50.3 13.6 76.25 13.6 102.25 31.95 120.55 50.25 138.9 76.25 138.9 102.2 138.9 120.55 120.55 138.9 102.25 138.9 76.25
M 115.25 37.35
Q 131.5 53.55 131.5 76.5 131.5 99.45 115.25 115.6 99.05 131.8 76.15 131.8 53.2 131.8 37.05 115.6 20.8 99.45 20.8 76.5 20.8 53.55 37.05 37.35 53.2 21.15 76.15 21.15 99.05 21.15 115.25 37.35 Z"/>

<path fill="#BA4AFF" stroke="none" d="
M 131.5 76.5
Q 131.5 53.55 115.25 37.35 99.05 21.15 76.15 21.15 53.2 21.15 37.05 37.35 20.8 53.55 20.8 76.5 20.8 99.45 37.05 115.6 53.2 131.8 76.15 131.8 99.05 131.8 115.25 115.6 131.5 99.45 131.5 76.5
M 103.7 48.75
Q 115.1 60.1 115.1 76.2 115.1 92.35 103.7 103.7 92.35 115.1 76.25 115.1 60.1 115.1 48.75 103.7 37.35 92.35 37.35 76.2 37.35 60.1 48.75 48.75 60.1 37.35 76.25 37.35 92.35 37.35 103.7 48.75 Z"/>

<path fill="#DE66FF" stroke="none" d="
M 115.1 76.2
Q 115.1 60.1 103.7 48.75 92.35 37.35 76.25 37.35 60.1 37.35 48.75 48.75 37.35 60.1 37.35 76.2 37.35 92.35 48.75 103.7 60.1 115.1 76.25 115.1 92.35 115.1 103.7 103.7 115.1 92.35 115.1 76.2
M 101.05 51.45
Q 111.3 61.7 111.3 76.25 111.3 90.75 101.05 101 90.75 111.25 76.25 111.25 61.7 111.25 51.5 101 41.2 90.75 41.2 76.25 41.2 61.7 51.5 51.45 61.7 41.2 76.25 41.2 90.75 41.2 101.05 51.45 Z"/>

<path fill="#FFFFFF" stroke="none" d="
M 111.3 76.25
Q 111.3 61.7 101.05 51.45 90.75 41.2 76.25 41.2 61.7 41.2 51.5 51.45 41.2 61.7 41.2 76.25 41.2 90.75 51.5 101 61.7 111.25 76.25 111.25 90.75 111.25 101.05 101 111.3 90.75 111.3 76.25 Z"/>
</g>
</defs>

<g transform="matrix( 1.76611328125, 0, 0, 1.76611328125, 16.1,16.1) ">
<g transform="matrix( 1, 0, 0, 1, 0,0) ">
<use xlink:href="#E_ball_0_Layer0_0_FILL"/>
</g>
</g>
</svg>
