
<svg xmlns="http://www.w3.org/2000/svg" version="1.1" xmlns:xlink="http://www.w3.org/1999/xlink" preserveAspectRatio="none" x="0px" y="0px" width="100px" height="100px" viewBox="0 0 100 100">
<defs>
<g id="Symbol_3_1_Layer0_0_FILL">
<path fill="#EEBDFF" stroke="none" d="
M 54.85 47.1
Q 57.4 44.95 60.05 42.9 61.5 41.75 62.25 40.15 70.1 23.75 58.65 8.7 52.55 0.65 42.8 -1.75 17.9 -8.3 1.1 10.85 -1.5 15.5 -2.75 20.85 -6.75 38 7.4 47.1
L 8.4 53.9
Q 22.2 59.1 37.25 58.55 40.5 58.1 43.75 57.65 55.05 57.2 54.85 47.1
M 56.4 37.55
Q 54.75 40.8 51.5 42.5
L 50.85 50.6 43.25 53.2 39 47.5 37.45 49.55 38.1 53.6 26.2 52.95 25.55 46.95 22.25 53.55 11.4 50.85 12.1 43.65
Q 0.1 36.35 3.05 23.5 5.6 12.3 15.65 6.75 35.15 -3.5 51.4 11.5 63.75 22.8 56.4 37.55
M 13.7 12.75
Q 8.1 15.7 7.25 22.15 5.2 38 20.4 41.4 23.55 41.25 26 39.15 30.95 34.8 27.85 29.25 26.15 26.25 24.35 23.3 20 16 13.7 12.75
M 15.15 16.85
L 25.85 32.35
Q 23.2 38.1 18.1 34.6 7.45 27.4 15.15 16.85
M 55.1 22.2
Q 54.25 15.75 48.45 12.75 42.25 15.95 37.8 23.2 36.05 26.1 34.3 29 31.35 34 35.5 38.25 38.1 40.85 41.75 41.4 57.2 38.25 55.1 22.2
M 47 16.85
Q 54.95 27.35 44.4 35 40.65 37.8 37.6 34.1 36.9 33.3 36.4 32.35
L 47 16.85 Z"/>

<path fill="#CC33FF" stroke="none" d="
M 51.5 42.5
Q 54.75 40.8 56.4 37.55 63.75 22.8 51.4 11.5 35.15 -3.5 15.65 6.75 5.6 12.3 3.05 23.5 0.1 36.35 12.1 43.65
L 11.4 50.85 22.25 53.55 25.55 46.95 26.2 52.95 38.1 53.6 37.45 49.55 39 47.5 43.25 53.2 50.85 50.6 51.5 42.5
M 48.45 12.75
Q 54.25 15.75 55.1 22.2 57.2 38.25 41.75 41.4 38.1 40.85 35.5 38.25 31.35 34 34.3 29 36.05 26.1 37.8 23.2 42.25 15.95 48.45 12.75
M 7.25 22.15
Q 8.1 15.7 13.7 12.75 20 16 24.35 23.3 26.15 26.25 27.85 29.25 30.95 34.8 26 39.15 23.55 41.25 20.4 41.4 5.2 38 7.25 22.15 Z"/>
</g>
</defs>

<g transform="matrix( 1.2118988037109375, 0, 0, 1.2118988037109375, 10.7,17.15) ">
<g transform="matrix( 1, 0, 0, 1, 0,0) ">
<use xlink:href="#Symbol_3_1_Layer0_0_FILL"/>
</g>
</g>
</svg>
