
<svg xmlns="http://www.w3.org/2000/svg" version="1.1" xmlns:xlink="http://www.w3.org/1999/xlink" preserveAspectRatio="none" x="0px" y="0px" width="1000px" height="1000px" viewBox="0 0 1000 1000">
<defs>
<linearGradient id="Gradient_1" gradientUnits="userSpaceOnUse" x1="92.4" y1="49" x2="5.399999999999999" y2="49" spreadMethod="pad">
<stop  offset="0%" stop-color="#FF3300"/>

<stop  offset="15.294117647058824%" stop-color="#FFD100"/>

<stop  offset="62.745098039215684%" stop-color="#FFFFFF"/>
</linearGradient>

<linearGradient id="Gradient_2" gradientUnits="userSpaceOnUse" x1="83.4" y1="49" x2="42.4" y2="49" spreadMethod="pad">
<stop  offset="3.5294117647058822%" stop-color="#FFD100"/>

<stop  offset="67.05882352941177%" stop-color="#FFFFFF"/>
</linearGradient>

<linearGradient id="Gradient_3" gradientUnits="userSpaceOnUse" x1="51.5375" y1="63.12499999999999" x2="55.9625" y2="153.575" spreadMethod="pad">
<stop  offset="0.39215686274509803%" stop-color="#FF3300"/>

<stop  offset="49.411764705882355%" stop-color="#FFD100"/>

<stop  offset="100%" stop-color="#FFFFFF"/>
</linearGradient>

<linearGradient id="Gradient_4" gradientUnits="userSpaceOnUse" x1="51.2" y1="71.7" x2="51.2" y2="117.3" spreadMethod="pad">
<stop  offset="0.39215686274509803%" stop-color="#FF9900"/>

<stop  offset="49.411764705882355%" stop-color="#FFD100"/>

<stop  offset="100%" stop-color="#FFFFFF"/>
</linearGradient>

<linearGradient id="Gradient_5" gradientUnits="userSpaceOnUse" x1="33.3625" y1="9.125" x2="34.1375" y2="18.075" spreadMethod="pad">
<stop  offset="0.39215686274509803%" stop-color="#FF3300"/>

<stop  offset="49.411764705882355%" stop-color="#FFD100"/>

<stop  offset="100%" stop-color="#FFFFFF"/>
</linearGradient>

<linearGradient id="Gradient_6" gradientUnits="userSpaceOnUse" x1="44.475" y1="-10.3875" x2="45.425000000000004" y2="1.1875000000000009" spreadMethod="pad">
<stop  offset="0.39215686274509803%" stop-color="#FF3300"/>

<stop  offset="49.411764705882355%" stop-color="#FFD100"/>

<stop  offset="100%" stop-color="#FFFFFF"/>
</linearGradient>

<g id="Fireball_2_Layer0_0_FILL">
<path fill="#FFFFFF" stroke="none" d="
M 118.65 28.45
Q 109.9 19.4 97.5 19.4 85.1 19.4 76.35 28.45 67.6 37.55 67.6 50.35 67.6 63.1 76.35 72.2 85.1 81.25 97.5 81.25 109.9 81.25 118.65 72.2 127.45 63.1 127.45 50.35 127.45 37.55 118.65 28.45 Z"/>
</g>

<g id="ball_of_fire_2_Layer0_0_FILL">
<path fill="url(#Gradient_1)" stroke="none" d="
M 80.9 14.3
Q 67 0 47.4 0 27.75 0 13.85 14.3 0 28.7 0 48.95 0 69.25 13.85 83.55 27.75 97.95 47.4 97.95 67 97.95 80.9 83.55 94.8 69.25 94.8 48.95 94.8 28.7 80.9 14.3
M 47.4 6.25
Q 64.5 6.25 76.6 18.75 88.75 31.3 88.75 48.95 88.75 66.65 76.6 79.2 64.5 91.75 47.4 91.75 30.25 91.75 18.15 79.2 6.05 66.65 6.05 48.95 6.05 31.3 18.15 18.75 30.25 6.25 47.4 6.25 Z"/>

<path fill="url(#Gradient_2)" stroke="none" d="
M 76.6 18.75
Q 64.5 6.25 47.4 6.25 30.25 6.25 18.15 18.75 6.05 31.3 6.05 48.95 6.05 66.65 18.15 79.2 30.25 91.75 47.4 91.75 64.5 91.75 76.6 79.2 88.75 66.65 88.75 48.95 88.75 31.3 76.6 18.75
M 47.4 18.1
Q 59.8 18.1 68.55 27.15 77.35 36.25 77.35 49.05 77.35 61.8 68.55 70.9 59.8 79.95 47.4 79.95 35 79.95 26.25 70.9 17.5 61.8 17.5 49.05 17.5 36.25 26.25 27.15 35 18.1 47.4 18.1 Z"/>
</g>

<g id="Flame_tail_2_Layer0_0_FILL">
<path fill="url(#Gradient_3)" stroke="none" d="
M 84 90.6
Q 95.0814453125 92.405859375 92.4 75.5 89.7267578125 58.5888671875 83.85 52.65 88.948046875 54.900390625 94.25 61 99.5509765625 67.0939453125 104.1 82.4 108.6962890625 97.7611328125 98.9 103.05 89.1541015625 108.3302734375 87.3 112 85.45234375 115.6724609375 92.7 123.45 92.7 121.5 97.75 120.7 97.573828125 118.1583984375 95.15 116.3 92.7296875 114.4931640625 92.75 113.1 92.8197265625 111.702734375 104.25 107.95 115.7248046875 104.2505859375 112.95 85.9 110.171875 67.5484375 99.9 57.1 89.684765625 46.7009765625 78.3 47.35 83.96640625 49.58046875 86.4 70.3 88.8837890625 91.01171875 70.75 77.9 65.470703125 74.08515625 61.3 70.55 65.3732421875 79.4751953125 54.45 90.6 43.5701171875 101.7248046875 30.7 90.6 17.837109375 79.4708984375 14.9 71.05 12.0060546875 62.6271484375 27.7 54.55 10.85859375 46.6359375 1.8 58.15 -7.219921875 69.7078125 -3.55 78.9 0.11875 88.144140625 5.1 95.9 10.0759765625 103.71015625 6.15 109.6 2.2814453125 115.48984375 2.15 117.5 2.0109375 119.5591796875 0.8 124.55 3.45 121.3 5 121 6.47578125 120.7048828125 7.25 120.45 9.2712890625 117.9513671875 9.8 114.75 10.9 108.3 11.1 105.95 11.550390625 100.5513671875 8.85 94.25 6.0982421875 87.90546875 2.35 82.45 -1.38984375 77.0373046875 2.3 67.9 5.980078125 58.806640625 15.3 56.6 8.3318359375 61.66640625 11.9 70.4 15.461328125 79.1708984375 22.85 88.05 30.2357421875 96.946875 37.35 101.6 44.5232421875 106.288671875 58.4 94.85 60.75 93 62.75 90.1 64.7 87.2 64.15 86.7 64.9142578125 83.3859375 63.1 79.9 64.0517578125 80.771484375 65.05 81.65 72.95703125 88.8380859375 84 90.6
M 41.65 38.9
Q 40.3732421875 33.356640625 40.7 29.25 41.1806640625 23.1626953125 42.5 21.15 38.99921875 20.7568359375 36.5 26.65 33.5716796875 33.6845703125 34.15 41.3 36.246875 32.072265625 41.65 38.9 Z"/>

<path fill="url(#Gradient_4)" stroke="none" d="
M 92.4 75.5
Q 95.0814453125 92.405859375 84 90.6 72.95703125 88.8380859375 65.05 81.65 64.0517578125 80.771484375 63.1 79.9 64.9142578125 83.3859375 64.15 86.7 64.7 87.2 62.75 90.1 60.75 93 58.4 94.85 44.5232421875 106.288671875 37.35 101.6 30.2357421875 96.946875 22.85 88.05 15.461328125 79.1708984375 11.9 70.4 8.3318359375 61.66640625 15.3 56.6 5.980078125 58.806640625 2.3 67.9 -1.38984375 77.0373046875 2.35 82.45 6.0982421875 87.90546875 8.85 94.25 11.550390625 100.5513671875 11.1 105.95 10.9 108.3 9.8 114.75 9.2712890625 117.9513671875 7.25 120.45 7.424609375 120.3970703125 7.55 120.35 8.35 121.95 3.75 123.6 13.976953125 121.0416015625 20.15 121 20.16015625 119.7576171875 21.1 117.15 22.1 114.544921875 18.8 109.75 16.01953125 105.743359375 16.65 99.7 17.904296875 104.8595703125 29.25 108.45 40.644921875 112.04453125 46.75 108.95 52.90390625 105.8484375 58.1 101.15 63.348046875 96.504296875 67.5 88.45 70.440234375 93.878125 75.15 97.95 79.8666015625 102.012109375 83.05 108.55 86.230078125 115.1505859375 82.7 117.85 80.4 119.65 78.5 123.45 88.55 121.8 92.7 123.45 85.45234375 115.6724609375 87.3 112 89.1541015625 108.3302734375 98.9 103.05 108.6962890625 97.7611328125 104.1 82.4 99.5509765625 67.0939453125 94.25 61 88.948046875 54.900390625 83.85 52.65 89.7267578125 58.5888671875 92.4 75.5 Z"/>

<path fill="#FFFFFF" stroke="none" d="
M 75.15 97.95
Q 70.440234375 93.878125 67.5 88.45 63.348046875 96.504296875 58.1 101.15 52.90390625 105.8484375 46.75 108.95 40.644921875 112.04453125 29.25 108.45 17.904296875 104.8595703125 16.65 99.7 16.01953125 105.743359375 18.8 109.75 22.1 114.544921875 21.1 117.15 20.16015625 119.7576171875 20.15 121 39.95 121.75 49.6 122.9 52.669921875 122.35234375 55.55 121.8 55.65 121.8 61.3 123.45 67.4 125.1 69.45 125.1 75.7453125 125.1 78.5 123.45 80.4 119.65 82.7 117.85 86.230078125 115.1505859375 83.05 108.55 79.8666015625 102.012109375 75.15 97.95 Z"/>

<path fill="url(#Gradient_5)" stroke="none" d="
M 38.65 14
Q 32.8 6.9 32.1 7.2 29.34609375 11.6861328125 27.7 19.25 28.95 17.65 30.5 16.1 33.6 12.95 35.4 13.1 37.25 13.25 38.65 14 Z"/>

<path fill="url(#Gradient_6)" stroke="none" d="
M 54.4 -11.3
Q 46.9 -14.75 45.95 -14.55 45.25 -14.35 42.45 -10.4 40 -7 38.8 -4.65 41.75 -10.1 46.7 -11.2 48.15 -11.5 54.4 -11.3 Z"/>
</g>
</defs>

<g transform="matrix( 1, 0, 0, 1, 399.85,443.05) ">
<g transform="matrix( 1, 0, 0, 1, 0,0) ">
<use xlink:href="#Fireball_2_Layer0_0_FILL"/>
</g>

<g transform="matrix( 1, 0, 0, 1, 50.1,1.3) ">
<g transform="matrix( 1, 0, 0, 1, 0,0) ">
<use xlink:href="#ball_of_fire_2_Layer0_0_FILL"/>
</g>
</g>

<g transform="matrix( 0, -0.9992523193359375, 1.158599853515625, 0, -50.75,99.65) ">
<g transform="matrix( 1, 0, 0, 1, 0,0) ">
<use xlink:href="#Flame_tail_2_Layer0_0_FILL"/>
</g>
</g>
</g>
</svg>
