
<svg xmlns="http://www.w3.org/2000/svg" version="1.1" xmlns:xlink="http://www.w3.org/1999/xlink" preserveAspectRatio="none" x="0px" y="0px" width="175px" height="425px" viewBox="0 0 175 425">
<defs>
<g id="bannerman_warrior_shieldbannerman_1_Layer0_0_FILL">
<path fill="#000000" stroke="none" d="
M 23.35 -242.25
Q 15.95 -241.9 8.5 -241.95 5.85 -242.3 3.25 -242.5 -2 -242.9 -7.25 -242.75 -19.25 -242.45 -30.8 -245.65 -33.65 -246.4 -36.25 -247.7 -48.9 -254.1 -62.1 -255.5 -62.35 -254.95 -62.3 -254.4 -59.25 -210.7 -60.55 -166.95 -61.95 -120.65 -65.65 -74.65 -65.8 -72.45 -65.35 -70.25 -64.3 -64.65 -60.55 -60.65 -54.05 -53.8 -47.5 -46.9 -43.55 -42.75 -39.8 -38.4 -35.15 -32.95 -30.5 -27.5 -24.9 -20.9 -18.6 -14.6 -3.45 0.45 8.75 17.85 12.35 23 17.8 23.05 25.9 13.1 34.6 3.75 47.6 -10.25 60.8 -24.1 70.8 -34.55 74.6 -48.4 76.5 -55.25 76.4 -62.45 76.2 -81.5 74.9 -100.5 73.65 -119.25 73.55 -138.15 73.45 -151.9 73.9 -165.65 74.55 -184.15 75.8 -202.6 76.95 -219.65 74.8 -236.75 74.3 -240.75 74.35 -244.75 74.4 -250.15 70.75 -253.55 57.5 -246.25 42.4 -243.95 32.9 -242.8 23.35 -242.25
M 70.75 -235.85
Q 71 -234.55 70.9 -233.15 69.25 -211.35 67.2 -189.45 65.45 -170.35 65.35 -151.3 65.15 -103.2 66.65 -55.2 66.85 -49.25 64 -44.1 63.45 -43.15 62.8 -42.3 57.1 -34.85 51.3 -27.45 45.5 -20.1 39.65 -12.8 28 1.8 15.45 15.95 12.5 13.1 9.65 10.15 -3.25 -3.25 -14.9 -17.7 -20.6 -24.75 -27.05 -31.15 -40.35 -44.5 -51.35 -59.7 -52.45 -61.25 -52.85 -63.05 -56.5 -80.65 -55.6 -98.55 -54.65 -116.5 -54.05 -134.4 -53.4 -153.6 -53.25 -172.8 -53.1 -190.95 -53.4 -209.1 -53.7 -228.8 -57.2 -248.1
L -58.2 -250.65
Q -52.25 -248.45 -46.25 -246.2 -42.45 -244.75 -38.55 -243.65 -22.3 -238.75 -5.3 -237.8 20.05 -236.25 45.25 -240 48.45 -240.55 51.65 -241.3 54.05 -241.65 56.35 -242.4 58.6 -243.15 60.8 -244 65.45 -245.7 69.1 -248.85 69.5 -243.65 70.3 -238.45 70.5 -237.15 70.75 -235.85
M -44.95 -228.1
L -42.65 -226.25
Q -49.1427734375 -232.7318359375 -49.45 -242.45
L -51.25 -243.85
Q -51.25 -242.75 -51.2 -241.6 -50.8 -233.65 -44.95 -228.1
M 61.5 -232.25
Q 64.1 -235.25 62.7 -238.6 62.6 -238.85 62.4 -239.05
L 57.15 -230.95 52.9 -224 60.2 -234.65 61.5 -232.25 Z"/>

<path fill="#3333CC" stroke="none" d="
M 70.9 -233.15
Q 71 -234.55 70.75 -235.85 70.5 -237.15 70.3 -238.45 69.5 -243.65 69.1 -248.85 65.45 -245.7 60.8 -244 58.6 -243.15 56.35 -242.4 54.05 -241.65 51.65 -241.3 48.45 -240.55 45.25 -240 20.05 -236.25 -5.3 -237.8 -22.3 -238.75 -38.55 -243.65 -42.45 -244.75 -46.25 -246.2 -52.25 -248.45 -58.2 -250.65
L -57.2 -248.1
Q -53.7 -228.8 -53.4 -209.1 -53.1 -190.95 -53.25 -172.8 -53.4 -153.6 -54.05 -134.4 -54.65 -116.5 -55.6 -98.55 -56.5 -80.65 -52.85 -63.05 -52.45 -61.25 -51.35 -59.7 -40.35 -44.5 -27.05 -31.15 -20.6 -24.75 -14.9 -17.7 -3.25 -3.25 9.65 10.15 12.5 13.1 15.45 15.95 28 1.8 39.65 -12.8 45.5 -20.1 51.3 -27.45 57.1 -34.85 62.8 -42.3 63.45 -43.15 64 -44.1 66.85 -49.25 66.65 -55.2 65.15 -103.2 65.35 -151.3 65.45 -170.35 67.2 -189.45 69.25 -211.35 70.9 -233.15
M 62.7 -238.6
Q 64.1 -235.25 61.5 -232.25
L 60.2 -234.65 52.9 -224 51.4 -218.95 58.95 -227.7 60.2 -225.1 49.55 -198 61.25 -211.05
Q 55.6 -151.35 57.3 -91.3 57.8 -73.4 55.1 -55.9 54.45 -51.65 52.8 -47.65 50.55 -42.25 46.85 -38.1 42.25 -32.95 37.75 -27.8 30.6 -19.65 23.8 -11.3 18.95 -5.3 14.3 0.8 -2.85 -24.2 -23.95 -46 -26.2 -48.35 -28.7 -50.4 -36.4 -56.95 -41.6 -65.7 -43.1 -68.25 -43.35 -71.25 -44.35 -82.85 -44.25 -94.65 -44.15 -105.4 -43.9 -116.15 -43.3 -138.75 -42.4 -161.1 -41.2 -190.5 -43.25 -219.75 -43.55 -224.05 -44.95 -228.1 -50.8 -233.65 -51.2 -241.6 -51.25 -242.75 -51.25 -243.85
L -49.45 -242.45
Q -49.1427734375 -232.7318359375 -42.65 -226.25
L -38.15 -222.6 -26.05 -214.4 -25.25 -215.6 -37.9 -230.65
Q -27.45 -227.95 -16.9 -226.1 0.6 -223.1 18.35 -222.55 32.15 -222.1 45.4 -227.65 48.8 -229 52.35 -230 54.7 -230.65 57.15 -230.95
L 62.4 -239.05
Q 62.6 -238.85 62.7 -238.6
M 11.9 -17.75
Q 7 -28.4 2.3 -39.1 -8.1 -62.95 -21.4 -85.1 -22.3 -86.6 -23.75 -87
L -25 -86.8
Q -24.2 -85 -23.9 -82.9 -23.65 -81.1 -23.2 -79.35 -23 -78.5 -22.65 -77.7 -9 -45.5 11.9 -17.75
M 4.6 -56.25
Q 5 -55.15 5.45 -54.05 8.5 -46.85 16.35 -45.35 18.9 -44.95 21.5 -44.5 24.85 -44.05 25.7 -47.15
L 4.6 -56.25
M 19.6 -182.05
Q 13.6 -187.75 9.9 -195.45 8.3 -198.75 5.85 -201.4
L -6 -175.75 -0.25 -166.75 -26.3 -163.5
Q -26.65 -149.15 -24.3 -135.05 -23.05 -127.5 -23.35 -119.7 -26.05 -103.1 -18.4 -88.9 -17.55 -87.3 -15.8 -86.35 0.15 -77.9 18 -83.3 23.35 -84.95 28.85 -86.7 33 -88 36.45 -90.45 39.15 -92.4 39.25 -95.9 39.85 -115.6 39.9 -135.3 39.95 -148.95 36.15 -161.45 35.7 -162.85 34.45 -163.85 28.2 -168.75 20.25 -167.95 26.8 -175.25 19.6 -182.05
M 10.8 -140.15
L 13.3 -132.8
Q 18.15 -140.65 25.8 -136.9 28.75 -132.6 29.85 -127.45 31.15 -121.2 30.25 -114.85 29.5 -109.65 25 -108.15 22.15 -107.2 19.75 -108.55 14.2 -111.65 13.55 -118.6 12.3 -112.05 7.8 -105.95 0.85 -96.55 -9.95 -100 -11.6 -100.55 -12.3 -102.05 -18.65 -115.6 -13.95 -130 -11.35 -138.05 -4.75 -142.9 4.65 -149.8 10.8 -140.15 Z"/>

<path fill="#0099FF" stroke="none" d="
M 52.9 -224
L 57.15 -230.95
Q 54.7 -230.65 52.35 -230 48.8 -229 45.4 -227.65 32.15 -222.1 18.35 -222.55 0.6 -223.1 -16.9 -226.1 -27.45 -227.95 -37.9 -230.65
L -25.25 -215.6 -26.05 -214.4 -38.15 -222.6 -42.65 -226.25 -44.95 -228.1
Q -43.55 -224.05 -43.25 -219.75 -41.2 -190.5 -42.4 -161.1 -43.3 -138.75 -43.9 -116.15 -44.15 -105.4 -44.25 -94.65 -44.35 -82.85 -43.35 -71.25 -43.1 -68.25 -41.6 -65.7 -36.4 -56.95 -28.7 -50.4 -26.2 -48.35 -23.95 -46 -2.85 -24.2 14.3 0.8 18.95 -5.3 23.8 -11.3 30.6 -19.65 37.75 -27.8 42.25 -32.95 46.85 -38.1 50.55 -42.25 52.8 -47.65 54.45 -51.65 55.1 -55.9 57.8 -73.4 57.3 -91.3 55.6 -151.35 61.25 -211.05
L 49.55 -198 60.2 -225.1 58.95 -227.7 51.4 -218.95 52.9 -224
M 9.9 -195.45
Q 13.6 -187.75 19.6 -182.05 26.8 -175.25 20.25 -167.95 28.2 -168.75 34.45 -163.85 35.7 -162.85 36.15 -161.45 39.95 -148.95 39.9 -135.3 39.85 -115.6 39.25 -95.9 39.15 -92.4 36.45 -90.45 33 -88 28.85 -86.7 23.35 -84.95 18 -83.3 0.15 -77.9 -15.8 -86.35 -17.55 -87.3 -18.4 -88.9 -26.05 -103.1 -23.35 -119.7 -23.05 -127.5 -24.3 -135.05 -26.65 -149.15 -26.3 -163.5
L -0.25 -166.75 -6 -175.75 5.85 -201.4
Q 8.3 -198.75 9.9 -195.45
M 5.45 -54.05
Q 5 -55.15 4.6 -56.25
L 25.7 -47.15
Q 24.85 -44.05 21.5 -44.5 18.9 -44.95 16.35 -45.35 8.5 -46.85 5.45 -54.05
M 2.3 -39.1
Q 7 -28.4 11.9 -17.75 -9 -45.5 -22.65 -77.7 -23 -78.5 -23.2 -79.35 -23.65 -81.1 -23.9 -82.9 -24.2 -85 -25 -86.8
L -23.75 -87
Q -22.3 -86.6 -21.4 -85.1 -8.1 -62.95 2.3 -39.1
M 13.3 -132.8
L 10.8 -140.15
Q 4.65 -149.8 -4.75 -142.9 -11.35 -138.05 -13.95 -130 -18.65 -115.6 -12.3 -102.05 -11.6 -100.55 -9.95 -100 0.85 -96.55 7.8 -105.95 12.3 -112.05 13.55 -118.6 14.2 -111.65 19.75 -108.55 22.15 -107.2 25 -108.15 29.5 -109.65 30.25 -114.85 31.15 -121.2 29.85 -127.45 28.75 -132.6 25.8 -136.9 18.15 -140.65 13.3 -132.8 Z"/>
</g>
</defs>

<g transform="matrix( 1, 0, 0, 1, 84.05,345.95) ">
<g transform="matrix( 1, 0, 0, 1, 0,0) ">
<use xlink:href="#bannerman_warrior_shieldbannerman_1_Layer0_0_FILL"/>
</g>
</g>
</svg>
