
<svg xmlns="http://www.w3.org/2000/svg" version="1.1" xmlns:xlink="http://www.w3.org/1999/xlink" preserveAspectRatio="none" x="0px" y="0px" width="200px" height="200px" viewBox="0 0 200 200">
<defs/>

<g transform="matrix( 0.4565277099609375, 0, 0, 0.4565277099609375, 54.05,49.2) ">
<g transform="matrix( -0.81854248046875, 0, 0, 0.86761474609375, 169.4,154.45) "/>

<g transform="matrix( 0.6796875, 0, 0, 0.64404296875, 77,121.4) "/>

<g transform="matrix( 0.95880126953125, 0, 0, 0.98358154296875, 82.2,167.15) "/>

<g transform="matrix( -0.6689453125, 0, 0, 0.7414398193359375, 85.6,165.45) "/>

<g transform="matrix( 0.5660400390625, 0, 0, 0.57257080078125, 131.65,207.1) "/>

<g transform="matrix( -1.198974609375, 0, 0, 1.2388763427734375, 194.25,111.5) "/>

<g transform="matrix( 0.9955902099609375, 0, 0, 0.91961669921875, 58.9,64.3) "/>

<g transform="matrix( 1.404449462890625, 0, 0, 1.404449462890625, 66.5,129.65) "/>

<g transform="matrix( -0.9798431396484375, 0, 0, 1.058685302734375, 71.5,127.2) "/>

<g transform="matrix( 0.829132080078125, 0, 0, 0.8175811767578125, 138.95,186.7) "/>

<g transform="matrix( 1.198974609375, 0, 0, 1.2388763427734375, 110.25,132) "/>

<g transform="matrix( 0.9955902099609375, 0, 0, 0.91961669921875, 78,90.2) "/>

<g transform="matrix( -1.4044189453125, 0, 0, 1.404449462890625, 180.2,77.8) "/>

<g transform="matrix( 0.9798431396484375, 0, 0, 1.058685302734375, 59.55,125.8) "/>

<g transform="matrix( -0.829132080078125, 0, 0, 0.8175811767578125, 134,151.2) "/>
</g>
</svg>
