
<svg xmlns="http://www.w3.org/2000/svg" version="1.1" xmlns:xlink="http://www.w3.org/1999/xlink" preserveAspectRatio="none" x="0px" y="0px" width="1000px" height="1000px" viewBox="0 0 1000 1000">
<defs>
<g id="Symbol_30_0_Layer0_0_FILL">
<path fill="#FFFFFF" fill-opacity="0.4980392156862745" stroke="none" d="
M 84.2 93.1
Q 87.4 84.1 88.5 79.75 90.85 70.2 90.85 56.85 90.85 35.35 79.8 19 67 0 45.35 0 23.05 0 10.95 17 0 32.4 0 57.35 0 73.6 4.05 87.3 5.55 92.3 8.3 99.5 9.6267578125 99.75625 10.8 100.65 12.0302734375 101.5453125 15.85 98.7 19.659765625 95.9015625 20.2 96.55 21 97.6 22.7 100.35 26.55 105.85 33.5 105.85 39.25 105.85 45.15 100.85 48.85 97.75 49.3 97.4 51.5 95.85 53.35 95.85 56.95 95.85 60.8 98.85 64.7 101.85 68.85 101.85 73.7 101.85 79.95 96.25 82.55 93.9 84.2 93.1 Z"/>
</g>
</defs>

<g transform="matrix( 1, 0, 0, 1, 457.75,373.85) ">
<g transform="matrix( 1, 0, 0, 1, 47.85,37.5) ">
<g transform="matrix( 0.058349609375, 0, 0, 2.34600830078125, -5,-171.65) ">
<g transform="matrix( 1, 0, 0, 1, 0,0) ">
<use xlink:href="#Symbol_30_0_Layer0_0_FILL"/>
</g>
</g>
</g>
</g>
</svg>
