
<svg xmlns="http://www.w3.org/2000/svg" version="1.1" xmlns:xlink="http://www.w3.org/1999/xlink" preserveAspectRatio="none" x="0px" y="0px" width="1000px" height="1000px" viewBox="0 0 1000 1000">
<defs>
<g id="Symbol_30_2_Layer0_0_FILL">
<path fill="#FFFFFF" fill-opacity="0.4980392156862745" stroke="none" d="
M 84.65 91.05
Q 87.85 82.5 89 78.4 91.35 69.3 91.35 56.65 91.35 36.25 80.2 20.75 67.25 2.7 45.4 2.7 22.9 2.7 10.65 18.85 -0.4 33.45 -0.4 57.15 -0.4 72.55 3.7 85.55 5.2 90.3 8 97.15 9.35 97.35 10.55 98.2 11.75 99.05 15.6 96.4 19.45 93.7 20 94.35 20.8 95.3 22.5 97.95 26.4 103.15 33.45 103.15 39.25 103.15 45.2 98.4 48.95 95.45 49.4 95.15 51.6 93.65 53.5 93.65 57.1 93.65 61 96.5 64.95 99.35 69.15 99.35 74.05 99.35 80.35 94.05 82.95 91.8 84.65 91.05 Z"/>
</g>

<g id="Symbol_31_0_Layer0_0_FILL">
<path fill="#000000" stroke="none" d="
M 14.25 10.3
Q 14.25 6.35 12.8 3.5 11.3 0.6 8.3 0.1 5.25 -0.4 2.75 1.9 0.25 4.2 0.05 8.3 -0.2 12.35 1.25 15.2 2.75 18.05 6.25 18.55 9.7 19 12 16.55 14.25 14.05 14.25 10.3
M 11.3 5.1
Q 12.35 7.2 11.85 9.9 11.45 12.65 9.7 14.45 7.95 16.25 5.95 16 3.95 15.8 2.8 13.7 1.75 11.55 2.2 8.85 2.7 6.1 4.45 4.3 6.15 2.55 8.15 2.75 10.15 2.95 11.3 5.1
M 22.05 5
Q 21.15 7.1 21.1 10 21.1 12.85 22.55 14.65 24.05 16.45 26.2 16.15 28.4 15.75 29.4 13.7 30.3 11.6 30.15 8.6 30.05 5.55 28.45 3.85 26.85 2.15 24.95 2.55 23 2.9 22.05 5
M 22.65 9.75
Q 22.35 7.75 23 6.15 23.7 4.65 25 4.5 26.3 4.3 27.4 5.6 28.5 6.9 28.8 8.95 29.1 11 28.4 12.55 27.65 14.1 26.45 14.25 25.15 14.4 24.05 13.15 22.9 11.8 22.65 9.75 Z"/>

<path fill="#CC33FF" stroke="none" d="
M 11.85 9.9
Q 12.35 7.2 11.3 5.1 10.15 2.95 8.15 2.75 6.15 2.55 4.45 4.3 2.7 6.1 2.2 8.85 1.75 11.55 2.8 13.7 3.95 15.8 5.95 16 7.95 16.25 9.7 14.45 11.45 12.65 11.85 9.9
M 23 6.15
Q 22.35 7.75 22.65 9.75 22.9 11.8 24.05 13.15 25.15 14.4 26.45 14.25 27.65 14.1 28.4 12.55 29.1 11 28.8 8.95 28.5 6.9 27.4 5.6 26.3 4.3 25 4.5 23.7 4.65 23 6.15 Z"/>
</g>
</defs>

<g transform="matrix( 1, 0, 0, 1, 457.75,373.85) ">
<g transform="matrix( 1, 0, 0, 1, 47.85,37.5) ">
<g transform="matrix( 1, 0, 0, 1, -48.85,-38.85) ">
<g transform="matrix( 1.0098114013671875, 0, 0, 0.9741363525390625, -0.4,1.4) ">
<use xlink:href="#Symbol_30_2_Layer0_0_FILL"/>
</g>
</g>

<g transform="matrix( 0.773162841796875, 0, 0, 0.773162841796875, -37.55,-28.25) ">
<g transform="matrix( 1.0098114013671875, 0, 0, 0.9741363525390625, -0.4,1.4) ">
<use xlink:href="#Symbol_30_2_Layer0_0_FILL"/>
</g>
</g>

<g transform="matrix( 1, 0, 0, 1, -6.4,-14.6) ">
<g transform="matrix( 1, 0, 0, 1, 0,0) ">
<use xlink:href="#Symbol_31_0_Layer0_0_FILL"/>
</g>
</g>
</g>
</g>
</svg>
